<?xml version="1.0" encoding="UTF-8" standalone="no"?>
<!DOCTYPE svg PUBLIC "-//W3C//DTD SVG 1.1//EN"
 "http://www.w3.org/Graphics/SVG/1.1/DTD/svg11.dtd">
<!-- Generated by graphviz version 2.40.1 (20161225.0304)
 -->
<!-- Title: orphans Pages: 1 -->
<svg width="304pt" height="659pt"
 viewBox="0.00 0.00 304.00 659.00" xmlns="http://www.w3.org/2000/svg" xmlns:xlink="http://www.w3.org/1999/xlink">
<g id="graph0" class="graph" transform="scale(1 1) rotate(0) translate(4 655)">
<title>orphans</title>
<polygon fill="#ffffff" stroke="transparent" points="-4,4 -4,-655 300,-655 300,4 -4,4"/>
<!-- hmpps_domain_event -->
<g id="node1" class="node">
<title>hmpps_domain_event</title>
<g id="a_node1"><a xlink:href="../../tables/hmpps_domain_event.html" xlink:title="hmpps_domain_event" target="_top">
<polygon fill="#ffffff" stroke="transparent" points="13.5,-4 13.5,-182 282.5,-182 282.5,-4 13.5,-4"/>
<polygon fill="#f5f5f5" stroke="transparent" points="16,-157 16,-180 281,-180 281,-157 16,-157"/>
<polygon fill="none" stroke="#000000" points="16,-157 16,-180 281,-180 281,-157 16,-157"/>
<text text-anchor="start" x="21" y="-165.6" font-family="Helvetica,sans-Serif" font-weight="bold" font-size="11.00" fill="#000000">hmpps_domain_event</text>
<text text-anchor="start" x="246.0437" y="-165.1" font-family="Helvetica,sans-Serif" font-size="11.00" fill="#000000">[table]</text>
<polygon fill="none" stroke="#000000" points="16,-135 16,-157 182,-157 182,-135 16,-135"/>
<image xlink:href="../../images/primaryKeys.png" width="11px" height="12px" preserveAspectRatio="xMinYMin meet" x="21" y="-152"/>
<text text-anchor="start" x="36" y="-142.1" font-family="Helvetica,sans-Serif" font-size="11.00" fill="#000000">id</text>
<polygon fill="none" stroke="#000000" points="182,-135 182,-157 281,-157 281,-135 182,-135"/>
<text text-anchor="start" x="185" y="-142.7" font-family="Helvetica,sans-Serif" font-size="11.00" fill="#000000">uuid[2147483647]</text>
<polygon fill="none" stroke="#000000" points="16,-113 16,-135 182,-135 182,-113 16,-113"/>
<text text-anchor="start" x="36" y="-120.1" font-family="Helvetica,sans-Serif" font-size="11.00" fill="#000000">event_type</text>
<polygon fill="none" stroke="#000000" points="182,-113 182,-135 281,-135 281,-113 182,-113"/>
<text text-anchor="start" x="185" y="-120.7" font-family="Helvetica,sans-Serif" font-size="11.00" fill="#000000">text[2147483647]</text>
<polygon fill="none" stroke="#000000" points="16,-91 16,-113 182,-113 182,-91 16,-91"/>
<text text-anchor="start" x="36" y="-98.1" font-family="Helvetica,sans-Serif" font-size="11.00" fill="#000000">event</text>
<polygon fill="none" stroke="#000000" points="182,-91 182,-113 281,-113 281,-91 182,-91"/>
<text text-anchor="start" x="184.7258" y="-98.7" font-family="Helvetica,sans-Serif" font-size="11.00" fill="#000000">jsonb[2147483647]</text>
<polygon fill="none" stroke="#000000" points="16,-69 16,-91 182,-91 182,-69 16,-69"/>
<text text-anchor="start" x="36" y="-76.1" font-family="Helvetica,sans-Serif" font-size="11.00" fill="#000000">published</text>
<polygon fill="none" stroke="#000000" points="182,-69 182,-91 281,-91 281,-69 182,-69"/>
<text text-anchor="start" x="185" y="-76.7" font-family="Helvetica,sans-Serif" font-size="11.00" fill="#000000">bool[1]</text>
<polygon fill="none" stroke="#000000" points="16,-47 16,-69 182,-69 182,-47 16,-47"/>
<text text-anchor="start" x="36" y="-54.1" font-family="Helvetica,sans-Serif" font-size="11.00" fill="#000000">version</text>
<polygon fill="none" stroke="#000000" points="182,-47 182,-69 281,-69 281,-47 182,-47"/>
<text text-anchor="start" x="185" y="-54.7" font-family="Helvetica,sans-Serif" font-size="11.00" fill="#000000">int4[10]</text>
<polygon fill="none" stroke="#000000" points="16,-25 16,-47 182,-47 182,-25 16,-25"/>
<text text-anchor="start" x="36" y="-32.1" font-family="Helvetica,sans-Serif" font-size="11.00" fill="#000000">entity_id</text>
<polygon fill="none" stroke="#000000" points="182,-25 182,-47 281,-47 281,-25 182,-25"/>
<text text-anchor="start" x="185" y="-32.7" font-family="Helvetica,sans-Serif" font-size="11.00" fill="#000000">uuid[2147483647]</text>
<polygon fill="#ffffff" stroke="transparent" points="16,-6 16,-25 103,-25 103,-6 16,-6"/>
<polygon fill="none" stroke="#000000" points="16,-6 16,-25 103,-25 103,-6 16,-6"/>
<text text-anchor="start" x="19" y="-12.1" font-family="Helvetica,sans-Serif" font-size="11.00" fill="#000000">&lt; 0</text>
<polygon fill="#ffffff" stroke="transparent" points="103,-6 103,-25 182,-25 182,-6 103,-6"/>
<polygon fill="none" stroke="#000000" points="103,-6 103,-25 182,-25 182,-6 103,-6"/>
<text text-anchor="start" x="172.8862" y="-12.1" font-family="Helvetica,sans-Serif" font-size="11.00" fill="#000000"> &#160;</text>
<polygon fill="#ffffff" stroke="transparent" points="182,-6 182,-25 281,-25 281,-6 182,-6"/>
<polygon fill="none" stroke="#000000" points="182,-6 182,-25 281,-25 281,-6 182,-6"/>
<text text-anchor="start" x="262.4053" y="-12.1" font-family="Helvetica,sans-Serif" font-size="11.00" fill="#000000">0 &gt;</text>
<polygon fill="none" stroke="#000000" stroke-width="2" points="14.5,-5 14.5,-181 281.5,-181 281.5,-5 14.5,-5"/>
</a>
</g>
</g>
<!-- migration_system_audit -->
<g id="node2" class="node">
<title>migration_system_audit</title>
<g id="a_node2"><a xlink:href="../../tables/migration_system_audit.html" xlink:title="migration_system_audit" target="_top">
<polygon fill="#ffffff" stroke="transparent" points="8,-203 8,-359 288,-359 288,-203 8,-203"/>
<polygon fill="#f5f5f5" stroke="transparent" points="10,-334 10,-357 286,-357 286,-334 10,-334"/>
<polygon fill="none" stroke="#000000" points="10,-334 10,-357 286,-357 286,-334 10,-334"/>
<text text-anchor="start" x="15" y="-342.6" font-family="Helvetica,sans-Serif" font-weight="bold" font-size="11.00" fill="#000000">migration_system_audit</text>
<text text-anchor="start" x="251.0437" y="-342.1" font-family="Helvetica,sans-Serif" font-size="11.00" fill="#000000">[table]</text>
<polygon fill="none" stroke="#000000" points="10,-312 10,-334 192,-334 192,-312 10,-312"/>
<image xlink:href="../../images/primaryKeys.png" width="11px" height="12px" preserveAspectRatio="xMinYMin meet" x="15" y="-329"/>
<text text-anchor="start" x="30" y="-319.1" font-family="Helvetica,sans-Serif" font-size="11.00" fill="#000000">id</text>
<polygon fill="none" stroke="#000000" points="192,-312 192,-334 286,-334 286,-312 192,-312"/>
<text text-anchor="start" x="194.9758" y="-319.7" font-family="Helvetica,sans-Serif" font-size="11.00" fill="#000000">uuid[2147483647]</text>
<polygon fill="none" stroke="#000000" points="10,-290 10,-312 192,-312 192,-290 10,-290"/>
<text text-anchor="start" x="30" y="-297.1" font-family="Helvetica,sans-Serif" font-size="11.00" fill="#000000">created_at</text>
<polygon fill="none" stroke="#000000" points="192,-290 192,-312 286,-312 286,-290 192,-290"/>
<text text-anchor="start" x="195" y="-297.7" font-family="Helvetica,sans-Serif" font-size="11.00" fill="#000000">timestamp[29,6]</text>
<polygon fill="none" stroke="#000000" points="10,-268 10,-290 192,-290 192,-268 10,-268"/>
<text text-anchor="start" x="30" y="-275.1" font-family="Helvetica,sans-Serif" font-size="11.00" fill="#000000">created_by</text>
<polygon fill="none" stroke="#000000" points="192,-268 192,-290 286,-290 286,-268 192,-268"/>
<text text-anchor="start" x="195" y="-275.7" font-family="Helvetica,sans-Serif" font-size="11.00" fill="#000000">varchar[64]</text>
<polygon fill="none" stroke="#000000" points="10,-246 10,-268 192,-268 192,-246 10,-246"/>
<text text-anchor="start" x="30" y="-253.1" font-family="Helvetica,sans-Serif" font-size="11.00" fill="#000000">updated_at</text>
<polygon fill="none" stroke="#000000" points="192,-246 192,-268 286,-268 286,-246 192,-246"/>
<text text-anchor="start" x="195" y="-253.7" font-family="Helvetica,sans-Serif" font-size="11.00" fill="#000000">timestamp[29,6]</text>
<polygon fill="none" stroke="#000000" points="10,-224 10,-246 192,-246 192,-224 10,-224"/>
<text text-anchor="start" x="30" y="-231.1" font-family="Helvetica,sans-Serif" font-size="11.00" fill="#000000">updated_by</text>
<polygon fill="none" stroke="#000000" points="192,-224 192,-246 286,-246 286,-224 192,-224"/>
<text text-anchor="start" x="195" y="-231.7" font-family="Helvetica,sans-Serif" font-size="11.00" fill="#000000">varchar[64]</text>
<polygon fill="#ffffff" stroke="transparent" points="10,-205 10,-224 105,-224 105,-205 10,-205"/>
<polygon fill="none" stroke="#000000" points="10,-205 10,-224 105,-224 105,-205 10,-205"/>
<text text-anchor="start" x="13" y="-211.1" font-family="Helvetica,sans-Serif" font-size="11.00" fill="#000000">&lt; 0</text>
<polygon fill="#ffffff" stroke="transparent" points="105,-205 105,-224 192,-224 192,-205 105,-205"/>
<polygon fill="none" stroke="#000000" points="105,-205 105,-224 192,-224 192,-205 105,-205"/>
<text text-anchor="start" x="182.8862" y="-211.1" font-family="Helvetica,sans-Serif" font-size="11.00" fill="#000000"> &#160;</text>
<polygon fill="#ffffff" stroke="transparent" points="192,-205 192,-224 286,-224 286,-205 192,-205"/>
<polygon fill="none" stroke="#000000" points="192,-205 192,-224 286,-224 286,-205 192,-205"/>
<text text-anchor="start" x="267.4053" y="-211.1" font-family="Helvetica,sans-Serif" font-size="11.00" fill="#000000">0 &gt;</text>
<polygon fill="none" stroke="#000000" stroke-width="2" points="9,-204 9,-358 287,-358 287,-204 9,-204"/>
</a>
</g>
</g>
<!-- reference_data -->
<g id="node3" class="node">
<title>reference_data</title>
<g id="a_node3"><a xlink:href="../../tables/reference_data.html" xlink:title="reference_data" target="_top">
<polygon fill="#ffffff" stroke="transparent" points="27.5,-380 27.5,-536 268.5,-536 268.5,-380 27.5,-380"/>
<polygon fill="#f5f5f5" stroke="transparent" points="30,-511 30,-534 267,-534 267,-511 30,-511"/>
<polygon fill="none" stroke="#000000" points="30,-511 30,-534 267,-534 267,-511 30,-511"/>
<text text-anchor="start" x="35" y="-519.6" font-family="Helvetica,sans-Serif" font-weight="bold" font-size="11.00" fill="#000000">reference_data</text>
<text text-anchor="start" x="232.0437" y="-519.1" font-family="Helvetica,sans-Serif" font-size="11.00" fill="#000000">[table]</text>
<polygon fill="none" stroke="#000000" points="30,-489 30,-511 173,-511 173,-489 30,-489"/>
<text text-anchor="start" x="50" y="-496.1" font-family="Helvetica,sans-Serif" font-size="11.00" fill="#000000">id</text>
<polygon fill="none" stroke="#000000" points="173,-489 173,-511 267,-511 267,-489 173,-489"/>
<text text-anchor="start" x="175.9758" y="-496.7" font-family="Helvetica,sans-Serif" font-size="11.00" fill="#000000">uuid[2147483647]</text>
<polygon fill="none" stroke="#000000" points="30,-467 30,-489 173,-489 173,-467 30,-467"/>
<text text-anchor="start" x="50" y="-474.1" font-family="Helvetica,sans-Serif" font-size="11.00" fill="#000000">code</text>
<polygon fill="none" stroke="#000000" points="173,-467 173,-489 267,-489 267,-467 173,-467"/>
<text text-anchor="start" x="176" y="-474.7" font-family="Helvetica,sans-Serif" font-size="11.00" fill="#000000">varchar[16]</text>
<polygon fill="none" stroke="#000000" points="30,-445 30,-467 173,-467 173,-445 30,-445"/>
<text text-anchor="start" x="50" y="-452.1" font-family="Helvetica,sans-Serif" font-size="11.00" fill="#000000">description</text>
<polygon fill="none" stroke="#000000" points="173,-445 173,-467 267,-467 267,-445 173,-445"/>
<text text-anchor="start" x="176" y="-452.7" font-family="Helvetica,sans-Serif" font-size="11.00" fill="#000000">varchar[255]</text>
<polygon fill="none" stroke="#000000" points="30,-423 30,-445 173,-445 173,-423 30,-423"/>
<text text-anchor="start" x="50" y="-430.1" font-family="Helvetica,sans-Serif" font-size="11.00" fill="#000000">sequence_number</text>
<polygon fill="none" stroke="#000000" points="173,-423 173,-445 267,-445 267,-423 173,-423"/>
<text text-anchor="start" x="176" y="-430.7" font-family="Helvetica,sans-Serif" font-size="11.00" fill="#000000">int4[10]</text>
<polygon fill="none" stroke="#000000" points="30,-401 30,-423 173,-423 173,-401 30,-401"/>
<text text-anchor="start" x="50" y="-408.1" font-family="Helvetica,sans-Serif" font-size="11.00" fill="#000000">active</text>
<polygon fill="none" stroke="#000000" points="173,-401 173,-423 267,-423 267,-401 173,-401"/>
<text text-anchor="start" x="176" y="-408.7" font-family="Helvetica,sans-Serif" font-size="11.00" fill="#000000">bool[1]</text>
<polygon fill="#ffffff" stroke="transparent" points="30,-382 30,-401 106,-401 106,-382 30,-382"/>
<polygon fill="none" stroke="#000000" points="30,-382 30,-401 106,-401 106,-382 30,-382"/>
<text text-anchor="start" x="33" y="-388.1" font-family="Helvetica,sans-Serif" font-size="11.00" fill="#000000">&lt; 0</text>
<polygon fill="#ffffff" stroke="transparent" points="106,-382 106,-401 173,-401 173,-382 106,-382"/>
<polygon fill="none" stroke="#000000" points="106,-382 106,-401 173,-401 173,-382 106,-382"/>
<text text-anchor="start" x="163.8862" y="-388.1" font-family="Helvetica,sans-Serif" font-size="11.00" fill="#000000"> &#160;</text>
<polygon fill="#ffffff" stroke="transparent" points="173,-382 173,-401 267,-401 267,-382 173,-382"/>
<polygon fill="none" stroke="#000000" points="173,-382 173,-401 267,-401 267,-382 173,-382"/>
<text text-anchor="start" x="248.4053" y="-388.1" font-family="Helvetica,sans-Serif" font-size="11.00" fill="#000000">0 &gt;</text>
<polygon fill="none" stroke="#000000" stroke-width="2" points="28.5,-381 28.5,-535 267.5,-535 267.5,-381 28.5,-381"/>
</a>
</g>
</g>
<!-- reference_data_domain -->
<g id="node4" class="node">
<title>reference_data_domain</title>
<g id="a_node4"><a xlink:href="../../tables/reference_data_domain.html" xlink:title="reference_data_domain" target="_top">
<polygon fill="#ffffff" stroke="transparent" points="23.5,-557 23.5,-647 272.5,-647 272.5,-557 23.5,-557"/>
<polygon fill="#f5f5f5" stroke="transparent" points="26,-622 26,-645 271,-645 271,-622 26,-622"/>
<polygon fill="none" stroke="#000000" points="26,-622 26,-645 271,-645 271,-622 26,-622"/>
<text text-anchor="start" x="31" y="-630.6" font-family="Helvetica,sans-Serif" font-weight="bold" font-size="11.00" fill="#000000">reference_data_domain</text>
<text text-anchor="start" x="236.0437" y="-630.1" font-family="Helvetica,sans-Serif" font-size="11.00" fill="#000000">[table]</text>
<polygon fill="none" stroke="#000000" points="26,-600 26,-622 204,-622 204,-600 26,-600"/>
<image xlink:href="../../images/primaryKeys.png" width="11px" height="12px" preserveAspectRatio="xMinYMin meet" x="31" y="-617"/>
<text text-anchor="start" x="46" y="-607.1" font-family="Helvetica,sans-Serif" font-size="11.00" fill="#000000">code</text>
<polygon fill="none" stroke="#000000" points="204,-600 204,-622 271,-622 271,-600 204,-600"/>
<text text-anchor="start" x="207" y="-607.7" font-family="Helvetica,sans-Serif" font-size="11.00" fill="#000000">varchar[32]</text>
<polygon fill="none" stroke="#000000" points="26,-578 26,-600 204,-600 204,-578 26,-578"/>
<text text-anchor="start" x="46" y="-585.1" font-family="Helvetica,sans-Serif" font-size="11.00" fill="#000000">description</text>
<polygon fill="none" stroke="#000000" points="204,-578 204,-600 271,-600 271,-578 204,-578"/>
<text text-anchor="start" x="206.9365" y="-585.7" font-family="Helvetica,sans-Serif" font-size="11.00" fill="#000000">varchar[255]</text>
<polygon fill="#ffffff" stroke="transparent" points="26,-559 26,-578 119,-578 119,-559 26,-559"/>
<polygon fill="none" stroke="#000000" points="26,-559 26,-578 119,-578 119,-559 26,-559"/>
<text text-anchor="start" x="29" y="-565.1" font-family="Helvetica,sans-Serif" font-size="11.00" fill="#000000">&lt; 0</text>
<polygon fill="#ffffff" stroke="transparent" points="119,-559 119,-578 204,-578 204,-559 119,-559"/>
<polygon fill="none" stroke="#000000" points="119,-559 119,-578 204,-578 204,-559 119,-559"/>
<text text-anchor="start" x="194.8862" y="-565.1" font-family="Helvetica,sans-Serif" font-size="11.00" fill="#000000"> &#160;</text>
<polygon fill="#ffffff" stroke="transparent" points="204,-559 204,-578 271,-578 271,-559 204,-559"/>
<polygon fill="none" stroke="#000000" points="204,-559 204,-578 271,-578 271,-559 204,-559"/>
<text text-anchor="start" x="252.4053" y="-565.1" font-family="Helvetica,sans-Serif" font-size="11.00" fill="#000000">0 &gt;</text>
<polygon fill="none" stroke="#000000" stroke-width="2" points="24.5,-558 24.5,-646 271.5,-646 271.5,-558 24.5,-558"/>
</a>
</g>
</g>
</g>
</svg>
