<?xml version="1.0" encoding="UTF-8" standalone="no"?>
<!DOCTYPE svg PUBLIC "-//W3C//DTD SVG 1.1//EN"
 "http://www.w3.org/Graphics/SVG/1.1/DTD/svg11.dtd">
<!-- Generated by graphviz version 2.40.1 (20161225.0304)
 -->
<!-- Title: oneDegreeRelationshipsDiagram Pages: 1 -->
<svg width="572pt" height="615pt"
 viewBox="0.00 0.00 572.00 615.20" xmlns="http://www.w3.org/2000/svg" xmlns:xlink="http://www.w3.org/1999/xlink">
<g id="graph0" class="graph" transform="scale(1 1) rotate(0) translate(4 611.2)">
<title>oneDegreeRelationshipsDiagram</title>
<polygon fill="#ffffff" stroke="transparent" points="-4,4 -4,-611.2 568,-611.2 568,4 -4,4"/>
<text text-anchor="middle" x="72.4936" y="-7.3" font-family="Helvetica,sans-Serif" font-size="11.00" fill="#000000">Generated by SchemaSpy</text>
<!-- hmpps_domain_event_audit -->
<g id="node1" class="node">
<title>hmpps_domain_event_audit</title>
<g id="a_node1"><a xlink:href="../../tables/hmpps_domain_event_audit.html" xlink:title="hmpps_domain_event_audit" target="_top">
<polygon fill="#ffffff" stroke="transparent" points="321,-454.2 321,-603.2 546,-603.2 546,-454.2 321,-454.2"/>
<polygon fill="#f5f5f5" stroke="transparent" points="321.5,-579.7 321.5,-602.7 546.5,-602.7 546.5,-579.7 321.5,-579.7"/>
<polygon fill="none" stroke="#000000" points="321.5,-579.7 321.5,-602.7 546.5,-602.7 546.5,-579.7 321.5,-579.7"/>
<text text-anchor="start" x="326.5" y="-588.3" font-family="Helvetica,sans-Serif" font-weight="bold" font-size="11.00" fill="#000000">hmpps_domain_event_audit</text>
<text text-anchor="start" x="512.0219" y="-587.8" font-family="Helvetica,sans-Serif" font-size="11.00" fill="#000000">[table]</text>
<polygon fill="none" stroke="#000000" points="321.5,-557.7 321.5,-579.7 546.5,-579.7 546.5,-557.7 321.5,-557.7"/>
<image xlink:href="../../images/primaryKeys.png" width="11px" height="12px" preserveAspectRatio="xMinYMin meet" x="326.5" y="-574.7"/>
<text text-anchor="start" x="350.5" y="-564.8" font-family="Helvetica,sans-Serif" font-size="11.00" fill="#000000">rev_id</text>
<polygon fill="#ffffff" stroke="transparent" points="321.5,-535.7 321.5,-557.7 546.5,-557.7 546.5,-535.7 321.5,-535.7"/>
<polygon fill="none" stroke="#000000" points="321.5,-535.7 321.5,-557.7 546.5,-557.7 546.5,-535.7 321.5,-535.7"/>
<text text-anchor="start" x="350.5" y="-542.8" font-family="Helvetica,sans-Serif" font-size="11.00" fill="#000000">rev_type</text>
<polygon fill="none" stroke="#000000" points="321.5,-513.7 321.5,-535.7 546.5,-535.7 546.5,-513.7 321.5,-513.7"/>
<image xlink:href="../../images/primaryKeys.png" width="11px" height="12px" preserveAspectRatio="xMinYMin meet" x="326.5" y="-530.7"/>
<text text-anchor="start" x="350.5" y="-520.8" font-family="Helvetica,sans-Serif" font-size="11.00" fill="#000000">id</text>
<polygon fill="#ffffff" stroke="transparent" points="321.5,-491.7 321.5,-513.7 546.5,-513.7 546.5,-491.7 321.5,-491.7"/>
<polygon fill="none" stroke="#000000" points="321.5,-491.7 321.5,-513.7 546.5,-513.7 546.5,-491.7 321.5,-491.7"/>
<text text-anchor="start" x="350.5" y="-498.8" font-family="Helvetica,sans-Serif" font-size="11.00" fill="#000000">entity_id</text>
<polygon fill="none" stroke="#000000" points="321.5,-472.7 321.5,-491.7 546.5,-491.7 546.5,-472.7 321.5,-472.7"/>
<text text-anchor="start" x="324.5" y="-478.8" font-family="Helvetica,sans-Serif" font-size="11.00" fill="#000000">...</text>
<polygon fill="#ffffff" stroke="transparent" points="321.5,-453.7 321.5,-472.7 432.5,-472.7 432.5,-453.7 321.5,-453.7"/>
<polygon fill="none" stroke="#000000" points="321.5,-453.7 321.5,-472.7 432.5,-472.7 432.5,-453.7 321.5,-453.7"/>
<text text-anchor="start" x="324.5" y="-459.8" font-family="Helvetica,sans-Serif" font-size="11.00" fill="#000000">&lt; 1</text>
<polygon fill="#ffffff" stroke="transparent" points="432.5,-453.7 432.5,-472.7 489.5,-472.7 489.5,-453.7 432.5,-453.7"/>
<polygon fill="none" stroke="#000000" points="432.5,-453.7 432.5,-472.7 489.5,-472.7 489.5,-453.7 432.5,-453.7"/>
<text text-anchor="start" x="480.3862" y="-459.8" font-family="Helvetica,sans-Serif" font-size="11.00" fill="#000000"> &#160;</text>
<polygon fill="#ffffff" stroke="transparent" points="489.5,-453.7 489.5,-472.7 546.5,-472.7 546.5,-453.7 489.5,-453.7"/>
<polygon fill="none" stroke="#000000" points="489.5,-453.7 489.5,-472.7 546.5,-472.7 546.5,-453.7 489.5,-453.7"/>
<text text-anchor="start" x="537.3862" y="-459.8" font-family="Helvetica,sans-Serif" font-size="11.00" fill="#000000"> &#160;</text>
</a>
</g>
</g>
<!-- audit_revision -->
<g id="node2" class="node">
<title>audit_revision</title>
<g id="a_node2"><a xlink:href="../../tables/audit_revision.html" xlink:title="audit_revision" target="_top">
<polygon fill="#ffffff" stroke="transparent" points="8,-130.7 8,-330.7 262,-330.7 262,-130.7 8,-130.7"/>
<polygon fill="#f5f5f5" stroke="transparent" points="10,-305.7 10,-328.7 260,-328.7 260,-305.7 10,-305.7"/>
<polygon fill="none" stroke="#000000" points="10,-305.7 10,-328.7 260,-328.7 260,-305.7 10,-305.7"/>
<text text-anchor="start" x="15" y="-314.3" font-family="Helvetica,sans-Serif" font-weight="bold" font-size="11.00" fill="#000000">audit_revision</text>
<text text-anchor="start" x="225.0437" y="-313.8" font-family="Helvetica,sans-Serif" font-size="11.00" fill="#000000">[table]</text>
<polygon fill="none" stroke="#000000" points="10,-283.7 10,-305.7 144,-305.7 144,-283.7 10,-283.7"/>
<image xlink:href="../../images/primaryKeys.png" width="11px" height="12px" preserveAspectRatio="xMinYMin meet" x="15" y="-300.7"/>
<text text-anchor="start" x="30" y="-290.8" font-family="Helvetica,sans-Serif" font-size="11.00" fill="#000000">id</text>
<polygon fill="none" stroke="#000000" points="144,-283.7 144,-305.7 260,-305.7 260,-283.7 144,-283.7"/>
<text text-anchor="start" x="147" y="-291.4" font-family="Helvetica,sans-Serif" font-size="11.00" fill="#000000">bigserial[19]</text>
<polygon fill="none" stroke="#000000" points="10,-261.7 10,-283.7 144,-283.7 144,-261.7 10,-261.7"/>
<text text-anchor="start" x="30" y="-268.8" font-family="Helvetica,sans-Serif" font-size="11.00" fill="#000000">timestamp</text>
<polygon fill="none" stroke="#000000" points="144,-261.7 144,-283.7 260,-283.7 260,-261.7 144,-261.7"/>
<text text-anchor="start" x="147" y="-269.4" font-family="Helvetica,sans-Serif" font-size="11.00" fill="#000000">timestamp[29,6]</text>
<polygon fill="none" stroke="#000000" points="10,-239.7 10,-261.7 144,-261.7 144,-239.7 10,-239.7"/>
<text text-anchor="start" x="30" y="-246.8" font-family="Helvetica,sans-Serif" font-size="11.00" fill="#000000">username</text>
<polygon fill="none" stroke="#000000" points="144,-239.7 144,-261.7 260,-261.7 260,-239.7 144,-239.7"/>
<text text-anchor="start" x="147" y="-247.4" font-family="Helvetica,sans-Serif" font-size="11.00" fill="#000000">varchar[64]</text>
<polygon fill="none" stroke="#000000" points="10,-217.7 10,-239.7 144,-239.7 144,-217.7 10,-217.7"/>
<text text-anchor="start" x="30" y="-224.8" font-family="Helvetica,sans-Serif" font-size="11.00" fill="#000000">source</text>
<polygon fill="none" stroke="#000000" points="144,-217.7 144,-239.7 260,-239.7 260,-217.7 144,-217.7"/>
<text text-anchor="start" x="147" y="-225.4" font-family="Helvetica,sans-Serif" font-size="11.00" fill="#000000">varchar[6]</text>
<polygon fill="none" stroke="#000000" points="10,-195.7 10,-217.7 144,-217.7 144,-195.7 10,-195.7"/>
<text text-anchor="start" x="30" y="-202.8" font-family="Helvetica,sans-Serif" font-size="11.00" fill="#000000">affected_entities</text>
<polygon fill="none" stroke="#000000" points="144,-195.7 144,-217.7 260,-217.7 260,-195.7 144,-195.7"/>
<text text-anchor="start" x="146.9769" y="-203.4" font-family="Helvetica,sans-Serif" font-size="11.00" fill="#000000">_varchar[2147483647]</text>
<polygon fill="none" stroke="#000000" points="10,-173.7 10,-195.7 144,-195.7 144,-173.7 10,-173.7"/>
<text text-anchor="start" x="30" y="-180.8" font-family="Helvetica,sans-Serif" font-size="11.00" fill="#000000">reason</text>
<polygon fill="none" stroke="#000000" points="144,-173.7 144,-195.7 260,-195.7 260,-173.7 144,-173.7"/>
<text text-anchor="start" x="147" y="-181.4" font-family="Helvetica,sans-Serif" font-size="11.00" fill="#000000">text[2147483647]</text>
<polygon fill="none" stroke="#000000" points="10,-151.7 10,-173.7 144,-173.7 144,-151.7 10,-151.7"/>
<text text-anchor="start" x="30" y="-158.8" font-family="Helvetica,sans-Serif" font-size="11.00" fill="#000000">caseload_id</text>
<polygon fill="none" stroke="#000000" points="144,-151.7 144,-173.7 260,-173.7 260,-151.7 144,-151.7"/>
<text text-anchor="start" x="147" y="-159.4" font-family="Helvetica,sans-Serif" font-size="11.00" fill="#000000">varchar[6]</text>
<polygon fill="#ffffff" stroke="transparent" points="10,-132.7 10,-151.7 81,-151.7 81,-132.7 10,-132.7"/>
<polygon fill="none" stroke="#000000" points="10,-132.7 10,-151.7 81,-151.7 81,-132.7 10,-132.7"/>
<text text-anchor="start" x="13" y="-138.8" font-family="Helvetica,sans-Serif" font-size="11.00" fill="#000000">&lt; 0</text>
<polygon fill="#ffffff" stroke="transparent" points="81,-132.7 81,-151.7 144,-151.7 144,-132.7 81,-132.7"/>
<polygon fill="none" stroke="#000000" points="81,-132.7 81,-151.7 144,-151.7 144,-132.7 81,-132.7"/>
<text text-anchor="start" x="134.8862" y="-138.8" font-family="Helvetica,sans-Serif" font-size="11.00" fill="#000000"> &#160;</text>
<polygon fill="#ffffff" stroke="transparent" points="144,-132.7 144,-151.7 260,-151.7 260,-132.7 144,-132.7"/>
<polygon fill="none" stroke="#000000" points="144,-132.7 144,-151.7 260,-151.7 260,-132.7 144,-132.7"/>
<text text-anchor="start" x="241.4053" y="-138.8" font-family="Helvetica,sans-Serif" font-size="11.00" fill="#000000">5 &gt;</text>
<polygon fill="none" stroke="#000000" stroke-width="2" points="9,-131.7 9,-329.7 261,-329.7 261,-131.7 9,-131.7"/>
</a>
</g>
</g>
<!-- hmpps_domain_event_audit&#45;&gt;audit_revision -->
<g id="edge1" class="edge">
<title>hmpps_domain_event_audit:w&#45;&gt;audit_revision:e</title>
<path fill="none" stroke="#000000" d="M308.0372,-562.9771C269.0488,-523.6298 317.041,-294.7 260,-294.7"/>
<polygon fill="#000000" stroke="#000000" points="314.1376,-565.5703 320.0916,-572.0131 317.8188,-567.1351 321.5,-568.7 321.5,-568.7 321.5,-568.7 317.8188,-567.1351 322.9084,-565.3869 314.1376,-565.5703 314.1376,-565.5703"/>
<ellipse fill="none" stroke="#000000" cx="311.1926" cy="-564.3184" rx="3.2" ry="3.2"/>
</g>
<!-- tap.authorisation_audit -->
<g id="node3" class="node">
<title>tap.authorisation_audit</title>
<g id="a_node3"><a xlink:href="../../../tap/tables/authorisation_audit.html" xlink:title="tap.authorisation_audit" target="_top">
<polygon fill="#ffffff" stroke="transparent" points="327,-350.2 327,-433.2 540,-433.2 540,-350.2 327,-350.2"/>
<polygon fill="#f5f5f5" stroke="transparent" points="327.5,-409.7 327.5,-432.7 540.5,-432.7 540.5,-409.7 327.5,-409.7"/>
<polygon fill="none" stroke="#000000" points="327.5,-409.7 327.5,-432.7 540.5,-432.7 540.5,-409.7 327.5,-409.7"/>
<text text-anchor="start" x="332.5" y="-418.3" font-family="Helvetica,sans-Serif" font-weight="bold" font-size="11.00" fill="#000000">tap.authorisation_audit</text>
<text text-anchor="start" x="505.5437" y="-417.8" font-family="Helvetica,sans-Serif" font-size="11.00" fill="#000000">[table]</text>
<polygon fill="none" stroke="#000000" points="327.5,-387.7 327.5,-409.7 540.5,-409.7 540.5,-387.7 327.5,-387.7"/>
<image xlink:href="../../images/foreignKeys.png" width="11px" height="12px" preserveAspectRatio="xMinYMin meet" x="332.5" y="-404.7"/>
<text text-anchor="start" x="347.5" y="-394.8" font-family="Helvetica,sans-Serif" font-size="11.00" fill="#000000">rev_id</text>
<polygon fill="none" stroke="#000000" points="327.5,-368.7 327.5,-387.7 540.5,-387.7 540.5,-368.7 327.5,-368.7"/>
<text text-anchor="start" x="330.5" y="-374.8" font-family="Helvetica,sans-Serif" font-size="11.00" fill="#000000">...</text>
<polygon fill="#ffffff" stroke="transparent" points="327.5,-349.7 327.5,-368.7 419.5,-368.7 419.5,-349.7 327.5,-349.7"/>
<polygon fill="none" stroke="#000000" points="327.5,-349.7 327.5,-368.7 419.5,-368.7 419.5,-349.7 327.5,-349.7"/>
<text text-anchor="start" x="330.5" y="-355.8" font-family="Helvetica,sans-Serif" font-size="11.00" fill="#000000">&lt; 1</text>
<polygon fill="#ffffff" stroke="transparent" points="419.5,-349.7 419.5,-368.7 492.5,-368.7 492.5,-349.7 419.5,-349.7"/>
<polygon fill="none" stroke="#000000" points="419.5,-349.7 419.5,-368.7 492.5,-368.7 492.5,-349.7 419.5,-349.7"/>
<text text-anchor="start" x="457.1105" y="-355.8" font-family="Helvetica,sans-Serif" font-size="11.00" fill="#000000">0 rows</text>
<polygon fill="#ffffff" stroke="transparent" points="492.5,-349.7 492.5,-368.7 540.5,-368.7 540.5,-349.7 492.5,-349.7"/>
<polygon fill="none" stroke="#000000" points="492.5,-349.7 492.5,-368.7 540.5,-368.7 540.5,-349.7 492.5,-349.7"/>
<text text-anchor="start" x="531.3862" y="-355.8" font-family="Helvetica,sans-Serif" font-size="11.00" fill="#000000"> &#160;</text>
</a>
</g>
</g>
<!-- tap.authorisation_audit&#45;&gt;audit_revision -->
<g id="edge2" class="edge">
<title>tap.authorisation_audit:w&#45;&gt;audit_revision:e</title>
<path fill="none" stroke="#000000" d="M313.0992,-395.4734C280.3165,-377.9194 309.2926,-294.7 260,-294.7"/>
<polygon fill="#000000" stroke="#000000" points="319.6935,-396.9509 326.7129,-402.2129 323.5968,-397.8254 327.5,-398.7 327.5,-398.7 327.5,-398.7 323.5968,-397.8254 328.2871,-395.1871 319.6935,-396.9509 319.6935,-396.9509"/>
<ellipse fill="none" stroke="#000000" cx="316.571" cy="-396.2512" rx="3.2" ry="3.2"/>
</g>
<!-- tap.movement_audit -->
<g id="node4" class="node">
<title>tap.movement_audit</title>
<g id="a_node4"><a xlink:href="../../../tap/tables/movement_audit.html" xlink:title="tap.movement_audit" target="_top">
<polygon fill="#ffffff" stroke="transparent" points="329.5,-246.2 329.5,-329.2 537.5,-329.2 537.5,-246.2 329.5,-246.2"/>
<polygon fill="#f5f5f5" stroke="transparent" points="329.5,-305.7 329.5,-328.7 537.5,-328.7 537.5,-305.7 329.5,-305.7"/>
<polygon fill="none" stroke="#000000" points="329.5,-305.7 329.5,-328.7 537.5,-328.7 537.5,-305.7 329.5,-305.7"/>
<text text-anchor="start" x="334.5" y="-314.3" font-family="Helvetica,sans-Serif" font-weight="bold" font-size="11.00" fill="#000000">tap.movement_audit</text>
<text text-anchor="start" x="502.5437" y="-313.8" font-family="Helvetica,sans-Serif" font-size="11.00" fill="#000000">[table]</text>
<polygon fill="none" stroke="#000000" points="329.5,-283.7 329.5,-305.7 537.5,-305.7 537.5,-283.7 329.5,-283.7"/>
<image xlink:href="../../images/foreignKeys.png" width="11px" height="12px" preserveAspectRatio="xMinYMin meet" x="334.5" y="-300.7"/>
<text text-anchor="start" x="349.5" y="-290.8" font-family="Helvetica,sans-Serif" font-size="11.00" fill="#000000">rev_id</text>
<polygon fill="none" stroke="#000000" points="329.5,-264.7 329.5,-283.7 537.5,-283.7 537.5,-264.7 329.5,-264.7"/>
<text text-anchor="start" x="332.5" y="-270.8" font-family="Helvetica,sans-Serif" font-size="11.00" fill="#000000">...</text>
<polygon fill="#ffffff" stroke="transparent" points="329.5,-245.7 329.5,-264.7 418.5,-264.7 418.5,-245.7 329.5,-245.7"/>
<polygon fill="none" stroke="#000000" points="329.5,-245.7 329.5,-264.7 418.5,-264.7 418.5,-245.7 329.5,-245.7"/>
<text text-anchor="start" x="332.5" y="-251.8" font-family="Helvetica,sans-Serif" font-size="11.00" fill="#000000">&lt; 1</text>
<polygon fill="#ffffff" stroke="transparent" points="418.5,-245.7 418.5,-264.7 490.5,-264.7 490.5,-245.7 418.5,-245.7"/>
<polygon fill="none" stroke="#000000" points="418.5,-245.7 418.5,-264.7 490.5,-264.7 490.5,-245.7 418.5,-245.7"/>
<text text-anchor="start" x="455.1105" y="-251.8" font-family="Helvetica,sans-Serif" font-size="11.00" fill="#000000">0 rows</text>
<polygon fill="#ffffff" stroke="transparent" points="490.5,-245.7 490.5,-264.7 537.5,-264.7 537.5,-245.7 490.5,-245.7"/>
<polygon fill="none" stroke="#000000" points="490.5,-245.7 490.5,-264.7 537.5,-264.7 537.5,-245.7 490.5,-245.7"/>
<text text-anchor="start" x="528.3862" y="-251.8" font-family="Helvetica,sans-Serif" font-size="11.00" fill="#000000"> &#160;</text>
</a>
</g>
</g>
<!-- tap.movement_audit&#45;&gt;audit_revision -->
<g id="edge3" class="edge">
<title>tap.movement_audit:w&#45;&gt;audit_revision:e</title>
<path fill="none" stroke="#000000" d="M314.8241,-294.7C295.0879,-294.7 285.3385,-294.7 260,-294.7"/>
<polygon fill="#000000" stroke="#000000" points="321.5,-294.7001 329.5,-298.3 325.5,-294.7 329.5,-294.7 329.5,-294.7 329.5,-294.7 325.5,-294.7 329.5,-291.1 321.5,-294.7001 321.5,-294.7001"/>
<ellipse fill="none" stroke="#000000" cx="318.3" cy="-294.7001" rx="3.2" ry="3.2"/>
</g>
<!-- tap.occurrence_audit -->
<g id="node5" class="node">
<title>tap.occurrence_audit</title>
<g id="a_node5"><a xlink:href="../../../tap/tables/occurrence_audit.html" xlink:title="tap.occurrence_audit" target="_top">
<polygon fill="#ffffff" stroke="transparent" points="327,-142.2 327,-225.2 540,-225.2 540,-142.2 327,-142.2"/>
<polygon fill="#f5f5f5" stroke="transparent" points="327.5,-201.7 327.5,-224.7 540.5,-224.7 540.5,-201.7 327.5,-201.7"/>
<polygon fill="none" stroke="#000000" points="327.5,-201.7 327.5,-224.7 540.5,-224.7 540.5,-201.7 327.5,-201.7"/>
<text text-anchor="start" x="332.5" y="-210.3" font-family="Helvetica,sans-Serif" font-weight="bold" font-size="11.00" fill="#000000">tap.occurrence_audit</text>
<text text-anchor="start" x="505.5437" y="-209.8" font-family="Helvetica,sans-Serif" font-size="11.00" fill="#000000">[table]</text>
<polygon fill="none" stroke="#000000" points="327.5,-179.7 327.5,-201.7 540.5,-201.7 540.5,-179.7 327.5,-179.7"/>
<image xlink:href="../../images/foreignKeys.png" width="11px" height="12px" preserveAspectRatio="xMinYMin meet" x="332.5" y="-196.7"/>
<text text-anchor="start" x="347.5" y="-186.8" font-family="Helvetica,sans-Serif" font-size="11.00" fill="#000000">rev_id</text>
<polygon fill="none" stroke="#000000" points="327.5,-160.7 327.5,-179.7 540.5,-179.7 540.5,-160.7 327.5,-160.7"/>
<text text-anchor="start" x="330.5" y="-166.8" font-family="Helvetica,sans-Serif" font-size="11.00" fill="#000000">...</text>
<polygon fill="#ffffff" stroke="transparent" points="327.5,-141.7 327.5,-160.7 419.5,-160.7 419.5,-141.7 327.5,-141.7"/>
<polygon fill="none" stroke="#000000" points="327.5,-141.7 327.5,-160.7 419.5,-160.7 419.5,-141.7 327.5,-141.7"/>
<text text-anchor="start" x="330.5" y="-147.8" font-family="Helvetica,sans-Serif" font-size="11.00" fill="#000000">&lt; 1</text>
<polygon fill="#ffffff" stroke="transparent" points="419.5,-141.7 419.5,-160.7 492.5,-160.7 492.5,-141.7 419.5,-141.7"/>
<polygon fill="none" stroke="#000000" points="419.5,-141.7 419.5,-160.7 492.5,-160.7 492.5,-141.7 419.5,-141.7"/>
<text text-anchor="start" x="457.1105" y="-147.8" font-family="Helvetica,sans-Serif" font-size="11.00" fill="#000000">0 rows</text>
<polygon fill="#ffffff" stroke="transparent" points="492.5,-141.7 492.5,-160.7 540.5,-160.7 540.5,-141.7 492.5,-141.7"/>
<polygon fill="none" stroke="#000000" points="492.5,-141.7 492.5,-160.7 540.5,-160.7 540.5,-141.7 492.5,-141.7"/>
<text text-anchor="start" x="531.3862" y="-147.8" font-family="Helvetica,sans-Serif" font-size="11.00" fill="#000000"> &#160;</text>
</a>
</g>
</g>
<!-- tap.occurrence_audit&#45;&gt;audit_revision -->
<g id="edge4" class="edge">
<title>tap.occurrence_audit:w&#45;&gt;audit_revision:e</title>
<path fill="none" stroke="#000000" d="M313.0992,-193.9266C280.3165,-211.4806 309.2926,-294.7 260,-294.7"/>
<polygon fill="#000000" stroke="#000000" points="319.6935,-192.4491 328.2871,-194.2129 323.5968,-191.5746 327.5,-190.7 327.5,-190.7 327.5,-190.7 323.5968,-191.5746 326.7129,-187.1871 319.6935,-192.4491 319.6935,-192.4491"/>
<ellipse fill="none" stroke="#000000" cx="316.571" cy="-193.1488" rx="3.2" ry="3.2"/>
</g>
<!-- tap.prison_tap_locations_audit -->
<g id="node6" class="node">
<title>tap.prison_tap_locations_audit</title>
<g id="a_node6"><a xlink:href="../../../tap/tables/prison_tap_locations_audit.html" xlink:title="tap.prison_tap_locations_audit" target="_top">
<polygon fill="#ffffff" stroke="transparent" points="311,-38.2 311,-121.2 556,-121.2 556,-38.2 311,-38.2"/>
<polygon fill="#f5f5f5" stroke="transparent" points="311.5,-97.7 311.5,-120.7 556.5,-120.7 556.5,-97.7 311.5,-97.7"/>
<polygon fill="none" stroke="#000000" points="311.5,-97.7 311.5,-120.7 556.5,-120.7 556.5,-97.7 311.5,-97.7"/>
<text text-anchor="start" x="316.5" y="-106.3" font-family="Helvetica,sans-Serif" font-weight="bold" font-size="11.00" fill="#000000">tap.prison_tap_locations_audit</text>
<text text-anchor="start" x="522.0219" y="-105.8" font-family="Helvetica,sans-Serif" font-size="11.00" fill="#000000">[table]</text>
<polygon fill="none" stroke="#000000" points="311.5,-75.7 311.5,-97.7 556.5,-97.7 556.5,-75.7 311.5,-75.7"/>
<image xlink:href="../../images/foreignKeys.png" width="11px" height="12px" preserveAspectRatio="xMinYMin meet" x="316.5" y="-92.7"/>
<text text-anchor="start" x="354.5" y="-82.8" font-family="Helvetica,sans-Serif" font-size="11.00" fill="#000000">rev_id</text>
<polygon fill="none" stroke="#000000" points="311.5,-56.7 311.5,-75.7 556.5,-75.7 556.5,-56.7 311.5,-56.7"/>
<text text-anchor="start" x="314.5" y="-62.8" font-family="Helvetica,sans-Serif" font-size="11.00" fill="#000000">...</text>
<polygon fill="#ffffff" stroke="transparent" points="311.5,-37.7 311.5,-56.7 419.5,-56.7 419.5,-37.7 311.5,-37.7"/>
<polygon fill="none" stroke="#000000" points="311.5,-37.7 311.5,-56.7 419.5,-56.7 419.5,-37.7 311.5,-37.7"/>
<text text-anchor="start" x="314.5" y="-43.8" font-family="Helvetica,sans-Serif" font-size="11.00" fill="#000000">&lt; 1</text>
<polygon fill="#ffffff" stroke="transparent" points="419.5,-37.7 419.5,-56.7 500.5,-56.7 500.5,-37.7 419.5,-37.7"/>
<polygon fill="none" stroke="#000000" points="419.5,-37.7 419.5,-56.7 500.5,-56.7 500.5,-37.7 419.5,-37.7"/>
<text text-anchor="start" x="465.1105" y="-43.8" font-family="Helvetica,sans-Serif" font-size="11.00" fill="#000000">0 rows</text>
<polygon fill="#ffffff" stroke="transparent" points="500.5,-37.7 500.5,-56.7 556.5,-56.7 556.5,-37.7 500.5,-37.7"/>
<polygon fill="none" stroke="#000000" points="500.5,-37.7 500.5,-56.7 556.5,-56.7 556.5,-37.7 500.5,-37.7"/>
<text text-anchor="start" x="547.3862" y="-43.8" font-family="Helvetica,sans-Serif" font-size="11.00" fill="#000000"> &#160;</text>
</a>
</g>
</g>
<!-- tap.prison_tap_locations_audit&#45;&gt;audit_revision -->
<g id="edge5" class="edge">
<title>tap.prison_tap_locations_audit:w&#45;&gt;audit_revision:e</title>
<path fill="none" stroke="#000000" d="M297.0774,-88.7586C231.7458,-110.3609 349.6557,-294.7 260,-294.7"/>
<polygon fill="#000000" stroke="#000000" points="303.5803,-87.8305 312.0087,-90.2639 307.5401,-87.2652 311.5,-86.7 311.5,-86.7 311.5,-86.7 307.5401,-87.2652 310.9913,-83.1361 303.5803,-87.8305 303.5803,-87.8305"/>
<ellipse fill="none" stroke="#000000" cx="300.4124" cy="-88.2827" rx="3.2" ry="3.2"/>
</g>
</g>
</svg>
