<?xml version="1.0" encoding="UTF-8" standalone="no"?>
<!DOCTYPE svg PUBLIC "-//W3C//DTD SVG 1.1//EN"
 "http://www.w3.org/Graphics/SVG/1.1/DTD/svg11.dtd">
<!-- Generated by graphviz version 2.40.1 (20161225.0304)
 -->
<!-- Title: twoDegreesRelationshipsDiagram Pages: 1 -->
<svg width="517pt" height="601pt"
 viewBox="0.00 0.00 517.00 600.70" xmlns="http://www.w3.org/2000/svg" xmlns:xlink="http://www.w3.org/1999/xlink">
<g id="graph0" class="graph" transform="scale(1 1) rotate(0) translate(4 596.7)">
<title>twoDegreesRelationshipsDiagram</title>
<polygon fill="#ffffff" stroke="transparent" points="-4,4 -4,-596.7 513,-596.7 513,4 -4,4"/>
<text text-anchor="middle" x="72.4936" y="-7.3" font-family="Helvetica,sans-Serif" font-size="11.00" fill="#000000">Generated by SchemaSpy</text>
<!-- hmpps_domain_event_audit -->
<g id="node1" class="node">
<title>hmpps_domain_event_audit</title>
<g id="a_node1"><a xlink:href="../../tables/hmpps_domain_event_audit.html" xlink:title="hmpps_domain_event_audit" target="_top">
<polygon fill="#ffffff" stroke="transparent" points="191,-366.7 191,-588.7 501,-588.7 501,-366.7 191,-366.7"/>
<polygon fill="#f5f5f5" stroke="transparent" points="193,-563.7 193,-586.7 499,-586.7 499,-563.7 193,-563.7"/>
<polygon fill="none" stroke="#000000" points="193,-563.7 193,-586.7 499,-586.7 499,-563.7 193,-563.7"/>
<text text-anchor="start" x="198" y="-572.3" font-family="Helvetica,sans-Serif" font-weight="bold" font-size="11.00" fill="#000000">hmpps_domain_event_audit</text>
<text text-anchor="start" x="464.0437" y="-571.8" font-family="Helvetica,sans-Serif" font-size="11.00" fill="#000000">[table]</text>
<polygon fill="none" stroke="#000000" points="193,-541.7 193,-563.7 400,-563.7 400,-541.7 193,-541.7"/>
<image xlink:href="../../images/primaryKeys.png" width="11px" height="12px" preserveAspectRatio="xMinYMin meet" x="198" y="-558.7"/>
<text text-anchor="start" x="213" y="-548.8" font-family="Helvetica,sans-Serif" font-size="11.00" fill="#000000">rev_id</text>
<polygon fill="none" stroke="#000000" points="400,-541.7 400,-563.7 499,-563.7 499,-541.7 400,-541.7"/>
<text text-anchor="start" x="403" y="-549.4" font-family="Helvetica,sans-Serif" font-size="11.00" fill="#000000">int8[19]</text>
<polygon fill="#ffffff" stroke="transparent" points="193,-519.7 193,-541.7 400,-541.7 400,-519.7 193,-519.7"/>
<polygon fill="none" stroke="#000000" points="193,-519.7 193,-541.7 400,-541.7 400,-519.7 193,-519.7"/>
<text text-anchor="start" x="213" y="-526.8" font-family="Helvetica,sans-Serif" font-size="11.00" fill="#000000">rev_type</text>
<polygon fill="none" stroke="#000000" points="400,-519.7 400,-541.7 499,-541.7 499,-519.7 400,-519.7"/>
<text text-anchor="start" x="403" y="-527.4" font-family="Helvetica,sans-Serif" font-size="11.00" fill="#000000">int2[5]</text>
<polygon fill="none" stroke="#000000" points="193,-497.7 193,-519.7 400,-519.7 400,-497.7 193,-497.7"/>
<image xlink:href="../../images/primaryKeys.png" width="11px" height="12px" preserveAspectRatio="xMinYMin meet" x="198" y="-514.7"/>
<text text-anchor="start" x="213" y="-504.8" font-family="Helvetica,sans-Serif" font-size="11.00" fill="#000000">id</text>
<polygon fill="none" stroke="#000000" points="400,-497.7 400,-519.7 499,-519.7 499,-497.7 400,-497.7"/>
<text text-anchor="start" x="403" y="-505.4" font-family="Helvetica,sans-Serif" font-size="11.00" fill="#000000">uuid[2147483647]</text>
<polygon fill="none" stroke="#000000" points="193,-475.7 193,-497.7 400,-497.7 400,-475.7 193,-475.7"/>
<text text-anchor="start" x="213" y="-482.8" font-family="Helvetica,sans-Serif" font-size="11.00" fill="#000000">event_type</text>
<polygon fill="none" stroke="#000000" points="400,-475.7 400,-497.7 499,-497.7 499,-475.7 400,-475.7"/>
<text text-anchor="start" x="403" y="-483.4" font-family="Helvetica,sans-Serif" font-size="11.00" fill="#000000">text[2147483647]</text>
<polygon fill="none" stroke="#000000" points="193,-453.7 193,-475.7 400,-475.7 400,-453.7 193,-453.7"/>
<text text-anchor="start" x="213" y="-460.8" font-family="Helvetica,sans-Serif" font-size="11.00" fill="#000000">event</text>
<polygon fill="none" stroke="#000000" points="400,-453.7 400,-475.7 499,-475.7 499,-453.7 400,-453.7"/>
<text text-anchor="start" x="402.7258" y="-461.4" font-family="Helvetica,sans-Serif" font-size="11.00" fill="#000000">jsonb[2147483647]</text>
<polygon fill="none" stroke="#000000" points="193,-431.7 193,-453.7 400,-453.7 400,-431.7 193,-431.7"/>
<text text-anchor="start" x="213" y="-438.8" font-family="Helvetica,sans-Serif" font-size="11.00" fill="#000000">published</text>
<polygon fill="none" stroke="#000000" points="400,-431.7 400,-453.7 499,-453.7 499,-431.7 400,-431.7"/>
<text text-anchor="start" x="403" y="-439.4" font-family="Helvetica,sans-Serif" font-size="11.00" fill="#000000">bool[1]</text>
<polygon fill="none" stroke="#000000" points="193,-409.7 193,-431.7 400,-431.7 400,-409.7 193,-409.7"/>
<text text-anchor="start" x="213" y="-416.8" font-family="Helvetica,sans-Serif" font-size="11.00" fill="#000000">version</text>
<polygon fill="none" stroke="#000000" points="400,-409.7 400,-431.7 499,-431.7 499,-409.7 400,-409.7"/>
<text text-anchor="start" x="403" y="-417.4" font-family="Helvetica,sans-Serif" font-size="11.00" fill="#000000">int4[10]</text>
<polygon fill="#ffffff" stroke="transparent" points="193,-387.7 193,-409.7 400,-409.7 400,-387.7 193,-387.7"/>
<polygon fill="none" stroke="#000000" points="193,-387.7 193,-409.7 400,-409.7 400,-387.7 193,-387.7"/>
<text text-anchor="start" x="213" y="-394.8" font-family="Helvetica,sans-Serif" font-size="11.00" fill="#000000">entity_id</text>
<polygon fill="none" stroke="#000000" points="400,-387.7 400,-409.7 499,-409.7 499,-387.7 400,-387.7"/>
<text text-anchor="start" x="403" y="-395.4" font-family="Helvetica,sans-Serif" font-size="11.00" fill="#000000">uuid[2147483647]</text>
<polygon fill="#ffffff" stroke="transparent" points="193,-368.7 193,-387.7 301,-387.7 301,-368.7 193,-368.7"/>
<polygon fill="none" stroke="#000000" points="193,-368.7 193,-387.7 301,-387.7 301,-368.7 193,-368.7"/>
<text text-anchor="start" x="196" y="-374.8" font-family="Helvetica,sans-Serif" font-size="11.00" fill="#000000">&lt; 1</text>
<polygon fill="#ffffff" stroke="transparent" points="301,-368.7 301,-387.7 400,-387.7 400,-368.7 301,-368.7"/>
<polygon fill="none" stroke="#000000" points="301,-368.7 301,-387.7 400,-387.7 400,-368.7 301,-368.7"/>
<text text-anchor="start" x="390.8862" y="-374.8" font-family="Helvetica,sans-Serif" font-size="11.00" fill="#000000"> &#160;</text>
<polygon fill="#ffffff" stroke="transparent" points="400,-368.7 400,-387.7 499,-387.7 499,-368.7 400,-368.7"/>
<polygon fill="none" stroke="#000000" points="400,-368.7 400,-387.7 499,-387.7 499,-368.7 400,-368.7"/>
<text text-anchor="start" x="480.4053" y="-374.8" font-family="Helvetica,sans-Serif" font-size="11.00" fill="#000000">0 &gt;</text>
<polygon fill="none" stroke="#000000" stroke-width="2" points="192,-367.7 192,-587.7 500,-587.7 500,-367.7 192,-367.7"/>
</a>
</g>
</g>
<!-- audit_revision -->
<g id="node2" class="node">
<title>audit_revision</title>
<g id="a_node2"><a xlink:href="../../tables/audit_revision.html" xlink:title="audit_revision" target="_top">
<polygon fill="#ffffff" stroke="transparent" points="8,-181.2 8,-264.2 142,-264.2 142,-181.2 8,-181.2"/>
<polygon fill="#f5f5f5" stroke="transparent" points="8,-240.7 8,-263.7 142,-263.7 142,-240.7 8,-240.7"/>
<polygon fill="none" stroke="#000000" points="8,-240.7 8,-263.7 142,-263.7 142,-240.7 8,-240.7"/>
<text text-anchor="start" x="13" y="-249.3" font-family="Helvetica,sans-Serif" font-weight="bold" font-size="11.00" fill="#000000">audit_revision</text>
<text text-anchor="start" x="107.5219" y="-248.8" font-family="Helvetica,sans-Serif" font-size="11.00" fill="#000000">[table]</text>
<polygon fill="none" stroke="#000000" points="8,-218.7 8,-240.7 142,-240.7 142,-218.7 8,-218.7"/>
<image xlink:href="../../images/primaryKeys.png" width="11px" height="12px" preserveAspectRatio="xMinYMin meet" x="13" y="-235.7"/>
<text text-anchor="start" x="28" y="-225.8" font-family="Helvetica,sans-Serif" font-size="11.00" fill="#000000">id</text>
<polygon fill="none" stroke="#000000" points="8,-199.7 8,-218.7 142,-218.7 142,-199.7 8,-199.7"/>
<text text-anchor="start" x="11" y="-205.8" font-family="Helvetica,sans-Serif" font-size="11.00" fill="#000000">...</text>
<polygon fill="#ffffff" stroke="transparent" points="8,-180.7 8,-199.7 64,-199.7 64,-180.7 8,-180.7"/>
<polygon fill="none" stroke="#000000" points="8,-180.7 8,-199.7 64,-199.7 64,-180.7 8,-180.7"/>
<text text-anchor="start" x="11" y="-186.8" font-family="Helvetica,sans-Serif" font-size="11.00" fill="#000000"> &#160;</text>
<polygon fill="#ffffff" stroke="transparent" points="64,-180.7 64,-199.7 98,-199.7 98,-180.7 64,-180.7"/>
<polygon fill="none" stroke="#000000" points="64,-180.7 64,-199.7 98,-199.7 98,-180.7 64,-180.7"/>
<text text-anchor="start" x="88.8862" y="-186.8" font-family="Helvetica,sans-Serif" font-size="11.00" fill="#000000"> &#160;</text>
<polygon fill="#ffffff" stroke="transparent" points="98,-180.7 98,-199.7 142,-199.7 142,-180.7 98,-180.7"/>
<polygon fill="none" stroke="#000000" points="98,-180.7 98,-199.7 142,-199.7 142,-180.7 98,-180.7"/>
<text text-anchor="start" x="123.4053" y="-186.8" font-family="Helvetica,sans-Serif" font-size="11.00" fill="#000000">5 &gt;</text>
</a>
</g>
</g>
<!-- hmpps_domain_event_audit&#45;&gt;audit_revision -->
<g id="edge1" class="edge">
<title>hmpps_domain_event_audit:w&#45;&gt;audit_revision:e</title>
<path fill="none" stroke="#000000" d="M179.4434,-547.6264C133.4158,-506.5339 209.2738,-229.7 142,-229.7"/>
<polygon fill="#000000" stroke="#000000" points="185.5075,-549.8959 191.7382,-556.0716 189.2538,-551.2979 193,-552.7 193,-552.7 193,-552.7 189.2538,-551.2979 194.2618,-549.3284 185.5075,-549.8959 185.5075,-549.8959"/>
<ellipse fill="none" stroke="#000000" cx="182.5105" cy="-548.7743" rx="3.2" ry="3.2"/>
</g>
<!-- tap.authorisation_audit -->
<g id="node3" class="node">
<title>tap.authorisation_audit</title>
<g id="a_node3"><a xlink:href="../../../tap/tables/authorisation_audit.html" xlink:title="tap.authorisation_audit" target="_top">
<polygon fill="#ffffff" stroke="transparent" points="247,-284.2 247,-345.2 445,-345.2 445,-284.2 247,-284.2"/>
<polygon fill="#f5f5f5" stroke="transparent" points="247,-321.7 247,-344.7 445,-344.7 445,-321.7 247,-321.7"/>
<polygon fill="none" stroke="#000000" points="247,-321.7 247,-344.7 445,-344.7 445,-321.7 247,-321.7"/>
<text text-anchor="start" x="252" y="-330.3" font-family="Helvetica,sans-Serif" font-weight="bold" font-size="11.00" fill="#000000">tap.authorisation_audit</text>
<text text-anchor="start" x="410.5219" y="-329.8" font-family="Helvetica,sans-Serif" font-size="11.00" fill="#000000">[table]</text>
<polygon fill="none" stroke="#000000" points="247,-302.7 247,-321.7 445,-321.7 445,-302.7 247,-302.7"/>
<text text-anchor="start" x="250" y="-308.8" font-family="Helvetica,sans-Serif" font-size="11.00" fill="#000000">...</text>
<polygon fill="#ffffff" stroke="transparent" points="247,-283.7 247,-302.7 331,-302.7 331,-283.7 247,-283.7"/>
<polygon fill="none" stroke="#000000" points="247,-283.7 247,-302.7 331,-302.7 331,-283.7 247,-283.7"/>
<text text-anchor="start" x="250" y="-289.8" font-family="Helvetica,sans-Serif" font-size="11.00" fill="#000000">&lt; 1</text>
<polygon fill="#ffffff" stroke="transparent" points="331,-283.7 331,-302.7 401,-302.7 401,-283.7 331,-283.7"/>
<polygon fill="none" stroke="#000000" points="331,-283.7 331,-302.7 401,-302.7 401,-283.7 331,-283.7"/>
<text text-anchor="start" x="365.6105" y="-289.8" font-family="Helvetica,sans-Serif" font-size="11.00" fill="#000000">0 rows</text>
<polygon fill="#ffffff" stroke="transparent" points="401,-283.7 401,-302.7 445,-302.7 445,-283.7 401,-283.7"/>
<polygon fill="none" stroke="#000000" points="401,-283.7 401,-302.7 445,-302.7 445,-283.7 401,-283.7"/>
<text text-anchor="start" x="435.8862" y="-289.8" font-family="Helvetica,sans-Serif" font-size="11.00" fill="#000000"> &#160;</text>
</a>
</g>
</g>
<!-- tap.authorisation_audit&#45;&gt;audit_revision -->
<g id="edge2" class="edge">
<title>tap.authorisation_audit:w&#45;&gt;audit_revision:e</title>
<path fill="none" stroke="#000000" d="M232.4638,-310.3055C211.6047,-305.8079 204.4323,-290.9693 183,-273.7 162.1864,-256.9292 168.7296,-229.7 142,-229.7"/>
<polygon fill="#000000" stroke="#000000" points="239.0366,-310.936 246.6562,-315.2835 243.0183,-311.318 247,-311.7 247,-311.7 247,-311.7 243.0183,-311.318 247.3438,-308.1165 239.0366,-310.936 239.0366,-310.936"/>
<ellipse fill="none" stroke="#000000" cx="235.8512" cy="-310.6304" rx="3.2" ry="3.2"/>
</g>
<!-- tap.movement_audit -->
<g id="node4" class="node">
<title>tap.movement_audit</title>
<g id="a_node4"><a xlink:href="../../../tap/tables/movement_audit.html" xlink:title="tap.movement_audit" target="_top">
<polygon fill="#ffffff" stroke="transparent" points="257,-202.2 257,-263.2 435,-263.2 435,-202.2 257,-202.2"/>
<polygon fill="#f5f5f5" stroke="transparent" points="257,-239.7 257,-262.7 435,-262.7 435,-239.7 257,-239.7"/>
<polygon fill="none" stroke="#000000" points="257,-239.7 257,-262.7 435,-262.7 435,-239.7 257,-239.7"/>
<text text-anchor="start" x="262" y="-248.3" font-family="Helvetica,sans-Serif" font-weight="bold" font-size="11.00" fill="#000000">tap.movement_audit</text>
<text text-anchor="start" x="400.5219" y="-247.8" font-family="Helvetica,sans-Serif" font-size="11.00" fill="#000000">[table]</text>
<polygon fill="none" stroke="#000000" points="257,-220.7 257,-239.7 435,-239.7 435,-220.7 257,-220.7"/>
<text text-anchor="start" x="260" y="-226.8" font-family="Helvetica,sans-Serif" font-size="11.00" fill="#000000">...</text>
<polygon fill="#ffffff" stroke="transparent" points="257,-201.7 257,-220.7 331,-220.7 331,-201.7 257,-201.7"/>
<polygon fill="none" stroke="#000000" points="257,-201.7 257,-220.7 331,-220.7 331,-201.7 257,-201.7"/>
<text text-anchor="start" x="260" y="-207.8" font-family="Helvetica,sans-Serif" font-size="11.00" fill="#000000">&lt; 1</text>
<polygon fill="#ffffff" stroke="transparent" points="331,-201.7 331,-220.7 396,-220.7 396,-201.7 331,-201.7"/>
<polygon fill="none" stroke="#000000" points="331,-201.7 331,-220.7 396,-220.7 396,-201.7 331,-201.7"/>
<text text-anchor="start" x="360.6105" y="-207.8" font-family="Helvetica,sans-Serif" font-size="11.00" fill="#000000">0 rows</text>
<polygon fill="#ffffff" stroke="transparent" points="396,-201.7 396,-220.7 435,-220.7 435,-201.7 396,-201.7"/>
<polygon fill="none" stroke="#000000" points="396,-201.7 396,-220.7 435,-220.7 435,-201.7 396,-201.7"/>
<text text-anchor="start" x="425.8862" y="-207.8" font-family="Helvetica,sans-Serif" font-size="11.00" fill="#000000"> &#160;</text>
</a>
</g>
</g>
<!-- tap.movement_audit&#45;&gt;audit_revision -->
<g id="edge3" class="edge">
<title>tap.movement_audit:w&#45;&gt;audit_revision:e</title>
<path fill="none" stroke="#000000" d="M242.533,-229.7C202.898,-229.7 187.9201,-229.7 142,-229.7"/>
<polygon fill="#000000" stroke="#000000" points="249,-229.7001 257,-233.3 253,-229.7 257,-229.7 257,-229.7 257,-229.7 253,-229.7 257,-226.1 249,-229.7001 249,-229.7001"/>
<ellipse fill="none" stroke="#000000" cx="245.8" cy="-229.7001" rx="3.2" ry="3.2"/>
</g>
<!-- tap.occurrence_audit -->
<g id="node5" class="node">
<title>tap.occurrence_audit</title>
<g id="a_node5"><a xlink:href="../../../tap/tables/occurrence_audit.html" xlink:title="tap.occurrence_audit" target="_top">
<polygon fill="#ffffff" stroke="transparent" points="255.5,-120.2 255.5,-181.2 436.5,-181.2 436.5,-120.2 255.5,-120.2"/>
<polygon fill="#f5f5f5" stroke="transparent" points="256,-157.7 256,-180.7 437,-180.7 437,-157.7 256,-157.7"/>
<polygon fill="none" stroke="#000000" points="256,-157.7 256,-180.7 437,-180.7 437,-157.7 256,-157.7"/>
<text text-anchor="start" x="261" y="-166.3" font-family="Helvetica,sans-Serif" font-weight="bold" font-size="11.00" fill="#000000">tap.occurrence_audit</text>
<text text-anchor="start" x="402.5219" y="-165.8" font-family="Helvetica,sans-Serif" font-size="11.00" fill="#000000">[table]</text>
<polygon fill="none" stroke="#000000" points="256,-138.7 256,-157.7 437,-157.7 437,-138.7 256,-138.7"/>
<text text-anchor="start" x="259" y="-144.8" font-family="Helvetica,sans-Serif" font-size="11.00" fill="#000000">...</text>
<polygon fill="#ffffff" stroke="transparent" points="256,-119.7 256,-138.7 332,-138.7 332,-119.7 256,-119.7"/>
<polygon fill="none" stroke="#000000" points="256,-119.7 256,-138.7 332,-138.7 332,-119.7 256,-119.7"/>
<text text-anchor="start" x="259" y="-125.8" font-family="Helvetica,sans-Serif" font-size="11.00" fill="#000000">&lt; 1</text>
<polygon fill="#ffffff" stroke="transparent" points="332,-119.7 332,-138.7 397,-138.7 397,-119.7 332,-119.7"/>
<polygon fill="none" stroke="#000000" points="332,-119.7 332,-138.7 397,-138.7 397,-119.7 332,-119.7"/>
<text text-anchor="start" x="361.6105" y="-125.8" font-family="Helvetica,sans-Serif" font-size="11.00" fill="#000000">0 rows</text>
<polygon fill="#ffffff" stroke="transparent" points="397,-119.7 397,-138.7 437,-138.7 437,-119.7 397,-119.7"/>
<polygon fill="none" stroke="#000000" points="397,-119.7 397,-138.7 437,-138.7 437,-119.7 397,-119.7"/>
<text text-anchor="start" x="427.8862" y="-125.8" font-family="Helvetica,sans-Serif" font-size="11.00" fill="#000000"> &#160;</text>
</a>
</g>
</g>
<!-- tap.occurrence_audit&#45;&gt;audit_revision -->
<g id="edge4" class="edge">
<title>tap.occurrence_audit:w&#45;&gt;audit_revision:e</title>
<path fill="none" stroke="#000000" d="M241.4684,-148.9708C216.1862,-153.8683 208.8977,-172.2186 183,-191.7 163.1453,-206.6356 166.8452,-229.7 142,-229.7"/>
<polygon fill="#000000" stroke="#000000" points="248.0304,-148.397 256.3137,-151.2863 252.0152,-148.0485 256,-147.7 256,-147.7 256,-147.7 252.0152,-148.0485 255.6863,-144.1137 248.0304,-148.397 248.0304,-148.397"/>
<ellipse fill="none" stroke="#000000" cx="244.8426" cy="-148.6758" rx="3.2" ry="3.2"/>
</g>
<!-- tap.prison_tap_locations_audit -->
<g id="node6" class="node">
<title>tap.prison_tap_locations_audit</title>
<g id="a_node6"><a xlink:href="../../../tap/tables/prison_tap_locations_audit.html" xlink:title="tap.prison_tap_locations_audit" target="_top">
<polygon fill="#ffffff" stroke="transparent" points="223.5,-38.2 223.5,-99.2 468.5,-99.2 468.5,-38.2 223.5,-38.2"/>
<polygon fill="#f5f5f5" stroke="transparent" points="224,-75.7 224,-98.7 469,-98.7 469,-75.7 224,-75.7"/>
<polygon fill="none" stroke="#000000" points="224,-75.7 224,-98.7 469,-98.7 469,-75.7 224,-75.7"/>
<text text-anchor="start" x="229" y="-84.3" font-family="Helvetica,sans-Serif" font-weight="bold" font-size="11.00" fill="#000000">tap.prison_tap_locations_audit</text>
<text text-anchor="start" x="434.5219" y="-83.8" font-family="Helvetica,sans-Serif" font-size="11.00" fill="#000000">[table]</text>
<polygon fill="none" stroke="#000000" points="224,-56.7 224,-75.7 469,-75.7 469,-56.7 224,-56.7"/>
<text text-anchor="start" x="227" y="-62.8" font-family="Helvetica,sans-Serif" font-size="11.00" fill="#000000">...</text>
<polygon fill="#ffffff" stroke="transparent" points="224,-37.7 224,-56.7 332,-56.7 332,-37.7 224,-37.7"/>
<polygon fill="none" stroke="#000000" points="224,-37.7 224,-56.7 332,-56.7 332,-37.7 224,-37.7"/>
<text text-anchor="start" x="227" y="-43.8" font-family="Helvetica,sans-Serif" font-size="11.00" fill="#000000">&lt; 1</text>
<polygon fill="#ffffff" stroke="transparent" points="332,-37.7 332,-56.7 413,-56.7 413,-37.7 332,-37.7"/>
<polygon fill="none" stroke="#000000" points="332,-37.7 332,-56.7 413,-56.7 413,-37.7 332,-37.7"/>
<text text-anchor="start" x="377.6105" y="-43.8" font-family="Helvetica,sans-Serif" font-size="11.00" fill="#000000">0 rows</text>
<polygon fill="#ffffff" stroke="transparent" points="413,-37.7 413,-56.7 469,-56.7 469,-37.7 413,-37.7"/>
<polygon fill="none" stroke="#000000" points="413,-37.7 413,-56.7 469,-56.7 469,-37.7 413,-37.7"/>
<text text-anchor="start" x="459.8862" y="-43.8" font-family="Helvetica,sans-Serif" font-size="11.00" fill="#000000"> &#160;</text>
</a>
</g>
</g>
<!-- tap.prison_tap_locations_audit&#45;&gt;audit_revision -->
<g id="edge5" class="edge">
<title>tap.prison_tap_locations_audit:w&#45;&gt;audit_revision:e</title>
<path fill="none" stroke="#000000" d="M209.8067,-68.5235C196.4046,-75.0069 193.7306,-91.7854 183,-109.7 154.0388,-158.0502 198.3604,-229.7 142,-229.7"/>
<polygon fill="#000000" stroke="#000000" points="216.1538,-67.2609 224.7024,-69.2308 220.0769,-66.4805 224,-65.7 224,-65.7 224,-65.7 220.0769,-66.4805 223.2976,-62.1692 216.1538,-67.2609 216.1538,-67.2609"/>
<ellipse fill="none" stroke="#000000" cx="213.0153" cy="-67.8853" rx="3.2" ry="3.2"/>
</g>
</g>
</svg>
