<?xml version="1.0" encoding="UTF-8" standalone="no"?>
<!DOCTYPE svg PUBLIC "-//W3C//DTD SVG 1.1//EN"
 "http://www.w3.org/Graphics/SVG/1.1/DTD/svg11.dtd">
<!-- Generated by graphviz version 2.40.1 (20161225.0304)
 -->
<!-- Title: oneDegreeRelationshipsDiagram Pages: 1 -->
<svg width="487pt" height="341pt"
 viewBox="0.00 0.00 487.00 341.20" xmlns="http://www.w3.org/2000/svg" xmlns:xlink="http://www.w3.org/1999/xlink">
<g id="graph0" class="graph" transform="scale(1 1) rotate(0) translate(4 337.2)">
<title>oneDegreeRelationshipsDiagram</title>
<polygon fill="#ffffff" stroke="transparent" points="-4,4 -4,-337.2 483,-337.2 483,4 -4,4"/>
<text text-anchor="middle" x="72.4936" y="-7.3" font-family="Helvetica,sans-Serif" font-size="11.00" fill="#000000">Generated by SchemaSpy</text>
<!-- tap.authorisation -->
<g id="node1" class="node">
<title>tap.authorisation</title>
<g id="a_node1"><a xlink:href="../../../tap/tables/authorisation.html" xlink:title="tap.authorisation" target="_top">
<polygon fill="#ffffff" stroke="transparent" points="258,-246.2 258,-329.2 471,-329.2 471,-246.2 258,-246.2"/>
<polygon fill="#f5f5f5" stroke="transparent" points="258.5,-305.7 258.5,-328.7 471.5,-328.7 471.5,-305.7 258.5,-305.7"/>
<polygon fill="none" stroke="#000000" points="258.5,-305.7 258.5,-328.7 471.5,-328.7 471.5,-305.7 258.5,-305.7"/>
<text text-anchor="start" x="263.5" y="-314.3" font-family="Helvetica,sans-Serif" font-weight="bold" font-size="11.00" fill="#000000">tap.authorisation</text>
<text text-anchor="start" x="436.5437" y="-313.8" font-family="Helvetica,sans-Serif" font-size="11.00" fill="#000000">[table]</text>
<polygon fill="none" stroke="#000000" points="258.5,-283.7 258.5,-305.7 471.5,-305.7 471.5,-283.7 258.5,-283.7"/>
<image xlink:href="../../images/foreignKeys.png" width="11px" height="12px" preserveAspectRatio="xMinYMin meet" x="263.5" y="-300.7"/>
<text text-anchor="start" x="278.5" y="-290.8" font-family="Helvetica,sans-Serif" font-size="11.00" fill="#000000">person_identifier</text>
<polygon fill="none" stroke="#000000" points="258.5,-264.7 258.5,-283.7 471.5,-283.7 471.5,-264.7 258.5,-264.7"/>
<text text-anchor="start" x="261.5" y="-270.8" font-family="Helvetica,sans-Serif" font-size="11.00" fill="#000000">...</text>
<polygon fill="#ffffff" stroke="transparent" points="258.5,-245.7 258.5,-264.7 350.5,-264.7 350.5,-245.7 258.5,-245.7"/>
<polygon fill="none" stroke="#000000" points="258.5,-245.7 258.5,-264.7 350.5,-264.7 350.5,-245.7 258.5,-245.7"/>
<text text-anchor="start" x="261.5" y="-251.8" font-family="Helvetica,sans-Serif" font-size="11.00" fill="#000000">&lt; 1</text>
<polygon fill="#ffffff" stroke="transparent" points="350.5,-245.7 350.5,-264.7 423.5,-264.7 423.5,-245.7 350.5,-245.7"/>
<polygon fill="none" stroke="#000000" points="350.5,-245.7 350.5,-264.7 423.5,-264.7 423.5,-245.7 350.5,-245.7"/>
<text text-anchor="start" x="388.1105" y="-251.8" font-family="Helvetica,sans-Serif" font-size="11.00" fill="#000000">0 rows</text>
<polygon fill="#ffffff" stroke="transparent" points="423.5,-245.7 423.5,-264.7 471.5,-264.7 471.5,-245.7 423.5,-245.7"/>
<polygon fill="none" stroke="#000000" points="423.5,-245.7 423.5,-264.7 471.5,-264.7 471.5,-245.7 423.5,-245.7"/>
<text text-anchor="start" x="462.3862" y="-251.8" font-family="Helvetica,sans-Serif" font-size="11.00" fill="#000000"> &#160;</text>
</a>
</g>
</g>
<!-- person_summary -->
<g id="node2" class="node">
<title>person_summary</title>
<g id="a_node2"><a xlink:href="../../tables/person_summary.html" xlink:title="person_summary" target="_top">
<polygon fill="#ffffff" stroke="transparent" points="8,-48.7 8,-226.7 209,-226.7 209,-48.7 8,-48.7"/>
<polygon fill="#f5f5f5" stroke="transparent" points="10.5,-201.7 10.5,-224.7 207.5,-224.7 207.5,-201.7 10.5,-201.7"/>
<polygon fill="none" stroke="#000000" points="10.5,-201.7 10.5,-224.7 207.5,-224.7 207.5,-201.7 10.5,-201.7"/>
<text text-anchor="start" x="15.5" y="-210.3" font-family="Helvetica,sans-Serif" font-weight="bold" font-size="11.00" fill="#000000">person_summary</text>
<text text-anchor="start" x="172.5437" y="-209.8" font-family="Helvetica,sans-Serif" font-size="11.00" fill="#000000">[table]</text>
<polygon fill="none" stroke="#000000" points="10.5,-179.7 10.5,-201.7 146.5,-201.7 146.5,-179.7 10.5,-179.7"/>
<image xlink:href="../../images/primaryKeys.png" width="11px" height="12px" preserveAspectRatio="xMinYMin meet" x="15.5" y="-196.7"/>
<text text-anchor="start" x="30.5" y="-186.8" font-family="Helvetica,sans-Serif" font-size="11.00" fill="#000000">person_identifier</text>
<polygon fill="none" stroke="#000000" points="146.5,-179.7 146.5,-201.7 207.5,-201.7 207.5,-179.7 146.5,-179.7"/>
<text text-anchor="start" x="149.494" y="-187.4" font-family="Helvetica,sans-Serif" font-size="11.00" fill="#000000">varchar[10]</text>
<polygon fill="none" stroke="#000000" points="10.5,-157.7 10.5,-179.7 146.5,-179.7 146.5,-157.7 10.5,-157.7"/>
<text text-anchor="start" x="30.5" y="-164.8" font-family="Helvetica,sans-Serif" font-size="11.00" fill="#000000">first_name</text>
<polygon fill="none" stroke="#000000" points="146.5,-157.7 146.5,-179.7 207.5,-179.7 207.5,-157.7 146.5,-157.7"/>
<text text-anchor="start" x="149.494" y="-165.4" font-family="Helvetica,sans-Serif" font-size="11.00" fill="#000000">varchar[64]</text>
<polygon fill="none" stroke="#000000" points="10.5,-135.7 10.5,-157.7 146.5,-157.7 146.5,-135.7 10.5,-135.7"/>
<text text-anchor="start" x="30.5" y="-142.8" font-family="Helvetica,sans-Serif" font-size="11.00" fill="#000000">last_name</text>
<polygon fill="none" stroke="#000000" points="146.5,-135.7 146.5,-157.7 207.5,-157.7 207.5,-135.7 146.5,-135.7"/>
<text text-anchor="start" x="149.494" y="-143.4" font-family="Helvetica,sans-Serif" font-size="11.00" fill="#000000">varchar[64]</text>
<polygon fill="none" stroke="#000000" points="10.5,-113.7 10.5,-135.7 146.5,-135.7 146.5,-113.7 10.5,-113.7"/>
<text text-anchor="start" x="30.5" y="-120.8" font-family="Helvetica,sans-Serif" font-size="11.00" fill="#000000">date_of_birth</text>
<polygon fill="none" stroke="#000000" points="146.5,-113.7 146.5,-135.7 207.5,-135.7 207.5,-113.7 146.5,-113.7"/>
<text text-anchor="start" x="149.5" y="-121.4" font-family="Helvetica,sans-Serif" font-size="11.00" fill="#000000">date[13]</text>
<polygon fill="none" stroke="#000000" points="10.5,-91.7 10.5,-113.7 146.5,-113.7 146.5,-91.7 10.5,-91.7"/>
<text text-anchor="start" x="30.5" y="-98.8" font-family="Helvetica,sans-Serif" font-size="11.00" fill="#000000">cell_location</text>
<polygon fill="none" stroke="#000000" points="146.5,-91.7 146.5,-113.7 207.5,-113.7 207.5,-91.7 146.5,-91.7"/>
<text text-anchor="start" x="149.494" y="-99.4" font-family="Helvetica,sans-Serif" font-size="11.00" fill="#000000">varchar[64]</text>
<polygon fill="none" stroke="#000000" points="10.5,-69.7 10.5,-91.7 146.5,-91.7 146.5,-69.7 10.5,-69.7"/>
<text text-anchor="start" x="30.5" y="-76.8" font-family="Helvetica,sans-Serif" font-size="11.00" fill="#000000">version</text>
<polygon fill="none" stroke="#000000" points="146.5,-69.7 146.5,-91.7 207.5,-91.7 207.5,-69.7 146.5,-69.7"/>
<text text-anchor="start" x="149.5" y="-77.4" font-family="Helvetica,sans-Serif" font-size="11.00" fill="#000000">int4[10]</text>
<polygon fill="#ffffff" stroke="transparent" points="10.5,-50.7 10.5,-69.7 82.5,-69.7 82.5,-50.7 10.5,-50.7"/>
<polygon fill="none" stroke="#000000" points="10.5,-50.7 10.5,-69.7 82.5,-69.7 82.5,-50.7 10.5,-50.7"/>
<text text-anchor="start" x="13.5" y="-56.8" font-family="Helvetica,sans-Serif" font-size="11.00" fill="#000000">&lt; 0</text>
<polygon fill="#ffffff" stroke="transparent" points="82.5,-50.7 82.5,-69.7 146.5,-69.7 146.5,-50.7 82.5,-50.7"/>
<polygon fill="none" stroke="#000000" points="82.5,-50.7 82.5,-69.7 146.5,-69.7 146.5,-50.7 82.5,-50.7"/>
<text text-anchor="start" x="137.3862" y="-56.8" font-family="Helvetica,sans-Serif" font-size="11.00" fill="#000000"> &#160;</text>
<polygon fill="#ffffff" stroke="transparent" points="146.5,-50.7 146.5,-69.7 207.5,-69.7 207.5,-50.7 146.5,-50.7"/>
<polygon fill="none" stroke="#000000" points="146.5,-50.7 146.5,-69.7 207.5,-69.7 207.5,-50.7 146.5,-50.7"/>
<text text-anchor="start" x="188.9053" y="-56.8" font-family="Helvetica,sans-Serif" font-size="11.00" fill="#000000">3 &gt;</text>
<polygon fill="none" stroke="#000000" stroke-width="2" points="9,-49.7 9,-225.7 208,-225.7 208,-49.7 9,-49.7"/>
</a>
</g>
</g>
<!-- tap.authorisation&#45;&gt;person_summary -->
<g id="edge1" class="edge">
<title>tap.authorisation:w&#45;&gt;person_summary:e</title>
<path fill="none" stroke="#000000" d="M244.33,-290.7501C217.7771,-271.7532 252.9479,-190.7 207.5,-190.7"/>
<polygon fill="#000000" stroke="#000000" points="250.7938,-292.5518 257.5333,-298.1678 254.6469,-293.6259 258.5,-294.7 258.5,-294.7 258.5,-294.7 254.6469,-293.6259 259.4667,-291.2322 250.7938,-292.5518 250.7938,-292.5518"/>
<ellipse fill="none" stroke="#000000" cx="247.7113" cy="-291.6926" rx="3.2" ry="3.2"/>
</g>
<!-- tap.movement -->
<g id="node3" class="node">
<title>tap.movement</title>
<g id="a_node3"><a xlink:href="../../../tap/tables/movement.html" xlink:title="tap.movement" target="_top">
<polygon fill="#ffffff" stroke="transparent" points="260.5,-142.2 260.5,-225.2 468.5,-225.2 468.5,-142.2 260.5,-142.2"/>
<polygon fill="#f5f5f5" stroke="transparent" points="260.5,-201.7 260.5,-224.7 468.5,-224.7 468.5,-201.7 260.5,-201.7"/>
<polygon fill="none" stroke="#000000" points="260.5,-201.7 260.5,-224.7 468.5,-224.7 468.5,-201.7 260.5,-201.7"/>
<text text-anchor="start" x="265.5" y="-210.3" font-family="Helvetica,sans-Serif" font-weight="bold" font-size="11.00" fill="#000000">tap.movement</text>
<text text-anchor="start" x="433.5437" y="-209.8" font-family="Helvetica,sans-Serif" font-size="11.00" fill="#000000">[table]</text>
<polygon fill="none" stroke="#000000" points="260.5,-179.7 260.5,-201.7 468.5,-201.7 468.5,-179.7 260.5,-179.7"/>
<image xlink:href="../../images/foreignKeys.png" width="11px" height="12px" preserveAspectRatio="xMinYMin meet" x="265.5" y="-196.7"/>
<text text-anchor="start" x="280.5" y="-186.8" font-family="Helvetica,sans-Serif" font-size="11.00" fill="#000000">person_identifier</text>
<polygon fill="none" stroke="#000000" points="260.5,-160.7 260.5,-179.7 468.5,-179.7 468.5,-160.7 260.5,-160.7"/>
<text text-anchor="start" x="263.5" y="-166.8" font-family="Helvetica,sans-Serif" font-size="11.00" fill="#000000">...</text>
<polygon fill="#ffffff" stroke="transparent" points="260.5,-141.7 260.5,-160.7 349.5,-160.7 349.5,-141.7 260.5,-141.7"/>
<polygon fill="none" stroke="#000000" points="260.5,-141.7 260.5,-160.7 349.5,-160.7 349.5,-141.7 260.5,-141.7"/>
<text text-anchor="start" x="263.5" y="-147.8" font-family="Helvetica,sans-Serif" font-size="11.00" fill="#000000">&lt; 1</text>
<polygon fill="#ffffff" stroke="transparent" points="349.5,-141.7 349.5,-160.7 421.5,-160.7 421.5,-141.7 349.5,-141.7"/>
<polygon fill="none" stroke="#000000" points="349.5,-141.7 349.5,-160.7 421.5,-160.7 421.5,-141.7 349.5,-141.7"/>
<text text-anchor="start" x="386.1105" y="-147.8" font-family="Helvetica,sans-Serif" font-size="11.00" fill="#000000">0 rows</text>
<polygon fill="#ffffff" stroke="transparent" points="421.5,-141.7 421.5,-160.7 468.5,-160.7 468.5,-141.7 421.5,-141.7"/>
<polygon fill="none" stroke="#000000" points="421.5,-141.7 421.5,-160.7 468.5,-160.7 468.5,-141.7 421.5,-141.7"/>
<text text-anchor="start" x="459.3862" y="-147.8" font-family="Helvetica,sans-Serif" font-size="11.00" fill="#000000"> &#160;</text>
</a>
</g>
</g>
<!-- tap.movement&#45;&gt;person_summary -->
<g id="edge2" class="edge">
<title>tap.movement:w&#45;&gt;person_summary:e</title>
<path fill="none" stroke="#000000" d="M245.9922,-190.7C233.0558,-190.7 225.3507,-190.7 207.5,-190.7"/>
<polygon fill="#000000" stroke="#000000" points="252.5,-190.7001 260.5,-194.3 256.5,-190.7 260.5,-190.7 260.5,-190.7 260.5,-190.7 256.5,-190.7 260.5,-187.1 252.5,-190.7001 252.5,-190.7001"/>
<ellipse fill="none" stroke="#000000" cx="249.3" cy="-190.7001" rx="3.2" ry="3.2"/>
</g>
<!-- tap.occurrence -->
<g id="node4" class="node">
<title>tap.occurrence</title>
<g id="a_node4"><a xlink:href="../../../tap/tables/occurrence.html" xlink:title="tap.occurrence" target="_top">
<polygon fill="#ffffff" stroke="transparent" points="258,-38.2 258,-121.2 471,-121.2 471,-38.2 258,-38.2"/>
<polygon fill="#f5f5f5" stroke="transparent" points="258.5,-97.7 258.5,-120.7 471.5,-120.7 471.5,-97.7 258.5,-97.7"/>
<polygon fill="none" stroke="#000000" points="258.5,-97.7 258.5,-120.7 471.5,-120.7 471.5,-97.7 258.5,-97.7"/>
<text text-anchor="start" x="263.5" y="-106.3" font-family="Helvetica,sans-Serif" font-weight="bold" font-size="11.00" fill="#000000">tap.occurrence</text>
<text text-anchor="start" x="436.5437" y="-105.8" font-family="Helvetica,sans-Serif" font-size="11.00" fill="#000000">[table]</text>
<polygon fill="none" stroke="#000000" points="258.5,-75.7 258.5,-97.7 471.5,-97.7 471.5,-75.7 258.5,-75.7"/>
<image xlink:href="../../images/foreignKeys.png" width="11px" height="12px" preserveAspectRatio="xMinYMin meet" x="263.5" y="-92.7"/>
<text text-anchor="start" x="278.5" y="-82.8" font-family="Helvetica,sans-Serif" font-size="11.00" fill="#000000">person_identifier</text>
<polygon fill="none" stroke="#000000" points="258.5,-56.7 258.5,-75.7 471.5,-75.7 471.5,-56.7 258.5,-56.7"/>
<text text-anchor="start" x="261.5" y="-62.8" font-family="Helvetica,sans-Serif" font-size="11.00" fill="#000000">...</text>
<polygon fill="#ffffff" stroke="transparent" points="258.5,-37.7 258.5,-56.7 350.5,-56.7 350.5,-37.7 258.5,-37.7"/>
<polygon fill="none" stroke="#000000" points="258.5,-37.7 258.5,-56.7 350.5,-56.7 350.5,-37.7 258.5,-37.7"/>
<text text-anchor="start" x="261.5" y="-43.8" font-family="Helvetica,sans-Serif" font-size="11.00" fill="#000000">&lt; 1</text>
<polygon fill="#ffffff" stroke="transparent" points="350.5,-37.7 350.5,-56.7 423.5,-56.7 423.5,-37.7 350.5,-37.7"/>
<polygon fill="none" stroke="#000000" points="350.5,-37.7 350.5,-56.7 423.5,-56.7 423.5,-37.7 350.5,-37.7"/>
<text text-anchor="start" x="388.1105" y="-43.8" font-family="Helvetica,sans-Serif" font-size="11.00" fill="#000000">0 rows</text>
<polygon fill="#ffffff" stroke="transparent" points="423.5,-37.7 423.5,-56.7 471.5,-56.7 471.5,-37.7 423.5,-37.7"/>
<polygon fill="none" stroke="#000000" points="423.5,-37.7 423.5,-56.7 471.5,-56.7 471.5,-37.7 423.5,-37.7"/>
<text text-anchor="start" x="462.3862" y="-43.8" font-family="Helvetica,sans-Serif" font-size="11.00" fill="#000000"> &#160;</text>
</a>
</g>
</g>
<!-- tap.occurrence&#45;&gt;person_summary -->
<g id="edge3" class="edge">
<title>tap.occurrence:w&#45;&gt;person_summary:e</title>
<path fill="none" stroke="#000000" d="M244.33,-90.6499C217.7771,-109.6468 252.9479,-190.7 207.5,-190.7"/>
<polygon fill="#000000" stroke="#000000" points="250.7938,-88.8482 259.4667,-90.1678 254.6469,-87.7741 258.5,-86.7 258.5,-86.7 258.5,-86.7 254.6469,-87.7741 257.5333,-83.2322 250.7938,-88.8482 250.7938,-88.8482"/>
<ellipse fill="none" stroke="#000000" cx="247.7113" cy="-89.7074" rx="3.2" ry="3.2"/>
</g>
</g>
</svg>
