<?xml version="1.0" encoding="UTF-8" standalone="no"?>
<!DOCTYPE svg PUBLIC "-//W3C//DTD SVG 1.1//EN"
 "http://www.w3.org/Graphics/SVG/1.1/DTD/svg11.dtd">
<!-- Generated by graphviz version 2.40.1 (20161225.0304)
 -->
<!-- Title: compactRelationshipsDiagram Pages: 1 -->
<svg width="432pt" height="511pt"
 viewBox="0.00 0.00 432.00 511.20" xmlns="http://www.w3.org/2000/svg" xmlns:xlink="http://www.w3.org/1999/xlink">
<g id="graph0" class="graph" transform="scale(1 1) rotate(0) translate(4 507.2)">
<title>compactRelationshipsDiagram</title>
<polygon fill="#ffffff" stroke="transparent" points="-4,4 -4,-507.2 428,-507.2 428,4 -4,4"/>
<text text-anchor="middle" x="72.4936" y="-7.3" font-family="Helvetica,sans-Serif" font-size="11.00" fill="#000000">Generated by SchemaSpy</text>
<!-- hmpps_domain_event_audit -->
<g id="node1" class="node">
<title>hmpps_domain_event_audit</title>
<g id="a_node1"><a xlink:href="../../tables/hmpps_domain_event_audit.html" xlink:title="hmpps_domain_event_audit" target="_top">
<polygon fill="#ffffff" stroke="transparent" points="191,-350.2 191,-499.2 416,-499.2 416,-350.2 191,-350.2"/>
<polygon fill="#f5f5f5" stroke="transparent" points="191.5,-475.7 191.5,-498.7 416.5,-498.7 416.5,-475.7 191.5,-475.7"/>
<polygon fill="none" stroke="#000000" points="191.5,-475.7 191.5,-498.7 416.5,-498.7 416.5,-475.7 191.5,-475.7"/>
<text text-anchor="start" x="196.5" y="-484.3" font-family="Helvetica,sans-Serif" font-weight="bold" font-size="11.00" fill="#000000">hmpps_domain_event_audit</text>
<text text-anchor="start" x="382.0219" y="-483.8" font-family="Helvetica,sans-Serif" font-size="11.00" fill="#000000">[table]</text>
<polygon fill="none" stroke="#000000" points="191.5,-453.7 191.5,-475.7 416.5,-475.7 416.5,-453.7 191.5,-453.7"/>
<image xlink:href="../../images/primaryKeys.png" width="11px" height="12px" preserveAspectRatio="xMinYMin meet" x="196.5" y="-470.7"/>
<text text-anchor="start" x="220.5" y="-460.8" font-family="Helvetica,sans-Serif" font-size="11.00" fill="#000000">rev_id</text>
<polygon fill="#ffffff" stroke="transparent" points="191.5,-431.7 191.5,-453.7 416.5,-453.7 416.5,-431.7 191.5,-431.7"/>
<polygon fill="none" stroke="#000000" points="191.5,-431.7 191.5,-453.7 416.5,-453.7 416.5,-431.7 191.5,-431.7"/>
<text text-anchor="start" x="220.5" y="-438.8" font-family="Helvetica,sans-Serif" font-size="11.00" fill="#000000">rev_type</text>
<polygon fill="none" stroke="#000000" points="191.5,-409.7 191.5,-431.7 416.5,-431.7 416.5,-409.7 191.5,-409.7"/>
<image xlink:href="../../images/primaryKeys.png" width="11px" height="12px" preserveAspectRatio="xMinYMin meet" x="196.5" y="-426.7"/>
<text text-anchor="start" x="220.5" y="-416.8" font-family="Helvetica,sans-Serif" font-size="11.00" fill="#000000">id</text>
<polygon fill="#ffffff" stroke="transparent" points="191.5,-387.7 191.5,-409.7 416.5,-409.7 416.5,-387.7 191.5,-387.7"/>
<polygon fill="none" stroke="#000000" points="191.5,-387.7 191.5,-409.7 416.5,-409.7 416.5,-387.7 191.5,-387.7"/>
<text text-anchor="start" x="220.5" y="-394.8" font-family="Helvetica,sans-Serif" font-size="11.00" fill="#000000">entity_id</text>
<polygon fill="none" stroke="#000000" points="191.5,-368.7 191.5,-387.7 416.5,-387.7 416.5,-368.7 191.5,-368.7"/>
<text text-anchor="start" x="194.5" y="-374.8" font-family="Helvetica,sans-Serif" font-size="11.00" fill="#000000">...</text>
<polygon fill="#ffffff" stroke="transparent" points="191.5,-349.7 191.5,-368.7 302.5,-368.7 302.5,-349.7 191.5,-349.7"/>
<polygon fill="none" stroke="#000000" points="191.5,-349.7 191.5,-368.7 302.5,-368.7 302.5,-349.7 191.5,-349.7"/>
<text text-anchor="start" x="194.5" y="-355.8" font-family="Helvetica,sans-Serif" font-size="11.00" fill="#000000">&lt; 1</text>
<polygon fill="#ffffff" stroke="transparent" points="302.5,-349.7 302.5,-368.7 359.5,-368.7 359.5,-349.7 302.5,-349.7"/>
<polygon fill="none" stroke="#000000" points="302.5,-349.7 302.5,-368.7 359.5,-368.7 359.5,-349.7 302.5,-349.7"/>
<text text-anchor="start" x="350.3862" y="-355.8" font-family="Helvetica,sans-Serif" font-size="11.00" fill="#000000"> &#160;</text>
<polygon fill="#ffffff" stroke="transparent" points="359.5,-349.7 359.5,-368.7 416.5,-368.7 416.5,-349.7 359.5,-349.7"/>
<polygon fill="none" stroke="#000000" points="359.5,-349.7 359.5,-368.7 416.5,-368.7 416.5,-349.7 359.5,-349.7"/>
<text text-anchor="start" x="407.3862" y="-355.8" font-family="Helvetica,sans-Serif" font-size="11.00" fill="#000000"> &#160;</text>
</a>
</g>
</g>
<!-- audit_revision -->
<g id="node2" class="node">
<title>audit_revision</title>
<g id="a_node2"><a xlink:href="../../tables/audit_revision.html" xlink:title="audit_revision" target="_top">
<polygon fill="#ffffff" stroke="transparent" points="8,-194.2 8,-277.2 142,-277.2 142,-194.2 8,-194.2"/>
<polygon fill="#f5f5f5" stroke="transparent" points="8,-253.7 8,-276.7 142,-276.7 142,-253.7 8,-253.7"/>
<polygon fill="none" stroke="#000000" points="8,-253.7 8,-276.7 142,-276.7 142,-253.7 8,-253.7"/>
<text text-anchor="start" x="13" y="-262.3" font-family="Helvetica,sans-Serif" font-weight="bold" font-size="11.00" fill="#000000">audit_revision</text>
<text text-anchor="start" x="107.5219" y="-261.8" font-family="Helvetica,sans-Serif" font-size="11.00" fill="#000000">[table]</text>
<polygon fill="none" stroke="#000000" points="8,-231.7 8,-253.7 142,-253.7 142,-231.7 8,-231.7"/>
<image xlink:href="../../images/primaryKeys.png" width="11px" height="12px" preserveAspectRatio="xMinYMin meet" x="13" y="-248.7"/>
<text text-anchor="start" x="28" y="-238.8" font-family="Helvetica,sans-Serif" font-size="11.00" fill="#000000">id</text>
<polygon fill="none" stroke="#000000" points="8,-212.7 8,-231.7 142,-231.7 142,-212.7 8,-212.7"/>
<text text-anchor="start" x="11" y="-218.8" font-family="Helvetica,sans-Serif" font-size="11.00" fill="#000000">...</text>
<polygon fill="#ffffff" stroke="transparent" points="8,-193.7 8,-212.7 64,-212.7 64,-193.7 8,-193.7"/>
<polygon fill="none" stroke="#000000" points="8,-193.7 8,-212.7 64,-212.7 64,-193.7 8,-193.7"/>
<text text-anchor="start" x="11" y="-199.8" font-family="Helvetica,sans-Serif" font-size="11.00" fill="#000000"> &#160;</text>
<polygon fill="#ffffff" stroke="transparent" points="64,-193.7 64,-212.7 98,-212.7 98,-193.7 64,-193.7"/>
<polygon fill="none" stroke="#000000" points="64,-193.7 64,-212.7 98,-212.7 98,-193.7 64,-193.7"/>
<text text-anchor="start" x="88.8862" y="-199.8" font-family="Helvetica,sans-Serif" font-size="11.00" fill="#000000"> &#160;</text>
<polygon fill="#ffffff" stroke="transparent" points="98,-193.7 98,-212.7 142,-212.7 142,-193.7 98,-193.7"/>
<polygon fill="none" stroke="#000000" points="98,-193.7 98,-212.7 142,-212.7 142,-193.7 98,-193.7"/>
<text text-anchor="start" x="123.4053" y="-199.8" font-family="Helvetica,sans-Serif" font-size="11.00" fill="#000000">4 &gt;</text>
</a>
</g>
</g>
<!-- hmpps_domain_event_audit&#45;&gt;audit_revision -->
<g id="edge1" class="edge">
<title>hmpps_domain_event_audit:w&#45;&gt;audit_revision:e</title>
<path fill="none" stroke="#000000" d="M177.1088,-462.7808C106.3507,-441.0827 237.5613,-242.7 142,-242.7"/>
<polygon fill="#000000" stroke="#000000" points="183.5702,-463.6424 191.0241,-468.2684 187.5351,-464.1712 191.5,-464.7 191.5,-464.7 191.5,-464.7 187.5351,-464.1712 191.9759,-461.1316 183.5702,-463.6424 183.5702,-463.6424"/>
<ellipse fill="none" stroke="#000000" cx="180.3983" cy="-463.2194" rx="3.2" ry="3.2"/>
</g>
<!-- tap.authorisation_audit -->
<g id="node3" class="node">
<title>tap.authorisation_audit</title>
<g id="a_node3"><a xlink:href="../../../tap/tables/authorisation_audit.html" xlink:title="tap.authorisation_audit" target="_top">
<polygon fill="#ffffff" stroke="transparent" points="197,-246.2 197,-329.2 410,-329.2 410,-246.2 197,-246.2"/>
<polygon fill="#f5f5f5" stroke="transparent" points="197.5,-305.7 197.5,-328.7 410.5,-328.7 410.5,-305.7 197.5,-305.7"/>
<polygon fill="none" stroke="#000000" points="197.5,-305.7 197.5,-328.7 410.5,-328.7 410.5,-305.7 197.5,-305.7"/>
<text text-anchor="start" x="202.5" y="-314.3" font-family="Helvetica,sans-Serif" font-weight="bold" font-size="11.00" fill="#000000">tap.authorisation_audit</text>
<text text-anchor="start" x="375.5437" y="-313.8" font-family="Helvetica,sans-Serif" font-size="11.00" fill="#000000">[table]</text>
<polygon fill="none" stroke="#000000" points="197.5,-283.7 197.5,-305.7 410.5,-305.7 410.5,-283.7 197.5,-283.7"/>
<image xlink:href="../../images/foreignKeys.png" width="11px" height="12px" preserveAspectRatio="xMinYMin meet" x="202.5" y="-300.7"/>
<text text-anchor="start" x="217.5" y="-290.8" font-family="Helvetica,sans-Serif" font-size="11.00" fill="#000000">rev_id</text>
<polygon fill="none" stroke="#000000" points="197.5,-264.7 197.5,-283.7 410.5,-283.7 410.5,-264.7 197.5,-264.7"/>
<text text-anchor="start" x="200.5" y="-270.8" font-family="Helvetica,sans-Serif" font-size="11.00" fill="#000000">...</text>
<polygon fill="#ffffff" stroke="transparent" points="197.5,-245.7 197.5,-264.7 289.5,-264.7 289.5,-245.7 197.5,-245.7"/>
<polygon fill="none" stroke="#000000" points="197.5,-245.7 197.5,-264.7 289.5,-264.7 289.5,-245.7 197.5,-245.7"/>
<text text-anchor="start" x="200.5" y="-251.8" font-family="Helvetica,sans-Serif" font-size="11.00" fill="#000000">&lt; 1</text>
<polygon fill="#ffffff" stroke="transparent" points="289.5,-245.7 289.5,-264.7 362.5,-264.7 362.5,-245.7 289.5,-245.7"/>
<polygon fill="none" stroke="#000000" points="289.5,-245.7 289.5,-264.7 362.5,-264.7 362.5,-245.7 289.5,-245.7"/>
<text text-anchor="start" x="327.1105" y="-251.8" font-family="Helvetica,sans-Serif" font-size="11.00" fill="#000000">0 rows</text>
<polygon fill="#ffffff" stroke="transparent" points="362.5,-245.7 362.5,-264.7 410.5,-264.7 410.5,-245.7 362.5,-245.7"/>
<polygon fill="none" stroke="#000000" points="362.5,-245.7 362.5,-264.7 410.5,-264.7 410.5,-245.7 362.5,-245.7"/>
<text text-anchor="start" x="401.3862" y="-251.8" font-family="Helvetica,sans-Serif" font-size="11.00" fill="#000000"> &#160;</text>
</a>
</g>
</g>
<!-- tap.authorisation_audit&#45;&gt;audit_revision -->
<g id="edge2" class="edge">
<title>tap.authorisation_audit:w&#45;&gt;audit_revision:e</title>
<path fill="none" stroke="#000000" d="M183.673,-290.6196C166.5027,-278.3611 169.9922,-242.7 142,-242.7"/>
<polygon fill="#000000" stroke="#000000" points="189.8271,-292.4357 196.4811,-298.1528 193.6636,-293.5678 197.5,-294.7 197.5,-294.7 197.5,-294.7 193.6636,-293.5678 198.5189,-291.2472 189.8271,-292.4357 189.8271,-292.4357"/>
<ellipse fill="none" stroke="#000000" cx="186.758" cy="-291.53" rx="3.2" ry="3.2"/>
</g>
<!-- tap.movement_audit -->
<g id="node4" class="node">
<title>tap.movement_audit</title>
<g id="a_node4"><a xlink:href="../../../tap/tables/movement_audit.html" xlink:title="tap.movement_audit" target="_top">
<polygon fill="#ffffff" stroke="transparent" points="199.5,-142.2 199.5,-225.2 407.5,-225.2 407.5,-142.2 199.5,-142.2"/>
<polygon fill="#f5f5f5" stroke="transparent" points="199.5,-201.7 199.5,-224.7 407.5,-224.7 407.5,-201.7 199.5,-201.7"/>
<polygon fill="none" stroke="#000000" points="199.5,-201.7 199.5,-224.7 407.5,-224.7 407.5,-201.7 199.5,-201.7"/>
<text text-anchor="start" x="204.5" y="-210.3" font-family="Helvetica,sans-Serif" font-weight="bold" font-size="11.00" fill="#000000">tap.movement_audit</text>
<text text-anchor="start" x="372.5437" y="-209.8" font-family="Helvetica,sans-Serif" font-size="11.00" fill="#000000">[table]</text>
<polygon fill="none" stroke="#000000" points="199.5,-179.7 199.5,-201.7 407.5,-201.7 407.5,-179.7 199.5,-179.7"/>
<image xlink:href="../../images/foreignKeys.png" width="11px" height="12px" preserveAspectRatio="xMinYMin meet" x="204.5" y="-196.7"/>
<text text-anchor="start" x="219.5" y="-186.8" font-family="Helvetica,sans-Serif" font-size="11.00" fill="#000000">rev_id</text>
<polygon fill="none" stroke="#000000" points="199.5,-160.7 199.5,-179.7 407.5,-179.7 407.5,-160.7 199.5,-160.7"/>
<text text-anchor="start" x="202.5" y="-166.8" font-family="Helvetica,sans-Serif" font-size="11.00" fill="#000000">...</text>
<polygon fill="#ffffff" stroke="transparent" points="199.5,-141.7 199.5,-160.7 288.5,-160.7 288.5,-141.7 199.5,-141.7"/>
<polygon fill="none" stroke="#000000" points="199.5,-141.7 199.5,-160.7 288.5,-160.7 288.5,-141.7 199.5,-141.7"/>
<text text-anchor="start" x="202.5" y="-147.8" font-family="Helvetica,sans-Serif" font-size="11.00" fill="#000000">&lt; 1</text>
<polygon fill="#ffffff" stroke="transparent" points="288.5,-141.7 288.5,-160.7 360.5,-160.7 360.5,-141.7 288.5,-141.7"/>
<polygon fill="none" stroke="#000000" points="288.5,-141.7 288.5,-160.7 360.5,-160.7 360.5,-141.7 288.5,-141.7"/>
<text text-anchor="start" x="325.1105" y="-147.8" font-family="Helvetica,sans-Serif" font-size="11.00" fill="#000000">0 rows</text>
<polygon fill="#ffffff" stroke="transparent" points="360.5,-141.7 360.5,-160.7 407.5,-160.7 407.5,-141.7 360.5,-141.7"/>
<polygon fill="none" stroke="#000000" points="360.5,-141.7 360.5,-160.7 407.5,-160.7 407.5,-141.7 360.5,-141.7"/>
<text text-anchor="start" x="398.3862" y="-147.8" font-family="Helvetica,sans-Serif" font-size="11.00" fill="#000000"> &#160;</text>
</a>
</g>
</g>
<!-- tap.movement_audit&#45;&gt;audit_revision -->
<g id="edge3" class="edge">
<title>tap.movement_audit:w&#45;&gt;audit_revision:e</title>
<path fill="none" stroke="#000000" d="M185.585,-194.6085C167.5837,-206.7016 170.6684,-242.7 142,-242.7"/>
<polygon fill="#000000" stroke="#000000" points="191.798,-192.8634 200.4735,-194.1659 195.649,-191.7817 199.5,-190.7 199.5,-190.7 199.5,-190.7 195.649,-191.7817 198.5265,-187.2341 191.798,-192.8634 191.798,-192.8634"/>
<ellipse fill="none" stroke="#000000" cx="188.7173" cy="-193.7287" rx="3.2" ry="3.2"/>
</g>
<!-- tap.occurrence_audit -->
<g id="node5" class="node">
<title>tap.occurrence_audit</title>
<g id="a_node5"><a xlink:href="../../../tap/tables/occurrence_audit.html" xlink:title="tap.occurrence_audit" target="_top">
<polygon fill="#ffffff" stroke="transparent" points="197,-38.2 197,-121.2 410,-121.2 410,-38.2 197,-38.2"/>
<polygon fill="#f5f5f5" stroke="transparent" points="197.5,-97.7 197.5,-120.7 410.5,-120.7 410.5,-97.7 197.5,-97.7"/>
<polygon fill="none" stroke="#000000" points="197.5,-97.7 197.5,-120.7 410.5,-120.7 410.5,-97.7 197.5,-97.7"/>
<text text-anchor="start" x="202.5" y="-106.3" font-family="Helvetica,sans-Serif" font-weight="bold" font-size="11.00" fill="#000000">tap.occurrence_audit</text>
<text text-anchor="start" x="375.5437" y="-105.8" font-family="Helvetica,sans-Serif" font-size="11.00" fill="#000000">[table]</text>
<polygon fill="none" stroke="#000000" points="197.5,-75.7 197.5,-97.7 410.5,-97.7 410.5,-75.7 197.5,-75.7"/>
<image xlink:href="../../images/foreignKeys.png" width="11px" height="12px" preserveAspectRatio="xMinYMin meet" x="202.5" y="-92.7"/>
<text text-anchor="start" x="217.5" y="-82.8" font-family="Helvetica,sans-Serif" font-size="11.00" fill="#000000">rev_id</text>
<polygon fill="none" stroke="#000000" points="197.5,-56.7 197.5,-75.7 410.5,-75.7 410.5,-56.7 197.5,-56.7"/>
<text text-anchor="start" x="200.5" y="-62.8" font-family="Helvetica,sans-Serif" font-size="11.00" fill="#000000">...</text>
<polygon fill="#ffffff" stroke="transparent" points="197.5,-37.7 197.5,-56.7 289.5,-56.7 289.5,-37.7 197.5,-37.7"/>
<polygon fill="none" stroke="#000000" points="197.5,-37.7 197.5,-56.7 289.5,-56.7 289.5,-37.7 197.5,-37.7"/>
<text text-anchor="start" x="200.5" y="-43.8" font-family="Helvetica,sans-Serif" font-size="11.00" fill="#000000">&lt; 1</text>
<polygon fill="#ffffff" stroke="transparent" points="289.5,-37.7 289.5,-56.7 362.5,-56.7 362.5,-37.7 289.5,-37.7"/>
<polygon fill="none" stroke="#000000" points="289.5,-37.7 289.5,-56.7 362.5,-56.7 362.5,-37.7 289.5,-37.7"/>
<text text-anchor="start" x="327.1105" y="-43.8" font-family="Helvetica,sans-Serif" font-size="11.00" fill="#000000">0 rows</text>
<polygon fill="#ffffff" stroke="transparent" points="362.5,-37.7 362.5,-56.7 410.5,-56.7 410.5,-37.7 362.5,-37.7"/>
<polygon fill="none" stroke="#000000" points="362.5,-37.7 362.5,-56.7 410.5,-56.7 410.5,-37.7 362.5,-37.7"/>
<text text-anchor="start" x="401.3862" y="-43.8" font-family="Helvetica,sans-Serif" font-size="11.00" fill="#000000"> &#160;</text>
</a>
</g>
</g>
<!-- tap.occurrence_audit&#45;&gt;audit_revision -->
<g id="edge4" class="edge">
<title>tap.occurrence_audit:w&#45;&gt;audit_revision:e</title>
<path fill="none" stroke="#000000" d="M183.1208,-89.4077C137.2259,-110.1229 209.8412,-242.7 142,-242.7"/>
<polygon fill="#000000" stroke="#000000" points="189.6382,-88.1805 198.1662,-90.2378 193.5691,-87.4402 197.5,-86.7 197.5,-86.7 197.5,-86.7 193.5691,-87.4402 196.8338,-83.1622 189.6382,-88.1805 189.6382,-88.1805"/>
<ellipse fill="none" stroke="#000000" cx="186.4934" cy="-88.7727" rx="3.2" ry="3.2"/>
</g>
</g>
</svg>
