<?xml version="1.0" encoding="UTF-8" standalone="no"?>
<!DOCTYPE svg PUBLIC "-//W3C//DTD SVG 1.1//EN"
 "http://www.w3.org/Graphics/SVG/1.1/DTD/svg11.dtd">
<!-- Generated by graphviz version 2.40.1 (20161225.0304)
 -->
<!-- Title: largeRelationshipsDiagram Pages: 1 -->
<svg width="432pt" height="1711pt"
 viewBox="0.00 0.00 432.00 1711.20" xmlns="http://www.w3.org/2000/svg" xmlns:xlink="http://www.w3.org/1999/xlink">
<g id="graph0" class="graph" transform="scale(1 1) rotate(0) translate(4 1707.2)">
<title>largeRelationshipsDiagram</title>
<polygon fill="#ffffff" stroke="transparent" points="-4,4 -4,-1707.2 428,-1707.2 428,4 -4,4"/>
<text text-anchor="middle" x="72.4936" y="-7.3" font-family="Helvetica,sans-Serif" font-size="11.00" fill="#000000">Generated by SchemaSpy</text>
<!-- hmpps_domain_event_audit -->
<g id="node1" class="node">
<title>hmpps_domain_event_audit</title>
<g id="a_node1"><a xlink:href="../../tables/hmpps_domain_event_audit.html" xlink:title="hmpps_domain_event_audit" target="_top">
<polygon fill="#ffffff" stroke="transparent" points="191,-1481.2 191,-1699.2 416,-1699.2 416,-1481.2 191,-1481.2"/>
<polygon fill="#f5f5f5" stroke="transparent" points="191.5,-1676.2 191.5,-1699.2 416.5,-1699.2 416.5,-1676.2 191.5,-1676.2"/>
<polygon fill="none" stroke="#000000" points="191.5,-1676.2 191.5,-1699.2 416.5,-1699.2 416.5,-1676.2 191.5,-1676.2"/>
<text text-anchor="start" x="196.5" y="-1684.8" font-family="Helvetica,sans-Serif" font-weight="bold" font-size="11.00" fill="#000000">hmpps_domain_event_audit</text>
<text text-anchor="start" x="382.0219" y="-1684.3" font-family="Helvetica,sans-Serif" font-size="11.00" fill="#000000">[table]</text>
<polygon fill="none" stroke="#000000" points="191.5,-1654.2 191.5,-1676.2 416.5,-1676.2 416.5,-1654.2 191.5,-1654.2"/>
<image xlink:href="../../images/primaryKeys.png" width="11px" height="12px" preserveAspectRatio="xMinYMin meet" x="196.5" y="-1671.2"/>
<text text-anchor="start" x="220.5" y="-1661.3" font-family="Helvetica,sans-Serif" font-size="11.00" fill="#000000">rev_id</text>
<polygon fill="#ffffff" stroke="transparent" points="191.5,-1632.2 191.5,-1654.2 416.5,-1654.2 416.5,-1632.2 191.5,-1632.2"/>
<polygon fill="none" stroke="#000000" points="191.5,-1632.2 191.5,-1654.2 416.5,-1654.2 416.5,-1632.2 191.5,-1632.2"/>
<text text-anchor="start" x="220.5" y="-1639.3" font-family="Helvetica,sans-Serif" font-size="11.00" fill="#000000">rev_type</text>
<polygon fill="none" stroke="#000000" points="191.5,-1610.2 191.5,-1632.2 416.5,-1632.2 416.5,-1610.2 191.5,-1610.2"/>
<image xlink:href="../../images/primaryKeys.png" width="11px" height="12px" preserveAspectRatio="xMinYMin meet" x="196.5" y="-1627.2"/>
<text text-anchor="start" x="220.5" y="-1617.3" font-family="Helvetica,sans-Serif" font-size="11.00" fill="#000000">id</text>
<polygon fill="none" stroke="#000000" points="191.5,-1588.2 191.5,-1610.2 416.5,-1610.2 416.5,-1588.2 191.5,-1588.2"/>
<text text-anchor="start" x="220.5" y="-1595.3" font-family="Helvetica,sans-Serif" font-size="11.00" fill="#000000">event_type</text>
<polygon fill="none" stroke="#000000" points="191.5,-1566.2 191.5,-1588.2 416.5,-1588.2 416.5,-1566.2 191.5,-1566.2"/>
<text text-anchor="start" x="220.5" y="-1573.3" font-family="Helvetica,sans-Serif" font-size="11.00" fill="#000000">event</text>
<polygon fill="none" stroke="#000000" points="191.5,-1544.2 191.5,-1566.2 416.5,-1566.2 416.5,-1544.2 191.5,-1544.2"/>
<text text-anchor="start" x="220.5" y="-1551.3" font-family="Helvetica,sans-Serif" font-size="11.00" fill="#000000">published</text>
<polygon fill="none" stroke="#000000" points="191.5,-1522.2 191.5,-1544.2 416.5,-1544.2 416.5,-1522.2 191.5,-1522.2"/>
<text text-anchor="start" x="220.5" y="-1529.3" font-family="Helvetica,sans-Serif" font-size="11.00" fill="#000000">version</text>
<polygon fill="#ffffff" stroke="transparent" points="191.5,-1500.2 191.5,-1522.2 416.5,-1522.2 416.5,-1500.2 191.5,-1500.2"/>
<polygon fill="none" stroke="#000000" points="191.5,-1500.2 191.5,-1522.2 416.5,-1522.2 416.5,-1500.2 191.5,-1500.2"/>
<text text-anchor="start" x="220.5" y="-1507.3" font-family="Helvetica,sans-Serif" font-size="11.00" fill="#000000">entity_id</text>
<polygon fill="#ffffff" stroke="transparent" points="191.5,-1481.2 191.5,-1500.2 302.5,-1500.2 302.5,-1481.2 191.5,-1481.2"/>
<polygon fill="none" stroke="#000000" points="191.5,-1481.2 191.5,-1500.2 302.5,-1500.2 302.5,-1481.2 191.5,-1481.2"/>
<text text-anchor="start" x="194.5" y="-1487.3" font-family="Helvetica,sans-Serif" font-size="11.00" fill="#000000">&lt; 1</text>
<polygon fill="#ffffff" stroke="transparent" points="302.5,-1481.2 302.5,-1500.2 359.5,-1500.2 359.5,-1481.2 302.5,-1481.2"/>
<polygon fill="none" stroke="#000000" points="302.5,-1481.2 302.5,-1500.2 359.5,-1500.2 359.5,-1481.2 302.5,-1481.2"/>
<text text-anchor="start" x="350.3862" y="-1487.3" font-family="Helvetica,sans-Serif" font-size="11.00" fill="#000000"> &#160;</text>
<polygon fill="#ffffff" stroke="transparent" points="359.5,-1481.2 359.5,-1500.2 416.5,-1500.2 416.5,-1481.2 359.5,-1481.2"/>
<polygon fill="none" stroke="#000000" points="359.5,-1481.2 359.5,-1500.2 416.5,-1500.2 416.5,-1481.2 359.5,-1481.2"/>
<text text-anchor="start" x="407.3862" y="-1487.3" font-family="Helvetica,sans-Serif" font-size="11.00" fill="#000000"> &#160;</text>
</a>
</g>
</g>
<!-- audit_revision -->
<g id="node2" class="node">
<title>audit_revision</title>
<g id="a_node2"><a xlink:href="../../tables/audit_revision.html" xlink:title="audit_revision" target="_top">
<polygon fill="#ffffff" stroke="transparent" points="8,-1034.2 8,-1208.2 142,-1208.2 142,-1034.2 8,-1034.2"/>
<polygon fill="#f5f5f5" stroke="transparent" points="8,-1185.2 8,-1208.2 142,-1208.2 142,-1185.2 8,-1185.2"/>
<polygon fill="none" stroke="#000000" points="8,-1185.2 8,-1208.2 142,-1208.2 142,-1185.2 8,-1185.2"/>
<text text-anchor="start" x="13" y="-1193.8" font-family="Helvetica,sans-Serif" font-weight="bold" font-size="11.00" fill="#000000">audit_revision</text>
<text text-anchor="start" x="107.5219" y="-1193.3" font-family="Helvetica,sans-Serif" font-size="11.00" fill="#000000">[table]</text>
<polygon fill="none" stroke="#000000" points="8,-1163.2 8,-1185.2 142,-1185.2 142,-1163.2 8,-1163.2"/>
<image xlink:href="../../images/primaryKeys.png" width="11px" height="12px" preserveAspectRatio="xMinYMin meet" x="13" y="-1180.2"/>
<text text-anchor="start" x="28" y="-1170.3" font-family="Helvetica,sans-Serif" font-size="11.00" fill="#000000">id</text>
<polygon fill="none" stroke="#000000" points="8,-1141.2 8,-1163.2 142,-1163.2 142,-1141.2 8,-1141.2"/>
<text text-anchor="start" x="28" y="-1148.3" font-family="Helvetica,sans-Serif" font-size="11.00" fill="#000000">timestamp</text>
<polygon fill="none" stroke="#000000" points="8,-1119.2 8,-1141.2 142,-1141.2 142,-1119.2 8,-1119.2"/>
<text text-anchor="start" x="28" y="-1126.3" font-family="Helvetica,sans-Serif" font-size="11.00" fill="#000000">username</text>
<polygon fill="none" stroke="#000000" points="8,-1097.2 8,-1119.2 142,-1119.2 142,-1097.2 8,-1097.2"/>
<text text-anchor="start" x="28" y="-1104.3" font-family="Helvetica,sans-Serif" font-size="11.00" fill="#000000">source</text>
<polygon fill="none" stroke="#000000" points="8,-1075.2 8,-1097.2 142,-1097.2 142,-1075.2 8,-1075.2"/>
<text text-anchor="start" x="28" y="-1082.3" font-family="Helvetica,sans-Serif" font-size="11.00" fill="#000000">affected_entities</text>
<polygon fill="none" stroke="#000000" points="8,-1053.2 8,-1075.2 142,-1075.2 142,-1053.2 8,-1053.2"/>
<text text-anchor="start" x="28" y="-1060.3" font-family="Helvetica,sans-Serif" font-size="11.00" fill="#000000">reason</text>
<polygon fill="#ffffff" stroke="transparent" points="8,-1034.2 8,-1053.2 64,-1053.2 64,-1034.2 8,-1034.2"/>
<polygon fill="none" stroke="#000000" points="8,-1034.2 8,-1053.2 64,-1053.2 64,-1034.2 8,-1034.2"/>
<text text-anchor="start" x="11" y="-1040.3" font-family="Helvetica,sans-Serif" font-size="11.00" fill="#000000"> &#160;</text>
<polygon fill="#ffffff" stroke="transparent" points="64,-1034.2 64,-1053.2 98,-1053.2 98,-1034.2 64,-1034.2"/>
<polygon fill="none" stroke="#000000" points="64,-1034.2 64,-1053.2 98,-1053.2 98,-1034.2 64,-1034.2"/>
<text text-anchor="start" x="88.8862" y="-1040.3" font-family="Helvetica,sans-Serif" font-size="11.00" fill="#000000"> &#160;</text>
<polygon fill="#ffffff" stroke="transparent" points="98,-1034.2 98,-1053.2 142,-1053.2 142,-1034.2 98,-1034.2"/>
<polygon fill="none" stroke="#000000" points="98,-1034.2 98,-1053.2 142,-1053.2 142,-1034.2 98,-1034.2"/>
<text text-anchor="start" x="123.4053" y="-1040.3" font-family="Helvetica,sans-Serif" font-size="11.00" fill="#000000">4 &gt;</text>
</a>
</g>
</g>
<!-- hmpps_domain_event_audit&#45;&gt;audit_revision -->
<g id="edge1" class="edge">
<title>hmpps_domain_event_audit:w&#45;&gt;audit_revision:e</title>
<path fill="none" stroke="#000000" d="M177.3699,-1661.8024C97.7543,-1618.4214 246.3095,-1174.2 142,-1174.2"/>
<polygon fill="#000000" stroke="#000000" points="183.7217,-1663.3297 190.6583,-1668.7002 187.6108,-1664.2648 191.5,-1665.2 191.5,-1665.2 191.5,-1665.2 187.6108,-1664.2648 192.3417,-1661.6998 183.7217,-1663.3297 183.7217,-1663.3297"/>
<ellipse fill="none" stroke="#000000" cx="180.6104" cy="-1662.5815" rx="3.2" ry="3.2"/>
</g>
<!-- tap.authorisation_audit -->
<g id="node3" class="node">
<title>tap.authorisation_audit</title>
<g id="a_node3"><a xlink:href="../../../tap/tables/authorisation_audit.html" xlink:title="tap.authorisation_audit" target="_top">
<polygon fill="#ffffff" stroke="transparent" points="197,-978.2 197,-1460.2 410,-1460.2 410,-978.2 197,-978.2"/>
<polygon fill="#f5f5f5" stroke="transparent" points="197.5,-1437.2 197.5,-1460.2 410.5,-1460.2 410.5,-1437.2 197.5,-1437.2"/>
<polygon fill="none" stroke="#000000" points="197.5,-1437.2 197.5,-1460.2 410.5,-1460.2 410.5,-1437.2 197.5,-1437.2"/>
<text text-anchor="start" x="202.5" y="-1445.8" font-family="Helvetica,sans-Serif" font-weight="bold" font-size="11.00" fill="#000000">tap.authorisation_audit</text>
<text text-anchor="start" x="375.5437" y="-1445.3" font-family="Helvetica,sans-Serif" font-size="11.00" fill="#000000">[table]</text>
<polygon fill="none" stroke="#000000" points="197.5,-1415.2 197.5,-1437.2 410.5,-1437.2 410.5,-1415.2 197.5,-1415.2"/>
<image xlink:href="../../images/foreignKeys.png" width="11px" height="12px" preserveAspectRatio="xMinYMin meet" x="202.5" y="-1432.2"/>
<text text-anchor="start" x="217.5" y="-1422.3" font-family="Helvetica,sans-Serif" font-size="11.00" fill="#000000">rev_id</text>
<polygon fill="none" stroke="#000000" points="197.5,-1393.2 197.5,-1415.2 410.5,-1415.2 410.5,-1393.2 197.5,-1393.2"/>
<text text-anchor="start" x="217.5" y="-1400.3" font-family="Helvetica,sans-Serif" font-size="11.00" fill="#000000">rev_type</text>
<polygon fill="none" stroke="#000000" points="197.5,-1371.2 197.5,-1393.2 410.5,-1393.2 410.5,-1371.2 197.5,-1371.2"/>
<text text-anchor="start" x="217.5" y="-1378.3" font-family="Helvetica,sans-Serif" font-size="11.00" fill="#000000">id</text>
<polygon fill="none" stroke="#000000" points="197.5,-1349.2 197.5,-1371.2 410.5,-1371.2 410.5,-1349.2 197.5,-1349.2"/>
<text text-anchor="start" x="217.5" y="-1356.3" font-family="Helvetica,sans-Serif" font-size="11.00" fill="#000000">version</text>
<polygon fill="none" stroke="#000000" points="197.5,-1327.2 197.5,-1349.2 410.5,-1349.2 410.5,-1327.2 197.5,-1327.2"/>
<text text-anchor="start" x="217.5" y="-1334.3" font-family="Helvetica,sans-Serif" font-size="11.00" fill="#000000">person_identifier</text>
<polygon fill="none" stroke="#000000" points="197.5,-1305.2 197.5,-1327.2 410.5,-1327.2 410.5,-1305.2 197.5,-1305.2"/>
<text text-anchor="start" x="217.5" y="-1312.3" font-family="Helvetica,sans-Serif" font-size="11.00" fill="#000000">prison_code</text>
<polygon fill="none" stroke="#000000" points="197.5,-1283.2 197.5,-1305.2 410.5,-1305.2 410.5,-1283.2 197.5,-1283.2"/>
<text text-anchor="start" x="217.5" y="-1290.3" font-family="Helvetica,sans-Serif" font-size="11.00" fill="#000000">status_id</text>
<polygon fill="none" stroke="#000000" points="197.5,-1261.2 197.5,-1283.2 410.5,-1283.2 410.5,-1261.2 197.5,-1261.2"/>
<text text-anchor="start" x="217.5" y="-1268.3" font-family="Helvetica,sans-Serif" font-size="11.00" fill="#000000">absence_type_id</text>
<polygon fill="none" stroke="#000000" points="197.5,-1239.2 197.5,-1261.2 410.5,-1261.2 410.5,-1239.2 197.5,-1239.2"/>
<text text-anchor="start" x="217.5" y="-1246.3" font-family="Helvetica,sans-Serif" font-size="11.00" fill="#000000">absence_sub_type_id</text>
<polygon fill="none" stroke="#000000" points="197.5,-1217.2 197.5,-1239.2 410.5,-1239.2 410.5,-1217.2 197.5,-1217.2"/>
<text text-anchor="start" x="217.5" y="-1224.3" font-family="Helvetica,sans-Serif" font-size="11.00" fill="#000000">absence_reason_category_id</text>
<polygon fill="none" stroke="#000000" points="197.5,-1195.2 197.5,-1217.2 410.5,-1217.2 410.5,-1195.2 197.5,-1195.2"/>
<text text-anchor="start" x="217.5" y="-1202.3" font-family="Helvetica,sans-Serif" font-size="11.00" fill="#000000">absence_reason_id</text>
<polygon fill="none" stroke="#000000" points="197.5,-1173.2 197.5,-1195.2 410.5,-1195.2 410.5,-1173.2 197.5,-1173.2"/>
<text text-anchor="start" x="217.5" y="-1180.3" font-family="Helvetica,sans-Serif" font-size="11.00" fill="#000000">accompanied_by_id</text>
<polygon fill="none" stroke="#000000" points="197.5,-1151.2 197.5,-1173.2 410.5,-1173.2 410.5,-1151.2 197.5,-1151.2"/>
<text text-anchor="start" x="217.5" y="-1158.3" font-family="Helvetica,sans-Serif" font-size="11.00" fill="#000000">transport_id</text>
<polygon fill="none" stroke="#000000" points="197.5,-1129.2 197.5,-1151.2 410.5,-1151.2 410.5,-1129.2 197.5,-1129.2"/>
<text text-anchor="start" x="217.5" y="-1136.3" font-family="Helvetica,sans-Serif" font-size="11.00" fill="#000000">start</text>
<polygon fill="none" stroke="#000000" points="197.5,-1107.2 197.5,-1129.2 410.5,-1129.2 410.5,-1107.2 197.5,-1107.2"/>
<text text-anchor="start" x="217.5" y="-1114.3" font-family="Helvetica,sans-Serif" font-size="11.00" fill="#000000">end</text>
<polygon fill="none" stroke="#000000" points="197.5,-1085.2 197.5,-1107.2 410.5,-1107.2 410.5,-1085.2 197.5,-1085.2"/>
<text text-anchor="start" x="217.5" y="-1092.3" font-family="Helvetica,sans-Serif" font-size="11.00" fill="#000000">repeat</text>
<polygon fill="none" stroke="#000000" points="197.5,-1063.2 197.5,-1085.2 410.5,-1085.2 410.5,-1063.2 197.5,-1063.2"/>
<text text-anchor="start" x="217.5" y="-1070.3" font-family="Helvetica,sans-Serif" font-size="11.00" fill="#000000">comments</text>
<polygon fill="none" stroke="#000000" points="197.5,-1041.2 197.5,-1063.2 410.5,-1063.2 410.5,-1041.2 197.5,-1041.2"/>
<text text-anchor="start" x="217.5" y="-1048.3" font-family="Helvetica,sans-Serif" font-size="11.00" fill="#000000">reason_path</text>
<polygon fill="none" stroke="#000000" points="197.5,-1019.2 197.5,-1041.2 410.5,-1041.2 410.5,-1019.2 197.5,-1019.2"/>
<text text-anchor="start" x="217.5" y="-1026.3" font-family="Helvetica,sans-Serif" font-size="11.00" fill="#000000">schedule</text>
<polygon fill="none" stroke="#000000" points="197.5,-997.2 197.5,-1019.2 410.5,-1019.2 410.5,-997.2 197.5,-997.2"/>
<text text-anchor="start" x="217.5" y="-1004.3" font-family="Helvetica,sans-Serif" font-size="11.00" fill="#000000">legacy_id</text>
<polygon fill="#ffffff" stroke="transparent" points="197.5,-978.2 197.5,-997.2 289.5,-997.2 289.5,-978.2 197.5,-978.2"/>
<polygon fill="none" stroke="#000000" points="197.5,-978.2 197.5,-997.2 289.5,-997.2 289.5,-978.2 197.5,-978.2"/>
<text text-anchor="start" x="200.5" y="-984.3" font-family="Helvetica,sans-Serif" font-size="11.00" fill="#000000">&lt; 1</text>
<polygon fill="#ffffff" stroke="transparent" points="289.5,-978.2 289.5,-997.2 362.5,-997.2 362.5,-978.2 289.5,-978.2"/>
<polygon fill="none" stroke="#000000" points="289.5,-978.2 289.5,-997.2 362.5,-997.2 362.5,-978.2 289.5,-978.2"/>
<text text-anchor="start" x="327.1105" y="-984.3" font-family="Helvetica,sans-Serif" font-size="11.00" fill="#000000">0 rows</text>
<polygon fill="#ffffff" stroke="transparent" points="362.5,-978.2 362.5,-997.2 410.5,-997.2 410.5,-978.2 362.5,-978.2"/>
<polygon fill="none" stroke="#000000" points="362.5,-978.2 362.5,-997.2 410.5,-997.2 410.5,-978.2 362.5,-978.2"/>
<text text-anchor="start" x="401.3862" y="-984.3" font-family="Helvetica,sans-Serif" font-size="11.00" fill="#000000"> &#160;</text>
</a>
</g>
</g>
<!-- tap.authorisation_audit&#45;&gt;audit_revision -->
<g id="edge2" class="edge">
<title>tap.authorisation_audit:w&#45;&gt;audit_revision:e</title>
<path fill="none" stroke="#000000" d="M182.9555,-1424.5242C98.7949,-1402.6598 251.1963,-1174.2 142,-1174.2"/>
<polygon fill="#000000" stroke="#000000" points="189.5526,-1425.2842 197.0879,-1429.7763 193.5263,-1425.7421 197.5,-1426.2 197.5,-1426.2 197.5,-1426.2 193.5263,-1425.7421 197.9121,-1422.6237 189.5526,-1425.2842 189.5526,-1425.2842"/>
<ellipse fill="none" stroke="#000000" cx="186.3736" cy="-1424.9179" rx="3.2" ry="3.2"/>
</g>
<!-- tap.movement_audit -->
<g id="node4" class="node">
<title>tap.movement_audit</title>
<g id="a_node4"><a xlink:href="../../../tap/tables/movement_audit.html" xlink:title="tap.movement_audit" target="_top">
<polygon fill="#ffffff" stroke="transparent" points="199.5,-585.2 199.5,-957.2 407.5,-957.2 407.5,-585.2 199.5,-585.2"/>
<polygon fill="#f5f5f5" stroke="transparent" points="199.5,-934.2 199.5,-957.2 407.5,-957.2 407.5,-934.2 199.5,-934.2"/>
<polygon fill="none" stroke="#000000" points="199.5,-934.2 199.5,-957.2 407.5,-957.2 407.5,-934.2 199.5,-934.2"/>
<text text-anchor="start" x="204.5" y="-942.8" font-family="Helvetica,sans-Serif" font-weight="bold" font-size="11.00" fill="#000000">tap.movement_audit</text>
<text text-anchor="start" x="372.5437" y="-942.3" font-family="Helvetica,sans-Serif" font-size="11.00" fill="#000000">[table]</text>
<polygon fill="none" stroke="#000000" points="199.5,-912.2 199.5,-934.2 407.5,-934.2 407.5,-912.2 199.5,-912.2"/>
<image xlink:href="../../images/foreignKeys.png" width="11px" height="12px" preserveAspectRatio="xMinYMin meet" x="204.5" y="-929.2"/>
<text text-anchor="start" x="219.5" y="-919.3" font-family="Helvetica,sans-Serif" font-size="11.00" fill="#000000">rev_id</text>
<polygon fill="none" stroke="#000000" points="199.5,-890.2 199.5,-912.2 407.5,-912.2 407.5,-890.2 199.5,-890.2"/>
<text text-anchor="start" x="219.5" y="-897.3" font-family="Helvetica,sans-Serif" font-size="11.00" fill="#000000">rev_type</text>
<polygon fill="none" stroke="#000000" points="199.5,-868.2 199.5,-890.2 407.5,-890.2 407.5,-868.2 199.5,-868.2"/>
<text text-anchor="start" x="219.5" y="-875.3" font-family="Helvetica,sans-Serif" font-size="11.00" fill="#000000">id</text>
<polygon fill="none" stroke="#000000" points="199.5,-846.2 199.5,-868.2 407.5,-868.2 407.5,-846.2 199.5,-846.2"/>
<text text-anchor="start" x="219.5" y="-853.3" font-family="Helvetica,sans-Serif" font-size="11.00" fill="#000000">version</text>
<polygon fill="none" stroke="#000000" points="199.5,-824.2 199.5,-846.2 407.5,-846.2 407.5,-824.2 199.5,-824.2"/>
<text text-anchor="start" x="219.5" y="-831.3" font-family="Helvetica,sans-Serif" font-size="11.00" fill="#000000">person_identifier</text>
<polygon fill="none" stroke="#000000" points="199.5,-802.2 199.5,-824.2 407.5,-824.2 407.5,-802.2 199.5,-802.2"/>
<text text-anchor="start" x="219.5" y="-809.3" font-family="Helvetica,sans-Serif" font-size="11.00" fill="#000000">occurrence_id</text>
<polygon fill="none" stroke="#000000" points="199.5,-780.2 199.5,-802.2 407.5,-802.2 407.5,-780.2 199.5,-780.2"/>
<text text-anchor="start" x="219.5" y="-787.3" font-family="Helvetica,sans-Serif" font-size="11.00" fill="#000000">occurred_at</text>
<polygon fill="none" stroke="#000000" points="199.5,-758.2 199.5,-780.2 407.5,-780.2 407.5,-758.2 199.5,-758.2"/>
<text text-anchor="start" x="219.5" y="-765.3" font-family="Helvetica,sans-Serif" font-size="11.00" fill="#000000">direction</text>
<polygon fill="none" stroke="#000000" points="199.5,-736.2 199.5,-758.2 407.5,-758.2 407.5,-736.2 199.5,-736.2"/>
<text text-anchor="start" x="219.5" y="-743.3" font-family="Helvetica,sans-Serif" font-size="11.00" fill="#000000">absence_reason_id</text>
<polygon fill="none" stroke="#000000" points="199.5,-714.2 199.5,-736.2 407.5,-736.2 407.5,-714.2 199.5,-714.2"/>
<text text-anchor="start" x="219.5" y="-721.3" font-family="Helvetica,sans-Serif" font-size="11.00" fill="#000000">accompanied_by_id</text>
<polygon fill="none" stroke="#000000" points="199.5,-692.2 199.5,-714.2 407.5,-714.2 407.5,-692.2 199.5,-692.2"/>
<text text-anchor="start" x="219.5" y="-699.3" font-family="Helvetica,sans-Serif" font-size="11.00" fill="#000000">accompanied_by_comments</text>
<polygon fill="none" stroke="#000000" points="199.5,-670.2 199.5,-692.2 407.5,-692.2 407.5,-670.2 199.5,-670.2"/>
<text text-anchor="start" x="219.5" y="-677.3" font-family="Helvetica,sans-Serif" font-size="11.00" fill="#000000">location</text>
<polygon fill="none" stroke="#000000" points="199.5,-648.2 199.5,-670.2 407.5,-670.2 407.5,-648.2 199.5,-648.2"/>
<text text-anchor="start" x="219.5" y="-655.3" font-family="Helvetica,sans-Serif" font-size="11.00" fill="#000000">comments</text>
<polygon fill="none" stroke="#000000" points="199.5,-626.2 199.5,-648.2 407.5,-648.2 407.5,-626.2 199.5,-626.2"/>
<text text-anchor="start" x="219.5" y="-633.3" font-family="Helvetica,sans-Serif" font-size="11.00" fill="#000000">recorded_by_prison_code</text>
<polygon fill="none" stroke="#000000" points="199.5,-604.2 199.5,-626.2 407.5,-626.2 407.5,-604.2 199.5,-604.2"/>
<text text-anchor="start" x="219.5" y="-611.3" font-family="Helvetica,sans-Serif" font-size="11.00" fill="#000000">legacy_id</text>
<polygon fill="#ffffff" stroke="transparent" points="199.5,-585.2 199.5,-604.2 288.5,-604.2 288.5,-585.2 199.5,-585.2"/>
<polygon fill="none" stroke="#000000" points="199.5,-585.2 199.5,-604.2 288.5,-604.2 288.5,-585.2 199.5,-585.2"/>
<text text-anchor="start" x="202.5" y="-591.3" font-family="Helvetica,sans-Serif" font-size="11.00" fill="#000000">&lt; 1</text>
<polygon fill="#ffffff" stroke="transparent" points="288.5,-585.2 288.5,-604.2 360.5,-604.2 360.5,-585.2 288.5,-585.2"/>
<polygon fill="none" stroke="#000000" points="288.5,-585.2 288.5,-604.2 360.5,-604.2 360.5,-585.2 288.5,-585.2"/>
<text text-anchor="start" x="325.1105" y="-591.3" font-family="Helvetica,sans-Serif" font-size="11.00" fill="#000000">0 rows</text>
<polygon fill="#ffffff" stroke="transparent" points="360.5,-585.2 360.5,-604.2 407.5,-604.2 407.5,-585.2 360.5,-585.2"/>
<polygon fill="none" stroke="#000000" points="360.5,-585.2 360.5,-604.2 407.5,-604.2 407.5,-585.2 360.5,-585.2"/>
<text text-anchor="start" x="398.3862" y="-591.3" font-family="Helvetica,sans-Serif" font-size="11.00" fill="#000000"> &#160;</text>
</a>
</g>
</g>
<!-- tap.movement_audit&#45;&gt;audit_revision -->
<g id="edge3" class="edge">
<title>tap.movement_audit:w&#45;&gt;audit_revision:e</title>
<path fill="none" stroke="#000000" d="M186.2283,-929.4045C151.9512,-968.0564 193.858,-1174.2 142,-1174.2"/>
<polygon fill="#000000" stroke="#000000" points="192.2528,-926.5881 201.0246,-926.4612 195.8764,-924.894 199.5,-923.2 199.5,-923.2 199.5,-923.2 195.8764,-924.894 197.9754,-919.9388 192.2528,-926.5881 192.2528,-926.5881"/>
<ellipse fill="none" stroke="#000000" cx="189.354" cy="-927.9433" rx="3.2" ry="3.2"/>
</g>
<!-- tap.occurrence_audit -->
<g id="node5" class="node">
<title>tap.occurrence_audit</title>
<g id="a_node5"><a xlink:href="../../../tap/tables/occurrence_audit.html" xlink:title="tap.occurrence_audit" target="_top">
<polygon fill="#ffffff" stroke="transparent" points="197,-38.2 197,-564.2 410,-564.2 410,-38.2 197,-38.2"/>
<polygon fill="#f5f5f5" stroke="transparent" points="197.5,-541.2 197.5,-564.2 410.5,-564.2 410.5,-541.2 197.5,-541.2"/>
<polygon fill="none" stroke="#000000" points="197.5,-541.2 197.5,-564.2 410.5,-564.2 410.5,-541.2 197.5,-541.2"/>
<text text-anchor="start" x="202.5" y="-549.8" font-family="Helvetica,sans-Serif" font-weight="bold" font-size="11.00" fill="#000000">tap.occurrence_audit</text>
<text text-anchor="start" x="375.5437" y="-549.3" font-family="Helvetica,sans-Serif" font-size="11.00" fill="#000000">[table]</text>
<polygon fill="none" stroke="#000000" points="197.5,-519.2 197.5,-541.2 410.5,-541.2 410.5,-519.2 197.5,-519.2"/>
<image xlink:href="../../images/foreignKeys.png" width="11px" height="12px" preserveAspectRatio="xMinYMin meet" x="202.5" y="-536.2"/>
<text text-anchor="start" x="217.5" y="-526.3" font-family="Helvetica,sans-Serif" font-size="11.00" fill="#000000">rev_id</text>
<polygon fill="none" stroke="#000000" points="197.5,-497.2 197.5,-519.2 410.5,-519.2 410.5,-497.2 197.5,-497.2"/>
<text text-anchor="start" x="217.5" y="-504.3" font-family="Helvetica,sans-Serif" font-size="11.00" fill="#000000">rev_type</text>
<polygon fill="none" stroke="#000000" points="197.5,-475.2 197.5,-497.2 410.5,-497.2 410.5,-475.2 197.5,-475.2"/>
<text text-anchor="start" x="217.5" y="-482.3" font-family="Helvetica,sans-Serif" font-size="11.00" fill="#000000">id</text>
<polygon fill="none" stroke="#000000" points="197.5,-453.2 197.5,-475.2 410.5,-475.2 410.5,-453.2 197.5,-453.2"/>
<text text-anchor="start" x="217.5" y="-460.3" font-family="Helvetica,sans-Serif" font-size="11.00" fill="#000000">version</text>
<polygon fill="none" stroke="#000000" points="197.5,-431.2 197.5,-453.2 410.5,-453.2 410.5,-431.2 197.5,-431.2"/>
<text text-anchor="start" x="217.5" y="-438.3" font-family="Helvetica,sans-Serif" font-size="11.00" fill="#000000">person_identifier</text>
<polygon fill="none" stroke="#000000" points="197.5,-409.2 197.5,-431.2 410.5,-431.2 410.5,-409.2 197.5,-409.2"/>
<text text-anchor="start" x="217.5" y="-416.3" font-family="Helvetica,sans-Serif" font-size="11.00" fill="#000000">prison_code</text>
<polygon fill="none" stroke="#000000" points="197.5,-387.2 197.5,-409.2 410.5,-409.2 410.5,-387.2 197.5,-387.2"/>
<text text-anchor="start" x="217.5" y="-394.3" font-family="Helvetica,sans-Serif" font-size="11.00" fill="#000000">authorisation_id</text>
<polygon fill="none" stroke="#000000" points="197.5,-365.2 197.5,-387.2 410.5,-387.2 410.5,-365.2 197.5,-365.2"/>
<text text-anchor="start" x="217.5" y="-372.3" font-family="Helvetica,sans-Serif" font-size="11.00" fill="#000000">status_id</text>
<polygon fill="none" stroke="#000000" points="197.5,-343.2 197.5,-365.2 410.5,-365.2 410.5,-343.2 197.5,-343.2"/>
<text text-anchor="start" x="217.5" y="-350.3" font-family="Helvetica,sans-Serif" font-size="11.00" fill="#000000">absence_type_id</text>
<polygon fill="none" stroke="#000000" points="197.5,-321.2 197.5,-343.2 410.5,-343.2 410.5,-321.2 197.5,-321.2"/>
<text text-anchor="start" x="217.5" y="-328.3" font-family="Helvetica,sans-Serif" font-size="11.00" fill="#000000">absence_sub_type_id</text>
<polygon fill="none" stroke="#000000" points="197.5,-299.2 197.5,-321.2 410.5,-321.2 410.5,-299.2 197.5,-299.2"/>
<text text-anchor="start" x="217.5" y="-306.3" font-family="Helvetica,sans-Serif" font-size="11.00" fill="#000000">absence_reason_category_id</text>
<polygon fill="none" stroke="#000000" points="197.5,-277.2 197.5,-299.2 410.5,-299.2 410.5,-277.2 197.5,-277.2"/>
<text text-anchor="start" x="217.5" y="-284.3" font-family="Helvetica,sans-Serif" font-size="11.00" fill="#000000">absence_reason_id</text>
<polygon fill="none" stroke="#000000" points="197.5,-255.2 197.5,-277.2 410.5,-277.2 410.5,-255.2 197.5,-255.2"/>
<text text-anchor="start" x="217.5" y="-262.3" font-family="Helvetica,sans-Serif" font-size="11.00" fill="#000000">accompanied_by_id</text>
<polygon fill="none" stroke="#000000" points="197.5,-233.2 197.5,-255.2 410.5,-255.2 410.5,-233.2 197.5,-233.2"/>
<text text-anchor="start" x="217.5" y="-240.3" font-family="Helvetica,sans-Serif" font-size="11.00" fill="#000000">transport_id</text>
<polygon fill="none" stroke="#000000" points="197.5,-211.2 197.5,-233.2 410.5,-233.2 410.5,-211.2 197.5,-211.2"/>
<text text-anchor="start" x="217.5" y="-218.3" font-family="Helvetica,sans-Serif" font-size="11.00" fill="#000000">start</text>
<polygon fill="none" stroke="#000000" points="197.5,-189.2 197.5,-211.2 410.5,-211.2 410.5,-189.2 197.5,-189.2"/>
<text text-anchor="start" x="217.5" y="-196.3" font-family="Helvetica,sans-Serif" font-size="11.00" fill="#000000">end</text>
<polygon fill="none" stroke="#000000" points="197.5,-167.2 197.5,-189.2 410.5,-189.2 410.5,-167.2 197.5,-167.2"/>
<text text-anchor="start" x="217.5" y="-174.3" font-family="Helvetica,sans-Serif" font-size="11.00" fill="#000000">location</text>
<polygon fill="none" stroke="#000000" points="197.5,-145.2 197.5,-167.2 410.5,-167.2 410.5,-145.2 197.5,-145.2"/>
<text text-anchor="start" x="217.5" y="-152.3" font-family="Helvetica,sans-Serif" font-size="11.00" fill="#000000">contact_information</text>
<polygon fill="none" stroke="#000000" points="197.5,-123.2 197.5,-145.2 410.5,-145.2 410.5,-123.2 197.5,-123.2"/>
<text text-anchor="start" x="217.5" y="-130.3" font-family="Helvetica,sans-Serif" font-size="11.00" fill="#000000">comments</text>
<polygon fill="none" stroke="#000000" points="197.5,-101.2 197.5,-123.2 410.5,-123.2 410.5,-101.2 197.5,-101.2"/>
<text text-anchor="start" x="217.5" y="-108.3" font-family="Helvetica,sans-Serif" font-size="11.00" fill="#000000">reason_path</text>
<polygon fill="none" stroke="#000000" points="197.5,-79.2 197.5,-101.2 410.5,-101.2 410.5,-79.2 197.5,-79.2"/>
<text text-anchor="start" x="217.5" y="-86.3" font-family="Helvetica,sans-Serif" font-size="11.00" fill="#000000">schedule_reference</text>
<polygon fill="none" stroke="#000000" points="197.5,-57.2 197.5,-79.2 410.5,-79.2 410.5,-57.2 197.5,-57.2"/>
<text text-anchor="start" x="217.5" y="-64.3" font-family="Helvetica,sans-Serif" font-size="11.00" fill="#000000">legacy_id</text>
<polygon fill="#ffffff" stroke="transparent" points="197.5,-38.2 197.5,-57.2 289.5,-57.2 289.5,-38.2 197.5,-38.2"/>
<polygon fill="none" stroke="#000000" points="197.5,-38.2 197.5,-57.2 289.5,-57.2 289.5,-38.2 197.5,-38.2"/>
<text text-anchor="start" x="200.5" y="-44.3" font-family="Helvetica,sans-Serif" font-size="11.00" fill="#000000">&lt; 1</text>
<polygon fill="#ffffff" stroke="transparent" points="289.5,-38.2 289.5,-57.2 362.5,-57.2 362.5,-38.2 289.5,-38.2"/>
<polygon fill="none" stroke="#000000" points="289.5,-38.2 289.5,-57.2 362.5,-57.2 362.5,-38.2 289.5,-38.2"/>
<text text-anchor="start" x="327.1105" y="-44.3" font-family="Helvetica,sans-Serif" font-size="11.00" fill="#000000">0 rows</text>
<polygon fill="#ffffff" stroke="transparent" points="362.5,-38.2 362.5,-57.2 410.5,-57.2 410.5,-38.2 362.5,-38.2"/>
<polygon fill="none" stroke="#000000" points="362.5,-38.2 362.5,-57.2 410.5,-57.2 410.5,-38.2 362.5,-38.2"/>
<text text-anchor="start" x="401.3862" y="-44.3" font-family="Helvetica,sans-Serif" font-size="11.00" fill="#000000"> &#160;</text>
</a>
</g>
</g>
<!-- tap.occurrence_audit&#45;&gt;audit_revision -->
<g id="edge4" class="edge">
<title>tap.occurrence_audit:w&#45;&gt;audit_revision:e</title>
<path fill="none" stroke="#000000" d="M185.2145,-538.3425C136.6801,-612.8913 209.0514,-1174.2 142,-1174.2"/>
<polygon fill="#000000" stroke="#000000" points="190.8316,-534.6196 199.4888,-533.2008 194.1658,-532.4098 197.5,-530.2 197.5,-530.2 197.5,-530.2 194.1658,-532.4098 195.5112,-527.1992 190.8316,-534.6196 190.8316,-534.6196"/>
<ellipse fill="none" stroke="#000000" cx="188.1643" cy="-536.3875" rx="3.2" ry="3.2"/>
</g>
</g>
</svg>
