<?xml version="1.0" encoding="UTF-8" standalone="no"?>
<!DOCTYPE svg PUBLIC "-//W3C//DTD SVG 1.1//EN"
 "http://www.w3.org/Graphics/SVG/1.1/DTD/svg11.dtd">
<!-- Generated by graphviz version 2.40.1 (20161225.0304)
 -->
<!-- Title: orphans Pages: 1 -->
<svg width="304pt" height="327pt"
 viewBox="0.00 0.00 304.00 327.00" xmlns="http://www.w3.org/2000/svg" xmlns:xlink="http://www.w3.org/1999/xlink">
<g id="graph0" class="graph" transform="scale(1 1) rotate(0) translate(4 323)">
<title>orphans</title>
<polygon fill="#ffffff" stroke="transparent" points="-4,4 -4,-323 300,-323 300,4 -4,4"/>
<!-- hmpps_domain_event -->
<g id="node1" class="node">
<title>hmpps_domain_event</title>
<g id="a_node1"><a xlink:href="../../tables/hmpps_domain_event.html" xlink:title="hmpps_domain_event" target="_top">
<polygon fill="#ffffff" stroke="transparent" points="13.5,-4 13.5,-138 282.5,-138 282.5,-4 13.5,-4"/>
<polygon fill="#f5f5f5" stroke="transparent" points="16,-113 16,-136 281,-136 281,-113 16,-113"/>
<polygon fill="none" stroke="#000000" points="16,-113 16,-136 281,-136 281,-113 16,-113"/>
<text text-anchor="start" x="21" y="-121.6" font-family="Helvetica,sans-Serif" font-weight="bold" font-size="11.00" fill="#000000">hmpps_domain_event</text>
<text text-anchor="start" x="246.0437" y="-121.1" font-family="Helvetica,sans-Serif" font-size="11.00" fill="#000000">[table]</text>
<polygon fill="none" stroke="#000000" points="16,-91 16,-113 182,-113 182,-91 16,-91"/>
<image xlink:href="../../images/primaryKeys.png" width="11px" height="12px" preserveAspectRatio="xMinYMin meet" x="21" y="-108"/>
<text text-anchor="start" x="36" y="-98.1" font-family="Helvetica,sans-Serif" font-size="11.00" fill="#000000">id</text>
<polygon fill="none" stroke="#000000" points="182,-91 182,-113 281,-113 281,-91 182,-91"/>
<text text-anchor="start" x="185" y="-98.7" font-family="Helvetica,sans-Serif" font-size="11.00" fill="#000000">uuid[2147483647]</text>
<polygon fill="none" stroke="#000000" points="16,-69 16,-91 182,-91 182,-69 16,-69"/>
<text text-anchor="start" x="36" y="-76.1" font-family="Helvetica,sans-Serif" font-size="11.00" fill="#000000">event_type</text>
<polygon fill="none" stroke="#000000" points="182,-69 182,-91 281,-91 281,-69 182,-69"/>
<text text-anchor="start" x="185" y="-76.7" font-family="Helvetica,sans-Serif" font-size="11.00" fill="#000000">text[2147483647]</text>
<polygon fill="none" stroke="#000000" points="16,-47 16,-69 182,-69 182,-47 16,-47"/>
<text text-anchor="start" x="36" y="-54.1" font-family="Helvetica,sans-Serif" font-size="11.00" fill="#000000">event</text>
<polygon fill="none" stroke="#000000" points="182,-47 182,-69 281,-69 281,-47 182,-47"/>
<text text-anchor="start" x="184.7258" y="-54.7" font-family="Helvetica,sans-Serif" font-size="11.00" fill="#000000">jsonb[2147483647]</text>
<polygon fill="none" stroke="#000000" points="16,-25 16,-47 182,-47 182,-25 16,-25"/>
<text text-anchor="start" x="36" y="-32.1" font-family="Helvetica,sans-Serif" font-size="11.00" fill="#000000">published</text>
<polygon fill="none" stroke="#000000" points="182,-25 182,-47 281,-47 281,-25 182,-25"/>
<text text-anchor="start" x="185" y="-32.7" font-family="Helvetica,sans-Serif" font-size="11.00" fill="#000000">bool[1]</text>
<polygon fill="#ffffff" stroke="transparent" points="16,-6 16,-25 103,-25 103,-6 16,-6"/>
<polygon fill="none" stroke="#000000" points="16,-6 16,-25 103,-25 103,-6 16,-6"/>
<text text-anchor="start" x="19" y="-12.1" font-family="Helvetica,sans-Serif" font-size="11.00" fill="#000000">&lt; 0</text>
<polygon fill="#ffffff" stroke="transparent" points="103,-6 103,-25 182,-25 182,-6 103,-6"/>
<polygon fill="none" stroke="#000000" points="103,-6 103,-25 182,-25 182,-6 103,-6"/>
<text text-anchor="start" x="172.8862" y="-12.1" font-family="Helvetica,sans-Serif" font-size="11.00" fill="#000000"> &#160;</text>
<polygon fill="#ffffff" stroke="transparent" points="182,-6 182,-25 281,-25 281,-6 182,-6"/>
<polygon fill="none" stroke="#000000" points="182,-6 182,-25 281,-25 281,-6 182,-6"/>
<text text-anchor="start" x="262.4053" y="-12.1" font-family="Helvetica,sans-Serif" font-size="11.00" fill="#000000">0 &gt;</text>
<polygon fill="none" stroke="#000000" stroke-width="2" points="14.5,-5 14.5,-137 281.5,-137 281.5,-5 14.5,-5"/>
</a>
</g>
</g>
<!-- migration_system_audit -->
<g id="node2" class="node">
<title>migration_system_audit</title>
<g id="a_node2"><a xlink:href="../../tables/migration_system_audit.html" xlink:title="migration_system_audit" target="_top">
<polygon fill="#ffffff" stroke="transparent" points="8,-159 8,-315 288,-315 288,-159 8,-159"/>
<polygon fill="#f5f5f5" stroke="transparent" points="10,-290 10,-313 286,-313 286,-290 10,-290"/>
<polygon fill="none" stroke="#000000" points="10,-290 10,-313 286,-313 286,-290 10,-290"/>
<text text-anchor="start" x="15" y="-298.6" font-family="Helvetica,sans-Serif" font-weight="bold" font-size="11.00" fill="#000000">migration_system_audit</text>
<text text-anchor="start" x="251.0437" y="-298.1" font-family="Helvetica,sans-Serif" font-size="11.00" fill="#000000">[table]</text>
<polygon fill="none" stroke="#000000" points="10,-268 10,-290 192,-290 192,-268 10,-268"/>
<image xlink:href="../../images/primaryKeys.png" width="11px" height="12px" preserveAspectRatio="xMinYMin meet" x="15" y="-285"/>
<text text-anchor="start" x="30" y="-275.1" font-family="Helvetica,sans-Serif" font-size="11.00" fill="#000000">id</text>
<polygon fill="none" stroke="#000000" points="192,-268 192,-290 286,-290 286,-268 192,-268"/>
<text text-anchor="start" x="194.9758" y="-275.7" font-family="Helvetica,sans-Serif" font-size="11.00" fill="#000000">uuid[2147483647]</text>
<polygon fill="none" stroke="#000000" points="10,-246 10,-268 192,-268 192,-246 10,-246"/>
<text text-anchor="start" x="30" y="-253.1" font-family="Helvetica,sans-Serif" font-size="11.00" fill="#000000">created_at</text>
<polygon fill="none" stroke="#000000" points="192,-246 192,-268 286,-268 286,-246 192,-246"/>
<text text-anchor="start" x="195" y="-253.7" font-family="Helvetica,sans-Serif" font-size="11.00" fill="#000000">timestamp[29,6]</text>
<polygon fill="none" stroke="#000000" points="10,-224 10,-246 192,-246 192,-224 10,-224"/>
<text text-anchor="start" x="30" y="-231.1" font-family="Helvetica,sans-Serif" font-size="11.00" fill="#000000">created_by</text>
<polygon fill="none" stroke="#000000" points="192,-224 192,-246 286,-246 286,-224 192,-224"/>
<text text-anchor="start" x="195" y="-231.7" font-family="Helvetica,sans-Serif" font-size="11.00" fill="#000000">varchar[64]</text>
<polygon fill="none" stroke="#000000" points="10,-202 10,-224 192,-224 192,-202 10,-202"/>
<text text-anchor="start" x="30" y="-209.1" font-family="Helvetica,sans-Serif" font-size="11.00" fill="#000000">updated_at</text>
<polygon fill="none" stroke="#000000" points="192,-202 192,-224 286,-224 286,-202 192,-202"/>
<text text-anchor="start" x="195" y="-209.7" font-family="Helvetica,sans-Serif" font-size="11.00" fill="#000000">timestamp[29,6]</text>
<polygon fill="none" stroke="#000000" points="10,-180 10,-202 192,-202 192,-180 10,-180"/>
<text text-anchor="start" x="30" y="-187.1" font-family="Helvetica,sans-Serif" font-size="11.00" fill="#000000">updated_by</text>
<polygon fill="none" stroke="#000000" points="192,-180 192,-202 286,-202 286,-180 192,-180"/>
<text text-anchor="start" x="195" y="-187.7" font-family="Helvetica,sans-Serif" font-size="11.00" fill="#000000">varchar[64]</text>
<polygon fill="#ffffff" stroke="transparent" points="10,-161 10,-180 105,-180 105,-161 10,-161"/>
<polygon fill="none" stroke="#000000" points="10,-161 10,-180 105,-180 105,-161 10,-161"/>
<text text-anchor="start" x="13" y="-167.1" font-family="Helvetica,sans-Serif" font-size="11.00" fill="#000000">&lt; 0</text>
<polygon fill="#ffffff" stroke="transparent" points="105,-161 105,-180 192,-180 192,-161 105,-161"/>
<polygon fill="none" stroke="#000000" points="105,-161 105,-180 192,-180 192,-161 105,-161"/>
<text text-anchor="start" x="182.8862" y="-167.1" font-family="Helvetica,sans-Serif" font-size="11.00" fill="#000000"> &#160;</text>
<polygon fill="#ffffff" stroke="transparent" points="192,-161 192,-180 286,-180 286,-161 192,-161"/>
<polygon fill="none" stroke="#000000" points="192,-161 192,-180 286,-180 286,-161 192,-161"/>
<text text-anchor="start" x="267.4053" y="-167.1" font-family="Helvetica,sans-Serif" font-size="11.00" fill="#000000">0 &gt;</text>
<polygon fill="none" stroke="#000000" stroke-width="2" points="9,-160 9,-314 287,-314 287,-160 9,-160"/>
</a>
</g>
</g>
</g>
</svg>
