<?xml version="1.0" encoding="UTF-8" standalone="no"?>
<!DOCTYPE svg PUBLIC "-//W3C//DTD SVG 1.1//EN"
 "http://www.w3.org/Graphics/SVG/1.1/DTD/svg11.dtd">
<!-- Generated by graphviz version 2.40.1 (20161225.0304)
 -->
<!-- Title: orphans Pages: 1 -->
<svg width="293pt" height="150pt"
 viewBox="0.00 0.00 293.00 150.00" xmlns="http://www.w3.org/2000/svg" xmlns:xlink="http://www.w3.org/1999/xlink">
<g id="graph0" class="graph" transform="scale(1 1) rotate(0) translate(4 146)">
<title>orphans</title>
<polygon fill="#ffffff" stroke="transparent" points="-4,4 -4,-146 289,-146 289,4 -4,4"/>
<!-- hmpps_domain_event -->
<g id="node1" class="node">
<title>hmpps_domain_event</title>
<g id="a_node1"><a xlink:href="../../tables/hmpps_domain_event.html" xlink:title="hmpps_domain_event" target="_top">
<polygon fill="#ffffff" stroke="transparent" points="8,-4 8,-138 277,-138 277,-4 8,-4"/>
<polygon fill="#f5f5f5" stroke="transparent" points="10.5,-113 10.5,-136 275.5,-136 275.5,-113 10.5,-113"/>
<polygon fill="none" stroke="#000000" points="10.5,-113 10.5,-136 275.5,-136 275.5,-113 10.5,-113"/>
<text text-anchor="start" x="15.5" y="-121.6" font-family="Helvetica,sans-Serif" font-weight="bold" font-size="11.00" fill="#000000">hmpps_domain_event</text>
<text text-anchor="start" x="240.5437" y="-121.1" font-family="Helvetica,sans-Serif" font-size="11.00" fill="#000000">[table]</text>
<polygon fill="none" stroke="#000000" points="10.5,-91 10.5,-113 176.5,-113 176.5,-91 10.5,-91"/>
<image xlink:href="../../images/primaryKeys.png" width="11px" height="12px" preserveAspectRatio="xMinYMin meet" x="15.5" y="-108"/>
<text text-anchor="start" x="30.5" y="-98.1" font-family="Helvetica,sans-Serif" font-size="11.00" fill="#000000">id</text>
<polygon fill="none" stroke="#000000" points="176.5,-91 176.5,-113 275.5,-113 275.5,-91 176.5,-91"/>
<text text-anchor="start" x="179.5" y="-98.7" font-family="Helvetica,sans-Serif" font-size="11.00" fill="#000000">uuid[2147483647]</text>
<polygon fill="none" stroke="#000000" points="10.5,-69 10.5,-91 176.5,-91 176.5,-69 10.5,-69"/>
<text text-anchor="start" x="30.5" y="-76.1" font-family="Helvetica,sans-Serif" font-size="11.00" fill="#000000">event_type</text>
<polygon fill="none" stroke="#000000" points="176.5,-69 176.5,-91 275.5,-91 275.5,-69 176.5,-69"/>
<text text-anchor="start" x="179.5" y="-76.7" font-family="Helvetica,sans-Serif" font-size="11.00" fill="#000000">text[2147483647]</text>
<polygon fill="none" stroke="#000000" points="10.5,-47 10.5,-69 176.5,-69 176.5,-47 10.5,-47"/>
<text text-anchor="start" x="30.5" y="-54.1" font-family="Helvetica,sans-Serif" font-size="11.00" fill="#000000">event</text>
<polygon fill="none" stroke="#000000" points="176.5,-47 176.5,-69 275.5,-69 275.5,-47 176.5,-47"/>
<text text-anchor="start" x="179.2258" y="-54.7" font-family="Helvetica,sans-Serif" font-size="11.00" fill="#000000">jsonb[2147483647]</text>
<polygon fill="none" stroke="#000000" points="10.5,-25 10.5,-47 176.5,-47 176.5,-25 10.5,-25"/>
<text text-anchor="start" x="30.5" y="-32.1" font-family="Helvetica,sans-Serif" font-size="11.00" fill="#000000">published</text>
<polygon fill="none" stroke="#000000" points="176.5,-25 176.5,-47 275.5,-47 275.5,-25 176.5,-25"/>
<text text-anchor="start" x="179.5" y="-32.7" font-family="Helvetica,sans-Serif" font-size="11.00" fill="#000000">bool[1]</text>
<polygon fill="#ffffff" stroke="transparent" points="10.5,-6 10.5,-25 97.5,-25 97.5,-6 10.5,-6"/>
<polygon fill="none" stroke="#000000" points="10.5,-6 10.5,-25 97.5,-25 97.5,-6 10.5,-6"/>
<text text-anchor="start" x="13.5" y="-12.1" font-family="Helvetica,sans-Serif" font-size="11.00" fill="#000000">&lt; 0</text>
<polygon fill="#ffffff" stroke="transparent" points="97.5,-6 97.5,-25 176.5,-25 176.5,-6 97.5,-6"/>
<polygon fill="none" stroke="#000000" points="97.5,-6 97.5,-25 176.5,-25 176.5,-6 97.5,-6"/>
<text text-anchor="start" x="167.3862" y="-12.1" font-family="Helvetica,sans-Serif" font-size="11.00" fill="#000000"> &#160;</text>
<polygon fill="#ffffff" stroke="transparent" points="176.5,-6 176.5,-25 275.5,-25 275.5,-6 176.5,-6"/>
<polygon fill="none" stroke="#000000" points="176.5,-6 176.5,-25 275.5,-25 275.5,-6 176.5,-6"/>
<text text-anchor="start" x="256.9053" y="-12.1" font-family="Helvetica,sans-Serif" font-size="11.00" fill="#000000">0 &gt;</text>
<polygon fill="none" stroke="#000000" stroke-width="2" points="9,-5 9,-137 276,-137 276,-5 9,-5"/>
</a>
</g>
</g>
</g>
</svg>
