<?xml version="1.0" encoding="UTF-8" standalone="no"?>
<!DOCTYPE svg PUBLIC "-//W3C//DTD SVG 1.1//EN"
 "http://www.w3.org/Graphics/SVG/1.1/DTD/svg11.dtd">
<!-- Generated by graphviz version 2.40.1 (20161225.0304)
 -->
<!-- Title: orphans Pages: 1 -->
<svg width="293pt" height="349pt"
 viewBox="0.00 0.00 293.00 349.00" xmlns="http://www.w3.org/2000/svg" xmlns:xlink="http://www.w3.org/1999/xlink">
<g id="graph0" class="graph" transform="scale(1 1) rotate(0) translate(4 345)">
<title>orphans</title>
<polygon fill="#ffffff" stroke="transparent" points="-4,4 -4,-345 289,-345 289,4 -4,4"/>
<!-- hmpps_domain_event -->
<g id="node1" class="node">
<title>hmpps_domain_event</title>
<g id="a_node1"><a xlink:href="../../tables/hmpps_domain_event.html" xlink:title="hmpps_domain_event" target="_top">
<polygon fill="#ffffff" stroke="transparent" points="8,-4 8,-138 277,-138 277,-4 8,-4"/>
<polygon fill="#f5f5f5" stroke="transparent" points="10.5,-113 10.5,-136 275.5,-136 275.5,-113 10.5,-113"/>
<polygon fill="none" stroke="#000000" points="10.5,-113 10.5,-136 275.5,-136 275.5,-113 10.5,-113"/>
<text text-anchor="start" x="15.5" y="-121.6" font-family="Helvetica,sans-Serif" font-weight="bold" font-size="11.00" fill="#000000">hmpps_domain_event</text>
<text text-anchor="start" x="240.5437" y="-121.1" font-family="Helvetica,sans-Serif" font-size="11.00" fill="#000000">[table]</text>
<polygon fill="none" stroke="#000000" points="10.5,-91 10.5,-113 176.5,-113 176.5,-91 10.5,-91"/>
<image xlink:href="../../images/primaryKeys.png" width="11px" height="12px" preserveAspectRatio="xMinYMin meet" x="15.5" y="-108"/>
<text text-anchor="start" x="30.5" y="-98.1" font-family="Helvetica,sans-Serif" font-size="11.00" fill="#000000">id</text>
<polygon fill="none" stroke="#000000" points="176.5,-91 176.5,-113 275.5,-113 275.5,-91 176.5,-91"/>
<text text-anchor="start" x="179.5" y="-98.7" font-family="Helvetica,sans-Serif" font-size="11.00" fill="#000000">uuid[2147483647]</text>
<polygon fill="none" stroke="#000000" points="10.5,-69 10.5,-91 176.5,-91 176.5,-69 10.5,-69"/>
<text text-anchor="start" x="30.5" y="-76.1" font-family="Helvetica,sans-Serif" font-size="11.00" fill="#000000">event_type</text>
<polygon fill="none" stroke="#000000" points="176.5,-69 176.5,-91 275.5,-91 275.5,-69 176.5,-69"/>
<text text-anchor="start" x="179.5" y="-76.7" font-family="Helvetica,sans-Serif" font-size="11.00" fill="#000000">text[2147483647]</text>
<polygon fill="none" stroke="#000000" points="10.5,-47 10.5,-69 176.5,-69 176.5,-47 10.5,-47"/>
<text text-anchor="start" x="30.5" y="-54.1" font-family="Helvetica,sans-Serif" font-size="11.00" fill="#000000">event</text>
<polygon fill="none" stroke="#000000" points="176.5,-47 176.5,-69 275.5,-69 275.5,-47 176.5,-47"/>
<text text-anchor="start" x="179.2258" y="-54.7" font-family="Helvetica,sans-Serif" font-size="11.00" fill="#000000">jsonb[2147483647]</text>
<polygon fill="none" stroke="#000000" points="10.5,-25 10.5,-47 176.5,-47 176.5,-25 10.5,-25"/>
<text text-anchor="start" x="30.5" y="-32.1" font-family="Helvetica,sans-Serif" font-size="11.00" fill="#000000">published</text>
<polygon fill="none" stroke="#000000" points="176.5,-25 176.5,-47 275.5,-47 275.5,-25 176.5,-25"/>
<text text-anchor="start" x="179.5" y="-32.7" font-family="Helvetica,sans-Serif" font-size="11.00" fill="#000000">bool[1]</text>
<polygon fill="#ffffff" stroke="transparent" points="10.5,-6 10.5,-25 97.5,-25 97.5,-6 10.5,-6"/>
<polygon fill="none" stroke="#000000" points="10.5,-6 10.5,-25 97.5,-25 97.5,-6 10.5,-6"/>
<text text-anchor="start" x="13.5" y="-12.1" font-family="Helvetica,sans-Serif" font-size="11.00" fill="#000000">&lt; 0</text>
<polygon fill="#ffffff" stroke="transparent" points="97.5,-6 97.5,-25 176.5,-25 176.5,-6 97.5,-6"/>
<polygon fill="none" stroke="#000000" points="97.5,-6 97.5,-25 176.5,-25 176.5,-6 97.5,-6"/>
<text text-anchor="start" x="167.3862" y="-12.1" font-family="Helvetica,sans-Serif" font-size="11.00" fill="#000000"> &#160;</text>
<polygon fill="#ffffff" stroke="transparent" points="176.5,-6 176.5,-25 275.5,-25 275.5,-6 176.5,-6"/>
<polygon fill="none" stroke="#000000" points="176.5,-6 176.5,-25 275.5,-25 275.5,-6 176.5,-6"/>
<text text-anchor="start" x="256.9053" y="-12.1" font-family="Helvetica,sans-Serif" font-size="11.00" fill="#000000">0 &gt;</text>
<polygon fill="none" stroke="#000000" stroke-width="2" points="9,-5 9,-137 276,-137 276,-5 9,-5"/>
</a>
</g>
</g>
<!-- person_summary -->
<g id="node2" class="node">
<title>person_summary</title>
<g id="a_node2"><a xlink:href="../../tables/person_summary.html" xlink:title="person_summary" target="_top">
<polygon fill="#ffffff" stroke="transparent" points="42,-159 42,-337 243,-337 243,-159 42,-159"/>
<polygon fill="#f5f5f5" stroke="transparent" points="44.5,-312 44.5,-335 241.5,-335 241.5,-312 44.5,-312"/>
<polygon fill="none" stroke="#000000" points="44.5,-312 44.5,-335 241.5,-335 241.5,-312 44.5,-312"/>
<text text-anchor="start" x="49.5" y="-320.6" font-family="Helvetica,sans-Serif" font-weight="bold" font-size="11.00" fill="#000000">person_summary</text>
<text text-anchor="start" x="206.5437" y="-320.1" font-family="Helvetica,sans-Serif" font-size="11.00" fill="#000000">[table]</text>
<polygon fill="none" stroke="#000000" points="44.5,-290 44.5,-312 180.5,-312 180.5,-290 44.5,-290"/>
<image xlink:href="../../images/primaryKeys.png" width="11px" height="12px" preserveAspectRatio="xMinYMin meet" x="49.5" y="-307"/>
<text text-anchor="start" x="64.5" y="-297.1" font-family="Helvetica,sans-Serif" font-size="11.00" fill="#000000">person_identifier</text>
<polygon fill="none" stroke="#000000" points="180.5,-290 180.5,-312 241.5,-312 241.5,-290 180.5,-290"/>
<text text-anchor="start" x="183.494" y="-297.7" font-family="Helvetica,sans-Serif" font-size="11.00" fill="#000000">varchar[10]</text>
<polygon fill="none" stroke="#000000" points="44.5,-268 44.5,-290 180.5,-290 180.5,-268 44.5,-268"/>
<text text-anchor="start" x="64.5" y="-275.1" font-family="Helvetica,sans-Serif" font-size="11.00" fill="#000000">first_name</text>
<polygon fill="none" stroke="#000000" points="180.5,-268 180.5,-290 241.5,-290 241.5,-268 180.5,-268"/>
<text text-anchor="start" x="183.494" y="-275.7" font-family="Helvetica,sans-Serif" font-size="11.00" fill="#000000">varchar[64]</text>
<polygon fill="none" stroke="#000000" points="44.5,-246 44.5,-268 180.5,-268 180.5,-246 44.5,-246"/>
<text text-anchor="start" x="64.5" y="-253.1" font-family="Helvetica,sans-Serif" font-size="11.00" fill="#000000">last_name</text>
<polygon fill="none" stroke="#000000" points="180.5,-246 180.5,-268 241.5,-268 241.5,-246 180.5,-246"/>
<text text-anchor="start" x="183.494" y="-253.7" font-family="Helvetica,sans-Serif" font-size="11.00" fill="#000000">varchar[64]</text>
<polygon fill="none" stroke="#000000" points="44.5,-224 44.5,-246 180.5,-246 180.5,-224 44.5,-224"/>
<text text-anchor="start" x="64.5" y="-231.1" font-family="Helvetica,sans-Serif" font-size="11.00" fill="#000000">date_of_birth</text>
<polygon fill="none" stroke="#000000" points="180.5,-224 180.5,-246 241.5,-246 241.5,-224 180.5,-224"/>
<text text-anchor="start" x="183.5" y="-231.7" font-family="Helvetica,sans-Serif" font-size="11.00" fill="#000000">date[13]</text>
<polygon fill="none" stroke="#000000" points="44.5,-202 44.5,-224 180.5,-224 180.5,-202 44.5,-202"/>
<text text-anchor="start" x="64.5" y="-209.1" font-family="Helvetica,sans-Serif" font-size="11.00" fill="#000000">cell_location</text>
<polygon fill="none" stroke="#000000" points="180.5,-202 180.5,-224 241.5,-224 241.5,-202 180.5,-202"/>
<text text-anchor="start" x="183.494" y="-209.7" font-family="Helvetica,sans-Serif" font-size="11.00" fill="#000000">varchar[64]</text>
<polygon fill="none" stroke="#000000" points="44.5,-180 44.5,-202 180.5,-202 180.5,-180 44.5,-180"/>
<text text-anchor="start" x="64.5" y="-187.1" font-family="Helvetica,sans-Serif" font-size="11.00" fill="#000000">version</text>
<polygon fill="none" stroke="#000000" points="180.5,-180 180.5,-202 241.5,-202 241.5,-180 180.5,-180"/>
<text text-anchor="start" x="183.5" y="-187.7" font-family="Helvetica,sans-Serif" font-size="11.00" fill="#000000">int4[10]</text>
<polygon fill="#ffffff" stroke="transparent" points="44.5,-161 44.5,-180 116.5,-180 116.5,-161 44.5,-161"/>
<polygon fill="none" stroke="#000000" points="44.5,-161 44.5,-180 116.5,-180 116.5,-161 44.5,-161"/>
<text text-anchor="start" x="47.5" y="-167.1" font-family="Helvetica,sans-Serif" font-size="11.00" fill="#000000">&lt; 0</text>
<polygon fill="#ffffff" stroke="transparent" points="116.5,-161 116.5,-180 180.5,-180 180.5,-161 116.5,-161"/>
<polygon fill="none" stroke="#000000" points="116.5,-161 116.5,-180 180.5,-180 180.5,-161 116.5,-161"/>
<text text-anchor="start" x="171.3862" y="-167.1" font-family="Helvetica,sans-Serif" font-size="11.00" fill="#000000"> &#160;</text>
<polygon fill="#ffffff" stroke="transparent" points="180.5,-161 180.5,-180 241.5,-180 241.5,-161 180.5,-161"/>
<polygon fill="none" stroke="#000000" points="180.5,-161 180.5,-180 241.5,-180 241.5,-161 180.5,-161"/>
<text text-anchor="start" x="222.9053" y="-167.1" font-family="Helvetica,sans-Serif" font-size="11.00" fill="#000000">0 &gt;</text>
<polygon fill="none" stroke="#000000" stroke-width="2" points="43,-160 43,-336 242,-336 242,-160 43,-160"/>
</a>
</g>
</g>
</g>
</svg>
