<?xml version="1.0" encoding="UTF-8" standalone="no"?>
<!DOCTYPE svg PUBLIC "-//W3C//DTD SVG 1.1//EN"
 "http://www.w3.org/Graphics/SVG/1.1/DTD/svg11.dtd">
<!-- Generated by graphviz version 2.40.1 (20161225.0304)
 -->
<!-- Title: orphans Pages: 1 -->
<svg width="333pt" height="194pt"
 viewBox="0.00 0.00 333.00 194.00" xmlns="http://www.w3.org/2000/svg" xmlns:xlink="http://www.w3.org/1999/xlink">
<g id="graph0" class="graph" transform="scale(1 1) rotate(0) translate(4 190)">
<title>orphans</title>
<polygon fill="#ffffff" stroke="transparent" points="-4,4 -4,-190 329,-190 329,4 -4,4"/>
<!-- absence_categorisation_link -->
<g id="node1" class="node">
<title>absence_categorisation_link</title>
<g id="a_node1"><a xlink:href="../../tables/absence_categorisation_link.html" xlink:title="absence_categorisation_link" target="_top">
<polygon fill="#ffffff" stroke="transparent" points="8,-4 8,-182 317,-182 317,-4 8,-4"/>
<polygon fill="#f5f5f5" stroke="transparent" points="10.5,-157 10.5,-180 315.5,-180 315.5,-157 10.5,-157"/>
<polygon fill="none" stroke="#000000" points="10.5,-157 10.5,-180 315.5,-180 315.5,-157 10.5,-157"/>
<text text-anchor="start" x="15.5" y="-165.6" font-family="Helvetica,sans-Serif" font-weight="bold" font-size="11.00" fill="#000000">absence_categorisation_link</text>
<text text-anchor="start" x="280.5437" y="-165.1" font-family="Helvetica,sans-Serif" font-size="11.00" fill="#000000">[table]</text>
<polygon fill="none" stroke="#000000" points="10.5,-135 10.5,-157 221.5,-157 221.5,-135 10.5,-135"/>
<image xlink:href="../../images/primaryKeys.png" width="11px" height="12px" preserveAspectRatio="xMinYMin meet" x="15.5" y="-152"/>
<text text-anchor="start" x="30.5" y="-142.1" font-family="Helvetica,sans-Serif" font-size="11.00" fill="#000000">id</text>
<polygon fill="none" stroke="#000000" points="221.5,-135 221.5,-157 315.5,-157 315.5,-135 221.5,-135"/>
<text text-anchor="start" x="224.4758" y="-142.7" font-family="Helvetica,sans-Serif" font-size="11.00" fill="#000000">uuid[2147483647]</text>
<polygon fill="none" stroke="#000000" points="10.5,-113 10.5,-135 221.5,-135 221.5,-113 10.5,-113"/>
<text text-anchor="start" x="30.5" y="-120.1" font-family="Helvetica,sans-Serif" font-size="11.00" fill="#000000">domain_1</text>
<polygon fill="none" stroke="#000000" points="221.5,-113 221.5,-135 315.5,-135 315.5,-113 221.5,-113"/>
<text text-anchor="start" x="224.5" y="-120.7" font-family="Helvetica,sans-Serif" font-size="11.00" fill="#000000">varchar[32]</text>
<polygon fill="#ffffff" stroke="transparent" points="10.5,-91 10.5,-113 221.5,-113 221.5,-91 10.5,-91"/>
<polygon fill="none" stroke="#000000" points="10.5,-91 10.5,-113 221.5,-113 221.5,-91 10.5,-91"/>
<text text-anchor="start" x="30.5" y="-98.1" font-family="Helvetica,sans-Serif" font-size="11.00" fill="#000000">id_1</text>
<polygon fill="none" stroke="#000000" points="221.5,-91 221.5,-113 315.5,-113 315.5,-91 221.5,-91"/>
<text text-anchor="start" x="224.4758" y="-98.7" font-family="Helvetica,sans-Serif" font-size="11.00" fill="#000000">uuid[2147483647]</text>
<polygon fill="none" stroke="#000000" points="10.5,-69 10.5,-91 221.5,-91 221.5,-69 10.5,-69"/>
<text text-anchor="start" x="30.5" y="-76.1" font-family="Helvetica,sans-Serif" font-size="11.00" fill="#000000">domain_2</text>
<polygon fill="none" stroke="#000000" points="221.5,-69 221.5,-91 315.5,-91 315.5,-69 221.5,-69"/>
<text text-anchor="start" x="224.5" y="-76.7" font-family="Helvetica,sans-Serif" font-size="11.00" fill="#000000">varchar[32]</text>
<polygon fill="none" stroke="#000000" points="10.5,-47 10.5,-69 221.5,-69 221.5,-47 10.5,-47"/>
<text text-anchor="start" x="30.5" y="-54.1" font-family="Helvetica,sans-Serif" font-size="11.00" fill="#000000">id_2</text>
<polygon fill="none" stroke="#000000" points="221.5,-47 221.5,-69 315.5,-69 315.5,-47 221.5,-47"/>
<text text-anchor="start" x="224.4758" y="-54.7" font-family="Helvetica,sans-Serif" font-size="11.00" fill="#000000">uuid[2147483647]</text>
<polygon fill="#ffffff" stroke="transparent" points="10.5,-25 10.5,-47 221.5,-47 221.5,-25 10.5,-25"/>
<polygon fill="none" stroke="#000000" points="10.5,-25 10.5,-47 221.5,-47 221.5,-25 10.5,-25"/>
<text text-anchor="start" x="30.5" y="-32.1" font-family="Helvetica,sans-Serif" font-size="11.00" fill="#000000">sequence_number</text>
<polygon fill="none" stroke="#000000" points="221.5,-25 221.5,-47 315.5,-47 315.5,-25 221.5,-25"/>
<text text-anchor="start" x="224.5" y="-32.7" font-family="Helvetica,sans-Serif" font-size="11.00" fill="#000000">int4[10]</text>
<polygon fill="#ffffff" stroke="transparent" points="10.5,-6 10.5,-25 120.5,-25 120.5,-6 10.5,-6"/>
<polygon fill="none" stroke="#000000" points="10.5,-6 10.5,-25 120.5,-25 120.5,-6 10.5,-6"/>
<text text-anchor="start" x="13.5" y="-12.1" font-family="Helvetica,sans-Serif" font-size="11.00" fill="#000000">&lt; 0</text>
<polygon fill="#ffffff" stroke="transparent" points="120.5,-6 120.5,-25 221.5,-25 221.5,-6 120.5,-6"/>
<polygon fill="none" stroke="#000000" points="120.5,-6 120.5,-25 221.5,-25 221.5,-6 120.5,-6"/>
<text text-anchor="start" x="212.3862" y="-12.1" font-family="Helvetica,sans-Serif" font-size="11.00" fill="#000000"> &#160;</text>
<polygon fill="#ffffff" stroke="transparent" points="221.5,-6 221.5,-25 315.5,-25 315.5,-6 221.5,-6"/>
<polygon fill="none" stroke="#000000" points="221.5,-6 221.5,-25 315.5,-25 315.5,-6 221.5,-6"/>
<text text-anchor="start" x="296.9053" y="-12.1" font-family="Helvetica,sans-Serif" font-size="11.00" fill="#000000">0 &gt;</text>
<polygon fill="none" stroke="#000000" stroke-width="2" points="9,-5 9,-181 316,-181 316,-5 9,-5"/>
</a>
</g>
</g>
</g>
</svg>
