<?xml version="1.0" encoding="UTF-8" standalone="no"?>
<!DOCTYPE svg PUBLIC "-//W3C//DTD SVG 1.1//EN"
 "http://www.w3.org/Graphics/SVG/1.1/DTD/svg11.dtd">
<!-- Generated by graphviz version 2.40.1 (20161225.0304)
 -->
<!-- Title: oneDegreeRelationshipsDiagram Pages: 1 -->
<svg width="527pt" height="809pt"
 viewBox="0.00 0.00 527.00 809.20" xmlns="http://www.w3.org/2000/svg" xmlns:xlink="http://www.w3.org/1999/xlink">
<g id="graph0" class="graph" transform="scale(1 1) rotate(0) translate(4 805.2)">
<title>oneDegreeRelationshipsDiagram</title>
<polygon fill="#ffffff" stroke="transparent" points="-4,4 -4,-805.2 523,-805.2 523,4 -4,4"/>
<text text-anchor="middle" x="72.4936" y="-7.3" font-family="Helvetica,sans-Serif" font-size="11.00" fill="#000000">Generated by SchemaSpy</text>
<!-- authorisation -->
<g id="node1" class="node">
<title>authorisation</title>
<g id="a_node1"><a xlink:href="../../tables/authorisation.html" xlink:title="authorisation" target="_top">
<polygon fill="#ffffff" stroke="transparent" points="298,-450.2 298,-797.2 511,-797.2 511,-450.2 298,-450.2"/>
<polygon fill="#f5f5f5" stroke="transparent" points="298.5,-773.7 298.5,-796.7 511.5,-796.7 511.5,-773.7 298.5,-773.7"/>
<polygon fill="none" stroke="#000000" points="298.5,-773.7 298.5,-796.7 511.5,-796.7 511.5,-773.7 298.5,-773.7"/>
<text text-anchor="start" x="303.5" y="-782.3" font-family="Helvetica,sans-Serif" font-weight="bold" font-size="11.00" fill="#000000">authorisation</text>
<text text-anchor="start" x="476.5437" y="-781.8" font-family="Helvetica,sans-Serif" font-size="11.00" fill="#000000">[table]</text>
<polygon fill="none" stroke="#000000" points="298.5,-751.7 298.5,-773.7 511.5,-773.7 511.5,-751.7 298.5,-751.7"/>
<image xlink:href="../../images/primaryKeys.png" width="11px" height="12px" preserveAspectRatio="xMinYMin meet" x="303.5" y="-768.7"/>
<text text-anchor="start" x="318.5" y="-758.8" font-family="Helvetica,sans-Serif" font-size="11.00" fill="#000000">id</text>
<polygon fill="#ffffff" stroke="transparent" points="298.5,-729.7 298.5,-751.7 511.5,-751.7 511.5,-729.7 298.5,-729.7"/>
<polygon fill="none" stroke="#000000" points="298.5,-729.7 298.5,-751.7 511.5,-751.7 511.5,-729.7 298.5,-729.7"/>
<image xlink:href="../../images/foreignKeys.png" width="11px" height="12px" preserveAspectRatio="xMinYMin meet" x="303.5" y="-746.7"/>
<text text-anchor="start" x="318.5" y="-736.8" font-family="Helvetica,sans-Serif" font-size="11.00" fill="#000000">person_identifier</text>
<polygon fill="#ffffff" stroke="transparent" points="298.5,-707.7 298.5,-729.7 511.5,-729.7 511.5,-707.7 298.5,-707.7"/>
<polygon fill="none" stroke="#000000" points="298.5,-707.7 298.5,-729.7 511.5,-729.7 511.5,-707.7 298.5,-707.7"/>
<text text-anchor="start" x="318.5" y="-714.8" font-family="Helvetica,sans-Serif" font-size="11.00" fill="#000000">prison_code</text>
<polygon fill="#ffffff" stroke="transparent" points="298.5,-685.7 298.5,-707.7 511.5,-707.7 511.5,-685.7 298.5,-685.7"/>
<polygon fill="none" stroke="#000000" points="298.5,-685.7 298.5,-707.7 511.5,-707.7 511.5,-685.7 298.5,-685.7"/>
<image xlink:href="../../images/foreignKeys.png" width="11px" height="12px" preserveAspectRatio="xMinYMin meet" x="303.5" y="-702.7"/>
<text text-anchor="start" x="318.5" y="-692.8" font-family="Helvetica,sans-Serif" font-size="11.00" fill="#000000">status_id</text>
<polygon fill="none" stroke="#000000" points="298.5,-663.7 298.5,-685.7 511.5,-685.7 511.5,-663.7 298.5,-663.7"/>
<image xlink:href="../../images/foreignKeys.png" width="11px" height="12px" preserveAspectRatio="xMinYMin meet" x="303.5" y="-680.7"/>
<text text-anchor="start" x="318.5" y="-670.8" font-family="Helvetica,sans-Serif" font-size="11.00" fill="#000000">absence_type_id</text>
<polygon fill="none" stroke="#000000" points="298.5,-641.7 298.5,-663.7 511.5,-663.7 511.5,-641.7 298.5,-641.7"/>
<image xlink:href="../../images/foreignKeys.png" width="11px" height="12px" preserveAspectRatio="xMinYMin meet" x="303.5" y="-658.7"/>
<text text-anchor="start" x="318.5" y="-648.8" font-family="Helvetica,sans-Serif" font-size="11.00" fill="#000000">absence_sub_type_id</text>
<polygon fill="none" stroke="#000000" points="298.5,-619.7 298.5,-641.7 511.5,-641.7 511.5,-619.7 298.5,-619.7"/>
<image xlink:href="../../images/foreignKeys.png" width="11px" height="12px" preserveAspectRatio="xMinYMin meet" x="303.5" y="-636.7"/>
<text text-anchor="start" x="318.5" y="-626.8" font-family="Helvetica,sans-Serif" font-size="11.00" fill="#000000">absence_reason_category_id</text>
<polygon fill="none" stroke="#000000" points="298.5,-597.7 298.5,-619.7 511.5,-619.7 511.5,-597.7 298.5,-597.7"/>
<image xlink:href="../../images/foreignKeys.png" width="11px" height="12px" preserveAspectRatio="xMinYMin meet" x="303.5" y="-614.7"/>
<text text-anchor="start" x="318.5" y="-604.8" font-family="Helvetica,sans-Serif" font-size="11.00" fill="#000000">absence_reason_id</text>
<polygon fill="none" stroke="#000000" points="298.5,-575.7 298.5,-597.7 511.5,-597.7 511.5,-575.7 298.5,-575.7"/>
<image xlink:href="../../images/foreignKeys.png" width="11px" height="12px" preserveAspectRatio="xMinYMin meet" x="303.5" y="-592.7"/>
<text text-anchor="start" x="318.5" y="-582.8" font-family="Helvetica,sans-Serif" font-size="11.00" fill="#000000">accompanied_by_id</text>
<polygon fill="none" stroke="#000000" points="298.5,-553.7 298.5,-575.7 511.5,-575.7 511.5,-553.7 298.5,-553.7"/>
<image xlink:href="../../images/foreignKeys.png" width="11px" height="12px" preserveAspectRatio="xMinYMin meet" x="303.5" y="-570.7"/>
<text text-anchor="start" x="318.5" y="-560.8" font-family="Helvetica,sans-Serif" font-size="11.00" fill="#000000">transport_id</text>
<polygon fill="#ffffff" stroke="transparent" points="298.5,-531.7 298.5,-553.7 511.5,-553.7 511.5,-531.7 298.5,-531.7"/>
<polygon fill="none" stroke="#000000" points="298.5,-531.7 298.5,-553.7 511.5,-553.7 511.5,-531.7 298.5,-531.7"/>
<text text-anchor="start" x="318.5" y="-538.8" font-family="Helvetica,sans-Serif" font-size="11.00" fill="#000000">start</text>
<polygon fill="#ffffff" stroke="transparent" points="298.5,-509.7 298.5,-531.7 511.5,-531.7 511.5,-509.7 298.5,-509.7"/>
<polygon fill="none" stroke="#000000" points="298.5,-509.7 298.5,-531.7 511.5,-531.7 511.5,-509.7 298.5,-509.7"/>
<text text-anchor="start" x="318.5" y="-516.8" font-family="Helvetica,sans-Serif" font-size="11.00" fill="#000000">end</text>
<polygon fill="#ffffff" stroke="transparent" points="298.5,-487.7 298.5,-509.7 511.5,-509.7 511.5,-487.7 298.5,-487.7"/>
<polygon fill="none" stroke="#000000" points="298.5,-487.7 298.5,-509.7 511.5,-509.7 511.5,-487.7 298.5,-487.7"/>
<text text-anchor="start" x="318.5" y="-494.8" font-family="Helvetica,sans-Serif" font-size="11.00" fill="#000000">legacy_id</text>
<polygon fill="none" stroke="#000000" points="298.5,-468.7 298.5,-487.7 511.5,-487.7 511.5,-468.7 298.5,-468.7"/>
<text text-anchor="start" x="301.5" y="-474.8" font-family="Helvetica,sans-Serif" font-size="11.00" fill="#000000">...</text>
<polygon fill="#ffffff" stroke="transparent" points="298.5,-449.7 298.5,-468.7 403.5,-468.7 403.5,-449.7 298.5,-449.7"/>
<polygon fill="none" stroke="#000000" points="298.5,-449.7 298.5,-468.7 403.5,-468.7 403.5,-449.7 298.5,-449.7"/>
<text text-anchor="start" x="301.5" y="-455.8" font-family="Helvetica,sans-Serif" font-size="11.00" fill="#000000">&lt; 8</text>
<polygon fill="#ffffff" stroke="transparent" points="403.5,-449.7 403.5,-468.7 457.5,-468.7 457.5,-449.7 403.5,-449.7"/>
<polygon fill="none" stroke="#000000" points="403.5,-449.7 403.5,-468.7 457.5,-468.7 457.5,-449.7 403.5,-449.7"/>
<text text-anchor="start" x="448.3862" y="-455.8" font-family="Helvetica,sans-Serif" font-size="11.00" fill="#000000"> &#160;</text>
<polygon fill="#ffffff" stroke="transparent" points="457.5,-449.7 457.5,-468.7 511.5,-468.7 511.5,-449.7 457.5,-449.7"/>
<polygon fill="none" stroke="#000000" points="457.5,-449.7 457.5,-468.7 511.5,-468.7 511.5,-449.7 457.5,-449.7"/>
<text text-anchor="start" x="502.3862" y="-455.8" font-family="Helvetica,sans-Serif" font-size="11.00" fill="#000000"> &#160;</text>
</a>
</g>
</g>
<!-- absence_type -->
<g id="node2" class="node">
<title>absence_type</title>
<g id="a_node2"><a xlink:href="../../tables/absence_type.html" xlink:title="absence_type" target="_top">
<polygon fill="#ffffff" stroke="transparent" points="8,-337.7 8,-515.7 249,-515.7 249,-337.7 8,-337.7"/>
<polygon fill="#f5f5f5" stroke="transparent" points="10.5,-490.7 10.5,-513.7 247.5,-513.7 247.5,-490.7 10.5,-490.7"/>
<polygon fill="none" stroke="#000000" points="10.5,-490.7 10.5,-513.7 247.5,-513.7 247.5,-490.7 10.5,-490.7"/>
<text text-anchor="start" x="15.5" y="-499.3" font-family="Helvetica,sans-Serif" font-weight="bold" font-size="11.00" fill="#000000">absence_type</text>
<text text-anchor="start" x="212.5437" y="-498.8" font-family="Helvetica,sans-Serif" font-size="11.00" fill="#000000">[table]</text>
<polygon fill="none" stroke="#000000" points="10.5,-468.7 10.5,-490.7 153.5,-490.7 153.5,-468.7 10.5,-468.7"/>
<image xlink:href="../../images/primaryKeys.png" width="11px" height="12px" preserveAspectRatio="xMinYMin meet" x="15.5" y="-485.7"/>
<text text-anchor="start" x="30.5" y="-475.8" font-family="Helvetica,sans-Serif" font-size="11.00" fill="#000000">id</text>
<polygon fill="none" stroke="#000000" points="153.5,-468.7 153.5,-490.7 247.5,-490.7 247.5,-468.7 153.5,-468.7"/>
<text text-anchor="start" x="156.4758" y="-476.4" font-family="Helvetica,sans-Serif" font-size="11.00" fill="#000000">uuid[2147483647]</text>
<polygon fill="#ffffff" stroke="transparent" points="10.5,-446.7 10.5,-468.7 153.5,-468.7 153.5,-446.7 10.5,-446.7"/>
<polygon fill="none" stroke="#000000" points="10.5,-446.7 10.5,-468.7 153.5,-468.7 153.5,-446.7 10.5,-446.7"/>
<text text-anchor="start" x="30.5" y="-453.8" font-family="Helvetica,sans-Serif" font-size="11.00" fill="#000000">code</text>
<polygon fill="none" stroke="#000000" points="153.5,-446.7 153.5,-468.7 247.5,-468.7 247.5,-446.7 153.5,-446.7"/>
<text text-anchor="start" x="156.5" y="-454.4" font-family="Helvetica,sans-Serif" font-size="11.00" fill="#000000">varchar[16]</text>
<polygon fill="none" stroke="#000000" points="10.5,-424.7 10.5,-446.7 153.5,-446.7 153.5,-424.7 10.5,-424.7"/>
<text text-anchor="start" x="30.5" y="-431.8" font-family="Helvetica,sans-Serif" font-size="11.00" fill="#000000">description</text>
<polygon fill="none" stroke="#000000" points="153.5,-424.7 153.5,-446.7 247.5,-446.7 247.5,-424.7 153.5,-424.7"/>
<text text-anchor="start" x="156.5" y="-432.4" font-family="Helvetica,sans-Serif" font-size="11.00" fill="#000000">varchar[255]</text>
<polygon fill="#ffffff" stroke="transparent" points="10.5,-402.7 10.5,-424.7 153.5,-424.7 153.5,-402.7 10.5,-402.7"/>
<polygon fill="none" stroke="#000000" points="10.5,-402.7 10.5,-424.7 153.5,-424.7 153.5,-402.7 10.5,-402.7"/>
<text text-anchor="start" x="30.5" y="-409.8" font-family="Helvetica,sans-Serif" font-size="11.00" fill="#000000">sequence_number</text>
<polygon fill="none" stroke="#000000" points="153.5,-402.7 153.5,-424.7 247.5,-424.7 247.5,-402.7 153.5,-402.7"/>
<text text-anchor="start" x="156.5" y="-410.4" font-family="Helvetica,sans-Serif" font-size="11.00" fill="#000000">int4[10]</text>
<polygon fill="none" stroke="#000000" points="10.5,-380.7 10.5,-402.7 153.5,-402.7 153.5,-380.7 10.5,-380.7"/>
<text text-anchor="start" x="30.5" y="-387.8" font-family="Helvetica,sans-Serif" font-size="11.00" fill="#000000">active</text>
<polygon fill="none" stroke="#000000" points="153.5,-380.7 153.5,-402.7 247.5,-402.7 247.5,-380.7 153.5,-380.7"/>
<text text-anchor="start" x="156.5" y="-388.4" font-family="Helvetica,sans-Serif" font-size="11.00" fill="#000000">bool[1]</text>
<polygon fill="none" stroke="#000000" points="10.5,-358.7 10.5,-380.7 153.5,-380.7 153.5,-358.7 10.5,-358.7"/>
<text text-anchor="start" x="30.5" y="-365.8" font-family="Helvetica,sans-Serif" font-size="11.00" fill="#000000">next_domain</text>
<polygon fill="none" stroke="#000000" points="153.5,-358.7 153.5,-380.7 247.5,-380.7 247.5,-358.7 153.5,-358.7"/>
<text text-anchor="start" x="156.5" y="-366.4" font-family="Helvetica,sans-Serif" font-size="11.00" fill="#000000">varchar[32]</text>
<polygon fill="#ffffff" stroke="transparent" points="10.5,-339.7 10.5,-358.7 86.5,-358.7 86.5,-339.7 10.5,-339.7"/>
<polygon fill="none" stroke="#000000" points="10.5,-339.7 10.5,-358.7 86.5,-358.7 86.5,-339.7 10.5,-339.7"/>
<text text-anchor="start" x="13.5" y="-345.8" font-family="Helvetica,sans-Serif" font-size="11.00" fill="#000000">&lt; 0</text>
<polygon fill="#ffffff" stroke="transparent" points="86.5,-339.7 86.5,-358.7 153.5,-358.7 153.5,-339.7 86.5,-339.7"/>
<polygon fill="none" stroke="#000000" points="86.5,-339.7 86.5,-358.7 153.5,-358.7 153.5,-339.7 86.5,-339.7"/>
<text text-anchor="start" x="144.3862" y="-345.8" font-family="Helvetica,sans-Serif" font-size="11.00" fill="#000000"> &#160;</text>
<polygon fill="#ffffff" stroke="transparent" points="153.5,-339.7 153.5,-358.7 247.5,-358.7 247.5,-339.7 153.5,-339.7"/>
<polygon fill="none" stroke="#000000" points="153.5,-339.7 153.5,-358.7 247.5,-358.7 247.5,-339.7 153.5,-339.7"/>
<text text-anchor="start" x="228.9053" y="-345.8" font-family="Helvetica,sans-Serif" font-size="11.00" fill="#000000">2 &gt;</text>
<polygon fill="none" stroke="#000000" stroke-width="2" points="9,-338.7 9,-514.7 248,-514.7 248,-338.7 9,-338.7"/>
</a>
</g>
</g>
<!-- authorisation&#45;&gt;absence_type -->
<g id="edge1" class="edge">
<title>authorisation:w&#45;&gt;absence_type:e</title>
<path fill="none" stroke="#000000" d="M284.1488,-672.5101C224.0881,-651.0867 331.4829,-479.7 247.5,-479.7"/>
<polygon fill="#000000" stroke="#000000" points="290.5915,-673.4932 297.9569,-678.2588 294.5458,-674.0966 298.5,-674.7 298.5,-674.7 298.5,-674.7 294.5458,-674.0966 299.0431,-671.1412 290.5915,-673.4932 290.5915,-673.4932"/>
<ellipse fill="none" stroke="#000000" cx="287.4282" cy="-673.0104" rx="3.2" ry="3.2"/>
</g>
<!-- occurrence -->
<g id="node3" class="node">
<title>occurrence</title>
<g id="a_node3"><a xlink:href="../../tables/occurrence.html" xlink:title="occurrence" target="_top">
<polygon fill="#ffffff" stroke="transparent" points="298,-38.2 298,-429.2 511,-429.2 511,-38.2 298,-38.2"/>
<polygon fill="#f5f5f5" stroke="transparent" points="298.5,-405.7 298.5,-428.7 511.5,-428.7 511.5,-405.7 298.5,-405.7"/>
<polygon fill="none" stroke="#000000" points="298.5,-405.7 298.5,-428.7 511.5,-428.7 511.5,-405.7 298.5,-405.7"/>
<text text-anchor="start" x="303.5" y="-414.3" font-family="Helvetica,sans-Serif" font-weight="bold" font-size="11.00" fill="#000000">occurrence</text>
<text text-anchor="start" x="476.5437" y="-413.8" font-family="Helvetica,sans-Serif" font-size="11.00" fill="#000000">[table]</text>
<polygon fill="none" stroke="#000000" points="298.5,-383.7 298.5,-405.7 511.5,-405.7 511.5,-383.7 298.5,-383.7"/>
<image xlink:href="../../images/primaryKeys.png" width="11px" height="12px" preserveAspectRatio="xMinYMin meet" x="303.5" y="-400.7"/>
<text text-anchor="start" x="318.5" y="-390.8" font-family="Helvetica,sans-Serif" font-size="11.00" fill="#000000">id</text>
<polygon fill="#ffffff" stroke="transparent" points="298.5,-361.7 298.5,-383.7 511.5,-383.7 511.5,-361.7 298.5,-361.7"/>
<polygon fill="none" stroke="#000000" points="298.5,-361.7 298.5,-383.7 511.5,-383.7 511.5,-361.7 298.5,-361.7"/>
<image xlink:href="../../images/foreignKeys.png" width="11px" height="12px" preserveAspectRatio="xMinYMin meet" x="303.5" y="-378.7"/>
<text text-anchor="start" x="318.5" y="-368.8" font-family="Helvetica,sans-Serif" font-size="11.00" fill="#000000">person_identifier</text>
<polygon fill="#ffffff" stroke="transparent" points="298.5,-339.7 298.5,-361.7 511.5,-361.7 511.5,-339.7 298.5,-339.7"/>
<polygon fill="none" stroke="#000000" points="298.5,-339.7 298.5,-361.7 511.5,-361.7 511.5,-339.7 298.5,-339.7"/>
<text text-anchor="start" x="318.5" y="-346.8" font-family="Helvetica,sans-Serif" font-size="11.00" fill="#000000">prison_code</text>
<polygon fill="#ffffff" stroke="transparent" points="298.5,-317.7 298.5,-339.7 511.5,-339.7 511.5,-317.7 298.5,-317.7"/>
<polygon fill="none" stroke="#000000" points="298.5,-317.7 298.5,-339.7 511.5,-339.7 511.5,-317.7 298.5,-317.7"/>
<text text-anchor="start" x="318.5" y="-324.8" font-family="Helvetica,sans-Serif" font-size="11.00" fill="#000000">authorisation_id</text>
<polygon fill="#ffffff" stroke="transparent" points="298.5,-295.7 298.5,-317.7 511.5,-317.7 511.5,-295.7 298.5,-295.7"/>
<polygon fill="none" stroke="#000000" points="298.5,-295.7 298.5,-317.7 511.5,-317.7 511.5,-295.7 298.5,-295.7"/>
<image xlink:href="../../images/foreignKeys.png" width="11px" height="12px" preserveAspectRatio="xMinYMin meet" x="303.5" y="-312.7"/>
<text text-anchor="start" x="318.5" y="-302.8" font-family="Helvetica,sans-Serif" font-size="11.00" fill="#000000">status_id</text>
<polygon fill="none" stroke="#000000" points="298.5,-273.7 298.5,-295.7 511.5,-295.7 511.5,-273.7 298.5,-273.7"/>
<image xlink:href="../../images/foreignKeys.png" width="11px" height="12px" preserveAspectRatio="xMinYMin meet" x="303.5" y="-290.7"/>
<text text-anchor="start" x="318.5" y="-280.8" font-family="Helvetica,sans-Serif" font-size="11.00" fill="#000000">absence_type_id</text>
<polygon fill="none" stroke="#000000" points="298.5,-251.7 298.5,-273.7 511.5,-273.7 511.5,-251.7 298.5,-251.7"/>
<image xlink:href="../../images/foreignKeys.png" width="11px" height="12px" preserveAspectRatio="xMinYMin meet" x="303.5" y="-268.7"/>
<text text-anchor="start" x="318.5" y="-258.8" font-family="Helvetica,sans-Serif" font-size="11.00" fill="#000000">absence_sub_type_id</text>
<polygon fill="none" stroke="#000000" points="298.5,-229.7 298.5,-251.7 511.5,-251.7 511.5,-229.7 298.5,-229.7"/>
<image xlink:href="../../images/foreignKeys.png" width="11px" height="12px" preserveAspectRatio="xMinYMin meet" x="303.5" y="-246.7"/>
<text text-anchor="start" x="318.5" y="-236.8" font-family="Helvetica,sans-Serif" font-size="11.00" fill="#000000">absence_reason_category_id</text>
<polygon fill="none" stroke="#000000" points="298.5,-207.7 298.5,-229.7 511.5,-229.7 511.5,-207.7 298.5,-207.7"/>
<image xlink:href="../../images/foreignKeys.png" width="11px" height="12px" preserveAspectRatio="xMinYMin meet" x="303.5" y="-224.7"/>
<text text-anchor="start" x="318.5" y="-214.8" font-family="Helvetica,sans-Serif" font-size="11.00" fill="#000000">absence_reason_id</text>
<polygon fill="none" stroke="#000000" points="298.5,-185.7 298.5,-207.7 511.5,-207.7 511.5,-185.7 298.5,-185.7"/>
<image xlink:href="../../images/foreignKeys.png" width="11px" height="12px" preserveAspectRatio="xMinYMin meet" x="303.5" y="-202.7"/>
<text text-anchor="start" x="318.5" y="-192.8" font-family="Helvetica,sans-Serif" font-size="11.00" fill="#000000">accompanied_by_id</text>
<polygon fill="none" stroke="#000000" points="298.5,-163.7 298.5,-185.7 511.5,-185.7 511.5,-163.7 298.5,-163.7"/>
<image xlink:href="../../images/foreignKeys.png" width="11px" height="12px" preserveAspectRatio="xMinYMin meet" x="303.5" y="-180.7"/>
<text text-anchor="start" x="318.5" y="-170.8" font-family="Helvetica,sans-Serif" font-size="11.00" fill="#000000">transport_id</text>
<polygon fill="#ffffff" stroke="transparent" points="298.5,-141.7 298.5,-163.7 511.5,-163.7 511.5,-141.7 298.5,-141.7"/>
<polygon fill="none" stroke="#000000" points="298.5,-141.7 298.5,-163.7 511.5,-163.7 511.5,-141.7 298.5,-141.7"/>
<text text-anchor="start" x="318.5" y="-148.8" font-family="Helvetica,sans-Serif" font-size="11.00" fill="#000000">start</text>
<polygon fill="#ffffff" stroke="transparent" points="298.5,-119.7 298.5,-141.7 511.5,-141.7 511.5,-119.7 298.5,-119.7"/>
<polygon fill="none" stroke="#000000" points="298.5,-119.7 298.5,-141.7 511.5,-141.7 511.5,-119.7 298.5,-119.7"/>
<text text-anchor="start" x="318.5" y="-126.8" font-family="Helvetica,sans-Serif" font-size="11.00" fill="#000000">end</text>
<polygon fill="#ffffff" stroke="transparent" points="298.5,-97.7 298.5,-119.7 511.5,-119.7 511.5,-97.7 298.5,-97.7"/>
<polygon fill="none" stroke="#000000" points="298.5,-97.7 298.5,-119.7 511.5,-119.7 511.5,-97.7 298.5,-97.7"/>
<text text-anchor="start" x="318.5" y="-104.8" font-family="Helvetica,sans-Serif" font-size="11.00" fill="#000000">legacy_id</text>
<polygon fill="#ffffff" stroke="transparent" points="298.5,-75.7 298.5,-97.7 511.5,-97.7 511.5,-75.7 298.5,-75.7"/>
<polygon fill="none" stroke="#000000" points="298.5,-75.7 298.5,-97.7 511.5,-97.7 511.5,-75.7 298.5,-75.7"/>
<text text-anchor="start" x="318.5" y="-82.8" font-family="Helvetica,sans-Serif" font-size="11.00" fill="#000000">dps_only</text>
<polygon fill="none" stroke="#000000" points="298.5,-56.7 298.5,-75.7 511.5,-75.7 511.5,-56.7 298.5,-56.7"/>
<text text-anchor="start" x="301.5" y="-62.8" font-family="Helvetica,sans-Serif" font-size="11.00" fill="#000000">...</text>
<polygon fill="#ffffff" stroke="transparent" points="298.5,-37.7 298.5,-56.7 398.5,-56.7 398.5,-37.7 298.5,-37.7"/>
<polygon fill="none" stroke="#000000" points="298.5,-37.7 298.5,-56.7 398.5,-56.7 398.5,-37.7 298.5,-37.7"/>
<text text-anchor="start" x="301.5" y="-43.8" font-family="Helvetica,sans-Serif" font-size="11.00" fill="#000000">&lt; 8</text>
<polygon fill="#ffffff" stroke="transparent" points="398.5,-37.7 398.5,-56.7 450.5,-56.7 450.5,-37.7 398.5,-37.7"/>
<polygon fill="none" stroke="#000000" points="398.5,-37.7 398.5,-56.7 450.5,-56.7 450.5,-37.7 398.5,-37.7"/>
<text text-anchor="start" x="441.3862" y="-43.8" font-family="Helvetica,sans-Serif" font-size="11.00" fill="#000000"> &#160;</text>
<polygon fill="#ffffff" stroke="transparent" points="450.5,-37.7 450.5,-56.7 511.5,-56.7 511.5,-37.7 450.5,-37.7"/>
<polygon fill="none" stroke="#000000" points="450.5,-37.7 450.5,-56.7 511.5,-56.7 511.5,-37.7 450.5,-37.7"/>
<text text-anchor="start" x="492.9053" y="-43.8" font-family="Helvetica,sans-Serif" font-size="11.00" fill="#000000">1 &gt;</text>
</a>
</g>
</g>
<!-- occurrence&#45;&gt;absence_type -->
<g id="edge2" class="edge">
<title>occurrence:w&#45;&gt;absence_type:e</title>
<path fill="none" stroke="#000000" d="M284.1488,-286.8899C224.0881,-308.3133 331.4829,-479.7 247.5,-479.7"/>
<polygon fill="#000000" stroke="#000000" points="290.5915,-285.9068 299.0431,-288.2588 294.5458,-285.3034 298.5,-284.7 298.5,-284.7 298.5,-284.7 294.5458,-285.3034 297.9569,-281.1412 290.5915,-285.9068 290.5915,-285.9068"/>
<ellipse fill="none" stroke="#000000" cx="287.4282" cy="-286.3896" rx="3.2" ry="3.2"/>
</g>
</g>
</svg>
