<?xml version="1.0" encoding="UTF-8" standalone="no"?>
<!DOCTYPE svg PUBLIC "-//W3C//DTD SVG 1.1//EN"
 "http://www.w3.org/Graphics/SVG/1.1/DTD/svg11.dtd">
<!-- Generated by graphviz version 2.40.1 (20161225.0304)
 -->
<!-- Title: twoDegreesRelationshipsDiagram Pages: 1 -->
<svg width="686pt" height="863pt"
 viewBox="0.00 0.00 686.00 863.20" xmlns="http://www.w3.org/2000/svg" xmlns:xlink="http://www.w3.org/1999/xlink">
<g id="graph0" class="graph" transform="scale(1 1) rotate(0) translate(4 859.2)">
<title>twoDegreesRelationshipsDiagram</title>
<polygon fill="#ffffff" stroke="transparent" points="-4,4 -4,-859.2 682,-859.2 682,4 -4,4"/>
<text text-anchor="middle" x="72.4936" y="-7.3" font-family="Helvetica,sans-Serif" font-size="11.00" fill="#000000">Generated by SchemaSpy</text>
<!-- authorisation -->
<g id="node1" class="node">
<title>authorisation</title>
<g id="a_node1"><a xlink:href="../../tables/authorisation.html" xlink:title="authorisation" target="_top">
<polygon fill="#ffffff" stroke="transparent" points="298,-429.2 298,-776.2 511,-776.2 511,-429.2 298,-429.2"/>
<polygon fill="#f5f5f5" stroke="transparent" points="298.5,-752.7 298.5,-775.7 511.5,-775.7 511.5,-752.7 298.5,-752.7"/>
<polygon fill="none" stroke="#000000" points="298.5,-752.7 298.5,-775.7 511.5,-775.7 511.5,-752.7 298.5,-752.7"/>
<text text-anchor="start" x="303.5" y="-761.3" font-family="Helvetica,sans-Serif" font-weight="bold" font-size="11.00" fill="#000000">authorisation</text>
<text text-anchor="start" x="476.5437" y="-760.8" font-family="Helvetica,sans-Serif" font-size="11.00" fill="#000000">[table]</text>
<polygon fill="none" stroke="#000000" points="298.5,-730.7 298.5,-752.7 511.5,-752.7 511.5,-730.7 298.5,-730.7"/>
<image xlink:href="../../images/primaryKeys.png" width="11px" height="12px" preserveAspectRatio="xMinYMin meet" x="303.5" y="-747.7"/>
<text text-anchor="start" x="318.5" y="-737.8" font-family="Helvetica,sans-Serif" font-size="11.00" fill="#000000">id</text>
<polygon fill="#ffffff" stroke="transparent" points="298.5,-708.7 298.5,-730.7 511.5,-730.7 511.5,-708.7 298.5,-708.7"/>
<polygon fill="none" stroke="#000000" points="298.5,-708.7 298.5,-730.7 511.5,-730.7 511.5,-708.7 298.5,-708.7"/>
<image xlink:href="../../images/foreignKeys.png" width="11px" height="12px" preserveAspectRatio="xMinYMin meet" x="303.5" y="-725.7"/>
<text text-anchor="start" x="318.5" y="-715.8" font-family="Helvetica,sans-Serif" font-size="11.00" fill="#000000">person_identifier</text>
<polygon fill="#ffffff" stroke="transparent" points="298.5,-686.7 298.5,-708.7 511.5,-708.7 511.5,-686.7 298.5,-686.7"/>
<polygon fill="none" stroke="#000000" points="298.5,-686.7 298.5,-708.7 511.5,-708.7 511.5,-686.7 298.5,-686.7"/>
<text text-anchor="start" x="318.5" y="-693.8" font-family="Helvetica,sans-Serif" font-size="11.00" fill="#000000">prison_code</text>
<polygon fill="#ffffff" stroke="transparent" points="298.5,-664.7 298.5,-686.7 511.5,-686.7 511.5,-664.7 298.5,-664.7"/>
<polygon fill="none" stroke="#000000" points="298.5,-664.7 298.5,-686.7 511.5,-686.7 511.5,-664.7 298.5,-664.7"/>
<image xlink:href="../../images/foreignKeys.png" width="11px" height="12px" preserveAspectRatio="xMinYMin meet" x="303.5" y="-681.7"/>
<text text-anchor="start" x="318.5" y="-671.8" font-family="Helvetica,sans-Serif" font-size="11.00" fill="#000000">status_id</text>
<polygon fill="none" stroke="#000000" points="298.5,-642.7 298.5,-664.7 511.5,-664.7 511.5,-642.7 298.5,-642.7"/>
<image xlink:href="../../images/foreignKeys.png" width="11px" height="12px" preserveAspectRatio="xMinYMin meet" x="303.5" y="-659.7"/>
<text text-anchor="start" x="318.5" y="-649.8" font-family="Helvetica,sans-Serif" font-size="11.00" fill="#000000">absence_type_id</text>
<polygon fill="none" stroke="#000000" points="298.5,-620.7 298.5,-642.7 511.5,-642.7 511.5,-620.7 298.5,-620.7"/>
<image xlink:href="../../images/foreignKeys.png" width="11px" height="12px" preserveAspectRatio="xMinYMin meet" x="303.5" y="-637.7"/>
<text text-anchor="start" x="318.5" y="-627.8" font-family="Helvetica,sans-Serif" font-size="11.00" fill="#000000">absence_sub_type_id</text>
<polygon fill="none" stroke="#000000" points="298.5,-598.7 298.5,-620.7 511.5,-620.7 511.5,-598.7 298.5,-598.7"/>
<image xlink:href="../../images/foreignKeys.png" width="11px" height="12px" preserveAspectRatio="xMinYMin meet" x="303.5" y="-615.7"/>
<text text-anchor="start" x="318.5" y="-605.8" font-family="Helvetica,sans-Serif" font-size="11.00" fill="#000000">absence_reason_category_id</text>
<polygon fill="none" stroke="#000000" points="298.5,-576.7 298.5,-598.7 511.5,-598.7 511.5,-576.7 298.5,-576.7"/>
<image xlink:href="../../images/foreignKeys.png" width="11px" height="12px" preserveAspectRatio="xMinYMin meet" x="303.5" y="-593.7"/>
<text text-anchor="start" x="318.5" y="-583.8" font-family="Helvetica,sans-Serif" font-size="11.00" fill="#000000">absence_reason_id</text>
<polygon fill="none" stroke="#000000" points="298.5,-554.7 298.5,-576.7 511.5,-576.7 511.5,-554.7 298.5,-554.7"/>
<image xlink:href="../../images/foreignKeys.png" width="11px" height="12px" preserveAspectRatio="xMinYMin meet" x="303.5" y="-571.7"/>
<text text-anchor="start" x="318.5" y="-561.8" font-family="Helvetica,sans-Serif" font-size="11.00" fill="#000000">accompanied_by_id</text>
<polygon fill="none" stroke="#000000" points="298.5,-532.7 298.5,-554.7 511.5,-554.7 511.5,-532.7 298.5,-532.7"/>
<image xlink:href="../../images/foreignKeys.png" width="11px" height="12px" preserveAspectRatio="xMinYMin meet" x="303.5" y="-549.7"/>
<text text-anchor="start" x="318.5" y="-539.8" font-family="Helvetica,sans-Serif" font-size="11.00" fill="#000000">transport_id</text>
<polygon fill="#ffffff" stroke="transparent" points="298.5,-510.7 298.5,-532.7 511.5,-532.7 511.5,-510.7 298.5,-510.7"/>
<polygon fill="none" stroke="#000000" points="298.5,-510.7 298.5,-532.7 511.5,-532.7 511.5,-510.7 298.5,-510.7"/>
<text text-anchor="start" x="318.5" y="-517.8" font-family="Helvetica,sans-Serif" font-size="11.00" fill="#000000">start</text>
<polygon fill="#ffffff" stroke="transparent" points="298.5,-488.7 298.5,-510.7 511.5,-510.7 511.5,-488.7 298.5,-488.7"/>
<polygon fill="none" stroke="#000000" points="298.5,-488.7 298.5,-510.7 511.5,-510.7 511.5,-488.7 298.5,-488.7"/>
<text text-anchor="start" x="318.5" y="-495.8" font-family="Helvetica,sans-Serif" font-size="11.00" fill="#000000">end</text>
<polygon fill="#ffffff" stroke="transparent" points="298.5,-466.7 298.5,-488.7 511.5,-488.7 511.5,-466.7 298.5,-466.7"/>
<polygon fill="none" stroke="#000000" points="298.5,-466.7 298.5,-488.7 511.5,-488.7 511.5,-466.7 298.5,-466.7"/>
<text text-anchor="start" x="318.5" y="-473.8" font-family="Helvetica,sans-Serif" font-size="11.00" fill="#000000">legacy_id</text>
<polygon fill="none" stroke="#000000" points="298.5,-447.7 298.5,-466.7 511.5,-466.7 511.5,-447.7 298.5,-447.7"/>
<text text-anchor="start" x="301.5" y="-453.8" font-family="Helvetica,sans-Serif" font-size="11.00" fill="#000000">...</text>
<polygon fill="#ffffff" stroke="transparent" points="298.5,-428.7 298.5,-447.7 403.5,-447.7 403.5,-428.7 298.5,-428.7"/>
<polygon fill="none" stroke="#000000" points="298.5,-428.7 298.5,-447.7 403.5,-447.7 403.5,-428.7 298.5,-428.7"/>
<text text-anchor="start" x="301.5" y="-434.8" font-family="Helvetica,sans-Serif" font-size="11.00" fill="#000000">&lt; 8</text>
<polygon fill="#ffffff" stroke="transparent" points="403.5,-428.7 403.5,-447.7 457.5,-447.7 457.5,-428.7 403.5,-428.7"/>
<polygon fill="none" stroke="#000000" points="403.5,-428.7 403.5,-447.7 457.5,-447.7 457.5,-428.7 403.5,-428.7"/>
<text text-anchor="start" x="448.3862" y="-434.8" font-family="Helvetica,sans-Serif" font-size="11.00" fill="#000000"> &#160;</text>
<polygon fill="#ffffff" stroke="transparent" points="457.5,-428.7 457.5,-447.7 511.5,-447.7 511.5,-428.7 457.5,-428.7"/>
<polygon fill="none" stroke="#000000" points="457.5,-428.7 457.5,-447.7 511.5,-447.7 511.5,-428.7 457.5,-428.7"/>
<text text-anchor="start" x="502.3862" y="-434.8" font-family="Helvetica,sans-Serif" font-size="11.00" fill="#000000"> &#160;</text>
</a>
</g>
</g>
<!-- absence_reason_category -->
<g id="node2" class="node">
<title>absence_reason_category</title>
<g id="a_node2"><a xlink:href="../../tables/absence_reason_category.html" xlink:title="absence_reason_category" target="_top">
<polygon fill="#ffffff" stroke="transparent" points="22.5,-462.2 22.5,-523.2 234.5,-523.2 234.5,-462.2 22.5,-462.2"/>
<polygon fill="#f5f5f5" stroke="transparent" points="22.5,-499.7 22.5,-522.7 234.5,-522.7 234.5,-499.7 22.5,-499.7"/>
<polygon fill="none" stroke="#000000" points="22.5,-499.7 22.5,-522.7 234.5,-522.7 234.5,-499.7 22.5,-499.7"/>
<text text-anchor="start" x="27.5" y="-508.3" font-family="Helvetica,sans-Serif" font-weight="bold" font-size="11.00" fill="#000000">absence_reason_category</text>
<text text-anchor="start" x="200.0219" y="-507.8" font-family="Helvetica,sans-Serif" font-size="11.00" fill="#000000">[table]</text>
<polygon fill="none" stroke="#000000" points="22.5,-480.7 22.5,-499.7 234.5,-499.7 234.5,-480.7 22.5,-480.7"/>
<text text-anchor="start" x="25.5" y="-486.8" font-family="Helvetica,sans-Serif" font-size="11.00" fill="#000000">...</text>
<polygon fill="#ffffff" stroke="transparent" points="22.5,-461.7 22.5,-480.7 117.5,-480.7 117.5,-461.7 22.5,-461.7"/>
<polygon fill="none" stroke="#000000" points="22.5,-461.7 22.5,-480.7 117.5,-480.7 117.5,-461.7 22.5,-461.7"/>
<text text-anchor="start" x="25.5" y="-467.8" font-family="Helvetica,sans-Serif" font-size="11.00" fill="#000000"> &#160;</text>
<polygon fill="#ffffff" stroke="transparent" points="117.5,-461.7 117.5,-480.7 171.5,-480.7 171.5,-461.7 117.5,-461.7"/>
<polygon fill="none" stroke="#000000" points="117.5,-461.7 117.5,-480.7 171.5,-480.7 171.5,-461.7 117.5,-461.7"/>
<text text-anchor="start" x="162.3862" y="-467.8" font-family="Helvetica,sans-Serif" font-size="11.00" fill="#000000"> &#160;</text>
<polygon fill="#ffffff" stroke="transparent" points="171.5,-461.7 171.5,-480.7 234.5,-480.7 234.5,-461.7 171.5,-461.7"/>
<polygon fill="none" stroke="#000000" points="171.5,-461.7 171.5,-480.7 234.5,-480.7 234.5,-461.7 171.5,-461.7"/>
<text text-anchor="start" x="215.9053" y="-467.8" font-family="Helvetica,sans-Serif" font-size="11.00" fill="#000000">2 &gt;</text>
</a>
</g>
</g>
<!-- authorisation&#45;&gt;absence_reason_category -->
<g id="edge1" class="edge">
<title>authorisation:w&#45;&gt;absence_reason_category:e</title>
<path fill="none" stroke="#000000" d="M284.4004,-606.7337C247.691,-588.2547 289.2778,-489.7 234.5,-489.7"/>
<polygon fill="#000000" stroke="#000000" points="290.6714,-608.053 297.7588,-613.2229 294.5857,-608.8765 298.5,-609.7 298.5,-609.7 298.5,-609.7 294.5857,-608.8765 299.2412,-606.1771 290.6714,-608.053 290.6714,-608.053"/>
<ellipse fill="none" stroke="#000000" cx="287.5399" cy="-607.3941" rx="3.2" ry="3.2"/>
</g>
<!-- absence_reason -->
<g id="node3" class="node">
<title>absence_reason</title>
<g id="a_node3"><a xlink:href="../../tables/absence_reason.html" xlink:title="absence_reason" target="_top">
<polygon fill="#ffffff" stroke="transparent" points="8,-202.7 8,-358.7 249,-358.7 249,-202.7 8,-202.7"/>
<polygon fill="#f5f5f5" stroke="transparent" points="10.5,-333.7 10.5,-356.7 247.5,-356.7 247.5,-333.7 10.5,-333.7"/>
<polygon fill="none" stroke="#000000" points="10.5,-333.7 10.5,-356.7 247.5,-356.7 247.5,-333.7 10.5,-333.7"/>
<text text-anchor="start" x="15.5" y="-342.3" font-family="Helvetica,sans-Serif" font-weight="bold" font-size="11.00" fill="#000000">absence_reason</text>
<text text-anchor="start" x="212.5437" y="-341.8" font-family="Helvetica,sans-Serif" font-size="11.00" fill="#000000">[table]</text>
<polygon fill="none" stroke="#000000" points="10.5,-311.7 10.5,-333.7 153.5,-333.7 153.5,-311.7 10.5,-311.7"/>
<image xlink:href="../../images/primaryKeys.png" width="11px" height="12px" preserveAspectRatio="xMinYMin meet" x="15.5" y="-328.7"/>
<text text-anchor="start" x="30.5" y="-318.8" font-family="Helvetica,sans-Serif" font-size="11.00" fill="#000000">id</text>
<polygon fill="none" stroke="#000000" points="153.5,-311.7 153.5,-333.7 247.5,-333.7 247.5,-311.7 153.5,-311.7"/>
<text text-anchor="start" x="156.4758" y="-319.4" font-family="Helvetica,sans-Serif" font-size="11.00" fill="#000000">uuid[2147483647]</text>
<polygon fill="#ffffff" stroke="transparent" points="10.5,-289.7 10.5,-311.7 153.5,-311.7 153.5,-289.7 10.5,-289.7"/>
<polygon fill="none" stroke="#000000" points="10.5,-289.7 10.5,-311.7 153.5,-311.7 153.5,-289.7 10.5,-289.7"/>
<text text-anchor="start" x="30.5" y="-296.8" font-family="Helvetica,sans-Serif" font-size="11.00" fill="#000000">code</text>
<polygon fill="none" stroke="#000000" points="153.5,-289.7 153.5,-311.7 247.5,-311.7 247.5,-289.7 153.5,-289.7"/>
<text text-anchor="start" x="156.5" y="-297.4" font-family="Helvetica,sans-Serif" font-size="11.00" fill="#000000">varchar[16]</text>
<polygon fill="none" stroke="#000000" points="10.5,-267.7 10.5,-289.7 153.5,-289.7 153.5,-267.7 10.5,-267.7"/>
<text text-anchor="start" x="30.5" y="-274.8" font-family="Helvetica,sans-Serif" font-size="11.00" fill="#000000">description</text>
<polygon fill="none" stroke="#000000" points="153.5,-267.7 153.5,-289.7 247.5,-289.7 247.5,-267.7 153.5,-267.7"/>
<text text-anchor="start" x="156.5" y="-275.4" font-family="Helvetica,sans-Serif" font-size="11.00" fill="#000000">varchar[255]</text>
<polygon fill="#ffffff" stroke="transparent" points="10.5,-245.7 10.5,-267.7 153.5,-267.7 153.5,-245.7 10.5,-245.7"/>
<polygon fill="none" stroke="#000000" points="10.5,-245.7 10.5,-267.7 153.5,-267.7 153.5,-245.7 10.5,-245.7"/>
<text text-anchor="start" x="30.5" y="-252.8" font-family="Helvetica,sans-Serif" font-size="11.00" fill="#000000">sequence_number</text>
<polygon fill="none" stroke="#000000" points="153.5,-245.7 153.5,-267.7 247.5,-267.7 247.5,-245.7 153.5,-245.7"/>
<text text-anchor="start" x="156.5" y="-253.4" font-family="Helvetica,sans-Serif" font-size="11.00" fill="#000000">int4[10]</text>
<polygon fill="none" stroke="#000000" points="10.5,-223.7 10.5,-245.7 153.5,-245.7 153.5,-223.7 10.5,-223.7"/>
<text text-anchor="start" x="30.5" y="-230.8" font-family="Helvetica,sans-Serif" font-size="11.00" fill="#000000">active</text>
<polygon fill="none" stroke="#000000" points="153.5,-223.7 153.5,-245.7 247.5,-245.7 247.5,-223.7 153.5,-223.7"/>
<text text-anchor="start" x="156.5" y="-231.4" font-family="Helvetica,sans-Serif" font-size="11.00" fill="#000000">bool[1]</text>
<polygon fill="#ffffff" stroke="transparent" points="10.5,-204.7 10.5,-223.7 70.5,-223.7 70.5,-204.7 10.5,-204.7"/>
<polygon fill="none" stroke="#000000" points="10.5,-204.7 10.5,-223.7 70.5,-223.7 70.5,-204.7 10.5,-204.7"/>
<text text-anchor="start" x="13.5" y="-210.8" font-family="Helvetica,sans-Serif" font-size="11.00" fill="#000000">&lt; 0</text>
<polygon fill="#ffffff" stroke="transparent" points="70.5,-204.7 70.5,-223.7 153.5,-223.7 153.5,-204.7 70.5,-204.7"/>
<polygon fill="none" stroke="#000000" points="70.5,-204.7 70.5,-223.7 153.5,-223.7 153.5,-204.7 70.5,-204.7"/>
<text text-anchor="start" x="111.9956" y="-210.8" font-family="Helvetica,sans-Serif" font-size="11.00" fill="#000000">98 rows</text>
<polygon fill="#ffffff" stroke="transparent" points="153.5,-204.7 153.5,-223.7 247.5,-223.7 247.5,-204.7 153.5,-204.7"/>
<polygon fill="none" stroke="#000000" points="153.5,-204.7 153.5,-223.7 247.5,-223.7 247.5,-204.7 153.5,-204.7"/>
<text text-anchor="start" x="228.9053" y="-210.8" font-family="Helvetica,sans-Serif" font-size="11.00" fill="#000000">3 &gt;</text>
<polygon fill="none" stroke="#000000" stroke-width="2" points="9,-203.7 9,-357.7 248,-357.7 248,-203.7 9,-203.7"/>
</a>
</g>
</g>
<!-- authorisation&#45;&gt;absence_reason -->
<g id="edge2" class="edge">
<title>authorisation:w&#45;&gt;absence_reason:e</title>
<path fill="none" stroke="#000000" d="M285.271,-581.6672C249.8774,-542.2219 302.0817,-322.7 247.5,-322.7"/>
<polygon fill="#000000" stroke="#000000" points="291.2211,-584.3806 297.0063,-590.9755 294.8606,-586.0403 298.5,-587.7 298.5,-587.7 298.5,-587.7 294.8606,-586.0403 299.9937,-584.4245 291.2211,-584.3806 291.2211,-584.3806"/>
<ellipse fill="none" stroke="#000000" cx="288.3096" cy="-583.0528" rx="3.2" ry="3.2"/>
</g>
<!-- absence_sub_type -->
<g id="node4" class="node">
<title>absence_sub_type</title>
<g id="a_node4"><a xlink:href="../../tables/absence_sub_type.html" xlink:title="absence_sub_type" target="_top">
<polygon fill="#ffffff" stroke="transparent" points="48,-544.2 48,-605.2 209,-605.2 209,-544.2 48,-544.2"/>
<polygon fill="#f5f5f5" stroke="transparent" points="48.5,-581.7 48.5,-604.7 209.5,-604.7 209.5,-581.7 48.5,-581.7"/>
<polygon fill="none" stroke="#000000" points="48.5,-581.7 48.5,-604.7 209.5,-604.7 209.5,-581.7 48.5,-581.7"/>
<text text-anchor="start" x="53.5" y="-590.3" font-family="Helvetica,sans-Serif" font-weight="bold" font-size="11.00" fill="#000000">absence_sub_type</text>
<text text-anchor="start" x="175.0219" y="-589.8" font-family="Helvetica,sans-Serif" font-size="11.00" fill="#000000">[table]</text>
<polygon fill="none" stroke="#000000" points="48.5,-562.7 48.5,-581.7 209.5,-581.7 209.5,-562.7 48.5,-562.7"/>
<text text-anchor="start" x="51.5" y="-568.8" font-family="Helvetica,sans-Serif" font-size="11.00" fill="#000000">...</text>
<polygon fill="#ffffff" stroke="transparent" points="48.5,-543.7 48.5,-562.7 118.5,-562.7 118.5,-543.7 48.5,-543.7"/>
<polygon fill="none" stroke="#000000" points="48.5,-543.7 48.5,-562.7 118.5,-562.7 118.5,-543.7 48.5,-543.7"/>
<text text-anchor="start" x="51.5" y="-549.8" font-family="Helvetica,sans-Serif" font-size="11.00" fill="#000000"> &#160;</text>
<polygon fill="#ffffff" stroke="transparent" points="118.5,-543.7 118.5,-562.7 159.5,-562.7 159.5,-543.7 118.5,-543.7"/>
<polygon fill="none" stroke="#000000" points="118.5,-543.7 118.5,-562.7 159.5,-562.7 159.5,-543.7 118.5,-543.7"/>
<text text-anchor="start" x="150.3862" y="-549.8" font-family="Helvetica,sans-Serif" font-size="11.00" fill="#000000"> &#160;</text>
<polygon fill="#ffffff" stroke="transparent" points="159.5,-543.7 159.5,-562.7 209.5,-562.7 209.5,-543.7 159.5,-543.7"/>
<polygon fill="none" stroke="#000000" points="159.5,-543.7 159.5,-562.7 209.5,-562.7 209.5,-543.7 159.5,-543.7"/>
<text text-anchor="start" x="190.9053" y="-549.8" font-family="Helvetica,sans-Serif" font-size="11.00" fill="#000000">2 &gt;</text>
</a>
</g>
</g>
<!-- authorisation&#45;&gt;absence_sub_type -->
<g id="edge3" class="edge">
<title>authorisation:w&#45;&gt;absence_sub_type:e</title>
<path fill="none" stroke="#000000" d="M284.2138,-629.5646C251.5529,-618.8762 251.8008,-571.7 209.5,-571.7"/>
<polygon fill="#000000" stroke="#000000" points="290.5879,-630.5173 297.9678,-635.2604 294.544,-631.1086 298.5,-631.7 298.5,-631.7 298.5,-631.7 294.544,-631.1086 299.0322,-628.1396 290.5879,-630.5173 290.5879,-630.5173"/>
<ellipse fill="none" stroke="#000000" cx="287.4231" cy="-630.0442" rx="3.2" ry="3.2"/>
</g>
<!-- absence_type -->
<g id="node5" class="node">
<title>absence_type</title>
<g id="a_node5"><a xlink:href="../../tables/absence_type.html" xlink:title="absence_type" target="_top">
<polygon fill="#ffffff" stroke="transparent" points="63,-626.2 63,-687.2 194,-687.2 194,-626.2 63,-626.2"/>
<polygon fill="#f5f5f5" stroke="transparent" points="63.5,-663.7 63.5,-686.7 194.5,-686.7 194.5,-663.7 63.5,-663.7"/>
<polygon fill="none" stroke="#000000" points="63.5,-663.7 63.5,-686.7 194.5,-686.7 194.5,-663.7 63.5,-663.7"/>
<text text-anchor="start" x="68.5" y="-672.3" font-family="Helvetica,sans-Serif" font-weight="bold" font-size="11.00" fill="#000000">absence_type</text>
<text text-anchor="start" x="160.0219" y="-671.8" font-family="Helvetica,sans-Serif" font-size="11.00" fill="#000000">[table]</text>
<polygon fill="none" stroke="#000000" points="63.5,-644.7 63.5,-663.7 194.5,-663.7 194.5,-644.7 63.5,-644.7"/>
<text text-anchor="start" x="66.5" y="-650.8" font-family="Helvetica,sans-Serif" font-size="11.00" fill="#000000">...</text>
<polygon fill="#ffffff" stroke="transparent" points="63.5,-625.7 63.5,-644.7 118.5,-644.7 118.5,-625.7 63.5,-625.7"/>
<polygon fill="none" stroke="#000000" points="63.5,-625.7 63.5,-644.7 118.5,-644.7 118.5,-625.7 63.5,-625.7"/>
<text text-anchor="start" x="66.5" y="-631.8" font-family="Helvetica,sans-Serif" font-size="11.00" fill="#000000"> &#160;</text>
<polygon fill="#ffffff" stroke="transparent" points="118.5,-625.7 118.5,-644.7 151.5,-644.7 151.5,-625.7 118.5,-625.7"/>
<polygon fill="none" stroke="#000000" points="118.5,-625.7 118.5,-644.7 151.5,-644.7 151.5,-625.7 118.5,-625.7"/>
<text text-anchor="start" x="142.3862" y="-631.8" font-family="Helvetica,sans-Serif" font-size="11.00" fill="#000000"> &#160;</text>
<polygon fill="#ffffff" stroke="transparent" points="151.5,-625.7 151.5,-644.7 194.5,-644.7 194.5,-625.7 151.5,-625.7"/>
<polygon fill="none" stroke="#000000" points="151.5,-625.7 151.5,-644.7 194.5,-644.7 194.5,-625.7 151.5,-625.7"/>
<text text-anchor="start" x="175.9053" y="-631.8" font-family="Helvetica,sans-Serif" font-size="11.00" fill="#000000">2 &gt;</text>
</a>
</g>
</g>
<!-- authorisation&#45;&gt;absence_type -->
<g id="edge4" class="edge">
<title>authorisation:w&#45;&gt;absence_type:e</title>
<path fill="none" stroke="#000000" d="M284.0255,-653.7C249.2149,-653.7 235.4861,-653.7 194.5,-653.7"/>
<polygon fill="#000000" stroke="#000000" points="290.5,-653.7001 298.5,-657.3 294.5,-653.7 298.5,-653.7 298.5,-653.7 298.5,-653.7 294.5,-653.7 298.5,-650.1 290.5,-653.7001 290.5,-653.7001"/>
<ellipse fill="none" stroke="#000000" cx="287.3" cy="-653.7001" rx="3.2" ry="3.2"/>
</g>
<!-- accompanied_by -->
<g id="node6" class="node">
<title>accompanied_by</title>
<g id="a_node6"><a xlink:href="../../tables/accompanied_by.html" xlink:title="accompanied_by" target="_top">
<polygon fill="#ffffff" stroke="transparent" points="53.5,-38.2 53.5,-99.2 203.5,-99.2 203.5,-38.2 53.5,-38.2"/>
<polygon fill="#f5f5f5" stroke="transparent" points="53.5,-75.7 53.5,-98.7 203.5,-98.7 203.5,-75.7 53.5,-75.7"/>
<polygon fill="none" stroke="#000000" points="53.5,-75.7 53.5,-98.7 203.5,-98.7 203.5,-75.7 53.5,-75.7"/>
<text text-anchor="start" x="58.5" y="-84.3" font-family="Helvetica,sans-Serif" font-weight="bold" font-size="11.00" fill="#000000">accompanied_by</text>
<text text-anchor="start" x="169.0219" y="-83.8" font-family="Helvetica,sans-Serif" font-size="11.00" fill="#000000">[table]</text>
<polygon fill="none" stroke="#000000" points="53.5,-56.7 53.5,-75.7 203.5,-75.7 203.5,-56.7 53.5,-56.7"/>
<text text-anchor="start" x="56.5" y="-62.8" font-family="Helvetica,sans-Serif" font-size="11.00" fill="#000000">...</text>
<polygon fill="#ffffff" stroke="transparent" points="53.5,-37.7 53.5,-56.7 117.5,-56.7 117.5,-37.7 53.5,-37.7"/>
<polygon fill="none" stroke="#000000" points="53.5,-37.7 53.5,-56.7 117.5,-56.7 117.5,-37.7 53.5,-37.7"/>
<text text-anchor="start" x="56.5" y="-43.8" font-family="Helvetica,sans-Serif" font-size="11.00" fill="#000000"> &#160;</text>
<polygon fill="#ffffff" stroke="transparent" points="117.5,-37.7 117.5,-56.7 155.5,-56.7 155.5,-37.7 117.5,-37.7"/>
<polygon fill="none" stroke="#000000" points="117.5,-37.7 117.5,-56.7 155.5,-56.7 155.5,-37.7 117.5,-37.7"/>
<text text-anchor="start" x="146.3862" y="-43.8" font-family="Helvetica,sans-Serif" font-size="11.00" fill="#000000"> &#160;</text>
<polygon fill="#ffffff" stroke="transparent" points="155.5,-37.7 155.5,-56.7 203.5,-56.7 203.5,-37.7 155.5,-37.7"/>
<polygon fill="none" stroke="#000000" points="155.5,-37.7 155.5,-56.7 203.5,-56.7 203.5,-37.7 155.5,-37.7"/>
<text text-anchor="start" x="184.9053" y="-43.8" font-family="Helvetica,sans-Serif" font-size="11.00" fill="#000000">3 &gt;</text>
</a>
</g>
</g>
<!-- authorisation&#45;&gt;accompanied_by -->
<g id="edge5" class="edge">
<title>authorisation:w&#45;&gt;accompanied_by:e</title>
<path fill="none" stroke="#000000" d="M286.9374,-556.7023C253.0144,-496.2763 278.7016,-150.7173 257,-109.7 242.6024,-82.4877 234.2864,-65.7 203.5,-65.7"/>
<polygon fill="#000000" stroke="#000000" points="292.1864,-560.7869 296.2891,-568.5411 295.3432,-563.2434 298.5,-565.7 298.5,-565.7 298.5,-565.7 295.3432,-563.2434 300.7109,-562.8589 292.1864,-560.7869 292.1864,-560.7869"/>
<ellipse fill="none" stroke="#000000" cx="289.6609" cy="-558.8217" rx="3.2" ry="3.2"/>
</g>
<!-- public.person_summary -->
<g id="node7" class="node">
<title>public.person_summary</title>
<g id="a_node7"><a xlink:href="../../../public/tables/person_summary.html" xlink:title="public.person_summary" target="_top">
<polygon fill="#ffffff" stroke="transparent" points="29,-790.2 29,-851.2 228,-851.2 228,-790.2 29,-790.2"/>
<polygon fill="#f5f5f5" stroke="transparent" points="29.5,-827.7 29.5,-850.7 228.5,-850.7 228.5,-827.7 29.5,-827.7"/>
<polygon fill="none" stroke="#000000" points="29.5,-827.7 29.5,-850.7 228.5,-850.7 228.5,-827.7 29.5,-827.7"/>
<text text-anchor="start" x="34.5" y="-836.3" font-family="Helvetica,sans-Serif" font-weight="bold" font-size="11.00" fill="#000000">public.person_summary</text>
<text text-anchor="start" x="194.0219" y="-835.8" font-family="Helvetica,sans-Serif" font-size="11.00" fill="#000000">[table]</text>
<polygon fill="none" stroke="#000000" points="29.5,-808.7 29.5,-827.7 228.5,-827.7 228.5,-808.7 29.5,-808.7"/>
<text text-anchor="start" x="32.5" y="-814.8" font-family="Helvetica,sans-Serif" font-size="11.00" fill="#000000">...</text>
<polygon fill="#ffffff" stroke="transparent" points="29.5,-789.7 29.5,-808.7 105.5,-808.7 105.5,-789.7 29.5,-789.7"/>
<polygon fill="none" stroke="#000000" points="29.5,-789.7 29.5,-808.7 105.5,-808.7 105.5,-789.7 29.5,-789.7"/>
<text text-anchor="start" x="32.5" y="-795.8" font-family="Helvetica,sans-Serif" font-size="11.00" fill="#000000"> &#160;</text>
<polygon fill="#ffffff" stroke="transparent" points="105.5,-789.7 105.5,-808.7 175.5,-808.7 175.5,-789.7 105.5,-789.7"/>
<polygon fill="none" stroke="#000000" points="105.5,-789.7 105.5,-808.7 175.5,-808.7 175.5,-789.7 105.5,-789.7"/>
<text text-anchor="start" x="140.1105" y="-795.8" font-family="Helvetica,sans-Serif" font-size="11.00" fill="#000000">0 rows</text>
<polygon fill="#ffffff" stroke="transparent" points="175.5,-789.7 175.5,-808.7 228.5,-808.7 228.5,-789.7 175.5,-789.7"/>
<polygon fill="none" stroke="#000000" points="175.5,-789.7 175.5,-808.7 228.5,-808.7 228.5,-789.7 175.5,-789.7"/>
<text text-anchor="start" x="209.9053" y="-795.8" font-family="Helvetica,sans-Serif" font-size="11.00" fill="#000000">3 &gt;</text>
</a>
</g>
</g>
<!-- authorisation&#45;&gt;public.person_summary -->
<g id="edge6" class="edge">
<title>authorisation:w&#45;&gt;public.person_summary:e</title>
<path fill="none" stroke="#000000" d="M284.3743,-722.7404C251.7824,-739.2818 276.3803,-817.7 228.5,-817.7"/>
<polygon fill="#000000" stroke="#000000" points="290.6791,-721.3834 299.2575,-723.2194 294.5896,-720.5417 298.5,-719.7 298.5,-719.7 298.5,-719.7 294.5896,-720.5417 297.7425,-716.1806 290.6791,-721.3834 290.6791,-721.3834"/>
<ellipse fill="none" stroke="#000000" cx="287.5508" cy="-722.0568" rx="3.2" ry="3.2"/>
</g>
<!-- authorisation_status -->
<g id="node8" class="node">
<title>authorisation_status</title>
<g id="a_node8"><a xlink:href="../../tables/authorisation_status.html" xlink:title="authorisation_status" target="_top">
<polygon fill="#ffffff" stroke="transparent" points="39.5,-708.2 39.5,-769.2 217.5,-769.2 217.5,-708.2 39.5,-708.2"/>
<polygon fill="#f5f5f5" stroke="transparent" points="39.5,-745.7 39.5,-768.7 217.5,-768.7 217.5,-745.7 39.5,-745.7"/>
<polygon fill="none" stroke="#000000" points="39.5,-745.7 39.5,-768.7 217.5,-768.7 217.5,-745.7 39.5,-745.7"/>
<text text-anchor="start" x="44.5" y="-754.3" font-family="Helvetica,sans-Serif" font-weight="bold" font-size="11.00" fill="#000000">authorisation_status</text>
<text text-anchor="start" x="183.0219" y="-753.8" font-family="Helvetica,sans-Serif" font-size="11.00" fill="#000000">[table]</text>
<polygon fill="none" stroke="#000000" points="39.5,-726.7 39.5,-745.7 217.5,-745.7 217.5,-726.7 39.5,-726.7"/>
<text text-anchor="start" x="42.5" y="-732.8" font-family="Helvetica,sans-Serif" font-size="11.00" fill="#000000">...</text>
<polygon fill="#ffffff" stroke="transparent" points="39.5,-707.7 39.5,-726.7 117.5,-726.7 117.5,-707.7 39.5,-707.7"/>
<polygon fill="none" stroke="#000000" points="39.5,-707.7 39.5,-726.7 117.5,-726.7 117.5,-707.7 39.5,-707.7"/>
<text text-anchor="start" x="42.5" y="-713.8" font-family="Helvetica,sans-Serif" font-size="11.00" fill="#000000"> &#160;</text>
<polygon fill="#ffffff" stroke="transparent" points="117.5,-707.7 117.5,-726.7 162.5,-726.7 162.5,-707.7 117.5,-707.7"/>
<polygon fill="none" stroke="#000000" points="117.5,-707.7 117.5,-726.7 162.5,-726.7 162.5,-707.7 117.5,-707.7"/>
<text text-anchor="start" x="153.3862" y="-713.8" font-family="Helvetica,sans-Serif" font-size="11.00" fill="#000000"> &#160;</text>
<polygon fill="#ffffff" stroke="transparent" points="162.5,-707.7 162.5,-726.7 217.5,-726.7 217.5,-707.7 162.5,-707.7"/>
<polygon fill="none" stroke="#000000" points="162.5,-707.7 162.5,-726.7 217.5,-726.7 217.5,-707.7 162.5,-707.7"/>
<text text-anchor="start" x="198.9053" y="-713.8" font-family="Helvetica,sans-Serif" font-size="11.00" fill="#000000">1 &gt;</text>
</a>
</g>
</g>
<!-- authorisation&#45;&gt;authorisation_status -->
<g id="edge7" class="edge">
<title>authorisation:w&#45;&gt;authorisation_status:e</title>
<path fill="none" stroke="#000000" d="M283.9943,-678.2781C255.0152,-689.7625 256.7007,-735.7 217.5,-735.7"/>
<polygon fill="#000000" stroke="#000000" points="290.6234,-677.1 299.13,-679.2445 294.5617,-676.4 298.5,-675.7 298.5,-675.7 298.5,-675.7 294.5617,-676.4 297.87,-672.1555 290.6234,-677.1 290.6234,-677.1"/>
<ellipse fill="none" stroke="#000000" cx="287.4728" cy="-677.6599" rx="3.2" ry="3.2"/>
</g>
<!-- transport -->
<g id="node9" class="node">
<title>transport</title>
<g id="a_node9"><a xlink:href="../../tables/transport.html" xlink:title="transport" target="_top">
<polygon fill="#ffffff" stroke="transparent" points="77.5,-380.2 77.5,-441.2 179.5,-441.2 179.5,-380.2 77.5,-380.2"/>
<polygon fill="#f5f5f5" stroke="transparent" points="77.5,-417.7 77.5,-440.7 179.5,-440.7 179.5,-417.7 77.5,-417.7"/>
<polygon fill="none" stroke="#000000" points="77.5,-417.7 77.5,-440.7 179.5,-440.7 179.5,-417.7 77.5,-417.7"/>
<text text-anchor="start" x="82.5" y="-426.3" font-family="Helvetica,sans-Serif" font-weight="bold" font-size="11.00" fill="#000000">transport</text>
<text text-anchor="start" x="145.0219" y="-425.8" font-family="Helvetica,sans-Serif" font-size="11.00" fill="#000000">[table]</text>
<polygon fill="none" stroke="#000000" points="77.5,-398.7 77.5,-417.7 179.5,-417.7 179.5,-398.7 77.5,-398.7"/>
<text text-anchor="start" x="80.5" y="-404.8" font-family="Helvetica,sans-Serif" font-size="11.00" fill="#000000">...</text>
<polygon fill="#ffffff" stroke="transparent" points="77.5,-379.7 77.5,-398.7 117.5,-398.7 117.5,-379.7 77.5,-379.7"/>
<polygon fill="none" stroke="#000000" points="77.5,-379.7 77.5,-398.7 117.5,-398.7 117.5,-379.7 77.5,-379.7"/>
<text text-anchor="start" x="80.5" y="-385.8" font-family="Helvetica,sans-Serif" font-size="11.00" fill="#000000"> &#160;</text>
<polygon fill="#ffffff" stroke="transparent" points="117.5,-379.7 117.5,-398.7 143.5,-398.7 143.5,-379.7 117.5,-379.7"/>
<polygon fill="none" stroke="#000000" points="117.5,-379.7 117.5,-398.7 143.5,-398.7 143.5,-379.7 117.5,-379.7"/>
<text text-anchor="start" x="134.3862" y="-385.8" font-family="Helvetica,sans-Serif" font-size="11.00" fill="#000000"> &#160;</text>
<polygon fill="#ffffff" stroke="transparent" points="143.5,-379.7 143.5,-398.7 179.5,-398.7 179.5,-379.7 143.5,-379.7"/>
<polygon fill="none" stroke="#000000" points="143.5,-379.7 143.5,-398.7 179.5,-398.7 179.5,-379.7 143.5,-379.7"/>
<text text-anchor="start" x="160.9053" y="-385.8" font-family="Helvetica,sans-Serif" font-size="11.00" fill="#000000">2 &gt;</text>
</a>
</g>
</g>
<!-- authorisation&#45;&gt;transport -->
<g id="edge8" class="edge">
<title>authorisation:w&#45;&gt;transport:e</title>
<path fill="none" stroke="#000000" d="M284.1364,-540.6161C261.6312,-528.0892 283.0851,-480.3198 257,-451.7 230.3189,-422.4262 219.1086,-407.7 179.5,-407.7"/>
<polygon fill="#000000" stroke="#000000" points="290.6782,-542.0206 297.7443,-547.2198 294.5891,-542.8603 298.5,-543.7 298.5,-543.7 298.5,-543.7 294.5891,-542.8603 299.2557,-540.1802 290.6782,-542.0206 290.6782,-542.0206"/>
<ellipse fill="none" stroke="#000000" cx="287.5495" cy="-541.3489" rx="3.2" ry="3.2"/>
</g>
<!-- movement -->
<g id="node10" class="node">
<title>movement</title>
<g id="a_node10"><a xlink:href="../../tables/movement.html" xlink:title="movement" target="_top">
<polygon fill="#ffffff" stroke="transparent" points="560,-319.2 560,-380.2 670,-380.2 670,-319.2 560,-319.2"/>
<polygon fill="#f5f5f5" stroke="transparent" points="560,-356.7 560,-379.7 670,-379.7 670,-356.7 560,-356.7"/>
<polygon fill="none" stroke="#000000" points="560,-356.7 560,-379.7 670,-379.7 670,-356.7 560,-356.7"/>
<text text-anchor="start" x="565" y="-365.3" font-family="Helvetica,sans-Serif" font-weight="bold" font-size="11.00" fill="#000000">movement</text>
<text text-anchor="start" x="635.5219" y="-364.8" font-family="Helvetica,sans-Serif" font-size="11.00" fill="#000000">[table]</text>
<polygon fill="none" stroke="#000000" points="560,-337.7 560,-356.7 670,-356.7 670,-337.7 560,-337.7"/>
<text text-anchor="start" x="563" y="-343.8" font-family="Helvetica,sans-Serif" font-size="11.00" fill="#000000">...</text>
<polygon fill="#ffffff" stroke="transparent" points="560,-318.7 560,-337.7 613,-337.7 613,-318.7 560,-318.7"/>
<polygon fill="none" stroke="#000000" points="560,-318.7 560,-337.7 613,-337.7 613,-318.7 560,-318.7"/>
<text text-anchor="start" x="563" y="-324.8" font-family="Helvetica,sans-Serif" font-size="11.00" fill="#000000">&lt; 4</text>
<polygon fill="#ffffff" stroke="transparent" points="613,-318.7 613,-337.7 641,-337.7 641,-318.7 613,-318.7"/>
<polygon fill="none" stroke="#000000" points="613,-318.7 613,-337.7 641,-337.7 641,-318.7 613,-318.7"/>
<text text-anchor="start" x="631.8862" y="-324.8" font-family="Helvetica,sans-Serif" font-size="11.00" fill="#000000"> &#160;</text>
<polygon fill="#ffffff" stroke="transparent" points="641,-318.7 641,-337.7 670,-337.7 670,-318.7 641,-318.7"/>
<polygon fill="none" stroke="#000000" points="641,-318.7 641,-337.7 670,-337.7 670,-318.7 641,-318.7"/>
<text text-anchor="start" x="660.8862" y="-324.8" font-family="Helvetica,sans-Serif" font-size="11.00" fill="#000000"> &#160;</text>
</a>
</g>
</g>
<!-- movement&#45;&gt;absence_reason -->
<g id="edge9" class="edge">
<title>movement:w&#45;&gt;absence_reason:e</title>
<path fill="none" stroke="#000000" d="M537.3715,-338.6286C531.1627,-337.9138 524.9815,-337.2582 519,-336.7 398.6958,-325.4722 368.327,-322.7 247.5,-322.7"/>
<polygon fill="#000000" stroke="#000000" points="543.8861,-339.4206 551.3931,-343.9599 547.8568,-339.9034 551.8276,-340.3862 551.8276,-340.3862 551.8276,-340.3862 547.8568,-339.9034 552.2621,-336.8125 543.8861,-339.4206 543.8861,-339.4206"/>
<ellipse fill="none" stroke="#000000" cx="540.7095" cy="-339.0344" rx="3.2" ry="3.2"/>
</g>
<!-- movement&#45;&gt;accompanied_by -->
<g id="edge10" class="edge">
<title>movement:w&#45;&gt;accompanied_by:e</title>
<path fill="none" stroke="#000000" d="M580.4168,-303.4031C515.9414,-222.9177 368.8365,-65.7 203.5,-65.7"/>
<polygon fill="#000000" stroke="#000000" points="584.7319,-308.8772 586.8571,-317.3886 587.2081,-312.0186 589.6844,-315.16 589.6844,-315.16 589.6844,-315.16 587.2081,-312.0186 592.5116,-312.9313 584.7319,-308.8772 584.7319,-308.8772"/>
<ellipse fill="none" stroke="#000000" cx="582.7509" cy="-306.3641" rx="3.2" ry="3.2"/>
</g>
<!-- movement&#45;&gt;public.person_summary -->
<g id="edge12" class="edge">
<title>movement:w&#45;&gt;public.person_summary:e</title>
<path fill="none" stroke="#000000" d="M611.277,-398.856C602.396,-501.9251 576.2957,-735.3806 519,-786.7 422.2808,-873.3308 358.3442,-817.7 228.5,-817.7"/>
<polygon fill="#000000" stroke="#000000" points="611.8223,-392.3163 616.0748,-384.6432 612.1548,-388.3302 612.4872,-384.344 612.4872,-384.344 612.4872,-384.344 612.1548,-388.3302 608.8997,-384.0448 611.8223,-392.3163 611.8223,-392.3163"/>
<ellipse fill="none" stroke="#000000" cx="611.5563" cy="-395.5053" rx="3.2" ry="3.2"/>
</g>
<!-- occurrence -->
<g id="node11" class="node">
<title>occurrence</title>
<g id="a_node11"><a xlink:href="../../tables/occurrence.html" xlink:title="occurrence" target="_top">
<polygon fill="#ffffff" stroke="transparent" points="348,-347.2 348,-408.2 461,-408.2 461,-347.2 348,-347.2"/>
<polygon fill="#f5f5f5" stroke="transparent" points="348.5,-384.7 348.5,-407.7 461.5,-407.7 461.5,-384.7 348.5,-384.7"/>
<polygon fill="none" stroke="#000000" points="348.5,-384.7 348.5,-407.7 461.5,-407.7 461.5,-384.7 348.5,-384.7"/>
<text text-anchor="start" x="353.5" y="-393.3" font-family="Helvetica,sans-Serif" font-weight="bold" font-size="11.00" fill="#000000">occurrence</text>
<text text-anchor="start" x="427.0219" y="-392.8" font-family="Helvetica,sans-Serif" font-size="11.00" fill="#000000">[table]</text>
<polygon fill="none" stroke="#000000" points="348.5,-365.7 348.5,-384.7 461.5,-384.7 461.5,-365.7 348.5,-365.7"/>
<text text-anchor="start" x="351.5" y="-371.8" font-family="Helvetica,sans-Serif" font-size="11.00" fill="#000000">...</text>
<polygon fill="#ffffff" stroke="transparent" points="348.5,-346.7 348.5,-365.7 398.5,-365.7 398.5,-346.7 348.5,-346.7"/>
<polygon fill="none" stroke="#000000" points="348.5,-346.7 348.5,-365.7 398.5,-365.7 398.5,-346.7 348.5,-346.7"/>
<text text-anchor="start" x="351.5" y="-352.8" font-family="Helvetica,sans-Serif" font-size="11.00" fill="#000000">&lt; 8</text>
<polygon fill="#ffffff" stroke="transparent" points="398.5,-346.7 398.5,-365.7 425.5,-365.7 425.5,-346.7 398.5,-346.7"/>
<polygon fill="none" stroke="#000000" points="398.5,-346.7 398.5,-365.7 425.5,-365.7 425.5,-346.7 398.5,-346.7"/>
<text text-anchor="start" x="416.3862" y="-352.8" font-family="Helvetica,sans-Serif" font-size="11.00" fill="#000000"> &#160;</text>
<polygon fill="#ffffff" stroke="transparent" points="425.5,-346.7 425.5,-365.7 461.5,-365.7 461.5,-346.7 425.5,-346.7"/>
<polygon fill="none" stroke="#000000" points="425.5,-346.7 425.5,-365.7 461.5,-365.7 461.5,-346.7 425.5,-346.7"/>
<text text-anchor="start" x="442.9053" y="-352.8" font-family="Helvetica,sans-Serif" font-size="11.00" fill="#000000">1 &gt;</text>
</a>
</g>
</g>
<!-- movement&#45;&gt;occurrence -->
<g id="edge11" class="edge">
<title>movement:w&#45;&gt;occurrence:e</title>
<path fill="none" stroke="#000000" d="M537.3873,-360.0238C514.9214,-363.0121 490.6474,-366.241 469.0696,-369.1112"/>
<polygon fill="#000000" stroke="#000000" points="543.9129,-359.1558 552.3178,-361.6695 547.878,-358.6284 551.8431,-358.1009 551.8431,-358.1009 551.8431,-358.1009 547.878,-358.6284 551.3684,-354.5324 543.9129,-359.1558 543.9129,-359.1558"/>
<ellipse fill="none" stroke="#000000" cx="540.7408" cy="-359.5778" rx="3.2" ry="3.2"/>
</g>
<!-- occurrence&#45;&gt;absence_reason_category -->
<g id="edge13" class="edge">
<title>occurrence:w&#45;&gt;absence_reason_category:e</title>
<path fill="none" stroke="#000000" d="M326.09,-399.0598C313.3994,-404.3652 300.8725,-410.8459 290,-418.7 257.5327,-442.1536 274.5524,-489.7 234.5,-489.7"/>
<polygon fill="#000000" stroke="#000000" points="332.3898,-396.6318 341.1492,-397.114 336.1222,-395.1933 339.8545,-393.7548 339.8545,-393.7548 339.8545,-393.7548 336.1222,-395.1933 338.5599,-390.3957 332.3898,-396.6318 332.3898,-396.6318"/>
<ellipse fill="none" stroke="#000000" cx="329.4038" cy="-397.7826" rx="3.2" ry="3.2"/>
</g>
<!-- occurrence&#45;&gt;absence_reason -->
<g id="edge14" class="edge">
<title>occurrence:w&#45;&gt;absence_reason:e</title>
<path fill="none" stroke="#000000" d="M326.0405,-347.6453C291.2394,-334.7976 256.1688,-322.7 247.5,-322.7"/>
<polygon fill="#000000" stroke="#000000" points="332.3251,-349.9843 338.5669,-356.1487 336.0739,-351.3795 339.8227,-352.7748 339.8227,-352.7748 339.8227,-352.7748 336.0739,-351.3795 341.0784,-349.4009 332.3251,-349.9843 332.3251,-349.9843"/>
<ellipse fill="none" stroke="#000000" cx="329.3261" cy="-348.8681" rx="3.2" ry="3.2"/>
</g>
<!-- occurrence&#45;&gt;absence_sub_type -->
<g id="edge15" class="edge">
<title>occurrence:w&#45;&gt;absence_sub_type:e</title>
<path fill="none" stroke="#000000" d="M326.2007,-394.4523C312.7358,-400.2801 299.9106,-408.1296 290,-418.7 253.6305,-457.4907 286.4844,-489.4493 257,-533.7 242.0091,-556.1986 236.5354,-571.7 209.5,-571.7"/>
<polygon fill="#000000" stroke="#000000" points="332.3189,-392.1211 341.0765,-392.6366 336.0568,-390.6968 339.7946,-389.2725 339.7946,-389.2725 339.7946,-389.2725 336.0568,-390.6968 338.5128,-385.9085 332.3189,-392.1211 332.3189,-392.1211"/>
<ellipse fill="none" stroke="#000000" cx="329.3286" cy="-393.2605" rx="3.2" ry="3.2"/>
</g>
<!-- occurrence&#45;&gt;absence_type -->
<g id="edge16" class="edge">
<title>occurrence:w&#45;&gt;absence_type:e</title>
<path fill="none" stroke="#000000" d="M326.09,-393.1922C312.3847,-399.1295 299.4984,-407.3416 290,-418.7 233.0502,-486.8014 306.7773,-542.1928 257,-615.7 238.7718,-642.6179 227.0091,-653.7 194.5,-653.7"/>
<polygon fill="#000000" stroke="#000000" points="332.4835,-390.7924 341.2384,-391.3514 336.2284,-389.3867 339.9732,-387.981 339.9732,-387.981 339.9732,-387.981 336.2284,-389.3867 338.7081,-384.6106 332.4835,-390.7924 332.4835,-390.7924"/>
<ellipse fill="none" stroke="#000000" cx="329.4876" cy="-391.917" rx="3.2" ry="3.2"/>
</g>
<!-- occurrence&#45;&gt;accompanied_by -->
<g id="edge17" class="edge">
<title>occurrence:w&#45;&gt;accompanied_by:e</title>
<path fill="none" stroke="#000000" d="M372.8176,-330.7771C348.4992,-293.676 314.9692,-240.0819 290,-190.7 272.4593,-156.0095 280.0493,-141.0024 257,-109.7 238.7456,-84.9093 234.2864,-65.7 203.5,-65.7"/>
<polygon fill="#000000" stroke="#000000" points="376.598,-336.5025 378.0018,-345.1621 378.802,-339.8405 381.006,-343.1785 381.006,-343.1785 381.006,-343.1785 378.802,-339.8405 384.0102,-341.1948 376.598,-336.5025 376.598,-336.5025"/>
<ellipse fill="none" stroke="#000000" cx="374.8347" cy="-333.8321" rx="3.2" ry="3.2"/>
</g>
<!-- occurrence&#45;&gt;public.person_summary -->
<g id="edge18" class="edge">
<title>occurrence:w&#45;&gt;public.person_summary:e</title>
<path fill="none" stroke="#000000" d="M326.278,-392.2654C312.2985,-398.2715 299.2595,-406.7459 290,-418.7 235.0623,-489.6253 318.2137,-817.7 228.5,-817.7"/>
<polygon fill="#000000" stroke="#000000" points="332.3743,-390.0081 341.1266,-390.6062 336.1254,-388.6191 339.8765,-387.2302 339.8765,-387.2302 339.8765,-387.2302 336.1254,-388.6191 338.6265,-383.8542 332.3743,-390.0081 332.3743,-390.0081"/>
<ellipse fill="none" stroke="#000000" cx="329.3734" cy="-391.1193" rx="3.2" ry="3.2"/>
</g>
<!-- occurrence&#45;&gt;transport -->
<g id="edge20" class="edge">
<title>occurrence:w&#45;&gt;transport:e</title>
<path fill="none" stroke="#000000" d="M325.4073,-393.453C282.4327,-400.6938 228.2538,-407.7 179.5,-407.7"/>
<polygon fill="#000000" stroke="#000000" points="331.9385,-392.3169 340.4372,-394.4925 335.8793,-391.6313 339.8202,-390.9458 339.8202,-390.9458 339.8202,-390.9458 335.8793,-391.6313 339.2032,-387.399 331.9385,-392.3169 331.9385,-392.3169"/>
<ellipse fill="none" stroke="#000000" cx="328.7859" cy="-392.8653" rx="3.2" ry="3.2"/>
</g>
<!-- occurrence_status -->
<g id="node12" class="node">
<title>occurrence_status</title>
<g id="a_node12"><a xlink:href="../../tables/occurrence_status.html" xlink:title="occurrence_status" target="_top">
<polygon fill="#ffffff" stroke="transparent" points="47.5,-120.2 47.5,-181.2 209.5,-181.2 209.5,-120.2 47.5,-120.2"/>
<polygon fill="#f5f5f5" stroke="transparent" points="47.5,-157.7 47.5,-180.7 209.5,-180.7 209.5,-157.7 47.5,-157.7"/>
<polygon fill="none" stroke="#000000" points="47.5,-157.7 47.5,-180.7 209.5,-180.7 209.5,-157.7 47.5,-157.7"/>
<text text-anchor="start" x="52.5" y="-166.3" font-family="Helvetica,sans-Serif" font-weight="bold" font-size="11.00" fill="#000000">occurrence_status</text>
<text text-anchor="start" x="175.0219" y="-165.8" font-family="Helvetica,sans-Serif" font-size="11.00" fill="#000000">[table]</text>
<polygon fill="none" stroke="#000000" points="47.5,-138.7 47.5,-157.7 209.5,-157.7 209.5,-138.7 47.5,-138.7"/>
<text text-anchor="start" x="50.5" y="-144.8" font-family="Helvetica,sans-Serif" font-size="11.00" fill="#000000">...</text>
<polygon fill="#ffffff" stroke="transparent" points="47.5,-119.7 47.5,-138.7 117.5,-138.7 117.5,-119.7 47.5,-119.7"/>
<polygon fill="none" stroke="#000000" points="47.5,-119.7 47.5,-138.7 117.5,-138.7 117.5,-119.7 47.5,-119.7"/>
<text text-anchor="start" x="50.5" y="-125.8" font-family="Helvetica,sans-Serif" font-size="11.00" fill="#000000"> &#160;</text>
<polygon fill="#ffffff" stroke="transparent" points="117.5,-119.7 117.5,-138.7 158.5,-138.7 158.5,-119.7 117.5,-119.7"/>
<polygon fill="none" stroke="#000000" points="117.5,-119.7 117.5,-138.7 158.5,-138.7 158.5,-119.7 117.5,-119.7"/>
<text text-anchor="start" x="149.3862" y="-125.8" font-family="Helvetica,sans-Serif" font-size="11.00" fill="#000000"> &#160;</text>
<polygon fill="#ffffff" stroke="transparent" points="158.5,-119.7 158.5,-138.7 209.5,-138.7 209.5,-119.7 158.5,-119.7"/>
<polygon fill="none" stroke="#000000" points="158.5,-119.7 158.5,-138.7 209.5,-138.7 209.5,-119.7 158.5,-119.7"/>
<text text-anchor="start" x="190.9053" y="-125.8" font-family="Helvetica,sans-Serif" font-size="11.00" fill="#000000">1 &gt;</text>
</a>
</g>
</g>
<!-- occurrence&#45;&gt;occurrence_status -->
<g id="edge19" class="edge">
<title>occurrence:w&#45;&gt;occurrence_status:e</title>
<path fill="none" stroke="#000000" d="M376.5113,-330.3945C335.0098,-263.0753 256.9593,-147.7 209.5,-147.7"/>
<polygon fill="#000000" stroke="#000000" points="379.8948,-335.9391 380.9891,-344.6432 381.9785,-339.3535 384.0621,-342.768 384.0621,-342.768 384.0621,-342.768 381.9785,-339.3535 387.1351,-340.8927 379.8948,-335.9391 379.8948,-335.9391"/>
<ellipse fill="none" stroke="#000000" cx="378.2279" cy="-333.2075" rx="3.2" ry="3.2"/>
</g>
</g>
</svg>
