<?xml version="1.0" encoding="UTF-8" standalone="no"?>
<!DOCTYPE svg PUBLIC "-//W3C//DTD SVG 1.1//EN"
 "http://www.w3.org/Graphics/SVG/1.1/DTD/svg11.dtd">
<!-- Generated by graphviz version 2.40.1 (20161225.0304)
 -->
<!-- Title: oneDegreeRelationshipsDiagram Pages: 1 -->
<svg width="530pt" height="809pt"
 viewBox="0.00 0.00 530.00 809.20" xmlns="http://www.w3.org/2000/svg" xmlns:xlink="http://www.w3.org/1999/xlink">
<g id="graph0" class="graph" transform="scale(1 1) rotate(0) translate(4 805.2)">
<title>oneDegreeRelationshipsDiagram</title>
<polygon fill="#ffffff" stroke="transparent" points="-4,4 -4,-805.2 526,-805.2 526,4 -4,4"/>
<text text-anchor="middle" x="72.4936" y="-7.3" font-family="Helvetica,sans-Serif" font-size="11.00" fill="#000000">Generated by SchemaSpy</text>
<!-- authorisation -->
<g id="node1" class="node">
<title>authorisation</title>
<g id="a_node1"><a xlink:href="../../tables/authorisation.html" xlink:title="authorisation" target="_top">
<polygon fill="#ffffff" stroke="transparent" points="301,-450.2 301,-797.2 514,-797.2 514,-450.2 301,-450.2"/>
<polygon fill="#f5f5f5" stroke="transparent" points="301.5,-773.7 301.5,-796.7 514.5,-796.7 514.5,-773.7 301.5,-773.7"/>
<polygon fill="none" stroke="#000000" points="301.5,-773.7 301.5,-796.7 514.5,-796.7 514.5,-773.7 301.5,-773.7"/>
<text text-anchor="start" x="306.5" y="-782.3" font-family="Helvetica,sans-Serif" font-weight="bold" font-size="11.00" fill="#000000">authorisation</text>
<text text-anchor="start" x="479.5437" y="-781.8" font-family="Helvetica,sans-Serif" font-size="11.00" fill="#000000">[table]</text>
<polygon fill="none" stroke="#000000" points="301.5,-751.7 301.5,-773.7 514.5,-773.7 514.5,-751.7 301.5,-751.7"/>
<image xlink:href="../../images/primaryKeys.png" width="11px" height="12px" preserveAspectRatio="xMinYMin meet" x="306.5" y="-768.7"/>
<text text-anchor="start" x="321.5" y="-758.8" font-family="Helvetica,sans-Serif" font-size="11.00" fill="#000000">id</text>
<polygon fill="#ffffff" stroke="transparent" points="301.5,-729.7 301.5,-751.7 514.5,-751.7 514.5,-729.7 301.5,-729.7"/>
<polygon fill="none" stroke="#000000" points="301.5,-729.7 301.5,-751.7 514.5,-751.7 514.5,-729.7 301.5,-729.7"/>
<image xlink:href="../../images/foreignKeys.png" width="11px" height="12px" preserveAspectRatio="xMinYMin meet" x="306.5" y="-746.7"/>
<text text-anchor="start" x="321.5" y="-736.8" font-family="Helvetica,sans-Serif" font-size="11.00" fill="#000000">person_identifier</text>
<polygon fill="#ffffff" stroke="transparent" points="301.5,-707.7 301.5,-729.7 514.5,-729.7 514.5,-707.7 301.5,-707.7"/>
<polygon fill="none" stroke="#000000" points="301.5,-707.7 301.5,-729.7 514.5,-729.7 514.5,-707.7 301.5,-707.7"/>
<text text-anchor="start" x="321.5" y="-714.8" font-family="Helvetica,sans-Serif" font-size="11.00" fill="#000000">prison_code</text>
<polygon fill="#ffffff" stroke="transparent" points="301.5,-685.7 301.5,-707.7 514.5,-707.7 514.5,-685.7 301.5,-685.7"/>
<polygon fill="none" stroke="#000000" points="301.5,-685.7 301.5,-707.7 514.5,-707.7 514.5,-685.7 301.5,-685.7"/>
<image xlink:href="../../images/foreignKeys.png" width="11px" height="12px" preserveAspectRatio="xMinYMin meet" x="306.5" y="-702.7"/>
<text text-anchor="start" x="321.5" y="-692.8" font-family="Helvetica,sans-Serif" font-size="11.00" fill="#000000">status_id</text>
<polygon fill="none" stroke="#000000" points="301.5,-663.7 301.5,-685.7 514.5,-685.7 514.5,-663.7 301.5,-663.7"/>
<image xlink:href="../../images/foreignKeys.png" width="11px" height="12px" preserveAspectRatio="xMinYMin meet" x="306.5" y="-680.7"/>
<text text-anchor="start" x="321.5" y="-670.8" font-family="Helvetica,sans-Serif" font-size="11.00" fill="#000000">absence_type_id</text>
<polygon fill="none" stroke="#000000" points="301.5,-641.7 301.5,-663.7 514.5,-663.7 514.5,-641.7 301.5,-641.7"/>
<image xlink:href="../../images/foreignKeys.png" width="11px" height="12px" preserveAspectRatio="xMinYMin meet" x="306.5" y="-658.7"/>
<text text-anchor="start" x="321.5" y="-648.8" font-family="Helvetica,sans-Serif" font-size="11.00" fill="#000000">absence_sub_type_id</text>
<polygon fill="none" stroke="#000000" points="301.5,-619.7 301.5,-641.7 514.5,-641.7 514.5,-619.7 301.5,-619.7"/>
<image xlink:href="../../images/foreignKeys.png" width="11px" height="12px" preserveAspectRatio="xMinYMin meet" x="306.5" y="-636.7"/>
<text text-anchor="start" x="321.5" y="-626.8" font-family="Helvetica,sans-Serif" font-size="11.00" fill="#000000">absence_reason_category_id</text>
<polygon fill="none" stroke="#000000" points="301.5,-597.7 301.5,-619.7 514.5,-619.7 514.5,-597.7 301.5,-597.7"/>
<image xlink:href="../../images/foreignKeys.png" width="11px" height="12px" preserveAspectRatio="xMinYMin meet" x="306.5" y="-614.7"/>
<text text-anchor="start" x="321.5" y="-604.8" font-family="Helvetica,sans-Serif" font-size="11.00" fill="#000000">absence_reason_id</text>
<polygon fill="none" stroke="#000000" points="301.5,-575.7 301.5,-597.7 514.5,-597.7 514.5,-575.7 301.5,-575.7"/>
<image xlink:href="../../images/foreignKeys.png" width="11px" height="12px" preserveAspectRatio="xMinYMin meet" x="306.5" y="-592.7"/>
<text text-anchor="start" x="321.5" y="-582.8" font-family="Helvetica,sans-Serif" font-size="11.00" fill="#000000">accompanied_by_id</text>
<polygon fill="none" stroke="#000000" points="301.5,-553.7 301.5,-575.7 514.5,-575.7 514.5,-553.7 301.5,-553.7"/>
<image xlink:href="../../images/foreignKeys.png" width="11px" height="12px" preserveAspectRatio="xMinYMin meet" x="306.5" y="-570.7"/>
<text text-anchor="start" x="321.5" y="-560.8" font-family="Helvetica,sans-Serif" font-size="11.00" fill="#000000">transport_id</text>
<polygon fill="#ffffff" stroke="transparent" points="301.5,-531.7 301.5,-553.7 514.5,-553.7 514.5,-531.7 301.5,-531.7"/>
<polygon fill="none" stroke="#000000" points="301.5,-531.7 301.5,-553.7 514.5,-553.7 514.5,-531.7 301.5,-531.7"/>
<text text-anchor="start" x="321.5" y="-538.8" font-family="Helvetica,sans-Serif" font-size="11.00" fill="#000000">start</text>
<polygon fill="#ffffff" stroke="transparent" points="301.5,-509.7 301.5,-531.7 514.5,-531.7 514.5,-509.7 301.5,-509.7"/>
<polygon fill="none" stroke="#000000" points="301.5,-509.7 301.5,-531.7 514.5,-531.7 514.5,-509.7 301.5,-509.7"/>
<text text-anchor="start" x="321.5" y="-516.8" font-family="Helvetica,sans-Serif" font-size="11.00" fill="#000000">end</text>
<polygon fill="#ffffff" stroke="transparent" points="301.5,-487.7 301.5,-509.7 514.5,-509.7 514.5,-487.7 301.5,-487.7"/>
<polygon fill="none" stroke="#000000" points="301.5,-487.7 301.5,-509.7 514.5,-509.7 514.5,-487.7 301.5,-487.7"/>
<text text-anchor="start" x="321.5" y="-494.8" font-family="Helvetica,sans-Serif" font-size="11.00" fill="#000000">legacy_id</text>
<polygon fill="none" stroke="#000000" points="301.5,-468.7 301.5,-487.7 514.5,-487.7 514.5,-468.7 301.5,-468.7"/>
<text text-anchor="start" x="304.5" y="-474.8" font-family="Helvetica,sans-Serif" font-size="11.00" fill="#000000">...</text>
<polygon fill="#ffffff" stroke="transparent" points="301.5,-449.7 301.5,-468.7 406.5,-468.7 406.5,-449.7 301.5,-449.7"/>
<polygon fill="none" stroke="#000000" points="301.5,-449.7 301.5,-468.7 406.5,-468.7 406.5,-449.7 301.5,-449.7"/>
<text text-anchor="start" x="304.5" y="-455.8" font-family="Helvetica,sans-Serif" font-size="11.00" fill="#000000">&lt; 8</text>
<polygon fill="#ffffff" stroke="transparent" points="406.5,-449.7 406.5,-468.7 460.5,-468.7 460.5,-449.7 406.5,-449.7"/>
<polygon fill="none" stroke="#000000" points="406.5,-449.7 406.5,-468.7 460.5,-468.7 460.5,-449.7 406.5,-449.7"/>
<text text-anchor="start" x="451.3862" y="-455.8" font-family="Helvetica,sans-Serif" font-size="11.00" fill="#000000"> &#160;</text>
<polygon fill="#ffffff" stroke="transparent" points="460.5,-449.7 460.5,-468.7 514.5,-468.7 514.5,-449.7 460.5,-449.7"/>
<polygon fill="none" stroke="#000000" points="460.5,-449.7 460.5,-468.7 514.5,-468.7 514.5,-449.7 460.5,-449.7"/>
<text text-anchor="start" x="505.3862" y="-455.8" font-family="Helvetica,sans-Serif" font-size="11.00" fill="#000000"> &#160;</text>
</a>
</g>
</g>
<!-- absence_sub_type -->
<g id="node2" class="node">
<title>absence_sub_type</title>
<g id="a_node2"><a xlink:href="../../tables/absence_sub_type.html" xlink:title="absence_sub_type" target="_top">
<polygon fill="#ffffff" stroke="transparent" points="8,-271.7 8,-493.7 252,-493.7 252,-271.7 8,-271.7"/>
<polygon fill="#f5f5f5" stroke="transparent" points="10,-468.7 10,-491.7 250,-491.7 250,-468.7 10,-468.7"/>
<polygon fill="none" stroke="#000000" points="10,-468.7 10,-491.7 250,-491.7 250,-468.7 10,-468.7"/>
<text text-anchor="start" x="15" y="-477.3" font-family="Helvetica,sans-Serif" font-weight="bold" font-size="11.00" fill="#000000">absence_sub_type</text>
<text text-anchor="start" x="215.0437" y="-476.8" font-family="Helvetica,sans-Serif" font-size="11.00" fill="#000000">[table]</text>
<polygon fill="none" stroke="#000000" points="10,-446.7 10,-468.7 153,-468.7 153,-446.7 10,-446.7"/>
<image xlink:href="../../images/primaryKeys.png" width="11px" height="12px" preserveAspectRatio="xMinYMin meet" x="15" y="-463.7"/>
<text text-anchor="start" x="30" y="-453.8" font-family="Helvetica,sans-Serif" font-size="11.00" fill="#000000">id</text>
<polygon fill="none" stroke="#000000" points="153,-446.7 153,-468.7 250,-468.7 250,-446.7 153,-446.7"/>
<text text-anchor="start" x="156" y="-454.4" font-family="Helvetica,sans-Serif" font-size="11.00" fill="#000000">uuid[2147483647]</text>
<polygon fill="#ffffff" stroke="transparent" points="10,-424.7 10,-446.7 153,-446.7 153,-424.7 10,-424.7"/>
<polygon fill="none" stroke="#000000" points="10,-424.7 10,-446.7 153,-446.7 153,-424.7 10,-424.7"/>
<text text-anchor="start" x="30" y="-431.8" font-family="Helvetica,sans-Serif" font-size="11.00" fill="#000000">code</text>
<polygon fill="none" stroke="#000000" points="153,-424.7 153,-446.7 250,-446.7 250,-424.7 153,-424.7"/>
<text text-anchor="start" x="156" y="-432.4" font-family="Helvetica,sans-Serif" font-size="11.00" fill="#000000">varchar[16]</text>
<polygon fill="none" stroke="#000000" points="10,-402.7 10,-424.7 153,-424.7 153,-402.7 10,-402.7"/>
<text text-anchor="start" x="30" y="-409.8" font-family="Helvetica,sans-Serif" font-size="11.00" fill="#000000">description</text>
<polygon fill="none" stroke="#000000" points="153,-402.7 153,-424.7 250,-424.7 250,-402.7 153,-402.7"/>
<text text-anchor="start" x="156" y="-410.4" font-family="Helvetica,sans-Serif" font-size="11.00" fill="#000000">varchar[255]</text>
<polygon fill="#ffffff" stroke="transparent" points="10,-380.7 10,-402.7 153,-402.7 153,-380.7 10,-380.7"/>
<polygon fill="none" stroke="#000000" points="10,-380.7 10,-402.7 153,-402.7 153,-380.7 10,-380.7"/>
<text text-anchor="start" x="30" y="-387.8" font-family="Helvetica,sans-Serif" font-size="11.00" fill="#000000">sequence_number</text>
<polygon fill="none" stroke="#000000" points="153,-380.7 153,-402.7 250,-402.7 250,-380.7 153,-380.7"/>
<text text-anchor="start" x="156" y="-388.4" font-family="Helvetica,sans-Serif" font-size="11.00" fill="#000000">int4[10]</text>
<polygon fill="none" stroke="#000000" points="10,-358.7 10,-380.7 153,-380.7 153,-358.7 10,-358.7"/>
<text text-anchor="start" x="30" y="-365.8" font-family="Helvetica,sans-Serif" font-size="11.00" fill="#000000">active</text>
<polygon fill="none" stroke="#000000" points="153,-358.7 153,-380.7 250,-380.7 250,-358.7 153,-358.7"/>
<text text-anchor="start" x="156" y="-366.4" font-family="Helvetica,sans-Serif" font-size="11.00" fill="#000000">bool[1]</text>
<polygon fill="none" stroke="#000000" points="10,-336.7 10,-358.7 153,-358.7 153,-336.7 10,-336.7"/>
<text text-anchor="start" x="30" y="-343.8" font-family="Helvetica,sans-Serif" font-size="11.00" fill="#000000">next_domain</text>
<polygon fill="none" stroke="#000000" points="153,-336.7 153,-358.7 250,-358.7 250,-336.7 153,-336.7"/>
<text text-anchor="start" x="156" y="-344.4" font-family="Helvetica,sans-Serif" font-size="11.00" fill="#000000">varchar[32]</text>
<polygon fill="none" stroke="#000000" points="10,-314.7 10,-336.7 153,-336.7 153,-314.7 10,-314.7"/>
<text text-anchor="start" x="30" y="-321.8" font-family="Helvetica,sans-Serif" font-size="11.00" fill="#000000">hint_text</text>
<polygon fill="none" stroke="#000000" points="153,-314.7 153,-336.7 250,-336.7 250,-314.7 153,-314.7"/>
<text text-anchor="start" x="156" y="-322.4" font-family="Helvetica,sans-Serif" font-size="11.00" fill="#000000">varchar[255]</text>
<polygon fill="none" stroke="#000000" points="10,-292.7 10,-314.7 153,-314.7 153,-292.7 10,-292.7"/>
<text text-anchor="start" x="30" y="-299.8" font-family="Helvetica,sans-Serif" font-size="11.00" fill="#000000">groups</text>
<polygon fill="none" stroke="#000000" points="153,-292.7 153,-314.7 250,-314.7 250,-292.7 153,-292.7"/>
<text text-anchor="start" x="155.9468" y="-300.4" font-family="Helvetica,sans-Serif" font-size="11.00" fill="#000000">_text[2147483647]</text>
<polygon fill="#ffffff" stroke="transparent" points="10,-273.7 10,-292.7 86,-292.7 86,-273.7 10,-273.7"/>
<polygon fill="none" stroke="#000000" points="10,-273.7 10,-292.7 86,-292.7 86,-273.7 10,-273.7"/>
<text text-anchor="start" x="13" y="-279.8" font-family="Helvetica,sans-Serif" font-size="11.00" fill="#000000">&lt; 0</text>
<polygon fill="#ffffff" stroke="transparent" points="86,-273.7 86,-292.7 153,-292.7 153,-273.7 86,-273.7"/>
<polygon fill="none" stroke="#000000" points="86,-273.7 86,-292.7 153,-292.7 153,-273.7 86,-273.7"/>
<text text-anchor="start" x="143.8862" y="-279.8" font-family="Helvetica,sans-Serif" font-size="11.00" fill="#000000"> &#160;</text>
<polygon fill="#ffffff" stroke="transparent" points="153,-273.7 153,-292.7 250,-292.7 250,-273.7 153,-273.7"/>
<polygon fill="none" stroke="#000000" points="153,-273.7 153,-292.7 250,-292.7 250,-273.7 153,-273.7"/>
<text text-anchor="start" x="231.4053" y="-279.8" font-family="Helvetica,sans-Serif" font-size="11.00" fill="#000000">2 &gt;</text>
<polygon fill="none" stroke="#000000" stroke-width="2" points="9,-272.7 9,-492.7 251,-492.7 251,-272.7 9,-272.7"/>
</a>
</g>
</g>
<!-- authorisation&#45;&gt;absence_sub_type -->
<g id="edge1" class="edge">
<title>authorisation:w&#45;&gt;absence_sub_type:e</title>
<path fill="none" stroke="#000000" d="M287.1345,-650.5101C226.9846,-629.0867 334.0358,-457.7 250,-457.7"/>
<polygon fill="#000000" stroke="#000000" points="293.5914,-651.4943 300.9574,-656.2589 297.5457,-652.0972 301.5,-652.7 301.5,-652.7 301.5,-652.7 297.5457,-652.0972 302.0426,-649.1411 293.5914,-651.4943 293.5914,-651.4943"/>
<ellipse fill="none" stroke="#000000" cx="290.4279" cy="-651.0121" rx="3.2" ry="3.2"/>
</g>
<!-- occurrence -->
<g id="node3" class="node">
<title>occurrence</title>
<g id="a_node3"><a xlink:href="../../tables/occurrence.html" xlink:title="occurrence" target="_top">
<polygon fill="#ffffff" stroke="transparent" points="301,-38.2 301,-429.2 514,-429.2 514,-38.2 301,-38.2"/>
<polygon fill="#f5f5f5" stroke="transparent" points="301.5,-405.7 301.5,-428.7 514.5,-428.7 514.5,-405.7 301.5,-405.7"/>
<polygon fill="none" stroke="#000000" points="301.5,-405.7 301.5,-428.7 514.5,-428.7 514.5,-405.7 301.5,-405.7"/>
<text text-anchor="start" x="306.5" y="-414.3" font-family="Helvetica,sans-Serif" font-weight="bold" font-size="11.00" fill="#000000">occurrence</text>
<text text-anchor="start" x="479.5437" y="-413.8" font-family="Helvetica,sans-Serif" font-size="11.00" fill="#000000">[table]</text>
<polygon fill="none" stroke="#000000" points="301.5,-383.7 301.5,-405.7 514.5,-405.7 514.5,-383.7 301.5,-383.7"/>
<image xlink:href="../../images/primaryKeys.png" width="11px" height="12px" preserveAspectRatio="xMinYMin meet" x="306.5" y="-400.7"/>
<text text-anchor="start" x="321.5" y="-390.8" font-family="Helvetica,sans-Serif" font-size="11.00" fill="#000000">id</text>
<polygon fill="#ffffff" stroke="transparent" points="301.5,-361.7 301.5,-383.7 514.5,-383.7 514.5,-361.7 301.5,-361.7"/>
<polygon fill="none" stroke="#000000" points="301.5,-361.7 301.5,-383.7 514.5,-383.7 514.5,-361.7 301.5,-361.7"/>
<image xlink:href="../../images/foreignKeys.png" width="11px" height="12px" preserveAspectRatio="xMinYMin meet" x="306.5" y="-378.7"/>
<text text-anchor="start" x="321.5" y="-368.8" font-family="Helvetica,sans-Serif" font-size="11.00" fill="#000000">person_identifier</text>
<polygon fill="#ffffff" stroke="transparent" points="301.5,-339.7 301.5,-361.7 514.5,-361.7 514.5,-339.7 301.5,-339.7"/>
<polygon fill="none" stroke="#000000" points="301.5,-339.7 301.5,-361.7 514.5,-361.7 514.5,-339.7 301.5,-339.7"/>
<text text-anchor="start" x="321.5" y="-346.8" font-family="Helvetica,sans-Serif" font-size="11.00" fill="#000000">prison_code</text>
<polygon fill="#ffffff" stroke="transparent" points="301.5,-317.7 301.5,-339.7 514.5,-339.7 514.5,-317.7 301.5,-317.7"/>
<polygon fill="none" stroke="#000000" points="301.5,-317.7 301.5,-339.7 514.5,-339.7 514.5,-317.7 301.5,-317.7"/>
<text text-anchor="start" x="321.5" y="-324.8" font-family="Helvetica,sans-Serif" font-size="11.00" fill="#000000">authorisation_id</text>
<polygon fill="#ffffff" stroke="transparent" points="301.5,-295.7 301.5,-317.7 514.5,-317.7 514.5,-295.7 301.5,-295.7"/>
<polygon fill="none" stroke="#000000" points="301.5,-295.7 301.5,-317.7 514.5,-317.7 514.5,-295.7 301.5,-295.7"/>
<image xlink:href="../../images/foreignKeys.png" width="11px" height="12px" preserveAspectRatio="xMinYMin meet" x="306.5" y="-312.7"/>
<text text-anchor="start" x="321.5" y="-302.8" font-family="Helvetica,sans-Serif" font-size="11.00" fill="#000000">status_id</text>
<polygon fill="none" stroke="#000000" points="301.5,-273.7 301.5,-295.7 514.5,-295.7 514.5,-273.7 301.5,-273.7"/>
<image xlink:href="../../images/foreignKeys.png" width="11px" height="12px" preserveAspectRatio="xMinYMin meet" x="306.5" y="-290.7"/>
<text text-anchor="start" x="321.5" y="-280.8" font-family="Helvetica,sans-Serif" font-size="11.00" fill="#000000">absence_type_id</text>
<polygon fill="none" stroke="#000000" points="301.5,-251.7 301.5,-273.7 514.5,-273.7 514.5,-251.7 301.5,-251.7"/>
<image xlink:href="../../images/foreignKeys.png" width="11px" height="12px" preserveAspectRatio="xMinYMin meet" x="306.5" y="-268.7"/>
<text text-anchor="start" x="321.5" y="-258.8" font-family="Helvetica,sans-Serif" font-size="11.00" fill="#000000">absence_sub_type_id</text>
<polygon fill="none" stroke="#000000" points="301.5,-229.7 301.5,-251.7 514.5,-251.7 514.5,-229.7 301.5,-229.7"/>
<image xlink:href="../../images/foreignKeys.png" width="11px" height="12px" preserveAspectRatio="xMinYMin meet" x="306.5" y="-246.7"/>
<text text-anchor="start" x="321.5" y="-236.8" font-family="Helvetica,sans-Serif" font-size="11.00" fill="#000000">absence_reason_category_id</text>
<polygon fill="none" stroke="#000000" points="301.5,-207.7 301.5,-229.7 514.5,-229.7 514.5,-207.7 301.5,-207.7"/>
<image xlink:href="../../images/foreignKeys.png" width="11px" height="12px" preserveAspectRatio="xMinYMin meet" x="306.5" y="-224.7"/>
<text text-anchor="start" x="321.5" y="-214.8" font-family="Helvetica,sans-Serif" font-size="11.00" fill="#000000">absence_reason_id</text>
<polygon fill="none" stroke="#000000" points="301.5,-185.7 301.5,-207.7 514.5,-207.7 514.5,-185.7 301.5,-185.7"/>
<image xlink:href="../../images/foreignKeys.png" width="11px" height="12px" preserveAspectRatio="xMinYMin meet" x="306.5" y="-202.7"/>
<text text-anchor="start" x="321.5" y="-192.8" font-family="Helvetica,sans-Serif" font-size="11.00" fill="#000000">accompanied_by_id</text>
<polygon fill="none" stroke="#000000" points="301.5,-163.7 301.5,-185.7 514.5,-185.7 514.5,-163.7 301.5,-163.7"/>
<image xlink:href="../../images/foreignKeys.png" width="11px" height="12px" preserveAspectRatio="xMinYMin meet" x="306.5" y="-180.7"/>
<text text-anchor="start" x="321.5" y="-170.8" font-family="Helvetica,sans-Serif" font-size="11.00" fill="#000000">transport_id</text>
<polygon fill="#ffffff" stroke="transparent" points="301.5,-141.7 301.5,-163.7 514.5,-163.7 514.5,-141.7 301.5,-141.7"/>
<polygon fill="none" stroke="#000000" points="301.5,-141.7 301.5,-163.7 514.5,-163.7 514.5,-141.7 301.5,-141.7"/>
<text text-anchor="start" x="321.5" y="-148.8" font-family="Helvetica,sans-Serif" font-size="11.00" fill="#000000">start</text>
<polygon fill="#ffffff" stroke="transparent" points="301.5,-119.7 301.5,-141.7 514.5,-141.7 514.5,-119.7 301.5,-119.7"/>
<polygon fill="none" stroke="#000000" points="301.5,-119.7 301.5,-141.7 514.5,-141.7 514.5,-119.7 301.5,-119.7"/>
<text text-anchor="start" x="321.5" y="-126.8" font-family="Helvetica,sans-Serif" font-size="11.00" fill="#000000">end</text>
<polygon fill="#ffffff" stroke="transparent" points="301.5,-97.7 301.5,-119.7 514.5,-119.7 514.5,-97.7 301.5,-97.7"/>
<polygon fill="none" stroke="#000000" points="301.5,-97.7 301.5,-119.7 514.5,-119.7 514.5,-97.7 301.5,-97.7"/>
<text text-anchor="start" x="321.5" y="-104.8" font-family="Helvetica,sans-Serif" font-size="11.00" fill="#000000">legacy_id</text>
<polygon fill="#ffffff" stroke="transparent" points="301.5,-75.7 301.5,-97.7 514.5,-97.7 514.5,-75.7 301.5,-75.7"/>
<polygon fill="none" stroke="#000000" points="301.5,-75.7 301.5,-97.7 514.5,-97.7 514.5,-75.7 301.5,-75.7"/>
<text text-anchor="start" x="321.5" y="-82.8" font-family="Helvetica,sans-Serif" font-size="11.00" fill="#000000">dps_only</text>
<polygon fill="none" stroke="#000000" points="301.5,-56.7 301.5,-75.7 514.5,-75.7 514.5,-56.7 301.5,-56.7"/>
<text text-anchor="start" x="304.5" y="-62.8" font-family="Helvetica,sans-Serif" font-size="11.00" fill="#000000">...</text>
<polygon fill="#ffffff" stroke="transparent" points="301.5,-37.7 301.5,-56.7 401.5,-56.7 401.5,-37.7 301.5,-37.7"/>
<polygon fill="none" stroke="#000000" points="301.5,-37.7 301.5,-56.7 401.5,-56.7 401.5,-37.7 301.5,-37.7"/>
<text text-anchor="start" x="304.5" y="-43.8" font-family="Helvetica,sans-Serif" font-size="11.00" fill="#000000">&lt; 8</text>
<polygon fill="#ffffff" stroke="transparent" points="401.5,-37.7 401.5,-56.7 453.5,-56.7 453.5,-37.7 401.5,-37.7"/>
<polygon fill="none" stroke="#000000" points="401.5,-37.7 401.5,-56.7 453.5,-56.7 453.5,-37.7 401.5,-37.7"/>
<text text-anchor="start" x="444.3862" y="-43.8" font-family="Helvetica,sans-Serif" font-size="11.00" fill="#000000"> &#160;</text>
<polygon fill="#ffffff" stroke="transparent" points="453.5,-37.7 453.5,-56.7 514.5,-56.7 514.5,-37.7 453.5,-37.7"/>
<polygon fill="none" stroke="#000000" points="453.5,-37.7 453.5,-56.7 514.5,-56.7 514.5,-37.7 453.5,-37.7"/>
<text text-anchor="start" x="495.9053" y="-43.8" font-family="Helvetica,sans-Serif" font-size="11.00" fill="#000000">1 &gt;</text>
</a>
</g>
</g>
<!-- occurrence&#45;&gt;absence_sub_type -->
<g id="edge2" class="edge">
<title>occurrence:w&#45;&gt;absence_sub_type:e</title>
<path fill="none" stroke="#000000" d="M287.1345,-264.8899C226.9846,-286.3133 334.0358,-457.7 250,-457.7"/>
<polygon fill="#000000" stroke="#000000" points="293.5914,-263.9057 302.0426,-266.2589 297.5457,-263.3028 301.5,-262.7 301.5,-262.7 301.5,-262.7 297.5457,-263.3028 300.9574,-259.1411 293.5914,-263.9057 293.5914,-263.9057"/>
<ellipse fill="none" stroke="#000000" cx="290.4279" cy="-264.3879" rx="3.2" ry="3.2"/>
</g>
</g>
</svg>
