<?xml version="1.0" encoding="UTF-8" standalone="no"?>
<!DOCTYPE svg PUBLIC "-//W3C//DTD SVG 1.1//EN"
 "http://www.w3.org/Graphics/SVG/1.1/DTD/svg11.dtd">
<!-- Generated by graphviz version 2.40.1 (20161225.0304)
 -->
<!-- Title: twoDegreesRelationshipsDiagram Pages: 1 -->
<svg width="686pt" height="781pt"
 viewBox="0.00 0.00 686.00 781.20" xmlns="http://www.w3.org/2000/svg" xmlns:xlink="http://www.w3.org/1999/xlink">
<g id="graph0" class="graph" transform="scale(1 1) rotate(0) translate(4 777.2)">
<title>twoDegreesRelationshipsDiagram</title>
<polygon fill="#ffffff" stroke="transparent" points="-4,4 -4,-777.2 682,-777.2 682,4 -4,4"/>
<text text-anchor="middle" x="72.4936" y="-7.3" font-family="Helvetica,sans-Serif" font-size="11.00" fill="#000000">Generated by SchemaSpy</text>
<!-- authorisation -->
<g id="node1" class="node">
<title>authorisation</title>
<g id="a_node1"><a xlink:href="../../tables/authorisation.html" xlink:title="authorisation" target="_top">
<polygon fill="#ffffff" stroke="transparent" points="298,-272.2 298,-619.2 511,-619.2 511,-272.2 298,-272.2"/>
<polygon fill="#f5f5f5" stroke="transparent" points="298.5,-595.7 298.5,-618.7 511.5,-618.7 511.5,-595.7 298.5,-595.7"/>
<polygon fill="none" stroke="#000000" points="298.5,-595.7 298.5,-618.7 511.5,-618.7 511.5,-595.7 298.5,-595.7"/>
<text text-anchor="start" x="303.5" y="-604.3" font-family="Helvetica,sans-Serif" font-weight="bold" font-size="11.00" fill="#000000">authorisation</text>
<text text-anchor="start" x="476.5437" y="-603.8" font-family="Helvetica,sans-Serif" font-size="11.00" fill="#000000">[table]</text>
<polygon fill="none" stroke="#000000" points="298.5,-573.7 298.5,-595.7 511.5,-595.7 511.5,-573.7 298.5,-573.7"/>
<image xlink:href="../../images/primaryKeys.png" width="11px" height="12px" preserveAspectRatio="xMinYMin meet" x="303.5" y="-590.7"/>
<text text-anchor="start" x="318.5" y="-580.8" font-family="Helvetica,sans-Serif" font-size="11.00" fill="#000000">id</text>
<polygon fill="#ffffff" stroke="transparent" points="298.5,-551.7 298.5,-573.7 511.5,-573.7 511.5,-551.7 298.5,-551.7"/>
<polygon fill="none" stroke="#000000" points="298.5,-551.7 298.5,-573.7 511.5,-573.7 511.5,-551.7 298.5,-551.7"/>
<text text-anchor="start" x="318.5" y="-558.8" font-family="Helvetica,sans-Serif" font-size="11.00" fill="#000000">person_identifier</text>
<polygon fill="#ffffff" stroke="transparent" points="298.5,-529.7 298.5,-551.7 511.5,-551.7 511.5,-529.7 298.5,-529.7"/>
<polygon fill="none" stroke="#000000" points="298.5,-529.7 298.5,-551.7 511.5,-551.7 511.5,-529.7 298.5,-529.7"/>
<text text-anchor="start" x="318.5" y="-536.8" font-family="Helvetica,sans-Serif" font-size="11.00" fill="#000000">prison_code</text>
<polygon fill="#ffffff" stroke="transparent" points="298.5,-507.7 298.5,-529.7 511.5,-529.7 511.5,-507.7 298.5,-507.7"/>
<polygon fill="none" stroke="#000000" points="298.5,-507.7 298.5,-529.7 511.5,-529.7 511.5,-507.7 298.5,-507.7"/>
<image xlink:href="../../images/foreignKeys.png" width="11px" height="12px" preserveAspectRatio="xMinYMin meet" x="303.5" y="-524.7"/>
<text text-anchor="start" x="318.5" y="-514.8" font-family="Helvetica,sans-Serif" font-size="11.00" fill="#000000">status_id</text>
<polygon fill="none" stroke="#000000" points="298.5,-485.7 298.5,-507.7 511.5,-507.7 511.5,-485.7 298.5,-485.7"/>
<image xlink:href="../../images/foreignKeys.png" width="11px" height="12px" preserveAspectRatio="xMinYMin meet" x="303.5" y="-502.7"/>
<text text-anchor="start" x="318.5" y="-492.8" font-family="Helvetica,sans-Serif" font-size="11.00" fill="#000000">absence_type_id</text>
<polygon fill="none" stroke="#000000" points="298.5,-463.7 298.5,-485.7 511.5,-485.7 511.5,-463.7 298.5,-463.7"/>
<image xlink:href="../../images/foreignKeys.png" width="11px" height="12px" preserveAspectRatio="xMinYMin meet" x="303.5" y="-480.7"/>
<text text-anchor="start" x="318.5" y="-470.8" font-family="Helvetica,sans-Serif" font-size="11.00" fill="#000000">absence_sub_type_id</text>
<polygon fill="none" stroke="#000000" points="298.5,-441.7 298.5,-463.7 511.5,-463.7 511.5,-441.7 298.5,-441.7"/>
<image xlink:href="../../images/foreignKeys.png" width="11px" height="12px" preserveAspectRatio="xMinYMin meet" x="303.5" y="-458.7"/>
<text text-anchor="start" x="318.5" y="-448.8" font-family="Helvetica,sans-Serif" font-size="11.00" fill="#000000">absence_reason_category_id</text>
<polygon fill="none" stroke="#000000" points="298.5,-419.7 298.5,-441.7 511.5,-441.7 511.5,-419.7 298.5,-419.7"/>
<image xlink:href="../../images/foreignKeys.png" width="11px" height="12px" preserveAspectRatio="xMinYMin meet" x="303.5" y="-436.7"/>
<text text-anchor="start" x="318.5" y="-426.8" font-family="Helvetica,sans-Serif" font-size="11.00" fill="#000000">absence_reason_id</text>
<polygon fill="none" stroke="#000000" points="298.5,-397.7 298.5,-419.7 511.5,-419.7 511.5,-397.7 298.5,-397.7"/>
<image xlink:href="../../images/foreignKeys.png" width="11px" height="12px" preserveAspectRatio="xMinYMin meet" x="303.5" y="-414.7"/>
<text text-anchor="start" x="318.5" y="-404.8" font-family="Helvetica,sans-Serif" font-size="11.00" fill="#000000">accompanied_by_id</text>
<polygon fill="none" stroke="#000000" points="298.5,-375.7 298.5,-397.7 511.5,-397.7 511.5,-375.7 298.5,-375.7"/>
<image xlink:href="../../images/foreignKeys.png" width="11px" height="12px" preserveAspectRatio="xMinYMin meet" x="303.5" y="-392.7"/>
<text text-anchor="start" x="318.5" y="-382.8" font-family="Helvetica,sans-Serif" font-size="11.00" fill="#000000">transport_id</text>
<polygon fill="#ffffff" stroke="transparent" points="298.5,-353.7 298.5,-375.7 511.5,-375.7 511.5,-353.7 298.5,-353.7"/>
<polygon fill="none" stroke="#000000" points="298.5,-353.7 298.5,-375.7 511.5,-375.7 511.5,-353.7 298.5,-353.7"/>
<text text-anchor="start" x="318.5" y="-360.8" font-family="Helvetica,sans-Serif" font-size="11.00" fill="#000000">start</text>
<polygon fill="#ffffff" stroke="transparent" points="298.5,-331.7 298.5,-353.7 511.5,-353.7 511.5,-331.7 298.5,-331.7"/>
<polygon fill="none" stroke="#000000" points="298.5,-331.7 298.5,-353.7 511.5,-353.7 511.5,-331.7 298.5,-331.7"/>
<text text-anchor="start" x="318.5" y="-338.8" font-family="Helvetica,sans-Serif" font-size="11.00" fill="#000000">end</text>
<polygon fill="#ffffff" stroke="transparent" points="298.5,-309.7 298.5,-331.7 511.5,-331.7 511.5,-309.7 298.5,-309.7"/>
<polygon fill="none" stroke="#000000" points="298.5,-309.7 298.5,-331.7 511.5,-331.7 511.5,-309.7 298.5,-309.7"/>
<text text-anchor="start" x="318.5" y="-316.8" font-family="Helvetica,sans-Serif" font-size="11.00" fill="#000000">legacy_id</text>
<polygon fill="none" stroke="#000000" points="298.5,-290.7 298.5,-309.7 511.5,-309.7 511.5,-290.7 298.5,-290.7"/>
<text text-anchor="start" x="301.5" y="-296.8" font-family="Helvetica,sans-Serif" font-size="11.00" fill="#000000">...</text>
<polygon fill="#ffffff" stroke="transparent" points="298.5,-271.7 298.5,-290.7 403.5,-290.7 403.5,-271.7 298.5,-271.7"/>
<polygon fill="none" stroke="#000000" points="298.5,-271.7 298.5,-290.7 403.5,-290.7 403.5,-271.7 298.5,-271.7"/>
<text text-anchor="start" x="301.5" y="-277.8" font-family="Helvetica,sans-Serif" font-size="11.00" fill="#000000">&lt; 7</text>
<polygon fill="#ffffff" stroke="transparent" points="403.5,-271.7 403.5,-290.7 457.5,-290.7 457.5,-271.7 403.5,-271.7"/>
<polygon fill="none" stroke="#000000" points="403.5,-271.7 403.5,-290.7 457.5,-290.7 457.5,-271.7 403.5,-271.7"/>
<text text-anchor="start" x="448.3862" y="-277.8" font-family="Helvetica,sans-Serif" font-size="11.00" fill="#000000"> &#160;</text>
<polygon fill="#ffffff" stroke="transparent" points="457.5,-271.7 457.5,-290.7 511.5,-290.7 511.5,-271.7 457.5,-271.7"/>
<polygon fill="none" stroke="#000000" points="457.5,-271.7 457.5,-290.7 511.5,-290.7 511.5,-271.7 457.5,-271.7"/>
<text text-anchor="start" x="502.3862" y="-277.8" font-family="Helvetica,sans-Serif" font-size="11.00" fill="#000000"> &#160;</text>
</a>
</g>
</g>
<!-- absence_reason_category -->
<g id="node2" class="node">
<title>absence_reason_category</title>
<g id="a_node2"><a xlink:href="../../tables/absence_reason_category.html" xlink:title="absence_reason_category" target="_top">
<polygon fill="#ffffff" stroke="transparent" points="22.5,-284.2 22.5,-345.2 234.5,-345.2 234.5,-284.2 22.5,-284.2"/>
<polygon fill="#f5f5f5" stroke="transparent" points="22.5,-321.7 22.5,-344.7 234.5,-344.7 234.5,-321.7 22.5,-321.7"/>
<polygon fill="none" stroke="#000000" points="22.5,-321.7 22.5,-344.7 234.5,-344.7 234.5,-321.7 22.5,-321.7"/>
<text text-anchor="start" x="27.5" y="-330.3" font-family="Helvetica,sans-Serif" font-weight="bold" font-size="11.00" fill="#000000">absence_reason_category</text>
<text text-anchor="start" x="200.0219" y="-329.8" font-family="Helvetica,sans-Serif" font-size="11.00" fill="#000000">[table]</text>
<polygon fill="none" stroke="#000000" points="22.5,-302.7 22.5,-321.7 234.5,-321.7 234.5,-302.7 22.5,-302.7"/>
<text text-anchor="start" x="25.5" y="-308.8" font-family="Helvetica,sans-Serif" font-size="11.00" fill="#000000">...</text>
<polygon fill="#ffffff" stroke="transparent" points="22.5,-283.7 22.5,-302.7 117.5,-302.7 117.5,-283.7 22.5,-283.7"/>
<polygon fill="none" stroke="#000000" points="22.5,-283.7 22.5,-302.7 117.5,-302.7 117.5,-283.7 22.5,-283.7"/>
<text text-anchor="start" x="25.5" y="-289.8" font-family="Helvetica,sans-Serif" font-size="11.00" fill="#000000"> &#160;</text>
<polygon fill="#ffffff" stroke="transparent" points="117.5,-283.7 117.5,-302.7 171.5,-302.7 171.5,-283.7 117.5,-283.7"/>
<polygon fill="none" stroke="#000000" points="117.5,-283.7 117.5,-302.7 171.5,-302.7 171.5,-283.7 117.5,-283.7"/>
<text text-anchor="start" x="162.3862" y="-289.8" font-family="Helvetica,sans-Serif" font-size="11.00" fill="#000000"> &#160;</text>
<polygon fill="#ffffff" stroke="transparent" points="171.5,-283.7 171.5,-302.7 234.5,-302.7 234.5,-283.7 171.5,-283.7"/>
<polygon fill="none" stroke="#000000" points="171.5,-283.7 171.5,-302.7 234.5,-302.7 234.5,-283.7 171.5,-283.7"/>
<text text-anchor="start" x="215.9053" y="-289.8" font-family="Helvetica,sans-Serif" font-size="11.00" fill="#000000">2 &gt;</text>
</a>
</g>
</g>
<!-- authorisation&#45;&gt;absence_reason_category -->
<g id="edge1" class="edge">
<title>authorisation:w&#45;&gt;absence_reason_category:e</title>
<path fill="none" stroke="#000000" d="M284.2824,-450.0092C240.8029,-430.516 297.6746,-311.7 234.5,-311.7"/>
<polygon fill="#000000" stroke="#000000" points="290.6395,-451.2123 297.8305,-456.2372 294.5698,-451.9562 298.5,-452.7 298.5,-452.7 298.5,-452.7 294.5698,-451.9562 299.1695,-449.1628 290.6395,-451.2123 290.6395,-451.2123"/>
<ellipse fill="none" stroke="#000000" cx="287.4953" cy="-450.6172" rx="3.2" ry="3.2"/>
</g>
<!-- absence_reason -->
<g id="node3" class="node">
<title>absence_reason</title>
<g id="a_node3"><a xlink:href="../../tables/absence_reason.html" xlink:title="absence_reason" target="_top">
<polygon fill="#ffffff" stroke="transparent" points="8,-530.7 8,-686.7 249,-686.7 249,-530.7 8,-530.7"/>
<polygon fill="#f5f5f5" stroke="transparent" points="10.5,-661.7 10.5,-684.7 247.5,-684.7 247.5,-661.7 10.5,-661.7"/>
<polygon fill="none" stroke="#000000" points="10.5,-661.7 10.5,-684.7 247.5,-684.7 247.5,-661.7 10.5,-661.7"/>
<text text-anchor="start" x="15.5" y="-670.3" font-family="Helvetica,sans-Serif" font-weight="bold" font-size="11.00" fill="#000000">absence_reason</text>
<text text-anchor="start" x="212.5437" y="-669.8" font-family="Helvetica,sans-Serif" font-size="11.00" fill="#000000">[table]</text>
<polygon fill="none" stroke="#000000" points="10.5,-639.7 10.5,-661.7 153.5,-661.7 153.5,-639.7 10.5,-639.7"/>
<image xlink:href="../../images/primaryKeys.png" width="11px" height="12px" preserveAspectRatio="xMinYMin meet" x="15.5" y="-656.7"/>
<text text-anchor="start" x="30.5" y="-646.8" font-family="Helvetica,sans-Serif" font-size="11.00" fill="#000000">id</text>
<polygon fill="none" stroke="#000000" points="153.5,-639.7 153.5,-661.7 247.5,-661.7 247.5,-639.7 153.5,-639.7"/>
<text text-anchor="start" x="156.4758" y="-647.4" font-family="Helvetica,sans-Serif" font-size="11.00" fill="#000000">uuid[2147483647]</text>
<polygon fill="#ffffff" stroke="transparent" points="10.5,-617.7 10.5,-639.7 153.5,-639.7 153.5,-617.7 10.5,-617.7"/>
<polygon fill="none" stroke="#000000" points="10.5,-617.7 10.5,-639.7 153.5,-639.7 153.5,-617.7 10.5,-617.7"/>
<text text-anchor="start" x="30.5" y="-624.8" font-family="Helvetica,sans-Serif" font-size="11.00" fill="#000000">code</text>
<polygon fill="none" stroke="#000000" points="153.5,-617.7 153.5,-639.7 247.5,-639.7 247.5,-617.7 153.5,-617.7"/>
<text text-anchor="start" x="156.5" y="-625.4" font-family="Helvetica,sans-Serif" font-size="11.00" fill="#000000">varchar[16]</text>
<polygon fill="none" stroke="#000000" points="10.5,-595.7 10.5,-617.7 153.5,-617.7 153.5,-595.7 10.5,-595.7"/>
<text text-anchor="start" x="30.5" y="-602.8" font-family="Helvetica,sans-Serif" font-size="11.00" fill="#000000">description</text>
<polygon fill="none" stroke="#000000" points="153.5,-595.7 153.5,-617.7 247.5,-617.7 247.5,-595.7 153.5,-595.7"/>
<text text-anchor="start" x="156.5" y="-603.4" font-family="Helvetica,sans-Serif" font-size="11.00" fill="#000000">varchar[255]</text>
<polygon fill="#ffffff" stroke="transparent" points="10.5,-573.7 10.5,-595.7 153.5,-595.7 153.5,-573.7 10.5,-573.7"/>
<polygon fill="none" stroke="#000000" points="10.5,-573.7 10.5,-595.7 153.5,-595.7 153.5,-573.7 10.5,-573.7"/>
<text text-anchor="start" x="30.5" y="-580.8" font-family="Helvetica,sans-Serif" font-size="11.00" fill="#000000">sequence_number</text>
<polygon fill="none" stroke="#000000" points="153.5,-573.7 153.5,-595.7 247.5,-595.7 247.5,-573.7 153.5,-573.7"/>
<text text-anchor="start" x="156.5" y="-581.4" font-family="Helvetica,sans-Serif" font-size="11.00" fill="#000000">int4[10]</text>
<polygon fill="none" stroke="#000000" points="10.5,-551.7 10.5,-573.7 153.5,-573.7 153.5,-551.7 10.5,-551.7"/>
<text text-anchor="start" x="30.5" y="-558.8" font-family="Helvetica,sans-Serif" font-size="11.00" fill="#000000">active</text>
<polygon fill="none" stroke="#000000" points="153.5,-551.7 153.5,-573.7 247.5,-573.7 247.5,-551.7 153.5,-551.7"/>
<text text-anchor="start" x="156.5" y="-559.4" font-family="Helvetica,sans-Serif" font-size="11.00" fill="#000000">bool[1]</text>
<polygon fill="#ffffff" stroke="transparent" points="10.5,-532.7 10.5,-551.7 86.5,-551.7 86.5,-532.7 10.5,-532.7"/>
<polygon fill="none" stroke="#000000" points="10.5,-532.7 10.5,-551.7 86.5,-551.7 86.5,-532.7 10.5,-532.7"/>
<text text-anchor="start" x="13.5" y="-538.8" font-family="Helvetica,sans-Serif" font-size="11.00" fill="#000000">&lt; 0</text>
<polygon fill="#ffffff" stroke="transparent" points="86.5,-532.7 86.5,-551.7 153.5,-551.7 153.5,-532.7 86.5,-532.7"/>
<polygon fill="none" stroke="#000000" points="86.5,-532.7 86.5,-551.7 153.5,-551.7 153.5,-532.7 86.5,-532.7"/>
<text text-anchor="start" x="144.3862" y="-538.8" font-family="Helvetica,sans-Serif" font-size="11.00" fill="#000000"> &#160;</text>
<polygon fill="#ffffff" stroke="transparent" points="153.5,-532.7 153.5,-551.7 247.5,-551.7 247.5,-532.7 153.5,-532.7"/>
<polygon fill="none" stroke="#000000" points="153.5,-532.7 153.5,-551.7 247.5,-551.7 247.5,-532.7 153.5,-532.7"/>
<text text-anchor="start" x="228.9053" y="-538.8" font-family="Helvetica,sans-Serif" font-size="11.00" fill="#000000">3 &gt;</text>
<polygon fill="none" stroke="#000000" stroke-width="2" points="9,-531.7 9,-685.7 248,-685.7 248,-531.7 9,-531.7"/>
</a>
</g>
</g>
<!-- authorisation&#45;&gt;absence_reason -->
<g id="edge2" class="edge">
<title>authorisation:w&#45;&gt;absence_reason:e</title>
<path fill="none" stroke="#000000" d="M284.1952,-432.6019C213.7593,-454.1045 342.3816,-650.7 247.5,-650.7"/>
<polygon fill="#000000" stroke="#000000" points="290.5698,-431.7544 298.9745,-434.2686 294.5349,-431.2272 298.5,-430.7 298.5,-430.7 298.5,-430.7 294.5349,-431.2272 298.0255,-427.1314 290.5698,-431.7544 290.5698,-431.7544"/>
<ellipse fill="none" stroke="#000000" cx="287.3977" cy="-432.1762" rx="3.2" ry="3.2"/>
</g>
<!-- absence_sub_type -->
<g id="node4" class="node">
<title>absence_sub_type</title>
<g id="a_node4"><a xlink:href="../../tables/absence_sub_type.html" xlink:title="absence_sub_type" target="_top">
<polygon fill="#ffffff" stroke="transparent" points="48,-366.2 48,-427.2 209,-427.2 209,-366.2 48,-366.2"/>
<polygon fill="#f5f5f5" stroke="transparent" points="48.5,-403.7 48.5,-426.7 209.5,-426.7 209.5,-403.7 48.5,-403.7"/>
<polygon fill="none" stroke="#000000" points="48.5,-403.7 48.5,-426.7 209.5,-426.7 209.5,-403.7 48.5,-403.7"/>
<text text-anchor="start" x="53.5" y="-412.3" font-family="Helvetica,sans-Serif" font-weight="bold" font-size="11.00" fill="#000000">absence_sub_type</text>
<text text-anchor="start" x="175.0219" y="-411.8" font-family="Helvetica,sans-Serif" font-size="11.00" fill="#000000">[table]</text>
<polygon fill="none" stroke="#000000" points="48.5,-384.7 48.5,-403.7 209.5,-403.7 209.5,-384.7 48.5,-384.7"/>
<text text-anchor="start" x="51.5" y="-390.8" font-family="Helvetica,sans-Serif" font-size="11.00" fill="#000000">...</text>
<polygon fill="#ffffff" stroke="transparent" points="48.5,-365.7 48.5,-384.7 118.5,-384.7 118.5,-365.7 48.5,-365.7"/>
<polygon fill="none" stroke="#000000" points="48.5,-365.7 48.5,-384.7 118.5,-384.7 118.5,-365.7 48.5,-365.7"/>
<text text-anchor="start" x="51.5" y="-371.8" font-family="Helvetica,sans-Serif" font-size="11.00" fill="#000000"> &#160;</text>
<polygon fill="#ffffff" stroke="transparent" points="118.5,-365.7 118.5,-384.7 159.5,-384.7 159.5,-365.7 118.5,-365.7"/>
<polygon fill="none" stroke="#000000" points="118.5,-365.7 118.5,-384.7 159.5,-384.7 159.5,-365.7 118.5,-365.7"/>
<text text-anchor="start" x="150.3862" y="-371.8" font-family="Helvetica,sans-Serif" font-size="11.00" fill="#000000"> &#160;</text>
<polygon fill="#ffffff" stroke="transparent" points="159.5,-365.7 159.5,-384.7 209.5,-384.7 209.5,-365.7 159.5,-365.7"/>
<polygon fill="none" stroke="#000000" points="159.5,-365.7 159.5,-384.7 209.5,-384.7 209.5,-365.7 159.5,-365.7"/>
<text text-anchor="start" x="190.9053" y="-371.8" font-family="Helvetica,sans-Serif" font-size="11.00" fill="#000000">2 &gt;</text>
</a>
</g>
</g>
<!-- authorisation&#45;&gt;absence_sub_type -->
<g id="edge3" class="edge">
<title>authorisation:w&#45;&gt;absence_sub_type:e</title>
<path fill="none" stroke="#000000" d="M286.1346,-466.9334C263.0868,-446.6597 220.3119,-393.7 209.5,-393.7"/>
<polygon fill="#000000" stroke="#000000" points="291.7254,-470.4449 296.5852,-477.7486 295.1127,-472.5725 298.5,-474.7 298.5,-474.7 298.5,-474.7 295.1127,-472.5725 300.4148,-471.6514 291.7254,-470.4449 291.7254,-470.4449"/>
<ellipse fill="none" stroke="#000000" cx="289.0156" cy="-468.7429" rx="3.2" ry="3.2"/>
</g>
<!-- absence_type -->
<g id="node5" class="node">
<title>absence_type</title>
<g id="a_node5"><a xlink:href="../../tables/absence_type.html" xlink:title="absence_type" target="_top">
<polygon fill="#ffffff" stroke="transparent" points="63,-448.2 63,-509.2 194,-509.2 194,-448.2 63,-448.2"/>
<polygon fill="#f5f5f5" stroke="transparent" points="63.5,-485.7 63.5,-508.7 194.5,-508.7 194.5,-485.7 63.5,-485.7"/>
<polygon fill="none" stroke="#000000" points="63.5,-485.7 63.5,-508.7 194.5,-508.7 194.5,-485.7 63.5,-485.7"/>
<text text-anchor="start" x="68.5" y="-494.3" font-family="Helvetica,sans-Serif" font-weight="bold" font-size="11.00" fill="#000000">absence_type</text>
<text text-anchor="start" x="160.0219" y="-493.8" font-family="Helvetica,sans-Serif" font-size="11.00" fill="#000000">[table]</text>
<polygon fill="none" stroke="#000000" points="63.5,-466.7 63.5,-485.7 194.5,-485.7 194.5,-466.7 63.5,-466.7"/>
<text text-anchor="start" x="66.5" y="-472.8" font-family="Helvetica,sans-Serif" font-size="11.00" fill="#000000">...</text>
<polygon fill="#ffffff" stroke="transparent" points="63.5,-447.7 63.5,-466.7 118.5,-466.7 118.5,-447.7 63.5,-447.7"/>
<polygon fill="none" stroke="#000000" points="63.5,-447.7 63.5,-466.7 118.5,-466.7 118.5,-447.7 63.5,-447.7"/>
<text text-anchor="start" x="66.5" y="-453.8" font-family="Helvetica,sans-Serif" font-size="11.00" fill="#000000"> &#160;</text>
<polygon fill="#ffffff" stroke="transparent" points="118.5,-447.7 118.5,-466.7 151.5,-466.7 151.5,-447.7 118.5,-447.7"/>
<polygon fill="none" stroke="#000000" points="118.5,-447.7 118.5,-466.7 151.5,-466.7 151.5,-447.7 118.5,-447.7"/>
<text text-anchor="start" x="142.3862" y="-453.8" font-family="Helvetica,sans-Serif" font-size="11.00" fill="#000000"> &#160;</text>
<polygon fill="#ffffff" stroke="transparent" points="151.5,-447.7 151.5,-466.7 194.5,-466.7 194.5,-447.7 151.5,-447.7"/>
<polygon fill="none" stroke="#000000" points="151.5,-447.7 151.5,-466.7 194.5,-466.7 194.5,-447.7 151.5,-447.7"/>
<text text-anchor="start" x="175.9053" y="-453.8" font-family="Helvetica,sans-Serif" font-size="11.00" fill="#000000">2 &gt;</text>
</a>
</g>
</g>
<!-- authorisation&#45;&gt;absence_type -->
<g id="edge4" class="edge">
<title>authorisation:w&#45;&gt;absence_type:e</title>
<path fill="none" stroke="#000000" d="M283.808,-495.9526C248.6688,-492.2117 236.3133,-475.7 194.5,-475.7"/>
<polygon fill="#000000" stroke="#000000" points="290.5103,-496.2935 298.3171,-500.2954 294.5052,-496.4968 298.5,-496.7 298.5,-496.7 298.5,-496.7 294.5052,-496.4968 298.6829,-493.1046 290.5103,-496.2935 290.5103,-496.2935"/>
<ellipse fill="none" stroke="#000000" cx="287.3145" cy="-496.1309" rx="3.2" ry="3.2"/>
</g>
<!-- accompanied_by -->
<g id="node6" class="node">
<title>accompanied_by</title>
<g id="a_node6"><a xlink:href="../../tables/accompanied_by.html" xlink:title="accompanied_by" target="_top">
<polygon fill="#ffffff" stroke="transparent" points="53.5,-120.2 53.5,-181.2 203.5,-181.2 203.5,-120.2 53.5,-120.2"/>
<polygon fill="#f5f5f5" stroke="transparent" points="53.5,-157.7 53.5,-180.7 203.5,-180.7 203.5,-157.7 53.5,-157.7"/>
<polygon fill="none" stroke="#000000" points="53.5,-157.7 53.5,-180.7 203.5,-180.7 203.5,-157.7 53.5,-157.7"/>
<text text-anchor="start" x="58.5" y="-166.3" font-family="Helvetica,sans-Serif" font-weight="bold" font-size="11.00" fill="#000000">accompanied_by</text>
<text text-anchor="start" x="169.0219" y="-165.8" font-family="Helvetica,sans-Serif" font-size="11.00" fill="#000000">[table]</text>
<polygon fill="none" stroke="#000000" points="53.5,-138.7 53.5,-157.7 203.5,-157.7 203.5,-138.7 53.5,-138.7"/>
<text text-anchor="start" x="56.5" y="-144.8" font-family="Helvetica,sans-Serif" font-size="11.00" fill="#000000">...</text>
<polygon fill="#ffffff" stroke="transparent" points="53.5,-119.7 53.5,-138.7 117.5,-138.7 117.5,-119.7 53.5,-119.7"/>
<polygon fill="none" stroke="#000000" points="53.5,-119.7 53.5,-138.7 117.5,-138.7 117.5,-119.7 53.5,-119.7"/>
<text text-anchor="start" x="56.5" y="-125.8" font-family="Helvetica,sans-Serif" font-size="11.00" fill="#000000"> &#160;</text>
<polygon fill="#ffffff" stroke="transparent" points="117.5,-119.7 117.5,-138.7 155.5,-138.7 155.5,-119.7 117.5,-119.7"/>
<polygon fill="none" stroke="#000000" points="117.5,-119.7 117.5,-138.7 155.5,-138.7 155.5,-119.7 117.5,-119.7"/>
<text text-anchor="start" x="146.3862" y="-125.8" font-family="Helvetica,sans-Serif" font-size="11.00" fill="#000000"> &#160;</text>
<polygon fill="#ffffff" stroke="transparent" points="155.5,-119.7 155.5,-138.7 203.5,-138.7 203.5,-119.7 155.5,-119.7"/>
<polygon fill="none" stroke="#000000" points="155.5,-119.7 155.5,-138.7 203.5,-138.7 203.5,-119.7 155.5,-119.7"/>
<text text-anchor="start" x="184.9053" y="-125.8" font-family="Helvetica,sans-Serif" font-size="11.00" fill="#000000">3 &gt;</text>
</a>
</g>
</g>
<!-- authorisation&#45;&gt;accompanied_by -->
<g id="edge5" class="edge">
<title>authorisation:w&#45;&gt;accompanied_by:e</title>
<path fill="none" stroke="#000000" d="M285.1419,-402.8294C255.8575,-372.0521 279.3215,-229.2997 257,-191.7 241.2841,-165.2271 234.2864,-147.7 203.5,-147.7"/>
<polygon fill="#000000" stroke="#000000" points="291.1761,-405.4813 297.0516,-411.9958 294.838,-407.0906 298.5,-408.7 298.5,-408.7 298.5,-408.7 294.838,-407.0906 299.9484,-405.4042 291.1761,-405.4813 291.1761,-405.4813"/>
<ellipse fill="none" stroke="#000000" cx="288.2465" cy="-404.1938" rx="3.2" ry="3.2"/>
</g>
<!-- authorisation_status -->
<g id="node7" class="node">
<title>authorisation_status</title>
<g id="a_node7"><a xlink:href="../../tables/authorisation_status.html" xlink:title="authorisation_status" target="_top">
<polygon fill="#ffffff" stroke="transparent" points="39.5,-708.2 39.5,-769.2 217.5,-769.2 217.5,-708.2 39.5,-708.2"/>
<polygon fill="#f5f5f5" stroke="transparent" points="39.5,-745.7 39.5,-768.7 217.5,-768.7 217.5,-745.7 39.5,-745.7"/>
<polygon fill="none" stroke="#000000" points="39.5,-745.7 39.5,-768.7 217.5,-768.7 217.5,-745.7 39.5,-745.7"/>
<text text-anchor="start" x="44.5" y="-754.3" font-family="Helvetica,sans-Serif" font-weight="bold" font-size="11.00" fill="#000000">authorisation_status</text>
<text text-anchor="start" x="183.0219" y="-753.8" font-family="Helvetica,sans-Serif" font-size="11.00" fill="#000000">[table]</text>
<polygon fill="none" stroke="#000000" points="39.5,-726.7 39.5,-745.7 217.5,-745.7 217.5,-726.7 39.5,-726.7"/>
<text text-anchor="start" x="42.5" y="-732.8" font-family="Helvetica,sans-Serif" font-size="11.00" fill="#000000">...</text>
<polygon fill="#ffffff" stroke="transparent" points="39.5,-707.7 39.5,-726.7 117.5,-726.7 117.5,-707.7 39.5,-707.7"/>
<polygon fill="none" stroke="#000000" points="39.5,-707.7 39.5,-726.7 117.5,-726.7 117.5,-707.7 39.5,-707.7"/>
<text text-anchor="start" x="42.5" y="-713.8" font-family="Helvetica,sans-Serif" font-size="11.00" fill="#000000"> &#160;</text>
<polygon fill="#ffffff" stroke="transparent" points="117.5,-707.7 117.5,-726.7 162.5,-726.7 162.5,-707.7 117.5,-707.7"/>
<polygon fill="none" stroke="#000000" points="117.5,-707.7 117.5,-726.7 162.5,-726.7 162.5,-707.7 117.5,-707.7"/>
<text text-anchor="start" x="153.3862" y="-713.8" font-family="Helvetica,sans-Serif" font-size="11.00" fill="#000000"> &#160;</text>
<polygon fill="#ffffff" stroke="transparent" points="162.5,-707.7 162.5,-726.7 217.5,-726.7 217.5,-707.7 162.5,-707.7"/>
<polygon fill="none" stroke="#000000" points="162.5,-707.7 162.5,-726.7 217.5,-726.7 217.5,-707.7 162.5,-707.7"/>
<text text-anchor="start" x="198.9053" y="-713.8" font-family="Helvetica,sans-Serif" font-size="11.00" fill="#000000">1 &gt;</text>
</a>
</g>
</g>
<!-- authorisation&#45;&gt;authorisation_status -->
<g id="edge6" class="edge">
<title>authorisation:w&#45;&gt;authorisation_status:e</title>
<path fill="none" stroke="#000000" d="M283.9349,-520.1675C227.273,-533.29 294.5586,-631.5337 257,-697.7 244.9744,-718.8853 241.8605,-735.7 217.5,-735.7"/>
<polygon fill="#000000" stroke="#000000" points="290.5403,-519.502 298.8609,-522.2819 294.5201,-519.101 298.5,-518.7 298.5,-518.7 298.5,-518.7 294.5201,-519.101 298.1391,-515.1181 290.5403,-519.502 290.5403,-519.502"/>
<ellipse fill="none" stroke="#000000" cx="287.3564" cy="-519.8228" rx="3.2" ry="3.2"/>
</g>
<!-- transport -->
<g id="node8" class="node">
<title>transport</title>
<g id="a_node8"><a xlink:href="../../tables/transport.html" xlink:title="transport" target="_top">
<polygon fill="#ffffff" stroke="transparent" points="77.5,-202.2 77.5,-263.2 179.5,-263.2 179.5,-202.2 77.5,-202.2"/>
<polygon fill="#f5f5f5" stroke="transparent" points="77.5,-239.7 77.5,-262.7 179.5,-262.7 179.5,-239.7 77.5,-239.7"/>
<polygon fill="none" stroke="#000000" points="77.5,-239.7 77.5,-262.7 179.5,-262.7 179.5,-239.7 77.5,-239.7"/>
<text text-anchor="start" x="82.5" y="-248.3" font-family="Helvetica,sans-Serif" font-weight="bold" font-size="11.00" fill="#000000">transport</text>
<text text-anchor="start" x="145.0219" y="-247.8" font-family="Helvetica,sans-Serif" font-size="11.00" fill="#000000">[table]</text>
<polygon fill="none" stroke="#000000" points="77.5,-220.7 77.5,-239.7 179.5,-239.7 179.5,-220.7 77.5,-220.7"/>
<text text-anchor="start" x="80.5" y="-226.8" font-family="Helvetica,sans-Serif" font-size="11.00" fill="#000000">...</text>
<polygon fill="#ffffff" stroke="transparent" points="77.5,-201.7 77.5,-220.7 117.5,-220.7 117.5,-201.7 77.5,-201.7"/>
<polygon fill="none" stroke="#000000" points="77.5,-201.7 77.5,-220.7 117.5,-220.7 117.5,-201.7 77.5,-201.7"/>
<text text-anchor="start" x="80.5" y="-207.8" font-family="Helvetica,sans-Serif" font-size="11.00" fill="#000000"> &#160;</text>
<polygon fill="#ffffff" stroke="transparent" points="117.5,-201.7 117.5,-220.7 143.5,-220.7 143.5,-201.7 117.5,-201.7"/>
<polygon fill="none" stroke="#000000" points="117.5,-201.7 117.5,-220.7 143.5,-220.7 143.5,-201.7 117.5,-201.7"/>
<text text-anchor="start" x="134.3862" y="-207.8" font-family="Helvetica,sans-Serif" font-size="11.00" fill="#000000"> &#160;</text>
<polygon fill="#ffffff" stroke="transparent" points="143.5,-201.7 143.5,-220.7 179.5,-220.7 179.5,-201.7 143.5,-201.7"/>
<polygon fill="none" stroke="#000000" points="143.5,-201.7 143.5,-220.7 179.5,-220.7 179.5,-201.7 143.5,-201.7"/>
<text text-anchor="start" x="160.9053" y="-207.8" font-family="Helvetica,sans-Serif" font-size="11.00" fill="#000000">2 &gt;</text>
</a>
</g>
</g>
<!-- authorisation&#45;&gt;transport -->
<g id="edge7" class="edge">
<title>authorisation:w&#45;&gt;transport:e</title>
<path fill="none" stroke="#000000" d="M284.2999,-384.2447C254.2203,-371.2839 287.8136,-310.0465 257,-273.7 231.3867,-243.4875 219.1086,-229.7 179.5,-229.7"/>
<polygon fill="#000000" stroke="#000000" points="290.617,-385.3369 297.8866,-390.2474 294.5585,-386.0185 298.5,-386.7 298.5,-386.7 298.5,-386.7 294.5585,-386.0185 299.1134,-383.1526 290.617,-385.3369 290.617,-385.3369"/>
<ellipse fill="none" stroke="#000000" cx="287.4638" cy="-384.7917" rx="3.2" ry="3.2"/>
</g>
<!-- movement -->
<g id="node9" class="node">
<title>movement</title>
<g id="a_node9"><a xlink:href="../../tables/movement.html" xlink:title="movement" target="_top">
<polygon fill="#ffffff" stroke="transparent" points="560,-190.2 560,-251.2 670,-251.2 670,-190.2 560,-190.2"/>
<polygon fill="#f5f5f5" stroke="transparent" points="560,-227.7 560,-250.7 670,-250.7 670,-227.7 560,-227.7"/>
<polygon fill="none" stroke="#000000" points="560,-227.7 560,-250.7 670,-250.7 670,-227.7 560,-227.7"/>
<text text-anchor="start" x="565" y="-236.3" font-family="Helvetica,sans-Serif" font-weight="bold" font-size="11.00" fill="#000000">movement</text>
<text text-anchor="start" x="635.5219" y="-235.8" font-family="Helvetica,sans-Serif" font-size="11.00" fill="#000000">[table]</text>
<polygon fill="none" stroke="#000000" points="560,-208.7 560,-227.7 670,-227.7 670,-208.7 560,-208.7"/>
<text text-anchor="start" x="563" y="-214.8" font-family="Helvetica,sans-Serif" font-size="11.00" fill="#000000">...</text>
<polygon fill="#ffffff" stroke="transparent" points="560,-189.7 560,-208.7 613,-208.7 613,-189.7 560,-189.7"/>
<polygon fill="none" stroke="#000000" points="560,-189.7 560,-208.7 613,-208.7 613,-189.7 560,-189.7"/>
<text text-anchor="start" x="563" y="-195.8" font-family="Helvetica,sans-Serif" font-size="11.00" fill="#000000">&lt; 3</text>
<polygon fill="#ffffff" stroke="transparent" points="613,-189.7 613,-208.7 641,-208.7 641,-189.7 613,-189.7"/>
<polygon fill="none" stroke="#000000" points="613,-189.7 613,-208.7 641,-208.7 641,-189.7 613,-189.7"/>
<text text-anchor="start" x="631.8862" y="-195.8" font-family="Helvetica,sans-Serif" font-size="11.00" fill="#000000"> &#160;</text>
<polygon fill="#ffffff" stroke="transparent" points="641,-189.7 641,-208.7 670,-208.7 670,-189.7 641,-189.7"/>
<polygon fill="none" stroke="#000000" points="641,-189.7 641,-208.7 670,-208.7 670,-189.7 641,-189.7"/>
<text text-anchor="start" x="660.8862" y="-195.8" font-family="Helvetica,sans-Serif" font-size="11.00" fill="#000000"> &#160;</text>
</a>
</g>
</g>
<!-- movement&#45;&gt;absence_reason -->
<g id="edge8" class="edge">
<title>movement:w&#45;&gt;absence_reason:e</title>
<path fill="none" stroke="#000000" d="M610.591,-269.9364C600.7042,-368.193 573.2595,-583.1828 519,-629.7 427.117,-708.4722 368.5271,-650.7 247.5,-650.7"/>
<polygon fill="#000000" stroke="#000000" points="611.2244,-263.4513 615.5852,-255.8392 611.6133,-259.4703 612.0022,-255.4892 612.0022,-255.4892 612.0022,-255.4892 611.6133,-259.4703 608.4193,-255.1392 611.2244,-263.4513 611.2244,-263.4513"/>
<ellipse fill="none" stroke="#000000" cx="610.9133" cy="-266.6362" rx="3.2" ry="3.2"/>
</g>
<!-- movement&#45;&gt;accompanied_by -->
<g id="edge9" class="edge">
<title>movement:w&#45;&gt;accompanied_by:e</title>
<path fill="none" stroke="#000000" d="M538.3336,-185.5739C531.8743,-183.3468 525.3752,-181.3439 519,-179.7 382.5225,-144.5087 344.4416,-147.7 203.5,-147.7"/>
<polygon fill="#000000" stroke="#000000" points="544.4049,-187.8139 550.6641,-193.9607 548.1576,-189.1986 551.9103,-190.5832 551.9103,-190.5832 551.9103,-190.5832 548.1576,-189.1986 553.1565,-187.2058 544.4049,-187.8139 544.4049,-187.8139"/>
<ellipse fill="none" stroke="#000000" cx="541.4027" cy="-186.7062" rx="3.2" ry="3.2"/>
</g>
<!-- occurrence -->
<g id="node10" class="node">
<title>occurrence</title>
<g id="a_node10"><a xlink:href="../../tables/occurrence.html" xlink:title="occurrence" target="_top">
<polygon fill="#ffffff" stroke="transparent" points="348,-190.2 348,-251.2 461,-251.2 461,-190.2 348,-190.2"/>
<polygon fill="#f5f5f5" stroke="transparent" points="348.5,-227.7 348.5,-250.7 461.5,-250.7 461.5,-227.7 348.5,-227.7"/>
<polygon fill="none" stroke="#000000" points="348.5,-227.7 348.5,-250.7 461.5,-250.7 461.5,-227.7 348.5,-227.7"/>
<text text-anchor="start" x="353.5" y="-236.3" font-family="Helvetica,sans-Serif" font-weight="bold" font-size="11.00" fill="#000000">occurrence</text>
<text text-anchor="start" x="427.0219" y="-235.8" font-family="Helvetica,sans-Serif" font-size="11.00" fill="#000000">[table]</text>
<polygon fill="none" stroke="#000000" points="348.5,-208.7 348.5,-227.7 461.5,-227.7 461.5,-208.7 348.5,-208.7"/>
<text text-anchor="start" x="351.5" y="-214.8" font-family="Helvetica,sans-Serif" font-size="11.00" fill="#000000">...</text>
<polygon fill="#ffffff" stroke="transparent" points="348.5,-189.7 348.5,-208.7 398.5,-208.7 398.5,-189.7 348.5,-189.7"/>
<polygon fill="none" stroke="#000000" points="348.5,-189.7 348.5,-208.7 398.5,-208.7 398.5,-189.7 348.5,-189.7"/>
<text text-anchor="start" x="351.5" y="-195.8" font-family="Helvetica,sans-Serif" font-size="11.00" fill="#000000">&lt; 7</text>
<polygon fill="#ffffff" stroke="transparent" points="398.5,-189.7 398.5,-208.7 425.5,-208.7 425.5,-189.7 398.5,-189.7"/>
<polygon fill="none" stroke="#000000" points="398.5,-189.7 398.5,-208.7 425.5,-208.7 425.5,-189.7 398.5,-189.7"/>
<text text-anchor="start" x="416.3862" y="-195.8" font-family="Helvetica,sans-Serif" font-size="11.00" fill="#000000"> &#160;</text>
<polygon fill="#ffffff" stroke="transparent" points="425.5,-189.7 425.5,-208.7 461.5,-208.7 461.5,-189.7 425.5,-189.7"/>
<polygon fill="none" stroke="#000000" points="425.5,-189.7 425.5,-208.7 461.5,-208.7 461.5,-189.7 425.5,-189.7"/>
<text text-anchor="start" x="442.9053" y="-195.8" font-family="Helvetica,sans-Serif" font-size="11.00" fill="#000000">1 &gt;</text>
</a>
</g>
</g>
<!-- movement&#45;&gt;occurrence -->
<g id="edge10" class="edge">
<title>movement:w&#45;&gt;occurrence:e</title>
<path fill="none" stroke="#000000" d="M537.3873,-220.7C514.9214,-220.7 490.6474,-220.7 469.0696,-220.7"/>
<polygon fill="#000000" stroke="#000000" points="543.8431,-220.7001 551.8431,-224.3 547.8431,-220.7 551.8431,-220.7 551.8431,-220.7 551.8431,-220.7 547.8431,-220.7 551.843,-217.1 543.8431,-220.7001 543.8431,-220.7001"/>
<ellipse fill="none" stroke="#000000" cx="540.6431" cy="-220.7001" rx="3.2" ry="3.2"/>
</g>
<!-- occurrence&#45;&gt;absence_reason_category -->
<g id="edge11" class="edge">
<title>occurrence:w&#45;&gt;absence_reason_category:e</title>
<path fill="none" stroke="#000000" d="M326.2888,-244.0688C313.7703,-249.108 301.2477,-254.9795 290,-261.7 261.4995,-278.7292 267.7005,-311.7 234.5,-311.7"/>
<polygon fill="#000000" stroke="#000000" points="332.3331,-241.7702 341.0903,-242.2915 336.0719,-240.3484 339.8107,-238.9266 339.8107,-238.9266 339.8107,-238.9266 336.0719,-240.3484 338.531,-235.5617 332.3331,-241.7702 332.3331,-241.7702"/>
<ellipse fill="none" stroke="#000000" cx="329.3421" cy="-242.9077" rx="3.2" ry="3.2"/>
</g>
<!-- occurrence&#45;&gt;absence_reason -->
<g id="edge12" class="edge">
<title>occurrence:w&#45;&gt;absence_reason:e</title>
<path fill="none" stroke="#000000" d="M326.2198,-235.4887C312.3117,-241.4793 299.3151,-249.891 290,-261.7 236.1442,-329.9744 334.4588,-650.7 247.5,-650.7"/>
<polygon fill="#000000" stroke="#000000" points="332.2456,-233.2458 340.9989,-233.829 335.9944,-231.8505 339.7431,-230.4551 339.7431,-230.4551 339.7431,-230.4551 335.9944,-231.8505 338.4873,-227.0813 332.2456,-233.2458 332.2456,-233.2458"/>
<ellipse fill="none" stroke="#000000" cx="329.2467" cy="-234.3621" rx="3.2" ry="3.2"/>
</g>
<!-- occurrence&#45;&gt;absence_sub_type -->
<g id="edge13" class="edge">
<title>occurrence:w&#45;&gt;absence_sub_type:e</title>
<path fill="none" stroke="#000000" d="M326.4666,-238.0177C313.038,-243.7929 300.158,-251.4785 290,-261.7 258.7888,-293.1063 282.6127,-319.5824 257,-355.7 241.3611,-377.7531 236.5354,-393.7 209.5,-393.7"/>
<polygon fill="#000000" stroke="#000000" points="332.523,-235.7075 341.2807,-236.2197 336.2603,-234.2818 339.9976,-232.8561 339.9976,-232.8561 339.9976,-232.8561 336.2603,-234.2818 338.7145,-229.4926 332.523,-235.7075 332.523,-235.7075"/>
<ellipse fill="none" stroke="#000000" cx="329.5331" cy="-236.848" rx="3.2" ry="3.2"/>
</g>
<!-- occurrence&#45;&gt;absence_type -->
<g id="edge14" class="edge">
<title>occurrence:w&#45;&gt;absence_type:e</title>
<path fill="none" stroke="#000000" d="M326.0433,-236.4339C312.4056,-242.3514 299.5567,-250.4944 290,-261.7 238.3566,-322.254 302.2606,-372.2378 257,-437.7 238.5119,-464.44 227.0091,-475.7 194.5,-475.7"/>
<polygon fill="#000000" stroke="#000000" points="332.3657,-234.0499 341.1214,-234.5957 336.1085,-232.6385 339.8513,-231.2272 339.8513,-231.2272 339.8513,-231.2272 336.1085,-232.6385 338.5811,-227.8587 332.3657,-234.0499 332.3657,-234.0499"/>
<ellipse fill="none" stroke="#000000" cx="329.3715" cy="-235.1789" rx="3.2" ry="3.2"/>
</g>
<!-- occurrence&#45;&gt;accompanied_by -->
<g id="edge15" class="edge">
<title>occurrence:w&#45;&gt;accompanied_by:e</title>
<path fill="none" stroke="#000000" d="M326.1038,-185.9717C280.7917,-167.1507 228.0298,-147.7 203.5,-147.7"/>
<polygon fill="#000000" stroke="#000000" points="332.2041,-188.5373 338.1828,-194.9572 335.8913,-190.088 339.5785,-191.6387 339.5785,-191.6387 339.5785,-191.6387 335.8913,-190.088 340.9741,-188.3202 332.2041,-188.5373 332.2041,-188.5373"/>
<ellipse fill="none" stroke="#000000" cx="329.2543" cy="-187.2967" rx="3.2" ry="3.2"/>
</g>
<!-- occurrence&#45;&gt;transport -->
<g id="edge17" class="edge">
<title>occurrence:w&#45;&gt;transport:e</title>
<path fill="none" stroke="#000000" d="M325.0957,-225.4259C282.0307,-227.5981 227.8648,-229.7 179.5,-229.7"/>
<polygon fill="#000000" stroke="#000000" points="331.5544,-225.0897 339.7307,-228.2689 335.549,-224.8817 339.5436,-224.6737 339.5436,-224.6737 339.5436,-224.6737 335.549,-224.8817 339.3564,-221.0786 331.5544,-225.0897 331.5544,-225.0897"/>
<ellipse fill="none" stroke="#000000" cx="328.3587" cy="-225.2561" rx="3.2" ry="3.2"/>
</g>
<!-- occurrence_status -->
<g id="node11" class="node">
<title>occurrence_status</title>
<g id="a_node11"><a xlink:href="../../tables/occurrence_status.html" xlink:title="occurrence_status" target="_top">
<polygon fill="#ffffff" stroke="transparent" points="47.5,-38.2 47.5,-99.2 209.5,-99.2 209.5,-38.2 47.5,-38.2"/>
<polygon fill="#f5f5f5" stroke="transparent" points="47.5,-75.7 47.5,-98.7 209.5,-98.7 209.5,-75.7 47.5,-75.7"/>
<polygon fill="none" stroke="#000000" points="47.5,-75.7 47.5,-98.7 209.5,-98.7 209.5,-75.7 47.5,-75.7"/>
<text text-anchor="start" x="52.5" y="-84.3" font-family="Helvetica,sans-Serif" font-weight="bold" font-size="11.00" fill="#000000">occurrence_status</text>
<text text-anchor="start" x="175.0219" y="-83.8" font-family="Helvetica,sans-Serif" font-size="11.00" fill="#000000">[table]</text>
<polygon fill="none" stroke="#000000" points="47.5,-56.7 47.5,-75.7 209.5,-75.7 209.5,-56.7 47.5,-56.7"/>
<text text-anchor="start" x="50.5" y="-62.8" font-family="Helvetica,sans-Serif" font-size="11.00" fill="#000000">...</text>
<polygon fill="#ffffff" stroke="transparent" points="47.5,-37.7 47.5,-56.7 117.5,-56.7 117.5,-37.7 47.5,-37.7"/>
<polygon fill="none" stroke="#000000" points="47.5,-37.7 47.5,-56.7 117.5,-56.7 117.5,-37.7 47.5,-37.7"/>
<text text-anchor="start" x="50.5" y="-43.8" font-family="Helvetica,sans-Serif" font-size="11.00" fill="#000000"> &#160;</text>
<polygon fill="#ffffff" stroke="transparent" points="117.5,-37.7 117.5,-56.7 158.5,-56.7 158.5,-37.7 117.5,-37.7"/>
<polygon fill="none" stroke="#000000" points="117.5,-37.7 117.5,-56.7 158.5,-56.7 158.5,-37.7 117.5,-37.7"/>
<text text-anchor="start" x="149.3862" y="-43.8" font-family="Helvetica,sans-Serif" font-size="11.00" fill="#000000"> &#160;</text>
<polygon fill="#ffffff" stroke="transparent" points="158.5,-37.7 158.5,-56.7 209.5,-56.7 209.5,-37.7 158.5,-37.7"/>
<polygon fill="none" stroke="#000000" points="158.5,-37.7 158.5,-56.7 209.5,-56.7 209.5,-37.7 158.5,-37.7"/>
<text text-anchor="start" x="190.9053" y="-43.8" font-family="Helvetica,sans-Serif" font-size="11.00" fill="#000000">1 &gt;</text>
</a>
</g>
</g>
<!-- occurrence&#45;&gt;occurrence_status -->
<g id="edge16" class="edge">
<title>occurrence:w&#45;&gt;occurrence_status:e</title>
<path fill="none" stroke="#000000" d="M373.8645,-174.144C339.7271,-128.492 279.9652,-65.7 209.5,-65.7"/>
<polygon fill="#000000" stroke="#000000" points="377.6983,-179.4363 379.4763,-188.027 380.045,-182.6756 382.3917,-185.915 382.3917,-185.915 382.3917,-185.915 380.045,-182.6756 385.3071,-183.803 377.6983,-179.4363 377.6983,-179.4363"/>
<ellipse fill="none" stroke="#000000" cx="375.821" cy="-176.8449" rx="3.2" ry="3.2"/>
</g>
</g>
</svg>
