<?xml version="1.0" encoding="UTF-8" standalone="no"?>
<!DOCTYPE svg PUBLIC "-//W3C//DTD SVG 1.1//EN"
 "http://www.w3.org/Graphics/SVG/1.1/DTD/svg11.dtd">
<!-- Generated by graphviz version 2.40.1 (20161225.0304)
 -->
<!-- Title: oneDegreeRelationshipsDiagram Pages: 1 -->
<svg width="784pt" height="863pt"
 viewBox="0.00 0.00 784.00 862.89" xmlns="http://www.w3.org/2000/svg" xmlns:xlink="http://www.w3.org/1999/xlink">
<g id="graph0" class="graph" transform="scale(1 1) rotate(0) translate(4 858.888)">
<title>oneDegreeRelationshipsDiagram</title>
<polygon fill="#ffffff" stroke="transparent" points="-4,4 -4,-858.888 780,-858.888 780,4 -4,4"/>
<text text-anchor="middle" x="72.4936" y="-7.3" font-family="Helvetica,sans-Serif" font-size="11.00" fill="#000000">Generated by SchemaSpy</text>
<!-- authorisation -->
<g id="node1" class="node">
<title>authorisation</title>
<g id="a_node1"><a xlink:href="../../tables/authorisation.html" xlink:title="authorisation" target="_top">
<polygon fill="#ffffff" stroke="transparent" points="298,-503.888 298,-850.888 511,-850.888 511,-503.888 298,-503.888"/>
<polygon fill="#f5f5f5" stroke="transparent" points="298.5,-827.388 298.5,-850.388 511.5,-850.388 511.5,-827.388 298.5,-827.388"/>
<polygon fill="none" stroke="#000000" points="298.5,-827.388 298.5,-850.388 511.5,-850.388 511.5,-827.388 298.5,-827.388"/>
<text text-anchor="start" x="303.5" y="-835.988" font-family="Helvetica,sans-Serif" font-weight="bold" font-size="11.00" fill="#000000">authorisation</text>
<text text-anchor="start" x="476.5437" y="-835.488" font-family="Helvetica,sans-Serif" font-size="11.00" fill="#000000">[table]</text>
<polygon fill="none" stroke="#000000" points="298.5,-805.388 298.5,-827.388 511.5,-827.388 511.5,-805.388 298.5,-805.388"/>
<image xlink:href="../../images/primaryKeys.png" width="11px" height="12px" preserveAspectRatio="xMinYMin meet" x="303.5" y="-822.388"/>
<text text-anchor="start" x="318.5" y="-812.488" font-family="Helvetica,sans-Serif" font-size="11.00" fill="#000000">id</text>
<polygon fill="#ffffff" stroke="transparent" points="298.5,-783.388 298.5,-805.388 511.5,-805.388 511.5,-783.388 298.5,-783.388"/>
<polygon fill="none" stroke="#000000" points="298.5,-783.388 298.5,-805.388 511.5,-805.388 511.5,-783.388 298.5,-783.388"/>
<image xlink:href="../../images/foreignKeys.png" width="11px" height="12px" preserveAspectRatio="xMinYMin meet" x="303.5" y="-800.388"/>
<text text-anchor="start" x="318.5" y="-790.488" font-family="Helvetica,sans-Serif" font-size="11.00" fill="#000000">person_identifier</text>
<polygon fill="#ffffff" stroke="transparent" points="298.5,-761.388 298.5,-783.388 511.5,-783.388 511.5,-761.388 298.5,-761.388"/>
<polygon fill="none" stroke="#000000" points="298.5,-761.388 298.5,-783.388 511.5,-783.388 511.5,-761.388 298.5,-761.388"/>
<text text-anchor="start" x="318.5" y="-768.488" font-family="Helvetica,sans-Serif" font-size="11.00" fill="#000000">prison_code</text>
<polygon fill="#ffffff" stroke="transparent" points="298.5,-739.388 298.5,-761.388 511.5,-761.388 511.5,-739.388 298.5,-739.388"/>
<polygon fill="none" stroke="#000000" points="298.5,-739.388 298.5,-761.388 511.5,-761.388 511.5,-739.388 298.5,-739.388"/>
<image xlink:href="../../images/foreignKeys.png" width="11px" height="12px" preserveAspectRatio="xMinYMin meet" x="303.5" y="-756.388"/>
<text text-anchor="start" x="318.5" y="-746.488" font-family="Helvetica,sans-Serif" font-size="11.00" fill="#000000">status_id</text>
<polygon fill="none" stroke="#000000" points="298.5,-717.388 298.5,-739.388 511.5,-739.388 511.5,-717.388 298.5,-717.388"/>
<image xlink:href="../../images/foreignKeys.png" width="11px" height="12px" preserveAspectRatio="xMinYMin meet" x="303.5" y="-734.388"/>
<text text-anchor="start" x="318.5" y="-724.488" font-family="Helvetica,sans-Serif" font-size="11.00" fill="#000000">absence_type_id</text>
<polygon fill="none" stroke="#000000" points="298.5,-695.388 298.5,-717.388 511.5,-717.388 511.5,-695.388 298.5,-695.388"/>
<image xlink:href="../../images/foreignKeys.png" width="11px" height="12px" preserveAspectRatio="xMinYMin meet" x="303.5" y="-712.388"/>
<text text-anchor="start" x="318.5" y="-702.488" font-family="Helvetica,sans-Serif" font-size="11.00" fill="#000000">absence_sub_type_id</text>
<polygon fill="none" stroke="#000000" points="298.5,-673.388 298.5,-695.388 511.5,-695.388 511.5,-673.388 298.5,-673.388"/>
<image xlink:href="../../images/foreignKeys.png" width="11px" height="12px" preserveAspectRatio="xMinYMin meet" x="303.5" y="-690.388"/>
<text text-anchor="start" x="318.5" y="-680.488" font-family="Helvetica,sans-Serif" font-size="11.00" fill="#000000">absence_reason_category_id</text>
<polygon fill="none" stroke="#000000" points="298.5,-651.388 298.5,-673.388 511.5,-673.388 511.5,-651.388 298.5,-651.388"/>
<image xlink:href="../../images/foreignKeys.png" width="11px" height="12px" preserveAspectRatio="xMinYMin meet" x="303.5" y="-668.388"/>
<text text-anchor="start" x="318.5" y="-658.488" font-family="Helvetica,sans-Serif" font-size="11.00" fill="#000000">absence_reason_id</text>
<polygon fill="none" stroke="#000000" points="298.5,-629.388 298.5,-651.388 511.5,-651.388 511.5,-629.388 298.5,-629.388"/>
<image xlink:href="../../images/foreignKeys.png" width="11px" height="12px" preserveAspectRatio="xMinYMin meet" x="303.5" y="-646.388"/>
<text text-anchor="start" x="318.5" y="-636.488" font-family="Helvetica,sans-Serif" font-size="11.00" fill="#000000">accompanied_by_id</text>
<polygon fill="none" stroke="#000000" points="298.5,-607.388 298.5,-629.388 511.5,-629.388 511.5,-607.388 298.5,-607.388"/>
<image xlink:href="../../images/foreignKeys.png" width="11px" height="12px" preserveAspectRatio="xMinYMin meet" x="303.5" y="-624.388"/>
<text text-anchor="start" x="318.5" y="-614.488" font-family="Helvetica,sans-Serif" font-size="11.00" fill="#000000">transport_id</text>
<polygon fill="#ffffff" stroke="transparent" points="298.5,-585.388 298.5,-607.388 511.5,-607.388 511.5,-585.388 298.5,-585.388"/>
<polygon fill="none" stroke="#000000" points="298.5,-585.388 298.5,-607.388 511.5,-607.388 511.5,-585.388 298.5,-585.388"/>
<text text-anchor="start" x="318.5" y="-592.488" font-family="Helvetica,sans-Serif" font-size="11.00" fill="#000000">start</text>
<polygon fill="#ffffff" stroke="transparent" points="298.5,-563.388 298.5,-585.388 511.5,-585.388 511.5,-563.388 298.5,-563.388"/>
<polygon fill="none" stroke="#000000" points="298.5,-563.388 298.5,-585.388 511.5,-585.388 511.5,-563.388 298.5,-563.388"/>
<text text-anchor="start" x="318.5" y="-570.488" font-family="Helvetica,sans-Serif" font-size="11.00" fill="#000000">end</text>
<polygon fill="#ffffff" stroke="transparent" points="298.5,-541.388 298.5,-563.388 511.5,-563.388 511.5,-541.388 298.5,-541.388"/>
<polygon fill="none" stroke="#000000" points="298.5,-541.388 298.5,-563.388 511.5,-563.388 511.5,-541.388 298.5,-541.388"/>
<text text-anchor="start" x="318.5" y="-548.488" font-family="Helvetica,sans-Serif" font-size="11.00" fill="#000000">legacy_id</text>
<polygon fill="none" stroke="#000000" points="298.5,-522.388 298.5,-541.388 511.5,-541.388 511.5,-522.388 298.5,-522.388"/>
<text text-anchor="start" x="301.5" y="-528.488" font-family="Helvetica,sans-Serif" font-size="11.00" fill="#000000">...</text>
<polygon fill="#ffffff" stroke="transparent" points="298.5,-503.388 298.5,-522.388 403.5,-522.388 403.5,-503.388 298.5,-503.388"/>
<polygon fill="none" stroke="#000000" points="298.5,-503.388 298.5,-522.388 403.5,-522.388 403.5,-503.388 298.5,-503.388"/>
<text text-anchor="start" x="301.5" y="-509.488" font-family="Helvetica,sans-Serif" font-size="11.00" fill="#000000">&lt; 8</text>
<polygon fill="#ffffff" stroke="transparent" points="403.5,-503.388 403.5,-522.388 457.5,-522.388 457.5,-503.388 403.5,-503.388"/>
<polygon fill="none" stroke="#000000" points="403.5,-503.388 403.5,-522.388 457.5,-522.388 457.5,-503.388 403.5,-503.388"/>
<text text-anchor="start" x="448.3862" y="-509.488" font-family="Helvetica,sans-Serif" font-size="11.00" fill="#000000"> &#160;</text>
<polygon fill="#ffffff" stroke="transparent" points="457.5,-503.388 457.5,-522.388 511.5,-522.388 511.5,-503.388 457.5,-503.388"/>
<polygon fill="none" stroke="#000000" points="457.5,-503.388 457.5,-522.388 511.5,-522.388 511.5,-503.388 457.5,-503.388"/>
<text text-anchor="start" x="502.3862" y="-509.488" font-family="Helvetica,sans-Serif" font-size="11.00" fill="#000000"> &#160;</text>
</a>
</g>
</g>
<!-- absence_reason -->
<g id="node2" class="node">
<title>absence_reason</title>
<g id="a_node2"><a xlink:href="../../tables/absence_reason.html" xlink:title="absence_reason" target="_top">
<polygon fill="#ffffff" stroke="transparent" points="8,-152.388 8,-308.388 249,-308.388 249,-152.388 8,-152.388"/>
<polygon fill="#f5f5f5" stroke="transparent" points="10.5,-283.388 10.5,-306.388 247.5,-306.388 247.5,-283.388 10.5,-283.388"/>
<polygon fill="none" stroke="#000000" points="10.5,-283.388 10.5,-306.388 247.5,-306.388 247.5,-283.388 10.5,-283.388"/>
<text text-anchor="start" x="15.5" y="-291.988" font-family="Helvetica,sans-Serif" font-weight="bold" font-size="11.00" fill="#000000">absence_reason</text>
<text text-anchor="start" x="212.5437" y="-291.488" font-family="Helvetica,sans-Serif" font-size="11.00" fill="#000000">[table]</text>
<polygon fill="none" stroke="#000000" points="10.5,-261.388 10.5,-283.388 153.5,-283.388 153.5,-261.388 10.5,-261.388"/>
<image xlink:href="../../images/primaryKeys.png" width="11px" height="12px" preserveAspectRatio="xMinYMin meet" x="15.5" y="-278.388"/>
<text text-anchor="start" x="30.5" y="-268.488" font-family="Helvetica,sans-Serif" font-size="11.00" fill="#000000">id</text>
<polygon fill="none" stroke="#000000" points="153.5,-261.388 153.5,-283.388 247.5,-283.388 247.5,-261.388 153.5,-261.388"/>
<text text-anchor="start" x="156.4758" y="-269.088" font-family="Helvetica,sans-Serif" font-size="11.00" fill="#000000">uuid[2147483647]</text>
<polygon fill="#ffffff" stroke="transparent" points="10.5,-239.388 10.5,-261.388 153.5,-261.388 153.5,-239.388 10.5,-239.388"/>
<polygon fill="none" stroke="#000000" points="10.5,-239.388 10.5,-261.388 153.5,-261.388 153.5,-239.388 10.5,-239.388"/>
<text text-anchor="start" x="30.5" y="-246.488" font-family="Helvetica,sans-Serif" font-size="11.00" fill="#000000">code</text>
<polygon fill="none" stroke="#000000" points="153.5,-239.388 153.5,-261.388 247.5,-261.388 247.5,-239.388 153.5,-239.388"/>
<text text-anchor="start" x="156.5" y="-247.088" font-family="Helvetica,sans-Serif" font-size="11.00" fill="#000000">varchar[16]</text>
<polygon fill="none" stroke="#000000" points="10.5,-217.388 10.5,-239.388 153.5,-239.388 153.5,-217.388 10.5,-217.388"/>
<text text-anchor="start" x="30.5" y="-224.488" font-family="Helvetica,sans-Serif" font-size="11.00" fill="#000000">description</text>
<polygon fill="none" stroke="#000000" points="153.5,-217.388 153.5,-239.388 247.5,-239.388 247.5,-217.388 153.5,-217.388"/>
<text text-anchor="start" x="156.5" y="-225.088" font-family="Helvetica,sans-Serif" font-size="11.00" fill="#000000">varchar[255]</text>
<polygon fill="#ffffff" stroke="transparent" points="10.5,-195.388 10.5,-217.388 153.5,-217.388 153.5,-195.388 10.5,-195.388"/>
<polygon fill="none" stroke="#000000" points="10.5,-195.388 10.5,-217.388 153.5,-217.388 153.5,-195.388 10.5,-195.388"/>
<text text-anchor="start" x="30.5" y="-202.488" font-family="Helvetica,sans-Serif" font-size="11.00" fill="#000000">sequence_number</text>
<polygon fill="none" stroke="#000000" points="153.5,-195.388 153.5,-217.388 247.5,-217.388 247.5,-195.388 153.5,-195.388"/>
<text text-anchor="start" x="156.5" y="-203.088" font-family="Helvetica,sans-Serif" font-size="11.00" fill="#000000">int4[10]</text>
<polygon fill="none" stroke="#000000" points="10.5,-173.388 10.5,-195.388 153.5,-195.388 153.5,-173.388 10.5,-173.388"/>
<text text-anchor="start" x="30.5" y="-180.488" font-family="Helvetica,sans-Serif" font-size="11.00" fill="#000000">active</text>
<polygon fill="none" stroke="#000000" points="153.5,-173.388 153.5,-195.388 247.5,-195.388 247.5,-173.388 153.5,-173.388"/>
<text text-anchor="start" x="156.5" y="-181.088" font-family="Helvetica,sans-Serif" font-size="11.00" fill="#000000">bool[1]</text>
<polygon fill="#ffffff" stroke="transparent" points="10.5,-154.388 10.5,-173.388 86.5,-173.388 86.5,-154.388 10.5,-154.388"/>
<polygon fill="none" stroke="#000000" points="10.5,-154.388 10.5,-173.388 86.5,-173.388 86.5,-154.388 10.5,-154.388"/>
<text text-anchor="start" x="13.5" y="-160.488" font-family="Helvetica,sans-Serif" font-size="11.00" fill="#000000">&lt; 0</text>
<polygon fill="#ffffff" stroke="transparent" points="86.5,-154.388 86.5,-173.388 153.5,-173.388 153.5,-154.388 86.5,-154.388"/>
<polygon fill="none" stroke="#000000" points="86.5,-154.388 86.5,-173.388 153.5,-173.388 153.5,-154.388 86.5,-154.388"/>
<text text-anchor="start" x="144.3862" y="-160.488" font-family="Helvetica,sans-Serif" font-size="11.00" fill="#000000"> &#160;</text>
<polygon fill="#ffffff" stroke="transparent" points="153.5,-154.388 153.5,-173.388 247.5,-173.388 247.5,-154.388 153.5,-154.388"/>
<polygon fill="none" stroke="#000000" points="153.5,-154.388 153.5,-173.388 247.5,-173.388 247.5,-154.388 153.5,-154.388"/>
<text text-anchor="start" x="228.9053" y="-160.488" font-family="Helvetica,sans-Serif" font-size="11.00" fill="#000000">3 &gt;</text>
<polygon fill="none" stroke="#000000" stroke-width="2" points="9,-153.388 9,-307.388 248,-307.388 248,-153.388 9,-153.388"/>
</a>
</g>
</g>
<!-- authorisation&#45;&gt;absence_reason -->
<g id="edge1" class="edge">
<title>authorisation:w&#45;&gt;absence_reason:e</title>
<path fill="none" stroke="#000000" d="M284.4837,-658.0081C225.7465,-615.1615 329.4418,-272.388 247.5,-272.388"/>
<polygon fill="#000000" stroke="#000000" points="290.8641,-660.0019 297.4262,-665.8242 294.6821,-661.195 298.5,-662.388 298.5,-662.388 298.5,-662.388 294.6821,-661.195 299.5738,-658.9519 290.8641,-660.0019 290.8641,-660.0019"/>
<ellipse fill="none" stroke="#000000" cx="287.8098" cy="-659.0474" rx="3.2" ry="3.2"/>
</g>
<!-- movement -->
<g id="node3" class="node">
<title>movement</title>
<g id="a_node3"><a xlink:href="../../tables/movement.html" xlink:title="movement" target="_top">
<polygon fill="#ffffff" stroke="transparent" points="560,-142.888 560,-357.888 768,-357.888 768,-142.888 560,-142.888"/>
<polygon fill="#f5f5f5" stroke="transparent" points="560,-334.388 560,-357.388 768,-357.388 768,-334.388 560,-334.388"/>
<polygon fill="none" stroke="#000000" points="560,-334.388 560,-357.388 768,-357.388 768,-334.388 560,-334.388"/>
<text text-anchor="start" x="565" y="-342.988" font-family="Helvetica,sans-Serif" font-weight="bold" font-size="11.00" fill="#000000">movement</text>
<text text-anchor="start" x="733.0437" y="-342.488" font-family="Helvetica,sans-Serif" font-size="11.00" fill="#000000">[table]</text>
<polygon fill="none" stroke="#000000" points="560,-312.388 560,-334.388 768,-334.388 768,-312.388 560,-312.388"/>
<image xlink:href="../../images/primaryKeys.png" width="11px" height="12px" preserveAspectRatio="xMinYMin meet" x="565" y="-329.388"/>
<text text-anchor="start" x="580" y="-319.488" font-family="Helvetica,sans-Serif" font-size="11.00" fill="#000000">id</text>
<polygon fill="#ffffff" stroke="transparent" points="560,-290.388 560,-312.388 768,-312.388 768,-290.388 560,-290.388"/>
<polygon fill="none" stroke="#000000" points="560,-290.388 560,-312.388 768,-312.388 768,-290.388 560,-290.388"/>
<image xlink:href="../../images/foreignKeys.png" width="11px" height="12px" preserveAspectRatio="xMinYMin meet" x="565" y="-307.388"/>
<text text-anchor="start" x="580" y="-297.488" font-family="Helvetica,sans-Serif" font-size="11.00" fill="#000000">person_identifier</text>
<polygon fill="#ffffff" stroke="transparent" points="560,-268.388 560,-290.388 768,-290.388 768,-268.388 560,-268.388"/>
<polygon fill="none" stroke="#000000" points="560,-268.388 560,-290.388 768,-290.388 768,-268.388 560,-268.388"/>
<image xlink:href="../../images/foreignKeys.png" width="11px" height="12px" preserveAspectRatio="xMinYMin meet" x="565" y="-285.388"/>
<text text-anchor="start" x="580" y="-275.488" font-family="Helvetica,sans-Serif" font-size="11.00" fill="#000000">occurrence_id</text>
<polygon fill="#ffffff" stroke="transparent" points="560,-246.388 560,-268.388 768,-268.388 768,-246.388 560,-246.388"/>
<polygon fill="none" stroke="#000000" points="560,-246.388 560,-268.388 768,-268.388 768,-246.388 560,-246.388"/>
<text text-anchor="start" x="580" y="-253.488" font-family="Helvetica,sans-Serif" font-size="11.00" fill="#000000">occurred_at</text>
<polygon fill="none" stroke="#000000" points="560,-224.388 560,-246.388 768,-246.388 768,-224.388 560,-224.388"/>
<image xlink:href="../../images/foreignKeys.png" width="11px" height="12px" preserveAspectRatio="xMinYMin meet" x="565" y="-241.388"/>
<text text-anchor="start" x="580" y="-231.488" font-family="Helvetica,sans-Serif" font-size="11.00" fill="#000000">absence_reason_id</text>
<polygon fill="none" stroke="#000000" points="560,-202.388 560,-224.388 768,-224.388 768,-202.388 560,-202.388"/>
<image xlink:href="../../images/foreignKeys.png" width="11px" height="12px" preserveAspectRatio="xMinYMin meet" x="565" y="-219.388"/>
<text text-anchor="start" x="580" y="-209.488" font-family="Helvetica,sans-Serif" font-size="11.00" fill="#000000">accompanied_by_id</text>
<polygon fill="#ffffff" stroke="transparent" points="560,-180.388 560,-202.388 768,-202.388 768,-180.388 560,-180.388"/>
<polygon fill="none" stroke="#000000" points="560,-180.388 560,-202.388 768,-202.388 768,-180.388 560,-180.388"/>
<text text-anchor="start" x="580" y="-187.488" font-family="Helvetica,sans-Serif" font-size="11.00" fill="#000000">legacy_id</text>
<polygon fill="none" stroke="#000000" points="560,-161.388 560,-180.388 768,-180.388 768,-161.388 560,-161.388"/>
<text text-anchor="start" x="563" y="-167.488" font-family="Helvetica,sans-Serif" font-size="11.00" fill="#000000">...</text>
<polygon fill="#ffffff" stroke="transparent" points="560,-142.388 560,-161.388 662,-161.388 662,-142.388 560,-142.388"/>
<polygon fill="none" stroke="#000000" points="560,-142.388 560,-161.388 662,-161.388 662,-142.388 560,-142.388"/>
<text text-anchor="start" x="563" y="-148.488" font-family="Helvetica,sans-Serif" font-size="11.00" fill="#000000">&lt; 4</text>
<polygon fill="#ffffff" stroke="transparent" points="662,-142.388 662,-161.388 715,-161.388 715,-142.388 662,-142.388"/>
<polygon fill="none" stroke="#000000" points="662,-142.388 662,-161.388 715,-161.388 715,-142.388 662,-142.388"/>
<text text-anchor="start" x="705.8862" y="-148.488" font-family="Helvetica,sans-Serif" font-size="11.00" fill="#000000"> &#160;</text>
<polygon fill="#ffffff" stroke="transparent" points="715,-142.388 715,-161.388 768,-161.388 768,-142.388 715,-142.388"/>
<polygon fill="none" stroke="#000000" points="715,-142.388 715,-161.388 768,-161.388 768,-142.388 715,-142.388"/>
<text text-anchor="start" x="758.8862" y="-148.488" font-family="Helvetica,sans-Serif" font-size="11.00" fill="#000000"> &#160;</text>
</a>
</g>
</g>
<!-- movement&#45;&gt;absence_reason -->
<g id="edge2" class="edge">
<title>movement:w&#45;&gt;absence_reason:e</title>
<path fill="none" stroke="#000000" d="M545.5702,-233.2491C502.322,-217.6592 570.5509,-121.01 519,-81.388 438.3039,-19.365 369.3997,-17.7139 290,-81.388 222.1561,-135.795 334.465,-272.388 247.5,-272.388"/>
<polygon fill="#000000" stroke="#000000" points="552.0865,-234.2149 559.4721,-238.9491 556.0432,-234.8015 560,-235.388 560,-235.388 560,-235.388 556.0432,-234.8015 560.5279,-231.8269 552.0865,-234.2149 552.0865,-234.2149"/>
<ellipse fill="none" stroke="#000000" cx="548.9211" cy="-233.7457" rx="3.2" ry="3.2"/>
</g>
<!-- occurrence -->
<g id="node4" class="node">
<title>occurrence</title>
<g id="a_node4"><a xlink:href="../../tables/occurrence.html" xlink:title="occurrence" target="_top">
<polygon fill="#ffffff" stroke="transparent" points="298,-91.888 298,-482.888 511,-482.888 511,-91.888 298,-91.888"/>
<polygon fill="#f5f5f5" stroke="transparent" points="298.5,-459.388 298.5,-482.388 511.5,-482.388 511.5,-459.388 298.5,-459.388"/>
<polygon fill="none" stroke="#000000" points="298.5,-459.388 298.5,-482.388 511.5,-482.388 511.5,-459.388 298.5,-459.388"/>
<text text-anchor="start" x="303.5" y="-467.988" font-family="Helvetica,sans-Serif" font-weight="bold" font-size="11.00" fill="#000000">occurrence</text>
<text text-anchor="start" x="476.5437" y="-467.488" font-family="Helvetica,sans-Serif" font-size="11.00" fill="#000000">[table]</text>
<polygon fill="none" stroke="#000000" points="298.5,-437.388 298.5,-459.388 511.5,-459.388 511.5,-437.388 298.5,-437.388"/>
<image xlink:href="../../images/primaryKeys.png" width="11px" height="12px" preserveAspectRatio="xMinYMin meet" x="303.5" y="-454.388"/>
<text text-anchor="start" x="318.5" y="-444.488" font-family="Helvetica,sans-Serif" font-size="11.00" fill="#000000">id</text>
<polygon fill="#ffffff" stroke="transparent" points="298.5,-415.388 298.5,-437.388 511.5,-437.388 511.5,-415.388 298.5,-415.388"/>
<polygon fill="none" stroke="#000000" points="298.5,-415.388 298.5,-437.388 511.5,-437.388 511.5,-415.388 298.5,-415.388"/>
<image xlink:href="../../images/foreignKeys.png" width="11px" height="12px" preserveAspectRatio="xMinYMin meet" x="303.5" y="-432.388"/>
<text text-anchor="start" x="318.5" y="-422.488" font-family="Helvetica,sans-Serif" font-size="11.00" fill="#000000">person_identifier</text>
<polygon fill="#ffffff" stroke="transparent" points="298.5,-393.388 298.5,-415.388 511.5,-415.388 511.5,-393.388 298.5,-393.388"/>
<polygon fill="none" stroke="#000000" points="298.5,-393.388 298.5,-415.388 511.5,-415.388 511.5,-393.388 298.5,-393.388"/>
<text text-anchor="start" x="318.5" y="-400.488" font-family="Helvetica,sans-Serif" font-size="11.00" fill="#000000">prison_code</text>
<polygon fill="#ffffff" stroke="transparent" points="298.5,-371.388 298.5,-393.388 511.5,-393.388 511.5,-371.388 298.5,-371.388"/>
<polygon fill="none" stroke="#000000" points="298.5,-371.388 298.5,-393.388 511.5,-393.388 511.5,-371.388 298.5,-371.388"/>
<text text-anchor="start" x="318.5" y="-378.488" font-family="Helvetica,sans-Serif" font-size="11.00" fill="#000000">authorisation_id</text>
<polygon fill="#ffffff" stroke="transparent" points="298.5,-349.388 298.5,-371.388 511.5,-371.388 511.5,-349.388 298.5,-349.388"/>
<polygon fill="none" stroke="#000000" points="298.5,-349.388 298.5,-371.388 511.5,-371.388 511.5,-349.388 298.5,-349.388"/>
<image xlink:href="../../images/foreignKeys.png" width="11px" height="12px" preserveAspectRatio="xMinYMin meet" x="303.5" y="-366.388"/>
<text text-anchor="start" x="318.5" y="-356.488" font-family="Helvetica,sans-Serif" font-size="11.00" fill="#000000">status_id</text>
<polygon fill="none" stroke="#000000" points="298.5,-327.388 298.5,-349.388 511.5,-349.388 511.5,-327.388 298.5,-327.388"/>
<image xlink:href="../../images/foreignKeys.png" width="11px" height="12px" preserveAspectRatio="xMinYMin meet" x="303.5" y="-344.388"/>
<text text-anchor="start" x="318.5" y="-334.488" font-family="Helvetica,sans-Serif" font-size="11.00" fill="#000000">absence_type_id</text>
<polygon fill="none" stroke="#000000" points="298.5,-305.388 298.5,-327.388 511.5,-327.388 511.5,-305.388 298.5,-305.388"/>
<image xlink:href="../../images/foreignKeys.png" width="11px" height="12px" preserveAspectRatio="xMinYMin meet" x="303.5" y="-322.388"/>
<text text-anchor="start" x="318.5" y="-312.488" font-family="Helvetica,sans-Serif" font-size="11.00" fill="#000000">absence_sub_type_id</text>
<polygon fill="none" stroke="#000000" points="298.5,-283.388 298.5,-305.388 511.5,-305.388 511.5,-283.388 298.5,-283.388"/>
<image xlink:href="../../images/foreignKeys.png" width="11px" height="12px" preserveAspectRatio="xMinYMin meet" x="303.5" y="-300.388"/>
<text text-anchor="start" x="318.5" y="-290.488" font-family="Helvetica,sans-Serif" font-size="11.00" fill="#000000">absence_reason_category_id</text>
<polygon fill="none" stroke="#000000" points="298.5,-261.388 298.5,-283.388 511.5,-283.388 511.5,-261.388 298.5,-261.388"/>
<image xlink:href="../../images/foreignKeys.png" width="11px" height="12px" preserveAspectRatio="xMinYMin meet" x="303.5" y="-278.388"/>
<text text-anchor="start" x="318.5" y="-268.488" font-family="Helvetica,sans-Serif" font-size="11.00" fill="#000000">absence_reason_id</text>
<polygon fill="none" stroke="#000000" points="298.5,-239.388 298.5,-261.388 511.5,-261.388 511.5,-239.388 298.5,-239.388"/>
<image xlink:href="../../images/foreignKeys.png" width="11px" height="12px" preserveAspectRatio="xMinYMin meet" x="303.5" y="-256.388"/>
<text text-anchor="start" x="318.5" y="-246.488" font-family="Helvetica,sans-Serif" font-size="11.00" fill="#000000">accompanied_by_id</text>
<polygon fill="none" stroke="#000000" points="298.5,-217.388 298.5,-239.388 511.5,-239.388 511.5,-217.388 298.5,-217.388"/>
<image xlink:href="../../images/foreignKeys.png" width="11px" height="12px" preserveAspectRatio="xMinYMin meet" x="303.5" y="-234.388"/>
<text text-anchor="start" x="318.5" y="-224.488" font-family="Helvetica,sans-Serif" font-size="11.00" fill="#000000">transport_id</text>
<polygon fill="#ffffff" stroke="transparent" points="298.5,-195.388 298.5,-217.388 511.5,-217.388 511.5,-195.388 298.5,-195.388"/>
<polygon fill="none" stroke="#000000" points="298.5,-195.388 298.5,-217.388 511.5,-217.388 511.5,-195.388 298.5,-195.388"/>
<text text-anchor="start" x="318.5" y="-202.488" font-family="Helvetica,sans-Serif" font-size="11.00" fill="#000000">start</text>
<polygon fill="#ffffff" stroke="transparent" points="298.5,-173.388 298.5,-195.388 511.5,-195.388 511.5,-173.388 298.5,-173.388"/>
<polygon fill="none" stroke="#000000" points="298.5,-173.388 298.5,-195.388 511.5,-195.388 511.5,-173.388 298.5,-173.388"/>
<text text-anchor="start" x="318.5" y="-180.488" font-family="Helvetica,sans-Serif" font-size="11.00" fill="#000000">end</text>
<polygon fill="#ffffff" stroke="transparent" points="298.5,-151.388 298.5,-173.388 511.5,-173.388 511.5,-151.388 298.5,-151.388"/>
<polygon fill="none" stroke="#000000" points="298.5,-151.388 298.5,-173.388 511.5,-173.388 511.5,-151.388 298.5,-151.388"/>
<text text-anchor="start" x="318.5" y="-158.488" font-family="Helvetica,sans-Serif" font-size="11.00" fill="#000000">legacy_id</text>
<polygon fill="#ffffff" stroke="transparent" points="298.5,-129.388 298.5,-151.388 511.5,-151.388 511.5,-129.388 298.5,-129.388"/>
<polygon fill="none" stroke="#000000" points="298.5,-129.388 298.5,-151.388 511.5,-151.388 511.5,-129.388 298.5,-129.388"/>
<text text-anchor="start" x="318.5" y="-136.488" font-family="Helvetica,sans-Serif" font-size="11.00" fill="#000000">dps_only</text>
<polygon fill="none" stroke="#000000" points="298.5,-110.388 298.5,-129.388 511.5,-129.388 511.5,-110.388 298.5,-110.388"/>
<text text-anchor="start" x="301.5" y="-116.488" font-family="Helvetica,sans-Serif" font-size="11.00" fill="#000000">...</text>
<polygon fill="#ffffff" stroke="transparent" points="298.5,-91.388 298.5,-110.388 398.5,-110.388 398.5,-91.388 298.5,-91.388"/>
<polygon fill="none" stroke="#000000" points="298.5,-91.388 298.5,-110.388 398.5,-110.388 398.5,-91.388 298.5,-91.388"/>
<text text-anchor="start" x="301.5" y="-97.488" font-family="Helvetica,sans-Serif" font-size="11.00" fill="#000000">&lt; 8</text>
<polygon fill="#ffffff" stroke="transparent" points="398.5,-91.388 398.5,-110.388 450.5,-110.388 450.5,-91.388 398.5,-91.388"/>
<polygon fill="none" stroke="#000000" points="398.5,-91.388 398.5,-110.388 450.5,-110.388 450.5,-91.388 398.5,-91.388"/>
<text text-anchor="start" x="441.3862" y="-97.488" font-family="Helvetica,sans-Serif" font-size="11.00" fill="#000000"> &#160;</text>
<polygon fill="#ffffff" stroke="transparent" points="450.5,-91.388 450.5,-110.388 511.5,-110.388 511.5,-91.388 450.5,-91.388"/>
<polygon fill="none" stroke="#000000" points="450.5,-91.388 450.5,-110.388 511.5,-110.388 511.5,-91.388 450.5,-91.388"/>
<text text-anchor="start" x="492.9053" y="-97.488" font-family="Helvetica,sans-Serif" font-size="11.00" fill="#000000">1 &gt;</text>
</a>
</g>
</g>
<!-- movement&#45;&gt;occurrence -->
<g id="edge3" class="edge">
<title>movement:w&#45;&gt;occurrence:e</title>
<path fill="none" stroke="#000000" d="M545.5215,-282.0426C496.8323,-303.543 583.8433,-448.388 511.5,-448.388"/>
<polygon fill="#000000" stroke="#000000" points="552.1312,-280.8308 560.6492,-282.929 556.0656,-280.1094 560,-279.388 560,-279.388 560,-279.388 556.0656,-280.1094 559.3508,-275.8471 552.1312,-280.8308 552.1312,-280.8308"/>
<ellipse fill="none" stroke="#000000" cx="548.9836" cy="-281.4079" rx="3.2" ry="3.2"/>
</g>
<!-- occurrence&#45;&gt;absence_reason -->
<g id="edge4" class="edge">
<title>occurrence:w&#45;&gt;absence_reason:e</title>
<path fill="none" stroke="#000000" d="M283.776,-272.388C271.7815,-272.388 264.3229,-272.388 247.5,-272.388"/>
<polygon fill="#000000" stroke="#000000" points="290.5,-272.3881 298.5,-275.988 294.5,-272.3881 298.5,-272.388 298.5,-272.388 298.5,-272.388 294.5,-272.3881 298.5,-268.788 290.5,-272.3881 290.5,-272.3881"/>
<ellipse fill="none" stroke="#000000" cx="287.3" cy="-272.3881" rx="3.2" ry="3.2"/>
</g>
</g>
</svg>
