<?xml version="1.0" encoding="UTF-8" standalone="no"?>
<!DOCTYPE svg PUBLIC "-//W3C//DTD SVG 1.1//EN"
 "http://www.w3.org/Graphics/SVG/1.1/DTD/svg11.dtd">
<!-- Generated by graphviz version 2.40.1 (20161225.0304)
 -->
<!-- Title: oneDegreeRelationshipsDiagram Pages: 1 -->
<svg width="784pt" height="862pt"
 viewBox="0.00 0.00 784.00 862.18" xmlns="http://www.w3.org/2000/svg" xmlns:xlink="http://www.w3.org/1999/xlink">
<g id="graph0" class="graph" transform="scale(1 1) rotate(0) translate(4 858.1785)">
<title>oneDegreeRelationshipsDiagram</title>
<polygon fill="#ffffff" stroke="transparent" points="-4,4 -4,-858.1785 780,-858.1785 780,4 -4,4"/>
<text text-anchor="middle" x="72.4936" y="-7.3" font-family="Helvetica,sans-Serif" font-size="11.00" fill="#000000">Generated by SchemaSpy</text>
<!-- authorisation -->
<g id="node1" class="node">
<title>authorisation</title>
<g id="a_node1"><a xlink:href="../../tables/authorisation.html" xlink:title="authorisation" target="_top">
<polygon fill="#ffffff" stroke="transparent" points="298,-503.1785 298,-850.1785 511,-850.1785 511,-503.1785 298,-503.1785"/>
<polygon fill="#f5f5f5" stroke="transparent" points="298.5,-826.6785 298.5,-849.6785 511.5,-849.6785 511.5,-826.6785 298.5,-826.6785"/>
<polygon fill="none" stroke="#000000" points="298.5,-826.6785 298.5,-849.6785 511.5,-849.6785 511.5,-826.6785 298.5,-826.6785"/>
<text text-anchor="start" x="303.5" y="-835.2785" font-family="Helvetica,sans-Serif" font-weight="bold" font-size="11.00" fill="#000000">authorisation</text>
<text text-anchor="start" x="476.5437" y="-834.7785" font-family="Helvetica,sans-Serif" font-size="11.00" fill="#000000">[table]</text>
<polygon fill="none" stroke="#000000" points="298.5,-804.6785 298.5,-826.6785 511.5,-826.6785 511.5,-804.6785 298.5,-804.6785"/>
<image xlink:href="../../images/primaryKeys.png" width="11px" height="12px" preserveAspectRatio="xMinYMin meet" x="303.5" y="-821.678"/>
<text text-anchor="start" x="318.5" y="-811.7785" font-family="Helvetica,sans-Serif" font-size="11.00" fill="#000000">id</text>
<polygon fill="#ffffff" stroke="transparent" points="298.5,-782.6785 298.5,-804.6785 511.5,-804.6785 511.5,-782.6785 298.5,-782.6785"/>
<polygon fill="none" stroke="#000000" points="298.5,-782.6785 298.5,-804.6785 511.5,-804.6785 511.5,-782.6785 298.5,-782.6785"/>
<image xlink:href="../../images/foreignKeys.png" width="11px" height="12px" preserveAspectRatio="xMinYMin meet" x="303.5" y="-799.678"/>
<text text-anchor="start" x="318.5" y="-789.7785" font-family="Helvetica,sans-Serif" font-size="11.00" fill="#000000">person_identifier</text>
<polygon fill="#ffffff" stroke="transparent" points="298.5,-760.6785 298.5,-782.6785 511.5,-782.6785 511.5,-760.6785 298.5,-760.6785"/>
<polygon fill="none" stroke="#000000" points="298.5,-760.6785 298.5,-782.6785 511.5,-782.6785 511.5,-760.6785 298.5,-760.6785"/>
<text text-anchor="start" x="318.5" y="-767.7785" font-family="Helvetica,sans-Serif" font-size="11.00" fill="#000000">prison_code</text>
<polygon fill="#ffffff" stroke="transparent" points="298.5,-738.6785 298.5,-760.6785 511.5,-760.6785 511.5,-738.6785 298.5,-738.6785"/>
<polygon fill="none" stroke="#000000" points="298.5,-738.6785 298.5,-760.6785 511.5,-760.6785 511.5,-738.6785 298.5,-738.6785"/>
<image xlink:href="../../images/foreignKeys.png" width="11px" height="12px" preserveAspectRatio="xMinYMin meet" x="303.5" y="-755.678"/>
<text text-anchor="start" x="318.5" y="-745.7785" font-family="Helvetica,sans-Serif" font-size="11.00" fill="#000000">status_id</text>
<polygon fill="none" stroke="#000000" points="298.5,-716.6785 298.5,-738.6785 511.5,-738.6785 511.5,-716.6785 298.5,-716.6785"/>
<image xlink:href="../../images/foreignKeys.png" width="11px" height="12px" preserveAspectRatio="xMinYMin meet" x="303.5" y="-733.678"/>
<text text-anchor="start" x="318.5" y="-723.7785" font-family="Helvetica,sans-Serif" font-size="11.00" fill="#000000">absence_type_id</text>
<polygon fill="none" stroke="#000000" points="298.5,-694.6785 298.5,-716.6785 511.5,-716.6785 511.5,-694.6785 298.5,-694.6785"/>
<image xlink:href="../../images/foreignKeys.png" width="11px" height="12px" preserveAspectRatio="xMinYMin meet" x="303.5" y="-711.678"/>
<text text-anchor="start" x="318.5" y="-701.7785" font-family="Helvetica,sans-Serif" font-size="11.00" fill="#000000">absence_sub_type_id</text>
<polygon fill="none" stroke="#000000" points="298.5,-672.6785 298.5,-694.6785 511.5,-694.6785 511.5,-672.6785 298.5,-672.6785"/>
<image xlink:href="../../images/foreignKeys.png" width="11px" height="12px" preserveAspectRatio="xMinYMin meet" x="303.5" y="-689.678"/>
<text text-anchor="start" x="318.5" y="-679.7785" font-family="Helvetica,sans-Serif" font-size="11.00" fill="#000000">absence_reason_category_id</text>
<polygon fill="none" stroke="#000000" points="298.5,-650.6785 298.5,-672.6785 511.5,-672.6785 511.5,-650.6785 298.5,-650.6785"/>
<image xlink:href="../../images/foreignKeys.png" width="11px" height="12px" preserveAspectRatio="xMinYMin meet" x="303.5" y="-667.678"/>
<text text-anchor="start" x="318.5" y="-657.7785" font-family="Helvetica,sans-Serif" font-size="11.00" fill="#000000">absence_reason_id</text>
<polygon fill="none" stroke="#000000" points="298.5,-628.6785 298.5,-650.6785 511.5,-650.6785 511.5,-628.6785 298.5,-628.6785"/>
<image xlink:href="../../images/foreignKeys.png" width="11px" height="12px" preserveAspectRatio="xMinYMin meet" x="303.5" y="-645.678"/>
<text text-anchor="start" x="318.5" y="-635.7785" font-family="Helvetica,sans-Serif" font-size="11.00" fill="#000000">accompanied_by_id</text>
<polygon fill="none" stroke="#000000" points="298.5,-606.6785 298.5,-628.6785 511.5,-628.6785 511.5,-606.6785 298.5,-606.6785"/>
<image xlink:href="../../images/foreignKeys.png" width="11px" height="12px" preserveAspectRatio="xMinYMin meet" x="303.5" y="-623.678"/>
<text text-anchor="start" x="318.5" y="-613.7785" font-family="Helvetica,sans-Serif" font-size="11.00" fill="#000000">transport_id</text>
<polygon fill="#ffffff" stroke="transparent" points="298.5,-584.6785 298.5,-606.6785 511.5,-606.6785 511.5,-584.6785 298.5,-584.6785"/>
<polygon fill="none" stroke="#000000" points="298.5,-584.6785 298.5,-606.6785 511.5,-606.6785 511.5,-584.6785 298.5,-584.6785"/>
<text text-anchor="start" x="318.5" y="-591.7785" font-family="Helvetica,sans-Serif" font-size="11.00" fill="#000000">start</text>
<polygon fill="#ffffff" stroke="transparent" points="298.5,-562.6785 298.5,-584.6785 511.5,-584.6785 511.5,-562.6785 298.5,-562.6785"/>
<polygon fill="none" stroke="#000000" points="298.5,-562.6785 298.5,-584.6785 511.5,-584.6785 511.5,-562.6785 298.5,-562.6785"/>
<text text-anchor="start" x="318.5" y="-569.7785" font-family="Helvetica,sans-Serif" font-size="11.00" fill="#000000">end</text>
<polygon fill="#ffffff" stroke="transparent" points="298.5,-540.6785 298.5,-562.6785 511.5,-562.6785 511.5,-540.6785 298.5,-540.6785"/>
<polygon fill="none" stroke="#000000" points="298.5,-540.6785 298.5,-562.6785 511.5,-562.6785 511.5,-540.6785 298.5,-540.6785"/>
<text text-anchor="start" x="318.5" y="-547.7785" font-family="Helvetica,sans-Serif" font-size="11.00" fill="#000000">legacy_id</text>
<polygon fill="none" stroke="#000000" points="298.5,-521.6785 298.5,-540.6785 511.5,-540.6785 511.5,-521.6785 298.5,-521.6785"/>
<text text-anchor="start" x="301.5" y="-527.7785" font-family="Helvetica,sans-Serif" font-size="11.00" fill="#000000">...</text>
<polygon fill="#ffffff" stroke="transparent" points="298.5,-502.6785 298.5,-521.6785 403.5,-521.6785 403.5,-502.6785 298.5,-502.6785"/>
<polygon fill="none" stroke="#000000" points="298.5,-502.6785 298.5,-521.6785 403.5,-521.6785 403.5,-502.6785 298.5,-502.6785"/>
<text text-anchor="start" x="301.5" y="-508.7785" font-family="Helvetica,sans-Serif" font-size="11.00" fill="#000000">&lt; 8</text>
<polygon fill="#ffffff" stroke="transparent" points="403.5,-502.6785 403.5,-521.6785 457.5,-521.6785 457.5,-502.6785 403.5,-502.6785"/>
<polygon fill="none" stroke="#000000" points="403.5,-502.6785 403.5,-521.6785 457.5,-521.6785 457.5,-502.6785 403.5,-502.6785"/>
<text text-anchor="start" x="448.3862" y="-508.7785" font-family="Helvetica,sans-Serif" font-size="11.00" fill="#000000"> &#160;</text>
<polygon fill="#ffffff" stroke="transparent" points="457.5,-502.6785 457.5,-521.6785 511.5,-521.6785 511.5,-502.6785 457.5,-502.6785"/>
<polygon fill="none" stroke="#000000" points="457.5,-502.6785 457.5,-521.6785 511.5,-521.6785 511.5,-502.6785 457.5,-502.6785"/>
<text text-anchor="start" x="502.3862" y="-508.7785" font-family="Helvetica,sans-Serif" font-size="11.00" fill="#000000"> &#160;</text>
</a>
</g>
</g>
<!-- accompanied_by -->
<g id="node2" class="node">
<title>accompanied_by</title>
<g id="a_node2"><a xlink:href="../../tables/accompanied_by.html" xlink:title="accompanied_by" target="_top">
<polygon fill="#ffffff" stroke="transparent" points="8,-129.6785 8,-285.6785 249,-285.6785 249,-129.6785 8,-129.6785"/>
<polygon fill="#f5f5f5" stroke="transparent" points="10.5,-260.6785 10.5,-283.6785 247.5,-283.6785 247.5,-260.6785 10.5,-260.6785"/>
<polygon fill="none" stroke="#000000" points="10.5,-260.6785 10.5,-283.6785 247.5,-283.6785 247.5,-260.6785 10.5,-260.6785"/>
<text text-anchor="start" x="15.5" y="-269.2785" font-family="Helvetica,sans-Serif" font-weight="bold" font-size="11.00" fill="#000000">accompanied_by</text>
<text text-anchor="start" x="212.5437" y="-268.7785" font-family="Helvetica,sans-Serif" font-size="11.00" fill="#000000">[table]</text>
<polygon fill="none" stroke="#000000" points="10.5,-238.6785 10.5,-260.6785 153.5,-260.6785 153.5,-238.6785 10.5,-238.6785"/>
<image xlink:href="../../images/primaryKeys.png" width="11px" height="12px" preserveAspectRatio="xMinYMin meet" x="15.5" y="-255.678"/>
<text text-anchor="start" x="30.5" y="-245.7785" font-family="Helvetica,sans-Serif" font-size="11.00" fill="#000000">id</text>
<polygon fill="none" stroke="#000000" points="153.5,-238.6785 153.5,-260.6785 247.5,-260.6785 247.5,-238.6785 153.5,-238.6785"/>
<text text-anchor="start" x="156.4758" y="-246.3785" font-family="Helvetica,sans-Serif" font-size="11.00" fill="#000000">uuid[2147483647]</text>
<polygon fill="#ffffff" stroke="transparent" points="10.5,-216.6785 10.5,-238.6785 153.5,-238.6785 153.5,-216.6785 10.5,-216.6785"/>
<polygon fill="none" stroke="#000000" points="10.5,-216.6785 10.5,-238.6785 153.5,-238.6785 153.5,-216.6785 10.5,-216.6785"/>
<text text-anchor="start" x="30.5" y="-223.7785" font-family="Helvetica,sans-Serif" font-size="11.00" fill="#000000">code</text>
<polygon fill="none" stroke="#000000" points="153.5,-216.6785 153.5,-238.6785 247.5,-238.6785 247.5,-216.6785 153.5,-216.6785"/>
<text text-anchor="start" x="156.5" y="-224.3785" font-family="Helvetica,sans-Serif" font-size="11.00" fill="#000000">varchar[16]</text>
<polygon fill="none" stroke="#000000" points="10.5,-194.6785 10.5,-216.6785 153.5,-216.6785 153.5,-194.6785 10.5,-194.6785"/>
<text text-anchor="start" x="30.5" y="-201.7785" font-family="Helvetica,sans-Serif" font-size="11.00" fill="#000000">description</text>
<polygon fill="none" stroke="#000000" points="153.5,-194.6785 153.5,-216.6785 247.5,-216.6785 247.5,-194.6785 153.5,-194.6785"/>
<text text-anchor="start" x="156.5" y="-202.3785" font-family="Helvetica,sans-Serif" font-size="11.00" fill="#000000">varchar[255]</text>
<polygon fill="#ffffff" stroke="transparent" points="10.5,-172.6785 10.5,-194.6785 153.5,-194.6785 153.5,-172.6785 10.5,-172.6785"/>
<polygon fill="none" stroke="#000000" points="10.5,-172.6785 10.5,-194.6785 153.5,-194.6785 153.5,-172.6785 10.5,-172.6785"/>
<text text-anchor="start" x="30.5" y="-179.7785" font-family="Helvetica,sans-Serif" font-size="11.00" fill="#000000">sequence_number</text>
<polygon fill="none" stroke="#000000" points="153.5,-172.6785 153.5,-194.6785 247.5,-194.6785 247.5,-172.6785 153.5,-172.6785"/>
<text text-anchor="start" x="156.5" y="-180.3785" font-family="Helvetica,sans-Serif" font-size="11.00" fill="#000000">int4[10]</text>
<polygon fill="none" stroke="#000000" points="10.5,-150.6785 10.5,-172.6785 153.5,-172.6785 153.5,-150.6785 10.5,-150.6785"/>
<text text-anchor="start" x="30.5" y="-157.7785" font-family="Helvetica,sans-Serif" font-size="11.00" fill="#000000">active</text>
<polygon fill="none" stroke="#000000" points="153.5,-150.6785 153.5,-172.6785 247.5,-172.6785 247.5,-150.6785 153.5,-150.6785"/>
<text text-anchor="start" x="156.5" y="-158.3785" font-family="Helvetica,sans-Serif" font-size="11.00" fill="#000000">bool[1]</text>
<polygon fill="#ffffff" stroke="transparent" points="10.5,-131.6785 10.5,-150.6785 86.5,-150.6785 86.5,-131.6785 10.5,-131.6785"/>
<polygon fill="none" stroke="#000000" points="10.5,-131.6785 10.5,-150.6785 86.5,-150.6785 86.5,-131.6785 10.5,-131.6785"/>
<text text-anchor="start" x="13.5" y="-137.7785" font-family="Helvetica,sans-Serif" font-size="11.00" fill="#000000">&lt; 0</text>
<polygon fill="#ffffff" stroke="transparent" points="86.5,-131.6785 86.5,-150.6785 153.5,-150.6785 153.5,-131.6785 86.5,-131.6785"/>
<polygon fill="none" stroke="#000000" points="86.5,-131.6785 86.5,-150.6785 153.5,-150.6785 153.5,-131.6785 86.5,-131.6785"/>
<text text-anchor="start" x="144.3862" y="-137.7785" font-family="Helvetica,sans-Serif" font-size="11.00" fill="#000000"> &#160;</text>
<polygon fill="#ffffff" stroke="transparent" points="153.5,-131.6785 153.5,-150.6785 247.5,-150.6785 247.5,-131.6785 153.5,-131.6785"/>
<polygon fill="none" stroke="#000000" points="153.5,-131.6785 153.5,-150.6785 247.5,-150.6785 247.5,-131.6785 153.5,-131.6785"/>
<text text-anchor="start" x="228.9053" y="-137.7785" font-family="Helvetica,sans-Serif" font-size="11.00" fill="#000000">3 &gt;</text>
<polygon fill="none" stroke="#000000" stroke-width="2" points="9,-130.6785 9,-284.6785 248,-284.6785 248,-130.6785 9,-130.6785"/>
</a>
</g>
</g>
<!-- authorisation&#45;&gt;accompanied_by -->
<g id="edge1" class="edge">
<title>authorisation:w&#45;&gt;accompanied_by:e</title>
<path fill="none" stroke="#000000" d="M284.4837,-635.2986C225.7465,-592.4519 329.4418,-249.6785 247.5,-249.6785"/>
<polygon fill="#000000" stroke="#000000" points="290.8641,-637.2924 297.4262,-643.1146 294.6821,-638.4854 298.5,-639.6785 298.5,-639.6785 298.5,-639.6785 294.6821,-638.4854 299.5738,-636.2423 290.8641,-637.2924 290.8641,-637.2924"/>
<ellipse fill="none" stroke="#000000" cx="287.8098" cy="-636.3379" rx="3.2" ry="3.2"/>
</g>
<!-- movement -->
<g id="node3" class="node">
<title>movement</title>
<g id="a_node3"><a xlink:href="../../tables/movement.html" xlink:title="movement" target="_top">
<polygon fill="#ffffff" stroke="transparent" points="560,-153.1785 560,-368.1785 768,-368.1785 768,-153.1785 560,-153.1785"/>
<polygon fill="#f5f5f5" stroke="transparent" points="560,-344.6785 560,-367.6785 768,-367.6785 768,-344.6785 560,-344.6785"/>
<polygon fill="none" stroke="#000000" points="560,-344.6785 560,-367.6785 768,-367.6785 768,-344.6785 560,-344.6785"/>
<text text-anchor="start" x="565" y="-353.2785" font-family="Helvetica,sans-Serif" font-weight="bold" font-size="11.00" fill="#000000">movement</text>
<text text-anchor="start" x="733.0437" y="-352.7785" font-family="Helvetica,sans-Serif" font-size="11.00" fill="#000000">[table]</text>
<polygon fill="none" stroke="#000000" points="560,-322.6785 560,-344.6785 768,-344.6785 768,-322.6785 560,-322.6785"/>
<image xlink:href="../../images/primaryKeys.png" width="11px" height="12px" preserveAspectRatio="xMinYMin meet" x="565" y="-339.678"/>
<text text-anchor="start" x="580" y="-329.7785" font-family="Helvetica,sans-Serif" font-size="11.00" fill="#000000">id</text>
<polygon fill="#ffffff" stroke="transparent" points="560,-300.6785 560,-322.6785 768,-322.6785 768,-300.6785 560,-300.6785"/>
<polygon fill="none" stroke="#000000" points="560,-300.6785 560,-322.6785 768,-322.6785 768,-300.6785 560,-300.6785"/>
<image xlink:href="../../images/foreignKeys.png" width="11px" height="12px" preserveAspectRatio="xMinYMin meet" x="565" y="-317.678"/>
<text text-anchor="start" x="580" y="-307.7785" font-family="Helvetica,sans-Serif" font-size="11.00" fill="#000000">person_identifier</text>
<polygon fill="#ffffff" stroke="transparent" points="560,-278.6785 560,-300.6785 768,-300.6785 768,-278.6785 560,-278.6785"/>
<polygon fill="none" stroke="#000000" points="560,-278.6785 560,-300.6785 768,-300.6785 768,-278.6785 560,-278.6785"/>
<image xlink:href="../../images/foreignKeys.png" width="11px" height="12px" preserveAspectRatio="xMinYMin meet" x="565" y="-295.678"/>
<text text-anchor="start" x="580" y="-285.7785" font-family="Helvetica,sans-Serif" font-size="11.00" fill="#000000">occurrence_id</text>
<polygon fill="#ffffff" stroke="transparent" points="560,-256.6785 560,-278.6785 768,-278.6785 768,-256.6785 560,-256.6785"/>
<polygon fill="none" stroke="#000000" points="560,-256.6785 560,-278.6785 768,-278.6785 768,-256.6785 560,-256.6785"/>
<text text-anchor="start" x="580" y="-263.7785" font-family="Helvetica,sans-Serif" font-size="11.00" fill="#000000">occurred_at</text>
<polygon fill="none" stroke="#000000" points="560,-234.6785 560,-256.6785 768,-256.6785 768,-234.6785 560,-234.6785"/>
<image xlink:href="../../images/foreignKeys.png" width="11px" height="12px" preserveAspectRatio="xMinYMin meet" x="565" y="-251.678"/>
<text text-anchor="start" x="580" y="-241.7785" font-family="Helvetica,sans-Serif" font-size="11.00" fill="#000000">absence_reason_id</text>
<polygon fill="none" stroke="#000000" points="560,-212.6785 560,-234.6785 768,-234.6785 768,-212.6785 560,-212.6785"/>
<image xlink:href="../../images/foreignKeys.png" width="11px" height="12px" preserveAspectRatio="xMinYMin meet" x="565" y="-229.678"/>
<text text-anchor="start" x="580" y="-219.7785" font-family="Helvetica,sans-Serif" font-size="11.00" fill="#000000">accompanied_by_id</text>
<polygon fill="#ffffff" stroke="transparent" points="560,-190.6785 560,-212.6785 768,-212.6785 768,-190.6785 560,-190.6785"/>
<polygon fill="none" stroke="#000000" points="560,-190.6785 560,-212.6785 768,-212.6785 768,-190.6785 560,-190.6785"/>
<text text-anchor="start" x="580" y="-197.7785" font-family="Helvetica,sans-Serif" font-size="11.00" fill="#000000">legacy_id</text>
<polygon fill="none" stroke="#000000" points="560,-171.6785 560,-190.6785 768,-190.6785 768,-171.6785 560,-171.6785"/>
<text text-anchor="start" x="563" y="-177.7785" font-family="Helvetica,sans-Serif" font-size="11.00" fill="#000000">...</text>
<polygon fill="#ffffff" stroke="transparent" points="560,-152.6785 560,-171.6785 662,-171.6785 662,-152.6785 560,-152.6785"/>
<polygon fill="none" stroke="#000000" points="560,-152.6785 560,-171.6785 662,-171.6785 662,-152.6785 560,-152.6785"/>
<text text-anchor="start" x="563" y="-158.7785" font-family="Helvetica,sans-Serif" font-size="11.00" fill="#000000">&lt; 4</text>
<polygon fill="#ffffff" stroke="transparent" points="662,-152.6785 662,-171.6785 715,-171.6785 715,-152.6785 662,-152.6785"/>
<polygon fill="none" stroke="#000000" points="662,-152.6785 662,-171.6785 715,-171.6785 715,-152.6785 662,-152.6785"/>
<text text-anchor="start" x="705.8862" y="-158.7785" font-family="Helvetica,sans-Serif" font-size="11.00" fill="#000000"> &#160;</text>
<polygon fill="#ffffff" stroke="transparent" points="715,-152.6785 715,-171.6785 768,-171.6785 768,-152.6785 715,-152.6785"/>
<polygon fill="none" stroke="#000000" points="715,-152.6785 715,-171.6785 768,-171.6785 768,-152.6785 715,-152.6785"/>
<text text-anchor="start" x="758.8862" y="-158.7785" font-family="Helvetica,sans-Serif" font-size="11.00" fill="#000000"> &#160;</text>
</a>
</g>
</g>
<!-- movement&#45;&gt;accompanied_by -->
<g id="edge2" class="edge">
<title>movement:w&#45;&gt;accompanied_by:e</title>
<path fill="none" stroke="#000000" d="M545.7184,-221.3998C506.5706,-206.0261 567.1614,-116.9718 519,-80.6785 437.7176,-19.4259 370.2654,-18.099 290,-80.6785 228.9205,-128.2995 324.9498,-249.6785 247.5,-249.6785"/>
<polygon fill="#000000" stroke="#000000" points="552.0999,-222.418 559.4328,-227.2335 556.05,-223.0482 560,-223.6785 560,-223.6785 560,-223.6785 556.05,-223.0482 560.5672,-220.1234 552.0999,-222.418 552.0999,-222.418"/>
<ellipse fill="none" stroke="#000000" cx="548.9399" cy="-221.9137" rx="3.2" ry="3.2"/>
</g>
<!-- occurrence -->
<g id="node4" class="node">
<title>occurrence</title>
<g id="a_node4"><a xlink:href="../../tables/occurrence.html" xlink:title="occurrence" target="_top">
<polygon fill="#ffffff" stroke="transparent" points="298,-91.1785 298,-482.1785 511,-482.1785 511,-91.1785 298,-91.1785"/>
<polygon fill="#f5f5f5" stroke="transparent" points="298.5,-458.6785 298.5,-481.6785 511.5,-481.6785 511.5,-458.6785 298.5,-458.6785"/>
<polygon fill="none" stroke="#000000" points="298.5,-458.6785 298.5,-481.6785 511.5,-481.6785 511.5,-458.6785 298.5,-458.6785"/>
<text text-anchor="start" x="303.5" y="-467.2785" font-family="Helvetica,sans-Serif" font-weight="bold" font-size="11.00" fill="#000000">occurrence</text>
<text text-anchor="start" x="476.5437" y="-466.7785" font-family="Helvetica,sans-Serif" font-size="11.00" fill="#000000">[table]</text>
<polygon fill="none" stroke="#000000" points="298.5,-436.6785 298.5,-458.6785 511.5,-458.6785 511.5,-436.6785 298.5,-436.6785"/>
<image xlink:href="../../images/primaryKeys.png" width="11px" height="12px" preserveAspectRatio="xMinYMin meet" x="303.5" y="-453.678"/>
<text text-anchor="start" x="318.5" y="-443.7785" font-family="Helvetica,sans-Serif" font-size="11.00" fill="#000000">id</text>
<polygon fill="#ffffff" stroke="transparent" points="298.5,-414.6785 298.5,-436.6785 511.5,-436.6785 511.5,-414.6785 298.5,-414.6785"/>
<polygon fill="none" stroke="#000000" points="298.5,-414.6785 298.5,-436.6785 511.5,-436.6785 511.5,-414.6785 298.5,-414.6785"/>
<image xlink:href="../../images/foreignKeys.png" width="11px" height="12px" preserveAspectRatio="xMinYMin meet" x="303.5" y="-431.678"/>
<text text-anchor="start" x="318.5" y="-421.7785" font-family="Helvetica,sans-Serif" font-size="11.00" fill="#000000">person_identifier</text>
<polygon fill="#ffffff" stroke="transparent" points="298.5,-392.6785 298.5,-414.6785 511.5,-414.6785 511.5,-392.6785 298.5,-392.6785"/>
<polygon fill="none" stroke="#000000" points="298.5,-392.6785 298.5,-414.6785 511.5,-414.6785 511.5,-392.6785 298.5,-392.6785"/>
<text text-anchor="start" x="318.5" y="-399.7785" font-family="Helvetica,sans-Serif" font-size="11.00" fill="#000000">prison_code</text>
<polygon fill="#ffffff" stroke="transparent" points="298.5,-370.6785 298.5,-392.6785 511.5,-392.6785 511.5,-370.6785 298.5,-370.6785"/>
<polygon fill="none" stroke="#000000" points="298.5,-370.6785 298.5,-392.6785 511.5,-392.6785 511.5,-370.6785 298.5,-370.6785"/>
<text text-anchor="start" x="318.5" y="-377.7785" font-family="Helvetica,sans-Serif" font-size="11.00" fill="#000000">authorisation_id</text>
<polygon fill="#ffffff" stroke="transparent" points="298.5,-348.6785 298.5,-370.6785 511.5,-370.6785 511.5,-348.6785 298.5,-348.6785"/>
<polygon fill="none" stroke="#000000" points="298.5,-348.6785 298.5,-370.6785 511.5,-370.6785 511.5,-348.6785 298.5,-348.6785"/>
<image xlink:href="../../images/foreignKeys.png" width="11px" height="12px" preserveAspectRatio="xMinYMin meet" x="303.5" y="-365.678"/>
<text text-anchor="start" x="318.5" y="-355.7785" font-family="Helvetica,sans-Serif" font-size="11.00" fill="#000000">status_id</text>
<polygon fill="none" stroke="#000000" points="298.5,-326.6785 298.5,-348.6785 511.5,-348.6785 511.5,-326.6785 298.5,-326.6785"/>
<image xlink:href="../../images/foreignKeys.png" width="11px" height="12px" preserveAspectRatio="xMinYMin meet" x="303.5" y="-343.678"/>
<text text-anchor="start" x="318.5" y="-333.7785" font-family="Helvetica,sans-Serif" font-size="11.00" fill="#000000">absence_type_id</text>
<polygon fill="none" stroke="#000000" points="298.5,-304.6785 298.5,-326.6785 511.5,-326.6785 511.5,-304.6785 298.5,-304.6785"/>
<image xlink:href="../../images/foreignKeys.png" width="11px" height="12px" preserveAspectRatio="xMinYMin meet" x="303.5" y="-321.678"/>
<text text-anchor="start" x="318.5" y="-311.7785" font-family="Helvetica,sans-Serif" font-size="11.00" fill="#000000">absence_sub_type_id</text>
<polygon fill="none" stroke="#000000" points="298.5,-282.6785 298.5,-304.6785 511.5,-304.6785 511.5,-282.6785 298.5,-282.6785"/>
<image xlink:href="../../images/foreignKeys.png" width="11px" height="12px" preserveAspectRatio="xMinYMin meet" x="303.5" y="-299.678"/>
<text text-anchor="start" x="318.5" y="-289.7785" font-family="Helvetica,sans-Serif" font-size="11.00" fill="#000000">absence_reason_category_id</text>
<polygon fill="none" stroke="#000000" points="298.5,-260.6785 298.5,-282.6785 511.5,-282.6785 511.5,-260.6785 298.5,-260.6785"/>
<image xlink:href="../../images/foreignKeys.png" width="11px" height="12px" preserveAspectRatio="xMinYMin meet" x="303.5" y="-277.678"/>
<text text-anchor="start" x="318.5" y="-267.7785" font-family="Helvetica,sans-Serif" font-size="11.00" fill="#000000">absence_reason_id</text>
<polygon fill="none" stroke="#000000" points="298.5,-238.6785 298.5,-260.6785 511.5,-260.6785 511.5,-238.6785 298.5,-238.6785"/>
<image xlink:href="../../images/foreignKeys.png" width="11px" height="12px" preserveAspectRatio="xMinYMin meet" x="303.5" y="-255.678"/>
<text text-anchor="start" x="318.5" y="-245.7785" font-family="Helvetica,sans-Serif" font-size="11.00" fill="#000000">accompanied_by_id</text>
<polygon fill="none" stroke="#000000" points="298.5,-216.6785 298.5,-238.6785 511.5,-238.6785 511.5,-216.6785 298.5,-216.6785"/>
<image xlink:href="../../images/foreignKeys.png" width="11px" height="12px" preserveAspectRatio="xMinYMin meet" x="303.5" y="-233.678"/>
<text text-anchor="start" x="318.5" y="-223.7785" font-family="Helvetica,sans-Serif" font-size="11.00" fill="#000000">transport_id</text>
<polygon fill="#ffffff" stroke="transparent" points="298.5,-194.6785 298.5,-216.6785 511.5,-216.6785 511.5,-194.6785 298.5,-194.6785"/>
<polygon fill="none" stroke="#000000" points="298.5,-194.6785 298.5,-216.6785 511.5,-216.6785 511.5,-194.6785 298.5,-194.6785"/>
<text text-anchor="start" x="318.5" y="-201.7785" font-family="Helvetica,sans-Serif" font-size="11.00" fill="#000000">start</text>
<polygon fill="#ffffff" stroke="transparent" points="298.5,-172.6785 298.5,-194.6785 511.5,-194.6785 511.5,-172.6785 298.5,-172.6785"/>
<polygon fill="none" stroke="#000000" points="298.5,-172.6785 298.5,-194.6785 511.5,-194.6785 511.5,-172.6785 298.5,-172.6785"/>
<text text-anchor="start" x="318.5" y="-179.7785" font-family="Helvetica,sans-Serif" font-size="11.00" fill="#000000">end</text>
<polygon fill="#ffffff" stroke="transparent" points="298.5,-150.6785 298.5,-172.6785 511.5,-172.6785 511.5,-150.6785 298.5,-150.6785"/>
<polygon fill="none" stroke="#000000" points="298.5,-150.6785 298.5,-172.6785 511.5,-172.6785 511.5,-150.6785 298.5,-150.6785"/>
<text text-anchor="start" x="318.5" y="-157.7785" font-family="Helvetica,sans-Serif" font-size="11.00" fill="#000000">legacy_id</text>
<polygon fill="#ffffff" stroke="transparent" points="298.5,-128.6785 298.5,-150.6785 511.5,-150.6785 511.5,-128.6785 298.5,-128.6785"/>
<polygon fill="none" stroke="#000000" points="298.5,-128.6785 298.5,-150.6785 511.5,-150.6785 511.5,-128.6785 298.5,-128.6785"/>
<text text-anchor="start" x="318.5" y="-135.7785" font-family="Helvetica,sans-Serif" font-size="11.00" fill="#000000">dps_only</text>
<polygon fill="none" stroke="#000000" points="298.5,-109.6785 298.5,-128.6785 511.5,-128.6785 511.5,-109.6785 298.5,-109.6785"/>
<text text-anchor="start" x="301.5" y="-115.7785" font-family="Helvetica,sans-Serif" font-size="11.00" fill="#000000">...</text>
<polygon fill="#ffffff" stroke="transparent" points="298.5,-90.6785 298.5,-109.6785 398.5,-109.6785 398.5,-90.6785 298.5,-90.6785"/>
<polygon fill="none" stroke="#000000" points="298.5,-90.6785 298.5,-109.6785 398.5,-109.6785 398.5,-90.6785 298.5,-90.6785"/>
<text text-anchor="start" x="301.5" y="-96.7785" font-family="Helvetica,sans-Serif" font-size="11.00" fill="#000000">&lt; 8</text>
<polygon fill="#ffffff" stroke="transparent" points="398.5,-90.6785 398.5,-109.6785 450.5,-109.6785 450.5,-90.6785 398.5,-90.6785"/>
<polygon fill="none" stroke="#000000" points="398.5,-90.6785 398.5,-109.6785 450.5,-109.6785 450.5,-90.6785 398.5,-90.6785"/>
<text text-anchor="start" x="441.3862" y="-96.7785" font-family="Helvetica,sans-Serif" font-size="11.00" fill="#000000"> &#160;</text>
<polygon fill="#ffffff" stroke="transparent" points="450.5,-90.6785 450.5,-109.6785 511.5,-109.6785 511.5,-90.6785 450.5,-90.6785"/>
<polygon fill="none" stroke="#000000" points="450.5,-90.6785 450.5,-109.6785 511.5,-109.6785 511.5,-90.6785 450.5,-90.6785"/>
<text text-anchor="start" x="492.9053" y="-96.7785" font-family="Helvetica,sans-Serif" font-size="11.00" fill="#000000">1 &gt;</text>
</a>
</g>
</g>
<!-- movement&#45;&gt;occurrence -->
<g id="edge3" class="edge">
<title>movement:w&#45;&gt;occurrence:e</title>
<path fill="none" stroke="#000000" d="M545.7668,-292.4209C500.8718,-313.4016 579.2174,-447.6785 511.5,-447.6785"/>
<polygon fill="#000000" stroke="#000000" points="552.1445,-291.1921 560.6811,-293.2135 556.0722,-290.4353 560,-289.6785 560,-289.6785 560,-289.6785 556.0722,-290.4353 559.3189,-286.1435 552.1445,-291.1921 552.1445,-291.1921"/>
<ellipse fill="none" stroke="#000000" cx="549.0023" cy="-291.7975" rx="3.2" ry="3.2"/>
</g>
<!-- occurrence&#45;&gt;accompanied_by -->
<g id="edge4" class="edge">
<title>occurrence:w&#45;&gt;accompanied_by:e</title>
<path fill="none" stroke="#000000" d="M283.776,-249.6785C271.7815,-249.6785 264.3229,-249.6785 247.5,-249.6785"/>
<polygon fill="#000000" stroke="#000000" points="290.5,-249.6785 298.5,-253.2785 294.5,-249.6785 298.5,-249.6785 298.5,-249.6785 298.5,-249.6785 294.5,-249.6785 298.5,-246.0785 290.5,-249.6785 290.5,-249.6785"/>
<ellipse fill="none" stroke="#000000" cx="287.3" cy="-249.6786" rx="3.2" ry="3.2"/>
</g>
</g>
</svg>
