<?xml version="1.0" encoding="UTF-8" standalone="no"?>
<!DOCTYPE svg PUBLIC "-//W3C//DTD SVG 1.1//EN"
 "http://www.w3.org/Graphics/SVG/1.1/DTD/svg11.dtd">
<!-- Generated by graphviz version 2.40.1 (20161225.0304)
 -->
<!-- Title: twoDegreesRelationshipsDiagram Pages: 1 -->
<svg width="686pt" height="781pt"
 viewBox="0.00 0.00 686.00 781.20" xmlns="http://www.w3.org/2000/svg" xmlns:xlink="http://www.w3.org/1999/xlink">
<g id="graph0" class="graph" transform="scale(1 1) rotate(0) translate(4 777.2)">
<title>twoDegreesRelationshipsDiagram</title>
<polygon fill="#ffffff" stroke="transparent" points="-4,4 -4,-777.2 682,-777.2 682,4 -4,4"/>
<text text-anchor="middle" x="72.4936" y="-7.3" font-family="Helvetica,sans-Serif" font-size="11.00" fill="#000000">Generated by SchemaSpy</text>
<!-- authorisation -->
<g id="node1" class="node">
<title>authorisation</title>
<g id="a_node1"><a xlink:href="../../tables/authorisation.html" xlink:title="authorisation" target="_top">
<polygon fill="#ffffff" stroke="transparent" points="298,-347.2 298,-694.2 511,-694.2 511,-347.2 298,-347.2"/>
<polygon fill="#f5f5f5" stroke="transparent" points="298.5,-670.7 298.5,-693.7 511.5,-693.7 511.5,-670.7 298.5,-670.7"/>
<polygon fill="none" stroke="#000000" points="298.5,-670.7 298.5,-693.7 511.5,-693.7 511.5,-670.7 298.5,-670.7"/>
<text text-anchor="start" x="303.5" y="-679.3" font-family="Helvetica,sans-Serif" font-weight="bold" font-size="11.00" fill="#000000">authorisation</text>
<text text-anchor="start" x="476.5437" y="-678.8" font-family="Helvetica,sans-Serif" font-size="11.00" fill="#000000">[table]</text>
<polygon fill="none" stroke="#000000" points="298.5,-648.7 298.5,-670.7 511.5,-670.7 511.5,-648.7 298.5,-648.7"/>
<image xlink:href="../../images/primaryKeys.png" width="11px" height="12px" preserveAspectRatio="xMinYMin meet" x="303.5" y="-665.7"/>
<text text-anchor="start" x="318.5" y="-655.8" font-family="Helvetica,sans-Serif" font-size="11.00" fill="#000000">id</text>
<polygon fill="#ffffff" stroke="transparent" points="298.5,-626.7 298.5,-648.7 511.5,-648.7 511.5,-626.7 298.5,-626.7"/>
<polygon fill="none" stroke="#000000" points="298.5,-626.7 298.5,-648.7 511.5,-648.7 511.5,-626.7 298.5,-626.7"/>
<text text-anchor="start" x="318.5" y="-633.8" font-family="Helvetica,sans-Serif" font-size="11.00" fill="#000000">person_identifier</text>
<polygon fill="#ffffff" stroke="transparent" points="298.5,-604.7 298.5,-626.7 511.5,-626.7 511.5,-604.7 298.5,-604.7"/>
<polygon fill="none" stroke="#000000" points="298.5,-604.7 298.5,-626.7 511.5,-626.7 511.5,-604.7 298.5,-604.7"/>
<text text-anchor="start" x="318.5" y="-611.8" font-family="Helvetica,sans-Serif" font-size="11.00" fill="#000000">prison_code</text>
<polygon fill="#ffffff" stroke="transparent" points="298.5,-582.7 298.5,-604.7 511.5,-604.7 511.5,-582.7 298.5,-582.7"/>
<polygon fill="none" stroke="#000000" points="298.5,-582.7 298.5,-604.7 511.5,-604.7 511.5,-582.7 298.5,-582.7"/>
<image xlink:href="../../images/foreignKeys.png" width="11px" height="12px" preserveAspectRatio="xMinYMin meet" x="303.5" y="-599.7"/>
<text text-anchor="start" x="318.5" y="-589.8" font-family="Helvetica,sans-Serif" font-size="11.00" fill="#000000">status_id</text>
<polygon fill="none" stroke="#000000" points="298.5,-560.7 298.5,-582.7 511.5,-582.7 511.5,-560.7 298.5,-560.7"/>
<image xlink:href="../../images/foreignKeys.png" width="11px" height="12px" preserveAspectRatio="xMinYMin meet" x="303.5" y="-577.7"/>
<text text-anchor="start" x="318.5" y="-567.8" font-family="Helvetica,sans-Serif" font-size="11.00" fill="#000000">absence_type_id</text>
<polygon fill="none" stroke="#000000" points="298.5,-538.7 298.5,-560.7 511.5,-560.7 511.5,-538.7 298.5,-538.7"/>
<image xlink:href="../../images/foreignKeys.png" width="11px" height="12px" preserveAspectRatio="xMinYMin meet" x="303.5" y="-555.7"/>
<text text-anchor="start" x="318.5" y="-545.8" font-family="Helvetica,sans-Serif" font-size="11.00" fill="#000000">absence_sub_type_id</text>
<polygon fill="none" stroke="#000000" points="298.5,-516.7 298.5,-538.7 511.5,-538.7 511.5,-516.7 298.5,-516.7"/>
<image xlink:href="../../images/foreignKeys.png" width="11px" height="12px" preserveAspectRatio="xMinYMin meet" x="303.5" y="-533.7"/>
<text text-anchor="start" x="318.5" y="-523.8" font-family="Helvetica,sans-Serif" font-size="11.00" fill="#000000">absence_reason_category_id</text>
<polygon fill="none" stroke="#000000" points="298.5,-494.7 298.5,-516.7 511.5,-516.7 511.5,-494.7 298.5,-494.7"/>
<image xlink:href="../../images/foreignKeys.png" width="11px" height="12px" preserveAspectRatio="xMinYMin meet" x="303.5" y="-511.7"/>
<text text-anchor="start" x="318.5" y="-501.8" font-family="Helvetica,sans-Serif" font-size="11.00" fill="#000000">absence_reason_id</text>
<polygon fill="none" stroke="#000000" points="298.5,-472.7 298.5,-494.7 511.5,-494.7 511.5,-472.7 298.5,-472.7"/>
<image xlink:href="../../images/foreignKeys.png" width="11px" height="12px" preserveAspectRatio="xMinYMin meet" x="303.5" y="-489.7"/>
<text text-anchor="start" x="318.5" y="-479.8" font-family="Helvetica,sans-Serif" font-size="11.00" fill="#000000">accompanied_by_id</text>
<polygon fill="none" stroke="#000000" points="298.5,-450.7 298.5,-472.7 511.5,-472.7 511.5,-450.7 298.5,-450.7"/>
<image xlink:href="../../images/foreignKeys.png" width="11px" height="12px" preserveAspectRatio="xMinYMin meet" x="303.5" y="-467.7"/>
<text text-anchor="start" x="318.5" y="-457.8" font-family="Helvetica,sans-Serif" font-size="11.00" fill="#000000">transport_id</text>
<polygon fill="#ffffff" stroke="transparent" points="298.5,-428.7 298.5,-450.7 511.5,-450.7 511.5,-428.7 298.5,-428.7"/>
<polygon fill="none" stroke="#000000" points="298.5,-428.7 298.5,-450.7 511.5,-450.7 511.5,-428.7 298.5,-428.7"/>
<text text-anchor="start" x="318.5" y="-435.8" font-family="Helvetica,sans-Serif" font-size="11.00" fill="#000000">start</text>
<polygon fill="#ffffff" stroke="transparent" points="298.5,-406.7 298.5,-428.7 511.5,-428.7 511.5,-406.7 298.5,-406.7"/>
<polygon fill="none" stroke="#000000" points="298.5,-406.7 298.5,-428.7 511.5,-428.7 511.5,-406.7 298.5,-406.7"/>
<text text-anchor="start" x="318.5" y="-413.8" font-family="Helvetica,sans-Serif" font-size="11.00" fill="#000000">end</text>
<polygon fill="#ffffff" stroke="transparent" points="298.5,-384.7 298.5,-406.7 511.5,-406.7 511.5,-384.7 298.5,-384.7"/>
<polygon fill="none" stroke="#000000" points="298.5,-384.7 298.5,-406.7 511.5,-406.7 511.5,-384.7 298.5,-384.7"/>
<text text-anchor="start" x="318.5" y="-391.8" font-family="Helvetica,sans-Serif" font-size="11.00" fill="#000000">legacy_id</text>
<polygon fill="none" stroke="#000000" points="298.5,-365.7 298.5,-384.7 511.5,-384.7 511.5,-365.7 298.5,-365.7"/>
<text text-anchor="start" x="301.5" y="-371.8" font-family="Helvetica,sans-Serif" font-size="11.00" fill="#000000">...</text>
<polygon fill="#ffffff" stroke="transparent" points="298.5,-346.7 298.5,-365.7 403.5,-365.7 403.5,-346.7 298.5,-346.7"/>
<polygon fill="none" stroke="#000000" points="298.5,-346.7 298.5,-365.7 403.5,-365.7 403.5,-346.7 298.5,-346.7"/>
<text text-anchor="start" x="301.5" y="-352.8" font-family="Helvetica,sans-Serif" font-size="11.00" fill="#000000">&lt; 7</text>
<polygon fill="#ffffff" stroke="transparent" points="403.5,-346.7 403.5,-365.7 457.5,-365.7 457.5,-346.7 403.5,-346.7"/>
<polygon fill="none" stroke="#000000" points="403.5,-346.7 403.5,-365.7 457.5,-365.7 457.5,-346.7 403.5,-346.7"/>
<text text-anchor="start" x="448.3862" y="-352.8" font-family="Helvetica,sans-Serif" font-size="11.00" fill="#000000"> &#160;</text>
<polygon fill="#ffffff" stroke="transparent" points="457.5,-346.7 457.5,-365.7 511.5,-365.7 511.5,-346.7 457.5,-346.7"/>
<polygon fill="none" stroke="#000000" points="457.5,-346.7 457.5,-365.7 511.5,-365.7 511.5,-346.7 457.5,-346.7"/>
<text text-anchor="start" x="502.3862" y="-352.8" font-family="Helvetica,sans-Serif" font-size="11.00" fill="#000000"> &#160;</text>
</a>
</g>
</g>
<!-- absence_reason_category -->
<g id="node2" class="node">
<title>absence_reason_category</title>
<g id="a_node2"><a xlink:href="../../tables/absence_reason_category.html" xlink:title="absence_reason_category" target="_top">
<polygon fill="#ffffff" stroke="transparent" points="22.5,-380.2 22.5,-441.2 234.5,-441.2 234.5,-380.2 22.5,-380.2"/>
<polygon fill="#f5f5f5" stroke="transparent" points="22.5,-417.7 22.5,-440.7 234.5,-440.7 234.5,-417.7 22.5,-417.7"/>
<polygon fill="none" stroke="#000000" points="22.5,-417.7 22.5,-440.7 234.5,-440.7 234.5,-417.7 22.5,-417.7"/>
<text text-anchor="start" x="27.5" y="-426.3" font-family="Helvetica,sans-Serif" font-weight="bold" font-size="11.00" fill="#000000">absence_reason_category</text>
<text text-anchor="start" x="200.0219" y="-425.8" font-family="Helvetica,sans-Serif" font-size="11.00" fill="#000000">[table]</text>
<polygon fill="none" stroke="#000000" points="22.5,-398.7 22.5,-417.7 234.5,-417.7 234.5,-398.7 22.5,-398.7"/>
<text text-anchor="start" x="25.5" y="-404.8" font-family="Helvetica,sans-Serif" font-size="11.00" fill="#000000">...</text>
<polygon fill="#ffffff" stroke="transparent" points="22.5,-379.7 22.5,-398.7 117.5,-398.7 117.5,-379.7 22.5,-379.7"/>
<polygon fill="none" stroke="#000000" points="22.5,-379.7 22.5,-398.7 117.5,-398.7 117.5,-379.7 22.5,-379.7"/>
<text text-anchor="start" x="25.5" y="-385.8" font-family="Helvetica,sans-Serif" font-size="11.00" fill="#000000"> &#160;</text>
<polygon fill="#ffffff" stroke="transparent" points="117.5,-379.7 117.5,-398.7 171.5,-398.7 171.5,-379.7 117.5,-379.7"/>
<polygon fill="none" stroke="#000000" points="117.5,-379.7 117.5,-398.7 171.5,-398.7 171.5,-379.7 117.5,-379.7"/>
<text text-anchor="start" x="162.3862" y="-385.8" font-family="Helvetica,sans-Serif" font-size="11.00" fill="#000000"> &#160;</text>
<polygon fill="#ffffff" stroke="transparent" points="171.5,-379.7 171.5,-398.7 234.5,-398.7 234.5,-379.7 171.5,-379.7"/>
<polygon fill="none" stroke="#000000" points="171.5,-379.7 171.5,-398.7 234.5,-398.7 234.5,-379.7 171.5,-379.7"/>
<text text-anchor="start" x="215.9053" y="-385.8" font-family="Helvetica,sans-Serif" font-size="11.00" fill="#000000">2 &gt;</text>
</a>
</g>
</g>
<!-- authorisation&#45;&gt;absence_reason_category -->
<g id="edge1" class="edge">
<title>authorisation:w&#45;&gt;absence_reason_category:e</title>
<path fill="none" stroke="#000000" d="M284.4004,-524.7337C247.691,-506.2547 289.2778,-407.7 234.5,-407.7"/>
<polygon fill="#000000" stroke="#000000" points="290.6714,-526.053 297.7588,-531.2229 294.5857,-526.8765 298.5,-527.7 298.5,-527.7 298.5,-527.7 294.5857,-526.8765 299.2412,-524.1771 290.6714,-526.053 290.6714,-526.053"/>
<ellipse fill="none" stroke="#000000" cx="287.5399" cy="-525.3941" rx="3.2" ry="3.2"/>
</g>
<!-- absence_reason -->
<g id="node3" class="node">
<title>absence_reason</title>
<g id="a_node3"><a xlink:href="../../tables/absence_reason.html" xlink:title="absence_reason" target="_top">
<polygon fill="#ffffff" stroke="transparent" points="55.5,-626.2 55.5,-687.2 201.5,-687.2 201.5,-626.2 55.5,-626.2"/>
<polygon fill="#f5f5f5" stroke="transparent" points="55.5,-663.7 55.5,-686.7 201.5,-686.7 201.5,-663.7 55.5,-663.7"/>
<polygon fill="none" stroke="#000000" points="55.5,-663.7 55.5,-686.7 201.5,-686.7 201.5,-663.7 55.5,-663.7"/>
<text text-anchor="start" x="60.5" y="-672.3" font-family="Helvetica,sans-Serif" font-weight="bold" font-size="11.00" fill="#000000">absence_reason</text>
<text text-anchor="start" x="167.0219" y="-671.8" font-family="Helvetica,sans-Serif" font-size="11.00" fill="#000000">[table]</text>
<polygon fill="none" stroke="#000000" points="55.5,-644.7 55.5,-663.7 201.5,-663.7 201.5,-644.7 55.5,-644.7"/>
<text text-anchor="start" x="58.5" y="-650.8" font-family="Helvetica,sans-Serif" font-size="11.00" fill="#000000">...</text>
<polygon fill="#ffffff" stroke="transparent" points="55.5,-625.7 55.5,-644.7 117.5,-644.7 117.5,-625.7 55.5,-625.7"/>
<polygon fill="none" stroke="#000000" points="55.5,-625.7 55.5,-644.7 117.5,-644.7 117.5,-625.7 55.5,-625.7"/>
<text text-anchor="start" x="58.5" y="-631.8" font-family="Helvetica,sans-Serif" font-size="11.00" fill="#000000"> &#160;</text>
<polygon fill="#ffffff" stroke="transparent" points="117.5,-625.7 117.5,-644.7 154.5,-644.7 154.5,-625.7 117.5,-625.7"/>
<polygon fill="none" stroke="#000000" points="117.5,-625.7 117.5,-644.7 154.5,-644.7 154.5,-625.7 117.5,-625.7"/>
<text text-anchor="start" x="145.3862" y="-631.8" font-family="Helvetica,sans-Serif" font-size="11.00" fill="#000000"> &#160;</text>
<polygon fill="#ffffff" stroke="transparent" points="154.5,-625.7 154.5,-644.7 201.5,-644.7 201.5,-625.7 154.5,-625.7"/>
<polygon fill="none" stroke="#000000" points="154.5,-625.7 154.5,-644.7 201.5,-644.7 201.5,-625.7 154.5,-625.7"/>
<text text-anchor="start" x="182.9053" y="-631.8" font-family="Helvetica,sans-Serif" font-size="11.00" fill="#000000">3 &gt;</text>
</a>
</g>
</g>
<!-- authorisation&#45;&gt;absence_reason -->
<g id="edge2" class="edge">
<title>authorisation:w&#45;&gt;absence_reason:e</title>
<path fill="none" stroke="#000000" d="M284.1622,-508.212C255.028,-520.9536 285.612,-579.2565 257,-615.7 238.5394,-639.2135 231.3945,-653.7 201.5,-653.7"/>
<polygon fill="#000000" stroke="#000000" points="290.62,-507.0806 299.1213,-509.246 294.56,-506.3903 298.5,-505.7 298.5,-505.7 298.5,-505.7 294.56,-506.3903 297.8787,-502.154 290.62,-507.0806 290.62,-507.0806"/>
<ellipse fill="none" stroke="#000000" cx="287.468" cy="-507.6328" rx="3.2" ry="3.2"/>
</g>
<!-- absence_sub_type -->
<g id="node4" class="node">
<title>absence_sub_type</title>
<g id="a_node4"><a xlink:href="../../tables/absence_sub_type.html" xlink:title="absence_sub_type" target="_top">
<polygon fill="#ffffff" stroke="transparent" points="48,-462.2 48,-523.2 209,-523.2 209,-462.2 48,-462.2"/>
<polygon fill="#f5f5f5" stroke="transparent" points="48.5,-499.7 48.5,-522.7 209.5,-522.7 209.5,-499.7 48.5,-499.7"/>
<polygon fill="none" stroke="#000000" points="48.5,-499.7 48.5,-522.7 209.5,-522.7 209.5,-499.7 48.5,-499.7"/>
<text text-anchor="start" x="53.5" y="-508.3" font-family="Helvetica,sans-Serif" font-weight="bold" font-size="11.00" fill="#000000">absence_sub_type</text>
<text text-anchor="start" x="175.0219" y="-507.8" font-family="Helvetica,sans-Serif" font-size="11.00" fill="#000000">[table]</text>
<polygon fill="none" stroke="#000000" points="48.5,-480.7 48.5,-499.7 209.5,-499.7 209.5,-480.7 48.5,-480.7"/>
<text text-anchor="start" x="51.5" y="-486.8" font-family="Helvetica,sans-Serif" font-size="11.00" fill="#000000">...</text>
<polygon fill="#ffffff" stroke="transparent" points="48.5,-461.7 48.5,-480.7 118.5,-480.7 118.5,-461.7 48.5,-461.7"/>
<polygon fill="none" stroke="#000000" points="48.5,-461.7 48.5,-480.7 118.5,-480.7 118.5,-461.7 48.5,-461.7"/>
<text text-anchor="start" x="51.5" y="-467.8" font-family="Helvetica,sans-Serif" font-size="11.00" fill="#000000"> &#160;</text>
<polygon fill="#ffffff" stroke="transparent" points="118.5,-461.7 118.5,-480.7 159.5,-480.7 159.5,-461.7 118.5,-461.7"/>
<polygon fill="none" stroke="#000000" points="118.5,-461.7 118.5,-480.7 159.5,-480.7 159.5,-461.7 118.5,-461.7"/>
<text text-anchor="start" x="150.3862" y="-467.8" font-family="Helvetica,sans-Serif" font-size="11.00" fill="#000000"> &#160;</text>
<polygon fill="#ffffff" stroke="transparent" points="159.5,-461.7 159.5,-480.7 209.5,-480.7 209.5,-461.7 159.5,-461.7"/>
<polygon fill="none" stroke="#000000" points="159.5,-461.7 159.5,-480.7 209.5,-480.7 209.5,-461.7 159.5,-461.7"/>
<text text-anchor="start" x="190.9053" y="-467.8" font-family="Helvetica,sans-Serif" font-size="11.00" fill="#000000">2 &gt;</text>
</a>
</g>
</g>
<!-- authorisation&#45;&gt;absence_sub_type -->
<g id="edge3" class="edge">
<title>authorisation:w&#45;&gt;absence_sub_type:e</title>
<path fill="none" stroke="#000000" d="M284.2138,-547.5646C251.5529,-536.8762 251.8008,-489.7 209.5,-489.7"/>
<polygon fill="#000000" stroke="#000000" points="290.5879,-548.5173 297.9678,-553.2604 294.544,-549.1086 298.5,-549.7 298.5,-549.7 298.5,-549.7 294.544,-549.1086 299.0322,-546.1396 290.5879,-548.5173 290.5879,-548.5173"/>
<ellipse fill="none" stroke="#000000" cx="287.4231" cy="-548.0442" rx="3.2" ry="3.2"/>
</g>
<!-- absence_type -->
<g id="node5" class="node">
<title>absence_type</title>
<g id="a_node5"><a xlink:href="../../tables/absence_type.html" xlink:title="absence_type" target="_top">
<polygon fill="#ffffff" stroke="transparent" points="63,-544.2 63,-605.2 194,-605.2 194,-544.2 63,-544.2"/>
<polygon fill="#f5f5f5" stroke="transparent" points="63.5,-581.7 63.5,-604.7 194.5,-604.7 194.5,-581.7 63.5,-581.7"/>
<polygon fill="none" stroke="#000000" points="63.5,-581.7 63.5,-604.7 194.5,-604.7 194.5,-581.7 63.5,-581.7"/>
<text text-anchor="start" x="68.5" y="-590.3" font-family="Helvetica,sans-Serif" font-weight="bold" font-size="11.00" fill="#000000">absence_type</text>
<text text-anchor="start" x="160.0219" y="-589.8" font-family="Helvetica,sans-Serif" font-size="11.00" fill="#000000">[table]</text>
<polygon fill="none" stroke="#000000" points="63.5,-562.7 63.5,-581.7 194.5,-581.7 194.5,-562.7 63.5,-562.7"/>
<text text-anchor="start" x="66.5" y="-568.8" font-family="Helvetica,sans-Serif" font-size="11.00" fill="#000000">...</text>
<polygon fill="#ffffff" stroke="transparent" points="63.5,-543.7 63.5,-562.7 118.5,-562.7 118.5,-543.7 63.5,-543.7"/>
<polygon fill="none" stroke="#000000" points="63.5,-543.7 63.5,-562.7 118.5,-562.7 118.5,-543.7 63.5,-543.7"/>
<text text-anchor="start" x="66.5" y="-549.8" font-family="Helvetica,sans-Serif" font-size="11.00" fill="#000000"> &#160;</text>
<polygon fill="#ffffff" stroke="transparent" points="118.5,-543.7 118.5,-562.7 151.5,-562.7 151.5,-543.7 118.5,-543.7"/>
<polygon fill="none" stroke="#000000" points="118.5,-543.7 118.5,-562.7 151.5,-562.7 151.5,-543.7 118.5,-543.7"/>
<text text-anchor="start" x="142.3862" y="-549.8" font-family="Helvetica,sans-Serif" font-size="11.00" fill="#000000"> &#160;</text>
<polygon fill="#ffffff" stroke="transparent" points="151.5,-543.7 151.5,-562.7 194.5,-562.7 194.5,-543.7 151.5,-543.7"/>
<polygon fill="none" stroke="#000000" points="151.5,-543.7 151.5,-562.7 194.5,-562.7 194.5,-543.7 151.5,-543.7"/>
<text text-anchor="start" x="175.9053" y="-549.8" font-family="Helvetica,sans-Serif" font-size="11.00" fill="#000000">2 &gt;</text>
</a>
</g>
</g>
<!-- authorisation&#45;&gt;absence_type -->
<g id="edge4" class="edge">
<title>authorisation:w&#45;&gt;absence_type:e</title>
<path fill="none" stroke="#000000" d="M284.0255,-571.7C249.2149,-571.7 235.4861,-571.7 194.5,-571.7"/>
<polygon fill="#000000" stroke="#000000" points="290.5,-571.7001 298.5,-575.3 294.5,-571.7 298.5,-571.7 298.5,-571.7 298.5,-571.7 294.5,-571.7 298.5,-568.1 290.5,-571.7001 290.5,-571.7001"/>
<ellipse fill="none" stroke="#000000" cx="287.3" cy="-571.7001" rx="3.2" ry="3.2"/>
</g>
<!-- accompanied_by -->
<g id="node6" class="node">
<title>accompanied_by</title>
<g id="a_node6"><a xlink:href="../../tables/accompanied_by.html" xlink:title="accompanied_by" target="_top">
<polygon fill="#ffffff" stroke="transparent" points="8,-120.7 8,-276.7 249,-276.7 249,-120.7 8,-120.7"/>
<polygon fill="#f5f5f5" stroke="transparent" points="10.5,-251.7 10.5,-274.7 247.5,-274.7 247.5,-251.7 10.5,-251.7"/>
<polygon fill="none" stroke="#000000" points="10.5,-251.7 10.5,-274.7 247.5,-274.7 247.5,-251.7 10.5,-251.7"/>
<text text-anchor="start" x="15.5" y="-260.3" font-family="Helvetica,sans-Serif" font-weight="bold" font-size="11.00" fill="#000000">accompanied_by</text>
<text text-anchor="start" x="212.5437" y="-259.8" font-family="Helvetica,sans-Serif" font-size="11.00" fill="#000000">[table]</text>
<polygon fill="none" stroke="#000000" points="10.5,-229.7 10.5,-251.7 153.5,-251.7 153.5,-229.7 10.5,-229.7"/>
<image xlink:href="../../images/primaryKeys.png" width="11px" height="12px" preserveAspectRatio="xMinYMin meet" x="15.5" y="-246.7"/>
<text text-anchor="start" x="30.5" y="-236.8" font-family="Helvetica,sans-Serif" font-size="11.00" fill="#000000">id</text>
<polygon fill="none" stroke="#000000" points="153.5,-229.7 153.5,-251.7 247.5,-251.7 247.5,-229.7 153.5,-229.7"/>
<text text-anchor="start" x="156.4758" y="-237.4" font-family="Helvetica,sans-Serif" font-size="11.00" fill="#000000">uuid[2147483647]</text>
<polygon fill="#ffffff" stroke="transparent" points="10.5,-207.7 10.5,-229.7 153.5,-229.7 153.5,-207.7 10.5,-207.7"/>
<polygon fill="none" stroke="#000000" points="10.5,-207.7 10.5,-229.7 153.5,-229.7 153.5,-207.7 10.5,-207.7"/>
<text text-anchor="start" x="30.5" y="-214.8" font-family="Helvetica,sans-Serif" font-size="11.00" fill="#000000">code</text>
<polygon fill="none" stroke="#000000" points="153.5,-207.7 153.5,-229.7 247.5,-229.7 247.5,-207.7 153.5,-207.7"/>
<text text-anchor="start" x="156.5" y="-215.4" font-family="Helvetica,sans-Serif" font-size="11.00" fill="#000000">varchar[16]</text>
<polygon fill="none" stroke="#000000" points="10.5,-185.7 10.5,-207.7 153.5,-207.7 153.5,-185.7 10.5,-185.7"/>
<text text-anchor="start" x="30.5" y="-192.8" font-family="Helvetica,sans-Serif" font-size="11.00" fill="#000000">description</text>
<polygon fill="none" stroke="#000000" points="153.5,-185.7 153.5,-207.7 247.5,-207.7 247.5,-185.7 153.5,-185.7"/>
<text text-anchor="start" x="156.5" y="-193.4" font-family="Helvetica,sans-Serif" font-size="11.00" fill="#000000">varchar[255]</text>
<polygon fill="#ffffff" stroke="transparent" points="10.5,-163.7 10.5,-185.7 153.5,-185.7 153.5,-163.7 10.5,-163.7"/>
<polygon fill="none" stroke="#000000" points="10.5,-163.7 10.5,-185.7 153.5,-185.7 153.5,-163.7 10.5,-163.7"/>
<text text-anchor="start" x="30.5" y="-170.8" font-family="Helvetica,sans-Serif" font-size="11.00" fill="#000000">sequence_number</text>
<polygon fill="none" stroke="#000000" points="153.5,-163.7 153.5,-185.7 247.5,-185.7 247.5,-163.7 153.5,-163.7"/>
<text text-anchor="start" x="156.5" y="-171.4" font-family="Helvetica,sans-Serif" font-size="11.00" fill="#000000">int4[10]</text>
<polygon fill="none" stroke="#000000" points="10.5,-141.7 10.5,-163.7 153.5,-163.7 153.5,-141.7 10.5,-141.7"/>
<text text-anchor="start" x="30.5" y="-148.8" font-family="Helvetica,sans-Serif" font-size="11.00" fill="#000000">active</text>
<polygon fill="none" stroke="#000000" points="153.5,-141.7 153.5,-163.7 247.5,-163.7 247.5,-141.7 153.5,-141.7"/>
<text text-anchor="start" x="156.5" y="-149.4" font-family="Helvetica,sans-Serif" font-size="11.00" fill="#000000">bool[1]</text>
<polygon fill="#ffffff" stroke="transparent" points="10.5,-122.7 10.5,-141.7 86.5,-141.7 86.5,-122.7 10.5,-122.7"/>
<polygon fill="none" stroke="#000000" points="10.5,-122.7 10.5,-141.7 86.5,-141.7 86.5,-122.7 10.5,-122.7"/>
<text text-anchor="start" x="13.5" y="-128.8" font-family="Helvetica,sans-Serif" font-size="11.00" fill="#000000">&lt; 0</text>
<polygon fill="#ffffff" stroke="transparent" points="86.5,-122.7 86.5,-141.7 153.5,-141.7 153.5,-122.7 86.5,-122.7"/>
<polygon fill="none" stroke="#000000" points="86.5,-122.7 86.5,-141.7 153.5,-141.7 153.5,-122.7 86.5,-122.7"/>
<text text-anchor="start" x="144.3862" y="-128.8" font-family="Helvetica,sans-Serif" font-size="11.00" fill="#000000"> &#160;</text>
<polygon fill="#ffffff" stroke="transparent" points="153.5,-122.7 153.5,-141.7 247.5,-141.7 247.5,-122.7 153.5,-122.7"/>
<polygon fill="none" stroke="#000000" points="153.5,-122.7 153.5,-141.7 247.5,-141.7 247.5,-122.7 153.5,-122.7"/>
<text text-anchor="start" x="228.9053" y="-128.8" font-family="Helvetica,sans-Serif" font-size="11.00" fill="#000000">3 &gt;</text>
<polygon fill="none" stroke="#000000" stroke-width="2" points="9,-121.7 9,-275.7 248,-275.7 248,-121.7 9,-121.7"/>
</a>
</g>
</g>
<!-- authorisation&#45;&gt;accompanied_by -->
<g id="edge5" class="edge">
<title>authorisation:w&#45;&gt;accompanied_by:e</title>
<path fill="none" stroke="#000000" d="M283.7817,-481.8837C204.6606,-459.6469 352.2491,-240.7 247.5,-240.7"/>
<polygon fill="#000000" stroke="#000000" points="290.5602,-482.7202 298.0591,-487.2729 294.5301,-483.2101 298.5,-483.7 298.5,-483.7 298.5,-483.7 294.5301,-483.2101 298.9409,-480.1271 290.5602,-482.7202 290.5602,-482.7202"/>
<ellipse fill="none" stroke="#000000" cx="287.3843" cy="-482.3282" rx="3.2" ry="3.2"/>
</g>
<!-- authorisation_status -->
<g id="node7" class="node">
<title>authorisation_status</title>
<g id="a_node7"><a xlink:href="../../tables/authorisation_status.html" xlink:title="authorisation_status" target="_top">
<polygon fill="#ffffff" stroke="transparent" points="39.5,-708.2 39.5,-769.2 217.5,-769.2 217.5,-708.2 39.5,-708.2"/>
<polygon fill="#f5f5f5" stroke="transparent" points="39.5,-745.7 39.5,-768.7 217.5,-768.7 217.5,-745.7 39.5,-745.7"/>
<polygon fill="none" stroke="#000000" points="39.5,-745.7 39.5,-768.7 217.5,-768.7 217.5,-745.7 39.5,-745.7"/>
<text text-anchor="start" x="44.5" y="-754.3" font-family="Helvetica,sans-Serif" font-weight="bold" font-size="11.00" fill="#000000">authorisation_status</text>
<text text-anchor="start" x="183.0219" y="-753.8" font-family="Helvetica,sans-Serif" font-size="11.00" fill="#000000">[table]</text>
<polygon fill="none" stroke="#000000" points="39.5,-726.7 39.5,-745.7 217.5,-745.7 217.5,-726.7 39.5,-726.7"/>
<text text-anchor="start" x="42.5" y="-732.8" font-family="Helvetica,sans-Serif" font-size="11.00" fill="#000000">...</text>
<polygon fill="#ffffff" stroke="transparent" points="39.5,-707.7 39.5,-726.7 117.5,-726.7 117.5,-707.7 39.5,-707.7"/>
<polygon fill="none" stroke="#000000" points="39.5,-707.7 39.5,-726.7 117.5,-726.7 117.5,-707.7 39.5,-707.7"/>
<text text-anchor="start" x="42.5" y="-713.8" font-family="Helvetica,sans-Serif" font-size="11.00" fill="#000000"> &#160;</text>
<polygon fill="#ffffff" stroke="transparent" points="117.5,-707.7 117.5,-726.7 162.5,-726.7 162.5,-707.7 117.5,-707.7"/>
<polygon fill="none" stroke="#000000" points="117.5,-707.7 117.5,-726.7 162.5,-726.7 162.5,-707.7 117.5,-707.7"/>
<text text-anchor="start" x="153.3862" y="-713.8" font-family="Helvetica,sans-Serif" font-size="11.00" fill="#000000"> &#160;</text>
<polygon fill="#ffffff" stroke="transparent" points="162.5,-707.7 162.5,-726.7 217.5,-726.7 217.5,-707.7 162.5,-707.7"/>
<polygon fill="none" stroke="#000000" points="162.5,-707.7 162.5,-726.7 217.5,-726.7 217.5,-707.7 162.5,-707.7"/>
<text text-anchor="start" x="198.9053" y="-713.8" font-family="Helvetica,sans-Serif" font-size="11.00" fill="#000000">1 &gt;</text>
</a>
</g>
</g>
<!-- authorisation&#45;&gt;authorisation_status -->
<g id="edge6" class="edge">
<title>authorisation:w&#45;&gt;authorisation_status:e</title>
<path fill="none" stroke="#000000" d="M284.2986,-596.1481C256.3054,-608.1032 281.5241,-661.2473 257,-697.7 243.402,-717.912 241.8605,-735.7 217.5,-735.7"/>
<polygon fill="#000000" stroke="#000000" points="290.6163,-595.0591 299.1116,-597.2477 294.5581,-594.3795 298.5,-593.7 298.5,-593.7 298.5,-593.7 294.5581,-594.3795 297.8884,-590.1523 290.6163,-595.0591 290.6163,-595.0591"/>
<ellipse fill="none" stroke="#000000" cx="287.4628" cy="-595.6027" rx="3.2" ry="3.2"/>
</g>
<!-- transport -->
<g id="node8" class="node">
<title>transport</title>
<g id="a_node8"><a xlink:href="../../tables/transport.html" xlink:title="transport" target="_top">
<polygon fill="#ffffff" stroke="transparent" points="77.5,-298.2 77.5,-359.2 179.5,-359.2 179.5,-298.2 77.5,-298.2"/>
<polygon fill="#f5f5f5" stroke="transparent" points="77.5,-335.7 77.5,-358.7 179.5,-358.7 179.5,-335.7 77.5,-335.7"/>
<polygon fill="none" stroke="#000000" points="77.5,-335.7 77.5,-358.7 179.5,-358.7 179.5,-335.7 77.5,-335.7"/>
<text text-anchor="start" x="82.5" y="-344.3" font-family="Helvetica,sans-Serif" font-weight="bold" font-size="11.00" fill="#000000">transport</text>
<text text-anchor="start" x="145.0219" y="-343.8" font-family="Helvetica,sans-Serif" font-size="11.00" fill="#000000">[table]</text>
<polygon fill="none" stroke="#000000" points="77.5,-316.7 77.5,-335.7 179.5,-335.7 179.5,-316.7 77.5,-316.7"/>
<text text-anchor="start" x="80.5" y="-322.8" font-family="Helvetica,sans-Serif" font-size="11.00" fill="#000000">...</text>
<polygon fill="#ffffff" stroke="transparent" points="77.5,-297.7 77.5,-316.7 117.5,-316.7 117.5,-297.7 77.5,-297.7"/>
<polygon fill="none" stroke="#000000" points="77.5,-297.7 77.5,-316.7 117.5,-316.7 117.5,-297.7 77.5,-297.7"/>
<text text-anchor="start" x="80.5" y="-303.8" font-family="Helvetica,sans-Serif" font-size="11.00" fill="#000000"> &#160;</text>
<polygon fill="#ffffff" stroke="transparent" points="117.5,-297.7 117.5,-316.7 143.5,-316.7 143.5,-297.7 117.5,-297.7"/>
<polygon fill="none" stroke="#000000" points="117.5,-297.7 117.5,-316.7 143.5,-316.7 143.5,-297.7 117.5,-297.7"/>
<text text-anchor="start" x="134.3862" y="-303.8" font-family="Helvetica,sans-Serif" font-size="11.00" fill="#000000"> &#160;</text>
<polygon fill="#ffffff" stroke="transparent" points="143.5,-297.7 143.5,-316.7 179.5,-316.7 179.5,-297.7 143.5,-297.7"/>
<polygon fill="none" stroke="#000000" points="143.5,-297.7 143.5,-316.7 179.5,-316.7 179.5,-297.7 143.5,-297.7"/>
<text text-anchor="start" x="160.9053" y="-303.8" font-family="Helvetica,sans-Serif" font-size="11.00" fill="#000000">2 &gt;</text>
</a>
</g>
</g>
<!-- authorisation&#45;&gt;transport -->
<g id="edge7" class="edge">
<title>authorisation:w&#45;&gt;transport:e</title>
<path fill="none" stroke="#000000" d="M284.1364,-458.6161C261.6312,-446.0892 283.0851,-398.3198 257,-369.7 230.3189,-340.4262 219.1086,-325.7 179.5,-325.7"/>
<polygon fill="#000000" stroke="#000000" points="290.6782,-460.0206 297.7443,-465.2198 294.5891,-460.8603 298.5,-461.7 298.5,-461.7 298.5,-461.7 294.5891,-460.8603 299.2557,-458.1802 290.6782,-460.0206 290.6782,-460.0206"/>
<ellipse fill="none" stroke="#000000" cx="287.5495" cy="-459.3489" rx="3.2" ry="3.2"/>
</g>
<!-- movement -->
<g id="node9" class="node">
<title>movement</title>
<g id="a_node9"><a xlink:href="../../tables/movement.html" xlink:title="movement" target="_top">
<polygon fill="#ffffff" stroke="transparent" points="560,-265.2 560,-326.2 670,-326.2 670,-265.2 560,-265.2"/>
<polygon fill="#f5f5f5" stroke="transparent" points="560,-302.7 560,-325.7 670,-325.7 670,-302.7 560,-302.7"/>
<polygon fill="none" stroke="#000000" points="560,-302.7 560,-325.7 670,-325.7 670,-302.7 560,-302.7"/>
<text text-anchor="start" x="565" y="-311.3" font-family="Helvetica,sans-Serif" font-weight="bold" font-size="11.00" fill="#000000">movement</text>
<text text-anchor="start" x="635.5219" y="-310.8" font-family="Helvetica,sans-Serif" font-size="11.00" fill="#000000">[table]</text>
<polygon fill="none" stroke="#000000" points="560,-283.7 560,-302.7 670,-302.7 670,-283.7 560,-283.7"/>
<text text-anchor="start" x="563" y="-289.8" font-family="Helvetica,sans-Serif" font-size="11.00" fill="#000000">...</text>
<polygon fill="#ffffff" stroke="transparent" points="560,-264.7 560,-283.7 613,-283.7 613,-264.7 560,-264.7"/>
<polygon fill="none" stroke="#000000" points="560,-264.7 560,-283.7 613,-283.7 613,-264.7 560,-264.7"/>
<text text-anchor="start" x="563" y="-270.8" font-family="Helvetica,sans-Serif" font-size="11.00" fill="#000000">&lt; 3</text>
<polygon fill="#ffffff" stroke="transparent" points="613,-264.7 613,-283.7 641,-283.7 641,-264.7 613,-264.7"/>
<polygon fill="none" stroke="#000000" points="613,-264.7 613,-283.7 641,-283.7 641,-264.7 613,-264.7"/>
<text text-anchor="start" x="631.8862" y="-270.8" font-family="Helvetica,sans-Serif" font-size="11.00" fill="#000000"> &#160;</text>
<polygon fill="#ffffff" stroke="transparent" points="641,-264.7 641,-283.7 670,-283.7 670,-264.7 641,-264.7"/>
<polygon fill="none" stroke="#000000" points="641,-264.7 641,-283.7 670,-283.7 670,-264.7 641,-264.7"/>
<text text-anchor="start" x="660.8862" y="-270.8" font-family="Helvetica,sans-Serif" font-size="11.00" fill="#000000"> &#160;</text>
</a>
</g>
</g>
<!-- movement&#45;&gt;absence_reason -->
<g id="edge8" class="edge">
<title>movement:w&#45;&gt;absence_reason:e</title>
<path fill="none" stroke="#000000" d="M610.9142,-344.9283C601.5912,-443.6669 575.082,-660.2574 519,-704.7 439.2323,-767.9126 388.3204,-731.0022 290,-704.7 246.1451,-692.9681 246.897,-653.7 201.5,-653.7"/>
<polygon fill="#000000" stroke="#000000" points="611.5124,-338.382 615.8255,-330.7428 611.8764,-334.3986 612.2404,-330.4152 612.2404,-330.4152 612.2404,-330.4152 611.8764,-334.3986 608.6553,-330.0876 611.5124,-338.382 611.5124,-338.382"/>
<ellipse fill="none" stroke="#000000" cx="611.2212" cy="-341.5687" rx="3.2" ry="3.2"/>
</g>
<!-- movement&#45;&gt;accompanied_by -->
<g id="edge9" class="edge">
<title>movement:w&#45;&gt;accompanied_by:e</title>
<path fill="none" stroke="#000000" d="M538.0054,-260.0869C531.663,-257.9946 525.2774,-256.1538 519,-254.7 401.2884,-227.4393 368.327,-240.7 247.5,-240.7"/>
<polygon fill="#000000" stroke="#000000" points="544.2317,-262.3179 550.5485,-268.4055 547.9973,-263.6672 551.7629,-265.0165 551.7629,-265.0165 551.7629,-265.0165 547.9973,-263.6672 552.9772,-261.6275 544.2317,-262.3179 544.2317,-262.3179"/>
<ellipse fill="none" stroke="#000000" cx="541.2193" cy="-261.2384" rx="3.2" ry="3.2"/>
</g>
<!-- occurrence -->
<g id="node10" class="node">
<title>occurrence</title>
<g id="a_node10"><a xlink:href="../../tables/occurrence.html" xlink:title="occurrence" target="_top">
<polygon fill="#ffffff" stroke="transparent" points="348,-265.2 348,-326.2 461,-326.2 461,-265.2 348,-265.2"/>
<polygon fill="#f5f5f5" stroke="transparent" points="348.5,-302.7 348.5,-325.7 461.5,-325.7 461.5,-302.7 348.5,-302.7"/>
<polygon fill="none" stroke="#000000" points="348.5,-302.7 348.5,-325.7 461.5,-325.7 461.5,-302.7 348.5,-302.7"/>
<text text-anchor="start" x="353.5" y="-311.3" font-family="Helvetica,sans-Serif" font-weight="bold" font-size="11.00" fill="#000000">occurrence</text>
<text text-anchor="start" x="427.0219" y="-310.8" font-family="Helvetica,sans-Serif" font-size="11.00" fill="#000000">[table]</text>
<polygon fill="none" stroke="#000000" points="348.5,-283.7 348.5,-302.7 461.5,-302.7 461.5,-283.7 348.5,-283.7"/>
<text text-anchor="start" x="351.5" y="-289.8" font-family="Helvetica,sans-Serif" font-size="11.00" fill="#000000">...</text>
<polygon fill="#ffffff" stroke="transparent" points="348.5,-264.7 348.5,-283.7 398.5,-283.7 398.5,-264.7 348.5,-264.7"/>
<polygon fill="none" stroke="#000000" points="348.5,-264.7 348.5,-283.7 398.5,-283.7 398.5,-264.7 348.5,-264.7"/>
<text text-anchor="start" x="351.5" y="-270.8" font-family="Helvetica,sans-Serif" font-size="11.00" fill="#000000">&lt; 7</text>
<polygon fill="#ffffff" stroke="transparent" points="398.5,-264.7 398.5,-283.7 425.5,-283.7 425.5,-264.7 398.5,-264.7"/>
<polygon fill="none" stroke="#000000" points="398.5,-264.7 398.5,-283.7 425.5,-283.7 425.5,-264.7 398.5,-264.7"/>
<text text-anchor="start" x="416.3862" y="-270.8" font-family="Helvetica,sans-Serif" font-size="11.00" fill="#000000"> &#160;</text>
<polygon fill="#ffffff" stroke="transparent" points="425.5,-264.7 425.5,-283.7 461.5,-283.7 461.5,-264.7 425.5,-264.7"/>
<polygon fill="none" stroke="#000000" points="425.5,-264.7 425.5,-283.7 461.5,-283.7 461.5,-264.7 425.5,-264.7"/>
<text text-anchor="start" x="442.9053" y="-270.8" font-family="Helvetica,sans-Serif" font-size="11.00" fill="#000000">1 &gt;</text>
</a>
</g>
</g>
<!-- movement&#45;&gt;occurrence -->
<g id="edge10" class="edge">
<title>movement:w&#45;&gt;occurrence:e</title>
<path fill="none" stroke="#000000" d="M537.3873,-295.7C514.9214,-295.7 490.6474,-295.7 469.0696,-295.7"/>
<polygon fill="#000000" stroke="#000000" points="543.8431,-295.7001 551.8431,-299.3 547.8431,-295.7 551.8431,-295.7 551.8431,-295.7 551.8431,-295.7 547.8431,-295.7 551.843,-292.1 543.8431,-295.7001 543.8431,-295.7001"/>
<ellipse fill="none" stroke="#000000" cx="540.6431" cy="-295.7001" rx="3.2" ry="3.2"/>
</g>
<!-- occurrence&#45;&gt;absence_reason_category -->
<g id="edge11" class="edge">
<title>occurrence:w&#45;&gt;absence_reason_category:e</title>
<path fill="none" stroke="#000000" d="M326.09,-317.0598C313.3994,-322.3652 300.8725,-328.8459 290,-336.7 257.5327,-360.1536 274.5524,-407.7 234.5,-407.7"/>
<polygon fill="#000000" stroke="#000000" points="332.3898,-314.6318 341.1492,-315.114 336.1222,-313.1933 339.8545,-311.7548 339.8545,-311.7548 339.8545,-311.7548 336.1222,-313.1933 338.5599,-308.3957 332.3898,-314.6318 332.3898,-314.6318"/>
<ellipse fill="none" stroke="#000000" cx="329.4038" cy="-315.7826" rx="3.2" ry="3.2"/>
</g>
<!-- occurrence&#45;&gt;absence_reason -->
<g id="edge12" class="edge">
<title>occurrence:w&#45;&gt;absence_reason:e</title>
<path fill="none" stroke="#000000" d="M326.3018,-310.5538C312.3875,-316.5394 299.3676,-324.9326 290,-336.7 198.8966,-451.142 347.7764,-653.7 201.5,-653.7"/>
<polygon fill="#000000" stroke="#000000" points="332.3286,-308.3111 341.0819,-308.8951 336.0775,-306.9161 339.8264,-305.5211 339.8264,-305.5211 339.8264,-305.5211 336.0775,-306.9161 338.5708,-302.1471 332.3286,-308.3111 332.3286,-308.3111"/>
<ellipse fill="none" stroke="#000000" cx="329.3296" cy="-309.4272" rx="3.2" ry="3.2"/>
</g>
<!-- occurrence&#45;&gt;absence_sub_type -->
<g id="edge13" class="edge">
<title>occurrence:w&#45;&gt;absence_sub_type:e</title>
<path fill="none" stroke="#000000" d="M326.2007,-312.4523C312.7358,-318.2801 299.9106,-326.1296 290,-336.7 253.6305,-375.4907 286.4844,-407.4493 257,-451.7 242.0091,-474.1986 236.5354,-489.7 209.5,-489.7"/>
<polygon fill="#000000" stroke="#000000" points="332.3189,-310.1211 341.0765,-310.6366 336.0568,-308.6968 339.7946,-307.2725 339.7946,-307.2725 339.7946,-307.2725 336.0568,-308.6968 338.5128,-303.9085 332.3189,-310.1211 332.3189,-310.1211"/>
<ellipse fill="none" stroke="#000000" cx="329.3286" cy="-311.2605" rx="3.2" ry="3.2"/>
</g>
<!-- occurrence&#45;&gt;absence_type -->
<g id="edge14" class="edge">
<title>occurrence:w&#45;&gt;absence_type:e</title>
<path fill="none" stroke="#000000" d="M326.09,-311.1922C312.3847,-317.1295 299.4984,-325.3416 290,-336.7 233.0502,-404.8014 306.7773,-460.1928 257,-533.7 238.7718,-560.6179 227.0091,-571.7 194.5,-571.7"/>
<polygon fill="#000000" stroke="#000000" points="332.4835,-308.7924 341.2384,-309.3514 336.2284,-307.3867 339.9732,-305.981 339.9732,-305.981 339.9732,-305.981 336.2284,-307.3867 338.7081,-302.6106 332.4835,-308.7924 332.4835,-308.7924"/>
<ellipse fill="none" stroke="#000000" cx="329.4876" cy="-309.917" rx="3.2" ry="3.2"/>
</g>
<!-- occurrence&#45;&gt;accompanied_by -->
<g id="edge15" class="edge">
<title>occurrence:w&#45;&gt;accompanied_by:e</title>
<path fill="none" stroke="#000000" d="M326.0405,-265.6453C291.2394,-252.7976 256.1688,-240.7 247.5,-240.7"/>
<polygon fill="#000000" stroke="#000000" points="332.3251,-267.9843 338.5669,-274.1487 336.0739,-269.3795 339.8227,-270.7748 339.8227,-270.7748 339.8227,-270.7748 336.0739,-269.3795 341.0784,-267.4009 332.3251,-267.9843 332.3251,-267.9843"/>
<ellipse fill="none" stroke="#000000" cx="329.3261" cy="-266.8681" rx="3.2" ry="3.2"/>
</g>
<!-- occurrence&#45;&gt;transport -->
<g id="edge17" class="edge">
<title>occurrence:w&#45;&gt;transport:e</title>
<path fill="none" stroke="#000000" d="M325.4073,-311.453C282.4327,-318.6938 228.2538,-325.7 179.5,-325.7"/>
<polygon fill="#000000" stroke="#000000" points="331.9385,-310.3169 340.4372,-312.4925 335.8793,-309.6313 339.8202,-308.9458 339.8202,-308.9458 339.8202,-308.9458 335.8793,-309.6313 339.2032,-305.399 331.9385,-310.3169 331.9385,-310.3169"/>
<ellipse fill="none" stroke="#000000" cx="328.7859" cy="-310.8653" rx="3.2" ry="3.2"/>
</g>
<!-- occurrence_status -->
<g id="node11" class="node">
<title>occurrence_status</title>
<g id="a_node11"><a xlink:href="../../tables/occurrence_status.html" xlink:title="occurrence_status" target="_top">
<polygon fill="#ffffff" stroke="transparent" points="47.5,-38.2 47.5,-99.2 209.5,-99.2 209.5,-38.2 47.5,-38.2"/>
<polygon fill="#f5f5f5" stroke="transparent" points="47.5,-75.7 47.5,-98.7 209.5,-98.7 209.5,-75.7 47.5,-75.7"/>
<polygon fill="none" stroke="#000000" points="47.5,-75.7 47.5,-98.7 209.5,-98.7 209.5,-75.7 47.5,-75.7"/>
<text text-anchor="start" x="52.5" y="-84.3" font-family="Helvetica,sans-Serif" font-weight="bold" font-size="11.00" fill="#000000">occurrence_status</text>
<text text-anchor="start" x="175.0219" y="-83.8" font-family="Helvetica,sans-Serif" font-size="11.00" fill="#000000">[table]</text>
<polygon fill="none" stroke="#000000" points="47.5,-56.7 47.5,-75.7 209.5,-75.7 209.5,-56.7 47.5,-56.7"/>
<text text-anchor="start" x="50.5" y="-62.8" font-family="Helvetica,sans-Serif" font-size="11.00" fill="#000000">...</text>
<polygon fill="#ffffff" stroke="transparent" points="47.5,-37.7 47.5,-56.7 117.5,-56.7 117.5,-37.7 47.5,-37.7"/>
<polygon fill="none" stroke="#000000" points="47.5,-37.7 47.5,-56.7 117.5,-56.7 117.5,-37.7 47.5,-37.7"/>
<text text-anchor="start" x="50.5" y="-43.8" font-family="Helvetica,sans-Serif" font-size="11.00" fill="#000000"> &#160;</text>
<polygon fill="#ffffff" stroke="transparent" points="117.5,-37.7 117.5,-56.7 158.5,-56.7 158.5,-37.7 117.5,-37.7"/>
<polygon fill="none" stroke="#000000" points="117.5,-37.7 117.5,-56.7 158.5,-56.7 158.5,-37.7 117.5,-37.7"/>
<text text-anchor="start" x="149.3862" y="-43.8" font-family="Helvetica,sans-Serif" font-size="11.00" fill="#000000"> &#160;</text>
<polygon fill="#ffffff" stroke="transparent" points="158.5,-37.7 158.5,-56.7 209.5,-56.7 209.5,-37.7 158.5,-37.7"/>
<polygon fill="none" stroke="#000000" points="158.5,-37.7 158.5,-56.7 209.5,-56.7 209.5,-37.7 158.5,-37.7"/>
<text text-anchor="start" x="190.9053" y="-43.8" font-family="Helvetica,sans-Serif" font-size="11.00" fill="#000000">1 &gt;</text>
</a>
</g>
</g>
<!-- occurrence&#45;&gt;occurrence_status -->
<g id="edge16" class="edge">
<title>occurrence:w&#45;&gt;occurrence_status:e</title>
<path fill="none" stroke="#000000" d="M388.1406,-247.1294C361.9729,-179.6406 303.8267,-65.7 209.5,-65.7"/>
<polygon fill="#000000" stroke="#000000" points="390.4385,-253.2747 389.8686,-262.0289 391.8395,-257.0213 393.2406,-260.768 393.2406,-260.768 393.2406,-260.768 391.8395,-257.0213 396.6125,-259.507 390.4385,-253.2747 390.4385,-253.2747"/>
<ellipse fill="none" stroke="#000000" cx="389.3177" cy="-250.2774" rx="3.2" ry="3.2"/>
</g>
</g>
</svg>
