<?xml version="1.0" encoding="UTF-8" standalone="no"?>
<!DOCTYPE svg PUBLIC "-//W3C//DTD SVG 1.1//EN"
 "http://www.w3.org/Graphics/SVG/1.1/DTD/svg11.dtd">
<!-- Generated by graphviz version 2.40.1 (20161225.0304)
 -->
<!-- Title: oneDegreeRelationshipsDiagramImplied Pages: 1 -->
<svg width="566pt" height="627pt"
 viewBox="0.00 0.00 566.00 627.20" xmlns="http://www.w3.org/2000/svg" xmlns:xlink="http://www.w3.org/1999/xlink">
<g id="graph0" class="graph" transform="scale(1 1) rotate(0) translate(4 623.2)">
<title>oneDegreeRelationshipsDiagramImplied</title>
<polygon fill="#ffffff" stroke="transparent" points="-4,4 -4,-623.2 562,-623.2 562,4 -4,4"/>
<text text-anchor="middle" x="72.4936" y="-7.3" font-family="Helvetica,sans-Serif" font-size="11.00" fill="#000000">Generated by SchemaSpy</text>
<!-- audited_occurrence -->
<g id="node1" class="node">
<title>audited_occurrence</title>
<g id="a_node1"><a xlink:href="../../tables/audited_occurrence.html" xlink:title="audited_occurrence" target="_top">
<polygon fill="#ffffff" stroke="transparent" points="234,-38.2 234,-615.2 550,-615.2 550,-38.2 234,-38.2"/>
<polygon fill="#f5f5f5" stroke="transparent" points="236,-589.7 236,-612.7 548,-612.7 548,-589.7 236,-589.7"/>
<polygon fill="none" stroke="#000000" points="236,-589.7 236,-612.7 548,-612.7 548,-589.7 236,-589.7"/>
<text text-anchor="start" x="241" y="-598.3" font-family="Helvetica,sans-Serif" font-weight="bold" font-size="11.00" fill="#000000">audited_occurrence</text>
<text text-anchor="start" x="514.8895" y="-597.8" font-family="Helvetica,sans-Serif" font-size="11.00" fill="#000000">[view]</text>
<polygon fill="none" stroke="#000000" points="236,-567.7 236,-589.7 449,-589.7 449,-567.7 236,-567.7"/>
<text text-anchor="start" x="256" y="-574.8" font-family="Helvetica,sans-Serif" font-size="11.00" fill="#000000">created_by</text>
<polygon fill="none" stroke="#000000" points="449,-567.7 449,-589.7 548,-589.7 548,-567.7 449,-567.7"/>
<text text-anchor="start" x="452" y="-575.4" font-family="Helvetica,sans-Serif" font-size="11.00" fill="#000000">varchar[64]</text>
<polygon fill="none" stroke="#000000" points="236,-545.7 236,-567.7 449,-567.7 449,-545.7 236,-545.7"/>
<text text-anchor="start" x="256" y="-552.8" font-family="Helvetica,sans-Serif" font-size="11.00" fill="#000000">created_at</text>
<polygon fill="none" stroke="#000000" points="449,-545.7 449,-567.7 548,-567.7 548,-545.7 449,-545.7"/>
<text text-anchor="start" x="452" y="-553.4" font-family="Helvetica,sans-Serif" font-size="11.00" fill="#000000">timestamp[29,6]</text>
<polygon fill="none" stroke="#000000" points="236,-523.7 236,-545.7 449,-545.7 449,-523.7 236,-523.7"/>
<text text-anchor="start" x="256" y="-530.8" font-family="Helvetica,sans-Serif" font-size="11.00" fill="#000000">updated_by</text>
<polygon fill="none" stroke="#000000" points="449,-523.7 449,-545.7 548,-545.7 548,-523.7 449,-523.7"/>
<text text-anchor="start" x="452" y="-531.4" font-family="Helvetica,sans-Serif" font-size="11.00" fill="#000000">varchar[64]</text>
<polygon fill="none" stroke="#000000" points="236,-501.7 236,-523.7 449,-523.7 449,-501.7 236,-501.7"/>
<text text-anchor="start" x="256" y="-508.8" font-family="Helvetica,sans-Serif" font-size="11.00" fill="#000000">updated_at</text>
<polygon fill="none" stroke="#000000" points="449,-501.7 449,-523.7 548,-523.7 548,-501.7 449,-501.7"/>
<text text-anchor="start" x="452" y="-509.4" font-family="Helvetica,sans-Serif" font-size="11.00" fill="#000000">timestamp[29,6]</text>
<polygon fill="none" stroke="#000000" points="236,-479.7 236,-501.7 449,-501.7 449,-479.7 236,-479.7"/>
<text text-anchor="start" x="256" y="-486.8" font-family="Helvetica,sans-Serif" font-size="11.00" fill="#000000">rev_type</text>
<polygon fill="none" stroke="#000000" points="449,-479.7 449,-501.7 548,-501.7 548,-479.7 449,-479.7"/>
<text text-anchor="start" x="452" y="-487.4" font-family="Helvetica,sans-Serif" font-size="11.00" fill="#000000">int2[5]</text>
<polygon fill="none" stroke="#000000" points="236,-457.7 236,-479.7 449,-479.7 449,-457.7 236,-457.7"/>
<text text-anchor="start" x="256" y="-464.8" font-family="Helvetica,sans-Serif" font-size="11.00" fill="#000000">id</text>
<polygon fill="none" stroke="#000000" points="449,-457.7 449,-479.7 548,-479.7 548,-457.7 449,-457.7"/>
<text text-anchor="start" x="452" y="-465.4" font-family="Helvetica,sans-Serif" font-size="11.00" fill="#000000">uuid[2147483647]</text>
<polygon fill="none" stroke="#000000" points="236,-435.7 236,-457.7 449,-457.7 449,-435.7 236,-435.7"/>
<text text-anchor="start" x="256" y="-442.8" font-family="Helvetica,sans-Serif" font-size="11.00" fill="#000000">version</text>
<polygon fill="none" stroke="#000000" points="449,-435.7 449,-457.7 548,-457.7 548,-435.7 449,-435.7"/>
<text text-anchor="start" x="452" y="-443.4" font-family="Helvetica,sans-Serif" font-size="11.00" fill="#000000">int4[10]</text>
<polygon fill="none" stroke="#000000" points="236,-413.7 236,-435.7 449,-435.7 449,-413.7 236,-413.7"/>
<text text-anchor="start" x="256" y="-420.8" font-family="Helvetica,sans-Serif" font-size="11.00" fill="#000000">person_identifier</text>
<polygon fill="none" stroke="#000000" points="449,-413.7 449,-435.7 548,-435.7 548,-413.7 449,-413.7"/>
<text text-anchor="start" x="452" y="-421.4" font-family="Helvetica,sans-Serif" font-size="11.00" fill="#000000">varchar[10]</text>
<polygon fill="none" stroke="#000000" points="236,-391.7 236,-413.7 449,-413.7 449,-391.7 236,-391.7"/>
<image xlink:href="../../images/foreignKeys.png" width="11px" height="12px" preserveAspectRatio="xMinYMin meet" x="241" y="-408.7"/>
<text text-anchor="start" x="256" y="-398.8" font-family="Helvetica,sans-Serif" font-size="11.00" fill="#000000">prison_code</text>
<polygon fill="none" stroke="#000000" points="449,-391.7 449,-413.7 548,-413.7 548,-391.7 449,-391.7"/>
<text text-anchor="start" x="452" y="-399.4" font-family="Helvetica,sans-Serif" font-size="11.00" fill="#000000">varchar[6]</text>
<polygon fill="none" stroke="#000000" points="236,-369.7 236,-391.7 449,-391.7 449,-369.7 236,-369.7"/>
<text text-anchor="start" x="256" y="-376.8" font-family="Helvetica,sans-Serif" font-size="11.00" fill="#000000">authorisation_id</text>
<polygon fill="none" stroke="#000000" points="449,-369.7 449,-391.7 548,-391.7 548,-369.7 449,-369.7"/>
<text text-anchor="start" x="452" y="-377.4" font-family="Helvetica,sans-Serif" font-size="11.00" fill="#000000">uuid[2147483647]</text>
<polygon fill="none" stroke="#000000" points="236,-347.7 236,-369.7 449,-369.7 449,-347.7 236,-347.7"/>
<text text-anchor="start" x="256" y="-354.8" font-family="Helvetica,sans-Serif" font-size="11.00" fill="#000000">status_id</text>
<polygon fill="none" stroke="#000000" points="449,-347.7 449,-369.7 548,-369.7 548,-347.7 449,-347.7"/>
<text text-anchor="start" x="452" y="-355.4" font-family="Helvetica,sans-Serif" font-size="11.00" fill="#000000">uuid[2147483647]</text>
<polygon fill="none" stroke="#000000" points="236,-325.7 236,-347.7 449,-347.7 449,-325.7 236,-325.7"/>
<text text-anchor="start" x="256" y="-332.8" font-family="Helvetica,sans-Serif" font-size="11.00" fill="#000000">absence_type_id</text>
<polygon fill="none" stroke="#000000" points="449,-325.7 449,-347.7 548,-347.7 548,-325.7 449,-325.7"/>
<text text-anchor="start" x="452" y="-333.4" font-family="Helvetica,sans-Serif" font-size="11.00" fill="#000000">uuid[2147483647]</text>
<polygon fill="none" stroke="#000000" points="236,-303.7 236,-325.7 449,-325.7 449,-303.7 236,-303.7"/>
<text text-anchor="start" x="256" y="-310.8" font-family="Helvetica,sans-Serif" font-size="11.00" fill="#000000">absence_sub_type_id</text>
<polygon fill="none" stroke="#000000" points="449,-303.7 449,-325.7 548,-325.7 548,-303.7 449,-303.7"/>
<text text-anchor="start" x="452" y="-311.4" font-family="Helvetica,sans-Serif" font-size="11.00" fill="#000000">uuid[2147483647]</text>
<polygon fill="none" stroke="#000000" points="236,-281.7 236,-303.7 449,-303.7 449,-281.7 236,-281.7"/>
<text text-anchor="start" x="256" y="-288.8" font-family="Helvetica,sans-Serif" font-size="11.00" fill="#000000">absence_reason_category_id</text>
<polygon fill="none" stroke="#000000" points="449,-281.7 449,-303.7 548,-303.7 548,-281.7 449,-281.7"/>
<text text-anchor="start" x="452" y="-289.4" font-family="Helvetica,sans-Serif" font-size="11.00" fill="#000000">uuid[2147483647]</text>
<polygon fill="none" stroke="#000000" points="236,-259.7 236,-281.7 449,-281.7 449,-259.7 236,-259.7"/>
<text text-anchor="start" x="256" y="-266.8" font-family="Helvetica,sans-Serif" font-size="11.00" fill="#000000">absence_reason_id</text>
<polygon fill="none" stroke="#000000" points="449,-259.7 449,-281.7 548,-281.7 548,-259.7 449,-259.7"/>
<text text-anchor="start" x="452" y="-267.4" font-family="Helvetica,sans-Serif" font-size="11.00" fill="#000000">uuid[2147483647]</text>
<polygon fill="none" stroke="#000000" points="236,-237.7 236,-259.7 449,-259.7 449,-237.7 236,-237.7"/>
<text text-anchor="start" x="256" y="-244.8" font-family="Helvetica,sans-Serif" font-size="11.00" fill="#000000">accompanied_by_id</text>
<polygon fill="none" stroke="#000000" points="449,-237.7 449,-259.7 548,-259.7 548,-237.7 449,-237.7"/>
<text text-anchor="start" x="452" y="-245.4" font-family="Helvetica,sans-Serif" font-size="11.00" fill="#000000">uuid[2147483647]</text>
<polygon fill="none" stroke="#000000" points="236,-215.7 236,-237.7 449,-237.7 449,-215.7 236,-215.7"/>
<text text-anchor="start" x="256" y="-222.8" font-family="Helvetica,sans-Serif" font-size="11.00" fill="#000000">transport_id</text>
<polygon fill="none" stroke="#000000" points="449,-215.7 449,-237.7 548,-237.7 548,-215.7 449,-215.7"/>
<text text-anchor="start" x="452" y="-223.4" font-family="Helvetica,sans-Serif" font-size="11.00" fill="#000000">uuid[2147483647]</text>
<polygon fill="none" stroke="#000000" points="236,-193.7 236,-215.7 449,-215.7 449,-193.7 236,-193.7"/>
<text text-anchor="start" x="256" y="-200.8" font-family="Helvetica,sans-Serif" font-size="11.00" fill="#000000">start</text>
<polygon fill="none" stroke="#000000" points="449,-193.7 449,-215.7 548,-215.7 548,-193.7 449,-193.7"/>
<text text-anchor="start" x="452" y="-201.4" font-family="Helvetica,sans-Serif" font-size="11.00" fill="#000000">timestamp[29,6]</text>
<polygon fill="none" stroke="#000000" points="236,-171.7 236,-193.7 449,-193.7 449,-171.7 236,-171.7"/>
<text text-anchor="start" x="256" y="-178.8" font-family="Helvetica,sans-Serif" font-size="11.00" fill="#000000">end</text>
<polygon fill="none" stroke="#000000" points="449,-171.7 449,-193.7 548,-193.7 548,-171.7 449,-171.7"/>
<text text-anchor="start" x="452" y="-179.4" font-family="Helvetica,sans-Serif" font-size="11.00" fill="#000000">timestamp[29,6]</text>
<polygon fill="none" stroke="#000000" points="236,-149.7 236,-171.7 449,-171.7 449,-149.7 236,-149.7"/>
<text text-anchor="start" x="256" y="-156.8" font-family="Helvetica,sans-Serif" font-size="11.00" fill="#000000">location</text>
<polygon fill="none" stroke="#000000" points="449,-149.7 449,-171.7 548,-171.7 548,-149.7 449,-149.7"/>
<text text-anchor="start" x="451.7258" y="-157.4" font-family="Helvetica,sans-Serif" font-size="11.00" fill="#000000">jsonb[2147483647]</text>
<polygon fill="none" stroke="#000000" points="236,-127.7 236,-149.7 449,-149.7 449,-127.7 236,-127.7"/>
<text text-anchor="start" x="256" y="-134.8" font-family="Helvetica,sans-Serif" font-size="11.00" fill="#000000">contact_information</text>
<polygon fill="none" stroke="#000000" points="449,-127.7 449,-149.7 548,-149.7 548,-127.7 449,-127.7"/>
<text text-anchor="start" x="452" y="-135.4" font-family="Helvetica,sans-Serif" font-size="11.00" fill="#000000">text[2147483647]</text>
<polygon fill="none" stroke="#000000" points="236,-105.7 236,-127.7 449,-127.7 449,-105.7 236,-105.7"/>
<text text-anchor="start" x="256" y="-112.8" font-family="Helvetica,sans-Serif" font-size="11.00" fill="#000000">comments</text>
<polygon fill="none" stroke="#000000" points="449,-105.7 449,-127.7 548,-127.7 548,-105.7 449,-105.7"/>
<text text-anchor="start" x="452" y="-113.4" font-family="Helvetica,sans-Serif" font-size="11.00" fill="#000000">text[2147483647]</text>
<polygon fill="none" stroke="#000000" points="236,-83.7 236,-105.7 449,-105.7 449,-83.7 236,-83.7"/>
<text text-anchor="start" x="256" y="-90.8" font-family="Helvetica,sans-Serif" font-size="11.00" fill="#000000">reason_path</text>
<polygon fill="none" stroke="#000000" points="449,-83.7 449,-105.7 548,-105.7 548,-83.7 449,-83.7"/>
<text text-anchor="start" x="451.7258" y="-91.4" font-family="Helvetica,sans-Serif" font-size="11.00" fill="#000000">jsonb[2147483647]</text>
<polygon fill="none" stroke="#000000" points="236,-61.7 236,-83.7 449,-83.7 449,-61.7 236,-61.7"/>
<text text-anchor="start" x="256" y="-68.8" font-family="Helvetica,sans-Serif" font-size="11.00" fill="#000000">legacy_id</text>
<polygon fill="none" stroke="#000000" points="449,-61.7 449,-83.7 548,-83.7 548,-61.7 449,-61.7"/>
<text text-anchor="start" x="452" y="-69.4" font-family="Helvetica,sans-Serif" font-size="11.00" fill="#000000">int8[19]</text>
<polygon fill="none" stroke="#000000" points="236,-39.7 236,-61.7 449,-61.7 449,-39.7 236,-39.7"/>
<text text-anchor="start" x="256" y="-46.8" font-family="Helvetica,sans-Serif" font-size="11.00" fill="#000000">dps_only</text>
<polygon fill="none" stroke="#000000" points="449,-39.7 449,-61.7 548,-61.7 548,-39.7 449,-39.7"/>
<text text-anchor="start" x="452" y="-47.4" font-family="Helvetica,sans-Serif" font-size="11.00" fill="#000000">bool[1]</text>
<polygon fill="none" stroke="#000000" stroke-width="2" points="235,-39.2 235,-614.2 549,-614.2 549,-39.2 235,-39.2"/>
</a>
</g>
</g>
<!-- prison_tap_locations -->
<g id="node2" class="node">
<title>prison_tap_locations</title>
<g id="a_node2"><a xlink:href="../../tables/prison_tap_locations.html" xlink:title="prison_tap_locations" target="_top">
<polygon fill="#ffffff" stroke="transparent" points="8,-354.2 8,-437.2 185,-437.2 185,-354.2 8,-354.2"/>
<polygon fill="#f5f5f5" stroke="transparent" points="8.5,-413.7 8.5,-436.7 185.5,-436.7 185.5,-413.7 8.5,-413.7"/>
<polygon fill="none" stroke="#000000" points="8.5,-413.7 8.5,-436.7 185.5,-436.7 185.5,-413.7 8.5,-413.7"/>
<text text-anchor="start" x="13.5" y="-422.3" font-family="Helvetica,sans-Serif" font-weight="bold" font-size="11.00" fill="#000000">prison_tap_locations</text>
<text text-anchor="start" x="151.0219" y="-421.8" font-family="Helvetica,sans-Serif" font-size="11.00" fill="#000000">[table]</text>
<polygon fill="none" stroke="#000000" points="8.5,-391.7 8.5,-413.7 185.5,-413.7 185.5,-391.7 8.5,-391.7"/>
<image xlink:href="../../images/primaryKeys.png" width="11px" height="12px" preserveAspectRatio="xMinYMin meet" x="13.5" y="-408.7"/>
<text text-anchor="start" x="37.5" y="-398.8" font-family="Helvetica,sans-Serif" font-size="11.00" fill="#000000">prison_code</text>
<polygon fill="none" stroke="#000000" points="8.5,-372.7 8.5,-391.7 185.5,-391.7 185.5,-372.7 8.5,-372.7"/>
<text text-anchor="start" x="11.5" y="-378.8" font-family="Helvetica,sans-Serif" font-size="11.00" fill="#000000">...</text>
<polygon fill="#ffffff" stroke="transparent" points="8.5,-353.7 8.5,-372.7 86.5,-372.7 86.5,-353.7 8.5,-353.7"/>
<polygon fill="none" stroke="#000000" points="8.5,-353.7 8.5,-372.7 86.5,-372.7 86.5,-353.7 8.5,-353.7"/>
<text text-anchor="start" x="11.5" y="-359.8" font-family="Helvetica,sans-Serif" font-size="11.00" fill="#000000"> &#160;</text>
<polygon fill="#ffffff" stroke="transparent" points="86.5,-353.7 86.5,-372.7 131.5,-372.7 131.5,-353.7 86.5,-353.7"/>
<polygon fill="none" stroke="#000000" points="86.5,-353.7 86.5,-372.7 131.5,-372.7 131.5,-353.7 86.5,-353.7"/>
<text text-anchor="start" x="122.3862" y="-359.8" font-family="Helvetica,sans-Serif" font-size="11.00" fill="#000000"> &#160;</text>
<polygon fill="#ffffff" stroke="transparent" points="131.5,-353.7 131.5,-372.7 185.5,-372.7 185.5,-353.7 131.5,-353.7"/>
<polygon fill="none" stroke="#000000" points="131.5,-353.7 131.5,-372.7 185.5,-372.7 185.5,-353.7 131.5,-353.7"/>
<text text-anchor="start" x="166.9053" y="-359.8" font-family="Helvetica,sans-Serif" font-size="11.00" fill="#000000">9 &gt;</text>
</a>
</g>
</g>
<!-- audited_occurrence&#45;&gt;prison_tap_locations -->
<g id="edge1" class="edge">
<title>audited_occurrence:w&#45;&gt;prison_tap_locations:e</title>
<path fill="none" stroke="#000000" stroke-dasharray="5,2" d="M221.4203,-402.7C209.5435,-402.7 202.158,-402.7 185.5,-402.7"/>
<polygon fill="#000000" stroke="#000000" points="228,-402.7001 236,-406.3 232,-402.7 236,-402.7 236,-402.7 236,-402.7 232,-402.7 236,-399.1 228,-402.7001 228,-402.7001"/>
<ellipse fill="none" stroke="#000000" cx="224.8" cy="-402.7001" rx="3.2" ry="3.2"/>
</g>
</g>
</svg>
