<?xml version="1.0" encoding="UTF-8" standalone="no"?>
<!DOCTYPE svg PUBLIC "-//W3C//DTD SVG 1.1//EN"
 "http://www.w3.org/Graphics/SVG/1.1/DTD/svg11.dtd">
<!-- Generated by graphviz version 2.40.1 (20161225.0304)
 -->
<!-- Title: oneDegreeRelationshipsDiagramImplied Pages: 1 -->
<svg width="561pt" height="487pt"
 viewBox="0.00 0.00 561.00 487.20" xmlns="http://www.w3.org/2000/svg" xmlns:xlink="http://www.w3.org/1999/xlink">
<g id="graph0" class="graph" transform="scale(1 1) rotate(0) translate(4 483.2)">
<title>oneDegreeRelationshipsDiagramImplied</title>
<polygon fill="#ffffff" stroke="transparent" points="-4,4 -4,-483.2 557,-483.2 557,4 -4,4"/>
<text text-anchor="middle" x="72.4936" y="-7.3" font-family="Helvetica,sans-Serif" font-size="11.00" fill="#000000">Generated by SchemaSpy</text>
<!-- audited_movement -->
<g id="node1" class="node">
<title>audited_movement</title>
<g id="a_node1"><a xlink:href="../../tables/audited_movement.html" xlink:title="audited_movement" target="_top">
<polygon fill="#ffffff" stroke="transparent" points="234,-52.2 234,-475.2 545,-475.2 545,-52.2 234,-52.2"/>
<polygon fill="#f5f5f5" stroke="transparent" points="236.5,-449.7 236.5,-472.7 543.5,-472.7 543.5,-449.7 236.5,-449.7"/>
<polygon fill="none" stroke="#000000" points="236.5,-449.7 236.5,-472.7 543.5,-472.7 543.5,-449.7 236.5,-449.7"/>
<text text-anchor="start" x="241.5" y="-458.3" font-family="Helvetica,sans-Serif" font-weight="bold" font-size="11.00" fill="#000000">audited_movement</text>
<text text-anchor="start" x="510.3895" y="-457.8" font-family="Helvetica,sans-Serif" font-size="11.00" fill="#000000">[view]</text>
<polygon fill="none" stroke="#000000" points="236.5,-427.7 236.5,-449.7 444.5,-449.7 444.5,-427.7 236.5,-427.7"/>
<text text-anchor="start" x="256.5" y="-434.8" font-family="Helvetica,sans-Serif" font-size="11.00" fill="#000000">created_by</text>
<polygon fill="none" stroke="#000000" points="444.5,-427.7 444.5,-449.7 543.5,-449.7 543.5,-427.7 444.5,-427.7"/>
<text text-anchor="start" x="447.5" y="-435.4" font-family="Helvetica,sans-Serif" font-size="11.00" fill="#000000">varchar[64]</text>
<polygon fill="none" stroke="#000000" points="236.5,-405.7 236.5,-427.7 444.5,-427.7 444.5,-405.7 236.5,-405.7"/>
<text text-anchor="start" x="256.5" y="-412.8" font-family="Helvetica,sans-Serif" font-size="11.00" fill="#000000">created_at</text>
<polygon fill="none" stroke="#000000" points="444.5,-405.7 444.5,-427.7 543.5,-427.7 543.5,-405.7 444.5,-405.7"/>
<text text-anchor="start" x="447.5" y="-413.4" font-family="Helvetica,sans-Serif" font-size="11.00" fill="#000000">timestamp[29,6]</text>
<polygon fill="none" stroke="#000000" points="236.5,-383.7 236.5,-405.7 444.5,-405.7 444.5,-383.7 236.5,-383.7"/>
<text text-anchor="start" x="256.5" y="-390.8" font-family="Helvetica,sans-Serif" font-size="11.00" fill="#000000">updated_by</text>
<polygon fill="none" stroke="#000000" points="444.5,-383.7 444.5,-405.7 543.5,-405.7 543.5,-383.7 444.5,-383.7"/>
<text text-anchor="start" x="447.5" y="-391.4" font-family="Helvetica,sans-Serif" font-size="11.00" fill="#000000">varchar[64]</text>
<polygon fill="none" stroke="#000000" points="236.5,-361.7 236.5,-383.7 444.5,-383.7 444.5,-361.7 236.5,-361.7"/>
<text text-anchor="start" x="256.5" y="-368.8" font-family="Helvetica,sans-Serif" font-size="11.00" fill="#000000">updated_at</text>
<polygon fill="none" stroke="#000000" points="444.5,-361.7 444.5,-383.7 543.5,-383.7 543.5,-361.7 444.5,-361.7"/>
<text text-anchor="start" x="447.5" y="-369.4" font-family="Helvetica,sans-Serif" font-size="11.00" fill="#000000">timestamp[29,6]</text>
<polygon fill="none" stroke="#000000" points="236.5,-339.7 236.5,-361.7 444.5,-361.7 444.5,-339.7 236.5,-339.7"/>
<text text-anchor="start" x="256.5" y="-346.8" font-family="Helvetica,sans-Serif" font-size="11.00" fill="#000000">rev_type</text>
<polygon fill="none" stroke="#000000" points="444.5,-339.7 444.5,-361.7 543.5,-361.7 543.5,-339.7 444.5,-339.7"/>
<text text-anchor="start" x="447.5" y="-347.4" font-family="Helvetica,sans-Serif" font-size="11.00" fill="#000000">int2[5]</text>
<polygon fill="none" stroke="#000000" points="236.5,-317.7 236.5,-339.7 444.5,-339.7 444.5,-317.7 236.5,-317.7"/>
<text text-anchor="start" x="256.5" y="-324.8" font-family="Helvetica,sans-Serif" font-size="11.00" fill="#000000">id</text>
<polygon fill="none" stroke="#000000" points="444.5,-317.7 444.5,-339.7 543.5,-339.7 543.5,-317.7 444.5,-317.7"/>
<text text-anchor="start" x="447.5" y="-325.4" font-family="Helvetica,sans-Serif" font-size="11.00" fill="#000000">uuid[2147483647]</text>
<polygon fill="none" stroke="#000000" points="236.5,-295.7 236.5,-317.7 444.5,-317.7 444.5,-295.7 236.5,-295.7"/>
<text text-anchor="start" x="256.5" y="-302.8" font-family="Helvetica,sans-Serif" font-size="11.00" fill="#000000">version</text>
<polygon fill="none" stroke="#000000" points="444.5,-295.7 444.5,-317.7 543.5,-317.7 543.5,-295.7 444.5,-295.7"/>
<text text-anchor="start" x="447.5" y="-303.4" font-family="Helvetica,sans-Serif" font-size="11.00" fill="#000000">int4[10]</text>
<polygon fill="none" stroke="#000000" points="236.5,-273.7 236.5,-295.7 444.5,-295.7 444.5,-273.7 236.5,-273.7"/>
<text text-anchor="start" x="256.5" y="-280.8" font-family="Helvetica,sans-Serif" font-size="11.00" fill="#000000">person_identifier</text>
<polygon fill="none" stroke="#000000" points="444.5,-273.7 444.5,-295.7 543.5,-295.7 543.5,-273.7 444.5,-273.7"/>
<text text-anchor="start" x="447.5" y="-281.4" font-family="Helvetica,sans-Serif" font-size="11.00" fill="#000000">varchar[10]</text>
<polygon fill="none" stroke="#000000" points="236.5,-251.7 236.5,-273.7 444.5,-273.7 444.5,-251.7 236.5,-251.7"/>
<text text-anchor="start" x="256.5" y="-258.8" font-family="Helvetica,sans-Serif" font-size="11.00" fill="#000000">occurrence_id</text>
<polygon fill="none" stroke="#000000" points="444.5,-251.7 444.5,-273.7 543.5,-273.7 543.5,-251.7 444.5,-251.7"/>
<text text-anchor="start" x="447.5" y="-259.4" font-family="Helvetica,sans-Serif" font-size="11.00" fill="#000000">uuid[2147483647]</text>
<polygon fill="none" stroke="#000000" points="236.5,-229.7 236.5,-251.7 444.5,-251.7 444.5,-229.7 236.5,-229.7"/>
<text text-anchor="start" x="256.5" y="-236.8" font-family="Helvetica,sans-Serif" font-size="11.00" fill="#000000">occurred_at</text>
<polygon fill="none" stroke="#000000" points="444.5,-229.7 444.5,-251.7 543.5,-251.7 543.5,-229.7 444.5,-229.7"/>
<text text-anchor="start" x="447.5" y="-237.4" font-family="Helvetica,sans-Serif" font-size="11.00" fill="#000000">timestamp[29,6]</text>
<polygon fill="none" stroke="#000000" points="236.5,-207.7 236.5,-229.7 444.5,-229.7 444.5,-207.7 236.5,-207.7"/>
<text text-anchor="start" x="256.5" y="-214.8" font-family="Helvetica,sans-Serif" font-size="11.00" fill="#000000">direction</text>
<polygon fill="none" stroke="#000000" points="444.5,-207.7 444.5,-229.7 543.5,-229.7 543.5,-207.7 444.5,-207.7"/>
<text text-anchor="start" x="447.5" y="-215.4" font-family="Helvetica,sans-Serif" font-size="11.00" fill="#000000">varchar[3]</text>
<polygon fill="none" stroke="#000000" points="236.5,-185.7 236.5,-207.7 444.5,-207.7 444.5,-185.7 236.5,-185.7"/>
<text text-anchor="start" x="256.5" y="-192.8" font-family="Helvetica,sans-Serif" font-size="11.00" fill="#000000">absence_reason_id</text>
<polygon fill="none" stroke="#000000" points="444.5,-185.7 444.5,-207.7 543.5,-207.7 543.5,-185.7 444.5,-185.7"/>
<text text-anchor="start" x="447.5" y="-193.4" font-family="Helvetica,sans-Serif" font-size="11.00" fill="#000000">uuid[2147483647]</text>
<polygon fill="none" stroke="#000000" points="236.5,-163.7 236.5,-185.7 444.5,-185.7 444.5,-163.7 236.5,-163.7"/>
<text text-anchor="start" x="256.5" y="-170.8" font-family="Helvetica,sans-Serif" font-size="11.00" fill="#000000">accompanied_by_id</text>
<polygon fill="none" stroke="#000000" points="444.5,-163.7 444.5,-185.7 543.5,-185.7 543.5,-163.7 444.5,-163.7"/>
<text text-anchor="start" x="447.5" y="-171.4" font-family="Helvetica,sans-Serif" font-size="11.00" fill="#000000">uuid[2147483647]</text>
<polygon fill="none" stroke="#000000" points="236.5,-141.7 236.5,-163.7 444.5,-163.7 444.5,-141.7 236.5,-141.7"/>
<text text-anchor="start" x="256.5" y="-148.8" font-family="Helvetica,sans-Serif" font-size="11.00" fill="#000000">accompanied_by_comments</text>
<polygon fill="none" stroke="#000000" points="444.5,-141.7 444.5,-163.7 543.5,-163.7 543.5,-141.7 444.5,-141.7"/>
<text text-anchor="start" x="447.5" y="-149.4" font-family="Helvetica,sans-Serif" font-size="11.00" fill="#000000">text[2147483647]</text>
<polygon fill="none" stroke="#000000" points="236.5,-119.7 236.5,-141.7 444.5,-141.7 444.5,-119.7 236.5,-119.7"/>
<text text-anchor="start" x="256.5" y="-126.8" font-family="Helvetica,sans-Serif" font-size="11.00" fill="#000000">location</text>
<polygon fill="none" stroke="#000000" points="444.5,-119.7 444.5,-141.7 543.5,-141.7 543.5,-119.7 444.5,-119.7"/>
<text text-anchor="start" x="447.2258" y="-127.4" font-family="Helvetica,sans-Serif" font-size="11.00" fill="#000000">jsonb[2147483647]</text>
<polygon fill="none" stroke="#000000" points="236.5,-97.7 236.5,-119.7 444.5,-119.7 444.5,-97.7 236.5,-97.7"/>
<text text-anchor="start" x="256.5" y="-104.8" font-family="Helvetica,sans-Serif" font-size="11.00" fill="#000000">comments</text>
<polygon fill="none" stroke="#000000" points="444.5,-97.7 444.5,-119.7 543.5,-119.7 543.5,-97.7 444.5,-97.7"/>
<text text-anchor="start" x="447.5" y="-105.4" font-family="Helvetica,sans-Serif" font-size="11.00" fill="#000000">text[2147483647]</text>
<polygon fill="none" stroke="#000000" points="236.5,-75.7 236.5,-97.7 444.5,-97.7 444.5,-75.7 236.5,-75.7"/>
<image xlink:href="../../images/foreignKeys.png" width="11px" height="12px" preserveAspectRatio="xMinYMin meet" x="241.5" y="-92.7"/>
<text text-anchor="start" x="256.5" y="-82.8" font-family="Helvetica,sans-Serif" font-size="11.00" fill="#000000">prison_code</text>
<polygon fill="none" stroke="#000000" points="444.5,-75.7 444.5,-97.7 543.5,-97.7 543.5,-75.7 444.5,-75.7"/>
<text text-anchor="start" x="447.5" y="-83.4" font-family="Helvetica,sans-Serif" font-size="11.00" fill="#000000">varchar[6]</text>
<polygon fill="none" stroke="#000000" points="236.5,-53.7 236.5,-75.7 444.5,-75.7 444.5,-53.7 236.5,-53.7"/>
<text text-anchor="start" x="256.5" y="-60.8" font-family="Helvetica,sans-Serif" font-size="11.00" fill="#000000">legacy_id</text>
<polygon fill="none" stroke="#000000" points="444.5,-53.7 444.5,-75.7 543.5,-75.7 543.5,-53.7 444.5,-53.7"/>
<text text-anchor="start" x="447.5" y="-61.4" font-family="Helvetica,sans-Serif" font-size="11.00" fill="#000000">varchar[32]</text>
<polygon fill="none" stroke="#000000" stroke-width="2" points="235,-53.2 235,-474.2 544,-474.2 544,-53.2 235,-53.2"/>
</a>
</g>
</g>
<!-- prison_tap_locations -->
<g id="node2" class="node">
<title>prison_tap_locations</title>
<g id="a_node2"><a xlink:href="../../tables/prison_tap_locations.html" xlink:title="prison_tap_locations" target="_top">
<polygon fill="#ffffff" stroke="transparent" points="8,-38.2 8,-121.2 185,-121.2 185,-38.2 8,-38.2"/>
<polygon fill="#f5f5f5" stroke="transparent" points="8.5,-97.7 8.5,-120.7 185.5,-120.7 185.5,-97.7 8.5,-97.7"/>
<polygon fill="none" stroke="#000000" points="8.5,-97.7 8.5,-120.7 185.5,-120.7 185.5,-97.7 8.5,-97.7"/>
<text text-anchor="start" x="13.5" y="-106.3" font-family="Helvetica,sans-Serif" font-weight="bold" font-size="11.00" fill="#000000">prison_tap_locations</text>
<text text-anchor="start" x="151.0219" y="-105.8" font-family="Helvetica,sans-Serif" font-size="11.00" fill="#000000">[table]</text>
<polygon fill="none" stroke="#000000" points="8.5,-75.7 8.5,-97.7 185.5,-97.7 185.5,-75.7 8.5,-75.7"/>
<image xlink:href="../../images/primaryKeys.png" width="11px" height="12px" preserveAspectRatio="xMinYMin meet" x="13.5" y="-92.7"/>
<text text-anchor="start" x="37.5" y="-82.8" font-family="Helvetica,sans-Serif" font-size="11.00" fill="#000000">prison_code</text>
<polygon fill="none" stroke="#000000" points="8.5,-56.7 8.5,-75.7 185.5,-75.7 185.5,-56.7 8.5,-56.7"/>
<text text-anchor="start" x="11.5" y="-62.8" font-family="Helvetica,sans-Serif" font-size="11.00" fill="#000000">...</text>
<polygon fill="#ffffff" stroke="transparent" points="8.5,-37.7 8.5,-56.7 86.5,-56.7 86.5,-37.7 8.5,-37.7"/>
<polygon fill="none" stroke="#000000" points="8.5,-37.7 8.5,-56.7 86.5,-56.7 86.5,-37.7 8.5,-37.7"/>
<text text-anchor="start" x="11.5" y="-43.8" font-family="Helvetica,sans-Serif" font-size="11.00" fill="#000000"> &#160;</text>
<polygon fill="#ffffff" stroke="transparent" points="86.5,-37.7 86.5,-56.7 131.5,-56.7 131.5,-37.7 86.5,-37.7"/>
<polygon fill="none" stroke="#000000" points="86.5,-37.7 86.5,-56.7 131.5,-56.7 131.5,-37.7 86.5,-37.7"/>
<text text-anchor="start" x="122.3862" y="-43.8" font-family="Helvetica,sans-Serif" font-size="11.00" fill="#000000"> &#160;</text>
<polygon fill="#ffffff" stroke="transparent" points="131.5,-37.7 131.5,-56.7 185.5,-56.7 185.5,-37.7 131.5,-37.7"/>
<polygon fill="none" stroke="#000000" points="131.5,-37.7 131.5,-56.7 185.5,-56.7 185.5,-37.7 131.5,-37.7"/>
<text text-anchor="start" x="166.9053" y="-43.8" font-family="Helvetica,sans-Serif" font-size="11.00" fill="#000000">9 &gt;</text>
</a>
</g>
</g>
<!-- audited_movement&#45;&gt;prison_tap_locations -->
<g id="edge1" class="edge">
<title>audited_movement:w&#45;&gt;prison_tap_locations:e</title>
<path fill="none" stroke="#000000" stroke-dasharray="5,2" d="M221.776,-86.7C209.7815,-86.7 202.3229,-86.7 185.5,-86.7"/>
<polygon fill="#000000" stroke="#000000" points="228.5,-86.7001 236.5,-90.3 232.5,-86.7 236.5,-86.7 236.5,-86.7 236.5,-86.7 232.5,-86.7 236.5,-83.1 228.5,-86.7001 228.5,-86.7001"/>
<ellipse fill="none" stroke="#000000" cx="225.3" cy="-86.7001" rx="3.2" ry="3.2"/>
</g>
</g>
</svg>
