<?xml version="1.0" encoding="UTF-8" standalone="no"?>
<!DOCTYPE svg PUBLIC "-//W3C//DTD SVG 1.1//EN"
 "http://www.w3.org/Graphics/SVG/1.1/DTD/svg11.dtd">
<!-- Generated by graphviz version 2.40.1 (20161225.0304)
 -->
<!-- Title: oneDegreeRelationshipsDiagram Pages: 1 -->
<svg width="335pt" height="473pt"
 viewBox="0.00 0.00 335.00 473.20" xmlns="http://www.w3.org/2000/svg" xmlns:xlink="http://www.w3.org/1999/xlink">
<g id="graph0" class="graph" transform="scale(1 1) rotate(0) translate(4 469.2)">
<title>oneDegreeRelationshipsDiagram</title>
<polygon fill="#ffffff" stroke="transparent" points="-4,4 -4,-469.2 331,-469.2 331,4 -4,4"/>
<text text-anchor="middle" x="72.4936" y="-7.3" font-family="Helvetica,sans-Serif" font-size="11.00" fill="#000000">Generated by SchemaSpy</text>
<!-- audited_movement -->
<g id="node1" class="node">
<title>audited_movement</title>
<g id="a_node1"><a xlink:href="../../tables/audited_movement.html" xlink:title="audited_movement" target="_top">
<polygon fill="#ffffff" stroke="transparent" points="8,-38.2 8,-461.2 319,-461.2 319,-38.2 8,-38.2"/>
<polygon fill="#f5f5f5" stroke="transparent" points="10.5,-435.7 10.5,-458.7 317.5,-458.7 317.5,-435.7 10.5,-435.7"/>
<polygon fill="none" stroke="#000000" points="10.5,-435.7 10.5,-458.7 317.5,-458.7 317.5,-435.7 10.5,-435.7"/>
<text text-anchor="start" x="15.5" y="-444.3" font-family="Helvetica,sans-Serif" font-weight="bold" font-size="11.00" fill="#000000">audited_movement</text>
<text text-anchor="start" x="284.3895" y="-443.8" font-family="Helvetica,sans-Serif" font-size="11.00" fill="#000000">[view]</text>
<polygon fill="none" stroke="#000000" points="10.5,-413.7 10.5,-435.7 218.5,-435.7 218.5,-413.7 10.5,-413.7"/>
<text text-anchor="start" x="30.5" y="-420.8" font-family="Helvetica,sans-Serif" font-size="11.00" fill="#000000">created_by</text>
<polygon fill="none" stroke="#000000" points="218.5,-413.7 218.5,-435.7 317.5,-435.7 317.5,-413.7 218.5,-413.7"/>
<text text-anchor="start" x="221.5" y="-421.4" font-family="Helvetica,sans-Serif" font-size="11.00" fill="#000000">varchar[64]</text>
<polygon fill="none" stroke="#000000" points="10.5,-391.7 10.5,-413.7 218.5,-413.7 218.5,-391.7 10.5,-391.7"/>
<text text-anchor="start" x="30.5" y="-398.8" font-family="Helvetica,sans-Serif" font-size="11.00" fill="#000000">created_at</text>
<polygon fill="none" stroke="#000000" points="218.5,-391.7 218.5,-413.7 317.5,-413.7 317.5,-391.7 218.5,-391.7"/>
<text text-anchor="start" x="221.5" y="-399.4" font-family="Helvetica,sans-Serif" font-size="11.00" fill="#000000">timestamp[29,6]</text>
<polygon fill="none" stroke="#000000" points="10.5,-369.7 10.5,-391.7 218.5,-391.7 218.5,-369.7 10.5,-369.7"/>
<text text-anchor="start" x="30.5" y="-376.8" font-family="Helvetica,sans-Serif" font-size="11.00" fill="#000000">updated_by</text>
<polygon fill="none" stroke="#000000" points="218.5,-369.7 218.5,-391.7 317.5,-391.7 317.5,-369.7 218.5,-369.7"/>
<text text-anchor="start" x="221.5" y="-377.4" font-family="Helvetica,sans-Serif" font-size="11.00" fill="#000000">varchar[64]</text>
<polygon fill="none" stroke="#000000" points="10.5,-347.7 10.5,-369.7 218.5,-369.7 218.5,-347.7 10.5,-347.7"/>
<text text-anchor="start" x="30.5" y="-354.8" font-family="Helvetica,sans-Serif" font-size="11.00" fill="#000000">updated_at</text>
<polygon fill="none" stroke="#000000" points="218.5,-347.7 218.5,-369.7 317.5,-369.7 317.5,-347.7 218.5,-347.7"/>
<text text-anchor="start" x="221.5" y="-355.4" font-family="Helvetica,sans-Serif" font-size="11.00" fill="#000000">timestamp[29,6]</text>
<polygon fill="none" stroke="#000000" points="10.5,-325.7 10.5,-347.7 218.5,-347.7 218.5,-325.7 10.5,-325.7"/>
<text text-anchor="start" x="30.5" y="-332.8" font-family="Helvetica,sans-Serif" font-size="11.00" fill="#000000">rev_type</text>
<polygon fill="none" stroke="#000000" points="218.5,-325.7 218.5,-347.7 317.5,-347.7 317.5,-325.7 218.5,-325.7"/>
<text text-anchor="start" x="221.5" y="-333.4" font-family="Helvetica,sans-Serif" font-size="11.00" fill="#000000">int2[5]</text>
<polygon fill="none" stroke="#000000" points="10.5,-303.7 10.5,-325.7 218.5,-325.7 218.5,-303.7 10.5,-303.7"/>
<text text-anchor="start" x="30.5" y="-310.8" font-family="Helvetica,sans-Serif" font-size="11.00" fill="#000000">id</text>
<polygon fill="none" stroke="#000000" points="218.5,-303.7 218.5,-325.7 317.5,-325.7 317.5,-303.7 218.5,-303.7"/>
<text text-anchor="start" x="221.5" y="-311.4" font-family="Helvetica,sans-Serif" font-size="11.00" fill="#000000">uuid[2147483647]</text>
<polygon fill="none" stroke="#000000" points="10.5,-281.7 10.5,-303.7 218.5,-303.7 218.5,-281.7 10.5,-281.7"/>
<text text-anchor="start" x="30.5" y="-288.8" font-family="Helvetica,sans-Serif" font-size="11.00" fill="#000000">version</text>
<polygon fill="none" stroke="#000000" points="218.5,-281.7 218.5,-303.7 317.5,-303.7 317.5,-281.7 218.5,-281.7"/>
<text text-anchor="start" x="221.5" y="-289.4" font-family="Helvetica,sans-Serif" font-size="11.00" fill="#000000">int4[10]</text>
<polygon fill="none" stroke="#000000" points="10.5,-259.7 10.5,-281.7 218.5,-281.7 218.5,-259.7 10.5,-259.7"/>
<text text-anchor="start" x="30.5" y="-266.8" font-family="Helvetica,sans-Serif" font-size="11.00" fill="#000000">person_identifier</text>
<polygon fill="none" stroke="#000000" points="218.5,-259.7 218.5,-281.7 317.5,-281.7 317.5,-259.7 218.5,-259.7"/>
<text text-anchor="start" x="221.5" y="-267.4" font-family="Helvetica,sans-Serif" font-size="11.00" fill="#000000">varchar[10]</text>
<polygon fill="none" stroke="#000000" points="10.5,-237.7 10.5,-259.7 218.5,-259.7 218.5,-237.7 10.5,-237.7"/>
<text text-anchor="start" x="30.5" y="-244.8" font-family="Helvetica,sans-Serif" font-size="11.00" fill="#000000">occurrence_id</text>
<polygon fill="none" stroke="#000000" points="218.5,-237.7 218.5,-259.7 317.5,-259.7 317.5,-237.7 218.5,-237.7"/>
<text text-anchor="start" x="221.5" y="-245.4" font-family="Helvetica,sans-Serif" font-size="11.00" fill="#000000">uuid[2147483647]</text>
<polygon fill="none" stroke="#000000" points="10.5,-215.7 10.5,-237.7 218.5,-237.7 218.5,-215.7 10.5,-215.7"/>
<text text-anchor="start" x="30.5" y="-222.8" font-family="Helvetica,sans-Serif" font-size="11.00" fill="#000000">occurred_at</text>
<polygon fill="none" stroke="#000000" points="218.5,-215.7 218.5,-237.7 317.5,-237.7 317.5,-215.7 218.5,-215.7"/>
<text text-anchor="start" x="221.5" y="-223.4" font-family="Helvetica,sans-Serif" font-size="11.00" fill="#000000">timestamp[29,6]</text>
<polygon fill="none" stroke="#000000" points="10.5,-193.7 10.5,-215.7 218.5,-215.7 218.5,-193.7 10.5,-193.7"/>
<text text-anchor="start" x="30.5" y="-200.8" font-family="Helvetica,sans-Serif" font-size="11.00" fill="#000000">direction</text>
<polygon fill="none" stroke="#000000" points="218.5,-193.7 218.5,-215.7 317.5,-215.7 317.5,-193.7 218.5,-193.7"/>
<text text-anchor="start" x="221.5" y="-201.4" font-family="Helvetica,sans-Serif" font-size="11.00" fill="#000000">varchar[3]</text>
<polygon fill="none" stroke="#000000" points="10.5,-171.7 10.5,-193.7 218.5,-193.7 218.5,-171.7 10.5,-171.7"/>
<text text-anchor="start" x="30.5" y="-178.8" font-family="Helvetica,sans-Serif" font-size="11.00" fill="#000000">absence_reason_id</text>
<polygon fill="none" stroke="#000000" points="218.5,-171.7 218.5,-193.7 317.5,-193.7 317.5,-171.7 218.5,-171.7"/>
<text text-anchor="start" x="221.5" y="-179.4" font-family="Helvetica,sans-Serif" font-size="11.00" fill="#000000">uuid[2147483647]</text>
<polygon fill="none" stroke="#000000" points="10.5,-149.7 10.5,-171.7 218.5,-171.7 218.5,-149.7 10.5,-149.7"/>
<text text-anchor="start" x="30.5" y="-156.8" font-family="Helvetica,sans-Serif" font-size="11.00" fill="#000000">accompanied_by_id</text>
<polygon fill="none" stroke="#000000" points="218.5,-149.7 218.5,-171.7 317.5,-171.7 317.5,-149.7 218.5,-149.7"/>
<text text-anchor="start" x="221.5" y="-157.4" font-family="Helvetica,sans-Serif" font-size="11.00" fill="#000000">uuid[2147483647]</text>
<polygon fill="none" stroke="#000000" points="10.5,-127.7 10.5,-149.7 218.5,-149.7 218.5,-127.7 10.5,-127.7"/>
<text text-anchor="start" x="30.5" y="-134.8" font-family="Helvetica,sans-Serif" font-size="11.00" fill="#000000">accompanied_by_comments</text>
<polygon fill="none" stroke="#000000" points="218.5,-127.7 218.5,-149.7 317.5,-149.7 317.5,-127.7 218.5,-127.7"/>
<text text-anchor="start" x="221.5" y="-135.4" font-family="Helvetica,sans-Serif" font-size="11.00" fill="#000000">text[2147483647]</text>
<polygon fill="none" stroke="#000000" points="10.5,-105.7 10.5,-127.7 218.5,-127.7 218.5,-105.7 10.5,-105.7"/>
<text text-anchor="start" x="30.5" y="-112.8" font-family="Helvetica,sans-Serif" font-size="11.00" fill="#000000">location</text>
<polygon fill="none" stroke="#000000" points="218.5,-105.7 218.5,-127.7 317.5,-127.7 317.5,-105.7 218.5,-105.7"/>
<text text-anchor="start" x="221.2258" y="-113.4" font-family="Helvetica,sans-Serif" font-size="11.00" fill="#000000">jsonb[2147483647]</text>
<polygon fill="none" stroke="#000000" points="10.5,-83.7 10.5,-105.7 218.5,-105.7 218.5,-83.7 10.5,-83.7"/>
<text text-anchor="start" x="30.5" y="-90.8" font-family="Helvetica,sans-Serif" font-size="11.00" fill="#000000">comments</text>
<polygon fill="none" stroke="#000000" points="218.5,-83.7 218.5,-105.7 317.5,-105.7 317.5,-83.7 218.5,-83.7"/>
<text text-anchor="start" x="221.5" y="-91.4" font-family="Helvetica,sans-Serif" font-size="11.00" fill="#000000">text[2147483647]</text>
<polygon fill="none" stroke="#000000" points="10.5,-61.7 10.5,-83.7 218.5,-83.7 218.5,-61.7 10.5,-61.7"/>
<text text-anchor="start" x="30.5" y="-68.8" font-family="Helvetica,sans-Serif" font-size="11.00" fill="#000000">prison_code</text>
<polygon fill="none" stroke="#000000" points="218.5,-61.7 218.5,-83.7 317.5,-83.7 317.5,-61.7 218.5,-61.7"/>
<text text-anchor="start" x="221.5" y="-69.4" font-family="Helvetica,sans-Serif" font-size="11.00" fill="#000000">varchar[6]</text>
<polygon fill="none" stroke="#000000" points="10.5,-39.7 10.5,-61.7 218.5,-61.7 218.5,-39.7 10.5,-39.7"/>
<text text-anchor="start" x="30.5" y="-46.8" font-family="Helvetica,sans-Serif" font-size="11.00" fill="#000000">legacy_id</text>
<polygon fill="none" stroke="#000000" points="218.5,-39.7 218.5,-61.7 317.5,-61.7 317.5,-39.7 218.5,-39.7"/>
<text text-anchor="start" x="221.5" y="-47.4" font-family="Helvetica,sans-Serif" font-size="11.00" fill="#000000">varchar[32]</text>
<polygon fill="none" stroke="#000000" stroke-width="2" points="9,-39.2 9,-460.2 318,-460.2 318,-39.2 9,-39.2"/>
</a>
</g>
</g>
</g>
</svg>
