<?xml version="1.0" encoding="UTF-8" standalone="no"?>
<!DOCTYPE svg PUBLIC "-//W3C//DTD SVG 1.1//EN"
 "http://www.w3.org/Graphics/SVG/1.1/DTD/svg11.dtd">
<!-- Generated by graphviz version 2.40.1 (20161225.0304)
 -->
<!-- Title: twoDegreesRelationshipsDiagramImplied Pages: 1 -->
<svg width="725pt" height="1148pt"
 viewBox="0.00 0.00 725.00 1148.20" xmlns="http://www.w3.org/2000/svg" xmlns:xlink="http://www.w3.org/1999/xlink">
<g id="graph0" class="graph" transform="scale(1 1) rotate(0) translate(4 1144.2)">
<title>twoDegreesRelationshipsDiagramImplied</title>
<polygon fill="#ffffff" stroke="transparent" points="-4,4 -4,-1144.2 721,-1144.2 721,4 -4,4"/>
<text text-anchor="middle" x="72.4936" y="-7.3" font-family="Helvetica,sans-Serif" font-size="11.00" fill="#000000">Generated by SchemaSpy</text>
<!-- audited_authorisation -->
<g id="node1" class="node">
<title>audited_authorisation</title>
<g id="a_node1"><a xlink:href="../../tables/audited_authorisation.html" xlink:title="audited_authorisation" target="_top">
<polygon fill="#ffffff" stroke="transparent" points="234,-603.2 234,-1136.2 550,-1136.2 550,-603.2 234,-603.2"/>
<polygon fill="#f5f5f5" stroke="transparent" points="236,-1110.7 236,-1133.7 548,-1133.7 548,-1110.7 236,-1110.7"/>
<polygon fill="none" stroke="#000000" points="236,-1110.7 236,-1133.7 548,-1133.7 548,-1110.7 236,-1110.7"/>
<text text-anchor="start" x="241" y="-1119.3" font-family="Helvetica,sans-Serif" font-weight="bold" font-size="11.00" fill="#000000">audited_authorisation</text>
<text text-anchor="start" x="514.8895" y="-1118.8" font-family="Helvetica,sans-Serif" font-size="11.00" fill="#000000">[view]</text>
<polygon fill="none" stroke="#000000" points="236,-1088.7 236,-1110.7 449,-1110.7 449,-1088.7 236,-1088.7"/>
<text text-anchor="start" x="256" y="-1095.8" font-family="Helvetica,sans-Serif" font-size="11.00" fill="#000000">created_by</text>
<polygon fill="none" stroke="#000000" points="449,-1088.7 449,-1110.7 548,-1110.7 548,-1088.7 449,-1088.7"/>
<text text-anchor="start" x="452" y="-1096.4" font-family="Helvetica,sans-Serif" font-size="11.00" fill="#000000">varchar[64]</text>
<polygon fill="none" stroke="#000000" points="236,-1066.7 236,-1088.7 449,-1088.7 449,-1066.7 236,-1066.7"/>
<text text-anchor="start" x="256" y="-1073.8" font-family="Helvetica,sans-Serif" font-size="11.00" fill="#000000">created_at</text>
<polygon fill="none" stroke="#000000" points="449,-1066.7 449,-1088.7 548,-1088.7 548,-1066.7 449,-1066.7"/>
<text text-anchor="start" x="452" y="-1074.4" font-family="Helvetica,sans-Serif" font-size="11.00" fill="#000000">timestamp[29,6]</text>
<polygon fill="none" stroke="#000000" points="236,-1044.7 236,-1066.7 449,-1066.7 449,-1044.7 236,-1044.7"/>
<text text-anchor="start" x="256" y="-1051.8" font-family="Helvetica,sans-Serif" font-size="11.00" fill="#000000">updated_by</text>
<polygon fill="none" stroke="#000000" points="449,-1044.7 449,-1066.7 548,-1066.7 548,-1044.7 449,-1044.7"/>
<text text-anchor="start" x="452" y="-1052.4" font-family="Helvetica,sans-Serif" font-size="11.00" fill="#000000">varchar[64]</text>
<polygon fill="none" stroke="#000000" points="236,-1022.7 236,-1044.7 449,-1044.7 449,-1022.7 236,-1022.7"/>
<text text-anchor="start" x="256" y="-1029.8" font-family="Helvetica,sans-Serif" font-size="11.00" fill="#000000">updated_at</text>
<polygon fill="none" stroke="#000000" points="449,-1022.7 449,-1044.7 548,-1044.7 548,-1022.7 449,-1022.7"/>
<text text-anchor="start" x="452" y="-1030.4" font-family="Helvetica,sans-Serif" font-size="11.00" fill="#000000">timestamp[29,6]</text>
<polygon fill="none" stroke="#000000" points="236,-1000.7 236,-1022.7 449,-1022.7 449,-1000.7 236,-1000.7"/>
<text text-anchor="start" x="256" y="-1007.8" font-family="Helvetica,sans-Serif" font-size="11.00" fill="#000000">rev_type</text>
<polygon fill="none" stroke="#000000" points="449,-1000.7 449,-1022.7 548,-1022.7 548,-1000.7 449,-1000.7"/>
<text text-anchor="start" x="452" y="-1008.4" font-family="Helvetica,sans-Serif" font-size="11.00" fill="#000000">int2[5]</text>
<polygon fill="none" stroke="#000000" points="236,-978.7 236,-1000.7 449,-1000.7 449,-978.7 236,-978.7"/>
<text text-anchor="start" x="256" y="-985.8" font-family="Helvetica,sans-Serif" font-size="11.00" fill="#000000">id</text>
<polygon fill="none" stroke="#000000" points="449,-978.7 449,-1000.7 548,-1000.7 548,-978.7 449,-978.7"/>
<text text-anchor="start" x="452" y="-986.4" font-family="Helvetica,sans-Serif" font-size="11.00" fill="#000000">uuid[2147483647]</text>
<polygon fill="none" stroke="#000000" points="236,-956.7 236,-978.7 449,-978.7 449,-956.7 236,-956.7"/>
<text text-anchor="start" x="256" y="-963.8" font-family="Helvetica,sans-Serif" font-size="11.00" fill="#000000">version</text>
<polygon fill="none" stroke="#000000" points="449,-956.7 449,-978.7 548,-978.7 548,-956.7 449,-956.7"/>
<text text-anchor="start" x="452" y="-964.4" font-family="Helvetica,sans-Serif" font-size="11.00" fill="#000000">int4[10]</text>
<polygon fill="none" stroke="#000000" points="236,-934.7 236,-956.7 449,-956.7 449,-934.7 236,-934.7"/>
<text text-anchor="start" x="256" y="-941.8" font-family="Helvetica,sans-Serif" font-size="11.00" fill="#000000">person_identifier</text>
<polygon fill="none" stroke="#000000" points="449,-934.7 449,-956.7 548,-956.7 548,-934.7 449,-934.7"/>
<text text-anchor="start" x="452" y="-942.4" font-family="Helvetica,sans-Serif" font-size="11.00" fill="#000000">varchar[10]</text>
<polygon fill="none" stroke="#000000" points="236,-912.7 236,-934.7 449,-934.7 449,-912.7 236,-912.7"/>
<image xlink:href="../../images/foreignKeys.png" width="11px" height="12px" preserveAspectRatio="xMinYMin meet" x="241" y="-929.7"/>
<text text-anchor="start" x="256" y="-919.8" font-family="Helvetica,sans-Serif" font-size="11.00" fill="#000000">prison_code</text>
<polygon fill="none" stroke="#000000" points="449,-912.7 449,-934.7 548,-934.7 548,-912.7 449,-912.7"/>
<text text-anchor="start" x="452" y="-920.4" font-family="Helvetica,sans-Serif" font-size="11.00" fill="#000000">varchar[6]</text>
<polygon fill="none" stroke="#000000" points="236,-890.7 236,-912.7 449,-912.7 449,-890.7 236,-890.7"/>
<text text-anchor="start" x="256" y="-897.8" font-family="Helvetica,sans-Serif" font-size="11.00" fill="#000000">status_id</text>
<polygon fill="none" stroke="#000000" points="449,-890.7 449,-912.7 548,-912.7 548,-890.7 449,-890.7"/>
<text text-anchor="start" x="452" y="-898.4" font-family="Helvetica,sans-Serif" font-size="11.00" fill="#000000">uuid[2147483647]</text>
<polygon fill="none" stroke="#000000" points="236,-868.7 236,-890.7 449,-890.7 449,-868.7 236,-868.7"/>
<text text-anchor="start" x="256" y="-875.8" font-family="Helvetica,sans-Serif" font-size="11.00" fill="#000000">absence_type_id</text>
<polygon fill="none" stroke="#000000" points="449,-868.7 449,-890.7 548,-890.7 548,-868.7 449,-868.7"/>
<text text-anchor="start" x="452" y="-876.4" font-family="Helvetica,sans-Serif" font-size="11.00" fill="#000000">uuid[2147483647]</text>
<polygon fill="none" stroke="#000000" points="236,-846.7 236,-868.7 449,-868.7 449,-846.7 236,-846.7"/>
<text text-anchor="start" x="256" y="-853.8" font-family="Helvetica,sans-Serif" font-size="11.00" fill="#000000">absence_sub_type_id</text>
<polygon fill="none" stroke="#000000" points="449,-846.7 449,-868.7 548,-868.7 548,-846.7 449,-846.7"/>
<text text-anchor="start" x="452" y="-854.4" font-family="Helvetica,sans-Serif" font-size="11.00" fill="#000000">uuid[2147483647]</text>
<polygon fill="none" stroke="#000000" points="236,-824.7 236,-846.7 449,-846.7 449,-824.7 236,-824.7"/>
<text text-anchor="start" x="256" y="-831.8" font-family="Helvetica,sans-Serif" font-size="11.00" fill="#000000">absence_reason_category_id</text>
<polygon fill="none" stroke="#000000" points="449,-824.7 449,-846.7 548,-846.7 548,-824.7 449,-824.7"/>
<text text-anchor="start" x="452" y="-832.4" font-family="Helvetica,sans-Serif" font-size="11.00" fill="#000000">uuid[2147483647]</text>
<polygon fill="none" stroke="#000000" points="236,-802.7 236,-824.7 449,-824.7 449,-802.7 236,-802.7"/>
<text text-anchor="start" x="256" y="-809.8" font-family="Helvetica,sans-Serif" font-size="11.00" fill="#000000">absence_reason_id</text>
<polygon fill="none" stroke="#000000" points="449,-802.7 449,-824.7 548,-824.7 548,-802.7 449,-802.7"/>
<text text-anchor="start" x="452" y="-810.4" font-family="Helvetica,sans-Serif" font-size="11.00" fill="#000000">uuid[2147483647]</text>
<polygon fill="none" stroke="#000000" points="236,-780.7 236,-802.7 449,-802.7 449,-780.7 236,-780.7"/>
<text text-anchor="start" x="256" y="-787.8" font-family="Helvetica,sans-Serif" font-size="11.00" fill="#000000">accompanied_by_id</text>
<polygon fill="none" stroke="#000000" points="449,-780.7 449,-802.7 548,-802.7 548,-780.7 449,-780.7"/>
<text text-anchor="start" x="452" y="-788.4" font-family="Helvetica,sans-Serif" font-size="11.00" fill="#000000">uuid[2147483647]</text>
<polygon fill="none" stroke="#000000" points="236,-758.7 236,-780.7 449,-780.7 449,-758.7 236,-758.7"/>
<text text-anchor="start" x="256" y="-765.8" font-family="Helvetica,sans-Serif" font-size="11.00" fill="#000000">transport_id</text>
<polygon fill="none" stroke="#000000" points="449,-758.7 449,-780.7 548,-780.7 548,-758.7 449,-758.7"/>
<text text-anchor="start" x="452" y="-766.4" font-family="Helvetica,sans-Serif" font-size="11.00" fill="#000000">uuid[2147483647]</text>
<polygon fill="none" stroke="#000000" points="236,-736.7 236,-758.7 449,-758.7 449,-736.7 236,-736.7"/>
<text text-anchor="start" x="256" y="-743.8" font-family="Helvetica,sans-Serif" font-size="11.00" fill="#000000">repeat</text>
<polygon fill="none" stroke="#000000" points="449,-736.7 449,-758.7 548,-758.7 548,-736.7 449,-736.7"/>
<text text-anchor="start" x="452" y="-744.4" font-family="Helvetica,sans-Serif" font-size="11.00" fill="#000000">bool[1]</text>
<polygon fill="none" stroke="#000000" points="236,-714.7 236,-736.7 449,-736.7 449,-714.7 236,-714.7"/>
<text text-anchor="start" x="256" y="-721.8" font-family="Helvetica,sans-Serif" font-size="11.00" fill="#000000">comments</text>
<polygon fill="none" stroke="#000000" points="449,-714.7 449,-736.7 548,-736.7 548,-714.7 449,-714.7"/>
<text text-anchor="start" x="452" y="-722.4" font-family="Helvetica,sans-Serif" font-size="11.00" fill="#000000">text[2147483647]</text>
<polygon fill="none" stroke="#000000" points="236,-692.7 236,-714.7 449,-714.7 449,-692.7 236,-692.7"/>
<text text-anchor="start" x="256" y="-699.8" font-family="Helvetica,sans-Serif" font-size="11.00" fill="#000000">start</text>
<polygon fill="none" stroke="#000000" points="449,-692.7 449,-714.7 548,-714.7 548,-692.7 449,-692.7"/>
<text text-anchor="start" x="452" y="-700.4" font-family="Helvetica,sans-Serif" font-size="11.00" fill="#000000">date[13]</text>
<polygon fill="none" stroke="#000000" points="236,-670.7 236,-692.7 449,-692.7 449,-670.7 236,-670.7"/>
<text text-anchor="start" x="256" y="-677.8" font-family="Helvetica,sans-Serif" font-size="11.00" fill="#000000">end</text>
<polygon fill="none" stroke="#000000" points="449,-670.7 449,-692.7 548,-692.7 548,-670.7 449,-670.7"/>
<text text-anchor="start" x="452" y="-678.4" font-family="Helvetica,sans-Serif" font-size="11.00" fill="#000000">date[13]</text>
<polygon fill="none" stroke="#000000" points="236,-648.7 236,-670.7 449,-670.7 449,-648.7 236,-648.7"/>
<text text-anchor="start" x="256" y="-655.8" font-family="Helvetica,sans-Serif" font-size="11.00" fill="#000000">reason_path</text>
<polygon fill="none" stroke="#000000" points="449,-648.7 449,-670.7 548,-670.7 548,-648.7 449,-648.7"/>
<text text-anchor="start" x="451.7258" y="-656.4" font-family="Helvetica,sans-Serif" font-size="11.00" fill="#000000">jsonb[2147483647]</text>
<polygon fill="none" stroke="#000000" points="236,-626.7 236,-648.7 449,-648.7 449,-626.7 236,-626.7"/>
<text text-anchor="start" x="256" y="-633.8" font-family="Helvetica,sans-Serif" font-size="11.00" fill="#000000">schedule</text>
<polygon fill="none" stroke="#000000" points="449,-626.7 449,-648.7 548,-648.7 548,-626.7 449,-626.7"/>
<text text-anchor="start" x="451.7258" y="-634.4" font-family="Helvetica,sans-Serif" font-size="11.00" fill="#000000">jsonb[2147483647]</text>
<polygon fill="none" stroke="#000000" points="236,-604.7 236,-626.7 449,-626.7 449,-604.7 236,-604.7"/>
<text text-anchor="start" x="256" y="-611.8" font-family="Helvetica,sans-Serif" font-size="11.00" fill="#000000">legacy_id</text>
<polygon fill="none" stroke="#000000" points="449,-604.7 449,-626.7 548,-626.7 548,-604.7 449,-604.7"/>
<text text-anchor="start" x="452" y="-612.4" font-family="Helvetica,sans-Serif" font-size="11.00" fill="#000000">int8[19]</text>
<polygon fill="none" stroke="#000000" stroke-width="2" points="235,-604.2 235,-1135.2 549,-1135.2 549,-604.2 235,-604.2"/>
</a>
</g>
</g>
<!-- prison_tap_locations -->
<g id="node2" class="node">
<title>prison_tap_locations</title>
<g id="a_node2"><a xlink:href="../../tables/prison_tap_locations.html" xlink:title="prison_tap_locations" target="_top">
<polygon fill="#ffffff" stroke="transparent" points="8,-291.2 8,-374.2 185,-374.2 185,-291.2 8,-291.2"/>
<polygon fill="#f5f5f5" stroke="transparent" points="8.5,-350.7 8.5,-373.7 185.5,-373.7 185.5,-350.7 8.5,-350.7"/>
<polygon fill="none" stroke="#000000" points="8.5,-350.7 8.5,-373.7 185.5,-373.7 185.5,-350.7 8.5,-350.7"/>
<text text-anchor="start" x="13.5" y="-359.3" font-family="Helvetica,sans-Serif" font-weight="bold" font-size="11.00" fill="#000000">prison_tap_locations</text>
<text text-anchor="start" x="151.0219" y="-358.8" font-family="Helvetica,sans-Serif" font-size="11.00" fill="#000000">[table]</text>
<polygon fill="none" stroke="#000000" points="8.5,-328.7 8.5,-350.7 185.5,-350.7 185.5,-328.7 8.5,-328.7"/>
<image xlink:href="../../images/primaryKeys.png" width="11px" height="12px" preserveAspectRatio="xMinYMin meet" x="13.5" y="-345.7"/>
<text text-anchor="start" x="37.5" y="-335.8" font-family="Helvetica,sans-Serif" font-size="11.00" fill="#000000">prison_code</text>
<polygon fill="none" stroke="#000000" points="8.5,-309.7 8.5,-328.7 185.5,-328.7 185.5,-309.7 8.5,-309.7"/>
<text text-anchor="start" x="11.5" y="-315.8" font-family="Helvetica,sans-Serif" font-size="11.00" fill="#000000">...</text>
<polygon fill="#ffffff" stroke="transparent" points="8.5,-290.7 8.5,-309.7 86.5,-309.7 86.5,-290.7 8.5,-290.7"/>
<polygon fill="none" stroke="#000000" points="8.5,-290.7 8.5,-309.7 86.5,-309.7 86.5,-290.7 8.5,-290.7"/>
<text text-anchor="start" x="11.5" y="-296.8" font-family="Helvetica,sans-Serif" font-size="11.00" fill="#000000"> &#160;</text>
<polygon fill="#ffffff" stroke="transparent" points="86.5,-290.7 86.5,-309.7 131.5,-309.7 131.5,-290.7 86.5,-290.7"/>
<polygon fill="none" stroke="#000000" points="86.5,-290.7 86.5,-309.7 131.5,-309.7 131.5,-290.7 86.5,-290.7"/>
<text text-anchor="start" x="122.3862" y="-296.8" font-family="Helvetica,sans-Serif" font-size="11.00" fill="#000000"> &#160;</text>
<polygon fill="#ffffff" stroke="transparent" points="131.5,-290.7 131.5,-309.7 185.5,-309.7 185.5,-290.7 131.5,-290.7"/>
<polygon fill="none" stroke="#000000" points="131.5,-290.7 131.5,-309.7 185.5,-309.7 185.5,-290.7 131.5,-290.7"/>
<text text-anchor="start" x="166.9053" y="-296.8" font-family="Helvetica,sans-Serif" font-size="11.00" fill="#000000">9 &gt;</text>
</a>
</g>
</g>
<!-- audited_authorisation&#45;&gt;prison_tap_locations -->
<g id="edge1" class="edge">
<title>audited_authorisation:w&#45;&gt;prison_tap_locations:e</title>
<path fill="none" stroke="#000000" stroke-dasharray="5,2" d="M224.0405,-914.9913C181.6404,-842.3436 245.9243,-339.7 185.5,-339.7"/>
<polygon fill="#000000" stroke="#000000" points="229.5329,-918.9908 233.8808,-926.6102 232.7664,-921.3454 236,-923.7 236,-923.7 236,-923.7 232.7664,-921.3454 238.1192,-920.7898 229.5329,-918.9908 229.5329,-918.9908"/>
<ellipse fill="none" stroke="#000000" cx="226.9461" cy="-917.1071" rx="3.2" ry="3.2"/>
</g>
<!-- audited_movement -->
<g id="node3" class="node">
<title>audited_movement</title>
<g id="a_node3"><a xlink:href="../../tables/audited_movement.html" xlink:title="audited_movement" target="_top">
<polygon fill="#ffffff" stroke="transparent" points="308.5,-539.7 308.5,-581.7 475.5,-581.7 475.5,-539.7 308.5,-539.7"/>
<polygon fill="#f5f5f5" stroke="transparent" points="309,-558.7 309,-581.7 476,-581.7 476,-558.7 309,-558.7"/>
<polygon fill="none" stroke="#000000" points="309,-558.7 309,-581.7 476,-581.7 476,-558.7 309,-558.7"/>
<text text-anchor="start" x="314" y="-567.3" font-family="Helvetica,sans-Serif" font-weight="bold" font-size="11.00" fill="#000000">audited_movement</text>
<text text-anchor="start" x="442.9448" y="-566.8" font-family="Helvetica,sans-Serif" font-size="11.00" fill="#000000">[view]</text>
<polygon fill="none" stroke="#000000" points="309,-539.7 309,-558.7 476,-558.7 476,-539.7 309,-539.7"/>
<text text-anchor="start" x="312" y="-545.8" font-family="Helvetica,sans-Serif" font-size="11.00" fill="#000000">...</text>
</a>
</g>
</g>
<!-- audited_movement&#45;&gt;prison_tap_locations -->
<g id="edge2" class="edge">
<title>audited_movement:w&#45;&gt;prison_tap_locations:e</title>
<path fill="none" stroke="#000000" stroke-dasharray="5,2" d="M294.488,-549.0368C265.9223,-550.2237 248.9265,-552.9735 226,-529.7 165.4076,-468.1904 271.8416,-339.7 185.5,-339.7"/>
<polygon fill="#000000" stroke="#000000" points="301.0022,-548.8856 309.0835,-552.299 305.0011,-548.7928 309,-548.7 309,-548.7 309,-548.7 305.0011,-548.7928 308.9165,-545.101 301.0022,-548.8856 301.0022,-548.8856"/>
<ellipse fill="none" stroke="#000000" cx="297.803" cy="-548.9599" rx="3.2" ry="3.2"/>
</g>
<!-- audited_occurrence -->
<g id="node4" class="node">
<title>audited_occurrence</title>
<g id="a_node4"><a xlink:href="../../tables/audited_occurrence.html" xlink:title="audited_occurrence" target="_top">
<polygon fill="#ffffff" stroke="transparent" points="307,-476.7 307,-518.7 477,-518.7 477,-476.7 307,-476.7"/>
<polygon fill="#f5f5f5" stroke="transparent" points="307,-495.7 307,-518.7 477,-518.7 477,-495.7 307,-495.7"/>
<polygon fill="none" stroke="#000000" points="307,-495.7 307,-518.7 477,-518.7 477,-495.7 307,-495.7"/>
<text text-anchor="start" x="312" y="-504.3" font-family="Helvetica,sans-Serif" font-weight="bold" font-size="11.00" fill="#000000">audited_occurrence</text>
<text text-anchor="start" x="443.9448" y="-503.8" font-family="Helvetica,sans-Serif" font-size="11.00" fill="#000000">[view]</text>
<polygon fill="none" stroke="#000000" points="307,-476.7 307,-495.7 477,-495.7 477,-476.7 307,-476.7"/>
<text text-anchor="start" x="310" y="-482.8" font-family="Helvetica,sans-Serif" font-size="11.00" fill="#000000">...</text>
</a>
</g>
</g>
<!-- audited_occurrence&#45;&gt;prison_tap_locations -->
<g id="edge3" class="edge">
<title>audited_occurrence:w&#45;&gt;prison_tap_locations:e</title>
<path fill="none" stroke="#000000" stroke-dasharray="5,2" d="M292.474,-485.9147C264.9872,-486.5858 249.2961,-487.4433 226,-465.7 182.9983,-425.5646 244.3218,-339.7 185.5,-339.7"/>
<polygon fill="#000000" stroke="#000000" points="299.0009,-485.8183 307.0532,-489.2996 303.0004,-485.7591 307,-485.7 307,-485.7 307,-485.7 303.0004,-485.7591 306.9468,-482.1004 299.0009,-485.8183 299.0009,-485.8183"/>
<ellipse fill="none" stroke="#000000" cx="295.8012" cy="-485.8656" rx="3.2" ry="3.2"/>
</g>
<!-- authorisation -->
<g id="node5" class="node">
<title>authorisation</title>
<g id="a_node5"><a xlink:href="../../tables/authorisation.html" xlink:title="authorisation" target="_top">
<polygon fill="#ffffff" stroke="transparent" points="327,-394.2 327,-455.2 457,-455.2 457,-394.2 327,-394.2"/>
<polygon fill="#f5f5f5" stroke="transparent" points="327,-431.7 327,-454.7 457,-454.7 457,-431.7 327,-431.7"/>
<polygon fill="none" stroke="#000000" points="327,-431.7 327,-454.7 457,-454.7 457,-431.7 327,-431.7"/>
<text text-anchor="start" x="332" y="-440.3" font-family="Helvetica,sans-Serif" font-weight="bold" font-size="11.00" fill="#000000">authorisation</text>
<text text-anchor="start" x="422.5219" y="-439.8" font-family="Helvetica,sans-Serif" font-size="11.00" fill="#000000">[table]</text>
<polygon fill="none" stroke="#000000" points="327,-412.7 327,-431.7 457,-431.7 457,-412.7 327,-412.7"/>
<text text-anchor="start" x="330" y="-418.8" font-family="Helvetica,sans-Serif" font-size="11.00" fill="#000000">...</text>
<polygon fill="#ffffff" stroke="transparent" points="327,-393.7 327,-412.7 390,-412.7 390,-393.7 327,-393.7"/>
<polygon fill="none" stroke="#000000" points="327,-393.7 327,-412.7 390,-412.7 390,-393.7 327,-393.7"/>
<text text-anchor="start" x="330" y="-399.8" font-family="Helvetica,sans-Serif" font-size="11.00" fill="#000000">&lt; 9</text>
<polygon fill="#ffffff" stroke="transparent" points="390,-393.7 390,-412.7 423,-412.7 423,-393.7 390,-393.7"/>
<polygon fill="none" stroke="#000000" points="390,-393.7 390,-412.7 423,-412.7 423,-393.7 390,-393.7"/>
<text text-anchor="start" x="413.8862" y="-399.8" font-family="Helvetica,sans-Serif" font-size="11.00" fill="#000000"> &#160;</text>
<polygon fill="#ffffff" stroke="transparent" points="423,-393.7 423,-412.7 457,-412.7 457,-393.7 423,-393.7"/>
<polygon fill="none" stroke="#000000" points="423,-393.7 423,-412.7 457,-412.7 457,-393.7 423,-393.7"/>
<text text-anchor="start" x="447.8862" y="-399.8" font-family="Helvetica,sans-Serif" font-size="11.00" fill="#000000"> &#160;</text>
</a>
</g>
</g>
<!-- authorisation&#45;&gt;prison_tap_locations -->
<g id="edge4" class="edge">
<title>authorisation:w&#45;&gt;prison_tap_locations:e</title>
<path fill="none" stroke="#000000" stroke-dasharray="5,2" d="M312.4276,-421.2928C275.8182,-419.0665 261.4146,-407.5829 226,-383.7 203.9641,-368.8394 212.0786,-339.7 185.5,-339.7"/>
<polygon fill="#000000" stroke="#000000" points="319.0031,-421.4765 326.8994,-425.2986 323.0016,-421.5882 327,-421.7 327,-421.7 327,-421.7 323.0016,-421.5882 327.1006,-418.1014 319.0031,-421.4765 319.0031,-421.4765"/>
<ellipse fill="none" stroke="#000000" cx="315.8044" cy="-421.3871" rx="3.2" ry="3.2"/>
</g>
<!-- authorisation_audit -->
<g id="node6" class="node">
<title>authorisation_audit</title>
<g id="a_node6"><a xlink:href="../../tables/authorisation_audit.html" xlink:title="authorisation_audit" target="_top">
<polygon fill="#ffffff" stroke="transparent" points="306.5,-312.2 306.5,-373.2 477.5,-373.2 477.5,-312.2 306.5,-312.2"/>
<polygon fill="#f5f5f5" stroke="transparent" points="307,-349.7 307,-372.7 478,-372.7 478,-349.7 307,-349.7"/>
<polygon fill="none" stroke="#000000" points="307,-349.7 307,-372.7 478,-372.7 478,-349.7 307,-349.7"/>
<text text-anchor="start" x="312" y="-358.3" font-family="Helvetica,sans-Serif" font-weight="bold" font-size="11.00" fill="#000000">authorisation_audit</text>
<text text-anchor="start" x="443.5219" y="-357.8" font-family="Helvetica,sans-Serif" font-size="11.00" fill="#000000">[table]</text>
<polygon fill="none" stroke="#000000" points="307,-330.7 307,-349.7 478,-349.7 478,-330.7 307,-330.7"/>
<text text-anchor="start" x="310" y="-336.8" font-family="Helvetica,sans-Serif" font-size="11.00" fill="#000000">...</text>
<polygon fill="#ffffff" stroke="transparent" points="307,-311.7 307,-330.7 391,-330.7 391,-311.7 307,-311.7"/>
<polygon fill="none" stroke="#000000" points="307,-311.7 307,-330.7 391,-330.7 391,-311.7 307,-311.7"/>
<text text-anchor="start" x="310" y="-317.8" font-family="Helvetica,sans-Serif" font-size="11.00" fill="#000000">&lt; 2</text>
<polygon fill="#ffffff" stroke="transparent" points="391,-311.7 391,-330.7 434,-330.7 434,-311.7 391,-311.7"/>
<polygon fill="none" stroke="#000000" points="391,-311.7 391,-330.7 434,-330.7 434,-311.7 391,-311.7"/>
<text text-anchor="start" x="424.8862" y="-317.8" font-family="Helvetica,sans-Serif" font-size="11.00" fill="#000000"> &#160;</text>
<polygon fill="#ffffff" stroke="transparent" points="434,-311.7 434,-330.7 478,-330.7 478,-311.7 434,-311.7"/>
<polygon fill="none" stroke="#000000" points="434,-311.7 434,-330.7 478,-330.7 478,-311.7 434,-311.7"/>
<text text-anchor="start" x="468.8862" y="-317.8" font-family="Helvetica,sans-Serif" font-size="11.00" fill="#000000"> &#160;</text>
</a>
</g>
</g>
<!-- authorisation_audit&#45;&gt;prison_tap_locations -->
<g id="edge5" class="edge">
<title>authorisation_audit:w&#45;&gt;prison_tap_locations:e</title>
<path fill="none" stroke="#000000" stroke-dasharray="5,2" d="M292.5379,-339.7C250.0451,-339.7 234.332,-339.7 185.5,-339.7"/>
<polygon fill="#000000" stroke="#000000" points="299,-339.7001 307,-343.3 303,-339.7 307,-339.7 307,-339.7 307,-339.7 303,-339.7 307,-336.1 299,-339.7001 299,-339.7001"/>
<ellipse fill="none" stroke="#000000" cx="295.8" cy="-339.7001" rx="3.2" ry="3.2"/>
</g>
<!-- movement -->
<g id="node7" class="node">
<title>movement</title>
<g id="a_node7"><a xlink:href="../../tables/movement.html" xlink:title="movement" target="_top">
<polygon fill="#ffffff" stroke="transparent" points="599,-231.2 599,-292.2 709,-292.2 709,-231.2 599,-231.2"/>
<polygon fill="#f5f5f5" stroke="transparent" points="599,-268.7 599,-291.7 709,-291.7 709,-268.7 599,-268.7"/>
<polygon fill="none" stroke="#000000" points="599,-268.7 599,-291.7 709,-291.7 709,-268.7 599,-268.7"/>
<text text-anchor="start" x="604" y="-277.3" font-family="Helvetica,sans-Serif" font-weight="bold" font-size="11.00" fill="#000000">movement</text>
<text text-anchor="start" x="674.5219" y="-276.8" font-family="Helvetica,sans-Serif" font-size="11.00" fill="#000000">[table]</text>
<polygon fill="none" stroke="#000000" points="599,-249.7 599,-268.7 709,-268.7 709,-249.7 599,-249.7"/>
<text text-anchor="start" x="602" y="-255.8" font-family="Helvetica,sans-Serif" font-size="11.00" fill="#000000">...</text>
<polygon fill="#ffffff" stroke="transparent" points="599,-230.7 599,-249.7 652,-249.7 652,-230.7 599,-230.7"/>
<polygon fill="none" stroke="#000000" points="599,-230.7 599,-249.7 652,-249.7 652,-230.7 599,-230.7"/>
<text text-anchor="start" x="602" y="-236.8" font-family="Helvetica,sans-Serif" font-size="11.00" fill="#000000">&lt; 5</text>
<polygon fill="#ffffff" stroke="transparent" points="652,-230.7 652,-249.7 680,-249.7 680,-230.7 652,-230.7"/>
<polygon fill="none" stroke="#000000" points="652,-230.7 652,-249.7 680,-249.7 680,-230.7 652,-230.7"/>
<text text-anchor="start" x="670.8862" y="-236.8" font-family="Helvetica,sans-Serif" font-size="11.00" fill="#000000"> &#160;</text>
<polygon fill="#ffffff" stroke="transparent" points="680,-230.7 680,-249.7 709,-249.7 709,-230.7 680,-230.7"/>
<polygon fill="none" stroke="#000000" points="680,-230.7 680,-249.7 709,-249.7 709,-230.7 680,-230.7"/>
<text text-anchor="start" x="699.8862" y="-236.8" font-family="Helvetica,sans-Serif" font-size="11.00" fill="#000000"> &#160;</text>
</a>
</g>
</g>
<!-- movement&#45;&gt;prison_tap_locations -->
<g id="edge7" class="edge">
<title>movement:w&#45;&gt;prison_tap_locations:e</title>
<path fill="none" stroke="#000000" stroke-dasharray="5,2" d="M584.7089,-261.3359C576.3489,-264.8116 571.0258,-270.8223 558,-273.7 413.4072,-305.6443 361.279,-241.4746 226,-301.7 203.451,-311.7387 210.1827,-339.7 185.5,-339.7"/>
<polygon fill="#000000" stroke="#000000" points="591.1327,-260.1511 599.653,-262.2403 595.0664,-259.4256 599,-258.7 599,-258.7 599,-258.7 595.0664,-259.4256 598.347,-255.1597 591.1327,-260.1511 591.1327,-260.1511"/>
<ellipse fill="none" stroke="#000000" cx="587.9858" cy="-260.7316" rx="3.2" ry="3.2"/>
</g>
<!-- occurrence -->
<g id="node8" class="node">
<title>occurrence</title>
<g id="a_node8"><a xlink:href="../../tables/occurrence.html" xlink:title="occurrence" target="_top">
<polygon fill="#ffffff" stroke="transparent" points="335.5,-202.2 335.5,-263.2 448.5,-263.2 448.5,-202.2 335.5,-202.2"/>
<polygon fill="#f5f5f5" stroke="transparent" points="336,-239.7 336,-262.7 449,-262.7 449,-239.7 336,-239.7"/>
<polygon fill="none" stroke="#000000" points="336,-239.7 336,-262.7 449,-262.7 449,-239.7 336,-239.7"/>
<text text-anchor="start" x="341" y="-248.3" font-family="Helvetica,sans-Serif" font-weight="bold" font-size="11.00" fill="#000000">occurrence</text>
<text text-anchor="start" x="414.5219" y="-247.8" font-family="Helvetica,sans-Serif" font-size="11.00" fill="#000000">[table]</text>
<polygon fill="none" stroke="#000000" points="336,-220.7 336,-239.7 449,-239.7 449,-220.7 336,-220.7"/>
<text text-anchor="start" x="339" y="-226.8" font-family="Helvetica,sans-Serif" font-size="11.00" fill="#000000">...</text>
<polygon fill="#ffffff" stroke="transparent" points="336,-201.7 336,-220.7 386,-220.7 386,-201.7 336,-201.7"/>
<polygon fill="none" stroke="#000000" points="336,-201.7 336,-220.7 386,-220.7 386,-201.7 336,-201.7"/>
<text text-anchor="start" x="339" y="-207.8" font-family="Helvetica,sans-Serif" font-size="11.00" fill="#000000">&lt; 9</text>
<polygon fill="#ffffff" stroke="transparent" points="386,-201.7 386,-220.7 413,-220.7 413,-201.7 386,-201.7"/>
<polygon fill="none" stroke="#000000" points="386,-201.7 386,-220.7 413,-220.7 413,-201.7 386,-201.7"/>
<text text-anchor="start" x="403.8862" y="-207.8" font-family="Helvetica,sans-Serif" font-size="11.00" fill="#000000"> &#160;</text>
<polygon fill="#ffffff" stroke="transparent" points="413,-201.7 413,-220.7 449,-220.7 449,-201.7 413,-201.7"/>
<polygon fill="none" stroke="#000000" points="413,-201.7 413,-220.7 449,-220.7 449,-201.7 413,-201.7"/>
<text text-anchor="start" x="430.4053" y="-207.8" font-family="Helvetica,sans-Serif" font-size="11.00" fill="#000000">1 &gt;</text>
</a>
</g>
</g>
<!-- movement&#45;&gt;occurrence -->
<g id="edge6" class="edge">
<title>movement:w&#45;&gt;occurrence:e</title>
<path fill="none" stroke="#000000" d="M584.3708,-258.2208C528.6243,-254.4503 511.729,-229.7 449,-229.7"/>
<polygon fill="#000000" stroke="#000000" points="591.0043,-258.4381 598.8821,-262.2981 595.0021,-258.569 599,-258.7 599,-258.7 599,-258.7 595.0021,-258.569 599.1179,-255.1019 591.0043,-258.4381 591.0043,-258.4381"/>
<ellipse fill="none" stroke="#000000" cx="587.806" cy="-258.3333" rx="3.2" ry="3.2"/>
</g>
<!-- occurrence&#45;&gt;prison_tap_locations -->
<g id="edge9" class="edge">
<title>occurrence:w&#45;&gt;prison_tap_locations:e</title>
<path fill="none" stroke="#000000" stroke-dasharray="5,2" d="M321.3854,-230.0949C279.3125,-232.5481 262.7571,-246.6263 226,-277.7 200.8646,-298.949 218.4137,-339.7 185.5,-339.7"/>
<polygon fill="#000000" stroke="#000000" points="328.0029,-229.9161 336.0973,-233.2987 332.0015,-229.8081 336,-229.7 336,-229.7 336,-229.7 332.0015,-229.8081 335.9027,-226.1013 328.0029,-229.9161 328.0029,-229.9161"/>
<ellipse fill="none" stroke="#000000" cx="324.8041" cy="-230.0026" rx="3.2" ry="3.2"/>
</g>
<!-- movement_audit -->
<g id="node9" class="node">
<title>movement_audit</title>
<g id="a_node9"><a xlink:href="../../tables/movement_audit.html" xlink:title="movement_audit" target="_top">
<polygon fill="#ffffff" stroke="transparent" points="316.5,-120.2 316.5,-181.2 467.5,-181.2 467.5,-120.2 316.5,-120.2"/>
<polygon fill="#f5f5f5" stroke="transparent" points="317,-157.7 317,-180.7 468,-180.7 468,-157.7 317,-157.7"/>
<polygon fill="none" stroke="#000000" points="317,-157.7 317,-180.7 468,-180.7 468,-157.7 317,-157.7"/>
<text text-anchor="start" x="322" y="-166.3" font-family="Helvetica,sans-Serif" font-weight="bold" font-size="11.00" fill="#000000">movement_audit</text>
<text text-anchor="start" x="433.5219" y="-165.8" font-family="Helvetica,sans-Serif" font-size="11.00" fill="#000000">[table]</text>
<polygon fill="none" stroke="#000000" points="317,-138.7 317,-157.7 468,-157.7 468,-138.7 317,-138.7"/>
<text text-anchor="start" x="320" y="-144.8" font-family="Helvetica,sans-Serif" font-size="11.00" fill="#000000">...</text>
<polygon fill="#ffffff" stroke="transparent" points="317,-119.7 317,-138.7 391,-138.7 391,-119.7 317,-119.7"/>
<polygon fill="none" stroke="#000000" points="317,-119.7 317,-138.7 391,-138.7 391,-119.7 317,-119.7"/>
<text text-anchor="start" x="320" y="-125.8" font-family="Helvetica,sans-Serif" font-size="11.00" fill="#000000">&lt; 2</text>
<polygon fill="#ffffff" stroke="transparent" points="391,-119.7 391,-138.7 429,-138.7 429,-119.7 391,-119.7"/>
<polygon fill="none" stroke="#000000" points="391,-119.7 391,-138.7 429,-138.7 429,-119.7 391,-119.7"/>
<text text-anchor="start" x="419.8862" y="-125.8" font-family="Helvetica,sans-Serif" font-size="11.00" fill="#000000"> &#160;</text>
<polygon fill="#ffffff" stroke="transparent" points="429,-119.7 429,-138.7 468,-138.7 468,-119.7 429,-119.7"/>
<polygon fill="none" stroke="#000000" points="429,-119.7 429,-138.7 468,-138.7 468,-119.7 429,-119.7"/>
<text text-anchor="start" x="458.8862" y="-125.8" font-family="Helvetica,sans-Serif" font-size="11.00" fill="#000000"> &#160;</text>
</a>
</g>
</g>
<!-- movement_audit&#45;&gt;prison_tap_locations -->
<g id="edge8" class="edge">
<title>movement_audit:w&#45;&gt;prison_tap_locations:e</title>
<path fill="none" stroke="#000000" stroke-dasharray="5,2" d="M302.2797,-148.1149C267.8533,-150.2617 251.3598,-161.208 226,-191.7 182.3928,-244.1322 253.6962,-339.7 185.5,-339.7"/>
<polygon fill="#000000" stroke="#000000" points="309.0032,-147.9254 317.1014,-151.2986 313.0016,-147.8127 317,-147.7 317,-147.7 317,-147.7 313.0016,-147.8127 316.8986,-144.1014 309.0032,-147.9254 309.0032,-147.9254"/>
<ellipse fill="none" stroke="#000000" cx="305.8044" cy="-148.0156" rx="3.2" ry="3.2"/>
</g>
<!-- occurrence_audit -->
<g id="node10" class="node">
<title>occurrence_audit</title>
<g id="a_node10"><a xlink:href="../../tables/occurrence_audit.html" xlink:title="occurrence_audit" target="_top">
<polygon fill="#ffffff" stroke="transparent" points="315,-38.2 315,-99.2 469,-99.2 469,-38.2 315,-38.2"/>
<polygon fill="#f5f5f5" stroke="transparent" points="315,-75.7 315,-98.7 469,-98.7 469,-75.7 315,-75.7"/>
<polygon fill="none" stroke="#000000" points="315,-75.7 315,-98.7 469,-98.7 469,-75.7 315,-75.7"/>
<text text-anchor="start" x="320" y="-84.3" font-family="Helvetica,sans-Serif" font-weight="bold" font-size="11.00" fill="#000000">occurrence_audit</text>
<text text-anchor="start" x="434.5219" y="-83.8" font-family="Helvetica,sans-Serif" font-size="11.00" fill="#000000">[table]</text>
<polygon fill="none" stroke="#000000" points="315,-56.7 315,-75.7 469,-75.7 469,-56.7 315,-56.7"/>
<text text-anchor="start" x="318" y="-62.8" font-family="Helvetica,sans-Serif" font-size="11.00" fill="#000000">...</text>
<polygon fill="#ffffff" stroke="transparent" points="315,-37.7 315,-56.7 390,-56.7 390,-37.7 315,-37.7"/>
<polygon fill="none" stroke="#000000" points="315,-37.7 315,-56.7 390,-56.7 390,-37.7 315,-37.7"/>
<text text-anchor="start" x="318" y="-43.8" font-family="Helvetica,sans-Serif" font-size="11.00" fill="#000000">&lt; 2</text>
<polygon fill="#ffffff" stroke="transparent" points="390,-37.7 390,-56.7 429,-56.7 429,-37.7 390,-37.7"/>
<polygon fill="none" stroke="#000000" points="390,-37.7 390,-56.7 429,-56.7 429,-37.7 390,-37.7"/>
<text text-anchor="start" x="419.8862" y="-43.8" font-family="Helvetica,sans-Serif" font-size="11.00" fill="#000000"> &#160;</text>
<polygon fill="#ffffff" stroke="transparent" points="429,-37.7 429,-56.7 469,-56.7 469,-37.7 429,-37.7"/>
<polygon fill="none" stroke="#000000" points="429,-37.7 429,-56.7 469,-56.7 469,-37.7 429,-37.7"/>
<text text-anchor="start" x="459.8862" y="-43.8" font-family="Helvetica,sans-Serif" font-size="11.00" fill="#000000"> &#160;</text>
</a>
</g>
</g>
<!-- occurrence_audit&#45;&gt;prison_tap_locations -->
<g id="edge10" class="edge">
<title>occurrence_audit:w&#45;&gt;prison_tap_locations:e</title>
<path fill="none" stroke="#000000" stroke-dasharray="5,2" d="M300.4919,-66.0867C266.4474,-68.1014 249.3564,-78.5241 226,-109.7 194.8833,-151.2343 237.3975,-339.7 185.5,-339.7"/>
<polygon fill="#000000" stroke="#000000" points="307.0028,-65.9132 315.0959,-69.2987 311.0014,-65.8066 315,-65.7 315,-65.7 315,-65.7 311.0014,-65.8066 314.9041,-62.1013 307.0028,-65.9132 307.0028,-65.9132"/>
<ellipse fill="none" stroke="#000000" cx="303.804" cy="-65.9985" rx="3.2" ry="3.2"/>
</g>
</g>
</svg>
