<?xml version="1.0" encoding="UTF-8" standalone="no"?>
<!DOCTYPE svg PUBLIC "-//W3C//DTD SVG 1.1//EN"
 "http://www.w3.org/Graphics/SVG/1.1/DTD/svg11.dtd">
<!-- Generated by graphviz version 2.40.1 (20161225.0304)
 -->
<!-- Title: twoDegreesRelationshipsDiagramImplied Pages: 1 -->
<svg width="720pt" height="1039pt"
 viewBox="0.00 0.00 720.00 1038.70" xmlns="http://www.w3.org/2000/svg" xmlns:xlink="http://www.w3.org/1999/xlink">
<g id="graph0" class="graph" transform="scale(1 1) rotate(0) translate(4 1034.7)">
<title>twoDegreesRelationshipsDiagramImplied</title>
<polygon fill="#ffffff" stroke="transparent" points="-4,4 -4,-1034.7 716,-1034.7 716,4 -4,4"/>
<text text-anchor="middle" x="72.4936" y="-7.3" font-family="Helvetica,sans-Serif" font-size="11.00" fill="#000000">Generated by SchemaSpy</text>
<!-- audited_authorisation -->
<g id="node1" class="node">
<title>audited_authorisation</title>
<g id="a_node1"><a xlink:href="../../tables/audited_authorisation.html" xlink:title="audited_authorisation" target="_top">
<polygon fill="#ffffff" stroke="transparent" points="296.5,-984.7 296.5,-1026.7 482.5,-1026.7 482.5,-984.7 296.5,-984.7"/>
<polygon fill="#f5f5f5" stroke="transparent" points="296.5,-1003.7 296.5,-1026.7 482.5,-1026.7 482.5,-1003.7 296.5,-1003.7"/>
<polygon fill="none" stroke="#000000" points="296.5,-1003.7 296.5,-1026.7 482.5,-1026.7 482.5,-1003.7 296.5,-1003.7"/>
<text text-anchor="start" x="301.5" y="-1012.3" font-family="Helvetica,sans-Serif" font-weight="bold" font-size="11.00" fill="#000000">audited_authorisation</text>
<text text-anchor="start" x="449.4448" y="-1011.8" font-family="Helvetica,sans-Serif" font-size="11.00" fill="#000000">[view]</text>
<polygon fill="none" stroke="#000000" points="296.5,-984.7 296.5,-1003.7 482.5,-1003.7 482.5,-984.7 296.5,-984.7"/>
<text text-anchor="start" x="299.5" y="-990.8" font-family="Helvetica,sans-Serif" font-size="11.00" fill="#000000">...</text>
</a>
</g>
</g>
<!-- prison_tap_locations -->
<g id="node2" class="node">
<title>prison_tap_locations</title>
<g id="a_node2"><a xlink:href="../../tables/prison_tap_locations.html" xlink:title="prison_tap_locations" target="_top">
<polygon fill="#ffffff" stroke="transparent" points="8,-291.2 8,-374.2 185,-374.2 185,-291.2 8,-291.2"/>
<polygon fill="#f5f5f5" stroke="transparent" points="8.5,-350.7 8.5,-373.7 185.5,-373.7 185.5,-350.7 8.5,-350.7"/>
<polygon fill="none" stroke="#000000" points="8.5,-350.7 8.5,-373.7 185.5,-373.7 185.5,-350.7 8.5,-350.7"/>
<text text-anchor="start" x="13.5" y="-359.3" font-family="Helvetica,sans-Serif" font-weight="bold" font-size="11.00" fill="#000000">prison_tap_locations</text>
<text text-anchor="start" x="151.0219" y="-358.8" font-family="Helvetica,sans-Serif" font-size="11.00" fill="#000000">[table]</text>
<polygon fill="none" stroke="#000000" points="8.5,-328.7 8.5,-350.7 185.5,-350.7 185.5,-328.7 8.5,-328.7"/>
<image xlink:href="../../images/primaryKeys.png" width="11px" height="12px" preserveAspectRatio="xMinYMin meet" x="13.5" y="-345.7"/>
<text text-anchor="start" x="37.5" y="-335.8" font-family="Helvetica,sans-Serif" font-size="11.00" fill="#000000">prison_code</text>
<polygon fill="none" stroke="#000000" points="8.5,-309.7 8.5,-328.7 185.5,-328.7 185.5,-309.7 8.5,-309.7"/>
<text text-anchor="start" x="11.5" y="-315.8" font-family="Helvetica,sans-Serif" font-size="11.00" fill="#000000">...</text>
<polygon fill="#ffffff" stroke="transparent" points="8.5,-290.7 8.5,-309.7 86.5,-309.7 86.5,-290.7 8.5,-290.7"/>
<polygon fill="none" stroke="#000000" points="8.5,-290.7 8.5,-309.7 86.5,-309.7 86.5,-290.7 8.5,-290.7"/>
<text text-anchor="start" x="11.5" y="-296.8" font-family="Helvetica,sans-Serif" font-size="11.00" fill="#000000"> &#160;</text>
<polygon fill="#ffffff" stroke="transparent" points="86.5,-290.7 86.5,-309.7 131.5,-309.7 131.5,-290.7 86.5,-290.7"/>
<polygon fill="none" stroke="#000000" points="86.5,-290.7 86.5,-309.7 131.5,-309.7 131.5,-290.7 86.5,-290.7"/>
<text text-anchor="start" x="122.3862" y="-296.8" font-family="Helvetica,sans-Serif" font-size="11.00" fill="#000000"> &#160;</text>
<polygon fill="#ffffff" stroke="transparent" points="131.5,-290.7 131.5,-309.7 185.5,-309.7 185.5,-290.7 131.5,-290.7"/>
<polygon fill="none" stroke="#000000" points="131.5,-290.7 131.5,-309.7 185.5,-309.7 185.5,-290.7 131.5,-290.7"/>
<text text-anchor="start" x="166.9053" y="-296.8" font-family="Helvetica,sans-Serif" font-size="11.00" fill="#000000">9 &gt;</text>
</a>
</g>
</g>
<!-- audited_authorisation&#45;&gt;prison_tap_locations -->
<g id="edge1" class="edge">
<title>audited_authorisation:w&#45;&gt;prison_tap_locations:e</title>
<path fill="none" stroke="#000000" stroke-dasharray="5,2" d="M281.9386,-993.9632C258.2566,-994.6246 243.1802,-994.9851 226,-973.7 181.6651,-918.772 256.088,-339.7 185.5,-339.7"/>
<polygon fill="#000000" stroke="#000000" points="288.5013,-993.8446 296.5651,-997.2994 292.5007,-993.7723 296.5,-993.7 296.5,-993.7 296.5,-993.7 292.5007,-993.7723 296.4349,-990.1006 288.5013,-993.8446 288.5013,-993.8446"/>
<ellipse fill="none" stroke="#000000" cx="285.3018" cy="-993.9025" rx="3.2" ry="3.2"/>
</g>
<!-- audited_movement -->
<g id="node3" class="node">
<title>audited_movement</title>
<g id="a_node3"><a xlink:href="../../tables/audited_movement.html" xlink:title="audited_movement" target="_top">
<polygon fill="#ffffff" stroke="transparent" points="234,-540.2 234,-963.2 545,-963.2 545,-540.2 234,-540.2"/>
<polygon fill="#f5f5f5" stroke="transparent" points="236.5,-937.7 236.5,-960.7 543.5,-960.7 543.5,-937.7 236.5,-937.7"/>
<polygon fill="none" stroke="#000000" points="236.5,-937.7 236.5,-960.7 543.5,-960.7 543.5,-937.7 236.5,-937.7"/>
<text text-anchor="start" x="241.5" y="-946.3" font-family="Helvetica,sans-Serif" font-weight="bold" font-size="11.00" fill="#000000">audited_movement</text>
<text text-anchor="start" x="510.3895" y="-945.8" font-family="Helvetica,sans-Serif" font-size="11.00" fill="#000000">[view]</text>
<polygon fill="none" stroke="#000000" points="236.5,-915.7 236.5,-937.7 444.5,-937.7 444.5,-915.7 236.5,-915.7"/>
<text text-anchor="start" x="256.5" y="-922.8" font-family="Helvetica,sans-Serif" font-size="11.00" fill="#000000">created_by</text>
<polygon fill="none" stroke="#000000" points="444.5,-915.7 444.5,-937.7 543.5,-937.7 543.5,-915.7 444.5,-915.7"/>
<text text-anchor="start" x="447.5" y="-923.4" font-family="Helvetica,sans-Serif" font-size="11.00" fill="#000000">varchar[64]</text>
<polygon fill="none" stroke="#000000" points="236.5,-893.7 236.5,-915.7 444.5,-915.7 444.5,-893.7 236.5,-893.7"/>
<text text-anchor="start" x="256.5" y="-900.8" font-family="Helvetica,sans-Serif" font-size="11.00" fill="#000000">created_at</text>
<polygon fill="none" stroke="#000000" points="444.5,-893.7 444.5,-915.7 543.5,-915.7 543.5,-893.7 444.5,-893.7"/>
<text text-anchor="start" x="447.5" y="-901.4" font-family="Helvetica,sans-Serif" font-size="11.00" fill="#000000">timestamp[29,6]</text>
<polygon fill="none" stroke="#000000" points="236.5,-871.7 236.5,-893.7 444.5,-893.7 444.5,-871.7 236.5,-871.7"/>
<text text-anchor="start" x="256.5" y="-878.8" font-family="Helvetica,sans-Serif" font-size="11.00" fill="#000000">updated_by</text>
<polygon fill="none" stroke="#000000" points="444.5,-871.7 444.5,-893.7 543.5,-893.7 543.5,-871.7 444.5,-871.7"/>
<text text-anchor="start" x="447.5" y="-879.4" font-family="Helvetica,sans-Serif" font-size="11.00" fill="#000000">varchar[64]</text>
<polygon fill="none" stroke="#000000" points="236.5,-849.7 236.5,-871.7 444.5,-871.7 444.5,-849.7 236.5,-849.7"/>
<text text-anchor="start" x="256.5" y="-856.8" font-family="Helvetica,sans-Serif" font-size="11.00" fill="#000000">updated_at</text>
<polygon fill="none" stroke="#000000" points="444.5,-849.7 444.5,-871.7 543.5,-871.7 543.5,-849.7 444.5,-849.7"/>
<text text-anchor="start" x="447.5" y="-857.4" font-family="Helvetica,sans-Serif" font-size="11.00" fill="#000000">timestamp[29,6]</text>
<polygon fill="none" stroke="#000000" points="236.5,-827.7 236.5,-849.7 444.5,-849.7 444.5,-827.7 236.5,-827.7"/>
<text text-anchor="start" x="256.5" y="-834.8" font-family="Helvetica,sans-Serif" font-size="11.00" fill="#000000">rev_type</text>
<polygon fill="none" stroke="#000000" points="444.5,-827.7 444.5,-849.7 543.5,-849.7 543.5,-827.7 444.5,-827.7"/>
<text text-anchor="start" x="447.5" y="-835.4" font-family="Helvetica,sans-Serif" font-size="11.00" fill="#000000">int2[5]</text>
<polygon fill="none" stroke="#000000" points="236.5,-805.7 236.5,-827.7 444.5,-827.7 444.5,-805.7 236.5,-805.7"/>
<text text-anchor="start" x="256.5" y="-812.8" font-family="Helvetica,sans-Serif" font-size="11.00" fill="#000000">id</text>
<polygon fill="none" stroke="#000000" points="444.5,-805.7 444.5,-827.7 543.5,-827.7 543.5,-805.7 444.5,-805.7"/>
<text text-anchor="start" x="447.5" y="-813.4" font-family="Helvetica,sans-Serif" font-size="11.00" fill="#000000">uuid[2147483647]</text>
<polygon fill="none" stroke="#000000" points="236.5,-783.7 236.5,-805.7 444.5,-805.7 444.5,-783.7 236.5,-783.7"/>
<text text-anchor="start" x="256.5" y="-790.8" font-family="Helvetica,sans-Serif" font-size="11.00" fill="#000000">version</text>
<polygon fill="none" stroke="#000000" points="444.5,-783.7 444.5,-805.7 543.5,-805.7 543.5,-783.7 444.5,-783.7"/>
<text text-anchor="start" x="447.5" y="-791.4" font-family="Helvetica,sans-Serif" font-size="11.00" fill="#000000">int4[10]</text>
<polygon fill="none" stroke="#000000" points="236.5,-761.7 236.5,-783.7 444.5,-783.7 444.5,-761.7 236.5,-761.7"/>
<text text-anchor="start" x="256.5" y="-768.8" font-family="Helvetica,sans-Serif" font-size="11.00" fill="#000000">person_identifier</text>
<polygon fill="none" stroke="#000000" points="444.5,-761.7 444.5,-783.7 543.5,-783.7 543.5,-761.7 444.5,-761.7"/>
<text text-anchor="start" x="447.5" y="-769.4" font-family="Helvetica,sans-Serif" font-size="11.00" fill="#000000">varchar[10]</text>
<polygon fill="none" stroke="#000000" points="236.5,-739.7 236.5,-761.7 444.5,-761.7 444.5,-739.7 236.5,-739.7"/>
<text text-anchor="start" x="256.5" y="-746.8" font-family="Helvetica,sans-Serif" font-size="11.00" fill="#000000">occurrence_id</text>
<polygon fill="none" stroke="#000000" points="444.5,-739.7 444.5,-761.7 543.5,-761.7 543.5,-739.7 444.5,-739.7"/>
<text text-anchor="start" x="447.5" y="-747.4" font-family="Helvetica,sans-Serif" font-size="11.00" fill="#000000">uuid[2147483647]</text>
<polygon fill="none" stroke="#000000" points="236.5,-717.7 236.5,-739.7 444.5,-739.7 444.5,-717.7 236.5,-717.7"/>
<text text-anchor="start" x="256.5" y="-724.8" font-family="Helvetica,sans-Serif" font-size="11.00" fill="#000000">occurred_at</text>
<polygon fill="none" stroke="#000000" points="444.5,-717.7 444.5,-739.7 543.5,-739.7 543.5,-717.7 444.5,-717.7"/>
<text text-anchor="start" x="447.5" y="-725.4" font-family="Helvetica,sans-Serif" font-size="11.00" fill="#000000">timestamp[29,6]</text>
<polygon fill="none" stroke="#000000" points="236.5,-695.7 236.5,-717.7 444.5,-717.7 444.5,-695.7 236.5,-695.7"/>
<text text-anchor="start" x="256.5" y="-702.8" font-family="Helvetica,sans-Serif" font-size="11.00" fill="#000000">direction</text>
<polygon fill="none" stroke="#000000" points="444.5,-695.7 444.5,-717.7 543.5,-717.7 543.5,-695.7 444.5,-695.7"/>
<text text-anchor="start" x="447.5" y="-703.4" font-family="Helvetica,sans-Serif" font-size="11.00" fill="#000000">varchar[3]</text>
<polygon fill="none" stroke="#000000" points="236.5,-673.7 236.5,-695.7 444.5,-695.7 444.5,-673.7 236.5,-673.7"/>
<text text-anchor="start" x="256.5" y="-680.8" font-family="Helvetica,sans-Serif" font-size="11.00" fill="#000000">absence_reason_id</text>
<polygon fill="none" stroke="#000000" points="444.5,-673.7 444.5,-695.7 543.5,-695.7 543.5,-673.7 444.5,-673.7"/>
<text text-anchor="start" x="447.5" y="-681.4" font-family="Helvetica,sans-Serif" font-size="11.00" fill="#000000">uuid[2147483647]</text>
<polygon fill="none" stroke="#000000" points="236.5,-651.7 236.5,-673.7 444.5,-673.7 444.5,-651.7 236.5,-651.7"/>
<text text-anchor="start" x="256.5" y="-658.8" font-family="Helvetica,sans-Serif" font-size="11.00" fill="#000000">accompanied_by_id</text>
<polygon fill="none" stroke="#000000" points="444.5,-651.7 444.5,-673.7 543.5,-673.7 543.5,-651.7 444.5,-651.7"/>
<text text-anchor="start" x="447.5" y="-659.4" font-family="Helvetica,sans-Serif" font-size="11.00" fill="#000000">uuid[2147483647]</text>
<polygon fill="none" stroke="#000000" points="236.5,-629.7 236.5,-651.7 444.5,-651.7 444.5,-629.7 236.5,-629.7"/>
<text text-anchor="start" x="256.5" y="-636.8" font-family="Helvetica,sans-Serif" font-size="11.00" fill="#000000">accompanied_by_comments</text>
<polygon fill="none" stroke="#000000" points="444.5,-629.7 444.5,-651.7 543.5,-651.7 543.5,-629.7 444.5,-629.7"/>
<text text-anchor="start" x="447.5" y="-637.4" font-family="Helvetica,sans-Serif" font-size="11.00" fill="#000000">text[2147483647]</text>
<polygon fill="none" stroke="#000000" points="236.5,-607.7 236.5,-629.7 444.5,-629.7 444.5,-607.7 236.5,-607.7"/>
<text text-anchor="start" x="256.5" y="-614.8" font-family="Helvetica,sans-Serif" font-size="11.00" fill="#000000">location</text>
<polygon fill="none" stroke="#000000" points="444.5,-607.7 444.5,-629.7 543.5,-629.7 543.5,-607.7 444.5,-607.7"/>
<text text-anchor="start" x="447.2258" y="-615.4" font-family="Helvetica,sans-Serif" font-size="11.00" fill="#000000">jsonb[2147483647]</text>
<polygon fill="none" stroke="#000000" points="236.5,-585.7 236.5,-607.7 444.5,-607.7 444.5,-585.7 236.5,-585.7"/>
<text text-anchor="start" x="256.5" y="-592.8" font-family="Helvetica,sans-Serif" font-size="11.00" fill="#000000">comments</text>
<polygon fill="none" stroke="#000000" points="444.5,-585.7 444.5,-607.7 543.5,-607.7 543.5,-585.7 444.5,-585.7"/>
<text text-anchor="start" x="447.5" y="-593.4" font-family="Helvetica,sans-Serif" font-size="11.00" fill="#000000">text[2147483647]</text>
<polygon fill="none" stroke="#000000" points="236.5,-563.7 236.5,-585.7 444.5,-585.7 444.5,-563.7 236.5,-563.7"/>
<image xlink:href="../../images/foreignKeys.png" width="11px" height="12px" preserveAspectRatio="xMinYMin meet" x="241.5" y="-580.7"/>
<text text-anchor="start" x="256.5" y="-570.8" font-family="Helvetica,sans-Serif" font-size="11.00" fill="#000000">prison_code</text>
<polygon fill="none" stroke="#000000" points="444.5,-563.7 444.5,-585.7 543.5,-585.7 543.5,-563.7 444.5,-563.7"/>
<text text-anchor="start" x="447.5" y="-571.4" font-family="Helvetica,sans-Serif" font-size="11.00" fill="#000000">varchar[6]</text>
<polygon fill="none" stroke="#000000" points="236.5,-541.7 236.5,-563.7 444.5,-563.7 444.5,-541.7 236.5,-541.7"/>
<text text-anchor="start" x="256.5" y="-548.8" font-family="Helvetica,sans-Serif" font-size="11.00" fill="#000000">legacy_id</text>
<polygon fill="none" stroke="#000000" points="444.5,-541.7 444.5,-563.7 543.5,-563.7 543.5,-541.7 444.5,-541.7"/>
<text text-anchor="start" x="447.5" y="-549.4" font-family="Helvetica,sans-Serif" font-size="11.00" fill="#000000">varchar[32]</text>
<polygon fill="none" stroke="#000000" stroke-width="2" points="235,-541.2 235,-962.2 544,-962.2 544,-541.2 235,-541.2"/>
</a>
</g>
</g>
<!-- audited_movement&#45;&gt;prison_tap_locations -->
<g id="edge2" class="edge">
<title>audited_movement:w&#45;&gt;prison_tap_locations:e</title>
<path fill="none" stroke="#000000" stroke-dasharray="5,2" d="M221.7623,-572.8084C146.0397,-550.5684 286.7397,-339.7 185.5,-339.7"/>
<polygon fill="#000000" stroke="#000000" points="228.5651,-573.6815 236.0417,-578.2707 232.5325,-574.1907 236.5,-574.7 236.5,-574.7 236.5,-574.7 232.5325,-574.1907 236.9583,-571.1293 228.5651,-573.6815 228.5651,-573.6815"/>
<ellipse fill="none" stroke="#000000" cx="225.3911" cy="-573.2741" rx="3.2" ry="3.2"/>
</g>
<!-- audited_occurrence -->
<g id="node4" class="node">
<title>audited_occurrence</title>
<g id="a_node4"><a xlink:href="../../tables/audited_occurrence.html" xlink:title="audited_occurrence" target="_top">
<polygon fill="#ffffff" stroke="transparent" points="304.5,-476.7 304.5,-518.7 474.5,-518.7 474.5,-476.7 304.5,-476.7"/>
<polygon fill="#f5f5f5" stroke="transparent" points="304.5,-495.7 304.5,-518.7 474.5,-518.7 474.5,-495.7 304.5,-495.7"/>
<polygon fill="none" stroke="#000000" points="304.5,-495.7 304.5,-518.7 474.5,-518.7 474.5,-495.7 304.5,-495.7"/>
<text text-anchor="start" x="309.5" y="-504.3" font-family="Helvetica,sans-Serif" font-weight="bold" font-size="11.00" fill="#000000">audited_occurrence</text>
<text text-anchor="start" x="441.4448" y="-503.8" font-family="Helvetica,sans-Serif" font-size="11.00" fill="#000000">[view]</text>
<polygon fill="none" stroke="#000000" points="304.5,-476.7 304.5,-495.7 474.5,-495.7 474.5,-476.7 304.5,-476.7"/>
<text text-anchor="start" x="307.5" y="-482.8" font-family="Helvetica,sans-Serif" font-size="11.00" fill="#000000">...</text>
</a>
</g>
</g>
<!-- audited_occurrence&#45;&gt;prison_tap_locations -->
<g id="edge3" class="edge">
<title>audited_occurrence:w&#45;&gt;prison_tap_locations:e</title>
<path fill="none" stroke="#000000" stroke-dasharray="5,2" d="M290.0363,-485.8896C263.5862,-486.4353 248.4384,-486.7985 226,-465.7 183.147,-425.4058 244.3218,-339.7 185.5,-339.7"/>
<polygon fill="#000000" stroke="#000000" points="296.5007,-485.8049 304.5472,-489.2997 300.5003,-485.7525 304.5,-485.7 304.5,-485.7 304.5,-485.7 300.5003,-485.7525 304.4528,-482.1003 296.5007,-485.8049 296.5007,-485.8049"/>
<ellipse fill="none" stroke="#000000" cx="293.301" cy="-485.8469" rx="3.2" ry="3.2"/>
</g>
<!-- authorisation -->
<g id="node5" class="node">
<title>authorisation</title>
<g id="a_node5"><a xlink:href="../../tables/authorisation.html" xlink:title="authorisation" target="_top">
<polygon fill="#ffffff" stroke="transparent" points="324.5,-394.2 324.5,-455.2 454.5,-455.2 454.5,-394.2 324.5,-394.2"/>
<polygon fill="#f5f5f5" stroke="transparent" points="324.5,-431.7 324.5,-454.7 454.5,-454.7 454.5,-431.7 324.5,-431.7"/>
<polygon fill="none" stroke="#000000" points="324.5,-431.7 324.5,-454.7 454.5,-454.7 454.5,-431.7 324.5,-431.7"/>
<text text-anchor="start" x="329.5" y="-440.3" font-family="Helvetica,sans-Serif" font-weight="bold" font-size="11.00" fill="#000000">authorisation</text>
<text text-anchor="start" x="420.0219" y="-439.8" font-family="Helvetica,sans-Serif" font-size="11.00" fill="#000000">[table]</text>
<polygon fill="none" stroke="#000000" points="324.5,-412.7 324.5,-431.7 454.5,-431.7 454.5,-412.7 324.5,-412.7"/>
<text text-anchor="start" x="327.5" y="-418.8" font-family="Helvetica,sans-Serif" font-size="11.00" fill="#000000">...</text>
<polygon fill="#ffffff" stroke="transparent" points="324.5,-393.7 324.5,-412.7 387.5,-412.7 387.5,-393.7 324.5,-393.7"/>
<polygon fill="none" stroke="#000000" points="324.5,-393.7 324.5,-412.7 387.5,-412.7 387.5,-393.7 324.5,-393.7"/>
<text text-anchor="start" x="327.5" y="-399.8" font-family="Helvetica,sans-Serif" font-size="11.00" fill="#000000">&lt; 9</text>
<polygon fill="#ffffff" stroke="transparent" points="387.5,-393.7 387.5,-412.7 420.5,-412.7 420.5,-393.7 387.5,-393.7"/>
<polygon fill="none" stroke="#000000" points="387.5,-393.7 387.5,-412.7 420.5,-412.7 420.5,-393.7 387.5,-393.7"/>
<text text-anchor="start" x="411.3862" y="-399.8" font-family="Helvetica,sans-Serif" font-size="11.00" fill="#000000"> &#160;</text>
<polygon fill="#ffffff" stroke="transparent" points="420.5,-393.7 420.5,-412.7 454.5,-412.7 454.5,-393.7 420.5,-393.7"/>
<polygon fill="none" stroke="#000000" points="420.5,-393.7 420.5,-412.7 454.5,-412.7 454.5,-393.7 420.5,-393.7"/>
<text text-anchor="start" x="445.3862" y="-399.8" font-family="Helvetica,sans-Serif" font-size="11.00" fill="#000000"> &#160;</text>
</a>
</g>
</g>
<!-- authorisation&#45;&gt;prison_tap_locations -->
<g id="edge4" class="edge">
<title>authorisation:w&#45;&gt;prison_tap_locations:e</title>
<path fill="none" stroke="#000000" stroke-dasharray="5,2" d="M309.7805,-421.2487C274.3472,-418.8814 260.3986,-407.107 226,-383.7 204.0262,-368.7476 212.0786,-339.7 185.5,-339.7"/>
<polygon fill="#000000" stroke="#000000" points="316.5038,-421.4548 324.3896,-425.2983 320.5019,-421.5774 324.5,-421.7 324.5,-421.7 324.5,-421.7 320.5019,-421.5774 324.6104,-418.1017 316.5038,-421.4548 316.5038,-421.4548"/>
<ellipse fill="none" stroke="#000000" cx="313.3053" cy="-421.3567" rx="3.2" ry="3.2"/>
</g>
<!-- authorisation_audit -->
<g id="node6" class="node">
<title>authorisation_audit</title>
<g id="a_node6"><a xlink:href="../../tables/authorisation_audit.html" xlink:title="authorisation_audit" target="_top">
<polygon fill="#ffffff" stroke="transparent" points="304,-312.2 304,-373.2 475,-373.2 475,-312.2 304,-312.2"/>
<polygon fill="#f5f5f5" stroke="transparent" points="304.5,-349.7 304.5,-372.7 475.5,-372.7 475.5,-349.7 304.5,-349.7"/>
<polygon fill="none" stroke="#000000" points="304.5,-349.7 304.5,-372.7 475.5,-372.7 475.5,-349.7 304.5,-349.7"/>
<text text-anchor="start" x="309.5" y="-358.3" font-family="Helvetica,sans-Serif" font-weight="bold" font-size="11.00" fill="#000000">authorisation_audit</text>
<text text-anchor="start" x="441.0219" y="-357.8" font-family="Helvetica,sans-Serif" font-size="11.00" fill="#000000">[table]</text>
<polygon fill="none" stroke="#000000" points="304.5,-330.7 304.5,-349.7 475.5,-349.7 475.5,-330.7 304.5,-330.7"/>
<text text-anchor="start" x="307.5" y="-336.8" font-family="Helvetica,sans-Serif" font-size="11.00" fill="#000000">...</text>
<polygon fill="#ffffff" stroke="transparent" points="304.5,-311.7 304.5,-330.7 388.5,-330.7 388.5,-311.7 304.5,-311.7"/>
<polygon fill="none" stroke="#000000" points="304.5,-311.7 304.5,-330.7 388.5,-330.7 388.5,-311.7 304.5,-311.7"/>
<text text-anchor="start" x="307.5" y="-317.8" font-family="Helvetica,sans-Serif" font-size="11.00" fill="#000000">&lt; 2</text>
<polygon fill="#ffffff" stroke="transparent" points="388.5,-311.7 388.5,-330.7 431.5,-330.7 431.5,-311.7 388.5,-311.7"/>
<polygon fill="none" stroke="#000000" points="388.5,-311.7 388.5,-330.7 431.5,-330.7 431.5,-311.7 388.5,-311.7"/>
<text text-anchor="start" x="422.3862" y="-317.8" font-family="Helvetica,sans-Serif" font-size="11.00" fill="#000000"> &#160;</text>
<polygon fill="#ffffff" stroke="transparent" points="431.5,-311.7 431.5,-330.7 475.5,-330.7 475.5,-311.7 431.5,-311.7"/>
<polygon fill="none" stroke="#000000" points="431.5,-311.7 431.5,-330.7 475.5,-330.7 475.5,-311.7 431.5,-311.7"/>
<text text-anchor="start" x="466.3862" y="-317.8" font-family="Helvetica,sans-Serif" font-size="11.00" fill="#000000"> &#160;</text>
</a>
</g>
</g>
<!-- authorisation_audit&#45;&gt;prison_tap_locations -->
<g id="edge5" class="edge">
<title>authorisation_audit:w&#45;&gt;prison_tap_locations:e</title>
<path fill="none" stroke="#000000" stroke-dasharray="5,2" d="M290.0662,-339.7C248.6504,-339.7 233.224,-339.7 185.5,-339.7"/>
<polygon fill="#000000" stroke="#000000" points="296.5,-339.7001 304.5,-343.3 300.5,-339.7 304.5,-339.7 304.5,-339.7 304.5,-339.7 300.5,-339.7 304.5,-336.1 296.5,-339.7001 296.5,-339.7001"/>
<ellipse fill="none" stroke="#000000" cx="293.3" cy="-339.7001" rx="3.2" ry="3.2"/>
</g>
<!-- movement -->
<g id="node7" class="node">
<title>movement</title>
<g id="a_node7"><a xlink:href="../../tables/movement.html" xlink:title="movement" target="_top">
<polygon fill="#ffffff" stroke="transparent" points="594,-231.2 594,-292.2 704,-292.2 704,-231.2 594,-231.2"/>
<polygon fill="#f5f5f5" stroke="transparent" points="594,-268.7 594,-291.7 704,-291.7 704,-268.7 594,-268.7"/>
<polygon fill="none" stroke="#000000" points="594,-268.7 594,-291.7 704,-291.7 704,-268.7 594,-268.7"/>
<text text-anchor="start" x="599" y="-277.3" font-family="Helvetica,sans-Serif" font-weight="bold" font-size="11.00" fill="#000000">movement</text>
<text text-anchor="start" x="669.5219" y="-276.8" font-family="Helvetica,sans-Serif" font-size="11.00" fill="#000000">[table]</text>
<polygon fill="none" stroke="#000000" points="594,-249.7 594,-268.7 704,-268.7 704,-249.7 594,-249.7"/>
<text text-anchor="start" x="597" y="-255.8" font-family="Helvetica,sans-Serif" font-size="11.00" fill="#000000">...</text>
<polygon fill="#ffffff" stroke="transparent" points="594,-230.7 594,-249.7 647,-249.7 647,-230.7 594,-230.7"/>
<polygon fill="none" stroke="#000000" points="594,-230.7 594,-249.7 647,-249.7 647,-230.7 594,-230.7"/>
<text text-anchor="start" x="597" y="-236.8" font-family="Helvetica,sans-Serif" font-size="11.00" fill="#000000">&lt; 5</text>
<polygon fill="#ffffff" stroke="transparent" points="647,-230.7 647,-249.7 675,-249.7 675,-230.7 647,-230.7"/>
<polygon fill="none" stroke="#000000" points="647,-230.7 647,-249.7 675,-249.7 675,-230.7 647,-230.7"/>
<text text-anchor="start" x="665.8862" y="-236.8" font-family="Helvetica,sans-Serif" font-size="11.00" fill="#000000"> &#160;</text>
<polygon fill="#ffffff" stroke="transparent" points="675,-230.7 675,-249.7 704,-249.7 704,-230.7 675,-230.7"/>
<polygon fill="none" stroke="#000000" points="675,-230.7 675,-249.7 704,-249.7 704,-230.7 675,-230.7"/>
<text text-anchor="start" x="694.8862" y="-236.8" font-family="Helvetica,sans-Serif" font-size="11.00" fill="#000000"> &#160;</text>
</a>
</g>
</g>
<!-- movement&#45;&gt;prison_tap_locations -->
<g id="edge7" class="edge">
<title>movement:w&#45;&gt;prison_tap_locations:e</title>
<path fill="none" stroke="#000000" stroke-dasharray="5,2" d="M579.7084,-261.3335C571.3477,-264.8064 566.0239,-270.8139 553,-273.7 410.5895,-305.2578 359.2182,-242.2899 226,-301.7 203.4574,-311.7531 210.1827,-339.7 185.5,-339.7"/>
<polygon fill="#000000" stroke="#000000" points="586.1325,-260.1498 594.6524,-262.2404 590.0662,-259.4249 594,-258.7 594,-258.7 594,-258.7 590.0662,-259.4249 593.3476,-255.1596 586.1325,-260.1498 586.1325,-260.1498"/>
<ellipse fill="none" stroke="#000000" cx="582.9854" cy="-260.7297" rx="3.2" ry="3.2"/>
</g>
<!-- occurrence -->
<g id="node8" class="node">
<title>occurrence</title>
<g id="a_node8"><a xlink:href="../../tables/occurrence.html" xlink:title="occurrence" target="_top">
<polygon fill="#ffffff" stroke="transparent" points="333,-202.2 333,-263.2 446,-263.2 446,-202.2 333,-202.2"/>
<polygon fill="#f5f5f5" stroke="transparent" points="333.5,-239.7 333.5,-262.7 446.5,-262.7 446.5,-239.7 333.5,-239.7"/>
<polygon fill="none" stroke="#000000" points="333.5,-239.7 333.5,-262.7 446.5,-262.7 446.5,-239.7 333.5,-239.7"/>
<text text-anchor="start" x="338.5" y="-248.3" font-family="Helvetica,sans-Serif" font-weight="bold" font-size="11.00" fill="#000000">occurrence</text>
<text text-anchor="start" x="412.0219" y="-247.8" font-family="Helvetica,sans-Serif" font-size="11.00" fill="#000000">[table]</text>
<polygon fill="none" stroke="#000000" points="333.5,-220.7 333.5,-239.7 446.5,-239.7 446.5,-220.7 333.5,-220.7"/>
<text text-anchor="start" x="336.5" y="-226.8" font-family="Helvetica,sans-Serif" font-size="11.00" fill="#000000">...</text>
<polygon fill="#ffffff" stroke="transparent" points="333.5,-201.7 333.5,-220.7 383.5,-220.7 383.5,-201.7 333.5,-201.7"/>
<polygon fill="none" stroke="#000000" points="333.5,-201.7 333.5,-220.7 383.5,-220.7 383.5,-201.7 333.5,-201.7"/>
<text text-anchor="start" x="336.5" y="-207.8" font-family="Helvetica,sans-Serif" font-size="11.00" fill="#000000">&lt; 9</text>
<polygon fill="#ffffff" stroke="transparent" points="383.5,-201.7 383.5,-220.7 410.5,-220.7 410.5,-201.7 383.5,-201.7"/>
<polygon fill="none" stroke="#000000" points="383.5,-201.7 383.5,-220.7 410.5,-220.7 410.5,-201.7 383.5,-201.7"/>
<text text-anchor="start" x="401.3862" y="-207.8" font-family="Helvetica,sans-Serif" font-size="11.00" fill="#000000"> &#160;</text>
<polygon fill="#ffffff" stroke="transparent" points="410.5,-201.7 410.5,-220.7 446.5,-220.7 446.5,-201.7 410.5,-201.7"/>
<polygon fill="none" stroke="#000000" points="410.5,-201.7 410.5,-220.7 446.5,-220.7 446.5,-201.7 410.5,-201.7"/>
<text text-anchor="start" x="427.9053" y="-207.8" font-family="Helvetica,sans-Serif" font-size="11.00" fill="#000000">1 &gt;</text>
</a>
</g>
</g>
<!-- movement&#45;&gt;occurrence -->
<g id="edge6" class="edge">
<title>movement:w&#45;&gt;occurrence:e</title>
<path fill="none" stroke="#000000" d="M579.6073,-258.2208C524.7679,-254.4503 508.2215,-229.7 446.5,-229.7"/>
<polygon fill="#000000" stroke="#000000" points="586.0044,-258.4338 593.8802,-262.298 590.0022,-258.5669 594,-258.7 594,-258.7 594,-258.7 590.0022,-258.5669 594.1198,-255.102 586.0044,-258.4338 586.0044,-258.4338"/>
<ellipse fill="none" stroke="#000000" cx="582.8062" cy="-258.3273" rx="3.2" ry="3.2"/>
</g>
<!-- occurrence&#45;&gt;prison_tap_locations -->
<g id="edge9" class="edge">
<title>occurrence:w&#45;&gt;prison_tap_locations:e</title>
<path fill="none" stroke="#000000" stroke-dasharray="5,2" d="M318.9036,-230.124C277.873,-232.6965 261.8491,-247.1319 226,-277.7 200.9551,-299.0555 218.4137,-339.7 185.5,-339.7"/>
<polygon fill="#000000" stroke="#000000" points="325.5034,-229.9323 333.6046,-233.2985 329.5017,-229.8162 333.5,-229.7 333.5,-229.7 333.5,-229.7 329.5017,-229.8162 333.3954,-226.1015 325.5034,-229.9323 325.5034,-229.9323"/>
<ellipse fill="none" stroke="#000000" cx="322.3047" cy="-230.0253" rx="3.2" ry="3.2"/>
</g>
<!-- movement_audit -->
<g id="node9" class="node">
<title>movement_audit</title>
<g id="a_node9"><a xlink:href="../../tables/movement_audit.html" xlink:title="movement_audit" target="_top">
<polygon fill="#ffffff" stroke="transparent" points="314,-120.2 314,-181.2 465,-181.2 465,-120.2 314,-120.2"/>
<polygon fill="#f5f5f5" stroke="transparent" points="314.5,-157.7 314.5,-180.7 465.5,-180.7 465.5,-157.7 314.5,-157.7"/>
<polygon fill="none" stroke="#000000" points="314.5,-157.7 314.5,-180.7 465.5,-180.7 465.5,-157.7 314.5,-157.7"/>
<text text-anchor="start" x="319.5" y="-166.3" font-family="Helvetica,sans-Serif" font-weight="bold" font-size="11.00" fill="#000000">movement_audit</text>
<text text-anchor="start" x="431.0219" y="-165.8" font-family="Helvetica,sans-Serif" font-size="11.00" fill="#000000">[table]</text>
<polygon fill="none" stroke="#000000" points="314.5,-138.7 314.5,-157.7 465.5,-157.7 465.5,-138.7 314.5,-138.7"/>
<text text-anchor="start" x="317.5" y="-144.8" font-family="Helvetica,sans-Serif" font-size="11.00" fill="#000000">...</text>
<polygon fill="#ffffff" stroke="transparent" points="314.5,-119.7 314.5,-138.7 388.5,-138.7 388.5,-119.7 314.5,-119.7"/>
<polygon fill="none" stroke="#000000" points="314.5,-119.7 314.5,-138.7 388.5,-138.7 388.5,-119.7 314.5,-119.7"/>
<text text-anchor="start" x="317.5" y="-125.8" font-family="Helvetica,sans-Serif" font-size="11.00" fill="#000000">&lt; 2</text>
<polygon fill="#ffffff" stroke="transparent" points="388.5,-119.7 388.5,-138.7 426.5,-138.7 426.5,-119.7 388.5,-119.7"/>
<polygon fill="none" stroke="#000000" points="388.5,-119.7 388.5,-138.7 426.5,-138.7 426.5,-119.7 388.5,-119.7"/>
<text text-anchor="start" x="417.3862" y="-125.8" font-family="Helvetica,sans-Serif" font-size="11.00" fill="#000000"> &#160;</text>
<polygon fill="#ffffff" stroke="transparent" points="426.5,-119.7 426.5,-138.7 465.5,-138.7 465.5,-119.7 426.5,-119.7"/>
<polygon fill="none" stroke="#000000" points="426.5,-119.7 426.5,-138.7 465.5,-138.7 465.5,-119.7 426.5,-119.7"/>
<text text-anchor="start" x="456.3862" y="-125.8" font-family="Helvetica,sans-Serif" font-size="11.00" fill="#000000"> &#160;</text>
</a>
</g>
</g>
<!-- movement_audit&#45;&gt;prison_tap_locations -->
<g id="edge8" class="edge">
<title>movement_audit:w&#45;&gt;prison_tap_locations:e</title>
<path fill="none" stroke="#000000" stroke-dasharray="5,2" d="M299.673,-148.1676C266.3712,-150.4894 250.5231,-161.8816 226,-191.7 182.6822,-244.3715 253.6962,-339.7 185.5,-339.7"/>
<polygon fill="#000000" stroke="#000000" points="306.504,-147.9522 314.6135,-151.2982 310.502,-147.8261 314.5,-147.7 314.5,-147.7 314.5,-147.7 310.502,-147.8261 314.3865,-144.1018 306.504,-147.9522 306.504,-147.9522"/>
<ellipse fill="none" stroke="#000000" cx="303.3056" cy="-148.0531" rx="3.2" ry="3.2"/>
</g>
<!-- occurrence_audit -->
<g id="node10" class="node">
<title>occurrence_audit</title>
<g id="a_node10"><a xlink:href="../../tables/occurrence_audit.html" xlink:title="occurrence_audit" target="_top">
<polygon fill="#ffffff" stroke="transparent" points="312.5,-38.2 312.5,-99.2 466.5,-99.2 466.5,-38.2 312.5,-38.2"/>
<polygon fill="#f5f5f5" stroke="transparent" points="312.5,-75.7 312.5,-98.7 466.5,-98.7 466.5,-75.7 312.5,-75.7"/>
<polygon fill="none" stroke="#000000" points="312.5,-75.7 312.5,-98.7 466.5,-98.7 466.5,-75.7 312.5,-75.7"/>
<text text-anchor="start" x="317.5" y="-84.3" font-family="Helvetica,sans-Serif" font-weight="bold" font-size="11.00" fill="#000000">occurrence_audit</text>
<text text-anchor="start" x="432.0219" y="-83.8" font-family="Helvetica,sans-Serif" font-size="11.00" fill="#000000">[table]</text>
<polygon fill="none" stroke="#000000" points="312.5,-56.7 312.5,-75.7 466.5,-75.7 466.5,-56.7 312.5,-56.7"/>
<text text-anchor="start" x="315.5" y="-62.8" font-family="Helvetica,sans-Serif" font-size="11.00" fill="#000000">...</text>
<polygon fill="#ffffff" stroke="transparent" points="312.5,-37.7 312.5,-56.7 387.5,-56.7 387.5,-37.7 312.5,-37.7"/>
<polygon fill="none" stroke="#000000" points="312.5,-37.7 312.5,-56.7 387.5,-56.7 387.5,-37.7 312.5,-37.7"/>
<text text-anchor="start" x="315.5" y="-43.8" font-family="Helvetica,sans-Serif" font-size="11.00" fill="#000000">&lt; 2</text>
<polygon fill="#ffffff" stroke="transparent" points="387.5,-37.7 387.5,-56.7 426.5,-56.7 426.5,-37.7 387.5,-37.7"/>
<polygon fill="none" stroke="#000000" points="387.5,-37.7 387.5,-56.7 426.5,-56.7 426.5,-37.7 387.5,-37.7"/>
<text text-anchor="start" x="417.3862" y="-43.8" font-family="Helvetica,sans-Serif" font-size="11.00" fill="#000000"> &#160;</text>
<polygon fill="#ffffff" stroke="transparent" points="426.5,-37.7 426.5,-56.7 466.5,-56.7 466.5,-37.7 426.5,-37.7"/>
<polygon fill="none" stroke="#000000" points="426.5,-37.7 426.5,-56.7 466.5,-56.7 466.5,-37.7 426.5,-37.7"/>
<text text-anchor="start" x="457.3862" y="-43.8" font-family="Helvetica,sans-Serif" font-size="11.00" fill="#000000"> &#160;</text>
</a>
</g>
</g>
<!-- occurrence_audit&#45;&gt;prison_tap_locations -->
<g id="edge10" class="edge">
<title>occurrence_audit:w&#45;&gt;prison_tap_locations:e</title>
<path fill="none" stroke="#000000" stroke-dasharray="5,2" d="M297.8902,-66.139C264.9633,-68.3319 248.5561,-79.2314 226,-109.7 195.1209,-151.4112 237.3975,-339.7 185.5,-339.7"/>
<polygon fill="#000000" stroke="#000000" points="304.5036,-65.9403 312.6081,-69.2984 308.5018,-65.8202 312.5,-65.7 312.5,-65.7 312.5,-65.7 308.5018,-65.8202 312.3919,-62.1016 304.5036,-65.9403 304.5036,-65.9403"/>
<ellipse fill="none" stroke="#000000" cx="301.3051" cy="-66.0365" rx="3.2" ry="3.2"/>
</g>
</g>
</svg>
