<?xml version="1.0" encoding="UTF-8" standalone="no"?>
<!DOCTYPE svg PUBLIC "-//W3C//DTD SVG 1.1//EN"
 "http://www.w3.org/Graphics/SVG/1.1/DTD/svg11.dtd">
<!-- Generated by graphviz version 2.40.1 (20161225.0304)
 -->
<!-- Title: twoDegreesRelationshipsDiagramImplied Pages: 1 -->
<svg width="725pt" height="1192pt"
 viewBox="0.00 0.00 725.00 1191.70" xmlns="http://www.w3.org/2000/svg" xmlns:xlink="http://www.w3.org/1999/xlink">
<g id="graph0" class="graph" transform="scale(1 1) rotate(0) translate(4 1187.7)">
<title>twoDegreesRelationshipsDiagramImplied</title>
<polygon fill="#ffffff" stroke="transparent" points="-4,4 -4,-1187.7 721,-1187.7 721,4 -4,4"/>
<text text-anchor="middle" x="72.4936" y="-7.3" font-family="Helvetica,sans-Serif" font-size="11.00" fill="#000000">Generated by SchemaSpy</text>
<!-- audited_authorisation -->
<g id="node1" class="node">
<title>audited_authorisation</title>
<g id="a_node1"><a xlink:href="../../tables/audited_authorisation.html" xlink:title="audited_authorisation" target="_top">
<polygon fill="#ffffff" stroke="transparent" points="299,-1137.7 299,-1179.7 485,-1179.7 485,-1137.7 299,-1137.7"/>
<polygon fill="#f5f5f5" stroke="transparent" points="299,-1156.7 299,-1179.7 485,-1179.7 485,-1156.7 299,-1156.7"/>
<polygon fill="none" stroke="#000000" points="299,-1156.7 299,-1179.7 485,-1179.7 485,-1156.7 299,-1156.7"/>
<text text-anchor="start" x="304" y="-1165.3" font-family="Helvetica,sans-Serif" font-weight="bold" font-size="11.00" fill="#000000">audited_authorisation</text>
<text text-anchor="start" x="451.9448" y="-1164.8" font-family="Helvetica,sans-Serif" font-size="11.00" fill="#000000">[view]</text>
<polygon fill="none" stroke="#000000" points="299,-1137.7 299,-1156.7 485,-1156.7 485,-1137.7 299,-1137.7"/>
<text text-anchor="start" x="302" y="-1143.8" font-family="Helvetica,sans-Serif" font-size="11.00" fill="#000000">...</text>
</a>
</g>
</g>
<!-- prison_tap_locations -->
<g id="node2" class="node">
<title>prison_tap_locations</title>
<g id="a_node2"><a xlink:href="../../tables/prison_tap_locations.html" xlink:title="prison_tap_locations" target="_top">
<polygon fill="#ffffff" stroke="transparent" points="8,-291.2 8,-374.2 185,-374.2 185,-291.2 8,-291.2"/>
<polygon fill="#f5f5f5" stroke="transparent" points="8.5,-350.7 8.5,-373.7 185.5,-373.7 185.5,-350.7 8.5,-350.7"/>
<polygon fill="none" stroke="#000000" points="8.5,-350.7 8.5,-373.7 185.5,-373.7 185.5,-350.7 8.5,-350.7"/>
<text text-anchor="start" x="13.5" y="-359.3" font-family="Helvetica,sans-Serif" font-weight="bold" font-size="11.00" fill="#000000">prison_tap_locations</text>
<text text-anchor="start" x="151.0219" y="-358.8" font-family="Helvetica,sans-Serif" font-size="11.00" fill="#000000">[table]</text>
<polygon fill="none" stroke="#000000" points="8.5,-328.7 8.5,-350.7 185.5,-350.7 185.5,-328.7 8.5,-328.7"/>
<image xlink:href="../../images/primaryKeys.png" width="11px" height="12px" preserveAspectRatio="xMinYMin meet" x="13.5" y="-345.7"/>
<text text-anchor="start" x="37.5" y="-335.8" font-family="Helvetica,sans-Serif" font-size="11.00" fill="#000000">prison_code</text>
<polygon fill="none" stroke="#000000" points="8.5,-309.7 8.5,-328.7 185.5,-328.7 185.5,-309.7 8.5,-309.7"/>
<text text-anchor="start" x="11.5" y="-315.8" font-family="Helvetica,sans-Serif" font-size="11.00" fill="#000000">...</text>
<polygon fill="#ffffff" stroke="transparent" points="8.5,-290.7 8.5,-309.7 86.5,-309.7 86.5,-290.7 8.5,-290.7"/>
<polygon fill="none" stroke="#000000" points="8.5,-290.7 8.5,-309.7 86.5,-309.7 86.5,-290.7 8.5,-290.7"/>
<text text-anchor="start" x="11.5" y="-296.8" font-family="Helvetica,sans-Serif" font-size="11.00" fill="#000000"> &#160;</text>
<polygon fill="#ffffff" stroke="transparent" points="86.5,-290.7 86.5,-309.7 131.5,-309.7 131.5,-290.7 86.5,-290.7"/>
<polygon fill="none" stroke="#000000" points="86.5,-290.7 86.5,-309.7 131.5,-309.7 131.5,-290.7 86.5,-290.7"/>
<text text-anchor="start" x="122.3862" y="-296.8" font-family="Helvetica,sans-Serif" font-size="11.00" fill="#000000"> &#160;</text>
<polygon fill="#ffffff" stroke="transparent" points="131.5,-290.7 131.5,-309.7 185.5,-309.7 185.5,-290.7 131.5,-290.7"/>
<polygon fill="none" stroke="#000000" points="131.5,-290.7 131.5,-309.7 185.5,-309.7 185.5,-290.7 131.5,-290.7"/>
<text text-anchor="start" x="166.9053" y="-296.8" font-family="Helvetica,sans-Serif" font-size="11.00" fill="#000000">9 &gt;</text>
</a>
</g>
</g>
<!-- audited_authorisation&#45;&gt;prison_tap_locations -->
<g id="edge1" class="edge">
<title>audited_authorisation:w&#45;&gt;prison_tap_locations:e</title>
<path fill="none" stroke="#000000" stroke-dasharray="5,2" d="M284.3313,-1147.0594C259.6867,-1148.0789 243.8693,-1149.6282 226,-1127.7 170.617,-1059.7372 273.1711,-339.7 185.5,-339.7"/>
<polygon fill="#000000" stroke="#000000" points="291.0024,-1146.896 299.0882,-1150.2989 295.0012,-1146.798 299,-1146.7 299,-1146.7 299,-1146.7 295.0012,-1146.798 298.9118,-1143.1011 291.0024,-1146.896 291.0024,-1146.896"/>
<ellipse fill="none" stroke="#000000" cx="287.8034" cy="-1146.9744" rx="3.2" ry="3.2"/>
</g>
<!-- audited_movement -->
<g id="node3" class="node">
<title>audited_movement</title>
<g id="a_node3"><a xlink:href="../../tables/audited_movement.html" xlink:title="audited_movement" target="_top">
<polygon fill="#ffffff" stroke="transparent" points="308.5,-1074.7 308.5,-1116.7 475.5,-1116.7 475.5,-1074.7 308.5,-1074.7"/>
<polygon fill="#f5f5f5" stroke="transparent" points="309,-1093.7 309,-1116.7 476,-1116.7 476,-1093.7 309,-1093.7"/>
<polygon fill="none" stroke="#000000" points="309,-1093.7 309,-1116.7 476,-1116.7 476,-1093.7 309,-1093.7"/>
<text text-anchor="start" x="314" y="-1102.3" font-family="Helvetica,sans-Serif" font-weight="bold" font-size="11.00" fill="#000000">audited_movement</text>
<text text-anchor="start" x="442.9448" y="-1101.8" font-family="Helvetica,sans-Serif" font-size="11.00" fill="#000000">[view]</text>
<polygon fill="none" stroke="#000000" points="309,-1074.7 309,-1093.7 476,-1093.7 476,-1074.7 309,-1074.7"/>
<text text-anchor="start" x="312" y="-1080.8" font-family="Helvetica,sans-Serif" font-size="11.00" fill="#000000">...</text>
</a>
</g>
</g>
<!-- audited_movement&#45;&gt;prison_tap_locations -->
<g id="edge2" class="edge">
<title>audited_movement:w&#45;&gt;prison_tap_locations:e</title>
<path fill="none" stroke="#000000" stroke-dasharray="5,2" d="M294.3478,-1084.0914C265.3143,-1085.4839 246.9799,-1088.8568 226,-1063.7 174.3972,-1001.8235 266.0702,-339.7 185.5,-339.7"/>
<polygon fill="#000000" stroke="#000000" points="301.0029,-1083.9137 309.0962,-1087.2987 305.0014,-1083.8068 309,-1083.7 309,-1083.7 309,-1083.7 305.0014,-1083.8068 308.9038,-1080.1013 301.0029,-1083.9137 301.0029,-1083.9137"/>
<ellipse fill="none" stroke="#000000" cx="297.804" cy="-1083.9991" rx="3.2" ry="3.2"/>
</g>
<!-- audited_occurrence -->
<g id="node4" class="node">
<title>audited_occurrence</title>
<g id="a_node4"><a xlink:href="../../tables/audited_occurrence.html" xlink:title="audited_occurrence" target="_top">
<polygon fill="#ffffff" stroke="transparent" points="234,-476.2 234,-1053.2 550,-1053.2 550,-476.2 234,-476.2"/>
<polygon fill="#f5f5f5" stroke="transparent" points="236,-1027.7 236,-1050.7 548,-1050.7 548,-1027.7 236,-1027.7"/>
<polygon fill="none" stroke="#000000" points="236,-1027.7 236,-1050.7 548,-1050.7 548,-1027.7 236,-1027.7"/>
<text text-anchor="start" x="241" y="-1036.3" font-family="Helvetica,sans-Serif" font-weight="bold" font-size="11.00" fill="#000000">audited_occurrence</text>
<text text-anchor="start" x="514.8895" y="-1035.8" font-family="Helvetica,sans-Serif" font-size="11.00" fill="#000000">[view]</text>
<polygon fill="none" stroke="#000000" points="236,-1005.7 236,-1027.7 449,-1027.7 449,-1005.7 236,-1005.7"/>
<text text-anchor="start" x="256" y="-1012.8" font-family="Helvetica,sans-Serif" font-size="11.00" fill="#000000">created_by</text>
<polygon fill="none" stroke="#000000" points="449,-1005.7 449,-1027.7 548,-1027.7 548,-1005.7 449,-1005.7"/>
<text text-anchor="start" x="452" y="-1013.4" font-family="Helvetica,sans-Serif" font-size="11.00" fill="#000000">varchar[64]</text>
<polygon fill="none" stroke="#000000" points="236,-983.7 236,-1005.7 449,-1005.7 449,-983.7 236,-983.7"/>
<text text-anchor="start" x="256" y="-990.8" font-family="Helvetica,sans-Serif" font-size="11.00" fill="#000000">created_at</text>
<polygon fill="none" stroke="#000000" points="449,-983.7 449,-1005.7 548,-1005.7 548,-983.7 449,-983.7"/>
<text text-anchor="start" x="452" y="-991.4" font-family="Helvetica,sans-Serif" font-size="11.00" fill="#000000">timestamp[29,6]</text>
<polygon fill="none" stroke="#000000" points="236,-961.7 236,-983.7 449,-983.7 449,-961.7 236,-961.7"/>
<text text-anchor="start" x="256" y="-968.8" font-family="Helvetica,sans-Serif" font-size="11.00" fill="#000000">updated_by</text>
<polygon fill="none" stroke="#000000" points="449,-961.7 449,-983.7 548,-983.7 548,-961.7 449,-961.7"/>
<text text-anchor="start" x="452" y="-969.4" font-family="Helvetica,sans-Serif" font-size="11.00" fill="#000000">varchar[64]</text>
<polygon fill="none" stroke="#000000" points="236,-939.7 236,-961.7 449,-961.7 449,-939.7 236,-939.7"/>
<text text-anchor="start" x="256" y="-946.8" font-family="Helvetica,sans-Serif" font-size="11.00" fill="#000000">updated_at</text>
<polygon fill="none" stroke="#000000" points="449,-939.7 449,-961.7 548,-961.7 548,-939.7 449,-939.7"/>
<text text-anchor="start" x="452" y="-947.4" font-family="Helvetica,sans-Serif" font-size="11.00" fill="#000000">timestamp[29,6]</text>
<polygon fill="none" stroke="#000000" points="236,-917.7 236,-939.7 449,-939.7 449,-917.7 236,-917.7"/>
<text text-anchor="start" x="256" y="-924.8" font-family="Helvetica,sans-Serif" font-size="11.00" fill="#000000">rev_type</text>
<polygon fill="none" stroke="#000000" points="449,-917.7 449,-939.7 548,-939.7 548,-917.7 449,-917.7"/>
<text text-anchor="start" x="452" y="-925.4" font-family="Helvetica,sans-Serif" font-size="11.00" fill="#000000">int2[5]</text>
<polygon fill="none" stroke="#000000" points="236,-895.7 236,-917.7 449,-917.7 449,-895.7 236,-895.7"/>
<text text-anchor="start" x="256" y="-902.8" font-family="Helvetica,sans-Serif" font-size="11.00" fill="#000000">id</text>
<polygon fill="none" stroke="#000000" points="449,-895.7 449,-917.7 548,-917.7 548,-895.7 449,-895.7"/>
<text text-anchor="start" x="452" y="-903.4" font-family="Helvetica,sans-Serif" font-size="11.00" fill="#000000">uuid[2147483647]</text>
<polygon fill="none" stroke="#000000" points="236,-873.7 236,-895.7 449,-895.7 449,-873.7 236,-873.7"/>
<text text-anchor="start" x="256" y="-880.8" font-family="Helvetica,sans-Serif" font-size="11.00" fill="#000000">version</text>
<polygon fill="none" stroke="#000000" points="449,-873.7 449,-895.7 548,-895.7 548,-873.7 449,-873.7"/>
<text text-anchor="start" x="452" y="-881.4" font-family="Helvetica,sans-Serif" font-size="11.00" fill="#000000">int4[10]</text>
<polygon fill="none" stroke="#000000" points="236,-851.7 236,-873.7 449,-873.7 449,-851.7 236,-851.7"/>
<text text-anchor="start" x="256" y="-858.8" font-family="Helvetica,sans-Serif" font-size="11.00" fill="#000000">person_identifier</text>
<polygon fill="none" stroke="#000000" points="449,-851.7 449,-873.7 548,-873.7 548,-851.7 449,-851.7"/>
<text text-anchor="start" x="452" y="-859.4" font-family="Helvetica,sans-Serif" font-size="11.00" fill="#000000">varchar[10]</text>
<polygon fill="none" stroke="#000000" points="236,-829.7 236,-851.7 449,-851.7 449,-829.7 236,-829.7"/>
<image xlink:href="../../images/foreignKeys.png" width="11px" height="12px" preserveAspectRatio="xMinYMin meet" x="241" y="-846.7"/>
<text text-anchor="start" x="256" y="-836.8" font-family="Helvetica,sans-Serif" font-size="11.00" fill="#000000">prison_code</text>
<polygon fill="none" stroke="#000000" points="449,-829.7 449,-851.7 548,-851.7 548,-829.7 449,-829.7"/>
<text text-anchor="start" x="452" y="-837.4" font-family="Helvetica,sans-Serif" font-size="11.00" fill="#000000">varchar[6]</text>
<polygon fill="none" stroke="#000000" points="236,-807.7 236,-829.7 449,-829.7 449,-807.7 236,-807.7"/>
<text text-anchor="start" x="256" y="-814.8" font-family="Helvetica,sans-Serif" font-size="11.00" fill="#000000">authorisation_id</text>
<polygon fill="none" stroke="#000000" points="449,-807.7 449,-829.7 548,-829.7 548,-807.7 449,-807.7"/>
<text text-anchor="start" x="452" y="-815.4" font-family="Helvetica,sans-Serif" font-size="11.00" fill="#000000">uuid[2147483647]</text>
<polygon fill="none" stroke="#000000" points="236,-785.7 236,-807.7 449,-807.7 449,-785.7 236,-785.7"/>
<text text-anchor="start" x="256" y="-792.8" font-family="Helvetica,sans-Serif" font-size="11.00" fill="#000000">status_id</text>
<polygon fill="none" stroke="#000000" points="449,-785.7 449,-807.7 548,-807.7 548,-785.7 449,-785.7"/>
<text text-anchor="start" x="452" y="-793.4" font-family="Helvetica,sans-Serif" font-size="11.00" fill="#000000">uuid[2147483647]</text>
<polygon fill="none" stroke="#000000" points="236,-763.7 236,-785.7 449,-785.7 449,-763.7 236,-763.7"/>
<text text-anchor="start" x="256" y="-770.8" font-family="Helvetica,sans-Serif" font-size="11.00" fill="#000000">absence_type_id</text>
<polygon fill="none" stroke="#000000" points="449,-763.7 449,-785.7 548,-785.7 548,-763.7 449,-763.7"/>
<text text-anchor="start" x="452" y="-771.4" font-family="Helvetica,sans-Serif" font-size="11.00" fill="#000000">uuid[2147483647]</text>
<polygon fill="none" stroke="#000000" points="236,-741.7 236,-763.7 449,-763.7 449,-741.7 236,-741.7"/>
<text text-anchor="start" x="256" y="-748.8" font-family="Helvetica,sans-Serif" font-size="11.00" fill="#000000">absence_sub_type_id</text>
<polygon fill="none" stroke="#000000" points="449,-741.7 449,-763.7 548,-763.7 548,-741.7 449,-741.7"/>
<text text-anchor="start" x="452" y="-749.4" font-family="Helvetica,sans-Serif" font-size="11.00" fill="#000000">uuid[2147483647]</text>
<polygon fill="none" stroke="#000000" points="236,-719.7 236,-741.7 449,-741.7 449,-719.7 236,-719.7"/>
<text text-anchor="start" x="256" y="-726.8" font-family="Helvetica,sans-Serif" font-size="11.00" fill="#000000">absence_reason_category_id</text>
<polygon fill="none" stroke="#000000" points="449,-719.7 449,-741.7 548,-741.7 548,-719.7 449,-719.7"/>
<text text-anchor="start" x="452" y="-727.4" font-family="Helvetica,sans-Serif" font-size="11.00" fill="#000000">uuid[2147483647]</text>
<polygon fill="none" stroke="#000000" points="236,-697.7 236,-719.7 449,-719.7 449,-697.7 236,-697.7"/>
<text text-anchor="start" x="256" y="-704.8" font-family="Helvetica,sans-Serif" font-size="11.00" fill="#000000">absence_reason_id</text>
<polygon fill="none" stroke="#000000" points="449,-697.7 449,-719.7 548,-719.7 548,-697.7 449,-697.7"/>
<text text-anchor="start" x="452" y="-705.4" font-family="Helvetica,sans-Serif" font-size="11.00" fill="#000000">uuid[2147483647]</text>
<polygon fill="none" stroke="#000000" points="236,-675.7 236,-697.7 449,-697.7 449,-675.7 236,-675.7"/>
<text text-anchor="start" x="256" y="-682.8" font-family="Helvetica,sans-Serif" font-size="11.00" fill="#000000">accompanied_by_id</text>
<polygon fill="none" stroke="#000000" points="449,-675.7 449,-697.7 548,-697.7 548,-675.7 449,-675.7"/>
<text text-anchor="start" x="452" y="-683.4" font-family="Helvetica,sans-Serif" font-size="11.00" fill="#000000">uuid[2147483647]</text>
<polygon fill="none" stroke="#000000" points="236,-653.7 236,-675.7 449,-675.7 449,-653.7 236,-653.7"/>
<text text-anchor="start" x="256" y="-660.8" font-family="Helvetica,sans-Serif" font-size="11.00" fill="#000000">transport_id</text>
<polygon fill="none" stroke="#000000" points="449,-653.7 449,-675.7 548,-675.7 548,-653.7 449,-653.7"/>
<text text-anchor="start" x="452" y="-661.4" font-family="Helvetica,sans-Serif" font-size="11.00" fill="#000000">uuid[2147483647]</text>
<polygon fill="none" stroke="#000000" points="236,-631.7 236,-653.7 449,-653.7 449,-631.7 236,-631.7"/>
<text text-anchor="start" x="256" y="-638.8" font-family="Helvetica,sans-Serif" font-size="11.00" fill="#000000">start</text>
<polygon fill="none" stroke="#000000" points="449,-631.7 449,-653.7 548,-653.7 548,-631.7 449,-631.7"/>
<text text-anchor="start" x="452" y="-639.4" font-family="Helvetica,sans-Serif" font-size="11.00" fill="#000000">timestamp[29,6]</text>
<polygon fill="none" stroke="#000000" points="236,-609.7 236,-631.7 449,-631.7 449,-609.7 236,-609.7"/>
<text text-anchor="start" x="256" y="-616.8" font-family="Helvetica,sans-Serif" font-size="11.00" fill="#000000">end</text>
<polygon fill="none" stroke="#000000" points="449,-609.7 449,-631.7 548,-631.7 548,-609.7 449,-609.7"/>
<text text-anchor="start" x="452" y="-617.4" font-family="Helvetica,sans-Serif" font-size="11.00" fill="#000000">timestamp[29,6]</text>
<polygon fill="none" stroke="#000000" points="236,-587.7 236,-609.7 449,-609.7 449,-587.7 236,-587.7"/>
<text text-anchor="start" x="256" y="-594.8" font-family="Helvetica,sans-Serif" font-size="11.00" fill="#000000">location</text>
<polygon fill="none" stroke="#000000" points="449,-587.7 449,-609.7 548,-609.7 548,-587.7 449,-587.7"/>
<text text-anchor="start" x="451.7258" y="-595.4" font-family="Helvetica,sans-Serif" font-size="11.00" fill="#000000">jsonb[2147483647]</text>
<polygon fill="none" stroke="#000000" points="236,-565.7 236,-587.7 449,-587.7 449,-565.7 236,-565.7"/>
<text text-anchor="start" x="256" y="-572.8" font-family="Helvetica,sans-Serif" font-size="11.00" fill="#000000">contact_information</text>
<polygon fill="none" stroke="#000000" points="449,-565.7 449,-587.7 548,-587.7 548,-565.7 449,-565.7"/>
<text text-anchor="start" x="452" y="-573.4" font-family="Helvetica,sans-Serif" font-size="11.00" fill="#000000">text[2147483647]</text>
<polygon fill="none" stroke="#000000" points="236,-543.7 236,-565.7 449,-565.7 449,-543.7 236,-543.7"/>
<text text-anchor="start" x="256" y="-550.8" font-family="Helvetica,sans-Serif" font-size="11.00" fill="#000000">comments</text>
<polygon fill="none" stroke="#000000" points="449,-543.7 449,-565.7 548,-565.7 548,-543.7 449,-543.7"/>
<text text-anchor="start" x="452" y="-551.4" font-family="Helvetica,sans-Serif" font-size="11.00" fill="#000000">text[2147483647]</text>
<polygon fill="none" stroke="#000000" points="236,-521.7 236,-543.7 449,-543.7 449,-521.7 236,-521.7"/>
<text text-anchor="start" x="256" y="-528.8" font-family="Helvetica,sans-Serif" font-size="11.00" fill="#000000">reason_path</text>
<polygon fill="none" stroke="#000000" points="449,-521.7 449,-543.7 548,-543.7 548,-521.7 449,-521.7"/>
<text text-anchor="start" x="451.7258" y="-529.4" font-family="Helvetica,sans-Serif" font-size="11.00" fill="#000000">jsonb[2147483647]</text>
<polygon fill="none" stroke="#000000" points="236,-499.7 236,-521.7 449,-521.7 449,-499.7 236,-499.7"/>
<text text-anchor="start" x="256" y="-506.8" font-family="Helvetica,sans-Serif" font-size="11.00" fill="#000000">legacy_id</text>
<polygon fill="none" stroke="#000000" points="449,-499.7 449,-521.7 548,-521.7 548,-499.7 449,-499.7"/>
<text text-anchor="start" x="452" y="-507.4" font-family="Helvetica,sans-Serif" font-size="11.00" fill="#000000">int8[19]</text>
<polygon fill="none" stroke="#000000" points="236,-477.7 236,-499.7 449,-499.7 449,-477.7 236,-477.7"/>
<text text-anchor="start" x="256" y="-484.8" font-family="Helvetica,sans-Serif" font-size="11.00" fill="#000000">dps_only</text>
<polygon fill="none" stroke="#000000" points="449,-477.7 449,-499.7 548,-499.7 548,-477.7 449,-477.7"/>
<text text-anchor="start" x="452" y="-485.4" font-family="Helvetica,sans-Serif" font-size="11.00" fill="#000000">bool[1]</text>
<polygon fill="none" stroke="#000000" stroke-width="2" points="235,-477.2 235,-1052.2 549,-1052.2 549,-477.2 235,-477.2"/>
</a>
</g>
</g>
<!-- audited_occurrence&#45;&gt;prison_tap_locations -->
<g id="edge3" class="edge">
<title>audited_occurrence:w&#45;&gt;prison_tap_locations:e</title>
<path fill="none" stroke="#000000" stroke-dasharray="5,2" d="M221.5822,-837.2332C140.3459,-792.9687 291.9338,-339.7 185.5,-339.7"/>
<polygon fill="#000000" stroke="#000000" points="228.2217,-838.8297 235.1583,-844.2002 232.1108,-839.7648 236,-840.7 236,-840.7 236,-840.7 232.1108,-839.7648 236.8417,-837.1998 228.2217,-838.8297 228.2217,-838.8297"/>
<ellipse fill="none" stroke="#000000" cx="225.1104" cy="-838.0815" rx="3.2" ry="3.2"/>
</g>
<!-- authorisation -->
<g id="node5" class="node">
<title>authorisation</title>
<g id="a_node5"><a xlink:href="../../tables/authorisation.html" xlink:title="authorisation" target="_top">
<polygon fill="#ffffff" stroke="transparent" points="327,-394.2 327,-455.2 457,-455.2 457,-394.2 327,-394.2"/>
<polygon fill="#f5f5f5" stroke="transparent" points="327,-431.7 327,-454.7 457,-454.7 457,-431.7 327,-431.7"/>
<polygon fill="none" stroke="#000000" points="327,-431.7 327,-454.7 457,-454.7 457,-431.7 327,-431.7"/>
<text text-anchor="start" x="332" y="-440.3" font-family="Helvetica,sans-Serif" font-weight="bold" font-size="11.00" fill="#000000">authorisation</text>
<text text-anchor="start" x="422.5219" y="-439.8" font-family="Helvetica,sans-Serif" font-size="11.00" fill="#000000">[table]</text>
<polygon fill="none" stroke="#000000" points="327,-412.7 327,-431.7 457,-431.7 457,-412.7 327,-412.7"/>
<text text-anchor="start" x="330" y="-418.8" font-family="Helvetica,sans-Serif" font-size="11.00" fill="#000000">...</text>
<polygon fill="#ffffff" stroke="transparent" points="327,-393.7 327,-412.7 390,-412.7 390,-393.7 327,-393.7"/>
<polygon fill="none" stroke="#000000" points="327,-393.7 327,-412.7 390,-412.7 390,-393.7 327,-393.7"/>
<text text-anchor="start" x="330" y="-399.8" font-family="Helvetica,sans-Serif" font-size="11.00" fill="#000000">&lt; 9</text>
<polygon fill="#ffffff" stroke="transparent" points="390,-393.7 390,-412.7 423,-412.7 423,-393.7 390,-393.7"/>
<polygon fill="none" stroke="#000000" points="390,-393.7 390,-412.7 423,-412.7 423,-393.7 390,-393.7"/>
<text text-anchor="start" x="413.8862" y="-399.8" font-family="Helvetica,sans-Serif" font-size="11.00" fill="#000000"> &#160;</text>
<polygon fill="#ffffff" stroke="transparent" points="423,-393.7 423,-412.7 457,-412.7 457,-393.7 423,-393.7"/>
<polygon fill="none" stroke="#000000" points="423,-393.7 423,-412.7 457,-412.7 457,-393.7 423,-393.7"/>
<text text-anchor="start" x="447.8862" y="-399.8" font-family="Helvetica,sans-Serif" font-size="11.00" fill="#000000"> &#160;</text>
</a>
</g>
</g>
<!-- authorisation&#45;&gt;prison_tap_locations -->
<g id="edge4" class="edge">
<title>authorisation:w&#45;&gt;prison_tap_locations:e</title>
<path fill="none" stroke="#000000" stroke-dasharray="5,2" d="M312.4276,-421.2928C275.8182,-419.0665 261.4146,-407.5829 226,-383.7 203.9641,-368.8394 212.0786,-339.7 185.5,-339.7"/>
<polygon fill="#000000" stroke="#000000" points="319.0031,-421.4765 326.8994,-425.2986 323.0016,-421.5882 327,-421.7 327,-421.7 327,-421.7 323.0016,-421.5882 327.1006,-418.1014 319.0031,-421.4765 319.0031,-421.4765"/>
<ellipse fill="none" stroke="#000000" cx="315.8044" cy="-421.3871" rx="3.2" ry="3.2"/>
</g>
<!-- authorisation_audit -->
<g id="node6" class="node">
<title>authorisation_audit</title>
<g id="a_node6"><a xlink:href="../../tables/authorisation_audit.html" xlink:title="authorisation_audit" target="_top">
<polygon fill="#ffffff" stroke="transparent" points="306.5,-312.2 306.5,-373.2 477.5,-373.2 477.5,-312.2 306.5,-312.2"/>
<polygon fill="#f5f5f5" stroke="transparent" points="307,-349.7 307,-372.7 478,-372.7 478,-349.7 307,-349.7"/>
<polygon fill="none" stroke="#000000" points="307,-349.7 307,-372.7 478,-372.7 478,-349.7 307,-349.7"/>
<text text-anchor="start" x="312" y="-358.3" font-family="Helvetica,sans-Serif" font-weight="bold" font-size="11.00" fill="#000000">authorisation_audit</text>
<text text-anchor="start" x="443.5219" y="-357.8" font-family="Helvetica,sans-Serif" font-size="11.00" fill="#000000">[table]</text>
<polygon fill="none" stroke="#000000" points="307,-330.7 307,-349.7 478,-349.7 478,-330.7 307,-330.7"/>
<text text-anchor="start" x="310" y="-336.8" font-family="Helvetica,sans-Serif" font-size="11.00" fill="#000000">...</text>
<polygon fill="#ffffff" stroke="transparent" points="307,-311.7 307,-330.7 391,-330.7 391,-311.7 307,-311.7"/>
<polygon fill="none" stroke="#000000" points="307,-311.7 307,-330.7 391,-330.7 391,-311.7 307,-311.7"/>
<text text-anchor="start" x="310" y="-317.8" font-family="Helvetica,sans-Serif" font-size="11.00" fill="#000000">&lt; 2</text>
<polygon fill="#ffffff" stroke="transparent" points="391,-311.7 391,-330.7 434,-330.7 434,-311.7 391,-311.7"/>
<polygon fill="none" stroke="#000000" points="391,-311.7 391,-330.7 434,-330.7 434,-311.7 391,-311.7"/>
<text text-anchor="start" x="424.8862" y="-317.8" font-family="Helvetica,sans-Serif" font-size="11.00" fill="#000000"> &#160;</text>
<polygon fill="#ffffff" stroke="transparent" points="434,-311.7 434,-330.7 478,-330.7 478,-311.7 434,-311.7"/>
<polygon fill="none" stroke="#000000" points="434,-311.7 434,-330.7 478,-330.7 478,-311.7 434,-311.7"/>
<text text-anchor="start" x="468.8862" y="-317.8" font-family="Helvetica,sans-Serif" font-size="11.00" fill="#000000"> &#160;</text>
</a>
</g>
</g>
<!-- authorisation_audit&#45;&gt;prison_tap_locations -->
<g id="edge5" class="edge">
<title>authorisation_audit:w&#45;&gt;prison_tap_locations:e</title>
<path fill="none" stroke="#000000" stroke-dasharray="5,2" d="M292.5379,-339.7C250.0451,-339.7 234.332,-339.7 185.5,-339.7"/>
<polygon fill="#000000" stroke="#000000" points="299,-339.7001 307,-343.3 303,-339.7 307,-339.7 307,-339.7 307,-339.7 303,-339.7 307,-336.1 299,-339.7001 299,-339.7001"/>
<ellipse fill="none" stroke="#000000" cx="295.8" cy="-339.7001" rx="3.2" ry="3.2"/>
</g>
<!-- movement -->
<g id="node7" class="node">
<title>movement</title>
<g id="a_node7"><a xlink:href="../../tables/movement.html" xlink:title="movement" target="_top">
<polygon fill="#ffffff" stroke="transparent" points="599,-231.2 599,-292.2 709,-292.2 709,-231.2 599,-231.2"/>
<polygon fill="#f5f5f5" stroke="transparent" points="599,-268.7 599,-291.7 709,-291.7 709,-268.7 599,-268.7"/>
<polygon fill="none" stroke="#000000" points="599,-268.7 599,-291.7 709,-291.7 709,-268.7 599,-268.7"/>
<text text-anchor="start" x="604" y="-277.3" font-family="Helvetica,sans-Serif" font-weight="bold" font-size="11.00" fill="#000000">movement</text>
<text text-anchor="start" x="674.5219" y="-276.8" font-family="Helvetica,sans-Serif" font-size="11.00" fill="#000000">[table]</text>
<polygon fill="none" stroke="#000000" points="599,-249.7 599,-268.7 709,-268.7 709,-249.7 599,-249.7"/>
<text text-anchor="start" x="602" y="-255.8" font-family="Helvetica,sans-Serif" font-size="11.00" fill="#000000">...</text>
<polygon fill="#ffffff" stroke="transparent" points="599,-230.7 599,-249.7 652,-249.7 652,-230.7 599,-230.7"/>
<polygon fill="none" stroke="#000000" points="599,-230.7 599,-249.7 652,-249.7 652,-230.7 599,-230.7"/>
<text text-anchor="start" x="602" y="-236.8" font-family="Helvetica,sans-Serif" font-size="11.00" fill="#000000">&lt; 5</text>
<polygon fill="#ffffff" stroke="transparent" points="652,-230.7 652,-249.7 680,-249.7 680,-230.7 652,-230.7"/>
<polygon fill="none" stroke="#000000" points="652,-230.7 652,-249.7 680,-249.7 680,-230.7 652,-230.7"/>
<text text-anchor="start" x="670.8862" y="-236.8" font-family="Helvetica,sans-Serif" font-size="11.00" fill="#000000"> &#160;</text>
<polygon fill="#ffffff" stroke="transparent" points="680,-230.7 680,-249.7 709,-249.7 709,-230.7 680,-230.7"/>
<polygon fill="none" stroke="#000000" points="680,-230.7 680,-249.7 709,-249.7 709,-230.7 680,-230.7"/>
<text text-anchor="start" x="699.8862" y="-236.8" font-family="Helvetica,sans-Serif" font-size="11.00" fill="#000000"> &#160;</text>
</a>
</g>
</g>
<!-- movement&#45;&gt;prison_tap_locations -->
<g id="edge7" class="edge">
<title>movement:w&#45;&gt;prison_tap_locations:e</title>
<path fill="none" stroke="#000000" stroke-dasharray="5,2" d="M584.7089,-261.3359C576.3489,-264.8116 571.0258,-270.8223 558,-273.7 413.4072,-305.6443 361.279,-241.4746 226,-301.7 203.451,-311.7387 210.1827,-339.7 185.5,-339.7"/>
<polygon fill="#000000" stroke="#000000" points="591.1327,-260.1511 599.653,-262.2403 595.0664,-259.4256 599,-258.7 599,-258.7 599,-258.7 595.0664,-259.4256 598.347,-255.1597 591.1327,-260.1511 591.1327,-260.1511"/>
<ellipse fill="none" stroke="#000000" cx="587.9858" cy="-260.7316" rx="3.2" ry="3.2"/>
</g>
<!-- occurrence -->
<g id="node8" class="node">
<title>occurrence</title>
<g id="a_node8"><a xlink:href="../../tables/occurrence.html" xlink:title="occurrence" target="_top">
<polygon fill="#ffffff" stroke="transparent" points="335.5,-202.2 335.5,-263.2 448.5,-263.2 448.5,-202.2 335.5,-202.2"/>
<polygon fill="#f5f5f5" stroke="transparent" points="336,-239.7 336,-262.7 449,-262.7 449,-239.7 336,-239.7"/>
<polygon fill="none" stroke="#000000" points="336,-239.7 336,-262.7 449,-262.7 449,-239.7 336,-239.7"/>
<text text-anchor="start" x="341" y="-248.3" font-family="Helvetica,sans-Serif" font-weight="bold" font-size="11.00" fill="#000000">occurrence</text>
<text text-anchor="start" x="414.5219" y="-247.8" font-family="Helvetica,sans-Serif" font-size="11.00" fill="#000000">[table]</text>
<polygon fill="none" stroke="#000000" points="336,-220.7 336,-239.7 449,-239.7 449,-220.7 336,-220.7"/>
<text text-anchor="start" x="339" y="-226.8" font-family="Helvetica,sans-Serif" font-size="11.00" fill="#000000">...</text>
<polygon fill="#ffffff" stroke="transparent" points="336,-201.7 336,-220.7 386,-220.7 386,-201.7 336,-201.7"/>
<polygon fill="none" stroke="#000000" points="336,-201.7 336,-220.7 386,-220.7 386,-201.7 336,-201.7"/>
<text text-anchor="start" x="339" y="-207.8" font-family="Helvetica,sans-Serif" font-size="11.00" fill="#000000">&lt; 9</text>
<polygon fill="#ffffff" stroke="transparent" points="386,-201.7 386,-220.7 413,-220.7 413,-201.7 386,-201.7"/>
<polygon fill="none" stroke="#000000" points="386,-201.7 386,-220.7 413,-220.7 413,-201.7 386,-201.7"/>
<text text-anchor="start" x="403.8862" y="-207.8" font-family="Helvetica,sans-Serif" font-size="11.00" fill="#000000"> &#160;</text>
<polygon fill="#ffffff" stroke="transparent" points="413,-201.7 413,-220.7 449,-220.7 449,-201.7 413,-201.7"/>
<polygon fill="none" stroke="#000000" points="413,-201.7 413,-220.7 449,-220.7 449,-201.7 413,-201.7"/>
<text text-anchor="start" x="430.4053" y="-207.8" font-family="Helvetica,sans-Serif" font-size="11.00" fill="#000000">1 &gt;</text>
</a>
</g>
</g>
<!-- movement&#45;&gt;occurrence -->
<g id="edge6" class="edge">
<title>movement:w&#45;&gt;occurrence:e</title>
<path fill="none" stroke="#000000" d="M584.3708,-258.2208C528.6243,-254.4503 511.729,-229.7 449,-229.7"/>
<polygon fill="#000000" stroke="#000000" points="591.0043,-258.4381 598.8821,-262.2981 595.0021,-258.569 599,-258.7 599,-258.7 599,-258.7 595.0021,-258.569 599.1179,-255.1019 591.0043,-258.4381 591.0043,-258.4381"/>
<ellipse fill="none" stroke="#000000" cx="587.806" cy="-258.3333" rx="3.2" ry="3.2"/>
</g>
<!-- occurrence&#45;&gt;prison_tap_locations -->
<g id="edge9" class="edge">
<title>occurrence:w&#45;&gt;prison_tap_locations:e</title>
<path fill="none" stroke="#000000" stroke-dasharray="5,2" d="M321.3854,-230.0949C279.3125,-232.5481 262.7571,-246.6263 226,-277.7 200.8646,-298.949 218.4137,-339.7 185.5,-339.7"/>
<polygon fill="#000000" stroke="#000000" points="328.0029,-229.9161 336.0973,-233.2987 332.0015,-229.8081 336,-229.7 336,-229.7 336,-229.7 332.0015,-229.8081 335.9027,-226.1013 328.0029,-229.9161 328.0029,-229.9161"/>
<ellipse fill="none" stroke="#000000" cx="324.8041" cy="-230.0026" rx="3.2" ry="3.2"/>
</g>
<!-- movement_audit -->
<g id="node9" class="node">
<title>movement_audit</title>
<g id="a_node9"><a xlink:href="../../tables/movement_audit.html" xlink:title="movement_audit" target="_top">
<polygon fill="#ffffff" stroke="transparent" points="316.5,-120.2 316.5,-181.2 467.5,-181.2 467.5,-120.2 316.5,-120.2"/>
<polygon fill="#f5f5f5" stroke="transparent" points="317,-157.7 317,-180.7 468,-180.7 468,-157.7 317,-157.7"/>
<polygon fill="none" stroke="#000000" points="317,-157.7 317,-180.7 468,-180.7 468,-157.7 317,-157.7"/>
<text text-anchor="start" x="322" y="-166.3" font-family="Helvetica,sans-Serif" font-weight="bold" font-size="11.00" fill="#000000">movement_audit</text>
<text text-anchor="start" x="433.5219" y="-165.8" font-family="Helvetica,sans-Serif" font-size="11.00" fill="#000000">[table]</text>
<polygon fill="none" stroke="#000000" points="317,-138.7 317,-157.7 468,-157.7 468,-138.7 317,-138.7"/>
<text text-anchor="start" x="320" y="-144.8" font-family="Helvetica,sans-Serif" font-size="11.00" fill="#000000">...</text>
<polygon fill="#ffffff" stroke="transparent" points="317,-119.7 317,-138.7 391,-138.7 391,-119.7 317,-119.7"/>
<polygon fill="none" stroke="#000000" points="317,-119.7 317,-138.7 391,-138.7 391,-119.7 317,-119.7"/>
<text text-anchor="start" x="320" y="-125.8" font-family="Helvetica,sans-Serif" font-size="11.00" fill="#000000">&lt; 2</text>
<polygon fill="#ffffff" stroke="transparent" points="391,-119.7 391,-138.7 429,-138.7 429,-119.7 391,-119.7"/>
<polygon fill="none" stroke="#000000" points="391,-119.7 391,-138.7 429,-138.7 429,-119.7 391,-119.7"/>
<text text-anchor="start" x="419.8862" y="-125.8" font-family="Helvetica,sans-Serif" font-size="11.00" fill="#000000"> &#160;</text>
<polygon fill="#ffffff" stroke="transparent" points="429,-119.7 429,-138.7 468,-138.7 468,-119.7 429,-119.7"/>
<polygon fill="none" stroke="#000000" points="429,-119.7 429,-138.7 468,-138.7 468,-119.7 429,-119.7"/>
<text text-anchor="start" x="458.8862" y="-125.8" font-family="Helvetica,sans-Serif" font-size="11.00" fill="#000000"> &#160;</text>
</a>
</g>
</g>
<!-- movement_audit&#45;&gt;prison_tap_locations -->
<g id="edge8" class="edge">
<title>movement_audit:w&#45;&gt;prison_tap_locations:e</title>
<path fill="none" stroke="#000000" stroke-dasharray="5,2" d="M302.2797,-148.1149C267.8533,-150.2617 251.3598,-161.208 226,-191.7 182.3928,-244.1322 253.6962,-339.7 185.5,-339.7"/>
<polygon fill="#000000" stroke="#000000" points="309.0032,-147.9254 317.1014,-151.2986 313.0016,-147.8127 317,-147.7 317,-147.7 317,-147.7 313.0016,-147.8127 316.8986,-144.1014 309.0032,-147.9254 309.0032,-147.9254"/>
<ellipse fill="none" stroke="#000000" cx="305.8044" cy="-148.0156" rx="3.2" ry="3.2"/>
</g>
<!-- occurrence_audit -->
<g id="node10" class="node">
<title>occurrence_audit</title>
<g id="a_node10"><a xlink:href="../../tables/occurrence_audit.html" xlink:title="occurrence_audit" target="_top">
<polygon fill="#ffffff" stroke="transparent" points="315,-38.2 315,-99.2 469,-99.2 469,-38.2 315,-38.2"/>
<polygon fill="#f5f5f5" stroke="transparent" points="315,-75.7 315,-98.7 469,-98.7 469,-75.7 315,-75.7"/>
<polygon fill="none" stroke="#000000" points="315,-75.7 315,-98.7 469,-98.7 469,-75.7 315,-75.7"/>
<text text-anchor="start" x="320" y="-84.3" font-family="Helvetica,sans-Serif" font-weight="bold" font-size="11.00" fill="#000000">occurrence_audit</text>
<text text-anchor="start" x="434.5219" y="-83.8" font-family="Helvetica,sans-Serif" font-size="11.00" fill="#000000">[table]</text>
<polygon fill="none" stroke="#000000" points="315,-56.7 315,-75.7 469,-75.7 469,-56.7 315,-56.7"/>
<text text-anchor="start" x="318" y="-62.8" font-family="Helvetica,sans-Serif" font-size="11.00" fill="#000000">...</text>
<polygon fill="#ffffff" stroke="transparent" points="315,-37.7 315,-56.7 390,-56.7 390,-37.7 315,-37.7"/>
<polygon fill="none" stroke="#000000" points="315,-37.7 315,-56.7 390,-56.7 390,-37.7 315,-37.7"/>
<text text-anchor="start" x="318" y="-43.8" font-family="Helvetica,sans-Serif" font-size="11.00" fill="#000000">&lt; 2</text>
<polygon fill="#ffffff" stroke="transparent" points="390,-37.7 390,-56.7 429,-56.7 429,-37.7 390,-37.7"/>
<polygon fill="none" stroke="#000000" points="390,-37.7 390,-56.7 429,-56.7 429,-37.7 390,-37.7"/>
<text text-anchor="start" x="419.8862" y="-43.8" font-family="Helvetica,sans-Serif" font-size="11.00" fill="#000000"> &#160;</text>
<polygon fill="#ffffff" stroke="transparent" points="429,-37.7 429,-56.7 469,-56.7 469,-37.7 429,-37.7"/>
<polygon fill="none" stroke="#000000" points="429,-37.7 429,-56.7 469,-56.7 469,-37.7 429,-37.7"/>
<text text-anchor="start" x="459.8862" y="-43.8" font-family="Helvetica,sans-Serif" font-size="11.00" fill="#000000"> &#160;</text>
</a>
</g>
</g>
<!-- occurrence_audit&#45;&gt;prison_tap_locations -->
<g id="edge10" class="edge">
<title>occurrence_audit:w&#45;&gt;prison_tap_locations:e</title>
<path fill="none" stroke="#000000" stroke-dasharray="5,2" d="M300.4919,-66.0867C266.4474,-68.1014 249.3564,-78.5241 226,-109.7 194.8833,-151.2343 237.3975,-339.7 185.5,-339.7"/>
<polygon fill="#000000" stroke="#000000" points="307.0028,-65.9132 315.0959,-69.2987 311.0014,-65.8066 315,-65.7 315,-65.7 315,-65.7 311.0014,-65.8066 314.9041,-62.1013 307.0028,-65.9132 307.0028,-65.9132"/>
<ellipse fill="none" stroke="#000000" cx="303.804" cy="-65.9985" rx="3.2" ry="3.2"/>
</g>
</g>
</svg>
