<?xml version="1.0" encoding="UTF-8" standalone="no"?>
<!DOCTYPE svg PUBLIC "-//W3C//DTD SVG 1.1//EN"
 "http://www.w3.org/Graphics/SVG/1.1/DTD/svg11.dtd">
<!-- Generated by graphviz version 2.40.1 (20161225.0304)
 -->
<!-- Title: twoDegreesRelationshipsDiagram Pages: 1 -->
<svg width="544pt" height="699pt"
 viewBox="0.00 0.00 544.00 698.70" xmlns="http://www.w3.org/2000/svg" xmlns:xlink="http://www.w3.org/1999/xlink">
<g id="graph0" class="graph" transform="scale(1 1) rotate(0) translate(4 694.7)">
<title>twoDegreesRelationshipsDiagram</title>
<polygon fill="#ffffff" stroke="transparent" points="-4,4 -4,-694.7 540,-694.7 540,4 -4,4"/>
<text text-anchor="middle" x="72.4936" y="-7.3" font-family="Helvetica,sans-Serif" font-size="11.00" fill="#000000">Generated by SchemaSpy</text>
<!-- authorisation -->
<g id="node1" class="node">
<title>authorisation</title>
<g id="a_node1"><a xlink:href="../../tables/authorisation.html" xlink:title="authorisation" target="_top">
<polygon fill="#ffffff" stroke="transparent" points="315,-131.2 315,-478.2 528,-478.2 528,-131.2 315,-131.2"/>
<polygon fill="#f5f5f5" stroke="transparent" points="315.5,-454.7 315.5,-477.7 528.5,-477.7 528.5,-454.7 315.5,-454.7"/>
<polygon fill="none" stroke="#000000" points="315.5,-454.7 315.5,-477.7 528.5,-477.7 528.5,-454.7 315.5,-454.7"/>
<text text-anchor="start" x="320.5" y="-463.3" font-family="Helvetica,sans-Serif" font-weight="bold" font-size="11.00" fill="#000000">authorisation</text>
<text text-anchor="start" x="493.5437" y="-462.8" font-family="Helvetica,sans-Serif" font-size="11.00" fill="#000000">[table]</text>
<polygon fill="none" stroke="#000000" points="315.5,-432.7 315.5,-454.7 528.5,-454.7 528.5,-432.7 315.5,-432.7"/>
<image xlink:href="../../images/primaryKeys.png" width="11px" height="12px" preserveAspectRatio="xMinYMin meet" x="320.5" y="-449.7"/>
<text text-anchor="start" x="335.5" y="-439.8" font-family="Helvetica,sans-Serif" font-size="11.00" fill="#000000">id</text>
<polygon fill="#ffffff" stroke="transparent" points="315.5,-410.7 315.5,-432.7 528.5,-432.7 528.5,-410.7 315.5,-410.7"/>
<polygon fill="none" stroke="#000000" points="315.5,-410.7 315.5,-432.7 528.5,-432.7 528.5,-410.7 315.5,-410.7"/>
<text text-anchor="start" x="335.5" y="-417.8" font-family="Helvetica,sans-Serif" font-size="11.00" fill="#000000">person_identifier</text>
<polygon fill="#ffffff" stroke="transparent" points="315.5,-388.7 315.5,-410.7 528.5,-410.7 528.5,-388.7 315.5,-388.7"/>
<polygon fill="none" stroke="#000000" points="315.5,-388.7 315.5,-410.7 528.5,-410.7 528.5,-388.7 315.5,-388.7"/>
<text text-anchor="start" x="335.5" y="-395.8" font-family="Helvetica,sans-Serif" font-size="11.00" fill="#000000">prison_code</text>
<polygon fill="#ffffff" stroke="transparent" points="315.5,-366.7 315.5,-388.7 528.5,-388.7 528.5,-366.7 315.5,-366.7"/>
<polygon fill="none" stroke="#000000" points="315.5,-366.7 315.5,-388.7 528.5,-388.7 528.5,-366.7 315.5,-366.7"/>
<image xlink:href="../../images/foreignKeys.png" width="11px" height="12px" preserveAspectRatio="xMinYMin meet" x="320.5" y="-383.7"/>
<text text-anchor="start" x="335.5" y="-373.8" font-family="Helvetica,sans-Serif" font-size="11.00" fill="#000000">status_id</text>
<polygon fill="none" stroke="#000000" points="315.5,-344.7 315.5,-366.7 528.5,-366.7 528.5,-344.7 315.5,-344.7"/>
<image xlink:href="../../images/foreignKeys.png" width="11px" height="12px" preserveAspectRatio="xMinYMin meet" x="320.5" y="-361.7"/>
<text text-anchor="start" x="335.5" y="-351.8" font-family="Helvetica,sans-Serif" font-size="11.00" fill="#000000">absence_type_id</text>
<polygon fill="none" stroke="#000000" points="315.5,-322.7 315.5,-344.7 528.5,-344.7 528.5,-322.7 315.5,-322.7"/>
<image xlink:href="../../images/foreignKeys.png" width="11px" height="12px" preserveAspectRatio="xMinYMin meet" x="320.5" y="-339.7"/>
<text text-anchor="start" x="335.5" y="-329.8" font-family="Helvetica,sans-Serif" font-size="11.00" fill="#000000">absence_sub_type_id</text>
<polygon fill="none" stroke="#000000" points="315.5,-300.7 315.5,-322.7 528.5,-322.7 528.5,-300.7 315.5,-300.7"/>
<image xlink:href="../../images/foreignKeys.png" width="11px" height="12px" preserveAspectRatio="xMinYMin meet" x="320.5" y="-317.7"/>
<text text-anchor="start" x="335.5" y="-307.8" font-family="Helvetica,sans-Serif" font-size="11.00" fill="#000000">absence_reason_category_id</text>
<polygon fill="none" stroke="#000000" points="315.5,-278.7 315.5,-300.7 528.5,-300.7 528.5,-278.7 315.5,-278.7"/>
<image xlink:href="../../images/foreignKeys.png" width="11px" height="12px" preserveAspectRatio="xMinYMin meet" x="320.5" y="-295.7"/>
<text text-anchor="start" x="335.5" y="-285.8" font-family="Helvetica,sans-Serif" font-size="11.00" fill="#000000">absence_reason_id</text>
<polygon fill="none" stroke="#000000" points="315.5,-256.7 315.5,-278.7 528.5,-278.7 528.5,-256.7 315.5,-256.7"/>
<image xlink:href="../../images/foreignKeys.png" width="11px" height="12px" preserveAspectRatio="xMinYMin meet" x="320.5" y="-273.7"/>
<text text-anchor="start" x="335.5" y="-263.8" font-family="Helvetica,sans-Serif" font-size="11.00" fill="#000000">accompanied_by_id</text>
<polygon fill="none" stroke="#000000" points="315.5,-234.7 315.5,-256.7 528.5,-256.7 528.5,-234.7 315.5,-234.7"/>
<image xlink:href="../../images/foreignKeys.png" width="11px" height="12px" preserveAspectRatio="xMinYMin meet" x="320.5" y="-251.7"/>
<text text-anchor="start" x="335.5" y="-241.8" font-family="Helvetica,sans-Serif" font-size="11.00" fill="#000000">transport_id</text>
<polygon fill="#ffffff" stroke="transparent" points="315.5,-212.7 315.5,-234.7 528.5,-234.7 528.5,-212.7 315.5,-212.7"/>
<polygon fill="none" stroke="#000000" points="315.5,-212.7 315.5,-234.7 528.5,-234.7 528.5,-212.7 315.5,-212.7"/>
<text text-anchor="start" x="335.5" y="-219.8" font-family="Helvetica,sans-Serif" font-size="11.00" fill="#000000">start</text>
<polygon fill="#ffffff" stroke="transparent" points="315.5,-190.7 315.5,-212.7 528.5,-212.7 528.5,-190.7 315.5,-190.7"/>
<polygon fill="none" stroke="#000000" points="315.5,-190.7 315.5,-212.7 528.5,-212.7 528.5,-190.7 315.5,-190.7"/>
<text text-anchor="start" x="335.5" y="-197.8" font-family="Helvetica,sans-Serif" font-size="11.00" fill="#000000">end</text>
<polygon fill="#ffffff" stroke="transparent" points="315.5,-168.7 315.5,-190.7 528.5,-190.7 528.5,-168.7 315.5,-168.7"/>
<polygon fill="none" stroke="#000000" points="315.5,-168.7 315.5,-190.7 528.5,-190.7 528.5,-168.7 315.5,-168.7"/>
<text text-anchor="start" x="335.5" y="-175.8" font-family="Helvetica,sans-Serif" font-size="11.00" fill="#000000">legacy_id</text>
<polygon fill="none" stroke="#000000" points="315.5,-149.7 315.5,-168.7 528.5,-168.7 528.5,-149.7 315.5,-149.7"/>
<text text-anchor="start" x="318.5" y="-155.8" font-family="Helvetica,sans-Serif" font-size="11.00" fill="#000000">...</text>
<polygon fill="#ffffff" stroke="transparent" points="315.5,-130.7 315.5,-149.7 420.5,-149.7 420.5,-130.7 315.5,-130.7"/>
<polygon fill="none" stroke="#000000" points="315.5,-130.7 315.5,-149.7 420.5,-149.7 420.5,-130.7 315.5,-130.7"/>
<text text-anchor="start" x="318.5" y="-136.8" font-family="Helvetica,sans-Serif" font-size="11.00" fill="#000000">&lt; 7</text>
<polygon fill="#ffffff" stroke="transparent" points="420.5,-130.7 420.5,-149.7 474.5,-149.7 474.5,-130.7 420.5,-130.7"/>
<polygon fill="none" stroke="#000000" points="420.5,-130.7 420.5,-149.7 474.5,-149.7 474.5,-130.7 420.5,-130.7"/>
<text text-anchor="start" x="465.3862" y="-136.8" font-family="Helvetica,sans-Serif" font-size="11.00" fill="#000000"> &#160;</text>
<polygon fill="#ffffff" stroke="transparent" points="474.5,-130.7 474.5,-149.7 528.5,-149.7 528.5,-130.7 474.5,-130.7"/>
<polygon fill="none" stroke="#000000" points="474.5,-130.7 474.5,-149.7 528.5,-149.7 528.5,-130.7 474.5,-130.7"/>
<text text-anchor="start" x="519.3862" y="-136.8" font-family="Helvetica,sans-Serif" font-size="11.00" fill="#000000"> &#160;</text>
</a>
</g>
</g>
<!-- absence_reason_category -->
<g id="node2" class="node">
<title>absence_reason_category</title>
<g id="a_node2"><a xlink:href="../../tables/absence_reason_category.html" xlink:title="absence_reason_category" target="_top">
<polygon fill="#ffffff" stroke="transparent" points="31,-284.2 31,-345.2 243,-345.2 243,-284.2 31,-284.2"/>
<polygon fill="#f5f5f5" stroke="transparent" points="31,-321.7 31,-344.7 243,-344.7 243,-321.7 31,-321.7"/>
<polygon fill="none" stroke="#000000" points="31,-321.7 31,-344.7 243,-344.7 243,-321.7 31,-321.7"/>
<text text-anchor="start" x="36" y="-330.3" font-family="Helvetica,sans-Serif" font-weight="bold" font-size="11.00" fill="#000000">absence_reason_category</text>
<text text-anchor="start" x="208.5219" y="-329.8" font-family="Helvetica,sans-Serif" font-size="11.00" fill="#000000">[table]</text>
<polygon fill="none" stroke="#000000" points="31,-302.7 31,-321.7 243,-321.7 243,-302.7 31,-302.7"/>
<text text-anchor="start" x="34" y="-308.8" font-family="Helvetica,sans-Serif" font-size="11.00" fill="#000000">...</text>
<polygon fill="#ffffff" stroke="transparent" points="31,-283.7 31,-302.7 126,-302.7 126,-283.7 31,-283.7"/>
<polygon fill="none" stroke="#000000" points="31,-283.7 31,-302.7 126,-302.7 126,-283.7 31,-283.7"/>
<text text-anchor="start" x="34" y="-289.8" font-family="Helvetica,sans-Serif" font-size="11.00" fill="#000000"> &#160;</text>
<polygon fill="#ffffff" stroke="transparent" points="126,-283.7 126,-302.7 180,-302.7 180,-283.7 126,-283.7"/>
<polygon fill="none" stroke="#000000" points="126,-283.7 126,-302.7 180,-302.7 180,-283.7 126,-283.7"/>
<text text-anchor="start" x="170.8862" y="-289.8" font-family="Helvetica,sans-Serif" font-size="11.00" fill="#000000"> &#160;</text>
<polygon fill="#ffffff" stroke="transparent" points="180,-283.7 180,-302.7 243,-302.7 243,-283.7 180,-283.7"/>
<polygon fill="none" stroke="#000000" points="180,-283.7 180,-302.7 243,-302.7 243,-283.7 180,-283.7"/>
<text text-anchor="start" x="224.4053" y="-289.8" font-family="Helvetica,sans-Serif" font-size="11.00" fill="#000000">2 &gt;</text>
</a>
</g>
</g>
<!-- authorisation&#45;&gt;absence_reason_category -->
<g id="edge1" class="edge">
<title>authorisation:w&#45;&gt;absence_reason_category:e</title>
<path fill="none" stroke="#000000" d="M301.0794,-311.7C279.8898,-311.7 269.8099,-311.7 243,-311.7"/>
<polygon fill="#000000" stroke="#000000" points="307.5,-311.7001 315.5,-315.3 311.5,-311.7 315.5,-311.7 315.5,-311.7 315.5,-311.7 311.5,-311.7 315.5,-308.1 307.5,-311.7001 307.5,-311.7001"/>
<ellipse fill="none" stroke="#000000" cx="304.3" cy="-311.7001" rx="3.2" ry="3.2"/>
</g>
<!-- absence_reason -->
<g id="node3" class="node">
<title>absence_reason</title>
<g id="a_node3"><a xlink:href="../../tables/absence_reason.html" xlink:title="absence_reason" target="_top">
<polygon fill="#ffffff" stroke="transparent" points="64,-202.2 64,-263.2 210,-263.2 210,-202.2 64,-202.2"/>
<polygon fill="#f5f5f5" stroke="transparent" points="64,-239.7 64,-262.7 210,-262.7 210,-239.7 64,-239.7"/>
<polygon fill="none" stroke="#000000" points="64,-239.7 64,-262.7 210,-262.7 210,-239.7 64,-239.7"/>
<text text-anchor="start" x="69" y="-248.3" font-family="Helvetica,sans-Serif" font-weight="bold" font-size="11.00" fill="#000000">absence_reason</text>
<text text-anchor="start" x="175.5219" y="-247.8" font-family="Helvetica,sans-Serif" font-size="11.00" fill="#000000">[table]</text>
<polygon fill="none" stroke="#000000" points="64,-220.7 64,-239.7 210,-239.7 210,-220.7 64,-220.7"/>
<text text-anchor="start" x="67" y="-226.8" font-family="Helvetica,sans-Serif" font-size="11.00" fill="#000000">...</text>
<polygon fill="#ffffff" stroke="transparent" points="64,-201.7 64,-220.7 110,-220.7 110,-201.7 64,-201.7"/>
<polygon fill="none" stroke="#000000" points="64,-201.7 64,-220.7 110,-220.7 110,-201.7 64,-201.7"/>
<text text-anchor="start" x="67" y="-207.8" font-family="Helvetica,sans-Serif" font-size="11.00" fill="#000000"> &#160;</text>
<polygon fill="#ffffff" stroke="transparent" points="110,-201.7 110,-220.7 171,-220.7 171,-201.7 110,-201.7"/>
<polygon fill="none" stroke="#000000" points="110,-201.7 110,-220.7 171,-220.7 171,-201.7 110,-201.7"/>
<text text-anchor="start" x="129.4956" y="-207.8" font-family="Helvetica,sans-Serif" font-size="11.00" fill="#000000">98 rows</text>
<polygon fill="#ffffff" stroke="transparent" points="171,-201.7 171,-220.7 210,-220.7 210,-201.7 171,-201.7"/>
<polygon fill="none" stroke="#000000" points="171,-201.7 171,-220.7 210,-220.7 210,-201.7 171,-201.7"/>
<text text-anchor="start" x="191.4053" y="-207.8" font-family="Helvetica,sans-Serif" font-size="11.00" fill="#000000">3 &gt;</text>
</a>
</g>
</g>
<!-- authorisation&#45;&gt;absence_reason -->
<g id="edge2" class="edge">
<title>authorisation:w&#45;&gt;absence_reason:e</title>
<path fill="none" stroke="#000000" d="M300.946,-288.0326C261.4744,-278.3422 258.5684,-229.7 210,-229.7"/>
<polygon fill="#000000" stroke="#000000" points="307.552,-288.7894 315.0902,-293.2766 311.526,-289.2447 315.5,-289.7 315.5,-289.7 315.5,-289.7 311.526,-289.2447 315.9098,-286.1234 307.552,-288.7894 307.552,-288.7894"/>
<ellipse fill="none" stroke="#000000" cx="304.3728" cy="-288.4252" rx="3.2" ry="3.2"/>
</g>
<!-- absence_sub_type -->
<g id="node4" class="node">
<title>absence_sub_type</title>
<g id="a_node4"><a xlink:href="../../tables/absence_sub_type.html" xlink:title="absence_sub_type" target="_top">
<polygon fill="#ffffff" stroke="transparent" points="56.5,-366.2 56.5,-427.2 217.5,-427.2 217.5,-366.2 56.5,-366.2"/>
<polygon fill="#f5f5f5" stroke="transparent" points="57,-403.7 57,-426.7 218,-426.7 218,-403.7 57,-403.7"/>
<polygon fill="none" stroke="#000000" points="57,-403.7 57,-426.7 218,-426.7 218,-403.7 57,-403.7"/>
<text text-anchor="start" x="62" y="-412.3" font-family="Helvetica,sans-Serif" font-weight="bold" font-size="11.00" fill="#000000">absence_sub_type</text>
<text text-anchor="start" x="183.5219" y="-411.8" font-family="Helvetica,sans-Serif" font-size="11.00" fill="#000000">[table]</text>
<polygon fill="none" stroke="#000000" points="57,-384.7 57,-403.7 218,-403.7 218,-384.7 57,-384.7"/>
<text text-anchor="start" x="60" y="-390.8" font-family="Helvetica,sans-Serif" font-size="11.00" fill="#000000">...</text>
<polygon fill="#ffffff" stroke="transparent" points="57,-365.7 57,-384.7 127,-384.7 127,-365.7 57,-365.7"/>
<polygon fill="none" stroke="#000000" points="57,-365.7 57,-384.7 127,-384.7 127,-365.7 57,-365.7"/>
<text text-anchor="start" x="60" y="-371.8" font-family="Helvetica,sans-Serif" font-size="11.00" fill="#000000"> &#160;</text>
<polygon fill="#ffffff" stroke="transparent" points="127,-365.7 127,-384.7 168,-384.7 168,-365.7 127,-365.7"/>
<polygon fill="none" stroke="#000000" points="127,-365.7 127,-384.7 168,-384.7 168,-365.7 127,-365.7"/>
<text text-anchor="start" x="158.8862" y="-371.8" font-family="Helvetica,sans-Serif" font-size="11.00" fill="#000000"> &#160;</text>
<polygon fill="#ffffff" stroke="transparent" points="168,-365.7 168,-384.7 218,-384.7 218,-365.7 168,-365.7"/>
<polygon fill="none" stroke="#000000" points="168,-365.7 168,-384.7 218,-384.7 218,-365.7 168,-365.7"/>
<text text-anchor="start" x="199.4053" y="-371.8" font-family="Helvetica,sans-Serif" font-size="11.00" fill="#000000">2 &gt;</text>
</a>
</g>
</g>
<!-- authorisation&#45;&gt;absence_sub_type -->
<g id="edge3" class="edge">
<title>authorisation:w&#45;&gt;absence_sub_type:e</title>
<path fill="none" stroke="#000000" d="M301.4554,-338.0151C275.3327,-351.7725 239.2667,-393.7 218,-393.7"/>
<polygon fill="#000000" stroke="#000000" points="307.8528,-336.0496 316.5573,-337.1412 311.6764,-334.8748 315.5,-333.7 315.5,-333.7 315.5,-333.7 311.6764,-334.8748 314.4427,-330.2588 307.8528,-336.0496 307.8528,-336.0496"/>
<ellipse fill="none" stroke="#000000" cx="304.7939" cy="-336.9894" rx="3.2" ry="3.2"/>
</g>
<!-- absence_type -->
<g id="node5" class="node">
<title>absence_type</title>
<g id="a_node5"><a xlink:href="../../tables/absence_type.html" xlink:title="absence_type" target="_top">
<polygon fill="#ffffff" stroke="transparent" points="71.5,-448.2 71.5,-509.2 202.5,-509.2 202.5,-448.2 71.5,-448.2"/>
<polygon fill="#f5f5f5" stroke="transparent" points="72,-485.7 72,-508.7 203,-508.7 203,-485.7 72,-485.7"/>
<polygon fill="none" stroke="#000000" points="72,-485.7 72,-508.7 203,-508.7 203,-485.7 72,-485.7"/>
<text text-anchor="start" x="77" y="-494.3" font-family="Helvetica,sans-Serif" font-weight="bold" font-size="11.00" fill="#000000">absence_type</text>
<text text-anchor="start" x="168.5219" y="-493.8" font-family="Helvetica,sans-Serif" font-size="11.00" fill="#000000">[table]</text>
<polygon fill="none" stroke="#000000" points="72,-466.7 72,-485.7 203,-485.7 203,-466.7 72,-466.7"/>
<text text-anchor="start" x="75" y="-472.8" font-family="Helvetica,sans-Serif" font-size="11.00" fill="#000000">...</text>
<polygon fill="#ffffff" stroke="transparent" points="72,-447.7 72,-466.7 127,-466.7 127,-447.7 72,-447.7"/>
<polygon fill="none" stroke="#000000" points="72,-447.7 72,-466.7 127,-466.7 127,-447.7 72,-447.7"/>
<text text-anchor="start" x="75" y="-453.8" font-family="Helvetica,sans-Serif" font-size="11.00" fill="#000000"> &#160;</text>
<polygon fill="#ffffff" stroke="transparent" points="127,-447.7 127,-466.7 160,-466.7 160,-447.7 127,-447.7"/>
<polygon fill="none" stroke="#000000" points="127,-447.7 127,-466.7 160,-466.7 160,-447.7 127,-447.7"/>
<text text-anchor="start" x="150.8862" y="-453.8" font-family="Helvetica,sans-Serif" font-size="11.00" fill="#000000"> &#160;</text>
<polygon fill="#ffffff" stroke="transparent" points="160,-447.7 160,-466.7 203,-466.7 203,-447.7 160,-447.7"/>
<polygon fill="none" stroke="#000000" points="160,-447.7 160,-466.7 203,-466.7 203,-447.7 160,-447.7"/>
<text text-anchor="start" x="184.4053" y="-453.8" font-family="Helvetica,sans-Serif" font-size="11.00" fill="#000000">2 &gt;</text>
</a>
</g>
</g>
<!-- authorisation&#45;&gt;absence_type -->
<g id="edge4" class="edge">
<title>authorisation:w&#45;&gt;absence_type:e</title>
<path fill="none" stroke="#000000" d="M301.4452,-358.9396C281.6919,-370.8521 298.312,-412.8247 274,-437.7 248.9835,-463.2961 238.7909,-475.7 203,-475.7"/>
<polygon fill="#000000" stroke="#000000" points="307.7044,-357.4969 316.3086,-359.208 311.6022,-356.5985 315.5,-355.7 315.5,-355.7 315.5,-355.7 311.6022,-356.5985 314.6914,-352.192 307.7044,-357.4969 307.7044,-357.4969"/>
<ellipse fill="none" stroke="#000000" cx="304.5862" cy="-358.2157" rx="3.2" ry="3.2"/>
</g>
<!-- accompanied_by -->
<g id="node6" class="node">
<title>accompanied_by</title>
<g id="a_node6"><a xlink:href="../../tables/accompanied_by.html" xlink:title="accompanied_by" target="_top">
<polygon fill="#ffffff" stroke="transparent" points="62,-120.2 62,-181.2 212,-181.2 212,-120.2 62,-120.2"/>
<polygon fill="#f5f5f5" stroke="transparent" points="62,-157.7 62,-180.7 212,-180.7 212,-157.7 62,-157.7"/>
<polygon fill="none" stroke="#000000" points="62,-157.7 62,-180.7 212,-180.7 212,-157.7 62,-157.7"/>
<text text-anchor="start" x="67" y="-166.3" font-family="Helvetica,sans-Serif" font-weight="bold" font-size="11.00" fill="#000000">accompanied_by</text>
<text text-anchor="start" x="177.5219" y="-165.8" font-family="Helvetica,sans-Serif" font-size="11.00" fill="#000000">[table]</text>
<polygon fill="none" stroke="#000000" points="62,-138.7 62,-157.7 212,-157.7 212,-138.7 62,-138.7"/>
<text text-anchor="start" x="65" y="-144.8" font-family="Helvetica,sans-Serif" font-size="11.00" fill="#000000">...</text>
<polygon fill="#ffffff" stroke="transparent" points="62,-119.7 62,-138.7 126,-138.7 126,-119.7 62,-119.7"/>
<polygon fill="none" stroke="#000000" points="62,-119.7 62,-138.7 126,-138.7 126,-119.7 62,-119.7"/>
<text text-anchor="start" x="65" y="-125.8" font-family="Helvetica,sans-Serif" font-size="11.00" fill="#000000"> &#160;</text>
<polygon fill="#ffffff" stroke="transparent" points="126,-119.7 126,-138.7 164,-138.7 164,-119.7 126,-119.7"/>
<polygon fill="none" stroke="#000000" points="126,-119.7 126,-138.7 164,-138.7 164,-119.7 126,-119.7"/>
<text text-anchor="start" x="154.8862" y="-125.8" font-family="Helvetica,sans-Serif" font-size="11.00" fill="#000000"> &#160;</text>
<polygon fill="#ffffff" stroke="transparent" points="164,-119.7 164,-138.7 212,-138.7 212,-119.7 164,-119.7"/>
<polygon fill="none" stroke="#000000" points="164,-119.7 164,-138.7 212,-138.7 212,-119.7 164,-119.7"/>
<text text-anchor="start" x="193.4053" y="-125.8" font-family="Helvetica,sans-Serif" font-size="11.00" fill="#000000">3 &gt;</text>
</a>
</g>
</g>
<!-- authorisation&#45;&gt;accompanied_by -->
<g id="edge5" class="edge">
<title>authorisation:w&#45;&gt;accompanied_by:e</title>
<path fill="none" stroke="#000000" d="M301.0049,-264.1758C283.1202,-252.6976 295.3751,-215.7439 274,-191.7 251.5499,-166.4469 245.7895,-147.7 212,-147.7"/>
<polygon fill="#000000" stroke="#000000" points="307.7265,-265.81 314.6495,-271.1981 311.6132,-266.755 315.5,-267.7 315.5,-267.7 315.5,-267.7 311.6132,-266.755 316.3505,-264.2019 307.7265,-265.81 307.7265,-265.81"/>
<ellipse fill="none" stroke="#000000" cx="304.617" cy="-265.054" rx="3.2" ry="3.2"/>
</g>
<!-- authorisation_status -->
<g id="node7" class="node">
<title>authorisation_status</title>
<g id="a_node7"><a xlink:href="../../tables/authorisation_status.html" xlink:title="authorisation_status" target="_top">
<polygon fill="#ffffff" stroke="transparent" points="8,-530.7 8,-686.7 266,-686.7 266,-530.7 8,-530.7"/>
<polygon fill="#f5f5f5" stroke="transparent" points="10,-661.7 10,-684.7 264,-684.7 264,-661.7 10,-661.7"/>
<polygon fill="none" stroke="#000000" points="10,-661.7 10,-684.7 264,-684.7 264,-661.7 10,-661.7"/>
<text text-anchor="start" x="15" y="-670.3" font-family="Helvetica,sans-Serif" font-weight="bold" font-size="11.00" fill="#000000">authorisation_status</text>
<text text-anchor="start" x="229.0437" y="-669.8" font-family="Helvetica,sans-Serif" font-size="11.00" fill="#000000">[table]</text>
<polygon fill="none" stroke="#000000" points="10,-639.7 10,-661.7 170,-661.7 170,-639.7 10,-639.7"/>
<image xlink:href="../../images/primaryKeys.png" width="11px" height="12px" preserveAspectRatio="xMinYMin meet" x="15" y="-656.7"/>
<text text-anchor="start" x="30" y="-646.8" font-family="Helvetica,sans-Serif" font-size="11.00" fill="#000000">id</text>
<polygon fill="none" stroke="#000000" points="170,-639.7 170,-661.7 264,-661.7 264,-639.7 170,-639.7"/>
<text text-anchor="start" x="172.9758" y="-647.4" font-family="Helvetica,sans-Serif" font-size="11.00" fill="#000000">uuid[2147483647]</text>
<polygon fill="#ffffff" stroke="transparent" points="10,-617.7 10,-639.7 170,-639.7 170,-617.7 10,-617.7"/>
<polygon fill="none" stroke="#000000" points="10,-617.7 10,-639.7 170,-639.7 170,-617.7 10,-617.7"/>
<text text-anchor="start" x="30" y="-624.8" font-family="Helvetica,sans-Serif" font-size="11.00" fill="#000000">code</text>
<polygon fill="none" stroke="#000000" points="170,-617.7 170,-639.7 264,-639.7 264,-617.7 170,-617.7"/>
<text text-anchor="start" x="173" y="-625.4" font-family="Helvetica,sans-Serif" font-size="11.00" fill="#000000">varchar[16]</text>
<polygon fill="none" stroke="#000000" points="10,-595.7 10,-617.7 170,-617.7 170,-595.7 10,-595.7"/>
<text text-anchor="start" x="30" y="-602.8" font-family="Helvetica,sans-Serif" font-size="11.00" fill="#000000">description</text>
<polygon fill="none" stroke="#000000" points="170,-595.7 170,-617.7 264,-617.7 264,-595.7 170,-595.7"/>
<text text-anchor="start" x="173" y="-603.4" font-family="Helvetica,sans-Serif" font-size="11.00" fill="#000000">varchar[255]</text>
<polygon fill="#ffffff" stroke="transparent" points="10,-573.7 10,-595.7 170,-595.7 170,-573.7 10,-573.7"/>
<polygon fill="none" stroke="#000000" points="10,-573.7 10,-595.7 170,-595.7 170,-573.7 10,-573.7"/>
<text text-anchor="start" x="30" y="-580.8" font-family="Helvetica,sans-Serif" font-size="11.00" fill="#000000">sequence_number</text>
<polygon fill="none" stroke="#000000" points="170,-573.7 170,-595.7 264,-595.7 264,-573.7 170,-573.7"/>
<text text-anchor="start" x="173" y="-581.4" font-family="Helvetica,sans-Serif" font-size="11.00" fill="#000000">int4[10]</text>
<polygon fill="none" stroke="#000000" points="10,-551.7 10,-573.7 170,-573.7 170,-551.7 10,-551.7"/>
<text text-anchor="start" x="30" y="-558.8" font-family="Helvetica,sans-Serif" font-size="11.00" fill="#000000">active</text>
<polygon fill="none" stroke="#000000" points="170,-551.7 170,-573.7 264,-573.7 264,-551.7 170,-551.7"/>
<text text-anchor="start" x="173" y="-559.4" font-family="Helvetica,sans-Serif" font-size="11.00" fill="#000000">bool[1]</text>
<polygon fill="#ffffff" stroke="transparent" points="10,-532.7 10,-551.7 94,-551.7 94,-532.7 10,-532.7"/>
<polygon fill="none" stroke="#000000" points="10,-532.7 10,-551.7 94,-551.7 94,-532.7 10,-532.7"/>
<text text-anchor="start" x="13" y="-538.8" font-family="Helvetica,sans-Serif" font-size="11.00" fill="#000000">&lt; 0</text>
<polygon fill="#ffffff" stroke="transparent" points="94,-532.7 94,-551.7 170,-551.7 170,-532.7 94,-532.7"/>
<polygon fill="none" stroke="#000000" points="94,-532.7 94,-551.7 170,-551.7 170,-532.7 94,-532.7"/>
<text text-anchor="start" x="160.8862" y="-538.8" font-family="Helvetica,sans-Serif" font-size="11.00" fill="#000000"> &#160;</text>
<polygon fill="#ffffff" stroke="transparent" points="170,-532.7 170,-551.7 264,-551.7 264,-532.7 170,-532.7"/>
<polygon fill="none" stroke="#000000" points="170,-532.7 170,-551.7 264,-551.7 264,-532.7 170,-532.7"/>
<text text-anchor="start" x="245.4053" y="-538.8" font-family="Helvetica,sans-Serif" font-size="11.00" fill="#000000">1 &gt;</text>
<polygon fill="none" stroke="#000000" stroke-width="2" points="9,-531.7 9,-685.7 265,-685.7 265,-531.7 9,-531.7"/>
</a>
</g>
</g>
<!-- authorisation&#45;&gt;authorisation_status -->
<g id="edge6" class="edge">
<title>authorisation:w&#45;&gt;authorisation_status:e</title>
<path fill="none" stroke="#000000" d="M302.1388,-383.6559C265.382,-423.5794 320.3106,-650.7 264,-650.7"/>
<polygon fill="#000000" stroke="#000000" points="308.1931,-380.9572 316.9657,-380.9881 311.8465,-379.3286 315.5,-377.7 315.5,-377.7 315.5,-377.7 311.8465,-379.3286 314.0343,-374.4119 308.1931,-380.9572 308.1931,-380.9572"/>
<ellipse fill="none" stroke="#000000" cx="305.2703" cy="-382.26" rx="3.2" ry="3.2"/>
</g>
<!-- transport -->
<g id="node8" class="node">
<title>transport</title>
<g id="a_node8"><a xlink:href="../../tables/transport.html" xlink:title="transport" target="_top">
<polygon fill="#ffffff" stroke="transparent" points="86,-38.2 86,-99.2 188,-99.2 188,-38.2 86,-38.2"/>
<polygon fill="#f5f5f5" stroke="transparent" points="86,-75.7 86,-98.7 188,-98.7 188,-75.7 86,-75.7"/>
<polygon fill="none" stroke="#000000" points="86,-75.7 86,-98.7 188,-98.7 188,-75.7 86,-75.7"/>
<text text-anchor="start" x="91" y="-84.3" font-family="Helvetica,sans-Serif" font-weight="bold" font-size="11.00" fill="#000000">transport</text>
<text text-anchor="start" x="153.5219" y="-83.8" font-family="Helvetica,sans-Serif" font-size="11.00" fill="#000000">[table]</text>
<polygon fill="none" stroke="#000000" points="86,-56.7 86,-75.7 188,-75.7 188,-56.7 86,-56.7"/>
<text text-anchor="start" x="89" y="-62.8" font-family="Helvetica,sans-Serif" font-size="11.00" fill="#000000">...</text>
<polygon fill="#ffffff" stroke="transparent" points="86,-37.7 86,-56.7 126,-56.7 126,-37.7 86,-37.7"/>
<polygon fill="none" stroke="#000000" points="86,-37.7 86,-56.7 126,-56.7 126,-37.7 86,-37.7"/>
<text text-anchor="start" x="89" y="-43.8" font-family="Helvetica,sans-Serif" font-size="11.00" fill="#000000"> &#160;</text>
<polygon fill="#ffffff" stroke="transparent" points="126,-37.7 126,-56.7 152,-56.7 152,-37.7 126,-37.7"/>
<polygon fill="none" stroke="#000000" points="126,-37.7 126,-56.7 152,-56.7 152,-37.7 126,-37.7"/>
<text text-anchor="start" x="142.8862" y="-43.8" font-family="Helvetica,sans-Serif" font-size="11.00" fill="#000000"> &#160;</text>
<polygon fill="#ffffff" stroke="transparent" points="152,-37.7 152,-56.7 188,-56.7 188,-37.7 152,-37.7"/>
<polygon fill="none" stroke="#000000" points="152,-37.7 152,-56.7 188,-56.7 188,-37.7 152,-37.7"/>
<text text-anchor="start" x="169.4053" y="-43.8" font-family="Helvetica,sans-Serif" font-size="11.00" fill="#000000">2 &gt;</text>
</a>
</g>
</g>
<!-- authorisation&#45;&gt;transport -->
<g id="edge7" class="edge">
<title>authorisation:w&#45;&gt;transport:e</title>
<path fill="none" stroke="#000000" d="M301.0915,-243.5848C262.8688,-229.9568 310.8442,-153.7075 274,-109.7 246.4386,-76.78 230.9343,-65.7 188,-65.7"/>
<polygon fill="#000000" stroke="#000000" points="307.5848,-244.538 314.9771,-249.2618 311.5424,-245.119 315.5,-245.7 315.5,-245.7 315.5,-245.7 311.5424,-245.119 316.0229,-242.1382 307.5848,-244.538 307.5848,-244.538"/>
<ellipse fill="none" stroke="#000000" cx="304.4188" cy="-244.0732" rx="3.2" ry="3.2"/>
</g>
</g>
</svg>
