<?xml version="1.0" encoding="UTF-8" standalone="no"?>
<!DOCTYPE svg PUBLIC "-//W3C//DTD SVG 1.1//EN"
 "http://www.w3.org/Graphics/SVG/1.1/DTD/svg11.dtd">
<!-- Generated by graphviz version 2.40.1 (20161225.0304)
 -->
<!-- Title: twoDegreesRelationshipsDiagram Pages: 1 -->
<svg width="760pt" height="1065pt"
 viewBox="0.00 0.00 760.00 1065.20" xmlns="http://www.w3.org/2000/svg" xmlns:xlink="http://www.w3.org/1999/xlink">
<g id="graph0" class="graph" transform="scale(1 1) rotate(0) translate(4 1061.2)">
<title>twoDegreesRelationshipsDiagram</title>
<polygon fill="#ffffff" stroke="transparent" points="-4,4 -4,-1061.2 756,-1061.2 756,4 -4,4"/>
<text text-anchor="middle" x="72.4936" y="-7.3" font-family="Helvetica,sans-Serif" font-size="11.00" fill="#000000">Generated by SchemaSpy</text>
<!-- authorisation -->
<g id="node1" class="node">
<title>authorisation</title>
<g id="a_node1"><a xlink:href="../../tables/authorisation.html" xlink:title="authorisation" target="_top">
<polygon fill="#ffffff" stroke="transparent" points="269,-404.7 269,-846.7 585,-846.7 585,-404.7 269,-404.7"/>
<polygon fill="#f5f5f5" stroke="transparent" points="271,-821.7 271,-844.7 583,-844.7 583,-821.7 271,-821.7"/>
<polygon fill="none" stroke="#000000" points="271,-821.7 271,-844.7 583,-844.7 583,-821.7 271,-821.7"/>
<text text-anchor="start" x="276" y="-830.3" font-family="Helvetica,sans-Serif" font-weight="bold" font-size="11.00" fill="#000000">authorisation</text>
<text text-anchor="start" x="548.0437" y="-829.8" font-family="Helvetica,sans-Serif" font-size="11.00" fill="#000000">[table]</text>
<polygon fill="none" stroke="#000000" points="271,-799.7 271,-821.7 484,-821.7 484,-799.7 271,-799.7"/>
<image xlink:href="../../images/primaryKeys.png" width="11px" height="12px" preserveAspectRatio="xMinYMin meet" x="276" y="-816.7"/>
<text text-anchor="start" x="291" y="-806.8" font-family="Helvetica,sans-Serif" font-size="11.00" fill="#000000">id</text>
<polygon fill="none" stroke="#000000" points="484,-799.7 484,-821.7 583,-821.7 583,-799.7 484,-799.7"/>
<text text-anchor="start" x="487" y="-807.4" font-family="Helvetica,sans-Serif" font-size="11.00" fill="#000000">uuid[2147483647]</text>
<polygon fill="none" stroke="#000000" points="271,-777.7 271,-799.7 484,-799.7 484,-777.7 271,-777.7"/>
<text text-anchor="start" x="291" y="-784.8" font-family="Helvetica,sans-Serif" font-size="11.00" fill="#000000">version</text>
<polygon fill="none" stroke="#000000" points="484,-777.7 484,-799.7 583,-799.7 583,-777.7 484,-777.7"/>
<text text-anchor="start" x="487" y="-785.4" font-family="Helvetica,sans-Serif" font-size="11.00" fill="#000000">int4[10]</text>
<polygon fill="#ffffff" stroke="transparent" points="271,-755.7 271,-777.7 484,-777.7 484,-755.7 271,-755.7"/>
<polygon fill="none" stroke="#000000" points="271,-755.7 271,-777.7 484,-777.7 484,-755.7 271,-755.7"/>
<text text-anchor="start" x="291" y="-762.8" font-family="Helvetica,sans-Serif" font-size="11.00" fill="#000000">person_identifier</text>
<polygon fill="none" stroke="#000000" points="484,-755.7 484,-777.7 583,-777.7 583,-755.7 484,-755.7"/>
<text text-anchor="start" x="487" y="-763.4" font-family="Helvetica,sans-Serif" font-size="11.00" fill="#000000">varchar[10]</text>
<polygon fill="#ffffff" stroke="transparent" points="271,-733.7 271,-755.7 484,-755.7 484,-733.7 271,-733.7"/>
<polygon fill="none" stroke="#000000" points="271,-733.7 271,-755.7 484,-755.7 484,-733.7 271,-733.7"/>
<text text-anchor="start" x="291" y="-740.8" font-family="Helvetica,sans-Serif" font-size="11.00" fill="#000000">prison_code</text>
<polygon fill="none" stroke="#000000" points="484,-733.7 484,-755.7 583,-755.7 583,-733.7 484,-733.7"/>
<text text-anchor="start" x="487" y="-741.4" font-family="Helvetica,sans-Serif" font-size="11.00" fill="#000000">varchar[6]</text>
<polygon fill="#ffffff" stroke="transparent" points="271,-711.7 271,-733.7 484,-733.7 484,-711.7 271,-711.7"/>
<polygon fill="none" stroke="#000000" points="271,-711.7 271,-733.7 484,-733.7 484,-711.7 271,-711.7"/>
<image xlink:href="../../images/foreignKeys.png" width="11px" height="12px" preserveAspectRatio="xMinYMin meet" x="276" y="-728.7"/>
<text text-anchor="start" x="291" y="-718.8" font-family="Helvetica,sans-Serif" font-size="11.00" fill="#000000">status_id</text>
<polygon fill="none" stroke="#000000" points="484,-711.7 484,-733.7 583,-733.7 583,-711.7 484,-711.7"/>
<text text-anchor="start" x="487" y="-719.4" font-family="Helvetica,sans-Serif" font-size="11.00" fill="#000000">uuid[2147483647]</text>
<polygon fill="none" stroke="#000000" points="271,-689.7 271,-711.7 484,-711.7 484,-689.7 271,-689.7"/>
<image xlink:href="../../images/foreignKeys.png" width="11px" height="12px" preserveAspectRatio="xMinYMin meet" x="276" y="-706.7"/>
<text text-anchor="start" x="291" y="-696.8" font-family="Helvetica,sans-Serif" font-size="11.00" fill="#000000">absence_type_id</text>
<polygon fill="none" stroke="#000000" points="484,-689.7 484,-711.7 583,-711.7 583,-689.7 484,-689.7"/>
<text text-anchor="start" x="487" y="-697.4" font-family="Helvetica,sans-Serif" font-size="11.00" fill="#000000">uuid[2147483647]</text>
<polygon fill="none" stroke="#000000" points="271,-667.7 271,-689.7 484,-689.7 484,-667.7 271,-667.7"/>
<image xlink:href="../../images/foreignKeys.png" width="11px" height="12px" preserveAspectRatio="xMinYMin meet" x="276" y="-684.7"/>
<text text-anchor="start" x="291" y="-674.8" font-family="Helvetica,sans-Serif" font-size="11.00" fill="#000000">absence_sub_type_id</text>
<polygon fill="none" stroke="#000000" points="484,-667.7 484,-689.7 583,-689.7 583,-667.7 484,-667.7"/>
<text text-anchor="start" x="487" y="-675.4" font-family="Helvetica,sans-Serif" font-size="11.00" fill="#000000">uuid[2147483647]</text>
<polygon fill="none" stroke="#000000" points="271,-645.7 271,-667.7 484,-667.7 484,-645.7 271,-645.7"/>
<image xlink:href="../../images/foreignKeys.png" width="11px" height="12px" preserveAspectRatio="xMinYMin meet" x="276" y="-662.7"/>
<text text-anchor="start" x="291" y="-652.8" font-family="Helvetica,sans-Serif" font-size="11.00" fill="#000000">absence_reason_category_id</text>
<polygon fill="none" stroke="#000000" points="484,-645.7 484,-667.7 583,-667.7 583,-645.7 484,-645.7"/>
<text text-anchor="start" x="487" y="-653.4" font-family="Helvetica,sans-Serif" font-size="11.00" fill="#000000">uuid[2147483647]</text>
<polygon fill="none" stroke="#000000" points="271,-623.7 271,-645.7 484,-645.7 484,-623.7 271,-623.7"/>
<image xlink:href="../../images/foreignKeys.png" width="11px" height="12px" preserveAspectRatio="xMinYMin meet" x="276" y="-640.7"/>
<text text-anchor="start" x="291" y="-630.8" font-family="Helvetica,sans-Serif" font-size="11.00" fill="#000000">absence_reason_id</text>
<polygon fill="none" stroke="#000000" points="484,-623.7 484,-645.7 583,-645.7 583,-623.7 484,-623.7"/>
<text text-anchor="start" x="487" y="-631.4" font-family="Helvetica,sans-Serif" font-size="11.00" fill="#000000">uuid[2147483647]</text>
<polygon fill="none" stroke="#000000" points="271,-601.7 271,-623.7 484,-623.7 484,-601.7 271,-601.7"/>
<image xlink:href="../../images/foreignKeys.png" width="11px" height="12px" preserveAspectRatio="xMinYMin meet" x="276" y="-618.7"/>
<text text-anchor="start" x="291" y="-608.8" font-family="Helvetica,sans-Serif" font-size="11.00" fill="#000000">accompanied_by_id</text>
<polygon fill="none" stroke="#000000" points="484,-601.7 484,-623.7 583,-623.7 583,-601.7 484,-601.7"/>
<text text-anchor="start" x="487" y="-609.4" font-family="Helvetica,sans-Serif" font-size="11.00" fill="#000000">uuid[2147483647]</text>
<polygon fill="none" stroke="#000000" points="271,-579.7 271,-601.7 484,-601.7 484,-579.7 271,-579.7"/>
<image xlink:href="../../images/foreignKeys.png" width="11px" height="12px" preserveAspectRatio="xMinYMin meet" x="276" y="-596.7"/>
<text text-anchor="start" x="291" y="-586.8" font-family="Helvetica,sans-Serif" font-size="11.00" fill="#000000">transport_id</text>
<polygon fill="none" stroke="#000000" points="484,-579.7 484,-601.7 583,-601.7 583,-579.7 484,-579.7"/>
<text text-anchor="start" x="487" y="-587.4" font-family="Helvetica,sans-Serif" font-size="11.00" fill="#000000">uuid[2147483647]</text>
<polygon fill="none" stroke="#000000" points="271,-557.7 271,-579.7 484,-579.7 484,-557.7 271,-557.7"/>
<text text-anchor="start" x="291" y="-564.8" font-family="Helvetica,sans-Serif" font-size="11.00" fill="#000000">repeat</text>
<polygon fill="none" stroke="#000000" points="484,-557.7 484,-579.7 583,-579.7 583,-557.7 484,-557.7"/>
<text text-anchor="start" x="487" y="-565.4" font-family="Helvetica,sans-Serif" font-size="11.00" fill="#000000">bool[1]</text>
<polygon fill="none" stroke="#000000" points="271,-535.7 271,-557.7 484,-557.7 484,-535.7 271,-535.7"/>
<text text-anchor="start" x="291" y="-542.8" font-family="Helvetica,sans-Serif" font-size="11.00" fill="#000000">comments</text>
<polygon fill="none" stroke="#000000" points="484,-535.7 484,-557.7 583,-557.7 583,-535.7 484,-535.7"/>
<text text-anchor="start" x="487" y="-543.4" font-family="Helvetica,sans-Serif" font-size="11.00" fill="#000000">text[2147483647]</text>
<polygon fill="#ffffff" stroke="transparent" points="271,-513.7 271,-535.7 484,-535.7 484,-513.7 271,-513.7"/>
<polygon fill="none" stroke="#000000" points="271,-513.7 271,-535.7 484,-535.7 484,-513.7 271,-513.7"/>
<text text-anchor="start" x="291" y="-520.8" font-family="Helvetica,sans-Serif" font-size="11.00" fill="#000000">start</text>
<polygon fill="none" stroke="#000000" points="484,-513.7 484,-535.7 583,-535.7 583,-513.7 484,-513.7"/>
<text text-anchor="start" x="487" y="-521.4" font-family="Helvetica,sans-Serif" font-size="11.00" fill="#000000">date[13]</text>
<polygon fill="#ffffff" stroke="transparent" points="271,-491.7 271,-513.7 484,-513.7 484,-491.7 271,-491.7"/>
<polygon fill="none" stroke="#000000" points="271,-491.7 271,-513.7 484,-513.7 484,-491.7 271,-491.7"/>
<text text-anchor="start" x="291" y="-498.8" font-family="Helvetica,sans-Serif" font-size="11.00" fill="#000000">end</text>
<polygon fill="none" stroke="#000000" points="484,-491.7 484,-513.7 583,-513.7 583,-491.7 484,-491.7"/>
<text text-anchor="start" x="487" y="-499.4" font-family="Helvetica,sans-Serif" font-size="11.00" fill="#000000">date[13]</text>
<polygon fill="none" stroke="#000000" points="271,-469.7 271,-491.7 484,-491.7 484,-469.7 271,-469.7"/>
<text text-anchor="start" x="291" y="-476.8" font-family="Helvetica,sans-Serif" font-size="11.00" fill="#000000">reason_path</text>
<polygon fill="none" stroke="#000000" points="484,-469.7 484,-491.7 583,-491.7 583,-469.7 484,-469.7"/>
<text text-anchor="start" x="486.7258" y="-477.4" font-family="Helvetica,sans-Serif" font-size="11.00" fill="#000000">jsonb[2147483647]</text>
<polygon fill="none" stroke="#000000" points="271,-447.7 271,-469.7 484,-469.7 484,-447.7 271,-447.7"/>
<text text-anchor="start" x="291" y="-454.8" font-family="Helvetica,sans-Serif" font-size="11.00" fill="#000000">schedule</text>
<polygon fill="none" stroke="#000000" points="484,-447.7 484,-469.7 583,-469.7 583,-447.7 484,-447.7"/>
<text text-anchor="start" x="486.7258" y="-455.4" font-family="Helvetica,sans-Serif" font-size="11.00" fill="#000000">jsonb[2147483647]</text>
<polygon fill="#ffffff" stroke="transparent" points="271,-425.7 271,-447.7 484,-447.7 484,-425.7 271,-425.7"/>
<polygon fill="none" stroke="#000000" points="271,-425.7 271,-447.7 484,-447.7 484,-425.7 271,-425.7"/>
<text text-anchor="start" x="291" y="-432.8" font-family="Helvetica,sans-Serif" font-size="11.00" fill="#000000">legacy_id</text>
<polygon fill="none" stroke="#000000" points="484,-425.7 484,-447.7 583,-447.7 583,-425.7 484,-425.7"/>
<text text-anchor="start" x="487" y="-433.4" font-family="Helvetica,sans-Serif" font-size="11.00" fill="#000000">int8[19]</text>
<polygon fill="#ffffff" stroke="transparent" points="271,-406.7 271,-425.7 382,-425.7 382,-406.7 271,-406.7"/>
<polygon fill="none" stroke="#000000" points="271,-406.7 271,-425.7 382,-425.7 382,-406.7 271,-406.7"/>
<text text-anchor="start" x="274" y="-412.8" font-family="Helvetica,sans-Serif" font-size="11.00" fill="#000000">&lt; 7</text>
<polygon fill="#ffffff" stroke="transparent" points="382,-406.7 382,-425.7 484,-425.7 484,-406.7 382,-406.7"/>
<polygon fill="none" stroke="#000000" points="382,-406.7 382,-425.7 484,-425.7 484,-406.7 382,-406.7"/>
<text text-anchor="start" x="474.8862" y="-412.8" font-family="Helvetica,sans-Serif" font-size="11.00" fill="#000000"> &#160;</text>
<polygon fill="#ffffff" stroke="transparent" points="484,-406.7 484,-425.7 583,-425.7 583,-406.7 484,-406.7"/>
<polygon fill="none" stroke="#000000" points="484,-406.7 484,-425.7 583,-425.7 583,-406.7 484,-406.7"/>
<text text-anchor="start" x="564.4053" y="-412.8" font-family="Helvetica,sans-Serif" font-size="11.00" fill="#000000">0 &gt;</text>
<polygon fill="none" stroke="#000000" stroke-width="2" points="270,-405.7 270,-845.7 584,-845.7 584,-405.7 270,-405.7"/>
</a>
</g>
</g>
<!-- absence_reason_category -->
<g id="node2" class="node">
<title>absence_reason_category</title>
<g id="a_node2"><a xlink:href="../../tables/absence_reason_category.html" xlink:title="absence_reason_category" target="_top">
<polygon fill="#ffffff" stroke="transparent" points="8,-334.2 8,-461.2 220,-461.2 220,-334.2 8,-334.2"/>
<polygon fill="#f5f5f5" stroke="transparent" points="8,-437.7 8,-460.7 220,-460.7 220,-437.7 8,-437.7"/>
<polygon fill="none" stroke="#000000" points="8,-437.7 8,-460.7 220,-460.7 220,-437.7 8,-437.7"/>
<text text-anchor="start" x="13" y="-446.3" font-family="Helvetica,sans-Serif" font-weight="bold" font-size="11.00" fill="#000000">absence_reason_category</text>
<text text-anchor="start" x="185.5219" y="-445.8" font-family="Helvetica,sans-Serif" font-size="11.00" fill="#000000">[table]</text>
<polygon fill="none" stroke="#000000" points="8,-415.7 8,-437.7 220,-437.7 220,-415.7 8,-415.7"/>
<image xlink:href="../../images/primaryKeys.png" width="11px" height="12px" preserveAspectRatio="xMinYMin meet" x="13" y="-432.7"/>
<text text-anchor="start" x="37" y="-422.8" font-family="Helvetica,sans-Serif" font-size="11.00" fill="#000000">id</text>
<polygon fill="#ffffff" stroke="transparent" points="8,-393.7 8,-415.7 220,-415.7 220,-393.7 8,-393.7"/>
<polygon fill="none" stroke="#000000" points="8,-393.7 8,-415.7 220,-415.7 220,-393.7 8,-393.7"/>
<text text-anchor="start" x="37" y="-400.8" font-family="Helvetica,sans-Serif" font-size="11.00" fill="#000000">code</text>
<polygon fill="#ffffff" stroke="transparent" points="8,-371.7 8,-393.7 220,-393.7 220,-371.7 8,-371.7"/>
<polygon fill="none" stroke="#000000" points="8,-371.7 8,-393.7 220,-393.7 220,-371.7 8,-371.7"/>
<text text-anchor="start" x="37" y="-378.8" font-family="Helvetica,sans-Serif" font-size="11.00" fill="#000000">sequence_number</text>
<polygon fill="none" stroke="#000000" points="8,-352.7 8,-371.7 220,-371.7 220,-352.7 8,-352.7"/>
<text text-anchor="start" x="11" y="-358.8" font-family="Helvetica,sans-Serif" font-size="11.00" fill="#000000">...</text>
<polygon fill="#ffffff" stroke="transparent" points="8,-333.7 8,-352.7 103,-352.7 103,-333.7 8,-333.7"/>
<polygon fill="none" stroke="#000000" points="8,-333.7 8,-352.7 103,-352.7 103,-333.7 8,-333.7"/>
<text text-anchor="start" x="11" y="-339.8" font-family="Helvetica,sans-Serif" font-size="11.00" fill="#000000"> &#160;</text>
<polygon fill="#ffffff" stroke="transparent" points="103,-333.7 103,-352.7 157,-352.7 157,-333.7 103,-333.7"/>
<polygon fill="none" stroke="#000000" points="103,-333.7 103,-352.7 157,-352.7 157,-333.7 103,-333.7"/>
<text text-anchor="start" x="147.8862" y="-339.8" font-family="Helvetica,sans-Serif" font-size="11.00" fill="#000000"> &#160;</text>
<polygon fill="#ffffff" stroke="transparent" points="157,-333.7 157,-352.7 220,-352.7 220,-333.7 157,-333.7"/>
<polygon fill="none" stroke="#000000" points="157,-333.7 157,-352.7 220,-352.7 220,-333.7 157,-333.7"/>
<text text-anchor="start" x="201.4053" y="-339.8" font-family="Helvetica,sans-Serif" font-size="11.00" fill="#000000">2 &gt;</text>
</a>
</g>
</g>
<!-- authorisation&#45;&gt;absence_reason_category -->
<g id="edge1" class="edge">
<title>authorisation:w&#45;&gt;absence_reason_category:e</title>
<path fill="none" stroke="#000000" d="M256.5533,-654.8486C182.2705,-633.0818 319.1836,-426.7 220,-426.7"/>
<polygon fill="#000000" stroke="#000000" points="263.0649,-655.6831 270.5424,-660.2708 267.0324,-656.1915 271,-656.7 271,-656.7 271,-656.7 267.0324,-656.1915 271.4576,-653.1292 263.0649,-655.6831 263.0649,-655.6831"/>
<ellipse fill="none" stroke="#000000" cx="259.8908" cy="-655.2763" rx="3.2" ry="3.2"/>
</g>
<!-- absence_reason -->
<g id="node3" class="node">
<title>absence_reason</title>
<g id="a_node3"><a xlink:href="../../tables/absence_reason.html" xlink:title="absence_reason" target="_top">
<polygon fill="#ffffff" stroke="transparent" points="41,-778.2 41,-905.2 187,-905.2 187,-778.2 41,-778.2"/>
<polygon fill="#f5f5f5" stroke="transparent" points="41,-881.7 41,-904.7 187,-904.7 187,-881.7 41,-881.7"/>
<polygon fill="none" stroke="#000000" points="41,-881.7 41,-904.7 187,-904.7 187,-881.7 41,-881.7"/>
<text text-anchor="start" x="46" y="-890.3" font-family="Helvetica,sans-Serif" font-weight="bold" font-size="11.00" fill="#000000">absence_reason</text>
<text text-anchor="start" x="152.5219" y="-889.8" font-family="Helvetica,sans-Serif" font-size="11.00" fill="#000000">[table]</text>
<polygon fill="none" stroke="#000000" points="41,-859.7 41,-881.7 187,-881.7 187,-859.7 41,-859.7"/>
<image xlink:href="../../images/primaryKeys.png" width="11px" height="12px" preserveAspectRatio="xMinYMin meet" x="46" y="-876.7"/>
<text text-anchor="start" x="63" y="-866.8" font-family="Helvetica,sans-Serif" font-size="11.00" fill="#000000">id</text>
<polygon fill="#ffffff" stroke="transparent" points="41,-837.7 41,-859.7 187,-859.7 187,-837.7 41,-837.7"/>
<polygon fill="none" stroke="#000000" points="41,-837.7 41,-859.7 187,-859.7 187,-837.7 41,-837.7"/>
<text text-anchor="start" x="63" y="-844.8" font-family="Helvetica,sans-Serif" font-size="11.00" fill="#000000">code</text>
<polygon fill="#ffffff" stroke="transparent" points="41,-815.7 41,-837.7 187,-837.7 187,-815.7 41,-815.7"/>
<polygon fill="none" stroke="#000000" points="41,-815.7 41,-837.7 187,-837.7 187,-815.7 41,-815.7"/>
<text text-anchor="start" x="63" y="-822.8" font-family="Helvetica,sans-Serif" font-size="11.00" fill="#000000">sequence_number</text>
<polygon fill="none" stroke="#000000" points="41,-796.7 41,-815.7 187,-815.7 187,-796.7 41,-796.7"/>
<text text-anchor="start" x="44" y="-802.8" font-family="Helvetica,sans-Serif" font-size="11.00" fill="#000000">...</text>
<polygon fill="#ffffff" stroke="transparent" points="41,-777.7 41,-796.7 87,-796.7 87,-777.7 41,-777.7"/>
<polygon fill="none" stroke="#000000" points="41,-777.7 41,-796.7 87,-796.7 87,-777.7 41,-777.7"/>
<text text-anchor="start" x="44" y="-783.8" font-family="Helvetica,sans-Serif" font-size="11.00" fill="#000000"> &#160;</text>
<polygon fill="#ffffff" stroke="transparent" points="87,-777.7 87,-796.7 148,-796.7 148,-777.7 87,-777.7"/>
<polygon fill="none" stroke="#000000" points="87,-777.7 87,-796.7 148,-796.7 148,-777.7 87,-777.7"/>
<text text-anchor="start" x="106.4956" y="-783.8" font-family="Helvetica,sans-Serif" font-size="11.00" fill="#000000">98 rows</text>
<polygon fill="#ffffff" stroke="transparent" points="148,-777.7 148,-796.7 187,-796.7 187,-777.7 148,-777.7"/>
<polygon fill="none" stroke="#000000" points="148,-777.7 148,-796.7 187,-796.7 187,-777.7 148,-777.7"/>
<text text-anchor="start" x="168.4053" y="-783.8" font-family="Helvetica,sans-Serif" font-size="11.00" fill="#000000">3 &gt;</text>
</a>
</g>
</g>
<!-- authorisation&#45;&gt;absence_reason -->
<g id="edge2" class="edge">
<title>authorisation:w&#45;&gt;absence_reason:e</title>
<path fill="none" stroke="#000000" d="M256.6144,-636.4396C215.6016,-647.9662 247.1632,-714.5041 228,-767.7 211.3011,-814.0552 236.2712,-870.7 187,-870.7"/>
<polygon fill="#000000" stroke="#000000" points="263.0579,-635.6605 271.4322,-638.274 267.0289,-635.1802 271,-634.7 271,-634.7 271,-634.7 267.0289,-635.1802 270.5678,-631.126 263.0579,-635.6605 263.0579,-635.6605"/>
<ellipse fill="none" stroke="#000000" cx="259.881" cy="-636.0447" rx="3.2" ry="3.2"/>
</g>
<!-- absence_sub_type -->
<g id="node4" class="node">
<title>absence_sub_type</title>
<g id="a_node4"><a xlink:href="../../tables/absence_sub_type.html" xlink:title="absence_sub_type" target="_top">
<polygon fill="#ffffff" stroke="transparent" points="33.5,-482.2 33.5,-609.2 194.5,-609.2 194.5,-482.2 33.5,-482.2"/>
<polygon fill="#f5f5f5" stroke="transparent" points="34,-585.7 34,-608.7 195,-608.7 195,-585.7 34,-585.7"/>
<polygon fill="none" stroke="#000000" points="34,-585.7 34,-608.7 195,-608.7 195,-585.7 34,-585.7"/>
<text text-anchor="start" x="39" y="-594.3" font-family="Helvetica,sans-Serif" font-weight="bold" font-size="11.00" fill="#000000">absence_sub_type</text>
<text text-anchor="start" x="160.5219" y="-593.8" font-family="Helvetica,sans-Serif" font-size="11.00" fill="#000000">[table]</text>
<polygon fill="none" stroke="#000000" points="34,-563.7 34,-585.7 195,-585.7 195,-563.7 34,-563.7"/>
<image xlink:href="../../images/primaryKeys.png" width="11px" height="12px" preserveAspectRatio="xMinYMin meet" x="39" y="-580.7"/>
<text text-anchor="start" x="63" y="-570.8" font-family="Helvetica,sans-Serif" font-size="11.00" fill="#000000">id</text>
<polygon fill="#ffffff" stroke="transparent" points="34,-541.7 34,-563.7 195,-563.7 195,-541.7 34,-541.7"/>
<polygon fill="none" stroke="#000000" points="34,-541.7 34,-563.7 195,-563.7 195,-541.7 34,-541.7"/>
<text text-anchor="start" x="63" y="-548.8" font-family="Helvetica,sans-Serif" font-size="11.00" fill="#000000">code</text>
<polygon fill="#ffffff" stroke="transparent" points="34,-519.7 34,-541.7 195,-541.7 195,-519.7 34,-519.7"/>
<polygon fill="none" stroke="#000000" points="34,-519.7 34,-541.7 195,-541.7 195,-519.7 34,-519.7"/>
<text text-anchor="start" x="63" y="-526.8" font-family="Helvetica,sans-Serif" font-size="11.00" fill="#000000">sequence_number</text>
<polygon fill="none" stroke="#000000" points="34,-500.7 34,-519.7 195,-519.7 195,-500.7 34,-500.7"/>
<text text-anchor="start" x="37" y="-506.8" font-family="Helvetica,sans-Serif" font-size="11.00" fill="#000000">...</text>
<polygon fill="#ffffff" stroke="transparent" points="34,-481.7 34,-500.7 104,-500.7 104,-481.7 34,-481.7"/>
<polygon fill="none" stroke="#000000" points="34,-481.7 34,-500.7 104,-500.7 104,-481.7 34,-481.7"/>
<text text-anchor="start" x="37" y="-487.8" font-family="Helvetica,sans-Serif" font-size="11.00" fill="#000000"> &#160;</text>
<polygon fill="#ffffff" stroke="transparent" points="104,-481.7 104,-500.7 145,-500.7 145,-481.7 104,-481.7"/>
<polygon fill="none" stroke="#000000" points="104,-481.7 104,-500.7 145,-500.7 145,-481.7 104,-481.7"/>
<text text-anchor="start" x="135.8862" y="-487.8" font-family="Helvetica,sans-Serif" font-size="11.00" fill="#000000"> &#160;</text>
<polygon fill="#ffffff" stroke="transparent" points="145,-481.7 145,-500.7 195,-500.7 195,-481.7 145,-481.7"/>
<polygon fill="none" stroke="#000000" points="145,-481.7 145,-500.7 195,-500.7 195,-481.7 145,-481.7"/>
<text text-anchor="start" x="176.4053" y="-487.8" font-family="Helvetica,sans-Serif" font-size="11.00" fill="#000000">2 &gt;</text>
</a>
</g>
</g>
<!-- authorisation&#45;&gt;absence_sub_type -->
<g id="edge3" class="edge">
<title>authorisation:w&#45;&gt;absence_sub_type:e</title>
<path fill="none" stroke="#000000" d="M256.7889,-675.9183C220.3571,-659.3793 246.6582,-574.7 195,-574.7"/>
<polygon fill="#000000" stroke="#000000" points="263.149,-677.1632 270.3084,-682.233 267.0745,-677.9316 271,-678.7 271,-678.7 271,-678.7 267.0745,-677.9316 271.6916,-675.167 263.149,-677.1632 263.149,-677.1632"/>
<ellipse fill="none" stroke="#000000" cx="260.0086" cy="-676.5484" rx="3.2" ry="3.2"/>
</g>
<!-- absence_type -->
<g id="node5" class="node">
<title>absence_type</title>
<g id="a_node5"><a xlink:href="../../tables/absence_type.html" xlink:title="absence_type" target="_top">
<polygon fill="#ffffff" stroke="transparent" points="42.5,-630.2 42.5,-757.2 185.5,-757.2 185.5,-630.2 42.5,-630.2"/>
<polygon fill="#f5f5f5" stroke="transparent" points="43,-733.7 43,-756.7 186,-756.7 186,-733.7 43,-733.7"/>
<polygon fill="none" stroke="#000000" points="43,-733.7 43,-756.7 186,-756.7 186,-733.7 43,-733.7"/>
<text text-anchor="start" x="48" y="-742.3" font-family="Helvetica,sans-Serif" font-weight="bold" font-size="11.00" fill="#000000">absence_type</text>
<text text-anchor="start" x="151.0437" y="-741.8" font-family="Helvetica,sans-Serif" font-size="11.00" fill="#000000">[table]</text>
<polygon fill="none" stroke="#000000" points="43,-711.7 43,-733.7 186,-733.7 186,-711.7 43,-711.7"/>
<image xlink:href="../../images/primaryKeys.png" width="11px" height="12px" preserveAspectRatio="xMinYMin meet" x="48" y="-728.7"/>
<text text-anchor="start" x="63" y="-718.8" font-family="Helvetica,sans-Serif" font-size="11.00" fill="#000000">id</text>
<polygon fill="#ffffff" stroke="transparent" points="43,-689.7 43,-711.7 186,-711.7 186,-689.7 43,-689.7"/>
<polygon fill="none" stroke="#000000" points="43,-689.7 43,-711.7 186,-711.7 186,-689.7 43,-689.7"/>
<text text-anchor="start" x="63" y="-696.8" font-family="Helvetica,sans-Serif" font-size="11.00" fill="#000000">code</text>
<polygon fill="#ffffff" stroke="transparent" points="43,-667.7 43,-689.7 186,-689.7 186,-667.7 43,-667.7"/>
<polygon fill="none" stroke="#000000" points="43,-667.7 43,-689.7 186,-689.7 186,-667.7 43,-667.7"/>
<text text-anchor="start" x="63" y="-674.8" font-family="Helvetica,sans-Serif" font-size="11.00" fill="#000000">sequence_number</text>
<polygon fill="none" stroke="#000000" points="43,-648.7 43,-667.7 186,-667.7 186,-648.7 43,-648.7"/>
<text text-anchor="start" x="46" y="-654.8" font-family="Helvetica,sans-Serif" font-size="11.00" fill="#000000">...</text>
<polygon fill="#ffffff" stroke="transparent" points="43,-629.7 43,-648.7 104,-648.7 104,-629.7 43,-629.7"/>
<polygon fill="none" stroke="#000000" points="43,-629.7 43,-648.7 104,-648.7 104,-629.7 43,-629.7"/>
<text text-anchor="start" x="46" y="-635.8" font-family="Helvetica,sans-Serif" font-size="11.00" fill="#000000"> &#160;</text>
<polygon fill="#ffffff" stroke="transparent" points="104,-629.7 104,-648.7 140,-648.7 140,-629.7 104,-629.7"/>
<polygon fill="none" stroke="#000000" points="104,-629.7 104,-648.7 140,-648.7 140,-629.7 104,-629.7"/>
<text text-anchor="start" x="130.8862" y="-635.8" font-family="Helvetica,sans-Serif" font-size="11.00" fill="#000000"> &#160;</text>
<polygon fill="#ffffff" stroke="transparent" points="140,-629.7 140,-648.7 186,-648.7 186,-629.7 140,-629.7"/>
<polygon fill="none" stroke="#000000" points="140,-629.7 140,-648.7 186,-648.7 186,-629.7 140,-629.7"/>
<text text-anchor="start" x="167.4053" y="-635.8" font-family="Helvetica,sans-Serif" font-size="11.00" fill="#000000">2 &gt;</text>
</a>
</g>
</g>
<!-- authorisation&#45;&gt;absence_type -->
<g id="edge4" class="edge">
<title>authorisation:w&#45;&gt;absence_type:e</title>
<path fill="none" stroke="#000000" d="M256.629,-701.8212C229.4763,-706.3044 219.6875,-722.7 186,-722.7"/>
<polygon fill="#000000" stroke="#000000" points="263.0242,-701.3223 271.28,-704.2891 267.0121,-701.0112 271,-700.7 271,-700.7 271,-700.7 267.0121,-701.0112 270.72,-697.1109 263.0242,-701.3223 263.0242,-701.3223"/>
<ellipse fill="none" stroke="#000000" cx="259.8339" cy="-701.5712" rx="3.2" ry="3.2"/>
</g>
<!-- accompanied_by -->
<g id="node6" class="node">
<title>accompanied_by</title>
<g id="a_node6"><a xlink:href="../../tables/accompanied_by.html" xlink:title="accompanied_by" target="_top">
<polygon fill="#ffffff" stroke="transparent" points="39,-38.2 39,-165.2 189,-165.2 189,-38.2 39,-38.2"/>
<polygon fill="#f5f5f5" stroke="transparent" points="39,-141.7 39,-164.7 189,-164.7 189,-141.7 39,-141.7"/>
<polygon fill="none" stroke="#000000" points="39,-141.7 39,-164.7 189,-164.7 189,-141.7 39,-141.7"/>
<text text-anchor="start" x="44" y="-150.3" font-family="Helvetica,sans-Serif" font-weight="bold" font-size="11.00" fill="#000000">accompanied_by</text>
<text text-anchor="start" x="154.5219" y="-149.8" font-family="Helvetica,sans-Serif" font-size="11.00" fill="#000000">[table]</text>
<polygon fill="none" stroke="#000000" points="39,-119.7 39,-141.7 189,-141.7 189,-119.7 39,-119.7"/>
<image xlink:href="../../images/primaryKeys.png" width="11px" height="12px" preserveAspectRatio="xMinYMin meet" x="44" y="-136.7"/>
<text text-anchor="start" x="63" y="-126.8" font-family="Helvetica,sans-Serif" font-size="11.00" fill="#000000">id</text>
<polygon fill="#ffffff" stroke="transparent" points="39,-97.7 39,-119.7 189,-119.7 189,-97.7 39,-97.7"/>
<polygon fill="none" stroke="#000000" points="39,-97.7 39,-119.7 189,-119.7 189,-97.7 39,-97.7"/>
<text text-anchor="start" x="63" y="-104.8" font-family="Helvetica,sans-Serif" font-size="11.00" fill="#000000">code</text>
<polygon fill="#ffffff" stroke="transparent" points="39,-75.7 39,-97.7 189,-97.7 189,-75.7 39,-75.7"/>
<polygon fill="none" stroke="#000000" points="39,-75.7 39,-97.7 189,-97.7 189,-75.7 39,-75.7"/>
<text text-anchor="start" x="63" y="-82.8" font-family="Helvetica,sans-Serif" font-size="11.00" fill="#000000">sequence_number</text>
<polygon fill="none" stroke="#000000" points="39,-56.7 39,-75.7 189,-75.7 189,-56.7 39,-56.7"/>
<text text-anchor="start" x="42" y="-62.8" font-family="Helvetica,sans-Serif" font-size="11.00" fill="#000000">...</text>
<polygon fill="#ffffff" stroke="transparent" points="39,-37.7 39,-56.7 103,-56.7 103,-37.7 39,-37.7"/>
<polygon fill="none" stroke="#000000" points="39,-37.7 39,-56.7 103,-56.7 103,-37.7 39,-37.7"/>
<text text-anchor="start" x="42" y="-43.8" font-family="Helvetica,sans-Serif" font-size="11.00" fill="#000000"> &#160;</text>
<polygon fill="#ffffff" stroke="transparent" points="103,-37.7 103,-56.7 141,-56.7 141,-37.7 103,-37.7"/>
<polygon fill="none" stroke="#000000" points="103,-37.7 103,-56.7 141,-56.7 141,-37.7 103,-37.7"/>
<text text-anchor="start" x="131.8862" y="-43.8" font-family="Helvetica,sans-Serif" font-size="11.00" fill="#000000"> &#160;</text>
<polygon fill="#ffffff" stroke="transparent" points="141,-37.7 141,-56.7 189,-56.7 189,-37.7 141,-37.7"/>
<polygon fill="none" stroke="#000000" points="141,-37.7 141,-56.7 189,-56.7 189,-37.7 141,-37.7"/>
<text text-anchor="start" x="170.4053" y="-43.8" font-family="Helvetica,sans-Serif" font-size="11.00" fill="#000000">3 &gt;</text>
</a>
</g>
</g>
<!-- authorisation&#45;&gt;accompanied_by -->
<g id="edge5" class="edge">
<title>authorisation:w&#45;&gt;accompanied_by:e</title>
<path fill="none" stroke="#000000" d="M259.5522,-603.7395C226.3556,-545.0344 245.5414,-216.4951 228,-175.7 217.5455,-151.3865 215.4659,-130.7 189,-130.7"/>
<polygon fill="#000000" stroke="#000000" points="264.7003,-607.769 268.7811,-615.5349 267.8502,-610.2345 271,-612.7 271,-612.7 271,-612.7 267.8502,-610.2345 273.2189,-609.8651 264.7003,-607.769 264.7003,-607.769"/>
<ellipse fill="none" stroke="#000000" cx="262.1805" cy="-605.7966" rx="3.2" ry="3.2"/>
</g>
<!-- authorisation_status -->
<g id="node7" class="node">
<title>authorisation_status</title>
<g id="a_node7"><a xlink:href="../../tables/authorisation_status.html" xlink:title="authorisation_status" target="_top">
<polygon fill="#ffffff" stroke="transparent" points="25,-926.2 25,-1053.2 203,-1053.2 203,-926.2 25,-926.2"/>
<polygon fill="#f5f5f5" stroke="transparent" points="25,-1029.7 25,-1052.7 203,-1052.7 203,-1029.7 25,-1029.7"/>
<polygon fill="none" stroke="#000000" points="25,-1029.7 25,-1052.7 203,-1052.7 203,-1029.7 25,-1029.7"/>
<text text-anchor="start" x="30" y="-1038.3" font-family="Helvetica,sans-Serif" font-weight="bold" font-size="11.00" fill="#000000">authorisation_status</text>
<text text-anchor="start" x="168.5219" y="-1037.8" font-family="Helvetica,sans-Serif" font-size="11.00" fill="#000000">[table]</text>
<polygon fill="none" stroke="#000000" points="25,-1007.7 25,-1029.7 203,-1029.7 203,-1007.7 25,-1007.7"/>
<image xlink:href="../../images/primaryKeys.png" width="11px" height="12px" preserveAspectRatio="xMinYMin meet" x="30" y="-1024.7"/>
<text text-anchor="start" x="54" y="-1014.8" font-family="Helvetica,sans-Serif" font-size="11.00" fill="#000000">id</text>
<polygon fill="#ffffff" stroke="transparent" points="25,-985.7 25,-1007.7 203,-1007.7 203,-985.7 25,-985.7"/>
<polygon fill="none" stroke="#000000" points="25,-985.7 25,-1007.7 203,-1007.7 203,-985.7 25,-985.7"/>
<text text-anchor="start" x="54" y="-992.8" font-family="Helvetica,sans-Serif" font-size="11.00" fill="#000000">code</text>
<polygon fill="#ffffff" stroke="transparent" points="25,-963.7 25,-985.7 203,-985.7 203,-963.7 25,-963.7"/>
<polygon fill="none" stroke="#000000" points="25,-963.7 25,-985.7 203,-985.7 203,-963.7 25,-963.7"/>
<text text-anchor="start" x="54" y="-970.8" font-family="Helvetica,sans-Serif" font-size="11.00" fill="#000000">sequence_number</text>
<polygon fill="none" stroke="#000000" points="25,-944.7 25,-963.7 203,-963.7 203,-944.7 25,-944.7"/>
<text text-anchor="start" x="28" y="-950.8" font-family="Helvetica,sans-Serif" font-size="11.00" fill="#000000">...</text>
<polygon fill="#ffffff" stroke="transparent" points="25,-925.7 25,-944.7 103,-944.7 103,-925.7 25,-925.7"/>
<polygon fill="none" stroke="#000000" points="25,-925.7 25,-944.7 103,-944.7 103,-925.7 25,-925.7"/>
<text text-anchor="start" x="28" y="-931.8" font-family="Helvetica,sans-Serif" font-size="11.00" fill="#000000"> &#160;</text>
<polygon fill="#ffffff" stroke="transparent" points="103,-925.7 103,-944.7 148,-944.7 148,-925.7 103,-925.7"/>
<polygon fill="none" stroke="#000000" points="103,-925.7 103,-944.7 148,-944.7 148,-925.7 103,-925.7"/>
<text text-anchor="start" x="138.8862" y="-931.8" font-family="Helvetica,sans-Serif" font-size="11.00" fill="#000000"> &#160;</text>
<polygon fill="#ffffff" stroke="transparent" points="148,-925.7 148,-944.7 203,-944.7 203,-925.7 148,-925.7"/>
<polygon fill="none" stroke="#000000" points="148,-925.7 148,-944.7 203,-944.7 203,-925.7 148,-925.7"/>
<text text-anchor="start" x="184.4053" y="-931.8" font-family="Helvetica,sans-Serif" font-size="11.00" fill="#000000">1 &gt;</text>
</a>
</g>
</g>
<!-- authorisation&#45;&gt;authorisation_status -->
<g id="edge6" class="edge">
<title>authorisation:w&#45;&gt;authorisation_status:e</title>
<path fill="none" stroke="#000000" d="M257.5158,-727.8376C213.154,-767.1434 265.2184,-1018.7 203,-1018.7"/>
<polygon fill="#000000" stroke="#000000" points="263.5242,-725.5484 272.2818,-726.0641 267.2621,-724.1242 271,-722.7 271,-722.7 271,-722.7 267.2621,-724.1242 269.7182,-719.3359 263.5242,-725.5484 263.5242,-725.5484"/>
<ellipse fill="none" stroke="#000000" cx="260.5339" cy="-726.6877" rx="3.2" ry="3.2"/>
</g>
<!-- transport -->
<g id="node8" class="node">
<title>transport</title>
<g id="a_node8"><a xlink:href="../../tables/transport.html" xlink:title="transport" target="_top">
<polygon fill="#ffffff" stroke="transparent" points="42.5,-186.2 42.5,-313.2 185.5,-313.2 185.5,-186.2 42.5,-186.2"/>
<polygon fill="#f5f5f5" stroke="transparent" points="43,-289.7 43,-312.7 186,-312.7 186,-289.7 43,-289.7"/>
<polygon fill="none" stroke="#000000" points="43,-289.7 43,-312.7 186,-312.7 186,-289.7 43,-289.7"/>
<text text-anchor="start" x="48" y="-298.3" font-family="Helvetica,sans-Serif" font-weight="bold" font-size="11.00" fill="#000000">transport</text>
<text text-anchor="start" x="151.0437" y="-297.8" font-family="Helvetica,sans-Serif" font-size="11.00" fill="#000000">[table]</text>
<polygon fill="none" stroke="#000000" points="43,-267.7 43,-289.7 186,-289.7 186,-267.7 43,-267.7"/>
<image xlink:href="../../images/primaryKeys.png" width="11px" height="12px" preserveAspectRatio="xMinYMin meet" x="48" y="-284.7"/>
<text text-anchor="start" x="63" y="-274.8" font-family="Helvetica,sans-Serif" font-size="11.00" fill="#000000">id</text>
<polygon fill="#ffffff" stroke="transparent" points="43,-245.7 43,-267.7 186,-267.7 186,-245.7 43,-245.7"/>
<polygon fill="none" stroke="#000000" points="43,-245.7 43,-267.7 186,-267.7 186,-245.7 43,-245.7"/>
<text text-anchor="start" x="63" y="-252.8" font-family="Helvetica,sans-Serif" font-size="11.00" fill="#000000">code</text>
<polygon fill="#ffffff" stroke="transparent" points="43,-223.7 43,-245.7 186,-245.7 186,-223.7 43,-223.7"/>
<polygon fill="none" stroke="#000000" points="43,-223.7 43,-245.7 186,-245.7 186,-223.7 43,-223.7"/>
<text text-anchor="start" x="63" y="-230.8" font-family="Helvetica,sans-Serif" font-size="11.00" fill="#000000">sequence_number</text>
<polygon fill="none" stroke="#000000" points="43,-204.7 43,-223.7 186,-223.7 186,-204.7 43,-204.7"/>
<text text-anchor="start" x="46" y="-210.8" font-family="Helvetica,sans-Serif" font-size="11.00" fill="#000000">...</text>
<polygon fill="#ffffff" stroke="transparent" points="43,-185.7 43,-204.7 104,-204.7 104,-185.7 43,-185.7"/>
<polygon fill="none" stroke="#000000" points="43,-185.7 43,-204.7 104,-204.7 104,-185.7 43,-185.7"/>
<text text-anchor="start" x="46" y="-191.8" font-family="Helvetica,sans-Serif" font-size="11.00" fill="#000000"> &#160;</text>
<polygon fill="#ffffff" stroke="transparent" points="104,-185.7 104,-204.7 140,-204.7 140,-185.7 104,-185.7"/>
<polygon fill="none" stroke="#000000" points="104,-185.7 104,-204.7 140,-204.7 140,-185.7 104,-185.7"/>
<text text-anchor="start" x="130.8862" y="-191.8" font-family="Helvetica,sans-Serif" font-size="11.00" fill="#000000"> &#160;</text>
<polygon fill="#ffffff" stroke="transparent" points="140,-185.7 140,-204.7 186,-204.7 186,-185.7 140,-185.7"/>
<polygon fill="none" stroke="#000000" points="140,-185.7 140,-204.7 186,-204.7 186,-185.7 140,-185.7"/>
<text text-anchor="start" x="167.4053" y="-191.8" font-family="Helvetica,sans-Serif" font-size="11.00" fill="#000000">2 &gt;</text>
</a>
</g>
</g>
<!-- authorisation&#45;&gt;transport -->
<g id="edge7" class="edge">
<title>authorisation:w&#45;&gt;transport:e</title>
<path fill="none" stroke="#000000" d="M257.1852,-585.8113C218.1584,-553.706 252.0528,-372.8262 228,-323.7 215.9699,-299.1293 213.3577,-278.7 186,-278.7"/>
<polygon fill="#000000" stroke="#000000" points="263.4583,-588.0312 269.799,-594.0938 267.2291,-589.3656 271,-590.7 271,-590.7 271,-590.7 267.2291,-589.3656 272.201,-587.3062 263.4583,-588.0312 263.4583,-588.0312"/>
<ellipse fill="none" stroke="#000000" cx="260.4416" cy="-586.9636" rx="3.2" ry="3.2"/>
</g>
<!-- movement -->
<g id="node9" class="node">
<title>movement</title>
<g id="a_node9"><a xlink:href="../../tables/movement.html" xlink:title="movement" target="_top">
<polygon fill="#ffffff" stroke="transparent" points="634,-322.2 634,-383.2 744,-383.2 744,-322.2 634,-322.2"/>
<polygon fill="#f5f5f5" stroke="transparent" points="634,-359.7 634,-382.7 744,-382.7 744,-359.7 634,-359.7"/>
<polygon fill="none" stroke="#000000" points="634,-359.7 634,-382.7 744,-382.7 744,-359.7 634,-359.7"/>
<text text-anchor="start" x="639" y="-368.3" font-family="Helvetica,sans-Serif" font-weight="bold" font-size="11.00" fill="#000000">movement</text>
<text text-anchor="start" x="709.5219" y="-367.8" font-family="Helvetica,sans-Serif" font-size="11.00" fill="#000000">[table]</text>
<polygon fill="none" stroke="#000000" points="634,-340.7 634,-359.7 744,-359.7 744,-340.7 634,-340.7"/>
<text text-anchor="start" x="637" y="-346.8" font-family="Helvetica,sans-Serif" font-size="11.00" fill="#000000">...</text>
<polygon fill="#ffffff" stroke="transparent" points="634,-321.7 634,-340.7 687,-340.7 687,-321.7 634,-321.7"/>
<polygon fill="none" stroke="#000000" points="634,-321.7 634,-340.7 687,-340.7 687,-321.7 634,-321.7"/>
<text text-anchor="start" x="637" y="-327.8" font-family="Helvetica,sans-Serif" font-size="11.00" fill="#000000">&lt; 3</text>
<polygon fill="#ffffff" stroke="transparent" points="687,-321.7 687,-340.7 715,-340.7 715,-321.7 687,-321.7"/>
<polygon fill="none" stroke="#000000" points="687,-321.7 687,-340.7 715,-340.7 715,-321.7 687,-321.7"/>
<text text-anchor="start" x="705.8862" y="-327.8" font-family="Helvetica,sans-Serif" font-size="11.00" fill="#000000"> &#160;</text>
<polygon fill="#ffffff" stroke="transparent" points="715,-321.7 715,-340.7 744,-340.7 744,-321.7 715,-321.7"/>
<polygon fill="none" stroke="#000000" points="715,-321.7 715,-340.7 744,-340.7 744,-321.7 715,-321.7"/>
<text text-anchor="start" x="734.8862" y="-327.8" font-family="Helvetica,sans-Serif" font-size="11.00" fill="#000000"> &#160;</text>
</a>
</g>
</g>
<!-- movement&#45;&gt;absence_reason -->
<g id="edge8" class="edge">
<title>movement:w&#45;&gt;absence_reason:e</title>
<path fill="none" stroke="#000000" d="M622.2342,-358.6705C586.0058,-423.7429 630.6383,-821.8452 593,-857.7 462.2817,-982.2243 367.5369,-870.7 187,-870.7"/>
<polygon fill="#000000" stroke="#000000" points="627.6381,-354.5505 636.1827,-352.5628 630.8191,-352.1252 634,-349.7 634,-349.7 634,-349.7 630.8191,-352.1252 631.8173,-346.8372 627.6381,-354.5505 627.6381,-354.5505"/>
<ellipse fill="none" stroke="#000000" cx="625.0934" cy="-356.4906" rx="3.2" ry="3.2"/>
</g>
<!-- movement&#45;&gt;accompanied_by -->
<g id="edge9" class="edge">
<title>movement:w&#45;&gt;accompanied_by:e</title>
<path fill="none" stroke="#000000" d="M620.0264,-345.6898C609.8582,-338.2146 608.5423,-321.9791 593,-311.7 428.8917,-203.1644 385.7524,-130.7 189,-130.7"/>
<polygon fill="#000000" stroke="#000000" points="626.3104,-347.4932 633.0069,-353.1603 630.1552,-348.5966 634,-349.7 634,-349.7 634,-349.7 630.1552,-348.5966 634.9931,-346.2397 626.3104,-347.4932 626.3104,-347.4932"/>
<ellipse fill="none" stroke="#000000" cx="623.2345" cy="-346.6105" rx="3.2" ry="3.2"/>
</g>
<!-- occurrence -->
<g id="node10" class="node">
<title>occurrence</title>
<g id="a_node10"><a xlink:href="../../tables/occurrence.html" xlink:title="occurrence" target="_top">
<polygon fill="#ffffff" stroke="transparent" points="370.5,-322.2 370.5,-383.2 483.5,-383.2 483.5,-322.2 370.5,-322.2"/>
<polygon fill="#f5f5f5" stroke="transparent" points="371,-359.7 371,-382.7 484,-382.7 484,-359.7 371,-359.7"/>
<polygon fill="none" stroke="#000000" points="371,-359.7 371,-382.7 484,-382.7 484,-359.7 371,-359.7"/>
<text text-anchor="start" x="376" y="-368.3" font-family="Helvetica,sans-Serif" font-weight="bold" font-size="11.00" fill="#000000">occurrence</text>
<text text-anchor="start" x="449.5219" y="-367.8" font-family="Helvetica,sans-Serif" font-size="11.00" fill="#000000">[table]</text>
<polygon fill="none" stroke="#000000" points="371,-340.7 371,-359.7 484,-359.7 484,-340.7 371,-340.7"/>
<text text-anchor="start" x="374" y="-346.8" font-family="Helvetica,sans-Serif" font-size="11.00" fill="#000000">...</text>
<polygon fill="#ffffff" stroke="transparent" points="371,-321.7 371,-340.7 421,-340.7 421,-321.7 371,-321.7"/>
<polygon fill="none" stroke="#000000" points="371,-321.7 371,-340.7 421,-340.7 421,-321.7 371,-321.7"/>
<text text-anchor="start" x="374" y="-327.8" font-family="Helvetica,sans-Serif" font-size="11.00" fill="#000000">&lt; 7</text>
<polygon fill="#ffffff" stroke="transparent" points="421,-321.7 421,-340.7 448,-340.7 448,-321.7 421,-321.7"/>
<polygon fill="none" stroke="#000000" points="421,-321.7 421,-340.7 448,-340.7 448,-321.7 421,-321.7"/>
<text text-anchor="start" x="438.8862" y="-327.8" font-family="Helvetica,sans-Serif" font-size="11.00" fill="#000000"> &#160;</text>
<polygon fill="#ffffff" stroke="transparent" points="448,-321.7 448,-340.7 484,-340.7 484,-321.7 448,-321.7"/>
<polygon fill="none" stroke="#000000" points="448,-321.7 448,-340.7 484,-340.7 484,-321.7 448,-321.7"/>
<text text-anchor="start" x="465.4053" y="-327.8" font-family="Helvetica,sans-Serif" font-size="11.00" fill="#000000">1 &gt;</text>
</a>
</g>
</g>
<!-- movement&#45;&gt;occurrence -->
<g id="edge10" class="edge">
<title>movement:w&#45;&gt;occurrence:e</title>
<path fill="none" stroke="#000000" d="M619.5918,-349.7C564.5042,-349.7 545.5885,-349.7 484,-349.7"/>
<polygon fill="#000000" stroke="#000000" points="626,-349.7001 634,-353.3 630,-349.7 634,-349.7 634,-349.7 634,-349.7 630,-349.7 634,-346.1 626,-349.7001 626,-349.7001"/>
<ellipse fill="none" stroke="#000000" cx="622.8" cy="-349.7001" rx="3.2" ry="3.2"/>
</g>
<!-- occurrence&#45;&gt;absence_reason_category -->
<g id="edge11" class="edge">
<title>occurrence:w&#45;&gt;absence_reason_category:e</title>
<path fill="none" stroke="#000000" d="M356.3712,-350.2403C315.551,-353.4651 302.1424,-370.8407 261,-394.7 241.0038,-406.2962 243.1154,-426.7 220,-426.7"/>
<polygon fill="#000000" stroke="#000000" points="363.0055,-349.9953 371.1329,-353.2975 367.0027,-349.8477 371,-349.7 371,-349.7 371,-349.7 367.0027,-349.8477 370.8671,-346.1025 363.0055,-349.9953 363.0055,-349.9953"/>
<ellipse fill="none" stroke="#000000" cx="359.8076" cy="-350.1135" rx="3.2" ry="3.2"/>
</g>
<!-- occurrence&#45;&gt;absence_reason -->
<g id="edge12" class="edge">
<title>occurrence:w&#45;&gt;absence_reason:e</title>
<path fill="none" stroke="#000000" d="M356.5476,-349.8012C313.1837,-350.5425 289.3478,-356.2548 261,-394.7 197.4703,-480.8588 294.0484,-870.7 187,-870.7"/>
<polygon fill="#000000" stroke="#000000" points="363.0002,-349.7561 371.0252,-353.2999 367.0001,-349.728 371,-349.7 371,-349.7 371,-349.7 367.0001,-349.728 370.9748,-346.1001 363.0002,-349.7561 363.0002,-349.7561"/>
<ellipse fill="none" stroke="#000000" cx="359.8003" cy="-349.7785" rx="3.2" ry="3.2"/>
</g>
<!-- occurrence&#45;&gt;absence_sub_type -->
<g id="edge13" class="edge">
<title>occurrence:w&#45;&gt;absence_sub_type:e</title>
<path fill="none" stroke="#000000" d="M356.4039,-349.9218C314.0162,-351.3571 294.0759,-360.3814 261,-394.7 201.8697,-456.0519 280.2082,-574.7 195,-574.7"/>
<polygon fill="#000000" stroke="#000000" points="363.0009,-349.8216 371.0547,-353.2996 367.0005,-349.7608 371,-349.7 371,-349.7 371,-349.7 367.0005,-349.7608 370.9453,-346.1004 363.0009,-349.8216 363.0009,-349.8216"/>
<ellipse fill="none" stroke="#000000" cx="359.8013" cy="-349.8702" rx="3.2" ry="3.2"/>
</g>
<!-- occurrence&#45;&gt;absence_type -->
<g id="edge14" class="edge">
<title>occurrence:w&#45;&gt;absence_type:e</title>
<path fill="none" stroke="#000000" d="M356.5776,-349.824C313.3926,-350.7012 290.4391,-357.0839 261,-394.7 168.8363,-512.463 335.5402,-722.7 186,-722.7"/>
<polygon fill="#000000" stroke="#000000" points="363.0003,-349.7688 371.031,-353.2999 367.0001,-349.7344 371,-349.7 371,-349.7 371,-349.7 367.0001,-349.7344 370.969,-346.1001 363.0003,-349.7688 363.0003,-349.7688"/>
<ellipse fill="none" stroke="#000000" cx="359.8004" cy="-349.7964" rx="3.2" ry="3.2"/>
</g>
<!-- occurrence&#45;&gt;accompanied_by -->
<g id="edge15" class="edge">
<title>occurrence:w&#45;&gt;accompanied_by:e</title>
<path fill="none" stroke="#000000" d="M356.3787,-348.9556C272.548,-339.9561 285.6991,-251.0671 228,-175.7 211.9118,-154.6854 215.4659,-130.7 189,-130.7"/>
<polygon fill="#000000" stroke="#000000" points="363.0103,-349.2932 370.8169,-353.2953 367.0052,-349.4966 371,-349.7 371,-349.7 371,-349.7 367.0052,-349.4966 371.1831,-346.1047 363.0103,-349.2932 363.0103,-349.2932"/>
<ellipse fill="none" stroke="#000000" cx="359.8145" cy="-349.1304" rx="3.2" ry="3.2"/>
</g>
<!-- occurrence&#45;&gt;transport -->
<g id="edge16" class="edge">
<title>occurrence:w&#45;&gt;transport:e</title>
<path fill="none" stroke="#000000" d="M356.303,-348.9973C281.6201,-341.6234 268.9092,-278.7 186,-278.7"/>
<polygon fill="#000000" stroke="#000000" points="363.0091,-349.3179 370.828,-353.2959 367.0046,-349.5089 371,-349.7 371,-349.7 371,-349.7 367.0046,-349.5089 371.172,-346.1041 363.0091,-349.3179 363.0091,-349.3179"/>
<ellipse fill="none" stroke="#000000" cx="359.8128" cy="-349.165" rx="3.2" ry="3.2"/>
</g>
</g>
</svg>
