<?xml version="1.0" encoding="UTF-8" standalone="no"?>
<!DOCTYPE svg PUBLIC "-//W3C//DTD SVG 1.1//EN"
 "http://www.w3.org/Graphics/SVG/1.1/DTD/svg11.dtd">
<!-- Generated by graphviz version 2.40.1 (20161225.0304)
 -->
<!-- Title: oneDegreeRelationshipsDiagram Pages: 1 -->
<svg width="601pt" height="1065pt"
 viewBox="0.00 0.00 601.00 1065.20" xmlns="http://www.w3.org/2000/svg" xmlns:xlink="http://www.w3.org/1999/xlink">
<g id="graph0" class="graph" transform="scale(1 1) rotate(0) translate(4 1061.2)">
<title>oneDegreeRelationshipsDiagram</title>
<polygon fill="#ffffff" stroke="transparent" points="-4,4 -4,-1061.2 597,-1061.2 597,4 -4,4"/>
<text text-anchor="middle" x="72.4936" y="-7.3" font-family="Helvetica,sans-Serif" font-size="11.00" fill="#000000">Generated by SchemaSpy</text>
<!-- authorisation -->
<g id="node1" class="node">
<title>authorisation</title>
<g id="a_node1"><a xlink:href="../../tables/authorisation.html" xlink:title="authorisation" target="_top">
<polygon fill="#ffffff" stroke="transparent" points="269,-322.7 269,-764.7 585,-764.7 585,-322.7 269,-322.7"/>
<polygon fill="#f5f5f5" stroke="transparent" points="271,-739.7 271,-762.7 583,-762.7 583,-739.7 271,-739.7"/>
<polygon fill="none" stroke="#000000" points="271,-739.7 271,-762.7 583,-762.7 583,-739.7 271,-739.7"/>
<text text-anchor="start" x="276" y="-748.3" font-family="Helvetica,sans-Serif" font-weight="bold" font-size="11.00" fill="#000000">authorisation</text>
<text text-anchor="start" x="548.0437" y="-747.8" font-family="Helvetica,sans-Serif" font-size="11.00" fill="#000000">[table]</text>
<polygon fill="none" stroke="#000000" points="271,-717.7 271,-739.7 484,-739.7 484,-717.7 271,-717.7"/>
<image xlink:href="../../images/primaryKeys.png" width="11px" height="12px" preserveAspectRatio="xMinYMin meet" x="276" y="-734.7"/>
<text text-anchor="start" x="291" y="-724.8" font-family="Helvetica,sans-Serif" font-size="11.00" fill="#000000">id</text>
<polygon fill="none" stroke="#000000" points="484,-717.7 484,-739.7 583,-739.7 583,-717.7 484,-717.7"/>
<text text-anchor="start" x="487" y="-725.4" font-family="Helvetica,sans-Serif" font-size="11.00" fill="#000000">uuid[2147483647]</text>
<polygon fill="none" stroke="#000000" points="271,-695.7 271,-717.7 484,-717.7 484,-695.7 271,-695.7"/>
<text text-anchor="start" x="291" y="-702.8" font-family="Helvetica,sans-Serif" font-size="11.00" fill="#000000">version</text>
<polygon fill="none" stroke="#000000" points="484,-695.7 484,-717.7 583,-717.7 583,-695.7 484,-695.7"/>
<text text-anchor="start" x="487" y="-703.4" font-family="Helvetica,sans-Serif" font-size="11.00" fill="#000000">int4[10]</text>
<polygon fill="#ffffff" stroke="transparent" points="271,-673.7 271,-695.7 484,-695.7 484,-673.7 271,-673.7"/>
<polygon fill="none" stroke="#000000" points="271,-673.7 271,-695.7 484,-695.7 484,-673.7 271,-673.7"/>
<text text-anchor="start" x="291" y="-680.8" font-family="Helvetica,sans-Serif" font-size="11.00" fill="#000000">person_identifier</text>
<polygon fill="none" stroke="#000000" points="484,-673.7 484,-695.7 583,-695.7 583,-673.7 484,-673.7"/>
<text text-anchor="start" x="487" y="-681.4" font-family="Helvetica,sans-Serif" font-size="11.00" fill="#000000">varchar[10]</text>
<polygon fill="#ffffff" stroke="transparent" points="271,-651.7 271,-673.7 484,-673.7 484,-651.7 271,-651.7"/>
<polygon fill="none" stroke="#000000" points="271,-651.7 271,-673.7 484,-673.7 484,-651.7 271,-651.7"/>
<text text-anchor="start" x="291" y="-658.8" font-family="Helvetica,sans-Serif" font-size="11.00" fill="#000000">prison_code</text>
<polygon fill="none" stroke="#000000" points="484,-651.7 484,-673.7 583,-673.7 583,-651.7 484,-651.7"/>
<text text-anchor="start" x="487" y="-659.4" font-family="Helvetica,sans-Serif" font-size="11.00" fill="#000000">varchar[6]</text>
<polygon fill="#ffffff" stroke="transparent" points="271,-629.7 271,-651.7 484,-651.7 484,-629.7 271,-629.7"/>
<polygon fill="none" stroke="#000000" points="271,-629.7 271,-651.7 484,-651.7 484,-629.7 271,-629.7"/>
<image xlink:href="../../images/foreignKeys.png" width="11px" height="12px" preserveAspectRatio="xMinYMin meet" x="276" y="-646.7"/>
<text text-anchor="start" x="291" y="-636.8" font-family="Helvetica,sans-Serif" font-size="11.00" fill="#000000">status_id</text>
<polygon fill="none" stroke="#000000" points="484,-629.7 484,-651.7 583,-651.7 583,-629.7 484,-629.7"/>
<text text-anchor="start" x="487" y="-637.4" font-family="Helvetica,sans-Serif" font-size="11.00" fill="#000000">uuid[2147483647]</text>
<polygon fill="none" stroke="#000000" points="271,-607.7 271,-629.7 484,-629.7 484,-607.7 271,-607.7"/>
<image xlink:href="../../images/foreignKeys.png" width="11px" height="12px" preserveAspectRatio="xMinYMin meet" x="276" y="-624.7"/>
<text text-anchor="start" x="291" y="-614.8" font-family="Helvetica,sans-Serif" font-size="11.00" fill="#000000">absence_type_id</text>
<polygon fill="none" stroke="#000000" points="484,-607.7 484,-629.7 583,-629.7 583,-607.7 484,-607.7"/>
<text text-anchor="start" x="487" y="-615.4" font-family="Helvetica,sans-Serif" font-size="11.00" fill="#000000">uuid[2147483647]</text>
<polygon fill="none" stroke="#000000" points="271,-585.7 271,-607.7 484,-607.7 484,-585.7 271,-585.7"/>
<image xlink:href="../../images/foreignKeys.png" width="11px" height="12px" preserveAspectRatio="xMinYMin meet" x="276" y="-602.7"/>
<text text-anchor="start" x="291" y="-592.8" font-family="Helvetica,sans-Serif" font-size="11.00" fill="#000000">absence_sub_type_id</text>
<polygon fill="none" stroke="#000000" points="484,-585.7 484,-607.7 583,-607.7 583,-585.7 484,-585.7"/>
<text text-anchor="start" x="487" y="-593.4" font-family="Helvetica,sans-Serif" font-size="11.00" fill="#000000">uuid[2147483647]</text>
<polygon fill="none" stroke="#000000" points="271,-563.7 271,-585.7 484,-585.7 484,-563.7 271,-563.7"/>
<image xlink:href="../../images/foreignKeys.png" width="11px" height="12px" preserveAspectRatio="xMinYMin meet" x="276" y="-580.7"/>
<text text-anchor="start" x="291" y="-570.8" font-family="Helvetica,sans-Serif" font-size="11.00" fill="#000000">absence_reason_category_id</text>
<polygon fill="none" stroke="#000000" points="484,-563.7 484,-585.7 583,-585.7 583,-563.7 484,-563.7"/>
<text text-anchor="start" x="487" y="-571.4" font-family="Helvetica,sans-Serif" font-size="11.00" fill="#000000">uuid[2147483647]</text>
<polygon fill="none" stroke="#000000" points="271,-541.7 271,-563.7 484,-563.7 484,-541.7 271,-541.7"/>
<image xlink:href="../../images/foreignKeys.png" width="11px" height="12px" preserveAspectRatio="xMinYMin meet" x="276" y="-558.7"/>
<text text-anchor="start" x="291" y="-548.8" font-family="Helvetica,sans-Serif" font-size="11.00" fill="#000000">absence_reason_id</text>
<polygon fill="none" stroke="#000000" points="484,-541.7 484,-563.7 583,-563.7 583,-541.7 484,-541.7"/>
<text text-anchor="start" x="487" y="-549.4" font-family="Helvetica,sans-Serif" font-size="11.00" fill="#000000">uuid[2147483647]</text>
<polygon fill="none" stroke="#000000" points="271,-519.7 271,-541.7 484,-541.7 484,-519.7 271,-519.7"/>
<image xlink:href="../../images/foreignKeys.png" width="11px" height="12px" preserveAspectRatio="xMinYMin meet" x="276" y="-536.7"/>
<text text-anchor="start" x="291" y="-526.8" font-family="Helvetica,sans-Serif" font-size="11.00" fill="#000000">accompanied_by_id</text>
<polygon fill="none" stroke="#000000" points="484,-519.7 484,-541.7 583,-541.7 583,-519.7 484,-519.7"/>
<text text-anchor="start" x="487" y="-527.4" font-family="Helvetica,sans-Serif" font-size="11.00" fill="#000000">uuid[2147483647]</text>
<polygon fill="none" stroke="#000000" points="271,-497.7 271,-519.7 484,-519.7 484,-497.7 271,-497.7"/>
<image xlink:href="../../images/foreignKeys.png" width="11px" height="12px" preserveAspectRatio="xMinYMin meet" x="276" y="-514.7"/>
<text text-anchor="start" x="291" y="-504.8" font-family="Helvetica,sans-Serif" font-size="11.00" fill="#000000">transport_id</text>
<polygon fill="none" stroke="#000000" points="484,-497.7 484,-519.7 583,-519.7 583,-497.7 484,-497.7"/>
<text text-anchor="start" x="487" y="-505.4" font-family="Helvetica,sans-Serif" font-size="11.00" fill="#000000">uuid[2147483647]</text>
<polygon fill="none" stroke="#000000" points="271,-475.7 271,-497.7 484,-497.7 484,-475.7 271,-475.7"/>
<text text-anchor="start" x="291" y="-482.8" font-family="Helvetica,sans-Serif" font-size="11.00" fill="#000000">repeat</text>
<polygon fill="none" stroke="#000000" points="484,-475.7 484,-497.7 583,-497.7 583,-475.7 484,-475.7"/>
<text text-anchor="start" x="487" y="-483.4" font-family="Helvetica,sans-Serif" font-size="11.00" fill="#000000">bool[1]</text>
<polygon fill="none" stroke="#000000" points="271,-453.7 271,-475.7 484,-475.7 484,-453.7 271,-453.7"/>
<text text-anchor="start" x="291" y="-460.8" font-family="Helvetica,sans-Serif" font-size="11.00" fill="#000000">comments</text>
<polygon fill="none" stroke="#000000" points="484,-453.7 484,-475.7 583,-475.7 583,-453.7 484,-453.7"/>
<text text-anchor="start" x="487" y="-461.4" font-family="Helvetica,sans-Serif" font-size="11.00" fill="#000000">text[2147483647]</text>
<polygon fill="#ffffff" stroke="transparent" points="271,-431.7 271,-453.7 484,-453.7 484,-431.7 271,-431.7"/>
<polygon fill="none" stroke="#000000" points="271,-431.7 271,-453.7 484,-453.7 484,-431.7 271,-431.7"/>
<text text-anchor="start" x="291" y="-438.8" font-family="Helvetica,sans-Serif" font-size="11.00" fill="#000000">start</text>
<polygon fill="none" stroke="#000000" points="484,-431.7 484,-453.7 583,-453.7 583,-431.7 484,-431.7"/>
<text text-anchor="start" x="487" y="-439.4" font-family="Helvetica,sans-Serif" font-size="11.00" fill="#000000">date[13]</text>
<polygon fill="#ffffff" stroke="transparent" points="271,-409.7 271,-431.7 484,-431.7 484,-409.7 271,-409.7"/>
<polygon fill="none" stroke="#000000" points="271,-409.7 271,-431.7 484,-431.7 484,-409.7 271,-409.7"/>
<text text-anchor="start" x="291" y="-416.8" font-family="Helvetica,sans-Serif" font-size="11.00" fill="#000000">end</text>
<polygon fill="none" stroke="#000000" points="484,-409.7 484,-431.7 583,-431.7 583,-409.7 484,-409.7"/>
<text text-anchor="start" x="487" y="-417.4" font-family="Helvetica,sans-Serif" font-size="11.00" fill="#000000">date[13]</text>
<polygon fill="none" stroke="#000000" points="271,-387.7 271,-409.7 484,-409.7 484,-387.7 271,-387.7"/>
<text text-anchor="start" x="291" y="-394.8" font-family="Helvetica,sans-Serif" font-size="11.00" fill="#000000">reason_path</text>
<polygon fill="none" stroke="#000000" points="484,-387.7 484,-409.7 583,-409.7 583,-387.7 484,-387.7"/>
<text text-anchor="start" x="486.7258" y="-395.4" font-family="Helvetica,sans-Serif" font-size="11.00" fill="#000000">jsonb[2147483647]</text>
<polygon fill="none" stroke="#000000" points="271,-365.7 271,-387.7 484,-387.7 484,-365.7 271,-365.7"/>
<text text-anchor="start" x="291" y="-372.8" font-family="Helvetica,sans-Serif" font-size="11.00" fill="#000000">schedule</text>
<polygon fill="none" stroke="#000000" points="484,-365.7 484,-387.7 583,-387.7 583,-365.7 484,-365.7"/>
<text text-anchor="start" x="486.7258" y="-373.4" font-family="Helvetica,sans-Serif" font-size="11.00" fill="#000000">jsonb[2147483647]</text>
<polygon fill="#ffffff" stroke="transparent" points="271,-343.7 271,-365.7 484,-365.7 484,-343.7 271,-343.7"/>
<polygon fill="none" stroke="#000000" points="271,-343.7 271,-365.7 484,-365.7 484,-343.7 271,-343.7"/>
<text text-anchor="start" x="291" y="-350.8" font-family="Helvetica,sans-Serif" font-size="11.00" fill="#000000">legacy_id</text>
<polygon fill="none" stroke="#000000" points="484,-343.7 484,-365.7 583,-365.7 583,-343.7 484,-343.7"/>
<text text-anchor="start" x="487" y="-351.4" font-family="Helvetica,sans-Serif" font-size="11.00" fill="#000000">int8[19]</text>
<polygon fill="#ffffff" stroke="transparent" points="271,-324.7 271,-343.7 382,-343.7 382,-324.7 271,-324.7"/>
<polygon fill="none" stroke="#000000" points="271,-324.7 271,-343.7 382,-343.7 382,-324.7 271,-324.7"/>
<text text-anchor="start" x="274" y="-330.8" font-family="Helvetica,sans-Serif" font-size="11.00" fill="#000000">&lt; 7</text>
<polygon fill="#ffffff" stroke="transparent" points="382,-324.7 382,-343.7 484,-343.7 484,-324.7 382,-324.7"/>
<polygon fill="none" stroke="#000000" points="382,-324.7 382,-343.7 484,-343.7 484,-324.7 382,-324.7"/>
<text text-anchor="start" x="474.8862" y="-330.8" font-family="Helvetica,sans-Serif" font-size="11.00" fill="#000000"> &#160;</text>
<polygon fill="#ffffff" stroke="transparent" points="484,-324.7 484,-343.7 583,-343.7 583,-324.7 484,-324.7"/>
<polygon fill="none" stroke="#000000" points="484,-324.7 484,-343.7 583,-343.7 583,-324.7 484,-324.7"/>
<text text-anchor="start" x="564.4053" y="-330.8" font-family="Helvetica,sans-Serif" font-size="11.00" fill="#000000">0 &gt;</text>
<polygon fill="none" stroke="#000000" stroke-width="2" points="270,-323.7 270,-763.7 584,-763.7 584,-323.7 270,-323.7"/>
</a>
</g>
</g>
<!-- absence_reason_category -->
<g id="node2" class="node">
<title>absence_reason_category</title>
<g id="a_node2"><a xlink:href="../../tables/absence_reason_category.html" xlink:title="absence_reason_category" target="_top">
<polygon fill="#ffffff" stroke="transparent" points="8,-482.2 8,-609.2 220,-609.2 220,-482.2 8,-482.2"/>
<polygon fill="#f5f5f5" stroke="transparent" points="8,-585.7 8,-608.7 220,-608.7 220,-585.7 8,-585.7"/>
<polygon fill="none" stroke="#000000" points="8,-585.7 8,-608.7 220,-608.7 220,-585.7 8,-585.7"/>
<text text-anchor="start" x="13" y="-594.3" font-family="Helvetica,sans-Serif" font-weight="bold" font-size="11.00" fill="#000000">absence_reason_category</text>
<text text-anchor="start" x="185.5219" y="-593.8" font-family="Helvetica,sans-Serif" font-size="11.00" fill="#000000">[table]</text>
<polygon fill="none" stroke="#000000" points="8,-563.7 8,-585.7 220,-585.7 220,-563.7 8,-563.7"/>
<image xlink:href="../../images/primaryKeys.png" width="11px" height="12px" preserveAspectRatio="xMinYMin meet" x="13" y="-580.7"/>
<text text-anchor="start" x="37" y="-570.8" font-family="Helvetica,sans-Serif" font-size="11.00" fill="#000000">id</text>
<polygon fill="#ffffff" stroke="transparent" points="8,-541.7 8,-563.7 220,-563.7 220,-541.7 8,-541.7"/>
<polygon fill="none" stroke="#000000" points="8,-541.7 8,-563.7 220,-563.7 220,-541.7 8,-541.7"/>
<text text-anchor="start" x="37" y="-548.8" font-family="Helvetica,sans-Serif" font-size="11.00" fill="#000000">code</text>
<polygon fill="#ffffff" stroke="transparent" points="8,-519.7 8,-541.7 220,-541.7 220,-519.7 8,-519.7"/>
<polygon fill="none" stroke="#000000" points="8,-519.7 8,-541.7 220,-541.7 220,-519.7 8,-519.7"/>
<text text-anchor="start" x="37" y="-526.8" font-family="Helvetica,sans-Serif" font-size="11.00" fill="#000000">sequence_number</text>
<polygon fill="none" stroke="#000000" points="8,-500.7 8,-519.7 220,-519.7 220,-500.7 8,-500.7"/>
<text text-anchor="start" x="11" y="-506.8" font-family="Helvetica,sans-Serif" font-size="11.00" fill="#000000">...</text>
<polygon fill="#ffffff" stroke="transparent" points="8,-481.7 8,-500.7 103,-500.7 103,-481.7 8,-481.7"/>
<polygon fill="none" stroke="#000000" points="8,-481.7 8,-500.7 103,-500.7 103,-481.7 8,-481.7"/>
<text text-anchor="start" x="11" y="-487.8" font-family="Helvetica,sans-Serif" font-size="11.00" fill="#000000"> &#160;</text>
<polygon fill="#ffffff" stroke="transparent" points="103,-481.7 103,-500.7 157,-500.7 157,-481.7 103,-481.7"/>
<polygon fill="none" stroke="#000000" points="103,-481.7 103,-500.7 157,-500.7 157,-481.7 103,-481.7"/>
<text text-anchor="start" x="147.8862" y="-487.8" font-family="Helvetica,sans-Serif" font-size="11.00" fill="#000000"> &#160;</text>
<polygon fill="#ffffff" stroke="transparent" points="157,-481.7 157,-500.7 220,-500.7 220,-481.7 157,-481.7"/>
<polygon fill="none" stroke="#000000" points="157,-481.7 157,-500.7 220,-500.7 220,-481.7 157,-481.7"/>
<text text-anchor="start" x="201.4053" y="-487.8" font-family="Helvetica,sans-Serif" font-size="11.00" fill="#000000">2 &gt;</text>
</a>
</g>
</g>
<!-- authorisation&#45;&gt;absence_reason_category -->
<g id="edge1" class="edge">
<title>authorisation:w&#45;&gt;absence_reason_category:e</title>
<path fill="none" stroke="#000000" d="M256.276,-574.7C244.2815,-574.7 236.8229,-574.7 220,-574.7"/>
<polygon fill="#000000" stroke="#000000" points="263,-574.7001 271,-578.3 267,-574.7 271,-574.7 271,-574.7 271,-574.7 267,-574.7 271,-571.1 263,-574.7001 263,-574.7001"/>
<ellipse fill="none" stroke="#000000" cx="259.8" cy="-574.7001" rx="3.2" ry="3.2"/>
</g>
<!-- absence_reason -->
<g id="node3" class="node">
<title>absence_reason</title>
<g id="a_node3"><a xlink:href="../../tables/absence_reason.html" xlink:title="absence_reason" target="_top">
<polygon fill="#ffffff" stroke="transparent" points="41,-334.2 41,-461.2 187,-461.2 187,-334.2 41,-334.2"/>
<polygon fill="#f5f5f5" stroke="transparent" points="41,-437.7 41,-460.7 187,-460.7 187,-437.7 41,-437.7"/>
<polygon fill="none" stroke="#000000" points="41,-437.7 41,-460.7 187,-460.7 187,-437.7 41,-437.7"/>
<text text-anchor="start" x="46" y="-446.3" font-family="Helvetica,sans-Serif" font-weight="bold" font-size="11.00" fill="#000000">absence_reason</text>
<text text-anchor="start" x="152.5219" y="-445.8" font-family="Helvetica,sans-Serif" font-size="11.00" fill="#000000">[table]</text>
<polygon fill="none" stroke="#000000" points="41,-415.7 41,-437.7 187,-437.7 187,-415.7 41,-415.7"/>
<image xlink:href="../../images/primaryKeys.png" width="11px" height="12px" preserveAspectRatio="xMinYMin meet" x="46" y="-432.7"/>
<text text-anchor="start" x="63" y="-422.8" font-family="Helvetica,sans-Serif" font-size="11.00" fill="#000000">id</text>
<polygon fill="#ffffff" stroke="transparent" points="41,-393.7 41,-415.7 187,-415.7 187,-393.7 41,-393.7"/>
<polygon fill="none" stroke="#000000" points="41,-393.7 41,-415.7 187,-415.7 187,-393.7 41,-393.7"/>
<text text-anchor="start" x="63" y="-400.8" font-family="Helvetica,sans-Serif" font-size="11.00" fill="#000000">code</text>
<polygon fill="#ffffff" stroke="transparent" points="41,-371.7 41,-393.7 187,-393.7 187,-371.7 41,-371.7"/>
<polygon fill="none" stroke="#000000" points="41,-371.7 41,-393.7 187,-393.7 187,-371.7 41,-371.7"/>
<text text-anchor="start" x="63" y="-378.8" font-family="Helvetica,sans-Serif" font-size="11.00" fill="#000000">sequence_number</text>
<polygon fill="none" stroke="#000000" points="41,-352.7 41,-371.7 187,-371.7 187,-352.7 41,-352.7"/>
<text text-anchor="start" x="44" y="-358.8" font-family="Helvetica,sans-Serif" font-size="11.00" fill="#000000">...</text>
<polygon fill="#ffffff" stroke="transparent" points="41,-333.7 41,-352.7 87,-352.7 87,-333.7 41,-333.7"/>
<polygon fill="none" stroke="#000000" points="41,-333.7 41,-352.7 87,-352.7 87,-333.7 41,-333.7"/>
<text text-anchor="start" x="44" y="-339.8" font-family="Helvetica,sans-Serif" font-size="11.00" fill="#000000"> &#160;</text>
<polygon fill="#ffffff" stroke="transparent" points="87,-333.7 87,-352.7 148,-352.7 148,-333.7 87,-333.7"/>
<polygon fill="none" stroke="#000000" points="87,-333.7 87,-352.7 148,-352.7 148,-333.7 87,-333.7"/>
<text text-anchor="start" x="106.4956" y="-339.8" font-family="Helvetica,sans-Serif" font-size="11.00" fill="#000000">98 rows</text>
<polygon fill="#ffffff" stroke="transparent" points="148,-333.7 148,-352.7 187,-352.7 187,-333.7 148,-333.7"/>
<polygon fill="none" stroke="#000000" points="148,-333.7 148,-352.7 187,-352.7 187,-333.7 148,-333.7"/>
<text text-anchor="start" x="168.4053" y="-339.8" font-family="Helvetica,sans-Serif" font-size="11.00" fill="#000000">3 &gt;</text>
</a>
</g>
</g>
<!-- authorisation&#45;&gt;absence_reason -->
<g id="edge2" class="edge">
<title>authorisation:w&#45;&gt;absence_reason:e</title>
<path fill="none" stroke="#000000" d="M256.598,-549.7516C235.5578,-538.8629 247.982,-500.0792 228,-471.7 212.4233,-449.5773 214.0564,-426.7 187,-426.7"/>
<polygon fill="#000000" stroke="#000000" points="263.1626,-551.0954 270.2779,-556.2268 267.0813,-551.8977 271,-552.7 271,-552.7 271,-552.7 267.0813,-551.8977 271.7221,-549.1732 263.1626,-551.0954 263.1626,-551.0954"/>
<ellipse fill="none" stroke="#000000" cx="260.0276" cy="-550.4536" rx="3.2" ry="3.2"/>
</g>
<!-- absence_sub_type -->
<g id="node4" class="node">
<title>absence_sub_type</title>
<g id="a_node4"><a xlink:href="../../tables/absence_sub_type.html" xlink:title="absence_sub_type" target="_top">
<polygon fill="#ffffff" stroke="transparent" points="33.5,-630.2 33.5,-757.2 194.5,-757.2 194.5,-630.2 33.5,-630.2"/>
<polygon fill="#f5f5f5" stroke="transparent" points="34,-733.7 34,-756.7 195,-756.7 195,-733.7 34,-733.7"/>
<polygon fill="none" stroke="#000000" points="34,-733.7 34,-756.7 195,-756.7 195,-733.7 34,-733.7"/>
<text text-anchor="start" x="39" y="-742.3" font-family="Helvetica,sans-Serif" font-weight="bold" font-size="11.00" fill="#000000">absence_sub_type</text>
<text text-anchor="start" x="160.5219" y="-741.8" font-family="Helvetica,sans-Serif" font-size="11.00" fill="#000000">[table]</text>
<polygon fill="none" stroke="#000000" points="34,-711.7 34,-733.7 195,-733.7 195,-711.7 34,-711.7"/>
<image xlink:href="../../images/primaryKeys.png" width="11px" height="12px" preserveAspectRatio="xMinYMin meet" x="39" y="-728.7"/>
<text text-anchor="start" x="63" y="-718.8" font-family="Helvetica,sans-Serif" font-size="11.00" fill="#000000">id</text>
<polygon fill="#ffffff" stroke="transparent" points="34,-689.7 34,-711.7 195,-711.7 195,-689.7 34,-689.7"/>
<polygon fill="none" stroke="#000000" points="34,-689.7 34,-711.7 195,-711.7 195,-689.7 34,-689.7"/>
<text text-anchor="start" x="63" y="-696.8" font-family="Helvetica,sans-Serif" font-size="11.00" fill="#000000">code</text>
<polygon fill="#ffffff" stroke="transparent" points="34,-667.7 34,-689.7 195,-689.7 195,-667.7 34,-667.7"/>
<polygon fill="none" stroke="#000000" points="34,-667.7 34,-689.7 195,-689.7 195,-667.7 34,-667.7"/>
<text text-anchor="start" x="63" y="-674.8" font-family="Helvetica,sans-Serif" font-size="11.00" fill="#000000">sequence_number</text>
<polygon fill="none" stroke="#000000" points="34,-648.7 34,-667.7 195,-667.7 195,-648.7 34,-648.7"/>
<text text-anchor="start" x="37" y="-654.8" font-family="Helvetica,sans-Serif" font-size="11.00" fill="#000000">...</text>
<polygon fill="#ffffff" stroke="transparent" points="34,-629.7 34,-648.7 104,-648.7 104,-629.7 34,-629.7"/>
<polygon fill="none" stroke="#000000" points="34,-629.7 34,-648.7 104,-648.7 104,-629.7 34,-629.7"/>
<text text-anchor="start" x="37" y="-635.8" font-family="Helvetica,sans-Serif" font-size="11.00" fill="#000000"> &#160;</text>
<polygon fill="#ffffff" stroke="transparent" points="104,-629.7 104,-648.7 145,-648.7 145,-629.7 104,-629.7"/>
<polygon fill="none" stroke="#000000" points="104,-629.7 104,-648.7 145,-648.7 145,-629.7 104,-629.7"/>
<text text-anchor="start" x="135.8862" y="-635.8" font-family="Helvetica,sans-Serif" font-size="11.00" fill="#000000"> &#160;</text>
<polygon fill="#ffffff" stroke="transparent" points="145,-629.7 145,-648.7 195,-648.7 195,-629.7 145,-629.7"/>
<polygon fill="none" stroke="#000000" points="145,-629.7 145,-648.7 195,-648.7 195,-629.7 145,-629.7"/>
<text text-anchor="start" x="176.4053" y="-635.8" font-family="Helvetica,sans-Serif" font-size="11.00" fill="#000000">2 &gt;</text>
</a>
</g>
</g>
<!-- authorisation&#45;&gt;absence_sub_type -->
<g id="edge3" class="edge">
<title>authorisation:w&#45;&gt;absence_sub_type:e</title>
<path fill="none" stroke="#000000" d="M256.6499,-599.3317C214.1322,-617.4257 254.7781,-722.7 195,-722.7"/>
<polygon fill="#000000" stroke="#000000" points="263.1312,-598.1431 271.6494,-600.2409 267.0656,-597.4216 271,-596.7 271,-596.7 271,-596.7 267.0656,-597.4216 270.3506,-593.1591 263.1312,-598.1431 263.1312,-598.1431"/>
<ellipse fill="none" stroke="#000000" cx="259.9837" cy="-598.7204" rx="3.2" ry="3.2"/>
</g>
<!-- absence_type -->
<g id="node5" class="node">
<title>absence_type</title>
<g id="a_node5"><a xlink:href="../../tables/absence_type.html" xlink:title="absence_type" target="_top">
<polygon fill="#ffffff" stroke="transparent" points="42.5,-778.2 42.5,-905.2 185.5,-905.2 185.5,-778.2 42.5,-778.2"/>
<polygon fill="#f5f5f5" stroke="transparent" points="43,-881.7 43,-904.7 186,-904.7 186,-881.7 43,-881.7"/>
<polygon fill="none" stroke="#000000" points="43,-881.7 43,-904.7 186,-904.7 186,-881.7 43,-881.7"/>
<text text-anchor="start" x="48" y="-890.3" font-family="Helvetica,sans-Serif" font-weight="bold" font-size="11.00" fill="#000000">absence_type</text>
<text text-anchor="start" x="151.0437" y="-889.8" font-family="Helvetica,sans-Serif" font-size="11.00" fill="#000000">[table]</text>
<polygon fill="none" stroke="#000000" points="43,-859.7 43,-881.7 186,-881.7 186,-859.7 43,-859.7"/>
<image xlink:href="../../images/primaryKeys.png" width="11px" height="12px" preserveAspectRatio="xMinYMin meet" x="48" y="-876.7"/>
<text text-anchor="start" x="63" y="-866.8" font-family="Helvetica,sans-Serif" font-size="11.00" fill="#000000">id</text>
<polygon fill="#ffffff" stroke="transparent" points="43,-837.7 43,-859.7 186,-859.7 186,-837.7 43,-837.7"/>
<polygon fill="none" stroke="#000000" points="43,-837.7 43,-859.7 186,-859.7 186,-837.7 43,-837.7"/>
<text text-anchor="start" x="63" y="-844.8" font-family="Helvetica,sans-Serif" font-size="11.00" fill="#000000">code</text>
<polygon fill="#ffffff" stroke="transparent" points="43,-815.7 43,-837.7 186,-837.7 186,-815.7 43,-815.7"/>
<polygon fill="none" stroke="#000000" points="43,-815.7 43,-837.7 186,-837.7 186,-815.7 43,-815.7"/>
<text text-anchor="start" x="63" y="-822.8" font-family="Helvetica,sans-Serif" font-size="11.00" fill="#000000">sequence_number</text>
<polygon fill="none" stroke="#000000" points="43,-796.7 43,-815.7 186,-815.7 186,-796.7 43,-796.7"/>
<text text-anchor="start" x="46" y="-802.8" font-family="Helvetica,sans-Serif" font-size="11.00" fill="#000000">...</text>
<polygon fill="#ffffff" stroke="transparent" points="43,-777.7 43,-796.7 104,-796.7 104,-777.7 43,-777.7"/>
<polygon fill="none" stroke="#000000" points="43,-777.7 43,-796.7 104,-796.7 104,-777.7 43,-777.7"/>
<text text-anchor="start" x="46" y="-783.8" font-family="Helvetica,sans-Serif" font-size="11.00" fill="#000000"> &#160;</text>
<polygon fill="#ffffff" stroke="transparent" points="104,-777.7 104,-796.7 140,-796.7 140,-777.7 104,-777.7"/>
<polygon fill="none" stroke="#000000" points="104,-777.7 104,-796.7 140,-796.7 140,-777.7 104,-777.7"/>
<text text-anchor="start" x="130.8862" y="-783.8" font-family="Helvetica,sans-Serif" font-size="11.00" fill="#000000"> &#160;</text>
<polygon fill="#ffffff" stroke="transparent" points="140,-777.7 140,-796.7 186,-796.7 186,-777.7 140,-777.7"/>
<polygon fill="none" stroke="#000000" points="140,-777.7 140,-796.7 186,-796.7 186,-777.7 140,-777.7"/>
<text text-anchor="start" x="167.4053" y="-783.8" font-family="Helvetica,sans-Serif" font-size="11.00" fill="#000000">2 &gt;</text>
</a>
</g>
</g>
<!-- authorisation&#45;&gt;absence_type -->
<g id="edge4" class="edge">
<title>authorisation:w&#45;&gt;absence_type:e</title>
<path fill="none" stroke="#000000" d="M256.6045,-620.261C209.3907,-632.0145 248.7901,-707.8 228,-767.7 211.7899,-814.4042 235.4373,-870.7 186,-870.7"/>
<polygon fill="#000000" stroke="#000000" points="263.0466,-619.5625 271.3881,-622.279 267.0233,-619.1313 271,-618.7 271,-618.7 271,-618.7 267.0233,-619.1313 270.6119,-615.121 263.0466,-619.5625 263.0466,-619.5625"/>
<ellipse fill="none" stroke="#000000" cx="259.8653" cy="-619.9075" rx="3.2" ry="3.2"/>
</g>
<!-- accompanied_by -->
<g id="node6" class="node">
<title>accompanied_by</title>
<g id="a_node6"><a xlink:href="../../tables/accompanied_by.html" xlink:title="accompanied_by" target="_top">
<polygon fill="#ffffff" stroke="transparent" points="39,-186.2 39,-313.2 189,-313.2 189,-186.2 39,-186.2"/>
<polygon fill="#f5f5f5" stroke="transparent" points="39,-289.7 39,-312.7 189,-312.7 189,-289.7 39,-289.7"/>
<polygon fill="none" stroke="#000000" points="39,-289.7 39,-312.7 189,-312.7 189,-289.7 39,-289.7"/>
<text text-anchor="start" x="44" y="-298.3" font-family="Helvetica,sans-Serif" font-weight="bold" font-size="11.00" fill="#000000">accompanied_by</text>
<text text-anchor="start" x="154.5219" y="-297.8" font-family="Helvetica,sans-Serif" font-size="11.00" fill="#000000">[table]</text>
<polygon fill="none" stroke="#000000" points="39,-267.7 39,-289.7 189,-289.7 189,-267.7 39,-267.7"/>
<image xlink:href="../../images/primaryKeys.png" width="11px" height="12px" preserveAspectRatio="xMinYMin meet" x="44" y="-284.7"/>
<text text-anchor="start" x="63" y="-274.8" font-family="Helvetica,sans-Serif" font-size="11.00" fill="#000000">id</text>
<polygon fill="#ffffff" stroke="transparent" points="39,-245.7 39,-267.7 189,-267.7 189,-245.7 39,-245.7"/>
<polygon fill="none" stroke="#000000" points="39,-245.7 39,-267.7 189,-267.7 189,-245.7 39,-245.7"/>
<text text-anchor="start" x="63" y="-252.8" font-family="Helvetica,sans-Serif" font-size="11.00" fill="#000000">code</text>
<polygon fill="#ffffff" stroke="transparent" points="39,-223.7 39,-245.7 189,-245.7 189,-223.7 39,-223.7"/>
<polygon fill="none" stroke="#000000" points="39,-223.7 39,-245.7 189,-245.7 189,-223.7 39,-223.7"/>
<text text-anchor="start" x="63" y="-230.8" font-family="Helvetica,sans-Serif" font-size="11.00" fill="#000000">sequence_number</text>
<polygon fill="none" stroke="#000000" points="39,-204.7 39,-223.7 189,-223.7 189,-204.7 39,-204.7"/>
<text text-anchor="start" x="42" y="-210.8" font-family="Helvetica,sans-Serif" font-size="11.00" fill="#000000">...</text>
<polygon fill="#ffffff" stroke="transparent" points="39,-185.7 39,-204.7 103,-204.7 103,-185.7 39,-185.7"/>
<polygon fill="none" stroke="#000000" points="39,-185.7 39,-204.7 103,-204.7 103,-185.7 39,-185.7"/>
<text text-anchor="start" x="42" y="-191.8" font-family="Helvetica,sans-Serif" font-size="11.00" fill="#000000"> &#160;</text>
<polygon fill="#ffffff" stroke="transparent" points="103,-185.7 103,-204.7 141,-204.7 141,-185.7 103,-185.7"/>
<polygon fill="none" stroke="#000000" points="103,-185.7 103,-204.7 141,-204.7 141,-185.7 103,-185.7"/>
<text text-anchor="start" x="131.8862" y="-191.8" font-family="Helvetica,sans-Serif" font-size="11.00" fill="#000000"> &#160;</text>
<polygon fill="#ffffff" stroke="transparent" points="141,-185.7 141,-204.7 189,-204.7 189,-185.7 141,-185.7"/>
<polygon fill="none" stroke="#000000" points="141,-185.7 141,-204.7 189,-204.7 189,-185.7 141,-185.7"/>
<text text-anchor="start" x="170.4053" y="-191.8" font-family="Helvetica,sans-Serif" font-size="11.00" fill="#000000">3 &gt;</text>
</a>
</g>
</g>
<!-- authorisation&#45;&gt;accompanied_by -->
<g id="edge5" class="edge">
<title>authorisation:w&#45;&gt;accompanied_by:e</title>
<path fill="none" stroke="#000000" d="M257.6268,-524.7703C229.0547,-494.9176 246.4744,-361.0395 228,-323.7 216.2635,-299.9787 215.4659,-278.7 189,-278.7"/>
<polygon fill="#000000" stroke="#000000" points="263.6867,-527.4572 269.5407,-533.991 267.3433,-529.0786 271,-530.7 271,-530.7 271,-530.7 267.3433,-529.0786 272.4593,-527.409 263.6867,-527.4572 263.6867,-527.4572"/>
<ellipse fill="none" stroke="#000000" cx="260.7614" cy="-526.1601" rx="3.2" ry="3.2"/>
</g>
<!-- authorisation_status -->
<g id="node7" class="node">
<title>authorisation_status</title>
<g id="a_node7"><a xlink:href="../../tables/authorisation_status.html" xlink:title="authorisation_status" target="_top">
<polygon fill="#ffffff" stroke="transparent" points="25,-926.2 25,-1053.2 203,-1053.2 203,-926.2 25,-926.2"/>
<polygon fill="#f5f5f5" stroke="transparent" points="25,-1029.7 25,-1052.7 203,-1052.7 203,-1029.7 25,-1029.7"/>
<polygon fill="none" stroke="#000000" points="25,-1029.7 25,-1052.7 203,-1052.7 203,-1029.7 25,-1029.7"/>
<text text-anchor="start" x="30" y="-1038.3" font-family="Helvetica,sans-Serif" font-weight="bold" font-size="11.00" fill="#000000">authorisation_status</text>
<text text-anchor="start" x="168.5219" y="-1037.8" font-family="Helvetica,sans-Serif" font-size="11.00" fill="#000000">[table]</text>
<polygon fill="none" stroke="#000000" points="25,-1007.7 25,-1029.7 203,-1029.7 203,-1007.7 25,-1007.7"/>
<image xlink:href="../../images/primaryKeys.png" width="11px" height="12px" preserveAspectRatio="xMinYMin meet" x="30" y="-1024.7"/>
<text text-anchor="start" x="54" y="-1014.8" font-family="Helvetica,sans-Serif" font-size="11.00" fill="#000000">id</text>
<polygon fill="#ffffff" stroke="transparent" points="25,-985.7 25,-1007.7 203,-1007.7 203,-985.7 25,-985.7"/>
<polygon fill="none" stroke="#000000" points="25,-985.7 25,-1007.7 203,-1007.7 203,-985.7 25,-985.7"/>
<text text-anchor="start" x="54" y="-992.8" font-family="Helvetica,sans-Serif" font-size="11.00" fill="#000000">code</text>
<polygon fill="#ffffff" stroke="transparent" points="25,-963.7 25,-985.7 203,-985.7 203,-963.7 25,-963.7"/>
<polygon fill="none" stroke="#000000" points="25,-963.7 25,-985.7 203,-985.7 203,-963.7 25,-963.7"/>
<text text-anchor="start" x="54" y="-970.8" font-family="Helvetica,sans-Serif" font-size="11.00" fill="#000000">sequence_number</text>
<polygon fill="none" stroke="#000000" points="25,-944.7 25,-963.7 203,-963.7 203,-944.7 25,-944.7"/>
<text text-anchor="start" x="28" y="-950.8" font-family="Helvetica,sans-Serif" font-size="11.00" fill="#000000">...</text>
<polygon fill="#ffffff" stroke="transparent" points="25,-925.7 25,-944.7 103,-944.7 103,-925.7 25,-925.7"/>
<polygon fill="none" stroke="#000000" points="25,-925.7 25,-944.7 103,-944.7 103,-925.7 25,-925.7"/>
<text text-anchor="start" x="28" y="-931.8" font-family="Helvetica,sans-Serif" font-size="11.00" fill="#000000"> &#160;</text>
<polygon fill="#ffffff" stroke="transparent" points="103,-925.7 103,-944.7 148,-944.7 148,-925.7 103,-925.7"/>
<polygon fill="none" stroke="#000000" points="103,-925.7 103,-944.7 148,-944.7 148,-925.7 103,-925.7"/>
<text text-anchor="start" x="138.8862" y="-931.8" font-family="Helvetica,sans-Serif" font-size="11.00" fill="#000000"> &#160;</text>
<polygon fill="#ffffff" stroke="transparent" points="148,-925.7 148,-944.7 203,-944.7 203,-925.7 148,-925.7"/>
<polygon fill="none" stroke="#000000" points="148,-925.7 148,-944.7 203,-944.7 203,-925.7 148,-925.7"/>
<text text-anchor="start" x="184.4053" y="-931.8" font-family="Helvetica,sans-Serif" font-size="11.00" fill="#000000">1 &gt;</text>
</a>
</g>
</g>
<!-- authorisation&#45;&gt;authorisation_status -->
<g id="edge6" class="edge">
<title>authorisation:w&#45;&gt;authorisation_status:e</title>
<path fill="none" stroke="#000000" d="M257.109,-644.9451C197.7542,-686.4734 283.0141,-1018.7 203,-1018.7"/>
<polygon fill="#000000" stroke="#000000" points="263.3493,-643.0381 272.0522,-644.1428 267.1746,-641.8691 271,-640.7 271,-640.7 271,-640.7 267.1746,-641.8691 269.9478,-637.2572 263.3493,-643.0381 263.3493,-643.0381"/>
<ellipse fill="none" stroke="#000000" cx="260.289" cy="-643.9734" rx="3.2" ry="3.2"/>
</g>
<!-- transport -->
<g id="node8" class="node">
<title>transport</title>
<g id="a_node8"><a xlink:href="../../tables/transport.html" xlink:title="transport" target="_top">
<polygon fill="#ffffff" stroke="transparent" points="42.5,-38.2 42.5,-165.2 185.5,-165.2 185.5,-38.2 42.5,-38.2"/>
<polygon fill="#f5f5f5" stroke="transparent" points="43,-141.7 43,-164.7 186,-164.7 186,-141.7 43,-141.7"/>
<polygon fill="none" stroke="#000000" points="43,-141.7 43,-164.7 186,-164.7 186,-141.7 43,-141.7"/>
<text text-anchor="start" x="48" y="-150.3" font-family="Helvetica,sans-Serif" font-weight="bold" font-size="11.00" fill="#000000">transport</text>
<text text-anchor="start" x="151.0437" y="-149.8" font-family="Helvetica,sans-Serif" font-size="11.00" fill="#000000">[table]</text>
<polygon fill="none" stroke="#000000" points="43,-119.7 43,-141.7 186,-141.7 186,-119.7 43,-119.7"/>
<image xlink:href="../../images/primaryKeys.png" width="11px" height="12px" preserveAspectRatio="xMinYMin meet" x="48" y="-136.7"/>
<text text-anchor="start" x="63" y="-126.8" font-family="Helvetica,sans-Serif" font-size="11.00" fill="#000000">id</text>
<polygon fill="#ffffff" stroke="transparent" points="43,-97.7 43,-119.7 186,-119.7 186,-97.7 43,-97.7"/>
<polygon fill="none" stroke="#000000" points="43,-97.7 43,-119.7 186,-119.7 186,-97.7 43,-97.7"/>
<text text-anchor="start" x="63" y="-104.8" font-family="Helvetica,sans-Serif" font-size="11.00" fill="#000000">code</text>
<polygon fill="#ffffff" stroke="transparent" points="43,-75.7 43,-97.7 186,-97.7 186,-75.7 43,-75.7"/>
<polygon fill="none" stroke="#000000" points="43,-75.7 43,-97.7 186,-97.7 186,-75.7 43,-75.7"/>
<text text-anchor="start" x="63" y="-82.8" font-family="Helvetica,sans-Serif" font-size="11.00" fill="#000000">sequence_number</text>
<polygon fill="none" stroke="#000000" points="43,-56.7 43,-75.7 186,-75.7 186,-56.7 43,-56.7"/>
<text text-anchor="start" x="46" y="-62.8" font-family="Helvetica,sans-Serif" font-size="11.00" fill="#000000">...</text>
<polygon fill="#ffffff" stroke="transparent" points="43,-37.7 43,-56.7 104,-56.7 104,-37.7 43,-37.7"/>
<polygon fill="none" stroke="#000000" points="43,-37.7 43,-56.7 104,-56.7 104,-37.7 43,-37.7"/>
<text text-anchor="start" x="46" y="-43.8" font-family="Helvetica,sans-Serif" font-size="11.00" fill="#000000"> &#160;</text>
<polygon fill="#ffffff" stroke="transparent" points="104,-37.7 104,-56.7 140,-56.7 140,-37.7 104,-37.7"/>
<polygon fill="none" stroke="#000000" points="104,-37.7 104,-56.7 140,-56.7 140,-37.7 104,-37.7"/>
<text text-anchor="start" x="130.8862" y="-43.8" font-family="Helvetica,sans-Serif" font-size="11.00" fill="#000000"> &#160;</text>
<polygon fill="#ffffff" stroke="transparent" points="140,-37.7 140,-56.7 186,-56.7 186,-37.7 140,-37.7"/>
<polygon fill="none" stroke="#000000" points="140,-37.7 140,-56.7 186,-56.7 186,-37.7 140,-37.7"/>
<text text-anchor="start" x="167.4053" y="-43.8" font-family="Helvetica,sans-Serif" font-size="11.00" fill="#000000">2 &gt;</text>
</a>
</g>
</g>
<!-- authorisation&#45;&gt;transport -->
<g id="edge7" class="edge">
<title>authorisation:w&#45;&gt;transport:e</title>
<path fill="none" stroke="#000000" d="M256.8977,-504.7156C205.0483,-471.3634 257.4641,-238.3386 228,-175.7 216.3553,-150.9443 213.3577,-130.7 186,-130.7"/>
<polygon fill="#000000" stroke="#000000" points="263.3014,-506.5248 270.0212,-512.1644 267.1507,-507.6124 271,-508.7 271,-508.7 271,-508.7 267.1507,-507.6124 271.9788,-505.2356 263.3014,-506.5248 263.3014,-506.5248"/>
<ellipse fill="none" stroke="#000000" cx="260.2219" cy="-505.6548" rx="3.2" ry="3.2"/>
</g>
</g>
</svg>
