<?xml version="1.0" encoding="UTF-8" standalone="no"?>
<!DOCTYPE svg PUBLIC "-//W3C//DTD SVG 1.1//EN"
 "http://www.w3.org/Graphics/SVG/1.1/DTD/svg11.dtd">
<!-- Generated by graphviz version 2.40.1 (20161225.0304)
 -->
<!-- Title: twoDegreesRelationshipsDiagram Pages: 1 -->
<svg width="568pt" height="701pt"
 viewBox="0.00 0.00 568.00 700.70" xmlns="http://www.w3.org/2000/svg" xmlns:xlink="http://www.w3.org/1999/xlink">
<g id="graph0" class="graph" transform="scale(1 1) rotate(0) translate(4 696.7)">
<title>twoDegreesRelationshipsDiagram</title>
<polygon fill="#ffffff" stroke="transparent" points="-4,4 -4,-696.7 564,-696.7 564,4 -4,4"/>
<text text-anchor="middle" x="72.4936" y="-7.3" font-family="Helvetica,sans-Serif" font-size="11.00" fill="#000000">Generated by SchemaSpy</text>
<!-- authorisation_audit -->
<g id="node1" class="node">
<title>authorisation_audit</title>
<g id="a_node1"><a xlink:href="../../tables/authorisation_audit.html" xlink:title="authorisation_audit" target="_top">
<polygon fill="#ffffff" stroke="transparent" points="236,-202.7 236,-688.7 552,-688.7 552,-202.7 236,-202.7"/>
<polygon fill="#f5f5f5" stroke="transparent" points="238,-663.7 238,-686.7 550,-686.7 550,-663.7 238,-663.7"/>
<polygon fill="none" stroke="#000000" points="238,-663.7 238,-686.7 550,-686.7 550,-663.7 238,-663.7"/>
<text text-anchor="start" x="243" y="-672.3" font-family="Helvetica,sans-Serif" font-weight="bold" font-size="11.00" fill="#000000">authorisation_audit</text>
<text text-anchor="start" x="515.0437" y="-671.8" font-family="Helvetica,sans-Serif" font-size="11.00" fill="#000000">[table]</text>
<polygon fill="none" stroke="#000000" points="238,-641.7 238,-663.7 451,-663.7 451,-641.7 238,-641.7"/>
<image xlink:href="../../images/primaryKeys.png" width="11px" height="12px" preserveAspectRatio="xMinYMin meet" x="243" y="-658.7"/>
<text text-anchor="start" x="258" y="-648.8" font-family="Helvetica,sans-Serif" font-size="11.00" fill="#000000">rev_id</text>
<polygon fill="none" stroke="#000000" points="451,-641.7 451,-663.7 550,-663.7 550,-641.7 451,-641.7"/>
<text text-anchor="start" x="454" y="-649.4" font-family="Helvetica,sans-Serif" font-size="11.00" fill="#000000">int8[19]</text>
<polygon fill="none" stroke="#000000" points="238,-619.7 238,-641.7 451,-641.7 451,-619.7 238,-619.7"/>
<text text-anchor="start" x="258" y="-626.8" font-family="Helvetica,sans-Serif" font-size="11.00" fill="#000000">rev_type</text>
<polygon fill="none" stroke="#000000" points="451,-619.7 451,-641.7 550,-641.7 550,-619.7 451,-619.7"/>
<text text-anchor="start" x="454" y="-627.4" font-family="Helvetica,sans-Serif" font-size="11.00" fill="#000000">int2[5]</text>
<polygon fill="none" stroke="#000000" points="238,-597.7 238,-619.7 451,-619.7 451,-597.7 238,-597.7"/>
<image xlink:href="../../images/primaryKeys.png" width="11px" height="12px" preserveAspectRatio="xMinYMin meet" x="243" y="-614.7"/>
<text text-anchor="start" x="258" y="-604.8" font-family="Helvetica,sans-Serif" font-size="11.00" fill="#000000">id</text>
<polygon fill="none" stroke="#000000" points="451,-597.7 451,-619.7 550,-619.7 550,-597.7 451,-597.7"/>
<text text-anchor="start" x="454" y="-605.4" font-family="Helvetica,sans-Serif" font-size="11.00" fill="#000000">uuid[2147483647]</text>
<polygon fill="none" stroke="#000000" points="238,-575.7 238,-597.7 451,-597.7 451,-575.7 238,-575.7"/>
<text text-anchor="start" x="258" y="-582.8" font-family="Helvetica,sans-Serif" font-size="11.00" fill="#000000">version</text>
<polygon fill="none" stroke="#000000" points="451,-575.7 451,-597.7 550,-597.7 550,-575.7 451,-575.7"/>
<text text-anchor="start" x="454" y="-583.4" font-family="Helvetica,sans-Serif" font-size="11.00" fill="#000000">int4[10]</text>
<polygon fill="none" stroke="#000000" points="238,-553.7 238,-575.7 451,-575.7 451,-553.7 238,-553.7"/>
<text text-anchor="start" x="258" y="-560.8" font-family="Helvetica,sans-Serif" font-size="11.00" fill="#000000">person_identifier</text>
<polygon fill="none" stroke="#000000" points="451,-553.7 451,-575.7 550,-575.7 550,-553.7 451,-553.7"/>
<text text-anchor="start" x="454" y="-561.4" font-family="Helvetica,sans-Serif" font-size="11.00" fill="#000000">varchar[10]</text>
<polygon fill="none" stroke="#000000" points="238,-531.7 238,-553.7 451,-553.7 451,-531.7 238,-531.7"/>
<text text-anchor="start" x="258" y="-538.8" font-family="Helvetica,sans-Serif" font-size="11.00" fill="#000000">prison_code</text>
<polygon fill="none" stroke="#000000" points="451,-531.7 451,-553.7 550,-553.7 550,-531.7 451,-531.7"/>
<text text-anchor="start" x="454" y="-539.4" font-family="Helvetica,sans-Serif" font-size="11.00" fill="#000000">varchar[6]</text>
<polygon fill="none" stroke="#000000" points="238,-509.7 238,-531.7 451,-531.7 451,-509.7 238,-509.7"/>
<text text-anchor="start" x="258" y="-516.8" font-family="Helvetica,sans-Serif" font-size="11.00" fill="#000000">status_id</text>
<polygon fill="none" stroke="#000000" points="451,-509.7 451,-531.7 550,-531.7 550,-509.7 451,-509.7"/>
<text text-anchor="start" x="454" y="-517.4" font-family="Helvetica,sans-Serif" font-size="11.00" fill="#000000">uuid[2147483647]</text>
<polygon fill="none" stroke="#000000" points="238,-487.7 238,-509.7 451,-509.7 451,-487.7 238,-487.7"/>
<text text-anchor="start" x="258" y="-494.8" font-family="Helvetica,sans-Serif" font-size="11.00" fill="#000000">absence_type_id</text>
<polygon fill="none" stroke="#000000" points="451,-487.7 451,-509.7 550,-509.7 550,-487.7 451,-487.7"/>
<text text-anchor="start" x="454" y="-495.4" font-family="Helvetica,sans-Serif" font-size="11.00" fill="#000000">uuid[2147483647]</text>
<polygon fill="none" stroke="#000000" points="238,-465.7 238,-487.7 451,-487.7 451,-465.7 238,-465.7"/>
<text text-anchor="start" x="258" y="-472.8" font-family="Helvetica,sans-Serif" font-size="11.00" fill="#000000">absence_sub_type_id</text>
<polygon fill="none" stroke="#000000" points="451,-465.7 451,-487.7 550,-487.7 550,-465.7 451,-465.7"/>
<text text-anchor="start" x="454" y="-473.4" font-family="Helvetica,sans-Serif" font-size="11.00" fill="#000000">uuid[2147483647]</text>
<polygon fill="none" stroke="#000000" points="238,-443.7 238,-465.7 451,-465.7 451,-443.7 238,-443.7"/>
<text text-anchor="start" x="258" y="-450.8" font-family="Helvetica,sans-Serif" font-size="11.00" fill="#000000">absence_reason_category_id</text>
<polygon fill="none" stroke="#000000" points="451,-443.7 451,-465.7 550,-465.7 550,-443.7 451,-443.7"/>
<text text-anchor="start" x="454" y="-451.4" font-family="Helvetica,sans-Serif" font-size="11.00" fill="#000000">uuid[2147483647]</text>
<polygon fill="none" stroke="#000000" points="238,-421.7 238,-443.7 451,-443.7 451,-421.7 238,-421.7"/>
<text text-anchor="start" x="258" y="-428.8" font-family="Helvetica,sans-Serif" font-size="11.00" fill="#000000">absence_reason_id</text>
<polygon fill="none" stroke="#000000" points="451,-421.7 451,-443.7 550,-443.7 550,-421.7 451,-421.7"/>
<text text-anchor="start" x="454" y="-429.4" font-family="Helvetica,sans-Serif" font-size="11.00" fill="#000000">uuid[2147483647]</text>
<polygon fill="none" stroke="#000000" points="238,-399.7 238,-421.7 451,-421.7 451,-399.7 238,-399.7"/>
<text text-anchor="start" x="258" y="-406.8" font-family="Helvetica,sans-Serif" font-size="11.00" fill="#000000">accompanied_by_id</text>
<polygon fill="none" stroke="#000000" points="451,-399.7 451,-421.7 550,-421.7 550,-399.7 451,-399.7"/>
<text text-anchor="start" x="454" y="-407.4" font-family="Helvetica,sans-Serif" font-size="11.00" fill="#000000">uuid[2147483647]</text>
<polygon fill="none" stroke="#000000" points="238,-377.7 238,-399.7 451,-399.7 451,-377.7 238,-377.7"/>
<text text-anchor="start" x="258" y="-384.8" font-family="Helvetica,sans-Serif" font-size="11.00" fill="#000000">transport_id</text>
<polygon fill="none" stroke="#000000" points="451,-377.7 451,-399.7 550,-399.7 550,-377.7 451,-377.7"/>
<text text-anchor="start" x="454" y="-385.4" font-family="Helvetica,sans-Serif" font-size="11.00" fill="#000000">uuid[2147483647]</text>
<polygon fill="none" stroke="#000000" points="238,-355.7 238,-377.7 451,-377.7 451,-355.7 238,-355.7"/>
<text text-anchor="start" x="258" y="-362.8" font-family="Helvetica,sans-Serif" font-size="11.00" fill="#000000">start</text>
<polygon fill="none" stroke="#000000" points="451,-355.7 451,-377.7 550,-377.7 550,-355.7 451,-355.7"/>
<text text-anchor="start" x="454" y="-363.4" font-family="Helvetica,sans-Serif" font-size="11.00" fill="#000000">date[13]</text>
<polygon fill="none" stroke="#000000" points="238,-333.7 238,-355.7 451,-355.7 451,-333.7 238,-333.7"/>
<text text-anchor="start" x="258" y="-340.8" font-family="Helvetica,sans-Serif" font-size="11.00" fill="#000000">end</text>
<polygon fill="none" stroke="#000000" points="451,-333.7 451,-355.7 550,-355.7 550,-333.7 451,-333.7"/>
<text text-anchor="start" x="454" y="-341.4" font-family="Helvetica,sans-Serif" font-size="11.00" fill="#000000">date[13]</text>
<polygon fill="none" stroke="#000000" points="238,-311.7 238,-333.7 451,-333.7 451,-311.7 238,-311.7"/>
<text text-anchor="start" x="258" y="-318.8" font-family="Helvetica,sans-Serif" font-size="11.00" fill="#000000">repeat</text>
<polygon fill="none" stroke="#000000" points="451,-311.7 451,-333.7 550,-333.7 550,-311.7 451,-311.7"/>
<text text-anchor="start" x="454" y="-319.4" font-family="Helvetica,sans-Serif" font-size="11.00" fill="#000000">bool[1]</text>
<polygon fill="none" stroke="#000000" points="238,-289.7 238,-311.7 451,-311.7 451,-289.7 238,-289.7"/>
<text text-anchor="start" x="258" y="-296.8" font-family="Helvetica,sans-Serif" font-size="11.00" fill="#000000">comments</text>
<polygon fill="none" stroke="#000000" points="451,-289.7 451,-311.7 550,-311.7 550,-289.7 451,-289.7"/>
<text text-anchor="start" x="454" y="-297.4" font-family="Helvetica,sans-Serif" font-size="11.00" fill="#000000">text[2147483647]</text>
<polygon fill="none" stroke="#000000" points="238,-267.7 238,-289.7 451,-289.7 451,-267.7 238,-267.7"/>
<text text-anchor="start" x="258" y="-274.8" font-family="Helvetica,sans-Serif" font-size="11.00" fill="#000000">reason_path</text>
<polygon fill="none" stroke="#000000" points="451,-267.7 451,-289.7 550,-289.7 550,-267.7 451,-267.7"/>
<text text-anchor="start" x="453.7258" y="-275.4" font-family="Helvetica,sans-Serif" font-size="11.00" fill="#000000">jsonb[2147483647]</text>
<polygon fill="none" stroke="#000000" points="238,-245.7 238,-267.7 451,-267.7 451,-245.7 238,-245.7"/>
<text text-anchor="start" x="258" y="-252.8" font-family="Helvetica,sans-Serif" font-size="11.00" fill="#000000">schedule</text>
<polygon fill="none" stroke="#000000" points="451,-245.7 451,-267.7 550,-267.7 550,-245.7 451,-245.7"/>
<text text-anchor="start" x="453.7258" y="-253.4" font-family="Helvetica,sans-Serif" font-size="11.00" fill="#000000">jsonb[2147483647]</text>
<polygon fill="none" stroke="#000000" points="238,-223.7 238,-245.7 451,-245.7 451,-223.7 238,-223.7"/>
<text text-anchor="start" x="258" y="-230.8" font-family="Helvetica,sans-Serif" font-size="11.00" fill="#000000">legacy_id</text>
<polygon fill="none" stroke="#000000" points="451,-223.7 451,-245.7 550,-245.7 550,-223.7 451,-223.7"/>
<text text-anchor="start" x="454" y="-231.4" font-family="Helvetica,sans-Serif" font-size="11.00" fill="#000000">int8[19]</text>
<polygon fill="#ffffff" stroke="transparent" points="238,-204.7 238,-223.7 349,-223.7 349,-204.7 238,-204.7"/>
<polygon fill="none" stroke="#000000" points="238,-204.7 238,-223.7 349,-223.7 349,-204.7 238,-204.7"/>
<text text-anchor="start" x="241" y="-210.8" font-family="Helvetica,sans-Serif" font-size="11.00" fill="#000000">&lt; 1</text>
<polygon fill="#ffffff" stroke="transparent" points="349,-204.7 349,-223.7 451,-223.7 451,-204.7 349,-204.7"/>
<polygon fill="none" stroke="#000000" points="349,-204.7 349,-223.7 451,-223.7 451,-204.7 349,-204.7"/>
<text text-anchor="start" x="441.8862" y="-210.8" font-family="Helvetica,sans-Serif" font-size="11.00" fill="#000000"> &#160;</text>
<polygon fill="#ffffff" stroke="transparent" points="451,-204.7 451,-223.7 550,-223.7 550,-204.7 451,-204.7"/>
<polygon fill="none" stroke="#000000" points="451,-204.7 451,-223.7 550,-223.7 550,-204.7 451,-204.7"/>
<text text-anchor="start" x="531.4053" y="-210.8" font-family="Helvetica,sans-Serif" font-size="11.00" fill="#000000">0 &gt;</text>
<polygon fill="none" stroke="#000000" stroke-width="2" points="237,-203.7 237,-687.7 551,-687.7 551,-203.7 237,-203.7"/>
</a>
</g>
</g>
<!-- public.audit_revision -->
<g id="node2" class="node">
<title>public.audit_revision</title>
<g id="a_node2"><a xlink:href="../../../public/tables/audit_revision.html" xlink:title="public.audit_revision" target="_top">
<polygon fill="#ffffff" stroke="transparent" points="8,-117.2 8,-178.2 187,-178.2 187,-117.2 8,-117.2"/>
<polygon fill="#f5f5f5" stroke="transparent" points="8.5,-154.7 8.5,-177.7 187.5,-177.7 187.5,-154.7 8.5,-154.7"/>
<polygon fill="none" stroke="#000000" points="8.5,-154.7 8.5,-177.7 187.5,-177.7 187.5,-154.7 8.5,-154.7"/>
<text text-anchor="start" x="13.5" y="-163.3" font-family="Helvetica,sans-Serif" font-weight="bold" font-size="11.00" fill="#000000">public.audit_revision</text>
<text text-anchor="start" x="153.0219" y="-162.8" font-family="Helvetica,sans-Serif" font-size="11.00" fill="#000000">[table]</text>
<polygon fill="none" stroke="#000000" points="8.5,-135.7 8.5,-154.7 187.5,-154.7 187.5,-135.7 8.5,-135.7"/>
<text text-anchor="start" x="11.5" y="-141.8" font-family="Helvetica,sans-Serif" font-size="11.00" fill="#000000">...</text>
<polygon fill="#ffffff" stroke="transparent" points="8.5,-116.7 8.5,-135.7 74.5,-135.7 74.5,-116.7 8.5,-116.7"/>
<polygon fill="none" stroke="#000000" points="8.5,-116.7 8.5,-135.7 74.5,-135.7 74.5,-116.7 8.5,-116.7"/>
<text text-anchor="start" x="11.5" y="-122.8" font-family="Helvetica,sans-Serif" font-size="11.00" fill="#000000"> &#160;</text>
<polygon fill="#ffffff" stroke="transparent" points="74.5,-116.7 74.5,-135.7 139.5,-135.7 139.5,-116.7 74.5,-116.7"/>
<polygon fill="none" stroke="#000000" points="74.5,-116.7 74.5,-135.7 139.5,-135.7 139.5,-116.7 74.5,-116.7"/>
<text text-anchor="start" x="104.1105" y="-122.8" font-family="Helvetica,sans-Serif" font-size="11.00" fill="#000000">0 rows</text>
<polygon fill="#ffffff" stroke="transparent" points="139.5,-116.7 139.5,-135.7 187.5,-135.7 187.5,-116.7 139.5,-116.7"/>
<polygon fill="none" stroke="#000000" points="139.5,-116.7 139.5,-135.7 187.5,-135.7 187.5,-116.7 139.5,-116.7"/>
<text text-anchor="start" x="168.9053" y="-122.8" font-family="Helvetica,sans-Serif" font-size="11.00" fill="#000000">3 &gt;</text>
</a>
</g>
</g>
<!-- authorisation_audit&#45;&gt;public.audit_revision -->
<g id="edge1" class="edge">
<title>authorisation_audit:w&#45;&gt;public.audit_revision:e</title>
<path fill="none" stroke="#000000" d="M223.5956,-650.0227C136.9231,-617.1482 107.1613,-290.7107 99.6292,-182.4107"/>
<polygon fill="#000000" stroke="#000000" points="230.1347,-651.2381 237.3421,-656.2394 234.0674,-651.969 238,-652.7 238,-652.7 238,-652.7 234.0674,-651.969 238.6579,-649.1606 230.1347,-651.2381 230.1347,-651.2381"/>
<ellipse fill="none" stroke="#000000" cx="226.9886" cy="-650.6533" rx="3.2" ry="3.2"/>
</g>
<!-- movement_audit -->
<g id="node3" class="node">
<title>movement_audit</title>
<g id="a_node3"><a xlink:href="../../tables/movement_audit.html" xlink:title="movement_audit" target="_top">
<polygon fill="#ffffff" stroke="transparent" points="318.5,-120.2 318.5,-181.2 469.5,-181.2 469.5,-120.2 318.5,-120.2"/>
<polygon fill="#f5f5f5" stroke="transparent" points="319,-157.7 319,-180.7 470,-180.7 470,-157.7 319,-157.7"/>
<polygon fill="none" stroke="#000000" points="319,-157.7 319,-180.7 470,-180.7 470,-157.7 319,-157.7"/>
<text text-anchor="start" x="324" y="-166.3" font-family="Helvetica,sans-Serif" font-weight="bold" font-size="11.00" fill="#000000">movement_audit</text>
<text text-anchor="start" x="435.5219" y="-165.8" font-family="Helvetica,sans-Serif" font-size="11.00" fill="#000000">[table]</text>
<polygon fill="none" stroke="#000000" points="319,-138.7 319,-157.7 470,-157.7 470,-138.7 319,-138.7"/>
<text text-anchor="start" x="322" y="-144.8" font-family="Helvetica,sans-Serif" font-size="11.00" fill="#000000">...</text>
<polygon fill="#ffffff" stroke="transparent" points="319,-119.7 319,-138.7 393,-138.7 393,-119.7 319,-119.7"/>
<polygon fill="none" stroke="#000000" points="319,-119.7 319,-138.7 393,-138.7 393,-119.7 319,-119.7"/>
<text text-anchor="start" x="322" y="-125.8" font-family="Helvetica,sans-Serif" font-size="11.00" fill="#000000">&lt; 1</text>
<polygon fill="#ffffff" stroke="transparent" points="393,-119.7 393,-138.7 431,-138.7 431,-119.7 393,-119.7"/>
<polygon fill="none" stroke="#000000" points="393,-119.7 393,-138.7 431,-138.7 431,-119.7 393,-119.7"/>
<text text-anchor="start" x="421.8862" y="-125.8" font-family="Helvetica,sans-Serif" font-size="11.00" fill="#000000"> &#160;</text>
<polygon fill="#ffffff" stroke="transparent" points="431,-119.7 431,-138.7 470,-138.7 470,-119.7 431,-119.7"/>
<polygon fill="none" stroke="#000000" points="431,-119.7 431,-138.7 470,-138.7 470,-119.7 431,-119.7"/>
<text text-anchor="start" x="460.8862" y="-125.8" font-family="Helvetica,sans-Serif" font-size="11.00" fill="#000000"> &#160;</text>
</a>
</g>
</g>
<!-- movement_audit&#45;&gt;public.audit_revision -->
<g id="edge2" class="edge">
<title>movement_audit:w&#45;&gt;public.audit_revision:e</title>
<path fill="none" stroke="#000000" d="M304.5816,-147.7C268.0264,-147.7 229.1577,-147.7 195.0862,-147.7"/>
<polygon fill="#000000" stroke="#000000" points="311,-147.7001 319,-151.3 315,-147.7 319,-147.7 319,-147.7 319,-147.7 315,-147.7 319,-144.1 311,-147.7001 311,-147.7001"/>
<ellipse fill="none" stroke="#000000" cx="307.8" cy="-147.7001" rx="3.2" ry="3.2"/>
</g>
<!-- occurrence_audit -->
<g id="node4" class="node">
<title>occurrence_audit</title>
<g id="a_node4"><a xlink:href="../../tables/occurrence_audit.html" xlink:title="occurrence_audit" target="_top">
<polygon fill="#ffffff" stroke="transparent" points="317,-38.2 317,-99.2 471,-99.2 471,-38.2 317,-38.2"/>
<polygon fill="#f5f5f5" stroke="transparent" points="317,-75.7 317,-98.7 471,-98.7 471,-75.7 317,-75.7"/>
<polygon fill="none" stroke="#000000" points="317,-75.7 317,-98.7 471,-98.7 471,-75.7 317,-75.7"/>
<text text-anchor="start" x="322" y="-84.3" font-family="Helvetica,sans-Serif" font-weight="bold" font-size="11.00" fill="#000000">occurrence_audit</text>
<text text-anchor="start" x="436.5219" y="-83.8" font-family="Helvetica,sans-Serif" font-size="11.00" fill="#000000">[table]</text>
<polygon fill="none" stroke="#000000" points="317,-56.7 317,-75.7 471,-75.7 471,-56.7 317,-56.7"/>
<text text-anchor="start" x="320" y="-62.8" font-family="Helvetica,sans-Serif" font-size="11.00" fill="#000000">...</text>
<polygon fill="#ffffff" stroke="transparent" points="317,-37.7 317,-56.7 392,-56.7 392,-37.7 317,-37.7"/>
<polygon fill="none" stroke="#000000" points="317,-37.7 317,-56.7 392,-56.7 392,-37.7 317,-37.7"/>
<text text-anchor="start" x="320" y="-43.8" font-family="Helvetica,sans-Serif" font-size="11.00" fill="#000000">&lt; 1</text>
<polygon fill="#ffffff" stroke="transparent" points="392,-37.7 392,-56.7 431,-56.7 431,-37.7 392,-37.7"/>
<polygon fill="none" stroke="#000000" points="392,-37.7 392,-56.7 431,-56.7 431,-37.7 392,-37.7"/>
<text text-anchor="start" x="421.8862" y="-43.8" font-family="Helvetica,sans-Serif" font-size="11.00" fill="#000000"> &#160;</text>
<polygon fill="#ffffff" stroke="transparent" points="431,-37.7 431,-56.7 471,-56.7 471,-37.7 431,-37.7"/>
<polygon fill="none" stroke="#000000" points="431,-37.7 431,-56.7 471,-56.7 471,-37.7 431,-37.7"/>
<text text-anchor="start" x="461.8862" y="-43.8" font-family="Helvetica,sans-Serif" font-size="11.00" fill="#000000"> &#160;</text>
</a>
</g>
</g>
<!-- occurrence_audit&#45;&gt;public.audit_revision -->
<g id="edge3" class="edge">
<title>occurrence_audit:w&#45;&gt;public.audit_revision:e</title>
<path fill="none" stroke="#000000" d="M302.4372,-66.2137C249.3201,-69.8894 194.8334,-92.6343 155.4063,-113.1623"/>
<polygon fill="#000000" stroke="#000000" points="309.005,-65.9821 317.1269,-69.2978 313.0025,-65.841 317,-65.7 317,-65.7 317,-65.7 313.0025,-65.841 316.8731,-62.1022 309.005,-65.9821 309.005,-65.9821"/>
<ellipse fill="none" stroke="#000000" cx="305.807" cy="-66.0949" rx="3.2" ry="3.2"/>
</g>
</g>
</svg>
