<?xml version="1.0" encoding="UTF-8" standalone="no"?>
<!DOCTYPE svg PUBLIC "-//W3C//DTD SVG 1.1//EN"
 "http://www.w3.org/Graphics/SVG/1.1/DTD/svg11.dtd">
<!-- Generated by graphviz version 2.40.1 (20161225.0304)
 -->
<!-- Title: oneDegreeRelationshipsDiagram Pages: 1 -->
<svg width="601pt" height="1147pt"
 viewBox="0.00 0.00 601.00 1147.20" xmlns="http://www.w3.org/2000/svg" xmlns:xlink="http://www.w3.org/1999/xlink">
<g id="graph0" class="graph" transform="scale(1 1) rotate(0) translate(4 1143.2)">
<title>oneDegreeRelationshipsDiagram</title>
<polygon fill="#ffffff" stroke="transparent" points="-4,4 -4,-1143.2 597,-1143.2 597,4 -4,4"/>
<text text-anchor="middle" x="72.4936" y="-7.3" font-family="Helvetica,sans-Serif" font-size="11.00" fill="#000000">Generated by SchemaSpy</text>
<!-- authorisation -->
<g id="node1" class="node">
<title>authorisation</title>
<g id="a_node1"><a xlink:href="../../tables/authorisation.html" xlink:title="authorisation" target="_top">
<polygon fill="#ffffff" stroke="transparent" points="269,-385.7 269,-827.7 585,-827.7 585,-385.7 269,-385.7"/>
<polygon fill="#f5f5f5" stroke="transparent" points="271,-802.7 271,-825.7 583,-825.7 583,-802.7 271,-802.7"/>
<polygon fill="none" stroke="#000000" points="271,-802.7 271,-825.7 583,-825.7 583,-802.7 271,-802.7"/>
<text text-anchor="start" x="276" y="-811.3" font-family="Helvetica,sans-Serif" font-weight="bold" font-size="11.00" fill="#000000">authorisation</text>
<text text-anchor="start" x="548.0437" y="-810.8" font-family="Helvetica,sans-Serif" font-size="11.00" fill="#000000">[table]</text>
<polygon fill="none" stroke="#000000" points="271,-780.7 271,-802.7 484,-802.7 484,-780.7 271,-780.7"/>
<image xlink:href="../../images/primaryKeys.png" width="11px" height="12px" preserveAspectRatio="xMinYMin meet" x="276" y="-797.7"/>
<text text-anchor="start" x="291" y="-787.8" font-family="Helvetica,sans-Serif" font-size="11.00" fill="#000000">id</text>
<polygon fill="none" stroke="#000000" points="484,-780.7 484,-802.7 583,-802.7 583,-780.7 484,-780.7"/>
<text text-anchor="start" x="487" y="-788.4" font-family="Helvetica,sans-Serif" font-size="11.00" fill="#000000">uuid[2147483647]</text>
<polygon fill="none" stroke="#000000" points="271,-758.7 271,-780.7 484,-780.7 484,-758.7 271,-758.7"/>
<text text-anchor="start" x="291" y="-765.8" font-family="Helvetica,sans-Serif" font-size="11.00" fill="#000000">version</text>
<polygon fill="none" stroke="#000000" points="484,-758.7 484,-780.7 583,-780.7 583,-758.7 484,-758.7"/>
<text text-anchor="start" x="487" y="-766.4" font-family="Helvetica,sans-Serif" font-size="11.00" fill="#000000">int4[10]</text>
<polygon fill="#ffffff" stroke="transparent" points="271,-736.7 271,-758.7 484,-758.7 484,-736.7 271,-736.7"/>
<polygon fill="none" stroke="#000000" points="271,-736.7 271,-758.7 484,-758.7 484,-736.7 271,-736.7"/>
<image xlink:href="../../images/foreignKeys.png" width="11px" height="12px" preserveAspectRatio="xMinYMin meet" x="276" y="-753.7"/>
<text text-anchor="start" x="291" y="-743.8" font-family="Helvetica,sans-Serif" font-size="11.00" fill="#000000">person_identifier</text>
<polygon fill="none" stroke="#000000" points="484,-736.7 484,-758.7 583,-758.7 583,-736.7 484,-736.7"/>
<text text-anchor="start" x="487" y="-744.4" font-family="Helvetica,sans-Serif" font-size="11.00" fill="#000000">varchar[10]</text>
<polygon fill="#ffffff" stroke="transparent" points="271,-714.7 271,-736.7 484,-736.7 484,-714.7 271,-714.7"/>
<polygon fill="none" stroke="#000000" points="271,-714.7 271,-736.7 484,-736.7 484,-714.7 271,-714.7"/>
<text text-anchor="start" x="291" y="-721.8" font-family="Helvetica,sans-Serif" font-size="11.00" fill="#000000">prison_code</text>
<polygon fill="none" stroke="#000000" points="484,-714.7 484,-736.7 583,-736.7 583,-714.7 484,-714.7"/>
<text text-anchor="start" x="487" y="-722.4" font-family="Helvetica,sans-Serif" font-size="11.00" fill="#000000">varchar[6]</text>
<polygon fill="#ffffff" stroke="transparent" points="271,-692.7 271,-714.7 484,-714.7 484,-692.7 271,-692.7"/>
<polygon fill="none" stroke="#000000" points="271,-692.7 271,-714.7 484,-714.7 484,-692.7 271,-692.7"/>
<image xlink:href="../../images/foreignKeys.png" width="11px" height="12px" preserveAspectRatio="xMinYMin meet" x="276" y="-709.7"/>
<text text-anchor="start" x="291" y="-699.8" font-family="Helvetica,sans-Serif" font-size="11.00" fill="#000000">status_id</text>
<polygon fill="none" stroke="#000000" points="484,-692.7 484,-714.7 583,-714.7 583,-692.7 484,-692.7"/>
<text text-anchor="start" x="487" y="-700.4" font-family="Helvetica,sans-Serif" font-size="11.00" fill="#000000">uuid[2147483647]</text>
<polygon fill="none" stroke="#000000" points="271,-670.7 271,-692.7 484,-692.7 484,-670.7 271,-670.7"/>
<image xlink:href="../../images/foreignKeys.png" width="11px" height="12px" preserveAspectRatio="xMinYMin meet" x="276" y="-687.7"/>
<text text-anchor="start" x="291" y="-677.8" font-family="Helvetica,sans-Serif" font-size="11.00" fill="#000000">absence_type_id</text>
<polygon fill="none" stroke="#000000" points="484,-670.7 484,-692.7 583,-692.7 583,-670.7 484,-670.7"/>
<text text-anchor="start" x="487" y="-678.4" font-family="Helvetica,sans-Serif" font-size="11.00" fill="#000000">uuid[2147483647]</text>
<polygon fill="none" stroke="#000000" points="271,-648.7 271,-670.7 484,-670.7 484,-648.7 271,-648.7"/>
<image xlink:href="../../images/foreignKeys.png" width="11px" height="12px" preserveAspectRatio="xMinYMin meet" x="276" y="-665.7"/>
<text text-anchor="start" x="291" y="-655.8" font-family="Helvetica,sans-Serif" font-size="11.00" fill="#000000">absence_sub_type_id</text>
<polygon fill="none" stroke="#000000" points="484,-648.7 484,-670.7 583,-670.7 583,-648.7 484,-648.7"/>
<text text-anchor="start" x="487" y="-656.4" font-family="Helvetica,sans-Serif" font-size="11.00" fill="#000000">uuid[2147483647]</text>
<polygon fill="none" stroke="#000000" points="271,-626.7 271,-648.7 484,-648.7 484,-626.7 271,-626.7"/>
<image xlink:href="../../images/foreignKeys.png" width="11px" height="12px" preserveAspectRatio="xMinYMin meet" x="276" y="-643.7"/>
<text text-anchor="start" x="291" y="-633.8" font-family="Helvetica,sans-Serif" font-size="11.00" fill="#000000">absence_reason_category_id</text>
<polygon fill="none" stroke="#000000" points="484,-626.7 484,-648.7 583,-648.7 583,-626.7 484,-626.7"/>
<text text-anchor="start" x="487" y="-634.4" font-family="Helvetica,sans-Serif" font-size="11.00" fill="#000000">uuid[2147483647]</text>
<polygon fill="none" stroke="#000000" points="271,-604.7 271,-626.7 484,-626.7 484,-604.7 271,-604.7"/>
<image xlink:href="../../images/foreignKeys.png" width="11px" height="12px" preserveAspectRatio="xMinYMin meet" x="276" y="-621.7"/>
<text text-anchor="start" x="291" y="-611.8" font-family="Helvetica,sans-Serif" font-size="11.00" fill="#000000">absence_reason_id</text>
<polygon fill="none" stroke="#000000" points="484,-604.7 484,-626.7 583,-626.7 583,-604.7 484,-604.7"/>
<text text-anchor="start" x="487" y="-612.4" font-family="Helvetica,sans-Serif" font-size="11.00" fill="#000000">uuid[2147483647]</text>
<polygon fill="none" stroke="#000000" points="271,-582.7 271,-604.7 484,-604.7 484,-582.7 271,-582.7"/>
<image xlink:href="../../images/foreignKeys.png" width="11px" height="12px" preserveAspectRatio="xMinYMin meet" x="276" y="-599.7"/>
<text text-anchor="start" x="291" y="-589.8" font-family="Helvetica,sans-Serif" font-size="11.00" fill="#000000">accompanied_by_id</text>
<polygon fill="none" stroke="#000000" points="484,-582.7 484,-604.7 583,-604.7 583,-582.7 484,-582.7"/>
<text text-anchor="start" x="487" y="-590.4" font-family="Helvetica,sans-Serif" font-size="11.00" fill="#000000">uuid[2147483647]</text>
<polygon fill="none" stroke="#000000" points="271,-560.7 271,-582.7 484,-582.7 484,-560.7 271,-560.7"/>
<image xlink:href="../../images/foreignKeys.png" width="11px" height="12px" preserveAspectRatio="xMinYMin meet" x="276" y="-577.7"/>
<text text-anchor="start" x="291" y="-567.8" font-family="Helvetica,sans-Serif" font-size="11.00" fill="#000000">transport_id</text>
<polygon fill="none" stroke="#000000" points="484,-560.7 484,-582.7 583,-582.7 583,-560.7 484,-560.7"/>
<text text-anchor="start" x="487" y="-568.4" font-family="Helvetica,sans-Serif" font-size="11.00" fill="#000000">uuid[2147483647]</text>
<polygon fill="none" stroke="#000000" points="271,-538.7 271,-560.7 484,-560.7 484,-538.7 271,-538.7"/>
<text text-anchor="start" x="291" y="-545.8" font-family="Helvetica,sans-Serif" font-size="11.00" fill="#000000">repeat</text>
<polygon fill="none" stroke="#000000" points="484,-538.7 484,-560.7 583,-560.7 583,-538.7 484,-538.7"/>
<text text-anchor="start" x="487" y="-546.4" font-family="Helvetica,sans-Serif" font-size="11.00" fill="#000000">bool[1]</text>
<polygon fill="none" stroke="#000000" points="271,-516.7 271,-538.7 484,-538.7 484,-516.7 271,-516.7"/>
<text text-anchor="start" x="291" y="-523.8" font-family="Helvetica,sans-Serif" font-size="11.00" fill="#000000">comments</text>
<polygon fill="none" stroke="#000000" points="484,-516.7 484,-538.7 583,-538.7 583,-516.7 484,-516.7"/>
<text text-anchor="start" x="487" y="-524.4" font-family="Helvetica,sans-Serif" font-size="11.00" fill="#000000">text[2147483647]</text>
<polygon fill="#ffffff" stroke="transparent" points="271,-494.7 271,-516.7 484,-516.7 484,-494.7 271,-494.7"/>
<polygon fill="none" stroke="#000000" points="271,-494.7 271,-516.7 484,-516.7 484,-494.7 271,-494.7"/>
<text text-anchor="start" x="291" y="-501.8" font-family="Helvetica,sans-Serif" font-size="11.00" fill="#000000">start</text>
<polygon fill="none" stroke="#000000" points="484,-494.7 484,-516.7 583,-516.7 583,-494.7 484,-494.7"/>
<text text-anchor="start" x="487" y="-502.4" font-family="Helvetica,sans-Serif" font-size="11.00" fill="#000000">date[13]</text>
<polygon fill="#ffffff" stroke="transparent" points="271,-472.7 271,-494.7 484,-494.7 484,-472.7 271,-472.7"/>
<polygon fill="none" stroke="#000000" points="271,-472.7 271,-494.7 484,-494.7 484,-472.7 271,-472.7"/>
<text text-anchor="start" x="291" y="-479.8" font-family="Helvetica,sans-Serif" font-size="11.00" fill="#000000">end</text>
<polygon fill="none" stroke="#000000" points="484,-472.7 484,-494.7 583,-494.7 583,-472.7 484,-472.7"/>
<text text-anchor="start" x="487" y="-480.4" font-family="Helvetica,sans-Serif" font-size="11.00" fill="#000000">date[13]</text>
<polygon fill="none" stroke="#000000" points="271,-450.7 271,-472.7 484,-472.7 484,-450.7 271,-450.7"/>
<text text-anchor="start" x="291" y="-457.8" font-family="Helvetica,sans-Serif" font-size="11.00" fill="#000000">reason_path</text>
<polygon fill="none" stroke="#000000" points="484,-450.7 484,-472.7 583,-472.7 583,-450.7 484,-450.7"/>
<text text-anchor="start" x="486.7258" y="-458.4" font-family="Helvetica,sans-Serif" font-size="11.00" fill="#000000">jsonb[2147483647]</text>
<polygon fill="none" stroke="#000000" points="271,-428.7 271,-450.7 484,-450.7 484,-428.7 271,-428.7"/>
<text text-anchor="start" x="291" y="-435.8" font-family="Helvetica,sans-Serif" font-size="11.00" fill="#000000">schedule</text>
<polygon fill="none" stroke="#000000" points="484,-428.7 484,-450.7 583,-450.7 583,-428.7 484,-428.7"/>
<text text-anchor="start" x="486.7258" y="-436.4" font-family="Helvetica,sans-Serif" font-size="11.00" fill="#000000">jsonb[2147483647]</text>
<polygon fill="#ffffff" stroke="transparent" points="271,-406.7 271,-428.7 484,-428.7 484,-406.7 271,-406.7"/>
<polygon fill="none" stroke="#000000" points="271,-406.7 271,-428.7 484,-428.7 484,-406.7 271,-406.7"/>
<text text-anchor="start" x="291" y="-413.8" font-family="Helvetica,sans-Serif" font-size="11.00" fill="#000000">legacy_id</text>
<polygon fill="none" stroke="#000000" points="484,-406.7 484,-428.7 583,-428.7 583,-406.7 484,-406.7"/>
<text text-anchor="start" x="487" y="-414.4" font-family="Helvetica,sans-Serif" font-size="11.00" fill="#000000">int8[19]</text>
<polygon fill="#ffffff" stroke="transparent" points="271,-387.7 271,-406.7 382,-406.7 382,-387.7 271,-387.7"/>
<polygon fill="none" stroke="#000000" points="271,-387.7 271,-406.7 382,-406.7 382,-387.7 271,-387.7"/>
<text text-anchor="start" x="274" y="-393.8" font-family="Helvetica,sans-Serif" font-size="11.00" fill="#000000">&lt; 8</text>
<polygon fill="#ffffff" stroke="transparent" points="382,-387.7 382,-406.7 484,-406.7 484,-387.7 382,-387.7"/>
<polygon fill="none" stroke="#000000" points="382,-387.7 382,-406.7 484,-406.7 484,-387.7 382,-387.7"/>
<text text-anchor="start" x="474.8862" y="-393.8" font-family="Helvetica,sans-Serif" font-size="11.00" fill="#000000"> &#160;</text>
<polygon fill="#ffffff" stroke="transparent" points="484,-387.7 484,-406.7 583,-406.7 583,-387.7 484,-387.7"/>
<polygon fill="none" stroke="#000000" points="484,-387.7 484,-406.7 583,-406.7 583,-387.7 484,-387.7"/>
<text text-anchor="start" x="564.4053" y="-393.8" font-family="Helvetica,sans-Serif" font-size="11.00" fill="#000000">0 &gt;</text>
<polygon fill="none" stroke="#000000" stroke-width="2" points="270,-386.7 270,-826.7 584,-826.7 584,-386.7 270,-386.7"/>
</a>
</g>
</g>
<!-- absence_reason_category -->
<g id="node2" class="node">
<title>absence_reason_category</title>
<g id="a_node2"><a xlink:href="../../tables/absence_reason_category.html" xlink:title="absence_reason_category" target="_top">
<polygon fill="#ffffff" stroke="transparent" points="8,-482.2 8,-609.2 220,-609.2 220,-482.2 8,-482.2"/>
<polygon fill="#f5f5f5" stroke="transparent" points="8,-585.7 8,-608.7 220,-608.7 220,-585.7 8,-585.7"/>
<polygon fill="none" stroke="#000000" points="8,-585.7 8,-608.7 220,-608.7 220,-585.7 8,-585.7"/>
<text text-anchor="start" x="13" y="-594.3" font-family="Helvetica,sans-Serif" font-weight="bold" font-size="11.00" fill="#000000">absence_reason_category</text>
<text text-anchor="start" x="185.5219" y="-593.8" font-family="Helvetica,sans-Serif" font-size="11.00" fill="#000000">[table]</text>
<polygon fill="none" stroke="#000000" points="8,-563.7 8,-585.7 220,-585.7 220,-563.7 8,-563.7"/>
<image xlink:href="../../images/primaryKeys.png" width="11px" height="12px" preserveAspectRatio="xMinYMin meet" x="13" y="-580.7"/>
<text text-anchor="start" x="37" y="-570.8" font-family="Helvetica,sans-Serif" font-size="11.00" fill="#000000">id</text>
<polygon fill="#ffffff" stroke="transparent" points="8,-541.7 8,-563.7 220,-563.7 220,-541.7 8,-541.7"/>
<polygon fill="none" stroke="#000000" points="8,-541.7 8,-563.7 220,-563.7 220,-541.7 8,-541.7"/>
<text text-anchor="start" x="37" y="-548.8" font-family="Helvetica,sans-Serif" font-size="11.00" fill="#000000">code</text>
<polygon fill="#ffffff" stroke="transparent" points="8,-519.7 8,-541.7 220,-541.7 220,-519.7 8,-519.7"/>
<polygon fill="none" stroke="#000000" points="8,-519.7 8,-541.7 220,-541.7 220,-519.7 8,-519.7"/>
<text text-anchor="start" x="37" y="-526.8" font-family="Helvetica,sans-Serif" font-size="11.00" fill="#000000">sequence_number</text>
<polygon fill="none" stroke="#000000" points="8,-500.7 8,-519.7 220,-519.7 220,-500.7 8,-500.7"/>
<text text-anchor="start" x="11" y="-506.8" font-family="Helvetica,sans-Serif" font-size="11.00" fill="#000000">...</text>
<polygon fill="#ffffff" stroke="transparent" points="8,-481.7 8,-500.7 103,-500.7 103,-481.7 8,-481.7"/>
<polygon fill="none" stroke="#000000" points="8,-481.7 8,-500.7 103,-500.7 103,-481.7 8,-481.7"/>
<text text-anchor="start" x="11" y="-487.8" font-family="Helvetica,sans-Serif" font-size="11.00" fill="#000000"> &#160;</text>
<polygon fill="#ffffff" stroke="transparent" points="103,-481.7 103,-500.7 157,-500.7 157,-481.7 103,-481.7"/>
<polygon fill="none" stroke="#000000" points="103,-481.7 103,-500.7 157,-500.7 157,-481.7 103,-481.7"/>
<text text-anchor="start" x="147.8862" y="-487.8" font-family="Helvetica,sans-Serif" font-size="11.00" fill="#000000"> &#160;</text>
<polygon fill="#ffffff" stroke="transparent" points="157,-481.7 157,-500.7 220,-500.7 220,-481.7 157,-481.7"/>
<polygon fill="none" stroke="#000000" points="157,-481.7 157,-500.7 220,-500.7 220,-481.7 157,-481.7"/>
<text text-anchor="start" x="201.4053" y="-487.8" font-family="Helvetica,sans-Serif" font-size="11.00" fill="#000000">2 &gt;</text>
</a>
</g>
</g>
<!-- authorisation&#45;&gt;absence_reason_category -->
<g id="edge1" class="edge">
<title>authorisation:w&#45;&gt;absence_reason_category:e</title>
<path fill="none" stroke="#000000" d="M256.9033,-632.7565C240.525,-617.9048 249.8329,-574.7 220,-574.7"/>
<polygon fill="#000000" stroke="#000000" points="263.4507,-635.0526 269.8087,-641.0972 267.2254,-636.3763 271,-637.7 271,-637.7 271,-637.7 267.2254,-636.3763 272.1913,-634.3028 263.4507,-635.0526 263.4507,-635.0526"/>
<ellipse fill="none" stroke="#000000" cx="260.431" cy="-633.9936" rx="3.2" ry="3.2"/>
</g>
<!-- absence_reason -->
<g id="node3" class="node">
<title>absence_reason</title>
<g id="a_node3"><a xlink:href="../../tables/absence_reason.html" xlink:title="absence_reason" target="_top">
<polygon fill="#ffffff" stroke="transparent" points="41,-334.2 41,-461.2 187,-461.2 187,-334.2 41,-334.2"/>
<polygon fill="#f5f5f5" stroke="transparent" points="41,-437.7 41,-460.7 187,-460.7 187,-437.7 41,-437.7"/>
<polygon fill="none" stroke="#000000" points="41,-437.7 41,-460.7 187,-460.7 187,-437.7 41,-437.7"/>
<text text-anchor="start" x="46" y="-446.3" font-family="Helvetica,sans-Serif" font-weight="bold" font-size="11.00" fill="#000000">absence_reason</text>
<text text-anchor="start" x="152.5219" y="-445.8" font-family="Helvetica,sans-Serif" font-size="11.00" fill="#000000">[table]</text>
<polygon fill="none" stroke="#000000" points="41,-415.7 41,-437.7 187,-437.7 187,-415.7 41,-415.7"/>
<image xlink:href="../../images/primaryKeys.png" width="11px" height="12px" preserveAspectRatio="xMinYMin meet" x="46" y="-432.7"/>
<text text-anchor="start" x="63" y="-422.8" font-family="Helvetica,sans-Serif" font-size="11.00" fill="#000000">id</text>
<polygon fill="#ffffff" stroke="transparent" points="41,-393.7 41,-415.7 187,-415.7 187,-393.7 41,-393.7"/>
<polygon fill="none" stroke="#000000" points="41,-393.7 41,-415.7 187,-415.7 187,-393.7 41,-393.7"/>
<text text-anchor="start" x="63" y="-400.8" font-family="Helvetica,sans-Serif" font-size="11.00" fill="#000000">code</text>
<polygon fill="#ffffff" stroke="transparent" points="41,-371.7 41,-393.7 187,-393.7 187,-371.7 41,-371.7"/>
<polygon fill="none" stroke="#000000" points="41,-371.7 41,-393.7 187,-393.7 187,-371.7 41,-371.7"/>
<text text-anchor="start" x="63" y="-378.8" font-family="Helvetica,sans-Serif" font-size="11.00" fill="#000000">sequence_number</text>
<polygon fill="none" stroke="#000000" points="41,-352.7 41,-371.7 187,-371.7 187,-352.7 41,-352.7"/>
<text text-anchor="start" x="44" y="-358.8" font-family="Helvetica,sans-Serif" font-size="11.00" fill="#000000">...</text>
<polygon fill="#ffffff" stroke="transparent" points="41,-333.7 41,-352.7 103,-352.7 103,-333.7 41,-333.7"/>
<polygon fill="none" stroke="#000000" points="41,-333.7 41,-352.7 103,-352.7 103,-333.7 41,-333.7"/>
<text text-anchor="start" x="44" y="-339.8" font-family="Helvetica,sans-Serif" font-size="11.00" fill="#000000"> &#160;</text>
<polygon fill="#ffffff" stroke="transparent" points="103,-333.7 103,-352.7 140,-352.7 140,-333.7 103,-333.7"/>
<polygon fill="none" stroke="#000000" points="103,-333.7 103,-352.7 140,-352.7 140,-333.7 103,-333.7"/>
<text text-anchor="start" x="130.8862" y="-339.8" font-family="Helvetica,sans-Serif" font-size="11.00" fill="#000000"> &#160;</text>
<polygon fill="#ffffff" stroke="transparent" points="140,-333.7 140,-352.7 187,-352.7 187,-333.7 140,-333.7"/>
<polygon fill="none" stroke="#000000" points="140,-333.7 140,-352.7 187,-352.7 187,-333.7 140,-333.7"/>
<text text-anchor="start" x="168.4053" y="-339.8" font-family="Helvetica,sans-Serif" font-size="11.00" fill="#000000">3 &gt;</text>
</a>
</g>
</g>
<!-- authorisation&#45;&gt;absence_reason -->
<g id="edge2" class="edge">
<title>authorisation:w&#45;&gt;absence_reason:e</title>
<path fill="none" stroke="#000000" d="M256.327,-613.7053C190.465,-593.5061 273.357,-426.7 187,-426.7"/>
<polygon fill="#000000" stroke="#000000" points="263.0729,-614.6223 270.515,-619.2672 267.0365,-615.1612 271,-615.7 271,-615.7 271,-615.7 267.0365,-615.1612 271.485,-612.1328 263.0729,-614.6223 263.0729,-614.6223"/>
<ellipse fill="none" stroke="#000000" cx="259.9021" cy="-614.1913" rx="3.2" ry="3.2"/>
</g>
<!-- absence_sub_type -->
<g id="node4" class="node">
<title>absence_sub_type</title>
<g id="a_node4"><a xlink:href="../../tables/absence_sub_type.html" xlink:title="absence_sub_type" target="_top">
<polygon fill="#ffffff" stroke="transparent" points="33.5,-630.2 33.5,-757.2 194.5,-757.2 194.5,-630.2 33.5,-630.2"/>
<polygon fill="#f5f5f5" stroke="transparent" points="34,-733.7 34,-756.7 195,-756.7 195,-733.7 34,-733.7"/>
<polygon fill="none" stroke="#000000" points="34,-733.7 34,-756.7 195,-756.7 195,-733.7 34,-733.7"/>
<text text-anchor="start" x="39" y="-742.3" font-family="Helvetica,sans-Serif" font-weight="bold" font-size="11.00" fill="#000000">absence_sub_type</text>
<text text-anchor="start" x="160.5219" y="-741.8" font-family="Helvetica,sans-Serif" font-size="11.00" fill="#000000">[table]</text>
<polygon fill="none" stroke="#000000" points="34,-711.7 34,-733.7 195,-733.7 195,-711.7 34,-711.7"/>
<image xlink:href="../../images/primaryKeys.png" width="11px" height="12px" preserveAspectRatio="xMinYMin meet" x="39" y="-728.7"/>
<text text-anchor="start" x="63" y="-718.8" font-family="Helvetica,sans-Serif" font-size="11.00" fill="#000000">id</text>
<polygon fill="#ffffff" stroke="transparent" points="34,-689.7 34,-711.7 195,-711.7 195,-689.7 34,-689.7"/>
<polygon fill="none" stroke="#000000" points="34,-689.7 34,-711.7 195,-711.7 195,-689.7 34,-689.7"/>
<text text-anchor="start" x="63" y="-696.8" font-family="Helvetica,sans-Serif" font-size="11.00" fill="#000000">code</text>
<polygon fill="#ffffff" stroke="transparent" points="34,-667.7 34,-689.7 195,-689.7 195,-667.7 34,-667.7"/>
<polygon fill="none" stroke="#000000" points="34,-667.7 34,-689.7 195,-689.7 195,-667.7 34,-667.7"/>
<text text-anchor="start" x="63" y="-674.8" font-family="Helvetica,sans-Serif" font-size="11.00" fill="#000000">sequence_number</text>
<polygon fill="none" stroke="#000000" points="34,-648.7 34,-667.7 195,-667.7 195,-648.7 34,-648.7"/>
<text text-anchor="start" x="37" y="-654.8" font-family="Helvetica,sans-Serif" font-size="11.00" fill="#000000">...</text>
<polygon fill="#ffffff" stroke="transparent" points="34,-629.7 34,-648.7 104,-648.7 104,-629.7 34,-629.7"/>
<polygon fill="none" stroke="#000000" points="34,-629.7 34,-648.7 104,-648.7 104,-629.7 34,-629.7"/>
<text text-anchor="start" x="37" y="-635.8" font-family="Helvetica,sans-Serif" font-size="11.00" fill="#000000"> &#160;</text>
<polygon fill="#ffffff" stroke="transparent" points="104,-629.7 104,-648.7 145,-648.7 145,-629.7 104,-629.7"/>
<polygon fill="none" stroke="#000000" points="104,-629.7 104,-648.7 145,-648.7 145,-629.7 104,-629.7"/>
<text text-anchor="start" x="135.8862" y="-635.8" font-family="Helvetica,sans-Serif" font-size="11.00" fill="#000000"> &#160;</text>
<polygon fill="#ffffff" stroke="transparent" points="145,-629.7 145,-648.7 195,-648.7 195,-629.7 145,-629.7"/>
<polygon fill="none" stroke="#000000" points="145,-629.7 145,-648.7 195,-648.7 195,-629.7 145,-629.7"/>
<text text-anchor="start" x="176.4053" y="-635.8" font-family="Helvetica,sans-Serif" font-size="11.00" fill="#000000">2 &gt;</text>
</a>
</g>
</g>
<!-- authorisation&#45;&gt;absence_sub_type -->
<g id="edge3" class="edge">
<title>authorisation:w&#45;&gt;absence_sub_type:e</title>
<path fill="none" stroke="#000000" d="M256.5676,-662.5707C229.2305,-674.8953 233.2185,-722.7 195,-722.7"/>
<polygon fill="#000000" stroke="#000000" points="263.1537,-661.2607 271.7023,-663.2308 267.0769,-660.4804 271,-659.7 271,-659.7 271,-659.7 267.0769,-660.4804 270.2977,-656.1692 263.1537,-661.2607 263.1537,-661.2607"/>
<ellipse fill="none" stroke="#000000" cx="260.0152" cy="-661.885" rx="3.2" ry="3.2"/>
</g>
<!-- absence_type -->
<g id="node5" class="node">
<title>absence_type</title>
<g id="a_node5"><a xlink:href="../../tables/absence_type.html" xlink:title="absence_type" target="_top">
<polygon fill="#ffffff" stroke="transparent" points="42.5,-778.2 42.5,-905.2 185.5,-905.2 185.5,-778.2 42.5,-778.2"/>
<polygon fill="#f5f5f5" stroke="transparent" points="43,-881.7 43,-904.7 186,-904.7 186,-881.7 43,-881.7"/>
<polygon fill="none" stroke="#000000" points="43,-881.7 43,-904.7 186,-904.7 186,-881.7 43,-881.7"/>
<text text-anchor="start" x="48" y="-890.3" font-family="Helvetica,sans-Serif" font-weight="bold" font-size="11.00" fill="#000000">absence_type</text>
<text text-anchor="start" x="151.0437" y="-889.8" font-family="Helvetica,sans-Serif" font-size="11.00" fill="#000000">[table]</text>
<polygon fill="none" stroke="#000000" points="43,-859.7 43,-881.7 186,-881.7 186,-859.7 43,-859.7"/>
<image xlink:href="../../images/primaryKeys.png" width="11px" height="12px" preserveAspectRatio="xMinYMin meet" x="48" y="-876.7"/>
<text text-anchor="start" x="63" y="-866.8" font-family="Helvetica,sans-Serif" font-size="11.00" fill="#000000">id</text>
<polygon fill="#ffffff" stroke="transparent" points="43,-837.7 43,-859.7 186,-859.7 186,-837.7 43,-837.7"/>
<polygon fill="none" stroke="#000000" points="43,-837.7 43,-859.7 186,-859.7 186,-837.7 43,-837.7"/>
<text text-anchor="start" x="63" y="-844.8" font-family="Helvetica,sans-Serif" font-size="11.00" fill="#000000">code</text>
<polygon fill="#ffffff" stroke="transparent" points="43,-815.7 43,-837.7 186,-837.7 186,-815.7 43,-815.7"/>
<polygon fill="none" stroke="#000000" points="43,-815.7 43,-837.7 186,-837.7 186,-815.7 43,-815.7"/>
<text text-anchor="start" x="63" y="-822.8" font-family="Helvetica,sans-Serif" font-size="11.00" fill="#000000">sequence_number</text>
<polygon fill="none" stroke="#000000" points="43,-796.7 43,-815.7 186,-815.7 186,-796.7 43,-796.7"/>
<text text-anchor="start" x="46" y="-802.8" font-family="Helvetica,sans-Serif" font-size="11.00" fill="#000000">...</text>
<polygon fill="#ffffff" stroke="transparent" points="43,-777.7 43,-796.7 104,-796.7 104,-777.7 43,-777.7"/>
<polygon fill="none" stroke="#000000" points="43,-777.7 43,-796.7 104,-796.7 104,-777.7 43,-777.7"/>
<text text-anchor="start" x="46" y="-783.8" font-family="Helvetica,sans-Serif" font-size="11.00" fill="#000000"> &#160;</text>
<polygon fill="#ffffff" stroke="transparent" points="104,-777.7 104,-796.7 140,-796.7 140,-777.7 104,-777.7"/>
<polygon fill="none" stroke="#000000" points="104,-777.7 104,-796.7 140,-796.7 140,-777.7 104,-777.7"/>
<text text-anchor="start" x="130.8862" y="-783.8" font-family="Helvetica,sans-Serif" font-size="11.00" fill="#000000"> &#160;</text>
<polygon fill="#ffffff" stroke="transparent" points="140,-777.7 140,-796.7 186,-796.7 186,-777.7 140,-777.7"/>
<polygon fill="none" stroke="#000000" points="140,-777.7 140,-796.7 186,-796.7 186,-777.7 140,-777.7"/>
<text text-anchor="start" x="167.4053" y="-783.8" font-family="Helvetica,sans-Serif" font-size="11.00" fill="#000000">2 &gt;</text>
</a>
</g>
</g>
<!-- authorisation&#45;&gt;absence_type -->
<g id="edge4" class="edge">
<title>authorisation:w&#45;&gt;absence_type:e</title>
<path fill="none" stroke="#000000" d="M257.6578,-687.9884C225.8661,-720.7828 227.0151,-870.7 186,-870.7"/>
<polygon fill="#000000" stroke="#000000" points="263.7635,-685.1107 272.5348,-684.9564 267.3817,-683.4054 271,-681.7 271,-681.7 271,-681.7 267.3817,-683.4054 269.4652,-678.4436 263.7635,-685.1107 263.7635,-685.1107"/>
<ellipse fill="none" stroke="#000000" cx="260.8689" cy="-686.475" rx="3.2" ry="3.2"/>
</g>
<!-- accompanied_by -->
<g id="node6" class="node">
<title>accompanied_by</title>
<g id="a_node6"><a xlink:href="../../tables/accompanied_by.html" xlink:title="accompanied_by" target="_top">
<polygon fill="#ffffff" stroke="transparent" points="39,-186.2 39,-313.2 189,-313.2 189,-186.2 39,-186.2"/>
<polygon fill="#f5f5f5" stroke="transparent" points="39,-289.7 39,-312.7 189,-312.7 189,-289.7 39,-289.7"/>
<polygon fill="none" stroke="#000000" points="39,-289.7 39,-312.7 189,-312.7 189,-289.7 39,-289.7"/>
<text text-anchor="start" x="44" y="-298.3" font-family="Helvetica,sans-Serif" font-weight="bold" font-size="11.00" fill="#000000">accompanied_by</text>
<text text-anchor="start" x="154.5219" y="-297.8" font-family="Helvetica,sans-Serif" font-size="11.00" fill="#000000">[table]</text>
<polygon fill="none" stroke="#000000" points="39,-267.7 39,-289.7 189,-289.7 189,-267.7 39,-267.7"/>
<image xlink:href="../../images/primaryKeys.png" width="11px" height="12px" preserveAspectRatio="xMinYMin meet" x="44" y="-284.7"/>
<text text-anchor="start" x="63" y="-274.8" font-family="Helvetica,sans-Serif" font-size="11.00" fill="#000000">id</text>
<polygon fill="#ffffff" stroke="transparent" points="39,-245.7 39,-267.7 189,-267.7 189,-245.7 39,-245.7"/>
<polygon fill="none" stroke="#000000" points="39,-245.7 39,-267.7 189,-267.7 189,-245.7 39,-245.7"/>
<text text-anchor="start" x="63" y="-252.8" font-family="Helvetica,sans-Serif" font-size="11.00" fill="#000000">code</text>
<polygon fill="#ffffff" stroke="transparent" points="39,-223.7 39,-245.7 189,-245.7 189,-223.7 39,-223.7"/>
<polygon fill="none" stroke="#000000" points="39,-223.7 39,-245.7 189,-245.7 189,-223.7 39,-223.7"/>
<text text-anchor="start" x="63" y="-230.8" font-family="Helvetica,sans-Serif" font-size="11.00" fill="#000000">sequence_number</text>
<polygon fill="none" stroke="#000000" points="39,-204.7 39,-223.7 189,-223.7 189,-204.7 39,-204.7"/>
<text text-anchor="start" x="42" y="-210.8" font-family="Helvetica,sans-Serif" font-size="11.00" fill="#000000">...</text>
<polygon fill="#ffffff" stroke="transparent" points="39,-185.7 39,-204.7 103,-204.7 103,-185.7 39,-185.7"/>
<polygon fill="none" stroke="#000000" points="39,-185.7 39,-204.7 103,-204.7 103,-185.7 39,-185.7"/>
<text text-anchor="start" x="42" y="-191.8" font-family="Helvetica,sans-Serif" font-size="11.00" fill="#000000"> &#160;</text>
<polygon fill="#ffffff" stroke="transparent" points="103,-185.7 103,-204.7 141,-204.7 141,-185.7 103,-185.7"/>
<polygon fill="none" stroke="#000000" points="103,-185.7 103,-204.7 141,-204.7 141,-185.7 103,-185.7"/>
<text text-anchor="start" x="131.8862" y="-191.8" font-family="Helvetica,sans-Serif" font-size="11.00" fill="#000000"> &#160;</text>
<polygon fill="#ffffff" stroke="transparent" points="141,-185.7 141,-204.7 189,-204.7 189,-185.7 141,-185.7"/>
<polygon fill="none" stroke="#000000" points="141,-185.7 141,-204.7 189,-204.7 189,-185.7 141,-185.7"/>
<text text-anchor="start" x="170.4053" y="-191.8" font-family="Helvetica,sans-Serif" font-size="11.00" fill="#000000">3 &gt;</text>
</a>
</g>
</g>
<!-- authorisation&#45;&gt;accompanied_by -->
<g id="edge5" class="edge">
<title>authorisation:w&#45;&gt;accompanied_by:e</title>
<path fill="none" stroke="#000000" d="M257.2768,-588.9737C217.3418,-557.1545 251.4038,-373.9317 228,-323.7 216.8227,-299.7102 215.4659,-278.7 189,-278.7"/>
<polygon fill="#000000" stroke="#000000" points="263.436,-591.0949 269.8277,-597.1038 267.218,-592.3974 271,-593.7 271,-593.7 271,-593.7 267.218,-592.3974 272.1723,-590.2962 263.436,-591.0949 263.436,-591.0949"/>
<ellipse fill="none" stroke="#000000" cx="260.4104" cy="-590.0528" rx="3.2" ry="3.2"/>
</g>
<!-- public.person_summary -->
<g id="node7" class="node">
<title>public.person_summary</title>
<g id="a_node7"><a xlink:href="../../../public/tables/person_summary.html" xlink:title="public.person_summary" target="_top">
<polygon fill="#ffffff" stroke="transparent" points="14.5,-1074.2 14.5,-1135.2 213.5,-1135.2 213.5,-1074.2 14.5,-1074.2"/>
<polygon fill="#f5f5f5" stroke="transparent" points="15,-1111.7 15,-1134.7 214,-1134.7 214,-1111.7 15,-1111.7"/>
<polygon fill="none" stroke="#000000" points="15,-1111.7 15,-1134.7 214,-1134.7 214,-1111.7 15,-1111.7"/>
<text text-anchor="start" x="20" y="-1120.3" font-family="Helvetica,sans-Serif" font-weight="bold" font-size="11.00" fill="#000000">public.person_summary</text>
<text text-anchor="start" x="179.5219" y="-1119.8" font-family="Helvetica,sans-Serif" font-size="11.00" fill="#000000">[table]</text>
<polygon fill="none" stroke="#000000" points="15,-1092.7 15,-1111.7 214,-1111.7 214,-1092.7 15,-1092.7"/>
<text text-anchor="start" x="18" y="-1098.8" font-family="Helvetica,sans-Serif" font-size="11.00" fill="#000000">...</text>
<polygon fill="#ffffff" stroke="transparent" points="15,-1073.7 15,-1092.7 91,-1092.7 91,-1073.7 15,-1073.7"/>
<polygon fill="none" stroke="#000000" points="15,-1073.7 15,-1092.7 91,-1092.7 91,-1073.7 15,-1073.7"/>
<text text-anchor="start" x="18" y="-1079.8" font-family="Helvetica,sans-Serif" font-size="11.00" fill="#000000"> &#160;</text>
<polygon fill="#ffffff" stroke="transparent" points="91,-1073.7 91,-1092.7 161,-1092.7 161,-1073.7 91,-1073.7"/>
<polygon fill="none" stroke="#000000" points="91,-1073.7 91,-1092.7 161,-1092.7 161,-1073.7 91,-1073.7"/>
<text text-anchor="start" x="125.6105" y="-1079.8" font-family="Helvetica,sans-Serif" font-size="11.00" fill="#000000">0 rows</text>
<polygon fill="#ffffff" stroke="transparent" points="161,-1073.7 161,-1092.7 214,-1092.7 214,-1073.7 161,-1073.7"/>
<polygon fill="none" stroke="#000000" points="161,-1073.7 161,-1092.7 214,-1092.7 214,-1073.7 161,-1073.7"/>
<text text-anchor="start" x="195.4053" y="-1079.8" font-family="Helvetica,sans-Serif" font-size="11.00" fill="#000000">3 &gt;</text>
</a>
</g>
</g>
<!-- authorisation&#45;&gt;public.person_summary -->
<g id="edge6" class="edge">
<title>authorisation:w&#45;&gt;public.person_summary:e</title>
<path fill="none" stroke="#000000" d="M257.1849,-752.0353C210.4894,-786.254 269.1881,-1012.8078 228,-1063.7 226.0152,-1066.1524 223.8717,-1068.4581 221.5947,-1070.626"/>
<polygon fill="#000000" stroke="#000000" points="263.367,-750.0953 272.0779,-751.1348 267.1835,-748.8977 271,-747.7 271,-747.7 271,-747.7 267.1835,-748.8977 269.9221,-744.2652 263.367,-750.0953 263.367,-750.0953"/>
<ellipse fill="none" stroke="#000000" cx="260.3138" cy="-751.0535" rx="3.2" ry="3.2"/>
</g>
<!-- authorisation_status -->
<g id="node8" class="node">
<title>authorisation_status</title>
<g id="a_node8"><a xlink:href="../../tables/authorisation_status.html" xlink:title="authorisation_status" target="_top">
<polygon fill="#ffffff" stroke="transparent" points="25,-926.2 25,-1053.2 203,-1053.2 203,-926.2 25,-926.2"/>
<polygon fill="#f5f5f5" stroke="transparent" points="25,-1029.7 25,-1052.7 203,-1052.7 203,-1029.7 25,-1029.7"/>
<polygon fill="none" stroke="#000000" points="25,-1029.7 25,-1052.7 203,-1052.7 203,-1029.7 25,-1029.7"/>
<text text-anchor="start" x="30" y="-1038.3" font-family="Helvetica,sans-Serif" font-weight="bold" font-size="11.00" fill="#000000">authorisation_status</text>
<text text-anchor="start" x="168.5219" y="-1037.8" font-family="Helvetica,sans-Serif" font-size="11.00" fill="#000000">[table]</text>
<polygon fill="none" stroke="#000000" points="25,-1007.7 25,-1029.7 203,-1029.7 203,-1007.7 25,-1007.7"/>
<image xlink:href="../../images/primaryKeys.png" width="11px" height="12px" preserveAspectRatio="xMinYMin meet" x="30" y="-1024.7"/>
<text text-anchor="start" x="54" y="-1014.8" font-family="Helvetica,sans-Serif" font-size="11.00" fill="#000000">id</text>
<polygon fill="#ffffff" stroke="transparent" points="25,-985.7 25,-1007.7 203,-1007.7 203,-985.7 25,-985.7"/>
<polygon fill="none" stroke="#000000" points="25,-985.7 25,-1007.7 203,-1007.7 203,-985.7 25,-985.7"/>
<text text-anchor="start" x="54" y="-992.8" font-family="Helvetica,sans-Serif" font-size="11.00" fill="#000000">code</text>
<polygon fill="#ffffff" stroke="transparent" points="25,-963.7 25,-985.7 203,-985.7 203,-963.7 25,-963.7"/>
<polygon fill="none" stroke="#000000" points="25,-963.7 25,-985.7 203,-985.7 203,-963.7 25,-963.7"/>
<text text-anchor="start" x="54" y="-970.8" font-family="Helvetica,sans-Serif" font-size="11.00" fill="#000000">sequence_number</text>
<polygon fill="none" stroke="#000000" points="25,-944.7 25,-963.7 203,-963.7 203,-944.7 25,-944.7"/>
<text text-anchor="start" x="28" y="-950.8" font-family="Helvetica,sans-Serif" font-size="11.00" fill="#000000">...</text>
<polygon fill="#ffffff" stroke="transparent" points="25,-925.7 25,-944.7 103,-944.7 103,-925.7 25,-925.7"/>
<polygon fill="none" stroke="#000000" points="25,-925.7 25,-944.7 103,-944.7 103,-925.7 25,-925.7"/>
<text text-anchor="start" x="28" y="-931.8" font-family="Helvetica,sans-Serif" font-size="11.00" fill="#000000"> &#160;</text>
<polygon fill="#ffffff" stroke="transparent" points="103,-925.7 103,-944.7 148,-944.7 148,-925.7 103,-925.7"/>
<polygon fill="none" stroke="#000000" points="103,-925.7 103,-944.7 148,-944.7 148,-925.7 103,-925.7"/>
<text text-anchor="start" x="138.8862" y="-931.8" font-family="Helvetica,sans-Serif" font-size="11.00" fill="#000000"> &#160;</text>
<polygon fill="#ffffff" stroke="transparent" points="148,-925.7 148,-944.7 203,-944.7 203,-925.7 148,-925.7"/>
<polygon fill="none" stroke="#000000" points="148,-925.7 148,-944.7 203,-944.7 203,-925.7 148,-925.7"/>
<text text-anchor="start" x="184.4053" y="-931.8" font-family="Helvetica,sans-Serif" font-size="11.00" fill="#000000">1 &gt;</text>
</a>
</g>
</g>
<!-- authorisation&#45;&gt;authorisation_status -->
<g id="edge7" class="edge">
<title>authorisation:w&#45;&gt;authorisation_status:e</title>
<path fill="none" stroke="#000000" d="M257.3615,-708.6479C209.7449,-748.7227 269.2975,-1018.7 203,-1018.7"/>
<polygon fill="#000000" stroke="#000000" points="263.4796,-706.4284 272.2278,-707.0842 267.2398,-705.0642 271,-703.7 271,-703.7 271,-703.7 267.2398,-705.0642 269.7722,-700.3158 263.4796,-706.4284 263.4796,-706.4284"/>
<ellipse fill="none" stroke="#000000" cx="260.4714" cy="-707.5197" rx="3.2" ry="3.2"/>
</g>
<!-- transport -->
<g id="node9" class="node">
<title>transport</title>
<g id="a_node9"><a xlink:href="../../tables/transport.html" xlink:title="transport" target="_top">
<polygon fill="#ffffff" stroke="transparent" points="42.5,-38.2 42.5,-165.2 185.5,-165.2 185.5,-38.2 42.5,-38.2"/>
<polygon fill="#f5f5f5" stroke="transparent" points="43,-141.7 43,-164.7 186,-164.7 186,-141.7 43,-141.7"/>
<polygon fill="none" stroke="#000000" points="43,-141.7 43,-164.7 186,-164.7 186,-141.7 43,-141.7"/>
<text text-anchor="start" x="48" y="-150.3" font-family="Helvetica,sans-Serif" font-weight="bold" font-size="11.00" fill="#000000">transport</text>
<text text-anchor="start" x="151.0437" y="-149.8" font-family="Helvetica,sans-Serif" font-size="11.00" fill="#000000">[table]</text>
<polygon fill="none" stroke="#000000" points="43,-119.7 43,-141.7 186,-141.7 186,-119.7 43,-119.7"/>
<image xlink:href="../../images/primaryKeys.png" width="11px" height="12px" preserveAspectRatio="xMinYMin meet" x="48" y="-136.7"/>
<text text-anchor="start" x="63" y="-126.8" font-family="Helvetica,sans-Serif" font-size="11.00" fill="#000000">id</text>
<polygon fill="#ffffff" stroke="transparent" points="43,-97.7 43,-119.7 186,-119.7 186,-97.7 43,-97.7"/>
<polygon fill="none" stroke="#000000" points="43,-97.7 43,-119.7 186,-119.7 186,-97.7 43,-97.7"/>
<text text-anchor="start" x="63" y="-104.8" font-family="Helvetica,sans-Serif" font-size="11.00" fill="#000000">code</text>
<polygon fill="#ffffff" stroke="transparent" points="43,-75.7 43,-97.7 186,-97.7 186,-75.7 43,-75.7"/>
<polygon fill="none" stroke="#000000" points="43,-75.7 43,-97.7 186,-97.7 186,-75.7 43,-75.7"/>
<text text-anchor="start" x="63" y="-82.8" font-family="Helvetica,sans-Serif" font-size="11.00" fill="#000000">sequence_number</text>
<polygon fill="none" stroke="#000000" points="43,-56.7 43,-75.7 186,-75.7 186,-56.7 43,-56.7"/>
<text text-anchor="start" x="46" y="-62.8" font-family="Helvetica,sans-Serif" font-size="11.00" fill="#000000">...</text>
<polygon fill="#ffffff" stroke="transparent" points="43,-37.7 43,-56.7 104,-56.7 104,-37.7 43,-37.7"/>
<polygon fill="none" stroke="#000000" points="43,-37.7 43,-56.7 104,-56.7 104,-37.7 43,-37.7"/>
<text text-anchor="start" x="46" y="-43.8" font-family="Helvetica,sans-Serif" font-size="11.00" fill="#000000"> &#160;</text>
<polygon fill="#ffffff" stroke="transparent" points="104,-37.7 104,-56.7 140,-56.7 140,-37.7 104,-37.7"/>
<polygon fill="none" stroke="#000000" points="104,-37.7 104,-56.7 140,-56.7 140,-37.7 104,-37.7"/>
<text text-anchor="start" x="130.8862" y="-43.8" font-family="Helvetica,sans-Serif" font-size="11.00" fill="#000000"> &#160;</text>
<polygon fill="#ffffff" stroke="transparent" points="140,-37.7 140,-56.7 186,-56.7 186,-37.7 140,-37.7"/>
<polygon fill="none" stroke="#000000" points="140,-37.7 140,-56.7 186,-56.7 186,-37.7 140,-37.7"/>
<text text-anchor="start" x="167.4053" y="-43.8" font-family="Helvetica,sans-Serif" font-size="11.00" fill="#000000">2 &gt;</text>
</a>
</g>
</g>
<!-- authorisation&#45;&gt;transport -->
<g id="edge8" class="edge">
<title>authorisation:w&#45;&gt;transport:e</title>
<path fill="none" stroke="#000000" d="M256.7368,-568.3521C192.0214,-534.3537 262.6317,-251.3034 228,-175.7 216.6067,-150.8276 213.3577,-130.7 186,-130.7"/>
<polygon fill="#000000" stroke="#000000" points="263.2117,-569.8719 270.1773,-575.2048 267.1058,-570.7859 271,-571.7 271,-571.7 271,-571.7 267.1058,-570.7859 271.8227,-568.1952 263.2117,-569.8719 263.2117,-569.8719"/>
<ellipse fill="none" stroke="#000000" cx="260.0963" cy="-569.1406" rx="3.2" ry="3.2"/>
</g>
</g>
</svg>
