<?xml version="1.0" encoding="UTF-8" standalone="no"?>
<!DOCTYPE svg PUBLIC "-//W3C//DTD SVG 1.1//EN"
 "http://www.w3.org/Graphics/SVG/1.1/DTD/svg11.dtd">
<!-- Generated by graphviz version 2.40.1 (20161225.0304)
 -->
<!-- Title: twoDegreesRelationshipsDiagram Pages: 1 -->
<svg width="568pt" height="805pt"
 viewBox="0.00 0.00 568.00 804.70" xmlns="http://www.w3.org/2000/svg" xmlns:xlink="http://www.w3.org/1999/xlink">
<g id="graph0" class="graph" transform="scale(1 1) rotate(0) translate(4 800.7)">
<title>twoDegreesRelationshipsDiagram</title>
<polygon fill="#ffffff" stroke="transparent" points="-4,4 -4,-800.7 564,-800.7 564,4 -4,4"/>
<text text-anchor="middle" x="72.4936" y="-7.3" font-family="Helvetica,sans-Serif" font-size="11.00" fill="#000000">Generated by SchemaSpy</text>
<!-- authorisation_audit -->
<g id="node1" class="node">
<title>authorisation_audit</title>
<g id="a_node1"><a xlink:href="../../tables/authorisation_audit.html" xlink:title="authorisation_audit" target="_top">
<polygon fill="#ffffff" stroke="transparent" points="236,-284.7 236,-792.7 552,-792.7 552,-284.7 236,-284.7"/>
<polygon fill="#f5f5f5" stroke="transparent" points="238,-767.7 238,-790.7 550,-790.7 550,-767.7 238,-767.7"/>
<polygon fill="none" stroke="#000000" points="238,-767.7 238,-790.7 550,-790.7 550,-767.7 238,-767.7"/>
<text text-anchor="start" x="243" y="-776.3" font-family="Helvetica,sans-Serif" font-weight="bold" font-size="11.00" fill="#000000">authorisation_audit</text>
<text text-anchor="start" x="515.0437" y="-775.8" font-family="Helvetica,sans-Serif" font-size="11.00" fill="#000000">[table]</text>
<polygon fill="none" stroke="#000000" points="238,-745.7 238,-767.7 451,-767.7 451,-745.7 238,-745.7"/>
<image xlink:href="../../images/primaryKeys.png" width="11px" height="12px" preserveAspectRatio="xMinYMin meet" x="243" y="-762.7"/>
<text text-anchor="start" x="258" y="-752.8" font-family="Helvetica,sans-Serif" font-size="11.00" fill="#000000">rev_id</text>
<polygon fill="none" stroke="#000000" points="451,-745.7 451,-767.7 550,-767.7 550,-745.7 451,-745.7"/>
<text text-anchor="start" x="454" y="-753.4" font-family="Helvetica,sans-Serif" font-size="11.00" fill="#000000">int8[19]</text>
<polygon fill="none" stroke="#000000" points="238,-723.7 238,-745.7 451,-745.7 451,-723.7 238,-723.7"/>
<text text-anchor="start" x="258" y="-730.8" font-family="Helvetica,sans-Serif" font-size="11.00" fill="#000000">rev_type</text>
<polygon fill="none" stroke="#000000" points="451,-723.7 451,-745.7 550,-745.7 550,-723.7 451,-723.7"/>
<text text-anchor="start" x="454" y="-731.4" font-family="Helvetica,sans-Serif" font-size="11.00" fill="#000000">int2[5]</text>
<polygon fill="none" stroke="#000000" points="238,-701.7 238,-723.7 451,-723.7 451,-701.7 238,-701.7"/>
<image xlink:href="../../images/primaryKeys.png" width="11px" height="12px" preserveAspectRatio="xMinYMin meet" x="243" y="-718.7"/>
<text text-anchor="start" x="258" y="-708.8" font-family="Helvetica,sans-Serif" font-size="11.00" fill="#000000">id</text>
<polygon fill="none" stroke="#000000" points="451,-701.7 451,-723.7 550,-723.7 550,-701.7 451,-701.7"/>
<text text-anchor="start" x="454" y="-709.4" font-family="Helvetica,sans-Serif" font-size="11.00" fill="#000000">uuid[2147483647]</text>
<polygon fill="none" stroke="#000000" points="238,-679.7 238,-701.7 451,-701.7 451,-679.7 238,-679.7"/>
<text text-anchor="start" x="258" y="-686.8" font-family="Helvetica,sans-Serif" font-size="11.00" fill="#000000">version</text>
<polygon fill="none" stroke="#000000" points="451,-679.7 451,-701.7 550,-701.7 550,-679.7 451,-679.7"/>
<text text-anchor="start" x="454" y="-687.4" font-family="Helvetica,sans-Serif" font-size="11.00" fill="#000000">int4[10]</text>
<polygon fill="none" stroke="#000000" points="238,-657.7 238,-679.7 451,-679.7 451,-657.7 238,-657.7"/>
<text text-anchor="start" x="258" y="-664.8" font-family="Helvetica,sans-Serif" font-size="11.00" fill="#000000">person_identifier</text>
<polygon fill="none" stroke="#000000" points="451,-657.7 451,-679.7 550,-679.7 550,-657.7 451,-657.7"/>
<text text-anchor="start" x="454" y="-665.4" font-family="Helvetica,sans-Serif" font-size="11.00" fill="#000000">varchar[10]</text>
<polygon fill="none" stroke="#000000" points="238,-635.7 238,-657.7 451,-657.7 451,-635.7 238,-635.7"/>
<image xlink:href="../../images/foreignKeys.png" width="11px" height="12px" preserveAspectRatio="xMinYMin meet" x="243" y="-652.7"/>
<text text-anchor="start" x="258" y="-642.8" font-family="Helvetica,sans-Serif" font-size="11.00" fill="#000000">prison_code</text>
<polygon fill="none" stroke="#000000" points="451,-635.7 451,-657.7 550,-657.7 550,-635.7 451,-635.7"/>
<text text-anchor="start" x="454" y="-643.4" font-family="Helvetica,sans-Serif" font-size="11.00" fill="#000000">varchar[6]</text>
<polygon fill="none" stroke="#000000" points="238,-613.7 238,-635.7 451,-635.7 451,-613.7 238,-613.7"/>
<text text-anchor="start" x="258" y="-620.8" font-family="Helvetica,sans-Serif" font-size="11.00" fill="#000000">status_id</text>
<polygon fill="none" stroke="#000000" points="451,-613.7 451,-635.7 550,-635.7 550,-613.7 451,-613.7"/>
<text text-anchor="start" x="454" y="-621.4" font-family="Helvetica,sans-Serif" font-size="11.00" fill="#000000">uuid[2147483647]</text>
<polygon fill="none" stroke="#000000" points="238,-591.7 238,-613.7 451,-613.7 451,-591.7 238,-591.7"/>
<text text-anchor="start" x="258" y="-598.8" font-family="Helvetica,sans-Serif" font-size="11.00" fill="#000000">absence_type_id</text>
<polygon fill="none" stroke="#000000" points="451,-591.7 451,-613.7 550,-613.7 550,-591.7 451,-591.7"/>
<text text-anchor="start" x="454" y="-599.4" font-family="Helvetica,sans-Serif" font-size="11.00" fill="#000000">uuid[2147483647]</text>
<polygon fill="none" stroke="#000000" points="238,-569.7 238,-591.7 451,-591.7 451,-569.7 238,-569.7"/>
<text text-anchor="start" x="258" y="-576.8" font-family="Helvetica,sans-Serif" font-size="11.00" fill="#000000">absence_sub_type_id</text>
<polygon fill="none" stroke="#000000" points="451,-569.7 451,-591.7 550,-591.7 550,-569.7 451,-569.7"/>
<text text-anchor="start" x="454" y="-577.4" font-family="Helvetica,sans-Serif" font-size="11.00" fill="#000000">uuid[2147483647]</text>
<polygon fill="none" stroke="#000000" points="238,-547.7 238,-569.7 451,-569.7 451,-547.7 238,-547.7"/>
<text text-anchor="start" x="258" y="-554.8" font-family="Helvetica,sans-Serif" font-size="11.00" fill="#000000">absence_reason_category_id</text>
<polygon fill="none" stroke="#000000" points="451,-547.7 451,-569.7 550,-569.7 550,-547.7 451,-547.7"/>
<text text-anchor="start" x="454" y="-555.4" font-family="Helvetica,sans-Serif" font-size="11.00" fill="#000000">uuid[2147483647]</text>
<polygon fill="none" stroke="#000000" points="238,-525.7 238,-547.7 451,-547.7 451,-525.7 238,-525.7"/>
<text text-anchor="start" x="258" y="-532.8" font-family="Helvetica,sans-Serif" font-size="11.00" fill="#000000">absence_reason_id</text>
<polygon fill="none" stroke="#000000" points="451,-525.7 451,-547.7 550,-547.7 550,-525.7 451,-525.7"/>
<text text-anchor="start" x="454" y="-533.4" font-family="Helvetica,sans-Serif" font-size="11.00" fill="#000000">uuid[2147483647]</text>
<polygon fill="none" stroke="#000000" points="238,-503.7 238,-525.7 451,-525.7 451,-503.7 238,-503.7"/>
<text text-anchor="start" x="258" y="-510.8" font-family="Helvetica,sans-Serif" font-size="11.00" fill="#000000">accompanied_by_id</text>
<polygon fill="none" stroke="#000000" points="451,-503.7 451,-525.7 550,-525.7 550,-503.7 451,-503.7"/>
<text text-anchor="start" x="454" y="-511.4" font-family="Helvetica,sans-Serif" font-size="11.00" fill="#000000">uuid[2147483647]</text>
<polygon fill="none" stroke="#000000" points="238,-481.7 238,-503.7 451,-503.7 451,-481.7 238,-481.7"/>
<text text-anchor="start" x="258" y="-488.8" font-family="Helvetica,sans-Serif" font-size="11.00" fill="#000000">transport_id</text>
<polygon fill="none" stroke="#000000" points="451,-481.7 451,-503.7 550,-503.7 550,-481.7 451,-481.7"/>
<text text-anchor="start" x="454" y="-489.4" font-family="Helvetica,sans-Serif" font-size="11.00" fill="#000000">uuid[2147483647]</text>
<polygon fill="none" stroke="#000000" points="238,-459.7 238,-481.7 451,-481.7 451,-459.7 238,-459.7"/>
<text text-anchor="start" x="258" y="-466.8" font-family="Helvetica,sans-Serif" font-size="11.00" fill="#000000">start</text>
<polygon fill="none" stroke="#000000" points="451,-459.7 451,-481.7 550,-481.7 550,-459.7 451,-459.7"/>
<text text-anchor="start" x="454" y="-467.4" font-family="Helvetica,sans-Serif" font-size="11.00" fill="#000000">date[13]</text>
<polygon fill="none" stroke="#000000" points="238,-437.7 238,-459.7 451,-459.7 451,-437.7 238,-437.7"/>
<text text-anchor="start" x="258" y="-444.8" font-family="Helvetica,sans-Serif" font-size="11.00" fill="#000000">end</text>
<polygon fill="none" stroke="#000000" points="451,-437.7 451,-459.7 550,-459.7 550,-437.7 451,-437.7"/>
<text text-anchor="start" x="454" y="-445.4" font-family="Helvetica,sans-Serif" font-size="11.00" fill="#000000">date[13]</text>
<polygon fill="none" stroke="#000000" points="238,-415.7 238,-437.7 451,-437.7 451,-415.7 238,-415.7"/>
<text text-anchor="start" x="258" y="-422.8" font-family="Helvetica,sans-Serif" font-size="11.00" fill="#000000">repeat</text>
<polygon fill="none" stroke="#000000" points="451,-415.7 451,-437.7 550,-437.7 550,-415.7 451,-415.7"/>
<text text-anchor="start" x="454" y="-423.4" font-family="Helvetica,sans-Serif" font-size="11.00" fill="#000000">bool[1]</text>
<polygon fill="none" stroke="#000000" points="238,-393.7 238,-415.7 451,-415.7 451,-393.7 238,-393.7"/>
<text text-anchor="start" x="258" y="-400.8" font-family="Helvetica,sans-Serif" font-size="11.00" fill="#000000">comments</text>
<polygon fill="none" stroke="#000000" points="451,-393.7 451,-415.7 550,-415.7 550,-393.7 451,-393.7"/>
<text text-anchor="start" x="454" y="-401.4" font-family="Helvetica,sans-Serif" font-size="11.00" fill="#000000">text[2147483647]</text>
<polygon fill="none" stroke="#000000" points="238,-371.7 238,-393.7 451,-393.7 451,-371.7 238,-371.7"/>
<text text-anchor="start" x="258" y="-378.8" font-family="Helvetica,sans-Serif" font-size="11.00" fill="#000000">reason_path</text>
<polygon fill="none" stroke="#000000" points="451,-371.7 451,-393.7 550,-393.7 550,-371.7 451,-371.7"/>
<text text-anchor="start" x="453.7258" y="-379.4" font-family="Helvetica,sans-Serif" font-size="11.00" fill="#000000">jsonb[2147483647]</text>
<polygon fill="none" stroke="#000000" points="238,-349.7 238,-371.7 451,-371.7 451,-349.7 238,-349.7"/>
<text text-anchor="start" x="258" y="-356.8" font-family="Helvetica,sans-Serif" font-size="11.00" fill="#000000">schedule</text>
<polygon fill="none" stroke="#000000" points="451,-349.7 451,-371.7 550,-371.7 550,-349.7 451,-349.7"/>
<text text-anchor="start" x="453.7258" y="-357.4" font-family="Helvetica,sans-Serif" font-size="11.00" fill="#000000">jsonb[2147483647]</text>
<polygon fill="none" stroke="#000000" points="238,-327.7 238,-349.7 451,-349.7 451,-327.7 238,-327.7"/>
<text text-anchor="start" x="258" y="-334.8" font-family="Helvetica,sans-Serif" font-size="11.00" fill="#000000">legacy_id</text>
<polygon fill="none" stroke="#000000" points="451,-327.7 451,-349.7 550,-349.7 550,-327.7 451,-327.7"/>
<text text-anchor="start" x="454" y="-335.4" font-family="Helvetica,sans-Serif" font-size="11.00" fill="#000000">int8[19]</text>
<polygon fill="none" stroke="#000000" points="238,-305.7 238,-327.7 451,-327.7 451,-305.7 238,-305.7"/>
<text text-anchor="start" x="258" y="-312.8" font-family="Helvetica,sans-Serif" font-size="11.00" fill="#000000">locations</text>
<polygon fill="none" stroke="#000000" points="451,-305.7 451,-327.7 550,-327.7 550,-305.7 451,-305.7"/>
<text text-anchor="start" x="453.7258" y="-313.4" font-family="Helvetica,sans-Serif" font-size="11.00" fill="#000000">jsonb[2147483647]</text>
<polygon fill="#ffffff" stroke="transparent" points="238,-286.7 238,-305.7 349,-305.7 349,-286.7 238,-286.7"/>
<polygon fill="none" stroke="#000000" points="238,-286.7 238,-305.7 349,-305.7 349,-286.7 238,-286.7"/>
<text text-anchor="start" x="241" y="-292.8" font-family="Helvetica,sans-Serif" font-size="11.00" fill="#000000">&lt; 1</text>
<polygon fill="#ffffff" stroke="transparent" points="349,-286.7 349,-305.7 451,-305.7 451,-286.7 349,-286.7"/>
<polygon fill="none" stroke="#000000" points="349,-286.7 349,-305.7 451,-305.7 451,-286.7 349,-286.7"/>
<text text-anchor="start" x="441.8862" y="-292.8" font-family="Helvetica,sans-Serif" font-size="11.00" fill="#000000"> &#160;</text>
<polygon fill="#ffffff" stroke="transparent" points="451,-286.7 451,-305.7 550,-305.7 550,-286.7 451,-286.7"/>
<polygon fill="none" stroke="#000000" points="451,-286.7 451,-305.7 550,-305.7 550,-286.7 451,-286.7"/>
<text text-anchor="start" x="531.4053" y="-292.8" font-family="Helvetica,sans-Serif" font-size="11.00" fill="#000000">0 &gt;</text>
<polygon fill="none" stroke="#000000" stroke-width="2" points="237,-285.7 237,-791.7 551,-791.7 551,-285.7 237,-285.7"/>
</a>
</g>
</g>
<!-- public.audit_revision -->
<g id="node2" class="node">
<title>public.audit_revision</title>
<g id="a_node2"><a xlink:href="../../../public/tables/audit_revision.html" xlink:title="public.audit_revision" target="_top">
<polygon fill="#ffffff" stroke="transparent" points="8,-158.2 8,-219.2 187,-219.2 187,-158.2 8,-158.2"/>
<polygon fill="#f5f5f5" stroke="transparent" points="8.5,-195.7 8.5,-218.7 187.5,-218.7 187.5,-195.7 8.5,-195.7"/>
<polygon fill="none" stroke="#000000" points="8.5,-195.7 8.5,-218.7 187.5,-218.7 187.5,-195.7 8.5,-195.7"/>
<text text-anchor="start" x="13.5" y="-204.3" font-family="Helvetica,sans-Serif" font-weight="bold" font-size="11.00" fill="#000000">public.audit_revision</text>
<text text-anchor="start" x="153.0219" y="-203.8" font-family="Helvetica,sans-Serif" font-size="11.00" fill="#000000">[table]</text>
<polygon fill="none" stroke="#000000" points="8.5,-176.7 8.5,-195.7 187.5,-195.7 187.5,-176.7 8.5,-176.7"/>
<text text-anchor="start" x="11.5" y="-182.8" font-family="Helvetica,sans-Serif" font-size="11.00" fill="#000000">...</text>
<polygon fill="#ffffff" stroke="transparent" points="8.5,-157.7 8.5,-176.7 74.5,-176.7 74.5,-157.7 8.5,-157.7"/>
<polygon fill="none" stroke="#000000" points="8.5,-157.7 8.5,-176.7 74.5,-176.7 74.5,-157.7 8.5,-157.7"/>
<text text-anchor="start" x="11.5" y="-163.8" font-family="Helvetica,sans-Serif" font-size="11.00" fill="#000000"> &#160;</text>
<polygon fill="#ffffff" stroke="transparent" points="74.5,-157.7 74.5,-176.7 139.5,-176.7 139.5,-157.7 74.5,-157.7"/>
<polygon fill="none" stroke="#000000" points="74.5,-157.7 74.5,-176.7 139.5,-176.7 139.5,-157.7 74.5,-157.7"/>
<text text-anchor="start" x="104.1105" y="-163.8" font-family="Helvetica,sans-Serif" font-size="11.00" fill="#000000">0 rows</text>
<polygon fill="#ffffff" stroke="transparent" points="139.5,-157.7 139.5,-176.7 187.5,-176.7 187.5,-157.7 139.5,-157.7"/>
<polygon fill="none" stroke="#000000" points="139.5,-157.7 139.5,-176.7 187.5,-176.7 187.5,-157.7 139.5,-157.7"/>
<text text-anchor="start" x="168.9053" y="-163.8" font-family="Helvetica,sans-Serif" font-size="11.00" fill="#000000">4 &gt;</text>
</a>
</g>
</g>
<!-- authorisation_audit&#45;&gt;public.audit_revision -->
<g id="edge1" class="edge">
<title>authorisation_audit:w&#45;&gt;public.audit_revision:e</title>
<path fill="none" stroke="#000000" d="M223.6286,-754.281C125.3956,-720.4423 103.1398,-341.1573 98.5817,-223.3759"/>
<polygon fill="#000000" stroke="#000000" points="230.111,-755.3721 237.4024,-760.2501 234.0555,-756.036 238,-756.7 238,-756.7 238,-756.7 234.0555,-756.036 238.5976,-753.1499 230.111,-755.3721 230.111,-755.3721"/>
<ellipse fill="none" stroke="#000000" cx="226.9554" cy="-754.8409" rx="3.2" ry="3.2"/>
</g>
<!-- movement_audit -->
<g id="node3" class="node">
<title>movement_audit</title>
<g id="a_node3"><a xlink:href="../../tables/movement_audit.html" xlink:title="movement_audit" target="_top">
<polygon fill="#ffffff" stroke="transparent" points="318.5,-202.2 318.5,-263.2 469.5,-263.2 469.5,-202.2 318.5,-202.2"/>
<polygon fill="#f5f5f5" stroke="transparent" points="319,-239.7 319,-262.7 470,-262.7 470,-239.7 319,-239.7"/>
<polygon fill="none" stroke="#000000" points="319,-239.7 319,-262.7 470,-262.7 470,-239.7 319,-239.7"/>
<text text-anchor="start" x="324" y="-248.3" font-family="Helvetica,sans-Serif" font-weight="bold" font-size="11.00" fill="#000000">movement_audit</text>
<text text-anchor="start" x="435.5219" y="-247.8" font-family="Helvetica,sans-Serif" font-size="11.00" fill="#000000">[table]</text>
<polygon fill="none" stroke="#000000" points="319,-220.7 319,-239.7 470,-239.7 470,-220.7 319,-220.7"/>
<text text-anchor="start" x="322" y="-226.8" font-family="Helvetica,sans-Serif" font-size="11.00" fill="#000000">...</text>
<polygon fill="#ffffff" stroke="transparent" points="319,-201.7 319,-220.7 393,-220.7 393,-201.7 319,-201.7"/>
<polygon fill="none" stroke="#000000" points="319,-201.7 319,-220.7 393,-220.7 393,-201.7 319,-201.7"/>
<text text-anchor="start" x="322" y="-207.8" font-family="Helvetica,sans-Serif" font-size="11.00" fill="#000000">&lt; 1</text>
<polygon fill="#ffffff" stroke="transparent" points="393,-201.7 393,-220.7 431,-220.7 431,-201.7 393,-201.7"/>
<polygon fill="none" stroke="#000000" points="393,-201.7 393,-220.7 431,-220.7 431,-201.7 393,-201.7"/>
<text text-anchor="start" x="421.8862" y="-207.8" font-family="Helvetica,sans-Serif" font-size="11.00" fill="#000000"> &#160;</text>
<polygon fill="#ffffff" stroke="transparent" points="431,-201.7 431,-220.7 470,-220.7 470,-201.7 431,-201.7"/>
<polygon fill="none" stroke="#000000" points="431,-201.7 431,-220.7 470,-220.7 470,-201.7 431,-201.7"/>
<text text-anchor="start" x="460.8862" y="-207.8" font-family="Helvetica,sans-Serif" font-size="11.00" fill="#000000"> &#160;</text>
</a>
</g>
</g>
<!-- movement_audit&#45;&gt;public.audit_revision -->
<g id="edge2" class="edge">
<title>movement_audit:w&#45;&gt;public.audit_revision:e</title>
<path fill="none" stroke="#000000" d="M304.467,-229.4262C267.6837,-228.074 229.018,-221.8849 195.1936,-214.724"/>
<polygon fill="#000000" stroke="#000000" points="311.0014,-229.5493 318.9322,-233.2994 315.0007,-229.6246 319,-229.7 319,-229.7 319,-229.7 315.0007,-229.6246 319.0678,-226.1006 311.0014,-229.5493 311.0014,-229.5493"/>
<ellipse fill="none" stroke="#000000" cx="307.802" cy="-229.489" rx="3.2" ry="3.2"/>
</g>
<!-- occurrence_audit -->
<g id="node4" class="node">
<title>occurrence_audit</title>
<g id="a_node4"><a xlink:href="../../tables/occurrence_audit.html" xlink:title="occurrence_audit" target="_top">
<polygon fill="#ffffff" stroke="transparent" points="317,-120.2 317,-181.2 471,-181.2 471,-120.2 317,-120.2"/>
<polygon fill="#f5f5f5" stroke="transparent" points="317,-157.7 317,-180.7 471,-180.7 471,-157.7 317,-157.7"/>
<polygon fill="none" stroke="#000000" points="317,-157.7 317,-180.7 471,-180.7 471,-157.7 317,-157.7"/>
<text text-anchor="start" x="322" y="-166.3" font-family="Helvetica,sans-Serif" font-weight="bold" font-size="11.00" fill="#000000">occurrence_audit</text>
<text text-anchor="start" x="436.5219" y="-165.8" font-family="Helvetica,sans-Serif" font-size="11.00" fill="#000000">[table]</text>
<polygon fill="none" stroke="#000000" points="317,-138.7 317,-157.7 471,-157.7 471,-138.7 317,-138.7"/>
<text text-anchor="start" x="320" y="-144.8" font-family="Helvetica,sans-Serif" font-size="11.00" fill="#000000">...</text>
<polygon fill="#ffffff" stroke="transparent" points="317,-119.7 317,-138.7 392,-138.7 392,-119.7 317,-119.7"/>
<polygon fill="none" stroke="#000000" points="317,-119.7 317,-138.7 392,-138.7 392,-119.7 317,-119.7"/>
<text text-anchor="start" x="320" y="-125.8" font-family="Helvetica,sans-Serif" font-size="11.00" fill="#000000">&lt; 1</text>
<polygon fill="#ffffff" stroke="transparent" points="392,-119.7 392,-138.7 431,-138.7 431,-119.7 392,-119.7"/>
<polygon fill="none" stroke="#000000" points="392,-119.7 392,-138.7 431,-138.7 431,-119.7 392,-119.7"/>
<text text-anchor="start" x="421.8862" y="-125.8" font-family="Helvetica,sans-Serif" font-size="11.00" fill="#000000"> &#160;</text>
<polygon fill="#ffffff" stroke="transparent" points="431,-119.7 431,-138.7 471,-138.7 471,-119.7 431,-119.7"/>
<polygon fill="none" stroke="#000000" points="431,-119.7 431,-138.7 471,-138.7 471,-119.7 431,-119.7"/>
<text text-anchor="start" x="461.8862" y="-125.8" font-family="Helvetica,sans-Serif" font-size="11.00" fill="#000000"> &#160;</text>
</a>
</g>
</g>
<!-- occurrence_audit&#45;&gt;public.audit_revision -->
<g id="edge3" class="edge">
<title>occurrence_audit:w&#45;&gt;public.audit_revision:e</title>
<path fill="none" stroke="#000000" d="M302.2177,-147.9879C266.1663,-149.3574 228.3219,-155.4396 195.1151,-162.5019"/>
<polygon fill="#000000" stroke="#000000" points="309.0015,-147.8558 317.0701,-151.2993 313.0008,-147.7779 317,-147.7 317,-147.7 317,-147.7 313.0008,-147.7779 316.9299,-144.1007 309.0015,-147.8558 309.0015,-147.8558"/>
<ellipse fill="none" stroke="#000000" cx="305.8021" cy="-147.9182" rx="3.2" ry="3.2"/>
</g>
<!-- prison_tap_locations_audit -->
<g id="node5" class="node">
<title>prison_tap_locations_audit</title>
<g id="a_node5"><a xlink:href="../../tables/prison_tap_locations_audit.html" xlink:title="prison_tap_locations_audit" target="_top">
<polygon fill="#ffffff" stroke="transparent" points="285,-38.2 285,-99.2 503,-99.2 503,-38.2 285,-38.2"/>
<polygon fill="#f5f5f5" stroke="transparent" points="285,-75.7 285,-98.7 503,-98.7 503,-75.7 285,-75.7"/>
<polygon fill="none" stroke="#000000" points="285,-75.7 285,-98.7 503,-98.7 503,-75.7 285,-75.7"/>
<text text-anchor="start" x="290" y="-84.3" font-family="Helvetica,sans-Serif" font-weight="bold" font-size="11.00" fill="#000000">prison_tap_locations_audit</text>
<text text-anchor="start" x="468.5219" y="-83.8" font-family="Helvetica,sans-Serif" font-size="11.00" fill="#000000">[table]</text>
<polygon fill="none" stroke="#000000" points="285,-56.7 285,-75.7 503,-75.7 503,-56.7 285,-56.7"/>
<text text-anchor="start" x="288" y="-62.8" font-family="Helvetica,sans-Serif" font-size="11.00" fill="#000000">...</text>
<polygon fill="#ffffff" stroke="transparent" points="285,-37.7 285,-56.7 392,-56.7 392,-37.7 285,-37.7"/>
<polygon fill="none" stroke="#000000" points="285,-37.7 285,-56.7 392,-56.7 392,-37.7 285,-37.7"/>
<text text-anchor="start" x="288" y="-43.8" font-family="Helvetica,sans-Serif" font-size="11.00" fill="#000000">&lt; 1</text>
<polygon fill="#ffffff" stroke="transparent" points="392,-37.7 392,-56.7 447,-56.7 447,-37.7 392,-37.7"/>
<polygon fill="none" stroke="#000000" points="392,-37.7 392,-56.7 447,-56.7 447,-37.7 392,-37.7"/>
<text text-anchor="start" x="437.8862" y="-43.8" font-family="Helvetica,sans-Serif" font-size="11.00" fill="#000000"> &#160;</text>
<polygon fill="#ffffff" stroke="transparent" points="447,-37.7 447,-56.7 503,-56.7 503,-37.7 447,-37.7"/>
<polygon fill="none" stroke="#000000" points="447,-37.7 447,-56.7 503,-56.7 503,-37.7 447,-37.7"/>
<text text-anchor="start" x="493.8862" y="-43.8" font-family="Helvetica,sans-Serif" font-size="11.00" fill="#000000"> &#160;</text>
</a>
</g>
</g>
<!-- prison_tap_locations_audit&#45;&gt;public.audit_revision -->
<g id="edge4" class="edge">
<title>prison_tap_locations_audit:w&#45;&gt;public.audit_revision:e</title>
<path fill="none" stroke="#000000" d="M270.2838,-66.5757C211.2171,-73.5356 157.7799,-120.5011 126.4598,-154.1103"/>
<polygon fill="#000000" stroke="#000000" points="277.0141,-66.1753 285.2139,-69.2936 281.0071,-65.9376 285,-65.7 285,-65.7 285,-65.7 281.0071,-65.9376 284.7861,-62.1064 277.0141,-66.1753 277.0141,-66.1753"/>
<ellipse fill="none" stroke="#000000" cx="273.8198" cy="-66.3654" rx="3.2" ry="3.2"/>
</g>
</g>
</svg>
