<?xml version="1.0" encoding="UTF-8" standalone="no"?>
<!DOCTYPE svg PUBLIC "-//W3C//DTD SVG 1.1//EN"
 "http://www.w3.org/Graphics/SVG/1.1/DTD/svg11.dtd">
<!-- Generated by graphviz version 2.40.1 (20161225.0304)
 -->
<!-- Title: oneDegreeRelationshipsDiagram Pages: 1 -->
<svg width="544pt" height="397pt"
 viewBox="0.00 0.00 544.00 397.20" xmlns="http://www.w3.org/2000/svg" xmlns:xlink="http://www.w3.org/1999/xlink">
<g id="graph0" class="graph" transform="scale(1 1) rotate(0) translate(4 393.2)">
<title>oneDegreeRelationshipsDiagram</title>
<polygon fill="#ffffff" stroke="transparent" points="-4,4 -4,-393.2 540,-393.2 540,4 -4,4"/>
<text text-anchor="middle" x="72.4936" y="-7.3" font-family="Helvetica,sans-Serif" font-size="11.00" fill="#000000">Generated by SchemaSpy</text>
<!-- authorisation -->
<g id="node1" class="node">
<title>authorisation</title>
<g id="a_node1"><a xlink:href="../../tables/authorisation.html" xlink:title="authorisation" target="_top">
<polygon fill="#ffffff" stroke="transparent" points="315,-38.2 315,-385.2 528,-385.2 528,-38.2 315,-38.2"/>
<polygon fill="#f5f5f5" stroke="transparent" points="315.5,-361.7 315.5,-384.7 528.5,-384.7 528.5,-361.7 315.5,-361.7"/>
<polygon fill="none" stroke="#000000" points="315.5,-361.7 315.5,-384.7 528.5,-384.7 528.5,-361.7 315.5,-361.7"/>
<text text-anchor="start" x="320.5" y="-370.3" font-family="Helvetica,sans-Serif" font-weight="bold" font-size="11.00" fill="#000000">authorisation</text>
<text text-anchor="start" x="493.5437" y="-369.8" font-family="Helvetica,sans-Serif" font-size="11.00" fill="#000000">[table]</text>
<polygon fill="none" stroke="#000000" points="315.5,-339.7 315.5,-361.7 528.5,-361.7 528.5,-339.7 315.5,-339.7"/>
<image xlink:href="../../images/primaryKeys.png" width="11px" height="12px" preserveAspectRatio="xMinYMin meet" x="320.5" y="-356.7"/>
<text text-anchor="start" x="335.5" y="-346.8" font-family="Helvetica,sans-Serif" font-size="11.00" fill="#000000">id</text>
<polygon fill="#ffffff" stroke="transparent" points="315.5,-317.7 315.5,-339.7 528.5,-339.7 528.5,-317.7 315.5,-317.7"/>
<polygon fill="none" stroke="#000000" points="315.5,-317.7 315.5,-339.7 528.5,-339.7 528.5,-317.7 315.5,-317.7"/>
<text text-anchor="start" x="335.5" y="-324.8" font-family="Helvetica,sans-Serif" font-size="11.00" fill="#000000">person_identifier</text>
<polygon fill="#ffffff" stroke="transparent" points="315.5,-295.7 315.5,-317.7 528.5,-317.7 528.5,-295.7 315.5,-295.7"/>
<polygon fill="none" stroke="#000000" points="315.5,-295.7 315.5,-317.7 528.5,-317.7 528.5,-295.7 315.5,-295.7"/>
<text text-anchor="start" x="335.5" y="-302.8" font-family="Helvetica,sans-Serif" font-size="11.00" fill="#000000">prison_code</text>
<polygon fill="#ffffff" stroke="transparent" points="315.5,-273.7 315.5,-295.7 528.5,-295.7 528.5,-273.7 315.5,-273.7"/>
<polygon fill="none" stroke="#000000" points="315.5,-273.7 315.5,-295.7 528.5,-295.7 528.5,-273.7 315.5,-273.7"/>
<image xlink:href="../../images/foreignKeys.png" width="11px" height="12px" preserveAspectRatio="xMinYMin meet" x="320.5" y="-290.7"/>
<text text-anchor="start" x="335.5" y="-280.8" font-family="Helvetica,sans-Serif" font-size="11.00" fill="#000000">status_id</text>
<polygon fill="none" stroke="#000000" points="315.5,-251.7 315.5,-273.7 528.5,-273.7 528.5,-251.7 315.5,-251.7"/>
<image xlink:href="../../images/foreignKeys.png" width="11px" height="12px" preserveAspectRatio="xMinYMin meet" x="320.5" y="-268.7"/>
<text text-anchor="start" x="335.5" y="-258.8" font-family="Helvetica,sans-Serif" font-size="11.00" fill="#000000">absence_type_id</text>
<polygon fill="none" stroke="#000000" points="315.5,-229.7 315.5,-251.7 528.5,-251.7 528.5,-229.7 315.5,-229.7"/>
<image xlink:href="../../images/foreignKeys.png" width="11px" height="12px" preserveAspectRatio="xMinYMin meet" x="320.5" y="-246.7"/>
<text text-anchor="start" x="335.5" y="-236.8" font-family="Helvetica,sans-Serif" font-size="11.00" fill="#000000">absence_sub_type_id</text>
<polygon fill="none" stroke="#000000" points="315.5,-207.7 315.5,-229.7 528.5,-229.7 528.5,-207.7 315.5,-207.7"/>
<image xlink:href="../../images/foreignKeys.png" width="11px" height="12px" preserveAspectRatio="xMinYMin meet" x="320.5" y="-224.7"/>
<text text-anchor="start" x="335.5" y="-214.8" font-family="Helvetica,sans-Serif" font-size="11.00" fill="#000000">absence_reason_category_id</text>
<polygon fill="none" stroke="#000000" points="315.5,-185.7 315.5,-207.7 528.5,-207.7 528.5,-185.7 315.5,-185.7"/>
<image xlink:href="../../images/foreignKeys.png" width="11px" height="12px" preserveAspectRatio="xMinYMin meet" x="320.5" y="-202.7"/>
<text text-anchor="start" x="335.5" y="-192.8" font-family="Helvetica,sans-Serif" font-size="11.00" fill="#000000">absence_reason_id</text>
<polygon fill="none" stroke="#000000" points="315.5,-163.7 315.5,-185.7 528.5,-185.7 528.5,-163.7 315.5,-163.7"/>
<image xlink:href="../../images/foreignKeys.png" width="11px" height="12px" preserveAspectRatio="xMinYMin meet" x="320.5" y="-180.7"/>
<text text-anchor="start" x="335.5" y="-170.8" font-family="Helvetica,sans-Serif" font-size="11.00" fill="#000000">accompanied_by_id</text>
<polygon fill="none" stroke="#000000" points="315.5,-141.7 315.5,-163.7 528.5,-163.7 528.5,-141.7 315.5,-141.7"/>
<image xlink:href="../../images/foreignKeys.png" width="11px" height="12px" preserveAspectRatio="xMinYMin meet" x="320.5" y="-158.7"/>
<text text-anchor="start" x="335.5" y="-148.8" font-family="Helvetica,sans-Serif" font-size="11.00" fill="#000000">transport_id</text>
<polygon fill="#ffffff" stroke="transparent" points="315.5,-119.7 315.5,-141.7 528.5,-141.7 528.5,-119.7 315.5,-119.7"/>
<polygon fill="none" stroke="#000000" points="315.5,-119.7 315.5,-141.7 528.5,-141.7 528.5,-119.7 315.5,-119.7"/>
<text text-anchor="start" x="335.5" y="-126.8" font-family="Helvetica,sans-Serif" font-size="11.00" fill="#000000">start</text>
<polygon fill="#ffffff" stroke="transparent" points="315.5,-97.7 315.5,-119.7 528.5,-119.7 528.5,-97.7 315.5,-97.7"/>
<polygon fill="none" stroke="#000000" points="315.5,-97.7 315.5,-119.7 528.5,-119.7 528.5,-97.7 315.5,-97.7"/>
<text text-anchor="start" x="335.5" y="-104.8" font-family="Helvetica,sans-Serif" font-size="11.00" fill="#000000">end</text>
<polygon fill="#ffffff" stroke="transparent" points="315.5,-75.7 315.5,-97.7 528.5,-97.7 528.5,-75.7 315.5,-75.7"/>
<polygon fill="none" stroke="#000000" points="315.5,-75.7 315.5,-97.7 528.5,-97.7 528.5,-75.7 315.5,-75.7"/>
<text text-anchor="start" x="335.5" y="-82.8" font-family="Helvetica,sans-Serif" font-size="11.00" fill="#000000">legacy_id</text>
<polygon fill="none" stroke="#000000" points="315.5,-56.7 315.5,-75.7 528.5,-75.7 528.5,-56.7 315.5,-56.7"/>
<text text-anchor="start" x="318.5" y="-62.8" font-family="Helvetica,sans-Serif" font-size="11.00" fill="#000000">...</text>
<polygon fill="#ffffff" stroke="transparent" points="315.5,-37.7 315.5,-56.7 420.5,-56.7 420.5,-37.7 315.5,-37.7"/>
<polygon fill="none" stroke="#000000" points="315.5,-37.7 315.5,-56.7 420.5,-56.7 420.5,-37.7 315.5,-37.7"/>
<text text-anchor="start" x="318.5" y="-43.8" font-family="Helvetica,sans-Serif" font-size="11.00" fill="#000000">&lt; 7</text>
<polygon fill="#ffffff" stroke="transparent" points="420.5,-37.7 420.5,-56.7 474.5,-56.7 474.5,-37.7 420.5,-37.7"/>
<polygon fill="none" stroke="#000000" points="420.5,-37.7 420.5,-56.7 474.5,-56.7 474.5,-37.7 420.5,-37.7"/>
<text text-anchor="start" x="465.3862" y="-43.8" font-family="Helvetica,sans-Serif" font-size="11.00" fill="#000000"> &#160;</text>
<polygon fill="#ffffff" stroke="transparent" points="474.5,-37.7 474.5,-56.7 528.5,-56.7 528.5,-37.7 474.5,-37.7"/>
<polygon fill="none" stroke="#000000" points="474.5,-37.7 474.5,-56.7 528.5,-56.7 528.5,-37.7 474.5,-37.7"/>
<text text-anchor="start" x="519.3862" y="-43.8" font-family="Helvetica,sans-Serif" font-size="11.00" fill="#000000"> &#160;</text>
</a>
</g>
</g>
<!-- authorisation_status -->
<g id="node2" class="node">
<title>authorisation_status</title>
<g id="a_node2"><a xlink:href="../../tables/authorisation_status.html" xlink:title="authorisation_status" target="_top">
<polygon fill="#ffffff" stroke="transparent" points="8,-164.7 8,-320.7 266,-320.7 266,-164.7 8,-164.7"/>
<polygon fill="#f5f5f5" stroke="transparent" points="10,-295.7 10,-318.7 264,-318.7 264,-295.7 10,-295.7"/>
<polygon fill="none" stroke="#000000" points="10,-295.7 10,-318.7 264,-318.7 264,-295.7 10,-295.7"/>
<text text-anchor="start" x="15" y="-304.3" font-family="Helvetica,sans-Serif" font-weight="bold" font-size="11.00" fill="#000000">authorisation_status</text>
<text text-anchor="start" x="229.0437" y="-303.8" font-family="Helvetica,sans-Serif" font-size="11.00" fill="#000000">[table]</text>
<polygon fill="none" stroke="#000000" points="10,-273.7 10,-295.7 170,-295.7 170,-273.7 10,-273.7"/>
<image xlink:href="../../images/primaryKeys.png" width="11px" height="12px" preserveAspectRatio="xMinYMin meet" x="15" y="-290.7"/>
<text text-anchor="start" x="30" y="-280.8" font-family="Helvetica,sans-Serif" font-size="11.00" fill="#000000">id</text>
<polygon fill="none" stroke="#000000" points="170,-273.7 170,-295.7 264,-295.7 264,-273.7 170,-273.7"/>
<text text-anchor="start" x="172.9758" y="-281.4" font-family="Helvetica,sans-Serif" font-size="11.00" fill="#000000">uuid[2147483647]</text>
<polygon fill="#ffffff" stroke="transparent" points="10,-251.7 10,-273.7 170,-273.7 170,-251.7 10,-251.7"/>
<polygon fill="none" stroke="#000000" points="10,-251.7 10,-273.7 170,-273.7 170,-251.7 10,-251.7"/>
<text text-anchor="start" x="30" y="-258.8" font-family="Helvetica,sans-Serif" font-size="11.00" fill="#000000">code</text>
<polygon fill="none" stroke="#000000" points="170,-251.7 170,-273.7 264,-273.7 264,-251.7 170,-251.7"/>
<text text-anchor="start" x="173" y="-259.4" font-family="Helvetica,sans-Serif" font-size="11.00" fill="#000000">varchar[16]</text>
<polygon fill="none" stroke="#000000" points="10,-229.7 10,-251.7 170,-251.7 170,-229.7 10,-229.7"/>
<text text-anchor="start" x="30" y="-236.8" font-family="Helvetica,sans-Serif" font-size="11.00" fill="#000000">description</text>
<polygon fill="none" stroke="#000000" points="170,-229.7 170,-251.7 264,-251.7 264,-229.7 170,-229.7"/>
<text text-anchor="start" x="173" y="-237.4" font-family="Helvetica,sans-Serif" font-size="11.00" fill="#000000">varchar[255]</text>
<polygon fill="#ffffff" stroke="transparent" points="10,-207.7 10,-229.7 170,-229.7 170,-207.7 10,-207.7"/>
<polygon fill="none" stroke="#000000" points="10,-207.7 10,-229.7 170,-229.7 170,-207.7 10,-207.7"/>
<text text-anchor="start" x="30" y="-214.8" font-family="Helvetica,sans-Serif" font-size="11.00" fill="#000000">sequence_number</text>
<polygon fill="none" stroke="#000000" points="170,-207.7 170,-229.7 264,-229.7 264,-207.7 170,-207.7"/>
<text text-anchor="start" x="173" y="-215.4" font-family="Helvetica,sans-Serif" font-size="11.00" fill="#000000">int4[10]</text>
<polygon fill="none" stroke="#000000" points="10,-185.7 10,-207.7 170,-207.7 170,-185.7 10,-185.7"/>
<text text-anchor="start" x="30" y="-192.8" font-family="Helvetica,sans-Serif" font-size="11.00" fill="#000000">active</text>
<polygon fill="none" stroke="#000000" points="170,-185.7 170,-207.7 264,-207.7 264,-185.7 170,-185.7"/>
<text text-anchor="start" x="173" y="-193.4" font-family="Helvetica,sans-Serif" font-size="11.00" fill="#000000">bool[1]</text>
<polygon fill="#ffffff" stroke="transparent" points="10,-166.7 10,-185.7 94,-185.7 94,-166.7 10,-166.7"/>
<polygon fill="none" stroke="#000000" points="10,-166.7 10,-185.7 94,-185.7 94,-166.7 10,-166.7"/>
<text text-anchor="start" x="13" y="-172.8" font-family="Helvetica,sans-Serif" font-size="11.00" fill="#000000">&lt; 0</text>
<polygon fill="#ffffff" stroke="transparent" points="94,-166.7 94,-185.7 170,-185.7 170,-166.7 94,-166.7"/>
<polygon fill="none" stroke="#000000" points="94,-166.7 94,-185.7 170,-185.7 170,-166.7 94,-166.7"/>
<text text-anchor="start" x="160.8862" y="-172.8" font-family="Helvetica,sans-Serif" font-size="11.00" fill="#000000"> &#160;</text>
<polygon fill="#ffffff" stroke="transparent" points="170,-166.7 170,-185.7 264,-185.7 264,-166.7 170,-166.7"/>
<polygon fill="none" stroke="#000000" points="170,-166.7 170,-185.7 264,-185.7 264,-166.7 170,-166.7"/>
<text text-anchor="start" x="245.4053" y="-172.8" font-family="Helvetica,sans-Serif" font-size="11.00" fill="#000000">1 &gt;</text>
<polygon fill="none" stroke="#000000" stroke-width="2" points="9,-165.7 9,-319.7 265,-319.7 265,-165.7 9,-165.7"/>
</a>
</g>
</g>
<!-- authorisation&#45;&gt;authorisation_status -->
<g id="edge1" class="edge">
<title>authorisation:w&#45;&gt;authorisation_status:e</title>
<path fill="none" stroke="#000000" d="M301.0156,-284.7C288.6771,-284.7 281.1667,-284.7 264,-284.7"/>
<polygon fill="#000000" stroke="#000000" points="307.5,-284.7001 315.5,-288.3 311.5,-284.7 315.5,-284.7 315.5,-284.7 315.5,-284.7 311.5,-284.7 315.5,-281.1 307.5,-284.7001 307.5,-284.7001"/>
<ellipse fill="none" stroke="#000000" cx="304.3" cy="-284.7001" rx="3.2" ry="3.2"/>
</g>
</g>
</svg>
