<?xml version="1.0" encoding="UTF-8" standalone="no"?>
<!DOCTYPE svg PUBLIC "-//W3C//DTD SVG 1.1//EN"
 "http://www.w3.org/Graphics/SVG/1.1/DTD/svg11.dtd">
<!-- Generated by graphviz version 2.40.1 (20161225.0304)
 -->
<!-- Title: oneDegreeRelationshipsDiagram Pages: 1 -->
<svg width="568pt" height="536pt"
 viewBox="0.00 0.00 568.00 536.20" xmlns="http://www.w3.org/2000/svg" xmlns:xlink="http://www.w3.org/1999/xlink">
<g id="graph0" class="graph" transform="scale(1 1) rotate(0) translate(4 532.2)">
<title>oneDegreeRelationshipsDiagram</title>
<polygon fill="#ffffff" stroke="transparent" points="-4,4 -4,-532.2 564,-532.2 564,4 -4,4"/>
<text text-anchor="middle" x="72.4936" y="-7.3" font-family="Helvetica,sans-Serif" font-size="11.00" fill="#000000">Generated by SchemaSpy</text>
<!-- authorisation_audit -->
<g id="node1" class="node">
<title>authorisation_audit</title>
<g id="a_node1"><a xlink:href="../../tables/authorisation_audit.html" xlink:title="authorisation_audit" target="_top">
<polygon fill="#ffffff" stroke="transparent" points="236,-38.2 236,-524.2 552,-524.2 552,-38.2 236,-38.2"/>
<polygon fill="#f5f5f5" stroke="transparent" points="238,-499.2 238,-522.2 550,-522.2 550,-499.2 238,-499.2"/>
<polygon fill="none" stroke="#000000" points="238,-499.2 238,-522.2 550,-522.2 550,-499.2 238,-499.2"/>
<text text-anchor="start" x="243" y="-507.8" font-family="Helvetica,sans-Serif" font-weight="bold" font-size="11.00" fill="#000000">authorisation_audit</text>
<text text-anchor="start" x="515.0437" y="-507.3" font-family="Helvetica,sans-Serif" font-size="11.00" fill="#000000">[table]</text>
<polygon fill="none" stroke="#000000" points="238,-477.2 238,-499.2 451,-499.2 451,-477.2 238,-477.2"/>
<image xlink:href="../../images/primaryKeys.png" width="11px" height="12px" preserveAspectRatio="xMinYMin meet" x="243" y="-494.2"/>
<text text-anchor="start" x="258" y="-484.3" font-family="Helvetica,sans-Serif" font-size="11.00" fill="#000000">rev_id</text>
<polygon fill="none" stroke="#000000" points="451,-477.2 451,-499.2 550,-499.2 550,-477.2 451,-477.2"/>
<text text-anchor="start" x="454" y="-484.9" font-family="Helvetica,sans-Serif" font-size="11.00" fill="#000000">int8[19]</text>
<polygon fill="none" stroke="#000000" points="238,-455.2 238,-477.2 451,-477.2 451,-455.2 238,-455.2"/>
<text text-anchor="start" x="258" y="-462.3" font-family="Helvetica,sans-Serif" font-size="11.00" fill="#000000">rev_type</text>
<polygon fill="none" stroke="#000000" points="451,-455.2 451,-477.2 550,-477.2 550,-455.2 451,-455.2"/>
<text text-anchor="start" x="454" y="-462.9" font-family="Helvetica,sans-Serif" font-size="11.00" fill="#000000">int2[5]</text>
<polygon fill="none" stroke="#000000" points="238,-433.2 238,-455.2 451,-455.2 451,-433.2 238,-433.2"/>
<image xlink:href="../../images/primaryKeys.png" width="11px" height="12px" preserveAspectRatio="xMinYMin meet" x="243" y="-450.2"/>
<text text-anchor="start" x="258" y="-440.3" font-family="Helvetica,sans-Serif" font-size="11.00" fill="#000000">id</text>
<polygon fill="none" stroke="#000000" points="451,-433.2 451,-455.2 550,-455.2 550,-433.2 451,-433.2"/>
<text text-anchor="start" x="454" y="-440.9" font-family="Helvetica,sans-Serif" font-size="11.00" fill="#000000">uuid[2147483647]</text>
<polygon fill="none" stroke="#000000" points="238,-411.2 238,-433.2 451,-433.2 451,-411.2 238,-411.2"/>
<text text-anchor="start" x="258" y="-418.3" font-family="Helvetica,sans-Serif" font-size="11.00" fill="#000000">version</text>
<polygon fill="none" stroke="#000000" points="451,-411.2 451,-433.2 550,-433.2 550,-411.2 451,-411.2"/>
<text text-anchor="start" x="454" y="-418.9" font-family="Helvetica,sans-Serif" font-size="11.00" fill="#000000">int4[10]</text>
<polygon fill="none" stroke="#000000" points="238,-389.2 238,-411.2 451,-411.2 451,-389.2 238,-389.2"/>
<text text-anchor="start" x="258" y="-396.3" font-family="Helvetica,sans-Serif" font-size="11.00" fill="#000000">person_identifier</text>
<polygon fill="none" stroke="#000000" points="451,-389.2 451,-411.2 550,-411.2 550,-389.2 451,-389.2"/>
<text text-anchor="start" x="454" y="-396.9" font-family="Helvetica,sans-Serif" font-size="11.00" fill="#000000">varchar[10]</text>
<polygon fill="none" stroke="#000000" points="238,-367.2 238,-389.2 451,-389.2 451,-367.2 238,-367.2"/>
<text text-anchor="start" x="258" y="-374.3" font-family="Helvetica,sans-Serif" font-size="11.00" fill="#000000">prison_code</text>
<polygon fill="none" stroke="#000000" points="451,-367.2 451,-389.2 550,-389.2 550,-367.2 451,-367.2"/>
<text text-anchor="start" x="454" y="-374.9" font-family="Helvetica,sans-Serif" font-size="11.00" fill="#000000">varchar[6]</text>
<polygon fill="none" stroke="#000000" points="238,-345.2 238,-367.2 451,-367.2 451,-345.2 238,-345.2"/>
<text text-anchor="start" x="258" y="-352.3" font-family="Helvetica,sans-Serif" font-size="11.00" fill="#000000">status_id</text>
<polygon fill="none" stroke="#000000" points="451,-345.2 451,-367.2 550,-367.2 550,-345.2 451,-345.2"/>
<text text-anchor="start" x="454" y="-352.9" font-family="Helvetica,sans-Serif" font-size="11.00" fill="#000000">uuid[2147483647]</text>
<polygon fill="none" stroke="#000000" points="238,-323.2 238,-345.2 451,-345.2 451,-323.2 238,-323.2"/>
<text text-anchor="start" x="258" y="-330.3" font-family="Helvetica,sans-Serif" font-size="11.00" fill="#000000">absence_type_id</text>
<polygon fill="none" stroke="#000000" points="451,-323.2 451,-345.2 550,-345.2 550,-323.2 451,-323.2"/>
<text text-anchor="start" x="454" y="-330.9" font-family="Helvetica,sans-Serif" font-size="11.00" fill="#000000">uuid[2147483647]</text>
<polygon fill="none" stroke="#000000" points="238,-301.2 238,-323.2 451,-323.2 451,-301.2 238,-301.2"/>
<text text-anchor="start" x="258" y="-308.3" font-family="Helvetica,sans-Serif" font-size="11.00" fill="#000000">absence_sub_type_id</text>
<polygon fill="none" stroke="#000000" points="451,-301.2 451,-323.2 550,-323.2 550,-301.2 451,-301.2"/>
<text text-anchor="start" x="454" y="-308.9" font-family="Helvetica,sans-Serif" font-size="11.00" fill="#000000">uuid[2147483647]</text>
<polygon fill="none" stroke="#000000" points="238,-279.2 238,-301.2 451,-301.2 451,-279.2 238,-279.2"/>
<text text-anchor="start" x="258" y="-286.3" font-family="Helvetica,sans-Serif" font-size="11.00" fill="#000000">absence_reason_category_id</text>
<polygon fill="none" stroke="#000000" points="451,-279.2 451,-301.2 550,-301.2 550,-279.2 451,-279.2"/>
<text text-anchor="start" x="454" y="-286.9" font-family="Helvetica,sans-Serif" font-size="11.00" fill="#000000">uuid[2147483647]</text>
<polygon fill="none" stroke="#000000" points="238,-257.2 238,-279.2 451,-279.2 451,-257.2 238,-257.2"/>
<text text-anchor="start" x="258" y="-264.3" font-family="Helvetica,sans-Serif" font-size="11.00" fill="#000000">absence_reason_id</text>
<polygon fill="none" stroke="#000000" points="451,-257.2 451,-279.2 550,-279.2 550,-257.2 451,-257.2"/>
<text text-anchor="start" x="454" y="-264.9" font-family="Helvetica,sans-Serif" font-size="11.00" fill="#000000">uuid[2147483647]</text>
<polygon fill="none" stroke="#000000" points="238,-235.2 238,-257.2 451,-257.2 451,-235.2 238,-235.2"/>
<text text-anchor="start" x="258" y="-242.3" font-family="Helvetica,sans-Serif" font-size="11.00" fill="#000000">accompanied_by_id</text>
<polygon fill="none" stroke="#000000" points="451,-235.2 451,-257.2 550,-257.2 550,-235.2 451,-235.2"/>
<text text-anchor="start" x="454" y="-242.9" font-family="Helvetica,sans-Serif" font-size="11.00" fill="#000000">uuid[2147483647]</text>
<polygon fill="none" stroke="#000000" points="238,-213.2 238,-235.2 451,-235.2 451,-213.2 238,-213.2"/>
<text text-anchor="start" x="258" y="-220.3" font-family="Helvetica,sans-Serif" font-size="11.00" fill="#000000">transport_id</text>
<polygon fill="none" stroke="#000000" points="451,-213.2 451,-235.2 550,-235.2 550,-213.2 451,-213.2"/>
<text text-anchor="start" x="454" y="-220.9" font-family="Helvetica,sans-Serif" font-size="11.00" fill="#000000">uuid[2147483647]</text>
<polygon fill="none" stroke="#000000" points="238,-191.2 238,-213.2 451,-213.2 451,-191.2 238,-191.2"/>
<text text-anchor="start" x="258" y="-198.3" font-family="Helvetica,sans-Serif" font-size="11.00" fill="#000000">start</text>
<polygon fill="none" stroke="#000000" points="451,-191.2 451,-213.2 550,-213.2 550,-191.2 451,-191.2"/>
<text text-anchor="start" x="454" y="-198.9" font-family="Helvetica,sans-Serif" font-size="11.00" fill="#000000">date[13]</text>
<polygon fill="none" stroke="#000000" points="238,-169.2 238,-191.2 451,-191.2 451,-169.2 238,-169.2"/>
<text text-anchor="start" x="258" y="-176.3" font-family="Helvetica,sans-Serif" font-size="11.00" fill="#000000">end</text>
<polygon fill="none" stroke="#000000" points="451,-169.2 451,-191.2 550,-191.2 550,-169.2 451,-169.2"/>
<text text-anchor="start" x="454" y="-176.9" font-family="Helvetica,sans-Serif" font-size="11.00" fill="#000000">date[13]</text>
<polygon fill="none" stroke="#000000" points="238,-147.2 238,-169.2 451,-169.2 451,-147.2 238,-147.2"/>
<text text-anchor="start" x="258" y="-154.3" font-family="Helvetica,sans-Serif" font-size="11.00" fill="#000000">repeat</text>
<polygon fill="none" stroke="#000000" points="451,-147.2 451,-169.2 550,-169.2 550,-147.2 451,-147.2"/>
<text text-anchor="start" x="454" y="-154.9" font-family="Helvetica,sans-Serif" font-size="11.00" fill="#000000">bool[1]</text>
<polygon fill="none" stroke="#000000" points="238,-125.2 238,-147.2 451,-147.2 451,-125.2 238,-125.2"/>
<text text-anchor="start" x="258" y="-132.3" font-family="Helvetica,sans-Serif" font-size="11.00" fill="#000000">comments</text>
<polygon fill="none" stroke="#000000" points="451,-125.2 451,-147.2 550,-147.2 550,-125.2 451,-125.2"/>
<text text-anchor="start" x="454" y="-132.9" font-family="Helvetica,sans-Serif" font-size="11.00" fill="#000000">text[2147483647]</text>
<polygon fill="none" stroke="#000000" points="238,-103.2 238,-125.2 451,-125.2 451,-103.2 238,-103.2"/>
<text text-anchor="start" x="258" y="-110.3" font-family="Helvetica,sans-Serif" font-size="11.00" fill="#000000">reason_path</text>
<polygon fill="none" stroke="#000000" points="451,-103.2 451,-125.2 550,-125.2 550,-103.2 451,-103.2"/>
<text text-anchor="start" x="453.7258" y="-110.9" font-family="Helvetica,sans-Serif" font-size="11.00" fill="#000000">jsonb[2147483647]</text>
<polygon fill="none" stroke="#000000" points="238,-81.2 238,-103.2 451,-103.2 451,-81.2 238,-81.2"/>
<text text-anchor="start" x="258" y="-88.3" font-family="Helvetica,sans-Serif" font-size="11.00" fill="#000000">schedule</text>
<polygon fill="none" stroke="#000000" points="451,-81.2 451,-103.2 550,-103.2 550,-81.2 451,-81.2"/>
<text text-anchor="start" x="453.7258" y="-88.9" font-family="Helvetica,sans-Serif" font-size="11.00" fill="#000000">jsonb[2147483647]</text>
<polygon fill="none" stroke="#000000" points="238,-59.2 238,-81.2 451,-81.2 451,-59.2 238,-59.2"/>
<text text-anchor="start" x="258" y="-66.3" font-family="Helvetica,sans-Serif" font-size="11.00" fill="#000000">legacy_id</text>
<polygon fill="none" stroke="#000000" points="451,-59.2 451,-81.2 550,-81.2 550,-59.2 451,-59.2"/>
<text text-anchor="start" x="454" y="-66.9" font-family="Helvetica,sans-Serif" font-size="11.00" fill="#000000">int8[19]</text>
<polygon fill="#ffffff" stroke="transparent" points="238,-40.2 238,-59.2 349,-59.2 349,-40.2 238,-40.2"/>
<polygon fill="none" stroke="#000000" points="238,-40.2 238,-59.2 349,-59.2 349,-40.2 238,-40.2"/>
<text text-anchor="start" x="241" y="-46.3" font-family="Helvetica,sans-Serif" font-size="11.00" fill="#000000">&lt; 1</text>
<polygon fill="#ffffff" stroke="transparent" points="349,-40.2 349,-59.2 451,-59.2 451,-40.2 349,-40.2"/>
<polygon fill="none" stroke="#000000" points="349,-40.2 349,-59.2 451,-59.2 451,-40.2 349,-40.2"/>
<text text-anchor="start" x="441.8862" y="-46.3" font-family="Helvetica,sans-Serif" font-size="11.00" fill="#000000"> &#160;</text>
<polygon fill="#ffffff" stroke="transparent" points="451,-40.2 451,-59.2 550,-59.2 550,-40.2 451,-40.2"/>
<polygon fill="none" stroke="#000000" points="451,-40.2 451,-59.2 550,-59.2 550,-40.2 451,-40.2"/>
<text text-anchor="start" x="531.4053" y="-46.3" font-family="Helvetica,sans-Serif" font-size="11.00" fill="#000000">0 &gt;</text>
<polygon fill="none" stroke="#000000" stroke-width="2" points="237,-39.2 237,-523.2 551,-523.2 551,-39.2 237,-39.2"/>
</a>
</g>
</g>
<!-- public.audit_revision -->
<g id="node2" class="node">
<title>public.audit_revision</title>
<g id="a_node2"><a xlink:href="../../../public/tables/audit_revision.html" xlink:title="public.audit_revision" target="_top">
<polygon fill="#ffffff" stroke="transparent" points="8,-457.7 8,-518.7 187,-518.7 187,-457.7 8,-457.7"/>
<polygon fill="#f5f5f5" stroke="transparent" points="8.5,-495.2 8.5,-518.2 187.5,-518.2 187.5,-495.2 8.5,-495.2"/>
<polygon fill="none" stroke="#000000" points="8.5,-495.2 8.5,-518.2 187.5,-518.2 187.5,-495.2 8.5,-495.2"/>
<text text-anchor="start" x="13.5" y="-503.8" font-family="Helvetica,sans-Serif" font-weight="bold" font-size="11.00" fill="#000000">public.audit_revision</text>
<text text-anchor="start" x="153.0219" y="-503.3" font-family="Helvetica,sans-Serif" font-size="11.00" fill="#000000">[table]</text>
<polygon fill="none" stroke="#000000" points="8.5,-476.2 8.5,-495.2 187.5,-495.2 187.5,-476.2 8.5,-476.2"/>
<text text-anchor="start" x="11.5" y="-482.3" font-family="Helvetica,sans-Serif" font-size="11.00" fill="#000000">...</text>
<polygon fill="#ffffff" stroke="transparent" points="8.5,-457.2 8.5,-476.2 74.5,-476.2 74.5,-457.2 8.5,-457.2"/>
<polygon fill="none" stroke="#000000" points="8.5,-457.2 8.5,-476.2 74.5,-476.2 74.5,-457.2 8.5,-457.2"/>
<text text-anchor="start" x="11.5" y="-463.3" font-family="Helvetica,sans-Serif" font-size="11.00" fill="#000000"> &#160;</text>
<polygon fill="#ffffff" stroke="transparent" points="74.5,-457.2 74.5,-476.2 139.5,-476.2 139.5,-457.2 74.5,-457.2"/>
<polygon fill="none" stroke="#000000" points="74.5,-457.2 74.5,-476.2 139.5,-476.2 139.5,-457.2 74.5,-457.2"/>
<text text-anchor="start" x="104.1105" y="-463.3" font-family="Helvetica,sans-Serif" font-size="11.00" fill="#000000">0 rows</text>
<polygon fill="#ffffff" stroke="transparent" points="139.5,-457.2 139.5,-476.2 187.5,-476.2 187.5,-457.2 139.5,-457.2"/>
<polygon fill="none" stroke="#000000" points="139.5,-457.2 139.5,-476.2 187.5,-476.2 187.5,-457.2 139.5,-457.2"/>
<text text-anchor="start" x="168.9053" y="-463.3" font-family="Helvetica,sans-Serif" font-size="11.00" fill="#000000">3 &gt;</text>
</a>
</g>
</g>
<!-- authorisation_audit&#45;&gt;public.audit_revision -->
<g id="edge1" class="edge">
<title>authorisation_audit:w&#45;&gt;public.audit_revision:e</title>
<path fill="none" stroke="#000000" d="M223.4295,-488.2C214.0362,-488.2 204.4627,-488.2 195.0012,-488.2"/>
<polygon fill="#000000" stroke="#000000" points="230,-488.2001 238,-491.8 234,-488.2 238,-488.2 238,-488.2 238,-488.2 234,-488.2 238,-484.6 230,-488.2001 230,-488.2001"/>
<ellipse fill="none" stroke="#000000" cx="226.8" cy="-488.2001" rx="3.2" ry="3.2"/>
</g>
</g>
</svg>
