<?xml version="1.0" encoding="UTF-8" standalone="no"?>
<!DOCTYPE svg PUBLIC "-//W3C//DTD SVG 1.1//EN"
 "http://www.w3.org/Graphics/SVG/1.1/DTD/svg11.dtd">
<!-- Generated by graphviz version 2.40.1 (20161225.0304)
 -->
<!-- Title: oneDegreeRelationshipsDiagramImplied Pages: 1 -->
<svg width="845pt" height="659pt"
 viewBox="0.00 0.00 845.00 659.44" xmlns="http://www.w3.org/2000/svg" xmlns:xlink="http://www.w3.org/1999/xlink">
<g id="graph0" class="graph" transform="scale(1 1) rotate(0) translate(4 655.4394)">
<title>oneDegreeRelationshipsDiagramImplied</title>
<polygon fill="#ffffff" stroke="transparent" points="-4,4 -4,-655.4394 841,-655.4394 841,4 -4,4"/>
<text text-anchor="middle" x="72.4936" y="-7.3" font-family="Helvetica,sans-Serif" font-size="11.00" fill="#000000">Generated by SchemaSpy</text>
<!-- movement -->
<g id="node1" class="node">
<title>movement</title>
<g id="a_node1"><a xlink:href="../../tables/movement.html" xlink:title="movement" target="_top">
<polygon fill="#ffffff" stroke="transparent" points="518,-38.2 518,-370.2 829,-370.2 829,-38.2 518,-38.2"/>
<polygon fill="#f5f5f5" stroke="transparent" points="520.5,-345.2 520.5,-368.2 827.5,-368.2 827.5,-345.2 520.5,-345.2"/>
<polygon fill="none" stroke="#000000" points="520.5,-345.2 520.5,-368.2 827.5,-368.2 827.5,-345.2 520.5,-345.2"/>
<text text-anchor="start" x="525.5" y="-353.8" font-family="Helvetica,sans-Serif" font-weight="bold" font-size="11.00" fill="#000000">movement</text>
<text text-anchor="start" x="792.5437" y="-353.3" font-family="Helvetica,sans-Serif" font-size="11.00" fill="#000000">[table]</text>
<polygon fill="none" stroke="#000000" points="520.5,-323.2 520.5,-345.2 728.5,-345.2 728.5,-323.2 520.5,-323.2"/>
<image xlink:href="../../images/primaryKeys.png" width="11px" height="12px" preserveAspectRatio="xMinYMin meet" x="525.5" y="-340.2"/>
<text text-anchor="start" x="540.5" y="-330.3" font-family="Helvetica,sans-Serif" font-size="11.00" fill="#000000">id</text>
<polygon fill="none" stroke="#000000" points="728.5,-323.2 728.5,-345.2 827.5,-345.2 827.5,-323.2 728.5,-323.2"/>
<text text-anchor="start" x="731.5" y="-330.9" font-family="Helvetica,sans-Serif" font-size="11.00" fill="#000000">uuid[2147483647]</text>
<polygon fill="none" stroke="#000000" points="520.5,-301.2 520.5,-323.2 728.5,-323.2 728.5,-301.2 520.5,-301.2"/>
<text text-anchor="start" x="540.5" y="-308.3" font-family="Helvetica,sans-Serif" font-size="11.00" fill="#000000">version</text>
<polygon fill="none" stroke="#000000" points="728.5,-301.2 728.5,-323.2 827.5,-323.2 827.5,-301.2 728.5,-301.2"/>
<text text-anchor="start" x="731.5" y="-308.9" font-family="Helvetica,sans-Serif" font-size="11.00" fill="#000000">int4[10]</text>
<polygon fill="#ffffff" stroke="transparent" points="520.5,-279.2 520.5,-301.2 728.5,-301.2 728.5,-279.2 520.5,-279.2"/>
<polygon fill="none" stroke="#000000" points="520.5,-279.2 520.5,-301.2 728.5,-301.2 728.5,-279.2 520.5,-279.2"/>
<image xlink:href="../../images/foreignKeys.png" width="11px" height="12px" preserveAspectRatio="xMinYMin meet" x="525.5" y="-296.2"/>
<text text-anchor="start" x="540.5" y="-286.3" font-family="Helvetica,sans-Serif" font-size="11.00" fill="#000000">person_identifier</text>
<polygon fill="none" stroke="#000000" points="728.5,-279.2 728.5,-301.2 827.5,-301.2 827.5,-279.2 728.5,-279.2"/>
<text text-anchor="start" x="731.5" y="-286.9" font-family="Helvetica,sans-Serif" font-size="11.00" fill="#000000">varchar[10]</text>
<polygon fill="#ffffff" stroke="transparent" points="520.5,-257.2 520.5,-279.2 728.5,-279.2 728.5,-257.2 520.5,-257.2"/>
<polygon fill="none" stroke="#000000" points="520.5,-257.2 520.5,-279.2 728.5,-279.2 728.5,-257.2 520.5,-257.2"/>
<image xlink:href="../../images/foreignKeys.png" width="11px" height="12px" preserveAspectRatio="xMinYMin meet" x="525.5" y="-274.2"/>
<text text-anchor="start" x="540.5" y="-264.3" font-family="Helvetica,sans-Serif" font-size="11.00" fill="#000000">occurrence_id</text>
<polygon fill="none" stroke="#000000" points="728.5,-257.2 728.5,-279.2 827.5,-279.2 827.5,-257.2 728.5,-257.2"/>
<text text-anchor="start" x="731.5" y="-264.9" font-family="Helvetica,sans-Serif" font-size="11.00" fill="#000000">uuid[2147483647]</text>
<polygon fill="#ffffff" stroke="transparent" points="520.5,-235.2 520.5,-257.2 728.5,-257.2 728.5,-235.2 520.5,-235.2"/>
<polygon fill="none" stroke="#000000" points="520.5,-235.2 520.5,-257.2 728.5,-257.2 728.5,-235.2 520.5,-235.2"/>
<text text-anchor="start" x="540.5" y="-242.3" font-family="Helvetica,sans-Serif" font-size="11.00" fill="#000000">occurred_at</text>
<polygon fill="none" stroke="#000000" points="728.5,-235.2 728.5,-257.2 827.5,-257.2 827.5,-235.2 728.5,-235.2"/>
<text text-anchor="start" x="731.5" y="-242.9" font-family="Helvetica,sans-Serif" font-size="11.00" fill="#000000">timestamp[29,6]</text>
<polygon fill="none" stroke="#000000" points="520.5,-213.2 520.5,-235.2 728.5,-235.2 728.5,-213.2 520.5,-213.2"/>
<text text-anchor="start" x="540.5" y="-220.3" font-family="Helvetica,sans-Serif" font-size="11.00" fill="#000000">direction</text>
<polygon fill="none" stroke="#000000" points="728.5,-213.2 728.5,-235.2 827.5,-235.2 827.5,-213.2 728.5,-213.2"/>
<text text-anchor="start" x="731.5" y="-220.9" font-family="Helvetica,sans-Serif" font-size="11.00" fill="#000000">varchar[3]</text>
<polygon fill="none" stroke="#000000" points="520.5,-191.2 520.5,-213.2 728.5,-213.2 728.5,-191.2 520.5,-191.2"/>
<image xlink:href="../../images/foreignKeys.png" width="11px" height="12px" preserveAspectRatio="xMinYMin meet" x="525.5" y="-208.2"/>
<text text-anchor="start" x="540.5" y="-198.3" font-family="Helvetica,sans-Serif" font-size="11.00" fill="#000000">absence_reason_id</text>
<polygon fill="none" stroke="#000000" points="728.5,-191.2 728.5,-213.2 827.5,-213.2 827.5,-191.2 728.5,-191.2"/>
<text text-anchor="start" x="731.5" y="-198.9" font-family="Helvetica,sans-Serif" font-size="11.00" fill="#000000">uuid[2147483647]</text>
<polygon fill="none" stroke="#000000" points="520.5,-169.2 520.5,-191.2 728.5,-191.2 728.5,-169.2 520.5,-169.2"/>
<image xlink:href="../../images/foreignKeys.png" width="11px" height="12px" preserveAspectRatio="xMinYMin meet" x="525.5" y="-186.2"/>
<text text-anchor="start" x="540.5" y="-176.3" font-family="Helvetica,sans-Serif" font-size="11.00" fill="#000000">accompanied_by_id</text>
<polygon fill="none" stroke="#000000" points="728.5,-169.2 728.5,-191.2 827.5,-191.2 827.5,-169.2 728.5,-169.2"/>
<text text-anchor="start" x="731.5" y="-176.9" font-family="Helvetica,sans-Serif" font-size="11.00" fill="#000000">uuid[2147483647]</text>
<polygon fill="none" stroke="#000000" points="520.5,-147.2 520.5,-169.2 728.5,-169.2 728.5,-147.2 520.5,-147.2"/>
<text text-anchor="start" x="540.5" y="-154.3" font-family="Helvetica,sans-Serif" font-size="11.00" fill="#000000">accompanied_by_comments</text>
<polygon fill="none" stroke="#000000" points="728.5,-147.2 728.5,-169.2 827.5,-169.2 827.5,-147.2 728.5,-147.2"/>
<text text-anchor="start" x="731.5" y="-154.9" font-family="Helvetica,sans-Serif" font-size="11.00" fill="#000000">text[2147483647]</text>
<polygon fill="none" stroke="#000000" points="520.5,-125.2 520.5,-147.2 728.5,-147.2 728.5,-125.2 520.5,-125.2"/>
<text text-anchor="start" x="540.5" y="-132.3" font-family="Helvetica,sans-Serif" font-size="11.00" fill="#000000">location</text>
<polygon fill="none" stroke="#000000" points="728.5,-125.2 728.5,-147.2 827.5,-147.2 827.5,-125.2 728.5,-125.2"/>
<text text-anchor="start" x="731.2258" y="-132.9" font-family="Helvetica,sans-Serif" font-size="11.00" fill="#000000">jsonb[2147483647]</text>
<polygon fill="none" stroke="#000000" points="520.5,-103.2 520.5,-125.2 728.5,-125.2 728.5,-103.2 520.5,-103.2"/>
<text text-anchor="start" x="540.5" y="-110.3" font-family="Helvetica,sans-Serif" font-size="11.00" fill="#000000">comments</text>
<polygon fill="none" stroke="#000000" points="728.5,-103.2 728.5,-125.2 827.5,-125.2 827.5,-103.2 728.5,-103.2"/>
<text text-anchor="start" x="731.5" y="-110.9" font-family="Helvetica,sans-Serif" font-size="11.00" fill="#000000">text[2147483647]</text>
<polygon fill="none" stroke="#000000" points="520.5,-81.2 520.5,-103.2 728.5,-103.2 728.5,-81.2 520.5,-81.2"/>
<image xlink:href="../../images/foreignKeys.png" width="11px" height="12px" preserveAspectRatio="xMinYMin meet" x="525.5" y="-98.2"/>
<text text-anchor="start" x="540.5" y="-88.3" font-family="Helvetica,sans-Serif" font-size="11.00" fill="#000000">prison_code</text>
<polygon fill="none" stroke="#000000" points="728.5,-81.2 728.5,-103.2 827.5,-103.2 827.5,-81.2 728.5,-81.2"/>
<text text-anchor="start" x="731.5" y="-88.9" font-family="Helvetica,sans-Serif" font-size="11.00" fill="#000000">varchar[6]</text>
<polygon fill="#ffffff" stroke="transparent" points="520.5,-59.2 520.5,-81.2 728.5,-81.2 728.5,-59.2 520.5,-59.2"/>
<polygon fill="none" stroke="#000000" points="520.5,-59.2 520.5,-81.2 728.5,-81.2 728.5,-59.2 520.5,-59.2"/>
<text text-anchor="start" x="540.5" y="-66.3" font-family="Helvetica,sans-Serif" font-size="11.00" fill="#000000">legacy_id</text>
<polygon fill="none" stroke="#000000" points="728.5,-59.2 728.5,-81.2 827.5,-81.2 827.5,-59.2 728.5,-59.2"/>
<text text-anchor="start" x="731.5" y="-66.9" font-family="Helvetica,sans-Serif" font-size="11.00" fill="#000000">varchar[32]</text>
<polygon fill="#ffffff" stroke="transparent" points="520.5,-40.2 520.5,-59.2 628.5,-59.2 628.5,-40.2 520.5,-40.2"/>
<polygon fill="none" stroke="#000000" points="520.5,-40.2 520.5,-59.2 628.5,-59.2 628.5,-40.2 520.5,-40.2"/>
<text text-anchor="start" x="523.5" y="-46.3" font-family="Helvetica,sans-Serif" font-size="11.00" fill="#000000">&lt; 5</text>
<polygon fill="#ffffff" stroke="transparent" points="628.5,-40.2 628.5,-59.2 728.5,-59.2 728.5,-40.2 628.5,-40.2"/>
<polygon fill="none" stroke="#000000" points="628.5,-40.2 628.5,-59.2 728.5,-59.2 728.5,-40.2 628.5,-40.2"/>
<text text-anchor="start" x="719.3862" y="-46.3" font-family="Helvetica,sans-Serif" font-size="11.00" fill="#000000"> &#160;</text>
<polygon fill="#ffffff" stroke="transparent" points="728.5,-40.2 728.5,-59.2 827.5,-59.2 827.5,-40.2 728.5,-40.2"/>
<polygon fill="none" stroke="#000000" points="728.5,-40.2 728.5,-59.2 827.5,-59.2 827.5,-40.2 728.5,-40.2"/>
<text text-anchor="start" x="808.9053" y="-46.3" font-family="Helvetica,sans-Serif" font-size="11.00" fill="#000000">0 &gt;</text>
<polygon fill="none" stroke="#000000" stroke-width="2" points="519,-39.2 519,-369.2 828,-369.2 828,-39.2 519,-39.2"/>
</a>
</g>
</g>
<!-- absence_reason -->
<g id="node2" class="node">
<title>absence_reason</title>
<g id="a_node2"><a xlink:href="../../tables/absence_reason.html" xlink:title="absence_reason" target="_top">
<polygon fill="#ffffff" stroke="transparent" points="34.5,-295.7 34.5,-422.7 180.5,-422.7 180.5,-295.7 34.5,-295.7"/>
<polygon fill="#f5f5f5" stroke="transparent" points="34.5,-399.2 34.5,-422.2 180.5,-422.2 180.5,-399.2 34.5,-399.2"/>
<polygon fill="none" stroke="#000000" points="34.5,-399.2 34.5,-422.2 180.5,-422.2 180.5,-399.2 34.5,-399.2"/>
<text text-anchor="start" x="39.5" y="-407.8" font-family="Helvetica,sans-Serif" font-weight="bold" font-size="11.00" fill="#000000">absence_reason</text>
<text text-anchor="start" x="146.0219" y="-407.3" font-family="Helvetica,sans-Serif" font-size="11.00" fill="#000000">[table]</text>
<polygon fill="none" stroke="#000000" points="34.5,-377.2 34.5,-399.2 180.5,-399.2 180.5,-377.2 34.5,-377.2"/>
<image xlink:href="../../images/primaryKeys.png" width="11px" height="12px" preserveAspectRatio="xMinYMin meet" x="39.5" y="-394.2"/>
<text text-anchor="start" x="56.5" y="-384.3" font-family="Helvetica,sans-Serif" font-size="11.00" fill="#000000">id</text>
<polygon fill="#ffffff" stroke="transparent" points="34.5,-355.2 34.5,-377.2 180.5,-377.2 180.5,-355.2 34.5,-355.2"/>
<polygon fill="none" stroke="#000000" points="34.5,-355.2 34.5,-377.2 180.5,-377.2 180.5,-355.2 34.5,-355.2"/>
<text text-anchor="start" x="56.5" y="-362.3" font-family="Helvetica,sans-Serif" font-size="11.00" fill="#000000">code</text>
<polygon fill="#ffffff" stroke="transparent" points="34.5,-333.2 34.5,-355.2 180.5,-355.2 180.5,-333.2 34.5,-333.2"/>
<polygon fill="none" stroke="#000000" points="34.5,-333.2 34.5,-355.2 180.5,-355.2 180.5,-333.2 34.5,-333.2"/>
<text text-anchor="start" x="56.5" y="-340.3" font-family="Helvetica,sans-Serif" font-size="11.00" fill="#000000">sequence_number</text>
<polygon fill="none" stroke="#000000" points="34.5,-314.2 34.5,-333.2 180.5,-333.2 180.5,-314.2 34.5,-314.2"/>
<text text-anchor="start" x="37.5" y="-320.3" font-family="Helvetica,sans-Serif" font-size="11.00" fill="#000000">...</text>
<polygon fill="#ffffff" stroke="transparent" points="34.5,-295.2 34.5,-314.2 96.5,-314.2 96.5,-295.2 34.5,-295.2"/>
<polygon fill="none" stroke="#000000" points="34.5,-295.2 34.5,-314.2 96.5,-314.2 96.5,-295.2 34.5,-295.2"/>
<text text-anchor="start" x="37.5" y="-301.3" font-family="Helvetica,sans-Serif" font-size="11.00" fill="#000000"> &#160;</text>
<polygon fill="#ffffff" stroke="transparent" points="96.5,-295.2 96.5,-314.2 133.5,-314.2 133.5,-295.2 96.5,-295.2"/>
<polygon fill="none" stroke="#000000" points="96.5,-295.2 96.5,-314.2 133.5,-314.2 133.5,-295.2 96.5,-295.2"/>
<text text-anchor="start" x="124.3862" y="-301.3" font-family="Helvetica,sans-Serif" font-size="11.00" fill="#000000"> &#160;</text>
<polygon fill="#ffffff" stroke="transparent" points="133.5,-295.2 133.5,-314.2 180.5,-314.2 180.5,-295.2 133.5,-295.2"/>
<polygon fill="none" stroke="#000000" points="133.5,-295.2 133.5,-314.2 180.5,-314.2 180.5,-295.2 133.5,-295.2"/>
<text text-anchor="start" x="161.9053" y="-301.3" font-family="Helvetica,sans-Serif" font-size="11.00" fill="#000000">3 &gt;</text>
</a>
</g>
</g>
<!-- movement&#45;&gt;absence_reason -->
<g id="edge1" class="edge">
<title>movement:w&#45;&gt;absence_reason:e</title>
<path fill="none" stroke="#000000" d="M506.0084,-201.3059C496.8542,-200.0889 490.5091,-197.9738 477,-197.2 426.1944,-194.2897 289.5486,-167.8165 248,-197.2 174.491,-249.1861 270.534,-388.2 180.5,-388.2"/>
<polygon fill="#000000" stroke="#000000" points="512.5152,-201.7073 520.2783,-205.7932 516.5076,-201.9536 520.5,-202.2 520.5,-202.2 520.5,-202.2 516.5076,-201.9536 520.7217,-198.6068 512.5152,-201.7073 512.5152,-201.7073"/>
<ellipse fill="none" stroke="#000000" cx="509.3213" cy="-201.5102" rx="3.2" ry="3.2"/>
</g>
<!-- accompanied_by -->
<g id="node3" class="node">
<title>accompanied_by</title>
<g id="a_node3"><a xlink:href="../../tables/accompanied_by.html" xlink:title="accompanied_by" target="_top">
<polygon fill="#ffffff" stroke="transparent" points="32.5,-147.7 32.5,-274.7 182.5,-274.7 182.5,-147.7 32.5,-147.7"/>
<polygon fill="#f5f5f5" stroke="transparent" points="32.5,-251.2 32.5,-274.2 182.5,-274.2 182.5,-251.2 32.5,-251.2"/>
<polygon fill="none" stroke="#000000" points="32.5,-251.2 32.5,-274.2 182.5,-274.2 182.5,-251.2 32.5,-251.2"/>
<text text-anchor="start" x="37.5" y="-259.8" font-family="Helvetica,sans-Serif" font-weight="bold" font-size="11.00" fill="#000000">accompanied_by</text>
<text text-anchor="start" x="148.0219" y="-259.3" font-family="Helvetica,sans-Serif" font-size="11.00" fill="#000000">[table]</text>
<polygon fill="none" stroke="#000000" points="32.5,-229.2 32.5,-251.2 182.5,-251.2 182.5,-229.2 32.5,-229.2"/>
<image xlink:href="../../images/primaryKeys.png" width="11px" height="12px" preserveAspectRatio="xMinYMin meet" x="37.5" y="-246.2"/>
<text text-anchor="start" x="56.5" y="-236.3" font-family="Helvetica,sans-Serif" font-size="11.00" fill="#000000">id</text>
<polygon fill="#ffffff" stroke="transparent" points="32.5,-207.2 32.5,-229.2 182.5,-229.2 182.5,-207.2 32.5,-207.2"/>
<polygon fill="none" stroke="#000000" points="32.5,-207.2 32.5,-229.2 182.5,-229.2 182.5,-207.2 32.5,-207.2"/>
<text text-anchor="start" x="56.5" y="-214.3" font-family="Helvetica,sans-Serif" font-size="11.00" fill="#000000">code</text>
<polygon fill="#ffffff" stroke="transparent" points="32.5,-185.2 32.5,-207.2 182.5,-207.2 182.5,-185.2 32.5,-185.2"/>
<polygon fill="none" stroke="#000000" points="32.5,-185.2 32.5,-207.2 182.5,-207.2 182.5,-185.2 32.5,-185.2"/>
<text text-anchor="start" x="56.5" y="-192.3" font-family="Helvetica,sans-Serif" font-size="11.00" fill="#000000">sequence_number</text>
<polygon fill="none" stroke="#000000" points="32.5,-166.2 32.5,-185.2 182.5,-185.2 182.5,-166.2 32.5,-166.2"/>
<text text-anchor="start" x="35.5" y="-172.3" font-family="Helvetica,sans-Serif" font-size="11.00" fill="#000000">...</text>
<polygon fill="#ffffff" stroke="transparent" points="32.5,-147.2 32.5,-166.2 96.5,-166.2 96.5,-147.2 32.5,-147.2"/>
<polygon fill="none" stroke="#000000" points="32.5,-147.2 32.5,-166.2 96.5,-166.2 96.5,-147.2 32.5,-147.2"/>
<text text-anchor="start" x="35.5" y="-153.3" font-family="Helvetica,sans-Serif" font-size="11.00" fill="#000000"> &#160;</text>
<polygon fill="#ffffff" stroke="transparent" points="96.5,-147.2 96.5,-166.2 134.5,-166.2 134.5,-147.2 96.5,-147.2"/>
<polygon fill="none" stroke="#000000" points="96.5,-147.2 96.5,-166.2 134.5,-166.2 134.5,-147.2 96.5,-147.2"/>
<text text-anchor="start" x="125.3862" y="-153.3" font-family="Helvetica,sans-Serif" font-size="11.00" fill="#000000"> &#160;</text>
<polygon fill="#ffffff" stroke="transparent" points="134.5,-147.2 134.5,-166.2 182.5,-166.2 182.5,-147.2 134.5,-147.2"/>
<polygon fill="none" stroke="#000000" points="134.5,-147.2 134.5,-166.2 182.5,-166.2 182.5,-147.2 134.5,-147.2"/>
<text text-anchor="start" x="163.9053" y="-153.3" font-family="Helvetica,sans-Serif" font-size="11.00" fill="#000000">3 &gt;</text>
</a>
</g>
</g>
<!-- movement&#45;&gt;accompanied_by -->
<g id="edge2" class="edge">
<title>movement:w&#45;&gt;accompanied_by:e</title>
<path fill="none" stroke="#000000" d="M505.9723,-178.9487C496.834,-177.2454 490.5723,-174.285 477,-173.2 375.5459,-165.0892 341.8084,-133.7197 248,-173.2 209.6173,-189.3537 224.1434,-240.2 182.5,-240.2"/>
<polygon fill="#000000" stroke="#000000" points="512.5295,-179.5134 520.191,-183.7867 516.5148,-179.8567 520.5,-180.2 520.5,-180.2 520.5,-180.2 516.5148,-179.8567 520.809,-176.6133 512.5295,-179.5134 512.5295,-179.5134"/>
<ellipse fill="none" stroke="#000000" cx="509.3413" cy="-179.2388" rx="3.2" ry="3.2"/>
</g>
<!-- occurrence -->
<g id="node4" class="node">
<title>occurrence</title>
<g id="a_node4"><a xlink:href="../../tables/occurrence.html" xlink:title="occurrence" target="_top">
<polygon fill="#ffffff" stroke="transparent" points="256,-207.7 256,-598.7 469,-598.7 469,-207.7 256,-207.7"/>
<polygon fill="#f5f5f5" stroke="transparent" points="256.5,-575.2 256.5,-598.2 469.5,-598.2 469.5,-575.2 256.5,-575.2"/>
<polygon fill="none" stroke="#000000" points="256.5,-575.2 256.5,-598.2 469.5,-598.2 469.5,-575.2 256.5,-575.2"/>
<text text-anchor="start" x="261.5" y="-583.8" font-family="Helvetica,sans-Serif" font-weight="bold" font-size="11.00" fill="#000000">occurrence</text>
<text text-anchor="start" x="434.5437" y="-583.3" font-family="Helvetica,sans-Serif" font-size="11.00" fill="#000000">[table]</text>
<polygon fill="none" stroke="#000000" points="256.5,-553.2 256.5,-575.2 469.5,-575.2 469.5,-553.2 256.5,-553.2"/>
<image xlink:href="../../images/primaryKeys.png" width="11px" height="12px" preserveAspectRatio="xMinYMin meet" x="261.5" y="-570.2"/>
<text text-anchor="start" x="276.5" y="-560.3" font-family="Helvetica,sans-Serif" font-size="11.00" fill="#000000">id</text>
<polygon fill="#ffffff" stroke="transparent" points="256.5,-531.2 256.5,-553.2 469.5,-553.2 469.5,-531.2 256.5,-531.2"/>
<polygon fill="none" stroke="#000000" points="256.5,-531.2 256.5,-553.2 469.5,-553.2 469.5,-531.2 256.5,-531.2"/>
<image xlink:href="../../images/foreignKeys.png" width="11px" height="12px" preserveAspectRatio="xMinYMin meet" x="261.5" y="-548.2"/>
<text text-anchor="start" x="276.5" y="-538.3" font-family="Helvetica,sans-Serif" font-size="11.00" fill="#000000">person_identifier</text>
<polygon fill="#ffffff" stroke="transparent" points="256.5,-509.2 256.5,-531.2 469.5,-531.2 469.5,-509.2 256.5,-509.2"/>
<polygon fill="none" stroke="#000000" points="256.5,-509.2 256.5,-531.2 469.5,-531.2 469.5,-509.2 256.5,-509.2"/>
<image xlink:href="../../images/foreignKeys.png" width="11px" height="12px" preserveAspectRatio="xMinYMin meet" x="261.5" y="-526.2"/>
<text text-anchor="start" x="276.5" y="-516.3" font-family="Helvetica,sans-Serif" font-size="11.00" fill="#000000">prison_code</text>
<polygon fill="#ffffff" stroke="transparent" points="256.5,-487.2 256.5,-509.2 469.5,-509.2 469.5,-487.2 256.5,-487.2"/>
<polygon fill="none" stroke="#000000" points="256.5,-487.2 256.5,-509.2 469.5,-509.2 469.5,-487.2 256.5,-487.2"/>
<text text-anchor="start" x="276.5" y="-494.3" font-family="Helvetica,sans-Serif" font-size="11.00" fill="#000000">authorisation_id</text>
<polygon fill="#ffffff" stroke="transparent" points="256.5,-465.2 256.5,-487.2 469.5,-487.2 469.5,-465.2 256.5,-465.2"/>
<polygon fill="none" stroke="#000000" points="256.5,-465.2 256.5,-487.2 469.5,-487.2 469.5,-465.2 256.5,-465.2"/>
<image xlink:href="../../images/foreignKeys.png" width="11px" height="12px" preserveAspectRatio="xMinYMin meet" x="261.5" y="-482.2"/>
<text text-anchor="start" x="276.5" y="-472.3" font-family="Helvetica,sans-Serif" font-size="11.00" fill="#000000">status_id</text>
<polygon fill="none" stroke="#000000" points="256.5,-443.2 256.5,-465.2 469.5,-465.2 469.5,-443.2 256.5,-443.2"/>
<image xlink:href="../../images/foreignKeys.png" width="11px" height="12px" preserveAspectRatio="xMinYMin meet" x="261.5" y="-460.2"/>
<text text-anchor="start" x="276.5" y="-450.3" font-family="Helvetica,sans-Serif" font-size="11.00" fill="#000000">absence_type_id</text>
<polygon fill="none" stroke="#000000" points="256.5,-421.2 256.5,-443.2 469.5,-443.2 469.5,-421.2 256.5,-421.2"/>
<image xlink:href="../../images/foreignKeys.png" width="11px" height="12px" preserveAspectRatio="xMinYMin meet" x="261.5" y="-438.2"/>
<text text-anchor="start" x="276.5" y="-428.3" font-family="Helvetica,sans-Serif" font-size="11.00" fill="#000000">absence_sub_type_id</text>
<polygon fill="none" stroke="#000000" points="256.5,-399.2 256.5,-421.2 469.5,-421.2 469.5,-399.2 256.5,-399.2"/>
<image xlink:href="../../images/foreignKeys.png" width="11px" height="12px" preserveAspectRatio="xMinYMin meet" x="261.5" y="-416.2"/>
<text text-anchor="start" x="276.5" y="-406.3" font-family="Helvetica,sans-Serif" font-size="11.00" fill="#000000">absence_reason_category_id</text>
<polygon fill="none" stroke="#000000" points="256.5,-377.2 256.5,-399.2 469.5,-399.2 469.5,-377.2 256.5,-377.2"/>
<image xlink:href="../../images/foreignKeys.png" width="11px" height="12px" preserveAspectRatio="xMinYMin meet" x="261.5" y="-394.2"/>
<text text-anchor="start" x="276.5" y="-384.3" font-family="Helvetica,sans-Serif" font-size="11.00" fill="#000000">absence_reason_id</text>
<polygon fill="none" stroke="#000000" points="256.5,-355.2 256.5,-377.2 469.5,-377.2 469.5,-355.2 256.5,-355.2"/>
<image xlink:href="../../images/foreignKeys.png" width="11px" height="12px" preserveAspectRatio="xMinYMin meet" x="261.5" y="-372.2"/>
<text text-anchor="start" x="276.5" y="-362.3" font-family="Helvetica,sans-Serif" font-size="11.00" fill="#000000">accompanied_by_id</text>
<polygon fill="none" stroke="#000000" points="256.5,-333.2 256.5,-355.2 469.5,-355.2 469.5,-333.2 256.5,-333.2"/>
<image xlink:href="../../images/foreignKeys.png" width="11px" height="12px" preserveAspectRatio="xMinYMin meet" x="261.5" y="-350.2"/>
<text text-anchor="start" x="276.5" y="-340.3" font-family="Helvetica,sans-Serif" font-size="11.00" fill="#000000">transport_id</text>
<polygon fill="#ffffff" stroke="transparent" points="256.5,-311.2 256.5,-333.2 469.5,-333.2 469.5,-311.2 256.5,-311.2"/>
<polygon fill="none" stroke="#000000" points="256.5,-311.2 256.5,-333.2 469.5,-333.2 469.5,-311.2 256.5,-311.2"/>
<text text-anchor="start" x="276.5" y="-318.3" font-family="Helvetica,sans-Serif" font-size="11.00" fill="#000000">start</text>
<polygon fill="#ffffff" stroke="transparent" points="256.5,-289.2 256.5,-311.2 469.5,-311.2 469.5,-289.2 256.5,-289.2"/>
<polygon fill="none" stroke="#000000" points="256.5,-289.2 256.5,-311.2 469.5,-311.2 469.5,-289.2 256.5,-289.2"/>
<text text-anchor="start" x="276.5" y="-296.3" font-family="Helvetica,sans-Serif" font-size="11.00" fill="#000000">end</text>
<polygon fill="#ffffff" stroke="transparent" points="256.5,-267.2 256.5,-289.2 469.5,-289.2 469.5,-267.2 256.5,-267.2"/>
<polygon fill="none" stroke="#000000" points="256.5,-267.2 256.5,-289.2 469.5,-289.2 469.5,-267.2 256.5,-267.2"/>
<text text-anchor="start" x="276.5" y="-274.3" font-family="Helvetica,sans-Serif" font-size="11.00" fill="#000000">legacy_id</text>
<polygon fill="#ffffff" stroke="transparent" points="256.5,-245.2 256.5,-267.2 469.5,-267.2 469.5,-245.2 256.5,-245.2"/>
<polygon fill="none" stroke="#000000" points="256.5,-245.2 256.5,-267.2 469.5,-267.2 469.5,-245.2 256.5,-245.2"/>
<text text-anchor="start" x="276.5" y="-252.3" font-family="Helvetica,sans-Serif" font-size="11.00" fill="#000000">dps_only</text>
<polygon fill="none" stroke="#000000" points="256.5,-226.2 256.5,-245.2 469.5,-245.2 469.5,-226.2 256.5,-226.2"/>
<text text-anchor="start" x="259.5" y="-232.3" font-family="Helvetica,sans-Serif" font-size="11.00" fill="#000000">...</text>
<polygon fill="#ffffff" stroke="transparent" points="256.5,-207.2 256.5,-226.2 356.5,-226.2 356.5,-207.2 256.5,-207.2"/>
<polygon fill="none" stroke="#000000" points="256.5,-207.2 256.5,-226.2 356.5,-226.2 356.5,-207.2 256.5,-207.2"/>
<text text-anchor="start" x="259.5" y="-213.3" font-family="Helvetica,sans-Serif" font-size="11.00" fill="#000000">&lt; 9</text>
<polygon fill="#ffffff" stroke="transparent" points="356.5,-207.2 356.5,-226.2 408.5,-226.2 408.5,-207.2 356.5,-207.2"/>
<polygon fill="none" stroke="#000000" points="356.5,-207.2 356.5,-226.2 408.5,-226.2 408.5,-207.2 356.5,-207.2"/>
<text text-anchor="start" x="399.3862" y="-213.3" font-family="Helvetica,sans-Serif" font-size="11.00" fill="#000000"> &#160;</text>
<polygon fill="#ffffff" stroke="transparent" points="408.5,-207.2 408.5,-226.2 469.5,-226.2 469.5,-207.2 408.5,-207.2"/>
<polygon fill="none" stroke="#000000" points="408.5,-207.2 408.5,-226.2 469.5,-226.2 469.5,-207.2 408.5,-207.2"/>
<text text-anchor="start" x="450.9053" y="-213.3" font-family="Helvetica,sans-Serif" font-size="11.00" fill="#000000">1 &gt;</text>
</a>
</g>
</g>
<!-- movement&#45;&gt;occurrence -->
<g id="edge3" class="edge">
<title>movement:w&#45;&gt;occurrence:e</title>
<path fill="none" stroke="#000000" d="M506.101,-269.5856C403.7417,-291.4286 597.649,-564.2 469.5,-564.2"/>
<polygon fill="#000000" stroke="#000000" points="512.5368,-268.9663 520.8448,-271.7834 516.5184,-268.5832 520.5,-268.2 520.5,-268.2 520.5,-268.2 516.5184,-268.5832 520.1552,-264.6166 512.5368,-268.9663 512.5368,-268.9663"/>
<ellipse fill="none" stroke="#000000" cx="509.3515" cy="-269.2729" rx="3.2" ry="3.2"/>
</g>
<!-- public.person_summary -->
<g id="node5" class="node">
<title>public.person_summary</title>
<g id="a_node5"><a xlink:href="../../../public/tables/person_summary.html" xlink:title="public.person_summary" target="_top">
<polygon fill="#ffffff" stroke="transparent" points="8,-551.7 8,-612.7 207,-612.7 207,-551.7 8,-551.7"/>
<polygon fill="#f5f5f5" stroke="transparent" points="8.5,-589.2 8.5,-612.2 207.5,-612.2 207.5,-589.2 8.5,-589.2"/>
<polygon fill="none" stroke="#000000" points="8.5,-589.2 8.5,-612.2 207.5,-612.2 207.5,-589.2 8.5,-589.2"/>
<text text-anchor="start" x="13.5" y="-597.8" font-family="Helvetica,sans-Serif" font-weight="bold" font-size="11.00" fill="#000000">public.person_summary</text>
<text text-anchor="start" x="173.0219" y="-597.3" font-family="Helvetica,sans-Serif" font-size="11.00" fill="#000000">[table]</text>
<polygon fill="none" stroke="#000000" points="8.5,-570.2 8.5,-589.2 207.5,-589.2 207.5,-570.2 8.5,-570.2"/>
<text text-anchor="start" x="11.5" y="-576.3" font-family="Helvetica,sans-Serif" font-size="11.00" fill="#000000">...</text>
<polygon fill="#ffffff" stroke="transparent" points="8.5,-551.2 8.5,-570.2 84.5,-570.2 84.5,-551.2 8.5,-551.2"/>
<polygon fill="none" stroke="#000000" points="8.5,-551.2 8.5,-570.2 84.5,-570.2 84.5,-551.2 8.5,-551.2"/>
<text text-anchor="start" x="11.5" y="-557.3" font-family="Helvetica,sans-Serif" font-size="11.00" fill="#000000"> &#160;</text>
<polygon fill="#ffffff" stroke="transparent" points="84.5,-551.2 84.5,-570.2 154.5,-570.2 154.5,-551.2 84.5,-551.2"/>
<polygon fill="none" stroke="#000000" points="84.5,-551.2 84.5,-570.2 154.5,-570.2 154.5,-551.2 84.5,-551.2"/>
<text text-anchor="start" x="119.1105" y="-557.3" font-family="Helvetica,sans-Serif" font-size="11.00" fill="#000000">0 rows</text>
<polygon fill="#ffffff" stroke="transparent" points="154.5,-551.2 154.5,-570.2 207.5,-570.2 207.5,-551.2 154.5,-551.2"/>
<polygon fill="none" stroke="#000000" points="154.5,-551.2 154.5,-570.2 207.5,-570.2 207.5,-551.2 154.5,-551.2"/>
<text text-anchor="start" x="188.9053" y="-557.3" font-family="Helvetica,sans-Serif" font-size="11.00" fill="#000000">3 &gt;</text>
</a>
</g>
</g>
<!-- movement&#45;&gt;public.person_summary -->
<g id="edge4" class="edge">
<title>movement:w&#45;&gt;public.person_summary:e</title>
<path fill="none" stroke="#000000" d="M506.6947,-294.7141C460.6506,-330.3252 526.7937,-565.7355 477,-609.2 397.2889,-678.7791 267.45,-647.7897 184.8186,-616.7484"/>
<polygon fill="#000000" stroke="#000000" points="512.8962,-292.6864 521.6189,-293.6217 516.6981,-291.4432 520.5,-290.2 520.5,-290.2 520.5,-290.2 516.6981,-291.4432 519.3811,-286.7783 512.8962,-292.6864 512.8962,-292.6864"/>
<ellipse fill="none" stroke="#000000" cx="509.8546" cy="-293.6809" rx="3.2" ry="3.2"/>
</g>
<!-- prison_tap_locations -->
<g id="node6" class="node">
<title>prison_tap_locations</title>
<g id="a_node6"><a xlink:href="../../tables/prison_tap_locations.html" xlink:title="prison_tap_locations" target="_top">
<polygon fill="#ffffff" stroke="transparent" points="19,-43.7 19,-126.7 196,-126.7 196,-43.7 19,-43.7"/>
<polygon fill="#f5f5f5" stroke="transparent" points="19.5,-103.2 19.5,-126.2 196.5,-126.2 196.5,-103.2 19.5,-103.2"/>
<polygon fill="none" stroke="#000000" points="19.5,-103.2 19.5,-126.2 196.5,-126.2 196.5,-103.2 19.5,-103.2"/>
<text text-anchor="start" x="24.5" y="-111.8" font-family="Helvetica,sans-Serif" font-weight="bold" font-size="11.00" fill="#000000">prison_tap_locations</text>
<text text-anchor="start" x="162.0219" y="-111.3" font-family="Helvetica,sans-Serif" font-size="11.00" fill="#000000">[table]</text>
<polygon fill="none" stroke="#000000" points="19.5,-81.2 19.5,-103.2 196.5,-103.2 196.5,-81.2 19.5,-81.2"/>
<image xlink:href="../../images/primaryKeys.png" width="11px" height="12px" preserveAspectRatio="xMinYMin meet" x="24.5" y="-98.2"/>
<text text-anchor="start" x="48.5" y="-88.3" font-family="Helvetica,sans-Serif" font-size="11.00" fill="#000000">prison_code</text>
<polygon fill="none" stroke="#000000" points="19.5,-62.2 19.5,-81.2 196.5,-81.2 196.5,-62.2 19.5,-62.2"/>
<text text-anchor="start" x="22.5" y="-68.3" font-family="Helvetica,sans-Serif" font-size="11.00" fill="#000000">...</text>
<polygon fill="#ffffff" stroke="transparent" points="19.5,-43.2 19.5,-62.2 97.5,-62.2 97.5,-43.2 19.5,-43.2"/>
<polygon fill="none" stroke="#000000" points="19.5,-43.2 19.5,-62.2 97.5,-62.2 97.5,-43.2 19.5,-43.2"/>
<text text-anchor="start" x="22.5" y="-49.3" font-family="Helvetica,sans-Serif" font-size="11.00" fill="#000000"> &#160;</text>
<polygon fill="#ffffff" stroke="transparent" points="97.5,-43.2 97.5,-62.2 142.5,-62.2 142.5,-43.2 97.5,-43.2"/>
<polygon fill="none" stroke="#000000" points="97.5,-43.2 97.5,-62.2 142.5,-62.2 142.5,-43.2 97.5,-43.2"/>
<text text-anchor="start" x="133.3862" y="-49.3" font-family="Helvetica,sans-Serif" font-size="11.00" fill="#000000"> &#160;</text>
<polygon fill="#ffffff" stroke="transparent" points="142.5,-43.2 142.5,-62.2 196.5,-62.2 196.5,-43.2 142.5,-43.2"/>
<polygon fill="none" stroke="#000000" points="142.5,-43.2 142.5,-62.2 196.5,-62.2 196.5,-43.2 142.5,-43.2"/>
<text text-anchor="start" x="177.9053" y="-49.3" font-family="Helvetica,sans-Serif" font-size="11.00" fill="#000000">9 &gt;</text>
</a>
</g>
</g>
<!-- movement&#45;&gt;prison_tap_locations -->
<g id="edge5" class="edge">
<title>movement:w&#45;&gt;prison_tap_locations:e</title>
<path fill="none" stroke="#000000" stroke-dasharray="5,2" d="M505.7036,-92.2C373.8353,-92.2 335.4375,-92.2 196.5,-92.2"/>
<polygon fill="#000000" stroke="#000000" points="512.5,-92.2001 520.5,-95.8 516.5,-92.2 520.5,-92.2 520.5,-92.2 520.5,-92.2 516.5,-92.2 520.5,-88.6 512.5,-92.2001 512.5,-92.2001"/>
<ellipse fill="none" stroke="#000000" cx="509.3" cy="-92.2001" rx="3.2" ry="3.2"/>
</g>
<!-- occurrence&#45;&gt;absence_reason -->
<g id="edge6" class="edge">
<title>occurrence:w&#45;&gt;absence_reason:e</title>
<path fill="none" stroke="#000000" d="M242.0121,-388.2C219.3676,-388.2 208.8681,-388.2 180.5,-388.2"/>
<polygon fill="#000000" stroke="#000000" points="248.5,-388.2001 256.5,-391.8 252.5,-388.2 256.5,-388.2 256.5,-388.2 256.5,-388.2 252.5,-388.2 256.5,-384.6 248.5,-388.2001 248.5,-388.2001"/>
<ellipse fill="none" stroke="#000000" cx="245.3" cy="-388.2001" rx="3.2" ry="3.2"/>
</g>
<!-- occurrence&#45;&gt;accompanied_by -->
<g id="edge7" class="edge">
<title>occurrence:w&#45;&gt;accompanied_by:e</title>
<path fill="none" stroke="#000000" d="M242.2804,-363.5683C200.2696,-345.4743 241.8626,-240.2 182.5,-240.2"/>
<polygon fill="#000000" stroke="#000000" points="248.6336,-364.7441 255.8448,-369.7399 252.5668,-365.472 256.5,-366.2 256.5,-366.2 256.5,-366.2 252.5668,-365.472 257.1552,-362.6601 248.6336,-364.7441 248.6336,-364.7441"/>
<ellipse fill="none" stroke="#000000" cx="245.487" cy="-364.1617" rx="3.2" ry="3.2"/>
</g>
<!-- occurrence&#45;&gt;public.person_summary -->
<g id="edge8" class="edge">
<title>occurrence:w&#45;&gt;public.person_summary:e</title>
<path fill="none" stroke="#000000" d="M241.7873,-542.7734C230.5097,-543.6241 219.0929,-545.3715 207.9264,-547.678"/>
<polygon fill="#000000" stroke="#000000" points="248.5061,-542.5116 256.6402,-545.7973 252.503,-542.3558 256.5,-542.2 256.5,-542.2 256.5,-542.2 252.503,-542.3558 256.3598,-538.6027 248.5061,-542.5116 248.5061,-542.5116"/>
<ellipse fill="none" stroke="#000000" cx="245.3085" cy="-542.6362" rx="3.2" ry="3.2"/>
</g>
<!-- occurrence&#45;&gt;prison_tap_locations -->
<g id="edge9" class="edge">
<title>occurrence:w&#45;&gt;prison_tap_locations:e</title>
<path fill="none" stroke="#000000" stroke-dasharray="5,2" d="M242.2932,-516.2363C174.6894,-473.0887 287.1013,-92.2 196.5,-92.2"/>
<polygon fill="#000000" stroke="#000000" points="248.7943,-518.0501 255.5325,-523.6676 252.6471,-519.125 256.5,-520.2 256.5,-520.2 256.5,-520.2 252.6471,-519.125 257.4675,-516.7324 248.7943,-518.0501 248.7943,-518.0501"/>
<ellipse fill="none" stroke="#000000" cx="245.712" cy="-517.1901" rx="3.2" ry="3.2"/>
</g>
</g>
</svg>
