<?xml version="1.0" encoding="UTF-8" standalone="no"?>
<!DOCTYPE svg PUBLIC "-//W3C//DTD SVG 1.1//EN"
 "http://www.w3.org/Graphics/SVG/1.1/DTD/svg11.dtd">
<!-- Generated by graphviz version 2.40.1 (20161225.0304)
 -->
<!-- Title: oneDegreeRelationshipsDiagram Pages: 1 -->
<svg width="563pt" height="426pt"
 viewBox="0.00 0.00 563.00 426.20" xmlns="http://www.w3.org/2000/svg" xmlns:xlink="http://www.w3.org/1999/xlink">
<g id="graph0" class="graph" transform="scale(1 1) rotate(0) translate(4 422.2)">
<title>oneDegreeRelationshipsDiagram</title>
<polygon fill="#ffffff" stroke="transparent" points="-4,4 -4,-422.2 559,-422.2 559,4 -4,4"/>
<text text-anchor="middle" x="72.4936" y="-7.3" font-family="Helvetica,sans-Serif" font-size="11.00" fill="#000000">Generated by SchemaSpy</text>
<!-- movement_audit -->
<g id="node1" class="node">
<title>movement_audit</title>
<g id="a_node1"><a xlink:href="../../tables/movement_audit.html" xlink:title="movement_audit" target="_top">
<polygon fill="#ffffff" stroke="transparent" points="236,-38.2 236,-414.2 547,-414.2 547,-38.2 236,-38.2"/>
<polygon fill="#f5f5f5" stroke="transparent" points="238.5,-389.2 238.5,-412.2 545.5,-412.2 545.5,-389.2 238.5,-389.2"/>
<polygon fill="none" stroke="#000000" points="238.5,-389.2 238.5,-412.2 545.5,-412.2 545.5,-389.2 238.5,-389.2"/>
<text text-anchor="start" x="243.5" y="-397.8" font-family="Helvetica,sans-Serif" font-weight="bold" font-size="11.00" fill="#000000">movement_audit</text>
<text text-anchor="start" x="510.5437" y="-397.3" font-family="Helvetica,sans-Serif" font-size="11.00" fill="#000000">[table]</text>
<polygon fill="none" stroke="#000000" points="238.5,-367.2 238.5,-389.2 446.5,-389.2 446.5,-367.2 238.5,-367.2"/>
<image xlink:href="../../images/primaryKeys.png" width="11px" height="12px" preserveAspectRatio="xMinYMin meet" x="243.5" y="-384.2"/>
<text text-anchor="start" x="258.5" y="-374.3" font-family="Helvetica,sans-Serif" font-size="11.00" fill="#000000">rev_id</text>
<polygon fill="none" stroke="#000000" points="446.5,-367.2 446.5,-389.2 545.5,-389.2 545.5,-367.2 446.5,-367.2"/>
<text text-anchor="start" x="449.5" y="-374.9" font-family="Helvetica,sans-Serif" font-size="11.00" fill="#000000">int8[19]</text>
<polygon fill="none" stroke="#000000" points="238.5,-345.2 238.5,-367.2 446.5,-367.2 446.5,-345.2 238.5,-345.2"/>
<text text-anchor="start" x="258.5" y="-352.3" font-family="Helvetica,sans-Serif" font-size="11.00" fill="#000000">rev_type</text>
<polygon fill="none" stroke="#000000" points="446.5,-345.2 446.5,-367.2 545.5,-367.2 545.5,-345.2 446.5,-345.2"/>
<text text-anchor="start" x="449.5" y="-352.9" font-family="Helvetica,sans-Serif" font-size="11.00" fill="#000000">int2[5]</text>
<polygon fill="none" stroke="#000000" points="238.5,-323.2 238.5,-345.2 446.5,-345.2 446.5,-323.2 238.5,-323.2"/>
<image xlink:href="../../images/primaryKeys.png" width="11px" height="12px" preserveAspectRatio="xMinYMin meet" x="243.5" y="-340.2"/>
<text text-anchor="start" x="258.5" y="-330.3" font-family="Helvetica,sans-Serif" font-size="11.00" fill="#000000">id</text>
<polygon fill="none" stroke="#000000" points="446.5,-323.2 446.5,-345.2 545.5,-345.2 545.5,-323.2 446.5,-323.2"/>
<text text-anchor="start" x="449.5" y="-330.9" font-family="Helvetica,sans-Serif" font-size="11.00" fill="#000000">uuid[2147483647]</text>
<polygon fill="none" stroke="#000000" points="238.5,-301.2 238.5,-323.2 446.5,-323.2 446.5,-301.2 238.5,-301.2"/>
<text text-anchor="start" x="258.5" y="-308.3" font-family="Helvetica,sans-Serif" font-size="11.00" fill="#000000">version</text>
<polygon fill="none" stroke="#000000" points="446.5,-301.2 446.5,-323.2 545.5,-323.2 545.5,-301.2 446.5,-301.2"/>
<text text-anchor="start" x="449.5" y="-308.9" font-family="Helvetica,sans-Serif" font-size="11.00" fill="#000000">int4[10]</text>
<polygon fill="none" stroke="#000000" points="238.5,-279.2 238.5,-301.2 446.5,-301.2 446.5,-279.2 238.5,-279.2"/>
<text text-anchor="start" x="258.5" y="-286.3" font-family="Helvetica,sans-Serif" font-size="11.00" fill="#000000">person_identifier</text>
<polygon fill="none" stroke="#000000" points="446.5,-279.2 446.5,-301.2 545.5,-301.2 545.5,-279.2 446.5,-279.2"/>
<text text-anchor="start" x="449.5" y="-286.9" font-family="Helvetica,sans-Serif" font-size="11.00" fill="#000000">varchar[10]</text>
<polygon fill="none" stroke="#000000" points="238.5,-257.2 238.5,-279.2 446.5,-279.2 446.5,-257.2 238.5,-257.2"/>
<text text-anchor="start" x="258.5" y="-264.3" font-family="Helvetica,sans-Serif" font-size="11.00" fill="#000000">occurrence_id</text>
<polygon fill="none" stroke="#000000" points="446.5,-257.2 446.5,-279.2 545.5,-279.2 545.5,-257.2 446.5,-257.2"/>
<text text-anchor="start" x="449.5" y="-264.9" font-family="Helvetica,sans-Serif" font-size="11.00" fill="#000000">uuid[2147483647]</text>
<polygon fill="none" stroke="#000000" points="238.5,-235.2 238.5,-257.2 446.5,-257.2 446.5,-235.2 238.5,-235.2"/>
<text text-anchor="start" x="258.5" y="-242.3" font-family="Helvetica,sans-Serif" font-size="11.00" fill="#000000">occurred_at</text>
<polygon fill="none" stroke="#000000" points="446.5,-235.2 446.5,-257.2 545.5,-257.2 545.5,-235.2 446.5,-235.2"/>
<text text-anchor="start" x="449.5" y="-242.9" font-family="Helvetica,sans-Serif" font-size="11.00" fill="#000000">timestamp[29,6]</text>
<polygon fill="none" stroke="#000000" points="238.5,-213.2 238.5,-235.2 446.5,-235.2 446.5,-213.2 238.5,-213.2"/>
<text text-anchor="start" x="258.5" y="-220.3" font-family="Helvetica,sans-Serif" font-size="11.00" fill="#000000">direction</text>
<polygon fill="none" stroke="#000000" points="446.5,-213.2 446.5,-235.2 545.5,-235.2 545.5,-213.2 446.5,-213.2"/>
<text text-anchor="start" x="449.5" y="-220.9" font-family="Helvetica,sans-Serif" font-size="11.00" fill="#000000">varchar[3]</text>
<polygon fill="none" stroke="#000000" points="238.5,-191.2 238.5,-213.2 446.5,-213.2 446.5,-191.2 238.5,-191.2"/>
<text text-anchor="start" x="258.5" y="-198.3" font-family="Helvetica,sans-Serif" font-size="11.00" fill="#000000">absence_reason_id</text>
<polygon fill="none" stroke="#000000" points="446.5,-191.2 446.5,-213.2 545.5,-213.2 545.5,-191.2 446.5,-191.2"/>
<text text-anchor="start" x="449.5" y="-198.9" font-family="Helvetica,sans-Serif" font-size="11.00" fill="#000000">uuid[2147483647]</text>
<polygon fill="none" stroke="#000000" points="238.5,-169.2 238.5,-191.2 446.5,-191.2 446.5,-169.2 238.5,-169.2"/>
<text text-anchor="start" x="258.5" y="-176.3" font-family="Helvetica,sans-Serif" font-size="11.00" fill="#000000">accompanied_by_id</text>
<polygon fill="none" stroke="#000000" points="446.5,-169.2 446.5,-191.2 545.5,-191.2 545.5,-169.2 446.5,-169.2"/>
<text text-anchor="start" x="449.5" y="-176.9" font-family="Helvetica,sans-Serif" font-size="11.00" fill="#000000">uuid[2147483647]</text>
<polygon fill="none" stroke="#000000" points="238.5,-147.2 238.5,-169.2 446.5,-169.2 446.5,-147.2 238.5,-147.2"/>
<text text-anchor="start" x="258.5" y="-154.3" font-family="Helvetica,sans-Serif" font-size="11.00" fill="#000000">accompanied_by_comments</text>
<polygon fill="none" stroke="#000000" points="446.5,-147.2 446.5,-169.2 545.5,-169.2 545.5,-147.2 446.5,-147.2"/>
<text text-anchor="start" x="449.5" y="-154.9" font-family="Helvetica,sans-Serif" font-size="11.00" fill="#000000">text[2147483647]</text>
<polygon fill="none" stroke="#000000" points="238.5,-125.2 238.5,-147.2 446.5,-147.2 446.5,-125.2 238.5,-125.2"/>
<text text-anchor="start" x="258.5" y="-132.3" font-family="Helvetica,sans-Serif" font-size="11.00" fill="#000000">location</text>
<polygon fill="none" stroke="#000000" points="446.5,-125.2 446.5,-147.2 545.5,-147.2 545.5,-125.2 446.5,-125.2"/>
<text text-anchor="start" x="449.2258" y="-132.9" font-family="Helvetica,sans-Serif" font-size="11.00" fill="#000000">jsonb[2147483647]</text>
<polygon fill="none" stroke="#000000" points="238.5,-103.2 238.5,-125.2 446.5,-125.2 446.5,-103.2 238.5,-103.2"/>
<text text-anchor="start" x="258.5" y="-110.3" font-family="Helvetica,sans-Serif" font-size="11.00" fill="#000000">comments</text>
<polygon fill="none" stroke="#000000" points="446.5,-103.2 446.5,-125.2 545.5,-125.2 545.5,-103.2 446.5,-103.2"/>
<text text-anchor="start" x="449.5" y="-110.9" font-family="Helvetica,sans-Serif" font-size="11.00" fill="#000000">text[2147483647]</text>
<polygon fill="none" stroke="#000000" points="238.5,-81.2 238.5,-103.2 446.5,-103.2 446.5,-81.2 238.5,-81.2"/>
<text text-anchor="start" x="258.5" y="-88.3" font-family="Helvetica,sans-Serif" font-size="11.00" fill="#000000">recorded_by_prison_code</text>
<polygon fill="none" stroke="#000000" points="446.5,-81.2 446.5,-103.2 545.5,-103.2 545.5,-81.2 446.5,-81.2"/>
<text text-anchor="start" x="449.5" y="-88.9" font-family="Helvetica,sans-Serif" font-size="11.00" fill="#000000">varchar[6]</text>
<polygon fill="none" stroke="#000000" points="238.5,-59.2 238.5,-81.2 446.5,-81.2 446.5,-59.2 238.5,-59.2"/>
<text text-anchor="start" x="258.5" y="-66.3" font-family="Helvetica,sans-Serif" font-size="11.00" fill="#000000">legacy_id</text>
<polygon fill="none" stroke="#000000" points="446.5,-59.2 446.5,-81.2 545.5,-81.2 545.5,-59.2 446.5,-59.2"/>
<text text-anchor="start" x="449.5" y="-66.9" font-family="Helvetica,sans-Serif" font-size="11.00" fill="#000000">varchar[32]</text>
<polygon fill="#ffffff" stroke="transparent" points="238.5,-40.2 238.5,-59.2 346.5,-59.2 346.5,-40.2 238.5,-40.2"/>
<polygon fill="none" stroke="#000000" points="238.5,-40.2 238.5,-59.2 346.5,-59.2 346.5,-40.2 238.5,-40.2"/>
<text text-anchor="start" x="241.5" y="-46.3" font-family="Helvetica,sans-Serif" font-size="11.00" fill="#000000">&lt; 1</text>
<polygon fill="#ffffff" stroke="transparent" points="346.5,-40.2 346.5,-59.2 446.5,-59.2 446.5,-40.2 346.5,-40.2"/>
<polygon fill="none" stroke="#000000" points="346.5,-40.2 346.5,-59.2 446.5,-59.2 446.5,-40.2 346.5,-40.2"/>
<text text-anchor="start" x="437.3862" y="-46.3" font-family="Helvetica,sans-Serif" font-size="11.00" fill="#000000"> &#160;</text>
<polygon fill="#ffffff" stroke="transparent" points="446.5,-40.2 446.5,-59.2 545.5,-59.2 545.5,-40.2 446.5,-40.2"/>
<polygon fill="none" stroke="#000000" points="446.5,-40.2 446.5,-59.2 545.5,-59.2 545.5,-40.2 446.5,-40.2"/>
<text text-anchor="start" x="526.9053" y="-46.3" font-family="Helvetica,sans-Serif" font-size="11.00" fill="#000000">0 &gt;</text>
<polygon fill="none" stroke="#000000" stroke-width="2" points="237,-39.2 237,-413.2 546,-413.2 546,-39.2 237,-39.2"/>
</a>
</g>
</g>
<!-- public.audit_revision -->
<g id="node2" class="node">
<title>public.audit_revision</title>
<g id="a_node2"><a xlink:href="../../../public/tables/audit_revision.html" xlink:title="public.audit_revision" target="_top">
<polygon fill="#ffffff" stroke="transparent" points="8,-347.7 8,-408.7 187,-408.7 187,-347.7 8,-347.7"/>
<polygon fill="#f5f5f5" stroke="transparent" points="8.5,-385.2 8.5,-408.2 187.5,-408.2 187.5,-385.2 8.5,-385.2"/>
<polygon fill="none" stroke="#000000" points="8.5,-385.2 8.5,-408.2 187.5,-408.2 187.5,-385.2 8.5,-385.2"/>
<text text-anchor="start" x="13.5" y="-393.8" font-family="Helvetica,sans-Serif" font-weight="bold" font-size="11.00" fill="#000000">public.audit_revision</text>
<text text-anchor="start" x="153.0219" y="-393.3" font-family="Helvetica,sans-Serif" font-size="11.00" fill="#000000">[table]</text>
<polygon fill="none" stroke="#000000" points="8.5,-366.2 8.5,-385.2 187.5,-385.2 187.5,-366.2 8.5,-366.2"/>
<text text-anchor="start" x="11.5" y="-372.3" font-family="Helvetica,sans-Serif" font-size="11.00" fill="#000000">...</text>
<polygon fill="#ffffff" stroke="transparent" points="8.5,-347.2 8.5,-366.2 74.5,-366.2 74.5,-347.2 8.5,-347.2"/>
<polygon fill="none" stroke="#000000" points="8.5,-347.2 8.5,-366.2 74.5,-366.2 74.5,-347.2 8.5,-347.2"/>
<text text-anchor="start" x="11.5" y="-353.3" font-family="Helvetica,sans-Serif" font-size="11.00" fill="#000000"> &#160;</text>
<polygon fill="#ffffff" stroke="transparent" points="74.5,-347.2 74.5,-366.2 139.5,-366.2 139.5,-347.2 74.5,-347.2"/>
<polygon fill="none" stroke="#000000" points="74.5,-347.2 74.5,-366.2 139.5,-366.2 139.5,-347.2 74.5,-347.2"/>
<text text-anchor="start" x="104.1105" y="-353.3" font-family="Helvetica,sans-Serif" font-size="11.00" fill="#000000">0 rows</text>
<polygon fill="#ffffff" stroke="transparent" points="139.5,-347.2 139.5,-366.2 187.5,-366.2 187.5,-347.2 139.5,-347.2"/>
<polygon fill="none" stroke="#000000" points="139.5,-347.2 139.5,-366.2 187.5,-366.2 187.5,-347.2 139.5,-347.2"/>
<text text-anchor="start" x="168.9053" y="-353.3" font-family="Helvetica,sans-Serif" font-size="11.00" fill="#000000">3 &gt;</text>
</a>
</g>
</g>
<!-- movement_audit&#45;&gt;public.audit_revision -->
<g id="edge1" class="edge">
<title>movement_audit:w&#45;&gt;public.audit_revision:e</title>
<path fill="none" stroke="#000000" d="M223.8777,-378.2C214.451,-378.2 204.8434,-378.2 195.3482,-378.2"/>
<polygon fill="#000000" stroke="#000000" points="230.5,-378.2001 238.5,-381.8 234.5,-378.2 238.5,-378.2 238.5,-378.2 238.5,-378.2 234.5,-378.2 238.5,-374.6 230.5,-378.2001 230.5,-378.2001"/>
<ellipse fill="none" stroke="#000000" cx="227.3" cy="-378.2001" rx="3.2" ry="3.2"/>
</g>
</g>
</svg>
