<?xml version="1.0" encoding="UTF-8" standalone="no"?>
<!DOCTYPE svg PUBLIC "-//W3C//DTD SVG 1.1//EN"
 "http://www.w3.org/Graphics/SVG/1.1/DTD/svg11.dtd">
<!-- Generated by graphviz version 2.40.1 (20161225.0304)
 -->
<!-- Title: twoDegreesRelationshipsDiagram Pages: 1 -->
<svg width="775pt" height="655pt"
 viewBox="0.00 0.00 775.00 654.70" xmlns="http://www.w3.org/2000/svg" xmlns:xlink="http://www.w3.org/1999/xlink">
<g id="graph0" class="graph" transform="scale(1 1) rotate(0) translate(4 650.7)">
<title>twoDegreesRelationshipsDiagram</title>
<polygon fill="#ffffff" stroke="transparent" points="-4,4 -4,-650.7 771,-650.7 771,4 -4,4"/>
<text text-anchor="middle" x="72.4936" y="-7.3" font-family="Helvetica,sans-Serif" font-size="11.00" fill="#000000">Generated by SchemaSpy</text>
<!-- authorisation -->
<g id="node1" class="node">
<title>authorisation</title>
<g id="a_node1"><a xlink:href="../../tables/authorisation.html" xlink:title="authorisation" target="_top">
<polygon fill="#ffffff" stroke="transparent" points="269,-251.7 269,-312.7 399,-312.7 399,-251.7 269,-251.7"/>
<polygon fill="#f5f5f5" stroke="transparent" points="269,-289.2 269,-312.2 399,-312.2 399,-289.2 269,-289.2"/>
<polygon fill="none" stroke="#000000" points="269,-289.2 269,-312.2 399,-312.2 399,-289.2 269,-289.2"/>
<text text-anchor="start" x="274" y="-297.8" font-family="Helvetica,sans-Serif" font-weight="bold" font-size="11.00" fill="#000000">authorisation</text>
<text text-anchor="start" x="364.5219" y="-297.3" font-family="Helvetica,sans-Serif" font-size="11.00" fill="#000000">[table]</text>
<polygon fill="none" stroke="#000000" points="269,-270.2 269,-289.2 399,-289.2 399,-270.2 269,-270.2"/>
<text text-anchor="start" x="272" y="-276.3" font-family="Helvetica,sans-Serif" font-size="11.00" fill="#000000">...</text>
<polygon fill="#ffffff" stroke="transparent" points="269,-251.2 269,-270.2 332,-270.2 332,-251.2 269,-251.2"/>
<polygon fill="none" stroke="#000000" points="269,-251.2 269,-270.2 332,-270.2 332,-251.2 269,-251.2"/>
<text text-anchor="start" x="272" y="-257.3" font-family="Helvetica,sans-Serif" font-size="11.00" fill="#000000">&lt; 7</text>
<polygon fill="#ffffff" stroke="transparent" points="332,-251.2 332,-270.2 365,-270.2 365,-251.2 332,-251.2"/>
<polygon fill="none" stroke="#000000" points="332,-251.2 332,-270.2 365,-270.2 365,-251.2 332,-251.2"/>
<text text-anchor="start" x="355.8862" y="-257.3" font-family="Helvetica,sans-Serif" font-size="11.00" fill="#000000"> &#160;</text>
<polygon fill="#ffffff" stroke="transparent" points="365,-251.2 365,-270.2 399,-270.2 399,-251.2 365,-251.2"/>
<polygon fill="none" stroke="#000000" points="365,-251.2 365,-270.2 399,-270.2 399,-251.2 365,-251.2"/>
<text text-anchor="start" x="389.8862" y="-257.3" font-family="Helvetica,sans-Serif" font-size="11.00" fill="#000000"> &#160;</text>
</a>
</g>
</g>
<!-- absence_reason_category -->
<g id="node2" class="node">
<title>absence_reason_category</title>
<g id="a_node2"><a xlink:href="../../tables/absence_reason_category.html" xlink:title="absence_reason_category" target="_top">
<polygon fill="#ffffff" stroke="transparent" points="8,-335.7 8,-396.7 220,-396.7 220,-335.7 8,-335.7"/>
<polygon fill="#f5f5f5" stroke="transparent" points="8,-373.2 8,-396.2 220,-396.2 220,-373.2 8,-373.2"/>
<polygon fill="none" stroke="#000000" points="8,-373.2 8,-396.2 220,-396.2 220,-373.2 8,-373.2"/>
<text text-anchor="start" x="13" y="-381.8" font-family="Helvetica,sans-Serif" font-weight="bold" font-size="11.00" fill="#000000">absence_reason_category</text>
<text text-anchor="start" x="185.5219" y="-381.3" font-family="Helvetica,sans-Serif" font-size="11.00" fill="#000000">[table]</text>
<polygon fill="none" stroke="#000000" points="8,-354.2 8,-373.2 220,-373.2 220,-354.2 8,-354.2"/>
<text text-anchor="start" x="11" y="-360.3" font-family="Helvetica,sans-Serif" font-size="11.00" fill="#000000">...</text>
<polygon fill="#ffffff" stroke="transparent" points="8,-335.2 8,-354.2 103,-354.2 103,-335.2 8,-335.2"/>
<polygon fill="none" stroke="#000000" points="8,-335.2 8,-354.2 103,-354.2 103,-335.2 8,-335.2"/>
<text text-anchor="start" x="11" y="-341.3" font-family="Helvetica,sans-Serif" font-size="11.00" fill="#000000"> &#160;</text>
<polygon fill="#ffffff" stroke="transparent" points="103,-335.2 103,-354.2 157,-354.2 157,-335.2 103,-335.2"/>
<polygon fill="none" stroke="#000000" points="103,-335.2 103,-354.2 157,-354.2 157,-335.2 103,-335.2"/>
<text text-anchor="start" x="147.8862" y="-341.3" font-family="Helvetica,sans-Serif" font-size="11.00" fill="#000000"> &#160;</text>
<polygon fill="#ffffff" stroke="transparent" points="157,-335.2 157,-354.2 220,-354.2 220,-335.2 157,-335.2"/>
<polygon fill="none" stroke="#000000" points="157,-335.2 157,-354.2 220,-354.2 220,-335.2 157,-335.2"/>
<text text-anchor="start" x="201.4053" y="-341.3" font-family="Helvetica,sans-Serif" font-size="11.00" fill="#000000">2 &gt;</text>
</a>
</g>
</g>
<!-- authorisation&#45;&gt;absence_reason_category -->
<g id="edge1" class="edge">
<title>authorisation:w&#45;&gt;absence_reason_category:e</title>
<path fill="none" stroke="#000000" d="M255.103,-283.7162C234.7145,-301.1639 257.143,-363.2 220,-363.2"/>
<polygon fill="#000000" stroke="#000000" points="261.3917,-281.6726 270.1127,-282.6237 265.1958,-280.4363 269,-279.2 269,-279.2 269,-279.2 265.1958,-280.4363 267.8873,-275.7763 261.3917,-281.6726 261.3917,-281.6726"/>
<ellipse fill="none" stroke="#000000" cx="258.3483" cy="-282.6616" rx="3.2" ry="3.2"/>
</g>
<!-- absence_reason -->
<g id="node3" class="node">
<title>absence_reason</title>
<g id="a_node3"><a xlink:href="../../tables/absence_reason.html" xlink:title="absence_reason" target="_top">
<polygon fill="#ffffff" stroke="transparent" points="41,-171.7 41,-232.7 187,-232.7 187,-171.7 41,-171.7"/>
<polygon fill="#f5f5f5" stroke="transparent" points="41,-209.2 41,-232.2 187,-232.2 187,-209.2 41,-209.2"/>
<polygon fill="none" stroke="#000000" points="41,-209.2 41,-232.2 187,-232.2 187,-209.2 41,-209.2"/>
<text text-anchor="start" x="46" y="-217.8" font-family="Helvetica,sans-Serif" font-weight="bold" font-size="11.00" fill="#000000">absence_reason</text>
<text text-anchor="start" x="152.5219" y="-217.3" font-family="Helvetica,sans-Serif" font-size="11.00" fill="#000000">[table]</text>
<polygon fill="none" stroke="#000000" points="41,-190.2 41,-209.2 187,-209.2 187,-190.2 41,-190.2"/>
<text text-anchor="start" x="44" y="-196.3" font-family="Helvetica,sans-Serif" font-size="11.00" fill="#000000">...</text>
<polygon fill="#ffffff" stroke="transparent" points="41,-171.2 41,-190.2 87,-190.2 87,-171.2 41,-171.2"/>
<polygon fill="none" stroke="#000000" points="41,-171.2 41,-190.2 87,-190.2 87,-171.2 41,-171.2"/>
<text text-anchor="start" x="44" y="-177.3" font-family="Helvetica,sans-Serif" font-size="11.00" fill="#000000"> &#160;</text>
<polygon fill="#ffffff" stroke="transparent" points="87,-171.2 87,-190.2 148,-190.2 148,-171.2 87,-171.2"/>
<polygon fill="none" stroke="#000000" points="87,-171.2 87,-190.2 148,-190.2 148,-171.2 87,-171.2"/>
<text text-anchor="start" x="106.4956" y="-177.3" font-family="Helvetica,sans-Serif" font-size="11.00" fill="#000000">98 rows</text>
<polygon fill="#ffffff" stroke="transparent" points="148,-171.2 148,-190.2 187,-190.2 187,-171.2 148,-171.2"/>
<polygon fill="none" stroke="#000000" points="148,-171.2 148,-190.2 187,-190.2 187,-171.2 148,-171.2"/>
<text text-anchor="start" x="168.4053" y="-177.3" font-family="Helvetica,sans-Serif" font-size="11.00" fill="#000000">3 &gt;</text>
</a>
</g>
</g>
<!-- authorisation&#45;&gt;absence_reason -->
<g id="edge2" class="edge">
<title>authorisation:w&#45;&gt;absence_reason:e</title>
<path fill="none" stroke="#000000" d="M254.9895,-275.0786C245.2201,-267.7449 243.5022,-252.3435 228,-243.2 217.7643,-237.1628 206.4938,-231.7933 195.1438,-227.091"/>
<polygon fill="#000000" stroke="#000000" points="261.3252,-276.9423 267.984,-282.6537 265.1626,-278.0711 269,-279.2 269,-279.2 269,-279.2 265.1626,-278.0711 270.016,-275.7463 261.3252,-276.9423 261.3252,-276.9423"/>
<ellipse fill="none" stroke="#000000" cx="258.2552" cy="-276.0392" rx="3.2" ry="3.2"/>
</g>
<!-- absence_sub_type -->
<g id="node4" class="node">
<title>absence_sub_type</title>
<g id="a_node4"><a xlink:href="../../tables/absence_sub_type.html" xlink:title="absence_sub_type" target="_top">
<polygon fill="#ffffff" stroke="transparent" points="33.5,-253.7 33.5,-314.7 194.5,-314.7 194.5,-253.7 33.5,-253.7"/>
<polygon fill="#f5f5f5" stroke="transparent" points="34,-291.2 34,-314.2 195,-314.2 195,-291.2 34,-291.2"/>
<polygon fill="none" stroke="#000000" points="34,-291.2 34,-314.2 195,-314.2 195,-291.2 34,-291.2"/>
<text text-anchor="start" x="39" y="-299.8" font-family="Helvetica,sans-Serif" font-weight="bold" font-size="11.00" fill="#000000">absence_sub_type</text>
<text text-anchor="start" x="160.5219" y="-299.3" font-family="Helvetica,sans-Serif" font-size="11.00" fill="#000000">[table]</text>
<polygon fill="none" stroke="#000000" points="34,-272.2 34,-291.2 195,-291.2 195,-272.2 34,-272.2"/>
<text text-anchor="start" x="37" y="-278.3" font-family="Helvetica,sans-Serif" font-size="11.00" fill="#000000">...</text>
<polygon fill="#ffffff" stroke="transparent" points="34,-253.2 34,-272.2 104,-272.2 104,-253.2 34,-253.2"/>
<polygon fill="none" stroke="#000000" points="34,-253.2 34,-272.2 104,-272.2 104,-253.2 34,-253.2"/>
<text text-anchor="start" x="37" y="-259.3" font-family="Helvetica,sans-Serif" font-size="11.00" fill="#000000"> &#160;</text>
<polygon fill="#ffffff" stroke="transparent" points="104,-253.2 104,-272.2 145,-272.2 145,-253.2 104,-253.2"/>
<polygon fill="none" stroke="#000000" points="104,-253.2 104,-272.2 145,-272.2 145,-253.2 104,-253.2"/>
<text text-anchor="start" x="135.8862" y="-259.3" font-family="Helvetica,sans-Serif" font-size="11.00" fill="#000000"> &#160;</text>
<polygon fill="#ffffff" stroke="transparent" points="145,-253.2 145,-272.2 195,-272.2 195,-253.2 145,-253.2"/>
<polygon fill="none" stroke="#000000" points="145,-253.2 145,-272.2 195,-272.2 195,-253.2 145,-253.2"/>
<text text-anchor="start" x="176.4053" y="-259.3" font-family="Helvetica,sans-Serif" font-size="11.00" fill="#000000">2 &gt;</text>
</a>
</g>
</g>
<!-- authorisation&#45;&gt;absence_sub_type -->
<g id="edge3" class="edge">
<title>authorisation:w&#45;&gt;absence_sub_type:e</title>
<path fill="none" stroke="#000000" d="M254.5831,-279.3438C232.7442,-279.8024 222.5031,-281.2 195,-281.2"/>
<polygon fill="#000000" stroke="#000000" points="261.0004,-279.2799 269.0359,-282.7998 265.0002,-279.2399 269,-279.2 269,-279.2 269,-279.2 265.0002,-279.2399 268.9641,-275.6002 261.0004,-279.2799 261.0004,-279.2799"/>
<ellipse fill="none" stroke="#000000" cx="257.8006" cy="-279.3118" rx="3.2" ry="3.2"/>
</g>
<!-- absence_type -->
<g id="node5" class="node">
<title>absence_type</title>
<g id="a_node5"><a xlink:href="../../tables/absence_type.html" xlink:title="absence_type" target="_top">
<polygon fill="#ffffff" stroke="transparent" points="48.5,-499.7 48.5,-560.7 179.5,-560.7 179.5,-499.7 48.5,-499.7"/>
<polygon fill="#f5f5f5" stroke="transparent" points="49,-537.2 49,-560.2 180,-560.2 180,-537.2 49,-537.2"/>
<polygon fill="none" stroke="#000000" points="49,-537.2 49,-560.2 180,-560.2 180,-537.2 49,-537.2"/>
<text text-anchor="start" x="54" y="-545.8" font-family="Helvetica,sans-Serif" font-weight="bold" font-size="11.00" fill="#000000">absence_type</text>
<text text-anchor="start" x="145.5219" y="-545.3" font-family="Helvetica,sans-Serif" font-size="11.00" fill="#000000">[table]</text>
<polygon fill="none" stroke="#000000" points="49,-518.2 49,-537.2 180,-537.2 180,-518.2 49,-518.2"/>
<text text-anchor="start" x="52" y="-524.3" font-family="Helvetica,sans-Serif" font-size="11.00" fill="#000000">...</text>
<polygon fill="#ffffff" stroke="transparent" points="49,-499.2 49,-518.2 104,-518.2 104,-499.2 49,-499.2"/>
<polygon fill="none" stroke="#000000" points="49,-499.2 49,-518.2 104,-518.2 104,-499.2 49,-499.2"/>
<text text-anchor="start" x="52" y="-505.3" font-family="Helvetica,sans-Serif" font-size="11.00" fill="#000000"> &#160;</text>
<polygon fill="#ffffff" stroke="transparent" points="104,-499.2 104,-518.2 137,-518.2 137,-499.2 104,-499.2"/>
<polygon fill="none" stroke="#000000" points="104,-499.2 104,-518.2 137,-518.2 137,-499.2 104,-499.2"/>
<text text-anchor="start" x="127.8862" y="-505.3" font-family="Helvetica,sans-Serif" font-size="11.00" fill="#000000"> &#160;</text>
<polygon fill="#ffffff" stroke="transparent" points="137,-499.2 137,-518.2 180,-518.2 180,-499.2 137,-499.2"/>
<polygon fill="none" stroke="#000000" points="137,-499.2 137,-518.2 180,-518.2 180,-499.2 137,-499.2"/>
<text text-anchor="start" x="161.4053" y="-505.3" font-family="Helvetica,sans-Serif" font-size="11.00" fill="#000000">2 &gt;</text>
</a>
</g>
</g>
<!-- authorisation&#45;&gt;absence_type -->
<g id="edge4" class="edge">
<title>authorisation:w&#45;&gt;absence_type:e</title>
<path fill="none" stroke="#000000" d="M255.6798,-285.2877C227.8199,-315.9248 249.9288,-453.19 228,-489.2 213.8481,-512.4394 207.2093,-527.2 180,-527.2"/>
<polygon fill="#000000" stroke="#000000" points="261.7239,-282.5254 270.4964,-282.4743 265.3619,-280.8627 269,-279.2 269,-279.2 269,-279.2 265.3619,-280.8627 267.5036,-275.9257 261.7239,-282.5254 261.7239,-282.5254"/>
<ellipse fill="none" stroke="#000000" cx="258.8134" cy="-283.8556" rx="3.2" ry="3.2"/>
</g>
<!-- accompanied_by -->
<g id="node6" class="node">
<title>accompanied_by</title>
<g id="a_node6"><a xlink:href="../../tables/accompanied_by.html" xlink:title="accompanied_by" target="_top">
<polygon fill="#ffffff" stroke="transparent" points="39,-89.7 39,-150.7 189,-150.7 189,-89.7 39,-89.7"/>
<polygon fill="#f5f5f5" stroke="transparent" points="39,-127.2 39,-150.2 189,-150.2 189,-127.2 39,-127.2"/>
<polygon fill="none" stroke="#000000" points="39,-127.2 39,-150.2 189,-150.2 189,-127.2 39,-127.2"/>
<text text-anchor="start" x="44" y="-135.8" font-family="Helvetica,sans-Serif" font-weight="bold" font-size="11.00" fill="#000000">accompanied_by</text>
<text text-anchor="start" x="154.5219" y="-135.3" font-family="Helvetica,sans-Serif" font-size="11.00" fill="#000000">[table]</text>
<polygon fill="none" stroke="#000000" points="39,-108.2 39,-127.2 189,-127.2 189,-108.2 39,-108.2"/>
<text text-anchor="start" x="42" y="-114.3" font-family="Helvetica,sans-Serif" font-size="11.00" fill="#000000">...</text>
<polygon fill="#ffffff" stroke="transparent" points="39,-89.2 39,-108.2 103,-108.2 103,-89.2 39,-89.2"/>
<polygon fill="none" stroke="#000000" points="39,-89.2 39,-108.2 103,-108.2 103,-89.2 39,-89.2"/>
<text text-anchor="start" x="42" y="-95.3" font-family="Helvetica,sans-Serif" font-size="11.00" fill="#000000"> &#160;</text>
<polygon fill="#ffffff" stroke="transparent" points="103,-89.2 103,-108.2 141,-108.2 141,-89.2 103,-89.2"/>
<polygon fill="none" stroke="#000000" points="103,-89.2 103,-108.2 141,-108.2 141,-89.2 103,-89.2"/>
<text text-anchor="start" x="131.8862" y="-95.3" font-family="Helvetica,sans-Serif" font-size="11.00" fill="#000000"> &#160;</text>
<polygon fill="#ffffff" stroke="transparent" points="141,-89.2 141,-108.2 189,-108.2 189,-89.2 141,-89.2"/>
<polygon fill="none" stroke="#000000" points="141,-89.2 141,-108.2 189,-108.2 189,-89.2 141,-89.2"/>
<text text-anchor="start" x="170.4053" y="-95.3" font-family="Helvetica,sans-Serif" font-size="11.00" fill="#000000">3 &gt;</text>
</a>
</g>
</g>
<!-- authorisation&#45;&gt;accompanied_by -->
<g id="edge5" class="edge">
<title>authorisation:w&#45;&gt;accompanied_by:e</title>
<path fill="none" stroke="#000000" d="M254.4335,-276.5355C224.0895,-262.489 262.7747,-196.3536 228,-161.2 219.273,-152.3779 208.5133,-145.4444 197.1216,-139.9977"/>
<polygon fill="#000000" stroke="#000000" points="261.1306,-277.7605 268.3522,-282.7412 265.0653,-278.4803 269,-279.2 269,-279.2 269,-279.2 265.0653,-278.4803 269.6478,-275.6588 261.1306,-277.7605 261.1306,-277.7605"/>
<ellipse fill="none" stroke="#000000" cx="257.9828" cy="-277.1847" rx="3.2" ry="3.2"/>
</g>
<!-- transport -->
<g id="node7" class="node">
<title>transport</title>
<g id="a_node7"><a xlink:href="../../tables/transport.html" xlink:title="transport" target="_top">
<polygon fill="#ffffff" stroke="transparent" points="63,-417.7 63,-478.7 165,-478.7 165,-417.7 63,-417.7"/>
<polygon fill="#f5f5f5" stroke="transparent" points="63,-455.2 63,-478.2 165,-478.2 165,-455.2 63,-455.2"/>
<polygon fill="none" stroke="#000000" points="63,-455.2 63,-478.2 165,-478.2 165,-455.2 63,-455.2"/>
<text text-anchor="start" x="68" y="-463.8" font-family="Helvetica,sans-Serif" font-weight="bold" font-size="11.00" fill="#000000">transport</text>
<text text-anchor="start" x="130.5219" y="-463.3" font-family="Helvetica,sans-Serif" font-size="11.00" fill="#000000">[table]</text>
<polygon fill="none" stroke="#000000" points="63,-436.2 63,-455.2 165,-455.2 165,-436.2 63,-436.2"/>
<text text-anchor="start" x="66" y="-442.3" font-family="Helvetica,sans-Serif" font-size="11.00" fill="#000000">...</text>
<polygon fill="#ffffff" stroke="transparent" points="63,-417.2 63,-436.2 103,-436.2 103,-417.2 63,-417.2"/>
<polygon fill="none" stroke="#000000" points="63,-417.2 63,-436.2 103,-436.2 103,-417.2 63,-417.2"/>
<text text-anchor="start" x="66" y="-423.3" font-family="Helvetica,sans-Serif" font-size="11.00" fill="#000000"> &#160;</text>
<polygon fill="#ffffff" stroke="transparent" points="103,-417.2 103,-436.2 129,-436.2 129,-417.2 103,-417.2"/>
<polygon fill="none" stroke="#000000" points="103,-417.2 103,-436.2 129,-436.2 129,-417.2 103,-417.2"/>
<text text-anchor="start" x="119.8862" y="-423.3" font-family="Helvetica,sans-Serif" font-size="11.00" fill="#000000"> &#160;</text>
<polygon fill="#ffffff" stroke="transparent" points="129,-417.2 129,-436.2 165,-436.2 165,-417.2 129,-417.2"/>
<polygon fill="none" stroke="#000000" points="129,-417.2 129,-436.2 165,-436.2 165,-417.2 129,-417.2"/>
<text text-anchor="start" x="146.4053" y="-423.3" font-family="Helvetica,sans-Serif" font-size="11.00" fill="#000000">2 &gt;</text>
</a>
</g>
</g>
<!-- authorisation&#45;&gt;transport -->
<g id="edge6" class="edge">
<title>authorisation:w&#45;&gt;transport:e</title>
<path fill="none" stroke="#000000" d="M254.6102,-281.414C219.2742,-294.7209 261.4311,-364.9172 228,-407.2 207.7195,-432.8503 197.6992,-445.2 165,-445.2"/>
<polygon fill="#000000" stroke="#000000" points="261.093,-280.4166 269.5475,-282.7581 265.0465,-279.8083 269,-279.2 269,-279.2 269,-279.2 265.0465,-279.8083 268.4525,-275.6419 261.093,-280.4166 261.093,-280.4166"/>
<ellipse fill="none" stroke="#000000" cx="257.9303" cy="-280.9032" rx="3.2" ry="3.2"/>
</g>
<!-- movement -->
<g id="node8" class="node">
<title>movement</title>
<g id="a_node8"><a xlink:href="../../tables/movement.html" xlink:title="movement" target="_top">
<polygon fill="#ffffff" stroke="transparent" points="448,-38.2 448,-370.2 759,-370.2 759,-38.2 448,-38.2"/>
<polygon fill="#f5f5f5" stroke="transparent" points="450.5,-345.2 450.5,-368.2 757.5,-368.2 757.5,-345.2 450.5,-345.2"/>
<polygon fill="none" stroke="#000000" points="450.5,-345.2 450.5,-368.2 757.5,-368.2 757.5,-345.2 450.5,-345.2"/>
<text text-anchor="start" x="455.5" y="-353.8" font-family="Helvetica,sans-Serif" font-weight="bold" font-size="11.00" fill="#000000">movement</text>
<text text-anchor="start" x="722.5437" y="-353.3" font-family="Helvetica,sans-Serif" font-size="11.00" fill="#000000">[table]</text>
<polygon fill="none" stroke="#000000" points="450.5,-323.2 450.5,-345.2 658.5,-345.2 658.5,-323.2 450.5,-323.2"/>
<image xlink:href="../../images/primaryKeys.png" width="11px" height="12px" preserveAspectRatio="xMinYMin meet" x="455.5" y="-340.2"/>
<text text-anchor="start" x="470.5" y="-330.3" font-family="Helvetica,sans-Serif" font-size="11.00" fill="#000000">id</text>
<polygon fill="none" stroke="#000000" points="658.5,-323.2 658.5,-345.2 757.5,-345.2 757.5,-323.2 658.5,-323.2"/>
<text text-anchor="start" x="661.5" y="-330.9" font-family="Helvetica,sans-Serif" font-size="11.00" fill="#000000">uuid[2147483647]</text>
<polygon fill="none" stroke="#000000" points="450.5,-301.2 450.5,-323.2 658.5,-323.2 658.5,-301.2 450.5,-301.2"/>
<text text-anchor="start" x="470.5" y="-308.3" font-family="Helvetica,sans-Serif" font-size="11.00" fill="#000000">version</text>
<polygon fill="none" stroke="#000000" points="658.5,-301.2 658.5,-323.2 757.5,-323.2 757.5,-301.2 658.5,-301.2"/>
<text text-anchor="start" x="661.5" y="-308.9" font-family="Helvetica,sans-Serif" font-size="11.00" fill="#000000">int4[10]</text>
<polygon fill="#ffffff" stroke="transparent" points="450.5,-279.2 450.5,-301.2 658.5,-301.2 658.5,-279.2 450.5,-279.2"/>
<polygon fill="none" stroke="#000000" points="450.5,-279.2 450.5,-301.2 658.5,-301.2 658.5,-279.2 450.5,-279.2"/>
<text text-anchor="start" x="470.5" y="-286.3" font-family="Helvetica,sans-Serif" font-size="11.00" fill="#000000">person_identifier</text>
<polygon fill="none" stroke="#000000" points="658.5,-279.2 658.5,-301.2 757.5,-301.2 757.5,-279.2 658.5,-279.2"/>
<text text-anchor="start" x="661.5" y="-286.9" font-family="Helvetica,sans-Serif" font-size="11.00" fill="#000000">varchar[10]</text>
<polygon fill="#ffffff" stroke="transparent" points="450.5,-257.2 450.5,-279.2 658.5,-279.2 658.5,-257.2 450.5,-257.2"/>
<polygon fill="none" stroke="#000000" points="450.5,-257.2 450.5,-279.2 658.5,-279.2 658.5,-257.2 450.5,-257.2"/>
<image xlink:href="../../images/foreignKeys.png" width="11px" height="12px" preserveAspectRatio="xMinYMin meet" x="455.5" y="-274.2"/>
<text text-anchor="start" x="470.5" y="-264.3" font-family="Helvetica,sans-Serif" font-size="11.00" fill="#000000">occurrence_id</text>
<polygon fill="none" stroke="#000000" points="658.5,-257.2 658.5,-279.2 757.5,-279.2 757.5,-257.2 658.5,-257.2"/>
<text text-anchor="start" x="661.5" y="-264.9" font-family="Helvetica,sans-Serif" font-size="11.00" fill="#000000">uuid[2147483647]</text>
<polygon fill="#ffffff" stroke="transparent" points="450.5,-235.2 450.5,-257.2 658.5,-257.2 658.5,-235.2 450.5,-235.2"/>
<polygon fill="none" stroke="#000000" points="450.5,-235.2 450.5,-257.2 658.5,-257.2 658.5,-235.2 450.5,-235.2"/>
<text text-anchor="start" x="470.5" y="-242.3" font-family="Helvetica,sans-Serif" font-size="11.00" fill="#000000">occurred_at</text>
<polygon fill="none" stroke="#000000" points="658.5,-235.2 658.5,-257.2 757.5,-257.2 757.5,-235.2 658.5,-235.2"/>
<text text-anchor="start" x="661.5" y="-242.9" font-family="Helvetica,sans-Serif" font-size="11.00" fill="#000000">timestamp[29,6]</text>
<polygon fill="none" stroke="#000000" points="450.5,-213.2 450.5,-235.2 658.5,-235.2 658.5,-213.2 450.5,-213.2"/>
<text text-anchor="start" x="470.5" y="-220.3" font-family="Helvetica,sans-Serif" font-size="11.00" fill="#000000">direction</text>
<polygon fill="none" stroke="#000000" points="658.5,-213.2 658.5,-235.2 757.5,-235.2 757.5,-213.2 658.5,-213.2"/>
<text text-anchor="start" x="661.5" y="-220.9" font-family="Helvetica,sans-Serif" font-size="11.00" fill="#000000">varchar[3]</text>
<polygon fill="none" stroke="#000000" points="450.5,-191.2 450.5,-213.2 658.5,-213.2 658.5,-191.2 450.5,-191.2"/>
<image xlink:href="../../images/foreignKeys.png" width="11px" height="12px" preserveAspectRatio="xMinYMin meet" x="455.5" y="-208.2"/>
<text text-anchor="start" x="470.5" y="-198.3" font-family="Helvetica,sans-Serif" font-size="11.00" fill="#000000">absence_reason_id</text>
<polygon fill="none" stroke="#000000" points="658.5,-191.2 658.5,-213.2 757.5,-213.2 757.5,-191.2 658.5,-191.2"/>
<text text-anchor="start" x="661.5" y="-198.9" font-family="Helvetica,sans-Serif" font-size="11.00" fill="#000000">uuid[2147483647]</text>
<polygon fill="none" stroke="#000000" points="450.5,-169.2 450.5,-191.2 658.5,-191.2 658.5,-169.2 450.5,-169.2"/>
<image xlink:href="../../images/foreignKeys.png" width="11px" height="12px" preserveAspectRatio="xMinYMin meet" x="455.5" y="-186.2"/>
<text text-anchor="start" x="470.5" y="-176.3" font-family="Helvetica,sans-Serif" font-size="11.00" fill="#000000">accompanied_by_id</text>
<polygon fill="none" stroke="#000000" points="658.5,-169.2 658.5,-191.2 757.5,-191.2 757.5,-169.2 658.5,-169.2"/>
<text text-anchor="start" x="661.5" y="-176.9" font-family="Helvetica,sans-Serif" font-size="11.00" fill="#000000">uuid[2147483647]</text>
<polygon fill="none" stroke="#000000" points="450.5,-147.2 450.5,-169.2 658.5,-169.2 658.5,-147.2 450.5,-147.2"/>
<text text-anchor="start" x="470.5" y="-154.3" font-family="Helvetica,sans-Serif" font-size="11.00" fill="#000000">accompanied_by_comments</text>
<polygon fill="none" stroke="#000000" points="658.5,-147.2 658.5,-169.2 757.5,-169.2 757.5,-147.2 658.5,-147.2"/>
<text text-anchor="start" x="661.5" y="-154.9" font-family="Helvetica,sans-Serif" font-size="11.00" fill="#000000">text[2147483647]</text>
<polygon fill="none" stroke="#000000" points="450.5,-125.2 450.5,-147.2 658.5,-147.2 658.5,-125.2 450.5,-125.2"/>
<text text-anchor="start" x="470.5" y="-132.3" font-family="Helvetica,sans-Serif" font-size="11.00" fill="#000000">location</text>
<polygon fill="none" stroke="#000000" points="658.5,-125.2 658.5,-147.2 757.5,-147.2 757.5,-125.2 658.5,-125.2"/>
<text text-anchor="start" x="661.2258" y="-132.9" font-family="Helvetica,sans-Serif" font-size="11.00" fill="#000000">jsonb[2147483647]</text>
<polygon fill="none" stroke="#000000" points="450.5,-103.2 450.5,-125.2 658.5,-125.2 658.5,-103.2 450.5,-103.2"/>
<text text-anchor="start" x="470.5" y="-110.3" font-family="Helvetica,sans-Serif" font-size="11.00" fill="#000000">comments</text>
<polygon fill="none" stroke="#000000" points="658.5,-103.2 658.5,-125.2 757.5,-125.2 757.5,-103.2 658.5,-103.2"/>
<text text-anchor="start" x="661.5" y="-110.9" font-family="Helvetica,sans-Serif" font-size="11.00" fill="#000000">text[2147483647]</text>
<polygon fill="none" stroke="#000000" points="450.5,-81.2 450.5,-103.2 658.5,-103.2 658.5,-81.2 450.5,-81.2"/>
<text text-anchor="start" x="470.5" y="-88.3" font-family="Helvetica,sans-Serif" font-size="11.00" fill="#000000">recorded_by_prison_code</text>
<polygon fill="none" stroke="#000000" points="658.5,-81.2 658.5,-103.2 757.5,-103.2 757.5,-81.2 658.5,-81.2"/>
<text text-anchor="start" x="661.5" y="-88.9" font-family="Helvetica,sans-Serif" font-size="11.00" fill="#000000">varchar[6]</text>
<polygon fill="#ffffff" stroke="transparent" points="450.5,-59.2 450.5,-81.2 658.5,-81.2 658.5,-59.2 450.5,-59.2"/>
<polygon fill="none" stroke="#000000" points="450.5,-59.2 450.5,-81.2 658.5,-81.2 658.5,-59.2 450.5,-59.2"/>
<text text-anchor="start" x="470.5" y="-66.3" font-family="Helvetica,sans-Serif" font-size="11.00" fill="#000000">legacy_id</text>
<polygon fill="none" stroke="#000000" points="658.5,-59.2 658.5,-81.2 757.5,-81.2 757.5,-59.2 658.5,-59.2"/>
<text text-anchor="start" x="661.5" y="-66.9" font-family="Helvetica,sans-Serif" font-size="11.00" fill="#000000">varchar[32]</text>
<polygon fill="#ffffff" stroke="transparent" points="450.5,-40.2 450.5,-59.2 558.5,-59.2 558.5,-40.2 450.5,-40.2"/>
<polygon fill="none" stroke="#000000" points="450.5,-40.2 450.5,-59.2 558.5,-59.2 558.5,-40.2 450.5,-40.2"/>
<text text-anchor="start" x="453.5" y="-46.3" font-family="Helvetica,sans-Serif" font-size="11.00" fill="#000000">&lt; 3</text>
<polygon fill="#ffffff" stroke="transparent" points="558.5,-40.2 558.5,-59.2 658.5,-59.2 658.5,-40.2 558.5,-40.2"/>
<polygon fill="none" stroke="#000000" points="558.5,-40.2 558.5,-59.2 658.5,-59.2 658.5,-40.2 558.5,-40.2"/>
<text text-anchor="start" x="649.3862" y="-46.3" font-family="Helvetica,sans-Serif" font-size="11.00" fill="#000000"> &#160;</text>
<polygon fill="#ffffff" stroke="transparent" points="658.5,-40.2 658.5,-59.2 757.5,-59.2 757.5,-40.2 658.5,-40.2"/>
<polygon fill="none" stroke="#000000" points="658.5,-40.2 658.5,-59.2 757.5,-59.2 757.5,-40.2 658.5,-40.2"/>
<text text-anchor="start" x="738.9053" y="-46.3" font-family="Helvetica,sans-Serif" font-size="11.00" fill="#000000">0 &gt;</text>
<polygon fill="none" stroke="#000000" stroke-width="2" points="449,-39.2 449,-369.2 758,-369.2 758,-39.2 449,-39.2"/>
</a>
</g>
</g>
<!-- movement&#45;&gt;absence_reason -->
<g id="edge7" class="edge">
<title>movement:w&#45;&gt;absence_reason:e</title>
<path fill="none" stroke="#000000" d="M436.0883,-202.2C352.4763,-202.2 259.6803,-202.2 195.2532,-202.2"/>
<polygon fill="#000000" stroke="#000000" points="442.5,-202.2001 450.5,-205.8 446.5,-202.2 450.5,-202.2 450.5,-202.2 450.5,-202.2 446.5,-202.2 450.5,-198.6 442.5,-202.2001 442.5,-202.2001"/>
<ellipse fill="none" stroke="#000000" cx="439.3" cy="-202.2001" rx="3.2" ry="3.2"/>
</g>
<!-- movement&#45;&gt;accompanied_by -->
<g id="edge8" class="edge">
<title>movement:w&#45;&gt;accompanied_by:e</title>
<path fill="none" stroke="#000000" d="M436.0739,-180.0256C352.4714,-178.0377 261.23,-159.4267 197.2755,-143.4834"/>
<polygon fill="#000000" stroke="#000000" points="442.5006,-180.1033 450.4565,-183.7997 446.5003,-180.1516 450.5,-180.2 450.5,-180.2 450.5,-180.2 446.5003,-180.1516 450.5435,-176.6003 442.5006,-180.1033 442.5006,-180.1033"/>
<ellipse fill="none" stroke="#000000" cx="439.3008" cy="-180.0646" rx="3.2" ry="3.2"/>
</g>
<!-- occurrence -->
<g id="node9" class="node">
<title>occurrence</title>
<g id="a_node9"><a xlink:href="../../tables/occurrence.html" xlink:title="occurrence" target="_top">
<polygon fill="#ffffff" stroke="transparent" points="277.5,-333.7 277.5,-394.7 390.5,-394.7 390.5,-333.7 277.5,-333.7"/>
<polygon fill="#f5f5f5" stroke="transparent" points="278,-371.2 278,-394.2 391,-394.2 391,-371.2 278,-371.2"/>
<polygon fill="none" stroke="#000000" points="278,-371.2 278,-394.2 391,-394.2 391,-371.2 278,-371.2"/>
<text text-anchor="start" x="283" y="-379.8" font-family="Helvetica,sans-Serif" font-weight="bold" font-size="11.00" fill="#000000">occurrence</text>
<text text-anchor="start" x="356.5219" y="-379.3" font-family="Helvetica,sans-Serif" font-size="11.00" fill="#000000">[table]</text>
<polygon fill="none" stroke="#000000" points="278,-352.2 278,-371.2 391,-371.2 391,-352.2 278,-352.2"/>
<text text-anchor="start" x="281" y="-358.3" font-family="Helvetica,sans-Serif" font-size="11.00" fill="#000000">...</text>
<polygon fill="#ffffff" stroke="transparent" points="278,-333.2 278,-352.2 328,-352.2 328,-333.2 278,-333.2"/>
<polygon fill="none" stroke="#000000" points="278,-333.2 278,-352.2 328,-352.2 328,-333.2 278,-333.2"/>
<text text-anchor="start" x="281" y="-339.3" font-family="Helvetica,sans-Serif" font-size="11.00" fill="#000000">&lt; 7</text>
<polygon fill="#ffffff" stroke="transparent" points="328,-333.2 328,-352.2 355,-352.2 355,-333.2 328,-333.2"/>
<polygon fill="none" stroke="#000000" points="328,-333.2 328,-352.2 355,-352.2 355,-333.2 328,-333.2"/>
<text text-anchor="start" x="345.8862" y="-339.3" font-family="Helvetica,sans-Serif" font-size="11.00" fill="#000000"> &#160;</text>
<polygon fill="#ffffff" stroke="transparent" points="355,-333.2 355,-352.2 391,-352.2 391,-333.2 355,-333.2"/>
<polygon fill="none" stroke="#000000" points="355,-333.2 355,-352.2 391,-352.2 391,-333.2 355,-333.2"/>
<text text-anchor="start" x="372.4053" y="-339.3" font-family="Helvetica,sans-Serif" font-size="11.00" fill="#000000">1 &gt;</text>
</a>
</g>
</g>
<!-- movement&#45;&gt;occurrence -->
<g id="edge9" class="edge">
<title>movement:w&#45;&gt;occurrence:e</title>
<path fill="none" stroke="#000000" d="M436.5282,-271.8111C422.437,-281.2254 426.0729,-306.916 407,-323.2 404.3469,-325.4652 401.5496,-327.666 398.6585,-329.7946"/>
<polygon fill="#000000" stroke="#000000" points="442.7545,-270.2019 451.4009,-271.6855 446.6273,-269.201 450.5,-268.2 450.5,-268.2 450.5,-268.2 446.6273,-269.201 449.5991,-264.7145 442.7545,-270.2019 442.7545,-270.2019"/>
<ellipse fill="none" stroke="#000000" cx="439.6563" cy="-271.0027" rx="3.2" ry="3.2"/>
</g>
<!-- occurrence&#45;&gt;absence_reason_category -->
<g id="edge10" class="edge">
<title>occurrence:w&#45;&gt;absence_reason_category:e</title>
<path fill="none" stroke="#000000" d="M254.8606,-363.3265C243.1715,-363.2495 231.2724,-363.2 220,-363.2"/>
<polygon fill="#000000" stroke="#000000" points="261.4917,-363.3765 269.4643,-367.0369 265.4916,-363.4067 269.4915,-363.437 269.4915,-363.437 269.4915,-363.437 265.4916,-363.4067 269.5187,-359.8371 261.4917,-363.3765 261.4917,-363.3765"/>
<ellipse fill="none" stroke="#000000" cx="258.2918" cy="-363.3523" rx="3.2" ry="3.2"/>
</g>
<!-- occurrence&#45;&gt;absence_reason -->
<g id="edge11" class="edge">
<title>occurrence:w&#45;&gt;absence_reason:e</title>
<path fill="none" stroke="#000000" d="M259.9275,-319.5697C239.3605,-288.9998 252.7725,-266.8586 228,-243.2 218.6456,-234.2662 207.2064,-227.2586 195.2241,-221.7673"/>
<polygon fill="#000000" stroke="#000000" points="264.2051,-324.9638 266.3552,-333.4689 266.6905,-328.0979 269.1759,-331.2321 269.1759,-331.2321 269.1759,-331.2321 266.6905,-328.0979 271.9966,-328.9952 264.2051,-324.9638 264.2051,-324.9638"/>
<ellipse fill="none" stroke="#000000" cx="262.2168" cy="-322.4565" rx="3.2" ry="3.2"/>
</g>
<!-- occurrence&#45;&gt;absence_sub_type -->
<g id="edge12" class="edge">
<title>occurrence:w&#45;&gt;absence_sub_type:e</title>
<path fill="none" stroke="#000000" d="M259.3533,-321.353C230.4201,-300.1859 225.8304,-281.2 195,-281.2"/>
<polygon fill="#000000" stroke="#000000" points="265.0651,-325.127 269.7551,-332.5408 268.4024,-327.3321 271.7397,-329.5373 271.7397,-329.5373 271.7397,-329.5373 268.4024,-327.3321 273.7243,-326.5337 265.0651,-325.127 265.0651,-325.127"/>
<ellipse fill="none" stroke="#000000" cx="262.3953" cy="-323.3629" rx="3.2" ry="3.2"/>
</g>
<!-- occurrence&#45;&gt;absence_type -->
<g id="edge13" class="edge">
<title>occurrence:w&#45;&gt;absence_type:e</title>
<path fill="none" stroke="#000000" d="M313.6007,-411.7571C289.3846,-459.8706 244.0538,-527.2 180,-527.2"/>
<polygon fill="#000000" stroke="#000000" points="316.392,-405.973 323.1112,-400.3328 318.1305,-402.3706 319.869,-398.7681 319.869,-398.7681 319.869,-398.7681 318.1305,-402.3706 316.6267,-397.2035 316.392,-405.973 316.392,-405.973"/>
<ellipse fill="none" stroke="#000000" cx="315.0012" cy="-408.855" rx="3.2" ry="3.2"/>
</g>
<!-- occurrence&#45;&gt;accompanied_by -->
<g id="edge14" class="edge">
<title>occurrence:w&#45;&gt;accompanied_by:e</title>
<path fill="none" stroke="#000000" d="M261.2199,-320.4178C224.3877,-258.0976 273.166,-213.4029 228,-161.2 219.6054,-151.4975 208.7386,-144.0909 197.0545,-138.4371"/>
<polygon fill="#000000" stroke="#000000" points="264.9989,-326.0503 266.4667,-334.6993 267.2275,-329.3719 269.4562,-332.6936 269.4562,-332.6936 269.4562,-332.6936 267.2275,-329.3719 272.4456,-330.6878 264.9989,-326.0503 264.9989,-326.0503"/>
<ellipse fill="none" stroke="#000000" cx="263.216" cy="-323.393" rx="3.2" ry="3.2"/>
</g>
<!-- occurrence&#45;&gt;transport -->
<g id="edge16" class="edge">
<title>occurrence:w&#45;&gt;transport:e</title>
<path fill="none" stroke="#000000" d="M277.3283,-406.8413C245.9174,-426.353 205.1778,-445.2 165,-445.2"/>
<polygon fill="#000000" stroke="#000000" points="283.0414,-403.1379 291.7125,-401.8071 286.3978,-400.9621 289.7543,-398.7862 289.7543,-398.7862 289.7543,-398.7862 286.3978,-400.9621 287.7961,-395.7654 283.0414,-403.1379 283.0414,-403.1379"/>
<ellipse fill="none" stroke="#000000" cx="280.3562" cy="-404.8785" rx="3.2" ry="3.2"/>
</g>
<!-- occurrence_status -->
<g id="node10" class="node">
<title>occurrence_status</title>
<g id="a_node10"><a xlink:href="../../tables/occurrence_status.html" xlink:title="occurrence_status" target="_top">
<polygon fill="#ffffff" stroke="transparent" points="33,-581.7 33,-642.7 195,-642.7 195,-581.7 33,-581.7"/>
<polygon fill="#f5f5f5" stroke="transparent" points="33,-619.2 33,-642.2 195,-642.2 195,-619.2 33,-619.2"/>
<polygon fill="none" stroke="#000000" points="33,-619.2 33,-642.2 195,-642.2 195,-619.2 33,-619.2"/>
<text text-anchor="start" x="38" y="-627.8" font-family="Helvetica,sans-Serif" font-weight="bold" font-size="11.00" fill="#000000">occurrence_status</text>
<text text-anchor="start" x="160.5219" y="-627.3" font-family="Helvetica,sans-Serif" font-size="11.00" fill="#000000">[table]</text>
<polygon fill="none" stroke="#000000" points="33,-600.2 33,-619.2 195,-619.2 195,-600.2 33,-600.2"/>
<text text-anchor="start" x="36" y="-606.3" font-family="Helvetica,sans-Serif" font-size="11.00" fill="#000000">...</text>
<polygon fill="#ffffff" stroke="transparent" points="33,-581.2 33,-600.2 103,-600.2 103,-581.2 33,-581.2"/>
<polygon fill="none" stroke="#000000" points="33,-581.2 33,-600.2 103,-600.2 103,-581.2 33,-581.2"/>
<text text-anchor="start" x="36" y="-587.3" font-family="Helvetica,sans-Serif" font-size="11.00" fill="#000000"> &#160;</text>
<polygon fill="#ffffff" stroke="transparent" points="103,-581.2 103,-600.2 144,-600.2 144,-581.2 103,-581.2"/>
<polygon fill="none" stroke="#000000" points="103,-581.2 103,-600.2 144,-600.2 144,-581.2 103,-581.2"/>
<text text-anchor="start" x="134.8862" y="-587.3" font-family="Helvetica,sans-Serif" font-size="11.00" fill="#000000"> &#160;</text>
<polygon fill="#ffffff" stroke="transparent" points="144,-581.2 144,-600.2 195,-600.2 195,-581.2 144,-581.2"/>
<polygon fill="none" stroke="#000000" points="144,-581.2 144,-600.2 195,-600.2 195,-581.2 144,-581.2"/>
<text text-anchor="start" x="176.4053" y="-587.3" font-family="Helvetica,sans-Serif" font-size="11.00" fill="#000000">1 &gt;</text>
</a>
</g>
</g>
<!-- occurrence&#45;&gt;occurrence_status -->
<g id="edge15" class="edge">
<title>occurrence:w&#45;&gt;occurrence_status:e</title>
<path fill="none" stroke="#000000" d="M328.2795,-413.1699C316.8963,-484.6638 284.2575,-609.2 195,-609.2"/>
<polygon fill="#000000" stroke="#000000" points="329.2328,-406.6975 333.9602,-399.3075 329.8157,-402.7402 330.3986,-398.7829 330.3986,-398.7829 330.3986,-398.7829 329.8157,-402.7402 326.8371,-398.2583 329.2328,-406.6975 329.2328,-406.6975"/>
<ellipse fill="none" stroke="#000000" cx="328.7665" cy="-409.8633" rx="3.2" ry="3.2"/>
</g>
</g>
</svg>
