<?xml version="1.0" encoding="UTF-8" standalone="no"?>
<!DOCTYPE svg PUBLIC "-//W3C//DTD SVG 1.1//EN"
 "http://www.w3.org/Graphics/SVG/1.1/DTD/svg11.dtd">
<!-- Generated by graphviz version 2.40.1 (20161225.0304)
 -->
<!-- Title: twoDegreesRelationshipsDiagram Pages: 1 -->
<svg width="775pt" height="685pt"
 viewBox="0.00 0.00 775.00 685.20" xmlns="http://www.w3.org/2000/svg" xmlns:xlink="http://www.w3.org/1999/xlink">
<g id="graph0" class="graph" transform="scale(1 1) rotate(0) translate(4 681.2)">
<title>twoDegreesRelationshipsDiagram</title>
<polygon fill="#ffffff" stroke="transparent" points="-4,4 -4,-681.2 771,-681.2 771,4 -4,4"/>
<text text-anchor="middle" x="72.4936" y="-7.3" font-family="Helvetica,sans-Serif" font-size="11.00" fill="#000000">Generated by SchemaSpy</text>
<!-- authorisation -->
<g id="node1" class="node">
<title>authorisation</title>
<g id="a_node1"><a xlink:href="../../tables/authorisation.html" xlink:title="authorisation" target="_top">
<polygon fill="#ffffff" stroke="transparent" points="269,-366.2 269,-427.2 399,-427.2 399,-366.2 269,-366.2"/>
<polygon fill="#f5f5f5" stroke="transparent" points="269,-403.7 269,-426.7 399,-426.7 399,-403.7 269,-403.7"/>
<polygon fill="none" stroke="#000000" points="269,-403.7 269,-426.7 399,-426.7 399,-403.7 269,-403.7"/>
<text text-anchor="start" x="274" y="-412.3" font-family="Helvetica,sans-Serif" font-weight="bold" font-size="11.00" fill="#000000">authorisation</text>
<text text-anchor="start" x="364.5219" y="-411.8" font-family="Helvetica,sans-Serif" font-size="11.00" fill="#000000">[table]</text>
<polygon fill="none" stroke="#000000" points="269,-384.7 269,-403.7 399,-403.7 399,-384.7 269,-384.7"/>
<text text-anchor="start" x="272" y="-390.8" font-family="Helvetica,sans-Serif" font-size="11.00" fill="#000000">...</text>
<polygon fill="#ffffff" stroke="transparent" points="269,-365.7 269,-384.7 332,-384.7 332,-365.7 269,-365.7"/>
<polygon fill="none" stroke="#000000" points="269,-365.7 269,-384.7 332,-384.7 332,-365.7 269,-365.7"/>
<text text-anchor="start" x="272" y="-371.8" font-family="Helvetica,sans-Serif" font-size="11.00" fill="#000000">&lt; 8</text>
<polygon fill="#ffffff" stroke="transparent" points="332,-365.7 332,-384.7 365,-384.7 365,-365.7 332,-365.7"/>
<polygon fill="none" stroke="#000000" points="332,-365.7 332,-384.7 365,-384.7 365,-365.7 332,-365.7"/>
<text text-anchor="start" x="355.8862" y="-371.8" font-family="Helvetica,sans-Serif" font-size="11.00" fill="#000000"> &#160;</text>
<polygon fill="#ffffff" stroke="transparent" points="365,-365.7 365,-384.7 399,-384.7 399,-365.7 365,-365.7"/>
<polygon fill="none" stroke="#000000" points="365,-365.7 365,-384.7 399,-384.7 399,-365.7 365,-365.7"/>
<text text-anchor="start" x="389.8862" y="-371.8" font-family="Helvetica,sans-Serif" font-size="11.00" fill="#000000"> &#160;</text>
</a>
</g>
</g>
<!-- absence_reason_category -->
<g id="node2" class="node">
<title>absence_reason_category</title>
<g id="a_node2"><a xlink:href="../../tables/absence_reason_category.html" xlink:title="absence_reason_category" target="_top">
<polygon fill="#ffffff" stroke="transparent" points="8,-284.2 8,-345.2 220,-345.2 220,-284.2 8,-284.2"/>
<polygon fill="#f5f5f5" stroke="transparent" points="8,-321.7 8,-344.7 220,-344.7 220,-321.7 8,-321.7"/>
<polygon fill="none" stroke="#000000" points="8,-321.7 8,-344.7 220,-344.7 220,-321.7 8,-321.7"/>
<text text-anchor="start" x="13" y="-330.3" font-family="Helvetica,sans-Serif" font-weight="bold" font-size="11.00" fill="#000000">absence_reason_category</text>
<text text-anchor="start" x="185.5219" y="-329.8" font-family="Helvetica,sans-Serif" font-size="11.00" fill="#000000">[table]</text>
<polygon fill="none" stroke="#000000" points="8,-302.7 8,-321.7 220,-321.7 220,-302.7 8,-302.7"/>
<text text-anchor="start" x="11" y="-308.8" font-family="Helvetica,sans-Serif" font-size="11.00" fill="#000000">...</text>
<polygon fill="#ffffff" stroke="transparent" points="8,-283.7 8,-302.7 103,-302.7 103,-283.7 8,-283.7"/>
<polygon fill="none" stroke="#000000" points="8,-283.7 8,-302.7 103,-302.7 103,-283.7 8,-283.7"/>
<text text-anchor="start" x="11" y="-289.8" font-family="Helvetica,sans-Serif" font-size="11.00" fill="#000000"> &#160;</text>
<polygon fill="#ffffff" stroke="transparent" points="103,-283.7 103,-302.7 157,-302.7 157,-283.7 103,-283.7"/>
<polygon fill="none" stroke="#000000" points="103,-283.7 103,-302.7 157,-302.7 157,-283.7 103,-283.7"/>
<text text-anchor="start" x="147.8862" y="-289.8" font-family="Helvetica,sans-Serif" font-size="11.00" fill="#000000"> &#160;</text>
<polygon fill="#ffffff" stroke="transparent" points="157,-283.7 157,-302.7 220,-302.7 220,-283.7 157,-283.7"/>
<polygon fill="none" stroke="#000000" points="157,-283.7 157,-302.7 220,-302.7 220,-283.7 157,-283.7"/>
<text text-anchor="start" x="201.4053" y="-289.8" font-family="Helvetica,sans-Serif" font-size="11.00" fill="#000000">2 &gt;</text>
</a>
</g>
</g>
<!-- authorisation&#45;&gt;absence_reason_category -->
<g id="edge1" class="edge">
<title>authorisation:w&#45;&gt;absence_reason_category:e</title>
<path fill="none" stroke="#000000" d="M255.0294,-389.0564C235.288,-371.7098 256.3194,-311.7 220,-311.7"/>
<polygon fill="#000000" stroke="#000000" points="261.4084,-391.1766 267.8645,-397.1162 265.2042,-392.4383 269,-393.7 269,-393.7 269,-393.7 265.2042,-392.4383 270.1355,-390.2838 261.4084,-391.1766 261.4084,-391.1766"/>
<ellipse fill="none" stroke="#000000" cx="258.3717" cy="-390.1673" rx="3.2" ry="3.2"/>
</g>
<!-- absence_reason -->
<g id="node3" class="node">
<title>absence_reason</title>
<g id="a_node3"><a xlink:href="../../tables/absence_reason.html" xlink:title="absence_reason" target="_top">
<polygon fill="#ffffff" stroke="transparent" points="41,-202.2 41,-263.2 187,-263.2 187,-202.2 41,-202.2"/>
<polygon fill="#f5f5f5" stroke="transparent" points="41,-239.7 41,-262.7 187,-262.7 187,-239.7 41,-239.7"/>
<polygon fill="none" stroke="#000000" points="41,-239.7 41,-262.7 187,-262.7 187,-239.7 41,-239.7"/>
<text text-anchor="start" x="46" y="-248.3" font-family="Helvetica,sans-Serif" font-weight="bold" font-size="11.00" fill="#000000">absence_reason</text>
<text text-anchor="start" x="152.5219" y="-247.8" font-family="Helvetica,sans-Serif" font-size="11.00" fill="#000000">[table]</text>
<polygon fill="none" stroke="#000000" points="41,-220.7 41,-239.7 187,-239.7 187,-220.7 41,-220.7"/>
<text text-anchor="start" x="44" y="-226.8" font-family="Helvetica,sans-Serif" font-size="11.00" fill="#000000">...</text>
<polygon fill="#ffffff" stroke="transparent" points="41,-201.7 41,-220.7 103,-220.7 103,-201.7 41,-201.7"/>
<polygon fill="none" stroke="#000000" points="41,-201.7 41,-220.7 103,-220.7 103,-201.7 41,-201.7"/>
<text text-anchor="start" x="44" y="-207.8" font-family="Helvetica,sans-Serif" font-size="11.00" fill="#000000"> &#160;</text>
<polygon fill="#ffffff" stroke="transparent" points="103,-201.7 103,-220.7 140,-220.7 140,-201.7 103,-201.7"/>
<polygon fill="none" stroke="#000000" points="103,-201.7 103,-220.7 140,-220.7 140,-201.7 103,-201.7"/>
<text text-anchor="start" x="130.8862" y="-207.8" font-family="Helvetica,sans-Serif" font-size="11.00" fill="#000000"> &#160;</text>
<polygon fill="#ffffff" stroke="transparent" points="140,-201.7 140,-220.7 187,-220.7 187,-201.7 140,-201.7"/>
<polygon fill="none" stroke="#000000" points="140,-201.7 140,-220.7 187,-220.7 187,-201.7 140,-201.7"/>
<text text-anchor="start" x="168.4053" y="-207.8" font-family="Helvetica,sans-Serif" font-size="11.00" fill="#000000">3 &gt;</text>
</a>
</g>
</g>
<!-- authorisation&#45;&gt;absence_reason -->
<g id="edge2" class="edge">
<title>authorisation:w&#45;&gt;absence_reason:e</title>
<path fill="none" stroke="#000000" d="M254.6385,-391.1762C223.1682,-377.3021 263.363,-309.6339 228,-273.7 218.7795,-264.3306 207.2662,-257.0923 195.1293,-251.5031"/>
<polygon fill="#000000" stroke="#000000" points="261.1207,-392.3153 268.3769,-397.2457 265.0604,-393.0076 269,-393.7 269,-393.7 269,-393.7 265.0604,-393.0076 269.6231,-390.1543 261.1207,-392.3153 261.1207,-392.3153"/>
<ellipse fill="none" stroke="#000000" cx="257.969" cy="-391.7614" rx="3.2" ry="3.2"/>
</g>
<!-- absence_sub_type -->
<g id="node4" class="node">
<title>absence_sub_type</title>
<g id="a_node4"><a xlink:href="../../tables/absence_sub_type.html" xlink:title="absence_sub_type" target="_top">
<polygon fill="#ffffff" stroke="transparent" points="33.5,-530.2 33.5,-591.2 194.5,-591.2 194.5,-530.2 33.5,-530.2"/>
<polygon fill="#f5f5f5" stroke="transparent" points="34,-567.7 34,-590.7 195,-590.7 195,-567.7 34,-567.7"/>
<polygon fill="none" stroke="#000000" points="34,-567.7 34,-590.7 195,-590.7 195,-567.7 34,-567.7"/>
<text text-anchor="start" x="39" y="-576.3" font-family="Helvetica,sans-Serif" font-weight="bold" font-size="11.00" fill="#000000">absence_sub_type</text>
<text text-anchor="start" x="160.5219" y="-575.8" font-family="Helvetica,sans-Serif" font-size="11.00" fill="#000000">[table]</text>
<polygon fill="none" stroke="#000000" points="34,-548.7 34,-567.7 195,-567.7 195,-548.7 34,-548.7"/>
<text text-anchor="start" x="37" y="-554.8" font-family="Helvetica,sans-Serif" font-size="11.00" fill="#000000">...</text>
<polygon fill="#ffffff" stroke="transparent" points="34,-529.7 34,-548.7 104,-548.7 104,-529.7 34,-529.7"/>
<polygon fill="none" stroke="#000000" points="34,-529.7 34,-548.7 104,-548.7 104,-529.7 34,-529.7"/>
<text text-anchor="start" x="37" y="-535.8" font-family="Helvetica,sans-Serif" font-size="11.00" fill="#000000"> &#160;</text>
<polygon fill="#ffffff" stroke="transparent" points="104,-529.7 104,-548.7 145,-548.7 145,-529.7 104,-529.7"/>
<polygon fill="none" stroke="#000000" points="104,-529.7 104,-548.7 145,-548.7 145,-529.7 104,-529.7"/>
<text text-anchor="start" x="135.8862" y="-535.8" font-family="Helvetica,sans-Serif" font-size="11.00" fill="#000000"> &#160;</text>
<polygon fill="#ffffff" stroke="transparent" points="145,-529.7 145,-548.7 195,-548.7 195,-529.7 145,-529.7"/>
<polygon fill="none" stroke="#000000" points="145,-529.7 145,-548.7 195,-548.7 195,-529.7 145,-529.7"/>
<text text-anchor="start" x="176.4053" y="-535.8" font-family="Helvetica,sans-Serif" font-size="11.00" fill="#000000">2 &gt;</text>
</a>
</g>
</g>
<!-- authorisation&#45;&gt;absence_sub_type -->
<g id="edge3" class="edge">
<title>authorisation:w&#45;&gt;absence_sub_type:e</title>
<path fill="none" stroke="#000000" d="M254.4775,-396.0184C200.2984,-415.9517 269.3429,-557.7 195,-557.7"/>
<polygon fill="#000000" stroke="#000000" points="261.1,-394.9612 269.5675,-397.255 265.05,-394.3306 269,-393.7 269,-393.7 269,-393.7 265.05,-394.3306 268.4325,-390.145 261.1,-394.9612 261.1,-394.9612"/>
<ellipse fill="none" stroke="#000000" cx="257.94" cy="-395.4657" rx="3.2" ry="3.2"/>
</g>
<!-- absence_type -->
<g id="node5" class="node">
<title>absence_type</title>
<g id="a_node5"><a xlink:href="../../tables/absence_type.html" xlink:title="absence_type" target="_top">
<polygon fill="#ffffff" stroke="transparent" points="48.5,-448.2 48.5,-509.2 179.5,-509.2 179.5,-448.2 48.5,-448.2"/>
<polygon fill="#f5f5f5" stroke="transparent" points="49,-485.7 49,-508.7 180,-508.7 180,-485.7 49,-485.7"/>
<polygon fill="none" stroke="#000000" points="49,-485.7 49,-508.7 180,-508.7 180,-485.7 49,-485.7"/>
<text text-anchor="start" x="54" y="-494.3" font-family="Helvetica,sans-Serif" font-weight="bold" font-size="11.00" fill="#000000">absence_type</text>
<text text-anchor="start" x="145.5219" y="-493.8" font-family="Helvetica,sans-Serif" font-size="11.00" fill="#000000">[table]</text>
<polygon fill="none" stroke="#000000" points="49,-466.7 49,-485.7 180,-485.7 180,-466.7 49,-466.7"/>
<text text-anchor="start" x="52" y="-472.8" font-family="Helvetica,sans-Serif" font-size="11.00" fill="#000000">...</text>
<polygon fill="#ffffff" stroke="transparent" points="49,-447.7 49,-466.7 104,-466.7 104,-447.7 49,-447.7"/>
<polygon fill="none" stroke="#000000" points="49,-447.7 49,-466.7 104,-466.7 104,-447.7 49,-447.7"/>
<text text-anchor="start" x="52" y="-453.8" font-family="Helvetica,sans-Serif" font-size="11.00" fill="#000000"> &#160;</text>
<polygon fill="#ffffff" stroke="transparent" points="104,-447.7 104,-466.7 137,-466.7 137,-447.7 104,-447.7"/>
<polygon fill="none" stroke="#000000" points="104,-447.7 104,-466.7 137,-466.7 137,-447.7 104,-447.7"/>
<text text-anchor="start" x="127.8862" y="-453.8" font-family="Helvetica,sans-Serif" font-size="11.00" fill="#000000"> &#160;</text>
<polygon fill="#ffffff" stroke="transparent" points="137,-447.7 137,-466.7 180,-466.7 180,-447.7 137,-447.7"/>
<polygon fill="none" stroke="#000000" points="137,-447.7 137,-466.7 180,-466.7 180,-447.7 137,-447.7"/>
<text text-anchor="start" x="161.4053" y="-453.8" font-family="Helvetica,sans-Serif" font-size="11.00" fill="#000000">2 &gt;</text>
</a>
</g>
</g>
<!-- authorisation&#45;&gt;absence_type -->
<g id="edge4" class="edge">
<title>authorisation:w&#45;&gt;absence_type:e</title>
<path fill="none" stroke="#000000" d="M254.761,-397.5312C243.4157,-405.4032 243.0412,-423.8231 228,-437.7 208.0017,-456.1503 207.2093,-475.7 180,-475.7"/>
<polygon fill="#000000" stroke="#000000" points="261.2747,-395.7786 269.9354,-397.1764 265.1374,-394.7393 269,-393.7 269,-393.7 269,-393.7 265.1374,-394.7393 268.0646,-390.2236 261.2747,-395.7786 261.2747,-395.7786"/>
<ellipse fill="none" stroke="#000000" cx="258.1846" cy="-396.6101" rx="3.2" ry="3.2"/>
</g>
<!-- accompanied_by -->
<g id="node6" class="node">
<title>accompanied_by</title>
<g id="a_node6"><a xlink:href="../../tables/accompanied_by.html" xlink:title="accompanied_by" target="_top">
<polygon fill="#ffffff" stroke="transparent" points="39,-120.2 39,-181.2 189,-181.2 189,-120.2 39,-120.2"/>
<polygon fill="#f5f5f5" stroke="transparent" points="39,-157.7 39,-180.7 189,-180.7 189,-157.7 39,-157.7"/>
<polygon fill="none" stroke="#000000" points="39,-157.7 39,-180.7 189,-180.7 189,-157.7 39,-157.7"/>
<text text-anchor="start" x="44" y="-166.3" font-family="Helvetica,sans-Serif" font-weight="bold" font-size="11.00" fill="#000000">accompanied_by</text>
<text text-anchor="start" x="154.5219" y="-165.8" font-family="Helvetica,sans-Serif" font-size="11.00" fill="#000000">[table]</text>
<polygon fill="none" stroke="#000000" points="39,-138.7 39,-157.7 189,-157.7 189,-138.7 39,-138.7"/>
<text text-anchor="start" x="42" y="-144.8" font-family="Helvetica,sans-Serif" font-size="11.00" fill="#000000">...</text>
<polygon fill="#ffffff" stroke="transparent" points="39,-119.7 39,-138.7 103,-138.7 103,-119.7 39,-119.7"/>
<polygon fill="none" stroke="#000000" points="39,-119.7 39,-138.7 103,-138.7 103,-119.7 39,-119.7"/>
<text text-anchor="start" x="42" y="-125.8" font-family="Helvetica,sans-Serif" font-size="11.00" fill="#000000"> &#160;</text>
<polygon fill="#ffffff" stroke="transparent" points="103,-119.7 103,-138.7 141,-138.7 141,-119.7 103,-119.7"/>
<polygon fill="none" stroke="#000000" points="103,-119.7 103,-138.7 141,-138.7 141,-119.7 103,-119.7"/>
<text text-anchor="start" x="131.8862" y="-125.8" font-family="Helvetica,sans-Serif" font-size="11.00" fill="#000000"> &#160;</text>
<polygon fill="#ffffff" stroke="transparent" points="141,-119.7 141,-138.7 189,-138.7 189,-119.7 141,-119.7"/>
<polygon fill="none" stroke="#000000" points="141,-119.7 141,-138.7 189,-138.7 189,-119.7 141,-119.7"/>
<text text-anchor="start" x="170.4053" y="-125.8" font-family="Helvetica,sans-Serif" font-size="11.00" fill="#000000">3 &gt;</text>
</a>
</g>
</g>
<!-- authorisation&#45;&gt;accompanied_by -->
<g id="edge5" class="edge">
<title>authorisation:w&#45;&gt;accompanied_by:e</title>
<path fill="none" stroke="#000000" d="M254.5005,-392.2841C190.1504,-377.8631 284.2871,-256.803 228,-191.7 219.6088,-181.9945 208.7438,-174.5864 197.0605,-168.9319"/>
<polygon fill="#000000" stroke="#000000" points="261.0379,-392.9224 268.6501,-397.283 265.0189,-393.3112 269,-393.7 269,-393.7 269,-393.7 265.0189,-393.3112 269.3499,-390.117 261.0379,-392.9224 261.0379,-392.9224"/>
<ellipse fill="none" stroke="#000000" cx="257.853" cy="-392.6114" rx="3.2" ry="3.2"/>
</g>
<!-- public.person_summary -->
<g id="node7" class="node">
<title>public.person_summary</title>
<g id="a_node7"><a xlink:href="../../../public/tables/person_summary.html" xlink:title="public.person_summary" target="_top">
<polygon fill="#ffffff" stroke="transparent" points="14.5,-612.2 14.5,-673.2 213.5,-673.2 213.5,-612.2 14.5,-612.2"/>
<polygon fill="#f5f5f5" stroke="transparent" points="15,-649.7 15,-672.7 214,-672.7 214,-649.7 15,-649.7"/>
<polygon fill="none" stroke="#000000" points="15,-649.7 15,-672.7 214,-672.7 214,-649.7 15,-649.7"/>
<text text-anchor="start" x="20" y="-658.3" font-family="Helvetica,sans-Serif" font-weight="bold" font-size="11.00" fill="#000000">public.person_summary</text>
<text text-anchor="start" x="179.5219" y="-657.8" font-family="Helvetica,sans-Serif" font-size="11.00" fill="#000000">[table]</text>
<polygon fill="none" stroke="#000000" points="15,-630.7 15,-649.7 214,-649.7 214,-630.7 15,-630.7"/>
<text text-anchor="start" x="18" y="-636.8" font-family="Helvetica,sans-Serif" font-size="11.00" fill="#000000">...</text>
<polygon fill="#ffffff" stroke="transparent" points="15,-611.7 15,-630.7 91,-630.7 91,-611.7 15,-611.7"/>
<polygon fill="none" stroke="#000000" points="15,-611.7 15,-630.7 91,-630.7 91,-611.7 15,-611.7"/>
<text text-anchor="start" x="18" y="-617.8" font-family="Helvetica,sans-Serif" font-size="11.00" fill="#000000"> &#160;</text>
<polygon fill="#ffffff" stroke="transparent" points="91,-611.7 91,-630.7 161,-630.7 161,-611.7 91,-611.7"/>
<polygon fill="none" stroke="#000000" points="91,-611.7 91,-630.7 161,-630.7 161,-611.7 91,-611.7"/>
<text text-anchor="start" x="125.6105" y="-617.8" font-family="Helvetica,sans-Serif" font-size="11.00" fill="#000000">0 rows</text>
<polygon fill="#ffffff" stroke="transparent" points="161,-611.7 161,-630.7 214,-630.7 214,-611.7 161,-611.7"/>
<polygon fill="none" stroke="#000000" points="161,-611.7 161,-630.7 214,-630.7 214,-611.7 161,-611.7"/>
<text text-anchor="start" x="195.4053" y="-617.8" font-family="Helvetica,sans-Serif" font-size="11.00" fill="#000000">3 &gt;</text>
</a>
</g>
</g>
<!-- authorisation&#45;&gt;public.person_summary -->
<g id="edge6" class="edge">
<title>authorisation:w&#45;&gt;public.person_summary:e</title>
<path fill="none" stroke="#000000" d="M254.5112,-395.0659C187.6075,-409.4784 285.825,-534.4365 228,-601.7 226.0804,-603.9329 224.0299,-606.0442 221.8684,-608.0405"/>
<polygon fill="#000000" stroke="#000000" points="261.0353,-394.4509 269.3379,-397.2841 265.0177,-394.0754 269,-393.7 269,-393.7 269,-393.7 265.0177,-394.0754 268.6621,-390.1159 261.0353,-394.4509 261.0353,-394.4509"/>
<ellipse fill="none" stroke="#000000" cx="257.8494" cy="-394.7512" rx="3.2" ry="3.2"/>
</g>
<!-- transport -->
<g id="node8" class="node">
<title>transport</title>
<g id="a_node8"><a xlink:href="../../tables/transport.html" xlink:title="transport" target="_top">
<polygon fill="#ffffff" stroke="transparent" points="63,-366.2 63,-427.2 165,-427.2 165,-366.2 63,-366.2"/>
<polygon fill="#f5f5f5" stroke="transparent" points="63,-403.7 63,-426.7 165,-426.7 165,-403.7 63,-403.7"/>
<polygon fill="none" stroke="#000000" points="63,-403.7 63,-426.7 165,-426.7 165,-403.7 63,-403.7"/>
<text text-anchor="start" x="68" y="-412.3" font-family="Helvetica,sans-Serif" font-weight="bold" font-size="11.00" fill="#000000">transport</text>
<text text-anchor="start" x="130.5219" y="-411.8" font-family="Helvetica,sans-Serif" font-size="11.00" fill="#000000">[table]</text>
<polygon fill="none" stroke="#000000" points="63,-384.7 63,-403.7 165,-403.7 165,-384.7 63,-384.7"/>
<text text-anchor="start" x="66" y="-390.8" font-family="Helvetica,sans-Serif" font-size="11.00" fill="#000000">...</text>
<polygon fill="#ffffff" stroke="transparent" points="63,-365.7 63,-384.7 103,-384.7 103,-365.7 63,-365.7"/>
<polygon fill="none" stroke="#000000" points="63,-365.7 63,-384.7 103,-384.7 103,-365.7 63,-365.7"/>
<text text-anchor="start" x="66" y="-371.8" font-family="Helvetica,sans-Serif" font-size="11.00" fill="#000000"> &#160;</text>
<polygon fill="#ffffff" stroke="transparent" points="103,-365.7 103,-384.7 129,-384.7 129,-365.7 103,-365.7"/>
<polygon fill="none" stroke="#000000" points="103,-365.7 103,-384.7 129,-384.7 129,-365.7 103,-365.7"/>
<text text-anchor="start" x="119.8862" y="-371.8" font-family="Helvetica,sans-Serif" font-size="11.00" fill="#000000"> &#160;</text>
<polygon fill="#ffffff" stroke="transparent" points="129,-365.7 129,-384.7 165,-384.7 165,-365.7 129,-365.7"/>
<polygon fill="none" stroke="#000000" points="129,-365.7 129,-384.7 165,-384.7 165,-365.7 129,-365.7"/>
<text text-anchor="start" x="146.4053" y="-371.8" font-family="Helvetica,sans-Serif" font-size="11.00" fill="#000000">2 &gt;</text>
</a>
</g>
</g>
<!-- authorisation&#45;&gt;transport -->
<g id="edge7" class="edge">
<title>authorisation:w&#45;&gt;transport:e</title>
<path fill="none" stroke="#000000" d="M254.5255,-393.7C219.7149,-393.7 205.9861,-393.7 165,-393.7"/>
<polygon fill="#000000" stroke="#000000" points="261,-393.7001 269,-397.3 265,-393.7 269,-393.7 269,-393.7 269,-393.7 265,-393.7 269,-390.1 261,-393.7001 261,-393.7001"/>
<ellipse fill="none" stroke="#000000" cx="257.8" cy="-393.7001" rx="3.2" ry="3.2"/>
</g>
<!-- movement -->
<g id="node9" class="node">
<title>movement</title>
<g id="a_node9"><a xlink:href="../../tables/movement.html" xlink:title="movement" target="_top">
<polygon fill="#ffffff" stroke="transparent" points="448,-77.7 448,-409.7 759,-409.7 759,-77.7 448,-77.7"/>
<polygon fill="#f5f5f5" stroke="transparent" points="450.5,-384.7 450.5,-407.7 757.5,-407.7 757.5,-384.7 450.5,-384.7"/>
<polygon fill="none" stroke="#000000" points="450.5,-384.7 450.5,-407.7 757.5,-407.7 757.5,-384.7 450.5,-384.7"/>
<text text-anchor="start" x="455.5" y="-393.3" font-family="Helvetica,sans-Serif" font-weight="bold" font-size="11.00" fill="#000000">movement</text>
<text text-anchor="start" x="722.5437" y="-392.8" font-family="Helvetica,sans-Serif" font-size="11.00" fill="#000000">[table]</text>
<polygon fill="none" stroke="#000000" points="450.5,-362.7 450.5,-384.7 658.5,-384.7 658.5,-362.7 450.5,-362.7"/>
<image xlink:href="../../images/primaryKeys.png" width="11px" height="12px" preserveAspectRatio="xMinYMin meet" x="455.5" y="-379.7"/>
<text text-anchor="start" x="470.5" y="-369.8" font-family="Helvetica,sans-Serif" font-size="11.00" fill="#000000">id</text>
<polygon fill="none" stroke="#000000" points="658.5,-362.7 658.5,-384.7 757.5,-384.7 757.5,-362.7 658.5,-362.7"/>
<text text-anchor="start" x="661.5" y="-370.4" font-family="Helvetica,sans-Serif" font-size="11.00" fill="#000000">uuid[2147483647]</text>
<polygon fill="none" stroke="#000000" points="450.5,-340.7 450.5,-362.7 658.5,-362.7 658.5,-340.7 450.5,-340.7"/>
<text text-anchor="start" x="470.5" y="-347.8" font-family="Helvetica,sans-Serif" font-size="11.00" fill="#000000">version</text>
<polygon fill="none" stroke="#000000" points="658.5,-340.7 658.5,-362.7 757.5,-362.7 757.5,-340.7 658.5,-340.7"/>
<text text-anchor="start" x="661.5" y="-348.4" font-family="Helvetica,sans-Serif" font-size="11.00" fill="#000000">int4[10]</text>
<polygon fill="#ffffff" stroke="transparent" points="450.5,-318.7 450.5,-340.7 658.5,-340.7 658.5,-318.7 450.5,-318.7"/>
<polygon fill="none" stroke="#000000" points="450.5,-318.7 450.5,-340.7 658.5,-340.7 658.5,-318.7 450.5,-318.7"/>
<image xlink:href="../../images/foreignKeys.png" width="11px" height="12px" preserveAspectRatio="xMinYMin meet" x="455.5" y="-335.7"/>
<text text-anchor="start" x="470.5" y="-325.8" font-family="Helvetica,sans-Serif" font-size="11.00" fill="#000000">person_identifier</text>
<polygon fill="none" stroke="#000000" points="658.5,-318.7 658.5,-340.7 757.5,-340.7 757.5,-318.7 658.5,-318.7"/>
<text text-anchor="start" x="661.5" y="-326.4" font-family="Helvetica,sans-Serif" font-size="11.00" fill="#000000">varchar[10]</text>
<polygon fill="#ffffff" stroke="transparent" points="450.5,-296.7 450.5,-318.7 658.5,-318.7 658.5,-296.7 450.5,-296.7"/>
<polygon fill="none" stroke="#000000" points="450.5,-296.7 450.5,-318.7 658.5,-318.7 658.5,-296.7 450.5,-296.7"/>
<image xlink:href="../../images/foreignKeys.png" width="11px" height="12px" preserveAspectRatio="xMinYMin meet" x="455.5" y="-313.7"/>
<text text-anchor="start" x="470.5" y="-303.8" font-family="Helvetica,sans-Serif" font-size="11.00" fill="#000000">occurrence_id</text>
<polygon fill="none" stroke="#000000" points="658.5,-296.7 658.5,-318.7 757.5,-318.7 757.5,-296.7 658.5,-296.7"/>
<text text-anchor="start" x="661.5" y="-304.4" font-family="Helvetica,sans-Serif" font-size="11.00" fill="#000000">uuid[2147483647]</text>
<polygon fill="#ffffff" stroke="transparent" points="450.5,-274.7 450.5,-296.7 658.5,-296.7 658.5,-274.7 450.5,-274.7"/>
<polygon fill="none" stroke="#000000" points="450.5,-274.7 450.5,-296.7 658.5,-296.7 658.5,-274.7 450.5,-274.7"/>
<text text-anchor="start" x="470.5" y="-281.8" font-family="Helvetica,sans-Serif" font-size="11.00" fill="#000000">occurred_at</text>
<polygon fill="none" stroke="#000000" points="658.5,-274.7 658.5,-296.7 757.5,-296.7 757.5,-274.7 658.5,-274.7"/>
<text text-anchor="start" x="661.5" y="-282.4" font-family="Helvetica,sans-Serif" font-size="11.00" fill="#000000">timestamp[29,6]</text>
<polygon fill="none" stroke="#000000" points="450.5,-252.7 450.5,-274.7 658.5,-274.7 658.5,-252.7 450.5,-252.7"/>
<text text-anchor="start" x="470.5" y="-259.8" font-family="Helvetica,sans-Serif" font-size="11.00" fill="#000000">direction</text>
<polygon fill="none" stroke="#000000" points="658.5,-252.7 658.5,-274.7 757.5,-274.7 757.5,-252.7 658.5,-252.7"/>
<text text-anchor="start" x="661.5" y="-260.4" font-family="Helvetica,sans-Serif" font-size="11.00" fill="#000000">varchar[3]</text>
<polygon fill="none" stroke="#000000" points="450.5,-230.7 450.5,-252.7 658.5,-252.7 658.5,-230.7 450.5,-230.7"/>
<image xlink:href="../../images/foreignKeys.png" width="11px" height="12px" preserveAspectRatio="xMinYMin meet" x="455.5" y="-247.7"/>
<text text-anchor="start" x="470.5" y="-237.8" font-family="Helvetica,sans-Serif" font-size="11.00" fill="#000000">absence_reason_id</text>
<polygon fill="none" stroke="#000000" points="658.5,-230.7 658.5,-252.7 757.5,-252.7 757.5,-230.7 658.5,-230.7"/>
<text text-anchor="start" x="661.5" y="-238.4" font-family="Helvetica,sans-Serif" font-size="11.00" fill="#000000">uuid[2147483647]</text>
<polygon fill="none" stroke="#000000" points="450.5,-208.7 450.5,-230.7 658.5,-230.7 658.5,-208.7 450.5,-208.7"/>
<image xlink:href="../../images/foreignKeys.png" width="11px" height="12px" preserveAspectRatio="xMinYMin meet" x="455.5" y="-225.7"/>
<text text-anchor="start" x="470.5" y="-215.8" font-family="Helvetica,sans-Serif" font-size="11.00" fill="#000000">accompanied_by_id</text>
<polygon fill="none" stroke="#000000" points="658.5,-208.7 658.5,-230.7 757.5,-230.7 757.5,-208.7 658.5,-208.7"/>
<text text-anchor="start" x="661.5" y="-216.4" font-family="Helvetica,sans-Serif" font-size="11.00" fill="#000000">uuid[2147483647]</text>
<polygon fill="none" stroke="#000000" points="450.5,-186.7 450.5,-208.7 658.5,-208.7 658.5,-186.7 450.5,-186.7"/>
<text text-anchor="start" x="470.5" y="-193.8" font-family="Helvetica,sans-Serif" font-size="11.00" fill="#000000">accompanied_by_comments</text>
<polygon fill="none" stroke="#000000" points="658.5,-186.7 658.5,-208.7 757.5,-208.7 757.5,-186.7 658.5,-186.7"/>
<text text-anchor="start" x="661.5" y="-194.4" font-family="Helvetica,sans-Serif" font-size="11.00" fill="#000000">text[2147483647]</text>
<polygon fill="none" stroke="#000000" points="450.5,-164.7 450.5,-186.7 658.5,-186.7 658.5,-164.7 450.5,-164.7"/>
<text text-anchor="start" x="470.5" y="-171.8" font-family="Helvetica,sans-Serif" font-size="11.00" fill="#000000">location</text>
<polygon fill="none" stroke="#000000" points="658.5,-164.7 658.5,-186.7 757.5,-186.7 757.5,-164.7 658.5,-164.7"/>
<text text-anchor="start" x="661.2258" y="-172.4" font-family="Helvetica,sans-Serif" font-size="11.00" fill="#000000">jsonb[2147483647]</text>
<polygon fill="none" stroke="#000000" points="450.5,-142.7 450.5,-164.7 658.5,-164.7 658.5,-142.7 450.5,-142.7"/>
<text text-anchor="start" x="470.5" y="-149.8" font-family="Helvetica,sans-Serif" font-size="11.00" fill="#000000">comments</text>
<polygon fill="none" stroke="#000000" points="658.5,-142.7 658.5,-164.7 757.5,-164.7 757.5,-142.7 658.5,-142.7"/>
<text text-anchor="start" x="661.5" y="-150.4" font-family="Helvetica,sans-Serif" font-size="11.00" fill="#000000">text[2147483647]</text>
<polygon fill="none" stroke="#000000" points="450.5,-120.7 450.5,-142.7 658.5,-142.7 658.5,-120.7 450.5,-120.7"/>
<text text-anchor="start" x="470.5" y="-127.8" font-family="Helvetica,sans-Serif" font-size="11.00" fill="#000000">prison_code</text>
<polygon fill="none" stroke="#000000" points="658.5,-120.7 658.5,-142.7 757.5,-142.7 757.5,-120.7 658.5,-120.7"/>
<text text-anchor="start" x="661.5" y="-128.4" font-family="Helvetica,sans-Serif" font-size="11.00" fill="#000000">varchar[6]</text>
<polygon fill="#ffffff" stroke="transparent" points="450.5,-98.7 450.5,-120.7 658.5,-120.7 658.5,-98.7 450.5,-98.7"/>
<polygon fill="none" stroke="#000000" points="450.5,-98.7 450.5,-120.7 658.5,-120.7 658.5,-98.7 450.5,-98.7"/>
<text text-anchor="start" x="470.5" y="-105.8" font-family="Helvetica,sans-Serif" font-size="11.00" fill="#000000">legacy_id</text>
<polygon fill="none" stroke="#000000" points="658.5,-98.7 658.5,-120.7 757.5,-120.7 757.5,-98.7 658.5,-98.7"/>
<text text-anchor="start" x="661.5" y="-106.4" font-family="Helvetica,sans-Serif" font-size="11.00" fill="#000000">varchar[32]</text>
<polygon fill="#ffffff" stroke="transparent" points="450.5,-79.7 450.5,-98.7 558.5,-98.7 558.5,-79.7 450.5,-79.7"/>
<polygon fill="none" stroke="#000000" points="450.5,-79.7 450.5,-98.7 558.5,-98.7 558.5,-79.7 450.5,-79.7"/>
<text text-anchor="start" x="453.5" y="-85.8" font-family="Helvetica,sans-Serif" font-size="11.00" fill="#000000">&lt; 4</text>
<polygon fill="#ffffff" stroke="transparent" points="558.5,-79.7 558.5,-98.7 658.5,-98.7 658.5,-79.7 558.5,-79.7"/>
<polygon fill="none" stroke="#000000" points="558.5,-79.7 558.5,-98.7 658.5,-98.7 658.5,-79.7 558.5,-79.7"/>
<text text-anchor="start" x="649.3862" y="-85.8" font-family="Helvetica,sans-Serif" font-size="11.00" fill="#000000"> &#160;</text>
<polygon fill="#ffffff" stroke="transparent" points="658.5,-79.7 658.5,-98.7 757.5,-98.7 757.5,-79.7 658.5,-79.7"/>
<polygon fill="none" stroke="#000000" points="658.5,-79.7 658.5,-98.7 757.5,-98.7 757.5,-79.7 658.5,-79.7"/>
<text text-anchor="start" x="738.9053" y="-85.8" font-family="Helvetica,sans-Serif" font-size="11.00" fill="#000000">0 &gt;</text>
<polygon fill="none" stroke="#000000" stroke-width="2" points="449,-78.7 449,-408.7 758,-408.7 758,-78.7 449,-78.7"/>
</a>
</g>
</g>
<!-- movement&#45;&gt;absence_reason -->
<g id="edge8" class="edge">
<title>movement:w&#45;&gt;absence_reason:e</title>
<path fill="none" stroke="#000000" d="M436.0835,-241.6731C352.4457,-241.3669 259.6548,-238.5014 195.2369,-236.0897"/>
<polygon fill="#000000" stroke="#000000" points="442.5,-241.685 450.4933,-245.3 446.5,-241.6925 450.5,-241.7 450.5,-241.7 450.5,-241.7 446.5,-241.6925 450.5067,-238.1 442.5,-241.685 442.5,-241.685"/>
<ellipse fill="none" stroke="#000000" cx="439.3" cy="-241.6791" rx="3.2" ry="3.2"/>
</g>
<!-- movement&#45;&gt;accompanied_by -->
<g id="edge9" class="edge">
<title>movement:w&#45;&gt;accompanied_by:e</title>
<path fill="none" stroke="#000000" d="M436.0073,-219.4995C352.0456,-217.2134 260.8694,-195.8107 197.0411,-177.476"/>
<polygon fill="#000000" stroke="#000000" points="442.5008,-219.5893 450.4502,-223.2997 446.5004,-219.6446 450.5,-219.7 450.5,-219.7 450.5,-219.7 446.5004,-219.6446 450.5498,-216.1003 442.5008,-219.5893 442.5008,-219.5893"/>
<ellipse fill="none" stroke="#000000" cx="439.3011" cy="-219.545" rx="3.2" ry="3.2"/>
</g>
<!-- movement&#45;&gt;public.person_summary -->
<g id="edge11" class="edge">
<title>movement:w&#45;&gt;public.person_summary:e</title>
<path fill="none" stroke="#000000" d="M436.1306,-332.0918C406.4368,-344.2381 433.1355,-399.9854 407,-437.7 345.5432,-526.3845 320.3516,-545.9052 228,-601.7 224.3095,-603.9296 220.4791,-606.0651 216.5547,-608.1071"/>
<polygon fill="#000000" stroke="#000000" points="442.6086,-331.0136 451.0911,-333.2511 446.5543,-330.3568 450.5,-329.7 450.5,-329.7 450.5,-329.7 446.5543,-330.3568 449.9089,-326.1489 442.6086,-331.0136 442.6086,-331.0136"/>
<ellipse fill="none" stroke="#000000" cx="439.452" cy="-331.5391" rx="3.2" ry="3.2"/>
</g>
<!-- occurrence -->
<g id="node10" class="node">
<title>occurrence</title>
<g id="a_node10"><a xlink:href="../../tables/occurrence.html" xlink:title="occurrence" target="_top">
<polygon fill="#ffffff" stroke="transparent" points="277.5,-281.2 277.5,-342.2 390.5,-342.2 390.5,-281.2 277.5,-281.2"/>
<polygon fill="#f5f5f5" stroke="transparent" points="278,-318.7 278,-341.7 391,-341.7 391,-318.7 278,-318.7"/>
<polygon fill="none" stroke="#000000" points="278,-318.7 278,-341.7 391,-341.7 391,-318.7 278,-318.7"/>
<text text-anchor="start" x="283" y="-327.3" font-family="Helvetica,sans-Serif" font-weight="bold" font-size="11.00" fill="#000000">occurrence</text>
<text text-anchor="start" x="356.5219" y="-326.8" font-family="Helvetica,sans-Serif" font-size="11.00" fill="#000000">[table]</text>
<polygon fill="none" stroke="#000000" points="278,-299.7 278,-318.7 391,-318.7 391,-299.7 278,-299.7"/>
<text text-anchor="start" x="281" y="-305.8" font-family="Helvetica,sans-Serif" font-size="11.00" fill="#000000">...</text>
<polygon fill="#ffffff" stroke="transparent" points="278,-280.7 278,-299.7 328,-299.7 328,-280.7 278,-280.7"/>
<polygon fill="none" stroke="#000000" points="278,-280.7 278,-299.7 328,-299.7 328,-280.7 278,-280.7"/>
<text text-anchor="start" x="281" y="-286.8" font-family="Helvetica,sans-Serif" font-size="11.00" fill="#000000">&lt; 8</text>
<polygon fill="#ffffff" stroke="transparent" points="328,-280.7 328,-299.7 355,-299.7 355,-280.7 328,-280.7"/>
<polygon fill="none" stroke="#000000" points="328,-280.7 328,-299.7 355,-299.7 355,-280.7 328,-280.7"/>
<text text-anchor="start" x="345.8862" y="-286.8" font-family="Helvetica,sans-Serif" font-size="11.00" fill="#000000"> &#160;</text>
<polygon fill="#ffffff" stroke="transparent" points="355,-280.7 355,-299.7 391,-299.7 391,-280.7 355,-280.7"/>
<polygon fill="none" stroke="#000000" points="355,-280.7 355,-299.7 391,-299.7 391,-280.7 355,-280.7"/>
<text text-anchor="start" x="372.4053" y="-286.8" font-family="Helvetica,sans-Serif" font-size="11.00" fill="#000000">1 &gt;</text>
</a>
</g>
</g>
<!-- movement&#45;&gt;occurrence -->
<g id="edge10" class="edge">
<title>movement:w&#45;&gt;occurrence:e</title>
<path fill="none" stroke="#000000" d="M436.0648,-307.7937C423.5946,-307.9482 410.8089,-308.2803 398.6894,-308.6888"/>
<polygon fill="#000000" stroke="#000000" points="442.5002,-307.752 450.5234,-311.2999 446.5001,-307.726 450.5,-307.7 450.5,-307.7 450.5,-307.7 446.5001,-307.726 450.4766,-304.1001 442.5002,-307.752 442.5002,-307.752"/>
<ellipse fill="none" stroke="#000000" cx="439.3002" cy="-307.7728" rx="3.2" ry="3.2"/>
</g>
<!-- occurrence&#45;&gt;absence_reason_category -->
<g id="edge12" class="edge">
<title>occurrence:w&#45;&gt;absence_reason_category:e</title>
<path fill="none" stroke="#000000" d="M254.8599,-311.7C243.1709,-311.7 231.272,-311.7 220,-311.7"/>
<polygon fill="#000000" stroke="#000000" points="261.4906,-311.7001 269.4907,-315.3 265.4906,-311.7 269.4906,-311.7 269.4906,-311.7 269.4906,-311.7 265.4906,-311.7 269.4906,-308.1 261.4906,-311.7001 261.4906,-311.7001"/>
<ellipse fill="none" stroke="#000000" cx="258.2906" cy="-311.7001" rx="3.2" ry="3.2"/>
</g>
<!-- occurrence&#45;&gt;absence_reason -->
<g id="edge13" class="edge">
<title>occurrence:w&#45;&gt;absence_reason:e</title>
<path fill="none" stroke="#000000" d="M255.8331,-283.631C236.2149,-276.5863 215.1185,-269.0107 195.3491,-261.9117"/>
<polygon fill="#000000" stroke="#000000" points="261.95,-285.8275 268.2626,-291.9194 265.7146,-287.1793 269.4792,-288.5312 269.4792,-288.5312 269.4792,-288.5312 265.7146,-287.1793 270.6959,-285.143 261.95,-285.8275 261.95,-285.8275"/>
<ellipse fill="none" stroke="#000000" cx="258.9383" cy="-284.746" rx="3.2" ry="3.2"/>
</g>
<!-- occurrence&#45;&gt;absence_sub_type -->
<g id="edge14" class="edge">
<title>occurrence:w&#45;&gt;absence_sub_type:e</title>
<path fill="none" stroke="#000000" d="M261.6675,-358.0689C213.855,-444.1174 285.1133,-557.7 195,-557.7"/>
<polygon fill="#000000" stroke="#000000" points="265.1357,-352.6098 272.4643,-347.7878 267.2807,-349.2336 269.4257,-345.8573 269.4257,-345.8573 269.4257,-345.8573 267.2807,-349.2336 266.387,-343.9268 265.1357,-352.6098 265.1357,-352.6098"/>
<ellipse fill="none" stroke="#000000" cx="263.4197" cy="-355.3108" rx="3.2" ry="3.2"/>
</g>
<!-- occurrence&#45;&gt;absence_type -->
<g id="edge15" class="edge">
<title>occurrence:w&#45;&gt;absence_type:e</title>
<path fill="none" stroke="#000000" d="M261.0812,-357.822C238.3684,-389.9091 249.1313,-409.4297 228,-437.7 211.7097,-459.4938 207.2093,-475.7 180,-475.7"/>
<polygon fill="#000000" stroke="#000000" points="265.1757,-352.6841 272.9769,-348.6715 267.6686,-349.556 270.1616,-346.4278 270.1616,-346.4278 270.1616,-346.4278 267.6686,-349.556 267.3462,-344.1842 265.1757,-352.6841 265.1757,-352.6841"/>
<ellipse fill="none" stroke="#000000" cx="263.1814" cy="-355.1867" rx="3.2" ry="3.2"/>
</g>
<!-- occurrence&#45;&gt;accompanied_by -->
<g id="edge16" class="edge">
<title>occurrence:w&#45;&gt;accompanied_by:e</title>
<path fill="none" stroke="#000000" d="M302.132,-265.4495C283.0699,-240.6978 256.9575,-211.3521 228,-191.7 218.5151,-185.2631 207.902,-179.7086 197.0708,-174.9527"/>
<polygon fill="#000000" stroke="#000000" points="306.1107,-270.7644 308.023,-279.3262 308.5078,-273.9666 310.905,-277.1688 310.905,-277.1688 310.905,-277.1688 308.5078,-273.9666 313.7869,-275.0114 306.1107,-270.7644 306.1107,-270.7644"/>
<ellipse fill="none" stroke="#000000" cx="304.193" cy="-268.2027" rx="3.2" ry="3.2"/>
</g>
<!-- occurrence&#45;&gt;public.person_summary -->
<g id="edge17" class="edge">
<title>occurrence:w&#45;&gt;public.person_summary:e</title>
<path fill="none" stroke="#000000" d="M261.7919,-357.8015C208.1321,-453.5259 294.4737,-519.4055 228,-601.7 226.0176,-604.1543 223.876,-606.4617 221.6009,-608.631"/>
<polygon fill="#000000" stroke="#000000" points="265.2695,-352.1614 272.5325,-347.2411 267.3688,-348.7565 269.4682,-345.3517 269.4682,-345.3517 269.4682,-345.3517 267.3688,-348.7565 266.4038,-343.4623 265.2695,-352.1614 265.2695,-352.1614"/>
<ellipse fill="none" stroke="#000000" cx="263.59" cy="-354.8852" rx="3.2" ry="3.2"/>
</g>
<!-- occurrence&#45;&gt;transport -->
<g id="edge19" class="edge">
<title>occurrence:w&#45;&gt;transport:e</title>
<path fill="none" stroke="#000000" d="M263.9159,-353.3841C227.1841,-373.6535 185.6393,-393.7 165,-393.7"/>
<polygon fill="#000000" stroke="#000000" points="269.6869,-350.1493 278.4257,-349.3781 273.1762,-348.1935 276.6655,-346.2377 276.6655,-346.2377 276.6655,-346.2377 273.1762,-348.1935 274.9052,-343.0974 269.6869,-350.1493 269.6869,-350.1493"/>
<ellipse fill="none" stroke="#000000" cx="266.8955" cy="-351.714" rx="3.2" ry="3.2"/>
</g>
<!-- occurrence_status -->
<g id="node11" class="node">
<title>occurrence_status</title>
<g id="a_node11"><a xlink:href="../../tables/occurrence_status.html" xlink:title="occurrence_status" target="_top">
<polygon fill="#ffffff" stroke="transparent" points="33,-38.2 33,-99.2 195,-99.2 195,-38.2 33,-38.2"/>
<polygon fill="#f5f5f5" stroke="transparent" points="33,-75.7 33,-98.7 195,-98.7 195,-75.7 33,-75.7"/>
<polygon fill="none" stroke="#000000" points="33,-75.7 33,-98.7 195,-98.7 195,-75.7 33,-75.7"/>
<text text-anchor="start" x="38" y="-84.3" font-family="Helvetica,sans-Serif" font-weight="bold" font-size="11.00" fill="#000000">occurrence_status</text>
<text text-anchor="start" x="160.5219" y="-83.8" font-family="Helvetica,sans-Serif" font-size="11.00" fill="#000000">[table]</text>
<polygon fill="none" stroke="#000000" points="33,-56.7 33,-75.7 195,-75.7 195,-56.7 33,-56.7"/>
<text text-anchor="start" x="36" y="-62.8" font-family="Helvetica,sans-Serif" font-size="11.00" fill="#000000">...</text>
<polygon fill="#ffffff" stroke="transparent" points="33,-37.7 33,-56.7 103,-56.7 103,-37.7 33,-37.7"/>
<polygon fill="none" stroke="#000000" points="33,-37.7 33,-56.7 103,-56.7 103,-37.7 33,-37.7"/>
<text text-anchor="start" x="36" y="-43.8" font-family="Helvetica,sans-Serif" font-size="11.00" fill="#000000"> &#160;</text>
<polygon fill="#ffffff" stroke="transparent" points="103,-37.7 103,-56.7 144,-56.7 144,-37.7 103,-37.7"/>
<polygon fill="none" stroke="#000000" points="103,-37.7 103,-56.7 144,-56.7 144,-37.7 103,-37.7"/>
<text text-anchor="start" x="134.8862" y="-43.8" font-family="Helvetica,sans-Serif" font-size="11.00" fill="#000000"> &#160;</text>
<polygon fill="#ffffff" stroke="transparent" points="144,-37.7 144,-56.7 195,-56.7 195,-37.7 144,-37.7"/>
<polygon fill="none" stroke="#000000" points="144,-37.7 144,-56.7 195,-56.7 195,-37.7 144,-37.7"/>
<text text-anchor="start" x="176.4053" y="-43.8" font-family="Helvetica,sans-Serif" font-size="11.00" fill="#000000">1 &gt;</text>
</a>
</g>
</g>
<!-- occurrence&#45;&gt;occurrence_status -->
<g id="edge18" class="edge">
<title>occurrence:w&#45;&gt;occurrence_status:e</title>
<path fill="none" stroke="#000000" d="M328.3476,-262.5302C317.0546,-190.7445 284.5332,-65.7 195,-65.7"/>
<polygon fill="#000000" stroke="#000000" points="329.2969,-269.0592 326.8856,-277.494 329.8725,-273.0176 330.4481,-276.976 330.4481,-276.976 330.4481,-276.976 329.8725,-273.0176 334.0107,-276.4579 329.2969,-269.0592 329.2969,-269.0592"/>
<ellipse fill="none" stroke="#000000" cx="328.8365" cy="-265.8925" rx="3.2" ry="3.2"/>
</g>
</g>
</svg>
