<?xml version="1.0" encoding="UTF-8" standalone="no"?>
<!DOCTYPE svg PUBLIC "-//W3C//DTD SVG 1.1//EN"
 "http://www.w3.org/Graphics/SVG/1.1/DTD/svg11.dtd">
<!-- Generated by graphviz version 2.40.1 (20161225.0304)
 -->
<!-- Title: oneDegreeRelationshipsDiagram Pages: 1 -->
<svg width="845pt" height="593pt"
 viewBox="0.00 0.00 845.00 592.74" xmlns="http://www.w3.org/2000/svg" xmlns:xlink="http://www.w3.org/1999/xlink">
<g id="graph0" class="graph" transform="scale(1 1) rotate(0) translate(4 588.7442)">
<title>oneDegreeRelationshipsDiagram</title>
<polygon fill="#ffffff" stroke="transparent" points="-4,4 -4,-588.7442 841,-588.7442 841,4 -4,4"/>
<text text-anchor="middle" x="72.4936" y="-7.3" font-family="Helvetica,sans-Serif" font-size="11.00" fill="#000000">Generated by SchemaSpy</text>
<!-- movement -->
<g id="node1" class="node">
<title>movement</title>
<g id="a_node1"><a xlink:href="../../tables/movement.html" xlink:title="movement" target="_top">
<polygon fill="#ffffff" stroke="transparent" points="518,-123.7 518,-455.7 829,-455.7 829,-123.7 518,-123.7"/>
<polygon fill="#f5f5f5" stroke="transparent" points="520.5,-430.7 520.5,-453.7 827.5,-453.7 827.5,-430.7 520.5,-430.7"/>
<polygon fill="none" stroke="#000000" points="520.5,-430.7 520.5,-453.7 827.5,-453.7 827.5,-430.7 520.5,-430.7"/>
<text text-anchor="start" x="525.5" y="-439.3" font-family="Helvetica,sans-Serif" font-weight="bold" font-size="11.00" fill="#000000">movement</text>
<text text-anchor="start" x="792.5437" y="-438.8" font-family="Helvetica,sans-Serif" font-size="11.00" fill="#000000">[table]</text>
<polygon fill="none" stroke="#000000" points="520.5,-408.7 520.5,-430.7 728.5,-430.7 728.5,-408.7 520.5,-408.7"/>
<image xlink:href="../../images/primaryKeys.png" width="11px" height="12px" preserveAspectRatio="xMinYMin meet" x="525.5" y="-425.7"/>
<text text-anchor="start" x="540.5" y="-415.8" font-family="Helvetica,sans-Serif" font-size="11.00" fill="#000000">id</text>
<polygon fill="none" stroke="#000000" points="728.5,-408.7 728.5,-430.7 827.5,-430.7 827.5,-408.7 728.5,-408.7"/>
<text text-anchor="start" x="731.5" y="-416.4" font-family="Helvetica,sans-Serif" font-size="11.00" fill="#000000">uuid[2147483647]</text>
<polygon fill="none" stroke="#000000" points="520.5,-386.7 520.5,-408.7 728.5,-408.7 728.5,-386.7 520.5,-386.7"/>
<text text-anchor="start" x="540.5" y="-393.8" font-family="Helvetica,sans-Serif" font-size="11.00" fill="#000000">version</text>
<polygon fill="none" stroke="#000000" points="728.5,-386.7 728.5,-408.7 827.5,-408.7 827.5,-386.7 728.5,-386.7"/>
<text text-anchor="start" x="731.5" y="-394.4" font-family="Helvetica,sans-Serif" font-size="11.00" fill="#000000">int4[10]</text>
<polygon fill="#ffffff" stroke="transparent" points="520.5,-364.7 520.5,-386.7 728.5,-386.7 728.5,-364.7 520.5,-364.7"/>
<polygon fill="none" stroke="#000000" points="520.5,-364.7 520.5,-386.7 728.5,-386.7 728.5,-364.7 520.5,-364.7"/>
<image xlink:href="../../images/foreignKeys.png" width="11px" height="12px" preserveAspectRatio="xMinYMin meet" x="525.5" y="-381.7"/>
<text text-anchor="start" x="540.5" y="-371.8" font-family="Helvetica,sans-Serif" font-size="11.00" fill="#000000">person_identifier</text>
<polygon fill="none" stroke="#000000" points="728.5,-364.7 728.5,-386.7 827.5,-386.7 827.5,-364.7 728.5,-364.7"/>
<text text-anchor="start" x="731.5" y="-372.4" font-family="Helvetica,sans-Serif" font-size="11.00" fill="#000000">varchar[10]</text>
<polygon fill="#ffffff" stroke="transparent" points="520.5,-342.7 520.5,-364.7 728.5,-364.7 728.5,-342.7 520.5,-342.7"/>
<polygon fill="none" stroke="#000000" points="520.5,-342.7 520.5,-364.7 728.5,-364.7 728.5,-342.7 520.5,-342.7"/>
<image xlink:href="../../images/foreignKeys.png" width="11px" height="12px" preserveAspectRatio="xMinYMin meet" x="525.5" y="-359.7"/>
<text text-anchor="start" x="540.5" y="-349.8" font-family="Helvetica,sans-Serif" font-size="11.00" fill="#000000">occurrence_id</text>
<polygon fill="none" stroke="#000000" points="728.5,-342.7 728.5,-364.7 827.5,-364.7 827.5,-342.7 728.5,-342.7"/>
<text text-anchor="start" x="731.5" y="-350.4" font-family="Helvetica,sans-Serif" font-size="11.00" fill="#000000">uuid[2147483647]</text>
<polygon fill="#ffffff" stroke="transparent" points="520.5,-320.7 520.5,-342.7 728.5,-342.7 728.5,-320.7 520.5,-320.7"/>
<polygon fill="none" stroke="#000000" points="520.5,-320.7 520.5,-342.7 728.5,-342.7 728.5,-320.7 520.5,-320.7"/>
<text text-anchor="start" x="540.5" y="-327.8" font-family="Helvetica,sans-Serif" font-size="11.00" fill="#000000">occurred_at</text>
<polygon fill="none" stroke="#000000" points="728.5,-320.7 728.5,-342.7 827.5,-342.7 827.5,-320.7 728.5,-320.7"/>
<text text-anchor="start" x="731.5" y="-328.4" font-family="Helvetica,sans-Serif" font-size="11.00" fill="#000000">timestamp[29,6]</text>
<polygon fill="none" stroke="#000000" points="520.5,-298.7 520.5,-320.7 728.5,-320.7 728.5,-298.7 520.5,-298.7"/>
<text text-anchor="start" x="540.5" y="-305.8" font-family="Helvetica,sans-Serif" font-size="11.00" fill="#000000">direction</text>
<polygon fill="none" stroke="#000000" points="728.5,-298.7 728.5,-320.7 827.5,-320.7 827.5,-298.7 728.5,-298.7"/>
<text text-anchor="start" x="731.5" y="-306.4" font-family="Helvetica,sans-Serif" font-size="11.00" fill="#000000">varchar[3]</text>
<polygon fill="none" stroke="#000000" points="520.5,-276.7 520.5,-298.7 728.5,-298.7 728.5,-276.7 520.5,-276.7"/>
<image xlink:href="../../images/foreignKeys.png" width="11px" height="12px" preserveAspectRatio="xMinYMin meet" x="525.5" y="-293.7"/>
<text text-anchor="start" x="540.5" y="-283.8" font-family="Helvetica,sans-Serif" font-size="11.00" fill="#000000">absence_reason_id</text>
<polygon fill="none" stroke="#000000" points="728.5,-276.7 728.5,-298.7 827.5,-298.7 827.5,-276.7 728.5,-276.7"/>
<text text-anchor="start" x="731.5" y="-284.4" font-family="Helvetica,sans-Serif" font-size="11.00" fill="#000000">uuid[2147483647]</text>
<polygon fill="none" stroke="#000000" points="520.5,-254.7 520.5,-276.7 728.5,-276.7 728.5,-254.7 520.5,-254.7"/>
<image xlink:href="../../images/foreignKeys.png" width="11px" height="12px" preserveAspectRatio="xMinYMin meet" x="525.5" y="-271.7"/>
<text text-anchor="start" x="540.5" y="-261.8" font-family="Helvetica,sans-Serif" font-size="11.00" fill="#000000">accompanied_by_id</text>
<polygon fill="none" stroke="#000000" points="728.5,-254.7 728.5,-276.7 827.5,-276.7 827.5,-254.7 728.5,-254.7"/>
<text text-anchor="start" x="731.5" y="-262.4" font-family="Helvetica,sans-Serif" font-size="11.00" fill="#000000">uuid[2147483647]</text>
<polygon fill="none" stroke="#000000" points="520.5,-232.7 520.5,-254.7 728.5,-254.7 728.5,-232.7 520.5,-232.7"/>
<text text-anchor="start" x="540.5" y="-239.8" font-family="Helvetica,sans-Serif" font-size="11.00" fill="#000000">accompanied_by_comments</text>
<polygon fill="none" stroke="#000000" points="728.5,-232.7 728.5,-254.7 827.5,-254.7 827.5,-232.7 728.5,-232.7"/>
<text text-anchor="start" x="731.5" y="-240.4" font-family="Helvetica,sans-Serif" font-size="11.00" fill="#000000">text[2147483647]</text>
<polygon fill="none" stroke="#000000" points="520.5,-210.7 520.5,-232.7 728.5,-232.7 728.5,-210.7 520.5,-210.7"/>
<text text-anchor="start" x="540.5" y="-217.8" font-family="Helvetica,sans-Serif" font-size="11.00" fill="#000000">location</text>
<polygon fill="none" stroke="#000000" points="728.5,-210.7 728.5,-232.7 827.5,-232.7 827.5,-210.7 728.5,-210.7"/>
<text text-anchor="start" x="731.2258" y="-218.4" font-family="Helvetica,sans-Serif" font-size="11.00" fill="#000000">jsonb[2147483647]</text>
<polygon fill="none" stroke="#000000" points="520.5,-188.7 520.5,-210.7 728.5,-210.7 728.5,-188.7 520.5,-188.7"/>
<text text-anchor="start" x="540.5" y="-195.8" font-family="Helvetica,sans-Serif" font-size="11.00" fill="#000000">comments</text>
<polygon fill="none" stroke="#000000" points="728.5,-188.7 728.5,-210.7 827.5,-210.7 827.5,-188.7 728.5,-188.7"/>
<text text-anchor="start" x="731.5" y="-196.4" font-family="Helvetica,sans-Serif" font-size="11.00" fill="#000000">text[2147483647]</text>
<polygon fill="none" stroke="#000000" points="520.5,-166.7 520.5,-188.7 728.5,-188.7 728.5,-166.7 520.5,-166.7"/>
<text text-anchor="start" x="540.5" y="-173.8" font-family="Helvetica,sans-Serif" font-size="11.00" fill="#000000">prison_code</text>
<polygon fill="none" stroke="#000000" points="728.5,-166.7 728.5,-188.7 827.5,-188.7 827.5,-166.7 728.5,-166.7"/>
<text text-anchor="start" x="731.5" y="-174.4" font-family="Helvetica,sans-Serif" font-size="11.00" fill="#000000">varchar[6]</text>
<polygon fill="#ffffff" stroke="transparent" points="520.5,-144.7 520.5,-166.7 728.5,-166.7 728.5,-144.7 520.5,-144.7"/>
<polygon fill="none" stroke="#000000" points="520.5,-144.7 520.5,-166.7 728.5,-166.7 728.5,-144.7 520.5,-144.7"/>
<text text-anchor="start" x="540.5" y="-151.8" font-family="Helvetica,sans-Serif" font-size="11.00" fill="#000000">legacy_id</text>
<polygon fill="none" stroke="#000000" points="728.5,-144.7 728.5,-166.7 827.5,-166.7 827.5,-144.7 728.5,-144.7"/>
<text text-anchor="start" x="731.5" y="-152.4" font-family="Helvetica,sans-Serif" font-size="11.00" fill="#000000">varchar[32]</text>
<polygon fill="#ffffff" stroke="transparent" points="520.5,-125.7 520.5,-144.7 628.5,-144.7 628.5,-125.7 520.5,-125.7"/>
<polygon fill="none" stroke="#000000" points="520.5,-125.7 520.5,-144.7 628.5,-144.7 628.5,-125.7 520.5,-125.7"/>
<text text-anchor="start" x="523.5" y="-131.8" font-family="Helvetica,sans-Serif" font-size="11.00" fill="#000000">&lt; 4</text>
<polygon fill="#ffffff" stroke="transparent" points="628.5,-125.7 628.5,-144.7 728.5,-144.7 728.5,-125.7 628.5,-125.7"/>
<polygon fill="none" stroke="#000000" points="628.5,-125.7 628.5,-144.7 728.5,-144.7 728.5,-125.7 628.5,-125.7"/>
<text text-anchor="start" x="719.3862" y="-131.8" font-family="Helvetica,sans-Serif" font-size="11.00" fill="#000000"> &#160;</text>
<polygon fill="#ffffff" stroke="transparent" points="728.5,-125.7 728.5,-144.7 827.5,-144.7 827.5,-125.7 728.5,-125.7"/>
<polygon fill="none" stroke="#000000" points="728.5,-125.7 728.5,-144.7 827.5,-144.7 827.5,-125.7 728.5,-125.7"/>
<text text-anchor="start" x="808.9053" y="-131.8" font-family="Helvetica,sans-Serif" font-size="11.00" fill="#000000">0 &gt;</text>
<polygon fill="none" stroke="#000000" stroke-width="2" points="519,-124.7 519,-454.7 828,-454.7 828,-124.7 519,-124.7"/>
</a>
</g>
</g>
<!-- absence_reason -->
<g id="node2" class="node">
<title>absence_reason</title>
<g id="a_node2"><a xlink:href="../../tables/absence_reason.html" xlink:title="absence_reason" target="_top">
<polygon fill="#ffffff" stroke="transparent" points="34.5,-201.2 34.5,-328.2 180.5,-328.2 180.5,-201.2 34.5,-201.2"/>
<polygon fill="#f5f5f5" stroke="transparent" points="34.5,-304.7 34.5,-327.7 180.5,-327.7 180.5,-304.7 34.5,-304.7"/>
<polygon fill="none" stroke="#000000" points="34.5,-304.7 34.5,-327.7 180.5,-327.7 180.5,-304.7 34.5,-304.7"/>
<text text-anchor="start" x="39.5" y="-313.3" font-family="Helvetica,sans-Serif" font-weight="bold" font-size="11.00" fill="#000000">absence_reason</text>
<text text-anchor="start" x="146.0219" y="-312.8" font-family="Helvetica,sans-Serif" font-size="11.00" fill="#000000">[table]</text>
<polygon fill="none" stroke="#000000" points="34.5,-282.7 34.5,-304.7 180.5,-304.7 180.5,-282.7 34.5,-282.7"/>
<image xlink:href="../../images/primaryKeys.png" width="11px" height="12px" preserveAspectRatio="xMinYMin meet" x="39.5" y="-299.7"/>
<text text-anchor="start" x="56.5" y="-289.8" font-family="Helvetica,sans-Serif" font-size="11.00" fill="#000000">id</text>
<polygon fill="#ffffff" stroke="transparent" points="34.5,-260.7 34.5,-282.7 180.5,-282.7 180.5,-260.7 34.5,-260.7"/>
<polygon fill="none" stroke="#000000" points="34.5,-260.7 34.5,-282.7 180.5,-282.7 180.5,-260.7 34.5,-260.7"/>
<text text-anchor="start" x="56.5" y="-267.8" font-family="Helvetica,sans-Serif" font-size="11.00" fill="#000000">code</text>
<polygon fill="#ffffff" stroke="transparent" points="34.5,-238.7 34.5,-260.7 180.5,-260.7 180.5,-238.7 34.5,-238.7"/>
<polygon fill="none" stroke="#000000" points="34.5,-238.7 34.5,-260.7 180.5,-260.7 180.5,-238.7 34.5,-238.7"/>
<text text-anchor="start" x="56.5" y="-245.8" font-family="Helvetica,sans-Serif" font-size="11.00" fill="#000000">sequence_number</text>
<polygon fill="none" stroke="#000000" points="34.5,-219.7 34.5,-238.7 180.5,-238.7 180.5,-219.7 34.5,-219.7"/>
<text text-anchor="start" x="37.5" y="-225.8" font-family="Helvetica,sans-Serif" font-size="11.00" fill="#000000">...</text>
<polygon fill="#ffffff" stroke="transparent" points="34.5,-200.7 34.5,-219.7 80.5,-219.7 80.5,-200.7 34.5,-200.7"/>
<polygon fill="none" stroke="#000000" points="34.5,-200.7 34.5,-219.7 80.5,-219.7 80.5,-200.7 34.5,-200.7"/>
<text text-anchor="start" x="37.5" y="-206.8" font-family="Helvetica,sans-Serif" font-size="11.00" fill="#000000"> &#160;</text>
<polygon fill="#ffffff" stroke="transparent" points="80.5,-200.7 80.5,-219.7 141.5,-219.7 141.5,-200.7 80.5,-200.7"/>
<polygon fill="none" stroke="#000000" points="80.5,-200.7 80.5,-219.7 141.5,-219.7 141.5,-200.7 80.5,-200.7"/>
<text text-anchor="start" x="99.9956" y="-206.8" font-family="Helvetica,sans-Serif" font-size="11.00" fill="#000000">98 rows</text>
<polygon fill="#ffffff" stroke="transparent" points="141.5,-200.7 141.5,-219.7 180.5,-219.7 180.5,-200.7 141.5,-200.7"/>
<polygon fill="none" stroke="#000000" points="141.5,-200.7 141.5,-219.7 180.5,-219.7 180.5,-200.7 141.5,-200.7"/>
<text text-anchor="start" x="161.9053" y="-206.8" font-family="Helvetica,sans-Serif" font-size="11.00" fill="#000000">3 &gt;</text>
</a>
</g>
</g>
<!-- movement&#45;&gt;absence_reason -->
<g id="edge1" class="edge">
<title>movement:w&#45;&gt;absence_reason:e</title>
<path fill="none" stroke="#000000" d="M505.8938,-285.1039C470.9445,-269.558 522.1613,-188.3677 477,-155.7 435.7676,-125.8743 291.1714,-128.7574 248,-155.7 190.0772,-191.8487 248.7772,-293.7 180.5,-293.7"/>
<polygon fill="#000000" stroke="#000000" points="512.6234,-286.3 519.87,-291.2445 516.5617,-287 520.5,-287.7 520.5,-287.7 520.5,-287.7 516.5617,-287 521.13,-284.1555 512.6234,-286.3 512.6234,-286.3"/>
<ellipse fill="none" stroke="#000000" cx="509.4728" cy="-285.74" rx="3.2" ry="3.2"/>
</g>
<!-- accompanied_by -->
<g id="node3" class="node">
<title>accompanied_by</title>
<g id="a_node3"><a xlink:href="../../tables/accompanied_by.html" xlink:title="accompanied_by" target="_top">
<polygon fill="#ffffff" stroke="transparent" points="32.5,-38.2 32.5,-165.2 182.5,-165.2 182.5,-38.2 32.5,-38.2"/>
<polygon fill="#f5f5f5" stroke="transparent" points="32.5,-141.7 32.5,-164.7 182.5,-164.7 182.5,-141.7 32.5,-141.7"/>
<polygon fill="none" stroke="#000000" points="32.5,-141.7 32.5,-164.7 182.5,-164.7 182.5,-141.7 32.5,-141.7"/>
<text text-anchor="start" x="37.5" y="-150.3" font-family="Helvetica,sans-Serif" font-weight="bold" font-size="11.00" fill="#000000">accompanied_by</text>
<text text-anchor="start" x="148.0219" y="-149.8" font-family="Helvetica,sans-Serif" font-size="11.00" fill="#000000">[table]</text>
<polygon fill="none" stroke="#000000" points="32.5,-119.7 32.5,-141.7 182.5,-141.7 182.5,-119.7 32.5,-119.7"/>
<image xlink:href="../../images/primaryKeys.png" width="11px" height="12px" preserveAspectRatio="xMinYMin meet" x="37.5" y="-136.7"/>
<text text-anchor="start" x="56.5" y="-126.8" font-family="Helvetica,sans-Serif" font-size="11.00" fill="#000000">id</text>
<polygon fill="#ffffff" stroke="transparent" points="32.5,-97.7 32.5,-119.7 182.5,-119.7 182.5,-97.7 32.5,-97.7"/>
<polygon fill="none" stroke="#000000" points="32.5,-97.7 32.5,-119.7 182.5,-119.7 182.5,-97.7 32.5,-97.7"/>
<text text-anchor="start" x="56.5" y="-104.8" font-family="Helvetica,sans-Serif" font-size="11.00" fill="#000000">code</text>
<polygon fill="#ffffff" stroke="transparent" points="32.5,-75.7 32.5,-97.7 182.5,-97.7 182.5,-75.7 32.5,-75.7"/>
<polygon fill="none" stroke="#000000" points="32.5,-75.7 32.5,-97.7 182.5,-97.7 182.5,-75.7 32.5,-75.7"/>
<text text-anchor="start" x="56.5" y="-82.8" font-family="Helvetica,sans-Serif" font-size="11.00" fill="#000000">sequence_number</text>
<polygon fill="none" stroke="#000000" points="32.5,-56.7 32.5,-75.7 182.5,-75.7 182.5,-56.7 32.5,-56.7"/>
<text text-anchor="start" x="35.5" y="-62.8" font-family="Helvetica,sans-Serif" font-size="11.00" fill="#000000">...</text>
<polygon fill="#ffffff" stroke="transparent" points="32.5,-37.7 32.5,-56.7 96.5,-56.7 96.5,-37.7 32.5,-37.7"/>
<polygon fill="none" stroke="#000000" points="32.5,-37.7 32.5,-56.7 96.5,-56.7 96.5,-37.7 32.5,-37.7"/>
<text text-anchor="start" x="35.5" y="-43.8" font-family="Helvetica,sans-Serif" font-size="11.00" fill="#000000"> &#160;</text>
<polygon fill="#ffffff" stroke="transparent" points="96.5,-37.7 96.5,-56.7 134.5,-56.7 134.5,-37.7 96.5,-37.7"/>
<polygon fill="none" stroke="#000000" points="96.5,-37.7 96.5,-56.7 134.5,-56.7 134.5,-37.7 96.5,-37.7"/>
<text text-anchor="start" x="125.3862" y="-43.8" font-family="Helvetica,sans-Serif" font-size="11.00" fill="#000000"> &#160;</text>
<polygon fill="#ffffff" stroke="transparent" points="134.5,-37.7 134.5,-56.7 182.5,-56.7 182.5,-37.7 134.5,-37.7"/>
<polygon fill="none" stroke="#000000" points="134.5,-37.7 134.5,-56.7 182.5,-56.7 182.5,-37.7 134.5,-37.7"/>
<text text-anchor="start" x="163.9053" y="-43.8" font-family="Helvetica,sans-Serif" font-size="11.00" fill="#000000">3 &gt;</text>
</a>
</g>
</g>
<!-- movement&#45;&gt;accompanied_by -->
<g id="edge2" class="edge">
<title>movement:w&#45;&gt;accompanied_by:e</title>
<path fill="none" stroke="#000000" d="M506.1703,-263.2693C469.8972,-248.0223 522.8464,-165.1378 477,-131.7 371.249,-54.5713 313.3896,-130.7 182.5,-130.7"/>
<polygon fill="#000000" stroke="#000000" points="512.6127,-264.362 519.8979,-269.2493 516.5563,-265.031 520.5,-265.7 520.5,-265.7 520.5,-265.7 516.5563,-265.031 521.1021,-262.1507 512.6127,-264.362 512.6127,-264.362"/>
<ellipse fill="none" stroke="#000000" cx="509.4577" cy="-263.8269" rx="3.2" ry="3.2"/>
</g>
<!-- occurrence -->
<g id="node4" class="node">
<title>occurrence</title>
<g id="a_node4"><a xlink:href="../../tables/occurrence.html" xlink:title="occurrence" target="_top">
<polygon fill="#ffffff" stroke="transparent" points="256,-166.2 256,-535.2 469,-535.2 469,-166.2 256,-166.2"/>
<polygon fill="#f5f5f5" stroke="transparent" points="256.5,-511.7 256.5,-534.7 469.5,-534.7 469.5,-511.7 256.5,-511.7"/>
<polygon fill="none" stroke="#000000" points="256.5,-511.7 256.5,-534.7 469.5,-534.7 469.5,-511.7 256.5,-511.7"/>
<text text-anchor="start" x="261.5" y="-520.3" font-family="Helvetica,sans-Serif" font-weight="bold" font-size="11.00" fill="#000000">occurrence</text>
<text text-anchor="start" x="434.5437" y="-519.8" font-family="Helvetica,sans-Serif" font-size="11.00" fill="#000000">[table]</text>
<polygon fill="none" stroke="#000000" points="256.5,-489.7 256.5,-511.7 469.5,-511.7 469.5,-489.7 256.5,-489.7"/>
<image xlink:href="../../images/primaryKeys.png" width="11px" height="12px" preserveAspectRatio="xMinYMin meet" x="261.5" y="-506.7"/>
<text text-anchor="start" x="276.5" y="-496.8" font-family="Helvetica,sans-Serif" font-size="11.00" fill="#000000">id</text>
<polygon fill="#ffffff" stroke="transparent" points="256.5,-467.7 256.5,-489.7 469.5,-489.7 469.5,-467.7 256.5,-467.7"/>
<polygon fill="none" stroke="#000000" points="256.5,-467.7 256.5,-489.7 469.5,-489.7 469.5,-467.7 256.5,-467.7"/>
<image xlink:href="../../images/foreignKeys.png" width="11px" height="12px" preserveAspectRatio="xMinYMin meet" x="261.5" y="-484.7"/>
<text text-anchor="start" x="276.5" y="-474.8" font-family="Helvetica,sans-Serif" font-size="11.00" fill="#000000">person_identifier</text>
<polygon fill="#ffffff" stroke="transparent" points="256.5,-445.7 256.5,-467.7 469.5,-467.7 469.5,-445.7 256.5,-445.7"/>
<polygon fill="none" stroke="#000000" points="256.5,-445.7 256.5,-467.7 469.5,-467.7 469.5,-445.7 256.5,-445.7"/>
<text text-anchor="start" x="276.5" y="-452.8" font-family="Helvetica,sans-Serif" font-size="11.00" fill="#000000">prison_code</text>
<polygon fill="#ffffff" stroke="transparent" points="256.5,-423.7 256.5,-445.7 469.5,-445.7 469.5,-423.7 256.5,-423.7"/>
<polygon fill="none" stroke="#000000" points="256.5,-423.7 256.5,-445.7 469.5,-445.7 469.5,-423.7 256.5,-423.7"/>
<text text-anchor="start" x="276.5" y="-430.8" font-family="Helvetica,sans-Serif" font-size="11.00" fill="#000000">authorisation_id</text>
<polygon fill="#ffffff" stroke="transparent" points="256.5,-401.7 256.5,-423.7 469.5,-423.7 469.5,-401.7 256.5,-401.7"/>
<polygon fill="none" stroke="#000000" points="256.5,-401.7 256.5,-423.7 469.5,-423.7 469.5,-401.7 256.5,-401.7"/>
<image xlink:href="../../images/foreignKeys.png" width="11px" height="12px" preserveAspectRatio="xMinYMin meet" x="261.5" y="-418.7"/>
<text text-anchor="start" x="276.5" y="-408.8" font-family="Helvetica,sans-Serif" font-size="11.00" fill="#000000">status_id</text>
<polygon fill="none" stroke="#000000" points="256.5,-379.7 256.5,-401.7 469.5,-401.7 469.5,-379.7 256.5,-379.7"/>
<image xlink:href="../../images/foreignKeys.png" width="11px" height="12px" preserveAspectRatio="xMinYMin meet" x="261.5" y="-396.7"/>
<text text-anchor="start" x="276.5" y="-386.8" font-family="Helvetica,sans-Serif" font-size="11.00" fill="#000000">absence_type_id</text>
<polygon fill="none" stroke="#000000" points="256.5,-357.7 256.5,-379.7 469.5,-379.7 469.5,-357.7 256.5,-357.7"/>
<image xlink:href="../../images/foreignKeys.png" width="11px" height="12px" preserveAspectRatio="xMinYMin meet" x="261.5" y="-374.7"/>
<text text-anchor="start" x="276.5" y="-364.8" font-family="Helvetica,sans-Serif" font-size="11.00" fill="#000000">absence_sub_type_id</text>
<polygon fill="none" stroke="#000000" points="256.5,-335.7 256.5,-357.7 469.5,-357.7 469.5,-335.7 256.5,-335.7"/>
<image xlink:href="../../images/foreignKeys.png" width="11px" height="12px" preserveAspectRatio="xMinYMin meet" x="261.5" y="-352.7"/>
<text text-anchor="start" x="276.5" y="-342.8" font-family="Helvetica,sans-Serif" font-size="11.00" fill="#000000">absence_reason_category_id</text>
<polygon fill="none" stroke="#000000" points="256.5,-313.7 256.5,-335.7 469.5,-335.7 469.5,-313.7 256.5,-313.7"/>
<image xlink:href="../../images/foreignKeys.png" width="11px" height="12px" preserveAspectRatio="xMinYMin meet" x="261.5" y="-330.7"/>
<text text-anchor="start" x="276.5" y="-320.8" font-family="Helvetica,sans-Serif" font-size="11.00" fill="#000000">absence_reason_id</text>
<polygon fill="none" stroke="#000000" points="256.5,-291.7 256.5,-313.7 469.5,-313.7 469.5,-291.7 256.5,-291.7"/>
<image xlink:href="../../images/foreignKeys.png" width="11px" height="12px" preserveAspectRatio="xMinYMin meet" x="261.5" y="-308.7"/>
<text text-anchor="start" x="276.5" y="-298.8" font-family="Helvetica,sans-Serif" font-size="11.00" fill="#000000">accompanied_by_id</text>
<polygon fill="none" stroke="#000000" points="256.5,-269.7 256.5,-291.7 469.5,-291.7 469.5,-269.7 256.5,-269.7"/>
<image xlink:href="../../images/foreignKeys.png" width="11px" height="12px" preserveAspectRatio="xMinYMin meet" x="261.5" y="-286.7"/>
<text text-anchor="start" x="276.5" y="-276.8" font-family="Helvetica,sans-Serif" font-size="11.00" fill="#000000">transport_id</text>
<polygon fill="#ffffff" stroke="transparent" points="256.5,-247.7 256.5,-269.7 469.5,-269.7 469.5,-247.7 256.5,-247.7"/>
<polygon fill="none" stroke="#000000" points="256.5,-247.7 256.5,-269.7 469.5,-269.7 469.5,-247.7 256.5,-247.7"/>
<text text-anchor="start" x="276.5" y="-254.8" font-family="Helvetica,sans-Serif" font-size="11.00" fill="#000000">start</text>
<polygon fill="#ffffff" stroke="transparent" points="256.5,-225.7 256.5,-247.7 469.5,-247.7 469.5,-225.7 256.5,-225.7"/>
<polygon fill="none" stroke="#000000" points="256.5,-225.7 256.5,-247.7 469.5,-247.7 469.5,-225.7 256.5,-225.7"/>
<text text-anchor="start" x="276.5" y="-232.8" font-family="Helvetica,sans-Serif" font-size="11.00" fill="#000000">end</text>
<polygon fill="#ffffff" stroke="transparent" points="256.5,-203.7 256.5,-225.7 469.5,-225.7 469.5,-203.7 256.5,-203.7"/>
<polygon fill="none" stroke="#000000" points="256.5,-203.7 256.5,-225.7 469.5,-225.7 469.5,-203.7 256.5,-203.7"/>
<text text-anchor="start" x="276.5" y="-210.8" font-family="Helvetica,sans-Serif" font-size="11.00" fill="#000000">legacy_id</text>
<polygon fill="none" stroke="#000000" points="256.5,-184.7 256.5,-203.7 469.5,-203.7 469.5,-184.7 256.5,-184.7"/>
<text text-anchor="start" x="259.5" y="-190.8" font-family="Helvetica,sans-Serif" font-size="11.00" fill="#000000">...</text>
<polygon fill="#ffffff" stroke="transparent" points="256.5,-165.7 256.5,-184.7 356.5,-184.7 356.5,-165.7 256.5,-165.7"/>
<polygon fill="none" stroke="#000000" points="256.5,-165.7 256.5,-184.7 356.5,-184.7 356.5,-165.7 256.5,-165.7"/>
<text text-anchor="start" x="259.5" y="-171.8" font-family="Helvetica,sans-Serif" font-size="11.00" fill="#000000">&lt; 8</text>
<polygon fill="#ffffff" stroke="transparent" points="356.5,-165.7 356.5,-184.7 408.5,-184.7 408.5,-165.7 356.5,-165.7"/>
<polygon fill="none" stroke="#000000" points="356.5,-165.7 356.5,-184.7 408.5,-184.7 408.5,-165.7 356.5,-165.7"/>
<text text-anchor="start" x="399.3862" y="-171.8" font-family="Helvetica,sans-Serif" font-size="11.00" fill="#000000"> &#160;</text>
<polygon fill="#ffffff" stroke="transparent" points="408.5,-165.7 408.5,-184.7 469.5,-184.7 469.5,-165.7 408.5,-165.7"/>
<polygon fill="none" stroke="#000000" points="408.5,-165.7 408.5,-184.7 469.5,-184.7 469.5,-165.7 408.5,-165.7"/>
<text text-anchor="start" x="450.9053" y="-171.8" font-family="Helvetica,sans-Serif" font-size="11.00" fill="#000000">1 &gt;</text>
</a>
</g>
</g>
<!-- movement&#45;&gt;occurrence -->
<g id="edge3" class="edge">
<title>movement:w&#45;&gt;occurrence:e</title>
<path fill="none" stroke="#000000" d="M506.2019,-356.6364C464.9077,-377.3546 532.8458,-500.7 469.5,-500.7"/>
<polygon fill="#000000" stroke="#000000" points="512.6635,-355.3094 521.2242,-357.2264 516.5818,-354.5047 520.5,-353.7 520.5,-353.7 520.5,-353.7 516.5818,-354.5047 519.7758,-350.1736 512.6635,-355.3094 512.6635,-355.3094"/>
<ellipse fill="none" stroke="#000000" cx="509.529" cy="-355.9532" rx="3.2" ry="3.2"/>
</g>
<!-- public.person_summary -->
<g id="node5" class="node">
<title>public.person_summary</title>
<g id="a_node5"><a xlink:href="../../../public/tables/person_summary.html" xlink:title="public.person_summary" target="_top">
<polygon fill="#ffffff" stroke="transparent" points="8,-488.2 8,-549.2 207,-549.2 207,-488.2 8,-488.2"/>
<polygon fill="#f5f5f5" stroke="transparent" points="8.5,-525.7 8.5,-548.7 207.5,-548.7 207.5,-525.7 8.5,-525.7"/>
<polygon fill="none" stroke="#000000" points="8.5,-525.7 8.5,-548.7 207.5,-548.7 207.5,-525.7 8.5,-525.7"/>
<text text-anchor="start" x="13.5" y="-534.3" font-family="Helvetica,sans-Serif" font-weight="bold" font-size="11.00" fill="#000000">public.person_summary</text>
<text text-anchor="start" x="173.0219" y="-533.8" font-family="Helvetica,sans-Serif" font-size="11.00" fill="#000000">[table]</text>
<polygon fill="none" stroke="#000000" points="8.5,-506.7 8.5,-525.7 207.5,-525.7 207.5,-506.7 8.5,-506.7"/>
<text text-anchor="start" x="11.5" y="-512.8" font-family="Helvetica,sans-Serif" font-size="11.00" fill="#000000">...</text>
<polygon fill="#ffffff" stroke="transparent" points="8.5,-487.7 8.5,-506.7 84.5,-506.7 84.5,-487.7 8.5,-487.7"/>
<polygon fill="none" stroke="#000000" points="8.5,-487.7 8.5,-506.7 84.5,-506.7 84.5,-487.7 8.5,-487.7"/>
<text text-anchor="start" x="11.5" y="-493.8" font-family="Helvetica,sans-Serif" font-size="11.00" fill="#000000"> &#160;</text>
<polygon fill="#ffffff" stroke="transparent" points="84.5,-487.7 84.5,-506.7 154.5,-506.7 154.5,-487.7 84.5,-487.7"/>
<polygon fill="none" stroke="#000000" points="84.5,-487.7 84.5,-506.7 154.5,-506.7 154.5,-487.7 84.5,-487.7"/>
<text text-anchor="start" x="119.1105" y="-493.8" font-family="Helvetica,sans-Serif" font-size="11.00" fill="#000000">0 rows</text>
<polygon fill="#ffffff" stroke="transparent" points="154.5,-487.7 154.5,-506.7 207.5,-506.7 207.5,-487.7 154.5,-487.7"/>
<polygon fill="none" stroke="#000000" points="154.5,-487.7 154.5,-506.7 207.5,-506.7 207.5,-487.7 154.5,-487.7"/>
<text text-anchor="start" x="188.9053" y="-493.8" font-family="Helvetica,sans-Serif" font-size="11.00" fill="#000000">3 &gt;</text>
</a>
</g>
</g>
<!-- movement&#45;&gt;public.person_summary -->
<g id="edge4" class="edge">
<title>movement:w&#45;&gt;public.person_summary:e</title>
<path fill="none" stroke="#000000" d="M506.1942,-377.5399C455.5752,-392.9697 534.1526,-501.3304 477,-545.7 395.2009,-609.2036 270.144,-582.1525 188.5929,-553.3303"/>
<polygon fill="#000000" stroke="#000000" points="512.5654,-376.7206 520.9593,-379.2706 516.5327,-376.2103 520.5,-375.7 520.5,-375.7 520.5,-375.7 516.5327,-376.2103 520.0407,-372.1294 512.5654,-376.7206 512.5654,-376.7206"/>
<ellipse fill="none" stroke="#000000" cx="509.3915" cy="-377.1288" rx="3.2" ry="3.2"/>
</g>
<!-- occurrence&#45;&gt;absence_reason -->
<g id="edge5" class="edge">
<title>occurrence:w&#45;&gt;absence_reason:e</title>
<path fill="none" stroke="#000000" d="M241.9194,-322.7608C218.3178,-315.9742 211.4222,-293.7 180.5,-293.7"/>
<polygon fill="#000000" stroke="#000000" points="248.5698,-323.6453 256.0254,-328.2686 252.5349,-324.1726 256.5,-324.7 256.5,-324.7 256.5,-324.7 252.5349,-324.1726 256.9746,-321.1314 248.5698,-323.6453 248.5698,-323.6453"/>
<ellipse fill="none" stroke="#000000" cx="245.3978" cy="-323.2234" rx="3.2" ry="3.2"/>
</g>
<!-- occurrence&#45;&gt;accompanied_by -->
<g id="edge6" class="edge">
<title>occurrence:w&#45;&gt;accompanied_by:e</title>
<path fill="none" stroke="#000000" d="M242.1421,-300.5253C184.7832,-280.6147 260.1929,-130.7 182.5,-130.7"/>
<polygon fill="#000000" stroke="#000000" points="248.5902,-301.5019 255.9609,-306.2594 252.5451,-302.1009 256.5,-302.7 256.5,-302.7 256.5,-302.7 252.5451,-302.1009 257.0391,-299.1406 248.5902,-301.5019 248.5902,-301.5019"/>
<ellipse fill="none" stroke="#000000" cx="245.4263" cy="-301.0227" rx="3.2" ry="3.2"/>
</g>
<!-- occurrence&#45;&gt;public.person_summary -->
<g id="edge7" class="edge">
<title>occurrence:w&#45;&gt;public.person_summary:e</title>
<path fill="none" stroke="#000000" d="M241.7873,-479.2734C230.5097,-480.1241 219.0929,-481.8715 207.9264,-484.178"/>
<polygon fill="#000000" stroke="#000000" points="248.5061,-479.0116 256.6402,-482.2973 252.503,-478.8558 256.5,-478.7 256.5,-478.7 256.5,-478.7 252.503,-478.8558 256.3598,-475.1027 248.5061,-479.0116 248.5061,-479.0116"/>
<ellipse fill="none" stroke="#000000" cx="245.3085" cy="-479.1362" rx="3.2" ry="3.2"/>
</g>
</g>
</svg>
