<?xml version="1.0" encoding="UTF-8" standalone="no"?>
<!DOCTYPE svg PUBLIC "-//W3C//DTD SVG 1.1//EN"
 "http://www.w3.org/Graphics/SVG/1.1/DTD/svg11.dtd">
<!-- Generated by graphviz version 2.40.1 (20161225.0304)
 -->
<!-- Title: oneDegreeRelationshipsDiagram Pages: 1 -->
<svg width="796pt" height="608pt"
 viewBox="0.00 0.00 796.00 607.70" xmlns="http://www.w3.org/2000/svg" xmlns:xlink="http://www.w3.org/1999/xlink">
<g id="graph0" class="graph" transform="scale(1 1) rotate(0) translate(4 603.7)">
<title>oneDegreeRelationshipsDiagram</title>
<polygon fill="#ffffff" stroke="transparent" points="-4,4 -4,-603.7 792,-603.7 792,4 -4,4"/>
<text text-anchor="middle" x="72.4936" y="-7.3" font-family="Helvetica,sans-Serif" font-size="11.00" fill="#000000">Generated by SchemaSpy</text>
<!-- movement -->
<g id="node1" class="node">
<title>movement</title>
<g id="a_node1"><a xlink:href="../../tables/movement.html" xlink:title="movement" target="_top">
<polygon fill="#ffffff" stroke="transparent" points="469,-38.2 469,-370.2 780,-370.2 780,-38.2 469,-38.2"/>
<polygon fill="#f5f5f5" stroke="transparent" points="471.5,-345.2 471.5,-368.2 778.5,-368.2 778.5,-345.2 471.5,-345.2"/>
<polygon fill="none" stroke="#000000" points="471.5,-345.2 471.5,-368.2 778.5,-368.2 778.5,-345.2 471.5,-345.2"/>
<text text-anchor="start" x="476.5" y="-353.8" font-family="Helvetica,sans-Serif" font-weight="bold" font-size="11.00" fill="#000000">movement</text>
<text text-anchor="start" x="743.5437" y="-353.3" font-family="Helvetica,sans-Serif" font-size="11.00" fill="#000000">[table]</text>
<polygon fill="none" stroke="#000000" points="471.5,-323.2 471.5,-345.2 679.5,-345.2 679.5,-323.2 471.5,-323.2"/>
<image xlink:href="../../images/primaryKeys.png" width="11px" height="12px" preserveAspectRatio="xMinYMin meet" x="476.5" y="-340.2"/>
<text text-anchor="start" x="491.5" y="-330.3" font-family="Helvetica,sans-Serif" font-size="11.00" fill="#000000">id</text>
<polygon fill="none" stroke="#000000" points="679.5,-323.2 679.5,-345.2 778.5,-345.2 778.5,-323.2 679.5,-323.2"/>
<text text-anchor="start" x="682.5" y="-330.9" font-family="Helvetica,sans-Serif" font-size="11.00" fill="#000000">uuid[2147483647]</text>
<polygon fill="none" stroke="#000000" points="471.5,-301.2 471.5,-323.2 679.5,-323.2 679.5,-301.2 471.5,-301.2"/>
<text text-anchor="start" x="491.5" y="-308.3" font-family="Helvetica,sans-Serif" font-size="11.00" fill="#000000">version</text>
<polygon fill="none" stroke="#000000" points="679.5,-301.2 679.5,-323.2 778.5,-323.2 778.5,-301.2 679.5,-301.2"/>
<text text-anchor="start" x="682.5" y="-308.9" font-family="Helvetica,sans-Serif" font-size="11.00" fill="#000000">int4[10]</text>
<polygon fill="#ffffff" stroke="transparent" points="471.5,-279.2 471.5,-301.2 679.5,-301.2 679.5,-279.2 471.5,-279.2"/>
<polygon fill="none" stroke="#000000" points="471.5,-279.2 471.5,-301.2 679.5,-301.2 679.5,-279.2 471.5,-279.2"/>
<text text-anchor="start" x="491.5" y="-286.3" font-family="Helvetica,sans-Serif" font-size="11.00" fill="#000000">person_identifier</text>
<polygon fill="none" stroke="#000000" points="679.5,-279.2 679.5,-301.2 778.5,-301.2 778.5,-279.2 679.5,-279.2"/>
<text text-anchor="start" x="682.5" y="-286.9" font-family="Helvetica,sans-Serif" font-size="11.00" fill="#000000">varchar[10]</text>
<polygon fill="#ffffff" stroke="transparent" points="471.5,-257.2 471.5,-279.2 679.5,-279.2 679.5,-257.2 471.5,-257.2"/>
<polygon fill="none" stroke="#000000" points="471.5,-257.2 471.5,-279.2 679.5,-279.2 679.5,-257.2 471.5,-257.2"/>
<image xlink:href="../../images/foreignKeys.png" width="11px" height="12px" preserveAspectRatio="xMinYMin meet" x="476.5" y="-274.2"/>
<text text-anchor="start" x="491.5" y="-264.3" font-family="Helvetica,sans-Serif" font-size="11.00" fill="#000000">occurrence_id</text>
<polygon fill="none" stroke="#000000" points="679.5,-257.2 679.5,-279.2 778.5,-279.2 778.5,-257.2 679.5,-257.2"/>
<text text-anchor="start" x="682.5" y="-264.9" font-family="Helvetica,sans-Serif" font-size="11.00" fill="#000000">uuid[2147483647]</text>
<polygon fill="#ffffff" stroke="transparent" points="471.5,-235.2 471.5,-257.2 679.5,-257.2 679.5,-235.2 471.5,-235.2"/>
<polygon fill="none" stroke="#000000" points="471.5,-235.2 471.5,-257.2 679.5,-257.2 679.5,-235.2 471.5,-235.2"/>
<text text-anchor="start" x="491.5" y="-242.3" font-family="Helvetica,sans-Serif" font-size="11.00" fill="#000000">occurred_at</text>
<polygon fill="none" stroke="#000000" points="679.5,-235.2 679.5,-257.2 778.5,-257.2 778.5,-235.2 679.5,-235.2"/>
<text text-anchor="start" x="682.5" y="-242.9" font-family="Helvetica,sans-Serif" font-size="11.00" fill="#000000">timestamp[29,6]</text>
<polygon fill="none" stroke="#000000" points="471.5,-213.2 471.5,-235.2 679.5,-235.2 679.5,-213.2 471.5,-213.2"/>
<text text-anchor="start" x="491.5" y="-220.3" font-family="Helvetica,sans-Serif" font-size="11.00" fill="#000000">direction</text>
<polygon fill="none" stroke="#000000" points="679.5,-213.2 679.5,-235.2 778.5,-235.2 778.5,-213.2 679.5,-213.2"/>
<text text-anchor="start" x="682.5" y="-220.9" font-family="Helvetica,sans-Serif" font-size="11.00" fill="#000000">varchar[3]</text>
<polygon fill="none" stroke="#000000" points="471.5,-191.2 471.5,-213.2 679.5,-213.2 679.5,-191.2 471.5,-191.2"/>
<image xlink:href="../../images/foreignKeys.png" width="11px" height="12px" preserveAspectRatio="xMinYMin meet" x="476.5" y="-208.2"/>
<text text-anchor="start" x="491.5" y="-198.3" font-family="Helvetica,sans-Serif" font-size="11.00" fill="#000000">absence_reason_id</text>
<polygon fill="none" stroke="#000000" points="679.5,-191.2 679.5,-213.2 778.5,-213.2 778.5,-191.2 679.5,-191.2"/>
<text text-anchor="start" x="682.5" y="-198.9" font-family="Helvetica,sans-Serif" font-size="11.00" fill="#000000">uuid[2147483647]</text>
<polygon fill="none" stroke="#000000" points="471.5,-169.2 471.5,-191.2 679.5,-191.2 679.5,-169.2 471.5,-169.2"/>
<image xlink:href="../../images/foreignKeys.png" width="11px" height="12px" preserveAspectRatio="xMinYMin meet" x="476.5" y="-186.2"/>
<text text-anchor="start" x="491.5" y="-176.3" font-family="Helvetica,sans-Serif" font-size="11.00" fill="#000000">accompanied_by_id</text>
<polygon fill="none" stroke="#000000" points="679.5,-169.2 679.5,-191.2 778.5,-191.2 778.5,-169.2 679.5,-169.2"/>
<text text-anchor="start" x="682.5" y="-176.9" font-family="Helvetica,sans-Serif" font-size="11.00" fill="#000000">uuid[2147483647]</text>
<polygon fill="none" stroke="#000000" points="471.5,-147.2 471.5,-169.2 679.5,-169.2 679.5,-147.2 471.5,-147.2"/>
<text text-anchor="start" x="491.5" y="-154.3" font-family="Helvetica,sans-Serif" font-size="11.00" fill="#000000">accompanied_by_comments</text>
<polygon fill="none" stroke="#000000" points="679.5,-147.2 679.5,-169.2 778.5,-169.2 778.5,-147.2 679.5,-147.2"/>
<text text-anchor="start" x="682.5" y="-154.9" font-family="Helvetica,sans-Serif" font-size="11.00" fill="#000000">text[2147483647]</text>
<polygon fill="none" stroke="#000000" points="471.5,-125.2 471.5,-147.2 679.5,-147.2 679.5,-125.2 471.5,-125.2"/>
<text text-anchor="start" x="491.5" y="-132.3" font-family="Helvetica,sans-Serif" font-size="11.00" fill="#000000">location</text>
<polygon fill="none" stroke="#000000" points="679.5,-125.2 679.5,-147.2 778.5,-147.2 778.5,-125.2 679.5,-125.2"/>
<text text-anchor="start" x="682.2258" y="-132.9" font-family="Helvetica,sans-Serif" font-size="11.00" fill="#000000">jsonb[2147483647]</text>
<polygon fill="none" stroke="#000000" points="471.5,-103.2 471.5,-125.2 679.5,-125.2 679.5,-103.2 471.5,-103.2"/>
<text text-anchor="start" x="491.5" y="-110.3" font-family="Helvetica,sans-Serif" font-size="11.00" fill="#000000">comments</text>
<polygon fill="none" stroke="#000000" points="679.5,-103.2 679.5,-125.2 778.5,-125.2 778.5,-103.2 679.5,-103.2"/>
<text text-anchor="start" x="682.5" y="-110.9" font-family="Helvetica,sans-Serif" font-size="11.00" fill="#000000">text[2147483647]</text>
<polygon fill="none" stroke="#000000" points="471.5,-81.2 471.5,-103.2 679.5,-103.2 679.5,-81.2 471.5,-81.2"/>
<text text-anchor="start" x="491.5" y="-88.3" font-family="Helvetica,sans-Serif" font-size="11.00" fill="#000000">prison_code</text>
<polygon fill="none" stroke="#000000" points="679.5,-81.2 679.5,-103.2 778.5,-103.2 778.5,-81.2 679.5,-81.2"/>
<text text-anchor="start" x="682.5" y="-88.9" font-family="Helvetica,sans-Serif" font-size="11.00" fill="#000000">varchar[6]</text>
<polygon fill="#ffffff" stroke="transparent" points="471.5,-59.2 471.5,-81.2 679.5,-81.2 679.5,-59.2 471.5,-59.2"/>
<polygon fill="none" stroke="#000000" points="471.5,-59.2 471.5,-81.2 679.5,-81.2 679.5,-59.2 471.5,-59.2"/>
<text text-anchor="start" x="491.5" y="-66.3" font-family="Helvetica,sans-Serif" font-size="11.00" fill="#000000">legacy_id</text>
<polygon fill="none" stroke="#000000" points="679.5,-59.2 679.5,-81.2 778.5,-81.2 778.5,-59.2 679.5,-59.2"/>
<text text-anchor="start" x="682.5" y="-66.9" font-family="Helvetica,sans-Serif" font-size="11.00" fill="#000000">varchar[32]</text>
<polygon fill="#ffffff" stroke="transparent" points="471.5,-40.2 471.5,-59.2 579.5,-59.2 579.5,-40.2 471.5,-40.2"/>
<polygon fill="none" stroke="#000000" points="471.5,-40.2 471.5,-59.2 579.5,-59.2 579.5,-40.2 471.5,-40.2"/>
<text text-anchor="start" x="474.5" y="-46.3" font-family="Helvetica,sans-Serif" font-size="11.00" fill="#000000">&lt; 3</text>
<polygon fill="#ffffff" stroke="transparent" points="579.5,-40.2 579.5,-59.2 679.5,-59.2 679.5,-40.2 579.5,-40.2"/>
<polygon fill="none" stroke="#000000" points="579.5,-40.2 579.5,-59.2 679.5,-59.2 679.5,-40.2 579.5,-40.2"/>
<text text-anchor="start" x="670.3862" y="-46.3" font-family="Helvetica,sans-Serif" font-size="11.00" fill="#000000"> &#160;</text>
<polygon fill="#ffffff" stroke="transparent" points="679.5,-40.2 679.5,-59.2 778.5,-59.2 778.5,-40.2 679.5,-40.2"/>
<polygon fill="none" stroke="#000000" points="679.5,-40.2 679.5,-59.2 778.5,-59.2 778.5,-40.2 679.5,-40.2"/>
<text text-anchor="start" x="759.9053" y="-46.3" font-family="Helvetica,sans-Serif" font-size="11.00" fill="#000000">0 &gt;</text>
<polygon fill="none" stroke="#000000" stroke-width="2" points="470,-39.2 470,-369.2 779,-369.2 779,-39.2 470,-39.2"/>
</a>
</g>
</g>
<!-- absence_reason -->
<g id="node2" class="node">
<title>absence_reason</title>
<g id="a_node2"><a xlink:href="../../tables/absence_reason.html" xlink:title="absence_reason" target="_top">
<polygon fill="#ffffff" stroke="transparent" points="10,-276.7 10,-403.7 156,-403.7 156,-276.7 10,-276.7"/>
<polygon fill="#f5f5f5" stroke="transparent" points="10,-380.2 10,-403.2 156,-403.2 156,-380.2 10,-380.2"/>
<polygon fill="none" stroke="#000000" points="10,-380.2 10,-403.2 156,-403.2 156,-380.2 10,-380.2"/>
<text text-anchor="start" x="15" y="-388.8" font-family="Helvetica,sans-Serif" font-weight="bold" font-size="11.00" fill="#000000">absence_reason</text>
<text text-anchor="start" x="121.5219" y="-388.3" font-family="Helvetica,sans-Serif" font-size="11.00" fill="#000000">[table]</text>
<polygon fill="none" stroke="#000000" points="10,-358.2 10,-380.2 156,-380.2 156,-358.2 10,-358.2"/>
<image xlink:href="../../images/primaryKeys.png" width="11px" height="12px" preserveAspectRatio="xMinYMin meet" x="15" y="-375.2"/>
<text text-anchor="start" x="32" y="-365.3" font-family="Helvetica,sans-Serif" font-size="11.00" fill="#000000">id</text>
<polygon fill="#ffffff" stroke="transparent" points="10,-336.2 10,-358.2 156,-358.2 156,-336.2 10,-336.2"/>
<polygon fill="none" stroke="#000000" points="10,-336.2 10,-358.2 156,-358.2 156,-336.2 10,-336.2"/>
<text text-anchor="start" x="32" y="-343.3" font-family="Helvetica,sans-Serif" font-size="11.00" fill="#000000">code</text>
<polygon fill="#ffffff" stroke="transparent" points="10,-314.2 10,-336.2 156,-336.2 156,-314.2 10,-314.2"/>
<polygon fill="none" stroke="#000000" points="10,-314.2 10,-336.2 156,-336.2 156,-314.2 10,-314.2"/>
<text text-anchor="start" x="32" y="-321.3" font-family="Helvetica,sans-Serif" font-size="11.00" fill="#000000">sequence_number</text>
<polygon fill="none" stroke="#000000" points="10,-295.2 10,-314.2 156,-314.2 156,-295.2 10,-295.2"/>
<text text-anchor="start" x="13" y="-301.3" font-family="Helvetica,sans-Serif" font-size="11.00" fill="#000000">...</text>
<polygon fill="#ffffff" stroke="transparent" points="10,-276.2 10,-295.2 72,-295.2 72,-276.2 10,-276.2"/>
<polygon fill="none" stroke="#000000" points="10,-276.2 10,-295.2 72,-295.2 72,-276.2 10,-276.2"/>
<text text-anchor="start" x="13" y="-282.3" font-family="Helvetica,sans-Serif" font-size="11.00" fill="#000000"> &#160;</text>
<polygon fill="#ffffff" stroke="transparent" points="72,-276.2 72,-295.2 109,-295.2 109,-276.2 72,-276.2"/>
<polygon fill="none" stroke="#000000" points="72,-276.2 72,-295.2 109,-295.2 109,-276.2 72,-276.2"/>
<text text-anchor="start" x="99.8862" y="-282.3" font-family="Helvetica,sans-Serif" font-size="11.00" fill="#000000"> &#160;</text>
<polygon fill="#ffffff" stroke="transparent" points="109,-276.2 109,-295.2 156,-295.2 156,-276.2 109,-276.2"/>
<polygon fill="none" stroke="#000000" points="109,-276.2 109,-295.2 156,-295.2 156,-276.2 109,-276.2"/>
<text text-anchor="start" x="137.4053" y="-282.3" font-family="Helvetica,sans-Serif" font-size="11.00" fill="#000000">3 &gt;</text>
</a>
</g>
</g>
<!-- movement&#45;&gt;absence_reason -->
<g id="edge1" class="edge">
<title>movement:w&#45;&gt;absence_reason:e</title>
<path fill="none" stroke="#000000" d="M456.8107,-201.8587C387.7021,-199.0755 242.9501,-181.088 199,-216.2 143.8143,-260.2883 226.6345,-369.2 156,-369.2"/>
<polygon fill="#000000" stroke="#000000" points="463.5022,-202.0141 471.4163,-205.799 467.5011,-202.1071 471.5,-202.2 471.5,-202.2 471.5,-202.2 467.5011,-202.1071 471.5837,-198.601 463.5022,-202.0141 463.5022,-202.0141"/>
<ellipse fill="none" stroke="#000000" cx="460.303" cy="-201.9397" rx="3.2" ry="3.2"/>
</g>
<!-- accompanied_by -->
<g id="node3" class="node">
<title>accompanied_by</title>
<g id="a_node3"><a xlink:href="../../tables/accompanied_by.html" xlink:title="accompanied_by" target="_top">
<polygon fill="#ffffff" stroke="transparent" points="8,-113.7 8,-240.7 158,-240.7 158,-113.7 8,-113.7"/>
<polygon fill="#f5f5f5" stroke="transparent" points="8,-217.2 8,-240.2 158,-240.2 158,-217.2 8,-217.2"/>
<polygon fill="none" stroke="#000000" points="8,-217.2 8,-240.2 158,-240.2 158,-217.2 8,-217.2"/>
<text text-anchor="start" x="13" y="-225.8" font-family="Helvetica,sans-Serif" font-weight="bold" font-size="11.00" fill="#000000">accompanied_by</text>
<text text-anchor="start" x="123.5219" y="-225.3" font-family="Helvetica,sans-Serif" font-size="11.00" fill="#000000">[table]</text>
<polygon fill="none" stroke="#000000" points="8,-195.2 8,-217.2 158,-217.2 158,-195.2 8,-195.2"/>
<image xlink:href="../../images/primaryKeys.png" width="11px" height="12px" preserveAspectRatio="xMinYMin meet" x="13" y="-212.2"/>
<text text-anchor="start" x="32" y="-202.3" font-family="Helvetica,sans-Serif" font-size="11.00" fill="#000000">id</text>
<polygon fill="#ffffff" stroke="transparent" points="8,-173.2 8,-195.2 158,-195.2 158,-173.2 8,-173.2"/>
<polygon fill="none" stroke="#000000" points="8,-173.2 8,-195.2 158,-195.2 158,-173.2 8,-173.2"/>
<text text-anchor="start" x="32" y="-180.3" font-family="Helvetica,sans-Serif" font-size="11.00" fill="#000000">code</text>
<polygon fill="#ffffff" stroke="transparent" points="8,-151.2 8,-173.2 158,-173.2 158,-151.2 8,-151.2"/>
<polygon fill="none" stroke="#000000" points="8,-151.2 8,-173.2 158,-173.2 158,-151.2 8,-151.2"/>
<text text-anchor="start" x="32" y="-158.3" font-family="Helvetica,sans-Serif" font-size="11.00" fill="#000000">sequence_number</text>
<polygon fill="none" stroke="#000000" points="8,-132.2 8,-151.2 158,-151.2 158,-132.2 8,-132.2"/>
<text text-anchor="start" x="11" y="-138.3" font-family="Helvetica,sans-Serif" font-size="11.00" fill="#000000">...</text>
<polygon fill="#ffffff" stroke="transparent" points="8,-113.2 8,-132.2 72,-132.2 72,-113.2 8,-113.2"/>
<polygon fill="none" stroke="#000000" points="8,-113.2 8,-132.2 72,-132.2 72,-113.2 8,-113.2"/>
<text text-anchor="start" x="11" y="-119.3" font-family="Helvetica,sans-Serif" font-size="11.00" fill="#000000"> &#160;</text>
<polygon fill="#ffffff" stroke="transparent" points="72,-113.2 72,-132.2 110,-132.2 110,-113.2 72,-113.2"/>
<polygon fill="none" stroke="#000000" points="72,-113.2 72,-132.2 110,-132.2 110,-113.2 72,-113.2"/>
<text text-anchor="start" x="100.8862" y="-119.3" font-family="Helvetica,sans-Serif" font-size="11.00" fill="#000000"> &#160;</text>
<polygon fill="#ffffff" stroke="transparent" points="110,-113.2 110,-132.2 158,-132.2 158,-113.2 110,-113.2"/>
<polygon fill="none" stroke="#000000" points="110,-113.2 110,-132.2 158,-132.2 158,-113.2 110,-113.2"/>
<text text-anchor="start" x="139.4053" y="-119.3" font-family="Helvetica,sans-Serif" font-size="11.00" fill="#000000">3 &gt;</text>
</a>
</g>
</g>
<!-- movement&#45;&gt;accompanied_by -->
<g id="edge2" class="edge">
<title>movement:w&#45;&gt;accompanied_by:e</title>
<path fill="none" stroke="#000000" d="M457.0207,-180.1501C347.4882,-179.3956 313.2396,-170.6404 199,-192.2 180.0787,-195.7709 177.2553,-206.2 158,-206.2"/>
<polygon fill="#000000" stroke="#000000" points="463.5,-180.1724 471.4876,-183.8 467.5,-180.1862 471.5,-180.2 471.5,-180.2 471.5,-180.2 467.5,-180.1862 471.5124,-176.6 463.5,-180.1724 463.5,-180.1724"/>
<ellipse fill="none" stroke="#000000" cx="460.3001" cy="-180.1613" rx="3.2" ry="3.2"/>
</g>
<!-- occurrence -->
<g id="node4" class="node">
<title>occurrence</title>
<g id="a_node4"><a xlink:href="../../tables/occurrence.html" xlink:title="occurrence" target="_top">
<polygon fill="#ffffff" stroke="transparent" points="207,-226.7 207,-595.7 420,-595.7 420,-226.7 207,-226.7"/>
<polygon fill="#f5f5f5" stroke="transparent" points="207.5,-572.2 207.5,-595.2 420.5,-595.2 420.5,-572.2 207.5,-572.2"/>
<polygon fill="none" stroke="#000000" points="207.5,-572.2 207.5,-595.2 420.5,-595.2 420.5,-572.2 207.5,-572.2"/>
<text text-anchor="start" x="212.5" y="-580.8" font-family="Helvetica,sans-Serif" font-weight="bold" font-size="11.00" fill="#000000">occurrence</text>
<text text-anchor="start" x="385.5437" y="-580.3" font-family="Helvetica,sans-Serif" font-size="11.00" fill="#000000">[table]</text>
<polygon fill="none" stroke="#000000" points="207.5,-550.2 207.5,-572.2 420.5,-572.2 420.5,-550.2 207.5,-550.2"/>
<image xlink:href="../../images/primaryKeys.png" width="11px" height="12px" preserveAspectRatio="xMinYMin meet" x="212.5" y="-567.2"/>
<text text-anchor="start" x="227.5" y="-557.3" font-family="Helvetica,sans-Serif" font-size="11.00" fill="#000000">id</text>
<polygon fill="#ffffff" stroke="transparent" points="207.5,-528.2 207.5,-550.2 420.5,-550.2 420.5,-528.2 207.5,-528.2"/>
<polygon fill="none" stroke="#000000" points="207.5,-528.2 207.5,-550.2 420.5,-550.2 420.5,-528.2 207.5,-528.2"/>
<text text-anchor="start" x="227.5" y="-535.3" font-family="Helvetica,sans-Serif" font-size="11.00" fill="#000000">person_identifier</text>
<polygon fill="#ffffff" stroke="transparent" points="207.5,-506.2 207.5,-528.2 420.5,-528.2 420.5,-506.2 207.5,-506.2"/>
<polygon fill="none" stroke="#000000" points="207.5,-506.2 207.5,-528.2 420.5,-528.2 420.5,-506.2 207.5,-506.2"/>
<text text-anchor="start" x="227.5" y="-513.3" font-family="Helvetica,sans-Serif" font-size="11.00" fill="#000000">prison_code</text>
<polygon fill="#ffffff" stroke="transparent" points="207.5,-484.2 207.5,-506.2 420.5,-506.2 420.5,-484.2 207.5,-484.2"/>
<polygon fill="none" stroke="#000000" points="207.5,-484.2 207.5,-506.2 420.5,-506.2 420.5,-484.2 207.5,-484.2"/>
<text text-anchor="start" x="227.5" y="-491.3" font-family="Helvetica,sans-Serif" font-size="11.00" fill="#000000">authorisation_id</text>
<polygon fill="#ffffff" stroke="transparent" points="207.5,-462.2 207.5,-484.2 420.5,-484.2 420.5,-462.2 207.5,-462.2"/>
<polygon fill="none" stroke="#000000" points="207.5,-462.2 207.5,-484.2 420.5,-484.2 420.5,-462.2 207.5,-462.2"/>
<image xlink:href="../../images/foreignKeys.png" width="11px" height="12px" preserveAspectRatio="xMinYMin meet" x="212.5" y="-479.2"/>
<text text-anchor="start" x="227.5" y="-469.3" font-family="Helvetica,sans-Serif" font-size="11.00" fill="#000000">status_id</text>
<polygon fill="none" stroke="#000000" points="207.5,-440.2 207.5,-462.2 420.5,-462.2 420.5,-440.2 207.5,-440.2"/>
<image xlink:href="../../images/foreignKeys.png" width="11px" height="12px" preserveAspectRatio="xMinYMin meet" x="212.5" y="-457.2"/>
<text text-anchor="start" x="227.5" y="-447.3" font-family="Helvetica,sans-Serif" font-size="11.00" fill="#000000">absence_type_id</text>
<polygon fill="none" stroke="#000000" points="207.5,-418.2 207.5,-440.2 420.5,-440.2 420.5,-418.2 207.5,-418.2"/>
<image xlink:href="../../images/foreignKeys.png" width="11px" height="12px" preserveAspectRatio="xMinYMin meet" x="212.5" y="-435.2"/>
<text text-anchor="start" x="227.5" y="-425.3" font-family="Helvetica,sans-Serif" font-size="11.00" fill="#000000">absence_sub_type_id</text>
<polygon fill="none" stroke="#000000" points="207.5,-396.2 207.5,-418.2 420.5,-418.2 420.5,-396.2 207.5,-396.2"/>
<image xlink:href="../../images/foreignKeys.png" width="11px" height="12px" preserveAspectRatio="xMinYMin meet" x="212.5" y="-413.2"/>
<text text-anchor="start" x="227.5" y="-403.3" font-family="Helvetica,sans-Serif" font-size="11.00" fill="#000000">absence_reason_category_id</text>
<polygon fill="none" stroke="#000000" points="207.5,-374.2 207.5,-396.2 420.5,-396.2 420.5,-374.2 207.5,-374.2"/>
<image xlink:href="../../images/foreignKeys.png" width="11px" height="12px" preserveAspectRatio="xMinYMin meet" x="212.5" y="-391.2"/>
<text text-anchor="start" x="227.5" y="-381.3" font-family="Helvetica,sans-Serif" font-size="11.00" fill="#000000">absence_reason_id</text>
<polygon fill="none" stroke="#000000" points="207.5,-352.2 207.5,-374.2 420.5,-374.2 420.5,-352.2 207.5,-352.2"/>
<image xlink:href="../../images/foreignKeys.png" width="11px" height="12px" preserveAspectRatio="xMinYMin meet" x="212.5" y="-369.2"/>
<text text-anchor="start" x="227.5" y="-359.3" font-family="Helvetica,sans-Serif" font-size="11.00" fill="#000000">accompanied_by_id</text>
<polygon fill="none" stroke="#000000" points="207.5,-330.2 207.5,-352.2 420.5,-352.2 420.5,-330.2 207.5,-330.2"/>
<image xlink:href="../../images/foreignKeys.png" width="11px" height="12px" preserveAspectRatio="xMinYMin meet" x="212.5" y="-347.2"/>
<text text-anchor="start" x="227.5" y="-337.3" font-family="Helvetica,sans-Serif" font-size="11.00" fill="#000000">transport_id</text>
<polygon fill="#ffffff" stroke="transparent" points="207.5,-308.2 207.5,-330.2 420.5,-330.2 420.5,-308.2 207.5,-308.2"/>
<polygon fill="none" stroke="#000000" points="207.5,-308.2 207.5,-330.2 420.5,-330.2 420.5,-308.2 207.5,-308.2"/>
<text text-anchor="start" x="227.5" y="-315.3" font-family="Helvetica,sans-Serif" font-size="11.00" fill="#000000">start</text>
<polygon fill="#ffffff" stroke="transparent" points="207.5,-286.2 207.5,-308.2 420.5,-308.2 420.5,-286.2 207.5,-286.2"/>
<polygon fill="none" stroke="#000000" points="207.5,-286.2 207.5,-308.2 420.5,-308.2 420.5,-286.2 207.5,-286.2"/>
<text text-anchor="start" x="227.5" y="-293.3" font-family="Helvetica,sans-Serif" font-size="11.00" fill="#000000">end</text>
<polygon fill="#ffffff" stroke="transparent" points="207.5,-264.2 207.5,-286.2 420.5,-286.2 420.5,-264.2 207.5,-264.2"/>
<polygon fill="none" stroke="#000000" points="207.5,-264.2 207.5,-286.2 420.5,-286.2 420.5,-264.2 207.5,-264.2"/>
<text text-anchor="start" x="227.5" y="-271.3" font-family="Helvetica,sans-Serif" font-size="11.00" fill="#000000">legacy_id</text>
<polygon fill="none" stroke="#000000" points="207.5,-245.2 207.5,-264.2 420.5,-264.2 420.5,-245.2 207.5,-245.2"/>
<text text-anchor="start" x="210.5" y="-251.3" font-family="Helvetica,sans-Serif" font-size="11.00" fill="#000000">...</text>
<polygon fill="#ffffff" stroke="transparent" points="207.5,-226.2 207.5,-245.2 307.5,-245.2 307.5,-226.2 207.5,-226.2"/>
<polygon fill="none" stroke="#000000" points="207.5,-226.2 207.5,-245.2 307.5,-245.2 307.5,-226.2 207.5,-226.2"/>
<text text-anchor="start" x="210.5" y="-232.3" font-family="Helvetica,sans-Serif" font-size="11.00" fill="#000000">&lt; 7</text>
<polygon fill="#ffffff" stroke="transparent" points="307.5,-226.2 307.5,-245.2 359.5,-245.2 359.5,-226.2 307.5,-226.2"/>
<polygon fill="none" stroke="#000000" points="307.5,-226.2 307.5,-245.2 359.5,-245.2 359.5,-226.2 307.5,-226.2"/>
<text text-anchor="start" x="350.3862" y="-232.3" font-family="Helvetica,sans-Serif" font-size="11.00" fill="#000000"> &#160;</text>
<polygon fill="#ffffff" stroke="transparent" points="359.5,-226.2 359.5,-245.2 420.5,-245.2 420.5,-226.2 359.5,-226.2"/>
<polygon fill="none" stroke="#000000" points="359.5,-226.2 359.5,-245.2 420.5,-245.2 420.5,-226.2 359.5,-226.2"/>
<text text-anchor="start" x="401.9053" y="-232.3" font-family="Helvetica,sans-Serif" font-size="11.00" fill="#000000">1 &gt;</text>
</a>
</g>
</g>
<!-- movement&#45;&gt;occurrence -->
<g id="edge3" class="edge">
<title>movement:w&#45;&gt;occurrence:e</title>
<path fill="none" stroke="#000000" d="M456.9318,-269.6383C356.2407,-291.7422 547.2587,-561.2 420.5,-561.2"/>
<polygon fill="#000000" stroke="#000000" points="463.5387,-268.9861 471.8537,-271.7826 467.5194,-268.593 471.5,-268.2 471.5,-268.2 471.5,-268.2 467.5194,-268.593 471.1463,-264.6174 463.5387,-268.9861 463.5387,-268.9861"/>
<ellipse fill="none" stroke="#000000" cx="460.3542" cy="-269.3005" rx="3.2" ry="3.2"/>
</g>
<!-- occurrence&#45;&gt;absence_reason -->
<g id="edge4" class="edge">
<title>occurrence:w&#45;&gt;absence_reason:e</title>
<path fill="none" stroke="#000000" d="M193.0964,-382.8391C180.6089,-378.3885 174.1633,-369.2 156,-369.2"/>
<polygon fill="#000000" stroke="#000000" points="199.6053,-383.906 206.9177,-388.7526 203.5527,-384.553 207.5,-385.2 207.5,-385.2 207.5,-385.2 203.5527,-384.553 208.0823,-381.6474 199.6053,-383.906 199.6053,-383.906"/>
<ellipse fill="none" stroke="#000000" cx="196.4475" cy="-383.3883" rx="3.2" ry="3.2"/>
</g>
<!-- occurrence&#45;&gt;accompanied_by -->
<g id="edge5" class="edge">
<title>occurrence:w&#45;&gt;accompanied_by:e</title>
<path fill="none" stroke="#000000" d="M193.3028,-360.475C148.428,-339.627 225.4479,-206.2 158,-206.2"/>
<polygon fill="#000000" stroke="#000000" points="199.6434,-361.692 206.8214,-366.7355 203.5717,-362.446 207.5,-363.2 207.5,-363.2 207.5,-363.2 203.5717,-362.446 208.1786,-359.6645 199.6434,-361.692 199.6434,-361.692"/>
<ellipse fill="none" stroke="#000000" cx="196.5008" cy="-361.0887" rx="3.2" ry="3.2"/>
</g>
</g>
</svg>
