<?xml version="1.0" encoding="UTF-8" standalone="no"?>
<!DOCTYPE svg PUBLIC "-//W3C//DTD SVG 1.1//EN"
 "http://www.w3.org/Graphics/SVG/1.1/DTD/svg11.dtd">
<!-- Generated by graphviz version 2.40.1 (20161225.0304)
 -->
<!-- Title: oneDegreeRelationshipsDiagram Pages: 1 -->
<svg width="858pt" height="1065pt"
 viewBox="0.00 0.00 858.00 1065.20" xmlns="http://www.w3.org/2000/svg" xmlns:xlink="http://www.w3.org/1999/xlink">
<g id="graph0" class="graph" transform="scale(1 1) rotate(0) translate(4 1061.2)">
<title>oneDegreeRelationshipsDiagram</title>
<polygon fill="#ffffff" stroke="transparent" points="-4,4 -4,-1061.2 854,-1061.2 854,4 -4,4"/>
<text text-anchor="middle" x="72.4936" y="-7.3" font-family="Helvetica,sans-Serif" font-size="11.00" fill="#000000">Generated by SchemaSpy</text>
<!-- movement -->
<g id="node1" class="node">
<title>movement</title>
<g id="a_node1"><a xlink:href="../../tables/movement.html" xlink:title="movement" target="_top">
<polygon fill="#ffffff" stroke="transparent" points="634,-213.2 634,-428.2 842,-428.2 842,-213.2 634,-213.2"/>
<polygon fill="#f5f5f5" stroke="transparent" points="634,-404.7 634,-427.7 842,-427.7 842,-404.7 634,-404.7"/>
<polygon fill="none" stroke="#000000" points="634,-404.7 634,-427.7 842,-427.7 842,-404.7 634,-404.7"/>
<text text-anchor="start" x="639" y="-413.3" font-family="Helvetica,sans-Serif" font-weight="bold" font-size="11.00" fill="#000000">movement</text>
<text text-anchor="start" x="807.0437" y="-412.8" font-family="Helvetica,sans-Serif" font-size="11.00" fill="#000000">[table]</text>
<polygon fill="none" stroke="#000000" points="634,-382.7 634,-404.7 842,-404.7 842,-382.7 634,-382.7"/>
<image xlink:href="../../images/primaryKeys.png" width="11px" height="12px" preserveAspectRatio="xMinYMin meet" x="639" y="-399.7"/>
<text text-anchor="start" x="654" y="-389.8" font-family="Helvetica,sans-Serif" font-size="11.00" fill="#000000">id</text>
<polygon fill="#ffffff" stroke="transparent" points="634,-360.7 634,-382.7 842,-382.7 842,-360.7 634,-360.7"/>
<polygon fill="none" stroke="#000000" points="634,-360.7 634,-382.7 842,-382.7 842,-360.7 634,-360.7"/>
<text text-anchor="start" x="654" y="-367.8" font-family="Helvetica,sans-Serif" font-size="11.00" fill="#000000">person_identifier</text>
<polygon fill="#ffffff" stroke="transparent" points="634,-338.7 634,-360.7 842,-360.7 842,-338.7 634,-338.7"/>
<polygon fill="none" stroke="#000000" points="634,-338.7 634,-360.7 842,-360.7 842,-338.7 634,-338.7"/>
<image xlink:href="../../images/foreignKeys.png" width="11px" height="12px" preserveAspectRatio="xMinYMin meet" x="639" y="-355.7"/>
<text text-anchor="start" x="654" y="-345.8" font-family="Helvetica,sans-Serif" font-size="11.00" fill="#000000">occurrence_id</text>
<polygon fill="#ffffff" stroke="transparent" points="634,-316.7 634,-338.7 842,-338.7 842,-316.7 634,-316.7"/>
<polygon fill="none" stroke="#000000" points="634,-316.7 634,-338.7 842,-338.7 842,-316.7 634,-316.7"/>
<text text-anchor="start" x="654" y="-323.8" font-family="Helvetica,sans-Serif" font-size="11.00" fill="#000000">occurred_at</text>
<polygon fill="none" stroke="#000000" points="634,-294.7 634,-316.7 842,-316.7 842,-294.7 634,-294.7"/>
<image xlink:href="../../images/foreignKeys.png" width="11px" height="12px" preserveAspectRatio="xMinYMin meet" x="639" y="-311.7"/>
<text text-anchor="start" x="654" y="-301.8" font-family="Helvetica,sans-Serif" font-size="11.00" fill="#000000">absence_reason_id</text>
<polygon fill="none" stroke="#000000" points="634,-272.7 634,-294.7 842,-294.7 842,-272.7 634,-272.7"/>
<image xlink:href="../../images/foreignKeys.png" width="11px" height="12px" preserveAspectRatio="xMinYMin meet" x="639" y="-289.7"/>
<text text-anchor="start" x="654" y="-279.8" font-family="Helvetica,sans-Serif" font-size="11.00" fill="#000000">accompanied_by_id</text>
<polygon fill="#ffffff" stroke="transparent" points="634,-250.7 634,-272.7 842,-272.7 842,-250.7 634,-250.7"/>
<polygon fill="none" stroke="#000000" points="634,-250.7 634,-272.7 842,-272.7 842,-250.7 634,-250.7"/>
<text text-anchor="start" x="654" y="-257.8" font-family="Helvetica,sans-Serif" font-size="11.00" fill="#000000">legacy_id</text>
<polygon fill="none" stroke="#000000" points="634,-231.7 634,-250.7 842,-250.7 842,-231.7 634,-231.7"/>
<text text-anchor="start" x="637" y="-237.8" font-family="Helvetica,sans-Serif" font-size="11.00" fill="#000000">...</text>
<polygon fill="#ffffff" stroke="transparent" points="634,-212.7 634,-231.7 736,-231.7 736,-212.7 634,-212.7"/>
<polygon fill="none" stroke="#000000" points="634,-212.7 634,-231.7 736,-231.7 736,-212.7 634,-212.7"/>
<text text-anchor="start" x="637" y="-218.8" font-family="Helvetica,sans-Serif" font-size="11.00" fill="#000000">&lt; 3</text>
<polygon fill="#ffffff" stroke="transparent" points="736,-212.7 736,-231.7 789,-231.7 789,-212.7 736,-212.7"/>
<polygon fill="none" stroke="#000000" points="736,-212.7 736,-231.7 789,-231.7 789,-212.7 736,-212.7"/>
<text text-anchor="start" x="779.8862" y="-218.8" font-family="Helvetica,sans-Serif" font-size="11.00" fill="#000000"> &#160;</text>
<polygon fill="#ffffff" stroke="transparent" points="789,-212.7 789,-231.7 842,-231.7 842,-212.7 789,-212.7"/>
<polygon fill="none" stroke="#000000" points="789,-212.7 789,-231.7 842,-231.7 842,-212.7 789,-212.7"/>
<text text-anchor="start" x="832.8862" y="-218.8" font-family="Helvetica,sans-Serif" font-size="11.00" fill="#000000"> &#160;</text>
</a>
</g>
</g>
<!-- absence_reason -->
<g id="node2" class="node">
<title>absence_reason</title>
<g id="a_node2"><a xlink:href="../../tables/absence_reason.html" xlink:title="absence_reason" target="_top">
<polygon fill="#ffffff" stroke="transparent" points="41,-334.2 41,-461.2 187,-461.2 187,-334.2 41,-334.2"/>
<polygon fill="#f5f5f5" stroke="transparent" points="41,-437.7 41,-460.7 187,-460.7 187,-437.7 41,-437.7"/>
<polygon fill="none" stroke="#000000" points="41,-437.7 41,-460.7 187,-460.7 187,-437.7 41,-437.7"/>
<text text-anchor="start" x="46" y="-446.3" font-family="Helvetica,sans-Serif" font-weight="bold" font-size="11.00" fill="#000000">absence_reason</text>
<text text-anchor="start" x="152.5219" y="-445.8" font-family="Helvetica,sans-Serif" font-size="11.00" fill="#000000">[table]</text>
<polygon fill="none" stroke="#000000" points="41,-415.7 41,-437.7 187,-437.7 187,-415.7 41,-415.7"/>
<image xlink:href="../../images/primaryKeys.png" width="11px" height="12px" preserveAspectRatio="xMinYMin meet" x="46" y="-432.7"/>
<text text-anchor="start" x="63" y="-422.8" font-family="Helvetica,sans-Serif" font-size="11.00" fill="#000000">id</text>
<polygon fill="#ffffff" stroke="transparent" points="41,-393.7 41,-415.7 187,-415.7 187,-393.7 41,-393.7"/>
<polygon fill="none" stroke="#000000" points="41,-393.7 41,-415.7 187,-415.7 187,-393.7 41,-393.7"/>
<text text-anchor="start" x="63" y="-400.8" font-family="Helvetica,sans-Serif" font-size="11.00" fill="#000000">code</text>
<polygon fill="#ffffff" stroke="transparent" points="41,-371.7 41,-393.7 187,-393.7 187,-371.7 41,-371.7"/>
<polygon fill="none" stroke="#000000" points="41,-371.7 41,-393.7 187,-393.7 187,-371.7 41,-371.7"/>
<text text-anchor="start" x="63" y="-378.8" font-family="Helvetica,sans-Serif" font-size="11.00" fill="#000000">sequence_number</text>
<polygon fill="none" stroke="#000000" points="41,-352.7 41,-371.7 187,-371.7 187,-352.7 41,-352.7"/>
<text text-anchor="start" x="44" y="-358.8" font-family="Helvetica,sans-Serif" font-size="11.00" fill="#000000">...</text>
<polygon fill="#ffffff" stroke="transparent" points="41,-333.7 41,-352.7 87,-352.7 87,-333.7 41,-333.7"/>
<polygon fill="none" stroke="#000000" points="41,-333.7 41,-352.7 87,-352.7 87,-333.7 41,-333.7"/>
<text text-anchor="start" x="44" y="-339.8" font-family="Helvetica,sans-Serif" font-size="11.00" fill="#000000"> &#160;</text>
<polygon fill="#ffffff" stroke="transparent" points="87,-333.7 87,-352.7 148,-352.7 148,-333.7 87,-333.7"/>
<polygon fill="none" stroke="#000000" points="87,-333.7 87,-352.7 148,-352.7 148,-333.7 87,-333.7"/>
<text text-anchor="start" x="106.4956" y="-339.8" font-family="Helvetica,sans-Serif" font-size="11.00" fill="#000000">98 rows</text>
<polygon fill="#ffffff" stroke="transparent" points="148,-333.7 148,-352.7 187,-352.7 187,-333.7 148,-333.7"/>
<polygon fill="none" stroke="#000000" points="148,-333.7 148,-352.7 187,-352.7 187,-333.7 148,-333.7"/>
<text text-anchor="start" x="168.4053" y="-339.8" font-family="Helvetica,sans-Serif" font-size="11.00" fill="#000000">3 &gt;</text>
</a>
</g>
</g>
<!-- movement&#45;&gt;absence_reason -->
<g id="edge1" class="edge">
<title>movement:w&#45;&gt;absence_reason:e</title>
<path fill="none" stroke="#000000" d="M619.5147,-305.4902C528.1245,-303.1091 329.822,-281.9569 261,-319.7 210.3029,-347.5031 244.8205,-426.7 187,-426.7"/>
<polygon fill="#000000" stroke="#000000" points="626.0008,-305.5841 633.9478,-309.2996 630.0004,-305.642 634,-305.7 634,-305.7 634,-305.7 630.0004,-305.642 634.0522,-302.1004 626.0008,-305.5841 626.0008,-305.5841"/>
<ellipse fill="none" stroke="#000000" cx="622.8012" cy="-305.5377" rx="3.2" ry="3.2"/>
</g>
<!-- accompanied_by -->
<g id="node3" class="node">
<title>accompanied_by</title>
<g id="a_node3"><a xlink:href="../../tables/accompanied_by.html" xlink:title="accompanied_by" target="_top">
<polygon fill="#ffffff" stroke="transparent" points="39,-186.2 39,-313.2 189,-313.2 189,-186.2 39,-186.2"/>
<polygon fill="#f5f5f5" stroke="transparent" points="39,-289.7 39,-312.7 189,-312.7 189,-289.7 39,-289.7"/>
<polygon fill="none" stroke="#000000" points="39,-289.7 39,-312.7 189,-312.7 189,-289.7 39,-289.7"/>
<text text-anchor="start" x="44" y="-298.3" font-family="Helvetica,sans-Serif" font-weight="bold" font-size="11.00" fill="#000000">accompanied_by</text>
<text text-anchor="start" x="154.5219" y="-297.8" font-family="Helvetica,sans-Serif" font-size="11.00" fill="#000000">[table]</text>
<polygon fill="none" stroke="#000000" points="39,-267.7 39,-289.7 189,-289.7 189,-267.7 39,-267.7"/>
<image xlink:href="../../images/primaryKeys.png" width="11px" height="12px" preserveAspectRatio="xMinYMin meet" x="44" y="-284.7"/>
<text text-anchor="start" x="63" y="-274.8" font-family="Helvetica,sans-Serif" font-size="11.00" fill="#000000">id</text>
<polygon fill="#ffffff" stroke="transparent" points="39,-245.7 39,-267.7 189,-267.7 189,-245.7 39,-245.7"/>
<polygon fill="none" stroke="#000000" points="39,-245.7 39,-267.7 189,-267.7 189,-245.7 39,-245.7"/>
<text text-anchor="start" x="63" y="-252.8" font-family="Helvetica,sans-Serif" font-size="11.00" fill="#000000">code</text>
<polygon fill="#ffffff" stroke="transparent" points="39,-223.7 39,-245.7 189,-245.7 189,-223.7 39,-223.7"/>
<polygon fill="none" stroke="#000000" points="39,-223.7 39,-245.7 189,-245.7 189,-223.7 39,-223.7"/>
<text text-anchor="start" x="63" y="-230.8" font-family="Helvetica,sans-Serif" font-size="11.00" fill="#000000">sequence_number</text>
<polygon fill="none" stroke="#000000" points="39,-204.7 39,-223.7 189,-223.7 189,-204.7 39,-204.7"/>
<text text-anchor="start" x="42" y="-210.8" font-family="Helvetica,sans-Serif" font-size="11.00" fill="#000000">...</text>
<polygon fill="#ffffff" stroke="transparent" points="39,-185.7 39,-204.7 103,-204.7 103,-185.7 39,-185.7"/>
<polygon fill="none" stroke="#000000" points="39,-185.7 39,-204.7 103,-204.7 103,-185.7 39,-185.7"/>
<text text-anchor="start" x="42" y="-191.8" font-family="Helvetica,sans-Serif" font-size="11.00" fill="#000000"> &#160;</text>
<polygon fill="#ffffff" stroke="transparent" points="103,-185.7 103,-204.7 141,-204.7 141,-185.7 103,-185.7"/>
<polygon fill="none" stroke="#000000" points="103,-185.7 103,-204.7 141,-204.7 141,-185.7 103,-185.7"/>
<text text-anchor="start" x="131.8862" y="-191.8" font-family="Helvetica,sans-Serif" font-size="11.00" fill="#000000"> &#160;</text>
<polygon fill="#ffffff" stroke="transparent" points="141,-185.7 141,-204.7 189,-204.7 189,-185.7 141,-185.7"/>
<polygon fill="none" stroke="#000000" points="141,-185.7 141,-204.7 189,-204.7 189,-185.7 141,-185.7"/>
<text text-anchor="start" x="170.4053" y="-191.8" font-family="Helvetica,sans-Serif" font-size="11.00" fill="#000000">3 &gt;</text>
</a>
</g>
</g>
<!-- movement&#45;&gt;accompanied_by -->
<g id="edge2" class="edge">
<title>movement:w&#45;&gt;accompanied_by:e</title>
<path fill="none" stroke="#000000" d="M619.4951,-283.6909C433.6564,-283.4541 381.8648,-278.7 189,-278.7"/>
<polygon fill="#000000" stroke="#000000" points="626,-283.6949 633.9977,-287.3 630,-283.6974 634,-283.7 634,-283.7 634,-283.7 630,-283.6974 634.0023,-280.1 626,-283.6949 626,-283.6949"/>
<ellipse fill="none" stroke="#000000" cx="622.8" cy="-283.6929" rx="3.2" ry="3.2"/>
</g>
<!-- occurrence -->
<g id="node4" class="node">
<title>occurrence</title>
<g id="a_node4"><a xlink:href="../../tables/occurrence.html" xlink:title="occurrence" target="_top">
<polygon fill="#ffffff" stroke="transparent" points="269,-329.7 269,-815.7 585,-815.7 585,-329.7 269,-329.7"/>
<polygon fill="#f5f5f5" stroke="transparent" points="271,-790.7 271,-813.7 583,-813.7 583,-790.7 271,-790.7"/>
<polygon fill="none" stroke="#000000" points="271,-790.7 271,-813.7 583,-813.7 583,-790.7 271,-790.7"/>
<text text-anchor="start" x="276" y="-799.3" font-family="Helvetica,sans-Serif" font-weight="bold" font-size="11.00" fill="#000000">occurrence</text>
<text text-anchor="start" x="548.0437" y="-798.8" font-family="Helvetica,sans-Serif" font-size="11.00" fill="#000000">[table]</text>
<polygon fill="none" stroke="#000000" points="271,-768.7 271,-790.7 484,-790.7 484,-768.7 271,-768.7"/>
<image xlink:href="../../images/primaryKeys.png" width="11px" height="12px" preserveAspectRatio="xMinYMin meet" x="276" y="-785.7"/>
<text text-anchor="start" x="291" y="-775.8" font-family="Helvetica,sans-Serif" font-size="11.00" fill="#000000">id</text>
<polygon fill="none" stroke="#000000" points="484,-768.7 484,-790.7 583,-790.7 583,-768.7 484,-768.7"/>
<text text-anchor="start" x="487" y="-776.4" font-family="Helvetica,sans-Serif" font-size="11.00" fill="#000000">uuid[2147483647]</text>
<polygon fill="none" stroke="#000000" points="271,-746.7 271,-768.7 484,-768.7 484,-746.7 271,-746.7"/>
<text text-anchor="start" x="291" y="-753.8" font-family="Helvetica,sans-Serif" font-size="11.00" fill="#000000">version</text>
<polygon fill="none" stroke="#000000" points="484,-746.7 484,-768.7 583,-768.7 583,-746.7 484,-746.7"/>
<text text-anchor="start" x="487" y="-754.4" font-family="Helvetica,sans-Serif" font-size="11.00" fill="#000000">int4[10]</text>
<polygon fill="#ffffff" stroke="transparent" points="271,-724.7 271,-746.7 484,-746.7 484,-724.7 271,-724.7"/>
<polygon fill="none" stroke="#000000" points="271,-724.7 271,-746.7 484,-746.7 484,-724.7 271,-724.7"/>
<text text-anchor="start" x="291" y="-731.8" font-family="Helvetica,sans-Serif" font-size="11.00" fill="#000000">person_identifier</text>
<polygon fill="none" stroke="#000000" points="484,-724.7 484,-746.7 583,-746.7 583,-724.7 484,-724.7"/>
<text text-anchor="start" x="487" y="-732.4" font-family="Helvetica,sans-Serif" font-size="11.00" fill="#000000">varchar[10]</text>
<polygon fill="#ffffff" stroke="transparent" points="271,-702.7 271,-724.7 484,-724.7 484,-702.7 271,-702.7"/>
<polygon fill="none" stroke="#000000" points="271,-702.7 271,-724.7 484,-724.7 484,-702.7 271,-702.7"/>
<text text-anchor="start" x="291" y="-709.8" font-family="Helvetica,sans-Serif" font-size="11.00" fill="#000000">prison_code</text>
<polygon fill="none" stroke="#000000" points="484,-702.7 484,-724.7 583,-724.7 583,-702.7 484,-702.7"/>
<text text-anchor="start" x="487" y="-710.4" font-family="Helvetica,sans-Serif" font-size="11.00" fill="#000000">varchar[6]</text>
<polygon fill="#ffffff" stroke="transparent" points="271,-680.7 271,-702.7 484,-702.7 484,-680.7 271,-680.7"/>
<polygon fill="none" stroke="#000000" points="271,-680.7 271,-702.7 484,-702.7 484,-680.7 271,-680.7"/>
<text text-anchor="start" x="291" y="-687.8" font-family="Helvetica,sans-Serif" font-size="11.00" fill="#000000">authorisation_id</text>
<polygon fill="none" stroke="#000000" points="484,-680.7 484,-702.7 583,-702.7 583,-680.7 484,-680.7"/>
<text text-anchor="start" x="487" y="-688.4" font-family="Helvetica,sans-Serif" font-size="11.00" fill="#000000">uuid[2147483647]</text>
<polygon fill="#ffffff" stroke="transparent" points="271,-658.7 271,-680.7 484,-680.7 484,-658.7 271,-658.7"/>
<polygon fill="none" stroke="#000000" points="271,-658.7 271,-680.7 484,-680.7 484,-658.7 271,-658.7"/>
<image xlink:href="../../images/foreignKeys.png" width="11px" height="12px" preserveAspectRatio="xMinYMin meet" x="276" y="-675.7"/>
<text text-anchor="start" x="291" y="-665.8" font-family="Helvetica,sans-Serif" font-size="11.00" fill="#000000">status_id</text>
<polygon fill="none" stroke="#000000" points="484,-658.7 484,-680.7 583,-680.7 583,-658.7 484,-658.7"/>
<text text-anchor="start" x="487" y="-666.4" font-family="Helvetica,sans-Serif" font-size="11.00" fill="#000000">uuid[2147483647]</text>
<polygon fill="none" stroke="#000000" points="271,-636.7 271,-658.7 484,-658.7 484,-636.7 271,-636.7"/>
<image xlink:href="../../images/foreignKeys.png" width="11px" height="12px" preserveAspectRatio="xMinYMin meet" x="276" y="-653.7"/>
<text text-anchor="start" x="291" y="-643.8" font-family="Helvetica,sans-Serif" font-size="11.00" fill="#000000">absence_type_id</text>
<polygon fill="none" stroke="#000000" points="484,-636.7 484,-658.7 583,-658.7 583,-636.7 484,-636.7"/>
<text text-anchor="start" x="487" y="-644.4" font-family="Helvetica,sans-Serif" font-size="11.00" fill="#000000">uuid[2147483647]</text>
<polygon fill="none" stroke="#000000" points="271,-614.7 271,-636.7 484,-636.7 484,-614.7 271,-614.7"/>
<image xlink:href="../../images/foreignKeys.png" width="11px" height="12px" preserveAspectRatio="xMinYMin meet" x="276" y="-631.7"/>
<text text-anchor="start" x="291" y="-621.8" font-family="Helvetica,sans-Serif" font-size="11.00" fill="#000000">absence_sub_type_id</text>
<polygon fill="none" stroke="#000000" points="484,-614.7 484,-636.7 583,-636.7 583,-614.7 484,-614.7"/>
<text text-anchor="start" x="487" y="-622.4" font-family="Helvetica,sans-Serif" font-size="11.00" fill="#000000">uuid[2147483647]</text>
<polygon fill="none" stroke="#000000" points="271,-592.7 271,-614.7 484,-614.7 484,-592.7 271,-592.7"/>
<image xlink:href="../../images/foreignKeys.png" width="11px" height="12px" preserveAspectRatio="xMinYMin meet" x="276" y="-609.7"/>
<text text-anchor="start" x="291" y="-599.8" font-family="Helvetica,sans-Serif" font-size="11.00" fill="#000000">absence_reason_category_id</text>
<polygon fill="none" stroke="#000000" points="484,-592.7 484,-614.7 583,-614.7 583,-592.7 484,-592.7"/>
<text text-anchor="start" x="487" y="-600.4" font-family="Helvetica,sans-Serif" font-size="11.00" fill="#000000">uuid[2147483647]</text>
<polygon fill="none" stroke="#000000" points="271,-570.7 271,-592.7 484,-592.7 484,-570.7 271,-570.7"/>
<image xlink:href="../../images/foreignKeys.png" width="11px" height="12px" preserveAspectRatio="xMinYMin meet" x="276" y="-587.7"/>
<text text-anchor="start" x="291" y="-577.8" font-family="Helvetica,sans-Serif" font-size="11.00" fill="#000000">absence_reason_id</text>
<polygon fill="none" stroke="#000000" points="484,-570.7 484,-592.7 583,-592.7 583,-570.7 484,-570.7"/>
<text text-anchor="start" x="487" y="-578.4" font-family="Helvetica,sans-Serif" font-size="11.00" fill="#000000">uuid[2147483647]</text>
<polygon fill="none" stroke="#000000" points="271,-548.7 271,-570.7 484,-570.7 484,-548.7 271,-548.7"/>
<image xlink:href="../../images/foreignKeys.png" width="11px" height="12px" preserveAspectRatio="xMinYMin meet" x="276" y="-565.7"/>
<text text-anchor="start" x="291" y="-555.8" font-family="Helvetica,sans-Serif" font-size="11.00" fill="#000000">accompanied_by_id</text>
<polygon fill="none" stroke="#000000" points="484,-548.7 484,-570.7 583,-570.7 583,-548.7 484,-548.7"/>
<text text-anchor="start" x="487" y="-556.4" font-family="Helvetica,sans-Serif" font-size="11.00" fill="#000000">uuid[2147483647]</text>
<polygon fill="none" stroke="#000000" points="271,-526.7 271,-548.7 484,-548.7 484,-526.7 271,-526.7"/>
<image xlink:href="../../images/foreignKeys.png" width="11px" height="12px" preserveAspectRatio="xMinYMin meet" x="276" y="-543.7"/>
<text text-anchor="start" x="291" y="-533.8" font-family="Helvetica,sans-Serif" font-size="11.00" fill="#000000">transport_id</text>
<polygon fill="none" stroke="#000000" points="484,-526.7 484,-548.7 583,-548.7 583,-526.7 484,-526.7"/>
<text text-anchor="start" x="487" y="-534.4" font-family="Helvetica,sans-Serif" font-size="11.00" fill="#000000">uuid[2147483647]</text>
<polygon fill="#ffffff" stroke="transparent" points="271,-504.7 271,-526.7 484,-526.7 484,-504.7 271,-504.7"/>
<polygon fill="none" stroke="#000000" points="271,-504.7 271,-526.7 484,-526.7 484,-504.7 271,-504.7"/>
<text text-anchor="start" x="291" y="-511.8" font-family="Helvetica,sans-Serif" font-size="11.00" fill="#000000">start</text>
<polygon fill="none" stroke="#000000" points="484,-504.7 484,-526.7 583,-526.7 583,-504.7 484,-504.7"/>
<text text-anchor="start" x="487" y="-512.4" font-family="Helvetica,sans-Serif" font-size="11.00" fill="#000000">timestamp[29,6]</text>
<polygon fill="#ffffff" stroke="transparent" points="271,-482.7 271,-504.7 484,-504.7 484,-482.7 271,-482.7"/>
<polygon fill="none" stroke="#000000" points="271,-482.7 271,-504.7 484,-504.7 484,-482.7 271,-482.7"/>
<text text-anchor="start" x="291" y="-489.8" font-family="Helvetica,sans-Serif" font-size="11.00" fill="#000000">end</text>
<polygon fill="none" stroke="#000000" points="484,-482.7 484,-504.7 583,-504.7 583,-482.7 484,-482.7"/>
<text text-anchor="start" x="487" y="-490.4" font-family="Helvetica,sans-Serif" font-size="11.00" fill="#000000">timestamp[29,6]</text>
<polygon fill="none" stroke="#000000" points="271,-460.7 271,-482.7 484,-482.7 484,-460.7 271,-460.7"/>
<text text-anchor="start" x="291" y="-467.8" font-family="Helvetica,sans-Serif" font-size="11.00" fill="#000000">location</text>
<polygon fill="none" stroke="#000000" points="484,-460.7 484,-482.7 583,-482.7 583,-460.7 484,-460.7"/>
<text text-anchor="start" x="486.7258" y="-468.4" font-family="Helvetica,sans-Serif" font-size="11.00" fill="#000000">jsonb[2147483647]</text>
<polygon fill="none" stroke="#000000" points="271,-438.7 271,-460.7 484,-460.7 484,-438.7 271,-438.7"/>
<text text-anchor="start" x="291" y="-445.8" font-family="Helvetica,sans-Serif" font-size="11.00" fill="#000000">contact_information</text>
<polygon fill="none" stroke="#000000" points="484,-438.7 484,-460.7 583,-460.7 583,-438.7 484,-438.7"/>
<text text-anchor="start" x="487" y="-446.4" font-family="Helvetica,sans-Serif" font-size="11.00" fill="#000000">text[2147483647]</text>
<polygon fill="none" stroke="#000000" points="271,-416.7 271,-438.7 484,-438.7 484,-416.7 271,-416.7"/>
<text text-anchor="start" x="291" y="-423.8" font-family="Helvetica,sans-Serif" font-size="11.00" fill="#000000">comments</text>
<polygon fill="none" stroke="#000000" points="484,-416.7 484,-438.7 583,-438.7 583,-416.7 484,-416.7"/>
<text text-anchor="start" x="487" y="-424.4" font-family="Helvetica,sans-Serif" font-size="11.00" fill="#000000">text[2147483647]</text>
<polygon fill="none" stroke="#000000" points="271,-394.7 271,-416.7 484,-416.7 484,-394.7 271,-394.7"/>
<text text-anchor="start" x="291" y="-401.8" font-family="Helvetica,sans-Serif" font-size="11.00" fill="#000000">reason_path</text>
<polygon fill="none" stroke="#000000" points="484,-394.7 484,-416.7 583,-416.7 583,-394.7 484,-394.7"/>
<text text-anchor="start" x="486.7258" y="-402.4" font-family="Helvetica,sans-Serif" font-size="11.00" fill="#000000">jsonb[2147483647]</text>
<polygon fill="none" stroke="#000000" points="271,-372.7 271,-394.7 484,-394.7 484,-372.7 271,-372.7"/>
<text text-anchor="start" x="291" y="-379.8" font-family="Helvetica,sans-Serif" font-size="11.00" fill="#000000">schedule_reference</text>
<polygon fill="none" stroke="#000000" points="484,-372.7 484,-394.7 583,-394.7 583,-372.7 484,-372.7"/>
<text text-anchor="start" x="486.7258" y="-380.4" font-family="Helvetica,sans-Serif" font-size="11.00" fill="#000000">jsonb[2147483647]</text>
<polygon fill="#ffffff" stroke="transparent" points="271,-350.7 271,-372.7 484,-372.7 484,-350.7 271,-350.7"/>
<polygon fill="none" stroke="#000000" points="271,-350.7 271,-372.7 484,-372.7 484,-350.7 271,-350.7"/>
<text text-anchor="start" x="291" y="-357.8" font-family="Helvetica,sans-Serif" font-size="11.00" fill="#000000">legacy_id</text>
<polygon fill="none" stroke="#000000" points="484,-350.7 484,-372.7 583,-372.7 583,-350.7 484,-350.7"/>
<text text-anchor="start" x="487" y="-358.4" font-family="Helvetica,sans-Serif" font-size="11.00" fill="#000000">int8[19]</text>
<polygon fill="#ffffff" stroke="transparent" points="271,-331.7 271,-350.7 382,-350.7 382,-331.7 271,-331.7"/>
<polygon fill="none" stroke="#000000" points="271,-331.7 271,-350.7 382,-350.7 382,-331.7 271,-331.7"/>
<text text-anchor="start" x="274" y="-337.8" font-family="Helvetica,sans-Serif" font-size="11.00" fill="#000000">&lt; 7</text>
<polygon fill="#ffffff" stroke="transparent" points="382,-331.7 382,-350.7 484,-350.7 484,-331.7 382,-331.7"/>
<polygon fill="none" stroke="#000000" points="382,-331.7 382,-350.7 484,-350.7 484,-331.7 382,-331.7"/>
<text text-anchor="start" x="474.8862" y="-337.8" font-family="Helvetica,sans-Serif" font-size="11.00" fill="#000000"> &#160;</text>
<polygon fill="#ffffff" stroke="transparent" points="484,-331.7 484,-350.7 583,-350.7 583,-331.7 484,-331.7"/>
<polygon fill="none" stroke="#000000" points="484,-331.7 484,-350.7 583,-350.7 583,-331.7 484,-331.7"/>
<text text-anchor="start" x="564.4053" y="-337.8" font-family="Helvetica,sans-Serif" font-size="11.00" fill="#000000">1 &gt;</text>
<polygon fill="none" stroke="#000000" stroke-width="2" points="270,-330.7 270,-814.7 584,-814.7 584,-330.7 270,-330.7"/>
</a>
</g>
</g>
<!-- movement&#45;&gt;occurrence -->
<g id="edge3" class="edge">
<title>movement:w&#45;&gt;occurrence:e</title>
<path fill="none" stroke="#000000" d="M619.8503,-353.6823C553.0359,-397.0314 673.775,-779.7 583,-779.7"/>
<polygon fill="#000000" stroke="#000000" points="626.2992,-351.8673 634.9753,-353.1654 630.1496,-350.7837 634,-349.7 634,-349.7 634,-349.7 630.1496,-350.7837 633.0247,-346.2346 626.2992,-351.8673 626.2992,-351.8673"/>
<ellipse fill="none" stroke="#000000" cx="623.2188" cy="-352.7343" rx="3.2" ry="3.2"/>
</g>
<!-- occurrence&#45;&gt;absence_reason -->
<g id="edge5" class="edge">
<title>occurrence:w&#45;&gt;absence_reason:e</title>
<path fill="none" stroke="#000000" d="M256.3888,-579.3072C226.101,-567.1479 252.5576,-511.2396 228,-471.7 213.7248,-448.7159 214.0564,-426.7 187,-426.7"/>
<polygon fill="#000000" stroke="#000000" points="263.1052,-580.4071 270.4182,-585.2527 267.0526,-581.0535 271,-581.7 271,-581.7 271,-581.7 267.0526,-581.0535 271.5818,-578.1473 263.1052,-580.4071 263.1052,-580.4071"/>
<ellipse fill="none" stroke="#000000" cx="259.9472" cy="-579.8899" rx="3.2" ry="3.2"/>
</g>
<!-- occurrence&#45;&gt;accompanied_by -->
<g id="edge8" class="edge">
<title>occurrence:w&#45;&gt;accompanied_by:e</title>
<path fill="none" stroke="#000000" d="M257.2897,-554.2278C223.8862,-522.9687 248.7095,-366.8848 228,-323.7 216.556,-299.8362 215.4659,-278.7 189,-278.7"/>
<polygon fill="#000000" stroke="#000000" points="263.57,-556.7344 269.6655,-563.0435 267.285,-558.2172 271,-559.7 271,-559.7 271,-559.7 267.285,-558.2172 272.3345,-556.3565 263.57,-556.7344 263.57,-556.7344"/>
<ellipse fill="none" stroke="#000000" cx="260.5979" cy="-555.5482" rx="3.2" ry="3.2"/>
</g>
<!-- absence_reason_category -->
<g id="node5" class="node">
<title>absence_reason_category</title>
<g id="a_node5"><a xlink:href="../../tables/absence_reason_category.html" xlink:title="absence_reason_category" target="_top">
<polygon fill="#ffffff" stroke="transparent" points="8,-482.2 8,-609.2 220,-609.2 220,-482.2 8,-482.2"/>
<polygon fill="#f5f5f5" stroke="transparent" points="8,-585.7 8,-608.7 220,-608.7 220,-585.7 8,-585.7"/>
<polygon fill="none" stroke="#000000" points="8,-585.7 8,-608.7 220,-608.7 220,-585.7 8,-585.7"/>
<text text-anchor="start" x="13" y="-594.3" font-family="Helvetica,sans-Serif" font-weight="bold" font-size="11.00" fill="#000000">absence_reason_category</text>
<text text-anchor="start" x="185.5219" y="-593.8" font-family="Helvetica,sans-Serif" font-size="11.00" fill="#000000">[table]</text>
<polygon fill="none" stroke="#000000" points="8,-563.7 8,-585.7 220,-585.7 220,-563.7 8,-563.7"/>
<image xlink:href="../../images/primaryKeys.png" width="11px" height="12px" preserveAspectRatio="xMinYMin meet" x="13" y="-580.7"/>
<text text-anchor="start" x="37" y="-570.8" font-family="Helvetica,sans-Serif" font-size="11.00" fill="#000000">id</text>
<polygon fill="#ffffff" stroke="transparent" points="8,-541.7 8,-563.7 220,-563.7 220,-541.7 8,-541.7"/>
<polygon fill="none" stroke="#000000" points="8,-541.7 8,-563.7 220,-563.7 220,-541.7 8,-541.7"/>
<text text-anchor="start" x="37" y="-548.8" font-family="Helvetica,sans-Serif" font-size="11.00" fill="#000000">code</text>
<polygon fill="#ffffff" stroke="transparent" points="8,-519.7 8,-541.7 220,-541.7 220,-519.7 8,-519.7"/>
<polygon fill="none" stroke="#000000" points="8,-519.7 8,-541.7 220,-541.7 220,-519.7 8,-519.7"/>
<text text-anchor="start" x="37" y="-526.8" font-family="Helvetica,sans-Serif" font-size="11.00" fill="#000000">sequence_number</text>
<polygon fill="none" stroke="#000000" points="8,-500.7 8,-519.7 220,-519.7 220,-500.7 8,-500.7"/>
<text text-anchor="start" x="11" y="-506.8" font-family="Helvetica,sans-Serif" font-size="11.00" fill="#000000">...</text>
<polygon fill="#ffffff" stroke="transparent" points="8,-481.7 8,-500.7 103,-500.7 103,-481.7 8,-481.7"/>
<polygon fill="none" stroke="#000000" points="8,-481.7 8,-500.7 103,-500.7 103,-481.7 8,-481.7"/>
<text text-anchor="start" x="11" y="-487.8" font-family="Helvetica,sans-Serif" font-size="11.00" fill="#000000"> &#160;</text>
<polygon fill="#ffffff" stroke="transparent" points="103,-481.7 103,-500.7 157,-500.7 157,-481.7 103,-481.7"/>
<polygon fill="none" stroke="#000000" points="103,-481.7 103,-500.7 157,-500.7 157,-481.7 103,-481.7"/>
<text text-anchor="start" x="147.8862" y="-487.8" font-family="Helvetica,sans-Serif" font-size="11.00" fill="#000000"> &#160;</text>
<polygon fill="#ffffff" stroke="transparent" points="157,-481.7 157,-500.7 220,-500.7 220,-481.7 157,-481.7"/>
<polygon fill="none" stroke="#000000" points="157,-481.7 157,-500.7 220,-500.7 220,-481.7 157,-481.7"/>
<text text-anchor="start" x="201.4053" y="-487.8" font-family="Helvetica,sans-Serif" font-size="11.00" fill="#000000">2 &gt;</text>
</a>
</g>
</g>
<!-- occurrence&#45;&gt;absence_reason_category -->
<g id="edge4" class="edge">
<title>occurrence:w&#45;&gt;absence_reason_category:e</title>
<path fill="none" stroke="#000000" d="M256.8364,-599.9088C244.0486,-592.048 240.1673,-574.7 220,-574.7"/>
<polygon fill="#000000" stroke="#000000" points="263.2721,-601.6314 270.0691,-607.1776 267.136,-602.6657 271,-603.7 271,-603.7 271,-603.7 267.136,-602.6657 271.9309,-600.2224 263.2721,-601.6314 263.2721,-601.6314"/>
<ellipse fill="none" stroke="#000000" cx="260.1809" cy="-600.8039" rx="3.2" ry="3.2"/>
</g>
<!-- absence_sub_type -->
<g id="node6" class="node">
<title>absence_sub_type</title>
<g id="a_node6"><a xlink:href="../../tables/absence_sub_type.html" xlink:title="absence_sub_type" target="_top">
<polygon fill="#ffffff" stroke="transparent" points="33.5,-630.2 33.5,-757.2 194.5,-757.2 194.5,-630.2 33.5,-630.2"/>
<polygon fill="#f5f5f5" stroke="transparent" points="34,-733.7 34,-756.7 195,-756.7 195,-733.7 34,-733.7"/>
<polygon fill="none" stroke="#000000" points="34,-733.7 34,-756.7 195,-756.7 195,-733.7 34,-733.7"/>
<text text-anchor="start" x="39" y="-742.3" font-family="Helvetica,sans-Serif" font-weight="bold" font-size="11.00" fill="#000000">absence_sub_type</text>
<text text-anchor="start" x="160.5219" y="-741.8" font-family="Helvetica,sans-Serif" font-size="11.00" fill="#000000">[table]</text>
<polygon fill="none" stroke="#000000" points="34,-711.7 34,-733.7 195,-733.7 195,-711.7 34,-711.7"/>
<image xlink:href="../../images/primaryKeys.png" width="11px" height="12px" preserveAspectRatio="xMinYMin meet" x="39" y="-728.7"/>
<text text-anchor="start" x="63" y="-718.8" font-family="Helvetica,sans-Serif" font-size="11.00" fill="#000000">id</text>
<polygon fill="#ffffff" stroke="transparent" points="34,-689.7 34,-711.7 195,-711.7 195,-689.7 34,-689.7"/>
<polygon fill="none" stroke="#000000" points="34,-689.7 34,-711.7 195,-711.7 195,-689.7 34,-689.7"/>
<text text-anchor="start" x="63" y="-696.8" font-family="Helvetica,sans-Serif" font-size="11.00" fill="#000000">code</text>
<polygon fill="#ffffff" stroke="transparent" points="34,-667.7 34,-689.7 195,-689.7 195,-667.7 34,-667.7"/>
<polygon fill="none" stroke="#000000" points="34,-667.7 34,-689.7 195,-689.7 195,-667.7 34,-667.7"/>
<text text-anchor="start" x="63" y="-674.8" font-family="Helvetica,sans-Serif" font-size="11.00" fill="#000000">sequence_number</text>
<polygon fill="none" stroke="#000000" points="34,-648.7 34,-667.7 195,-667.7 195,-648.7 34,-648.7"/>
<text text-anchor="start" x="37" y="-654.8" font-family="Helvetica,sans-Serif" font-size="11.00" fill="#000000">...</text>
<polygon fill="#ffffff" stroke="transparent" points="34,-629.7 34,-648.7 104,-648.7 104,-629.7 34,-629.7"/>
<polygon fill="none" stroke="#000000" points="34,-629.7 34,-648.7 104,-648.7 104,-629.7 34,-629.7"/>
<text text-anchor="start" x="37" y="-635.8" font-family="Helvetica,sans-Serif" font-size="11.00" fill="#000000"> &#160;</text>
<polygon fill="#ffffff" stroke="transparent" points="104,-629.7 104,-648.7 145,-648.7 145,-629.7 104,-629.7"/>
<polygon fill="none" stroke="#000000" points="104,-629.7 104,-648.7 145,-648.7 145,-629.7 104,-629.7"/>
<text text-anchor="start" x="135.8862" y="-635.8" font-family="Helvetica,sans-Serif" font-size="11.00" fill="#000000"> &#160;</text>
<polygon fill="#ffffff" stroke="transparent" points="145,-629.7 145,-648.7 195,-648.7 195,-629.7 145,-629.7"/>
<polygon fill="none" stroke="#000000" points="145,-629.7 145,-648.7 195,-648.7 195,-629.7 145,-629.7"/>
<text text-anchor="start" x="176.4053" y="-635.8" font-family="Helvetica,sans-Serif" font-size="11.00" fill="#000000">2 &gt;</text>
</a>
</g>
</g>
<!-- occurrence&#45;&gt;absence_sub_type -->
<g id="edge6" class="edge">
<title>occurrence:w&#45;&gt;absence_sub_type:e</title>
<path fill="none" stroke="#000000" d="M256.8605,-628.4984C222.1333,-644.4026 244.2054,-722.7 195,-722.7"/>
<polygon fill="#000000" stroke="#000000" points="263.1522,-627.2532 271.699,-629.2315 267.0761,-626.4766 271,-625.7 271,-625.7 271,-625.7 267.0761,-626.4766 270.301,-622.1685 263.1522,-627.2532 263.1522,-627.2532"/>
<ellipse fill="none" stroke="#000000" cx="260.0131" cy="-627.8745" rx="3.2" ry="3.2"/>
</g>
<!-- absence_type -->
<g id="node7" class="node">
<title>absence_type</title>
<g id="a_node7"><a xlink:href="../../tables/absence_type.html" xlink:title="absence_type" target="_top">
<polygon fill="#ffffff" stroke="transparent" points="42.5,-778.2 42.5,-905.2 185.5,-905.2 185.5,-778.2 42.5,-778.2"/>
<polygon fill="#f5f5f5" stroke="transparent" points="43,-881.7 43,-904.7 186,-904.7 186,-881.7 43,-881.7"/>
<polygon fill="none" stroke="#000000" points="43,-881.7 43,-904.7 186,-904.7 186,-881.7 43,-881.7"/>
<text text-anchor="start" x="48" y="-890.3" font-family="Helvetica,sans-Serif" font-weight="bold" font-size="11.00" fill="#000000">absence_type</text>
<text text-anchor="start" x="151.0437" y="-889.8" font-family="Helvetica,sans-Serif" font-size="11.00" fill="#000000">[table]</text>
<polygon fill="none" stroke="#000000" points="43,-859.7 43,-881.7 186,-881.7 186,-859.7 43,-859.7"/>
<image xlink:href="../../images/primaryKeys.png" width="11px" height="12px" preserveAspectRatio="xMinYMin meet" x="48" y="-876.7"/>
<text text-anchor="start" x="63" y="-866.8" font-family="Helvetica,sans-Serif" font-size="11.00" fill="#000000">id</text>
<polygon fill="#ffffff" stroke="transparent" points="43,-837.7 43,-859.7 186,-859.7 186,-837.7 43,-837.7"/>
<polygon fill="none" stroke="#000000" points="43,-837.7 43,-859.7 186,-859.7 186,-837.7 43,-837.7"/>
<text text-anchor="start" x="63" y="-844.8" font-family="Helvetica,sans-Serif" font-size="11.00" fill="#000000">code</text>
<polygon fill="#ffffff" stroke="transparent" points="43,-815.7 43,-837.7 186,-837.7 186,-815.7 43,-815.7"/>
<polygon fill="none" stroke="#000000" points="43,-815.7 43,-837.7 186,-837.7 186,-815.7 43,-815.7"/>
<text text-anchor="start" x="63" y="-822.8" font-family="Helvetica,sans-Serif" font-size="11.00" fill="#000000">sequence_number</text>
<polygon fill="none" stroke="#000000" points="43,-796.7 43,-815.7 186,-815.7 186,-796.7 43,-796.7"/>
<text text-anchor="start" x="46" y="-802.8" font-family="Helvetica,sans-Serif" font-size="11.00" fill="#000000">...</text>
<polygon fill="#ffffff" stroke="transparent" points="43,-777.7 43,-796.7 104,-796.7 104,-777.7 43,-777.7"/>
<polygon fill="none" stroke="#000000" points="43,-777.7 43,-796.7 104,-796.7 104,-777.7 43,-777.7"/>
<text text-anchor="start" x="46" y="-783.8" font-family="Helvetica,sans-Serif" font-size="11.00" fill="#000000"> &#160;</text>
<polygon fill="#ffffff" stroke="transparent" points="104,-777.7 104,-796.7 140,-796.7 140,-777.7 104,-777.7"/>
<polygon fill="none" stroke="#000000" points="104,-777.7 104,-796.7 140,-796.7 140,-777.7 104,-777.7"/>
<text text-anchor="start" x="130.8862" y="-783.8" font-family="Helvetica,sans-Serif" font-size="11.00" fill="#000000"> &#160;</text>
<polygon fill="#ffffff" stroke="transparent" points="140,-777.7 140,-796.7 186,-796.7 186,-777.7 140,-777.7"/>
<polygon fill="none" stroke="#000000" points="140,-777.7 140,-796.7 186,-796.7 186,-777.7 140,-777.7"/>
<text text-anchor="start" x="167.4053" y="-783.8" font-family="Helvetica,sans-Serif" font-size="11.00" fill="#000000">2 &gt;</text>
</a>
</g>
</g>
<!-- occurrence&#45;&gt;absence_type -->
<g id="edge7" class="edge">
<title>occurrence:w&#45;&gt;absence_type:e</title>
<path fill="none" stroke="#000000" d="M256.3891,-649.691C220.6752,-661.1816 246.1988,-720.1645 228,-767.7 210.3242,-813.8694 235.4373,-870.7 186,-870.7"/>
<polygon fill="#000000" stroke="#000000" points="263.0733,-648.7802 271.4861,-651.267 267.0366,-648.2401 271,-647.7 271,-647.7 271,-647.7 267.0366,-648.2401 270.5139,-644.133 263.0733,-648.7802 263.0733,-648.7802"/>
<ellipse fill="none" stroke="#000000" cx="259.9026" cy="-649.2123" rx="3.2" ry="3.2"/>
</g>
<!-- occurrence_status -->
<g id="node8" class="node">
<title>occurrence_status</title>
<g id="a_node8"><a xlink:href="../../tables/occurrence_status.html" xlink:title="occurrence_status" target="_top">
<polygon fill="#ffffff" stroke="transparent" points="33,-926.2 33,-1053.2 195,-1053.2 195,-926.2 33,-926.2"/>
<polygon fill="#f5f5f5" stroke="transparent" points="33,-1029.7 33,-1052.7 195,-1052.7 195,-1029.7 33,-1029.7"/>
<polygon fill="none" stroke="#000000" points="33,-1029.7 33,-1052.7 195,-1052.7 195,-1029.7 33,-1029.7"/>
<text text-anchor="start" x="38" y="-1038.3" font-family="Helvetica,sans-Serif" font-weight="bold" font-size="11.00" fill="#000000">occurrence_status</text>
<text text-anchor="start" x="160.5219" y="-1037.8" font-family="Helvetica,sans-Serif" font-size="11.00" fill="#000000">[table]</text>
<polygon fill="none" stroke="#000000" points="33,-1007.7 33,-1029.7 195,-1029.7 195,-1007.7 33,-1007.7"/>
<image xlink:href="../../images/primaryKeys.png" width="11px" height="12px" preserveAspectRatio="xMinYMin meet" x="38" y="-1024.7"/>
<text text-anchor="start" x="62" y="-1014.8" font-family="Helvetica,sans-Serif" font-size="11.00" fill="#000000">id</text>
<polygon fill="#ffffff" stroke="transparent" points="33,-985.7 33,-1007.7 195,-1007.7 195,-985.7 33,-985.7"/>
<polygon fill="none" stroke="#000000" points="33,-985.7 33,-1007.7 195,-1007.7 195,-985.7 33,-985.7"/>
<text text-anchor="start" x="62" y="-992.8" font-family="Helvetica,sans-Serif" font-size="11.00" fill="#000000">code</text>
<polygon fill="#ffffff" stroke="transparent" points="33,-963.7 33,-985.7 195,-985.7 195,-963.7 33,-963.7"/>
<polygon fill="none" stroke="#000000" points="33,-963.7 33,-985.7 195,-985.7 195,-963.7 33,-963.7"/>
<text text-anchor="start" x="62" y="-970.8" font-family="Helvetica,sans-Serif" font-size="11.00" fill="#000000">sequence_number</text>
<polygon fill="none" stroke="#000000" points="33,-944.7 33,-963.7 195,-963.7 195,-944.7 33,-944.7"/>
<text text-anchor="start" x="36" y="-950.8" font-family="Helvetica,sans-Serif" font-size="11.00" fill="#000000">...</text>
<polygon fill="#ffffff" stroke="transparent" points="33,-925.7 33,-944.7 103,-944.7 103,-925.7 33,-925.7"/>
<polygon fill="none" stroke="#000000" points="33,-925.7 33,-944.7 103,-944.7 103,-925.7 33,-925.7"/>
<text text-anchor="start" x="36" y="-931.8" font-family="Helvetica,sans-Serif" font-size="11.00" fill="#000000"> &#160;</text>
<polygon fill="#ffffff" stroke="transparent" points="103,-925.7 103,-944.7 144,-944.7 144,-925.7 103,-925.7"/>
<polygon fill="none" stroke="#000000" points="103,-925.7 103,-944.7 144,-944.7 144,-925.7 103,-925.7"/>
<text text-anchor="start" x="134.8862" y="-931.8" font-family="Helvetica,sans-Serif" font-size="11.00" fill="#000000"> &#160;</text>
<polygon fill="#ffffff" stroke="transparent" points="144,-925.7 144,-944.7 195,-944.7 195,-925.7 144,-925.7"/>
<polygon fill="none" stroke="#000000" points="144,-925.7 144,-944.7 195,-944.7 195,-925.7 144,-925.7"/>
<text text-anchor="start" x="176.4053" y="-931.8" font-family="Helvetica,sans-Serif" font-size="11.00" fill="#000000">1 &gt;</text>
</a>
</g>
</g>
<!-- occurrence&#45;&gt;occurrence_status -->
<g id="edge9" class="edge">
<title>occurrence:w&#45;&gt;occurrence_status:e</title>
<path fill="none" stroke="#000000" d="M257.2372,-674.1126C201.9017,-714.5125 269.1023,-1018.7 195,-1018.7"/>
<polygon fill="#000000" stroke="#000000" points="263.382,-672.1425 272.0991,-673.1281 267.191,-670.9213 271,-669.7 271,-669.7 271,-669.7 267.191,-670.9213 269.9009,-666.2719 263.382,-672.1425 263.382,-672.1425"/>
<ellipse fill="none" stroke="#000000" cx="260.3348" cy="-673.1195" rx="3.2" ry="3.2"/>
</g>
<!-- transport -->
<g id="node9" class="node">
<title>transport</title>
<g id="a_node9"><a xlink:href="../../tables/transport.html" xlink:title="transport" target="_top">
<polygon fill="#ffffff" stroke="transparent" points="42.5,-38.2 42.5,-165.2 185.5,-165.2 185.5,-38.2 42.5,-38.2"/>
<polygon fill="#f5f5f5" stroke="transparent" points="43,-141.7 43,-164.7 186,-164.7 186,-141.7 43,-141.7"/>
<polygon fill="none" stroke="#000000" points="43,-141.7 43,-164.7 186,-164.7 186,-141.7 43,-141.7"/>
<text text-anchor="start" x="48" y="-150.3" font-family="Helvetica,sans-Serif" font-weight="bold" font-size="11.00" fill="#000000">transport</text>
<text text-anchor="start" x="151.0437" y="-149.8" font-family="Helvetica,sans-Serif" font-size="11.00" fill="#000000">[table]</text>
<polygon fill="none" stroke="#000000" points="43,-119.7 43,-141.7 186,-141.7 186,-119.7 43,-119.7"/>
<image xlink:href="../../images/primaryKeys.png" width="11px" height="12px" preserveAspectRatio="xMinYMin meet" x="48" y="-136.7"/>
<text text-anchor="start" x="63" y="-126.8" font-family="Helvetica,sans-Serif" font-size="11.00" fill="#000000">id</text>
<polygon fill="#ffffff" stroke="transparent" points="43,-97.7 43,-119.7 186,-119.7 186,-97.7 43,-97.7"/>
<polygon fill="none" stroke="#000000" points="43,-97.7 43,-119.7 186,-119.7 186,-97.7 43,-97.7"/>
<text text-anchor="start" x="63" y="-104.8" font-family="Helvetica,sans-Serif" font-size="11.00" fill="#000000">code</text>
<polygon fill="#ffffff" stroke="transparent" points="43,-75.7 43,-97.7 186,-97.7 186,-75.7 43,-75.7"/>
<polygon fill="none" stroke="#000000" points="43,-75.7 43,-97.7 186,-97.7 186,-75.7 43,-75.7"/>
<text text-anchor="start" x="63" y="-82.8" font-family="Helvetica,sans-Serif" font-size="11.00" fill="#000000">sequence_number</text>
<polygon fill="none" stroke="#000000" points="43,-56.7 43,-75.7 186,-75.7 186,-56.7 43,-56.7"/>
<text text-anchor="start" x="46" y="-62.8" font-family="Helvetica,sans-Serif" font-size="11.00" fill="#000000">...</text>
<polygon fill="#ffffff" stroke="transparent" points="43,-37.7 43,-56.7 104,-56.7 104,-37.7 43,-37.7"/>
<polygon fill="none" stroke="#000000" points="43,-37.7 43,-56.7 104,-56.7 104,-37.7 43,-37.7"/>
<text text-anchor="start" x="46" y="-43.8" font-family="Helvetica,sans-Serif" font-size="11.00" fill="#000000"> &#160;</text>
<polygon fill="#ffffff" stroke="transparent" points="104,-37.7 104,-56.7 140,-56.7 140,-37.7 104,-37.7"/>
<polygon fill="none" stroke="#000000" points="104,-37.7 104,-56.7 140,-56.7 140,-37.7 104,-37.7"/>
<text text-anchor="start" x="130.8862" y="-43.8" font-family="Helvetica,sans-Serif" font-size="11.00" fill="#000000"> &#160;</text>
<polygon fill="#ffffff" stroke="transparent" points="140,-37.7 140,-56.7 186,-56.7 186,-37.7 140,-37.7"/>
<polygon fill="none" stroke="#000000" points="140,-37.7 140,-56.7 186,-56.7 186,-37.7 140,-37.7"/>
<text text-anchor="start" x="167.4053" y="-43.8" font-family="Helvetica,sans-Serif" font-size="11.00" fill="#000000">2 &gt;</text>
</a>
</g>
</g>
<!-- occurrence&#45;&gt;transport -->
<g id="edge10" class="edge">
<title>occurrence:w&#45;&gt;transport:e</title>
<path fill="none" stroke="#000000" d="M256.8111,-534.0305C199.0997,-500.3292 259.8426,-244.3003 228,-175.7 216.4816,-150.8853 213.3577,-130.7 186,-130.7"/>
<polygon fill="#000000" stroke="#000000" points="263.2548,-535.6969 270.0986,-541.1853 267.1274,-536.6985 271,-537.7 271,-537.7 271,-537.7 267.1274,-536.6985 271.9014,-534.2147 263.2548,-535.6969 263.2548,-535.6969"/>
<ellipse fill="none" stroke="#000000" cx="260.1567" cy="-534.8957" rx="3.2" ry="3.2"/>
</g>
</g>
</svg>
