<?xml version="1.0" encoding="UTF-8" standalone="no"?>
<!DOCTYPE svg PUBLIC "-//W3C//DTD SVG 1.1//EN"
 "http://www.w3.org/Graphics/SVG/1.1/DTD/svg11.dtd">
<!-- Generated by graphviz version 2.40.1 (20161225.0304)
 -->
<!-- Title: oneDegreeRelationshipsDiagram Pages: 1 -->
<svg width="528pt" height="419pt"
 viewBox="0.00 0.00 528.00 419.20" xmlns="http://www.w3.org/2000/svg" xmlns:xlink="http://www.w3.org/1999/xlink">
<g id="graph0" class="graph" transform="scale(1 1) rotate(0) translate(4 415.2)">
<title>oneDegreeRelationshipsDiagram</title>
<polygon fill="#ffffff" stroke="transparent" points="-4,4 -4,-415.2 524,-415.2 524,4 -4,4"/>
<text text-anchor="middle" x="72.4936" y="-7.3" font-family="Helvetica,sans-Serif" font-size="11.00" fill="#000000">Generated by SchemaSpy</text>
<!-- occurrence -->
<g id="node1" class="node">
<title>occurrence</title>
<g id="a_node1"><a xlink:href="../../tables/occurrence.html" xlink:title="occurrence" target="_top">
<polygon fill="#ffffff" stroke="transparent" points="299,-38.2 299,-407.2 512,-407.2 512,-38.2 299,-38.2"/>
<polygon fill="#f5f5f5" stroke="transparent" points="299.5,-383.7 299.5,-406.7 512.5,-406.7 512.5,-383.7 299.5,-383.7"/>
<polygon fill="none" stroke="#000000" points="299.5,-383.7 299.5,-406.7 512.5,-406.7 512.5,-383.7 299.5,-383.7"/>
<text text-anchor="start" x="304.5" y="-392.3" font-family="Helvetica,sans-Serif" font-weight="bold" font-size="11.00" fill="#000000">occurrence</text>
<text text-anchor="start" x="477.5437" y="-391.8" font-family="Helvetica,sans-Serif" font-size="11.00" fill="#000000">[table]</text>
<polygon fill="none" stroke="#000000" points="299.5,-361.7 299.5,-383.7 512.5,-383.7 512.5,-361.7 299.5,-361.7"/>
<image xlink:href="../../images/primaryKeys.png" width="11px" height="12px" preserveAspectRatio="xMinYMin meet" x="304.5" y="-378.7"/>
<text text-anchor="start" x="319.5" y="-368.8" font-family="Helvetica,sans-Serif" font-size="11.00" fill="#000000">id</text>
<polygon fill="#ffffff" stroke="transparent" points="299.5,-339.7 299.5,-361.7 512.5,-361.7 512.5,-339.7 299.5,-339.7"/>
<polygon fill="none" stroke="#000000" points="299.5,-339.7 299.5,-361.7 512.5,-361.7 512.5,-339.7 299.5,-339.7"/>
<image xlink:href="../../images/foreignKeys.png" width="11px" height="12px" preserveAspectRatio="xMinYMin meet" x="304.5" y="-356.7"/>
<text text-anchor="start" x="319.5" y="-346.8" font-family="Helvetica,sans-Serif" font-size="11.00" fill="#000000">person_identifier</text>
<polygon fill="#ffffff" stroke="transparent" points="299.5,-317.7 299.5,-339.7 512.5,-339.7 512.5,-317.7 299.5,-317.7"/>
<polygon fill="none" stroke="#000000" points="299.5,-317.7 299.5,-339.7 512.5,-339.7 512.5,-317.7 299.5,-317.7"/>
<text text-anchor="start" x="319.5" y="-324.8" font-family="Helvetica,sans-Serif" font-size="11.00" fill="#000000">prison_code</text>
<polygon fill="#ffffff" stroke="transparent" points="299.5,-295.7 299.5,-317.7 512.5,-317.7 512.5,-295.7 299.5,-295.7"/>
<polygon fill="none" stroke="#000000" points="299.5,-295.7 299.5,-317.7 512.5,-317.7 512.5,-295.7 299.5,-295.7"/>
<text text-anchor="start" x="319.5" y="-302.8" font-family="Helvetica,sans-Serif" font-size="11.00" fill="#000000">authorisation_id</text>
<polygon fill="#ffffff" stroke="transparent" points="299.5,-273.7 299.5,-295.7 512.5,-295.7 512.5,-273.7 299.5,-273.7"/>
<polygon fill="none" stroke="#000000" points="299.5,-273.7 299.5,-295.7 512.5,-295.7 512.5,-273.7 299.5,-273.7"/>
<image xlink:href="../../images/foreignKeys.png" width="11px" height="12px" preserveAspectRatio="xMinYMin meet" x="304.5" y="-290.7"/>
<text text-anchor="start" x="319.5" y="-280.8" font-family="Helvetica,sans-Serif" font-size="11.00" fill="#000000">status_id</text>
<polygon fill="none" stroke="#000000" points="299.5,-251.7 299.5,-273.7 512.5,-273.7 512.5,-251.7 299.5,-251.7"/>
<image xlink:href="../../images/foreignKeys.png" width="11px" height="12px" preserveAspectRatio="xMinYMin meet" x="304.5" y="-268.7"/>
<text text-anchor="start" x="319.5" y="-258.8" font-family="Helvetica,sans-Serif" font-size="11.00" fill="#000000">absence_type_id</text>
<polygon fill="none" stroke="#000000" points="299.5,-229.7 299.5,-251.7 512.5,-251.7 512.5,-229.7 299.5,-229.7"/>
<image xlink:href="../../images/foreignKeys.png" width="11px" height="12px" preserveAspectRatio="xMinYMin meet" x="304.5" y="-246.7"/>
<text text-anchor="start" x="319.5" y="-236.8" font-family="Helvetica,sans-Serif" font-size="11.00" fill="#000000">absence_sub_type_id</text>
<polygon fill="none" stroke="#000000" points="299.5,-207.7 299.5,-229.7 512.5,-229.7 512.5,-207.7 299.5,-207.7"/>
<image xlink:href="../../images/foreignKeys.png" width="11px" height="12px" preserveAspectRatio="xMinYMin meet" x="304.5" y="-224.7"/>
<text text-anchor="start" x="319.5" y="-214.8" font-family="Helvetica,sans-Serif" font-size="11.00" fill="#000000">absence_reason_category_id</text>
<polygon fill="none" stroke="#000000" points="299.5,-185.7 299.5,-207.7 512.5,-207.7 512.5,-185.7 299.5,-185.7"/>
<image xlink:href="../../images/foreignKeys.png" width="11px" height="12px" preserveAspectRatio="xMinYMin meet" x="304.5" y="-202.7"/>
<text text-anchor="start" x="319.5" y="-192.8" font-family="Helvetica,sans-Serif" font-size="11.00" fill="#000000">absence_reason_id</text>
<polygon fill="none" stroke="#000000" points="299.5,-163.7 299.5,-185.7 512.5,-185.7 512.5,-163.7 299.5,-163.7"/>
<image xlink:href="../../images/foreignKeys.png" width="11px" height="12px" preserveAspectRatio="xMinYMin meet" x="304.5" y="-180.7"/>
<text text-anchor="start" x="319.5" y="-170.8" font-family="Helvetica,sans-Serif" font-size="11.00" fill="#000000">accompanied_by_id</text>
<polygon fill="none" stroke="#000000" points="299.5,-141.7 299.5,-163.7 512.5,-163.7 512.5,-141.7 299.5,-141.7"/>
<image xlink:href="../../images/foreignKeys.png" width="11px" height="12px" preserveAspectRatio="xMinYMin meet" x="304.5" y="-158.7"/>
<text text-anchor="start" x="319.5" y="-148.8" font-family="Helvetica,sans-Serif" font-size="11.00" fill="#000000">transport_id</text>
<polygon fill="#ffffff" stroke="transparent" points="299.5,-119.7 299.5,-141.7 512.5,-141.7 512.5,-119.7 299.5,-119.7"/>
<polygon fill="none" stroke="#000000" points="299.5,-119.7 299.5,-141.7 512.5,-141.7 512.5,-119.7 299.5,-119.7"/>
<text text-anchor="start" x="319.5" y="-126.8" font-family="Helvetica,sans-Serif" font-size="11.00" fill="#000000">start</text>
<polygon fill="#ffffff" stroke="transparent" points="299.5,-97.7 299.5,-119.7 512.5,-119.7 512.5,-97.7 299.5,-97.7"/>
<polygon fill="none" stroke="#000000" points="299.5,-97.7 299.5,-119.7 512.5,-119.7 512.5,-97.7 299.5,-97.7"/>
<text text-anchor="start" x="319.5" y="-104.8" font-family="Helvetica,sans-Serif" font-size="11.00" fill="#000000">end</text>
<polygon fill="#ffffff" stroke="transparent" points="299.5,-75.7 299.5,-97.7 512.5,-97.7 512.5,-75.7 299.5,-75.7"/>
<polygon fill="none" stroke="#000000" points="299.5,-75.7 299.5,-97.7 512.5,-97.7 512.5,-75.7 299.5,-75.7"/>
<text text-anchor="start" x="319.5" y="-82.8" font-family="Helvetica,sans-Serif" font-size="11.00" fill="#000000">legacy_id</text>
<polygon fill="none" stroke="#000000" points="299.5,-56.7 299.5,-75.7 512.5,-75.7 512.5,-56.7 299.5,-56.7"/>
<text text-anchor="start" x="302.5" y="-62.8" font-family="Helvetica,sans-Serif" font-size="11.00" fill="#000000">...</text>
<polygon fill="#ffffff" stroke="transparent" points="299.5,-37.7 299.5,-56.7 399.5,-56.7 399.5,-37.7 299.5,-37.7"/>
<polygon fill="none" stroke="#000000" points="299.5,-37.7 299.5,-56.7 399.5,-56.7 399.5,-37.7 299.5,-37.7"/>
<text text-anchor="start" x="302.5" y="-43.8" font-family="Helvetica,sans-Serif" font-size="11.00" fill="#000000">&lt; 8</text>
<polygon fill="#ffffff" stroke="transparent" points="399.5,-37.7 399.5,-56.7 451.5,-56.7 451.5,-37.7 399.5,-37.7"/>
<polygon fill="none" stroke="#000000" points="399.5,-37.7 399.5,-56.7 451.5,-56.7 451.5,-37.7 399.5,-37.7"/>
<text text-anchor="start" x="442.3862" y="-43.8" font-family="Helvetica,sans-Serif" font-size="11.00" fill="#000000"> &#160;</text>
<polygon fill="#ffffff" stroke="transparent" points="451.5,-37.7 451.5,-56.7 512.5,-56.7 512.5,-37.7 451.5,-37.7"/>
<polygon fill="none" stroke="#000000" points="451.5,-37.7 451.5,-56.7 512.5,-56.7 512.5,-37.7 451.5,-37.7"/>
<text text-anchor="start" x="493.9053" y="-43.8" font-family="Helvetica,sans-Serif" font-size="11.00" fill="#000000">1 &gt;</text>
</a>
</g>
</g>
<!-- occurrence_status -->
<g id="node2" class="node">
<title>occurrence_status</title>
<g id="a_node2"><a xlink:href="../../tables/occurrence_status.html" xlink:title="occurrence_status" target="_top">
<polygon fill="#ffffff" stroke="transparent" points="8,-164.7 8,-320.7 250,-320.7 250,-164.7 8,-164.7"/>
<polygon fill="#f5f5f5" stroke="transparent" points="10,-295.7 10,-318.7 248,-318.7 248,-295.7 10,-295.7"/>
<polygon fill="none" stroke="#000000" points="10,-295.7 10,-318.7 248,-318.7 248,-295.7 10,-295.7"/>
<text text-anchor="start" x="15" y="-304.3" font-family="Helvetica,sans-Serif" font-weight="bold" font-size="11.00" fill="#000000">occurrence_status</text>
<text text-anchor="start" x="213.0437" y="-303.8" font-family="Helvetica,sans-Serif" font-size="11.00" fill="#000000">[table]</text>
<polygon fill="none" stroke="#000000" points="10,-273.7 10,-295.7 154,-295.7 154,-273.7 10,-273.7"/>
<image xlink:href="../../images/primaryKeys.png" width="11px" height="12px" preserveAspectRatio="xMinYMin meet" x="15" y="-290.7"/>
<text text-anchor="start" x="30" y="-280.8" font-family="Helvetica,sans-Serif" font-size="11.00" fill="#000000">id</text>
<polygon fill="none" stroke="#000000" points="154,-273.7 154,-295.7 248,-295.7 248,-273.7 154,-273.7"/>
<text text-anchor="start" x="156.9758" y="-281.4" font-family="Helvetica,sans-Serif" font-size="11.00" fill="#000000">uuid[2147483647]</text>
<polygon fill="#ffffff" stroke="transparent" points="10,-251.7 10,-273.7 154,-273.7 154,-251.7 10,-251.7"/>
<polygon fill="none" stroke="#000000" points="10,-251.7 10,-273.7 154,-273.7 154,-251.7 10,-251.7"/>
<text text-anchor="start" x="30" y="-258.8" font-family="Helvetica,sans-Serif" font-size="11.00" fill="#000000">code</text>
<polygon fill="none" stroke="#000000" points="154,-251.7 154,-273.7 248,-273.7 248,-251.7 154,-251.7"/>
<text text-anchor="start" x="157" y="-259.4" font-family="Helvetica,sans-Serif" font-size="11.00" fill="#000000">varchar[16]</text>
<polygon fill="none" stroke="#000000" points="10,-229.7 10,-251.7 154,-251.7 154,-229.7 10,-229.7"/>
<text text-anchor="start" x="30" y="-236.8" font-family="Helvetica,sans-Serif" font-size="11.00" fill="#000000">description</text>
<polygon fill="none" stroke="#000000" points="154,-229.7 154,-251.7 248,-251.7 248,-229.7 154,-229.7"/>
<text text-anchor="start" x="157" y="-237.4" font-family="Helvetica,sans-Serif" font-size="11.00" fill="#000000">varchar[255]</text>
<polygon fill="#ffffff" stroke="transparent" points="10,-207.7 10,-229.7 154,-229.7 154,-207.7 10,-207.7"/>
<polygon fill="none" stroke="#000000" points="10,-207.7 10,-229.7 154,-229.7 154,-207.7 10,-207.7"/>
<text text-anchor="start" x="30" y="-214.8" font-family="Helvetica,sans-Serif" font-size="11.00" fill="#000000">sequence_number</text>
<polygon fill="none" stroke="#000000" points="154,-207.7 154,-229.7 248,-229.7 248,-207.7 154,-207.7"/>
<text text-anchor="start" x="157" y="-215.4" font-family="Helvetica,sans-Serif" font-size="11.00" fill="#000000">int4[10]</text>
<polygon fill="none" stroke="#000000" points="10,-185.7 10,-207.7 154,-207.7 154,-185.7 10,-185.7"/>
<text text-anchor="start" x="30" y="-192.8" font-family="Helvetica,sans-Serif" font-size="11.00" fill="#000000">active</text>
<polygon fill="none" stroke="#000000" points="154,-185.7 154,-207.7 248,-207.7 248,-185.7 154,-185.7"/>
<text text-anchor="start" x="157" y="-193.4" font-family="Helvetica,sans-Serif" font-size="11.00" fill="#000000">bool[1]</text>
<polygon fill="#ffffff" stroke="transparent" points="10,-166.7 10,-185.7 86,-185.7 86,-166.7 10,-166.7"/>
<polygon fill="none" stroke="#000000" points="10,-166.7 10,-185.7 86,-185.7 86,-166.7 10,-166.7"/>
<text text-anchor="start" x="13" y="-172.8" font-family="Helvetica,sans-Serif" font-size="11.00" fill="#000000">&lt; 0</text>
<polygon fill="#ffffff" stroke="transparent" points="86,-166.7 86,-185.7 154,-185.7 154,-166.7 86,-166.7"/>
<polygon fill="none" stroke="#000000" points="86,-166.7 86,-185.7 154,-185.7 154,-166.7 86,-166.7"/>
<text text-anchor="start" x="144.8862" y="-172.8" font-family="Helvetica,sans-Serif" font-size="11.00" fill="#000000"> &#160;</text>
<polygon fill="#ffffff" stroke="transparent" points="154,-166.7 154,-185.7 248,-185.7 248,-166.7 154,-166.7"/>
<polygon fill="none" stroke="#000000" points="154,-166.7 154,-185.7 248,-185.7 248,-166.7 154,-166.7"/>
<text text-anchor="start" x="229.4053" y="-172.8" font-family="Helvetica,sans-Serif" font-size="11.00" fill="#000000">1 &gt;</text>
<polygon fill="none" stroke="#000000" stroke-width="2" points="9,-165.7 9,-319.7 249,-319.7 249,-165.7 9,-165.7"/>
</a>
</g>
</g>
<!-- occurrence&#45;&gt;occurrence_status -->
<g id="edge1" class="edge">
<title>occurrence:w&#45;&gt;occurrence_status:e</title>
<path fill="none" stroke="#000000" d="M285.0156,-284.7C272.6771,-284.7 265.1667,-284.7 248,-284.7"/>
<polygon fill="#000000" stroke="#000000" points="291.5,-284.7001 299.5,-288.3 295.5,-284.7 299.5,-284.7 299.5,-284.7 299.5,-284.7 295.5,-284.7 299.5,-281.1 291.5,-284.7001 291.5,-284.7001"/>
<ellipse fill="none" stroke="#000000" cx="288.3" cy="-284.7001" rx="3.2" ry="3.2"/>
</g>
</g>
</svg>
