<?xml version="1.0" encoding="UTF-8" standalone="no"?>
<!DOCTYPE svg PUBLIC "-//W3C//DTD SVG 1.1//EN"
 "http://www.w3.org/Graphics/SVG/1.1/DTD/svg11.dtd">
<!-- Generated by graphviz version 2.40.1 (20161225.0304)
 -->
<!-- Title: twoDegreesRelationshipsDiagram Pages: 1 -->
<svg width="687pt" height="781pt"
 viewBox="0.00 0.00 687.00 781.20" xmlns="http://www.w3.org/2000/svg" xmlns:xlink="http://www.w3.org/1999/xlink">
<g id="graph0" class="graph" transform="scale(1 1) rotate(0) translate(4 777.2)">
<title>twoDegreesRelationshipsDiagram</title>
<polygon fill="#ffffff" stroke="transparent" points="-4,4 -4,-777.2 683,-777.2 683,4 -4,4"/>
<text text-anchor="middle" x="72.4936" y="-7.3" font-family="Helvetica,sans-Serif" font-size="11.00" fill="#000000">Generated by SchemaSpy</text>
<!-- movement -->
<g id="node1" class="node">
<title>movement</title>
<g id="a_node1"><a xlink:href="../../tables/movement.html" xlink:title="movement" target="_top">
<polygon fill="#ffffff" stroke="transparent" points="561,-530.2 561,-591.2 671,-591.2 671,-530.2 561,-530.2"/>
<polygon fill="#f5f5f5" stroke="transparent" points="561,-567.7 561,-590.7 671,-590.7 671,-567.7 561,-567.7"/>
<polygon fill="none" stroke="#000000" points="561,-567.7 561,-590.7 671,-590.7 671,-567.7 561,-567.7"/>
<text text-anchor="start" x="566" y="-576.3" font-family="Helvetica,sans-Serif" font-weight="bold" font-size="11.00" fill="#000000">movement</text>
<text text-anchor="start" x="636.5219" y="-575.8" font-family="Helvetica,sans-Serif" font-size="11.00" fill="#000000">[table]</text>
<polygon fill="none" stroke="#000000" points="561,-548.7 561,-567.7 671,-567.7 671,-548.7 561,-548.7"/>
<text text-anchor="start" x="564" y="-554.8" font-family="Helvetica,sans-Serif" font-size="11.00" fill="#000000">...</text>
<polygon fill="#ffffff" stroke="transparent" points="561,-529.7 561,-548.7 614,-548.7 614,-529.7 561,-529.7"/>
<polygon fill="none" stroke="#000000" points="561,-529.7 561,-548.7 614,-548.7 614,-529.7 561,-529.7"/>
<text text-anchor="start" x="564" y="-535.8" font-family="Helvetica,sans-Serif" font-size="11.00" fill="#000000">&lt; 4</text>
<polygon fill="#ffffff" stroke="transparent" points="614,-529.7 614,-548.7 642,-548.7 642,-529.7 614,-529.7"/>
<polygon fill="none" stroke="#000000" points="614,-529.7 614,-548.7 642,-548.7 642,-529.7 614,-529.7"/>
<text text-anchor="start" x="632.8862" y="-535.8" font-family="Helvetica,sans-Serif" font-size="11.00" fill="#000000"> &#160;</text>
<polygon fill="#ffffff" stroke="transparent" points="642,-529.7 642,-548.7 671,-548.7 671,-529.7 642,-529.7"/>
<polygon fill="none" stroke="#000000" points="642,-529.7 642,-548.7 671,-548.7 671,-529.7 642,-529.7"/>
<text text-anchor="start" x="661.8862" y="-535.8" font-family="Helvetica,sans-Serif" font-size="11.00" fill="#000000"> &#160;</text>
</a>
</g>
</g>
<!-- absence_reason -->
<g id="node2" class="node">
<title>absence_reason</title>
<g id="a_node2"><a xlink:href="../../tables/absence_reason.html" xlink:title="absence_reason" target="_top">
<polygon fill="#ffffff" stroke="transparent" points="56,-366.2 56,-427.2 202,-427.2 202,-366.2 56,-366.2"/>
<polygon fill="#f5f5f5" stroke="transparent" points="56,-403.7 56,-426.7 202,-426.7 202,-403.7 56,-403.7"/>
<polygon fill="none" stroke="#000000" points="56,-403.7 56,-426.7 202,-426.7 202,-403.7 56,-403.7"/>
<text text-anchor="start" x="61" y="-412.3" font-family="Helvetica,sans-Serif" font-weight="bold" font-size="11.00" fill="#000000">absence_reason</text>
<text text-anchor="start" x="167.5219" y="-411.8" font-family="Helvetica,sans-Serif" font-size="11.00" fill="#000000">[table]</text>
<polygon fill="none" stroke="#000000" points="56,-384.7 56,-403.7 202,-403.7 202,-384.7 56,-384.7"/>
<text text-anchor="start" x="59" y="-390.8" font-family="Helvetica,sans-Serif" font-size="11.00" fill="#000000">...</text>
<polygon fill="#ffffff" stroke="transparent" points="56,-365.7 56,-384.7 118,-384.7 118,-365.7 56,-365.7"/>
<polygon fill="none" stroke="#000000" points="56,-365.7 56,-384.7 118,-384.7 118,-365.7 56,-365.7"/>
<text text-anchor="start" x="59" y="-371.8" font-family="Helvetica,sans-Serif" font-size="11.00" fill="#000000"> &#160;</text>
<polygon fill="#ffffff" stroke="transparent" points="118,-365.7 118,-384.7 155,-384.7 155,-365.7 118,-365.7"/>
<polygon fill="none" stroke="#000000" points="118,-365.7 118,-384.7 155,-384.7 155,-365.7 118,-365.7"/>
<text text-anchor="start" x="145.8862" y="-371.8" font-family="Helvetica,sans-Serif" font-size="11.00" fill="#000000"> &#160;</text>
<polygon fill="#ffffff" stroke="transparent" points="155,-365.7 155,-384.7 202,-384.7 202,-365.7 155,-365.7"/>
<polygon fill="none" stroke="#000000" points="155,-365.7 155,-384.7 202,-384.7 202,-365.7 155,-365.7"/>
<text text-anchor="start" x="183.4053" y="-371.8" font-family="Helvetica,sans-Serif" font-size="11.00" fill="#000000">3 &gt;</text>
</a>
</g>
</g>
<!-- movement&#45;&gt;absence_reason -->
<g id="edge1" class="edge">
<title>movement:w&#45;&gt;absence_reason:e</title>
<path fill="none" stroke="#000000" d="M546.695,-560.6822C538.3934,-564.5829 533.2159,-571.2126 520,-573.7 419.9783,-592.5251 371.0042,-636.613 291,-573.7 242.1078,-535.2526 291.6395,-490.0166 258,-437.7 240.8811,-411.0764 233.6524,-393.7 202,-393.7"/>
<polygon fill="#000000" stroke="#000000" points="553.1684,-559.3327 561.7347,-561.2242 557.0842,-558.5164 561,-557.7 561,-557.7 561,-557.7 557.0842,-558.5164 560.2653,-554.1758 553.1684,-559.3327 553.1684,-559.3327"/>
<ellipse fill="none" stroke="#000000" cx="550.0357" cy="-559.9858" rx="3.2" ry="3.2"/>
</g>
<!-- accompanied_by -->
<g id="node3" class="node">
<title>accompanied_by</title>
<g id="a_node3"><a xlink:href="../../tables/accompanied_by.html" xlink:title="accompanied_by" target="_top">
<polygon fill="#ffffff" stroke="transparent" points="54,-120.2 54,-181.2 204,-181.2 204,-120.2 54,-120.2"/>
<polygon fill="#f5f5f5" stroke="transparent" points="54,-157.7 54,-180.7 204,-180.7 204,-157.7 54,-157.7"/>
<polygon fill="none" stroke="#000000" points="54,-157.7 54,-180.7 204,-180.7 204,-157.7 54,-157.7"/>
<text text-anchor="start" x="59" y="-166.3" font-family="Helvetica,sans-Serif" font-weight="bold" font-size="11.00" fill="#000000">accompanied_by</text>
<text text-anchor="start" x="169.5219" y="-165.8" font-family="Helvetica,sans-Serif" font-size="11.00" fill="#000000">[table]</text>
<polygon fill="none" stroke="#000000" points="54,-138.7 54,-157.7 204,-157.7 204,-138.7 54,-138.7"/>
<text text-anchor="start" x="57" y="-144.8" font-family="Helvetica,sans-Serif" font-size="11.00" fill="#000000">...</text>
<polygon fill="#ffffff" stroke="transparent" points="54,-119.7 54,-138.7 118,-138.7 118,-119.7 54,-119.7"/>
<polygon fill="none" stroke="#000000" points="54,-119.7 54,-138.7 118,-138.7 118,-119.7 54,-119.7"/>
<text text-anchor="start" x="57" y="-125.8" font-family="Helvetica,sans-Serif" font-size="11.00" fill="#000000"> &#160;</text>
<polygon fill="#ffffff" stroke="transparent" points="118,-119.7 118,-138.7 156,-138.7 156,-119.7 118,-119.7"/>
<polygon fill="none" stroke="#000000" points="118,-119.7 118,-138.7 156,-138.7 156,-119.7 118,-119.7"/>
<text text-anchor="start" x="146.8862" y="-125.8" font-family="Helvetica,sans-Serif" font-size="11.00" fill="#000000"> &#160;</text>
<polygon fill="#ffffff" stroke="transparent" points="156,-119.7 156,-138.7 204,-138.7 204,-119.7 156,-119.7"/>
<polygon fill="none" stroke="#000000" points="156,-119.7 156,-138.7 204,-138.7 204,-119.7 156,-119.7"/>
<text text-anchor="start" x="185.4053" y="-125.8" font-family="Helvetica,sans-Serif" font-size="11.00" fill="#000000">3 &gt;</text>
</a>
</g>
</g>
<!-- movement&#45;&gt;accompanied_by -->
<g id="edge2" class="edge">
<title>movement:w&#45;&gt;accompanied_by:e</title>
<path fill="none" stroke="#000000" d="M546.6673,-553.9195C485.8216,-516.8589 580.3495,-218.596 520,-161.7 417.7097,-65.2632 344.5822,-147.7 204,-147.7"/>
<polygon fill="#000000" stroke="#000000" points="553.2646,-555.6596 560.0818,-561.1809 557.1323,-556.6798 561,-557.7 561,-557.7 561,-557.7 557.1323,-556.6798 561.9182,-554.2191 553.2646,-555.6596 553.2646,-555.6596"/>
<ellipse fill="none" stroke="#000000" cx="550.1704" cy="-554.8434" rx="3.2" ry="3.2"/>
</g>
<!-- occurrence -->
<g id="node4" class="node">
<title>occurrence</title>
<g id="a_node4"><a xlink:href="../../tables/occurrence.html" xlink:title="occurrence" target="_top">
<polygon fill="#ffffff" stroke="transparent" points="299,-172.2 299,-563.2 512,-563.2 512,-172.2 299,-172.2"/>
<polygon fill="#f5f5f5" stroke="transparent" points="299.5,-539.7 299.5,-562.7 512.5,-562.7 512.5,-539.7 299.5,-539.7"/>
<polygon fill="none" stroke="#000000" points="299.5,-539.7 299.5,-562.7 512.5,-562.7 512.5,-539.7 299.5,-539.7"/>
<text text-anchor="start" x="304.5" y="-548.3" font-family="Helvetica,sans-Serif" font-weight="bold" font-size="11.00" fill="#000000">occurrence</text>
<text text-anchor="start" x="477.5437" y="-547.8" font-family="Helvetica,sans-Serif" font-size="11.00" fill="#000000">[table]</text>
<polygon fill="none" stroke="#000000" points="299.5,-517.7 299.5,-539.7 512.5,-539.7 512.5,-517.7 299.5,-517.7"/>
<image xlink:href="../../images/primaryKeys.png" width="11px" height="12px" preserveAspectRatio="xMinYMin meet" x="304.5" y="-534.7"/>
<text text-anchor="start" x="319.5" y="-524.8" font-family="Helvetica,sans-Serif" font-size="11.00" fill="#000000">id</text>
<polygon fill="#ffffff" stroke="transparent" points="299.5,-495.7 299.5,-517.7 512.5,-517.7 512.5,-495.7 299.5,-495.7"/>
<polygon fill="none" stroke="#000000" points="299.5,-495.7 299.5,-517.7 512.5,-517.7 512.5,-495.7 299.5,-495.7"/>
<image xlink:href="../../images/foreignKeys.png" width="11px" height="12px" preserveAspectRatio="xMinYMin meet" x="304.5" y="-512.7"/>
<text text-anchor="start" x="319.5" y="-502.8" font-family="Helvetica,sans-Serif" font-size="11.00" fill="#000000">person_identifier</text>
<polygon fill="#ffffff" stroke="transparent" points="299.5,-473.7 299.5,-495.7 512.5,-495.7 512.5,-473.7 299.5,-473.7"/>
<polygon fill="none" stroke="#000000" points="299.5,-473.7 299.5,-495.7 512.5,-495.7 512.5,-473.7 299.5,-473.7"/>
<text text-anchor="start" x="319.5" y="-480.8" font-family="Helvetica,sans-Serif" font-size="11.00" fill="#000000">prison_code</text>
<polygon fill="#ffffff" stroke="transparent" points="299.5,-451.7 299.5,-473.7 512.5,-473.7 512.5,-451.7 299.5,-451.7"/>
<polygon fill="none" stroke="#000000" points="299.5,-451.7 299.5,-473.7 512.5,-473.7 512.5,-451.7 299.5,-451.7"/>
<text text-anchor="start" x="319.5" y="-458.8" font-family="Helvetica,sans-Serif" font-size="11.00" fill="#000000">authorisation_id</text>
<polygon fill="#ffffff" stroke="transparent" points="299.5,-429.7 299.5,-451.7 512.5,-451.7 512.5,-429.7 299.5,-429.7"/>
<polygon fill="none" stroke="#000000" points="299.5,-429.7 299.5,-451.7 512.5,-451.7 512.5,-429.7 299.5,-429.7"/>
<image xlink:href="../../images/foreignKeys.png" width="11px" height="12px" preserveAspectRatio="xMinYMin meet" x="304.5" y="-446.7"/>
<text text-anchor="start" x="319.5" y="-436.8" font-family="Helvetica,sans-Serif" font-size="11.00" fill="#000000">status_id</text>
<polygon fill="none" stroke="#000000" points="299.5,-407.7 299.5,-429.7 512.5,-429.7 512.5,-407.7 299.5,-407.7"/>
<image xlink:href="../../images/foreignKeys.png" width="11px" height="12px" preserveAspectRatio="xMinYMin meet" x="304.5" y="-424.7"/>
<text text-anchor="start" x="319.5" y="-414.8" font-family="Helvetica,sans-Serif" font-size="11.00" fill="#000000">absence_type_id</text>
<polygon fill="none" stroke="#000000" points="299.5,-385.7 299.5,-407.7 512.5,-407.7 512.5,-385.7 299.5,-385.7"/>
<image xlink:href="../../images/foreignKeys.png" width="11px" height="12px" preserveAspectRatio="xMinYMin meet" x="304.5" y="-402.7"/>
<text text-anchor="start" x="319.5" y="-392.8" font-family="Helvetica,sans-Serif" font-size="11.00" fill="#000000">absence_sub_type_id</text>
<polygon fill="none" stroke="#000000" points="299.5,-363.7 299.5,-385.7 512.5,-385.7 512.5,-363.7 299.5,-363.7"/>
<image xlink:href="../../images/foreignKeys.png" width="11px" height="12px" preserveAspectRatio="xMinYMin meet" x="304.5" y="-380.7"/>
<text text-anchor="start" x="319.5" y="-370.8" font-family="Helvetica,sans-Serif" font-size="11.00" fill="#000000">absence_reason_category_id</text>
<polygon fill="none" stroke="#000000" points="299.5,-341.7 299.5,-363.7 512.5,-363.7 512.5,-341.7 299.5,-341.7"/>
<image xlink:href="../../images/foreignKeys.png" width="11px" height="12px" preserveAspectRatio="xMinYMin meet" x="304.5" y="-358.7"/>
<text text-anchor="start" x="319.5" y="-348.8" font-family="Helvetica,sans-Serif" font-size="11.00" fill="#000000">absence_reason_id</text>
<polygon fill="none" stroke="#000000" points="299.5,-319.7 299.5,-341.7 512.5,-341.7 512.5,-319.7 299.5,-319.7"/>
<image xlink:href="../../images/foreignKeys.png" width="11px" height="12px" preserveAspectRatio="xMinYMin meet" x="304.5" y="-336.7"/>
<text text-anchor="start" x="319.5" y="-326.8" font-family="Helvetica,sans-Serif" font-size="11.00" fill="#000000">accompanied_by_id</text>
<polygon fill="none" stroke="#000000" points="299.5,-297.7 299.5,-319.7 512.5,-319.7 512.5,-297.7 299.5,-297.7"/>
<image xlink:href="../../images/foreignKeys.png" width="11px" height="12px" preserveAspectRatio="xMinYMin meet" x="304.5" y="-314.7"/>
<text text-anchor="start" x="319.5" y="-304.8" font-family="Helvetica,sans-Serif" font-size="11.00" fill="#000000">transport_id</text>
<polygon fill="#ffffff" stroke="transparent" points="299.5,-275.7 299.5,-297.7 512.5,-297.7 512.5,-275.7 299.5,-275.7"/>
<polygon fill="none" stroke="#000000" points="299.5,-275.7 299.5,-297.7 512.5,-297.7 512.5,-275.7 299.5,-275.7"/>
<text text-anchor="start" x="319.5" y="-282.8" font-family="Helvetica,sans-Serif" font-size="11.00" fill="#000000">start</text>
<polygon fill="#ffffff" stroke="transparent" points="299.5,-253.7 299.5,-275.7 512.5,-275.7 512.5,-253.7 299.5,-253.7"/>
<polygon fill="none" stroke="#000000" points="299.5,-253.7 299.5,-275.7 512.5,-275.7 512.5,-253.7 299.5,-253.7"/>
<text text-anchor="start" x="319.5" y="-260.8" font-family="Helvetica,sans-Serif" font-size="11.00" fill="#000000">end</text>
<polygon fill="#ffffff" stroke="transparent" points="299.5,-231.7 299.5,-253.7 512.5,-253.7 512.5,-231.7 299.5,-231.7"/>
<polygon fill="none" stroke="#000000" points="299.5,-231.7 299.5,-253.7 512.5,-253.7 512.5,-231.7 299.5,-231.7"/>
<text text-anchor="start" x="319.5" y="-238.8" font-family="Helvetica,sans-Serif" font-size="11.00" fill="#000000">legacy_id</text>
<polygon fill="#ffffff" stroke="transparent" points="299.5,-209.7 299.5,-231.7 512.5,-231.7 512.5,-209.7 299.5,-209.7"/>
<polygon fill="none" stroke="#000000" points="299.5,-209.7 299.5,-231.7 512.5,-231.7 512.5,-209.7 299.5,-209.7"/>
<text text-anchor="start" x="319.5" y="-216.8" font-family="Helvetica,sans-Serif" font-size="11.00" fill="#000000">dps_only</text>
<polygon fill="none" stroke="#000000" points="299.5,-190.7 299.5,-209.7 512.5,-209.7 512.5,-190.7 299.5,-190.7"/>
<text text-anchor="start" x="302.5" y="-196.8" font-family="Helvetica,sans-Serif" font-size="11.00" fill="#000000">...</text>
<polygon fill="#ffffff" stroke="transparent" points="299.5,-171.7 299.5,-190.7 399.5,-190.7 399.5,-171.7 299.5,-171.7"/>
<polygon fill="none" stroke="#000000" points="299.5,-171.7 299.5,-190.7 399.5,-190.7 399.5,-171.7 299.5,-171.7"/>
<text text-anchor="start" x="302.5" y="-177.8" font-family="Helvetica,sans-Serif" font-size="11.00" fill="#000000">&lt; 8</text>
<polygon fill="#ffffff" stroke="transparent" points="399.5,-171.7 399.5,-190.7 451.5,-190.7 451.5,-171.7 399.5,-171.7"/>
<polygon fill="none" stroke="#000000" points="399.5,-171.7 399.5,-190.7 451.5,-190.7 451.5,-171.7 399.5,-171.7"/>
<text text-anchor="start" x="442.3862" y="-177.8" font-family="Helvetica,sans-Serif" font-size="11.00" fill="#000000"> &#160;</text>
<polygon fill="#ffffff" stroke="transparent" points="451.5,-171.7 451.5,-190.7 512.5,-190.7 512.5,-171.7 451.5,-171.7"/>
<polygon fill="none" stroke="#000000" points="451.5,-171.7 451.5,-190.7 512.5,-190.7 512.5,-171.7 451.5,-171.7"/>
<text text-anchor="start" x="493.9053" y="-177.8" font-family="Helvetica,sans-Serif" font-size="11.00" fill="#000000">1 &gt;</text>
</a>
</g>
</g>
<!-- movement&#45;&gt;occurrence -->
<g id="edge3" class="edge">
<title>movement:w&#45;&gt;occurrence:e</title>
<path fill="none" stroke="#000000" d="M547.0737,-553.6677C535.2213,-545.6993 531.7287,-528.7 512.5,-528.7"/>
<polygon fill="#000000" stroke="#000000" points="553.3156,-555.475 559.9987,-561.158 557.1578,-556.5875 561,-557.7 561,-557.7 561,-557.7 557.1578,-556.5875 562.0013,-554.242 553.3156,-555.475 553.3156,-555.475"/>
<ellipse fill="none" stroke="#000000" cx="550.2419" cy="-554.585" rx="3.2" ry="3.2"/>
</g>
<!-- public.person_summary -->
<g id="node5" class="node">
<title>public.person_summary</title>
<g id="a_node5"><a xlink:href="../../../public/tables/person_summary.html" xlink:title="public.person_summary" target="_top">
<polygon fill="#ffffff" stroke="transparent" points="29.5,-708.2 29.5,-769.2 228.5,-769.2 228.5,-708.2 29.5,-708.2"/>
<polygon fill="#f5f5f5" stroke="transparent" points="30,-745.7 30,-768.7 229,-768.7 229,-745.7 30,-745.7"/>
<polygon fill="none" stroke="#000000" points="30,-745.7 30,-768.7 229,-768.7 229,-745.7 30,-745.7"/>
<text text-anchor="start" x="35" y="-754.3" font-family="Helvetica,sans-Serif" font-weight="bold" font-size="11.00" fill="#000000">public.person_summary</text>
<text text-anchor="start" x="194.5219" y="-753.8" font-family="Helvetica,sans-Serif" font-size="11.00" fill="#000000">[table]</text>
<polygon fill="none" stroke="#000000" points="30,-726.7 30,-745.7 229,-745.7 229,-726.7 30,-726.7"/>
<text text-anchor="start" x="33" y="-732.8" font-family="Helvetica,sans-Serif" font-size="11.00" fill="#000000">...</text>
<polygon fill="#ffffff" stroke="transparent" points="30,-707.7 30,-726.7 106,-726.7 106,-707.7 30,-707.7"/>
<polygon fill="none" stroke="#000000" points="30,-707.7 30,-726.7 106,-726.7 106,-707.7 30,-707.7"/>
<text text-anchor="start" x="33" y="-713.8" font-family="Helvetica,sans-Serif" font-size="11.00" fill="#000000"> &#160;</text>
<polygon fill="#ffffff" stroke="transparent" points="106,-707.7 106,-726.7 176,-726.7 176,-707.7 106,-707.7"/>
<polygon fill="none" stroke="#000000" points="106,-707.7 106,-726.7 176,-726.7 176,-707.7 106,-707.7"/>
<text text-anchor="start" x="140.6105" y="-713.8" font-family="Helvetica,sans-Serif" font-size="11.00" fill="#000000">0 rows</text>
<polygon fill="#ffffff" stroke="transparent" points="176,-707.7 176,-726.7 229,-726.7 229,-707.7 176,-707.7"/>
<polygon fill="none" stroke="#000000" points="176,-707.7 176,-726.7 229,-726.7 229,-707.7 176,-707.7"/>
<text text-anchor="start" x="210.4053" y="-713.8" font-family="Helvetica,sans-Serif" font-size="11.00" fill="#000000">3 &gt;</text>
</a>
</g>
</g>
<!-- movement&#45;&gt;public.person_summary -->
<g id="edge4" class="edge">
<title>movement:w&#45;&gt;public.person_summary:e</title>
<path fill="none" stroke="#000000" d="M546.9023,-561.8837C536.3727,-570.0375 536.1199,-588.257 520,-599.7 403.5881,-682.3372 371.7608,-735.7 229,-735.7"/>
<polygon fill="#000000" stroke="#000000" points="553.3306,-559.976 562.0242,-561.1512 557.1653,-558.838 561,-557.7 561,-557.7 561,-557.7 557.1653,-558.838 559.9758,-554.2488 553.3306,-559.976 553.3306,-559.976"/>
<ellipse fill="none" stroke="#000000" cx="550.2628" cy="-560.8865" rx="3.2" ry="3.2"/>
</g>
<!-- occurrence&#45;&gt;absence_reason -->
<g id="edge6" class="edge">
<title>occurrence:w&#45;&gt;absence_reason:e</title>
<path fill="none" stroke="#000000" d="M285.0735,-354.1592C251.1437,-361.4629 243.6836,-393.7 202,-393.7"/>
<polygon fill="#000000" stroke="#000000" points="291.5406,-353.5051 299.8623,-356.2817 295.5203,-353.1026 299.5,-352.7 299.5,-352.7 299.5,-352.7 295.5203,-353.1026 299.1377,-349.1183 291.5406,-353.5051 291.5406,-353.5051"/>
<ellipse fill="none" stroke="#000000" cx="288.3569" cy="-353.8272" rx="3.2" ry="3.2"/>
</g>
<!-- occurrence&#45;&gt;accompanied_by -->
<g id="edge9" class="edge">
<title>occurrence:w&#45;&gt;accompanied_by:e</title>
<path fill="none" stroke="#000000" d="M285.2086,-328.801C244.6274,-315.9375 290.6494,-240.6096 258,-191.7 240.8117,-165.9516 234.9584,-147.7 204,-147.7"/>
<polygon fill="#000000" stroke="#000000" points="291.5697,-329.6462 299.0258,-334.2686 295.5349,-330.1731 299.5,-330.7 299.5,-330.7 299.5,-330.7 295.5349,-330.1731 299.9742,-327.1314 291.5697,-329.6462 291.5697,-329.6462"/>
<ellipse fill="none" stroke="#000000" cx="288.3976" cy="-329.2246" rx="3.2" ry="3.2"/>
</g>
<!-- occurrence&#45;&gt;public.person_summary -->
<g id="edge10" class="edge">
<title>occurrence:w&#45;&gt;public.person_summary:e</title>
<path fill="none" stroke="#000000" d="M286.3373,-512.8995C260.3841,-541.7644 274.015,-663.0466 258,-697.7 249.0873,-716.9853 250.2452,-735.7 229,-735.7"/>
<polygon fill="#000000" stroke="#000000" points="292.2626,-510.1088 301.034,-509.9568 295.8813,-508.4044 299.5,-506.7 299.5,-506.7 299.5,-506.7 295.8813,-508.4044 297.966,-503.4432 292.2626,-510.1088 292.2626,-510.1088"/>
<ellipse fill="none" stroke="#000000" cx="289.3676" cy="-511.4723" rx="3.2" ry="3.2"/>
</g>
<!-- absence_reason_category -->
<g id="node6" class="node">
<title>absence_reason_category</title>
<g id="a_node6"><a xlink:href="../../tables/absence_reason_category.html" xlink:title="absence_reason_category" target="_top">
<polygon fill="#ffffff" stroke="transparent" points="23,-202.2 23,-263.2 235,-263.2 235,-202.2 23,-202.2"/>
<polygon fill="#f5f5f5" stroke="transparent" points="23,-239.7 23,-262.7 235,-262.7 235,-239.7 23,-239.7"/>
<polygon fill="none" stroke="#000000" points="23,-239.7 23,-262.7 235,-262.7 235,-239.7 23,-239.7"/>
<text text-anchor="start" x="28" y="-248.3" font-family="Helvetica,sans-Serif" font-weight="bold" font-size="11.00" fill="#000000">absence_reason_category</text>
<text text-anchor="start" x="200.5219" y="-247.8" font-family="Helvetica,sans-Serif" font-size="11.00" fill="#000000">[table]</text>
<polygon fill="none" stroke="#000000" points="23,-220.7 23,-239.7 235,-239.7 235,-220.7 23,-220.7"/>
<text text-anchor="start" x="26" y="-226.8" font-family="Helvetica,sans-Serif" font-size="11.00" fill="#000000">...</text>
<polygon fill="#ffffff" stroke="transparent" points="23,-201.7 23,-220.7 118,-220.7 118,-201.7 23,-201.7"/>
<polygon fill="none" stroke="#000000" points="23,-201.7 23,-220.7 118,-220.7 118,-201.7 23,-201.7"/>
<text text-anchor="start" x="26" y="-207.8" font-family="Helvetica,sans-Serif" font-size="11.00" fill="#000000"> &#160;</text>
<polygon fill="#ffffff" stroke="transparent" points="118,-201.7 118,-220.7 172,-220.7 172,-201.7 118,-201.7"/>
<polygon fill="none" stroke="#000000" points="118,-201.7 118,-220.7 172,-220.7 172,-201.7 118,-201.7"/>
<text text-anchor="start" x="162.8862" y="-207.8" font-family="Helvetica,sans-Serif" font-size="11.00" fill="#000000"> &#160;</text>
<polygon fill="#ffffff" stroke="transparent" points="172,-201.7 172,-220.7 235,-220.7 235,-201.7 172,-201.7"/>
<polygon fill="none" stroke="#000000" points="172,-201.7 172,-220.7 235,-220.7 235,-201.7 172,-201.7"/>
<text text-anchor="start" x="216.4053" y="-207.8" font-family="Helvetica,sans-Serif" font-size="11.00" fill="#000000">2 &gt;</text>
</a>
</g>
</g>
<!-- occurrence&#45;&gt;absence_reason_category -->
<g id="edge5" class="edge">
<title>occurrence:w&#45;&gt;absence_reason_category:e</title>
<path fill="none" stroke="#000000" d="M285.2343,-372.0595C240.2864,-352.4072 299.8846,-229.7 235,-229.7"/>
<polygon fill="#000000" stroke="#000000" points="291.6336,-373.2439 298.8448,-378.2399 295.5668,-373.972 299.5,-374.7 299.5,-374.7 299.5,-374.7 295.5668,-373.972 300.1552,-371.1601 291.6336,-373.2439 291.6336,-373.2439"/>
<ellipse fill="none" stroke="#000000" cx="288.4871" cy="-372.6615" rx="3.2" ry="3.2"/>
</g>
<!-- absence_sub_type -->
<g id="node7" class="node">
<title>absence_sub_type</title>
<g id="a_node7"><a xlink:href="../../tables/absence_sub_type.html" xlink:title="absence_sub_type" target="_top">
<polygon fill="#ffffff" stroke="transparent" points="48.5,-284.2 48.5,-345.2 209.5,-345.2 209.5,-284.2 48.5,-284.2"/>
<polygon fill="#f5f5f5" stroke="transparent" points="49,-321.7 49,-344.7 210,-344.7 210,-321.7 49,-321.7"/>
<polygon fill="none" stroke="#000000" points="49,-321.7 49,-344.7 210,-344.7 210,-321.7 49,-321.7"/>
<text text-anchor="start" x="54" y="-330.3" font-family="Helvetica,sans-Serif" font-weight="bold" font-size="11.00" fill="#000000">absence_sub_type</text>
<text text-anchor="start" x="175.5219" y="-329.8" font-family="Helvetica,sans-Serif" font-size="11.00" fill="#000000">[table]</text>
<polygon fill="none" stroke="#000000" points="49,-302.7 49,-321.7 210,-321.7 210,-302.7 49,-302.7"/>
<text text-anchor="start" x="52" y="-308.8" font-family="Helvetica,sans-Serif" font-size="11.00" fill="#000000">...</text>
<polygon fill="#ffffff" stroke="transparent" points="49,-283.7 49,-302.7 119,-302.7 119,-283.7 49,-283.7"/>
<polygon fill="none" stroke="#000000" points="49,-283.7 49,-302.7 119,-302.7 119,-283.7 49,-283.7"/>
<text text-anchor="start" x="52" y="-289.8" font-family="Helvetica,sans-Serif" font-size="11.00" fill="#000000"> &#160;</text>
<polygon fill="#ffffff" stroke="transparent" points="119,-283.7 119,-302.7 160,-302.7 160,-283.7 119,-283.7"/>
<polygon fill="none" stroke="#000000" points="119,-283.7 119,-302.7 160,-302.7 160,-283.7 119,-283.7"/>
<text text-anchor="start" x="150.8862" y="-289.8" font-family="Helvetica,sans-Serif" font-size="11.00" fill="#000000"> &#160;</text>
<polygon fill="#ffffff" stroke="transparent" points="160,-283.7 160,-302.7 210,-302.7 210,-283.7 160,-283.7"/>
<polygon fill="none" stroke="#000000" points="160,-283.7 160,-302.7 210,-302.7 210,-283.7 160,-283.7"/>
<text text-anchor="start" x="191.4053" y="-289.8" font-family="Helvetica,sans-Serif" font-size="11.00" fill="#000000">2 &gt;</text>
</a>
</g>
</g>
<!-- occurrence&#45;&gt;absence_sub_type -->
<g id="edge7" class="edge">
<title>occurrence:w&#45;&gt;absence_sub_type:e</title>
<path fill="none" stroke="#000000" d="M285.413,-393.2543C273.8687,-386.1483 272.3799,-369.385 258,-355.7 237.036,-335.7491 238.9401,-311.7 210,-311.7"/>
<polygon fill="#000000" stroke="#000000" points="291.7291,-394.7992 298.6446,-400.1969 295.6145,-395.7496 299.5,-396.7 299.5,-396.7 299.5,-396.7 295.6145,-395.7496 300.3554,-393.2031 291.7291,-394.7992 291.7291,-394.7992"/>
<ellipse fill="none" stroke="#000000" cx="288.6207" cy="-394.0389" rx="3.2" ry="3.2"/>
</g>
<!-- absence_type -->
<g id="node8" class="node">
<title>absence_type</title>
<g id="a_node8"><a xlink:href="../../tables/absence_type.html" xlink:title="absence_type" target="_top">
<polygon fill="#ffffff" stroke="transparent" points="63.5,-448.2 63.5,-509.2 194.5,-509.2 194.5,-448.2 63.5,-448.2"/>
<polygon fill="#f5f5f5" stroke="transparent" points="64,-485.7 64,-508.7 195,-508.7 195,-485.7 64,-485.7"/>
<polygon fill="none" stroke="#000000" points="64,-485.7 64,-508.7 195,-508.7 195,-485.7 64,-485.7"/>
<text text-anchor="start" x="69" y="-494.3" font-family="Helvetica,sans-Serif" font-weight="bold" font-size="11.00" fill="#000000">absence_type</text>
<text text-anchor="start" x="160.5219" y="-493.8" font-family="Helvetica,sans-Serif" font-size="11.00" fill="#000000">[table]</text>
<polygon fill="none" stroke="#000000" points="64,-466.7 64,-485.7 195,-485.7 195,-466.7 64,-466.7"/>
<text text-anchor="start" x="67" y="-472.8" font-family="Helvetica,sans-Serif" font-size="11.00" fill="#000000">...</text>
<polygon fill="#ffffff" stroke="transparent" points="64,-447.7 64,-466.7 119,-466.7 119,-447.7 64,-447.7"/>
<polygon fill="none" stroke="#000000" points="64,-447.7 64,-466.7 119,-466.7 119,-447.7 64,-447.7"/>
<text text-anchor="start" x="67" y="-453.8" font-family="Helvetica,sans-Serif" font-size="11.00" fill="#000000"> &#160;</text>
<polygon fill="#ffffff" stroke="transparent" points="119,-447.7 119,-466.7 152,-466.7 152,-447.7 119,-447.7"/>
<polygon fill="none" stroke="#000000" points="119,-447.7 119,-466.7 152,-466.7 152,-447.7 119,-447.7"/>
<text text-anchor="start" x="142.8862" y="-453.8" font-family="Helvetica,sans-Serif" font-size="11.00" fill="#000000"> &#160;</text>
<polygon fill="#ffffff" stroke="transparent" points="152,-447.7 152,-466.7 195,-466.7 195,-447.7 152,-447.7"/>
<polygon fill="none" stroke="#000000" points="152,-447.7 152,-466.7 195,-466.7 195,-447.7 152,-447.7"/>
<text text-anchor="start" x="176.4053" y="-453.8" font-family="Helvetica,sans-Serif" font-size="11.00" fill="#000000">2 &gt;</text>
</a>
</g>
</g>
<!-- occurrence&#45;&gt;absence_type -->
<g id="edge8" class="edge">
<title>occurrence:w&#45;&gt;absence_type:e</title>
<path fill="none" stroke="#000000" d="M285.4508,-422.4399C257.5381,-435.1209 217.319,-475.7 195,-475.7"/>
<polygon fill="#000000" stroke="#000000" points="291.7692,-420.758 300.4261,-422.1788 295.6346,-419.729 299.5,-418.7 299.5,-418.7 299.5,-418.7 295.6346,-419.729 298.5739,-415.2212 291.7692,-420.758 291.7692,-420.758"/>
<ellipse fill="none" stroke="#000000" cx="288.6769" cy="-421.5812" rx="3.2" ry="3.2"/>
</g>
<!-- occurrence_status -->
<g id="node9" class="node">
<title>occurrence_status</title>
<g id="a_node9"><a xlink:href="../../tables/occurrence_status.html" xlink:title="occurrence_status" target="_top">
<polygon fill="#ffffff" stroke="transparent" points="8,-530.7 8,-686.7 250,-686.7 250,-530.7 8,-530.7"/>
<polygon fill="#f5f5f5" stroke="transparent" points="10,-661.7 10,-684.7 248,-684.7 248,-661.7 10,-661.7"/>
<polygon fill="none" stroke="#000000" points="10,-661.7 10,-684.7 248,-684.7 248,-661.7 10,-661.7"/>
<text text-anchor="start" x="15" y="-670.3" font-family="Helvetica,sans-Serif" font-weight="bold" font-size="11.00" fill="#000000">occurrence_status</text>
<text text-anchor="start" x="213.0437" y="-669.8" font-family="Helvetica,sans-Serif" font-size="11.00" fill="#000000">[table]</text>
<polygon fill="none" stroke="#000000" points="10,-639.7 10,-661.7 154,-661.7 154,-639.7 10,-639.7"/>
<image xlink:href="../../images/primaryKeys.png" width="11px" height="12px" preserveAspectRatio="xMinYMin meet" x="15" y="-656.7"/>
<text text-anchor="start" x="30" y="-646.8" font-family="Helvetica,sans-Serif" font-size="11.00" fill="#000000">id</text>
<polygon fill="none" stroke="#000000" points="154,-639.7 154,-661.7 248,-661.7 248,-639.7 154,-639.7"/>
<text text-anchor="start" x="156.9758" y="-647.4" font-family="Helvetica,sans-Serif" font-size="11.00" fill="#000000">uuid[2147483647]</text>
<polygon fill="#ffffff" stroke="transparent" points="10,-617.7 10,-639.7 154,-639.7 154,-617.7 10,-617.7"/>
<polygon fill="none" stroke="#000000" points="10,-617.7 10,-639.7 154,-639.7 154,-617.7 10,-617.7"/>
<text text-anchor="start" x="30" y="-624.8" font-family="Helvetica,sans-Serif" font-size="11.00" fill="#000000">code</text>
<polygon fill="none" stroke="#000000" points="154,-617.7 154,-639.7 248,-639.7 248,-617.7 154,-617.7"/>
<text text-anchor="start" x="157" y="-625.4" font-family="Helvetica,sans-Serif" font-size="11.00" fill="#000000">varchar[16]</text>
<polygon fill="none" stroke="#000000" points="10,-595.7 10,-617.7 154,-617.7 154,-595.7 10,-595.7"/>
<text text-anchor="start" x="30" y="-602.8" font-family="Helvetica,sans-Serif" font-size="11.00" fill="#000000">description</text>
<polygon fill="none" stroke="#000000" points="154,-595.7 154,-617.7 248,-617.7 248,-595.7 154,-595.7"/>
<text text-anchor="start" x="157" y="-603.4" font-family="Helvetica,sans-Serif" font-size="11.00" fill="#000000">varchar[255]</text>
<polygon fill="#ffffff" stroke="transparent" points="10,-573.7 10,-595.7 154,-595.7 154,-573.7 10,-573.7"/>
<polygon fill="none" stroke="#000000" points="10,-573.7 10,-595.7 154,-595.7 154,-573.7 10,-573.7"/>
<text text-anchor="start" x="30" y="-580.8" font-family="Helvetica,sans-Serif" font-size="11.00" fill="#000000">sequence_number</text>
<polygon fill="none" stroke="#000000" points="154,-573.7 154,-595.7 248,-595.7 248,-573.7 154,-573.7"/>
<text text-anchor="start" x="157" y="-581.4" font-family="Helvetica,sans-Serif" font-size="11.00" fill="#000000">int4[10]</text>
<polygon fill="none" stroke="#000000" points="10,-551.7 10,-573.7 154,-573.7 154,-551.7 10,-551.7"/>
<text text-anchor="start" x="30" y="-558.8" font-family="Helvetica,sans-Serif" font-size="11.00" fill="#000000">active</text>
<polygon fill="none" stroke="#000000" points="154,-551.7 154,-573.7 248,-573.7 248,-551.7 154,-551.7"/>
<text text-anchor="start" x="157" y="-559.4" font-family="Helvetica,sans-Serif" font-size="11.00" fill="#000000">bool[1]</text>
<polygon fill="#ffffff" stroke="transparent" points="10,-532.7 10,-551.7 86,-551.7 86,-532.7 10,-532.7"/>
<polygon fill="none" stroke="#000000" points="10,-532.7 10,-551.7 86,-551.7 86,-532.7 10,-532.7"/>
<text text-anchor="start" x="13" y="-538.8" font-family="Helvetica,sans-Serif" font-size="11.00" fill="#000000">&lt; 0</text>
<polygon fill="#ffffff" stroke="transparent" points="86,-532.7 86,-551.7 154,-551.7 154,-532.7 86,-532.7"/>
<polygon fill="none" stroke="#000000" points="86,-532.7 86,-551.7 154,-551.7 154,-532.7 86,-532.7"/>
<text text-anchor="start" x="144.8862" y="-538.8" font-family="Helvetica,sans-Serif" font-size="11.00" fill="#000000"> &#160;</text>
<polygon fill="#ffffff" stroke="transparent" points="154,-532.7 154,-551.7 248,-551.7 248,-532.7 154,-532.7"/>
<polygon fill="none" stroke="#000000" points="154,-532.7 154,-551.7 248,-551.7 248,-532.7 154,-532.7"/>
<text text-anchor="start" x="229.4053" y="-538.8" font-family="Helvetica,sans-Serif" font-size="11.00" fill="#000000">1 &gt;</text>
<polygon fill="none" stroke="#000000" stroke-width="2" points="9,-531.7 9,-685.7 249,-685.7 249,-531.7 9,-531.7"/>
</a>
</g>
</g>
<!-- occurrence&#45;&gt;occurrence_status -->
<g id="edge11" class="edge">
<title>occurrence:w&#45;&gt;occurrence_status:e</title>
<path fill="none" stroke="#000000" d="M284.9513,-442.7784C219.0761,-464.5884 338.4682,-650.7 248,-650.7"/>
<polygon fill="#000000" stroke="#000000" points="291.5804,-441.8314 300.0092,-444.2638 295.5402,-441.2657 299.5,-440.7 299.5,-440.7 299.5,-440.7 295.5402,-441.2657 298.9908,-437.1362 291.5804,-441.8314 291.5804,-441.8314"/>
<ellipse fill="none" stroke="#000000" cx="288.4126" cy="-442.284" rx="3.2" ry="3.2"/>
</g>
<!-- transport -->
<g id="node10" class="node">
<title>transport</title>
<g id="a_node10"><a xlink:href="../../tables/transport.html" xlink:title="transport" target="_top">
<polygon fill="#ffffff" stroke="transparent" points="78,-38.2 78,-99.2 180,-99.2 180,-38.2 78,-38.2"/>
<polygon fill="#f5f5f5" stroke="transparent" points="78,-75.7 78,-98.7 180,-98.7 180,-75.7 78,-75.7"/>
<polygon fill="none" stroke="#000000" points="78,-75.7 78,-98.7 180,-98.7 180,-75.7 78,-75.7"/>
<text text-anchor="start" x="83" y="-84.3" font-family="Helvetica,sans-Serif" font-weight="bold" font-size="11.00" fill="#000000">transport</text>
<text text-anchor="start" x="145.5219" y="-83.8" font-family="Helvetica,sans-Serif" font-size="11.00" fill="#000000">[table]</text>
<polygon fill="none" stroke="#000000" points="78,-56.7 78,-75.7 180,-75.7 180,-56.7 78,-56.7"/>
<text text-anchor="start" x="81" y="-62.8" font-family="Helvetica,sans-Serif" font-size="11.00" fill="#000000">...</text>
<polygon fill="#ffffff" stroke="transparent" points="78,-37.7 78,-56.7 118,-56.7 118,-37.7 78,-37.7"/>
<polygon fill="none" stroke="#000000" points="78,-37.7 78,-56.7 118,-56.7 118,-37.7 78,-37.7"/>
<text text-anchor="start" x="81" y="-43.8" font-family="Helvetica,sans-Serif" font-size="11.00" fill="#000000"> &#160;</text>
<polygon fill="#ffffff" stroke="transparent" points="118,-37.7 118,-56.7 144,-56.7 144,-37.7 118,-37.7"/>
<polygon fill="none" stroke="#000000" points="118,-37.7 118,-56.7 144,-56.7 144,-37.7 118,-37.7"/>
<text text-anchor="start" x="134.8862" y="-43.8" font-family="Helvetica,sans-Serif" font-size="11.00" fill="#000000"> &#160;</text>
<polygon fill="#ffffff" stroke="transparent" points="144,-37.7 144,-56.7 180,-56.7 180,-37.7 144,-37.7"/>
<polygon fill="none" stroke="#000000" points="144,-37.7 144,-56.7 180,-56.7 180,-37.7 144,-37.7"/>
<text text-anchor="start" x="161.4053" y="-43.8" font-family="Helvetica,sans-Serif" font-size="11.00" fill="#000000">2 &gt;</text>
</a>
</g>
</g>
<!-- occurrence&#45;&gt;transport -->
<g id="edge12" class="edge">
<title>occurrence:w&#45;&gt;transport:e</title>
<path fill="none" stroke="#000000" d="M285.1294,-307.3533C220.9557,-293.6284 308.1003,-178.2132 258,-109.7 234.5061,-77.5716 219.802,-65.7 180,-65.7"/>
<polygon fill="#000000" stroke="#000000" points="291.5349,-307.9535 299.1641,-312.2843 295.5174,-308.3268 299.5,-308.7 299.5,-308.7 299.5,-308.7 295.5174,-308.3268 299.8359,-305.1157 291.5349,-307.9535 291.5349,-307.9535"/>
<ellipse fill="none" stroke="#000000" cx="288.3489" cy="-307.6549" rx="3.2" ry="3.2"/>
</g>
</g>
</svg>
