<?xml version="1.0" encoding="UTF-8" standalone="no"?>
<!DOCTYPE svg PUBLIC "-//W3C//DTD SVG 1.1//EN"
 "http://www.w3.org/Graphics/SVG/1.1/DTD/svg11.dtd">
<!-- Generated by graphviz version 2.40.1 (20161225.0304)
 -->
<!-- Title: twoDegreesRelationshipsDiagram Pages: 1 -->
<svg width="687pt" height="710pt"
 viewBox="0.00 0.00 687.00 709.70" xmlns="http://www.w3.org/2000/svg" xmlns:xlink="http://www.w3.org/1999/xlink">
<g id="graph0" class="graph" transform="scale(1 1) rotate(0) translate(4 705.7)">
<title>twoDegreesRelationshipsDiagram</title>
<polygon fill="#ffffff" stroke="transparent" points="-4,4 -4,-705.7 683,-705.7 683,4 -4,4"/>
<text text-anchor="middle" x="72.4936" y="-7.3" font-family="Helvetica,sans-Serif" font-size="11.00" fill="#000000">Generated by SchemaSpy</text>
<!-- movement -->
<g id="node1" class="node">
<title>movement</title>
<g id="a_node1"><a xlink:href="../../tables/movement.html" xlink:title="movement" target="_top">
<polygon fill="#ffffff" stroke="transparent" points="561,-404.2 561,-465.2 671,-465.2 671,-404.2 561,-404.2"/>
<polygon fill="#f5f5f5" stroke="transparent" points="561,-441.7 561,-464.7 671,-464.7 671,-441.7 561,-441.7"/>
<polygon fill="none" stroke="#000000" points="561,-441.7 561,-464.7 671,-464.7 671,-441.7 561,-441.7"/>
<text text-anchor="start" x="566" y="-450.3" font-family="Helvetica,sans-Serif" font-weight="bold" font-size="11.00" fill="#000000">movement</text>
<text text-anchor="start" x="636.5219" y="-449.8" font-family="Helvetica,sans-Serif" font-size="11.00" fill="#000000">[table]</text>
<polygon fill="none" stroke="#000000" points="561,-422.7 561,-441.7 671,-441.7 671,-422.7 561,-422.7"/>
<text text-anchor="start" x="564" y="-428.8" font-family="Helvetica,sans-Serif" font-size="11.00" fill="#000000">...</text>
<polygon fill="#ffffff" stroke="transparent" points="561,-403.7 561,-422.7 614,-422.7 614,-403.7 561,-403.7"/>
<polygon fill="none" stroke="#000000" points="561,-403.7 561,-422.7 614,-422.7 614,-403.7 561,-403.7"/>
<text text-anchor="start" x="564" y="-409.8" font-family="Helvetica,sans-Serif" font-size="11.00" fill="#000000">&lt; 3</text>
<polygon fill="#ffffff" stroke="transparent" points="614,-403.7 614,-422.7 642,-422.7 642,-403.7 614,-403.7"/>
<polygon fill="none" stroke="#000000" points="614,-403.7 614,-422.7 642,-422.7 642,-403.7 614,-403.7"/>
<text text-anchor="start" x="632.8862" y="-409.8" font-family="Helvetica,sans-Serif" font-size="11.00" fill="#000000"> &#160;</text>
<polygon fill="#ffffff" stroke="transparent" points="642,-403.7 642,-422.7 671,-422.7 671,-403.7 642,-403.7"/>
<polygon fill="none" stroke="#000000" points="642,-403.7 642,-422.7 671,-422.7 671,-403.7 642,-403.7"/>
<text text-anchor="start" x="661.8862" y="-409.8" font-family="Helvetica,sans-Serif" font-size="11.00" fill="#000000"> &#160;</text>
</a>
</g>
</g>
<!-- absence_reason -->
<g id="node2" class="node">
<title>absence_reason</title>
<g id="a_node2"><a xlink:href="../../tables/absence_reason.html" xlink:title="absence_reason" target="_top">
<polygon fill="#ffffff" stroke="transparent" points="56,-377.2 56,-438.2 202,-438.2 202,-377.2 56,-377.2"/>
<polygon fill="#f5f5f5" stroke="transparent" points="56,-414.7 56,-437.7 202,-437.7 202,-414.7 56,-414.7"/>
<polygon fill="none" stroke="#000000" points="56,-414.7 56,-437.7 202,-437.7 202,-414.7 56,-414.7"/>
<text text-anchor="start" x="61" y="-423.3" font-family="Helvetica,sans-Serif" font-weight="bold" font-size="11.00" fill="#000000">absence_reason</text>
<text text-anchor="start" x="167.5219" y="-422.8" font-family="Helvetica,sans-Serif" font-size="11.00" fill="#000000">[table]</text>
<polygon fill="none" stroke="#000000" points="56,-395.7 56,-414.7 202,-414.7 202,-395.7 56,-395.7"/>
<text text-anchor="start" x="59" y="-401.8" font-family="Helvetica,sans-Serif" font-size="11.00" fill="#000000">...</text>
<polygon fill="#ffffff" stroke="transparent" points="56,-376.7 56,-395.7 102,-395.7 102,-376.7 56,-376.7"/>
<polygon fill="none" stroke="#000000" points="56,-376.7 56,-395.7 102,-395.7 102,-376.7 56,-376.7"/>
<text text-anchor="start" x="59" y="-382.8" font-family="Helvetica,sans-Serif" font-size="11.00" fill="#000000"> &#160;</text>
<polygon fill="#ffffff" stroke="transparent" points="102,-376.7 102,-395.7 163,-395.7 163,-376.7 102,-376.7"/>
<polygon fill="none" stroke="#000000" points="102,-376.7 102,-395.7 163,-395.7 163,-376.7 102,-376.7"/>
<text text-anchor="start" x="121.4956" y="-382.8" font-family="Helvetica,sans-Serif" font-size="11.00" fill="#000000">98 rows</text>
<polygon fill="#ffffff" stroke="transparent" points="163,-376.7 163,-395.7 202,-395.7 202,-376.7 163,-376.7"/>
<polygon fill="none" stroke="#000000" points="163,-376.7 163,-395.7 202,-395.7 202,-376.7 163,-376.7"/>
<text text-anchor="start" x="183.4053" y="-382.8" font-family="Helvetica,sans-Serif" font-size="11.00" fill="#000000">3 &gt;</text>
</a>
</g>
</g>
<!-- movement&#45;&gt;absence_reason -->
<g id="edge1" class="edge">
<title>movement:w&#45;&gt;absence_reason:e</title>
<path fill="none" stroke="#000000" d="M546.6445,-433.6525C538.3846,-436.1057 532.6574,-440.1787 520,-441.7 418.9495,-453.8452 390.8093,-461.6204 291,-441.7 248.9909,-433.3156 244.8376,-404.7 202,-404.7"/>
<polygon fill="#000000" stroke="#000000" points="553.073,-432.7782 561.4852,-435.2672 557.0365,-432.2391 561,-431.7 561,-431.7 561,-431.7 557.0365,-432.2391 560.5148,-428.1328 553.073,-432.7782 553.073,-432.7782"/>
<ellipse fill="none" stroke="#000000" cx="549.9022" cy="-433.2095" rx="3.2" ry="3.2"/>
</g>
<!-- accompanied_by -->
<g id="node3" class="node">
<title>accompanied_by</title>
<g id="a_node3"><a xlink:href="../../tables/accompanied_by.html" xlink:title="accompanied_by" target="_top">
<polygon fill="#ffffff" stroke="transparent" points="54,-295.2 54,-356.2 204,-356.2 204,-295.2 54,-295.2"/>
<polygon fill="#f5f5f5" stroke="transparent" points="54,-332.7 54,-355.7 204,-355.7 204,-332.7 54,-332.7"/>
<polygon fill="none" stroke="#000000" points="54,-332.7 54,-355.7 204,-355.7 204,-332.7 54,-332.7"/>
<text text-anchor="start" x="59" y="-341.3" font-family="Helvetica,sans-Serif" font-weight="bold" font-size="11.00" fill="#000000">accompanied_by</text>
<text text-anchor="start" x="169.5219" y="-340.8" font-family="Helvetica,sans-Serif" font-size="11.00" fill="#000000">[table]</text>
<polygon fill="none" stroke="#000000" points="54,-313.7 54,-332.7 204,-332.7 204,-313.7 54,-313.7"/>
<text text-anchor="start" x="57" y="-319.8" font-family="Helvetica,sans-Serif" font-size="11.00" fill="#000000">...</text>
<polygon fill="#ffffff" stroke="transparent" points="54,-294.7 54,-313.7 118,-313.7 118,-294.7 54,-294.7"/>
<polygon fill="none" stroke="#000000" points="54,-294.7 54,-313.7 118,-313.7 118,-294.7 54,-294.7"/>
<text text-anchor="start" x="57" y="-300.8" font-family="Helvetica,sans-Serif" font-size="11.00" fill="#000000"> &#160;</text>
<polygon fill="#ffffff" stroke="transparent" points="118,-294.7 118,-313.7 156,-313.7 156,-294.7 118,-294.7"/>
<polygon fill="none" stroke="#000000" points="118,-294.7 118,-313.7 156,-313.7 156,-294.7 118,-294.7"/>
<text text-anchor="start" x="146.8862" y="-300.8" font-family="Helvetica,sans-Serif" font-size="11.00" fill="#000000"> &#160;</text>
<polygon fill="#ffffff" stroke="transparent" points="156,-294.7 156,-313.7 204,-313.7 204,-294.7 156,-294.7"/>
<polygon fill="none" stroke="#000000" points="156,-294.7 156,-313.7 204,-313.7 204,-294.7 156,-294.7"/>
<text text-anchor="start" x="185.4053" y="-300.8" font-family="Helvetica,sans-Serif" font-size="11.00" fill="#000000">3 &gt;</text>
</a>
</g>
</g>
<!-- movement&#45;&gt;accompanied_by -->
<g id="edge2" class="edge">
<title>movement:w&#45;&gt;accompanied_by:e</title>
<path fill="none" stroke="#000000" d="M546.519,-431.9283C478.6502,-433.7815 339.2559,-445.596 291,-417.7 267.6265,-404.1882 276.0181,-386.8056 258,-366.7 237.3388,-343.645 234.9584,-322.7 204,-322.7"/>
<polygon fill="#000000" stroke="#000000" points="553.001,-431.8261 561.0568,-435.2996 557.0005,-431.7631 561,-431.7 561,-431.7 561,-431.7 557.0005,-431.7631 560.9432,-428.1004 553.001,-431.8261 553.001,-431.8261"/>
<ellipse fill="none" stroke="#000000" cx="549.8014" cy="-431.8766" rx="3.2" ry="3.2"/>
</g>
<!-- occurrence -->
<g id="node4" class="node">
<title>occurrence</title>
<g id="a_node4"><a xlink:href="../../tables/occurrence.html" xlink:title="occurrence" target="_top">
<polygon fill="#ffffff" stroke="transparent" points="299,-38.2 299,-407.2 512,-407.2 512,-38.2 299,-38.2"/>
<polygon fill="#f5f5f5" stroke="transparent" points="299.5,-383.7 299.5,-406.7 512.5,-406.7 512.5,-383.7 299.5,-383.7"/>
<polygon fill="none" stroke="#000000" points="299.5,-383.7 299.5,-406.7 512.5,-406.7 512.5,-383.7 299.5,-383.7"/>
<text text-anchor="start" x="304.5" y="-392.3" font-family="Helvetica,sans-Serif" font-weight="bold" font-size="11.00" fill="#000000">occurrence</text>
<text text-anchor="start" x="477.5437" y="-391.8" font-family="Helvetica,sans-Serif" font-size="11.00" fill="#000000">[table]</text>
<polygon fill="none" stroke="#000000" points="299.5,-361.7 299.5,-383.7 512.5,-383.7 512.5,-361.7 299.5,-361.7"/>
<image xlink:href="../../images/primaryKeys.png" width="11px" height="12px" preserveAspectRatio="xMinYMin meet" x="304.5" y="-378.7"/>
<text text-anchor="start" x="319.5" y="-368.8" font-family="Helvetica,sans-Serif" font-size="11.00" fill="#000000">id</text>
<polygon fill="#ffffff" stroke="transparent" points="299.5,-339.7 299.5,-361.7 512.5,-361.7 512.5,-339.7 299.5,-339.7"/>
<polygon fill="none" stroke="#000000" points="299.5,-339.7 299.5,-361.7 512.5,-361.7 512.5,-339.7 299.5,-339.7"/>
<text text-anchor="start" x="319.5" y="-346.8" font-family="Helvetica,sans-Serif" font-size="11.00" fill="#000000">person_identifier</text>
<polygon fill="#ffffff" stroke="transparent" points="299.5,-317.7 299.5,-339.7 512.5,-339.7 512.5,-317.7 299.5,-317.7"/>
<polygon fill="none" stroke="#000000" points="299.5,-317.7 299.5,-339.7 512.5,-339.7 512.5,-317.7 299.5,-317.7"/>
<text text-anchor="start" x="319.5" y="-324.8" font-family="Helvetica,sans-Serif" font-size="11.00" fill="#000000">prison_code</text>
<polygon fill="#ffffff" stroke="transparent" points="299.5,-295.7 299.5,-317.7 512.5,-317.7 512.5,-295.7 299.5,-295.7"/>
<polygon fill="none" stroke="#000000" points="299.5,-295.7 299.5,-317.7 512.5,-317.7 512.5,-295.7 299.5,-295.7"/>
<text text-anchor="start" x="319.5" y="-302.8" font-family="Helvetica,sans-Serif" font-size="11.00" fill="#000000">authorisation_id</text>
<polygon fill="#ffffff" stroke="transparent" points="299.5,-273.7 299.5,-295.7 512.5,-295.7 512.5,-273.7 299.5,-273.7"/>
<polygon fill="none" stroke="#000000" points="299.5,-273.7 299.5,-295.7 512.5,-295.7 512.5,-273.7 299.5,-273.7"/>
<image xlink:href="../../images/foreignKeys.png" width="11px" height="12px" preserveAspectRatio="xMinYMin meet" x="304.5" y="-290.7"/>
<text text-anchor="start" x="319.5" y="-280.8" font-family="Helvetica,sans-Serif" font-size="11.00" fill="#000000">status_id</text>
<polygon fill="none" stroke="#000000" points="299.5,-251.7 299.5,-273.7 512.5,-273.7 512.5,-251.7 299.5,-251.7"/>
<image xlink:href="../../images/foreignKeys.png" width="11px" height="12px" preserveAspectRatio="xMinYMin meet" x="304.5" y="-268.7"/>
<text text-anchor="start" x="319.5" y="-258.8" font-family="Helvetica,sans-Serif" font-size="11.00" fill="#000000">absence_type_id</text>
<polygon fill="none" stroke="#000000" points="299.5,-229.7 299.5,-251.7 512.5,-251.7 512.5,-229.7 299.5,-229.7"/>
<image xlink:href="../../images/foreignKeys.png" width="11px" height="12px" preserveAspectRatio="xMinYMin meet" x="304.5" y="-246.7"/>
<text text-anchor="start" x="319.5" y="-236.8" font-family="Helvetica,sans-Serif" font-size="11.00" fill="#000000">absence_sub_type_id</text>
<polygon fill="none" stroke="#000000" points="299.5,-207.7 299.5,-229.7 512.5,-229.7 512.5,-207.7 299.5,-207.7"/>
<image xlink:href="../../images/foreignKeys.png" width="11px" height="12px" preserveAspectRatio="xMinYMin meet" x="304.5" y="-224.7"/>
<text text-anchor="start" x="319.5" y="-214.8" font-family="Helvetica,sans-Serif" font-size="11.00" fill="#000000">absence_reason_category_id</text>
<polygon fill="none" stroke="#000000" points="299.5,-185.7 299.5,-207.7 512.5,-207.7 512.5,-185.7 299.5,-185.7"/>
<image xlink:href="../../images/foreignKeys.png" width="11px" height="12px" preserveAspectRatio="xMinYMin meet" x="304.5" y="-202.7"/>
<text text-anchor="start" x="319.5" y="-192.8" font-family="Helvetica,sans-Serif" font-size="11.00" fill="#000000">absence_reason_id</text>
<polygon fill="none" stroke="#000000" points="299.5,-163.7 299.5,-185.7 512.5,-185.7 512.5,-163.7 299.5,-163.7"/>
<image xlink:href="../../images/foreignKeys.png" width="11px" height="12px" preserveAspectRatio="xMinYMin meet" x="304.5" y="-180.7"/>
<text text-anchor="start" x="319.5" y="-170.8" font-family="Helvetica,sans-Serif" font-size="11.00" fill="#000000">accompanied_by_id</text>
<polygon fill="none" stroke="#000000" points="299.5,-141.7 299.5,-163.7 512.5,-163.7 512.5,-141.7 299.5,-141.7"/>
<image xlink:href="../../images/foreignKeys.png" width="11px" height="12px" preserveAspectRatio="xMinYMin meet" x="304.5" y="-158.7"/>
<text text-anchor="start" x="319.5" y="-148.8" font-family="Helvetica,sans-Serif" font-size="11.00" fill="#000000">transport_id</text>
<polygon fill="#ffffff" stroke="transparent" points="299.5,-119.7 299.5,-141.7 512.5,-141.7 512.5,-119.7 299.5,-119.7"/>
<polygon fill="none" stroke="#000000" points="299.5,-119.7 299.5,-141.7 512.5,-141.7 512.5,-119.7 299.5,-119.7"/>
<text text-anchor="start" x="319.5" y="-126.8" font-family="Helvetica,sans-Serif" font-size="11.00" fill="#000000">start</text>
<polygon fill="#ffffff" stroke="transparent" points="299.5,-97.7 299.5,-119.7 512.5,-119.7 512.5,-97.7 299.5,-97.7"/>
<polygon fill="none" stroke="#000000" points="299.5,-97.7 299.5,-119.7 512.5,-119.7 512.5,-97.7 299.5,-97.7"/>
<text text-anchor="start" x="319.5" y="-104.8" font-family="Helvetica,sans-Serif" font-size="11.00" fill="#000000">end</text>
<polygon fill="#ffffff" stroke="transparent" points="299.5,-75.7 299.5,-97.7 512.5,-97.7 512.5,-75.7 299.5,-75.7"/>
<polygon fill="none" stroke="#000000" points="299.5,-75.7 299.5,-97.7 512.5,-97.7 512.5,-75.7 299.5,-75.7"/>
<text text-anchor="start" x="319.5" y="-82.8" font-family="Helvetica,sans-Serif" font-size="11.00" fill="#000000">legacy_id</text>
<polygon fill="none" stroke="#000000" points="299.5,-56.7 299.5,-75.7 512.5,-75.7 512.5,-56.7 299.5,-56.7"/>
<text text-anchor="start" x="302.5" y="-62.8" font-family="Helvetica,sans-Serif" font-size="11.00" fill="#000000">...</text>
<polygon fill="#ffffff" stroke="transparent" points="299.5,-37.7 299.5,-56.7 399.5,-56.7 399.5,-37.7 299.5,-37.7"/>
<polygon fill="none" stroke="#000000" points="299.5,-37.7 299.5,-56.7 399.5,-56.7 399.5,-37.7 299.5,-37.7"/>
<text text-anchor="start" x="302.5" y="-43.8" font-family="Helvetica,sans-Serif" font-size="11.00" fill="#000000">&lt; 7</text>
<polygon fill="#ffffff" stroke="transparent" points="399.5,-37.7 399.5,-56.7 451.5,-56.7 451.5,-37.7 399.5,-37.7"/>
<polygon fill="none" stroke="#000000" points="399.5,-37.7 399.5,-56.7 451.5,-56.7 451.5,-37.7 399.5,-37.7"/>
<text text-anchor="start" x="442.3862" y="-43.8" font-family="Helvetica,sans-Serif" font-size="11.00" fill="#000000"> &#160;</text>
<polygon fill="#ffffff" stroke="transparent" points="451.5,-37.7 451.5,-56.7 512.5,-56.7 512.5,-37.7 451.5,-37.7"/>
<polygon fill="none" stroke="#000000" points="451.5,-37.7 451.5,-56.7 512.5,-56.7 512.5,-37.7 451.5,-37.7"/>
<text text-anchor="start" x="493.9053" y="-43.8" font-family="Helvetica,sans-Serif" font-size="11.00" fill="#000000">1 &gt;</text>
</a>
</g>
</g>
<!-- movement&#45;&gt;occurrence -->
<g id="edge3" class="edge">
<title>movement:w&#45;&gt;occurrence:e</title>
<path fill="none" stroke="#000000" d="M547.2489,-426.6697C532.3013,-412.4018 540.3453,-372.7 512.5,-372.7"/>
<polygon fill="#000000" stroke="#000000" points="553.4869,-428.9516 559.7632,-435.0809 557.2435,-430.3258 561,-431.7 561,-431.7 561,-431.7 557.2435,-430.3258 562.2368,-428.3191 553.4869,-428.9516 553.4869,-428.9516"/>
<ellipse fill="none" stroke="#000000" cx="550.4817" cy="-427.8522" rx="3.2" ry="3.2"/>
</g>
<!-- occurrence&#45;&gt;absence_reason -->
<g id="edge5" class="edge">
<title>occurrence:w&#45;&gt;absence_reason:e</title>
<path fill="none" stroke="#000000" d="M285.0137,-198.3066C232.7277,-211.817 299.1579,-307.4361 258,-366.7 240.8429,-391.4048 232.0781,-404.7 202,-404.7"/>
<polygon fill="#000000" stroke="#000000" points="291.5487,-197.5819 299.8968,-200.2781 295.5244,-197.1409 299.5,-196.7 299.5,-196.7 299.5,-196.7 295.5244,-197.1409 299.1032,-193.1219 291.5487,-197.5819 291.5487,-197.5819"/>
<ellipse fill="none" stroke="#000000" cx="288.3682" cy="-197.9346" rx="3.2" ry="3.2"/>
</g>
<!-- occurrence&#45;&gt;accompanied_by -->
<g id="edge8" class="edge">
<title>occurrence:w&#45;&gt;accompanied_by:e</title>
<path fill="none" stroke="#000000" d="M285.1531,-177.2049C255.9749,-189.9121 286.3775,-248.0737 258,-284.7 240.0261,-307.8986 233.3468,-322.7 204,-322.7"/>
<polygon fill="#000000" stroke="#000000" points="291.6192,-176.076 300.1192,-178.2464 295.5596,-175.388 299.5,-174.7 299.5,-174.7 299.5,-174.7 295.5596,-175.388 298.8808,-171.1536 291.6192,-176.076 291.6192,-176.076"/>
<ellipse fill="none" stroke="#000000" cx="288.4669" cy="-176.6264" rx="3.2" ry="3.2"/>
</g>
<!-- absence_reason_category -->
<g id="node5" class="node">
<title>absence_reason_category</title>
<g id="a_node5"><a xlink:href="../../tables/absence_reason_category.html" xlink:title="absence_reason_category" target="_top">
<polygon fill="#ffffff" stroke="transparent" points="23,-131.2 23,-192.2 235,-192.2 235,-131.2 23,-131.2"/>
<polygon fill="#f5f5f5" stroke="transparent" points="23,-168.7 23,-191.7 235,-191.7 235,-168.7 23,-168.7"/>
<polygon fill="none" stroke="#000000" points="23,-168.7 23,-191.7 235,-191.7 235,-168.7 23,-168.7"/>
<text text-anchor="start" x="28" y="-177.3" font-family="Helvetica,sans-Serif" font-weight="bold" font-size="11.00" fill="#000000">absence_reason_category</text>
<text text-anchor="start" x="200.5219" y="-176.8" font-family="Helvetica,sans-Serif" font-size="11.00" fill="#000000">[table]</text>
<polygon fill="none" stroke="#000000" points="23,-149.7 23,-168.7 235,-168.7 235,-149.7 23,-149.7"/>
<text text-anchor="start" x="26" y="-155.8" font-family="Helvetica,sans-Serif" font-size="11.00" fill="#000000">...</text>
<polygon fill="#ffffff" stroke="transparent" points="23,-130.7 23,-149.7 118,-149.7 118,-130.7 23,-130.7"/>
<polygon fill="none" stroke="#000000" points="23,-130.7 23,-149.7 118,-149.7 118,-130.7 23,-130.7"/>
<text text-anchor="start" x="26" y="-136.8" font-family="Helvetica,sans-Serif" font-size="11.00" fill="#000000"> &#160;</text>
<polygon fill="#ffffff" stroke="transparent" points="118,-130.7 118,-149.7 172,-149.7 172,-130.7 118,-130.7"/>
<polygon fill="none" stroke="#000000" points="118,-130.7 118,-149.7 172,-149.7 172,-130.7 118,-130.7"/>
<text text-anchor="start" x="162.8862" y="-136.8" font-family="Helvetica,sans-Serif" font-size="11.00" fill="#000000"> &#160;</text>
<polygon fill="#ffffff" stroke="transparent" points="172,-130.7 172,-149.7 235,-149.7 235,-130.7 172,-130.7"/>
<polygon fill="none" stroke="#000000" points="172,-130.7 172,-149.7 235,-149.7 235,-130.7 172,-130.7"/>
<text text-anchor="start" x="216.4053" y="-136.8" font-family="Helvetica,sans-Serif" font-size="11.00" fill="#000000">2 &gt;</text>
</a>
</g>
</g>
<!-- occurrence&#45;&gt;absence_reason_category -->
<g id="edge4" class="edge">
<title>occurrence:w&#45;&gt;absence_reason_category:e</title>
<path fill="none" stroke="#000000" d="M285.2191,-215.1264C263.2792,-202.2095 268.3405,-158.7 235,-158.7"/>
<polygon fill="#000000" stroke="#000000" points="291.7393,-216.7579 298.6261,-222.1923 295.6196,-217.729 299.5,-218.7 299.5,-218.7 299.5,-218.7 295.6196,-217.729 300.3739,-215.2077 291.7393,-216.7579 291.7393,-216.7579"/>
<ellipse fill="none" stroke="#000000" cx="288.635" cy="-215.9811" rx="3.2" ry="3.2"/>
</g>
<!-- absence_sub_type -->
<g id="node6" class="node">
<title>absence_sub_type</title>
<g id="a_node6"><a xlink:href="../../tables/absence_sub_type.html" xlink:title="absence_sub_type" target="_top">
<polygon fill="#ffffff" stroke="transparent" points="48.5,-213.2 48.5,-274.2 209.5,-274.2 209.5,-213.2 48.5,-213.2"/>
<polygon fill="#f5f5f5" stroke="transparent" points="49,-250.7 49,-273.7 210,-273.7 210,-250.7 49,-250.7"/>
<polygon fill="none" stroke="#000000" points="49,-250.7 49,-273.7 210,-273.7 210,-250.7 49,-250.7"/>
<text text-anchor="start" x="54" y="-259.3" font-family="Helvetica,sans-Serif" font-weight="bold" font-size="11.00" fill="#000000">absence_sub_type</text>
<text text-anchor="start" x="175.5219" y="-258.8" font-family="Helvetica,sans-Serif" font-size="11.00" fill="#000000">[table]</text>
<polygon fill="none" stroke="#000000" points="49,-231.7 49,-250.7 210,-250.7 210,-231.7 49,-231.7"/>
<text text-anchor="start" x="52" y="-237.8" font-family="Helvetica,sans-Serif" font-size="11.00" fill="#000000">...</text>
<polygon fill="#ffffff" stroke="transparent" points="49,-212.7 49,-231.7 119,-231.7 119,-212.7 49,-212.7"/>
<polygon fill="none" stroke="#000000" points="49,-212.7 49,-231.7 119,-231.7 119,-212.7 49,-212.7"/>
<text text-anchor="start" x="52" y="-218.8" font-family="Helvetica,sans-Serif" font-size="11.00" fill="#000000"> &#160;</text>
<polygon fill="#ffffff" stroke="transparent" points="119,-212.7 119,-231.7 160,-231.7 160,-212.7 119,-212.7"/>
<polygon fill="none" stroke="#000000" points="119,-212.7 119,-231.7 160,-231.7 160,-212.7 119,-212.7"/>
<text text-anchor="start" x="150.8862" y="-218.8" font-family="Helvetica,sans-Serif" font-size="11.00" fill="#000000"> &#160;</text>
<polygon fill="#ffffff" stroke="transparent" points="160,-212.7 160,-231.7 210,-231.7 210,-212.7 160,-212.7"/>
<polygon fill="none" stroke="#000000" points="160,-212.7 160,-231.7 210,-231.7 210,-212.7 160,-212.7"/>
<text text-anchor="start" x="191.4053" y="-218.8" font-family="Helvetica,sans-Serif" font-size="11.00" fill="#000000">2 &gt;</text>
</a>
</g>
</g>
<!-- occurrence&#45;&gt;absence_sub_type -->
<g id="edge6" class="edge">
<title>occurrence:w&#45;&gt;absence_sub_type:e</title>
<path fill="none" stroke="#000000" d="M285.09,-240.7C256.5545,-240.7 244.4948,-240.7 210,-240.7"/>
<polygon fill="#000000" stroke="#000000" points="291.5,-240.7001 299.5,-244.3 295.5,-240.7 299.5,-240.7 299.5,-240.7 299.5,-240.7 295.5,-240.7 299.5,-237.1 291.5,-240.7001 291.5,-240.7001"/>
<ellipse fill="none" stroke="#000000" cx="288.3" cy="-240.7001" rx="3.2" ry="3.2"/>
</g>
<!-- absence_type -->
<g id="node7" class="node">
<title>absence_type</title>
<g id="a_node7"><a xlink:href="../../tables/absence_type.html" xlink:title="absence_type" target="_top">
<polygon fill="#ffffff" stroke="transparent" points="63.5,-459.2 63.5,-520.2 194.5,-520.2 194.5,-459.2 63.5,-459.2"/>
<polygon fill="#f5f5f5" stroke="transparent" points="64,-496.7 64,-519.7 195,-519.7 195,-496.7 64,-496.7"/>
<polygon fill="none" stroke="#000000" points="64,-496.7 64,-519.7 195,-519.7 195,-496.7 64,-496.7"/>
<text text-anchor="start" x="69" y="-505.3" font-family="Helvetica,sans-Serif" font-weight="bold" font-size="11.00" fill="#000000">absence_type</text>
<text text-anchor="start" x="160.5219" y="-504.8" font-family="Helvetica,sans-Serif" font-size="11.00" fill="#000000">[table]</text>
<polygon fill="none" stroke="#000000" points="64,-477.7 64,-496.7 195,-496.7 195,-477.7 64,-477.7"/>
<text text-anchor="start" x="67" y="-483.8" font-family="Helvetica,sans-Serif" font-size="11.00" fill="#000000">...</text>
<polygon fill="#ffffff" stroke="transparent" points="64,-458.7 64,-477.7 119,-477.7 119,-458.7 64,-458.7"/>
<polygon fill="none" stroke="#000000" points="64,-458.7 64,-477.7 119,-477.7 119,-458.7 64,-458.7"/>
<text text-anchor="start" x="67" y="-464.8" font-family="Helvetica,sans-Serif" font-size="11.00" fill="#000000"> &#160;</text>
<polygon fill="#ffffff" stroke="transparent" points="119,-458.7 119,-477.7 152,-477.7 152,-458.7 119,-458.7"/>
<polygon fill="none" stroke="#000000" points="119,-458.7 119,-477.7 152,-477.7 152,-458.7 119,-458.7"/>
<text text-anchor="start" x="142.8862" y="-464.8" font-family="Helvetica,sans-Serif" font-size="11.00" fill="#000000"> &#160;</text>
<polygon fill="#ffffff" stroke="transparent" points="152,-458.7 152,-477.7 195,-477.7 195,-458.7 152,-458.7"/>
<polygon fill="none" stroke="#000000" points="152,-458.7 152,-477.7 195,-477.7 195,-458.7 152,-458.7"/>
<text text-anchor="start" x="176.4053" y="-464.8" font-family="Helvetica,sans-Serif" font-size="11.00" fill="#000000">2 &gt;</text>
</a>
</g>
</g>
<!-- occurrence&#45;&gt;absence_type -->
<g id="edge7" class="edge">
<title>occurrence:w&#45;&gt;absence_type:e</title>
<path fill="none" stroke="#000000" d="M284.8793,-264.2026C226.482,-278.0586 304.1884,-384.5171 258,-448.7 238.9001,-475.241 227.6992,-486.7 195,-486.7"/>
<polygon fill="#000000" stroke="#000000" points="291.5419,-263.5179 299.8681,-266.2811 295.521,-263.109 299.5,-262.7 299.5,-262.7 299.5,-262.7 295.521,-263.109 299.1319,-259.1189 291.5419,-263.5179 291.5419,-263.5179"/>
<ellipse fill="none" stroke="#000000" cx="288.3587" cy="-263.8451" rx="3.2" ry="3.2"/>
</g>
<!-- occurrence_status -->
<g id="node8" class="node">
<title>occurrence_status</title>
<g id="a_node8"><a xlink:href="../../tables/occurrence_status.html" xlink:title="occurrence_status" target="_top">
<polygon fill="#ffffff" stroke="transparent" points="8,-541.7 8,-697.7 250,-697.7 250,-541.7 8,-541.7"/>
<polygon fill="#f5f5f5" stroke="transparent" points="10,-672.7 10,-695.7 248,-695.7 248,-672.7 10,-672.7"/>
<polygon fill="none" stroke="#000000" points="10,-672.7 10,-695.7 248,-695.7 248,-672.7 10,-672.7"/>
<text text-anchor="start" x="15" y="-681.3" font-family="Helvetica,sans-Serif" font-weight="bold" font-size="11.00" fill="#000000">occurrence_status</text>
<text text-anchor="start" x="213.0437" y="-680.8" font-family="Helvetica,sans-Serif" font-size="11.00" fill="#000000">[table]</text>
<polygon fill="none" stroke="#000000" points="10,-650.7 10,-672.7 154,-672.7 154,-650.7 10,-650.7"/>
<image xlink:href="../../images/primaryKeys.png" width="11px" height="12px" preserveAspectRatio="xMinYMin meet" x="15" y="-667.7"/>
<text text-anchor="start" x="30" y="-657.8" font-family="Helvetica,sans-Serif" font-size="11.00" fill="#000000">id</text>
<polygon fill="none" stroke="#000000" points="154,-650.7 154,-672.7 248,-672.7 248,-650.7 154,-650.7"/>
<text text-anchor="start" x="156.9758" y="-658.4" font-family="Helvetica,sans-Serif" font-size="11.00" fill="#000000">uuid[2147483647]</text>
<polygon fill="#ffffff" stroke="transparent" points="10,-628.7 10,-650.7 154,-650.7 154,-628.7 10,-628.7"/>
<polygon fill="none" stroke="#000000" points="10,-628.7 10,-650.7 154,-650.7 154,-628.7 10,-628.7"/>
<text text-anchor="start" x="30" y="-635.8" font-family="Helvetica,sans-Serif" font-size="11.00" fill="#000000">code</text>
<polygon fill="none" stroke="#000000" points="154,-628.7 154,-650.7 248,-650.7 248,-628.7 154,-628.7"/>
<text text-anchor="start" x="157" y="-636.4" font-family="Helvetica,sans-Serif" font-size="11.00" fill="#000000">varchar[16]</text>
<polygon fill="none" stroke="#000000" points="10,-606.7 10,-628.7 154,-628.7 154,-606.7 10,-606.7"/>
<text text-anchor="start" x="30" y="-613.8" font-family="Helvetica,sans-Serif" font-size="11.00" fill="#000000">description</text>
<polygon fill="none" stroke="#000000" points="154,-606.7 154,-628.7 248,-628.7 248,-606.7 154,-606.7"/>
<text text-anchor="start" x="157" y="-614.4" font-family="Helvetica,sans-Serif" font-size="11.00" fill="#000000">varchar[255]</text>
<polygon fill="#ffffff" stroke="transparent" points="10,-584.7 10,-606.7 154,-606.7 154,-584.7 10,-584.7"/>
<polygon fill="none" stroke="#000000" points="10,-584.7 10,-606.7 154,-606.7 154,-584.7 10,-584.7"/>
<text text-anchor="start" x="30" y="-591.8" font-family="Helvetica,sans-Serif" font-size="11.00" fill="#000000">sequence_number</text>
<polygon fill="none" stroke="#000000" points="154,-584.7 154,-606.7 248,-606.7 248,-584.7 154,-584.7"/>
<text text-anchor="start" x="157" y="-592.4" font-family="Helvetica,sans-Serif" font-size="11.00" fill="#000000">int4[10]</text>
<polygon fill="none" stroke="#000000" points="10,-562.7 10,-584.7 154,-584.7 154,-562.7 10,-562.7"/>
<text text-anchor="start" x="30" y="-569.8" font-family="Helvetica,sans-Serif" font-size="11.00" fill="#000000">active</text>
<polygon fill="none" stroke="#000000" points="154,-562.7 154,-584.7 248,-584.7 248,-562.7 154,-562.7"/>
<text text-anchor="start" x="157" y="-570.4" font-family="Helvetica,sans-Serif" font-size="11.00" fill="#000000">bool[1]</text>
<polygon fill="#ffffff" stroke="transparent" points="10,-543.7 10,-562.7 86,-562.7 86,-543.7 10,-543.7"/>
<polygon fill="none" stroke="#000000" points="10,-543.7 10,-562.7 86,-562.7 86,-543.7 10,-543.7"/>
<text text-anchor="start" x="13" y="-549.8" font-family="Helvetica,sans-Serif" font-size="11.00" fill="#000000">&lt; 0</text>
<polygon fill="#ffffff" stroke="transparent" points="86,-543.7 86,-562.7 154,-562.7 154,-543.7 86,-543.7"/>
<polygon fill="none" stroke="#000000" points="86,-543.7 86,-562.7 154,-562.7 154,-543.7 86,-543.7"/>
<text text-anchor="start" x="144.8862" y="-549.8" font-family="Helvetica,sans-Serif" font-size="11.00" fill="#000000"> &#160;</text>
<polygon fill="#ffffff" stroke="transparent" points="154,-543.7 154,-562.7 248,-562.7 248,-543.7 154,-543.7"/>
<polygon fill="none" stroke="#000000" points="154,-543.7 154,-562.7 248,-562.7 248,-543.7 154,-543.7"/>
<text text-anchor="start" x="229.4053" y="-549.8" font-family="Helvetica,sans-Serif" font-size="11.00" fill="#000000">1 &gt;</text>
<polygon fill="none" stroke="#000000" stroke-width="2" points="9,-542.7 9,-696.7 249,-696.7 249,-542.7 9,-542.7"/>
</a>
</g>
</g>
<!-- occurrence&#45;&gt;occurrence_status -->
<g id="edge9" class="edge">
<title>occurrence:w&#45;&gt;occurrence_status:e</title>
<path fill="none" stroke="#000000" d="M285.5616,-289.1965C229.2652,-331.7315 327.106,-661.7 248,-661.7"/>
<polygon fill="#000000" stroke="#000000" points="291.8864,-287.1562 300.6053,-288.1261 295.6932,-285.9281 299.5,-284.7 299.5,-284.7 299.5,-284.7 295.6932,-285.9281 298.3947,-281.2739 291.8864,-287.1562 291.8864,-287.1562"/>
<ellipse fill="none" stroke="#000000" cx="288.8409" cy="-288.1387" rx="3.2" ry="3.2"/>
</g>
<!-- transport -->
<g id="node9" class="node">
<title>transport</title>
<g id="a_node9"><a xlink:href="../../tables/transport.html" xlink:title="transport" target="_top">
<polygon fill="#ffffff" stroke="transparent" points="78,-49.2 78,-110.2 180,-110.2 180,-49.2 78,-49.2"/>
<polygon fill="#f5f5f5" stroke="transparent" points="78,-86.7 78,-109.7 180,-109.7 180,-86.7 78,-86.7"/>
<polygon fill="none" stroke="#000000" points="78,-86.7 78,-109.7 180,-109.7 180,-86.7 78,-86.7"/>
<text text-anchor="start" x="83" y="-95.3" font-family="Helvetica,sans-Serif" font-weight="bold" font-size="11.00" fill="#000000">transport</text>
<text text-anchor="start" x="145.5219" y="-94.8" font-family="Helvetica,sans-Serif" font-size="11.00" fill="#000000">[table]</text>
<polygon fill="none" stroke="#000000" points="78,-67.7 78,-86.7 180,-86.7 180,-67.7 78,-67.7"/>
<text text-anchor="start" x="81" y="-73.8" font-family="Helvetica,sans-Serif" font-size="11.00" fill="#000000">...</text>
<polygon fill="#ffffff" stroke="transparent" points="78,-48.7 78,-67.7 118,-67.7 118,-48.7 78,-48.7"/>
<polygon fill="none" stroke="#000000" points="78,-48.7 78,-67.7 118,-67.7 118,-48.7 78,-48.7"/>
<text text-anchor="start" x="81" y="-54.8" font-family="Helvetica,sans-Serif" font-size="11.00" fill="#000000"> &#160;</text>
<polygon fill="#ffffff" stroke="transparent" points="118,-48.7 118,-67.7 144,-67.7 144,-48.7 118,-48.7"/>
<polygon fill="none" stroke="#000000" points="118,-48.7 118,-67.7 144,-67.7 144,-48.7 118,-48.7"/>
<text text-anchor="start" x="134.8862" y="-54.8" font-family="Helvetica,sans-Serif" font-size="11.00" fill="#000000"> &#160;</text>
<polygon fill="#ffffff" stroke="transparent" points="144,-48.7 144,-67.7 180,-67.7 180,-48.7 144,-48.7"/>
<polygon fill="none" stroke="#000000" points="144,-48.7 144,-67.7 180,-67.7 180,-48.7 144,-48.7"/>
<text text-anchor="start" x="161.4053" y="-54.8" font-family="Helvetica,sans-Serif" font-size="11.00" fill="#000000">2 &gt;</text>
</a>
</g>
</g>
<!-- occurrence&#45;&gt;transport -->
<g id="edge10" class="edge">
<title>occurrence:w&#45;&gt;transport:e</title>
<path fill="none" stroke="#000000" d="M285.2797,-149.1259C275.3947,-142.9772 272.2579,-130.1483 258,-120.7 224.8217,-98.7137 219.802,-76.7 180,-76.7"/>
<polygon fill="#000000" stroke="#000000" points="291.7413,-150.7499 298.6225,-156.1914 295.6207,-151.725 299.5,-152.7 299.5,-152.7 299.5,-152.7 295.6207,-151.725 300.3775,-149.2086 291.7413,-150.7499 291.7413,-150.7499"/>
<ellipse fill="none" stroke="#000000" cx="288.6378" cy="-149.9699" rx="3.2" ry="3.2"/>
</g>
</g>
</svg>
