<?xml version="1.0" encoding="UTF-8" standalone="no"?>
<!DOCTYPE svg PUBLIC "-//W3C//DTD SVG 1.1//EN"
 "http://www.w3.org/Graphics/SVG/1.1/DTD/svg11.dtd">
<!-- Generated by graphviz version 2.40.1 (20161225.0304)
 -->
<!-- Title: oneDegreeRelationshipsDiagram Pages: 1 -->
<svg width="858pt" height="1147pt"
 viewBox="0.00 0.00 858.00 1147.20" xmlns="http://www.w3.org/2000/svg" xmlns:xlink="http://www.w3.org/1999/xlink">
<g id="graph0" class="graph" transform="scale(1 1) rotate(0) translate(4 1143.2)">
<title>oneDegreeRelationshipsDiagram</title>
<polygon fill="#ffffff" stroke="transparent" points="-4,4 -4,-1143.2 854,-1143.2 854,4 -4,4"/>
<text text-anchor="middle" x="72.4936" y="-7.3" font-family="Helvetica,sans-Serif" font-size="11.00" fill="#000000">Generated by SchemaSpy</text>
<!-- movement -->
<g id="node1" class="node">
<title>movement</title>
<g id="a_node1"><a xlink:href="../../tables/movement.html" xlink:title="movement" target="_top">
<polygon fill="#ffffff" stroke="transparent" points="634,-525.2 634,-740.2 842,-740.2 842,-525.2 634,-525.2"/>
<polygon fill="#f5f5f5" stroke="transparent" points="634,-716.7 634,-739.7 842,-739.7 842,-716.7 634,-716.7"/>
<polygon fill="none" stroke="#000000" points="634,-716.7 634,-739.7 842,-739.7 842,-716.7 634,-716.7"/>
<text text-anchor="start" x="639" y="-725.3" font-family="Helvetica,sans-Serif" font-weight="bold" font-size="11.00" fill="#000000">movement</text>
<text text-anchor="start" x="807.0437" y="-724.8" font-family="Helvetica,sans-Serif" font-size="11.00" fill="#000000">[table]</text>
<polygon fill="none" stroke="#000000" points="634,-694.7 634,-716.7 842,-716.7 842,-694.7 634,-694.7"/>
<image xlink:href="../../images/primaryKeys.png" width="11px" height="12px" preserveAspectRatio="xMinYMin meet" x="639" y="-711.7"/>
<text text-anchor="start" x="654" y="-701.8" font-family="Helvetica,sans-Serif" font-size="11.00" fill="#000000">id</text>
<polygon fill="#ffffff" stroke="transparent" points="634,-672.7 634,-694.7 842,-694.7 842,-672.7 634,-672.7"/>
<polygon fill="none" stroke="#000000" points="634,-672.7 634,-694.7 842,-694.7 842,-672.7 634,-672.7"/>
<image xlink:href="../../images/foreignKeys.png" width="11px" height="12px" preserveAspectRatio="xMinYMin meet" x="639" y="-689.7"/>
<text text-anchor="start" x="654" y="-679.8" font-family="Helvetica,sans-Serif" font-size="11.00" fill="#000000">person_identifier</text>
<polygon fill="#ffffff" stroke="transparent" points="634,-650.7 634,-672.7 842,-672.7 842,-650.7 634,-650.7"/>
<polygon fill="none" stroke="#000000" points="634,-650.7 634,-672.7 842,-672.7 842,-650.7 634,-650.7"/>
<image xlink:href="../../images/foreignKeys.png" width="11px" height="12px" preserveAspectRatio="xMinYMin meet" x="639" y="-667.7"/>
<text text-anchor="start" x="654" y="-657.8" font-family="Helvetica,sans-Serif" font-size="11.00" fill="#000000">occurrence_id</text>
<polygon fill="#ffffff" stroke="transparent" points="634,-628.7 634,-650.7 842,-650.7 842,-628.7 634,-628.7"/>
<polygon fill="none" stroke="#000000" points="634,-628.7 634,-650.7 842,-650.7 842,-628.7 634,-628.7"/>
<text text-anchor="start" x="654" y="-635.8" font-family="Helvetica,sans-Serif" font-size="11.00" fill="#000000">occurred_at</text>
<polygon fill="none" stroke="#000000" points="634,-606.7 634,-628.7 842,-628.7 842,-606.7 634,-606.7"/>
<image xlink:href="../../images/foreignKeys.png" width="11px" height="12px" preserveAspectRatio="xMinYMin meet" x="639" y="-623.7"/>
<text text-anchor="start" x="654" y="-613.8" font-family="Helvetica,sans-Serif" font-size="11.00" fill="#000000">absence_reason_id</text>
<polygon fill="none" stroke="#000000" points="634,-584.7 634,-606.7 842,-606.7 842,-584.7 634,-584.7"/>
<image xlink:href="../../images/foreignKeys.png" width="11px" height="12px" preserveAspectRatio="xMinYMin meet" x="639" y="-601.7"/>
<text text-anchor="start" x="654" y="-591.8" font-family="Helvetica,sans-Serif" font-size="11.00" fill="#000000">accompanied_by_id</text>
<polygon fill="#ffffff" stroke="transparent" points="634,-562.7 634,-584.7 842,-584.7 842,-562.7 634,-562.7"/>
<polygon fill="none" stroke="#000000" points="634,-562.7 634,-584.7 842,-584.7 842,-562.7 634,-562.7"/>
<text text-anchor="start" x="654" y="-569.8" font-family="Helvetica,sans-Serif" font-size="11.00" fill="#000000">legacy_id</text>
<polygon fill="none" stroke="#000000" points="634,-543.7 634,-562.7 842,-562.7 842,-543.7 634,-543.7"/>
<text text-anchor="start" x="637" y="-549.8" font-family="Helvetica,sans-Serif" font-size="11.00" fill="#000000">...</text>
<polygon fill="#ffffff" stroke="transparent" points="634,-524.7 634,-543.7 736,-543.7 736,-524.7 634,-524.7"/>
<polygon fill="none" stroke="#000000" points="634,-524.7 634,-543.7 736,-543.7 736,-524.7 634,-524.7"/>
<text text-anchor="start" x="637" y="-530.8" font-family="Helvetica,sans-Serif" font-size="11.00" fill="#000000">&lt; 4</text>
<polygon fill="#ffffff" stroke="transparent" points="736,-524.7 736,-543.7 789,-543.7 789,-524.7 736,-524.7"/>
<polygon fill="none" stroke="#000000" points="736,-524.7 736,-543.7 789,-543.7 789,-524.7 736,-524.7"/>
<text text-anchor="start" x="779.8862" y="-530.8" font-family="Helvetica,sans-Serif" font-size="11.00" fill="#000000"> &#160;</text>
<polygon fill="#ffffff" stroke="transparent" points="789,-524.7 789,-543.7 842,-543.7 842,-524.7 789,-524.7"/>
<polygon fill="none" stroke="#000000" points="789,-524.7 789,-543.7 842,-543.7 842,-524.7 789,-524.7"/>
<text text-anchor="start" x="832.8862" y="-530.8" font-family="Helvetica,sans-Serif" font-size="11.00" fill="#000000"> &#160;</text>
</a>
</g>
</g>
<!-- absence_reason -->
<g id="node2" class="node">
<title>absence_reason</title>
<g id="a_node2"><a xlink:href="../../tables/absence_reason.html" xlink:title="absence_reason" target="_top">
<polygon fill="#ffffff" stroke="transparent" points="41,-334.2 41,-461.2 187,-461.2 187,-334.2 41,-334.2"/>
<polygon fill="#f5f5f5" stroke="transparent" points="41,-437.7 41,-460.7 187,-460.7 187,-437.7 41,-437.7"/>
<polygon fill="none" stroke="#000000" points="41,-437.7 41,-460.7 187,-460.7 187,-437.7 41,-437.7"/>
<text text-anchor="start" x="46" y="-446.3" font-family="Helvetica,sans-Serif" font-weight="bold" font-size="11.00" fill="#000000">absence_reason</text>
<text text-anchor="start" x="152.5219" y="-445.8" font-family="Helvetica,sans-Serif" font-size="11.00" fill="#000000">[table]</text>
<polygon fill="none" stroke="#000000" points="41,-415.7 41,-437.7 187,-437.7 187,-415.7 41,-415.7"/>
<image xlink:href="../../images/primaryKeys.png" width="11px" height="12px" preserveAspectRatio="xMinYMin meet" x="46" y="-432.7"/>
<text text-anchor="start" x="63" y="-422.8" font-family="Helvetica,sans-Serif" font-size="11.00" fill="#000000">id</text>
<polygon fill="#ffffff" stroke="transparent" points="41,-393.7 41,-415.7 187,-415.7 187,-393.7 41,-393.7"/>
<polygon fill="none" stroke="#000000" points="41,-393.7 41,-415.7 187,-415.7 187,-393.7 41,-393.7"/>
<text text-anchor="start" x="63" y="-400.8" font-family="Helvetica,sans-Serif" font-size="11.00" fill="#000000">code</text>
<polygon fill="#ffffff" stroke="transparent" points="41,-371.7 41,-393.7 187,-393.7 187,-371.7 41,-371.7"/>
<polygon fill="none" stroke="#000000" points="41,-371.7 41,-393.7 187,-393.7 187,-371.7 41,-371.7"/>
<text text-anchor="start" x="63" y="-378.8" font-family="Helvetica,sans-Serif" font-size="11.00" fill="#000000">sequence_number</text>
<polygon fill="none" stroke="#000000" points="41,-352.7 41,-371.7 187,-371.7 187,-352.7 41,-352.7"/>
<text text-anchor="start" x="44" y="-358.8" font-family="Helvetica,sans-Serif" font-size="11.00" fill="#000000">...</text>
<polygon fill="#ffffff" stroke="transparent" points="41,-333.7 41,-352.7 87,-352.7 87,-333.7 41,-333.7"/>
<polygon fill="none" stroke="#000000" points="41,-333.7 41,-352.7 87,-352.7 87,-333.7 41,-333.7"/>
<text text-anchor="start" x="44" y="-339.8" font-family="Helvetica,sans-Serif" font-size="11.00" fill="#000000"> &#160;</text>
<polygon fill="#ffffff" stroke="transparent" points="87,-333.7 87,-352.7 148,-352.7 148,-333.7 87,-333.7"/>
<polygon fill="none" stroke="#000000" points="87,-333.7 87,-352.7 148,-352.7 148,-333.7 87,-333.7"/>
<text text-anchor="start" x="106.4956" y="-339.8" font-family="Helvetica,sans-Serif" font-size="11.00" fill="#000000">98 rows</text>
<polygon fill="#ffffff" stroke="transparent" points="148,-333.7 148,-352.7 187,-352.7 187,-333.7 148,-333.7"/>
<polygon fill="none" stroke="#000000" points="148,-333.7 148,-352.7 187,-352.7 187,-333.7 148,-333.7"/>
<text text-anchor="start" x="168.4053" y="-339.8" font-family="Helvetica,sans-Serif" font-size="11.00" fill="#000000">3 &gt;</text>
</a>
</g>
</g>
<!-- movement&#45;&gt;absence_reason -->
<g id="edge1" class="edge">
<title>movement:w&#45;&gt;absence_reason:e</title>
<path fill="none" stroke="#000000" d="M619.6143,-616.1671C556.4033,-600.5752 659.633,-470.1672 593,-415.7 478.7557,-322.3144 408.1541,-404.8226 261,-415.7 227.8402,-418.1511 220.2503,-426.7 187,-426.7"/>
<polygon fill="#000000" stroke="#000000" points="626.045,-616.8523 633.6185,-621.2797 630.0225,-617.2762 634,-617.7 634,-617.7 634,-617.7 630.0225,-617.2762 634.3815,-614.1203 626.045,-616.8523 626.045,-616.8523"/>
<ellipse fill="none" stroke="#000000" cx="622.863" cy="-616.5132" rx="3.2" ry="3.2"/>
</g>
<!-- accompanied_by -->
<g id="node3" class="node">
<title>accompanied_by</title>
<g id="a_node3"><a xlink:href="../../tables/accompanied_by.html" xlink:title="accompanied_by" target="_top">
<polygon fill="#ffffff" stroke="transparent" points="39,-186.2 39,-313.2 189,-313.2 189,-186.2 39,-186.2"/>
<polygon fill="#f5f5f5" stroke="transparent" points="39,-289.7 39,-312.7 189,-312.7 189,-289.7 39,-289.7"/>
<polygon fill="none" stroke="#000000" points="39,-289.7 39,-312.7 189,-312.7 189,-289.7 39,-289.7"/>
<text text-anchor="start" x="44" y="-298.3" font-family="Helvetica,sans-Serif" font-weight="bold" font-size="11.00" fill="#000000">accompanied_by</text>
<text text-anchor="start" x="154.5219" y="-297.8" font-family="Helvetica,sans-Serif" font-size="11.00" fill="#000000">[table]</text>
<polygon fill="none" stroke="#000000" points="39,-267.7 39,-289.7 189,-289.7 189,-267.7 39,-267.7"/>
<image xlink:href="../../images/primaryKeys.png" width="11px" height="12px" preserveAspectRatio="xMinYMin meet" x="44" y="-284.7"/>
<text text-anchor="start" x="63" y="-274.8" font-family="Helvetica,sans-Serif" font-size="11.00" fill="#000000">id</text>
<polygon fill="#ffffff" stroke="transparent" points="39,-245.7 39,-267.7 189,-267.7 189,-245.7 39,-245.7"/>
<polygon fill="none" stroke="#000000" points="39,-245.7 39,-267.7 189,-267.7 189,-245.7 39,-245.7"/>
<text text-anchor="start" x="63" y="-252.8" font-family="Helvetica,sans-Serif" font-size="11.00" fill="#000000">code</text>
<polygon fill="#ffffff" stroke="transparent" points="39,-223.7 39,-245.7 189,-245.7 189,-223.7 39,-223.7"/>
<polygon fill="none" stroke="#000000" points="39,-223.7 39,-245.7 189,-245.7 189,-223.7 39,-223.7"/>
<text text-anchor="start" x="63" y="-230.8" font-family="Helvetica,sans-Serif" font-size="11.00" fill="#000000">sequence_number</text>
<polygon fill="none" stroke="#000000" points="39,-204.7 39,-223.7 189,-223.7 189,-204.7 39,-204.7"/>
<text text-anchor="start" x="42" y="-210.8" font-family="Helvetica,sans-Serif" font-size="11.00" fill="#000000">...</text>
<polygon fill="#ffffff" stroke="transparent" points="39,-185.7 39,-204.7 103,-204.7 103,-185.7 39,-185.7"/>
<polygon fill="none" stroke="#000000" points="39,-185.7 39,-204.7 103,-204.7 103,-185.7 39,-185.7"/>
<text text-anchor="start" x="42" y="-191.8" font-family="Helvetica,sans-Serif" font-size="11.00" fill="#000000"> &#160;</text>
<polygon fill="#ffffff" stroke="transparent" points="103,-185.7 103,-204.7 141,-204.7 141,-185.7 103,-185.7"/>
<polygon fill="none" stroke="#000000" points="103,-185.7 103,-204.7 141,-204.7 141,-185.7 103,-185.7"/>
<text text-anchor="start" x="131.8862" y="-191.8" font-family="Helvetica,sans-Serif" font-size="11.00" fill="#000000"> &#160;</text>
<polygon fill="#ffffff" stroke="transparent" points="141,-185.7 141,-204.7 189,-204.7 189,-185.7 141,-185.7"/>
<polygon fill="none" stroke="#000000" points="141,-185.7 141,-204.7 189,-204.7 189,-185.7 141,-185.7"/>
<text text-anchor="start" x="170.4053" y="-191.8" font-family="Helvetica,sans-Serif" font-size="11.00" fill="#000000">3 &gt;</text>
</a>
</g>
</g>
<!-- movement&#45;&gt;accompanied_by -->
<g id="edge2" class="edge">
<title>movement:w&#45;&gt;accompanied_by:e</title>
<path fill="none" stroke="#000000" d="M619.2173,-594.3648C545.3656,-579.1964 660.1273,-438.6027 593,-368.7 465.5835,-236.0153 372.9571,-278.7 189,-278.7"/>
<polygon fill="#000000" stroke="#000000" points="626.0324,-594.9803 633.6761,-599.2854 630.0162,-595.3401 634,-595.7 634,-595.7 634,-595.7 630.0162,-595.3401 634.3239,-592.1146 626.0324,-594.9803 626.0324,-594.9803"/>
<ellipse fill="none" stroke="#000000" cx="622.8454" cy="-594.6924" rx="3.2" ry="3.2"/>
</g>
<!-- occurrence -->
<g id="node4" class="node">
<title>occurrence</title>
<g id="a_node4"><a xlink:href="../../tables/occurrence.html" xlink:title="occurrence" target="_top">
<polygon fill="#ffffff" stroke="transparent" points="269,-426.7 269,-912.7 585,-912.7 585,-426.7 269,-426.7"/>
<polygon fill="#f5f5f5" stroke="transparent" points="271,-887.7 271,-910.7 583,-910.7 583,-887.7 271,-887.7"/>
<polygon fill="none" stroke="#000000" points="271,-887.7 271,-910.7 583,-910.7 583,-887.7 271,-887.7"/>
<text text-anchor="start" x="276" y="-896.3" font-family="Helvetica,sans-Serif" font-weight="bold" font-size="11.00" fill="#000000">occurrence</text>
<text text-anchor="start" x="548.0437" y="-895.8" font-family="Helvetica,sans-Serif" font-size="11.00" fill="#000000">[table]</text>
<polygon fill="none" stroke="#000000" points="271,-865.7 271,-887.7 484,-887.7 484,-865.7 271,-865.7"/>
<image xlink:href="../../images/primaryKeys.png" width="11px" height="12px" preserveAspectRatio="xMinYMin meet" x="276" y="-882.7"/>
<text text-anchor="start" x="291" y="-872.8" font-family="Helvetica,sans-Serif" font-size="11.00" fill="#000000">id</text>
<polygon fill="none" stroke="#000000" points="484,-865.7 484,-887.7 583,-887.7 583,-865.7 484,-865.7"/>
<text text-anchor="start" x="487" y="-873.4" font-family="Helvetica,sans-Serif" font-size="11.00" fill="#000000">uuid[2147483647]</text>
<polygon fill="none" stroke="#000000" points="271,-843.7 271,-865.7 484,-865.7 484,-843.7 271,-843.7"/>
<text text-anchor="start" x="291" y="-850.8" font-family="Helvetica,sans-Serif" font-size="11.00" fill="#000000">version</text>
<polygon fill="none" stroke="#000000" points="484,-843.7 484,-865.7 583,-865.7 583,-843.7 484,-843.7"/>
<text text-anchor="start" x="487" y="-851.4" font-family="Helvetica,sans-Serif" font-size="11.00" fill="#000000">int4[10]</text>
<polygon fill="#ffffff" stroke="transparent" points="271,-821.7 271,-843.7 484,-843.7 484,-821.7 271,-821.7"/>
<polygon fill="none" stroke="#000000" points="271,-821.7 271,-843.7 484,-843.7 484,-821.7 271,-821.7"/>
<image xlink:href="../../images/foreignKeys.png" width="11px" height="12px" preserveAspectRatio="xMinYMin meet" x="276" y="-838.7"/>
<text text-anchor="start" x="291" y="-828.8" font-family="Helvetica,sans-Serif" font-size="11.00" fill="#000000">person_identifier</text>
<polygon fill="none" stroke="#000000" points="484,-821.7 484,-843.7 583,-843.7 583,-821.7 484,-821.7"/>
<text text-anchor="start" x="487" y="-829.4" font-family="Helvetica,sans-Serif" font-size="11.00" fill="#000000">varchar[10]</text>
<polygon fill="#ffffff" stroke="transparent" points="271,-799.7 271,-821.7 484,-821.7 484,-799.7 271,-799.7"/>
<polygon fill="none" stroke="#000000" points="271,-799.7 271,-821.7 484,-821.7 484,-799.7 271,-799.7"/>
<text text-anchor="start" x="291" y="-806.8" font-family="Helvetica,sans-Serif" font-size="11.00" fill="#000000">prison_code</text>
<polygon fill="none" stroke="#000000" points="484,-799.7 484,-821.7 583,-821.7 583,-799.7 484,-799.7"/>
<text text-anchor="start" x="487" y="-807.4" font-family="Helvetica,sans-Serif" font-size="11.00" fill="#000000">varchar[6]</text>
<polygon fill="#ffffff" stroke="transparent" points="271,-777.7 271,-799.7 484,-799.7 484,-777.7 271,-777.7"/>
<polygon fill="none" stroke="#000000" points="271,-777.7 271,-799.7 484,-799.7 484,-777.7 271,-777.7"/>
<text text-anchor="start" x="291" y="-784.8" font-family="Helvetica,sans-Serif" font-size="11.00" fill="#000000">authorisation_id</text>
<polygon fill="none" stroke="#000000" points="484,-777.7 484,-799.7 583,-799.7 583,-777.7 484,-777.7"/>
<text text-anchor="start" x="487" y="-785.4" font-family="Helvetica,sans-Serif" font-size="11.00" fill="#000000">uuid[2147483647]</text>
<polygon fill="#ffffff" stroke="transparent" points="271,-755.7 271,-777.7 484,-777.7 484,-755.7 271,-755.7"/>
<polygon fill="none" stroke="#000000" points="271,-755.7 271,-777.7 484,-777.7 484,-755.7 271,-755.7"/>
<image xlink:href="../../images/foreignKeys.png" width="11px" height="12px" preserveAspectRatio="xMinYMin meet" x="276" y="-772.7"/>
<text text-anchor="start" x="291" y="-762.8" font-family="Helvetica,sans-Serif" font-size="11.00" fill="#000000">status_id</text>
<polygon fill="none" stroke="#000000" points="484,-755.7 484,-777.7 583,-777.7 583,-755.7 484,-755.7"/>
<text text-anchor="start" x="487" y="-763.4" font-family="Helvetica,sans-Serif" font-size="11.00" fill="#000000">uuid[2147483647]</text>
<polygon fill="none" stroke="#000000" points="271,-733.7 271,-755.7 484,-755.7 484,-733.7 271,-733.7"/>
<image xlink:href="../../images/foreignKeys.png" width="11px" height="12px" preserveAspectRatio="xMinYMin meet" x="276" y="-750.7"/>
<text text-anchor="start" x="291" y="-740.8" font-family="Helvetica,sans-Serif" font-size="11.00" fill="#000000">absence_type_id</text>
<polygon fill="none" stroke="#000000" points="484,-733.7 484,-755.7 583,-755.7 583,-733.7 484,-733.7"/>
<text text-anchor="start" x="487" y="-741.4" font-family="Helvetica,sans-Serif" font-size="11.00" fill="#000000">uuid[2147483647]</text>
<polygon fill="none" stroke="#000000" points="271,-711.7 271,-733.7 484,-733.7 484,-711.7 271,-711.7"/>
<image xlink:href="../../images/foreignKeys.png" width="11px" height="12px" preserveAspectRatio="xMinYMin meet" x="276" y="-728.7"/>
<text text-anchor="start" x="291" y="-718.8" font-family="Helvetica,sans-Serif" font-size="11.00" fill="#000000">absence_sub_type_id</text>
<polygon fill="none" stroke="#000000" points="484,-711.7 484,-733.7 583,-733.7 583,-711.7 484,-711.7"/>
<text text-anchor="start" x="487" y="-719.4" font-family="Helvetica,sans-Serif" font-size="11.00" fill="#000000">uuid[2147483647]</text>
<polygon fill="none" stroke="#000000" points="271,-689.7 271,-711.7 484,-711.7 484,-689.7 271,-689.7"/>
<image xlink:href="../../images/foreignKeys.png" width="11px" height="12px" preserveAspectRatio="xMinYMin meet" x="276" y="-706.7"/>
<text text-anchor="start" x="291" y="-696.8" font-family="Helvetica,sans-Serif" font-size="11.00" fill="#000000">absence_reason_category_id</text>
<polygon fill="none" stroke="#000000" points="484,-689.7 484,-711.7 583,-711.7 583,-689.7 484,-689.7"/>
<text text-anchor="start" x="487" y="-697.4" font-family="Helvetica,sans-Serif" font-size="11.00" fill="#000000">uuid[2147483647]</text>
<polygon fill="none" stroke="#000000" points="271,-667.7 271,-689.7 484,-689.7 484,-667.7 271,-667.7"/>
<image xlink:href="../../images/foreignKeys.png" width="11px" height="12px" preserveAspectRatio="xMinYMin meet" x="276" y="-684.7"/>
<text text-anchor="start" x="291" y="-674.8" font-family="Helvetica,sans-Serif" font-size="11.00" fill="#000000">absence_reason_id</text>
<polygon fill="none" stroke="#000000" points="484,-667.7 484,-689.7 583,-689.7 583,-667.7 484,-667.7"/>
<text text-anchor="start" x="487" y="-675.4" font-family="Helvetica,sans-Serif" font-size="11.00" fill="#000000">uuid[2147483647]</text>
<polygon fill="none" stroke="#000000" points="271,-645.7 271,-667.7 484,-667.7 484,-645.7 271,-645.7"/>
<image xlink:href="../../images/foreignKeys.png" width="11px" height="12px" preserveAspectRatio="xMinYMin meet" x="276" y="-662.7"/>
<text text-anchor="start" x="291" y="-652.8" font-family="Helvetica,sans-Serif" font-size="11.00" fill="#000000">accompanied_by_id</text>
<polygon fill="none" stroke="#000000" points="484,-645.7 484,-667.7 583,-667.7 583,-645.7 484,-645.7"/>
<text text-anchor="start" x="487" y="-653.4" font-family="Helvetica,sans-Serif" font-size="11.00" fill="#000000">uuid[2147483647]</text>
<polygon fill="none" stroke="#000000" points="271,-623.7 271,-645.7 484,-645.7 484,-623.7 271,-623.7"/>
<image xlink:href="../../images/foreignKeys.png" width="11px" height="12px" preserveAspectRatio="xMinYMin meet" x="276" y="-640.7"/>
<text text-anchor="start" x="291" y="-630.8" font-family="Helvetica,sans-Serif" font-size="11.00" fill="#000000">transport_id</text>
<polygon fill="none" stroke="#000000" points="484,-623.7 484,-645.7 583,-645.7 583,-623.7 484,-623.7"/>
<text text-anchor="start" x="487" y="-631.4" font-family="Helvetica,sans-Serif" font-size="11.00" fill="#000000">uuid[2147483647]</text>
<polygon fill="#ffffff" stroke="transparent" points="271,-601.7 271,-623.7 484,-623.7 484,-601.7 271,-601.7"/>
<polygon fill="none" stroke="#000000" points="271,-601.7 271,-623.7 484,-623.7 484,-601.7 271,-601.7"/>
<text text-anchor="start" x="291" y="-608.8" font-family="Helvetica,sans-Serif" font-size="11.00" fill="#000000">start</text>
<polygon fill="none" stroke="#000000" points="484,-601.7 484,-623.7 583,-623.7 583,-601.7 484,-601.7"/>
<text text-anchor="start" x="487" y="-609.4" font-family="Helvetica,sans-Serif" font-size="11.00" fill="#000000">timestamp[29,6]</text>
<polygon fill="#ffffff" stroke="transparent" points="271,-579.7 271,-601.7 484,-601.7 484,-579.7 271,-579.7"/>
<polygon fill="none" stroke="#000000" points="271,-579.7 271,-601.7 484,-601.7 484,-579.7 271,-579.7"/>
<text text-anchor="start" x="291" y="-586.8" font-family="Helvetica,sans-Serif" font-size="11.00" fill="#000000">end</text>
<polygon fill="none" stroke="#000000" points="484,-579.7 484,-601.7 583,-601.7 583,-579.7 484,-579.7"/>
<text text-anchor="start" x="487" y="-587.4" font-family="Helvetica,sans-Serif" font-size="11.00" fill="#000000">timestamp[29,6]</text>
<polygon fill="none" stroke="#000000" points="271,-557.7 271,-579.7 484,-579.7 484,-557.7 271,-557.7"/>
<text text-anchor="start" x="291" y="-564.8" font-family="Helvetica,sans-Serif" font-size="11.00" fill="#000000">location</text>
<polygon fill="none" stroke="#000000" points="484,-557.7 484,-579.7 583,-579.7 583,-557.7 484,-557.7"/>
<text text-anchor="start" x="486.7258" y="-565.4" font-family="Helvetica,sans-Serif" font-size="11.00" fill="#000000">jsonb[2147483647]</text>
<polygon fill="none" stroke="#000000" points="271,-535.7 271,-557.7 484,-557.7 484,-535.7 271,-535.7"/>
<text text-anchor="start" x="291" y="-542.8" font-family="Helvetica,sans-Serif" font-size="11.00" fill="#000000">contact_information</text>
<polygon fill="none" stroke="#000000" points="484,-535.7 484,-557.7 583,-557.7 583,-535.7 484,-535.7"/>
<text text-anchor="start" x="487" y="-543.4" font-family="Helvetica,sans-Serif" font-size="11.00" fill="#000000">text[2147483647]</text>
<polygon fill="none" stroke="#000000" points="271,-513.7 271,-535.7 484,-535.7 484,-513.7 271,-513.7"/>
<text text-anchor="start" x="291" y="-520.8" font-family="Helvetica,sans-Serif" font-size="11.00" fill="#000000">comments</text>
<polygon fill="none" stroke="#000000" points="484,-513.7 484,-535.7 583,-535.7 583,-513.7 484,-513.7"/>
<text text-anchor="start" x="487" y="-521.4" font-family="Helvetica,sans-Serif" font-size="11.00" fill="#000000">text[2147483647]</text>
<polygon fill="none" stroke="#000000" points="271,-491.7 271,-513.7 484,-513.7 484,-491.7 271,-491.7"/>
<text text-anchor="start" x="291" y="-498.8" font-family="Helvetica,sans-Serif" font-size="11.00" fill="#000000">reason_path</text>
<polygon fill="none" stroke="#000000" points="484,-491.7 484,-513.7 583,-513.7 583,-491.7 484,-491.7"/>
<text text-anchor="start" x="486.7258" y="-499.4" font-family="Helvetica,sans-Serif" font-size="11.00" fill="#000000">jsonb[2147483647]</text>
<polygon fill="none" stroke="#000000" points="271,-469.7 271,-491.7 484,-491.7 484,-469.7 271,-469.7"/>
<text text-anchor="start" x="291" y="-476.8" font-family="Helvetica,sans-Serif" font-size="11.00" fill="#000000">schedule_reference</text>
<polygon fill="none" stroke="#000000" points="484,-469.7 484,-491.7 583,-491.7 583,-469.7 484,-469.7"/>
<text text-anchor="start" x="486.7258" y="-477.4" font-family="Helvetica,sans-Serif" font-size="11.00" fill="#000000">jsonb[2147483647]</text>
<polygon fill="#ffffff" stroke="transparent" points="271,-447.7 271,-469.7 484,-469.7 484,-447.7 271,-447.7"/>
<polygon fill="none" stroke="#000000" points="271,-447.7 271,-469.7 484,-469.7 484,-447.7 271,-447.7"/>
<text text-anchor="start" x="291" y="-454.8" font-family="Helvetica,sans-Serif" font-size="11.00" fill="#000000">legacy_id</text>
<polygon fill="none" stroke="#000000" points="484,-447.7 484,-469.7 583,-469.7 583,-447.7 484,-447.7"/>
<text text-anchor="start" x="487" y="-455.4" font-family="Helvetica,sans-Serif" font-size="11.00" fill="#000000">int8[19]</text>
<polygon fill="#ffffff" stroke="transparent" points="271,-428.7 271,-447.7 382,-447.7 382,-428.7 271,-428.7"/>
<polygon fill="none" stroke="#000000" points="271,-428.7 271,-447.7 382,-447.7 382,-428.7 271,-428.7"/>
<text text-anchor="start" x="274" y="-434.8" font-family="Helvetica,sans-Serif" font-size="11.00" fill="#000000">&lt; 8</text>
<polygon fill="#ffffff" stroke="transparent" points="382,-428.7 382,-447.7 484,-447.7 484,-428.7 382,-428.7"/>
<polygon fill="none" stroke="#000000" points="382,-428.7 382,-447.7 484,-447.7 484,-428.7 382,-428.7"/>
<text text-anchor="start" x="474.8862" y="-434.8" font-family="Helvetica,sans-Serif" font-size="11.00" fill="#000000"> &#160;</text>
<polygon fill="#ffffff" stroke="transparent" points="484,-428.7 484,-447.7 583,-447.7 583,-428.7 484,-428.7"/>
<polygon fill="none" stroke="#000000" points="484,-428.7 484,-447.7 583,-447.7 583,-428.7 484,-428.7"/>
<text text-anchor="start" x="564.4053" y="-434.8" font-family="Helvetica,sans-Serif" font-size="11.00" fill="#000000">1 &gt;</text>
<polygon fill="none" stroke="#000000" stroke-width="2" points="270,-427.7 270,-911.7 584,-911.7 584,-427.7 270,-427.7"/>
</a>
</g>
</g>
<!-- movement&#45;&gt;occurrence -->
<g id="edge3" class="edge">
<title>movement:w&#45;&gt;occurrence:e</title>
<path fill="none" stroke="#000000" d="M619.5687,-663.6911C551.484,-685.3657 675.6446,-876.7 583,-876.7"/>
<polygon fill="#000000" stroke="#000000" points="626.0751,-662.7935 634.4921,-665.2662 630.0375,-662.2467 634,-661.7 634,-661.7 634,-661.7 630.0375,-662.2467 633.5079,-658.1338 626.0751,-662.7935 626.0751,-662.7935"/>
<ellipse fill="none" stroke="#000000" cx="622.9051" cy="-663.2309" rx="3.2" ry="3.2"/>
</g>
<!-- public.person_summary -->
<g id="node5" class="node">
<title>public.person_summary</title>
<g id="a_node5"><a xlink:href="../../../public/tables/person_summary.html" xlink:title="public.person_summary" target="_top">
<polygon fill="#ffffff" stroke="transparent" points="14.5,-1074.2 14.5,-1135.2 213.5,-1135.2 213.5,-1074.2 14.5,-1074.2"/>
<polygon fill="#f5f5f5" stroke="transparent" points="15,-1111.7 15,-1134.7 214,-1134.7 214,-1111.7 15,-1111.7"/>
<polygon fill="none" stroke="#000000" points="15,-1111.7 15,-1134.7 214,-1134.7 214,-1111.7 15,-1111.7"/>
<text text-anchor="start" x="20" y="-1120.3" font-family="Helvetica,sans-Serif" font-weight="bold" font-size="11.00" fill="#000000">public.person_summary</text>
<text text-anchor="start" x="179.5219" y="-1119.8" font-family="Helvetica,sans-Serif" font-size="11.00" fill="#000000">[table]</text>
<polygon fill="none" stroke="#000000" points="15,-1092.7 15,-1111.7 214,-1111.7 214,-1092.7 15,-1092.7"/>
<text text-anchor="start" x="18" y="-1098.8" font-family="Helvetica,sans-Serif" font-size="11.00" fill="#000000">...</text>
<polygon fill="#ffffff" stroke="transparent" points="15,-1073.7 15,-1092.7 91,-1092.7 91,-1073.7 15,-1073.7"/>
<polygon fill="none" stroke="#000000" points="15,-1073.7 15,-1092.7 91,-1092.7 91,-1073.7 15,-1073.7"/>
<text text-anchor="start" x="18" y="-1079.8" font-family="Helvetica,sans-Serif" font-size="11.00" fill="#000000"> &#160;</text>
<polygon fill="#ffffff" stroke="transparent" points="91,-1073.7 91,-1092.7 161,-1092.7 161,-1073.7 91,-1073.7"/>
<polygon fill="none" stroke="#000000" points="91,-1073.7 91,-1092.7 161,-1092.7 161,-1073.7 91,-1073.7"/>
<text text-anchor="start" x="125.6105" y="-1079.8" font-family="Helvetica,sans-Serif" font-size="11.00" fill="#000000">0 rows</text>
<polygon fill="#ffffff" stroke="transparent" points="161,-1073.7 161,-1092.7 214,-1092.7 214,-1073.7 161,-1073.7"/>
<polygon fill="none" stroke="#000000" points="161,-1073.7 161,-1092.7 214,-1092.7 214,-1073.7 161,-1073.7"/>
<text text-anchor="start" x="195.4053" y="-1079.8" font-family="Helvetica,sans-Serif" font-size="11.00" fill="#000000">3 &gt;</text>
</a>
</g>
</g>
<!-- movement&#45;&gt;public.person_summary -->
<g id="edge4" class="edge">
<title>movement:w&#45;&gt;public.person_summary:e</title>
<path fill="none" stroke="#000000" d="M620.4642,-689.4608C588.6823,-722.3394 623.8251,-886.1124 593,-923.7 501.1833,-1035.6595 332.3057,-1078.4218 221.5907,-1094.7176"/>
<polygon fill="#000000" stroke="#000000" points="626.6389,-686.8329 635.4098,-687.0125 630.3195,-685.2664 634,-683.7 634,-683.7 634,-683.7 630.3195,-685.2664 632.5902,-680.3875 626.6389,-686.8329 626.6389,-686.8329"/>
<ellipse fill="none" stroke="#000000" cx="623.6945" cy="-688.086" rx="3.2" ry="3.2"/>
</g>
<!-- occurrence&#45;&gt;absence_reason -->
<g id="edge6" class="edge">
<title>occurrence:w&#45;&gt;absence_reason:e</title>
<path fill="none" stroke="#000000" d="M257.6446,-672.7613C229.1594,-642.865 246.9365,-508.8073 228,-471.7 215.7015,-447.6003 214.0564,-426.7 187,-426.7"/>
<polygon fill="#000000" stroke="#000000" points="263.6901,-675.4495 269.5373,-681.9895 267.3451,-677.0748 271,-678.7 271,-678.7 271,-678.7 267.3451,-677.0748 272.4627,-675.4105 263.6901,-675.4495 263.6901,-675.4495"/>
<ellipse fill="none" stroke="#000000" cx="260.7661" cy="-674.1493" rx="3.2" ry="3.2"/>
</g>
<!-- occurrence&#45;&gt;accompanied_by -->
<g id="edge9" class="edge">
<title>occurrence:w&#45;&gt;accompanied_by:e</title>
<path fill="none" stroke="#000000" d="M256.8796,-652.7239C204.8808,-619.4403 256.3054,-386.8707 228,-323.7 217.1779,-299.5478 215.4659,-278.7 189,-278.7"/>
<polygon fill="#000000" stroke="#000000" points="263.2995,-654.5316 270.0242,-660.1652 267.1497,-655.6158 271,-656.7 271,-656.7 271,-656.7 267.1497,-655.6158 271.9758,-653.2348 263.2995,-654.5316 263.2995,-654.5316"/>
<ellipse fill="none" stroke="#000000" cx="260.2192" cy="-653.6643" rx="3.2" ry="3.2"/>
</g>
<!-- occurrence&#45;&gt;public.person_summary -->
<g id="edge10" class="edge">
<title>occurrence:w&#45;&gt;public.person_summary:e</title>
<path fill="none" stroke="#000000" d="M256.3639,-833.9308C179.6374,-848.4734 292.0902,-988.3459 228,-1063.7 226.0923,-1065.943 224.0522,-1068.0633 221.9001,-1070.0676"/>
<polygon fill="#000000" stroke="#000000" points="263.0281,-833.3704 271.3017,-836.2873 267.0141,-833.0352 271,-832.7 271,-832.7 271,-832.7 267.0141,-833.0352 270.6983,-829.1127 263.0281,-833.3704 263.0281,-833.3704"/>
<ellipse fill="none" stroke="#000000" cx="259.8394" cy="-833.6386" rx="3.2" ry="3.2"/>
</g>
<!-- absence_reason_category -->
<g id="node6" class="node">
<title>absence_reason_category</title>
<g id="a_node6"><a xlink:href="../../tables/absence_reason_category.html" xlink:title="absence_reason_category" target="_top">
<polygon fill="#ffffff" stroke="transparent" points="8,-482.2 8,-609.2 220,-609.2 220,-482.2 8,-482.2"/>
<polygon fill="#f5f5f5" stroke="transparent" points="8,-585.7 8,-608.7 220,-608.7 220,-585.7 8,-585.7"/>
<polygon fill="none" stroke="#000000" points="8,-585.7 8,-608.7 220,-608.7 220,-585.7 8,-585.7"/>
<text text-anchor="start" x="13" y="-594.3" font-family="Helvetica,sans-Serif" font-weight="bold" font-size="11.00" fill="#000000">absence_reason_category</text>
<text text-anchor="start" x="185.5219" y="-593.8" font-family="Helvetica,sans-Serif" font-size="11.00" fill="#000000">[table]</text>
<polygon fill="none" stroke="#000000" points="8,-563.7 8,-585.7 220,-585.7 220,-563.7 8,-563.7"/>
<image xlink:href="../../images/primaryKeys.png" width="11px" height="12px" preserveAspectRatio="xMinYMin meet" x="13" y="-580.7"/>
<text text-anchor="start" x="37" y="-570.8" font-family="Helvetica,sans-Serif" font-size="11.00" fill="#000000">id</text>
<polygon fill="#ffffff" stroke="transparent" points="8,-541.7 8,-563.7 220,-563.7 220,-541.7 8,-541.7"/>
<polygon fill="none" stroke="#000000" points="8,-541.7 8,-563.7 220,-563.7 220,-541.7 8,-541.7"/>
<text text-anchor="start" x="37" y="-548.8" font-family="Helvetica,sans-Serif" font-size="11.00" fill="#000000">code</text>
<polygon fill="#ffffff" stroke="transparent" points="8,-519.7 8,-541.7 220,-541.7 220,-519.7 8,-519.7"/>
<polygon fill="none" stroke="#000000" points="8,-519.7 8,-541.7 220,-541.7 220,-519.7 8,-519.7"/>
<text text-anchor="start" x="37" y="-526.8" font-family="Helvetica,sans-Serif" font-size="11.00" fill="#000000">sequence_number</text>
<polygon fill="none" stroke="#000000" points="8,-500.7 8,-519.7 220,-519.7 220,-500.7 8,-500.7"/>
<text text-anchor="start" x="11" y="-506.8" font-family="Helvetica,sans-Serif" font-size="11.00" fill="#000000">...</text>
<polygon fill="#ffffff" stroke="transparent" points="8,-481.7 8,-500.7 103,-500.7 103,-481.7 8,-481.7"/>
<polygon fill="none" stroke="#000000" points="8,-481.7 8,-500.7 103,-500.7 103,-481.7 8,-481.7"/>
<text text-anchor="start" x="11" y="-487.8" font-family="Helvetica,sans-Serif" font-size="11.00" fill="#000000"> &#160;</text>
<polygon fill="#ffffff" stroke="transparent" points="103,-481.7 103,-500.7 157,-500.7 157,-481.7 103,-481.7"/>
<polygon fill="none" stroke="#000000" points="103,-481.7 103,-500.7 157,-500.7 157,-481.7 103,-481.7"/>
<text text-anchor="start" x="147.8862" y="-487.8" font-family="Helvetica,sans-Serif" font-size="11.00" fill="#000000"> &#160;</text>
<polygon fill="#ffffff" stroke="transparent" points="157,-481.7 157,-500.7 220,-500.7 220,-481.7 157,-481.7"/>
<polygon fill="none" stroke="#000000" points="157,-481.7 157,-500.7 220,-500.7 220,-481.7 157,-481.7"/>
<text text-anchor="start" x="201.4053" y="-487.8" font-family="Helvetica,sans-Serif" font-size="11.00" fill="#000000">2 &gt;</text>
</a>
</g>
</g>
<!-- occurrence&#45;&gt;absence_reason_category -->
<g id="edge5" class="edge">
<title>occurrence:w&#45;&gt;absence_reason_category:e</title>
<path fill="none" stroke="#000000" d="M256.7844,-697.3298C222.9826,-677.2923 274.5136,-574.7 220,-574.7"/>
<polygon fill="#000000" stroke="#000000" points="263.2158,-698.8545 270.1695,-704.2029 267.1079,-699.7772 271,-700.7 271,-700.7 271,-700.7 267.1079,-699.7772 271.8305,-697.1971 263.2158,-698.8545 263.2158,-698.8545"/>
<ellipse fill="none" stroke="#000000" cx="260.1021" cy="-698.1163" rx="3.2" ry="3.2"/>
</g>
<!-- absence_sub_type -->
<g id="node7" class="node">
<title>absence_sub_type</title>
<g id="a_node7"><a xlink:href="../../tables/absence_sub_type.html" xlink:title="absence_sub_type" target="_top">
<polygon fill="#ffffff" stroke="transparent" points="33.5,-630.2 33.5,-757.2 194.5,-757.2 194.5,-630.2 33.5,-630.2"/>
<polygon fill="#f5f5f5" stroke="transparent" points="34,-733.7 34,-756.7 195,-756.7 195,-733.7 34,-733.7"/>
<polygon fill="none" stroke="#000000" points="34,-733.7 34,-756.7 195,-756.7 195,-733.7 34,-733.7"/>
<text text-anchor="start" x="39" y="-742.3" font-family="Helvetica,sans-Serif" font-weight="bold" font-size="11.00" fill="#000000">absence_sub_type</text>
<text text-anchor="start" x="160.5219" y="-741.8" font-family="Helvetica,sans-Serif" font-size="11.00" fill="#000000">[table]</text>
<polygon fill="none" stroke="#000000" points="34,-711.7 34,-733.7 195,-733.7 195,-711.7 34,-711.7"/>
<image xlink:href="../../images/primaryKeys.png" width="11px" height="12px" preserveAspectRatio="xMinYMin meet" x="39" y="-728.7"/>
<text text-anchor="start" x="63" y="-718.8" font-family="Helvetica,sans-Serif" font-size="11.00" fill="#000000">id</text>
<polygon fill="#ffffff" stroke="transparent" points="34,-689.7 34,-711.7 195,-711.7 195,-689.7 34,-689.7"/>
<polygon fill="none" stroke="#000000" points="34,-689.7 34,-711.7 195,-711.7 195,-689.7 34,-689.7"/>
<text text-anchor="start" x="63" y="-696.8" font-family="Helvetica,sans-Serif" font-size="11.00" fill="#000000">code</text>
<polygon fill="#ffffff" stroke="transparent" points="34,-667.7 34,-689.7 195,-689.7 195,-667.7 34,-667.7"/>
<polygon fill="none" stroke="#000000" points="34,-667.7 34,-689.7 195,-689.7 195,-667.7 34,-667.7"/>
<text text-anchor="start" x="63" y="-674.8" font-family="Helvetica,sans-Serif" font-size="11.00" fill="#000000">sequence_number</text>
<polygon fill="none" stroke="#000000" points="34,-648.7 34,-667.7 195,-667.7 195,-648.7 34,-648.7"/>
<text text-anchor="start" x="37" y="-654.8" font-family="Helvetica,sans-Serif" font-size="11.00" fill="#000000">...</text>
<polygon fill="#ffffff" stroke="transparent" points="34,-629.7 34,-648.7 104,-648.7 104,-629.7 34,-629.7"/>
<polygon fill="none" stroke="#000000" points="34,-629.7 34,-648.7 104,-648.7 104,-629.7 34,-629.7"/>
<text text-anchor="start" x="37" y="-635.8" font-family="Helvetica,sans-Serif" font-size="11.00" fill="#000000"> &#160;</text>
<polygon fill="#ffffff" stroke="transparent" points="104,-629.7 104,-648.7 145,-648.7 145,-629.7 104,-629.7"/>
<polygon fill="none" stroke="#000000" points="104,-629.7 104,-648.7 145,-648.7 145,-629.7 104,-629.7"/>
<text text-anchor="start" x="135.8862" y="-635.8" font-family="Helvetica,sans-Serif" font-size="11.00" fill="#000000"> &#160;</text>
<polygon fill="#ffffff" stroke="transparent" points="145,-629.7 145,-648.7 195,-648.7 195,-629.7 145,-629.7"/>
<polygon fill="none" stroke="#000000" points="145,-629.7 145,-648.7 195,-648.7 195,-629.7 145,-629.7"/>
<text text-anchor="start" x="176.4053" y="-635.8" font-family="Helvetica,sans-Serif" font-size="11.00" fill="#000000">2 &gt;</text>
</a>
</g>
</g>
<!-- occurrence&#45;&gt;absence_sub_type -->
<g id="edge7" class="edge">
<title>occurrence:w&#45;&gt;absence_sub_type:e</title>
<path fill="none" stroke="#000000" d="M256.5121,-722.7C233.8676,-722.7 223.3681,-722.7 195,-722.7"/>
<polygon fill="#000000" stroke="#000000" points="263,-722.7001 271,-726.3 267,-722.7 271,-722.7 271,-722.7 271,-722.7 267,-722.7 271,-719.1 263,-722.7001 263,-722.7001"/>
<ellipse fill="none" stroke="#000000" cx="259.8" cy="-722.7001" rx="3.2" ry="3.2"/>
</g>
<!-- absence_type -->
<g id="node8" class="node">
<title>absence_type</title>
<g id="a_node8"><a xlink:href="../../tables/absence_type.html" xlink:title="absence_type" target="_top">
<polygon fill="#ffffff" stroke="transparent" points="42.5,-778.2 42.5,-905.2 185.5,-905.2 185.5,-778.2 42.5,-778.2"/>
<polygon fill="#f5f5f5" stroke="transparent" points="43,-881.7 43,-904.7 186,-904.7 186,-881.7 43,-881.7"/>
<polygon fill="none" stroke="#000000" points="43,-881.7 43,-904.7 186,-904.7 186,-881.7 43,-881.7"/>
<text text-anchor="start" x="48" y="-890.3" font-family="Helvetica,sans-Serif" font-weight="bold" font-size="11.00" fill="#000000">absence_type</text>
<text text-anchor="start" x="151.0437" y="-889.8" font-family="Helvetica,sans-Serif" font-size="11.00" fill="#000000">[table]</text>
<polygon fill="none" stroke="#000000" points="43,-859.7 43,-881.7 186,-881.7 186,-859.7 43,-859.7"/>
<image xlink:href="../../images/primaryKeys.png" width="11px" height="12px" preserveAspectRatio="xMinYMin meet" x="48" y="-876.7"/>
<text text-anchor="start" x="63" y="-866.8" font-family="Helvetica,sans-Serif" font-size="11.00" fill="#000000">id</text>
<polygon fill="#ffffff" stroke="transparent" points="43,-837.7 43,-859.7 186,-859.7 186,-837.7 43,-837.7"/>
<polygon fill="none" stroke="#000000" points="43,-837.7 43,-859.7 186,-859.7 186,-837.7 43,-837.7"/>
<text text-anchor="start" x="63" y="-844.8" font-family="Helvetica,sans-Serif" font-size="11.00" fill="#000000">code</text>
<polygon fill="#ffffff" stroke="transparent" points="43,-815.7 43,-837.7 186,-837.7 186,-815.7 43,-815.7"/>
<polygon fill="none" stroke="#000000" points="43,-815.7 43,-837.7 186,-837.7 186,-815.7 43,-815.7"/>
<text text-anchor="start" x="63" y="-822.8" font-family="Helvetica,sans-Serif" font-size="11.00" fill="#000000">sequence_number</text>
<polygon fill="none" stroke="#000000" points="43,-796.7 43,-815.7 186,-815.7 186,-796.7 43,-796.7"/>
<text text-anchor="start" x="46" y="-802.8" font-family="Helvetica,sans-Serif" font-size="11.00" fill="#000000">...</text>
<polygon fill="#ffffff" stroke="transparent" points="43,-777.7 43,-796.7 104,-796.7 104,-777.7 43,-777.7"/>
<polygon fill="none" stroke="#000000" points="43,-777.7 43,-796.7 104,-796.7 104,-777.7 43,-777.7"/>
<text text-anchor="start" x="46" y="-783.8" font-family="Helvetica,sans-Serif" font-size="11.00" fill="#000000"> &#160;</text>
<polygon fill="#ffffff" stroke="transparent" points="104,-777.7 104,-796.7 140,-796.7 140,-777.7 104,-777.7"/>
<polygon fill="none" stroke="#000000" points="104,-777.7 104,-796.7 140,-796.7 140,-777.7 104,-777.7"/>
<text text-anchor="start" x="130.8862" y="-783.8" font-family="Helvetica,sans-Serif" font-size="11.00" fill="#000000"> &#160;</text>
<polygon fill="#ffffff" stroke="transparent" points="140,-777.7 140,-796.7 186,-796.7 186,-777.7 140,-777.7"/>
<polygon fill="none" stroke="#000000" points="140,-777.7 140,-796.7 186,-796.7 186,-777.7 140,-777.7"/>
<text text-anchor="start" x="167.4053" y="-783.8" font-family="Helvetica,sans-Serif" font-size="11.00" fill="#000000">2 &gt;</text>
</a>
</g>
</g>
<!-- occurrence&#45;&gt;absence_type -->
<g id="edge8" class="edge">
<title>occurrence:w&#45;&gt;absence_type:e</title>
<path fill="none" stroke="#000000" d="M256.6213,-747.1045C210.877,-764.524 248.0099,-870.7 186,-870.7"/>
<polygon fill="#000000" stroke="#000000" points="263.1096,-746.0195 271.5938,-748.2507 267.0548,-745.3598 271,-744.7 271,-744.7 271,-744.7 267.0548,-745.3598 270.4062,-741.1493 263.1096,-746.0195 263.1096,-746.0195"/>
<ellipse fill="none" stroke="#000000" cx="259.9534" cy="-746.5474" rx="3.2" ry="3.2"/>
</g>
<!-- occurrence_status -->
<g id="node9" class="node">
<title>occurrence_status</title>
<g id="a_node9"><a xlink:href="../../tables/occurrence_status.html" xlink:title="occurrence_status" target="_top">
<polygon fill="#ffffff" stroke="transparent" points="33,-926.2 33,-1053.2 195,-1053.2 195,-926.2 33,-926.2"/>
<polygon fill="#f5f5f5" stroke="transparent" points="33,-1029.7 33,-1052.7 195,-1052.7 195,-1029.7 33,-1029.7"/>
<polygon fill="none" stroke="#000000" points="33,-1029.7 33,-1052.7 195,-1052.7 195,-1029.7 33,-1029.7"/>
<text text-anchor="start" x="38" y="-1038.3" font-family="Helvetica,sans-Serif" font-weight="bold" font-size="11.00" fill="#000000">occurrence_status</text>
<text text-anchor="start" x="160.5219" y="-1037.8" font-family="Helvetica,sans-Serif" font-size="11.00" fill="#000000">[table]</text>
<polygon fill="none" stroke="#000000" points="33,-1007.7 33,-1029.7 195,-1029.7 195,-1007.7 33,-1007.7"/>
<image xlink:href="../../images/primaryKeys.png" width="11px" height="12px" preserveAspectRatio="xMinYMin meet" x="38" y="-1024.7"/>
<text text-anchor="start" x="62" y="-1014.8" font-family="Helvetica,sans-Serif" font-size="11.00" fill="#000000">id</text>
<polygon fill="#ffffff" stroke="transparent" points="33,-985.7 33,-1007.7 195,-1007.7 195,-985.7 33,-985.7"/>
<polygon fill="none" stroke="#000000" points="33,-985.7 33,-1007.7 195,-1007.7 195,-985.7 33,-985.7"/>
<text text-anchor="start" x="62" y="-992.8" font-family="Helvetica,sans-Serif" font-size="11.00" fill="#000000">code</text>
<polygon fill="#ffffff" stroke="transparent" points="33,-963.7 33,-985.7 195,-985.7 195,-963.7 33,-963.7"/>
<polygon fill="none" stroke="#000000" points="33,-963.7 33,-985.7 195,-985.7 195,-963.7 33,-963.7"/>
<text text-anchor="start" x="62" y="-970.8" font-family="Helvetica,sans-Serif" font-size="11.00" fill="#000000">sequence_number</text>
<polygon fill="none" stroke="#000000" points="33,-944.7 33,-963.7 195,-963.7 195,-944.7 33,-944.7"/>
<text text-anchor="start" x="36" y="-950.8" font-family="Helvetica,sans-Serif" font-size="11.00" fill="#000000">...</text>
<polygon fill="#ffffff" stroke="transparent" points="33,-925.7 33,-944.7 103,-944.7 103,-925.7 33,-925.7"/>
<polygon fill="none" stroke="#000000" points="33,-925.7 33,-944.7 103,-944.7 103,-925.7 33,-925.7"/>
<text text-anchor="start" x="36" y="-931.8" font-family="Helvetica,sans-Serif" font-size="11.00" fill="#000000"> &#160;</text>
<polygon fill="#ffffff" stroke="transparent" points="103,-925.7 103,-944.7 144,-944.7 144,-925.7 103,-925.7"/>
<polygon fill="none" stroke="#000000" points="103,-925.7 103,-944.7 144,-944.7 144,-925.7 103,-925.7"/>
<text text-anchor="start" x="134.8862" y="-931.8" font-family="Helvetica,sans-Serif" font-size="11.00" fill="#000000"> &#160;</text>
<polygon fill="#ffffff" stroke="transparent" points="144,-925.7 144,-944.7 195,-944.7 195,-925.7 144,-925.7"/>
<polygon fill="none" stroke="#000000" points="144,-925.7 144,-944.7 195,-944.7 195,-925.7 144,-925.7"/>
<text text-anchor="start" x="176.4053" y="-931.8" font-family="Helvetica,sans-Serif" font-size="11.00" fill="#000000">1 &gt;</text>
</a>
</g>
</g>
<!-- occurrence&#45;&gt;occurrence_status -->
<g id="edge11" class="edge">
<title>occurrence:w&#45;&gt;occurrence_status:e</title>
<path fill="none" stroke="#000000" d="M257.4993,-772.4369C219.0698,-809.9471 248.2362,-1018.7 195,-1018.7"/>
<polygon fill="#000000" stroke="#000000" points="263.6372,-769.8287 272.4079,-770.0133 267.3186,-768.2644 271,-766.7 271,-766.7 271,-766.7 267.3186,-768.2644 269.5921,-763.3867 263.6372,-769.8287 263.6372,-769.8287"/>
<ellipse fill="none" stroke="#000000" cx="260.692" cy="-771.0802" rx="3.2" ry="3.2"/>
</g>
<!-- transport -->
<g id="node10" class="node">
<title>transport</title>
<g id="a_node10"><a xlink:href="../../tables/transport.html" xlink:title="transport" target="_top">
<polygon fill="#ffffff" stroke="transparent" points="42.5,-38.2 42.5,-165.2 185.5,-165.2 185.5,-38.2 42.5,-38.2"/>
<polygon fill="#f5f5f5" stroke="transparent" points="43,-141.7 43,-164.7 186,-164.7 186,-141.7 43,-141.7"/>
<polygon fill="none" stroke="#000000" points="43,-141.7 43,-164.7 186,-164.7 186,-141.7 43,-141.7"/>
<text text-anchor="start" x="48" y="-150.3" font-family="Helvetica,sans-Serif" font-weight="bold" font-size="11.00" fill="#000000">transport</text>
<text text-anchor="start" x="151.0437" y="-149.8" font-family="Helvetica,sans-Serif" font-size="11.00" fill="#000000">[table]</text>
<polygon fill="none" stroke="#000000" points="43,-119.7 43,-141.7 186,-141.7 186,-119.7 43,-119.7"/>
<image xlink:href="../../images/primaryKeys.png" width="11px" height="12px" preserveAspectRatio="xMinYMin meet" x="48" y="-136.7"/>
<text text-anchor="start" x="63" y="-126.8" font-family="Helvetica,sans-Serif" font-size="11.00" fill="#000000">id</text>
<polygon fill="#ffffff" stroke="transparent" points="43,-97.7 43,-119.7 186,-119.7 186,-97.7 43,-97.7"/>
<polygon fill="none" stroke="#000000" points="43,-97.7 43,-119.7 186,-119.7 186,-97.7 43,-97.7"/>
<text text-anchor="start" x="63" y="-104.8" font-family="Helvetica,sans-Serif" font-size="11.00" fill="#000000">code</text>
<polygon fill="#ffffff" stroke="transparent" points="43,-75.7 43,-97.7 186,-97.7 186,-75.7 43,-75.7"/>
<polygon fill="none" stroke="#000000" points="43,-75.7 43,-97.7 186,-97.7 186,-75.7 43,-75.7"/>
<text text-anchor="start" x="63" y="-82.8" font-family="Helvetica,sans-Serif" font-size="11.00" fill="#000000">sequence_number</text>
<polygon fill="none" stroke="#000000" points="43,-56.7 43,-75.7 186,-75.7 186,-56.7 43,-56.7"/>
<text text-anchor="start" x="46" y="-62.8" font-family="Helvetica,sans-Serif" font-size="11.00" fill="#000000">...</text>
<polygon fill="#ffffff" stroke="transparent" points="43,-37.7 43,-56.7 104,-56.7 104,-37.7 43,-37.7"/>
<polygon fill="none" stroke="#000000" points="43,-37.7 43,-56.7 104,-56.7 104,-37.7 43,-37.7"/>
<text text-anchor="start" x="46" y="-43.8" font-family="Helvetica,sans-Serif" font-size="11.00" fill="#000000"> &#160;</text>
<polygon fill="#ffffff" stroke="transparent" points="104,-37.7 104,-56.7 140,-56.7 140,-37.7 104,-37.7"/>
<polygon fill="none" stroke="#000000" points="104,-37.7 104,-56.7 140,-56.7 140,-37.7 104,-37.7"/>
<text text-anchor="start" x="130.8862" y="-43.8" font-family="Helvetica,sans-Serif" font-size="11.00" fill="#000000"> &#160;</text>
<polygon fill="#ffffff" stroke="transparent" points="140,-37.7 140,-56.7 186,-56.7 186,-37.7 140,-37.7"/>
<polygon fill="none" stroke="#000000" points="140,-37.7 140,-56.7 186,-56.7 186,-37.7 140,-37.7"/>
<text text-anchor="start" x="167.4053" y="-43.8" font-family="Helvetica,sans-Serif" font-size="11.00" fill="#000000">2 &gt;</text>
</a>
</g>
</g>
<!-- occurrence&#45;&gt;transport -->
<g id="edge12" class="edge">
<title>occurrence:w&#45;&gt;transport:e</title>
<path fill="none" stroke="#000000" d="M259.2692,-625.6739C224.5238,-565.0537 247.1436,-218.3192 228,-175.7 216.7904,-150.7442 213.3577,-130.7 186,-130.7"/>
<polygon fill="#000000" stroke="#000000" points="264.6596,-629.8215 268.8047,-637.5532 267.8298,-632.2607 271,-634.7 271,-634.7 271,-634.7 267.8298,-632.2607 273.1953,-631.8468 264.6596,-629.8215 264.6596,-629.8215"/>
<ellipse fill="none" stroke="#000000" cx="262.1235" cy="-627.8701" rx="3.2" ry="3.2"/>
</g>
</g>
</svg>
