<?xml version="1.0" encoding="UTF-8" standalone="no"?>
<!DOCTYPE svg PUBLIC "-//W3C//DTD SVG 1.1//EN"
 "http://www.w3.org/Graphics/SVG/1.1/DTD/svg11.dtd">
<!-- Generated by graphviz version 2.40.1 (20161225.0304)
 -->
<!-- Title: twoDegreesRelationshipsDiagram Pages: 1 -->
<svg width="568pt" height="745pt"
 viewBox="0.00 0.00 568.00 744.70" xmlns="http://www.w3.org/2000/svg" xmlns:xlink="http://www.w3.org/1999/xlink">
<g id="graph0" class="graph" transform="scale(1 1) rotate(0) translate(4 740.7)">
<title>twoDegreesRelationshipsDiagram</title>
<polygon fill="#ffffff" stroke="transparent" points="-4,4 -4,-740.7 564,-740.7 564,4 -4,4"/>
<text text-anchor="middle" x="72.4936" y="-7.3" font-family="Helvetica,sans-Serif" font-size="11.00" fill="#000000">Generated by SchemaSpy</text>
<!-- authorisation_audit -->
<g id="node1" class="node">
<title>authorisation_audit</title>
<g id="a_node1"><a xlink:href="../../tables/authorisation_audit.html" xlink:title="authorisation_audit" target="_top">
<polygon fill="#ffffff" stroke="transparent" points="308.5,-671.7 308.5,-732.7 479.5,-732.7 479.5,-671.7 308.5,-671.7"/>
<polygon fill="#f5f5f5" stroke="transparent" points="309,-709.2 309,-732.2 480,-732.2 480,-709.2 309,-709.2"/>
<polygon fill="none" stroke="#000000" points="309,-709.2 309,-732.2 480,-732.2 480,-709.2 309,-709.2"/>
<text text-anchor="start" x="314" y="-717.8" font-family="Helvetica,sans-Serif" font-weight="bold" font-size="11.00" fill="#000000">authorisation_audit</text>
<text text-anchor="start" x="445.5219" y="-717.3" font-family="Helvetica,sans-Serif" font-size="11.00" fill="#000000">[table]</text>
<polygon fill="none" stroke="#000000" points="309,-690.2 309,-709.2 480,-709.2 480,-690.2 309,-690.2"/>
<text text-anchor="start" x="312" y="-696.3" font-family="Helvetica,sans-Serif" font-size="11.00" fill="#000000">...</text>
<polygon fill="#ffffff" stroke="transparent" points="309,-671.2 309,-690.2 393,-690.2 393,-671.2 309,-671.2"/>
<polygon fill="none" stroke="#000000" points="309,-671.2 309,-690.2 393,-690.2 393,-671.2 309,-671.2"/>
<text text-anchor="start" x="312" y="-677.3" font-family="Helvetica,sans-Serif" font-size="11.00" fill="#000000">&lt; 1</text>
<polygon fill="#ffffff" stroke="transparent" points="393,-671.2 393,-690.2 436,-690.2 436,-671.2 393,-671.2"/>
<polygon fill="none" stroke="#000000" points="393,-671.2 393,-690.2 436,-690.2 436,-671.2 393,-671.2"/>
<text text-anchor="start" x="426.8862" y="-677.3" font-family="Helvetica,sans-Serif" font-size="11.00" fill="#000000"> &#160;</text>
<polygon fill="#ffffff" stroke="transparent" points="436,-671.2 436,-690.2 480,-690.2 480,-671.2 436,-671.2"/>
<polygon fill="none" stroke="#000000" points="436,-671.2 436,-690.2 480,-690.2 480,-671.2 436,-671.2"/>
<text text-anchor="start" x="470.8862" y="-677.3" font-family="Helvetica,sans-Serif" font-size="11.00" fill="#000000"> &#160;</text>
</a>
</g>
</g>
<!-- public.audit_revision -->
<g id="node2" class="node">
<title>public.audit_revision</title>
<g id="a_node2"><a xlink:href="../../../public/tables/audit_revision.html" xlink:title="public.audit_revision" target="_top">
<polygon fill="#ffffff" stroke="transparent" points="8,-586.7 8,-647.7 187,-647.7 187,-586.7 8,-586.7"/>
<polygon fill="#f5f5f5" stroke="transparent" points="8.5,-624.2 8.5,-647.2 187.5,-647.2 187.5,-624.2 8.5,-624.2"/>
<polygon fill="none" stroke="#000000" points="8.5,-624.2 8.5,-647.2 187.5,-647.2 187.5,-624.2 8.5,-624.2"/>
<text text-anchor="start" x="13.5" y="-632.8" font-family="Helvetica,sans-Serif" font-weight="bold" font-size="11.00" fill="#000000">public.audit_revision</text>
<text text-anchor="start" x="153.0219" y="-632.3" font-family="Helvetica,sans-Serif" font-size="11.00" fill="#000000">[table]</text>
<polygon fill="none" stroke="#000000" points="8.5,-605.2 8.5,-624.2 187.5,-624.2 187.5,-605.2 8.5,-605.2"/>
<text text-anchor="start" x="11.5" y="-611.3" font-family="Helvetica,sans-Serif" font-size="11.00" fill="#000000">...</text>
<polygon fill="#ffffff" stroke="transparent" points="8.5,-586.2 8.5,-605.2 74.5,-605.2 74.5,-586.2 8.5,-586.2"/>
<polygon fill="none" stroke="#000000" points="8.5,-586.2 8.5,-605.2 74.5,-605.2 74.5,-586.2 8.5,-586.2"/>
<text text-anchor="start" x="11.5" y="-592.3" font-family="Helvetica,sans-Serif" font-size="11.00" fill="#000000"> &#160;</text>
<polygon fill="#ffffff" stroke="transparent" points="74.5,-586.2 74.5,-605.2 139.5,-605.2 139.5,-586.2 74.5,-586.2"/>
<polygon fill="none" stroke="#000000" points="74.5,-586.2 74.5,-605.2 139.5,-605.2 139.5,-586.2 74.5,-586.2"/>
<text text-anchor="start" x="104.1105" y="-592.3" font-family="Helvetica,sans-Serif" font-size="11.00" fill="#000000">0 rows</text>
<polygon fill="#ffffff" stroke="transparent" points="139.5,-586.2 139.5,-605.2 187.5,-605.2 187.5,-586.2 139.5,-586.2"/>
<polygon fill="none" stroke="#000000" points="139.5,-586.2 139.5,-605.2 187.5,-605.2 187.5,-586.2 139.5,-586.2"/>
<text text-anchor="start" x="168.9053" y="-592.3" font-family="Helvetica,sans-Serif" font-size="11.00" fill="#000000">3 &gt;</text>
</a>
</g>
</g>
<!-- authorisation_audit&#45;&gt;public.audit_revision -->
<g id="edge1" class="edge">
<title>authorisation_audit:w&#45;&gt;public.audit_revision:e</title>
<path fill="none" stroke="#000000" d="M294.5794,-698.6625C243.3069,-694.9137 190.9779,-672.2219 153.139,-651.7377"/>
<polygon fill="#000000" stroke="#000000" points="301.0056,-698.902 308.8659,-702.7975 305.0028,-699.051 309,-699.2 309,-699.2 309,-699.2 305.0028,-699.051 309.1341,-695.6025 301.0056,-698.902 301.0056,-698.902"/>
<ellipse fill="none" stroke="#000000" cx="297.8078" cy="-698.7828" rx="3.2" ry="3.2"/>
</g>
<!-- movement_audit -->
<g id="node3" class="node">
<title>movement_audit</title>
<g id="a_node3"><a xlink:href="../../tables/movement_audit.html" xlink:title="movement_audit" target="_top">
<polygon fill="#ffffff" stroke="transparent" points="318.5,-589.7 318.5,-650.7 469.5,-650.7 469.5,-589.7 318.5,-589.7"/>
<polygon fill="#f5f5f5" stroke="transparent" points="319,-627.2 319,-650.2 470,-650.2 470,-627.2 319,-627.2"/>
<polygon fill="none" stroke="#000000" points="319,-627.2 319,-650.2 470,-650.2 470,-627.2 319,-627.2"/>
<text text-anchor="start" x="324" y="-635.8" font-family="Helvetica,sans-Serif" font-weight="bold" font-size="11.00" fill="#000000">movement_audit</text>
<text text-anchor="start" x="435.5219" y="-635.3" font-family="Helvetica,sans-Serif" font-size="11.00" fill="#000000">[table]</text>
<polygon fill="none" stroke="#000000" points="319,-608.2 319,-627.2 470,-627.2 470,-608.2 319,-608.2"/>
<text text-anchor="start" x="322" y="-614.3" font-family="Helvetica,sans-Serif" font-size="11.00" fill="#000000">...</text>
<polygon fill="#ffffff" stroke="transparent" points="319,-589.2 319,-608.2 393,-608.2 393,-589.2 319,-589.2"/>
<polygon fill="none" stroke="#000000" points="319,-589.2 319,-608.2 393,-608.2 393,-589.2 319,-589.2"/>
<text text-anchor="start" x="322" y="-595.3" font-family="Helvetica,sans-Serif" font-size="11.00" fill="#000000">&lt; 1</text>
<polygon fill="#ffffff" stroke="transparent" points="393,-589.2 393,-608.2 431,-608.2 431,-589.2 393,-589.2"/>
<polygon fill="none" stroke="#000000" points="393,-589.2 393,-608.2 431,-608.2 431,-589.2 393,-589.2"/>
<text text-anchor="start" x="421.8862" y="-595.3" font-family="Helvetica,sans-Serif" font-size="11.00" fill="#000000"> &#160;</text>
<polygon fill="#ffffff" stroke="transparent" points="431,-589.2 431,-608.2 470,-608.2 470,-589.2 431,-589.2"/>
<polygon fill="none" stroke="#000000" points="431,-589.2 431,-608.2 470,-608.2 470,-589.2 431,-589.2"/>
<text text-anchor="start" x="460.8862" y="-595.3" font-family="Helvetica,sans-Serif" font-size="11.00" fill="#000000"> &#160;</text>
</a>
</g>
</g>
<!-- movement_audit&#45;&gt;public.audit_revision -->
<g id="edge2" class="edge">
<title>movement_audit:w&#45;&gt;public.audit_revision:e</title>
<path fill="none" stroke="#000000" d="M304.5816,-617.2C268.0264,-617.2 229.1577,-617.2 195.0862,-617.2"/>
<polygon fill="#000000" stroke="#000000" points="311,-617.2001 319,-620.8 315,-617.2 319,-617.2 319,-617.2 319,-617.2 315,-617.2 319,-613.6 311,-617.2001 311,-617.2001"/>
<ellipse fill="none" stroke="#000000" cx="307.8" cy="-617.2001" rx="3.2" ry="3.2"/>
</g>
<!-- occurrence_audit -->
<g id="node4" class="node">
<title>occurrence_audit</title>
<g id="a_node4"><a xlink:href="../../tables/occurrence_audit.html" xlink:title="occurrence_audit" target="_top">
<polygon fill="#ffffff" stroke="transparent" points="236,-38.2 236,-568.2 552,-568.2 552,-38.2 236,-38.2"/>
<polygon fill="#f5f5f5" stroke="transparent" points="238,-543.2 238,-566.2 550,-566.2 550,-543.2 238,-543.2"/>
<polygon fill="none" stroke="#000000" points="238,-543.2 238,-566.2 550,-566.2 550,-543.2 238,-543.2"/>
<text text-anchor="start" x="243" y="-551.8" font-family="Helvetica,sans-Serif" font-weight="bold" font-size="11.00" fill="#000000">occurrence_audit</text>
<text text-anchor="start" x="515.0437" y="-551.3" font-family="Helvetica,sans-Serif" font-size="11.00" fill="#000000">[table]</text>
<polygon fill="none" stroke="#000000" points="238,-521.2 238,-543.2 451,-543.2 451,-521.2 238,-521.2"/>
<image xlink:href="../../images/primaryKeys.png" width="11px" height="12px" preserveAspectRatio="xMinYMin meet" x="243" y="-538.2"/>
<text text-anchor="start" x="258" y="-528.3" font-family="Helvetica,sans-Serif" font-size="11.00" fill="#000000">rev_id</text>
<polygon fill="none" stroke="#000000" points="451,-521.2 451,-543.2 550,-543.2 550,-521.2 451,-521.2"/>
<text text-anchor="start" x="454" y="-528.9" font-family="Helvetica,sans-Serif" font-size="11.00" fill="#000000">int8[19]</text>
<polygon fill="none" stroke="#000000" points="238,-499.2 238,-521.2 451,-521.2 451,-499.2 238,-499.2"/>
<text text-anchor="start" x="258" y="-506.3" font-family="Helvetica,sans-Serif" font-size="11.00" fill="#000000">rev_type</text>
<polygon fill="none" stroke="#000000" points="451,-499.2 451,-521.2 550,-521.2 550,-499.2 451,-499.2"/>
<text text-anchor="start" x="454" y="-506.9" font-family="Helvetica,sans-Serif" font-size="11.00" fill="#000000">int2[5]</text>
<polygon fill="none" stroke="#000000" points="238,-477.2 238,-499.2 451,-499.2 451,-477.2 238,-477.2"/>
<image xlink:href="../../images/primaryKeys.png" width="11px" height="12px" preserveAspectRatio="xMinYMin meet" x="243" y="-494.2"/>
<text text-anchor="start" x="258" y="-484.3" font-family="Helvetica,sans-Serif" font-size="11.00" fill="#000000">id</text>
<polygon fill="none" stroke="#000000" points="451,-477.2 451,-499.2 550,-499.2 550,-477.2 451,-477.2"/>
<text text-anchor="start" x="454" y="-484.9" font-family="Helvetica,sans-Serif" font-size="11.00" fill="#000000">uuid[2147483647]</text>
<polygon fill="none" stroke="#000000" points="238,-455.2 238,-477.2 451,-477.2 451,-455.2 238,-455.2"/>
<text text-anchor="start" x="258" y="-462.3" font-family="Helvetica,sans-Serif" font-size="11.00" fill="#000000">version</text>
<polygon fill="none" stroke="#000000" points="451,-455.2 451,-477.2 550,-477.2 550,-455.2 451,-455.2"/>
<text text-anchor="start" x="454" y="-462.9" font-family="Helvetica,sans-Serif" font-size="11.00" fill="#000000">int4[10]</text>
<polygon fill="none" stroke="#000000" points="238,-433.2 238,-455.2 451,-455.2 451,-433.2 238,-433.2"/>
<text text-anchor="start" x="258" y="-440.3" font-family="Helvetica,sans-Serif" font-size="11.00" fill="#000000">person_identifier</text>
<polygon fill="none" stroke="#000000" points="451,-433.2 451,-455.2 550,-455.2 550,-433.2 451,-433.2"/>
<text text-anchor="start" x="454" y="-440.9" font-family="Helvetica,sans-Serif" font-size="11.00" fill="#000000">varchar[10]</text>
<polygon fill="none" stroke="#000000" points="238,-411.2 238,-433.2 451,-433.2 451,-411.2 238,-411.2"/>
<text text-anchor="start" x="258" y="-418.3" font-family="Helvetica,sans-Serif" font-size="11.00" fill="#000000">prison_code</text>
<polygon fill="none" stroke="#000000" points="451,-411.2 451,-433.2 550,-433.2 550,-411.2 451,-411.2"/>
<text text-anchor="start" x="454" y="-418.9" font-family="Helvetica,sans-Serif" font-size="11.00" fill="#000000">varchar[6]</text>
<polygon fill="none" stroke="#000000" points="238,-389.2 238,-411.2 451,-411.2 451,-389.2 238,-389.2"/>
<text text-anchor="start" x="258" y="-396.3" font-family="Helvetica,sans-Serif" font-size="11.00" fill="#000000">authorisation_id</text>
<polygon fill="none" stroke="#000000" points="451,-389.2 451,-411.2 550,-411.2 550,-389.2 451,-389.2"/>
<text text-anchor="start" x="454" y="-396.9" font-family="Helvetica,sans-Serif" font-size="11.00" fill="#000000">uuid[2147483647]</text>
<polygon fill="none" stroke="#000000" points="238,-367.2 238,-389.2 451,-389.2 451,-367.2 238,-367.2"/>
<text text-anchor="start" x="258" y="-374.3" font-family="Helvetica,sans-Serif" font-size="11.00" fill="#000000">status_id</text>
<polygon fill="none" stroke="#000000" points="451,-367.2 451,-389.2 550,-389.2 550,-367.2 451,-367.2"/>
<text text-anchor="start" x="454" y="-374.9" font-family="Helvetica,sans-Serif" font-size="11.00" fill="#000000">uuid[2147483647]</text>
<polygon fill="none" stroke="#000000" points="238,-345.2 238,-367.2 451,-367.2 451,-345.2 238,-345.2"/>
<text text-anchor="start" x="258" y="-352.3" font-family="Helvetica,sans-Serif" font-size="11.00" fill="#000000">absence_type_id</text>
<polygon fill="none" stroke="#000000" points="451,-345.2 451,-367.2 550,-367.2 550,-345.2 451,-345.2"/>
<text text-anchor="start" x="454" y="-352.9" font-family="Helvetica,sans-Serif" font-size="11.00" fill="#000000">uuid[2147483647]</text>
<polygon fill="none" stroke="#000000" points="238,-323.2 238,-345.2 451,-345.2 451,-323.2 238,-323.2"/>
<text text-anchor="start" x="258" y="-330.3" font-family="Helvetica,sans-Serif" font-size="11.00" fill="#000000">absence_sub_type_id</text>
<polygon fill="none" stroke="#000000" points="451,-323.2 451,-345.2 550,-345.2 550,-323.2 451,-323.2"/>
<text text-anchor="start" x="454" y="-330.9" font-family="Helvetica,sans-Serif" font-size="11.00" fill="#000000">uuid[2147483647]</text>
<polygon fill="none" stroke="#000000" points="238,-301.2 238,-323.2 451,-323.2 451,-301.2 238,-301.2"/>
<text text-anchor="start" x="258" y="-308.3" font-family="Helvetica,sans-Serif" font-size="11.00" fill="#000000">absence_reason_category_id</text>
<polygon fill="none" stroke="#000000" points="451,-301.2 451,-323.2 550,-323.2 550,-301.2 451,-301.2"/>
<text text-anchor="start" x="454" y="-308.9" font-family="Helvetica,sans-Serif" font-size="11.00" fill="#000000">uuid[2147483647]</text>
<polygon fill="none" stroke="#000000" points="238,-279.2 238,-301.2 451,-301.2 451,-279.2 238,-279.2"/>
<text text-anchor="start" x="258" y="-286.3" font-family="Helvetica,sans-Serif" font-size="11.00" fill="#000000">absence_reason_id</text>
<polygon fill="none" stroke="#000000" points="451,-279.2 451,-301.2 550,-301.2 550,-279.2 451,-279.2"/>
<text text-anchor="start" x="454" y="-286.9" font-family="Helvetica,sans-Serif" font-size="11.00" fill="#000000">uuid[2147483647]</text>
<polygon fill="none" stroke="#000000" points="238,-257.2 238,-279.2 451,-279.2 451,-257.2 238,-257.2"/>
<text text-anchor="start" x="258" y="-264.3" font-family="Helvetica,sans-Serif" font-size="11.00" fill="#000000">accompanied_by_id</text>
<polygon fill="none" stroke="#000000" points="451,-257.2 451,-279.2 550,-279.2 550,-257.2 451,-257.2"/>
<text text-anchor="start" x="454" y="-264.9" font-family="Helvetica,sans-Serif" font-size="11.00" fill="#000000">uuid[2147483647]</text>
<polygon fill="none" stroke="#000000" points="238,-235.2 238,-257.2 451,-257.2 451,-235.2 238,-235.2"/>
<text text-anchor="start" x="258" y="-242.3" font-family="Helvetica,sans-Serif" font-size="11.00" fill="#000000">transport_id</text>
<polygon fill="none" stroke="#000000" points="451,-235.2 451,-257.2 550,-257.2 550,-235.2 451,-235.2"/>
<text text-anchor="start" x="454" y="-242.9" font-family="Helvetica,sans-Serif" font-size="11.00" fill="#000000">uuid[2147483647]</text>
<polygon fill="none" stroke="#000000" points="238,-213.2 238,-235.2 451,-235.2 451,-213.2 238,-213.2"/>
<text text-anchor="start" x="258" y="-220.3" font-family="Helvetica,sans-Serif" font-size="11.00" fill="#000000">start</text>
<polygon fill="none" stroke="#000000" points="451,-213.2 451,-235.2 550,-235.2 550,-213.2 451,-213.2"/>
<text text-anchor="start" x="454" y="-220.9" font-family="Helvetica,sans-Serif" font-size="11.00" fill="#000000">timestamp[29,6]</text>
<polygon fill="none" stroke="#000000" points="238,-191.2 238,-213.2 451,-213.2 451,-191.2 238,-191.2"/>
<text text-anchor="start" x="258" y="-198.3" font-family="Helvetica,sans-Serif" font-size="11.00" fill="#000000">end</text>
<polygon fill="none" stroke="#000000" points="451,-191.2 451,-213.2 550,-213.2 550,-191.2 451,-191.2"/>
<text text-anchor="start" x="454" y="-198.9" font-family="Helvetica,sans-Serif" font-size="11.00" fill="#000000">timestamp[29,6]</text>
<polygon fill="none" stroke="#000000" points="238,-169.2 238,-191.2 451,-191.2 451,-169.2 238,-169.2"/>
<text text-anchor="start" x="258" y="-176.3" font-family="Helvetica,sans-Serif" font-size="11.00" fill="#000000">location</text>
<polygon fill="none" stroke="#000000" points="451,-169.2 451,-191.2 550,-191.2 550,-169.2 451,-169.2"/>
<text text-anchor="start" x="453.7258" y="-176.9" font-family="Helvetica,sans-Serif" font-size="11.00" fill="#000000">jsonb[2147483647]</text>
<polygon fill="none" stroke="#000000" points="238,-147.2 238,-169.2 451,-169.2 451,-147.2 238,-147.2"/>
<text text-anchor="start" x="258" y="-154.3" font-family="Helvetica,sans-Serif" font-size="11.00" fill="#000000">contact_information</text>
<polygon fill="none" stroke="#000000" points="451,-147.2 451,-169.2 550,-169.2 550,-147.2 451,-147.2"/>
<text text-anchor="start" x="454" y="-154.9" font-family="Helvetica,sans-Serif" font-size="11.00" fill="#000000">text[2147483647]</text>
<polygon fill="none" stroke="#000000" points="238,-125.2 238,-147.2 451,-147.2 451,-125.2 238,-125.2"/>
<text text-anchor="start" x="258" y="-132.3" font-family="Helvetica,sans-Serif" font-size="11.00" fill="#000000">comments</text>
<polygon fill="none" stroke="#000000" points="451,-125.2 451,-147.2 550,-147.2 550,-125.2 451,-125.2"/>
<text text-anchor="start" x="454" y="-132.9" font-family="Helvetica,sans-Serif" font-size="11.00" fill="#000000">text[2147483647]</text>
<polygon fill="none" stroke="#000000" points="238,-103.2 238,-125.2 451,-125.2 451,-103.2 238,-103.2"/>
<text text-anchor="start" x="258" y="-110.3" font-family="Helvetica,sans-Serif" font-size="11.00" fill="#000000">reason_path</text>
<polygon fill="none" stroke="#000000" points="451,-103.2 451,-125.2 550,-125.2 550,-103.2 451,-103.2"/>
<text text-anchor="start" x="453.7258" y="-110.9" font-family="Helvetica,sans-Serif" font-size="11.00" fill="#000000">jsonb[2147483647]</text>
<polygon fill="none" stroke="#000000" points="238,-81.2 238,-103.2 451,-103.2 451,-81.2 238,-81.2"/>
<text text-anchor="start" x="258" y="-88.3" font-family="Helvetica,sans-Serif" font-size="11.00" fill="#000000">schedule_reference</text>
<polygon fill="none" stroke="#000000" points="451,-81.2 451,-103.2 550,-103.2 550,-81.2 451,-81.2"/>
<text text-anchor="start" x="453.7258" y="-88.9" font-family="Helvetica,sans-Serif" font-size="11.00" fill="#000000">jsonb[2147483647]</text>
<polygon fill="none" stroke="#000000" points="238,-59.2 238,-81.2 451,-81.2 451,-59.2 238,-59.2"/>
<text text-anchor="start" x="258" y="-66.3" font-family="Helvetica,sans-Serif" font-size="11.00" fill="#000000">legacy_id</text>
<polygon fill="none" stroke="#000000" points="451,-59.2 451,-81.2 550,-81.2 550,-59.2 451,-59.2"/>
<text text-anchor="start" x="454" y="-66.9" font-family="Helvetica,sans-Serif" font-size="11.00" fill="#000000">int8[19]</text>
<polygon fill="#ffffff" stroke="transparent" points="238,-40.2 238,-59.2 349,-59.2 349,-40.2 238,-40.2"/>
<polygon fill="none" stroke="#000000" points="238,-40.2 238,-59.2 349,-59.2 349,-40.2 238,-40.2"/>
<text text-anchor="start" x="241" y="-46.3" font-family="Helvetica,sans-Serif" font-size="11.00" fill="#000000">&lt; 1</text>
<polygon fill="#ffffff" stroke="transparent" points="349,-40.2 349,-59.2 451,-59.2 451,-40.2 349,-40.2"/>
<polygon fill="none" stroke="#000000" points="349,-40.2 349,-59.2 451,-59.2 451,-40.2 349,-40.2"/>
<text text-anchor="start" x="441.8862" y="-46.3" font-family="Helvetica,sans-Serif" font-size="11.00" fill="#000000"> &#160;</text>
<polygon fill="#ffffff" stroke="transparent" points="451,-40.2 451,-59.2 550,-59.2 550,-40.2 451,-40.2"/>
<polygon fill="none" stroke="#000000" points="451,-40.2 451,-59.2 550,-59.2 550,-40.2 451,-40.2"/>
<text text-anchor="start" x="531.4053" y="-46.3" font-family="Helvetica,sans-Serif" font-size="11.00" fill="#000000">0 &gt;</text>
<polygon fill="none" stroke="#000000" stroke-width="2" points="237,-39.2 237,-567.2 551,-567.2 551,-39.2 237,-39.2"/>
</a>
</g>
</g>
<!-- occurrence_audit&#45;&gt;public.audit_revision -->
<g id="edge3" class="edge">
<title>occurrence_audit:w&#45;&gt;public.audit_revision:e</title>
<path fill="none" stroke="#000000" d="M223.182,-533.3294C187.6109,-538.6642 154.4087,-561.9442 131.0735,-582.6272"/>
<polygon fill="#000000" stroke="#000000" points="230.0231,-532.808 238.2736,-535.7896 234.0116,-532.504 238,-532.2 238,-532.2 238,-532.2 234.0116,-532.504 237.7264,-528.6104 230.0231,-532.808 230.0231,-532.808"/>
<ellipse fill="none" stroke="#000000" cx="226.8324" cy="-533.0512" rx="3.2" ry="3.2"/>
</g>
</g>
</svg>
