<?xml version="1.0" encoding="UTF-8" standalone="no"?>
<!DOCTYPE svg PUBLIC "-//W3C//DTD SVG 1.1//EN"
 "http://www.w3.org/Graphics/SVG/1.1/DTD/svg11.dtd">
<!-- Generated by graphviz version 2.40.1 (20161225.0304)
 -->
<!-- Title: twoDegreesRelationshipsDiagram Pages: 1 -->
<svg width="568pt" height="827pt"
 viewBox="0.00 0.00 568.00 827.20" xmlns="http://www.w3.org/2000/svg" xmlns:xlink="http://www.w3.org/1999/xlink">
<g id="graph0" class="graph" transform="scale(1 1) rotate(0) translate(4 823.2)">
<title>twoDegreesRelationshipsDiagram</title>
<polygon fill="#ffffff" stroke="transparent" points="-4,4 -4,-823.2 564,-823.2 564,4 -4,4"/>
<text text-anchor="middle" x="72.4936" y="-7.3" font-family="Helvetica,sans-Serif" font-size="11.00" fill="#000000">Generated by SchemaSpy</text>
<!-- authorisation_audit -->
<g id="node1" class="node">
<title>authorisation_audit</title>
<g id="a_node1"><a xlink:href="../../tables/authorisation_audit.html" xlink:title="authorisation_audit" target="_top">
<polygon fill="#ffffff" stroke="transparent" points="308.5,-754.2 308.5,-815.2 479.5,-815.2 479.5,-754.2 308.5,-754.2"/>
<polygon fill="#f5f5f5" stroke="transparent" points="309,-791.7 309,-814.7 480,-814.7 480,-791.7 309,-791.7"/>
<polygon fill="none" stroke="#000000" points="309,-791.7 309,-814.7 480,-814.7 480,-791.7 309,-791.7"/>
<text text-anchor="start" x="314" y="-800.3" font-family="Helvetica,sans-Serif" font-weight="bold" font-size="11.00" fill="#000000">authorisation_audit</text>
<text text-anchor="start" x="445.5219" y="-799.8" font-family="Helvetica,sans-Serif" font-size="11.00" fill="#000000">[table]</text>
<polygon fill="none" stroke="#000000" points="309,-772.7 309,-791.7 480,-791.7 480,-772.7 309,-772.7"/>
<text text-anchor="start" x="312" y="-778.8" font-family="Helvetica,sans-Serif" font-size="11.00" fill="#000000">...</text>
<polygon fill="#ffffff" stroke="transparent" points="309,-753.7 309,-772.7 393,-772.7 393,-753.7 309,-753.7"/>
<polygon fill="none" stroke="#000000" points="309,-753.7 309,-772.7 393,-772.7 393,-753.7 309,-753.7"/>
<text text-anchor="start" x="312" y="-759.8" font-family="Helvetica,sans-Serif" font-size="11.00" fill="#000000">&lt; 1</text>
<polygon fill="#ffffff" stroke="transparent" points="393,-753.7 393,-772.7 436,-772.7 436,-753.7 393,-753.7"/>
<polygon fill="none" stroke="#000000" points="393,-753.7 393,-772.7 436,-772.7 436,-753.7 393,-753.7"/>
<text text-anchor="start" x="426.8862" y="-759.8" font-family="Helvetica,sans-Serif" font-size="11.00" fill="#000000"> &#160;</text>
<polygon fill="#ffffff" stroke="transparent" points="436,-753.7 436,-772.7 480,-772.7 480,-753.7 436,-753.7"/>
<polygon fill="none" stroke="#000000" points="436,-753.7 436,-772.7 480,-772.7 480,-753.7 436,-753.7"/>
<text text-anchor="start" x="470.8862" y="-759.8" font-family="Helvetica,sans-Serif" font-size="11.00" fill="#000000"> &#160;</text>
</a>
</g>
</g>
<!-- public.audit_revision -->
<g id="node2" class="node">
<title>public.audit_revision</title>
<g id="a_node2"><a xlink:href="../../../public/tables/audit_revision.html" xlink:title="public.audit_revision" target="_top">
<polygon fill="#ffffff" stroke="transparent" points="8,-626.2 8,-687.2 187,-687.2 187,-626.2 8,-626.2"/>
<polygon fill="#f5f5f5" stroke="transparent" points="8.5,-663.7 8.5,-686.7 187.5,-686.7 187.5,-663.7 8.5,-663.7"/>
<polygon fill="none" stroke="#000000" points="8.5,-663.7 8.5,-686.7 187.5,-686.7 187.5,-663.7 8.5,-663.7"/>
<text text-anchor="start" x="13.5" y="-672.3" font-family="Helvetica,sans-Serif" font-weight="bold" font-size="11.00" fill="#000000">public.audit_revision</text>
<text text-anchor="start" x="153.0219" y="-671.8" font-family="Helvetica,sans-Serif" font-size="11.00" fill="#000000">[table]</text>
<polygon fill="none" stroke="#000000" points="8.5,-644.7 8.5,-663.7 187.5,-663.7 187.5,-644.7 8.5,-644.7"/>
<text text-anchor="start" x="11.5" y="-650.8" font-family="Helvetica,sans-Serif" font-size="11.00" fill="#000000">...</text>
<polygon fill="#ffffff" stroke="transparent" points="8.5,-625.7 8.5,-644.7 74.5,-644.7 74.5,-625.7 8.5,-625.7"/>
<polygon fill="none" stroke="#000000" points="8.5,-625.7 8.5,-644.7 74.5,-644.7 74.5,-625.7 8.5,-625.7"/>
<text text-anchor="start" x="11.5" y="-631.8" font-family="Helvetica,sans-Serif" font-size="11.00" fill="#000000"> &#160;</text>
<polygon fill="#ffffff" stroke="transparent" points="74.5,-625.7 74.5,-644.7 139.5,-644.7 139.5,-625.7 74.5,-625.7"/>
<polygon fill="none" stroke="#000000" points="74.5,-625.7 74.5,-644.7 139.5,-644.7 139.5,-625.7 74.5,-625.7"/>
<text text-anchor="start" x="104.1105" y="-631.8" font-family="Helvetica,sans-Serif" font-size="11.00" fill="#000000">0 rows</text>
<polygon fill="#ffffff" stroke="transparent" points="139.5,-625.7 139.5,-644.7 187.5,-644.7 187.5,-625.7 139.5,-625.7"/>
<polygon fill="none" stroke="#000000" points="139.5,-625.7 139.5,-644.7 187.5,-644.7 187.5,-625.7 139.5,-625.7"/>
<text text-anchor="start" x="168.9053" y="-631.8" font-family="Helvetica,sans-Serif" font-size="11.00" fill="#000000">4 &gt;</text>
</a>
</g>
</g>
<!-- authorisation_audit&#45;&gt;public.audit_revision -->
<g id="edge1" class="edge">
<title>authorisation_audit:w&#45;&gt;public.audit_revision:e</title>
<path fill="none" stroke="#000000" d="M294.4419,-780.9764C228.5701,-774.5031 166.8111,-725.9776 130.5872,-691.5195"/>
<polygon fill="#000000" stroke="#000000" points="301.0099,-781.3028 308.8213,-785.2956 305.0049,-781.5014 309,-781.7 309,-781.7 309,-781.7 305.0049,-781.5014 309.1787,-778.1044 301.0099,-781.3028 301.0099,-781.3028"/>
<ellipse fill="none" stroke="#000000" cx="297.8138" cy="-781.144" rx="3.2" ry="3.2"/>
</g>
<!-- movement_audit -->
<g id="node3" class="node">
<title>movement_audit</title>
<g id="a_node3"><a xlink:href="../../tables/movement_audit.html" xlink:title="movement_audit" target="_top">
<polygon fill="#ffffff" stroke="transparent" points="318.5,-672.2 318.5,-733.2 469.5,-733.2 469.5,-672.2 318.5,-672.2"/>
<polygon fill="#f5f5f5" stroke="transparent" points="319,-709.7 319,-732.7 470,-732.7 470,-709.7 319,-709.7"/>
<polygon fill="none" stroke="#000000" points="319,-709.7 319,-732.7 470,-732.7 470,-709.7 319,-709.7"/>
<text text-anchor="start" x="324" y="-718.3" font-family="Helvetica,sans-Serif" font-weight="bold" font-size="11.00" fill="#000000">movement_audit</text>
<text text-anchor="start" x="435.5219" y="-717.8" font-family="Helvetica,sans-Serif" font-size="11.00" fill="#000000">[table]</text>
<polygon fill="none" stroke="#000000" points="319,-690.7 319,-709.7 470,-709.7 470,-690.7 319,-690.7"/>
<text text-anchor="start" x="322" y="-696.8" font-family="Helvetica,sans-Serif" font-size="11.00" fill="#000000">...</text>
<polygon fill="#ffffff" stroke="transparent" points="319,-671.7 319,-690.7 393,-690.7 393,-671.7 319,-671.7"/>
<polygon fill="none" stroke="#000000" points="319,-671.7 319,-690.7 393,-690.7 393,-671.7 319,-671.7"/>
<text text-anchor="start" x="322" y="-677.8" font-family="Helvetica,sans-Serif" font-size="11.00" fill="#000000">&lt; 1</text>
<polygon fill="#ffffff" stroke="transparent" points="393,-671.7 393,-690.7 431,-690.7 431,-671.7 393,-671.7"/>
<polygon fill="none" stroke="#000000" points="393,-671.7 393,-690.7 431,-690.7 431,-671.7 393,-671.7"/>
<text text-anchor="start" x="421.8862" y="-677.8" font-family="Helvetica,sans-Serif" font-size="11.00" fill="#000000"> &#160;</text>
<polygon fill="#ffffff" stroke="transparent" points="431,-671.7 431,-690.7 470,-690.7 470,-671.7 431,-671.7"/>
<polygon fill="none" stroke="#000000" points="431,-671.7 431,-690.7 470,-690.7 470,-671.7 431,-671.7"/>
<text text-anchor="start" x="460.8862" y="-677.8" font-family="Helvetica,sans-Serif" font-size="11.00" fill="#000000"> &#160;</text>
</a>
</g>
</g>
<!-- movement_audit&#45;&gt;public.audit_revision -->
<g id="edge2" class="edge">
<title>movement_audit:w&#45;&gt;public.audit_revision:e</title>
<path fill="none" stroke="#000000" d="M304.4454,-699.4129C267.6134,-697.9947 228.939,-691.5037 195.1227,-683.9935"/>
<polygon fill="#000000" stroke="#000000" points="311.0016,-699.5422 318.929,-703.2993 315.0008,-699.6211 319,-699.7 319,-699.7 319,-699.7 315.0008,-699.6211 319.071,-696.1007 311.0016,-699.5422 311.0016,-699.5422"/>
<ellipse fill="none" stroke="#000000" cx="307.8022" cy="-699.479" rx="3.2" ry="3.2"/>
</g>
<!-- occurrence_audit -->
<g id="node4" class="node">
<title>occurrence_audit</title>
<g id="a_node4"><a xlink:href="../../tables/occurrence_audit.html" xlink:title="occurrence_audit" target="_top">
<polygon fill="#ffffff" stroke="transparent" points="236,-120.7 236,-650.7 552,-650.7 552,-120.7 236,-120.7"/>
<polygon fill="#f5f5f5" stroke="transparent" points="238,-625.7 238,-648.7 550,-648.7 550,-625.7 238,-625.7"/>
<polygon fill="none" stroke="#000000" points="238,-625.7 238,-648.7 550,-648.7 550,-625.7 238,-625.7"/>
<text text-anchor="start" x="243" y="-634.3" font-family="Helvetica,sans-Serif" font-weight="bold" font-size="11.00" fill="#000000">occurrence_audit</text>
<text text-anchor="start" x="515.0437" y="-633.8" font-family="Helvetica,sans-Serif" font-size="11.00" fill="#000000">[table]</text>
<polygon fill="none" stroke="#000000" points="238,-603.7 238,-625.7 451,-625.7 451,-603.7 238,-603.7"/>
<image xlink:href="../../images/primaryKeys.png" width="11px" height="12px" preserveAspectRatio="xMinYMin meet" x="243" y="-620.7"/>
<text text-anchor="start" x="258" y="-610.8" font-family="Helvetica,sans-Serif" font-size="11.00" fill="#000000">rev_id</text>
<polygon fill="none" stroke="#000000" points="451,-603.7 451,-625.7 550,-625.7 550,-603.7 451,-603.7"/>
<text text-anchor="start" x="454" y="-611.4" font-family="Helvetica,sans-Serif" font-size="11.00" fill="#000000">int8[19]</text>
<polygon fill="none" stroke="#000000" points="238,-581.7 238,-603.7 451,-603.7 451,-581.7 238,-581.7"/>
<text text-anchor="start" x="258" y="-588.8" font-family="Helvetica,sans-Serif" font-size="11.00" fill="#000000">rev_type</text>
<polygon fill="none" stroke="#000000" points="451,-581.7 451,-603.7 550,-603.7 550,-581.7 451,-581.7"/>
<text text-anchor="start" x="454" y="-589.4" font-family="Helvetica,sans-Serif" font-size="11.00" fill="#000000">int2[5]</text>
<polygon fill="none" stroke="#000000" points="238,-559.7 238,-581.7 451,-581.7 451,-559.7 238,-559.7"/>
<image xlink:href="../../images/primaryKeys.png" width="11px" height="12px" preserveAspectRatio="xMinYMin meet" x="243" y="-576.7"/>
<text text-anchor="start" x="258" y="-566.8" font-family="Helvetica,sans-Serif" font-size="11.00" fill="#000000">id</text>
<polygon fill="none" stroke="#000000" points="451,-559.7 451,-581.7 550,-581.7 550,-559.7 451,-559.7"/>
<text text-anchor="start" x="454" y="-567.4" font-family="Helvetica,sans-Serif" font-size="11.00" fill="#000000">uuid[2147483647]</text>
<polygon fill="none" stroke="#000000" points="238,-537.7 238,-559.7 451,-559.7 451,-537.7 238,-537.7"/>
<text text-anchor="start" x="258" y="-544.8" font-family="Helvetica,sans-Serif" font-size="11.00" fill="#000000">version</text>
<polygon fill="none" stroke="#000000" points="451,-537.7 451,-559.7 550,-559.7 550,-537.7 451,-537.7"/>
<text text-anchor="start" x="454" y="-545.4" font-family="Helvetica,sans-Serif" font-size="11.00" fill="#000000">int4[10]</text>
<polygon fill="none" stroke="#000000" points="238,-515.7 238,-537.7 451,-537.7 451,-515.7 238,-515.7"/>
<text text-anchor="start" x="258" y="-522.8" font-family="Helvetica,sans-Serif" font-size="11.00" fill="#000000">person_identifier</text>
<polygon fill="none" stroke="#000000" points="451,-515.7 451,-537.7 550,-537.7 550,-515.7 451,-515.7"/>
<text text-anchor="start" x="454" y="-523.4" font-family="Helvetica,sans-Serif" font-size="11.00" fill="#000000">varchar[10]</text>
<polygon fill="none" stroke="#000000" points="238,-493.7 238,-515.7 451,-515.7 451,-493.7 238,-493.7"/>
<image xlink:href="../../images/foreignKeys.png" width="11px" height="12px" preserveAspectRatio="xMinYMin meet" x="243" y="-510.7"/>
<text text-anchor="start" x="258" y="-500.8" font-family="Helvetica,sans-Serif" font-size="11.00" fill="#000000">prison_code</text>
<polygon fill="none" stroke="#000000" points="451,-493.7 451,-515.7 550,-515.7 550,-493.7 451,-493.7"/>
<text text-anchor="start" x="454" y="-501.4" font-family="Helvetica,sans-Serif" font-size="11.00" fill="#000000">varchar[6]</text>
<polygon fill="none" stroke="#000000" points="238,-471.7 238,-493.7 451,-493.7 451,-471.7 238,-471.7"/>
<text text-anchor="start" x="258" y="-478.8" font-family="Helvetica,sans-Serif" font-size="11.00" fill="#000000">authorisation_id</text>
<polygon fill="none" stroke="#000000" points="451,-471.7 451,-493.7 550,-493.7 550,-471.7 451,-471.7"/>
<text text-anchor="start" x="454" y="-479.4" font-family="Helvetica,sans-Serif" font-size="11.00" fill="#000000">uuid[2147483647]</text>
<polygon fill="none" stroke="#000000" points="238,-449.7 238,-471.7 451,-471.7 451,-449.7 238,-449.7"/>
<text text-anchor="start" x="258" y="-456.8" font-family="Helvetica,sans-Serif" font-size="11.00" fill="#000000">status_id</text>
<polygon fill="none" stroke="#000000" points="451,-449.7 451,-471.7 550,-471.7 550,-449.7 451,-449.7"/>
<text text-anchor="start" x="454" y="-457.4" font-family="Helvetica,sans-Serif" font-size="11.00" fill="#000000">uuid[2147483647]</text>
<polygon fill="none" stroke="#000000" points="238,-427.7 238,-449.7 451,-449.7 451,-427.7 238,-427.7"/>
<text text-anchor="start" x="258" y="-434.8" font-family="Helvetica,sans-Serif" font-size="11.00" fill="#000000">absence_type_id</text>
<polygon fill="none" stroke="#000000" points="451,-427.7 451,-449.7 550,-449.7 550,-427.7 451,-427.7"/>
<text text-anchor="start" x="454" y="-435.4" font-family="Helvetica,sans-Serif" font-size="11.00" fill="#000000">uuid[2147483647]</text>
<polygon fill="none" stroke="#000000" points="238,-405.7 238,-427.7 451,-427.7 451,-405.7 238,-405.7"/>
<text text-anchor="start" x="258" y="-412.8" font-family="Helvetica,sans-Serif" font-size="11.00" fill="#000000">absence_sub_type_id</text>
<polygon fill="none" stroke="#000000" points="451,-405.7 451,-427.7 550,-427.7 550,-405.7 451,-405.7"/>
<text text-anchor="start" x="454" y="-413.4" font-family="Helvetica,sans-Serif" font-size="11.00" fill="#000000">uuid[2147483647]</text>
<polygon fill="none" stroke="#000000" points="238,-383.7 238,-405.7 451,-405.7 451,-383.7 238,-383.7"/>
<text text-anchor="start" x="258" y="-390.8" font-family="Helvetica,sans-Serif" font-size="11.00" fill="#000000">absence_reason_category_id</text>
<polygon fill="none" stroke="#000000" points="451,-383.7 451,-405.7 550,-405.7 550,-383.7 451,-383.7"/>
<text text-anchor="start" x="454" y="-391.4" font-family="Helvetica,sans-Serif" font-size="11.00" fill="#000000">uuid[2147483647]</text>
<polygon fill="none" stroke="#000000" points="238,-361.7 238,-383.7 451,-383.7 451,-361.7 238,-361.7"/>
<text text-anchor="start" x="258" y="-368.8" font-family="Helvetica,sans-Serif" font-size="11.00" fill="#000000">absence_reason_id</text>
<polygon fill="none" stroke="#000000" points="451,-361.7 451,-383.7 550,-383.7 550,-361.7 451,-361.7"/>
<text text-anchor="start" x="454" y="-369.4" font-family="Helvetica,sans-Serif" font-size="11.00" fill="#000000">uuid[2147483647]</text>
<polygon fill="none" stroke="#000000" points="238,-339.7 238,-361.7 451,-361.7 451,-339.7 238,-339.7"/>
<text text-anchor="start" x="258" y="-346.8" font-family="Helvetica,sans-Serif" font-size="11.00" fill="#000000">accompanied_by_id</text>
<polygon fill="none" stroke="#000000" points="451,-339.7 451,-361.7 550,-361.7 550,-339.7 451,-339.7"/>
<text text-anchor="start" x="454" y="-347.4" font-family="Helvetica,sans-Serif" font-size="11.00" fill="#000000">uuid[2147483647]</text>
<polygon fill="none" stroke="#000000" points="238,-317.7 238,-339.7 451,-339.7 451,-317.7 238,-317.7"/>
<text text-anchor="start" x="258" y="-324.8" font-family="Helvetica,sans-Serif" font-size="11.00" fill="#000000">transport_id</text>
<polygon fill="none" stroke="#000000" points="451,-317.7 451,-339.7 550,-339.7 550,-317.7 451,-317.7"/>
<text text-anchor="start" x="454" y="-325.4" font-family="Helvetica,sans-Serif" font-size="11.00" fill="#000000">uuid[2147483647]</text>
<polygon fill="none" stroke="#000000" points="238,-295.7 238,-317.7 451,-317.7 451,-295.7 238,-295.7"/>
<text text-anchor="start" x="258" y="-302.8" font-family="Helvetica,sans-Serif" font-size="11.00" fill="#000000">start</text>
<polygon fill="none" stroke="#000000" points="451,-295.7 451,-317.7 550,-317.7 550,-295.7 451,-295.7"/>
<text text-anchor="start" x="454" y="-303.4" font-family="Helvetica,sans-Serif" font-size="11.00" fill="#000000">timestamp[29,6]</text>
<polygon fill="none" stroke="#000000" points="238,-273.7 238,-295.7 451,-295.7 451,-273.7 238,-273.7"/>
<text text-anchor="start" x="258" y="-280.8" font-family="Helvetica,sans-Serif" font-size="11.00" fill="#000000">end</text>
<polygon fill="none" stroke="#000000" points="451,-273.7 451,-295.7 550,-295.7 550,-273.7 451,-273.7"/>
<text text-anchor="start" x="454" y="-281.4" font-family="Helvetica,sans-Serif" font-size="11.00" fill="#000000">timestamp[29,6]</text>
<polygon fill="none" stroke="#000000" points="238,-251.7 238,-273.7 451,-273.7 451,-251.7 238,-251.7"/>
<text text-anchor="start" x="258" y="-258.8" font-family="Helvetica,sans-Serif" font-size="11.00" fill="#000000">location</text>
<polygon fill="none" stroke="#000000" points="451,-251.7 451,-273.7 550,-273.7 550,-251.7 451,-251.7"/>
<text text-anchor="start" x="453.7258" y="-259.4" font-family="Helvetica,sans-Serif" font-size="11.00" fill="#000000">jsonb[2147483647]</text>
<polygon fill="none" stroke="#000000" points="238,-229.7 238,-251.7 451,-251.7 451,-229.7 238,-229.7"/>
<text text-anchor="start" x="258" y="-236.8" font-family="Helvetica,sans-Serif" font-size="11.00" fill="#000000">contact_information</text>
<polygon fill="none" stroke="#000000" points="451,-229.7 451,-251.7 550,-251.7 550,-229.7 451,-229.7"/>
<text text-anchor="start" x="454" y="-237.4" font-family="Helvetica,sans-Serif" font-size="11.00" fill="#000000">text[2147483647]</text>
<polygon fill="none" stroke="#000000" points="238,-207.7 238,-229.7 451,-229.7 451,-207.7 238,-207.7"/>
<text text-anchor="start" x="258" y="-214.8" font-family="Helvetica,sans-Serif" font-size="11.00" fill="#000000">comments</text>
<polygon fill="none" stroke="#000000" points="451,-207.7 451,-229.7 550,-229.7 550,-207.7 451,-207.7"/>
<text text-anchor="start" x="454" y="-215.4" font-family="Helvetica,sans-Serif" font-size="11.00" fill="#000000">text[2147483647]</text>
<polygon fill="none" stroke="#000000" points="238,-185.7 238,-207.7 451,-207.7 451,-185.7 238,-185.7"/>
<text text-anchor="start" x="258" y="-192.8" font-family="Helvetica,sans-Serif" font-size="11.00" fill="#000000">reason_path</text>
<polygon fill="none" stroke="#000000" points="451,-185.7 451,-207.7 550,-207.7 550,-185.7 451,-185.7"/>
<text text-anchor="start" x="453.7258" y="-193.4" font-family="Helvetica,sans-Serif" font-size="11.00" fill="#000000">jsonb[2147483647]</text>
<polygon fill="none" stroke="#000000" points="238,-163.7 238,-185.7 451,-185.7 451,-163.7 238,-163.7"/>
<text text-anchor="start" x="258" y="-170.8" font-family="Helvetica,sans-Serif" font-size="11.00" fill="#000000">legacy_id</text>
<polygon fill="none" stroke="#000000" points="451,-163.7 451,-185.7 550,-185.7 550,-163.7 451,-163.7"/>
<text text-anchor="start" x="454" y="-171.4" font-family="Helvetica,sans-Serif" font-size="11.00" fill="#000000">int8[19]</text>
<polygon fill="none" stroke="#000000" points="238,-141.7 238,-163.7 451,-163.7 451,-141.7 238,-141.7"/>
<text text-anchor="start" x="258" y="-148.8" font-family="Helvetica,sans-Serif" font-size="11.00" fill="#000000">dps_only</text>
<polygon fill="none" stroke="#000000" points="451,-141.7 451,-163.7 550,-163.7 550,-141.7 451,-141.7"/>
<text text-anchor="start" x="454" y="-149.4" font-family="Helvetica,sans-Serif" font-size="11.00" fill="#000000">bool[1]</text>
<polygon fill="#ffffff" stroke="transparent" points="238,-122.7 238,-141.7 349,-141.7 349,-122.7 238,-122.7"/>
<polygon fill="none" stroke="#000000" points="238,-122.7 238,-141.7 349,-141.7 349,-122.7 238,-122.7"/>
<text text-anchor="start" x="241" y="-128.8" font-family="Helvetica,sans-Serif" font-size="11.00" fill="#000000">&lt; 1</text>
<polygon fill="#ffffff" stroke="transparent" points="349,-122.7 349,-141.7 451,-141.7 451,-122.7 349,-122.7"/>
<polygon fill="none" stroke="#000000" points="349,-122.7 349,-141.7 451,-141.7 451,-122.7 349,-122.7"/>
<text text-anchor="start" x="441.8862" y="-128.8" font-family="Helvetica,sans-Serif" font-size="11.00" fill="#000000"> &#160;</text>
<polygon fill="#ffffff" stroke="transparent" points="451,-122.7 451,-141.7 550,-141.7 550,-122.7 451,-122.7"/>
<polygon fill="none" stroke="#000000" points="451,-122.7 451,-141.7 550,-141.7 550,-122.7 451,-122.7"/>
<text text-anchor="start" x="531.4053" y="-128.8" font-family="Helvetica,sans-Serif" font-size="11.00" fill="#000000">0 &gt;</text>
<polygon fill="none" stroke="#000000" stroke-width="2" points="237,-121.7 237,-649.7 551,-649.7 551,-121.7 237,-121.7"/>
</a>
</g>
</g>
<!-- occurrence_audit&#45;&gt;public.audit_revision -->
<g id="edge3" class="edge">
<title>occurrence_audit:w&#45;&gt;public.audit_revision:e</title>
<path fill="none" stroke="#000000" d="M223.5648,-615.3416C210.6942,-616.449 197.6763,-618.9116 185.1393,-622.1121"/>
<polygon fill="#000000" stroke="#000000" points="230.0079,-615.0553 238.1599,-618.2964 234.0039,-614.8776 238,-614.7 238,-614.7 238,-614.7 234.0039,-614.8776 237.8401,-611.1036 230.0079,-615.0553 230.0079,-615.0553"/>
<ellipse fill="none" stroke="#000000" cx="226.811" cy="-615.1974" rx="3.2" ry="3.2"/>
</g>
<!-- prison_tap_locations_audit -->
<g id="node5" class="node">
<title>prison_tap_locations_audit</title>
<g id="a_node5"><a xlink:href="../../tables/prison_tap_locations_audit.html" xlink:title="prison_tap_locations_audit" target="_top">
<polygon fill="#ffffff" stroke="transparent" points="285,-38.2 285,-99.2 503,-99.2 503,-38.2 285,-38.2"/>
<polygon fill="#f5f5f5" stroke="transparent" points="285,-75.7 285,-98.7 503,-98.7 503,-75.7 285,-75.7"/>
<polygon fill="none" stroke="#000000" points="285,-75.7 285,-98.7 503,-98.7 503,-75.7 285,-75.7"/>
<text text-anchor="start" x="290" y="-84.3" font-family="Helvetica,sans-Serif" font-weight="bold" font-size="11.00" fill="#000000">prison_tap_locations_audit</text>
<text text-anchor="start" x="468.5219" y="-83.8" font-family="Helvetica,sans-Serif" font-size="11.00" fill="#000000">[table]</text>
<polygon fill="none" stroke="#000000" points="285,-56.7 285,-75.7 503,-75.7 503,-56.7 285,-56.7"/>
<text text-anchor="start" x="288" y="-62.8" font-family="Helvetica,sans-Serif" font-size="11.00" fill="#000000">...</text>
<polygon fill="#ffffff" stroke="transparent" points="285,-37.7 285,-56.7 392,-56.7 392,-37.7 285,-37.7"/>
<polygon fill="none" stroke="#000000" points="285,-37.7 285,-56.7 392,-56.7 392,-37.7 285,-37.7"/>
<text text-anchor="start" x="288" y="-43.8" font-family="Helvetica,sans-Serif" font-size="11.00" fill="#000000">&lt; 1</text>
<polygon fill="#ffffff" stroke="transparent" points="392,-37.7 392,-56.7 447,-56.7 447,-37.7 392,-37.7"/>
<polygon fill="none" stroke="#000000" points="392,-37.7 392,-56.7 447,-56.7 447,-37.7 392,-37.7"/>
<text text-anchor="start" x="437.8862" y="-43.8" font-family="Helvetica,sans-Serif" font-size="11.00" fill="#000000"> &#160;</text>
<polygon fill="#ffffff" stroke="transparent" points="447,-37.7 447,-56.7 503,-56.7 503,-37.7 447,-37.7"/>
<polygon fill="none" stroke="#000000" points="447,-37.7 447,-56.7 503,-56.7 503,-37.7 447,-37.7"/>
<text text-anchor="start" x="493.8862" y="-43.8" font-family="Helvetica,sans-Serif" font-size="11.00" fill="#000000"> &#160;</text>
</a>
</g>
</g>
<!-- prison_tap_locations_audit&#45;&gt;public.audit_revision -->
<g id="edge4" class="edge">
<title>prison_tap_locations_audit:w&#45;&gt;public.audit_revision:e</title>
<path fill="none" stroke="#000000" d="M270.5388,-67.9181C163.1149,-101.2416 113.5225,-500.5721 100.8661,-621.9367"/>
<polygon fill="#000000" stroke="#000000" points="277.0925,-66.9129 285.5458,-69.2584 281.0462,-66.3065 285,-65.7 285,-65.7 285,-65.7 281.0462,-66.3065 284.4542,-62.1416 277.0925,-66.9129 277.0925,-66.9129"/>
<ellipse fill="none" stroke="#000000" cx="273.9295" cy="-67.3981" rx="3.2" ry="3.2"/>
</g>
</g>
</svg>
