<?xml version="1.0" encoding="UTF-8" standalone="no"?>
<!DOCTYPE svg PUBLIC "-//W3C//DTD SVG 1.1//EN"
 "http://www.w3.org/Graphics/SVG/1.1/DTD/svg11.dtd">
<!-- Generated by graphviz version 2.40.1 (20161225.0304)
 -->
<!-- Title: twoDegreesRelationshipsDiagramImplied Pages: 1 -->
<svg width="687pt" height="863pt"
 viewBox="0.00 0.00 687.00 863.20" xmlns="http://www.w3.org/2000/svg" xmlns:xlink="http://www.w3.org/1999/xlink">
<g id="graph0" class="graph" transform="scale(1 1) rotate(0) translate(4 859.2)">
<title>twoDegreesRelationshipsDiagramImplied</title>
<polygon fill="#ffffff" stroke="transparent" points="-4,4 -4,-859.2 683,-859.2 683,4 -4,4"/>
<text text-anchor="middle" x="72.4936" y="-7.3" font-family="Helvetica,sans-Serif" font-size="11.00" fill="#000000">Generated by SchemaSpy</text>
<!-- movement -->
<g id="node1" class="node">
<title>movement</title>
<g id="a_node1"><a xlink:href="../../tables/movement.html" xlink:title="movement" target="_top">
<polygon fill="#ffffff" stroke="transparent" points="561,-558.2 561,-619.2 671,-619.2 671,-558.2 561,-558.2"/>
<polygon fill="#f5f5f5" stroke="transparent" points="561,-595.7 561,-618.7 671,-618.7 671,-595.7 561,-595.7"/>
<polygon fill="none" stroke="#000000" points="561,-595.7 561,-618.7 671,-618.7 671,-595.7 561,-595.7"/>
<text text-anchor="start" x="566" y="-604.3" font-family="Helvetica,sans-Serif" font-weight="bold" font-size="11.00" fill="#000000">movement</text>
<text text-anchor="start" x="636.5219" y="-603.8" font-family="Helvetica,sans-Serif" font-size="11.00" fill="#000000">[table]</text>
<polygon fill="none" stroke="#000000" points="561,-576.7 561,-595.7 671,-595.7 671,-576.7 561,-576.7"/>
<text text-anchor="start" x="564" y="-582.8" font-family="Helvetica,sans-Serif" font-size="11.00" fill="#000000">...</text>
<polygon fill="#ffffff" stroke="transparent" points="561,-557.7 561,-576.7 614,-576.7 614,-557.7 561,-557.7"/>
<polygon fill="none" stroke="#000000" points="561,-557.7 561,-576.7 614,-576.7 614,-557.7 561,-557.7"/>
<text text-anchor="start" x="564" y="-563.8" font-family="Helvetica,sans-Serif" font-size="11.00" fill="#000000">&lt; 5</text>
<polygon fill="#ffffff" stroke="transparent" points="614,-557.7 614,-576.7 642,-576.7 642,-557.7 614,-557.7"/>
<polygon fill="none" stroke="#000000" points="614,-557.7 614,-576.7 642,-576.7 642,-557.7 614,-557.7"/>
<text text-anchor="start" x="632.8862" y="-563.8" font-family="Helvetica,sans-Serif" font-size="11.00" fill="#000000"> &#160;</text>
<polygon fill="#ffffff" stroke="transparent" points="642,-557.7 642,-576.7 671,-576.7 671,-557.7 642,-557.7"/>
<polygon fill="none" stroke="#000000" points="642,-557.7 642,-576.7 671,-576.7 671,-557.7 642,-557.7"/>
<text text-anchor="start" x="661.8862" y="-563.8" font-family="Helvetica,sans-Serif" font-size="11.00" fill="#000000"> &#160;</text>
</a>
</g>
</g>
<!-- absence_reason -->
<g id="node2" class="node">
<title>absence_reason</title>
<g id="a_node2"><a xlink:href="../../tables/absence_reason.html" xlink:title="absence_reason" target="_top">
<polygon fill="#ffffff" stroke="transparent" points="56,-202.2 56,-263.2 202,-263.2 202,-202.2 56,-202.2"/>
<polygon fill="#f5f5f5" stroke="transparent" points="56,-239.7 56,-262.7 202,-262.7 202,-239.7 56,-239.7"/>
<polygon fill="none" stroke="#000000" points="56,-239.7 56,-262.7 202,-262.7 202,-239.7 56,-239.7"/>
<text text-anchor="start" x="61" y="-248.3" font-family="Helvetica,sans-Serif" font-weight="bold" font-size="11.00" fill="#000000">absence_reason</text>
<text text-anchor="start" x="167.5219" y="-247.8" font-family="Helvetica,sans-Serif" font-size="11.00" fill="#000000">[table]</text>
<polygon fill="none" stroke="#000000" points="56,-220.7 56,-239.7 202,-239.7 202,-220.7 56,-220.7"/>
<text text-anchor="start" x="59" y="-226.8" font-family="Helvetica,sans-Serif" font-size="11.00" fill="#000000">...</text>
<polygon fill="#ffffff" stroke="transparent" points="56,-201.7 56,-220.7 118,-220.7 118,-201.7 56,-201.7"/>
<polygon fill="none" stroke="#000000" points="56,-201.7 56,-220.7 118,-220.7 118,-201.7 56,-201.7"/>
<text text-anchor="start" x="59" y="-207.8" font-family="Helvetica,sans-Serif" font-size="11.00" fill="#000000"> &#160;</text>
<polygon fill="#ffffff" stroke="transparent" points="118,-201.7 118,-220.7 155,-220.7 155,-201.7 118,-201.7"/>
<polygon fill="none" stroke="#000000" points="118,-201.7 118,-220.7 155,-220.7 155,-201.7 118,-201.7"/>
<text text-anchor="start" x="145.8862" y="-207.8" font-family="Helvetica,sans-Serif" font-size="11.00" fill="#000000"> &#160;</text>
<polygon fill="#ffffff" stroke="transparent" points="155,-201.7 155,-220.7 202,-220.7 202,-201.7 155,-201.7"/>
<polygon fill="none" stroke="#000000" points="155,-201.7 155,-220.7 202,-220.7 202,-201.7 155,-201.7"/>
<text text-anchor="start" x="183.4053" y="-207.8" font-family="Helvetica,sans-Serif" font-size="11.00" fill="#000000">3 &gt;</text>
</a>
</g>
</g>
<!-- movement&#45;&gt;absence_reason -->
<g id="edge1" class="edge">
<title>movement:w&#45;&gt;absence_reason:e</title>
<path fill="none" stroke="#000000" d="M546.9878,-581.7355C491.7936,-545.36 577.1021,-269.7781 520,-218.7 414.5974,-124.4169 343.4179,-229.7 202,-229.7"/>
<polygon fill="#000000" stroke="#000000" points="553.3022,-583.522 560.0199,-589.164 557.1511,-584.611 561,-585.7 561,-585.7 561,-585.7 557.1511,-584.611 561.9801,-582.236 553.3022,-583.522 553.3022,-583.522"/>
<ellipse fill="none" stroke="#000000" cx="550.223" cy="-582.6508" rx="3.2" ry="3.2"/>
</g>
<!-- accompanied_by -->
<g id="node3" class="node">
<title>accompanied_by</title>
<g id="a_node3"><a xlink:href="../../tables/accompanied_by.html" xlink:title="accompanied_by" target="_top">
<polygon fill="#ffffff" stroke="transparent" points="54,-120.2 54,-181.2 204,-181.2 204,-120.2 54,-120.2"/>
<polygon fill="#f5f5f5" stroke="transparent" points="54,-157.7 54,-180.7 204,-180.7 204,-157.7 54,-157.7"/>
<polygon fill="none" stroke="#000000" points="54,-157.7 54,-180.7 204,-180.7 204,-157.7 54,-157.7"/>
<text text-anchor="start" x="59" y="-166.3" font-family="Helvetica,sans-Serif" font-weight="bold" font-size="11.00" fill="#000000">accompanied_by</text>
<text text-anchor="start" x="169.5219" y="-165.8" font-family="Helvetica,sans-Serif" font-size="11.00" fill="#000000">[table]</text>
<polygon fill="none" stroke="#000000" points="54,-138.7 54,-157.7 204,-157.7 204,-138.7 54,-138.7"/>
<text text-anchor="start" x="57" y="-144.8" font-family="Helvetica,sans-Serif" font-size="11.00" fill="#000000">...</text>
<polygon fill="#ffffff" stroke="transparent" points="54,-119.7 54,-138.7 118,-138.7 118,-119.7 54,-119.7"/>
<polygon fill="none" stroke="#000000" points="54,-119.7 54,-138.7 118,-138.7 118,-119.7 54,-119.7"/>
<text text-anchor="start" x="57" y="-125.8" font-family="Helvetica,sans-Serif" font-size="11.00" fill="#000000"> &#160;</text>
<polygon fill="#ffffff" stroke="transparent" points="118,-119.7 118,-138.7 156,-138.7 156,-119.7 118,-119.7"/>
<polygon fill="none" stroke="#000000" points="118,-119.7 118,-138.7 156,-138.7 156,-119.7 118,-119.7"/>
<text text-anchor="start" x="146.8862" y="-125.8" font-family="Helvetica,sans-Serif" font-size="11.00" fill="#000000"> &#160;</text>
<polygon fill="#ffffff" stroke="transparent" points="156,-119.7 156,-138.7 204,-138.7 204,-119.7 156,-119.7"/>
<polygon fill="none" stroke="#000000" points="156,-119.7 156,-138.7 204,-138.7 204,-119.7 156,-119.7"/>
<text text-anchor="start" x="185.4053" y="-125.8" font-family="Helvetica,sans-Serif" font-size="11.00" fill="#000000">3 &gt;</text>
</a>
</g>
</g>
<!-- movement&#45;&gt;accompanied_by -->
<g id="edge2" class="edge">
<title>movement:w&#45;&gt;accompanied_by:e</title>
<path fill="none" stroke="#000000" d="M546.993,-582.2756C482.538,-546.2702 581.0604,-237.2499 520,-176.7 419.8557,-77.3929 345.0346,-147.7 204,-147.7"/>
<polygon fill="#000000" stroke="#000000" points="553.2289,-583.8001 560.145,-589.197 557.1144,-584.7501 561,-585.7 561,-585.7 561,-585.7 557.1144,-584.7501 561.855,-582.203 553.2289,-583.8001 553.2289,-583.8001"/>
<ellipse fill="none" stroke="#000000" cx="550.1204" cy="-583.0401" rx="3.2" ry="3.2"/>
</g>
<!-- occurrence -->
<g id="node4" class="node">
<title>occurrence</title>
<g id="a_node4"><a xlink:href="../../tables/occurrence.html" xlink:title="occurrence" target="_top">
<polygon fill="#ffffff" stroke="transparent" points="299,-229.2 299,-620.2 512,-620.2 512,-229.2 299,-229.2"/>
<polygon fill="#f5f5f5" stroke="transparent" points="299.5,-596.7 299.5,-619.7 512.5,-619.7 512.5,-596.7 299.5,-596.7"/>
<polygon fill="none" stroke="#000000" points="299.5,-596.7 299.5,-619.7 512.5,-619.7 512.5,-596.7 299.5,-596.7"/>
<text text-anchor="start" x="304.5" y="-605.3" font-family="Helvetica,sans-Serif" font-weight="bold" font-size="11.00" fill="#000000">occurrence</text>
<text text-anchor="start" x="477.5437" y="-604.8" font-family="Helvetica,sans-Serif" font-size="11.00" fill="#000000">[table]</text>
<polygon fill="none" stroke="#000000" points="299.5,-574.7 299.5,-596.7 512.5,-596.7 512.5,-574.7 299.5,-574.7"/>
<image xlink:href="../../images/primaryKeys.png" width="11px" height="12px" preserveAspectRatio="xMinYMin meet" x="304.5" y="-591.7"/>
<text text-anchor="start" x="319.5" y="-581.8" font-family="Helvetica,sans-Serif" font-size="11.00" fill="#000000">id</text>
<polygon fill="#ffffff" stroke="transparent" points="299.5,-552.7 299.5,-574.7 512.5,-574.7 512.5,-552.7 299.5,-552.7"/>
<polygon fill="none" stroke="#000000" points="299.5,-552.7 299.5,-574.7 512.5,-574.7 512.5,-552.7 299.5,-552.7"/>
<image xlink:href="../../images/foreignKeys.png" width="11px" height="12px" preserveAspectRatio="xMinYMin meet" x="304.5" y="-569.7"/>
<text text-anchor="start" x="319.5" y="-559.8" font-family="Helvetica,sans-Serif" font-size="11.00" fill="#000000">person_identifier</text>
<polygon fill="#ffffff" stroke="transparent" points="299.5,-530.7 299.5,-552.7 512.5,-552.7 512.5,-530.7 299.5,-530.7"/>
<polygon fill="none" stroke="#000000" points="299.5,-530.7 299.5,-552.7 512.5,-552.7 512.5,-530.7 299.5,-530.7"/>
<image xlink:href="../../images/foreignKeys.png" width="11px" height="12px" preserveAspectRatio="xMinYMin meet" x="304.5" y="-547.7"/>
<text text-anchor="start" x="319.5" y="-537.8" font-family="Helvetica,sans-Serif" font-size="11.00" fill="#000000">prison_code</text>
<polygon fill="#ffffff" stroke="transparent" points="299.5,-508.7 299.5,-530.7 512.5,-530.7 512.5,-508.7 299.5,-508.7"/>
<polygon fill="none" stroke="#000000" points="299.5,-508.7 299.5,-530.7 512.5,-530.7 512.5,-508.7 299.5,-508.7"/>
<text text-anchor="start" x="319.5" y="-515.8" font-family="Helvetica,sans-Serif" font-size="11.00" fill="#000000">authorisation_id</text>
<polygon fill="#ffffff" stroke="transparent" points="299.5,-486.7 299.5,-508.7 512.5,-508.7 512.5,-486.7 299.5,-486.7"/>
<polygon fill="none" stroke="#000000" points="299.5,-486.7 299.5,-508.7 512.5,-508.7 512.5,-486.7 299.5,-486.7"/>
<image xlink:href="../../images/foreignKeys.png" width="11px" height="12px" preserveAspectRatio="xMinYMin meet" x="304.5" y="-503.7"/>
<text text-anchor="start" x="319.5" y="-493.8" font-family="Helvetica,sans-Serif" font-size="11.00" fill="#000000">status_id</text>
<polygon fill="none" stroke="#000000" points="299.5,-464.7 299.5,-486.7 512.5,-486.7 512.5,-464.7 299.5,-464.7"/>
<image xlink:href="../../images/foreignKeys.png" width="11px" height="12px" preserveAspectRatio="xMinYMin meet" x="304.5" y="-481.7"/>
<text text-anchor="start" x="319.5" y="-471.8" font-family="Helvetica,sans-Serif" font-size="11.00" fill="#000000">absence_type_id</text>
<polygon fill="none" stroke="#000000" points="299.5,-442.7 299.5,-464.7 512.5,-464.7 512.5,-442.7 299.5,-442.7"/>
<image xlink:href="../../images/foreignKeys.png" width="11px" height="12px" preserveAspectRatio="xMinYMin meet" x="304.5" y="-459.7"/>
<text text-anchor="start" x="319.5" y="-449.8" font-family="Helvetica,sans-Serif" font-size="11.00" fill="#000000">absence_sub_type_id</text>
<polygon fill="none" stroke="#000000" points="299.5,-420.7 299.5,-442.7 512.5,-442.7 512.5,-420.7 299.5,-420.7"/>
<image xlink:href="../../images/foreignKeys.png" width="11px" height="12px" preserveAspectRatio="xMinYMin meet" x="304.5" y="-437.7"/>
<text text-anchor="start" x="319.5" y="-427.8" font-family="Helvetica,sans-Serif" font-size="11.00" fill="#000000">absence_reason_category_id</text>
<polygon fill="none" stroke="#000000" points="299.5,-398.7 299.5,-420.7 512.5,-420.7 512.5,-398.7 299.5,-398.7"/>
<image xlink:href="../../images/foreignKeys.png" width="11px" height="12px" preserveAspectRatio="xMinYMin meet" x="304.5" y="-415.7"/>
<text text-anchor="start" x="319.5" y="-405.8" font-family="Helvetica,sans-Serif" font-size="11.00" fill="#000000">absence_reason_id</text>
<polygon fill="none" stroke="#000000" points="299.5,-376.7 299.5,-398.7 512.5,-398.7 512.5,-376.7 299.5,-376.7"/>
<image xlink:href="../../images/foreignKeys.png" width="11px" height="12px" preserveAspectRatio="xMinYMin meet" x="304.5" y="-393.7"/>
<text text-anchor="start" x="319.5" y="-383.8" font-family="Helvetica,sans-Serif" font-size="11.00" fill="#000000">accompanied_by_id</text>
<polygon fill="none" stroke="#000000" points="299.5,-354.7 299.5,-376.7 512.5,-376.7 512.5,-354.7 299.5,-354.7"/>
<image xlink:href="../../images/foreignKeys.png" width="11px" height="12px" preserveAspectRatio="xMinYMin meet" x="304.5" y="-371.7"/>
<text text-anchor="start" x="319.5" y="-361.8" font-family="Helvetica,sans-Serif" font-size="11.00" fill="#000000">transport_id</text>
<polygon fill="#ffffff" stroke="transparent" points="299.5,-332.7 299.5,-354.7 512.5,-354.7 512.5,-332.7 299.5,-332.7"/>
<polygon fill="none" stroke="#000000" points="299.5,-332.7 299.5,-354.7 512.5,-354.7 512.5,-332.7 299.5,-332.7"/>
<text text-anchor="start" x="319.5" y="-339.8" font-family="Helvetica,sans-Serif" font-size="11.00" fill="#000000">start</text>
<polygon fill="#ffffff" stroke="transparent" points="299.5,-310.7 299.5,-332.7 512.5,-332.7 512.5,-310.7 299.5,-310.7"/>
<polygon fill="none" stroke="#000000" points="299.5,-310.7 299.5,-332.7 512.5,-332.7 512.5,-310.7 299.5,-310.7"/>
<text text-anchor="start" x="319.5" y="-317.8" font-family="Helvetica,sans-Serif" font-size="11.00" fill="#000000">end</text>
<polygon fill="#ffffff" stroke="transparent" points="299.5,-288.7 299.5,-310.7 512.5,-310.7 512.5,-288.7 299.5,-288.7"/>
<polygon fill="none" stroke="#000000" points="299.5,-288.7 299.5,-310.7 512.5,-310.7 512.5,-288.7 299.5,-288.7"/>
<text text-anchor="start" x="319.5" y="-295.8" font-family="Helvetica,sans-Serif" font-size="11.00" fill="#000000">legacy_id</text>
<polygon fill="#ffffff" stroke="transparent" points="299.5,-266.7 299.5,-288.7 512.5,-288.7 512.5,-266.7 299.5,-266.7"/>
<polygon fill="none" stroke="#000000" points="299.5,-266.7 299.5,-288.7 512.5,-288.7 512.5,-266.7 299.5,-266.7"/>
<text text-anchor="start" x="319.5" y="-273.8" font-family="Helvetica,sans-Serif" font-size="11.00" fill="#000000">dps_only</text>
<polygon fill="none" stroke="#000000" points="299.5,-247.7 299.5,-266.7 512.5,-266.7 512.5,-247.7 299.5,-247.7"/>
<text text-anchor="start" x="302.5" y="-253.8" font-family="Helvetica,sans-Serif" font-size="11.00" fill="#000000">...</text>
<polygon fill="#ffffff" stroke="transparent" points="299.5,-228.7 299.5,-247.7 399.5,-247.7 399.5,-228.7 299.5,-228.7"/>
<polygon fill="none" stroke="#000000" points="299.5,-228.7 299.5,-247.7 399.5,-247.7 399.5,-228.7 299.5,-228.7"/>
<text text-anchor="start" x="302.5" y="-234.8" font-family="Helvetica,sans-Serif" font-size="11.00" fill="#000000">&lt; 9</text>
<polygon fill="#ffffff" stroke="transparent" points="399.5,-228.7 399.5,-247.7 451.5,-247.7 451.5,-228.7 399.5,-228.7"/>
<polygon fill="none" stroke="#000000" points="399.5,-228.7 399.5,-247.7 451.5,-247.7 451.5,-228.7 399.5,-228.7"/>
<text text-anchor="start" x="442.3862" y="-234.8" font-family="Helvetica,sans-Serif" font-size="11.00" fill="#000000"> &#160;</text>
<polygon fill="#ffffff" stroke="transparent" points="451.5,-228.7 451.5,-247.7 512.5,-247.7 512.5,-228.7 451.5,-228.7"/>
<polygon fill="none" stroke="#000000" points="451.5,-228.7 451.5,-247.7 512.5,-247.7 512.5,-228.7 451.5,-228.7"/>
<text text-anchor="start" x="493.9053" y="-234.8" font-family="Helvetica,sans-Serif" font-size="11.00" fill="#000000">1 &gt;</text>
</a>
</g>
</g>
<!-- movement&#45;&gt;occurrence -->
<g id="edge3" class="edge">
<title>movement:w&#45;&gt;occurrence:e</title>
<path fill="none" stroke="#000000" d="M546.2829,-585.7C535.2886,-585.7 528.1615,-585.7 512.5,-585.7"/>
<polygon fill="#000000" stroke="#000000" points="553,-585.7001 561,-589.3 557,-585.7 561,-585.7 561,-585.7 561,-585.7 557,-585.7 561,-582.1 553,-585.7001 553,-585.7001"/>
<ellipse fill="none" stroke="#000000" cx="549.8" cy="-585.7001" rx="3.2" ry="3.2"/>
</g>
<!-- public.person_summary -->
<g id="node5" class="node">
<title>public.person_summary</title>
<g id="a_node5"><a xlink:href="../../../public/tables/person_summary.html" xlink:title="public.person_summary" target="_top">
<polygon fill="#ffffff" stroke="transparent" points="29.5,-790.2 29.5,-851.2 228.5,-851.2 228.5,-790.2 29.5,-790.2"/>
<polygon fill="#f5f5f5" stroke="transparent" points="30,-827.7 30,-850.7 229,-850.7 229,-827.7 30,-827.7"/>
<polygon fill="none" stroke="#000000" points="30,-827.7 30,-850.7 229,-850.7 229,-827.7 30,-827.7"/>
<text text-anchor="start" x="35" y="-836.3" font-family="Helvetica,sans-Serif" font-weight="bold" font-size="11.00" fill="#000000">public.person_summary</text>
<text text-anchor="start" x="194.5219" y="-835.8" font-family="Helvetica,sans-Serif" font-size="11.00" fill="#000000">[table]</text>
<polygon fill="none" stroke="#000000" points="30,-808.7 30,-827.7 229,-827.7 229,-808.7 30,-808.7"/>
<text text-anchor="start" x="33" y="-814.8" font-family="Helvetica,sans-Serif" font-size="11.00" fill="#000000">...</text>
<polygon fill="#ffffff" stroke="transparent" points="30,-789.7 30,-808.7 106,-808.7 106,-789.7 30,-789.7"/>
<polygon fill="none" stroke="#000000" points="30,-789.7 30,-808.7 106,-808.7 106,-789.7 30,-789.7"/>
<text text-anchor="start" x="33" y="-795.8" font-family="Helvetica,sans-Serif" font-size="11.00" fill="#000000"> &#160;</text>
<polygon fill="#ffffff" stroke="transparent" points="106,-789.7 106,-808.7 176,-808.7 176,-789.7 106,-789.7"/>
<polygon fill="none" stroke="#000000" points="106,-789.7 106,-808.7 176,-808.7 176,-789.7 106,-789.7"/>
<text text-anchor="start" x="140.6105" y="-795.8" font-family="Helvetica,sans-Serif" font-size="11.00" fill="#000000">0 rows</text>
<polygon fill="#ffffff" stroke="transparent" points="176,-789.7 176,-808.7 229,-808.7 229,-789.7 176,-789.7"/>
<polygon fill="none" stroke="#000000" points="176,-789.7 176,-808.7 229,-808.7 229,-789.7 176,-789.7"/>
<text text-anchor="start" x="210.4053" y="-795.8" font-family="Helvetica,sans-Serif" font-size="11.00" fill="#000000">3 &gt;</text>
</a>
</g>
</g>
<!-- movement&#45;&gt;public.person_summary -->
<g id="edge4" class="edge">
<title>movement:w&#45;&gt;public.person_summary:e</title>
<path fill="none" stroke="#000000" d="M546.5203,-588.5786C520.1029,-602.0658 550.7656,-659.6929 520,-691.7 422.3329,-793.3083 369.9365,-817.7 229,-817.7"/>
<polygon fill="#000000" stroke="#000000" points="553.1535,-587.2599 561.702,-589.2309 557.0768,-586.48 561,-585.7 561,-585.7 561,-585.7 557.0768,-586.48 560.298,-582.1691 553.1535,-587.2599 553.1535,-587.2599"/>
<ellipse fill="none" stroke="#000000" cx="550.015" cy="-587.8839" rx="3.2" ry="3.2"/>
</g>
<!-- prison_tap_locations -->
<g id="node6" class="node">
<title>prison_tap_locations</title>
<g id="a_node6"><a xlink:href="../../tables/prison_tap_locations.html" xlink:title="prison_tap_locations" target="_top">
<polygon fill="#ffffff" stroke="transparent" points="40.5,-708.2 40.5,-769.2 217.5,-769.2 217.5,-708.2 40.5,-708.2"/>
<polygon fill="#f5f5f5" stroke="transparent" points="41,-745.7 41,-768.7 218,-768.7 218,-745.7 41,-745.7"/>
<polygon fill="none" stroke="#000000" points="41,-745.7 41,-768.7 218,-768.7 218,-745.7 41,-745.7"/>
<text text-anchor="start" x="46" y="-754.3" font-family="Helvetica,sans-Serif" font-weight="bold" font-size="11.00" fill="#000000">prison_tap_locations</text>
<text text-anchor="start" x="183.5219" y="-753.8" font-family="Helvetica,sans-Serif" font-size="11.00" fill="#000000">[table]</text>
<polygon fill="none" stroke="#000000" points="41,-726.7 41,-745.7 218,-745.7 218,-726.7 41,-726.7"/>
<text text-anchor="start" x="44" y="-732.8" font-family="Helvetica,sans-Serif" font-size="11.00" fill="#000000">...</text>
<polygon fill="#ffffff" stroke="transparent" points="41,-707.7 41,-726.7 119,-726.7 119,-707.7 41,-707.7"/>
<polygon fill="none" stroke="#000000" points="41,-707.7 41,-726.7 119,-726.7 119,-707.7 41,-707.7"/>
<text text-anchor="start" x="44" y="-713.8" font-family="Helvetica,sans-Serif" font-size="11.00" fill="#000000"> &#160;</text>
<polygon fill="#ffffff" stroke="transparent" points="119,-707.7 119,-726.7 164,-726.7 164,-707.7 119,-707.7"/>
<polygon fill="none" stroke="#000000" points="119,-707.7 119,-726.7 164,-726.7 164,-707.7 119,-707.7"/>
<text text-anchor="start" x="154.8862" y="-713.8" font-family="Helvetica,sans-Serif" font-size="11.00" fill="#000000"> &#160;</text>
<polygon fill="#ffffff" stroke="transparent" points="164,-707.7 164,-726.7 218,-726.7 218,-707.7 164,-707.7"/>
<polygon fill="none" stroke="#000000" points="164,-707.7 164,-726.7 218,-726.7 218,-707.7 164,-707.7"/>
<text text-anchor="start" x="199.4053" y="-713.8" font-family="Helvetica,sans-Serif" font-size="11.00" fill="#000000">9 &gt;</text>
</a>
</g>
</g>
<!-- movement&#45;&gt;prison_tap_locations -->
<g id="edge5" class="edge">
<title>movement:w&#45;&gt;prison_tap_locations:e</title>
<path fill="none" stroke="#000000" stroke-dasharray="5,2" d="M546.997,-590.077C536.2784,-598.9741 537.2905,-619.2915 520,-630.7 401.3889,-708.9611 360.1034,-735.7 218,-735.7"/>
<polygon fill="#000000" stroke="#000000" points="553.3643,-588.0868 562.074,-589.1361 557.1822,-586.8934 561,-585.7 561,-585.7 561,-585.7 557.1822,-586.8934 559.926,-582.2639 553.3643,-588.0868 553.3643,-588.0868"/>
<ellipse fill="none" stroke="#000000" cx="550.31" cy="-589.0415" rx="3.2" ry="3.2"/>
</g>
<!-- occurrence&#45;&gt;absence_reason -->
<g id="edge7" class="edge">
<title>occurrence:w&#45;&gt;absence_reason:e</title>
<path fill="none" stroke="#000000" d="M285.2322,-407.7531C245.8674,-394.8875 290.5009,-321.1556 258,-273.7 240.1146,-247.5851 233.6524,-229.7 202,-229.7"/>
<polygon fill="#000000" stroke="#000000" points="291.5735,-408.6183 299.0133,-413.2669 295.5367,-409.1592 299.5,-409.7 299.5,-409.7 299.5,-409.7 295.5367,-409.1592 299.9867,-406.1331 291.5735,-408.6183 291.5735,-408.6183"/>
<ellipse fill="none" stroke="#000000" cx="288.4028" cy="-408.1857" rx="3.2" ry="3.2"/>
</g>
<!-- occurrence&#45;&gt;accompanied_by -->
<g id="edge10" class="edge">
<title>occurrence:w&#45;&gt;accompanied_by:e</title>
<path fill="none" stroke="#000000" d="M284.8697,-386.3339C221.6498,-372.873 301.4808,-262.9592 258,-191.7 241.8747,-165.2728 234.9584,-147.7 204,-147.7"/>
<polygon fill="#000000" stroke="#000000" points="291.5346,-386.9562 299.1653,-391.2844 295.5173,-387.3281 299.5,-387.7 299.5,-387.7 299.5,-387.7 295.5173,-387.3281 299.8347,-384.1156 291.5346,-386.9562 291.5346,-386.9562"/>
<ellipse fill="none" stroke="#000000" cx="288.3485" cy="-386.6587" rx="3.2" ry="3.2"/>
</g>
<!-- occurrence&#45;&gt;public.person_summary -->
<g id="edge11" class="edge">
<title>occurrence:w&#45;&gt;public.person_summary:e</title>
<path fill="none" stroke="#000000" d="M286.0359,-569.4607C256.038,-599.6743 275.7841,-739.9665 258,-779.7 249.3207,-799.0914 250.2452,-817.7 229,-817.7"/>
<polygon fill="#000000" stroke="#000000" points="292.1449,-566.8469 300.9161,-567.0098 295.8225,-565.2735 299.5,-563.7 299.5,-563.7 299.5,-563.7 295.8225,-565.2735 298.0839,-560.3902 292.1449,-566.8469 292.1449,-566.8469"/>
<ellipse fill="none" stroke="#000000" cx="289.2029" cy="-568.1057" rx="3.2" ry="3.2"/>
</g>
<!-- occurrence&#45;&gt;prison_tap_locations -->
<g id="edge12" class="edge">
<title>occurrence:w&#45;&gt;prison_tap_locations:e</title>
<path fill="none" stroke="#000000" stroke-dasharray="5,2" d="M285.1832,-543.3516C237.8529,-556.1087 291.2261,-639.9701 258,-696.7 245.4516,-718.125 242.8293,-735.7 218,-735.7"/>
<polygon fill="#000000" stroke="#000000" points="291.5527,-542.6168 299.9126,-545.2763 295.5264,-542.1584 299.5,-541.7 299.5,-541.7 299.5,-541.7 295.5264,-542.1584 299.0874,-538.1237 291.5527,-542.6168 291.5527,-542.6168"/>
<ellipse fill="none" stroke="#000000" cx="288.3738" cy="-542.9836" rx="3.2" ry="3.2"/>
</g>
<!-- absence_reason_category -->
<g id="node7" class="node">
<title>absence_reason_category</title>
<g id="a_node7"><a xlink:href="../../tables/absence_reason_category.html" xlink:title="absence_reason_category" target="_top">
<polygon fill="#ffffff" stroke="transparent" points="23,-284.2 23,-345.2 235,-345.2 235,-284.2 23,-284.2"/>
<polygon fill="#f5f5f5" stroke="transparent" points="23,-321.7 23,-344.7 235,-344.7 235,-321.7 23,-321.7"/>
<polygon fill="none" stroke="#000000" points="23,-321.7 23,-344.7 235,-344.7 235,-321.7 23,-321.7"/>
<text text-anchor="start" x="28" y="-330.3" font-family="Helvetica,sans-Serif" font-weight="bold" font-size="11.00" fill="#000000">absence_reason_category</text>
<text text-anchor="start" x="200.5219" y="-329.8" font-family="Helvetica,sans-Serif" font-size="11.00" fill="#000000">[table]</text>
<polygon fill="none" stroke="#000000" points="23,-302.7 23,-321.7 235,-321.7 235,-302.7 23,-302.7"/>
<text text-anchor="start" x="26" y="-308.8" font-family="Helvetica,sans-Serif" font-size="11.00" fill="#000000">...</text>
<polygon fill="#ffffff" stroke="transparent" points="23,-283.7 23,-302.7 118,-302.7 118,-283.7 23,-283.7"/>
<polygon fill="none" stroke="#000000" points="23,-283.7 23,-302.7 118,-302.7 118,-283.7 23,-283.7"/>
<text text-anchor="start" x="26" y="-289.8" font-family="Helvetica,sans-Serif" font-size="11.00" fill="#000000"> &#160;</text>
<polygon fill="#ffffff" stroke="transparent" points="118,-283.7 118,-302.7 172,-302.7 172,-283.7 118,-283.7"/>
<polygon fill="none" stroke="#000000" points="118,-283.7 118,-302.7 172,-302.7 172,-283.7 118,-283.7"/>
<text text-anchor="start" x="162.8862" y="-289.8" font-family="Helvetica,sans-Serif" font-size="11.00" fill="#000000"> &#160;</text>
<polygon fill="#ffffff" stroke="transparent" points="172,-283.7 172,-302.7 235,-302.7 235,-283.7 172,-283.7"/>
<polygon fill="none" stroke="#000000" points="172,-283.7 172,-302.7 235,-302.7 235,-283.7 172,-283.7"/>
<text text-anchor="start" x="216.4053" y="-289.8" font-family="Helvetica,sans-Serif" font-size="11.00" fill="#000000">2 &gt;</text>
</a>
</g>
</g>
<!-- occurrence&#45;&gt;absence_reason_category -->
<g id="edge6" class="edge">
<title>occurrence:w&#45;&gt;absence_reason_category:e</title>
<path fill="none" stroke="#000000" d="M285.3663,-428.7337C248.5333,-410.2547 289.8728,-311.7 235,-311.7"/>
<polygon fill="#000000" stroke="#000000" points="291.6706,-430.0568 298.7605,-435.2232 295.5853,-430.8784 299.5,-431.7 299.5,-431.7 299.5,-431.7 295.5853,-430.8784 300.2395,-428.1768 291.6706,-430.0568 291.6706,-430.0568"/>
<ellipse fill="none" stroke="#000000" cx="288.5388" cy="-429.3995" rx="3.2" ry="3.2"/>
</g>
<!-- absence_sub_type -->
<g id="node8" class="node">
<title>absence_sub_type</title>
<g id="a_node8"><a xlink:href="../../tables/absence_sub_type.html" xlink:title="absence_sub_type" target="_top">
<polygon fill="#ffffff" stroke="transparent" points="48.5,-366.2 48.5,-427.2 209.5,-427.2 209.5,-366.2 48.5,-366.2"/>
<polygon fill="#f5f5f5" stroke="transparent" points="49,-403.7 49,-426.7 210,-426.7 210,-403.7 49,-403.7"/>
<polygon fill="none" stroke="#000000" points="49,-403.7 49,-426.7 210,-426.7 210,-403.7 49,-403.7"/>
<text text-anchor="start" x="54" y="-412.3" font-family="Helvetica,sans-Serif" font-weight="bold" font-size="11.00" fill="#000000">absence_sub_type</text>
<text text-anchor="start" x="175.5219" y="-411.8" font-family="Helvetica,sans-Serif" font-size="11.00" fill="#000000">[table]</text>
<polygon fill="none" stroke="#000000" points="49,-384.7 49,-403.7 210,-403.7 210,-384.7 49,-384.7"/>
<text text-anchor="start" x="52" y="-390.8" font-family="Helvetica,sans-Serif" font-size="11.00" fill="#000000">...</text>
<polygon fill="#ffffff" stroke="transparent" points="49,-365.7 49,-384.7 119,-384.7 119,-365.7 49,-365.7"/>
<polygon fill="none" stroke="#000000" points="49,-365.7 49,-384.7 119,-384.7 119,-365.7 49,-365.7"/>
<text text-anchor="start" x="52" y="-371.8" font-family="Helvetica,sans-Serif" font-size="11.00" fill="#000000"> &#160;</text>
<polygon fill="#ffffff" stroke="transparent" points="119,-365.7 119,-384.7 160,-384.7 160,-365.7 119,-365.7"/>
<polygon fill="none" stroke="#000000" points="119,-365.7 119,-384.7 160,-384.7 160,-365.7 119,-365.7"/>
<text text-anchor="start" x="150.8862" y="-371.8" font-family="Helvetica,sans-Serif" font-size="11.00" fill="#000000"> &#160;</text>
<polygon fill="#ffffff" stroke="transparent" points="160,-365.7 160,-384.7 210,-384.7 210,-365.7 160,-365.7"/>
<polygon fill="none" stroke="#000000" points="160,-365.7 160,-384.7 210,-384.7 210,-365.7 160,-365.7"/>
<text text-anchor="start" x="191.4053" y="-371.8" font-family="Helvetica,sans-Serif" font-size="11.00" fill="#000000">2 &gt;</text>
</a>
</g>
</g>
<!-- occurrence&#45;&gt;absence_sub_type -->
<g id="edge8" class="edge">
<title>occurrence:w&#45;&gt;absence_sub_type:e</title>
<path fill="none" stroke="#000000" d="M285.153,-451.5646C252.3381,-440.8762 252.4643,-393.7 210,-393.7"/>
<polygon fill="#000000" stroke="#000000" points="291.5872,-452.5222 298.97,-457.2608 295.5436,-453.1111 299.5,-453.7 299.5,-453.7 299.5,-453.7 295.5436,-453.1111 300.03,-450.1392 291.5872,-452.5222 291.5872,-452.5222"/>
<ellipse fill="none" stroke="#000000" cx="288.422" cy="-452.0511" rx="3.2" ry="3.2"/>
</g>
<!-- absence_type -->
<g id="node9" class="node">
<title>absence_type</title>
<g id="a_node9"><a xlink:href="../../tables/absence_type.html" xlink:title="absence_type" target="_top">
<polygon fill="#ffffff" stroke="transparent" points="63.5,-448.2 63.5,-509.2 194.5,-509.2 194.5,-448.2 63.5,-448.2"/>
<polygon fill="#f5f5f5" stroke="transparent" points="64,-485.7 64,-508.7 195,-508.7 195,-485.7 64,-485.7"/>
<polygon fill="none" stroke="#000000" points="64,-485.7 64,-508.7 195,-508.7 195,-485.7 64,-485.7"/>
<text text-anchor="start" x="69" y="-494.3" font-family="Helvetica,sans-Serif" font-weight="bold" font-size="11.00" fill="#000000">absence_type</text>
<text text-anchor="start" x="160.5219" y="-493.8" font-family="Helvetica,sans-Serif" font-size="11.00" fill="#000000">[table]</text>
<polygon fill="none" stroke="#000000" points="64,-466.7 64,-485.7 195,-485.7 195,-466.7 64,-466.7"/>
<text text-anchor="start" x="67" y="-472.8" font-family="Helvetica,sans-Serif" font-size="11.00" fill="#000000">...</text>
<polygon fill="#ffffff" stroke="transparent" points="64,-447.7 64,-466.7 119,-466.7 119,-447.7 64,-447.7"/>
<polygon fill="none" stroke="#000000" points="64,-447.7 64,-466.7 119,-466.7 119,-447.7 64,-447.7"/>
<text text-anchor="start" x="67" y="-453.8" font-family="Helvetica,sans-Serif" font-size="11.00" fill="#000000"> &#160;</text>
<polygon fill="#ffffff" stroke="transparent" points="119,-447.7 119,-466.7 152,-466.7 152,-447.7 119,-447.7"/>
<polygon fill="none" stroke="#000000" points="119,-447.7 119,-466.7 152,-466.7 152,-447.7 119,-447.7"/>
<text text-anchor="start" x="142.8862" y="-453.8" font-family="Helvetica,sans-Serif" font-size="11.00" fill="#000000"> &#160;</text>
<polygon fill="#ffffff" stroke="transparent" points="152,-447.7 152,-466.7 195,-466.7 195,-447.7 152,-447.7"/>
<polygon fill="none" stroke="#000000" points="152,-447.7 152,-466.7 195,-466.7 195,-447.7 152,-447.7"/>
<text text-anchor="start" x="176.4053" y="-453.8" font-family="Helvetica,sans-Serif" font-size="11.00" fill="#000000">2 &gt;</text>
</a>
</g>
</g>
<!-- occurrence&#45;&gt;absence_type -->
<g id="edge9" class="edge">
<title>occurrence:w&#45;&gt;absence_type:e</title>
<path fill="none" stroke="#000000" d="M284.9559,-475.7C249.9779,-475.7 236.1832,-475.7 195,-475.7"/>
<polygon fill="#000000" stroke="#000000" points="291.5,-475.7001 299.5,-479.3 295.5,-475.7 299.5,-475.7 299.5,-475.7 299.5,-475.7 295.5,-475.7 299.5,-472.1 291.5,-475.7001 291.5,-475.7001"/>
<ellipse fill="none" stroke="#000000" cx="288.3" cy="-475.7001" rx="3.2" ry="3.2"/>
</g>
<!-- occurrence_status -->
<g id="node10" class="node">
<title>occurrence_status</title>
<g id="a_node10"><a xlink:href="../../tables/occurrence_status.html" xlink:title="occurrence_status" target="_top">
<polygon fill="#ffffff" stroke="transparent" points="8,-530.7 8,-686.7 250,-686.7 250,-530.7 8,-530.7"/>
<polygon fill="#f5f5f5" stroke="transparent" points="10,-661.7 10,-684.7 248,-684.7 248,-661.7 10,-661.7"/>
<polygon fill="none" stroke="#000000" points="10,-661.7 10,-684.7 248,-684.7 248,-661.7 10,-661.7"/>
<text text-anchor="start" x="15" y="-670.3" font-family="Helvetica,sans-Serif" font-weight="bold" font-size="11.00" fill="#000000">occurrence_status</text>
<text text-anchor="start" x="213.0437" y="-669.8" font-family="Helvetica,sans-Serif" font-size="11.00" fill="#000000">[table]</text>
<polygon fill="none" stroke="#000000" points="10,-639.7 10,-661.7 154,-661.7 154,-639.7 10,-639.7"/>
<image xlink:href="../../images/primaryKeys.png" width="11px" height="12px" preserveAspectRatio="xMinYMin meet" x="15" y="-656.7"/>
<text text-anchor="start" x="30" y="-646.8" font-family="Helvetica,sans-Serif" font-size="11.00" fill="#000000">id</text>
<polygon fill="none" stroke="#000000" points="154,-639.7 154,-661.7 248,-661.7 248,-639.7 154,-639.7"/>
<text text-anchor="start" x="156.9758" y="-647.4" font-family="Helvetica,sans-Serif" font-size="11.00" fill="#000000">uuid[2147483647]</text>
<polygon fill="#ffffff" stroke="transparent" points="10,-617.7 10,-639.7 154,-639.7 154,-617.7 10,-617.7"/>
<polygon fill="none" stroke="#000000" points="10,-617.7 10,-639.7 154,-639.7 154,-617.7 10,-617.7"/>
<text text-anchor="start" x="30" y="-624.8" font-family="Helvetica,sans-Serif" font-size="11.00" fill="#000000">code</text>
<polygon fill="none" stroke="#000000" points="154,-617.7 154,-639.7 248,-639.7 248,-617.7 154,-617.7"/>
<text text-anchor="start" x="157" y="-625.4" font-family="Helvetica,sans-Serif" font-size="11.00" fill="#000000">varchar[16]</text>
<polygon fill="none" stroke="#000000" points="10,-595.7 10,-617.7 154,-617.7 154,-595.7 10,-595.7"/>
<text text-anchor="start" x="30" y="-602.8" font-family="Helvetica,sans-Serif" font-size="11.00" fill="#000000">description</text>
<polygon fill="none" stroke="#000000" points="154,-595.7 154,-617.7 248,-617.7 248,-595.7 154,-595.7"/>
<text text-anchor="start" x="157" y="-603.4" font-family="Helvetica,sans-Serif" font-size="11.00" fill="#000000">varchar[255]</text>
<polygon fill="#ffffff" stroke="transparent" points="10,-573.7 10,-595.7 154,-595.7 154,-573.7 10,-573.7"/>
<polygon fill="none" stroke="#000000" points="10,-573.7 10,-595.7 154,-595.7 154,-573.7 10,-573.7"/>
<text text-anchor="start" x="30" y="-580.8" font-family="Helvetica,sans-Serif" font-size="11.00" fill="#000000">sequence_number</text>
<polygon fill="none" stroke="#000000" points="154,-573.7 154,-595.7 248,-595.7 248,-573.7 154,-573.7"/>
<text text-anchor="start" x="157" y="-581.4" font-family="Helvetica,sans-Serif" font-size="11.00" fill="#000000">int4[10]</text>
<polygon fill="none" stroke="#000000" points="10,-551.7 10,-573.7 154,-573.7 154,-551.7 10,-551.7"/>
<text text-anchor="start" x="30" y="-558.8" font-family="Helvetica,sans-Serif" font-size="11.00" fill="#000000">active</text>
<polygon fill="none" stroke="#000000" points="154,-551.7 154,-573.7 248,-573.7 248,-551.7 154,-551.7"/>
<text text-anchor="start" x="157" y="-559.4" font-family="Helvetica,sans-Serif" font-size="11.00" fill="#000000">bool[1]</text>
<polygon fill="#ffffff" stroke="transparent" points="10,-532.7 10,-551.7 86,-551.7 86,-532.7 10,-532.7"/>
<polygon fill="none" stroke="#000000" points="10,-532.7 10,-551.7 86,-551.7 86,-532.7 10,-532.7"/>
<text text-anchor="start" x="13" y="-538.8" font-family="Helvetica,sans-Serif" font-size="11.00" fill="#000000">&lt; 0</text>
<polygon fill="#ffffff" stroke="transparent" points="86,-532.7 86,-551.7 154,-551.7 154,-532.7 86,-532.7"/>
<polygon fill="none" stroke="#000000" points="86,-532.7 86,-551.7 154,-551.7 154,-532.7 86,-532.7"/>
<text text-anchor="start" x="144.8862" y="-538.8" font-family="Helvetica,sans-Serif" font-size="11.00" fill="#000000"> &#160;</text>
<polygon fill="#ffffff" stroke="transparent" points="154,-532.7 154,-551.7 248,-551.7 248,-532.7 154,-532.7"/>
<polygon fill="none" stroke="#000000" points="154,-532.7 154,-551.7 248,-551.7 248,-532.7 154,-532.7"/>
<text text-anchor="start" x="229.4053" y="-538.8" font-family="Helvetica,sans-Serif" font-size="11.00" fill="#000000">1 &gt;</text>
<polygon fill="none" stroke="#000000" stroke-width="2" points="9,-531.7 9,-685.7 249,-685.7 249,-531.7 9,-531.7"/>
</a>
</g>
</g>
<!-- occurrence&#45;&gt;occurrence_status -->
<g id="edge13" class="edge">
<title>occurrence:w&#45;&gt;occurrence_status:e</title>
<path fill="none" stroke="#000000" d="M285.2454,-500.4862C241.4351,-521.2228 314.0034,-650.7 248,-650.7"/>
<polygon fill="#000000" stroke="#000000" points="291.6486,-499.2347 300.1906,-501.2331 295.5743,-498.4673 299.5,-497.7 299.5,-497.7 299.5,-497.7 295.5743,-498.4673 298.8094,-494.1669 291.6486,-499.2347 291.6486,-499.2347"/>
<ellipse fill="none" stroke="#000000" cx="288.508" cy="-499.8486" rx="3.2" ry="3.2"/>
</g>
<!-- transport -->
<g id="node11" class="node">
<title>transport</title>
<g id="a_node11"><a xlink:href="../../tables/transport.html" xlink:title="transport" target="_top">
<polygon fill="#ffffff" stroke="transparent" points="78,-38.2 78,-99.2 180,-99.2 180,-38.2 78,-38.2"/>
<polygon fill="#f5f5f5" stroke="transparent" points="78,-75.7 78,-98.7 180,-98.7 180,-75.7 78,-75.7"/>
<polygon fill="none" stroke="#000000" points="78,-75.7 78,-98.7 180,-98.7 180,-75.7 78,-75.7"/>
<text text-anchor="start" x="83" y="-84.3" font-family="Helvetica,sans-Serif" font-weight="bold" font-size="11.00" fill="#000000">transport</text>
<text text-anchor="start" x="145.5219" y="-83.8" font-family="Helvetica,sans-Serif" font-size="11.00" fill="#000000">[table]</text>
<polygon fill="none" stroke="#000000" points="78,-56.7 78,-75.7 180,-75.7 180,-56.7 78,-56.7"/>
<text text-anchor="start" x="81" y="-62.8" font-family="Helvetica,sans-Serif" font-size="11.00" fill="#000000">...</text>
<polygon fill="#ffffff" stroke="transparent" points="78,-37.7 78,-56.7 118,-56.7 118,-37.7 78,-37.7"/>
<polygon fill="none" stroke="#000000" points="78,-37.7 78,-56.7 118,-56.7 118,-37.7 78,-37.7"/>
<text text-anchor="start" x="81" y="-43.8" font-family="Helvetica,sans-Serif" font-size="11.00" fill="#000000"> &#160;</text>
<polygon fill="#ffffff" stroke="transparent" points="118,-37.7 118,-56.7 144,-56.7 144,-37.7 118,-37.7"/>
<polygon fill="none" stroke="#000000" points="118,-37.7 118,-56.7 144,-56.7 144,-37.7 118,-37.7"/>
<text text-anchor="start" x="134.8862" y="-43.8" font-family="Helvetica,sans-Serif" font-size="11.00" fill="#000000"> &#160;</text>
<polygon fill="#ffffff" stroke="transparent" points="144,-37.7 144,-56.7 180,-56.7 180,-37.7 144,-37.7"/>
<polygon fill="none" stroke="#000000" points="144,-37.7 144,-56.7 180,-56.7 180,-37.7 144,-37.7"/>
<text text-anchor="start" x="161.4053" y="-43.8" font-family="Helvetica,sans-Serif" font-size="11.00" fill="#000000">2 &gt;</text>
</a>
</g>
</g>
<!-- occurrence&#45;&gt;transport -->
<g id="edge14" class="edge">
<title>occurrence:w&#45;&gt;transport:e</title>
<path fill="none" stroke="#000000" d="M285.9497,-360.5015C250.3529,-327.9826 287.8751,-152.5404 258,-109.7 235.233,-77.0525 219.802,-65.7 180,-65.7"/>
<polygon fill="#000000" stroke="#000000" points="292.0308,-362.8344 298.2105,-369.0611 295.7654,-364.2672 299.5,-365.7 299.5,-365.7 299.5,-365.7 295.7654,-364.2672 300.7895,-362.3389 292.0308,-362.8344 292.0308,-362.8344"/>
<ellipse fill="none" stroke="#000000" cx="289.0431" cy="-361.6882" rx="3.2" ry="3.2"/>
</g>
</g>
</svg>
