<?xml version="1.0" encoding="UTF-8" standalone="no"?>
<!DOCTYPE svg PUBLIC "-//W3C//DTD SVG 1.1//EN"
 "http://www.w3.org/Graphics/SVG/1.1/DTD/svg11.dtd">
<!-- Generated by graphviz version 2.40.1 (20161225.0304)
 -->
<!-- Title: twoDegreesRelationshipsDiagramImplied Pages: 1 -->
<svg width="727pt" height="1209pt"
 viewBox="0.00 0.00 727.00 1208.70" xmlns="http://www.w3.org/2000/svg" xmlns:xlink="http://www.w3.org/1999/xlink">
<g id="graph0" class="graph" transform="scale(1 1) rotate(0) translate(4 1204.7)">
<title>twoDegreesRelationshipsDiagramImplied</title>
<polygon fill="#ffffff" stroke="transparent" points="-4,4 -4,-1204.7 723,-1204.7 723,4 -4,4"/>
<text text-anchor="middle" x="72.4936" y="-7.3" font-family="Helvetica,sans-Serif" font-size="11.00" fill="#000000">Generated by SchemaSpy</text>
<!-- audited_authorisation -->
<g id="node1" class="node">
<title>audited_authorisation</title>
<g id="a_node1"><a xlink:href="../../tables/audited_authorisation.html" xlink:title="audited_authorisation" target="_top">
<polygon fill="#ffffff" stroke="transparent" points="301,-1154.7 301,-1196.7 487,-1196.7 487,-1154.7 301,-1154.7"/>
<polygon fill="#f5f5f5" stroke="transparent" points="301,-1173.7 301,-1196.7 487,-1196.7 487,-1173.7 301,-1173.7"/>
<polygon fill="none" stroke="#000000" points="301,-1173.7 301,-1196.7 487,-1196.7 487,-1173.7 301,-1173.7"/>
<text text-anchor="start" x="306" y="-1182.3" font-family="Helvetica,sans-Serif" font-weight="bold" font-size="11.00" fill="#000000">audited_authorisation</text>
<text text-anchor="start" x="453.9448" y="-1181.8" font-family="Helvetica,sans-Serif" font-size="11.00" fill="#000000">[view]</text>
<polygon fill="none" stroke="#000000" points="301,-1154.7 301,-1173.7 487,-1173.7 487,-1154.7 301,-1154.7"/>
<text text-anchor="start" x="304" y="-1160.8" font-family="Helvetica,sans-Serif" font-size="11.00" fill="#000000">...</text>
</a>
</g>
</g>
<!-- prison_tap_locations -->
<g id="node2" class="node">
<title>prison_tap_locations</title>
<g id="a_node2"><a xlink:href="../../tables/prison_tap_locations.html" xlink:title="prison_tap_locations" target="_top">
<polygon fill="#ffffff" stroke="transparent" points="9,-873.2 9,-956.2 186,-956.2 186,-873.2 9,-873.2"/>
<polygon fill="#f5f5f5" stroke="transparent" points="9.5,-932.7 9.5,-955.7 186.5,-955.7 186.5,-932.7 9.5,-932.7"/>
<polygon fill="none" stroke="#000000" points="9.5,-932.7 9.5,-955.7 186.5,-955.7 186.5,-932.7 9.5,-932.7"/>
<text text-anchor="start" x="14.5" y="-941.3" font-family="Helvetica,sans-Serif" font-weight="bold" font-size="11.00" fill="#000000">prison_tap_locations</text>
<text text-anchor="start" x="152.0219" y="-940.8" font-family="Helvetica,sans-Serif" font-size="11.00" fill="#000000">[table]</text>
<polygon fill="none" stroke="#000000" points="9.5,-910.7 9.5,-932.7 186.5,-932.7 186.5,-910.7 9.5,-910.7"/>
<image xlink:href="../../images/primaryKeys.png" width="11px" height="12px" preserveAspectRatio="xMinYMin meet" x="14.5" y="-927.7"/>
<text text-anchor="start" x="38.5" y="-917.8" font-family="Helvetica,sans-Serif" font-size="11.00" fill="#000000">prison_code</text>
<polygon fill="none" stroke="#000000" points="9.5,-891.7 9.5,-910.7 186.5,-910.7 186.5,-891.7 9.5,-891.7"/>
<text text-anchor="start" x="12.5" y="-897.8" font-family="Helvetica,sans-Serif" font-size="11.00" fill="#000000">...</text>
<polygon fill="#ffffff" stroke="transparent" points="9.5,-872.7 9.5,-891.7 87.5,-891.7 87.5,-872.7 9.5,-872.7"/>
<polygon fill="none" stroke="#000000" points="9.5,-872.7 9.5,-891.7 87.5,-891.7 87.5,-872.7 9.5,-872.7"/>
<text text-anchor="start" x="12.5" y="-878.8" font-family="Helvetica,sans-Serif" font-size="11.00" fill="#000000"> &#160;</text>
<polygon fill="#ffffff" stroke="transparent" points="87.5,-872.7 87.5,-891.7 132.5,-891.7 132.5,-872.7 87.5,-872.7"/>
<polygon fill="none" stroke="#000000" points="87.5,-872.7 87.5,-891.7 132.5,-891.7 132.5,-872.7 87.5,-872.7"/>
<text text-anchor="start" x="123.3862" y="-878.8" font-family="Helvetica,sans-Serif" font-size="11.00" fill="#000000"> &#160;</text>
<polygon fill="#ffffff" stroke="transparent" points="132.5,-872.7 132.5,-891.7 186.5,-891.7 186.5,-872.7 132.5,-872.7"/>
<polygon fill="none" stroke="#000000" points="132.5,-872.7 132.5,-891.7 186.5,-891.7 186.5,-872.7 132.5,-872.7"/>
<text text-anchor="start" x="167.9053" y="-878.8" font-family="Helvetica,sans-Serif" font-size="11.00" fill="#000000">9 &gt;</text>
</a>
</g>
</g>
<!-- audited_authorisation&#45;&gt;prison_tap_locations -->
<g id="edge1" class="edge">
<title>audited_authorisation:w&#45;&gt;prison_tap_locations:e</title>
<path fill="none" stroke="#000000" stroke-dasharray="5,2" d="M286.3923,-1163.9172C262.0286,-1164.4639 247.2245,-1164.582 228,-1143.7 160.0148,-1069.8534 286.8758,-921.7 186.5,-921.7"/>
<polygon fill="#000000" stroke="#000000" points="293.0009,-1163.819 301.0535,-1167.2996 297.0004,-1163.7595 301,-1163.7 301,-1163.7 301,-1163.7 297.0004,-1163.7595 300.9465,-1160.1004 293.0009,-1163.819 293.0009,-1163.819"/>
<ellipse fill="none" stroke="#000000" cx="289.8012" cy="-1163.8666" rx="3.2" ry="3.2"/>
</g>
<!-- audited_movement -->
<g id="node3" class="node">
<title>audited_movement</title>
<g id="a_node3"><a xlink:href="../../tables/audited_movement.html" xlink:title="audited_movement" target="_top">
<polygon fill="#ffffff" stroke="transparent" points="310.5,-1091.7 310.5,-1133.7 477.5,-1133.7 477.5,-1091.7 310.5,-1091.7"/>
<polygon fill="#f5f5f5" stroke="transparent" points="311,-1110.7 311,-1133.7 478,-1133.7 478,-1110.7 311,-1110.7"/>
<polygon fill="none" stroke="#000000" points="311,-1110.7 311,-1133.7 478,-1133.7 478,-1110.7 311,-1110.7"/>
<text text-anchor="start" x="316" y="-1119.3" font-family="Helvetica,sans-Serif" font-weight="bold" font-size="11.00" fill="#000000">audited_movement</text>
<text text-anchor="start" x="444.9448" y="-1118.8" font-family="Helvetica,sans-Serif" font-size="11.00" fill="#000000">[view]</text>
<polygon fill="none" stroke="#000000" points="311,-1091.7 311,-1110.7 478,-1110.7 478,-1091.7 311,-1091.7"/>
<text text-anchor="start" x="314" y="-1097.8" font-family="Helvetica,sans-Serif" font-size="11.00" fill="#000000">...</text>
</a>
</g>
</g>
<!-- audited_movement&#45;&gt;prison_tap_locations -->
<g id="edge2" class="edge">
<title>audited_movement:w&#45;&gt;prison_tap_locations:e</title>
<path fill="none" stroke="#000000" stroke-dasharray="5,2" d="M296.4824,-1100.9673C267.9706,-1101.8786 251.38,-1103.6433 228,-1080.7 175.8726,-1029.5462 259.5341,-921.7 186.5,-921.7"/>
<polygon fill="#000000" stroke="#000000" points="303.0014,-1100.8473 311.0663,-1104.2994 307.0007,-1100.7737 311,-1100.7 311,-1100.7 311,-1100.7 307.0007,-1100.7737 310.9337,-1097.1006 303.0014,-1100.8473 303.0014,-1100.8473"/>
<ellipse fill="none" stroke="#000000" cx="299.8019" cy="-1100.9062" rx="3.2" ry="3.2"/>
</g>
<!-- audited_occurrence -->
<g id="node4" class="node">
<title>audited_occurrence</title>
<g id="a_node4"><a xlink:href="../../tables/audited_occurrence.html" xlink:title="audited_occurrence" target="_top">
<polygon fill="#ffffff" stroke="transparent" points="309,-1028.7 309,-1070.7 479,-1070.7 479,-1028.7 309,-1028.7"/>
<polygon fill="#f5f5f5" stroke="transparent" points="309,-1047.7 309,-1070.7 479,-1070.7 479,-1047.7 309,-1047.7"/>
<polygon fill="none" stroke="#000000" points="309,-1047.7 309,-1070.7 479,-1070.7 479,-1047.7 309,-1047.7"/>
<text text-anchor="start" x="314" y="-1056.3" font-family="Helvetica,sans-Serif" font-weight="bold" font-size="11.00" fill="#000000">audited_occurrence</text>
<text text-anchor="start" x="445.9448" y="-1055.8" font-family="Helvetica,sans-Serif" font-size="11.00" fill="#000000">[view]</text>
<polygon fill="none" stroke="#000000" points="309,-1028.7 309,-1047.7 479,-1047.7 479,-1028.7 309,-1028.7"/>
<text text-anchor="start" x="312" y="-1034.8" font-family="Helvetica,sans-Serif" font-size="11.00" fill="#000000">...</text>
</a>
</g>
</g>
<!-- audited_occurrence&#45;&gt;prison_tap_locations -->
<g id="edge3" class="edge">
<title>audited_occurrence:w&#45;&gt;prison_tap_locations:e</title>
<path fill="none" stroke="#000000" stroke-dasharray="5,2" d="M294.5349,-1037.8461C267.2761,-1038.2609 252.3232,-1038.2879 228,-1017.7 192.5206,-987.6691 232.9827,-921.7 186.5,-921.7"/>
<polygon fill="#000000" stroke="#000000" points="301.0004,-1037.7809 309.0364,-1041.2998 305.0002,-1037.7404 309,-1037.7 309,-1037.7 309,-1037.7 305.0002,-1037.7404 308.9636,-1034.1002 301.0004,-1037.7809 301.0004,-1037.7809"/>
<ellipse fill="none" stroke="#000000" cx="297.8006" cy="-1037.8132" rx="3.2" ry="3.2"/>
</g>
<!-- authorisation -->
<g id="node5" class="node">
<title>authorisation</title>
<g id="a_node5"><a xlink:href="../../tables/authorisation.html" xlink:title="authorisation" target="_top">
<polygon fill="#ffffff" stroke="transparent" points="329,-946.2 329,-1007.2 459,-1007.2 459,-946.2 329,-946.2"/>
<polygon fill="#f5f5f5" stroke="transparent" points="329,-983.7 329,-1006.7 459,-1006.7 459,-983.7 329,-983.7"/>
<polygon fill="none" stroke="#000000" points="329,-983.7 329,-1006.7 459,-1006.7 459,-983.7 329,-983.7"/>
<text text-anchor="start" x="334" y="-992.3" font-family="Helvetica,sans-Serif" font-weight="bold" font-size="11.00" fill="#000000">authorisation</text>
<text text-anchor="start" x="424.5219" y="-991.8" font-family="Helvetica,sans-Serif" font-size="11.00" fill="#000000">[table]</text>
<polygon fill="none" stroke="#000000" points="329,-964.7 329,-983.7 459,-983.7 459,-964.7 329,-964.7"/>
<text text-anchor="start" x="332" y="-970.8" font-family="Helvetica,sans-Serif" font-size="11.00" fill="#000000">...</text>
<polygon fill="#ffffff" stroke="transparent" points="329,-945.7 329,-964.7 392,-964.7 392,-945.7 329,-945.7"/>
<polygon fill="none" stroke="#000000" points="329,-945.7 329,-964.7 392,-964.7 392,-945.7 329,-945.7"/>
<text text-anchor="start" x="332" y="-951.8" font-family="Helvetica,sans-Serif" font-size="11.00" fill="#000000">&lt; 9</text>
<polygon fill="#ffffff" stroke="transparent" points="392,-945.7 392,-964.7 425,-964.7 425,-945.7 392,-945.7"/>
<polygon fill="none" stroke="#000000" points="392,-945.7 392,-964.7 425,-964.7 425,-945.7 392,-945.7"/>
<text text-anchor="start" x="415.8862" y="-951.8" font-family="Helvetica,sans-Serif" font-size="11.00" fill="#000000"> &#160;</text>
<polygon fill="#ffffff" stroke="transparent" points="425,-945.7 425,-964.7 459,-964.7 459,-945.7 425,-945.7"/>
<polygon fill="none" stroke="#000000" points="425,-945.7 425,-964.7 459,-964.7 459,-945.7 425,-945.7"/>
<text text-anchor="start" x="449.8862" y="-951.8" font-family="Helvetica,sans-Serif" font-size="11.00" fill="#000000"> &#160;</text>
</a>
</g>
</g>
<!-- authorisation&#45;&gt;prison_tap_locations -->
<g id="edge4" class="edge">
<title>authorisation:w&#45;&gt;prison_tap_locations:e</title>
<path fill="none" stroke="#000000" stroke-dasharray="5,2" d="M314.5813,-971.4656C277.1669,-961.5125 215.9955,-921.7 186.5,-921.7"/>
<polygon fill="#000000" stroke="#000000" points="321.0944,-972.4749 328.4487,-977.2575 325.0472,-973.0874 329,-973.7 329,-973.7 329,-973.7 325.0472,-973.0874 329.5513,-970.1425 321.0944,-972.4749 321.0944,-972.4749"/>
<ellipse fill="none" stroke="#000000" cx="317.9321" cy="-971.9848" rx="3.2" ry="3.2"/>
</g>
<!-- authorisation_audit -->
<g id="node6" class="node">
<title>authorisation_audit</title>
<g id="a_node6"><a xlink:href="../../tables/authorisation_audit.html" xlink:title="authorisation_audit" target="_top">
<polygon fill="#ffffff" stroke="transparent" points="308.5,-754.2 308.5,-815.2 479.5,-815.2 479.5,-754.2 308.5,-754.2"/>
<polygon fill="#f5f5f5" stroke="transparent" points="309,-791.7 309,-814.7 480,-814.7 480,-791.7 309,-791.7"/>
<polygon fill="none" stroke="#000000" points="309,-791.7 309,-814.7 480,-814.7 480,-791.7 309,-791.7"/>
<text text-anchor="start" x="314" y="-800.3" font-family="Helvetica,sans-Serif" font-weight="bold" font-size="11.00" fill="#000000">authorisation_audit</text>
<text text-anchor="start" x="445.5219" y="-799.8" font-family="Helvetica,sans-Serif" font-size="11.00" fill="#000000">[table]</text>
<polygon fill="none" stroke="#000000" points="309,-772.7 309,-791.7 480,-791.7 480,-772.7 309,-772.7"/>
<text text-anchor="start" x="312" y="-778.8" font-family="Helvetica,sans-Serif" font-size="11.00" fill="#000000">...</text>
<polygon fill="#ffffff" stroke="transparent" points="309,-753.7 309,-772.7 393,-772.7 393,-753.7 309,-753.7"/>
<polygon fill="none" stroke="#000000" points="309,-753.7 309,-772.7 393,-772.7 393,-753.7 309,-753.7"/>
<text text-anchor="start" x="312" y="-759.8" font-family="Helvetica,sans-Serif" font-size="11.00" fill="#000000">&lt; 2</text>
<polygon fill="#ffffff" stroke="transparent" points="393,-753.7 393,-772.7 436,-772.7 436,-753.7 393,-753.7"/>
<polygon fill="none" stroke="#000000" points="393,-753.7 393,-772.7 436,-772.7 436,-753.7 393,-753.7"/>
<text text-anchor="start" x="426.8862" y="-759.8" font-family="Helvetica,sans-Serif" font-size="11.00" fill="#000000"> &#160;</text>
<polygon fill="#ffffff" stroke="transparent" points="436,-753.7 436,-772.7 480,-772.7 480,-753.7 436,-753.7"/>
<polygon fill="none" stroke="#000000" points="436,-753.7 436,-772.7 480,-772.7 480,-753.7 436,-753.7"/>
<text text-anchor="start" x="470.8862" y="-759.8" font-family="Helvetica,sans-Serif" font-size="11.00" fill="#000000"> &#160;</text>
</a>
</g>
</g>
<!-- authorisation_audit&#45;&gt;prison_tap_locations -->
<g id="edge5" class="edge">
<title>authorisation_audit:w&#45;&gt;prison_tap_locations:e</title>
<path fill="none" stroke="#000000" stroke-dasharray="5,2" d="M294.4875,-782.3919C264.5841,-785.522 252.0796,-799.3605 228,-825.7 196.6365,-860.007 232.9827,-921.7 186.5,-921.7"/>
<polygon fill="#000000" stroke="#000000" points="301.0091,-782.081 309.1715,-785.2959 305.0045,-781.8905 309,-781.7 309,-781.7 309,-781.7 305.0045,-781.8905 308.8285,-778.1041 301.0091,-782.081 301.0091,-782.081"/>
<ellipse fill="none" stroke="#000000" cx="297.8127" cy="-782.2334" rx="3.2" ry="3.2"/>
</g>
<!-- public.audit_revision -->
<g id="node7" class="node">
<title>public.audit_revision</title>
<g id="a_node7"><a xlink:href="../../../public/tables/audit_revision.html" xlink:title="public.audit_revision" target="_top">
<polygon fill="#ffffff" stroke="transparent" points="8,-627.2 8,-688.2 187,-688.2 187,-627.2 8,-627.2"/>
<polygon fill="#f5f5f5" stroke="transparent" points="8.5,-664.7 8.5,-687.7 187.5,-687.7 187.5,-664.7 8.5,-664.7"/>
<polygon fill="none" stroke="#000000" points="8.5,-664.7 8.5,-687.7 187.5,-687.7 187.5,-664.7 8.5,-664.7"/>
<text text-anchor="start" x="13.5" y="-673.3" font-family="Helvetica,sans-Serif" font-weight="bold" font-size="11.00" fill="#000000">public.audit_revision</text>
<text text-anchor="start" x="153.0219" y="-672.8" font-family="Helvetica,sans-Serif" font-size="11.00" fill="#000000">[table]</text>
<polygon fill="none" stroke="#000000" points="8.5,-645.7 8.5,-664.7 187.5,-664.7 187.5,-645.7 8.5,-645.7"/>
<text text-anchor="start" x="11.5" y="-651.8" font-family="Helvetica,sans-Serif" font-size="11.00" fill="#000000">...</text>
<polygon fill="#ffffff" stroke="transparent" points="8.5,-626.7 8.5,-645.7 74.5,-645.7 74.5,-626.7 8.5,-626.7"/>
<polygon fill="none" stroke="#000000" points="8.5,-626.7 8.5,-645.7 74.5,-645.7 74.5,-626.7 8.5,-626.7"/>
<text text-anchor="start" x="11.5" y="-632.8" font-family="Helvetica,sans-Serif" font-size="11.00" fill="#000000"> &#160;</text>
<polygon fill="#ffffff" stroke="transparent" points="74.5,-626.7 74.5,-645.7 139.5,-645.7 139.5,-626.7 74.5,-626.7"/>
<polygon fill="none" stroke="#000000" points="74.5,-626.7 74.5,-645.7 139.5,-645.7 139.5,-626.7 74.5,-626.7"/>
<text text-anchor="start" x="104.1105" y="-632.8" font-family="Helvetica,sans-Serif" font-size="11.00" fill="#000000">0 rows</text>
<polygon fill="#ffffff" stroke="transparent" points="139.5,-626.7 139.5,-645.7 187.5,-645.7 187.5,-626.7 139.5,-626.7"/>
<polygon fill="none" stroke="#000000" points="139.5,-626.7 139.5,-645.7 187.5,-645.7 187.5,-626.7 139.5,-626.7"/>
<text text-anchor="start" x="168.9053" y="-632.8" font-family="Helvetica,sans-Serif" font-size="11.00" fill="#000000">4 &gt;</text>
</a>
</g>
</g>
<!-- authorisation_audit&#45;&gt;public.audit_revision -->
<g id="edge6" class="edge">
<title>authorisation_audit:w&#45;&gt;public.audit_revision:e</title>
<path fill="none" stroke="#000000" d="M294.4695,-780.9822C228.711,-774.5607 166.91,-726.4234 130.6405,-692.2409"/>
<polygon fill="#000000" stroke="#000000" points="301.0097,-781.3053 308.8224,-785.2956 305.0049,-781.5026 309,-781.7 309,-781.7 309,-781.7 305.0049,-781.5026 309.1776,-778.1044 301.0097,-781.3053 301.0097,-781.3053"/>
<ellipse fill="none" stroke="#000000" cx="297.8136" cy="-781.1474" rx="3.2" ry="3.2"/>
</g>
<!-- movement -->
<g id="node8" class="node">
<title>movement</title>
<g id="a_node8"><a xlink:href="../../tables/movement.html" xlink:title="movement" target="_top">
<polygon fill="#ffffff" stroke="transparent" points="601,-865.2 601,-926.2 711,-926.2 711,-865.2 601,-865.2"/>
<polygon fill="#f5f5f5" stroke="transparent" points="601,-902.7 601,-925.7 711,-925.7 711,-902.7 601,-902.7"/>
<polygon fill="none" stroke="#000000" points="601,-902.7 601,-925.7 711,-925.7 711,-902.7 601,-902.7"/>
<text text-anchor="start" x="606" y="-911.3" font-family="Helvetica,sans-Serif" font-weight="bold" font-size="11.00" fill="#000000">movement</text>
<text text-anchor="start" x="676.5219" y="-910.8" font-family="Helvetica,sans-Serif" font-size="11.00" fill="#000000">[table]</text>
<polygon fill="none" stroke="#000000" points="601,-883.7 601,-902.7 711,-902.7 711,-883.7 601,-883.7"/>
<text text-anchor="start" x="604" y="-889.8" font-family="Helvetica,sans-Serif" font-size="11.00" fill="#000000">...</text>
<polygon fill="#ffffff" stroke="transparent" points="601,-864.7 601,-883.7 654,-883.7 654,-864.7 601,-864.7"/>
<polygon fill="none" stroke="#000000" points="601,-864.7 601,-883.7 654,-883.7 654,-864.7 601,-864.7"/>
<text text-anchor="start" x="604" y="-870.8" font-family="Helvetica,sans-Serif" font-size="11.00" fill="#000000">&lt; 5</text>
<polygon fill="#ffffff" stroke="transparent" points="654,-864.7 654,-883.7 682,-883.7 682,-864.7 654,-864.7"/>
<polygon fill="none" stroke="#000000" points="654,-864.7 654,-883.7 682,-883.7 682,-864.7 654,-864.7"/>
<text text-anchor="start" x="672.8862" y="-870.8" font-family="Helvetica,sans-Serif" font-size="11.00" fill="#000000"> &#160;</text>
<polygon fill="#ffffff" stroke="transparent" points="682,-864.7 682,-883.7 711,-883.7 711,-864.7 682,-864.7"/>
<polygon fill="none" stroke="#000000" points="682,-864.7 682,-883.7 711,-883.7 711,-864.7 682,-864.7"/>
<text text-anchor="start" x="701.8862" y="-870.8" font-family="Helvetica,sans-Serif" font-size="11.00" fill="#000000"> &#160;</text>
</a>
</g>
</g>
<!-- movement&#45;&gt;prison_tap_locations -->
<g id="edge8" class="edge">
<title>movement:w&#45;&gt;prison_tap_locations:e</title>
<path fill="none" stroke="#000000" stroke-dasharray="5,2" d="M586.7275,-895.4252C578.3886,-899.002 573.0894,-905.127 560,-907.7 397.0027,-939.7406 352.6166,-921.7 186.5,-921.7"/>
<polygon fill="#000000" stroke="#000000" points="593.142,-894.2005 601.6752,-896.2361 597.071,-893.4502 601,-892.7 601,-892.7 601,-892.7 597.071,-893.4502 600.3248,-889.1639 593.142,-894.2005 593.142,-894.2005"/>
<ellipse fill="none" stroke="#000000" cx="589.9987" cy="-894.8007" rx="3.2" ry="3.2"/>
</g>
<!-- occurrence -->
<g id="node9" class="node">
<title>occurrence</title>
<g id="a_node9"><a xlink:href="../../tables/occurrence.html" xlink:title="occurrence" target="_top">
<polygon fill="#ffffff" stroke="transparent" points="337.5,-836.2 337.5,-897.2 450.5,-897.2 450.5,-836.2 337.5,-836.2"/>
<polygon fill="#f5f5f5" stroke="transparent" points="338,-873.7 338,-896.7 451,-896.7 451,-873.7 338,-873.7"/>
<polygon fill="none" stroke="#000000" points="338,-873.7 338,-896.7 451,-896.7 451,-873.7 338,-873.7"/>
<text text-anchor="start" x="343" y="-882.3" font-family="Helvetica,sans-Serif" font-weight="bold" font-size="11.00" fill="#000000">occurrence</text>
<text text-anchor="start" x="416.5219" y="-881.8" font-family="Helvetica,sans-Serif" font-size="11.00" fill="#000000">[table]</text>
<polygon fill="none" stroke="#000000" points="338,-854.7 338,-873.7 451,-873.7 451,-854.7 338,-854.7"/>
<text text-anchor="start" x="341" y="-860.8" font-family="Helvetica,sans-Serif" font-size="11.00" fill="#000000">...</text>
<polygon fill="#ffffff" stroke="transparent" points="338,-835.7 338,-854.7 388,-854.7 388,-835.7 338,-835.7"/>
<polygon fill="none" stroke="#000000" points="338,-835.7 338,-854.7 388,-854.7 388,-835.7 338,-835.7"/>
<text text-anchor="start" x="341" y="-841.8" font-family="Helvetica,sans-Serif" font-size="11.00" fill="#000000">&lt; 9</text>
<polygon fill="#ffffff" stroke="transparent" points="388,-835.7 388,-854.7 415,-854.7 415,-835.7 388,-835.7"/>
<polygon fill="none" stroke="#000000" points="388,-835.7 388,-854.7 415,-854.7 415,-835.7 388,-835.7"/>
<text text-anchor="start" x="405.8862" y="-841.8" font-family="Helvetica,sans-Serif" font-size="11.00" fill="#000000"> &#160;</text>
<polygon fill="#ffffff" stroke="transparent" points="415,-835.7 415,-854.7 451,-854.7 451,-835.7 415,-835.7"/>
<polygon fill="none" stroke="#000000" points="415,-835.7 415,-854.7 451,-854.7 451,-835.7 415,-835.7"/>
<text text-anchor="start" x="432.4053" y="-841.8" font-family="Helvetica,sans-Serif" font-size="11.00" fill="#000000">1 &gt;</text>
</a>
</g>
</g>
<!-- movement&#45;&gt;occurrence -->
<g id="edge7" class="edge">
<title>movement:w&#45;&gt;occurrence:e</title>
<path fill="none" stroke="#000000" d="M586.3708,-892.2208C530.6243,-888.4503 513.729,-863.7 451,-863.7"/>
<polygon fill="#000000" stroke="#000000" points="593.0043,-892.4381 600.8821,-896.2981 597.0021,-892.569 601,-892.7 601,-892.7 601,-892.7 597.0021,-892.569 601.1179,-889.1019 593.0043,-892.4381 593.0043,-892.4381"/>
<ellipse fill="none" stroke="#000000" cx="589.806" cy="-892.3333" rx="3.2" ry="3.2"/>
</g>
<!-- occurrence&#45;&gt;prison_tap_locations -->
<g id="edge11" class="edge">
<title>occurrence:w&#45;&gt;prison_tap_locations:e</title>
<path fill="none" stroke="#000000" stroke-dasharray="5,2" d="M323.6798,-865.9028C283.9362,-876.4972 218.325,-921.7 186.5,-921.7"/>
<polygon fill="#000000" stroke="#000000" points="330.093,-864.9164 338.5474,-867.2581 334.0465,-864.3082 338,-863.7 338,-863.7 338,-863.7 334.0465,-864.3082 337.4526,-860.1419 330.093,-864.9164 330.093,-864.9164"/>
<ellipse fill="none" stroke="#000000" cx="326.9302" cy="-865.4029" rx="3.2" ry="3.2"/>
</g>
<!-- movement_audit -->
<g id="node10" class="node">
<title>movement_audit</title>
<g id="a_node10"><a xlink:href="../../tables/movement_audit.html" xlink:title="movement_audit" target="_top">
<polygon fill="#ffffff" stroke="transparent" points="318.5,-672.2 318.5,-733.2 469.5,-733.2 469.5,-672.2 318.5,-672.2"/>
<polygon fill="#f5f5f5" stroke="transparent" points="319,-709.7 319,-732.7 470,-732.7 470,-709.7 319,-709.7"/>
<polygon fill="none" stroke="#000000" points="319,-709.7 319,-732.7 470,-732.7 470,-709.7 319,-709.7"/>
<text text-anchor="start" x="324" y="-718.3" font-family="Helvetica,sans-Serif" font-weight="bold" font-size="11.00" fill="#000000">movement_audit</text>
<text text-anchor="start" x="435.5219" y="-717.8" font-family="Helvetica,sans-Serif" font-size="11.00" fill="#000000">[table]</text>
<polygon fill="none" stroke="#000000" points="319,-690.7 319,-709.7 470,-709.7 470,-690.7 319,-690.7"/>
<text text-anchor="start" x="322" y="-696.8" font-family="Helvetica,sans-Serif" font-size="11.00" fill="#000000">...</text>
<polygon fill="#ffffff" stroke="transparent" points="319,-671.7 319,-690.7 393,-690.7 393,-671.7 319,-671.7"/>
<polygon fill="none" stroke="#000000" points="319,-671.7 319,-690.7 393,-690.7 393,-671.7 319,-671.7"/>
<text text-anchor="start" x="322" y="-677.8" font-family="Helvetica,sans-Serif" font-size="11.00" fill="#000000">&lt; 2</text>
<polygon fill="#ffffff" stroke="transparent" points="393,-671.7 393,-690.7 431,-690.7 431,-671.7 393,-671.7"/>
<polygon fill="none" stroke="#000000" points="393,-671.7 393,-690.7 431,-690.7 431,-671.7 393,-671.7"/>
<text text-anchor="start" x="421.8862" y="-677.8" font-family="Helvetica,sans-Serif" font-size="11.00" fill="#000000"> &#160;</text>
<polygon fill="#ffffff" stroke="transparent" points="431,-671.7 431,-690.7 470,-690.7 470,-671.7 431,-671.7"/>
<polygon fill="none" stroke="#000000" points="431,-671.7 431,-690.7 470,-690.7 470,-671.7 431,-671.7"/>
<text text-anchor="start" x="460.8862" y="-677.8" font-family="Helvetica,sans-Serif" font-size="11.00" fill="#000000"> &#160;</text>
</a>
</g>
</g>
<!-- movement_audit&#45;&gt;prison_tap_locations -->
<g id="edge9" class="edge">
<title>movement_audit:w&#45;&gt;prison_tap_locations:e</title>
<path fill="none" stroke="#000000" stroke-dasharray="5,2" d="M304.2556,-700.0952C269.7163,-702.1499 252.775,-712.731 228,-743.7 177.2544,-807.1323 267.7328,-921.7 186.5,-921.7"/>
<polygon fill="#000000" stroke="#000000" points="311.0029,-699.9144 319.0965,-703.2987 315.0014,-699.8072 319,-699.7 319,-699.7 319,-699.7 315.0014,-699.8072 318.9035,-696.1013 311.0029,-699.9144 311.0029,-699.9144"/>
<ellipse fill="none" stroke="#000000" cx="307.804" cy="-700.0002" rx="3.2" ry="3.2"/>
</g>
<!-- movement_audit&#45;&gt;public.audit_revision -->
<g id="edge10" class="edge">
<title>movement_audit:w&#45;&gt;public.audit_revision:e</title>
<path fill="none" stroke="#000000" d="M304.4563,-699.4196C267.6489,-698.0343 228.9789,-691.6943 195.1586,-684.3588"/>
<polygon fill="#000000" stroke="#000000" points="311.0015,-699.5457 318.9306,-703.2993 315.0007,-699.6229 319,-699.7 319,-699.7 319,-699.7 315.0007,-699.6229 319.0694,-696.1007 311.0015,-699.5457 311.0015,-699.5457"/>
<ellipse fill="none" stroke="#000000" cx="307.8021" cy="-699.484" rx="3.2" ry="3.2"/>
</g>
<!-- occurrence_audit -->
<g id="node11" class="node">
<title>occurrence_audit</title>
<g id="a_node11"><a xlink:href="../../tables/occurrence_audit.html" xlink:title="occurrence_audit" target="_top">
<polygon fill="#ffffff" stroke="transparent" points="236,-120.7 236,-650.7 552,-650.7 552,-120.7 236,-120.7"/>
<polygon fill="#f5f5f5" stroke="transparent" points="238,-625.7 238,-648.7 550,-648.7 550,-625.7 238,-625.7"/>
<polygon fill="none" stroke="#000000" points="238,-625.7 238,-648.7 550,-648.7 550,-625.7 238,-625.7"/>
<text text-anchor="start" x="243" y="-634.3" font-family="Helvetica,sans-Serif" font-weight="bold" font-size="11.00" fill="#000000">occurrence_audit</text>
<text text-anchor="start" x="515.0437" y="-633.8" font-family="Helvetica,sans-Serif" font-size="11.00" fill="#000000">[table]</text>
<polygon fill="none" stroke="#000000" points="238,-603.7 238,-625.7 451,-625.7 451,-603.7 238,-603.7"/>
<image xlink:href="../../images/primaryKeys.png" width="11px" height="12px" preserveAspectRatio="xMinYMin meet" x="243" y="-620.7"/>
<text text-anchor="start" x="258" y="-610.8" font-family="Helvetica,sans-Serif" font-size="11.00" fill="#000000">rev_id</text>
<polygon fill="none" stroke="#000000" points="451,-603.7 451,-625.7 550,-625.7 550,-603.7 451,-603.7"/>
<text text-anchor="start" x="454" y="-611.4" font-family="Helvetica,sans-Serif" font-size="11.00" fill="#000000">int8[19]</text>
<polygon fill="none" stroke="#000000" points="238,-581.7 238,-603.7 451,-603.7 451,-581.7 238,-581.7"/>
<text text-anchor="start" x="258" y="-588.8" font-family="Helvetica,sans-Serif" font-size="11.00" fill="#000000">rev_type</text>
<polygon fill="none" stroke="#000000" points="451,-581.7 451,-603.7 550,-603.7 550,-581.7 451,-581.7"/>
<text text-anchor="start" x="454" y="-589.4" font-family="Helvetica,sans-Serif" font-size="11.00" fill="#000000">int2[5]</text>
<polygon fill="none" stroke="#000000" points="238,-559.7 238,-581.7 451,-581.7 451,-559.7 238,-559.7"/>
<image xlink:href="../../images/primaryKeys.png" width="11px" height="12px" preserveAspectRatio="xMinYMin meet" x="243" y="-576.7"/>
<text text-anchor="start" x="258" y="-566.8" font-family="Helvetica,sans-Serif" font-size="11.00" fill="#000000">id</text>
<polygon fill="none" stroke="#000000" points="451,-559.7 451,-581.7 550,-581.7 550,-559.7 451,-559.7"/>
<text text-anchor="start" x="454" y="-567.4" font-family="Helvetica,sans-Serif" font-size="11.00" fill="#000000">uuid[2147483647]</text>
<polygon fill="none" stroke="#000000" points="238,-537.7 238,-559.7 451,-559.7 451,-537.7 238,-537.7"/>
<text text-anchor="start" x="258" y="-544.8" font-family="Helvetica,sans-Serif" font-size="11.00" fill="#000000">version</text>
<polygon fill="none" stroke="#000000" points="451,-537.7 451,-559.7 550,-559.7 550,-537.7 451,-537.7"/>
<text text-anchor="start" x="454" y="-545.4" font-family="Helvetica,sans-Serif" font-size="11.00" fill="#000000">int4[10]</text>
<polygon fill="none" stroke="#000000" points="238,-515.7 238,-537.7 451,-537.7 451,-515.7 238,-515.7"/>
<text text-anchor="start" x="258" y="-522.8" font-family="Helvetica,sans-Serif" font-size="11.00" fill="#000000">person_identifier</text>
<polygon fill="none" stroke="#000000" points="451,-515.7 451,-537.7 550,-537.7 550,-515.7 451,-515.7"/>
<text text-anchor="start" x="454" y="-523.4" font-family="Helvetica,sans-Serif" font-size="11.00" fill="#000000">varchar[10]</text>
<polygon fill="none" stroke="#000000" points="238,-493.7 238,-515.7 451,-515.7 451,-493.7 238,-493.7"/>
<image xlink:href="../../images/foreignKeys.png" width="11px" height="12px" preserveAspectRatio="xMinYMin meet" x="243" y="-510.7"/>
<text text-anchor="start" x="258" y="-500.8" font-family="Helvetica,sans-Serif" font-size="11.00" fill="#000000">prison_code</text>
<polygon fill="none" stroke="#000000" points="451,-493.7 451,-515.7 550,-515.7 550,-493.7 451,-493.7"/>
<text text-anchor="start" x="454" y="-501.4" font-family="Helvetica,sans-Serif" font-size="11.00" fill="#000000">varchar[6]</text>
<polygon fill="none" stroke="#000000" points="238,-471.7 238,-493.7 451,-493.7 451,-471.7 238,-471.7"/>
<text text-anchor="start" x="258" y="-478.8" font-family="Helvetica,sans-Serif" font-size="11.00" fill="#000000">authorisation_id</text>
<polygon fill="none" stroke="#000000" points="451,-471.7 451,-493.7 550,-493.7 550,-471.7 451,-471.7"/>
<text text-anchor="start" x="454" y="-479.4" font-family="Helvetica,sans-Serif" font-size="11.00" fill="#000000">uuid[2147483647]</text>
<polygon fill="none" stroke="#000000" points="238,-449.7 238,-471.7 451,-471.7 451,-449.7 238,-449.7"/>
<text text-anchor="start" x="258" y="-456.8" font-family="Helvetica,sans-Serif" font-size="11.00" fill="#000000">status_id</text>
<polygon fill="none" stroke="#000000" points="451,-449.7 451,-471.7 550,-471.7 550,-449.7 451,-449.7"/>
<text text-anchor="start" x="454" y="-457.4" font-family="Helvetica,sans-Serif" font-size="11.00" fill="#000000">uuid[2147483647]</text>
<polygon fill="none" stroke="#000000" points="238,-427.7 238,-449.7 451,-449.7 451,-427.7 238,-427.7"/>
<text text-anchor="start" x="258" y="-434.8" font-family="Helvetica,sans-Serif" font-size="11.00" fill="#000000">absence_type_id</text>
<polygon fill="none" stroke="#000000" points="451,-427.7 451,-449.7 550,-449.7 550,-427.7 451,-427.7"/>
<text text-anchor="start" x="454" y="-435.4" font-family="Helvetica,sans-Serif" font-size="11.00" fill="#000000">uuid[2147483647]</text>
<polygon fill="none" stroke="#000000" points="238,-405.7 238,-427.7 451,-427.7 451,-405.7 238,-405.7"/>
<text text-anchor="start" x="258" y="-412.8" font-family="Helvetica,sans-Serif" font-size="11.00" fill="#000000">absence_sub_type_id</text>
<polygon fill="none" stroke="#000000" points="451,-405.7 451,-427.7 550,-427.7 550,-405.7 451,-405.7"/>
<text text-anchor="start" x="454" y="-413.4" font-family="Helvetica,sans-Serif" font-size="11.00" fill="#000000">uuid[2147483647]</text>
<polygon fill="none" stroke="#000000" points="238,-383.7 238,-405.7 451,-405.7 451,-383.7 238,-383.7"/>
<text text-anchor="start" x="258" y="-390.8" font-family="Helvetica,sans-Serif" font-size="11.00" fill="#000000">absence_reason_category_id</text>
<polygon fill="none" stroke="#000000" points="451,-383.7 451,-405.7 550,-405.7 550,-383.7 451,-383.7"/>
<text text-anchor="start" x="454" y="-391.4" font-family="Helvetica,sans-Serif" font-size="11.00" fill="#000000">uuid[2147483647]</text>
<polygon fill="none" stroke="#000000" points="238,-361.7 238,-383.7 451,-383.7 451,-361.7 238,-361.7"/>
<text text-anchor="start" x="258" y="-368.8" font-family="Helvetica,sans-Serif" font-size="11.00" fill="#000000">absence_reason_id</text>
<polygon fill="none" stroke="#000000" points="451,-361.7 451,-383.7 550,-383.7 550,-361.7 451,-361.7"/>
<text text-anchor="start" x="454" y="-369.4" font-family="Helvetica,sans-Serif" font-size="11.00" fill="#000000">uuid[2147483647]</text>
<polygon fill="none" stroke="#000000" points="238,-339.7 238,-361.7 451,-361.7 451,-339.7 238,-339.7"/>
<text text-anchor="start" x="258" y="-346.8" font-family="Helvetica,sans-Serif" font-size="11.00" fill="#000000">accompanied_by_id</text>
<polygon fill="none" stroke="#000000" points="451,-339.7 451,-361.7 550,-361.7 550,-339.7 451,-339.7"/>
<text text-anchor="start" x="454" y="-347.4" font-family="Helvetica,sans-Serif" font-size="11.00" fill="#000000">uuid[2147483647]</text>
<polygon fill="none" stroke="#000000" points="238,-317.7 238,-339.7 451,-339.7 451,-317.7 238,-317.7"/>
<text text-anchor="start" x="258" y="-324.8" font-family="Helvetica,sans-Serif" font-size="11.00" fill="#000000">transport_id</text>
<polygon fill="none" stroke="#000000" points="451,-317.7 451,-339.7 550,-339.7 550,-317.7 451,-317.7"/>
<text text-anchor="start" x="454" y="-325.4" font-family="Helvetica,sans-Serif" font-size="11.00" fill="#000000">uuid[2147483647]</text>
<polygon fill="none" stroke="#000000" points="238,-295.7 238,-317.7 451,-317.7 451,-295.7 238,-295.7"/>
<text text-anchor="start" x="258" y="-302.8" font-family="Helvetica,sans-Serif" font-size="11.00" fill="#000000">start</text>
<polygon fill="none" stroke="#000000" points="451,-295.7 451,-317.7 550,-317.7 550,-295.7 451,-295.7"/>
<text text-anchor="start" x="454" y="-303.4" font-family="Helvetica,sans-Serif" font-size="11.00" fill="#000000">timestamp[29,6]</text>
<polygon fill="none" stroke="#000000" points="238,-273.7 238,-295.7 451,-295.7 451,-273.7 238,-273.7"/>
<text text-anchor="start" x="258" y="-280.8" font-family="Helvetica,sans-Serif" font-size="11.00" fill="#000000">end</text>
<polygon fill="none" stroke="#000000" points="451,-273.7 451,-295.7 550,-295.7 550,-273.7 451,-273.7"/>
<text text-anchor="start" x="454" y="-281.4" font-family="Helvetica,sans-Serif" font-size="11.00" fill="#000000">timestamp[29,6]</text>
<polygon fill="none" stroke="#000000" points="238,-251.7 238,-273.7 451,-273.7 451,-251.7 238,-251.7"/>
<text text-anchor="start" x="258" y="-258.8" font-family="Helvetica,sans-Serif" font-size="11.00" fill="#000000">location</text>
<polygon fill="none" stroke="#000000" points="451,-251.7 451,-273.7 550,-273.7 550,-251.7 451,-251.7"/>
<text text-anchor="start" x="453.7258" y="-259.4" font-family="Helvetica,sans-Serif" font-size="11.00" fill="#000000">jsonb[2147483647]</text>
<polygon fill="none" stroke="#000000" points="238,-229.7 238,-251.7 451,-251.7 451,-229.7 238,-229.7"/>
<text text-anchor="start" x="258" y="-236.8" font-family="Helvetica,sans-Serif" font-size="11.00" fill="#000000">contact_information</text>
<polygon fill="none" stroke="#000000" points="451,-229.7 451,-251.7 550,-251.7 550,-229.7 451,-229.7"/>
<text text-anchor="start" x="454" y="-237.4" font-family="Helvetica,sans-Serif" font-size="11.00" fill="#000000">text[2147483647]</text>
<polygon fill="none" stroke="#000000" points="238,-207.7 238,-229.7 451,-229.7 451,-207.7 238,-207.7"/>
<text text-anchor="start" x="258" y="-214.8" font-family="Helvetica,sans-Serif" font-size="11.00" fill="#000000">comments</text>
<polygon fill="none" stroke="#000000" points="451,-207.7 451,-229.7 550,-229.7 550,-207.7 451,-207.7"/>
<text text-anchor="start" x="454" y="-215.4" font-family="Helvetica,sans-Serif" font-size="11.00" fill="#000000">text[2147483647]</text>
<polygon fill="none" stroke="#000000" points="238,-185.7 238,-207.7 451,-207.7 451,-185.7 238,-185.7"/>
<text text-anchor="start" x="258" y="-192.8" font-family="Helvetica,sans-Serif" font-size="11.00" fill="#000000">reason_path</text>
<polygon fill="none" stroke="#000000" points="451,-185.7 451,-207.7 550,-207.7 550,-185.7 451,-185.7"/>
<text text-anchor="start" x="453.7258" y="-193.4" font-family="Helvetica,sans-Serif" font-size="11.00" fill="#000000">jsonb[2147483647]</text>
<polygon fill="none" stroke="#000000" points="238,-163.7 238,-185.7 451,-185.7 451,-163.7 238,-163.7"/>
<text text-anchor="start" x="258" y="-170.8" font-family="Helvetica,sans-Serif" font-size="11.00" fill="#000000">legacy_id</text>
<polygon fill="none" stroke="#000000" points="451,-163.7 451,-185.7 550,-185.7 550,-163.7 451,-163.7"/>
<text text-anchor="start" x="454" y="-171.4" font-family="Helvetica,sans-Serif" font-size="11.00" fill="#000000">int8[19]</text>
<polygon fill="none" stroke="#000000" points="238,-141.7 238,-163.7 451,-163.7 451,-141.7 238,-141.7"/>
<text text-anchor="start" x="258" y="-148.8" font-family="Helvetica,sans-Serif" font-size="11.00" fill="#000000">dps_only</text>
<polygon fill="none" stroke="#000000" points="451,-141.7 451,-163.7 550,-163.7 550,-141.7 451,-141.7"/>
<text text-anchor="start" x="454" y="-149.4" font-family="Helvetica,sans-Serif" font-size="11.00" fill="#000000">bool[1]</text>
<polygon fill="#ffffff" stroke="transparent" points="238,-122.7 238,-141.7 349,-141.7 349,-122.7 238,-122.7"/>
<polygon fill="none" stroke="#000000" points="238,-122.7 238,-141.7 349,-141.7 349,-122.7 238,-122.7"/>
<text text-anchor="start" x="241" y="-128.8" font-family="Helvetica,sans-Serif" font-size="11.00" fill="#000000">&lt; 2</text>
<polygon fill="#ffffff" stroke="transparent" points="349,-122.7 349,-141.7 451,-141.7 451,-122.7 349,-122.7"/>
<polygon fill="none" stroke="#000000" points="349,-122.7 349,-141.7 451,-141.7 451,-122.7 349,-122.7"/>
<text text-anchor="start" x="441.8862" y="-128.8" font-family="Helvetica,sans-Serif" font-size="11.00" fill="#000000"> &#160;</text>
<polygon fill="#ffffff" stroke="transparent" points="451,-122.7 451,-141.7 550,-141.7 550,-122.7 451,-122.7"/>
<polygon fill="none" stroke="#000000" points="451,-122.7 451,-141.7 550,-141.7 550,-122.7 451,-122.7"/>
<text text-anchor="start" x="531.4053" y="-128.8" font-family="Helvetica,sans-Serif" font-size="11.00" fill="#000000">0 &gt;</text>
<polygon fill="none" stroke="#000000" stroke-width="2" points="237,-121.7 237,-649.7 551,-649.7 551,-121.7 237,-121.7"/>
</a>
</g>
</g>
<!-- occurrence_audit&#45;&gt;prison_tap_locations -->
<g id="edge12" class="edge">
<title>occurrence_audit:w&#45;&gt;prison_tap_locations:e</title>
<path fill="none" stroke="#000000" stroke-dasharray="5,2" d="M223.8498,-508.8272C159.693,-552.1355 274.3998,-921.7 186.5,-921.7"/>
<polygon fill="#000000" stroke="#000000" points="230.32,-506.9401 239.008,-508.156 234.16,-505.82 238,-504.7 238,-504.7 238,-504.7 234.16,-505.82 236.992,-501.244 230.32,-506.9401 230.32,-506.9401"/>
<ellipse fill="none" stroke="#000000" cx="227.248" cy="-507.8361" rx="3.2" ry="3.2"/>
</g>
<!-- occurrence_audit&#45;&gt;public.audit_revision -->
<g id="edge13" class="edge">
<title>occurrence_audit:w&#45;&gt;public.audit_revision:e</title>
<path fill="none" stroke="#000000" d="M223.4707,-615.363C209.4394,-616.6027 195.2451,-619.4853 181.6946,-623.1954"/>
<polygon fill="#000000" stroke="#000000" points="230.0083,-615.0647 238.1641,-618.2963 234.0042,-614.8824 238,-614.7 238,-614.7 238,-614.7 234.0042,-614.8824 237.8359,-611.1037 230.0083,-615.0647 230.0083,-615.0647"/>
<ellipse fill="none" stroke="#000000" cx="226.8116" cy="-615.2106" rx="3.2" ry="3.2"/>
</g>
<!-- prison_tap_locations_audit -->
<g id="node12" class="node">
<title>prison_tap_locations_audit</title>
<g id="a_node12"><a xlink:href="../../tables/prison_tap_locations_audit.html" xlink:title="prison_tap_locations_audit" target="_top">
<polygon fill="#ffffff" stroke="transparent" points="285,-38.2 285,-99.2 503,-99.2 503,-38.2 285,-38.2"/>
<polygon fill="#f5f5f5" stroke="transparent" points="285,-75.7 285,-98.7 503,-98.7 503,-75.7 285,-75.7"/>
<polygon fill="none" stroke="#000000" points="285,-75.7 285,-98.7 503,-98.7 503,-75.7 285,-75.7"/>
<text text-anchor="start" x="290" y="-84.3" font-family="Helvetica,sans-Serif" font-weight="bold" font-size="11.00" fill="#000000">prison_tap_locations_audit</text>
<text text-anchor="start" x="468.5219" y="-83.8" font-family="Helvetica,sans-Serif" font-size="11.00" fill="#000000">[table]</text>
<polygon fill="none" stroke="#000000" points="285,-56.7 285,-75.7 503,-75.7 503,-56.7 285,-56.7"/>
<text text-anchor="start" x="288" y="-62.8" font-family="Helvetica,sans-Serif" font-size="11.00" fill="#000000">...</text>
<polygon fill="#ffffff" stroke="transparent" points="285,-37.7 285,-56.7 392,-56.7 392,-37.7 285,-37.7"/>
<polygon fill="none" stroke="#000000" points="285,-37.7 285,-56.7 392,-56.7 392,-37.7 285,-37.7"/>
<text text-anchor="start" x="288" y="-43.8" font-family="Helvetica,sans-Serif" font-size="11.00" fill="#000000">&lt; 1</text>
<polygon fill="#ffffff" stroke="transparent" points="392,-37.7 392,-56.7 447,-56.7 447,-37.7 392,-37.7"/>
<polygon fill="none" stroke="#000000" points="392,-37.7 392,-56.7 447,-56.7 447,-37.7 392,-37.7"/>
<text text-anchor="start" x="437.8862" y="-43.8" font-family="Helvetica,sans-Serif" font-size="11.00" fill="#000000"> &#160;</text>
<polygon fill="#ffffff" stroke="transparent" points="447,-37.7 447,-56.7 503,-56.7 503,-37.7 447,-37.7"/>
<polygon fill="none" stroke="#000000" points="447,-37.7 447,-56.7 503,-56.7 503,-37.7 447,-37.7"/>
<text text-anchor="start" x="493.8862" y="-43.8" font-family="Helvetica,sans-Serif" font-size="11.00" fill="#000000"> &#160;</text>
</a>
</g>
</g>
<!-- prison_tap_locations_audit&#45;&gt;public.audit_revision -->
<g id="edge14" class="edge">
<title>prison_tap_locations_audit:w&#45;&gt;public.audit_revision:e</title>
<path fill="none" stroke="#000000" d="M270.5177,-67.9219C162.9448,-101.3018 113.471,-501.3079 100.8544,-622.8779"/>
<polygon fill="#000000" stroke="#000000" points="277.0925,-66.9132 285.5459,-69.2584 281.0463,-66.3066 285,-65.7 285,-65.7 285,-65.7 281.0463,-66.3066 284.4541,-62.1416 277.0925,-66.9132 277.0925,-66.9132"/>
<ellipse fill="none" stroke="#000000" cx="273.9295" cy="-67.3985" rx="3.2" ry="3.2"/>
</g>
</g>
</svg>
