<?xml version="1.0" encoding="UTF-8" standalone="no"?>
<!DOCTYPE svg PUBLIC "-//W3C//DTD SVG 1.1//EN"
 "http://www.w3.org/Graphics/SVG/1.1/DTD/svg11.dtd">
<!-- Generated by graphviz version 2.40.1 (20161225.0304)
 -->
<!-- Title: oneDegreeRelationshipsDiagramImplied Pages: 1 -->
<svg width="805pt" height="1603pt"
 viewBox="0.00 0.00 805.00 1602.70" xmlns="http://www.w3.org/2000/svg" xmlns:xlink="http://www.w3.org/1999/xlink">
<g id="graph0" class="graph" transform="scale(1 1) rotate(0) translate(4 1598.7)">
<title>oneDegreeRelationshipsDiagramImplied</title>
<polygon fill="#ffffff" stroke="transparent" points="-4,4 -4,-1598.7 801,-1598.7 801,4 -4,4"/>
<text text-anchor="middle" x="72.4936" y="-7.3" font-family="Helvetica,sans-Serif" font-size="11.00" fill="#000000">Generated by SchemaSpy</text>
<!-- audited_authorisation -->
<g id="node1" class="node">
<title>audited_authorisation</title>
<g id="a_node1"><a xlink:href="../../tables/audited_authorisation.html" xlink:title="audited_authorisation" target="_top">
<polygon fill="#ffffff" stroke="transparent" points="319,-1526.7 319,-1590.7 532,-1590.7 532,-1526.7 319,-1526.7"/>
<polygon fill="#f5f5f5" stroke="transparent" points="319.5,-1567.7 319.5,-1590.7 532.5,-1590.7 532.5,-1567.7 319.5,-1567.7"/>
<polygon fill="none" stroke="#000000" points="319.5,-1567.7 319.5,-1590.7 532.5,-1590.7 532.5,-1567.7 319.5,-1567.7"/>
<text text-anchor="start" x="324.5" y="-1576.3" font-family="Helvetica,sans-Serif" font-weight="bold" font-size="11.00" fill="#000000">audited_authorisation</text>
<text text-anchor="start" x="499.3895" y="-1575.8" font-family="Helvetica,sans-Serif" font-size="11.00" fill="#000000">[view]</text>
<polygon fill="none" stroke="#000000" points="319.5,-1545.7 319.5,-1567.7 532.5,-1567.7 532.5,-1545.7 319.5,-1545.7"/>
<image xlink:href="../../images/foreignKeys.png" width="11px" height="12px" preserveAspectRatio="xMinYMin meet" x="324.5" y="-1562.7"/>
<text text-anchor="start" x="339.5" y="-1552.8" font-family="Helvetica,sans-Serif" font-size="11.00" fill="#000000">prison_code</text>
<polygon fill="none" stroke="#000000" points="319.5,-1526.7 319.5,-1545.7 532.5,-1545.7 532.5,-1526.7 319.5,-1526.7"/>
<text text-anchor="start" x="322.5" y="-1532.8" font-family="Helvetica,sans-Serif" font-size="11.00" fill="#000000">...</text>
</a>
</g>
</g>
<!-- prison_tap_locations -->
<g id="node2" class="node">
<title>prison_tap_locations</title>
<g id="a_node2"><a xlink:href="../../tables/prison_tap_locations.html" xlink:title="prison_tap_locations" target="_top">
<polygon fill="#ffffff" stroke="transparent" points="8,-790.7 8,-902.7 270,-902.7 270,-790.7 8,-790.7"/>
<polygon fill="#f5f5f5" stroke="transparent" points="10,-877.7 10,-900.7 268,-900.7 268,-877.7 10,-877.7"/>
<polygon fill="none" stroke="#000000" points="10,-877.7 10,-900.7 268,-900.7 268,-877.7 10,-877.7"/>
<text text-anchor="start" x="15" y="-886.3" font-family="Helvetica,sans-Serif" font-weight="bold" font-size="11.00" fill="#000000">prison_tap_locations</text>
<text text-anchor="start" x="233.0437" y="-885.8" font-family="Helvetica,sans-Serif" font-size="11.00" fill="#000000">[table]</text>
<polygon fill="none" stroke="#000000" points="10,-855.7 10,-877.7 169,-877.7 169,-855.7 10,-855.7"/>
<image xlink:href="../../images/primaryKeys.png" width="11px" height="12px" preserveAspectRatio="xMinYMin meet" x="15" y="-872.7"/>
<text text-anchor="start" x="30" y="-862.8" font-family="Helvetica,sans-Serif" font-size="11.00" fill="#000000">prison_code</text>
<polygon fill="none" stroke="#000000" points="169,-855.7 169,-877.7 268,-877.7 268,-855.7 169,-855.7"/>
<text text-anchor="start" x="172" y="-863.4" font-family="Helvetica,sans-Serif" font-size="11.00" fill="#000000">varchar[6]</text>
<polygon fill="none" stroke="#000000" points="10,-833.7 10,-855.7 169,-855.7 169,-833.7 10,-833.7"/>
<text text-anchor="start" x="30" y="-840.8" font-family="Helvetica,sans-Serif" font-size="11.00" fill="#000000">locations</text>
<polygon fill="none" stroke="#000000" points="169,-833.7 169,-855.7 268,-855.7 268,-833.7 169,-833.7"/>
<text text-anchor="start" x="171.7258" y="-841.4" font-family="Helvetica,sans-Serif" font-size="11.00" fill="#000000">jsonb[2147483647]</text>
<polygon fill="none" stroke="#000000" points="10,-811.7 10,-833.7 169,-833.7 169,-811.7 10,-811.7"/>
<text text-anchor="start" x="30" y="-818.8" font-family="Helvetica,sans-Serif" font-size="11.00" fill="#000000">version</text>
<polygon fill="none" stroke="#000000" points="169,-811.7 169,-833.7 268,-833.7 268,-811.7 169,-811.7"/>
<text text-anchor="start" x="172" y="-819.4" font-family="Helvetica,sans-Serif" font-size="11.00" fill="#000000">int4[10]</text>
<polygon fill="#ffffff" stroke="transparent" points="10,-792.7 10,-811.7 94,-811.7 94,-792.7 10,-792.7"/>
<polygon fill="none" stroke="#000000" points="10,-792.7 10,-811.7 94,-811.7 94,-792.7 10,-792.7"/>
<text text-anchor="start" x="13" y="-798.8" font-family="Helvetica,sans-Serif" font-size="11.00" fill="#000000">&lt; 0</text>
<polygon fill="#ffffff" stroke="transparent" points="94,-792.7 94,-811.7 169,-811.7 169,-792.7 94,-792.7"/>
<polygon fill="none" stroke="#000000" points="94,-792.7 94,-811.7 169,-811.7 169,-792.7 94,-792.7"/>
<text text-anchor="start" x="159.8862" y="-798.8" font-family="Helvetica,sans-Serif" font-size="11.00" fill="#000000"> &#160;</text>
<polygon fill="#ffffff" stroke="transparent" points="169,-792.7 169,-811.7 268,-811.7 268,-792.7 169,-792.7"/>
<polygon fill="none" stroke="#000000" points="169,-792.7 169,-811.7 268,-811.7 268,-792.7 169,-792.7"/>
<text text-anchor="start" x="249.4053" y="-798.8" font-family="Helvetica,sans-Serif" font-size="11.00" fill="#000000">9 &gt;</text>
<polygon fill="none" stroke="#000000" stroke-width="2" points="9,-791.7 9,-901.7 269,-901.7 269,-791.7 9,-791.7"/>
</a>
</g>
</g>
<!-- audited_authorisation&#45;&gt;prison_tap_locations -->
<g id="edge1" class="edge">
<title>audited_authorisation:w&#45;&gt;prison_tap_locations:e</title>
<path fill="none" stroke="#000000" stroke-dasharray="5,2" d="M307.0968,-1548.951C254.7028,-1473.1453 340.0749,-866.7 268,-866.7"/>
<polygon fill="#000000" stroke="#000000" points="312.7153,-1552.4611 317.5925,-1559.7531 316.1076,-1554.5806 319.5,-1556.7 319.5,-1556.7 319.5,-1556.7 316.1076,-1554.5806 321.4075,-1553.6469 312.7153,-1552.4611 312.7153,-1552.4611"/>
<ellipse fill="none" stroke="#000000" cx="310.0014" cy="-1550.7656" rx="3.2" ry="3.2"/>
</g>
<!-- audited_movement -->
<g id="node3" class="node">
<title>audited_movement</title>
<g id="a_node3"><a xlink:href="../../tables/audited_movement.html" xlink:title="audited_movement" target="_top">
<polygon fill="#ffffff" stroke="transparent" points="321.5,-1441.7 321.5,-1505.7 529.5,-1505.7 529.5,-1441.7 321.5,-1441.7"/>
<polygon fill="#f5f5f5" stroke="transparent" points="321.5,-1482.7 321.5,-1505.7 529.5,-1505.7 529.5,-1482.7 321.5,-1482.7"/>
<polygon fill="none" stroke="#000000" points="321.5,-1482.7 321.5,-1505.7 529.5,-1505.7 529.5,-1482.7 321.5,-1482.7"/>
<text text-anchor="start" x="326.5" y="-1491.3" font-family="Helvetica,sans-Serif" font-weight="bold" font-size="11.00" fill="#000000">audited_movement</text>
<text text-anchor="start" x="496.3895" y="-1490.8" font-family="Helvetica,sans-Serif" font-size="11.00" fill="#000000">[view]</text>
<polygon fill="none" stroke="#000000" points="321.5,-1460.7 321.5,-1482.7 529.5,-1482.7 529.5,-1460.7 321.5,-1460.7"/>
<image xlink:href="../../images/foreignKeys.png" width="11px" height="12px" preserveAspectRatio="xMinYMin meet" x="326.5" y="-1477.7"/>
<text text-anchor="start" x="341.5" y="-1467.8" font-family="Helvetica,sans-Serif" font-size="11.00" fill="#000000">prison_code</text>
<polygon fill="none" stroke="#000000" points="321.5,-1441.7 321.5,-1460.7 529.5,-1460.7 529.5,-1441.7 321.5,-1441.7"/>
<text text-anchor="start" x="324.5" y="-1447.8" font-family="Helvetica,sans-Serif" font-size="11.00" fill="#000000">...</text>
</a>
</g>
</g>
<!-- audited_movement&#45;&gt;prison_tap_locations -->
<g id="edge2" class="edge">
<title>audited_movement:w&#45;&gt;prison_tap_locations:e</title>
<path fill="none" stroke="#000000" stroke-dasharray="5,2" d="M309.3706,-1463.1475C264.7356,-1389.6129 330.7395,-866.7 268,-866.7"/>
<polygon fill="#000000" stroke="#000000" points="314.9619,-1467.0899 319.4255,-1474.6422 318.2309,-1469.395 321.5,-1471.7 321.5,-1471.7 321.5,-1471.7 318.2309,-1469.395 323.5745,-1468.7578 314.9619,-1467.0899 314.9619,-1467.0899"/>
<ellipse fill="none" stroke="#000000" cx="312.3466" cy="-1465.2459" rx="3.2" ry="3.2"/>
</g>
<!-- audited_occurrence -->
<g id="node4" class="node">
<title>audited_occurrence</title>
<g id="a_node4"><a xlink:href="../../tables/audited_occurrence.html" xlink:title="audited_occurrence" target="_top">
<polygon fill="#ffffff" stroke="transparent" points="319,-1356.7 319,-1420.7 532,-1420.7 532,-1356.7 319,-1356.7"/>
<polygon fill="#f5f5f5" stroke="transparent" points="319.5,-1397.7 319.5,-1420.7 532.5,-1420.7 532.5,-1397.7 319.5,-1397.7"/>
<polygon fill="none" stroke="#000000" points="319.5,-1397.7 319.5,-1420.7 532.5,-1420.7 532.5,-1397.7 319.5,-1397.7"/>
<text text-anchor="start" x="324.5" y="-1406.3" font-family="Helvetica,sans-Serif" font-weight="bold" font-size="11.00" fill="#000000">audited_occurrence</text>
<text text-anchor="start" x="499.3895" y="-1405.8" font-family="Helvetica,sans-Serif" font-size="11.00" fill="#000000">[view]</text>
<polygon fill="none" stroke="#000000" points="319.5,-1375.7 319.5,-1397.7 532.5,-1397.7 532.5,-1375.7 319.5,-1375.7"/>
<image xlink:href="../../images/foreignKeys.png" width="11px" height="12px" preserveAspectRatio="xMinYMin meet" x="324.5" y="-1392.7"/>
<text text-anchor="start" x="339.5" y="-1382.8" font-family="Helvetica,sans-Serif" font-size="11.00" fill="#000000">prison_code</text>
<polygon fill="none" stroke="#000000" points="319.5,-1356.7 319.5,-1375.7 532.5,-1375.7 532.5,-1356.7 319.5,-1356.7"/>
<text text-anchor="start" x="322.5" y="-1362.8" font-family="Helvetica,sans-Serif" font-size="11.00" fill="#000000">...</text>
</a>
</g>
</g>
<!-- audited_occurrence&#45;&gt;prison_tap_locations -->
<g id="edge3" class="edge">
<title>audited_occurrence:w&#45;&gt;prison_tap_locations:e</title>
<path fill="none" stroke="#000000" stroke-dasharray="5,2" d="M305.3295,-1383.5142C219.3452,-1340.0611 378.7911,-866.7 268,-866.7"/>
<polygon fill="#000000" stroke="#000000" points="311.6948,-1384.9452 318.7103,-1390.2123 315.5974,-1385.8226 319.5,-1386.7 319.5,-1386.7 319.5,-1386.7 315.5974,-1385.8226 320.2897,-1383.1877 311.6948,-1384.9452 311.6948,-1384.9452"/>
<ellipse fill="none" stroke="#000000" cx="308.5728" cy="-1384.2433" rx="3.2" ry="3.2"/>
</g>
<!-- authorisation -->
<g id="node5" class="node">
<title>authorisation</title>
<g id="a_node5"><a xlink:href="../../tables/authorisation.html" xlink:title="authorisation" target="_top">
<polygon fill="#ffffff" stroke="transparent" points="319,-988.2 319,-1335.2 532,-1335.2 532,-988.2 319,-988.2"/>
<polygon fill="#f5f5f5" stroke="transparent" points="319.5,-1311.7 319.5,-1334.7 532.5,-1334.7 532.5,-1311.7 319.5,-1311.7"/>
<polygon fill="none" stroke="#000000" points="319.5,-1311.7 319.5,-1334.7 532.5,-1334.7 532.5,-1311.7 319.5,-1311.7"/>
<text text-anchor="start" x="324.5" y="-1320.3" font-family="Helvetica,sans-Serif" font-weight="bold" font-size="11.00" fill="#000000">authorisation</text>
<text text-anchor="start" x="497.5437" y="-1319.8" font-family="Helvetica,sans-Serif" font-size="11.00" fill="#000000">[table]</text>
<polygon fill="none" stroke="#000000" points="319.5,-1289.7 319.5,-1311.7 532.5,-1311.7 532.5,-1289.7 319.5,-1289.7"/>
<image xlink:href="../../images/primaryKeys.png" width="11px" height="12px" preserveAspectRatio="xMinYMin meet" x="324.5" y="-1306.7"/>
<text text-anchor="start" x="339.5" y="-1296.8" font-family="Helvetica,sans-Serif" font-size="11.00" fill="#000000">id</text>
<polygon fill="#ffffff" stroke="transparent" points="319.5,-1267.7 319.5,-1289.7 532.5,-1289.7 532.5,-1267.7 319.5,-1267.7"/>
<polygon fill="none" stroke="#000000" points="319.5,-1267.7 319.5,-1289.7 532.5,-1289.7 532.5,-1267.7 319.5,-1267.7"/>
<image xlink:href="../../images/foreignKeys.png" width="11px" height="12px" preserveAspectRatio="xMinYMin meet" x="324.5" y="-1284.7"/>
<text text-anchor="start" x="339.5" y="-1274.8" font-family="Helvetica,sans-Serif" font-size="11.00" fill="#000000">person_identifier</text>
<polygon fill="#ffffff" stroke="transparent" points="319.5,-1245.7 319.5,-1267.7 532.5,-1267.7 532.5,-1245.7 319.5,-1245.7"/>
<polygon fill="none" stroke="#000000" points="319.5,-1245.7 319.5,-1267.7 532.5,-1267.7 532.5,-1245.7 319.5,-1245.7"/>
<image xlink:href="../../images/foreignKeys.png" width="11px" height="12px" preserveAspectRatio="xMinYMin meet" x="324.5" y="-1262.7"/>
<text text-anchor="start" x="339.5" y="-1252.8" font-family="Helvetica,sans-Serif" font-size="11.00" fill="#000000">prison_code</text>
<polygon fill="#ffffff" stroke="transparent" points="319.5,-1223.7 319.5,-1245.7 532.5,-1245.7 532.5,-1223.7 319.5,-1223.7"/>
<polygon fill="none" stroke="#000000" points="319.5,-1223.7 319.5,-1245.7 532.5,-1245.7 532.5,-1223.7 319.5,-1223.7"/>
<image xlink:href="../../images/foreignKeys.png" width="11px" height="12px" preserveAspectRatio="xMinYMin meet" x="324.5" y="-1240.7"/>
<text text-anchor="start" x="339.5" y="-1230.8" font-family="Helvetica,sans-Serif" font-size="11.00" fill="#000000">status_id</text>
<polygon fill="none" stroke="#000000" points="319.5,-1201.7 319.5,-1223.7 532.5,-1223.7 532.5,-1201.7 319.5,-1201.7"/>
<image xlink:href="../../images/foreignKeys.png" width="11px" height="12px" preserveAspectRatio="xMinYMin meet" x="324.5" y="-1218.7"/>
<text text-anchor="start" x="339.5" y="-1208.8" font-family="Helvetica,sans-Serif" font-size="11.00" fill="#000000">absence_type_id</text>
<polygon fill="none" stroke="#000000" points="319.5,-1179.7 319.5,-1201.7 532.5,-1201.7 532.5,-1179.7 319.5,-1179.7"/>
<image xlink:href="../../images/foreignKeys.png" width="11px" height="12px" preserveAspectRatio="xMinYMin meet" x="324.5" y="-1196.7"/>
<text text-anchor="start" x="339.5" y="-1186.8" font-family="Helvetica,sans-Serif" font-size="11.00" fill="#000000">absence_sub_type_id</text>
<polygon fill="none" stroke="#000000" points="319.5,-1157.7 319.5,-1179.7 532.5,-1179.7 532.5,-1157.7 319.5,-1157.7"/>
<image xlink:href="../../images/foreignKeys.png" width="11px" height="12px" preserveAspectRatio="xMinYMin meet" x="324.5" y="-1174.7"/>
<text text-anchor="start" x="339.5" y="-1164.8" font-family="Helvetica,sans-Serif" font-size="11.00" fill="#000000">absence_reason_category_id</text>
<polygon fill="none" stroke="#000000" points="319.5,-1135.7 319.5,-1157.7 532.5,-1157.7 532.5,-1135.7 319.5,-1135.7"/>
<image xlink:href="../../images/foreignKeys.png" width="11px" height="12px" preserveAspectRatio="xMinYMin meet" x="324.5" y="-1152.7"/>
<text text-anchor="start" x="339.5" y="-1142.8" font-family="Helvetica,sans-Serif" font-size="11.00" fill="#000000">absence_reason_id</text>
<polygon fill="none" stroke="#000000" points="319.5,-1113.7 319.5,-1135.7 532.5,-1135.7 532.5,-1113.7 319.5,-1113.7"/>
<image xlink:href="../../images/foreignKeys.png" width="11px" height="12px" preserveAspectRatio="xMinYMin meet" x="324.5" y="-1130.7"/>
<text text-anchor="start" x="339.5" y="-1120.8" font-family="Helvetica,sans-Serif" font-size="11.00" fill="#000000">accompanied_by_id</text>
<polygon fill="none" stroke="#000000" points="319.5,-1091.7 319.5,-1113.7 532.5,-1113.7 532.5,-1091.7 319.5,-1091.7"/>
<image xlink:href="../../images/foreignKeys.png" width="11px" height="12px" preserveAspectRatio="xMinYMin meet" x="324.5" y="-1108.7"/>
<text text-anchor="start" x="339.5" y="-1098.8" font-family="Helvetica,sans-Serif" font-size="11.00" fill="#000000">transport_id</text>
<polygon fill="#ffffff" stroke="transparent" points="319.5,-1069.7 319.5,-1091.7 532.5,-1091.7 532.5,-1069.7 319.5,-1069.7"/>
<polygon fill="none" stroke="#000000" points="319.5,-1069.7 319.5,-1091.7 532.5,-1091.7 532.5,-1069.7 319.5,-1069.7"/>
<text text-anchor="start" x="339.5" y="-1076.8" font-family="Helvetica,sans-Serif" font-size="11.00" fill="#000000">start</text>
<polygon fill="#ffffff" stroke="transparent" points="319.5,-1047.7 319.5,-1069.7 532.5,-1069.7 532.5,-1047.7 319.5,-1047.7"/>
<polygon fill="none" stroke="#000000" points="319.5,-1047.7 319.5,-1069.7 532.5,-1069.7 532.5,-1047.7 319.5,-1047.7"/>
<text text-anchor="start" x="339.5" y="-1054.8" font-family="Helvetica,sans-Serif" font-size="11.00" fill="#000000">end</text>
<polygon fill="#ffffff" stroke="transparent" points="319.5,-1025.7 319.5,-1047.7 532.5,-1047.7 532.5,-1025.7 319.5,-1025.7"/>
<polygon fill="none" stroke="#000000" points="319.5,-1025.7 319.5,-1047.7 532.5,-1047.7 532.5,-1025.7 319.5,-1025.7"/>
<text text-anchor="start" x="339.5" y="-1032.8" font-family="Helvetica,sans-Serif" font-size="11.00" fill="#000000">legacy_id</text>
<polygon fill="none" stroke="#000000" points="319.5,-1006.7 319.5,-1025.7 532.5,-1025.7 532.5,-1006.7 319.5,-1006.7"/>
<text text-anchor="start" x="322.5" y="-1012.8" font-family="Helvetica,sans-Serif" font-size="11.00" fill="#000000">...</text>
<polygon fill="#ffffff" stroke="transparent" points="319.5,-987.7 319.5,-1006.7 424.5,-1006.7 424.5,-987.7 319.5,-987.7"/>
<polygon fill="none" stroke="#000000" points="319.5,-987.7 319.5,-1006.7 424.5,-1006.7 424.5,-987.7 319.5,-987.7"/>
<text text-anchor="start" x="322.5" y="-993.8" font-family="Helvetica,sans-Serif" font-size="11.00" fill="#000000">&lt; 9</text>
<polygon fill="#ffffff" stroke="transparent" points="424.5,-987.7 424.5,-1006.7 478.5,-1006.7 478.5,-987.7 424.5,-987.7"/>
<polygon fill="none" stroke="#000000" points="424.5,-987.7 424.5,-1006.7 478.5,-1006.7 478.5,-987.7 424.5,-987.7"/>
<text text-anchor="start" x="469.3862" y="-993.8" font-family="Helvetica,sans-Serif" font-size="11.00" fill="#000000"> &#160;</text>
<polygon fill="#ffffff" stroke="transparent" points="478.5,-987.7 478.5,-1006.7 532.5,-1006.7 532.5,-987.7 478.5,-987.7"/>
<polygon fill="none" stroke="#000000" points="478.5,-987.7 478.5,-1006.7 532.5,-1006.7 532.5,-987.7 478.5,-987.7"/>
<text text-anchor="start" x="523.3862" y="-993.8" font-family="Helvetica,sans-Serif" font-size="11.00" fill="#000000"> &#160;</text>
</a>
</g>
</g>
<!-- authorisation&#45;&gt;prison_tap_locations -->
<g id="edge4" class="edge">
<title>authorisation:w&#45;&gt;prison_tap_locations:e</title>
<path fill="none" stroke="#000000" stroke-dasharray="5,2" d="M305.4758,-1252.3201C246.675,-1209.4734 349.9553,-866.7 268,-866.7"/>
<polygon fill="#000000" stroke="#000000" points="311.8637,-1254.3151 318.4268,-1260.1363 315.6819,-1255.5075 319.5,-1256.7 319.5,-1256.7 319.5,-1256.7 315.6819,-1255.5075 320.5732,-1253.2637 311.8637,-1254.3151 311.8637,-1254.3151"/>
<ellipse fill="none" stroke="#000000" cx="308.8092" cy="-1253.3611" rx="3.2" ry="3.2"/>
</g>
<!-- authorisation_audit -->
<g id="node6" class="node">
<title>authorisation_audit</title>
<g id="a_node6"><a xlink:href="../../tables/authorisation_audit.html" xlink:title="authorisation_audit" target="_top">
<polygon fill="#ffffff" stroke="transparent" points="319,-818.2 319,-967.2 532,-967.2 532,-818.2 319,-818.2"/>
<polygon fill="#f5f5f5" stroke="transparent" points="319.5,-943.7 319.5,-966.7 532.5,-966.7 532.5,-943.7 319.5,-943.7"/>
<polygon fill="none" stroke="#000000" points="319.5,-943.7 319.5,-966.7 532.5,-966.7 532.5,-943.7 319.5,-943.7"/>
<text text-anchor="start" x="324.5" y="-952.3" font-family="Helvetica,sans-Serif" font-weight="bold" font-size="11.00" fill="#000000">authorisation_audit</text>
<text text-anchor="start" x="497.5437" y="-951.8" font-family="Helvetica,sans-Serif" font-size="11.00" fill="#000000">[table]</text>
<polygon fill="none" stroke="#000000" points="319.5,-921.7 319.5,-943.7 532.5,-943.7 532.5,-921.7 319.5,-921.7"/>
<image xlink:href="../../images/primaryKeys.png" width="11px" height="12px" preserveAspectRatio="xMinYMin meet" x="324.5" y="-938.7"/>
<text text-anchor="start" x="339.5" y="-928.8" font-family="Helvetica,sans-Serif" font-size="11.00" fill="#000000">rev_id</text>
<polygon fill="#ffffff" stroke="transparent" points="319.5,-899.7 319.5,-921.7 532.5,-921.7 532.5,-899.7 319.5,-899.7"/>
<polygon fill="none" stroke="#000000" points="319.5,-899.7 319.5,-921.7 532.5,-921.7 532.5,-899.7 319.5,-899.7"/>
<text text-anchor="start" x="339.5" y="-906.8" font-family="Helvetica,sans-Serif" font-size="11.00" fill="#000000">rev_type</text>
<polygon fill="none" stroke="#000000" points="319.5,-877.7 319.5,-899.7 532.5,-899.7 532.5,-877.7 319.5,-877.7"/>
<image xlink:href="../../images/primaryKeys.png" width="11px" height="12px" preserveAspectRatio="xMinYMin meet" x="324.5" y="-894.7"/>
<text text-anchor="start" x="339.5" y="-884.8" font-family="Helvetica,sans-Serif" font-size="11.00" fill="#000000">id</text>
<polygon fill="none" stroke="#000000" points="319.5,-855.7 319.5,-877.7 532.5,-877.7 532.5,-855.7 319.5,-855.7"/>
<image xlink:href="../../images/foreignKeys.png" width="11px" height="12px" preserveAspectRatio="xMinYMin meet" x="324.5" y="-872.7"/>
<text text-anchor="start" x="339.5" y="-862.8" font-family="Helvetica,sans-Serif" font-size="11.00" fill="#000000">prison_code</text>
<polygon fill="none" stroke="#000000" points="319.5,-836.7 319.5,-855.7 532.5,-855.7 532.5,-836.7 319.5,-836.7"/>
<text text-anchor="start" x="322.5" y="-842.8" font-family="Helvetica,sans-Serif" font-size="11.00" fill="#000000">...</text>
<polygon fill="#ffffff" stroke="transparent" points="319.5,-817.7 319.5,-836.7 424.5,-836.7 424.5,-817.7 319.5,-817.7"/>
<polygon fill="none" stroke="#000000" points="319.5,-817.7 319.5,-836.7 424.5,-836.7 424.5,-817.7 319.5,-817.7"/>
<text text-anchor="start" x="322.5" y="-823.8" font-family="Helvetica,sans-Serif" font-size="11.00" fill="#000000">&lt; 2</text>
<polygon fill="#ffffff" stroke="transparent" points="424.5,-817.7 424.5,-836.7 478.5,-836.7 478.5,-817.7 424.5,-817.7"/>
<polygon fill="none" stroke="#000000" points="424.5,-817.7 424.5,-836.7 478.5,-836.7 478.5,-817.7 424.5,-817.7"/>
<text text-anchor="start" x="469.3862" y="-823.8" font-family="Helvetica,sans-Serif" font-size="11.00" fill="#000000"> &#160;</text>
<polygon fill="#ffffff" stroke="transparent" points="478.5,-817.7 478.5,-836.7 532.5,-836.7 532.5,-817.7 478.5,-817.7"/>
<polygon fill="none" stroke="#000000" points="478.5,-817.7 478.5,-836.7 532.5,-836.7 532.5,-817.7 478.5,-817.7"/>
<text text-anchor="start" x="523.3862" y="-823.8" font-family="Helvetica,sans-Serif" font-size="11.00" fill="#000000"> &#160;</text>
</a>
</g>
</g>
<!-- authorisation_audit&#45;&gt;prison_tap_locations -->
<g id="edge5" class="edge">
<title>authorisation_audit:w&#45;&gt;prison_tap_locations:e</title>
<path fill="none" stroke="#000000" stroke-dasharray="5,2" d="M305.0156,-866.7C292.6771,-866.7 285.1667,-866.7 268,-866.7"/>
<polygon fill="#000000" stroke="#000000" points="311.5,-866.7001 319.5,-870.3 315.5,-866.7 319.5,-866.7 319.5,-866.7 319.5,-866.7 315.5,-866.7 319.5,-863.1 311.5,-866.7001 311.5,-866.7001"/>
<ellipse fill="none" stroke="#000000" cx="308.3" cy="-866.7001" rx="3.2" ry="3.2"/>
</g>
<!-- movement -->
<g id="node7" class="node">
<title>movement</title>
<g id="a_node7"><a xlink:href="../../tables/movement.html" xlink:title="movement" target="_top">
<polygon fill="#ffffff" stroke="transparent" points="581,-457.2 581,-694.2 789,-694.2 789,-457.2 581,-457.2"/>
<polygon fill="#f5f5f5" stroke="transparent" points="581,-670.7 581,-693.7 789,-693.7 789,-670.7 581,-670.7"/>
<polygon fill="none" stroke="#000000" points="581,-670.7 581,-693.7 789,-693.7 789,-670.7 581,-670.7"/>
<text text-anchor="start" x="586" y="-679.3" font-family="Helvetica,sans-Serif" font-weight="bold" font-size="11.00" fill="#000000">movement</text>
<text text-anchor="start" x="754.0437" y="-678.8" font-family="Helvetica,sans-Serif" font-size="11.00" fill="#000000">[table]</text>
<polygon fill="none" stroke="#000000" points="581,-648.7 581,-670.7 789,-670.7 789,-648.7 581,-648.7"/>
<image xlink:href="../../images/primaryKeys.png" width="11px" height="12px" preserveAspectRatio="xMinYMin meet" x="586" y="-665.7"/>
<text text-anchor="start" x="601" y="-655.8" font-family="Helvetica,sans-Serif" font-size="11.00" fill="#000000">id</text>
<polygon fill="#ffffff" stroke="transparent" points="581,-626.7 581,-648.7 789,-648.7 789,-626.7 581,-626.7"/>
<polygon fill="none" stroke="#000000" points="581,-626.7 581,-648.7 789,-648.7 789,-626.7 581,-626.7"/>
<image xlink:href="../../images/foreignKeys.png" width="11px" height="12px" preserveAspectRatio="xMinYMin meet" x="586" y="-643.7"/>
<text text-anchor="start" x="601" y="-633.8" font-family="Helvetica,sans-Serif" font-size="11.00" fill="#000000">person_identifier</text>
<polygon fill="#ffffff" stroke="transparent" points="581,-604.7 581,-626.7 789,-626.7 789,-604.7 581,-604.7"/>
<polygon fill="none" stroke="#000000" points="581,-604.7 581,-626.7 789,-626.7 789,-604.7 581,-604.7"/>
<image xlink:href="../../images/foreignKeys.png" width="11px" height="12px" preserveAspectRatio="xMinYMin meet" x="586" y="-621.7"/>
<text text-anchor="start" x="601" y="-611.8" font-family="Helvetica,sans-Serif" font-size="11.00" fill="#000000">occurrence_id</text>
<polygon fill="#ffffff" stroke="transparent" points="581,-582.7 581,-604.7 789,-604.7 789,-582.7 581,-582.7"/>
<polygon fill="none" stroke="#000000" points="581,-582.7 581,-604.7 789,-604.7 789,-582.7 581,-582.7"/>
<text text-anchor="start" x="601" y="-589.8" font-family="Helvetica,sans-Serif" font-size="11.00" fill="#000000">occurred_at</text>
<polygon fill="none" stroke="#000000" points="581,-560.7 581,-582.7 789,-582.7 789,-560.7 581,-560.7"/>
<image xlink:href="../../images/foreignKeys.png" width="11px" height="12px" preserveAspectRatio="xMinYMin meet" x="586" y="-577.7"/>
<text text-anchor="start" x="601" y="-567.8" font-family="Helvetica,sans-Serif" font-size="11.00" fill="#000000">absence_reason_id</text>
<polygon fill="none" stroke="#000000" points="581,-538.7 581,-560.7 789,-560.7 789,-538.7 581,-538.7"/>
<image xlink:href="../../images/foreignKeys.png" width="11px" height="12px" preserveAspectRatio="xMinYMin meet" x="586" y="-555.7"/>
<text text-anchor="start" x="601" y="-545.8" font-family="Helvetica,sans-Serif" font-size="11.00" fill="#000000">accompanied_by_id</text>
<polygon fill="none" stroke="#000000" points="581,-516.7 581,-538.7 789,-538.7 789,-516.7 581,-516.7"/>
<image xlink:href="../../images/foreignKeys.png" width="11px" height="12px" preserveAspectRatio="xMinYMin meet" x="586" y="-533.7"/>
<text text-anchor="start" x="601" y="-523.8" font-family="Helvetica,sans-Serif" font-size="11.00" fill="#000000">prison_code</text>
<polygon fill="#ffffff" stroke="transparent" points="581,-494.7 581,-516.7 789,-516.7 789,-494.7 581,-494.7"/>
<polygon fill="none" stroke="#000000" points="581,-494.7 581,-516.7 789,-516.7 789,-494.7 581,-494.7"/>
<text text-anchor="start" x="601" y="-501.8" font-family="Helvetica,sans-Serif" font-size="11.00" fill="#000000">legacy_id</text>
<polygon fill="none" stroke="#000000" points="581,-475.7 581,-494.7 789,-494.7 789,-475.7 581,-475.7"/>
<text text-anchor="start" x="584" y="-481.8" font-family="Helvetica,sans-Serif" font-size="11.00" fill="#000000">...</text>
<polygon fill="#ffffff" stroke="transparent" points="581,-456.7 581,-475.7 683,-475.7 683,-456.7 581,-456.7"/>
<polygon fill="none" stroke="#000000" points="581,-456.7 581,-475.7 683,-475.7 683,-456.7 581,-456.7"/>
<text text-anchor="start" x="584" y="-462.8" font-family="Helvetica,sans-Serif" font-size="11.00" fill="#000000">&lt; 5</text>
<polygon fill="#ffffff" stroke="transparent" points="683,-456.7 683,-475.7 736,-475.7 736,-456.7 683,-456.7"/>
<polygon fill="none" stroke="#000000" points="683,-456.7 683,-475.7 736,-475.7 736,-456.7 683,-456.7"/>
<text text-anchor="start" x="726.8862" y="-462.8" font-family="Helvetica,sans-Serif" font-size="11.00" fill="#000000"> &#160;</text>
<polygon fill="#ffffff" stroke="transparent" points="736,-456.7 736,-475.7 789,-475.7 789,-456.7 736,-456.7"/>
<polygon fill="none" stroke="#000000" points="736,-456.7 736,-475.7 789,-475.7 789,-456.7 736,-456.7"/>
<text text-anchor="start" x="779.8862" y="-462.8" font-family="Helvetica,sans-Serif" font-size="11.00" fill="#000000"> &#160;</text>
</a>
</g>
</g>
<!-- movement&#45;&gt;prison_tap_locations -->
<g id="edge7" class="edge">
<title>movement:w&#45;&gt;prison_tap_locations:e</title>
<path fill="none" stroke="#000000" stroke-dasharray="5,2" d="M566.5263,-525.1098C532.0816,-509.5981 584.6329,-428.5731 540,-395.7 499.0253,-365.5213 348.5841,-361.3909 311,-395.7 233.3768,-466.5594 373.1019,-866.7 268,-866.7"/>
<polygon fill="#000000" stroke="#000000" points="573.1251,-526.2907 580.3658,-531.2437 577.0626,-526.9953 581,-527.7 581,-527.7 581,-527.7 577.0626,-526.9953 581.6342,-524.1563 573.1251,-526.2907 573.1251,-526.2907"/>
<ellipse fill="none" stroke="#000000" cx="569.9751" cy="-525.727" rx="3.2" ry="3.2"/>
</g>
<!-- occurrence -->
<g id="node8" class="node">
<title>occurrence</title>
<g id="a_node8"><a xlink:href="../../tables/occurrence.html" xlink:title="occurrence" target="_top">
<polygon fill="#ffffff" stroke="transparent" points="319,-406.2 319,-797.2 532,-797.2 532,-406.2 319,-406.2"/>
<polygon fill="#f5f5f5" stroke="transparent" points="319.5,-773.7 319.5,-796.7 532.5,-796.7 532.5,-773.7 319.5,-773.7"/>
<polygon fill="none" stroke="#000000" points="319.5,-773.7 319.5,-796.7 532.5,-796.7 532.5,-773.7 319.5,-773.7"/>
<text text-anchor="start" x="324.5" y="-782.3" font-family="Helvetica,sans-Serif" font-weight="bold" font-size="11.00" fill="#000000">occurrence</text>
<text text-anchor="start" x="497.5437" y="-781.8" font-family="Helvetica,sans-Serif" font-size="11.00" fill="#000000">[table]</text>
<polygon fill="none" stroke="#000000" points="319.5,-751.7 319.5,-773.7 532.5,-773.7 532.5,-751.7 319.5,-751.7"/>
<image xlink:href="../../images/primaryKeys.png" width="11px" height="12px" preserveAspectRatio="xMinYMin meet" x="324.5" y="-768.7"/>
<text text-anchor="start" x="339.5" y="-758.8" font-family="Helvetica,sans-Serif" font-size="11.00" fill="#000000">id</text>
<polygon fill="#ffffff" stroke="transparent" points="319.5,-729.7 319.5,-751.7 532.5,-751.7 532.5,-729.7 319.5,-729.7"/>
<polygon fill="none" stroke="#000000" points="319.5,-729.7 319.5,-751.7 532.5,-751.7 532.5,-729.7 319.5,-729.7"/>
<image xlink:href="../../images/foreignKeys.png" width="11px" height="12px" preserveAspectRatio="xMinYMin meet" x="324.5" y="-746.7"/>
<text text-anchor="start" x="339.5" y="-736.8" font-family="Helvetica,sans-Serif" font-size="11.00" fill="#000000">person_identifier</text>
<polygon fill="#ffffff" stroke="transparent" points="319.5,-707.7 319.5,-729.7 532.5,-729.7 532.5,-707.7 319.5,-707.7"/>
<polygon fill="none" stroke="#000000" points="319.5,-707.7 319.5,-729.7 532.5,-729.7 532.5,-707.7 319.5,-707.7"/>
<image xlink:href="../../images/foreignKeys.png" width="11px" height="12px" preserveAspectRatio="xMinYMin meet" x="324.5" y="-724.7"/>
<text text-anchor="start" x="339.5" y="-714.8" font-family="Helvetica,sans-Serif" font-size="11.00" fill="#000000">prison_code</text>
<polygon fill="#ffffff" stroke="transparent" points="319.5,-685.7 319.5,-707.7 532.5,-707.7 532.5,-685.7 319.5,-685.7"/>
<polygon fill="none" stroke="#000000" points="319.5,-685.7 319.5,-707.7 532.5,-707.7 532.5,-685.7 319.5,-685.7"/>
<text text-anchor="start" x="339.5" y="-692.8" font-family="Helvetica,sans-Serif" font-size="11.00" fill="#000000">authorisation_id</text>
<polygon fill="#ffffff" stroke="transparent" points="319.5,-663.7 319.5,-685.7 532.5,-685.7 532.5,-663.7 319.5,-663.7"/>
<polygon fill="none" stroke="#000000" points="319.5,-663.7 319.5,-685.7 532.5,-685.7 532.5,-663.7 319.5,-663.7"/>
<image xlink:href="../../images/foreignKeys.png" width="11px" height="12px" preserveAspectRatio="xMinYMin meet" x="324.5" y="-680.7"/>
<text text-anchor="start" x="339.5" y="-670.8" font-family="Helvetica,sans-Serif" font-size="11.00" fill="#000000">status_id</text>
<polygon fill="none" stroke="#000000" points="319.5,-641.7 319.5,-663.7 532.5,-663.7 532.5,-641.7 319.5,-641.7"/>
<image xlink:href="../../images/foreignKeys.png" width="11px" height="12px" preserveAspectRatio="xMinYMin meet" x="324.5" y="-658.7"/>
<text text-anchor="start" x="339.5" y="-648.8" font-family="Helvetica,sans-Serif" font-size="11.00" fill="#000000">absence_type_id</text>
<polygon fill="none" stroke="#000000" points="319.5,-619.7 319.5,-641.7 532.5,-641.7 532.5,-619.7 319.5,-619.7"/>
<image xlink:href="../../images/foreignKeys.png" width="11px" height="12px" preserveAspectRatio="xMinYMin meet" x="324.5" y="-636.7"/>
<text text-anchor="start" x="339.5" y="-626.8" font-family="Helvetica,sans-Serif" font-size="11.00" fill="#000000">absence_sub_type_id</text>
<polygon fill="none" stroke="#000000" points="319.5,-597.7 319.5,-619.7 532.5,-619.7 532.5,-597.7 319.5,-597.7"/>
<image xlink:href="../../images/foreignKeys.png" width="11px" height="12px" preserveAspectRatio="xMinYMin meet" x="324.5" y="-614.7"/>
<text text-anchor="start" x="339.5" y="-604.8" font-family="Helvetica,sans-Serif" font-size="11.00" fill="#000000">absence_reason_category_id</text>
<polygon fill="none" stroke="#000000" points="319.5,-575.7 319.5,-597.7 532.5,-597.7 532.5,-575.7 319.5,-575.7"/>
<image xlink:href="../../images/foreignKeys.png" width="11px" height="12px" preserveAspectRatio="xMinYMin meet" x="324.5" y="-592.7"/>
<text text-anchor="start" x="339.5" y="-582.8" font-family="Helvetica,sans-Serif" font-size="11.00" fill="#000000">absence_reason_id</text>
<polygon fill="none" stroke="#000000" points="319.5,-553.7 319.5,-575.7 532.5,-575.7 532.5,-553.7 319.5,-553.7"/>
<image xlink:href="../../images/foreignKeys.png" width="11px" height="12px" preserveAspectRatio="xMinYMin meet" x="324.5" y="-570.7"/>
<text text-anchor="start" x="339.5" y="-560.8" font-family="Helvetica,sans-Serif" font-size="11.00" fill="#000000">accompanied_by_id</text>
<polygon fill="none" stroke="#000000" points="319.5,-531.7 319.5,-553.7 532.5,-553.7 532.5,-531.7 319.5,-531.7"/>
<image xlink:href="../../images/foreignKeys.png" width="11px" height="12px" preserveAspectRatio="xMinYMin meet" x="324.5" y="-548.7"/>
<text text-anchor="start" x="339.5" y="-538.8" font-family="Helvetica,sans-Serif" font-size="11.00" fill="#000000">transport_id</text>
<polygon fill="#ffffff" stroke="transparent" points="319.5,-509.7 319.5,-531.7 532.5,-531.7 532.5,-509.7 319.5,-509.7"/>
<polygon fill="none" stroke="#000000" points="319.5,-509.7 319.5,-531.7 532.5,-531.7 532.5,-509.7 319.5,-509.7"/>
<text text-anchor="start" x="339.5" y="-516.8" font-family="Helvetica,sans-Serif" font-size="11.00" fill="#000000">start</text>
<polygon fill="#ffffff" stroke="transparent" points="319.5,-487.7 319.5,-509.7 532.5,-509.7 532.5,-487.7 319.5,-487.7"/>
<polygon fill="none" stroke="#000000" points="319.5,-487.7 319.5,-509.7 532.5,-509.7 532.5,-487.7 319.5,-487.7"/>
<text text-anchor="start" x="339.5" y="-494.8" font-family="Helvetica,sans-Serif" font-size="11.00" fill="#000000">end</text>
<polygon fill="#ffffff" stroke="transparent" points="319.5,-465.7 319.5,-487.7 532.5,-487.7 532.5,-465.7 319.5,-465.7"/>
<polygon fill="none" stroke="#000000" points="319.5,-465.7 319.5,-487.7 532.5,-487.7 532.5,-465.7 319.5,-465.7"/>
<text text-anchor="start" x="339.5" y="-472.8" font-family="Helvetica,sans-Serif" font-size="11.00" fill="#000000">legacy_id</text>
<polygon fill="#ffffff" stroke="transparent" points="319.5,-443.7 319.5,-465.7 532.5,-465.7 532.5,-443.7 319.5,-443.7"/>
<polygon fill="none" stroke="#000000" points="319.5,-443.7 319.5,-465.7 532.5,-465.7 532.5,-443.7 319.5,-443.7"/>
<text text-anchor="start" x="339.5" y="-450.8" font-family="Helvetica,sans-Serif" font-size="11.00" fill="#000000">dps_only</text>
<polygon fill="none" stroke="#000000" points="319.5,-424.7 319.5,-443.7 532.5,-443.7 532.5,-424.7 319.5,-424.7"/>
<text text-anchor="start" x="322.5" y="-430.8" font-family="Helvetica,sans-Serif" font-size="11.00" fill="#000000">...</text>
<polygon fill="#ffffff" stroke="transparent" points="319.5,-405.7 319.5,-424.7 419.5,-424.7 419.5,-405.7 319.5,-405.7"/>
<polygon fill="none" stroke="#000000" points="319.5,-405.7 319.5,-424.7 419.5,-424.7 419.5,-405.7 319.5,-405.7"/>
<text text-anchor="start" x="322.5" y="-411.8" font-family="Helvetica,sans-Serif" font-size="11.00" fill="#000000">&lt; 9</text>
<polygon fill="#ffffff" stroke="transparent" points="419.5,-405.7 419.5,-424.7 471.5,-424.7 471.5,-405.7 419.5,-405.7"/>
<polygon fill="none" stroke="#000000" points="419.5,-405.7 419.5,-424.7 471.5,-424.7 471.5,-405.7 419.5,-405.7"/>
<text text-anchor="start" x="462.3862" y="-411.8" font-family="Helvetica,sans-Serif" font-size="11.00" fill="#000000"> &#160;</text>
<polygon fill="#ffffff" stroke="transparent" points="471.5,-405.7 471.5,-424.7 532.5,-424.7 532.5,-405.7 471.5,-405.7"/>
<polygon fill="none" stroke="#000000" points="471.5,-405.7 471.5,-424.7 532.5,-424.7 532.5,-405.7 471.5,-405.7"/>
<text text-anchor="start" x="513.9053" y="-411.8" font-family="Helvetica,sans-Serif" font-size="11.00" fill="#000000">1 &gt;</text>
</a>
</g>
</g>
<!-- movement&#45;&gt;occurrence -->
<g id="edge6" class="edge">
<title>movement:w&#45;&gt;occurrence:e</title>
<path fill="none" stroke="#000000" d="M566.8202,-618.6364C526.054,-639.3546 595.5195,-762.7 532.5,-762.7"/>
<polygon fill="#000000" stroke="#000000" points="573.1662,-617.3223 581.73,-619.2252 577.0831,-616.5111 581,-615.7 581,-615.7 581,-615.7 577.0831,-616.5111 580.27,-612.1748 573.1662,-617.3223 573.1662,-617.3223"/>
<ellipse fill="none" stroke="#000000" cx="570.0327" cy="-617.9712" rx="3.2" ry="3.2"/>
</g>
<!-- occurrence&#45;&gt;prison_tap_locations -->
<g id="edge9" class="edge">
<title>occurrence:w&#45;&gt;prison_tap_locations:e</title>
<path fill="none" stroke="#000000" stroke-dasharray="5,2" d="M305.3649,-721.5243C263.1977,-741.9853 331.9332,-866.7 268,-866.7"/>
<polygon fill="#000000" stroke="#000000" points="311.6551,-720.2675 320.2054,-722.2302 315.5775,-719.4838 319.5,-718.7 319.5,-718.7 319.5,-718.7 315.5775,-719.4838 318.7946,-715.1698 311.6551,-720.2675 311.6551,-720.2675"/>
<ellipse fill="none" stroke="#000000" cx="308.5171" cy="-720.8946" rx="3.2" ry="3.2"/>
</g>
<!-- movement_audit -->
<g id="node9" class="node">
<title>movement_audit</title>
<g id="a_node9"><a xlink:href="../../tables/movement_audit.html" xlink:title="movement_audit" target="_top">
<polygon fill="#ffffff" stroke="transparent" points="321.5,-208.2 321.5,-357.2 529.5,-357.2 529.5,-208.2 321.5,-208.2"/>
<polygon fill="#f5f5f5" stroke="transparent" points="321.5,-333.7 321.5,-356.7 529.5,-356.7 529.5,-333.7 321.5,-333.7"/>
<polygon fill="none" stroke="#000000" points="321.5,-333.7 321.5,-356.7 529.5,-356.7 529.5,-333.7 321.5,-333.7"/>
<text text-anchor="start" x="326.5" y="-342.3" font-family="Helvetica,sans-Serif" font-weight="bold" font-size="11.00" fill="#000000">movement_audit</text>
<text text-anchor="start" x="494.5437" y="-341.8" font-family="Helvetica,sans-Serif" font-size="11.00" fill="#000000">[table]</text>
<polygon fill="none" stroke="#000000" points="321.5,-311.7 321.5,-333.7 529.5,-333.7 529.5,-311.7 321.5,-311.7"/>
<image xlink:href="../../images/primaryKeys.png" width="11px" height="12px" preserveAspectRatio="xMinYMin meet" x="326.5" y="-328.7"/>
<text text-anchor="start" x="341.5" y="-318.8" font-family="Helvetica,sans-Serif" font-size="11.00" fill="#000000">rev_id</text>
<polygon fill="#ffffff" stroke="transparent" points="321.5,-289.7 321.5,-311.7 529.5,-311.7 529.5,-289.7 321.5,-289.7"/>
<polygon fill="none" stroke="#000000" points="321.5,-289.7 321.5,-311.7 529.5,-311.7 529.5,-289.7 321.5,-289.7"/>
<text text-anchor="start" x="341.5" y="-296.8" font-family="Helvetica,sans-Serif" font-size="11.00" fill="#000000">rev_type</text>
<polygon fill="none" stroke="#000000" points="321.5,-267.7 321.5,-289.7 529.5,-289.7 529.5,-267.7 321.5,-267.7"/>
<image xlink:href="../../images/primaryKeys.png" width="11px" height="12px" preserveAspectRatio="xMinYMin meet" x="326.5" y="-284.7"/>
<text text-anchor="start" x="341.5" y="-274.8" font-family="Helvetica,sans-Serif" font-size="11.00" fill="#000000">id</text>
<polygon fill="none" stroke="#000000" points="321.5,-245.7 321.5,-267.7 529.5,-267.7 529.5,-245.7 321.5,-245.7"/>
<image xlink:href="../../images/foreignKeys.png" width="11px" height="12px" preserveAspectRatio="xMinYMin meet" x="326.5" y="-262.7"/>
<text text-anchor="start" x="341.5" y="-252.8" font-family="Helvetica,sans-Serif" font-size="11.00" fill="#000000">prison_code</text>
<polygon fill="none" stroke="#000000" points="321.5,-226.7 321.5,-245.7 529.5,-245.7 529.5,-226.7 321.5,-226.7"/>
<text text-anchor="start" x="324.5" y="-232.8" font-family="Helvetica,sans-Serif" font-size="11.00" fill="#000000">...</text>
<polygon fill="#ffffff" stroke="transparent" points="321.5,-207.7 321.5,-226.7 423.5,-226.7 423.5,-207.7 321.5,-207.7"/>
<polygon fill="none" stroke="#000000" points="321.5,-207.7 321.5,-226.7 423.5,-226.7 423.5,-207.7 321.5,-207.7"/>
<text text-anchor="start" x="324.5" y="-213.8" font-family="Helvetica,sans-Serif" font-size="11.00" fill="#000000">&lt; 2</text>
<polygon fill="#ffffff" stroke="transparent" points="423.5,-207.7 423.5,-226.7 476.5,-226.7 476.5,-207.7 423.5,-207.7"/>
<polygon fill="none" stroke="#000000" points="423.5,-207.7 423.5,-226.7 476.5,-226.7 476.5,-207.7 423.5,-207.7"/>
<text text-anchor="start" x="467.3862" y="-213.8" font-family="Helvetica,sans-Serif" font-size="11.00" fill="#000000"> &#160;</text>
<polygon fill="#ffffff" stroke="transparent" points="476.5,-207.7 476.5,-226.7 529.5,-226.7 529.5,-207.7 476.5,-207.7"/>
<polygon fill="none" stroke="#000000" points="476.5,-207.7 476.5,-226.7 529.5,-226.7 529.5,-207.7 476.5,-207.7"/>
<text text-anchor="start" x="520.3862" y="-213.8" font-family="Helvetica,sans-Serif" font-size="11.00" fill="#000000"> &#160;</text>
</a>
</g>
</g>
<!-- movement_audit&#45;&gt;prison_tap_locations -->
<g id="edge8" class="edge">
<title>movement_audit:w&#45;&gt;prison_tap_locations:e</title>
<path fill="none" stroke="#000000" stroke-dasharray="5,2" d="M309.5621,-264.8619C264.0479,-337.2479 331.3869,-866.7 268,-866.7"/>
<polygon fill="#000000" stroke="#000000" points="314.896,-261.2152 323.5318,-259.6718 318.198,-258.9576 321.5,-256.7 321.5,-256.7 321.5,-256.7 318.198,-258.9576 319.4682,-253.7282 314.896,-261.2152 314.896,-261.2152"/>
<ellipse fill="none" stroke="#000000" cx="312.2543" cy="-263.0213" rx="3.2" ry="3.2"/>
</g>
<!-- occurrence_audit -->
<g id="node10" class="node">
<title>occurrence_audit</title>
<g id="a_node10"><a xlink:href="../../tables/occurrence_audit.html" xlink:title="occurrence_audit" target="_top">
<polygon fill="#ffffff" stroke="transparent" points="319,-38.2 319,-187.2 532,-187.2 532,-38.2 319,-38.2"/>
<polygon fill="#f5f5f5" stroke="transparent" points="319.5,-163.7 319.5,-186.7 532.5,-186.7 532.5,-163.7 319.5,-163.7"/>
<polygon fill="none" stroke="#000000" points="319.5,-163.7 319.5,-186.7 532.5,-186.7 532.5,-163.7 319.5,-163.7"/>
<text text-anchor="start" x="324.5" y="-172.3" font-family="Helvetica,sans-Serif" font-weight="bold" font-size="11.00" fill="#000000">occurrence_audit</text>
<text text-anchor="start" x="497.5437" y="-171.8" font-family="Helvetica,sans-Serif" font-size="11.00" fill="#000000">[table]</text>
<polygon fill="none" stroke="#000000" points="319.5,-141.7 319.5,-163.7 532.5,-163.7 532.5,-141.7 319.5,-141.7"/>
<image xlink:href="../../images/primaryKeys.png" width="11px" height="12px" preserveAspectRatio="xMinYMin meet" x="324.5" y="-158.7"/>
<text text-anchor="start" x="339.5" y="-148.8" font-family="Helvetica,sans-Serif" font-size="11.00" fill="#000000">rev_id</text>
<polygon fill="#ffffff" stroke="transparent" points="319.5,-119.7 319.5,-141.7 532.5,-141.7 532.5,-119.7 319.5,-119.7"/>
<polygon fill="none" stroke="#000000" points="319.5,-119.7 319.5,-141.7 532.5,-141.7 532.5,-119.7 319.5,-119.7"/>
<text text-anchor="start" x="339.5" y="-126.8" font-family="Helvetica,sans-Serif" font-size="11.00" fill="#000000">rev_type</text>
<polygon fill="none" stroke="#000000" points="319.5,-97.7 319.5,-119.7 532.5,-119.7 532.5,-97.7 319.5,-97.7"/>
<image xlink:href="../../images/primaryKeys.png" width="11px" height="12px" preserveAspectRatio="xMinYMin meet" x="324.5" y="-114.7"/>
<text text-anchor="start" x="339.5" y="-104.8" font-family="Helvetica,sans-Serif" font-size="11.00" fill="#000000">id</text>
<polygon fill="none" stroke="#000000" points="319.5,-75.7 319.5,-97.7 532.5,-97.7 532.5,-75.7 319.5,-75.7"/>
<image xlink:href="../../images/foreignKeys.png" width="11px" height="12px" preserveAspectRatio="xMinYMin meet" x="324.5" y="-92.7"/>
<text text-anchor="start" x="339.5" y="-82.8" font-family="Helvetica,sans-Serif" font-size="11.00" fill="#000000">prison_code</text>
<polygon fill="none" stroke="#000000" points="319.5,-56.7 319.5,-75.7 532.5,-75.7 532.5,-56.7 319.5,-56.7"/>
<text text-anchor="start" x="322.5" y="-62.8" font-family="Helvetica,sans-Serif" font-size="11.00" fill="#000000">...</text>
<polygon fill="#ffffff" stroke="transparent" points="319.5,-37.7 319.5,-56.7 424.5,-56.7 424.5,-37.7 319.5,-37.7"/>
<polygon fill="none" stroke="#000000" points="319.5,-37.7 319.5,-56.7 424.5,-56.7 424.5,-37.7 319.5,-37.7"/>
<text text-anchor="start" x="322.5" y="-43.8" font-family="Helvetica,sans-Serif" font-size="11.00" fill="#000000">&lt; 2</text>
<polygon fill="#ffffff" stroke="transparent" points="424.5,-37.7 424.5,-56.7 478.5,-56.7 478.5,-37.7 424.5,-37.7"/>
<polygon fill="none" stroke="#000000" points="424.5,-37.7 424.5,-56.7 478.5,-56.7 478.5,-37.7 424.5,-37.7"/>
<text text-anchor="start" x="469.3862" y="-43.8" font-family="Helvetica,sans-Serif" font-size="11.00" fill="#000000"> &#160;</text>
<polygon fill="#ffffff" stroke="transparent" points="478.5,-37.7 478.5,-56.7 532.5,-56.7 532.5,-37.7 478.5,-37.7"/>
<polygon fill="none" stroke="#000000" points="478.5,-37.7 478.5,-56.7 532.5,-56.7 532.5,-37.7 478.5,-37.7"/>
<text text-anchor="start" x="523.3862" y="-43.8" font-family="Helvetica,sans-Serif" font-size="11.00" fill="#000000"> &#160;</text>
</a>
</g>
</g>
<!-- occurrence_audit&#45;&gt;prison_tap_locations -->
<g id="edge10" class="edge">
<title>occurrence_audit:w&#45;&gt;prison_tap_locations:e</title>
<path fill="none" stroke="#000000" stroke-dasharray="5,2" d="M306.6775,-93.9236C245.8181,-172.557 349.9358,-866.7 268,-866.7"/>
<polygon fill="#000000" stroke="#000000" points="312.5299,-90.6267 321.267,-89.8365 316.015,-88.6633 319.5,-86.7 319.5,-86.7 319.5,-86.7 316.015,-88.6633 317.733,-83.5635 312.5299,-90.6267 312.5299,-90.6267"/>
<ellipse fill="none" stroke="#000000" cx="309.7419" cy="-92.1973" rx="3.2" ry="3.2"/>
</g>
</g>
</svg>
