<?xml version="1.0" encoding="UTF-8" standalone="no"?>
<!DOCTYPE svg PUBLIC "-//W3C//DTD SVG 1.1//EN"
 "http://www.w3.org/Graphics/SVG/1.1/DTD/svg11.dtd">
<!-- Generated by graphviz version 2.40.1 (20161225.0304)
 -->
<!-- Title: oneDegreeRelationshipsDiagram Pages: 1 -->
<svg width="555pt" height="206pt"
 viewBox="0.00 0.00 555.00 206.20" xmlns="http://www.w3.org/2000/svg" xmlns:xlink="http://www.w3.org/1999/xlink">
<g id="graph0" class="graph" transform="scale(1 1) rotate(0) translate(4 202.2)">
<title>oneDegreeRelationshipsDiagram</title>
<polygon fill="#ffffff" stroke="transparent" points="-4,4 -4,-202.2 551,-202.2 551,4 -4,4"/>
<text text-anchor="middle" x="72.4936" y="-7.3" font-family="Helvetica,sans-Serif" font-size="11.00" fill="#000000">Generated by SchemaSpy</text>
<!-- prison_tap_locations_audit -->
<g id="node1" class="node">
<title>prison_tap_locations_audit</title>
<g id="a_node1"><a xlink:href="../../tables/prison_tap_locations_audit.html" xlink:title="prison_tap_locations_audit" target="_top">
<polygon fill="#ffffff" stroke="transparent" points="236,-38.2 236,-194.2 539,-194.2 539,-38.2 236,-38.2"/>
<polygon fill="#f5f5f5" stroke="transparent" points="238.5,-169.2 238.5,-192.2 537.5,-192.2 537.5,-169.2 238.5,-169.2"/>
<polygon fill="none" stroke="#000000" points="238.5,-169.2 238.5,-192.2 537.5,-192.2 537.5,-169.2 238.5,-169.2"/>
<text text-anchor="start" x="243.5" y="-177.8" font-family="Helvetica,sans-Serif" font-weight="bold" font-size="11.00" fill="#000000">prison_tap_locations_audit</text>
<text text-anchor="start" x="502.5437" y="-177.3" font-family="Helvetica,sans-Serif" font-size="11.00" fill="#000000">[table]</text>
<polygon fill="none" stroke="#000000" points="238.5,-147.2 238.5,-169.2 438.5,-169.2 438.5,-147.2 238.5,-147.2"/>
<image xlink:href="../../images/primaryKeys.png" width="11px" height="12px" preserveAspectRatio="xMinYMin meet" x="243.5" y="-164.2"/>
<text text-anchor="start" x="258.5" y="-154.3" font-family="Helvetica,sans-Serif" font-size="11.00" fill="#000000">rev_id</text>
<polygon fill="none" stroke="#000000" points="438.5,-147.2 438.5,-169.2 537.5,-169.2 537.5,-147.2 438.5,-147.2"/>
<text text-anchor="start" x="441.5" y="-154.9" font-family="Helvetica,sans-Serif" font-size="11.00" fill="#000000">int8[19]</text>
<polygon fill="none" stroke="#000000" points="238.5,-125.2 238.5,-147.2 438.5,-147.2 438.5,-125.2 238.5,-125.2"/>
<text text-anchor="start" x="258.5" y="-132.3" font-family="Helvetica,sans-Serif" font-size="11.00" fill="#000000">rev_type</text>
<polygon fill="none" stroke="#000000" points="438.5,-125.2 438.5,-147.2 537.5,-147.2 537.5,-125.2 438.5,-125.2"/>
<text text-anchor="start" x="441.5" y="-132.9" font-family="Helvetica,sans-Serif" font-size="11.00" fill="#000000">int2[5]</text>
<polygon fill="none" stroke="#000000" points="238.5,-103.2 238.5,-125.2 438.5,-125.2 438.5,-103.2 238.5,-103.2"/>
<image xlink:href="../../images/primaryKeys.png" width="11px" height="12px" preserveAspectRatio="xMinYMin meet" x="243.5" y="-120.2"/>
<text text-anchor="start" x="258.5" y="-110.3" font-family="Helvetica,sans-Serif" font-size="11.00" fill="#000000">prison_code</text>
<polygon fill="none" stroke="#000000" points="438.5,-103.2 438.5,-125.2 537.5,-125.2 537.5,-103.2 438.5,-103.2"/>
<text text-anchor="start" x="441.5" y="-110.9" font-family="Helvetica,sans-Serif" font-size="11.00" fill="#000000">varchar[6]</text>
<polygon fill="none" stroke="#000000" points="238.5,-81.2 238.5,-103.2 438.5,-103.2 438.5,-81.2 238.5,-81.2"/>
<text text-anchor="start" x="258.5" y="-88.3" font-family="Helvetica,sans-Serif" font-size="11.00" fill="#000000">locations</text>
<polygon fill="none" stroke="#000000" points="438.5,-81.2 438.5,-103.2 537.5,-103.2 537.5,-81.2 438.5,-81.2"/>
<text text-anchor="start" x="441.2258" y="-88.9" font-family="Helvetica,sans-Serif" font-size="11.00" fill="#000000">jsonb[2147483647]</text>
<polygon fill="none" stroke="#000000" points="238.5,-59.2 238.5,-81.2 438.5,-81.2 438.5,-59.2 238.5,-59.2"/>
<text text-anchor="start" x="258.5" y="-66.3" font-family="Helvetica,sans-Serif" font-size="11.00" fill="#000000">version</text>
<polygon fill="none" stroke="#000000" points="438.5,-59.2 438.5,-81.2 537.5,-81.2 537.5,-59.2 438.5,-59.2"/>
<text text-anchor="start" x="441.5" y="-66.9" font-family="Helvetica,sans-Serif" font-size="11.00" fill="#000000">int4[10]</text>
<polygon fill="#ffffff" stroke="transparent" points="238.5,-40.2 238.5,-59.2 342.5,-59.2 342.5,-40.2 238.5,-40.2"/>
<polygon fill="none" stroke="#000000" points="238.5,-40.2 238.5,-59.2 342.5,-59.2 342.5,-40.2 238.5,-40.2"/>
<text text-anchor="start" x="241.5" y="-46.3" font-family="Helvetica,sans-Serif" font-size="11.00" fill="#000000">&lt; 1</text>
<polygon fill="#ffffff" stroke="transparent" points="342.5,-40.2 342.5,-59.2 438.5,-59.2 438.5,-40.2 342.5,-40.2"/>
<polygon fill="none" stroke="#000000" points="342.5,-40.2 342.5,-59.2 438.5,-59.2 438.5,-40.2 342.5,-40.2"/>
<text text-anchor="start" x="429.3862" y="-46.3" font-family="Helvetica,sans-Serif" font-size="11.00" fill="#000000"> &#160;</text>
<polygon fill="#ffffff" stroke="transparent" points="438.5,-40.2 438.5,-59.2 537.5,-59.2 537.5,-40.2 438.5,-40.2"/>
<polygon fill="none" stroke="#000000" points="438.5,-40.2 438.5,-59.2 537.5,-59.2 537.5,-40.2 438.5,-40.2"/>
<text text-anchor="start" x="518.9053" y="-46.3" font-family="Helvetica,sans-Serif" font-size="11.00" fill="#000000">0 &gt;</text>
<polygon fill="none" stroke="#000000" stroke-width="2" points="237,-39.2 237,-193.2 538,-193.2 538,-39.2 237,-39.2"/>
</a>
</g>
</g>
<!-- public.audit_revision -->
<g id="node2" class="node">
<title>public.audit_revision</title>
<g id="a_node2"><a xlink:href="../../../public/tables/audit_revision.html" xlink:title="public.audit_revision" target="_top">
<polygon fill="#ffffff" stroke="transparent" points="8,-127.7 8,-188.7 187,-188.7 187,-127.7 8,-127.7"/>
<polygon fill="#f5f5f5" stroke="transparent" points="8.5,-165.2 8.5,-188.2 187.5,-188.2 187.5,-165.2 8.5,-165.2"/>
<polygon fill="none" stroke="#000000" points="8.5,-165.2 8.5,-188.2 187.5,-188.2 187.5,-165.2 8.5,-165.2"/>
<text text-anchor="start" x="13.5" y="-173.8" font-family="Helvetica,sans-Serif" font-weight="bold" font-size="11.00" fill="#000000">public.audit_revision</text>
<text text-anchor="start" x="153.0219" y="-173.3" font-family="Helvetica,sans-Serif" font-size="11.00" fill="#000000">[table]</text>
<polygon fill="none" stroke="#000000" points="8.5,-146.2 8.5,-165.2 187.5,-165.2 187.5,-146.2 8.5,-146.2"/>
<text text-anchor="start" x="11.5" y="-152.3" font-family="Helvetica,sans-Serif" font-size="11.00" fill="#000000">...</text>
<polygon fill="#ffffff" stroke="transparent" points="8.5,-127.2 8.5,-146.2 74.5,-146.2 74.5,-127.2 8.5,-127.2"/>
<polygon fill="none" stroke="#000000" points="8.5,-127.2 8.5,-146.2 74.5,-146.2 74.5,-127.2 8.5,-127.2"/>
<text text-anchor="start" x="11.5" y="-133.3" font-family="Helvetica,sans-Serif" font-size="11.00" fill="#000000"> &#160;</text>
<polygon fill="#ffffff" stroke="transparent" points="74.5,-127.2 74.5,-146.2 139.5,-146.2 139.5,-127.2 74.5,-127.2"/>
<polygon fill="none" stroke="#000000" points="74.5,-127.2 74.5,-146.2 139.5,-146.2 139.5,-127.2 74.5,-127.2"/>
<text text-anchor="start" x="104.1105" y="-133.3" font-family="Helvetica,sans-Serif" font-size="11.00" fill="#000000">0 rows</text>
<polygon fill="#ffffff" stroke="transparent" points="139.5,-127.2 139.5,-146.2 187.5,-146.2 187.5,-127.2 139.5,-127.2"/>
<polygon fill="none" stroke="#000000" points="139.5,-127.2 139.5,-146.2 187.5,-146.2 187.5,-127.2 139.5,-127.2"/>
<text text-anchor="start" x="168.9053" y="-133.3" font-family="Helvetica,sans-Serif" font-size="11.00" fill="#000000">4 &gt;</text>
</a>
</g>
</g>
<!-- prison_tap_locations_audit&#45;&gt;public.audit_revision -->
<g id="edge1" class="edge">
<title>prison_tap_locations_audit:w&#45;&gt;public.audit_revision:e</title>
<path fill="none" stroke="#000000" d="M223.8777,-158.2C214.451,-158.2 204.8434,-158.2 195.3482,-158.2"/>
<polygon fill="#000000" stroke="#000000" points="230.5,-158.2001 238.5,-161.8 234.5,-158.2 238.5,-158.2 238.5,-158.2 238.5,-158.2 234.5,-158.2 238.5,-154.6 230.5,-158.2001 230.5,-158.2001"/>
<ellipse fill="none" stroke="#000000" cx="227.3" cy="-158.2001" rx="3.2" ry="3.2"/>
</g>
</g>
</svg>
