<?xml version="1.0" encoding="UTF-8" standalone="no"?>
<!DOCTYPE svg PUBLIC "-//W3C//DTD SVG 1.1//EN"
 "http://www.w3.org/Graphics/SVG/1.1/DTD/svg11.dtd">
<!-- Generated by graphviz version 2.40.1 (20161225.0304)
 -->
<!-- Title: oneDegreeRelationshipsDiagramImplied Pages: 1 -->
<svg width="805pt" height="1537pt"
 viewBox="0.00 0.00 805.00 1536.70" xmlns="http://www.w3.org/2000/svg" xmlns:xlink="http://www.w3.org/1999/xlink">
<g id="graph0" class="graph" transform="scale(1 1) rotate(0) translate(4 1532.7)">
<title>oneDegreeRelationshipsDiagramImplied</title>
<polygon fill="#ffffff" stroke="transparent" points="-4,4 -4,-1532.7 801,-1532.7 801,4 -4,4"/>
<text text-anchor="middle" x="72.4936" y="-7.3" font-family="Helvetica,sans-Serif" font-size="11.00" fill="#000000">Generated by SchemaSpy</text>
<!-- audited_authorisation -->
<g id="node1" class="node">
<title>audited_authorisation</title>
<g id="a_node1"><a xlink:href="../../tables/audited_authorisation.html" xlink:title="audited_authorisation" target="_top">
<polygon fill="#ffffff" stroke="transparent" points="319,-1460.7 319,-1524.7 532,-1524.7 532,-1460.7 319,-1460.7"/>
<polygon fill="#f5f5f5" stroke="transparent" points="319.5,-1501.7 319.5,-1524.7 532.5,-1524.7 532.5,-1501.7 319.5,-1501.7"/>
<polygon fill="none" stroke="#000000" points="319.5,-1501.7 319.5,-1524.7 532.5,-1524.7 532.5,-1501.7 319.5,-1501.7"/>
<text text-anchor="start" x="324.5" y="-1510.3" font-family="Helvetica,sans-Serif" font-weight="bold" font-size="11.00" fill="#000000">audited_authorisation</text>
<text text-anchor="start" x="499.3895" y="-1509.8" font-family="Helvetica,sans-Serif" font-size="11.00" fill="#000000">[view]</text>
<polygon fill="none" stroke="#000000" points="319.5,-1479.7 319.5,-1501.7 532.5,-1501.7 532.5,-1479.7 319.5,-1479.7"/>
<image xlink:href="../../images/foreignKeys.png" width="11px" height="12px" preserveAspectRatio="xMinYMin meet" x="324.5" y="-1496.7"/>
<text text-anchor="start" x="339.5" y="-1486.8" font-family="Helvetica,sans-Serif" font-size="11.00" fill="#000000">prison_code</text>
<polygon fill="none" stroke="#000000" points="319.5,-1460.7 319.5,-1479.7 532.5,-1479.7 532.5,-1460.7 319.5,-1460.7"/>
<text text-anchor="start" x="322.5" y="-1466.8" font-family="Helvetica,sans-Serif" font-size="11.00" fill="#000000">...</text>
</a>
</g>
</g>
<!-- prison_tap_locations -->
<g id="node2" class="node">
<title>prison_tap_locations</title>
<g id="a_node2"><a xlink:href="../../tables/prison_tap_locations.html" xlink:title="prison_tap_locations" target="_top">
<polygon fill="#ffffff" stroke="transparent" points="8,-746.7 8,-858.7 270,-858.7 270,-746.7 8,-746.7"/>
<polygon fill="#f5f5f5" stroke="transparent" points="10,-833.7 10,-856.7 268,-856.7 268,-833.7 10,-833.7"/>
<polygon fill="none" stroke="#000000" points="10,-833.7 10,-856.7 268,-856.7 268,-833.7 10,-833.7"/>
<text text-anchor="start" x="15" y="-842.3" font-family="Helvetica,sans-Serif" font-weight="bold" font-size="11.00" fill="#000000">prison_tap_locations</text>
<text text-anchor="start" x="233.0437" y="-841.8" font-family="Helvetica,sans-Serif" font-size="11.00" fill="#000000">[table]</text>
<polygon fill="none" stroke="#000000" points="10,-811.7 10,-833.7 169,-833.7 169,-811.7 10,-811.7"/>
<image xlink:href="../../images/primaryKeys.png" width="11px" height="12px" preserveAspectRatio="xMinYMin meet" x="15" y="-828.7"/>
<text text-anchor="start" x="30" y="-818.8" font-family="Helvetica,sans-Serif" font-size="11.00" fill="#000000">prison_code</text>
<polygon fill="none" stroke="#000000" points="169,-811.7 169,-833.7 268,-833.7 268,-811.7 169,-811.7"/>
<text text-anchor="start" x="172" y="-819.4" font-family="Helvetica,sans-Serif" font-size="11.00" fill="#000000">varchar[6]</text>
<polygon fill="none" stroke="#000000" points="10,-789.7 10,-811.7 169,-811.7 169,-789.7 10,-789.7"/>
<text text-anchor="start" x="30" y="-796.8" font-family="Helvetica,sans-Serif" font-size="11.00" fill="#000000">locations</text>
<polygon fill="none" stroke="#000000" points="169,-789.7 169,-811.7 268,-811.7 268,-789.7 169,-789.7"/>
<text text-anchor="start" x="171.7258" y="-797.4" font-family="Helvetica,sans-Serif" font-size="11.00" fill="#000000">jsonb[2147483647]</text>
<polygon fill="none" stroke="#000000" points="10,-767.7 10,-789.7 169,-789.7 169,-767.7 10,-767.7"/>
<text text-anchor="start" x="30" y="-774.8" font-family="Helvetica,sans-Serif" font-size="11.00" fill="#000000">version</text>
<polygon fill="none" stroke="#000000" points="169,-767.7 169,-789.7 268,-789.7 268,-767.7 169,-767.7"/>
<text text-anchor="start" x="172" y="-775.4" font-family="Helvetica,sans-Serif" font-size="11.00" fill="#000000">int4[10]</text>
<polygon fill="#ffffff" stroke="transparent" points="10,-748.7 10,-767.7 94,-767.7 94,-748.7 10,-748.7"/>
<polygon fill="none" stroke="#000000" points="10,-748.7 10,-767.7 94,-767.7 94,-748.7 10,-748.7"/>
<text text-anchor="start" x="13" y="-754.8" font-family="Helvetica,sans-Serif" font-size="11.00" fill="#000000">&lt; 0</text>
<polygon fill="#ffffff" stroke="transparent" points="94,-748.7 94,-767.7 169,-767.7 169,-748.7 94,-748.7"/>
<polygon fill="none" stroke="#000000" points="94,-748.7 94,-767.7 169,-767.7 169,-748.7 94,-748.7"/>
<text text-anchor="start" x="159.8862" y="-754.8" font-family="Helvetica,sans-Serif" font-size="11.00" fill="#000000"> &#160;</text>
<polygon fill="#ffffff" stroke="transparent" points="169,-748.7 169,-767.7 268,-767.7 268,-748.7 169,-748.7"/>
<polygon fill="none" stroke="#000000" points="169,-748.7 169,-767.7 268,-767.7 268,-748.7 169,-748.7"/>
<text text-anchor="start" x="249.4053" y="-754.8" font-family="Helvetica,sans-Serif" font-size="11.00" fill="#000000">9 &gt;</text>
<polygon fill="none" stroke="#000000" stroke-width="2" points="9,-747.7 9,-857.7 269,-857.7 269,-747.7 9,-747.7"/>
</a>
</g>
</g>
<!-- audited_authorisation&#45;&gt;prison_tap_locations -->
<g id="edge1" class="edge">
<title>audited_authorisation:w&#45;&gt;prison_tap_locations:e</title>
<path fill="none" stroke="#000000" stroke-dasharray="5,2" d="M307.1553,-1482.7327C256.8972,-1407.3656 337.6444,-822.7 268,-822.7"/>
<polygon fill="#000000" stroke="#000000" points="312.7784,-1486.3618 317.5478,-1493.7247 316.1392,-1488.5309 319.5,-1490.7 319.5,-1490.7 319.5,-1490.7 316.1392,-1488.5309 321.4522,-1487.6753 312.7784,-1486.3618 312.7784,-1486.3618"/>
<ellipse fill="none" stroke="#000000" cx="310.0897" cy="-1484.6266" rx="3.2" ry="3.2"/>
</g>
<!-- audited_movement -->
<g id="node3" class="node">
<title>audited_movement</title>
<g id="a_node3"><a xlink:href="../../tables/audited_movement.html" xlink:title="audited_movement" target="_top">
<polygon fill="#ffffff" stroke="transparent" points="321.5,-1375.7 321.5,-1439.7 529.5,-1439.7 529.5,-1375.7 321.5,-1375.7"/>
<polygon fill="#f5f5f5" stroke="transparent" points="321.5,-1416.7 321.5,-1439.7 529.5,-1439.7 529.5,-1416.7 321.5,-1416.7"/>
<polygon fill="none" stroke="#000000" points="321.5,-1416.7 321.5,-1439.7 529.5,-1439.7 529.5,-1416.7 321.5,-1416.7"/>
<text text-anchor="start" x="326.5" y="-1425.3" font-family="Helvetica,sans-Serif" font-weight="bold" font-size="11.00" fill="#000000">audited_movement</text>
<text text-anchor="start" x="496.3895" y="-1424.8" font-family="Helvetica,sans-Serif" font-size="11.00" fill="#000000">[view]</text>
<polygon fill="none" stroke="#000000" points="321.5,-1394.7 321.5,-1416.7 529.5,-1416.7 529.5,-1394.7 321.5,-1394.7"/>
<image xlink:href="../../images/foreignKeys.png" width="11px" height="12px" preserveAspectRatio="xMinYMin meet" x="326.5" y="-1411.7"/>
<text text-anchor="start" x="341.5" y="-1401.8" font-family="Helvetica,sans-Serif" font-size="11.00" fill="#000000">prison_code</text>
<polygon fill="none" stroke="#000000" points="321.5,-1375.7 321.5,-1394.7 529.5,-1394.7 529.5,-1375.7 321.5,-1375.7"/>
<text text-anchor="start" x="324.5" y="-1381.8" font-family="Helvetica,sans-Serif" font-size="11.00" fill="#000000">...</text>
</a>
</g>
</g>
<!-- audited_movement&#45;&gt;prison_tap_locations -->
<g id="edge2" class="edge">
<title>audited_movement:w&#45;&gt;prison_tap_locations:e</title>
<path fill="none" stroke="#000000" stroke-dasharray="5,2" d="M309.5097,-1397.0062C266.7814,-1324.4829 328.3491,-822.7 268,-822.7"/>
<polygon fill="#000000" stroke="#000000" points="315.0233,-1401.0039 319.3868,-1408.6145 318.2617,-1403.352 321.5,-1405.7 321.5,-1405.7 321.5,-1405.7 318.2617,-1403.352 323.6132,-1402.7855 315.0233,-1401.0039 315.0233,-1401.0039"/>
<ellipse fill="none" stroke="#000000" cx="312.4326" cy="-1399.1255" rx="3.2" ry="3.2"/>
</g>
<!-- audited_occurrence -->
<g id="node4" class="node">
<title>audited_occurrence</title>
<g id="a_node4"><a xlink:href="../../tables/audited_occurrence.html" xlink:title="audited_occurrence" target="_top">
<polygon fill="#ffffff" stroke="transparent" points="319,-1290.7 319,-1354.7 532,-1354.7 532,-1290.7 319,-1290.7"/>
<polygon fill="#f5f5f5" stroke="transparent" points="319.5,-1331.7 319.5,-1354.7 532.5,-1354.7 532.5,-1331.7 319.5,-1331.7"/>
<polygon fill="none" stroke="#000000" points="319.5,-1331.7 319.5,-1354.7 532.5,-1354.7 532.5,-1331.7 319.5,-1331.7"/>
<text text-anchor="start" x="324.5" y="-1340.3" font-family="Helvetica,sans-Serif" font-weight="bold" font-size="11.00" fill="#000000">audited_occurrence</text>
<text text-anchor="start" x="499.3895" y="-1339.8" font-family="Helvetica,sans-Serif" font-size="11.00" fill="#000000">[view]</text>
<polygon fill="none" stroke="#000000" points="319.5,-1309.7 319.5,-1331.7 532.5,-1331.7 532.5,-1309.7 319.5,-1309.7"/>
<image xlink:href="../../images/foreignKeys.png" width="11px" height="12px" preserveAspectRatio="xMinYMin meet" x="324.5" y="-1326.7"/>
<text text-anchor="start" x="339.5" y="-1316.8" font-family="Helvetica,sans-Serif" font-size="11.00" fill="#000000">prison_code</text>
<polygon fill="none" stroke="#000000" points="319.5,-1290.7 319.5,-1309.7 532.5,-1309.7 532.5,-1290.7 319.5,-1290.7"/>
<text text-anchor="start" x="322.5" y="-1296.8" font-family="Helvetica,sans-Serif" font-size="11.00" fill="#000000">...</text>
</a>
</g>
</g>
<!-- audited_occurrence&#45;&gt;prison_tap_locations -->
<g id="edge3" class="edge">
<title>audited_occurrence:w&#45;&gt;prison_tap_locations:e</title>
<path fill="none" stroke="#000000" stroke-dasharray="5,2" d="M305.1558,-1317.254C224.2707,-1273.2545 373.8244,-822.7 268,-822.7"/>
<polygon fill="#000000" stroke="#000000" points="311.7213,-1318.8312 318.659,-1324.2004 315.6107,-1319.7656 319.5,-1320.7 319.5,-1320.7 319.5,-1320.7 315.6107,-1319.7656 320.341,-1317.1996 311.7213,-1318.8312 311.7213,-1318.8312"/>
<ellipse fill="none" stroke="#000000" cx="308.6099" cy="-1318.0837" rx="3.2" ry="3.2"/>
</g>
<!-- authorisation -->
<g id="node5" class="node">
<title>authorisation</title>
<g id="a_node5"><a xlink:href="../../tables/authorisation.html" xlink:title="authorisation" target="_top">
<polygon fill="#ffffff" stroke="transparent" points="319,-922.2 319,-1269.2 532,-1269.2 532,-922.2 319,-922.2"/>
<polygon fill="#f5f5f5" stroke="transparent" points="319.5,-1245.7 319.5,-1268.7 532.5,-1268.7 532.5,-1245.7 319.5,-1245.7"/>
<polygon fill="none" stroke="#000000" points="319.5,-1245.7 319.5,-1268.7 532.5,-1268.7 532.5,-1245.7 319.5,-1245.7"/>
<text text-anchor="start" x="324.5" y="-1254.3" font-family="Helvetica,sans-Serif" font-weight="bold" font-size="11.00" fill="#000000">authorisation</text>
<text text-anchor="start" x="497.5437" y="-1253.8" font-family="Helvetica,sans-Serif" font-size="11.00" fill="#000000">[table]</text>
<polygon fill="none" stroke="#000000" points="319.5,-1223.7 319.5,-1245.7 532.5,-1245.7 532.5,-1223.7 319.5,-1223.7"/>
<image xlink:href="../../images/primaryKeys.png" width="11px" height="12px" preserveAspectRatio="xMinYMin meet" x="324.5" y="-1240.7"/>
<text text-anchor="start" x="339.5" y="-1230.8" font-family="Helvetica,sans-Serif" font-size="11.00" fill="#000000">id</text>
<polygon fill="#ffffff" stroke="transparent" points="319.5,-1201.7 319.5,-1223.7 532.5,-1223.7 532.5,-1201.7 319.5,-1201.7"/>
<polygon fill="none" stroke="#000000" points="319.5,-1201.7 319.5,-1223.7 532.5,-1223.7 532.5,-1201.7 319.5,-1201.7"/>
<image xlink:href="../../images/foreignKeys.png" width="11px" height="12px" preserveAspectRatio="xMinYMin meet" x="324.5" y="-1218.7"/>
<text text-anchor="start" x="339.5" y="-1208.8" font-family="Helvetica,sans-Serif" font-size="11.00" fill="#000000">person_identifier</text>
<polygon fill="#ffffff" stroke="transparent" points="319.5,-1179.7 319.5,-1201.7 532.5,-1201.7 532.5,-1179.7 319.5,-1179.7"/>
<polygon fill="none" stroke="#000000" points="319.5,-1179.7 319.5,-1201.7 532.5,-1201.7 532.5,-1179.7 319.5,-1179.7"/>
<image xlink:href="../../images/foreignKeys.png" width="11px" height="12px" preserveAspectRatio="xMinYMin meet" x="324.5" y="-1196.7"/>
<text text-anchor="start" x="339.5" y="-1186.8" font-family="Helvetica,sans-Serif" font-size="11.00" fill="#000000">prison_code</text>
<polygon fill="#ffffff" stroke="transparent" points="319.5,-1157.7 319.5,-1179.7 532.5,-1179.7 532.5,-1157.7 319.5,-1157.7"/>
<polygon fill="none" stroke="#000000" points="319.5,-1157.7 319.5,-1179.7 532.5,-1179.7 532.5,-1157.7 319.5,-1157.7"/>
<image xlink:href="../../images/foreignKeys.png" width="11px" height="12px" preserveAspectRatio="xMinYMin meet" x="324.5" y="-1174.7"/>
<text text-anchor="start" x="339.5" y="-1164.8" font-family="Helvetica,sans-Serif" font-size="11.00" fill="#000000">status_id</text>
<polygon fill="none" stroke="#000000" points="319.5,-1135.7 319.5,-1157.7 532.5,-1157.7 532.5,-1135.7 319.5,-1135.7"/>
<image xlink:href="../../images/foreignKeys.png" width="11px" height="12px" preserveAspectRatio="xMinYMin meet" x="324.5" y="-1152.7"/>
<text text-anchor="start" x="339.5" y="-1142.8" font-family="Helvetica,sans-Serif" font-size="11.00" fill="#000000">absence_type_id</text>
<polygon fill="none" stroke="#000000" points="319.5,-1113.7 319.5,-1135.7 532.5,-1135.7 532.5,-1113.7 319.5,-1113.7"/>
<image xlink:href="../../images/foreignKeys.png" width="11px" height="12px" preserveAspectRatio="xMinYMin meet" x="324.5" y="-1130.7"/>
<text text-anchor="start" x="339.5" y="-1120.8" font-family="Helvetica,sans-Serif" font-size="11.00" fill="#000000">absence_sub_type_id</text>
<polygon fill="none" stroke="#000000" points="319.5,-1091.7 319.5,-1113.7 532.5,-1113.7 532.5,-1091.7 319.5,-1091.7"/>
<image xlink:href="../../images/foreignKeys.png" width="11px" height="12px" preserveAspectRatio="xMinYMin meet" x="324.5" y="-1108.7"/>
<text text-anchor="start" x="339.5" y="-1098.8" font-family="Helvetica,sans-Serif" font-size="11.00" fill="#000000">absence_reason_category_id</text>
<polygon fill="none" stroke="#000000" points="319.5,-1069.7 319.5,-1091.7 532.5,-1091.7 532.5,-1069.7 319.5,-1069.7"/>
<image xlink:href="../../images/foreignKeys.png" width="11px" height="12px" preserveAspectRatio="xMinYMin meet" x="324.5" y="-1086.7"/>
<text text-anchor="start" x="339.5" y="-1076.8" font-family="Helvetica,sans-Serif" font-size="11.00" fill="#000000">absence_reason_id</text>
<polygon fill="none" stroke="#000000" points="319.5,-1047.7 319.5,-1069.7 532.5,-1069.7 532.5,-1047.7 319.5,-1047.7"/>
<image xlink:href="../../images/foreignKeys.png" width="11px" height="12px" preserveAspectRatio="xMinYMin meet" x="324.5" y="-1064.7"/>
<text text-anchor="start" x="339.5" y="-1054.8" font-family="Helvetica,sans-Serif" font-size="11.00" fill="#000000">accompanied_by_id</text>
<polygon fill="none" stroke="#000000" points="319.5,-1025.7 319.5,-1047.7 532.5,-1047.7 532.5,-1025.7 319.5,-1025.7"/>
<image xlink:href="../../images/foreignKeys.png" width="11px" height="12px" preserveAspectRatio="xMinYMin meet" x="324.5" y="-1042.7"/>
<text text-anchor="start" x="339.5" y="-1032.8" font-family="Helvetica,sans-Serif" font-size="11.00" fill="#000000">transport_id</text>
<polygon fill="#ffffff" stroke="transparent" points="319.5,-1003.7 319.5,-1025.7 532.5,-1025.7 532.5,-1003.7 319.5,-1003.7"/>
<polygon fill="none" stroke="#000000" points="319.5,-1003.7 319.5,-1025.7 532.5,-1025.7 532.5,-1003.7 319.5,-1003.7"/>
<text text-anchor="start" x="339.5" y="-1010.8" font-family="Helvetica,sans-Serif" font-size="11.00" fill="#000000">start</text>
<polygon fill="#ffffff" stroke="transparent" points="319.5,-981.7 319.5,-1003.7 532.5,-1003.7 532.5,-981.7 319.5,-981.7"/>
<polygon fill="none" stroke="#000000" points="319.5,-981.7 319.5,-1003.7 532.5,-1003.7 532.5,-981.7 319.5,-981.7"/>
<text text-anchor="start" x="339.5" y="-988.8" font-family="Helvetica,sans-Serif" font-size="11.00" fill="#000000">end</text>
<polygon fill="#ffffff" stroke="transparent" points="319.5,-959.7 319.5,-981.7 532.5,-981.7 532.5,-959.7 319.5,-959.7"/>
<polygon fill="none" stroke="#000000" points="319.5,-959.7 319.5,-981.7 532.5,-981.7 532.5,-959.7 319.5,-959.7"/>
<text text-anchor="start" x="339.5" y="-966.8" font-family="Helvetica,sans-Serif" font-size="11.00" fill="#000000">legacy_id</text>
<polygon fill="none" stroke="#000000" points="319.5,-940.7 319.5,-959.7 532.5,-959.7 532.5,-940.7 319.5,-940.7"/>
<text text-anchor="start" x="322.5" y="-946.8" font-family="Helvetica,sans-Serif" font-size="11.00" fill="#000000">...</text>
<polygon fill="#ffffff" stroke="transparent" points="319.5,-921.7 319.5,-940.7 424.5,-940.7 424.5,-921.7 319.5,-921.7"/>
<polygon fill="none" stroke="#000000" points="319.5,-921.7 319.5,-940.7 424.5,-940.7 424.5,-921.7 319.5,-921.7"/>
<text text-anchor="start" x="322.5" y="-927.8" font-family="Helvetica,sans-Serif" font-size="11.00" fill="#000000">&lt; 9</text>
<polygon fill="#ffffff" stroke="transparent" points="424.5,-921.7 424.5,-940.7 478.5,-940.7 478.5,-921.7 424.5,-921.7"/>
<polygon fill="none" stroke="#000000" points="424.5,-921.7 424.5,-940.7 478.5,-940.7 478.5,-921.7 424.5,-921.7"/>
<text text-anchor="start" x="469.3862" y="-927.8" font-family="Helvetica,sans-Serif" font-size="11.00" fill="#000000"> &#160;</text>
<polygon fill="#ffffff" stroke="transparent" points="478.5,-921.7 478.5,-940.7 532.5,-940.7 532.5,-921.7 478.5,-921.7"/>
<polygon fill="none" stroke="#000000" points="478.5,-921.7 478.5,-940.7 532.5,-940.7 532.5,-921.7 478.5,-921.7"/>
<text text-anchor="start" x="523.3862" y="-927.8" font-family="Helvetica,sans-Serif" font-size="11.00" fill="#000000"> &#160;</text>
</a>
</g>
</g>
<!-- authorisation&#45;&gt;prison_tap_locations -->
<g id="edge4" class="edge">
<title>authorisation:w&#45;&gt;prison_tap_locations:e</title>
<path fill="none" stroke="#000000" stroke-dasharray="5,2" d="M305.5306,-1186.0471C251.1541,-1143.4478 345.0912,-822.7 268,-822.7"/>
<polygon fill="#000000" stroke="#000000" points="311.9099,-1188.1719 318.3624,-1194.1155 315.705,-1189.4359 319.5,-1190.7 319.5,-1190.7 319.5,-1190.7 315.705,-1189.4359 320.6376,-1187.2845 311.9099,-1188.1719 311.9099,-1188.1719"/>
<ellipse fill="none" stroke="#000000" cx="308.8739" cy="-1187.1607" rx="3.2" ry="3.2"/>
</g>
<!-- authorisation_audit -->
<g id="node6" class="node">
<title>authorisation_audit</title>
<g id="a_node6"><a xlink:href="../../tables/authorisation_audit.html" xlink:title="authorisation_audit" target="_top">
<polygon fill="#ffffff" stroke="transparent" points="319,-774.2 319,-901.2 532,-901.2 532,-774.2 319,-774.2"/>
<polygon fill="#f5f5f5" stroke="transparent" points="319.5,-877.7 319.5,-900.7 532.5,-900.7 532.5,-877.7 319.5,-877.7"/>
<polygon fill="none" stroke="#000000" points="319.5,-877.7 319.5,-900.7 532.5,-900.7 532.5,-877.7 319.5,-877.7"/>
<text text-anchor="start" x="324.5" y="-886.3" font-family="Helvetica,sans-Serif" font-weight="bold" font-size="11.00" fill="#000000">authorisation_audit</text>
<text text-anchor="start" x="497.5437" y="-885.8" font-family="Helvetica,sans-Serif" font-size="11.00" fill="#000000">[table]</text>
<polygon fill="none" stroke="#000000" points="319.5,-855.7 319.5,-877.7 532.5,-877.7 532.5,-855.7 319.5,-855.7"/>
<image xlink:href="../../images/primaryKeys.png" width="11px" height="12px" preserveAspectRatio="xMinYMin meet" x="324.5" y="-872.7"/>
<text text-anchor="start" x="339.5" y="-862.8" font-family="Helvetica,sans-Serif" font-size="11.00" fill="#000000">rev_id</text>
<polygon fill="none" stroke="#000000" points="319.5,-833.7 319.5,-855.7 532.5,-855.7 532.5,-833.7 319.5,-833.7"/>
<image xlink:href="../../images/primaryKeys.png" width="11px" height="12px" preserveAspectRatio="xMinYMin meet" x="324.5" y="-850.7"/>
<text text-anchor="start" x="339.5" y="-840.8" font-family="Helvetica,sans-Serif" font-size="11.00" fill="#000000">id</text>
<polygon fill="none" stroke="#000000" points="319.5,-811.7 319.5,-833.7 532.5,-833.7 532.5,-811.7 319.5,-811.7"/>
<image xlink:href="../../images/foreignKeys.png" width="11px" height="12px" preserveAspectRatio="xMinYMin meet" x="324.5" y="-828.7"/>
<text text-anchor="start" x="339.5" y="-818.8" font-family="Helvetica,sans-Serif" font-size="11.00" fill="#000000">prison_code</text>
<polygon fill="none" stroke="#000000" points="319.5,-792.7 319.5,-811.7 532.5,-811.7 532.5,-792.7 319.5,-792.7"/>
<text text-anchor="start" x="322.5" y="-798.8" font-family="Helvetica,sans-Serif" font-size="11.00" fill="#000000">...</text>
<polygon fill="#ffffff" stroke="transparent" points="319.5,-773.7 319.5,-792.7 424.5,-792.7 424.5,-773.7 319.5,-773.7"/>
<polygon fill="none" stroke="#000000" points="319.5,-773.7 319.5,-792.7 424.5,-792.7 424.5,-773.7 319.5,-773.7"/>
<text text-anchor="start" x="322.5" y="-779.8" font-family="Helvetica,sans-Serif" font-size="11.00" fill="#000000">&lt; 2</text>
<polygon fill="#ffffff" stroke="transparent" points="424.5,-773.7 424.5,-792.7 478.5,-792.7 478.5,-773.7 424.5,-773.7"/>
<polygon fill="none" stroke="#000000" points="424.5,-773.7 424.5,-792.7 478.5,-792.7 478.5,-773.7 424.5,-773.7"/>
<text text-anchor="start" x="469.3862" y="-779.8" font-family="Helvetica,sans-Serif" font-size="11.00" fill="#000000"> &#160;</text>
<polygon fill="#ffffff" stroke="transparent" points="478.5,-773.7 478.5,-792.7 532.5,-792.7 532.5,-773.7 478.5,-773.7"/>
<polygon fill="none" stroke="#000000" points="478.5,-773.7 478.5,-792.7 532.5,-792.7 532.5,-773.7 478.5,-773.7"/>
<text text-anchor="start" x="523.3862" y="-779.8" font-family="Helvetica,sans-Serif" font-size="11.00" fill="#000000"> &#160;</text>
</a>
</g>
</g>
<!-- authorisation_audit&#45;&gt;prison_tap_locations -->
<g id="edge5" class="edge">
<title>authorisation_audit:w&#45;&gt;prison_tap_locations:e</title>
<path fill="none" stroke="#000000" stroke-dasharray="5,2" d="M305.0156,-822.7C292.6771,-822.7 285.1667,-822.7 268,-822.7"/>
<polygon fill="#000000" stroke="#000000" points="311.5,-822.7001 319.5,-826.3 315.5,-822.7 319.5,-822.7 319.5,-822.7 319.5,-822.7 315.5,-822.7 319.5,-819.1 311.5,-822.7001 311.5,-822.7001"/>
<ellipse fill="none" stroke="#000000" cx="308.3" cy="-822.7001" rx="3.2" ry="3.2"/>
</g>
<!-- movement -->
<g id="node7" class="node">
<title>movement</title>
<g id="a_node7"><a xlink:href="../../tables/movement.html" xlink:title="movement" target="_top">
<polygon fill="#ffffff" stroke="transparent" points="581,-413.2 581,-650.2 789,-650.2 789,-413.2 581,-413.2"/>
<polygon fill="#f5f5f5" stroke="transparent" points="581,-626.7 581,-649.7 789,-649.7 789,-626.7 581,-626.7"/>
<polygon fill="none" stroke="#000000" points="581,-626.7 581,-649.7 789,-649.7 789,-626.7 581,-626.7"/>
<text text-anchor="start" x="586" y="-635.3" font-family="Helvetica,sans-Serif" font-weight="bold" font-size="11.00" fill="#000000">movement</text>
<text text-anchor="start" x="754.0437" y="-634.8" font-family="Helvetica,sans-Serif" font-size="11.00" fill="#000000">[table]</text>
<polygon fill="none" stroke="#000000" points="581,-604.7 581,-626.7 789,-626.7 789,-604.7 581,-604.7"/>
<image xlink:href="../../images/primaryKeys.png" width="11px" height="12px" preserveAspectRatio="xMinYMin meet" x="586" y="-621.7"/>
<text text-anchor="start" x="601" y="-611.8" font-family="Helvetica,sans-Serif" font-size="11.00" fill="#000000">id</text>
<polygon fill="#ffffff" stroke="transparent" points="581,-582.7 581,-604.7 789,-604.7 789,-582.7 581,-582.7"/>
<polygon fill="none" stroke="#000000" points="581,-582.7 581,-604.7 789,-604.7 789,-582.7 581,-582.7"/>
<image xlink:href="../../images/foreignKeys.png" width="11px" height="12px" preserveAspectRatio="xMinYMin meet" x="586" y="-599.7"/>
<text text-anchor="start" x="601" y="-589.8" font-family="Helvetica,sans-Serif" font-size="11.00" fill="#000000">person_identifier</text>
<polygon fill="#ffffff" stroke="transparent" points="581,-560.7 581,-582.7 789,-582.7 789,-560.7 581,-560.7"/>
<polygon fill="none" stroke="#000000" points="581,-560.7 581,-582.7 789,-582.7 789,-560.7 581,-560.7"/>
<image xlink:href="../../images/foreignKeys.png" width="11px" height="12px" preserveAspectRatio="xMinYMin meet" x="586" y="-577.7"/>
<text text-anchor="start" x="601" y="-567.8" font-family="Helvetica,sans-Serif" font-size="11.00" fill="#000000">occurrence_id</text>
<polygon fill="#ffffff" stroke="transparent" points="581,-538.7 581,-560.7 789,-560.7 789,-538.7 581,-538.7"/>
<polygon fill="none" stroke="#000000" points="581,-538.7 581,-560.7 789,-560.7 789,-538.7 581,-538.7"/>
<text text-anchor="start" x="601" y="-545.8" font-family="Helvetica,sans-Serif" font-size="11.00" fill="#000000">occurred_at</text>
<polygon fill="none" stroke="#000000" points="581,-516.7 581,-538.7 789,-538.7 789,-516.7 581,-516.7"/>
<image xlink:href="../../images/foreignKeys.png" width="11px" height="12px" preserveAspectRatio="xMinYMin meet" x="586" y="-533.7"/>
<text text-anchor="start" x="601" y="-523.8" font-family="Helvetica,sans-Serif" font-size="11.00" fill="#000000">absence_reason_id</text>
<polygon fill="none" stroke="#000000" points="581,-494.7 581,-516.7 789,-516.7 789,-494.7 581,-494.7"/>
<image xlink:href="../../images/foreignKeys.png" width="11px" height="12px" preserveAspectRatio="xMinYMin meet" x="586" y="-511.7"/>
<text text-anchor="start" x="601" y="-501.8" font-family="Helvetica,sans-Serif" font-size="11.00" fill="#000000">accompanied_by_id</text>
<polygon fill="none" stroke="#000000" points="581,-472.7 581,-494.7 789,-494.7 789,-472.7 581,-472.7"/>
<image xlink:href="../../images/foreignKeys.png" width="11px" height="12px" preserveAspectRatio="xMinYMin meet" x="586" y="-489.7"/>
<text text-anchor="start" x="601" y="-479.8" font-family="Helvetica,sans-Serif" font-size="11.00" fill="#000000">prison_code</text>
<polygon fill="#ffffff" stroke="transparent" points="581,-450.7 581,-472.7 789,-472.7 789,-450.7 581,-450.7"/>
<polygon fill="none" stroke="#000000" points="581,-450.7 581,-472.7 789,-472.7 789,-450.7 581,-450.7"/>
<text text-anchor="start" x="601" y="-457.8" font-family="Helvetica,sans-Serif" font-size="11.00" fill="#000000">legacy_id</text>
<polygon fill="none" stroke="#000000" points="581,-431.7 581,-450.7 789,-450.7 789,-431.7 581,-431.7"/>
<text text-anchor="start" x="584" y="-437.8" font-family="Helvetica,sans-Serif" font-size="11.00" fill="#000000">...</text>
<polygon fill="#ffffff" stroke="transparent" points="581,-412.7 581,-431.7 683,-431.7 683,-412.7 581,-412.7"/>
<polygon fill="none" stroke="#000000" points="581,-412.7 581,-431.7 683,-431.7 683,-412.7 581,-412.7"/>
<text text-anchor="start" x="584" y="-418.8" font-family="Helvetica,sans-Serif" font-size="11.00" fill="#000000">&lt; 5</text>
<polygon fill="#ffffff" stroke="transparent" points="683,-412.7 683,-431.7 736,-431.7 736,-412.7 683,-412.7"/>
<polygon fill="none" stroke="#000000" points="683,-412.7 683,-431.7 736,-431.7 736,-412.7 683,-412.7"/>
<text text-anchor="start" x="726.8862" y="-418.8" font-family="Helvetica,sans-Serif" font-size="11.00" fill="#000000"> &#160;</text>
<polygon fill="#ffffff" stroke="transparent" points="736,-412.7 736,-431.7 789,-431.7 789,-412.7 736,-412.7"/>
<polygon fill="none" stroke="#000000" points="736,-412.7 736,-431.7 789,-431.7 789,-412.7 736,-412.7"/>
<text text-anchor="start" x="779.8862" y="-418.8" font-family="Helvetica,sans-Serif" font-size="11.00" fill="#000000"> &#160;</text>
</a>
</g>
</g>
<!-- movement&#45;&gt;prison_tap_locations -->
<g id="edge7" class="edge">
<title>movement:w&#45;&gt;prison_tap_locations:e</title>
<path fill="none" stroke="#000000" stroke-dasharray="5,2" d="M566.5263,-481.1098C532.0816,-465.5981 584.6329,-384.5731 540,-351.7 499.0253,-321.5213 348.5841,-317.3909 311,-351.7 233.3768,-422.5594 373.1019,-822.7 268,-822.7"/>
<polygon fill="#000000" stroke="#000000" points="573.1251,-482.2907 580.3658,-487.2437 577.0626,-482.9953 581,-483.7 581,-483.7 581,-483.7 577.0626,-482.9953 581.6342,-480.1563 573.1251,-482.2907 573.1251,-482.2907"/>
<ellipse fill="none" stroke="#000000" cx="569.9751" cy="-481.727" rx="3.2" ry="3.2"/>
</g>
<!-- occurrence -->
<g id="node8" class="node">
<title>occurrence</title>
<g id="a_node8"><a xlink:href="../../tables/occurrence.html" xlink:title="occurrence" target="_top">
<polygon fill="#ffffff" stroke="transparent" points="319,-362.2 319,-753.2 532,-753.2 532,-362.2 319,-362.2"/>
<polygon fill="#f5f5f5" stroke="transparent" points="319.5,-729.7 319.5,-752.7 532.5,-752.7 532.5,-729.7 319.5,-729.7"/>
<polygon fill="none" stroke="#000000" points="319.5,-729.7 319.5,-752.7 532.5,-752.7 532.5,-729.7 319.5,-729.7"/>
<text text-anchor="start" x="324.5" y="-738.3" font-family="Helvetica,sans-Serif" font-weight="bold" font-size="11.00" fill="#000000">occurrence</text>
<text text-anchor="start" x="497.5437" y="-737.8" font-family="Helvetica,sans-Serif" font-size="11.00" fill="#000000">[table]</text>
<polygon fill="none" stroke="#000000" points="319.5,-707.7 319.5,-729.7 532.5,-729.7 532.5,-707.7 319.5,-707.7"/>
<image xlink:href="../../images/primaryKeys.png" width="11px" height="12px" preserveAspectRatio="xMinYMin meet" x="324.5" y="-724.7"/>
<text text-anchor="start" x="339.5" y="-714.8" font-family="Helvetica,sans-Serif" font-size="11.00" fill="#000000">id</text>
<polygon fill="#ffffff" stroke="transparent" points="319.5,-685.7 319.5,-707.7 532.5,-707.7 532.5,-685.7 319.5,-685.7"/>
<polygon fill="none" stroke="#000000" points="319.5,-685.7 319.5,-707.7 532.5,-707.7 532.5,-685.7 319.5,-685.7"/>
<image xlink:href="../../images/foreignKeys.png" width="11px" height="12px" preserveAspectRatio="xMinYMin meet" x="324.5" y="-702.7"/>
<text text-anchor="start" x="339.5" y="-692.8" font-family="Helvetica,sans-Serif" font-size="11.00" fill="#000000">person_identifier</text>
<polygon fill="#ffffff" stroke="transparent" points="319.5,-663.7 319.5,-685.7 532.5,-685.7 532.5,-663.7 319.5,-663.7"/>
<polygon fill="none" stroke="#000000" points="319.5,-663.7 319.5,-685.7 532.5,-685.7 532.5,-663.7 319.5,-663.7"/>
<image xlink:href="../../images/foreignKeys.png" width="11px" height="12px" preserveAspectRatio="xMinYMin meet" x="324.5" y="-680.7"/>
<text text-anchor="start" x="339.5" y="-670.8" font-family="Helvetica,sans-Serif" font-size="11.00" fill="#000000">prison_code</text>
<polygon fill="#ffffff" stroke="transparent" points="319.5,-641.7 319.5,-663.7 532.5,-663.7 532.5,-641.7 319.5,-641.7"/>
<polygon fill="none" stroke="#000000" points="319.5,-641.7 319.5,-663.7 532.5,-663.7 532.5,-641.7 319.5,-641.7"/>
<text text-anchor="start" x="339.5" y="-648.8" font-family="Helvetica,sans-Serif" font-size="11.00" fill="#000000">authorisation_id</text>
<polygon fill="#ffffff" stroke="transparent" points="319.5,-619.7 319.5,-641.7 532.5,-641.7 532.5,-619.7 319.5,-619.7"/>
<polygon fill="none" stroke="#000000" points="319.5,-619.7 319.5,-641.7 532.5,-641.7 532.5,-619.7 319.5,-619.7"/>
<image xlink:href="../../images/foreignKeys.png" width="11px" height="12px" preserveAspectRatio="xMinYMin meet" x="324.5" y="-636.7"/>
<text text-anchor="start" x="339.5" y="-626.8" font-family="Helvetica,sans-Serif" font-size="11.00" fill="#000000">status_id</text>
<polygon fill="none" stroke="#000000" points="319.5,-597.7 319.5,-619.7 532.5,-619.7 532.5,-597.7 319.5,-597.7"/>
<image xlink:href="../../images/foreignKeys.png" width="11px" height="12px" preserveAspectRatio="xMinYMin meet" x="324.5" y="-614.7"/>
<text text-anchor="start" x="339.5" y="-604.8" font-family="Helvetica,sans-Serif" font-size="11.00" fill="#000000">absence_type_id</text>
<polygon fill="none" stroke="#000000" points="319.5,-575.7 319.5,-597.7 532.5,-597.7 532.5,-575.7 319.5,-575.7"/>
<image xlink:href="../../images/foreignKeys.png" width="11px" height="12px" preserveAspectRatio="xMinYMin meet" x="324.5" y="-592.7"/>
<text text-anchor="start" x="339.5" y="-582.8" font-family="Helvetica,sans-Serif" font-size="11.00" fill="#000000">absence_sub_type_id</text>
<polygon fill="none" stroke="#000000" points="319.5,-553.7 319.5,-575.7 532.5,-575.7 532.5,-553.7 319.5,-553.7"/>
<image xlink:href="../../images/foreignKeys.png" width="11px" height="12px" preserveAspectRatio="xMinYMin meet" x="324.5" y="-570.7"/>
<text text-anchor="start" x="339.5" y="-560.8" font-family="Helvetica,sans-Serif" font-size="11.00" fill="#000000">absence_reason_category_id</text>
<polygon fill="none" stroke="#000000" points="319.5,-531.7 319.5,-553.7 532.5,-553.7 532.5,-531.7 319.5,-531.7"/>
<image xlink:href="../../images/foreignKeys.png" width="11px" height="12px" preserveAspectRatio="xMinYMin meet" x="324.5" y="-548.7"/>
<text text-anchor="start" x="339.5" y="-538.8" font-family="Helvetica,sans-Serif" font-size="11.00" fill="#000000">absence_reason_id</text>
<polygon fill="none" stroke="#000000" points="319.5,-509.7 319.5,-531.7 532.5,-531.7 532.5,-509.7 319.5,-509.7"/>
<image xlink:href="../../images/foreignKeys.png" width="11px" height="12px" preserveAspectRatio="xMinYMin meet" x="324.5" y="-526.7"/>
<text text-anchor="start" x="339.5" y="-516.8" font-family="Helvetica,sans-Serif" font-size="11.00" fill="#000000">accompanied_by_id</text>
<polygon fill="none" stroke="#000000" points="319.5,-487.7 319.5,-509.7 532.5,-509.7 532.5,-487.7 319.5,-487.7"/>
<image xlink:href="../../images/foreignKeys.png" width="11px" height="12px" preserveAspectRatio="xMinYMin meet" x="324.5" y="-504.7"/>
<text text-anchor="start" x="339.5" y="-494.8" font-family="Helvetica,sans-Serif" font-size="11.00" fill="#000000">transport_id</text>
<polygon fill="#ffffff" stroke="transparent" points="319.5,-465.7 319.5,-487.7 532.5,-487.7 532.5,-465.7 319.5,-465.7"/>
<polygon fill="none" stroke="#000000" points="319.5,-465.7 319.5,-487.7 532.5,-487.7 532.5,-465.7 319.5,-465.7"/>
<text text-anchor="start" x="339.5" y="-472.8" font-family="Helvetica,sans-Serif" font-size="11.00" fill="#000000">start</text>
<polygon fill="#ffffff" stroke="transparent" points="319.5,-443.7 319.5,-465.7 532.5,-465.7 532.5,-443.7 319.5,-443.7"/>
<polygon fill="none" stroke="#000000" points="319.5,-443.7 319.5,-465.7 532.5,-465.7 532.5,-443.7 319.5,-443.7"/>
<text text-anchor="start" x="339.5" y="-450.8" font-family="Helvetica,sans-Serif" font-size="11.00" fill="#000000">end</text>
<polygon fill="#ffffff" stroke="transparent" points="319.5,-421.7 319.5,-443.7 532.5,-443.7 532.5,-421.7 319.5,-421.7"/>
<polygon fill="none" stroke="#000000" points="319.5,-421.7 319.5,-443.7 532.5,-443.7 532.5,-421.7 319.5,-421.7"/>
<text text-anchor="start" x="339.5" y="-428.8" font-family="Helvetica,sans-Serif" font-size="11.00" fill="#000000">legacy_id</text>
<polygon fill="#ffffff" stroke="transparent" points="319.5,-399.7 319.5,-421.7 532.5,-421.7 532.5,-399.7 319.5,-399.7"/>
<polygon fill="none" stroke="#000000" points="319.5,-399.7 319.5,-421.7 532.5,-421.7 532.5,-399.7 319.5,-399.7"/>
<text text-anchor="start" x="339.5" y="-406.8" font-family="Helvetica,sans-Serif" font-size="11.00" fill="#000000">dps_only</text>
<polygon fill="none" stroke="#000000" points="319.5,-380.7 319.5,-399.7 532.5,-399.7 532.5,-380.7 319.5,-380.7"/>
<text text-anchor="start" x="322.5" y="-386.8" font-family="Helvetica,sans-Serif" font-size="11.00" fill="#000000">...</text>
<polygon fill="#ffffff" stroke="transparent" points="319.5,-361.7 319.5,-380.7 419.5,-380.7 419.5,-361.7 319.5,-361.7"/>
<polygon fill="none" stroke="#000000" points="319.5,-361.7 319.5,-380.7 419.5,-380.7 419.5,-361.7 319.5,-361.7"/>
<text text-anchor="start" x="322.5" y="-367.8" font-family="Helvetica,sans-Serif" font-size="11.00" fill="#000000">&lt; 9</text>
<polygon fill="#ffffff" stroke="transparent" points="419.5,-361.7 419.5,-380.7 471.5,-380.7 471.5,-361.7 419.5,-361.7"/>
<polygon fill="none" stroke="#000000" points="419.5,-361.7 419.5,-380.7 471.5,-380.7 471.5,-361.7 419.5,-361.7"/>
<text text-anchor="start" x="462.3862" y="-367.8" font-family="Helvetica,sans-Serif" font-size="11.00" fill="#000000"> &#160;</text>
<polygon fill="#ffffff" stroke="transparent" points="471.5,-361.7 471.5,-380.7 532.5,-380.7 532.5,-361.7 471.5,-361.7"/>
<polygon fill="none" stroke="#000000" points="471.5,-361.7 471.5,-380.7 532.5,-380.7 532.5,-361.7 471.5,-361.7"/>
<text text-anchor="start" x="513.9053" y="-367.8" font-family="Helvetica,sans-Serif" font-size="11.00" fill="#000000">1 &gt;</text>
</a>
</g>
</g>
<!-- movement&#45;&gt;occurrence -->
<g id="edge6" class="edge">
<title>movement:w&#45;&gt;occurrence:e</title>
<path fill="none" stroke="#000000" d="M566.8202,-574.6364C526.054,-595.3546 595.5195,-718.7 532.5,-718.7"/>
<polygon fill="#000000" stroke="#000000" points="573.1662,-573.3223 581.73,-575.2252 577.0831,-572.5111 581,-571.7 581,-571.7 581,-571.7 577.0831,-572.5111 580.27,-568.1748 573.1662,-573.3223 573.1662,-573.3223"/>
<ellipse fill="none" stroke="#000000" cx="570.0327" cy="-573.9712" rx="3.2" ry="3.2"/>
</g>
<!-- occurrence&#45;&gt;prison_tap_locations -->
<g id="edge9" class="edge">
<title>occurrence:w&#45;&gt;prison_tap_locations:e</title>
<path fill="none" stroke="#000000" stroke-dasharray="5,2" d="M305.3649,-677.5243C263.1977,-697.9853 331.9332,-822.7 268,-822.7"/>
<polygon fill="#000000" stroke="#000000" points="311.6551,-676.2675 320.2054,-678.2302 315.5775,-675.4838 319.5,-674.7 319.5,-674.7 319.5,-674.7 315.5775,-675.4838 318.7946,-671.1698 311.6551,-676.2675 311.6551,-676.2675"/>
<ellipse fill="none" stroke="#000000" cx="308.5171" cy="-676.8946" rx="3.2" ry="3.2"/>
</g>
<!-- movement_audit -->
<g id="node9" class="node">
<title>movement_audit</title>
<g id="a_node9"><a xlink:href="../../tables/movement_audit.html" xlink:title="movement_audit" target="_top">
<polygon fill="#ffffff" stroke="transparent" points="321.5,-186.2 321.5,-313.2 529.5,-313.2 529.5,-186.2 321.5,-186.2"/>
<polygon fill="#f5f5f5" stroke="transparent" points="321.5,-289.7 321.5,-312.7 529.5,-312.7 529.5,-289.7 321.5,-289.7"/>
<polygon fill="none" stroke="#000000" points="321.5,-289.7 321.5,-312.7 529.5,-312.7 529.5,-289.7 321.5,-289.7"/>
<text text-anchor="start" x="326.5" y="-298.3" font-family="Helvetica,sans-Serif" font-weight="bold" font-size="11.00" fill="#000000">movement_audit</text>
<text text-anchor="start" x="494.5437" y="-297.8" font-family="Helvetica,sans-Serif" font-size="11.00" fill="#000000">[table]</text>
<polygon fill="none" stroke="#000000" points="321.5,-267.7 321.5,-289.7 529.5,-289.7 529.5,-267.7 321.5,-267.7"/>
<image xlink:href="../../images/primaryKeys.png" width="11px" height="12px" preserveAspectRatio="xMinYMin meet" x="326.5" y="-284.7"/>
<text text-anchor="start" x="341.5" y="-274.8" font-family="Helvetica,sans-Serif" font-size="11.00" fill="#000000">rev_id</text>
<polygon fill="none" stroke="#000000" points="321.5,-245.7 321.5,-267.7 529.5,-267.7 529.5,-245.7 321.5,-245.7"/>
<image xlink:href="../../images/primaryKeys.png" width="11px" height="12px" preserveAspectRatio="xMinYMin meet" x="326.5" y="-262.7"/>
<text text-anchor="start" x="341.5" y="-252.8" font-family="Helvetica,sans-Serif" font-size="11.00" fill="#000000">id</text>
<polygon fill="none" stroke="#000000" points="321.5,-223.7 321.5,-245.7 529.5,-245.7 529.5,-223.7 321.5,-223.7"/>
<image xlink:href="../../images/foreignKeys.png" width="11px" height="12px" preserveAspectRatio="xMinYMin meet" x="326.5" y="-240.7"/>
<text text-anchor="start" x="341.5" y="-230.8" font-family="Helvetica,sans-Serif" font-size="11.00" fill="#000000">prison_code</text>
<polygon fill="none" stroke="#000000" points="321.5,-204.7 321.5,-223.7 529.5,-223.7 529.5,-204.7 321.5,-204.7"/>
<text text-anchor="start" x="324.5" y="-210.8" font-family="Helvetica,sans-Serif" font-size="11.00" fill="#000000">...</text>
<polygon fill="#ffffff" stroke="transparent" points="321.5,-185.7 321.5,-204.7 423.5,-204.7 423.5,-185.7 321.5,-185.7"/>
<polygon fill="none" stroke="#000000" points="321.5,-185.7 321.5,-204.7 423.5,-204.7 423.5,-185.7 321.5,-185.7"/>
<text text-anchor="start" x="324.5" y="-191.8" font-family="Helvetica,sans-Serif" font-size="11.00" fill="#000000">&lt; 2</text>
<polygon fill="#ffffff" stroke="transparent" points="423.5,-185.7 423.5,-204.7 476.5,-204.7 476.5,-185.7 423.5,-185.7"/>
<polygon fill="none" stroke="#000000" points="423.5,-185.7 423.5,-204.7 476.5,-204.7 476.5,-185.7 423.5,-185.7"/>
<text text-anchor="start" x="467.3862" y="-191.8" font-family="Helvetica,sans-Serif" font-size="11.00" fill="#000000"> &#160;</text>
<polygon fill="#ffffff" stroke="transparent" points="476.5,-185.7 476.5,-204.7 529.5,-204.7 529.5,-185.7 476.5,-185.7"/>
<polygon fill="none" stroke="#000000" points="476.5,-185.7 476.5,-204.7 529.5,-204.7 529.5,-185.7 476.5,-185.7"/>
<text text-anchor="start" x="520.3862" y="-191.8" font-family="Helvetica,sans-Serif" font-size="11.00" fill="#000000"> &#160;</text>
</a>
</g>
</g>
<!-- movement_audit&#45;&gt;prison_tap_locations -->
<g id="edge8" class="edge">
<title>movement_audit:w&#45;&gt;prison_tap_locations:e</title>
<path fill="none" stroke="#000000" stroke-dasharray="5,2" d="M309.6877,-243.0122C266.1158,-314.4805 328.9905,-822.7 268,-822.7"/>
<polygon fill="#000000" stroke="#000000" points="314.9575,-239.3039 323.5718,-237.6441 318.2287,-237.0019 321.5,-234.7 321.5,-234.7 321.5,-234.7 318.2287,-237.0019 319.4282,-231.7559 314.9575,-239.3039 314.9575,-239.3039"/>
<ellipse fill="none" stroke="#000000" cx="312.3405" cy="-241.1454" rx="3.2" ry="3.2"/>
</g>
<!-- occurrence_audit -->
<g id="node10" class="node">
<title>occurrence_audit</title>
<g id="a_node10"><a xlink:href="../../tables/occurrence_audit.html" xlink:title="occurrence_audit" target="_top">
<polygon fill="#ffffff" stroke="transparent" points="319,-38.2 319,-165.2 532,-165.2 532,-38.2 319,-38.2"/>
<polygon fill="#f5f5f5" stroke="transparent" points="319.5,-141.7 319.5,-164.7 532.5,-164.7 532.5,-141.7 319.5,-141.7"/>
<polygon fill="none" stroke="#000000" points="319.5,-141.7 319.5,-164.7 532.5,-164.7 532.5,-141.7 319.5,-141.7"/>
<text text-anchor="start" x="324.5" y="-150.3" font-family="Helvetica,sans-Serif" font-weight="bold" font-size="11.00" fill="#000000">occurrence_audit</text>
<text text-anchor="start" x="497.5437" y="-149.8" font-family="Helvetica,sans-Serif" font-size="11.00" fill="#000000">[table]</text>
<polygon fill="none" stroke="#000000" points="319.5,-119.7 319.5,-141.7 532.5,-141.7 532.5,-119.7 319.5,-119.7"/>
<image xlink:href="../../images/primaryKeys.png" width="11px" height="12px" preserveAspectRatio="xMinYMin meet" x="324.5" y="-136.7"/>
<text text-anchor="start" x="339.5" y="-126.8" font-family="Helvetica,sans-Serif" font-size="11.00" fill="#000000">rev_id</text>
<polygon fill="none" stroke="#000000" points="319.5,-97.7 319.5,-119.7 532.5,-119.7 532.5,-97.7 319.5,-97.7"/>
<image xlink:href="../../images/primaryKeys.png" width="11px" height="12px" preserveAspectRatio="xMinYMin meet" x="324.5" y="-114.7"/>
<text text-anchor="start" x="339.5" y="-104.8" font-family="Helvetica,sans-Serif" font-size="11.00" fill="#000000">id</text>
<polygon fill="none" stroke="#000000" points="319.5,-75.7 319.5,-97.7 532.5,-97.7 532.5,-75.7 319.5,-75.7"/>
<image xlink:href="../../images/foreignKeys.png" width="11px" height="12px" preserveAspectRatio="xMinYMin meet" x="324.5" y="-92.7"/>
<text text-anchor="start" x="339.5" y="-82.8" font-family="Helvetica,sans-Serif" font-size="11.00" fill="#000000">prison_code</text>
<polygon fill="none" stroke="#000000" points="319.5,-56.7 319.5,-75.7 532.5,-75.7 532.5,-56.7 319.5,-56.7"/>
<text text-anchor="start" x="322.5" y="-62.8" font-family="Helvetica,sans-Serif" font-size="11.00" fill="#000000">...</text>
<polygon fill="#ffffff" stroke="transparent" points="319.5,-37.7 319.5,-56.7 424.5,-56.7 424.5,-37.7 319.5,-37.7"/>
<polygon fill="none" stroke="#000000" points="319.5,-37.7 319.5,-56.7 424.5,-56.7 424.5,-37.7 319.5,-37.7"/>
<text text-anchor="start" x="322.5" y="-43.8" font-family="Helvetica,sans-Serif" font-size="11.00" fill="#000000">&lt; 2</text>
<polygon fill="#ffffff" stroke="transparent" points="424.5,-37.7 424.5,-56.7 478.5,-56.7 478.5,-37.7 424.5,-37.7"/>
<polygon fill="none" stroke="#000000" points="424.5,-37.7 424.5,-56.7 478.5,-56.7 478.5,-37.7 424.5,-37.7"/>
<text text-anchor="start" x="469.3862" y="-43.8" font-family="Helvetica,sans-Serif" font-size="11.00" fill="#000000"> &#160;</text>
<polygon fill="#ffffff" stroke="transparent" points="478.5,-37.7 478.5,-56.7 532.5,-56.7 532.5,-37.7 478.5,-37.7"/>
<polygon fill="none" stroke="#000000" points="478.5,-37.7 478.5,-56.7 532.5,-56.7 532.5,-37.7 478.5,-37.7"/>
<text text-anchor="start" x="523.3862" y="-43.8" font-family="Helvetica,sans-Serif" font-size="11.00" fill="#000000"> &#160;</text>
</a>
</g>
</g>
<!-- occurrence_audit&#45;&gt;prison_tap_locations -->
<g id="edge10" class="edge">
<title>occurrence_audit:w&#45;&gt;prison_tap_locations:e</title>
<path fill="none" stroke="#000000" stroke-dasharray="5,2" d="M307.0142,-93.9845C250.0331,-170.4231 345.1744,-822.7 268,-822.7"/>
<polygon fill="#000000" stroke="#000000" points="312.59,-90.7314 321.3141,-89.8095 316.045,-88.7157 319.5,-86.7 319.5,-86.7 319.5,-86.7 316.045,-88.7157 317.6859,-83.5905 312.59,-90.7314 312.59,-90.7314"/>
<ellipse fill="none" stroke="#000000" cx="309.826" cy="-92.344" rx="3.2" ry="3.2"/>
</g>
</g>
</svg>
