<?xml version="1.0" encoding="UTF-8" standalone="no"?>
<!DOCTYPE svg PUBLIC "-//W3C//DTD SVG 1.1//EN"
 "http://www.w3.org/Graphics/SVG/1.1/DTD/svg11.dtd">
<!-- Generated by graphviz version 2.40.1 (20161225.0304)
 -->
<!-- Title: twoDegreesRelationshipsDiagram Pages: 1 -->
<svg width="555pt" height="453pt"
 viewBox="0.00 0.00 555.00 452.70" xmlns="http://www.w3.org/2000/svg" xmlns:xlink="http://www.w3.org/1999/xlink">
<g id="graph0" class="graph" transform="scale(1 1) rotate(0) translate(4 448.7)">
<title>twoDegreesRelationshipsDiagram</title>
<polygon fill="#ffffff" stroke="transparent" points="-4,4 -4,-448.7 551,-448.7 551,4 -4,4"/>
<text text-anchor="middle" x="72.4936" y="-7.3" font-family="Helvetica,sans-Serif" font-size="11.00" fill="#000000">Generated by SchemaSpy</text>
<!-- authorisation_audit -->
<g id="node1" class="node">
<title>authorisation_audit</title>
<g id="a_node1"><a xlink:href="../../tables/authorisation_audit.html" xlink:title="authorisation_audit" target="_top">
<polygon fill="#ffffff" stroke="transparent" points="302,-379.7 302,-440.7 473,-440.7 473,-379.7 302,-379.7"/>
<polygon fill="#f5f5f5" stroke="transparent" points="302.5,-417.2 302.5,-440.2 473.5,-440.2 473.5,-417.2 302.5,-417.2"/>
<polygon fill="none" stroke="#000000" points="302.5,-417.2 302.5,-440.2 473.5,-440.2 473.5,-417.2 302.5,-417.2"/>
<text text-anchor="start" x="307.5" y="-425.8" font-family="Helvetica,sans-Serif" font-weight="bold" font-size="11.00" fill="#000000">authorisation_audit</text>
<text text-anchor="start" x="439.0219" y="-425.3" font-family="Helvetica,sans-Serif" font-size="11.00" fill="#000000">[table]</text>
<polygon fill="none" stroke="#000000" points="302.5,-398.2 302.5,-417.2 473.5,-417.2 473.5,-398.2 302.5,-398.2"/>
<text text-anchor="start" x="305.5" y="-404.3" font-family="Helvetica,sans-Serif" font-size="11.00" fill="#000000">...</text>
<polygon fill="#ffffff" stroke="transparent" points="302.5,-379.2 302.5,-398.2 386.5,-398.2 386.5,-379.2 302.5,-379.2"/>
<polygon fill="none" stroke="#000000" points="302.5,-379.2 302.5,-398.2 386.5,-398.2 386.5,-379.2 302.5,-379.2"/>
<text text-anchor="start" x="305.5" y="-385.3" font-family="Helvetica,sans-Serif" font-size="11.00" fill="#000000">&lt; 1</text>
<polygon fill="#ffffff" stroke="transparent" points="386.5,-379.2 386.5,-398.2 429.5,-398.2 429.5,-379.2 386.5,-379.2"/>
<polygon fill="none" stroke="#000000" points="386.5,-379.2 386.5,-398.2 429.5,-398.2 429.5,-379.2 386.5,-379.2"/>
<text text-anchor="start" x="420.3862" y="-385.3" font-family="Helvetica,sans-Serif" font-size="11.00" fill="#000000"> &#160;</text>
<polygon fill="#ffffff" stroke="transparent" points="429.5,-379.2 429.5,-398.2 473.5,-398.2 473.5,-379.2 429.5,-379.2"/>
<polygon fill="none" stroke="#000000" points="429.5,-379.2 429.5,-398.2 473.5,-398.2 473.5,-379.2 429.5,-379.2"/>
<text text-anchor="start" x="464.3862" y="-385.3" font-family="Helvetica,sans-Serif" font-size="11.00" fill="#000000"> &#160;</text>
</a>
</g>
</g>
<!-- public.audit_revision -->
<g id="node2" class="node">
<title>public.audit_revision</title>
<g id="a_node2"><a xlink:href="../../../public/tables/audit_revision.html" xlink:title="public.audit_revision" target="_top">
<polygon fill="#ffffff" stroke="transparent" points="8,-253.7 8,-314.7 187,-314.7 187,-253.7 8,-253.7"/>
<polygon fill="#f5f5f5" stroke="transparent" points="8.5,-291.2 8.5,-314.2 187.5,-314.2 187.5,-291.2 8.5,-291.2"/>
<polygon fill="none" stroke="#000000" points="8.5,-291.2 8.5,-314.2 187.5,-314.2 187.5,-291.2 8.5,-291.2"/>
<text text-anchor="start" x="13.5" y="-299.8" font-family="Helvetica,sans-Serif" font-weight="bold" font-size="11.00" fill="#000000">public.audit_revision</text>
<text text-anchor="start" x="153.0219" y="-299.3" font-family="Helvetica,sans-Serif" font-size="11.00" fill="#000000">[table]</text>
<polygon fill="none" stroke="#000000" points="8.5,-272.2 8.5,-291.2 187.5,-291.2 187.5,-272.2 8.5,-272.2"/>
<text text-anchor="start" x="11.5" y="-278.3" font-family="Helvetica,sans-Serif" font-size="11.00" fill="#000000">...</text>
<polygon fill="#ffffff" stroke="transparent" points="8.5,-253.2 8.5,-272.2 74.5,-272.2 74.5,-253.2 8.5,-253.2"/>
<polygon fill="none" stroke="#000000" points="8.5,-253.2 8.5,-272.2 74.5,-272.2 74.5,-253.2 8.5,-253.2"/>
<text text-anchor="start" x="11.5" y="-259.3" font-family="Helvetica,sans-Serif" font-size="11.00" fill="#000000"> &#160;</text>
<polygon fill="#ffffff" stroke="transparent" points="74.5,-253.2 74.5,-272.2 139.5,-272.2 139.5,-253.2 74.5,-253.2"/>
<polygon fill="none" stroke="#000000" points="74.5,-253.2 74.5,-272.2 139.5,-272.2 139.5,-253.2 74.5,-253.2"/>
<text text-anchor="start" x="104.1105" y="-259.3" font-family="Helvetica,sans-Serif" font-size="11.00" fill="#000000">0 rows</text>
<polygon fill="#ffffff" stroke="transparent" points="139.5,-253.2 139.5,-272.2 187.5,-272.2 187.5,-253.2 139.5,-253.2"/>
<polygon fill="none" stroke="#000000" points="139.5,-253.2 139.5,-272.2 187.5,-272.2 187.5,-253.2 139.5,-253.2"/>
<text text-anchor="start" x="168.9053" y="-259.3" font-family="Helvetica,sans-Serif" font-size="11.00" fill="#000000">4 &gt;</text>
</a>
</g>
</g>
<!-- authorisation_audit&#45;&gt;public.audit_revision -->
<g id="edge1" class="edge">
<title>authorisation_audit:w&#45;&gt;public.audit_revision:e</title>
<path fill="none" stroke="#000000" d="M287.9788,-406.4518C224.2624,-399.9607 164.8157,-352.612 129.8097,-318.7897"/>
<polygon fill="#000000" stroke="#000000" points="294.5106,-406.7883 302.3147,-410.7952 298.5053,-406.9942 302.5,-407.2 302.5,-407.2 302.5,-407.2 298.5053,-406.9942 302.6853,-403.6048 294.5106,-406.7883 294.5106,-406.7883"/>
<ellipse fill="none" stroke="#000000" cx="291.3148" cy="-406.6236" rx="3.2" ry="3.2"/>
</g>
<!-- movement_audit -->
<g id="node3" class="node">
<title>movement_audit</title>
<g id="a_node3"><a xlink:href="../../tables/movement_audit.html" xlink:title="movement_audit" target="_top">
<polygon fill="#ffffff" stroke="transparent" points="312,-297.7 312,-358.7 463,-358.7 463,-297.7 312,-297.7"/>
<polygon fill="#f5f5f5" stroke="transparent" points="312.5,-335.2 312.5,-358.2 463.5,-358.2 463.5,-335.2 312.5,-335.2"/>
<polygon fill="none" stroke="#000000" points="312.5,-335.2 312.5,-358.2 463.5,-358.2 463.5,-335.2 312.5,-335.2"/>
<text text-anchor="start" x="317.5" y="-343.8" font-family="Helvetica,sans-Serif" font-weight="bold" font-size="11.00" fill="#000000">movement_audit</text>
<text text-anchor="start" x="429.0219" y="-343.3" font-family="Helvetica,sans-Serif" font-size="11.00" fill="#000000">[table]</text>
<polygon fill="none" stroke="#000000" points="312.5,-316.2 312.5,-335.2 463.5,-335.2 463.5,-316.2 312.5,-316.2"/>
<text text-anchor="start" x="315.5" y="-322.3" font-family="Helvetica,sans-Serif" font-size="11.00" fill="#000000">...</text>
<polygon fill="#ffffff" stroke="transparent" points="312.5,-297.2 312.5,-316.2 386.5,-316.2 386.5,-297.2 312.5,-297.2"/>
<polygon fill="none" stroke="#000000" points="312.5,-297.2 312.5,-316.2 386.5,-316.2 386.5,-297.2 312.5,-297.2"/>
<text text-anchor="start" x="315.5" y="-303.3" font-family="Helvetica,sans-Serif" font-size="11.00" fill="#000000">&lt; 1</text>
<polygon fill="#ffffff" stroke="transparent" points="386.5,-297.2 386.5,-316.2 424.5,-316.2 424.5,-297.2 386.5,-297.2"/>
<polygon fill="none" stroke="#000000" points="386.5,-297.2 386.5,-316.2 424.5,-316.2 424.5,-297.2 386.5,-297.2"/>
<text text-anchor="start" x="415.3862" y="-303.3" font-family="Helvetica,sans-Serif" font-size="11.00" fill="#000000"> &#160;</text>
<polygon fill="#ffffff" stroke="transparent" points="424.5,-297.2 424.5,-316.2 463.5,-316.2 463.5,-297.2 424.5,-297.2"/>
<polygon fill="none" stroke="#000000" points="424.5,-297.2 424.5,-316.2 463.5,-316.2 463.5,-297.2 424.5,-297.2"/>
<text text-anchor="start" x="454.3862" y="-303.3" font-family="Helvetica,sans-Serif" font-size="11.00" fill="#000000"> &#160;</text>
</a>
</g>
</g>
<!-- movement_audit&#45;&gt;public.audit_revision -->
<g id="edge2" class="edge">
<title>movement_audit:w&#45;&gt;public.audit_revision:e</title>
<path fill="none" stroke="#000000" d="M297.8303,-324.905C263.3257,-323.5521 227.1724,-317.7123 195.2254,-310.8602"/>
<polygon fill="#000000" stroke="#000000" points="304.5016,-325.0391 312.4276,-328.7993 308.5008,-325.1196 312.5,-325.2 312.5,-325.2 312.5,-325.2 308.5008,-325.1196 312.5724,-321.6007 304.5016,-325.0391 304.5016,-325.0391"/>
<ellipse fill="none" stroke="#000000" cx="301.3023" cy="-324.9748" rx="3.2" ry="3.2"/>
</g>
<!-- occurrence_audit -->
<g id="node4" class="node">
<title>occurrence_audit</title>
<g id="a_node4"><a xlink:href="../../tables/occurrence_audit.html" xlink:title="occurrence_audit" target="_top">
<polygon fill="#ffffff" stroke="transparent" points="310.5,-215.7 310.5,-276.7 464.5,-276.7 464.5,-215.7 310.5,-215.7"/>
<polygon fill="#f5f5f5" stroke="transparent" points="310.5,-253.2 310.5,-276.2 464.5,-276.2 464.5,-253.2 310.5,-253.2"/>
<polygon fill="none" stroke="#000000" points="310.5,-253.2 310.5,-276.2 464.5,-276.2 464.5,-253.2 310.5,-253.2"/>
<text text-anchor="start" x="315.5" y="-261.8" font-family="Helvetica,sans-Serif" font-weight="bold" font-size="11.00" fill="#000000">occurrence_audit</text>
<text text-anchor="start" x="430.0219" y="-261.3" font-family="Helvetica,sans-Serif" font-size="11.00" fill="#000000">[table]</text>
<polygon fill="none" stroke="#000000" points="310.5,-234.2 310.5,-253.2 464.5,-253.2 464.5,-234.2 310.5,-234.2"/>
<text text-anchor="start" x="313.5" y="-240.3" font-family="Helvetica,sans-Serif" font-size="11.00" fill="#000000">...</text>
<polygon fill="#ffffff" stroke="transparent" points="310.5,-215.2 310.5,-234.2 385.5,-234.2 385.5,-215.2 310.5,-215.2"/>
<polygon fill="none" stroke="#000000" points="310.5,-215.2 310.5,-234.2 385.5,-234.2 385.5,-215.2 310.5,-215.2"/>
<text text-anchor="start" x="313.5" y="-221.3" font-family="Helvetica,sans-Serif" font-size="11.00" fill="#000000">&lt; 1</text>
<polygon fill="#ffffff" stroke="transparent" points="385.5,-215.2 385.5,-234.2 424.5,-234.2 424.5,-215.2 385.5,-215.2"/>
<polygon fill="none" stroke="#000000" points="385.5,-215.2 385.5,-234.2 424.5,-234.2 424.5,-215.2 385.5,-215.2"/>
<text text-anchor="start" x="415.3862" y="-221.3" font-family="Helvetica,sans-Serif" font-size="11.00" fill="#000000"> &#160;</text>
<polygon fill="#ffffff" stroke="transparent" points="424.5,-215.2 424.5,-234.2 464.5,-234.2 464.5,-215.2 424.5,-215.2"/>
<polygon fill="none" stroke="#000000" points="424.5,-215.2 424.5,-234.2 464.5,-234.2 464.5,-215.2 424.5,-215.2"/>
<text text-anchor="start" x="455.3862" y="-221.3" font-family="Helvetica,sans-Serif" font-size="11.00" fill="#000000"> &#160;</text>
</a>
</g>
</g>
<!-- occurrence_audit&#45;&gt;public.audit_revision -->
<g id="edge3" class="edge">
<title>occurrence_audit:w&#45;&gt;public.audit_revision:e</title>
<path fill="none" stroke="#000000" d="M296.0702,-243.4907C262.1324,-244.8243 226.5863,-250.5827 195.1013,-257.3673"/>
<polygon fill="#000000" stroke="#000000" points="302.5016,-243.3612 310.5725,-246.7993 306.5008,-243.2806 310.5,-243.2 310.5,-243.2 310.5,-243.2 306.5008,-243.2806 310.4275,-239.6007 302.5016,-243.3612 302.5016,-243.3612"/>
<ellipse fill="none" stroke="#000000" cx="299.3023" cy="-243.4257" rx="3.2" ry="3.2"/>
</g>
<!-- prison_tap_locations_audit -->
<g id="node5" class="node">
<title>prison_tap_locations_audit</title>
<g id="a_node5"><a xlink:href="../../tables/prison_tap_locations_audit.html" xlink:title="prison_tap_locations_audit" target="_top">
<polygon fill="#ffffff" stroke="transparent" points="236,-38.2 236,-194.2 539,-194.2 539,-38.2 236,-38.2"/>
<polygon fill="#f5f5f5" stroke="transparent" points="238.5,-169.2 238.5,-192.2 537.5,-192.2 537.5,-169.2 238.5,-169.2"/>
<polygon fill="none" stroke="#000000" points="238.5,-169.2 238.5,-192.2 537.5,-192.2 537.5,-169.2 238.5,-169.2"/>
<text text-anchor="start" x="243.5" y="-177.8" font-family="Helvetica,sans-Serif" font-weight="bold" font-size="11.00" fill="#000000">prison_tap_locations_audit</text>
<text text-anchor="start" x="502.5437" y="-177.3" font-family="Helvetica,sans-Serif" font-size="11.00" fill="#000000">[table]</text>
<polygon fill="none" stroke="#000000" points="238.5,-147.2 238.5,-169.2 438.5,-169.2 438.5,-147.2 238.5,-147.2"/>
<image xlink:href="../../images/primaryKeys.png" width="11px" height="12px" preserveAspectRatio="xMinYMin meet" x="243.5" y="-164.2"/>
<text text-anchor="start" x="258.5" y="-154.3" font-family="Helvetica,sans-Serif" font-size="11.00" fill="#000000">rev_id</text>
<polygon fill="none" stroke="#000000" points="438.5,-147.2 438.5,-169.2 537.5,-169.2 537.5,-147.2 438.5,-147.2"/>
<text text-anchor="start" x="441.5" y="-154.9" font-family="Helvetica,sans-Serif" font-size="11.00" fill="#000000">int8[19]</text>
<polygon fill="none" stroke="#000000" points="238.5,-125.2 238.5,-147.2 438.5,-147.2 438.5,-125.2 238.5,-125.2"/>
<text text-anchor="start" x="258.5" y="-132.3" font-family="Helvetica,sans-Serif" font-size="11.00" fill="#000000">rev_type</text>
<polygon fill="none" stroke="#000000" points="438.5,-125.2 438.5,-147.2 537.5,-147.2 537.5,-125.2 438.5,-125.2"/>
<text text-anchor="start" x="441.5" y="-132.9" font-family="Helvetica,sans-Serif" font-size="11.00" fill="#000000">int2[5]</text>
<polygon fill="none" stroke="#000000" points="238.5,-103.2 238.5,-125.2 438.5,-125.2 438.5,-103.2 238.5,-103.2"/>
<image xlink:href="../../images/primaryKeys.png" width="11px" height="12px" preserveAspectRatio="xMinYMin meet" x="243.5" y="-120.2"/>
<text text-anchor="start" x="258.5" y="-110.3" font-family="Helvetica,sans-Serif" font-size="11.00" fill="#000000">prison_code</text>
<polygon fill="none" stroke="#000000" points="438.5,-103.2 438.5,-125.2 537.5,-125.2 537.5,-103.2 438.5,-103.2"/>
<text text-anchor="start" x="441.5" y="-110.9" font-family="Helvetica,sans-Serif" font-size="11.00" fill="#000000">varchar[6]</text>
<polygon fill="none" stroke="#000000" points="238.5,-81.2 238.5,-103.2 438.5,-103.2 438.5,-81.2 238.5,-81.2"/>
<text text-anchor="start" x="258.5" y="-88.3" font-family="Helvetica,sans-Serif" font-size="11.00" fill="#000000">locations</text>
<polygon fill="none" stroke="#000000" points="438.5,-81.2 438.5,-103.2 537.5,-103.2 537.5,-81.2 438.5,-81.2"/>
<text text-anchor="start" x="441.2258" y="-88.9" font-family="Helvetica,sans-Serif" font-size="11.00" fill="#000000">jsonb[2147483647]</text>
<polygon fill="none" stroke="#000000" points="238.5,-59.2 238.5,-81.2 438.5,-81.2 438.5,-59.2 238.5,-59.2"/>
<text text-anchor="start" x="258.5" y="-66.3" font-family="Helvetica,sans-Serif" font-size="11.00" fill="#000000">version</text>
<polygon fill="none" stroke="#000000" points="438.5,-59.2 438.5,-81.2 537.5,-81.2 537.5,-59.2 438.5,-59.2"/>
<text text-anchor="start" x="441.5" y="-66.9" font-family="Helvetica,sans-Serif" font-size="11.00" fill="#000000">int4[10]</text>
<polygon fill="#ffffff" stroke="transparent" points="238.5,-40.2 238.5,-59.2 342.5,-59.2 342.5,-40.2 238.5,-40.2"/>
<polygon fill="none" stroke="#000000" points="238.5,-40.2 238.5,-59.2 342.5,-59.2 342.5,-40.2 238.5,-40.2"/>
<text text-anchor="start" x="241.5" y="-46.3" font-family="Helvetica,sans-Serif" font-size="11.00" fill="#000000">&lt; 1</text>
<polygon fill="#ffffff" stroke="transparent" points="342.5,-40.2 342.5,-59.2 438.5,-59.2 438.5,-40.2 342.5,-40.2"/>
<polygon fill="none" stroke="#000000" points="342.5,-40.2 342.5,-59.2 438.5,-59.2 438.5,-40.2 342.5,-40.2"/>
<text text-anchor="start" x="429.3862" y="-46.3" font-family="Helvetica,sans-Serif" font-size="11.00" fill="#000000"> &#160;</text>
<polygon fill="#ffffff" stroke="transparent" points="438.5,-40.2 438.5,-59.2 537.5,-59.2 537.5,-40.2 438.5,-40.2"/>
<polygon fill="none" stroke="#000000" points="438.5,-40.2 438.5,-59.2 537.5,-59.2 537.5,-40.2 438.5,-40.2"/>
<text text-anchor="start" x="518.9053" y="-46.3" font-family="Helvetica,sans-Serif" font-size="11.00" fill="#000000">0 &gt;</text>
<polygon fill="none" stroke="#000000" stroke-width="2" points="237,-39.2 237,-193.2 538,-193.2 538,-39.2 237,-39.2"/>
</a>
</g>
</g>
<!-- prison_tap_locations_audit&#45;&gt;public.audit_revision -->
<g id="edge4" class="edge">
<title>prison_tap_locations_audit:w&#45;&gt;public.audit_revision:e</title>
<path fill="none" stroke="#000000" d="M223.9657,-159.455C175.8752,-167.7582 138.0127,-215.4919 116.6869,-249.4364"/>
<polygon fill="#000000" stroke="#000000" points="230.5297,-158.8883 238.8097,-161.7867 234.5148,-158.5441 238.5,-158.2 238.5,-158.2 238.5,-158.2 234.5148,-158.5441 238.1903,-154.6133 230.5297,-158.8883 230.5297,-158.8883"/>
<ellipse fill="none" stroke="#000000" cx="227.3415" cy="-159.1636" rx="3.2" ry="3.2"/>
</g>
</g>
</svg>
