<?xml version="1.0" encoding="UTF-8" standalone="no"?>
<!DOCTYPE svg PUBLIC "-//W3C//DTD SVG 1.1//EN"
 "http://www.w3.org/Graphics/SVG/1.1/DTD/svg11.dtd">
<!-- Generated by graphviz version 2.40.1 (20161225.0304)
 -->
<!-- Title: oneDegreeRelationshipsDiagram Pages: 1 -->
<svg width="286pt" height="162pt"
 viewBox="0.00 0.00 286.00 162.20" xmlns="http://www.w3.org/2000/svg" xmlns:xlink="http://www.w3.org/1999/xlink">
<g id="graph0" class="graph" transform="scale(1 1) rotate(0) translate(4 158.2)">
<title>oneDegreeRelationshipsDiagram</title>
<polygon fill="#ffffff" stroke="transparent" points="-4,4 -4,-158.2 282,-158.2 282,4 -4,4"/>
<text text-anchor="middle" x="72.4936" y="-7.3" font-family="Helvetica,sans-Serif" font-size="11.00" fill="#000000">Generated by SchemaSpy</text>
<!-- prison_tap_locations -->
<g id="node1" class="node">
<title>prison_tap_locations</title>
<g id="a_node1"><a xlink:href="../../tables/prison_tap_locations.html" xlink:title="prison_tap_locations" target="_top">
<polygon fill="#ffffff" stroke="transparent" points="8,-38.2 8,-150.2 270,-150.2 270,-38.2 8,-38.2"/>
<polygon fill="#f5f5f5" stroke="transparent" points="10,-125.2 10,-148.2 268,-148.2 268,-125.2 10,-125.2"/>
<polygon fill="none" stroke="#000000" points="10,-125.2 10,-148.2 268,-148.2 268,-125.2 10,-125.2"/>
<text text-anchor="start" x="15" y="-133.8" font-family="Helvetica,sans-Serif" font-weight="bold" font-size="11.00" fill="#000000">prison_tap_locations</text>
<text text-anchor="start" x="233.0437" y="-133.3" font-family="Helvetica,sans-Serif" font-size="11.00" fill="#000000">[table]</text>
<polygon fill="none" stroke="#000000" points="10,-103.2 10,-125.2 169,-125.2 169,-103.2 10,-103.2"/>
<image xlink:href="../../images/primaryKeys.png" width="11px" height="12px" preserveAspectRatio="xMinYMin meet" x="15" y="-120.2"/>
<text text-anchor="start" x="30" y="-110.3" font-family="Helvetica,sans-Serif" font-size="11.00" fill="#000000">prison_code</text>
<polygon fill="none" stroke="#000000" points="169,-103.2 169,-125.2 268,-125.2 268,-103.2 169,-103.2"/>
<text text-anchor="start" x="172" y="-110.9" font-family="Helvetica,sans-Serif" font-size="11.00" fill="#000000">varchar[6]</text>
<polygon fill="none" stroke="#000000" points="10,-81.2 10,-103.2 169,-103.2 169,-81.2 10,-81.2"/>
<text text-anchor="start" x="30" y="-88.3" font-family="Helvetica,sans-Serif" font-size="11.00" fill="#000000">locations</text>
<polygon fill="none" stroke="#000000" points="169,-81.2 169,-103.2 268,-103.2 268,-81.2 169,-81.2"/>
<text text-anchor="start" x="171.7258" y="-88.9" font-family="Helvetica,sans-Serif" font-size="11.00" fill="#000000">jsonb[2147483647]</text>
<polygon fill="none" stroke="#000000" points="10,-59.2 10,-81.2 169,-81.2 169,-59.2 10,-59.2"/>
<text text-anchor="start" x="30" y="-66.3" font-family="Helvetica,sans-Serif" font-size="11.00" fill="#000000">version</text>
<polygon fill="none" stroke="#000000" points="169,-59.2 169,-81.2 268,-81.2 268,-59.2 169,-59.2"/>
<text text-anchor="start" x="172" y="-66.9" font-family="Helvetica,sans-Serif" font-size="11.00" fill="#000000">int4[10]</text>
<polygon fill="#ffffff" stroke="transparent" points="10,-40.2 10,-59.2 94,-59.2 94,-40.2 10,-40.2"/>
<polygon fill="none" stroke="#000000" points="10,-40.2 10,-59.2 94,-59.2 94,-40.2 10,-40.2"/>
<text text-anchor="start" x="13" y="-46.3" font-family="Helvetica,sans-Serif" font-size="11.00" fill="#000000">&lt; 0</text>
<polygon fill="#ffffff" stroke="transparent" points="94,-40.2 94,-59.2 169,-59.2 169,-40.2 94,-40.2"/>
<polygon fill="none" stroke="#000000" points="94,-40.2 94,-59.2 169,-59.2 169,-40.2 94,-40.2"/>
<text text-anchor="start" x="159.8862" y="-46.3" font-family="Helvetica,sans-Serif" font-size="11.00" fill="#000000"> &#160;</text>
<polygon fill="#ffffff" stroke="transparent" points="169,-40.2 169,-59.2 268,-59.2 268,-40.2 169,-40.2"/>
<polygon fill="none" stroke="#000000" points="169,-40.2 169,-59.2 268,-59.2 268,-40.2 169,-40.2"/>
<text text-anchor="start" x="249.4053" y="-46.3" font-family="Helvetica,sans-Serif" font-size="11.00" fill="#000000">0 &gt;</text>
<polygon fill="none" stroke="#000000" stroke-width="2" points="9,-39.2 9,-149.2 269,-149.2 269,-39.2 9,-39.2"/>
</a>
</g>
</g>
</g>
</svg>
