<?xml version="1.0" encoding="UTF-8" standalone="no"?>
<!DOCTYPE svg PUBLIC "-//W3C//DTD SVG 1.1//EN"
 "http://www.w3.org/Graphics/SVG/1.1/DTD/svg11.dtd">
<!-- Generated by graphviz version 2.40.1 (20161225.0304)
 -->
<!-- Title: largeRelationshipsDiagram Pages: 1 -->
<svg width="543pt" height="1906pt"
 viewBox="0.00 0.00 543.00 1906.20" xmlns="http://www.w3.org/2000/svg" xmlns:xlink="http://www.w3.org/1999/xlink">
<g id="graph0" class="graph" transform="scale(1 1) rotate(0) translate(4 1902.2)">
<title>largeRelationshipsDiagram</title>
<polygon fill="#ffffff" stroke="transparent" points="-4,4 -4,-1902.2 539,-1902.2 539,4 -4,4"/>
<text text-anchor="middle" x="72.4936" y="-7.3" font-family="Helvetica,sans-Serif" font-size="11.00" fill="#000000">Generated by SchemaSpy</text>
<!-- hmpps_domain_event_audit -->
<g id="node1" class="node">
<title>hmpps_domain_event_audit</title>
<g id="a_node1"><a xlink:href="../../tables/hmpps_domain_event_audit.html" xlink:title="hmpps_domain_event_audit" target="_top">
<polygon fill="#ffffff" stroke="transparent" points="277.5,-1481.2 277.5,-1699.2 502.5,-1699.2 502.5,-1481.2 277.5,-1481.2"/>
<polygon fill="#f5f5f5" stroke="transparent" points="278,-1676.2 278,-1699.2 503,-1699.2 503,-1676.2 278,-1676.2"/>
<polygon fill="none" stroke="#000000" points="278,-1676.2 278,-1699.2 503,-1699.2 503,-1676.2 278,-1676.2"/>
<text text-anchor="start" x="283" y="-1684.8" font-family="Helvetica,sans-Serif" font-weight="bold" font-size="11.00" fill="#000000">hmpps_domain_event_audit</text>
<text text-anchor="start" x="468.5219" y="-1684.3" font-family="Helvetica,sans-Serif" font-size="11.00" fill="#000000">[table]</text>
<polygon fill="none" stroke="#000000" points="278,-1654.2 278,-1676.2 503,-1676.2 503,-1654.2 278,-1654.2"/>
<image xlink:href="../../images/primaryKeys.png" width="11px" height="12px" preserveAspectRatio="xMinYMin meet" x="283" y="-1671.2"/>
<text text-anchor="start" x="307" y="-1661.3" font-family="Helvetica,sans-Serif" font-size="11.00" fill="#000000">rev_id</text>
<polygon fill="#ffffff" stroke="transparent" points="278,-1632.2 278,-1654.2 503,-1654.2 503,-1632.2 278,-1632.2"/>
<polygon fill="none" stroke="#000000" points="278,-1632.2 278,-1654.2 503,-1654.2 503,-1632.2 278,-1632.2"/>
<text text-anchor="start" x="307" y="-1639.3" font-family="Helvetica,sans-Serif" font-size="11.00" fill="#000000">rev_type</text>
<polygon fill="none" stroke="#000000" points="278,-1610.2 278,-1632.2 503,-1632.2 503,-1610.2 278,-1610.2"/>
<image xlink:href="../../images/primaryKeys.png" width="11px" height="12px" preserveAspectRatio="xMinYMin meet" x="283" y="-1627.2"/>
<text text-anchor="start" x="307" y="-1617.3" font-family="Helvetica,sans-Serif" font-size="11.00" fill="#000000">id</text>
<polygon fill="none" stroke="#000000" points="278,-1588.2 278,-1610.2 503,-1610.2 503,-1588.2 278,-1588.2"/>
<text text-anchor="start" x="307" y="-1595.3" font-family="Helvetica,sans-Serif" font-size="11.00" fill="#000000">event_type</text>
<polygon fill="none" stroke="#000000" points="278,-1566.2 278,-1588.2 503,-1588.2 503,-1566.2 278,-1566.2"/>
<text text-anchor="start" x="307" y="-1573.3" font-family="Helvetica,sans-Serif" font-size="11.00" fill="#000000">event</text>
<polygon fill="none" stroke="#000000" points="278,-1544.2 278,-1566.2 503,-1566.2 503,-1544.2 278,-1544.2"/>
<text text-anchor="start" x="307" y="-1551.3" font-family="Helvetica,sans-Serif" font-size="11.00" fill="#000000">published</text>
<polygon fill="none" stroke="#000000" points="278,-1522.2 278,-1544.2 503,-1544.2 503,-1522.2 278,-1522.2"/>
<text text-anchor="start" x="307" y="-1529.3" font-family="Helvetica,sans-Serif" font-size="11.00" fill="#000000">version</text>
<polygon fill="#ffffff" stroke="transparent" points="278,-1500.2 278,-1522.2 503,-1522.2 503,-1500.2 278,-1500.2"/>
<polygon fill="none" stroke="#000000" points="278,-1500.2 278,-1522.2 503,-1522.2 503,-1500.2 278,-1500.2"/>
<text text-anchor="start" x="307" y="-1507.3" font-family="Helvetica,sans-Serif" font-size="11.00" fill="#000000">entity_id</text>
<polygon fill="#ffffff" stroke="transparent" points="278,-1481.2 278,-1500.2 389,-1500.2 389,-1481.2 278,-1481.2"/>
<polygon fill="none" stroke="#000000" points="278,-1481.2 278,-1500.2 389,-1500.2 389,-1481.2 278,-1481.2"/>
<text text-anchor="start" x="281" y="-1487.3" font-family="Helvetica,sans-Serif" font-size="11.00" fill="#000000">&lt; 1</text>
<polygon fill="#ffffff" stroke="transparent" points="389,-1481.2 389,-1500.2 446,-1500.2 446,-1481.2 389,-1481.2"/>
<polygon fill="none" stroke="#000000" points="389,-1481.2 389,-1500.2 446,-1500.2 446,-1481.2 389,-1481.2"/>
<text text-anchor="start" x="436.8862" y="-1487.3" font-family="Helvetica,sans-Serif" font-size="11.00" fill="#000000"> &#160;</text>
<polygon fill="#ffffff" stroke="transparent" points="446,-1481.2 446,-1500.2 503,-1500.2 503,-1481.2 446,-1481.2"/>
<polygon fill="none" stroke="#000000" points="446,-1481.2 446,-1500.2 503,-1500.2 503,-1481.2 446,-1481.2"/>
<text text-anchor="start" x="493.8862" y="-1487.3" font-family="Helvetica,sans-Serif" font-size="11.00" fill="#000000"> &#160;</text>
</a>
</g>
</g>
<!-- audit_revision -->
<g id="node3" class="node">
<title>audit_revision</title>
<g id="a_node3"><a xlink:href="../../tables/audit_revision.html" xlink:title="audit_revision" target="_top">
<polygon fill="#ffffff" stroke="transparent" points="39,-1034.2 39,-1208.2 173,-1208.2 173,-1034.2 39,-1034.2"/>
<polygon fill="#f5f5f5" stroke="transparent" points="39,-1185.2 39,-1208.2 173,-1208.2 173,-1185.2 39,-1185.2"/>
<polygon fill="none" stroke="#000000" points="39,-1185.2 39,-1208.2 173,-1208.2 173,-1185.2 39,-1185.2"/>
<text text-anchor="start" x="44" y="-1193.8" font-family="Helvetica,sans-Serif" font-weight="bold" font-size="11.00" fill="#000000">audit_revision</text>
<text text-anchor="start" x="138.5219" y="-1193.3" font-family="Helvetica,sans-Serif" font-size="11.00" fill="#000000">[table]</text>
<polygon fill="none" stroke="#000000" points="39,-1163.2 39,-1185.2 173,-1185.2 173,-1163.2 39,-1163.2"/>
<image xlink:href="../../images/primaryKeys.png" width="11px" height="12px" preserveAspectRatio="xMinYMin meet" x="44" y="-1180.2"/>
<text text-anchor="start" x="59" y="-1170.3" font-family="Helvetica,sans-Serif" font-size="11.00" fill="#000000">id</text>
<polygon fill="none" stroke="#000000" points="39,-1141.2 39,-1163.2 173,-1163.2 173,-1141.2 39,-1141.2"/>
<text text-anchor="start" x="59" y="-1148.3" font-family="Helvetica,sans-Serif" font-size="11.00" fill="#000000">timestamp</text>
<polygon fill="none" stroke="#000000" points="39,-1119.2 39,-1141.2 173,-1141.2 173,-1119.2 39,-1119.2"/>
<text text-anchor="start" x="59" y="-1126.3" font-family="Helvetica,sans-Serif" font-size="11.00" fill="#000000">username</text>
<polygon fill="none" stroke="#000000" points="39,-1097.2 39,-1119.2 173,-1119.2 173,-1097.2 39,-1097.2"/>
<text text-anchor="start" x="59" y="-1104.3" font-family="Helvetica,sans-Serif" font-size="11.00" fill="#000000">source</text>
<polygon fill="none" stroke="#000000" points="39,-1075.2 39,-1097.2 173,-1097.2 173,-1075.2 39,-1075.2"/>
<text text-anchor="start" x="59" y="-1082.3" font-family="Helvetica,sans-Serif" font-size="11.00" fill="#000000">affected_entities</text>
<polygon fill="none" stroke="#000000" points="39,-1053.2 39,-1075.2 173,-1075.2 173,-1053.2 39,-1053.2"/>
<text text-anchor="start" x="59" y="-1060.3" font-family="Helvetica,sans-Serif" font-size="11.00" fill="#000000">reason</text>
<polygon fill="#ffffff" stroke="transparent" points="39,-1034.2 39,-1053.2 95,-1053.2 95,-1034.2 39,-1034.2"/>
<polygon fill="none" stroke="#000000" points="39,-1034.2 39,-1053.2 95,-1053.2 95,-1034.2 39,-1034.2"/>
<text text-anchor="start" x="42" y="-1040.3" font-family="Helvetica,sans-Serif" font-size="11.00" fill="#000000"> &#160;</text>
<polygon fill="#ffffff" stroke="transparent" points="95,-1034.2 95,-1053.2 129,-1053.2 129,-1034.2 95,-1034.2"/>
<polygon fill="none" stroke="#000000" points="95,-1034.2 95,-1053.2 129,-1053.2 129,-1034.2 95,-1034.2"/>
<text text-anchor="start" x="119.8862" y="-1040.3" font-family="Helvetica,sans-Serif" font-size="11.00" fill="#000000"> &#160;</text>
<polygon fill="#ffffff" stroke="transparent" points="129,-1034.2 129,-1053.2 173,-1053.2 173,-1034.2 129,-1034.2"/>
<polygon fill="none" stroke="#000000" points="129,-1034.2 129,-1053.2 173,-1053.2 173,-1034.2 129,-1034.2"/>
<text text-anchor="start" x="154.4053" y="-1040.3" font-family="Helvetica,sans-Serif" font-size="11.00" fill="#000000">4 &gt;</text>
</a>
</g>
</g>
<!-- hmpps_domain_event_audit&#45;&gt;audit_revision -->
<g id="edge1" class="edge">
<title>hmpps_domain_event_audit:w&#45;&gt;audit_revision:e</title>
<path fill="none" stroke="#000000" d="M263.7764,-1662.0646C176.9942,-1620.2476 279.3479,-1174.2 173,-1174.2"/>
<polygon fill="#000000" stroke="#000000" points="270.1876,-1663.4778 277.225,-1668.7156 274.0938,-1664.3389 278,-1665.2 278,-1665.2 278,-1665.2 274.0938,-1664.3389 278.775,-1661.6844 270.1876,-1663.4778 270.1876,-1663.4778"/>
<ellipse fill="none" stroke="#000000" cx="267.0626" cy="-1662.7889" rx="3.2" ry="3.2"/>
</g>
<!-- reference_data_domain -->
<g id="node2" class="node">
<title>reference_data_domain</title>
<g id="a_node2"><a xlink:href="../../tables/reference_data_domain.html" xlink:title="reference_data_domain" target="_top">
<polygon fill="#ffffff" stroke="transparent" points="8,-1786.2 8,-1872.2 204,-1872.2 204,-1786.2 8,-1786.2"/>
<polygon fill="#f5f5f5" stroke="transparent" points="8,-1849.2 8,-1872.2 204,-1872.2 204,-1849.2 8,-1849.2"/>
<polygon fill="none" stroke="#000000" points="8,-1849.2 8,-1872.2 204,-1872.2 204,-1849.2 8,-1849.2"/>
<text text-anchor="start" x="13" y="-1857.8" font-family="Helvetica,sans-Serif" font-weight="bold" font-size="11.00" fill="#000000">reference_data_domain</text>
<text text-anchor="start" x="169.5219" y="-1857.3" font-family="Helvetica,sans-Serif" font-size="11.00" fill="#000000">[table]</text>
<polygon fill="none" stroke="#000000" points="8,-1827.2 8,-1849.2 204,-1849.2 204,-1827.2 8,-1827.2"/>
<image xlink:href="../../images/primaryKeys.png" width="11px" height="12px" preserveAspectRatio="xMinYMin meet" x="13" y="-1844.2"/>
<text text-anchor="start" x="37" y="-1834.3" font-family="Helvetica,sans-Serif" font-size="11.00" fill="#000000">code</text>
<polygon fill="none" stroke="#000000" points="8,-1805.2 8,-1827.2 204,-1827.2 204,-1805.2 8,-1805.2"/>
<text text-anchor="start" x="37" y="-1812.3" font-family="Helvetica,sans-Serif" font-size="11.00" fill="#000000">description</text>
<polygon fill="#ffffff" stroke="transparent" points="8,-1786.2 8,-1805.2 95,-1805.2 95,-1786.2 8,-1786.2"/>
<polygon fill="none" stroke="#000000" points="8,-1786.2 8,-1805.2 95,-1805.2 95,-1786.2 8,-1786.2"/>
<text text-anchor="start" x="11" y="-1792.3" font-family="Helvetica,sans-Serif" font-size="11.00" fill="#000000"> &#160;</text>
<polygon fill="#ffffff" stroke="transparent" points="95,-1786.2 95,-1805.2 145,-1805.2 145,-1786.2 95,-1786.2"/>
<polygon fill="none" stroke="#000000" points="95,-1786.2 95,-1805.2 145,-1805.2 145,-1786.2 95,-1786.2"/>
<text text-anchor="start" x="135.8862" y="-1792.3" font-family="Helvetica,sans-Serif" font-size="11.00" fill="#000000"> &#160;</text>
<polygon fill="#ffffff" stroke="transparent" points="145,-1786.2 145,-1805.2 204,-1805.2 204,-1786.2 145,-1786.2"/>
<polygon fill="none" stroke="#000000" points="145,-1786.2 145,-1805.2 204,-1805.2 204,-1786.2 145,-1786.2"/>
<text text-anchor="start" x="185.4053" y="-1792.3" font-family="Helvetica,sans-Serif" font-size="11.00" fill="#000000">1 &gt;</text>
</a>
</g>
</g>
<!-- tap.authorisation_audit -->
<g id="node4" class="node">
<title>tap.authorisation_audit</title>
<g id="a_node4"><a xlink:title="tap.authorisation_audit">
<polygon fill="#ffffff" stroke="transparent" points="283.5,-978.2 283.5,-1460.2 496.5,-1460.2 496.5,-978.2 283.5,-978.2"/>
<polygon fill="#f5f5f5" stroke="transparent" points="284,-1437.2 284,-1460.2 497,-1460.2 497,-1437.2 284,-1437.2"/>
<polygon fill="none" stroke="#000000" points="284,-1437.2 284,-1460.2 497,-1460.2 497,-1437.2 284,-1437.2"/>
<text text-anchor="start" x="289" y="-1445.8" font-family="Helvetica,sans-Serif" font-weight="bold" font-size="11.00" fill="#000000">tap.authorisation_audit</text>
<text text-anchor="start" x="462.0437" y="-1445.3" font-family="Helvetica,sans-Serif" font-size="11.00" fill="#000000">[table]</text>
<polygon fill="none" stroke="#000000" points="284,-1415.2 284,-1437.2 497,-1437.2 497,-1415.2 284,-1415.2"/>
<image xlink:href="../../images/foreignKeys.png" width="11px" height="12px" preserveAspectRatio="xMinYMin meet" x="289" y="-1432.2"/>
<text text-anchor="start" x="304" y="-1422.3" font-family="Helvetica,sans-Serif" font-size="11.00" fill="#000000">rev_id</text>
<polygon fill="none" stroke="#000000" points="284,-1393.2 284,-1415.2 497,-1415.2 497,-1393.2 284,-1393.2"/>
<text text-anchor="start" x="304" y="-1400.3" font-family="Helvetica,sans-Serif" font-size="11.00" fill="#000000">rev_type</text>
<polygon fill="none" stroke="#000000" points="284,-1371.2 284,-1393.2 497,-1393.2 497,-1371.2 284,-1371.2"/>
<text text-anchor="start" x="304" y="-1378.3" font-family="Helvetica,sans-Serif" font-size="11.00" fill="#000000">id</text>
<polygon fill="none" stroke="#000000" points="284,-1349.2 284,-1371.2 497,-1371.2 497,-1349.2 284,-1349.2"/>
<text text-anchor="start" x="304" y="-1356.3" font-family="Helvetica,sans-Serif" font-size="11.00" fill="#000000">version</text>
<polygon fill="none" stroke="#000000" points="284,-1327.2 284,-1349.2 497,-1349.2 497,-1327.2 284,-1327.2"/>
<text text-anchor="start" x="304" y="-1334.3" font-family="Helvetica,sans-Serif" font-size="11.00" fill="#000000">person_identifier</text>
<polygon fill="none" stroke="#000000" points="284,-1305.2 284,-1327.2 497,-1327.2 497,-1305.2 284,-1305.2"/>
<text text-anchor="start" x="304" y="-1312.3" font-family="Helvetica,sans-Serif" font-size="11.00" fill="#000000">prison_code</text>
<polygon fill="none" stroke="#000000" points="284,-1283.2 284,-1305.2 497,-1305.2 497,-1283.2 284,-1283.2"/>
<text text-anchor="start" x="304" y="-1290.3" font-family="Helvetica,sans-Serif" font-size="11.00" fill="#000000">status_id</text>
<polygon fill="none" stroke="#000000" points="284,-1261.2 284,-1283.2 497,-1283.2 497,-1261.2 284,-1261.2"/>
<text text-anchor="start" x="304" y="-1268.3" font-family="Helvetica,sans-Serif" font-size="11.00" fill="#000000">absence_type_id</text>
<polygon fill="none" stroke="#000000" points="284,-1239.2 284,-1261.2 497,-1261.2 497,-1239.2 284,-1239.2"/>
<text text-anchor="start" x="304" y="-1246.3" font-family="Helvetica,sans-Serif" font-size="11.00" fill="#000000">absence_sub_type_id</text>
<polygon fill="none" stroke="#000000" points="284,-1217.2 284,-1239.2 497,-1239.2 497,-1217.2 284,-1217.2"/>
<text text-anchor="start" x="304" y="-1224.3" font-family="Helvetica,sans-Serif" font-size="11.00" fill="#000000">absence_reason_category_id</text>
<polygon fill="none" stroke="#000000" points="284,-1195.2 284,-1217.2 497,-1217.2 497,-1195.2 284,-1195.2"/>
<text text-anchor="start" x="304" y="-1202.3" font-family="Helvetica,sans-Serif" font-size="11.00" fill="#000000">absence_reason_id</text>
<polygon fill="none" stroke="#000000" points="284,-1173.2 284,-1195.2 497,-1195.2 497,-1173.2 284,-1173.2"/>
<text text-anchor="start" x="304" y="-1180.3" font-family="Helvetica,sans-Serif" font-size="11.00" fill="#000000">accompanied_by_id</text>
<polygon fill="none" stroke="#000000" points="284,-1151.2 284,-1173.2 497,-1173.2 497,-1151.2 284,-1151.2"/>
<text text-anchor="start" x="304" y="-1158.3" font-family="Helvetica,sans-Serif" font-size="11.00" fill="#000000">transport_id</text>
<polygon fill="none" stroke="#000000" points="284,-1129.2 284,-1151.2 497,-1151.2 497,-1129.2 284,-1129.2"/>
<text text-anchor="start" x="304" y="-1136.3" font-family="Helvetica,sans-Serif" font-size="11.00" fill="#000000">start</text>
<polygon fill="none" stroke="#000000" points="284,-1107.2 284,-1129.2 497,-1129.2 497,-1107.2 284,-1107.2"/>
<text text-anchor="start" x="304" y="-1114.3" font-family="Helvetica,sans-Serif" font-size="11.00" fill="#000000">end</text>
<polygon fill="none" stroke="#000000" points="284,-1085.2 284,-1107.2 497,-1107.2 497,-1085.2 284,-1085.2"/>
<text text-anchor="start" x="304" y="-1092.3" font-family="Helvetica,sans-Serif" font-size="11.00" fill="#000000">repeat</text>
<polygon fill="none" stroke="#000000" points="284,-1063.2 284,-1085.2 497,-1085.2 497,-1063.2 284,-1063.2"/>
<text text-anchor="start" x="304" y="-1070.3" font-family="Helvetica,sans-Serif" font-size="11.00" fill="#000000">comments</text>
<polygon fill="none" stroke="#000000" points="284,-1041.2 284,-1063.2 497,-1063.2 497,-1041.2 284,-1041.2"/>
<text text-anchor="start" x="304" y="-1048.3" font-family="Helvetica,sans-Serif" font-size="11.00" fill="#000000">reason_path</text>
<polygon fill="none" stroke="#000000" points="284,-1019.2 284,-1041.2 497,-1041.2 497,-1019.2 284,-1019.2"/>
<text text-anchor="start" x="304" y="-1026.3" font-family="Helvetica,sans-Serif" font-size="11.00" fill="#000000">schedule</text>
<polygon fill="none" stroke="#000000" points="284,-997.2 284,-1019.2 497,-1019.2 497,-997.2 284,-997.2"/>
<text text-anchor="start" x="304" y="-1004.3" font-family="Helvetica,sans-Serif" font-size="11.00" fill="#000000">legacy_id</text>
<polygon fill="#ffffff" stroke="transparent" points="284,-978.2 284,-997.2 376,-997.2 376,-978.2 284,-978.2"/>
<polygon fill="none" stroke="#000000" points="284,-978.2 284,-997.2 376,-997.2 376,-978.2 284,-978.2"/>
<text text-anchor="start" x="287" y="-984.3" font-family="Helvetica,sans-Serif" font-size="11.00" fill="#000000">&lt; 1</text>
<polygon fill="#ffffff" stroke="transparent" points="376,-978.2 376,-997.2 449,-997.2 449,-978.2 376,-978.2"/>
<polygon fill="none" stroke="#000000" points="376,-978.2 376,-997.2 449,-997.2 449,-978.2 376,-978.2"/>
<text text-anchor="start" x="413.6105" y="-984.3" font-family="Helvetica,sans-Serif" font-size="11.00" fill="#000000">0 rows</text>
<polygon fill="#ffffff" stroke="transparent" points="449,-978.2 449,-997.2 497,-997.2 497,-978.2 449,-978.2"/>
<polygon fill="none" stroke="#000000" points="449,-978.2 449,-997.2 497,-997.2 497,-978.2 449,-978.2"/>
<text text-anchor="start" x="487.8862" y="-984.3" font-family="Helvetica,sans-Serif" font-size="11.00" fill="#000000"> &#160;</text>
</a>
</g>
</g>
<!-- tap.authorisation_audit&#45;&gt;audit_revision -->
<g id="edge2" class="edge">
<title>tap.authorisation_audit:w&#45;&gt;audit_revision:e</title>
<path fill="none" stroke="#000000" d="M269.6021,-1424.8442C172.639,-1405.009 290.1251,-1174.2 173,-1174.2"/>
<polygon fill="#000000" stroke="#000000" points="276.0352,-1425.4499 283.6625,-1429.7841 280.0176,-1425.825 284,-1426.2 284,-1426.2 284,-1426.2 280.0176,-1425.825 284.3375,-1422.6159 276.0352,-1425.4499 276.0352,-1425.4499"/>
<ellipse fill="none" stroke="#000000" cx="272.8493" cy="-1425.1499" rx="3.2" ry="3.2"/>
</g>
<!-- tap.movement_audit -->
<g id="node5" class="node">
<title>tap.movement_audit</title>
<g id="a_node5"><a xlink:title="tap.movement_audit">
<polygon fill="#ffffff" stroke="transparent" points="286,-585.2 286,-957.2 494,-957.2 494,-585.2 286,-585.2"/>
<polygon fill="#f5f5f5" stroke="transparent" points="286,-934.2 286,-957.2 494,-957.2 494,-934.2 286,-934.2"/>
<polygon fill="none" stroke="#000000" points="286,-934.2 286,-957.2 494,-957.2 494,-934.2 286,-934.2"/>
<text text-anchor="start" x="291" y="-942.8" font-family="Helvetica,sans-Serif" font-weight="bold" font-size="11.00" fill="#000000">tap.movement_audit</text>
<text text-anchor="start" x="459.0437" y="-942.3" font-family="Helvetica,sans-Serif" font-size="11.00" fill="#000000">[table]</text>
<polygon fill="none" stroke="#000000" points="286,-912.2 286,-934.2 494,-934.2 494,-912.2 286,-912.2"/>
<image xlink:href="../../images/foreignKeys.png" width="11px" height="12px" preserveAspectRatio="xMinYMin meet" x="291" y="-929.2"/>
<text text-anchor="start" x="306" y="-919.3" font-family="Helvetica,sans-Serif" font-size="11.00" fill="#000000">rev_id</text>
<polygon fill="none" stroke="#000000" points="286,-890.2 286,-912.2 494,-912.2 494,-890.2 286,-890.2"/>
<text text-anchor="start" x="306" y="-897.3" font-family="Helvetica,sans-Serif" font-size="11.00" fill="#000000">rev_type</text>
<polygon fill="none" stroke="#000000" points="286,-868.2 286,-890.2 494,-890.2 494,-868.2 286,-868.2"/>
<text text-anchor="start" x="306" y="-875.3" font-family="Helvetica,sans-Serif" font-size="11.00" fill="#000000">id</text>
<polygon fill="none" stroke="#000000" points="286,-846.2 286,-868.2 494,-868.2 494,-846.2 286,-846.2"/>
<text text-anchor="start" x="306" y="-853.3" font-family="Helvetica,sans-Serif" font-size="11.00" fill="#000000">version</text>
<polygon fill="none" stroke="#000000" points="286,-824.2 286,-846.2 494,-846.2 494,-824.2 286,-824.2"/>
<text text-anchor="start" x="306" y="-831.3" font-family="Helvetica,sans-Serif" font-size="11.00" fill="#000000">person_identifier</text>
<polygon fill="none" stroke="#000000" points="286,-802.2 286,-824.2 494,-824.2 494,-802.2 286,-802.2"/>
<text text-anchor="start" x="306" y="-809.3" font-family="Helvetica,sans-Serif" font-size="11.00" fill="#000000">occurrence_id</text>
<polygon fill="none" stroke="#000000" points="286,-780.2 286,-802.2 494,-802.2 494,-780.2 286,-780.2"/>
<text text-anchor="start" x="306" y="-787.3" font-family="Helvetica,sans-Serif" font-size="11.00" fill="#000000">occurred_at</text>
<polygon fill="none" stroke="#000000" points="286,-758.2 286,-780.2 494,-780.2 494,-758.2 286,-758.2"/>
<text text-anchor="start" x="306" y="-765.3" font-family="Helvetica,sans-Serif" font-size="11.00" fill="#000000">direction</text>
<polygon fill="none" stroke="#000000" points="286,-736.2 286,-758.2 494,-758.2 494,-736.2 286,-736.2"/>
<text text-anchor="start" x="306" y="-743.3" font-family="Helvetica,sans-Serif" font-size="11.00" fill="#000000">absence_reason_id</text>
<polygon fill="none" stroke="#000000" points="286,-714.2 286,-736.2 494,-736.2 494,-714.2 286,-714.2"/>
<text text-anchor="start" x="306" y="-721.3" font-family="Helvetica,sans-Serif" font-size="11.00" fill="#000000">accompanied_by_id</text>
<polygon fill="none" stroke="#000000" points="286,-692.2 286,-714.2 494,-714.2 494,-692.2 286,-692.2"/>
<text text-anchor="start" x="306" y="-699.3" font-family="Helvetica,sans-Serif" font-size="11.00" fill="#000000">accompanied_by_comments</text>
<polygon fill="none" stroke="#000000" points="286,-670.2 286,-692.2 494,-692.2 494,-670.2 286,-670.2"/>
<text text-anchor="start" x="306" y="-677.3" font-family="Helvetica,sans-Serif" font-size="11.00" fill="#000000">location</text>
<polygon fill="none" stroke="#000000" points="286,-648.2 286,-670.2 494,-670.2 494,-648.2 286,-648.2"/>
<text text-anchor="start" x="306" y="-655.3" font-family="Helvetica,sans-Serif" font-size="11.00" fill="#000000">comments</text>
<polygon fill="none" stroke="#000000" points="286,-626.2 286,-648.2 494,-648.2 494,-626.2 286,-626.2"/>
<text text-anchor="start" x="306" y="-633.3" font-family="Helvetica,sans-Serif" font-size="11.00" fill="#000000">recorded_by_prison_code</text>
<polygon fill="none" stroke="#000000" points="286,-604.2 286,-626.2 494,-626.2 494,-604.2 286,-604.2"/>
<text text-anchor="start" x="306" y="-611.3" font-family="Helvetica,sans-Serif" font-size="11.00" fill="#000000">legacy_id</text>
<polygon fill="#ffffff" stroke="transparent" points="286,-585.2 286,-604.2 375,-604.2 375,-585.2 286,-585.2"/>
<polygon fill="none" stroke="#000000" points="286,-585.2 286,-604.2 375,-604.2 375,-585.2 286,-585.2"/>
<text text-anchor="start" x="289" y="-591.3" font-family="Helvetica,sans-Serif" font-size="11.00" fill="#000000">&lt; 1</text>
<polygon fill="#ffffff" stroke="transparent" points="375,-585.2 375,-604.2 447,-604.2 447,-585.2 375,-585.2"/>
<polygon fill="none" stroke="#000000" points="375,-585.2 375,-604.2 447,-604.2 447,-585.2 375,-585.2"/>
<text text-anchor="start" x="411.6105" y="-591.3" font-family="Helvetica,sans-Serif" font-size="11.00" fill="#000000">0 rows</text>
<polygon fill="#ffffff" stroke="transparent" points="447,-585.2 447,-604.2 494,-604.2 494,-585.2 447,-585.2"/>
<polygon fill="none" stroke="#000000" points="447,-585.2 447,-604.2 494,-604.2 494,-585.2 447,-585.2"/>
<text text-anchor="start" x="484.8862" y="-591.3" font-family="Helvetica,sans-Serif" font-size="11.00" fill="#000000"> &#160;</text>
</a>
</g>
</g>
<!-- tap.movement_audit&#45;&gt;audit_revision -->
<g id="edge3" class="edge">
<title>tap.movement_audit:w&#45;&gt;audit_revision:e</title>
<path fill="none" stroke="#000000" d="M271.5964,-924.5504C174.5078,-944.3069 290.0826,-1174.2 173,-1174.2"/>
<polygon fill="#000000" stroke="#000000" points="278.0349,-923.9468 286.3361,-926.7843 282.0175,-923.5734 286,-923.2 286,-923.2 286,-923.2 282.0175,-923.5734 285.6639,-919.6157 278.0349,-923.9468 278.0349,-923.9468"/>
<ellipse fill="none" stroke="#000000" cx="274.8489" cy="-924.2456" rx="3.2" ry="3.2"/>
</g>
<!-- tap.prison_absence_categorisation -->
<g id="node6" class="node">
<title>tap.prison_absence_categorisation</title>
<g id="a_node6"><a xlink:title="tap.prison_absence_categorisation">
<polygon fill="#ffffff" stroke="transparent" points="253,-1720.2 253,-1894.2 527,-1894.2 527,-1720.2 253,-1720.2"/>
<polygon fill="#f5f5f5" stroke="transparent" points="253,-1871.2 253,-1894.2 527,-1894.2 527,-1871.2 253,-1871.2"/>
<polygon fill="none" stroke="#000000" points="253,-1871.2 253,-1894.2 527,-1894.2 527,-1871.2 253,-1871.2"/>
<text text-anchor="start" x="258" y="-1879.8" font-family="Helvetica,sans-Serif" font-weight="bold" font-size="11.00" fill="#000000">tap.prison_absence_categorisation</text>
<text text-anchor="start" x="492.5219" y="-1879.3" font-family="Helvetica,sans-Serif" font-size="11.00" fill="#000000">[table]</text>
<polygon fill="none" stroke="#000000" points="253,-1849.2 253,-1871.2 527,-1871.2 527,-1849.2 253,-1849.2"/>
<text text-anchor="start" x="296" y="-1856.3" font-family="Helvetica,sans-Serif" font-size="11.00" fill="#000000">prison_code</text>
<polygon fill="none" stroke="#000000" points="253,-1827.2 253,-1849.2 527,-1849.2 527,-1827.2 253,-1827.2"/>
<image xlink:href="../../images/foreignKeys.png" width="11px" height="12px" preserveAspectRatio="xMinYMin meet" x="258" y="-1844.2"/>
<text text-anchor="start" x="296" y="-1834.3" font-family="Helvetica,sans-Serif" font-size="11.00" fill="#000000">domain_code</text>
<polygon fill="none" stroke="#000000" points="253,-1805.2 253,-1827.2 527,-1827.2 527,-1805.2 253,-1805.2"/>
<text text-anchor="start" x="296" y="-1812.3" font-family="Helvetica,sans-Serif" font-size="11.00" fill="#000000">code</text>
<polygon fill="none" stroke="#000000" points="253,-1783.2 253,-1805.2 527,-1805.2 527,-1783.2 253,-1783.2"/>
<text text-anchor="start" x="296" y="-1790.3" font-family="Helvetica,sans-Serif" font-size="11.00" fill="#000000">description</text>
<polygon fill="none" stroke="#000000" points="253,-1761.2 253,-1783.2 527,-1783.2 527,-1761.2 253,-1761.2"/>
<text text-anchor="start" x="296" y="-1768.3" font-family="Helvetica,sans-Serif" font-size="11.00" fill="#000000">active</text>
<polygon fill="none" stroke="#000000" points="253,-1739.2 253,-1761.2 527,-1761.2 527,-1739.2 253,-1739.2"/>
<text text-anchor="start" x="296" y="-1746.3" font-family="Helvetica,sans-Serif" font-size="11.00" fill="#000000">sequence_number</text>
<polygon fill="#ffffff" stroke="transparent" points="253,-1720.2 253,-1739.2 375,-1739.2 375,-1720.2 253,-1720.2"/>
<polygon fill="none" stroke="#000000" points="253,-1720.2 253,-1739.2 375,-1739.2 375,-1720.2 253,-1720.2"/>
<text text-anchor="start" x="256" y="-1726.3" font-family="Helvetica,sans-Serif" font-size="11.00" fill="#000000">&lt; 1</text>
<polygon fill="#ffffff" stroke="transparent" points="375,-1720.2 375,-1739.2 464,-1739.2 464,-1720.2 375,-1720.2"/>
<polygon fill="none" stroke="#000000" points="375,-1720.2 375,-1739.2 464,-1739.2 464,-1720.2 375,-1720.2"/>
<text text-anchor="start" x="428.6105" y="-1726.3" font-family="Helvetica,sans-Serif" font-size="11.00" fill="#000000">0 rows</text>
<polygon fill="#ffffff" stroke="transparent" points="464,-1720.2 464,-1739.2 527,-1739.2 527,-1720.2 464,-1720.2"/>
<polygon fill="none" stroke="#000000" points="464,-1720.2 464,-1739.2 527,-1739.2 527,-1720.2 464,-1720.2"/>
<text text-anchor="start" x="517.8862" y="-1726.3" font-family="Helvetica,sans-Serif" font-size="11.00" fill="#000000"> &#160;</text>
</a>
</g>
</g>
<!-- tap.prison_absence_categorisation&#45;&gt;reference_data_domain -->
<g id="edge5" class="edge">
<title>tap.prison_absence_categorisation:w&#45;&gt;reference_data_domain:e</title>
<path fill="none" stroke="#000000" d="M238.4909,-1838.2C227.1774,-1838.2 219.9931,-1838.2 204,-1838.2"/>
<polygon fill="#000000" stroke="#000000" points="245,-1838.2001 253,-1841.8 249,-1838.2 253,-1838.2 253,-1838.2 253,-1838.2 249,-1838.2 253,-1834.6 245,-1838.2001 245,-1838.2001"/>
<ellipse fill="none" stroke="#000000" cx="241.8" cy="-1838.2001" rx="3.2" ry="3.2"/>
</g>
<!-- tap.occurrence_audit -->
<g id="node7" class="node">
<title>tap.occurrence_audit</title>
<g id="a_node7"><a xlink:title="tap.occurrence_audit">
<polygon fill="#ffffff" stroke="transparent" points="283.5,-38.2 283.5,-564.2 496.5,-564.2 496.5,-38.2 283.5,-38.2"/>
<polygon fill="#f5f5f5" stroke="transparent" points="284,-541.2 284,-564.2 497,-564.2 497,-541.2 284,-541.2"/>
<polygon fill="none" stroke="#000000" points="284,-541.2 284,-564.2 497,-564.2 497,-541.2 284,-541.2"/>
<text text-anchor="start" x="289" y="-549.8" font-family="Helvetica,sans-Serif" font-weight="bold" font-size="11.00" fill="#000000">tap.occurrence_audit</text>
<text text-anchor="start" x="462.0437" y="-549.3" font-family="Helvetica,sans-Serif" font-size="11.00" fill="#000000">[table]</text>
<polygon fill="none" stroke="#000000" points="284,-519.2 284,-541.2 497,-541.2 497,-519.2 284,-519.2"/>
<image xlink:href="../../images/foreignKeys.png" width="11px" height="12px" preserveAspectRatio="xMinYMin meet" x="289" y="-536.2"/>
<text text-anchor="start" x="304" y="-526.3" font-family="Helvetica,sans-Serif" font-size="11.00" fill="#000000">rev_id</text>
<polygon fill="none" stroke="#000000" points="284,-497.2 284,-519.2 497,-519.2 497,-497.2 284,-497.2"/>
<text text-anchor="start" x="304" y="-504.3" font-family="Helvetica,sans-Serif" font-size="11.00" fill="#000000">rev_type</text>
<polygon fill="none" stroke="#000000" points="284,-475.2 284,-497.2 497,-497.2 497,-475.2 284,-475.2"/>
<text text-anchor="start" x="304" y="-482.3" font-family="Helvetica,sans-Serif" font-size="11.00" fill="#000000">id</text>
<polygon fill="none" stroke="#000000" points="284,-453.2 284,-475.2 497,-475.2 497,-453.2 284,-453.2"/>
<text text-anchor="start" x="304" y="-460.3" font-family="Helvetica,sans-Serif" font-size="11.00" fill="#000000">version</text>
<polygon fill="none" stroke="#000000" points="284,-431.2 284,-453.2 497,-453.2 497,-431.2 284,-431.2"/>
<text text-anchor="start" x="304" y="-438.3" font-family="Helvetica,sans-Serif" font-size="11.00" fill="#000000">person_identifier</text>
<polygon fill="none" stroke="#000000" points="284,-409.2 284,-431.2 497,-431.2 497,-409.2 284,-409.2"/>
<text text-anchor="start" x="304" y="-416.3" font-family="Helvetica,sans-Serif" font-size="11.00" fill="#000000">prison_code</text>
<polygon fill="none" stroke="#000000" points="284,-387.2 284,-409.2 497,-409.2 497,-387.2 284,-387.2"/>
<text text-anchor="start" x="304" y="-394.3" font-family="Helvetica,sans-Serif" font-size="11.00" fill="#000000">authorisation_id</text>
<polygon fill="none" stroke="#000000" points="284,-365.2 284,-387.2 497,-387.2 497,-365.2 284,-365.2"/>
<text text-anchor="start" x="304" y="-372.3" font-family="Helvetica,sans-Serif" font-size="11.00" fill="#000000">status_id</text>
<polygon fill="none" stroke="#000000" points="284,-343.2 284,-365.2 497,-365.2 497,-343.2 284,-343.2"/>
<text text-anchor="start" x="304" y="-350.3" font-family="Helvetica,sans-Serif" font-size="11.00" fill="#000000">absence_type_id</text>
<polygon fill="none" stroke="#000000" points="284,-321.2 284,-343.2 497,-343.2 497,-321.2 284,-321.2"/>
<text text-anchor="start" x="304" y="-328.3" font-family="Helvetica,sans-Serif" font-size="11.00" fill="#000000">absence_sub_type_id</text>
<polygon fill="none" stroke="#000000" points="284,-299.2 284,-321.2 497,-321.2 497,-299.2 284,-299.2"/>
<text text-anchor="start" x="304" y="-306.3" font-family="Helvetica,sans-Serif" font-size="11.00" fill="#000000">absence_reason_category_id</text>
<polygon fill="none" stroke="#000000" points="284,-277.2 284,-299.2 497,-299.2 497,-277.2 284,-277.2"/>
<text text-anchor="start" x="304" y="-284.3" font-family="Helvetica,sans-Serif" font-size="11.00" fill="#000000">absence_reason_id</text>
<polygon fill="none" stroke="#000000" points="284,-255.2 284,-277.2 497,-277.2 497,-255.2 284,-255.2"/>
<text text-anchor="start" x="304" y="-262.3" font-family="Helvetica,sans-Serif" font-size="11.00" fill="#000000">accompanied_by_id</text>
<polygon fill="none" stroke="#000000" points="284,-233.2 284,-255.2 497,-255.2 497,-233.2 284,-233.2"/>
<text text-anchor="start" x="304" y="-240.3" font-family="Helvetica,sans-Serif" font-size="11.00" fill="#000000">transport_id</text>
<polygon fill="none" stroke="#000000" points="284,-211.2 284,-233.2 497,-233.2 497,-211.2 284,-211.2"/>
<text text-anchor="start" x="304" y="-218.3" font-family="Helvetica,sans-Serif" font-size="11.00" fill="#000000">start</text>
<polygon fill="none" stroke="#000000" points="284,-189.2 284,-211.2 497,-211.2 497,-189.2 284,-189.2"/>
<text text-anchor="start" x="304" y="-196.3" font-family="Helvetica,sans-Serif" font-size="11.00" fill="#000000">end</text>
<polygon fill="none" stroke="#000000" points="284,-167.2 284,-189.2 497,-189.2 497,-167.2 284,-167.2"/>
<text text-anchor="start" x="304" y="-174.3" font-family="Helvetica,sans-Serif" font-size="11.00" fill="#000000">location</text>
<polygon fill="none" stroke="#000000" points="284,-145.2 284,-167.2 497,-167.2 497,-145.2 284,-145.2"/>
<text text-anchor="start" x="304" y="-152.3" font-family="Helvetica,sans-Serif" font-size="11.00" fill="#000000">contact_information</text>
<polygon fill="none" stroke="#000000" points="284,-123.2 284,-145.2 497,-145.2 497,-123.2 284,-123.2"/>
<text text-anchor="start" x="304" y="-130.3" font-family="Helvetica,sans-Serif" font-size="11.00" fill="#000000">comments</text>
<polygon fill="none" stroke="#000000" points="284,-101.2 284,-123.2 497,-123.2 497,-101.2 284,-101.2"/>
<text text-anchor="start" x="304" y="-108.3" font-family="Helvetica,sans-Serif" font-size="11.00" fill="#000000">reason_path</text>
<polygon fill="none" stroke="#000000" points="284,-79.2 284,-101.2 497,-101.2 497,-79.2 284,-79.2"/>
<text text-anchor="start" x="304" y="-86.3" font-family="Helvetica,sans-Serif" font-size="11.00" fill="#000000">schedule_reference</text>
<polygon fill="none" stroke="#000000" points="284,-57.2 284,-79.2 497,-79.2 497,-57.2 284,-57.2"/>
<text text-anchor="start" x="304" y="-64.3" font-family="Helvetica,sans-Serif" font-size="11.00" fill="#000000">legacy_id</text>
<polygon fill="#ffffff" stroke="transparent" points="284,-38.2 284,-57.2 376,-57.2 376,-38.2 284,-38.2"/>
<polygon fill="none" stroke="#000000" points="284,-38.2 284,-57.2 376,-57.2 376,-38.2 284,-38.2"/>
<text text-anchor="start" x="287" y="-44.3" font-family="Helvetica,sans-Serif" font-size="11.00" fill="#000000">&lt; 1</text>
<polygon fill="#ffffff" stroke="transparent" points="376,-38.2 376,-57.2 449,-57.2 449,-38.2 376,-38.2"/>
<polygon fill="none" stroke="#000000" points="376,-38.2 376,-57.2 449,-57.2 449,-38.2 376,-38.2"/>
<text text-anchor="start" x="413.6105" y="-44.3" font-family="Helvetica,sans-Serif" font-size="11.00" fill="#000000">0 rows</text>
<polygon fill="#ffffff" stroke="transparent" points="449,-38.2 449,-57.2 497,-57.2 497,-38.2 449,-38.2"/>
<polygon fill="none" stroke="#000000" points="449,-38.2 449,-57.2 497,-57.2 497,-38.2 449,-38.2"/>
<text text-anchor="start" x="487.8862" y="-44.3" font-family="Helvetica,sans-Serif" font-size="11.00" fill="#000000"> &#160;</text>
</a>
</g>
</g>
<!-- tap.occurrence_audit&#45;&gt;audit_revision -->
<g id="edge4" class="edge">
<title>tap.occurrence_audit:w&#45;&gt;audit_revision:e</title>
<path fill="none" stroke="#000000" d="M269.4992,-532.6616C151.3223,-575.8983 312.9741,-1174.2 173,-1174.2"/>
<polygon fill="#000000" stroke="#000000" points="276.1128,-531.539 284.6025,-533.7492 280.0564,-530.8695 284,-530.2 284,-530.2 284,-530.2 280.0564,-530.8695 283.3975,-526.6508 276.1128,-531.539 276.1128,-531.539"/>
<ellipse fill="none" stroke="#000000" cx="272.958" cy="-532.0745" rx="3.2" ry="3.2"/>
</g>
</g>
</svg>
