<?xml version="1.0" encoding="UTF-8" standalone="no"?>
<!DOCTYPE svg PUBLIC "-//W3C//DTD SVG 1.1//EN"
 "http://www.w3.org/Graphics/SVG/1.1/DTD/svg11.dtd">
<!-- Generated by graphviz version 2.40.1 (20161225.0304)
 -->
<!-- Title: largeRelationshipsDiagram Pages: 1 -->
<svg width="581pt" height="1774pt"
 viewBox="0.00 0.00 581.00 1774.20" xmlns="http://www.w3.org/2000/svg" xmlns:xlink="http://www.w3.org/1999/xlink">
<g id="graph0" class="graph" transform="scale(1 1) rotate(0) translate(4 1770.2)">
<title>largeRelationshipsDiagram</title>
<polygon fill="#ffffff" stroke="transparent" points="-4,4 -4,-1770.2 577,-1770.2 577,4 -4,4"/>
<text text-anchor="middle" x="72.4936" y="-7.3" font-family="Helvetica,sans-Serif" font-size="11.00" fill="#000000">Generated by SchemaSpy</text>
<!-- hmpps_domain_event_audit -->
<g id="node1" class="node">
<title>hmpps_domain_event_audit</title>
<g id="a_node1"><a xlink:href="../../tables/hmpps_domain_event_audit.html" xlink:title="hmpps_domain_event_audit" target="_top">
<polygon fill="#ffffff" stroke="transparent" points="296.5,-1437.2 296.5,-1655.2 521.5,-1655.2 521.5,-1437.2 296.5,-1437.2"/>
<polygon fill="#f5f5f5" stroke="transparent" points="297,-1632.2 297,-1655.2 522,-1655.2 522,-1632.2 297,-1632.2"/>
<polygon fill="none" stroke="#000000" points="297,-1632.2 297,-1655.2 522,-1655.2 522,-1632.2 297,-1632.2"/>
<text text-anchor="start" x="302" y="-1640.8" font-family="Helvetica,sans-Serif" font-weight="bold" font-size="11.00" fill="#000000">hmpps_domain_event_audit</text>
<text text-anchor="start" x="487.5219" y="-1640.3" font-family="Helvetica,sans-Serif" font-size="11.00" fill="#000000">[table]</text>
<polygon fill="none" stroke="#000000" points="297,-1610.2 297,-1632.2 522,-1632.2 522,-1610.2 297,-1610.2"/>
<image xlink:href="../../images/primaryKeys.png" width="11px" height="12px" preserveAspectRatio="xMinYMin meet" x="302" y="-1627.2"/>
<text text-anchor="start" x="326" y="-1617.3" font-family="Helvetica,sans-Serif" font-size="11.00" fill="#000000">rev_id</text>
<polygon fill="#ffffff" stroke="transparent" points="297,-1588.2 297,-1610.2 522,-1610.2 522,-1588.2 297,-1588.2"/>
<polygon fill="none" stroke="#000000" points="297,-1588.2 297,-1610.2 522,-1610.2 522,-1588.2 297,-1588.2"/>
<text text-anchor="start" x="326" y="-1595.3" font-family="Helvetica,sans-Serif" font-size="11.00" fill="#000000">rev_type</text>
<polygon fill="none" stroke="#000000" points="297,-1566.2 297,-1588.2 522,-1588.2 522,-1566.2 297,-1566.2"/>
<image xlink:href="../../images/primaryKeys.png" width="11px" height="12px" preserveAspectRatio="xMinYMin meet" x="302" y="-1583.2"/>
<text text-anchor="start" x="326" y="-1573.3" font-family="Helvetica,sans-Serif" font-size="11.00" fill="#000000">id</text>
<polygon fill="none" stroke="#000000" points="297,-1544.2 297,-1566.2 522,-1566.2 522,-1544.2 297,-1544.2"/>
<text text-anchor="start" x="326" y="-1551.3" font-family="Helvetica,sans-Serif" font-size="11.00" fill="#000000">event_type</text>
<polygon fill="none" stroke="#000000" points="297,-1522.2 297,-1544.2 522,-1544.2 522,-1522.2 297,-1522.2"/>
<text text-anchor="start" x="326" y="-1529.3" font-family="Helvetica,sans-Serif" font-size="11.00" fill="#000000">event</text>
<polygon fill="none" stroke="#000000" points="297,-1500.2 297,-1522.2 522,-1522.2 522,-1500.2 297,-1500.2"/>
<text text-anchor="start" x="326" y="-1507.3" font-family="Helvetica,sans-Serif" font-size="11.00" fill="#000000">published</text>
<polygon fill="none" stroke="#000000" points="297,-1478.2 297,-1500.2 522,-1500.2 522,-1478.2 297,-1478.2"/>
<text text-anchor="start" x="326" y="-1485.3" font-family="Helvetica,sans-Serif" font-size="11.00" fill="#000000">version</text>
<polygon fill="#ffffff" stroke="transparent" points="297,-1456.2 297,-1478.2 522,-1478.2 522,-1456.2 297,-1456.2"/>
<polygon fill="none" stroke="#000000" points="297,-1456.2 297,-1478.2 522,-1478.2 522,-1456.2 297,-1456.2"/>
<text text-anchor="start" x="326" y="-1463.3" font-family="Helvetica,sans-Serif" font-size="11.00" fill="#000000">entity_id</text>
<polygon fill="#ffffff" stroke="transparent" points="297,-1437.2 297,-1456.2 408,-1456.2 408,-1437.2 297,-1437.2"/>
<polygon fill="none" stroke="#000000" points="297,-1437.2 297,-1456.2 408,-1456.2 408,-1437.2 297,-1437.2"/>
<text text-anchor="start" x="300" y="-1443.3" font-family="Helvetica,sans-Serif" font-size="11.00" fill="#000000">&lt; 1</text>
<polygon fill="#ffffff" stroke="transparent" points="408,-1437.2 408,-1456.2 465,-1456.2 465,-1437.2 408,-1437.2"/>
<polygon fill="none" stroke="#000000" points="408,-1437.2 408,-1456.2 465,-1456.2 465,-1437.2 408,-1437.2"/>
<text text-anchor="start" x="455.8862" y="-1443.3" font-family="Helvetica,sans-Serif" font-size="11.00" fill="#000000"> &#160;</text>
<polygon fill="#ffffff" stroke="transparent" points="465,-1437.2 465,-1456.2 522,-1456.2 522,-1437.2 465,-1437.2"/>
<polygon fill="none" stroke="#000000" points="465,-1437.2 465,-1456.2 522,-1456.2 522,-1437.2 465,-1437.2"/>
<text text-anchor="start" x="512.8862" y="-1443.3" font-family="Helvetica,sans-Serif" font-size="11.00" fill="#000000"> &#160;</text>
</a>
</g>
</g>
<!-- audit_revision -->
<g id="node3" class="node">
<title>audit_revision</title>
<g id="a_node3"><a xlink:href="../../tables/audit_revision.html" xlink:title="audit_revision" target="_top">
<polygon fill="#ffffff" stroke="transparent" points="39,-990.2 39,-1164.2 173,-1164.2 173,-990.2 39,-990.2"/>
<polygon fill="#f5f5f5" stroke="transparent" points="39,-1141.2 39,-1164.2 173,-1164.2 173,-1141.2 39,-1141.2"/>
<polygon fill="none" stroke="#000000" points="39,-1141.2 39,-1164.2 173,-1164.2 173,-1141.2 39,-1141.2"/>
<text text-anchor="start" x="44" y="-1149.8" font-family="Helvetica,sans-Serif" font-weight="bold" font-size="11.00" fill="#000000">audit_revision</text>
<text text-anchor="start" x="138.5219" y="-1149.3" font-family="Helvetica,sans-Serif" font-size="11.00" fill="#000000">[table]</text>
<polygon fill="none" stroke="#000000" points="39,-1119.2 39,-1141.2 173,-1141.2 173,-1119.2 39,-1119.2"/>
<image xlink:href="../../images/primaryKeys.png" width="11px" height="12px" preserveAspectRatio="xMinYMin meet" x="44" y="-1136.2"/>
<text text-anchor="start" x="59" y="-1126.3" font-family="Helvetica,sans-Serif" font-size="11.00" fill="#000000">id</text>
<polygon fill="none" stroke="#000000" points="39,-1097.2 39,-1119.2 173,-1119.2 173,-1097.2 39,-1097.2"/>
<text text-anchor="start" x="59" y="-1104.3" font-family="Helvetica,sans-Serif" font-size="11.00" fill="#000000">timestamp</text>
<polygon fill="none" stroke="#000000" points="39,-1075.2 39,-1097.2 173,-1097.2 173,-1075.2 39,-1075.2"/>
<text text-anchor="start" x="59" y="-1082.3" font-family="Helvetica,sans-Serif" font-size="11.00" fill="#000000">username</text>
<polygon fill="none" stroke="#000000" points="39,-1053.2 39,-1075.2 173,-1075.2 173,-1053.2 39,-1053.2"/>
<text text-anchor="start" x="59" y="-1060.3" font-family="Helvetica,sans-Serif" font-size="11.00" fill="#000000">source</text>
<polygon fill="none" stroke="#000000" points="39,-1031.2 39,-1053.2 173,-1053.2 173,-1031.2 39,-1031.2"/>
<text text-anchor="start" x="59" y="-1038.3" font-family="Helvetica,sans-Serif" font-size="11.00" fill="#000000">affected_entities</text>
<polygon fill="none" stroke="#000000" points="39,-1009.2 39,-1031.2 173,-1031.2 173,-1009.2 39,-1009.2"/>
<text text-anchor="start" x="59" y="-1016.3" font-family="Helvetica,sans-Serif" font-size="11.00" fill="#000000">reason</text>
<polygon fill="#ffffff" stroke="transparent" points="39,-990.2 39,-1009.2 95,-1009.2 95,-990.2 39,-990.2"/>
<polygon fill="none" stroke="#000000" points="39,-990.2 39,-1009.2 95,-1009.2 95,-990.2 39,-990.2"/>
<text text-anchor="start" x="42" y="-996.3" font-family="Helvetica,sans-Serif" font-size="11.00" fill="#000000"> &#160;</text>
<polygon fill="#ffffff" stroke="transparent" points="95,-990.2 95,-1009.2 129,-1009.2 129,-990.2 95,-990.2"/>
<polygon fill="none" stroke="#000000" points="95,-990.2 95,-1009.2 129,-1009.2 129,-990.2 95,-990.2"/>
<text text-anchor="start" x="119.8862" y="-996.3" font-family="Helvetica,sans-Serif" font-size="11.00" fill="#000000"> &#160;</text>
<polygon fill="#ffffff" stroke="transparent" points="129,-990.2 129,-1009.2 173,-1009.2 173,-990.2 129,-990.2"/>
<polygon fill="none" stroke="#000000" points="129,-990.2 129,-1009.2 173,-1009.2 173,-990.2 129,-990.2"/>
<text text-anchor="start" x="154.4053" y="-996.3" font-family="Helvetica,sans-Serif" font-size="11.00" fill="#000000">4 &gt;</text>
</a>
</g>
</g>
<!-- hmpps_domain_event_audit&#45;&gt;audit_revision -->
<g id="edge1" class="edge">
<title>hmpps_domain_event_audit:w&#45;&gt;audit_revision:e</title>
<path fill="none" stroke="#000000" d="M282.8129,-1618.1918C193.2914,-1577.1621 280.3716,-1130.2 173,-1130.2"/>
<polygon fill="#000000" stroke="#000000" points="289.174,-1619.5406 296.2533,-1624.7217 293.087,-1620.3703 297,-1621.2 297,-1621.2 297,-1621.2 293.087,-1620.3703 297.7467,-1617.6783 289.174,-1619.5406 289.174,-1619.5406"/>
<ellipse fill="none" stroke="#000000" cx="286.0436" cy="-1618.8768" rx="3.2" ry="3.2"/>
</g>
<!-- reference_data_domain -->
<g id="node2" class="node">
<title>reference_data_domain</title>
<g id="a_node2"><a xlink:href="../../tables/reference_data_domain.html" xlink:title="reference_data_domain" target="_top">
<polygon fill="#ffffff" stroke="transparent" points="8,-1654.2 8,-1740.2 204,-1740.2 204,-1654.2 8,-1654.2"/>
<polygon fill="#f5f5f5" stroke="transparent" points="8,-1717.2 8,-1740.2 204,-1740.2 204,-1717.2 8,-1717.2"/>
<polygon fill="none" stroke="#000000" points="8,-1717.2 8,-1740.2 204,-1740.2 204,-1717.2 8,-1717.2"/>
<text text-anchor="start" x="13" y="-1725.8" font-family="Helvetica,sans-Serif" font-weight="bold" font-size="11.00" fill="#000000">reference_data_domain</text>
<text text-anchor="start" x="169.5219" y="-1725.3" font-family="Helvetica,sans-Serif" font-size="11.00" fill="#000000">[table]</text>
<polygon fill="none" stroke="#000000" points="8,-1695.2 8,-1717.2 204,-1717.2 204,-1695.2 8,-1695.2"/>
<image xlink:href="../../images/primaryKeys.png" width="11px" height="12px" preserveAspectRatio="xMinYMin meet" x="13" y="-1712.2"/>
<text text-anchor="start" x="37" y="-1702.3" font-family="Helvetica,sans-Serif" font-size="11.00" fill="#000000">code</text>
<polygon fill="none" stroke="#000000" points="8,-1673.2 8,-1695.2 204,-1695.2 204,-1673.2 8,-1673.2"/>
<text text-anchor="start" x="37" y="-1680.3" font-family="Helvetica,sans-Serif" font-size="11.00" fill="#000000">description</text>
<polygon fill="#ffffff" stroke="transparent" points="8,-1654.2 8,-1673.2 95,-1673.2 95,-1654.2 8,-1654.2"/>
<polygon fill="none" stroke="#000000" points="8,-1654.2 8,-1673.2 95,-1673.2 95,-1654.2 8,-1654.2"/>
<text text-anchor="start" x="11" y="-1660.3" font-family="Helvetica,sans-Serif" font-size="11.00" fill="#000000"> &#160;</text>
<polygon fill="#ffffff" stroke="transparent" points="95,-1654.2 95,-1673.2 145,-1673.2 145,-1654.2 95,-1654.2"/>
<polygon fill="none" stroke="#000000" points="95,-1654.2 95,-1673.2 145,-1673.2 145,-1654.2 95,-1654.2"/>
<text text-anchor="start" x="135.8862" y="-1660.3" font-family="Helvetica,sans-Serif" font-size="11.00" fill="#000000"> &#160;</text>
<polygon fill="#ffffff" stroke="transparent" points="145,-1654.2 145,-1673.2 204,-1673.2 204,-1654.2 145,-1654.2"/>
<polygon fill="none" stroke="#000000" points="145,-1654.2 145,-1673.2 204,-1673.2 204,-1654.2 145,-1654.2"/>
<text text-anchor="start" x="185.4053" y="-1660.3" font-family="Helvetica,sans-Serif" font-size="11.00" fill="#000000">1 &gt;</text>
</a>
</g>
</g>
<!-- tap.authorisation_audit -->
<g id="node4" class="node">
<title>tap.authorisation_audit</title>
<g id="a_node4"><a xlink:title="tap.authorisation_audit">
<polygon fill="#ffffff" stroke="transparent" points="302.5,-934.2 302.5,-1416.2 515.5,-1416.2 515.5,-934.2 302.5,-934.2"/>
<polygon fill="#f5f5f5" stroke="transparent" points="303,-1393.2 303,-1416.2 516,-1416.2 516,-1393.2 303,-1393.2"/>
<polygon fill="none" stroke="#000000" points="303,-1393.2 303,-1416.2 516,-1416.2 516,-1393.2 303,-1393.2"/>
<text text-anchor="start" x="308" y="-1401.8" font-family="Helvetica,sans-Serif" font-weight="bold" font-size="11.00" fill="#000000">tap.authorisation_audit</text>
<text text-anchor="start" x="481.0437" y="-1401.3" font-family="Helvetica,sans-Serif" font-size="11.00" fill="#000000">[table]</text>
<polygon fill="none" stroke="#000000" points="303,-1371.2 303,-1393.2 516,-1393.2 516,-1371.2 303,-1371.2"/>
<image xlink:href="../../images/foreignKeys.png" width="11px" height="12px" preserveAspectRatio="xMinYMin meet" x="308" y="-1388.2"/>
<text text-anchor="start" x="323" y="-1378.3" font-family="Helvetica,sans-Serif" font-size="11.00" fill="#000000">rev_id</text>
<polygon fill="none" stroke="#000000" points="303,-1349.2 303,-1371.2 516,-1371.2 516,-1349.2 303,-1349.2"/>
<text text-anchor="start" x="323" y="-1356.3" font-family="Helvetica,sans-Serif" font-size="11.00" fill="#000000">rev_type</text>
<polygon fill="none" stroke="#000000" points="303,-1327.2 303,-1349.2 516,-1349.2 516,-1327.2 303,-1327.2"/>
<text text-anchor="start" x="323" y="-1334.3" font-family="Helvetica,sans-Serif" font-size="11.00" fill="#000000">id</text>
<polygon fill="none" stroke="#000000" points="303,-1305.2 303,-1327.2 516,-1327.2 516,-1305.2 303,-1305.2"/>
<text text-anchor="start" x="323" y="-1312.3" font-family="Helvetica,sans-Serif" font-size="11.00" fill="#000000">version</text>
<polygon fill="none" stroke="#000000" points="303,-1283.2 303,-1305.2 516,-1305.2 516,-1283.2 303,-1283.2"/>
<text text-anchor="start" x="323" y="-1290.3" font-family="Helvetica,sans-Serif" font-size="11.00" fill="#000000">person_identifier</text>
<polygon fill="none" stroke="#000000" points="303,-1261.2 303,-1283.2 516,-1283.2 516,-1261.2 303,-1261.2"/>
<text text-anchor="start" x="323" y="-1268.3" font-family="Helvetica,sans-Serif" font-size="11.00" fill="#000000">prison_code</text>
<polygon fill="none" stroke="#000000" points="303,-1239.2 303,-1261.2 516,-1261.2 516,-1239.2 303,-1239.2"/>
<text text-anchor="start" x="323" y="-1246.3" font-family="Helvetica,sans-Serif" font-size="11.00" fill="#000000">status_id</text>
<polygon fill="none" stroke="#000000" points="303,-1217.2 303,-1239.2 516,-1239.2 516,-1217.2 303,-1217.2"/>
<text text-anchor="start" x="323" y="-1224.3" font-family="Helvetica,sans-Serif" font-size="11.00" fill="#000000">absence_type_id</text>
<polygon fill="none" stroke="#000000" points="303,-1195.2 303,-1217.2 516,-1217.2 516,-1195.2 303,-1195.2"/>
<text text-anchor="start" x="323" y="-1202.3" font-family="Helvetica,sans-Serif" font-size="11.00" fill="#000000">absence_sub_type_id</text>
<polygon fill="none" stroke="#000000" points="303,-1173.2 303,-1195.2 516,-1195.2 516,-1173.2 303,-1173.2"/>
<text text-anchor="start" x="323" y="-1180.3" font-family="Helvetica,sans-Serif" font-size="11.00" fill="#000000">absence_reason_category_id</text>
<polygon fill="none" stroke="#000000" points="303,-1151.2 303,-1173.2 516,-1173.2 516,-1151.2 303,-1151.2"/>
<text text-anchor="start" x="323" y="-1158.3" font-family="Helvetica,sans-Serif" font-size="11.00" fill="#000000">absence_reason_id</text>
<polygon fill="none" stroke="#000000" points="303,-1129.2 303,-1151.2 516,-1151.2 516,-1129.2 303,-1129.2"/>
<text text-anchor="start" x="323" y="-1136.3" font-family="Helvetica,sans-Serif" font-size="11.00" fill="#000000">accompanied_by_id</text>
<polygon fill="none" stroke="#000000" points="303,-1107.2 303,-1129.2 516,-1129.2 516,-1107.2 303,-1107.2"/>
<text text-anchor="start" x="323" y="-1114.3" font-family="Helvetica,sans-Serif" font-size="11.00" fill="#000000">transport_id</text>
<polygon fill="none" stroke="#000000" points="303,-1085.2 303,-1107.2 516,-1107.2 516,-1085.2 303,-1085.2"/>
<text text-anchor="start" x="323" y="-1092.3" font-family="Helvetica,sans-Serif" font-size="11.00" fill="#000000">start</text>
<polygon fill="none" stroke="#000000" points="303,-1063.2 303,-1085.2 516,-1085.2 516,-1063.2 303,-1063.2"/>
<text text-anchor="start" x="323" y="-1070.3" font-family="Helvetica,sans-Serif" font-size="11.00" fill="#000000">end</text>
<polygon fill="none" stroke="#000000" points="303,-1041.2 303,-1063.2 516,-1063.2 516,-1041.2 303,-1041.2"/>
<text text-anchor="start" x="323" y="-1048.3" font-family="Helvetica,sans-Serif" font-size="11.00" fill="#000000">repeat</text>
<polygon fill="none" stroke="#000000" points="303,-1019.2 303,-1041.2 516,-1041.2 516,-1019.2 303,-1019.2"/>
<text text-anchor="start" x="323" y="-1026.3" font-family="Helvetica,sans-Serif" font-size="11.00" fill="#000000">comments</text>
<polygon fill="none" stroke="#000000" points="303,-997.2 303,-1019.2 516,-1019.2 516,-997.2 303,-997.2"/>
<text text-anchor="start" x="323" y="-1004.3" font-family="Helvetica,sans-Serif" font-size="11.00" fill="#000000">reason_path</text>
<polygon fill="none" stroke="#000000" points="303,-975.2 303,-997.2 516,-997.2 516,-975.2 303,-975.2"/>
<text text-anchor="start" x="323" y="-982.3" font-family="Helvetica,sans-Serif" font-size="11.00" fill="#000000">schedule</text>
<polygon fill="none" stroke="#000000" points="303,-953.2 303,-975.2 516,-975.2 516,-953.2 303,-953.2"/>
<text text-anchor="start" x="323" y="-960.3" font-family="Helvetica,sans-Serif" font-size="11.00" fill="#000000">legacy_id</text>
<polygon fill="#ffffff" stroke="transparent" points="303,-934.2 303,-953.2 395,-953.2 395,-934.2 303,-934.2"/>
<polygon fill="none" stroke="#000000" points="303,-934.2 303,-953.2 395,-953.2 395,-934.2 303,-934.2"/>
<text text-anchor="start" x="306" y="-940.3" font-family="Helvetica,sans-Serif" font-size="11.00" fill="#000000">&lt; 1</text>
<polygon fill="#ffffff" stroke="transparent" points="395,-934.2 395,-953.2 468,-953.2 468,-934.2 395,-934.2"/>
<polygon fill="none" stroke="#000000" points="395,-934.2 395,-953.2 468,-953.2 468,-934.2 395,-934.2"/>
<text text-anchor="start" x="432.6105" y="-940.3" font-family="Helvetica,sans-Serif" font-size="11.00" fill="#000000">0 rows</text>
<polygon fill="#ffffff" stroke="transparent" points="468,-934.2 468,-953.2 516,-953.2 516,-934.2 468,-934.2"/>
<polygon fill="none" stroke="#000000" points="468,-934.2 468,-953.2 516,-953.2 516,-934.2 468,-934.2"/>
<text text-anchor="start" x="506.8862" y="-940.3" font-family="Helvetica,sans-Serif" font-size="11.00" fill="#000000"> &#160;</text>
</a>
</g>
</g>
<!-- tap.authorisation_audit&#45;&gt;audit_revision -->
<g id="edge3" class="edge">
<title>tap.authorisation_audit:w&#45;&gt;audit_revision:e</title>
<path fill="none" stroke="#000000" d="M288.3994,-1380.9042C186.7879,-1361.4803 293.7328,-1130.2 173,-1130.2"/>
<polygon fill="#000000" stroke="#000000" points="295.0313,-1381.4927 302.6817,-1385.7859 299.0157,-1381.8464 303,-1382.2 303,-1382.2 303,-1382.2 299.0157,-1381.8464 303.3183,-1378.6141 295.0313,-1381.4927 295.0313,-1381.4927"/>
<ellipse fill="none" stroke="#000000" cx="291.8438" cy="-1381.2098" rx="3.2" ry="3.2"/>
</g>
<!-- tap.movement_audit -->
<g id="node5" class="node">
<title>tap.movement_audit</title>
<g id="a_node5"><a xlink:title="tap.movement_audit">
<polygon fill="#ffffff" stroke="transparent" points="305,-541.2 305,-913.2 513,-913.2 513,-541.2 305,-541.2"/>
<polygon fill="#f5f5f5" stroke="transparent" points="305,-890.2 305,-913.2 513,-913.2 513,-890.2 305,-890.2"/>
<polygon fill="none" stroke="#000000" points="305,-890.2 305,-913.2 513,-913.2 513,-890.2 305,-890.2"/>
<text text-anchor="start" x="310" y="-898.8" font-family="Helvetica,sans-Serif" font-weight="bold" font-size="11.00" fill="#000000">tap.movement_audit</text>
<text text-anchor="start" x="478.0437" y="-898.3" font-family="Helvetica,sans-Serif" font-size="11.00" fill="#000000">[table]</text>
<polygon fill="none" stroke="#000000" points="305,-868.2 305,-890.2 513,-890.2 513,-868.2 305,-868.2"/>
<image xlink:href="../../images/foreignKeys.png" width="11px" height="12px" preserveAspectRatio="xMinYMin meet" x="310" y="-885.2"/>
<text text-anchor="start" x="325" y="-875.3" font-family="Helvetica,sans-Serif" font-size="11.00" fill="#000000">rev_id</text>
<polygon fill="none" stroke="#000000" points="305,-846.2 305,-868.2 513,-868.2 513,-846.2 305,-846.2"/>
<text text-anchor="start" x="325" y="-853.3" font-family="Helvetica,sans-Serif" font-size="11.00" fill="#000000">rev_type</text>
<polygon fill="none" stroke="#000000" points="305,-824.2 305,-846.2 513,-846.2 513,-824.2 305,-824.2"/>
<text text-anchor="start" x="325" y="-831.3" font-family="Helvetica,sans-Serif" font-size="11.00" fill="#000000">id</text>
<polygon fill="none" stroke="#000000" points="305,-802.2 305,-824.2 513,-824.2 513,-802.2 305,-802.2"/>
<text text-anchor="start" x="325" y="-809.3" font-family="Helvetica,sans-Serif" font-size="11.00" fill="#000000">version</text>
<polygon fill="none" stroke="#000000" points="305,-780.2 305,-802.2 513,-802.2 513,-780.2 305,-780.2"/>
<text text-anchor="start" x="325" y="-787.3" font-family="Helvetica,sans-Serif" font-size="11.00" fill="#000000">person_identifier</text>
<polygon fill="none" stroke="#000000" points="305,-758.2 305,-780.2 513,-780.2 513,-758.2 305,-758.2"/>
<text text-anchor="start" x="325" y="-765.3" font-family="Helvetica,sans-Serif" font-size="11.00" fill="#000000">occurrence_id</text>
<polygon fill="none" stroke="#000000" points="305,-736.2 305,-758.2 513,-758.2 513,-736.2 305,-736.2"/>
<text text-anchor="start" x="325" y="-743.3" font-family="Helvetica,sans-Serif" font-size="11.00" fill="#000000">occurred_at</text>
<polygon fill="none" stroke="#000000" points="305,-714.2 305,-736.2 513,-736.2 513,-714.2 305,-714.2"/>
<text text-anchor="start" x="325" y="-721.3" font-family="Helvetica,sans-Serif" font-size="11.00" fill="#000000">direction</text>
<polygon fill="none" stroke="#000000" points="305,-692.2 305,-714.2 513,-714.2 513,-692.2 305,-692.2"/>
<text text-anchor="start" x="325" y="-699.3" font-family="Helvetica,sans-Serif" font-size="11.00" fill="#000000">absence_reason_id</text>
<polygon fill="none" stroke="#000000" points="305,-670.2 305,-692.2 513,-692.2 513,-670.2 305,-670.2"/>
<text text-anchor="start" x="325" y="-677.3" font-family="Helvetica,sans-Serif" font-size="11.00" fill="#000000">accompanied_by_id</text>
<polygon fill="none" stroke="#000000" points="305,-648.2 305,-670.2 513,-670.2 513,-648.2 305,-648.2"/>
<text text-anchor="start" x="325" y="-655.3" font-family="Helvetica,sans-Serif" font-size="11.00" fill="#000000">accompanied_by_comments</text>
<polygon fill="none" stroke="#000000" points="305,-626.2 305,-648.2 513,-648.2 513,-626.2 305,-626.2"/>
<text text-anchor="start" x="325" y="-633.3" font-family="Helvetica,sans-Serif" font-size="11.00" fill="#000000">location</text>
<polygon fill="none" stroke="#000000" points="305,-604.2 305,-626.2 513,-626.2 513,-604.2 305,-604.2"/>
<text text-anchor="start" x="325" y="-611.3" font-family="Helvetica,sans-Serif" font-size="11.00" fill="#000000">comments</text>
<polygon fill="none" stroke="#000000" points="305,-582.2 305,-604.2 513,-604.2 513,-582.2 305,-582.2"/>
<text text-anchor="start" x="325" y="-589.3" font-family="Helvetica,sans-Serif" font-size="11.00" fill="#000000">recorded_by_prison_code</text>
<polygon fill="none" stroke="#000000" points="305,-560.2 305,-582.2 513,-582.2 513,-560.2 305,-560.2"/>
<text text-anchor="start" x="325" y="-567.3" font-family="Helvetica,sans-Serif" font-size="11.00" fill="#000000">legacy_id</text>
<polygon fill="#ffffff" stroke="transparent" points="305,-541.2 305,-560.2 394,-560.2 394,-541.2 305,-541.2"/>
<polygon fill="none" stroke="#000000" points="305,-541.2 305,-560.2 394,-560.2 394,-541.2 305,-541.2"/>
<text text-anchor="start" x="308" y="-547.3" font-family="Helvetica,sans-Serif" font-size="11.00" fill="#000000">&lt; 1</text>
<polygon fill="#ffffff" stroke="transparent" points="394,-541.2 394,-560.2 466,-560.2 466,-541.2 394,-541.2"/>
<polygon fill="none" stroke="#000000" points="394,-541.2 394,-560.2 466,-560.2 466,-541.2 394,-541.2"/>
<text text-anchor="start" x="430.6105" y="-547.3" font-family="Helvetica,sans-Serif" font-size="11.00" fill="#000000">0 rows</text>
<polygon fill="#ffffff" stroke="transparent" points="466,-541.2 466,-560.2 513,-560.2 513,-541.2 466,-541.2"/>
<polygon fill="none" stroke="#000000" points="466,-541.2 466,-560.2 513,-560.2 513,-541.2 466,-541.2"/>
<text text-anchor="start" x="503.8862" y="-547.3" font-family="Helvetica,sans-Serif" font-size="11.00" fill="#000000"> &#160;</text>
</a>
</g>
</g>
<!-- tap.movement_audit&#45;&gt;audit_revision -->
<g id="edge4" class="edge">
<title>tap.movement_audit:w&#45;&gt;audit_revision:e</title>
<path fill="none" stroke="#000000" d="M290.638,-880.5692C269.21,-885.1583 261.4283,-900.968 245,-923.2 187.1116,-1001.5386 270.4064,-1130.2 173,-1130.2"/>
<polygon fill="#000000" stroke="#000000" points="297.0361,-879.9593 305.3417,-882.7838 301.0181,-879.5796 305,-879.2 305,-879.2 305,-879.2 301.0181,-879.5796 304.6583,-875.6162 297.0361,-879.9593 297.0361,-879.9593"/>
<ellipse fill="none" stroke="#000000" cx="293.8505" cy="-880.263" rx="3.2" ry="3.2"/>
</g>
<!-- tap.occurrence_audit -->
<g id="node6" class="node">
<title>tap.occurrence_audit</title>
<g id="a_node6"><a xlink:title="tap.occurrence_audit">
<polygon fill="#ffffff" stroke="transparent" points="302.5,-38.2 302.5,-520.2 515.5,-520.2 515.5,-38.2 302.5,-38.2"/>
<polygon fill="#f5f5f5" stroke="transparent" points="303,-497.2 303,-520.2 516,-520.2 516,-497.2 303,-497.2"/>
<polygon fill="none" stroke="#000000" points="303,-497.2 303,-520.2 516,-520.2 516,-497.2 303,-497.2"/>
<text text-anchor="start" x="308" y="-505.8" font-family="Helvetica,sans-Serif" font-weight="bold" font-size="11.00" fill="#000000">tap.occurrence_audit</text>
<text text-anchor="start" x="481.0437" y="-505.3" font-family="Helvetica,sans-Serif" font-size="11.00" fill="#000000">[table]</text>
<polygon fill="none" stroke="#000000" points="303,-475.2 303,-497.2 516,-497.2 516,-475.2 303,-475.2"/>
<image xlink:href="../../images/foreignKeys.png" width="11px" height="12px" preserveAspectRatio="xMinYMin meet" x="308" y="-492.2"/>
<text text-anchor="start" x="323" y="-482.3" font-family="Helvetica,sans-Serif" font-size="11.00" fill="#000000">rev_id</text>
<polygon fill="none" stroke="#000000" points="303,-453.2 303,-475.2 516,-475.2 516,-453.2 303,-453.2"/>
<text text-anchor="start" x="323" y="-460.3" font-family="Helvetica,sans-Serif" font-size="11.00" fill="#000000">rev_type</text>
<polygon fill="none" stroke="#000000" points="303,-431.2 303,-453.2 516,-453.2 516,-431.2 303,-431.2"/>
<text text-anchor="start" x="323" y="-438.3" font-family="Helvetica,sans-Serif" font-size="11.00" fill="#000000">id</text>
<polygon fill="none" stroke="#000000" points="303,-409.2 303,-431.2 516,-431.2 516,-409.2 303,-409.2"/>
<text text-anchor="start" x="323" y="-416.3" font-family="Helvetica,sans-Serif" font-size="11.00" fill="#000000">version</text>
<polygon fill="none" stroke="#000000" points="303,-387.2 303,-409.2 516,-409.2 516,-387.2 303,-387.2"/>
<text text-anchor="start" x="323" y="-394.3" font-family="Helvetica,sans-Serif" font-size="11.00" fill="#000000">authorisation_id</text>
<polygon fill="none" stroke="#000000" points="303,-365.2 303,-387.2 516,-387.2 516,-365.2 303,-365.2"/>
<text text-anchor="start" x="323" y="-372.3" font-family="Helvetica,sans-Serif" font-size="11.00" fill="#000000">status_id</text>
<polygon fill="none" stroke="#000000" points="303,-343.2 303,-365.2 516,-365.2 516,-343.2 303,-343.2"/>
<text text-anchor="start" x="323" y="-350.3" font-family="Helvetica,sans-Serif" font-size="11.00" fill="#000000">absence_type_id</text>
<polygon fill="none" stroke="#000000" points="303,-321.2 303,-343.2 516,-343.2 516,-321.2 303,-321.2"/>
<text text-anchor="start" x="323" y="-328.3" font-family="Helvetica,sans-Serif" font-size="11.00" fill="#000000">absence_sub_type_id</text>
<polygon fill="none" stroke="#000000" points="303,-299.2 303,-321.2 516,-321.2 516,-299.2 303,-299.2"/>
<text text-anchor="start" x="323" y="-306.3" font-family="Helvetica,sans-Serif" font-size="11.00" fill="#000000">absence_reason_category_id</text>
<polygon fill="none" stroke="#000000" points="303,-277.2 303,-299.2 516,-299.2 516,-277.2 303,-277.2"/>
<text text-anchor="start" x="323" y="-284.3" font-family="Helvetica,sans-Serif" font-size="11.00" fill="#000000">absence_reason_id</text>
<polygon fill="none" stroke="#000000" points="303,-255.2 303,-277.2 516,-277.2 516,-255.2 303,-255.2"/>
<text text-anchor="start" x="323" y="-262.3" font-family="Helvetica,sans-Serif" font-size="11.00" fill="#000000">accompanied_by_id</text>
<polygon fill="none" stroke="#000000" points="303,-233.2 303,-255.2 516,-255.2 516,-233.2 303,-233.2"/>
<text text-anchor="start" x="323" y="-240.3" font-family="Helvetica,sans-Serif" font-size="11.00" fill="#000000">transport_id</text>
<polygon fill="none" stroke="#000000" points="303,-211.2 303,-233.2 516,-233.2 516,-211.2 303,-211.2"/>
<text text-anchor="start" x="323" y="-218.3" font-family="Helvetica,sans-Serif" font-size="11.00" fill="#000000">start</text>
<polygon fill="none" stroke="#000000" points="303,-189.2 303,-211.2 516,-211.2 516,-189.2 303,-189.2"/>
<text text-anchor="start" x="323" y="-196.3" font-family="Helvetica,sans-Serif" font-size="11.00" fill="#000000">end</text>
<polygon fill="none" stroke="#000000" points="303,-167.2 303,-189.2 516,-189.2 516,-167.2 303,-167.2"/>
<text text-anchor="start" x="323" y="-174.3" font-family="Helvetica,sans-Serif" font-size="11.00" fill="#000000">location</text>
<polygon fill="none" stroke="#000000" points="303,-145.2 303,-167.2 516,-167.2 516,-145.2 303,-145.2"/>
<text text-anchor="start" x="323" y="-152.3" font-family="Helvetica,sans-Serif" font-size="11.00" fill="#000000">contact_information</text>
<polygon fill="none" stroke="#000000" points="303,-123.2 303,-145.2 516,-145.2 516,-123.2 303,-123.2"/>
<text text-anchor="start" x="323" y="-130.3" font-family="Helvetica,sans-Serif" font-size="11.00" fill="#000000">comments</text>
<polygon fill="none" stroke="#000000" points="303,-101.2 303,-123.2 516,-123.2 516,-101.2 303,-101.2"/>
<text text-anchor="start" x="323" y="-108.3" font-family="Helvetica,sans-Serif" font-size="11.00" fill="#000000">reason_path</text>
<polygon fill="none" stroke="#000000" points="303,-79.2 303,-101.2 516,-101.2 516,-79.2 303,-79.2"/>
<text text-anchor="start" x="323" y="-86.3" font-family="Helvetica,sans-Serif" font-size="11.00" fill="#000000">schedule_reference</text>
<polygon fill="none" stroke="#000000" points="303,-57.2 303,-79.2 516,-79.2 516,-57.2 303,-57.2"/>
<text text-anchor="start" x="323" y="-64.3" font-family="Helvetica,sans-Serif" font-size="11.00" fill="#000000">legacy_id</text>
<polygon fill="#ffffff" stroke="transparent" points="303,-38.2 303,-57.2 395,-57.2 395,-38.2 303,-38.2"/>
<polygon fill="none" stroke="#000000" points="303,-38.2 303,-57.2 395,-57.2 395,-38.2 303,-38.2"/>
<text text-anchor="start" x="306" y="-44.3" font-family="Helvetica,sans-Serif" font-size="11.00" fill="#000000">&lt; 1</text>
<polygon fill="#ffffff" stroke="transparent" points="395,-38.2 395,-57.2 468,-57.2 468,-38.2 395,-38.2"/>
<polygon fill="none" stroke="#000000" points="395,-38.2 395,-57.2 468,-57.2 468,-38.2 395,-38.2"/>
<text text-anchor="start" x="432.6105" y="-44.3" font-family="Helvetica,sans-Serif" font-size="11.00" fill="#000000">0 rows</text>
<polygon fill="#ffffff" stroke="transparent" points="468,-38.2 468,-57.2 516,-57.2 516,-38.2 468,-38.2"/>
<polygon fill="none" stroke="#000000" points="468,-38.2 468,-57.2 516,-57.2 516,-38.2 468,-38.2"/>
<text text-anchor="start" x="506.8862" y="-44.3" font-family="Helvetica,sans-Serif" font-size="11.00" fill="#000000"> &#160;</text>
</a>
</g>
</g>
<!-- tap.occurrence_audit&#45;&gt;audit_revision -->
<g id="edge5" class="edge">
<title>tap.occurrence_audit:w&#45;&gt;audit_revision:e</title>
<path fill="none" stroke="#000000" d="M288.4868,-487.5304C267.2512,-491.8942 258.391,-506.8455 245,-530.2 178.2024,-646.6983 307.2899,-1130.2 173,-1130.2"/>
<polygon fill="#000000" stroke="#000000" points="295.0334,-486.9303 303.3287,-489.785 299.0167,-486.5652 303,-486.2 303,-486.2 303,-486.2 299.0167,-486.5652 302.6713,-482.615 295.0334,-486.9303 295.0334,-486.9303"/>
<ellipse fill="none" stroke="#000000" cx="291.8468" cy="-487.2225" rx="3.2" ry="3.2"/>
</g>
<!-- tap.absence_categorisation_domain_link -->
<g id="node7" class="node">
<title>tap.absence_categorisation_domain_link</title>
<g id="a_node7"><a xlink:title="tap.absence_categorisation_domain_link">
<polygon fill="#ffffff" stroke="transparent" points="253,-1676.2 253,-1762.2 565,-1762.2 565,-1676.2 253,-1676.2"/>
<polygon fill="#f5f5f5" stroke="transparent" points="253,-1739.2 253,-1762.2 565,-1762.2 565,-1739.2 253,-1739.2"/>
<polygon fill="none" stroke="#000000" points="253,-1739.2 253,-1762.2 565,-1762.2 565,-1739.2 253,-1739.2"/>
<text text-anchor="start" x="258" y="-1747.8" font-family="Helvetica,sans-Serif" font-weight="bold" font-size="11.00" fill="#000000">tap.absence_categorisation_domain_link</text>
<text text-anchor="start" x="530.5219" y="-1747.3" font-family="Helvetica,sans-Serif" font-size="11.00" fill="#000000">[table]</text>
<polygon fill="none" stroke="#000000" points="253,-1717.2 253,-1739.2 565,-1739.2 565,-1717.2 253,-1717.2"/>
<text text-anchor="start" x="296" y="-1724.3" font-family="Helvetica,sans-Serif" font-size="11.00" fill="#000000">id</text>
<polygon fill="none" stroke="#000000" points="253,-1695.2 253,-1717.2 565,-1717.2 565,-1695.2 253,-1695.2"/>
<image xlink:href="../../images/foreignKeys.png" width="11px" height="12px" preserveAspectRatio="xMinYMin meet" x="258" y="-1712.2"/>
<text text-anchor="start" x="296" y="-1702.3" font-family="Helvetica,sans-Serif" font-size="11.00" fill="#000000">domain</text>
<polygon fill="#ffffff" stroke="transparent" points="253,-1676.2 253,-1695.2 394,-1695.2 394,-1676.2 253,-1676.2"/>
<polygon fill="none" stroke="#000000" points="253,-1676.2 253,-1695.2 394,-1695.2 394,-1676.2 253,-1676.2"/>
<text text-anchor="start" x="256" y="-1682.3" font-family="Helvetica,sans-Serif" font-size="11.00" fill="#000000">&lt; 1</text>
<polygon fill="#ffffff" stroke="transparent" points="394,-1676.2 394,-1695.2 492,-1695.2 492,-1676.2 394,-1676.2"/>
<polygon fill="none" stroke="#000000" points="394,-1676.2 394,-1695.2 492,-1695.2 492,-1676.2 394,-1676.2"/>
<text text-anchor="start" x="456.6105" y="-1682.3" font-family="Helvetica,sans-Serif" font-size="11.00" fill="#000000">0 rows</text>
<polygon fill="#ffffff" stroke="transparent" points="492,-1676.2 492,-1695.2 565,-1695.2 565,-1676.2 492,-1676.2"/>
<polygon fill="none" stroke="#000000" points="492,-1676.2 492,-1695.2 565,-1695.2 565,-1676.2 492,-1676.2"/>
<text text-anchor="start" x="555.8862" y="-1682.3" font-family="Helvetica,sans-Serif" font-size="11.00" fill="#000000"> &#160;</text>
</a>
</g>
</g>
<!-- tap.absence_categorisation_domain_link&#45;&gt;reference_data_domain -->
<g id="edge2" class="edge">
<title>tap.absence_categorisation_domain_link:w&#45;&gt;reference_data_domain:e</title>
<path fill="none" stroke="#000000" d="M238.4909,-1706.2C227.1774,-1706.2 219.9931,-1706.2 204,-1706.2"/>
<polygon fill="#000000" stroke="#000000" points="245,-1706.2001 253,-1709.8 249,-1706.2 253,-1706.2 253,-1706.2 253,-1706.2 249,-1706.2 253,-1702.6 245,-1706.2001 245,-1706.2001"/>
<ellipse fill="none" stroke="#000000" cx="241.8" cy="-1706.2001" rx="3.2" ry="3.2"/>
</g>
</g>
</svg>
