<?xml version="1.0" encoding="UTF-8" standalone="no"?>
<!DOCTYPE svg PUBLIC "-//W3C//DTD SVG 1.1//EN"
 "http://www.w3.org/Graphics/SVG/1.1/DTD/svg11.dtd">
<!-- Generated by graphviz version 2.40.1 (20161225.0304)
 -->
<!-- Title: compactRelationshipsDiagram Pages: 1 -->
<svg width="581pt" height="571pt"
 viewBox="0.00 0.00 581.00 571.20" xmlns="http://www.w3.org/2000/svg" xmlns:xlink="http://www.w3.org/1999/xlink">
<g id="graph0" class="graph" transform="scale(1 1) rotate(0) translate(4 567.2)">
<title>compactRelationshipsDiagram</title>
<polygon fill="#ffffff" stroke="transparent" points="-4,4 -4,-567.2 577,-567.2 577,4 -4,4"/>
<text text-anchor="middle" x="72.4936" y="-7.3" font-family="Helvetica,sans-Serif" font-size="11.00" fill="#000000">Generated by SchemaSpy</text>
<!-- hmpps_domain_event_audit -->
<g id="node1" class="node">
<title>hmpps_domain_event_audit</title>
<g id="a_node1"><a xlink:href="../../tables/hmpps_domain_event_audit.html" xlink:title="hmpps_domain_event_audit" target="_top">
<polygon fill="#ffffff" stroke="transparent" points="296.5,-350.2 296.5,-455.2 521.5,-455.2 521.5,-350.2 296.5,-350.2"/>
<polygon fill="#f5f5f5" stroke="transparent" points="297,-431.7 297,-454.7 522,-454.7 522,-431.7 297,-431.7"/>
<polygon fill="none" stroke="#000000" points="297,-431.7 297,-454.7 522,-454.7 522,-431.7 297,-431.7"/>
<text text-anchor="start" x="302" y="-440.3" font-family="Helvetica,sans-Serif" font-weight="bold" font-size="11.00" fill="#000000">hmpps_domain_event_audit</text>
<text text-anchor="start" x="487.5219" y="-439.8" font-family="Helvetica,sans-Serif" font-size="11.00" fill="#000000">[table]</text>
<polygon fill="none" stroke="#000000" points="297,-409.7 297,-431.7 522,-431.7 522,-409.7 297,-409.7"/>
<image xlink:href="../../images/primaryKeys.png" width="11px" height="12px" preserveAspectRatio="xMinYMin meet" x="302" y="-426.7"/>
<text text-anchor="start" x="326" y="-416.8" font-family="Helvetica,sans-Serif" font-size="11.00" fill="#000000">rev_id</text>
<polygon fill="none" stroke="#000000" points="297,-387.7 297,-409.7 522,-409.7 522,-387.7 297,-387.7"/>
<image xlink:href="../../images/primaryKeys.png" width="11px" height="12px" preserveAspectRatio="xMinYMin meet" x="302" y="-404.7"/>
<text text-anchor="start" x="326" y="-394.8" font-family="Helvetica,sans-Serif" font-size="11.00" fill="#000000">id</text>
<polygon fill="none" stroke="#000000" points="297,-368.7 297,-387.7 522,-387.7 522,-368.7 297,-368.7"/>
<text text-anchor="start" x="300" y="-374.8" font-family="Helvetica,sans-Serif" font-size="11.00" fill="#000000">...</text>
<polygon fill="#ffffff" stroke="transparent" points="297,-349.7 297,-368.7 408,-368.7 408,-349.7 297,-349.7"/>
<polygon fill="none" stroke="#000000" points="297,-349.7 297,-368.7 408,-368.7 408,-349.7 297,-349.7"/>
<text text-anchor="start" x="300" y="-355.8" font-family="Helvetica,sans-Serif" font-size="11.00" fill="#000000">&lt; 1</text>
<polygon fill="#ffffff" stroke="transparent" points="408,-349.7 408,-368.7 465,-368.7 465,-349.7 408,-349.7"/>
<polygon fill="none" stroke="#000000" points="408,-349.7 408,-368.7 465,-368.7 465,-349.7 408,-349.7"/>
<text text-anchor="start" x="455.8862" y="-355.8" font-family="Helvetica,sans-Serif" font-size="11.00" fill="#000000"> &#160;</text>
<polygon fill="#ffffff" stroke="transparent" points="465,-349.7 465,-368.7 522,-368.7 522,-349.7 465,-349.7"/>
<polygon fill="none" stroke="#000000" points="465,-349.7 465,-368.7 522,-368.7 522,-349.7 465,-349.7"/>
<text text-anchor="start" x="512.8862" y="-355.8" font-family="Helvetica,sans-Serif" font-size="11.00" fill="#000000"> &#160;</text>
</a>
</g>
</g>
<!-- audit_revision -->
<g id="node3" class="node">
<title>audit_revision</title>
<g id="a_node3"><a xlink:href="../../tables/audit_revision.html" xlink:title="audit_revision" target="_top">
<polygon fill="#ffffff" stroke="transparent" points="39,-194.2 39,-277.2 173,-277.2 173,-194.2 39,-194.2"/>
<polygon fill="#f5f5f5" stroke="transparent" points="39,-253.7 39,-276.7 173,-276.7 173,-253.7 39,-253.7"/>
<polygon fill="none" stroke="#000000" points="39,-253.7 39,-276.7 173,-276.7 173,-253.7 39,-253.7"/>
<text text-anchor="start" x="44" y="-262.3" font-family="Helvetica,sans-Serif" font-weight="bold" font-size="11.00" fill="#000000">audit_revision</text>
<text text-anchor="start" x="138.5219" y="-261.8" font-family="Helvetica,sans-Serif" font-size="11.00" fill="#000000">[table]</text>
<polygon fill="none" stroke="#000000" points="39,-231.7 39,-253.7 173,-253.7 173,-231.7 39,-231.7"/>
<image xlink:href="../../images/primaryKeys.png" width="11px" height="12px" preserveAspectRatio="xMinYMin meet" x="44" y="-248.7"/>
<text text-anchor="start" x="59" y="-238.8" font-family="Helvetica,sans-Serif" font-size="11.00" fill="#000000">id</text>
<polygon fill="none" stroke="#000000" points="39,-212.7 39,-231.7 173,-231.7 173,-212.7 39,-212.7"/>
<text text-anchor="start" x="42" y="-218.8" font-family="Helvetica,sans-Serif" font-size="11.00" fill="#000000">...</text>
<polygon fill="#ffffff" stroke="transparent" points="39,-193.7 39,-212.7 95,-212.7 95,-193.7 39,-193.7"/>
<polygon fill="none" stroke="#000000" points="39,-193.7 39,-212.7 95,-212.7 95,-193.7 39,-193.7"/>
<text text-anchor="start" x="42" y="-199.8" font-family="Helvetica,sans-Serif" font-size="11.00" fill="#000000"> &#160;</text>
<polygon fill="#ffffff" stroke="transparent" points="95,-193.7 95,-212.7 129,-212.7 129,-193.7 95,-193.7"/>
<polygon fill="none" stroke="#000000" points="95,-193.7 95,-212.7 129,-212.7 129,-193.7 95,-193.7"/>
<text text-anchor="start" x="119.8862" y="-199.8" font-family="Helvetica,sans-Serif" font-size="11.00" fill="#000000"> &#160;</text>
<polygon fill="#ffffff" stroke="transparent" points="129,-193.7 129,-212.7 173,-212.7 173,-193.7 129,-193.7"/>
<polygon fill="none" stroke="#000000" points="129,-193.7 129,-212.7 173,-212.7 173,-193.7 129,-193.7"/>
<text text-anchor="start" x="154.4053" y="-199.8" font-family="Helvetica,sans-Serif" font-size="11.00" fill="#000000">4 &gt;</text>
</a>
</g>
</g>
<!-- hmpps_domain_event_audit&#45;&gt;audit_revision -->
<g id="edge1" class="edge">
<title>hmpps_domain_event_audit:w&#45;&gt;audit_revision:e</title>
<path fill="none" stroke="#000000" d="M282.6105,-419.1612C207.6193,-401.7636 264.1421,-242.7 173,-242.7"/>
<polygon fill="#000000" stroke="#000000" points="289.0454,-419.8493 296.6172,-424.2796 293.0227,-420.2746 297,-420.7 297,-420.7 297,-420.7 293.0227,-420.2746 297.3828,-417.1204 289.0454,-419.8493 289.0454,-419.8493"/>
<ellipse fill="none" stroke="#000000" cx="285.8635" cy="-419.509" rx="3.2" ry="3.2"/>
</g>
<!-- reference_data_domain -->
<g id="node2" class="node">
<title>reference_data_domain</title>
<g id="a_node2"><a xlink:href="../../tables/reference_data_domain.html" xlink:title="reference_data_domain" target="_top">
<polygon fill="#ffffff" stroke="transparent" points="8,-476.2 8,-559.2 204,-559.2 204,-476.2 8,-476.2"/>
<polygon fill="#f5f5f5" stroke="transparent" points="8,-535.7 8,-558.7 204,-558.7 204,-535.7 8,-535.7"/>
<polygon fill="none" stroke="#000000" points="8,-535.7 8,-558.7 204,-558.7 204,-535.7 8,-535.7"/>
<text text-anchor="start" x="13" y="-544.3" font-family="Helvetica,sans-Serif" font-weight="bold" font-size="11.00" fill="#000000">reference_data_domain</text>
<text text-anchor="start" x="169.5219" y="-543.8" font-family="Helvetica,sans-Serif" font-size="11.00" fill="#000000">[table]</text>
<polygon fill="none" stroke="#000000" points="8,-513.7 8,-535.7 204,-535.7 204,-513.7 8,-513.7"/>
<image xlink:href="../../images/primaryKeys.png" width="11px" height="12px" preserveAspectRatio="xMinYMin meet" x="13" y="-530.7"/>
<text text-anchor="start" x="37" y="-520.8" font-family="Helvetica,sans-Serif" font-size="11.00" fill="#000000">code</text>
<polygon fill="none" stroke="#000000" points="8,-494.7 8,-513.7 204,-513.7 204,-494.7 8,-494.7"/>
<text text-anchor="start" x="11" y="-500.8" font-family="Helvetica,sans-Serif" font-size="11.00" fill="#000000">...</text>
<polygon fill="#ffffff" stroke="transparent" points="8,-475.7 8,-494.7 95,-494.7 95,-475.7 8,-475.7"/>
<polygon fill="none" stroke="#000000" points="8,-475.7 8,-494.7 95,-494.7 95,-475.7 8,-475.7"/>
<text text-anchor="start" x="11" y="-481.8" font-family="Helvetica,sans-Serif" font-size="11.00" fill="#000000"> &#160;</text>
<polygon fill="#ffffff" stroke="transparent" points="95,-475.7 95,-494.7 145,-494.7 145,-475.7 95,-475.7"/>
<polygon fill="none" stroke="#000000" points="95,-475.7 95,-494.7 145,-494.7 145,-475.7 95,-475.7"/>
<text text-anchor="start" x="135.8862" y="-481.8" font-family="Helvetica,sans-Serif" font-size="11.00" fill="#000000"> &#160;</text>
<polygon fill="#ffffff" stroke="transparent" points="145,-475.7 145,-494.7 204,-494.7 204,-475.7 145,-475.7"/>
<polygon fill="none" stroke="#000000" points="145,-475.7 145,-494.7 204,-494.7 204,-475.7 145,-475.7"/>
<text text-anchor="start" x="185.4053" y="-481.8" font-family="Helvetica,sans-Serif" font-size="11.00" fill="#000000">1 &gt;</text>
</a>
</g>
</g>
<!-- tap.authorisation_audit -->
<g id="node4" class="node">
<title>tap.authorisation_audit</title>
<g id="a_node4"><a xlink:title="tap.authorisation_audit">
<polygon fill="#ffffff" stroke="transparent" points="302.5,-246.2 302.5,-329.2 515.5,-329.2 515.5,-246.2 302.5,-246.2"/>
<polygon fill="#f5f5f5" stroke="transparent" points="303,-305.7 303,-328.7 516,-328.7 516,-305.7 303,-305.7"/>
<polygon fill="none" stroke="#000000" points="303,-305.7 303,-328.7 516,-328.7 516,-305.7 303,-305.7"/>
<text text-anchor="start" x="308" y="-314.3" font-family="Helvetica,sans-Serif" font-weight="bold" font-size="11.00" fill="#000000">tap.authorisation_audit</text>
<text text-anchor="start" x="481.0437" y="-313.8" font-family="Helvetica,sans-Serif" font-size="11.00" fill="#000000">[table]</text>
<polygon fill="none" stroke="#000000" points="303,-283.7 303,-305.7 516,-305.7 516,-283.7 303,-283.7"/>
<image xlink:href="../../images/foreignKeys.png" width="11px" height="12px" preserveAspectRatio="xMinYMin meet" x="308" y="-300.7"/>
<text text-anchor="start" x="323" y="-290.8" font-family="Helvetica,sans-Serif" font-size="11.00" fill="#000000">rev_id</text>
<polygon fill="none" stroke="#000000" points="303,-264.7 303,-283.7 516,-283.7 516,-264.7 303,-264.7"/>
<text text-anchor="start" x="306" y="-270.8" font-family="Helvetica,sans-Serif" font-size="11.00" fill="#000000">...</text>
<polygon fill="#ffffff" stroke="transparent" points="303,-245.7 303,-264.7 395,-264.7 395,-245.7 303,-245.7"/>
<polygon fill="none" stroke="#000000" points="303,-245.7 303,-264.7 395,-264.7 395,-245.7 303,-245.7"/>
<text text-anchor="start" x="306" y="-251.8" font-family="Helvetica,sans-Serif" font-size="11.00" fill="#000000">&lt; 1</text>
<polygon fill="#ffffff" stroke="transparent" points="395,-245.7 395,-264.7 468,-264.7 468,-245.7 395,-245.7"/>
<polygon fill="none" stroke="#000000" points="395,-245.7 395,-264.7 468,-264.7 468,-245.7 395,-245.7"/>
<text text-anchor="start" x="432.6105" y="-251.8" font-family="Helvetica,sans-Serif" font-size="11.00" fill="#000000">0 rows</text>
<polygon fill="#ffffff" stroke="transparent" points="468,-245.7 468,-264.7 516,-264.7 516,-245.7 468,-245.7"/>
<polygon fill="none" stroke="#000000" points="468,-245.7 468,-264.7 516,-264.7 516,-245.7 468,-245.7"/>
<text text-anchor="start" x="506.8862" y="-251.8" font-family="Helvetica,sans-Serif" font-size="11.00" fill="#000000"> &#160;</text>
</a>
</g>
</g>
<!-- tap.authorisation_audit&#45;&gt;audit_revision -->
<g id="edge3" class="edge">
<title>tap.authorisation_audit:w&#45;&gt;audit_revision:e</title>
<path fill="none" stroke="#000000" d="M288.4536,-293.6613C239.4406,-286.3324 230.0023,-242.7 173,-242.7"/>
<polygon fill="#000000" stroke="#000000" points="295.0203,-294.1301 302.7436,-298.2909 299.0102,-294.4151 303,-294.7 303,-294.7 303,-294.7 299.0102,-294.4151 303.2564,-291.1091 295.0203,-294.1301 295.0203,-294.1301"/>
<ellipse fill="none" stroke="#000000" cx="291.8284" cy="-293.9022" rx="3.2" ry="3.2"/>
</g>
<!-- tap.movement_audit -->
<g id="node5" class="node">
<title>tap.movement_audit</title>
<g id="a_node5"><a xlink:title="tap.movement_audit">
<polygon fill="#ffffff" stroke="transparent" points="305,-142.2 305,-225.2 513,-225.2 513,-142.2 305,-142.2"/>
<polygon fill="#f5f5f5" stroke="transparent" points="305,-201.7 305,-224.7 513,-224.7 513,-201.7 305,-201.7"/>
<polygon fill="none" stroke="#000000" points="305,-201.7 305,-224.7 513,-224.7 513,-201.7 305,-201.7"/>
<text text-anchor="start" x="310" y="-210.3" font-family="Helvetica,sans-Serif" font-weight="bold" font-size="11.00" fill="#000000">tap.movement_audit</text>
<text text-anchor="start" x="478.0437" y="-209.8" font-family="Helvetica,sans-Serif" font-size="11.00" fill="#000000">[table]</text>
<polygon fill="none" stroke="#000000" points="305,-179.7 305,-201.7 513,-201.7 513,-179.7 305,-179.7"/>
<image xlink:href="../../images/foreignKeys.png" width="11px" height="12px" preserveAspectRatio="xMinYMin meet" x="310" y="-196.7"/>
<text text-anchor="start" x="325" y="-186.8" font-family="Helvetica,sans-Serif" font-size="11.00" fill="#000000">rev_id</text>
<polygon fill="none" stroke="#000000" points="305,-160.7 305,-179.7 513,-179.7 513,-160.7 305,-160.7"/>
<text text-anchor="start" x="308" y="-166.8" font-family="Helvetica,sans-Serif" font-size="11.00" fill="#000000">...</text>
<polygon fill="#ffffff" stroke="transparent" points="305,-141.7 305,-160.7 394,-160.7 394,-141.7 305,-141.7"/>
<polygon fill="none" stroke="#000000" points="305,-141.7 305,-160.7 394,-160.7 394,-141.7 305,-141.7"/>
<text text-anchor="start" x="308" y="-147.8" font-family="Helvetica,sans-Serif" font-size="11.00" fill="#000000">&lt; 1</text>
<polygon fill="#ffffff" stroke="transparent" points="394,-141.7 394,-160.7 466,-160.7 466,-141.7 394,-141.7"/>
<polygon fill="none" stroke="#000000" points="394,-141.7 394,-160.7 466,-160.7 466,-141.7 394,-141.7"/>
<text text-anchor="start" x="430.6105" y="-147.8" font-family="Helvetica,sans-Serif" font-size="11.00" fill="#000000">0 rows</text>
<polygon fill="#ffffff" stroke="transparent" points="466,-141.7 466,-160.7 513,-160.7 513,-141.7 466,-141.7"/>
<polygon fill="none" stroke="#000000" points="466,-141.7 466,-160.7 513,-160.7 513,-141.7 466,-141.7"/>
<text text-anchor="start" x="503.8862" y="-147.8" font-family="Helvetica,sans-Serif" font-size="11.00" fill="#000000"> &#160;</text>
</a>
</g>
</g>
<!-- tap.movement_audit&#45;&gt;audit_revision -->
<g id="edge4" class="edge">
<title>tap.movement_audit:w&#45;&gt;audit_revision:e</title>
<path fill="none" stroke="#000000" d="M290.5735,-191.6923C240.5942,-198.8813 230.8823,-242.7 173,-242.7"/>
<polygon fill="#000000" stroke="#000000" points="297.0189,-191.249 305.2471,-194.2915 301.0094,-190.9745 305,-190.7 305,-190.7 305,-190.7 301.0094,-190.9745 304.7529,-187.1085 297.0189,-191.249 297.0189,-191.249"/>
<ellipse fill="none" stroke="#000000" cx="293.8264" cy="-191.4687" rx="3.2" ry="3.2"/>
</g>
<!-- tap.occurrence_audit -->
<g id="node6" class="node">
<title>tap.occurrence_audit</title>
<g id="a_node6"><a xlink:title="tap.occurrence_audit">
<polygon fill="#ffffff" stroke="transparent" points="302.5,-38.2 302.5,-121.2 515.5,-121.2 515.5,-38.2 302.5,-38.2"/>
<polygon fill="#f5f5f5" stroke="transparent" points="303,-97.7 303,-120.7 516,-120.7 516,-97.7 303,-97.7"/>
<polygon fill="none" stroke="#000000" points="303,-97.7 303,-120.7 516,-120.7 516,-97.7 303,-97.7"/>
<text text-anchor="start" x="308" y="-106.3" font-family="Helvetica,sans-Serif" font-weight="bold" font-size="11.00" fill="#000000">tap.occurrence_audit</text>
<text text-anchor="start" x="481.0437" y="-105.8" font-family="Helvetica,sans-Serif" font-size="11.00" fill="#000000">[table]</text>
<polygon fill="none" stroke="#000000" points="303,-75.7 303,-97.7 516,-97.7 516,-75.7 303,-75.7"/>
<image xlink:href="../../images/foreignKeys.png" width="11px" height="12px" preserveAspectRatio="xMinYMin meet" x="308" y="-92.7"/>
<text text-anchor="start" x="323" y="-82.8" font-family="Helvetica,sans-Serif" font-size="11.00" fill="#000000">rev_id</text>
<polygon fill="none" stroke="#000000" points="303,-56.7 303,-75.7 516,-75.7 516,-56.7 303,-56.7"/>
<text text-anchor="start" x="306" y="-62.8" font-family="Helvetica,sans-Serif" font-size="11.00" fill="#000000">...</text>
<polygon fill="#ffffff" stroke="transparent" points="303,-37.7 303,-56.7 395,-56.7 395,-37.7 303,-37.7"/>
<polygon fill="none" stroke="#000000" points="303,-37.7 303,-56.7 395,-56.7 395,-37.7 303,-37.7"/>
<text text-anchor="start" x="306" y="-43.8" font-family="Helvetica,sans-Serif" font-size="11.00" fill="#000000">&lt; 1</text>
<polygon fill="#ffffff" stroke="transparent" points="395,-37.7 395,-56.7 468,-56.7 468,-37.7 395,-37.7"/>
<polygon fill="none" stroke="#000000" points="395,-37.7 395,-56.7 468,-56.7 468,-37.7 395,-37.7"/>
<text text-anchor="start" x="432.6105" y="-43.8" font-family="Helvetica,sans-Serif" font-size="11.00" fill="#000000">0 rows</text>
<polygon fill="#ffffff" stroke="transparent" points="468,-37.7 468,-56.7 516,-56.7 516,-37.7 468,-37.7"/>
<polygon fill="none" stroke="#000000" points="468,-37.7 468,-56.7 516,-56.7 516,-37.7 468,-37.7"/>
<text text-anchor="start" x="506.8862" y="-43.8" font-family="Helvetica,sans-Serif" font-size="11.00" fill="#000000"> &#160;</text>
</a>
</g>
</g>
<!-- tap.occurrence_audit&#45;&gt;audit_revision -->
<g id="edge5" class="edge">
<title>tap.occurrence_audit:w&#45;&gt;audit_revision:e</title>
<path fill="none" stroke="#000000" d="M288.5319,-88.468C268.6853,-94.0007 263.282,-111.8056 245,-131.7 205.2118,-174.9975 231.8029,-242.7 173,-242.7"/>
<polygon fill="#000000" stroke="#000000" points="295.0591,-87.6704 303.4367,-90.2734 299.0295,-87.1852 303,-86.7 303,-86.7 303,-86.7 299.0295,-87.1852 302.5633,-83.1266 295.0591,-87.6704 295.0591,-87.6704"/>
<ellipse fill="none" stroke="#000000" cx="291.8827" cy="-88.0586" rx="3.2" ry="3.2"/>
</g>
<!-- tap.absence_categorisation_domain_link -->
<g id="node7" class="node">
<title>tap.absence_categorisation_domain_link</title>
<g id="a_node7"><a xlink:title="tap.absence_categorisation_domain_link">
<polygon fill="#ffffff" stroke="transparent" points="253,-476.2 253,-559.2 565,-559.2 565,-476.2 253,-476.2"/>
<polygon fill="#f5f5f5" stroke="transparent" points="253,-535.7 253,-558.7 565,-558.7 565,-535.7 253,-535.7"/>
<polygon fill="none" stroke="#000000" points="253,-535.7 253,-558.7 565,-558.7 565,-535.7 253,-535.7"/>
<text text-anchor="start" x="258" y="-544.3" font-family="Helvetica,sans-Serif" font-weight="bold" font-size="11.00" fill="#000000">tap.absence_categorisation_domain_link</text>
<text text-anchor="start" x="530.5219" y="-543.8" font-family="Helvetica,sans-Serif" font-size="11.00" fill="#000000">[table]</text>
<polygon fill="none" stroke="#000000" points="253,-513.7 253,-535.7 565,-535.7 565,-513.7 253,-513.7"/>
<image xlink:href="../../images/foreignKeys.png" width="11px" height="12px" preserveAspectRatio="xMinYMin meet" x="258" y="-530.7"/>
<text text-anchor="start" x="296" y="-520.8" font-family="Helvetica,sans-Serif" font-size="11.00" fill="#000000">domain</text>
<polygon fill="none" stroke="#000000" points="253,-494.7 253,-513.7 565,-513.7 565,-494.7 253,-494.7"/>
<text text-anchor="start" x="256" y="-500.8" font-family="Helvetica,sans-Serif" font-size="11.00" fill="#000000">...</text>
<polygon fill="#ffffff" stroke="transparent" points="253,-475.7 253,-494.7 394,-494.7 394,-475.7 253,-475.7"/>
<polygon fill="none" stroke="#000000" points="253,-475.7 253,-494.7 394,-494.7 394,-475.7 253,-475.7"/>
<text text-anchor="start" x="256" y="-481.8" font-family="Helvetica,sans-Serif" font-size="11.00" fill="#000000">&lt; 1</text>
<polygon fill="#ffffff" stroke="transparent" points="394,-475.7 394,-494.7 492,-494.7 492,-475.7 394,-475.7"/>
<polygon fill="none" stroke="#000000" points="394,-475.7 394,-494.7 492,-494.7 492,-475.7 394,-475.7"/>
<text text-anchor="start" x="456.6105" y="-481.8" font-family="Helvetica,sans-Serif" font-size="11.00" fill="#000000">0 rows</text>
<polygon fill="#ffffff" stroke="transparent" points="492,-475.7 492,-494.7 565,-494.7 565,-475.7 492,-475.7"/>
<polygon fill="none" stroke="#000000" points="492,-475.7 492,-494.7 565,-494.7 565,-475.7 492,-475.7"/>
<text text-anchor="start" x="555.8862" y="-481.8" font-family="Helvetica,sans-Serif" font-size="11.00" fill="#000000"> &#160;</text>
</a>
</g>
</g>
<!-- tap.absence_categorisation_domain_link&#45;&gt;reference_data_domain -->
<g id="edge2" class="edge">
<title>tap.absence_categorisation_domain_link:w&#45;&gt;reference_data_domain:e</title>
<path fill="none" stroke="#000000" d="M238.4909,-524.7C227.1774,-524.7 219.9931,-524.7 204,-524.7"/>
<polygon fill="#000000" stroke="#000000" points="245,-524.7001 253,-528.3 249,-524.7 253,-524.7 253,-524.7 253,-524.7 249,-524.7 253,-521.1 245,-524.7001 245,-524.7001"/>
<ellipse fill="none" stroke="#000000" cx="241.8" cy="-524.7001" rx="3.2" ry="3.2"/>
</g>
</g>
</svg>
