<?xml version="1.0" encoding="UTF-8" standalone="no"?>
<!DOCTYPE svg PUBLIC "-//W3C//DTD SVG 1.1//EN"
 "http://www.w3.org/Graphics/SVG/1.1/DTD/svg11.dtd">
<!-- Generated by graphviz version 2.40.1 (20161225.0304)
 -->
<!-- Title: compactRelationshipsDiagram Pages: 1 -->
<svg width="543pt" height="615pt"
 viewBox="0.00 0.00 543.00 615.20" xmlns="http://www.w3.org/2000/svg" xmlns:xlink="http://www.w3.org/1999/xlink">
<g id="graph0" class="graph" transform="scale(1 1) rotate(0) translate(4 611.2)">
<title>compactRelationshipsDiagram</title>
<polygon fill="#ffffff" stroke="transparent" points="-4,4 -4,-611.2 539,-611.2 539,4 -4,4"/>
<text text-anchor="middle" x="72.4936" y="-7.3" font-family="Helvetica,sans-Serif" font-size="11.00" fill="#000000">Generated by SchemaSpy</text>
<!-- hmpps_domain_event_audit -->
<g id="node1" class="node">
<title>hmpps_domain_event_audit</title>
<g id="a_node1"><a xlink:href="../../tables/hmpps_domain_event_audit.html" xlink:title="hmpps_domain_event_audit" target="_top">
<polygon fill="#ffffff" stroke="transparent" points="277.5,-350.2 277.5,-499.2 502.5,-499.2 502.5,-350.2 277.5,-350.2"/>
<polygon fill="#f5f5f5" stroke="transparent" points="278,-475.7 278,-498.7 503,-498.7 503,-475.7 278,-475.7"/>
<polygon fill="none" stroke="#000000" points="278,-475.7 278,-498.7 503,-498.7 503,-475.7 278,-475.7"/>
<text text-anchor="start" x="283" y="-484.3" font-family="Helvetica,sans-Serif" font-weight="bold" font-size="11.00" fill="#000000">hmpps_domain_event_audit</text>
<text text-anchor="start" x="468.5219" y="-483.8" font-family="Helvetica,sans-Serif" font-size="11.00" fill="#000000">[table]</text>
<polygon fill="none" stroke="#000000" points="278,-453.7 278,-475.7 503,-475.7 503,-453.7 278,-453.7"/>
<image xlink:href="../../images/primaryKeys.png" width="11px" height="12px" preserveAspectRatio="xMinYMin meet" x="283" y="-470.7"/>
<text text-anchor="start" x="307" y="-460.8" font-family="Helvetica,sans-Serif" font-size="11.00" fill="#000000">rev_id</text>
<polygon fill="#ffffff" stroke="transparent" points="278,-431.7 278,-453.7 503,-453.7 503,-431.7 278,-431.7"/>
<polygon fill="none" stroke="#000000" points="278,-431.7 278,-453.7 503,-453.7 503,-431.7 278,-431.7"/>
<text text-anchor="start" x="307" y="-438.8" font-family="Helvetica,sans-Serif" font-size="11.00" fill="#000000">rev_type</text>
<polygon fill="none" stroke="#000000" points="278,-409.7 278,-431.7 503,-431.7 503,-409.7 278,-409.7"/>
<image xlink:href="../../images/primaryKeys.png" width="11px" height="12px" preserveAspectRatio="xMinYMin meet" x="283" y="-426.7"/>
<text text-anchor="start" x="307" y="-416.8" font-family="Helvetica,sans-Serif" font-size="11.00" fill="#000000">id</text>
<polygon fill="#ffffff" stroke="transparent" points="278,-387.7 278,-409.7 503,-409.7 503,-387.7 278,-387.7"/>
<polygon fill="none" stroke="#000000" points="278,-387.7 278,-409.7 503,-409.7 503,-387.7 278,-387.7"/>
<text text-anchor="start" x="307" y="-394.8" font-family="Helvetica,sans-Serif" font-size="11.00" fill="#000000">entity_id</text>
<polygon fill="none" stroke="#000000" points="278,-368.7 278,-387.7 503,-387.7 503,-368.7 278,-368.7"/>
<text text-anchor="start" x="281" y="-374.8" font-family="Helvetica,sans-Serif" font-size="11.00" fill="#000000">...</text>
<polygon fill="#ffffff" stroke="transparent" points="278,-349.7 278,-368.7 389,-368.7 389,-349.7 278,-349.7"/>
<polygon fill="none" stroke="#000000" points="278,-349.7 278,-368.7 389,-368.7 389,-349.7 278,-349.7"/>
<text text-anchor="start" x="281" y="-355.8" font-family="Helvetica,sans-Serif" font-size="11.00" fill="#000000">&lt; 1</text>
<polygon fill="#ffffff" stroke="transparent" points="389,-349.7 389,-368.7 446,-368.7 446,-349.7 389,-349.7"/>
<polygon fill="none" stroke="#000000" points="389,-349.7 389,-368.7 446,-368.7 446,-349.7 389,-349.7"/>
<text text-anchor="start" x="436.8862" y="-355.8" font-family="Helvetica,sans-Serif" font-size="11.00" fill="#000000"> &#160;</text>
<polygon fill="#ffffff" stroke="transparent" points="446,-349.7 446,-368.7 503,-368.7 503,-349.7 446,-349.7"/>
<polygon fill="none" stroke="#000000" points="446,-349.7 446,-368.7 503,-368.7 503,-349.7 446,-349.7"/>
<text text-anchor="start" x="493.8862" y="-355.8" font-family="Helvetica,sans-Serif" font-size="11.00" fill="#000000"> &#160;</text>
</a>
</g>
</g>
<!-- audit_revision -->
<g id="node3" class="node">
<title>audit_revision</title>
<g id="a_node3"><a xlink:href="../../tables/audit_revision.html" xlink:title="audit_revision" target="_top">
<polygon fill="#ffffff" stroke="transparent" points="39,-194.2 39,-277.2 173,-277.2 173,-194.2 39,-194.2"/>
<polygon fill="#f5f5f5" stroke="transparent" points="39,-253.7 39,-276.7 173,-276.7 173,-253.7 39,-253.7"/>
<polygon fill="none" stroke="#000000" points="39,-253.7 39,-276.7 173,-276.7 173,-253.7 39,-253.7"/>
<text text-anchor="start" x="44" y="-262.3" font-family="Helvetica,sans-Serif" font-weight="bold" font-size="11.00" fill="#000000">audit_revision</text>
<text text-anchor="start" x="138.5219" y="-261.8" font-family="Helvetica,sans-Serif" font-size="11.00" fill="#000000">[table]</text>
<polygon fill="none" stroke="#000000" points="39,-231.7 39,-253.7 173,-253.7 173,-231.7 39,-231.7"/>
<image xlink:href="../../images/primaryKeys.png" width="11px" height="12px" preserveAspectRatio="xMinYMin meet" x="44" y="-248.7"/>
<text text-anchor="start" x="59" y="-238.8" font-family="Helvetica,sans-Serif" font-size="11.00" fill="#000000">id</text>
<polygon fill="none" stroke="#000000" points="39,-212.7 39,-231.7 173,-231.7 173,-212.7 39,-212.7"/>
<text text-anchor="start" x="42" y="-218.8" font-family="Helvetica,sans-Serif" font-size="11.00" fill="#000000">...</text>
<polygon fill="#ffffff" stroke="transparent" points="39,-193.7 39,-212.7 95,-212.7 95,-193.7 39,-193.7"/>
<polygon fill="none" stroke="#000000" points="39,-193.7 39,-212.7 95,-212.7 95,-193.7 39,-193.7"/>
<text text-anchor="start" x="42" y="-199.8" font-family="Helvetica,sans-Serif" font-size="11.00" fill="#000000"> &#160;</text>
<polygon fill="#ffffff" stroke="transparent" points="95,-193.7 95,-212.7 129,-212.7 129,-193.7 95,-193.7"/>
<polygon fill="none" stroke="#000000" points="95,-193.7 95,-212.7 129,-212.7 129,-193.7 95,-193.7"/>
<text text-anchor="start" x="119.8862" y="-199.8" font-family="Helvetica,sans-Serif" font-size="11.00" fill="#000000"> &#160;</text>
<polygon fill="#ffffff" stroke="transparent" points="129,-193.7 129,-212.7 173,-212.7 173,-193.7 129,-193.7"/>
<polygon fill="none" stroke="#000000" points="129,-193.7 129,-212.7 173,-212.7 173,-193.7 129,-193.7"/>
<text text-anchor="start" x="154.4053" y="-199.8" font-family="Helvetica,sans-Serif" font-size="11.00" fill="#000000">4 &gt;</text>
</a>
</g>
</g>
<!-- hmpps_domain_event_audit&#45;&gt;audit_revision -->
<g id="edge1" class="edge">
<title>hmpps_domain_event_audit:w&#45;&gt;audit_revision:e</title>
<path fill="none" stroke="#000000" d="M263.551,-463.1638C179.3872,-443.5496 276.8168,-242.7 173,-242.7"/>
<polygon fill="#000000" stroke="#000000" points="270.0448,-463.8542 277.6194,-468.2798 274.0224,-464.2771 278,-464.7 278,-464.7 278,-464.7 274.0224,-464.2771 278.3806,-461.1202 270.0448,-463.8542 270.0448,-463.8542"/>
<ellipse fill="none" stroke="#000000" cx="266.8628" cy="-463.5158" rx="3.2" ry="3.2"/>
</g>
<!-- reference_data_domain -->
<g id="node2" class="node">
<title>reference_data_domain</title>
<g id="a_node2"><a xlink:href="../../tables/reference_data_domain.html" xlink:title="reference_data_domain" target="_top">
<polygon fill="#ffffff" stroke="transparent" points="8,-520.2 8,-603.2 204,-603.2 204,-520.2 8,-520.2"/>
<polygon fill="#f5f5f5" stroke="transparent" points="8,-579.7 8,-602.7 204,-602.7 204,-579.7 8,-579.7"/>
<polygon fill="none" stroke="#000000" points="8,-579.7 8,-602.7 204,-602.7 204,-579.7 8,-579.7"/>
<text text-anchor="start" x="13" y="-588.3" font-family="Helvetica,sans-Serif" font-weight="bold" font-size="11.00" fill="#000000">reference_data_domain</text>
<text text-anchor="start" x="169.5219" y="-587.8" font-family="Helvetica,sans-Serif" font-size="11.00" fill="#000000">[table]</text>
<polygon fill="none" stroke="#000000" points="8,-557.7 8,-579.7 204,-579.7 204,-557.7 8,-557.7"/>
<image xlink:href="../../images/primaryKeys.png" width="11px" height="12px" preserveAspectRatio="xMinYMin meet" x="13" y="-574.7"/>
<text text-anchor="start" x="37" y="-564.8" font-family="Helvetica,sans-Serif" font-size="11.00" fill="#000000">code</text>
<polygon fill="none" stroke="#000000" points="8,-538.7 8,-557.7 204,-557.7 204,-538.7 8,-538.7"/>
<text text-anchor="start" x="11" y="-544.8" font-family="Helvetica,sans-Serif" font-size="11.00" fill="#000000">...</text>
<polygon fill="#ffffff" stroke="transparent" points="8,-519.7 8,-538.7 95,-538.7 95,-519.7 8,-519.7"/>
<polygon fill="none" stroke="#000000" points="8,-519.7 8,-538.7 95,-538.7 95,-519.7 8,-519.7"/>
<text text-anchor="start" x="11" y="-525.8" font-family="Helvetica,sans-Serif" font-size="11.00" fill="#000000"> &#160;</text>
<polygon fill="#ffffff" stroke="transparent" points="95,-519.7 95,-538.7 145,-538.7 145,-519.7 95,-519.7"/>
<polygon fill="none" stroke="#000000" points="95,-519.7 95,-538.7 145,-538.7 145,-519.7 95,-519.7"/>
<text text-anchor="start" x="135.8862" y="-525.8" font-family="Helvetica,sans-Serif" font-size="11.00" fill="#000000"> &#160;</text>
<polygon fill="#ffffff" stroke="transparent" points="145,-519.7 145,-538.7 204,-538.7 204,-519.7 145,-519.7"/>
<polygon fill="none" stroke="#000000" points="145,-519.7 145,-538.7 204,-538.7 204,-519.7 145,-519.7"/>
<text text-anchor="start" x="185.4053" y="-525.8" font-family="Helvetica,sans-Serif" font-size="11.00" fill="#000000">1 &gt;</text>
</a>
</g>
</g>
<!-- tap.authorisation_audit -->
<g id="node4" class="node">
<title>tap.authorisation_audit</title>
<g id="a_node4"><a xlink:title="tap.authorisation_audit">
<polygon fill="#ffffff" stroke="transparent" points="283.5,-246.2 283.5,-329.2 496.5,-329.2 496.5,-246.2 283.5,-246.2"/>
<polygon fill="#f5f5f5" stroke="transparent" points="284,-305.7 284,-328.7 497,-328.7 497,-305.7 284,-305.7"/>
<polygon fill="none" stroke="#000000" points="284,-305.7 284,-328.7 497,-328.7 497,-305.7 284,-305.7"/>
<text text-anchor="start" x="289" y="-314.3" font-family="Helvetica,sans-Serif" font-weight="bold" font-size="11.00" fill="#000000">tap.authorisation_audit</text>
<text text-anchor="start" x="462.0437" y="-313.8" font-family="Helvetica,sans-Serif" font-size="11.00" fill="#000000">[table]</text>
<polygon fill="none" stroke="#000000" points="284,-283.7 284,-305.7 497,-305.7 497,-283.7 284,-283.7"/>
<image xlink:href="../../images/foreignKeys.png" width="11px" height="12px" preserveAspectRatio="xMinYMin meet" x="289" y="-300.7"/>
<text text-anchor="start" x="304" y="-290.8" font-family="Helvetica,sans-Serif" font-size="11.00" fill="#000000">rev_id</text>
<polygon fill="none" stroke="#000000" points="284,-264.7 284,-283.7 497,-283.7 497,-264.7 284,-264.7"/>
<text text-anchor="start" x="287" y="-270.8" font-family="Helvetica,sans-Serif" font-size="11.00" fill="#000000">...</text>
<polygon fill="#ffffff" stroke="transparent" points="284,-245.7 284,-264.7 376,-264.7 376,-245.7 284,-245.7"/>
<polygon fill="none" stroke="#000000" points="284,-245.7 284,-264.7 376,-264.7 376,-245.7 284,-245.7"/>
<text text-anchor="start" x="287" y="-251.8" font-family="Helvetica,sans-Serif" font-size="11.00" fill="#000000">&lt; 1</text>
<polygon fill="#ffffff" stroke="transparent" points="376,-245.7 376,-264.7 449,-264.7 449,-245.7 376,-245.7"/>
<polygon fill="none" stroke="#000000" points="376,-245.7 376,-264.7 449,-264.7 449,-245.7 376,-245.7"/>
<text text-anchor="start" x="413.6105" y="-251.8" font-family="Helvetica,sans-Serif" font-size="11.00" fill="#000000">0 rows</text>
<polygon fill="#ffffff" stroke="transparent" points="449,-245.7 449,-264.7 497,-264.7 497,-245.7 449,-245.7"/>
<polygon fill="none" stroke="#000000" points="449,-245.7 449,-264.7 497,-264.7 497,-245.7 449,-245.7"/>
<text text-anchor="start" x="487.8862" y="-251.8" font-family="Helvetica,sans-Serif" font-size="11.00" fill="#000000"> &#160;</text>
</a>
</g>
</g>
<!-- tap.authorisation_audit&#45;&gt;audit_revision -->
<g id="edge2" class="edge">
<title>tap.authorisation_audit:w&#45;&gt;audit_revision:e</title>
<path fill="none" stroke="#000000" d="M269.442,-293.3091C228.6224,-285.0397 222.1583,-242.7 173,-242.7"/>
<polygon fill="#000000" stroke="#000000" points="276.0363,-293.9391 283.6576,-298.2837 280.0181,-294.3195 284,-294.7 284,-294.7 284,-294.7 280.0181,-294.3195 284.3424,-291.1163 276.0363,-293.9391 276.0363,-293.9391"/>
<ellipse fill="none" stroke="#000000" cx="272.8508" cy="-293.6347" rx="3.2" ry="3.2"/>
</g>
<!-- tap.movement_audit -->
<g id="node5" class="node">
<title>tap.movement_audit</title>
<g id="a_node5"><a xlink:title="tap.movement_audit">
<polygon fill="#ffffff" stroke="transparent" points="286,-142.2 286,-225.2 494,-225.2 494,-142.2 286,-142.2"/>
<polygon fill="#f5f5f5" stroke="transparent" points="286,-201.7 286,-224.7 494,-224.7 494,-201.7 286,-201.7"/>
<polygon fill="none" stroke="#000000" points="286,-201.7 286,-224.7 494,-224.7 494,-201.7 286,-201.7"/>
<text text-anchor="start" x="291" y="-210.3" font-family="Helvetica,sans-Serif" font-weight="bold" font-size="11.00" fill="#000000">tap.movement_audit</text>
<text text-anchor="start" x="459.0437" y="-209.8" font-family="Helvetica,sans-Serif" font-size="11.00" fill="#000000">[table]</text>
<polygon fill="none" stroke="#000000" points="286,-179.7 286,-201.7 494,-201.7 494,-179.7 286,-179.7"/>
<image xlink:href="../../images/foreignKeys.png" width="11px" height="12px" preserveAspectRatio="xMinYMin meet" x="291" y="-196.7"/>
<text text-anchor="start" x="306" y="-186.8" font-family="Helvetica,sans-Serif" font-size="11.00" fill="#000000">rev_id</text>
<polygon fill="none" stroke="#000000" points="286,-160.7 286,-179.7 494,-179.7 494,-160.7 286,-160.7"/>
<text text-anchor="start" x="289" y="-166.8" font-family="Helvetica,sans-Serif" font-size="11.00" fill="#000000">...</text>
<polygon fill="#ffffff" stroke="transparent" points="286,-141.7 286,-160.7 375,-160.7 375,-141.7 286,-141.7"/>
<polygon fill="none" stroke="#000000" points="286,-141.7 286,-160.7 375,-160.7 375,-141.7 286,-141.7"/>
<text text-anchor="start" x="289" y="-147.8" font-family="Helvetica,sans-Serif" font-size="11.00" fill="#000000">&lt; 1</text>
<polygon fill="#ffffff" stroke="transparent" points="375,-141.7 375,-160.7 447,-160.7 447,-141.7 375,-141.7"/>
<polygon fill="none" stroke="#000000" points="375,-141.7 375,-160.7 447,-160.7 447,-141.7 375,-141.7"/>
<text text-anchor="start" x="411.6105" y="-147.8" font-family="Helvetica,sans-Serif" font-size="11.00" fill="#000000">0 rows</text>
<polygon fill="#ffffff" stroke="transparent" points="447,-141.7 447,-160.7 494,-160.7 494,-141.7 447,-141.7"/>
<polygon fill="none" stroke="#000000" points="447,-141.7 447,-160.7 494,-160.7 494,-141.7 447,-141.7"/>
<text text-anchor="start" x="484.8862" y="-147.8" font-family="Helvetica,sans-Serif" font-size="11.00" fill="#000000"> &#160;</text>
</a>
</g>
</g>
<!-- tap.movement_audit&#45;&gt;audit_revision -->
<g id="edge3" class="edge">
<title>tap.movement_audit:w&#45;&gt;audit_revision:e</title>
<path fill="none" stroke="#000000" d="M271.4869,-192.0377C229.766,-200.1769 222.9938,-242.7 173,-242.7"/>
<polygon fill="#000000" stroke="#000000" points="278.0338,-191.4343 286.3304,-194.2848 282.0169,-191.0671 286,-190.7 286,-190.7 286,-190.7 282.0169,-191.0671 285.6696,-187.1152 278.0338,-191.4343 278.0338,-191.4343"/>
<ellipse fill="none" stroke="#000000" cx="274.8473" cy="-191.728" rx="3.2" ry="3.2"/>
</g>
<!-- tap.prison_absence_categorisation -->
<g id="node6" class="node">
<title>tap.prison_absence_categorisation</title>
<g id="a_node6"><a xlink:title="tap.prison_absence_categorisation">
<polygon fill="#ffffff" stroke="transparent" points="253,-520.2 253,-603.2 527,-603.2 527,-520.2 253,-520.2"/>
<polygon fill="#f5f5f5" stroke="transparent" points="253,-579.7 253,-602.7 527,-602.7 527,-579.7 253,-579.7"/>
<polygon fill="none" stroke="#000000" points="253,-579.7 253,-602.7 527,-602.7 527,-579.7 253,-579.7"/>
<text text-anchor="start" x="258" y="-588.3" font-family="Helvetica,sans-Serif" font-weight="bold" font-size="11.00" fill="#000000">tap.prison_absence_categorisation</text>
<text text-anchor="start" x="492.5219" y="-587.8" font-family="Helvetica,sans-Serif" font-size="11.00" fill="#000000">[table]</text>
<polygon fill="none" stroke="#000000" points="253,-557.7 253,-579.7 527,-579.7 527,-557.7 253,-557.7"/>
<image xlink:href="../../images/foreignKeys.png" width="11px" height="12px" preserveAspectRatio="xMinYMin meet" x="258" y="-574.7"/>
<text text-anchor="start" x="296" y="-564.8" font-family="Helvetica,sans-Serif" font-size="11.00" fill="#000000">domain_code</text>
<polygon fill="none" stroke="#000000" points="253,-538.7 253,-557.7 527,-557.7 527,-538.7 253,-538.7"/>
<text text-anchor="start" x="256" y="-544.8" font-family="Helvetica,sans-Serif" font-size="11.00" fill="#000000">...</text>
<polygon fill="#ffffff" stroke="transparent" points="253,-519.7 253,-538.7 375,-538.7 375,-519.7 253,-519.7"/>
<polygon fill="none" stroke="#000000" points="253,-519.7 253,-538.7 375,-538.7 375,-519.7 253,-519.7"/>
<text text-anchor="start" x="256" y="-525.8" font-family="Helvetica,sans-Serif" font-size="11.00" fill="#000000">&lt; 1</text>
<polygon fill="#ffffff" stroke="transparent" points="375,-519.7 375,-538.7 464,-538.7 464,-519.7 375,-519.7"/>
<polygon fill="none" stroke="#000000" points="375,-519.7 375,-538.7 464,-538.7 464,-519.7 375,-519.7"/>
<text text-anchor="start" x="428.6105" y="-525.8" font-family="Helvetica,sans-Serif" font-size="11.00" fill="#000000">0 rows</text>
<polygon fill="#ffffff" stroke="transparent" points="464,-519.7 464,-538.7 527,-538.7 527,-519.7 464,-519.7"/>
<polygon fill="none" stroke="#000000" points="464,-519.7 464,-538.7 527,-538.7 527,-519.7 464,-519.7"/>
<text text-anchor="start" x="517.8862" y="-525.8" font-family="Helvetica,sans-Serif" font-size="11.00" fill="#000000"> &#160;</text>
</a>
</g>
</g>
<!-- tap.prison_absence_categorisation&#45;&gt;reference_data_domain -->
<g id="edge5" class="edge">
<title>tap.prison_absence_categorisation:w&#45;&gt;reference_data_domain:e</title>
<path fill="none" stroke="#000000" d="M238.4909,-568.7C227.1774,-568.7 219.9931,-568.7 204,-568.7"/>
<polygon fill="#000000" stroke="#000000" points="245,-568.7001 253,-572.3 249,-568.7 253,-568.7 253,-568.7 253,-568.7 249,-568.7 253,-565.1 245,-568.7001 245,-568.7001"/>
<ellipse fill="none" stroke="#000000" cx="241.8" cy="-568.7001" rx="3.2" ry="3.2"/>
</g>
<!-- tap.occurrence_audit -->
<g id="node7" class="node">
<title>tap.occurrence_audit</title>
<g id="a_node7"><a xlink:title="tap.occurrence_audit">
<polygon fill="#ffffff" stroke="transparent" points="283.5,-38.2 283.5,-121.2 496.5,-121.2 496.5,-38.2 283.5,-38.2"/>
<polygon fill="#f5f5f5" stroke="transparent" points="284,-97.7 284,-120.7 497,-120.7 497,-97.7 284,-97.7"/>
<polygon fill="none" stroke="#000000" points="284,-97.7 284,-120.7 497,-120.7 497,-97.7 284,-97.7"/>
<text text-anchor="start" x="289" y="-106.3" font-family="Helvetica,sans-Serif" font-weight="bold" font-size="11.00" fill="#000000">tap.occurrence_audit</text>
<text text-anchor="start" x="462.0437" y="-105.8" font-family="Helvetica,sans-Serif" font-size="11.00" fill="#000000">[table]</text>
<polygon fill="none" stroke="#000000" points="284,-75.7 284,-97.7 497,-97.7 497,-75.7 284,-75.7"/>
<image xlink:href="../../images/foreignKeys.png" width="11px" height="12px" preserveAspectRatio="xMinYMin meet" x="289" y="-92.7"/>
<text text-anchor="start" x="304" y="-82.8" font-family="Helvetica,sans-Serif" font-size="11.00" fill="#000000">rev_id</text>
<polygon fill="none" stroke="#000000" points="284,-56.7 284,-75.7 497,-75.7 497,-56.7 284,-56.7"/>
<text text-anchor="start" x="287" y="-62.8" font-family="Helvetica,sans-Serif" font-size="11.00" fill="#000000">...</text>
<polygon fill="#ffffff" stroke="transparent" points="284,-37.7 284,-56.7 376,-56.7 376,-37.7 284,-37.7"/>
<polygon fill="none" stroke="#000000" points="284,-37.7 284,-56.7 376,-56.7 376,-37.7 284,-37.7"/>
<text text-anchor="start" x="287" y="-43.8" font-family="Helvetica,sans-Serif" font-size="11.00" fill="#000000">&lt; 1</text>
<polygon fill="#ffffff" stroke="transparent" points="376,-37.7 376,-56.7 449,-56.7 449,-37.7 376,-37.7"/>
<polygon fill="none" stroke="#000000" points="376,-37.7 376,-56.7 449,-56.7 449,-37.7 376,-37.7"/>
<text text-anchor="start" x="413.6105" y="-43.8" font-family="Helvetica,sans-Serif" font-size="11.00" fill="#000000">0 rows</text>
<polygon fill="#ffffff" stroke="transparent" points="449,-37.7 449,-56.7 497,-56.7 497,-37.7 449,-37.7"/>
<polygon fill="none" stroke="#000000" points="449,-37.7 449,-56.7 497,-56.7 497,-37.7 449,-37.7"/>
<text text-anchor="start" x="487.8862" y="-43.8" font-family="Helvetica,sans-Serif" font-size="11.00" fill="#000000"> &#160;</text>
</a>
</g>
</g>
<!-- tap.occurrence_audit&#45;&gt;audit_revision -->
<g id="edge4" class="edge">
<title>tap.occurrence_audit:w&#45;&gt;audit_revision:e</title>
<path fill="none" stroke="#000000" d="M269.6653,-88.452C205.7413,-105.5906 252.7751,-242.7 173,-242.7"/>
<polygon fill="#000000" stroke="#000000" points="276.0591,-87.6706 284.4368,-90.2734 280.0295,-87.1853 284,-86.7 284,-86.7 284,-86.7 280.0295,-87.1853 283.5632,-83.1266 276.0591,-87.6706 276.0591,-87.6706"/>
<ellipse fill="none" stroke="#000000" cx="272.8827" cy="-88.0588" rx="3.2" ry="3.2"/>
</g>
</g>
</svg>
