<?xml version="1.0" encoding="UTF-8" standalone="no"?>
<!DOCTYPE svg PUBLIC "-//W3C//DTD SVG 1.1//EN"
 "http://www.w3.org/Graphics/SVG/1.1/DTD/svg11.dtd">
<!-- Generated by graphviz version 2.40.1 (20161225.0304)
 -->
<!-- Title: twoDegreesRelationshipsDiagramImplied Pages: 1 -->
<svg width="636pt" height="577pt"
 viewBox="0.00 0.00 636.00 577.20" xmlns="http://www.w3.org/2000/svg" xmlns:xlink="http://www.w3.org/1999/xlink">
<g id="graph0" class="graph" transform="scale(1 1) rotate(0) translate(4 573.2)">
<title>twoDegreesRelationshipsDiagramImplied</title>
<polygon fill="#ffffff" stroke="transparent" points="-4,4 -4,-573.2 632,-573.2 632,4 -4,4"/>
<text text-anchor="middle" x="72.4936" y="-7.3" font-family="Helvetica,sans-Serif" font-size="11.00" fill="#000000">Generated by SchemaSpy</text>
<!-- hmpps_domain_event_audit -->
<g id="node1" class="node">
<title>hmpps_domain_event_audit</title>
<g id="a_node1"><a xlink:href="../../tables/hmpps_domain_event_audit.html" xlink:title="hmpps_domain_event_audit" target="_top">
<polygon fill="#ffffff" stroke="transparent" points="353,-460.2 353,-565.2 578,-565.2 578,-460.2 353,-460.2"/>
<polygon fill="#f5f5f5" stroke="transparent" points="353.5,-541.7 353.5,-564.7 578.5,-564.7 578.5,-541.7 353.5,-541.7"/>
<polygon fill="none" stroke="#000000" points="353.5,-541.7 353.5,-564.7 578.5,-564.7 578.5,-541.7 353.5,-541.7"/>
<text text-anchor="start" x="358.5" y="-550.3" font-family="Helvetica,sans-Serif" font-weight="bold" font-size="11.00" fill="#000000">hmpps_domain_event_audit</text>
<text text-anchor="start" x="544.0219" y="-549.8" font-family="Helvetica,sans-Serif" font-size="11.00" fill="#000000">[table]</text>
<polygon fill="none" stroke="#000000" points="353.5,-519.7 353.5,-541.7 578.5,-541.7 578.5,-519.7 353.5,-519.7"/>
<image xlink:href="../../images/primaryKeys.png" width="11px" height="12px" preserveAspectRatio="xMinYMin meet" x="358.5" y="-536.7"/>
<text text-anchor="start" x="382.5" y="-526.8" font-family="Helvetica,sans-Serif" font-size="11.00" fill="#000000">rev_id</text>
<polygon fill="none" stroke="#000000" points="353.5,-497.7 353.5,-519.7 578.5,-519.7 578.5,-497.7 353.5,-497.7"/>
<image xlink:href="../../images/primaryKeys.png" width="11px" height="12px" preserveAspectRatio="xMinYMin meet" x="358.5" y="-514.7"/>
<text text-anchor="start" x="382.5" y="-504.8" font-family="Helvetica,sans-Serif" font-size="11.00" fill="#000000">id</text>
<polygon fill="none" stroke="#000000" points="353.5,-478.7 353.5,-497.7 578.5,-497.7 578.5,-478.7 353.5,-478.7"/>
<text text-anchor="start" x="356.5" y="-484.8" font-family="Helvetica,sans-Serif" font-size="11.00" fill="#000000">...</text>
<polygon fill="#ffffff" stroke="transparent" points="353.5,-459.7 353.5,-478.7 464.5,-478.7 464.5,-459.7 353.5,-459.7"/>
<polygon fill="none" stroke="#000000" points="353.5,-459.7 353.5,-478.7 464.5,-478.7 464.5,-459.7 353.5,-459.7"/>
<text text-anchor="start" x="356.5" y="-465.8" font-family="Helvetica,sans-Serif" font-size="11.00" fill="#000000">&lt; 1</text>
<polygon fill="#ffffff" stroke="transparent" points="464.5,-459.7 464.5,-478.7 521.5,-478.7 521.5,-459.7 464.5,-459.7"/>
<polygon fill="none" stroke="#000000" points="464.5,-459.7 464.5,-478.7 521.5,-478.7 521.5,-459.7 464.5,-459.7"/>
<text text-anchor="start" x="512.3862" y="-465.8" font-family="Helvetica,sans-Serif" font-size="11.00" fill="#000000"> &#160;</text>
<polygon fill="#ffffff" stroke="transparent" points="521.5,-459.7 521.5,-478.7 578.5,-478.7 578.5,-459.7 521.5,-459.7"/>
<polygon fill="none" stroke="#000000" points="521.5,-459.7 521.5,-478.7 578.5,-478.7 578.5,-459.7 521.5,-459.7"/>
<text text-anchor="start" x="569.3862" y="-465.8" font-family="Helvetica,sans-Serif" font-size="11.00" fill="#000000"> &#160;</text>
</a>
</g>
</g>
<!-- audit_revision -->
<g id="node2" class="node">
<title>audit_revision</title>
<g id="a_node2"><a xlink:href="../../tables/audit_revision.html" xlink:title="audit_revision" target="_top">
<polygon fill="#ffffff" stroke="transparent" points="8,-231.7 8,-409.7 262,-409.7 262,-231.7 8,-231.7"/>
<polygon fill="#f5f5f5" stroke="transparent" points="10,-384.7 10,-407.7 260,-407.7 260,-384.7 10,-384.7"/>
<polygon fill="none" stroke="#000000" points="10,-384.7 10,-407.7 260,-407.7 260,-384.7 10,-384.7"/>
<text text-anchor="start" x="15" y="-393.3" font-family="Helvetica,sans-Serif" font-weight="bold" font-size="11.00" fill="#000000">audit_revision</text>
<text text-anchor="start" x="225.0437" y="-392.8" font-family="Helvetica,sans-Serif" font-size="11.00" fill="#000000">[table]</text>
<polygon fill="none" stroke="#000000" points="10,-362.7 10,-384.7 144,-384.7 144,-362.7 10,-362.7"/>
<image xlink:href="../../images/primaryKeys.png" width="11px" height="12px" preserveAspectRatio="xMinYMin meet" x="15" y="-379.7"/>
<text text-anchor="start" x="30" y="-369.8" font-family="Helvetica,sans-Serif" font-size="11.00" fill="#000000">id</text>
<polygon fill="none" stroke="#000000" points="144,-362.7 144,-384.7 260,-384.7 260,-362.7 144,-362.7"/>
<text text-anchor="start" x="147" y="-370.4" font-family="Helvetica,sans-Serif" font-size="11.00" fill="#000000">bigserial[19]</text>
<polygon fill="none" stroke="#000000" points="10,-340.7 10,-362.7 144,-362.7 144,-340.7 10,-340.7"/>
<text text-anchor="start" x="30" y="-347.8" font-family="Helvetica,sans-Serif" font-size="11.00" fill="#000000">timestamp</text>
<polygon fill="none" stroke="#000000" points="144,-340.7 144,-362.7 260,-362.7 260,-340.7 144,-340.7"/>
<text text-anchor="start" x="147" y="-348.4" font-family="Helvetica,sans-Serif" font-size="11.00" fill="#000000">timestamp[29,6]</text>
<polygon fill="none" stroke="#000000" points="10,-318.7 10,-340.7 144,-340.7 144,-318.7 10,-318.7"/>
<text text-anchor="start" x="30" y="-325.8" font-family="Helvetica,sans-Serif" font-size="11.00" fill="#000000">username</text>
<polygon fill="none" stroke="#000000" points="144,-318.7 144,-340.7 260,-340.7 260,-318.7 144,-318.7"/>
<text text-anchor="start" x="147" y="-326.4" font-family="Helvetica,sans-Serif" font-size="11.00" fill="#000000">varchar[64]</text>
<polygon fill="none" stroke="#000000" points="10,-296.7 10,-318.7 144,-318.7 144,-296.7 10,-296.7"/>
<text text-anchor="start" x="30" y="-303.8" font-family="Helvetica,sans-Serif" font-size="11.00" fill="#000000">source</text>
<polygon fill="none" stroke="#000000" points="144,-296.7 144,-318.7 260,-318.7 260,-296.7 144,-296.7"/>
<text text-anchor="start" x="147" y="-304.4" font-family="Helvetica,sans-Serif" font-size="11.00" fill="#000000">varchar[6]</text>
<polygon fill="none" stroke="#000000" points="10,-274.7 10,-296.7 144,-296.7 144,-274.7 10,-274.7"/>
<text text-anchor="start" x="30" y="-281.8" font-family="Helvetica,sans-Serif" font-size="11.00" fill="#000000">affected_entities</text>
<polygon fill="none" stroke="#000000" points="144,-274.7 144,-296.7 260,-296.7 260,-274.7 144,-274.7"/>
<text text-anchor="start" x="146.9769" y="-282.4" font-family="Helvetica,sans-Serif" font-size="11.00" fill="#000000">_varchar[2147483647]</text>
<polygon fill="none" stroke="#000000" points="10,-252.7 10,-274.7 144,-274.7 144,-252.7 10,-252.7"/>
<text text-anchor="start" x="30" y="-259.8" font-family="Helvetica,sans-Serif" font-size="11.00" fill="#000000">reason</text>
<polygon fill="none" stroke="#000000" points="144,-252.7 144,-274.7 260,-274.7 260,-252.7 144,-252.7"/>
<text text-anchor="start" x="147" y="-260.4" font-family="Helvetica,sans-Serif" font-size="11.00" fill="#000000">text[2147483647]</text>
<polygon fill="#ffffff" stroke="transparent" points="10,-233.7 10,-252.7 81,-252.7 81,-233.7 10,-233.7"/>
<polygon fill="none" stroke="#000000" points="10,-233.7 10,-252.7 81,-252.7 81,-233.7 10,-233.7"/>
<text text-anchor="start" x="13" y="-239.8" font-family="Helvetica,sans-Serif" font-size="11.00" fill="#000000">&lt; 0</text>
<polygon fill="#ffffff" stroke="transparent" points="81,-233.7 81,-252.7 144,-252.7 144,-233.7 81,-233.7"/>
<polygon fill="none" stroke="#000000" points="81,-233.7 81,-252.7 144,-252.7 144,-233.7 81,-233.7"/>
<text text-anchor="start" x="134.8862" y="-239.8" font-family="Helvetica,sans-Serif" font-size="11.00" fill="#000000"> &#160;</text>
<polygon fill="#ffffff" stroke="transparent" points="144,-233.7 144,-252.7 260,-252.7 260,-233.7 144,-233.7"/>
<polygon fill="none" stroke="#000000" points="144,-233.7 144,-252.7 260,-252.7 260,-233.7 144,-233.7"/>
<text text-anchor="start" x="241.4053" y="-239.8" font-family="Helvetica,sans-Serif" font-size="11.00" fill="#000000">4 &gt;</text>
<polygon fill="none" stroke="#000000" stroke-width="2" points="9,-232.7 9,-408.7 261,-408.7 261,-232.7 9,-232.7"/>
</a>
</g>
</g>
<!-- hmpps_domain_event_audit&#45;&gt;audit_revision -->
<g id="edge1" class="edge">
<title>hmpps_domain_event_audit:w&#45;&gt;audit_revision:e</title>
<path fill="none" stroke="#000000" d="M339.0078,-528.3373C314.1349,-518.6745 321.7095,-481.1838 303,-449.7 283.1737,-416.337 298.8094,-373.7 260,-373.7"/>
<polygon fill="#000000" stroke="#000000" points="345.6042,-529.4127 352.9207,-534.2531 349.5521,-530.0564 353.5,-530.7 353.5,-530.7 353.5,-530.7 349.5521,-530.0564 354.0793,-527.1469 345.6042,-529.4127 345.6042,-529.4127"/>
<ellipse fill="none" stroke="#000000" cx="342.4459" cy="-528.8978" rx="3.2" ry="3.2"/>
</g>
<!-- temporary_absence_authorisation_audit -->
<g id="node3" class="node">
<title>temporary_absence_authorisation_audit</title>
<g id="a_node3"><a xlink:href="../../tables/temporary_absence_authorisation_audit.html" xlink:title="temporary_absence_authorisation_audit" target="_top">
<polygon fill="#ffffff" stroke="transparent" points="311,-186.2 311,-313.2 620,-313.2 620,-186.2 311,-186.2"/>
<polygon fill="#f5f5f5" stroke="transparent" points="311.5,-289.7 311.5,-312.7 620.5,-312.7 620.5,-289.7 311.5,-289.7"/>
<polygon fill="none" stroke="#000000" points="311.5,-289.7 311.5,-312.7 620.5,-312.7 620.5,-289.7 311.5,-289.7"/>
<text text-anchor="start" x="316.5" y="-298.3" font-family="Helvetica,sans-Serif" font-weight="bold" font-size="11.00" fill="#000000">temporary_absence_authorisation_audit</text>
<text text-anchor="start" x="586.0219" y="-297.8" font-family="Helvetica,sans-Serif" font-size="11.00" fill="#000000">[table]</text>
<polygon fill="none" stroke="#000000" points="311.5,-267.7 311.5,-289.7 620.5,-289.7 620.5,-267.7 311.5,-267.7"/>
<image xlink:href="../../images/primaryKeys.png" width="11px" height="12px" preserveAspectRatio="xMinYMin meet" x="316.5" y="-284.7"/>
<text text-anchor="start" x="340.5" y="-274.8" font-family="Helvetica,sans-Serif" font-size="11.00" fill="#000000">rev_id</text>
<polygon fill="none" stroke="#000000" points="311.5,-245.7 311.5,-267.7 620.5,-267.7 620.5,-245.7 311.5,-245.7"/>
<image xlink:href="../../images/primaryKeys.png" width="11px" height="12px" preserveAspectRatio="xMinYMin meet" x="316.5" y="-262.7"/>
<text text-anchor="start" x="340.5" y="-252.8" font-family="Helvetica,sans-Serif" font-size="11.00" fill="#000000">id</text>
<polygon fill="none" stroke="#000000" points="311.5,-223.7 311.5,-245.7 620.5,-245.7 620.5,-223.7 311.5,-223.7"/>
<image xlink:href="../../images/foreignKeys.png" width="11px" height="12px" preserveAspectRatio="xMinYMin meet" x="316.5" y="-240.7"/>
<text text-anchor="start" x="340.5" y="-230.8" font-family="Helvetica,sans-Serif" font-size="11.00" fill="#000000">person_identifier</text>
<polygon fill="none" stroke="#000000" points="311.5,-204.7 311.5,-223.7 620.5,-223.7 620.5,-204.7 311.5,-204.7"/>
<text text-anchor="start" x="314.5" y="-210.8" font-family="Helvetica,sans-Serif" font-size="11.00" fill="#000000">...</text>
<polygon fill="#ffffff" stroke="transparent" points="311.5,-185.7 311.5,-204.7 464.5,-204.7 464.5,-185.7 311.5,-185.7"/>
<polygon fill="none" stroke="#000000" points="311.5,-185.7 311.5,-204.7 464.5,-204.7 464.5,-185.7 311.5,-185.7"/>
<text text-anchor="start" x="314.5" y="-191.8" font-family="Helvetica,sans-Serif" font-size="11.00" fill="#000000">&lt; 2</text>
<polygon fill="#ffffff" stroke="transparent" points="464.5,-185.7 464.5,-204.7 542.5,-204.7 542.5,-185.7 464.5,-185.7"/>
<polygon fill="none" stroke="#000000" points="464.5,-185.7 464.5,-204.7 542.5,-204.7 542.5,-185.7 464.5,-185.7"/>
<text text-anchor="start" x="533.3862" y="-191.8" font-family="Helvetica,sans-Serif" font-size="11.00" fill="#000000"> &#160;</text>
<polygon fill="#ffffff" stroke="transparent" points="542.5,-185.7 542.5,-204.7 620.5,-204.7 620.5,-185.7 542.5,-185.7"/>
<polygon fill="none" stroke="#000000" points="542.5,-185.7 542.5,-204.7 620.5,-204.7 620.5,-185.7 542.5,-185.7"/>
<text text-anchor="start" x="611.3862" y="-191.8" font-family="Helvetica,sans-Serif" font-size="11.00" fill="#000000"> &#160;</text>
</a>
</g>
</g>
<!-- temporary_absence_authorisation_audit&#45;&gt;audit_revision -->
<g id="edge3" class="edge">
<title>temporary_absence_authorisation_audit:w&#45;&gt;audit_revision:e</title>
<path fill="none" stroke="#000000" d="M297.4679,-282.782C273.1648,-300.9656 302.0238,-373.7 260,-373.7"/>
<polygon fill="#000000" stroke="#000000" points="303.8184,-280.9347 312.5056,-282.1567 307.6592,-279.8173 311.5,-278.7 311.5,-278.7 311.5,-278.7 307.6592,-279.8173 310.4944,-275.2433 303.8184,-280.9347 303.8184,-280.9347"/>
<ellipse fill="none" stroke="#000000" cx="300.7458" cy="-281.8285" rx="3.2" ry="3.2"/>
</g>
<!-- person_summary -->
<g id="node4" class="node">
<title>person_summary</title>
<g id="a_node4"><a xlink:href="../../tables/person_summary.html" xlink:title="person_summary" target="_top">
<polygon fill="#ffffff" stroke="transparent" points="58,-119.2 58,-180.2 212,-180.2 212,-119.2 58,-119.2"/>
<polygon fill="#f5f5f5" stroke="transparent" points="58,-156.7 58,-179.7 212,-179.7 212,-156.7 58,-156.7"/>
<polygon fill="none" stroke="#000000" points="58,-156.7 58,-179.7 212,-179.7 212,-156.7 58,-156.7"/>
<text text-anchor="start" x="63" y="-165.3" font-family="Helvetica,sans-Serif" font-weight="bold" font-size="11.00" fill="#000000">person_summary</text>
<text text-anchor="start" x="177.5219" y="-164.8" font-family="Helvetica,sans-Serif" font-size="11.00" fill="#000000">[table]</text>
<polygon fill="none" stroke="#000000" points="58,-137.7 58,-156.7 212,-156.7 212,-137.7 58,-137.7"/>
<text text-anchor="start" x="61" y="-143.8" font-family="Helvetica,sans-Serif" font-size="11.00" fill="#000000">...</text>
<polygon fill="#ffffff" stroke="transparent" points="58,-118.7 58,-137.7 124,-137.7 124,-118.7 58,-118.7"/>
<polygon fill="none" stroke="#000000" points="58,-118.7 58,-137.7 124,-137.7 124,-118.7 58,-118.7"/>
<text text-anchor="start" x="61" y="-124.8" font-family="Helvetica,sans-Serif" font-size="11.00" fill="#000000"> &#160;</text>
<polygon fill="#ffffff" stroke="transparent" points="124,-118.7 124,-137.7 163,-137.7 163,-118.7 124,-118.7"/>
<polygon fill="none" stroke="#000000" points="124,-118.7 124,-137.7 163,-137.7 163,-118.7 124,-118.7"/>
<text text-anchor="start" x="153.8862" y="-124.8" font-family="Helvetica,sans-Serif" font-size="11.00" fill="#000000"> &#160;</text>
<polygon fill="#ffffff" stroke="transparent" points="163,-118.7 163,-137.7 212,-137.7 212,-118.7 163,-118.7"/>
<polygon fill="none" stroke="#000000" points="163,-118.7 163,-137.7 212,-137.7 212,-118.7 163,-118.7"/>
<text text-anchor="start" x="193.4053" y="-124.8" font-family="Helvetica,sans-Serif" font-size="11.00" fill="#000000">6 &gt;</text>
</a>
</g>
</g>
<!-- temporary_absence_authorisation_audit&#45;&gt;person_summary -->
<g id="edge2" class="edge">
<title>temporary_absence_authorisation_audit:w&#45;&gt;person_summary:e</title>
<path fill="none" stroke="#000000" stroke-dasharray="5,2" d="M297.0838,-232.6115C255.2195,-219.2853 265.6169,-146.7 212,-146.7"/>
<polygon fill="#000000" stroke="#000000" points="303.5827,-233.553 310.9838,-238.2628 307.5413,-234.1265 311.5,-234.7 311.5,-234.7 311.5,-234.7 307.5413,-234.1265 312.0162,-231.1372 303.5827,-233.553 303.5827,-233.553"/>
<ellipse fill="none" stroke="#000000" cx="300.4157" cy="-233.0941" rx="3.2" ry="3.2"/>
</g>
<!-- temporary_absence_movement_audit -->
<g id="node5" class="node">
<title>temporary_absence_movement_audit</title>
<g id="a_node5"><a xlink:href="../../tables/temporary_absence_movement_audit.html" xlink:title="temporary_absence_movement_audit" target="_top">
<polygon fill="#ffffff" stroke="transparent" points="320.5,-38.2 320.5,-165.2 610.5,-165.2 610.5,-38.2 320.5,-38.2"/>
<polygon fill="#f5f5f5" stroke="transparent" points="320.5,-141.7 320.5,-164.7 610.5,-164.7 610.5,-141.7 320.5,-141.7"/>
<polygon fill="none" stroke="#000000" points="320.5,-141.7 320.5,-164.7 610.5,-164.7 610.5,-141.7 320.5,-141.7"/>
<text text-anchor="start" x="325.5" y="-150.3" font-family="Helvetica,sans-Serif" font-weight="bold" font-size="11.00" fill="#000000">temporary_absence_movement_audit</text>
<text text-anchor="start" x="576.0219" y="-149.8" font-family="Helvetica,sans-Serif" font-size="11.00" fill="#000000">[table]</text>
<polygon fill="none" stroke="#000000" points="320.5,-119.7 320.5,-141.7 610.5,-141.7 610.5,-119.7 320.5,-119.7"/>
<image xlink:href="../../images/primaryKeys.png" width="11px" height="12px" preserveAspectRatio="xMinYMin meet" x="325.5" y="-136.7"/>
<text text-anchor="start" x="349.5" y="-126.8" font-family="Helvetica,sans-Serif" font-size="11.00" fill="#000000">rev_id</text>
<polygon fill="none" stroke="#000000" points="320.5,-97.7 320.5,-119.7 610.5,-119.7 610.5,-97.7 320.5,-97.7"/>
<image xlink:href="../../images/primaryKeys.png" width="11px" height="12px" preserveAspectRatio="xMinYMin meet" x="325.5" y="-114.7"/>
<text text-anchor="start" x="349.5" y="-104.8" font-family="Helvetica,sans-Serif" font-size="11.00" fill="#000000">id</text>
<polygon fill="none" stroke="#000000" points="320.5,-75.7 320.5,-97.7 610.5,-97.7 610.5,-75.7 320.5,-75.7"/>
<image xlink:href="../../images/foreignKeys.png" width="11px" height="12px" preserveAspectRatio="xMinYMin meet" x="325.5" y="-92.7"/>
<text text-anchor="start" x="349.5" y="-82.8" font-family="Helvetica,sans-Serif" font-size="11.00" fill="#000000">person_identifier</text>
<polygon fill="none" stroke="#000000" points="320.5,-56.7 320.5,-75.7 610.5,-75.7 610.5,-56.7 320.5,-56.7"/>
<text text-anchor="start" x="323.5" y="-62.8" font-family="Helvetica,sans-Serif" font-size="11.00" fill="#000000">...</text>
<polygon fill="#ffffff" stroke="transparent" points="320.5,-37.7 320.5,-56.7 463.5,-56.7 463.5,-37.7 320.5,-37.7"/>
<polygon fill="none" stroke="#000000" points="320.5,-37.7 320.5,-56.7 463.5,-56.7 463.5,-37.7 320.5,-37.7"/>
<text text-anchor="start" x="323.5" y="-43.8" font-family="Helvetica,sans-Serif" font-size="11.00" fill="#000000">&lt; 2</text>
<polygon fill="#ffffff" stroke="transparent" points="463.5,-37.7 463.5,-56.7 536.5,-56.7 536.5,-37.7 463.5,-37.7"/>
<polygon fill="none" stroke="#000000" points="463.5,-37.7 463.5,-56.7 536.5,-56.7 536.5,-37.7 463.5,-37.7"/>
<text text-anchor="start" x="527.3862" y="-43.8" font-family="Helvetica,sans-Serif" font-size="11.00" fill="#000000"> &#160;</text>
<polygon fill="#ffffff" stroke="transparent" points="536.5,-37.7 536.5,-56.7 610.5,-56.7 610.5,-37.7 536.5,-37.7"/>
<polygon fill="none" stroke="#000000" points="536.5,-37.7 536.5,-56.7 610.5,-56.7 610.5,-37.7 536.5,-37.7"/>
<text text-anchor="start" x="601.3862" y="-43.8" font-family="Helvetica,sans-Serif" font-size="11.00" fill="#000000"> &#160;</text>
</a>
</g>
</g>
<!-- temporary_absence_movement_audit&#45;&gt;audit_revision -->
<g id="edge5" class="edge">
<title>temporary_absence_movement_audit:w&#45;&gt;audit_revision:e</title>
<path fill="none" stroke="#000000" d="M306.0885,-132.3815C224.3807,-153.8511 365.8625,-373.7 260,-373.7"/>
<polygon fill="#000000" stroke="#000000" points="312.5539,-131.6272 320.9172,-134.2757 316.527,-131.1636 320.5,-130.7 320.5,-130.7 320.5,-130.7 316.527,-131.1636 320.0828,-127.1243 312.5539,-131.6272 312.5539,-131.6272"/>
<ellipse fill="none" stroke="#000000" cx="309.3755" cy="-131.9981" rx="3.2" ry="3.2"/>
</g>
<!-- temporary_absence_movement_audit&#45;&gt;person_summary -->
<g id="edge4" class="edge">
<title>temporary_absence_movement_audit:w&#45;&gt;person_summary:e</title>
<path fill="none" stroke="#000000" stroke-dasharray="5,2" d="M306.1405,-88.2434C265.2023,-97.6348 261.8307,-146.7 212,-146.7"/>
<polygon fill="#000000" stroke="#000000" points="312.5458,-87.555 320.8848,-90.2794 316.5229,-87.1275 320.5,-86.7 320.5,-86.7 320.5,-86.7 316.5229,-87.1275 320.1152,-83.1206 312.5458,-87.555 312.5458,-87.555"/>
<ellipse fill="none" stroke="#000000" cx="309.3641" cy="-87.897" rx="3.2" ry="3.2"/>
</g>
<!-- temporary_absence_occurrence_audit -->
<g id="node6" class="node">
<title>temporary_absence_occurrence_audit</title>
<g id="a_node6"><a xlink:href="../../tables/temporary_absence_occurrence_audit.html" xlink:title="temporary_absence_occurrence_audit" target="_top">
<polygon fill="#ffffff" stroke="transparent" points="319,-334.2 319,-439.2 612,-439.2 612,-334.2 319,-334.2"/>
<polygon fill="#f5f5f5" stroke="transparent" points="319.5,-415.7 319.5,-438.7 612.5,-438.7 612.5,-415.7 319.5,-415.7"/>
<polygon fill="none" stroke="#000000" points="319.5,-415.7 319.5,-438.7 612.5,-438.7 612.5,-415.7 319.5,-415.7"/>
<text text-anchor="start" x="324.5" y="-424.3" font-family="Helvetica,sans-Serif" font-weight="bold" font-size="11.00" fill="#000000">temporary_absence_occurrence_audit</text>
<text text-anchor="start" x="578.0219" y="-423.8" font-family="Helvetica,sans-Serif" font-size="11.00" fill="#000000">[table]</text>
<polygon fill="none" stroke="#000000" points="319.5,-393.7 319.5,-415.7 612.5,-415.7 612.5,-393.7 319.5,-393.7"/>
<image xlink:href="../../images/primaryKeys.png" width="11px" height="12px" preserveAspectRatio="xMinYMin meet" x="324.5" y="-410.7"/>
<text text-anchor="start" x="348.5" y="-400.8" font-family="Helvetica,sans-Serif" font-size="11.00" fill="#000000">rev_id</text>
<polygon fill="none" stroke="#000000" points="319.5,-371.7 319.5,-393.7 612.5,-393.7 612.5,-371.7 319.5,-371.7"/>
<image xlink:href="../../images/primaryKeys.png" width="11px" height="12px" preserveAspectRatio="xMinYMin meet" x="324.5" y="-388.7"/>
<text text-anchor="start" x="348.5" y="-378.8" font-family="Helvetica,sans-Serif" font-size="11.00" fill="#000000">id</text>
<polygon fill="none" stroke="#000000" points="319.5,-352.7 319.5,-371.7 612.5,-371.7 612.5,-352.7 319.5,-352.7"/>
<text text-anchor="start" x="322.5" y="-358.8" font-family="Helvetica,sans-Serif" font-size="11.00" fill="#000000">...</text>
<polygon fill="#ffffff" stroke="transparent" points="319.5,-333.7 319.5,-352.7 464.5,-352.7 464.5,-333.7 319.5,-333.7"/>
<polygon fill="none" stroke="#000000" points="319.5,-333.7 319.5,-352.7 464.5,-352.7 464.5,-333.7 319.5,-333.7"/>
<text text-anchor="start" x="322.5" y="-339.8" font-family="Helvetica,sans-Serif" font-size="11.00" fill="#000000">&lt; 1</text>
<polygon fill="#ffffff" stroke="transparent" points="464.5,-333.7 464.5,-352.7 538.5,-352.7 538.5,-333.7 464.5,-333.7"/>
<polygon fill="none" stroke="#000000" points="464.5,-333.7 464.5,-352.7 538.5,-352.7 538.5,-333.7 464.5,-333.7"/>
<text text-anchor="start" x="529.3862" y="-339.8" font-family="Helvetica,sans-Serif" font-size="11.00" fill="#000000"> &#160;</text>
<polygon fill="#ffffff" stroke="transparent" points="538.5,-333.7 538.5,-352.7 612.5,-352.7 612.5,-333.7 538.5,-333.7"/>
<polygon fill="none" stroke="#000000" points="538.5,-333.7 538.5,-352.7 612.5,-352.7 612.5,-333.7 538.5,-333.7"/>
<text text-anchor="start" x="603.3862" y="-339.8" font-family="Helvetica,sans-Serif" font-size="11.00" fill="#000000"> &#160;</text>
</a>
</g>
</g>
<!-- temporary_absence_occurrence_audit&#45;&gt;audit_revision -->
<g id="edge6" class="edge">
<title>temporary_absence_occurrence_audit:w&#45;&gt;audit_revision:e</title>
<path fill="none" stroke="#000000" d="M305.01,-401.6143C288.5923,-393.7732 283.9945,-373.7 260,-373.7"/>
<polygon fill="#000000" stroke="#000000" points="311.6755,-403.0337 318.7502,-408.221 315.5877,-403.8668 319.5,-404.7 319.5,-404.7 319.5,-404.7 315.5877,-403.8668 320.2498,-401.179 311.6755,-403.0337 311.6755,-403.0337"/>
<ellipse fill="none" stroke="#000000" cx="308.5456" cy="-402.3671" rx="3.2" ry="3.2"/>
</g>
</g>
</svg>
