<?xml version="1.0" encoding="UTF-8" standalone="no"?>
<!DOCTYPE svg PUBLIC "-//W3C//DTD SVG 1.1//EN"
 "http://www.w3.org/Graphics/SVG/1.1/DTD/svg11.dtd">
<!-- Generated by graphviz version 2.40.1 (20161225.0304)
 -->
<!-- Title: oneDegreeRelationshipsDiagram Pages: 1 -->
<svg width="636pt" height="577pt"
 viewBox="0.00 0.00 636.00 577.20" xmlns="http://www.w3.org/2000/svg" xmlns:xlink="http://www.w3.org/1999/xlink">
<g id="graph0" class="graph" transform="scale(1 1) rotate(0) translate(4 573.2)">
<title>oneDegreeRelationshipsDiagram</title>
<polygon fill="#ffffff" stroke="transparent" points="-4,4 -4,-573.2 632,-573.2 632,4 -4,4"/>
<text text-anchor="middle" x="72.4936" y="-7.3" font-family="Helvetica,sans-Serif" font-size="11.00" fill="#000000">Generated by SchemaSpy</text>
<!-- hmpps_domain_event_audit -->
<g id="node1" class="node">
<title>hmpps_domain_event_audit</title>
<g id="a_node1"><a xlink:href="../../tables/hmpps_domain_event_audit.html" xlink:title="hmpps_domain_event_audit" target="_top">
<polygon fill="#ffffff" stroke="transparent" points="353,-460.2 353,-565.2 578,-565.2 578,-460.2 353,-460.2"/>
<polygon fill="#f5f5f5" stroke="transparent" points="353.5,-541.7 353.5,-564.7 578.5,-564.7 578.5,-541.7 353.5,-541.7"/>
<polygon fill="none" stroke="#000000" points="353.5,-541.7 353.5,-564.7 578.5,-564.7 578.5,-541.7 353.5,-541.7"/>
<text text-anchor="start" x="358.5" y="-550.3" font-family="Helvetica,sans-Serif" font-weight="bold" font-size="11.00" fill="#000000">hmpps_domain_event_audit</text>
<text text-anchor="start" x="544.0219" y="-549.8" font-family="Helvetica,sans-Serif" font-size="11.00" fill="#000000">[table]</text>
<polygon fill="none" stroke="#000000" points="353.5,-519.7 353.5,-541.7 578.5,-541.7 578.5,-519.7 353.5,-519.7"/>
<image xlink:href="../../images/primaryKeys.png" width="11px" height="12px" preserveAspectRatio="xMinYMin meet" x="358.5" y="-536.7"/>
<text text-anchor="start" x="382.5" y="-526.8" font-family="Helvetica,sans-Serif" font-size="11.00" fill="#000000">rev_id</text>
<polygon fill="none" stroke="#000000" points="353.5,-497.7 353.5,-519.7 578.5,-519.7 578.5,-497.7 353.5,-497.7"/>
<image xlink:href="../../images/primaryKeys.png" width="11px" height="12px" preserveAspectRatio="xMinYMin meet" x="358.5" y="-514.7"/>
<text text-anchor="start" x="382.5" y="-504.8" font-family="Helvetica,sans-Serif" font-size="11.00" fill="#000000">id</text>
<polygon fill="none" stroke="#000000" points="353.5,-478.7 353.5,-497.7 578.5,-497.7 578.5,-478.7 353.5,-478.7"/>
<text text-anchor="start" x="356.5" y="-484.8" font-family="Helvetica,sans-Serif" font-size="11.00" fill="#000000">...</text>
<polygon fill="#ffffff" stroke="transparent" points="353.5,-459.7 353.5,-478.7 464.5,-478.7 464.5,-459.7 353.5,-459.7"/>
<polygon fill="none" stroke="#000000" points="353.5,-459.7 353.5,-478.7 464.5,-478.7 464.5,-459.7 353.5,-459.7"/>
<text text-anchor="start" x="356.5" y="-465.8" font-family="Helvetica,sans-Serif" font-size="11.00" fill="#000000">&lt; 1</text>
<polygon fill="#ffffff" stroke="transparent" points="464.5,-459.7 464.5,-478.7 521.5,-478.7 521.5,-459.7 464.5,-459.7"/>
<polygon fill="none" stroke="#000000" points="464.5,-459.7 464.5,-478.7 521.5,-478.7 521.5,-459.7 464.5,-459.7"/>
<text text-anchor="start" x="512.3862" y="-465.8" font-family="Helvetica,sans-Serif" font-size="11.00" fill="#000000"> &#160;</text>
<polygon fill="#ffffff" stroke="transparent" points="521.5,-459.7 521.5,-478.7 578.5,-478.7 578.5,-459.7 521.5,-459.7"/>
<polygon fill="none" stroke="#000000" points="521.5,-459.7 521.5,-478.7 578.5,-478.7 578.5,-459.7 521.5,-459.7"/>
<text text-anchor="start" x="569.3862" y="-465.8" font-family="Helvetica,sans-Serif" font-size="11.00" fill="#000000"> &#160;</text>
</a>
</g>
</g>
<!-- audit_revision -->
<g id="node2" class="node">
<title>audit_revision</title>
<g id="a_node2"><a xlink:href="../../tables/audit_revision.html" xlink:title="audit_revision" target="_top">
<polygon fill="#ffffff" stroke="transparent" points="8,-188.7 8,-366.7 262,-366.7 262,-188.7 8,-188.7"/>
<polygon fill="#f5f5f5" stroke="transparent" points="10,-341.7 10,-364.7 260,-364.7 260,-341.7 10,-341.7"/>
<polygon fill="none" stroke="#000000" points="10,-341.7 10,-364.7 260,-364.7 260,-341.7 10,-341.7"/>
<text text-anchor="start" x="15" y="-350.3" font-family="Helvetica,sans-Serif" font-weight="bold" font-size="11.00" fill="#000000">audit_revision</text>
<text text-anchor="start" x="225.0437" y="-349.8" font-family="Helvetica,sans-Serif" font-size="11.00" fill="#000000">[table]</text>
<polygon fill="none" stroke="#000000" points="10,-319.7 10,-341.7 144,-341.7 144,-319.7 10,-319.7"/>
<image xlink:href="../../images/primaryKeys.png" width="11px" height="12px" preserveAspectRatio="xMinYMin meet" x="15" y="-336.7"/>
<text text-anchor="start" x="30" y="-326.8" font-family="Helvetica,sans-Serif" font-size="11.00" fill="#000000">id</text>
<polygon fill="none" stroke="#000000" points="144,-319.7 144,-341.7 260,-341.7 260,-319.7 144,-319.7"/>
<text text-anchor="start" x="147" y="-327.4" font-family="Helvetica,sans-Serif" font-size="11.00" fill="#000000">bigserial[19]</text>
<polygon fill="none" stroke="#000000" points="10,-297.7 10,-319.7 144,-319.7 144,-297.7 10,-297.7"/>
<text text-anchor="start" x="30" y="-304.8" font-family="Helvetica,sans-Serif" font-size="11.00" fill="#000000">timestamp</text>
<polygon fill="none" stroke="#000000" points="144,-297.7 144,-319.7 260,-319.7 260,-297.7 144,-297.7"/>
<text text-anchor="start" x="147" y="-305.4" font-family="Helvetica,sans-Serif" font-size="11.00" fill="#000000">timestamp[29,6]</text>
<polygon fill="none" stroke="#000000" points="10,-275.7 10,-297.7 144,-297.7 144,-275.7 10,-275.7"/>
<text text-anchor="start" x="30" y="-282.8" font-family="Helvetica,sans-Serif" font-size="11.00" fill="#000000">username</text>
<polygon fill="none" stroke="#000000" points="144,-275.7 144,-297.7 260,-297.7 260,-275.7 144,-275.7"/>
<text text-anchor="start" x="147" y="-283.4" font-family="Helvetica,sans-Serif" font-size="11.00" fill="#000000">varchar[64]</text>
<polygon fill="none" stroke="#000000" points="10,-253.7 10,-275.7 144,-275.7 144,-253.7 10,-253.7"/>
<text text-anchor="start" x="30" y="-260.8" font-family="Helvetica,sans-Serif" font-size="11.00" fill="#000000">source</text>
<polygon fill="none" stroke="#000000" points="144,-253.7 144,-275.7 260,-275.7 260,-253.7 144,-253.7"/>
<text text-anchor="start" x="147" y="-261.4" font-family="Helvetica,sans-Serif" font-size="11.00" fill="#000000">varchar[6]</text>
<polygon fill="none" stroke="#000000" points="10,-231.7 10,-253.7 144,-253.7 144,-231.7 10,-231.7"/>
<text text-anchor="start" x="30" y="-238.8" font-family="Helvetica,sans-Serif" font-size="11.00" fill="#000000">affected_entities</text>
<polygon fill="none" stroke="#000000" points="144,-231.7 144,-253.7 260,-253.7 260,-231.7 144,-231.7"/>
<text text-anchor="start" x="146.9769" y="-239.4" font-family="Helvetica,sans-Serif" font-size="11.00" fill="#000000">_varchar[2147483647]</text>
<polygon fill="none" stroke="#000000" points="10,-209.7 10,-231.7 144,-231.7 144,-209.7 10,-209.7"/>
<text text-anchor="start" x="30" y="-216.8" font-family="Helvetica,sans-Serif" font-size="11.00" fill="#000000">reason</text>
<polygon fill="none" stroke="#000000" points="144,-209.7 144,-231.7 260,-231.7 260,-209.7 144,-209.7"/>
<text text-anchor="start" x="147" y="-217.4" font-family="Helvetica,sans-Serif" font-size="11.00" fill="#000000">text[2147483647]</text>
<polygon fill="#ffffff" stroke="transparent" points="10,-190.7 10,-209.7 81,-209.7 81,-190.7 10,-190.7"/>
<polygon fill="none" stroke="#000000" points="10,-190.7 10,-209.7 81,-209.7 81,-190.7 10,-190.7"/>
<text text-anchor="start" x="13" y="-196.8" font-family="Helvetica,sans-Serif" font-size="11.00" fill="#000000">&lt; 0</text>
<polygon fill="#ffffff" stroke="transparent" points="81,-190.7 81,-209.7 144,-209.7 144,-190.7 81,-190.7"/>
<polygon fill="none" stroke="#000000" points="81,-190.7 81,-209.7 144,-209.7 144,-190.7 81,-190.7"/>
<text text-anchor="start" x="134.8862" y="-196.8" font-family="Helvetica,sans-Serif" font-size="11.00" fill="#000000"> &#160;</text>
<polygon fill="#ffffff" stroke="transparent" points="144,-190.7 144,-209.7 260,-209.7 260,-190.7 144,-190.7"/>
<polygon fill="none" stroke="#000000" points="144,-190.7 144,-209.7 260,-209.7 260,-190.7 144,-190.7"/>
<text text-anchor="start" x="241.4053" y="-196.8" font-family="Helvetica,sans-Serif" font-size="11.00" fill="#000000">4 &gt;</text>
<polygon fill="none" stroke="#000000" stroke-width="2" points="9,-189.7 9,-365.7 261,-365.7 261,-189.7 9,-189.7"/>
</a>
</g>
</g>
<!-- hmpps_domain_event_audit&#45;&gt;audit_revision -->
<g id="edge1" class="edge">
<title>hmpps_domain_event_audit:w&#45;&gt;audit_revision:e</title>
<path fill="none" stroke="#000000" d="M339.2034,-528.5444C313.3428,-519.4034 319.0721,-482.7927 303,-449.7 278.4322,-399.1145 316.2358,-330.7 260,-330.7"/>
<polygon fill="#000000" stroke="#000000" points="345.5894,-529.5072 352.9632,-534.2598 349.5447,-530.1036 353.5,-530.7 353.5,-530.7 353.5,-530.7 349.5447,-530.1036 354.0368,-527.1402 345.5894,-529.5072 345.5894,-529.5072"/>
<ellipse fill="none" stroke="#000000" cx="342.4252" cy="-529.0301" rx="3.2" ry="3.2"/>
</g>
<!-- temporary_absence_authorisation_audit -->
<g id="node3" class="node">
<title>temporary_absence_authorisation_audit</title>
<g id="a_node3"><a xlink:href="../../tables/temporary_absence_authorisation_audit.html" xlink:title="temporary_absence_authorisation_audit" target="_top">
<polygon fill="#ffffff" stroke="transparent" points="311,-312.2 311,-439.2 620,-439.2 620,-312.2 311,-312.2"/>
<polygon fill="#f5f5f5" stroke="transparent" points="311.5,-415.7 311.5,-438.7 620.5,-438.7 620.5,-415.7 311.5,-415.7"/>
<polygon fill="none" stroke="#000000" points="311.5,-415.7 311.5,-438.7 620.5,-438.7 620.5,-415.7 311.5,-415.7"/>
<text text-anchor="start" x="316.5" y="-424.3" font-family="Helvetica,sans-Serif" font-weight="bold" font-size="11.00" fill="#000000">temporary_absence_authorisation_audit</text>
<text text-anchor="start" x="586.0219" y="-423.8" font-family="Helvetica,sans-Serif" font-size="11.00" fill="#000000">[table]</text>
<polygon fill="none" stroke="#000000" points="311.5,-393.7 311.5,-415.7 620.5,-415.7 620.5,-393.7 311.5,-393.7"/>
<image xlink:href="../../images/primaryKeys.png" width="11px" height="12px" preserveAspectRatio="xMinYMin meet" x="316.5" y="-410.7"/>
<text text-anchor="start" x="340.5" y="-400.8" font-family="Helvetica,sans-Serif" font-size="11.00" fill="#000000">rev_id</text>
<polygon fill="none" stroke="#000000" points="311.5,-371.7 311.5,-393.7 620.5,-393.7 620.5,-371.7 311.5,-371.7"/>
<image xlink:href="../../images/primaryKeys.png" width="11px" height="12px" preserveAspectRatio="xMinYMin meet" x="316.5" y="-388.7"/>
<text text-anchor="start" x="340.5" y="-378.8" font-family="Helvetica,sans-Serif" font-size="11.00" fill="#000000">id</text>
<polygon fill="none" stroke="#000000" points="311.5,-349.7 311.5,-371.7 620.5,-371.7 620.5,-349.7 311.5,-349.7"/>
<image xlink:href="../../images/foreignKeys.png" width="11px" height="12px" preserveAspectRatio="xMinYMin meet" x="316.5" y="-366.7"/>
<text text-anchor="start" x="340.5" y="-356.8" font-family="Helvetica,sans-Serif" font-size="11.00" fill="#000000">person_identifier</text>
<polygon fill="none" stroke="#000000" points="311.5,-330.7 311.5,-349.7 620.5,-349.7 620.5,-330.7 311.5,-330.7"/>
<text text-anchor="start" x="314.5" y="-336.8" font-family="Helvetica,sans-Serif" font-size="11.00" fill="#000000">...</text>
<polygon fill="#ffffff" stroke="transparent" points="311.5,-311.7 311.5,-330.7 464.5,-330.7 464.5,-311.7 311.5,-311.7"/>
<polygon fill="none" stroke="#000000" points="311.5,-311.7 311.5,-330.7 464.5,-330.7 464.5,-311.7 311.5,-311.7"/>
<text text-anchor="start" x="314.5" y="-317.8" font-family="Helvetica,sans-Serif" font-size="11.00" fill="#000000">&lt; 1</text>
<polygon fill="#ffffff" stroke="transparent" points="464.5,-311.7 464.5,-330.7 542.5,-330.7 542.5,-311.7 464.5,-311.7"/>
<polygon fill="none" stroke="#000000" points="464.5,-311.7 464.5,-330.7 542.5,-330.7 542.5,-311.7 464.5,-311.7"/>
<text text-anchor="start" x="533.3862" y="-317.8" font-family="Helvetica,sans-Serif" font-size="11.00" fill="#000000"> &#160;</text>
<polygon fill="#ffffff" stroke="transparent" points="542.5,-311.7 542.5,-330.7 620.5,-330.7 620.5,-311.7 542.5,-311.7"/>
<polygon fill="none" stroke="#000000" points="542.5,-311.7 542.5,-330.7 620.5,-330.7 620.5,-311.7 542.5,-311.7"/>
<text text-anchor="start" x="611.3862" y="-317.8" font-family="Helvetica,sans-Serif" font-size="11.00" fill="#000000"> &#160;</text>
</a>
</g>
</g>
<!-- temporary_absence_authorisation_audit&#45;&gt;audit_revision -->
<g id="edge2" class="edge">
<title>temporary_absence_authorisation_audit:w&#45;&gt;audit_revision:e</title>
<path fill="none" stroke="#000000" d="M297.7488,-400.2926C278.4187,-384.3617 294.1218,-330.7 260,-330.7"/>
<polygon fill="#000000" stroke="#000000" points="303.8817,-402.2582 310.4012,-408.1282 307.6909,-403.4791 311.5,-404.7 311.5,-404.7 311.5,-404.7 307.6909,-403.4791 312.5988,-401.2718 303.8817,-402.2582 303.8817,-402.2582"/>
<ellipse fill="none" stroke="#000000" cx="300.8344" cy="-401.2815" rx="3.2" ry="3.2"/>
</g>
<!-- temporary_absence_movement_audit -->
<g id="node4" class="node">
<title>temporary_absence_movement_audit</title>
<g id="a_node4"><a xlink:href="../../tables/temporary_absence_movement_audit.html" xlink:title="temporary_absence_movement_audit" target="_top">
<polygon fill="#ffffff" stroke="transparent" points="320.5,-164.2 320.5,-291.2 610.5,-291.2 610.5,-164.2 320.5,-164.2"/>
<polygon fill="#f5f5f5" stroke="transparent" points="320.5,-267.7 320.5,-290.7 610.5,-290.7 610.5,-267.7 320.5,-267.7"/>
<polygon fill="none" stroke="#000000" points="320.5,-267.7 320.5,-290.7 610.5,-290.7 610.5,-267.7 320.5,-267.7"/>
<text text-anchor="start" x="325.5" y="-276.3" font-family="Helvetica,sans-Serif" font-weight="bold" font-size="11.00" fill="#000000">temporary_absence_movement_audit</text>
<text text-anchor="start" x="576.0219" y="-275.8" font-family="Helvetica,sans-Serif" font-size="11.00" fill="#000000">[table]</text>
<polygon fill="none" stroke="#000000" points="320.5,-245.7 320.5,-267.7 610.5,-267.7 610.5,-245.7 320.5,-245.7"/>
<image xlink:href="../../images/primaryKeys.png" width="11px" height="12px" preserveAspectRatio="xMinYMin meet" x="325.5" y="-262.7"/>
<text text-anchor="start" x="349.5" y="-252.8" font-family="Helvetica,sans-Serif" font-size="11.00" fill="#000000">rev_id</text>
<polygon fill="none" stroke="#000000" points="320.5,-223.7 320.5,-245.7 610.5,-245.7 610.5,-223.7 320.5,-223.7"/>
<image xlink:href="../../images/primaryKeys.png" width="11px" height="12px" preserveAspectRatio="xMinYMin meet" x="325.5" y="-240.7"/>
<text text-anchor="start" x="349.5" y="-230.8" font-family="Helvetica,sans-Serif" font-size="11.00" fill="#000000">id</text>
<polygon fill="none" stroke="#000000" points="320.5,-201.7 320.5,-223.7 610.5,-223.7 610.5,-201.7 320.5,-201.7"/>
<image xlink:href="../../images/foreignKeys.png" width="11px" height="12px" preserveAspectRatio="xMinYMin meet" x="325.5" y="-218.7"/>
<text text-anchor="start" x="349.5" y="-208.8" font-family="Helvetica,sans-Serif" font-size="11.00" fill="#000000">person_identifier</text>
<polygon fill="none" stroke="#000000" points="320.5,-182.7 320.5,-201.7 610.5,-201.7 610.5,-182.7 320.5,-182.7"/>
<text text-anchor="start" x="323.5" y="-188.8" font-family="Helvetica,sans-Serif" font-size="11.00" fill="#000000">...</text>
<polygon fill="#ffffff" stroke="transparent" points="320.5,-163.7 320.5,-182.7 463.5,-182.7 463.5,-163.7 320.5,-163.7"/>
<polygon fill="none" stroke="#000000" points="320.5,-163.7 320.5,-182.7 463.5,-182.7 463.5,-163.7 320.5,-163.7"/>
<text text-anchor="start" x="323.5" y="-169.8" font-family="Helvetica,sans-Serif" font-size="11.00" fill="#000000">&lt; 1</text>
<polygon fill="#ffffff" stroke="transparent" points="463.5,-163.7 463.5,-182.7 536.5,-182.7 536.5,-163.7 463.5,-163.7"/>
<polygon fill="none" stroke="#000000" points="463.5,-163.7 463.5,-182.7 536.5,-182.7 536.5,-163.7 463.5,-163.7"/>
<text text-anchor="start" x="527.3862" y="-169.8" font-family="Helvetica,sans-Serif" font-size="11.00" fill="#000000"> &#160;</text>
<polygon fill="#ffffff" stroke="transparent" points="536.5,-163.7 536.5,-182.7 610.5,-182.7 610.5,-163.7 536.5,-163.7"/>
<polygon fill="none" stroke="#000000" points="536.5,-163.7 536.5,-182.7 610.5,-182.7 610.5,-163.7 536.5,-163.7"/>
<text text-anchor="start" x="601.3862" y="-169.8" font-family="Helvetica,sans-Serif" font-size="11.00" fill="#000000"> &#160;</text>
</a>
</g>
</g>
<!-- temporary_absence_movement_audit&#45;&gt;audit_revision -->
<g id="edge3" class="edge">
<title>temporary_absence_movement_audit:w&#45;&gt;audit_revision:e</title>
<path fill="none" stroke="#000000" d="M306.4877,-260.4714C283.4562,-275.5512 296.6736,-330.7 260,-330.7"/>
<polygon fill="#000000" stroke="#000000" points="312.7749,-258.7792 321.4357,-260.1763 316.6375,-257.7396 320.5,-256.7 320.5,-256.7 320.5,-256.7 316.6375,-257.7396 319.5643,-253.2237 312.7749,-258.7792 312.7749,-258.7792"/>
<ellipse fill="none" stroke="#000000" cx="309.6849" cy="-259.6109" rx="3.2" ry="3.2"/>
</g>
<!-- temporary_absence_occurrence_audit -->
<g id="node5" class="node">
<title>temporary_absence_occurrence_audit</title>
<g id="a_node5"><a xlink:href="../../tables/temporary_absence_occurrence_audit.html" xlink:title="temporary_absence_occurrence_audit" target="_top">
<polygon fill="#ffffff" stroke="transparent" points="319,-38.2 319,-143.2 612,-143.2 612,-38.2 319,-38.2"/>
<polygon fill="#f5f5f5" stroke="transparent" points="319.5,-119.7 319.5,-142.7 612.5,-142.7 612.5,-119.7 319.5,-119.7"/>
<polygon fill="none" stroke="#000000" points="319.5,-119.7 319.5,-142.7 612.5,-142.7 612.5,-119.7 319.5,-119.7"/>
<text text-anchor="start" x="324.5" y="-128.3" font-family="Helvetica,sans-Serif" font-weight="bold" font-size="11.00" fill="#000000">temporary_absence_occurrence_audit</text>
<text text-anchor="start" x="578.0219" y="-127.8" font-family="Helvetica,sans-Serif" font-size="11.00" fill="#000000">[table]</text>
<polygon fill="none" stroke="#000000" points="319.5,-97.7 319.5,-119.7 612.5,-119.7 612.5,-97.7 319.5,-97.7"/>
<image xlink:href="../../images/primaryKeys.png" width="11px" height="12px" preserveAspectRatio="xMinYMin meet" x="324.5" y="-114.7"/>
<text text-anchor="start" x="348.5" y="-104.8" font-family="Helvetica,sans-Serif" font-size="11.00" fill="#000000">rev_id</text>
<polygon fill="none" stroke="#000000" points="319.5,-75.7 319.5,-97.7 612.5,-97.7 612.5,-75.7 319.5,-75.7"/>
<image xlink:href="../../images/primaryKeys.png" width="11px" height="12px" preserveAspectRatio="xMinYMin meet" x="324.5" y="-92.7"/>
<text text-anchor="start" x="348.5" y="-82.8" font-family="Helvetica,sans-Serif" font-size="11.00" fill="#000000">id</text>
<polygon fill="none" stroke="#000000" points="319.5,-56.7 319.5,-75.7 612.5,-75.7 612.5,-56.7 319.5,-56.7"/>
<text text-anchor="start" x="322.5" y="-62.8" font-family="Helvetica,sans-Serif" font-size="11.00" fill="#000000">...</text>
<polygon fill="#ffffff" stroke="transparent" points="319.5,-37.7 319.5,-56.7 464.5,-56.7 464.5,-37.7 319.5,-37.7"/>
<polygon fill="none" stroke="#000000" points="319.5,-37.7 319.5,-56.7 464.5,-56.7 464.5,-37.7 319.5,-37.7"/>
<text text-anchor="start" x="322.5" y="-43.8" font-family="Helvetica,sans-Serif" font-size="11.00" fill="#000000">&lt; 1</text>
<polygon fill="#ffffff" stroke="transparent" points="464.5,-37.7 464.5,-56.7 538.5,-56.7 538.5,-37.7 464.5,-37.7"/>
<polygon fill="none" stroke="#000000" points="464.5,-37.7 464.5,-56.7 538.5,-56.7 538.5,-37.7 464.5,-37.7"/>
<text text-anchor="start" x="529.3862" y="-43.8" font-family="Helvetica,sans-Serif" font-size="11.00" fill="#000000"> &#160;</text>
<polygon fill="#ffffff" stroke="transparent" points="538.5,-37.7 538.5,-56.7 612.5,-56.7 612.5,-37.7 538.5,-37.7"/>
<polygon fill="none" stroke="#000000" points="538.5,-37.7 538.5,-56.7 612.5,-56.7 612.5,-37.7 538.5,-37.7"/>
<text text-anchor="start" x="603.3862" y="-43.8" font-family="Helvetica,sans-Serif" font-size="11.00" fill="#000000"> &#160;</text>
</a>
</g>
</g>
<!-- temporary_absence_occurrence_audit&#45;&gt;audit_revision -->
<g id="edge4" class="edge">
<title>temporary_absence_occurrence_audit:w&#45;&gt;audit_revision:e</title>
<path fill="none" stroke="#000000" d="M304.876,-110.6192C232.4497,-132.3173 356.5627,-330.7 260,-330.7"/>
<polygon fill="#000000" stroke="#000000" points="311.568,-109.741 319.9685,-112.2694 315.534,-109.2205 319.5,-108.7 319.5,-108.7 319.5,-108.7 315.534,-109.2205 319.0315,-105.1306 311.568,-109.741 311.568,-109.741"/>
<ellipse fill="none" stroke="#000000" cx="308.3952" cy="-110.1574" rx="3.2" ry="3.2"/>
</g>
</g>
</svg>
