<?xml version="1.0" encoding="UTF-8" standalone="no"?>
<!DOCTYPE svg PUBLIC "-//W3C//DTD SVG 1.1//EN"
 "http://www.w3.org/Graphics/SVG/1.1/DTD/svg11.dtd">
<!-- Generated by graphviz version 2.40.1 (20161225.0304)
 -->
<!-- Title: oneDegreeRelationshipsDiagramImplied Pages: 1 -->
<svg width="543pt" height="583pt"
 viewBox="0.00 0.00 543.00 583.20" xmlns="http://www.w3.org/2000/svg" xmlns:xlink="http://www.w3.org/1999/xlink">
<g id="graph0" class="graph" transform="scale(1 1) rotate(0) translate(4 579.2)">
<title>oneDegreeRelationshipsDiagramImplied</title>
<polygon fill="#ffffff" stroke="transparent" points="-4,4 -4,-579.2 539,-579.2 539,4 -4,4"/>
<text text-anchor="middle" x="72.4936" y="-7.3" font-family="Helvetica,sans-Serif" font-size="11.00" fill="#000000">Generated by SchemaSpy</text>
<!-- audited_tap_authorisation -->
<g id="node1" class="node">
<title>audited_tap_authorisation</title>
<g id="a_node1"><a xlink:href="../../tables/audited_tap_authorisation.html" xlink:title="audited_tap_authorisation" target="_top">
<polygon fill="#ffffff" stroke="transparent" points="211,-38.2 211,-571.2 527,-571.2 527,-38.2 211,-38.2"/>
<polygon fill="#f5f5f5" stroke="transparent" points="213,-545.7 213,-568.7 525,-568.7 525,-545.7 213,-545.7"/>
<polygon fill="none" stroke="#000000" points="213,-545.7 213,-568.7 525,-568.7 525,-545.7 213,-545.7"/>
<text text-anchor="start" x="218" y="-554.3" font-family="Helvetica,sans-Serif" font-weight="bold" font-size="11.00" fill="#000000">audited_tap_authorisation</text>
<text text-anchor="start" x="491.8895" y="-553.8" font-family="Helvetica,sans-Serif" font-size="11.00" fill="#000000">[view]</text>
<polygon fill="none" stroke="#000000" points="213,-523.7 213,-545.7 426,-545.7 426,-523.7 213,-523.7"/>
<text text-anchor="start" x="233" y="-530.8" font-family="Helvetica,sans-Serif" font-size="11.00" fill="#000000">created_by</text>
<polygon fill="none" stroke="#000000" points="426,-523.7 426,-545.7 525,-545.7 525,-523.7 426,-523.7"/>
<text text-anchor="start" x="429" y="-531.4" font-family="Helvetica,sans-Serif" font-size="11.00" fill="#000000">varchar[64]</text>
<polygon fill="none" stroke="#000000" points="213,-501.7 213,-523.7 426,-523.7 426,-501.7 213,-501.7"/>
<text text-anchor="start" x="233" y="-508.8" font-family="Helvetica,sans-Serif" font-size="11.00" fill="#000000">created_at</text>
<polygon fill="none" stroke="#000000" points="426,-501.7 426,-523.7 525,-523.7 525,-501.7 426,-501.7"/>
<text text-anchor="start" x="429" y="-509.4" font-family="Helvetica,sans-Serif" font-size="11.00" fill="#000000">timestamp[29,6]</text>
<polygon fill="none" stroke="#000000" points="213,-479.7 213,-501.7 426,-501.7 426,-479.7 213,-479.7"/>
<text text-anchor="start" x="233" y="-486.8" font-family="Helvetica,sans-Serif" font-size="11.00" fill="#000000">updated_by</text>
<polygon fill="none" stroke="#000000" points="426,-479.7 426,-501.7 525,-501.7 525,-479.7 426,-479.7"/>
<text text-anchor="start" x="429" y="-487.4" font-family="Helvetica,sans-Serif" font-size="11.00" fill="#000000">varchar[64]</text>
<polygon fill="none" stroke="#000000" points="213,-457.7 213,-479.7 426,-479.7 426,-457.7 213,-457.7"/>
<text text-anchor="start" x="233" y="-464.8" font-family="Helvetica,sans-Serif" font-size="11.00" fill="#000000">updated_at</text>
<polygon fill="none" stroke="#000000" points="426,-457.7 426,-479.7 525,-479.7 525,-457.7 426,-457.7"/>
<text text-anchor="start" x="429" y="-465.4" font-family="Helvetica,sans-Serif" font-size="11.00" fill="#000000">timestamp[29,6]</text>
<polygon fill="none" stroke="#000000" points="213,-435.7 213,-457.7 426,-457.7 426,-435.7 213,-435.7"/>
<text text-anchor="start" x="233" y="-442.8" font-family="Helvetica,sans-Serif" font-size="11.00" fill="#000000">rev_type</text>
<polygon fill="none" stroke="#000000" points="426,-435.7 426,-457.7 525,-457.7 525,-435.7 426,-435.7"/>
<text text-anchor="start" x="429" y="-443.4" font-family="Helvetica,sans-Serif" font-size="11.00" fill="#000000">int2[5]</text>
<polygon fill="none" stroke="#000000" points="213,-413.7 213,-435.7 426,-435.7 426,-413.7 213,-413.7"/>
<text text-anchor="start" x="233" y="-420.8" font-family="Helvetica,sans-Serif" font-size="11.00" fill="#000000">id</text>
<polygon fill="none" stroke="#000000" points="426,-413.7 426,-435.7 525,-435.7 525,-413.7 426,-413.7"/>
<text text-anchor="start" x="429" y="-421.4" font-family="Helvetica,sans-Serif" font-size="11.00" fill="#000000">uuid[2147483647]</text>
<polygon fill="none" stroke="#000000" points="213,-391.7 213,-413.7 426,-413.7 426,-391.7 213,-391.7"/>
<text text-anchor="start" x="233" y="-398.8" font-family="Helvetica,sans-Serif" font-size="11.00" fill="#000000">version</text>
<polygon fill="none" stroke="#000000" points="426,-391.7 426,-413.7 525,-413.7 525,-391.7 426,-391.7"/>
<text text-anchor="start" x="429" y="-399.4" font-family="Helvetica,sans-Serif" font-size="11.00" fill="#000000">int4[10]</text>
<polygon fill="none" stroke="#000000" points="213,-369.7 213,-391.7 426,-391.7 426,-369.7 213,-369.7"/>
<image xlink:href="../../images/foreignKeys.png" width="11px" height="12px" preserveAspectRatio="xMinYMin meet" x="218" y="-386.7"/>
<text text-anchor="start" x="233" y="-376.8" font-family="Helvetica,sans-Serif" font-size="11.00" fill="#000000">person_identifier</text>
<polygon fill="none" stroke="#000000" points="426,-369.7 426,-391.7 525,-391.7 525,-369.7 426,-369.7"/>
<text text-anchor="start" x="429" y="-377.4" font-family="Helvetica,sans-Serif" font-size="11.00" fill="#000000">varchar[10]</text>
<polygon fill="none" stroke="#000000" points="213,-347.7 213,-369.7 426,-369.7 426,-347.7 213,-347.7"/>
<text text-anchor="start" x="233" y="-354.8" font-family="Helvetica,sans-Serif" font-size="11.00" fill="#000000">prison_code</text>
<polygon fill="none" stroke="#000000" points="426,-347.7 426,-369.7 525,-369.7 525,-347.7 426,-347.7"/>
<text text-anchor="start" x="429" y="-355.4" font-family="Helvetica,sans-Serif" font-size="11.00" fill="#000000">varchar[6]</text>
<polygon fill="none" stroke="#000000" points="213,-325.7 213,-347.7 426,-347.7 426,-325.7 213,-325.7"/>
<text text-anchor="start" x="233" y="-332.8" font-family="Helvetica,sans-Serif" font-size="11.00" fill="#000000">absence_type_id</text>
<polygon fill="none" stroke="#000000" points="426,-325.7 426,-347.7 525,-347.7 525,-325.7 426,-325.7"/>
<text text-anchor="start" x="429" y="-333.4" font-family="Helvetica,sans-Serif" font-size="11.00" fill="#000000">int8[19]</text>
<polygon fill="none" stroke="#000000" points="213,-303.7 213,-325.7 426,-325.7 426,-303.7 213,-303.7"/>
<text text-anchor="start" x="233" y="-310.8" font-family="Helvetica,sans-Serif" font-size="11.00" fill="#000000">absence_sub_type_id</text>
<polygon fill="none" stroke="#000000" points="426,-303.7 426,-325.7 525,-325.7 525,-303.7 426,-303.7"/>
<text text-anchor="start" x="429" y="-311.4" font-family="Helvetica,sans-Serif" font-size="11.00" fill="#000000">int8[19]</text>
<polygon fill="none" stroke="#000000" points="213,-281.7 213,-303.7 426,-303.7 426,-281.7 213,-281.7"/>
<text text-anchor="start" x="233" y="-288.8" font-family="Helvetica,sans-Serif" font-size="11.00" fill="#000000">absence_reason_id</text>
<polygon fill="none" stroke="#000000" points="426,-281.7 426,-303.7 525,-303.7 525,-281.7 426,-281.7"/>
<text text-anchor="start" x="429" y="-289.4" font-family="Helvetica,sans-Serif" font-size="11.00" fill="#000000">int8[19]</text>
<polygon fill="none" stroke="#000000" points="213,-259.7 213,-281.7 426,-281.7 426,-259.7 213,-259.7"/>
<text text-anchor="start" x="233" y="-266.8" font-family="Helvetica,sans-Serif" font-size="11.00" fill="#000000">repeat</text>
<polygon fill="none" stroke="#000000" points="426,-259.7 426,-281.7 525,-281.7 525,-259.7 426,-259.7"/>
<text text-anchor="start" x="429" y="-267.4" font-family="Helvetica,sans-Serif" font-size="11.00" fill="#000000">bool[1]</text>
<polygon fill="none" stroke="#000000" points="213,-237.7 213,-259.7 426,-259.7 426,-237.7 213,-237.7"/>
<text text-anchor="start" x="233" y="-244.8" font-family="Helvetica,sans-Serif" font-size="11.00" fill="#000000">status_id</text>
<polygon fill="none" stroke="#000000" points="426,-237.7 426,-259.7 525,-259.7 525,-237.7 426,-237.7"/>
<text text-anchor="start" x="429" y="-245.4" font-family="Helvetica,sans-Serif" font-size="11.00" fill="#000000">int8[19]</text>
<polygon fill="none" stroke="#000000" points="213,-215.7 213,-237.7 426,-237.7 426,-215.7 213,-215.7"/>
<text text-anchor="start" x="233" y="-222.8" font-family="Helvetica,sans-Serif" font-size="11.00" fill="#000000">notes</text>
<polygon fill="none" stroke="#000000" points="426,-215.7 426,-237.7 525,-237.7 525,-215.7 426,-215.7"/>
<text text-anchor="start" x="429" y="-223.4" font-family="Helvetica,sans-Serif" font-size="11.00" fill="#000000">text[2147483647]</text>
<polygon fill="none" stroke="#000000" points="213,-193.7 213,-215.7 426,-215.7 426,-193.7 213,-193.7"/>
<text text-anchor="start" x="233" y="-200.8" font-family="Helvetica,sans-Serif" font-size="11.00" fill="#000000">legacy_id</text>
<polygon fill="none" stroke="#000000" points="426,-193.7 426,-215.7 525,-215.7 525,-193.7 426,-193.7"/>
<text text-anchor="start" x="429" y="-201.4" font-family="Helvetica,sans-Serif" font-size="11.00" fill="#000000">int8[19]</text>
<polygon fill="none" stroke="#000000" points="213,-171.7 213,-193.7 426,-193.7 426,-171.7 213,-171.7"/>
<text text-anchor="start" x="233" y="-178.8" font-family="Helvetica,sans-Serif" font-size="11.00" fill="#000000">from_date</text>
<polygon fill="none" stroke="#000000" points="426,-171.7 426,-193.7 525,-193.7 525,-171.7 426,-171.7"/>
<text text-anchor="start" x="429" y="-179.4" font-family="Helvetica,sans-Serif" font-size="11.00" fill="#000000">date[13]</text>
<polygon fill="none" stroke="#000000" points="213,-149.7 213,-171.7 426,-171.7 426,-149.7 213,-149.7"/>
<text text-anchor="start" x="233" y="-156.8" font-family="Helvetica,sans-Serif" font-size="11.00" fill="#000000">to_date</text>
<polygon fill="none" stroke="#000000" points="426,-149.7 426,-171.7 525,-171.7 525,-149.7 426,-149.7"/>
<text text-anchor="start" x="429" y="-157.4" font-family="Helvetica,sans-Serif" font-size="11.00" fill="#000000">date[13]</text>
<polygon fill="none" stroke="#000000" points="213,-127.7 213,-149.7 426,-149.7 426,-127.7 213,-127.7"/>
<text text-anchor="start" x="233" y="-134.8" font-family="Helvetica,sans-Serif" font-size="11.00" fill="#000000">schedule</text>
<polygon fill="none" stroke="#000000" points="426,-127.7 426,-149.7 525,-149.7 525,-127.7 426,-127.7"/>
<text text-anchor="start" x="428.7258" y="-135.4" font-family="Helvetica,sans-Serif" font-size="11.00" fill="#000000">jsonb[2147483647]</text>
<polygon fill="none" stroke="#000000" points="213,-105.7 213,-127.7 426,-127.7 426,-105.7 213,-105.7"/>
<text text-anchor="start" x="233" y="-112.8" font-family="Helvetica,sans-Serif" font-size="11.00" fill="#000000">absence_reason_category_id</text>
<polygon fill="none" stroke="#000000" points="426,-105.7 426,-127.7 525,-127.7 525,-105.7 426,-105.7"/>
<text text-anchor="start" x="429" y="-113.4" font-family="Helvetica,sans-Serif" font-size="11.00" fill="#000000">int8[19]</text>
<polygon fill="none" stroke="#000000" points="213,-83.7 213,-105.7 426,-105.7 426,-83.7 213,-83.7"/>
<text text-anchor="start" x="233" y="-90.8" font-family="Helvetica,sans-Serif" font-size="11.00" fill="#000000">reason_path</text>
<polygon fill="none" stroke="#000000" points="426,-83.7 426,-105.7 525,-105.7 525,-83.7 426,-83.7"/>
<text text-anchor="start" x="428.7258" y="-91.4" font-family="Helvetica,sans-Serif" font-size="11.00" fill="#000000">jsonb[2147483647]</text>
<polygon fill="none" stroke="#000000" points="213,-61.7 213,-83.7 426,-83.7 426,-61.7 213,-61.7"/>
<text text-anchor="start" x="233" y="-68.8" font-family="Helvetica,sans-Serif" font-size="11.00" fill="#000000">accompanied_by_id</text>
<polygon fill="none" stroke="#000000" points="426,-61.7 426,-83.7 525,-83.7 525,-61.7 426,-61.7"/>
<text text-anchor="start" x="429" y="-69.4" font-family="Helvetica,sans-Serif" font-size="11.00" fill="#000000">int8[19]</text>
<polygon fill="none" stroke="#000000" points="213,-39.7 213,-61.7 426,-61.7 426,-39.7 213,-39.7"/>
<text text-anchor="start" x="233" y="-46.8" font-family="Helvetica,sans-Serif" font-size="11.00" fill="#000000">transport_id</text>
<polygon fill="none" stroke="#000000" points="426,-39.7 426,-61.7 525,-61.7 525,-39.7 426,-39.7"/>
<text text-anchor="start" x="429" y="-47.4" font-family="Helvetica,sans-Serif" font-size="11.00" fill="#000000">int8[19]</text>
<polygon fill="none" stroke="#000000" stroke-width="2" points="212,-39.2 212,-570.2 526,-570.2 526,-39.2 212,-39.2"/>
</a>
</g>
</g>
<!-- person_summary -->
<g id="node2" class="node">
<title>person_summary</title>
<g id="a_node2"><a xlink:href="../../tables/person_summary.html" xlink:title="person_summary" target="_top">
<polygon fill="#ffffff" stroke="transparent" points="8,-332.2 8,-415.2 162,-415.2 162,-332.2 8,-332.2"/>
<polygon fill="#f5f5f5" stroke="transparent" points="8,-391.7 8,-414.7 162,-414.7 162,-391.7 8,-391.7"/>
<polygon fill="none" stroke="#000000" points="8,-391.7 8,-414.7 162,-414.7 162,-391.7 8,-391.7"/>
<text text-anchor="start" x="13" y="-400.3" font-family="Helvetica,sans-Serif" font-weight="bold" font-size="11.00" fill="#000000">person_summary</text>
<text text-anchor="start" x="127.5219" y="-399.8" font-family="Helvetica,sans-Serif" font-size="11.00" fill="#000000">[table]</text>
<polygon fill="none" stroke="#000000" points="8,-369.7 8,-391.7 162,-391.7 162,-369.7 8,-369.7"/>
<image xlink:href="../../images/primaryKeys.png" width="11px" height="12px" preserveAspectRatio="xMinYMin meet" x="13" y="-386.7"/>
<text text-anchor="start" x="37" y="-376.8" font-family="Helvetica,sans-Serif" font-size="11.00" fill="#000000">person_identifier</text>
<polygon fill="none" stroke="#000000" points="8,-350.7 8,-369.7 162,-369.7 162,-350.7 8,-350.7"/>
<text text-anchor="start" x="11" y="-356.8" font-family="Helvetica,sans-Serif" font-size="11.00" fill="#000000">...</text>
<polygon fill="#ffffff" stroke="transparent" points="8,-331.7 8,-350.7 74,-350.7 74,-331.7 8,-331.7"/>
<polygon fill="none" stroke="#000000" points="8,-331.7 8,-350.7 74,-350.7 74,-331.7 8,-331.7"/>
<text text-anchor="start" x="11" y="-337.8" font-family="Helvetica,sans-Serif" font-size="11.00" fill="#000000"> &#160;</text>
<polygon fill="#ffffff" stroke="transparent" points="74,-331.7 74,-350.7 113,-350.7 113,-331.7 74,-331.7"/>
<polygon fill="none" stroke="#000000" points="74,-331.7 74,-350.7 113,-350.7 113,-331.7 74,-331.7"/>
<text text-anchor="start" x="103.8862" y="-337.8" font-family="Helvetica,sans-Serif" font-size="11.00" fill="#000000"> &#160;</text>
<polygon fill="#ffffff" stroke="transparent" points="113,-331.7 113,-350.7 162,-350.7 162,-331.7 113,-331.7"/>
<polygon fill="none" stroke="#000000" points="113,-331.7 113,-350.7 162,-350.7 162,-331.7 113,-331.7"/>
<text text-anchor="start" x="143.4053" y="-337.8" font-family="Helvetica,sans-Serif" font-size="11.00" fill="#000000">6 &gt;</text>
</a>
</g>
</g>
<!-- audited_tap_authorisation&#45;&gt;person_summary -->
<g id="edge1" class="edge">
<title>audited_tap_authorisation:w&#45;&gt;person_summary:e</title>
<path fill="none" stroke="#000000" stroke-dasharray="5,2" d="M198.276,-380.7C186.2815,-380.7 178.8229,-380.7 162,-380.7"/>
<polygon fill="#000000" stroke="#000000" points="205,-380.7001 213,-384.3 209,-380.7 213,-380.7 213,-380.7 213,-380.7 209,-380.7 213,-377.1 205,-380.7001 205,-380.7001"/>
<ellipse fill="none" stroke="#000000" cx="201.8" cy="-380.7001" rx="3.2" ry="3.2"/>
</g>
</g>
</svg>
