<?xml version="1.0" encoding="UTF-8" standalone="no"?>
<!DOCTYPE svg PUBLIC "-//W3C//DTD SVG 1.1//EN"
 "http://www.w3.org/Graphics/SVG/1.1/DTD/svg11.dtd">
<!-- Generated by graphviz version 2.40.1 (20161225.0304)
 -->
<!-- Title: twoDegreesRelationshipsDiagramImplied Pages: 1 -->
<svg width="543pt" height="975pt"
 viewBox="0.00 0.00 543.00 975.20" xmlns="http://www.w3.org/2000/svg" xmlns:xlink="http://www.w3.org/1999/xlink">
<g id="graph0" class="graph" transform="scale(1 1) rotate(0) translate(4 971.2)">
<title>twoDegreesRelationshipsDiagramImplied</title>
<polygon fill="#ffffff" stroke="transparent" points="-4,4 -4,-971.2 539,-971.2 539,4 -4,4"/>
<text text-anchor="middle" x="72.4936" y="-7.3" font-family="Helvetica,sans-Serif" font-size="11.00" fill="#000000">Generated by SchemaSpy</text>
<!-- audited_tap_authorisation -->
<g id="node1" class="node">
<title>audited_tap_authorisation</title>
<g id="a_node1"><a xlink:href="../../tables/audited_tap_authorisation.html" xlink:title="audited_tap_authorisation" target="_top">
<polygon fill="#ffffff" stroke="transparent" points="211,-430.2 211,-963.2 527,-963.2 527,-430.2 211,-430.2"/>
<polygon fill="#f5f5f5" stroke="transparent" points="213,-937.7 213,-960.7 525,-960.7 525,-937.7 213,-937.7"/>
<polygon fill="none" stroke="#000000" points="213,-937.7 213,-960.7 525,-960.7 525,-937.7 213,-937.7"/>
<text text-anchor="start" x="218" y="-946.3" font-family="Helvetica,sans-Serif" font-weight="bold" font-size="11.00" fill="#000000">audited_tap_authorisation</text>
<text text-anchor="start" x="491.8895" y="-945.8" font-family="Helvetica,sans-Serif" font-size="11.00" fill="#000000">[view]</text>
<polygon fill="none" stroke="#000000" points="213,-915.7 213,-937.7 426,-937.7 426,-915.7 213,-915.7"/>
<text text-anchor="start" x="233" y="-922.8" font-family="Helvetica,sans-Serif" font-size="11.00" fill="#000000">created_by</text>
<polygon fill="none" stroke="#000000" points="426,-915.7 426,-937.7 525,-937.7 525,-915.7 426,-915.7"/>
<text text-anchor="start" x="429" y="-923.4" font-family="Helvetica,sans-Serif" font-size="11.00" fill="#000000">varchar[64]</text>
<polygon fill="none" stroke="#000000" points="213,-893.7 213,-915.7 426,-915.7 426,-893.7 213,-893.7"/>
<text text-anchor="start" x="233" y="-900.8" font-family="Helvetica,sans-Serif" font-size="11.00" fill="#000000">created_at</text>
<polygon fill="none" stroke="#000000" points="426,-893.7 426,-915.7 525,-915.7 525,-893.7 426,-893.7"/>
<text text-anchor="start" x="429" y="-901.4" font-family="Helvetica,sans-Serif" font-size="11.00" fill="#000000">timestamp[29,6]</text>
<polygon fill="none" stroke="#000000" points="213,-871.7 213,-893.7 426,-893.7 426,-871.7 213,-871.7"/>
<text text-anchor="start" x="233" y="-878.8" font-family="Helvetica,sans-Serif" font-size="11.00" fill="#000000">updated_by</text>
<polygon fill="none" stroke="#000000" points="426,-871.7 426,-893.7 525,-893.7 525,-871.7 426,-871.7"/>
<text text-anchor="start" x="429" y="-879.4" font-family="Helvetica,sans-Serif" font-size="11.00" fill="#000000">varchar[64]</text>
<polygon fill="none" stroke="#000000" points="213,-849.7 213,-871.7 426,-871.7 426,-849.7 213,-849.7"/>
<text text-anchor="start" x="233" y="-856.8" font-family="Helvetica,sans-Serif" font-size="11.00" fill="#000000">updated_at</text>
<polygon fill="none" stroke="#000000" points="426,-849.7 426,-871.7 525,-871.7 525,-849.7 426,-849.7"/>
<text text-anchor="start" x="429" y="-857.4" font-family="Helvetica,sans-Serif" font-size="11.00" fill="#000000">timestamp[29,6]</text>
<polygon fill="none" stroke="#000000" points="213,-827.7 213,-849.7 426,-849.7 426,-827.7 213,-827.7"/>
<text text-anchor="start" x="233" y="-834.8" font-family="Helvetica,sans-Serif" font-size="11.00" fill="#000000">rev_type</text>
<polygon fill="none" stroke="#000000" points="426,-827.7 426,-849.7 525,-849.7 525,-827.7 426,-827.7"/>
<text text-anchor="start" x="429" y="-835.4" font-family="Helvetica,sans-Serif" font-size="11.00" fill="#000000">int2[5]</text>
<polygon fill="none" stroke="#000000" points="213,-805.7 213,-827.7 426,-827.7 426,-805.7 213,-805.7"/>
<text text-anchor="start" x="233" y="-812.8" font-family="Helvetica,sans-Serif" font-size="11.00" fill="#000000">id</text>
<polygon fill="none" stroke="#000000" points="426,-805.7 426,-827.7 525,-827.7 525,-805.7 426,-805.7"/>
<text text-anchor="start" x="429" y="-813.4" font-family="Helvetica,sans-Serif" font-size="11.00" fill="#000000">uuid[2147483647]</text>
<polygon fill="none" stroke="#000000" points="213,-783.7 213,-805.7 426,-805.7 426,-783.7 213,-783.7"/>
<text text-anchor="start" x="233" y="-790.8" font-family="Helvetica,sans-Serif" font-size="11.00" fill="#000000">version</text>
<polygon fill="none" stroke="#000000" points="426,-783.7 426,-805.7 525,-805.7 525,-783.7 426,-783.7"/>
<text text-anchor="start" x="429" y="-791.4" font-family="Helvetica,sans-Serif" font-size="11.00" fill="#000000">int4[10]</text>
<polygon fill="none" stroke="#000000" points="213,-761.7 213,-783.7 426,-783.7 426,-761.7 213,-761.7"/>
<image xlink:href="../../images/foreignKeys.png" width="11px" height="12px" preserveAspectRatio="xMinYMin meet" x="218" y="-778.7"/>
<text text-anchor="start" x="233" y="-768.8" font-family="Helvetica,sans-Serif" font-size="11.00" fill="#000000">person_identifier</text>
<polygon fill="none" stroke="#000000" points="426,-761.7 426,-783.7 525,-783.7 525,-761.7 426,-761.7"/>
<text text-anchor="start" x="429" y="-769.4" font-family="Helvetica,sans-Serif" font-size="11.00" fill="#000000">varchar[10]</text>
<polygon fill="none" stroke="#000000" points="213,-739.7 213,-761.7 426,-761.7 426,-739.7 213,-739.7"/>
<text text-anchor="start" x="233" y="-746.8" font-family="Helvetica,sans-Serif" font-size="11.00" fill="#000000">prison_code</text>
<polygon fill="none" stroke="#000000" points="426,-739.7 426,-761.7 525,-761.7 525,-739.7 426,-739.7"/>
<text text-anchor="start" x="429" y="-747.4" font-family="Helvetica,sans-Serif" font-size="11.00" fill="#000000">varchar[6]</text>
<polygon fill="none" stroke="#000000" points="213,-717.7 213,-739.7 426,-739.7 426,-717.7 213,-717.7"/>
<text text-anchor="start" x="233" y="-724.8" font-family="Helvetica,sans-Serif" font-size="11.00" fill="#000000">absence_type_id</text>
<polygon fill="none" stroke="#000000" points="426,-717.7 426,-739.7 525,-739.7 525,-717.7 426,-717.7"/>
<text text-anchor="start" x="429" y="-725.4" font-family="Helvetica,sans-Serif" font-size="11.00" fill="#000000">int8[19]</text>
<polygon fill="none" stroke="#000000" points="213,-695.7 213,-717.7 426,-717.7 426,-695.7 213,-695.7"/>
<text text-anchor="start" x="233" y="-702.8" font-family="Helvetica,sans-Serif" font-size="11.00" fill="#000000">absence_sub_type_id</text>
<polygon fill="none" stroke="#000000" points="426,-695.7 426,-717.7 525,-717.7 525,-695.7 426,-695.7"/>
<text text-anchor="start" x="429" y="-703.4" font-family="Helvetica,sans-Serif" font-size="11.00" fill="#000000">int8[19]</text>
<polygon fill="none" stroke="#000000" points="213,-673.7 213,-695.7 426,-695.7 426,-673.7 213,-673.7"/>
<text text-anchor="start" x="233" y="-680.8" font-family="Helvetica,sans-Serif" font-size="11.00" fill="#000000">absence_reason_id</text>
<polygon fill="none" stroke="#000000" points="426,-673.7 426,-695.7 525,-695.7 525,-673.7 426,-673.7"/>
<text text-anchor="start" x="429" y="-681.4" font-family="Helvetica,sans-Serif" font-size="11.00" fill="#000000">int8[19]</text>
<polygon fill="none" stroke="#000000" points="213,-651.7 213,-673.7 426,-673.7 426,-651.7 213,-651.7"/>
<text text-anchor="start" x="233" y="-658.8" font-family="Helvetica,sans-Serif" font-size="11.00" fill="#000000">repeat</text>
<polygon fill="none" stroke="#000000" points="426,-651.7 426,-673.7 525,-673.7 525,-651.7 426,-651.7"/>
<text text-anchor="start" x="429" y="-659.4" font-family="Helvetica,sans-Serif" font-size="11.00" fill="#000000">bool[1]</text>
<polygon fill="none" stroke="#000000" points="213,-629.7 213,-651.7 426,-651.7 426,-629.7 213,-629.7"/>
<text text-anchor="start" x="233" y="-636.8" font-family="Helvetica,sans-Serif" font-size="11.00" fill="#000000">status_id</text>
<polygon fill="none" stroke="#000000" points="426,-629.7 426,-651.7 525,-651.7 525,-629.7 426,-629.7"/>
<text text-anchor="start" x="429" y="-637.4" font-family="Helvetica,sans-Serif" font-size="11.00" fill="#000000">int8[19]</text>
<polygon fill="none" stroke="#000000" points="213,-607.7 213,-629.7 426,-629.7 426,-607.7 213,-607.7"/>
<text text-anchor="start" x="233" y="-614.8" font-family="Helvetica,sans-Serif" font-size="11.00" fill="#000000">comments</text>
<polygon fill="none" stroke="#000000" points="426,-607.7 426,-629.7 525,-629.7 525,-607.7 426,-607.7"/>
<text text-anchor="start" x="429" y="-615.4" font-family="Helvetica,sans-Serif" font-size="11.00" fill="#000000">text[2147483647]</text>
<polygon fill="none" stroke="#000000" points="213,-585.7 213,-607.7 426,-607.7 426,-585.7 213,-585.7"/>
<text text-anchor="start" x="233" y="-592.8" font-family="Helvetica,sans-Serif" font-size="11.00" fill="#000000">legacy_id</text>
<polygon fill="none" stroke="#000000" points="426,-585.7 426,-607.7 525,-607.7 525,-585.7 426,-585.7"/>
<text text-anchor="start" x="429" y="-593.4" font-family="Helvetica,sans-Serif" font-size="11.00" fill="#000000">int8[19]</text>
<polygon fill="none" stroke="#000000" points="213,-563.7 213,-585.7 426,-585.7 426,-563.7 213,-563.7"/>
<text text-anchor="start" x="233" y="-570.8" font-family="Helvetica,sans-Serif" font-size="11.00" fill="#000000">start</text>
<polygon fill="none" stroke="#000000" points="426,-563.7 426,-585.7 525,-585.7 525,-563.7 426,-563.7"/>
<text text-anchor="start" x="429" y="-571.4" font-family="Helvetica,sans-Serif" font-size="11.00" fill="#000000">date[13]</text>
<polygon fill="none" stroke="#000000" points="213,-541.7 213,-563.7 426,-563.7 426,-541.7 213,-541.7"/>
<text text-anchor="start" x="233" y="-548.8" font-family="Helvetica,sans-Serif" font-size="11.00" fill="#000000">end</text>
<polygon fill="none" stroke="#000000" points="426,-541.7 426,-563.7 525,-563.7 525,-541.7 426,-541.7"/>
<text text-anchor="start" x="429" y="-549.4" font-family="Helvetica,sans-Serif" font-size="11.00" fill="#000000">date[13]</text>
<polygon fill="none" stroke="#000000" points="213,-519.7 213,-541.7 426,-541.7 426,-519.7 213,-519.7"/>
<text text-anchor="start" x="233" y="-526.8" font-family="Helvetica,sans-Serif" font-size="11.00" fill="#000000">schedule</text>
<polygon fill="none" stroke="#000000" points="426,-519.7 426,-541.7 525,-541.7 525,-519.7 426,-519.7"/>
<text text-anchor="start" x="428.7258" y="-527.4" font-family="Helvetica,sans-Serif" font-size="11.00" fill="#000000">jsonb[2147483647]</text>
<polygon fill="none" stroke="#000000" points="213,-497.7 213,-519.7 426,-519.7 426,-497.7 213,-497.7"/>
<text text-anchor="start" x="233" y="-504.8" font-family="Helvetica,sans-Serif" font-size="11.00" fill="#000000">absence_reason_category_id</text>
<polygon fill="none" stroke="#000000" points="426,-497.7 426,-519.7 525,-519.7 525,-497.7 426,-497.7"/>
<text text-anchor="start" x="429" y="-505.4" font-family="Helvetica,sans-Serif" font-size="11.00" fill="#000000">int8[19]</text>
<polygon fill="none" stroke="#000000" points="213,-475.7 213,-497.7 426,-497.7 426,-475.7 213,-475.7"/>
<text text-anchor="start" x="233" y="-482.8" font-family="Helvetica,sans-Serif" font-size="11.00" fill="#000000">reason_path</text>
<polygon fill="none" stroke="#000000" points="426,-475.7 426,-497.7 525,-497.7 525,-475.7 426,-475.7"/>
<text text-anchor="start" x="428.7258" y="-483.4" font-family="Helvetica,sans-Serif" font-size="11.00" fill="#000000">jsonb[2147483647]</text>
<polygon fill="none" stroke="#000000" points="213,-453.7 213,-475.7 426,-475.7 426,-453.7 213,-453.7"/>
<text text-anchor="start" x="233" y="-460.8" font-family="Helvetica,sans-Serif" font-size="11.00" fill="#000000">accompanied_by_id</text>
<polygon fill="none" stroke="#000000" points="426,-453.7 426,-475.7 525,-475.7 525,-453.7 426,-453.7"/>
<text text-anchor="start" x="429" y="-461.4" font-family="Helvetica,sans-Serif" font-size="11.00" fill="#000000">int8[19]</text>
<polygon fill="none" stroke="#000000" points="213,-431.7 213,-453.7 426,-453.7 426,-431.7 213,-431.7"/>
<text text-anchor="start" x="233" y="-438.8" font-family="Helvetica,sans-Serif" font-size="11.00" fill="#000000">transport_id</text>
<polygon fill="none" stroke="#000000" points="426,-431.7 426,-453.7 525,-453.7 525,-431.7 426,-431.7"/>
<text text-anchor="start" x="429" y="-439.4" font-family="Helvetica,sans-Serif" font-size="11.00" fill="#000000">int8[19]</text>
<polygon fill="none" stroke="#000000" stroke-width="2" points="212,-431.2 212,-962.2 526,-962.2 526,-431.2 212,-431.2"/>
</a>
</g>
</g>
<!-- person_summary -->
<g id="node2" class="node">
<title>person_summary</title>
<g id="a_node2"><a xlink:href="../../tables/person_summary.html" xlink:title="person_summary" target="_top">
<polygon fill="#ffffff" stroke="transparent" points="8,-222.2 8,-305.2 162,-305.2 162,-222.2 8,-222.2"/>
<polygon fill="#f5f5f5" stroke="transparent" points="8,-281.7 8,-304.7 162,-304.7 162,-281.7 8,-281.7"/>
<polygon fill="none" stroke="#000000" points="8,-281.7 8,-304.7 162,-304.7 162,-281.7 8,-281.7"/>
<text text-anchor="start" x="13" y="-290.3" font-family="Helvetica,sans-Serif" font-weight="bold" font-size="11.00" fill="#000000">person_summary</text>
<text text-anchor="start" x="127.5219" y="-289.8" font-family="Helvetica,sans-Serif" font-size="11.00" fill="#000000">[table]</text>
<polygon fill="none" stroke="#000000" points="8,-259.7 8,-281.7 162,-281.7 162,-259.7 8,-259.7"/>
<image xlink:href="../../images/primaryKeys.png" width="11px" height="12px" preserveAspectRatio="xMinYMin meet" x="13" y="-276.7"/>
<text text-anchor="start" x="37" y="-266.8" font-family="Helvetica,sans-Serif" font-size="11.00" fill="#000000">person_identifier</text>
<polygon fill="none" stroke="#000000" points="8,-240.7 8,-259.7 162,-259.7 162,-240.7 8,-240.7"/>
<text text-anchor="start" x="11" y="-246.8" font-family="Helvetica,sans-Serif" font-size="11.00" fill="#000000">...</text>
<polygon fill="#ffffff" stroke="transparent" points="8,-221.7 8,-240.7 74,-240.7 74,-221.7 8,-221.7"/>
<polygon fill="none" stroke="#000000" points="8,-221.7 8,-240.7 74,-240.7 74,-221.7 8,-221.7"/>
<text text-anchor="start" x="11" y="-227.8" font-family="Helvetica,sans-Serif" font-size="11.00" fill="#000000"> &#160;</text>
<polygon fill="#ffffff" stroke="transparent" points="74,-221.7 74,-240.7 113,-240.7 113,-221.7 74,-221.7"/>
<polygon fill="none" stroke="#000000" points="74,-221.7 74,-240.7 113,-240.7 113,-221.7 74,-221.7"/>
<text text-anchor="start" x="103.8862" y="-227.8" font-family="Helvetica,sans-Serif" font-size="11.00" fill="#000000"> &#160;</text>
<polygon fill="#ffffff" stroke="transparent" points="113,-221.7 113,-240.7 162,-240.7 162,-221.7 113,-221.7"/>
<polygon fill="none" stroke="#000000" points="113,-221.7 113,-240.7 162,-240.7 162,-221.7 113,-221.7"/>
<text text-anchor="start" x="143.4053" y="-227.8" font-family="Helvetica,sans-Serif" font-size="11.00" fill="#000000">6 &gt;</text>
</a>
</g>
</g>
<!-- audited_tap_authorisation&#45;&gt;person_summary -->
<g id="edge1" class="edge">
<title>audited_tap_authorisation:w&#45;&gt;person_summary:e</title>
<path fill="none" stroke="#000000" stroke-dasharray="5,2" d="M198.5496,-769.2263C117.1097,-724.8734 268.6547,-270.7 162,-270.7"/>
<polygon fill="#000000" stroke="#000000" points="205.2216,-770.8301 212.1586,-776.2003 209.1108,-771.7651 213,-772.7 213,-772.7 213,-772.7 209.1108,-771.7651 213.8414,-769.1997 205.2216,-770.8301 205.2216,-770.8301"/>
<ellipse fill="none" stroke="#000000" cx="202.1102" cy="-770.0822" rx="3.2" ry="3.2"/>
</g>
<!-- audited_tap_movement -->
<g id="node3" class="node">
<title>audited_tap_movement</title>
<g id="a_node3"><a xlink:href="../../tables/audited_tap_movement.html" xlink:title="audited_tap_movement" target="_top">
<polygon fill="#ffffff" stroke="transparent" points="271.5,-366.7 271.5,-408.7 466.5,-408.7 466.5,-366.7 271.5,-366.7"/>
<polygon fill="#f5f5f5" stroke="transparent" points="272,-385.7 272,-408.7 467,-408.7 467,-385.7 272,-385.7"/>
<polygon fill="none" stroke="#000000" points="272,-385.7 272,-408.7 467,-408.7 467,-385.7 272,-385.7"/>
<text text-anchor="start" x="277" y="-394.3" font-family="Helvetica,sans-Serif" font-weight="bold" font-size="11.00" fill="#000000">audited_tap_movement</text>
<text text-anchor="start" x="433.9448" y="-393.8" font-family="Helvetica,sans-Serif" font-size="11.00" fill="#000000">[view]</text>
<polygon fill="none" stroke="#000000" points="272,-366.7 272,-385.7 467,-385.7 467,-366.7 272,-366.7"/>
<text text-anchor="start" x="275" y="-372.8" font-family="Helvetica,sans-Serif" font-size="11.00" fill="#000000">...</text>
</a>
</g>
</g>
<!-- audited_tap_movement&#45;&gt;person_summary -->
<g id="edge2" class="edge">
<title>audited_tap_movement:w&#45;&gt;person_summary:e</title>
<path fill="none" stroke="#000000" stroke-dasharray="5,2" d="M257.3929,-375.6483C235.4792,-375.3067 223.2888,-372.8496 203,-355.7 170.9675,-328.6237 203.9429,-270.7 162,-270.7"/>
<polygon fill="#000000" stroke="#000000" points="264.0001,-375.6716 271.9872,-379.3 268,-375.6858 272,-375.7 272,-375.7 272,-375.7 268,-375.6858 272.0128,-372.1 264.0001,-375.6716 264.0001,-375.6716"/>
<ellipse fill="none" stroke="#000000" cx="260.8001" cy="-375.6603" rx="3.2" ry="3.2"/>
</g>
<!-- temporary_absence_authorisation -->
<g id="node4" class="node">
<title>temporary_absence_authorisation</title>
<g id="a_node4"><a xlink:href="../../tables/temporary_absence_authorisation.html" xlink:title="temporary_absence_authorisation" target="_top">
<polygon fill="#ffffff" stroke="transparent" points="235,-284.2 235,-345.2 503,-345.2 503,-284.2 235,-284.2"/>
<polygon fill="#f5f5f5" stroke="transparent" points="235,-321.7 235,-344.7 503,-344.7 503,-321.7 235,-321.7"/>
<polygon fill="none" stroke="#000000" points="235,-321.7 235,-344.7 503,-344.7 503,-321.7 235,-321.7"/>
<text text-anchor="start" x="240" y="-330.3" font-family="Helvetica,sans-Serif" font-weight="bold" font-size="11.00" fill="#000000">temporary_absence_authorisation</text>
<text text-anchor="start" x="468.5219" y="-329.8" font-family="Helvetica,sans-Serif" font-size="11.00" fill="#000000">[table]</text>
<polygon fill="none" stroke="#000000" points="235,-302.7 235,-321.7 503,-321.7 503,-302.7 235,-302.7"/>
<text text-anchor="start" x="238" y="-308.8" font-family="Helvetica,sans-Serif" font-size="11.00" fill="#000000">...</text>
<polygon fill="#ffffff" stroke="transparent" points="235,-283.7 235,-302.7 363,-302.7 363,-283.7 235,-283.7"/>
<polygon fill="none" stroke="#000000" points="235,-283.7 235,-302.7 363,-302.7 363,-283.7 235,-283.7"/>
<text text-anchor="start" x="238" y="-289.8" font-family="Helvetica,sans-Serif" font-size="11.00" fill="#000000">&lt; 7</text>
<polygon fill="#ffffff" stroke="transparent" points="363,-283.7 363,-302.7 428,-302.7 428,-283.7 363,-283.7"/>
<polygon fill="none" stroke="#000000" points="363,-283.7 363,-302.7 428,-302.7 428,-283.7 363,-283.7"/>
<text text-anchor="start" x="418.8862" y="-289.8" font-family="Helvetica,sans-Serif" font-size="11.00" fill="#000000"> &#160;</text>
<polygon fill="#ffffff" stroke="transparent" points="428,-283.7 428,-302.7 503,-302.7 503,-283.7 428,-283.7"/>
<polygon fill="none" stroke="#000000" points="428,-283.7 428,-302.7 503,-302.7 503,-283.7 428,-283.7"/>
<text text-anchor="start" x="484.4053" y="-289.8" font-family="Helvetica,sans-Serif" font-size="11.00" fill="#000000">1 &gt;</text>
</a>
</g>
</g>
<!-- temporary_absence_authorisation&#45;&gt;person_summary -->
<g id="edge3" class="edge">
<title>temporary_absence_authorisation:w&#45;&gt;person_summary:e</title>
<path fill="none" stroke="#000000" d="M220.7303,-309.258C197.3597,-300.4315 193.6879,-270.7 162,-270.7"/>
<polygon fill="#000000" stroke="#000000" points="227.1146,-310.3505 234.3927,-315.2484 231.0573,-311.0253 235,-311.7 235,-311.7 235,-311.7 231.0573,-311.0253 235.6073,-308.1516 227.1146,-310.3505 227.1146,-310.3505"/>
<ellipse fill="none" stroke="#000000" cx="223.9605" cy="-309.8108" rx="3.2" ry="3.2"/>
</g>
<!-- temporary_absence_authorisation_audit -->
<g id="node5" class="node">
<title>temporary_absence_authorisation_audit</title>
<g id="a_node5"><a xlink:href="../../tables/temporary_absence_authorisation_audit.html" xlink:title="temporary_absence_authorisation_audit" target="_top">
<polygon fill="#ffffff" stroke="transparent" points="214.5,-202.2 214.5,-263.2 523.5,-263.2 523.5,-202.2 214.5,-202.2"/>
<polygon fill="#f5f5f5" stroke="transparent" points="215,-239.7 215,-262.7 524,-262.7 524,-239.7 215,-239.7"/>
<polygon fill="none" stroke="#000000" points="215,-239.7 215,-262.7 524,-262.7 524,-239.7 215,-239.7"/>
<text text-anchor="start" x="220" y="-248.3" font-family="Helvetica,sans-Serif" font-weight="bold" font-size="11.00" fill="#000000">temporary_absence_authorisation_audit</text>
<text text-anchor="start" x="489.5219" y="-247.8" font-family="Helvetica,sans-Serif" font-size="11.00" fill="#000000">[table]</text>
<polygon fill="none" stroke="#000000" points="215,-220.7 215,-239.7 524,-239.7 524,-220.7 215,-220.7"/>
<text text-anchor="start" x="218" y="-226.8" font-family="Helvetica,sans-Serif" font-size="11.00" fill="#000000">...</text>
<polygon fill="#ffffff" stroke="transparent" points="215,-201.7 215,-220.7 368,-220.7 368,-201.7 215,-201.7"/>
<polygon fill="none" stroke="#000000" points="215,-201.7 215,-220.7 368,-220.7 368,-201.7 215,-201.7"/>
<text text-anchor="start" x="218" y="-207.8" font-family="Helvetica,sans-Serif" font-size="11.00" fill="#000000">&lt; 2</text>
<polygon fill="#ffffff" stroke="transparent" points="368,-201.7 368,-220.7 446,-220.7 446,-201.7 368,-201.7"/>
<polygon fill="none" stroke="#000000" points="368,-201.7 368,-220.7 446,-220.7 446,-201.7 368,-201.7"/>
<text text-anchor="start" x="436.8862" y="-207.8" font-family="Helvetica,sans-Serif" font-size="11.00" fill="#000000"> &#160;</text>
<polygon fill="#ffffff" stroke="transparent" points="446,-201.7 446,-220.7 524,-220.7 524,-201.7 446,-201.7"/>
<polygon fill="none" stroke="#000000" points="446,-201.7 446,-220.7 524,-220.7 524,-201.7 446,-201.7"/>
<text text-anchor="start" x="514.8862" y="-207.8" font-family="Helvetica,sans-Serif" font-size="11.00" fill="#000000"> &#160;</text>
</a>
</g>
</g>
<!-- temporary_absence_authorisation_audit&#45;&gt;person_summary -->
<g id="edge4" class="edge">
<title>temporary_absence_authorisation_audit:w&#45;&gt;person_summary:e</title>
<path fill="none" stroke="#000000" stroke-dasharray="5,2" d="M201.1677,-233.7811C186.3959,-244.1516 185.9645,-270.7 162,-270.7"/>
<polygon fill="#000000" stroke="#000000" points="207.327,-231.9639 216.0188,-233.1528 211.1635,-230.832 215,-229.7 215,-229.7 215,-229.7 211.1635,-230.832 213.9812,-226.2472 207.327,-231.9639 207.327,-231.9639"/>
<ellipse fill="none" stroke="#000000" cx="204.2578" cy="-232.8695" rx="3.2" ry="3.2"/>
</g>
<!-- temporary_absence_movement -->
<g id="node6" class="node">
<title>temporary_absence_movement</title>
<g id="a_node6"><a xlink:href="../../tables/temporary_absence_movement.html" xlink:title="temporary_absence_movement" target="_top">
<polygon fill="#ffffff" stroke="transparent" points="244.5,-120.2 244.5,-181.2 493.5,-181.2 493.5,-120.2 244.5,-120.2"/>
<polygon fill="#f5f5f5" stroke="transparent" points="245,-157.7 245,-180.7 494,-180.7 494,-157.7 245,-157.7"/>
<polygon fill="none" stroke="#000000" points="245,-157.7 245,-180.7 494,-180.7 494,-157.7 245,-157.7"/>
<text text-anchor="start" x="250" y="-166.3" font-family="Helvetica,sans-Serif" font-weight="bold" font-size="11.00" fill="#000000">temporary_absence_movement</text>
<text text-anchor="start" x="459.5219" y="-165.8" font-family="Helvetica,sans-Serif" font-size="11.00" fill="#000000">[table]</text>
<polygon fill="none" stroke="#000000" points="245,-138.7 245,-157.7 494,-157.7 494,-138.7 245,-138.7"/>
<text text-anchor="start" x="248" y="-144.8" font-family="Helvetica,sans-Serif" font-size="11.00" fill="#000000">...</text>
<polygon fill="#ffffff" stroke="transparent" points="245,-119.7 245,-138.7 368,-138.7 368,-119.7 245,-119.7"/>
<polygon fill="none" stroke="#000000" points="245,-119.7 245,-138.7 368,-138.7 368,-119.7 245,-119.7"/>
<text text-anchor="start" x="248" y="-125.8" font-family="Helvetica,sans-Serif" font-size="11.00" fill="#000000">&lt; 4</text>
<polygon fill="#ffffff" stroke="transparent" points="368,-119.7 368,-138.7 431,-138.7 431,-119.7 368,-119.7"/>
<polygon fill="none" stroke="#000000" points="368,-119.7 368,-138.7 431,-138.7 431,-119.7 368,-119.7"/>
<text text-anchor="start" x="421.8862" y="-125.8" font-family="Helvetica,sans-Serif" font-size="11.00" fill="#000000"> &#160;</text>
<polygon fill="#ffffff" stroke="transparent" points="431,-119.7 431,-138.7 494,-138.7 494,-119.7 431,-119.7"/>
<polygon fill="none" stroke="#000000" points="431,-119.7 431,-138.7 494,-138.7 494,-119.7 431,-119.7"/>
<text text-anchor="start" x="484.8862" y="-125.8" font-family="Helvetica,sans-Serif" font-size="11.00" fill="#000000"> &#160;</text>
</a>
</g>
</g>
<!-- temporary_absence_movement&#45;&gt;person_summary -->
<g id="edge5" class="edge">
<title>temporary_absence_movement:w&#45;&gt;person_summary:e</title>
<path fill="none" stroke="#000000" d="M230.7842,-150.6284C217.5064,-157.3264 215.2793,-174.5156 203,-191.7 180.0014,-223.8855 201.5581,-270.7 162,-270.7"/>
<polygon fill="#000000" stroke="#000000" points="237.1645,-149.3141 245.7264,-151.226 241.0823,-148.5071 245,-147.7 245,-147.7 245,-147.7 241.0823,-148.5071 244.2736,-144.174 237.1645,-149.3141 237.1645,-149.3141"/>
<ellipse fill="none" stroke="#000000" cx="234.0303" cy="-149.9598" rx="3.2" ry="3.2"/>
</g>
<!-- temporary_absence_movement_audit -->
<g id="node7" class="node">
<title>temporary_absence_movement_audit</title>
<g id="a_node7"><a xlink:href="../../tables/temporary_absence_movement_audit.html" xlink:title="temporary_absence_movement_audit" target="_top">
<polygon fill="#ffffff" stroke="transparent" points="224,-38.2 224,-99.2 514,-99.2 514,-38.2 224,-38.2"/>
<polygon fill="#f5f5f5" stroke="transparent" points="224,-75.7 224,-98.7 514,-98.7 514,-75.7 224,-75.7"/>
<polygon fill="none" stroke="#000000" points="224,-75.7 224,-98.7 514,-98.7 514,-75.7 224,-75.7"/>
<text text-anchor="start" x="229" y="-84.3" font-family="Helvetica,sans-Serif" font-weight="bold" font-size="11.00" fill="#000000">temporary_absence_movement_audit</text>
<text text-anchor="start" x="479.5219" y="-83.8" font-family="Helvetica,sans-Serif" font-size="11.00" fill="#000000">[table]</text>
<polygon fill="none" stroke="#000000" points="224,-56.7 224,-75.7 514,-75.7 514,-56.7 224,-56.7"/>
<text text-anchor="start" x="227" y="-62.8" font-family="Helvetica,sans-Serif" font-size="11.00" fill="#000000">...</text>
<polygon fill="#ffffff" stroke="transparent" points="224,-37.7 224,-56.7 367,-56.7 367,-37.7 224,-37.7"/>
<polygon fill="none" stroke="#000000" points="224,-37.7 224,-56.7 367,-56.7 367,-37.7 224,-37.7"/>
<text text-anchor="start" x="227" y="-43.8" font-family="Helvetica,sans-Serif" font-size="11.00" fill="#000000">&lt; 2</text>
<polygon fill="#ffffff" stroke="transparent" points="367,-37.7 367,-56.7 440,-56.7 440,-37.7 367,-37.7"/>
<polygon fill="none" stroke="#000000" points="367,-37.7 367,-56.7 440,-56.7 440,-37.7 367,-37.7"/>
<text text-anchor="start" x="430.8862" y="-43.8" font-family="Helvetica,sans-Serif" font-size="11.00" fill="#000000"> &#160;</text>
<polygon fill="#ffffff" stroke="transparent" points="440,-37.7 440,-56.7 514,-56.7 514,-37.7 440,-37.7"/>
<polygon fill="none" stroke="#000000" points="440,-37.7 440,-56.7 514,-56.7 514,-37.7 440,-37.7"/>
<text text-anchor="start" x="504.8862" y="-43.8" font-family="Helvetica,sans-Serif" font-size="11.00" fill="#000000"> &#160;</text>
</a>
</g>
</g>
<!-- temporary_absence_movement_audit&#45;&gt;person_summary -->
<g id="edge6" class="edge">
<title>temporary_absence_movement_audit:w&#45;&gt;person_summary:e</title>
<path fill="none" stroke="#000000" stroke-dasharray="5,2" d="M209.4806,-67.729C143.0894,-89.0196 251.6095,-270.7 162,-270.7"/>
<polygon fill="#000000" stroke="#000000" points="216.077,-66.8072 224.4982,-69.2654 220.0385,-66.2536 224,-65.7 224,-65.7 224,-65.7 220.0385,-66.2536 223.5018,-62.1346 216.077,-66.8072 216.077,-66.8072"/>
<ellipse fill="none" stroke="#000000" cx="212.9078" cy="-67.2501" rx="3.2" ry="3.2"/>
</g>
</g>
</svg>
