<?xml version="1.0" encoding="UTF-8" standalone="no"?>
<!DOCTYPE svg PUBLIC "-//W3C//DTD SVG 1.1//EN"
 "http://www.w3.org/Graphics/SVG/1.1/DTD/svg11.dtd">
<!-- Generated by graphviz version 2.40.1 (20161225.0304)
 -->
<!-- Title: oneDegreeRelationshipsDiagram Pages: 1 -->
<svg width="552pt" height="467pt"
 viewBox="0.00 0.00 552.00 467.20" xmlns="http://www.w3.org/2000/svg" xmlns:xlink="http://www.w3.org/1999/xlink">
<g id="graph0" class="graph" transform="scale(1 1) rotate(0) translate(4 463.2)">
<title>oneDegreeRelationshipsDiagram</title>
<polygon fill="#ffffff" stroke="transparent" points="-4,4 -4,-463.2 548,-463.2 548,4 -4,4"/>
<text text-anchor="middle" x="72.4936" y="-7.3" font-family="Helvetica,sans-Serif" font-size="11.00" fill="#000000">Generated by SchemaSpy</text>
<!-- hmpps_domain_event_audit -->
<g id="node1" class="node">
<title>hmpps_domain_event_audit</title>
<g id="a_node1"><a xlink:href="../../tables/hmpps_domain_event_audit.html" xlink:title="hmpps_domain_event_audit" target="_top">
<polygon fill="#ffffff" stroke="transparent" points="311,-350.2 311,-455.2 536,-455.2 536,-350.2 311,-350.2"/>
<polygon fill="#f5f5f5" stroke="transparent" points="311.5,-431.7 311.5,-454.7 536.5,-454.7 536.5,-431.7 311.5,-431.7"/>
<polygon fill="none" stroke="#000000" points="311.5,-431.7 311.5,-454.7 536.5,-454.7 536.5,-431.7 311.5,-431.7"/>
<text text-anchor="start" x="316.5" y="-440.3" font-family="Helvetica,sans-Serif" font-weight="bold" font-size="11.00" fill="#000000">hmpps_domain_event_audit</text>
<text text-anchor="start" x="502.0219" y="-439.8" font-family="Helvetica,sans-Serif" font-size="11.00" fill="#000000">[table]</text>
<polygon fill="none" stroke="#000000" points="311.5,-409.7 311.5,-431.7 536.5,-431.7 536.5,-409.7 311.5,-409.7"/>
<image xlink:href="../../images/primaryKeys.png" width="11px" height="12px" preserveAspectRatio="xMinYMin meet" x="316.5" y="-426.7"/>
<text text-anchor="start" x="340.5" y="-416.8" font-family="Helvetica,sans-Serif" font-size="11.00" fill="#000000">rev_id</text>
<polygon fill="none" stroke="#000000" points="311.5,-387.7 311.5,-409.7 536.5,-409.7 536.5,-387.7 311.5,-387.7"/>
<image xlink:href="../../images/primaryKeys.png" width="11px" height="12px" preserveAspectRatio="xMinYMin meet" x="316.5" y="-404.7"/>
<text text-anchor="start" x="340.5" y="-394.8" font-family="Helvetica,sans-Serif" font-size="11.00" fill="#000000">id</text>
<polygon fill="none" stroke="#000000" points="311.5,-368.7 311.5,-387.7 536.5,-387.7 536.5,-368.7 311.5,-368.7"/>
<text text-anchor="start" x="314.5" y="-374.8" font-family="Helvetica,sans-Serif" font-size="11.00" fill="#000000">...</text>
<polygon fill="#ffffff" stroke="transparent" points="311.5,-349.7 311.5,-368.7 422.5,-368.7 422.5,-349.7 311.5,-349.7"/>
<polygon fill="none" stroke="#000000" points="311.5,-349.7 311.5,-368.7 422.5,-368.7 422.5,-349.7 311.5,-349.7"/>
<text text-anchor="start" x="314.5" y="-355.8" font-family="Helvetica,sans-Serif" font-size="11.00" fill="#000000">&lt; 1</text>
<polygon fill="#ffffff" stroke="transparent" points="422.5,-349.7 422.5,-368.7 479.5,-368.7 479.5,-349.7 422.5,-349.7"/>
<polygon fill="none" stroke="#000000" points="422.5,-349.7 422.5,-368.7 479.5,-368.7 479.5,-349.7 422.5,-349.7"/>
<text text-anchor="start" x="470.3862" y="-355.8" font-family="Helvetica,sans-Serif" font-size="11.00" fill="#000000"> &#160;</text>
<polygon fill="#ffffff" stroke="transparent" points="479.5,-349.7 479.5,-368.7 536.5,-368.7 536.5,-349.7 479.5,-349.7"/>
<polygon fill="none" stroke="#000000" points="479.5,-349.7 479.5,-368.7 536.5,-368.7 536.5,-349.7 479.5,-349.7"/>
<text text-anchor="start" x="527.3862" y="-355.8" font-family="Helvetica,sans-Serif" font-size="11.00" fill="#000000"> &#160;</text>
</a>
</g>
</g>
<!-- audit_revision -->
<g id="node2" class="node">
<title>audit_revision</title>
<g id="a_node2"><a xlink:href="../../tables/audit_revision.html" xlink:title="audit_revision" target="_top">
<polygon fill="#ffffff" stroke="transparent" points="8,-100.7 8,-278.7 262,-278.7 262,-100.7 8,-100.7"/>
<polygon fill="#f5f5f5" stroke="transparent" points="10,-253.7 10,-276.7 260,-276.7 260,-253.7 10,-253.7"/>
<polygon fill="none" stroke="#000000" points="10,-253.7 10,-276.7 260,-276.7 260,-253.7 10,-253.7"/>
<text text-anchor="start" x="15" y="-262.3" font-family="Helvetica,sans-Serif" font-weight="bold" font-size="11.00" fill="#000000">audit_revision</text>
<text text-anchor="start" x="225.0437" y="-261.8" font-family="Helvetica,sans-Serif" font-size="11.00" fill="#000000">[table]</text>
<polygon fill="none" stroke="#000000" points="10,-231.7 10,-253.7 144,-253.7 144,-231.7 10,-231.7"/>
<image xlink:href="../../images/primaryKeys.png" width="11px" height="12px" preserveAspectRatio="xMinYMin meet" x="15" y="-248.7"/>
<text text-anchor="start" x="30" y="-238.8" font-family="Helvetica,sans-Serif" font-size="11.00" fill="#000000">id</text>
<polygon fill="none" stroke="#000000" points="144,-231.7 144,-253.7 260,-253.7 260,-231.7 144,-231.7"/>
<text text-anchor="start" x="147" y="-239.4" font-family="Helvetica,sans-Serif" font-size="11.00" fill="#000000">bigserial[19]</text>
<polygon fill="none" stroke="#000000" points="10,-209.7 10,-231.7 144,-231.7 144,-209.7 10,-209.7"/>
<text text-anchor="start" x="30" y="-216.8" font-family="Helvetica,sans-Serif" font-size="11.00" fill="#000000">timestamp</text>
<polygon fill="none" stroke="#000000" points="144,-209.7 144,-231.7 260,-231.7 260,-209.7 144,-209.7"/>
<text text-anchor="start" x="147" y="-217.4" font-family="Helvetica,sans-Serif" font-size="11.00" fill="#000000">timestamp[29,6]</text>
<polygon fill="none" stroke="#000000" points="10,-187.7 10,-209.7 144,-209.7 144,-187.7 10,-187.7"/>
<text text-anchor="start" x="30" y="-194.8" font-family="Helvetica,sans-Serif" font-size="11.00" fill="#000000">username</text>
<polygon fill="none" stroke="#000000" points="144,-187.7 144,-209.7 260,-209.7 260,-187.7 144,-187.7"/>
<text text-anchor="start" x="147" y="-195.4" font-family="Helvetica,sans-Serif" font-size="11.00" fill="#000000">varchar[64]</text>
<polygon fill="none" stroke="#000000" points="10,-165.7 10,-187.7 144,-187.7 144,-165.7 10,-165.7"/>
<text text-anchor="start" x="30" y="-172.8" font-family="Helvetica,sans-Serif" font-size="11.00" fill="#000000">source</text>
<polygon fill="none" stroke="#000000" points="144,-165.7 144,-187.7 260,-187.7 260,-165.7 144,-165.7"/>
<text text-anchor="start" x="147" y="-173.4" font-family="Helvetica,sans-Serif" font-size="11.00" fill="#000000">varchar[6]</text>
<polygon fill="none" stroke="#000000" points="10,-143.7 10,-165.7 144,-165.7 144,-143.7 10,-143.7"/>
<text text-anchor="start" x="30" y="-150.8" font-family="Helvetica,sans-Serif" font-size="11.00" fill="#000000">affected_entities</text>
<polygon fill="none" stroke="#000000" points="144,-143.7 144,-165.7 260,-165.7 260,-143.7 144,-143.7"/>
<text text-anchor="start" x="146.9769" y="-151.4" font-family="Helvetica,sans-Serif" font-size="11.00" fill="#000000">_varchar[2147483647]</text>
<polygon fill="none" stroke="#000000" points="10,-121.7 10,-143.7 144,-143.7 144,-121.7 10,-121.7"/>
<text text-anchor="start" x="30" y="-128.8" font-family="Helvetica,sans-Serif" font-size="11.00" fill="#000000">reason</text>
<polygon fill="none" stroke="#000000" points="144,-121.7 144,-143.7 260,-143.7 260,-121.7 144,-121.7"/>
<text text-anchor="start" x="147" y="-129.4" font-family="Helvetica,sans-Serif" font-size="11.00" fill="#000000">text[2147483647]</text>
<polygon fill="#ffffff" stroke="transparent" points="10,-102.7 10,-121.7 81,-121.7 81,-102.7 10,-102.7"/>
<polygon fill="none" stroke="#000000" points="10,-102.7 10,-121.7 81,-121.7 81,-102.7 10,-102.7"/>
<text text-anchor="start" x="13" y="-108.8" font-family="Helvetica,sans-Serif" font-size="11.00" fill="#000000">&lt; 0</text>
<polygon fill="#ffffff" stroke="transparent" points="81,-102.7 81,-121.7 144,-121.7 144,-102.7 81,-102.7"/>
<polygon fill="none" stroke="#000000" points="81,-102.7 81,-121.7 144,-121.7 144,-102.7 81,-102.7"/>
<text text-anchor="start" x="134.8862" y="-108.8" font-family="Helvetica,sans-Serif" font-size="11.00" fill="#000000"> &#160;</text>
<polygon fill="#ffffff" stroke="transparent" points="144,-102.7 144,-121.7 260,-121.7 260,-102.7 144,-102.7"/>
<polygon fill="none" stroke="#000000" points="144,-102.7 144,-121.7 260,-121.7 260,-102.7 144,-102.7"/>
<text text-anchor="start" x="241.4053" y="-108.8" font-family="Helvetica,sans-Serif" font-size="11.00" fill="#000000">4 &gt;</text>
<polygon fill="none" stroke="#000000" stroke-width="2" points="9,-101.7 9,-277.7 261,-277.7 261,-101.7 9,-101.7"/>
</a>
</g>
</g>
<!-- hmpps_domain_event_audit&#45;&gt;audit_revision -->
<g id="edge1" class="edge">
<title>hmpps_domain_event_audit:w&#45;&gt;audit_revision:e</title>
<path fill="none" stroke="#000000" d="M297.2274,-418.3183C243.7085,-397.1959 336.726,-242.7 260,-242.7"/>
<polygon fill="#000000" stroke="#000000" points="303.6091,-419.3832 310.9074,-424.2509 307.5546,-420.0416 311.5,-420.7 311.5,-420.7 311.5,-420.7 307.5546,-420.0416 312.0926,-417.1491 303.6091,-419.3832 303.6091,-419.3832"/>
<ellipse fill="none" stroke="#000000" cx="300.4527" cy="-418.8565" rx="3.2" ry="3.2"/>
</g>
<!-- tap.authorisation_audit -->
<g id="node3" class="node">
<title>tap.authorisation_audit</title>
<g id="a_node3"><a xlink:title="tap.authorisation_audit">
<polygon fill="#ffffff" stroke="transparent" points="317,-246.2 317,-329.2 530,-329.2 530,-246.2 317,-246.2"/>
<polygon fill="#f5f5f5" stroke="transparent" points="317.5,-305.7 317.5,-328.7 530.5,-328.7 530.5,-305.7 317.5,-305.7"/>
<polygon fill="none" stroke="#000000" points="317.5,-305.7 317.5,-328.7 530.5,-328.7 530.5,-305.7 317.5,-305.7"/>
<text text-anchor="start" x="322.5" y="-314.3" font-family="Helvetica,sans-Serif" font-weight="bold" font-size="11.00" fill="#000000">tap.authorisation_audit</text>
<text text-anchor="start" x="495.5437" y="-313.8" font-family="Helvetica,sans-Serif" font-size="11.00" fill="#000000">[table]</text>
<polygon fill="none" stroke="#000000" points="317.5,-283.7 317.5,-305.7 530.5,-305.7 530.5,-283.7 317.5,-283.7"/>
<image xlink:href="../../images/foreignKeys.png" width="11px" height="12px" preserveAspectRatio="xMinYMin meet" x="322.5" y="-300.7"/>
<text text-anchor="start" x="337.5" y="-290.8" font-family="Helvetica,sans-Serif" font-size="11.00" fill="#000000">rev_id</text>
<polygon fill="none" stroke="#000000" points="317.5,-264.7 317.5,-283.7 530.5,-283.7 530.5,-264.7 317.5,-264.7"/>
<text text-anchor="start" x="320.5" y="-270.8" font-family="Helvetica,sans-Serif" font-size="11.00" fill="#000000">...</text>
<polygon fill="#ffffff" stroke="transparent" points="317.5,-245.7 317.5,-264.7 409.5,-264.7 409.5,-245.7 317.5,-245.7"/>
<polygon fill="none" stroke="#000000" points="317.5,-245.7 317.5,-264.7 409.5,-264.7 409.5,-245.7 317.5,-245.7"/>
<text text-anchor="start" x="320.5" y="-251.8" font-family="Helvetica,sans-Serif" font-size="11.00" fill="#000000">&lt; 1</text>
<polygon fill="#ffffff" stroke="transparent" points="409.5,-245.7 409.5,-264.7 482.5,-264.7 482.5,-245.7 409.5,-245.7"/>
<polygon fill="none" stroke="#000000" points="409.5,-245.7 409.5,-264.7 482.5,-264.7 482.5,-245.7 409.5,-245.7"/>
<text text-anchor="start" x="447.1105" y="-251.8" font-family="Helvetica,sans-Serif" font-size="11.00" fill="#000000">0 rows</text>
<polygon fill="#ffffff" stroke="transparent" points="482.5,-245.7 482.5,-264.7 530.5,-264.7 530.5,-245.7 482.5,-245.7"/>
<polygon fill="none" stroke="#000000" points="482.5,-245.7 482.5,-264.7 530.5,-264.7 530.5,-245.7 482.5,-245.7"/>
<text text-anchor="start" x="521.3862" y="-251.8" font-family="Helvetica,sans-Serif" font-size="11.00" fill="#000000"> &#160;</text>
</a>
</g>
</g>
<!-- tap.authorisation_audit&#45;&gt;audit_revision -->
<g id="edge2" class="edge">
<title>tap.authorisation_audit:w&#45;&gt;audit_revision:e</title>
<path fill="none" stroke="#000000" d="M303.585,-290.7915C285.5837,-278.6984 288.6684,-242.7 260,-242.7"/>
<polygon fill="#000000" stroke="#000000" points="309.798,-292.5366 316.5265,-298.1659 313.649,-293.6183 317.5,-294.7 317.5,-294.7 317.5,-294.7 313.649,-293.6183 318.4735,-291.2341 309.798,-292.5366 309.798,-292.5366"/>
<ellipse fill="none" stroke="#000000" cx="306.7173" cy="-291.6713" rx="3.2" ry="3.2"/>
</g>
<!-- tap.movement_audit -->
<g id="node4" class="node">
<title>tap.movement_audit</title>
<g id="a_node4"><a xlink:title="tap.movement_audit">
<polygon fill="#ffffff" stroke="transparent" points="319.5,-142.2 319.5,-225.2 527.5,-225.2 527.5,-142.2 319.5,-142.2"/>
<polygon fill="#f5f5f5" stroke="transparent" points="319.5,-201.7 319.5,-224.7 527.5,-224.7 527.5,-201.7 319.5,-201.7"/>
<polygon fill="none" stroke="#000000" points="319.5,-201.7 319.5,-224.7 527.5,-224.7 527.5,-201.7 319.5,-201.7"/>
<text text-anchor="start" x="324.5" y="-210.3" font-family="Helvetica,sans-Serif" font-weight="bold" font-size="11.00" fill="#000000">tap.movement_audit</text>
<text text-anchor="start" x="492.5437" y="-209.8" font-family="Helvetica,sans-Serif" font-size="11.00" fill="#000000">[table]</text>
<polygon fill="none" stroke="#000000" points="319.5,-179.7 319.5,-201.7 527.5,-201.7 527.5,-179.7 319.5,-179.7"/>
<image xlink:href="../../images/foreignKeys.png" width="11px" height="12px" preserveAspectRatio="xMinYMin meet" x="324.5" y="-196.7"/>
<text text-anchor="start" x="339.5" y="-186.8" font-family="Helvetica,sans-Serif" font-size="11.00" fill="#000000">rev_id</text>
<polygon fill="none" stroke="#000000" points="319.5,-160.7 319.5,-179.7 527.5,-179.7 527.5,-160.7 319.5,-160.7"/>
<text text-anchor="start" x="322.5" y="-166.8" font-family="Helvetica,sans-Serif" font-size="11.00" fill="#000000">...</text>
<polygon fill="#ffffff" stroke="transparent" points="319.5,-141.7 319.5,-160.7 408.5,-160.7 408.5,-141.7 319.5,-141.7"/>
<polygon fill="none" stroke="#000000" points="319.5,-141.7 319.5,-160.7 408.5,-160.7 408.5,-141.7 319.5,-141.7"/>
<text text-anchor="start" x="322.5" y="-147.8" font-family="Helvetica,sans-Serif" font-size="11.00" fill="#000000">&lt; 1</text>
<polygon fill="#ffffff" stroke="transparent" points="408.5,-141.7 408.5,-160.7 480.5,-160.7 480.5,-141.7 408.5,-141.7"/>
<polygon fill="none" stroke="#000000" points="408.5,-141.7 408.5,-160.7 480.5,-160.7 480.5,-141.7 408.5,-141.7"/>
<text text-anchor="start" x="445.1105" y="-147.8" font-family="Helvetica,sans-Serif" font-size="11.00" fill="#000000">0 rows</text>
<polygon fill="#ffffff" stroke="transparent" points="480.5,-141.7 480.5,-160.7 527.5,-160.7 527.5,-141.7 480.5,-141.7"/>
<polygon fill="none" stroke="#000000" points="480.5,-141.7 480.5,-160.7 527.5,-160.7 527.5,-141.7 480.5,-141.7"/>
<text text-anchor="start" x="518.3862" y="-147.8" font-family="Helvetica,sans-Serif" font-size="11.00" fill="#000000"> &#160;</text>
</a>
</g>
</g>
<!-- tap.movement_audit&#45;&gt;audit_revision -->
<g id="edge3" class="edge">
<title>tap.movement_audit:w&#45;&gt;audit_revision:e</title>
<path fill="none" stroke="#000000" d="M305.5124,-194.4397C286.6696,-206.3628 289.3583,-242.7 260,-242.7"/>
<polygon fill="#000000" stroke="#000000" points="311.7715,-192.7663 320.4299,-194.1778 315.6357,-191.7332 319.5,-190.7 319.5,-190.7 319.5,-190.7 315.6357,-191.7332 318.5701,-187.2222 311.7715,-192.7663 311.7715,-192.7663"/>
<ellipse fill="none" stroke="#000000" cx="308.68" cy="-193.5929" rx="3.2" ry="3.2"/>
</g>
<!-- tap.occurrence_audit -->
<g id="node5" class="node">
<title>tap.occurrence_audit</title>
<g id="a_node5"><a xlink:title="tap.occurrence_audit">
<polygon fill="#ffffff" stroke="transparent" points="317,-38.2 317,-121.2 530,-121.2 530,-38.2 317,-38.2"/>
<polygon fill="#f5f5f5" stroke="transparent" points="317.5,-97.7 317.5,-120.7 530.5,-120.7 530.5,-97.7 317.5,-97.7"/>
<polygon fill="none" stroke="#000000" points="317.5,-97.7 317.5,-120.7 530.5,-120.7 530.5,-97.7 317.5,-97.7"/>
<text text-anchor="start" x="322.5" y="-106.3" font-family="Helvetica,sans-Serif" font-weight="bold" font-size="11.00" fill="#000000">tap.occurrence_audit</text>
<text text-anchor="start" x="495.5437" y="-105.8" font-family="Helvetica,sans-Serif" font-size="11.00" fill="#000000">[table]</text>
<polygon fill="none" stroke="#000000" points="317.5,-75.7 317.5,-97.7 530.5,-97.7 530.5,-75.7 317.5,-75.7"/>
<image xlink:href="../../images/foreignKeys.png" width="11px" height="12px" preserveAspectRatio="xMinYMin meet" x="322.5" y="-92.7"/>
<text text-anchor="start" x="337.5" y="-82.8" font-family="Helvetica,sans-Serif" font-size="11.00" fill="#000000">rev_id</text>
<polygon fill="none" stroke="#000000" points="317.5,-56.7 317.5,-75.7 530.5,-75.7 530.5,-56.7 317.5,-56.7"/>
<text text-anchor="start" x="320.5" y="-62.8" font-family="Helvetica,sans-Serif" font-size="11.00" fill="#000000">...</text>
<polygon fill="#ffffff" stroke="transparent" points="317.5,-37.7 317.5,-56.7 409.5,-56.7 409.5,-37.7 317.5,-37.7"/>
<polygon fill="none" stroke="#000000" points="317.5,-37.7 317.5,-56.7 409.5,-56.7 409.5,-37.7 317.5,-37.7"/>
<text text-anchor="start" x="320.5" y="-43.8" font-family="Helvetica,sans-Serif" font-size="11.00" fill="#000000">&lt; 1</text>
<polygon fill="#ffffff" stroke="transparent" points="409.5,-37.7 409.5,-56.7 482.5,-56.7 482.5,-37.7 409.5,-37.7"/>
<polygon fill="none" stroke="#000000" points="409.5,-37.7 409.5,-56.7 482.5,-56.7 482.5,-37.7 409.5,-37.7"/>
<text text-anchor="start" x="447.1105" y="-43.8" font-family="Helvetica,sans-Serif" font-size="11.00" fill="#000000">0 rows</text>
<polygon fill="#ffffff" stroke="transparent" points="482.5,-37.7 482.5,-56.7 530.5,-56.7 530.5,-37.7 482.5,-37.7"/>
<polygon fill="none" stroke="#000000" points="482.5,-37.7 482.5,-56.7 530.5,-56.7 530.5,-37.7 482.5,-37.7"/>
<text text-anchor="start" x="521.3862" y="-43.8" font-family="Helvetica,sans-Serif" font-size="11.00" fill="#000000"> &#160;</text>
</a>
</g>
</g>
<!-- tap.occurrence_audit&#45;&gt;audit_revision -->
<g id="edge4" class="edge">
<title>tap.occurrence_audit:w&#45;&gt;audit_revision:e</title>
<path fill="none" stroke="#000000" d="M303.3269,-89.2775C256.4088,-109.5605 328.2646,-242.7 260,-242.7"/>
<polygon fill="#000000" stroke="#000000" points="309.6291,-88.1314 318.1442,-90.2419 313.5645,-87.4157 317.5,-86.7 317.5,-86.7 317.5,-86.7 313.5645,-87.4157 316.8558,-83.1581 309.6291,-88.1314 309.6291,-88.1314"/>
<ellipse fill="none" stroke="#000000" cx="306.4807" cy="-88.704" rx="3.2" ry="3.2"/>
</g>
</g>
</svg>
