<?xml version="1.0" encoding="UTF-8" standalone="no"?>
<!DOCTYPE svg PUBLIC "-//W3C//DTD SVG 1.1//EN"
 "http://www.w3.org/Graphics/SVG/1.1/DTD/svg11.dtd">
<!-- Generated by graphviz version 2.40.1 (20161225.0304)
 -->
<!-- Title: oneDegreeRelationshipsDiagram Pages: 1 -->
<svg width="636pt" height="889pt"
 viewBox="0.00 0.00 636.00 889.20" xmlns="http://www.w3.org/2000/svg" xmlns:xlink="http://www.w3.org/1999/xlink">
<g id="graph0" class="graph" transform="scale(1 1) rotate(0) translate(4 885.2)">
<title>oneDegreeRelationshipsDiagram</title>
<polygon fill="#ffffff" stroke="transparent" points="-4,4 -4,-885.2 632,-885.2 632,4 -4,4"/>
<text text-anchor="middle" x="72.4936" y="-7.3" font-family="Helvetica,sans-Serif" font-size="11.00" fill="#000000">Generated by SchemaSpy</text>
<!-- hmpps_domain_event_audit -->
<g id="node1" class="node">
<title>hmpps_domain_event_audit</title>
<g id="a_node1"><a xlink:href="../../tables/hmpps_domain_event_audit.html" xlink:title="hmpps_domain_event_audit" target="_top">
<polygon fill="#ffffff" stroke="transparent" points="353,-772.2 353,-877.2 578,-877.2 578,-772.2 353,-772.2"/>
<polygon fill="#f5f5f5" stroke="transparent" points="353.5,-853.7 353.5,-876.7 578.5,-876.7 578.5,-853.7 353.5,-853.7"/>
<polygon fill="none" stroke="#000000" points="353.5,-853.7 353.5,-876.7 578.5,-876.7 578.5,-853.7 353.5,-853.7"/>
<text text-anchor="start" x="358.5" y="-862.3" font-family="Helvetica,sans-Serif" font-weight="bold" font-size="11.00" fill="#000000">hmpps_domain_event_audit</text>
<text text-anchor="start" x="544.0219" y="-861.8" font-family="Helvetica,sans-Serif" font-size="11.00" fill="#000000">[table]</text>
<polygon fill="none" stroke="#000000" points="353.5,-831.7 353.5,-853.7 578.5,-853.7 578.5,-831.7 353.5,-831.7"/>
<image xlink:href="../../images/primaryKeys.png" width="11px" height="12px" preserveAspectRatio="xMinYMin meet" x="358.5" y="-848.7"/>
<text text-anchor="start" x="382.5" y="-838.8" font-family="Helvetica,sans-Serif" font-size="11.00" fill="#000000">rev_id</text>
<polygon fill="none" stroke="#000000" points="353.5,-809.7 353.5,-831.7 578.5,-831.7 578.5,-809.7 353.5,-809.7"/>
<image xlink:href="../../images/primaryKeys.png" width="11px" height="12px" preserveAspectRatio="xMinYMin meet" x="358.5" y="-826.7"/>
<text text-anchor="start" x="382.5" y="-816.8" font-family="Helvetica,sans-Serif" font-size="11.00" fill="#000000">id</text>
<polygon fill="none" stroke="#000000" points="353.5,-790.7 353.5,-809.7 578.5,-809.7 578.5,-790.7 353.5,-790.7"/>
<text text-anchor="start" x="356.5" y="-796.8" font-family="Helvetica,sans-Serif" font-size="11.00" fill="#000000">...</text>
<polygon fill="#ffffff" stroke="transparent" points="353.5,-771.7 353.5,-790.7 464.5,-790.7 464.5,-771.7 353.5,-771.7"/>
<polygon fill="none" stroke="#000000" points="353.5,-771.7 353.5,-790.7 464.5,-790.7 464.5,-771.7 353.5,-771.7"/>
<text text-anchor="start" x="356.5" y="-777.8" font-family="Helvetica,sans-Serif" font-size="11.00" fill="#000000">&lt; 1</text>
<polygon fill="#ffffff" stroke="transparent" points="464.5,-771.7 464.5,-790.7 521.5,-790.7 521.5,-771.7 464.5,-771.7"/>
<polygon fill="none" stroke="#000000" points="464.5,-771.7 464.5,-790.7 521.5,-790.7 521.5,-771.7 464.5,-771.7"/>
<text text-anchor="start" x="512.3862" y="-777.8" font-family="Helvetica,sans-Serif" font-size="11.00" fill="#000000"> &#160;</text>
<polygon fill="#ffffff" stroke="transparent" points="521.5,-771.7 521.5,-790.7 578.5,-790.7 578.5,-771.7 521.5,-771.7"/>
<polygon fill="none" stroke="#000000" points="521.5,-771.7 521.5,-790.7 578.5,-790.7 578.5,-771.7 521.5,-771.7"/>
<text text-anchor="start" x="569.3862" y="-777.8" font-family="Helvetica,sans-Serif" font-size="11.00" fill="#000000"> &#160;</text>
</a>
</g>
</g>
<!-- audit_revision -->
<g id="node2" class="node">
<title>audit_revision</title>
<g id="a_node2"><a xlink:href="../../tables/audit_revision.html" xlink:title="audit_revision" target="_top">
<polygon fill="#ffffff" stroke="transparent" points="8,-278.7 8,-456.7 262,-456.7 262,-278.7 8,-278.7"/>
<polygon fill="#f5f5f5" stroke="transparent" points="10,-431.7 10,-454.7 260,-454.7 260,-431.7 10,-431.7"/>
<polygon fill="none" stroke="#000000" points="10,-431.7 10,-454.7 260,-454.7 260,-431.7 10,-431.7"/>
<text text-anchor="start" x="15" y="-440.3" font-family="Helvetica,sans-Serif" font-weight="bold" font-size="11.00" fill="#000000">audit_revision</text>
<text text-anchor="start" x="225.0437" y="-439.8" font-family="Helvetica,sans-Serif" font-size="11.00" fill="#000000">[table]</text>
<polygon fill="none" stroke="#000000" points="10,-409.7 10,-431.7 144,-431.7 144,-409.7 10,-409.7"/>
<image xlink:href="../../images/primaryKeys.png" width="11px" height="12px" preserveAspectRatio="xMinYMin meet" x="15" y="-426.7"/>
<text text-anchor="start" x="30" y="-416.8" font-family="Helvetica,sans-Serif" font-size="11.00" fill="#000000">id</text>
<polygon fill="none" stroke="#000000" points="144,-409.7 144,-431.7 260,-431.7 260,-409.7 144,-409.7"/>
<text text-anchor="start" x="147" y="-417.4" font-family="Helvetica,sans-Serif" font-size="11.00" fill="#000000">bigserial[19]</text>
<polygon fill="none" stroke="#000000" points="10,-387.7 10,-409.7 144,-409.7 144,-387.7 10,-387.7"/>
<text text-anchor="start" x="30" y="-394.8" font-family="Helvetica,sans-Serif" font-size="11.00" fill="#000000">timestamp</text>
<polygon fill="none" stroke="#000000" points="144,-387.7 144,-409.7 260,-409.7 260,-387.7 144,-387.7"/>
<text text-anchor="start" x="147" y="-395.4" font-family="Helvetica,sans-Serif" font-size="11.00" fill="#000000">timestamp[29,6]</text>
<polygon fill="none" stroke="#000000" points="10,-365.7 10,-387.7 144,-387.7 144,-365.7 10,-365.7"/>
<text text-anchor="start" x="30" y="-372.8" font-family="Helvetica,sans-Serif" font-size="11.00" fill="#000000">username</text>
<polygon fill="none" stroke="#000000" points="144,-365.7 144,-387.7 260,-387.7 260,-365.7 144,-365.7"/>
<text text-anchor="start" x="147" y="-373.4" font-family="Helvetica,sans-Serif" font-size="11.00" fill="#000000">varchar[64]</text>
<polygon fill="none" stroke="#000000" points="10,-343.7 10,-365.7 144,-365.7 144,-343.7 10,-343.7"/>
<text text-anchor="start" x="30" y="-350.8" font-family="Helvetica,sans-Serif" font-size="11.00" fill="#000000">source</text>
<polygon fill="none" stroke="#000000" points="144,-343.7 144,-365.7 260,-365.7 260,-343.7 144,-343.7"/>
<text text-anchor="start" x="147" y="-351.4" font-family="Helvetica,sans-Serif" font-size="11.00" fill="#000000">varchar[6]</text>
<polygon fill="none" stroke="#000000" points="10,-321.7 10,-343.7 144,-343.7 144,-321.7 10,-321.7"/>
<text text-anchor="start" x="30" y="-328.8" font-family="Helvetica,sans-Serif" font-size="11.00" fill="#000000">affected_entities</text>
<polygon fill="none" stroke="#000000" points="144,-321.7 144,-343.7 260,-343.7 260,-321.7 144,-321.7"/>
<text text-anchor="start" x="146.9769" y="-329.4" font-family="Helvetica,sans-Serif" font-size="11.00" fill="#000000">_varchar[2147483647]</text>
<polygon fill="none" stroke="#000000" points="10,-299.7 10,-321.7 144,-321.7 144,-299.7 10,-299.7"/>
<text text-anchor="start" x="30" y="-306.8" font-family="Helvetica,sans-Serif" font-size="11.00" fill="#000000">reason</text>
<polygon fill="none" stroke="#000000" points="144,-299.7 144,-321.7 260,-321.7 260,-299.7 144,-299.7"/>
<text text-anchor="start" x="147" y="-307.4" font-family="Helvetica,sans-Serif" font-size="11.00" fill="#000000">text[2147483647]</text>
<polygon fill="#ffffff" stroke="transparent" points="10,-280.7 10,-299.7 81,-299.7 81,-280.7 10,-280.7"/>
<polygon fill="none" stroke="#000000" points="10,-280.7 10,-299.7 81,-299.7 81,-280.7 10,-280.7"/>
<text text-anchor="start" x="13" y="-286.8" font-family="Helvetica,sans-Serif" font-size="11.00" fill="#000000">&lt; 0</text>
<polygon fill="#ffffff" stroke="transparent" points="81,-280.7 81,-299.7 144,-299.7 144,-280.7 81,-280.7"/>
<polygon fill="none" stroke="#000000" points="81,-280.7 81,-299.7 144,-299.7 144,-280.7 81,-280.7"/>
<text text-anchor="start" x="134.8862" y="-286.8" font-family="Helvetica,sans-Serif" font-size="11.00" fill="#000000"> &#160;</text>
<polygon fill="#ffffff" stroke="transparent" points="144,-280.7 144,-299.7 260,-299.7 260,-280.7 144,-280.7"/>
<polygon fill="none" stroke="#000000" points="144,-280.7 144,-299.7 260,-299.7 260,-280.7 144,-280.7"/>
<text text-anchor="start" x="241.4053" y="-286.8" font-family="Helvetica,sans-Serif" font-size="11.00" fill="#000000">7 &gt;</text>
<polygon fill="none" stroke="#000000" stroke-width="2" points="9,-279.7 9,-455.7 261,-455.7 261,-279.7 9,-279.7"/>
</a>
</g>
</g>
<!-- hmpps_domain_event_audit&#45;&gt;audit_revision -->
<g id="edge1" class="edge">
<title>hmpps_domain_event_audit:w&#45;&gt;audit_revision:e</title>
<path fill="none" stroke="#000000" d="M339.0048,-840.6276C312.346,-831.8211 315.3194,-796.3651 303,-761.7 277.4236,-689.7317 336.3779,-420.7 260,-420.7"/>
<polygon fill="#000000" stroke="#000000" points="345.5805,-841.5677 352.9905,-846.2638 349.5403,-842.1338 353.5,-842.7 353.5,-842.7 353.5,-842.7 349.5403,-842.1338 354.0095,-839.1362 345.5805,-841.5677 345.5805,-841.5677"/>
<ellipse fill="none" stroke="#000000" cx="342.4127" cy="-841.1148" rx="3.2" ry="3.2"/>
</g>
<!-- temporary_absence_authorisation_audit -->
<g id="node3" class="node">
<title>temporary_absence_authorisation_audit</title>
<g id="a_node3"><a xlink:href="../../tables/temporary_absence_authorisation_audit.html" xlink:title="temporary_absence_authorisation_audit" target="_top">
<polygon fill="#ffffff" stroke="transparent" points="311,-624.2 311,-751.2 620,-751.2 620,-624.2 311,-624.2"/>
<polygon fill="#f5f5f5" stroke="transparent" points="311.5,-727.7 311.5,-750.7 620.5,-750.7 620.5,-727.7 311.5,-727.7"/>
<polygon fill="none" stroke="#000000" points="311.5,-727.7 311.5,-750.7 620.5,-750.7 620.5,-727.7 311.5,-727.7"/>
<text text-anchor="start" x="316.5" y="-736.3" font-family="Helvetica,sans-Serif" font-weight="bold" font-size="11.00" fill="#000000">temporary_absence_authorisation_audit</text>
<text text-anchor="start" x="586.0219" y="-735.8" font-family="Helvetica,sans-Serif" font-size="11.00" fill="#000000">[table]</text>
<polygon fill="none" stroke="#000000" points="311.5,-705.7 311.5,-727.7 620.5,-727.7 620.5,-705.7 311.5,-705.7"/>
<image xlink:href="../../images/primaryKeys.png" width="11px" height="12px" preserveAspectRatio="xMinYMin meet" x="316.5" y="-722.7"/>
<text text-anchor="start" x="340.5" y="-712.8" font-family="Helvetica,sans-Serif" font-size="11.00" fill="#000000">rev_id</text>
<polygon fill="none" stroke="#000000" points="311.5,-683.7 311.5,-705.7 620.5,-705.7 620.5,-683.7 311.5,-683.7"/>
<image xlink:href="../../images/primaryKeys.png" width="11px" height="12px" preserveAspectRatio="xMinYMin meet" x="316.5" y="-700.7"/>
<text text-anchor="start" x="340.5" y="-690.8" font-family="Helvetica,sans-Serif" font-size="11.00" fill="#000000">id</text>
<polygon fill="none" stroke="#000000" points="311.5,-661.7 311.5,-683.7 620.5,-683.7 620.5,-661.7 311.5,-661.7"/>
<image xlink:href="../../images/foreignKeys.png" width="11px" height="12px" preserveAspectRatio="xMinYMin meet" x="316.5" y="-678.7"/>
<text text-anchor="start" x="340.5" y="-668.8" font-family="Helvetica,sans-Serif" font-size="11.00" fill="#000000">person_identifier</text>
<polygon fill="none" stroke="#000000" points="311.5,-642.7 311.5,-661.7 620.5,-661.7 620.5,-642.7 311.5,-642.7"/>
<text text-anchor="start" x="314.5" y="-648.8" font-family="Helvetica,sans-Serif" font-size="11.00" fill="#000000">...</text>
<polygon fill="#ffffff" stroke="transparent" points="311.5,-623.7 311.5,-642.7 464.5,-642.7 464.5,-623.7 311.5,-623.7"/>
<polygon fill="none" stroke="#000000" points="311.5,-623.7 311.5,-642.7 464.5,-642.7 464.5,-623.7 311.5,-623.7"/>
<text text-anchor="start" x="314.5" y="-629.8" font-family="Helvetica,sans-Serif" font-size="11.00" fill="#000000">&lt; 1</text>
<polygon fill="#ffffff" stroke="transparent" points="464.5,-623.7 464.5,-642.7 542.5,-642.7 542.5,-623.7 464.5,-623.7"/>
<polygon fill="none" stroke="#000000" points="464.5,-623.7 464.5,-642.7 542.5,-642.7 542.5,-623.7 464.5,-623.7"/>
<text text-anchor="start" x="533.3862" y="-629.8" font-family="Helvetica,sans-Serif" font-size="11.00" fill="#000000"> &#160;</text>
<polygon fill="#ffffff" stroke="transparent" points="542.5,-623.7 542.5,-642.7 620.5,-642.7 620.5,-623.7 542.5,-623.7"/>
<polygon fill="none" stroke="#000000" points="542.5,-623.7 542.5,-642.7 620.5,-642.7 620.5,-623.7 542.5,-623.7"/>
<text text-anchor="start" x="611.3862" y="-629.8" font-family="Helvetica,sans-Serif" font-size="11.00" fill="#000000"> &#160;</text>
</a>
</g>
</g>
<!-- temporary_absence_authorisation_audit&#45;&gt;audit_revision -->
<g id="edge2" class="edge">
<title>temporary_absence_authorisation_audit:w&#45;&gt;audit_revision:e</title>
<path fill="none" stroke="#000000" d="M297.9089,-711.0513C257.1911,-670.1293 321.2891,-420.7 260,-420.7"/>
<polygon fill="#000000" stroke="#000000" points="304.1126,-713.6297 310.1183,-720.0243 307.8063,-715.1648 311.5,-716.7 311.5,-716.7 311.5,-716.7 307.8063,-715.1648 312.8817,-713.3757 304.1126,-713.6297 304.1126,-713.6297"/>
<ellipse fill="none" stroke="#000000" cx="301.1577" cy="-712.4015" rx="3.2" ry="3.2"/>
</g>
<!-- temporary_absence_movement_audit -->
<g id="node4" class="node">
<title>temporary_absence_movement_audit</title>
<g id="a_node4"><a xlink:href="../../tables/temporary_absence_movement_audit.html" xlink:title="temporary_absence_movement_audit" target="_top">
<polygon fill="#ffffff" stroke="transparent" points="320.5,-476.2 320.5,-603.2 610.5,-603.2 610.5,-476.2 320.5,-476.2"/>
<polygon fill="#f5f5f5" stroke="transparent" points="320.5,-579.7 320.5,-602.7 610.5,-602.7 610.5,-579.7 320.5,-579.7"/>
<polygon fill="none" stroke="#000000" points="320.5,-579.7 320.5,-602.7 610.5,-602.7 610.5,-579.7 320.5,-579.7"/>
<text text-anchor="start" x="325.5" y="-588.3" font-family="Helvetica,sans-Serif" font-weight="bold" font-size="11.00" fill="#000000">temporary_absence_movement_audit</text>
<text text-anchor="start" x="576.0219" y="-587.8" font-family="Helvetica,sans-Serif" font-size="11.00" fill="#000000">[table]</text>
<polygon fill="none" stroke="#000000" points="320.5,-557.7 320.5,-579.7 610.5,-579.7 610.5,-557.7 320.5,-557.7"/>
<image xlink:href="../../images/primaryKeys.png" width="11px" height="12px" preserveAspectRatio="xMinYMin meet" x="325.5" y="-574.7"/>
<text text-anchor="start" x="349.5" y="-564.8" font-family="Helvetica,sans-Serif" font-size="11.00" fill="#000000">rev_id</text>
<polygon fill="none" stroke="#000000" points="320.5,-535.7 320.5,-557.7 610.5,-557.7 610.5,-535.7 320.5,-535.7"/>
<image xlink:href="../../images/primaryKeys.png" width="11px" height="12px" preserveAspectRatio="xMinYMin meet" x="325.5" y="-552.7"/>
<text text-anchor="start" x="349.5" y="-542.8" font-family="Helvetica,sans-Serif" font-size="11.00" fill="#000000">id</text>
<polygon fill="none" stroke="#000000" points="320.5,-513.7 320.5,-535.7 610.5,-535.7 610.5,-513.7 320.5,-513.7"/>
<image xlink:href="../../images/foreignKeys.png" width="11px" height="12px" preserveAspectRatio="xMinYMin meet" x="325.5" y="-530.7"/>
<text text-anchor="start" x="349.5" y="-520.8" font-family="Helvetica,sans-Serif" font-size="11.00" fill="#000000">person_identifier</text>
<polygon fill="none" stroke="#000000" points="320.5,-494.7 320.5,-513.7 610.5,-513.7 610.5,-494.7 320.5,-494.7"/>
<text text-anchor="start" x="323.5" y="-500.8" font-family="Helvetica,sans-Serif" font-size="11.00" fill="#000000">...</text>
<polygon fill="#ffffff" stroke="transparent" points="320.5,-475.7 320.5,-494.7 463.5,-494.7 463.5,-475.7 320.5,-475.7"/>
<polygon fill="none" stroke="#000000" points="320.5,-475.7 320.5,-494.7 463.5,-494.7 463.5,-475.7 320.5,-475.7"/>
<text text-anchor="start" x="323.5" y="-481.8" font-family="Helvetica,sans-Serif" font-size="11.00" fill="#000000">&lt; 1</text>
<polygon fill="#ffffff" stroke="transparent" points="463.5,-475.7 463.5,-494.7 536.5,-494.7 536.5,-475.7 463.5,-475.7"/>
<polygon fill="none" stroke="#000000" points="463.5,-475.7 463.5,-494.7 536.5,-494.7 536.5,-475.7 463.5,-475.7"/>
<text text-anchor="start" x="527.3862" y="-481.8" font-family="Helvetica,sans-Serif" font-size="11.00" fill="#000000"> &#160;</text>
<polygon fill="#ffffff" stroke="transparent" points="536.5,-475.7 536.5,-494.7 610.5,-494.7 610.5,-475.7 536.5,-475.7"/>
<polygon fill="none" stroke="#000000" points="536.5,-475.7 536.5,-494.7 610.5,-494.7 610.5,-475.7 536.5,-475.7"/>
<text text-anchor="start" x="601.3862" y="-481.8" font-family="Helvetica,sans-Serif" font-size="11.00" fill="#000000"> &#160;</text>
</a>
</g>
</g>
<!-- temporary_absence_movement_audit&#45;&gt;audit_revision -->
<g id="edge3" class="edge">
<title>temporary_absence_movement_audit:w&#45;&gt;audit_revision:e</title>
<path fill="none" stroke="#000000" d="M306.2091,-566.0048C261.5319,-545.9459 325.371,-420.7 260,-420.7"/>
<polygon fill="#000000" stroke="#000000" points="312.6386,-567.2174 319.8328,-572.2376 316.5693,-567.9587 320.5,-568.7 320.5,-568.7 320.5,-568.7 316.5693,-567.9587 321.1672,-565.1624 312.6386,-567.2174 312.6386,-567.2174"/>
<ellipse fill="none" stroke="#000000" cx="309.494" cy="-566.6243" rx="3.2" ry="3.2"/>
</g>
<!-- temporary_absence_occurrence_audit -->
<g id="node5" class="node">
<title>temporary_absence_occurrence_audit</title>
<g id="a_node5"><a xlink:href="../../tables/temporary_absence_occurrence_audit.html" xlink:title="temporary_absence_occurrence_audit" target="_top">
<polygon fill="#ffffff" stroke="transparent" points="319,-350.2 319,-455.2 612,-455.2 612,-350.2 319,-350.2"/>
<polygon fill="#f5f5f5" stroke="transparent" points="319.5,-431.7 319.5,-454.7 612.5,-454.7 612.5,-431.7 319.5,-431.7"/>
<polygon fill="none" stroke="#000000" points="319.5,-431.7 319.5,-454.7 612.5,-454.7 612.5,-431.7 319.5,-431.7"/>
<text text-anchor="start" x="324.5" y="-440.3" font-family="Helvetica,sans-Serif" font-weight="bold" font-size="11.00" fill="#000000">temporary_absence_occurrence_audit</text>
<text text-anchor="start" x="578.0219" y="-439.8" font-family="Helvetica,sans-Serif" font-size="11.00" fill="#000000">[table]</text>
<polygon fill="none" stroke="#000000" points="319.5,-409.7 319.5,-431.7 612.5,-431.7 612.5,-409.7 319.5,-409.7"/>
<image xlink:href="../../images/primaryKeys.png" width="11px" height="12px" preserveAspectRatio="xMinYMin meet" x="324.5" y="-426.7"/>
<text text-anchor="start" x="348.5" y="-416.8" font-family="Helvetica,sans-Serif" font-size="11.00" fill="#000000">rev_id</text>
<polygon fill="none" stroke="#000000" points="319.5,-387.7 319.5,-409.7 612.5,-409.7 612.5,-387.7 319.5,-387.7"/>
<image xlink:href="../../images/primaryKeys.png" width="11px" height="12px" preserveAspectRatio="xMinYMin meet" x="324.5" y="-404.7"/>
<text text-anchor="start" x="348.5" y="-394.8" font-family="Helvetica,sans-Serif" font-size="11.00" fill="#000000">id</text>
<polygon fill="none" stroke="#000000" points="319.5,-368.7 319.5,-387.7 612.5,-387.7 612.5,-368.7 319.5,-368.7"/>
<text text-anchor="start" x="322.5" y="-374.8" font-family="Helvetica,sans-Serif" font-size="11.00" fill="#000000">...</text>
<polygon fill="#ffffff" stroke="transparent" points="319.5,-349.7 319.5,-368.7 464.5,-368.7 464.5,-349.7 319.5,-349.7"/>
<polygon fill="none" stroke="#000000" points="319.5,-349.7 319.5,-368.7 464.5,-368.7 464.5,-349.7 319.5,-349.7"/>
<text text-anchor="start" x="322.5" y="-355.8" font-family="Helvetica,sans-Serif" font-size="11.00" fill="#000000">&lt; 1</text>
<polygon fill="#ffffff" stroke="transparent" points="464.5,-349.7 464.5,-368.7 538.5,-368.7 538.5,-349.7 464.5,-349.7"/>
<polygon fill="none" stroke="#000000" points="464.5,-349.7 464.5,-368.7 538.5,-368.7 538.5,-349.7 464.5,-349.7"/>
<text text-anchor="start" x="529.3862" y="-355.8" font-family="Helvetica,sans-Serif" font-size="11.00" fill="#000000"> &#160;</text>
<polygon fill="#ffffff" stroke="transparent" points="538.5,-349.7 538.5,-368.7 612.5,-368.7 612.5,-349.7 538.5,-349.7"/>
<polygon fill="none" stroke="#000000" points="538.5,-349.7 538.5,-368.7 612.5,-368.7 612.5,-349.7 538.5,-349.7"/>
<text text-anchor="start" x="603.3862" y="-355.8" font-family="Helvetica,sans-Serif" font-size="11.00" fill="#000000"> &#160;</text>
</a>
</g>
</g>
<!-- temporary_absence_occurrence_audit&#45;&gt;audit_revision -->
<g id="edge4" class="edge">
<title>temporary_absence_occurrence_audit:w&#45;&gt;audit_revision:e</title>
<path fill="none" stroke="#000000" d="M305.0408,-420.7C289.384,-420.7 280.8663,-420.7 260,-420.7"/>
<polygon fill="#000000" stroke="#000000" points="311.5,-420.7001 319.5,-424.3 315.5,-420.7 319.5,-420.7 319.5,-420.7 319.5,-420.7 315.5,-420.7 319.5,-417.1 311.5,-420.7001 311.5,-420.7001"/>
<ellipse fill="none" stroke="#000000" cx="308.3" cy="-420.7001" rx="3.2" ry="3.2"/>
</g>
<!-- tap.authorisation_audit -->
<g id="node6" class="node">
<title>tap.authorisation_audit</title>
<g id="a_node6"><a xlink:title="tap.authorisation_audit">
<polygon fill="#ffffff" stroke="transparent" points="359,-246.2 359,-329.2 572,-329.2 572,-246.2 359,-246.2"/>
<polygon fill="#f5f5f5" stroke="transparent" points="359.5,-305.7 359.5,-328.7 572.5,-328.7 572.5,-305.7 359.5,-305.7"/>
<polygon fill="none" stroke="#000000" points="359.5,-305.7 359.5,-328.7 572.5,-328.7 572.5,-305.7 359.5,-305.7"/>
<text text-anchor="start" x="364.5" y="-314.3" font-family="Helvetica,sans-Serif" font-weight="bold" font-size="11.00" fill="#000000">tap.authorisation_audit</text>
<text text-anchor="start" x="537.5437" y="-313.8" font-family="Helvetica,sans-Serif" font-size="11.00" fill="#000000">[table]</text>
<polygon fill="none" stroke="#000000" points="359.5,-283.7 359.5,-305.7 572.5,-305.7 572.5,-283.7 359.5,-283.7"/>
<image xlink:href="../../images/foreignKeys.png" width="11px" height="12px" preserveAspectRatio="xMinYMin meet" x="364.5" y="-300.7"/>
<text text-anchor="start" x="379.5" y="-290.8" font-family="Helvetica,sans-Serif" font-size="11.00" fill="#000000">rev_id</text>
<polygon fill="none" stroke="#000000" points="359.5,-264.7 359.5,-283.7 572.5,-283.7 572.5,-264.7 359.5,-264.7"/>
<text text-anchor="start" x="362.5" y="-270.8" font-family="Helvetica,sans-Serif" font-size="11.00" fill="#000000">...</text>
<polygon fill="#ffffff" stroke="transparent" points="359.5,-245.7 359.5,-264.7 451.5,-264.7 451.5,-245.7 359.5,-245.7"/>
<polygon fill="none" stroke="#000000" points="359.5,-245.7 359.5,-264.7 451.5,-264.7 451.5,-245.7 359.5,-245.7"/>
<text text-anchor="start" x="362.5" y="-251.8" font-family="Helvetica,sans-Serif" font-size="11.00" fill="#000000">&lt; 1</text>
<polygon fill="#ffffff" stroke="transparent" points="451.5,-245.7 451.5,-264.7 524.5,-264.7 524.5,-245.7 451.5,-245.7"/>
<polygon fill="none" stroke="#000000" points="451.5,-245.7 451.5,-264.7 524.5,-264.7 524.5,-245.7 451.5,-245.7"/>
<text text-anchor="start" x="489.1105" y="-251.8" font-family="Helvetica,sans-Serif" font-size="11.00" fill="#000000">0 rows</text>
<polygon fill="#ffffff" stroke="transparent" points="524.5,-245.7 524.5,-264.7 572.5,-264.7 572.5,-245.7 524.5,-245.7"/>
<polygon fill="none" stroke="#000000" points="524.5,-245.7 524.5,-264.7 572.5,-264.7 572.5,-245.7 524.5,-245.7"/>
<text text-anchor="start" x="563.3862" y="-251.8" font-family="Helvetica,sans-Serif" font-size="11.00" fill="#000000"> &#160;</text>
</a>
</g>
</g>
<!-- tap.authorisation_audit&#45;&gt;audit_revision -->
<g id="edge5" class="edge">
<title>tap.authorisation_audit:w&#45;&gt;audit_revision:e</title>
<path fill="none" stroke="#000000" d="M344.943,-296.4958C325.5177,-301.9741 319.9061,-319.346 303,-339.7 276.9577,-371.0534 300.7582,-420.7 260,-420.7"/>
<polygon fill="#000000" stroke="#000000" points="351.5602,-295.6795 359.9408,-298.2729 355.5301,-295.1898 359.5,-294.7 359.5,-294.7 359.5,-294.7 355.5301,-295.1898 359.0592,-291.1271 351.5602,-295.6795 351.5602,-295.6795"/>
<ellipse fill="none" stroke="#000000" cx="348.3843" cy="-296.0713" rx="3.2" ry="3.2"/>
</g>
<!-- tap.movement_audit -->
<g id="node7" class="node">
<title>tap.movement_audit</title>
<g id="a_node7"><a xlink:title="tap.movement_audit">
<polygon fill="#ffffff" stroke="transparent" points="361.5,-142.2 361.5,-225.2 569.5,-225.2 569.5,-142.2 361.5,-142.2"/>
<polygon fill="#f5f5f5" stroke="transparent" points="361.5,-201.7 361.5,-224.7 569.5,-224.7 569.5,-201.7 361.5,-201.7"/>
<polygon fill="none" stroke="#000000" points="361.5,-201.7 361.5,-224.7 569.5,-224.7 569.5,-201.7 361.5,-201.7"/>
<text text-anchor="start" x="366.5" y="-210.3" font-family="Helvetica,sans-Serif" font-weight="bold" font-size="11.00" fill="#000000">tap.movement_audit</text>
<text text-anchor="start" x="534.5437" y="-209.8" font-family="Helvetica,sans-Serif" font-size="11.00" fill="#000000">[table]</text>
<polygon fill="none" stroke="#000000" points="361.5,-179.7 361.5,-201.7 569.5,-201.7 569.5,-179.7 361.5,-179.7"/>
<image xlink:href="../../images/foreignKeys.png" width="11px" height="12px" preserveAspectRatio="xMinYMin meet" x="366.5" y="-196.7"/>
<text text-anchor="start" x="381.5" y="-186.8" font-family="Helvetica,sans-Serif" font-size="11.00" fill="#000000">rev_id</text>
<polygon fill="none" stroke="#000000" points="361.5,-160.7 361.5,-179.7 569.5,-179.7 569.5,-160.7 361.5,-160.7"/>
<text text-anchor="start" x="364.5" y="-166.8" font-family="Helvetica,sans-Serif" font-size="11.00" fill="#000000">...</text>
<polygon fill="#ffffff" stroke="transparent" points="361.5,-141.7 361.5,-160.7 450.5,-160.7 450.5,-141.7 361.5,-141.7"/>
<polygon fill="none" stroke="#000000" points="361.5,-141.7 361.5,-160.7 450.5,-160.7 450.5,-141.7 361.5,-141.7"/>
<text text-anchor="start" x="364.5" y="-147.8" font-family="Helvetica,sans-Serif" font-size="11.00" fill="#000000">&lt; 1</text>
<polygon fill="#ffffff" stroke="transparent" points="450.5,-141.7 450.5,-160.7 522.5,-160.7 522.5,-141.7 450.5,-141.7"/>
<polygon fill="none" stroke="#000000" points="450.5,-141.7 450.5,-160.7 522.5,-160.7 522.5,-141.7 450.5,-141.7"/>
<text text-anchor="start" x="487.1105" y="-147.8" font-family="Helvetica,sans-Serif" font-size="11.00" fill="#000000">0 rows</text>
<polygon fill="#ffffff" stroke="transparent" points="522.5,-141.7 522.5,-160.7 569.5,-160.7 569.5,-141.7 522.5,-141.7"/>
<polygon fill="none" stroke="#000000" points="522.5,-141.7 522.5,-160.7 569.5,-160.7 569.5,-141.7 522.5,-141.7"/>
<text text-anchor="start" x="560.3862" y="-147.8" font-family="Helvetica,sans-Serif" font-size="11.00" fill="#000000"> &#160;</text>
</a>
</g>
</g>
<!-- tap.movement_audit&#45;&gt;audit_revision -->
<g id="edge6" class="edge">
<title>tap.movement_audit:w&#45;&gt;audit_revision:e</title>
<path fill="none" stroke="#000000" d="M346.9101,-192.1396C325.7509,-196.8371 317.7679,-212.7479 303,-235.7 257.324,-306.6889 344.414,-420.7 260,-420.7"/>
<polygon fill="#000000" stroke="#000000" points="353.5387,-191.4856 361.8535,-194.2826 357.5193,-191.0928 361.5,-190.7 361.5,-190.7 361.5,-190.7 357.5193,-191.0928 361.1465,-187.1174 353.5387,-191.4856 353.5387,-191.4856"/>
<ellipse fill="none" stroke="#000000" cx="350.3541" cy="-191.7999" rx="3.2" ry="3.2"/>
</g>
<!-- tap.occurrence_audit -->
<g id="node8" class="node">
<title>tap.occurrence_audit</title>
<g id="a_node8"><a xlink:title="tap.occurrence_audit">
<polygon fill="#ffffff" stroke="transparent" points="359,-38.2 359,-121.2 572,-121.2 572,-38.2 359,-38.2"/>
<polygon fill="#f5f5f5" stroke="transparent" points="359.5,-97.7 359.5,-120.7 572.5,-120.7 572.5,-97.7 359.5,-97.7"/>
<polygon fill="none" stroke="#000000" points="359.5,-97.7 359.5,-120.7 572.5,-120.7 572.5,-97.7 359.5,-97.7"/>
<text text-anchor="start" x="364.5" y="-106.3" font-family="Helvetica,sans-Serif" font-weight="bold" font-size="11.00" fill="#000000">tap.occurrence_audit</text>
<text text-anchor="start" x="537.5437" y="-105.8" font-family="Helvetica,sans-Serif" font-size="11.00" fill="#000000">[table]</text>
<polygon fill="none" stroke="#000000" points="359.5,-75.7 359.5,-97.7 572.5,-97.7 572.5,-75.7 359.5,-75.7"/>
<image xlink:href="../../images/foreignKeys.png" width="11px" height="12px" preserveAspectRatio="xMinYMin meet" x="364.5" y="-92.7"/>
<text text-anchor="start" x="379.5" y="-82.8" font-family="Helvetica,sans-Serif" font-size="11.00" fill="#000000">rev_id</text>
<polygon fill="none" stroke="#000000" points="359.5,-56.7 359.5,-75.7 572.5,-75.7 572.5,-56.7 359.5,-56.7"/>
<text text-anchor="start" x="362.5" y="-62.8" font-family="Helvetica,sans-Serif" font-size="11.00" fill="#000000">...</text>
<polygon fill="#ffffff" stroke="transparent" points="359.5,-37.7 359.5,-56.7 451.5,-56.7 451.5,-37.7 359.5,-37.7"/>
<polygon fill="none" stroke="#000000" points="359.5,-37.7 359.5,-56.7 451.5,-56.7 451.5,-37.7 359.5,-37.7"/>
<text text-anchor="start" x="362.5" y="-43.8" font-family="Helvetica,sans-Serif" font-size="11.00" fill="#000000">&lt; 1</text>
<polygon fill="#ffffff" stroke="transparent" points="451.5,-37.7 451.5,-56.7 524.5,-56.7 524.5,-37.7 451.5,-37.7"/>
<polygon fill="none" stroke="#000000" points="451.5,-37.7 451.5,-56.7 524.5,-56.7 524.5,-37.7 451.5,-37.7"/>
<text text-anchor="start" x="489.1105" y="-43.8" font-family="Helvetica,sans-Serif" font-size="11.00" fill="#000000">0 rows</text>
<polygon fill="#ffffff" stroke="transparent" points="524.5,-37.7 524.5,-56.7 572.5,-56.7 572.5,-37.7 524.5,-37.7"/>
<polygon fill="none" stroke="#000000" points="524.5,-37.7 524.5,-56.7 572.5,-56.7 572.5,-37.7 524.5,-37.7"/>
<text text-anchor="start" x="563.3862" y="-43.8" font-family="Helvetica,sans-Serif" font-size="11.00" fill="#000000"> &#160;</text>
</a>
</g>
</g>
<!-- tap.occurrence_audit&#45;&gt;audit_revision -->
<g id="edge7" class="edge">
<title>tap.occurrence_audit:w&#45;&gt;audit_revision:e</title>
<path fill="none" stroke="#000000" d="M344.8915,-88.1899C324.2958,-92.9223 316.2777,-108.6684 303,-131.7 270.5712,-187.951 324.9292,-420.7 260,-420.7"/>
<polygon fill="#000000" stroke="#000000" points="351.5413,-87.5118 359.8653,-90.2814 355.5206,-87.1059 359.5,-86.7 359.5,-86.7 359.5,-86.7 355.5206,-87.1059 359.1347,-83.1186 351.5413,-87.5118 351.5413,-87.5118"/>
<ellipse fill="none" stroke="#000000" cx="348.3578" cy="-87.8365" rx="3.2" ry="3.2"/>
</g>
</g>
</svg>
