<?xml version="1.0" encoding="UTF-8" standalone="no"?>
<!DOCTYPE svg PUBLIC "-//W3C//DTD SVG 1.1//EN"
 "http://www.w3.org/Graphics/SVG/1.1/DTD/svg11.dtd">
<!-- Generated by graphviz version 2.40.1 (20161225.0304)
 -->
<!-- Title: twoDegreesRelationshipsDiagramImplied Pages: 1 -->
<svg width="536pt" height="865pt"
 viewBox="0.00 0.00 536.00 864.70" xmlns="http://www.w3.org/2000/svg" xmlns:xlink="http://www.w3.org/1999/xlink">
<g id="graph0" class="graph" transform="scale(1 1) rotate(0) translate(4 860.7)">
<title>twoDegreesRelationshipsDiagramImplied</title>
<polygon fill="#ffffff" stroke="transparent" points="-4,4 -4,-860.7 532,-860.7 532,4 -4,4"/>
<text text-anchor="middle" x="72.4936" y="-7.3" font-family="Helvetica,sans-Serif" font-size="11.00" fill="#000000">Generated by SchemaSpy</text>
<!-- audited_tap_authorisation -->
<g id="node1" class="node">
<title>audited_tap_authorisation</title>
<g id="a_node1"><a xlink:href="../../tables/audited_tap_authorisation.html" xlink:title="audited_tap_authorisation" target="_top">
<polygon fill="#ffffff" stroke="transparent" points="258,-810.7 258,-852.7 473,-852.7 473,-810.7 258,-810.7"/>
<polygon fill="#f5f5f5" stroke="transparent" points="258.5,-829.7 258.5,-852.7 473.5,-852.7 473.5,-829.7 258.5,-829.7"/>
<polygon fill="none" stroke="#000000" points="258.5,-829.7 258.5,-852.7 473.5,-852.7 473.5,-829.7 258.5,-829.7"/>
<text text-anchor="start" x="263.5" y="-838.3" font-family="Helvetica,sans-Serif" font-weight="bold" font-size="11.00" fill="#000000">audited_tap_authorisation</text>
<text text-anchor="start" x="440.4448" y="-837.8" font-family="Helvetica,sans-Serif" font-size="11.00" fill="#000000">[view]</text>
<polygon fill="none" stroke="#000000" points="258.5,-810.7 258.5,-829.7 473.5,-829.7 473.5,-810.7 258.5,-810.7"/>
<text text-anchor="start" x="261.5" y="-816.8" font-family="Helvetica,sans-Serif" font-size="11.00" fill="#000000">...</text>
</a>
</g>
</g>
<!-- person_summary -->
<g id="node2" class="node">
<title>person_summary</title>
<g id="a_node2"><a xlink:href="../../tables/person_summary.html" xlink:title="person_summary" target="_top">
<polygon fill="#ffffff" stroke="transparent" points="8,-222.2 8,-305.2 162,-305.2 162,-222.2 8,-222.2"/>
<polygon fill="#f5f5f5" stroke="transparent" points="8,-281.7 8,-304.7 162,-304.7 162,-281.7 8,-281.7"/>
<polygon fill="none" stroke="#000000" points="8,-281.7 8,-304.7 162,-304.7 162,-281.7 8,-281.7"/>
<text text-anchor="start" x="13" y="-290.3" font-family="Helvetica,sans-Serif" font-weight="bold" font-size="11.00" fill="#000000">person_summary</text>
<text text-anchor="start" x="127.5219" y="-289.8" font-family="Helvetica,sans-Serif" font-size="11.00" fill="#000000">[table]</text>
<polygon fill="none" stroke="#000000" points="8,-259.7 8,-281.7 162,-281.7 162,-259.7 8,-259.7"/>
<image xlink:href="../../images/primaryKeys.png" width="11px" height="12px" preserveAspectRatio="xMinYMin meet" x="13" y="-276.7"/>
<text text-anchor="start" x="37" y="-266.8" font-family="Helvetica,sans-Serif" font-size="11.00" fill="#000000">person_identifier</text>
<polygon fill="none" stroke="#000000" points="8,-240.7 8,-259.7 162,-259.7 162,-240.7 8,-240.7"/>
<text text-anchor="start" x="11" y="-246.8" font-family="Helvetica,sans-Serif" font-size="11.00" fill="#000000">...</text>
<polygon fill="#ffffff" stroke="transparent" points="8,-221.7 8,-240.7 74,-240.7 74,-221.7 8,-221.7"/>
<polygon fill="none" stroke="#000000" points="8,-221.7 8,-240.7 74,-240.7 74,-221.7 8,-221.7"/>
<text text-anchor="start" x="11" y="-227.8" font-family="Helvetica,sans-Serif" font-size="11.00" fill="#000000"> &#160;</text>
<polygon fill="#ffffff" stroke="transparent" points="74,-221.7 74,-240.7 113,-240.7 113,-221.7 74,-221.7"/>
<polygon fill="none" stroke="#000000" points="74,-221.7 74,-240.7 113,-240.7 113,-221.7 74,-221.7"/>
<text text-anchor="start" x="103.8862" y="-227.8" font-family="Helvetica,sans-Serif" font-size="11.00" fill="#000000"> &#160;</text>
<polygon fill="#ffffff" stroke="transparent" points="113,-221.7 113,-240.7 162,-240.7 162,-221.7 113,-221.7"/>
<polygon fill="none" stroke="#000000" points="113,-221.7 113,-240.7 162,-240.7 162,-221.7 113,-221.7"/>
<text text-anchor="start" x="143.4053" y="-227.8" font-family="Helvetica,sans-Serif" font-size="11.00" fill="#000000">6 &gt;</text>
</a>
</g>
</g>
<!-- audited_tap_authorisation&#45;&gt;person_summary -->
<g id="edge1" class="edge">
<title>audited_tap_authorisation:w&#45;&gt;person_summary:e</title>
<path fill="none" stroke="#000000" stroke-dasharray="5,2" d="M243.9822,-819.6167C226.738,-819.1515 215.6634,-816.3187 203,-799.7 167.2685,-752.8082 220.9541,-270.7 162,-270.7"/>
<polygon fill="#000000" stroke="#000000" points="250.5001,-819.654 258.4793,-823.2999 254.5001,-819.677 258.5,-819.7 258.5,-819.7 258.5,-819.7 254.5001,-819.677 258.5207,-816.1001 250.5001,-819.654 250.5001,-819.654"/>
<ellipse fill="none" stroke="#000000" cx="247.3002" cy="-819.6357" rx="3.2" ry="3.2"/>
</g>
<!-- audited_tap_movement -->
<g id="node3" class="node">
<title>audited_tap_movement</title>
<g id="a_node3"><a xlink:href="../../tables/audited_tap_movement.html" xlink:title="audited_tap_movement" target="_top">
<polygon fill="#ffffff" stroke="transparent" points="219,-366.2 219,-789.2 512,-789.2 512,-366.2 219,-366.2"/>
<polygon fill="#f5f5f5" stroke="transparent" points="221.5,-763.7 221.5,-786.7 510.5,-786.7 510.5,-763.7 221.5,-763.7"/>
<polygon fill="none" stroke="#000000" points="221.5,-763.7 221.5,-786.7 510.5,-786.7 510.5,-763.7 221.5,-763.7"/>
<text text-anchor="start" x="226.5" y="-772.3" font-family="Helvetica,sans-Serif" font-weight="bold" font-size="11.00" fill="#000000">audited_tap_movement</text>
<text text-anchor="start" x="477.3895" y="-771.8" font-family="Helvetica,sans-Serif" font-size="11.00" fill="#000000">[view]</text>
<polygon fill="none" stroke="#000000" points="221.5,-741.7 221.5,-763.7 411.5,-763.7 411.5,-741.7 221.5,-741.7"/>
<text text-anchor="start" x="241.5" y="-748.8" font-family="Helvetica,sans-Serif" font-size="11.00" fill="#000000">created_by</text>
<polygon fill="none" stroke="#000000" points="411.5,-741.7 411.5,-763.7 510.5,-763.7 510.5,-741.7 411.5,-741.7"/>
<text text-anchor="start" x="414.5" y="-749.4" font-family="Helvetica,sans-Serif" font-size="11.00" fill="#000000">varchar[64]</text>
<polygon fill="none" stroke="#000000" points="221.5,-719.7 221.5,-741.7 411.5,-741.7 411.5,-719.7 221.5,-719.7"/>
<text text-anchor="start" x="241.5" y="-726.8" font-family="Helvetica,sans-Serif" font-size="11.00" fill="#000000">created_at</text>
<polygon fill="none" stroke="#000000" points="411.5,-719.7 411.5,-741.7 510.5,-741.7 510.5,-719.7 411.5,-719.7"/>
<text text-anchor="start" x="414.5" y="-727.4" font-family="Helvetica,sans-Serif" font-size="11.00" fill="#000000">timestamp[29,6]</text>
<polygon fill="none" stroke="#000000" points="221.5,-697.7 221.5,-719.7 411.5,-719.7 411.5,-697.7 221.5,-697.7"/>
<text text-anchor="start" x="241.5" y="-704.8" font-family="Helvetica,sans-Serif" font-size="11.00" fill="#000000">updated_by</text>
<polygon fill="none" stroke="#000000" points="411.5,-697.7 411.5,-719.7 510.5,-719.7 510.5,-697.7 411.5,-697.7"/>
<text text-anchor="start" x="414.5" y="-705.4" font-family="Helvetica,sans-Serif" font-size="11.00" fill="#000000">varchar[64]</text>
<polygon fill="none" stroke="#000000" points="221.5,-675.7 221.5,-697.7 411.5,-697.7 411.5,-675.7 221.5,-675.7"/>
<text text-anchor="start" x="241.5" y="-682.8" font-family="Helvetica,sans-Serif" font-size="11.00" fill="#000000">updated_at</text>
<polygon fill="none" stroke="#000000" points="411.5,-675.7 411.5,-697.7 510.5,-697.7 510.5,-675.7 411.5,-675.7"/>
<text text-anchor="start" x="414.5" y="-683.4" font-family="Helvetica,sans-Serif" font-size="11.00" fill="#000000">timestamp[29,6]</text>
<polygon fill="none" stroke="#000000" points="221.5,-653.7 221.5,-675.7 411.5,-675.7 411.5,-653.7 221.5,-653.7"/>
<text text-anchor="start" x="241.5" y="-660.8" font-family="Helvetica,sans-Serif" font-size="11.00" fill="#000000">rev_type</text>
<polygon fill="none" stroke="#000000" points="411.5,-653.7 411.5,-675.7 510.5,-675.7 510.5,-653.7 411.5,-653.7"/>
<text text-anchor="start" x="414.5" y="-661.4" font-family="Helvetica,sans-Serif" font-size="11.00" fill="#000000">int2[5]</text>
<polygon fill="none" stroke="#000000" points="221.5,-631.7 221.5,-653.7 411.5,-653.7 411.5,-631.7 221.5,-631.7"/>
<text text-anchor="start" x="241.5" y="-638.8" font-family="Helvetica,sans-Serif" font-size="11.00" fill="#000000">id</text>
<polygon fill="none" stroke="#000000" points="411.5,-631.7 411.5,-653.7 510.5,-653.7 510.5,-631.7 411.5,-631.7"/>
<text text-anchor="start" x="414.5" y="-639.4" font-family="Helvetica,sans-Serif" font-size="11.00" fill="#000000">uuid[2147483647]</text>
<polygon fill="none" stroke="#000000" points="221.5,-609.7 221.5,-631.7 411.5,-631.7 411.5,-609.7 221.5,-609.7"/>
<text text-anchor="start" x="241.5" y="-616.8" font-family="Helvetica,sans-Serif" font-size="11.00" fill="#000000">version</text>
<polygon fill="none" stroke="#000000" points="411.5,-609.7 411.5,-631.7 510.5,-631.7 510.5,-609.7 411.5,-609.7"/>
<text text-anchor="start" x="414.5" y="-617.4" font-family="Helvetica,sans-Serif" font-size="11.00" fill="#000000">int4[10]</text>
<polygon fill="none" stroke="#000000" points="221.5,-587.7 221.5,-609.7 411.5,-609.7 411.5,-587.7 221.5,-587.7"/>
<image xlink:href="../../images/foreignKeys.png" width="11px" height="12px" preserveAspectRatio="xMinYMin meet" x="226.5" y="-604.7"/>
<text text-anchor="start" x="241.5" y="-594.8" font-family="Helvetica,sans-Serif" font-size="11.00" fill="#000000">person_identifier</text>
<polygon fill="none" stroke="#000000" points="411.5,-587.7 411.5,-609.7 510.5,-609.7 510.5,-587.7 411.5,-587.7"/>
<text text-anchor="start" x="414.5" y="-595.4" font-family="Helvetica,sans-Serif" font-size="11.00" fill="#000000">varchar[10]</text>
<polygon fill="none" stroke="#000000" points="221.5,-565.7 221.5,-587.7 411.5,-587.7 411.5,-565.7 221.5,-565.7"/>
<text text-anchor="start" x="241.5" y="-572.8" font-family="Helvetica,sans-Serif" font-size="11.00" fill="#000000">occurrence_id</text>
<polygon fill="none" stroke="#000000" points="411.5,-565.7 411.5,-587.7 510.5,-587.7 510.5,-565.7 411.5,-565.7"/>
<text text-anchor="start" x="414.5" y="-573.4" font-family="Helvetica,sans-Serif" font-size="11.00" fill="#000000">uuid[2147483647]</text>
<polygon fill="none" stroke="#000000" points="221.5,-543.7 221.5,-565.7 411.5,-565.7 411.5,-543.7 221.5,-543.7"/>
<text text-anchor="start" x="241.5" y="-550.8" font-family="Helvetica,sans-Serif" font-size="11.00" fill="#000000">occurred_at</text>
<polygon fill="none" stroke="#000000" points="411.5,-543.7 411.5,-565.7 510.5,-565.7 510.5,-543.7 411.5,-543.7"/>
<text text-anchor="start" x="414.5" y="-551.4" font-family="Helvetica,sans-Serif" font-size="11.00" fill="#000000">timestamp[29,6]</text>
<polygon fill="none" stroke="#000000" points="221.5,-521.7 221.5,-543.7 411.5,-543.7 411.5,-521.7 221.5,-521.7"/>
<text text-anchor="start" x="241.5" y="-528.8" font-family="Helvetica,sans-Serif" font-size="11.00" fill="#000000">direction</text>
<polygon fill="none" stroke="#000000" points="411.5,-521.7 411.5,-543.7 510.5,-543.7 510.5,-521.7 411.5,-521.7"/>
<text text-anchor="start" x="414.5" y="-529.4" font-family="Helvetica,sans-Serif" font-size="11.00" fill="#000000">varchar[3]</text>
<polygon fill="none" stroke="#000000" points="221.5,-499.7 221.5,-521.7 411.5,-521.7 411.5,-499.7 221.5,-499.7"/>
<text text-anchor="start" x="241.5" y="-506.8" font-family="Helvetica,sans-Serif" font-size="11.00" fill="#000000">absence_reason_id</text>
<polygon fill="none" stroke="#000000" points="411.5,-499.7 411.5,-521.7 510.5,-521.7 510.5,-499.7 411.5,-499.7"/>
<text text-anchor="start" x="414.5" y="-507.4" font-family="Helvetica,sans-Serif" font-size="11.00" fill="#000000">int8[19]</text>
<polygon fill="none" stroke="#000000" points="221.5,-477.7 221.5,-499.7 411.5,-499.7 411.5,-477.7 221.5,-477.7"/>
<text text-anchor="start" x="241.5" y="-484.8" font-family="Helvetica,sans-Serif" font-size="11.00" fill="#000000">accompanied_by_id</text>
<polygon fill="none" stroke="#000000" points="411.5,-477.7 411.5,-499.7 510.5,-499.7 510.5,-477.7 411.5,-477.7"/>
<text text-anchor="start" x="414.5" y="-485.4" font-family="Helvetica,sans-Serif" font-size="11.00" fill="#000000">int8[19]</text>
<polygon fill="none" stroke="#000000" points="221.5,-455.7 221.5,-477.7 411.5,-477.7 411.5,-455.7 221.5,-455.7"/>
<text text-anchor="start" x="241.5" y="-462.8" font-family="Helvetica,sans-Serif" font-size="11.00" fill="#000000">accompanied_by_notes</text>
<polygon fill="none" stroke="#000000" points="411.5,-455.7 411.5,-477.7 510.5,-477.7 510.5,-455.7 411.5,-455.7"/>
<text text-anchor="start" x="414.5" y="-463.4" font-family="Helvetica,sans-Serif" font-size="11.00" fill="#000000">text[2147483647]</text>
<polygon fill="none" stroke="#000000" points="221.5,-433.7 221.5,-455.7 411.5,-455.7 411.5,-433.7 221.5,-433.7"/>
<text text-anchor="start" x="241.5" y="-440.8" font-family="Helvetica,sans-Serif" font-size="11.00" fill="#000000">notes</text>
<polygon fill="none" stroke="#000000" points="411.5,-433.7 411.5,-455.7 510.5,-455.7 510.5,-433.7 411.5,-433.7"/>
<text text-anchor="start" x="414.5" y="-441.4" font-family="Helvetica,sans-Serif" font-size="11.00" fill="#000000">text[2147483647]</text>
<polygon fill="none" stroke="#000000" points="221.5,-411.7 221.5,-433.7 411.5,-433.7 411.5,-411.7 221.5,-411.7"/>
<text text-anchor="start" x="241.5" y="-418.8" font-family="Helvetica,sans-Serif" font-size="11.00" fill="#000000">recorded_by_prison_code</text>
<polygon fill="none" stroke="#000000" points="411.5,-411.7 411.5,-433.7 510.5,-433.7 510.5,-411.7 411.5,-411.7"/>
<text text-anchor="start" x="414.5" y="-419.4" font-family="Helvetica,sans-Serif" font-size="11.00" fill="#000000">varchar[6]</text>
<polygon fill="none" stroke="#000000" points="221.5,-389.7 221.5,-411.7 411.5,-411.7 411.5,-389.7 221.5,-389.7"/>
<text text-anchor="start" x="241.5" y="-396.8" font-family="Helvetica,sans-Serif" font-size="11.00" fill="#000000">legacy_id</text>
<polygon fill="none" stroke="#000000" points="411.5,-389.7 411.5,-411.7 510.5,-411.7 510.5,-389.7 411.5,-389.7"/>
<text text-anchor="start" x="414.5" y="-397.4" font-family="Helvetica,sans-Serif" font-size="11.00" fill="#000000">varchar[32]</text>
<polygon fill="none" stroke="#000000" points="221.5,-367.7 221.5,-389.7 411.5,-389.7 411.5,-367.7 221.5,-367.7"/>
<text text-anchor="start" x="241.5" y="-374.8" font-family="Helvetica,sans-Serif" font-size="11.00" fill="#000000">location</text>
<polygon fill="none" stroke="#000000" points="411.5,-367.7 411.5,-389.7 510.5,-389.7 510.5,-367.7 411.5,-367.7"/>
<text text-anchor="start" x="414.2258" y="-375.4" font-family="Helvetica,sans-Serif" font-size="11.00" fill="#000000">jsonb[2147483647]</text>
<polygon fill="none" stroke="#000000" stroke-width="2" points="220,-367.2 220,-788.2 511,-788.2 511,-367.2 220,-367.2"/>
</a>
</g>
</g>
<!-- audited_tap_movement&#45;&gt;person_summary -->
<g id="edge2" class="edge">
<title>audited_tap_movement:w&#45;&gt;person_summary:e</title>
<path fill="none" stroke="#000000" stroke-dasharray="5,2" d="M207.8668,-593.8088C159.3854,-553.0067 230.7251,-270.7 162,-270.7"/>
<polygon fill="#000000" stroke="#000000" points="213.9699,-595.9984 220.2843,-602.0885 217.735,-597.3492 221.5,-598.7 221.5,-598.7 221.5,-598.7 217.735,-597.3492 222.7157,-595.3115 213.9699,-595.9984 213.9699,-595.9984"/>
<ellipse fill="none" stroke="#000000" cx="210.9579" cy="-594.9178" rx="3.2" ry="3.2"/>
</g>
<!-- temporary_absence_authorisation -->
<g id="node4" class="node">
<title>temporary_absence_authorisation</title>
<g id="a_node4"><a xlink:href="../../tables/temporary_absence_authorisation.html" xlink:title="temporary_absence_authorisation" target="_top">
<polygon fill="#ffffff" stroke="transparent" points="231.5,-284.2 231.5,-345.2 499.5,-345.2 499.5,-284.2 231.5,-284.2"/>
<polygon fill="#f5f5f5" stroke="transparent" points="231.5,-321.7 231.5,-344.7 499.5,-344.7 499.5,-321.7 231.5,-321.7"/>
<polygon fill="none" stroke="#000000" points="231.5,-321.7 231.5,-344.7 499.5,-344.7 499.5,-321.7 231.5,-321.7"/>
<text text-anchor="start" x="236.5" y="-330.3" font-family="Helvetica,sans-Serif" font-weight="bold" font-size="11.00" fill="#000000">temporary_absence_authorisation</text>
<text text-anchor="start" x="465.0219" y="-329.8" font-family="Helvetica,sans-Serif" font-size="11.00" fill="#000000">[table]</text>
<polygon fill="none" stroke="#000000" points="231.5,-302.7 231.5,-321.7 499.5,-321.7 499.5,-302.7 231.5,-302.7"/>
<text text-anchor="start" x="234.5" y="-308.8" font-family="Helvetica,sans-Serif" font-size="11.00" fill="#000000">...</text>
<polygon fill="#ffffff" stroke="transparent" points="231.5,-283.7 231.5,-302.7 359.5,-302.7 359.5,-283.7 231.5,-283.7"/>
<polygon fill="none" stroke="#000000" points="231.5,-283.7 231.5,-302.7 359.5,-302.7 359.5,-283.7 231.5,-283.7"/>
<text text-anchor="start" x="234.5" y="-289.8" font-family="Helvetica,sans-Serif" font-size="11.00" fill="#000000">&lt; 7</text>
<polygon fill="#ffffff" stroke="transparent" points="359.5,-283.7 359.5,-302.7 424.5,-302.7 424.5,-283.7 359.5,-283.7"/>
<polygon fill="none" stroke="#000000" points="359.5,-283.7 359.5,-302.7 424.5,-302.7 424.5,-283.7 359.5,-283.7"/>
<text text-anchor="start" x="415.3862" y="-289.8" font-family="Helvetica,sans-Serif" font-size="11.00" fill="#000000"> &#160;</text>
<polygon fill="#ffffff" stroke="transparent" points="424.5,-283.7 424.5,-302.7 499.5,-302.7 499.5,-283.7 424.5,-283.7"/>
<polygon fill="none" stroke="#000000" points="424.5,-283.7 424.5,-302.7 499.5,-302.7 499.5,-283.7 424.5,-283.7"/>
<text text-anchor="start" x="480.9053" y="-289.8" font-family="Helvetica,sans-Serif" font-size="11.00" fill="#000000">1 &gt;</text>
</a>
</g>
</g>
<!-- temporary_absence_authorisation&#45;&gt;person_summary -->
<g id="edge3" class="edge">
<title>temporary_absence_authorisation:w&#45;&gt;person_summary:e</title>
<path fill="none" stroke="#000000" stroke-dasharray="5,2" d="M217.1883,-309.0099C195.4026,-299.8885 192.2596,-270.7 162,-270.7"/>
<polygon fill="#000000" stroke="#000000" points="223.6377,-310.2221 230.8349,-315.238 227.5688,-310.9611 231.5,-311.7 231.5,-311.7 231.5,-311.7 227.5688,-310.9611 232.1651,-308.162 223.6377,-310.2221 223.6377,-310.2221"/>
<ellipse fill="none" stroke="#000000" cx="220.4928" cy="-309.6309" rx="3.2" ry="3.2"/>
</g>
<!-- temporary_absence_authorisation_audit -->
<g id="node5" class="node">
<title>temporary_absence_authorisation_audit</title>
<g id="a_node5"><a xlink:href="../../tables/temporary_absence_authorisation_audit.html" xlink:title="temporary_absence_authorisation_audit" target="_top">
<polygon fill="#ffffff" stroke="transparent" points="211,-202.2 211,-263.2 520,-263.2 520,-202.2 211,-202.2"/>
<polygon fill="#f5f5f5" stroke="transparent" points="211.5,-239.7 211.5,-262.7 520.5,-262.7 520.5,-239.7 211.5,-239.7"/>
<polygon fill="none" stroke="#000000" points="211.5,-239.7 211.5,-262.7 520.5,-262.7 520.5,-239.7 211.5,-239.7"/>
<text text-anchor="start" x="216.5" y="-248.3" font-family="Helvetica,sans-Serif" font-weight="bold" font-size="11.00" fill="#000000">temporary_absence_authorisation_audit</text>
<text text-anchor="start" x="486.0219" y="-247.8" font-family="Helvetica,sans-Serif" font-size="11.00" fill="#000000">[table]</text>
<polygon fill="none" stroke="#000000" points="211.5,-220.7 211.5,-239.7 520.5,-239.7 520.5,-220.7 211.5,-220.7"/>
<text text-anchor="start" x="214.5" y="-226.8" font-family="Helvetica,sans-Serif" font-size="11.00" fill="#000000">...</text>
<polygon fill="#ffffff" stroke="transparent" points="211.5,-201.7 211.5,-220.7 364.5,-220.7 364.5,-201.7 211.5,-201.7"/>
<polygon fill="none" stroke="#000000" points="211.5,-201.7 211.5,-220.7 364.5,-220.7 364.5,-201.7 211.5,-201.7"/>
<text text-anchor="start" x="214.5" y="-207.8" font-family="Helvetica,sans-Serif" font-size="11.00" fill="#000000">&lt; 2</text>
<polygon fill="#ffffff" stroke="transparent" points="364.5,-201.7 364.5,-220.7 442.5,-220.7 442.5,-201.7 364.5,-201.7"/>
<polygon fill="none" stroke="#000000" points="364.5,-201.7 364.5,-220.7 442.5,-220.7 442.5,-201.7 364.5,-201.7"/>
<text text-anchor="start" x="433.3862" y="-207.8" font-family="Helvetica,sans-Serif" font-size="11.00" fill="#000000"> &#160;</text>
<polygon fill="#ffffff" stroke="transparent" points="442.5,-201.7 442.5,-220.7 520.5,-220.7 520.5,-201.7 442.5,-201.7"/>
<polygon fill="none" stroke="#000000" points="442.5,-201.7 442.5,-220.7 520.5,-220.7 520.5,-201.7 442.5,-201.7"/>
<text text-anchor="start" x="511.3862" y="-207.8" font-family="Helvetica,sans-Serif" font-size="11.00" fill="#000000"> &#160;</text>
</a>
</g>
</g>
<!-- temporary_absence_authorisation_audit&#45;&gt;person_summary -->
<g id="edge4" class="edge">
<title>temporary_absence_authorisation_audit:w&#45;&gt;person_summary:e</title>
<path fill="none" stroke="#000000" stroke-dasharray="5,2" d="M197.5753,-234.4032C184.543,-245.1726 184.5408,-270.7 162,-270.7"/>
<polygon fill="#000000" stroke="#000000" points="203.9207,-232.26 212.652,-233.1107 207.7103,-230.98 211.5,-229.7 211.5,-229.7 211.5,-229.7 207.7103,-230.98 210.348,-226.2893 203.9207,-232.26 203.9207,-232.26"/>
<ellipse fill="none" stroke="#000000" cx="200.8889" cy="-233.2841" rx="3.2" ry="3.2"/>
</g>
<!-- temporary_absence_movement -->
<g id="node6" class="node">
<title>temporary_absence_movement</title>
<g id="a_node6"><a xlink:href="../../tables/temporary_absence_movement.html" xlink:title="temporary_absence_movement" target="_top">
<polygon fill="#ffffff" stroke="transparent" points="241,-120.2 241,-181.2 490,-181.2 490,-120.2 241,-120.2"/>
<polygon fill="#f5f5f5" stroke="transparent" points="241.5,-157.7 241.5,-180.7 490.5,-180.7 490.5,-157.7 241.5,-157.7"/>
<polygon fill="none" stroke="#000000" points="241.5,-157.7 241.5,-180.7 490.5,-180.7 490.5,-157.7 241.5,-157.7"/>
<text text-anchor="start" x="246.5" y="-166.3" font-family="Helvetica,sans-Serif" font-weight="bold" font-size="11.00" fill="#000000">temporary_absence_movement</text>
<text text-anchor="start" x="456.0219" y="-165.8" font-family="Helvetica,sans-Serif" font-size="11.00" fill="#000000">[table]</text>
<polygon fill="none" stroke="#000000" points="241.5,-138.7 241.5,-157.7 490.5,-157.7 490.5,-138.7 241.5,-138.7"/>
<text text-anchor="start" x="244.5" y="-144.8" font-family="Helvetica,sans-Serif" font-size="11.00" fill="#000000">...</text>
<polygon fill="#ffffff" stroke="transparent" points="241.5,-119.7 241.5,-138.7 364.5,-138.7 364.5,-119.7 241.5,-119.7"/>
<polygon fill="none" stroke="#000000" points="241.5,-119.7 241.5,-138.7 364.5,-138.7 364.5,-119.7 241.5,-119.7"/>
<text text-anchor="start" x="244.5" y="-125.8" font-family="Helvetica,sans-Serif" font-size="11.00" fill="#000000">&lt; 4</text>
<polygon fill="#ffffff" stroke="transparent" points="364.5,-119.7 364.5,-138.7 427.5,-138.7 427.5,-119.7 364.5,-119.7"/>
<polygon fill="none" stroke="#000000" points="364.5,-119.7 364.5,-138.7 427.5,-138.7 427.5,-119.7 364.5,-119.7"/>
<text text-anchor="start" x="418.3862" y="-125.8" font-family="Helvetica,sans-Serif" font-size="11.00" fill="#000000"> &#160;</text>
<polygon fill="#ffffff" stroke="transparent" points="427.5,-119.7 427.5,-138.7 490.5,-138.7 490.5,-119.7 427.5,-119.7"/>
<polygon fill="none" stroke="#000000" points="427.5,-119.7 427.5,-138.7 490.5,-138.7 490.5,-119.7 427.5,-119.7"/>
<text text-anchor="start" x="481.3862" y="-125.8" font-family="Helvetica,sans-Serif" font-size="11.00" fill="#000000"> &#160;</text>
</a>
</g>
</g>
<!-- temporary_absence_movement&#45;&gt;person_summary -->
<g id="edge5" class="edge">
<title>temporary_absence_movement:w&#45;&gt;person_summary:e</title>
<path fill="none" stroke="#000000" stroke-dasharray="5,2" d="M227.2848,-151.1099C215.5924,-158.2048 214.2132,-175.2665 203,-191.7 180.7038,-224.376 201.5581,-270.7 162,-270.7"/>
<polygon fill="#000000" stroke="#000000" points="233.7207,-149.5661 242.3397,-151.2007 237.6103,-148.633 241.5,-147.7 241.5,-147.7 241.5,-147.7 237.6103,-148.633 240.6603,-144.1993 233.7207,-149.5661 233.7207,-149.5661"/>
<ellipse fill="none" stroke="#000000" cx="230.6089" cy="-150.3125" rx="3.2" ry="3.2"/>
</g>
<!-- temporary_absence_movement_audit -->
<g id="node7" class="node">
<title>temporary_absence_movement_audit</title>
<g id="a_node7"><a xlink:href="../../tables/temporary_absence_movement_audit.html" xlink:title="temporary_absence_movement_audit" target="_top">
<polygon fill="#ffffff" stroke="transparent" points="220.5,-38.2 220.5,-99.2 510.5,-99.2 510.5,-38.2 220.5,-38.2"/>
<polygon fill="#f5f5f5" stroke="transparent" points="220.5,-75.7 220.5,-98.7 510.5,-98.7 510.5,-75.7 220.5,-75.7"/>
<polygon fill="none" stroke="#000000" points="220.5,-75.7 220.5,-98.7 510.5,-98.7 510.5,-75.7 220.5,-75.7"/>
<text text-anchor="start" x="225.5" y="-84.3" font-family="Helvetica,sans-Serif" font-weight="bold" font-size="11.00" fill="#000000">temporary_absence_movement_audit</text>
<text text-anchor="start" x="476.0219" y="-83.8" font-family="Helvetica,sans-Serif" font-size="11.00" fill="#000000">[table]</text>
<polygon fill="none" stroke="#000000" points="220.5,-56.7 220.5,-75.7 510.5,-75.7 510.5,-56.7 220.5,-56.7"/>
<text text-anchor="start" x="223.5" y="-62.8" font-family="Helvetica,sans-Serif" font-size="11.00" fill="#000000">...</text>
<polygon fill="#ffffff" stroke="transparent" points="220.5,-37.7 220.5,-56.7 363.5,-56.7 363.5,-37.7 220.5,-37.7"/>
<polygon fill="none" stroke="#000000" points="220.5,-37.7 220.5,-56.7 363.5,-56.7 363.5,-37.7 220.5,-37.7"/>
<text text-anchor="start" x="223.5" y="-43.8" font-family="Helvetica,sans-Serif" font-size="11.00" fill="#000000">&lt; 2</text>
<polygon fill="#ffffff" stroke="transparent" points="363.5,-37.7 363.5,-56.7 436.5,-56.7 436.5,-37.7 363.5,-37.7"/>
<polygon fill="none" stroke="#000000" points="363.5,-37.7 363.5,-56.7 436.5,-56.7 436.5,-37.7 363.5,-37.7"/>
<text text-anchor="start" x="427.3862" y="-43.8" font-family="Helvetica,sans-Serif" font-size="11.00" fill="#000000"> &#160;</text>
<polygon fill="#ffffff" stroke="transparent" points="436.5,-37.7 436.5,-56.7 510.5,-56.7 510.5,-37.7 436.5,-37.7"/>
<polygon fill="none" stroke="#000000" points="436.5,-37.7 436.5,-56.7 510.5,-56.7 510.5,-37.7 436.5,-37.7"/>
<text text-anchor="start" x="501.3862" y="-43.8" font-family="Helvetica,sans-Serif" font-size="11.00" fill="#000000"> &#160;</text>
</a>
</g>
</g>
<!-- temporary_absence_movement_audit&#45;&gt;person_summary -->
<g id="edge6" class="edge">
<title>temporary_absence_movement_audit:w&#45;&gt;person_summary:e</title>
<path fill="none" stroke="#000000" stroke-dasharray="5,2" d="M206.0793,-67.729C140.3279,-89.0196 251.1966,-270.7 162,-270.7"/>
<polygon fill="#000000" stroke="#000000" points="212.578,-66.8146 221.0016,-69.2649 216.539,-66.2573 220.5,-65.7 220.5,-65.7 220.5,-65.7 216.539,-66.2573 219.9984,-62.1351 212.578,-66.8146 212.578,-66.8146"/>
<ellipse fill="none" stroke="#000000" cx="209.4092" cy="-67.2605" rx="3.2" ry="3.2"/>
</g>
</g>
</svg>
