<?xml version="1.0" encoding="UTF-8" standalone="no"?>
<!DOCTYPE svg PUBLIC "-//W3C//DTD SVG 1.1//EN"
 "http://www.w3.org/Graphics/SVG/1.1/DTD/svg11.dtd">
<!-- Generated by graphviz version 2.40.1 (20161225.0304)
 -->
<!-- Title: oneDegreeRelationshipsDiagram Pages: 1 -->
<svg width="636pt" height="659pt"
 viewBox="0.00 0.00 636.00 659.20" xmlns="http://www.w3.org/2000/svg" xmlns:xlink="http://www.w3.org/1999/xlink">
<g id="graph0" class="graph" transform="scale(1 1) rotate(0) translate(4 655.2)">
<title>oneDegreeRelationshipsDiagram</title>
<polygon fill="#ffffff" stroke="transparent" points="-4,4 -4,-655.2 632,-655.2 632,4 -4,4"/>
<text text-anchor="middle" x="72.4936" y="-7.3" font-family="Helvetica,sans-Serif" font-size="11.00" fill="#000000">Generated by SchemaSpy</text>
<!-- hmpps_domain_event_audit -->
<g id="node1" class="node">
<title>hmpps_domain_event_audit</title>
<g id="a_node1"><a xlink:href="../../tables/hmpps_domain_event_audit.html" xlink:title="hmpps_domain_event_audit" target="_top">
<polygon fill="#ffffff" stroke="transparent" points="353,-542.2 353,-647.2 578,-647.2 578,-542.2 353,-542.2"/>
<polygon fill="#f5f5f5" stroke="transparent" points="353.5,-623.7 353.5,-646.7 578.5,-646.7 578.5,-623.7 353.5,-623.7"/>
<polygon fill="none" stroke="#000000" points="353.5,-623.7 353.5,-646.7 578.5,-646.7 578.5,-623.7 353.5,-623.7"/>
<text text-anchor="start" x="358.5" y="-632.3" font-family="Helvetica,sans-Serif" font-weight="bold" font-size="11.00" fill="#000000">hmpps_domain_event_audit</text>
<text text-anchor="start" x="544.0219" y="-631.8" font-family="Helvetica,sans-Serif" font-size="11.00" fill="#000000">[table]</text>
<polygon fill="none" stroke="#000000" points="353.5,-601.7 353.5,-623.7 578.5,-623.7 578.5,-601.7 353.5,-601.7"/>
<image xlink:href="../../images/primaryKeys.png" width="11px" height="12px" preserveAspectRatio="xMinYMin meet" x="358.5" y="-618.7"/>
<text text-anchor="start" x="382.5" y="-608.8" font-family="Helvetica,sans-Serif" font-size="11.00" fill="#000000">rev_id</text>
<polygon fill="none" stroke="#000000" points="353.5,-579.7 353.5,-601.7 578.5,-601.7 578.5,-579.7 353.5,-579.7"/>
<image xlink:href="../../images/primaryKeys.png" width="11px" height="12px" preserveAspectRatio="xMinYMin meet" x="358.5" y="-596.7"/>
<text text-anchor="start" x="382.5" y="-586.8" font-family="Helvetica,sans-Serif" font-size="11.00" fill="#000000">id</text>
<polygon fill="none" stroke="#000000" points="353.5,-560.7 353.5,-579.7 578.5,-579.7 578.5,-560.7 353.5,-560.7"/>
<text text-anchor="start" x="356.5" y="-566.8" font-family="Helvetica,sans-Serif" font-size="11.00" fill="#000000">...</text>
<polygon fill="#ffffff" stroke="transparent" points="353.5,-541.7 353.5,-560.7 464.5,-560.7 464.5,-541.7 353.5,-541.7"/>
<polygon fill="none" stroke="#000000" points="353.5,-541.7 353.5,-560.7 464.5,-560.7 464.5,-541.7 353.5,-541.7"/>
<text text-anchor="start" x="356.5" y="-547.8" font-family="Helvetica,sans-Serif" font-size="11.00" fill="#000000">&lt; 1</text>
<polygon fill="#ffffff" stroke="transparent" points="464.5,-541.7 464.5,-560.7 521.5,-560.7 521.5,-541.7 464.5,-541.7"/>
<polygon fill="none" stroke="#000000" points="464.5,-541.7 464.5,-560.7 521.5,-560.7 521.5,-541.7 464.5,-541.7"/>
<text text-anchor="start" x="512.3862" y="-547.8" font-family="Helvetica,sans-Serif" font-size="11.00" fill="#000000"> &#160;</text>
<polygon fill="#ffffff" stroke="transparent" points="521.5,-541.7 521.5,-560.7 578.5,-560.7 578.5,-541.7 521.5,-541.7"/>
<polygon fill="none" stroke="#000000" points="521.5,-541.7 521.5,-560.7 578.5,-560.7 578.5,-541.7 521.5,-541.7"/>
<text text-anchor="start" x="569.3862" y="-547.8" font-family="Helvetica,sans-Serif" font-size="11.00" fill="#000000"> &#160;</text>
</a>
</g>
</g>
<!-- audit_revision -->
<g id="node2" class="node">
<title>audit_revision</title>
<g id="a_node2"><a xlink:href="../../tables/audit_revision.html" xlink:title="audit_revision" target="_top">
<polygon fill="#ffffff" stroke="transparent" points="8,-240.7 8,-396.7 262,-396.7 262,-240.7 8,-240.7"/>
<polygon fill="#f5f5f5" stroke="transparent" points="10,-371.7 10,-394.7 260,-394.7 260,-371.7 10,-371.7"/>
<polygon fill="none" stroke="#000000" points="10,-371.7 10,-394.7 260,-394.7 260,-371.7 10,-371.7"/>
<text text-anchor="start" x="15" y="-380.3" font-family="Helvetica,sans-Serif" font-weight="bold" font-size="11.00" fill="#000000">audit_revision</text>
<text text-anchor="start" x="225.0437" y="-379.8" font-family="Helvetica,sans-Serif" font-size="11.00" fill="#000000">[table]</text>
<polygon fill="none" stroke="#000000" points="10,-349.7 10,-371.7 144,-371.7 144,-349.7 10,-349.7"/>
<image xlink:href="../../images/primaryKeys.png" width="11px" height="12px" preserveAspectRatio="xMinYMin meet" x="15" y="-366.7"/>
<text text-anchor="start" x="30" y="-356.8" font-family="Helvetica,sans-Serif" font-size="11.00" fill="#000000">id</text>
<polygon fill="none" stroke="#000000" points="144,-349.7 144,-371.7 260,-371.7 260,-349.7 144,-349.7"/>
<text text-anchor="start" x="147" y="-357.4" font-family="Helvetica,sans-Serif" font-size="11.00" fill="#000000">bigserial[19]</text>
<polygon fill="none" stroke="#000000" points="10,-327.7 10,-349.7 144,-349.7 144,-327.7 10,-327.7"/>
<text text-anchor="start" x="30" y="-334.8" font-family="Helvetica,sans-Serif" font-size="11.00" fill="#000000">timestamp</text>
<polygon fill="none" stroke="#000000" points="144,-327.7 144,-349.7 260,-349.7 260,-327.7 144,-327.7"/>
<text text-anchor="start" x="147" y="-335.4" font-family="Helvetica,sans-Serif" font-size="11.00" fill="#000000">timestamp[29,6]</text>
<polygon fill="none" stroke="#000000" points="10,-305.7 10,-327.7 144,-327.7 144,-305.7 10,-305.7"/>
<text text-anchor="start" x="30" y="-312.8" font-family="Helvetica,sans-Serif" font-size="11.00" fill="#000000">username</text>
<polygon fill="none" stroke="#000000" points="144,-305.7 144,-327.7 260,-327.7 260,-305.7 144,-305.7"/>
<text text-anchor="start" x="147" y="-313.4" font-family="Helvetica,sans-Serif" font-size="11.00" fill="#000000">varchar[64]</text>
<polygon fill="none" stroke="#000000" points="10,-283.7 10,-305.7 144,-305.7 144,-283.7 10,-283.7"/>
<text text-anchor="start" x="30" y="-290.8" font-family="Helvetica,sans-Serif" font-size="11.00" fill="#000000">source</text>
<polygon fill="none" stroke="#000000" points="144,-283.7 144,-305.7 260,-305.7 260,-283.7 144,-283.7"/>
<text text-anchor="start" x="147" y="-291.4" font-family="Helvetica,sans-Serif" font-size="11.00" fill="#000000">varchar[6]</text>
<polygon fill="none" stroke="#000000" points="10,-261.7 10,-283.7 144,-283.7 144,-261.7 10,-261.7"/>
<text text-anchor="start" x="30" y="-268.8" font-family="Helvetica,sans-Serif" font-size="11.00" fill="#000000">affected_entities</text>
<polygon fill="none" stroke="#000000" points="144,-261.7 144,-283.7 260,-283.7 260,-261.7 144,-261.7"/>
<text text-anchor="start" x="146.9769" y="-269.4" font-family="Helvetica,sans-Serif" font-size="11.00" fill="#000000">_varchar[2147483647]</text>
<polygon fill="#ffffff" stroke="transparent" points="10,-242.7 10,-261.7 81,-261.7 81,-242.7 10,-242.7"/>
<polygon fill="none" stroke="#000000" points="10,-242.7 10,-261.7 81,-261.7 81,-242.7 10,-242.7"/>
<text text-anchor="start" x="13" y="-248.8" font-family="Helvetica,sans-Serif" font-size="11.00" fill="#000000">&lt; 0</text>
<polygon fill="#ffffff" stroke="transparent" points="81,-242.7 81,-261.7 144,-261.7 144,-242.7 81,-242.7"/>
<polygon fill="none" stroke="#000000" points="81,-242.7 81,-261.7 144,-261.7 144,-242.7 81,-242.7"/>
<text text-anchor="start" x="134.8862" y="-248.8" font-family="Helvetica,sans-Serif" font-size="11.00" fill="#000000"> &#160;</text>
<polygon fill="#ffffff" stroke="transparent" points="144,-242.7 144,-261.7 260,-261.7 260,-242.7 144,-242.7"/>
<polygon fill="none" stroke="#000000" points="144,-242.7 144,-261.7 260,-261.7 260,-242.7 144,-242.7"/>
<text text-anchor="start" x="241.4053" y="-248.8" font-family="Helvetica,sans-Serif" font-size="11.00" fill="#000000">5 &gt;</text>
<polygon fill="none" stroke="#000000" stroke-width="2" points="9,-241.7 9,-395.7 261,-395.7 261,-241.7 9,-241.7"/>
</a>
</g>
</g>
<!-- hmpps_domain_event_audit&#45;&gt;audit_revision -->
<g id="edge1" class="edge">
<title>hmpps_domain_event_audit:w&#45;&gt;audit_revision:e</title>
<path fill="none" stroke="#000000" d="M339.1145,-610.5849C312.8964,-601.6065 317.3914,-565.5574 303,-531.7 272.3442,-459.5789 338.366,-360.7 260,-360.7"/>
<polygon fill="#000000" stroke="#000000" points="345.5851,-611.5362 352.9763,-616.2617 349.5425,-612.1181 353.5,-612.7 353.5,-612.7 353.5,-612.7 349.5425,-612.1181 354.0237,-609.1383 345.5851,-611.5362 345.5851,-611.5362"/>
<ellipse fill="none" stroke="#000000" cx="342.4191" cy="-611.0707" rx="3.2" ry="3.2"/>
</g>
<!-- tap_occurrence_action_audit -->
<g id="node3" class="node">
<title>tap_occurrence_action_audit</title>
<g id="a_node3"><a xlink:href="../../tables/tap_occurrence_action_audit.html" xlink:title="tap_occurrence_action_audit" target="_top">
<polygon fill="#ffffff" stroke="transparent" points="350,-416.2 350,-521.2 581,-521.2 581,-416.2 350,-416.2"/>
<polygon fill="#f5f5f5" stroke="transparent" points="350.5,-497.7 350.5,-520.7 581.5,-520.7 581.5,-497.7 350.5,-497.7"/>
<polygon fill="none" stroke="#000000" points="350.5,-497.7 350.5,-520.7 581.5,-520.7 581.5,-497.7 350.5,-497.7"/>
<text text-anchor="start" x="355.5" y="-506.3" font-family="Helvetica,sans-Serif" font-weight="bold" font-size="11.00" fill="#000000">tap_occurrence_action_audit</text>
<text text-anchor="start" x="547.0219" y="-505.8" font-family="Helvetica,sans-Serif" font-size="11.00" fill="#000000">[table]</text>
<polygon fill="none" stroke="#000000" points="350.5,-475.7 350.5,-497.7 581.5,-497.7 581.5,-475.7 350.5,-475.7"/>
<image xlink:href="../../images/primaryKeys.png" width="11px" height="12px" preserveAspectRatio="xMinYMin meet" x="355.5" y="-492.7"/>
<text text-anchor="start" x="379.5" y="-482.8" font-family="Helvetica,sans-Serif" font-size="11.00" fill="#000000">rev_id</text>
<polygon fill="none" stroke="#000000" points="350.5,-453.7 350.5,-475.7 581.5,-475.7 581.5,-453.7 350.5,-453.7"/>
<image xlink:href="../../images/primaryKeys.png" width="11px" height="12px" preserveAspectRatio="xMinYMin meet" x="355.5" y="-470.7"/>
<text text-anchor="start" x="379.5" y="-460.8" font-family="Helvetica,sans-Serif" font-size="11.00" fill="#000000">id</text>
<polygon fill="none" stroke="#000000" points="350.5,-434.7 350.5,-453.7 581.5,-453.7 581.5,-434.7 350.5,-434.7"/>
<text text-anchor="start" x="353.5" y="-440.8" font-family="Helvetica,sans-Serif" font-size="11.00" fill="#000000">...</text>
<polygon fill="#ffffff" stroke="transparent" points="350.5,-415.7 350.5,-434.7 464.5,-434.7 464.5,-415.7 350.5,-415.7"/>
<polygon fill="none" stroke="#000000" points="350.5,-415.7 350.5,-434.7 464.5,-434.7 464.5,-415.7 350.5,-415.7"/>
<text text-anchor="start" x="353.5" y="-421.8" font-family="Helvetica,sans-Serif" font-size="11.00" fill="#000000">&lt; 1</text>
<polygon fill="#ffffff" stroke="transparent" points="464.5,-415.7 464.5,-434.7 522.5,-434.7 522.5,-415.7 464.5,-415.7"/>
<polygon fill="none" stroke="#000000" points="464.5,-415.7 464.5,-434.7 522.5,-434.7 522.5,-415.7 464.5,-415.7"/>
<text text-anchor="start" x="513.3862" y="-421.8" font-family="Helvetica,sans-Serif" font-size="11.00" fill="#000000"> &#160;</text>
<polygon fill="#ffffff" stroke="transparent" points="522.5,-415.7 522.5,-434.7 581.5,-434.7 581.5,-415.7 522.5,-415.7"/>
<polygon fill="none" stroke="#000000" points="522.5,-415.7 522.5,-434.7 581.5,-434.7 581.5,-415.7 522.5,-415.7"/>
<text text-anchor="start" x="572.3862" y="-421.8" font-family="Helvetica,sans-Serif" font-size="11.00" fill="#000000"> &#160;</text>
</a>
</g>
</g>
<!-- tap_occurrence_action_audit&#45;&gt;audit_revision -->
<g id="edge2" class="edge">
<title>tap_occurrence_action_audit:w&#45;&gt;audit_revision:e</title>
<path fill="none" stroke="#000000" d="M336.055,-484.4055C288.3967,-467.3283 323.4268,-360.7 260,-360.7"/>
<polygon fill="#000000" stroke="#000000" points="342.5991,-485.4449 349.9352,-490.2554 346.5495,-486.0725 350.5,-486.7 350.5,-486.7 350.5,-486.7 346.5495,-486.0725 351.0648,-483.1446 342.5991,-485.4449 342.5991,-485.4449"/>
<ellipse fill="none" stroke="#000000" cx="339.4387" cy="-484.9429" rx="3.2" ry="3.2"/>
</g>
<!-- temporary_absence_authorisation_audit -->
<g id="node4" class="node">
<title>temporary_absence_authorisation_audit</title>
<g id="a_node4"><a xlink:href="../../tables/temporary_absence_authorisation_audit.html" xlink:title="temporary_absence_authorisation_audit" target="_top">
<polygon fill="#ffffff" stroke="transparent" points="311,-290.2 311,-395.2 620,-395.2 620,-290.2 311,-290.2"/>
<polygon fill="#f5f5f5" stroke="transparent" points="311.5,-371.7 311.5,-394.7 620.5,-394.7 620.5,-371.7 311.5,-371.7"/>
<polygon fill="none" stroke="#000000" points="311.5,-371.7 311.5,-394.7 620.5,-394.7 620.5,-371.7 311.5,-371.7"/>
<text text-anchor="start" x="316.5" y="-380.3" font-family="Helvetica,sans-Serif" font-weight="bold" font-size="11.00" fill="#000000">temporary_absence_authorisation_audit</text>
<text text-anchor="start" x="586.0219" y="-379.8" font-family="Helvetica,sans-Serif" font-size="11.00" fill="#000000">[table]</text>
<polygon fill="none" stroke="#000000" points="311.5,-349.7 311.5,-371.7 620.5,-371.7 620.5,-349.7 311.5,-349.7"/>
<image xlink:href="../../images/primaryKeys.png" width="11px" height="12px" preserveAspectRatio="xMinYMin meet" x="316.5" y="-366.7"/>
<text text-anchor="start" x="340.5" y="-356.8" font-family="Helvetica,sans-Serif" font-size="11.00" fill="#000000">rev_id</text>
<polygon fill="none" stroke="#000000" points="311.5,-327.7 311.5,-349.7 620.5,-349.7 620.5,-327.7 311.5,-327.7"/>
<image xlink:href="../../images/primaryKeys.png" width="11px" height="12px" preserveAspectRatio="xMinYMin meet" x="316.5" y="-344.7"/>
<text text-anchor="start" x="340.5" y="-334.8" font-family="Helvetica,sans-Serif" font-size="11.00" fill="#000000">id</text>
<polygon fill="none" stroke="#000000" points="311.5,-308.7 311.5,-327.7 620.5,-327.7 620.5,-308.7 311.5,-308.7"/>
<text text-anchor="start" x="314.5" y="-314.8" font-family="Helvetica,sans-Serif" font-size="11.00" fill="#000000">...</text>
<polygon fill="#ffffff" stroke="transparent" points="311.5,-289.7 311.5,-308.7 464.5,-308.7 464.5,-289.7 311.5,-289.7"/>
<polygon fill="none" stroke="#000000" points="311.5,-289.7 311.5,-308.7 464.5,-308.7 464.5,-289.7 311.5,-289.7"/>
<text text-anchor="start" x="314.5" y="-295.8" font-family="Helvetica,sans-Serif" font-size="11.00" fill="#000000">&lt; 1</text>
<polygon fill="#ffffff" stroke="transparent" points="464.5,-289.7 464.5,-308.7 542.5,-308.7 542.5,-289.7 464.5,-289.7"/>
<polygon fill="none" stroke="#000000" points="464.5,-289.7 464.5,-308.7 542.5,-308.7 542.5,-289.7 464.5,-289.7"/>
<text text-anchor="start" x="533.3862" y="-295.8" font-family="Helvetica,sans-Serif" font-size="11.00" fill="#000000"> &#160;</text>
<polygon fill="#ffffff" stroke="transparent" points="542.5,-289.7 542.5,-308.7 620.5,-308.7 620.5,-289.7 542.5,-289.7"/>
<polygon fill="none" stroke="#000000" points="542.5,-289.7 542.5,-308.7 620.5,-308.7 620.5,-289.7 542.5,-289.7"/>
<text text-anchor="start" x="611.3862" y="-295.8" font-family="Helvetica,sans-Serif" font-size="11.00" fill="#000000"> &#160;</text>
</a>
</g>
</g>
<!-- temporary_absence_authorisation_audit&#45;&gt;audit_revision -->
<g id="edge3" class="edge">
<title>temporary_absence_authorisation_audit:w&#45;&gt;audit_revision:e</title>
<path fill="none" stroke="#000000" d="M297.0156,-360.7C284.6771,-360.7 277.1667,-360.7 260,-360.7"/>
<polygon fill="#000000" stroke="#000000" points="303.5,-360.7001 311.5,-364.3 307.5,-360.7 311.5,-360.7 311.5,-360.7 311.5,-360.7 307.5,-360.7 311.5,-357.1 303.5,-360.7001 303.5,-360.7001"/>
<ellipse fill="none" stroke="#000000" cx="300.3" cy="-360.7001" rx="3.2" ry="3.2"/>
</g>
<!-- temporary_absence_movement_audit -->
<g id="node5" class="node">
<title>temporary_absence_movement_audit</title>
<g id="a_node5"><a xlink:href="../../tables/temporary_absence_movement_audit.html" xlink:title="temporary_absence_movement_audit" target="_top">
<polygon fill="#ffffff" stroke="transparent" points="320.5,-164.2 320.5,-269.2 610.5,-269.2 610.5,-164.2 320.5,-164.2"/>
<polygon fill="#f5f5f5" stroke="transparent" points="320.5,-245.7 320.5,-268.7 610.5,-268.7 610.5,-245.7 320.5,-245.7"/>
<polygon fill="none" stroke="#000000" points="320.5,-245.7 320.5,-268.7 610.5,-268.7 610.5,-245.7 320.5,-245.7"/>
<text text-anchor="start" x="325.5" y="-254.3" font-family="Helvetica,sans-Serif" font-weight="bold" font-size="11.00" fill="#000000">temporary_absence_movement_audit</text>
<text text-anchor="start" x="576.0219" y="-253.8" font-family="Helvetica,sans-Serif" font-size="11.00" fill="#000000">[table]</text>
<polygon fill="none" stroke="#000000" points="320.5,-223.7 320.5,-245.7 610.5,-245.7 610.5,-223.7 320.5,-223.7"/>
<image xlink:href="../../images/primaryKeys.png" width="11px" height="12px" preserveAspectRatio="xMinYMin meet" x="325.5" y="-240.7"/>
<text text-anchor="start" x="349.5" y="-230.8" font-family="Helvetica,sans-Serif" font-size="11.00" fill="#000000">rev_id</text>
<polygon fill="none" stroke="#000000" points="320.5,-201.7 320.5,-223.7 610.5,-223.7 610.5,-201.7 320.5,-201.7"/>
<image xlink:href="../../images/primaryKeys.png" width="11px" height="12px" preserveAspectRatio="xMinYMin meet" x="325.5" y="-218.7"/>
<text text-anchor="start" x="349.5" y="-208.8" font-family="Helvetica,sans-Serif" font-size="11.00" fill="#000000">id</text>
<polygon fill="none" stroke="#000000" points="320.5,-182.7 320.5,-201.7 610.5,-201.7 610.5,-182.7 320.5,-182.7"/>
<text text-anchor="start" x="323.5" y="-188.8" font-family="Helvetica,sans-Serif" font-size="11.00" fill="#000000">...</text>
<polygon fill="#ffffff" stroke="transparent" points="320.5,-163.7 320.5,-182.7 463.5,-182.7 463.5,-163.7 320.5,-163.7"/>
<polygon fill="none" stroke="#000000" points="320.5,-163.7 320.5,-182.7 463.5,-182.7 463.5,-163.7 320.5,-163.7"/>
<text text-anchor="start" x="323.5" y="-169.8" font-family="Helvetica,sans-Serif" font-size="11.00" fill="#000000">&lt; 1</text>
<polygon fill="#ffffff" stroke="transparent" points="463.5,-163.7 463.5,-182.7 536.5,-182.7 536.5,-163.7 463.5,-163.7"/>
<polygon fill="none" stroke="#000000" points="463.5,-163.7 463.5,-182.7 536.5,-182.7 536.5,-163.7 463.5,-163.7"/>
<text text-anchor="start" x="527.3862" y="-169.8" font-family="Helvetica,sans-Serif" font-size="11.00" fill="#000000"> &#160;</text>
<polygon fill="#ffffff" stroke="transparent" points="536.5,-163.7 536.5,-182.7 610.5,-182.7 610.5,-163.7 536.5,-163.7"/>
<polygon fill="none" stroke="#000000" points="536.5,-163.7 536.5,-182.7 610.5,-182.7 610.5,-163.7 536.5,-163.7"/>
<text text-anchor="start" x="601.3862" y="-169.8" font-family="Helvetica,sans-Serif" font-size="11.00" fill="#000000"> &#160;</text>
</a>
</g>
</g>
<!-- temporary_absence_movement_audit&#45;&gt;audit_revision -->
<g id="edge4" class="edge">
<title>temporary_absence_movement_audit:w&#45;&gt;audit_revision:e</title>
<path fill="none" stroke="#000000" d="M306.1397,-237.8146C269.2244,-257.2176 316.2971,-360.7 260,-360.7"/>
<polygon fill="#000000" stroke="#000000" points="312.6818,-236.3957 321.2631,-238.2182 316.5909,-235.5479 320.5,-234.7 320.5,-234.7 320.5,-234.7 316.5909,-235.5479 319.7369,-231.1818 312.6818,-236.3957 312.6818,-236.3957"/>
<ellipse fill="none" stroke="#000000" cx="309.5545" cy="-237.074" rx="3.2" ry="3.2"/>
</g>
<!-- temporary_absence_occurrence_audit -->
<g id="node6" class="node">
<title>temporary_absence_occurrence_audit</title>
<g id="a_node6"><a xlink:href="../../tables/temporary_absence_occurrence_audit.html" xlink:title="temporary_absence_occurrence_audit" target="_top">
<polygon fill="#ffffff" stroke="transparent" points="319,-38.2 319,-143.2 612,-143.2 612,-38.2 319,-38.2"/>
<polygon fill="#f5f5f5" stroke="transparent" points="319.5,-119.7 319.5,-142.7 612.5,-142.7 612.5,-119.7 319.5,-119.7"/>
<polygon fill="none" stroke="#000000" points="319.5,-119.7 319.5,-142.7 612.5,-142.7 612.5,-119.7 319.5,-119.7"/>
<text text-anchor="start" x="324.5" y="-128.3" font-family="Helvetica,sans-Serif" font-weight="bold" font-size="11.00" fill="#000000">temporary_absence_occurrence_audit</text>
<text text-anchor="start" x="578.0219" y="-127.8" font-family="Helvetica,sans-Serif" font-size="11.00" fill="#000000">[table]</text>
<polygon fill="none" stroke="#000000" points="319.5,-97.7 319.5,-119.7 612.5,-119.7 612.5,-97.7 319.5,-97.7"/>
<image xlink:href="../../images/primaryKeys.png" width="11px" height="12px" preserveAspectRatio="xMinYMin meet" x="324.5" y="-114.7"/>
<text text-anchor="start" x="348.5" y="-104.8" font-family="Helvetica,sans-Serif" font-size="11.00" fill="#000000">rev_id</text>
<polygon fill="none" stroke="#000000" points="319.5,-75.7 319.5,-97.7 612.5,-97.7 612.5,-75.7 319.5,-75.7"/>
<image xlink:href="../../images/primaryKeys.png" width="11px" height="12px" preserveAspectRatio="xMinYMin meet" x="324.5" y="-92.7"/>
<text text-anchor="start" x="348.5" y="-82.8" font-family="Helvetica,sans-Serif" font-size="11.00" fill="#000000">id</text>
<polygon fill="none" stroke="#000000" points="319.5,-56.7 319.5,-75.7 612.5,-75.7 612.5,-56.7 319.5,-56.7"/>
<text text-anchor="start" x="322.5" y="-62.8" font-family="Helvetica,sans-Serif" font-size="11.00" fill="#000000">...</text>
<polygon fill="#ffffff" stroke="transparent" points="319.5,-37.7 319.5,-56.7 464.5,-56.7 464.5,-37.7 319.5,-37.7"/>
<polygon fill="none" stroke="#000000" points="319.5,-37.7 319.5,-56.7 464.5,-56.7 464.5,-37.7 319.5,-37.7"/>
<text text-anchor="start" x="322.5" y="-43.8" font-family="Helvetica,sans-Serif" font-size="11.00" fill="#000000">&lt; 1</text>
<polygon fill="#ffffff" stroke="transparent" points="464.5,-37.7 464.5,-56.7 538.5,-56.7 538.5,-37.7 464.5,-37.7"/>
<polygon fill="none" stroke="#000000" points="464.5,-37.7 464.5,-56.7 538.5,-56.7 538.5,-37.7 464.5,-37.7"/>
<text text-anchor="start" x="529.3862" y="-43.8" font-family="Helvetica,sans-Serif" font-size="11.00" fill="#000000"> &#160;</text>
<polygon fill="#ffffff" stroke="transparent" points="538.5,-37.7 538.5,-56.7 612.5,-56.7 612.5,-37.7 538.5,-37.7"/>
<polygon fill="none" stroke="#000000" points="538.5,-37.7 538.5,-56.7 612.5,-56.7 612.5,-37.7 538.5,-37.7"/>
<text text-anchor="start" x="603.3862" y="-43.8" font-family="Helvetica,sans-Serif" font-size="11.00" fill="#000000"> &#160;</text>
</a>
</g>
</g>
<!-- temporary_absence_occurrence_audit&#45;&gt;audit_revision -->
<g id="edge5" class="edge">
<title>temporary_absence_occurrence_audit:w&#45;&gt;audit_revision:e</title>
<path fill="none" stroke="#000000" d="M305.1416,-110.3092C219.7919,-131.7713 369.6852,-360.7 260,-360.7"/>
<polygon fill="#000000" stroke="#000000" points="311.5498,-109.5911 319.901,-112.2776 315.5249,-109.1455 319.5,-108.7 319.5,-108.7 319.5,-108.7 315.5249,-109.1455 319.099,-105.1224 311.5498,-109.5911 311.5498,-109.5911"/>
<ellipse fill="none" stroke="#000000" cx="308.3697" cy="-109.9475" rx="3.2" ry="3.2"/>
</g>
</g>
</svg>
