<?xml version="1.0" encoding="UTF-8" standalone="no"?>
<!DOCTYPE svg PUBLIC "-//W3C//DTD SVG 1.1//EN"
 "http://www.w3.org/Graphics/SVG/1.1/DTD/svg11.dtd">
<!-- Generated by graphviz version 2.40.1 (20161225.0304)
 -->
<!-- Title: oneDegreeRelationshipsDiagram Pages: 1 -->
<svg width="309pt" height="561pt"
 viewBox="0.00 0.00 309.00 561.20" xmlns="http://www.w3.org/2000/svg" xmlns:xlink="http://www.w3.org/1999/xlink">
<g id="graph0" class="graph" transform="scale(1 1) rotate(0) translate(4 557.2)">
<title>oneDegreeRelationshipsDiagram</title>
<polygon fill="#ffffff" stroke="transparent" points="-4,4 -4,-557.2 305,-557.2 305,4 -4,4"/>
<text text-anchor="middle" x="72.4936" y="-7.3" font-family="Helvetica,sans-Serif" font-size="11.00" fill="#000000">Generated by SchemaSpy</text>
<!-- audited_tap_occurrence -->
<g id="node1" class="node">
<title>audited_tap_occurrence</title>
<g id="a_node1"><a xlink:href="../../tables/audited_tap_occurrence.html" xlink:title="audited_tap_occurrence" target="_top">
<polygon fill="#ffffff" stroke="transparent" points="8,-38.2 8,-549.2 293,-549.2 293,-38.2 8,-38.2"/>
<polygon fill="#f5f5f5" stroke="transparent" points="10.5,-523.7 10.5,-546.7 291.5,-546.7 291.5,-523.7 10.5,-523.7"/>
<polygon fill="none" stroke="#000000" points="10.5,-523.7 10.5,-546.7 291.5,-546.7 291.5,-523.7 10.5,-523.7"/>
<text text-anchor="start" x="15.5" y="-532.3" font-family="Helvetica,sans-Serif" font-weight="bold" font-size="11.00" fill="#000000">audited_tap_occurrence</text>
<text text-anchor="start" x="258.3895" y="-531.8" font-family="Helvetica,sans-Serif" font-size="11.00" fill="#000000">[view]</text>
<polygon fill="none" stroke="#000000" points="10.5,-501.7 10.5,-523.7 192.5,-523.7 192.5,-501.7 10.5,-501.7"/>
<text text-anchor="start" x="30.5" y="-508.8" font-family="Helvetica,sans-Serif" font-size="11.00" fill="#000000">created_by</text>
<polygon fill="none" stroke="#000000" points="192.5,-501.7 192.5,-523.7 291.5,-523.7 291.5,-501.7 192.5,-501.7"/>
<text text-anchor="start" x="195.5" y="-509.4" font-family="Helvetica,sans-Serif" font-size="11.00" fill="#000000">varchar[64]</text>
<polygon fill="none" stroke="#000000" points="10.5,-479.7 10.5,-501.7 192.5,-501.7 192.5,-479.7 10.5,-479.7"/>
<text text-anchor="start" x="30.5" y="-486.8" font-family="Helvetica,sans-Serif" font-size="11.00" fill="#000000">created_at</text>
<polygon fill="none" stroke="#000000" points="192.5,-479.7 192.5,-501.7 291.5,-501.7 291.5,-479.7 192.5,-479.7"/>
<text text-anchor="start" x="195.5" y="-487.4" font-family="Helvetica,sans-Serif" font-size="11.00" fill="#000000">timestamp[29,6]</text>
<polygon fill="none" stroke="#000000" points="10.5,-457.7 10.5,-479.7 192.5,-479.7 192.5,-457.7 10.5,-457.7"/>
<text text-anchor="start" x="30.5" y="-464.8" font-family="Helvetica,sans-Serif" font-size="11.00" fill="#000000">updated_by</text>
<polygon fill="none" stroke="#000000" points="192.5,-457.7 192.5,-479.7 291.5,-479.7 291.5,-457.7 192.5,-457.7"/>
<text text-anchor="start" x="195.5" y="-465.4" font-family="Helvetica,sans-Serif" font-size="11.00" fill="#000000">varchar[64]</text>
<polygon fill="none" stroke="#000000" points="10.5,-435.7 10.5,-457.7 192.5,-457.7 192.5,-435.7 10.5,-435.7"/>
<text text-anchor="start" x="30.5" y="-442.8" font-family="Helvetica,sans-Serif" font-size="11.00" fill="#000000">updated_at</text>
<polygon fill="none" stroke="#000000" points="192.5,-435.7 192.5,-457.7 291.5,-457.7 291.5,-435.7 192.5,-435.7"/>
<text text-anchor="start" x="195.5" y="-443.4" font-family="Helvetica,sans-Serif" font-size="11.00" fill="#000000">timestamp[29,6]</text>
<polygon fill="none" stroke="#000000" points="10.5,-413.7 10.5,-435.7 192.5,-435.7 192.5,-413.7 10.5,-413.7"/>
<text text-anchor="start" x="30.5" y="-420.8" font-family="Helvetica,sans-Serif" font-size="11.00" fill="#000000">rev_type</text>
<polygon fill="none" stroke="#000000" points="192.5,-413.7 192.5,-435.7 291.5,-435.7 291.5,-413.7 192.5,-413.7"/>
<text text-anchor="start" x="195.5" y="-421.4" font-family="Helvetica,sans-Serif" font-size="11.00" fill="#000000">int2[5]</text>
<polygon fill="none" stroke="#000000" points="10.5,-391.7 10.5,-413.7 192.5,-413.7 192.5,-391.7 10.5,-391.7"/>
<text text-anchor="start" x="30.5" y="-398.8" font-family="Helvetica,sans-Serif" font-size="11.00" fill="#000000">id</text>
<polygon fill="none" stroke="#000000" points="192.5,-391.7 192.5,-413.7 291.5,-413.7 291.5,-391.7 192.5,-391.7"/>
<text text-anchor="start" x="195.5" y="-399.4" font-family="Helvetica,sans-Serif" font-size="11.00" fill="#000000">uuid[2147483647]</text>
<polygon fill="none" stroke="#000000" points="10.5,-369.7 10.5,-391.7 192.5,-391.7 192.5,-369.7 10.5,-369.7"/>
<text text-anchor="start" x="30.5" y="-376.8" font-family="Helvetica,sans-Serif" font-size="11.00" fill="#000000">version</text>
<polygon fill="none" stroke="#000000" points="192.5,-369.7 192.5,-391.7 291.5,-391.7 291.5,-369.7 192.5,-369.7"/>
<text text-anchor="start" x="195.5" y="-377.4" font-family="Helvetica,sans-Serif" font-size="11.00" fill="#000000">int4[10]</text>
<polygon fill="none" stroke="#000000" points="10.5,-347.7 10.5,-369.7 192.5,-369.7 192.5,-347.7 10.5,-347.7"/>
<text text-anchor="start" x="30.5" y="-354.8" font-family="Helvetica,sans-Serif" font-size="11.00" fill="#000000">person_identifier</text>
<polygon fill="none" stroke="#000000" points="192.5,-347.7 192.5,-369.7 291.5,-369.7 291.5,-347.7 192.5,-347.7"/>
<text text-anchor="start" x="195.5" y="-355.4" font-family="Helvetica,sans-Serif" font-size="11.00" fill="#000000">varchar[10]</text>
<polygon fill="none" stroke="#000000" points="10.5,-325.7 10.5,-347.7 192.5,-347.7 192.5,-325.7 10.5,-325.7"/>
<text text-anchor="start" x="30.5" y="-332.8" font-family="Helvetica,sans-Serif" font-size="11.00" fill="#000000">authorisation_id</text>
<polygon fill="none" stroke="#000000" points="192.5,-325.7 192.5,-347.7 291.5,-347.7 291.5,-325.7 192.5,-325.7"/>
<text text-anchor="start" x="195.5" y="-333.4" font-family="Helvetica,sans-Serif" font-size="11.00" fill="#000000">uuid[2147483647]</text>
<polygon fill="none" stroke="#000000" points="10.5,-303.7 10.5,-325.7 192.5,-325.7 192.5,-303.7 10.5,-303.7"/>
<text text-anchor="start" x="30.5" y="-310.8" font-family="Helvetica,sans-Serif" font-size="11.00" fill="#000000">release_at</text>
<polygon fill="none" stroke="#000000" points="192.5,-303.7 192.5,-325.7 291.5,-325.7 291.5,-303.7 192.5,-303.7"/>
<text text-anchor="start" x="195.5" y="-311.4" font-family="Helvetica,sans-Serif" font-size="11.00" fill="#000000">timestamp[29,6]</text>
<polygon fill="none" stroke="#000000" points="10.5,-281.7 10.5,-303.7 192.5,-303.7 192.5,-281.7 10.5,-281.7"/>
<text text-anchor="start" x="30.5" y="-288.8" font-family="Helvetica,sans-Serif" font-size="11.00" fill="#000000">return_by</text>
<polygon fill="none" stroke="#000000" points="192.5,-281.7 192.5,-303.7 291.5,-303.7 291.5,-281.7 192.5,-281.7"/>
<text text-anchor="start" x="195.5" y="-289.4" font-family="Helvetica,sans-Serif" font-size="11.00" fill="#000000">timestamp[29,6]</text>
<polygon fill="none" stroke="#000000" points="10.5,-259.7 10.5,-281.7 192.5,-281.7 192.5,-259.7 10.5,-259.7"/>
<text text-anchor="start" x="30.5" y="-266.8" font-family="Helvetica,sans-Serif" font-size="11.00" fill="#000000">accompanied_by_id</text>
<polygon fill="none" stroke="#000000" points="192.5,-259.7 192.5,-281.7 291.5,-281.7 291.5,-259.7 192.5,-259.7"/>
<text text-anchor="start" x="195.5" y="-267.4" font-family="Helvetica,sans-Serif" font-size="11.00" fill="#000000">int8[19]</text>
<polygon fill="none" stroke="#000000" points="10.5,-237.7 10.5,-259.7 192.5,-259.7 192.5,-237.7 10.5,-237.7"/>
<text text-anchor="start" x="30.5" y="-244.8" font-family="Helvetica,sans-Serif" font-size="11.00" fill="#000000">transport_id</text>
<polygon fill="none" stroke="#000000" points="192.5,-237.7 192.5,-259.7 291.5,-259.7 291.5,-237.7 192.5,-237.7"/>
<text text-anchor="start" x="195.5" y="-245.4" font-family="Helvetica,sans-Serif" font-size="11.00" fill="#000000">int8[19]</text>
<polygon fill="none" stroke="#000000" points="10.5,-215.7 10.5,-237.7 192.5,-237.7 192.5,-215.7 10.5,-215.7"/>
<text text-anchor="start" x="30.5" y="-222.8" font-family="Helvetica,sans-Serif" font-size="11.00" fill="#000000">contact_information</text>
<polygon fill="none" stroke="#000000" points="192.5,-215.7 192.5,-237.7 291.5,-237.7 291.5,-215.7 192.5,-215.7"/>
<text text-anchor="start" x="195.5" y="-223.4" font-family="Helvetica,sans-Serif" font-size="11.00" fill="#000000">text[2147483647]</text>
<polygon fill="none" stroke="#000000" points="10.5,-193.7 10.5,-215.7 192.5,-215.7 192.5,-193.7 10.5,-193.7"/>
<text text-anchor="start" x="30.5" y="-200.8" font-family="Helvetica,sans-Serif" font-size="11.00" fill="#000000">notes</text>
<polygon fill="none" stroke="#000000" points="192.5,-193.7 192.5,-215.7 291.5,-215.7 291.5,-193.7 192.5,-193.7"/>
<text text-anchor="start" x="195.5" y="-201.4" font-family="Helvetica,sans-Serif" font-size="11.00" fill="#000000">text[2147483647]</text>
<polygon fill="none" stroke="#000000" points="10.5,-171.7 10.5,-193.7 192.5,-193.7 192.5,-171.7 10.5,-171.7"/>
<text text-anchor="start" x="30.5" y="-178.8" font-family="Helvetica,sans-Serif" font-size="11.00" fill="#000000">added_at</text>
<polygon fill="none" stroke="#000000" points="192.5,-171.7 192.5,-193.7 291.5,-193.7 291.5,-171.7 192.5,-171.7"/>
<text text-anchor="start" x="195.5" y="-179.4" font-family="Helvetica,sans-Serif" font-size="11.00" fill="#000000">timestamp[29,6]</text>
<polygon fill="none" stroke="#000000" points="10.5,-149.7 10.5,-171.7 192.5,-171.7 192.5,-149.7 10.5,-149.7"/>
<text text-anchor="start" x="30.5" y="-156.8" font-family="Helvetica,sans-Serif" font-size="11.00" fill="#000000">added_by</text>
<polygon fill="none" stroke="#000000" points="192.5,-149.7 192.5,-171.7 291.5,-171.7 291.5,-149.7 192.5,-149.7"/>
<text text-anchor="start" x="195.5" y="-157.4" font-family="Helvetica,sans-Serif" font-size="11.00" fill="#000000">varchar[64]</text>
<polygon fill="none" stroke="#000000" points="10.5,-127.7 10.5,-149.7 192.5,-149.7 192.5,-127.7 10.5,-127.7"/>
<text text-anchor="start" x="30.5" y="-134.8" font-family="Helvetica,sans-Serif" font-size="11.00" fill="#000000">cancelled_at</text>
<polygon fill="none" stroke="#000000" points="192.5,-127.7 192.5,-149.7 291.5,-149.7 291.5,-127.7 192.5,-127.7"/>
<text text-anchor="start" x="195.5" y="-135.4" font-family="Helvetica,sans-Serif" font-size="11.00" fill="#000000">timestamp[29,6]</text>
<polygon fill="none" stroke="#000000" points="10.5,-105.7 10.5,-127.7 192.5,-127.7 192.5,-105.7 10.5,-105.7"/>
<text text-anchor="start" x="30.5" y="-112.8" font-family="Helvetica,sans-Serif" font-size="11.00" fill="#000000">cancelled_by</text>
<polygon fill="none" stroke="#000000" points="192.5,-105.7 192.5,-127.7 291.5,-127.7 291.5,-105.7 192.5,-105.7"/>
<text text-anchor="start" x="195.5" y="-113.4" font-family="Helvetica,sans-Serif" font-size="11.00" fill="#000000">varchar[64]</text>
<polygon fill="none" stroke="#000000" points="10.5,-83.7 10.5,-105.7 192.5,-105.7 192.5,-83.7 10.5,-83.7"/>
<text text-anchor="start" x="30.5" y="-90.8" font-family="Helvetica,sans-Serif" font-size="11.00" fill="#000000">legacy_id</text>
<polygon fill="none" stroke="#000000" points="192.5,-83.7 192.5,-105.7 291.5,-105.7 291.5,-83.7 192.5,-83.7"/>
<text text-anchor="start" x="195.5" y="-91.4" font-family="Helvetica,sans-Serif" font-size="11.00" fill="#000000">int8[19]</text>
<polygon fill="none" stroke="#000000" points="10.5,-61.7 10.5,-83.7 192.5,-83.7 192.5,-61.7 10.5,-61.7"/>
<text text-anchor="start" x="30.5" y="-68.8" font-family="Helvetica,sans-Serif" font-size="11.00" fill="#000000">location</text>
<polygon fill="none" stroke="#000000" points="192.5,-61.7 192.5,-83.7 291.5,-83.7 291.5,-61.7 192.5,-61.7"/>
<text text-anchor="start" x="195.2258" y="-69.4" font-family="Helvetica,sans-Serif" font-size="11.00" fill="#000000">jsonb[2147483647]</text>
<polygon fill="none" stroke="#000000" points="10.5,-39.7 10.5,-61.7 192.5,-61.7 192.5,-39.7 10.5,-39.7"/>
<text text-anchor="start" x="30.5" y="-46.8" font-family="Helvetica,sans-Serif" font-size="11.00" fill="#000000">schedule_reference</text>
<polygon fill="none" stroke="#000000" points="192.5,-39.7 192.5,-61.7 291.5,-61.7 291.5,-39.7 192.5,-39.7"/>
<text text-anchor="start" x="195.2258" y="-47.4" font-family="Helvetica,sans-Serif" font-size="11.00" fill="#000000">jsonb[2147483647]</text>
<polygon fill="none" stroke="#000000" stroke-width="2" points="9,-39.2 9,-548.2 292,-548.2 292,-39.2 9,-39.2"/>
</a>
</g>
</g>
</g>
</svg>
