<?xml version="1.0" encoding="UTF-8" standalone="no"?>
<!DOCTYPE svg PUBLIC "-//W3C//DTD SVG 1.1//EN"
 "http://www.w3.org/Graphics/SVG/1.1/DTD/svg11.dtd">
<!-- Generated by graphviz version 2.40.1 (20161225.0304)
 -->
<!-- Title: oneDegreeRelationshipsDiagramImplied Pages: 1 -->
<svg width="538pt" height="473pt"
 viewBox="0.00 0.00 538.00 473.20" xmlns="http://www.w3.org/2000/svg" xmlns:xlink="http://www.w3.org/1999/xlink">
<g id="graph0" class="graph" transform="scale(1 1) rotate(0) translate(4 469.2)">
<title>oneDegreeRelationshipsDiagramImplied</title>
<polygon fill="#ffffff" stroke="transparent" points="-4,4 -4,-469.2 534,-469.2 534,4 -4,4"/>
<text text-anchor="middle" x="72.4936" y="-7.3" font-family="Helvetica,sans-Serif" font-size="11.00" fill="#000000">Generated by SchemaSpy</text>
<!-- audited_tap_movement -->
<g id="node1" class="node">
<title>audited_tap_movement</title>
<g id="a_node1"><a xlink:href="../../tables/audited_tap_movement.html" xlink:title="audited_tap_movement" target="_top">
<polygon fill="#ffffff" stroke="transparent" points="211,-38.2 211,-461.2 522,-461.2 522,-38.2 211,-38.2"/>
<polygon fill="#f5f5f5" stroke="transparent" points="213.5,-435.7 213.5,-458.7 520.5,-458.7 520.5,-435.7 213.5,-435.7"/>
<polygon fill="none" stroke="#000000" points="213.5,-435.7 213.5,-458.7 520.5,-458.7 520.5,-435.7 213.5,-435.7"/>
<text text-anchor="start" x="218.5" y="-444.3" font-family="Helvetica,sans-Serif" font-weight="bold" font-size="11.00" fill="#000000">audited_tap_movement</text>
<text text-anchor="start" x="487.3895" y="-443.8" font-family="Helvetica,sans-Serif" font-size="11.00" fill="#000000">[view]</text>
<polygon fill="none" stroke="#000000" points="213.5,-413.7 213.5,-435.7 421.5,-435.7 421.5,-413.7 213.5,-413.7"/>
<text text-anchor="start" x="233.5" y="-420.8" font-family="Helvetica,sans-Serif" font-size="11.00" fill="#000000">created_by</text>
<polygon fill="none" stroke="#000000" points="421.5,-413.7 421.5,-435.7 520.5,-435.7 520.5,-413.7 421.5,-413.7"/>
<text text-anchor="start" x="424.5" y="-421.4" font-family="Helvetica,sans-Serif" font-size="11.00" fill="#000000">varchar[64]</text>
<polygon fill="none" stroke="#000000" points="213.5,-391.7 213.5,-413.7 421.5,-413.7 421.5,-391.7 213.5,-391.7"/>
<text text-anchor="start" x="233.5" y="-398.8" font-family="Helvetica,sans-Serif" font-size="11.00" fill="#000000">created_at</text>
<polygon fill="none" stroke="#000000" points="421.5,-391.7 421.5,-413.7 520.5,-413.7 520.5,-391.7 421.5,-391.7"/>
<text text-anchor="start" x="424.5" y="-399.4" font-family="Helvetica,sans-Serif" font-size="11.00" fill="#000000">timestamp[29,6]</text>
<polygon fill="none" stroke="#000000" points="213.5,-369.7 213.5,-391.7 421.5,-391.7 421.5,-369.7 213.5,-369.7"/>
<text text-anchor="start" x="233.5" y="-376.8" font-family="Helvetica,sans-Serif" font-size="11.00" fill="#000000">updated_by</text>
<polygon fill="none" stroke="#000000" points="421.5,-369.7 421.5,-391.7 520.5,-391.7 520.5,-369.7 421.5,-369.7"/>
<text text-anchor="start" x="424.5" y="-377.4" font-family="Helvetica,sans-Serif" font-size="11.00" fill="#000000">varchar[64]</text>
<polygon fill="none" stroke="#000000" points="213.5,-347.7 213.5,-369.7 421.5,-369.7 421.5,-347.7 213.5,-347.7"/>
<text text-anchor="start" x="233.5" y="-354.8" font-family="Helvetica,sans-Serif" font-size="11.00" fill="#000000">updated_at</text>
<polygon fill="none" stroke="#000000" points="421.5,-347.7 421.5,-369.7 520.5,-369.7 520.5,-347.7 421.5,-347.7"/>
<text text-anchor="start" x="424.5" y="-355.4" font-family="Helvetica,sans-Serif" font-size="11.00" fill="#000000">timestamp[29,6]</text>
<polygon fill="none" stroke="#000000" points="213.5,-325.7 213.5,-347.7 421.5,-347.7 421.5,-325.7 213.5,-325.7"/>
<text text-anchor="start" x="233.5" y="-332.8" font-family="Helvetica,sans-Serif" font-size="11.00" fill="#000000">rev_type</text>
<polygon fill="none" stroke="#000000" points="421.5,-325.7 421.5,-347.7 520.5,-347.7 520.5,-325.7 421.5,-325.7"/>
<text text-anchor="start" x="424.5" y="-333.4" font-family="Helvetica,sans-Serif" font-size="11.00" fill="#000000">int2[5]</text>
<polygon fill="none" stroke="#000000" points="213.5,-303.7 213.5,-325.7 421.5,-325.7 421.5,-303.7 213.5,-303.7"/>
<text text-anchor="start" x="233.5" y="-310.8" font-family="Helvetica,sans-Serif" font-size="11.00" fill="#000000">id</text>
<polygon fill="none" stroke="#000000" points="421.5,-303.7 421.5,-325.7 520.5,-325.7 520.5,-303.7 421.5,-303.7"/>
<text text-anchor="start" x="424.5" y="-311.4" font-family="Helvetica,sans-Serif" font-size="11.00" fill="#000000">uuid[2147483647]</text>
<polygon fill="none" stroke="#000000" points="213.5,-281.7 213.5,-303.7 421.5,-303.7 421.5,-281.7 213.5,-281.7"/>
<text text-anchor="start" x="233.5" y="-288.8" font-family="Helvetica,sans-Serif" font-size="11.00" fill="#000000">version</text>
<polygon fill="none" stroke="#000000" points="421.5,-281.7 421.5,-303.7 520.5,-303.7 520.5,-281.7 421.5,-281.7"/>
<text text-anchor="start" x="424.5" y="-289.4" font-family="Helvetica,sans-Serif" font-size="11.00" fill="#000000">int4[10]</text>
<polygon fill="none" stroke="#000000" points="213.5,-259.7 213.5,-281.7 421.5,-281.7 421.5,-259.7 213.5,-259.7"/>
<image xlink:href="../../images/foreignKeys.png" width="11px" height="12px" preserveAspectRatio="xMinYMin meet" x="218.5" y="-276.7"/>
<text text-anchor="start" x="233.5" y="-266.8" font-family="Helvetica,sans-Serif" font-size="11.00" fill="#000000">person_identifier</text>
<polygon fill="none" stroke="#000000" points="421.5,-259.7 421.5,-281.7 520.5,-281.7 520.5,-259.7 421.5,-259.7"/>
<text text-anchor="start" x="424.5" y="-267.4" font-family="Helvetica,sans-Serif" font-size="11.00" fill="#000000">varchar[10]</text>
<polygon fill="none" stroke="#000000" points="213.5,-237.7 213.5,-259.7 421.5,-259.7 421.5,-237.7 213.5,-237.7"/>
<text text-anchor="start" x="233.5" y="-244.8" font-family="Helvetica,sans-Serif" font-size="11.00" fill="#000000">occurrence_id</text>
<polygon fill="none" stroke="#000000" points="421.5,-237.7 421.5,-259.7 520.5,-259.7 520.5,-237.7 421.5,-237.7"/>
<text text-anchor="start" x="424.5" y="-245.4" font-family="Helvetica,sans-Serif" font-size="11.00" fill="#000000">uuid[2147483647]</text>
<polygon fill="none" stroke="#000000" points="213.5,-215.7 213.5,-237.7 421.5,-237.7 421.5,-215.7 213.5,-215.7"/>
<text text-anchor="start" x="233.5" y="-222.8" font-family="Helvetica,sans-Serif" font-size="11.00" fill="#000000">occurred_at</text>
<polygon fill="none" stroke="#000000" points="421.5,-215.7 421.5,-237.7 520.5,-237.7 520.5,-215.7 421.5,-215.7"/>
<text text-anchor="start" x="424.5" y="-223.4" font-family="Helvetica,sans-Serif" font-size="11.00" fill="#000000">timestamp[29,6]</text>
<polygon fill="none" stroke="#000000" points="213.5,-193.7 213.5,-215.7 421.5,-215.7 421.5,-193.7 213.5,-193.7"/>
<text text-anchor="start" x="233.5" y="-200.8" font-family="Helvetica,sans-Serif" font-size="11.00" fill="#000000">direction</text>
<polygon fill="none" stroke="#000000" points="421.5,-193.7 421.5,-215.7 520.5,-215.7 520.5,-193.7 421.5,-193.7"/>
<text text-anchor="start" x="424.5" y="-201.4" font-family="Helvetica,sans-Serif" font-size="11.00" fill="#000000">varchar[3]</text>
<polygon fill="none" stroke="#000000" points="213.5,-171.7 213.5,-193.7 421.5,-193.7 421.5,-171.7 213.5,-171.7"/>
<text text-anchor="start" x="233.5" y="-178.8" font-family="Helvetica,sans-Serif" font-size="11.00" fill="#000000">absence_reason_id</text>
<polygon fill="none" stroke="#000000" points="421.5,-171.7 421.5,-193.7 520.5,-193.7 520.5,-171.7 421.5,-171.7"/>
<text text-anchor="start" x="424.5" y="-179.4" font-family="Helvetica,sans-Serif" font-size="11.00" fill="#000000">int8[19]</text>
<polygon fill="none" stroke="#000000" points="213.5,-149.7 213.5,-171.7 421.5,-171.7 421.5,-149.7 213.5,-149.7"/>
<text text-anchor="start" x="233.5" y="-156.8" font-family="Helvetica,sans-Serif" font-size="11.00" fill="#000000">accompanied_by_id</text>
<polygon fill="none" stroke="#000000" points="421.5,-149.7 421.5,-171.7 520.5,-171.7 520.5,-149.7 421.5,-149.7"/>
<text text-anchor="start" x="424.5" y="-157.4" font-family="Helvetica,sans-Serif" font-size="11.00" fill="#000000">int8[19]</text>
<polygon fill="none" stroke="#000000" points="213.5,-127.7 213.5,-149.7 421.5,-149.7 421.5,-127.7 213.5,-127.7"/>
<text text-anchor="start" x="233.5" y="-134.8" font-family="Helvetica,sans-Serif" font-size="11.00" fill="#000000">accompanied_by_comments</text>
<polygon fill="none" stroke="#000000" points="421.5,-127.7 421.5,-149.7 520.5,-149.7 520.5,-127.7 421.5,-127.7"/>
<text text-anchor="start" x="424.5" y="-135.4" font-family="Helvetica,sans-Serif" font-size="11.00" fill="#000000">text[2147483647]</text>
<polygon fill="none" stroke="#000000" points="213.5,-105.7 213.5,-127.7 421.5,-127.7 421.5,-105.7 213.5,-105.7"/>
<text text-anchor="start" x="233.5" y="-112.8" font-family="Helvetica,sans-Serif" font-size="11.00" fill="#000000">comments</text>
<polygon fill="none" stroke="#000000" points="421.5,-105.7 421.5,-127.7 520.5,-127.7 520.5,-105.7 421.5,-105.7"/>
<text text-anchor="start" x="424.5" y="-113.4" font-family="Helvetica,sans-Serif" font-size="11.00" fill="#000000">text[2147483647]</text>
<polygon fill="none" stroke="#000000" points="213.5,-83.7 213.5,-105.7 421.5,-105.7 421.5,-83.7 213.5,-83.7"/>
<text text-anchor="start" x="233.5" y="-90.8" font-family="Helvetica,sans-Serif" font-size="11.00" fill="#000000">recorded_by_prison_code</text>
<polygon fill="none" stroke="#000000" points="421.5,-83.7 421.5,-105.7 520.5,-105.7 520.5,-83.7 421.5,-83.7"/>
<text text-anchor="start" x="424.5" y="-91.4" font-family="Helvetica,sans-Serif" font-size="11.00" fill="#000000">varchar[6]</text>
<polygon fill="none" stroke="#000000" points="213.5,-61.7 213.5,-83.7 421.5,-83.7 421.5,-61.7 213.5,-61.7"/>
<text text-anchor="start" x="233.5" y="-68.8" font-family="Helvetica,sans-Serif" font-size="11.00" fill="#000000">legacy_id</text>
<polygon fill="none" stroke="#000000" points="421.5,-61.7 421.5,-83.7 520.5,-83.7 520.5,-61.7 421.5,-61.7"/>
<text text-anchor="start" x="424.5" y="-69.4" font-family="Helvetica,sans-Serif" font-size="11.00" fill="#000000">varchar[32]</text>
<polygon fill="none" stroke="#000000" points="213.5,-39.7 213.5,-61.7 421.5,-61.7 421.5,-39.7 213.5,-39.7"/>
<text text-anchor="start" x="233.5" y="-46.8" font-family="Helvetica,sans-Serif" font-size="11.00" fill="#000000">location</text>
<polygon fill="none" stroke="#000000" points="421.5,-39.7 421.5,-61.7 520.5,-61.7 520.5,-39.7 421.5,-39.7"/>
<text text-anchor="start" x="424.2258" y="-47.4" font-family="Helvetica,sans-Serif" font-size="11.00" fill="#000000">jsonb[2147483647]</text>
<polygon fill="none" stroke="#000000" stroke-width="2" points="212,-39.2 212,-460.2 521,-460.2 521,-39.2 212,-39.2"/>
</a>
</g>
</g>
<!-- person_summary -->
<g id="node2" class="node">
<title>person_summary</title>
<g id="a_node2"><a xlink:href="../../tables/person_summary.html" xlink:title="person_summary" target="_top">
<polygon fill="#ffffff" stroke="transparent" points="8,-222.2 8,-305.2 162,-305.2 162,-222.2 8,-222.2"/>
<polygon fill="#f5f5f5" stroke="transparent" points="8,-281.7 8,-304.7 162,-304.7 162,-281.7 8,-281.7"/>
<polygon fill="none" stroke="#000000" points="8,-281.7 8,-304.7 162,-304.7 162,-281.7 8,-281.7"/>
<text text-anchor="start" x="13" y="-290.3" font-family="Helvetica,sans-Serif" font-weight="bold" font-size="11.00" fill="#000000">person_summary</text>
<text text-anchor="start" x="127.5219" y="-289.8" font-family="Helvetica,sans-Serif" font-size="11.00" fill="#000000">[table]</text>
<polygon fill="none" stroke="#000000" points="8,-259.7 8,-281.7 162,-281.7 162,-259.7 8,-259.7"/>
<image xlink:href="../../images/primaryKeys.png" width="11px" height="12px" preserveAspectRatio="xMinYMin meet" x="13" y="-276.7"/>
<text text-anchor="start" x="37" y="-266.8" font-family="Helvetica,sans-Serif" font-size="11.00" fill="#000000">person_identifier</text>
<polygon fill="none" stroke="#000000" points="8,-240.7 8,-259.7 162,-259.7 162,-240.7 8,-240.7"/>
<text text-anchor="start" x="11" y="-246.8" font-family="Helvetica,sans-Serif" font-size="11.00" fill="#000000">...</text>
<polygon fill="#ffffff" stroke="transparent" points="8,-221.7 8,-240.7 74,-240.7 74,-221.7 8,-221.7"/>
<polygon fill="none" stroke="#000000" points="8,-221.7 8,-240.7 74,-240.7 74,-221.7 8,-221.7"/>
<text text-anchor="start" x="11" y="-227.8" font-family="Helvetica,sans-Serif" font-size="11.00" fill="#000000"> &#160;</text>
<polygon fill="#ffffff" stroke="transparent" points="74,-221.7 74,-240.7 113,-240.7 113,-221.7 74,-221.7"/>
<polygon fill="none" stroke="#000000" points="74,-221.7 74,-240.7 113,-240.7 113,-221.7 74,-221.7"/>
<text text-anchor="start" x="103.8862" y="-227.8" font-family="Helvetica,sans-Serif" font-size="11.00" fill="#000000"> &#160;</text>
<polygon fill="#ffffff" stroke="transparent" points="113,-221.7 113,-240.7 162,-240.7 162,-221.7 113,-221.7"/>
<polygon fill="none" stroke="#000000" points="113,-221.7 113,-240.7 162,-240.7 162,-221.7 113,-221.7"/>
<text text-anchor="start" x="143.4053" y="-227.8" font-family="Helvetica,sans-Serif" font-size="11.00" fill="#000000">6 &gt;</text>
</a>
</g>
</g>
<!-- audited_tap_movement&#45;&gt;person_summary -->
<g id="edge1" class="edge">
<title>audited_tap_movement:w&#45;&gt;person_summary:e</title>
<path fill="none" stroke="#000000" stroke-dasharray="5,2" d="M199.0156,-270.7C186.6771,-270.7 179.1667,-270.7 162,-270.7"/>
<polygon fill="#000000" stroke="#000000" points="205.5,-270.7001 213.5,-274.3 209.5,-270.7 213.5,-270.7 213.5,-270.7 213.5,-270.7 209.5,-270.7 213.5,-267.1 205.5,-270.7001 205.5,-270.7001"/>
<ellipse fill="none" stroke="#000000" cx="202.3" cy="-270.7001" rx="3.2" ry="3.2"/>
</g>
</g>
</svg>
