<?xml version="1.0" encoding="UTF-8" standalone="no"?>
<!DOCTYPE svg PUBLIC "-//W3C//DTD SVG 1.1//EN"
 "http://www.w3.org/Graphics/SVG/1.1/DTD/svg11.dtd">
<!-- Generated by graphviz version 2.40.1 (20161225.0304)
 -->
<!-- Title: twoDegreesRelationshipsDiagramImplied Pages: 1 -->
<svg width="636pt" height="889pt"
 viewBox="0.00 0.00 636.00 889.20" xmlns="http://www.w3.org/2000/svg" xmlns:xlink="http://www.w3.org/1999/xlink">
<g id="graph0" class="graph" transform="scale(1 1) rotate(0) translate(4 885.2)">
<title>twoDegreesRelationshipsDiagramImplied</title>
<polygon fill="#ffffff" stroke="transparent" points="-4,4 -4,-885.2 632,-885.2 632,4 -4,4"/>
<text text-anchor="middle" x="72.4936" y="-7.3" font-family="Helvetica,sans-Serif" font-size="11.00" fill="#000000">Generated by SchemaSpy</text>
<!-- hmpps_domain_event_audit -->
<g id="node1" class="node">
<title>hmpps_domain_event_audit</title>
<g id="a_node1"><a xlink:href="../../tables/hmpps_domain_event_audit.html" xlink:title="hmpps_domain_event_audit" target="_top">
<polygon fill="#ffffff" stroke="transparent" points="353,-668.2 353,-773.2 578,-773.2 578,-668.2 353,-668.2"/>
<polygon fill="#f5f5f5" stroke="transparent" points="353.5,-749.7 353.5,-772.7 578.5,-772.7 578.5,-749.7 353.5,-749.7"/>
<polygon fill="none" stroke="#000000" points="353.5,-749.7 353.5,-772.7 578.5,-772.7 578.5,-749.7 353.5,-749.7"/>
<text text-anchor="start" x="358.5" y="-758.3" font-family="Helvetica,sans-Serif" font-weight="bold" font-size="11.00" fill="#000000">hmpps_domain_event_audit</text>
<text text-anchor="start" x="544.0219" y="-757.8" font-family="Helvetica,sans-Serif" font-size="11.00" fill="#000000">[table]</text>
<polygon fill="none" stroke="#000000" points="353.5,-727.7 353.5,-749.7 578.5,-749.7 578.5,-727.7 353.5,-727.7"/>
<image xlink:href="../../images/primaryKeys.png" width="11px" height="12px" preserveAspectRatio="xMinYMin meet" x="358.5" y="-744.7"/>
<text text-anchor="start" x="382.5" y="-734.8" font-family="Helvetica,sans-Serif" font-size="11.00" fill="#000000">rev_id</text>
<polygon fill="none" stroke="#000000" points="353.5,-705.7 353.5,-727.7 578.5,-727.7 578.5,-705.7 353.5,-705.7"/>
<image xlink:href="../../images/primaryKeys.png" width="11px" height="12px" preserveAspectRatio="xMinYMin meet" x="358.5" y="-722.7"/>
<text text-anchor="start" x="382.5" y="-712.8" font-family="Helvetica,sans-Serif" font-size="11.00" fill="#000000">id</text>
<polygon fill="none" stroke="#000000" points="353.5,-686.7 353.5,-705.7 578.5,-705.7 578.5,-686.7 353.5,-686.7"/>
<text text-anchor="start" x="356.5" y="-692.8" font-family="Helvetica,sans-Serif" font-size="11.00" fill="#000000">...</text>
<polygon fill="#ffffff" stroke="transparent" points="353.5,-667.7 353.5,-686.7 464.5,-686.7 464.5,-667.7 353.5,-667.7"/>
<polygon fill="none" stroke="#000000" points="353.5,-667.7 353.5,-686.7 464.5,-686.7 464.5,-667.7 353.5,-667.7"/>
<text text-anchor="start" x="356.5" y="-673.8" font-family="Helvetica,sans-Serif" font-size="11.00" fill="#000000">&lt; 1</text>
<polygon fill="#ffffff" stroke="transparent" points="464.5,-667.7 464.5,-686.7 521.5,-686.7 521.5,-667.7 464.5,-667.7"/>
<polygon fill="none" stroke="#000000" points="464.5,-667.7 464.5,-686.7 521.5,-686.7 521.5,-667.7 464.5,-667.7"/>
<text text-anchor="start" x="512.3862" y="-673.8" font-family="Helvetica,sans-Serif" font-size="11.00" fill="#000000"> &#160;</text>
<polygon fill="#ffffff" stroke="transparent" points="521.5,-667.7 521.5,-686.7 578.5,-686.7 578.5,-667.7 521.5,-667.7"/>
<polygon fill="none" stroke="#000000" points="521.5,-667.7 521.5,-686.7 578.5,-686.7 578.5,-667.7 521.5,-667.7"/>
<text text-anchor="start" x="569.3862" y="-673.8" font-family="Helvetica,sans-Serif" font-size="11.00" fill="#000000"> &#160;</text>
</a>
</g>
</g>
<!-- audit_revision -->
<g id="node2" class="node">
<title>audit_revision</title>
<g id="a_node2"><a xlink:href="../../tables/audit_revision.html" xlink:title="audit_revision" target="_top">
<polygon fill="#ffffff" stroke="transparent" points="8,-344.7 8,-522.7 262,-522.7 262,-344.7 8,-344.7"/>
<polygon fill="#f5f5f5" stroke="transparent" points="10,-497.7 10,-520.7 260,-520.7 260,-497.7 10,-497.7"/>
<polygon fill="none" stroke="#000000" points="10,-497.7 10,-520.7 260,-520.7 260,-497.7 10,-497.7"/>
<text text-anchor="start" x="15" y="-506.3" font-family="Helvetica,sans-Serif" font-weight="bold" font-size="11.00" fill="#000000">audit_revision</text>
<text text-anchor="start" x="225.0437" y="-505.8" font-family="Helvetica,sans-Serif" font-size="11.00" fill="#000000">[table]</text>
<polygon fill="none" stroke="#000000" points="10,-475.7 10,-497.7 144,-497.7 144,-475.7 10,-475.7"/>
<image xlink:href="../../images/primaryKeys.png" width="11px" height="12px" preserveAspectRatio="xMinYMin meet" x="15" y="-492.7"/>
<text text-anchor="start" x="30" y="-482.8" font-family="Helvetica,sans-Serif" font-size="11.00" fill="#000000">id</text>
<polygon fill="none" stroke="#000000" points="144,-475.7 144,-497.7 260,-497.7 260,-475.7 144,-475.7"/>
<text text-anchor="start" x="147" y="-483.4" font-family="Helvetica,sans-Serif" font-size="11.00" fill="#000000">bigserial[19]</text>
<polygon fill="none" stroke="#000000" points="10,-453.7 10,-475.7 144,-475.7 144,-453.7 10,-453.7"/>
<text text-anchor="start" x="30" y="-460.8" font-family="Helvetica,sans-Serif" font-size="11.00" fill="#000000">timestamp</text>
<polygon fill="none" stroke="#000000" points="144,-453.7 144,-475.7 260,-475.7 260,-453.7 144,-453.7"/>
<text text-anchor="start" x="147" y="-461.4" font-family="Helvetica,sans-Serif" font-size="11.00" fill="#000000">timestamp[29,6]</text>
<polygon fill="none" stroke="#000000" points="10,-431.7 10,-453.7 144,-453.7 144,-431.7 10,-431.7"/>
<text text-anchor="start" x="30" y="-438.8" font-family="Helvetica,sans-Serif" font-size="11.00" fill="#000000">username</text>
<polygon fill="none" stroke="#000000" points="144,-431.7 144,-453.7 260,-453.7 260,-431.7 144,-431.7"/>
<text text-anchor="start" x="147" y="-439.4" font-family="Helvetica,sans-Serif" font-size="11.00" fill="#000000">varchar[64]</text>
<polygon fill="none" stroke="#000000" points="10,-409.7 10,-431.7 144,-431.7 144,-409.7 10,-409.7"/>
<text text-anchor="start" x="30" y="-416.8" font-family="Helvetica,sans-Serif" font-size="11.00" fill="#000000">source</text>
<polygon fill="none" stroke="#000000" points="144,-409.7 144,-431.7 260,-431.7 260,-409.7 144,-409.7"/>
<text text-anchor="start" x="147" y="-417.4" font-family="Helvetica,sans-Serif" font-size="11.00" fill="#000000">varchar[6]</text>
<polygon fill="none" stroke="#000000" points="10,-387.7 10,-409.7 144,-409.7 144,-387.7 10,-387.7"/>
<text text-anchor="start" x="30" y="-394.8" font-family="Helvetica,sans-Serif" font-size="11.00" fill="#000000">affected_entities</text>
<polygon fill="none" stroke="#000000" points="144,-387.7 144,-409.7 260,-409.7 260,-387.7 144,-387.7"/>
<text text-anchor="start" x="146.9769" y="-395.4" font-family="Helvetica,sans-Serif" font-size="11.00" fill="#000000">_varchar[2147483647]</text>
<polygon fill="none" stroke="#000000" points="10,-365.7 10,-387.7 144,-387.7 144,-365.7 10,-365.7"/>
<text text-anchor="start" x="30" y="-372.8" font-family="Helvetica,sans-Serif" font-size="11.00" fill="#000000">reason</text>
<polygon fill="none" stroke="#000000" points="144,-365.7 144,-387.7 260,-387.7 260,-365.7 144,-365.7"/>
<text text-anchor="start" x="147" y="-373.4" font-family="Helvetica,sans-Serif" font-size="11.00" fill="#000000">text[2147483647]</text>
<polygon fill="#ffffff" stroke="transparent" points="10,-346.7 10,-365.7 81,-365.7 81,-346.7 10,-346.7"/>
<polygon fill="none" stroke="#000000" points="10,-346.7 10,-365.7 81,-365.7 81,-346.7 10,-346.7"/>
<text text-anchor="start" x="13" y="-352.8" font-family="Helvetica,sans-Serif" font-size="11.00" fill="#000000">&lt; 0</text>
<polygon fill="#ffffff" stroke="transparent" points="81,-346.7 81,-365.7 144,-365.7 144,-346.7 81,-346.7"/>
<polygon fill="none" stroke="#000000" points="81,-346.7 81,-365.7 144,-365.7 144,-346.7 81,-346.7"/>
<text text-anchor="start" x="134.8862" y="-352.8" font-family="Helvetica,sans-Serif" font-size="11.00" fill="#000000"> &#160;</text>
<polygon fill="#ffffff" stroke="transparent" points="144,-346.7 144,-365.7 260,-365.7 260,-346.7 144,-346.7"/>
<polygon fill="none" stroke="#000000" points="144,-346.7 144,-365.7 260,-365.7 260,-346.7 144,-346.7"/>
<text text-anchor="start" x="241.4053" y="-352.8" font-family="Helvetica,sans-Serif" font-size="11.00" fill="#000000">7 &gt;</text>
<polygon fill="none" stroke="#000000" stroke-width="2" points="9,-345.7 9,-521.7 261,-521.7 261,-345.7 9,-345.7"/>
</a>
</g>
</g>
<!-- hmpps_domain_event_audit&#45;&gt;audit_revision -->
<g id="edge1" class="edge">
<title>hmpps_domain_event_audit:w&#45;&gt;audit_revision:e</title>
<path fill="none" stroke="#000000" d="M339.1145,-736.5849C312.8964,-727.6065 317.3914,-691.5574 303,-657.7 272.3442,-585.5789 338.366,-486.7 260,-486.7"/>
<polygon fill="#000000" stroke="#000000" points="345.5851,-737.5362 352.9763,-742.2617 349.5425,-738.1181 353.5,-738.7 353.5,-738.7 353.5,-738.7 349.5425,-738.1181 354.0237,-735.1383 345.5851,-737.5362 345.5851,-737.5362"/>
<ellipse fill="none" stroke="#000000" cx="342.4191" cy="-737.0707" rx="3.2" ry="3.2"/>
</g>
<!-- temporary_absence_authorisation_audit -->
<g id="node3" class="node">
<title>temporary_absence_authorisation_audit</title>
<g id="a_node3"><a xlink:href="../../tables/temporary_absence_authorisation_audit.html" xlink:title="temporary_absence_authorisation_audit" target="_top">
<polygon fill="#ffffff" stroke="transparent" points="311,-38.2 311,-165.2 620,-165.2 620,-38.2 311,-38.2"/>
<polygon fill="#f5f5f5" stroke="transparent" points="311.5,-141.7 311.5,-164.7 620.5,-164.7 620.5,-141.7 311.5,-141.7"/>
<polygon fill="none" stroke="#000000" points="311.5,-141.7 311.5,-164.7 620.5,-164.7 620.5,-141.7 311.5,-141.7"/>
<text text-anchor="start" x="316.5" y="-150.3" font-family="Helvetica,sans-Serif" font-weight="bold" font-size="11.00" fill="#000000">temporary_absence_authorisation_audit</text>
<text text-anchor="start" x="586.0219" y="-149.8" font-family="Helvetica,sans-Serif" font-size="11.00" fill="#000000">[table]</text>
<polygon fill="none" stroke="#000000" points="311.5,-119.7 311.5,-141.7 620.5,-141.7 620.5,-119.7 311.5,-119.7"/>
<image xlink:href="../../images/primaryKeys.png" width="11px" height="12px" preserveAspectRatio="xMinYMin meet" x="316.5" y="-136.7"/>
<text text-anchor="start" x="340.5" y="-126.8" font-family="Helvetica,sans-Serif" font-size="11.00" fill="#000000">rev_id</text>
<polygon fill="none" stroke="#000000" points="311.5,-97.7 311.5,-119.7 620.5,-119.7 620.5,-97.7 311.5,-97.7"/>
<image xlink:href="../../images/primaryKeys.png" width="11px" height="12px" preserveAspectRatio="xMinYMin meet" x="316.5" y="-114.7"/>
<text text-anchor="start" x="340.5" y="-104.8" font-family="Helvetica,sans-Serif" font-size="11.00" fill="#000000">id</text>
<polygon fill="none" stroke="#000000" points="311.5,-75.7 311.5,-97.7 620.5,-97.7 620.5,-75.7 311.5,-75.7"/>
<image xlink:href="../../images/foreignKeys.png" width="11px" height="12px" preserveAspectRatio="xMinYMin meet" x="316.5" y="-92.7"/>
<text text-anchor="start" x="340.5" y="-82.8" font-family="Helvetica,sans-Serif" font-size="11.00" fill="#000000">person_identifier</text>
<polygon fill="none" stroke="#000000" points="311.5,-56.7 311.5,-75.7 620.5,-75.7 620.5,-56.7 311.5,-56.7"/>
<text text-anchor="start" x="314.5" y="-62.8" font-family="Helvetica,sans-Serif" font-size="11.00" fill="#000000">...</text>
<polygon fill="#ffffff" stroke="transparent" points="311.5,-37.7 311.5,-56.7 464.5,-56.7 464.5,-37.7 311.5,-37.7"/>
<polygon fill="none" stroke="#000000" points="311.5,-37.7 311.5,-56.7 464.5,-56.7 464.5,-37.7 311.5,-37.7"/>
<text text-anchor="start" x="314.5" y="-43.8" font-family="Helvetica,sans-Serif" font-size="11.00" fill="#000000">&lt; 2</text>
<polygon fill="#ffffff" stroke="transparent" points="464.5,-37.7 464.5,-56.7 542.5,-56.7 542.5,-37.7 464.5,-37.7"/>
<polygon fill="none" stroke="#000000" points="464.5,-37.7 464.5,-56.7 542.5,-56.7 542.5,-37.7 464.5,-37.7"/>
<text text-anchor="start" x="533.3862" y="-43.8" font-family="Helvetica,sans-Serif" font-size="11.00" fill="#000000"> &#160;</text>
<polygon fill="#ffffff" stroke="transparent" points="542.5,-37.7 542.5,-56.7 620.5,-56.7 620.5,-37.7 542.5,-37.7"/>
<polygon fill="none" stroke="#000000" points="542.5,-37.7 542.5,-56.7 620.5,-56.7 620.5,-37.7 542.5,-37.7"/>
<text text-anchor="start" x="611.3862" y="-43.8" font-family="Helvetica,sans-Serif" font-size="11.00" fill="#000000"> &#160;</text>
</a>
</g>
</g>
<!-- temporary_absence_authorisation_audit&#45;&gt;audit_revision -->
<g id="edge3" class="edge">
<title>temporary_absence_authorisation_audit:w&#45;&gt;audit_revision:e</title>
<path fill="none" stroke="#000000" d="M297.6267,-135.4633C245.5015,-177.7083 334.4703,-486.7 260,-486.7"/>
<polygon fill="#000000" stroke="#000000" points="303.9336,-133.2979 312.6691,-134.1049 307.7168,-131.999 311.5,-130.7 311.5,-130.7 311.5,-130.7 307.7168,-131.999 310.3309,-127.2951 303.9336,-133.2979 303.9336,-133.2979"/>
<ellipse fill="none" stroke="#000000" cx="300.907" cy="-134.3371" rx="3.2" ry="3.2"/>
</g>
<!-- person_summary -->
<g id="node4" class="node">
<title>person_summary</title>
<g id="a_node4"><a xlink:href="../../tables/person_summary.html" xlink:title="person_summary" target="_top">
<polygon fill="#ffffff" stroke="transparent" points="58,-133.2 58,-194.2 212,-194.2 212,-133.2 58,-133.2"/>
<polygon fill="#f5f5f5" stroke="transparent" points="58,-170.7 58,-193.7 212,-193.7 212,-170.7 58,-170.7"/>
<polygon fill="none" stroke="#000000" points="58,-170.7 58,-193.7 212,-193.7 212,-170.7 58,-170.7"/>
<text text-anchor="start" x="63" y="-179.3" font-family="Helvetica,sans-Serif" font-weight="bold" font-size="11.00" fill="#000000">person_summary</text>
<text text-anchor="start" x="177.5219" y="-178.8" font-family="Helvetica,sans-Serif" font-size="11.00" fill="#000000">[table]</text>
<polygon fill="none" stroke="#000000" points="58,-151.7 58,-170.7 212,-170.7 212,-151.7 58,-151.7"/>
<text text-anchor="start" x="61" y="-157.8" font-family="Helvetica,sans-Serif" font-size="11.00" fill="#000000">...</text>
<polygon fill="#ffffff" stroke="transparent" points="58,-132.7 58,-151.7 124,-151.7 124,-132.7 58,-132.7"/>
<polygon fill="none" stroke="#000000" points="58,-132.7 58,-151.7 124,-151.7 124,-132.7 58,-132.7"/>
<text text-anchor="start" x="61" y="-138.8" font-family="Helvetica,sans-Serif" font-size="11.00" fill="#000000"> &#160;</text>
<polygon fill="#ffffff" stroke="transparent" points="124,-132.7 124,-151.7 163,-151.7 163,-132.7 124,-132.7"/>
<polygon fill="none" stroke="#000000" points="124,-132.7 124,-151.7 163,-151.7 163,-132.7 124,-132.7"/>
<text text-anchor="start" x="153.8862" y="-138.8" font-family="Helvetica,sans-Serif" font-size="11.00" fill="#000000"> &#160;</text>
<polygon fill="#ffffff" stroke="transparent" points="163,-132.7 163,-151.7 212,-151.7 212,-132.7 163,-132.7"/>
<polygon fill="none" stroke="#000000" points="163,-132.7 163,-151.7 212,-151.7 212,-132.7 163,-132.7"/>
<text text-anchor="start" x="193.4053" y="-138.8" font-family="Helvetica,sans-Serif" font-size="11.00" fill="#000000">6 &gt;</text>
</a>
</g>
</g>
<!-- temporary_absence_authorisation_audit&#45;&gt;person_summary -->
<g id="edge2" class="edge">
<title>temporary_absence_authorisation_audit:w&#45;&gt;person_summary:e</title>
<path fill="none" stroke="#000000" stroke-dasharray="5,2" d="M297.115,-88.6793C257.855,-100.4474 261.7296,-160.7 212,-160.7"/>
<polygon fill="#000000" stroke="#000000" points="303.5747,-87.7905 311.9907,-90.2664 307.5373,-87.2453 311.5,-86.7 311.5,-86.7 311.5,-86.7 307.5373,-87.2453 311.0093,-83.1336 303.5747,-87.7905 303.5747,-87.7905"/>
<ellipse fill="none" stroke="#000000" cx="300.4045" cy="-88.2268" rx="3.2" ry="3.2"/>
</g>
<!-- temporary_absence_movement_audit -->
<g id="node5" class="node">
<title>temporary_absence_movement_audit</title>
<g id="a_node5"><a xlink:href="../../tables/temporary_absence_movement_audit.html" xlink:title="temporary_absence_movement_audit" target="_top">
<polygon fill="#ffffff" stroke="transparent" points="320.5,-186.2 320.5,-313.2 610.5,-313.2 610.5,-186.2 320.5,-186.2"/>
<polygon fill="#f5f5f5" stroke="transparent" points="320.5,-289.7 320.5,-312.7 610.5,-312.7 610.5,-289.7 320.5,-289.7"/>
<polygon fill="none" stroke="#000000" points="320.5,-289.7 320.5,-312.7 610.5,-312.7 610.5,-289.7 320.5,-289.7"/>
<text text-anchor="start" x="325.5" y="-298.3" font-family="Helvetica,sans-Serif" font-weight="bold" font-size="11.00" fill="#000000">temporary_absence_movement_audit</text>
<text text-anchor="start" x="576.0219" y="-297.8" font-family="Helvetica,sans-Serif" font-size="11.00" fill="#000000">[table]</text>
<polygon fill="none" stroke="#000000" points="320.5,-267.7 320.5,-289.7 610.5,-289.7 610.5,-267.7 320.5,-267.7"/>
<image xlink:href="../../images/primaryKeys.png" width="11px" height="12px" preserveAspectRatio="xMinYMin meet" x="325.5" y="-284.7"/>
<text text-anchor="start" x="349.5" y="-274.8" font-family="Helvetica,sans-Serif" font-size="11.00" fill="#000000">rev_id</text>
<polygon fill="none" stroke="#000000" points="320.5,-245.7 320.5,-267.7 610.5,-267.7 610.5,-245.7 320.5,-245.7"/>
<image xlink:href="../../images/primaryKeys.png" width="11px" height="12px" preserveAspectRatio="xMinYMin meet" x="325.5" y="-262.7"/>
<text text-anchor="start" x="349.5" y="-252.8" font-family="Helvetica,sans-Serif" font-size="11.00" fill="#000000">id</text>
<polygon fill="none" stroke="#000000" points="320.5,-223.7 320.5,-245.7 610.5,-245.7 610.5,-223.7 320.5,-223.7"/>
<image xlink:href="../../images/foreignKeys.png" width="11px" height="12px" preserveAspectRatio="xMinYMin meet" x="325.5" y="-240.7"/>
<text text-anchor="start" x="349.5" y="-230.8" font-family="Helvetica,sans-Serif" font-size="11.00" fill="#000000">person_identifier</text>
<polygon fill="none" stroke="#000000" points="320.5,-204.7 320.5,-223.7 610.5,-223.7 610.5,-204.7 320.5,-204.7"/>
<text text-anchor="start" x="323.5" y="-210.8" font-family="Helvetica,sans-Serif" font-size="11.00" fill="#000000">...</text>
<polygon fill="#ffffff" stroke="transparent" points="320.5,-185.7 320.5,-204.7 463.5,-204.7 463.5,-185.7 320.5,-185.7"/>
<polygon fill="none" stroke="#000000" points="320.5,-185.7 320.5,-204.7 463.5,-204.7 463.5,-185.7 320.5,-185.7"/>
<text text-anchor="start" x="323.5" y="-191.8" font-family="Helvetica,sans-Serif" font-size="11.00" fill="#000000">&lt; 2</text>
<polygon fill="#ffffff" stroke="transparent" points="463.5,-185.7 463.5,-204.7 536.5,-204.7 536.5,-185.7 463.5,-185.7"/>
<polygon fill="none" stroke="#000000" points="463.5,-185.7 463.5,-204.7 536.5,-204.7 536.5,-185.7 463.5,-185.7"/>
<text text-anchor="start" x="527.3862" y="-191.8" font-family="Helvetica,sans-Serif" font-size="11.00" fill="#000000"> &#160;</text>
<polygon fill="#ffffff" stroke="transparent" points="536.5,-185.7 536.5,-204.7 610.5,-204.7 610.5,-185.7 536.5,-185.7"/>
<polygon fill="none" stroke="#000000" points="536.5,-185.7 536.5,-204.7 610.5,-204.7 610.5,-185.7 536.5,-185.7"/>
<text text-anchor="start" x="601.3862" y="-191.8" font-family="Helvetica,sans-Serif" font-size="11.00" fill="#000000"> &#160;</text>
</a>
</g>
</g>
<!-- temporary_absence_movement_audit&#45;&gt;audit_revision -->
<g id="edge5" class="edge">
<title>temporary_absence_movement_audit:w&#45;&gt;audit_revision:e</title>
<path fill="none" stroke="#000000" d="M305.8364,-280.7586C238.9153,-302.3609 350.6344,-486.7 260,-486.7"/>
<polygon fill="#000000" stroke="#000000" points="312.5777,-279.8123 321.0005,-282.265 316.5388,-279.2561 320.5,-278.7 320.5,-278.7 320.5,-278.7 316.5388,-279.2561 319.9995,-275.135 312.5777,-279.8123 312.5777,-279.8123"/>
<ellipse fill="none" stroke="#000000" cx="309.4088" cy="-280.2572" rx="3.2" ry="3.2"/>
</g>
<!-- temporary_absence_movement_audit&#45;&gt;person_summary -->
<g id="edge4" class="edge">
<title>temporary_absence_movement_audit:w&#45;&gt;person_summary:e</title>
<path fill="none" stroke="#000000" stroke-dasharray="5,2" d="M306.0063,-232.9438C263.0815,-221.7376 265.0119,-160.7 212,-160.7"/>
<polygon fill="#000000" stroke="#000000" points="312.5581,-233.7376 320.0669,-238.2739 316.529,-234.2188 320.5,-234.7 320.5,-234.7 320.5,-234.7 316.529,-234.2188 320.9331,-231.1261 312.5581,-233.7376 312.5581,-233.7376"/>
<ellipse fill="none" stroke="#000000" cx="309.3813" cy="-233.3527" rx="3.2" ry="3.2"/>
</g>
<!-- temporary_absence_occurrence_audit -->
<g id="node6" class="node">
<title>temporary_absence_occurrence_audit</title>
<g id="a_node6"><a xlink:href="../../tables/temporary_absence_occurrence_audit.html" xlink:title="temporary_absence_occurrence_audit" target="_top">
<polygon fill="#ffffff" stroke="transparent" points="319,-542.2 319,-647.2 612,-647.2 612,-542.2 319,-542.2"/>
<polygon fill="#f5f5f5" stroke="transparent" points="319.5,-623.7 319.5,-646.7 612.5,-646.7 612.5,-623.7 319.5,-623.7"/>
<polygon fill="none" stroke="#000000" points="319.5,-623.7 319.5,-646.7 612.5,-646.7 612.5,-623.7 319.5,-623.7"/>
<text text-anchor="start" x="324.5" y="-632.3" font-family="Helvetica,sans-Serif" font-weight="bold" font-size="11.00" fill="#000000">temporary_absence_occurrence_audit</text>
<text text-anchor="start" x="578.0219" y="-631.8" font-family="Helvetica,sans-Serif" font-size="11.00" fill="#000000">[table]</text>
<polygon fill="none" stroke="#000000" points="319.5,-601.7 319.5,-623.7 612.5,-623.7 612.5,-601.7 319.5,-601.7"/>
<image xlink:href="../../images/primaryKeys.png" width="11px" height="12px" preserveAspectRatio="xMinYMin meet" x="324.5" y="-618.7"/>
<text text-anchor="start" x="348.5" y="-608.8" font-family="Helvetica,sans-Serif" font-size="11.00" fill="#000000">rev_id</text>
<polygon fill="none" stroke="#000000" points="319.5,-579.7 319.5,-601.7 612.5,-601.7 612.5,-579.7 319.5,-579.7"/>
<image xlink:href="../../images/primaryKeys.png" width="11px" height="12px" preserveAspectRatio="xMinYMin meet" x="324.5" y="-596.7"/>
<text text-anchor="start" x="348.5" y="-586.8" font-family="Helvetica,sans-Serif" font-size="11.00" fill="#000000">id</text>
<polygon fill="none" stroke="#000000" points="319.5,-560.7 319.5,-579.7 612.5,-579.7 612.5,-560.7 319.5,-560.7"/>
<text text-anchor="start" x="322.5" y="-566.8" font-family="Helvetica,sans-Serif" font-size="11.00" fill="#000000">...</text>
<polygon fill="#ffffff" stroke="transparent" points="319.5,-541.7 319.5,-560.7 464.5,-560.7 464.5,-541.7 319.5,-541.7"/>
<polygon fill="none" stroke="#000000" points="319.5,-541.7 319.5,-560.7 464.5,-560.7 464.5,-541.7 319.5,-541.7"/>
<text text-anchor="start" x="322.5" y="-547.8" font-family="Helvetica,sans-Serif" font-size="11.00" fill="#000000">&lt; 1</text>
<polygon fill="#ffffff" stroke="transparent" points="464.5,-541.7 464.5,-560.7 538.5,-560.7 538.5,-541.7 464.5,-541.7"/>
<polygon fill="none" stroke="#000000" points="464.5,-541.7 464.5,-560.7 538.5,-560.7 538.5,-541.7 464.5,-541.7"/>
<text text-anchor="start" x="529.3862" y="-547.8" font-family="Helvetica,sans-Serif" font-size="11.00" fill="#000000"> &#160;</text>
<polygon fill="#ffffff" stroke="transparent" points="538.5,-541.7 538.5,-560.7 612.5,-560.7 612.5,-541.7 538.5,-541.7"/>
<polygon fill="none" stroke="#000000" points="538.5,-541.7 538.5,-560.7 612.5,-560.7 612.5,-541.7 538.5,-541.7"/>
<text text-anchor="start" x="603.3862" y="-547.8" font-family="Helvetica,sans-Serif" font-size="11.00" fill="#000000"> &#160;</text>
</a>
</g>
</g>
<!-- temporary_absence_occurrence_audit&#45;&gt;audit_revision -->
<g id="edge6" class="edge">
<title>temporary_absence_occurrence_audit:w&#45;&gt;audit_revision:e</title>
<path fill="none" stroke="#000000" d="M305.204,-609.5854C268.5276,-590.1824 316.1239,-486.7 260,-486.7"/>
<polygon fill="#000000" stroke="#000000" points="311.6834,-610.997 318.7336,-616.2175 315.5917,-611.8485 319.5,-612.7 319.5,-612.7 319.5,-612.7 315.5917,-611.8485 320.2664,-609.1825 311.6834,-610.997 311.6834,-610.997"/>
<ellipse fill="none" stroke="#000000" cx="308.5567" cy="-610.3158" rx="3.2" ry="3.2"/>
</g>
<!-- tap.authorisation_audit -->
<g id="node7" class="node">
<title>tap.authorisation_audit</title>
<g id="a_node7"><a xlink:title="tap.authorisation_audit">
<polygon fill="#ffffff" stroke="transparent" points="359,-438.2 359,-521.2 572,-521.2 572,-438.2 359,-438.2"/>
<polygon fill="#f5f5f5" stroke="transparent" points="359.5,-497.7 359.5,-520.7 572.5,-520.7 572.5,-497.7 359.5,-497.7"/>
<polygon fill="none" stroke="#000000" points="359.5,-497.7 359.5,-520.7 572.5,-520.7 572.5,-497.7 359.5,-497.7"/>
<text text-anchor="start" x="364.5" y="-506.3" font-family="Helvetica,sans-Serif" font-weight="bold" font-size="11.00" fill="#000000">tap.authorisation_audit</text>
<text text-anchor="start" x="537.5437" y="-505.8" font-family="Helvetica,sans-Serif" font-size="11.00" fill="#000000">[table]</text>
<polygon fill="none" stroke="#000000" points="359.5,-475.7 359.5,-497.7 572.5,-497.7 572.5,-475.7 359.5,-475.7"/>
<image xlink:href="../../images/foreignKeys.png" width="11px" height="12px" preserveAspectRatio="xMinYMin meet" x="364.5" y="-492.7"/>
<text text-anchor="start" x="379.5" y="-482.8" font-family="Helvetica,sans-Serif" font-size="11.00" fill="#000000">rev_id</text>
<polygon fill="none" stroke="#000000" points="359.5,-456.7 359.5,-475.7 572.5,-475.7 572.5,-456.7 359.5,-456.7"/>
<text text-anchor="start" x="362.5" y="-462.8" font-family="Helvetica,sans-Serif" font-size="11.00" fill="#000000">...</text>
<polygon fill="#ffffff" stroke="transparent" points="359.5,-437.7 359.5,-456.7 451.5,-456.7 451.5,-437.7 359.5,-437.7"/>
<polygon fill="none" stroke="#000000" points="359.5,-437.7 359.5,-456.7 451.5,-456.7 451.5,-437.7 359.5,-437.7"/>
<text text-anchor="start" x="362.5" y="-443.8" font-family="Helvetica,sans-Serif" font-size="11.00" fill="#000000">&lt; 1</text>
<polygon fill="#ffffff" stroke="transparent" points="451.5,-437.7 451.5,-456.7 524.5,-456.7 524.5,-437.7 451.5,-437.7"/>
<polygon fill="none" stroke="#000000" points="451.5,-437.7 451.5,-456.7 524.5,-456.7 524.5,-437.7 451.5,-437.7"/>
<text text-anchor="start" x="489.1105" y="-443.8" font-family="Helvetica,sans-Serif" font-size="11.00" fill="#000000">0 rows</text>
<polygon fill="#ffffff" stroke="transparent" points="524.5,-437.7 524.5,-456.7 572.5,-456.7 572.5,-437.7 524.5,-437.7"/>
<polygon fill="none" stroke="#000000" points="524.5,-437.7 524.5,-456.7 572.5,-456.7 572.5,-437.7 524.5,-437.7"/>
<text text-anchor="start" x="563.3862" y="-443.8" font-family="Helvetica,sans-Serif" font-size="11.00" fill="#000000"> &#160;</text>
</a>
</g>
</g>
<!-- tap.authorisation_audit&#45;&gt;audit_revision -->
<g id="edge7" class="edge">
<title>tap.authorisation_audit:w&#45;&gt;audit_revision:e</title>
<path fill="none" stroke="#000000" d="M344.7761,-486.7C312.1139,-486.7 298.8672,-486.7 260,-486.7"/>
<polygon fill="#000000" stroke="#000000" points="351.5,-486.7001 359.5,-490.3 355.5,-486.7 359.5,-486.7 359.5,-486.7 359.5,-486.7 355.5,-486.7 359.5,-483.1 351.5,-486.7001 351.5,-486.7001"/>
<ellipse fill="none" stroke="#000000" cx="348.3" cy="-486.7001" rx="3.2" ry="3.2"/>
</g>
<!-- tap.movement_audit -->
<g id="node8" class="node">
<title>tap.movement_audit</title>
<g id="a_node8"><a xlink:title="tap.movement_audit">
<polygon fill="#ffffff" stroke="transparent" points="361.5,-334.2 361.5,-417.2 569.5,-417.2 569.5,-334.2 361.5,-334.2"/>
<polygon fill="#f5f5f5" stroke="transparent" points="361.5,-393.7 361.5,-416.7 569.5,-416.7 569.5,-393.7 361.5,-393.7"/>
<polygon fill="none" stroke="#000000" points="361.5,-393.7 361.5,-416.7 569.5,-416.7 569.5,-393.7 361.5,-393.7"/>
<text text-anchor="start" x="366.5" y="-402.3" font-family="Helvetica,sans-Serif" font-weight="bold" font-size="11.00" fill="#000000">tap.movement_audit</text>
<text text-anchor="start" x="534.5437" y="-401.8" font-family="Helvetica,sans-Serif" font-size="11.00" fill="#000000">[table]</text>
<polygon fill="none" stroke="#000000" points="361.5,-371.7 361.5,-393.7 569.5,-393.7 569.5,-371.7 361.5,-371.7"/>
<image xlink:href="../../images/foreignKeys.png" width="11px" height="12px" preserveAspectRatio="xMinYMin meet" x="366.5" y="-388.7"/>
<text text-anchor="start" x="381.5" y="-378.8" font-family="Helvetica,sans-Serif" font-size="11.00" fill="#000000">rev_id</text>
<polygon fill="none" stroke="#000000" points="361.5,-352.7 361.5,-371.7 569.5,-371.7 569.5,-352.7 361.5,-352.7"/>
<text text-anchor="start" x="364.5" y="-358.8" font-family="Helvetica,sans-Serif" font-size="11.00" fill="#000000">...</text>
<polygon fill="#ffffff" stroke="transparent" points="361.5,-333.7 361.5,-352.7 450.5,-352.7 450.5,-333.7 361.5,-333.7"/>
<polygon fill="none" stroke="#000000" points="361.5,-333.7 361.5,-352.7 450.5,-352.7 450.5,-333.7 361.5,-333.7"/>
<text text-anchor="start" x="364.5" y="-339.8" font-family="Helvetica,sans-Serif" font-size="11.00" fill="#000000">&lt; 1</text>
<polygon fill="#ffffff" stroke="transparent" points="450.5,-333.7 450.5,-352.7 522.5,-352.7 522.5,-333.7 450.5,-333.7"/>
<polygon fill="none" stroke="#000000" points="450.5,-333.7 450.5,-352.7 522.5,-352.7 522.5,-333.7 450.5,-333.7"/>
<text text-anchor="start" x="487.1105" y="-339.8" font-family="Helvetica,sans-Serif" font-size="11.00" fill="#000000">0 rows</text>
<polygon fill="#ffffff" stroke="transparent" points="522.5,-333.7 522.5,-352.7 569.5,-352.7 569.5,-333.7 522.5,-333.7"/>
<polygon fill="none" stroke="#000000" points="522.5,-333.7 522.5,-352.7 569.5,-352.7 569.5,-333.7 522.5,-333.7"/>
<text text-anchor="start" x="560.3862" y="-339.8" font-family="Helvetica,sans-Serif" font-size="11.00" fill="#000000"> &#160;</text>
</a>
</g>
</g>
<!-- tap.movement_audit&#45;&gt;audit_revision -->
<g id="edge8" class="edge">
<title>tap.movement_audit:w&#45;&gt;audit_revision:e</title>
<path fill="none" stroke="#000000" d="M346.9904,-384.5069C327.1399,-390.1517 321.9579,-408.2447 303,-427.7 280.3551,-450.9389 292.4475,-486.7 260,-486.7"/>
<polygon fill="#000000" stroke="#000000" points="353.5613,-383.6887 361.9449,-386.2724 357.5307,-383.1943 361.5,-382.7 361.5,-382.7 361.5,-382.7 357.5307,-383.1943 361.0551,-379.1276 353.5613,-383.6887 353.5613,-383.6887"/>
<ellipse fill="none" stroke="#000000" cx="350.3858" cy="-384.0841" rx="3.2" ry="3.2"/>
</g>
<!-- tap.occurrence_audit -->
<g id="node9" class="node">
<title>tap.occurrence_audit</title>
<g id="a_node9"><a xlink:title="tap.occurrence_audit">
<polygon fill="#ffffff" stroke="transparent" points="359,-794.2 359,-877.2 572,-877.2 572,-794.2 359,-794.2"/>
<polygon fill="#f5f5f5" stroke="transparent" points="359.5,-853.7 359.5,-876.7 572.5,-876.7 572.5,-853.7 359.5,-853.7"/>
<polygon fill="none" stroke="#000000" points="359.5,-853.7 359.5,-876.7 572.5,-876.7 572.5,-853.7 359.5,-853.7"/>
<text text-anchor="start" x="364.5" y="-862.3" font-family="Helvetica,sans-Serif" font-weight="bold" font-size="11.00" fill="#000000">tap.occurrence_audit</text>
<text text-anchor="start" x="537.5437" y="-861.8" font-family="Helvetica,sans-Serif" font-size="11.00" fill="#000000">[table]</text>
<polygon fill="none" stroke="#000000" points="359.5,-831.7 359.5,-853.7 572.5,-853.7 572.5,-831.7 359.5,-831.7"/>
<image xlink:href="../../images/foreignKeys.png" width="11px" height="12px" preserveAspectRatio="xMinYMin meet" x="364.5" y="-848.7"/>
<text text-anchor="start" x="379.5" y="-838.8" font-family="Helvetica,sans-Serif" font-size="11.00" fill="#000000">rev_id</text>
<polygon fill="none" stroke="#000000" points="359.5,-812.7 359.5,-831.7 572.5,-831.7 572.5,-812.7 359.5,-812.7"/>
<text text-anchor="start" x="362.5" y="-818.8" font-family="Helvetica,sans-Serif" font-size="11.00" fill="#000000">...</text>
<polygon fill="#ffffff" stroke="transparent" points="359.5,-793.7 359.5,-812.7 451.5,-812.7 451.5,-793.7 359.5,-793.7"/>
<polygon fill="none" stroke="#000000" points="359.5,-793.7 359.5,-812.7 451.5,-812.7 451.5,-793.7 359.5,-793.7"/>
<text text-anchor="start" x="362.5" y="-799.8" font-family="Helvetica,sans-Serif" font-size="11.00" fill="#000000">&lt; 1</text>
<polygon fill="#ffffff" stroke="transparent" points="451.5,-793.7 451.5,-812.7 524.5,-812.7 524.5,-793.7 451.5,-793.7"/>
<polygon fill="none" stroke="#000000" points="451.5,-793.7 451.5,-812.7 524.5,-812.7 524.5,-793.7 451.5,-793.7"/>
<text text-anchor="start" x="489.1105" y="-799.8" font-family="Helvetica,sans-Serif" font-size="11.00" fill="#000000">0 rows</text>
<polygon fill="#ffffff" stroke="transparent" points="524.5,-793.7 524.5,-812.7 572.5,-812.7 572.5,-793.7 524.5,-793.7"/>
<polygon fill="none" stroke="#000000" points="524.5,-793.7 524.5,-812.7 572.5,-812.7 572.5,-793.7 524.5,-793.7"/>
<text text-anchor="start" x="563.3862" y="-799.8" font-family="Helvetica,sans-Serif" font-size="11.00" fill="#000000"> &#160;</text>
</a>
</g>
</g>
<!-- tap.occurrence_audit&#45;&gt;audit_revision -->
<g id="edge9" class="edge">
<title>tap.occurrence_audit:w&#45;&gt;audit_revision:e</title>
<path fill="none" stroke="#000000" d="M344.9824,-840.9352C321.6198,-834.5207 316.4907,-811.3611 303,-783.7 273.7668,-723.7606 326.6881,-486.7 260,-486.7"/>
<polygon fill="#000000" stroke="#000000" points="351.5585,-841.7346 359.0656,-846.2737 355.5292,-842.2173 359.5,-842.7 359.5,-842.7 359.5,-842.7 355.5292,-842.2173 359.9344,-839.1263 351.5585,-841.7346 351.5585,-841.7346"/>
<ellipse fill="none" stroke="#000000" cx="348.3818" cy="-841.3484" rx="3.2" ry="3.2"/>
</g>
</g>
</svg>
