<?xml version="1.0" encoding="UTF-8" standalone="no"?>
<!DOCTYPE svg PUBLIC "-//W3C//DTD SVG 1.1//EN"
 "http://www.w3.org/Graphics/SVG/1.1/DTD/svg11.dtd">
<!-- Generated by graphviz version 2.40.1 (20161225.0304)
 -->
<!-- Title: oneDegreeRelationshipsDiagram Pages: 1 -->
<svg width="636pt" height="407pt"
 viewBox="0.00 0.00 636.00 407.20" xmlns="http://www.w3.org/2000/svg" xmlns:xlink="http://www.w3.org/1999/xlink">
<g id="graph0" class="graph" transform="scale(1 1) rotate(0) translate(4 403.2)">
<title>oneDegreeRelationshipsDiagram</title>
<polygon fill="#ffffff" stroke="transparent" points="-4,4 -4,-403.2 632,-403.2 632,4 -4,4"/>
<text text-anchor="middle" x="72.4936" y="-7.3" font-family="Helvetica,sans-Serif" font-size="11.00" fill="#000000">Generated by SchemaSpy</text>
<!-- temporary_absence_authorisation_audit -->
<g id="node1" class="node">
<title>temporary_absence_authorisation_audit</title>
<g id="a_node1"><a xlink:href="../../tables/temporary_absence_authorisation_audit.html" xlink:title="temporary_absence_authorisation_audit" target="_top">
<polygon fill="#ffffff" stroke="transparent" points="311,-290.2 311,-395.2 620,-395.2 620,-290.2 311,-290.2"/>
<polygon fill="#f5f5f5" stroke="transparent" points="311.5,-371.7 311.5,-394.7 620.5,-394.7 620.5,-371.7 311.5,-371.7"/>
<polygon fill="none" stroke="#000000" points="311.5,-371.7 311.5,-394.7 620.5,-394.7 620.5,-371.7 311.5,-371.7"/>
<text text-anchor="start" x="316.5" y="-380.3" font-family="Helvetica,sans-Serif" font-weight="bold" font-size="11.00" fill="#000000">temporary_absence_authorisation_audit</text>
<text text-anchor="start" x="586.0219" y="-379.8" font-family="Helvetica,sans-Serif" font-size="11.00" fill="#000000">[table]</text>
<polygon fill="none" stroke="#000000" points="311.5,-349.7 311.5,-371.7 620.5,-371.7 620.5,-349.7 311.5,-349.7"/>
<image xlink:href="../../images/primaryKeys.png" width="11px" height="12px" preserveAspectRatio="xMinYMin meet" x="316.5" y="-366.7"/>
<text text-anchor="start" x="340.5" y="-356.8" font-family="Helvetica,sans-Serif" font-size="11.00" fill="#000000">rev_id</text>
<polygon fill="none" stroke="#000000" points="311.5,-327.7 311.5,-349.7 620.5,-349.7 620.5,-327.7 311.5,-327.7"/>
<image xlink:href="../../images/primaryKeys.png" width="11px" height="12px" preserveAspectRatio="xMinYMin meet" x="316.5" y="-344.7"/>
<text text-anchor="start" x="340.5" y="-334.8" font-family="Helvetica,sans-Serif" font-size="11.00" fill="#000000">id</text>
<polygon fill="none" stroke="#000000" points="311.5,-308.7 311.5,-327.7 620.5,-327.7 620.5,-308.7 311.5,-308.7"/>
<text text-anchor="start" x="314.5" y="-314.8" font-family="Helvetica,sans-Serif" font-size="11.00" fill="#000000">...</text>
<polygon fill="#ffffff" stroke="transparent" points="311.5,-289.7 311.5,-308.7 464.5,-308.7 464.5,-289.7 311.5,-289.7"/>
<polygon fill="none" stroke="#000000" points="311.5,-289.7 311.5,-308.7 464.5,-308.7 464.5,-289.7 311.5,-289.7"/>
<text text-anchor="start" x="314.5" y="-295.8" font-family="Helvetica,sans-Serif" font-size="11.00" fill="#000000">&lt; 1</text>
<polygon fill="#ffffff" stroke="transparent" points="464.5,-289.7 464.5,-308.7 542.5,-308.7 542.5,-289.7 464.5,-289.7"/>
<polygon fill="none" stroke="#000000" points="464.5,-289.7 464.5,-308.7 542.5,-308.7 542.5,-289.7 464.5,-289.7"/>
<text text-anchor="start" x="533.3862" y="-295.8" font-family="Helvetica,sans-Serif" font-size="11.00" fill="#000000"> &#160;</text>
<polygon fill="#ffffff" stroke="transparent" points="542.5,-289.7 542.5,-308.7 620.5,-308.7 620.5,-289.7 542.5,-289.7"/>
<polygon fill="none" stroke="#000000" points="542.5,-289.7 542.5,-308.7 620.5,-308.7 620.5,-289.7 542.5,-289.7"/>
<text text-anchor="start" x="611.3862" y="-295.8" font-family="Helvetica,sans-Serif" font-size="11.00" fill="#000000"> &#160;</text>
</a>
</g>
</g>
<!-- audit_revision -->
<g id="node2" class="node">
<title>audit_revision</title>
<g id="a_node2"><a xlink:href="../../tables/audit_revision.html" xlink:title="audit_revision" target="_top">
<polygon fill="#ffffff" stroke="transparent" points="8,-114.7 8,-270.7 262,-270.7 262,-114.7 8,-114.7"/>
<polygon fill="#f5f5f5" stroke="transparent" points="10,-245.7 10,-268.7 260,-268.7 260,-245.7 10,-245.7"/>
<polygon fill="none" stroke="#000000" points="10,-245.7 10,-268.7 260,-268.7 260,-245.7 10,-245.7"/>
<text text-anchor="start" x="15" y="-254.3" font-family="Helvetica,sans-Serif" font-weight="bold" font-size="11.00" fill="#000000">audit_revision</text>
<text text-anchor="start" x="225.0437" y="-253.8" font-family="Helvetica,sans-Serif" font-size="11.00" fill="#000000">[table]</text>
<polygon fill="none" stroke="#000000" points="10,-223.7 10,-245.7 144,-245.7 144,-223.7 10,-223.7"/>
<image xlink:href="../../images/primaryKeys.png" width="11px" height="12px" preserveAspectRatio="xMinYMin meet" x="15" y="-240.7"/>
<text text-anchor="start" x="30" y="-230.8" font-family="Helvetica,sans-Serif" font-size="11.00" fill="#000000">id</text>
<polygon fill="none" stroke="#000000" points="144,-223.7 144,-245.7 260,-245.7 260,-223.7 144,-223.7"/>
<text text-anchor="start" x="147" y="-231.4" font-family="Helvetica,sans-Serif" font-size="11.00" fill="#000000">bigserial[19]</text>
<polygon fill="none" stroke="#000000" points="10,-201.7 10,-223.7 144,-223.7 144,-201.7 10,-201.7"/>
<text text-anchor="start" x="30" y="-208.8" font-family="Helvetica,sans-Serif" font-size="11.00" fill="#000000">timestamp</text>
<polygon fill="none" stroke="#000000" points="144,-201.7 144,-223.7 260,-223.7 260,-201.7 144,-201.7"/>
<text text-anchor="start" x="147" y="-209.4" font-family="Helvetica,sans-Serif" font-size="11.00" fill="#000000">timestamp[29,6]</text>
<polygon fill="none" stroke="#000000" points="10,-179.7 10,-201.7 144,-201.7 144,-179.7 10,-179.7"/>
<text text-anchor="start" x="30" y="-186.8" font-family="Helvetica,sans-Serif" font-size="11.00" fill="#000000">username</text>
<polygon fill="none" stroke="#000000" points="144,-179.7 144,-201.7 260,-201.7 260,-179.7 144,-179.7"/>
<text text-anchor="start" x="147" y="-187.4" font-family="Helvetica,sans-Serif" font-size="11.00" fill="#000000">varchar[64]</text>
<polygon fill="none" stroke="#000000" points="10,-157.7 10,-179.7 144,-179.7 144,-157.7 10,-157.7"/>
<text text-anchor="start" x="30" y="-164.8" font-family="Helvetica,sans-Serif" font-size="11.00" fill="#000000">source</text>
<polygon fill="none" stroke="#000000" points="144,-157.7 144,-179.7 260,-179.7 260,-157.7 144,-157.7"/>
<text text-anchor="start" x="147" y="-165.4" font-family="Helvetica,sans-Serif" font-size="11.00" fill="#000000">varchar[6]</text>
<polygon fill="none" stroke="#000000" points="10,-135.7 10,-157.7 144,-157.7 144,-135.7 10,-135.7"/>
<text text-anchor="start" x="30" y="-142.8" font-family="Helvetica,sans-Serif" font-size="11.00" fill="#000000">affected_entities</text>
<polygon fill="none" stroke="#000000" points="144,-135.7 144,-157.7 260,-157.7 260,-135.7 144,-135.7"/>
<text text-anchor="start" x="146.9769" y="-143.4" font-family="Helvetica,sans-Serif" font-size="11.00" fill="#000000">_varchar[2147483647]</text>
<polygon fill="#ffffff" stroke="transparent" points="10,-116.7 10,-135.7 81,-135.7 81,-116.7 10,-116.7"/>
<polygon fill="none" stroke="#000000" points="10,-116.7 10,-135.7 81,-135.7 81,-116.7 10,-116.7"/>
<text text-anchor="start" x="13" y="-122.8" font-family="Helvetica,sans-Serif" font-size="11.00" fill="#000000">&lt; 0</text>
<polygon fill="#ffffff" stroke="transparent" points="81,-116.7 81,-135.7 144,-135.7 144,-116.7 81,-116.7"/>
<polygon fill="none" stroke="#000000" points="81,-116.7 81,-135.7 144,-135.7 144,-116.7 81,-116.7"/>
<text text-anchor="start" x="134.8862" y="-122.8" font-family="Helvetica,sans-Serif" font-size="11.00" fill="#000000"> &#160;</text>
<polygon fill="#ffffff" stroke="transparent" points="144,-116.7 144,-135.7 260,-135.7 260,-116.7 144,-116.7"/>
<polygon fill="none" stroke="#000000" points="144,-116.7 144,-135.7 260,-135.7 260,-116.7 144,-116.7"/>
<text text-anchor="start" x="241.4053" y="-122.8" font-family="Helvetica,sans-Serif" font-size="11.00" fill="#000000">3 &gt;</text>
<polygon fill="none" stroke="#000000" stroke-width="2" points="9,-115.7 9,-269.7 261,-269.7 261,-115.7 9,-115.7"/>
</a>
</g>
</g>
<!-- temporary_absence_authorisation_audit&#45;&gt;audit_revision -->
<g id="edge1" class="edge">
<title>temporary_absence_authorisation_audit:w&#45;&gt;audit_revision:e</title>
<path fill="none" stroke="#000000" d="M297.2532,-357.3298C263.3363,-337.2923 314.5892,-234.7 260,-234.7"/>
<polygon fill="#000000" stroke="#000000" points="303.7149,-358.8583 310.6712,-364.2033 307.6074,-359.7792 311.5,-360.7 311.5,-360.7 311.5,-360.7 307.6074,-359.7792 312.3288,-357.1967 303.7149,-358.8583 303.7149,-358.8583"/>
<ellipse fill="none" stroke="#000000" cx="300.6008" cy="-358.1217" rx="3.2" ry="3.2"/>
</g>
<!-- temporary_absence_movement_audit -->
<g id="node3" class="node">
<title>temporary_absence_movement_audit</title>
<g id="a_node3"><a xlink:href="../../tables/temporary_absence_movement_audit.html" xlink:title="temporary_absence_movement_audit" target="_top">
<polygon fill="#ffffff" stroke="transparent" points="320.5,-164.2 320.5,-269.2 610.5,-269.2 610.5,-164.2 320.5,-164.2"/>
<polygon fill="#f5f5f5" stroke="transparent" points="320.5,-245.7 320.5,-268.7 610.5,-268.7 610.5,-245.7 320.5,-245.7"/>
<polygon fill="none" stroke="#000000" points="320.5,-245.7 320.5,-268.7 610.5,-268.7 610.5,-245.7 320.5,-245.7"/>
<text text-anchor="start" x="325.5" y="-254.3" font-family="Helvetica,sans-Serif" font-weight="bold" font-size="11.00" fill="#000000">temporary_absence_movement_audit</text>
<text text-anchor="start" x="576.0219" y="-253.8" font-family="Helvetica,sans-Serif" font-size="11.00" fill="#000000">[table]</text>
<polygon fill="none" stroke="#000000" points="320.5,-223.7 320.5,-245.7 610.5,-245.7 610.5,-223.7 320.5,-223.7"/>
<image xlink:href="../../images/primaryKeys.png" width="11px" height="12px" preserveAspectRatio="xMinYMin meet" x="325.5" y="-240.7"/>
<text text-anchor="start" x="349.5" y="-230.8" font-family="Helvetica,sans-Serif" font-size="11.00" fill="#000000">rev_id</text>
<polygon fill="none" stroke="#000000" points="320.5,-201.7 320.5,-223.7 610.5,-223.7 610.5,-201.7 320.5,-201.7"/>
<image xlink:href="../../images/primaryKeys.png" width="11px" height="12px" preserveAspectRatio="xMinYMin meet" x="325.5" y="-218.7"/>
<text text-anchor="start" x="349.5" y="-208.8" font-family="Helvetica,sans-Serif" font-size="11.00" fill="#000000">id</text>
<polygon fill="none" stroke="#000000" points="320.5,-182.7 320.5,-201.7 610.5,-201.7 610.5,-182.7 320.5,-182.7"/>
<text text-anchor="start" x="323.5" y="-188.8" font-family="Helvetica,sans-Serif" font-size="11.00" fill="#000000">...</text>
<polygon fill="#ffffff" stroke="transparent" points="320.5,-163.7 320.5,-182.7 463.5,-182.7 463.5,-163.7 320.5,-163.7"/>
<polygon fill="none" stroke="#000000" points="320.5,-163.7 320.5,-182.7 463.5,-182.7 463.5,-163.7 320.5,-163.7"/>
<text text-anchor="start" x="323.5" y="-169.8" font-family="Helvetica,sans-Serif" font-size="11.00" fill="#000000">&lt; 1</text>
<polygon fill="#ffffff" stroke="transparent" points="463.5,-163.7 463.5,-182.7 536.5,-182.7 536.5,-163.7 463.5,-163.7"/>
<polygon fill="none" stroke="#000000" points="463.5,-163.7 463.5,-182.7 536.5,-182.7 536.5,-163.7 463.5,-163.7"/>
<text text-anchor="start" x="527.3862" y="-169.8" font-family="Helvetica,sans-Serif" font-size="11.00" fill="#000000"> &#160;</text>
<polygon fill="#ffffff" stroke="transparent" points="536.5,-163.7 536.5,-182.7 610.5,-182.7 610.5,-163.7 536.5,-163.7"/>
<polygon fill="none" stroke="#000000" points="536.5,-163.7 536.5,-182.7 610.5,-182.7 610.5,-163.7 536.5,-163.7"/>
<text text-anchor="start" x="601.3862" y="-169.8" font-family="Helvetica,sans-Serif" font-size="11.00" fill="#000000"> &#160;</text>
</a>
</g>
</g>
<!-- temporary_absence_movement_audit&#45;&gt;audit_revision -->
<g id="edge2" class="edge">
<title>temporary_absence_movement_audit:w&#45;&gt;audit_revision:e</title>
<path fill="none" stroke="#000000" d="M305.7977,-234.7C289.8779,-234.7 281.217,-234.7 260,-234.7"/>
<polygon fill="#000000" stroke="#000000" points="312.5,-234.7001 320.5,-238.3 316.5,-234.7 320.5,-234.7 320.5,-234.7 320.5,-234.7 316.5,-234.7 320.5,-231.1 312.5,-234.7001 312.5,-234.7001"/>
<ellipse fill="none" stroke="#000000" cx="309.3" cy="-234.7001" rx="3.2" ry="3.2"/>
</g>
<!-- temporary_absence_occurrence_audit -->
<g id="node4" class="node">
<title>temporary_absence_occurrence_audit</title>
<g id="a_node4"><a xlink:href="../../tables/temporary_absence_occurrence_audit.html" xlink:title="temporary_absence_occurrence_audit" target="_top">
<polygon fill="#ffffff" stroke="transparent" points="319,-38.2 319,-143.2 612,-143.2 612,-38.2 319,-38.2"/>
<polygon fill="#f5f5f5" stroke="transparent" points="319.5,-119.7 319.5,-142.7 612.5,-142.7 612.5,-119.7 319.5,-119.7"/>
<polygon fill="none" stroke="#000000" points="319.5,-119.7 319.5,-142.7 612.5,-142.7 612.5,-119.7 319.5,-119.7"/>
<text text-anchor="start" x="324.5" y="-128.3" font-family="Helvetica,sans-Serif" font-weight="bold" font-size="11.00" fill="#000000">temporary_absence_occurrence_audit</text>
<text text-anchor="start" x="578.0219" y="-127.8" font-family="Helvetica,sans-Serif" font-size="11.00" fill="#000000">[table]</text>
<polygon fill="none" stroke="#000000" points="319.5,-97.7 319.5,-119.7 612.5,-119.7 612.5,-97.7 319.5,-97.7"/>
<image xlink:href="../../images/primaryKeys.png" width="11px" height="12px" preserveAspectRatio="xMinYMin meet" x="324.5" y="-114.7"/>
<text text-anchor="start" x="348.5" y="-104.8" font-family="Helvetica,sans-Serif" font-size="11.00" fill="#000000">rev_id</text>
<polygon fill="none" stroke="#000000" points="319.5,-75.7 319.5,-97.7 612.5,-97.7 612.5,-75.7 319.5,-75.7"/>
<image xlink:href="../../images/primaryKeys.png" width="11px" height="12px" preserveAspectRatio="xMinYMin meet" x="324.5" y="-92.7"/>
<text text-anchor="start" x="348.5" y="-82.8" font-family="Helvetica,sans-Serif" font-size="11.00" fill="#000000">id</text>
<polygon fill="none" stroke="#000000" points="319.5,-56.7 319.5,-75.7 612.5,-75.7 612.5,-56.7 319.5,-56.7"/>
<text text-anchor="start" x="322.5" y="-62.8" font-family="Helvetica,sans-Serif" font-size="11.00" fill="#000000">...</text>
<polygon fill="#ffffff" stroke="transparent" points="319.5,-37.7 319.5,-56.7 464.5,-56.7 464.5,-37.7 319.5,-37.7"/>
<polygon fill="none" stroke="#000000" points="319.5,-37.7 319.5,-56.7 464.5,-56.7 464.5,-37.7 319.5,-37.7"/>
<text text-anchor="start" x="322.5" y="-43.8" font-family="Helvetica,sans-Serif" font-size="11.00" fill="#000000">&lt; 1</text>
<polygon fill="#ffffff" stroke="transparent" points="464.5,-37.7 464.5,-56.7 538.5,-56.7 538.5,-37.7 464.5,-37.7"/>
<polygon fill="none" stroke="#000000" points="464.5,-37.7 464.5,-56.7 538.5,-56.7 538.5,-37.7 464.5,-37.7"/>
<text text-anchor="start" x="529.3862" y="-43.8" font-family="Helvetica,sans-Serif" font-size="11.00" fill="#000000"> &#160;</text>
<polygon fill="#ffffff" stroke="transparent" points="538.5,-37.7 538.5,-56.7 612.5,-56.7 612.5,-37.7 538.5,-37.7"/>
<polygon fill="none" stroke="#000000" points="538.5,-37.7 538.5,-56.7 612.5,-56.7 612.5,-37.7 538.5,-37.7"/>
<text text-anchor="start" x="603.3862" y="-43.8" font-family="Helvetica,sans-Serif" font-size="11.00" fill="#000000"> &#160;</text>
</a>
</g>
</g>
<!-- temporary_absence_occurrence_audit&#45;&gt;audit_revision -->
<g id="edge3" class="edge">
<title>temporary_absence_occurrence_audit:w&#45;&gt;audit_revision:e</title>
<path fill="none" stroke="#000000" d="M305.204,-111.8146C268.5276,-131.2176 316.1239,-234.7 260,-234.7"/>
<polygon fill="#000000" stroke="#000000" points="311.6834,-110.403 320.2664,-112.2175 315.5917,-109.5515 319.5,-108.7 319.5,-108.7 319.5,-108.7 315.5917,-109.5515 318.7336,-105.1825 311.6834,-110.403 311.6834,-110.403"/>
<ellipse fill="none" stroke="#000000" cx="308.5567" cy="-111.0842" rx="3.2" ry="3.2"/>
</g>
</g>
</svg>
