<?xml version="1.0" encoding="UTF-8" standalone="no"?>
<!DOCTYPE svg PUBLIC "-//W3C//DTD SVG 1.1//EN"
 "http://www.w3.org/Graphics/SVG/1.1/DTD/svg11.dtd">
<!-- Generated by graphviz version 2.40.1 (20161225.0304)
 -->
<!-- Title: oneDegreeRelationshipsDiagram Pages: 1 -->
<svg width="586pt" height="407pt"
 viewBox="0.00 0.00 586.00 407.20" xmlns="http://www.w3.org/2000/svg" xmlns:xlink="http://www.w3.org/1999/xlink">
<g id="graph0" class="graph" transform="scale(1 1) rotate(0) translate(4 403.2)">
<title>oneDegreeRelationshipsDiagram</title>
<polygon fill="#ffffff" stroke="transparent" points="-4,4 -4,-403.2 582,-403.2 582,4 -4,4"/>
<text text-anchor="middle" x="72.4936" y="-7.3" font-family="Helvetica,sans-Serif" font-size="11.00" fill="#000000">Generated by SchemaSpy</text>
<!-- temporary_absence_authorisation_audit -->
<g id="node1" class="node">
<title>temporary_absence_authorisation_audit</title>
<g id="a_node1"><a xlink:href="../../tables/temporary_absence_authorisation_audit.html" xlink:title="temporary_absence_authorisation_audit" target="_top">
<polygon fill="#ffffff" stroke="transparent" points="261,-290.2 261,-395.2 570,-395.2 570,-290.2 261,-290.2"/>
<polygon fill="#f5f5f5" stroke="transparent" points="261.5,-371.7 261.5,-394.7 570.5,-394.7 570.5,-371.7 261.5,-371.7"/>
<polygon fill="none" stroke="#000000" points="261.5,-371.7 261.5,-394.7 570.5,-394.7 570.5,-371.7 261.5,-371.7"/>
<text text-anchor="start" x="266.5" y="-380.3" font-family="Helvetica,sans-Serif" font-weight="bold" font-size="11.00" fill="#000000">temporary_absence_authorisation_audit</text>
<text text-anchor="start" x="536.0219" y="-379.8" font-family="Helvetica,sans-Serif" font-size="11.00" fill="#000000">[table]</text>
<polygon fill="none" stroke="#000000" points="261.5,-349.7 261.5,-371.7 570.5,-371.7 570.5,-349.7 261.5,-349.7"/>
<image xlink:href="../../images/primaryKeys.png" width="11px" height="12px" preserveAspectRatio="xMinYMin meet" x="266.5" y="-366.7"/>
<text text-anchor="start" x="290.5" y="-356.8" font-family="Helvetica,sans-Serif" font-size="11.00" fill="#000000">rev_id</text>
<polygon fill="none" stroke="#000000" points="261.5,-327.7 261.5,-349.7 570.5,-349.7 570.5,-327.7 261.5,-327.7"/>
<image xlink:href="../../images/primaryKeys.png" width="11px" height="12px" preserveAspectRatio="xMinYMin meet" x="266.5" y="-344.7"/>
<text text-anchor="start" x="290.5" y="-334.8" font-family="Helvetica,sans-Serif" font-size="11.00" fill="#000000">id</text>
<polygon fill="none" stroke="#000000" points="261.5,-308.7 261.5,-327.7 570.5,-327.7 570.5,-308.7 261.5,-308.7"/>
<text text-anchor="start" x="264.5" y="-314.8" font-family="Helvetica,sans-Serif" font-size="11.00" fill="#000000">...</text>
<polygon fill="#ffffff" stroke="transparent" points="261.5,-289.7 261.5,-308.7 414.5,-308.7 414.5,-289.7 261.5,-289.7"/>
<polygon fill="none" stroke="#000000" points="261.5,-289.7 261.5,-308.7 414.5,-308.7 414.5,-289.7 261.5,-289.7"/>
<text text-anchor="start" x="264.5" y="-295.8" font-family="Helvetica,sans-Serif" font-size="11.00" fill="#000000">&lt; 1</text>
<polygon fill="#ffffff" stroke="transparent" points="414.5,-289.7 414.5,-308.7 492.5,-308.7 492.5,-289.7 414.5,-289.7"/>
<polygon fill="none" stroke="#000000" points="414.5,-289.7 414.5,-308.7 492.5,-308.7 492.5,-289.7 414.5,-289.7"/>
<text text-anchor="start" x="483.3862" y="-295.8" font-family="Helvetica,sans-Serif" font-size="11.00" fill="#000000"> &#160;</text>
<polygon fill="#ffffff" stroke="transparent" points="492.5,-289.7 492.5,-308.7 570.5,-308.7 570.5,-289.7 492.5,-289.7"/>
<polygon fill="none" stroke="#000000" points="492.5,-289.7 492.5,-308.7 570.5,-308.7 570.5,-289.7 492.5,-289.7"/>
<text text-anchor="start" x="561.3862" y="-295.8" font-family="Helvetica,sans-Serif" font-size="11.00" fill="#000000"> &#160;</text>
</a>
</g>
</g>
<!-- audit_revision -->
<g id="node2" class="node">
<title>audit_revision</title>
<g id="a_node2"><a xlink:href="../../tables/audit_revision.html" xlink:title="audit_revision" target="_top">
<polygon fill="#ffffff" stroke="transparent" points="8,-136.7 8,-270.7 212,-270.7 212,-136.7 8,-136.7"/>
<polygon fill="#f5f5f5" stroke="transparent" points="10,-245.7 10,-268.7 210,-268.7 210,-245.7 10,-245.7"/>
<polygon fill="none" stroke="#000000" points="10,-245.7 10,-268.7 210,-268.7 210,-245.7 10,-245.7"/>
<text text-anchor="start" x="15" y="-254.3" font-family="Helvetica,sans-Serif" font-weight="bold" font-size="11.00" fill="#000000">audit_revision</text>
<text text-anchor="start" x="175.0437" y="-253.8" font-family="Helvetica,sans-Serif" font-size="11.00" fill="#000000">[table]</text>
<polygon fill="none" stroke="#000000" points="10,-223.7 10,-245.7 126,-245.7 126,-223.7 10,-223.7"/>
<image xlink:href="../../images/primaryKeys.png" width="11px" height="12px" preserveAspectRatio="xMinYMin meet" x="15" y="-240.7"/>
<text text-anchor="start" x="30" y="-230.8" font-family="Helvetica,sans-Serif" font-size="11.00" fill="#000000">id</text>
<polygon fill="none" stroke="#000000" points="126,-223.7 126,-245.7 210,-245.7 210,-223.7 126,-223.7"/>
<text text-anchor="start" x="129" y="-231.4" font-family="Helvetica,sans-Serif" font-size="11.00" fill="#000000">bigserial[19]</text>
<polygon fill="none" stroke="#000000" points="10,-201.7 10,-223.7 126,-223.7 126,-201.7 10,-201.7"/>
<text text-anchor="start" x="30" y="-208.8" font-family="Helvetica,sans-Serif" font-size="11.00" fill="#000000">timestamp</text>
<polygon fill="none" stroke="#000000" points="126,-201.7 126,-223.7 210,-223.7 210,-201.7 126,-201.7"/>
<text text-anchor="start" x="128.8807" y="-209.4" font-family="Helvetica,sans-Serif" font-size="11.00" fill="#000000">timestamp[29,6]</text>
<polygon fill="none" stroke="#000000" points="10,-179.7 10,-201.7 126,-201.7 126,-179.7 10,-179.7"/>
<text text-anchor="start" x="30" y="-186.8" font-family="Helvetica,sans-Serif" font-size="11.00" fill="#000000">username</text>
<polygon fill="none" stroke="#000000" points="126,-179.7 126,-201.7 210,-201.7 210,-179.7 126,-179.7"/>
<text text-anchor="start" x="129" y="-187.4" font-family="Helvetica,sans-Serif" font-size="11.00" fill="#000000">varchar[64]</text>
<polygon fill="none" stroke="#000000" points="10,-157.7 10,-179.7 126,-179.7 126,-157.7 10,-157.7"/>
<text text-anchor="start" x="30" y="-164.8" font-family="Helvetica,sans-Serif" font-size="11.00" fill="#000000">source</text>
<polygon fill="none" stroke="#000000" points="126,-157.7 126,-179.7 210,-179.7 210,-157.7 126,-157.7"/>
<text text-anchor="start" x="129" y="-165.4" font-family="Helvetica,sans-Serif" font-size="11.00" fill="#000000">varchar[6]</text>
<polygon fill="#ffffff" stroke="transparent" points="10,-138.7 10,-157.7 72,-157.7 72,-138.7 10,-138.7"/>
<polygon fill="none" stroke="#000000" points="10,-138.7 10,-157.7 72,-157.7 72,-138.7 10,-138.7"/>
<text text-anchor="start" x="13" y="-144.8" font-family="Helvetica,sans-Serif" font-size="11.00" fill="#000000">&lt; 0</text>
<polygon fill="#ffffff" stroke="transparent" points="72,-138.7 72,-157.7 126,-157.7 126,-138.7 72,-138.7"/>
<polygon fill="none" stroke="#000000" points="72,-138.7 72,-157.7 126,-157.7 126,-138.7 72,-138.7"/>
<text text-anchor="start" x="116.8862" y="-144.8" font-family="Helvetica,sans-Serif" font-size="11.00" fill="#000000"> &#160;</text>
<polygon fill="#ffffff" stroke="transparent" points="126,-138.7 126,-157.7 210,-157.7 210,-138.7 126,-138.7"/>
<polygon fill="none" stroke="#000000" points="126,-138.7 126,-157.7 210,-157.7 210,-138.7 126,-138.7"/>
<text text-anchor="start" x="191.4053" y="-144.8" font-family="Helvetica,sans-Serif" font-size="11.00" fill="#000000">3 &gt;</text>
<polygon fill="none" stroke="#000000" stroke-width="2" points="9,-137.7 9,-269.7 211,-269.7 211,-137.7 9,-137.7"/>
</a>
</g>
</g>
<!-- temporary_absence_authorisation_audit&#45;&gt;audit_revision -->
<g id="edge1" class="edge">
<title>temporary_absence_authorisation_audit:w&#45;&gt;audit_revision:e</title>
<path fill="none" stroke="#000000" d="M247.2532,-357.3298C213.3363,-337.2923 264.5892,-234.7 210,-234.7"/>
<polygon fill="#000000" stroke="#000000" points="253.7149,-358.8583 260.6712,-364.2033 257.6074,-359.7792 261.5,-360.7 261.5,-360.7 261.5,-360.7 257.6074,-359.7792 262.3288,-357.1967 253.7149,-358.8583 253.7149,-358.8583"/>
<ellipse fill="none" stroke="#000000" cx="250.6008" cy="-358.1217" rx="3.2" ry="3.2"/>
</g>
<!-- temporary_absence_movement_audit -->
<g id="node3" class="node">
<title>temporary_absence_movement_audit</title>
<g id="a_node3"><a xlink:href="../../tables/temporary_absence_movement_audit.html" xlink:title="temporary_absence_movement_audit" target="_top">
<polygon fill="#ffffff" stroke="transparent" points="270.5,-164.2 270.5,-269.2 560.5,-269.2 560.5,-164.2 270.5,-164.2"/>
<polygon fill="#f5f5f5" stroke="transparent" points="270.5,-245.7 270.5,-268.7 560.5,-268.7 560.5,-245.7 270.5,-245.7"/>
<polygon fill="none" stroke="#000000" points="270.5,-245.7 270.5,-268.7 560.5,-268.7 560.5,-245.7 270.5,-245.7"/>
<text text-anchor="start" x="275.5" y="-254.3" font-family="Helvetica,sans-Serif" font-weight="bold" font-size="11.00" fill="#000000">temporary_absence_movement_audit</text>
<text text-anchor="start" x="526.0219" y="-253.8" font-family="Helvetica,sans-Serif" font-size="11.00" fill="#000000">[table]</text>
<polygon fill="none" stroke="#000000" points="270.5,-223.7 270.5,-245.7 560.5,-245.7 560.5,-223.7 270.5,-223.7"/>
<image xlink:href="../../images/primaryKeys.png" width="11px" height="12px" preserveAspectRatio="xMinYMin meet" x="275.5" y="-240.7"/>
<text text-anchor="start" x="299.5" y="-230.8" font-family="Helvetica,sans-Serif" font-size="11.00" fill="#000000">rev_id</text>
<polygon fill="none" stroke="#000000" points="270.5,-201.7 270.5,-223.7 560.5,-223.7 560.5,-201.7 270.5,-201.7"/>
<image xlink:href="../../images/primaryKeys.png" width="11px" height="12px" preserveAspectRatio="xMinYMin meet" x="275.5" y="-218.7"/>
<text text-anchor="start" x="299.5" y="-208.8" font-family="Helvetica,sans-Serif" font-size="11.00" fill="#000000">id</text>
<polygon fill="none" stroke="#000000" points="270.5,-182.7 270.5,-201.7 560.5,-201.7 560.5,-182.7 270.5,-182.7"/>
<text text-anchor="start" x="273.5" y="-188.8" font-family="Helvetica,sans-Serif" font-size="11.00" fill="#000000">...</text>
<polygon fill="#ffffff" stroke="transparent" points="270.5,-163.7 270.5,-182.7 413.5,-182.7 413.5,-163.7 270.5,-163.7"/>
<polygon fill="none" stroke="#000000" points="270.5,-163.7 270.5,-182.7 413.5,-182.7 413.5,-163.7 270.5,-163.7"/>
<text text-anchor="start" x="273.5" y="-169.8" font-family="Helvetica,sans-Serif" font-size="11.00" fill="#000000">&lt; 1</text>
<polygon fill="#ffffff" stroke="transparent" points="413.5,-163.7 413.5,-182.7 486.5,-182.7 486.5,-163.7 413.5,-163.7"/>
<polygon fill="none" stroke="#000000" points="413.5,-163.7 413.5,-182.7 486.5,-182.7 486.5,-163.7 413.5,-163.7"/>
<text text-anchor="start" x="477.3862" y="-169.8" font-family="Helvetica,sans-Serif" font-size="11.00" fill="#000000"> &#160;</text>
<polygon fill="#ffffff" stroke="transparent" points="486.5,-163.7 486.5,-182.7 560.5,-182.7 560.5,-163.7 486.5,-163.7"/>
<polygon fill="none" stroke="#000000" points="486.5,-163.7 486.5,-182.7 560.5,-182.7 560.5,-163.7 486.5,-163.7"/>
<text text-anchor="start" x="551.3862" y="-169.8" font-family="Helvetica,sans-Serif" font-size="11.00" fill="#000000"> &#160;</text>
</a>
</g>
</g>
<!-- temporary_absence_movement_audit&#45;&gt;audit_revision -->
<g id="edge2" class="edge">
<title>temporary_absence_movement_audit:w&#45;&gt;audit_revision:e</title>
<path fill="none" stroke="#000000" d="M255.7977,-234.7C239.8779,-234.7 231.217,-234.7 210,-234.7"/>
<polygon fill="#000000" stroke="#000000" points="262.5,-234.7001 270.5,-238.3 266.5,-234.7 270.5,-234.7 270.5,-234.7 270.5,-234.7 266.5,-234.7 270.5,-231.1 262.5,-234.7001 262.5,-234.7001"/>
<ellipse fill="none" stroke="#000000" cx="259.3" cy="-234.7001" rx="3.2" ry="3.2"/>
</g>
<!-- temporary_absence_occurrence_audit -->
<g id="node4" class="node">
<title>temporary_absence_occurrence_audit</title>
<g id="a_node4"><a xlink:href="../../tables/temporary_absence_occurrence_audit.html" xlink:title="temporary_absence_occurrence_audit" target="_top">
<polygon fill="#ffffff" stroke="transparent" points="269,-38.2 269,-143.2 562,-143.2 562,-38.2 269,-38.2"/>
<polygon fill="#f5f5f5" stroke="transparent" points="269.5,-119.7 269.5,-142.7 562.5,-142.7 562.5,-119.7 269.5,-119.7"/>
<polygon fill="none" stroke="#000000" points="269.5,-119.7 269.5,-142.7 562.5,-142.7 562.5,-119.7 269.5,-119.7"/>
<text text-anchor="start" x="274.5" y="-128.3" font-family="Helvetica,sans-Serif" font-weight="bold" font-size="11.00" fill="#000000">temporary_absence_occurrence_audit</text>
<text text-anchor="start" x="528.0219" y="-127.8" font-family="Helvetica,sans-Serif" font-size="11.00" fill="#000000">[table]</text>
<polygon fill="none" stroke="#000000" points="269.5,-97.7 269.5,-119.7 562.5,-119.7 562.5,-97.7 269.5,-97.7"/>
<image xlink:href="../../images/primaryKeys.png" width="11px" height="12px" preserveAspectRatio="xMinYMin meet" x="274.5" y="-114.7"/>
<text text-anchor="start" x="298.5" y="-104.8" font-family="Helvetica,sans-Serif" font-size="11.00" fill="#000000">rev_id</text>
<polygon fill="none" stroke="#000000" points="269.5,-75.7 269.5,-97.7 562.5,-97.7 562.5,-75.7 269.5,-75.7"/>
<image xlink:href="../../images/primaryKeys.png" width="11px" height="12px" preserveAspectRatio="xMinYMin meet" x="274.5" y="-92.7"/>
<text text-anchor="start" x="298.5" y="-82.8" font-family="Helvetica,sans-Serif" font-size="11.00" fill="#000000">id</text>
<polygon fill="none" stroke="#000000" points="269.5,-56.7 269.5,-75.7 562.5,-75.7 562.5,-56.7 269.5,-56.7"/>
<text text-anchor="start" x="272.5" y="-62.8" font-family="Helvetica,sans-Serif" font-size="11.00" fill="#000000">...</text>
<polygon fill="#ffffff" stroke="transparent" points="269.5,-37.7 269.5,-56.7 414.5,-56.7 414.5,-37.7 269.5,-37.7"/>
<polygon fill="none" stroke="#000000" points="269.5,-37.7 269.5,-56.7 414.5,-56.7 414.5,-37.7 269.5,-37.7"/>
<text text-anchor="start" x="272.5" y="-43.8" font-family="Helvetica,sans-Serif" font-size="11.00" fill="#000000">&lt; 1</text>
<polygon fill="#ffffff" stroke="transparent" points="414.5,-37.7 414.5,-56.7 488.5,-56.7 488.5,-37.7 414.5,-37.7"/>
<polygon fill="none" stroke="#000000" points="414.5,-37.7 414.5,-56.7 488.5,-56.7 488.5,-37.7 414.5,-37.7"/>
<text text-anchor="start" x="479.3862" y="-43.8" font-family="Helvetica,sans-Serif" font-size="11.00" fill="#000000"> &#160;</text>
<polygon fill="#ffffff" stroke="transparent" points="488.5,-37.7 488.5,-56.7 562.5,-56.7 562.5,-37.7 488.5,-37.7"/>
<polygon fill="none" stroke="#000000" points="488.5,-37.7 488.5,-56.7 562.5,-56.7 562.5,-37.7 488.5,-37.7"/>
<text text-anchor="start" x="553.3862" y="-43.8" font-family="Helvetica,sans-Serif" font-size="11.00" fill="#000000"> &#160;</text>
</a>
</g>
</g>
<!-- temporary_absence_occurrence_audit&#45;&gt;audit_revision -->
<g id="edge3" class="edge">
<title>temporary_absence_occurrence_audit:w&#45;&gt;audit_revision:e</title>
<path fill="none" stroke="#000000" d="M255.204,-111.8146C218.5276,-131.2176 266.1239,-234.7 210,-234.7"/>
<polygon fill="#000000" stroke="#000000" points="261.6834,-110.403 270.2664,-112.2175 265.5917,-109.5515 269.5,-108.7 269.5,-108.7 269.5,-108.7 265.5917,-109.5515 268.7336,-105.1825 261.6834,-110.403 261.6834,-110.403"/>
<ellipse fill="none" stroke="#000000" cx="258.5567" cy="-111.0842" rx="3.2" ry="3.2"/>
</g>
</g>
</svg>
