<?xml version="1.0" encoding="UTF-8" standalone="no"?>
<!DOCTYPE svg PUBLIC "-//W3C//DTD SVG 1.1//EN"
 "http://www.w3.org/Graphics/SVG/1.1/DTD/svg11.dtd">
<!-- Generated by graphviz version 2.40.1 (20161225.0304)
 -->
<!-- Title: twoDegreesRelationshipsDiagram Pages: 1 -->
<svg width="517pt" height="765pt"
 viewBox="0.00 0.00 517.00 764.70" xmlns="http://www.w3.org/2000/svg" xmlns:xlink="http://www.w3.org/1999/xlink">
<g id="graph0" class="graph" transform="scale(1 1) rotate(0) translate(4 760.7)">
<title>twoDegreesRelationshipsDiagram</title>
<polygon fill="#ffffff" stroke="transparent" points="-4,4 -4,-760.7 513,-760.7 513,4 -4,4"/>
<text text-anchor="middle" x="72.4936" y="-7.3" font-family="Helvetica,sans-Serif" font-size="11.00" fill="#000000">Generated by SchemaSpy</text>
<!-- hmpps_domain_event_audit -->
<g id="node1" class="node">
<title>hmpps_domain_event_audit</title>
<g id="a_node1"><a xlink:href="../../tables/hmpps_domain_event_audit.html" xlink:title="hmpps_domain_event_audit" target="_top">
<polygon fill="#ffffff" stroke="transparent" points="191,-530.7 191,-752.7 501,-752.7 501,-530.7 191,-530.7"/>
<polygon fill="#f5f5f5" stroke="transparent" points="193,-727.7 193,-750.7 499,-750.7 499,-727.7 193,-727.7"/>
<polygon fill="none" stroke="#000000" points="193,-727.7 193,-750.7 499,-750.7 499,-727.7 193,-727.7"/>
<text text-anchor="start" x="198" y="-736.3" font-family="Helvetica,sans-Serif" font-weight="bold" font-size="11.00" fill="#000000">hmpps_domain_event_audit</text>
<text text-anchor="start" x="464.0437" y="-735.8" font-family="Helvetica,sans-Serif" font-size="11.00" fill="#000000">[table]</text>
<polygon fill="none" stroke="#000000" points="193,-705.7 193,-727.7 400,-727.7 400,-705.7 193,-705.7"/>
<image xlink:href="../../images/primaryKeys.png" width="11px" height="12px" preserveAspectRatio="xMinYMin meet" x="198" y="-722.7"/>
<text text-anchor="start" x="213" y="-712.8" font-family="Helvetica,sans-Serif" font-size="11.00" fill="#000000">rev_id</text>
<polygon fill="none" stroke="#000000" points="400,-705.7 400,-727.7 499,-727.7 499,-705.7 400,-705.7"/>
<text text-anchor="start" x="403" y="-713.4" font-family="Helvetica,sans-Serif" font-size="11.00" fill="#000000">int8[19]</text>
<polygon fill="none" stroke="#000000" points="193,-683.7 193,-705.7 400,-705.7 400,-683.7 193,-683.7"/>
<text text-anchor="start" x="213" y="-690.8" font-family="Helvetica,sans-Serif" font-size="11.00" fill="#000000">rev_type</text>
<polygon fill="none" stroke="#000000" points="400,-683.7 400,-705.7 499,-705.7 499,-683.7 400,-683.7"/>
<text text-anchor="start" x="403" y="-691.4" font-family="Helvetica,sans-Serif" font-size="11.00" fill="#000000">int2[5]</text>
<polygon fill="none" stroke="#000000" points="193,-661.7 193,-683.7 400,-683.7 400,-661.7 193,-661.7"/>
<image xlink:href="../../images/primaryKeys.png" width="11px" height="12px" preserveAspectRatio="xMinYMin meet" x="198" y="-678.7"/>
<text text-anchor="start" x="213" y="-668.8" font-family="Helvetica,sans-Serif" font-size="11.00" fill="#000000">id</text>
<polygon fill="none" stroke="#000000" points="400,-661.7 400,-683.7 499,-683.7 499,-661.7 400,-661.7"/>
<text text-anchor="start" x="403" y="-669.4" font-family="Helvetica,sans-Serif" font-size="11.00" fill="#000000">uuid[2147483647]</text>
<polygon fill="none" stroke="#000000" points="193,-639.7 193,-661.7 400,-661.7 400,-639.7 193,-639.7"/>
<text text-anchor="start" x="213" y="-646.8" font-family="Helvetica,sans-Serif" font-size="11.00" fill="#000000">event_type</text>
<polygon fill="none" stroke="#000000" points="400,-639.7 400,-661.7 499,-661.7 499,-639.7 400,-639.7"/>
<text text-anchor="start" x="403" y="-647.4" font-family="Helvetica,sans-Serif" font-size="11.00" fill="#000000">text[2147483647]</text>
<polygon fill="none" stroke="#000000" points="193,-617.7 193,-639.7 400,-639.7 400,-617.7 193,-617.7"/>
<text text-anchor="start" x="213" y="-624.8" font-family="Helvetica,sans-Serif" font-size="11.00" fill="#000000">event</text>
<polygon fill="none" stroke="#000000" points="400,-617.7 400,-639.7 499,-639.7 499,-617.7 400,-617.7"/>
<text text-anchor="start" x="402.7258" y="-625.4" font-family="Helvetica,sans-Serif" font-size="11.00" fill="#000000">jsonb[2147483647]</text>
<polygon fill="none" stroke="#000000" points="193,-595.7 193,-617.7 400,-617.7 400,-595.7 193,-595.7"/>
<text text-anchor="start" x="213" y="-602.8" font-family="Helvetica,sans-Serif" font-size="11.00" fill="#000000">published</text>
<polygon fill="none" stroke="#000000" points="400,-595.7 400,-617.7 499,-617.7 499,-595.7 400,-595.7"/>
<text text-anchor="start" x="403" y="-603.4" font-family="Helvetica,sans-Serif" font-size="11.00" fill="#000000">bool[1]</text>
<polygon fill="none" stroke="#000000" points="193,-573.7 193,-595.7 400,-595.7 400,-573.7 193,-573.7"/>
<text text-anchor="start" x="213" y="-580.8" font-family="Helvetica,sans-Serif" font-size="11.00" fill="#000000">version</text>
<polygon fill="none" stroke="#000000" points="400,-573.7 400,-595.7 499,-595.7 499,-573.7 400,-573.7"/>
<text text-anchor="start" x="403" y="-581.4" font-family="Helvetica,sans-Serif" font-size="11.00" fill="#000000">int4[10]</text>
<polygon fill="none" stroke="#000000" points="193,-551.7 193,-573.7 400,-573.7 400,-551.7 193,-551.7"/>
<text text-anchor="start" x="213" y="-558.8" font-family="Helvetica,sans-Serif" font-size="11.00" fill="#000000">entity_id</text>
<polygon fill="none" stroke="#000000" points="400,-551.7 400,-573.7 499,-573.7 499,-551.7 400,-551.7"/>
<text text-anchor="start" x="403" y="-559.4" font-family="Helvetica,sans-Serif" font-size="11.00" fill="#000000">uuid[2147483647]</text>
<polygon fill="#ffffff" stroke="transparent" points="193,-532.7 193,-551.7 301,-551.7 301,-532.7 193,-532.7"/>
<polygon fill="none" stroke="#000000" points="193,-532.7 193,-551.7 301,-551.7 301,-532.7 193,-532.7"/>
<text text-anchor="start" x="196" y="-538.8" font-family="Helvetica,sans-Serif" font-size="11.00" fill="#000000">&lt; 1</text>
<polygon fill="#ffffff" stroke="transparent" points="301,-532.7 301,-551.7 400,-551.7 400,-532.7 301,-532.7"/>
<polygon fill="none" stroke="#000000" points="301,-532.7 301,-551.7 400,-551.7 400,-532.7 301,-532.7"/>
<text text-anchor="start" x="390.8862" y="-538.8" font-family="Helvetica,sans-Serif" font-size="11.00" fill="#000000"> &#160;</text>
<polygon fill="#ffffff" stroke="transparent" points="400,-532.7 400,-551.7 499,-551.7 499,-532.7 400,-532.7"/>
<polygon fill="none" stroke="#000000" points="400,-532.7 400,-551.7 499,-551.7 499,-532.7 400,-532.7"/>
<text text-anchor="start" x="480.4053" y="-538.8" font-family="Helvetica,sans-Serif" font-size="11.00" fill="#000000">0 &gt;</text>
<polygon fill="none" stroke="#000000" stroke-width="2" points="192,-531.7 192,-751.7 500,-751.7 500,-531.7 192,-531.7"/>
</a>
</g>
</g>
<!-- audit_revision -->
<g id="node2" class="node">
<title>audit_revision</title>
<g id="a_node2"><a xlink:href="../../tables/audit_revision.html" xlink:title="audit_revision" target="_top">
<polygon fill="#ffffff" stroke="transparent" points="8,-263.2 8,-346.2 142,-346.2 142,-263.2 8,-263.2"/>
<polygon fill="#f5f5f5" stroke="transparent" points="8,-322.7 8,-345.7 142,-345.7 142,-322.7 8,-322.7"/>
<polygon fill="none" stroke="#000000" points="8,-322.7 8,-345.7 142,-345.7 142,-322.7 8,-322.7"/>
<text text-anchor="start" x="13" y="-331.3" font-family="Helvetica,sans-Serif" font-weight="bold" font-size="11.00" fill="#000000">audit_revision</text>
<text text-anchor="start" x="107.5219" y="-330.8" font-family="Helvetica,sans-Serif" font-size="11.00" fill="#000000">[table]</text>
<polygon fill="none" stroke="#000000" points="8,-300.7 8,-322.7 142,-322.7 142,-300.7 8,-300.7"/>
<image xlink:href="../../images/primaryKeys.png" width="11px" height="12px" preserveAspectRatio="xMinYMin meet" x="13" y="-317.7"/>
<text text-anchor="start" x="28" y="-307.8" font-family="Helvetica,sans-Serif" font-size="11.00" fill="#000000">id</text>
<polygon fill="none" stroke="#000000" points="8,-281.7 8,-300.7 142,-300.7 142,-281.7 8,-281.7"/>
<text text-anchor="start" x="11" y="-287.8" font-family="Helvetica,sans-Serif" font-size="11.00" fill="#000000">...</text>
<polygon fill="#ffffff" stroke="transparent" points="8,-262.7 8,-281.7 64,-281.7 64,-262.7 8,-262.7"/>
<polygon fill="none" stroke="#000000" points="8,-262.7 8,-281.7 64,-281.7 64,-262.7 8,-262.7"/>
<text text-anchor="start" x="11" y="-268.8" font-family="Helvetica,sans-Serif" font-size="11.00" fill="#000000"> &#160;</text>
<polygon fill="#ffffff" stroke="transparent" points="64,-262.7 64,-281.7 98,-281.7 98,-262.7 64,-262.7"/>
<polygon fill="none" stroke="#000000" points="64,-262.7 64,-281.7 98,-281.7 98,-262.7 64,-262.7"/>
<text text-anchor="start" x="88.8862" y="-268.8" font-family="Helvetica,sans-Serif" font-size="11.00" fill="#000000"> &#160;</text>
<polygon fill="#ffffff" stroke="transparent" points="98,-262.7 98,-281.7 142,-281.7 142,-262.7 98,-262.7"/>
<polygon fill="none" stroke="#000000" points="98,-262.7 98,-281.7 142,-281.7 142,-262.7 98,-262.7"/>
<text text-anchor="start" x="123.4053" y="-268.8" font-family="Helvetica,sans-Serif" font-size="11.00" fill="#000000">7 &gt;</text>
</a>
</g>
</g>
<!-- hmpps_domain_event_audit&#45;&gt;audit_revision -->
<g id="edge1" class="edge">
<title>hmpps_domain_event_audit:w&#45;&gt;audit_revision:e</title>
<path fill="none" stroke="#000000" d="M178.857,-712.4257C117.2718,-669.1417 227.2185,-311.7 142,-311.7"/>
<polygon fill="#000000" stroke="#000000" points="185.3421,-714.3856 191.9585,-720.1461 189.171,-715.5428 193,-716.7 193,-716.7 193,-716.7 189.171,-715.5428 194.0415,-713.2539 185.3421,-714.3856 185.3421,-714.3856"/>
<ellipse fill="none" stroke="#000000" cx="182.2789" cy="-713.4598" rx="3.2" ry="3.2"/>
</g>
<!-- temporary_absence_authorisation_audit -->
<g id="node3" class="node">
<title>temporary_absence_authorisation_audit</title>
<g id="a_node3"><a xlink:href="../../tables/temporary_absence_authorisation_audit.html" xlink:title="temporary_absence_authorisation_audit" target="_top">
<polygon fill="#ffffff" stroke="transparent" points="191.5,-448.2 191.5,-509.2 500.5,-509.2 500.5,-448.2 191.5,-448.2"/>
<polygon fill="#f5f5f5" stroke="transparent" points="192,-485.7 192,-508.7 501,-508.7 501,-485.7 192,-485.7"/>
<polygon fill="none" stroke="#000000" points="192,-485.7 192,-508.7 501,-508.7 501,-485.7 192,-485.7"/>
<text text-anchor="start" x="197" y="-494.3" font-family="Helvetica,sans-Serif" font-weight="bold" font-size="11.00" fill="#000000">temporary_absence_authorisation_audit</text>
<text text-anchor="start" x="466.5219" y="-493.8" font-family="Helvetica,sans-Serif" font-size="11.00" fill="#000000">[table]</text>
<polygon fill="none" stroke="#000000" points="192,-466.7 192,-485.7 501,-485.7 501,-466.7 192,-466.7"/>
<text text-anchor="start" x="195" y="-472.8" font-family="Helvetica,sans-Serif" font-size="11.00" fill="#000000">...</text>
<polygon fill="#ffffff" stroke="transparent" points="192,-447.7 192,-466.7 345,-466.7 345,-447.7 192,-447.7"/>
<polygon fill="none" stroke="#000000" points="192,-447.7 192,-466.7 345,-466.7 345,-447.7 192,-447.7"/>
<text text-anchor="start" x="195" y="-453.8" font-family="Helvetica,sans-Serif" font-size="11.00" fill="#000000">&lt; 1</text>
<polygon fill="#ffffff" stroke="transparent" points="345,-447.7 345,-466.7 423,-466.7 423,-447.7 345,-447.7"/>
<polygon fill="none" stroke="#000000" points="345,-447.7 345,-466.7 423,-466.7 423,-447.7 345,-447.7"/>
<text text-anchor="start" x="413.8862" y="-453.8" font-family="Helvetica,sans-Serif" font-size="11.00" fill="#000000"> &#160;</text>
<polygon fill="#ffffff" stroke="transparent" points="423,-447.7 423,-466.7 501,-466.7 501,-447.7 423,-447.7"/>
<polygon fill="none" stroke="#000000" points="423,-447.7 423,-466.7 501,-466.7 501,-447.7 423,-447.7"/>
<text text-anchor="start" x="491.8862" y="-453.8" font-family="Helvetica,sans-Serif" font-size="11.00" fill="#000000"> &#160;</text>
</a>
</g>
</g>
<!-- temporary_absence_authorisation_audit&#45;&gt;audit_revision -->
<g id="edge2" class="edge">
<title>temporary_absence_authorisation_audit:w&#45;&gt;audit_revision:e</title>
<path fill="none" stroke="#000000" d="M177.5378,-472.9903C130.3629,-451.6672 212.3968,-311.7 142,-311.7"/>
<polygon fill="#000000" stroke="#000000" points="184.1368,-474.2267 191.337,-479.2384 188.0684,-474.9633 192,-475.7 192,-475.7 192,-475.7 188.0684,-474.9633 192.663,-472.1616 184.1368,-474.2267 184.1368,-474.2267"/>
<ellipse fill="none" stroke="#000000" cx="180.9916" cy="-473.6373" rx="3.2" ry="3.2"/>
</g>
<!-- temporary_absence_movement_audit -->
<g id="node4" class="node">
<title>temporary_absence_movement_audit</title>
<g id="a_node4"><a xlink:href="../../tables/temporary_absence_movement_audit.html" xlink:title="temporary_absence_movement_audit" target="_top">
<polygon fill="#ffffff" stroke="transparent" points="201,-366.2 201,-427.2 491,-427.2 491,-366.2 201,-366.2"/>
<polygon fill="#f5f5f5" stroke="transparent" points="201,-403.7 201,-426.7 491,-426.7 491,-403.7 201,-403.7"/>
<polygon fill="none" stroke="#000000" points="201,-403.7 201,-426.7 491,-426.7 491,-403.7 201,-403.7"/>
<text text-anchor="start" x="206" y="-412.3" font-family="Helvetica,sans-Serif" font-weight="bold" font-size="11.00" fill="#000000">temporary_absence_movement_audit</text>
<text text-anchor="start" x="456.5219" y="-411.8" font-family="Helvetica,sans-Serif" font-size="11.00" fill="#000000">[table]</text>
<polygon fill="none" stroke="#000000" points="201,-384.7 201,-403.7 491,-403.7 491,-384.7 201,-384.7"/>
<text text-anchor="start" x="204" y="-390.8" font-family="Helvetica,sans-Serif" font-size="11.00" fill="#000000">...</text>
<polygon fill="#ffffff" stroke="transparent" points="201,-365.7 201,-384.7 344,-384.7 344,-365.7 201,-365.7"/>
<polygon fill="none" stroke="#000000" points="201,-365.7 201,-384.7 344,-384.7 344,-365.7 201,-365.7"/>
<text text-anchor="start" x="204" y="-371.8" font-family="Helvetica,sans-Serif" font-size="11.00" fill="#000000">&lt; 1</text>
<polygon fill="#ffffff" stroke="transparent" points="344,-365.7 344,-384.7 417,-384.7 417,-365.7 344,-365.7"/>
<polygon fill="none" stroke="#000000" points="344,-365.7 344,-384.7 417,-384.7 417,-365.7 344,-365.7"/>
<text text-anchor="start" x="407.8862" y="-371.8" font-family="Helvetica,sans-Serif" font-size="11.00" fill="#000000"> &#160;</text>
<polygon fill="#ffffff" stroke="transparent" points="417,-365.7 417,-384.7 491,-384.7 491,-365.7 417,-365.7"/>
<polygon fill="none" stroke="#000000" points="417,-365.7 417,-384.7 491,-384.7 491,-365.7 417,-365.7"/>
<text text-anchor="start" x="481.8862" y="-371.8" font-family="Helvetica,sans-Serif" font-size="11.00" fill="#000000"> &#160;</text>
</a>
</g>
</g>
<!-- temporary_absence_movement_audit&#45;&gt;audit_revision -->
<g id="edge3" class="edge">
<title>temporary_absence_movement_audit:w&#45;&gt;audit_revision:e</title>
<path fill="none" stroke="#000000" d="M187.0863,-389.9636C162.784,-373.922 181.1101,-311.7 142,-311.7"/>
<polygon fill="#000000" stroke="#000000" points="193.2737,-391.6251 200.0663,-397.1768 197.1369,-392.6626 201,-393.7 201,-393.7 201,-393.7 197.1369,-392.6626 201.9337,-390.2232 193.2737,-391.6251 193.2737,-391.6251"/>
<ellipse fill="none" stroke="#000000" cx="190.1832" cy="-390.7952" rx="3.2" ry="3.2"/>
</g>
<!-- temporary_absence_occurrence_audit -->
<g id="node5" class="node">
<title>temporary_absence_occurrence_audit</title>
<g id="a_node5"><a xlink:href="../../tables/temporary_absence_occurrence_audit.html" xlink:title="temporary_absence_occurrence_audit" target="_top">
<polygon fill="#ffffff" stroke="transparent" points="199.5,-284.2 199.5,-345.2 492.5,-345.2 492.5,-284.2 199.5,-284.2"/>
<polygon fill="#f5f5f5" stroke="transparent" points="200,-321.7 200,-344.7 493,-344.7 493,-321.7 200,-321.7"/>
<polygon fill="none" stroke="#000000" points="200,-321.7 200,-344.7 493,-344.7 493,-321.7 200,-321.7"/>
<text text-anchor="start" x="205" y="-330.3" font-family="Helvetica,sans-Serif" font-weight="bold" font-size="11.00" fill="#000000">temporary_absence_occurrence_audit</text>
<text text-anchor="start" x="458.5219" y="-329.8" font-family="Helvetica,sans-Serif" font-size="11.00" fill="#000000">[table]</text>
<polygon fill="none" stroke="#000000" points="200,-302.7 200,-321.7 493,-321.7 493,-302.7 200,-302.7"/>
<text text-anchor="start" x="203" y="-308.8" font-family="Helvetica,sans-Serif" font-size="11.00" fill="#000000">...</text>
<polygon fill="#ffffff" stroke="transparent" points="200,-283.7 200,-302.7 345,-302.7 345,-283.7 200,-283.7"/>
<polygon fill="none" stroke="#000000" points="200,-283.7 200,-302.7 345,-302.7 345,-283.7 200,-283.7"/>
<text text-anchor="start" x="203" y="-289.8" font-family="Helvetica,sans-Serif" font-size="11.00" fill="#000000">&lt; 1</text>
<polygon fill="#ffffff" stroke="transparent" points="345,-283.7 345,-302.7 419,-302.7 419,-283.7 345,-283.7"/>
<polygon fill="none" stroke="#000000" points="345,-283.7 345,-302.7 419,-302.7 419,-283.7 345,-283.7"/>
<text text-anchor="start" x="409.8862" y="-289.8" font-family="Helvetica,sans-Serif" font-size="11.00" fill="#000000"> &#160;</text>
<polygon fill="#ffffff" stroke="transparent" points="419,-283.7 419,-302.7 493,-302.7 493,-283.7 419,-283.7"/>
<polygon fill="none" stroke="#000000" points="419,-283.7 419,-302.7 493,-302.7 493,-283.7 419,-283.7"/>
<text text-anchor="start" x="483.8862" y="-289.8" font-family="Helvetica,sans-Serif" font-size="11.00" fill="#000000"> &#160;</text>
</a>
</g>
</g>
<!-- temporary_absence_occurrence_audit&#45;&gt;audit_revision -->
<g id="edge4" class="edge">
<title>temporary_absence_occurrence_audit:w&#45;&gt;audit_revision:e</title>
<path fill="none" stroke="#000000" d="M185.454,-311.7C170.4776,-311.7 162.1389,-311.7 142,-311.7"/>
<polygon fill="#000000" stroke="#000000" points="192,-311.7001 200,-315.3 196,-311.7 200,-311.7 200,-311.7 200,-311.7 196,-311.7 200,-308.1 192,-311.7001 192,-311.7001"/>
<ellipse fill="none" stroke="#000000" cx="188.8" cy="-311.7001" rx="3.2" ry="3.2"/>
</g>
<!-- tap.authorisation_audit -->
<g id="node6" class="node">
<title>tap.authorisation_audit</title>
<g id="a_node6"><a xlink:title="tap.authorisation_audit">
<polygon fill="#ffffff" stroke="transparent" points="247,-202.2 247,-263.2 445,-263.2 445,-202.2 247,-202.2"/>
<polygon fill="#f5f5f5" stroke="transparent" points="247,-239.7 247,-262.7 445,-262.7 445,-239.7 247,-239.7"/>
<polygon fill="none" stroke="#000000" points="247,-239.7 247,-262.7 445,-262.7 445,-239.7 247,-239.7"/>
<text text-anchor="start" x="252" y="-248.3" font-family="Helvetica,sans-Serif" font-weight="bold" font-size="11.00" fill="#000000">tap.authorisation_audit</text>
<text text-anchor="start" x="410.5219" y="-247.8" font-family="Helvetica,sans-Serif" font-size="11.00" fill="#000000">[table]</text>
<polygon fill="none" stroke="#000000" points="247,-220.7 247,-239.7 445,-239.7 445,-220.7 247,-220.7"/>
<text text-anchor="start" x="250" y="-226.8" font-family="Helvetica,sans-Serif" font-size="11.00" fill="#000000">...</text>
<polygon fill="#ffffff" stroke="transparent" points="247,-201.7 247,-220.7 331,-220.7 331,-201.7 247,-201.7"/>
<polygon fill="none" stroke="#000000" points="247,-201.7 247,-220.7 331,-220.7 331,-201.7 247,-201.7"/>
<text text-anchor="start" x="250" y="-207.8" font-family="Helvetica,sans-Serif" font-size="11.00" fill="#000000">&lt; 1</text>
<polygon fill="#ffffff" stroke="transparent" points="331,-201.7 331,-220.7 401,-220.7 401,-201.7 331,-201.7"/>
<polygon fill="none" stroke="#000000" points="331,-201.7 331,-220.7 401,-220.7 401,-201.7 331,-201.7"/>
<text text-anchor="start" x="365.6105" y="-207.8" font-family="Helvetica,sans-Serif" font-size="11.00" fill="#000000">0 rows</text>
<polygon fill="#ffffff" stroke="transparent" points="401,-201.7 401,-220.7 445,-220.7 445,-201.7 401,-201.7"/>
<polygon fill="none" stroke="#000000" points="401,-201.7 401,-220.7 445,-220.7 445,-201.7 401,-201.7"/>
<text text-anchor="start" x="435.8862" y="-207.8" font-family="Helvetica,sans-Serif" font-size="11.00" fill="#000000"> &#160;</text>
</a>
</g>
</g>
<!-- tap.authorisation_audit&#45;&gt;audit_revision -->
<g id="edge5" class="edge">
<title>tap.authorisation_audit:w&#45;&gt;audit_revision:e</title>
<path fill="none" stroke="#000000" d="M232.6448,-231.3305C211.0449,-236.8634 205.6351,-255.5874 183,-273.7 163.6011,-289.2231 166.8452,-311.7 142,-311.7"/>
<polygon fill="#000000" stroke="#000000" points="239.0511,-230.6029 247.4063,-233.277 243.0256,-230.1515 247,-229.7 247,-229.7 247,-229.7 243.0256,-230.1515 246.5937,-226.123 239.0511,-230.6029 239.0511,-230.6029"/>
<ellipse fill="none" stroke="#000000" cx="235.8716" cy="-230.9641" rx="3.2" ry="3.2"/>
</g>
<!-- tap.movement_audit -->
<g id="node7" class="node">
<title>tap.movement_audit</title>
<g id="a_node7"><a xlink:title="tap.movement_audit">
<polygon fill="#ffffff" stroke="transparent" points="257,-120.2 257,-181.2 435,-181.2 435,-120.2 257,-120.2"/>
<polygon fill="#f5f5f5" stroke="transparent" points="257,-157.7 257,-180.7 435,-180.7 435,-157.7 257,-157.7"/>
<polygon fill="none" stroke="#000000" points="257,-157.7 257,-180.7 435,-180.7 435,-157.7 257,-157.7"/>
<text text-anchor="start" x="262" y="-166.3" font-family="Helvetica,sans-Serif" font-weight="bold" font-size="11.00" fill="#000000">tap.movement_audit</text>
<text text-anchor="start" x="400.5219" y="-165.8" font-family="Helvetica,sans-Serif" font-size="11.00" fill="#000000">[table]</text>
<polygon fill="none" stroke="#000000" points="257,-138.7 257,-157.7 435,-157.7 435,-138.7 257,-138.7"/>
<text text-anchor="start" x="260" y="-144.8" font-family="Helvetica,sans-Serif" font-size="11.00" fill="#000000">...</text>
<polygon fill="#ffffff" stroke="transparent" points="257,-119.7 257,-138.7 331,-138.7 331,-119.7 257,-119.7"/>
<polygon fill="none" stroke="#000000" points="257,-119.7 257,-138.7 331,-138.7 331,-119.7 257,-119.7"/>
<text text-anchor="start" x="260" y="-125.8" font-family="Helvetica,sans-Serif" font-size="11.00" fill="#000000">&lt; 1</text>
<polygon fill="#ffffff" stroke="transparent" points="331,-119.7 331,-138.7 396,-138.7 396,-119.7 331,-119.7"/>
<polygon fill="none" stroke="#000000" points="331,-119.7 331,-138.7 396,-138.7 396,-119.7 331,-119.7"/>
<text text-anchor="start" x="360.6105" y="-125.8" font-family="Helvetica,sans-Serif" font-size="11.00" fill="#000000">0 rows</text>
<polygon fill="#ffffff" stroke="transparent" points="396,-119.7 396,-138.7 435,-138.7 435,-119.7 396,-119.7"/>
<polygon fill="none" stroke="#000000" points="396,-119.7 396,-138.7 435,-138.7 435,-119.7 396,-119.7"/>
<text text-anchor="start" x="425.8862" y="-125.8" font-family="Helvetica,sans-Serif" font-size="11.00" fill="#000000"> &#160;</text>
</a>
</g>
</g>
<!-- tap.movement_audit&#45;&gt;audit_revision -->
<g id="edge6" class="edge">
<title>tap.movement_audit:w&#45;&gt;audit_revision:e</title>
<path fill="none" stroke="#000000" d="M242.3292,-148.5509C215.2204,-152.0241 203.7223,-166.1685 183,-191.7 147.4823,-235.4606 198.3604,-311.7 142,-311.7"/>
<polygon fill="#000000" stroke="#000000" points="249.0134,-148.1633 257.2085,-151.294 253.0067,-147.9316 257,-147.7 257,-147.7 257,-147.7 253.0067,-147.9316 256.7915,-144.106 249.0134,-148.1633 249.0134,-148.1633"/>
<ellipse fill="none" stroke="#000000" cx="245.8188" cy="-148.3486" rx="3.2" ry="3.2"/>
</g>
<!-- tap.occurrence_audit -->
<g id="node8" class="node">
<title>tap.occurrence_audit</title>
<g id="a_node8"><a xlink:title="tap.occurrence_audit">
<polygon fill="#ffffff" stroke="transparent" points="255.5,-38.2 255.5,-99.2 436.5,-99.2 436.5,-38.2 255.5,-38.2"/>
<polygon fill="#f5f5f5" stroke="transparent" points="256,-75.7 256,-98.7 437,-98.7 437,-75.7 256,-75.7"/>
<polygon fill="none" stroke="#000000" points="256,-75.7 256,-98.7 437,-98.7 437,-75.7 256,-75.7"/>
<text text-anchor="start" x="261" y="-84.3" font-family="Helvetica,sans-Serif" font-weight="bold" font-size="11.00" fill="#000000">tap.occurrence_audit</text>
<text text-anchor="start" x="402.5219" y="-83.8" font-family="Helvetica,sans-Serif" font-size="11.00" fill="#000000">[table]</text>
<polygon fill="none" stroke="#000000" points="256,-56.7 256,-75.7 437,-75.7 437,-56.7 256,-56.7"/>
<text text-anchor="start" x="259" y="-62.8" font-family="Helvetica,sans-Serif" font-size="11.00" fill="#000000">...</text>
<polygon fill="#ffffff" stroke="transparent" points="256,-37.7 256,-56.7 332,-56.7 332,-37.7 256,-37.7"/>
<polygon fill="none" stroke="#000000" points="256,-37.7 256,-56.7 332,-56.7 332,-37.7 256,-37.7"/>
<text text-anchor="start" x="259" y="-43.8" font-family="Helvetica,sans-Serif" font-size="11.00" fill="#000000">&lt; 1</text>
<polygon fill="#ffffff" stroke="transparent" points="332,-37.7 332,-56.7 397,-56.7 397,-37.7 332,-37.7"/>
<polygon fill="none" stroke="#000000" points="332,-37.7 332,-56.7 397,-56.7 397,-37.7 332,-37.7"/>
<text text-anchor="start" x="361.6105" y="-43.8" font-family="Helvetica,sans-Serif" font-size="11.00" fill="#000000">0 rows</text>
<polygon fill="#ffffff" stroke="transparent" points="397,-37.7 397,-56.7 437,-56.7 437,-37.7 397,-37.7"/>
<polygon fill="none" stroke="#000000" points="397,-37.7 397,-56.7 437,-56.7 437,-37.7 397,-37.7"/>
<text text-anchor="start" x="427.8862" y="-43.8" font-family="Helvetica,sans-Serif" font-size="11.00" fill="#000000"> &#160;</text>
</a>
</g>
</g>
<!-- tap.occurrence_audit&#45;&gt;audit_revision -->
<g id="edge7" class="edge">
<title>tap.occurrence_audit:w&#45;&gt;audit_revision:e</title>
<path fill="none" stroke="#000000" d="M241.3856,-66.4874C214.2129,-69.7228 201.7645,-83.0969 183,-109.7 130.1976,-184.5599 233.6084,-311.7 142,-311.7"/>
<polygon fill="#000000" stroke="#000000" points="248.0116,-66.1304 256.1937,-69.2948 252.0058,-65.9152 256,-65.7 256,-65.7 256,-65.7 252.0058,-65.9152 255.8063,-62.1052 248.0116,-66.1304 248.0116,-66.1304"/>
<ellipse fill="none" stroke="#000000" cx="244.8162" cy="-66.3026" rx="3.2" ry="3.2"/>
</g>
</g>
</svg>
