<?xml version="1.0" encoding="UTF-8" standalone="no"?>
<!DOCTYPE svg PUBLIC "-//W3C//DTD SVG 1.1//EN"
 "http://www.w3.org/Graphics/SVG/1.1/DTD/svg11.dtd">
<!-- Generated by graphviz version 2.40.1 (20161225.0304)
 -->
<!-- Title: twoDegreesRelationshipsDiagram Pages: 1 -->
<svg width="517pt" height="519pt"
 viewBox="0.00 0.00 517.00 518.70" xmlns="http://www.w3.org/2000/svg" xmlns:xlink="http://www.w3.org/1999/xlink">
<g id="graph0" class="graph" transform="scale(1 1) rotate(0) translate(4 514.7)">
<title>twoDegreesRelationshipsDiagram</title>
<polygon fill="#ffffff" stroke="transparent" points="-4,4 -4,-514.7 513,-514.7 513,4 -4,4"/>
<text text-anchor="middle" x="72.4936" y="-7.3" font-family="Helvetica,sans-Serif" font-size="11.00" fill="#000000">Generated by SchemaSpy</text>
<!-- hmpps_domain_event_audit -->
<g id="node1" class="node">
<title>hmpps_domain_event_audit</title>
<g id="a_node1"><a xlink:href="../../tables/hmpps_domain_event_audit.html" xlink:title="hmpps_domain_event_audit" target="_top">
<polygon fill="#ffffff" stroke="transparent" points="191,-284.7 191,-506.7 501,-506.7 501,-284.7 191,-284.7"/>
<polygon fill="#f5f5f5" stroke="transparent" points="193,-481.7 193,-504.7 499,-504.7 499,-481.7 193,-481.7"/>
<polygon fill="none" stroke="#000000" points="193,-481.7 193,-504.7 499,-504.7 499,-481.7 193,-481.7"/>
<text text-anchor="start" x="198" y="-490.3" font-family="Helvetica,sans-Serif" font-weight="bold" font-size="11.00" fill="#000000">hmpps_domain_event_audit</text>
<text text-anchor="start" x="464.0437" y="-489.8" font-family="Helvetica,sans-Serif" font-size="11.00" fill="#000000">[table]</text>
<polygon fill="none" stroke="#000000" points="193,-459.7 193,-481.7 400,-481.7 400,-459.7 193,-459.7"/>
<image xlink:href="../../images/primaryKeys.png" width="11px" height="12px" preserveAspectRatio="xMinYMin meet" x="198" y="-476.7"/>
<text text-anchor="start" x="213" y="-466.8" font-family="Helvetica,sans-Serif" font-size="11.00" fill="#000000">rev_id</text>
<polygon fill="none" stroke="#000000" points="400,-459.7 400,-481.7 499,-481.7 499,-459.7 400,-459.7"/>
<text text-anchor="start" x="403" y="-467.4" font-family="Helvetica,sans-Serif" font-size="11.00" fill="#000000">int8[19]</text>
<polygon fill="none" stroke="#000000" points="193,-437.7 193,-459.7 400,-459.7 400,-437.7 193,-437.7"/>
<text text-anchor="start" x="213" y="-444.8" font-family="Helvetica,sans-Serif" font-size="11.00" fill="#000000">rev_type</text>
<polygon fill="none" stroke="#000000" points="400,-437.7 400,-459.7 499,-459.7 499,-437.7 400,-437.7"/>
<text text-anchor="start" x="403" y="-445.4" font-family="Helvetica,sans-Serif" font-size="11.00" fill="#000000">int2[5]</text>
<polygon fill="none" stroke="#000000" points="193,-415.7 193,-437.7 400,-437.7 400,-415.7 193,-415.7"/>
<image xlink:href="../../images/primaryKeys.png" width="11px" height="12px" preserveAspectRatio="xMinYMin meet" x="198" y="-432.7"/>
<text text-anchor="start" x="213" y="-422.8" font-family="Helvetica,sans-Serif" font-size="11.00" fill="#000000">id</text>
<polygon fill="none" stroke="#000000" points="400,-415.7 400,-437.7 499,-437.7 499,-415.7 400,-415.7"/>
<text text-anchor="start" x="403" y="-423.4" font-family="Helvetica,sans-Serif" font-size="11.00" fill="#000000">uuid[2147483647]</text>
<polygon fill="none" stroke="#000000" points="193,-393.7 193,-415.7 400,-415.7 400,-393.7 193,-393.7"/>
<text text-anchor="start" x="213" y="-400.8" font-family="Helvetica,sans-Serif" font-size="11.00" fill="#000000">event_type</text>
<polygon fill="none" stroke="#000000" points="400,-393.7 400,-415.7 499,-415.7 499,-393.7 400,-393.7"/>
<text text-anchor="start" x="403" y="-401.4" font-family="Helvetica,sans-Serif" font-size="11.00" fill="#000000">text[2147483647]</text>
<polygon fill="none" stroke="#000000" points="193,-371.7 193,-393.7 400,-393.7 400,-371.7 193,-371.7"/>
<text text-anchor="start" x="213" y="-378.8" font-family="Helvetica,sans-Serif" font-size="11.00" fill="#000000">event</text>
<polygon fill="none" stroke="#000000" points="400,-371.7 400,-393.7 499,-393.7 499,-371.7 400,-371.7"/>
<text text-anchor="start" x="402.7258" y="-379.4" font-family="Helvetica,sans-Serif" font-size="11.00" fill="#000000">jsonb[2147483647]</text>
<polygon fill="none" stroke="#000000" points="193,-349.7 193,-371.7 400,-371.7 400,-349.7 193,-349.7"/>
<text text-anchor="start" x="213" y="-356.8" font-family="Helvetica,sans-Serif" font-size="11.00" fill="#000000">published</text>
<polygon fill="none" stroke="#000000" points="400,-349.7 400,-371.7 499,-371.7 499,-349.7 400,-349.7"/>
<text text-anchor="start" x="403" y="-357.4" font-family="Helvetica,sans-Serif" font-size="11.00" fill="#000000">bool[1]</text>
<polygon fill="none" stroke="#000000" points="193,-327.7 193,-349.7 400,-349.7 400,-327.7 193,-327.7"/>
<text text-anchor="start" x="213" y="-334.8" font-family="Helvetica,sans-Serif" font-size="11.00" fill="#000000">version</text>
<polygon fill="none" stroke="#000000" points="400,-327.7 400,-349.7 499,-349.7 499,-327.7 400,-327.7"/>
<text text-anchor="start" x="403" y="-335.4" font-family="Helvetica,sans-Serif" font-size="11.00" fill="#000000">int4[10]</text>
<polygon fill="none" stroke="#000000" points="193,-305.7 193,-327.7 400,-327.7 400,-305.7 193,-305.7"/>
<text text-anchor="start" x="213" y="-312.8" font-family="Helvetica,sans-Serif" font-size="11.00" fill="#000000">entity_id</text>
<polygon fill="none" stroke="#000000" points="400,-305.7 400,-327.7 499,-327.7 499,-305.7 400,-305.7"/>
<text text-anchor="start" x="403" y="-313.4" font-family="Helvetica,sans-Serif" font-size="11.00" fill="#000000">uuid[2147483647]</text>
<polygon fill="#ffffff" stroke="transparent" points="193,-286.7 193,-305.7 301,-305.7 301,-286.7 193,-286.7"/>
<polygon fill="none" stroke="#000000" points="193,-286.7 193,-305.7 301,-305.7 301,-286.7 193,-286.7"/>
<text text-anchor="start" x="196" y="-292.8" font-family="Helvetica,sans-Serif" font-size="11.00" fill="#000000">&lt; 1</text>
<polygon fill="#ffffff" stroke="transparent" points="301,-286.7 301,-305.7 400,-305.7 400,-286.7 301,-286.7"/>
<polygon fill="none" stroke="#000000" points="301,-286.7 301,-305.7 400,-305.7 400,-286.7 301,-286.7"/>
<text text-anchor="start" x="390.8862" y="-292.8" font-family="Helvetica,sans-Serif" font-size="11.00" fill="#000000"> &#160;</text>
<polygon fill="#ffffff" stroke="transparent" points="400,-286.7 400,-305.7 499,-305.7 499,-286.7 400,-286.7"/>
<polygon fill="none" stroke="#000000" points="400,-286.7 400,-305.7 499,-305.7 499,-286.7 400,-286.7"/>
<text text-anchor="start" x="480.4053" y="-292.8" font-family="Helvetica,sans-Serif" font-size="11.00" fill="#000000">0 &gt;</text>
<polygon fill="none" stroke="#000000" stroke-width="2" points="192,-285.7 192,-505.7 500,-505.7 500,-285.7 192,-285.7"/>
</a>
</g>
</g>
<!-- audit_revision -->
<g id="node2" class="node">
<title>audit_revision</title>
<g id="a_node2"><a xlink:href="../../tables/audit_revision.html" xlink:title="audit_revision" target="_top">
<polygon fill="#ffffff" stroke="transparent" points="8,-140.2 8,-223.2 142,-223.2 142,-140.2 8,-140.2"/>
<polygon fill="#f5f5f5" stroke="transparent" points="8,-199.7 8,-222.7 142,-222.7 142,-199.7 8,-199.7"/>
<polygon fill="none" stroke="#000000" points="8,-199.7 8,-222.7 142,-222.7 142,-199.7 8,-199.7"/>
<text text-anchor="start" x="13" y="-208.3" font-family="Helvetica,sans-Serif" font-weight="bold" font-size="11.00" fill="#000000">audit_revision</text>
<text text-anchor="start" x="107.5219" y="-207.8" font-family="Helvetica,sans-Serif" font-size="11.00" fill="#000000">[table]</text>
<polygon fill="none" stroke="#000000" points="8,-177.7 8,-199.7 142,-199.7 142,-177.7 8,-177.7"/>
<image xlink:href="../../images/primaryKeys.png" width="11px" height="12px" preserveAspectRatio="xMinYMin meet" x="13" y="-194.7"/>
<text text-anchor="start" x="28" y="-184.8" font-family="Helvetica,sans-Serif" font-size="11.00" fill="#000000">id</text>
<polygon fill="none" stroke="#000000" points="8,-158.7 8,-177.7 142,-177.7 142,-158.7 8,-158.7"/>
<text text-anchor="start" x="11" y="-164.8" font-family="Helvetica,sans-Serif" font-size="11.00" fill="#000000">...</text>
<polygon fill="#ffffff" stroke="transparent" points="8,-139.7 8,-158.7 64,-158.7 64,-139.7 8,-139.7"/>
<polygon fill="none" stroke="#000000" points="8,-139.7 8,-158.7 64,-158.7 64,-139.7 8,-139.7"/>
<text text-anchor="start" x="11" y="-145.8" font-family="Helvetica,sans-Serif" font-size="11.00" fill="#000000"> &#160;</text>
<polygon fill="#ffffff" stroke="transparent" points="64,-139.7 64,-158.7 98,-158.7 98,-139.7 64,-139.7"/>
<polygon fill="none" stroke="#000000" points="64,-139.7 64,-158.7 98,-158.7 98,-139.7 64,-139.7"/>
<text text-anchor="start" x="88.8862" y="-145.8" font-family="Helvetica,sans-Serif" font-size="11.00" fill="#000000"> &#160;</text>
<polygon fill="#ffffff" stroke="transparent" points="98,-139.7 98,-158.7 142,-158.7 142,-139.7 98,-139.7"/>
<polygon fill="none" stroke="#000000" points="98,-139.7 98,-158.7 142,-158.7 142,-139.7 98,-139.7"/>
<text text-anchor="start" x="123.4053" y="-145.8" font-family="Helvetica,sans-Serif" font-size="11.00" fill="#000000">4 &gt;</text>
</a>
</g>
</g>
<!-- hmpps_domain_event_audit&#45;&gt;audit_revision -->
<g id="edge1" class="edge">
<title>hmpps_domain_event_audit:w&#45;&gt;audit_revision:e</title>
<path fill="none" stroke="#000000" d="M179.5068,-464.81C141.4079,-424.3139 200.2105,-188.7 142,-188.7"/>
<polygon fill="#000000" stroke="#000000" points="185.6681,-467.4995 191.5598,-473.9994 189.334,-469.0997 193,-470.7 193,-470.7 193,-470.7 189.334,-469.0997 194.4402,-467.4006 185.6681,-467.4995 185.6681,-467.4995"/>
<ellipse fill="none" stroke="#000000" cx="182.7353" cy="-466.2193" rx="3.2" ry="3.2"/>
</g>
<!-- temporary_absence_authorisation_audit -->
<g id="node3" class="node">
<title>temporary_absence_authorisation_audit</title>
<g id="a_node3"><a xlink:href="../../tables/temporary_absence_authorisation_audit.html" xlink:title="temporary_absence_authorisation_audit" target="_top">
<polygon fill="#ffffff" stroke="transparent" points="191.5,-202.2 191.5,-263.2 500.5,-263.2 500.5,-202.2 191.5,-202.2"/>
<polygon fill="#f5f5f5" stroke="transparent" points="192,-239.7 192,-262.7 501,-262.7 501,-239.7 192,-239.7"/>
<polygon fill="none" stroke="#000000" points="192,-239.7 192,-262.7 501,-262.7 501,-239.7 192,-239.7"/>
<text text-anchor="start" x="197" y="-248.3" font-family="Helvetica,sans-Serif" font-weight="bold" font-size="11.00" fill="#000000">temporary_absence_authorisation_audit</text>
<text text-anchor="start" x="466.5219" y="-247.8" font-family="Helvetica,sans-Serif" font-size="11.00" fill="#000000">[table]</text>
<polygon fill="none" stroke="#000000" points="192,-220.7 192,-239.7 501,-239.7 501,-220.7 192,-220.7"/>
<text text-anchor="start" x="195" y="-226.8" font-family="Helvetica,sans-Serif" font-size="11.00" fill="#000000">...</text>
<polygon fill="#ffffff" stroke="transparent" points="192,-201.7 192,-220.7 345,-220.7 345,-201.7 192,-201.7"/>
<polygon fill="none" stroke="#000000" points="192,-201.7 192,-220.7 345,-220.7 345,-201.7 192,-201.7"/>
<text text-anchor="start" x="195" y="-207.8" font-family="Helvetica,sans-Serif" font-size="11.00" fill="#000000">&lt; 1</text>
<polygon fill="#ffffff" stroke="transparent" points="345,-201.7 345,-220.7 423,-220.7 423,-201.7 345,-201.7"/>
<polygon fill="none" stroke="#000000" points="345,-201.7 345,-220.7 423,-220.7 423,-201.7 345,-201.7"/>
<text text-anchor="start" x="413.8862" y="-207.8" font-family="Helvetica,sans-Serif" font-size="11.00" fill="#000000"> &#160;</text>
<polygon fill="#ffffff" stroke="transparent" points="423,-201.7 423,-220.7 501,-220.7 501,-201.7 423,-201.7"/>
<polygon fill="none" stroke="#000000" points="423,-201.7 423,-220.7 501,-220.7 501,-201.7 423,-201.7"/>
<text text-anchor="start" x="491.8862" y="-207.8" font-family="Helvetica,sans-Serif" font-size="11.00" fill="#000000"> &#160;</text>
</a>
</g>
</g>
<!-- temporary_absence_authorisation_audit&#45;&gt;audit_revision -->
<g id="edge2" class="edge">
<title>temporary_absence_authorisation_audit:w&#45;&gt;audit_revision:e</title>
<path fill="none" stroke="#000000" d="M177.9684,-224.9968C164.8046,-214.2274 164.6761,-188.7 142,-188.7"/>
<polygon fill="#000000" stroke="#000000" points="184.4148,-227.1575 190.8559,-233.1134 188.2074,-228.4287 192,-229.7 192,-229.7 192,-229.7 188.2074,-228.4287 193.1441,-226.2866 184.4148,-227.1575 184.4148,-227.1575"/>
<ellipse fill="none" stroke="#000000" cx="181.3807" cy="-226.1405" rx="3.2" ry="3.2"/>
</g>
<!-- temporary_absence_movement_audit -->
<g id="node4" class="node">
<title>temporary_absence_movement_audit</title>
<g id="a_node4"><a xlink:href="../../tables/temporary_absence_movement_audit.html" xlink:title="temporary_absence_movement_audit" target="_top">
<polygon fill="#ffffff" stroke="transparent" points="201,-120.2 201,-181.2 491,-181.2 491,-120.2 201,-120.2"/>
<polygon fill="#f5f5f5" stroke="transparent" points="201,-157.7 201,-180.7 491,-180.7 491,-157.7 201,-157.7"/>
<polygon fill="none" stroke="#000000" points="201,-157.7 201,-180.7 491,-180.7 491,-157.7 201,-157.7"/>
<text text-anchor="start" x="206" y="-166.3" font-family="Helvetica,sans-Serif" font-weight="bold" font-size="11.00" fill="#000000">temporary_absence_movement_audit</text>
<text text-anchor="start" x="456.5219" y="-165.8" font-family="Helvetica,sans-Serif" font-size="11.00" fill="#000000">[table]</text>
<polygon fill="none" stroke="#000000" points="201,-138.7 201,-157.7 491,-157.7 491,-138.7 201,-138.7"/>
<text text-anchor="start" x="204" y="-144.8" font-family="Helvetica,sans-Serif" font-size="11.00" fill="#000000">...</text>
<polygon fill="#ffffff" stroke="transparent" points="201,-119.7 201,-138.7 344,-138.7 344,-119.7 201,-119.7"/>
<polygon fill="none" stroke="#000000" points="201,-119.7 201,-138.7 344,-138.7 344,-119.7 201,-119.7"/>
<text text-anchor="start" x="204" y="-125.8" font-family="Helvetica,sans-Serif" font-size="11.00" fill="#000000">&lt; 1</text>
<polygon fill="#ffffff" stroke="transparent" points="344,-119.7 344,-138.7 417,-138.7 417,-119.7 344,-119.7"/>
<polygon fill="none" stroke="#000000" points="344,-119.7 344,-138.7 417,-138.7 417,-119.7 344,-119.7"/>
<text text-anchor="start" x="407.8862" y="-125.8" font-family="Helvetica,sans-Serif" font-size="11.00" fill="#000000"> &#160;</text>
<polygon fill="#ffffff" stroke="transparent" points="417,-119.7 417,-138.7 491,-138.7 491,-119.7 417,-119.7"/>
<polygon fill="none" stroke="#000000" points="417,-119.7 417,-138.7 491,-138.7 491,-119.7 417,-119.7"/>
<text text-anchor="start" x="481.8862" y="-125.8" font-family="Helvetica,sans-Serif" font-size="11.00" fill="#000000"> &#160;</text>
</a>
</g>
</g>
<!-- temporary_absence_movement_audit&#45;&gt;audit_revision -->
<g id="edge3" class="edge">
<title>temporary_absence_movement_audit:w&#45;&gt;audit_revision:e</title>
<path fill="none" stroke="#000000" d="M186.9239,-151.1956C169.6279,-161.1106 168.1942,-188.7 142,-188.7"/>
<polygon fill="#000000" stroke="#000000" points="193.2358,-149.6282 201.8677,-151.1939 197.1179,-148.6641 201,-147.7 201,-147.7 201,-147.7 197.1179,-148.6641 200.1323,-144.2061 193.2358,-149.6282 193.2358,-149.6282"/>
<ellipse fill="none" stroke="#000000" cx="190.1302" cy="-150.3994" rx="3.2" ry="3.2"/>
</g>
<!-- temporary_absence_occurrence_audit -->
<g id="node5" class="node">
<title>temporary_absence_occurrence_audit</title>
<g id="a_node5"><a xlink:href="../../tables/temporary_absence_occurrence_audit.html" xlink:title="temporary_absence_occurrence_audit" target="_top">
<polygon fill="#ffffff" stroke="transparent" points="199.5,-38.2 199.5,-99.2 492.5,-99.2 492.5,-38.2 199.5,-38.2"/>
<polygon fill="#f5f5f5" stroke="transparent" points="200,-75.7 200,-98.7 493,-98.7 493,-75.7 200,-75.7"/>
<polygon fill="none" stroke="#000000" points="200,-75.7 200,-98.7 493,-98.7 493,-75.7 200,-75.7"/>
<text text-anchor="start" x="205" y="-84.3" font-family="Helvetica,sans-Serif" font-weight="bold" font-size="11.00" fill="#000000">temporary_absence_occurrence_audit</text>
<text text-anchor="start" x="458.5219" y="-83.8" font-family="Helvetica,sans-Serif" font-size="11.00" fill="#000000">[table]</text>
<polygon fill="none" stroke="#000000" points="200,-56.7 200,-75.7 493,-75.7 493,-56.7 200,-56.7"/>
<text text-anchor="start" x="203" y="-62.8" font-family="Helvetica,sans-Serif" font-size="11.00" fill="#000000">...</text>
<polygon fill="#ffffff" stroke="transparent" points="200,-37.7 200,-56.7 345,-56.7 345,-37.7 200,-37.7"/>
<polygon fill="none" stroke="#000000" points="200,-37.7 200,-56.7 345,-56.7 345,-37.7 200,-37.7"/>
<text text-anchor="start" x="203" y="-43.8" font-family="Helvetica,sans-Serif" font-size="11.00" fill="#000000">&lt; 1</text>
<polygon fill="#ffffff" stroke="transparent" points="345,-37.7 345,-56.7 419,-56.7 419,-37.7 345,-37.7"/>
<polygon fill="none" stroke="#000000" points="345,-37.7 345,-56.7 419,-56.7 419,-37.7 345,-37.7"/>
<text text-anchor="start" x="409.8862" y="-43.8" font-family="Helvetica,sans-Serif" font-size="11.00" fill="#000000"> &#160;</text>
<polygon fill="#ffffff" stroke="transparent" points="419,-37.7 419,-56.7 493,-56.7 493,-37.7 419,-37.7"/>
<polygon fill="none" stroke="#000000" points="419,-37.7 419,-56.7 493,-56.7 493,-37.7 419,-37.7"/>
<text text-anchor="start" x="483.8862" y="-43.8" font-family="Helvetica,sans-Serif" font-size="11.00" fill="#000000"> &#160;</text>
</a>
</g>
</g>
<!-- temporary_absence_occurrence_audit&#45;&gt;audit_revision -->
<g id="edge4" class="edge">
<title>temporary_absence_occurrence_audit:w&#45;&gt;audit_revision:e</title>
<path fill="none" stroke="#000000" d="M185.5916,-68.99C150.6655,-88.5504 196.5372,-188.7 142,-188.7"/>
<polygon fill="#000000" stroke="#000000" points="192.2007,-67.4809 200.8014,-69.2097 196.1004,-66.5904 200,-65.7 200,-65.7 200,-65.7 196.1004,-66.5904 199.1986,-62.1903 192.2007,-67.4809 192.2007,-67.4809"/>
<ellipse fill="none" stroke="#000000" cx="189.081" cy="-68.1932" rx="3.2" ry="3.2"/>
</g>
</g>
</svg>
