<?xml version="1.0" encoding="UTF-8" standalone="no"?>
<!DOCTYPE svg PUBLIC "-//W3C//DTD SVG 1.1//EN"
 "http://www.w3.org/Graphics/SVG/1.1/DTD/svg11.dtd">
<!-- Generated by graphviz version 2.40.1 (20161225.0304)
 -->
<!-- Title: twoDegreesRelationshipsDiagram Pages: 1 -->
<svg width="517pt" height="519pt"
 viewBox="0.00 0.00 517.00 518.70" xmlns="http://www.w3.org/2000/svg" xmlns:xlink="http://www.w3.org/1999/xlink">
<g id="graph0" class="graph" transform="scale(1 1) rotate(0) translate(4 514.7)">
<title>twoDegreesRelationshipsDiagram</title>
<polygon fill="#ffffff" stroke="transparent" points="-4,4 -4,-514.7 513,-514.7 513,4 -4,4"/>
<text text-anchor="middle" x="72.4936" y="-7.3" font-family="Helvetica,sans-Serif" font-size="11.00" fill="#000000">Generated by SchemaSpy</text>
<!-- hmpps_domain_event_audit -->
<g id="node1" class="node">
<title>hmpps_domain_event_audit</title>
<g id="a_node1"><a xlink:href="../../tables/hmpps_domain_event_audit.html" xlink:title="hmpps_domain_event_audit" target="_top">
<polygon fill="#ffffff" stroke="transparent" points="191,-284.7 191,-506.7 501,-506.7 501,-284.7 191,-284.7"/>
<polygon fill="#f5f5f5" stroke="transparent" points="193,-481.7 193,-504.7 499,-504.7 499,-481.7 193,-481.7"/>
<polygon fill="none" stroke="#000000" points="193,-481.7 193,-504.7 499,-504.7 499,-481.7 193,-481.7"/>
<text text-anchor="start" x="198" y="-490.3" font-family="Helvetica,sans-Serif" font-weight="bold" font-size="11.00" fill="#000000">hmpps_domain_event_audit</text>
<text text-anchor="start" x="464.0437" y="-489.8" font-family="Helvetica,sans-Serif" font-size="11.00" fill="#000000">[table]</text>
<polygon fill="none" stroke="#000000" points="193,-459.7 193,-481.7 400,-481.7 400,-459.7 193,-459.7"/>
<image xlink:href="../../images/primaryKeys.png" width="11px" height="12px" preserveAspectRatio="xMinYMin meet" x="198" y="-476.7"/>
<text text-anchor="start" x="213" y="-466.8" font-family="Helvetica,sans-Serif" font-size="11.00" fill="#000000">rev_id</text>
<polygon fill="none" stroke="#000000" points="400,-459.7 400,-481.7 499,-481.7 499,-459.7 400,-459.7"/>
<text text-anchor="start" x="403" y="-467.4" font-family="Helvetica,sans-Serif" font-size="11.00" fill="#000000">int8[19]</text>
<polygon fill="#ffffff" stroke="transparent" points="193,-437.7 193,-459.7 400,-459.7 400,-437.7 193,-437.7"/>
<polygon fill="none" stroke="#000000" points="193,-437.7 193,-459.7 400,-459.7 400,-437.7 193,-437.7"/>
<text text-anchor="start" x="213" y="-444.8" font-family="Helvetica,sans-Serif" font-size="11.00" fill="#000000">rev_type</text>
<polygon fill="none" stroke="#000000" points="400,-437.7 400,-459.7 499,-459.7 499,-437.7 400,-437.7"/>
<text text-anchor="start" x="403" y="-445.4" font-family="Helvetica,sans-Serif" font-size="11.00" fill="#000000">int2[5]</text>
<polygon fill="none" stroke="#000000" points="193,-415.7 193,-437.7 400,-437.7 400,-415.7 193,-415.7"/>
<image xlink:href="../../images/primaryKeys.png" width="11px" height="12px" preserveAspectRatio="xMinYMin meet" x="198" y="-432.7"/>
<text text-anchor="start" x="213" y="-422.8" font-family="Helvetica,sans-Serif" font-size="11.00" fill="#000000">id</text>
<polygon fill="none" stroke="#000000" points="400,-415.7 400,-437.7 499,-437.7 499,-415.7 400,-415.7"/>
<text text-anchor="start" x="403" y="-423.4" font-family="Helvetica,sans-Serif" font-size="11.00" fill="#000000">uuid[2147483647]</text>
<polygon fill="none" stroke="#000000" points="193,-393.7 193,-415.7 400,-415.7 400,-393.7 193,-393.7"/>
<text text-anchor="start" x="213" y="-400.8" font-family="Helvetica,sans-Serif" font-size="11.00" fill="#000000">event_type</text>
<polygon fill="none" stroke="#000000" points="400,-393.7 400,-415.7 499,-415.7 499,-393.7 400,-393.7"/>
<text text-anchor="start" x="403" y="-401.4" font-family="Helvetica,sans-Serif" font-size="11.00" fill="#000000">text[2147483647]</text>
<polygon fill="none" stroke="#000000" points="193,-371.7 193,-393.7 400,-393.7 400,-371.7 193,-371.7"/>
<text text-anchor="start" x="213" y="-378.8" font-family="Helvetica,sans-Serif" font-size="11.00" fill="#000000">event</text>
<polygon fill="none" stroke="#000000" points="400,-371.7 400,-393.7 499,-393.7 499,-371.7 400,-371.7"/>
<text text-anchor="start" x="402.7258" y="-379.4" font-family="Helvetica,sans-Serif" font-size="11.00" fill="#000000">jsonb[2147483647]</text>
<polygon fill="none" stroke="#000000" points="193,-349.7 193,-371.7 400,-371.7 400,-349.7 193,-349.7"/>
<text text-anchor="start" x="213" y="-356.8" font-family="Helvetica,sans-Serif" font-size="11.00" fill="#000000">published</text>
<polygon fill="none" stroke="#000000" points="400,-349.7 400,-371.7 499,-371.7 499,-349.7 400,-349.7"/>
<text text-anchor="start" x="403" y="-357.4" font-family="Helvetica,sans-Serif" font-size="11.00" fill="#000000">bool[1]</text>
<polygon fill="none" stroke="#000000" points="193,-327.7 193,-349.7 400,-349.7 400,-327.7 193,-327.7"/>
<text text-anchor="start" x="213" y="-334.8" font-family="Helvetica,sans-Serif" font-size="11.00" fill="#000000">version</text>
<polygon fill="none" stroke="#000000" points="400,-327.7 400,-349.7 499,-349.7 499,-327.7 400,-327.7"/>
<text text-anchor="start" x="403" y="-335.4" font-family="Helvetica,sans-Serif" font-size="11.00" fill="#000000">int4[10]</text>
<polygon fill="#ffffff" stroke="transparent" points="193,-305.7 193,-327.7 400,-327.7 400,-305.7 193,-305.7"/>
<polygon fill="none" stroke="#000000" points="193,-305.7 193,-327.7 400,-327.7 400,-305.7 193,-305.7"/>
<text text-anchor="start" x="213" y="-312.8" font-family="Helvetica,sans-Serif" font-size="11.00" fill="#000000">entity_id</text>
<polygon fill="none" stroke="#000000" points="400,-305.7 400,-327.7 499,-327.7 499,-305.7 400,-305.7"/>
<text text-anchor="start" x="403" y="-313.4" font-family="Helvetica,sans-Serif" font-size="11.00" fill="#000000">uuid[2147483647]</text>
<polygon fill="#ffffff" stroke="transparent" points="193,-286.7 193,-305.7 301,-305.7 301,-286.7 193,-286.7"/>
<polygon fill="none" stroke="#000000" points="193,-286.7 193,-305.7 301,-305.7 301,-286.7 193,-286.7"/>
<text text-anchor="start" x="196" y="-292.8" font-family="Helvetica,sans-Serif" font-size="11.00" fill="#000000">&lt; 1</text>
<polygon fill="#ffffff" stroke="transparent" points="301,-286.7 301,-305.7 400,-305.7 400,-286.7 301,-286.7"/>
<polygon fill="none" stroke="#000000" points="301,-286.7 301,-305.7 400,-305.7 400,-286.7 301,-286.7"/>
<text text-anchor="start" x="390.8862" y="-292.8" font-family="Helvetica,sans-Serif" font-size="11.00" fill="#000000"> &#160;</text>
<polygon fill="#ffffff" stroke="transparent" points="400,-286.7 400,-305.7 499,-305.7 499,-286.7 400,-286.7"/>
<polygon fill="none" stroke="#000000" points="400,-286.7 400,-305.7 499,-305.7 499,-286.7 400,-286.7"/>
<text text-anchor="start" x="480.4053" y="-292.8" font-family="Helvetica,sans-Serif" font-size="11.00" fill="#000000">0 &gt;</text>
<polygon fill="none" stroke="#000000" stroke-width="2" points="192,-285.7 192,-505.7 500,-505.7 500,-285.7 192,-285.7"/>
</a>
</g>
</g>
<!-- audit_revision -->
<g id="node2" class="node">
<title>audit_revision</title>
<g id="a_node2"><a xlink:href="../../tables/audit_revision.html" xlink:title="audit_revision" target="_top">
<polygon fill="#ffffff" stroke="transparent" points="8,-140.2 8,-223.2 142,-223.2 142,-140.2 8,-140.2"/>
<polygon fill="#f5f5f5" stroke="transparent" points="8,-199.7 8,-222.7 142,-222.7 142,-199.7 8,-199.7"/>
<polygon fill="none" stroke="#000000" points="8,-199.7 8,-222.7 142,-222.7 142,-199.7 8,-199.7"/>
<text text-anchor="start" x="13" y="-208.3" font-family="Helvetica,sans-Serif" font-weight="bold" font-size="11.00" fill="#000000">audit_revision</text>
<text text-anchor="start" x="107.5219" y="-207.8" font-family="Helvetica,sans-Serif" font-size="11.00" fill="#000000">[table]</text>
<polygon fill="none" stroke="#000000" points="8,-177.7 8,-199.7 142,-199.7 142,-177.7 8,-177.7"/>
<image xlink:href="../../images/primaryKeys.png" width="11px" height="12px" preserveAspectRatio="xMinYMin meet" x="13" y="-194.7"/>
<text text-anchor="start" x="28" y="-184.8" font-family="Helvetica,sans-Serif" font-size="11.00" fill="#000000">id</text>
<polygon fill="none" stroke="#000000" points="8,-158.7 8,-177.7 142,-177.7 142,-158.7 8,-158.7"/>
<text text-anchor="start" x="11" y="-164.8" font-family="Helvetica,sans-Serif" font-size="11.00" fill="#000000">...</text>
<polygon fill="#ffffff" stroke="transparent" points="8,-139.7 8,-158.7 64,-158.7 64,-139.7 8,-139.7"/>
<polygon fill="none" stroke="#000000" points="8,-139.7 8,-158.7 64,-158.7 64,-139.7 8,-139.7"/>
<text text-anchor="start" x="11" y="-145.8" font-family="Helvetica,sans-Serif" font-size="11.00" fill="#000000"> &#160;</text>
<polygon fill="#ffffff" stroke="transparent" points="64,-139.7 64,-158.7 98,-158.7 98,-139.7 64,-139.7"/>
<polygon fill="none" stroke="#000000" points="64,-139.7 64,-158.7 98,-158.7 98,-139.7 64,-139.7"/>
<text text-anchor="start" x="88.8862" y="-145.8" font-family="Helvetica,sans-Serif" font-size="11.00" fill="#000000"> &#160;</text>
<polygon fill="#ffffff" stroke="transparent" points="98,-139.7 98,-158.7 142,-158.7 142,-139.7 98,-139.7"/>
<polygon fill="none" stroke="#000000" points="98,-139.7 98,-158.7 142,-158.7 142,-139.7 98,-139.7"/>
<text text-anchor="start" x="123.4053" y="-145.8" font-family="Helvetica,sans-Serif" font-size="11.00" fill="#000000">4 &gt;</text>
</a>
</g>
</g>
<!-- hmpps_domain_event_audit&#45;&gt;audit_revision -->
<g id="edge1" class="edge">
<title>hmpps_domain_event_audit:w&#45;&gt;audit_revision:e</title>
<path fill="none" stroke="#000000" d="M179.5068,-464.81C141.4079,-424.3139 200.2105,-188.7 142,-188.7"/>
<polygon fill="#000000" stroke="#000000" points="185.6681,-467.4995 191.5598,-473.9994 189.334,-469.0997 193,-470.7 193,-470.7 193,-470.7 189.334,-469.0997 194.4402,-467.4006 185.6681,-467.4995 185.6681,-467.4995"/>
<ellipse fill="none" stroke="#000000" cx="182.7353" cy="-466.2193" rx="3.2" ry="3.2"/>
</g>
<!-- tap.authorisation_audit -->
<g id="node3" class="node">
<title>tap.authorisation_audit</title>
<g id="a_node3"><a xlink:title="tap.authorisation_audit">
<polygon fill="#ffffff" stroke="transparent" points="247,-202.2 247,-263.2 445,-263.2 445,-202.2 247,-202.2"/>
<polygon fill="#f5f5f5" stroke="transparent" points="247,-239.7 247,-262.7 445,-262.7 445,-239.7 247,-239.7"/>
<polygon fill="none" stroke="#000000" points="247,-239.7 247,-262.7 445,-262.7 445,-239.7 247,-239.7"/>
<text text-anchor="start" x="252" y="-248.3" font-family="Helvetica,sans-Serif" font-weight="bold" font-size="11.00" fill="#000000">tap.authorisation_audit</text>
<text text-anchor="start" x="410.5219" y="-247.8" font-family="Helvetica,sans-Serif" font-size="11.00" fill="#000000">[table]</text>
<polygon fill="none" stroke="#000000" points="247,-220.7 247,-239.7 445,-239.7 445,-220.7 247,-220.7"/>
<text text-anchor="start" x="250" y="-226.8" font-family="Helvetica,sans-Serif" font-size="11.00" fill="#000000">...</text>
<polygon fill="#ffffff" stroke="transparent" points="247,-201.7 247,-220.7 331,-220.7 331,-201.7 247,-201.7"/>
<polygon fill="none" stroke="#000000" points="247,-201.7 247,-220.7 331,-220.7 331,-201.7 247,-201.7"/>
<text text-anchor="start" x="250" y="-207.8" font-family="Helvetica,sans-Serif" font-size="11.00" fill="#000000">&lt; 1</text>
<polygon fill="#ffffff" stroke="transparent" points="331,-201.7 331,-220.7 401,-220.7 401,-201.7 331,-201.7"/>
<polygon fill="none" stroke="#000000" points="331,-201.7 331,-220.7 401,-220.7 401,-201.7 331,-201.7"/>
<text text-anchor="start" x="365.6105" y="-207.8" font-family="Helvetica,sans-Serif" font-size="11.00" fill="#000000">0 rows</text>
<polygon fill="#ffffff" stroke="transparent" points="401,-201.7 401,-220.7 445,-220.7 445,-201.7 401,-201.7"/>
<polygon fill="none" stroke="#000000" points="401,-201.7 401,-220.7 445,-220.7 445,-201.7 401,-201.7"/>
<text text-anchor="start" x="435.8862" y="-207.8" font-family="Helvetica,sans-Serif" font-size="11.00" fill="#000000"> &#160;</text>
</a>
</g>
</g>
<!-- tap.authorisation_audit&#45;&gt;audit_revision -->
<g id="edge2" class="edge">
<title>tap.authorisation_audit:w&#45;&gt;audit_revision:e</title>
<path fill="none" stroke="#000000" d="M232.5539,-228.428C195.3847,-221.5076 186.8144,-188.7 142,-188.7"/>
<polygon fill="#000000" stroke="#000000" points="239.0308,-228.9983 246.6842,-233.2861 243.0154,-229.3491 247,-229.7 247,-229.7 247,-229.7 243.0154,-229.3491 247.3158,-226.1139 239.0308,-228.9983 239.0308,-228.9983"/>
<ellipse fill="none" stroke="#000000" cx="235.8432" cy="-228.7176" rx="3.2" ry="3.2"/>
</g>
<!-- tap.movement_audit -->
<g id="node4" class="node">
<title>tap.movement_audit</title>
<g id="a_node4"><a xlink:title="tap.movement_audit">
<polygon fill="#ffffff" stroke="transparent" points="257,-120.2 257,-181.2 435,-181.2 435,-120.2 257,-120.2"/>
<polygon fill="#f5f5f5" stroke="transparent" points="257,-157.7 257,-180.7 435,-180.7 435,-157.7 257,-157.7"/>
<polygon fill="none" stroke="#000000" points="257,-157.7 257,-180.7 435,-180.7 435,-157.7 257,-157.7"/>
<text text-anchor="start" x="262" y="-166.3" font-family="Helvetica,sans-Serif" font-weight="bold" font-size="11.00" fill="#000000">tap.movement_audit</text>
<text text-anchor="start" x="400.5219" y="-165.8" font-family="Helvetica,sans-Serif" font-size="11.00" fill="#000000">[table]</text>
<polygon fill="none" stroke="#000000" points="257,-138.7 257,-157.7 435,-157.7 435,-138.7 257,-138.7"/>
<text text-anchor="start" x="260" y="-144.8" font-family="Helvetica,sans-Serif" font-size="11.00" fill="#000000">...</text>
<polygon fill="#ffffff" stroke="transparent" points="257,-119.7 257,-138.7 331,-138.7 331,-119.7 257,-119.7"/>
<polygon fill="none" stroke="#000000" points="257,-119.7 257,-138.7 331,-138.7 331,-119.7 257,-119.7"/>
<text text-anchor="start" x="260" y="-125.8" font-family="Helvetica,sans-Serif" font-size="11.00" fill="#000000">&lt; 1</text>
<polygon fill="#ffffff" stroke="transparent" points="331,-119.7 331,-138.7 396,-138.7 396,-119.7 331,-119.7"/>
<polygon fill="none" stroke="#000000" points="331,-119.7 331,-138.7 396,-138.7 396,-119.7 331,-119.7"/>
<text text-anchor="start" x="360.6105" y="-125.8" font-family="Helvetica,sans-Serif" font-size="11.00" fill="#000000">0 rows</text>
<polygon fill="#ffffff" stroke="transparent" points="396,-119.7 396,-138.7 435,-138.7 435,-119.7 396,-119.7"/>
<polygon fill="none" stroke="#000000" points="396,-119.7 396,-138.7 435,-138.7 435,-119.7 396,-119.7"/>
<text text-anchor="start" x="425.8862" y="-125.8" font-family="Helvetica,sans-Serif" font-size="11.00" fill="#000000"> &#160;</text>
</a>
</g>
</g>
<!-- tap.movement_audit&#45;&gt;audit_revision -->
<g id="edge3" class="edge">
<title>tap.movement_audit:w&#45;&gt;audit_revision:e</title>
<path fill="none" stroke="#000000" d="M242.381,-148.7967C201.0173,-155.3168 190.9632,-188.7 142,-188.7"/>
<polygon fill="#000000" stroke="#000000" points="249.0224,-148.2985 257.2693,-151.2899 253.0112,-147.9992 257,-147.7 257,-147.7 257,-147.7 253.0112,-147.9992 256.7307,-144.1101 249.0224,-148.2985 249.0224,-148.2985"/>
<ellipse fill="none" stroke="#000000" cx="245.8314" cy="-148.5379" rx="3.2" ry="3.2"/>
</g>
<!-- tap.occurrence_audit -->
<g id="node5" class="node">
<title>tap.occurrence_audit</title>
<g id="a_node5"><a xlink:title="tap.occurrence_audit">
<polygon fill="#ffffff" stroke="transparent" points="255.5,-38.2 255.5,-99.2 436.5,-99.2 436.5,-38.2 255.5,-38.2"/>
<polygon fill="#f5f5f5" stroke="transparent" points="256,-75.7 256,-98.7 437,-98.7 437,-75.7 256,-75.7"/>
<polygon fill="none" stroke="#000000" points="256,-75.7 256,-98.7 437,-98.7 437,-75.7 256,-75.7"/>
<text text-anchor="start" x="261" y="-84.3" font-family="Helvetica,sans-Serif" font-weight="bold" font-size="11.00" fill="#000000">tap.occurrence_audit</text>
<text text-anchor="start" x="402.5219" y="-83.8" font-family="Helvetica,sans-Serif" font-size="11.00" fill="#000000">[table]</text>
<polygon fill="none" stroke="#000000" points="256,-56.7 256,-75.7 437,-75.7 437,-56.7 256,-56.7"/>
<text text-anchor="start" x="259" y="-62.8" font-family="Helvetica,sans-Serif" font-size="11.00" fill="#000000">...</text>
<polygon fill="#ffffff" stroke="transparent" points="256,-37.7 256,-56.7 332,-56.7 332,-37.7 256,-37.7"/>
<polygon fill="none" stroke="#000000" points="256,-37.7 256,-56.7 332,-56.7 332,-37.7 256,-37.7"/>
<text text-anchor="start" x="259" y="-43.8" font-family="Helvetica,sans-Serif" font-size="11.00" fill="#000000">&lt; 1</text>
<polygon fill="#ffffff" stroke="transparent" points="332,-37.7 332,-56.7 397,-56.7 397,-37.7 332,-37.7"/>
<polygon fill="none" stroke="#000000" points="332,-37.7 332,-56.7 397,-56.7 397,-37.7 332,-37.7"/>
<text text-anchor="start" x="361.6105" y="-43.8" font-family="Helvetica,sans-Serif" font-size="11.00" fill="#000000">0 rows</text>
<polygon fill="#ffffff" stroke="transparent" points="397,-37.7 397,-56.7 437,-56.7 437,-37.7 397,-37.7"/>
<polygon fill="none" stroke="#000000" points="397,-37.7 397,-56.7 437,-56.7 437,-37.7 397,-37.7"/>
<text text-anchor="start" x="427.8862" y="-43.8" font-family="Helvetica,sans-Serif" font-size="11.00" fill="#000000"> &#160;</text>
</a>
</g>
</g>
<!-- tap.occurrence_audit&#45;&gt;audit_revision -->
<g id="edge4" class="edge">
<title>tap.occurrence_audit:w&#45;&gt;audit_revision:e</title>
<path fill="none" stroke="#000000" d="M241.5939,-66.6571C215.2002,-70.5276 205.275,-85.9586 183,-109.7 155.9333,-138.5485 181.5581,-188.7 142,-188.7"/>
<polygon fill="#000000" stroke="#000000" points="248.0176,-66.2304 256.2387,-69.2921 252.0088,-65.9652 256,-65.7 256,-65.7 256,-65.7 252.0088,-65.9652 255.7613,-62.1079 248.0176,-66.2304 248.0176,-66.2304"/>
<ellipse fill="none" stroke="#000000" cx="244.8246" cy="-66.4426" rx="3.2" ry="3.2"/>
</g>
</g>
</svg>
