<?xml version="1.0" encoding="UTF-8" standalone="no"?>
<!DOCTYPE svg PUBLIC "-//W3C//DTD SVG 1.1//EN"
 "http://www.w3.org/Graphics/SVG/1.1/DTD/svg11.dtd">
<!-- Generated by graphviz version 2.40.1 (20161225.0304)
 -->
<!-- Title: twoDegreesRelationshipsDiagramImplied Pages: 1 -->
<svg width="1182pt" height="1076pt"
 viewBox="0.00 0.00 1182.00 1075.70" xmlns="http://www.w3.org/2000/svg" xmlns:xlink="http://www.w3.org/1999/xlink">
<g id="graph0" class="graph" transform="scale(1 1) rotate(0) translate(4 1071.7)">
<title>twoDegreesRelationshipsDiagramImplied</title>
<polygon fill="#ffffff" stroke="transparent" points="-4,4 -4,-1071.7 1178,-1071.7 1178,4 -4,4"/>
<text text-anchor="middle" x="72.4936" y="-7.3" font-family="Helvetica,sans-Serif" font-size="11.00" fill="#000000">Generated by SchemaSpy</text>
<!-- audited_tap_authorisation -->
<g id="node1" class="node">
<title>audited_tap_authorisation</title>
<g id="a_node1"><a xlink:href="../../tables/audited_tap_authorisation.html" xlink:title="audited_tap_authorisation" target="_top">
<polygon fill="#ffffff" stroke="transparent" points="305,-999.7 305,-1063.7 520,-1063.7 520,-999.7 305,-999.7"/>
<polygon fill="#f5f5f5" stroke="transparent" points="305.5,-1040.7 305.5,-1063.7 520.5,-1063.7 520.5,-1040.7 305.5,-1040.7"/>
<polygon fill="none" stroke="#000000" points="305.5,-1040.7 305.5,-1063.7 520.5,-1063.7 520.5,-1040.7 305.5,-1040.7"/>
<text text-anchor="start" x="310.5" y="-1049.3" font-family="Helvetica,sans-Serif" font-weight="bold" font-size="11.00" fill="#000000">audited_tap_authorisation</text>
<text text-anchor="start" x="487.4448" y="-1048.8" font-family="Helvetica,sans-Serif" font-size="11.00" fill="#000000">[view]</text>
<polygon fill="none" stroke="#000000" points="305.5,-1018.7 305.5,-1040.7 520.5,-1040.7 520.5,-1018.7 305.5,-1018.7"/>
<image xlink:href="../../images/foreignKeys.png" width="11px" height="12px" preserveAspectRatio="xMinYMin meet" x="310.5" y="-1035.7"/>
<text text-anchor="start" x="326.5" y="-1025.8" font-family="Helvetica,sans-Serif" font-size="11.00" fill="#000000">person_identifier</text>
<polygon fill="none" stroke="#000000" points="305.5,-999.7 305.5,-1018.7 520.5,-1018.7 520.5,-999.7 305.5,-999.7"/>
<text text-anchor="start" x="308.5" y="-1005.8" font-family="Helvetica,sans-Serif" font-size="11.00" fill="#000000">...</text>
</a>
</g>
</g>
<!-- person_summary -->
<g id="node2" class="node">
<title>person_summary</title>
<g id="a_node2"><a xlink:href="../../tables/person_summary.html" xlink:title="person_summary" target="_top">
<polygon fill="#ffffff" stroke="transparent" points="8,-745.7 8,-923.7 209,-923.7 209,-745.7 8,-745.7"/>
<polygon fill="#f5f5f5" stroke="transparent" points="10.5,-898.7 10.5,-921.7 207.5,-921.7 207.5,-898.7 10.5,-898.7"/>
<polygon fill="none" stroke="#000000" points="10.5,-898.7 10.5,-921.7 207.5,-921.7 207.5,-898.7 10.5,-898.7"/>
<text text-anchor="start" x="15.5" y="-907.3" font-family="Helvetica,sans-Serif" font-weight="bold" font-size="11.00" fill="#000000">person_summary</text>
<text text-anchor="start" x="172.5437" y="-906.8" font-family="Helvetica,sans-Serif" font-size="11.00" fill="#000000">[table]</text>
<polygon fill="none" stroke="#000000" points="10.5,-876.7 10.5,-898.7 146.5,-898.7 146.5,-876.7 10.5,-876.7"/>
<image xlink:href="../../images/primaryKeys.png" width="11px" height="12px" preserveAspectRatio="xMinYMin meet" x="15.5" y="-893.7"/>
<text text-anchor="start" x="30.5" y="-883.8" font-family="Helvetica,sans-Serif" font-size="11.00" fill="#000000">person_identifier</text>
<polygon fill="none" stroke="#000000" points="146.5,-876.7 146.5,-898.7 207.5,-898.7 207.5,-876.7 146.5,-876.7"/>
<text text-anchor="start" x="149.494" y="-884.4" font-family="Helvetica,sans-Serif" font-size="11.00" fill="#000000">varchar[10]</text>
<polygon fill="none" stroke="#000000" points="10.5,-854.7 10.5,-876.7 146.5,-876.7 146.5,-854.7 10.5,-854.7"/>
<text text-anchor="start" x="30.5" y="-861.8" font-family="Helvetica,sans-Serif" font-size="11.00" fill="#000000">first_name</text>
<polygon fill="none" stroke="#000000" points="146.5,-854.7 146.5,-876.7 207.5,-876.7 207.5,-854.7 146.5,-854.7"/>
<text text-anchor="start" x="149.494" y="-862.4" font-family="Helvetica,sans-Serif" font-size="11.00" fill="#000000">varchar[64]</text>
<polygon fill="none" stroke="#000000" points="10.5,-832.7 10.5,-854.7 146.5,-854.7 146.5,-832.7 10.5,-832.7"/>
<text text-anchor="start" x="30.5" y="-839.8" font-family="Helvetica,sans-Serif" font-size="11.00" fill="#000000">last_name</text>
<polygon fill="none" stroke="#000000" points="146.5,-832.7 146.5,-854.7 207.5,-854.7 207.5,-832.7 146.5,-832.7"/>
<text text-anchor="start" x="149.494" y="-840.4" font-family="Helvetica,sans-Serif" font-size="11.00" fill="#000000">varchar[64]</text>
<polygon fill="none" stroke="#000000" points="10.5,-810.7 10.5,-832.7 146.5,-832.7 146.5,-810.7 10.5,-810.7"/>
<text text-anchor="start" x="30.5" y="-817.8" font-family="Helvetica,sans-Serif" font-size="11.00" fill="#000000">date_of_birth</text>
<polygon fill="none" stroke="#000000" points="146.5,-810.7 146.5,-832.7 207.5,-832.7 207.5,-810.7 146.5,-810.7"/>
<text text-anchor="start" x="149.5" y="-818.4" font-family="Helvetica,sans-Serif" font-size="11.00" fill="#000000">date[13]</text>
<polygon fill="none" stroke="#000000" points="10.5,-788.7 10.5,-810.7 146.5,-810.7 146.5,-788.7 10.5,-788.7"/>
<text text-anchor="start" x="30.5" y="-795.8" font-family="Helvetica,sans-Serif" font-size="11.00" fill="#000000">cell_location</text>
<polygon fill="none" stroke="#000000" points="146.5,-788.7 146.5,-810.7 207.5,-810.7 207.5,-788.7 146.5,-788.7"/>
<text text-anchor="start" x="149.494" y="-796.4" font-family="Helvetica,sans-Serif" font-size="11.00" fill="#000000">varchar[64]</text>
<polygon fill="none" stroke="#000000" points="10.5,-766.7 10.5,-788.7 146.5,-788.7 146.5,-766.7 10.5,-766.7"/>
<text text-anchor="start" x="30.5" y="-773.8" font-family="Helvetica,sans-Serif" font-size="11.00" fill="#000000">version</text>
<polygon fill="none" stroke="#000000" points="146.5,-766.7 146.5,-788.7 207.5,-788.7 207.5,-766.7 146.5,-766.7"/>
<text text-anchor="start" x="149.5" y="-774.4" font-family="Helvetica,sans-Serif" font-size="11.00" fill="#000000">int4[10]</text>
<polygon fill="#ffffff" stroke="transparent" points="10.5,-747.7 10.5,-766.7 82.5,-766.7 82.5,-747.7 10.5,-747.7"/>
<polygon fill="none" stroke="#000000" points="10.5,-747.7 10.5,-766.7 82.5,-766.7 82.5,-747.7 10.5,-747.7"/>
<text text-anchor="start" x="13.5" y="-753.8" font-family="Helvetica,sans-Serif" font-size="11.00" fill="#000000">&lt; 0</text>
<polygon fill="#ffffff" stroke="transparent" points="82.5,-747.7 82.5,-766.7 146.5,-766.7 146.5,-747.7 82.5,-747.7"/>
<polygon fill="none" stroke="#000000" points="82.5,-747.7 82.5,-766.7 146.5,-766.7 146.5,-747.7 82.5,-747.7"/>
<text text-anchor="start" x="137.3862" y="-753.8" font-family="Helvetica,sans-Serif" font-size="11.00" fill="#000000"> &#160;</text>
<polygon fill="#ffffff" stroke="transparent" points="146.5,-747.7 146.5,-766.7 207.5,-766.7 207.5,-747.7 146.5,-747.7"/>
<polygon fill="none" stroke="#000000" points="146.5,-747.7 146.5,-766.7 207.5,-766.7 207.5,-747.7 146.5,-747.7"/>
<text text-anchor="start" x="188.9053" y="-753.8" font-family="Helvetica,sans-Serif" font-size="11.00" fill="#000000">6 &gt;</text>
<polygon fill="none" stroke="#000000" stroke-width="2" points="9,-746.7 9,-922.7 208,-922.7 208,-746.7 9,-746.7"/>
</a>
</g>
</g>
<!-- audited_tap_authorisation&#45;&gt;person_summary -->
<g id="edge1" class="edge">
<title>audited_tap_authorisation:w&#45;&gt;person_summary:e</title>
<path fill="none" stroke="#000000" stroke-dasharray="5,2" d="M290.9725,-1028.1169C272.39,-1023.502 265.4255,-1009.1486 250,-989.7 219.4817,-951.2223 256.6111,-887.7 207.5,-887.7"/>
<polygon fill="#000000" stroke="#000000" points="297.5471,-1028.8333 305.11,-1033.2788 301.5235,-1029.2667 305.5,-1029.7 305.5,-1029.7 305.5,-1029.7 301.5235,-1029.2667 305.89,-1026.1212 297.5471,-1028.8333 297.5471,-1028.8333"/>
<ellipse fill="none" stroke="#000000" cx="294.3659" cy="-1028.4866" rx="3.2" ry="3.2"/>
</g>
<!-- audited_tap_movement -->
<g id="node3" class="node">
<title>audited_tap_movement</title>
<g id="a_node3"><a xlink:href="../../tables/audited_tap_movement.html" xlink:title="audited_tap_movement" target="_top">
<polygon fill="#ffffff" stroke="transparent" points="308.5,-914.7 308.5,-978.7 516.5,-978.7 516.5,-914.7 308.5,-914.7"/>
<polygon fill="#f5f5f5" stroke="transparent" points="308.5,-955.7 308.5,-978.7 516.5,-978.7 516.5,-955.7 308.5,-955.7"/>
<polygon fill="none" stroke="#000000" points="308.5,-955.7 308.5,-978.7 516.5,-978.7 516.5,-955.7 308.5,-955.7"/>
<text text-anchor="start" x="313.5" y="-964.3" font-family="Helvetica,sans-Serif" font-weight="bold" font-size="11.00" fill="#000000">audited_tap_movement</text>
<text text-anchor="start" x="483.3895" y="-963.8" font-family="Helvetica,sans-Serif" font-size="11.00" fill="#000000">[view]</text>
<polygon fill="none" stroke="#000000" points="308.5,-933.7 308.5,-955.7 516.5,-955.7 516.5,-933.7 308.5,-933.7"/>
<image xlink:href="../../images/foreignKeys.png" width="11px" height="12px" preserveAspectRatio="xMinYMin meet" x="313.5" y="-950.7"/>
<text text-anchor="start" x="328.5" y="-940.8" font-family="Helvetica,sans-Serif" font-size="11.00" fill="#000000">person_identifier</text>
<polygon fill="none" stroke="#000000" points="308.5,-914.7 308.5,-933.7 516.5,-933.7 516.5,-914.7 308.5,-914.7"/>
<text text-anchor="start" x="311.5" y="-920.8" font-family="Helvetica,sans-Serif" font-size="11.00" fill="#000000">...</text>
</a>
</g>
</g>
<!-- audited_tap_movement&#45;&gt;person_summary -->
<g id="edge2" class="edge">
<title>audited_tap_movement:w&#45;&gt;person_summary:e</title>
<path fill="none" stroke="#000000" stroke-dasharray="5,2" d="M293.8551,-942.9316C256.7998,-933.3106 253.6078,-887.7 207.5,-887.7"/>
<polygon fill="#000000" stroke="#000000" points="300.5577,-943.7409 308.0684,-948.274 304.5288,-944.2205 308.5,-944.7 308.5,-944.7 308.5,-944.7 304.5288,-944.2205 308.9316,-941.126 300.5577,-943.7409 300.5577,-943.7409"/>
<ellipse fill="none" stroke="#000000" cx="297.3808" cy="-943.3573" rx="3.2" ry="3.2"/>
</g>
<!-- temporary_absence_authorisation -->
<g id="node4" class="node">
<title>temporary_absence_authorisation</title>
<g id="a_node4"><a xlink:href="../../tables/temporary_absence_authorisation.html" xlink:title="temporary_absence_authorisation" target="_top">
<polygon fill="#ffffff" stroke="transparent" points="278.5,-245.2 278.5,-570.2 546.5,-570.2 546.5,-245.2 278.5,-245.2"/>
<polygon fill="#f5f5f5" stroke="transparent" points="278.5,-546.7 278.5,-569.7 546.5,-569.7 546.5,-546.7 278.5,-546.7"/>
<polygon fill="none" stroke="#000000" points="278.5,-546.7 278.5,-569.7 546.5,-569.7 546.5,-546.7 278.5,-546.7"/>
<text text-anchor="start" x="283.5" y="-555.3" font-family="Helvetica,sans-Serif" font-weight="bold" font-size="11.00" fill="#000000">temporary_absence_authorisation</text>
<text text-anchor="start" x="512.0219" y="-554.8" font-family="Helvetica,sans-Serif" font-size="11.00" fill="#000000">[table]</text>
<polygon fill="none" stroke="#000000" points="278.5,-524.7 278.5,-546.7 546.5,-546.7 546.5,-524.7 278.5,-524.7"/>
<image xlink:href="../../images/primaryKeys.png" width="11px" height="12px" preserveAspectRatio="xMinYMin meet" x="283.5" y="-541.7"/>
<text text-anchor="start" x="307.5" y="-531.8" font-family="Helvetica,sans-Serif" font-size="11.00" fill="#000000">id</text>
<polygon fill="#ffffff" stroke="transparent" points="278.5,-502.7 278.5,-524.7 546.5,-524.7 546.5,-502.7 278.5,-502.7"/>
<polygon fill="none" stroke="#000000" points="278.5,-502.7 278.5,-524.7 546.5,-524.7 546.5,-502.7 278.5,-502.7"/>
<image xlink:href="../../images/foreignKeys.png" width="11px" height="12px" preserveAspectRatio="xMinYMin meet" x="283.5" y="-519.7"/>
<text text-anchor="start" x="307.5" y="-509.8" font-family="Helvetica,sans-Serif" font-size="11.00" fill="#000000">person_identifier</text>
<polygon fill="#ffffff" stroke="transparent" points="278.5,-480.7 278.5,-502.7 546.5,-502.7 546.5,-480.7 278.5,-480.7"/>
<polygon fill="none" stroke="#000000" points="278.5,-480.7 278.5,-502.7 546.5,-502.7 546.5,-480.7 278.5,-480.7"/>
<text text-anchor="start" x="307.5" y="-487.8" font-family="Helvetica,sans-Serif" font-size="11.00" fill="#000000">prison_code</text>
<polygon fill="none" stroke="#000000" points="278.5,-458.7 278.5,-480.7 546.5,-480.7 546.5,-458.7 278.5,-458.7"/>
<image xlink:href="../../images/foreignKeys.png" width="11px" height="12px" preserveAspectRatio="xMinYMin meet" x="283.5" y="-475.7"/>
<text text-anchor="start" x="307.5" y="-465.8" font-family="Helvetica,sans-Serif" font-size="11.00" fill="#000000">absence_type_id</text>
<polygon fill="none" stroke="#000000" points="278.5,-436.7 278.5,-458.7 546.5,-458.7 546.5,-436.7 278.5,-436.7"/>
<image xlink:href="../../images/foreignKeys.png" width="11px" height="12px" preserveAspectRatio="xMinYMin meet" x="283.5" y="-453.7"/>
<text text-anchor="start" x="307.5" y="-443.8" font-family="Helvetica,sans-Serif" font-size="11.00" fill="#000000">absence_sub_type_id</text>
<polygon fill="none" stroke="#000000" points="278.5,-414.7 278.5,-436.7 546.5,-436.7 546.5,-414.7 278.5,-414.7"/>
<image xlink:href="../../images/foreignKeys.png" width="11px" height="12px" preserveAspectRatio="xMinYMin meet" x="283.5" y="-431.7"/>
<text text-anchor="start" x="307.5" y="-421.8" font-family="Helvetica,sans-Serif" font-size="11.00" fill="#000000">absence_reason_id</text>
<polygon fill="#ffffff" stroke="transparent" points="278.5,-392.7 278.5,-414.7 546.5,-414.7 546.5,-392.7 278.5,-392.7"/>
<polygon fill="none" stroke="#000000" points="278.5,-392.7 278.5,-414.7 546.5,-414.7 546.5,-392.7 278.5,-392.7"/>
<image xlink:href="../../images/foreignKeys.png" width="11px" height="12px" preserveAspectRatio="xMinYMin meet" x="283.5" y="-409.7"/>
<text text-anchor="start" x="307.5" y="-399.8" font-family="Helvetica,sans-Serif" font-size="11.00" fill="#000000">status_id</text>
<polygon fill="#ffffff" stroke="transparent" points="278.5,-370.7 278.5,-392.7 546.5,-392.7 546.5,-370.7 278.5,-370.7"/>
<polygon fill="none" stroke="#000000" points="278.5,-370.7 278.5,-392.7 546.5,-392.7 546.5,-370.7 278.5,-370.7"/>
<text text-anchor="start" x="307.5" y="-377.8" font-family="Helvetica,sans-Serif" font-size="11.00" fill="#000000">legacy_id</text>
<polygon fill="#ffffff" stroke="transparent" points="278.5,-348.7 278.5,-370.7 546.5,-370.7 546.5,-348.7 278.5,-348.7"/>
<polygon fill="none" stroke="#000000" points="278.5,-348.7 278.5,-370.7 546.5,-370.7 546.5,-348.7 278.5,-348.7"/>
<text text-anchor="start" x="307.5" y="-355.8" font-family="Helvetica,sans-Serif" font-size="11.00" fill="#000000">start</text>
<polygon fill="#ffffff" stroke="transparent" points="278.5,-326.7 278.5,-348.7 546.5,-348.7 546.5,-326.7 278.5,-326.7"/>
<polygon fill="none" stroke="#000000" points="278.5,-326.7 278.5,-348.7 546.5,-348.7 546.5,-326.7 278.5,-326.7"/>
<text text-anchor="start" x="307.5" y="-333.8" font-family="Helvetica,sans-Serif" font-size="11.00" fill="#000000">end</text>
<polygon fill="none" stroke="#000000" points="278.5,-304.7 278.5,-326.7 546.5,-326.7 546.5,-304.7 278.5,-304.7"/>
<image xlink:href="../../images/foreignKeys.png" width="11px" height="12px" preserveAspectRatio="xMinYMin meet" x="283.5" y="-321.7"/>
<text text-anchor="start" x="307.5" y="-311.8" font-family="Helvetica,sans-Serif" font-size="11.00" fill="#000000">absence_reason_category_id</text>
<polygon fill="none" stroke="#000000" points="278.5,-282.7 278.5,-304.7 546.5,-304.7 546.5,-282.7 278.5,-282.7"/>
<image xlink:href="../../images/foreignKeys.png" width="11px" height="12px" preserveAspectRatio="xMinYMin meet" x="283.5" y="-299.7"/>
<text text-anchor="start" x="307.5" y="-289.8" font-family="Helvetica,sans-Serif" font-size="11.00" fill="#000000">accompanied_by_id</text>
<polygon fill="none" stroke="#000000" points="278.5,-263.7 278.5,-282.7 546.5,-282.7 546.5,-263.7 278.5,-263.7"/>
<text text-anchor="start" x="281.5" y="-269.8" font-family="Helvetica,sans-Serif" font-size="11.00" fill="#000000">...</text>
<polygon fill="#ffffff" stroke="transparent" points="278.5,-244.7 278.5,-263.7 406.5,-263.7 406.5,-244.7 278.5,-244.7"/>
<polygon fill="none" stroke="#000000" points="278.5,-244.7 278.5,-263.7 406.5,-263.7 406.5,-244.7 278.5,-244.7"/>
<text text-anchor="start" x="281.5" y="-250.8" font-family="Helvetica,sans-Serif" font-size="11.00" fill="#000000">&lt; 7</text>
<polygon fill="#ffffff" stroke="transparent" points="406.5,-244.7 406.5,-263.7 471.5,-263.7 471.5,-244.7 406.5,-244.7"/>
<polygon fill="none" stroke="#000000" points="406.5,-244.7 406.5,-263.7 471.5,-263.7 471.5,-244.7 406.5,-244.7"/>
<text text-anchor="start" x="462.3862" y="-250.8" font-family="Helvetica,sans-Serif" font-size="11.00" fill="#000000"> &#160;</text>
<polygon fill="#ffffff" stroke="transparent" points="471.5,-244.7 471.5,-263.7 546.5,-263.7 546.5,-244.7 471.5,-244.7"/>
<polygon fill="none" stroke="#000000" points="471.5,-244.7 471.5,-263.7 546.5,-263.7 546.5,-244.7 471.5,-244.7"/>
<text text-anchor="start" x="527.9053" y="-250.8" font-family="Helvetica,sans-Serif" font-size="11.00" fill="#000000">1 &gt;</text>
</a>
</g>
</g>
<!-- temporary_absence_authorisation&#45;&gt;person_summary -->
<g id="edge8" class="edge">
<title>temporary_absence_authorisation:w&#45;&gt;person_summary:e</title>
<path fill="none" stroke="#000000" d="M264.6911,-517.9002C205.4644,-558.9891 286.8083,-887.7 207.5,-887.7"/>
<polygon fill="#000000" stroke="#000000" points="270.8462,-516.0281 279.5476,-517.1442 274.6731,-514.864 278.5,-513.7 278.5,-513.7 278.5,-513.7 274.6731,-514.864 277.4524,-510.2558 270.8462,-516.0281 270.8462,-516.0281"/>
<ellipse fill="none" stroke="#000000" cx="267.7847" cy="-516.9593" rx="3.2" ry="3.2"/>
</g>
<!-- reference_data -->
<g id="node5" class="node">
<title>reference_data</title>
<g id="a_node5"><a xlink:href="../../tables/reference_data.html" xlink:title="reference_data" target="_top">
<polygon fill="#ffffff" stroke="transparent" points="38.5,-157.2 38.5,-218.2 178.5,-218.2 178.5,-157.2 38.5,-157.2"/>
<polygon fill="#f5f5f5" stroke="transparent" points="38.5,-194.7 38.5,-217.7 178.5,-217.7 178.5,-194.7 38.5,-194.7"/>
<polygon fill="none" stroke="#000000" points="38.5,-194.7 38.5,-217.7 178.5,-217.7 178.5,-194.7 38.5,-194.7"/>
<text text-anchor="start" x="43.5" y="-203.3" font-family="Helvetica,sans-Serif" font-weight="bold" font-size="11.00" fill="#000000">reference_data</text>
<text text-anchor="start" x="144.0219" y="-202.8" font-family="Helvetica,sans-Serif" font-size="11.00" fill="#000000">[table]</text>
<polygon fill="none" stroke="#000000" points="38.5,-175.7 38.5,-194.7 178.5,-194.7 178.5,-175.7 38.5,-175.7"/>
<text text-anchor="start" x="41.5" y="-181.8" font-family="Helvetica,sans-Serif" font-size="11.00" fill="#000000">...</text>
<polygon fill="#ffffff" stroke="transparent" points="38.5,-156.7 38.5,-175.7 80.5,-175.7 80.5,-156.7 38.5,-156.7"/>
<polygon fill="none" stroke="#000000" points="38.5,-156.7 38.5,-175.7 80.5,-175.7 80.5,-156.7 38.5,-156.7"/>
<text text-anchor="start" x="41.5" y="-162.8" font-family="Helvetica,sans-Serif" font-size="11.00" fill="#000000">&lt; 1</text>
<polygon fill="#ffffff" stroke="transparent" points="80.5,-156.7 80.5,-175.7 140.5,-175.7 140.5,-156.7 80.5,-156.7"/>
<polygon fill="none" stroke="#000000" points="80.5,-156.7 80.5,-175.7 140.5,-175.7 140.5,-156.7 80.5,-156.7"/>
<text text-anchor="start" x="92.8807" y="-162.8" font-family="Helvetica,sans-Serif" font-size="11.00" fill="#000000">160 rows</text>
<polygon fill="#ffffff" stroke="transparent" points="140.5,-156.7 140.5,-175.7 178.5,-175.7 178.5,-156.7 140.5,-156.7"/>
<polygon fill="none" stroke="#000000" points="140.5,-156.7 140.5,-175.7 178.5,-175.7 178.5,-156.7 140.5,-156.7"/>
<text text-anchor="start" x="153.7904" y="-162.8" font-family="Helvetica,sans-Serif" font-size="11.00" fill="#000000">18 &gt;</text>
</a>
</g>
</g>
<!-- temporary_absence_authorisation&#45;&gt;reference_data -->
<g id="edge3" class="edge">
<title>temporary_absence_authorisation:w&#45;&gt;reference_data:e</title>
<path fill="none" stroke="#000000" d="M264.0719,-313.6423C211.4948,-296.9763 246.3108,-184.7 178.5,-184.7"/>
<polygon fill="#000000" stroke="#000000" points="270.5801,-314.5704 277.9917,-319.2639 274.5401,-315.1352 278.5,-315.7 278.5,-315.7 278.5,-315.7 274.5401,-315.1352 279.0083,-312.1361 270.5801,-314.5704 270.5801,-314.5704"/>
<ellipse fill="none" stroke="#000000" cx="267.4122" cy="-314.1186" rx="3.2" ry="3.2"/>
</g>
<!-- temporary_absence_authorisation&#45;&gt;reference_data -->
<g id="edge4" class="edge">
<title>temporary_absence_authorisation:w&#45;&gt;reference_data:e</title>
<path fill="none" stroke="#000000" d="M264.0508,-424.2235C174.1228,-404.0847 289.1433,-184.7 178.5,-184.7"/>
<polygon fill="#000000" stroke="#000000" points="270.5414,-424.8867 278.134,-429.2814 274.5207,-425.2933 278.5,-425.7 278.5,-425.7 278.5,-425.7 274.5207,-425.2933 278.866,-422.1186 270.5414,-424.8867 270.5414,-424.8867"/>
<ellipse fill="none" stroke="#000000" cx="267.358" cy="-424.5614" rx="3.2" ry="3.2"/>
</g>
<!-- temporary_absence_authorisation&#45;&gt;reference_data -->
<g id="edge5" class="edge">
<title>temporary_absence_authorisation:w&#45;&gt;reference_data:e</title>
<path fill="none" stroke="#000000" d="M264.1611,-446.3477C165.5681,-426.0759 298.302,-184.7 178.5,-184.7"/>
<polygon fill="#000000" stroke="#000000" points="270.5353,-446.9488 278.162,-451.2841 274.5177,-447.3244 278.5,-447.7 278.5,-447.7 278.5,-447.7 274.5177,-447.3244 278.838,-444.1159 270.5353,-446.9488 270.5353,-446.9488"/>
<ellipse fill="none" stroke="#000000" cx="267.3495" cy="-446.6483" rx="3.2" ry="3.2"/>
</g>
<!-- temporary_absence_authorisation&#45;&gt;reference_data -->
<g id="edge6" class="edge">
<title>temporary_absence_authorisation:w&#45;&gt;reference_data:e</title>
<path fill="none" stroke="#000000" d="M264.1186,-468.4293C156.9626,-447.8693 307.494,-184.7 178.5,-184.7"/>
<polygon fill="#000000" stroke="#000000" points="270.531,-468.9959 278.1831,-473.286 274.5155,-469.3479 278.5,-469.7 278.5,-469.7 278.5,-469.7 274.5155,-469.3479 278.8169,-466.114 270.531,-468.9959 270.531,-468.9959"/>
<ellipse fill="none" stroke="#000000" cx="267.3435" cy="-468.7142" rx="3.2" ry="3.2"/>
</g>
<!-- temporary_absence_authorisation&#45;&gt;reference_data -->
<g id="edge7" class="edge">
<title>temporary_absence_authorisation:w&#45;&gt;reference_data:e</title>
<path fill="none" stroke="#000000" d="M264.1765,-291.6199C217.2682,-276.5507 238.8502,-184.7 178.5,-184.7"/>
<polygon fill="#000000" stroke="#000000" points="270.583,-292.5502 277.9826,-297.2626 274.5415,-293.1251 278.5,-293.7 278.5,-293.7 278.5,-293.7 274.5415,-293.1251 279.0174,-290.1374 270.583,-292.5502 270.583,-292.5502"/>
<ellipse fill="none" stroke="#000000" cx="267.4163" cy="-292.0903" rx="3.2" ry="3.2"/>
</g>
<!-- temporary_absence_authorisation&#45;&gt;reference_data -->
<g id="edge9" class="edge">
<title>temporary_absence_authorisation:w&#45;&gt;reference_data:e</title>
<path fill="none" stroke="#000000" d="M264.1026,-402.1244C182.307,-382.4288 280.1713,-184.7 178.5,-184.7"/>
<polygon fill="#000000" stroke="#000000" points="270.5475,-402.8297 278.1083,-407.2786 274.5237,-403.2648 278.5,-403.7 278.5,-403.7 278.5,-403.7 274.5237,-403.2648 278.8917,-400.1214 270.5475,-402.8297 270.5475,-402.8297"/>
<ellipse fill="none" stroke="#000000" cx="267.3665" cy="-402.4815" rx="3.2" ry="3.2"/>
</g>
<!-- temporary_absence_authorisation_audit -->
<g id="node6" class="node">
<title>temporary_absence_authorisation_audit</title>
<g id="a_node6"><a xlink:href="../../tables/temporary_absence_authorisation_audit.html" xlink:title="temporary_absence_authorisation_audit" target="_top">
<polygon fill="#ffffff" stroke="transparent" points="258,-591.2 258,-718.2 567,-718.2 567,-591.2 258,-591.2"/>
<polygon fill="#f5f5f5" stroke="transparent" points="258.5,-694.7 258.5,-717.7 567.5,-717.7 567.5,-694.7 258.5,-694.7"/>
<polygon fill="none" stroke="#000000" points="258.5,-694.7 258.5,-717.7 567.5,-717.7 567.5,-694.7 258.5,-694.7"/>
<text text-anchor="start" x="263.5" y="-703.3" font-family="Helvetica,sans-Serif" font-weight="bold" font-size="11.00" fill="#000000">temporary_absence_authorisation_audit</text>
<text text-anchor="start" x="533.0219" y="-702.8" font-family="Helvetica,sans-Serif" font-size="11.00" fill="#000000">[table]</text>
<polygon fill="none" stroke="#000000" points="258.5,-672.7 258.5,-694.7 567.5,-694.7 567.5,-672.7 258.5,-672.7"/>
<image xlink:href="../../images/primaryKeys.png" width="11px" height="12px" preserveAspectRatio="xMinYMin meet" x="263.5" y="-689.7"/>
<text text-anchor="start" x="287.5" y="-679.8" font-family="Helvetica,sans-Serif" font-size="11.00" fill="#000000">rev_id</text>
<polygon fill="none" stroke="#000000" points="258.5,-650.7 258.5,-672.7 567.5,-672.7 567.5,-650.7 258.5,-650.7"/>
<image xlink:href="../../images/primaryKeys.png" width="11px" height="12px" preserveAspectRatio="xMinYMin meet" x="263.5" y="-667.7"/>
<text text-anchor="start" x="287.5" y="-657.8" font-family="Helvetica,sans-Serif" font-size="11.00" fill="#000000">id</text>
<polygon fill="none" stroke="#000000" points="258.5,-628.7 258.5,-650.7 567.5,-650.7 567.5,-628.7 258.5,-628.7"/>
<image xlink:href="../../images/foreignKeys.png" width="11px" height="12px" preserveAspectRatio="xMinYMin meet" x="263.5" y="-645.7"/>
<text text-anchor="start" x="287.5" y="-635.8" font-family="Helvetica,sans-Serif" font-size="11.00" fill="#000000">person_identifier</text>
<polygon fill="none" stroke="#000000" points="258.5,-609.7 258.5,-628.7 567.5,-628.7 567.5,-609.7 258.5,-609.7"/>
<text text-anchor="start" x="261.5" y="-615.8" font-family="Helvetica,sans-Serif" font-size="11.00" fill="#000000">...</text>
<polygon fill="#ffffff" stroke="transparent" points="258.5,-590.7 258.5,-609.7 411.5,-609.7 411.5,-590.7 258.5,-590.7"/>
<polygon fill="none" stroke="#000000" points="258.5,-590.7 258.5,-609.7 411.5,-609.7 411.5,-590.7 258.5,-590.7"/>
<text text-anchor="start" x="261.5" y="-596.8" font-family="Helvetica,sans-Serif" font-size="11.00" fill="#000000">&lt; 2</text>
<polygon fill="#ffffff" stroke="transparent" points="411.5,-590.7 411.5,-609.7 489.5,-609.7 489.5,-590.7 411.5,-590.7"/>
<polygon fill="none" stroke="#000000" points="411.5,-590.7 411.5,-609.7 489.5,-609.7 489.5,-590.7 411.5,-590.7"/>
<text text-anchor="start" x="480.3862" y="-596.8" font-family="Helvetica,sans-Serif" font-size="11.00" fill="#000000"> &#160;</text>
<polygon fill="#ffffff" stroke="transparent" points="489.5,-590.7 489.5,-609.7 567.5,-609.7 567.5,-590.7 489.5,-590.7"/>
<polygon fill="none" stroke="#000000" points="489.5,-590.7 489.5,-609.7 567.5,-609.7 567.5,-590.7 489.5,-590.7"/>
<text text-anchor="start" x="558.3862" y="-596.8" font-family="Helvetica,sans-Serif" font-size="11.00" fill="#000000"> &#160;</text>
</a>
</g>
</g>
<!-- temporary_absence_authorisation_audit&#45;&gt;person_summary -->
<g id="edge10" class="edge">
<title>temporary_absence_authorisation_audit:w&#45;&gt;person_summary:e</title>
<path fill="none" stroke="#000000" stroke-dasharray="5,2" d="M243.9994,-641.4161C162.2858,-663.3275 314.5342,-887.7 207.5,-887.7"/>
<polygon fill="#000000" stroke="#000000" points="250.5554,-640.6403 258.9231,-643.2751 254.5277,-640.1701 258.5,-639.7 258.5,-639.7 258.5,-639.7 254.5277,-640.1701 258.0769,-636.1249 250.5554,-640.6403 250.5554,-640.6403"/>
<ellipse fill="none" stroke="#000000" cx="247.3776" cy="-641.0164" rx="3.2" ry="3.2"/>
</g>
<!-- audit_revision -->
<g id="node7" class="node">
<title>audit_revision</title>
<g id="a_node7"><a xlink:href="../../tables/audit_revision.html" xlink:title="audit_revision" target="_top">
<polygon fill="#ffffff" stroke="transparent" points="41.5,-658.2 41.5,-719.2 175.5,-719.2 175.5,-658.2 41.5,-658.2"/>
<polygon fill="#f5f5f5" stroke="transparent" points="41.5,-695.7 41.5,-718.7 175.5,-718.7 175.5,-695.7 41.5,-695.7"/>
<polygon fill="none" stroke="#000000" points="41.5,-695.7 41.5,-718.7 175.5,-718.7 175.5,-695.7 41.5,-695.7"/>
<text text-anchor="start" x="46.5" y="-704.3" font-family="Helvetica,sans-Serif" font-weight="bold" font-size="11.00" fill="#000000">audit_revision</text>
<text text-anchor="start" x="141.0219" y="-703.8" font-family="Helvetica,sans-Serif" font-size="11.00" fill="#000000">[table]</text>
<polygon fill="none" stroke="#000000" points="41.5,-676.7 41.5,-695.7 175.5,-695.7 175.5,-676.7 41.5,-676.7"/>
<text text-anchor="start" x="44.5" y="-682.8" font-family="Helvetica,sans-Serif" font-size="11.00" fill="#000000">...</text>
<polygon fill="#ffffff" stroke="transparent" points="41.5,-657.7 41.5,-676.7 97.5,-676.7 97.5,-657.7 41.5,-657.7"/>
<polygon fill="none" stroke="#000000" points="41.5,-657.7 41.5,-676.7 97.5,-676.7 97.5,-657.7 41.5,-657.7"/>
<text text-anchor="start" x="44.5" y="-663.8" font-family="Helvetica,sans-Serif" font-size="11.00" fill="#000000"> &#160;</text>
<polygon fill="#ffffff" stroke="transparent" points="97.5,-657.7 97.5,-676.7 131.5,-676.7 131.5,-657.7 97.5,-657.7"/>
<polygon fill="none" stroke="#000000" points="97.5,-657.7 97.5,-676.7 131.5,-676.7 131.5,-657.7 97.5,-657.7"/>
<text text-anchor="start" x="122.3862" y="-663.8" font-family="Helvetica,sans-Serif" font-size="11.00" fill="#000000"> &#160;</text>
<polygon fill="#ffffff" stroke="transparent" points="131.5,-657.7 131.5,-676.7 175.5,-676.7 175.5,-657.7 131.5,-657.7"/>
<polygon fill="none" stroke="#000000" points="131.5,-657.7 131.5,-676.7 175.5,-676.7 175.5,-657.7 131.5,-657.7"/>
<text text-anchor="start" x="156.9053" y="-663.8" font-family="Helvetica,sans-Serif" font-size="11.00" fill="#000000">4 &gt;</text>
</a>
</g>
</g>
<!-- temporary_absence_authorisation_audit&#45;&gt;audit_revision -->
<g id="edge11" class="edge">
<title>temporary_absence_authorisation_audit:w&#45;&gt;audit_revision:e</title>
<path fill="none" stroke="#000000" d="M244.0691,-683.8133C218.3622,-684.2363 207.0665,-685.7 175.5,-685.7"/>
<polygon fill="#000000" stroke="#000000" points="250.5002,-683.7628 258.5283,-687.2999 254.5001,-683.7314 258.5,-683.7 258.5,-683.7 258.5,-683.7 254.5001,-683.7314 258.4717,-680.1001 250.5002,-683.7628 250.5002,-683.7628"/>
<ellipse fill="none" stroke="#000000" cx="247.3003" cy="-683.788" rx="3.2" ry="3.2"/>
</g>
<!-- temporary_absence_movement -->
<g id="node8" class="node">
<title>temporary_absence_movement</title>
<g id="a_node8"><a xlink:href="../../tables/temporary_absence_movement.html" xlink:title="temporary_absence_movement" target="_top">
<polygon fill="#ffffff" stroke="transparent" points="917,-38.2 917,-253.2 1166,-253.2 1166,-38.2 917,-38.2"/>
<polygon fill="#f5f5f5" stroke="transparent" points="917.5,-229.7 917.5,-252.7 1166.5,-252.7 1166.5,-229.7 917.5,-229.7"/>
<polygon fill="none" stroke="#000000" points="917.5,-229.7 917.5,-252.7 1166.5,-252.7 1166.5,-229.7 917.5,-229.7"/>
<text text-anchor="start" x="922.5" y="-238.3" font-family="Helvetica,sans-Serif" font-weight="bold" font-size="11.00" fill="#000000">temporary_absence_movement</text>
<text text-anchor="start" x="1132.0219" y="-237.8" font-family="Helvetica,sans-Serif" font-size="11.00" fill="#000000">[table]</text>
<polygon fill="none" stroke="#000000" points="917.5,-207.7 917.5,-229.7 1166.5,-229.7 1166.5,-207.7 917.5,-207.7"/>
<image xlink:href="../../images/primaryKeys.png" width="11px" height="12px" preserveAspectRatio="xMinYMin meet" x="922.5" y="-224.7"/>
<text text-anchor="start" x="946.5" y="-214.8" font-family="Helvetica,sans-Serif" font-size="11.00" fill="#000000">id</text>
<polygon fill="#ffffff" stroke="transparent" points="917.5,-185.7 917.5,-207.7 1166.5,-207.7 1166.5,-185.7 917.5,-185.7"/>
<polygon fill="none" stroke="#000000" points="917.5,-185.7 917.5,-207.7 1166.5,-207.7 1166.5,-185.7 917.5,-185.7"/>
<image xlink:href="../../images/foreignKeys.png" width="11px" height="12px" preserveAspectRatio="xMinYMin meet" x="922.5" y="-202.7"/>
<text text-anchor="start" x="946.5" y="-192.8" font-family="Helvetica,sans-Serif" font-size="11.00" fill="#000000">person_identifier</text>
<polygon fill="none" stroke="#000000" points="917.5,-163.7 917.5,-185.7 1166.5,-185.7 1166.5,-163.7 917.5,-163.7"/>
<image xlink:href="../../images/foreignKeys.png" width="11px" height="12px" preserveAspectRatio="xMinYMin meet" x="922.5" y="-180.7"/>
<text text-anchor="start" x="946.5" y="-170.8" font-family="Helvetica,sans-Serif" font-size="11.00" fill="#000000">occurrence_id</text>
<polygon fill="#ffffff" stroke="transparent" points="917.5,-141.7 917.5,-163.7 1166.5,-163.7 1166.5,-141.7 917.5,-141.7"/>
<polygon fill="none" stroke="#000000" points="917.5,-141.7 917.5,-163.7 1166.5,-163.7 1166.5,-141.7 917.5,-141.7"/>
<text text-anchor="start" x="946.5" y="-148.8" font-family="Helvetica,sans-Serif" font-size="11.00" fill="#000000">occurred_at</text>
<polygon fill="none" stroke="#000000" points="917.5,-119.7 917.5,-141.7 1166.5,-141.7 1166.5,-119.7 917.5,-119.7"/>
<image xlink:href="../../images/foreignKeys.png" width="11px" height="12px" preserveAspectRatio="xMinYMin meet" x="922.5" y="-136.7"/>
<text text-anchor="start" x="946.5" y="-126.8" font-family="Helvetica,sans-Serif" font-size="11.00" fill="#000000">absence_reason_id</text>
<polygon fill="none" stroke="#000000" points="917.5,-97.7 917.5,-119.7 1166.5,-119.7 1166.5,-97.7 917.5,-97.7"/>
<image xlink:href="../../images/foreignKeys.png" width="11px" height="12px" preserveAspectRatio="xMinYMin meet" x="922.5" y="-114.7"/>
<text text-anchor="start" x="946.5" y="-104.8" font-family="Helvetica,sans-Serif" font-size="11.00" fill="#000000">accompanied_by_id</text>
<polygon fill="#ffffff" stroke="transparent" points="917.5,-75.7 917.5,-97.7 1166.5,-97.7 1166.5,-75.7 917.5,-75.7"/>
<polygon fill="none" stroke="#000000" points="917.5,-75.7 917.5,-97.7 1166.5,-97.7 1166.5,-75.7 917.5,-75.7"/>
<text text-anchor="start" x="946.5" y="-82.8" font-family="Helvetica,sans-Serif" font-size="11.00" fill="#000000">legacy_id</text>
<polygon fill="none" stroke="#000000" points="917.5,-56.7 917.5,-75.7 1166.5,-75.7 1166.5,-56.7 917.5,-56.7"/>
<text text-anchor="start" x="920.5" y="-62.8" font-family="Helvetica,sans-Serif" font-size="11.00" fill="#000000">...</text>
<polygon fill="#ffffff" stroke="transparent" points="917.5,-37.7 917.5,-56.7 1040.5,-56.7 1040.5,-37.7 917.5,-37.7"/>
<polygon fill="none" stroke="#000000" points="917.5,-37.7 917.5,-56.7 1040.5,-56.7 1040.5,-37.7 917.5,-37.7"/>
<text text-anchor="start" x="920.5" y="-43.8" font-family="Helvetica,sans-Serif" font-size="11.00" fill="#000000">&lt; 4</text>
<polygon fill="#ffffff" stroke="transparent" points="1040.5,-37.7 1040.5,-56.7 1103.5,-56.7 1103.5,-37.7 1040.5,-37.7"/>
<polygon fill="none" stroke="#000000" points="1040.5,-37.7 1040.5,-56.7 1103.5,-56.7 1103.5,-37.7 1040.5,-37.7"/>
<text text-anchor="start" x="1094.3862" y="-43.8" font-family="Helvetica,sans-Serif" font-size="11.00" fill="#000000"> &#160;</text>
<polygon fill="#ffffff" stroke="transparent" points="1103.5,-37.7 1103.5,-56.7 1166.5,-56.7 1166.5,-37.7 1103.5,-37.7"/>
<polygon fill="none" stroke="#000000" points="1103.5,-37.7 1103.5,-56.7 1166.5,-56.7 1166.5,-37.7 1103.5,-37.7"/>
<text text-anchor="start" x="1157.3862" y="-43.8" font-family="Helvetica,sans-Serif" font-size="11.00" fill="#000000"> &#160;</text>
</a>
</g>
</g>
<!-- temporary_absence_movement&#45;&gt;person_summary -->
<g id="edge15" class="edge">
<title>temporary_absence_movement:w&#45;&gt;person_summary:e</title>
<path fill="none" stroke="#000000" d="M903.8517,-201.4488C814.2528,-259.628 642.7333,-833.5648 575,-876.7 506.085,-920.5878 289.2032,-887.7 207.5,-887.7"/>
<polygon fill="#000000" stroke="#000000" points="909.9443,-199.329 918.683,-200.1001 913.7221,-198.0145 917.5,-196.7 917.5,-196.7 917.5,-196.7 913.7221,-198.0145 916.317,-193.2999 909.9443,-199.329 909.9443,-199.329"/>
<ellipse fill="none" stroke="#000000" cx="906.922" cy="-200.3806" rx="3.2" ry="3.2"/>
</g>
<!-- temporary_absence_movement&#45;&gt;reference_data -->
<g id="edge12" class="edge">
<title>temporary_absence_movement:w&#45;&gt;reference_data:e</title>
<path fill="none" stroke="#000000" d="M902.9645,-130.7248C777.1433,-131.1648 740.4377,-137.4211 608,-146.7 512.417,-153.3967 274.3173,-184.7 178.5,-184.7"/>
<polygon fill="#000000" stroke="#000000" points="909.5,-130.7137 917.5062,-134.3 913.5,-130.7069 917.5,-130.7 917.5,-130.7 917.5,-130.7 913.5,-130.7069 917.4938,-127.1 909.5,-130.7137 909.5,-130.7137"/>
<ellipse fill="none" stroke="#000000" cx="906.3" cy="-130.7192" rx="3.2" ry="3.2"/>
</g>
<!-- temporary_absence_movement&#45;&gt;reference_data -->
<g id="edge13" class="edge">
<title>temporary_absence_movement:w&#45;&gt;reference_data:e</title>
<path fill="none" stroke="#000000" d="M902.874,-108.6679C617.4904,-107.4152 531.8109,-70.3287 250,-147.7 215.4962,-157.173 214.2805,-184.7 178.5,-184.7"/>
<polygon fill="#000000" stroke="#000000" points="909.5,-108.6824 917.4921,-112.3 913.5,-108.6912 917.5,-108.7 917.5,-108.7 917.5,-108.7 913.5,-108.6912 917.5079,-105.1 909.5,-108.6824 909.5,-108.6824"/>
<ellipse fill="none" stroke="#000000" cx="906.3" cy="-108.6754" rx="3.2" ry="3.2"/>
</g>
<!-- temporary_absence_occurrence -->
<g id="node9" class="node">
<title>temporary_absence_occurrence</title>
<g id="a_node9"><a xlink:href="../../tables/temporary_absence_occurrence.html" xlink:title="temporary_absence_occurrence" target="_top">
<polygon fill="#ffffff" stroke="transparent" points="616,-157.2 616,-218.2 868,-218.2 868,-157.2 616,-157.2"/>
<polygon fill="#f5f5f5" stroke="transparent" points="616,-194.7 616,-217.7 868,-217.7 868,-194.7 616,-194.7"/>
<polygon fill="none" stroke="#000000" points="616,-194.7 616,-217.7 868,-217.7 868,-194.7 616,-194.7"/>
<text text-anchor="start" x="621" y="-203.3" font-family="Helvetica,sans-Serif" font-weight="bold" font-size="11.00" fill="#000000">temporary_absence_occurrence</text>
<text text-anchor="start" x="833.5219" y="-202.8" font-family="Helvetica,sans-Serif" font-size="11.00" fill="#000000">[table]</text>
<polygon fill="none" stroke="#000000" points="616,-175.7 616,-194.7 868,-194.7 868,-175.7 616,-175.7"/>
<text text-anchor="start" x="619" y="-181.8" font-family="Helvetica,sans-Serif" font-size="11.00" fill="#000000">...</text>
<polygon fill="#ffffff" stroke="transparent" points="616,-156.7 616,-175.7 736,-175.7 736,-156.7 616,-156.7"/>
<polygon fill="none" stroke="#000000" points="616,-156.7 616,-175.7 736,-175.7 736,-156.7 616,-156.7"/>
<text text-anchor="start" x="619" y="-162.8" font-family="Helvetica,sans-Serif" font-size="11.00" fill="#000000">&lt; 8</text>
<polygon fill="#ffffff" stroke="transparent" points="736,-156.7 736,-175.7 797,-175.7 797,-156.7 736,-156.7"/>
<polygon fill="none" stroke="#000000" points="736,-156.7 736,-175.7 797,-175.7 797,-156.7 736,-156.7"/>
<text text-anchor="start" x="787.8862" y="-162.8" font-family="Helvetica,sans-Serif" font-size="11.00" fill="#000000"> &#160;</text>
<polygon fill="#ffffff" stroke="transparent" points="797,-156.7 797,-175.7 868,-175.7 868,-156.7 797,-156.7"/>
<polygon fill="none" stroke="#000000" points="797,-156.7 797,-175.7 868,-175.7 868,-156.7 797,-156.7"/>
<text text-anchor="start" x="849.4053" y="-162.8" font-family="Helvetica,sans-Serif" font-size="11.00" fill="#000000">1 &gt;</text>
</a>
</g>
</g>
<!-- temporary_absence_movement&#45;&gt;temporary_absence_occurrence -->
<g id="edge14" class="edge">
<title>temporary_absence_movement:w&#45;&gt;temporary_absence_occurrence:e</title>
<path fill="none" stroke="#000000" d="M903.0854,-176.3513C891.4926,-179.1916 884.658,-184.7 868,-184.7"/>
<polygon fill="#000000" stroke="#000000" points="909.552,-175.6106 917.9097,-178.2766 913.526,-175.1553 917.5,-174.7 917.5,-174.7 917.5,-174.7 913.526,-175.1553 917.0903,-171.1234 909.552,-175.6106 909.552,-175.6106"/>
<ellipse fill="none" stroke="#000000" cx="906.3728" cy="-175.9748" rx="3.2" ry="3.2"/>
</g>
<!-- temporary_absence_occurrence&#45;&gt;temporary_absence_authorisation -->
<g id="edge23" class="edge">
<title>temporary_absence_occurrence:w&#45;&gt;temporary_absence_authorisation:e</title>
<path fill="none" stroke="#000000" d="M602.2966,-189.1379C547.6307,-229.7694 620.7341,-535.7 546.5,-535.7"/>
<polygon fill="#000000" stroke="#000000" points="608.3892,-187.1649 617.1092,-188.1249 612.1946,-185.9324 616,-184.7 616,-184.7 616,-184.7 612.1946,-185.9324 614.8908,-181.2751 608.3892,-187.1649 608.3892,-187.1649"/>
<ellipse fill="none" stroke="#000000" cx="605.3448" cy="-188.1508" rx="3.2" ry="3.2"/>
</g>
<!-- temporary_absence_occurrence&#45;&gt;reference_data -->
<g id="edge18" class="edge">
<title>temporary_absence_occurrence:w&#45;&gt;reference_data:e</title>
<path fill="none" stroke="#000000" d="M601.4661,-184.7C418.993,-184.7 368.0074,-184.7 178.5,-184.7"/>
<polygon fill="#000000" stroke="#000000" points="608,-184.7001 616,-188.3 612,-184.7 616,-184.7 616,-184.7 616,-184.7 612,-184.7 616,-181.1 608,-184.7001 608,-184.7001"/>
<ellipse fill="none" stroke="#000000" cx="604.8" cy="-184.7001" rx="3.2" ry="3.2"/>
</g>
<!-- temporary_absence_occurrence&#45;&gt;reference_data -->
<g id="edge19" class="edge">
<title>temporary_absence_occurrence:w&#45;&gt;reference_data:e</title>
<path fill="none" stroke="#000000" d="M601.7404,-182.3689C419.0441,-152.7198 368.1023,-153.4969 178.5,-184.7"/>
<polygon fill="#000000" stroke="#000000" points="608.1048,-183.4093 615.4192,-188.2528 612.0524,-184.0546 616,-184.7 616,-184.7 616,-184.7 612.0524,-184.0546 616.5808,-181.1472 608.1048,-183.4093 608.1048,-183.4093"/>
<ellipse fill="none" stroke="#000000" cx="604.9467" cy="-182.893" rx="3.2" ry="3.2"/>
</g>
<!-- temporary_absence_occurrence&#45;&gt;reference_data -->
<g id="edge20" class="edge">
<title>temporary_absence_occurrence:w&#45;&gt;reference_data:e</title>
<path fill="none" stroke="#000000" d="M601.4661,-183.2895C418.993,-165.7122 368.0074,-166.1824 178.5,-184.7"/>
<polygon fill="#000000" stroke="#000000" points="608.0374,-183.9272 615.6522,-188.2832 612.0187,-184.3136 616,-184.7 616,-184.7 616,-184.7 612.0187,-184.3136 616.3478,-181.1168 608.0374,-183.9272 608.0374,-183.9272"/>
<ellipse fill="none" stroke="#000000" cx="604.8524" cy="-183.6181" rx="3.2" ry="3.2"/>
</g>
<!-- temporary_absence_occurrence&#45;&gt;reference_data -->
<g id="edge21" class="edge">
<title>temporary_absence_occurrence:w&#45;&gt;reference_data:e</title>
<path fill="none" stroke="#000000" d="M601.4661,-184.2546C418.993,-178.7039 368.0074,-178.8523 178.5,-184.7"/>
<polygon fill="#000000" stroke="#000000" points="608.0038,-184.4549 615.8897,-188.2983 612.0019,-184.5774 616,-184.7 616,-184.7 616,-184.7 612.0019,-184.5774 616.1103,-181.1017 608.0038,-184.4549 608.0038,-184.4549"/>
<ellipse fill="none" stroke="#000000" cx="604.8053" cy="-184.3568" rx="3.2" ry="3.2"/>
</g>
<!-- temporary_absence_occurrence&#45;&gt;reference_data -->
<g id="edge22" class="edge">
<title>temporary_absence_occurrence:w&#45;&gt;reference_data:e</title>
<path fill="none" stroke="#000000" d="M601.4661,-185.2197C418.993,-191.6955 368.0074,-191.5223 178.5,-184.7"/>
<polygon fill="#000000" stroke="#000000" points="608.0051,-184.9859 616.1287,-188.2977 612.0026,-184.843 616,-184.7 616,-184.7 616,-184.7 612.0026,-184.843 615.8713,-181.1023 608.0051,-184.9859 608.0051,-184.9859"/>
<ellipse fill="none" stroke="#000000" cx="604.8072" cy="-185.1003" rx="3.2" ry="3.2"/>
</g>
<!-- temporary_absence_occurrence&#45;&gt;reference_data -->
<g id="edge24" class="edge">
<title>temporary_absence_occurrence:w&#45;&gt;reference_data:e</title>
<path fill="none" stroke="#000000" d="M601.4661,-186.1848C418.993,-204.6871 368.0074,-204.1922 178.5,-184.7"/>
<polygon fill="#000000" stroke="#000000" points="608.0414,-185.5131 616.3659,-188.2814 612.0207,-185.1065 616,-184.7 616,-184.7 616,-184.7 612.0207,-185.1065 615.6341,-181.1186 608.0414,-185.5131 608.0414,-185.5131"/>
<ellipse fill="none" stroke="#000000" cx="604.858" cy="-185.8383" rx="3.2" ry="3.2"/>
</g>
<!-- temporary_absence_occurrence&#45;&gt;reference_data -->
<g id="edge25" class="edge">
<title>temporary_absence_occurrence:w&#45;&gt;reference_data:e</title>
<path fill="none" stroke="#000000" d="M601.7404,-187.1039C419.0441,-217.6795 368.1023,-216.8782 178.5,-184.7"/>
<polygon fill="#000000" stroke="#000000" points="608.1113,-186.03 616.5985,-188.2499 612.0557,-185.365 616,-184.7 616,-184.7 616,-184.7 612.0557,-185.365 615.4015,-181.1501 608.1113,-186.03 608.1113,-186.03"/>
<ellipse fill="none" stroke="#000000" cx="604.9558" cy="-186.5619" rx="3.2" ry="3.2"/>
</g>
<!-- temporary_absence_movement_audit -->
<g id="node10" class="node">
<title>temporary_absence_movement_audit</title>
<g id="a_node10"><a xlink:href="../../tables/temporary_absence_movement_audit.html" xlink:title="temporary_absence_movement_audit" target="_top">
<polygon fill="#ffffff" stroke="transparent" points="267.5,-739.2 267.5,-866.2 557.5,-866.2 557.5,-739.2 267.5,-739.2"/>
<polygon fill="#f5f5f5" stroke="transparent" points="267.5,-842.7 267.5,-865.7 557.5,-865.7 557.5,-842.7 267.5,-842.7"/>
<polygon fill="none" stroke="#000000" points="267.5,-842.7 267.5,-865.7 557.5,-865.7 557.5,-842.7 267.5,-842.7"/>
<text text-anchor="start" x="272.5" y="-851.3" font-family="Helvetica,sans-Serif" font-weight="bold" font-size="11.00" fill="#000000">temporary_absence_movement_audit</text>
<text text-anchor="start" x="523.0219" y="-850.8" font-family="Helvetica,sans-Serif" font-size="11.00" fill="#000000">[table]</text>
<polygon fill="none" stroke="#000000" points="267.5,-820.7 267.5,-842.7 557.5,-842.7 557.5,-820.7 267.5,-820.7"/>
<image xlink:href="../../images/primaryKeys.png" width="11px" height="12px" preserveAspectRatio="xMinYMin meet" x="272.5" y="-837.7"/>
<text text-anchor="start" x="296.5" y="-827.8" font-family="Helvetica,sans-Serif" font-size="11.00" fill="#000000">rev_id</text>
<polygon fill="none" stroke="#000000" points="267.5,-798.7 267.5,-820.7 557.5,-820.7 557.5,-798.7 267.5,-798.7"/>
<image xlink:href="../../images/primaryKeys.png" width="11px" height="12px" preserveAspectRatio="xMinYMin meet" x="272.5" y="-815.7"/>
<text text-anchor="start" x="296.5" y="-805.8" font-family="Helvetica,sans-Serif" font-size="11.00" fill="#000000">id</text>
<polygon fill="none" stroke="#000000" points="267.5,-776.7 267.5,-798.7 557.5,-798.7 557.5,-776.7 267.5,-776.7"/>
<image xlink:href="../../images/foreignKeys.png" width="11px" height="12px" preserveAspectRatio="xMinYMin meet" x="272.5" y="-793.7"/>
<text text-anchor="start" x="296.5" y="-783.8" font-family="Helvetica,sans-Serif" font-size="11.00" fill="#000000">person_identifier</text>
<polygon fill="none" stroke="#000000" points="267.5,-757.7 267.5,-776.7 557.5,-776.7 557.5,-757.7 267.5,-757.7"/>
<text text-anchor="start" x="270.5" y="-763.8" font-family="Helvetica,sans-Serif" font-size="11.00" fill="#000000">...</text>
<polygon fill="#ffffff" stroke="transparent" points="267.5,-738.7 267.5,-757.7 410.5,-757.7 410.5,-738.7 267.5,-738.7"/>
<polygon fill="none" stroke="#000000" points="267.5,-738.7 267.5,-757.7 410.5,-757.7 410.5,-738.7 267.5,-738.7"/>
<text text-anchor="start" x="270.5" y="-744.8" font-family="Helvetica,sans-Serif" font-size="11.00" fill="#000000">&lt; 2</text>
<polygon fill="#ffffff" stroke="transparent" points="410.5,-738.7 410.5,-757.7 483.5,-757.7 483.5,-738.7 410.5,-738.7"/>
<polygon fill="none" stroke="#000000" points="410.5,-738.7 410.5,-757.7 483.5,-757.7 483.5,-738.7 410.5,-738.7"/>
<text text-anchor="start" x="474.3862" y="-744.8" font-family="Helvetica,sans-Serif" font-size="11.00" fill="#000000"> &#160;</text>
<polygon fill="#ffffff" stroke="transparent" points="483.5,-738.7 483.5,-757.7 557.5,-757.7 557.5,-738.7 483.5,-738.7"/>
<polygon fill="none" stroke="#000000" points="483.5,-738.7 483.5,-757.7 557.5,-757.7 557.5,-738.7 483.5,-738.7"/>
<text text-anchor="start" x="548.3862" y="-744.8" font-family="Helvetica,sans-Serif" font-size="11.00" fill="#000000"> &#160;</text>
</a>
</g>
</g>
<!-- temporary_absence_movement_audit&#45;&gt;person_summary -->
<g id="edge16" class="edge">
<title>temporary_absence_movement_audit:w&#45;&gt;person_summary:e</title>
<path fill="none" stroke="#000000" stroke-dasharray="5,2" d="M253.2843,-791.2591C224.3359,-809.073 253.4592,-887.7 207.5,-887.7"/>
<polygon fill="#000000" stroke="#000000" points="259.7395,-789.643 268.3743,-791.1922 263.6198,-788.6715 267.5,-787.7 267.5,-787.7 267.5,-787.7 263.6198,-788.6715 266.6257,-784.2078 259.7395,-789.643 259.7395,-789.643"/>
<ellipse fill="none" stroke="#000000" cx="256.6353" cy="-790.4201" rx="3.2" ry="3.2"/>
</g>
<!-- temporary_absence_movement_audit&#45;&gt;audit_revision -->
<g id="edge17" class="edge">
<title>temporary_absence_movement_audit:w&#45;&gt;audit_revision:e</title>
<path fill="none" stroke="#000000" d="M252.9315,-829.5228C198.955,-811.3609 246.6547,-685.7 175.5,-685.7"/>
<polygon fill="#000000" stroke="#000000" points="259.5879,-830.5175 266.9679,-835.2605 263.5439,-831.1088 267.5,-831.7 267.5,-831.7 267.5,-831.7 263.5439,-831.1088 268.0321,-828.1395 259.5879,-830.5175 259.5879,-830.5175"/>
<ellipse fill="none" stroke="#000000" cx="256.423" cy="-830.0445" rx="3.2" ry="3.2"/>
</g>
</g>
</svg>
