<?xml version="1.0" encoding="UTF-8" standalone="no"?>
<!DOCTYPE svg PUBLIC "-//W3C//DTD SVG 1.1//EN"
 "http://www.w3.org/Graphics/SVG/1.1/DTD/svg11.dtd">
<!-- Generated by graphviz version 2.40.1 (20161225.0304)
 -->
<!-- Title: oneDegreeRelationshipsDiagram Pages: 1 -->
<svg width="542pt" height="611pt"
 viewBox="0.00 0.00 542.00 611.20" xmlns="http://www.w3.org/2000/svg" xmlns:xlink="http://www.w3.org/1999/xlink">
<g id="graph0" class="graph" transform="scale(1 1) rotate(0) translate(4 607.2)">
<title>oneDegreeRelationshipsDiagram</title>
<polygon fill="#ffffff" stroke="transparent" points="-4,4 -4,-607.2 538,-607.2 538,4 -4,4"/>
<text text-anchor="middle" x="72.4936" y="-7.3" font-family="Helvetica,sans-Serif" font-size="11.00" fill="#000000">Generated by SchemaSpy</text>
<!-- temporary_absence_authorisation -->
<g id="node1" class="node">
<title>temporary_absence_authorisation</title>
<g id="a_node1"><a xlink:href="../../tables/temporary_absence_authorisation.html" xlink:title="temporary_absence_authorisation" target="_top">
<polygon fill="#ffffff" stroke="transparent" points="258,-274.2 258,-599.2 526,-599.2 526,-274.2 258,-274.2"/>
<polygon fill="#f5f5f5" stroke="transparent" points="258,-575.7 258,-598.7 526,-598.7 526,-575.7 258,-575.7"/>
<polygon fill="none" stroke="#000000" points="258,-575.7 258,-598.7 526,-598.7 526,-575.7 258,-575.7"/>
<text text-anchor="start" x="263" y="-584.3" font-family="Helvetica,sans-Serif" font-weight="bold" font-size="11.00" fill="#000000">temporary_absence_authorisation</text>
<text text-anchor="start" x="491.5219" y="-583.8" font-family="Helvetica,sans-Serif" font-size="11.00" fill="#000000">[table]</text>
<polygon fill="none" stroke="#000000" points="258,-553.7 258,-575.7 526,-575.7 526,-553.7 258,-553.7"/>
<image xlink:href="../../images/primaryKeys.png" width="11px" height="12px" preserveAspectRatio="xMinYMin meet" x="263" y="-570.7"/>
<text text-anchor="start" x="287" y="-560.8" font-family="Helvetica,sans-Serif" font-size="11.00" fill="#000000">id</text>
<polygon fill="#ffffff" stroke="transparent" points="258,-531.7 258,-553.7 526,-553.7 526,-531.7 258,-531.7"/>
<polygon fill="none" stroke="#000000" points="258,-531.7 258,-553.7 526,-553.7 526,-531.7 258,-531.7"/>
<image xlink:href="../../images/foreignKeys.png" width="11px" height="12px" preserveAspectRatio="xMinYMin meet" x="263" y="-548.7"/>
<text text-anchor="start" x="287" y="-538.8" font-family="Helvetica,sans-Serif" font-size="11.00" fill="#000000">person_identifier</text>
<polygon fill="#ffffff" stroke="transparent" points="258,-509.7 258,-531.7 526,-531.7 526,-509.7 258,-509.7"/>
<polygon fill="none" stroke="#000000" points="258,-509.7 258,-531.7 526,-531.7 526,-509.7 258,-509.7"/>
<text text-anchor="start" x="287" y="-516.8" font-family="Helvetica,sans-Serif" font-size="11.00" fill="#000000">prison_code</text>
<polygon fill="none" stroke="#000000" points="258,-487.7 258,-509.7 526,-509.7 526,-487.7 258,-487.7"/>
<image xlink:href="../../images/foreignKeys.png" width="11px" height="12px" preserveAspectRatio="xMinYMin meet" x="263" y="-504.7"/>
<text text-anchor="start" x="287" y="-494.8" font-family="Helvetica,sans-Serif" font-size="11.00" fill="#000000">absence_type_id</text>
<polygon fill="none" stroke="#000000" points="258,-465.7 258,-487.7 526,-487.7 526,-465.7 258,-465.7"/>
<image xlink:href="../../images/foreignKeys.png" width="11px" height="12px" preserveAspectRatio="xMinYMin meet" x="263" y="-482.7"/>
<text text-anchor="start" x="287" y="-472.8" font-family="Helvetica,sans-Serif" font-size="11.00" fill="#000000">absence_sub_type_id</text>
<polygon fill="none" stroke="#000000" points="258,-443.7 258,-465.7 526,-465.7 526,-443.7 258,-443.7"/>
<image xlink:href="../../images/foreignKeys.png" width="11px" height="12px" preserveAspectRatio="xMinYMin meet" x="263" y="-460.7"/>
<text text-anchor="start" x="287" y="-450.8" font-family="Helvetica,sans-Serif" font-size="11.00" fill="#000000">absence_reason_id</text>
<polygon fill="none" stroke="#000000" points="258,-421.7 258,-443.7 526,-443.7 526,-421.7 258,-421.7"/>
<image xlink:href="../../images/foreignKeys.png" width="11px" height="12px" preserveAspectRatio="xMinYMin meet" x="263" y="-438.7"/>
<text text-anchor="start" x="287" y="-428.8" font-family="Helvetica,sans-Serif" font-size="11.00" fill="#000000">status_id</text>
<polygon fill="#ffffff" stroke="transparent" points="258,-399.7 258,-421.7 526,-421.7 526,-399.7 258,-399.7"/>
<polygon fill="none" stroke="#000000" points="258,-399.7 258,-421.7 526,-421.7 526,-399.7 258,-399.7"/>
<text text-anchor="start" x="287" y="-406.8" font-family="Helvetica,sans-Serif" font-size="11.00" fill="#000000">legacy_id</text>
<polygon fill="#ffffff" stroke="transparent" points="258,-377.7 258,-399.7 526,-399.7 526,-377.7 258,-377.7"/>
<polygon fill="none" stroke="#000000" points="258,-377.7 258,-399.7 526,-399.7 526,-377.7 258,-377.7"/>
<text text-anchor="start" x="287" y="-384.8" font-family="Helvetica,sans-Serif" font-size="11.00" fill="#000000">start</text>
<polygon fill="#ffffff" stroke="transparent" points="258,-355.7 258,-377.7 526,-377.7 526,-355.7 258,-355.7"/>
<polygon fill="none" stroke="#000000" points="258,-355.7 258,-377.7 526,-377.7 526,-355.7 258,-355.7"/>
<text text-anchor="start" x="287" y="-362.8" font-family="Helvetica,sans-Serif" font-size="11.00" fill="#000000">end</text>
<polygon fill="none" stroke="#000000" points="258,-333.7 258,-355.7 526,-355.7 526,-333.7 258,-333.7"/>
<image xlink:href="../../images/foreignKeys.png" width="11px" height="12px" preserveAspectRatio="xMinYMin meet" x="263" y="-350.7"/>
<text text-anchor="start" x="287" y="-340.8" font-family="Helvetica,sans-Serif" font-size="11.00" fill="#000000">absence_reason_category_id</text>
<polygon fill="none" stroke="#000000" points="258,-311.7 258,-333.7 526,-333.7 526,-311.7 258,-311.7"/>
<image xlink:href="../../images/foreignKeys.png" width="11px" height="12px" preserveAspectRatio="xMinYMin meet" x="263" y="-328.7"/>
<text text-anchor="start" x="287" y="-318.8" font-family="Helvetica,sans-Serif" font-size="11.00" fill="#000000">accompanied_by_id</text>
<polygon fill="none" stroke="#000000" points="258,-292.7 258,-311.7 526,-311.7 526,-292.7 258,-292.7"/>
<text text-anchor="start" x="261" y="-298.8" font-family="Helvetica,sans-Serif" font-size="11.00" fill="#000000">...</text>
<polygon fill="#ffffff" stroke="transparent" points="258,-273.7 258,-292.7 386,-292.7 386,-273.7 258,-273.7"/>
<polygon fill="none" stroke="#000000" points="258,-273.7 258,-292.7 386,-292.7 386,-273.7 258,-273.7"/>
<text text-anchor="start" x="261" y="-279.8" font-family="Helvetica,sans-Serif" font-size="11.00" fill="#000000">&lt; 7</text>
<polygon fill="#ffffff" stroke="transparent" points="386,-273.7 386,-292.7 451,-292.7 451,-273.7 386,-273.7"/>
<polygon fill="none" stroke="#000000" points="386,-273.7 386,-292.7 451,-292.7 451,-273.7 386,-273.7"/>
<text text-anchor="start" x="441.8862" y="-279.8" font-family="Helvetica,sans-Serif" font-size="11.00" fill="#000000"> &#160;</text>
<polygon fill="#ffffff" stroke="transparent" points="451,-273.7 451,-292.7 526,-292.7 526,-273.7 451,-273.7"/>
<polygon fill="none" stroke="#000000" points="451,-273.7 451,-292.7 526,-292.7 526,-273.7 451,-273.7"/>
<text text-anchor="start" x="507.4053" y="-279.8" font-family="Helvetica,sans-Serif" font-size="11.00" fill="#000000">1 &gt;</text>
</a>
</g>
</g>
<!-- person_summary -->
<g id="node2" class="node">
<title>person_summary</title>
<g id="a_node2"><a xlink:href="../../tables/person_summary.html" xlink:title="person_summary" target="_top">
<polygon fill="#ffffff" stroke="transparent" points="8,-227.7 8,-405.7 209,-405.7 209,-227.7 8,-227.7"/>
<polygon fill="#f5f5f5" stroke="transparent" points="10.5,-380.7 10.5,-403.7 207.5,-403.7 207.5,-380.7 10.5,-380.7"/>
<polygon fill="none" stroke="#000000" points="10.5,-380.7 10.5,-403.7 207.5,-403.7 207.5,-380.7 10.5,-380.7"/>
<text text-anchor="start" x="15.5" y="-389.3" font-family="Helvetica,sans-Serif" font-weight="bold" font-size="11.00" fill="#000000">person_summary</text>
<text text-anchor="start" x="172.5437" y="-388.8" font-family="Helvetica,sans-Serif" font-size="11.00" fill="#000000">[table]</text>
<polygon fill="none" stroke="#000000" points="10.5,-358.7 10.5,-380.7 146.5,-380.7 146.5,-358.7 10.5,-358.7"/>
<image xlink:href="../../images/primaryKeys.png" width="11px" height="12px" preserveAspectRatio="xMinYMin meet" x="15.5" y="-375.7"/>
<text text-anchor="start" x="30.5" y="-365.8" font-family="Helvetica,sans-Serif" font-size="11.00" fill="#000000">person_identifier</text>
<polygon fill="none" stroke="#000000" points="146.5,-358.7 146.5,-380.7 207.5,-380.7 207.5,-358.7 146.5,-358.7"/>
<text text-anchor="start" x="149.494" y="-366.4" font-family="Helvetica,sans-Serif" font-size="11.00" fill="#000000">varchar[10]</text>
<polygon fill="none" stroke="#000000" points="10.5,-336.7 10.5,-358.7 146.5,-358.7 146.5,-336.7 10.5,-336.7"/>
<text text-anchor="start" x="30.5" y="-343.8" font-family="Helvetica,sans-Serif" font-size="11.00" fill="#000000">first_name</text>
<polygon fill="none" stroke="#000000" points="146.5,-336.7 146.5,-358.7 207.5,-358.7 207.5,-336.7 146.5,-336.7"/>
<text text-anchor="start" x="149.494" y="-344.4" font-family="Helvetica,sans-Serif" font-size="11.00" fill="#000000">varchar[64]</text>
<polygon fill="none" stroke="#000000" points="10.5,-314.7 10.5,-336.7 146.5,-336.7 146.5,-314.7 10.5,-314.7"/>
<text text-anchor="start" x="30.5" y="-321.8" font-family="Helvetica,sans-Serif" font-size="11.00" fill="#000000">last_name</text>
<polygon fill="none" stroke="#000000" points="146.5,-314.7 146.5,-336.7 207.5,-336.7 207.5,-314.7 146.5,-314.7"/>
<text text-anchor="start" x="149.494" y="-322.4" font-family="Helvetica,sans-Serif" font-size="11.00" fill="#000000">varchar[64]</text>
<polygon fill="none" stroke="#000000" points="10.5,-292.7 10.5,-314.7 146.5,-314.7 146.5,-292.7 10.5,-292.7"/>
<text text-anchor="start" x="30.5" y="-299.8" font-family="Helvetica,sans-Serif" font-size="11.00" fill="#000000">date_of_birth</text>
<polygon fill="none" stroke="#000000" points="146.5,-292.7 146.5,-314.7 207.5,-314.7 207.5,-292.7 146.5,-292.7"/>
<text text-anchor="start" x="149.5" y="-300.4" font-family="Helvetica,sans-Serif" font-size="11.00" fill="#000000">date[13]</text>
<polygon fill="none" stroke="#000000" points="10.5,-270.7 10.5,-292.7 146.5,-292.7 146.5,-270.7 10.5,-270.7"/>
<text text-anchor="start" x="30.5" y="-277.8" font-family="Helvetica,sans-Serif" font-size="11.00" fill="#000000">cell_location</text>
<polygon fill="none" stroke="#000000" points="146.5,-270.7 146.5,-292.7 207.5,-292.7 207.5,-270.7 146.5,-270.7"/>
<text text-anchor="start" x="149.494" y="-278.4" font-family="Helvetica,sans-Serif" font-size="11.00" fill="#000000">varchar[64]</text>
<polygon fill="none" stroke="#000000" points="10.5,-248.7 10.5,-270.7 146.5,-270.7 146.5,-248.7 10.5,-248.7"/>
<text text-anchor="start" x="30.5" y="-255.8" font-family="Helvetica,sans-Serif" font-size="11.00" fill="#000000">version</text>
<polygon fill="none" stroke="#000000" points="146.5,-248.7 146.5,-270.7 207.5,-270.7 207.5,-248.7 146.5,-248.7"/>
<text text-anchor="start" x="149.5" y="-256.4" font-family="Helvetica,sans-Serif" font-size="11.00" fill="#000000">int4[10]</text>
<polygon fill="#ffffff" stroke="transparent" points="10.5,-229.7 10.5,-248.7 82.5,-248.7 82.5,-229.7 10.5,-229.7"/>
<polygon fill="none" stroke="#000000" points="10.5,-229.7 10.5,-248.7 82.5,-248.7 82.5,-229.7 10.5,-229.7"/>
<text text-anchor="start" x="13.5" y="-235.8" font-family="Helvetica,sans-Serif" font-size="11.00" fill="#000000">&lt; 0</text>
<polygon fill="#ffffff" stroke="transparent" points="82.5,-229.7 82.5,-248.7 146.5,-248.7 146.5,-229.7 82.5,-229.7"/>
<polygon fill="none" stroke="#000000" points="82.5,-229.7 82.5,-248.7 146.5,-248.7 146.5,-229.7 82.5,-229.7"/>
<text text-anchor="start" x="137.3862" y="-235.8" font-family="Helvetica,sans-Serif" font-size="11.00" fill="#000000"> &#160;</text>
<polygon fill="#ffffff" stroke="transparent" points="146.5,-229.7 146.5,-248.7 207.5,-248.7 207.5,-229.7 146.5,-229.7"/>
<polygon fill="none" stroke="#000000" points="146.5,-229.7 146.5,-248.7 207.5,-248.7 207.5,-229.7 146.5,-229.7"/>
<text text-anchor="start" x="188.9053" y="-235.8" font-family="Helvetica,sans-Serif" font-size="11.00" fill="#000000">2 &gt;</text>
<polygon fill="none" stroke="#000000" stroke-width="2" points="9,-228.7 9,-404.7 208,-404.7 208,-228.7 9,-228.7"/>
</a>
</g>
</g>
<!-- temporary_absence_authorisation&#45;&gt;person_summary -->
<g id="edge1" class="edge">
<title>temporary_absence_authorisation:w&#45;&gt;person_summary:e</title>
<path fill="none" stroke="#000000" d="M243.7874,-540.2544C192.3898,-519.2272 281.9659,-369.7 207.5,-369.7"/>
<polygon fill="#000000" stroke="#000000" points="250.1159,-541.3433 257.3895,-546.2479 254.0579,-542.0217 258,-542.7 258,-542.7 258,-542.7 254.0579,-542.0217 258.6105,-539.1521 250.1159,-541.3433 250.1159,-541.3433"/>
<ellipse fill="none" stroke="#000000" cx="246.9622" cy="-540.8007" rx="3.2" ry="3.2"/>
</g>
<!-- temporary_absence_movement -->
<g id="node3" class="node">
<title>temporary_absence_movement</title>
<g id="a_node3"><a xlink:href="../../tables/temporary_absence_movement.html" xlink:title="temporary_absence_movement" target="_top">
<polygon fill="#ffffff" stroke="transparent" points="267.5,-38.2 267.5,-253.2 516.5,-253.2 516.5,-38.2 267.5,-38.2"/>
<polygon fill="#f5f5f5" stroke="transparent" points="268,-229.7 268,-252.7 517,-252.7 517,-229.7 268,-229.7"/>
<polygon fill="none" stroke="#000000" points="268,-229.7 268,-252.7 517,-252.7 517,-229.7 268,-229.7"/>
<text text-anchor="start" x="273" y="-238.3" font-family="Helvetica,sans-Serif" font-weight="bold" font-size="11.00" fill="#000000">temporary_absence_movement</text>
<text text-anchor="start" x="482.5219" y="-237.8" font-family="Helvetica,sans-Serif" font-size="11.00" fill="#000000">[table]</text>
<polygon fill="none" stroke="#000000" points="268,-207.7 268,-229.7 517,-229.7 517,-207.7 268,-207.7"/>
<image xlink:href="../../images/primaryKeys.png" width="11px" height="12px" preserveAspectRatio="xMinYMin meet" x="273" y="-224.7"/>
<text text-anchor="start" x="297" y="-214.8" font-family="Helvetica,sans-Serif" font-size="11.00" fill="#000000">id</text>
<polygon fill="#ffffff" stroke="transparent" points="268,-185.7 268,-207.7 517,-207.7 517,-185.7 268,-185.7"/>
<polygon fill="none" stroke="#000000" points="268,-185.7 268,-207.7 517,-207.7 517,-185.7 268,-185.7"/>
<image xlink:href="../../images/foreignKeys.png" width="11px" height="12px" preserveAspectRatio="xMinYMin meet" x="273" y="-202.7"/>
<text text-anchor="start" x="297" y="-192.8" font-family="Helvetica,sans-Serif" font-size="11.00" fill="#000000">person_identifier</text>
<polygon fill="none" stroke="#000000" points="268,-163.7 268,-185.7 517,-185.7 517,-163.7 268,-163.7"/>
<image xlink:href="../../images/foreignKeys.png" width="11px" height="12px" preserveAspectRatio="xMinYMin meet" x="273" y="-180.7"/>
<text text-anchor="start" x="297" y="-170.8" font-family="Helvetica,sans-Serif" font-size="11.00" fill="#000000">occurrence_id</text>
<polygon fill="#ffffff" stroke="transparent" points="268,-141.7 268,-163.7 517,-163.7 517,-141.7 268,-141.7"/>
<polygon fill="none" stroke="#000000" points="268,-141.7 268,-163.7 517,-163.7 517,-141.7 268,-141.7"/>
<text text-anchor="start" x="297" y="-148.8" font-family="Helvetica,sans-Serif" font-size="11.00" fill="#000000">occurred_at</text>
<polygon fill="none" stroke="#000000" points="268,-119.7 268,-141.7 517,-141.7 517,-119.7 268,-119.7"/>
<image xlink:href="../../images/foreignKeys.png" width="11px" height="12px" preserveAspectRatio="xMinYMin meet" x="273" y="-136.7"/>
<text text-anchor="start" x="297" y="-126.8" font-family="Helvetica,sans-Serif" font-size="11.00" fill="#000000">absence_reason_id</text>
<polygon fill="none" stroke="#000000" points="268,-97.7 268,-119.7 517,-119.7 517,-97.7 268,-97.7"/>
<image xlink:href="../../images/foreignKeys.png" width="11px" height="12px" preserveAspectRatio="xMinYMin meet" x="273" y="-114.7"/>
<text text-anchor="start" x="297" y="-104.8" font-family="Helvetica,sans-Serif" font-size="11.00" fill="#000000">accompanied_by_id</text>
<polygon fill="#ffffff" stroke="transparent" points="268,-75.7 268,-97.7 517,-97.7 517,-75.7 268,-75.7"/>
<polygon fill="none" stroke="#000000" points="268,-75.7 268,-97.7 517,-97.7 517,-75.7 268,-75.7"/>
<text text-anchor="start" x="297" y="-82.8" font-family="Helvetica,sans-Serif" font-size="11.00" fill="#000000">legacy_id</text>
<polygon fill="none" stroke="#000000" points="268,-56.7 268,-75.7 517,-75.7 517,-56.7 268,-56.7"/>
<text text-anchor="start" x="271" y="-62.8" font-family="Helvetica,sans-Serif" font-size="11.00" fill="#000000">...</text>
<polygon fill="#ffffff" stroke="transparent" points="268,-37.7 268,-56.7 391,-56.7 391,-37.7 268,-37.7"/>
<polygon fill="none" stroke="#000000" points="268,-37.7 268,-56.7 391,-56.7 391,-37.7 268,-37.7"/>
<text text-anchor="start" x="271" y="-43.8" font-family="Helvetica,sans-Serif" font-size="11.00" fill="#000000">&lt; 4</text>
<polygon fill="#ffffff" stroke="transparent" points="391,-37.7 391,-56.7 454,-56.7 454,-37.7 391,-37.7"/>
<polygon fill="none" stroke="#000000" points="391,-37.7 391,-56.7 454,-56.7 454,-37.7 391,-37.7"/>
<text text-anchor="start" x="444.8862" y="-43.8" font-family="Helvetica,sans-Serif" font-size="11.00" fill="#000000"> &#160;</text>
<polygon fill="#ffffff" stroke="transparent" points="454,-37.7 454,-56.7 517,-56.7 517,-37.7 454,-37.7"/>
<polygon fill="none" stroke="#000000" points="454,-37.7 454,-56.7 517,-56.7 517,-37.7 454,-37.7"/>
<text text-anchor="start" x="507.8862" y="-43.8" font-family="Helvetica,sans-Serif" font-size="11.00" fill="#000000"> &#160;</text>
</a>
</g>
</g>
<!-- temporary_absence_movement&#45;&gt;person_summary -->
<g id="edge2" class="edge">
<title>temporary_absence_movement:w&#45;&gt;person_summary:e</title>
<path fill="none" stroke="#000000" d="M253.7555,-199.0148C199.6872,-219.5439 283.3868,-369.7 207.5,-369.7"/>
<polygon fill="#000000" stroke="#000000" points="260.1036,-197.9832 268.5775,-200.2534 264.0518,-197.3416 268,-196.7 268,-196.7 268,-196.7 264.0518,-197.3416 267.4225,-193.1466 260.1036,-197.9832 260.1036,-197.9832"/>
<ellipse fill="none" stroke="#000000" cx="256.945" cy="-198.4965" rx="3.2" ry="3.2"/>
</g>
</g>
</svg>
