<?xml version="1.0" encoding="UTF-8" standalone="no"?>
<!DOCTYPE svg PUBLIC "-//W3C//DTD SVG 1.1//EN"
 "http://www.w3.org/Graphics/SVG/1.1/DTD/svg11.dtd">
<!-- Generated by graphviz version 2.40.1 (20161225.0304)
 -->
<!-- Title: twoDegreesRelationshipsDiagram Pages: 1 -->
<svg width="1141pt" height="622pt"
 viewBox="0.00 0.00 1141.00 621.78" xmlns="http://www.w3.org/2000/svg" xmlns:xlink="http://www.w3.org/1999/xlink">
<g id="graph0" class="graph" transform="scale(1 1) rotate(0) translate(4 617.7817)">
<title>twoDegreesRelationshipsDiagram</title>
<polygon fill="#ffffff" stroke="transparent" points="-4,4 -4,-617.7817 1137,-617.7817 1137,4 -4,4"/>
<text text-anchor="middle" x="72.4936" y="-7.3" font-family="Helvetica,sans-Serif" font-size="11.00" fill="#000000">Generated by SchemaSpy</text>
<!-- temporary_absence_authorisation -->
<g id="node1" class="node">
<title>temporary_absence_authorisation</title>
<g id="a_node1"><a xlink:href="../../tables/temporary_absence_authorisation.html" xlink:title="temporary_absence_authorisation" target="_top">
<polygon fill="#ffffff" stroke="transparent" points="258,-245.2 258,-570.2 526,-570.2 526,-245.2 258,-245.2"/>
<polygon fill="#f5f5f5" stroke="transparent" points="258,-546.7 258,-569.7 526,-569.7 526,-546.7 258,-546.7"/>
<polygon fill="none" stroke="#000000" points="258,-546.7 258,-569.7 526,-569.7 526,-546.7 258,-546.7"/>
<text text-anchor="start" x="263" y="-555.3" font-family="Helvetica,sans-Serif" font-weight="bold" font-size="11.00" fill="#000000">temporary_absence_authorisation</text>
<text text-anchor="start" x="491.5219" y="-554.8" font-family="Helvetica,sans-Serif" font-size="11.00" fill="#000000">[table]</text>
<polygon fill="none" stroke="#000000" points="258,-524.7 258,-546.7 526,-546.7 526,-524.7 258,-524.7"/>
<image xlink:href="../../images/primaryKeys.png" width="11px" height="12px" preserveAspectRatio="xMinYMin meet" x="263" y="-541.7"/>
<text text-anchor="start" x="287" y="-531.8" font-family="Helvetica,sans-Serif" font-size="11.00" fill="#000000">id</text>
<polygon fill="#ffffff" stroke="transparent" points="258,-502.7 258,-524.7 526,-524.7 526,-502.7 258,-502.7"/>
<polygon fill="none" stroke="#000000" points="258,-502.7 258,-524.7 526,-524.7 526,-502.7 258,-502.7"/>
<image xlink:href="../../images/foreignKeys.png" width="11px" height="12px" preserveAspectRatio="xMinYMin meet" x="263" y="-519.7"/>
<text text-anchor="start" x="287" y="-509.8" font-family="Helvetica,sans-Serif" font-size="11.00" fill="#000000">person_identifier</text>
<polygon fill="#ffffff" stroke="transparent" points="258,-480.7 258,-502.7 526,-502.7 526,-480.7 258,-480.7"/>
<polygon fill="none" stroke="#000000" points="258,-480.7 258,-502.7 526,-502.7 526,-480.7 258,-480.7"/>
<text text-anchor="start" x="287" y="-487.8" font-family="Helvetica,sans-Serif" font-size="11.00" fill="#000000">prison_code</text>
<polygon fill="none" stroke="#000000" points="258,-458.7 258,-480.7 526,-480.7 526,-458.7 258,-458.7"/>
<image xlink:href="../../images/foreignKeys.png" width="11px" height="12px" preserveAspectRatio="xMinYMin meet" x="263" y="-475.7"/>
<text text-anchor="start" x="287" y="-465.8" font-family="Helvetica,sans-Serif" font-size="11.00" fill="#000000">absence_type_id</text>
<polygon fill="none" stroke="#000000" points="258,-436.7 258,-458.7 526,-458.7 526,-436.7 258,-436.7"/>
<image xlink:href="../../images/foreignKeys.png" width="11px" height="12px" preserveAspectRatio="xMinYMin meet" x="263" y="-453.7"/>
<text text-anchor="start" x="287" y="-443.8" font-family="Helvetica,sans-Serif" font-size="11.00" fill="#000000">absence_sub_type_id</text>
<polygon fill="none" stroke="#000000" points="258,-414.7 258,-436.7 526,-436.7 526,-414.7 258,-414.7"/>
<image xlink:href="../../images/foreignKeys.png" width="11px" height="12px" preserveAspectRatio="xMinYMin meet" x="263" y="-431.7"/>
<text text-anchor="start" x="287" y="-421.8" font-family="Helvetica,sans-Serif" font-size="11.00" fill="#000000">absence_reason_id</text>
<polygon fill="#ffffff" stroke="transparent" points="258,-392.7 258,-414.7 526,-414.7 526,-392.7 258,-392.7"/>
<polygon fill="none" stroke="#000000" points="258,-392.7 258,-414.7 526,-414.7 526,-392.7 258,-392.7"/>
<image xlink:href="../../images/foreignKeys.png" width="11px" height="12px" preserveAspectRatio="xMinYMin meet" x="263" y="-409.7"/>
<text text-anchor="start" x="287" y="-399.8" font-family="Helvetica,sans-Serif" font-size="11.00" fill="#000000">status_id</text>
<polygon fill="#ffffff" stroke="transparent" points="258,-370.7 258,-392.7 526,-392.7 526,-370.7 258,-370.7"/>
<polygon fill="none" stroke="#000000" points="258,-370.7 258,-392.7 526,-392.7 526,-370.7 258,-370.7"/>
<text text-anchor="start" x="287" y="-377.8" font-family="Helvetica,sans-Serif" font-size="11.00" fill="#000000">legacy_id</text>
<polygon fill="#ffffff" stroke="transparent" points="258,-348.7 258,-370.7 526,-370.7 526,-348.7 258,-348.7"/>
<polygon fill="none" stroke="#000000" points="258,-348.7 258,-370.7 526,-370.7 526,-348.7 258,-348.7"/>
<text text-anchor="start" x="287" y="-355.8" font-family="Helvetica,sans-Serif" font-size="11.00" fill="#000000">start</text>
<polygon fill="#ffffff" stroke="transparent" points="258,-326.7 258,-348.7 526,-348.7 526,-326.7 258,-326.7"/>
<polygon fill="none" stroke="#000000" points="258,-326.7 258,-348.7 526,-348.7 526,-326.7 258,-326.7"/>
<text text-anchor="start" x="287" y="-333.8" font-family="Helvetica,sans-Serif" font-size="11.00" fill="#000000">end</text>
<polygon fill="none" stroke="#000000" points="258,-304.7 258,-326.7 526,-326.7 526,-304.7 258,-304.7"/>
<image xlink:href="../../images/foreignKeys.png" width="11px" height="12px" preserveAspectRatio="xMinYMin meet" x="263" y="-321.7"/>
<text text-anchor="start" x="287" y="-311.8" font-family="Helvetica,sans-Serif" font-size="11.00" fill="#000000">absence_reason_category_id</text>
<polygon fill="none" stroke="#000000" points="258,-282.7 258,-304.7 526,-304.7 526,-282.7 258,-282.7"/>
<image xlink:href="../../images/foreignKeys.png" width="11px" height="12px" preserveAspectRatio="xMinYMin meet" x="263" y="-299.7"/>
<text text-anchor="start" x="287" y="-289.8" font-family="Helvetica,sans-Serif" font-size="11.00" fill="#000000">accompanied_by_id</text>
<polygon fill="none" stroke="#000000" points="258,-263.7 258,-282.7 526,-282.7 526,-263.7 258,-263.7"/>
<text text-anchor="start" x="261" y="-269.8" font-family="Helvetica,sans-Serif" font-size="11.00" fill="#000000">...</text>
<polygon fill="#ffffff" stroke="transparent" points="258,-244.7 258,-263.7 386,-263.7 386,-244.7 258,-244.7"/>
<polygon fill="none" stroke="#000000" points="258,-244.7 258,-263.7 386,-263.7 386,-244.7 258,-244.7"/>
<text text-anchor="start" x="261" y="-250.8" font-family="Helvetica,sans-Serif" font-size="11.00" fill="#000000">&lt; 7</text>
<polygon fill="#ffffff" stroke="transparent" points="386,-244.7 386,-263.7 451,-263.7 451,-244.7 386,-244.7"/>
<polygon fill="none" stroke="#000000" points="386,-244.7 386,-263.7 451,-263.7 451,-244.7 386,-244.7"/>
<text text-anchor="start" x="441.8862" y="-250.8" font-family="Helvetica,sans-Serif" font-size="11.00" fill="#000000"> &#160;</text>
<polygon fill="#ffffff" stroke="transparent" points="451,-244.7 451,-263.7 526,-263.7 526,-244.7 451,-244.7"/>
<polygon fill="none" stroke="#000000" points="451,-244.7 451,-263.7 526,-263.7 526,-244.7 451,-244.7"/>
<text text-anchor="start" x="507.4053" y="-250.8" font-family="Helvetica,sans-Serif" font-size="11.00" fill="#000000">1 &gt;</text>
</a>
</g>
</g>
<!-- reference_data -->
<g id="node2" class="node">
<title>reference_data</title>
<g id="a_node2"><a xlink:href="../../tables/reference_data.html" xlink:title="reference_data" target="_top">
<polygon fill="#ffffff" stroke="transparent" points="38.5,-157.2 38.5,-218.2 178.5,-218.2 178.5,-157.2 38.5,-157.2"/>
<polygon fill="#f5f5f5" stroke="transparent" points="38.5,-194.7 38.5,-217.7 178.5,-217.7 178.5,-194.7 38.5,-194.7"/>
<polygon fill="none" stroke="#000000" points="38.5,-194.7 38.5,-217.7 178.5,-217.7 178.5,-194.7 38.5,-194.7"/>
<text text-anchor="start" x="43.5" y="-203.3" font-family="Helvetica,sans-Serif" font-weight="bold" font-size="11.00" fill="#000000">reference_data</text>
<text text-anchor="start" x="144.0219" y="-202.8" font-family="Helvetica,sans-Serif" font-size="11.00" fill="#000000">[table]</text>
<polygon fill="none" stroke="#000000" points="38.5,-175.7 38.5,-194.7 178.5,-194.7 178.5,-175.7 38.5,-175.7"/>
<text text-anchor="start" x="41.5" y="-181.8" font-family="Helvetica,sans-Serif" font-size="11.00" fill="#000000">...</text>
<polygon fill="#ffffff" stroke="transparent" points="38.5,-156.7 38.5,-175.7 80.5,-175.7 80.5,-156.7 38.5,-156.7"/>
<polygon fill="none" stroke="#000000" points="38.5,-156.7 38.5,-175.7 80.5,-175.7 80.5,-156.7 38.5,-156.7"/>
<text text-anchor="start" x="41.5" y="-162.8" font-family="Helvetica,sans-Serif" font-size="11.00" fill="#000000">&lt; 1</text>
<polygon fill="#ffffff" stroke="transparent" points="80.5,-156.7 80.5,-175.7 140.5,-175.7 140.5,-156.7 80.5,-156.7"/>
<polygon fill="none" stroke="#000000" points="80.5,-156.7 80.5,-175.7 140.5,-175.7 140.5,-156.7 80.5,-156.7"/>
<text text-anchor="start" x="92.8807" y="-162.8" font-family="Helvetica,sans-Serif" font-size="11.00" fill="#000000">160 rows</text>
<polygon fill="#ffffff" stroke="transparent" points="140.5,-156.7 140.5,-175.7 178.5,-175.7 178.5,-156.7 140.5,-156.7"/>
<polygon fill="none" stroke="#000000" points="140.5,-156.7 140.5,-175.7 178.5,-175.7 178.5,-156.7 140.5,-156.7"/>
<text text-anchor="start" x="153.7904" y="-162.8" font-family="Helvetica,sans-Serif" font-size="11.00" fill="#000000">18 &gt;</text>
</a>
</g>
</g>
<!-- temporary_absence_authorisation&#45;&gt;reference_data -->
<g id="edge1" class="edge">
<title>temporary_absence_authorisation:w&#45;&gt;reference_data:e</title>
<path fill="none" stroke="#000000" d="M243.6217,-313.2001C198.3592,-295.0893 241.0181,-184.7 178.5,-184.7"/>
<polygon fill="#000000" stroke="#000000" points="250.1182,-314.3296 257.3833,-319.2468 254.0591,-315.0148 258,-315.7 258,-315.7 258,-315.7 254.0591,-315.0148 258.6167,-312.1532 250.1182,-314.3296 250.1182,-314.3296"/>
<ellipse fill="none" stroke="#000000" cx="246.9655" cy="-313.7814" rx="3.2" ry="3.2"/>
</g>
<!-- temporary_absence_authorisation&#45;&gt;reference_data -->
<g id="edge2" class="edge">
<title>temporary_absence_authorisation:w&#45;&gt;reference_data:e</title>
<path fill="none" stroke="#000000" d="M243.5302,-424.0973C158.5988,-403.1874 285.8913,-184.7 178.5,-184.7"/>
<polygon fill="#000000" stroke="#000000" points="250.0486,-424.8192 257.6037,-429.2781 254.0243,-425.2596 258,-425.7 258,-425.7 258,-425.7 254.0243,-425.2596 258.3963,-422.1219 250.0486,-424.8192 250.0486,-424.8192"/>
<ellipse fill="none" stroke="#000000" cx="246.8681" cy="-424.4669" rx="3.2" ry="3.2"/>
</g>
<!-- temporary_absence_authorisation&#45;&gt;reference_data -->
<g id="edge3" class="edge">
<title>temporary_absence_authorisation:w&#45;&gt;reference_data:e</title>
<path fill="none" stroke="#000000" d="M244.4242,-442.2069C203.5022,-404.4392 234.3092,-184.7 178.5,-184.7"/>
<polygon fill="#000000" stroke="#000000" points="250.5841,-444.6993 256.6497,-451.0372 254.292,-446.1996 258,-447.7 258,-447.7 258,-447.7 254.292,-446.1996 259.3503,-444.3628 250.5841,-444.6993 250.5841,-444.6993"/>
<ellipse fill="none" stroke="#000000" cx="247.6177" cy="-443.499" rx="3.2" ry="3.2"/>
</g>
<!-- temporary_absence_authorisation&#45;&gt;reference_data -->
<g id="edge4" class="edge">
<title>temporary_absence_authorisation:w&#45;&gt;reference_data:e</title>
<path fill="none" stroke="#000000" d="M244.3487,-464.51C199.8222,-425.883 238.986,-184.7 178.5,-184.7"/>
<polygon fill="#000000" stroke="#000000" points="250.5222,-466.857 256.7207,-473.065 254.2611,-468.2785 258,-469.7 258,-469.7 258,-469.7 254.2611,-468.2785 259.2793,-466.335 250.5222,-466.857 250.5222,-466.857"/>
<ellipse fill="none" stroke="#000000" cx="247.5311" cy="-465.7198" rx="3.2" ry="3.2"/>
</g>
<!-- temporary_absence_authorisation&#45;&gt;reference_data -->
<g id="edge5" class="edge">
<title>temporary_absence_authorisation:w&#45;&gt;reference_data:e</title>
<path fill="none" stroke="#000000" d="M243.6174,-291.0056C204.7359,-274.2205 232.8396,-184.7 178.5,-184.7"/>
<polygon fill="#000000" stroke="#000000" points="250.1368,-292.2269 257.3371,-297.2384 254.0684,-292.9634 258,-293.7 258,-293.7 258,-293.7 254.0684,-292.9634 258.6629,-290.1616 250.1368,-292.2269 250.1368,-292.2269"/>
<ellipse fill="none" stroke="#000000" cx="246.9915" cy="-291.6376" rx="3.2" ry="3.2"/>
</g>
<!-- temporary_absence_authorisation&#45;&gt;reference_data -->
<g id="edge7" class="edge">
<title>temporary_absence_authorisation:w&#45;&gt;reference_data:e</title>
<path fill="none" stroke="#000000" d="M243.4789,-401.9372C167.2665,-381.2114 276.5876,-184.7 178.5,-184.7"/>
<polygon fill="#000000" stroke="#000000" points="250.0583,-402.7358 257.5661,-407.2738 254.0292,-403.2179 258,-403.7 258,-403.7 258,-403.7 254.0292,-403.2179 258.4339,-400.1262 250.0583,-402.7358 250.0583,-402.7358"/>
<ellipse fill="none" stroke="#000000" cx="246.8816" cy="-402.3502" rx="3.2" ry="3.2"/>
</g>
<!-- person_summary -->
<g id="node3" class="node">
<title>person_summary</title>
<g id="a_node3"><a xlink:href="../../tables/person_summary.html" xlink:title="person_summary" target="_top">
<polygon fill="#ffffff" stroke="transparent" points="8,-411.7 8,-589.7 209,-589.7 209,-411.7 8,-411.7"/>
<polygon fill="#f5f5f5" stroke="transparent" points="10.5,-564.7 10.5,-587.7 207.5,-587.7 207.5,-564.7 10.5,-564.7"/>
<polygon fill="none" stroke="#000000" points="10.5,-564.7 10.5,-587.7 207.5,-587.7 207.5,-564.7 10.5,-564.7"/>
<text text-anchor="start" x="15.5" y="-573.3" font-family="Helvetica,sans-Serif" font-weight="bold" font-size="11.00" fill="#000000">person_summary</text>
<text text-anchor="start" x="172.5437" y="-572.8" font-family="Helvetica,sans-Serif" font-size="11.00" fill="#000000">[table]</text>
<polygon fill="none" stroke="#000000" points="10.5,-542.7 10.5,-564.7 146.5,-564.7 146.5,-542.7 10.5,-542.7"/>
<image xlink:href="../../images/primaryKeys.png" width="11px" height="12px" preserveAspectRatio="xMinYMin meet" x="15.5" y="-559.7"/>
<text text-anchor="start" x="30.5" y="-549.8" font-family="Helvetica,sans-Serif" font-size="11.00" fill="#000000">person_identifier</text>
<polygon fill="none" stroke="#000000" points="146.5,-542.7 146.5,-564.7 207.5,-564.7 207.5,-542.7 146.5,-542.7"/>
<text text-anchor="start" x="149.494" y="-550.4" font-family="Helvetica,sans-Serif" font-size="11.00" fill="#000000">varchar[10]</text>
<polygon fill="none" stroke="#000000" points="10.5,-520.7 10.5,-542.7 146.5,-542.7 146.5,-520.7 10.5,-520.7"/>
<text text-anchor="start" x="30.5" y="-527.8" font-family="Helvetica,sans-Serif" font-size="11.00" fill="#000000">first_name</text>
<polygon fill="none" stroke="#000000" points="146.5,-520.7 146.5,-542.7 207.5,-542.7 207.5,-520.7 146.5,-520.7"/>
<text text-anchor="start" x="149.494" y="-528.4" font-family="Helvetica,sans-Serif" font-size="11.00" fill="#000000">varchar[64]</text>
<polygon fill="none" stroke="#000000" points="10.5,-498.7 10.5,-520.7 146.5,-520.7 146.5,-498.7 10.5,-498.7"/>
<text text-anchor="start" x="30.5" y="-505.8" font-family="Helvetica,sans-Serif" font-size="11.00" fill="#000000">last_name</text>
<polygon fill="none" stroke="#000000" points="146.5,-498.7 146.5,-520.7 207.5,-520.7 207.5,-498.7 146.5,-498.7"/>
<text text-anchor="start" x="149.494" y="-506.4" font-family="Helvetica,sans-Serif" font-size="11.00" fill="#000000">varchar[64]</text>
<polygon fill="none" stroke="#000000" points="10.5,-476.7 10.5,-498.7 146.5,-498.7 146.5,-476.7 10.5,-476.7"/>
<text text-anchor="start" x="30.5" y="-483.8" font-family="Helvetica,sans-Serif" font-size="11.00" fill="#000000">date_of_birth</text>
<polygon fill="none" stroke="#000000" points="146.5,-476.7 146.5,-498.7 207.5,-498.7 207.5,-476.7 146.5,-476.7"/>
<text text-anchor="start" x="149.5" y="-484.4" font-family="Helvetica,sans-Serif" font-size="11.00" fill="#000000">date[13]</text>
<polygon fill="none" stroke="#000000" points="10.5,-454.7 10.5,-476.7 146.5,-476.7 146.5,-454.7 10.5,-454.7"/>
<text text-anchor="start" x="30.5" y="-461.8" font-family="Helvetica,sans-Serif" font-size="11.00" fill="#000000">cell_location</text>
<polygon fill="none" stroke="#000000" points="146.5,-454.7 146.5,-476.7 207.5,-476.7 207.5,-454.7 146.5,-454.7"/>
<text text-anchor="start" x="149.494" y="-462.4" font-family="Helvetica,sans-Serif" font-size="11.00" fill="#000000">varchar[64]</text>
<polygon fill="none" stroke="#000000" points="10.5,-432.7 10.5,-454.7 146.5,-454.7 146.5,-432.7 10.5,-432.7"/>
<text text-anchor="start" x="30.5" y="-439.8" font-family="Helvetica,sans-Serif" font-size="11.00" fill="#000000">version</text>
<polygon fill="none" stroke="#000000" points="146.5,-432.7 146.5,-454.7 207.5,-454.7 207.5,-432.7 146.5,-432.7"/>
<text text-anchor="start" x="149.5" y="-440.4" font-family="Helvetica,sans-Serif" font-size="11.00" fill="#000000">int4[10]</text>
<polygon fill="#ffffff" stroke="transparent" points="10.5,-413.7 10.5,-432.7 82.5,-432.7 82.5,-413.7 10.5,-413.7"/>
<polygon fill="none" stroke="#000000" points="10.5,-413.7 10.5,-432.7 82.5,-432.7 82.5,-413.7 10.5,-413.7"/>
<text text-anchor="start" x="13.5" y="-419.8" font-family="Helvetica,sans-Serif" font-size="11.00" fill="#000000">&lt; 0</text>
<polygon fill="#ffffff" stroke="transparent" points="82.5,-413.7 82.5,-432.7 146.5,-432.7 146.5,-413.7 82.5,-413.7"/>
<polygon fill="none" stroke="#000000" points="82.5,-413.7 82.5,-432.7 146.5,-432.7 146.5,-413.7 82.5,-413.7"/>
<text text-anchor="start" x="137.3862" y="-419.8" font-family="Helvetica,sans-Serif" font-size="11.00" fill="#000000"> &#160;</text>
<polygon fill="#ffffff" stroke="transparent" points="146.5,-413.7 146.5,-432.7 207.5,-432.7 207.5,-413.7 146.5,-413.7"/>
<polygon fill="none" stroke="#000000" points="146.5,-413.7 146.5,-432.7 207.5,-432.7 207.5,-413.7 146.5,-413.7"/>
<text text-anchor="start" x="188.9053" y="-419.8" font-family="Helvetica,sans-Serif" font-size="11.00" fill="#000000">2 &gt;</text>
<polygon fill="none" stroke="#000000" stroke-width="2" points="9,-412.7 9,-588.7 208,-588.7 208,-412.7 9,-412.7"/>
</a>
</g>
</g>
<!-- temporary_absence_authorisation&#45;&gt;person_summary -->
<g id="edge6" class="edge">
<title>temporary_absence_authorisation:w&#45;&gt;person_summary:e</title>
<path fill="none" stroke="#000000" d="M243.9416,-518.2885C230.6466,-528.7952 230.0926,-553.7 207.5,-553.7"/>
<polygon fill="#000000" stroke="#000000" points="250.3948,-516.1823 259.117,-517.1223 254.1974,-514.9411 258,-513.7 258,-513.7 258,-513.7 254.1974,-514.9411 256.883,-510.2777 250.3948,-516.1823 250.3948,-516.1823"/>
<ellipse fill="none" stroke="#000000" cx="247.3528" cy="-517.1752" rx="3.2" ry="3.2"/>
</g>
<!-- temporary_absence_movement -->
<g id="node4" class="node">
<title>temporary_absence_movement</title>
<g id="a_node4"><a xlink:href="../../tables/temporary_absence_movement.html" xlink:title="temporary_absence_movement" target="_top">
<polygon fill="#ffffff" stroke="transparent" points="876,-38.2 876,-253.2 1125,-253.2 1125,-38.2 876,-38.2"/>
<polygon fill="#f5f5f5" stroke="transparent" points="876.5,-229.7 876.5,-252.7 1125.5,-252.7 1125.5,-229.7 876.5,-229.7"/>
<polygon fill="none" stroke="#000000" points="876.5,-229.7 876.5,-252.7 1125.5,-252.7 1125.5,-229.7 876.5,-229.7"/>
<text text-anchor="start" x="881.5" y="-238.3" font-family="Helvetica,sans-Serif" font-weight="bold" font-size="11.00" fill="#000000">temporary_absence_movement</text>
<text text-anchor="start" x="1091.0219" y="-237.8" font-family="Helvetica,sans-Serif" font-size="11.00" fill="#000000">[table]</text>
<polygon fill="none" stroke="#000000" points="876.5,-207.7 876.5,-229.7 1125.5,-229.7 1125.5,-207.7 876.5,-207.7"/>
<image xlink:href="../../images/primaryKeys.png" width="11px" height="12px" preserveAspectRatio="xMinYMin meet" x="881.5" y="-224.7"/>
<text text-anchor="start" x="905.5" y="-214.8" font-family="Helvetica,sans-Serif" font-size="11.00" fill="#000000">id</text>
<polygon fill="#ffffff" stroke="transparent" points="876.5,-185.7 876.5,-207.7 1125.5,-207.7 1125.5,-185.7 876.5,-185.7"/>
<polygon fill="none" stroke="#000000" points="876.5,-185.7 876.5,-207.7 1125.5,-207.7 1125.5,-185.7 876.5,-185.7"/>
<image xlink:href="../../images/foreignKeys.png" width="11px" height="12px" preserveAspectRatio="xMinYMin meet" x="881.5" y="-202.7"/>
<text text-anchor="start" x="905.5" y="-192.8" font-family="Helvetica,sans-Serif" font-size="11.00" fill="#000000">person_identifier</text>
<polygon fill="#ffffff" stroke="transparent" points="876.5,-163.7 876.5,-185.7 1125.5,-185.7 1125.5,-163.7 876.5,-163.7"/>
<polygon fill="none" stroke="#000000" points="876.5,-163.7 876.5,-185.7 1125.5,-185.7 1125.5,-163.7 876.5,-163.7"/>
<image xlink:href="../../images/foreignKeys.png" width="11px" height="12px" preserveAspectRatio="xMinYMin meet" x="881.5" y="-180.7"/>
<text text-anchor="start" x="905.5" y="-170.8" font-family="Helvetica,sans-Serif" font-size="11.00" fill="#000000">occurrence_id</text>
<polygon fill="#ffffff" stroke="transparent" points="876.5,-141.7 876.5,-163.7 1125.5,-163.7 1125.5,-141.7 876.5,-141.7"/>
<polygon fill="none" stroke="#000000" points="876.5,-141.7 876.5,-163.7 1125.5,-163.7 1125.5,-141.7 876.5,-141.7"/>
<text text-anchor="start" x="905.5" y="-148.8" font-family="Helvetica,sans-Serif" font-size="11.00" fill="#000000">occurred_at</text>
<polygon fill="none" stroke="#000000" points="876.5,-119.7 876.5,-141.7 1125.5,-141.7 1125.5,-119.7 876.5,-119.7"/>
<image xlink:href="../../images/foreignKeys.png" width="11px" height="12px" preserveAspectRatio="xMinYMin meet" x="881.5" y="-136.7"/>
<text text-anchor="start" x="905.5" y="-126.8" font-family="Helvetica,sans-Serif" font-size="11.00" fill="#000000">absence_reason_id</text>
<polygon fill="none" stroke="#000000" points="876.5,-97.7 876.5,-119.7 1125.5,-119.7 1125.5,-97.7 876.5,-97.7"/>
<image xlink:href="../../images/foreignKeys.png" width="11px" height="12px" preserveAspectRatio="xMinYMin meet" x="881.5" y="-114.7"/>
<text text-anchor="start" x="905.5" y="-104.8" font-family="Helvetica,sans-Serif" font-size="11.00" fill="#000000">accompanied_by_id</text>
<polygon fill="#ffffff" stroke="transparent" points="876.5,-75.7 876.5,-97.7 1125.5,-97.7 1125.5,-75.7 876.5,-75.7"/>
<polygon fill="none" stroke="#000000" points="876.5,-75.7 876.5,-97.7 1125.5,-97.7 1125.5,-75.7 876.5,-75.7"/>
<text text-anchor="start" x="905.5" y="-82.8" font-family="Helvetica,sans-Serif" font-size="11.00" fill="#000000">legacy_id</text>
<polygon fill="none" stroke="#000000" points="876.5,-56.7 876.5,-75.7 1125.5,-75.7 1125.5,-56.7 876.5,-56.7"/>
<text text-anchor="start" x="879.5" y="-62.8" font-family="Helvetica,sans-Serif" font-size="11.00" fill="#000000">...</text>
<polygon fill="#ffffff" stroke="transparent" points="876.5,-37.7 876.5,-56.7 999.5,-56.7 999.5,-37.7 876.5,-37.7"/>
<polygon fill="none" stroke="#000000" points="876.5,-37.7 876.5,-56.7 999.5,-56.7 999.5,-37.7 876.5,-37.7"/>
<text text-anchor="start" x="879.5" y="-43.8" font-family="Helvetica,sans-Serif" font-size="11.00" fill="#000000">&lt; 4</text>
<polygon fill="#ffffff" stroke="transparent" points="999.5,-37.7 999.5,-56.7 1062.5,-56.7 1062.5,-37.7 999.5,-37.7"/>
<polygon fill="none" stroke="#000000" points="999.5,-37.7 999.5,-56.7 1062.5,-56.7 1062.5,-37.7 999.5,-37.7"/>
<text text-anchor="start" x="1053.3862" y="-43.8" font-family="Helvetica,sans-Serif" font-size="11.00" fill="#000000"> &#160;</text>
<polygon fill="#ffffff" stroke="transparent" points="1062.5,-37.7 1062.5,-56.7 1125.5,-56.7 1125.5,-37.7 1062.5,-37.7"/>
<polygon fill="none" stroke="#000000" points="1062.5,-37.7 1062.5,-56.7 1125.5,-56.7 1125.5,-37.7 1062.5,-37.7"/>
<text text-anchor="start" x="1116.3862" y="-43.8" font-family="Helvetica,sans-Serif" font-size="11.00" fill="#000000"> &#160;</text>
</a>
</g>
</g>
<!-- temporary_absence_movement&#45;&gt;reference_data -->
<g id="edge8" class="edge">
<title>temporary_absence_movement:w&#45;&gt;reference_data:e</title>
<path fill="none" stroke="#000000" d="M861.9643,-130.7224C736.1401,-131.1205 699.3933,-136.8083 567,-146.7 480.4958,-153.1631 265.2453,-184.7 178.5,-184.7"/>
<polygon fill="#000000" stroke="#000000" points="868.5,-130.7124 876.5056,-134.3 872.5,-130.7062 876.5,-130.7 876.5,-130.7 876.5,-130.7 872.5,-130.7062 876.4944,-127.1 868.5,-130.7124 868.5,-130.7124"/>
<ellipse fill="none" stroke="#000000" cx="865.3" cy="-130.7173" rx="3.2" ry="3.2"/>
</g>
<!-- temporary_absence_movement&#45;&gt;reference_data -->
<g id="edge9" class="edge">
<title>temporary_absence_movement:w&#45;&gt;reference_data:e</title>
<path fill="none" stroke="#000000" d="M861.9716,-108.668C594.6935,-107.4903 514.1605,-74.6332 250,-147.7 215.5144,-157.2387 214.2805,-184.7 178.5,-184.7"/>
<polygon fill="#000000" stroke="#000000" points="868.5,-108.6823 876.492,-112.3 872.5,-108.6912 876.5,-108.7 876.5,-108.7 876.5,-108.7 872.5,-108.6912 876.508,-105.1 868.5,-108.6823 868.5,-108.6823"/>
<ellipse fill="none" stroke="#000000" cx="865.3" cy="-108.6753" rx="3.2" ry="3.2"/>
</g>
<!-- temporary_absence_movement&#45;&gt;person_summary -->
<g id="edge11" class="edge">
<title>temporary_absence_movement:w&#45;&gt;person_summary:e</title>
<path fill="none" stroke="#000000" d="M864.1207,-204.144C801.4141,-256.6931 557.8964,-569.9933 534,-580.7 418.8113,-632.3101 371.2019,-615.944 250,-580.7 228.5117,-574.4515 229.8783,-553.7 207.5,-553.7"/>
<polygon fill="#000000" stroke="#000000" points="869.6441,-200.8227 878.3552,-199.7852 873.072,-198.7613 876.5,-196.7 876.5,-196.7 876.5,-196.7 873.072,-198.7613 874.6448,-193.6148 869.6441,-200.8227 869.6441,-200.8227"/>
<ellipse fill="none" stroke="#000000" cx="866.9017" cy="-202.4717" rx="3.2" ry="3.2"/>
</g>
<!-- temporary_absence_occurrence -->
<g id="node5" class="node">
<title>temporary_absence_occurrence</title>
<g id="a_node5"><a xlink:href="../../tables/temporary_absence_occurrence.html" xlink:title="temporary_absence_occurrence" target="_top">
<polygon fill="#ffffff" stroke="transparent" points="575,-157.2 575,-218.2 827,-218.2 827,-157.2 575,-157.2"/>
<polygon fill="#f5f5f5" stroke="transparent" points="575,-194.7 575,-217.7 827,-217.7 827,-194.7 575,-194.7"/>
<polygon fill="none" stroke="#000000" points="575,-194.7 575,-217.7 827,-217.7 827,-194.7 575,-194.7"/>
<text text-anchor="start" x="580" y="-203.3" font-family="Helvetica,sans-Serif" font-weight="bold" font-size="11.00" fill="#000000">temporary_absence_occurrence</text>
<text text-anchor="start" x="792.5219" y="-202.8" font-family="Helvetica,sans-Serif" font-size="11.00" fill="#000000">[table]</text>
<polygon fill="none" stroke="#000000" points="575,-175.7 575,-194.7 827,-194.7 827,-175.7 575,-175.7"/>
<text text-anchor="start" x="578" y="-181.8" font-family="Helvetica,sans-Serif" font-size="11.00" fill="#000000">...</text>
<polygon fill="#ffffff" stroke="transparent" points="575,-156.7 575,-175.7 695,-175.7 695,-156.7 575,-156.7"/>
<polygon fill="none" stroke="#000000" points="575,-156.7 575,-175.7 695,-175.7 695,-156.7 575,-156.7"/>
<text text-anchor="start" x="578" y="-162.8" font-family="Helvetica,sans-Serif" font-size="11.00" fill="#000000">&lt; 8</text>
<polygon fill="#ffffff" stroke="transparent" points="695,-156.7 695,-175.7 756,-175.7 756,-156.7 695,-156.7"/>
<polygon fill="none" stroke="#000000" points="695,-156.7 695,-175.7 756,-175.7 756,-156.7 695,-156.7"/>
<text text-anchor="start" x="746.8862" y="-162.8" font-family="Helvetica,sans-Serif" font-size="11.00" fill="#000000"> &#160;</text>
<polygon fill="#ffffff" stroke="transparent" points="756,-156.7 756,-175.7 827,-175.7 827,-156.7 756,-156.7"/>
<polygon fill="none" stroke="#000000" points="756,-156.7 756,-175.7 827,-175.7 827,-156.7 756,-156.7"/>
<text text-anchor="start" x="808.4053" y="-162.8" font-family="Helvetica,sans-Serif" font-size="11.00" fill="#000000">1 &gt;</text>
</a>
</g>
</g>
<!-- temporary_absence_movement&#45;&gt;temporary_absence_occurrence -->
<g id="edge10" class="edge">
<title>temporary_absence_movement:w&#45;&gt;temporary_absence_occurrence:e</title>
<path fill="none" stroke="#000000" d="M862.0854,-176.3513C850.4926,-179.1916 843.658,-184.7 827,-184.7"/>
<polygon fill="#000000" stroke="#000000" points="868.552,-175.6106 876.9097,-178.2766 872.526,-175.1553 876.5,-174.7 876.5,-174.7 876.5,-174.7 872.526,-175.1553 876.0903,-171.1234 868.552,-175.6106 868.552,-175.6106"/>
<ellipse fill="none" stroke="#000000" cx="865.3728" cy="-175.9748" rx="3.2" ry="3.2"/>
</g>
<!-- temporary_absence_occurrence&#45;&gt;temporary_absence_authorisation -->
<g id="edge17" class="edge">
<title>temporary_absence_occurrence:w&#45;&gt;temporary_absence_authorisation:e</title>
<path fill="none" stroke="#000000" d="M561.3545,-189.3964C510.2042,-231.0481 599.3726,-535.7 526,-535.7"/>
<polygon fill="#000000" stroke="#000000" points="567.4355,-187.3035 576.1716,-188.104 571.2177,-186.0018 575,-184.7 575,-184.7 575,-184.7 571.2177,-186.0018 573.8284,-181.296 567.4355,-187.3035 567.4355,-187.3035"/>
<ellipse fill="none" stroke="#000000" cx="564.4097" cy="-188.345" rx="3.2" ry="3.2"/>
</g>
<!-- temporary_absence_occurrence&#45;&gt;reference_data -->
<g id="edge12" class="edge">
<title>temporary_absence_occurrence:w&#45;&gt;reference_data:e</title>
<path fill="none" stroke="#000000" d="M560.34,-184.7C396.1764,-184.7 349.7316,-184.7 178.5,-184.7"/>
<polygon fill="#000000" stroke="#000000" points="567,-184.7001 575,-188.3 571,-184.7 575,-184.7 575,-184.7 575,-184.7 571,-184.7 575,-181.1 567,-184.7001 567,-184.7001"/>
<ellipse fill="none" stroke="#000000" cx="563.8" cy="-184.7001" rx="3.2" ry="3.2"/>
</g>
<!-- temporary_absence_occurrence&#45;&gt;reference_data -->
<g id="edge13" class="edge">
<title>temporary_absence_occurrence:w&#45;&gt;reference_data:e</title>
<path fill="none" stroke="#000000" d="M560.34,-182.0582C396.1764,-152.7257 349.7316,-153.6063 178.5,-184.7"/>
<polygon fill="#000000" stroke="#000000" points="567.1268,-183.2812 574.3615,-188.2429 571.0634,-183.9906 575,-184.7 575,-184.7 575,-184.7 571.0634,-183.9906 575.6385,-181.1571 567.1268,-183.2812 567.1268,-183.2812"/>
<ellipse fill="none" stroke="#000000" cx="563.9775" cy="-182.7137" rx="3.2" ry="3.2"/>
</g>
<!-- temporary_absence_occurrence&#45;&gt;reference_data -->
<g id="edge14" class="edge">
<title>temporary_absence_occurrence:w&#45;&gt;reference_data:e</title>
<path fill="none" stroke="#000000" d="M560.34,-183.1315C396.1764,-165.7152 349.7316,-166.2381 178.5,-184.7"/>
<polygon fill="#000000" stroke="#000000" points="567.0454,-183.8489 574.617,-188.2796 571.0227,-184.2744 575,-184.7 575,-184.7 575,-184.7 571.0227,-184.2744 575.383,-181.1204 567.0454,-183.8489 567.0454,-183.8489"/>
<ellipse fill="none" stroke="#000000" cx="563.8636" cy="-183.5084" rx="3.2" ry="3.2"/>
</g>
<!-- temporary_absence_occurrence&#45;&gt;reference_data -->
<g id="edge15" class="edge">
<title>temporary_absence_occurrence:w&#45;&gt;reference_data:e</title>
<path fill="none" stroke="#000000" d="M560.34,-184.2047C396.1764,-178.7048 349.7316,-178.8699 178.5,-184.7"/>
<polygon fill="#000000" stroke="#000000" points="567.0046,-184.4298 574.8784,-188.2979 571.0023,-184.5649 575,-184.7 575,-184.7 575,-184.7 571.0023,-184.5649 575.1216,-181.1021 567.0046,-184.4298 567.0046,-184.4298"/>
<ellipse fill="none" stroke="#000000" cx="563.8064" cy="-184.3217" rx="3.2" ry="3.2"/>
</g>
<!-- temporary_absence_occurrence&#45;&gt;reference_data -->
<g id="edge16" class="edge">
<title>temporary_absence_occurrence:w&#45;&gt;reference_data:e</title>
<path fill="none" stroke="#000000" d="M560.34,-185.2779C396.1764,-191.6944 349.7316,-191.5018 178.5,-184.7"/>
<polygon fill="#000000" stroke="#000000" points="567.0062,-185.0152 575.1418,-188.2972 571.0031,-184.8576 575,-184.7 575,-184.7 575,-184.7 571.0031,-184.8576 574.8582,-181.1028 567.0062,-185.0152 567.0062,-185.0152"/>
<ellipse fill="none" stroke="#000000" cx="563.8087" cy="-185.1412" rx="3.2" ry="3.2"/>
</g>
<!-- temporary_absence_occurrence&#45;&gt;reference_data -->
<g id="edge18" class="edge">
<title>temporary_absence_occurrence:w&#45;&gt;reference_data:e</title>
<path fill="none" stroke="#000000" d="M560.34,-186.3511C396.1764,-204.684 349.7316,-204.1336 178.5,-184.7"/>
<polygon fill="#000000" stroke="#000000" points="567.0503,-185.5954 575.4029,-188.2774 571.0251,-185.1477 575,-184.7 575,-184.7 575,-184.7 571.0251,-185.1477 574.5971,-181.1226 567.0503,-185.5954 567.0503,-185.5954"/>
<ellipse fill="none" stroke="#000000" cx="563.8704" cy="-185.9536" rx="3.2" ry="3.2"/>
</g>
<!-- temporary_absence_occurrence&#45;&gt;reference_data -->
<g id="edge19" class="edge">
<title>temporary_absence_occurrence:w&#45;&gt;reference_data:e</title>
<path fill="none" stroke="#000000" d="M560.8353,-187.333C396.2697,-217.6753 349.9036,-216.7977 178.5,-184.7"/>
<polygon fill="#000000" stroke="#000000" points="567.1347,-186.1621 575.6579,-188.2394 571.0674,-185.431 575,-184.7 575,-184.7 575,-184.7 571.0674,-185.431 574.3421,-181.1606 567.1347,-186.1621 567.1347,-186.1621"/>
<ellipse fill="none" stroke="#000000" cx="563.9886" cy="-186.7469" rx="3.2" ry="3.2"/>
</g>
</g>
</svg>
