<?xml version="1.0" encoding="UTF-8" standalone="no"?>
<!DOCTYPE svg PUBLIC "-//W3C//DTD SVG 1.1//EN"
 "http://www.w3.org/Graphics/SVG/1.1/DTD/svg11.dtd">
<!-- Generated by graphviz version 2.40.1 (20161225.0304)
 -->
<!-- Title: oneDegreeRelationshipsDiagramImplied Pages: 1 -->
<svg width="583pt" height="1078pt"
 viewBox="0.00 0.00 583.00 1077.70" xmlns="http://www.w3.org/2000/svg" xmlns:xlink="http://www.w3.org/1999/xlink">
<g id="graph0" class="graph" transform="scale(1 1) rotate(0) translate(4 1073.7)">
<title>oneDegreeRelationshipsDiagramImplied</title>
<polygon fill="#ffffff" stroke="transparent" points="-4,4 -4,-1073.7 579,-1073.7 579,4 -4,4"/>
<text text-anchor="middle" x="72.4936" y="-7.3" font-family="Helvetica,sans-Serif" font-size="11.00" fill="#000000">Generated by SchemaSpy</text>
<!-- audited_tap_authorisation -->
<g id="node1" class="node">
<title>audited_tap_authorisation</title>
<g id="a_node1"><a xlink:href="../../tables/audited_tap_authorisation.html" xlink:title="audited_tap_authorisation" target="_top">
<polygon fill="#ffffff" stroke="transparent" points="305,-1001.7 305,-1065.7 520,-1065.7 520,-1001.7 305,-1001.7"/>
<polygon fill="#f5f5f5" stroke="transparent" points="305.5,-1042.7 305.5,-1065.7 520.5,-1065.7 520.5,-1042.7 305.5,-1042.7"/>
<polygon fill="none" stroke="#000000" points="305.5,-1042.7 305.5,-1065.7 520.5,-1065.7 520.5,-1042.7 305.5,-1042.7"/>
<text text-anchor="start" x="310.5" y="-1051.3" font-family="Helvetica,sans-Serif" font-weight="bold" font-size="11.00" fill="#000000">audited_tap_authorisation</text>
<text text-anchor="start" x="487.4448" y="-1050.8" font-family="Helvetica,sans-Serif" font-size="11.00" fill="#000000">[view]</text>
<polygon fill="none" stroke="#000000" points="305.5,-1020.7 305.5,-1042.7 520.5,-1042.7 520.5,-1020.7 305.5,-1020.7"/>
<image xlink:href="../../images/foreignKeys.png" width="11px" height="12px" preserveAspectRatio="xMinYMin meet" x="310.5" y="-1037.7"/>
<text text-anchor="start" x="326.5" y="-1027.8" font-family="Helvetica,sans-Serif" font-size="11.00" fill="#000000">person_identifier</text>
<polygon fill="none" stroke="#000000" points="305.5,-1001.7 305.5,-1020.7 520.5,-1020.7 520.5,-1001.7 305.5,-1001.7"/>
<text text-anchor="start" x="308.5" y="-1007.8" font-family="Helvetica,sans-Serif" font-size="11.00" fill="#000000">...</text>
</a>
</g>
</g>
<!-- person_summary -->
<g id="node2" class="node">
<title>person_summary</title>
<g id="a_node2"><a xlink:href="../../tables/person_summary.html" xlink:title="person_summary" target="_top">
<polygon fill="#ffffff" stroke="transparent" points="8,-512.7 8,-690.7 209,-690.7 209,-512.7 8,-512.7"/>
<polygon fill="#f5f5f5" stroke="transparent" points="10.5,-665.7 10.5,-688.7 207.5,-688.7 207.5,-665.7 10.5,-665.7"/>
<polygon fill="none" stroke="#000000" points="10.5,-665.7 10.5,-688.7 207.5,-688.7 207.5,-665.7 10.5,-665.7"/>
<text text-anchor="start" x="15.5" y="-674.3" font-family="Helvetica,sans-Serif" font-weight="bold" font-size="11.00" fill="#000000">person_summary</text>
<text text-anchor="start" x="172.5437" y="-673.8" font-family="Helvetica,sans-Serif" font-size="11.00" fill="#000000">[table]</text>
<polygon fill="none" stroke="#000000" points="10.5,-643.7 10.5,-665.7 146.5,-665.7 146.5,-643.7 10.5,-643.7"/>
<image xlink:href="../../images/primaryKeys.png" width="11px" height="12px" preserveAspectRatio="xMinYMin meet" x="15.5" y="-660.7"/>
<text text-anchor="start" x="30.5" y="-650.8" font-family="Helvetica,sans-Serif" font-size="11.00" fill="#000000">person_identifier</text>
<polygon fill="none" stroke="#000000" points="146.5,-643.7 146.5,-665.7 207.5,-665.7 207.5,-643.7 146.5,-643.7"/>
<text text-anchor="start" x="149.494" y="-651.4" font-family="Helvetica,sans-Serif" font-size="11.00" fill="#000000">varchar[10]</text>
<polygon fill="none" stroke="#000000" points="10.5,-621.7 10.5,-643.7 146.5,-643.7 146.5,-621.7 10.5,-621.7"/>
<text text-anchor="start" x="30.5" y="-628.8" font-family="Helvetica,sans-Serif" font-size="11.00" fill="#000000">first_name</text>
<polygon fill="none" stroke="#000000" points="146.5,-621.7 146.5,-643.7 207.5,-643.7 207.5,-621.7 146.5,-621.7"/>
<text text-anchor="start" x="149.494" y="-629.4" font-family="Helvetica,sans-Serif" font-size="11.00" fill="#000000">varchar[64]</text>
<polygon fill="none" stroke="#000000" points="10.5,-599.7 10.5,-621.7 146.5,-621.7 146.5,-599.7 10.5,-599.7"/>
<text text-anchor="start" x="30.5" y="-606.8" font-family="Helvetica,sans-Serif" font-size="11.00" fill="#000000">last_name</text>
<polygon fill="none" stroke="#000000" points="146.5,-599.7 146.5,-621.7 207.5,-621.7 207.5,-599.7 146.5,-599.7"/>
<text text-anchor="start" x="149.494" y="-607.4" font-family="Helvetica,sans-Serif" font-size="11.00" fill="#000000">varchar[64]</text>
<polygon fill="none" stroke="#000000" points="10.5,-577.7 10.5,-599.7 146.5,-599.7 146.5,-577.7 10.5,-577.7"/>
<text text-anchor="start" x="30.5" y="-584.8" font-family="Helvetica,sans-Serif" font-size="11.00" fill="#000000">date_of_birth</text>
<polygon fill="none" stroke="#000000" points="146.5,-577.7 146.5,-599.7 207.5,-599.7 207.5,-577.7 146.5,-577.7"/>
<text text-anchor="start" x="149.5" y="-585.4" font-family="Helvetica,sans-Serif" font-size="11.00" fill="#000000">date[13]</text>
<polygon fill="none" stroke="#000000" points="10.5,-555.7 10.5,-577.7 146.5,-577.7 146.5,-555.7 10.5,-555.7"/>
<text text-anchor="start" x="30.5" y="-562.8" font-family="Helvetica,sans-Serif" font-size="11.00" fill="#000000">cell_location</text>
<polygon fill="none" stroke="#000000" points="146.5,-555.7 146.5,-577.7 207.5,-577.7 207.5,-555.7 146.5,-555.7"/>
<text text-anchor="start" x="149.494" y="-563.4" font-family="Helvetica,sans-Serif" font-size="11.00" fill="#000000">varchar[64]</text>
<polygon fill="none" stroke="#000000" points="10.5,-533.7 10.5,-555.7 146.5,-555.7 146.5,-533.7 10.5,-533.7"/>
<text text-anchor="start" x="30.5" y="-540.8" font-family="Helvetica,sans-Serif" font-size="11.00" fill="#000000">version</text>
<polygon fill="none" stroke="#000000" points="146.5,-533.7 146.5,-555.7 207.5,-555.7 207.5,-533.7 146.5,-533.7"/>
<text text-anchor="start" x="149.5" y="-541.4" font-family="Helvetica,sans-Serif" font-size="11.00" fill="#000000">int4[10]</text>
<polygon fill="#ffffff" stroke="transparent" points="10.5,-514.7 10.5,-533.7 82.5,-533.7 82.5,-514.7 10.5,-514.7"/>
<polygon fill="none" stroke="#000000" points="10.5,-514.7 10.5,-533.7 82.5,-533.7 82.5,-514.7 10.5,-514.7"/>
<text text-anchor="start" x="13.5" y="-520.8" font-family="Helvetica,sans-Serif" font-size="11.00" fill="#000000">&lt; 0</text>
<polygon fill="#ffffff" stroke="transparent" points="82.5,-514.7 82.5,-533.7 146.5,-533.7 146.5,-514.7 82.5,-514.7"/>
<polygon fill="none" stroke="#000000" points="82.5,-514.7 82.5,-533.7 146.5,-533.7 146.5,-514.7 82.5,-514.7"/>
<text text-anchor="start" x="137.3862" y="-520.8" font-family="Helvetica,sans-Serif" font-size="11.00" fill="#000000"> &#160;</text>
<polygon fill="#ffffff" stroke="transparent" points="146.5,-514.7 146.5,-533.7 207.5,-533.7 207.5,-514.7 146.5,-514.7"/>
<polygon fill="none" stroke="#000000" points="146.5,-514.7 146.5,-533.7 207.5,-533.7 207.5,-514.7 146.5,-514.7"/>
<text text-anchor="start" x="188.9053" y="-520.8" font-family="Helvetica,sans-Serif" font-size="11.00" fill="#000000">6 &gt;</text>
<polygon fill="none" stroke="#000000" stroke-width="2" points="9,-513.7 9,-689.7 208,-689.7 208,-513.7 9,-513.7"/>
</a>
</g>
</g>
<!-- audited_tap_authorisation&#45;&gt;person_summary -->
<g id="edge1" class="edge">
<title>audited_tap_authorisation:w&#45;&gt;person_summary:e</title>
<path fill="none" stroke="#000000" stroke-dasharray="5,2" d="M290.9723,-1030.3669C271.4631,-1026.3235 262.7352,-1013.1457 250,-991.7 211.4594,-926.7988 282.9821,-654.7 207.5,-654.7"/>
<polygon fill="#000000" stroke="#000000" points="297.5335,-1030.9689 305.171,-1035.2849 301.5167,-1031.3345 305.5,-1031.7 305.5,-1031.7 305.5,-1031.7 301.5167,-1031.3345 305.829,-1028.1151 297.5335,-1030.9689 297.5335,-1030.9689"/>
<ellipse fill="none" stroke="#000000" cx="294.3469" cy="-1030.6765" rx="3.2" ry="3.2"/>
</g>
<!-- audited_tap_movement -->
<g id="node3" class="node">
<title>audited_tap_movement</title>
<g id="a_node3"><a xlink:href="../../tables/audited_tap_movement.html" xlink:title="audited_tap_movement" target="_top">
<polygon fill="#ffffff" stroke="transparent" points="315,-916.7 315,-980.7 510,-980.7 510,-916.7 315,-916.7"/>
<polygon fill="#f5f5f5" stroke="transparent" points="315.5,-957.7 315.5,-980.7 510.5,-980.7 510.5,-957.7 315.5,-957.7"/>
<polygon fill="none" stroke="#000000" points="315.5,-957.7 315.5,-980.7 510.5,-980.7 510.5,-957.7 315.5,-957.7"/>
<text text-anchor="start" x="320.5" y="-966.3" font-family="Helvetica,sans-Serif" font-weight="bold" font-size="11.00" fill="#000000">audited_tap_movement</text>
<text text-anchor="start" x="477.4448" y="-965.8" font-family="Helvetica,sans-Serif" font-size="11.00" fill="#000000">[view]</text>
<polygon fill="none" stroke="#000000" points="315.5,-935.7 315.5,-957.7 510.5,-957.7 510.5,-935.7 315.5,-935.7"/>
<image xlink:href="../../images/foreignKeys.png" width="11px" height="12px" preserveAspectRatio="xMinYMin meet" x="320.5" y="-952.7"/>
<text text-anchor="start" x="338.5" y="-942.8" font-family="Helvetica,sans-Serif" font-size="11.00" fill="#000000">person_identifier</text>
<polygon fill="none" stroke="#000000" points="315.5,-916.7 315.5,-935.7 510.5,-935.7 510.5,-916.7 315.5,-916.7"/>
<text text-anchor="start" x="318.5" y="-922.8" font-family="Helvetica,sans-Serif" font-size="11.00" fill="#000000">...</text>
</a>
</g>
</g>
<!-- audited_tap_movement&#45;&gt;person_summary -->
<g id="edge2" class="edge">
<title>audited_tap_movement:w&#45;&gt;person_summary:e</title>
<path fill="none" stroke="#000000" stroke-dasharray="5,2" d="M300.9216,-945.7739C277.2157,-942.415 266.1129,-929.7848 250,-905.7 218.5435,-858.6804 264.0717,-654.7 207.5,-654.7"/>
<polygon fill="#000000" stroke="#000000" points="307.5161,-946.1928 315.2717,-950.2928 311.508,-946.4464 315.5,-946.7 315.5,-946.7 315.5,-946.7 311.508,-946.4464 315.7283,-943.1072 307.5161,-946.1928 307.5161,-946.1928"/>
<ellipse fill="none" stroke="#000000" cx="304.3225" cy="-945.9899" rx="3.2" ry="3.2"/>
</g>
<!-- temporary_absence_authorisation -->
<g id="node4" class="node">
<title>temporary_absence_authorisation</title>
<g id="a_node4"><a xlink:href="../../tables/temporary_absence_authorisation.html" xlink:title="temporary_absence_authorisation" target="_top">
<polygon fill="#ffffff" stroke="transparent" points="278.5,-570.2 278.5,-895.2 546.5,-895.2 546.5,-570.2 278.5,-570.2"/>
<polygon fill="#f5f5f5" stroke="transparent" points="278.5,-871.7 278.5,-894.7 546.5,-894.7 546.5,-871.7 278.5,-871.7"/>
<polygon fill="none" stroke="#000000" points="278.5,-871.7 278.5,-894.7 546.5,-894.7 546.5,-871.7 278.5,-871.7"/>
<text text-anchor="start" x="283.5" y="-880.3" font-family="Helvetica,sans-Serif" font-weight="bold" font-size="11.00" fill="#000000">temporary_absence_authorisation</text>
<text text-anchor="start" x="512.0219" y="-879.8" font-family="Helvetica,sans-Serif" font-size="11.00" fill="#000000">[table]</text>
<polygon fill="none" stroke="#000000" points="278.5,-849.7 278.5,-871.7 546.5,-871.7 546.5,-849.7 278.5,-849.7"/>
<image xlink:href="../../images/primaryKeys.png" width="11px" height="12px" preserveAspectRatio="xMinYMin meet" x="283.5" y="-866.7"/>
<text text-anchor="start" x="307.5" y="-856.8" font-family="Helvetica,sans-Serif" font-size="11.00" fill="#000000">id</text>
<polygon fill="#ffffff" stroke="transparent" points="278.5,-827.7 278.5,-849.7 546.5,-849.7 546.5,-827.7 278.5,-827.7"/>
<polygon fill="none" stroke="#000000" points="278.5,-827.7 278.5,-849.7 546.5,-849.7 546.5,-827.7 278.5,-827.7"/>
<image xlink:href="../../images/foreignKeys.png" width="11px" height="12px" preserveAspectRatio="xMinYMin meet" x="283.5" y="-844.7"/>
<text text-anchor="start" x="307.5" y="-834.8" font-family="Helvetica,sans-Serif" font-size="11.00" fill="#000000">person_identifier</text>
<polygon fill="#ffffff" stroke="transparent" points="278.5,-805.7 278.5,-827.7 546.5,-827.7 546.5,-805.7 278.5,-805.7"/>
<polygon fill="none" stroke="#000000" points="278.5,-805.7 278.5,-827.7 546.5,-827.7 546.5,-805.7 278.5,-805.7"/>
<text text-anchor="start" x="307.5" y="-812.8" font-family="Helvetica,sans-Serif" font-size="11.00" fill="#000000">prison_code</text>
<polygon fill="none" stroke="#000000" points="278.5,-783.7 278.5,-805.7 546.5,-805.7 546.5,-783.7 278.5,-783.7"/>
<image xlink:href="../../images/foreignKeys.png" width="11px" height="12px" preserveAspectRatio="xMinYMin meet" x="283.5" y="-800.7"/>
<text text-anchor="start" x="307.5" y="-790.8" font-family="Helvetica,sans-Serif" font-size="11.00" fill="#000000">absence_type_id</text>
<polygon fill="none" stroke="#000000" points="278.5,-761.7 278.5,-783.7 546.5,-783.7 546.5,-761.7 278.5,-761.7"/>
<image xlink:href="../../images/foreignKeys.png" width="11px" height="12px" preserveAspectRatio="xMinYMin meet" x="283.5" y="-778.7"/>
<text text-anchor="start" x="307.5" y="-768.8" font-family="Helvetica,sans-Serif" font-size="11.00" fill="#000000">absence_sub_type_id</text>
<polygon fill="none" stroke="#000000" points="278.5,-739.7 278.5,-761.7 546.5,-761.7 546.5,-739.7 278.5,-739.7"/>
<image xlink:href="../../images/foreignKeys.png" width="11px" height="12px" preserveAspectRatio="xMinYMin meet" x="283.5" y="-756.7"/>
<text text-anchor="start" x="307.5" y="-746.8" font-family="Helvetica,sans-Serif" font-size="11.00" fill="#000000">absence_reason_id</text>
<polygon fill="none" stroke="#000000" points="278.5,-717.7 278.5,-739.7 546.5,-739.7 546.5,-717.7 278.5,-717.7"/>
<image xlink:href="../../images/foreignKeys.png" width="11px" height="12px" preserveAspectRatio="xMinYMin meet" x="283.5" y="-734.7"/>
<text text-anchor="start" x="307.5" y="-724.8" font-family="Helvetica,sans-Serif" font-size="11.00" fill="#000000">status_id</text>
<polygon fill="#ffffff" stroke="transparent" points="278.5,-695.7 278.5,-717.7 546.5,-717.7 546.5,-695.7 278.5,-695.7"/>
<polygon fill="none" stroke="#000000" points="278.5,-695.7 278.5,-717.7 546.5,-717.7 546.5,-695.7 278.5,-695.7"/>
<text text-anchor="start" x="307.5" y="-702.8" font-family="Helvetica,sans-Serif" font-size="11.00" fill="#000000">legacy_id</text>
<polygon fill="#ffffff" stroke="transparent" points="278.5,-673.7 278.5,-695.7 546.5,-695.7 546.5,-673.7 278.5,-673.7"/>
<polygon fill="none" stroke="#000000" points="278.5,-673.7 278.5,-695.7 546.5,-695.7 546.5,-673.7 278.5,-673.7"/>
<text text-anchor="start" x="307.5" y="-680.8" font-family="Helvetica,sans-Serif" font-size="11.00" fill="#000000">from_date</text>
<polygon fill="#ffffff" stroke="transparent" points="278.5,-651.7 278.5,-673.7 546.5,-673.7 546.5,-651.7 278.5,-651.7"/>
<polygon fill="none" stroke="#000000" points="278.5,-651.7 278.5,-673.7 546.5,-673.7 546.5,-651.7 278.5,-651.7"/>
<text text-anchor="start" x="307.5" y="-658.8" font-family="Helvetica,sans-Serif" font-size="11.00" fill="#000000">to_date</text>
<polygon fill="none" stroke="#000000" points="278.5,-629.7 278.5,-651.7 546.5,-651.7 546.5,-629.7 278.5,-629.7"/>
<image xlink:href="../../images/foreignKeys.png" width="11px" height="12px" preserveAspectRatio="xMinYMin meet" x="283.5" y="-646.7"/>
<text text-anchor="start" x="307.5" y="-636.8" font-family="Helvetica,sans-Serif" font-size="11.00" fill="#000000">absence_reason_category_id</text>
<polygon fill="none" stroke="#000000" points="278.5,-607.7 278.5,-629.7 546.5,-629.7 546.5,-607.7 278.5,-607.7"/>
<image xlink:href="../../images/foreignKeys.png" width="11px" height="12px" preserveAspectRatio="xMinYMin meet" x="283.5" y="-624.7"/>
<text text-anchor="start" x="307.5" y="-614.8" font-family="Helvetica,sans-Serif" font-size="11.00" fill="#000000">accompanied_by_id</text>
<polygon fill="none" stroke="#000000" points="278.5,-588.7 278.5,-607.7 546.5,-607.7 546.5,-588.7 278.5,-588.7"/>
<text text-anchor="start" x="281.5" y="-594.8" font-family="Helvetica,sans-Serif" font-size="11.00" fill="#000000">...</text>
<polygon fill="#ffffff" stroke="transparent" points="278.5,-569.7 278.5,-588.7 406.5,-588.7 406.5,-569.7 278.5,-569.7"/>
<polygon fill="none" stroke="#000000" points="278.5,-569.7 278.5,-588.7 406.5,-588.7 406.5,-569.7 278.5,-569.7"/>
<text text-anchor="start" x="281.5" y="-575.8" font-family="Helvetica,sans-Serif" font-size="11.00" fill="#000000">&lt; 7</text>
<polygon fill="#ffffff" stroke="transparent" points="406.5,-569.7 406.5,-588.7 471.5,-588.7 471.5,-569.7 406.5,-569.7"/>
<polygon fill="none" stroke="#000000" points="406.5,-569.7 406.5,-588.7 471.5,-588.7 471.5,-569.7 406.5,-569.7"/>
<text text-anchor="start" x="462.3862" y="-575.8" font-family="Helvetica,sans-Serif" font-size="11.00" fill="#000000"> &#160;</text>
<polygon fill="#ffffff" stroke="transparent" points="471.5,-569.7 471.5,-588.7 546.5,-588.7 546.5,-569.7 471.5,-569.7"/>
<polygon fill="none" stroke="#000000" points="471.5,-569.7 471.5,-588.7 546.5,-588.7 546.5,-569.7 471.5,-569.7"/>
<text text-anchor="start" x="527.9053" y="-575.8" font-family="Helvetica,sans-Serif" font-size="11.00" fill="#000000">1 &gt;</text>
</a>
</g>
</g>
<!-- temporary_absence_authorisation&#45;&gt;person_summary -->
<g id="edge3" class="edge">
<title>temporary_absence_authorisation:w&#45;&gt;person_summary:e</title>
<path fill="none" stroke="#000000" d="M264.2206,-836.6336C203.1341,-816.4188 289.6763,-654.7 207.5,-654.7"/>
<polygon fill="#000000" stroke="#000000" points="270.5825,-837.5542 277.9844,-842.2629 274.5412,-838.1271 278.5,-838.7 278.5,-838.7 278.5,-838.7 274.5412,-838.1271 279.0156,-835.1371 270.5825,-837.5542 270.5825,-837.5542"/>
<ellipse fill="none" stroke="#000000" cx="267.4155" cy="-837.0959" rx="3.2" ry="3.2"/>
</g>
<!-- temporary_absence_authorisation_audit -->
<g id="node5" class="node">
<title>temporary_absence_authorisation_audit</title>
<g id="a_node5"><a xlink:href="../../tables/temporary_absence_authorisation_audit.html" xlink:title="temporary_absence_authorisation_audit" target="_top">
<polygon fill="#ffffff" stroke="transparent" points="258,-422.2 258,-549.2 567,-549.2 567,-422.2 258,-422.2"/>
<polygon fill="#f5f5f5" stroke="transparent" points="258.5,-525.7 258.5,-548.7 567.5,-548.7 567.5,-525.7 258.5,-525.7"/>
<polygon fill="none" stroke="#000000" points="258.5,-525.7 258.5,-548.7 567.5,-548.7 567.5,-525.7 258.5,-525.7"/>
<text text-anchor="start" x="263.5" y="-534.3" font-family="Helvetica,sans-Serif" font-weight="bold" font-size="11.00" fill="#000000">temporary_absence_authorisation_audit</text>
<text text-anchor="start" x="533.0219" y="-533.8" font-family="Helvetica,sans-Serif" font-size="11.00" fill="#000000">[table]</text>
<polygon fill="none" stroke="#000000" points="258.5,-503.7 258.5,-525.7 567.5,-525.7 567.5,-503.7 258.5,-503.7"/>
<image xlink:href="../../images/primaryKeys.png" width="11px" height="12px" preserveAspectRatio="xMinYMin meet" x="263.5" y="-520.7"/>
<text text-anchor="start" x="287.5" y="-510.8" font-family="Helvetica,sans-Serif" font-size="11.00" fill="#000000">rev_id</text>
<polygon fill="none" stroke="#000000" points="258.5,-481.7 258.5,-503.7 567.5,-503.7 567.5,-481.7 258.5,-481.7"/>
<image xlink:href="../../images/primaryKeys.png" width="11px" height="12px" preserveAspectRatio="xMinYMin meet" x="263.5" y="-498.7"/>
<text text-anchor="start" x="287.5" y="-488.8" font-family="Helvetica,sans-Serif" font-size="11.00" fill="#000000">id</text>
<polygon fill="none" stroke="#000000" points="258.5,-459.7 258.5,-481.7 567.5,-481.7 567.5,-459.7 258.5,-459.7"/>
<image xlink:href="../../images/foreignKeys.png" width="11px" height="12px" preserveAspectRatio="xMinYMin meet" x="263.5" y="-476.7"/>
<text text-anchor="start" x="287.5" y="-466.8" font-family="Helvetica,sans-Serif" font-size="11.00" fill="#000000">person_identifier</text>
<polygon fill="none" stroke="#000000" points="258.5,-440.7 258.5,-459.7 567.5,-459.7 567.5,-440.7 258.5,-440.7"/>
<text text-anchor="start" x="261.5" y="-446.8" font-family="Helvetica,sans-Serif" font-size="11.00" fill="#000000">...</text>
<polygon fill="#ffffff" stroke="transparent" points="258.5,-421.7 258.5,-440.7 411.5,-440.7 411.5,-421.7 258.5,-421.7"/>
<polygon fill="none" stroke="#000000" points="258.5,-421.7 258.5,-440.7 411.5,-440.7 411.5,-421.7 258.5,-421.7"/>
<text text-anchor="start" x="261.5" y="-427.8" font-family="Helvetica,sans-Serif" font-size="11.00" fill="#000000">&lt; 2</text>
<polygon fill="#ffffff" stroke="transparent" points="411.5,-421.7 411.5,-440.7 489.5,-440.7 489.5,-421.7 411.5,-421.7"/>
<polygon fill="none" stroke="#000000" points="411.5,-421.7 411.5,-440.7 489.5,-440.7 489.5,-421.7 411.5,-421.7"/>
<text text-anchor="start" x="480.3862" y="-427.8" font-family="Helvetica,sans-Serif" font-size="11.00" fill="#000000"> &#160;</text>
<polygon fill="#ffffff" stroke="transparent" points="489.5,-421.7 489.5,-440.7 567.5,-440.7 567.5,-421.7 489.5,-421.7"/>
<polygon fill="none" stroke="#000000" points="489.5,-421.7 489.5,-440.7 567.5,-440.7 567.5,-421.7 489.5,-421.7"/>
<text text-anchor="start" x="558.3862" y="-427.8" font-family="Helvetica,sans-Serif" font-size="11.00" fill="#000000"> &#160;</text>
</a>
</g>
</g>
<!-- temporary_absence_authorisation_audit&#45;&gt;person_summary -->
<g id="edge4" class="edge">
<title>temporary_absence_authorisation_audit:w&#45;&gt;person_summary:e</title>
<path fill="none" stroke="#000000" stroke-dasharray="5,2" d="M244.1681,-473.0264C188.509,-494.3261 286.7257,-654.7 207.5,-654.7"/>
<polygon fill="#000000" stroke="#000000" points="250.6034,-471.9819 259.0768,-474.2535 254.5517,-471.3409 258.5,-470.7 258.5,-470.7 258.5,-470.7 254.5517,-471.3409 257.9232,-467.1465 250.6034,-471.9819 250.6034,-471.9819"/>
<ellipse fill="none" stroke="#000000" cx="247.4447" cy="-472.4946" rx="3.2" ry="3.2"/>
</g>
<!-- temporary_absence_movement -->
<g id="node6" class="node">
<title>temporary_absence_movement</title>
<g id="a_node6"><a xlink:href="../../tables/temporary_absence_movement.html" xlink:title="temporary_absence_movement" target="_top">
<polygon fill="#ffffff" stroke="transparent" points="288,-186.2 288,-401.2 537,-401.2 537,-186.2 288,-186.2"/>
<polygon fill="#f5f5f5" stroke="transparent" points="288.5,-377.7 288.5,-400.7 537.5,-400.7 537.5,-377.7 288.5,-377.7"/>
<polygon fill="none" stroke="#000000" points="288.5,-377.7 288.5,-400.7 537.5,-400.7 537.5,-377.7 288.5,-377.7"/>
<text text-anchor="start" x="293.5" y="-386.3" font-family="Helvetica,sans-Serif" font-weight="bold" font-size="11.00" fill="#000000">temporary_absence_movement</text>
<text text-anchor="start" x="503.0219" y="-385.8" font-family="Helvetica,sans-Serif" font-size="11.00" fill="#000000">[table]</text>
<polygon fill="none" stroke="#000000" points="288.5,-355.7 288.5,-377.7 537.5,-377.7 537.5,-355.7 288.5,-355.7"/>
<image xlink:href="../../images/primaryKeys.png" width="11px" height="12px" preserveAspectRatio="xMinYMin meet" x="293.5" y="-372.7"/>
<text text-anchor="start" x="317.5" y="-362.8" font-family="Helvetica,sans-Serif" font-size="11.00" fill="#000000">id</text>
<polygon fill="#ffffff" stroke="transparent" points="288.5,-333.7 288.5,-355.7 537.5,-355.7 537.5,-333.7 288.5,-333.7"/>
<polygon fill="none" stroke="#000000" points="288.5,-333.7 288.5,-355.7 537.5,-355.7 537.5,-333.7 288.5,-333.7"/>
<image xlink:href="../../images/foreignKeys.png" width="11px" height="12px" preserveAspectRatio="xMinYMin meet" x="293.5" y="-350.7"/>
<text text-anchor="start" x="317.5" y="-340.8" font-family="Helvetica,sans-Serif" font-size="11.00" fill="#000000">person_identifier</text>
<polygon fill="none" stroke="#000000" points="288.5,-311.7 288.5,-333.7 537.5,-333.7 537.5,-311.7 288.5,-311.7"/>
<image xlink:href="../../images/foreignKeys.png" width="11px" height="12px" preserveAspectRatio="xMinYMin meet" x="293.5" y="-328.7"/>
<text text-anchor="start" x="317.5" y="-318.8" font-family="Helvetica,sans-Serif" font-size="11.00" fill="#000000">occurrence_id</text>
<polygon fill="#ffffff" stroke="transparent" points="288.5,-289.7 288.5,-311.7 537.5,-311.7 537.5,-289.7 288.5,-289.7"/>
<polygon fill="none" stroke="#000000" points="288.5,-289.7 288.5,-311.7 537.5,-311.7 537.5,-289.7 288.5,-289.7"/>
<text text-anchor="start" x="317.5" y="-296.8" font-family="Helvetica,sans-Serif" font-size="11.00" fill="#000000">occurred_at</text>
<polygon fill="none" stroke="#000000" points="288.5,-267.7 288.5,-289.7 537.5,-289.7 537.5,-267.7 288.5,-267.7"/>
<image xlink:href="../../images/foreignKeys.png" width="11px" height="12px" preserveAspectRatio="xMinYMin meet" x="293.5" y="-284.7"/>
<text text-anchor="start" x="317.5" y="-274.8" font-family="Helvetica,sans-Serif" font-size="11.00" fill="#000000">absence_reason_id</text>
<polygon fill="none" stroke="#000000" points="288.5,-245.7 288.5,-267.7 537.5,-267.7 537.5,-245.7 288.5,-245.7"/>
<image xlink:href="../../images/foreignKeys.png" width="11px" height="12px" preserveAspectRatio="xMinYMin meet" x="293.5" y="-262.7"/>
<text text-anchor="start" x="317.5" y="-252.8" font-family="Helvetica,sans-Serif" font-size="11.00" fill="#000000">accompanied_by_id</text>
<polygon fill="#ffffff" stroke="transparent" points="288.5,-223.7 288.5,-245.7 537.5,-245.7 537.5,-223.7 288.5,-223.7"/>
<polygon fill="none" stroke="#000000" points="288.5,-223.7 288.5,-245.7 537.5,-245.7 537.5,-223.7 288.5,-223.7"/>
<text text-anchor="start" x="317.5" y="-230.8" font-family="Helvetica,sans-Serif" font-size="11.00" fill="#000000">legacy_id</text>
<polygon fill="none" stroke="#000000" points="288.5,-204.7 288.5,-223.7 537.5,-223.7 537.5,-204.7 288.5,-204.7"/>
<text text-anchor="start" x="291.5" y="-210.8" font-family="Helvetica,sans-Serif" font-size="11.00" fill="#000000">...</text>
<polygon fill="#ffffff" stroke="transparent" points="288.5,-185.7 288.5,-204.7 411.5,-204.7 411.5,-185.7 288.5,-185.7"/>
<polygon fill="none" stroke="#000000" points="288.5,-185.7 288.5,-204.7 411.5,-204.7 411.5,-185.7 288.5,-185.7"/>
<text text-anchor="start" x="291.5" y="-191.8" font-family="Helvetica,sans-Serif" font-size="11.00" fill="#000000">&lt; 4</text>
<polygon fill="#ffffff" stroke="transparent" points="411.5,-185.7 411.5,-204.7 474.5,-204.7 474.5,-185.7 411.5,-185.7"/>
<polygon fill="none" stroke="#000000" points="411.5,-185.7 411.5,-204.7 474.5,-204.7 474.5,-185.7 411.5,-185.7"/>
<text text-anchor="start" x="465.3862" y="-191.8" font-family="Helvetica,sans-Serif" font-size="11.00" fill="#000000"> &#160;</text>
<polygon fill="#ffffff" stroke="transparent" points="474.5,-185.7 474.5,-204.7 537.5,-204.7 537.5,-185.7 474.5,-185.7"/>
<polygon fill="none" stroke="#000000" points="474.5,-185.7 474.5,-204.7 537.5,-204.7 537.5,-185.7 474.5,-185.7"/>
<text text-anchor="start" x="528.3862" y="-191.8" font-family="Helvetica,sans-Serif" font-size="11.00" fill="#000000"> &#160;</text>
</a>
</g>
</g>
<!-- temporary_absence_movement&#45;&gt;person_summary -->
<g id="edge5" class="edge">
<title>temporary_absence_movement:w&#45;&gt;person_summary:e</title>
<path fill="none" stroke="#000000" d="M274.1926,-347.5874C256.1782,-356.5593 259.6815,-384.9575 250,-411.7 231.339,-463.2457 262.3197,-654.7 207.5,-654.7"/>
<polygon fill="#000000" stroke="#000000" points="280.6581,-346.2826 289.2122,-348.2289 284.579,-345.4913 288.5,-344.7 288.5,-344.7 288.5,-344.7 284.579,-345.4913 287.7878,-341.1711 280.6581,-346.2826 280.6581,-346.2826"/>
<ellipse fill="none" stroke="#000000" cx="277.5213" cy="-346.9157" rx="3.2" ry="3.2"/>
</g>
<!-- temporary_absence_movement_audit -->
<g id="node7" class="node">
<title>temporary_absence_movement_audit</title>
<g id="a_node7"><a xlink:href="../../tables/temporary_absence_movement_audit.html" xlink:title="temporary_absence_movement_audit" target="_top">
<polygon fill="#ffffff" stroke="transparent" points="267.5,-38.2 267.5,-165.2 557.5,-165.2 557.5,-38.2 267.5,-38.2"/>
<polygon fill="#f5f5f5" stroke="transparent" points="267.5,-141.7 267.5,-164.7 557.5,-164.7 557.5,-141.7 267.5,-141.7"/>
<polygon fill="none" stroke="#000000" points="267.5,-141.7 267.5,-164.7 557.5,-164.7 557.5,-141.7 267.5,-141.7"/>
<text text-anchor="start" x="272.5" y="-150.3" font-family="Helvetica,sans-Serif" font-weight="bold" font-size="11.00" fill="#000000">temporary_absence_movement_audit</text>
<text text-anchor="start" x="523.0219" y="-149.8" font-family="Helvetica,sans-Serif" font-size="11.00" fill="#000000">[table]</text>
<polygon fill="none" stroke="#000000" points="267.5,-119.7 267.5,-141.7 557.5,-141.7 557.5,-119.7 267.5,-119.7"/>
<image xlink:href="../../images/primaryKeys.png" width="11px" height="12px" preserveAspectRatio="xMinYMin meet" x="272.5" y="-136.7"/>
<text text-anchor="start" x="296.5" y="-126.8" font-family="Helvetica,sans-Serif" font-size="11.00" fill="#000000">rev_id</text>
<polygon fill="none" stroke="#000000" points="267.5,-97.7 267.5,-119.7 557.5,-119.7 557.5,-97.7 267.5,-97.7"/>
<image xlink:href="../../images/primaryKeys.png" width="11px" height="12px" preserveAspectRatio="xMinYMin meet" x="272.5" y="-114.7"/>
<text text-anchor="start" x="296.5" y="-104.8" font-family="Helvetica,sans-Serif" font-size="11.00" fill="#000000">id</text>
<polygon fill="none" stroke="#000000" points="267.5,-75.7 267.5,-97.7 557.5,-97.7 557.5,-75.7 267.5,-75.7"/>
<image xlink:href="../../images/foreignKeys.png" width="11px" height="12px" preserveAspectRatio="xMinYMin meet" x="272.5" y="-92.7"/>
<text text-anchor="start" x="296.5" y="-82.8" font-family="Helvetica,sans-Serif" font-size="11.00" fill="#000000">person_identifier</text>
<polygon fill="none" stroke="#000000" points="267.5,-56.7 267.5,-75.7 557.5,-75.7 557.5,-56.7 267.5,-56.7"/>
<text text-anchor="start" x="270.5" y="-62.8" font-family="Helvetica,sans-Serif" font-size="11.00" fill="#000000">...</text>
<polygon fill="#ffffff" stroke="transparent" points="267.5,-37.7 267.5,-56.7 410.5,-56.7 410.5,-37.7 267.5,-37.7"/>
<polygon fill="none" stroke="#000000" points="267.5,-37.7 267.5,-56.7 410.5,-56.7 410.5,-37.7 267.5,-37.7"/>
<text text-anchor="start" x="270.5" y="-43.8" font-family="Helvetica,sans-Serif" font-size="11.00" fill="#000000">&lt; 2</text>
<polygon fill="#ffffff" stroke="transparent" points="410.5,-37.7 410.5,-56.7 483.5,-56.7 483.5,-37.7 410.5,-37.7"/>
<polygon fill="none" stroke="#000000" points="410.5,-37.7 410.5,-56.7 483.5,-56.7 483.5,-37.7 410.5,-37.7"/>
<text text-anchor="start" x="474.3862" y="-43.8" font-family="Helvetica,sans-Serif" font-size="11.00" fill="#000000"> &#160;</text>
<polygon fill="#ffffff" stroke="transparent" points="483.5,-37.7 483.5,-56.7 557.5,-56.7 557.5,-37.7 483.5,-37.7"/>
<polygon fill="none" stroke="#000000" points="483.5,-37.7 483.5,-56.7 557.5,-56.7 557.5,-37.7 483.5,-37.7"/>
<text text-anchor="start" x="548.3862" y="-43.8" font-family="Helvetica,sans-Serif" font-size="11.00" fill="#000000"> &#160;</text>
</a>
</g>
</g>
<!-- temporary_absence_movement_audit&#45;&gt;person_summary -->
<g id="edge6" class="edge">
<title>temporary_absence_movement_audit:w&#45;&gt;person_summary:e</title>
<path fill="none" stroke="#000000" stroke-dasharray="5,2" d="M255.6859,-95.1701C213.0295,-165.8275 266.3761,-654.7 207.5,-654.7"/>
<polygon fill="#000000" stroke="#000000" points="260.9983,-91.3614 269.5976,-89.6258 264.2492,-89.0307 267.5,-86.7 267.5,-86.7 267.5,-86.7 264.2492,-89.0307 265.4024,-83.7742 260.9983,-91.3614 260.9983,-91.3614"/>
<ellipse fill="none" stroke="#000000" cx="258.3977" cy="-93.226" rx="3.2" ry="3.2"/>
</g>
</g>
</svg>
