<?xml version="1.0" encoding="UTF-8" standalone="no"?>
<!DOCTYPE svg PUBLIC "-//W3C//DTD SVG 1.1//EN"
 "http://www.w3.org/Graphics/SVG/1.1/DTD/svg11.dtd">
<!-- Generated by graphviz version 2.40.1 (20161225.0304)
 -->
<!-- Title: twoDegreesRelationshipsDiagram Pages: 1 -->
<svg width="1331pt" height="444pt"
 viewBox="0.00 0.00 1331.00 443.70" xmlns="http://www.w3.org/2000/svg" xmlns:xlink="http://www.w3.org/1999/xlink">
<g id="graph0" class="graph" transform="scale(1 1) rotate(0) translate(4 439.7)">
<title>twoDegreesRelationshipsDiagram</title>
<polygon fill="#ffffff" stroke="transparent" points="-4,4 -4,-439.7 1327,-439.7 1327,4 -4,4"/>
<text text-anchor="middle" x="72.4936" y="-7.3" font-family="Helvetica,sans-Serif" font-size="11.00" fill="#000000">Generated by SchemaSpy</text>
<!-- reference_data -->
<g id="node1" class="node">
<title>reference_data</title>
<g id="a_node1"><a xlink:href="../../tables/reference_data.html" xlink:title="reference_data" target="_top">
<polygon fill="#ffffff" stroke="transparent" points="253,-217.2 253,-278.2 393,-278.2 393,-217.2 253,-217.2"/>
<polygon fill="#f5f5f5" stroke="transparent" points="253,-254.7 253,-277.7 393,-277.7 393,-254.7 253,-254.7"/>
<polygon fill="none" stroke="#000000" points="253,-254.7 253,-277.7 393,-277.7 393,-254.7 253,-254.7"/>
<text text-anchor="start" x="258" y="-263.3" font-family="Helvetica,sans-Serif" font-weight="bold" font-size="11.00" fill="#000000">reference_data</text>
<text text-anchor="start" x="358.5219" y="-262.8" font-family="Helvetica,sans-Serif" font-size="11.00" fill="#000000">[table]</text>
<polygon fill="none" stroke="#000000" points="253,-235.7 253,-254.7 393,-254.7 393,-235.7 253,-235.7"/>
<text text-anchor="start" x="256" y="-241.8" font-family="Helvetica,sans-Serif" font-size="11.00" fill="#000000">...</text>
<polygon fill="#ffffff" stroke="transparent" points="253,-216.7 253,-235.7 295,-235.7 295,-216.7 253,-216.7"/>
<polygon fill="none" stroke="#000000" points="253,-216.7 253,-235.7 295,-235.7 295,-216.7 253,-216.7"/>
<text text-anchor="start" x="256" y="-222.8" font-family="Helvetica,sans-Serif" font-size="11.00" fill="#000000">&lt; 1</text>
<polygon fill="#ffffff" stroke="transparent" points="295,-216.7 295,-235.7 355,-235.7 355,-216.7 295,-216.7"/>
<polygon fill="none" stroke="#000000" points="295,-216.7 295,-235.7 355,-235.7 355,-216.7 295,-216.7"/>
<text text-anchor="start" x="307.3807" y="-222.8" font-family="Helvetica,sans-Serif" font-size="11.00" fill="#000000">157 rows</text>
<polygon fill="#ffffff" stroke="transparent" points="355,-216.7 355,-235.7 393,-235.7 393,-216.7 355,-216.7"/>
<polygon fill="none" stroke="#000000" points="355,-216.7 355,-235.7 393,-235.7 393,-216.7 355,-216.7"/>
<text text-anchor="start" x="368.2904" y="-222.8" font-family="Helvetica,sans-Serif" font-size="11.00" fill="#000000">18 &gt;</text>
</a>
</g>
</g>
<!-- reference_data_domain -->
<g id="node2" class="node">
<title>reference_data_domain</title>
<g id="a_node2"><a xlink:href="../../tables/reference_data_domain.html" xlink:title="reference_data_domain" target="_top">
<polygon fill="#ffffff" stroke="transparent" points="8,-262.2 8,-323.2 204,-323.2 204,-262.2 8,-262.2"/>
<polygon fill="#f5f5f5" stroke="transparent" points="8,-299.7 8,-322.7 204,-322.7 204,-299.7 8,-299.7"/>
<polygon fill="none" stroke="#000000" points="8,-299.7 8,-322.7 204,-322.7 204,-299.7 8,-299.7"/>
<text text-anchor="start" x="13" y="-308.3" font-family="Helvetica,sans-Serif" font-weight="bold" font-size="11.00" fill="#000000">reference_data_domain</text>
<text text-anchor="start" x="169.5219" y="-307.8" font-family="Helvetica,sans-Serif" font-size="11.00" fill="#000000">[table]</text>
<polygon fill="none" stroke="#000000" points="8,-280.7 8,-299.7 204,-299.7 204,-280.7 8,-280.7"/>
<text text-anchor="start" x="11" y="-286.8" font-family="Helvetica,sans-Serif" font-size="11.00" fill="#000000">...</text>
<polygon fill="#ffffff" stroke="transparent" points="8,-261.7 8,-280.7 95,-280.7 95,-261.7 8,-261.7"/>
<polygon fill="none" stroke="#000000" points="8,-261.7 8,-280.7 95,-280.7 95,-261.7 8,-261.7"/>
<text text-anchor="start" x="11" y="-267.8" font-family="Helvetica,sans-Serif" font-size="11.00" fill="#000000"> &#160;</text>
<polygon fill="#ffffff" stroke="transparent" points="95,-261.7 95,-280.7 145,-280.7 145,-261.7 95,-261.7"/>
<polygon fill="none" stroke="#000000" points="95,-261.7 95,-280.7 145,-280.7 145,-261.7 95,-261.7"/>
<text text-anchor="start" x="135.8862" y="-267.8" font-family="Helvetica,sans-Serif" font-size="11.00" fill="#000000"> &#160;</text>
<polygon fill="#ffffff" stroke="transparent" points="145,-261.7 145,-280.7 204,-280.7 204,-261.7 145,-261.7"/>
<polygon fill="none" stroke="#000000" points="145,-261.7 145,-280.7 204,-280.7 204,-261.7 145,-261.7"/>
<text text-anchor="start" x="185.4053" y="-267.8" font-family="Helvetica,sans-Serif" font-size="11.00" fill="#000000">2 &gt;</text>
</a>
</g>
</g>
<!-- reference_data&#45;&gt;reference_data_domain -->
<g id="edge1" class="edge">
<title>reference_data:w&#45;&gt;reference_data_domain:e</title>
<path fill="none" stroke="#000000" d="M230.7227,-266.8359C224.5465,-268.1166 218.2986,-269.4123 212.0615,-270.7057"/>
<polygon fill="#000000" stroke="#000000" points="237.1313,-265.5069 245.6956,-267.4075 241.0479,-264.6947 244.9646,-263.8825 244.9646,-263.8825 244.9646,-263.8825 241.0479,-264.6947 244.2336,-260.3575 237.1313,-265.5069 237.1313,-265.5069"/>
<ellipse fill="none" stroke="#000000" cx="233.9979" cy="-266.1567" rx="3.2" ry="3.2"/>
</g>
<!-- reference_data_domain_link -->
<g id="node3" class="node">
<title>reference_data_domain_link</title>
<g id="a_node3"><a xlink:href="../../tables/reference_data_domain_link.html" xlink:title="reference_data_domain_link" target="_top">
<polygon fill="#ffffff" stroke="transparent" points="442,-341.7 442,-431.7 716,-431.7 716,-341.7 442,-341.7"/>
<polygon fill="#f5f5f5" stroke="transparent" points="444,-406.7 444,-429.7 714,-429.7 714,-406.7 444,-406.7"/>
<polygon fill="none" stroke="#000000" points="444,-406.7 444,-429.7 714,-429.7 714,-406.7 444,-406.7"/>
<text text-anchor="start" x="449" y="-415.3" font-family="Helvetica,sans-Serif" font-weight="bold" font-size="11.00" fill="#000000">reference_data_domain_link</text>
<text text-anchor="start" x="679.0437" y="-414.8" font-family="Helvetica,sans-Serif" font-size="11.00" fill="#000000">[table]</text>
<polygon fill="none" stroke="#000000" points="444,-384.7 444,-406.7 653,-406.7 653,-384.7 444,-384.7"/>
<image xlink:href="../../images/primaryKeys.png" width="11px" height="12px" preserveAspectRatio="xMinYMin meet" x="449" y="-401.7"/>
<text text-anchor="start" x="464" y="-391.8" font-family="Helvetica,sans-Serif" font-size="11.00" fill="#000000">id</text>
<polygon fill="none" stroke="#000000" points="653,-384.7 653,-406.7 714,-406.7 714,-384.7 653,-384.7"/>
<text text-anchor="start" x="656" y="-392.4" font-family="Helvetica,sans-Serif" font-size="11.00" fill="#000000">int8[19]</text>
<polygon fill="none" stroke="#000000" points="444,-362.7 444,-384.7 653,-384.7 653,-362.7 444,-362.7"/>
<image xlink:href="../../images/foreignKeys.png" width="11px" height="12px" preserveAspectRatio="xMinYMin meet" x="449" y="-379.7"/>
<text text-anchor="start" x="464" y="-369.8" font-family="Helvetica,sans-Serif" font-size="11.00" fill="#000000">domain</text>
<polygon fill="none" stroke="#000000" points="653,-362.7 653,-384.7 714,-384.7 714,-362.7 653,-362.7"/>
<text text-anchor="start" x="655.994" y="-370.4" font-family="Helvetica,sans-Serif" font-size="11.00" fill="#000000">varchar[32]</text>
<polygon fill="#ffffff" stroke="transparent" points="444,-343.7 444,-362.7 553,-362.7 553,-343.7 444,-343.7"/>
<polygon fill="none" stroke="#000000" points="444,-343.7 444,-362.7 553,-362.7 553,-343.7 444,-343.7"/>
<text text-anchor="start" x="447" y="-349.8" font-family="Helvetica,sans-Serif" font-size="11.00" fill="#000000">&lt; 2</text>
<polygon fill="#ffffff" stroke="transparent" points="553,-343.7 553,-362.7 653,-362.7 653,-343.7 553,-343.7"/>
<polygon fill="none" stroke="#000000" points="553,-343.7 553,-362.7 653,-362.7 653,-343.7 553,-343.7"/>
<text text-anchor="start" x="643.8862" y="-349.8" font-family="Helvetica,sans-Serif" font-size="11.00" fill="#000000"> &#160;</text>
<polygon fill="#ffffff" stroke="transparent" points="653,-343.7 653,-362.7 714,-362.7 714,-343.7 653,-343.7"/>
<polygon fill="none" stroke="#000000" points="653,-343.7 653,-362.7 714,-362.7 714,-343.7 653,-343.7"/>
<text text-anchor="start" x="695.4053" y="-349.8" font-family="Helvetica,sans-Serif" font-size="11.00" fill="#000000">0 &gt;</text>
<polygon fill="none" stroke="#000000" stroke-width="2" points="443,-342.7 443,-430.7 715,-430.7 715,-342.7 443,-342.7"/>
</a>
</g>
</g>
<!-- reference_data_domain_link&#45;&gt;reference_data -->
<g id="edge3" class="edge">
<title>reference_data_domain_link:w&#45;&gt;reference_data:e</title>
<path fill="none" stroke="#000000" d="M433.6712,-394.2379C411.1457,-386.8046 420.6475,-352.586 401,-327.7 388.6194,-312.0184 373.5746,-296.0051 360.0137,-282.4656"/>
<polygon fill="#000000" stroke="#000000" points="443.7686,-391.6274 442.6472,-399.5484 441.063,-399.3241 442.1844,-391.4031 443.7686,-391.6274"/>
<polyline fill="none" stroke="#000000" points="444,-395.7 440.0395,-395.1393 "/>
<ellipse fill="none" stroke="#000000" cx="436.8711" cy="-394.6908" rx="3.2" ry="3.2"/>
</g>
<!-- reference_data_domain_link&#45;&gt;reference_data_domain -->
<g id="edge2" class="edge">
<title>reference_data_domain_link:w&#45;&gt;reference_data_domain:e</title>
<path fill="none" stroke="#000000" d="M429.5161,-373.47C348.7089,-370.9438 261.8862,-348.0548 198.55,-327.2862"/>
<polygon fill="#000000" stroke="#000000" points="436.001,-373.5729 443.9428,-377.2995 440.0005,-373.6365 444,-373.7 444,-373.7 444,-373.7 440.0005,-373.6365 444.0572,-370.1005 436.001,-373.5729 436.001,-373.5729"/>
<ellipse fill="none" stroke="#000000" cx="432.8014" cy="-373.5221" rx="3.2" ry="3.2"/>
</g>
<!-- reference_data_link -->
<g id="node4" class="node">
<title>reference_data_link</title>
<g id="a_node4"><a xlink:href="../../tables/reference_data_link.html" xlink:title="reference_data_link" target="_top">
<polygon fill="#ffffff" stroke="transparent" points="493.5,-38.2 493.5,-99.2 664.5,-99.2 664.5,-38.2 493.5,-38.2"/>
<polygon fill="#f5f5f5" stroke="transparent" points="494,-75.7 494,-98.7 665,-98.7 665,-75.7 494,-75.7"/>
<polygon fill="none" stroke="#000000" points="494,-75.7 494,-98.7 665,-98.7 665,-75.7 494,-75.7"/>
<text text-anchor="start" x="499" y="-84.3" font-family="Helvetica,sans-Serif" font-weight="bold" font-size="11.00" fill="#000000">reference_data_link</text>
<text text-anchor="start" x="630.5219" y="-83.8" font-family="Helvetica,sans-Serif" font-size="11.00" fill="#000000">[table]</text>
<polygon fill="none" stroke="#000000" points="494,-56.7 494,-75.7 665,-75.7 665,-56.7 494,-56.7"/>
<text text-anchor="start" x="497" y="-62.8" font-family="Helvetica,sans-Serif" font-size="11.00" fill="#000000">...</text>
<polygon fill="#ffffff" stroke="transparent" points="494,-37.7 494,-56.7 562,-56.7 562,-37.7 494,-37.7"/>
<polygon fill="none" stroke="#000000" points="494,-37.7 494,-56.7 562,-56.7 562,-37.7 494,-37.7"/>
<text text-anchor="start" x="497" y="-43.8" font-family="Helvetica,sans-Serif" font-size="11.00" fill="#000000">&lt; 2</text>
<polygon fill="#ffffff" stroke="transparent" points="562,-37.7 562,-56.7 629,-56.7 629,-37.7 562,-37.7"/>
<polygon fill="none" stroke="#000000" points="562,-37.7 562,-56.7 629,-56.7 629,-37.7 562,-37.7"/>
<text text-anchor="start" x="587.4956" y="-43.8" font-family="Helvetica,sans-Serif" font-size="11.00" fill="#000000">64 rows</text>
<polygon fill="#ffffff" stroke="transparent" points="629,-37.7 629,-56.7 665,-56.7 665,-37.7 629,-37.7"/>
<polygon fill="none" stroke="#000000" points="629,-37.7 629,-56.7 665,-56.7 665,-37.7 629,-37.7"/>
<text text-anchor="start" x="655.8862" y="-43.8" font-family="Helvetica,sans-Serif" font-size="11.00" fill="#000000"> &#160;</text>
</a>
</g>
</g>
<!-- reference_data_link&#45;&gt;reference_data -->
<g id="edge4" class="edge">
<title>reference_data_link:w&#45;&gt;reference_data:e</title>
<path fill="none" stroke="#000000" d="M479.4601,-65.9863C405.8394,-72.931 356.8069,-162.0708 335.3505,-212.9184"/>
<polygon fill="#000000" stroke="#000000" points="486.0016,-65.8575 494.0709,-69.2993 490.0008,-65.7788 494,-65.7 494,-65.7 494,-65.7 490.0008,-65.7788 493.9291,-62.1007 486.0016,-65.8575 486.0016,-65.8575"/>
<ellipse fill="none" stroke="#000000" cx="482.8022" cy="-65.9205" rx="3.2" ry="3.2"/>
</g>
<!-- reference_data_link&#45;&gt;reference_data -->
<g id="edge5" class="edge">
<title>reference_data_link:w&#45;&gt;reference_data:e</title>
<path fill="none" stroke="#000000" d="M479.7025,-67.5979C409.6914,-81.8223 361.881,-164.7727 338.8352,-213.0566"/>
<polygon fill="#000000" stroke="#000000" points="486.0696,-66.7528 494.4737,-69.2687 490.0348,-66.2264 494,-65.7 494,-65.7 494,-65.7 490.0348,-66.2264 493.5263,-62.1313 486.0696,-66.7528 486.0696,-66.7528"/>
<ellipse fill="none" stroke="#000000" cx="482.8974" cy="-67.1739" rx="3.2" ry="3.2"/>
</g>
<!-- temporary_absence_authorisation -->
<g id="node5" class="node">
<title>temporary_absence_authorisation</title>
<g id="a_node5"><a xlink:href="../../tables/temporary_absence_authorisation.html" xlink:title="temporary_absence_authorisation" target="_top">
<polygon fill="#ffffff" stroke="transparent" points="445,-220.2 445,-281.2 713,-281.2 713,-220.2 445,-220.2"/>
<polygon fill="#f5f5f5" stroke="transparent" points="445,-257.7 445,-280.7 713,-280.7 713,-257.7 445,-257.7"/>
<polygon fill="none" stroke="#000000" points="445,-257.7 445,-280.7 713,-280.7 713,-257.7 445,-257.7"/>
<text text-anchor="start" x="450" y="-266.3" font-family="Helvetica,sans-Serif" font-weight="bold" font-size="11.00" fill="#000000">temporary_absence_authorisation</text>
<text text-anchor="start" x="678.5219" y="-265.8" font-family="Helvetica,sans-Serif" font-size="11.00" fill="#000000">[table]</text>
<polygon fill="none" stroke="#000000" points="445,-238.7 445,-257.7 713,-257.7 713,-238.7 445,-238.7"/>
<text text-anchor="start" x="448" y="-244.8" font-family="Helvetica,sans-Serif" font-size="11.00" fill="#000000">...</text>
<polygon fill="#ffffff" stroke="transparent" points="445,-219.7 445,-238.7 573,-238.7 573,-219.7 445,-219.7"/>
<polygon fill="none" stroke="#000000" points="445,-219.7 445,-238.7 573,-238.7 573,-219.7 445,-219.7"/>
<text text-anchor="start" x="448" y="-225.8" font-family="Helvetica,sans-Serif" font-size="11.00" fill="#000000">&lt; 6</text>
<polygon fill="#ffffff" stroke="transparent" points="573,-219.7 573,-238.7 638,-238.7 638,-219.7 573,-219.7"/>
<polygon fill="none" stroke="#000000" points="573,-219.7 573,-238.7 638,-238.7 638,-219.7 573,-219.7"/>
<text text-anchor="start" x="628.8862" y="-225.8" font-family="Helvetica,sans-Serif" font-size="11.00" fill="#000000"> &#160;</text>
<polygon fill="#ffffff" stroke="transparent" points="638,-219.7 638,-238.7 713,-238.7 713,-219.7 638,-219.7"/>
<polygon fill="none" stroke="#000000" points="638,-219.7 638,-238.7 713,-238.7 713,-219.7 638,-219.7"/>
<text text-anchor="start" x="694.4053" y="-225.8" font-family="Helvetica,sans-Serif" font-size="11.00" fill="#000000">1 &gt;</text>
</a>
</g>
</g>
<!-- temporary_absence_authorisation&#45;&gt;reference_data -->
<g id="edge6" class="edge">
<title>temporary_absence_authorisation:w&#45;&gt;reference_data:e</title>
<path fill="none" stroke="#000000" d="M432.1538,-240.8206C421.8785,-235.847 411.3582,-231.957 401.0996,-229.1507"/>
<polygon fill="#000000" stroke="#000000" points="437.9476,-243.9232 443.3005,-250.8736 441.4738,-245.8116 445,-247.7 445,-247.7 445,-247.7 441.4738,-245.8116 446.6995,-244.5264 437.9476,-243.9232 437.9476,-243.9232"/>
<ellipse fill="none" stroke="#000000" cx="435.1266" cy="-242.4125" rx="3.2" ry="3.2"/>
</g>
<!-- temporary_absence_authorisation&#45;&gt;reference_data -->
<g id="edge7" class="edge">
<title>temporary_absence_authorisation:w&#45;&gt;reference_data:e</title>
<path fill="none" stroke="#000000" d="M431.1255,-243.3222C421.1774,-240.509 411.0162,-238.2971 401.0996,-236.6863"/>
<polygon fill="#000000" stroke="#000000" points="437.3708,-245.2927 443.9167,-251.1332 441.1854,-246.4964 445,-247.7 445,-247.7 445,-247.7 441.1854,-246.4964 446.0833,-244.2668 437.3708,-245.2927 437.3708,-245.2927"/>
<ellipse fill="none" stroke="#000000" cx="434.3191" cy="-244.3298" rx="3.2" ry="3.2"/>
</g>
<!-- temporary_absence_authorisation&#45;&gt;reference_data -->
<g id="edge8" class="edge">
<title>temporary_absence_authorisation:w&#45;&gt;reference_data:e</title>
<path fill="none" stroke="#000000" d="M430.4391,-246.2566C420.7104,-245.3971 410.7882,-244.719 401.0996,-244.222"/>
<polygon fill="#000000" stroke="#000000" points="437.039,-246.9108 444.6448,-251.2824 441.0195,-247.3054 445,-247.7 445,-247.7 445,-247.7 441.0195,-247.3054 445.3552,-244.1176 437.039,-246.9108 437.039,-246.9108"/>
<ellipse fill="none" stroke="#000000" cx="433.8546" cy="-246.5951" rx="3.2" ry="3.2"/>
</g>
<!-- temporary_absence_authorisation&#45;&gt;reference_data -->
<g id="edge9" class="edge">
<title>temporary_absence_authorisation:w&#45;&gt;reference_data:e</title>
<path fill="none" stroke="#000000" d="M430.4391,-249.384C420.7104,-250.3867 410.7882,-251.1779 401.0996,-251.7577"/>
<polygon fill="#000000" stroke="#000000" points="437.053,-248.6191 445.4136,-251.2762 441.0265,-248.1596 445,-247.7 445,-247.7 445,-247.7 441.0265,-248.1596 444.5864,-244.1238 437.053,-248.6191 437.053,-248.6191"/>
<ellipse fill="none" stroke="#000000" cx="433.8742" cy="-248.9868" rx="3.2" ry="3.2"/>
</g>
<!-- temporary_absence_authorisation&#45;&gt;reference_data -->
<g id="edge10" class="edge">
<title>temporary_absence_authorisation:w&#45;&gt;reference_data:e</title>
<path fill="none" stroke="#000000" d="M431.1255,-252.3082C421.1774,-255.2695 411.0162,-257.5978 401.0996,-259.2933"/>
<polygon fill="#000000" stroke="#000000" points="437.4078,-250.2217 446.1348,-251.1165 441.2039,-248.9608 445,-247.7 445,-247.7 445,-247.7 441.2039,-248.9608 443.8652,-244.2835 437.4078,-250.2217 437.4078,-250.2217"/>
<ellipse fill="none" stroke="#000000" cx="434.3709" cy="-251.2304" rx="3.2" ry="3.2"/>
</g>
<!-- temporary_absence_authorisation&#45;&gt;reference_data -->
<g id="edge11" class="edge">
<title>temporary_absence_authorisation:w&#45;&gt;reference_data:e</title>
<path fill="none" stroke="#000000" d="M432.1538,-254.7944C421.8785,-259.9234 411.3582,-263.935 401.0996,-266.829"/>
<polygon fill="#000000" stroke="#000000" points="437.997,-251.5675 446.7404,-250.8514 441.4985,-249.6338 445,-247.7 445,-247.7 445,-247.7 441.4985,-249.6338 443.2596,-244.5486 437.997,-251.5675 437.997,-251.5675"/>
<ellipse fill="none" stroke="#000000" cx="435.1957" cy="-253.1145" rx="3.2" ry="3.2"/>
</g>
<!-- temporary_absence_movement -->
<g id="node6" class="node">
<title>temporary_absence_movement</title>
<g id="a_node6"><a xlink:href="../../tables/temporary_absence_movement.html" xlink:title="temporary_absence_movement" target="_top">
<polygon fill="#ffffff" stroke="transparent" points="1066,-284.2 1066,-345.2 1315,-345.2 1315,-284.2 1066,-284.2"/>
<polygon fill="#f5f5f5" stroke="transparent" points="1066.5,-321.7 1066.5,-344.7 1315.5,-344.7 1315.5,-321.7 1066.5,-321.7"/>
<polygon fill="none" stroke="#000000" points="1066.5,-321.7 1066.5,-344.7 1315.5,-344.7 1315.5,-321.7 1066.5,-321.7"/>
<text text-anchor="start" x="1071.5" y="-330.3" font-family="Helvetica,sans-Serif" font-weight="bold" font-size="11.00" fill="#000000">temporary_absence_movement</text>
<text text-anchor="start" x="1281.0219" y="-329.8" font-family="Helvetica,sans-Serif" font-size="11.00" fill="#000000">[table]</text>
<polygon fill="none" stroke="#000000" points="1066.5,-302.7 1066.5,-321.7 1315.5,-321.7 1315.5,-302.7 1066.5,-302.7"/>
<text text-anchor="start" x="1069.5" y="-308.8" font-family="Helvetica,sans-Serif" font-size="11.00" fill="#000000">...</text>
<polygon fill="#ffffff" stroke="transparent" points="1066.5,-283.7 1066.5,-302.7 1189.5,-302.7 1189.5,-283.7 1066.5,-283.7"/>
<polygon fill="none" stroke="#000000" points="1066.5,-283.7 1066.5,-302.7 1189.5,-302.7 1189.5,-283.7 1066.5,-283.7"/>
<text text-anchor="start" x="1069.5" y="-289.8" font-family="Helvetica,sans-Serif" font-size="11.00" fill="#000000">&lt; 3</text>
<polygon fill="#ffffff" stroke="transparent" points="1189.5,-283.7 1189.5,-302.7 1252.5,-302.7 1252.5,-283.7 1189.5,-283.7"/>
<polygon fill="none" stroke="#000000" points="1189.5,-283.7 1189.5,-302.7 1252.5,-302.7 1252.5,-283.7 1189.5,-283.7"/>
<text text-anchor="start" x="1243.3862" y="-289.8" font-family="Helvetica,sans-Serif" font-size="11.00" fill="#000000"> &#160;</text>
<polygon fill="#ffffff" stroke="transparent" points="1252.5,-283.7 1252.5,-302.7 1315.5,-302.7 1315.5,-283.7 1252.5,-283.7"/>
<polygon fill="none" stroke="#000000" points="1252.5,-283.7 1252.5,-302.7 1315.5,-302.7 1315.5,-283.7 1252.5,-283.7"/>
<text text-anchor="start" x="1306.3862" y="-289.8" font-family="Helvetica,sans-Serif" font-size="11.00" fill="#000000"> &#160;</text>
</a>
</g>
</g>
<!-- temporary_absence_movement&#45;&gt;reference_data -->
<g id="edge12" class="edge">
<title>temporary_absence_movement:w&#45;&gt;reference_data:e</title>
<path fill="none" stroke="#000000" d="M1051.8566,-311.4228C782.5199,-306.9758 704.55,-341.8127 434,-285.7 423.1407,-283.4478 411.9725,-280.2152 401.0986,-276.5652"/>
<polygon fill="#000000" stroke="#000000" points="1058.5014,-311.5485 1066.4318,-315.2994 1062.5007,-311.6243 1066.5,-311.7 1066.5,-311.7 1066.5,-311.7 1062.5007,-311.6243 1066.5682,-308.1006 1058.5014,-311.5485 1058.5014,-311.5485"/>
<ellipse fill="none" stroke="#000000" cx="1055.302" cy="-311.488" rx="3.2" ry="3.2"/>
</g>
<!-- temporary_absence_movement&#45;&gt;reference_data -->
<g id="edge13" class="edge">
<title>temporary_absence_movement:w&#45;&gt;reference_data:e</title>
<path fill="none" stroke="#000000" d="M1051.8566,-312.0964C782.5199,-319.9758 704.55,-354.8127 434,-298.7 416.6455,-295.1006 398.5017,-288.9975 382.0317,-282.2038"/>
<polygon fill="#000000" stroke="#000000" points="1058.5029,-311.9165 1066.5974,-315.2987 1062.5015,-311.8083 1066.5,-311.7 1066.5,-311.7 1066.5,-311.7 1062.5015,-311.8083 1066.4026,-308.1013 1058.5029,-311.9165 1058.5029,-311.9165"/>
<ellipse fill="none" stroke="#000000" cx="1055.3041" cy="-312.0031" rx="3.2" ry="3.2"/>
</g>
<!-- temporary_absence_occurrence -->
<g id="node7" class="node">
<title>temporary_absence_occurrence</title>
<g id="a_node7"><a xlink:href="../../tables/temporary_absence_occurrence.html" xlink:title="temporary_absence_occurrence" target="_top">
<polygon fill="#ffffff" stroke="transparent" points="765,-132.2 765,-193.2 1017,-193.2 1017,-132.2 765,-132.2"/>
<polygon fill="#f5f5f5" stroke="transparent" points="765,-169.7 765,-192.7 1017,-192.7 1017,-169.7 765,-169.7"/>
<polygon fill="none" stroke="#000000" points="765,-169.7 765,-192.7 1017,-192.7 1017,-169.7 765,-169.7"/>
<text text-anchor="start" x="770" y="-178.3" font-family="Helvetica,sans-Serif" font-weight="bold" font-size="11.00" fill="#000000">temporary_absence_occurrence</text>
<text text-anchor="start" x="982.5219" y="-177.8" font-family="Helvetica,sans-Serif" font-size="11.00" fill="#000000">[table]</text>
<polygon fill="none" stroke="#000000" points="765,-150.7 765,-169.7 1017,-169.7 1017,-150.7 765,-150.7"/>
<text text-anchor="start" x="768" y="-156.8" font-family="Helvetica,sans-Serif" font-size="11.00" fill="#000000">...</text>
<polygon fill="#ffffff" stroke="transparent" points="765,-131.7 765,-150.7 885,-150.7 885,-131.7 765,-131.7"/>
<polygon fill="none" stroke="#000000" points="765,-131.7 765,-150.7 885,-150.7 885,-131.7 765,-131.7"/>
<text text-anchor="start" x="768" y="-137.8" font-family="Helvetica,sans-Serif" font-size="11.00" fill="#000000">&lt; 8</text>
<polygon fill="#ffffff" stroke="transparent" points="885,-131.7 885,-150.7 946,-150.7 946,-131.7 885,-131.7"/>
<polygon fill="none" stroke="#000000" points="885,-131.7 885,-150.7 946,-150.7 946,-131.7 885,-131.7"/>
<text text-anchor="start" x="936.8862" y="-137.8" font-family="Helvetica,sans-Serif" font-size="11.00" fill="#000000"> &#160;</text>
<polygon fill="#ffffff" stroke="transparent" points="946,-131.7 946,-150.7 1017,-150.7 1017,-131.7 946,-131.7"/>
<polygon fill="none" stroke="#000000" points="946,-131.7 946,-150.7 1017,-150.7 1017,-131.7 946,-131.7"/>
<text text-anchor="start" x="998.4053" y="-137.8" font-family="Helvetica,sans-Serif" font-size="11.00" fill="#000000">1 &gt;</text>
</a>
</g>
</g>
<!-- temporary_absence_movement&#45;&gt;temporary_absence_occurrence -->
<g id="edge14" class="edge">
<title>temporary_absence_movement:w&#45;&gt;temporary_absence_occurrence:e</title>
<path fill="none" stroke="#000000" d="M1052.1385,-308.7993C1009.5427,-287.7853 1082.2194,-159.7 1017,-159.7"/>
<polygon fill="#000000" stroke="#000000" points="1058.6583,-310.1161 1065.7873,-315.2287 1062.5792,-310.9081 1066.5,-311.7 1066.5,-311.7 1066.5,-311.7 1062.5792,-310.9081 1067.2127,-308.1713 1058.6583,-310.1161 1058.6583,-310.1161"/>
<ellipse fill="none" stroke="#000000" cx="1055.5217" cy="-309.4826" rx="3.2" ry="3.2"/>
</g>
<!-- temporary_absence_occurrence&#45;&gt;reference_data -->
<g id="edge15" class="edge">
<title>temporary_absence_occurrence:w&#45;&gt;reference_data:e</title>
<path fill="none" stroke="#000000" d="M750.9548,-156.0955C613.6791,-121.6659 573.8626,-136.491 434,-170.7 400.3645,-178.9269 362.4525,-192.9846 340.7762,-212.9219"/>
<polygon fill="#000000" stroke="#000000" points="757.2511,-157.7113 764.1051,-163.187 761.1256,-158.7057 765,-159.7 765,-159.7 765,-159.7 761.1256,-158.7057 765.8949,-156.213 757.2511,-157.7113 757.2511,-157.7113"/>
<ellipse fill="none" stroke="#000000" cx="754.1515" cy="-156.9159" rx="3.2" ry="3.2"/>
</g>
<!-- temporary_absence_occurrence&#45;&gt;reference_data -->
<g id="edge16" class="edge">
<title>temporary_absence_occurrence:w&#45;&gt;reference_data:e</title>
<path fill="none" stroke="#000000" d="M750.5395,-157.2439C613.5987,-134.6958 573.7214,-149.5256 434,-183.7 406.8938,-190.3299 377.0101,-200.7466 355.0848,-212.9833"/>
<polygon fill="#000000" stroke="#000000" points="757.113,-158.3603 764.3972,-163.2492 761.0565,-159.0302 765,-159.7 765,-159.7 765,-159.7 761.0565,-159.0302 765.6028,-156.1508 757.113,-158.3603 757.113,-158.3603"/>
<ellipse fill="none" stroke="#000000" cx="753.9581" cy="-157.8245" rx="3.2" ry="3.2"/>
</g>
<!-- temporary_absence_occurrence&#45;&gt;reference_data -->
<g id="edge17" class="edge">
<title>temporary_absence_occurrence:w&#45;&gt;reference_data:e</title>
<path fill="none" stroke="#000000" d="M750.5395,-158.4963C613.5987,-147.6958 573.7214,-162.5256 434,-196.7 416.5887,-200.9586 398.0314,-206.7797 381.1735,-213.1138"/>
<polygon fill="#000000" stroke="#000000" points="757.0276,-159.0363 764.7013,-163.2876 761.0138,-159.3682 765,-159.7 765,-159.7 765,-159.7 761.0138,-159.3682 765.2987,-156.1124 757.0276,-159.0363 757.0276,-159.0363"/>
<ellipse fill="none" stroke="#000000" cx="753.8386" cy="-158.7708" rx="3.2" ry="3.2"/>
</g>
<!-- temporary_absence_occurrence&#45;&gt;reference_data -->
<g id="edge18" class="edge">
<title>temporary_absence_occurrence:w&#45;&gt;reference_data:e</title>
<path fill="none" stroke="#000000" d="M750.5395,-159.7487C613.5987,-160.6958 573.7214,-175.5256 434,-209.7 423.2169,-212.3374 411.9942,-215.5742 401.0079,-219.0355"/>
<polygon fill="#000000" stroke="#000000" points="757,-159.727 765.0121,-163.3 761,-159.7135 765,-159.7 765,-159.7 765,-159.7 761,-159.7135 764.9879,-156.1 757,-159.727 757,-159.727"/>
<ellipse fill="none" stroke="#000000" cx="753.8001" cy="-159.7378" rx="3.2" ry="3.2"/>
</g>
<!-- temporary_absence_occurrence&#45;&gt;reference_data -->
<g id="edge19" class="edge">
<title>temporary_absence_occurrence:w&#45;&gt;reference_data:e</title>
<path fill="none" stroke="#000000" d="M750.5395,-161.0011C613.5987,-173.6958 573.7214,-188.5256 434,-222.7 423.2169,-225.3374 411.9942,-228.5742 401.0079,-231.91"/>
<polygon fill="#000000" stroke="#000000" points="757.0322,-160.417 765.3226,-163.2855 761.0161,-160.0585 765,-159.7 765,-159.7 765,-159.7 761.0161,-160.0585 764.6774,-156.1145 757.0322,-160.417 757.0322,-160.417"/>
<ellipse fill="none" stroke="#000000" cx="753.8451" cy="-160.7037" rx="3.2" ry="3.2"/>
</g>
<!-- temporary_absence_occurrence&#45;&gt;reference_data -->
<g id="edge21" class="edge">
<title>temporary_absence_occurrence:w&#45;&gt;reference_data:e</title>
<path fill="none" stroke="#000000" d="M750.5395,-162.2535C613.5987,-186.6958 573.7214,-201.5256 434,-235.7 423.2169,-238.3374 411.9942,-241.5742 401.0079,-244.7846"/>
<polygon fill="#000000" stroke="#000000" points="757.1219,-161.0912 765.626,-163.2452 761.0609,-160.3956 765,-159.7 765,-159.7 765,-159.7 761.0609,-160.3956 764.374,-156.1548 757.1219,-161.0912 757.1219,-161.0912"/>
<ellipse fill="none" stroke="#000000" cx="753.9706" cy="-161.6477" rx="3.2" ry="3.2"/>
</g>
<!-- temporary_absence_occurrence&#45;&gt;reference_data -->
<g id="edge22" class="edge">
<title>temporary_absence_occurrence:w&#45;&gt;reference_data:e</title>
<path fill="none" stroke="#000000" d="M750.9548,-163.3962C613.6791,-199.6659 573.8626,-214.491 434,-248.7 423.2169,-251.3374 411.9942,-254.5742 401.0079,-257.6592"/>
<polygon fill="#000000" stroke="#000000" points="757.2634,-161.736 765.9162,-163.1815 761.1317,-160.718 765,-159.7 765,-159.7 765,-159.7 761.1317,-160.718 764.0838,-156.2185 757.2634,-161.736 757.2634,-161.736"/>
<ellipse fill="none" stroke="#000000" cx="754.1688" cy="-162.5504" rx="3.2" ry="3.2"/>
</g>
<!-- temporary_absence_occurrence&#45;&gt;temporary_absence_authorisation -->
<g id="edge20" class="edge">
<title>temporary_absence_occurrence:w&#45;&gt;temporary_absence_authorisation:e</title>
<path fill="none" stroke="#000000" d="M750.9647,-163.9444C728.4059,-181.5228 752.3955,-247.7 713,-247.7"/>
<polygon fill="#000000" stroke="#000000" points="757.3425,-162.0158 766.0421,-163.1459 761.1712,-160.8579 765,-159.7 765,-159.7 765,-159.7 761.1712,-160.8579 763.9579,-156.2541 757.3425,-162.0158 757.3425,-162.0158"/>
<ellipse fill="none" stroke="#000000" cx="754.2795" cy="-162.9421" rx="3.2" ry="3.2"/>
</g>
</g>
</svg>
