<?xml version="1.0" encoding="UTF-8" standalone="no"?>
<!DOCTYPE svg PUBLIC "-//W3C//DTD SVG 1.1//EN"
 "http://www.w3.org/Graphics/SVG/1.1/DTD/svg11.dtd">
<!-- Generated by graphviz version 2.40.1 (20161225.0304)
 -->
<!-- Title: twoDegreesRelationshipsDiagram Pages: 1 -->
<svg width="1503pt" height="444pt"
 viewBox="0.00 0.00 1503.00 443.70" xmlns="http://www.w3.org/2000/svg" xmlns:xlink="http://www.w3.org/1999/xlink">
<g id="graph0" class="graph" transform="scale(1 1) rotate(0) translate(4 439.7)">
<title>twoDegreesRelationshipsDiagram</title>
<polygon fill="#ffffff" stroke="transparent" points="-4,4 -4,-439.7 1499,-439.7 1499,4 -4,4"/>
<text text-anchor="middle" x="72.4936" y="-7.3" font-family="Helvetica,sans-Serif" font-size="11.00" fill="#000000">Generated by SchemaSpy</text>
<!-- reference_data -->
<g id="node1" class="node">
<title>reference_data</title>
<g id="a_node1"><a xlink:href="../../tables/reference_data.html" xlink:title="reference_data" target="_top">
<polygon fill="#ffffff" stroke="transparent" points="339,-217.2 339,-278.2 479,-278.2 479,-217.2 339,-217.2"/>
<polygon fill="#f5f5f5" stroke="transparent" points="339,-254.7 339,-277.7 479,-277.7 479,-254.7 339,-254.7"/>
<polygon fill="none" stroke="#000000" points="339,-254.7 339,-277.7 479,-277.7 479,-254.7 339,-254.7"/>
<text text-anchor="start" x="344" y="-263.3" font-family="Helvetica,sans-Serif" font-weight="bold" font-size="11.00" fill="#000000">reference_data</text>
<text text-anchor="start" x="444.5219" y="-262.8" font-family="Helvetica,sans-Serif" font-size="11.00" fill="#000000">[table]</text>
<polygon fill="none" stroke="#000000" points="339,-235.7 339,-254.7 479,-254.7 479,-235.7 339,-235.7"/>
<text text-anchor="start" x="342" y="-241.8" font-family="Helvetica,sans-Serif" font-size="11.00" fill="#000000">...</text>
<polygon fill="#ffffff" stroke="transparent" points="339,-216.7 339,-235.7 381,-235.7 381,-216.7 339,-216.7"/>
<polygon fill="none" stroke="#000000" points="339,-216.7 339,-235.7 381,-235.7 381,-216.7 339,-216.7"/>
<text text-anchor="start" x="342" y="-222.8" font-family="Helvetica,sans-Serif" font-size="11.00" fill="#000000">&lt; 1</text>
<polygon fill="#ffffff" stroke="transparent" points="381,-216.7 381,-235.7 441,-235.7 441,-216.7 381,-216.7"/>
<polygon fill="none" stroke="#000000" points="381,-216.7 381,-235.7 441,-235.7 441,-216.7 381,-216.7"/>
<text text-anchor="start" x="393.3807" y="-222.8" font-family="Helvetica,sans-Serif" font-size="11.00" fill="#000000">163 rows</text>
<polygon fill="#ffffff" stroke="transparent" points="441,-216.7 441,-235.7 479,-235.7 479,-216.7 441,-216.7"/>
<polygon fill="none" stroke="#000000" points="441,-216.7 441,-235.7 479,-235.7 479,-216.7 441,-216.7"/>
<text text-anchor="start" x="454.2904" y="-222.8" font-family="Helvetica,sans-Serif" font-size="11.00" fill="#000000">18 &gt;</text>
</a>
</g>
</g>
<!-- reference_data_domain -->
<g id="node2" class="node">
<title>reference_data_domain</title>
<g id="a_node2"><a xlink:href="../../tables/reference_data_domain.html" xlink:title="reference_data_domain" target="_top">
<polygon fill="#ffffff" stroke="transparent" points="8,-217.2 8,-278.2 204,-278.2 204,-217.2 8,-217.2"/>
<polygon fill="#f5f5f5" stroke="transparent" points="8,-254.7 8,-277.7 204,-277.7 204,-254.7 8,-254.7"/>
<polygon fill="none" stroke="#000000" points="8,-254.7 8,-277.7 204,-277.7 204,-254.7 8,-254.7"/>
<text text-anchor="start" x="13" y="-263.3" font-family="Helvetica,sans-Serif" font-weight="bold" font-size="11.00" fill="#000000">reference_data_domain</text>
<text text-anchor="start" x="169.5219" y="-262.8" font-family="Helvetica,sans-Serif" font-size="11.00" fill="#000000">[table]</text>
<polygon fill="none" stroke="#000000" points="8,-235.7 8,-254.7 204,-254.7 204,-235.7 8,-235.7"/>
<text text-anchor="start" x="11" y="-241.8" font-family="Helvetica,sans-Serif" font-size="11.00" fill="#000000">...</text>
<polygon fill="#ffffff" stroke="transparent" points="8,-216.7 8,-235.7 95,-235.7 95,-216.7 8,-216.7"/>
<polygon fill="none" stroke="#000000" points="8,-216.7 8,-235.7 95,-235.7 95,-216.7 8,-216.7"/>
<text text-anchor="start" x="11" y="-222.8" font-family="Helvetica,sans-Serif" font-size="11.00" fill="#000000"> &#160;</text>
<polygon fill="#ffffff" stroke="transparent" points="95,-216.7 95,-235.7 145,-235.7 145,-216.7 95,-216.7"/>
<polygon fill="none" stroke="#000000" points="95,-216.7 95,-235.7 145,-235.7 145,-216.7 95,-216.7"/>
<text text-anchor="start" x="135.8862" y="-222.8" font-family="Helvetica,sans-Serif" font-size="11.00" fill="#000000"> &#160;</text>
<polygon fill="#ffffff" stroke="transparent" points="145,-216.7 145,-235.7 204,-235.7 204,-216.7 145,-216.7"/>
<polygon fill="none" stroke="#000000" points="145,-216.7 145,-235.7 204,-235.7 204,-216.7 145,-216.7"/>
<text text-anchor="start" x="185.4053" y="-222.8" font-family="Helvetica,sans-Serif" font-size="11.00" fill="#000000">3 &gt;</text>
</a>
</g>
</g>
<!-- reference_data&#45;&gt;reference_data_domain -->
<g id="edge1" class="edge">
<title>reference_data:w&#45;&gt;reference_data_domain:e</title>
<path fill="none" stroke="#000000" d="M316.1798,-247.7C283.2595,-247.7 245.967,-247.7 212.0296,-247.7"/>
<polygon fill="#000000" stroke="#000000" points="322.97,-247.7001 330.97,-251.3 326.97,-247.7 330.97,-247.7 330.97,-247.7 330.97,-247.7 326.97,-247.7 330.9699,-244.1 322.97,-247.7001 322.97,-247.7001"/>
<ellipse fill="none" stroke="#000000" cx="319.77" cy="-247.7001" rx="3.2" ry="3.2"/>
</g>
<!-- reference_data_domain_link -->
<g id="node3" class="node">
<title>reference_data_domain_link</title>
<g id="a_node3"><a xlink:href="../../tables/reference_data_domain_link.html" xlink:title="reference_data_domain_link" target="_top">
<polygon fill="#ffffff" stroke="transparent" points="614,-341.7 614,-431.7 888,-431.7 888,-341.7 614,-341.7"/>
<polygon fill="#f5f5f5" stroke="transparent" points="616,-406.7 616,-429.7 886,-429.7 886,-406.7 616,-406.7"/>
<polygon fill="none" stroke="#000000" points="616,-406.7 616,-429.7 886,-429.7 886,-406.7 616,-406.7"/>
<text text-anchor="start" x="621" y="-415.3" font-family="Helvetica,sans-Serif" font-weight="bold" font-size="11.00" fill="#000000">reference_data_domain_link</text>
<text text-anchor="start" x="851.0437" y="-414.8" font-family="Helvetica,sans-Serif" font-size="11.00" fill="#000000">[table]</text>
<polygon fill="none" stroke="#000000" points="616,-384.7 616,-406.7 825,-406.7 825,-384.7 616,-384.7"/>
<image xlink:href="../../images/primaryKeys.png" width="11px" height="12px" preserveAspectRatio="xMinYMin meet" x="621" y="-401.7"/>
<text text-anchor="start" x="636" y="-391.8" font-family="Helvetica,sans-Serif" font-size="11.00" fill="#000000">id</text>
<polygon fill="none" stroke="#000000" points="825,-384.7 825,-406.7 886,-406.7 886,-384.7 825,-384.7"/>
<text text-anchor="start" x="828" y="-392.4" font-family="Helvetica,sans-Serif" font-size="11.00" fill="#000000">int8[19]</text>
<polygon fill="none" stroke="#000000" points="616,-362.7 616,-384.7 825,-384.7 825,-362.7 616,-362.7"/>
<image xlink:href="../../images/foreignKeys.png" width="11px" height="12px" preserveAspectRatio="xMinYMin meet" x="621" y="-379.7"/>
<text text-anchor="start" x="636" y="-369.8" font-family="Helvetica,sans-Serif" font-size="11.00" fill="#000000">domain</text>
<polygon fill="none" stroke="#000000" points="825,-362.7 825,-384.7 886,-384.7 886,-362.7 825,-362.7"/>
<text text-anchor="start" x="827.994" y="-370.4" font-family="Helvetica,sans-Serif" font-size="11.00" fill="#000000">varchar[32]</text>
<polygon fill="#ffffff" stroke="transparent" points="616,-343.7 616,-362.7 725,-362.7 725,-343.7 616,-343.7"/>
<polygon fill="none" stroke="#000000" points="616,-343.7 616,-362.7 725,-362.7 725,-343.7 616,-343.7"/>
<text text-anchor="start" x="619" y="-349.8" font-family="Helvetica,sans-Serif" font-size="11.00" fill="#000000">&lt; 2</text>
<polygon fill="#ffffff" stroke="transparent" points="725,-343.7 725,-362.7 825,-362.7 825,-343.7 725,-343.7"/>
<polygon fill="none" stroke="#000000" points="725,-343.7 725,-362.7 825,-362.7 825,-343.7 725,-343.7"/>
<text text-anchor="start" x="815.8862" y="-349.8" font-family="Helvetica,sans-Serif" font-size="11.00" fill="#000000"> &#160;</text>
<polygon fill="#ffffff" stroke="transparent" points="825,-343.7 825,-362.7 886,-362.7 886,-343.7 825,-343.7"/>
<polygon fill="none" stroke="#000000" points="825,-343.7 825,-362.7 886,-362.7 886,-343.7 825,-343.7"/>
<text text-anchor="start" x="867.4053" y="-349.8" font-family="Helvetica,sans-Serif" font-size="11.00" fill="#000000">0 &gt;</text>
<polygon fill="none" stroke="#000000" stroke-width="2" points="615,-342.7 615,-430.7 887,-430.7 887,-342.7 615,-342.7"/>
</a>
</g>
</g>
<!-- reference_data_domain_link&#45;&gt;reference_data -->
<g id="edge3" class="edge">
<title>reference_data_domain_link:w&#45;&gt;reference_data:e</title>
<path fill="none" stroke="#000000" d="M605.5383,-393.985C584.1556,-385.6324 596.5151,-348.7604 573,-327.7 548.2217,-305.5083 516.18,-288.0625 487.0015,-275.2027"/>
<polygon fill="#000000" stroke="#000000" points="615.8576,-391.6233 614.5634,-399.5179 612.9845,-399.259 614.2787,-391.3644 615.8576,-391.6233"/>
<polyline fill="none" stroke="#000000" points="616,-395.7 612.0527,-395.0529 "/>
<ellipse fill="none" stroke="#000000" cx="608.8948" cy="-394.5352" rx="3.2" ry="3.2"/>
</g>
<!-- reference_data_domain_link&#45;&gt;reference_data_domain -->
<g id="edge2" class="edge">
<title>reference_data_domain_link:w&#45;&gt;reference_data_domain:e</title>
<path fill="none" stroke="#000000" d="M601.154,-373.5338C452.0277,-370.2304 288.308,-318.3956 191.4904,-282.2967"/>
<polygon fill="#000000" stroke="#000000" points="608.0005,-373.6104 615.9597,-377.2998 612.0003,-373.6552 616,-373.7 616,-373.7 616,-373.7 612.0003,-373.6552 616.0403,-370.1002 608.0005,-373.6104 608.0005,-373.6104"/>
<ellipse fill="none" stroke="#000000" cx="604.8007" cy="-373.5746" rx="3.2" ry="3.2"/>
</g>
<!-- reference_data_link -->
<g id="node4" class="node">
<title>reference_data_link</title>
<g id="a_node4"><a xlink:href="../../tables/reference_data_link.html" xlink:title="reference_data_link" target="_top">
<polygon fill="#ffffff" stroke="transparent" points="665.5,-38.2 665.5,-99.2 836.5,-99.2 836.5,-38.2 665.5,-38.2"/>
<polygon fill="#f5f5f5" stroke="transparent" points="666,-75.7 666,-98.7 837,-98.7 837,-75.7 666,-75.7"/>
<polygon fill="none" stroke="#000000" points="666,-75.7 666,-98.7 837,-98.7 837,-75.7 666,-75.7"/>
<text text-anchor="start" x="671" y="-84.3" font-family="Helvetica,sans-Serif" font-weight="bold" font-size="11.00" fill="#000000">reference_data_link</text>
<text text-anchor="start" x="802.5219" y="-83.8" font-family="Helvetica,sans-Serif" font-size="11.00" fill="#000000">[table]</text>
<polygon fill="none" stroke="#000000" points="666,-56.7 666,-75.7 837,-75.7 837,-56.7 666,-56.7"/>
<text text-anchor="start" x="669" y="-62.8" font-family="Helvetica,sans-Serif" font-size="11.00" fill="#000000">...</text>
<polygon fill="#ffffff" stroke="transparent" points="666,-37.7 666,-56.7 734,-56.7 734,-37.7 666,-37.7"/>
<polygon fill="none" stroke="#000000" points="666,-37.7 666,-56.7 734,-56.7 734,-37.7 666,-37.7"/>
<text text-anchor="start" x="669" y="-43.8" font-family="Helvetica,sans-Serif" font-size="11.00" fill="#000000">&lt; 2</text>
<polygon fill="#ffffff" stroke="transparent" points="734,-37.7 734,-56.7 801,-56.7 801,-37.7 734,-37.7"/>
<polygon fill="none" stroke="#000000" points="734,-37.7 734,-56.7 801,-56.7 801,-37.7 734,-37.7"/>
<text text-anchor="start" x="759.4956" y="-43.8" font-family="Helvetica,sans-Serif" font-size="11.00" fill="#000000">69 rows</text>
<polygon fill="#ffffff" stroke="transparent" points="801,-37.7 801,-56.7 837,-56.7 837,-37.7 801,-37.7"/>
<polygon fill="none" stroke="#000000" points="801,-37.7 801,-56.7 837,-56.7 837,-37.7 801,-37.7"/>
<text text-anchor="start" x="827.8862" y="-43.8" font-family="Helvetica,sans-Serif" font-size="11.00" fill="#000000"> &#160;</text>
</a>
</g>
</g>
<!-- reference_data_link&#45;&gt;reference_data -->
<g id="edge4" class="edge">
<title>reference_data_link:w&#45;&gt;reference_data:e</title>
<path fill="none" stroke="#000000" d="M651.5824,-64.7554C629.5597,-66.359 622.6298,-84.3327 606,-107.7 580.5697,-143.4331 605.4649,-171.2112 573,-200.7 549.7549,-221.8142 517.2908,-232.4408 487.3751,-238.0964"/>
<polygon fill="#000000" stroke="#000000" points="658.0171,-65.1769 665.7646,-69.2923 662.0086,-65.4385 666,-65.7 666,-65.7 666,-65.7 662.0086,-65.4385 666.2354,-62.1077 658.0171,-65.1769 658.0171,-65.1769"/>
<ellipse fill="none" stroke="#000000" cx="654.824" cy="-64.9677" rx="3.2" ry="3.2"/>
</g>
<!-- reference_data_link&#45;&gt;reference_data -->
<g id="edge5" class="edge">
<title>reference_data_link:w&#45;&gt;reference_data:e</title>
<path fill="none" stroke="#000000" d="M651.8907,-69.9252C629.624,-79.1919 622.7072,-97.2241 606,-120.7 580.5697,-156.4331 605.4649,-184.2112 573,-213.7 549.7549,-234.8142 517.2908,-245.4408 487.3751,-250.1472"/>
<polygon fill="#000000" stroke="#000000" points="658.3363,-67.9951 667.0328,-69.1487 662.1681,-66.8475 666,-65.7 666,-65.7 666,-65.7 662.1681,-66.8475 664.9672,-62.2513 658.3363,-67.9951 658.3363,-67.9951"/>
<ellipse fill="none" stroke="#000000" cx="655.2708" cy="-68.9131" rx="3.2" ry="3.2"/>
</g>
<!-- temporary_absence_authorisation -->
<g id="node5" class="node">
<title>temporary_absence_authorisation</title>
<g id="a_node5"><a xlink:href="../../tables/temporary_absence_authorisation.html" xlink:title="temporary_absence_authorisation" target="_top">
<polygon fill="#ffffff" stroke="transparent" points="617,-220.2 617,-281.2 885,-281.2 885,-220.2 617,-220.2"/>
<polygon fill="#f5f5f5" stroke="transparent" points="617,-257.7 617,-280.7 885,-280.7 885,-257.7 617,-257.7"/>
<polygon fill="none" stroke="#000000" points="617,-257.7 617,-280.7 885,-280.7 885,-257.7 617,-257.7"/>
<text text-anchor="start" x="622" y="-266.3" font-family="Helvetica,sans-Serif" font-weight="bold" font-size="11.00" fill="#000000">temporary_absence_authorisation</text>
<text text-anchor="start" x="850.5219" y="-265.8" font-family="Helvetica,sans-Serif" font-size="11.00" fill="#000000">[table]</text>
<polygon fill="none" stroke="#000000" points="617,-238.7 617,-257.7 885,-257.7 885,-238.7 617,-238.7"/>
<text text-anchor="start" x="620" y="-244.8" font-family="Helvetica,sans-Serif" font-size="11.00" fill="#000000">...</text>
<polygon fill="#ffffff" stroke="transparent" points="617,-219.7 617,-238.7 745,-238.7 745,-219.7 617,-219.7"/>
<polygon fill="none" stroke="#000000" points="617,-219.7 617,-238.7 745,-238.7 745,-219.7 617,-219.7"/>
<text text-anchor="start" x="620" y="-225.8" font-family="Helvetica,sans-Serif" font-size="11.00" fill="#000000">&lt; 7</text>
<polygon fill="#ffffff" stroke="transparent" points="745,-219.7 745,-238.7 810,-238.7 810,-219.7 745,-219.7"/>
<polygon fill="none" stroke="#000000" points="745,-219.7 745,-238.7 810,-238.7 810,-219.7 745,-219.7"/>
<text text-anchor="start" x="800.8862" y="-225.8" font-family="Helvetica,sans-Serif" font-size="11.00" fill="#000000"> &#160;</text>
<polygon fill="#ffffff" stroke="transparent" points="810,-219.7 810,-238.7 885,-238.7 885,-219.7 810,-219.7"/>
<polygon fill="none" stroke="#000000" points="810,-219.7 810,-238.7 885,-238.7 885,-219.7 810,-219.7"/>
<text text-anchor="start" x="866.4053" y="-225.8" font-family="Helvetica,sans-Serif" font-size="11.00" fill="#000000">1 &gt;</text>
</a>
</g>
</g>
<!-- temporary_absence_authorisation&#45;&gt;reference_data -->
<g id="edge6" class="edge">
<title>temporary_absence_authorisation:w&#45;&gt;reference_data:e</title>
<path fill="none" stroke="#000000" d="M603.253,-243.2242C564.0093,-231.2228 521.9451,-224.7542 487.0299,-223.8187"/>
<polygon fill="#000000" stroke="#000000" points="609.393,-245.2233 615.8855,-251.1231 613.1965,-246.4616 617,-247.7 617,-247.7 617,-247.7 613.1965,-246.4616 618.1145,-244.2769 609.393,-245.2233 609.393,-245.2233"/>
<ellipse fill="none" stroke="#000000" cx="606.3502" cy="-244.2326" rx="3.2" ry="3.2"/>
</g>
<!-- temporary_absence_authorisation&#45;&gt;reference_data -->
<g id="edge7" class="edge">
<title>temporary_absence_authorisation:w&#45;&gt;reference_data:e</title>
<path fill="none" stroke="#000000" d="M602.7387,-244.9493C563.6421,-237.8832 521.7926,-234.0735 487.0299,-233.5204"/>
<polygon fill="#000000" stroke="#000000" points="609.1448,-246.1849 616.3182,-251.2348 613.0724,-246.9424 617,-247.7 617,-247.7 617,-247.7 613.0724,-246.9424 617.6818,-244.1652 609.1448,-246.1849 609.1448,-246.1849"/>
<ellipse fill="none" stroke="#000000" cx="606.0027" cy="-245.5788" rx="3.2" ry="3.2"/>
</g>
<!-- temporary_absence_authorisation&#45;&gt;reference_data -->
<g id="edge8" class="edge">
<title>temporary_absence_authorisation:w&#45;&gt;reference_data:e</title>
<path fill="none" stroke="#000000" d="M602.4815,-246.8167C563.4586,-244.5947 521.7164,-243.3965 487.0299,-243.2222"/>
<polygon fill="#000000" stroke="#000000" points="609.0148,-247.2141 616.7814,-251.2934 613.0074,-247.4571 617,-247.7 617,-247.7 617,-247.7 613.0074,-247.4571 617.2186,-244.1066 609.0148,-247.2141 609.0148,-247.2141"/>
<ellipse fill="none" stroke="#000000" cx="605.8207" cy="-247.0198" rx="3.2" ry="3.2"/>
</g>
<!-- temporary_absence_authorisation&#45;&gt;reference_data -->
<g id="edge9" class="edge">
<title>temporary_absence_authorisation:w&#45;&gt;reference_data:e</title>
<path fill="none" stroke="#000000" d="M602.4815,-248.7305C563.4586,-251.3229 521.7164,-252.7207 487.0299,-252.924"/>
<polygon fill="#000000" stroke="#000000" points="609.0201,-248.2665 617.2549,-251.291 613.01,-247.9832 617,-247.7 617,-247.7 617,-247.7 613.01,-247.9832 616.7451,-244.109 609.0201,-248.2665 609.0201,-248.2665"/>
<ellipse fill="none" stroke="#000000" cx="605.8281" cy="-248.493" rx="3.2" ry="3.2"/>
</g>
<!-- temporary_absence_authorisation&#45;&gt;reference_data -->
<g id="edge10" class="edge">
<title>temporary_absence_authorisation:w&#45;&gt;reference_data:e</title>
<path fill="none" stroke="#000000" d="M602.7387,-250.5954C563.6421,-258.0335 521.7926,-262.0437 487.0299,-262.6258"/>
<polygon fill="#000000" stroke="#000000" points="609.16,-249.2918 617.7163,-251.228 613.08,-248.4959 617,-247.7 617,-247.7 617,-247.7 613.08,-248.4959 616.2837,-244.172 609.16,-249.2918 609.16,-249.2918"/>
<ellipse fill="none" stroke="#000000" cx="606.0239" cy="-249.9285" rx="3.2" ry="3.2"/>
</g>
<!-- temporary_absence_authorisation&#45;&gt;reference_data -->
<g id="edge11" class="edge">
<title>temporary_absence_authorisation:w&#45;&gt;reference_data:e</title>
<path fill="none" stroke="#000000" d="M603.253,-252.3157C564.0093,-264.6922 521.9451,-271.3628 487.0299,-272.3276"/>
<polygon fill="#000000" stroke="#000000" points="609.4161,-250.2464 618.1459,-251.1128 613.208,-248.9732 617,-247.7 617,-247.7 617,-247.7 613.208,-248.9732 615.8541,-244.2872 609.4161,-250.2464 609.4161,-250.2464"/>
<ellipse fill="none" stroke="#000000" cx="606.3825" cy="-251.265" rx="3.2" ry="3.2"/>
</g>
<!-- temporary_absence_movement -->
<g id="node6" class="node">
<title>temporary_absence_movement</title>
<g id="a_node6"><a xlink:href="../../tables/temporary_absence_movement.html" xlink:title="temporary_absence_movement" target="_top">
<polygon fill="#ffffff" stroke="transparent" points="1238,-284.2 1238,-345.2 1487,-345.2 1487,-284.2 1238,-284.2"/>
<polygon fill="#f5f5f5" stroke="transparent" points="1238.5,-321.7 1238.5,-344.7 1487.5,-344.7 1487.5,-321.7 1238.5,-321.7"/>
<polygon fill="none" stroke="#000000" points="1238.5,-321.7 1238.5,-344.7 1487.5,-344.7 1487.5,-321.7 1238.5,-321.7"/>
<text text-anchor="start" x="1243.5" y="-330.3" font-family="Helvetica,sans-Serif" font-weight="bold" font-size="11.00" fill="#000000">temporary_absence_movement</text>
<text text-anchor="start" x="1453.0219" y="-329.8" font-family="Helvetica,sans-Serif" font-size="11.00" fill="#000000">[table]</text>
<polygon fill="none" stroke="#000000" points="1238.5,-302.7 1238.5,-321.7 1487.5,-321.7 1487.5,-302.7 1238.5,-302.7"/>
<text text-anchor="start" x="1241.5" y="-308.8" font-family="Helvetica,sans-Serif" font-size="11.00" fill="#000000">...</text>
<polygon fill="#ffffff" stroke="transparent" points="1238.5,-283.7 1238.5,-302.7 1361.5,-302.7 1361.5,-283.7 1238.5,-283.7"/>
<polygon fill="none" stroke="#000000" points="1238.5,-283.7 1238.5,-302.7 1361.5,-302.7 1361.5,-283.7 1238.5,-283.7"/>
<text text-anchor="start" x="1241.5" y="-289.8" font-family="Helvetica,sans-Serif" font-size="11.00" fill="#000000">&lt; 4</text>
<polygon fill="#ffffff" stroke="transparent" points="1361.5,-283.7 1361.5,-302.7 1424.5,-302.7 1424.5,-283.7 1361.5,-283.7"/>
<polygon fill="none" stroke="#000000" points="1361.5,-283.7 1361.5,-302.7 1424.5,-302.7 1424.5,-283.7 1361.5,-283.7"/>
<text text-anchor="start" x="1415.3862" y="-289.8" font-family="Helvetica,sans-Serif" font-size="11.00" fill="#000000"> &#160;</text>
<polygon fill="#ffffff" stroke="transparent" points="1424.5,-283.7 1424.5,-302.7 1487.5,-302.7 1487.5,-283.7 1424.5,-283.7"/>
<polygon fill="none" stroke="#000000" points="1424.5,-283.7 1424.5,-302.7 1487.5,-302.7 1487.5,-283.7 1424.5,-283.7"/>
<text text-anchor="start" x="1478.3862" y="-289.8" font-family="Helvetica,sans-Serif" font-size="11.00" fill="#000000"> &#160;</text>
</a>
</g>
</g>
<!-- temporary_absence_movement&#45;&gt;reference_data -->
<g id="edge12" class="edge">
<title>temporary_absence_movement:w&#45;&gt;reference_data:e</title>
<path fill="none" stroke="#000000" d="M1223.8599,-311.4029C954.6457,-306.2207 880.1285,-320.3341 606,-285.7 566.3648,-280.6924 522.964,-271.4193 487.0111,-263.2026"/>
<polygon fill="#000000" stroke="#000000" points="1230.5016,-311.5376 1238.4269,-315.2993 1234.5008,-311.6188 1238.5,-311.7 1238.5,-311.7 1238.5,-311.7 1234.5008,-311.6188 1238.5731,-308.1007 1230.5016,-311.5376 1230.5016,-311.5376"/>
<ellipse fill="none" stroke="#000000" cx="1227.3023" cy="-311.4727" rx="3.2" ry="3.2"/>
</g>
<!-- temporary_absence_movement&#45;&gt;reference_data -->
<g id="edge13" class="edge">
<title>temporary_absence_movement:w&#45;&gt;reference_data:e</title>
<path fill="none" stroke="#000000" d="M1223.8599,-312.0765C954.6457,-319.2207 880.1285,-333.3341 606,-298.7 566.3648,-293.6924 522.964,-284.4193 487.0111,-275.0546"/>
<polygon fill="#000000" stroke="#000000" points="1230.5026,-311.9057 1238.5926,-315.2988 1234.5013,-311.8029 1238.5,-311.7 1238.5,-311.7 1238.5,-311.7 1234.5013,-311.8029 1238.4074,-308.1012 1230.5026,-311.9057 1230.5026,-311.9057"/>
<ellipse fill="none" stroke="#000000" cx="1227.3037" cy="-311.988" rx="3.2" ry="3.2"/>
</g>
<!-- temporary_absence_occurrence -->
<g id="node7" class="node">
<title>temporary_absence_occurrence</title>
<g id="a_node7"><a xlink:href="../../tables/temporary_absence_occurrence.html" xlink:title="temporary_absence_occurrence" target="_top">
<polygon fill="#ffffff" stroke="transparent" points="937,-132.2 937,-193.2 1189,-193.2 1189,-132.2 937,-132.2"/>
<polygon fill="#f5f5f5" stroke="transparent" points="937,-169.7 937,-192.7 1189,-192.7 1189,-169.7 937,-169.7"/>
<polygon fill="none" stroke="#000000" points="937,-169.7 937,-192.7 1189,-192.7 1189,-169.7 937,-169.7"/>
<text text-anchor="start" x="942" y="-178.3" font-family="Helvetica,sans-Serif" font-weight="bold" font-size="11.00" fill="#000000">temporary_absence_occurrence</text>
<text text-anchor="start" x="1154.5219" y="-177.8" font-family="Helvetica,sans-Serif" font-size="11.00" fill="#000000">[table]</text>
<polygon fill="none" stroke="#000000" points="937,-150.7 937,-169.7 1189,-169.7 1189,-150.7 937,-150.7"/>
<text text-anchor="start" x="940" y="-156.8" font-family="Helvetica,sans-Serif" font-size="11.00" fill="#000000">...</text>
<polygon fill="#ffffff" stroke="transparent" points="937,-131.7 937,-150.7 1057,-150.7 1057,-131.7 937,-131.7"/>
<polygon fill="none" stroke="#000000" points="937,-131.7 937,-150.7 1057,-150.7 1057,-131.7 937,-131.7"/>
<text text-anchor="start" x="940" y="-137.8" font-family="Helvetica,sans-Serif" font-size="11.00" fill="#000000">&lt; 8</text>
<polygon fill="#ffffff" stroke="transparent" points="1057,-131.7 1057,-150.7 1118,-150.7 1118,-131.7 1057,-131.7"/>
<polygon fill="none" stroke="#000000" points="1057,-131.7 1057,-150.7 1118,-150.7 1118,-131.7 1057,-131.7"/>
<text text-anchor="start" x="1108.8862" y="-137.8" font-family="Helvetica,sans-Serif" font-size="11.00" fill="#000000"> &#160;</text>
<polygon fill="#ffffff" stroke="transparent" points="1118,-131.7 1118,-150.7 1189,-150.7 1189,-131.7 1118,-131.7"/>
<polygon fill="none" stroke="#000000" points="1118,-131.7 1118,-150.7 1189,-150.7 1189,-131.7 1118,-131.7"/>
<text text-anchor="start" x="1170.4053" y="-137.8" font-family="Helvetica,sans-Serif" font-size="11.00" fill="#000000">1 &gt;</text>
</a>
</g>
</g>
<!-- temporary_absence_movement&#45;&gt;temporary_absence_occurrence -->
<g id="edge14" class="edge">
<title>temporary_absence_movement:w&#45;&gt;temporary_absence_occurrence:e</title>
<path fill="none" stroke="#000000" d="M1224.1385,-308.7993C1181.5427,-287.7853 1254.2194,-159.7 1189,-159.7"/>
<polygon fill="#000000" stroke="#000000" points="1230.6583,-310.1161 1237.7873,-315.2287 1234.5792,-310.9081 1238.5,-311.7 1238.5,-311.7 1238.5,-311.7 1234.5792,-310.9081 1239.2127,-308.1713 1230.6583,-310.1161 1230.6583,-310.1161"/>
<ellipse fill="none" stroke="#000000" cx="1227.5217" cy="-309.4826" rx="3.2" ry="3.2"/>
</g>
<!-- temporary_absence_occurrence&#45;&gt;reference_data -->
<g id="edge15" class="edge">
<title>temporary_absence_occurrence:w&#45;&gt;reference_data:e</title>
<path fill="none" stroke="#000000" d="M922.968,-155.9541C822.7679,-134.3124 585.0713,-175.311 471.5072,-213.0884"/>
<polygon fill="#000000" stroke="#000000" points="929.2707,-157.6366 936.0715,-163.1782 933.1353,-158.6683 937,-159.7 937,-159.7 937,-159.7 933.1353,-158.6683 937.9285,-156.2218 929.2707,-157.6366 929.2707,-157.6366"/>
<ellipse fill="none" stroke="#000000" cx="926.1789" cy="-156.8112" rx="3.2" ry="3.2"/>
</g>
<!-- temporary_absence_occurrence&#45;&gt;reference_data -->
<g id="edge16" class="edge">
<title>temporary_absence_occurrence:w&#45;&gt;reference_data:e</title>
<path fill="none" stroke="#000000" d="M922.7151,-157.2828C826.7918,-145.0017 605.6381,-183.6551 487.2124,-215.8577"/>
<polygon fill="#000000" stroke="#000000" points="929.1121,-158.3652 936.3994,-163.2495 933.0561,-159.0326 937,-159.7 937,-159.7 937,-159.7 933.0561,-159.0326 937.6006,-156.1505 929.1121,-158.3652 929.1121,-158.3652"/>
<ellipse fill="none" stroke="#000000" cx="925.957" cy="-157.8313" rx="3.2" ry="3.2"/>
</g>
<!-- temporary_absence_occurrence&#45;&gt;reference_data -->
<g id="edge17" class="edge">
<title>temporary_absence_occurrence:w&#45;&gt;reference_data:e</title>
<path fill="none" stroke="#000000" d="M922.4186,-158.6538C826.3368,-154.7574 605.5163,-195.4862 487.2124,-223.6316"/>
<polygon fill="#000000" stroke="#000000" points="929.0205,-159.1274 936.7423,-163.2908 933.0103,-159.4137 937,-159.7 937,-159.7 937,-159.7 933.0103,-159.4137 937.2577,-156.1092 929.0205,-159.1274 929.0205,-159.1274"/>
<ellipse fill="none" stroke="#000000" cx="925.8287" cy="-158.8984" rx="3.2" ry="3.2"/>
</g>
<!-- temporary_absence_occurrence&#45;&gt;reference_data -->
<g id="edge18" class="edge">
<title>temporary_absence_occurrence:w&#45;&gt;reference_data:e</title>
<path fill="none" stroke="#000000" d="M922.4186,-160.0625C826.3368,-164.4336 605.5163,-207.2841 487.2124,-231.4055"/>
<polygon fill="#000000" stroke="#000000" points="929.0025,-159.8989 937.0895,-163.2989 933.0012,-159.7994 937,-159.7 937,-159.7 937,-159.7 933.0012,-159.7994 936.9105,-156.1011 929.0025,-159.8989 929.0025,-159.8989"/>
<ellipse fill="none" stroke="#000000" cx="925.8035" cy="-159.9784" rx="3.2" ry="3.2"/>
</g>
<!-- temporary_absence_occurrence&#45;&gt;reference_data -->
<g id="edge19" class="edge">
<title>temporary_absence_occurrence:w&#45;&gt;reference_data:e</title>
<path fill="none" stroke="#000000" d="M922.4186,-161.4712C826.3368,-174.1098 605.5163,-219.082 487.2124,-239.1794"/>
<polygon fill="#000000" stroke="#000000" points="929.0584,-160.6647 937.4341,-163.2737 933.0292,-160.1824 937,-159.7 937,-159.7 937,-159.7 933.0292,-160.1824 936.5659,-156.1263 929.0584,-160.6647 929.0584,-160.6647"/>
<ellipse fill="none" stroke="#000000" cx="925.8817" cy="-161.0506" rx="3.2" ry="3.2"/>
</g>
<!-- temporary_absence_occurrence&#45;&gt;reference_data -->
<g id="edge21" class="edge">
<title>temporary_absence_occurrence:w&#45;&gt;reference_data:e</title>
<path fill="none" stroke="#000000" d="M922.7151,-162.8155C826.7918,-183.689 605.6381,-230.8634 487.2124,-246.9534"/>
<polygon fill="#000000" stroke="#000000" points="929.1837,-161.4047 937.7671,-163.2173 933.0919,-160.5524 937,-159.7 937,-159.7 937,-159.7 933.0919,-160.5524 936.2329,-156.1827 929.1837,-161.4047 929.1837,-161.4047"/>
<ellipse fill="none" stroke="#000000" cx="926.0572" cy="-162.0866" rx="3.2" ry="3.2"/>
</g>
<!-- temporary_absence_occurrence&#45;&gt;reference_data -->
<g id="edge22" class="edge">
<title>temporary_absence_occurrence:w&#45;&gt;reference_data:e</title>
<path fill="none" stroke="#000000" d="M923.0107,-164.1087C827.2469,-193.2593 605.76,-242.6531 487.2124,-254.7273"/>
<polygon fill="#000000" stroke="#000000" points="929.3699,-162.1046 938.0821,-163.1335 933.185,-160.9023 937,-159.7 937,-159.7 937,-159.7 933.185,-160.9023 935.9179,-156.2665 929.3699,-162.1046 929.3699,-162.1046"/>
<ellipse fill="none" stroke="#000000" cx="926.3179" cy="-163.0665" rx="3.2" ry="3.2"/>
</g>
<!-- temporary_absence_occurrence&#45;&gt;temporary_absence_authorisation -->
<g id="edge20" class="edge">
<title>temporary_absence_occurrence:w&#45;&gt;temporary_absence_authorisation:e</title>
<path fill="none" stroke="#000000" d="M922.9647,-163.9444C900.4059,-181.5228 924.3955,-247.7 885,-247.7"/>
<polygon fill="#000000" stroke="#000000" points="929.3425,-162.0158 938.0421,-163.1459 933.1712,-160.8579 937,-159.7 937,-159.7 937,-159.7 933.1712,-160.8579 935.9579,-156.2541 929.3425,-162.0158 929.3425,-162.0158"/>
<ellipse fill="none" stroke="#000000" cx="926.2795" cy="-162.9421" rx="3.2" ry="3.2"/>
</g>
<!-- tap.absence_categorisation_domain_link -->
<g id="node8" class="node">
<title>tap.absence_categorisation_domain_link</title>
<g id="a_node8"><a xlink:title="tap.absence_categorisation_domain_link">
<polygon fill="#ffffff" stroke="transparent" points="253,-135.2 253,-196.2 565,-196.2 565,-135.2 253,-135.2"/>
<polygon fill="#f5f5f5" stroke="transparent" points="253,-172.7 253,-195.7 565,-195.7 565,-172.7 253,-172.7"/>
<polygon fill="none" stroke="#000000" points="253,-172.7 253,-195.7 565,-195.7 565,-172.7 253,-172.7"/>
<text text-anchor="start" x="258" y="-181.3" font-family="Helvetica,sans-Serif" font-weight="bold" font-size="11.00" fill="#000000">tap.absence_categorisation_domain_link</text>
<text text-anchor="start" x="530.5219" y="-180.8" font-family="Helvetica,sans-Serif" font-size="11.00" fill="#000000">[table]</text>
<polygon fill="none" stroke="#000000" points="253,-153.7 253,-172.7 565,-172.7 565,-153.7 253,-153.7"/>
<text text-anchor="start" x="256" y="-159.8" font-family="Helvetica,sans-Serif" font-size="11.00" fill="#000000">...</text>
<polygon fill="#ffffff" stroke="transparent" points="253,-134.7 253,-153.7 394,-153.7 394,-134.7 253,-134.7"/>
<polygon fill="none" stroke="#000000" points="253,-134.7 253,-153.7 394,-153.7 394,-134.7 253,-134.7"/>
<text text-anchor="start" x="256" y="-140.8" font-family="Helvetica,sans-Serif" font-size="11.00" fill="#000000">&lt; 1</text>
<polygon fill="#ffffff" stroke="transparent" points="394,-134.7 394,-153.7 492,-153.7 492,-134.7 394,-134.7"/>
<polygon fill="none" stroke="#000000" points="394,-134.7 394,-153.7 492,-153.7 492,-134.7 394,-134.7"/>
<text text-anchor="start" x="456.6105" y="-140.8" font-family="Helvetica,sans-Serif" font-size="11.00" fill="#000000">0 rows</text>
<polygon fill="#ffffff" stroke="transparent" points="492,-134.7 492,-153.7 565,-153.7 565,-134.7 492,-134.7"/>
<polygon fill="none" stroke="#000000" points="492,-134.7 492,-153.7 565,-153.7 565,-134.7 492,-134.7"/>
<text text-anchor="start" x="555.8862" y="-140.8" font-family="Helvetica,sans-Serif" font-size="11.00" fill="#000000"> &#160;</text>
</a>
</g>
</g>
<!-- tap.absence_categorisation_domain_link&#45;&gt;reference_data_domain -->
<g id="edge23" class="edge">
<title>tap.absence_categorisation_domain_link:w&#45;&gt;reference_data_domain:e</title>
<path fill="none" stroke="#000000" d="M238.1464,-163.7593C201.0734,-168.9572 166.0703,-192.3523 141.4141,-213.1272"/>
<polygon fill="#000000" stroke="#000000" points="245.0203,-163.2691 253.2561,-166.2909 249.0101,-162.9846 253,-162.7 253,-162.7 253,-162.7 249.0101,-162.9846 252.7439,-159.1091 245.0203,-163.2691 245.0203,-163.2691"/>
<ellipse fill="none" stroke="#000000" cx="241.8284" cy="-163.4968" rx="3.2" ry="3.2"/>
</g>
</g>
</svg>
