<?xml version="1.0" encoding="UTF-8" standalone="no"?>
<!DOCTYPE svg PUBLIC "-//W3C//DTD SVG 1.1//EN"
 "http://www.w3.org/Graphics/SVG/1.1/DTD/svg11.dtd">
<!-- Generated by graphviz version 2.40.1 (20161225.0304)
 -->
<!-- Title: twoDegreesRelationshipsDiagram Pages: 1 -->
<svg width="1331pt" height="432pt"
 viewBox="0.00 0.00 1331.00 431.70" xmlns="http://www.w3.org/2000/svg" xmlns:xlink="http://www.w3.org/1999/xlink">
<g id="graph0" class="graph" transform="scale(1 1) rotate(0) translate(4 427.7)">
<title>twoDegreesRelationshipsDiagram</title>
<polygon fill="#ffffff" stroke="transparent" points="-4,4 -4,-427.7 1327,-427.7 1327,4 -4,4"/>
<text text-anchor="middle" x="72.4936" y="-7.3" font-family="Helvetica,sans-Serif" font-size="11.00" fill="#000000">Generated by SchemaSpy</text>
<!-- reference_data -->
<g id="node1" class="node">
<title>reference_data</title>
<g id="a_node1"><a xlink:href="../../tables/reference_data.html" xlink:title="reference_data" target="_top">
<polygon fill="#ffffff" stroke="transparent" points="253,-205.2 253,-266.2 393,-266.2 393,-205.2 253,-205.2"/>
<polygon fill="#f5f5f5" stroke="transparent" points="253,-242.7 253,-265.7 393,-265.7 393,-242.7 253,-242.7"/>
<polygon fill="none" stroke="#000000" points="253,-242.7 253,-265.7 393,-265.7 393,-242.7 253,-242.7"/>
<text text-anchor="start" x="258" y="-251.3" font-family="Helvetica,sans-Serif" font-weight="bold" font-size="11.00" fill="#000000">reference_data</text>
<text text-anchor="start" x="358.5219" y="-250.8" font-family="Helvetica,sans-Serif" font-size="11.00" fill="#000000">[table]</text>
<polygon fill="none" stroke="#000000" points="253,-223.7 253,-242.7 393,-242.7 393,-223.7 253,-223.7"/>
<text text-anchor="start" x="256" y="-229.8" font-family="Helvetica,sans-Serif" font-size="11.00" fill="#000000">...</text>
<polygon fill="#ffffff" stroke="transparent" points="253,-204.7 253,-223.7 314,-223.7 314,-204.7 253,-204.7"/>
<polygon fill="none" stroke="#000000" points="253,-204.7 253,-223.7 314,-223.7 314,-204.7 253,-204.7"/>
<text text-anchor="start" x="256" y="-210.8" font-family="Helvetica,sans-Serif" font-size="11.00" fill="#000000">&lt; 1</text>
<polygon fill="#ffffff" stroke="transparent" points="314,-204.7 314,-223.7 346,-223.7 346,-204.7 314,-204.7"/>
<polygon fill="none" stroke="#000000" points="314,-204.7 314,-223.7 346,-223.7 346,-204.7 314,-204.7"/>
<text text-anchor="start" x="336.8862" y="-210.8" font-family="Helvetica,sans-Serif" font-size="11.00" fill="#000000"> &#160;</text>
<polygon fill="#ffffff" stroke="transparent" points="346,-204.7 346,-223.7 393,-223.7 393,-204.7 346,-204.7"/>
<polygon fill="none" stroke="#000000" points="346,-204.7 346,-223.7 393,-223.7 393,-204.7 346,-204.7"/>
<text text-anchor="start" x="368.2904" y="-210.8" font-family="Helvetica,sans-Serif" font-size="11.00" fill="#000000">17 &gt;</text>
</a>
</g>
</g>
<!-- reference_data_domain -->
<g id="node2" class="node">
<title>reference_data_domain</title>
<g id="a_node2"><a xlink:href="../../tables/reference_data_domain.html" xlink:title="reference_data_domain" target="_top">
<polygon fill="#ffffff" stroke="transparent" points="8,-250.2 8,-311.2 204,-311.2 204,-250.2 8,-250.2"/>
<polygon fill="#f5f5f5" stroke="transparent" points="8,-287.7 8,-310.7 204,-310.7 204,-287.7 8,-287.7"/>
<polygon fill="none" stroke="#000000" points="8,-287.7 8,-310.7 204,-310.7 204,-287.7 8,-287.7"/>
<text text-anchor="start" x="13" y="-296.3" font-family="Helvetica,sans-Serif" font-weight="bold" font-size="11.00" fill="#000000">reference_data_domain</text>
<text text-anchor="start" x="169.5219" y="-295.8" font-family="Helvetica,sans-Serif" font-size="11.00" fill="#000000">[table]</text>
<polygon fill="none" stroke="#000000" points="8,-268.7 8,-287.7 204,-287.7 204,-268.7 8,-268.7"/>
<text text-anchor="start" x="11" y="-274.8" font-family="Helvetica,sans-Serif" font-size="11.00" fill="#000000">...</text>
<polygon fill="#ffffff" stroke="transparent" points="8,-249.7 8,-268.7 95,-268.7 95,-249.7 8,-249.7"/>
<polygon fill="none" stroke="#000000" points="8,-249.7 8,-268.7 95,-268.7 95,-249.7 8,-249.7"/>
<text text-anchor="start" x="11" y="-255.8" font-family="Helvetica,sans-Serif" font-size="11.00" fill="#000000"> &#160;</text>
<polygon fill="#ffffff" stroke="transparent" points="95,-249.7 95,-268.7 145,-268.7 145,-249.7 95,-249.7"/>
<polygon fill="none" stroke="#000000" points="95,-249.7 95,-268.7 145,-268.7 145,-249.7 95,-249.7"/>
<text text-anchor="start" x="135.8862" y="-255.8" font-family="Helvetica,sans-Serif" font-size="11.00" fill="#000000"> &#160;</text>
<polygon fill="#ffffff" stroke="transparent" points="145,-249.7 145,-268.7 204,-268.7 204,-249.7 145,-249.7"/>
<polygon fill="none" stroke="#000000" points="145,-249.7 145,-268.7 204,-268.7 204,-249.7 145,-249.7"/>
<text text-anchor="start" x="185.4053" y="-255.8" font-family="Helvetica,sans-Serif" font-size="11.00" fill="#000000">2 &gt;</text>
</a>
</g>
</g>
<!-- reference_data&#45;&gt;reference_data_domain -->
<g id="edge1" class="edge">
<title>reference_data:w&#45;&gt;reference_data_domain:e</title>
<path fill="none" stroke="#000000" d="M230.7227,-254.8359C224.5465,-256.1166 218.2986,-257.4123 212.0615,-258.7057"/>
<polygon fill="#000000" stroke="#000000" points="237.1313,-253.5069 245.6956,-255.4075 241.0479,-252.6947 244.9646,-251.8825 244.9646,-251.8825 244.9646,-251.8825 241.0479,-252.6947 244.2336,-248.3575 237.1313,-253.5069 237.1313,-253.5069"/>
<ellipse fill="none" stroke="#000000" cx="233.9979" cy="-254.1567" rx="3.2" ry="3.2"/>
</g>
<!-- reference_data_domain_link -->
<g id="node3" class="node">
<title>reference_data_domain_link</title>
<g id="a_node3"><a xlink:href="../../tables/reference_data_domain_link.html" xlink:title="reference_data_domain_link" target="_top">
<polygon fill="#ffffff" stroke="transparent" points="442,-329.7 442,-419.7 716,-419.7 716,-329.7 442,-329.7"/>
<polygon fill="#f5f5f5" stroke="transparent" points="444,-394.7 444,-417.7 714,-417.7 714,-394.7 444,-394.7"/>
<polygon fill="none" stroke="#000000" points="444,-394.7 444,-417.7 714,-417.7 714,-394.7 444,-394.7"/>
<text text-anchor="start" x="449" y="-403.3" font-family="Helvetica,sans-Serif" font-weight="bold" font-size="11.00" fill="#000000">reference_data_domain_link</text>
<text text-anchor="start" x="679.0437" y="-402.8" font-family="Helvetica,sans-Serif" font-size="11.00" fill="#000000">[table]</text>
<polygon fill="none" stroke="#000000" points="444,-372.7 444,-394.7 653,-394.7 653,-372.7 444,-372.7"/>
<image xlink:href="../../images/primaryKeys.png" width="11px" height="12px" preserveAspectRatio="xMinYMin meet" x="449" y="-389.7"/>
<text text-anchor="start" x="464" y="-379.8" font-family="Helvetica,sans-Serif" font-size="11.00" fill="#000000">id</text>
<polygon fill="none" stroke="#000000" points="653,-372.7 653,-394.7 714,-394.7 714,-372.7 653,-372.7"/>
<text text-anchor="start" x="656" y="-380.4" font-family="Helvetica,sans-Serif" font-size="11.00" fill="#000000">int8[19]</text>
<polygon fill="none" stroke="#000000" points="444,-350.7 444,-372.7 653,-372.7 653,-350.7 444,-350.7"/>
<image xlink:href="../../images/foreignKeys.png" width="11px" height="12px" preserveAspectRatio="xMinYMin meet" x="449" y="-367.7"/>
<text text-anchor="start" x="464" y="-357.8" font-family="Helvetica,sans-Serif" font-size="11.00" fill="#000000">domain</text>
<polygon fill="none" stroke="#000000" points="653,-350.7 653,-372.7 714,-372.7 714,-350.7 653,-350.7"/>
<text text-anchor="start" x="655.994" y="-358.4" font-family="Helvetica,sans-Serif" font-size="11.00" fill="#000000">varchar[32]</text>
<polygon fill="#ffffff" stroke="transparent" points="444,-331.7 444,-350.7 553,-350.7 553,-331.7 444,-331.7"/>
<polygon fill="none" stroke="#000000" points="444,-331.7 444,-350.7 553,-350.7 553,-331.7 444,-331.7"/>
<text text-anchor="start" x="447" y="-337.8" font-family="Helvetica,sans-Serif" font-size="11.00" fill="#000000">&lt; 2</text>
<polygon fill="#ffffff" stroke="transparent" points="553,-331.7 553,-350.7 653,-350.7 653,-331.7 553,-331.7"/>
<polygon fill="none" stroke="#000000" points="553,-331.7 553,-350.7 653,-350.7 653,-331.7 553,-331.7"/>
<text text-anchor="start" x="643.8862" y="-337.8" font-family="Helvetica,sans-Serif" font-size="11.00" fill="#000000"> &#160;</text>
<polygon fill="#ffffff" stroke="transparent" points="653,-331.7 653,-350.7 714,-350.7 714,-331.7 653,-331.7"/>
<polygon fill="none" stroke="#000000" points="653,-331.7 653,-350.7 714,-350.7 714,-331.7 653,-331.7"/>
<text text-anchor="start" x="695.4053" y="-337.8" font-family="Helvetica,sans-Serif" font-size="11.00" fill="#000000">0 &gt;</text>
<polygon fill="none" stroke="#000000" stroke-width="2" points="443,-330.7 443,-418.7 715,-418.7 715,-330.7 443,-330.7"/>
</a>
</g>
</g>
<!-- reference_data_domain_link&#45;&gt;reference_data -->
<g id="edge3" class="edge">
<title>reference_data_domain_link:w&#45;&gt;reference_data:e</title>
<path fill="none" stroke="#000000" d="M433.6712,-382.2379C411.1457,-374.8046 420.6475,-340.586 401,-315.7 388.6194,-300.0184 373.5746,-284.0051 360.0137,-270.4656"/>
<polygon fill="#000000" stroke="#000000" points="443.7686,-379.6274 442.6472,-387.5484 441.063,-387.3241 442.1844,-379.4031 443.7686,-379.6274"/>
<polyline fill="none" stroke="#000000" points="444,-383.7 440.0395,-383.1393 "/>
<ellipse fill="none" stroke="#000000" cx="436.8711" cy="-382.6908" rx="3.2" ry="3.2"/>
</g>
<!-- reference_data_domain_link&#45;&gt;reference_data_domain -->
<g id="edge2" class="edge">
<title>reference_data_domain_link:w&#45;&gt;reference_data_domain:e</title>
<path fill="none" stroke="#000000" d="M429.5161,-361.47C348.7089,-358.9438 261.8862,-336.0548 198.55,-315.2862"/>
<polygon fill="#000000" stroke="#000000" points="436.001,-361.5729 443.9428,-365.2995 440.0005,-361.6365 444,-361.7 444,-361.7 444,-361.7 440.0005,-361.6365 444.0572,-358.1005 436.001,-361.5729 436.001,-361.5729"/>
<ellipse fill="none" stroke="#000000" cx="432.8014" cy="-361.5221" rx="3.2" ry="3.2"/>
</g>
<!-- reference_data_link -->
<g id="node4" class="node">
<title>reference_data_link</title>
<g id="a_node4"><a xlink:href="../../tables/reference_data_link.html" xlink:title="reference_data_link" target="_top">
<polygon fill="#ffffff" stroke="transparent" points="493.5,-38.2 493.5,-99.2 664.5,-99.2 664.5,-38.2 493.5,-38.2"/>
<polygon fill="#f5f5f5" stroke="transparent" points="494,-75.7 494,-98.7 665,-98.7 665,-75.7 494,-75.7"/>
<polygon fill="none" stroke="#000000" points="494,-75.7 494,-98.7 665,-98.7 665,-75.7 494,-75.7"/>
<text text-anchor="start" x="499" y="-84.3" font-family="Helvetica,sans-Serif" font-weight="bold" font-size="11.00" fill="#000000">reference_data_link</text>
<text text-anchor="start" x="630.5219" y="-83.8" font-family="Helvetica,sans-Serif" font-size="11.00" fill="#000000">[table]</text>
<polygon fill="none" stroke="#000000" points="494,-56.7 494,-75.7 665,-75.7 665,-56.7 494,-56.7"/>
<text text-anchor="start" x="497" y="-62.8" font-family="Helvetica,sans-Serif" font-size="11.00" fill="#000000">...</text>
<polygon fill="#ffffff" stroke="transparent" points="494,-37.7 494,-56.7 578,-56.7 578,-37.7 494,-37.7"/>
<polygon fill="none" stroke="#000000" points="494,-37.7 494,-56.7 578,-56.7 578,-37.7 494,-37.7"/>
<text text-anchor="start" x="497" y="-43.8" font-family="Helvetica,sans-Serif" font-size="11.00" fill="#000000">&lt; 2</text>
<polygon fill="#ffffff" stroke="transparent" points="578,-37.7 578,-56.7 621,-56.7 621,-37.7 578,-37.7"/>
<polygon fill="none" stroke="#000000" points="578,-37.7 578,-56.7 621,-56.7 621,-37.7 578,-37.7"/>
<text text-anchor="start" x="611.8862" y="-43.8" font-family="Helvetica,sans-Serif" font-size="11.00" fill="#000000"> &#160;</text>
<polygon fill="#ffffff" stroke="transparent" points="621,-37.7 621,-56.7 665,-56.7 665,-37.7 621,-37.7"/>
<polygon fill="none" stroke="#000000" points="621,-37.7 621,-56.7 665,-56.7 665,-37.7 621,-37.7"/>
<text text-anchor="start" x="655.8862" y="-43.8" font-family="Helvetica,sans-Serif" font-size="11.00" fill="#000000"> &#160;</text>
</a>
</g>
</g>
<!-- reference_data_link&#45;&gt;reference_data -->
<g id="edge4" class="edge">
<title>reference_data_link:w&#45;&gt;reference_data:e</title>
<path fill="none" stroke="#000000" d="M479.2316,-65.98C409.1763,-72.5995 359.5859,-153.1809 336.899,-200.9433"/>
<polygon fill="#000000" stroke="#000000" points="486.0014,-65.8517 494.0683,-69.2994 490.0007,-65.7759 494,-65.7 494,-65.7 494,-65.7 490.0007,-65.7759 493.9317,-62.1006 486.0014,-65.8517 486.0014,-65.8517"/>
<ellipse fill="none" stroke="#000000" cx="482.802" cy="-65.9124" rx="3.2" ry="3.2"/>
</g>
<!-- reference_data_link&#45;&gt;reference_data -->
<g id="edge5" class="edge">
<title>reference_data_link:w&#45;&gt;reference_data:e</title>
<path fill="none" stroke="#000000" d="M479.5549,-67.6539C413.1569,-81.3079 365.101,-156.0452 340.8542,-201.1948"/>
<polygon fill="#000000" stroke="#000000" points="486.0722,-66.7724 494.4826,-69.2675 490.0361,-66.2362 494,-65.7 494,-65.7 494,-65.7 490.0361,-66.2362 493.5174,-62.1325 486.0722,-66.7724 486.0722,-66.7724"/>
<ellipse fill="none" stroke="#000000" cx="482.9011" cy="-67.2013" rx="3.2" ry="3.2"/>
</g>
<!-- temporary_absence_authorisation -->
<g id="node5" class="node">
<title>temporary_absence_authorisation</title>
<g id="a_node5"><a xlink:href="../../tables/temporary_absence_authorisation.html" xlink:title="temporary_absence_authorisation" target="_top">
<polygon fill="#ffffff" stroke="transparent" points="445,-208.2 445,-269.2 713,-269.2 713,-208.2 445,-208.2"/>
<polygon fill="#f5f5f5" stroke="transparent" points="445,-245.7 445,-268.7 713,-268.7 713,-245.7 445,-245.7"/>
<polygon fill="none" stroke="#000000" points="445,-245.7 445,-268.7 713,-268.7 713,-245.7 445,-245.7"/>
<text text-anchor="start" x="450" y="-254.3" font-family="Helvetica,sans-Serif" font-weight="bold" font-size="11.00" fill="#000000">temporary_absence_authorisation</text>
<text text-anchor="start" x="678.5219" y="-253.8" font-family="Helvetica,sans-Serif" font-size="11.00" fill="#000000">[table]</text>
<polygon fill="none" stroke="#000000" points="445,-226.7 445,-245.7 713,-245.7 713,-226.7 445,-226.7"/>
<text text-anchor="start" x="448" y="-232.8" font-family="Helvetica,sans-Serif" font-size="11.00" fill="#000000">...</text>
<polygon fill="#ffffff" stroke="transparent" points="445,-207.7 445,-226.7 573,-226.7 573,-207.7 445,-207.7"/>
<polygon fill="none" stroke="#000000" points="445,-207.7 445,-226.7 573,-226.7 573,-207.7 445,-207.7"/>
<text text-anchor="start" x="448" y="-213.8" font-family="Helvetica,sans-Serif" font-size="11.00" fill="#000000">&lt; 6</text>
<polygon fill="#ffffff" stroke="transparent" points="573,-207.7 573,-226.7 638,-226.7 638,-207.7 573,-207.7"/>
<polygon fill="none" stroke="#000000" points="573,-207.7 573,-226.7 638,-226.7 638,-207.7 573,-207.7"/>
<text text-anchor="start" x="628.8862" y="-213.8" font-family="Helvetica,sans-Serif" font-size="11.00" fill="#000000"> &#160;</text>
<polygon fill="#ffffff" stroke="transparent" points="638,-207.7 638,-226.7 713,-226.7 713,-207.7 638,-207.7"/>
<polygon fill="none" stroke="#000000" points="638,-207.7 638,-226.7 713,-226.7 713,-207.7 638,-207.7"/>
<text text-anchor="start" x="694.4053" y="-213.8" font-family="Helvetica,sans-Serif" font-size="11.00" fill="#000000">1 &gt;</text>
</a>
</g>
</g>
<!-- temporary_absence_authorisation&#45;&gt;reference_data -->
<g id="edge6" class="edge">
<title>temporary_absence_authorisation:w&#45;&gt;reference_data:e</title>
<path fill="none" stroke="#000000" d="M432.1538,-228.8206C421.8785,-223.847 411.3582,-219.957 401.0996,-217.1507"/>
<polygon fill="#000000" stroke="#000000" points="437.9476,-231.9232 443.3005,-238.8736 441.4738,-233.8116 445,-235.7 445,-235.7 445,-235.7 441.4738,-233.8116 446.6995,-232.5264 437.9476,-231.9232 437.9476,-231.9232"/>
<ellipse fill="none" stroke="#000000" cx="435.1266" cy="-230.4125" rx="3.2" ry="3.2"/>
</g>
<!-- temporary_absence_authorisation&#45;&gt;reference_data -->
<g id="edge7" class="edge">
<title>temporary_absence_authorisation:w&#45;&gt;reference_data:e</title>
<path fill="none" stroke="#000000" d="M431.1255,-231.3222C421.1774,-228.509 411.0162,-226.2971 401.0996,-224.6863"/>
<polygon fill="#000000" stroke="#000000" points="437.3708,-233.2927 443.9167,-239.1332 441.1854,-234.4964 445,-235.7 445,-235.7 445,-235.7 441.1854,-234.4964 446.0833,-232.2668 437.3708,-233.2927 437.3708,-233.2927"/>
<ellipse fill="none" stroke="#000000" cx="434.3191" cy="-232.3298" rx="3.2" ry="3.2"/>
</g>
<!-- temporary_absence_authorisation&#45;&gt;reference_data -->
<g id="edge8" class="edge">
<title>temporary_absence_authorisation:w&#45;&gt;reference_data:e</title>
<path fill="none" stroke="#000000" d="M430.4391,-234.2566C420.7104,-233.3971 410.7882,-232.719 401.0996,-232.222"/>
<polygon fill="#000000" stroke="#000000" points="437.039,-234.9108 444.6448,-239.2824 441.0195,-235.3054 445,-235.7 445,-235.7 445,-235.7 441.0195,-235.3054 445.3552,-232.1176 437.039,-234.9108 437.039,-234.9108"/>
<ellipse fill="none" stroke="#000000" cx="433.8546" cy="-234.5951" rx="3.2" ry="3.2"/>
</g>
<!-- temporary_absence_authorisation&#45;&gt;reference_data -->
<g id="edge9" class="edge">
<title>temporary_absence_authorisation:w&#45;&gt;reference_data:e</title>
<path fill="none" stroke="#000000" d="M430.4391,-237.384C420.7104,-238.3867 410.7882,-239.1779 401.0996,-239.7577"/>
<polygon fill="#000000" stroke="#000000" points="437.053,-236.6191 445.4136,-239.2762 441.0265,-236.1596 445,-235.7 445,-235.7 445,-235.7 441.0265,-236.1596 444.5864,-232.1238 437.053,-236.6191 437.053,-236.6191"/>
<ellipse fill="none" stroke="#000000" cx="433.8742" cy="-236.9868" rx="3.2" ry="3.2"/>
</g>
<!-- temporary_absence_authorisation&#45;&gt;reference_data -->
<g id="edge10" class="edge">
<title>temporary_absence_authorisation:w&#45;&gt;reference_data:e</title>
<path fill="none" stroke="#000000" d="M431.1255,-240.3082C421.1774,-243.2695 411.0162,-245.5978 401.0996,-247.2933"/>
<polygon fill="#000000" stroke="#000000" points="437.4078,-238.2217 446.1348,-239.1165 441.2039,-236.9608 445,-235.7 445,-235.7 445,-235.7 441.2039,-236.9608 443.8652,-232.2835 437.4078,-238.2217 437.4078,-238.2217"/>
<ellipse fill="none" stroke="#000000" cx="434.3709" cy="-239.2304" rx="3.2" ry="3.2"/>
</g>
<!-- temporary_absence_authorisation&#45;&gt;reference_data -->
<g id="edge11" class="edge">
<title>temporary_absence_authorisation:w&#45;&gt;reference_data:e</title>
<path fill="none" stroke="#000000" d="M432.1538,-242.7944C421.8785,-247.9234 411.3582,-251.935 401.0996,-254.829"/>
<polygon fill="#000000" stroke="#000000" points="437.997,-239.5675 446.7404,-238.8514 441.4985,-237.6338 445,-235.7 445,-235.7 445,-235.7 441.4985,-237.6338 443.2596,-232.5486 437.997,-239.5675 437.997,-239.5675"/>
<ellipse fill="none" stroke="#000000" cx="435.1957" cy="-241.1145" rx="3.2" ry="3.2"/>
</g>
<!-- temporary_absence_movement -->
<g id="node6" class="node">
<title>temporary_absence_movement</title>
<g id="a_node6"><a xlink:href="../../tables/temporary_absence_movement.html" xlink:title="temporary_absence_movement" target="_top">
<polygon fill="#ffffff" stroke="transparent" points="1066,-272.2 1066,-333.2 1315,-333.2 1315,-272.2 1066,-272.2"/>
<polygon fill="#f5f5f5" stroke="transparent" points="1066.5,-309.7 1066.5,-332.7 1315.5,-332.7 1315.5,-309.7 1066.5,-309.7"/>
<polygon fill="none" stroke="#000000" points="1066.5,-309.7 1066.5,-332.7 1315.5,-332.7 1315.5,-309.7 1066.5,-309.7"/>
<text text-anchor="start" x="1071.5" y="-318.3" font-family="Helvetica,sans-Serif" font-weight="bold" font-size="11.00" fill="#000000">temporary_absence_movement</text>
<text text-anchor="start" x="1281.0219" y="-317.8" font-family="Helvetica,sans-Serif" font-size="11.00" fill="#000000">[table]</text>
<polygon fill="none" stroke="#000000" points="1066.5,-290.7 1066.5,-309.7 1315.5,-309.7 1315.5,-290.7 1066.5,-290.7"/>
<text text-anchor="start" x="1069.5" y="-296.8" font-family="Helvetica,sans-Serif" font-size="11.00" fill="#000000">...</text>
<polygon fill="#ffffff" stroke="transparent" points="1066.5,-271.7 1066.5,-290.7 1189.5,-290.7 1189.5,-271.7 1066.5,-271.7"/>
<polygon fill="none" stroke="#000000" points="1066.5,-271.7 1066.5,-290.7 1189.5,-290.7 1189.5,-271.7 1066.5,-271.7"/>
<text text-anchor="start" x="1069.5" y="-277.8" font-family="Helvetica,sans-Serif" font-size="11.00" fill="#000000">&lt; 3</text>
<polygon fill="#ffffff" stroke="transparent" points="1189.5,-271.7 1189.5,-290.7 1252.5,-290.7 1252.5,-271.7 1189.5,-271.7"/>
<polygon fill="none" stroke="#000000" points="1189.5,-271.7 1189.5,-290.7 1252.5,-290.7 1252.5,-271.7 1189.5,-271.7"/>
<text text-anchor="start" x="1243.3862" y="-277.8" font-family="Helvetica,sans-Serif" font-size="11.00" fill="#000000"> &#160;</text>
<polygon fill="#ffffff" stroke="transparent" points="1252.5,-271.7 1252.5,-290.7 1315.5,-290.7 1315.5,-271.7 1252.5,-271.7"/>
<polygon fill="none" stroke="#000000" points="1252.5,-271.7 1252.5,-290.7 1315.5,-290.7 1315.5,-271.7 1252.5,-271.7"/>
<text text-anchor="start" x="1306.3862" y="-277.8" font-family="Helvetica,sans-Serif" font-size="11.00" fill="#000000"> &#160;</text>
</a>
</g>
</g>
<!-- temporary_absence_movement&#45;&gt;reference_data -->
<g id="edge12" class="edge">
<title>temporary_absence_movement:w&#45;&gt;reference_data:e</title>
<path fill="none" stroke="#000000" d="M1051.8566,-299.4228C782.5199,-294.9758 704.55,-329.8127 434,-273.7 423.1407,-271.4478 411.9725,-268.2152 401.0986,-264.5652"/>
<polygon fill="#000000" stroke="#000000" points="1058.5014,-299.5485 1066.4318,-303.2994 1062.5007,-299.6243 1066.5,-299.7 1066.5,-299.7 1066.5,-299.7 1062.5007,-299.6243 1066.5682,-296.1006 1058.5014,-299.5485 1058.5014,-299.5485"/>
<ellipse fill="none" stroke="#000000" cx="1055.302" cy="-299.488" rx="3.2" ry="3.2"/>
</g>
<!-- temporary_absence_movement&#45;&gt;reference_data -->
<g id="edge13" class="edge">
<title>temporary_absence_movement:w&#45;&gt;reference_data:e</title>
<path fill="none" stroke="#000000" d="M1051.8566,-300.0964C782.5199,-307.9758 704.55,-342.8127 434,-286.7 416.6455,-283.1006 398.5017,-276.9975 382.0317,-270.2038"/>
<polygon fill="#000000" stroke="#000000" points="1058.5029,-299.9165 1066.5974,-303.2987 1062.5015,-299.8083 1066.5,-299.7 1066.5,-299.7 1066.5,-299.7 1062.5015,-299.8083 1066.4026,-296.1013 1058.5029,-299.9165 1058.5029,-299.9165"/>
<ellipse fill="none" stroke="#000000" cx="1055.3041" cy="-300.0031" rx="3.2" ry="3.2"/>
</g>
<!-- temporary_absence_occurrence -->
<g id="node7" class="node">
<title>temporary_absence_occurrence</title>
<g id="a_node7"><a xlink:href="../../tables/temporary_absence_occurrence.html" xlink:title="temporary_absence_occurrence" target="_top">
<polygon fill="#ffffff" stroke="transparent" points="765,-126.2 765,-187.2 1017,-187.2 1017,-126.2 765,-126.2"/>
<polygon fill="#f5f5f5" stroke="transparent" points="765,-163.7 765,-186.7 1017,-186.7 1017,-163.7 765,-163.7"/>
<polygon fill="none" stroke="#000000" points="765,-163.7 765,-186.7 1017,-186.7 1017,-163.7 765,-163.7"/>
<text text-anchor="start" x="770" y="-172.3" font-family="Helvetica,sans-Serif" font-weight="bold" font-size="11.00" fill="#000000">temporary_absence_occurrence</text>
<text text-anchor="start" x="982.5219" y="-171.8" font-family="Helvetica,sans-Serif" font-size="11.00" fill="#000000">[table]</text>
<polygon fill="none" stroke="#000000" points="765,-144.7 765,-163.7 1017,-163.7 1017,-144.7 765,-144.7"/>
<text text-anchor="start" x="768" y="-150.8" font-family="Helvetica,sans-Serif" font-size="11.00" fill="#000000">...</text>
<polygon fill="#ffffff" stroke="transparent" points="765,-125.7 765,-144.7 885,-144.7 885,-125.7 765,-125.7"/>
<polygon fill="none" stroke="#000000" points="765,-125.7 765,-144.7 885,-144.7 885,-125.7 765,-125.7"/>
<text text-anchor="start" x="768" y="-131.8" font-family="Helvetica,sans-Serif" font-size="11.00" fill="#000000">&lt; 7</text>
<polygon fill="#ffffff" stroke="transparent" points="885,-125.7 885,-144.7 946,-144.7 946,-125.7 885,-125.7"/>
<polygon fill="none" stroke="#000000" points="885,-125.7 885,-144.7 946,-144.7 946,-125.7 885,-125.7"/>
<text text-anchor="start" x="936.8862" y="-131.8" font-family="Helvetica,sans-Serif" font-size="11.00" fill="#000000"> &#160;</text>
<polygon fill="#ffffff" stroke="transparent" points="946,-125.7 946,-144.7 1017,-144.7 1017,-125.7 946,-125.7"/>
<polygon fill="none" stroke="#000000" points="946,-125.7 946,-144.7 1017,-144.7 1017,-125.7 946,-125.7"/>
<text text-anchor="start" x="998.4053" y="-131.8" font-family="Helvetica,sans-Serif" font-size="11.00" fill="#000000">1 &gt;</text>
</a>
</g>
</g>
<!-- temporary_absence_movement&#45;&gt;temporary_absence_occurrence -->
<g id="edge14" class="edge">
<title>temporary_absence_movement:w&#45;&gt;temporary_absence_occurrence:e</title>
<path fill="none" stroke="#000000" d="M1052.3541,-296.7836C1011.5853,-276.2064 1079.7626,-153.7 1017,-153.7"/>
<polygon fill="#000000" stroke="#000000" points="1058.6648,-298.0846 1065.7731,-303.2258 1062.5824,-298.8923 1066.5,-299.7 1066.5,-299.7 1066.5,-299.7 1062.5824,-298.8923 1067.2269,-296.1742 1058.6648,-298.0846 1058.6648,-298.0846"/>
<ellipse fill="none" stroke="#000000" cx="1055.5307" cy="-297.4384" rx="3.2" ry="3.2"/>
</g>
<!-- temporary_absence_occurrence&#45;&gt;reference_data -->
<g id="edge15" class="edge">
<title>temporary_absence_occurrence:w&#45;&gt;reference_data:e</title>
<path fill="none" stroke="#000000" d="M750.5742,-150.6508C613.9454,-122.392 573.6667,-132.8512 434,-165.7 403.2669,-172.9282 369.0579,-185.334 346.8486,-201.1006"/>
<polygon fill="#000000" stroke="#000000" points="757.1729,-152.0455 764.2555,-157.2222 761.0865,-152.8728 765,-153.7 765,-153.7 765,-153.7 761.0865,-152.8728 765.7445,-150.1778 757.1729,-152.0455 757.1729,-152.0455"/>
<ellipse fill="none" stroke="#000000" cx="754.0421" cy="-151.3838" rx="3.2" ry="3.2"/>
</g>
<!-- temporary_absence_occurrence&#45;&gt;reference_data -->
<g id="edge16" class="edge">
<title>temporary_absence_occurrence:w&#45;&gt;reference_data:e</title>
<path fill="none" stroke="#000000" d="M750.5742,-151.9032C613.9454,-135.392 573.6667,-145.8512 434,-178.7 411.3963,-184.0163 386.9124,-192.1332 366.7052,-201.1802"/>
<polygon fill="#000000" stroke="#000000" points="757.0613,-152.7112 764.555,-157.2724 761.0307,-153.2056 765,-153.7 765,-153.7 765,-153.7 761.0307,-153.2056 765.445,-150.1276 757.0613,-152.7112 757.0613,-152.7112"/>
<ellipse fill="none" stroke="#000000" cx="753.8859" cy="-152.3156" rx="3.2" ry="3.2"/>
</g>
<!-- temporary_absence_occurrence&#45;&gt;reference_data -->
<g id="edge17" class="edge">
<title>temporary_absence_occurrence:w&#45;&gt;reference_data:e</title>
<path fill="none" stroke="#000000" d="M750.5742,-153.1556C613.9454,-148.392 573.6667,-158.8512 434,-191.7 422.9956,-194.2882 411.5455,-197.5402 400.3602,-201.1076"/>
<polygon fill="#000000" stroke="#000000" points="757.0057,-153.3983 764.8642,-157.2974 761.0028,-153.5491 765,-153.7 765,-153.7 765,-153.7 761.0028,-153.5491 765.1358,-150.1026 757.0057,-153.3983 757.0057,-153.3983"/>
<ellipse fill="none" stroke="#000000" cx="753.808" cy="-153.2776" rx="3.2" ry="3.2"/>
</g>
<!-- temporary_absence_occurrence&#45;&gt;reference_data -->
<g id="edge18" class="edge">
<title>temporary_absence_occurrence:w&#45;&gt;reference_data:e</title>
<path fill="none" stroke="#000000" d="M750.5742,-154.408C613.9454,-161.392 573.6667,-171.8512 434,-204.7 423.293,-207.2182 412.1641,-210.3649 401.2677,-213.6971"/>
<polygon fill="#000000" stroke="#000000" points="757.0096,-154.0922 765.1765,-157.2957 761.0048,-153.8961 765,-153.7 765,-153.7 765,-153.7 761.0048,-153.8961 764.8235,-150.1043 757.0096,-154.0922 757.0096,-154.0922"/>
<ellipse fill="none" stroke="#000000" cx="753.8135" cy="-154.2491" rx="3.2" ry="3.2"/>
</g>
<!-- temporary_absence_occurrence&#45;&gt;reference_data -->
<g id="edge19" class="edge">
<title>temporary_absence_occurrence:w&#45;&gt;reference_data:e</title>
<path fill="none" stroke="#000000" d="M750.5742,-155.6604C613.9454,-174.392 573.6667,-184.8512 434,-217.7 423.293,-220.2182 412.1641,-223.3649 401.2677,-226.5751"/>
<polygon fill="#000000" stroke="#000000" points="757.0729,-154.7773 765.4848,-157.2672 761.0364,-154.2387 765,-153.7 765,-153.7 765,-153.7 761.0364,-154.2387 764.5152,-150.1328 757.0729,-154.7773 757.0729,-154.7773"/>
<ellipse fill="none" stroke="#000000" cx="753.902" cy="-155.2083" rx="3.2" ry="3.2"/>
</g>
<!-- temporary_absence_occurrence&#45;&gt;reference_data -->
<g id="edge21" class="edge">
<title>temporary_absence_occurrence:w&#45;&gt;reference_data:e</title>
<path fill="none" stroke="#000000" d="M750.5742,-156.9128C613.9454,-187.392 573.6667,-197.8512 434,-230.7 423.293,-233.2182 412.1641,-236.3649 401.2677,-239.4531"/>
<polygon fill="#000000" stroke="#000000" points="757.1913,-155.4392 765.7826,-157.2139 761.0957,-154.5696 765,-153.7 765,-153.7 765,-153.7 761.0957,-154.5696 764.2174,-150.1861 757.1913,-155.4392 757.1913,-155.4392"/>
<ellipse fill="none" stroke="#000000" cx="754.0678" cy="-156.1348" rx="3.2" ry="3.2"/>
</g>
<!-- temporary_absence_occurrence&#45;&gt;temporary_absence_authorisation -->
<g id="edge20" class="edge">
<title>temporary_absence_occurrence:w&#45;&gt;temporary_absence_authorisation:e</title>
<path fill="none" stroke="#000000" d="M750.9589,-158.1087C729.963,-175.1409 750.086,-235.7 713,-235.7"/>
<polygon fill="#000000" stroke="#000000" points="757.3674,-156.0966 766.0785,-157.1347 761.1837,-154.8983 765,-153.7 765,-153.7 765,-153.7 761.1837,-154.8983 763.9215,-150.2653 757.3674,-156.0966 757.3674,-156.0966"/>
<ellipse fill="none" stroke="#000000" cx="754.3143" cy="-157.0552" rx="3.2" ry="3.2"/>
</g>
</g>
</svg>
