<?xml version="1.0" encoding="UTF-8" standalone="no"?>
<!DOCTYPE svg PUBLIC "-//W3C//DTD SVG 1.1//EN"
 "http://www.w3.org/Graphics/SVG/1.1/DTD/svg11.dtd">
<!-- Generated by graphviz version 2.40.1 (20161225.0304)
 -->
<!-- Title: twoDegreesRelationshipsDiagram Pages: 1 -->
<svg width="1328pt" height="475pt"
 viewBox="0.00 0.00 1328.00 475.20" xmlns="http://www.w3.org/2000/svg" xmlns:xlink="http://www.w3.org/1999/xlink">
<g id="graph0" class="graph" transform="scale(1 1) rotate(0) translate(4 471.2)">
<title>twoDegreesRelationshipsDiagram</title>
<polygon fill="#ffffff" stroke="transparent" points="-4,4 -4,-471.2 1324,-471.2 1324,4 -4,4"/>
<text text-anchor="middle" x="72.4936" y="-7.3" font-family="Helvetica,sans-Serif" font-size="11.00" fill="#000000">Generated by SchemaSpy</text>
<!-- reference_data -->
<g id="node1" class="node">
<title>reference_data</title>
<g id="a_node1"><a xlink:href="../../tables/reference_data.html" xlink:title="reference_data" target="_top">
<polygon fill="#ffffff" stroke="transparent" points="253,-39.2 253,-188.2 396,-188.2 396,-39.2 253,-39.2"/>
<polygon fill="#f5f5f5" stroke="transparent" points="253.5,-164.7 253.5,-187.7 396.5,-187.7 396.5,-164.7 253.5,-164.7"/>
<polygon fill="none" stroke="#000000" points="253.5,-164.7 253.5,-187.7 396.5,-187.7 396.5,-164.7 253.5,-164.7"/>
<text text-anchor="start" x="258.5" y="-173.3" font-family="Helvetica,sans-Serif" font-weight="bold" font-size="11.00" fill="#000000">reference_data</text>
<text text-anchor="start" x="361.5437" y="-172.8" font-family="Helvetica,sans-Serif" font-size="11.00" fill="#000000">[table]</text>
<polygon fill="none" stroke="#000000" points="253.5,-142.7 253.5,-164.7 396.5,-164.7 396.5,-142.7 253.5,-142.7"/>
<image xlink:href="../../images/primaryKeys.png" width="11px" height="12px" preserveAspectRatio="xMinYMin meet" x="258.5" y="-159.7"/>
<text text-anchor="start" x="273.5" y="-149.8" font-family="Helvetica,sans-Serif" font-size="11.00" fill="#000000">id</text>
<polygon fill="#ffffff" stroke="transparent" points="253.5,-120.7 253.5,-142.7 396.5,-142.7 396.5,-120.7 253.5,-120.7"/>
<polygon fill="none" stroke="#000000" points="253.5,-120.7 253.5,-142.7 396.5,-142.7 396.5,-120.7 253.5,-120.7"/>
<image xlink:href="../../images/foreignKeys.png" width="11px" height="12px" preserveAspectRatio="xMinYMin meet" x="258.5" y="-137.7"/>
<text text-anchor="start" x="273.5" y="-127.8" font-family="Helvetica,sans-Serif" font-size="11.00" fill="#000000">domain</text>
<polygon fill="#ffffff" stroke="transparent" points="253.5,-98.7 253.5,-120.7 396.5,-120.7 396.5,-98.7 253.5,-98.7"/>
<polygon fill="none" stroke="#000000" points="253.5,-98.7 253.5,-120.7 396.5,-120.7 396.5,-98.7 253.5,-98.7"/>
<text text-anchor="start" x="273.5" y="-105.8" font-family="Helvetica,sans-Serif" font-size="11.00" fill="#000000">code</text>
<polygon fill="#ffffff" stroke="transparent" points="253.5,-76.7 253.5,-98.7 396.5,-98.7 396.5,-76.7 253.5,-76.7"/>
<polygon fill="none" stroke="#000000" points="253.5,-76.7 253.5,-98.7 396.5,-98.7 396.5,-76.7 253.5,-76.7"/>
<text text-anchor="start" x="273.5" y="-83.8" font-family="Helvetica,sans-Serif" font-size="11.00" fill="#000000">sequence_number</text>
<polygon fill="none" stroke="#000000" points="253.5,-57.7 253.5,-76.7 396.5,-76.7 396.5,-57.7 253.5,-57.7"/>
<text text-anchor="start" x="256.5" y="-63.8" font-family="Helvetica,sans-Serif" font-size="11.00" fill="#000000">...</text>
<polygon fill="#ffffff" stroke="transparent" points="253.5,-38.7 253.5,-57.7 315.5,-57.7 315.5,-38.7 253.5,-38.7"/>
<polygon fill="none" stroke="#000000" points="253.5,-38.7 253.5,-57.7 315.5,-57.7 315.5,-38.7 253.5,-38.7"/>
<text text-anchor="start" x="256.5" y="-44.8" font-family="Helvetica,sans-Serif" font-size="11.00" fill="#000000">&lt; 1</text>
<polygon fill="#ffffff" stroke="transparent" points="315.5,-38.7 315.5,-57.7 348.5,-57.7 348.5,-38.7 315.5,-38.7"/>
<polygon fill="none" stroke="#000000" points="315.5,-38.7 315.5,-57.7 348.5,-57.7 348.5,-38.7 315.5,-38.7"/>
<text text-anchor="start" x="339.3862" y="-44.8" font-family="Helvetica,sans-Serif" font-size="11.00" fill="#000000"> &#160;</text>
<polygon fill="#ffffff" stroke="transparent" points="348.5,-38.7 348.5,-57.7 396.5,-57.7 396.5,-38.7 348.5,-38.7"/>
<polygon fill="none" stroke="#000000" points="348.5,-38.7 348.5,-57.7 396.5,-57.7 396.5,-38.7 348.5,-38.7"/>
<text text-anchor="start" x="371.7904" y="-44.8" font-family="Helvetica,sans-Serif" font-size="11.00" fill="#000000">17 &gt;</text>
</a>
</g>
</g>
<!-- reference_data_domain -->
<g id="node2" class="node">
<title>reference_data_domain</title>
<g id="a_node2"><a xlink:href="../../tables/reference_data_domain.html" xlink:title="reference_data_domain" target="_top">
<polygon fill="#ffffff" stroke="transparent" points="8,-144.2 8,-205.2 204,-205.2 204,-144.2 8,-144.2"/>
<polygon fill="#f5f5f5" stroke="transparent" points="8,-181.7 8,-204.7 204,-204.7 204,-181.7 8,-181.7"/>
<polygon fill="none" stroke="#000000" points="8,-181.7 8,-204.7 204,-204.7 204,-181.7 8,-181.7"/>
<text text-anchor="start" x="13" y="-190.3" font-family="Helvetica,sans-Serif" font-weight="bold" font-size="11.00" fill="#000000">reference_data_domain</text>
<text text-anchor="start" x="169.5219" y="-189.8" font-family="Helvetica,sans-Serif" font-size="11.00" fill="#000000">[table]</text>
<polygon fill="none" stroke="#000000" points="8,-162.7 8,-181.7 204,-181.7 204,-162.7 8,-162.7"/>
<text text-anchor="start" x="11" y="-168.8" font-family="Helvetica,sans-Serif" font-size="11.00" fill="#000000">...</text>
<polygon fill="#ffffff" stroke="transparent" points="8,-143.7 8,-162.7 95,-162.7 95,-143.7 8,-143.7"/>
<polygon fill="none" stroke="#000000" points="8,-143.7 8,-162.7 95,-162.7 95,-143.7 8,-143.7"/>
<text text-anchor="start" x="11" y="-149.8" font-family="Helvetica,sans-Serif" font-size="11.00" fill="#000000"> &#160;</text>
<polygon fill="#ffffff" stroke="transparent" points="95,-143.7 95,-162.7 145,-162.7 145,-143.7 95,-143.7"/>
<polygon fill="none" stroke="#000000" points="95,-143.7 95,-162.7 145,-162.7 145,-143.7 95,-143.7"/>
<text text-anchor="start" x="135.8862" y="-149.8" font-family="Helvetica,sans-Serif" font-size="11.00" fill="#000000"> &#160;</text>
<polygon fill="#ffffff" stroke="transparent" points="145,-143.7 145,-162.7 204,-162.7 204,-143.7 145,-143.7"/>
<polygon fill="none" stroke="#000000" points="145,-143.7 145,-162.7 204,-162.7 204,-143.7 145,-143.7"/>
<text text-anchor="start" x="185.4053" y="-149.8" font-family="Helvetica,sans-Serif" font-size="11.00" fill="#000000">2 &gt;</text>
</a>
</g>
</g>
<!-- reference_data&#45;&gt;reference_data_domain -->
<g id="edge1" class="edge">
<title>reference_data:w&#45;&gt;reference_data_domain:e</title>
<path fill="none" stroke="#000000" d="M239.6565,-136.2885C226.6245,-146.7952 226.3187,-171.7 204,-171.7"/>
<polygon fill="#000000" stroke="#000000" points="245.9063,-134.217 254.6327,-135.1172 249.7031,-132.9585 253.5,-131.7 253.5,-131.7 253.5,-131.7 249.7031,-132.9585 252.3673,-128.2828 245.9063,-134.217 245.9063,-134.217"/>
<ellipse fill="none" stroke="#000000" cx="242.8688" cy="-135.2238" rx="3.2" ry="3.2"/>
</g>
<!-- reference_data_domain_link -->
<g id="node3" class="node">
<title>reference_data_domain_link</title>
<g id="a_node3"><a xlink:href="../../tables/reference_data_domain_link.html" xlink:title="reference_data_domain_link" target="_top">
<polygon fill="#ffffff" stroke="transparent" points="465.5,-402.2 465.5,-463.2 692.5,-463.2 692.5,-402.2 465.5,-402.2"/>
<polygon fill="#f5f5f5" stroke="transparent" points="466,-439.7 466,-462.7 693,-462.7 693,-439.7 466,-439.7"/>
<polygon fill="none" stroke="#000000" points="466,-439.7 466,-462.7 693,-462.7 693,-439.7 466,-439.7"/>
<text text-anchor="start" x="471" y="-448.3" font-family="Helvetica,sans-Serif" font-weight="bold" font-size="11.00" fill="#000000">reference_data_domain_link</text>
<text text-anchor="start" x="658.5219" y="-447.8" font-family="Helvetica,sans-Serif" font-size="11.00" fill="#000000">[table]</text>
<polygon fill="none" stroke="#000000" points="466,-420.7 466,-439.7 693,-439.7 693,-420.7 466,-420.7"/>
<text text-anchor="start" x="469" y="-426.8" font-family="Helvetica,sans-Serif" font-size="11.00" fill="#000000">...</text>
<polygon fill="#ffffff" stroke="transparent" points="466,-401.7 466,-420.7 578,-420.7 578,-401.7 466,-401.7"/>
<polygon fill="none" stroke="#000000" points="466,-401.7 466,-420.7 578,-420.7 578,-401.7 466,-401.7"/>
<text text-anchor="start" x="469" y="-407.8" font-family="Helvetica,sans-Serif" font-size="11.00" fill="#000000">&lt; 2</text>
<polygon fill="#ffffff" stroke="transparent" points="578,-401.7 578,-420.7 635,-420.7 635,-401.7 578,-401.7"/>
<polygon fill="none" stroke="#000000" points="578,-401.7 578,-420.7 635,-420.7 635,-401.7 578,-401.7"/>
<text text-anchor="start" x="625.8862" y="-407.8" font-family="Helvetica,sans-Serif" font-size="11.00" fill="#000000"> &#160;</text>
<polygon fill="#ffffff" stroke="transparent" points="635,-401.7 635,-420.7 693,-420.7 693,-401.7 635,-401.7"/>
<polygon fill="none" stroke="#000000" points="635,-401.7 635,-420.7 693,-420.7 693,-401.7 635,-401.7"/>
<text text-anchor="start" x="683.8862" y="-407.8" font-family="Helvetica,sans-Serif" font-size="11.00" fill="#000000"> &#160;</text>
</a>
</g>
</g>
<!-- reference_data_domain_link&#45;&gt;reference_data -->
<g id="edge3" class="edge">
<title>reference_data_domain_link:w&#45;&gt;reference_data:e</title>
<path fill="none" stroke="#000000" d="M455.5112,-427.555C444.6672,-422.1375 443.7516,-407.2252 437,-391.7 415.6045,-342.5017 450.1492,-153.7 396.5,-153.7"/>
<polygon fill="#000000" stroke="#000000" points="466.0177,-425.6208 464.4148,-433.4586 462.8472,-433.138 464.4501,-425.3002 466.0177,-425.6208"/>
<polyline fill="none" stroke="#000000" points="466,-429.7 462.0811,-428.8986 "/>
<ellipse fill="none" stroke="#000000" cx="458.946" cy="-428.2574" rx="3.2" ry="3.2"/>
</g>
<!-- reference_data_domain_link&#45;&gt;reference_data_domain -->
<g id="edge2" class="edge">
<title>reference_data_domain_link:w&#45;&gt;reference_data_domain:e</title>
<path fill="none" stroke="#000000" d="M452.5545,-424.3113C395.1866,-387.2616 241.3452,-171.7 204,-171.7"/>
<polygon fill="#000000" stroke="#000000" points="458.5742,-426.7238 464.6607,-433.0416 462.2871,-428.2119 466,-429.7 466,-429.7 466,-429.7 462.2871,-428.2119 467.3393,-426.3584 458.5742,-426.7238 458.5742,-426.7238"/>
<ellipse fill="none" stroke="#000000" cx="455.6039" cy="-425.5334" rx="3.2" ry="3.2"/>
</g>
<!-- reference_data_link -->
<g id="node4" class="node">
<title>reference_data_link</title>
<g id="a_node4"><a xlink:href="../../tables/reference_data_link.html" xlink:title="reference_data_link" target="_top">
<polygon fill="#ffffff" stroke="transparent" points="467,-246.7 467,-380.7 691,-380.7 691,-246.7 467,-246.7"/>
<polygon fill="#f5f5f5" stroke="transparent" points="469,-355.7 469,-378.7 689,-378.7 689,-355.7 469,-355.7"/>
<polygon fill="none" stroke="#000000" points="469,-355.7 469,-378.7 689,-378.7 689,-355.7 469,-355.7"/>
<text text-anchor="start" x="474" y="-364.3" font-family="Helvetica,sans-Serif" font-weight="bold" font-size="11.00" fill="#000000">reference_data_link</text>
<text text-anchor="start" x="654.0437" y="-363.8" font-family="Helvetica,sans-Serif" font-size="11.00" fill="#000000">[table]</text>
<polygon fill="none" stroke="#000000" points="469,-333.7 469,-355.7 624,-355.7 624,-333.7 469,-333.7"/>
<image xlink:href="../../images/primaryKeys.png" width="11px" height="12px" preserveAspectRatio="xMinYMin meet" x="474" y="-350.7"/>
<text text-anchor="start" x="489" y="-340.8" font-family="Helvetica,sans-Serif" font-size="11.00" fill="#000000">id</text>
<polygon fill="none" stroke="#000000" points="624,-333.7 624,-355.7 689,-355.7 689,-333.7 624,-333.7"/>
<text text-anchor="start" x="626.8561" y="-341.4" font-family="Helvetica,sans-Serif" font-size="11.00" fill="#000000">bigserial[19]</text>
<polygon fill="#ffffff" stroke="transparent" points="469,-311.7 469,-333.7 624,-333.7 624,-311.7 469,-311.7"/>
<polygon fill="none" stroke="#000000" points="469,-311.7 469,-333.7 624,-333.7 624,-311.7 469,-311.7"/>
<image xlink:href="../../images/foreignKeys.png" width="11px" height="12px" preserveAspectRatio="xMinYMin meet" x="474" y="-328.7"/>
<text text-anchor="start" x="489" y="-318.8" font-family="Helvetica,sans-Serif" font-size="11.00" fill="#000000">reference_data_id_1</text>
<polygon fill="none" stroke="#000000" points="624,-311.7 624,-333.7 689,-333.7 689,-311.7 624,-311.7"/>
<text text-anchor="start" x="627" y="-319.4" font-family="Helvetica,sans-Serif" font-size="11.00" fill="#000000">int8[19]</text>
<polygon fill="none" stroke="#000000" points="469,-289.7 469,-311.7 624,-311.7 624,-289.7 469,-289.7"/>
<image xlink:href="../../images/foreignKeys.png" width="11px" height="12px" preserveAspectRatio="xMinYMin meet" x="474" y="-306.7"/>
<text text-anchor="start" x="489" y="-296.8" font-family="Helvetica,sans-Serif" font-size="11.00" fill="#000000">reference_data_id_2</text>
<polygon fill="none" stroke="#000000" points="624,-289.7 624,-311.7 689,-311.7 689,-289.7 624,-289.7"/>
<text text-anchor="start" x="627" y="-297.4" font-family="Helvetica,sans-Serif" font-size="11.00" fill="#000000">int8[19]</text>
<polygon fill="#ffffff" stroke="transparent" points="469,-267.7 469,-289.7 624,-289.7 624,-267.7 469,-267.7"/>
<polygon fill="none" stroke="#000000" points="469,-267.7 469,-289.7 624,-289.7 624,-267.7 469,-267.7"/>
<text text-anchor="start" x="489" y="-274.8" font-family="Helvetica,sans-Serif" font-size="11.00" fill="#000000">sequence_number</text>
<polygon fill="none" stroke="#000000" points="624,-267.7 624,-289.7 689,-289.7 689,-267.7 624,-267.7"/>
<text text-anchor="start" x="627" y="-275.4" font-family="Helvetica,sans-Serif" font-size="11.00" fill="#000000">int4[10]</text>
<polygon fill="#ffffff" stroke="transparent" points="469,-248.7 469,-267.7 551,-267.7 551,-248.7 469,-248.7"/>
<polygon fill="none" stroke="#000000" points="469,-248.7 469,-267.7 551,-267.7 551,-248.7 469,-248.7"/>
<text text-anchor="start" x="472" y="-254.8" font-family="Helvetica,sans-Serif" font-size="11.00" fill="#000000">&lt; 2</text>
<polygon fill="#ffffff" stroke="transparent" points="551,-248.7 551,-267.7 624,-267.7 624,-248.7 551,-248.7"/>
<polygon fill="none" stroke="#000000" points="551,-248.7 551,-267.7 624,-267.7 624,-248.7 551,-248.7"/>
<text text-anchor="start" x="614.8862" y="-254.8" font-family="Helvetica,sans-Serif" font-size="11.00" fill="#000000"> &#160;</text>
<polygon fill="#ffffff" stroke="transparent" points="624,-248.7 624,-267.7 689,-267.7 689,-248.7 624,-248.7"/>
<polygon fill="none" stroke="#000000" points="624,-248.7 624,-267.7 689,-267.7 689,-248.7 624,-248.7"/>
<text text-anchor="start" x="670.4053" y="-254.8" font-family="Helvetica,sans-Serif" font-size="11.00" fill="#000000">0 &gt;</text>
<polygon fill="none" stroke="#000000" stroke-width="2" points="468,-247.7 468,-379.7 690,-379.7 690,-247.7 468,-247.7"/>
</a>
</g>
</g>
<!-- reference_data_link&#45;&gt;reference_data -->
<g id="edge4" class="edge">
<title>reference_data_link:w&#45;&gt;reference_data:e</title>
<path fill="none" stroke="#000000" d="M454.5494,-320.4388C398.8982,-300.3843 472.6439,-153.7 396.5,-153.7"/>
<polygon fill="#000000" stroke="#000000" points="461.0962,-321.4632 468.4434,-326.2567 465.0481,-322.0816 469,-322.7 469,-322.7 469,-322.7 465.0481,-322.0816 469.5566,-319.1433 461.0962,-321.4632 461.0962,-321.4632"/>
<ellipse fill="none" stroke="#000000" cx="457.9347" cy="-320.9684" rx="3.2" ry="3.2"/>
</g>
<!-- reference_data_link&#45;&gt;reference_data -->
<g id="edge5" class="edge">
<title>reference_data_link:w&#45;&gt;reference_data:e</title>
<path fill="none" stroke="#000000" d="M454.7663,-298.2712C406.4561,-279.1584 463.7983,-153.7 396.5,-153.7"/>
<polygon fill="#000000" stroke="#000000" points="461.114,-299.3543 468.3944,-304.2487 465.057,-300.0272 469,-300.7 469,-300.7 469,-300.7 465.057,-300.0272 469.6056,-297.1513 461.114,-299.3543 461.114,-299.3543"/>
<ellipse fill="none" stroke="#000000" cx="457.9596" cy="-298.816" rx="3.2" ry="3.2"/>
</g>
<!-- temporary_absence_authorisation -->
<g id="node5" class="node">
<title>temporary_absence_authorisation</title>
<g id="a_node5"><a xlink:href="../../tables/temporary_absence_authorisation.html" xlink:title="temporary_absence_authorisation" target="_top">
<polygon fill="#ffffff" stroke="transparent" points="445,-38.2 445,-99.2 713,-99.2 713,-38.2 445,-38.2"/>
<polygon fill="#f5f5f5" stroke="transparent" points="445,-75.7 445,-98.7 713,-98.7 713,-75.7 445,-75.7"/>
<polygon fill="none" stroke="#000000" points="445,-75.7 445,-98.7 713,-98.7 713,-75.7 445,-75.7"/>
<text text-anchor="start" x="450" y="-84.3" font-family="Helvetica,sans-Serif" font-weight="bold" font-size="11.00" fill="#000000">temporary_absence_authorisation</text>
<text text-anchor="start" x="678.5219" y="-83.8" font-family="Helvetica,sans-Serif" font-size="11.00" fill="#000000">[table]</text>
<polygon fill="none" stroke="#000000" points="445,-56.7 445,-75.7 713,-75.7 713,-56.7 445,-56.7"/>
<text text-anchor="start" x="448" y="-62.8" font-family="Helvetica,sans-Serif" font-size="11.00" fill="#000000">...</text>
<polygon fill="#ffffff" stroke="transparent" points="445,-37.7 445,-56.7 573,-56.7 573,-37.7 445,-37.7"/>
<polygon fill="none" stroke="#000000" points="445,-37.7 445,-56.7 573,-56.7 573,-37.7 445,-37.7"/>
<text text-anchor="start" x="448" y="-43.8" font-family="Helvetica,sans-Serif" font-size="11.00" fill="#000000">&lt; 6</text>
<polygon fill="#ffffff" stroke="transparent" points="573,-37.7 573,-56.7 638,-56.7 638,-37.7 573,-37.7"/>
<polygon fill="none" stroke="#000000" points="573,-37.7 573,-56.7 638,-56.7 638,-37.7 573,-37.7"/>
<text text-anchor="start" x="628.8862" y="-43.8" font-family="Helvetica,sans-Serif" font-size="11.00" fill="#000000"> &#160;</text>
<polygon fill="#ffffff" stroke="transparent" points="638,-37.7 638,-56.7 713,-56.7 713,-37.7 638,-37.7"/>
<polygon fill="none" stroke="#000000" points="638,-37.7 638,-56.7 713,-56.7 713,-37.7 638,-37.7"/>
<text text-anchor="start" x="694.4053" y="-43.8" font-family="Helvetica,sans-Serif" font-size="11.00" fill="#000000">1 &gt;</text>
</a>
</g>
</g>
<!-- temporary_absence_authorisation&#45;&gt;reference_data -->
<g id="edge6" class="edge">
<title>temporary_absence_authorisation:w&#45;&gt;reference_data:e</title>
<path fill="none" stroke="#000000" d="M431.926,-58.9812C409.2106,-54.825 435.5756,-125.7 396.5,-153.7"/>
<polygon fill="#000000" stroke="#000000" points="437.8846,-62.0433 443.3545,-68.9019 441.4423,-63.8717 445,-65.7 445,-65.7 445,-65.7 441.4423,-63.8717 446.6455,-62.4981 437.8846,-62.0433 437.8846,-62.0433"/>
<ellipse fill="none" stroke="#000000" cx="435.0384" cy="-60.5807" rx="3.2" ry="3.2"/>
</g>
<!-- temporary_absence_authorisation&#45;&gt;reference_data -->
<g id="edge7" class="edge">
<title>temporary_absence_authorisation:w&#45;&gt;reference_data:e</title>
<path fill="none" stroke="#000000" d="M430.7554,-63.5428C410.1313,-70.0855 434.8778,-137.3719 396.5,-153.7"/>
<polygon fill="#000000" stroke="#000000" points="437.0902,-64.5021 444.4609,-69.2594 441.0451,-65.1011 445,-65.7 445,-65.7 445,-65.7 441.0451,-65.1011 445.5391,-62.1406 437.0902,-64.5021 437.0902,-64.5021"/>
<ellipse fill="none" stroke="#000000" cx="433.9263" cy="-64.023" rx="3.2" ry="3.2"/>
</g>
<!-- temporary_absence_authorisation&#45;&gt;reference_data -->
<g id="edge8" class="edge">
<title>temporary_absence_authorisation:w&#45;&gt;reference_data:e</title>
<path fill="none" stroke="#000000" d="M430.7554,-68.256C410.1313,-82.8284 434.8778,-148.5438 396.5,-153.7"/>
<polygon fill="#000000" stroke="#000000" points="437.1258,-67.113 445.6358,-69.2434 441.0629,-66.4065 445,-65.7 445,-65.7 445,-65.7 441.0629,-66.4065 444.3642,-62.1566 437.1258,-67.113 437.1258,-67.113"/>
<ellipse fill="none" stroke="#000000" cx="433.9761" cy="-67.6781" rx="3.2" ry="3.2"/>
</g>
<!-- temporary_absence_authorisation&#45;&gt;reference_data -->
<g id="edge9" class="edge">
<title>temporary_absence_authorisation:w&#45;&gt;reference_data:e</title>
<path fill="none" stroke="#000000" d="M431.926,-71.7781C409.2106,-93.2156 435.5756,-159.825 396.5,-153.7"/>
<polygon fill="#000000" stroke="#000000" points="437.7456,-69.0726 446.5177,-68.9645 441.3728,-67.3863 445,-65.7 445,-65.7 445,-65.7 441.3728,-67.3863 443.4823,-62.4355 437.7456,-69.0726 437.7456,-69.0726"/>
<ellipse fill="none" stroke="#000000" cx="434.8439" cy="-70.4216" rx="3.2" ry="3.2"/>
</g>
<!-- temporary_absence_authorisation&#45;&gt;reference_data -->
<g id="edge10" class="edge">
<title>temporary_absence_authorisation:w&#45;&gt;reference_data:e</title>
<path fill="none" stroke="#000000" d="M433.1905,-74.4726C408.2481,-103.658 436.2734,-171.5125 396.5,-153.7"/>
<polygon fill="#000000" stroke="#000000" points="438.578,-70.4706 447.1468,-68.5899 441.789,-68.0853 445,-65.7 445,-65.7 445,-65.7 441.789,-68.0853 442.8532,-62.8101 438.578,-70.4706 438.578,-70.4706"/>
<ellipse fill="none" stroke="#000000" cx="436.0092" cy="-72.3788" rx="3.2" ry="3.2"/>
</g>
<!-- temporary_absence_authorisation&#45;&gt;reference_data -->
<g id="edge11" class="edge">
<title>temporary_absence_authorisation:w&#45;&gt;reference_data:e</title>
<path fill="none" stroke="#000000" d="M434.5528,-76.2864C407.2439,-114.1365 436.9712,-183.6063 396.5,-153.7"/>
<polygon fill="#000000" stroke="#000000" points="439.3807,-71.3942 447.5624,-68.2287 442.1904,-68.5471 445,-65.7 445,-65.7 445,-65.7 442.1904,-68.5471 442.4376,-63.1713 439.3807,-71.3942 439.3807,-71.3942"/>
<ellipse fill="none" stroke="#000000" cx="437.133" cy="-73.6719" rx="3.2" ry="3.2"/>
</g>
<!-- temporary_absence_movement -->
<g id="node6" class="node">
<title>temporary_absence_movement</title>
<g id="a_node6"><a xlink:href="../../tables/temporary_absence_movement.html" xlink:title="temporary_absence_movement" target="_top">
<polygon fill="#ffffff" stroke="transparent" points="1063,-189.2 1063,-250.2 1312,-250.2 1312,-189.2 1063,-189.2"/>
<polygon fill="#f5f5f5" stroke="transparent" points="1063.5,-226.7 1063.5,-249.7 1312.5,-249.7 1312.5,-226.7 1063.5,-226.7"/>
<polygon fill="none" stroke="#000000" points="1063.5,-226.7 1063.5,-249.7 1312.5,-249.7 1312.5,-226.7 1063.5,-226.7"/>
<text text-anchor="start" x="1068.5" y="-235.3" font-family="Helvetica,sans-Serif" font-weight="bold" font-size="11.00" fill="#000000">temporary_absence_movement</text>
<text text-anchor="start" x="1278.0219" y="-234.8" font-family="Helvetica,sans-Serif" font-size="11.00" fill="#000000">[table]</text>
<polygon fill="none" stroke="#000000" points="1063.5,-207.7 1063.5,-226.7 1312.5,-226.7 1312.5,-207.7 1063.5,-207.7"/>
<text text-anchor="start" x="1066.5" y="-213.8" font-family="Helvetica,sans-Serif" font-size="11.00" fill="#000000">...</text>
<polygon fill="#ffffff" stroke="transparent" points="1063.5,-188.7 1063.5,-207.7 1186.5,-207.7 1186.5,-188.7 1063.5,-188.7"/>
<polygon fill="none" stroke="#000000" points="1063.5,-188.7 1063.5,-207.7 1186.5,-207.7 1186.5,-188.7 1063.5,-188.7"/>
<text text-anchor="start" x="1066.5" y="-194.8" font-family="Helvetica,sans-Serif" font-size="11.00" fill="#000000">&lt; 3</text>
<polygon fill="#ffffff" stroke="transparent" points="1186.5,-188.7 1186.5,-207.7 1249.5,-207.7 1249.5,-188.7 1186.5,-188.7"/>
<polygon fill="none" stroke="#000000" points="1186.5,-188.7 1186.5,-207.7 1249.5,-207.7 1249.5,-188.7 1186.5,-188.7"/>
<text text-anchor="start" x="1240.3862" y="-194.8" font-family="Helvetica,sans-Serif" font-size="11.00" fill="#000000"> &#160;</text>
<polygon fill="#ffffff" stroke="transparent" points="1249.5,-188.7 1249.5,-207.7 1312.5,-207.7 1312.5,-188.7 1249.5,-188.7"/>
<polygon fill="none" stroke="#000000" points="1249.5,-188.7 1249.5,-207.7 1312.5,-207.7 1312.5,-188.7 1249.5,-188.7"/>
<text text-anchor="start" x="1303.3862" y="-194.8" font-family="Helvetica,sans-Serif" font-size="11.00" fill="#000000"> &#160;</text>
</a>
</g>
</g>
<!-- temporary_absence_movement&#45;&gt;reference_data -->
<g id="edge12" class="edge">
<title>temporary_absence_movement:w&#45;&gt;reference_data:e</title>
<path fill="none" stroke="#000000" d="M1048.9118,-216.8023C900.5793,-218.7464 560.6375,-247.1344 437,-193.7 413.7769,-183.6633 421.7992,-153.7 396.5,-153.7"/>
<polygon fill="#000000" stroke="#000000" points="1055.5002,-216.7562 1063.5253,-220.2999 1059.5001,-216.7281 1063.5,-216.7 1063.5,-216.7 1063.5,-216.7 1059.5001,-216.7281 1063.4747,-213.1001 1055.5002,-216.7562 1055.5002,-216.7562"/>
<ellipse fill="none" stroke="#000000" cx="1052.3003" cy="-216.7786" rx="3.2" ry="3.2"/>
</g>
<!-- temporary_absence_movement&#45;&gt;reference_data -->
<g id="edge13" class="edge">
<title>temporary_absence_movement:w&#45;&gt;reference_data:e</title>
<path fill="none" stroke="#000000" d="M1048.9126,-216.78C900.628,-218.2956 561.8698,-240.2791 437,-189.7 414.6784,-180.6585 420.5832,-153.7 396.5,-153.7"/>
<polygon fill="#000000" stroke="#000000" points="1055.5001,-216.7439 1063.5198,-220.2999 1059.5001,-216.722 1063.5,-216.7 1063.5,-216.7 1063.5,-216.7 1059.5001,-216.722 1063.4802,-213.1001 1055.5001,-216.7439 1055.5001,-216.7439"/>
<ellipse fill="none" stroke="#000000" cx="1052.3002" cy="-216.7615" rx="3.2" ry="3.2"/>
</g>
<!-- temporary_absence_occurrence -->
<g id="node7" class="node">
<title>temporary_absence_occurrence</title>
<g id="a_node7"><a xlink:href="../../tables/temporary_absence_occurrence.html" xlink:title="temporary_absence_occurrence" target="_top">
<polygon fill="#ffffff" stroke="transparent" points="762,-125.2 762,-186.2 1014,-186.2 1014,-125.2 762,-125.2"/>
<polygon fill="#f5f5f5" stroke="transparent" points="762,-162.7 762,-185.7 1014,-185.7 1014,-162.7 762,-162.7"/>
<polygon fill="none" stroke="#000000" points="762,-162.7 762,-185.7 1014,-185.7 1014,-162.7 762,-162.7"/>
<text text-anchor="start" x="767" y="-171.3" font-family="Helvetica,sans-Serif" font-weight="bold" font-size="11.00" fill="#000000">temporary_absence_occurrence</text>
<text text-anchor="start" x="979.5219" y="-170.8" font-family="Helvetica,sans-Serif" font-size="11.00" fill="#000000">[table]</text>
<polygon fill="none" stroke="#000000" points="762,-143.7 762,-162.7 1014,-162.7 1014,-143.7 762,-143.7"/>
<text text-anchor="start" x="765" y="-149.8" font-family="Helvetica,sans-Serif" font-size="11.00" fill="#000000">...</text>
<polygon fill="#ffffff" stroke="transparent" points="762,-124.7 762,-143.7 882,-143.7 882,-124.7 762,-124.7"/>
<polygon fill="none" stroke="#000000" points="762,-124.7 762,-143.7 882,-143.7 882,-124.7 762,-124.7"/>
<text text-anchor="start" x="765" y="-130.8" font-family="Helvetica,sans-Serif" font-size="11.00" fill="#000000">&lt; 7</text>
<polygon fill="#ffffff" stroke="transparent" points="882,-124.7 882,-143.7 943,-143.7 943,-124.7 882,-124.7"/>
<polygon fill="none" stroke="#000000" points="882,-124.7 882,-143.7 943,-143.7 943,-124.7 882,-124.7"/>
<text text-anchor="start" x="933.8862" y="-130.8" font-family="Helvetica,sans-Serif" font-size="11.00" fill="#000000"> &#160;</text>
<polygon fill="#ffffff" stroke="transparent" points="943,-124.7 943,-143.7 1014,-143.7 1014,-124.7 943,-124.7"/>
<polygon fill="none" stroke="#000000" points="943,-124.7 943,-143.7 1014,-143.7 1014,-124.7 943,-124.7"/>
<text text-anchor="start" x="995.4053" y="-130.8" font-family="Helvetica,sans-Serif" font-size="11.00" fill="#000000">1 &gt;</text>
</a>
</g>
</g>
<!-- temporary_absence_movement&#45;&gt;temporary_absence_occurrence -->
<g id="edge14" class="edge">
<title>temporary_absence_movement:w&#45;&gt;temporary_absence_occurrence:e</title>
<path fill="none" stroke="#000000" d="M1049.5392,-211.678C1033.5225,-196.5906 1043.779,-152.7 1014,-152.7"/>
<polygon fill="#000000" stroke="#000000" points="1055.9722,-213.9921 1062.2814,-220.0875 1059.7361,-215.346 1063.5,-216.7 1063.5,-216.7 1063.5,-216.7 1059.7361,-215.346 1064.7186,-213.3125 1055.9722,-213.9921 1055.9722,-213.9921"/>
<ellipse fill="none" stroke="#000000" cx="1052.9611" cy="-212.9089" rx="3.2" ry="3.2"/>
</g>
<!-- temporary_absence_occurrence&#45;&gt;reference_data -->
<g id="edge15" class="edge">
<title>temporary_absence_occurrence:w&#45;&gt;reference_data:e</title>
<path fill="none" stroke="#000000" d="M747.5749,-152.7027C596.9845,-152.7596 554.0273,-153.7 396.5,-153.7"/>
<polygon fill="#000000" stroke="#000000" points="754,-152.7015 762.0007,-156.3 758,-152.7008 762,-152.7 762,-152.7 762,-152.7 758,-152.7008 761.9993,-149.1 754,-152.7015 754,-152.7015"/>
<ellipse fill="none" stroke="#000000" cx="750.8" cy="-152.7022" rx="3.2" ry="3.2"/>
</g>
<!-- temporary_absence_occurrence&#45;&gt;reference_data -->
<g id="edge16" class="edge">
<title>temporary_absence_occurrence:w&#45;&gt;reference_data:e</title>
<path fill="none" stroke="#000000" d="M747.5749,-150.4129C596.9845,-126.7835 554.0273,-128.4871 396.5,-153.7"/>
<polygon fill="#000000" stroke="#000000" points="754.0987,-151.4472 761.4362,-156.2556 758.0493,-152.0736 762,-152.7 762,-152.7 762,-152.7 758.0493,-152.0736 762.5638,-149.1444 754.0987,-151.4472 754.0987,-151.4472"/>
<ellipse fill="none" stroke="#000000" cx="750.9382" cy="-150.946" rx="3.2" ry="3.2"/>
</g>
<!-- temporary_absence_occurrence&#45;&gt;reference_data -->
<g id="edge17" class="edge">
<title>temporary_absence_occurrence:w&#45;&gt;reference_data:e</title>
<path fill="none" stroke="#000000" d="M747.5749,-151.5578C596.9845,-139.7715 554.0273,-141.0936 396.5,-153.7"/>
<polygon fill="#000000" stroke="#000000" points="754.025,-152.0685 761.7158,-156.2888 758.0125,-152.3842 762,-152.7 762,-152.7 762,-152.7 758.0125,-152.3842 762.2842,-149.1112 754.025,-152.0685 754.025,-152.0685"/>
<ellipse fill="none" stroke="#000000" cx="750.8349" cy="-151.8158" rx="3.2" ry="3.2"/>
</g>
<!-- temporary_absence_occurrence&#45;&gt;reference_data -->
<g id="edge18" class="edge">
<title>temporary_absence_occurrence:w&#45;&gt;reference_data:e</title>
<path fill="none" stroke="#000000" d="M747.5749,-152.7027C596.9845,-152.7596 554.0273,-153.7 396.5,-153.7"/>
<polygon fill="#000000" stroke="#000000" points="754,-152.7015 762.0007,-156.3 758,-152.7008 762,-152.7 762,-152.7 762,-152.7 758,-152.7008 761.9993,-149.1 754,-152.7015 754,-152.7015"/>
<ellipse fill="none" stroke="#000000" cx="750.8" cy="-152.7022" rx="3.2" ry="3.2"/>
</g>
<!-- temporary_absence_occurrence&#45;&gt;reference_data -->
<g id="edge19" class="edge">
<title>temporary_absence_occurrence:w&#45;&gt;reference_data:e</title>
<path fill="none" stroke="#000000" d="M747.5749,-153.8476C596.9845,-165.7477 554.0273,-166.3064 396.5,-153.7"/>
<polygon fill="#000000" stroke="#000000" points="754.0252,-153.3345 762.2855,-156.2887 758.0126,-153.0173 762,-152.7 762,-152.7 762,-152.7 758.0126,-153.0173 761.7145,-149.1113 754.0252,-153.3345 754.0252,-153.3345"/>
<ellipse fill="none" stroke="#000000" cx="750.8353" cy="-153.5883" rx="3.2" ry="3.2"/>
</g>
<!-- temporary_absence_occurrence&#45;&gt;reference_data -->
<g id="edge21" class="edge">
<title>temporary_absence_occurrence:w&#45;&gt;reference_data:e</title>
<path fill="none" stroke="#000000" d="M747.5749,-154.9925C596.9845,-178.7358 554.0273,-178.9129 396.5,-153.7"/>
<polygon fill="#000000" stroke="#000000" points="754.0992,-153.9557 762.5651,-156.2554 758.0496,-153.3279 762,-152.7 762,-152.7 762,-152.7 758.0496,-153.3279 761.4349,-149.1446 754.0992,-153.9557 754.0992,-153.9557"/>
<ellipse fill="none" stroke="#000000" cx="750.9388" cy="-154.458" rx="3.2" ry="3.2"/>
</g>
<!-- temporary_absence_occurrence&#45;&gt;temporary_absence_authorisation -->
<g id="edge20" class="edge">
<title>temporary_absence_occurrence:w&#45;&gt;temporary_absence_authorisation:e</title>
<path fill="none" stroke="#000000" d="M748.086,-148.266C726.9203,-130.5371 751.3105,-65.7 713,-65.7"/>
<polygon fill="#000000" stroke="#000000" points="754.3777,-150.271 760.9069,-156.1301 758.1888,-151.4855 762,-152.7 762,-152.7 762,-152.7 758.1888,-151.4855 763.0931,-149.2699 754.3777,-150.271 754.3777,-150.271"/>
<ellipse fill="none" stroke="#000000" cx="751.3287" cy="-149.2993" rx="3.2" ry="3.2"/>
</g>
</g>
</svg>
