<?xml version="1.0" encoding="UTF-8" standalone="no"?>
<!DOCTYPE svg PUBLIC "-//W3C//DTD SVG 1.1//EN"
 "http://www.w3.org/Graphics/SVG/1.1/DTD/svg11.dtd">
<!-- Generated by graphviz version 2.40.1 (20161225.0304)
 -->
<!-- Title: oneDegreeRelationshipsDiagram Pages: 1 -->
<svg width="1399pt" height="913pt"
 viewBox="0.00 0.00 1399.00 912.70" xmlns="http://www.w3.org/2000/svg" xmlns:xlink="http://www.w3.org/1999/xlink">
<g id="graph0" class="graph" transform="scale(1 1) rotate(0) translate(4 908.7)">
<title>oneDegreeRelationshipsDiagram</title>
<polygon fill="#ffffff" stroke="transparent" points="-4,4 -4,-908.7 1395,-908.7 1395,4 -4,4"/>
<text text-anchor="middle" x="72.4936" y="-7.3" font-family="Helvetica,sans-Serif" font-size="11.00" fill="#000000">Generated by SchemaSpy</text>
<!-- reference_data -->
<g id="node1" class="node">
<title>reference_data</title>
<g id="a_node1"><a xlink:href="../../tables/reference_data.html" xlink:title="reference_data" target="_top">
<polygon fill="#ffffff" stroke="transparent" points="253,-265.7 253,-465.7 467,-465.7 467,-265.7 253,-265.7"/>
<polygon fill="#f5f5f5" stroke="transparent" points="255,-440.7 255,-463.7 465,-463.7 465,-440.7 255,-440.7"/>
<polygon fill="none" stroke="#000000" points="255,-440.7 255,-463.7 465,-463.7 465,-440.7 255,-440.7"/>
<text text-anchor="start" x="260" y="-449.3" font-family="Helvetica,sans-Serif" font-weight="bold" font-size="11.00" fill="#000000">reference_data</text>
<text text-anchor="start" x="430.0437" y="-448.8" font-family="Helvetica,sans-Serif" font-size="11.00" fill="#000000">[table]</text>
<polygon fill="none" stroke="#000000" points="255,-418.7 255,-440.7 398,-440.7 398,-418.7 255,-418.7"/>
<image xlink:href="../../images/primaryKeys.png" width="11px" height="12px" preserveAspectRatio="xMinYMin meet" x="260" y="-435.7"/>
<text text-anchor="start" x="275" y="-425.8" font-family="Helvetica,sans-Serif" font-size="11.00" fill="#000000">id</text>
<polygon fill="none" stroke="#000000" points="398,-418.7 398,-440.7 465,-440.7 465,-418.7 398,-418.7"/>
<text text-anchor="start" x="401" y="-426.4" font-family="Helvetica,sans-Serif" font-size="11.00" fill="#000000">bigserial[19]</text>
<polygon fill="#ffffff" stroke="transparent" points="255,-396.7 255,-418.7 398,-418.7 398,-396.7 255,-396.7"/>
<polygon fill="none" stroke="#000000" points="255,-396.7 255,-418.7 398,-418.7 398,-396.7 255,-396.7"/>
<image xlink:href="../../images/foreignKeys.png" width="11px" height="12px" preserveAspectRatio="xMinYMin meet" x="260" y="-413.7"/>
<text text-anchor="start" x="275" y="-403.8" font-family="Helvetica,sans-Serif" font-size="11.00" fill="#000000">domain</text>
<polygon fill="none" stroke="#000000" points="398,-396.7 398,-418.7 465,-418.7 465,-396.7 398,-396.7"/>
<text text-anchor="start" x="401" y="-404.4" font-family="Helvetica,sans-Serif" font-size="11.00" fill="#000000">varchar[32]</text>
<polygon fill="#ffffff" stroke="transparent" points="255,-374.7 255,-396.7 398,-396.7 398,-374.7 255,-374.7"/>
<polygon fill="none" stroke="#000000" points="255,-374.7 255,-396.7 398,-396.7 398,-374.7 255,-374.7"/>
<text text-anchor="start" x="275" y="-381.8" font-family="Helvetica,sans-Serif" font-size="11.00" fill="#000000">code</text>
<polygon fill="none" stroke="#000000" points="398,-374.7 398,-396.7 465,-396.7 465,-374.7 398,-374.7"/>
<text text-anchor="start" x="401" y="-382.4" font-family="Helvetica,sans-Serif" font-size="11.00" fill="#000000">varchar[16]</text>
<polygon fill="none" stroke="#000000" points="255,-352.7 255,-374.7 398,-374.7 398,-352.7 255,-352.7"/>
<text text-anchor="start" x="275" y="-359.8" font-family="Helvetica,sans-Serif" font-size="11.00" fill="#000000">description</text>
<polygon fill="none" stroke="#000000" points="398,-352.7 398,-374.7 465,-374.7 465,-352.7 398,-352.7"/>
<text text-anchor="start" x="400.9365" y="-360.4" font-family="Helvetica,sans-Serif" font-size="11.00" fill="#000000">varchar[255]</text>
<polygon fill="none" stroke="#000000" points="255,-330.7 255,-352.7 398,-352.7 398,-330.7 255,-330.7"/>
<text text-anchor="start" x="275" y="-337.8" font-family="Helvetica,sans-Serif" font-size="11.00" fill="#000000">hint_text</text>
<polygon fill="none" stroke="#000000" points="398,-330.7 398,-352.7 465,-352.7 465,-330.7 398,-330.7"/>
<text text-anchor="start" x="400.9365" y="-338.4" font-family="Helvetica,sans-Serif" font-size="11.00" fill="#000000">varchar[255]</text>
<polygon fill="#ffffff" stroke="transparent" points="255,-308.7 255,-330.7 398,-330.7 398,-308.7 255,-308.7"/>
<polygon fill="none" stroke="#000000" points="255,-308.7 255,-330.7 398,-330.7 398,-308.7 255,-308.7"/>
<text text-anchor="start" x="275" y="-315.8" font-family="Helvetica,sans-Serif" font-size="11.00" fill="#000000">sequence_number</text>
<polygon fill="none" stroke="#000000" points="398,-308.7 398,-330.7 465,-330.7 465,-308.7 398,-308.7"/>
<text text-anchor="start" x="401" y="-316.4" font-family="Helvetica,sans-Serif" font-size="11.00" fill="#000000">int4[10]</text>
<polygon fill="none" stroke="#000000" points="255,-286.7 255,-308.7 398,-308.7 398,-286.7 255,-286.7"/>
<text text-anchor="start" x="275" y="-293.8" font-family="Helvetica,sans-Serif" font-size="11.00" fill="#000000">active</text>
<polygon fill="none" stroke="#000000" points="398,-286.7 398,-308.7 465,-308.7 465,-286.7 398,-286.7"/>
<text text-anchor="start" x="401" y="-294.4" font-family="Helvetica,sans-Serif" font-size="11.00" fill="#000000">bool[1]</text>
<polygon fill="#ffffff" stroke="transparent" points="255,-267.7 255,-286.7 312,-286.7 312,-267.7 255,-267.7"/>
<polygon fill="none" stroke="#000000" points="255,-267.7 255,-286.7 312,-286.7 312,-267.7 255,-267.7"/>
<text text-anchor="start" x="258" y="-273.8" font-family="Helvetica,sans-Serif" font-size="11.00" fill="#000000">&lt; 1</text>
<polygon fill="#ffffff" stroke="transparent" points="312,-267.7 312,-286.7 398,-286.7 398,-267.7 312,-267.7"/>
<polygon fill="none" stroke="#000000" points="312,-267.7 312,-286.7 398,-286.7 398,-267.7 312,-267.7"/>
<text text-anchor="start" x="350.3807" y="-273.8" font-family="Helvetica,sans-Serif" font-size="11.00" fill="#000000">157 rows</text>
<polygon fill="#ffffff" stroke="transparent" points="398,-267.7 398,-286.7 465,-286.7 465,-267.7 398,-267.7"/>
<polygon fill="none" stroke="#000000" points="398,-267.7 398,-286.7 465,-286.7 465,-267.7 398,-267.7"/>
<text text-anchor="start" x="440.2904" y="-273.8" font-family="Helvetica,sans-Serif" font-size="11.00" fill="#000000">17 &gt;</text>
<polygon fill="none" stroke="#000000" stroke-width="2" points="254,-266.7 254,-464.7 466,-464.7 466,-266.7 254,-266.7"/>
</a>
</g>
</g>
<!-- reference_data_domain -->
<g id="node2" class="node">
<title>reference_data_domain</title>
<g id="a_node2"><a xlink:href="../../tables/reference_data_domain.html" xlink:title="reference_data_domain" target="_top">
<polygon fill="#ffffff" stroke="transparent" points="8,-400.2 8,-483.2 204,-483.2 204,-400.2 8,-400.2"/>
<polygon fill="#f5f5f5" stroke="transparent" points="8,-459.7 8,-482.7 204,-482.7 204,-459.7 8,-459.7"/>
<polygon fill="none" stroke="#000000" points="8,-459.7 8,-482.7 204,-482.7 204,-459.7 8,-459.7"/>
<text text-anchor="start" x="13" y="-468.3" font-family="Helvetica,sans-Serif" font-weight="bold" font-size="11.00" fill="#000000">reference_data_domain</text>
<text text-anchor="start" x="169.5219" y="-467.8" font-family="Helvetica,sans-Serif" font-size="11.00" fill="#000000">[table]</text>
<polygon fill="none" stroke="#000000" points="8,-437.7 8,-459.7 204,-459.7 204,-437.7 8,-437.7"/>
<image xlink:href="../../images/primaryKeys.png" width="11px" height="12px" preserveAspectRatio="xMinYMin meet" x="13" y="-454.7"/>
<text text-anchor="start" x="37" y="-444.8" font-family="Helvetica,sans-Serif" font-size="11.00" fill="#000000">code</text>
<polygon fill="none" stroke="#000000" points="8,-418.7 8,-437.7 204,-437.7 204,-418.7 8,-418.7"/>
<text text-anchor="start" x="11" y="-424.8" font-family="Helvetica,sans-Serif" font-size="11.00" fill="#000000">...</text>
<polygon fill="#ffffff" stroke="transparent" points="8,-399.7 8,-418.7 95,-418.7 95,-399.7 8,-399.7"/>
<polygon fill="none" stroke="#000000" points="8,-399.7 8,-418.7 95,-418.7 95,-399.7 8,-399.7"/>
<text text-anchor="start" x="11" y="-405.8" font-family="Helvetica,sans-Serif" font-size="11.00" fill="#000000"> &#160;</text>
<polygon fill="#ffffff" stroke="transparent" points="95,-399.7 95,-418.7 145,-418.7 145,-399.7 95,-399.7"/>
<polygon fill="none" stroke="#000000" points="95,-399.7 95,-418.7 145,-418.7 145,-399.7 95,-399.7"/>
<text text-anchor="start" x="135.8862" y="-405.8" font-family="Helvetica,sans-Serif" font-size="11.00" fill="#000000"> &#160;</text>
<polygon fill="#ffffff" stroke="transparent" points="145,-399.7 145,-418.7 204,-418.7 204,-399.7 145,-399.7"/>
<polygon fill="none" stroke="#000000" points="145,-399.7 145,-418.7 204,-418.7 204,-399.7 145,-399.7"/>
<text text-anchor="start" x="185.4053" y="-405.8" font-family="Helvetica,sans-Serif" font-size="11.00" fill="#000000">2 &gt;</text>
</a>
</g>
</g>
<!-- reference_data&#45;&gt;reference_data_domain -->
<g id="edge1" class="edge">
<title>reference_data:w&#45;&gt;reference_data_domain:e</title>
<path fill="none" stroke="#000000" d="M241.1568,-412.0877C227.3325,-422.6646 227.1756,-448.7 204,-448.7"/>
<polygon fill="#000000" stroke="#000000" points="247.3739,-410.1172 256.0877,-411.1317 251.1869,-408.9086 255,-407.7 255,-407.7 255,-407.7 251.1869,-408.9086 253.9123,-404.2683 247.3739,-410.1172 247.3739,-410.1172"/>
<ellipse fill="none" stroke="#000000" cx="244.3235" cy="-411.0841" rx="3.2" ry="3.2"/>
</g>
<!-- reference_data_domain_link -->
<g id="node3" class="node">
<title>reference_data_domain_link</title>
<g id="a_node3"><a xlink:href="../../tables/reference_data_domain_link.html" xlink:title="reference_data_domain_link" target="_top">
<polygon fill="#ffffff" stroke="transparent" points="536.5,-814.7 536.5,-900.7 763.5,-900.7 763.5,-814.7 536.5,-814.7"/>
<polygon fill="#f5f5f5" stroke="transparent" points="537,-877.7 537,-900.7 764,-900.7 764,-877.7 537,-877.7"/>
<polygon fill="none" stroke="#000000" points="537,-877.7 537,-900.7 764,-900.7 764,-877.7 537,-877.7"/>
<text text-anchor="start" x="542" y="-886.3" font-family="Helvetica,sans-Serif" font-weight="bold" font-size="11.00" fill="#000000">reference_data_domain_link</text>
<text text-anchor="start" x="729.5219" y="-885.8" font-family="Helvetica,sans-Serif" font-size="11.00" fill="#000000">[table]</text>
<polygon fill="none" stroke="#000000" points="537,-855.7 537,-877.7 764,-877.7 764,-855.7 537,-855.7"/>
<image xlink:href="../../images/primaryKeys.png" width="11px" height="12px" preserveAspectRatio="xMinYMin meet" x="542" y="-872.7"/>
<text text-anchor="start" x="566" y="-862.8" font-family="Helvetica,sans-Serif" font-size="11.00" fill="#000000">id</text>
<polygon fill="none" stroke="#000000" points="537,-833.7 537,-855.7 764,-855.7 764,-833.7 537,-833.7"/>
<image xlink:href="../../images/foreignKeys.png" width="11px" height="12px" preserveAspectRatio="xMinYMin meet" x="542" y="-850.7"/>
<text text-anchor="start" x="566" y="-840.8" font-family="Helvetica,sans-Serif" font-size="11.00" fill="#000000">domain</text>
<polygon fill="#ffffff" stroke="transparent" points="537,-814.7 537,-833.7 649,-833.7 649,-814.7 537,-814.7"/>
<polygon fill="none" stroke="#000000" points="537,-814.7 537,-833.7 649,-833.7 649,-814.7 537,-814.7"/>
<text text-anchor="start" x="540" y="-820.8" font-family="Helvetica,sans-Serif" font-size="11.00" fill="#000000">&lt; 2</text>
<polygon fill="#ffffff" stroke="transparent" points="649,-814.7 649,-833.7 706,-833.7 706,-814.7 649,-814.7"/>
<polygon fill="none" stroke="#000000" points="649,-814.7 649,-833.7 706,-833.7 706,-814.7 649,-814.7"/>
<text text-anchor="start" x="696.8862" y="-820.8" font-family="Helvetica,sans-Serif" font-size="11.00" fill="#000000"> &#160;</text>
<polygon fill="#ffffff" stroke="transparent" points="706,-814.7 706,-833.7 764,-833.7 764,-814.7 706,-814.7"/>
<polygon fill="none" stroke="#000000" points="706,-814.7 706,-833.7 764,-833.7 764,-814.7 706,-814.7"/>
<text text-anchor="start" x="754.8862" y="-820.8" font-family="Helvetica,sans-Serif" font-size="11.00" fill="#000000"> &#160;</text>
</a>
</g>
</g>
<!-- reference_data_domain_link&#45;&gt;reference_data -->
<g id="edge3" class="edge">
<title>reference_data_domain_link:w&#45;&gt;reference_data:e</title>
<path fill="none" stroke="#000000" d="M526.4618,-864.7517C447.9921,-833.2262 559.5758,-429.7 465,-429.7"/>
<polygon fill="#000000" stroke="#000000" points="536.9406,-862.6212 535.4861,-870.4879 533.9128,-870.197 535.3672,-862.3303 536.9406,-862.6212"/>
<polyline fill="none" stroke="#000000" points="537,-866.7 533.0667,-865.9728 "/>
<ellipse fill="none" stroke="#000000" cx="529.92" cy="-865.391" rx="3.2" ry="3.2"/>
</g>
<!-- reference_data_domain_link&#45;&gt;reference_data_domain -->
<g id="edge2" class="edge">
<title>reference_data_domain_link:w&#45;&gt;reference_data_domain:e</title>
<path fill="none" stroke="#000000" d="M523.0623,-839.4015C450.4534,-792.4099 257.5592,-448.7 204,-448.7"/>
<polygon fill="#000000" stroke="#000000" points="529.5221,-841.8572 535.7207,-848.065 533.2611,-843.2786 537,-844.7 537,-844.7 537,-844.7 533.2611,-843.2786 538.2793,-841.335 529.5221,-841.8572 529.5221,-841.8572"/>
<ellipse fill="none" stroke="#000000" cx="526.531" cy="-840.7201" rx="3.2" ry="3.2"/>
</g>
<!-- reference_data_link -->
<g id="node4" class="node">
<title>reference_data_link</title>
<g id="a_node4"><a xlink:href="../../tables/reference_data_link.html" xlink:title="reference_data_link" target="_top">
<polygon fill="#ffffff" stroke="transparent" points="564.5,-262.7 564.5,-392.7 735.5,-392.7 735.5,-262.7 564.5,-262.7"/>
<polygon fill="#f5f5f5" stroke="transparent" points="565,-369.7 565,-392.7 736,-392.7 736,-369.7 565,-369.7"/>
<polygon fill="none" stroke="#000000" points="565,-369.7 565,-392.7 736,-392.7 736,-369.7 565,-369.7"/>
<text text-anchor="start" x="570" y="-378.3" font-family="Helvetica,sans-Serif" font-weight="bold" font-size="11.00" fill="#000000">reference_data_link</text>
<text text-anchor="start" x="701.5219" y="-377.8" font-family="Helvetica,sans-Serif" font-size="11.00" fill="#000000">[table]</text>
<polygon fill="none" stroke="#000000" points="565,-347.7 565,-369.7 736,-369.7 736,-347.7 565,-347.7"/>
<image xlink:href="../../images/primaryKeys.png" width="11px" height="12px" preserveAspectRatio="xMinYMin meet" x="570" y="-364.7"/>
<text text-anchor="start" x="593" y="-354.8" font-family="Helvetica,sans-Serif" font-size="11.00" fill="#000000">id</text>
<polygon fill="#ffffff" stroke="transparent" points="565,-325.7 565,-347.7 736,-347.7 736,-325.7 565,-325.7"/>
<polygon fill="none" stroke="#000000" points="565,-325.7 565,-347.7 736,-347.7 736,-325.7 565,-325.7"/>
<image xlink:href="../../images/foreignKeys.png" width="11px" height="12px" preserveAspectRatio="xMinYMin meet" x="570" y="-342.7"/>
<text text-anchor="start" x="593" y="-332.8" font-family="Helvetica,sans-Serif" font-size="11.00" fill="#000000">reference_data_id_1</text>
<polygon fill="none" stroke="#000000" points="565,-303.7 565,-325.7 736,-325.7 736,-303.7 565,-303.7"/>
<image xlink:href="../../images/foreignKeys.png" width="11px" height="12px" preserveAspectRatio="xMinYMin meet" x="570" y="-320.7"/>
<text text-anchor="start" x="593" y="-310.8" font-family="Helvetica,sans-Serif" font-size="11.00" fill="#000000">reference_data_id_2</text>
<polygon fill="#ffffff" stroke="transparent" points="565,-281.7 565,-303.7 736,-303.7 736,-281.7 565,-281.7"/>
<polygon fill="none" stroke="#000000" points="565,-281.7 565,-303.7 736,-303.7 736,-281.7 565,-281.7"/>
<text text-anchor="start" x="593" y="-288.8" font-family="Helvetica,sans-Serif" font-size="11.00" fill="#000000">sequence_number</text>
<polygon fill="#ffffff" stroke="transparent" points="565,-262.7 565,-281.7 633,-281.7 633,-262.7 565,-262.7"/>
<polygon fill="none" stroke="#000000" points="565,-262.7 565,-281.7 633,-281.7 633,-262.7 565,-262.7"/>
<text text-anchor="start" x="568" y="-268.8" font-family="Helvetica,sans-Serif" font-size="11.00" fill="#000000">&lt; 2</text>
<polygon fill="#ffffff" stroke="transparent" points="633,-262.7 633,-281.7 700,-281.7 700,-262.7 633,-262.7"/>
<polygon fill="none" stroke="#000000" points="633,-262.7 633,-281.7 700,-281.7 700,-262.7 633,-262.7"/>
<text text-anchor="start" x="658.4956" y="-268.8" font-family="Helvetica,sans-Serif" font-size="11.00" fill="#000000">64 rows</text>
<polygon fill="#ffffff" stroke="transparent" points="700,-262.7 700,-281.7 736,-281.7 736,-262.7 700,-262.7"/>
<polygon fill="none" stroke="#000000" points="700,-262.7 700,-281.7 736,-281.7 736,-262.7 700,-262.7"/>
<text text-anchor="start" x="726.8862" y="-268.8" font-family="Helvetica,sans-Serif" font-size="11.00" fill="#000000"> &#160;</text>
</a>
</g>
</g>
<!-- reference_data_link&#45;&gt;reference_data -->
<g id="edge4" class="edge">
<title>reference_data_link:w&#45;&gt;reference_data:e</title>
<path fill="none" stroke="#000000" d="M550.5097,-338.8172C507.4866,-352.6603 520.241,-429.7 465,-429.7"/>
<polygon fill="#000000" stroke="#000000" points="557.084,-337.8566 565.5205,-340.2622 561.042,-337.2783 565,-336.7 565,-336.7 565,-336.7 561.042,-337.2783 564.4795,-333.1378 557.084,-337.8566 557.084,-337.8566"/>
<ellipse fill="none" stroke="#000000" cx="553.9177" cy="-338.3193" rx="3.2" ry="3.2"/>
</g>
<!-- reference_data_link&#45;&gt;reference_data -->
<g id="edge5" class="edge">
<title>reference_data_link:w&#45;&gt;reference_data:e</title>
<path fill="none" stroke="#000000" d="M550.6077,-316.7942C502.2859,-332.3805 527.3084,-429.7 465,-429.7"/>
<polygon fill="#000000" stroke="#000000" points="557.0834,-315.852 565.5184,-318.2625 561.0417,-315.276 565,-314.7 565,-314.7 565,-314.7 561.0417,-315.276 564.4816,-311.1375 557.0834,-315.852 557.0834,-315.852"/>
<ellipse fill="none" stroke="#000000" cx="553.9167" cy="-316.3128" rx="3.2" ry="3.2"/>
</g>
<!-- temporary_absence_authorisation -->
<g id="node5" class="node">
<title>temporary_absence_authorisation</title>
<g id="a_node5"><a xlink:href="../../tables/temporary_absence_authorisation.html" xlink:title="temporary_absence_authorisation" target="_top">
<polygon fill="#ffffff" stroke="transparent" points="516,-468.2 516,-793.2 784,-793.2 784,-468.2 516,-468.2"/>
<polygon fill="#f5f5f5" stroke="transparent" points="516,-769.7 516,-792.7 784,-792.7 784,-769.7 516,-769.7"/>
<polygon fill="none" stroke="#000000" points="516,-769.7 516,-792.7 784,-792.7 784,-769.7 516,-769.7"/>
<text text-anchor="start" x="521" y="-778.3" font-family="Helvetica,sans-Serif" font-weight="bold" font-size="11.00" fill="#000000">temporary_absence_authorisation</text>
<text text-anchor="start" x="749.5219" y="-777.8" font-family="Helvetica,sans-Serif" font-size="11.00" fill="#000000">[table]</text>
<polygon fill="none" stroke="#000000" points="516,-747.7 516,-769.7 784,-769.7 784,-747.7 516,-747.7"/>
<image xlink:href="../../images/primaryKeys.png" width="11px" height="12px" preserveAspectRatio="xMinYMin meet" x="521" y="-764.7"/>
<text text-anchor="start" x="545" y="-754.8" font-family="Helvetica,sans-Serif" font-size="11.00" fill="#000000">id</text>
<polygon fill="#ffffff" stroke="transparent" points="516,-725.7 516,-747.7 784,-747.7 784,-725.7 516,-725.7"/>
<polygon fill="none" stroke="#000000" points="516,-725.7 516,-747.7 784,-747.7 784,-725.7 516,-725.7"/>
<text text-anchor="start" x="545" y="-732.8" font-family="Helvetica,sans-Serif" font-size="11.00" fill="#000000">person_identifier</text>
<polygon fill="#ffffff" stroke="transparent" points="516,-703.7 516,-725.7 784,-725.7 784,-703.7 516,-703.7"/>
<polygon fill="none" stroke="#000000" points="516,-703.7 516,-725.7 784,-725.7 784,-703.7 516,-703.7"/>
<text text-anchor="start" x="545" y="-710.8" font-family="Helvetica,sans-Serif" font-size="11.00" fill="#000000">prison_code</text>
<polygon fill="none" stroke="#000000" points="516,-681.7 516,-703.7 784,-703.7 784,-681.7 516,-681.7"/>
<image xlink:href="../../images/foreignKeys.png" width="11px" height="12px" preserveAspectRatio="xMinYMin meet" x="521" y="-698.7"/>
<text text-anchor="start" x="545" y="-688.8" font-family="Helvetica,sans-Serif" font-size="11.00" fill="#000000">absence_type_id</text>
<polygon fill="none" stroke="#000000" points="516,-659.7 516,-681.7 784,-681.7 784,-659.7 516,-659.7"/>
<image xlink:href="../../images/foreignKeys.png" width="11px" height="12px" preserveAspectRatio="xMinYMin meet" x="521" y="-676.7"/>
<text text-anchor="start" x="545" y="-666.8" font-family="Helvetica,sans-Serif" font-size="11.00" fill="#000000">absence_sub_type_id</text>
<polygon fill="none" stroke="#000000" points="516,-637.7 516,-659.7 784,-659.7 784,-637.7 516,-637.7"/>
<image xlink:href="../../images/foreignKeys.png" width="11px" height="12px" preserveAspectRatio="xMinYMin meet" x="521" y="-654.7"/>
<text text-anchor="start" x="545" y="-644.8" font-family="Helvetica,sans-Serif" font-size="11.00" fill="#000000">absence_reason_id</text>
<polygon fill="none" stroke="#000000" points="516,-615.7 516,-637.7 784,-637.7 784,-615.7 516,-615.7"/>
<image xlink:href="../../images/foreignKeys.png" width="11px" height="12px" preserveAspectRatio="xMinYMin meet" x="521" y="-632.7"/>
<text text-anchor="start" x="545" y="-622.8" font-family="Helvetica,sans-Serif" font-size="11.00" fill="#000000">status_id</text>
<polygon fill="#ffffff" stroke="transparent" points="516,-593.7 516,-615.7 784,-615.7 784,-593.7 516,-593.7"/>
<polygon fill="none" stroke="#000000" points="516,-593.7 516,-615.7 784,-615.7 784,-593.7 516,-593.7"/>
<text text-anchor="start" x="545" y="-600.8" font-family="Helvetica,sans-Serif" font-size="11.00" fill="#000000">legacy_id</text>
<polygon fill="#ffffff" stroke="transparent" points="516,-571.7 516,-593.7 784,-593.7 784,-571.7 516,-571.7"/>
<polygon fill="none" stroke="#000000" points="516,-571.7 516,-593.7 784,-593.7 784,-571.7 516,-571.7"/>
<text text-anchor="start" x="545" y="-578.8" font-family="Helvetica,sans-Serif" font-size="11.00" fill="#000000">from_date</text>
<polygon fill="#ffffff" stroke="transparent" points="516,-549.7 516,-571.7 784,-571.7 784,-549.7 516,-549.7"/>
<polygon fill="none" stroke="#000000" points="516,-549.7 516,-571.7 784,-571.7 784,-549.7 516,-549.7"/>
<text text-anchor="start" x="545" y="-556.8" font-family="Helvetica,sans-Serif" font-size="11.00" fill="#000000">to_date</text>
<polygon fill="none" stroke="#000000" points="516,-527.7 516,-549.7 784,-549.7 784,-527.7 516,-527.7"/>
<image xlink:href="../../images/foreignKeys.png" width="11px" height="12px" preserveAspectRatio="xMinYMin meet" x="521" y="-544.7"/>
<text text-anchor="start" x="545" y="-534.8" font-family="Helvetica,sans-Serif" font-size="11.00" fill="#000000">absence_reason_category_id</text>
<polygon fill="none" stroke="#000000" points="516,-505.7 516,-527.7 784,-527.7 784,-505.7 516,-505.7"/>
<image xlink:href="../../images/foreignKeys.png" width="11px" height="12px" preserveAspectRatio="xMinYMin meet" x="521" y="-522.7"/>
<text text-anchor="start" x="545" y="-512.8" font-family="Helvetica,sans-Serif" font-size="11.00" fill="#000000">accompanied_by_id</text>
<polygon fill="none" stroke="#000000" points="516,-486.7 516,-505.7 784,-505.7 784,-486.7 516,-486.7"/>
<text text-anchor="start" x="519" y="-492.8" font-family="Helvetica,sans-Serif" font-size="11.00" fill="#000000">...</text>
<polygon fill="#ffffff" stroke="transparent" points="516,-467.7 516,-486.7 644,-486.7 644,-467.7 516,-467.7"/>
<polygon fill="none" stroke="#000000" points="516,-467.7 516,-486.7 644,-486.7 644,-467.7 516,-467.7"/>
<text text-anchor="start" x="519" y="-473.8" font-family="Helvetica,sans-Serif" font-size="11.00" fill="#000000">&lt; 6</text>
<polygon fill="#ffffff" stroke="transparent" points="644,-467.7 644,-486.7 709,-486.7 709,-467.7 644,-467.7"/>
<polygon fill="none" stroke="#000000" points="644,-467.7 644,-486.7 709,-486.7 709,-467.7 644,-467.7"/>
<text text-anchor="start" x="699.8862" y="-473.8" font-family="Helvetica,sans-Serif" font-size="11.00" fill="#000000"> &#160;</text>
<polygon fill="#ffffff" stroke="transparent" points="709,-467.7 709,-486.7 784,-486.7 784,-467.7 709,-467.7"/>
<polygon fill="none" stroke="#000000" points="709,-467.7 709,-486.7 784,-486.7 784,-467.7 709,-467.7"/>
<text text-anchor="start" x="765.4053" y="-473.8" font-family="Helvetica,sans-Serif" font-size="11.00" fill="#000000">1 &gt;</text>
</a>
</g>
</g>
<!-- temporary_absence_authorisation&#45;&gt;reference_data -->
<g id="edge6" class="edge">
<title>temporary_absence_authorisation:w&#45;&gt;reference_data:e</title>
<path fill="none" stroke="#000000" d="M501.719,-534.8206C473.7911,-515.4034 512.4261,-429.7 465,-429.7"/>
<polygon fill="#000000" stroke="#000000" points="508.2798,-536.6028 515.0563,-542.1741 512.1399,-537.6514 516,-538.7 516,-538.7 516,-538.7 512.1399,-537.6514 516.9437,-535.2259 508.2798,-536.6028 508.2798,-536.6028"/>
<ellipse fill="none" stroke="#000000" cx="505.1917" cy="-535.7639" rx="3.2" ry="3.2"/>
</g>
<!-- temporary_absence_authorisation&#45;&gt;reference_data -->
<g id="edge7" class="edge">
<title>temporary_absence_authorisation:w&#45;&gt;reference_data:e</title>
<path fill="none" stroke="#000000" d="M501.3227,-646.6718C432.1288,-624.594 559.2772,-429.7 465,-429.7"/>
<polygon fill="#000000" stroke="#000000" points="508.0753,-647.6049 515.5072,-652.2661 512.0377,-648.1524 516,-648.7 516,-648.7 516,-648.7 512.0377,-648.1524 516.4928,-645.1339 508.0753,-647.6049 508.0753,-647.6049"/>
<ellipse fill="none" stroke="#000000" cx="504.9054" cy="-647.1668" rx="3.2" ry="3.2"/>
</g>
<!-- temporary_absence_authorisation&#45;&gt;reference_data -->
<g id="edge8" class="edge">
<title>temporary_absence_authorisation:w&#45;&gt;reference_data:e</title>
<path fill="none" stroke="#000000" d="M501.3947,-668.8987C422.8604,-646.8449 568.9235,-429.7 465,-429.7"/>
<polygon fill="#000000" stroke="#000000" points="508.0602,-669.7207 515.5593,-674.2729 512.0301,-670.2104 516,-670.7 516,-670.7 516,-670.7 512.0301,-670.2104 516.4407,-667.1271 508.0602,-669.7207 508.0602,-669.7207"/>
<ellipse fill="none" stroke="#000000" cx="504.8842" cy="-669.329" rx="3.2" ry="3.2"/>
</g>
<!-- temporary_absence_authorisation&#45;&gt;reference_data -->
<g id="edge9" class="edge">
<title>temporary_absence_authorisation:w&#45;&gt;reference_data:e</title>
<path fill="none" stroke="#000000" d="M502.8588,-686.7127C467.6675,-647.5651 519.1845,-429.7 465,-429.7"/>
<polygon fill="#000000" stroke="#000000" points="508.72,-689.3831 514.5074,-695.976 512.36,-691.0416 516,-692.7 516,-692.7 516,-692.7 512.36,-691.0416 517.4926,-689.424 508.72,-689.3831 508.72,-689.3831"/>
<ellipse fill="none" stroke="#000000" cx="505.808" cy="-688.0564" rx="3.2" ry="3.2"/>
</g>
<!-- temporary_absence_authorisation&#45;&gt;reference_data -->
<g id="edge10" class="edge">
<title>temporary_absence_authorisation:w&#45;&gt;reference_data:e</title>
<path fill="none" stroke="#000000" d="M502.1673,-512.5038C479.9713,-495.1252 503.8679,-429.7 465,-429.7"/>
<polygon fill="#000000" stroke="#000000" points="508.3445,-514.3776 514.9549,-520.145 512.1722,-515.5388 516,-516.7 516,-516.7 516,-516.7 512.1722,-515.5388 517.0451,-513.255 508.3445,-514.3776 508.3445,-514.3776"/>
<ellipse fill="none" stroke="#000000" cx="505.2823" cy="-513.4487" rx="3.2" ry="3.2"/>
</g>
<!-- temporary_absence_authorisation&#45;&gt;reference_data -->
<g id="edge11" class="edge">
<title>temporary_absence_authorisation:w&#45;&gt;reference_data:e</title>
<path fill="none" stroke="#000000" d="M501.5165,-624.4876C440.9329,-602.8445 549.7894,-429.7 465,-429.7"/>
<polygon fill="#000000" stroke="#000000" points="508.0917,-625.4919 515.4564,-630.2587 512.0459,-626.096 516,-626.7 516,-626.7 516,-626.7 512.0459,-626.096 516.5436,-623.1413 508.0917,-625.4919 508.0917,-625.4919"/>
<ellipse fill="none" stroke="#000000" cx="504.9284" cy="-625.0087" rx="3.2" ry="3.2"/>
</g>
<!-- temporary_absence_movement -->
<g id="node6" class="node">
<title>temporary_absence_movement</title>
<g id="a_node6"><a xlink:href="../../tables/temporary_absence_movement.html" xlink:title="temporary_absence_movement" target="_top">
<polygon fill="#ffffff" stroke="transparent" points="1134,-38.2 1134,-253.2 1383,-253.2 1383,-38.2 1134,-38.2"/>
<polygon fill="#f5f5f5" stroke="transparent" points="1134.5,-229.7 1134.5,-252.7 1383.5,-252.7 1383.5,-229.7 1134.5,-229.7"/>
<polygon fill="none" stroke="#000000" points="1134.5,-229.7 1134.5,-252.7 1383.5,-252.7 1383.5,-229.7 1134.5,-229.7"/>
<text text-anchor="start" x="1139.5" y="-238.3" font-family="Helvetica,sans-Serif" font-weight="bold" font-size="11.00" fill="#000000">temporary_absence_movement</text>
<text text-anchor="start" x="1349.0219" y="-237.8" font-family="Helvetica,sans-Serif" font-size="11.00" fill="#000000">[table]</text>
<polygon fill="none" stroke="#000000" points="1134.5,-207.7 1134.5,-229.7 1383.5,-229.7 1383.5,-207.7 1134.5,-207.7"/>
<image xlink:href="../../images/primaryKeys.png" width="11px" height="12px" preserveAspectRatio="xMinYMin meet" x="1139.5" y="-224.7"/>
<text text-anchor="start" x="1163.5" y="-214.8" font-family="Helvetica,sans-Serif" font-size="11.00" fill="#000000">id</text>
<polygon fill="#ffffff" stroke="transparent" points="1134.5,-185.7 1134.5,-207.7 1383.5,-207.7 1383.5,-185.7 1134.5,-185.7"/>
<polygon fill="none" stroke="#000000" points="1134.5,-185.7 1134.5,-207.7 1383.5,-207.7 1383.5,-185.7 1134.5,-185.7"/>
<text text-anchor="start" x="1163.5" y="-192.8" font-family="Helvetica,sans-Serif" font-size="11.00" fill="#000000">person_identifier</text>
<polygon fill="none" stroke="#000000" points="1134.5,-163.7 1134.5,-185.7 1383.5,-185.7 1383.5,-163.7 1134.5,-163.7"/>
<image xlink:href="../../images/foreignKeys.png" width="11px" height="12px" preserveAspectRatio="xMinYMin meet" x="1139.5" y="-180.7"/>
<text text-anchor="start" x="1163.5" y="-170.8" font-family="Helvetica,sans-Serif" font-size="11.00" fill="#000000">occurrence_id</text>
<polygon fill="#ffffff" stroke="transparent" points="1134.5,-141.7 1134.5,-163.7 1383.5,-163.7 1383.5,-141.7 1134.5,-141.7"/>
<polygon fill="none" stroke="#000000" points="1134.5,-141.7 1134.5,-163.7 1383.5,-163.7 1383.5,-141.7 1134.5,-141.7"/>
<text text-anchor="start" x="1163.5" y="-148.8" font-family="Helvetica,sans-Serif" font-size="11.00" fill="#000000">occurred_at</text>
<polygon fill="none" stroke="#000000" points="1134.5,-119.7 1134.5,-141.7 1383.5,-141.7 1383.5,-119.7 1134.5,-119.7"/>
<image xlink:href="../../images/foreignKeys.png" width="11px" height="12px" preserveAspectRatio="xMinYMin meet" x="1139.5" y="-136.7"/>
<text text-anchor="start" x="1163.5" y="-126.8" font-family="Helvetica,sans-Serif" font-size="11.00" fill="#000000">absence_reason_id</text>
<polygon fill="none" stroke="#000000" points="1134.5,-97.7 1134.5,-119.7 1383.5,-119.7 1383.5,-97.7 1134.5,-97.7"/>
<image xlink:href="../../images/foreignKeys.png" width="11px" height="12px" preserveAspectRatio="xMinYMin meet" x="1139.5" y="-114.7"/>
<text text-anchor="start" x="1163.5" y="-104.8" font-family="Helvetica,sans-Serif" font-size="11.00" fill="#000000">accompanied_by_id</text>
<polygon fill="#ffffff" stroke="transparent" points="1134.5,-75.7 1134.5,-97.7 1383.5,-97.7 1383.5,-75.7 1134.5,-75.7"/>
<polygon fill="none" stroke="#000000" points="1134.5,-75.7 1134.5,-97.7 1383.5,-97.7 1383.5,-75.7 1134.5,-75.7"/>
<text text-anchor="start" x="1163.5" y="-82.8" font-family="Helvetica,sans-Serif" font-size="11.00" fill="#000000">legacy_id</text>
<polygon fill="none" stroke="#000000" points="1134.5,-56.7 1134.5,-75.7 1383.5,-75.7 1383.5,-56.7 1134.5,-56.7"/>
<text text-anchor="start" x="1137.5" y="-62.8" font-family="Helvetica,sans-Serif" font-size="11.00" fill="#000000">...</text>
<polygon fill="#ffffff" stroke="transparent" points="1134.5,-37.7 1134.5,-56.7 1257.5,-56.7 1257.5,-37.7 1134.5,-37.7"/>
<polygon fill="none" stroke="#000000" points="1134.5,-37.7 1134.5,-56.7 1257.5,-56.7 1257.5,-37.7 1134.5,-37.7"/>
<text text-anchor="start" x="1137.5" y="-43.8" font-family="Helvetica,sans-Serif" font-size="11.00" fill="#000000">&lt; 3</text>
<polygon fill="#ffffff" stroke="transparent" points="1257.5,-37.7 1257.5,-56.7 1320.5,-56.7 1320.5,-37.7 1257.5,-37.7"/>
<polygon fill="none" stroke="#000000" points="1257.5,-37.7 1257.5,-56.7 1320.5,-56.7 1320.5,-37.7 1257.5,-37.7"/>
<text text-anchor="start" x="1311.3862" y="-43.8" font-family="Helvetica,sans-Serif" font-size="11.00" fill="#000000"> &#160;</text>
<polygon fill="#ffffff" stroke="transparent" points="1320.5,-37.7 1320.5,-56.7 1383.5,-56.7 1383.5,-37.7 1320.5,-37.7"/>
<polygon fill="none" stroke="#000000" points="1320.5,-37.7 1320.5,-56.7 1383.5,-56.7 1383.5,-37.7 1320.5,-37.7"/>
<text text-anchor="start" x="1374.3862" y="-43.8" font-family="Helvetica,sans-Serif" font-size="11.00" fill="#000000"> &#160;</text>
</a>
</g>
</g>
<!-- temporary_absence_movement&#45;&gt;reference_data -->
<g id="edge12" class="edge">
<title>temporary_absence_movement:w&#45;&gt;reference_data:e</title>
<path fill="none" stroke="#000000" d="M1119.9828,-130.4882C1012.8853,-128.0404 557.4066,-105.9839 508,-149.7 460.8543,-191.4156 527.9517,-429.7 465,-429.7"/>
<polygon fill="#000000" stroke="#000000" points="1126.5009,-130.5833 1134.4475,-134.2996 1130.5004,-130.6416 1134.5,-130.7 1134.5,-130.7 1134.5,-130.7 1130.5004,-130.6416 1134.5525,-127.1004 1126.5009,-130.5833 1126.5009,-130.5833"/>
<ellipse fill="none" stroke="#000000" cx="1123.3012" cy="-130.5366" rx="3.2" ry="3.2"/>
</g>
<!-- temporary_absence_movement&#45;&gt;reference_data -->
<g id="edge13" class="edge">
<title>temporary_absence_movement:w&#45;&gt;reference_data:e</title>
<path fill="none" stroke="#000000" d="M1119.9412,-108.5427C851.0718,-102.7336 712.6373,60.9056 508,-120.7 456.1463,-166.7176 534.3283,-429.7 465,-429.7"/>
<polygon fill="#000000" stroke="#000000" points="1126.5005,-108.6135 1134.4611,-112.2998 1130.5002,-108.6567 1134.5,-108.7 1134.5,-108.7 1134.5,-108.7 1130.5002,-108.6567 1134.5389,-105.1002 1126.5005,-108.6135 1126.5005,-108.6135"/>
<ellipse fill="none" stroke="#000000" cx="1123.3007" cy="-108.5789" rx="3.2" ry="3.2"/>
</g>
<!-- temporary_absence_occurrence -->
<g id="node7" class="node">
<title>temporary_absence_occurrence</title>
<g id="a_node7"><a xlink:href="../../tables/temporary_absence_occurrence.html" xlink:title="temporary_absence_occurrence" target="_top">
<polygon fill="#ffffff" stroke="transparent" points="833,-155.2 833,-480.2 1085,-480.2 1085,-155.2 833,-155.2"/>
<polygon fill="#f5f5f5" stroke="transparent" points="833,-456.7 833,-479.7 1085,-479.7 1085,-456.7 833,-456.7"/>
<polygon fill="none" stroke="#000000" points="833,-456.7 833,-479.7 1085,-479.7 1085,-456.7 833,-456.7"/>
<text text-anchor="start" x="838" y="-465.3" font-family="Helvetica,sans-Serif" font-weight="bold" font-size="11.00" fill="#000000">temporary_absence_occurrence</text>
<text text-anchor="start" x="1050.5219" y="-464.8" font-family="Helvetica,sans-Serif" font-size="11.00" fill="#000000">[table]</text>
<polygon fill="none" stroke="#000000" points="833,-434.7 833,-456.7 1085,-456.7 1085,-434.7 833,-434.7"/>
<image xlink:href="../../images/primaryKeys.png" width="11px" height="12px" preserveAspectRatio="xMinYMin meet" x="838" y="-451.7"/>
<text text-anchor="start" x="862" y="-441.8" font-family="Helvetica,sans-Serif" font-size="11.00" fill="#000000">id</text>
<polygon fill="#ffffff" stroke="transparent" points="833,-412.7 833,-434.7 1085,-434.7 1085,-412.7 833,-412.7"/>
<polygon fill="none" stroke="#000000" points="833,-412.7 833,-434.7 1085,-434.7 1085,-412.7 833,-412.7"/>
<text text-anchor="start" x="862" y="-419.8" font-family="Helvetica,sans-Serif" font-size="11.00" fill="#000000">person_identifier</text>
<polygon fill="#ffffff" stroke="transparent" points="833,-390.7 833,-412.7 1085,-412.7 1085,-390.7 833,-390.7"/>
<polygon fill="none" stroke="#000000" points="833,-390.7 833,-412.7 1085,-412.7 1085,-390.7 833,-390.7"/>
<image xlink:href="../../images/foreignKeys.png" width="11px" height="12px" preserveAspectRatio="xMinYMin meet" x="838" y="-407.7"/>
<text text-anchor="start" x="862" y="-397.8" font-family="Helvetica,sans-Serif" font-size="11.00" fill="#000000">authorisation_id</text>
<polygon fill="#ffffff" stroke="transparent" points="833,-368.7 833,-390.7 1085,-390.7 1085,-368.7 833,-368.7"/>
<polygon fill="none" stroke="#000000" points="833,-368.7 833,-390.7 1085,-390.7 1085,-368.7 833,-368.7"/>
<text text-anchor="start" x="862" y="-375.8" font-family="Helvetica,sans-Serif" font-size="11.00" fill="#000000">release_at</text>
<polygon fill="#ffffff" stroke="transparent" points="833,-346.7 833,-368.7 1085,-368.7 1085,-346.7 833,-346.7"/>
<polygon fill="none" stroke="#000000" points="833,-346.7 833,-368.7 1085,-368.7 1085,-346.7 833,-346.7"/>
<text text-anchor="start" x="862" y="-353.8" font-family="Helvetica,sans-Serif" font-size="11.00" fill="#000000">return_by</text>
<polygon fill="none" stroke="#000000" points="833,-324.7 833,-346.7 1085,-346.7 1085,-324.7 833,-324.7"/>
<image xlink:href="../../images/foreignKeys.png" width="11px" height="12px" preserveAspectRatio="xMinYMin meet" x="838" y="-341.7"/>
<text text-anchor="start" x="862" y="-331.8" font-family="Helvetica,sans-Serif" font-size="11.00" fill="#000000">accompanied_by_id</text>
<polygon fill="none" stroke="#000000" points="833,-302.7 833,-324.7 1085,-324.7 1085,-302.7 833,-302.7"/>
<image xlink:href="../../images/foreignKeys.png" width="11px" height="12px" preserveAspectRatio="xMinYMin meet" x="838" y="-319.7"/>
<text text-anchor="start" x="862" y="-309.8" font-family="Helvetica,sans-Serif" font-size="11.00" fill="#000000">transport_id</text>
<polygon fill="#ffffff" stroke="transparent" points="833,-280.7 833,-302.7 1085,-302.7 1085,-280.7 833,-280.7"/>
<polygon fill="none" stroke="#000000" points="833,-280.7 833,-302.7 1085,-302.7 1085,-280.7 833,-280.7"/>
<text text-anchor="start" x="862" y="-287.8" font-family="Helvetica,sans-Serif" font-size="11.00" fill="#000000">legacy_id</text>
<polygon fill="none" stroke="#000000" points="833,-258.7 833,-280.7 1085,-280.7 1085,-258.7 833,-258.7"/>
<image xlink:href="../../images/foreignKeys.png" width="11px" height="12px" preserveAspectRatio="xMinYMin meet" x="838" y="-275.7"/>
<text text-anchor="start" x="862" y="-265.8" font-family="Helvetica,sans-Serif" font-size="11.00" fill="#000000">absence_type_id</text>
<polygon fill="none" stroke="#000000" points="833,-236.7 833,-258.7 1085,-258.7 1085,-236.7 833,-236.7"/>
<image xlink:href="../../images/foreignKeys.png" width="11px" height="12px" preserveAspectRatio="xMinYMin meet" x="838" y="-253.7"/>
<text text-anchor="start" x="862" y="-243.8" font-family="Helvetica,sans-Serif" font-size="11.00" fill="#000000">absence_sub_type_id</text>
<polygon fill="none" stroke="#000000" points="833,-214.7 833,-236.7 1085,-236.7 1085,-214.7 833,-214.7"/>
<image xlink:href="../../images/foreignKeys.png" width="11px" height="12px" preserveAspectRatio="xMinYMin meet" x="838" y="-231.7"/>
<text text-anchor="start" x="862" y="-221.8" font-family="Helvetica,sans-Serif" font-size="11.00" fill="#000000">absence_reason_category_id</text>
<polygon fill="none" stroke="#000000" points="833,-192.7 833,-214.7 1085,-214.7 1085,-192.7 833,-192.7"/>
<image xlink:href="../../images/foreignKeys.png" width="11px" height="12px" preserveAspectRatio="xMinYMin meet" x="838" y="-209.7"/>
<text text-anchor="start" x="862" y="-199.8" font-family="Helvetica,sans-Serif" font-size="11.00" fill="#000000">absence_reason_id</text>
<polygon fill="none" stroke="#000000" points="833,-173.7 833,-192.7 1085,-192.7 1085,-173.7 833,-173.7"/>
<text text-anchor="start" x="836" y="-179.8" font-family="Helvetica,sans-Serif" font-size="11.00" fill="#000000">...</text>
<polygon fill="#ffffff" stroke="transparent" points="833,-154.7 833,-173.7 953,-173.7 953,-154.7 833,-154.7"/>
<polygon fill="none" stroke="#000000" points="833,-154.7 833,-173.7 953,-173.7 953,-154.7 833,-154.7"/>
<text text-anchor="start" x="836" y="-160.8" font-family="Helvetica,sans-Serif" font-size="11.00" fill="#000000">&lt; 7</text>
<polygon fill="#ffffff" stroke="transparent" points="953,-154.7 953,-173.7 1014,-173.7 1014,-154.7 953,-154.7"/>
<polygon fill="none" stroke="#000000" points="953,-154.7 953,-173.7 1014,-173.7 1014,-154.7 953,-154.7"/>
<text text-anchor="start" x="1004.8862" y="-160.8" font-family="Helvetica,sans-Serif" font-size="11.00" fill="#000000"> &#160;</text>
<polygon fill="#ffffff" stroke="transparent" points="1014,-154.7 1014,-173.7 1085,-173.7 1085,-154.7 1014,-154.7"/>
<polygon fill="none" stroke="#000000" points="1014,-154.7 1014,-173.7 1085,-173.7 1085,-154.7 1014,-154.7"/>
<text text-anchor="start" x="1066.4053" y="-160.8" font-family="Helvetica,sans-Serif" font-size="11.00" fill="#000000">1 &gt;</text>
</a>
</g>
</g>
<!-- temporary_absence_movement&#45;&gt;temporary_absence_occurrence -->
<g id="edge14" class="edge">
<title>temporary_absence_movement:w&#45;&gt;temporary_absence_occurrence:e</title>
<path fill="none" stroke="#000000" d="M1120.1457,-176.2241C1028.6206,-197.995 1202.0566,-445.7 1085,-445.7"/>
<polygon fill="#000000" stroke="#000000" points="1126.5447,-175.5447 1134.8801,-178.2799 1130.5224,-175.1223 1134.5,-174.7 1134.5,-174.7 1134.5,-174.7 1130.5224,-175.1223 1134.1199,-171.1201 1126.5447,-175.5447 1126.5447,-175.5447"/>
<ellipse fill="none" stroke="#000000" cx="1123.3626" cy="-175.8826" rx="3.2" ry="3.2"/>
</g>
<!-- temporary_absence_occurrence&#45;&gt;reference_data -->
<g id="edge15" class="edge">
<title>temporary_absence_occurrence:w&#45;&gt;reference_data:e</title>
<path fill="none" stroke="#000000" d="M819.0801,-221.828C810.4266,-216.1016 806.488,-205.6286 792,-201.7 731.0885,-185.1831 556.5859,-161.4207 508,-201.7 428.6136,-267.5139 568.1197,-429.7 465,-429.7"/>
<polygon fill="#000000" stroke="#000000" points="825.2926,-223.5561 832.0352,-229.1683 829.1463,-224.628 833,-225.7 833,-225.7 833,-225.7 829.1463,-224.628 833.9648,-222.2317 825.2926,-223.5561 825.2926,-223.5561"/>
<ellipse fill="none" stroke="#000000" cx="822.2097" cy="-222.6985" rx="3.2" ry="3.2"/>
</g>
<!-- temporary_absence_occurrence&#45;&gt;reference_data -->
<g id="edge16" class="edge">
<title>temporary_absence_occurrence:w&#45;&gt;reference_data:e</title>
<path fill="none" stroke="#000000" d="M819.0726,-199.4121C810.3052,-192.7977 807.1536,-180.3807 792,-175.7 731.7,-157.0743 556.2071,-134.9681 508,-175.7 464.2718,-212.6476 522.2476,-429.7 465,-429.7"/>
<polygon fill="#000000" stroke="#000000" points="825.3542,-201.346 831.9407,-207.1406 829.1771,-202.523 833,-203.7 833,-203.7 833,-203.7 829.1771,-202.523 834.0593,-200.2594 825.3542,-201.346 825.3542,-201.346"/>
<ellipse fill="none" stroke="#000000" cx="822.2958" cy="-200.4044" rx="3.2" ry="3.2"/>
</g>
<!-- temporary_absence_occurrence&#45;&gt;reference_data -->
<g id="edge17" class="edge">
<title>temporary_absence_occurrence:w&#45;&gt;reference_data:e</title>
<path fill="none" stroke="#000000" d="M818.8235,-244.3205C810.4222,-239.7177 805.6371,-231.7063 792,-228.7 730.3687,-215.1136 557.0726,-189.0151 508,-228.7 436.9663,-286.1447 556.3547,-429.7 465,-429.7"/>
<polygon fill="#000000" stroke="#000000" points="825.2181,-245.8449 832.1652,-251.2019 829.109,-246.7724 833,-247.7 833,-247.7 833,-247.7 829.109,-246.7724 833.8348,-244.1981 825.2181,-245.8449 825.2181,-245.8449"/>
<ellipse fill="none" stroke="#000000" cx="822.1053" cy="-245.1028" rx="3.2" ry="3.2"/>
</g>
<!-- temporary_absence_occurrence&#45;&gt;reference_data -->
<g id="edge18" class="edge">
<title>temporary_absence_occurrence:w&#45;&gt;reference_data:e</title>
<path fill="none" stroke="#000000" d="M818.6464,-266.533C810.3681,-262.3903 805.3009,-255.3482 792,-252.7 730.1038,-240.3765 557.615,-213.6953 508,-252.7 444.3572,-302.7327 545.9548,-429.7 465,-429.7"/>
<polygon fill="#000000" stroke="#000000" points="825.1879,-267.9763 832.2243,-273.2154 829.0939,-268.8381 833,-269.7 833,-269.7 833,-269.7 829.0939,-268.8381 833.7757,-266.1846 825.1879,-267.9763 825.1879,-267.9763"/>
<ellipse fill="none" stroke="#000000" cx="822.0631" cy="-267.2868" rx="3.2" ry="3.2"/>
</g>
<!-- temporary_absence_occurrence&#45;&gt;reference_data -->
<g id="edge19" class="edge">
<title>temporary_absence_occurrence:w&#45;&gt;reference_data:e</title>
<path fill="none" stroke="#000000" d="M818.8685,-339.3563C798.4968,-353.6334 823.9223,-405.8616 792,-426.7 731.1481,-466.4232 537.6697,-429.7 465,-429.7"/>
<polygon fill="#000000" stroke="#000000" points="825.255,-337.7039 833.9018,-339.1852 829.1275,-336.702 833,-335.7 833,-335.7 833,-335.7 829.1275,-336.702 832.0982,-332.2148 825.255,-337.7039 825.255,-337.7039"/>
<ellipse fill="none" stroke="#000000" cx="822.157" cy="-338.5055" rx="3.2" ry="3.2"/>
</g>
<!-- temporary_absence_occurrence&#45;&gt;reference_data -->
<g id="edge21" class="edge">
<title>temporary_absence_occurrence:w&#45;&gt;reference_data:e</title>
<path fill="none" stroke="#000000" d="M818.9359,-317.2525C798.5173,-331.135 822.9323,-382.0192 792,-403.7 784.5384,-408.93 474.112,-429.7 465,-429.7"/>
<polygon fill="#000000" stroke="#000000" points="825.2436,-315.6593 833.8817,-317.1904 829.1218,-314.6796 833,-313.7 833,-313.7 833,-313.7 829.1218,-314.6796 832.1183,-310.2096 825.2436,-315.6593 825.2436,-315.6593"/>
<ellipse fill="none" stroke="#000000" cx="822.1411" cy="-316.443" rx="3.2" ry="3.2"/>
</g>
<!-- temporary_absence_occurrence&#45;&gt;temporary_absence_authorisation -->
<g id="edge20" class="edge">
<title>temporary_absence_occurrence:w&#45;&gt;temporary_absence_authorisation:e</title>
<path fill="none" stroke="#000000" d="M819.1366,-406.4767C767.2261,-448.8403 858.6031,-758.7 784,-758.7"/>
<polygon fill="#000000" stroke="#000000" points="825.4364,-404.3061 834.1728,-405.1036 829.2182,-403.0031 833,-401.7 833,-401.7 833,-401.7 829.2182,-403.0031 831.8272,-398.2964 825.4364,-404.3061 825.4364,-404.3061"/>
<ellipse fill="none" stroke="#000000" cx="822.4109" cy="-405.3486" rx="3.2" ry="3.2"/>
</g>
</g>
</svg>
