<?xml version="1.0" encoding="UTF-8" standalone="no"?>
<!DOCTYPE svg PUBLIC "-//W3C//DTD SVG 1.1//EN"
 "http://www.w3.org/Graphics/SVG/1.1/DTD/svg11.dtd">
<!-- Generated by graphviz version 2.40.1 (20161225.0304)
 -->
<!-- Title: twoDegreesRelationshipsDiagram Pages: 1 -->
<svg width="1080pt" height="397pt"
 viewBox="0.00 0.00 1080.00 397.20" xmlns="http://www.w3.org/2000/svg" xmlns:xlink="http://www.w3.org/1999/xlink">
<g id="graph0" class="graph" transform="scale(1 1) rotate(0) translate(4 393.2)">
<title>twoDegreesRelationshipsDiagram</title>
<polygon fill="#ffffff" stroke="transparent" points="-4,4 -4,-393.2 1076,-393.2 1076,4 -4,4"/>
<text text-anchor="middle" x="72.4936" y="-7.3" font-family="Helvetica,sans-Serif" font-size="11.00" fill="#000000">Generated by SchemaSpy</text>
<!-- reference_data -->
<g id="node1" class="node">
<title>reference_data</title>
<g id="a_node1"><a xlink:href="../../tables/reference_data.html" xlink:title="reference_data" target="_top">
<polygon fill="#ffffff" stroke="transparent" points="306,-117.2 306,-178.2 446,-178.2 446,-117.2 306,-117.2"/>
<polygon fill="#f5f5f5" stroke="transparent" points="306,-154.7 306,-177.7 446,-177.7 446,-154.7 306,-154.7"/>
<polygon fill="none" stroke="#000000" points="306,-154.7 306,-177.7 446,-177.7 446,-154.7 306,-154.7"/>
<text text-anchor="start" x="311" y="-163.3" font-family="Helvetica,sans-Serif" font-weight="bold" font-size="11.00" fill="#000000">reference_data</text>
<text text-anchor="start" x="411.5219" y="-162.8" font-family="Helvetica,sans-Serif" font-size="11.00" fill="#000000">[table]</text>
<polygon fill="none" stroke="#000000" points="306,-135.7 306,-154.7 446,-154.7 446,-135.7 306,-135.7"/>
<text text-anchor="start" x="309" y="-141.8" font-family="Helvetica,sans-Serif" font-size="11.00" fill="#000000">...</text>
<polygon fill="#ffffff" stroke="transparent" points="306,-116.7 306,-135.7 348,-135.7 348,-116.7 306,-116.7"/>
<polygon fill="none" stroke="#000000" points="306,-116.7 306,-135.7 348,-135.7 348,-116.7 306,-116.7"/>
<text text-anchor="start" x="309" y="-122.8" font-family="Helvetica,sans-Serif" font-size="11.00" fill="#000000">&lt; 1</text>
<polygon fill="#ffffff" stroke="transparent" points="348,-116.7 348,-135.7 408,-135.7 408,-116.7 348,-116.7"/>
<polygon fill="none" stroke="#000000" points="348,-116.7 348,-135.7 408,-135.7 408,-116.7 348,-116.7"/>
<text text-anchor="start" x="360.3807" y="-122.8" font-family="Helvetica,sans-Serif" font-size="11.00" fill="#000000">158 rows</text>
<polygon fill="#ffffff" stroke="transparent" points="408,-116.7 408,-135.7 446,-135.7 446,-116.7 408,-116.7"/>
<polygon fill="none" stroke="#000000" points="408,-116.7 408,-135.7 446,-135.7 446,-116.7 408,-116.7"/>
<text text-anchor="start" x="421.2904" y="-122.8" font-family="Helvetica,sans-Serif" font-size="11.00" fill="#000000">12 &gt;</text>
</a>
</g>
</g>
<!-- reference_data_domain -->
<g id="node2" class="node">
<title>reference_data_domain</title>
<g id="a_node2"><a xlink:href="../../tables/reference_data_domain.html" xlink:title="reference_data_domain" target="_top">
<polygon fill="#ffffff" stroke="transparent" points="8,-120.7 8,-210.7 257,-210.7 257,-120.7 8,-120.7"/>
<polygon fill="#f5f5f5" stroke="transparent" points="10.5,-185.7 10.5,-208.7 255.5,-208.7 255.5,-185.7 10.5,-185.7"/>
<polygon fill="none" stroke="#000000" points="10.5,-185.7 10.5,-208.7 255.5,-208.7 255.5,-185.7 10.5,-185.7"/>
<text text-anchor="start" x="15.5" y="-194.3" font-family="Helvetica,sans-Serif" font-weight="bold" font-size="11.00" fill="#000000">reference_data_domain</text>
<text text-anchor="start" x="220.5437" y="-193.8" font-family="Helvetica,sans-Serif" font-size="11.00" fill="#000000">[table]</text>
<polygon fill="none" stroke="#000000" points="10.5,-163.7 10.5,-185.7 188.5,-185.7 188.5,-163.7 10.5,-163.7"/>
<image xlink:href="../../images/primaryKeys.png" width="11px" height="12px" preserveAspectRatio="xMinYMin meet" x="15.5" y="-180.7"/>
<text text-anchor="start" x="30.5" y="-170.8" font-family="Helvetica,sans-Serif" font-size="11.00" fill="#000000">code</text>
<polygon fill="none" stroke="#000000" points="188.5,-163.7 188.5,-185.7 255.5,-185.7 255.5,-163.7 188.5,-163.7"/>
<text text-anchor="start" x="191.5" y="-171.4" font-family="Helvetica,sans-Serif" font-size="11.00" fill="#000000">varchar[32]</text>
<polygon fill="none" stroke="#000000" points="10.5,-141.7 10.5,-163.7 188.5,-163.7 188.5,-141.7 10.5,-141.7"/>
<text text-anchor="start" x="30.5" y="-148.8" font-family="Helvetica,sans-Serif" font-size="11.00" fill="#000000">description</text>
<polygon fill="none" stroke="#000000" points="188.5,-141.7 188.5,-163.7 255.5,-163.7 255.5,-141.7 188.5,-141.7"/>
<text text-anchor="start" x="191.4365" y="-149.4" font-family="Helvetica,sans-Serif" font-size="11.00" fill="#000000">varchar[255]</text>
<polygon fill="#ffffff" stroke="transparent" points="10.5,-122.7 10.5,-141.7 103.5,-141.7 103.5,-122.7 10.5,-122.7"/>
<polygon fill="none" stroke="#000000" points="10.5,-122.7 10.5,-141.7 103.5,-141.7 103.5,-122.7 10.5,-122.7"/>
<text text-anchor="start" x="13.5" y="-128.8" font-family="Helvetica,sans-Serif" font-size="11.00" fill="#000000">&lt; 0</text>
<polygon fill="#ffffff" stroke="transparent" points="103.5,-122.7 103.5,-141.7 188.5,-141.7 188.5,-122.7 103.5,-122.7"/>
<polygon fill="none" stroke="#000000" points="103.5,-122.7 103.5,-141.7 188.5,-141.7 188.5,-122.7 103.5,-122.7"/>
<text text-anchor="start" x="179.3862" y="-128.8" font-family="Helvetica,sans-Serif" font-size="11.00" fill="#000000"> &#160;</text>
<polygon fill="#ffffff" stroke="transparent" points="188.5,-122.7 188.5,-141.7 255.5,-141.7 255.5,-122.7 188.5,-122.7"/>
<polygon fill="none" stroke="#000000" points="188.5,-122.7 188.5,-141.7 255.5,-141.7 255.5,-122.7 188.5,-122.7"/>
<text text-anchor="start" x="236.9053" y="-128.8" font-family="Helvetica,sans-Serif" font-size="11.00" fill="#000000">2 &gt;</text>
<polygon fill="none" stroke="#000000" stroke-width="2" points="9,-121.7 9,-209.7 256,-209.7 256,-121.7 9,-121.7"/>
</a>
</g>
</g>
<!-- reference_data&#45;&gt;reference_data_domain -->
<g id="edge1" class="edge">
<title>reference_data:w&#45;&gt;reference_data_domain:e</title>
<path fill="none" stroke="#000000" d="M283.2592,-172.7297C273.9428,-173.9619 264.5747,-174.7 255.5,-174.7"/>
<polygon fill="#000000" stroke="#000000" points="289.9059,-171.6753 298.3711,-173.9773 293.8565,-171.0485 297.8071,-170.4218 297.8071,-170.4218 297.8071,-170.4218 293.8565,-171.0485 297.243,-166.8662 289.9059,-171.6753 289.9059,-171.6753"/>
<ellipse fill="none" stroke="#000000" cx="286.7454" cy="-172.1767" rx="3.2" ry="3.2"/>
</g>
<!-- reference_data_domain_link -->
<g id="node3" class="node">
<title>reference_data_domain_link</title>
<g id="a_node3"><a xlink:href="../../tables/reference_data_domain_link.html" xlink:title="reference_data_domain_link" target="_top">
<polygon fill="#ffffff" stroke="transparent" points="515.5,-324.2 515.5,-385.2 742.5,-385.2 742.5,-324.2 515.5,-324.2"/>
<polygon fill="#f5f5f5" stroke="transparent" points="516,-361.7 516,-384.7 743,-384.7 743,-361.7 516,-361.7"/>
<polygon fill="none" stroke="#000000" points="516,-361.7 516,-384.7 743,-384.7 743,-361.7 516,-361.7"/>
<text text-anchor="start" x="521" y="-370.3" font-family="Helvetica,sans-Serif" font-weight="bold" font-size="11.00" fill="#000000">reference_data_domain_link</text>
<text text-anchor="start" x="708.5219" y="-369.8" font-family="Helvetica,sans-Serif" font-size="11.00" fill="#000000">[table]</text>
<polygon fill="none" stroke="#000000" points="516,-342.7 516,-361.7 743,-361.7 743,-342.7 516,-342.7"/>
<text text-anchor="start" x="519" y="-348.8" font-family="Helvetica,sans-Serif" font-size="11.00" fill="#000000">...</text>
<polygon fill="#ffffff" stroke="transparent" points="516,-323.7 516,-342.7 628,-342.7 628,-323.7 516,-323.7"/>
<polygon fill="none" stroke="#000000" points="516,-323.7 516,-342.7 628,-342.7 628,-323.7 516,-323.7"/>
<text text-anchor="start" x="519" y="-329.8" font-family="Helvetica,sans-Serif" font-size="11.00" fill="#000000">&lt; 2</text>
<polygon fill="#ffffff" stroke="transparent" points="628,-323.7 628,-342.7 685,-342.7 685,-323.7 628,-323.7"/>
<polygon fill="none" stroke="#000000" points="628,-323.7 628,-342.7 685,-342.7 685,-323.7 628,-323.7"/>
<text text-anchor="start" x="675.8862" y="-329.8" font-family="Helvetica,sans-Serif" font-size="11.00" fill="#000000"> &#160;</text>
<polygon fill="#ffffff" stroke="transparent" points="685,-323.7 685,-342.7 743,-342.7 743,-323.7 685,-323.7"/>
<polygon fill="none" stroke="#000000" points="685,-323.7 685,-342.7 743,-342.7 743,-323.7 685,-323.7"/>
<text text-anchor="start" x="733.8862" y="-329.8" font-family="Helvetica,sans-Serif" font-size="11.00" fill="#000000"> &#160;</text>
</a>
</g>
</g>
<!-- reference_data_domain_link&#45;&gt;reference_data -->
<g id="edge3" class="edge">
<title>reference_data_domain_link:w&#45;&gt;reference_data:e</title>
<path fill="none" stroke="#000000" d="M498.1084,-321.0121C494.2692,-318.7319 490.5539,-316.298 487,-313.7 480.7377,-309.1221 428.9642,-229.7876 398.3857,-182.4771"/>
<polygon fill="#000000" stroke="#000000" points="508.5019,-322.1685 504.6433,-329.1764 503.2417,-328.4047 507.1003,-321.3967 508.5019,-322.1685"/>
<polyline fill="none" stroke="#000000" points="507.2734,-326.0583 503.7694,-324.129 "/>
<ellipse fill="none" stroke="#000000" cx="500.9662" cy="-322.5856" rx="3.2" ry="3.2"/>
</g>
<!-- reference_data_domain_link&#45;&gt;reference_data_domain -->
<g id="edge2" class="edge">
<title>reference_data_domain_link:w&#45;&gt;reference_data_domain:e</title>
<path fill="none" stroke="#000000" d="M493.8784,-316.6108C491.5588,-315.6568 489.2642,-314.6865 487,-313.7 459.4948,-301.7155 285.5027,-174.7 255.5,-174.7"/>
<polygon fill="#000000" stroke="#000000" points="499.9471,-318.982 506.0883,-325.2466 503.6728,-320.4377 507.3985,-321.8935 507.3985,-321.8935 507.3985,-321.8935 503.6728,-320.4377 508.7087,-318.5404 499.9471,-318.982 499.9471,-318.982"/>
<ellipse fill="none" stroke="#000000" cx="496.9665" cy="-317.8173" rx="3.2" ry="3.2"/>
</g>
<!-- reference_data_link -->
<g id="node4" class="node">
<title>reference_data_link</title>
<g id="a_node4"><a xlink:href="../../tables/reference_data_link.html" xlink:title="reference_data_link" target="_top">
<polygon fill="#ffffff" stroke="transparent" points="543.5,-242.2 543.5,-303.2 714.5,-303.2 714.5,-242.2 543.5,-242.2"/>
<polygon fill="#f5f5f5" stroke="transparent" points="544,-279.7 544,-302.7 715,-302.7 715,-279.7 544,-279.7"/>
<polygon fill="none" stroke="#000000" points="544,-279.7 544,-302.7 715,-302.7 715,-279.7 544,-279.7"/>
<text text-anchor="start" x="549" y="-288.3" font-family="Helvetica,sans-Serif" font-weight="bold" font-size="11.00" fill="#000000">reference_data_link</text>
<text text-anchor="start" x="680.5219" y="-287.8" font-family="Helvetica,sans-Serif" font-size="11.00" fill="#000000">[table]</text>
<polygon fill="none" stroke="#000000" points="544,-260.7 544,-279.7 715,-279.7 715,-260.7 544,-260.7"/>
<text text-anchor="start" x="547" y="-266.8" font-family="Helvetica,sans-Serif" font-size="11.00" fill="#000000">...</text>
<polygon fill="#ffffff" stroke="transparent" points="544,-241.7 544,-260.7 612,-260.7 612,-241.7 544,-241.7"/>
<polygon fill="none" stroke="#000000" points="544,-241.7 544,-260.7 612,-260.7 612,-241.7 544,-241.7"/>
<text text-anchor="start" x="547" y="-247.8" font-family="Helvetica,sans-Serif" font-size="11.00" fill="#000000">&lt; 2</text>
<polygon fill="#ffffff" stroke="transparent" points="612,-241.7 612,-260.7 679,-260.7 679,-241.7 612,-241.7"/>
<polygon fill="none" stroke="#000000" points="612,-241.7 612,-260.7 679,-260.7 679,-241.7 612,-241.7"/>
<text text-anchor="start" x="637.4956" y="-247.8" font-family="Helvetica,sans-Serif" font-size="11.00" fill="#000000">64 rows</text>
<polygon fill="#ffffff" stroke="transparent" points="679,-241.7 679,-260.7 715,-260.7 715,-241.7 679,-241.7"/>
<polygon fill="none" stroke="#000000" points="679,-241.7 679,-260.7 715,-260.7 715,-241.7 679,-241.7"/>
<text text-anchor="start" x="705.8862" y="-247.8" font-family="Helvetica,sans-Serif" font-size="11.00" fill="#000000"> &#160;</text>
</a>
</g>
</g>
<!-- reference_data_link&#45;&gt;reference_data -->
<g id="edge4" class="edge">
<title>reference_data_link:w&#45;&gt;reference_data:e</title>
<path fill="none" stroke="#000000" d="M529.6588,-267.8403C478.0754,-257.8688 432.8927,-214.2724 405.1099,-182.4095"/>
<polygon fill="#000000" stroke="#000000" points="536.0664,-268.6711 543.537,-273.2701 540.0332,-269.1856 544,-269.7 544,-269.7 544,-269.7 540.0332,-269.1856 544.463,-266.1299 536.0664,-268.6711 536.0664,-268.6711"/>
<ellipse fill="none" stroke="#000000" cx="532.893" cy="-268.2596" rx="3.2" ry="3.2"/>
</g>
<!-- reference_data_link&#45;&gt;reference_data -->
<g id="edge5" class="edge">
<title>reference_data_link:w&#45;&gt;reference_data:e</title>
<path fill="none" stroke="#000000" d="M529.5316,-269.7659C473.2358,-266.0647 424.5775,-217.2968 397.8628,-182.4584"/>
<polygon fill="#000000" stroke="#000000" points="536.0001,-269.7365 544.0164,-273.3 540,-269.7182 544,-269.7 544,-269.7 544,-269.7 540,-269.7182 543.9836,-266.1 536.0001,-269.7365 536.0001,-269.7365"/>
<ellipse fill="none" stroke="#000000" cx="532.8001" cy="-269.7511" rx="3.2" ry="3.2"/>
</g>
<!-- temporary_absence_authorisation -->
<g id="node5" class="node">
<title>temporary_absence_authorisation</title>
<g id="a_node5"><a xlink:href="../../tables/temporary_absence_authorisation.html" xlink:title="temporary_absence_authorisation" target="_top">
<polygon fill="#ffffff" stroke="transparent" points="495,-120.2 495,-181.2 763,-181.2 763,-120.2 495,-120.2"/>
<polygon fill="#f5f5f5" stroke="transparent" points="495,-157.7 495,-180.7 763,-180.7 763,-157.7 495,-157.7"/>
<polygon fill="none" stroke="#000000" points="495,-157.7 495,-180.7 763,-180.7 763,-157.7 495,-157.7"/>
<text text-anchor="start" x="500" y="-166.3" font-family="Helvetica,sans-Serif" font-weight="bold" font-size="11.00" fill="#000000">temporary_absence_authorisation</text>
<text text-anchor="start" x="728.5219" y="-165.8" font-family="Helvetica,sans-Serif" font-size="11.00" fill="#000000">[table]</text>
<polygon fill="none" stroke="#000000" points="495,-138.7 495,-157.7 763,-157.7 763,-138.7 495,-138.7"/>
<text text-anchor="start" x="498" y="-144.8" font-family="Helvetica,sans-Serif" font-size="11.00" fill="#000000">...</text>
<polygon fill="#ffffff" stroke="transparent" points="495,-119.7 495,-138.7 623,-138.7 623,-119.7 495,-119.7"/>
<polygon fill="none" stroke="#000000" points="495,-119.7 495,-138.7 623,-138.7 623,-119.7 495,-119.7"/>
<text text-anchor="start" x="498" y="-125.8" font-family="Helvetica,sans-Serif" font-size="11.00" fill="#000000">&lt; 5</text>
<polygon fill="#ffffff" stroke="transparent" points="623,-119.7 623,-138.7 688,-138.7 688,-119.7 623,-119.7"/>
<polygon fill="none" stroke="#000000" points="623,-119.7 623,-138.7 688,-138.7 688,-119.7 623,-119.7"/>
<text text-anchor="start" x="678.8862" y="-125.8" font-family="Helvetica,sans-Serif" font-size="11.00" fill="#000000"> &#160;</text>
<polygon fill="#ffffff" stroke="transparent" points="688,-119.7 688,-138.7 763,-138.7 763,-119.7 688,-119.7"/>
<polygon fill="none" stroke="#000000" points="688,-119.7 688,-138.7 763,-138.7 763,-119.7 688,-119.7"/>
<text text-anchor="start" x="744.4053" y="-125.8" font-family="Helvetica,sans-Serif" font-size="11.00" fill="#000000">1 &gt;</text>
</a>
</g>
</g>
<!-- temporary_absence_authorisation&#45;&gt;reference_data -->
<g id="edge6" class="edge">
<title>temporary_absence_authorisation:w&#45;&gt;reference_data:e</title>
<path fill="none" stroke="#000000" d="M481.7612,-141.8264C472.6029,-138.1757 463.255,-135.2586 454.0938,-133.075"/>
<polygon fill="#000000" stroke="#000000" points="487.6874,-144.4556 493.54,-150.9907 491.3437,-146.0778 495,-147.7 495,-147.7 495,-147.7 491.3437,-146.0778 496.46,-144.4093 487.6874,-144.4556 487.6874,-144.4556"/>
<ellipse fill="none" stroke="#000000" cx="484.7623" cy="-143.1579" rx="3.2" ry="3.2"/>
</g>
<!-- temporary_absence_authorisation&#45;&gt;reference_data -->
<g id="edge7" class="edge">
<title>temporary_absence_authorisation:w&#45;&gt;reference_data:e</title>
<path fill="none" stroke="#000000" d="M480.8021,-144.5735C471.9509,-142.8366 462.9355,-141.4412 454.0938,-140.3875"/>
<polygon fill="#000000" stroke="#000000" points="487.1872,-145.9795 494.2258,-151.2158 491.0936,-146.8398 495,-147.7 495,-147.7 495,-147.7 491.0936,-146.8398 495.7742,-144.1842 487.1872,-145.9795 487.1872,-145.9795"/>
<ellipse fill="none" stroke="#000000" cx="484.0621" cy="-145.2913" rx="3.2" ry="3.2"/>
</g>
<!-- temporary_absence_authorisation&#45;&gt;reference_data -->
<g id="edge8" class="edge">
<title>temporary_absence_authorisation:w&#45;&gt;reference_data:e</title>
<path fill="none" stroke="#000000" d="M480.4821,-147.7C471.7337,-147.7 462.8289,-147.7 454.0938,-147.7"/>
<polygon fill="#000000" stroke="#000000" points="487,-147.7001 495,-151.3 491,-147.7 495,-147.7 495,-147.7 495,-147.7 491,-147.7 495,-144.1 487,-147.7001 487,-147.7001"/>
<ellipse fill="none" stroke="#000000" cx="483.8" cy="-147.7001" rx="3.2" ry="3.2"/>
</g>
<!-- temporary_absence_authorisation&#45;&gt;reference_data -->
<g id="edge9" class="edge">
<title>temporary_absence_authorisation:w&#45;&gt;reference_data:e</title>
<path fill="none" stroke="#000000" d="M480.8021,-150.8265C471.9509,-152.5634 462.9355,-153.9588 454.0938,-155.0125"/>
<polygon fill="#000000" stroke="#000000" points="487.1872,-149.4205 495.7742,-151.2158 491.0936,-148.5602 495,-147.7 495,-147.7 495,-147.7 491.0936,-148.5602 494.2258,-144.1842 487.1872,-149.4205 487.1872,-149.4205"/>
<ellipse fill="none" stroke="#000000" cx="484.0621" cy="-150.1087" rx="3.2" ry="3.2"/>
</g>
<!-- temporary_absence_authorisation&#45;&gt;reference_data -->
<g id="edge10" class="edge">
<title>temporary_absence_authorisation:w&#45;&gt;reference_data:e</title>
<path fill="none" stroke="#000000" d="M481.7612,-153.5736C472.6029,-157.2243 463.255,-160.1414 454.0938,-162.325"/>
<polygon fill="#000000" stroke="#000000" points="487.6874,-150.9444 496.46,-150.9907 491.3437,-149.3222 495,-147.7 495,-147.7 495,-147.7 491.3437,-149.3222 493.54,-144.4093 487.6874,-150.9444 487.6874,-150.9444"/>
<ellipse fill="none" stroke="#000000" cx="484.7623" cy="-152.2421" rx="3.2" ry="3.2"/>
</g>
<!-- temporary_absence_movement -->
<g id="node6" class="node">
<title>temporary_absence_movement</title>
<g id="a_node6"><a xlink:href="../../tables/temporary_absence_movement.html" xlink:title="temporary_absence_movement" target="_top">
<polygon fill="#ffffff" stroke="transparent" points="504.5,-38.2 504.5,-99.2 753.5,-99.2 753.5,-38.2 504.5,-38.2"/>
<polygon fill="#f5f5f5" stroke="transparent" points="505,-75.7 505,-98.7 754,-98.7 754,-75.7 505,-75.7"/>
<polygon fill="none" stroke="#000000" points="505,-75.7 505,-98.7 754,-98.7 754,-75.7 505,-75.7"/>
<text text-anchor="start" x="510" y="-84.3" font-family="Helvetica,sans-Serif" font-weight="bold" font-size="11.00" fill="#000000">temporary_absence_movement</text>
<text text-anchor="start" x="719.5219" y="-83.8" font-family="Helvetica,sans-Serif" font-size="11.00" fill="#000000">[table]</text>
<polygon fill="none" stroke="#000000" points="505,-56.7 505,-75.7 754,-75.7 754,-56.7 505,-56.7"/>
<text text-anchor="start" x="508" y="-62.8" font-family="Helvetica,sans-Serif" font-size="11.00" fill="#000000">...</text>
<polygon fill="#ffffff" stroke="transparent" points="505,-37.7 505,-56.7 628,-56.7 628,-37.7 505,-37.7"/>
<polygon fill="none" stroke="#000000" points="505,-37.7 505,-56.7 628,-56.7 628,-37.7 505,-37.7"/>
<text text-anchor="start" x="508" y="-43.8" font-family="Helvetica,sans-Serif" font-size="11.00" fill="#000000">&lt; 2</text>
<polygon fill="#ffffff" stroke="transparent" points="628,-37.7 628,-56.7 691,-56.7 691,-37.7 628,-37.7"/>
<polygon fill="none" stroke="#000000" points="628,-37.7 628,-56.7 691,-56.7 691,-37.7 628,-37.7"/>
<text text-anchor="start" x="681.8862" y="-43.8" font-family="Helvetica,sans-Serif" font-size="11.00" fill="#000000"> &#160;</text>
<polygon fill="#ffffff" stroke="transparent" points="691,-37.7 691,-56.7 754,-56.7 754,-37.7 691,-37.7"/>
<polygon fill="none" stroke="#000000" points="691,-37.7 691,-56.7 754,-56.7 754,-37.7 691,-37.7"/>
<text text-anchor="start" x="744.8862" y="-43.8" font-family="Helvetica,sans-Serif" font-size="11.00" fill="#000000"> &#160;</text>
</a>
</g>
</g>
<!-- temporary_absence_movement&#45;&gt;reference_data -->
<g id="edge11" class="edge">
<title>temporary_absence_movement:w&#45;&gt;reference_data:e</title>
<path fill="none" stroke="#000000" d="M490.2045,-65.7334C456.0392,-68.8152 424.7235,-91.8709 403.5607,-112.7992"/>
<polygon fill="#000000" stroke="#000000" points="497,-65.7181 505.0082,-69.3 501,-65.7091 505,-65.7 505,-65.7 505,-65.7 501,-65.7091 504.9918,-62.1 497,-65.7181 497,-65.7181"/>
<ellipse fill="none" stroke="#000000" cx="493.8" cy="-65.7254" rx="3.2" ry="3.2"/>
</g>
<!-- temporary_absence_movement&#45;&gt;reference_data -->
<g id="edge12" class="edge">
<title>temporary_absence_movement:w&#45;&gt;reference_data:e</title>
<path fill="none" stroke="#000000" d="M490.5158,-68.3012C461.308,-75.7092 434.1646,-95.2545 413.6417,-113.149"/>
<polygon fill="#000000" stroke="#000000" points="497.126,-67.1141 505.6364,-69.2433 501.063,-66.4071 505,-65.7 505,-65.7 505,-65.7 501.063,-66.4071 504.3636,-62.1567 497.126,-67.1141 497.126,-67.1141"/>
<ellipse fill="none" stroke="#000000" cx="493.9764" cy="-67.6798" rx="3.2" ry="3.2"/>
</g>
<!-- temporary_absence_occurrence -->
<g id="node7" class="node">
<title>temporary_absence_occurrence</title>
<g id="a_node7"><a xlink:href="../../tables/temporary_absence_occurrence.html" xlink:title="temporary_absence_occurrence" target="_top">
<polygon fill="#ffffff" stroke="transparent" points="812,-184.2 812,-245.2 1064,-245.2 1064,-184.2 812,-184.2"/>
<polygon fill="#f5f5f5" stroke="transparent" points="812,-221.7 812,-244.7 1064,-244.7 1064,-221.7 812,-221.7"/>
<polygon fill="none" stroke="#000000" points="812,-221.7 812,-244.7 1064,-244.7 1064,-221.7 812,-221.7"/>
<text text-anchor="start" x="817" y="-230.3" font-family="Helvetica,sans-Serif" font-weight="bold" font-size="11.00" fill="#000000">temporary_absence_occurrence</text>
<text text-anchor="start" x="1029.5219" y="-229.8" font-family="Helvetica,sans-Serif" font-size="11.00" fill="#000000">[table]</text>
<polygon fill="none" stroke="#000000" points="812,-202.7 812,-221.7 1064,-221.7 1064,-202.7 812,-202.7"/>
<text text-anchor="start" x="815" y="-208.8" font-family="Helvetica,sans-Serif" font-size="11.00" fill="#000000">...</text>
<polygon fill="#ffffff" stroke="transparent" points="812,-183.7 812,-202.7 936,-202.7 936,-183.7 812,-183.7"/>
<polygon fill="none" stroke="#000000" points="812,-183.7 812,-202.7 936,-202.7 936,-183.7 812,-183.7"/>
<text text-anchor="start" x="815" y="-189.8" font-family="Helvetica,sans-Serif" font-size="11.00" fill="#000000">&lt; 3</text>
<polygon fill="#ffffff" stroke="transparent" points="936,-183.7 936,-202.7 1000,-202.7 1000,-183.7 936,-183.7"/>
<polygon fill="none" stroke="#000000" points="936,-183.7 936,-202.7 1000,-202.7 1000,-183.7 936,-183.7"/>
<text text-anchor="start" x="990.8862" y="-189.8" font-family="Helvetica,sans-Serif" font-size="11.00" fill="#000000"> &#160;</text>
<polygon fill="#ffffff" stroke="transparent" points="1000,-183.7 1000,-202.7 1064,-202.7 1064,-183.7 1000,-183.7"/>
<polygon fill="none" stroke="#000000" points="1000,-183.7 1000,-202.7 1064,-202.7 1064,-183.7 1000,-183.7"/>
<text text-anchor="start" x="1054.8862" y="-189.8" font-family="Helvetica,sans-Serif" font-size="11.00" fill="#000000"> &#160;</text>
</a>
</g>
</g>
<!-- temporary_absence_occurrence&#45;&gt;reference_data -->
<g id="edge13" class="edge">
<title>temporary_absence_occurrence:w&#45;&gt;reference_data:e</title>
<path fill="none" stroke="#000000" d="M797.5229,-211.1437C664.4945,-206.436 623.4199,-216.1243 487,-185.7 476.1756,-183.2859 465.0275,-179.9592 454.1639,-176.2615"/>
<polygon fill="#000000" stroke="#000000" points="804.0059,-211.3928 811.8617,-215.2973 808.0029,-211.5464 812,-211.7 812,-211.7 812,-211.7 808.0029,-211.5464 812.1383,-208.1027 804.0059,-211.3928 804.0059,-211.3928"/>
<ellipse fill="none" stroke="#000000" cx="800.8083" cy="-211.2699" rx="3.2" ry="3.2"/>
</g>
<!-- temporary_absence_occurrence&#45;&gt;reference_data -->
<g id="edge15" class="edge">
<title>temporary_absence_occurrence:w&#45;&gt;reference_data:e</title>
<path fill="none" stroke="#000000" d="M797.5229,-212.4317C664.4945,-219.436 623.4199,-229.1243 487,-198.7 470.0046,-194.9097 452.2116,-188.8695 435.9741,-182.2166"/>
<polygon fill="#000000" stroke="#000000" points="804.0102,-212.1038 812.1817,-215.2954 808.0051,-211.9019 812,-211.7 812,-211.7 812,-211.7 808.0051,-211.9019 811.8183,-208.1046 804.0102,-212.1038 804.0102,-212.1038"/>
<ellipse fill="none" stroke="#000000" cx="800.8143" cy="-212.2654" rx="3.2" ry="3.2"/>
</g>
<!-- temporary_absence_occurrence&#45;&gt;temporary_absence_authorisation -->
<g id="edge14" class="edge">
<title>temporary_absence_occurrence:w&#45;&gt;temporary_absence_authorisation:e</title>
<path fill="none" stroke="#000000" d="M798.1165,-206.678C782.2339,-191.5906 792.6667,-147.7 763,-147.7"/>
<polygon fill="#000000" stroke="#000000" points="804.477,-208.9787 810.7754,-215.0853 808.2385,-210.3394 812,-211.7 812,-211.7 812,-211.7 808.2385,-210.3394 813.2246,-208.3147 804.477,-208.9787 804.477,-208.9787"/>
<ellipse fill="none" stroke="#000000" cx="801.4678" cy="-207.8902" rx="3.2" ry="3.2"/>
</g>
</g>
</svg>
