<?xml version="1.0" encoding="UTF-8" standalone="no"?>
<!DOCTYPE svg PUBLIC "-//W3C//DTD SVG 1.1//EN"
 "http://www.w3.org/Graphics/SVG/1.1/DTD/svg11.dtd">
<!-- Generated by graphviz version 2.40.1 (20161225.0304)
 -->
<!-- Title: twoDegreesRelationshipsDiagram Pages: 1 -->
<svg width="1550pt" height="427pt"
 viewBox="0.00 0.00 1550.00 427.20" xmlns="http://www.w3.org/2000/svg" xmlns:xlink="http://www.w3.org/1999/xlink">
<g id="graph0" class="graph" transform="scale(1 1) rotate(0) translate(4 423.2)">
<title>twoDegreesRelationshipsDiagram</title>
<polygon fill="#ffffff" stroke="transparent" points="-4,4 -4,-423.2 1546,-423.2 1546,4 -4,4"/>
<text text-anchor="middle" x="72.4936" y="-7.3" font-family="Helvetica,sans-Serif" font-size="11.00" fill="#000000">Generated by SchemaSpy</text>
<!-- reference_data -->
<g id="node1" class="node">
<title>reference_data</title>
<g id="a_node1"><a xlink:href="../../tables/reference_data.html" xlink:title="reference_data" target="_top">
<polygon fill="#ffffff" stroke="transparent" points="392,-142.2 392,-203.2 532,-203.2 532,-142.2 392,-142.2"/>
<polygon fill="#f5f5f5" stroke="transparent" points="392,-179.7 392,-202.7 532,-202.7 532,-179.7 392,-179.7"/>
<polygon fill="none" stroke="#000000" points="392,-179.7 392,-202.7 532,-202.7 532,-179.7 392,-179.7"/>
<text text-anchor="start" x="397" y="-188.3" font-family="Helvetica,sans-Serif" font-weight="bold" font-size="11.00" fill="#000000">reference_data</text>
<text text-anchor="start" x="497.5219" y="-187.8" font-family="Helvetica,sans-Serif" font-size="11.00" fill="#000000">[table]</text>
<polygon fill="none" stroke="#000000" points="392,-160.7 392,-179.7 532,-179.7 532,-160.7 392,-160.7"/>
<text text-anchor="start" x="395" y="-166.8" font-family="Helvetica,sans-Serif" font-size="11.00" fill="#000000">...</text>
<polygon fill="#ffffff" stroke="transparent" points="392,-141.7 392,-160.7 434,-160.7 434,-141.7 392,-141.7"/>
<polygon fill="none" stroke="#000000" points="392,-141.7 392,-160.7 434,-160.7 434,-141.7 392,-141.7"/>
<text text-anchor="start" x="395" y="-147.8" font-family="Helvetica,sans-Serif" font-size="11.00" fill="#000000">&lt; 1</text>
<polygon fill="#ffffff" stroke="transparent" points="434,-141.7 434,-160.7 494,-160.7 494,-141.7 434,-141.7"/>
<polygon fill="none" stroke="#000000" points="434,-141.7 434,-160.7 494,-160.7 494,-141.7 434,-141.7"/>
<text text-anchor="start" x="446.3807" y="-147.8" font-family="Helvetica,sans-Serif" font-size="11.00" fill="#000000">163 rows</text>
<polygon fill="#ffffff" stroke="transparent" points="494,-141.7 494,-160.7 532,-160.7 532,-141.7 494,-141.7"/>
<polygon fill="none" stroke="#000000" points="494,-141.7 494,-160.7 532,-160.7 532,-141.7 494,-141.7"/>
<text text-anchor="start" x="507.2904" y="-147.8" font-family="Helvetica,sans-Serif" font-size="11.00" fill="#000000">18 &gt;</text>
</a>
</g>
</g>
<!-- reference_data_domain -->
<g id="node2" class="node">
<title>reference_data_domain</title>
<g id="a_node2"><a xlink:href="../../tables/reference_data_domain.html" xlink:title="reference_data_domain" target="_top">
<polygon fill="#ffffff" stroke="transparent" points="8,-118.7 8,-208.7 257,-208.7 257,-118.7 8,-118.7"/>
<polygon fill="#f5f5f5" stroke="transparent" points="10.5,-183.7 10.5,-206.7 255.5,-206.7 255.5,-183.7 10.5,-183.7"/>
<polygon fill="none" stroke="#000000" points="10.5,-183.7 10.5,-206.7 255.5,-206.7 255.5,-183.7 10.5,-183.7"/>
<text text-anchor="start" x="15.5" y="-192.3" font-family="Helvetica,sans-Serif" font-weight="bold" font-size="11.00" fill="#000000">reference_data_domain</text>
<text text-anchor="start" x="220.5437" y="-191.8" font-family="Helvetica,sans-Serif" font-size="11.00" fill="#000000">[table]</text>
<polygon fill="none" stroke="#000000" points="10.5,-161.7 10.5,-183.7 188.5,-183.7 188.5,-161.7 10.5,-161.7"/>
<image xlink:href="../../images/primaryKeys.png" width="11px" height="12px" preserveAspectRatio="xMinYMin meet" x="15.5" y="-178.7"/>
<text text-anchor="start" x="30.5" y="-168.8" font-family="Helvetica,sans-Serif" font-size="11.00" fill="#000000">code</text>
<polygon fill="none" stroke="#000000" points="188.5,-161.7 188.5,-183.7 255.5,-183.7 255.5,-161.7 188.5,-161.7"/>
<text text-anchor="start" x="191.5" y="-169.4" font-family="Helvetica,sans-Serif" font-size="11.00" fill="#000000">varchar[32]</text>
<polygon fill="none" stroke="#000000" points="10.5,-139.7 10.5,-161.7 188.5,-161.7 188.5,-139.7 10.5,-139.7"/>
<text text-anchor="start" x="30.5" y="-146.8" font-family="Helvetica,sans-Serif" font-size="11.00" fill="#000000">description</text>
<polygon fill="none" stroke="#000000" points="188.5,-139.7 188.5,-161.7 255.5,-161.7 255.5,-139.7 188.5,-139.7"/>
<text text-anchor="start" x="191.4365" y="-147.4" font-family="Helvetica,sans-Serif" font-size="11.00" fill="#000000">varchar[255]</text>
<polygon fill="#ffffff" stroke="transparent" points="10.5,-120.7 10.5,-139.7 103.5,-139.7 103.5,-120.7 10.5,-120.7"/>
<polygon fill="none" stroke="#000000" points="10.5,-120.7 10.5,-139.7 103.5,-139.7 103.5,-120.7 10.5,-120.7"/>
<text text-anchor="start" x="13.5" y="-126.8" font-family="Helvetica,sans-Serif" font-size="11.00" fill="#000000">&lt; 0</text>
<polygon fill="#ffffff" stroke="transparent" points="103.5,-120.7 103.5,-139.7 188.5,-139.7 188.5,-120.7 103.5,-120.7"/>
<polygon fill="none" stroke="#000000" points="103.5,-120.7 103.5,-139.7 188.5,-139.7 188.5,-120.7 103.5,-120.7"/>
<text text-anchor="start" x="179.3862" y="-126.8" font-family="Helvetica,sans-Serif" font-size="11.00" fill="#000000"> &#160;</text>
<polygon fill="#ffffff" stroke="transparent" points="188.5,-120.7 188.5,-139.7 255.5,-139.7 255.5,-120.7 188.5,-120.7"/>
<polygon fill="none" stroke="#000000" points="188.5,-120.7 188.5,-139.7 255.5,-139.7 255.5,-120.7 188.5,-120.7"/>
<text text-anchor="start" x="236.9053" y="-126.8" font-family="Helvetica,sans-Serif" font-size="11.00" fill="#000000">3 &gt;</text>
<polygon fill="none" stroke="#000000" stroke-width="2" points="9,-119.7 9,-207.7 256,-207.7 256,-119.7 9,-119.7"/>
</a>
</g>
</g>
<!-- reference_data&#45;&gt;reference_data_domain -->
<g id="edge1" class="edge">
<title>reference_data:w&#45;&gt;reference_data_domain:e</title>
<path fill="none" stroke="#000000" d="M368.7126,-172.7C333.264,-172.7 292.5158,-172.7 255.5,-172.7"/>
<polygon fill="#000000" stroke="#000000" points="375.554,-172.7001 383.554,-176.3 379.554,-172.7 383.554,-172.7 383.554,-172.7 383.554,-172.7 379.554,-172.7 383.554,-169.1 375.554,-172.7001 375.554,-172.7001"/>
<ellipse fill="none" stroke="#000000" cx="372.354" cy="-172.7001" rx="3.2" ry="3.2"/>
</g>
<!-- reference_data_domain_link -->
<g id="node3" class="node">
<title>reference_data_domain_link</title>
<g id="a_node3"><a xlink:href="../../tables/reference_data_domain_link.html" xlink:title="reference_data_domain_link" target="_top">
<polygon fill="#ffffff" stroke="transparent" points="687.5,-354.2 687.5,-415.2 914.5,-415.2 914.5,-354.2 687.5,-354.2"/>
<polygon fill="#f5f5f5" stroke="transparent" points="688,-391.7 688,-414.7 915,-414.7 915,-391.7 688,-391.7"/>
<polygon fill="none" stroke="#000000" points="688,-391.7 688,-414.7 915,-414.7 915,-391.7 688,-391.7"/>
<text text-anchor="start" x="693" y="-400.3" font-family="Helvetica,sans-Serif" font-weight="bold" font-size="11.00" fill="#000000">reference_data_domain_link</text>
<text text-anchor="start" x="880.5219" y="-399.8" font-family="Helvetica,sans-Serif" font-size="11.00" fill="#000000">[table]</text>
<polygon fill="none" stroke="#000000" points="688,-372.7 688,-391.7 915,-391.7 915,-372.7 688,-372.7"/>
<text text-anchor="start" x="691" y="-378.8" font-family="Helvetica,sans-Serif" font-size="11.00" fill="#000000">...</text>
<polygon fill="#ffffff" stroke="transparent" points="688,-353.7 688,-372.7 800,-372.7 800,-353.7 688,-353.7"/>
<polygon fill="none" stroke="#000000" points="688,-353.7 688,-372.7 800,-372.7 800,-353.7 688,-353.7"/>
<text text-anchor="start" x="691" y="-359.8" font-family="Helvetica,sans-Serif" font-size="11.00" fill="#000000">&lt; 2</text>
<polygon fill="#ffffff" stroke="transparent" points="800,-353.7 800,-372.7 857,-372.7 857,-353.7 800,-353.7"/>
<polygon fill="none" stroke="#000000" points="800,-353.7 800,-372.7 857,-372.7 857,-353.7 800,-353.7"/>
<text text-anchor="start" x="847.8862" y="-359.8" font-family="Helvetica,sans-Serif" font-size="11.00" fill="#000000"> &#160;</text>
<polygon fill="#ffffff" stroke="transparent" points="857,-353.7 857,-372.7 915,-372.7 915,-353.7 857,-353.7"/>
<polygon fill="none" stroke="#000000" points="857,-353.7 857,-372.7 915,-372.7 915,-353.7 857,-353.7"/>
<text text-anchor="start" x="905.8862" y="-359.8" font-family="Helvetica,sans-Serif" font-size="11.00" fill="#000000"> &#160;</text>
</a>
</g>
</g>
<!-- reference_data_domain_link&#45;&gt;reference_data -->
<g id="edge3" class="edge">
<title>reference_data_domain_link:w&#45;&gt;reference_data:e</title>
<path fill="none" stroke="#000000" d="M670.1519,-350.9521C666.3004,-348.6891 662.5706,-346.275 659,-343.7 638.0022,-328.5569 643.9249,-314.3794 626,-295.7 593.3491,-261.6749 550.5634,-229.921 516.8809,-207.2021"/>
<polygon fill="#000000" stroke="#000000" points="680.5549,-352.0684 676.7251,-359.0922 675.3204,-358.3262 679.1502,-351.3024 680.5549,-352.0684"/>
<polyline fill="none" stroke="#000000" points="679.3424,-355.9633 675.8305,-354.0484 "/>
<ellipse fill="none" stroke="#000000" cx="673.021" cy="-352.5165" rx="3.2" ry="3.2"/>
</g>
<!-- reference_data_domain_link&#45;&gt;reference_data_domain -->
<g id="edge2" class="edge">
<title>reference_data_domain_link:w&#45;&gt;reference_data_domain:e</title>
<path fill="none" stroke="#000000" d="M665.2308,-345.7031C663.1377,-345.0354 661.0596,-344.3674 659,-343.7 496.7742,-291.131 442.7951,-303.7838 298,-213.7 275.7151,-199.8355 281.7458,-172.7 255.5,-172.7"/>
<polygon fill="#000000" stroke="#000000" points="671.5946,-347.7017 678.1482,-353.5335 675.4108,-348.9003 679.227,-350.0989 679.227,-350.0989 679.227,-350.0989 675.4108,-348.9003 680.3057,-346.6643 671.5946,-347.7017 671.5946,-347.7017"/>
<ellipse fill="none" stroke="#000000" cx="668.5416" cy="-346.7429" rx="3.2" ry="3.2"/>
</g>
<!-- reference_data_link -->
<g id="node4" class="node">
<title>reference_data_link</title>
<g id="a_node4"><a xlink:href="../../tables/reference_data_link.html" xlink:title="reference_data_link" target="_top">
<polygon fill="#ffffff" stroke="transparent" points="715.5,-272.2 715.5,-333.2 886.5,-333.2 886.5,-272.2 715.5,-272.2"/>
<polygon fill="#f5f5f5" stroke="transparent" points="716,-309.7 716,-332.7 887,-332.7 887,-309.7 716,-309.7"/>
<polygon fill="none" stroke="#000000" points="716,-309.7 716,-332.7 887,-332.7 887,-309.7 716,-309.7"/>
<text text-anchor="start" x="721" y="-318.3" font-family="Helvetica,sans-Serif" font-weight="bold" font-size="11.00" fill="#000000">reference_data_link</text>
<text text-anchor="start" x="852.5219" y="-317.8" font-family="Helvetica,sans-Serif" font-size="11.00" fill="#000000">[table]</text>
<polygon fill="none" stroke="#000000" points="716,-290.7 716,-309.7 887,-309.7 887,-290.7 716,-290.7"/>
<text text-anchor="start" x="719" y="-296.8" font-family="Helvetica,sans-Serif" font-size="11.00" fill="#000000">...</text>
<polygon fill="#ffffff" stroke="transparent" points="716,-271.7 716,-290.7 784,-290.7 784,-271.7 716,-271.7"/>
<polygon fill="none" stroke="#000000" points="716,-271.7 716,-290.7 784,-290.7 784,-271.7 716,-271.7"/>
<text text-anchor="start" x="719" y="-277.8" font-family="Helvetica,sans-Serif" font-size="11.00" fill="#000000">&lt; 2</text>
<polygon fill="#ffffff" stroke="transparent" points="784,-271.7 784,-290.7 851,-290.7 851,-271.7 784,-271.7"/>
<polygon fill="none" stroke="#000000" points="784,-271.7 784,-290.7 851,-290.7 851,-271.7 784,-271.7"/>
<text text-anchor="start" x="809.4956" y="-277.8" font-family="Helvetica,sans-Serif" font-size="11.00" fill="#000000">69 rows</text>
<polygon fill="#ffffff" stroke="transparent" points="851,-271.7 851,-290.7 887,-290.7 887,-271.7 851,-271.7"/>
<polygon fill="none" stroke="#000000" points="851,-271.7 851,-290.7 887,-290.7 887,-271.7 851,-271.7"/>
<text text-anchor="start" x="877.8862" y="-277.8" font-family="Helvetica,sans-Serif" font-size="11.00" fill="#000000"> &#160;</text>
</a>
</g>
</g>
<!-- reference_data_link&#45;&gt;reference_data -->
<g id="edge4" class="edge">
<title>reference_data_link:w&#45;&gt;reference_data:e</title>
<path fill="none" stroke="#000000" d="M701.4928,-298.4917C626.5003,-289.6341 552.7037,-241.4513 507.2829,-207.3118"/>
<polygon fill="#000000" stroke="#000000" points="708.0276,-299.0359 715.7012,-303.2876 712.0138,-299.368 716,-299.7 716,-299.7 716,-299.7 712.0138,-299.368 716.2988,-296.1124 708.0276,-299.0359 708.0276,-299.0359"/>
<ellipse fill="none" stroke="#000000" cx="704.8386" cy="-298.7703" rx="3.2" ry="3.2"/>
</g>
<!-- reference_data_link&#45;&gt;reference_data -->
<g id="edge5" class="edge">
<title>reference_data_link:w&#45;&gt;reference_data:e</title>
<path fill="none" stroke="#000000" d="M701.5924,-299.931C620.1598,-298.1041 540.1231,-244.4638 496.2816,-207.3394"/>
<polygon fill="#000000" stroke="#000000" points="708.001,-299.8283 716.0577,-303.2995 712.0005,-299.7642 716,-299.7 716,-299.7 716,-299.7 712.0005,-299.7642 715.9423,-296.1005 708.001,-299.8283 708.001,-299.8283"/>
<ellipse fill="none" stroke="#000000" cx="704.8014" cy="-299.8796" rx="3.2" ry="3.2"/>
</g>
<!-- temporary_absence_authorisation -->
<g id="node5" class="node">
<title>temporary_absence_authorisation</title>
<g id="a_node5"><a xlink:href="../../tables/temporary_absence_authorisation.html" xlink:title="temporary_absence_authorisation" target="_top">
<polygon fill="#ffffff" stroke="transparent" points="667,-51.2 667,-112.2 935,-112.2 935,-51.2 667,-51.2"/>
<polygon fill="#f5f5f5" stroke="transparent" points="667,-88.7 667,-111.7 935,-111.7 935,-88.7 667,-88.7"/>
<polygon fill="none" stroke="#000000" points="667,-88.7 667,-111.7 935,-111.7 935,-88.7 667,-88.7"/>
<text text-anchor="start" x="672" y="-97.3" font-family="Helvetica,sans-Serif" font-weight="bold" font-size="11.00" fill="#000000">temporary_absence_authorisation</text>
<text text-anchor="start" x="900.5219" y="-96.8" font-family="Helvetica,sans-Serif" font-size="11.00" fill="#000000">[table]</text>
<polygon fill="none" stroke="#000000" points="667,-69.7 667,-88.7 935,-88.7 935,-69.7 667,-69.7"/>
<text text-anchor="start" x="670" y="-75.8" font-family="Helvetica,sans-Serif" font-size="11.00" fill="#000000">...</text>
<polygon fill="#ffffff" stroke="transparent" points="667,-50.7 667,-69.7 795,-69.7 795,-50.7 667,-50.7"/>
<polygon fill="none" stroke="#000000" points="667,-50.7 667,-69.7 795,-69.7 795,-50.7 667,-50.7"/>
<text text-anchor="start" x="670" y="-56.8" font-family="Helvetica,sans-Serif" font-size="11.00" fill="#000000">&lt; 7</text>
<polygon fill="#ffffff" stroke="transparent" points="795,-50.7 795,-69.7 860,-69.7 860,-50.7 795,-50.7"/>
<polygon fill="none" stroke="#000000" points="795,-50.7 795,-69.7 860,-69.7 860,-50.7 795,-50.7"/>
<text text-anchor="start" x="850.8862" y="-56.8" font-family="Helvetica,sans-Serif" font-size="11.00" fill="#000000"> &#160;</text>
<polygon fill="#ffffff" stroke="transparent" points="860,-50.7 860,-69.7 935,-69.7 935,-50.7 860,-50.7"/>
<polygon fill="none" stroke="#000000" points="860,-50.7 860,-69.7 935,-69.7 935,-50.7 860,-50.7"/>
<text text-anchor="start" x="916.4053" y="-56.8" font-family="Helvetica,sans-Serif" font-size="11.00" fill="#000000">1 &gt;</text>
</a>
</g>
</g>
<!-- temporary_absence_authorisation&#45;&gt;reference_data -->
<g id="edge6" class="edge">
<title>temporary_absence_authorisation:w&#45;&gt;reference_data:e</title>
<path fill="none" stroke="#000000" d="M656.3445,-68.7004C640.4386,-57.1489 647.2315,-85.83 626,-99.7 596.27,-119.1219 558.0059,-129.3436 525.9169,-138.1022"/>
<polygon fill="#000000" stroke="#000000" points="661.1664,-73.2255 664.5365,-81.3251 664.0832,-75.9628 667,-78.7 667,-78.7 667,-78.7 664.0832,-75.9628 669.4635,-76.0749 661.1664,-73.2255 661.1664,-73.2255"/>
<ellipse fill="none" stroke="#000000" cx="658.833" cy="-71.0357" rx="3.2" ry="3.2"/>
</g>
<!-- temporary_absence_authorisation&#45;&gt;reference_data -->
<g id="edge7" class="edge">
<title>temporary_absence_authorisation:w&#45;&gt;reference_data:e</title>
<path fill="none" stroke="#000000" d="M653.5475,-73.3798C641.1955,-73.7716 645.868,-99.7207 626,-112.7 600.5698,-129.3129 568.8956,-139.1944 540.1828,-146.3276"/>
<polygon fill="#000000" stroke="#000000" points="659.5606,-75.7579 665.676,-82.0477 663.2803,-77.2289 667,-78.7 667,-78.7 667,-78.7 663.2803,-77.2289 668.324,-75.3523 659.5606,-75.7579 659.5606,-75.7579"/>
<ellipse fill="none" stroke="#000000" cx="656.5849" cy="-74.581" rx="3.2" ry="3.2"/>
</g>
<!-- temporary_absence_authorisation&#45;&gt;reference_data -->
<g id="edge8" class="edge">
<title>temporary_absence_authorisation:w&#45;&gt;reference_data:e</title>
<path fill="none" stroke="#000000" d="M652.5007,-80.465C641.4491,-88.2868 645.2836,-113.1025 626,-125.7 600.5698,-142.3129 568.8956,-152.1944 540.1828,-158.4685"/>
<polygon fill="#000000" stroke="#000000" points="659.0586,-79.6667 667.435,-82.2736 663.0293,-79.1834 667,-78.7 667,-78.7 667,-78.7 663.0293,-79.1834 666.565,-75.1264 659.0586,-79.6667 659.0586,-79.6667"/>
<ellipse fill="none" stroke="#000000" cx="655.8821" cy="-80.0534" rx="3.2" ry="3.2"/>
</g>
<!-- temporary_absence_authorisation&#45;&gt;reference_data -->
<g id="edge9" class="edge">
<title>temporary_absence_authorisation:w&#45;&gt;reference_data:e</title>
<path fill="none" stroke="#000000" d="M653.9157,-85.8283C641.1015,-99.2616 646.0628,-125.5935 626,-138.7 600.5698,-155.3129 568.8956,-165.1944 540.1828,-170.6094"/>
<polygon fill="#000000" stroke="#000000" points="659.9749,-82.5273 668.7223,-81.8613 663.4874,-80.6136 667,-78.7 667,-78.7 667,-78.7 663.4874,-80.6136 665.2777,-75.5387 659.9749,-82.5273 659.9749,-82.5273"/>
<ellipse fill="none" stroke="#000000" cx="657.1649" cy="-84.0582" rx="3.2" ry="3.2"/>
</g>
<!-- temporary_absence_authorisation&#45;&gt;reference_data -->
<g id="edge10" class="edge">
<title>temporary_absence_authorisation:w&#45;&gt;reference_data:e</title>
<path fill="none" stroke="#000000" d="M656.3445,-88.5895C640.4386,-109.1489 647.2315,-137.83 626,-151.7 600.5698,-168.3129 568.8956,-178.1944 540.1828,-182.7503"/>
<polygon fill="#000000" stroke="#000000" points="661.1363,-84.1422 669.449,-81.3387 664.0681,-81.4211 667,-78.7 667,-78.7 667,-78.7 664.0681,-81.4211 664.551,-76.0613 661.1363,-84.1422 661.1363,-84.1422"/>
<ellipse fill="none" stroke="#000000" cx="658.7908" cy="-86.319" rx="3.2" ry="3.2"/>
</g>
<!-- temporary_absence_authorisation&#45;&gt;reference_data -->
<g id="edge11" class="edge">
<title>temporary_absence_authorisation:w&#45;&gt;reference_data:e</title>
<path fill="none" stroke="#000000" d="M658.1898,-90.4157C639.9023,-120.024 648.0106,-150.321 626,-164.7 600.5698,-181.3129 568.8956,-191.1944 540.1828,-194.8912"/>
<polygon fill="#000000" stroke="#000000" points="662.1918,-85.0939 669.8772,-80.8637 664.5959,-81.8969 667,-78.7 667,-78.7 667,-78.7 664.5959,-81.8969 664.1228,-76.5363 662.1918,-85.0939 662.1918,-85.0939"/>
<ellipse fill="none" stroke="#000000" cx="660.2685" cy="-87.6514" rx="3.2" ry="3.2"/>
</g>
<!-- temporary_absence_movement -->
<g id="node6" class="node">
<title>temporary_absence_movement</title>
<g id="a_node6"><a xlink:href="../../tables/temporary_absence_movement.html" xlink:title="temporary_absence_movement" target="_top">
<polygon fill="#ffffff" stroke="transparent" points="1285,-214.2 1285,-275.2 1534,-275.2 1534,-214.2 1285,-214.2"/>
<polygon fill="#f5f5f5" stroke="transparent" points="1285.5,-251.7 1285.5,-274.7 1534.5,-274.7 1534.5,-251.7 1285.5,-251.7"/>
<polygon fill="none" stroke="#000000" points="1285.5,-251.7 1285.5,-274.7 1534.5,-274.7 1534.5,-251.7 1285.5,-251.7"/>
<text text-anchor="start" x="1290.5" y="-260.3" font-family="Helvetica,sans-Serif" font-weight="bold" font-size="11.00" fill="#000000">temporary_absence_movement</text>
<text text-anchor="start" x="1500.0219" y="-259.8" font-family="Helvetica,sans-Serif" font-size="11.00" fill="#000000">[table]</text>
<polygon fill="none" stroke="#000000" points="1285.5,-232.7 1285.5,-251.7 1534.5,-251.7 1534.5,-232.7 1285.5,-232.7"/>
<text text-anchor="start" x="1288.5" y="-238.8" font-family="Helvetica,sans-Serif" font-size="11.00" fill="#000000">...</text>
<polygon fill="#ffffff" stroke="transparent" points="1285.5,-213.7 1285.5,-232.7 1408.5,-232.7 1408.5,-213.7 1285.5,-213.7"/>
<polygon fill="none" stroke="#000000" points="1285.5,-213.7 1285.5,-232.7 1408.5,-232.7 1408.5,-213.7 1285.5,-213.7"/>
<text text-anchor="start" x="1288.5" y="-219.8" font-family="Helvetica,sans-Serif" font-size="11.00" fill="#000000">&lt; 4</text>
<polygon fill="#ffffff" stroke="transparent" points="1408.5,-213.7 1408.5,-232.7 1471.5,-232.7 1471.5,-213.7 1408.5,-213.7"/>
<polygon fill="none" stroke="#000000" points="1408.5,-213.7 1408.5,-232.7 1471.5,-232.7 1471.5,-213.7 1408.5,-213.7"/>
<text text-anchor="start" x="1462.3862" y="-219.8" font-family="Helvetica,sans-Serif" font-size="11.00" fill="#000000"> &#160;</text>
<polygon fill="#ffffff" stroke="transparent" points="1471.5,-213.7 1471.5,-232.7 1534.5,-232.7 1534.5,-213.7 1471.5,-213.7"/>
<polygon fill="none" stroke="#000000" points="1471.5,-213.7 1471.5,-232.7 1534.5,-232.7 1534.5,-213.7 1471.5,-213.7"/>
<text text-anchor="start" x="1525.3862" y="-219.8" font-family="Helvetica,sans-Serif" font-size="11.00" fill="#000000"> &#160;</text>
</a>
</g>
</g>
<!-- temporary_absence_movement&#45;&gt;reference_data -->
<g id="edge12" class="edge">
<title>temporary_absence_movement:w&#45;&gt;reference_data:e</title>
<path fill="none" stroke="#000000" d="M1270.9961,-241.4017C1004.2842,-236.1751 930.3151,-249.0113 659,-212.7 652.7993,-211.8701 592.4615,-197.7111 540.1777,-186.354"/>
<polygon fill="#000000" stroke="#000000" points="1277.5017,-241.5355 1285.426,-245.2992 1281.5008,-241.6177 1285.5,-241.7 1285.5,-241.7 1285.5,-241.7 1281.5008,-241.6177 1285.574,-238.1008 1277.5017,-241.5355 1277.5017,-241.5355"/>
<ellipse fill="none" stroke="#000000" cx="1274.3024" cy="-241.4696" rx="3.2" ry="3.2"/>
</g>
<!-- temporary_absence_movement&#45;&gt;reference_data -->
<g id="edge13" class="edge">
<title>temporary_absence_movement:w&#45;&gt;reference_data:e</title>
<path fill="none" stroke="#000000" d="M1270.9961,-242.0753C1004.2842,-249.1751 930.3151,-262.0113 659,-225.7 652.7993,-224.8701 592.4615,-210.7111 540.1777,-197.1118"/>
<polygon fill="#000000" stroke="#000000" points="1277.5027,-241.907 1285.5931,-245.2988 1281.5013,-241.8035 1285.5,-241.7 1285.5,-241.7 1285.5,-241.7 1281.5013,-241.8035 1285.4069,-238.1012 1277.5027,-241.907 1277.5027,-241.907"/>
<ellipse fill="none" stroke="#000000" cx="1274.3037" cy="-241.9898" rx="3.2" ry="3.2"/>
</g>
<!-- temporary_absence_occurrence -->
<g id="node7" class="node">
<title>temporary_absence_occurrence</title>
<g id="a_node7"><a xlink:href="../../tables/temporary_absence_occurrence.html" xlink:title="temporary_absence_occurrence" target="_top">
<polygon fill="#ffffff" stroke="transparent" points="984,-145.2 984,-206.2 1236,-206.2 1236,-145.2 984,-145.2"/>
<polygon fill="#f5f5f5" stroke="transparent" points="984,-182.7 984,-205.7 1236,-205.7 1236,-182.7 984,-182.7"/>
<polygon fill="none" stroke="#000000" points="984,-182.7 984,-205.7 1236,-205.7 1236,-182.7 984,-182.7"/>
<text text-anchor="start" x="989" y="-191.3" font-family="Helvetica,sans-Serif" font-weight="bold" font-size="11.00" fill="#000000">temporary_absence_occurrence</text>
<text text-anchor="start" x="1201.5219" y="-190.8" font-family="Helvetica,sans-Serif" font-size="11.00" fill="#000000">[table]</text>
<polygon fill="none" stroke="#000000" points="984,-163.7 984,-182.7 1236,-182.7 1236,-163.7 984,-163.7"/>
<text text-anchor="start" x="987" y="-169.8" font-family="Helvetica,sans-Serif" font-size="11.00" fill="#000000">...</text>
<polygon fill="#ffffff" stroke="transparent" points="984,-144.7 984,-163.7 1104,-163.7 1104,-144.7 984,-144.7"/>
<polygon fill="none" stroke="#000000" points="984,-144.7 984,-163.7 1104,-163.7 1104,-144.7 984,-144.7"/>
<text text-anchor="start" x="987" y="-150.8" font-family="Helvetica,sans-Serif" font-size="11.00" fill="#000000">&lt; 8</text>
<polygon fill="#ffffff" stroke="transparent" points="1104,-144.7 1104,-163.7 1165,-163.7 1165,-144.7 1104,-144.7"/>
<polygon fill="none" stroke="#000000" points="1104,-144.7 1104,-163.7 1165,-163.7 1165,-144.7 1104,-144.7"/>
<text text-anchor="start" x="1155.8862" y="-150.8" font-family="Helvetica,sans-Serif" font-size="11.00" fill="#000000"> &#160;</text>
<polygon fill="#ffffff" stroke="transparent" points="1165,-144.7 1165,-163.7 1236,-163.7 1236,-144.7 1165,-144.7"/>
<polygon fill="none" stroke="#000000" points="1165,-144.7 1165,-163.7 1236,-163.7 1236,-144.7 1165,-144.7"/>
<text text-anchor="start" x="1217.4053" y="-150.8" font-family="Helvetica,sans-Serif" font-size="11.00" fill="#000000">1 &gt;</text>
</a>
</g>
</g>
<!-- temporary_absence_movement&#45;&gt;temporary_absence_occurrence -->
<g id="edge14" class="edge">
<title>temporary_absence_movement:w&#45;&gt;temporary_absence_occurrence:e</title>
<path fill="none" stroke="#000000" d="M1271.5069,-236.7377C1254.5688,-220.9166 1267.5498,-172.7 1236,-172.7"/>
<polygon fill="#000000" stroke="#000000" points="1277.9601,-239.0261 1284.2967,-245.093 1281.73,-240.3631 1285.5,-241.7 1285.5,-241.7 1285.5,-241.7 1281.73,-240.3631 1286.7033,-238.307 1277.9601,-239.0261 1277.9601,-239.0261"/>
<ellipse fill="none" stroke="#000000" cx="1274.9441" cy="-237.9566" rx="3.2" ry="3.2"/>
</g>
<!-- temporary_absence_occurrence&#45;&gt;reference_data -->
<g id="edge15" class="edge">
<title>temporary_absence_occurrence:w&#45;&gt;reference_data:e</title>
<path fill="none" stroke="#000000" d="M969.6289,-170.3454C815.4629,-145.7318 639.2697,-138.0123 540.2656,-147.1867"/>
<polygon fill="#000000" stroke="#000000" points="976.1053,-171.4065 983.4179,-176.2526 980.0526,-172.0532 984,-172.7 984,-172.7 984,-172.7 980.0526,-172.0532 984.5821,-169.1474 976.1053,-171.4065 976.1053,-171.4065"/>
<ellipse fill="none" stroke="#000000" cx="972.9474" cy="-170.889" rx="3.2" ry="3.2"/>
</g>
<!-- temporary_absence_occurrence&#45;&gt;reference_data -->
<g id="edge16" class="edge">
<title>temporary_absence_occurrence:w&#45;&gt;reference_data:e</title>
<path fill="none" stroke="#000000" d="M969.6289,-171.1303C815.4629,-154.7212 639.2697,-149.5748 540.2656,-155.6911"/>
<polygon fill="#000000" stroke="#000000" points="976.0473,-171.8313 983.6091,-176.2787 980.0237,-172.2656 984,-172.7 984,-172.7 984,-172.7 980.0237,-172.2656 984.3909,-169.1213 976.0473,-171.8313 976.0473,-171.8313"/>
<ellipse fill="none" stroke="#000000" cx="972.8662" cy="-171.4838" rx="3.2" ry="3.2"/>
</g>
<!-- temporary_absence_occurrence&#45;&gt;reference_data -->
<g id="edge17" class="edge">
<title>temporary_absence_occurrence:w&#45;&gt;reference_data:e</title>
<path fill="none" stroke="#000000" d="M969.1631,-171.8904C815.1081,-163.7054 639.17,-161.1405 540.2656,-164.1956"/>
<polygon fill="#000000" stroke="#000000" points="976.0119,-172.264 983.8038,-176.2947 980.0059,-172.482 984,-172.7 984,-172.7 984,-172.7 980.0059,-172.482 984.1962,-169.1053 976.0119,-172.264 976.0119,-172.264"/>
<ellipse fill="none" stroke="#000000" cx="972.8166" cy="-172.0897" rx="3.2" ry="3.2"/>
</g>
<!-- temporary_absence_occurrence&#45;&gt;reference_data -->
<g id="edge18" class="edge">
<title>temporary_absence_occurrence:w&#45;&gt;reference_data:e</title>
<path fill="none" stroke="#000000" d="M969.1631,-172.7C815.1081,-172.7 639.17,-172.7 540.2656,-172.7"/>
<polygon fill="#000000" stroke="#000000" points="976,-172.7001 984,-176.3 980,-172.7 984,-172.7 984,-172.7 984,-172.7 980,-172.7 984,-169.1 976,-172.7001 976,-172.7001"/>
<ellipse fill="none" stroke="#000000" cx="972.8" cy="-172.7001" rx="3.2" ry="3.2"/>
</g>
<!-- temporary_absence_occurrence&#45;&gt;reference_data -->
<g id="edge19" class="edge">
<title>temporary_absence_occurrence:w&#45;&gt;reference_data:e</title>
<path fill="none" stroke="#000000" d="M969.1631,-173.5096C815.1081,-181.6946 639.17,-184.2595 540.2656,-181.2044"/>
<polygon fill="#000000" stroke="#000000" points="976.0119,-173.136 984.1962,-176.2947 980.0059,-172.918 984,-172.7 984,-172.7 984,-172.7 980.0059,-172.918 983.8038,-169.1053 976.0119,-173.136 976.0119,-173.136"/>
<ellipse fill="none" stroke="#000000" cx="972.8166" cy="-173.3103" rx="3.2" ry="3.2"/>
</g>
<!-- temporary_absence_occurrence&#45;&gt;reference_data -->
<g id="edge21" class="edge">
<title>temporary_absence_occurrence:w&#45;&gt;reference_data:e</title>
<path fill="none" stroke="#000000" d="M969.6289,-174.2697C815.4629,-190.6788 639.2697,-195.8252 540.2656,-189.7089"/>
<polygon fill="#000000" stroke="#000000" points="976.0473,-173.5687 984.3909,-176.2787 980.0237,-173.1344 984,-172.7 984,-172.7 984,-172.7 980.0237,-173.1344 983.6091,-169.1213 976.0473,-173.5687 976.0473,-173.5687"/>
<ellipse fill="none" stroke="#000000" cx="972.8662" cy="-173.9162" rx="3.2" ry="3.2"/>
</g>
<!-- temporary_absence_occurrence&#45;&gt;reference_data -->
<g id="edge22" class="edge">
<title>temporary_absence_occurrence:w&#45;&gt;reference_data:e</title>
<path fill="none" stroke="#000000" d="M969.6289,-175.0546C815.4629,-199.6682 639.2697,-207.3877 540.2656,-198.2133"/>
<polygon fill="#000000" stroke="#000000" points="976.1053,-173.9935 984.5821,-176.2526 980.0526,-173.3468 984,-172.7 984,-172.7 984,-172.7 980.0526,-173.3468 983.4179,-169.1474 976.1053,-173.9935 976.1053,-173.9935"/>
<ellipse fill="none" stroke="#000000" cx="972.9474" cy="-174.511" rx="3.2" ry="3.2"/>
</g>
<!-- temporary_absence_occurrence&#45;&gt;temporary_absence_authorisation -->
<g id="edge20" class="edge">
<title>temporary_absence_occurrence:w&#45;&gt;temporary_absence_authorisation:e</title>
<path fill="none" stroke="#000000" d="M969.988,-168.4168C947.0123,-150.0276 976.04,-78.7 935,-78.7"/>
<polygon fill="#000000" stroke="#000000" points="976.3495,-170.3613 982.9476,-176.1427 980.1747,-171.5307 984,-172.7 984,-172.7 984,-172.7 980.1747,-171.5307 985.0524,-169.2573 976.3495,-170.3613 976.3495,-170.3613"/>
<ellipse fill="none" stroke="#000000" cx="973.2892" cy="-169.4258" rx="3.2" ry="3.2"/>
</g>
<!-- tap.absence_categorisation_domain_link -->
<g id="node8" class="node">
<title>tap.absence_categorisation_domain_link</title>
<g id="a_node8"><a xlink:title="tap.absence_categorisation_domain_link">
<polygon fill="#ffffff" stroke="transparent" points="306,-38.2 306,-121.2 618,-121.2 618,-38.2 306,-38.2"/>
<polygon fill="#f5f5f5" stroke="transparent" points="306,-97.7 306,-120.7 618,-120.7 618,-97.7 306,-97.7"/>
<polygon fill="none" stroke="#000000" points="306,-97.7 306,-120.7 618,-120.7 618,-97.7 306,-97.7"/>
<text text-anchor="start" x="311" y="-106.3" font-family="Helvetica,sans-Serif" font-weight="bold" font-size="11.00" fill="#000000">tap.absence_categorisation_domain_link</text>
<text text-anchor="start" x="583.5219" y="-105.8" font-family="Helvetica,sans-Serif" font-size="11.00" fill="#000000">[table]</text>
<polygon fill="none" stroke="#000000" points="306,-75.7 306,-97.7 618,-97.7 618,-75.7 306,-75.7"/>
<image xlink:href="../../images/foreignKeys.png" width="11px" height="12px" preserveAspectRatio="xMinYMin meet" x="311" y="-92.7"/>
<text text-anchor="start" x="349" y="-82.8" font-family="Helvetica,sans-Serif" font-size="11.00" fill="#000000">domain</text>
<polygon fill="none" stroke="#000000" points="306,-56.7 306,-75.7 618,-75.7 618,-56.7 306,-56.7"/>
<text text-anchor="start" x="309" y="-62.8" font-family="Helvetica,sans-Serif" font-size="11.00" fill="#000000">...</text>
<polygon fill="#ffffff" stroke="transparent" points="306,-37.7 306,-56.7 447,-56.7 447,-37.7 306,-37.7"/>
<polygon fill="none" stroke="#000000" points="306,-37.7 306,-56.7 447,-56.7 447,-37.7 306,-37.7"/>
<text text-anchor="start" x="309" y="-43.8" font-family="Helvetica,sans-Serif" font-size="11.00" fill="#000000">&lt; 1</text>
<polygon fill="#ffffff" stroke="transparent" points="447,-37.7 447,-56.7 545,-56.7 545,-37.7 447,-37.7"/>
<polygon fill="none" stroke="#000000" points="447,-37.7 447,-56.7 545,-56.7 545,-37.7 447,-37.7"/>
<text text-anchor="start" x="509.6105" y="-43.8" font-family="Helvetica,sans-Serif" font-size="11.00" fill="#000000">0 rows</text>
<polygon fill="#ffffff" stroke="transparent" points="545,-37.7 545,-56.7 618,-56.7 618,-37.7 545,-37.7"/>
<polygon fill="none" stroke="#000000" points="545,-37.7 545,-56.7 618,-56.7 618,-37.7 545,-37.7"/>
<text text-anchor="start" x="608.8862" y="-43.8" font-family="Helvetica,sans-Serif" font-size="11.00" fill="#000000"> &#160;</text>
</a>
</g>
</g>
<!-- tap.absence_categorisation_domain_link&#45;&gt;reference_data_domain -->
<g id="edge23" class="edge">
<title>tap.absence_categorisation_domain_link:w&#45;&gt;reference_data_domain:e</title>
<path fill="none" stroke="#000000" d="M292.0232,-91.083C270.5651,-108.6081 293.7648,-172.7 255.5,-172.7"/>
<polygon fill="#000000" stroke="#000000" points="298.3665,-89.0938 307.0772,-90.1351 302.1833,-87.8969 306,-86.7 306,-86.7 306,-86.7 302.1833,-87.8969 304.9228,-83.2649 298.3665,-89.0938 298.3665,-89.0938"/>
<ellipse fill="none" stroke="#000000" cx="295.3131" cy="-90.0513" rx="3.2" ry="3.2"/>
</g>
</g>
</svg>
