<?xml version="1.0" encoding="UTF-8" standalone="no"?>
<!DOCTYPE svg PUBLIC "-//W3C//DTD SVG 1.1//EN"
 "http://www.w3.org/Graphics/SVG/1.1/DTD/svg11.dtd">
<!-- Generated by graphviz version 2.40.1 (20161225.0304)
 -->
<!-- Title: oneDegreeRelationshipsDiagram Pages: 1 -->
<svg width="440pt" height="234pt"
 viewBox="0.00 0.00 440.00 233.70" xmlns="http://www.w3.org/2000/svg" xmlns:xlink="http://www.w3.org/1999/xlink">
<g id="graph0" class="graph" transform="scale(1 1) rotate(0) translate(4 229.7)">
<title>oneDegreeRelationshipsDiagram</title>
<polygon fill="#ffffff" stroke="transparent" points="-4,4 -4,-229.7 436,-229.7 436,4 -4,4"/>
<text text-anchor="middle" x="72.4936" y="-7.3" font-family="Helvetica,sans-Serif" font-size="11.00" fill="#000000">Generated by SchemaSpy</text>
<!-- reference_data_link -->
<g id="node1" class="node">
<title>reference_data_link</title>
<g id="a_node1"><a xlink:href="../../tables/reference_data_link.html" xlink:title="reference_data_link" target="_top">
<polygon fill="#ffffff" stroke="transparent" points="200,-87.7 200,-221.7 424,-221.7 424,-87.7 200,-87.7"/>
<polygon fill="#f5f5f5" stroke="transparent" points="202,-196.7 202,-219.7 422,-219.7 422,-196.7 202,-196.7"/>
<polygon fill="none" stroke="#000000" points="202,-196.7 202,-219.7 422,-219.7 422,-196.7 202,-196.7"/>
<text text-anchor="start" x="207" y="-205.3" font-family="Helvetica,sans-Serif" font-weight="bold" font-size="11.00" fill="#000000">reference_data_link</text>
<text text-anchor="start" x="387.0437" y="-204.8" font-family="Helvetica,sans-Serif" font-size="11.00" fill="#000000">[table]</text>
<polygon fill="none" stroke="#000000" points="202,-174.7 202,-196.7 357,-196.7 357,-174.7 202,-174.7"/>
<image xlink:href="../../images/primaryKeys.png" width="11px" height="12px" preserveAspectRatio="xMinYMin meet" x="207" y="-191.7"/>
<text text-anchor="start" x="222" y="-181.8" font-family="Helvetica,sans-Serif" font-size="11.00" fill="#000000">id</text>
<polygon fill="none" stroke="#000000" points="357,-174.7 357,-196.7 422,-196.7 422,-174.7 357,-174.7"/>
<text text-anchor="start" x="359.8561" y="-182.4" font-family="Helvetica,sans-Serif" font-size="11.00" fill="#000000">bigserial[19]</text>
<polygon fill="#ffffff" stroke="transparent" points="202,-152.7 202,-174.7 357,-174.7 357,-152.7 202,-152.7"/>
<polygon fill="none" stroke="#000000" points="202,-152.7 202,-174.7 357,-174.7 357,-152.7 202,-152.7"/>
<image xlink:href="../../images/foreignKeys.png" width="11px" height="12px" preserveAspectRatio="xMinYMin meet" x="207" y="-169.7"/>
<text text-anchor="start" x="222" y="-159.8" font-family="Helvetica,sans-Serif" font-size="11.00" fill="#000000">reference_data_id_1</text>
<polygon fill="none" stroke="#000000" points="357,-152.7 357,-174.7 422,-174.7 422,-152.7 357,-152.7"/>
<text text-anchor="start" x="360" y="-160.4" font-family="Helvetica,sans-Serif" font-size="11.00" fill="#000000">int8[19]</text>
<polygon fill="none" stroke="#000000" points="202,-130.7 202,-152.7 357,-152.7 357,-130.7 202,-130.7"/>
<image xlink:href="../../images/foreignKeys.png" width="11px" height="12px" preserveAspectRatio="xMinYMin meet" x="207" y="-147.7"/>
<text text-anchor="start" x="222" y="-137.8" font-family="Helvetica,sans-Serif" font-size="11.00" fill="#000000">reference_data_id_2</text>
<polygon fill="none" stroke="#000000" points="357,-130.7 357,-152.7 422,-152.7 422,-130.7 357,-130.7"/>
<text text-anchor="start" x="360" y="-138.4" font-family="Helvetica,sans-Serif" font-size="11.00" fill="#000000">int8[19]</text>
<polygon fill="#ffffff" stroke="transparent" points="202,-108.7 202,-130.7 357,-130.7 357,-108.7 202,-108.7"/>
<polygon fill="none" stroke="#000000" points="202,-108.7 202,-130.7 357,-130.7 357,-108.7 202,-108.7"/>
<text text-anchor="start" x="222" y="-115.8" font-family="Helvetica,sans-Serif" font-size="11.00" fill="#000000">sequence_number</text>
<polygon fill="none" stroke="#000000" points="357,-108.7 357,-130.7 422,-130.7 422,-108.7 357,-108.7"/>
<text text-anchor="start" x="360" y="-116.4" font-family="Helvetica,sans-Serif" font-size="11.00" fill="#000000">int4[10]</text>
<polygon fill="#ffffff" stroke="transparent" points="202,-89.7 202,-108.7 268,-108.7 268,-89.7 202,-89.7"/>
<polygon fill="none" stroke="#000000" points="202,-89.7 202,-108.7 268,-108.7 268,-89.7 202,-89.7"/>
<text text-anchor="start" x="205" y="-95.8" font-family="Helvetica,sans-Serif" font-size="11.00" fill="#000000">&lt; 2</text>
<polygon fill="#ffffff" stroke="transparent" points="268,-89.7 268,-108.7 357,-108.7 357,-89.7 268,-89.7"/>
<polygon fill="none" stroke="#000000" points="268,-89.7 268,-108.7 357,-108.7 357,-89.7 268,-89.7"/>
<text text-anchor="start" x="315.4956" y="-95.8" font-family="Helvetica,sans-Serif" font-size="11.00" fill="#000000">69 rows</text>
<polygon fill="#ffffff" stroke="transparent" points="357,-89.7 357,-108.7 422,-108.7 422,-89.7 357,-89.7"/>
<polygon fill="none" stroke="#000000" points="357,-89.7 357,-108.7 422,-108.7 422,-89.7 357,-89.7"/>
<text text-anchor="start" x="403.4053" y="-95.8" font-family="Helvetica,sans-Serif" font-size="11.00" fill="#000000">0 &gt;</text>
<polygon fill="none" stroke="#000000" stroke-width="2" points="201,-88.7 201,-220.7 423,-220.7 423,-88.7 201,-88.7"/>
</a>
</g>
</g>
<!-- reference_data -->
<g id="node2" class="node">
<title>reference_data</title>
<g id="a_node2"><a xlink:href="../../tables/reference_data.html" xlink:title="reference_data" target="_top">
<polygon fill="#ffffff" stroke="transparent" points="8,-38.2 8,-187.2 151,-187.2 151,-38.2 8,-38.2"/>
<polygon fill="#f5f5f5" stroke="transparent" points="8.5,-163.7 8.5,-186.7 151.5,-186.7 151.5,-163.7 8.5,-163.7"/>
<polygon fill="none" stroke="#000000" points="8.5,-163.7 8.5,-186.7 151.5,-186.7 151.5,-163.7 8.5,-163.7"/>
<text text-anchor="start" x="13.5" y="-172.3" font-family="Helvetica,sans-Serif" font-weight="bold" font-size="11.00" fill="#000000">reference_data</text>
<text text-anchor="start" x="116.5437" y="-171.8" font-family="Helvetica,sans-Serif" font-size="11.00" fill="#000000">[table]</text>
<polygon fill="none" stroke="#000000" points="8.5,-141.7 8.5,-163.7 151.5,-163.7 151.5,-141.7 8.5,-141.7"/>
<image xlink:href="../../images/primaryKeys.png" width="11px" height="12px" preserveAspectRatio="xMinYMin meet" x="13.5" y="-158.7"/>
<text text-anchor="start" x="28.5" y="-148.8" font-family="Helvetica,sans-Serif" font-size="11.00" fill="#000000">id</text>
<polygon fill="#ffffff" stroke="transparent" points="8.5,-119.7 8.5,-141.7 151.5,-141.7 151.5,-119.7 8.5,-119.7"/>
<polygon fill="none" stroke="#000000" points="8.5,-119.7 8.5,-141.7 151.5,-141.7 151.5,-119.7 8.5,-119.7"/>
<image xlink:href="../../images/foreignKeys.png" width="11px" height="12px" preserveAspectRatio="xMinYMin meet" x="13.5" y="-136.7"/>
<text text-anchor="start" x="28.5" y="-126.8" font-family="Helvetica,sans-Serif" font-size="11.00" fill="#000000">domain</text>
<polygon fill="#ffffff" stroke="transparent" points="8.5,-97.7 8.5,-119.7 151.5,-119.7 151.5,-97.7 8.5,-97.7"/>
<polygon fill="none" stroke="#000000" points="8.5,-97.7 8.5,-119.7 151.5,-119.7 151.5,-97.7 8.5,-97.7"/>
<text text-anchor="start" x="28.5" y="-104.8" font-family="Helvetica,sans-Serif" font-size="11.00" fill="#000000">code</text>
<polygon fill="#ffffff" stroke="transparent" points="8.5,-75.7 8.5,-97.7 151.5,-97.7 151.5,-75.7 8.5,-75.7"/>
<polygon fill="none" stroke="#000000" points="8.5,-75.7 8.5,-97.7 151.5,-97.7 151.5,-75.7 8.5,-75.7"/>
<text text-anchor="start" x="28.5" y="-82.8" font-family="Helvetica,sans-Serif" font-size="11.00" fill="#000000">sequence_number</text>
<polygon fill="none" stroke="#000000" points="8.5,-56.7 8.5,-75.7 151.5,-75.7 151.5,-56.7 8.5,-56.7"/>
<text text-anchor="start" x="11.5" y="-62.8" font-family="Helvetica,sans-Serif" font-size="11.00" fill="#000000">...</text>
<polygon fill="#ffffff" stroke="transparent" points="8.5,-37.7 8.5,-56.7 51.5,-56.7 51.5,-37.7 8.5,-37.7"/>
<polygon fill="none" stroke="#000000" points="8.5,-37.7 8.5,-56.7 51.5,-56.7 51.5,-37.7 8.5,-37.7"/>
<text text-anchor="start" x="11.5" y="-43.8" font-family="Helvetica,sans-Serif" font-size="11.00" fill="#000000">&lt; 1</text>
<polygon fill="#ffffff" stroke="transparent" points="51.5,-37.7 51.5,-56.7 112.5,-56.7 112.5,-37.7 51.5,-37.7"/>
<polygon fill="none" stroke="#000000" points="51.5,-37.7 51.5,-56.7 112.5,-56.7 112.5,-37.7 51.5,-37.7"/>
<text text-anchor="start" x="64.8807" y="-43.8" font-family="Helvetica,sans-Serif" font-size="11.00" fill="#000000">157 rows</text>
<polygon fill="#ffffff" stroke="transparent" points="112.5,-37.7 112.5,-56.7 151.5,-56.7 151.5,-37.7 112.5,-37.7"/>
<polygon fill="none" stroke="#000000" points="112.5,-37.7 112.5,-56.7 151.5,-56.7 151.5,-37.7 112.5,-37.7"/>
<text text-anchor="start" x="126.7904" y="-43.8" font-family="Helvetica,sans-Serif" font-size="11.00" fill="#000000">18 &gt;</text>
</a>
</g>
</g>
<!-- reference_data_link&#45;&gt;reference_data -->
<g id="edge1" class="edge">
<title>reference_data_link:w&#45;&gt;reference_data:e</title>
<path fill="none" stroke="#000000" d="M187.6489,-161.9813C175.5992,-158.8875 168.728,-152.7 151.5,-152.7"/>
<polygon fill="#000000" stroke="#000000" points="194.0568,-162.7486 201.5719,-167.2745 198.0284,-163.2243 202,-163.7 202,-163.7 202,-163.7 198.0284,-163.2243 202.4281,-160.1255 194.0568,-162.7486 194.0568,-162.7486"/>
<ellipse fill="none" stroke="#000000" cx="190.8795" cy="-162.3681" rx="3.2" ry="3.2"/>
</g>
<!-- reference_data_link&#45;&gt;reference_data -->
<g id="edge2" class="edge">
<title>reference_data_link:w&#45;&gt;reference_data:e</title>
<path fill="none" stroke="#000000" d="M187.6489,-143.4188C175.5992,-146.5125 168.728,-152.7 151.5,-152.7"/>
<polygon fill="#000000" stroke="#000000" points="194.0568,-142.6514 202.4281,-145.2745 198.0284,-142.1757 202,-141.7 202,-141.7 202,-141.7 198.0284,-142.1757 201.5719,-138.1255 194.0568,-142.6514 194.0568,-142.6514"/>
<ellipse fill="none" stroke="#000000" cx="190.8795" cy="-143.0319" rx="3.2" ry="3.2"/>
</g>
</g>
</svg>
