<?xml version="1.0" encoding="UTF-8" standalone="no"?>
<!DOCTYPE svg PUBLIC "-//W3C//DTD SVG 1.1//EN"
 "http://www.w3.org/Graphics/SVG/1.1/DTD/svg11.dtd">
<!-- Generated by graphviz version 2.40.1 (20161225.0304)
 -->
<!-- Title: twoDegreesRelationshipsDiagram Pages: 1 -->
<svg width="1328pt" height="487pt"
 viewBox="0.00 0.00 1328.00 487.20" xmlns="http://www.w3.org/2000/svg" xmlns:xlink="http://www.w3.org/1999/xlink">
<g id="graph0" class="graph" transform="scale(1 1) rotate(0) translate(4 483.2)">
<title>twoDegreesRelationshipsDiagram</title>
<polygon fill="#ffffff" stroke="transparent" points="-4,4 -4,-483.2 1324,-483.2 1324,4 -4,4"/>
<text text-anchor="middle" x="72.4936" y="-7.3" font-family="Helvetica,sans-Serif" font-size="11.00" fill="#000000">Generated by SchemaSpy</text>
<!-- reference_data -->
<g id="node1" class="node">
<title>reference_data</title>
<g id="a_node1"><a xlink:href="../../tables/reference_data.html" xlink:title="reference_data" target="_top">
<polygon fill="#ffffff" stroke="transparent" points="253,-45.2 253,-194.2 396,-194.2 396,-45.2 253,-45.2"/>
<polygon fill="#f5f5f5" stroke="transparent" points="253.5,-170.7 253.5,-193.7 396.5,-193.7 396.5,-170.7 253.5,-170.7"/>
<polygon fill="none" stroke="#000000" points="253.5,-170.7 253.5,-193.7 396.5,-193.7 396.5,-170.7 253.5,-170.7"/>
<text text-anchor="start" x="258.5" y="-179.3" font-family="Helvetica,sans-Serif" font-weight="bold" font-size="11.00" fill="#000000">reference_data</text>
<text text-anchor="start" x="361.5437" y="-178.8" font-family="Helvetica,sans-Serif" font-size="11.00" fill="#000000">[table]</text>
<polygon fill="none" stroke="#000000" points="253.5,-148.7 253.5,-170.7 396.5,-170.7 396.5,-148.7 253.5,-148.7"/>
<image xlink:href="../../images/primaryKeys.png" width="11px" height="12px" preserveAspectRatio="xMinYMin meet" x="258.5" y="-165.7"/>
<text text-anchor="start" x="273.5" y="-155.8" font-family="Helvetica,sans-Serif" font-size="11.00" fill="#000000">id</text>
<polygon fill="#ffffff" stroke="transparent" points="253.5,-126.7 253.5,-148.7 396.5,-148.7 396.5,-126.7 253.5,-126.7"/>
<polygon fill="none" stroke="#000000" points="253.5,-126.7 253.5,-148.7 396.5,-148.7 396.5,-126.7 253.5,-126.7"/>
<image xlink:href="../../images/foreignKeys.png" width="11px" height="12px" preserveAspectRatio="xMinYMin meet" x="258.5" y="-143.7"/>
<text text-anchor="start" x="273.5" y="-133.8" font-family="Helvetica,sans-Serif" font-size="11.00" fill="#000000">domain</text>
<polygon fill="#ffffff" stroke="transparent" points="253.5,-104.7 253.5,-126.7 396.5,-126.7 396.5,-104.7 253.5,-104.7"/>
<polygon fill="none" stroke="#000000" points="253.5,-104.7 253.5,-126.7 396.5,-126.7 396.5,-104.7 253.5,-104.7"/>
<text text-anchor="start" x="273.5" y="-111.8" font-family="Helvetica,sans-Serif" font-size="11.00" fill="#000000">code</text>
<polygon fill="#ffffff" stroke="transparent" points="253.5,-82.7 253.5,-104.7 396.5,-104.7 396.5,-82.7 253.5,-82.7"/>
<polygon fill="none" stroke="#000000" points="253.5,-82.7 253.5,-104.7 396.5,-104.7 396.5,-82.7 253.5,-82.7"/>
<text text-anchor="start" x="273.5" y="-89.8" font-family="Helvetica,sans-Serif" font-size="11.00" fill="#000000">sequence_number</text>
<polygon fill="none" stroke="#000000" points="253.5,-63.7 253.5,-82.7 396.5,-82.7 396.5,-63.7 253.5,-63.7"/>
<text text-anchor="start" x="256.5" y="-69.8" font-family="Helvetica,sans-Serif" font-size="11.00" fill="#000000">...</text>
<polygon fill="#ffffff" stroke="transparent" points="253.5,-44.7 253.5,-63.7 296.5,-63.7 296.5,-44.7 253.5,-44.7"/>
<polygon fill="none" stroke="#000000" points="253.5,-44.7 253.5,-63.7 296.5,-63.7 296.5,-44.7 253.5,-44.7"/>
<text text-anchor="start" x="256.5" y="-50.8" font-family="Helvetica,sans-Serif" font-size="11.00" fill="#000000">&lt; 1</text>
<polygon fill="#ffffff" stroke="transparent" points="296.5,-44.7 296.5,-63.7 357.5,-63.7 357.5,-44.7 296.5,-44.7"/>
<polygon fill="none" stroke="#000000" points="296.5,-44.7 296.5,-63.7 357.5,-63.7 357.5,-44.7 296.5,-44.7"/>
<text text-anchor="start" x="309.8807" y="-50.8" font-family="Helvetica,sans-Serif" font-size="11.00" fill="#000000">157 rows</text>
<polygon fill="#ffffff" stroke="transparent" points="357.5,-44.7 357.5,-63.7 396.5,-63.7 396.5,-44.7 357.5,-44.7"/>
<polygon fill="none" stroke="#000000" points="357.5,-44.7 357.5,-63.7 396.5,-63.7 396.5,-44.7 357.5,-44.7"/>
<text text-anchor="start" x="371.7904" y="-50.8" font-family="Helvetica,sans-Serif" font-size="11.00" fill="#000000">18 &gt;</text>
</a>
</g>
</g>
<!-- reference_data_domain -->
<g id="node2" class="node">
<title>reference_data_domain</title>
<g id="a_node2"><a xlink:href="../../tables/reference_data_domain.html" xlink:title="reference_data_domain" target="_top">
<polygon fill="#ffffff" stroke="transparent" points="8,-150.2 8,-211.2 204,-211.2 204,-150.2 8,-150.2"/>
<polygon fill="#f5f5f5" stroke="transparent" points="8,-187.7 8,-210.7 204,-210.7 204,-187.7 8,-187.7"/>
<polygon fill="none" stroke="#000000" points="8,-187.7 8,-210.7 204,-210.7 204,-187.7 8,-187.7"/>
<text text-anchor="start" x="13" y="-196.3" font-family="Helvetica,sans-Serif" font-weight="bold" font-size="11.00" fill="#000000">reference_data_domain</text>
<text text-anchor="start" x="169.5219" y="-195.8" font-family="Helvetica,sans-Serif" font-size="11.00" fill="#000000">[table]</text>
<polygon fill="none" stroke="#000000" points="8,-168.7 8,-187.7 204,-187.7 204,-168.7 8,-168.7"/>
<text text-anchor="start" x="11" y="-174.8" font-family="Helvetica,sans-Serif" font-size="11.00" fill="#000000">...</text>
<polygon fill="#ffffff" stroke="transparent" points="8,-149.7 8,-168.7 95,-168.7 95,-149.7 8,-149.7"/>
<polygon fill="none" stroke="#000000" points="8,-149.7 8,-168.7 95,-168.7 95,-149.7 8,-149.7"/>
<text text-anchor="start" x="11" y="-155.8" font-family="Helvetica,sans-Serif" font-size="11.00" fill="#000000"> &#160;</text>
<polygon fill="#ffffff" stroke="transparent" points="95,-149.7 95,-168.7 145,-168.7 145,-149.7 95,-149.7"/>
<polygon fill="none" stroke="#000000" points="95,-149.7 95,-168.7 145,-168.7 145,-149.7 95,-149.7"/>
<text text-anchor="start" x="135.8862" y="-155.8" font-family="Helvetica,sans-Serif" font-size="11.00" fill="#000000"> &#160;</text>
<polygon fill="#ffffff" stroke="transparent" points="145,-149.7 145,-168.7 204,-168.7 204,-149.7 145,-149.7"/>
<polygon fill="none" stroke="#000000" points="145,-149.7 145,-168.7 204,-168.7 204,-149.7 145,-149.7"/>
<text text-anchor="start" x="185.4053" y="-155.8" font-family="Helvetica,sans-Serif" font-size="11.00" fill="#000000">2 &gt;</text>
</a>
</g>
</g>
<!-- reference_data&#45;&gt;reference_data_domain -->
<g id="edge1" class="edge">
<title>reference_data:w&#45;&gt;reference_data_domain:e</title>
<path fill="none" stroke="#000000" d="M239.6565,-142.2885C226.6245,-152.7952 226.3187,-177.7 204,-177.7"/>
<polygon fill="#000000" stroke="#000000" points="245.9063,-140.217 254.6327,-141.1172 249.7031,-138.9585 253.5,-137.7 253.5,-137.7 253.5,-137.7 249.7031,-138.9585 252.3673,-134.2828 245.9063,-140.217 245.9063,-140.217"/>
<ellipse fill="none" stroke="#000000" cx="242.8688" cy="-141.2238" rx="3.2" ry="3.2"/>
</g>
<!-- reference_data_domain_link -->
<g id="node3" class="node">
<title>reference_data_domain_link</title>
<g id="a_node3"><a xlink:href="../../tables/reference_data_domain_link.html" xlink:title="reference_data_domain_link" target="_top">
<polygon fill="#ffffff" stroke="transparent" points="465.5,-414.2 465.5,-475.2 692.5,-475.2 692.5,-414.2 465.5,-414.2"/>
<polygon fill="#f5f5f5" stroke="transparent" points="466,-451.7 466,-474.7 693,-474.7 693,-451.7 466,-451.7"/>
<polygon fill="none" stroke="#000000" points="466,-451.7 466,-474.7 693,-474.7 693,-451.7 466,-451.7"/>
<text text-anchor="start" x="471" y="-460.3" font-family="Helvetica,sans-Serif" font-weight="bold" font-size="11.00" fill="#000000">reference_data_domain_link</text>
<text text-anchor="start" x="658.5219" y="-459.8" font-family="Helvetica,sans-Serif" font-size="11.00" fill="#000000">[table]</text>
<polygon fill="none" stroke="#000000" points="466,-432.7 466,-451.7 693,-451.7 693,-432.7 466,-432.7"/>
<text text-anchor="start" x="469" y="-438.8" font-family="Helvetica,sans-Serif" font-size="11.00" fill="#000000">...</text>
<polygon fill="#ffffff" stroke="transparent" points="466,-413.7 466,-432.7 578,-432.7 578,-413.7 466,-413.7"/>
<polygon fill="none" stroke="#000000" points="466,-413.7 466,-432.7 578,-432.7 578,-413.7 466,-413.7"/>
<text text-anchor="start" x="469" y="-419.8" font-family="Helvetica,sans-Serif" font-size="11.00" fill="#000000">&lt; 2</text>
<polygon fill="#ffffff" stroke="transparent" points="578,-413.7 578,-432.7 635,-432.7 635,-413.7 578,-413.7"/>
<polygon fill="none" stroke="#000000" points="578,-413.7 578,-432.7 635,-432.7 635,-413.7 578,-413.7"/>
<text text-anchor="start" x="625.8862" y="-419.8" font-family="Helvetica,sans-Serif" font-size="11.00" fill="#000000"> &#160;</text>
<polygon fill="#ffffff" stroke="transparent" points="635,-413.7 635,-432.7 693,-432.7 693,-413.7 635,-413.7"/>
<polygon fill="none" stroke="#000000" points="635,-413.7 635,-432.7 693,-432.7 693,-413.7 635,-413.7"/>
<text text-anchor="start" x="683.8862" y="-419.8" font-family="Helvetica,sans-Serif" font-size="11.00" fill="#000000"> &#160;</text>
</a>
</g>
</g>
<!-- reference_data_domain_link&#45;&gt;reference_data -->
<g id="edge3" class="edge">
<title>reference_data_domain_link:w&#45;&gt;reference_data:e</title>
<path fill="none" stroke="#000000" d="M455.5073,-439.5567C444.6544,-434.1431 443.72,-419.2389 437,-403.7 415.1828,-353.2514 451.4641,-159.7 396.5,-159.7"/>
<polygon fill="#000000" stroke="#000000" points="466.0167,-437.6208 464.4156,-445.459 462.848,-445.1387 464.4491,-437.3006 466.0167,-437.6208"/>
<polyline fill="none" stroke="#000000" points="466,-441.7 462.0809,-440.8994 "/>
<ellipse fill="none" stroke="#000000" cx="458.9457" cy="-440.259" rx="3.2" ry="3.2"/>
</g>
<!-- reference_data_domain_link&#45;&gt;reference_data_domain -->
<g id="edge2" class="edge">
<title>reference_data_domain_link:w&#45;&gt;reference_data_domain:e</title>
<path fill="none" stroke="#000000" d="M452.4627,-436.186C394.8674,-398.2747 241.7752,-177.7 204,-177.7"/>
<polygon fill="#000000" stroke="#000000" points="458.591,-438.6821 464.642,-445.034 462.2955,-440.1911 466,-441.7 466,-441.7 466,-441.7 462.2955,-440.1911 467.358,-438.366 458.591,-438.6821 458.591,-438.6821"/>
<ellipse fill="none" stroke="#000000" cx="455.6274" cy="-437.475" rx="3.2" ry="3.2"/>
</g>
<!-- reference_data_link -->
<g id="node4" class="node">
<title>reference_data_link</title>
<g id="a_node4"><a xlink:href="../../tables/reference_data_link.html" xlink:title="reference_data_link" target="_top">
<polygon fill="#ffffff" stroke="transparent" points="467,-258.7 467,-392.7 691,-392.7 691,-258.7 467,-258.7"/>
<polygon fill="#f5f5f5" stroke="transparent" points="469,-367.7 469,-390.7 689,-390.7 689,-367.7 469,-367.7"/>
<polygon fill="none" stroke="#000000" points="469,-367.7 469,-390.7 689,-390.7 689,-367.7 469,-367.7"/>
<text text-anchor="start" x="474" y="-376.3" font-family="Helvetica,sans-Serif" font-weight="bold" font-size="11.00" fill="#000000">reference_data_link</text>
<text text-anchor="start" x="654.0437" y="-375.8" font-family="Helvetica,sans-Serif" font-size="11.00" fill="#000000">[table]</text>
<polygon fill="none" stroke="#000000" points="469,-345.7 469,-367.7 624,-367.7 624,-345.7 469,-345.7"/>
<image xlink:href="../../images/primaryKeys.png" width="11px" height="12px" preserveAspectRatio="xMinYMin meet" x="474" y="-362.7"/>
<text text-anchor="start" x="489" y="-352.8" font-family="Helvetica,sans-Serif" font-size="11.00" fill="#000000">id</text>
<polygon fill="none" stroke="#000000" points="624,-345.7 624,-367.7 689,-367.7 689,-345.7 624,-345.7"/>
<text text-anchor="start" x="626.8561" y="-353.4" font-family="Helvetica,sans-Serif" font-size="11.00" fill="#000000">bigserial[19]</text>
<polygon fill="#ffffff" stroke="transparent" points="469,-323.7 469,-345.7 624,-345.7 624,-323.7 469,-323.7"/>
<polygon fill="none" stroke="#000000" points="469,-323.7 469,-345.7 624,-345.7 624,-323.7 469,-323.7"/>
<image xlink:href="../../images/foreignKeys.png" width="11px" height="12px" preserveAspectRatio="xMinYMin meet" x="474" y="-340.7"/>
<text text-anchor="start" x="489" y="-330.8" font-family="Helvetica,sans-Serif" font-size="11.00" fill="#000000">reference_data_id_1</text>
<polygon fill="none" stroke="#000000" points="624,-323.7 624,-345.7 689,-345.7 689,-323.7 624,-323.7"/>
<text text-anchor="start" x="627" y="-331.4" font-family="Helvetica,sans-Serif" font-size="11.00" fill="#000000">int8[19]</text>
<polygon fill="none" stroke="#000000" points="469,-301.7 469,-323.7 624,-323.7 624,-301.7 469,-301.7"/>
<image xlink:href="../../images/foreignKeys.png" width="11px" height="12px" preserveAspectRatio="xMinYMin meet" x="474" y="-318.7"/>
<text text-anchor="start" x="489" y="-308.8" font-family="Helvetica,sans-Serif" font-size="11.00" fill="#000000">reference_data_id_2</text>
<polygon fill="none" stroke="#000000" points="624,-301.7 624,-323.7 689,-323.7 689,-301.7 624,-301.7"/>
<text text-anchor="start" x="627" y="-309.4" font-family="Helvetica,sans-Serif" font-size="11.00" fill="#000000">int8[19]</text>
<polygon fill="#ffffff" stroke="transparent" points="469,-279.7 469,-301.7 624,-301.7 624,-279.7 469,-279.7"/>
<polygon fill="none" stroke="#000000" points="469,-279.7 469,-301.7 624,-301.7 624,-279.7 469,-279.7"/>
<text text-anchor="start" x="489" y="-286.8" font-family="Helvetica,sans-Serif" font-size="11.00" fill="#000000">sequence_number</text>
<polygon fill="none" stroke="#000000" points="624,-279.7 624,-301.7 689,-301.7 689,-279.7 624,-279.7"/>
<text text-anchor="start" x="627" y="-287.4" font-family="Helvetica,sans-Serif" font-size="11.00" fill="#000000">int4[10]</text>
<polygon fill="#ffffff" stroke="transparent" points="469,-260.7 469,-279.7 535,-279.7 535,-260.7 469,-260.7"/>
<polygon fill="none" stroke="#000000" points="469,-260.7 469,-279.7 535,-279.7 535,-260.7 469,-260.7"/>
<text text-anchor="start" x="472" y="-266.8" font-family="Helvetica,sans-Serif" font-size="11.00" fill="#000000">&lt; 2</text>
<polygon fill="#ffffff" stroke="transparent" points="535,-260.7 535,-279.7 624,-279.7 624,-260.7 535,-260.7"/>
<polygon fill="none" stroke="#000000" points="535,-260.7 535,-279.7 624,-279.7 624,-260.7 535,-260.7"/>
<text text-anchor="start" x="582.4956" y="-266.8" font-family="Helvetica,sans-Serif" font-size="11.00" fill="#000000">69 rows</text>
<polygon fill="#ffffff" stroke="transparent" points="624,-260.7 624,-279.7 689,-279.7 689,-260.7 624,-260.7"/>
<polygon fill="none" stroke="#000000" points="624,-260.7 624,-279.7 689,-279.7 689,-260.7 624,-260.7"/>
<text text-anchor="start" x="670.4053" y="-266.8" font-family="Helvetica,sans-Serif" font-size="11.00" fill="#000000">0 &gt;</text>
<polygon fill="none" stroke="#000000" stroke-width="2" points="468,-259.7 468,-391.7 690,-391.7 690,-259.7 468,-259.7"/>
</a>
</g>
</g>
<!-- reference_data_link&#45;&gt;reference_data -->
<g id="edge4" class="edge">
<title>reference_data_link:w&#45;&gt;reference_data:e</title>
<path fill="none" stroke="#000000" d="M454.5048,-332.4874C396.7513,-312.2295 475.0976,-159.7 396.5,-159.7"/>
<polygon fill="#000000" stroke="#000000" points="461.0916,-333.4928 468.4567,-338.2588 465.0458,-334.0964 469,-334.7 469,-334.7 469,-334.7 465.0458,-334.0964 469.5433,-331.1412 461.0916,-333.4928 461.0916,-333.4928"/>
<ellipse fill="none" stroke="#000000" cx="457.9282" cy="-333.0099" rx="3.2" ry="3.2"/>
</g>
<!-- reference_data_link&#45;&gt;reference_data -->
<g id="edge5" class="edge">
<title>reference_data_link:w&#45;&gt;reference_data:e</title>
<path fill="none" stroke="#000000" d="M454.6526,-310.2967C404.4854,-290.8319 466.1632,-159.7 396.5,-159.7"/>
<polygon fill="#000000" stroke="#000000" points="461.1099,-311.3783 468.4052,-316.2505 465.055,-312.0392 469,-312.7 469,-312.7 469,-312.7 465.055,-312.0392 469.5948,-309.1495 461.1099,-311.3783 461.1099,-311.3783"/>
<ellipse fill="none" stroke="#000000" cx="457.9539" cy="-310.8496" rx="3.2" ry="3.2"/>
</g>
<!-- temporary_absence_authorisation -->
<g id="node5" class="node">
<title>temporary_absence_authorisation</title>
<g id="a_node5"><a xlink:href="../../tables/temporary_absence_authorisation.html" xlink:title="temporary_absence_authorisation" target="_top">
<polygon fill="#ffffff" stroke="transparent" points="445,-38.2 445,-99.2 713,-99.2 713,-38.2 445,-38.2"/>
<polygon fill="#f5f5f5" stroke="transparent" points="445,-75.7 445,-98.7 713,-98.7 713,-75.7 445,-75.7"/>
<polygon fill="none" stroke="#000000" points="445,-75.7 445,-98.7 713,-98.7 713,-75.7 445,-75.7"/>
<text text-anchor="start" x="450" y="-84.3" font-family="Helvetica,sans-Serif" font-weight="bold" font-size="11.00" fill="#000000">temporary_absence_authorisation</text>
<text text-anchor="start" x="678.5219" y="-83.8" font-family="Helvetica,sans-Serif" font-size="11.00" fill="#000000">[table]</text>
<polygon fill="none" stroke="#000000" points="445,-56.7 445,-75.7 713,-75.7 713,-56.7 445,-56.7"/>
<text text-anchor="start" x="448" y="-62.8" font-family="Helvetica,sans-Serif" font-size="11.00" fill="#000000">...</text>
<polygon fill="#ffffff" stroke="transparent" points="445,-37.7 445,-56.7 573,-56.7 573,-37.7 445,-37.7"/>
<polygon fill="none" stroke="#000000" points="445,-37.7 445,-56.7 573,-56.7 573,-37.7 445,-37.7"/>
<text text-anchor="start" x="448" y="-43.8" font-family="Helvetica,sans-Serif" font-size="11.00" fill="#000000">&lt; 7</text>
<polygon fill="#ffffff" stroke="transparent" points="573,-37.7 573,-56.7 638,-56.7 638,-37.7 573,-37.7"/>
<polygon fill="none" stroke="#000000" points="573,-37.7 573,-56.7 638,-56.7 638,-37.7 573,-37.7"/>
<text text-anchor="start" x="628.8862" y="-43.8" font-family="Helvetica,sans-Serif" font-size="11.00" fill="#000000"> &#160;</text>
<polygon fill="#ffffff" stroke="transparent" points="638,-37.7 638,-56.7 713,-56.7 713,-37.7 638,-37.7"/>
<polygon fill="none" stroke="#000000" points="638,-37.7 638,-56.7 713,-56.7 713,-37.7 638,-37.7"/>
<text text-anchor="start" x="694.4053" y="-43.8" font-family="Helvetica,sans-Serif" font-size="11.00" fill="#000000">1 &gt;</text>
</a>
</g>
</g>
<!-- temporary_absence_authorisation&#45;&gt;reference_data -->
<g id="edge6" class="edge">
<title>temporary_absence_authorisation:w&#45;&gt;reference_data:e</title>
<path fill="none" stroke="#000000" d="M431.9871,-59.3385C407.3875,-54.8798 438.0018,-131.45 396.5,-159.7"/>
<polygon fill="#000000" stroke="#000000" points="437.8128,-62.1864 443.4189,-68.9342 441.4064,-63.9432 445,-65.7 445,-65.7 445,-65.7 441.4064,-63.9432 446.5811,-62.4658 437.8128,-62.1864 437.8128,-62.1864"/>
<ellipse fill="none" stroke="#000000" cx="434.938" cy="-60.781" rx="3.2" ry="3.2"/>
</g>
<!-- temporary_absence_authorisation&#45;&gt;reference_data -->
<g id="edge7" class="edge">
<title>temporary_absence_authorisation:w&#45;&gt;reference_data:e</title>
<path fill="none" stroke="#000000" d="M430.7321,-63.6689C408.4486,-70.3458 437.2673,-143.2234 396.5,-159.7"/>
<polygon fill="#000000" stroke="#000000" points="437.0798,-64.5725 444.4926,-69.2641 441.0399,-65.1362 445,-65.7 445,-65.7 445,-65.7 441.0399,-65.1362 445.5074,-62.1359 437.0798,-64.5725 437.0798,-64.5725"/>
<ellipse fill="none" stroke="#000000" cx="433.9118" cy="-64.1215" rx="3.2" ry="3.2"/>
</g>
<!-- temporary_absence_authorisation&#45;&gt;reference_data -->
<g id="edge8" class="edge">
<title>temporary_absence_authorisation:w&#45;&gt;reference_data:e</title>
<path fill="none" stroke="#000000" d="M430.7321,-68.1607C408.4486,-83.1165 437.2673,-154.4969 396.5,-159.7"/>
<polygon fill="#000000" stroke="#000000" points="437.1164,-67.0597 445.6119,-69.2476 441.0582,-66.3798 445,-65.7 445,-65.7 445,-65.7 441.0582,-66.3798 444.3881,-62.1524 437.1164,-67.0597 437.1164,-67.0597"/>
<ellipse fill="none" stroke="#000000" cx="433.9629" cy="-67.6036" rx="3.2" ry="3.2"/>
</g>
<!-- temporary_absence_authorisation&#45;&gt;reference_data -->
<g id="edge9" class="edge">
<title>temporary_absence_authorisation:w&#45;&gt;reference_data:e</title>
<path fill="none" stroke="#000000" d="M431.6638,-71.7364C407.657,-93.9846 437.8182,-165.8523 396.5,-159.7"/>
<polygon fill="#000000" stroke="#000000" points="437.7118,-68.9989 446.4845,-68.9797 441.3559,-67.3494 445,-65.7 445,-65.7 445,-65.7 441.3559,-67.3494 443.5155,-62.4203 437.7118,-68.9989 437.7118,-68.9989"/>
<ellipse fill="none" stroke="#000000" cx="434.7965" cy="-70.3184" rx="3.2" ry="3.2"/>
</g>
<!-- temporary_absence_authorisation&#45;&gt;reference_data -->
<g id="edge10" class="edge">
<title>temporary_absence_authorisation:w&#45;&gt;reference_data:e</title>
<path fill="none" stroke="#000000" d="M432.9962,-74.277C406.5621,-104.26 438.5527,-177.5906 396.5,-159.7"/>
<polygon fill="#000000" stroke="#000000" points="438.4909,-70.351 447.0929,-68.6291 441.7454,-68.0255 445,-65.7 445,-65.7 445,-65.7 441.7454,-68.0255 442.9071,-62.7709 438.4909,-70.351 438.4909,-70.351"/>
<ellipse fill="none" stroke="#000000" cx="435.8872" cy="-72.2114" rx="3.2" ry="3.2"/>
</g>
<!-- temporary_absence_authorisation&#45;&gt;reference_data -->
<g id="edge11" class="edge">
<title>temporary_absence_authorisation:w&#45;&gt;reference_data:e</title>
<path fill="none" stroke="#000000" d="M434.4356,-75.9353C405.4219,-114.5655 439.2873,-189.7352 396.5,-159.7"/>
<polygon fill="#000000" stroke="#000000" points="439.2544,-71.2667 447.505,-68.2855 442.1272,-68.4833 445,-65.7 445,-65.7 445,-65.7 442.1272,-68.4833 442.495,-63.1145 439.2544,-71.2667 439.2544,-71.2667"/>
<ellipse fill="none" stroke="#000000" cx="436.9561" cy="-73.4934" rx="3.2" ry="3.2"/>
</g>
<!-- temporary_absence_movement -->
<g id="node6" class="node">
<title>temporary_absence_movement</title>
<g id="a_node6"><a xlink:href="../../tables/temporary_absence_movement.html" xlink:title="temporary_absence_movement" target="_top">
<polygon fill="#ffffff" stroke="transparent" points="1063,-201.2 1063,-262.2 1312,-262.2 1312,-201.2 1063,-201.2"/>
<polygon fill="#f5f5f5" stroke="transparent" points="1063.5,-238.7 1063.5,-261.7 1312.5,-261.7 1312.5,-238.7 1063.5,-238.7"/>
<polygon fill="none" stroke="#000000" points="1063.5,-238.7 1063.5,-261.7 1312.5,-261.7 1312.5,-238.7 1063.5,-238.7"/>
<text text-anchor="start" x="1068.5" y="-247.3" font-family="Helvetica,sans-Serif" font-weight="bold" font-size="11.00" fill="#000000">temporary_absence_movement</text>
<text text-anchor="start" x="1278.0219" y="-246.8" font-family="Helvetica,sans-Serif" font-size="11.00" fill="#000000">[table]</text>
<polygon fill="none" stroke="#000000" points="1063.5,-219.7 1063.5,-238.7 1312.5,-238.7 1312.5,-219.7 1063.5,-219.7"/>
<text text-anchor="start" x="1066.5" y="-225.8" font-family="Helvetica,sans-Serif" font-size="11.00" fill="#000000">...</text>
<polygon fill="#ffffff" stroke="transparent" points="1063.5,-200.7 1063.5,-219.7 1186.5,-219.7 1186.5,-200.7 1063.5,-200.7"/>
<polygon fill="none" stroke="#000000" points="1063.5,-200.7 1063.5,-219.7 1186.5,-219.7 1186.5,-200.7 1063.5,-200.7"/>
<text text-anchor="start" x="1066.5" y="-206.8" font-family="Helvetica,sans-Serif" font-size="11.00" fill="#000000">&lt; 4</text>
<polygon fill="#ffffff" stroke="transparent" points="1186.5,-200.7 1186.5,-219.7 1249.5,-219.7 1249.5,-200.7 1186.5,-200.7"/>
<polygon fill="none" stroke="#000000" points="1186.5,-200.7 1186.5,-219.7 1249.5,-219.7 1249.5,-200.7 1186.5,-200.7"/>
<text text-anchor="start" x="1240.3862" y="-206.8" font-family="Helvetica,sans-Serif" font-size="11.00" fill="#000000"> &#160;</text>
<polygon fill="#ffffff" stroke="transparent" points="1249.5,-200.7 1249.5,-219.7 1312.5,-219.7 1312.5,-200.7 1249.5,-200.7"/>
<polygon fill="none" stroke="#000000" points="1249.5,-200.7 1249.5,-219.7 1312.5,-219.7 1312.5,-200.7 1249.5,-200.7"/>
<text text-anchor="start" x="1303.3862" y="-206.8" font-family="Helvetica,sans-Serif" font-size="11.00" fill="#000000"> &#160;</text>
</a>
</g>
</g>
<!-- temporary_absence_movement&#45;&gt;reference_data -->
<g id="edge12" class="edge">
<title>temporary_absence_movement:w&#45;&gt;reference_data:e</title>
<path fill="none" stroke="#000000" d="M1048.9054,-228.8165C900.4507,-231.0303 558.7004,-263.4104 437,-205.7 412.3878,-194.0289 423.7392,-159.7 396.5,-159.7"/>
<polygon fill="#000000" stroke="#000000" points="1055.5003,-228.7639 1063.5288,-232.2999 1059.5001,-228.732 1063.5,-228.7 1063.5,-228.7 1063.5,-228.7 1059.5001,-228.732 1063.4712,-225.1001 1055.5003,-228.7639 1055.5003,-228.7639"/>
<ellipse fill="none" stroke="#000000" cx="1052.3004" cy="-228.7895" rx="3.2" ry="3.2"/>
</g>
<!-- temporary_absence_movement&#45;&gt;reference_data -->
<g id="edge13" class="edge">
<title>temporary_absence_movement:w&#45;&gt;reference_data:e</title>
<path fill="none" stroke="#000000" d="M1048.9058,-228.7957C900.4927,-230.612 559.8322,-257.0439 437,-201.7 413.3575,-191.0475 422.4315,-159.7 396.5,-159.7"/>
<polygon fill="#000000" stroke="#000000" points="1055.5002,-228.7525 1063.5236,-232.2999 1059.5001,-228.7263 1063.5,-228.7 1063.5,-228.7 1063.5,-228.7 1059.5001,-228.7263 1063.4764,-225.1001 1055.5002,-228.7525 1055.5002,-228.7525"/>
<ellipse fill="none" stroke="#000000" cx="1052.3002" cy="-228.7735" rx="3.2" ry="3.2"/>
</g>
<!-- temporary_absence_occurrence -->
<g id="node7" class="node">
<title>temporary_absence_occurrence</title>
<g id="a_node7"><a xlink:href="../../tables/temporary_absence_occurrence.html" xlink:title="temporary_absence_occurrence" target="_top">
<polygon fill="#ffffff" stroke="transparent" points="762,-132.2 762,-193.2 1014,-193.2 1014,-132.2 762,-132.2"/>
<polygon fill="#f5f5f5" stroke="transparent" points="762,-169.7 762,-192.7 1014,-192.7 1014,-169.7 762,-169.7"/>
<polygon fill="none" stroke="#000000" points="762,-169.7 762,-192.7 1014,-192.7 1014,-169.7 762,-169.7"/>
<text text-anchor="start" x="767" y="-178.3" font-family="Helvetica,sans-Serif" font-weight="bold" font-size="11.00" fill="#000000">temporary_absence_occurrence</text>
<text text-anchor="start" x="979.5219" y="-177.8" font-family="Helvetica,sans-Serif" font-size="11.00" fill="#000000">[table]</text>
<polygon fill="none" stroke="#000000" points="762,-150.7 762,-169.7 1014,-169.7 1014,-150.7 762,-150.7"/>
<text text-anchor="start" x="765" y="-156.8" font-family="Helvetica,sans-Serif" font-size="11.00" fill="#000000">...</text>
<polygon fill="#ffffff" stroke="transparent" points="762,-131.7 762,-150.7 882,-150.7 882,-131.7 762,-131.7"/>
<polygon fill="none" stroke="#000000" points="762,-131.7 762,-150.7 882,-150.7 882,-131.7 762,-131.7"/>
<text text-anchor="start" x="765" y="-137.8" font-family="Helvetica,sans-Serif" font-size="11.00" fill="#000000">&lt; 8</text>
<polygon fill="#ffffff" stroke="transparent" points="882,-131.7 882,-150.7 943,-150.7 943,-131.7 882,-131.7"/>
<polygon fill="none" stroke="#000000" points="882,-131.7 882,-150.7 943,-150.7 943,-131.7 882,-131.7"/>
<text text-anchor="start" x="933.8862" y="-137.8" font-family="Helvetica,sans-Serif" font-size="11.00" fill="#000000"> &#160;</text>
<polygon fill="#ffffff" stroke="transparent" points="943,-131.7 943,-150.7 1014,-150.7 1014,-131.7 943,-131.7"/>
<polygon fill="none" stroke="#000000" points="943,-131.7 943,-150.7 1014,-150.7 1014,-131.7 943,-131.7"/>
<text text-anchor="start" x="995.4053" y="-137.8" font-family="Helvetica,sans-Serif" font-size="11.00" fill="#000000">1 &gt;</text>
</a>
</g>
</g>
<!-- temporary_absence_movement&#45;&gt;temporary_absence_occurrence -->
<g id="edge14" class="edge">
<title>temporary_absence_movement:w&#45;&gt;temporary_absence_occurrence:e</title>
<path fill="none" stroke="#000000" d="M1049.5069,-223.7377C1032.5688,-207.9166 1045.5498,-159.7 1014,-159.7"/>
<polygon fill="#000000" stroke="#000000" points="1055.9601,-226.0261 1062.2967,-232.093 1059.73,-227.3631 1063.5,-228.7 1063.5,-228.7 1063.5,-228.7 1059.73,-227.3631 1064.7033,-225.307 1055.9601,-226.0261 1055.9601,-226.0261"/>
<ellipse fill="none" stroke="#000000" cx="1052.9441" cy="-224.9566" rx="3.2" ry="3.2"/>
</g>
<!-- temporary_absence_occurrence&#45;&gt;reference_data -->
<g id="edge15" class="edge">
<title>temporary_absence_occurrence:w&#45;&gt;reference_data:e</title>
<path fill="none" stroke="#000000" d="M747.575,-159.7C596.985,-159.7 554.0267,-159.7 396.5,-159.7"/>
<polygon fill="#000000" stroke="#000000" points="754,-159.7001 762,-163.3 758,-159.7 762,-159.7 762,-159.7 762,-159.7 758,-159.7 762,-156.1 754,-159.7001 754,-159.7001"/>
<ellipse fill="none" stroke="#000000" cx="750.8" cy="-159.7001" rx="3.2" ry="3.2"/>
</g>
<!-- temporary_absence_occurrence&#45;&gt;reference_data -->
<g id="edge16" class="edge">
<title>temporary_absence_occurrence:w&#45;&gt;reference_data:e</title>
<path fill="none" stroke="#000000" d="M747.575,-156.8817C596.985,-127.7293 554.0267,-128.6688 396.5,-159.7"/>
<polygon fill="#000000" stroke="#000000" points="754.1484,-158.166 761.3097,-163.2332 758.0742,-158.933 762,-159.7 762,-159.7 762,-159.7 758.0742,-158.933 762.6903,-156.1668 754.1484,-158.166 754.1484,-158.166"/>
<ellipse fill="none" stroke="#000000" cx="751.0078" cy="-157.5524" rx="3.2" ry="3.2"/>
</g>
<!-- temporary_absence_occurrence&#45;&gt;reference_data -->
<g id="edge17" class="edge">
<title>temporary_absence_occurrence:w&#45;&gt;reference_data:e</title>
<path fill="none" stroke="#000000" d="M747.575,-158.0267C596.985,-140.7174 554.0267,-141.2752 396.5,-159.7"/>
<polygon fill="#000000" stroke="#000000" points="754.0533,-158.7781 761.5851,-163.276 758.0266,-159.2391 762,-159.7 762,-159.7 762,-159.7 758.0266,-159.2391 762.4149,-156.124 754.0533,-158.7781 754.0533,-158.7781"/>
<ellipse fill="none" stroke="#000000" cx="750.8746" cy="-158.4094" rx="3.2" ry="3.2"/>
</g>
<!-- temporary_absence_occurrence&#45;&gt;reference_data -->
<g id="edge18" class="edge">
<title>temporary_absence_occurrence:w&#45;&gt;reference_data:e</title>
<path fill="none" stroke="#000000" d="M747.575,-159.1716C596.985,-153.7055 554.0267,-153.8816 396.5,-159.7"/>
<polygon fill="#000000" stroke="#000000" points="754.0054,-159.4071 761.8682,-163.2976 758.0027,-159.5535 762,-159.7 762,-159.7 762,-159.7 758.0027,-159.5535 762.1318,-156.1024 754.0054,-159.4071 754.0054,-159.4071"/>
<ellipse fill="none" stroke="#000000" cx="750.8075" cy="-159.2899" rx="3.2" ry="3.2"/>
</g>
<!-- temporary_absence_occurrence&#45;&gt;reference_data -->
<g id="edge19" class="edge">
<title>temporary_absence_occurrence:w&#45;&gt;reference_data:e</title>
<path fill="none" stroke="#000000" d="M747.575,-160.3165C596.985,-166.6936 554.0267,-166.4881 396.5,-159.7"/>
<polygon fill="#000000" stroke="#000000" points="754.0073,-160.0416 762.1537,-163.2967 758.0036,-159.8708 762,-159.7 762,-159.7 762,-159.7 758.0036,-159.8708 761.8463,-156.1033 754.0073,-160.0416 754.0073,-160.0416"/>
<ellipse fill="none" stroke="#000000" cx="750.8102" cy="-160.1783" rx="3.2" ry="3.2"/>
</g>
<!-- temporary_absence_occurrence&#45;&gt;reference_data -->
<g id="edge21" class="edge">
<title>temporary_absence_occurrence:w&#45;&gt;reference_data:e</title>
<path fill="none" stroke="#000000" d="M747.575,-161.4614C596.985,-179.6817 554.0267,-179.0945 396.5,-159.7"/>
<polygon fill="#000000" stroke="#000000" points="754.059,-160.6697 762.4364,-163.2735 758.0295,-160.1849 762,-159.7 762,-159.7 762,-159.7 758.0295,-160.1849 761.5636,-156.1265 754.059,-160.6697 754.059,-160.6697"/>
<ellipse fill="none" stroke="#000000" cx="750.8826" cy="-161.0576" rx="3.2" ry="3.2"/>
</g>
<!-- temporary_absence_occurrence&#45;&gt;reference_data -->
<g id="edge22" class="edge">
<title>temporary_absence_occurrence:w&#45;&gt;reference_data:e</title>
<path fill="none" stroke="#000000" d="M747.575,-162.6063C596.985,-192.6698 554.0267,-191.701 396.5,-159.7"/>
<polygon fill="#000000" stroke="#000000" points="754.1576,-161.2801 762.7111,-163.2291 758.0788,-160.4901 762,-159.7 762,-159.7 762,-159.7 758.0788,-160.4901 761.2889,-156.1709 754.1576,-161.2801 754.1576,-161.2801"/>
<ellipse fill="none" stroke="#000000" cx="751.0206" cy="-161.9122" rx="3.2" ry="3.2"/>
</g>
<!-- temporary_absence_occurrence&#45;&gt;temporary_absence_authorisation -->
<g id="edge20" class="edge">
<title>temporary_absence_occurrence:w&#45;&gt;temporary_absence_authorisation:e</title>
<path fill="none" stroke="#000000" d="M747.988,-155.4168C725.0123,-137.0276 754.04,-65.7 713,-65.7"/>
<polygon fill="#000000" stroke="#000000" points="754.3495,-157.3613 760.9476,-163.1427 758.1747,-158.5307 762,-159.7 762,-159.7 762,-159.7 758.1747,-158.5307 763.0524,-156.2573 754.3495,-157.3613 754.3495,-157.3613"/>
<ellipse fill="none" stroke="#000000" cx="751.2892" cy="-156.4258" rx="3.2" ry="3.2"/>
</g>
</g>
</svg>
