<?xml version="1.0" encoding="UTF-8" standalone="no"?>
<!DOCTYPE svg PUBLIC "-//W3C//DTD SVG 1.1//EN"
 "http://www.w3.org/Graphics/SVG/1.1/DTD/svg11.dtd">
<!-- Generated by graphviz version 2.40.1 (20161225.0304)
 -->
<!-- Title: oneDegreeRelationshipsDiagram Pages: 1 -->
<svg width="634pt" height="140pt"
 viewBox="0.00 0.00 634.00 140.20" xmlns="http://www.w3.org/2000/svg" xmlns:xlink="http://www.w3.org/1999/xlink">
<g id="graph0" class="graph" transform="scale(1 1) rotate(0) translate(4 136.2)">
<title>oneDegreeRelationshipsDiagram</title>
<polygon fill="#ffffff" stroke="transparent" points="-4,4 -4,-136.2 630,-136.2 630,4 -4,4"/>
<text text-anchor="middle" x="72.4936" y="-7.3" font-family="Helvetica,sans-Serif" font-size="11.00" fill="#000000">Generated by SchemaSpy</text>
<!-- tap.absence_categorisation_domain_link -->
<g id="node1" class="node">
<title>tap.absence_categorisation_domain_link</title>
<g id="a_node1"><a xlink:title="tap.absence_categorisation_domain_link">
<polygon fill="#ffffff" stroke="transparent" points="306,-43.7 306,-126.7 618,-126.7 618,-43.7 306,-43.7"/>
<polygon fill="#f5f5f5" stroke="transparent" points="306,-103.2 306,-126.2 618,-126.2 618,-103.2 306,-103.2"/>
<polygon fill="none" stroke="#000000" points="306,-103.2 306,-126.2 618,-126.2 618,-103.2 306,-103.2"/>
<text text-anchor="start" x="311" y="-111.8" font-family="Helvetica,sans-Serif" font-weight="bold" font-size="11.00" fill="#000000">tap.absence_categorisation_domain_link</text>
<text text-anchor="start" x="583.5219" y="-111.3" font-family="Helvetica,sans-Serif" font-size="11.00" fill="#000000">[table]</text>
<polygon fill="none" stroke="#000000" points="306,-81.2 306,-103.2 618,-103.2 618,-81.2 306,-81.2"/>
<image xlink:href="../../images/foreignKeys.png" width="11px" height="12px" preserveAspectRatio="xMinYMin meet" x="311" y="-98.2"/>
<text text-anchor="start" x="349" y="-88.3" font-family="Helvetica,sans-Serif" font-size="11.00" fill="#000000">domain</text>
<polygon fill="none" stroke="#000000" points="306,-62.2 306,-81.2 618,-81.2 618,-62.2 306,-62.2"/>
<text text-anchor="start" x="309" y="-68.3" font-family="Helvetica,sans-Serif" font-size="11.00" fill="#000000">...</text>
<polygon fill="#ffffff" stroke="transparent" points="306,-43.2 306,-62.2 447,-62.2 447,-43.2 306,-43.2"/>
<polygon fill="none" stroke="#000000" points="306,-43.2 306,-62.2 447,-62.2 447,-43.2 306,-43.2"/>
<text text-anchor="start" x="309" y="-49.3" font-family="Helvetica,sans-Serif" font-size="11.00" fill="#000000">&lt; 1</text>
<polygon fill="#ffffff" stroke="transparent" points="447,-43.2 447,-62.2 545,-62.2 545,-43.2 447,-43.2"/>
<polygon fill="none" stroke="#000000" points="447,-43.2 447,-62.2 545,-62.2 545,-43.2 447,-43.2"/>
<text text-anchor="start" x="509.6105" y="-49.3" font-family="Helvetica,sans-Serif" font-size="11.00" fill="#000000">0 rows</text>
<polygon fill="#ffffff" stroke="transparent" points="545,-43.2 545,-62.2 618,-62.2 618,-43.2 545,-43.2"/>
<polygon fill="none" stroke="#000000" points="545,-43.2 545,-62.2 618,-62.2 618,-43.2 545,-43.2"/>
<text text-anchor="start" x="608.8862" y="-49.3" font-family="Helvetica,sans-Serif" font-size="11.00" fill="#000000"> &#160;</text>
</a>
</g>
</g>
<!-- reference_data_domain -->
<g id="node2" class="node">
<title>reference_data_domain</title>
<g id="a_node2"><a xlink:href="../../tables/reference_data_domain.html" xlink:title="reference_data_domain" target="_top">
<polygon fill="#ffffff" stroke="transparent" points="8,-38.2 8,-128.2 257,-128.2 257,-38.2 8,-38.2"/>
<polygon fill="#f5f5f5" stroke="transparent" points="10.5,-103.2 10.5,-126.2 255.5,-126.2 255.5,-103.2 10.5,-103.2"/>
<polygon fill="none" stroke="#000000" points="10.5,-103.2 10.5,-126.2 255.5,-126.2 255.5,-103.2 10.5,-103.2"/>
<text text-anchor="start" x="15.5" y="-111.8" font-family="Helvetica,sans-Serif" font-weight="bold" font-size="11.00" fill="#000000">reference_data_domain</text>
<text text-anchor="start" x="220.5437" y="-111.3" font-family="Helvetica,sans-Serif" font-size="11.00" fill="#000000">[table]</text>
<polygon fill="none" stroke="#000000" points="10.5,-81.2 10.5,-103.2 188.5,-103.2 188.5,-81.2 10.5,-81.2"/>
<image xlink:href="../../images/primaryKeys.png" width="11px" height="12px" preserveAspectRatio="xMinYMin meet" x="15.5" y="-98.2"/>
<text text-anchor="start" x="30.5" y="-88.3" font-family="Helvetica,sans-Serif" font-size="11.00" fill="#000000">code</text>
<polygon fill="none" stroke="#000000" points="188.5,-81.2 188.5,-103.2 255.5,-103.2 255.5,-81.2 188.5,-81.2"/>
<text text-anchor="start" x="191.5" y="-88.9" font-family="Helvetica,sans-Serif" font-size="11.00" fill="#000000">varchar[32]</text>
<polygon fill="none" stroke="#000000" points="10.5,-59.2 10.5,-81.2 188.5,-81.2 188.5,-59.2 10.5,-59.2"/>
<text text-anchor="start" x="30.5" y="-66.3" font-family="Helvetica,sans-Serif" font-size="11.00" fill="#000000">description</text>
<polygon fill="none" stroke="#000000" points="188.5,-59.2 188.5,-81.2 255.5,-81.2 255.5,-59.2 188.5,-59.2"/>
<text text-anchor="start" x="191.4365" y="-66.9" font-family="Helvetica,sans-Serif" font-size="11.00" fill="#000000">varchar[255]</text>
<polygon fill="#ffffff" stroke="transparent" points="10.5,-40.2 10.5,-59.2 103.5,-59.2 103.5,-40.2 10.5,-40.2"/>
<polygon fill="none" stroke="#000000" points="10.5,-40.2 10.5,-59.2 103.5,-59.2 103.5,-40.2 10.5,-40.2"/>
<text text-anchor="start" x="13.5" y="-46.3" font-family="Helvetica,sans-Serif" font-size="11.00" fill="#000000">&lt; 0</text>
<polygon fill="#ffffff" stroke="transparent" points="103.5,-40.2 103.5,-59.2 188.5,-59.2 188.5,-40.2 103.5,-40.2"/>
<polygon fill="none" stroke="#000000" points="103.5,-40.2 103.5,-59.2 188.5,-59.2 188.5,-40.2 103.5,-40.2"/>
<text text-anchor="start" x="179.3862" y="-46.3" font-family="Helvetica,sans-Serif" font-size="11.00" fill="#000000"> &#160;</text>
<polygon fill="#ffffff" stroke="transparent" points="188.5,-40.2 188.5,-59.2 255.5,-59.2 255.5,-40.2 188.5,-40.2"/>
<polygon fill="none" stroke="#000000" points="188.5,-40.2 188.5,-59.2 255.5,-59.2 255.5,-40.2 188.5,-40.2"/>
<text text-anchor="start" x="236.9053" y="-46.3" font-family="Helvetica,sans-Serif" font-size="11.00" fill="#000000">1 &gt;</text>
<polygon fill="none" stroke="#000000" stroke-width="2" points="9,-39.2 9,-127.2 256,-127.2 256,-39.2 9,-39.2"/>
</a>
</g>
</g>
<!-- tap.absence_categorisation_domain_link&#45;&gt;reference_data_domain -->
<g id="edge1" class="edge">
<title>tap.absence_categorisation_domain_link:w&#45;&gt;reference_data_domain:e</title>
<path fill="none" stroke="#000000" d="M291.4203,-92.2C279.5435,-92.2 272.158,-92.2 255.5,-92.2"/>
<polygon fill="#000000" stroke="#000000" points="298,-92.2001 306,-95.8 302,-92.2 306,-92.2 306,-92.2 306,-92.2 302,-92.2 306,-88.6 298,-92.2001 298,-92.2001"/>
<ellipse fill="none" stroke="#000000" cx="294.8" cy="-92.2001" rx="3.2" ry="3.2"/>
</g>
</g>
</svg>
