<?xml version="1.0" encoding="UTF-8" standalone="no"?>
<!DOCTYPE svg PUBLIC "-//W3C//DTD SVG 1.1//EN"
 "http://www.w3.org/Graphics/SVG/1.1/DTD/svg11.dtd">
<!-- Generated by graphviz version 2.40.1 (20161225.0304)
 -->
<!-- Title: oneDegreeRelationshipsDiagram Pages: 1 -->
<svg width="910pt" height="331pt"
 viewBox="0.00 0.00 910.00 331.20" xmlns="http://www.w3.org/2000/svg" xmlns:xlink="http://www.w3.org/1999/xlink">
<g id="graph0" class="graph" transform="scale(1 1) rotate(0) translate(4 327.2)">
<title>oneDegreeRelationshipsDiagram</title>
<polygon fill="#ffffff" stroke="transparent" points="-4,4 -4,-327.2 906,-327.2 906,4 -4,4"/>
<text text-anchor="middle" x="72.4936" y="-7.3" font-family="Helvetica,sans-Serif" font-size="11.00" fill="#000000">Generated by SchemaSpy</text>
<!-- reference_data -->
<g id="node1" class="node">
<title>reference_data</title>
<g id="a_node1"><a xlink:href="../../tables/reference_data.html" xlink:title="reference_data" target="_top">
<polygon fill="#ffffff" stroke="transparent" points="390.5,-170.2 390.5,-319.2 533.5,-319.2 533.5,-170.2 390.5,-170.2"/>
<polygon fill="#f5f5f5" stroke="transparent" points="391,-295.7 391,-318.7 534,-318.7 534,-295.7 391,-295.7"/>
<polygon fill="none" stroke="#000000" points="391,-295.7 391,-318.7 534,-318.7 534,-295.7 391,-295.7"/>
<text text-anchor="start" x="396" y="-304.3" font-family="Helvetica,sans-Serif" font-weight="bold" font-size="11.00" fill="#000000">reference_data</text>
<text text-anchor="start" x="499.0437" y="-303.8" font-family="Helvetica,sans-Serif" font-size="11.00" fill="#000000">[table]</text>
<polygon fill="none" stroke="#000000" points="391,-273.7 391,-295.7 534,-295.7 534,-273.7 391,-273.7"/>
<image xlink:href="../../images/primaryKeys.png" width="11px" height="12px" preserveAspectRatio="xMinYMin meet" x="396" y="-290.7"/>
<text text-anchor="start" x="411" y="-280.8" font-family="Helvetica,sans-Serif" font-size="11.00" fill="#000000">id</text>
<polygon fill="#ffffff" stroke="transparent" points="391,-251.7 391,-273.7 534,-273.7 534,-251.7 391,-251.7"/>
<polygon fill="none" stroke="#000000" points="391,-251.7 391,-273.7 534,-273.7 534,-251.7 391,-251.7"/>
<image xlink:href="../../images/foreignKeys.png" width="11px" height="12px" preserveAspectRatio="xMinYMin meet" x="396" y="-268.7"/>
<text text-anchor="start" x="411" y="-258.8" font-family="Helvetica,sans-Serif" font-size="11.00" fill="#000000">domain</text>
<polygon fill="#ffffff" stroke="transparent" points="391,-229.7 391,-251.7 534,-251.7 534,-229.7 391,-229.7"/>
<polygon fill="none" stroke="#000000" points="391,-229.7 391,-251.7 534,-251.7 534,-229.7 391,-229.7"/>
<text text-anchor="start" x="411" y="-236.8" font-family="Helvetica,sans-Serif" font-size="11.00" fill="#000000">code</text>
<polygon fill="#ffffff" stroke="transparent" points="391,-207.7 391,-229.7 534,-229.7 534,-207.7 391,-207.7"/>
<polygon fill="none" stroke="#000000" points="391,-207.7 391,-229.7 534,-229.7 534,-207.7 391,-207.7"/>
<text text-anchor="start" x="411" y="-214.8" font-family="Helvetica,sans-Serif" font-size="11.00" fill="#000000">sequence_number</text>
<polygon fill="none" stroke="#000000" points="391,-188.7 391,-207.7 534,-207.7 534,-188.7 391,-188.7"/>
<text text-anchor="start" x="394" y="-194.8" font-family="Helvetica,sans-Serif" font-size="11.00" fill="#000000">...</text>
<polygon fill="#ffffff" stroke="transparent" points="391,-169.7 391,-188.7 434,-188.7 434,-169.7 391,-169.7"/>
<polygon fill="none" stroke="#000000" points="391,-169.7 391,-188.7 434,-188.7 434,-169.7 391,-169.7"/>
<text text-anchor="start" x="394" y="-175.8" font-family="Helvetica,sans-Serif" font-size="11.00" fill="#000000">&lt; 1</text>
<polygon fill="#ffffff" stroke="transparent" points="434,-169.7 434,-188.7 495,-188.7 495,-169.7 434,-169.7"/>
<polygon fill="none" stroke="#000000" points="434,-169.7 434,-188.7 495,-188.7 495,-169.7 434,-169.7"/>
<text text-anchor="start" x="447.3807" y="-175.8" font-family="Helvetica,sans-Serif" font-size="11.00" fill="#000000">163 rows</text>
<polygon fill="#ffffff" stroke="transparent" points="495,-169.7 495,-188.7 534,-188.7 534,-169.7 495,-169.7"/>
<polygon fill="none" stroke="#000000" points="495,-169.7 495,-188.7 534,-188.7 534,-169.7 495,-169.7"/>
<text text-anchor="start" x="509.2904" y="-175.8" font-family="Helvetica,sans-Serif" font-size="11.00" fill="#000000">18 &gt;</text>
</a>
</g>
</g>
<!-- reference_data_domain -->
<g id="node2" class="node">
<title>reference_data_domain</title>
<g id="a_node2"><a xlink:href="../../tables/reference_data_domain.html" xlink:title="reference_data_domain" target="_top">
<polygon fill="#ffffff" stroke="transparent" points="8,-91.7 8,-181.7 257,-181.7 257,-91.7 8,-91.7"/>
<polygon fill="#f5f5f5" stroke="transparent" points="10.5,-156.7 10.5,-179.7 255.5,-179.7 255.5,-156.7 10.5,-156.7"/>
<polygon fill="none" stroke="#000000" points="10.5,-156.7 10.5,-179.7 255.5,-179.7 255.5,-156.7 10.5,-156.7"/>
<text text-anchor="start" x="15.5" y="-165.3" font-family="Helvetica,sans-Serif" font-weight="bold" font-size="11.00" fill="#000000">reference_data_domain</text>
<text text-anchor="start" x="220.5437" y="-164.8" font-family="Helvetica,sans-Serif" font-size="11.00" fill="#000000">[table]</text>
<polygon fill="none" stroke="#000000" points="10.5,-134.7 10.5,-156.7 188.5,-156.7 188.5,-134.7 10.5,-134.7"/>
<image xlink:href="../../images/primaryKeys.png" width="11px" height="12px" preserveAspectRatio="xMinYMin meet" x="15.5" y="-151.7"/>
<text text-anchor="start" x="30.5" y="-141.8" font-family="Helvetica,sans-Serif" font-size="11.00" fill="#000000">code</text>
<polygon fill="none" stroke="#000000" points="188.5,-134.7 188.5,-156.7 255.5,-156.7 255.5,-134.7 188.5,-134.7"/>
<text text-anchor="start" x="191.5" y="-142.4" font-family="Helvetica,sans-Serif" font-size="11.00" fill="#000000">varchar[32]</text>
<polygon fill="none" stroke="#000000" points="10.5,-112.7 10.5,-134.7 188.5,-134.7 188.5,-112.7 10.5,-112.7"/>
<text text-anchor="start" x="30.5" y="-119.8" font-family="Helvetica,sans-Serif" font-size="11.00" fill="#000000">description</text>
<polygon fill="none" stroke="#000000" points="188.5,-112.7 188.5,-134.7 255.5,-134.7 255.5,-112.7 188.5,-112.7"/>
<text text-anchor="start" x="191.4365" y="-120.4" font-family="Helvetica,sans-Serif" font-size="11.00" fill="#000000">varchar[255]</text>
<polygon fill="#ffffff" stroke="transparent" points="10.5,-93.7 10.5,-112.7 103.5,-112.7 103.5,-93.7 10.5,-93.7"/>
<polygon fill="none" stroke="#000000" points="10.5,-93.7 10.5,-112.7 103.5,-112.7 103.5,-93.7 10.5,-93.7"/>
<text text-anchor="start" x="13.5" y="-99.8" font-family="Helvetica,sans-Serif" font-size="11.00" fill="#000000">&lt; 0</text>
<polygon fill="#ffffff" stroke="transparent" points="103.5,-93.7 103.5,-112.7 188.5,-112.7 188.5,-93.7 103.5,-93.7"/>
<polygon fill="none" stroke="#000000" points="103.5,-93.7 103.5,-112.7 188.5,-112.7 188.5,-93.7 103.5,-93.7"/>
<text text-anchor="start" x="179.3862" y="-99.8" font-family="Helvetica,sans-Serif" font-size="11.00" fill="#000000"> &#160;</text>
<polygon fill="#ffffff" stroke="transparent" points="188.5,-93.7 188.5,-112.7 255.5,-112.7 255.5,-93.7 188.5,-93.7"/>
<polygon fill="none" stroke="#000000" points="188.5,-93.7 188.5,-112.7 255.5,-112.7 255.5,-93.7 188.5,-93.7"/>
<text text-anchor="start" x="236.9053" y="-99.8" font-family="Helvetica,sans-Serif" font-size="11.00" fill="#000000">3 &gt;</text>
<polygon fill="none" stroke="#000000" stroke-width="2" points="9,-92.7 9,-180.7 256,-180.7 256,-92.7 9,-92.7"/>
</a>
</g>
</g>
<!-- reference_data&#45;&gt;reference_data_domain -->
<g id="edge1" class="edge">
<title>reference_data:w&#45;&gt;reference_data_domain:e</title>
<path fill="none" stroke="#000000" d="M376.4538,-261.2207C314.1177,-247.6769 329.7821,-145.7 255.5,-145.7"/>
<polygon fill="#000000" stroke="#000000" points="383.0411,-261.8905 390.6357,-266.2815 387.0205,-262.2953 391,-262.7 391,-262.7 391,-262.7 387.0205,-262.2953 391.3643,-259.1185 383.0411,-261.8905 383.0411,-261.8905"/>
<ellipse fill="none" stroke="#000000" cx="379.8575" cy="-261.5668" rx="3.2" ry="3.2"/>
</g>
<!-- reference_data_domain_link -->
<g id="node3" class="node">
<title>reference_data_domain_link</title>
<g id="a_node3"><a xlink:href="../../tables/reference_data_domain_link.html" xlink:title="reference_data_domain_link" target="_top">
<polygon fill="#ffffff" stroke="transparent" points="667,-173.7 667,-259.7 894,-259.7 894,-173.7 667,-173.7"/>
<polygon fill="#f5f5f5" stroke="transparent" points="667.5,-236.7 667.5,-259.7 894.5,-259.7 894.5,-236.7 667.5,-236.7"/>
<polygon fill="none" stroke="#000000" points="667.5,-236.7 667.5,-259.7 894.5,-259.7 894.5,-236.7 667.5,-236.7"/>
<text text-anchor="start" x="672.5" y="-245.3" font-family="Helvetica,sans-Serif" font-weight="bold" font-size="11.00" fill="#000000">reference_data_domain_link</text>
<text text-anchor="start" x="860.0219" y="-244.8" font-family="Helvetica,sans-Serif" font-size="11.00" fill="#000000">[table]</text>
<polygon fill="none" stroke="#000000" points="667.5,-214.7 667.5,-236.7 894.5,-236.7 894.5,-214.7 667.5,-214.7"/>
<image xlink:href="../../images/primaryKeys.png" width="11px" height="12px" preserveAspectRatio="xMinYMin meet" x="672.5" y="-231.7"/>
<text text-anchor="start" x="696.5" y="-221.8" font-family="Helvetica,sans-Serif" font-size="11.00" fill="#000000">id</text>
<polygon fill="none" stroke="#000000" points="667.5,-192.7 667.5,-214.7 894.5,-214.7 894.5,-192.7 667.5,-192.7"/>
<image xlink:href="../../images/foreignKeys.png" width="11px" height="12px" preserveAspectRatio="xMinYMin meet" x="672.5" y="-209.7"/>
<text text-anchor="start" x="696.5" y="-199.8" font-family="Helvetica,sans-Serif" font-size="11.00" fill="#000000">domain</text>
<polygon fill="#ffffff" stroke="transparent" points="667.5,-173.7 667.5,-192.7 779.5,-192.7 779.5,-173.7 667.5,-173.7"/>
<polygon fill="none" stroke="#000000" points="667.5,-173.7 667.5,-192.7 779.5,-192.7 779.5,-173.7 667.5,-173.7"/>
<text text-anchor="start" x="670.5" y="-179.8" font-family="Helvetica,sans-Serif" font-size="11.00" fill="#000000">&lt; 2</text>
<polygon fill="#ffffff" stroke="transparent" points="779.5,-173.7 779.5,-192.7 836.5,-192.7 836.5,-173.7 779.5,-173.7"/>
<polygon fill="none" stroke="#000000" points="779.5,-173.7 779.5,-192.7 836.5,-192.7 836.5,-173.7 779.5,-173.7"/>
<text text-anchor="start" x="827.3862" y="-179.8" font-family="Helvetica,sans-Serif" font-size="11.00" fill="#000000"> &#160;</text>
<polygon fill="#ffffff" stroke="transparent" points="836.5,-173.7 836.5,-192.7 894.5,-192.7 894.5,-173.7 836.5,-173.7"/>
<polygon fill="none" stroke="#000000" points="836.5,-173.7 836.5,-192.7 894.5,-192.7 894.5,-173.7 836.5,-173.7"/>
<text text-anchor="start" x="885.3862" y="-179.8" font-family="Helvetica,sans-Serif" font-size="11.00" fill="#000000"> &#160;</text>
</a>
</g>
</g>
<!-- reference_data_domain_link&#45;&gt;reference_data -->
<g id="edge3" class="edge">
<title>reference_data_domain_link:w&#45;&gt;reference_data:e</title>
<path fill="none" stroke="#000000" d="M657.0432,-226.2464C602.0084,-232.1943 595.1952,-284.7 534,-284.7"/>
<polygon fill="#000000" stroke="#000000" points="666.4923,-221.7472 666.9099,-229.7363 665.312,-229.8198 664.8945,-221.8307 666.4923,-221.7472"/>
<polyline fill="none" stroke="#000000" points="667.5,-225.7 663.5054,-225.9088 "/>
<ellipse fill="none" stroke="#000000" cx="660.3098" cy="-226.0758" rx="3.2" ry="3.2"/>
</g>
<!-- reference_data_domain_link&#45;&gt;reference_data_domain -->
<g id="edge2" class="edge">
<title>reference_data_domain_link:w&#45;&gt;reference_data_domain:e</title>
<path fill="none" stroke="#000000" d="M653.7384,-198.9842C643.3535,-189.4804 644.7401,-168.2085 626,-159.7 550.9784,-125.638 337.8921,-145.7 255.5,-145.7"/>
<polygon fill="#000000" stroke="#000000" points="659.932,-201.1066 666.333,-207.1056 663.716,-202.4033 667.5,-203.7 667.5,-203.7 667.5,-203.7 663.716,-202.4033 668.667,-200.2944 659.932,-201.1066 659.932,-201.1066"/>
<ellipse fill="none" stroke="#000000" cx="656.9048" cy="-200.0692" rx="3.2" ry="3.2"/>
</g>
<!-- tap.absence_categorisation_domain_link -->
<g id="node4" class="node">
<title>tap.absence_categorisation_domain_link</title>
<g id="a_node4"><a xlink:title="tap.absence_categorisation_domain_link">
<polygon fill="#ffffff" stroke="transparent" points="306,-38.2 306,-121.2 618,-121.2 618,-38.2 306,-38.2"/>
<polygon fill="#f5f5f5" stroke="transparent" points="306,-97.7 306,-120.7 618,-120.7 618,-97.7 306,-97.7"/>
<polygon fill="none" stroke="#000000" points="306,-97.7 306,-120.7 618,-120.7 618,-97.7 306,-97.7"/>
<text text-anchor="start" x="311" y="-106.3" font-family="Helvetica,sans-Serif" font-weight="bold" font-size="11.00" fill="#000000">tap.absence_categorisation_domain_link</text>
<text text-anchor="start" x="583.5219" y="-105.8" font-family="Helvetica,sans-Serif" font-size="11.00" fill="#000000">[table]</text>
<polygon fill="none" stroke="#000000" points="306,-75.7 306,-97.7 618,-97.7 618,-75.7 306,-75.7"/>
<image xlink:href="../../images/foreignKeys.png" width="11px" height="12px" preserveAspectRatio="xMinYMin meet" x="311" y="-92.7"/>
<text text-anchor="start" x="349" y="-82.8" font-family="Helvetica,sans-Serif" font-size="11.00" fill="#000000">domain</text>
<polygon fill="none" stroke="#000000" points="306,-56.7 306,-75.7 618,-75.7 618,-56.7 306,-56.7"/>
<text text-anchor="start" x="309" y="-62.8" font-family="Helvetica,sans-Serif" font-size="11.00" fill="#000000">...</text>
<polygon fill="#ffffff" stroke="transparent" points="306,-37.7 306,-56.7 447,-56.7 447,-37.7 306,-37.7"/>
<polygon fill="none" stroke="#000000" points="306,-37.7 306,-56.7 447,-56.7 447,-37.7 306,-37.7"/>
<text text-anchor="start" x="309" y="-43.8" font-family="Helvetica,sans-Serif" font-size="11.00" fill="#000000">&lt; 1</text>
<polygon fill="#ffffff" stroke="transparent" points="447,-37.7 447,-56.7 545,-56.7 545,-37.7 447,-37.7"/>
<polygon fill="none" stroke="#000000" points="447,-37.7 447,-56.7 545,-56.7 545,-37.7 447,-37.7"/>
<text text-anchor="start" x="509.6105" y="-43.8" font-family="Helvetica,sans-Serif" font-size="11.00" fill="#000000">0 rows</text>
<polygon fill="#ffffff" stroke="transparent" points="545,-37.7 545,-56.7 618,-56.7 618,-37.7 545,-37.7"/>
<polygon fill="none" stroke="#000000" points="545,-37.7 545,-56.7 618,-56.7 618,-37.7 545,-37.7"/>
<text text-anchor="start" x="608.8862" y="-43.8" font-family="Helvetica,sans-Serif" font-size="11.00" fill="#000000"> &#160;</text>
</a>
</g>
</g>
<!-- tap.absence_categorisation_domain_link&#45;&gt;reference_data_domain -->
<g id="edge4" class="edge">
<title>tap.absence_categorisation_domain_link:w&#45;&gt;reference_data_domain:e</title>
<path fill="none" stroke="#000000" d="M291.9165,-91.7303C276.4311,-105.9982 283.814,-145.7 255.5,-145.7"/>
<polygon fill="#000000" stroke="#000000" points="298.4661,-89.391 307.2109,-90.0902 302.2331,-88.0455 306,-86.7 306,-86.7 306,-86.7 302.2331,-88.0455 304.7891,-83.3098 298.4661,-89.391 298.4661,-89.391"/>
<ellipse fill="none" stroke="#000000" cx="295.4526" cy="-90.4674" rx="3.2" ry="3.2"/>
</g>
</g>
</svg>
