<?xml version="1.0" encoding="UTF-8" standalone="no"?>
<!DOCTYPE svg PUBLIC "-//W3C//DTD SVG 1.1//EN"
 "http://www.w3.org/Graphics/SVG/1.1/DTD/svg11.dtd">
<!-- Generated by graphviz version 2.40.1 (20161225.0304)
 -->
<!-- Title: twoDegreesRelationshipsDiagram Pages: 1 -->
<svg width="1399pt" height="518pt"
 viewBox="0.00 0.00 1399.00 517.70" xmlns="http://www.w3.org/2000/svg" xmlns:xlink="http://www.w3.org/1999/xlink">
<g id="graph0" class="graph" transform="scale(1 1) rotate(0) translate(4 513.7)">
<title>twoDegreesRelationshipsDiagram</title>
<polygon fill="#ffffff" stroke="transparent" points="-4,4 -4,-513.7 1395,-513.7 1395,4 -4,4"/>
<text text-anchor="middle" x="72.4936" y="-7.3" font-family="Helvetica,sans-Serif" font-size="11.00" fill="#000000">Generated by SchemaSpy</text>
<!-- reference_data -->
<g id="node1" class="node">
<title>reference_data</title>
<g id="a_node1"><a xlink:href="../../tables/reference_data.html" xlink:title="reference_data" target="_top">
<polygon fill="#ffffff" stroke="transparent" points="253,-38.2 253,-238.2 467,-238.2 467,-38.2 253,-38.2"/>
<polygon fill="#f5f5f5" stroke="transparent" points="255,-213.2 255,-236.2 465,-236.2 465,-213.2 255,-213.2"/>
<polygon fill="none" stroke="#000000" points="255,-213.2 255,-236.2 465,-236.2 465,-213.2 255,-213.2"/>
<text text-anchor="start" x="260" y="-221.8" font-family="Helvetica,sans-Serif" font-weight="bold" font-size="11.00" fill="#000000">reference_data</text>
<text text-anchor="start" x="430.0437" y="-221.3" font-family="Helvetica,sans-Serif" font-size="11.00" fill="#000000">[table]</text>
<polygon fill="none" stroke="#000000" points="255,-191.2 255,-213.2 398,-213.2 398,-191.2 255,-191.2"/>
<image xlink:href="../../images/primaryKeys.png" width="11px" height="12px" preserveAspectRatio="xMinYMin meet" x="260" y="-208.2"/>
<text text-anchor="start" x="275" y="-198.3" font-family="Helvetica,sans-Serif" font-size="11.00" fill="#000000">id</text>
<polygon fill="none" stroke="#000000" points="398,-191.2 398,-213.2 465,-213.2 465,-191.2 398,-191.2"/>
<text text-anchor="start" x="401" y="-198.9" font-family="Helvetica,sans-Serif" font-size="11.00" fill="#000000">bigserial[19]</text>
<polygon fill="#ffffff" stroke="transparent" points="255,-169.2 255,-191.2 398,-191.2 398,-169.2 255,-169.2"/>
<polygon fill="none" stroke="#000000" points="255,-169.2 255,-191.2 398,-191.2 398,-169.2 255,-169.2"/>
<image xlink:href="../../images/foreignKeys.png" width="11px" height="12px" preserveAspectRatio="xMinYMin meet" x="260" y="-186.2"/>
<text text-anchor="start" x="275" y="-176.3" font-family="Helvetica,sans-Serif" font-size="11.00" fill="#000000">domain</text>
<polygon fill="none" stroke="#000000" points="398,-169.2 398,-191.2 465,-191.2 465,-169.2 398,-169.2"/>
<text text-anchor="start" x="401" y="-176.9" font-family="Helvetica,sans-Serif" font-size="11.00" fill="#000000">varchar[32]</text>
<polygon fill="#ffffff" stroke="transparent" points="255,-147.2 255,-169.2 398,-169.2 398,-147.2 255,-147.2"/>
<polygon fill="none" stroke="#000000" points="255,-147.2 255,-169.2 398,-169.2 398,-147.2 255,-147.2"/>
<text text-anchor="start" x="275" y="-154.3" font-family="Helvetica,sans-Serif" font-size="11.00" fill="#000000">code</text>
<polygon fill="none" stroke="#000000" points="398,-147.2 398,-169.2 465,-169.2 465,-147.2 398,-147.2"/>
<text text-anchor="start" x="401" y="-154.9" font-family="Helvetica,sans-Serif" font-size="11.00" fill="#000000">varchar[16]</text>
<polygon fill="none" stroke="#000000" points="255,-125.2 255,-147.2 398,-147.2 398,-125.2 255,-125.2"/>
<text text-anchor="start" x="275" y="-132.3" font-family="Helvetica,sans-Serif" font-size="11.00" fill="#000000">description</text>
<polygon fill="none" stroke="#000000" points="398,-125.2 398,-147.2 465,-147.2 465,-125.2 398,-125.2"/>
<text text-anchor="start" x="400.9365" y="-132.9" font-family="Helvetica,sans-Serif" font-size="11.00" fill="#000000">varchar[255]</text>
<polygon fill="none" stroke="#000000" points="255,-103.2 255,-125.2 398,-125.2 398,-103.2 255,-103.2"/>
<text text-anchor="start" x="275" y="-110.3" font-family="Helvetica,sans-Serif" font-size="11.00" fill="#000000">hint_text</text>
<polygon fill="none" stroke="#000000" points="398,-103.2 398,-125.2 465,-125.2 465,-103.2 398,-103.2"/>
<text text-anchor="start" x="400.9365" y="-110.9" font-family="Helvetica,sans-Serif" font-size="11.00" fill="#000000">varchar[255]</text>
<polygon fill="#ffffff" stroke="transparent" points="255,-81.2 255,-103.2 398,-103.2 398,-81.2 255,-81.2"/>
<polygon fill="none" stroke="#000000" points="255,-81.2 255,-103.2 398,-103.2 398,-81.2 255,-81.2"/>
<text text-anchor="start" x="275" y="-88.3" font-family="Helvetica,sans-Serif" font-size="11.00" fill="#000000">sequence_number</text>
<polygon fill="none" stroke="#000000" points="398,-81.2 398,-103.2 465,-103.2 465,-81.2 398,-81.2"/>
<text text-anchor="start" x="401" y="-88.9" font-family="Helvetica,sans-Serif" font-size="11.00" fill="#000000">int4[10]</text>
<polygon fill="none" stroke="#000000" points="255,-59.2 255,-81.2 398,-81.2 398,-59.2 255,-59.2"/>
<text text-anchor="start" x="275" y="-66.3" font-family="Helvetica,sans-Serif" font-size="11.00" fill="#000000">active</text>
<polygon fill="none" stroke="#000000" points="398,-59.2 398,-81.2 465,-81.2 465,-59.2 398,-59.2"/>
<text text-anchor="start" x="401" y="-66.9" font-family="Helvetica,sans-Serif" font-size="11.00" fill="#000000">bool[1]</text>
<polygon fill="#ffffff" stroke="transparent" points="255,-40.2 255,-59.2 312,-59.2 312,-40.2 255,-40.2"/>
<polygon fill="none" stroke="#000000" points="255,-40.2 255,-59.2 312,-59.2 312,-40.2 255,-40.2"/>
<text text-anchor="start" x="258" y="-46.3" font-family="Helvetica,sans-Serif" font-size="11.00" fill="#000000">&lt; 1</text>
<polygon fill="#ffffff" stroke="transparent" points="312,-40.2 312,-59.2 398,-59.2 398,-40.2 312,-40.2"/>
<polygon fill="none" stroke="#000000" points="312,-40.2 312,-59.2 398,-59.2 398,-40.2 312,-40.2"/>
<text text-anchor="start" x="350.3807" y="-46.3" font-family="Helvetica,sans-Serif" font-size="11.00" fill="#000000">157 rows</text>
<polygon fill="#ffffff" stroke="transparent" points="398,-40.2 398,-59.2 465,-59.2 465,-40.2 398,-40.2"/>
<polygon fill="none" stroke="#000000" points="398,-40.2 398,-59.2 465,-59.2 465,-40.2 398,-40.2"/>
<text text-anchor="start" x="440.2904" y="-46.3" font-family="Helvetica,sans-Serif" font-size="11.00" fill="#000000">12 &gt;</text>
<polygon fill="none" stroke="#000000" stroke-width="2" points="254,-39.2 254,-237.2 466,-237.2 466,-39.2 254,-39.2"/>
</a>
</g>
</g>
<!-- reference_data_domain -->
<g id="node2" class="node">
<title>reference_data_domain</title>
<g id="a_node2"><a xlink:href="../../tables/reference_data_domain.html" xlink:title="reference_data_domain" target="_top">
<polygon fill="#ffffff" stroke="transparent" points="8,-190.7 8,-251.7 204,-251.7 204,-190.7 8,-190.7"/>
<polygon fill="#f5f5f5" stroke="transparent" points="8,-228.2 8,-251.2 204,-251.2 204,-228.2 8,-228.2"/>
<polygon fill="none" stroke="#000000" points="8,-228.2 8,-251.2 204,-251.2 204,-228.2 8,-228.2"/>
<text text-anchor="start" x="13" y="-236.8" font-family="Helvetica,sans-Serif" font-weight="bold" font-size="11.00" fill="#000000">reference_data_domain</text>
<text text-anchor="start" x="169.5219" y="-236.3" font-family="Helvetica,sans-Serif" font-size="11.00" fill="#000000">[table]</text>
<polygon fill="none" stroke="#000000" points="8,-209.2 8,-228.2 204,-228.2 204,-209.2 8,-209.2"/>
<text text-anchor="start" x="11" y="-215.3" font-family="Helvetica,sans-Serif" font-size="11.00" fill="#000000">...</text>
<polygon fill="#ffffff" stroke="transparent" points="8,-190.2 8,-209.2 95,-209.2 95,-190.2 8,-190.2"/>
<polygon fill="none" stroke="#000000" points="8,-190.2 8,-209.2 95,-209.2 95,-190.2 8,-190.2"/>
<text text-anchor="start" x="11" y="-196.3" font-family="Helvetica,sans-Serif" font-size="11.00" fill="#000000"> &#160;</text>
<polygon fill="#ffffff" stroke="transparent" points="95,-190.2 95,-209.2 145,-209.2 145,-190.2 95,-190.2"/>
<polygon fill="none" stroke="#000000" points="95,-190.2 95,-209.2 145,-209.2 145,-190.2 95,-190.2"/>
<text text-anchor="start" x="135.8862" y="-196.3" font-family="Helvetica,sans-Serif" font-size="11.00" fill="#000000"> &#160;</text>
<polygon fill="#ffffff" stroke="transparent" points="145,-190.2 145,-209.2 204,-209.2 204,-190.2 145,-190.2"/>
<polygon fill="none" stroke="#000000" points="145,-190.2 145,-209.2 204,-209.2 204,-190.2 145,-190.2"/>
<text text-anchor="start" x="185.4053" y="-196.3" font-family="Helvetica,sans-Serif" font-size="11.00" fill="#000000">2 &gt;</text>
</a>
</g>
</g>
<!-- reference_data&#45;&gt;reference_data_domain -->
<g id="edge1" class="edge">
<title>reference_data:w&#45;&gt;reference_data_domain:e</title>
<path fill="none" stroke="#000000" d="M240.2564,-180.7885C227.6034,-181.7662 214.7827,-183.8978 202.3402,-186.6966"/>
<polygon fill="#000000" stroke="#000000" points="247.0064,-180.5191 255.1436,-183.7971 251.0032,-180.3595 255,-180.2 255,-180.2 255,-180.2 251.0032,-180.3595 254.8564,-176.6029 247.0064,-180.5191 247.0064,-180.5191"/>
<ellipse fill="none" stroke="#000000" cx="243.8089" cy="-180.6467" rx="3.2" ry="3.2"/>
</g>
<!-- reference_data_domain_link -->
<g id="node3" class="node">
<title>reference_data_domain_link</title>
<g id="a_node3"><a xlink:href="../../tables/reference_data_domain_link.html" xlink:title="reference_data_domain_link" target="_top">
<polygon fill="#ffffff" stroke="transparent" points="536.5,-444.7 536.5,-505.7 763.5,-505.7 763.5,-444.7 536.5,-444.7"/>
<polygon fill="#f5f5f5" stroke="transparent" points="537,-482.2 537,-505.2 764,-505.2 764,-482.2 537,-482.2"/>
<polygon fill="none" stroke="#000000" points="537,-482.2 537,-505.2 764,-505.2 764,-482.2 537,-482.2"/>
<text text-anchor="start" x="542" y="-490.8" font-family="Helvetica,sans-Serif" font-weight="bold" font-size="11.00" fill="#000000">reference_data_domain_link</text>
<text text-anchor="start" x="729.5219" y="-490.3" font-family="Helvetica,sans-Serif" font-size="11.00" fill="#000000">[table]</text>
<polygon fill="none" stroke="#000000" points="537,-463.2 537,-482.2 764,-482.2 764,-463.2 537,-463.2"/>
<text text-anchor="start" x="540" y="-469.3" font-family="Helvetica,sans-Serif" font-size="11.00" fill="#000000">...</text>
<polygon fill="#ffffff" stroke="transparent" points="537,-444.2 537,-463.2 649,-463.2 649,-444.2 537,-444.2"/>
<polygon fill="none" stroke="#000000" points="537,-444.2 537,-463.2 649,-463.2 649,-444.2 537,-444.2"/>
<text text-anchor="start" x="540" y="-450.3" font-family="Helvetica,sans-Serif" font-size="11.00" fill="#000000">&lt; 2</text>
<polygon fill="#ffffff" stroke="transparent" points="649,-444.2 649,-463.2 706,-463.2 706,-444.2 649,-444.2"/>
<polygon fill="none" stroke="#000000" points="649,-444.2 649,-463.2 706,-463.2 706,-444.2 649,-444.2"/>
<text text-anchor="start" x="696.8862" y="-450.3" font-family="Helvetica,sans-Serif" font-size="11.00" fill="#000000"> &#160;</text>
<polygon fill="#ffffff" stroke="transparent" points="706,-444.2 706,-463.2 764,-463.2 764,-444.2 706,-444.2"/>
<polygon fill="none" stroke="#000000" points="706,-444.2 706,-463.2 764,-463.2 764,-444.2 706,-444.2"/>
<text text-anchor="start" x="754.8862" y="-450.3" font-family="Helvetica,sans-Serif" font-size="11.00" fill="#000000"> &#160;</text>
</a>
</g>
</g>
<!-- reference_data_domain_link&#45;&gt;reference_data -->
<g id="edge3" class="edge">
<title>reference_data_domain_link:w&#45;&gt;reference_data:e</title>
<path fill="none" stroke="#000000" d="M519.5466,-444.8328C515.4053,-441.6273 511.5306,-438.094 508,-434.2 437.5618,-356.5109 569.8672,-202.2 465,-202.2"/>
<polygon fill="#000000" stroke="#000000" points="530.0163,-447.2187 525.4611,-453.7952 524.1458,-452.8842 528.701,-446.3077 530.0163,-447.2187"/>
<polyline fill="none" stroke="#000000" points="528.3964,-450.9625 525.1081,-448.6849 "/>
<ellipse fill="none" stroke="#000000" cx="522.4775" cy="-446.8628" rx="3.2" ry="3.2"/>
</g>
<!-- reference_data_domain_link&#45;&gt;reference_data_domain -->
<g id="edge2" class="edge">
<title>reference_data_domain_link:w&#45;&gt;reference_data_domain:e</title>
<path fill="none" stroke="#000000" d="M514.5107,-436.7723C512.3184,-435.9253 510.1466,-435.0678 508,-434.2 379.488,-382.249 238.2483,-301.4231 162.1291,-255.7282"/>
<polygon fill="#000000" stroke="#000000" points="520.6973,-439.0619 526.9505,-445.2148 524.4487,-440.4503 528.2,-441.8387 528.2,-441.8387 528.2,-441.8387 524.4487,-440.4503 529.4495,-438.4625 520.6973,-439.0619 520.6973,-439.0619"/>
<ellipse fill="none" stroke="#000000" cx="517.6963" cy="-437.9512" rx="3.2" ry="3.2"/>
</g>
<!-- reference_data_link -->
<g id="node4" class="node">
<title>reference_data_link</title>
<g id="a_node4"><a xlink:href="../../tables/reference_data_link.html" xlink:title="reference_data_link" target="_top">
<polygon fill="#ffffff" stroke="transparent" points="564.5,-293.2 564.5,-423.2 735.5,-423.2 735.5,-293.2 564.5,-293.2"/>
<polygon fill="#f5f5f5" stroke="transparent" points="565,-400.2 565,-423.2 736,-423.2 736,-400.2 565,-400.2"/>
<polygon fill="none" stroke="#000000" points="565,-400.2 565,-423.2 736,-423.2 736,-400.2 565,-400.2"/>
<text text-anchor="start" x="570" y="-408.8" font-family="Helvetica,sans-Serif" font-weight="bold" font-size="11.00" fill="#000000">reference_data_link</text>
<text text-anchor="start" x="701.5219" y="-408.3" font-family="Helvetica,sans-Serif" font-size="11.00" fill="#000000">[table]</text>
<polygon fill="none" stroke="#000000" points="565,-378.2 565,-400.2 736,-400.2 736,-378.2 565,-378.2"/>
<image xlink:href="../../images/primaryKeys.png" width="11px" height="12px" preserveAspectRatio="xMinYMin meet" x="570" y="-395.2"/>
<text text-anchor="start" x="593" y="-385.3" font-family="Helvetica,sans-Serif" font-size="11.00" fill="#000000">id</text>
<polygon fill="#ffffff" stroke="transparent" points="565,-356.2 565,-378.2 736,-378.2 736,-356.2 565,-356.2"/>
<polygon fill="none" stroke="#000000" points="565,-356.2 565,-378.2 736,-378.2 736,-356.2 565,-356.2"/>
<image xlink:href="../../images/foreignKeys.png" width="11px" height="12px" preserveAspectRatio="xMinYMin meet" x="570" y="-373.2"/>
<text text-anchor="start" x="593" y="-363.3" font-family="Helvetica,sans-Serif" font-size="11.00" fill="#000000">reference_data_id_1</text>
<polygon fill="none" stroke="#000000" points="565,-334.2 565,-356.2 736,-356.2 736,-334.2 565,-334.2"/>
<image xlink:href="../../images/foreignKeys.png" width="11px" height="12px" preserveAspectRatio="xMinYMin meet" x="570" y="-351.2"/>
<text text-anchor="start" x="593" y="-341.3" font-family="Helvetica,sans-Serif" font-size="11.00" fill="#000000">reference_data_id_2</text>
<polygon fill="#ffffff" stroke="transparent" points="565,-312.2 565,-334.2 736,-334.2 736,-312.2 565,-312.2"/>
<polygon fill="none" stroke="#000000" points="565,-312.2 565,-334.2 736,-334.2 736,-312.2 565,-312.2"/>
<text text-anchor="start" x="593" y="-319.3" font-family="Helvetica,sans-Serif" font-size="11.00" fill="#000000">sequence_number</text>
<polygon fill="#ffffff" stroke="transparent" points="565,-293.2 565,-312.2 633,-312.2 633,-293.2 565,-293.2"/>
<polygon fill="none" stroke="#000000" points="565,-293.2 565,-312.2 633,-312.2 633,-293.2 565,-293.2"/>
<text text-anchor="start" x="568" y="-299.3" font-family="Helvetica,sans-Serif" font-size="11.00" fill="#000000">&lt; 2</text>
<polygon fill="#ffffff" stroke="transparent" points="633,-293.2 633,-312.2 700,-312.2 700,-293.2 633,-293.2"/>
<polygon fill="none" stroke="#000000" points="633,-293.2 633,-312.2 700,-312.2 700,-293.2 633,-293.2"/>
<text text-anchor="start" x="658.4956" y="-299.3" font-family="Helvetica,sans-Serif" font-size="11.00" fill="#000000">64 rows</text>
<polygon fill="#ffffff" stroke="transparent" points="700,-293.2 700,-312.2 736,-312.2 736,-293.2 700,-293.2"/>
<polygon fill="none" stroke="#000000" points="700,-293.2 700,-312.2 736,-312.2 736,-293.2 700,-293.2"/>
<text text-anchor="start" x="726.8862" y="-299.3" font-family="Helvetica,sans-Serif" font-size="11.00" fill="#000000"> &#160;</text>
</a>
</g>
</g>
<!-- reference_data_link&#45;&gt;reference_data -->
<g id="edge4" class="edge">
<title>reference_data_link:w&#45;&gt;reference_data:e</title>
<path fill="none" stroke="#000000" d="M550.5475,-365.1847C521.1517,-355.6751 529.1285,-314.2854 508,-279.2 487.779,-245.6217 504.1969,-202.2 465,-202.2"/>
<polygon fill="#000000" stroke="#000000" points="557.0767,-366.0951 564.5028,-370.7655 561.0383,-366.6476 565,-367.2 565,-367.2 565,-367.2 561.0383,-366.6476 565.4972,-363.6345 557.0767,-366.0951 557.0767,-366.0951"/>
<ellipse fill="none" stroke="#000000" cx="553.9073" cy="-365.6532" rx="3.2" ry="3.2"/>
</g>
<!-- reference_data_link&#45;&gt;reference_data -->
<g id="edge5" class="edge">
<title>reference_data_link:w&#45;&gt;reference_data:e</title>
<path fill="none" stroke="#000000" d="M550.6652,-343.1646C526.8467,-335.3518 527.0169,-306.3611 508,-279.2 485.5187,-247.091 504.1969,-202.2 465,-202.2"/>
<polygon fill="#000000" stroke="#000000" points="557.0794,-344.0753 564.4939,-348.7642 561.0397,-344.6376 565,-345.2 565,-345.2 565,-345.2 561.0397,-344.6376 565.5061,-341.6358 557.0794,-344.0753 557.0794,-344.0753"/>
<ellipse fill="none" stroke="#000000" cx="553.9112" cy="-343.6254" rx="3.2" ry="3.2"/>
</g>
<!-- tap_occurrence_action -->
<g id="node5" class="node">
<title>tap_occurrence_action</title>
<g id="a_node5"><a xlink:href="../../tables/tap_occurrence_action.html" xlink:title="tap_occurrence_action" target="_top">
<polygon fill="#ffffff" stroke="transparent" points="1163.5,-213.7 1163.5,-274.7 1353.5,-274.7 1353.5,-213.7 1163.5,-213.7"/>
<polygon fill="#f5f5f5" stroke="transparent" points="1163.5,-251.2 1163.5,-274.2 1353.5,-274.2 1353.5,-251.2 1163.5,-251.2"/>
<polygon fill="none" stroke="#000000" points="1163.5,-251.2 1163.5,-274.2 1353.5,-274.2 1353.5,-251.2 1163.5,-251.2"/>
<text text-anchor="start" x="1168.5" y="-259.8" font-family="Helvetica,sans-Serif" font-weight="bold" font-size="11.00" fill="#000000">tap_occurrence_action</text>
<text text-anchor="start" x="1319.0219" y="-259.3" font-family="Helvetica,sans-Serif" font-size="11.00" fill="#000000">[table]</text>
<polygon fill="none" stroke="#000000" points="1163.5,-232.2 1163.5,-251.2 1353.5,-251.2 1353.5,-232.2 1163.5,-232.2"/>
<text text-anchor="start" x="1166.5" y="-238.3" font-family="Helvetica,sans-Serif" font-size="11.00" fill="#000000">...</text>
<polygon fill="#ffffff" stroke="transparent" points="1163.5,-213.2 1163.5,-232.2 1256.5,-232.2 1256.5,-213.2 1163.5,-213.2"/>
<polygon fill="none" stroke="#000000" points="1163.5,-213.2 1163.5,-232.2 1256.5,-232.2 1256.5,-213.2 1163.5,-213.2"/>
<text text-anchor="start" x="1166.5" y="-219.3" font-family="Helvetica,sans-Serif" font-size="11.00" fill="#000000">&lt; 1</text>
<polygon fill="#ffffff" stroke="transparent" points="1256.5,-213.2 1256.5,-232.2 1304.5,-232.2 1304.5,-213.2 1256.5,-213.2"/>
<polygon fill="none" stroke="#000000" points="1256.5,-213.2 1256.5,-232.2 1304.5,-232.2 1304.5,-213.2 1256.5,-213.2"/>
<text text-anchor="start" x="1295.3862" y="-219.3" font-family="Helvetica,sans-Serif" font-size="11.00" fill="#000000"> &#160;</text>
<polygon fill="#ffffff" stroke="transparent" points="1304.5,-213.2 1304.5,-232.2 1353.5,-232.2 1353.5,-213.2 1304.5,-213.2"/>
<polygon fill="none" stroke="#000000" points="1304.5,-213.2 1304.5,-232.2 1353.5,-232.2 1353.5,-213.2 1304.5,-213.2"/>
<text text-anchor="start" x="1344.3862" y="-219.3" font-family="Helvetica,sans-Serif" font-size="11.00" fill="#000000"> &#160;</text>
</a>
</g>
</g>
<!-- temporary_absence_occurrence -->
<g id="node6" class="node">
<title>temporary_absence_occurrence</title>
<g id="a_node6"><a xlink:href="../../tables/temporary_absence_occurrence.html" xlink:title="temporary_absence_occurrence" target="_top">
<polygon fill="#ffffff" stroke="transparent" points="833,-210.7 833,-271.7 1085,-271.7 1085,-210.7 833,-210.7"/>
<polygon fill="#f5f5f5" stroke="transparent" points="833,-248.2 833,-271.2 1085,-271.2 1085,-248.2 833,-248.2"/>
<polygon fill="none" stroke="#000000" points="833,-248.2 833,-271.2 1085,-271.2 1085,-248.2 833,-248.2"/>
<text text-anchor="start" x="838" y="-256.8" font-family="Helvetica,sans-Serif" font-weight="bold" font-size="11.00" fill="#000000">temporary_absence_occurrence</text>
<text text-anchor="start" x="1050.5219" y="-256.3" font-family="Helvetica,sans-Serif" font-size="11.00" fill="#000000">[table]</text>
<polygon fill="none" stroke="#000000" points="833,-229.2 833,-248.2 1085,-248.2 1085,-229.2 833,-229.2"/>
<text text-anchor="start" x="836" y="-235.3" font-family="Helvetica,sans-Serif" font-size="11.00" fill="#000000">...</text>
<polygon fill="#ffffff" stroke="transparent" points="833,-210.2 833,-229.2 953,-229.2 953,-210.2 833,-210.2"/>
<polygon fill="none" stroke="#000000" points="833,-210.2 833,-229.2 953,-229.2 953,-210.2 833,-210.2"/>
<text text-anchor="start" x="836" y="-216.3" font-family="Helvetica,sans-Serif" font-size="11.00" fill="#000000">&lt; 3</text>
<polygon fill="#ffffff" stroke="transparent" points="953,-210.2 953,-229.2 1014,-229.2 1014,-210.2 953,-210.2"/>
<polygon fill="none" stroke="#000000" points="953,-210.2 953,-229.2 1014,-229.2 1014,-210.2 953,-210.2"/>
<text text-anchor="start" x="1004.8862" y="-216.3" font-family="Helvetica,sans-Serif" font-size="11.00" fill="#000000"> &#160;</text>
<polygon fill="#ffffff" stroke="transparent" points="1014,-210.2 1014,-229.2 1085,-229.2 1085,-210.2 1014,-210.2"/>
<polygon fill="none" stroke="#000000" points="1014,-210.2 1014,-229.2 1085,-229.2 1085,-210.2 1014,-210.2"/>
<text text-anchor="start" x="1066.4053" y="-216.3" font-family="Helvetica,sans-Serif" font-size="11.00" fill="#000000">2 &gt;</text>
</a>
</g>
</g>
<!-- tap_occurrence_action&#45;&gt;temporary_absence_occurrence -->
<g id="edge6" class="edge">
<title>tap_occurrence_action:w&#45;&gt;temporary_absence_occurrence:e</title>
<path fill="none" stroke="#000000" d="M1148.9515,-241.2C1130.6243,-241.2 1111.6927,-241.2 1093.2031,-241.2"/>
<polygon fill="#000000" stroke="#000000" points="1155.5,-241.2001 1163.5,-244.8 1159.5,-241.2 1163.5,-241.2 1163.5,-241.2 1163.5,-241.2 1159.5,-241.2 1163.5,-237.6 1155.5,-241.2001 1155.5,-241.2001"/>
<ellipse fill="none" stroke="#000000" cx="1152.3" cy="-241.2001" rx="3.2" ry="3.2"/>
</g>
<!-- temporary_absence_occurrence&#45;&gt;reference_data -->
<g id="edge15" class="edge">
<title>temporary_absence_occurrence:w&#45;&gt;reference_data:e</title>
<path fill="none" stroke="#000000" d="M809.9038,-237.078C803.8566,-237.1228 797.8703,-237.1648 792,-237.2 665.78,-237.9558 625.1808,-284.1118 508,-237.2 483.4854,-227.3859 491.4061,-196.2 465,-202.2"/>
<polygon fill="#000000" stroke="#000000" points="816.5578,-237.0278 824.5848,-240.5671 820.5577,-236.9975 824.5576,-236.9673 824.5576,-236.9673 824.5576,-236.9673 820.5577,-236.9975 824.5304,-233.3674 816.5578,-237.0278 816.5578,-237.0278"/>
<ellipse fill="none" stroke="#000000" cx="813.3579" cy="-237.052" rx="3.2" ry="3.2"/>
</g>
<!-- temporary_absence_occurrence&#45;&gt;reference_data -->
<g id="edge17" class="edge">
<title>temporary_absence_occurrence:w&#45;&gt;reference_data:e</title>
<path fill="none" stroke="#000000" d="M809.9038,-250.0716C803.8566,-250.1228 797.8703,-250.1648 792,-250.2 665.78,-250.9558 625.1808,-297.1118 508,-250.2 483.4854,-240.3859 491.4061,-209.2 465,-202.2"/>
<polygon fill="#000000" stroke="#000000" points="816.558,-250.0071 824.5925,-253.5294 820.5578,-249.9684 824.5576,-249.9296 824.5576,-249.9296 824.5576,-249.9296 820.5578,-249.9684 824.5227,-246.3297 816.558,-250.0071 816.558,-250.0071"/>
<ellipse fill="none" stroke="#000000" cx="813.3581" cy="-250.0382" rx="3.2" ry="3.2"/>
</g>
<!-- temporary_absence_authorisation -->
<g id="node7" class="node">
<title>temporary_absence_authorisation</title>
<g id="a_node7"><a xlink:href="../../tables/temporary_absence_authorisation.html" xlink:title="temporary_absence_authorisation" target="_top">
<polygon fill="#ffffff" stroke="transparent" points="516,-171.7 516,-232.7 784,-232.7 784,-171.7 516,-171.7"/>
<polygon fill="#f5f5f5" stroke="transparent" points="516,-209.2 516,-232.2 784,-232.2 784,-209.2 516,-209.2"/>
<polygon fill="none" stroke="#000000" points="516,-209.2 516,-232.2 784,-232.2 784,-209.2 516,-209.2"/>
<text text-anchor="start" x="521" y="-217.8" font-family="Helvetica,sans-Serif" font-weight="bold" font-size="11.00" fill="#000000">temporary_absence_authorisation</text>
<text text-anchor="start" x="749.5219" y="-217.3" font-family="Helvetica,sans-Serif" font-size="11.00" fill="#000000">[table]</text>
<polygon fill="none" stroke="#000000" points="516,-190.2 516,-209.2 784,-209.2 784,-190.2 516,-190.2"/>
<text text-anchor="start" x="519" y="-196.3" font-family="Helvetica,sans-Serif" font-size="11.00" fill="#000000">...</text>
<polygon fill="#ffffff" stroke="transparent" points="516,-171.2 516,-190.2 644,-190.2 644,-171.2 516,-171.2"/>
<polygon fill="none" stroke="#000000" points="516,-171.2 516,-190.2 644,-190.2 644,-171.2 516,-171.2"/>
<text text-anchor="start" x="519" y="-177.3" font-family="Helvetica,sans-Serif" font-size="11.00" fill="#000000">&lt; 5</text>
<polygon fill="#ffffff" stroke="transparent" points="644,-171.2 644,-190.2 709,-190.2 709,-171.2 644,-171.2"/>
<polygon fill="none" stroke="#000000" points="644,-171.2 644,-190.2 709,-190.2 709,-171.2 644,-171.2"/>
<text text-anchor="start" x="699.8862" y="-177.3" font-family="Helvetica,sans-Serif" font-size="11.00" fill="#000000"> &#160;</text>
<polygon fill="#ffffff" stroke="transparent" points="709,-171.2 709,-190.2 784,-190.2 784,-171.2 709,-171.2"/>
<polygon fill="none" stroke="#000000" points="709,-171.2 709,-190.2 784,-190.2 784,-171.2 709,-171.2"/>
<text text-anchor="start" x="765.4053" y="-177.3" font-family="Helvetica,sans-Serif" font-size="11.00" fill="#000000">1 &gt;</text>
</a>
</g>
</g>
<!-- temporary_absence_occurrence&#45;&gt;temporary_absence_authorisation -->
<g id="edge16" class="edge">
<title>temporary_absence_occurrence:w&#45;&gt;temporary_absence_authorisation:e</title>
<path fill="none" stroke="#000000" d="M810.3949,-222.444C804.3897,-221.6861 798.3727,-220.9266 792.3801,-220.1703"/>
<polygon fill="#000000" stroke="#000000" points="816.8792,-223.2624 824.3654,-227.8358 820.8477,-223.7633 824.8162,-224.2642 824.8162,-224.2642 824.8162,-224.2642 820.8477,-223.7633 825.267,-220.6925 816.8792,-223.2624 816.8792,-223.2624"/>
<ellipse fill="none" stroke="#000000" cx="813.7044" cy="-222.8616" rx="3.2" ry="3.2"/>
</g>
<!-- temporary_absence_authorisation&#45;&gt;reference_data -->
<g id="edge7" class="edge">
<title>temporary_absence_authorisation:w&#45;&gt;reference_data:e</title>
<path fill="none" stroke="#000000" d="M493.6133,-194.3512C483.931,-196.6325 474.3331,-199.2487 465,-202.2"/>
<polygon fill="#000000" stroke="#000000" points="500.0223,-192.9534 508.6057,-194.7659 503.9304,-192.101 507.8386,-191.2486 507.8386,-191.2486 507.8386,-191.2486 503.9304,-192.101 507.0714,-187.7313 500.0223,-192.9534 500.0223,-192.9534"/>
<ellipse fill="none" stroke="#000000" cx="496.8958" cy="-193.6353" rx="3.2" ry="3.2"/>
</g>
<!-- temporary_absence_authorisation&#45;&gt;reference_data -->
<g id="edge8" class="edge">
<title>temporary_absence_authorisation:w&#45;&gt;reference_data:e</title>
<path fill="none" stroke="#000000" d="M493.2756,-198.3155C483.7078,-199.4467 474.2245,-200.7415 465,-202.2"/>
<polygon fill="#000000" stroke="#000000" points="499.8859,-197.5933 508.2296,-200.303 503.8622,-197.1588 507.8386,-196.7243 507.8386,-196.7243 507.8386,-196.7243 503.8622,-197.1588 507.4475,-193.1456 499.8859,-197.5933 499.8859,-197.5933"/>
<ellipse fill="none" stroke="#000000" cx="496.7048" cy="-197.9408" rx="3.2" ry="3.2"/>
</g>
<!-- temporary_absence_authorisation&#45;&gt;reference_data -->
<g id="edge9" class="edge">
<title>temporary_absence_authorisation:w&#45;&gt;reference_data:e</title>
<path fill="none" stroke="#000000" d="M493.2756,-202.2C483.7078,-202.2 474.2245,-202.2 465,-202.2"/>
<polygon fill="#000000" stroke="#000000" points="499.8386,-202.2001 507.8386,-205.8 503.8386,-202.2 507.8386,-202.2 507.8386,-202.2 507.8386,-202.2 503.8386,-202.2 507.8385,-198.6 499.8386,-202.2001 499.8386,-202.2001"/>
<ellipse fill="none" stroke="#000000" cx="496.6386" cy="-202.2001" rx="3.2" ry="3.2"/>
</g>
<!-- temporary_absence_authorisation&#45;&gt;reference_data -->
<g id="edge10" class="edge">
<title>temporary_absence_authorisation:w&#45;&gt;reference_data:e</title>
<path fill="none" stroke="#000000" d="M493.2756,-206.0845C483.7078,-204.9533 474.2245,-203.6585 465,-202.2"/>
<polygon fill="#000000" stroke="#000000" points="499.8859,-206.8067 507.4475,-211.2544 503.8622,-207.2412 507.8386,-207.6757 507.8386,-207.6757 507.8386,-207.6757 503.8622,-207.2412 508.2296,-204.097 499.8859,-206.8067 499.8859,-206.8067"/>
<ellipse fill="none" stroke="#000000" cx="496.7048" cy="-206.4592" rx="3.2" ry="3.2"/>
</g>
<!-- temporary_absence_authorisation&#45;&gt;reference_data -->
<g id="edge11" class="edge">
<title>temporary_absence_authorisation:w&#45;&gt;reference_data:e</title>
<path fill="none" stroke="#000000" d="M493.6133,-210.0488C483.931,-207.7675 474.3331,-205.1513 465,-202.2"/>
<polygon fill="#000000" stroke="#000000" points="500.0223,-211.4466 507.0714,-216.6687 503.9304,-212.299 507.8386,-213.1514 507.8386,-213.1514 507.8386,-213.1514 503.9304,-212.299 508.6057,-209.6341 500.0223,-211.4466 500.0223,-211.4466"/>
<ellipse fill="none" stroke="#000000" cx="496.8958" cy="-210.7647" rx="3.2" ry="3.2"/>
</g>
<!-- temporary_absence_movement -->
<g id="node8" class="node">
<title>temporary_absence_movement</title>
<g id="a_node8"><a xlink:href="../../tables/temporary_absence_movement.html" xlink:title="temporary_absence_movement" target="_top">
<polygon fill="#ffffff" stroke="transparent" points="1134,-110.7 1134,-171.7 1383,-171.7 1383,-110.7 1134,-110.7"/>
<polygon fill="#f5f5f5" stroke="transparent" points="1134.5,-148.2 1134.5,-171.2 1383.5,-171.2 1383.5,-148.2 1134.5,-148.2"/>
<polygon fill="none" stroke="#000000" points="1134.5,-148.2 1134.5,-171.2 1383.5,-171.2 1383.5,-148.2 1134.5,-148.2"/>
<text text-anchor="start" x="1139.5" y="-156.8" font-family="Helvetica,sans-Serif" font-weight="bold" font-size="11.00" fill="#000000">temporary_absence_movement</text>
<text text-anchor="start" x="1349.0219" y="-156.3" font-family="Helvetica,sans-Serif" font-size="11.00" fill="#000000">[table]</text>
<polygon fill="none" stroke="#000000" points="1134.5,-129.2 1134.5,-148.2 1383.5,-148.2 1383.5,-129.2 1134.5,-129.2"/>
<text text-anchor="start" x="1137.5" y="-135.3" font-family="Helvetica,sans-Serif" font-size="11.00" fill="#000000">...</text>
<polygon fill="#ffffff" stroke="transparent" points="1134.5,-110.2 1134.5,-129.2 1257.5,-129.2 1257.5,-110.2 1134.5,-110.2"/>
<polygon fill="none" stroke="#000000" points="1134.5,-110.2 1134.5,-129.2 1257.5,-129.2 1257.5,-110.2 1134.5,-110.2"/>
<text text-anchor="start" x="1137.5" y="-116.3" font-family="Helvetica,sans-Serif" font-size="11.00" fill="#000000">&lt; 3</text>
<polygon fill="#ffffff" stroke="transparent" points="1257.5,-110.2 1257.5,-129.2 1320.5,-129.2 1320.5,-110.2 1257.5,-110.2"/>
<polygon fill="none" stroke="#000000" points="1257.5,-110.2 1257.5,-129.2 1320.5,-129.2 1320.5,-110.2 1257.5,-110.2"/>
<text text-anchor="start" x="1311.3862" y="-116.3" font-family="Helvetica,sans-Serif" font-size="11.00" fill="#000000"> &#160;</text>
<polygon fill="#ffffff" stroke="transparent" points="1320.5,-110.2 1320.5,-129.2 1383.5,-129.2 1383.5,-110.2 1320.5,-110.2"/>
<polygon fill="none" stroke="#000000" points="1320.5,-110.2 1320.5,-129.2 1383.5,-129.2 1383.5,-110.2 1320.5,-110.2"/>
<text text-anchor="start" x="1374.3862" y="-116.3" font-family="Helvetica,sans-Serif" font-size="11.00" fill="#000000"> &#160;</text>
</a>
</g>
</g>
<!-- temporary_absence_movement&#45;&gt;reference_data -->
<g id="edge12" class="edge">
<title>temporary_absence_movement:w&#45;&gt;reference_data:e</title>
<path fill="none" stroke="#000000" d="M1111.4419,-110.5147C955.2708,-87.8447 704.357,-73.5397 508,-155.2 483.6183,-165.3398 491.4061,-196.2 465,-202.2"/>
<polygon fill="#000000" stroke="#000000" points="1117.8747,-111.4766 1125.2543,-116.2201 1121.8307,-112.0681 1125.7867,-112.6597 1125.7867,-112.6597 1125.7867,-112.6597 1121.8307,-112.0681 1126.3191,-109.0993 1117.8747,-111.4766 1117.8747,-111.4766"/>
<ellipse fill="none" stroke="#000000" cx="1114.7098" cy="-111.0033" rx="3.2" ry="3.2"/>
</g>
<!-- temporary_absence_movement&#45;&gt;reference_data -->
<g id="edge13" class="edge">
<title>temporary_absence_movement:w&#45;&gt;reference_data:e</title>
<path fill="none" stroke="#000000" d="M1111.4419,-120.1493C955.2708,-100.8447 704.357,-86.5397 508,-168.2 483.6183,-178.3398 491.4061,-209.2 465,-202.2"/>
<polygon fill="#000000" stroke="#000000" points="1117.8503,-120.9623 1125.3336,-125.5406 1121.8185,-121.4657 1125.7867,-121.9692 1125.7867,-121.9692 1125.7867,-121.9692 1121.8185,-121.4657 1126.2398,-118.3978 1117.8503,-120.9623 1117.8503,-120.9623"/>
<ellipse fill="none" stroke="#000000" cx="1114.6757" cy="-120.5595" rx="3.2" ry="3.2"/>
</g>
<!-- temporary_absence_movement&#45;&gt;temporary_absence_occurrence -->
<g id="edge14" class="edge">
<title>temporary_absence_movement:w&#45;&gt;temporary_absence_occurrence:e</title>
<path fill="none" stroke="#000000" d="M1141.161,-180.3783C1115.1946,-189.0482 1087.8626,-198.1741 1062.4944,-206.6443"/>
<polygon fill="#000000" stroke="#000000" points="1147.4215,-178.288 1156.1499,-179.169 1151.2156,-177.0212 1155.0097,-175.7544 1155.0097,-175.7544 1155.0097,-175.7544 1151.2156,-177.0212 1153.8696,-172.3397 1147.4215,-178.288 1147.4215,-178.288"/>
<ellipse fill="none" stroke="#000000" cx="1144.3862" cy="-179.3015" rx="3.2" ry="3.2"/>
</g>
</g>
</svg>
