<?xml version="1.0" encoding="UTF-8" standalone="no"?>
<!DOCTYPE svg PUBLIC "-//W3C//DTD SVG 1.1//EN"
 "http://www.w3.org/Graphics/SVG/1.1/DTD/svg11.dtd">
<!-- Generated by graphviz version 2.40.1 (20161225.0304)
 -->
<!-- Title: twoDegreesRelationshipsDiagram Pages: 1 -->
<svg width="1033pt" height="426pt"
 viewBox="0.00 0.00 1033.00 425.70" xmlns="http://www.w3.org/2000/svg" xmlns:xlink="http://www.w3.org/1999/xlink">
<g id="graph0" class="graph" transform="scale(1 1) rotate(0) translate(4 421.7)">
<title>twoDegreesRelationshipsDiagram</title>
<polygon fill="#ffffff" stroke="transparent" points="-4,4 -4,-421.7 1029,-421.7 1029,4 -4,4"/>
<text text-anchor="middle" x="72.4936" y="-7.3" font-family="Helvetica,sans-Serif" font-size="11.00" fill="#000000">Generated by SchemaSpy</text>
<!-- reference_data -->
<g id="node1" class="node">
<title>reference_data</title>
<g id="a_node1"><a xlink:href="../../tables/reference_data.html" xlink:title="reference_data" target="_top">
<polygon fill="#ffffff" stroke="transparent" points="253,-117.2 253,-178.2 393,-178.2 393,-117.2 253,-117.2"/>
<polygon fill="#f5f5f5" stroke="transparent" points="253,-154.7 253,-177.7 393,-177.7 393,-154.7 253,-154.7"/>
<polygon fill="none" stroke="#000000" points="253,-154.7 253,-177.7 393,-177.7 393,-154.7 253,-154.7"/>
<text text-anchor="start" x="258" y="-163.3" font-family="Helvetica,sans-Serif" font-weight="bold" font-size="11.00" fill="#000000">reference_data</text>
<text text-anchor="start" x="358.5219" y="-162.8" font-family="Helvetica,sans-Serif" font-size="11.00" fill="#000000">[table]</text>
<polygon fill="none" stroke="#000000" points="253,-135.7 253,-154.7 393,-154.7 393,-135.7 253,-135.7"/>
<text text-anchor="start" x="256" y="-141.8" font-family="Helvetica,sans-Serif" font-size="11.00" fill="#000000">...</text>
<polygon fill="#ffffff" stroke="transparent" points="253,-116.7 253,-135.7 295,-135.7 295,-116.7 253,-116.7"/>
<polygon fill="none" stroke="#000000" points="253,-116.7 253,-135.7 295,-135.7 295,-116.7 253,-116.7"/>
<text text-anchor="start" x="256" y="-122.8" font-family="Helvetica,sans-Serif" font-size="11.00" fill="#000000">&lt; 1</text>
<polygon fill="#ffffff" stroke="transparent" points="295,-116.7 295,-135.7 355,-135.7 355,-116.7 295,-116.7"/>
<polygon fill="none" stroke="#000000" points="295,-116.7 295,-135.7 355,-135.7 355,-116.7 295,-116.7"/>
<text text-anchor="start" x="307.3807" y="-122.8" font-family="Helvetica,sans-Serif" font-size="11.00" fill="#000000">158 rows</text>
<polygon fill="#ffffff" stroke="transparent" points="355,-116.7 355,-135.7 393,-135.7 393,-116.7 355,-116.7"/>
<polygon fill="none" stroke="#000000" points="355,-116.7 355,-135.7 393,-135.7 393,-116.7 355,-116.7"/>
<text text-anchor="start" x="368.2904" y="-122.8" font-family="Helvetica,sans-Serif" font-size="11.00" fill="#000000">12 &gt;</text>
</a>
</g>
</g>
<!-- reference_data_domain -->
<g id="node2" class="node">
<title>reference_data_domain</title>
<g id="a_node2"><a xlink:href="../../tables/reference_data_domain.html" xlink:title="reference_data_domain" target="_top">
<polygon fill="#ffffff" stroke="transparent" points="8,-182.2 8,-243.2 204,-243.2 204,-182.2 8,-182.2"/>
<polygon fill="#f5f5f5" stroke="transparent" points="8,-219.7 8,-242.7 204,-242.7 204,-219.7 8,-219.7"/>
<polygon fill="none" stroke="#000000" points="8,-219.7 8,-242.7 204,-242.7 204,-219.7 8,-219.7"/>
<text text-anchor="start" x="13" y="-228.3" font-family="Helvetica,sans-Serif" font-weight="bold" font-size="11.00" fill="#000000">reference_data_domain</text>
<text text-anchor="start" x="169.5219" y="-227.8" font-family="Helvetica,sans-Serif" font-size="11.00" fill="#000000">[table]</text>
<polygon fill="none" stroke="#000000" points="8,-200.7 8,-219.7 204,-219.7 204,-200.7 8,-200.7"/>
<text text-anchor="start" x="11" y="-206.8" font-family="Helvetica,sans-Serif" font-size="11.00" fill="#000000">...</text>
<polygon fill="#ffffff" stroke="transparent" points="8,-181.7 8,-200.7 95,-200.7 95,-181.7 8,-181.7"/>
<polygon fill="none" stroke="#000000" points="8,-181.7 8,-200.7 95,-200.7 95,-181.7 8,-181.7"/>
<text text-anchor="start" x="11" y="-187.8" font-family="Helvetica,sans-Serif" font-size="11.00" fill="#000000"> &#160;</text>
<polygon fill="#ffffff" stroke="transparent" points="95,-181.7 95,-200.7 145,-200.7 145,-181.7 95,-181.7"/>
<polygon fill="none" stroke="#000000" points="95,-181.7 95,-200.7 145,-200.7 145,-181.7 95,-181.7"/>
<text text-anchor="start" x="135.8862" y="-187.8" font-family="Helvetica,sans-Serif" font-size="11.00" fill="#000000"> &#160;</text>
<polygon fill="#ffffff" stroke="transparent" points="145,-181.7 145,-200.7 204,-200.7 204,-181.7 145,-181.7"/>
<polygon fill="none" stroke="#000000" points="145,-181.7 145,-200.7 204,-200.7 204,-181.7 145,-181.7"/>
<text text-anchor="start" x="185.4053" y="-187.8" font-family="Helvetica,sans-Serif" font-size="11.00" fill="#000000">2 &gt;</text>
</a>
</g>
</g>
<!-- reference_data&#45;&gt;reference_data_domain -->
<g id="edge1" class="edge">
<title>reference_data:w&#45;&gt;reference_data_domain:e</title>
<path fill="none" stroke="#000000" d="M230.98,-175.2636C224.7201,-177.1387 218.3853,-179.0362 212.0615,-180.9304"/>
<polygon fill="#000000" stroke="#000000" points="237.301,-173.3702 245.9976,-174.5233 241.1328,-172.2225 244.9646,-171.0747 244.9646,-171.0747 244.9646,-171.0747 241.1328,-172.2225 243.9316,-167.626 237.301,-173.3702 237.301,-173.3702"/>
<ellipse fill="none" stroke="#000000" cx="234.2356" cy="-174.2885" rx="3.2" ry="3.2"/>
</g>
<!-- reference_data_domain_link -->
<g id="node3" class="node">
<title>reference_data_domain_link</title>
<g id="a_node3"><a xlink:href="../../tables/reference_data_domain_link.html" xlink:title="reference_data_domain_link" target="_top">
<polygon fill="#ffffff" stroke="transparent" points="442,-323.7 442,-413.7 716,-413.7 716,-323.7 442,-323.7"/>
<polygon fill="#f5f5f5" stroke="transparent" points="444,-388.7 444,-411.7 714,-411.7 714,-388.7 444,-388.7"/>
<polygon fill="none" stroke="#000000" points="444,-388.7 444,-411.7 714,-411.7 714,-388.7 444,-388.7"/>
<text text-anchor="start" x="449" y="-397.3" font-family="Helvetica,sans-Serif" font-weight="bold" font-size="11.00" fill="#000000">reference_data_domain_link</text>
<text text-anchor="start" x="679.0437" y="-396.8" font-family="Helvetica,sans-Serif" font-size="11.00" fill="#000000">[table]</text>
<polygon fill="none" stroke="#000000" points="444,-366.7 444,-388.7 653,-388.7 653,-366.7 444,-366.7"/>
<image xlink:href="../../images/primaryKeys.png" width="11px" height="12px" preserveAspectRatio="xMinYMin meet" x="449" y="-383.7"/>
<text text-anchor="start" x="464" y="-373.8" font-family="Helvetica,sans-Serif" font-size="11.00" fill="#000000">id</text>
<polygon fill="none" stroke="#000000" points="653,-366.7 653,-388.7 714,-388.7 714,-366.7 653,-366.7"/>
<text text-anchor="start" x="656" y="-374.4" font-family="Helvetica,sans-Serif" font-size="11.00" fill="#000000">int8[19]</text>
<polygon fill="none" stroke="#000000" points="444,-344.7 444,-366.7 653,-366.7 653,-344.7 444,-344.7"/>
<image xlink:href="../../images/foreignKeys.png" width="11px" height="12px" preserveAspectRatio="xMinYMin meet" x="449" y="-361.7"/>
<text text-anchor="start" x="464" y="-351.8" font-family="Helvetica,sans-Serif" font-size="11.00" fill="#000000">domain</text>
<polygon fill="none" stroke="#000000" points="653,-344.7 653,-366.7 714,-366.7 714,-344.7 653,-344.7"/>
<text text-anchor="start" x="655.994" y="-352.4" font-family="Helvetica,sans-Serif" font-size="11.00" fill="#000000">varchar[32]</text>
<polygon fill="#ffffff" stroke="transparent" points="444,-325.7 444,-344.7 553,-344.7 553,-325.7 444,-325.7"/>
<polygon fill="none" stroke="#000000" points="444,-325.7 444,-344.7 553,-344.7 553,-325.7 444,-325.7"/>
<text text-anchor="start" x="447" y="-331.8" font-family="Helvetica,sans-Serif" font-size="11.00" fill="#000000">&lt; 2</text>
<polygon fill="#ffffff" stroke="transparent" points="553,-325.7 553,-344.7 653,-344.7 653,-325.7 553,-325.7"/>
<polygon fill="none" stroke="#000000" points="553,-325.7 553,-344.7 653,-344.7 653,-325.7 553,-325.7"/>
<text text-anchor="start" x="643.8862" y="-331.8" font-family="Helvetica,sans-Serif" font-size="11.00" fill="#000000"> &#160;</text>
<polygon fill="#ffffff" stroke="transparent" points="653,-325.7 653,-344.7 714,-344.7 714,-325.7 653,-325.7"/>
<polygon fill="none" stroke="#000000" points="653,-325.7 653,-344.7 714,-344.7 714,-325.7 653,-325.7"/>
<text text-anchor="start" x="695.4053" y="-331.8" font-family="Helvetica,sans-Serif" font-size="11.00" fill="#000000">0 &gt;</text>
<polygon fill="none" stroke="#000000" stroke-width="2" points="443,-324.7 443,-412.7 715,-412.7 715,-324.7 443,-324.7"/>
</a>
</g>
</g>
<!-- reference_data_domain_link&#45;&gt;reference_data -->
<g id="edge3" class="edge">
<title>reference_data_domain_link:w&#45;&gt;reference_data:e</title>
<path fill="none" stroke="#000000" d="M433.282,-376.5902C396.7104,-368.0079 422.9211,-311.4125 401,-268.7 385.4226,-238.348 364.2812,-205.9626 347.938,-182.3415"/>
<polygon fill="#000000" stroke="#000000" points="443.6163,-373.6389 442.7922,-381.5963 441.2007,-381.4315 442.0248,-373.4741 443.6163,-373.6389"/>
<polyline fill="none" stroke="#000000" points="444,-377.7 440.0213,-377.288 "/>
<ellipse fill="none" stroke="#000000" cx="436.8383" cy="-376.9584" rx="3.2" ry="3.2"/>
</g>
<!-- reference_data_domain_link&#45;&gt;reference_data_domain -->
<g id="edge2" class="edge">
<title>reference_data_domain_link:w&#45;&gt;reference_data_domain:e</title>
<path fill="none" stroke="#000000" d="M429.3573,-355.3249C323.0143,-349.9396 214.0543,-287.7777 153.6957,-247.3163"/>
<polygon fill="#000000" stroke="#000000" points="436.0026,-355.4951 443.9078,-359.2988 440.0013,-355.5975 444,-355.7 444,-355.7 444,-355.7 440.0013,-355.5975 444.0922,-352.1012 436.0026,-355.4951 436.0026,-355.4951"/>
<ellipse fill="none" stroke="#000000" cx="432.8037" cy="-355.4131" rx="3.2" ry="3.2"/>
</g>
<!-- reference_data_link -->
<g id="node4" class="node">
<title>reference_data_link</title>
<g id="a_node4"><a xlink:href="../../tables/reference_data_link.html" xlink:title="reference_data_link" target="_top">
<polygon fill="#ffffff" stroke="transparent" points="493.5,-38.2 493.5,-99.2 664.5,-99.2 664.5,-38.2 493.5,-38.2"/>
<polygon fill="#f5f5f5" stroke="transparent" points="494,-75.7 494,-98.7 665,-98.7 665,-75.7 494,-75.7"/>
<polygon fill="none" stroke="#000000" points="494,-75.7 494,-98.7 665,-98.7 665,-75.7 494,-75.7"/>
<text text-anchor="start" x="499" y="-84.3" font-family="Helvetica,sans-Serif" font-weight="bold" font-size="11.00" fill="#000000">reference_data_link</text>
<text text-anchor="start" x="630.5219" y="-83.8" font-family="Helvetica,sans-Serif" font-size="11.00" fill="#000000">[table]</text>
<polygon fill="none" stroke="#000000" points="494,-56.7 494,-75.7 665,-75.7 665,-56.7 494,-56.7"/>
<text text-anchor="start" x="497" y="-62.8" font-family="Helvetica,sans-Serif" font-size="11.00" fill="#000000">...</text>
<polygon fill="#ffffff" stroke="transparent" points="494,-37.7 494,-56.7 562,-56.7 562,-37.7 494,-37.7"/>
<polygon fill="none" stroke="#000000" points="494,-37.7 494,-56.7 562,-56.7 562,-37.7 494,-37.7"/>
<text text-anchor="start" x="497" y="-43.8" font-family="Helvetica,sans-Serif" font-size="11.00" fill="#000000">&lt; 2</text>
<polygon fill="#ffffff" stroke="transparent" points="562,-37.7 562,-56.7 629,-56.7 629,-37.7 562,-37.7"/>
<polygon fill="none" stroke="#000000" points="562,-37.7 562,-56.7 629,-56.7 629,-37.7 562,-37.7"/>
<text text-anchor="start" x="587.4956" y="-43.8" font-family="Helvetica,sans-Serif" font-size="11.00" fill="#000000">64 rows</text>
<polygon fill="#ffffff" stroke="transparent" points="629,-37.7 629,-56.7 665,-56.7 665,-37.7 629,-37.7"/>
<polygon fill="none" stroke="#000000" points="629,-37.7 629,-56.7 665,-56.7 665,-37.7 629,-37.7"/>
<text text-anchor="start" x="655.8862" y="-43.8" font-family="Helvetica,sans-Serif" font-size="11.00" fill="#000000"> &#160;</text>
</a>
</g>
</g>
<!-- reference_data_link&#45;&gt;reference_data -->
<g id="edge4" class="edge">
<title>reference_data_link:w&#45;&gt;reference_data:e</title>
<path fill="none" stroke="#000000" d="M479.4759,-65.5057C434.7717,-67.3963 390.8247,-91.4011 360.9418,-113.0382"/>
<polygon fill="#000000" stroke="#000000" points="486.0007,-65.5929 493.9518,-69.2997 490.0004,-65.6465 494,-65.7 494,-65.7 494,-65.7 490.0004,-65.6465 494.0482,-62.1003 486.0007,-65.5929 486.0007,-65.5929"/>
<ellipse fill="none" stroke="#000000" cx="482.801" cy="-65.5501" rx="3.2" ry="3.2"/>
</g>
<!-- reference_data_link&#45;&gt;reference_data -->
<g id="edge5" class="edge">
<title>reference_data_link:w&#45;&gt;reference_data:e</title>
<path fill="none" stroke="#000000" d="M479.6428,-67.5865C441.4651,-74.3746 403.8274,-94.6444 375.0172,-113.149"/>
<polygon fill="#000000" stroke="#000000" points="486.0682,-66.7422 494.469,-69.2693 490.0341,-66.2211 494,-65.7 494,-65.7 494,-65.7 490.0341,-66.2211 493.531,-62.1307 486.0682,-66.7422 486.0682,-66.7422"/>
<ellipse fill="none" stroke="#000000" cx="482.8954" cy="-67.1591" rx="3.2" ry="3.2"/>
</g>
<!-- temporary_absence_authorisation -->
<g id="node5" class="node">
<title>temporary_absence_authorisation</title>
<g id="a_node5"><a xlink:href="../../tables/temporary_absence_authorisation.html" xlink:title="temporary_absence_authorisation" target="_top">
<polygon fill="#ffffff" stroke="transparent" points="445,-120.2 445,-181.2 713,-181.2 713,-120.2 445,-120.2"/>
<polygon fill="#f5f5f5" stroke="transparent" points="445,-157.7 445,-180.7 713,-180.7 713,-157.7 445,-157.7"/>
<polygon fill="none" stroke="#000000" points="445,-157.7 445,-180.7 713,-180.7 713,-157.7 445,-157.7"/>
<text text-anchor="start" x="450" y="-166.3" font-family="Helvetica,sans-Serif" font-weight="bold" font-size="11.00" fill="#000000">temporary_absence_authorisation</text>
<text text-anchor="start" x="678.5219" y="-165.8" font-family="Helvetica,sans-Serif" font-size="11.00" fill="#000000">[table]</text>
<polygon fill="none" stroke="#000000" points="445,-138.7 445,-157.7 713,-157.7 713,-138.7 445,-138.7"/>
<text text-anchor="start" x="448" y="-144.8" font-family="Helvetica,sans-Serif" font-size="11.00" fill="#000000">...</text>
<polygon fill="#ffffff" stroke="transparent" points="445,-119.7 445,-138.7 573,-138.7 573,-119.7 445,-119.7"/>
<polygon fill="none" stroke="#000000" points="445,-119.7 445,-138.7 573,-138.7 573,-119.7 445,-119.7"/>
<text text-anchor="start" x="448" y="-125.8" font-family="Helvetica,sans-Serif" font-size="11.00" fill="#000000">&lt; 5</text>
<polygon fill="#ffffff" stroke="transparent" points="573,-119.7 573,-138.7 638,-138.7 638,-119.7 573,-119.7"/>
<polygon fill="none" stroke="#000000" points="573,-119.7 573,-138.7 638,-138.7 638,-119.7 573,-119.7"/>
<text text-anchor="start" x="628.8862" y="-125.8" font-family="Helvetica,sans-Serif" font-size="11.00" fill="#000000"> &#160;</text>
<polygon fill="#ffffff" stroke="transparent" points="638,-119.7 638,-138.7 713,-138.7 713,-119.7 638,-119.7"/>
<polygon fill="none" stroke="#000000" points="638,-119.7 638,-138.7 713,-138.7 713,-119.7 638,-119.7"/>
<text text-anchor="start" x="694.4053" y="-125.8" font-family="Helvetica,sans-Serif" font-size="11.00" fill="#000000">1 &gt;</text>
</a>
</g>
</g>
<!-- temporary_absence_authorisation&#45;&gt;reference_data -->
<g id="edge6" class="edge">
<title>temporary_absence_authorisation:w&#45;&gt;reference_data:e</title>
<path fill="none" stroke="#000000" d="M431.4684,-141.8424C421.4111,-137.9294 411.1302,-134.8581 401.0996,-132.6287"/>
<polygon fill="#000000" stroke="#000000" points="437.6584,-144.5219 443.5698,-151.0037 441.3292,-146.1109 445,-147.7 445,-147.7 445,-147.7 441.3292,-146.1109 446.4302,-144.3963 437.6584,-144.5219 437.6584,-144.5219"/>
<ellipse fill="none" stroke="#000000" cx="434.7217" cy="-143.2506" rx="3.2" ry="3.2"/>
</g>
<!-- temporary_absence_authorisation&#45;&gt;reference_data -->
<g id="edge7" class="edge">
<title>temporary_absence_authorisation:w&#45;&gt;reference_data:e</title>
<path fill="none" stroke="#000000" d="M430.7824,-144.6384C420.9439,-142.7451 410.9022,-141.2537 401.0996,-140.1643"/>
<polygon fill="#000000" stroke="#000000" points="437.1793,-146.0159 444.2421,-151.2193 441.0896,-146.8579 445,-147.7 445,-147.7 445,-147.7 441.0896,-146.8579 445.7579,-144.1807 437.1793,-146.0159 437.1793,-146.0159"/>
<ellipse fill="none" stroke="#000000" cx="434.051" cy="-145.3422" rx="3.2" ry="3.2"/>
</g>
<!-- temporary_absence_authorisation&#45;&gt;reference_data -->
<g id="edge8" class="edge">
<title>temporary_absence_authorisation:w&#45;&gt;reference_data:e</title>
<path fill="none" stroke="#000000" d="M430.4391,-147.7C420.7104,-147.7 410.7882,-147.7 401.0996,-147.7"/>
<polygon fill="#000000" stroke="#000000" points="437,-147.7001 445,-151.3 441,-147.7 445,-147.7 445,-147.7 445,-147.7 441,-147.7 445,-144.1 437,-147.7001 437,-147.7001"/>
<ellipse fill="none" stroke="#000000" cx="433.8" cy="-147.7001" rx="3.2" ry="3.2"/>
</g>
<!-- temporary_absence_authorisation&#45;&gt;reference_data -->
<g id="edge9" class="edge">
<title>temporary_absence_authorisation:w&#45;&gt;reference_data:e</title>
<path fill="none" stroke="#000000" d="M430.7824,-150.7616C420.9439,-152.6549 410.9022,-154.1463 401.0996,-155.2357"/>
<polygon fill="#000000" stroke="#000000" points="437.1793,-149.3841 445.7579,-151.2193 441.0896,-148.5421 445,-147.7 445,-147.7 445,-147.7 441.0896,-148.5421 444.2421,-144.1807 437.1793,-149.3841 437.1793,-149.3841"/>
<ellipse fill="none" stroke="#000000" cx="434.051" cy="-150.0578" rx="3.2" ry="3.2"/>
</g>
<!-- temporary_absence_authorisation&#45;&gt;reference_data -->
<g id="edge10" class="edge">
<title>temporary_absence_authorisation:w&#45;&gt;reference_data:e</title>
<path fill="none" stroke="#000000" d="M431.4684,-153.5576C421.4111,-157.4706 411.1302,-160.5419 401.0996,-162.7713"/>
<polygon fill="#000000" stroke="#000000" points="437.6584,-150.8781 446.4302,-151.0037 441.3292,-149.2891 445,-147.7 445,-147.7 445,-147.7 441.3292,-149.2891 443.5698,-144.3963 437.6584,-150.8781 437.6584,-150.8781"/>
<ellipse fill="none" stroke="#000000" cx="434.7217" cy="-152.1494" rx="3.2" ry="3.2"/>
</g>
<!-- temporary_absence_movement -->
<g id="node6" class="node">
<title>temporary_absence_movement</title>
<g id="a_node6"><a xlink:href="../../tables/temporary_absence_movement.html" xlink:title="temporary_absence_movement" target="_top">
<polygon fill="#ffffff" stroke="transparent" points="454.5,-202.2 454.5,-263.2 703.5,-263.2 703.5,-202.2 454.5,-202.2"/>
<polygon fill="#f5f5f5" stroke="transparent" points="455,-239.7 455,-262.7 704,-262.7 704,-239.7 455,-239.7"/>
<polygon fill="none" stroke="#000000" points="455,-239.7 455,-262.7 704,-262.7 704,-239.7 455,-239.7"/>
<text text-anchor="start" x="460" y="-248.3" font-family="Helvetica,sans-Serif" font-weight="bold" font-size="11.00" fill="#000000">temporary_absence_movement</text>
<text text-anchor="start" x="669.5219" y="-247.8" font-family="Helvetica,sans-Serif" font-size="11.00" fill="#000000">[table]</text>
<polygon fill="none" stroke="#000000" points="455,-220.7 455,-239.7 704,-239.7 704,-220.7 455,-220.7"/>
<text text-anchor="start" x="458" y="-226.8" font-family="Helvetica,sans-Serif" font-size="11.00" fill="#000000">...</text>
<polygon fill="#ffffff" stroke="transparent" points="455,-201.7 455,-220.7 578,-220.7 578,-201.7 455,-201.7"/>
<polygon fill="none" stroke="#000000" points="455,-201.7 455,-220.7 578,-220.7 578,-201.7 455,-201.7"/>
<text text-anchor="start" x="458" y="-207.8" font-family="Helvetica,sans-Serif" font-size="11.00" fill="#000000">&lt; 2</text>
<polygon fill="#ffffff" stroke="transparent" points="578,-201.7 578,-220.7 641,-220.7 641,-201.7 578,-201.7"/>
<polygon fill="none" stroke="#000000" points="578,-201.7 578,-220.7 641,-220.7 641,-201.7 578,-201.7"/>
<text text-anchor="start" x="631.8862" y="-207.8" font-family="Helvetica,sans-Serif" font-size="11.00" fill="#000000"> &#160;</text>
<polygon fill="#ffffff" stroke="transparent" points="641,-201.7 641,-220.7 704,-220.7 704,-201.7 641,-201.7"/>
<polygon fill="none" stroke="#000000" points="641,-201.7 641,-220.7 704,-220.7 704,-201.7 641,-201.7"/>
<text text-anchor="start" x="694.8862" y="-207.8" font-family="Helvetica,sans-Serif" font-size="11.00" fill="#000000"> &#160;</text>
</a>
</g>
</g>
<!-- temporary_absence_movement&#45;&gt;reference_data -->
<g id="edge11" class="edge">
<title>temporary_absence_movement:w&#45;&gt;reference_data:e</title>
<path fill="none" stroke="#000000" d="M440.505,-227.3555C410.2725,-220.2778 382.048,-200.4322 360.8417,-182.2831"/>
<polygon fill="#000000" stroke="#000000" points="447.1026,-228.4226 454.4252,-233.2538 451.0513,-229.0613 455,-229.7 455,-229.7 455,-229.7 451.0513,-229.0613 455.5748,-226.1462 447.1026,-228.4226 447.1026,-228.4226"/>
<ellipse fill="none" stroke="#000000" cx="443.9437" cy="-227.9116" rx="3.2" ry="3.2"/>
</g>
<!-- temporary_absence_movement&#45;&gt;reference_data -->
<g id="edge12" class="edge">
<title>temporary_absence_movement:w&#45;&gt;reference_data:e</title>
<path fill="none" stroke="#000000" d="M440.219,-229.8906C404.7906,-227.3073 372.1439,-203.6979 350.3516,-182.3693"/>
<polygon fill="#000000" stroke="#000000" points="447.0007,-229.8032 455.0464,-233.2997 451.0003,-229.7516 455,-229.7 455,-229.7 455,-229.7 451.0003,-229.7516 454.9536,-226.1003 447.0007,-229.8032 447.0007,-229.8032"/>
<ellipse fill="none" stroke="#000000" cx="443.8009" cy="-229.8445" rx="3.2" ry="3.2"/>
</g>
<!-- temporary_absence_occurrence -->
<g id="node7" class="node">
<title>temporary_absence_occurrence</title>
<g id="a_node7"><a xlink:href="../../tables/temporary_absence_occurrence.html" xlink:title="temporary_absence_occurrence" target="_top">
<polygon fill="#ffffff" stroke="transparent" points="765,-266.2 765,-327.2 1017,-327.2 1017,-266.2 765,-266.2"/>
<polygon fill="#f5f5f5" stroke="transparent" points="765,-303.7 765,-326.7 1017,-326.7 1017,-303.7 765,-303.7"/>
<polygon fill="none" stroke="#000000" points="765,-303.7 765,-326.7 1017,-326.7 1017,-303.7 765,-303.7"/>
<text text-anchor="start" x="770" y="-312.3" font-family="Helvetica,sans-Serif" font-weight="bold" font-size="11.00" fill="#000000">temporary_absence_occurrence</text>
<text text-anchor="start" x="982.5219" y="-311.8" font-family="Helvetica,sans-Serif" font-size="11.00" fill="#000000">[table]</text>
<polygon fill="none" stroke="#000000" points="765,-284.7 765,-303.7 1017,-303.7 1017,-284.7 765,-284.7"/>
<text text-anchor="start" x="768" y="-290.8" font-family="Helvetica,sans-Serif" font-size="11.00" fill="#000000">...</text>
<polygon fill="#ffffff" stroke="transparent" points="765,-265.7 765,-284.7 889,-284.7 889,-265.7 765,-265.7"/>
<polygon fill="none" stroke="#000000" points="765,-265.7 765,-284.7 889,-284.7 889,-265.7 765,-265.7"/>
<text text-anchor="start" x="768" y="-271.8" font-family="Helvetica,sans-Serif" font-size="11.00" fill="#000000">&lt; 3</text>
<polygon fill="#ffffff" stroke="transparent" points="889,-265.7 889,-284.7 953,-284.7 953,-265.7 889,-265.7"/>
<polygon fill="none" stroke="#000000" points="889,-265.7 889,-284.7 953,-284.7 953,-265.7 889,-265.7"/>
<text text-anchor="start" x="943.8862" y="-271.8" font-family="Helvetica,sans-Serif" font-size="11.00" fill="#000000"> &#160;</text>
<polygon fill="#ffffff" stroke="transparent" points="953,-265.7 953,-284.7 1017,-284.7 1017,-265.7 953,-265.7"/>
<polygon fill="none" stroke="#000000" points="953,-265.7 953,-284.7 1017,-284.7 1017,-265.7 953,-265.7"/>
<text text-anchor="start" x="1007.8862" y="-271.8" font-family="Helvetica,sans-Serif" font-size="11.00" fill="#000000"> &#160;</text>
</a>
</g>
</g>
<!-- temporary_absence_occurrence&#45;&gt;reference_data -->
<g id="edge13" class="edge">
<title>temporary_absence_occurrence:w&#45;&gt;reference_data:e</title>
<path fill="none" stroke="#000000" d="M750.2178,-293.2561C614.0256,-290.6278 561.893,-330.1871 434,-267.7 395.7576,-249.0152 365.032,-210.6604 345.6879,-182.2621"/>
<polygon fill="#000000" stroke="#000000" points="757.0036,-293.4598 764.8919,-297.2984 761.0018,-293.5799 765,-293.7 765,-293.7 765,-293.7 761.0018,-293.5799 765.1081,-290.1016 757.0036,-293.4598 757.0036,-293.4598"/>
<ellipse fill="none" stroke="#000000" cx="753.805" cy="-293.3637" rx="3.2" ry="3.2"/>
</g>
<!-- temporary_absence_occurrence&#45;&gt;reference_data -->
<g id="edge15" class="edge">
<title>temporary_absence_occurrence:w&#45;&gt;reference_data:e</title>
<path fill="none" stroke="#000000" d="M750.2178,-294.544C614.0256,-303.6278 561.893,-343.1871 434,-280.7 391.3047,-259.8395 357.9786,-214.4618 339.3997,-182.4382"/>
<polygon fill="#000000" stroke="#000000" points="757.013,-294.1561 765.2052,-297.2941 761.0065,-293.928 765,-293.7 765,-293.7 765,-293.7 761.0065,-293.928 764.7948,-290.1059 757.013,-294.1561 757.013,-294.1561"/>
<ellipse fill="none" stroke="#000000" cx="753.8182" cy="-294.3385" rx="3.2" ry="3.2"/>
</g>
<!-- temporary_absence_occurrence&#45;&gt;temporary_absence_authorisation -->
<g id="edge14" class="edge">
<title>temporary_absence_occurrence:w&#45;&gt;temporary_absence_authorisation:e</title>
<path fill="none" stroke="#000000" d="M750.7341,-290.7836C709.4331,-270.2064 776.0967,-147.7 713,-147.7"/>
<polygon fill="#000000" stroke="#000000" points="757.1621,-292.0976 764.2789,-297.2271 761.0811,-292.8988 765,-293.7 765,-293.7 765,-293.7 761.0811,-292.8988 765.7211,-290.1729 757.1621,-292.0976 757.1621,-292.0976"/>
<ellipse fill="none" stroke="#000000" cx="754.0269" cy="-291.4567" rx="3.2" ry="3.2"/>
</g>
</g>
</svg>
