<?xml version="1.0" encoding="UTF-8" standalone="no"?>
<!DOCTYPE svg PUBLIC "-//W3C//DTD SVG 1.1//EN"
 "http://www.w3.org/Graphics/SVG/1.1/DTD/svg11.dtd">
<!-- Generated by graphviz version 2.40.1 (20161225.0304)
 -->
<!-- Title: oneDegreeRelationshipsDiagram Pages: 1 -->
<svg width="1399pt" height="953pt"
 viewBox="0.00 0.00 1399.00 952.70" xmlns="http://www.w3.org/2000/svg" xmlns:xlink="http://www.w3.org/1999/xlink">
<g id="graph0" class="graph" transform="scale(1 1) rotate(0) translate(4 948.7)">
<title>oneDegreeRelationshipsDiagram</title>
<polygon fill="#ffffff" stroke="transparent" points="-4,4 -4,-948.7 1395,-948.7 1395,4 -4,4"/>
<text text-anchor="middle" x="72.4936" y="-7.3" font-family="Helvetica,sans-Serif" font-size="11.00" fill="#000000">Generated by SchemaSpy</text>
<!-- reference_data -->
<g id="node1" class="node">
<title>reference_data</title>
<g id="a_node1"><a xlink:href="../../tables/reference_data.html" xlink:title="reference_data" target="_top">
<polygon fill="#ffffff" stroke="transparent" points="253,-292.7 253,-492.7 467,-492.7 467,-292.7 253,-292.7"/>
<polygon fill="#f5f5f5" stroke="transparent" points="255,-467.7 255,-490.7 465,-490.7 465,-467.7 255,-467.7"/>
<polygon fill="none" stroke="#000000" points="255,-467.7 255,-490.7 465,-490.7 465,-467.7 255,-467.7"/>
<text text-anchor="start" x="260" y="-476.3" font-family="Helvetica,sans-Serif" font-weight="bold" font-size="11.00" fill="#000000">reference_data</text>
<text text-anchor="start" x="430.0437" y="-475.8" font-family="Helvetica,sans-Serif" font-size="11.00" fill="#000000">[table]</text>
<polygon fill="none" stroke="#000000" points="255,-445.7 255,-467.7 398,-467.7 398,-445.7 255,-445.7"/>
<image xlink:href="../../images/primaryKeys.png" width="11px" height="12px" preserveAspectRatio="xMinYMin meet" x="260" y="-462.7"/>
<text text-anchor="start" x="275" y="-452.8" font-family="Helvetica,sans-Serif" font-size="11.00" fill="#000000">id</text>
<polygon fill="none" stroke="#000000" points="398,-445.7 398,-467.7 465,-467.7 465,-445.7 398,-445.7"/>
<text text-anchor="start" x="401" y="-453.4" font-family="Helvetica,sans-Serif" font-size="11.00" fill="#000000">bigserial[19]</text>
<polygon fill="#ffffff" stroke="transparent" points="255,-423.7 255,-445.7 398,-445.7 398,-423.7 255,-423.7"/>
<polygon fill="none" stroke="#000000" points="255,-423.7 255,-445.7 398,-445.7 398,-423.7 255,-423.7"/>
<image xlink:href="../../images/foreignKeys.png" width="11px" height="12px" preserveAspectRatio="xMinYMin meet" x="260" y="-440.7"/>
<text text-anchor="start" x="275" y="-430.8" font-family="Helvetica,sans-Serif" font-size="11.00" fill="#000000">domain</text>
<polygon fill="none" stroke="#000000" points="398,-423.7 398,-445.7 465,-445.7 465,-423.7 398,-423.7"/>
<text text-anchor="start" x="401" y="-431.4" font-family="Helvetica,sans-Serif" font-size="11.00" fill="#000000">varchar[32]</text>
<polygon fill="#ffffff" stroke="transparent" points="255,-401.7 255,-423.7 398,-423.7 398,-401.7 255,-401.7"/>
<polygon fill="none" stroke="#000000" points="255,-401.7 255,-423.7 398,-423.7 398,-401.7 255,-401.7"/>
<text text-anchor="start" x="275" y="-408.8" font-family="Helvetica,sans-Serif" font-size="11.00" fill="#000000">code</text>
<polygon fill="none" stroke="#000000" points="398,-401.7 398,-423.7 465,-423.7 465,-401.7 398,-401.7"/>
<text text-anchor="start" x="401" y="-409.4" font-family="Helvetica,sans-Serif" font-size="11.00" fill="#000000">varchar[16]</text>
<polygon fill="none" stroke="#000000" points="255,-379.7 255,-401.7 398,-401.7 398,-379.7 255,-379.7"/>
<text text-anchor="start" x="275" y="-386.8" font-family="Helvetica,sans-Serif" font-size="11.00" fill="#000000">description</text>
<polygon fill="none" stroke="#000000" points="398,-379.7 398,-401.7 465,-401.7 465,-379.7 398,-379.7"/>
<text text-anchor="start" x="400.9365" y="-387.4" font-family="Helvetica,sans-Serif" font-size="11.00" fill="#000000">varchar[255]</text>
<polygon fill="none" stroke="#000000" points="255,-357.7 255,-379.7 398,-379.7 398,-357.7 255,-357.7"/>
<text text-anchor="start" x="275" y="-364.8" font-family="Helvetica,sans-Serif" font-size="11.00" fill="#000000">hint_text</text>
<polygon fill="none" stroke="#000000" points="398,-357.7 398,-379.7 465,-379.7 465,-357.7 398,-357.7"/>
<text text-anchor="start" x="400.9365" y="-365.4" font-family="Helvetica,sans-Serif" font-size="11.00" fill="#000000">varchar[255]</text>
<polygon fill="#ffffff" stroke="transparent" points="255,-335.7 255,-357.7 398,-357.7 398,-335.7 255,-335.7"/>
<polygon fill="none" stroke="#000000" points="255,-335.7 255,-357.7 398,-357.7 398,-335.7 255,-335.7"/>
<text text-anchor="start" x="275" y="-342.8" font-family="Helvetica,sans-Serif" font-size="11.00" fill="#000000">sequence_number</text>
<polygon fill="none" stroke="#000000" points="398,-335.7 398,-357.7 465,-357.7 465,-335.7 398,-335.7"/>
<text text-anchor="start" x="401" y="-343.4" font-family="Helvetica,sans-Serif" font-size="11.00" fill="#000000">int4[10]</text>
<polygon fill="none" stroke="#000000" points="255,-313.7 255,-335.7 398,-335.7 398,-313.7 255,-313.7"/>
<text text-anchor="start" x="275" y="-320.8" font-family="Helvetica,sans-Serif" font-size="11.00" fill="#000000">active</text>
<polygon fill="none" stroke="#000000" points="398,-313.7 398,-335.7 465,-335.7 465,-313.7 398,-313.7"/>
<text text-anchor="start" x="401" y="-321.4" font-family="Helvetica,sans-Serif" font-size="11.00" fill="#000000">bool[1]</text>
<polygon fill="#ffffff" stroke="transparent" points="255,-294.7 255,-313.7 331,-313.7 331,-294.7 255,-294.7"/>
<polygon fill="none" stroke="#000000" points="255,-294.7 255,-313.7 331,-313.7 331,-294.7 255,-294.7"/>
<text text-anchor="start" x="258" y="-300.8" font-family="Helvetica,sans-Serif" font-size="11.00" fill="#000000">&lt; 1</text>
<polygon fill="#ffffff" stroke="transparent" points="331,-294.7 331,-313.7 398,-313.7 398,-294.7 331,-294.7"/>
<polygon fill="none" stroke="#000000" points="331,-294.7 331,-313.7 398,-313.7 398,-294.7 331,-294.7"/>
<text text-anchor="start" x="388.8862" y="-300.8" font-family="Helvetica,sans-Serif" font-size="11.00" fill="#000000"> &#160;</text>
<polygon fill="#ffffff" stroke="transparent" points="398,-294.7 398,-313.7 465,-313.7 465,-294.7 398,-294.7"/>
<polygon fill="none" stroke="#000000" points="398,-294.7 398,-313.7 465,-313.7 465,-294.7 398,-294.7"/>
<text text-anchor="start" x="440.2904" y="-300.8" font-family="Helvetica,sans-Serif" font-size="11.00" fill="#000000">18 &gt;</text>
<polygon fill="none" stroke="#000000" stroke-width="2" points="254,-293.7 254,-491.7 466,-491.7 466,-293.7 254,-293.7"/>
</a>
</g>
</g>
<!-- reference_data_domain -->
<g id="node2" class="node">
<title>reference_data_domain</title>
<g id="a_node2"><a xlink:href="../../tables/reference_data_domain.html" xlink:title="reference_data_domain" target="_top">
<polygon fill="#ffffff" stroke="transparent" points="8,-427.2 8,-510.2 204,-510.2 204,-427.2 8,-427.2"/>
<polygon fill="#f5f5f5" stroke="transparent" points="8,-486.7 8,-509.7 204,-509.7 204,-486.7 8,-486.7"/>
<polygon fill="none" stroke="#000000" points="8,-486.7 8,-509.7 204,-509.7 204,-486.7 8,-486.7"/>
<text text-anchor="start" x="13" y="-495.3" font-family="Helvetica,sans-Serif" font-weight="bold" font-size="11.00" fill="#000000">reference_data_domain</text>
<text text-anchor="start" x="169.5219" y="-494.8" font-family="Helvetica,sans-Serif" font-size="11.00" fill="#000000">[table]</text>
<polygon fill="none" stroke="#000000" points="8,-464.7 8,-486.7 204,-486.7 204,-464.7 8,-464.7"/>
<image xlink:href="../../images/primaryKeys.png" width="11px" height="12px" preserveAspectRatio="xMinYMin meet" x="13" y="-481.7"/>
<text text-anchor="start" x="37" y="-471.8" font-family="Helvetica,sans-Serif" font-size="11.00" fill="#000000">code</text>
<polygon fill="none" stroke="#000000" points="8,-445.7 8,-464.7 204,-464.7 204,-445.7 8,-445.7"/>
<text text-anchor="start" x="11" y="-451.8" font-family="Helvetica,sans-Serif" font-size="11.00" fill="#000000">...</text>
<polygon fill="#ffffff" stroke="transparent" points="8,-426.7 8,-445.7 95,-445.7 95,-426.7 8,-426.7"/>
<polygon fill="none" stroke="#000000" points="8,-426.7 8,-445.7 95,-445.7 95,-426.7 8,-426.7"/>
<text text-anchor="start" x="11" y="-432.8" font-family="Helvetica,sans-Serif" font-size="11.00" fill="#000000"> &#160;</text>
<polygon fill="#ffffff" stroke="transparent" points="95,-426.7 95,-445.7 145,-445.7 145,-426.7 95,-426.7"/>
<polygon fill="none" stroke="#000000" points="95,-426.7 95,-445.7 145,-445.7 145,-426.7 95,-426.7"/>
<text text-anchor="start" x="135.8862" y="-432.8" font-family="Helvetica,sans-Serif" font-size="11.00" fill="#000000"> &#160;</text>
<polygon fill="#ffffff" stroke="transparent" points="145,-426.7 145,-445.7 204,-445.7 204,-426.7 145,-426.7"/>
<polygon fill="none" stroke="#000000" points="145,-426.7 145,-445.7 204,-445.7 204,-426.7 145,-426.7"/>
<text text-anchor="start" x="185.4053" y="-432.8" font-family="Helvetica,sans-Serif" font-size="11.00" fill="#000000">2 &gt;</text>
</a>
</g>
</g>
<!-- reference_data&#45;&gt;reference_data_domain -->
<g id="edge1" class="edge">
<title>reference_data:w&#45;&gt;reference_data_domain:e</title>
<path fill="none" stroke="#000000" d="M241.1568,-439.0877C227.3325,-449.6646 227.1756,-475.7 204,-475.7"/>
<polygon fill="#000000" stroke="#000000" points="247.3739,-437.1172 256.0877,-438.1317 251.1869,-435.9086 255,-434.7 255,-434.7 255,-434.7 251.1869,-435.9086 253.9123,-431.2683 247.3739,-437.1172 247.3739,-437.1172"/>
<ellipse fill="none" stroke="#000000" cx="244.3235" cy="-438.0841" rx="3.2" ry="3.2"/>
</g>
<!-- reference_data_domain_link -->
<g id="node3" class="node">
<title>reference_data_domain_link</title>
<g id="a_node3"><a xlink:href="../../tables/reference_data_domain_link.html" xlink:title="reference_data_domain_link" target="_top">
<polygon fill="#ffffff" stroke="transparent" points="536.5,-854.7 536.5,-940.7 763.5,-940.7 763.5,-854.7 536.5,-854.7"/>
<polygon fill="#f5f5f5" stroke="transparent" points="537,-917.7 537,-940.7 764,-940.7 764,-917.7 537,-917.7"/>
<polygon fill="none" stroke="#000000" points="537,-917.7 537,-940.7 764,-940.7 764,-917.7 537,-917.7"/>
<text text-anchor="start" x="542" y="-926.3" font-family="Helvetica,sans-Serif" font-weight="bold" font-size="11.00" fill="#000000">reference_data_domain_link</text>
<text text-anchor="start" x="729.5219" y="-925.8" font-family="Helvetica,sans-Serif" font-size="11.00" fill="#000000">[table]</text>
<polygon fill="none" stroke="#000000" points="537,-895.7 537,-917.7 764,-917.7 764,-895.7 537,-895.7"/>
<image xlink:href="../../images/primaryKeys.png" width="11px" height="12px" preserveAspectRatio="xMinYMin meet" x="542" y="-912.7"/>
<text text-anchor="start" x="566" y="-902.8" font-family="Helvetica,sans-Serif" font-size="11.00" fill="#000000">id</text>
<polygon fill="none" stroke="#000000" points="537,-873.7 537,-895.7 764,-895.7 764,-873.7 537,-873.7"/>
<image xlink:href="../../images/foreignKeys.png" width="11px" height="12px" preserveAspectRatio="xMinYMin meet" x="542" y="-890.7"/>
<text text-anchor="start" x="566" y="-880.8" font-family="Helvetica,sans-Serif" font-size="11.00" fill="#000000">domain</text>
<polygon fill="#ffffff" stroke="transparent" points="537,-854.7 537,-873.7 649,-873.7 649,-854.7 537,-854.7"/>
<polygon fill="none" stroke="#000000" points="537,-854.7 537,-873.7 649,-873.7 649,-854.7 537,-854.7"/>
<text text-anchor="start" x="540" y="-860.8" font-family="Helvetica,sans-Serif" font-size="11.00" fill="#000000">&lt; 2</text>
<polygon fill="#ffffff" stroke="transparent" points="649,-854.7 649,-873.7 706,-873.7 706,-854.7 649,-854.7"/>
<polygon fill="none" stroke="#000000" points="649,-854.7 649,-873.7 706,-873.7 706,-854.7 649,-854.7"/>
<text text-anchor="start" x="696.8862" y="-860.8" font-family="Helvetica,sans-Serif" font-size="11.00" fill="#000000"> &#160;</text>
<polygon fill="#ffffff" stroke="transparent" points="706,-854.7 706,-873.7 764,-873.7 764,-854.7 706,-854.7"/>
<polygon fill="none" stroke="#000000" points="706,-854.7 706,-873.7 764,-873.7 764,-854.7 706,-854.7"/>
<text text-anchor="start" x="754.8862" y="-860.8" font-family="Helvetica,sans-Serif" font-size="11.00" fill="#000000"> &#160;</text>
</a>
</g>
</g>
<!-- reference_data_domain_link&#45;&gt;reference_data -->
<g id="edge3" class="edge">
<title>reference_data_domain_link:w&#45;&gt;reference_data:e</title>
<path fill="none" stroke="#000000" d="M526.6596,-904.8869C445.0977,-873.9213 562.5138,-456.7 465,-456.7"/>
<polygon fill="#000000" stroke="#000000" points="536.9029,-902.6219 535.5212,-910.5017 533.9452,-910.2254 535.3269,-902.3456 536.9029,-902.6219"/>
<polyline fill="none" stroke="#000000" points="537,-906.7 533.0601,-906.0091 "/>
<ellipse fill="none" stroke="#000000" cx="529.9082" cy="-905.4565" rx="3.2" ry="3.2"/>
</g>
<!-- reference_data_domain_link&#45;&gt;reference_data_domain -->
<g id="edge2" class="edge">
<title>reference_data_domain_link:w&#45;&gt;reference_data_domain:e</title>
<path fill="none" stroke="#000000" d="M523.3379,-879.5287C450.4308,-832.1833 258.7105,-475.7 204,-475.7"/>
<polygon fill="#000000" stroke="#000000" points="529.518,-881.868 535.7256,-888.0669 533.259,-883.284 537,-884.7 537,-884.7 537,-884.7 533.259,-883.284 538.2744,-881.3331 529.518,-881.868 529.518,-881.868"/>
<ellipse fill="none" stroke="#000000" cx="526.5252" cy="-880.7351" rx="3.2" ry="3.2"/>
</g>
<!-- reference_data_link -->
<g id="node4" class="node">
<title>reference_data_link</title>
<g id="a_node4"><a xlink:href="../../tables/reference_data_link.html" xlink:title="reference_data_link" target="_top">
<polygon fill="#ffffff" stroke="transparent" points="564.5,-302.7 564.5,-432.7 735.5,-432.7 735.5,-302.7 564.5,-302.7"/>
<polygon fill="#f5f5f5" stroke="transparent" points="565,-409.7 565,-432.7 736,-432.7 736,-409.7 565,-409.7"/>
<polygon fill="none" stroke="#000000" points="565,-409.7 565,-432.7 736,-432.7 736,-409.7 565,-409.7"/>
<text text-anchor="start" x="570" y="-418.3" font-family="Helvetica,sans-Serif" font-weight="bold" font-size="11.00" fill="#000000">reference_data_link</text>
<text text-anchor="start" x="701.5219" y="-417.8" font-family="Helvetica,sans-Serif" font-size="11.00" fill="#000000">[table]</text>
<polygon fill="none" stroke="#000000" points="565,-387.7 565,-409.7 736,-409.7 736,-387.7 565,-387.7"/>
<image xlink:href="../../images/primaryKeys.png" width="11px" height="12px" preserveAspectRatio="xMinYMin meet" x="570" y="-404.7"/>
<text text-anchor="start" x="593" y="-394.8" font-family="Helvetica,sans-Serif" font-size="11.00" fill="#000000">id</text>
<polygon fill="#ffffff" stroke="transparent" points="565,-365.7 565,-387.7 736,-387.7 736,-365.7 565,-365.7"/>
<polygon fill="none" stroke="#000000" points="565,-365.7 565,-387.7 736,-387.7 736,-365.7 565,-365.7"/>
<image xlink:href="../../images/foreignKeys.png" width="11px" height="12px" preserveAspectRatio="xMinYMin meet" x="570" y="-382.7"/>
<text text-anchor="start" x="593" y="-372.8" font-family="Helvetica,sans-Serif" font-size="11.00" fill="#000000">reference_data_id_1</text>
<polygon fill="none" stroke="#000000" points="565,-343.7 565,-365.7 736,-365.7 736,-343.7 565,-343.7"/>
<image xlink:href="../../images/foreignKeys.png" width="11px" height="12px" preserveAspectRatio="xMinYMin meet" x="570" y="-360.7"/>
<text text-anchor="start" x="593" y="-350.8" font-family="Helvetica,sans-Serif" font-size="11.00" fill="#000000">reference_data_id_2</text>
<polygon fill="#ffffff" stroke="transparent" points="565,-321.7 565,-343.7 736,-343.7 736,-321.7 565,-321.7"/>
<polygon fill="none" stroke="#000000" points="565,-321.7 565,-343.7 736,-343.7 736,-321.7 565,-321.7"/>
<text text-anchor="start" x="593" y="-328.8" font-family="Helvetica,sans-Serif" font-size="11.00" fill="#000000">sequence_number</text>
<polygon fill="#ffffff" stroke="transparent" points="565,-302.7 565,-321.7 649,-321.7 649,-302.7 565,-302.7"/>
<polygon fill="none" stroke="#000000" points="565,-302.7 565,-321.7 649,-321.7 649,-302.7 565,-302.7"/>
<text text-anchor="start" x="568" y="-308.8" font-family="Helvetica,sans-Serif" font-size="11.00" fill="#000000">&lt; 2</text>
<polygon fill="#ffffff" stroke="transparent" points="649,-302.7 649,-321.7 692,-321.7 692,-302.7 649,-302.7"/>
<polygon fill="none" stroke="#000000" points="649,-302.7 649,-321.7 692,-321.7 692,-302.7 649,-302.7"/>
<text text-anchor="start" x="682.8862" y="-308.8" font-family="Helvetica,sans-Serif" font-size="11.00" fill="#000000"> &#160;</text>
<polygon fill="#ffffff" stroke="transparent" points="692,-302.7 692,-321.7 736,-321.7 736,-302.7 692,-302.7"/>
<polygon fill="none" stroke="#000000" points="692,-302.7 692,-321.7 736,-321.7 736,-302.7 692,-302.7"/>
<text text-anchor="start" x="726.8862" y="-308.8" font-family="Helvetica,sans-Serif" font-size="11.00" fill="#000000"> &#160;</text>
</a>
</g>
</g>
<!-- reference_data_link&#45;&gt;reference_data -->
<g id="edge4" class="edge">
<title>reference_data_link:w&#45;&gt;reference_data:e</title>
<path fill="none" stroke="#000000" d="M550.4787,-378.7579C510.0831,-391.2798 516.4696,-456.7 465,-456.7"/>
<polygon fill="#000000" stroke="#000000" points="557.0791,-377.8226 565.5052,-380.2644 561.0396,-377.2613 565,-376.7 565,-376.7 565,-376.7 561.0396,-377.2613 564.4948,-373.1356 557.0791,-377.8226 557.0791,-377.8226"/>
<ellipse fill="none" stroke="#000000" cx="553.9108" cy="-378.2716" rx="3.2" ry="3.2"/>
</g>
<!-- reference_data_link&#45;&gt;reference_data -->
<g id="edge5" class="edge">
<title>reference_data_link:w&#45;&gt;reference_data:e</title>
<path fill="none" stroke="#000000" d="M550.5219,-356.8304C505.482,-371.478 523.0298,-456.7 465,-456.7"/>
<polygon fill="#000000" stroke="#000000" points="557.0852,-355.8647 565.5241,-358.2616 561.0426,-355.2823 565,-354.7 565,-354.7 565,-354.7 561.0426,-355.2823 564.4759,-351.1384 557.0852,-355.8647 557.0852,-355.8647"/>
<ellipse fill="none" stroke="#000000" cx="553.9193" cy="-356.3306" rx="3.2" ry="3.2"/>
</g>
<!-- temporary_absence_authorisation -->
<g id="node5" class="node">
<title>temporary_absence_authorisation</title>
<g id="a_node5"><a xlink:href="../../tables/temporary_absence_authorisation.html" xlink:title="temporary_absence_authorisation" target="_top">
<polygon fill="#ffffff" stroke="transparent" points="516,-508.2 516,-833.2 784,-833.2 784,-508.2 516,-508.2"/>
<polygon fill="#f5f5f5" stroke="transparent" points="516,-809.7 516,-832.7 784,-832.7 784,-809.7 516,-809.7"/>
<polygon fill="none" stroke="#000000" points="516,-809.7 516,-832.7 784,-832.7 784,-809.7 516,-809.7"/>
<text text-anchor="start" x="521" y="-818.3" font-family="Helvetica,sans-Serif" font-weight="bold" font-size="11.00" fill="#000000">temporary_absence_authorisation</text>
<text text-anchor="start" x="749.5219" y="-817.8" font-family="Helvetica,sans-Serif" font-size="11.00" fill="#000000">[table]</text>
<polygon fill="none" stroke="#000000" points="516,-787.7 516,-809.7 784,-809.7 784,-787.7 516,-787.7"/>
<image xlink:href="../../images/primaryKeys.png" width="11px" height="12px" preserveAspectRatio="xMinYMin meet" x="521" y="-804.7"/>
<text text-anchor="start" x="545" y="-794.8" font-family="Helvetica,sans-Serif" font-size="11.00" fill="#000000">id</text>
<polygon fill="#ffffff" stroke="transparent" points="516,-765.7 516,-787.7 784,-787.7 784,-765.7 516,-765.7"/>
<polygon fill="none" stroke="#000000" points="516,-765.7 516,-787.7 784,-787.7 784,-765.7 516,-765.7"/>
<image xlink:href="../../images/foreignKeys.png" width="11px" height="12px" preserveAspectRatio="xMinYMin meet" x="521" y="-782.7"/>
<text text-anchor="start" x="545" y="-772.8" font-family="Helvetica,sans-Serif" font-size="11.00" fill="#000000">person_identifier</text>
<polygon fill="#ffffff" stroke="transparent" points="516,-743.7 516,-765.7 784,-765.7 784,-743.7 516,-743.7"/>
<polygon fill="none" stroke="#000000" points="516,-743.7 516,-765.7 784,-765.7 784,-743.7 516,-743.7"/>
<text text-anchor="start" x="545" y="-750.8" font-family="Helvetica,sans-Serif" font-size="11.00" fill="#000000">prison_code</text>
<polygon fill="none" stroke="#000000" points="516,-721.7 516,-743.7 784,-743.7 784,-721.7 516,-721.7"/>
<image xlink:href="../../images/foreignKeys.png" width="11px" height="12px" preserveAspectRatio="xMinYMin meet" x="521" y="-738.7"/>
<text text-anchor="start" x="545" y="-728.8" font-family="Helvetica,sans-Serif" font-size="11.00" fill="#000000">absence_type_id</text>
<polygon fill="none" stroke="#000000" points="516,-699.7 516,-721.7 784,-721.7 784,-699.7 516,-699.7"/>
<image xlink:href="../../images/foreignKeys.png" width="11px" height="12px" preserveAspectRatio="xMinYMin meet" x="521" y="-716.7"/>
<text text-anchor="start" x="545" y="-706.8" font-family="Helvetica,sans-Serif" font-size="11.00" fill="#000000">absence_sub_type_id</text>
<polygon fill="none" stroke="#000000" points="516,-677.7 516,-699.7 784,-699.7 784,-677.7 516,-677.7"/>
<image xlink:href="../../images/foreignKeys.png" width="11px" height="12px" preserveAspectRatio="xMinYMin meet" x="521" y="-694.7"/>
<text text-anchor="start" x="545" y="-684.8" font-family="Helvetica,sans-Serif" font-size="11.00" fill="#000000">absence_reason_id</text>
<polygon fill="none" stroke="#000000" points="516,-655.7 516,-677.7 784,-677.7 784,-655.7 516,-655.7"/>
<image xlink:href="../../images/foreignKeys.png" width="11px" height="12px" preserveAspectRatio="xMinYMin meet" x="521" y="-672.7"/>
<text text-anchor="start" x="545" y="-662.8" font-family="Helvetica,sans-Serif" font-size="11.00" fill="#000000">status_id</text>
<polygon fill="#ffffff" stroke="transparent" points="516,-633.7 516,-655.7 784,-655.7 784,-633.7 516,-633.7"/>
<polygon fill="none" stroke="#000000" points="516,-633.7 516,-655.7 784,-655.7 784,-633.7 516,-633.7"/>
<text text-anchor="start" x="545" y="-640.8" font-family="Helvetica,sans-Serif" font-size="11.00" fill="#000000">legacy_id</text>
<polygon fill="#ffffff" stroke="transparent" points="516,-611.7 516,-633.7 784,-633.7 784,-611.7 516,-611.7"/>
<polygon fill="none" stroke="#000000" points="516,-611.7 516,-633.7 784,-633.7 784,-611.7 516,-611.7"/>
<text text-anchor="start" x="545" y="-618.8" font-family="Helvetica,sans-Serif" font-size="11.00" fill="#000000">from_date</text>
<polygon fill="#ffffff" stroke="transparent" points="516,-589.7 516,-611.7 784,-611.7 784,-589.7 516,-589.7"/>
<polygon fill="none" stroke="#000000" points="516,-589.7 516,-611.7 784,-611.7 784,-589.7 516,-589.7"/>
<text text-anchor="start" x="545" y="-596.8" font-family="Helvetica,sans-Serif" font-size="11.00" fill="#000000">to_date</text>
<polygon fill="none" stroke="#000000" points="516,-567.7 516,-589.7 784,-589.7 784,-567.7 516,-567.7"/>
<image xlink:href="../../images/foreignKeys.png" width="11px" height="12px" preserveAspectRatio="xMinYMin meet" x="521" y="-584.7"/>
<text text-anchor="start" x="545" y="-574.8" font-family="Helvetica,sans-Serif" font-size="11.00" fill="#000000">absence_reason_category_id</text>
<polygon fill="none" stroke="#000000" points="516,-545.7 516,-567.7 784,-567.7 784,-545.7 516,-545.7"/>
<image xlink:href="../../images/foreignKeys.png" width="11px" height="12px" preserveAspectRatio="xMinYMin meet" x="521" y="-562.7"/>
<text text-anchor="start" x="545" y="-552.8" font-family="Helvetica,sans-Serif" font-size="11.00" fill="#000000">accompanied_by_id</text>
<polygon fill="none" stroke="#000000" points="516,-526.7 516,-545.7 784,-545.7 784,-526.7 516,-526.7"/>
<text text-anchor="start" x="519" y="-532.8" font-family="Helvetica,sans-Serif" font-size="11.00" fill="#000000">...</text>
<polygon fill="#ffffff" stroke="transparent" points="516,-507.7 516,-526.7 644,-526.7 644,-507.7 516,-507.7"/>
<polygon fill="none" stroke="#000000" points="516,-507.7 516,-526.7 644,-526.7 644,-507.7 516,-507.7"/>
<text text-anchor="start" x="519" y="-513.8" font-family="Helvetica,sans-Serif" font-size="11.00" fill="#000000">&lt; 7</text>
<polygon fill="#ffffff" stroke="transparent" points="644,-507.7 644,-526.7 709,-526.7 709,-507.7 644,-507.7"/>
<polygon fill="none" stroke="#000000" points="644,-507.7 644,-526.7 709,-526.7 709,-507.7 644,-507.7"/>
<text text-anchor="start" x="699.8862" y="-513.8" font-family="Helvetica,sans-Serif" font-size="11.00" fill="#000000"> &#160;</text>
<polygon fill="#ffffff" stroke="transparent" points="709,-507.7 709,-526.7 784,-526.7 784,-507.7 709,-507.7"/>
<polygon fill="none" stroke="#000000" points="709,-507.7 709,-526.7 784,-526.7 784,-507.7 709,-507.7"/>
<text text-anchor="start" x="765.4053" y="-513.8" font-family="Helvetica,sans-Serif" font-size="11.00" fill="#000000">1 &gt;</text>
</a>
</g>
</g>
<!-- temporary_absence_authorisation&#45;&gt;reference_data -->
<g id="edge6" class="edge">
<title>temporary_absence_authorisation:w&#45;&gt;reference_data:e</title>
<path fill="none" stroke="#000000" d="M501.7088,-575.1803C469.4538,-555.1772 517.8005,-456.7 465,-456.7"/>
<polygon fill="#000000" stroke="#000000" points="508.2321,-576.7869 515.1391,-582.1956 512.1161,-577.7434 516,-578.7 516,-578.7 516,-578.7 512.1161,-577.7434 516.8609,-575.2044 508.2321,-576.7869 508.2321,-576.7869"/>
<ellipse fill="none" stroke="#000000" cx="505.125" cy="-576.0216" rx="3.2" ry="3.2"/>
</g>
<!-- temporary_absence_authorisation&#45;&gt;reference_data -->
<g id="edge7" class="edge">
<title>temporary_absence_authorisation:w&#45;&gt;reference_data:e</title>
<path fill="none" stroke="#000000" d="M501.4369,-686.8325C426.5784,-664.8764 565.0058,-456.7 465,-456.7"/>
<polygon fill="#000000" stroke="#000000" points="508.065,-687.6824 515.5421,-692.2708 512.0325,-688.1912 516,-688.7 516,-688.7 516,-688.7 512.0325,-688.1912 516.4579,-685.1292 508.065,-687.6824 508.065,-687.6824"/>
<ellipse fill="none" stroke="#000000" cx="504.891" cy="-687.2754" rx="3.2" ry="3.2"/>
</g>
<!-- temporary_absence_authorisation&#45;&gt;reference_data -->
<g id="edge8" class="edge">
<title>temporary_absence_authorisation:w&#45;&gt;reference_data:e</title>
<path fill="none" stroke="#000000" d="M501.6883,-709.078C417.0189,-687.4456 574.7447,-456.7 465,-456.7"/>
<polygon fill="#000000" stroke="#000000" points="508.0509,-709.7991 515.5946,-714.2771 512.0254,-710.2495 516,-710.7 516,-710.7 516,-710.7 512.0254,-710.2495 516.4054,-707.1229 508.0509,-709.7991 508.0509,-709.7991"/>
<ellipse fill="none" stroke="#000000" cx="504.8712" cy="-709.4387" rx="3.2" ry="3.2"/>
</g>
<!-- temporary_absence_authorisation&#45;&gt;reference_data -->
<g id="edge9" class="edge">
<title>temporary_absence_authorisation:w&#45;&gt;reference_data:e</title>
<path fill="none" stroke="#000000" d="M502.7628,-726.9353C465.2977,-687.3008 522.0116,-456.7 465,-456.7"/>
<polygon fill="#000000" stroke="#000000" points="508.6653,-729.5058 514.5626,-736.0006 512.3327,-731.1029 516,-732.7 516,-732.7 516,-732.7 512.3327,-731.1029 517.4374,-729.3994 508.6653,-729.5058 508.6653,-729.5058"/>
<ellipse fill="none" stroke="#000000" cx="505.7315" cy="-728.2281" rx="3.2" ry="3.2"/>
</g>
<!-- temporary_absence_authorisation&#45;&gt;reference_data -->
<g id="edge10" class="edge">
<title>temporary_absence_authorisation:w&#45;&gt;reference_data:e</title>
<path fill="none" stroke="#000000" d="M501.8659,-552.656C476.4766,-533.9476 508.8493,-456.7 465,-456.7"/>
<polygon fill="#000000" stroke="#000000" points="508.3086,-554.4993 515.0097,-560.1611 512.1543,-555.5997 516,-556.7 516,-556.7 516,-556.7 512.1543,-555.5997 516.9903,-553.2389 508.3086,-554.4993 508.3086,-554.4993"/>
<ellipse fill="none" stroke="#000000" cx="505.2321" cy="-553.6191" rx="3.2" ry="3.2"/>
</g>
<!-- temporary_absence_authorisation&#45;&gt;reference_data -->
<g id="edge11" class="edge">
<title>temporary_absence_authorisation:w&#45;&gt;reference_data:e</title>
<path fill="none" stroke="#000000" d="M501.4639,-664.6216C435.6738,-642.8116 555.4186,-456.7 465,-456.7"/>
<polygon fill="#000000" stroke="#000000" points="508.0805,-665.5676 515.4904,-670.2638 512.0403,-666.1338 516,-666.7 516,-666.7 516,-666.7 512.0403,-666.1338 516.5096,-663.1362 508.0805,-665.5676 508.0805,-665.5676"/>
<ellipse fill="none" stroke="#000000" cx="504.9128" cy="-665.1146" rx="3.2" ry="3.2"/>
</g>
<!-- temporary_absence_movement -->
<g id="node6" class="node">
<title>temporary_absence_movement</title>
<g id="a_node6"><a xlink:href="../../tables/temporary_absence_movement.html" xlink:title="temporary_absence_movement" target="_top">
<polygon fill="#ffffff" stroke="transparent" points="1134,-38.2 1134,-253.2 1383,-253.2 1383,-38.2 1134,-38.2"/>
<polygon fill="#f5f5f5" stroke="transparent" points="1134.5,-229.7 1134.5,-252.7 1383.5,-252.7 1383.5,-229.7 1134.5,-229.7"/>
<polygon fill="none" stroke="#000000" points="1134.5,-229.7 1134.5,-252.7 1383.5,-252.7 1383.5,-229.7 1134.5,-229.7"/>
<text text-anchor="start" x="1139.5" y="-238.3" font-family="Helvetica,sans-Serif" font-weight="bold" font-size="11.00" fill="#000000">temporary_absence_movement</text>
<text text-anchor="start" x="1349.0219" y="-237.8" font-family="Helvetica,sans-Serif" font-size="11.00" fill="#000000">[table]</text>
<polygon fill="none" stroke="#000000" points="1134.5,-207.7 1134.5,-229.7 1383.5,-229.7 1383.5,-207.7 1134.5,-207.7"/>
<image xlink:href="../../images/primaryKeys.png" width="11px" height="12px" preserveAspectRatio="xMinYMin meet" x="1139.5" y="-224.7"/>
<text text-anchor="start" x="1163.5" y="-214.8" font-family="Helvetica,sans-Serif" font-size="11.00" fill="#000000">id</text>
<polygon fill="#ffffff" stroke="transparent" points="1134.5,-185.7 1134.5,-207.7 1383.5,-207.7 1383.5,-185.7 1134.5,-185.7"/>
<polygon fill="none" stroke="#000000" points="1134.5,-185.7 1134.5,-207.7 1383.5,-207.7 1383.5,-185.7 1134.5,-185.7"/>
<image xlink:href="../../images/foreignKeys.png" width="11px" height="12px" preserveAspectRatio="xMinYMin meet" x="1139.5" y="-202.7"/>
<text text-anchor="start" x="1163.5" y="-192.8" font-family="Helvetica,sans-Serif" font-size="11.00" fill="#000000">person_identifier</text>
<polygon fill="none" stroke="#000000" points="1134.5,-163.7 1134.5,-185.7 1383.5,-185.7 1383.5,-163.7 1134.5,-163.7"/>
<image xlink:href="../../images/foreignKeys.png" width="11px" height="12px" preserveAspectRatio="xMinYMin meet" x="1139.5" y="-180.7"/>
<text text-anchor="start" x="1163.5" y="-170.8" font-family="Helvetica,sans-Serif" font-size="11.00" fill="#000000">occurrence_id</text>
<polygon fill="#ffffff" stroke="transparent" points="1134.5,-141.7 1134.5,-163.7 1383.5,-163.7 1383.5,-141.7 1134.5,-141.7"/>
<polygon fill="none" stroke="#000000" points="1134.5,-141.7 1134.5,-163.7 1383.5,-163.7 1383.5,-141.7 1134.5,-141.7"/>
<text text-anchor="start" x="1163.5" y="-148.8" font-family="Helvetica,sans-Serif" font-size="11.00" fill="#000000">occurred_at</text>
<polygon fill="none" stroke="#000000" points="1134.5,-119.7 1134.5,-141.7 1383.5,-141.7 1383.5,-119.7 1134.5,-119.7"/>
<image xlink:href="../../images/foreignKeys.png" width="11px" height="12px" preserveAspectRatio="xMinYMin meet" x="1139.5" y="-136.7"/>
<text text-anchor="start" x="1163.5" y="-126.8" font-family="Helvetica,sans-Serif" font-size="11.00" fill="#000000">absence_reason_id</text>
<polygon fill="none" stroke="#000000" points="1134.5,-97.7 1134.5,-119.7 1383.5,-119.7 1383.5,-97.7 1134.5,-97.7"/>
<image xlink:href="../../images/foreignKeys.png" width="11px" height="12px" preserveAspectRatio="xMinYMin meet" x="1139.5" y="-114.7"/>
<text text-anchor="start" x="1163.5" y="-104.8" font-family="Helvetica,sans-Serif" font-size="11.00" fill="#000000">accompanied_by_id</text>
<polygon fill="#ffffff" stroke="transparent" points="1134.5,-75.7 1134.5,-97.7 1383.5,-97.7 1383.5,-75.7 1134.5,-75.7"/>
<polygon fill="none" stroke="#000000" points="1134.5,-75.7 1134.5,-97.7 1383.5,-97.7 1383.5,-75.7 1134.5,-75.7"/>
<text text-anchor="start" x="1163.5" y="-82.8" font-family="Helvetica,sans-Serif" font-size="11.00" fill="#000000">legacy_id</text>
<polygon fill="none" stroke="#000000" points="1134.5,-56.7 1134.5,-75.7 1383.5,-75.7 1383.5,-56.7 1134.5,-56.7"/>
<text text-anchor="start" x="1137.5" y="-62.8" font-family="Helvetica,sans-Serif" font-size="11.00" fill="#000000">...</text>
<polygon fill="#ffffff" stroke="transparent" points="1134.5,-37.7 1134.5,-56.7 1257.5,-56.7 1257.5,-37.7 1134.5,-37.7"/>
<polygon fill="none" stroke="#000000" points="1134.5,-37.7 1134.5,-56.7 1257.5,-56.7 1257.5,-37.7 1134.5,-37.7"/>
<text text-anchor="start" x="1137.5" y="-43.8" font-family="Helvetica,sans-Serif" font-size="11.00" fill="#000000">&lt; 4</text>
<polygon fill="#ffffff" stroke="transparent" points="1257.5,-37.7 1257.5,-56.7 1320.5,-56.7 1320.5,-37.7 1257.5,-37.7"/>
<polygon fill="none" stroke="#000000" points="1257.5,-37.7 1257.5,-56.7 1320.5,-56.7 1320.5,-37.7 1257.5,-37.7"/>
<text text-anchor="start" x="1311.3862" y="-43.8" font-family="Helvetica,sans-Serif" font-size="11.00" fill="#000000"> &#160;</text>
<polygon fill="#ffffff" stroke="transparent" points="1320.5,-37.7 1320.5,-56.7 1383.5,-56.7 1383.5,-37.7 1320.5,-37.7"/>
<polygon fill="none" stroke="#000000" points="1320.5,-37.7 1320.5,-56.7 1383.5,-56.7 1383.5,-37.7 1320.5,-37.7"/>
<text text-anchor="start" x="1374.3862" y="-43.8" font-family="Helvetica,sans-Serif" font-size="11.00" fill="#000000"> &#160;</text>
</a>
</g>
</g>
<!-- temporary_absence_movement&#45;&gt;reference_data -->
<g id="edge12" class="edge">
<title>temporary_absence_movement:w&#45;&gt;reference_data:e</title>
<path fill="none" stroke="#000000" d="M1119.976,-130.5323C1012.8196,-128.6029 556.9823,-111.476 508,-155.7 457.8484,-200.9797 532.568,-456.7 465,-456.7"/>
<polygon fill="#000000" stroke="#000000" points="1126.5005,-130.6076 1134.4584,-134.2998 1130.5003,-130.6538 1134.5,-130.7 1134.5,-130.7 1134.5,-130.7 1130.5003,-130.6538 1134.5416,-127.1002 1126.5005,-130.6076 1126.5005,-130.6076"/>
<ellipse fill="none" stroke="#000000" cx="1123.3007" cy="-130.5706" rx="3.2" ry="3.2"/>
</g>
<!-- temporary_absence_movement&#45;&gt;reference_data -->
<g id="edge13" class="edge">
<title>temporary_absence_movement:w&#45;&gt;reference_data:e</title>
<path fill="none" stroke="#000000" d="M1119.9386,-108.544C850.9979,-102.785 711.3236,59.4174 508,-123.7 452.5567,-173.6334 539.6144,-456.7 465,-456.7"/>
<polygon fill="#000000" stroke="#000000" points="1126.5005,-108.6142 1134.4614,-112.2998 1130.5002,-108.6571 1134.5,-108.7 1134.5,-108.7 1134.5,-108.7 1130.5002,-108.6571 1134.5386,-105.1002 1126.5005,-108.6142 1126.5005,-108.6142"/>
<ellipse fill="none" stroke="#000000" cx="1123.3006" cy="-108.5799" rx="3.2" ry="3.2"/>
</g>
<!-- temporary_absence_occurrence -->
<g id="node7" class="node">
<title>temporary_absence_occurrence</title>
<g id="a_node7"><a xlink:href="../../tables/temporary_absence_occurrence.html" xlink:title="temporary_absence_occurrence" target="_top">
<polygon fill="#ffffff" stroke="transparent" points="833,-155.2 833,-436.2 1085,-436.2 1085,-155.2 833,-155.2"/>
<polygon fill="#f5f5f5" stroke="transparent" points="833,-412.7 833,-435.7 1085,-435.7 1085,-412.7 833,-412.7"/>
<polygon fill="none" stroke="#000000" points="833,-412.7 833,-435.7 1085,-435.7 1085,-412.7 833,-412.7"/>
<text text-anchor="start" x="838" y="-421.3" font-family="Helvetica,sans-Serif" font-weight="bold" font-size="11.00" fill="#000000">temporary_absence_occurrence</text>
<text text-anchor="start" x="1050.5219" y="-420.8" font-family="Helvetica,sans-Serif" font-size="11.00" fill="#000000">[table]</text>
<polygon fill="none" stroke="#000000" points="833,-390.7 833,-412.7 1085,-412.7 1085,-390.7 833,-390.7"/>
<image xlink:href="../../images/primaryKeys.png" width="11px" height="12px" preserveAspectRatio="xMinYMin meet" x="838" y="-407.7"/>
<text text-anchor="start" x="862" y="-397.8" font-family="Helvetica,sans-Serif" font-size="11.00" fill="#000000">id</text>
<polygon fill="#ffffff" stroke="transparent" points="833,-368.7 833,-390.7 1085,-390.7 1085,-368.7 833,-368.7"/>
<polygon fill="none" stroke="#000000" points="833,-368.7 833,-390.7 1085,-390.7 1085,-368.7 833,-368.7"/>
<image xlink:href="../../images/foreignKeys.png" width="11px" height="12px" preserveAspectRatio="xMinYMin meet" x="838" y="-385.7"/>
<text text-anchor="start" x="862" y="-375.8" font-family="Helvetica,sans-Serif" font-size="11.00" fill="#000000">authorisation_id</text>
<polygon fill="none" stroke="#000000" points="833,-346.7 833,-368.7 1085,-368.7 1085,-346.7 833,-346.7"/>
<image xlink:href="../../images/foreignKeys.png" width="11px" height="12px" preserveAspectRatio="xMinYMin meet" x="838" y="-363.7"/>
<text text-anchor="start" x="862" y="-353.8" font-family="Helvetica,sans-Serif" font-size="11.00" fill="#000000">accompanied_by_id</text>
<polygon fill="none" stroke="#000000" points="833,-324.7 833,-346.7 1085,-346.7 1085,-324.7 833,-324.7"/>
<image xlink:href="../../images/foreignKeys.png" width="11px" height="12px" preserveAspectRatio="xMinYMin meet" x="838" y="-341.7"/>
<text text-anchor="start" x="862" y="-331.8" font-family="Helvetica,sans-Serif" font-size="11.00" fill="#000000">transport_id</text>
<polygon fill="#ffffff" stroke="transparent" points="833,-302.7 833,-324.7 1085,-324.7 1085,-302.7 833,-302.7"/>
<polygon fill="none" stroke="#000000" points="833,-302.7 833,-324.7 1085,-324.7 1085,-302.7 833,-302.7"/>
<text text-anchor="start" x="862" y="-309.8" font-family="Helvetica,sans-Serif" font-size="11.00" fill="#000000">legacy_id</text>
<polygon fill="none" stroke="#000000" points="833,-280.7 833,-302.7 1085,-302.7 1085,-280.7 833,-280.7"/>
<image xlink:href="../../images/foreignKeys.png" width="11px" height="12px" preserveAspectRatio="xMinYMin meet" x="838" y="-297.7"/>
<text text-anchor="start" x="862" y="-287.8" font-family="Helvetica,sans-Serif" font-size="11.00" fill="#000000">absence_type_id</text>
<polygon fill="none" stroke="#000000" points="833,-258.7 833,-280.7 1085,-280.7 1085,-258.7 833,-258.7"/>
<image xlink:href="../../images/foreignKeys.png" width="11px" height="12px" preserveAspectRatio="xMinYMin meet" x="838" y="-275.7"/>
<text text-anchor="start" x="862" y="-265.8" font-family="Helvetica,sans-Serif" font-size="11.00" fill="#000000">absence_sub_type_id</text>
<polygon fill="none" stroke="#000000" points="833,-236.7 833,-258.7 1085,-258.7 1085,-236.7 833,-236.7"/>
<image xlink:href="../../images/foreignKeys.png" width="11px" height="12px" preserveAspectRatio="xMinYMin meet" x="838" y="-253.7"/>
<text text-anchor="start" x="862" y="-243.8" font-family="Helvetica,sans-Serif" font-size="11.00" fill="#000000">absence_reason_category_id</text>
<polygon fill="none" stroke="#000000" points="833,-214.7 833,-236.7 1085,-236.7 1085,-214.7 833,-214.7"/>
<image xlink:href="../../images/foreignKeys.png" width="11px" height="12px" preserveAspectRatio="xMinYMin meet" x="838" y="-231.7"/>
<text text-anchor="start" x="862" y="-221.8" font-family="Helvetica,sans-Serif" font-size="11.00" fill="#000000">absence_reason_id</text>
<polygon fill="none" stroke="#000000" points="833,-192.7 833,-214.7 1085,-214.7 1085,-192.7 833,-192.7"/>
<image xlink:href="../../images/foreignKeys.png" width="11px" height="12px" preserveAspectRatio="xMinYMin meet" x="838" y="-209.7"/>
<text text-anchor="start" x="862" y="-199.8" font-family="Helvetica,sans-Serif" font-size="11.00" fill="#000000">status_id</text>
<polygon fill="none" stroke="#000000" points="833,-173.7 833,-192.7 1085,-192.7 1085,-173.7 833,-173.7"/>
<text text-anchor="start" x="836" y="-179.8" font-family="Helvetica,sans-Serif" font-size="11.00" fill="#000000">...</text>
<polygon fill="#ffffff" stroke="transparent" points="833,-154.7 833,-173.7 953,-173.7 953,-154.7 833,-154.7"/>
<polygon fill="none" stroke="#000000" points="833,-154.7 833,-173.7 953,-173.7 953,-154.7 833,-154.7"/>
<text text-anchor="start" x="836" y="-160.8" font-family="Helvetica,sans-Serif" font-size="11.00" fill="#000000">&lt; 8</text>
<polygon fill="#ffffff" stroke="transparent" points="953,-154.7 953,-173.7 1014,-173.7 1014,-154.7 953,-154.7"/>
<polygon fill="none" stroke="#000000" points="953,-154.7 953,-173.7 1014,-173.7 1014,-154.7 953,-154.7"/>
<text text-anchor="start" x="1004.8862" y="-160.8" font-family="Helvetica,sans-Serif" font-size="11.00" fill="#000000"> &#160;</text>
<polygon fill="#ffffff" stroke="transparent" points="1014,-154.7 1014,-173.7 1085,-173.7 1085,-154.7 1014,-154.7"/>
<polygon fill="none" stroke="#000000" points="1014,-154.7 1014,-173.7 1085,-173.7 1085,-154.7 1014,-154.7"/>
<text text-anchor="start" x="1066.4053" y="-160.8" font-family="Helvetica,sans-Serif" font-size="11.00" fill="#000000">1 &gt;</text>
</a>
</g>
</g>
<!-- temporary_absence_movement&#45;&gt;temporary_absence_occurrence -->
<g id="edge14" class="edge">
<title>temporary_absence_movement:w&#45;&gt;temporary_absence_occurrence:e</title>
<path fill="none" stroke="#000000" d="M1119.8091,-176.6624C1047.6359,-198.8492 1182.6127,-401.7 1085,-401.7"/>
<polygon fill="#000000" stroke="#000000" points="1126.5704,-175.7593 1134.9767,-178.2683 1130.5352,-175.2296 1134.5,-174.7 1134.5,-174.7 1134.5,-174.7 1130.5352,-175.2296 1134.0233,-171.1317 1126.5704,-175.7593 1126.5704,-175.7593"/>
<ellipse fill="none" stroke="#000000" cx="1123.3986" cy="-176.183" rx="3.2" ry="3.2"/>
</g>
<!-- temporary_absence_occurrence&#45;&gt;reference_data -->
<g id="edge15" class="edge">
<title>temporary_absence_occurrence:w&#45;&gt;reference_data:e</title>
<path fill="none" stroke="#000000" d="M818.4565,-246.4761C810.2933,-244.9979 804.3408,-242.5982 792,-241.7 729.0554,-237.1187 556.8065,-201.6883 508,-241.7 432.6394,-303.4809 562.4479,-456.7 465,-456.7"/>
<polygon fill="#000000" stroke="#000000" points="825.0282,-247.0291 832.6981,-251.2873 829.0141,-247.3645 833,-247.7 833,-247.7 833,-247.7 829.0141,-247.3645 833.3019,-244.1127 825.0282,-247.0291 825.0282,-247.0291"/>
<ellipse fill="none" stroke="#000000" cx="821.8395" cy="-246.7607" rx="3.2" ry="3.2"/>
</g>
<!-- temporary_absence_occurrence&#45;&gt;reference_data -->
<g id="edge16" class="edge">
<title>temporary_absence_occurrence:w&#45;&gt;reference_data:e</title>
<path fill="none" stroke="#000000" d="M818.4565,-224.4761C810.2933,-222.9979 804.3408,-220.5982 792,-219.7 666.1108,-210.5374 604.8923,-138.8054 508,-219.7 425.8226,-288.3092 572.053,-456.7 465,-456.7"/>
<polygon fill="#000000" stroke="#000000" points="825.0282,-225.0291 832.6981,-229.2873 829.0141,-225.3645 833,-225.7 833,-225.7 833,-225.7 829.0141,-225.3645 833.3019,-222.1127 825.0282,-225.0291 825.0282,-225.0291"/>
<ellipse fill="none" stroke="#000000" cx="821.8395" cy="-224.7607" rx="3.2" ry="3.2"/>
</g>
<!-- temporary_absence_occurrence&#45;&gt;reference_data -->
<g id="edge17" class="edge">
<title>temporary_absence_occurrence:w&#45;&gt;reference_data:e</title>
<path fill="none" stroke="#000000" d="M818.5754,-269.2243C737.5192,-264.4613 561.0567,-226.4085 508,-268.7 440.9745,-322.1261 550.7133,-456.7 465,-456.7"/>
<polygon fill="#000000" stroke="#000000" points="825.0043,-269.4363 832.8813,-273.298 829.0022,-269.5681 833,-269.7 833,-269.7 833,-269.7 829.0022,-269.5681 833.1187,-266.102 825.0043,-269.4363 825.0043,-269.4363"/>
<ellipse fill="none" stroke="#000000" cx="821.8061" cy="-269.3308" rx="3.2" ry="3.2"/>
</g>
<!-- temporary_absence_occurrence&#45;&gt;reference_data -->
<g id="edge18" class="edge">
<title>temporary_absence_occurrence:w&#45;&gt;reference_data:e</title>
<path fill="none" stroke="#000000" d="M818.582,-291.2538C737.5915,-286.7882 561.6537,-251.1686 508,-292.7 448.4131,-338.8241 540.3527,-456.7 465,-456.7"/>
<polygon fill="#000000" stroke="#000000" points="825.0038,-291.4525 832.8886,-295.2983 829.0019,-291.5762 833,-291.7 833,-291.7 833,-291.7 829.0019,-291.5762 833.1114,-288.1017 825.0038,-291.4525 825.0038,-291.4525"/>
<ellipse fill="none" stroke="#000000" cx="821.8054" cy="-291.3535" rx="3.2" ry="3.2"/>
</g>
<!-- temporary_absence_occurrence&#45;&gt;reference_data -->
<g id="edge19" class="edge">
<title>temporary_absence_occurrence:w&#45;&gt;reference_data:e</title>
<path fill="none" stroke="#000000" d="M818.8092,-360.7684C792.4208,-375.6545 829.5692,-440.6925 792,-466.7 740.1093,-502.6217 570.6997,-473.8947 508,-466.7 488.5068,-464.4632 484.6211,-456.7 465,-456.7"/>
<polygon fill="#000000" stroke="#000000" points="825.1807,-359.3907 833.7608,-361.2187 829.0903,-358.5454 833,-357.7 833,-357.7 833,-357.7 829.0903,-358.5454 832.2392,-354.1813 825.1807,-359.3907 825.1807,-359.3907"/>
<ellipse fill="none" stroke="#000000" cx="822.053" cy="-360.067" rx="3.2" ry="3.2"/>
</g>
<!-- temporary_absence_occurrence&#45;&gt;reference_data -->
<g id="edge21" class="edge">
<title>temporary_absence_occurrence:w&#45;&gt;reference_data:e</title>
<path fill="none" stroke="#000000" d="M818.928,-199.9715C810.419,-194.681 806.1019,-185.2444 792,-181.7 730.7926,-166.3159 555.9496,-140.6653 508,-181.7 461.0057,-221.9171 526.8537,-456.7 465,-456.7"/>
<polygon fill="#000000" stroke="#000000" points="825.2668,-201.651 832.078,-207.1799 829.1334,-202.6755 833,-203.7 833,-203.7 833,-203.7 829.1334,-202.6755 833.922,-200.2201 825.2668,-201.651 825.2668,-201.651"/>
<ellipse fill="none" stroke="#000000" cx="822.1736" cy="-200.8314" rx="3.2" ry="3.2"/>
</g>
<!-- temporary_absence_occurrence&#45;&gt;reference_data -->
<g id="edge22" class="edge">
<title>temporary_absence_occurrence:w&#45;&gt;reference_data:e</title>
<path fill="none" stroke="#000000" d="M818.891,-338.711C792.5617,-353.3236 828.7879,-417.2222 792,-443.7 732.9747,-486.183 537.7241,-456.7 465,-456.7"/>
<polygon fill="#000000" stroke="#000000" points="825.1762,-337.3697 833.7514,-339.2207 829.0881,-336.5349 833,-335.7 833,-335.7 833,-335.7 829.0881,-336.5349 832.2486,-332.1793 825.1762,-337.3697 825.1762,-337.3697"/>
<ellipse fill="none" stroke="#000000" cx="822.0466" cy="-338.0376" rx="3.2" ry="3.2"/>
</g>
<!-- temporary_absence_occurrence&#45;&gt;temporary_absence_authorisation -->
<g id="edge20" class="edge">
<title>temporary_absence_occurrence:w&#45;&gt;temporary_absence_authorisation:e</title>
<path fill="none" stroke="#000000" d="M818.8198,-383.847C754.6865,-427.363 872.2527,-798.7 784,-798.7"/>
<polygon fill="#000000" stroke="#000000" points="825.3216,-381.9456 834.0105,-383.1553 829.1608,-380.8228 833,-379.7 833,-379.7 833,-379.7 829.1608,-380.8228 831.9895,-376.2447 825.3216,-381.9456 825.3216,-381.9456"/>
<ellipse fill="none" stroke="#000000" cx="822.2503" cy="-382.8438" rx="3.2" ry="3.2"/>
</g>
</g>
</svg>
