<?xml version="1.0" encoding="UTF-8" standalone="no"?>
<!DOCTYPE svg PUBLIC "-//W3C//DTD SVG 1.1//EN"
 "http://www.w3.org/Graphics/SVG/1.1/DTD/svg11.dtd">
<!-- Generated by graphviz version 2.40.1 (20161225.0304)
 -->
<!-- Title: twoDegreesRelationshipsDiagram Pages: 1 -->
<svg width="1328pt" height="450pt"
 viewBox="0.00 0.00 1328.00 450.20" xmlns="http://www.w3.org/2000/svg" xmlns:xlink="http://www.w3.org/1999/xlink">
<g id="graph0" class="graph" transform="scale(1 1) rotate(0) translate(4 446.2)">
<title>twoDegreesRelationshipsDiagram</title>
<polygon fill="#ffffff" stroke="transparent" points="-4,4 -4,-446.2 1324,-446.2 1324,4 -4,4"/>
<text text-anchor="middle" x="72.4936" y="-7.3" font-family="Helvetica,sans-Serif" font-size="11.00" fill="#000000">Generated by SchemaSpy</text>
<!-- reference_data -->
<g id="node1" class="node">
<title>reference_data</title>
<g id="a_node1"><a xlink:href="../../tables/reference_data.html" xlink:title="reference_data" target="_top">
<polygon fill="#ffffff" stroke="transparent" points="253,-38.2 253,-187.2 396,-187.2 396,-38.2 253,-38.2"/>
<polygon fill="#f5f5f5" stroke="transparent" points="253.5,-163.7 253.5,-186.7 396.5,-186.7 396.5,-163.7 253.5,-163.7"/>
<polygon fill="none" stroke="#000000" points="253.5,-163.7 253.5,-186.7 396.5,-186.7 396.5,-163.7 253.5,-163.7"/>
<text text-anchor="start" x="258.5" y="-172.3" font-family="Helvetica,sans-Serif" font-weight="bold" font-size="11.00" fill="#000000">reference_data</text>
<text text-anchor="start" x="361.5437" y="-171.8" font-family="Helvetica,sans-Serif" font-size="11.00" fill="#000000">[table]</text>
<polygon fill="none" stroke="#000000" points="253.5,-141.7 253.5,-163.7 396.5,-163.7 396.5,-141.7 253.5,-141.7"/>
<image xlink:href="../../images/primaryKeys.png" width="11px" height="12px" preserveAspectRatio="xMinYMin meet" x="258.5" y="-158.7"/>
<text text-anchor="start" x="273.5" y="-148.8" font-family="Helvetica,sans-Serif" font-size="11.00" fill="#000000">id</text>
<polygon fill="#ffffff" stroke="transparent" points="253.5,-119.7 253.5,-141.7 396.5,-141.7 396.5,-119.7 253.5,-119.7"/>
<polygon fill="none" stroke="#000000" points="253.5,-119.7 253.5,-141.7 396.5,-141.7 396.5,-119.7 253.5,-119.7"/>
<image xlink:href="../../images/foreignKeys.png" width="11px" height="12px" preserveAspectRatio="xMinYMin meet" x="258.5" y="-136.7"/>
<text text-anchor="start" x="273.5" y="-126.8" font-family="Helvetica,sans-Serif" font-size="11.00" fill="#000000">domain</text>
<polygon fill="#ffffff" stroke="transparent" points="253.5,-97.7 253.5,-119.7 396.5,-119.7 396.5,-97.7 253.5,-97.7"/>
<polygon fill="none" stroke="#000000" points="253.5,-97.7 253.5,-119.7 396.5,-119.7 396.5,-97.7 253.5,-97.7"/>
<text text-anchor="start" x="273.5" y="-104.8" font-family="Helvetica,sans-Serif" font-size="11.00" fill="#000000">code</text>
<polygon fill="#ffffff" stroke="transparent" points="253.5,-75.7 253.5,-97.7 396.5,-97.7 396.5,-75.7 253.5,-75.7"/>
<polygon fill="none" stroke="#000000" points="253.5,-75.7 253.5,-97.7 396.5,-97.7 396.5,-75.7 253.5,-75.7"/>
<text text-anchor="start" x="273.5" y="-82.8" font-family="Helvetica,sans-Serif" font-size="11.00" fill="#000000">sequence_number</text>
<polygon fill="none" stroke="#000000" points="253.5,-56.7 253.5,-75.7 396.5,-75.7 396.5,-56.7 253.5,-56.7"/>
<text text-anchor="start" x="256.5" y="-62.8" font-family="Helvetica,sans-Serif" font-size="11.00" fill="#000000">...</text>
<polygon fill="#ffffff" stroke="transparent" points="253.5,-37.7 253.5,-56.7 315.5,-56.7 315.5,-37.7 253.5,-37.7"/>
<polygon fill="none" stroke="#000000" points="253.5,-37.7 253.5,-56.7 315.5,-56.7 315.5,-37.7 253.5,-37.7"/>
<text text-anchor="start" x="256.5" y="-43.8" font-family="Helvetica,sans-Serif" font-size="11.00" fill="#000000">&lt; 1</text>
<polygon fill="#ffffff" stroke="transparent" points="315.5,-37.7 315.5,-56.7 348.5,-56.7 348.5,-37.7 315.5,-37.7"/>
<polygon fill="none" stroke="#000000" points="315.5,-37.7 315.5,-56.7 348.5,-56.7 348.5,-37.7 315.5,-37.7"/>
<text text-anchor="start" x="339.3862" y="-43.8" font-family="Helvetica,sans-Serif" font-size="11.00" fill="#000000"> &#160;</text>
<polygon fill="#ffffff" stroke="transparent" points="348.5,-37.7 348.5,-56.7 396.5,-56.7 396.5,-37.7 348.5,-37.7"/>
<polygon fill="none" stroke="#000000" points="348.5,-37.7 348.5,-56.7 396.5,-56.7 396.5,-37.7 348.5,-37.7"/>
<text text-anchor="start" x="371.7904" y="-43.8" font-family="Helvetica,sans-Serif" font-size="11.00" fill="#000000">12 &gt;</text>
</a>
</g>
</g>
<!-- reference_data_domain -->
<g id="node2" class="node">
<title>reference_data_domain</title>
<g id="a_node2"><a xlink:href="../../tables/reference_data_domain.html" xlink:title="reference_data_domain" target="_top">
<polygon fill="#ffffff" stroke="transparent" points="8,-143.2 8,-204.2 204,-204.2 204,-143.2 8,-143.2"/>
<polygon fill="#f5f5f5" stroke="transparent" points="8,-180.7 8,-203.7 204,-203.7 204,-180.7 8,-180.7"/>
<polygon fill="none" stroke="#000000" points="8,-180.7 8,-203.7 204,-203.7 204,-180.7 8,-180.7"/>
<text text-anchor="start" x="13" y="-189.3" font-family="Helvetica,sans-Serif" font-weight="bold" font-size="11.00" fill="#000000">reference_data_domain</text>
<text text-anchor="start" x="169.5219" y="-188.8" font-family="Helvetica,sans-Serif" font-size="11.00" fill="#000000">[table]</text>
<polygon fill="none" stroke="#000000" points="8,-161.7 8,-180.7 204,-180.7 204,-161.7 8,-161.7"/>
<text text-anchor="start" x="11" y="-167.8" font-family="Helvetica,sans-Serif" font-size="11.00" fill="#000000">...</text>
<polygon fill="#ffffff" stroke="transparent" points="8,-142.7 8,-161.7 95,-161.7 95,-142.7 8,-142.7"/>
<polygon fill="none" stroke="#000000" points="8,-142.7 8,-161.7 95,-161.7 95,-142.7 8,-142.7"/>
<text text-anchor="start" x="11" y="-148.8" font-family="Helvetica,sans-Serif" font-size="11.00" fill="#000000"> &#160;</text>
<polygon fill="#ffffff" stroke="transparent" points="95,-142.7 95,-161.7 145,-161.7 145,-142.7 95,-142.7"/>
<polygon fill="none" stroke="#000000" points="95,-142.7 95,-161.7 145,-161.7 145,-142.7 95,-142.7"/>
<text text-anchor="start" x="135.8862" y="-148.8" font-family="Helvetica,sans-Serif" font-size="11.00" fill="#000000"> &#160;</text>
<polygon fill="#ffffff" stroke="transparent" points="145,-142.7 145,-161.7 204,-161.7 204,-142.7 145,-142.7"/>
<polygon fill="none" stroke="#000000" points="145,-142.7 145,-161.7 204,-161.7 204,-142.7 145,-142.7"/>
<text text-anchor="start" x="185.4053" y="-148.8" font-family="Helvetica,sans-Serif" font-size="11.00" fill="#000000">2 &gt;</text>
</a>
</g>
</g>
<!-- reference_data&#45;&gt;reference_data_domain -->
<g id="edge1" class="edge">
<title>reference_data:w&#45;&gt;reference_data_domain:e</title>
<path fill="none" stroke="#000000" d="M239.6565,-135.2885C226.6245,-145.7952 226.3187,-170.7 204,-170.7"/>
<polygon fill="#000000" stroke="#000000" points="245.9063,-133.217 254.6327,-134.1172 249.7031,-131.9585 253.5,-130.7 253.5,-130.7 253.5,-130.7 249.7031,-131.9585 252.3673,-127.2828 245.9063,-133.217 245.9063,-133.217"/>
<ellipse fill="none" stroke="#000000" cx="242.8688" cy="-134.2238" rx="3.2" ry="3.2"/>
</g>
<!-- reference_data_domain_link -->
<g id="node3" class="node">
<title>reference_data_domain_link</title>
<g id="a_node3"><a xlink:href="../../tables/reference_data_domain_link.html" xlink:title="reference_data_domain_link" target="_top">
<polygon fill="#ffffff" stroke="transparent" points="465.5,-377.2 465.5,-438.2 692.5,-438.2 692.5,-377.2 465.5,-377.2"/>
<polygon fill="#f5f5f5" stroke="transparent" points="466,-414.7 466,-437.7 693,-437.7 693,-414.7 466,-414.7"/>
<polygon fill="none" stroke="#000000" points="466,-414.7 466,-437.7 693,-437.7 693,-414.7 466,-414.7"/>
<text text-anchor="start" x="471" y="-423.3" font-family="Helvetica,sans-Serif" font-weight="bold" font-size="11.00" fill="#000000">reference_data_domain_link</text>
<text text-anchor="start" x="658.5219" y="-422.8" font-family="Helvetica,sans-Serif" font-size="11.00" fill="#000000">[table]</text>
<polygon fill="none" stroke="#000000" points="466,-395.7 466,-414.7 693,-414.7 693,-395.7 466,-395.7"/>
<text text-anchor="start" x="469" y="-401.8" font-family="Helvetica,sans-Serif" font-size="11.00" fill="#000000">...</text>
<polygon fill="#ffffff" stroke="transparent" points="466,-376.7 466,-395.7 578,-395.7 578,-376.7 466,-376.7"/>
<polygon fill="none" stroke="#000000" points="466,-376.7 466,-395.7 578,-395.7 578,-376.7 466,-376.7"/>
<text text-anchor="start" x="469" y="-382.8" font-family="Helvetica,sans-Serif" font-size="11.00" fill="#000000">&lt; 2</text>
<polygon fill="#ffffff" stroke="transparent" points="578,-376.7 578,-395.7 635,-395.7 635,-376.7 578,-376.7"/>
<polygon fill="none" stroke="#000000" points="578,-376.7 578,-395.7 635,-395.7 635,-376.7 578,-376.7"/>
<text text-anchor="start" x="625.8862" y="-382.8" font-family="Helvetica,sans-Serif" font-size="11.00" fill="#000000"> &#160;</text>
<polygon fill="#ffffff" stroke="transparent" points="635,-376.7 635,-395.7 693,-395.7 693,-376.7 635,-376.7"/>
<polygon fill="none" stroke="#000000" points="635,-376.7 635,-395.7 693,-395.7 693,-376.7 635,-376.7"/>
<text text-anchor="start" x="683.8862" y="-382.8" font-family="Helvetica,sans-Serif" font-size="11.00" fill="#000000"> &#160;</text>
</a>
</g>
</g>
<!-- reference_data_domain_link&#45;&gt;reference_data -->
<g id="edge3" class="edge">
<title>reference_data_domain_link:w&#45;&gt;reference_data:e</title>
<path fill="none" stroke="#000000" d="M455.5289,-402.5472C444.7254,-397.1119 443.8949,-382.1621 437,-366.7 417.2886,-322.496 444.8997,-152.7 396.5,-152.7"/>
<polygon fill="#000000" stroke="#000000" points="466.0219,-400.6208 464.4108,-408.4569 462.8436,-408.1347 464.4547,-400.2986 466.0219,-400.6208"/>
<polyline fill="none" stroke="#000000" points="466,-404.7 462.0819,-403.8944 "/>
<ellipse fill="none" stroke="#000000" cx="458.9475" cy="-403.25" rx="3.2" ry="3.2"/>
</g>
<!-- reference_data_domain_link&#45;&gt;reference_data_domain -->
<g id="edge2" class="edge">
<title>reference_data_domain_link:w&#45;&gt;reference_data_domain:e</title>
<path fill="none" stroke="#000000" d="M453.5131,-397.4402C401.715,-357.9436 221.4574,-170.7 204,-170.7"/>
<polygon fill="#000000" stroke="#000000" points="459.0839,-400.679 464.1906,-407.8122 462.542,-402.6895 466,-404.7 466,-404.7 466,-404.7 462.542,-402.6895 467.8094,-401.5878 459.0839,-400.679 459.0839,-400.679"/>
<ellipse fill="none" stroke="#000000" cx="456.3175" cy="-399.0707" rx="3.2" ry="3.2"/>
</g>
<!-- reference_data_link -->
<g id="node4" class="node">
<title>reference_data_link</title>
<g id="a_node4"><a xlink:href="../../tables/reference_data_link.html" xlink:title="reference_data_link" target="_top">
<polygon fill="#ffffff" stroke="transparent" points="467,-221.7 467,-355.7 691,-355.7 691,-221.7 467,-221.7"/>
<polygon fill="#f5f5f5" stroke="transparent" points="469,-330.7 469,-353.7 689,-353.7 689,-330.7 469,-330.7"/>
<polygon fill="none" stroke="#000000" points="469,-330.7 469,-353.7 689,-353.7 689,-330.7 469,-330.7"/>
<text text-anchor="start" x="474" y="-339.3" font-family="Helvetica,sans-Serif" font-weight="bold" font-size="11.00" fill="#000000">reference_data_link</text>
<text text-anchor="start" x="654.0437" y="-338.8" font-family="Helvetica,sans-Serif" font-size="11.00" fill="#000000">[table]</text>
<polygon fill="none" stroke="#000000" points="469,-308.7 469,-330.7 624,-330.7 624,-308.7 469,-308.7"/>
<image xlink:href="../../images/primaryKeys.png" width="11px" height="12px" preserveAspectRatio="xMinYMin meet" x="474" y="-325.7"/>
<text text-anchor="start" x="489" y="-315.8" font-family="Helvetica,sans-Serif" font-size="11.00" fill="#000000">id</text>
<polygon fill="none" stroke="#000000" points="624,-308.7 624,-330.7 689,-330.7 689,-308.7 624,-308.7"/>
<text text-anchor="start" x="626.8561" y="-316.4" font-family="Helvetica,sans-Serif" font-size="11.00" fill="#000000">bigserial[19]</text>
<polygon fill="#ffffff" stroke="transparent" points="469,-286.7 469,-308.7 624,-308.7 624,-286.7 469,-286.7"/>
<polygon fill="none" stroke="#000000" points="469,-286.7 469,-308.7 624,-308.7 624,-286.7 469,-286.7"/>
<image xlink:href="../../images/foreignKeys.png" width="11px" height="12px" preserveAspectRatio="xMinYMin meet" x="474" y="-303.7"/>
<text text-anchor="start" x="489" y="-293.8" font-family="Helvetica,sans-Serif" font-size="11.00" fill="#000000">reference_data_id_1</text>
<polygon fill="none" stroke="#000000" points="624,-286.7 624,-308.7 689,-308.7 689,-286.7 624,-286.7"/>
<text text-anchor="start" x="627" y="-294.4" font-family="Helvetica,sans-Serif" font-size="11.00" fill="#000000">int8[19]</text>
<polygon fill="none" stroke="#000000" points="469,-264.7 469,-286.7 624,-286.7 624,-264.7 469,-264.7"/>
<image xlink:href="../../images/foreignKeys.png" width="11px" height="12px" preserveAspectRatio="xMinYMin meet" x="474" y="-281.7"/>
<text text-anchor="start" x="489" y="-271.8" font-family="Helvetica,sans-Serif" font-size="11.00" fill="#000000">reference_data_id_2</text>
<polygon fill="none" stroke="#000000" points="624,-264.7 624,-286.7 689,-286.7 689,-264.7 624,-264.7"/>
<text text-anchor="start" x="627" y="-272.4" font-family="Helvetica,sans-Serif" font-size="11.00" fill="#000000">int8[19]</text>
<polygon fill="#ffffff" stroke="transparent" points="469,-242.7 469,-264.7 624,-264.7 624,-242.7 469,-242.7"/>
<polygon fill="none" stroke="#000000" points="469,-242.7 469,-264.7 624,-264.7 624,-242.7 469,-242.7"/>
<text text-anchor="start" x="489" y="-249.8" font-family="Helvetica,sans-Serif" font-size="11.00" fill="#000000">sequence_number</text>
<polygon fill="none" stroke="#000000" points="624,-242.7 624,-264.7 689,-264.7 689,-242.7 624,-242.7"/>
<text text-anchor="start" x="627" y="-250.4" font-family="Helvetica,sans-Serif" font-size="11.00" fill="#000000">int4[10]</text>
<polygon fill="#ffffff" stroke="transparent" points="469,-223.7 469,-242.7 551,-242.7 551,-223.7 469,-223.7"/>
<polygon fill="none" stroke="#000000" points="469,-223.7 469,-242.7 551,-242.7 551,-223.7 469,-223.7"/>
<text text-anchor="start" x="472" y="-229.8" font-family="Helvetica,sans-Serif" font-size="11.00" fill="#000000">&lt; 2</text>
<polygon fill="#ffffff" stroke="transparent" points="551,-223.7 551,-242.7 624,-242.7 624,-223.7 551,-223.7"/>
<polygon fill="none" stroke="#000000" points="551,-223.7 551,-242.7 624,-242.7 624,-223.7 551,-223.7"/>
<text text-anchor="start" x="614.8862" y="-229.8" font-family="Helvetica,sans-Serif" font-size="11.00" fill="#000000"> &#160;</text>
<polygon fill="#ffffff" stroke="transparent" points="624,-223.7 624,-242.7 689,-242.7 689,-223.7 624,-223.7"/>
<polygon fill="none" stroke="#000000" points="624,-223.7 624,-242.7 689,-242.7 689,-223.7 624,-223.7"/>
<text text-anchor="start" x="670.4053" y="-229.8" font-family="Helvetica,sans-Serif" font-size="11.00" fill="#000000">0 &gt;</text>
<polygon fill="none" stroke="#000000" stroke-width="2" points="468,-222.7 468,-354.7 690,-354.7 690,-222.7 468,-222.7"/>
</a>
</g>
</g>
<!-- reference_data_link&#45;&gt;reference_data -->
<g id="edge4" class="edge">
<title>reference_data_link:w&#45;&gt;reference_data:e</title>
<path fill="none" stroke="#000000" d="M454.6064,-295.1833C407.26,-275.9288 462.9221,-152.7 396.5,-152.7"/>
<polygon fill="#000000" stroke="#000000" points="461.1196,-296.322 468.3799,-301.2462 465.0598,-297.011 469,-297.7 469,-297.7 469,-297.7 465.0598,-297.011 469.6201,-294.1538 461.1196,-296.322 461.1196,-296.322"/>
<ellipse fill="none" stroke="#000000" cx="457.9674" cy="-295.7709" rx="3.2" ry="3.2"/>
</g>
<!-- reference_data_link&#45;&gt;reference_data -->
<g id="edge5" class="edge">
<title>reference_data_link:w&#45;&gt;reference_data:e</title>
<path fill="none" stroke="#000000" d="M454.8398,-273.0166C414.1978,-255.0291 454.3792,-152.7 396.5,-152.7"/>
<polygon fill="#000000" stroke="#000000" points="461.1399,-274.2104 468.3297,-279.237 465.0699,-274.9552 469,-275.7 469,-275.7 469,-275.7 465.0699,-274.9552 469.6703,-272.163 461.1399,-274.2104 461.1399,-274.2104"/>
<ellipse fill="none" stroke="#000000" cx="457.9958" cy="-273.6146" rx="3.2" ry="3.2"/>
</g>
<!-- temporary_absence_authorisation -->
<g id="node5" class="node">
<title>temporary_absence_authorisation</title>
<g id="a_node5"><a xlink:href="../../tables/temporary_absence_authorisation.html" xlink:title="temporary_absence_authorisation" target="_top">
<polygon fill="#ffffff" stroke="transparent" points="445,-61.2 445,-122.2 713,-122.2 713,-61.2 445,-61.2"/>
<polygon fill="#f5f5f5" stroke="transparent" points="445,-98.7 445,-121.7 713,-121.7 713,-98.7 445,-98.7"/>
<polygon fill="none" stroke="#000000" points="445,-98.7 445,-121.7 713,-121.7 713,-98.7 445,-98.7"/>
<text text-anchor="start" x="450" y="-107.3" font-family="Helvetica,sans-Serif" font-weight="bold" font-size="11.00" fill="#000000">temporary_absence_authorisation</text>
<text text-anchor="start" x="678.5219" y="-106.8" font-family="Helvetica,sans-Serif" font-size="11.00" fill="#000000">[table]</text>
<polygon fill="none" stroke="#000000" points="445,-79.7 445,-98.7 713,-98.7 713,-79.7 445,-79.7"/>
<text text-anchor="start" x="448" y="-85.8" font-family="Helvetica,sans-Serif" font-size="11.00" fill="#000000">...</text>
<polygon fill="#ffffff" stroke="transparent" points="445,-60.7 445,-79.7 573,-79.7 573,-60.7 445,-60.7"/>
<polygon fill="none" stroke="#000000" points="445,-60.7 445,-79.7 573,-79.7 573,-60.7 445,-60.7"/>
<text text-anchor="start" x="448" y="-66.8" font-family="Helvetica,sans-Serif" font-size="11.00" fill="#000000">&lt; 5</text>
<polygon fill="#ffffff" stroke="transparent" points="573,-60.7 573,-79.7 638,-79.7 638,-60.7 573,-60.7"/>
<polygon fill="none" stroke="#000000" points="573,-60.7 573,-79.7 638,-79.7 638,-60.7 573,-60.7"/>
<text text-anchor="start" x="628.8862" y="-66.8" font-family="Helvetica,sans-Serif" font-size="11.00" fill="#000000"> &#160;</text>
<polygon fill="#ffffff" stroke="transparent" points="638,-60.7 638,-79.7 713,-79.7 713,-60.7 638,-60.7"/>
<polygon fill="none" stroke="#000000" points="638,-60.7 638,-79.7 713,-79.7 713,-60.7 638,-60.7"/>
<text text-anchor="start" x="694.4053" y="-66.8" font-family="Helvetica,sans-Serif" font-size="11.00" fill="#000000">1 &gt;</text>
</a>
</g>
</g>
<!-- temporary_absence_authorisation&#45;&gt;reference_data -->
<g id="edge6" class="edge">
<title>temporary_absence_authorisation:w&#45;&gt;reference_data:e</title>
<path fill="none" stroke="#000000" d="M431.6462,-82.6053C415.2413,-82.6772 426.3341,-130.9656 396.5,-152.7"/>
<polygon fill="#000000" stroke="#000000" points="437.7222,-85.3784 443.5053,-91.975 441.3611,-87.0392 445,-88.7 445,-88.7 445,-88.7 441.3611,-87.0392 446.4947,-85.425 437.7222,-85.3784 437.7222,-85.3784"/>
<ellipse fill="none" stroke="#000000" cx="434.811" cy="-84.0497" rx="3.2" ry="3.2"/>
</g>
<!-- temporary_absence_authorisation&#45;&gt;reference_data -->
<g id="edge7" class="edge">
<title>temporary_absence_authorisation:w&#45;&gt;reference_data:e</title>
<path fill="none" stroke="#000000" d="M430.3297,-88.6648C415.8311,-97.907 425.4976,-142.1375 396.5,-152.7"/>
<polygon fill="#000000" stroke="#000000" points="437,-88.6808 444.9913,-92.3 441,-88.6904 445,-88.7 445,-88.7 445,-88.7 441,-88.6904 445.0087,-85.1 437,-88.6808 437,-88.6808"/>
<ellipse fill="none" stroke="#000000" cx="433.8" cy="-88.6731" rx="3.2" ry="3.2"/>
</g>
<!-- temporary_absence_authorisation&#45;&gt;reference_data -->
<g id="edge8" class="edge">
<title>temporary_absence_authorisation:w&#45;&gt;reference_data:e</title>
<path fill="none" stroke="#000000" d="M431.1934,-93.722C415.4451,-108.8094 426.0552,-152.7 396.5,-152.7"/>
<polygon fill="#000000" stroke="#000000" points="437.4819,-91.4347 446.2306,-92.0831 441.2409,-90.0673 445,-88.7 445,-88.7 445,-88.7 441.2409,-90.0673 443.7694,-85.3169 437.4819,-91.4347 437.4819,-91.4347"/>
<ellipse fill="none" stroke="#000000" cx="434.4747" cy="-92.5285" rx="3.2" ry="3.2"/>
</g>
<!-- temporary_absence_authorisation&#45;&gt;reference_data -->
<g id="edge9" class="edge">
<title>temporary_absence_authorisation:w&#45;&gt;reference_data:e</title>
<path fill="none" stroke="#000000" d="M433.0924,-96.8541C414.5871,-118.1773 427.1705,-163.8719 396.5,-152.7"/>
<polygon fill="#000000" stroke="#000000" points="438.3993,-93.2201 447.034,-91.6703 441.6996,-90.96 445,-88.7 445,-88.7 445,-88.7 441.6996,-90.96 442.966,-85.7297 438.3993,-93.2201 438.3993,-93.2201"/>
<ellipse fill="none" stroke="#000000" cx="435.759" cy="-95.0281" rx="3.2" ry="3.2"/>
</g>
<!-- temporary_absence_authorisation&#45;&gt;reference_data -->
<g id="edge10" class="edge">
<title>temporary_absence_authorisation:w&#45;&gt;reference_data:e</title>
<path fill="none" stroke="#000000" d="M434.6774,-99.2002C413.8685,-128.464 428.007,-175.6531 396.5,-152.7"/>
<polygon fill="#000000" stroke="#000000" points="439.3916,-94.4049 447.5672,-91.2238 442.1958,-91.5525 445,-88.7 445,-88.7 445,-88.7 442.1958,-91.5525 442.4328,-86.1762 439.3916,-94.4049 439.3916,-94.4049"/>
<ellipse fill="none" stroke="#000000" cx="437.1482" cy="-96.6869" rx="3.2" ry="3.2"/>
</g>
<!-- temporary_absence_movement -->
<g id="node6" class="node">
<title>temporary_absence_movement</title>
<g id="a_node6"><a xlink:href="../../tables/temporary_absence_movement.html" xlink:title="temporary_absence_movement" target="_top">
<polygon fill="#ffffff" stroke="transparent" points="1063,-164.2 1063,-225.2 1312,-225.2 1312,-164.2 1063,-164.2"/>
<polygon fill="#f5f5f5" stroke="transparent" points="1063.5,-201.7 1063.5,-224.7 1312.5,-224.7 1312.5,-201.7 1063.5,-201.7"/>
<polygon fill="none" stroke="#000000" points="1063.5,-201.7 1063.5,-224.7 1312.5,-224.7 1312.5,-201.7 1063.5,-201.7"/>
<text text-anchor="start" x="1068.5" y="-210.3" font-family="Helvetica,sans-Serif" font-weight="bold" font-size="11.00" fill="#000000">temporary_absence_movement</text>
<text text-anchor="start" x="1278.0219" y="-209.8" font-family="Helvetica,sans-Serif" font-size="11.00" fill="#000000">[table]</text>
<polygon fill="none" stroke="#000000" points="1063.5,-182.7 1063.5,-201.7 1312.5,-201.7 1312.5,-182.7 1063.5,-182.7"/>
<text text-anchor="start" x="1066.5" y="-188.8" font-family="Helvetica,sans-Serif" font-size="11.00" fill="#000000">...</text>
<polygon fill="#ffffff" stroke="transparent" points="1063.5,-163.7 1063.5,-182.7 1186.5,-182.7 1186.5,-163.7 1063.5,-163.7"/>
<polygon fill="none" stroke="#000000" points="1063.5,-163.7 1063.5,-182.7 1186.5,-182.7 1186.5,-163.7 1063.5,-163.7"/>
<text text-anchor="start" x="1066.5" y="-169.8" font-family="Helvetica,sans-Serif" font-size="11.00" fill="#000000">&lt; 3</text>
<polygon fill="#ffffff" stroke="transparent" points="1186.5,-163.7 1186.5,-182.7 1249.5,-182.7 1249.5,-163.7 1186.5,-163.7"/>
<polygon fill="none" stroke="#000000" points="1186.5,-163.7 1186.5,-182.7 1249.5,-182.7 1249.5,-163.7 1186.5,-163.7"/>
<text text-anchor="start" x="1240.3862" y="-169.8" font-family="Helvetica,sans-Serif" font-size="11.00" fill="#000000"> &#160;</text>
<polygon fill="#ffffff" stroke="transparent" points="1249.5,-163.7 1249.5,-182.7 1312.5,-182.7 1312.5,-163.7 1249.5,-163.7"/>
<polygon fill="none" stroke="#000000" points="1249.5,-163.7 1249.5,-182.7 1312.5,-182.7 1312.5,-163.7 1249.5,-163.7"/>
<text text-anchor="start" x="1303.3862" y="-169.8" font-family="Helvetica,sans-Serif" font-size="11.00" fill="#000000"> &#160;</text>
</a>
</g>
</g>
<!-- temporary_absence_movement&#45;&gt;reference_data -->
<g id="edge11" class="edge">
<title>temporary_absence_movement:w&#45;&gt;reference_data:e</title>
<path fill="none" stroke="#000000" d="M1048.9853,-191.6875C782.1111,-191.2225 710.162,-177.81 437,-156.7 418.9662,-155.3063 414.5876,-152.7 396.5,-152.7"/>
<polygon fill="#000000" stroke="#000000" points="1055.5,-191.6931 1063.4969,-195.3 1059.5,-191.6965 1063.5,-191.7 1063.5,-191.7 1063.5,-191.7 1059.5,-191.6965 1063.5031,-188.1 1055.5,-191.6931 1055.5,-191.6931"/>
<ellipse fill="none" stroke="#000000" cx="1052.3" cy="-191.6903" rx="3.2" ry="3.2"/>
</g>
<!-- temporary_absence_movement&#45;&gt;reference_data -->
<g id="edge12" class="edge">
<title>temporary_absence_movement:w&#45;&gt;reference_data:e</title>
<path fill="none" stroke="#000000" d="M1048.8935,-191.6681C764.0604,-190.4158 688.5209,-152.7 396.5,-152.7"/>
<polygon fill="#000000" stroke="#000000" points="1055.5,-191.6825 1063.4921,-195.3 1059.5,-191.6912 1063.5,-191.7 1063.5,-191.7 1063.5,-191.7 1059.5,-191.6912 1063.5079,-188.1 1055.5,-191.6825 1055.5,-191.6825"/>
<ellipse fill="none" stroke="#000000" cx="1052.3" cy="-191.6755" rx="3.2" ry="3.2"/>
</g>
<!-- temporary_absence_occurrence -->
<g id="node7" class="node">
<title>temporary_absence_occurrence</title>
<g id="a_node7"><a xlink:href="../../tables/temporary_absence_occurrence.html" xlink:title="temporary_absence_occurrence" target="_top">
<polygon fill="#ffffff" stroke="transparent" points="762,-100.2 762,-161.2 1014,-161.2 1014,-100.2 762,-100.2"/>
<polygon fill="#f5f5f5" stroke="transparent" points="762,-137.7 762,-160.7 1014,-160.7 1014,-137.7 762,-137.7"/>
<polygon fill="none" stroke="#000000" points="762,-137.7 762,-160.7 1014,-160.7 1014,-137.7 762,-137.7"/>
<text text-anchor="start" x="767" y="-146.3" font-family="Helvetica,sans-Serif" font-weight="bold" font-size="11.00" fill="#000000">temporary_absence_occurrence</text>
<text text-anchor="start" x="979.5219" y="-145.8" font-family="Helvetica,sans-Serif" font-size="11.00" fill="#000000">[table]</text>
<polygon fill="none" stroke="#000000" points="762,-118.7 762,-137.7 1014,-137.7 1014,-118.7 762,-118.7"/>
<text text-anchor="start" x="765" y="-124.8" font-family="Helvetica,sans-Serif" font-size="11.00" fill="#000000">...</text>
<polygon fill="#ffffff" stroke="transparent" points="762,-99.7 762,-118.7 882,-118.7 882,-99.7 762,-99.7"/>
<polygon fill="none" stroke="#000000" points="762,-99.7 762,-118.7 882,-118.7 882,-99.7 762,-99.7"/>
<text text-anchor="start" x="765" y="-105.8" font-family="Helvetica,sans-Serif" font-size="11.00" fill="#000000">&lt; 3</text>
<polygon fill="#ffffff" stroke="transparent" points="882,-99.7 882,-118.7 943,-118.7 943,-99.7 882,-99.7"/>
<polygon fill="none" stroke="#000000" points="882,-99.7 882,-118.7 943,-118.7 943,-99.7 882,-99.7"/>
<text text-anchor="start" x="933.8862" y="-105.8" font-family="Helvetica,sans-Serif" font-size="11.00" fill="#000000"> &#160;</text>
<polygon fill="#ffffff" stroke="transparent" points="943,-99.7 943,-118.7 1014,-118.7 1014,-99.7 943,-99.7"/>
<polygon fill="none" stroke="#000000" points="943,-99.7 943,-118.7 1014,-118.7 1014,-99.7 943,-99.7"/>
<text text-anchor="start" x="995.4053" y="-105.8" font-family="Helvetica,sans-Serif" font-size="11.00" fill="#000000">1 &gt;</text>
</a>
</g>
</g>
<!-- temporary_absence_movement&#45;&gt;temporary_absence_occurrence -->
<g id="edge13" class="edge">
<title>temporary_absence_movement:w&#45;&gt;temporary_absence_occurrence:e</title>
<path fill="none" stroke="#000000" d="M1049.5392,-186.678C1033.5225,-171.5906 1043.779,-127.7 1014,-127.7"/>
<polygon fill="#000000" stroke="#000000" points="1055.9722,-188.9921 1062.2814,-195.0875 1059.7361,-190.346 1063.5,-191.7 1063.5,-191.7 1063.5,-191.7 1059.7361,-190.346 1064.7186,-188.3125 1055.9722,-188.9921 1055.9722,-188.9921"/>
<ellipse fill="none" stroke="#000000" cx="1052.9611" cy="-187.9089" rx="3.2" ry="3.2"/>
</g>
<!-- temporary_absence_occurrence&#45;&gt;reference_data -->
<g id="edge14" class="edge">
<title>temporary_absence_occurrence:w&#45;&gt;reference_data:e</title>
<path fill="none" stroke="#000000" d="M747.4638,-128.5979C739.2815,-129.7037 733.2822,-131.5736 721,-132.7 577.108,-145.8963 540.9959,-152.7 396.5,-152.7"/>
<polygon fill="#000000" stroke="#000000" points="754.0152,-128.1933 762.222,-131.2932 758.0076,-127.9466 762,-127.7 762,-127.7 762,-127.7 758.0076,-127.9466 761.778,-124.1068 754.0152,-128.1933 754.0152,-128.1933"/>
<ellipse fill="none" stroke="#000000" cx="750.8213" cy="-128.3906" rx="3.2" ry="3.2"/>
</g>
<!-- temporary_absence_occurrence&#45;&gt;reference_data -->
<g id="edge16" class="edge">
<title>temporary_absence_occurrence:w&#45;&gt;reference_data:e</title>
<path fill="none" stroke="#000000" d="M747.595,-127.9161C658.783,-130.3596 473.4598,-152.7 396.5,-152.7"/>
<polygon fill="#000000" stroke="#000000" points="754.0009,-127.8201 762.054,-131.2996 758.0005,-127.76 762,-127.7 762,-127.7 762,-127.7 758.0005,-127.76 761.946,-124.1004 754.0009,-127.8201 754.0009,-127.8201"/>
<ellipse fill="none" stroke="#000000" cx="750.8013" cy="-127.8681" rx="3.2" ry="3.2"/>
</g>
<!-- temporary_absence_occurrence&#45;&gt;temporary_absence_authorisation -->
<g id="edge15" class="edge">
<title>temporary_absence_occurrence:w&#45;&gt;temporary_absence_authorisation:e</title>
<path fill="none" stroke="#000000" d="M747.9646,-122.9178C735.4324,-112.5037 734.7451,-88.7 713,-88.7"/>
<polygon fill="#000000" stroke="#000000" points="754.4275,-125.1198 760.8389,-131.1076 758.2137,-126.4099 762,-127.7 762,-127.7 762,-127.7 758.2137,-126.4099 763.1611,-124.2924 754.4275,-125.1198 754.4275,-125.1198"/>
<ellipse fill="none" stroke="#000000" cx="751.3985" cy="-124.0878" rx="3.2" ry="3.2"/>
</g>
</g>
</svg>
