<?xml version="1.0" encoding="UTF-8" standalone="no"?>
<!DOCTYPE svg PUBLIC "-//W3C//DTD SVG 1.1//EN"
 "http://www.w3.org/Graphics/SVG/1.1/DTD/svg11.dtd">
<!-- Generated by graphviz version 2.40.1 (20161225.0304)
 -->
<!-- Title: twoDegreesRelationshipsDiagram Pages: 1 -->
<svg width="1378pt" height="414pt"
 viewBox="0.00 0.00 1378.00 414.20" xmlns="http://www.w3.org/2000/svg" xmlns:xlink="http://www.w3.org/1999/xlink">
<g id="graph0" class="graph" transform="scale(1 1) rotate(0) translate(4 410.2)">
<title>twoDegreesRelationshipsDiagram</title>
<polygon fill="#ffffff" stroke="transparent" points="-4,4 -4,-410.2 1374,-410.2 1374,4 -4,4"/>
<text text-anchor="middle" x="72.4936" y="-7.3" font-family="Helvetica,sans-Serif" font-size="11.00" fill="#000000">Generated by SchemaSpy</text>
<!-- reference_data -->
<g id="node1" class="node">
<title>reference_data</title>
<g id="a_node1"><a xlink:href="../../tables/reference_data.html" xlink:title="reference_data" target="_top">
<polygon fill="#ffffff" stroke="transparent" points="306,-129.2 306,-190.2 446,-190.2 446,-129.2 306,-129.2"/>
<polygon fill="#f5f5f5" stroke="transparent" points="306,-166.7 306,-189.7 446,-189.7 446,-166.7 306,-166.7"/>
<polygon fill="none" stroke="#000000" points="306,-166.7 306,-189.7 446,-189.7 446,-166.7 306,-166.7"/>
<text text-anchor="start" x="311" y="-175.3" font-family="Helvetica,sans-Serif" font-weight="bold" font-size="11.00" fill="#000000">reference_data</text>
<text text-anchor="start" x="411.5219" y="-174.8" font-family="Helvetica,sans-Serif" font-size="11.00" fill="#000000">[table]</text>
<polygon fill="none" stroke="#000000" points="306,-147.7 306,-166.7 446,-166.7 446,-147.7 306,-147.7"/>
<text text-anchor="start" x="309" y="-153.8" font-family="Helvetica,sans-Serif" font-size="11.00" fill="#000000">...</text>
<polygon fill="#ffffff" stroke="transparent" points="306,-128.7 306,-147.7 367,-147.7 367,-128.7 306,-128.7"/>
<polygon fill="none" stroke="#000000" points="306,-128.7 306,-147.7 367,-147.7 367,-128.7 306,-128.7"/>
<text text-anchor="start" x="309" y="-134.8" font-family="Helvetica,sans-Serif" font-size="11.00" fill="#000000">&lt; 1</text>
<polygon fill="#ffffff" stroke="transparent" points="367,-128.7 367,-147.7 399,-147.7 399,-128.7 367,-128.7"/>
<polygon fill="none" stroke="#000000" points="367,-128.7 367,-147.7 399,-147.7 399,-128.7 367,-128.7"/>
<text text-anchor="start" x="389.8862" y="-134.8" font-family="Helvetica,sans-Serif" font-size="11.00" fill="#000000"> &#160;</text>
<polygon fill="#ffffff" stroke="transparent" points="399,-128.7 399,-147.7 446,-147.7 446,-128.7 399,-128.7"/>
<polygon fill="none" stroke="#000000" points="399,-128.7 399,-147.7 446,-147.7 446,-128.7 399,-128.7"/>
<text text-anchor="start" x="421.2904" y="-134.8" font-family="Helvetica,sans-Serif" font-size="11.00" fill="#000000">18 &gt;</text>
</a>
</g>
</g>
<!-- reference_data_domain -->
<g id="node2" class="node">
<title>reference_data_domain</title>
<g id="a_node2"><a xlink:href="../../tables/reference_data_domain.html" xlink:title="reference_data_domain" target="_top">
<polygon fill="#ffffff" stroke="transparent" points="8,-132.7 8,-222.7 257,-222.7 257,-132.7 8,-132.7"/>
<polygon fill="#f5f5f5" stroke="transparent" points="10.5,-197.7 10.5,-220.7 255.5,-220.7 255.5,-197.7 10.5,-197.7"/>
<polygon fill="none" stroke="#000000" points="10.5,-197.7 10.5,-220.7 255.5,-220.7 255.5,-197.7 10.5,-197.7"/>
<text text-anchor="start" x="15.5" y="-206.3" font-family="Helvetica,sans-Serif" font-weight="bold" font-size="11.00" fill="#000000">reference_data_domain</text>
<text text-anchor="start" x="220.5437" y="-205.8" font-family="Helvetica,sans-Serif" font-size="11.00" fill="#000000">[table]</text>
<polygon fill="none" stroke="#000000" points="10.5,-175.7 10.5,-197.7 188.5,-197.7 188.5,-175.7 10.5,-175.7"/>
<image xlink:href="../../images/primaryKeys.png" width="11px" height="12px" preserveAspectRatio="xMinYMin meet" x="15.5" y="-192.7"/>
<text text-anchor="start" x="30.5" y="-182.8" font-family="Helvetica,sans-Serif" font-size="11.00" fill="#000000">code</text>
<polygon fill="none" stroke="#000000" points="188.5,-175.7 188.5,-197.7 255.5,-197.7 255.5,-175.7 188.5,-175.7"/>
<text text-anchor="start" x="191.5" y="-183.4" font-family="Helvetica,sans-Serif" font-size="11.00" fill="#000000">varchar[32]</text>
<polygon fill="none" stroke="#000000" points="10.5,-153.7 10.5,-175.7 188.5,-175.7 188.5,-153.7 10.5,-153.7"/>
<text text-anchor="start" x="30.5" y="-160.8" font-family="Helvetica,sans-Serif" font-size="11.00" fill="#000000">description</text>
<polygon fill="none" stroke="#000000" points="188.5,-153.7 188.5,-175.7 255.5,-175.7 255.5,-153.7 188.5,-153.7"/>
<text text-anchor="start" x="191.4365" y="-161.4" font-family="Helvetica,sans-Serif" font-size="11.00" fill="#000000">varchar[255]</text>
<polygon fill="#ffffff" stroke="transparent" points="10.5,-134.7 10.5,-153.7 103.5,-153.7 103.5,-134.7 10.5,-134.7"/>
<polygon fill="none" stroke="#000000" points="10.5,-134.7 10.5,-153.7 103.5,-153.7 103.5,-134.7 10.5,-134.7"/>
<text text-anchor="start" x="13.5" y="-140.8" font-family="Helvetica,sans-Serif" font-size="11.00" fill="#000000">&lt; 0</text>
<polygon fill="#ffffff" stroke="transparent" points="103.5,-134.7 103.5,-153.7 188.5,-153.7 188.5,-134.7 103.5,-134.7"/>
<polygon fill="none" stroke="#000000" points="103.5,-134.7 103.5,-153.7 188.5,-153.7 188.5,-134.7 103.5,-134.7"/>
<text text-anchor="start" x="179.3862" y="-140.8" font-family="Helvetica,sans-Serif" font-size="11.00" fill="#000000"> &#160;</text>
<polygon fill="#ffffff" stroke="transparent" points="188.5,-134.7 188.5,-153.7 255.5,-153.7 255.5,-134.7 188.5,-134.7"/>
<polygon fill="none" stroke="#000000" points="188.5,-134.7 188.5,-153.7 255.5,-153.7 255.5,-134.7 188.5,-134.7"/>
<text text-anchor="start" x="236.9053" y="-140.8" font-family="Helvetica,sans-Serif" font-size="11.00" fill="#000000">2 &gt;</text>
<polygon fill="none" stroke="#000000" stroke-width="2" points="9,-133.7 9,-221.7 256,-221.7 256,-133.7 9,-133.7"/>
</a>
</g>
</g>
<!-- reference_data&#45;&gt;reference_data_domain -->
<g id="edge1" class="edge">
<title>reference_data:w&#45;&gt;reference_data_domain:e</title>
<path fill="none" stroke="#000000" d="M283.2592,-184.7297C273.9428,-185.9619 264.5747,-186.7 255.5,-186.7"/>
<polygon fill="#000000" stroke="#000000" points="289.9059,-183.6753 298.3711,-185.9773 293.8565,-183.0485 297.8071,-182.4218 297.8071,-182.4218 297.8071,-182.4218 293.8565,-183.0485 297.243,-178.8662 289.9059,-183.6753 289.9059,-183.6753"/>
<ellipse fill="none" stroke="#000000" cx="286.7454" cy="-184.1767" rx="3.2" ry="3.2"/>
</g>
<!-- reference_data_domain_link -->
<g id="node3" class="node">
<title>reference_data_domain_link</title>
<g id="a_node3"><a xlink:href="../../tables/reference_data_domain_link.html" xlink:title="reference_data_domain_link" target="_top">
<polygon fill="#ffffff" stroke="transparent" points="515.5,-341.2 515.5,-402.2 742.5,-402.2 742.5,-341.2 515.5,-341.2"/>
<polygon fill="#f5f5f5" stroke="transparent" points="516,-378.7 516,-401.7 743,-401.7 743,-378.7 516,-378.7"/>
<polygon fill="none" stroke="#000000" points="516,-378.7 516,-401.7 743,-401.7 743,-378.7 516,-378.7"/>
<text text-anchor="start" x="521" y="-387.3" font-family="Helvetica,sans-Serif" font-weight="bold" font-size="11.00" fill="#000000">reference_data_domain_link</text>
<text text-anchor="start" x="708.5219" y="-386.8" font-family="Helvetica,sans-Serif" font-size="11.00" fill="#000000">[table]</text>
<polygon fill="none" stroke="#000000" points="516,-359.7 516,-378.7 743,-378.7 743,-359.7 516,-359.7"/>
<text text-anchor="start" x="519" y="-365.8" font-family="Helvetica,sans-Serif" font-size="11.00" fill="#000000">...</text>
<polygon fill="#ffffff" stroke="transparent" points="516,-340.7 516,-359.7 628,-359.7 628,-340.7 516,-340.7"/>
<polygon fill="none" stroke="#000000" points="516,-340.7 516,-359.7 628,-359.7 628,-340.7 516,-340.7"/>
<text text-anchor="start" x="519" y="-346.8" font-family="Helvetica,sans-Serif" font-size="11.00" fill="#000000">&lt; 2</text>
<polygon fill="#ffffff" stroke="transparent" points="628,-340.7 628,-359.7 685,-359.7 685,-340.7 628,-340.7"/>
<polygon fill="none" stroke="#000000" points="628,-340.7 628,-359.7 685,-359.7 685,-340.7 628,-340.7"/>
<text text-anchor="start" x="675.8862" y="-346.8" font-family="Helvetica,sans-Serif" font-size="11.00" fill="#000000"> &#160;</text>
<polygon fill="#ffffff" stroke="transparent" points="685,-340.7 685,-359.7 743,-359.7 743,-340.7 685,-340.7"/>
<polygon fill="none" stroke="#000000" points="685,-340.7 685,-359.7 743,-359.7 743,-340.7 685,-340.7"/>
<text text-anchor="start" x="733.8862" y="-346.8" font-family="Helvetica,sans-Serif" font-size="11.00" fill="#000000"> &#160;</text>
</a>
</g>
</g>
<!-- reference_data_domain_link&#45;&gt;reference_data -->
<g id="edge3" class="edge">
<title>reference_data_domain_link:w&#45;&gt;reference_data:e</title>
<path fill="none" stroke="#000000" d="M498.0619,-338.0752C494.236,-335.777 490.5361,-333.3222 487,-330.7 483.7839,-328.3151 429.6274,-243.8209 398.1711,-194.5172"/>
<polygon fill="#000000" stroke="#000000" points="508.4451,-339.2738 504.5561,-346.265 503.1579,-345.4872 507.0469,-338.496 508.4451,-339.2738"/>
<polyline fill="none" stroke="#000000" points="507.1998,-343.1583 503.7042,-341.2138 "/>
<ellipse fill="none" stroke="#000000" cx="500.9077" cy="-339.6582" rx="3.2" ry="3.2"/>
</g>
<!-- reference_data_domain_link&#45;&gt;reference_data_domain -->
<g id="edge2" class="edge">
<title>reference_data_domain_link:w&#45;&gt;reference_data_domain:e</title>
<path fill="none" stroke="#000000" d="M493.8567,-333.6601C491.5437,-332.691 489.2563,-331.7043 487,-330.7 459.3252,-318.3818 285.7925,-186.7 255.5,-186.7"/>
<polygon fill="#000000" stroke="#000000" points="499.9092,-336.0637 506.0156,-342.3623 503.6267,-337.5401 507.3443,-339.0165 507.3443,-339.0165 507.3443,-339.0165 503.6267,-337.5401 508.6731,-335.6707 499.9092,-336.0637 499.9092,-336.0637"/>
<ellipse fill="none" stroke="#000000" cx="496.9351" cy="-334.8826" rx="3.2" ry="3.2"/>
</g>
<!-- reference_data_link -->
<g id="node4" class="node">
<title>reference_data_link</title>
<g id="a_node4"><a xlink:href="../../tables/reference_data_link.html" xlink:title="reference_data_link" target="_top">
<polygon fill="#ffffff" stroke="transparent" points="543.5,-259.2 543.5,-320.2 714.5,-320.2 714.5,-259.2 543.5,-259.2"/>
<polygon fill="#f5f5f5" stroke="transparent" points="544,-296.7 544,-319.7 715,-319.7 715,-296.7 544,-296.7"/>
<polygon fill="none" stroke="#000000" points="544,-296.7 544,-319.7 715,-319.7 715,-296.7 544,-296.7"/>
<text text-anchor="start" x="549" y="-305.3" font-family="Helvetica,sans-Serif" font-weight="bold" font-size="11.00" fill="#000000">reference_data_link</text>
<text text-anchor="start" x="680.5219" y="-304.8" font-family="Helvetica,sans-Serif" font-size="11.00" fill="#000000">[table]</text>
<polygon fill="none" stroke="#000000" points="544,-277.7 544,-296.7 715,-296.7 715,-277.7 544,-277.7"/>
<text text-anchor="start" x="547" y="-283.8" font-family="Helvetica,sans-Serif" font-size="11.00" fill="#000000">...</text>
<polygon fill="#ffffff" stroke="transparent" points="544,-258.7 544,-277.7 628,-277.7 628,-258.7 544,-258.7"/>
<polygon fill="none" stroke="#000000" points="544,-258.7 544,-277.7 628,-277.7 628,-258.7 544,-258.7"/>
<text text-anchor="start" x="547" y="-264.8" font-family="Helvetica,sans-Serif" font-size="11.00" fill="#000000">&lt; 2</text>
<polygon fill="#ffffff" stroke="transparent" points="628,-258.7 628,-277.7 671,-277.7 671,-258.7 628,-258.7"/>
<polygon fill="none" stroke="#000000" points="628,-258.7 628,-277.7 671,-277.7 671,-258.7 628,-258.7"/>
<text text-anchor="start" x="661.8862" y="-264.8" font-family="Helvetica,sans-Serif" font-size="11.00" fill="#000000"> &#160;</text>
<polygon fill="#ffffff" stroke="transparent" points="671,-258.7 671,-277.7 715,-277.7 715,-258.7 671,-258.7"/>
<polygon fill="none" stroke="#000000" points="671,-258.7 671,-277.7 715,-277.7 715,-258.7 671,-258.7"/>
<text text-anchor="start" x="705.8862" y="-264.8" font-family="Helvetica,sans-Serif" font-size="11.00" fill="#000000"> &#160;</text>
</a>
</g>
</g>
<!-- reference_data_link&#45;&gt;reference_data -->
<g id="edge4" class="edge">
<title>reference_data_link:w&#45;&gt;reference_data:e</title>
<path fill="none" stroke="#000000" d="M529.5864,-284.823C476.458,-274.4377 430.776,-227.6706 403.3604,-194.3118"/>
<polygon fill="#000000" stroke="#000000" points="536.067,-285.6669 543.5351,-290.2699 540.0335,-286.1834 544,-286.7 544,-286.7 544,-286.7 540.0335,-286.1834 544.4649,-283.1301 536.067,-285.6669 536.067,-285.6669"/>
<ellipse fill="none" stroke="#000000" cx="532.8938" cy="-285.2536" rx="3.2" ry="3.2"/>
</g>
<!-- reference_data_link&#45;&gt;reference_data -->
<g id="edge5" class="edge">
<title>reference_data_link:w&#45;&gt;reference_data:e</title>
<path fill="none" stroke="#000000" d="M529.5424,-286.7394C471.7888,-282.7821 422.8393,-230.6575 396.5965,-194.3394"/>
<polygon fill="#000000" stroke="#000000" points="536,-286.7218 544.0098,-290.3 540,-286.7109 544,-286.7 544,-286.7 544,-286.7 540,-286.7109 543.9902,-283.1 536,-286.7218 536,-286.7218"/>
<ellipse fill="none" stroke="#000000" cx="532.8" cy="-286.7306" rx="3.2" ry="3.2"/>
</g>
<!-- temporary_absence_authorisation -->
<g id="node5" class="node">
<title>temporary_absence_authorisation</title>
<g id="a_node5"><a xlink:href="../../tables/temporary_absence_authorisation.html" xlink:title="temporary_absence_authorisation" target="_top">
<polygon fill="#ffffff" stroke="transparent" points="495,-38.2 495,-99.2 763,-99.2 763,-38.2 495,-38.2"/>
<polygon fill="#f5f5f5" stroke="transparent" points="495,-75.7 495,-98.7 763,-98.7 763,-75.7 495,-75.7"/>
<polygon fill="none" stroke="#000000" points="495,-75.7 495,-98.7 763,-98.7 763,-75.7 495,-75.7"/>
<text text-anchor="start" x="500" y="-84.3" font-family="Helvetica,sans-Serif" font-weight="bold" font-size="11.00" fill="#000000">temporary_absence_authorisation</text>
<text text-anchor="start" x="728.5219" y="-83.8" font-family="Helvetica,sans-Serif" font-size="11.00" fill="#000000">[table]</text>
<polygon fill="none" stroke="#000000" points="495,-56.7 495,-75.7 763,-75.7 763,-56.7 495,-56.7"/>
<text text-anchor="start" x="498" y="-62.8" font-family="Helvetica,sans-Serif" font-size="11.00" fill="#000000">...</text>
<polygon fill="#ffffff" stroke="transparent" points="495,-37.7 495,-56.7 623,-56.7 623,-37.7 495,-37.7"/>
<polygon fill="none" stroke="#000000" points="495,-37.7 495,-56.7 623,-56.7 623,-37.7 495,-37.7"/>
<text text-anchor="start" x="498" y="-43.8" font-family="Helvetica,sans-Serif" font-size="11.00" fill="#000000">&lt; 7</text>
<polygon fill="#ffffff" stroke="transparent" points="623,-37.7 623,-56.7 688,-56.7 688,-37.7 623,-37.7"/>
<polygon fill="none" stroke="#000000" points="623,-37.7 623,-56.7 688,-56.7 688,-37.7 623,-37.7"/>
<text text-anchor="start" x="678.8862" y="-43.8" font-family="Helvetica,sans-Serif" font-size="11.00" fill="#000000"> &#160;</text>
<polygon fill="#ffffff" stroke="transparent" points="688,-37.7 688,-56.7 763,-56.7 763,-37.7 688,-37.7"/>
<polygon fill="none" stroke="#000000" points="688,-37.7 688,-56.7 763,-56.7 763,-37.7 688,-37.7"/>
<text text-anchor="start" x="744.4053" y="-43.8" font-family="Helvetica,sans-Serif" font-size="11.00" fill="#000000">1 &gt;</text>
</a>
</g>
</g>
<!-- temporary_absence_authorisation&#45;&gt;reference_data -->
<g id="edge6" class="edge">
<title>temporary_absence_authorisation:w&#45;&gt;reference_data:e</title>
<path fill="none" stroke="#000000" d="M481.2798,-60.8125C437.874,-50.4693 402.6032,-90.4533 386.106,-124.9025"/>
<polygon fill="#000000" stroke="#000000" points="487.4639,-63.0154 493.7919,-69.0913 491.2319,-64.3577 495,-65.7 495,-65.7 495,-65.7 491.2319,-64.3577 496.2081,-62.3087 487.4639,-63.0154 487.4639,-63.0154"/>
<ellipse fill="none" stroke="#000000" cx="484.4494" cy="-61.9415" rx="3.2" ry="3.2"/>
</g>
<!-- temporary_absence_authorisation&#45;&gt;reference_data -->
<g id="edge7" class="edge">
<title>temporary_absence_authorisation:w&#45;&gt;reference_data:e</title>
<path fill="none" stroke="#000000" d="M480.6818,-63.2821C440.9744,-61.0299 408.1395,-95.9631 390.3637,-125.0946"/>
<polygon fill="#000000" stroke="#000000" points="487.1117,-64.3679 494.4005,-69.2497 491.0558,-65.0339 495,-65.7 495,-65.7 495,-65.7 491.0558,-65.0339 495.5995,-62.1503 487.1117,-64.3679 487.1117,-64.3679"/>
<ellipse fill="none" stroke="#000000" cx="483.9564" cy="-63.835" rx="3.2" ry="3.2"/>
</g>
<!-- temporary_absence_authorisation&#45;&gt;reference_data -->
<g id="edge8" class="edge">
<title>temporary_absence_authorisation:w&#45;&gt;reference_data:e</title>
<path fill="none" stroke="#000000" d="M480.5927,-65.9015C445.1095,-70.0126 415.122,-99.924 396.4768,-124.9364"/>
<polygon fill="#000000" stroke="#000000" points="487.0008,-65.8119 495.0504,-69.2996 491.0004,-65.756 495,-65.7 495,-65.7 495,-65.7 491.0004,-65.756 494.9496,-62.1004 487.0008,-65.8119 487.0008,-65.8119"/>
<ellipse fill="none" stroke="#000000" cx="483.8011" cy="-65.8567" rx="3.2" ry="3.2"/>
</g>
<!-- temporary_absence_authorisation&#45;&gt;reference_data -->
<g id="edge9" class="edge">
<title>temporary_absence_authorisation:w&#45;&gt;reference_data:e</title>
<path fill="none" stroke="#000000" d="M480.4768,-68.5592C449.4804,-77.5015 422.6855,-103.1539 403.9933,-125.0314"/>
<polygon fill="#000000" stroke="#000000" points="487.1507,-67.2453 495.6954,-69.2322 491.0753,-66.4727 495,-65.7 495,-65.7 495,-65.7 491.0753,-66.4727 494.3046,-62.1678 487.1507,-67.2453 487.1507,-67.2453"/>
<ellipse fill="none" stroke="#000000" cx="484.0109" cy="-67.8635" rx="3.2" ry="3.2"/>
</g>
<!-- temporary_absence_authorisation&#45;&gt;reference_data -->
<g id="edge10" class="edge">
<title>temporary_absence_authorisation:w&#45;&gt;reference_data:e</title>
<path fill="none" stroke="#000000" d="M481.1994,-70.8742C454.4695,-82.9464 430.8286,-105.3147 412.7627,-124.9246"/>
<polygon fill="#000000" stroke="#000000" points="487.5092,-68.5085 496.2638,-69.0709 491.2546,-67.1043 495,-65.7 495,-65.7 495,-65.7 491.2546,-67.1043 493.7362,-62.3291 487.5092,-68.5085 487.5092,-68.5085"/>
<ellipse fill="none" stroke="#000000" cx="484.5128" cy="-69.6319" rx="3.2" ry="3.2"/>
</g>
<!-- temporary_absence_authorisation&#45;&gt;reference_data -->
<g id="edge11" class="edge">
<title>temporary_absence_authorisation:w&#45;&gt;reference_data:e</title>
<path fill="none" stroke="#000000" d="M482.3848,-72.6616C459.3742,-86.7589 438.6103,-106.9602 421.6631,-125.0213"/>
<polygon fill="#000000" stroke="#000000" points="487.9957,-69.5653 496.7394,-68.8519 491.4979,-67.6326 495,-65.7 495,-65.7 495,-65.7 491.4979,-67.6326 493.2606,-62.5481 487.9957,-69.5653 487.9957,-69.5653"/>
<ellipse fill="none" stroke="#000000" cx="485.194" cy="-71.1114" rx="3.2" ry="3.2"/>
</g>
<!-- temporary_absence_movement -->
<g id="node6" class="node">
<title>temporary_absence_movement</title>
<g id="a_node6"><a xlink:href="../../tables/temporary_absence_movement.html" xlink:title="temporary_absence_movement" target="_top">
<polygon fill="#ffffff" stroke="transparent" points="1113,-201.2 1113,-262.2 1362,-262.2 1362,-201.2 1113,-201.2"/>
<polygon fill="#f5f5f5" stroke="transparent" points="1113.5,-238.7 1113.5,-261.7 1362.5,-261.7 1362.5,-238.7 1113.5,-238.7"/>
<polygon fill="none" stroke="#000000" points="1113.5,-238.7 1113.5,-261.7 1362.5,-261.7 1362.5,-238.7 1113.5,-238.7"/>
<text text-anchor="start" x="1118.5" y="-247.3" font-family="Helvetica,sans-Serif" font-weight="bold" font-size="11.00" fill="#000000">temporary_absence_movement</text>
<text text-anchor="start" x="1328.0219" y="-246.8" font-family="Helvetica,sans-Serif" font-size="11.00" fill="#000000">[table]</text>
<polygon fill="none" stroke="#000000" points="1113.5,-219.7 1113.5,-238.7 1362.5,-238.7 1362.5,-219.7 1113.5,-219.7"/>
<text text-anchor="start" x="1116.5" y="-225.8" font-family="Helvetica,sans-Serif" font-size="11.00" fill="#000000">...</text>
<polygon fill="#ffffff" stroke="transparent" points="1113.5,-200.7 1113.5,-219.7 1236.5,-219.7 1236.5,-200.7 1113.5,-200.7"/>
<polygon fill="none" stroke="#000000" points="1113.5,-200.7 1113.5,-219.7 1236.5,-219.7 1236.5,-200.7 1113.5,-200.7"/>
<text text-anchor="start" x="1116.5" y="-206.8" font-family="Helvetica,sans-Serif" font-size="11.00" fill="#000000">&lt; 4</text>
<polygon fill="#ffffff" stroke="transparent" points="1236.5,-200.7 1236.5,-219.7 1299.5,-219.7 1299.5,-200.7 1236.5,-200.7"/>
<polygon fill="none" stroke="#000000" points="1236.5,-200.7 1236.5,-219.7 1299.5,-219.7 1299.5,-200.7 1236.5,-200.7"/>
<text text-anchor="start" x="1290.3862" y="-206.8" font-family="Helvetica,sans-Serif" font-size="11.00" fill="#000000"> &#160;</text>
<polygon fill="#ffffff" stroke="transparent" points="1299.5,-200.7 1299.5,-219.7 1362.5,-219.7 1362.5,-200.7 1299.5,-200.7"/>
<polygon fill="none" stroke="#000000" points="1299.5,-200.7 1299.5,-219.7 1362.5,-219.7 1362.5,-200.7 1299.5,-200.7"/>
<text text-anchor="start" x="1353.3862" y="-206.8" font-family="Helvetica,sans-Serif" font-size="11.00" fill="#000000"> &#160;</text>
</a>
</g>
</g>
<!-- temporary_absence_movement&#45;&gt;reference_data -->
<g id="edge12" class="edge">
<title>temporary_absence_movement:w&#45;&gt;reference_data:e</title>
<path fill="none" stroke="#000000" d="M1098.9925,-228.4221C832.1481,-223.9496 754.4445,-258.0424 487,-199.7 476.0963,-197.3214 464.9021,-193.9279 454.0151,-190.1024"/>
<polygon fill="#000000" stroke="#000000" points="1105.5015,-228.5467 1113.431,-232.2993 1109.5007,-228.6234 1113.5,-228.7 1113.5,-228.7 1113.5,-228.7 1109.5007,-228.6234 1113.569,-225.1007 1105.5015,-228.5467 1105.5015,-228.5467"/>
<ellipse fill="none" stroke="#000000" cx="1102.3021" cy="-228.4854" rx="3.2" ry="3.2"/>
</g>
<!-- temporary_absence_movement&#45;&gt;reference_data -->
<g id="edge13" class="edge">
<title>temporary_absence_movement:w&#45;&gt;reference_data:e</title>
<path fill="none" stroke="#000000" d="M1098.9925,-229.0957C832.1481,-236.9496 754.4445,-271.0424 487,-212.7 468.6573,-208.6986 449.4926,-201.8252 432.351,-194.2897"/>
<polygon fill="#000000" stroke="#000000" points="1105.503,-228.9182 1113.5982,-232.2987 1109.5015,-228.8091 1113.5,-228.7 1113.5,-228.7 1113.5,-228.7 1109.5015,-228.8091 1113.4018,-225.1013 1105.503,-228.9182 1105.503,-228.9182"/>
<ellipse fill="none" stroke="#000000" cx="1102.3042" cy="-229.0054" rx="3.2" ry="3.2"/>
</g>
<!-- temporary_absence_occurrence -->
<g id="node7" class="node">
<title>temporary_absence_occurrence</title>
<g id="a_node7"><a xlink:href="../../tables/temporary_absence_occurrence.html" xlink:title="temporary_absence_occurrence" target="_top">
<polygon fill="#ffffff" stroke="transparent" points="812,-132.2 812,-193.2 1064,-193.2 1064,-132.2 812,-132.2"/>
<polygon fill="#f5f5f5" stroke="transparent" points="812,-169.7 812,-192.7 1064,-192.7 1064,-169.7 812,-169.7"/>
<polygon fill="none" stroke="#000000" points="812,-169.7 812,-192.7 1064,-192.7 1064,-169.7 812,-169.7"/>
<text text-anchor="start" x="817" y="-178.3" font-family="Helvetica,sans-Serif" font-weight="bold" font-size="11.00" fill="#000000">temporary_absence_occurrence</text>
<text text-anchor="start" x="1029.5219" y="-177.8" font-family="Helvetica,sans-Serif" font-size="11.00" fill="#000000">[table]</text>
<polygon fill="none" stroke="#000000" points="812,-150.7 812,-169.7 1064,-169.7 1064,-150.7 812,-150.7"/>
<text text-anchor="start" x="815" y="-156.8" font-family="Helvetica,sans-Serif" font-size="11.00" fill="#000000">...</text>
<polygon fill="#ffffff" stroke="transparent" points="812,-131.7 812,-150.7 932,-150.7 932,-131.7 812,-131.7"/>
<polygon fill="none" stroke="#000000" points="812,-131.7 812,-150.7 932,-150.7 932,-131.7 812,-131.7"/>
<text text-anchor="start" x="815" y="-137.8" font-family="Helvetica,sans-Serif" font-size="11.00" fill="#000000">&lt; 8</text>
<polygon fill="#ffffff" stroke="transparent" points="932,-131.7 932,-150.7 993,-150.7 993,-131.7 932,-131.7"/>
<polygon fill="none" stroke="#000000" points="932,-131.7 932,-150.7 993,-150.7 993,-131.7 932,-131.7"/>
<text text-anchor="start" x="983.8862" y="-137.8" font-family="Helvetica,sans-Serif" font-size="11.00" fill="#000000"> &#160;</text>
<polygon fill="#ffffff" stroke="transparent" points="993,-131.7 993,-150.7 1064,-150.7 1064,-131.7 993,-131.7"/>
<polygon fill="none" stroke="#000000" points="993,-131.7 993,-150.7 1064,-150.7 1064,-131.7 993,-131.7"/>
<text text-anchor="start" x="1045.4053" y="-137.8" font-family="Helvetica,sans-Serif" font-size="11.00" fill="#000000">1 &gt;</text>
</a>
</g>
</g>
<!-- temporary_absence_movement&#45;&gt;temporary_absence_occurrence -->
<g id="edge14" class="edge">
<title>temporary_absence_movement:w&#45;&gt;temporary_absence_occurrence:e</title>
<path fill="none" stroke="#000000" d="M1099.5069,-223.7377C1082.5688,-207.9166 1095.5498,-159.7 1064,-159.7"/>
<polygon fill="#000000" stroke="#000000" points="1105.9601,-226.0261 1112.2967,-232.093 1109.73,-227.3631 1113.5,-228.7 1113.5,-228.7 1113.5,-228.7 1109.73,-227.3631 1114.7033,-225.307 1105.9601,-226.0261 1105.9601,-226.0261"/>
<ellipse fill="none" stroke="#000000" cx="1102.9441" cy="-224.9566" rx="3.2" ry="3.2"/>
</g>
<!-- temporary_absence_occurrence&#45;&gt;reference_data -->
<g id="edge15" class="edge">
<title>temporary_absence_occurrence:w&#45;&gt;reference_data:e</title>
<path fill="none" stroke="#000000" d="M797.6245,-156.8943C675.9335,-133.869 538.32,-125.88 454.368,-132.9272"/>
<polygon fill="#000000" stroke="#000000" points="804.1481,-158.1675 811.3104,-163.2333 808.0741,-158.9337 812,-159.7 812,-159.7 812,-159.7 808.0741,-158.9337 812.6896,-156.1667 804.1481,-158.1675 804.1481,-158.1675"/>
<ellipse fill="none" stroke="#000000" cx="801.0074" cy="-157.5545" rx="3.2" ry="3.2"/>
</g>
<!-- temporary_absence_occurrence&#45;&gt;reference_data -->
<g id="edge16" class="edge">
<title>temporary_absence_occurrence:w&#45;&gt;reference_data:e</title>
<path fill="none" stroke="#000000" d="M797.6245,-157.8295C675.9335,-142.4793 538.32,-137.1533 454.368,-141.8515"/>
<polygon fill="#000000" stroke="#000000" points="804.0669,-158.6677 811.5355,-163.2699 808.0334,-159.1839 812,-159.7 812,-159.7 812,-159.7 808.0334,-159.1839 812.4645,-156.1301 804.0669,-158.6677 804.0669,-158.6677"/>
<ellipse fill="none" stroke="#000000" cx="800.8936" cy="-158.2548" rx="3.2" ry="3.2"/>
</g>
<!-- temporary_absence_occurrence&#45;&gt;reference_data -->
<g id="edge17" class="edge">
<title>temporary_absence_occurrence:w&#45;&gt;reference_data:e</title>
<path fill="none" stroke="#000000" d="M797.6245,-158.7648C675.9335,-151.0897 538.32,-148.4267 454.368,-150.7757"/>
<polygon fill="#000000" stroke="#000000" points="804.0169,-159.1806 811.7663,-163.2924 808.0084,-159.4403 812,-159.7 812,-159.7 812,-159.7 808.0084,-159.4403 812.2337,-156.1076 804.0169,-159.1806 804.0169,-159.1806"/>
<ellipse fill="none" stroke="#000000" cx="800.8236" cy="-158.9728" rx="3.2" ry="3.2"/>
</g>
<!-- temporary_absence_occurrence&#45;&gt;reference_data -->
<g id="edge18" class="edge">
<title>temporary_absence_occurrence:w&#45;&gt;reference_data:e</title>
<path fill="none" stroke="#000000" d="M797.2538,-159.7C675.6541,-159.7 538.2348,-159.7 454.368,-159.7"/>
<polygon fill="#000000" stroke="#000000" points="804,-159.7001 812,-163.3 808,-159.7 812,-159.7 812,-159.7 812,-159.7 808,-159.7 812,-156.1 804,-159.7001 804,-159.7001"/>
<ellipse fill="none" stroke="#000000" cx="800.8" cy="-159.7001" rx="3.2" ry="3.2"/>
</g>
<!-- temporary_absence_occurrence&#45;&gt;reference_data -->
<g id="edge19" class="edge">
<title>temporary_absence_occurrence:w&#45;&gt;reference_data:e</title>
<path fill="none" stroke="#000000" d="M797.6245,-160.6352C675.9335,-168.3103 538.32,-170.9733 454.368,-168.6243"/>
<polygon fill="#000000" stroke="#000000" points="804.0169,-160.2194 812.2337,-163.2924 808.0084,-159.9597 812,-159.7 812,-159.7 812,-159.7 808.0084,-159.9597 811.7663,-156.1076 804.0169,-160.2194 804.0169,-160.2194"/>
<ellipse fill="none" stroke="#000000" cx="800.8236" cy="-160.4272" rx="3.2" ry="3.2"/>
</g>
<!-- temporary_absence_occurrence&#45;&gt;reference_data -->
<g id="edge21" class="edge">
<title>temporary_absence_occurrence:w&#45;&gt;reference_data:e</title>
<path fill="none" stroke="#000000" d="M797.6245,-161.5705C675.9335,-176.9207 538.32,-182.2467 454.368,-177.5485"/>
<polygon fill="#000000" stroke="#000000" points="804.0669,-160.7323 812.4645,-163.2699 808.0334,-160.2161 812,-159.7 812,-159.7 812,-159.7 808.0334,-160.2161 811.5355,-156.1301 804.0669,-160.7323 804.0669,-160.7323"/>
<ellipse fill="none" stroke="#000000" cx="800.8936" cy="-161.1452" rx="3.2" ry="3.2"/>
</g>
<!-- temporary_absence_occurrence&#45;&gt;reference_data -->
<g id="edge22" class="edge">
<title>temporary_absence_occurrence:w&#45;&gt;reference_data:e</title>
<path fill="none" stroke="#000000" d="M797.6245,-162.5057C675.9335,-185.531 538.32,-193.52 454.368,-186.4728"/>
<polygon fill="#000000" stroke="#000000" points="804.1481,-161.2325 812.6896,-163.2333 808.0741,-160.4663 812,-159.7 812,-159.7 812,-159.7 808.0741,-160.4663 811.3104,-156.1667 804.1481,-161.2325 804.1481,-161.2325"/>
<ellipse fill="none" stroke="#000000" cx="801.0074" cy="-161.8455" rx="3.2" ry="3.2"/>
</g>
<!-- temporary_absence_occurrence&#45;&gt;temporary_absence_authorisation -->
<g id="edge20" class="edge">
<title>temporary_absence_occurrence:w&#45;&gt;temporary_absence_authorisation:e</title>
<path fill="none" stroke="#000000" d="M797.988,-155.4168C775.0123,-137.0276 804.04,-65.7 763,-65.7"/>
<polygon fill="#000000" stroke="#000000" points="804.3495,-157.3613 810.9476,-163.1427 808.1747,-158.5307 812,-159.7 812,-159.7 812,-159.7 808.1747,-158.5307 813.0524,-156.2573 804.3495,-157.3613 804.3495,-157.3613"/>
<ellipse fill="none" stroke="#000000" cx="801.2892" cy="-156.4258" rx="3.2" ry="3.2"/>
</g>
</g>
</svg>
