<?xml version="1.0" encoding="UTF-8" standalone="no"?>
<!DOCTYPE svg PUBLIC "-//W3C//DTD SVG 1.1//EN"
 "http://www.w3.org/Graphics/SVG/1.1/DTD/svg11.dtd">
<!-- Generated by graphviz version 2.40.1 (20161225.0304)
 -->
<!-- Title: twoDegreesRelationshipsDiagram Pages: 1 -->
<svg width="1378pt" height="402pt"
 viewBox="0.00 0.00 1378.00 402.20" xmlns="http://www.w3.org/2000/svg" xmlns:xlink="http://www.w3.org/1999/xlink">
<g id="graph0" class="graph" transform="scale(1 1) rotate(0) translate(4 398.2)">
<title>twoDegreesRelationshipsDiagram</title>
<polygon fill="#ffffff" stroke="transparent" points="-4,4 -4,-398.2 1374,-398.2 1374,4 -4,4"/>
<text text-anchor="middle" x="72.4936" y="-7.3" font-family="Helvetica,sans-Serif" font-size="11.00" fill="#000000">Generated by SchemaSpy</text>
<!-- reference_data -->
<g id="node1" class="node">
<title>reference_data</title>
<g id="a_node1"><a xlink:href="../../tables/reference_data.html" xlink:title="reference_data" target="_top">
<polygon fill="#ffffff" stroke="transparent" points="306,-123.2 306,-184.2 446,-184.2 446,-123.2 306,-123.2"/>
<polygon fill="#f5f5f5" stroke="transparent" points="306,-160.7 306,-183.7 446,-183.7 446,-160.7 306,-160.7"/>
<polygon fill="none" stroke="#000000" points="306,-160.7 306,-183.7 446,-183.7 446,-160.7 306,-160.7"/>
<text text-anchor="start" x="311" y="-169.3" font-family="Helvetica,sans-Serif" font-weight="bold" font-size="11.00" fill="#000000">reference_data</text>
<text text-anchor="start" x="411.5219" y="-168.8" font-family="Helvetica,sans-Serif" font-size="11.00" fill="#000000">[table]</text>
<polygon fill="none" stroke="#000000" points="306,-141.7 306,-160.7 446,-160.7 446,-141.7 306,-141.7"/>
<text text-anchor="start" x="309" y="-147.8" font-family="Helvetica,sans-Serif" font-size="11.00" fill="#000000">...</text>
<polygon fill="#ffffff" stroke="transparent" points="306,-122.7 306,-141.7 367,-141.7 367,-122.7 306,-122.7"/>
<polygon fill="none" stroke="#000000" points="306,-122.7 306,-141.7 367,-141.7 367,-122.7 306,-122.7"/>
<text text-anchor="start" x="309" y="-128.8" font-family="Helvetica,sans-Serif" font-size="11.00" fill="#000000">&lt; 1</text>
<polygon fill="#ffffff" stroke="transparent" points="367,-122.7 367,-141.7 399,-141.7 399,-122.7 367,-122.7"/>
<polygon fill="none" stroke="#000000" points="367,-122.7 367,-141.7 399,-141.7 399,-122.7 367,-122.7"/>
<text text-anchor="start" x="389.8862" y="-128.8" font-family="Helvetica,sans-Serif" font-size="11.00" fill="#000000"> &#160;</text>
<polygon fill="#ffffff" stroke="transparent" points="399,-122.7 399,-141.7 446,-141.7 446,-122.7 399,-122.7"/>
<polygon fill="none" stroke="#000000" points="399,-122.7 399,-141.7 446,-141.7 446,-122.7 399,-122.7"/>
<text text-anchor="start" x="421.2904" y="-128.8" font-family="Helvetica,sans-Serif" font-size="11.00" fill="#000000">17 &gt;</text>
</a>
</g>
</g>
<!-- reference_data_domain -->
<g id="node2" class="node">
<title>reference_data_domain</title>
<g id="a_node2"><a xlink:href="../../tables/reference_data_domain.html" xlink:title="reference_data_domain" target="_top">
<polygon fill="#ffffff" stroke="transparent" points="8,-126.7 8,-216.7 257,-216.7 257,-126.7 8,-126.7"/>
<polygon fill="#f5f5f5" stroke="transparent" points="10.5,-191.7 10.5,-214.7 255.5,-214.7 255.5,-191.7 10.5,-191.7"/>
<polygon fill="none" stroke="#000000" points="10.5,-191.7 10.5,-214.7 255.5,-214.7 255.5,-191.7 10.5,-191.7"/>
<text text-anchor="start" x="15.5" y="-200.3" font-family="Helvetica,sans-Serif" font-weight="bold" font-size="11.00" fill="#000000">reference_data_domain</text>
<text text-anchor="start" x="220.5437" y="-199.8" font-family="Helvetica,sans-Serif" font-size="11.00" fill="#000000">[table]</text>
<polygon fill="none" stroke="#000000" points="10.5,-169.7 10.5,-191.7 188.5,-191.7 188.5,-169.7 10.5,-169.7"/>
<image xlink:href="../../images/primaryKeys.png" width="11px" height="12px" preserveAspectRatio="xMinYMin meet" x="15.5" y="-186.7"/>
<text text-anchor="start" x="30.5" y="-176.8" font-family="Helvetica,sans-Serif" font-size="11.00" fill="#000000">code</text>
<polygon fill="none" stroke="#000000" points="188.5,-169.7 188.5,-191.7 255.5,-191.7 255.5,-169.7 188.5,-169.7"/>
<text text-anchor="start" x="191.5" y="-177.4" font-family="Helvetica,sans-Serif" font-size="11.00" fill="#000000">varchar[32]</text>
<polygon fill="none" stroke="#000000" points="10.5,-147.7 10.5,-169.7 188.5,-169.7 188.5,-147.7 10.5,-147.7"/>
<text text-anchor="start" x="30.5" y="-154.8" font-family="Helvetica,sans-Serif" font-size="11.00" fill="#000000">description</text>
<polygon fill="none" stroke="#000000" points="188.5,-147.7 188.5,-169.7 255.5,-169.7 255.5,-147.7 188.5,-147.7"/>
<text text-anchor="start" x="191.4365" y="-155.4" font-family="Helvetica,sans-Serif" font-size="11.00" fill="#000000">varchar[255]</text>
<polygon fill="#ffffff" stroke="transparent" points="10.5,-128.7 10.5,-147.7 103.5,-147.7 103.5,-128.7 10.5,-128.7"/>
<polygon fill="none" stroke="#000000" points="10.5,-128.7 10.5,-147.7 103.5,-147.7 103.5,-128.7 10.5,-128.7"/>
<text text-anchor="start" x="13.5" y="-134.8" font-family="Helvetica,sans-Serif" font-size="11.00" fill="#000000">&lt; 0</text>
<polygon fill="#ffffff" stroke="transparent" points="103.5,-128.7 103.5,-147.7 188.5,-147.7 188.5,-128.7 103.5,-128.7"/>
<polygon fill="none" stroke="#000000" points="103.5,-128.7 103.5,-147.7 188.5,-147.7 188.5,-128.7 103.5,-128.7"/>
<text text-anchor="start" x="179.3862" y="-134.8" font-family="Helvetica,sans-Serif" font-size="11.00" fill="#000000"> &#160;</text>
<polygon fill="#ffffff" stroke="transparent" points="188.5,-128.7 188.5,-147.7 255.5,-147.7 255.5,-128.7 188.5,-128.7"/>
<polygon fill="none" stroke="#000000" points="188.5,-128.7 188.5,-147.7 255.5,-147.7 255.5,-128.7 188.5,-128.7"/>
<text text-anchor="start" x="236.9053" y="-134.8" font-family="Helvetica,sans-Serif" font-size="11.00" fill="#000000">2 &gt;</text>
<polygon fill="none" stroke="#000000" stroke-width="2" points="9,-127.7 9,-215.7 256,-215.7 256,-127.7 9,-127.7"/>
</a>
</g>
</g>
<!-- reference_data&#45;&gt;reference_data_domain -->
<g id="edge1" class="edge">
<title>reference_data:w&#45;&gt;reference_data_domain:e</title>
<path fill="none" stroke="#000000" d="M283.2592,-178.7297C273.9428,-179.9619 264.5747,-180.7 255.5,-180.7"/>
<polygon fill="#000000" stroke="#000000" points="289.9059,-177.6753 298.3711,-179.9773 293.8565,-177.0485 297.8071,-176.4218 297.8071,-176.4218 297.8071,-176.4218 293.8565,-177.0485 297.243,-172.8662 289.9059,-177.6753 289.9059,-177.6753"/>
<ellipse fill="none" stroke="#000000" cx="286.7454" cy="-178.1767" rx="3.2" ry="3.2"/>
</g>
<!-- reference_data_domain_link -->
<g id="node3" class="node">
<title>reference_data_domain_link</title>
<g id="a_node3"><a xlink:href="../../tables/reference_data_domain_link.html" xlink:title="reference_data_domain_link" target="_top">
<polygon fill="#ffffff" stroke="transparent" points="515.5,-329.2 515.5,-390.2 742.5,-390.2 742.5,-329.2 515.5,-329.2"/>
<polygon fill="#f5f5f5" stroke="transparent" points="516,-366.7 516,-389.7 743,-389.7 743,-366.7 516,-366.7"/>
<polygon fill="none" stroke="#000000" points="516,-366.7 516,-389.7 743,-389.7 743,-366.7 516,-366.7"/>
<text text-anchor="start" x="521" y="-375.3" font-family="Helvetica,sans-Serif" font-weight="bold" font-size="11.00" fill="#000000">reference_data_domain_link</text>
<text text-anchor="start" x="708.5219" y="-374.8" font-family="Helvetica,sans-Serif" font-size="11.00" fill="#000000">[table]</text>
<polygon fill="none" stroke="#000000" points="516,-347.7 516,-366.7 743,-366.7 743,-347.7 516,-347.7"/>
<text text-anchor="start" x="519" y="-353.8" font-family="Helvetica,sans-Serif" font-size="11.00" fill="#000000">...</text>
<polygon fill="#ffffff" stroke="transparent" points="516,-328.7 516,-347.7 628,-347.7 628,-328.7 516,-328.7"/>
<polygon fill="none" stroke="#000000" points="516,-328.7 516,-347.7 628,-347.7 628,-328.7 516,-328.7"/>
<text text-anchor="start" x="519" y="-334.8" font-family="Helvetica,sans-Serif" font-size="11.00" fill="#000000">&lt; 2</text>
<polygon fill="#ffffff" stroke="transparent" points="628,-328.7 628,-347.7 685,-347.7 685,-328.7 628,-328.7"/>
<polygon fill="none" stroke="#000000" points="628,-328.7 628,-347.7 685,-347.7 685,-328.7 628,-328.7"/>
<text text-anchor="start" x="675.8862" y="-334.8" font-family="Helvetica,sans-Serif" font-size="11.00" fill="#000000"> &#160;</text>
<polygon fill="#ffffff" stroke="transparent" points="685,-328.7 685,-347.7 743,-347.7 743,-328.7 685,-328.7"/>
<polygon fill="none" stroke="#000000" points="685,-328.7 685,-347.7 743,-347.7 743,-328.7 685,-328.7"/>
<text text-anchor="start" x="733.8862" y="-334.8" font-family="Helvetica,sans-Serif" font-size="11.00" fill="#000000"> &#160;</text>
</a>
</g>
</g>
<!-- reference_data_domain_link&#45;&gt;reference_data -->
<g id="edge3" class="edge">
<title>reference_data_domain_link:w&#45;&gt;reference_data:e</title>
<path fill="none" stroke="#000000" d="M498.1179,-325.9991C494.276,-323.7227 490.5575,-321.293 487,-318.7 480.7574,-314.1499 428.976,-235.2932 398.3911,-188.2676"/>
<polygon fill="#000000" stroke="#000000" points="508.5134,-327.1468 504.6611,-334.1582 503.2588,-333.3877 507.1112,-326.3763 508.5134,-327.1468"/>
<polyline fill="none" stroke="#000000" points="507.2884,-331.0377 503.7827,-329.1116 "/>
<ellipse fill="none" stroke="#000000" cx="500.9781" cy="-327.5706" rx="3.2" ry="3.2"/>
</g>
<!-- reference_data_domain_link&#45;&gt;reference_data_domain -->
<g id="edge2" class="edge">
<title>reference_data_domain_link:w&#45;&gt;reference_data_domain:e</title>
<path fill="none" stroke="#000000" d="M493.8828,-321.6007C491.5618,-320.6499 489.2657,-319.6829 487,-318.7 459.5281,-306.782 285.4457,-180.7 255.5,-180.7"/>
<polygon fill="#000000" stroke="#000000" points="499.9547,-323.9654 506.1029,-330.2232 503.682,-325.417 507.4093,-326.8686 507.4093,-326.8686 507.4093,-326.8686 503.682,-325.417 508.7158,-323.514 499.9547,-323.9654 499.9547,-323.9654"/>
<ellipse fill="none" stroke="#000000" cx="496.9728" cy="-322.8041" rx="3.2" ry="3.2"/>
</g>
<!-- reference_data_link -->
<g id="node4" class="node">
<title>reference_data_link</title>
<g id="a_node4"><a xlink:href="../../tables/reference_data_link.html" xlink:title="reference_data_link" target="_top">
<polygon fill="#ffffff" stroke="transparent" points="543.5,-247.2 543.5,-308.2 714.5,-308.2 714.5,-247.2 543.5,-247.2"/>
<polygon fill="#f5f5f5" stroke="transparent" points="544,-284.7 544,-307.7 715,-307.7 715,-284.7 544,-284.7"/>
<polygon fill="none" stroke="#000000" points="544,-284.7 544,-307.7 715,-307.7 715,-284.7 544,-284.7"/>
<text text-anchor="start" x="549" y="-293.3" font-family="Helvetica,sans-Serif" font-weight="bold" font-size="11.00" fill="#000000">reference_data_link</text>
<text text-anchor="start" x="680.5219" y="-292.8" font-family="Helvetica,sans-Serif" font-size="11.00" fill="#000000">[table]</text>
<polygon fill="none" stroke="#000000" points="544,-265.7 544,-284.7 715,-284.7 715,-265.7 544,-265.7"/>
<text text-anchor="start" x="547" y="-271.8" font-family="Helvetica,sans-Serif" font-size="11.00" fill="#000000">...</text>
<polygon fill="#ffffff" stroke="transparent" points="544,-246.7 544,-265.7 628,-265.7 628,-246.7 544,-246.7"/>
<polygon fill="none" stroke="#000000" points="544,-246.7 544,-265.7 628,-265.7 628,-246.7 544,-246.7"/>
<text text-anchor="start" x="547" y="-252.8" font-family="Helvetica,sans-Serif" font-size="11.00" fill="#000000">&lt; 2</text>
<polygon fill="#ffffff" stroke="transparent" points="628,-246.7 628,-265.7 671,-265.7 671,-246.7 628,-246.7"/>
<polygon fill="none" stroke="#000000" points="628,-246.7 628,-265.7 671,-265.7 671,-246.7 628,-246.7"/>
<text text-anchor="start" x="661.8862" y="-252.8" font-family="Helvetica,sans-Serif" font-size="11.00" fill="#000000"> &#160;</text>
<polygon fill="#ffffff" stroke="transparent" points="671,-246.7 671,-265.7 715,-265.7 715,-246.7 671,-246.7"/>
<polygon fill="none" stroke="#000000" points="671,-246.7 671,-265.7 715,-265.7 715,-246.7 671,-246.7"/>
<text text-anchor="start" x="705.8862" y="-252.8" font-family="Helvetica,sans-Serif" font-size="11.00" fill="#000000"> &#160;</text>
</a>
</g>
</g>
<!-- reference_data_link&#45;&gt;reference_data -->
<g id="edge4" class="edge">
<title>reference_data_link:w&#45;&gt;reference_data:e</title>
<path fill="none" stroke="#000000" d="M529.4118,-272.7932C478.2407,-262.8088 433.2688,-219.9225 405.4654,-188.4151"/>
<polygon fill="#000000" stroke="#000000" points="536.0675,-273.6631 543.5334,-278.2696 540.0337,-274.1815 544,-274.7 544,-274.7 544,-274.7 540.0337,-274.1815 544.4666,-271.1304 536.0675,-273.6631 536.0675,-273.6631"/>
<ellipse fill="none" stroke="#000000" cx="532.8945" cy="-273.2483" rx="3.2" ry="3.2"/>
</g>
<!-- reference_data_link&#45;&gt;reference_data -->
<g id="edge5" class="edge">
<title>reference_data_link:w&#45;&gt;reference_data:e</title>
<path fill="none" stroke="#000000" d="M529.5686,-274.774C473.4021,-271.1351 424.6871,-222.7766 397.9183,-188.2112"/>
<polygon fill="#000000" stroke="#000000" points="536.0001,-274.7411 544.0185,-278.3 540.0001,-274.7205 544,-274.7 544,-274.7 544,-274.7 540.0001,-274.7205 543.9815,-271.1 536.0001,-274.7411 536.0001,-274.7411"/>
<ellipse fill="none" stroke="#000000" cx="532.8001" cy="-274.7575" rx="3.2" ry="3.2"/>
</g>
<!-- temporary_absence_authorisation -->
<g id="node5" class="node">
<title>temporary_absence_authorisation</title>
<g id="a_node5"><a xlink:href="../../tables/temporary_absence_authorisation.html" xlink:title="temporary_absence_authorisation" target="_top">
<polygon fill="#ffffff" stroke="transparent" points="495,-38.2 495,-99.2 763,-99.2 763,-38.2 495,-38.2"/>
<polygon fill="#f5f5f5" stroke="transparent" points="495,-75.7 495,-98.7 763,-98.7 763,-75.7 495,-75.7"/>
<polygon fill="none" stroke="#000000" points="495,-75.7 495,-98.7 763,-98.7 763,-75.7 495,-75.7"/>
<text text-anchor="start" x="500" y="-84.3" font-family="Helvetica,sans-Serif" font-weight="bold" font-size="11.00" fill="#000000">temporary_absence_authorisation</text>
<text text-anchor="start" x="728.5219" y="-83.8" font-family="Helvetica,sans-Serif" font-size="11.00" fill="#000000">[table]</text>
<polygon fill="none" stroke="#000000" points="495,-56.7 495,-75.7 763,-75.7 763,-56.7 495,-56.7"/>
<text text-anchor="start" x="498" y="-62.8" font-family="Helvetica,sans-Serif" font-size="11.00" fill="#000000">...</text>
<polygon fill="#ffffff" stroke="transparent" points="495,-37.7 495,-56.7 623,-56.7 623,-37.7 495,-37.7"/>
<polygon fill="none" stroke="#000000" points="495,-37.7 495,-56.7 623,-56.7 623,-37.7 495,-37.7"/>
<text text-anchor="start" x="498" y="-43.8" font-family="Helvetica,sans-Serif" font-size="11.00" fill="#000000">&lt; 6</text>
<polygon fill="#ffffff" stroke="transparent" points="623,-37.7 623,-56.7 688,-56.7 688,-37.7 623,-37.7"/>
<polygon fill="none" stroke="#000000" points="623,-37.7 623,-56.7 688,-56.7 688,-37.7 623,-37.7"/>
<text text-anchor="start" x="678.8862" y="-43.8" font-family="Helvetica,sans-Serif" font-size="11.00" fill="#000000"> &#160;</text>
<polygon fill="#ffffff" stroke="transparent" points="688,-37.7 688,-56.7 763,-56.7 763,-37.7 688,-37.7"/>
<polygon fill="none" stroke="#000000" points="688,-37.7 688,-56.7 763,-56.7 763,-37.7 688,-37.7"/>
<text text-anchor="start" x="744.4053" y="-43.8" font-family="Helvetica,sans-Serif" font-size="11.00" fill="#000000">1 &gt;</text>
</a>
</g>
</g>
<!-- temporary_absence_authorisation&#45;&gt;reference_data -->
<g id="edge6" class="edge">
<title>temporary_absence_authorisation:w&#45;&gt;reference_data:e</title>
<path fill="none" stroke="#000000" d="M481.4025,-60.6881C439.2424,-50.0648 403.8025,-86.4337 386.8028,-119.0665"/>
<polygon fill="#000000" stroke="#000000" points="487.4937,-62.9332 493.7549,-69.0778 491.2468,-64.3166 495,-65.7 495,-65.7 495,-65.7 491.2468,-64.3166 496.2451,-62.3222 487.4937,-62.9332 487.4937,-62.9332"/>
<ellipse fill="none" stroke="#000000" cx="484.4911" cy="-61.8265" rx="3.2" ry="3.2"/>
</g>
<!-- temporary_absence_authorisation&#45;&gt;reference_data -->
<g id="edge7" class="edge">
<title>temporary_absence_authorisation:w&#45;&gt;reference_data:e</title>
<path fill="none" stroke="#000000" d="M480.6771,-63.1722C442.4446,-60.6612 409.8144,-92.015 391.5751,-119.1932"/>
<polygon fill="#000000" stroke="#000000" points="487.1218,-64.3096 494.3743,-69.2452 491.0609,-65.0048 495,-65.7 495,-65.7 495,-65.7 491.0609,-65.0048 495.6257,-62.1548 487.1218,-64.3096 487.1218,-64.3096"/>
<ellipse fill="none" stroke="#000000" cx="483.9705" cy="-63.7534" rx="3.2" ry="3.2"/>
</g>
<!-- temporary_absence_authorisation&#45;&gt;reference_data -->
<g id="edge8" class="edge">
<title>temporary_absence_authorisation:w&#45;&gt;reference_data:e</title>
<path fill="none" stroke="#000000" d="M480.2982,-65.8767C446.5798,-69.7019 417.25,-96.1718 398.3551,-119.1156"/>
<polygon fill="#000000" stroke="#000000" points="487.0006,-65.7962 495.0433,-69.2997 491.0003,-65.7481 495,-65.7 495,-65.7 495,-65.7 491.0003,-65.7481 494.9567,-62.1003 487.0006,-65.7962 487.0006,-65.7962"/>
<ellipse fill="none" stroke="#000000" cx="483.8008" cy="-65.8347" rx="3.2" ry="3.2"/>
</g>
<!-- temporary_absence_authorisation&#45;&gt;reference_data -->
<g id="edge9" class="edge">
<title>temporary_absence_authorisation:w&#45;&gt;reference_data:e</title>
<path fill="none" stroke="#000000" d="M480.4847,-68.5517C451.4139,-76.8244 425.5939,-99.2394 406.8939,-119.0491"/>
<polygon fill="#000000" stroke="#000000" points="487.1501,-67.2422 495.694,-69.2325 491.075,-66.4711 495,-65.7 495,-65.7 495,-65.7 491.075,-66.4711 494.306,-62.1675 487.1501,-67.2422 487.1501,-67.2422"/>
<ellipse fill="none" stroke="#000000" cx="484.0101" cy="-67.8591" rx="3.2" ry="3.2"/>
</g>
<!-- temporary_absence_authorisation&#45;&gt;reference_data -->
<g id="edge10" class="edge">
<title>temporary_absence_authorisation:w&#45;&gt;reference_data:e</title>
<path fill="none" stroke="#000000" d="M481.3996,-70.8326C456.5681,-81.9789 434.0679,-101.5554 416.2938,-119.1971"/>
<polygon fill="#000000" stroke="#000000" points="487.5153,-68.5247 496.2711,-69.0681 491.2576,-67.1123 495,-65.7 495,-65.7 495,-65.7 491.2576,-67.1123 493.7289,-62.3319 487.5153,-68.5247 487.5153,-68.5247"/>
<ellipse fill="none" stroke="#000000" cx="484.5214" cy="-69.6546" rx="3.2" ry="3.2"/>
</g>
<!-- temporary_absence_authorisation&#45;&gt;reference_data -->
<g id="edge11" class="edge">
<title>temporary_absence_authorisation:w&#45;&gt;reference_data:e</title>
<path fill="none" stroke="#000000" d="M482.2258,-72.8563C461.4392,-85.6812 442.2611,-103.096 426.0874,-119.0585"/>
<polygon fill="#000000" stroke="#000000" points="488.0206,-69.61 496.7595,-68.8407 491.5103,-67.655 495,-65.7 495,-65.7 495,-65.7 491.5103,-67.655 493.2405,-62.5593 488.0206,-69.61 488.0206,-69.61"/>
<ellipse fill="none" stroke="#000000" cx="485.2288" cy="-71.174" rx="3.2" ry="3.2"/>
</g>
<!-- temporary_absence_movement -->
<g id="node6" class="node">
<title>temporary_absence_movement</title>
<g id="a_node6"><a xlink:href="../../tables/temporary_absence_movement.html" xlink:title="temporary_absence_movement" target="_top">
<polygon fill="#ffffff" stroke="transparent" points="1113,-189.2 1113,-250.2 1362,-250.2 1362,-189.2 1113,-189.2"/>
<polygon fill="#f5f5f5" stroke="transparent" points="1113.5,-226.7 1113.5,-249.7 1362.5,-249.7 1362.5,-226.7 1113.5,-226.7"/>
<polygon fill="none" stroke="#000000" points="1113.5,-226.7 1113.5,-249.7 1362.5,-249.7 1362.5,-226.7 1113.5,-226.7"/>
<text text-anchor="start" x="1118.5" y="-235.3" font-family="Helvetica,sans-Serif" font-weight="bold" font-size="11.00" fill="#000000">temporary_absence_movement</text>
<text text-anchor="start" x="1328.0219" y="-234.8" font-family="Helvetica,sans-Serif" font-size="11.00" fill="#000000">[table]</text>
<polygon fill="none" stroke="#000000" points="1113.5,-207.7 1113.5,-226.7 1362.5,-226.7 1362.5,-207.7 1113.5,-207.7"/>
<text text-anchor="start" x="1116.5" y="-213.8" font-family="Helvetica,sans-Serif" font-size="11.00" fill="#000000">...</text>
<polygon fill="#ffffff" stroke="transparent" points="1113.5,-188.7 1113.5,-207.7 1236.5,-207.7 1236.5,-188.7 1113.5,-188.7"/>
<polygon fill="none" stroke="#000000" points="1113.5,-188.7 1113.5,-207.7 1236.5,-207.7 1236.5,-188.7 1113.5,-188.7"/>
<text text-anchor="start" x="1116.5" y="-194.8" font-family="Helvetica,sans-Serif" font-size="11.00" fill="#000000">&lt; 3</text>
<polygon fill="#ffffff" stroke="transparent" points="1236.5,-188.7 1236.5,-207.7 1299.5,-207.7 1299.5,-188.7 1236.5,-188.7"/>
<polygon fill="none" stroke="#000000" points="1236.5,-188.7 1236.5,-207.7 1299.5,-207.7 1299.5,-188.7 1236.5,-188.7"/>
<text text-anchor="start" x="1290.3862" y="-194.8" font-family="Helvetica,sans-Serif" font-size="11.00" fill="#000000"> &#160;</text>
<polygon fill="#ffffff" stroke="transparent" points="1299.5,-188.7 1299.5,-207.7 1362.5,-207.7 1362.5,-188.7 1299.5,-188.7"/>
<polygon fill="none" stroke="#000000" points="1299.5,-188.7 1299.5,-207.7 1362.5,-207.7 1362.5,-188.7 1299.5,-188.7"/>
<text text-anchor="start" x="1353.3862" y="-194.8" font-family="Helvetica,sans-Serif" font-size="11.00" fill="#000000"> &#160;</text>
</a>
</g>
</g>
<!-- temporary_absence_movement&#45;&gt;reference_data -->
<g id="edge12" class="edge">
<title>temporary_absence_movement:w&#45;&gt;reference_data:e</title>
<path fill="none" stroke="#000000" d="M1098.9937,-216.4163C832.1937,-211.7281 755.7415,-239.7425 487,-187.7 476.241,-185.6165 465.131,-182.6568 454.2867,-179.333"/>
<polygon fill="#000000" stroke="#000000" points="1105.5015,-216.5435 1113.4296,-220.2993 1109.5008,-216.6218 1113.5,-216.7 1113.5,-216.7 1113.5,-216.7 1109.5008,-216.6218 1113.5704,-213.1007 1105.5015,-216.5435 1105.5015,-216.5435"/>
<ellipse fill="none" stroke="#000000" cx="1102.3021" cy="-216.4809" rx="3.2" ry="3.2"/>
</g>
<!-- temporary_absence_movement&#45;&gt;reference_data -->
<g id="edge13" class="edge">
<title>temporary_absence_movement:w&#45;&gt;reference_data:e</title>
<path fill="none" stroke="#000000" d="M1098.9937,-217.0899C832.1937,-224.7281 755.7415,-252.7425 487,-200.7 472.3195,-197.8571 456.9856,-193.3829 442.5647,-188.2768"/>
<polygon fill="#000000" stroke="#000000" points="1105.5029,-216.915 1113.5967,-220.2987 1109.5014,-216.8075 1113.5,-216.7 1113.5,-216.7 1113.5,-216.7 1109.5014,-216.8075 1113.4033,-213.1013 1105.5029,-216.915 1105.5029,-216.915"/>
<ellipse fill="none" stroke="#000000" cx="1102.304" cy="-217.001" rx="3.2" ry="3.2"/>
</g>
<!-- temporary_absence_occurrence -->
<g id="node7" class="node">
<title>temporary_absence_occurrence</title>
<g id="a_node7"><a xlink:href="../../tables/temporary_absence_occurrence.html" xlink:title="temporary_absence_occurrence" target="_top">
<polygon fill="#ffffff" stroke="transparent" points="812,-125.2 812,-186.2 1064,-186.2 1064,-125.2 812,-125.2"/>
<polygon fill="#f5f5f5" stroke="transparent" points="812,-162.7 812,-185.7 1064,-185.7 1064,-162.7 812,-162.7"/>
<polygon fill="none" stroke="#000000" points="812,-162.7 812,-185.7 1064,-185.7 1064,-162.7 812,-162.7"/>
<text text-anchor="start" x="817" y="-171.3" font-family="Helvetica,sans-Serif" font-weight="bold" font-size="11.00" fill="#000000">temporary_absence_occurrence</text>
<text text-anchor="start" x="1029.5219" y="-170.8" font-family="Helvetica,sans-Serif" font-size="11.00" fill="#000000">[table]</text>
<polygon fill="none" stroke="#000000" points="812,-143.7 812,-162.7 1064,-162.7 1064,-143.7 812,-143.7"/>
<text text-anchor="start" x="815" y="-149.8" font-family="Helvetica,sans-Serif" font-size="11.00" fill="#000000">...</text>
<polygon fill="#ffffff" stroke="transparent" points="812,-124.7 812,-143.7 932,-143.7 932,-124.7 812,-124.7"/>
<polygon fill="none" stroke="#000000" points="812,-124.7 812,-143.7 932,-143.7 932,-124.7 812,-124.7"/>
<text text-anchor="start" x="815" y="-130.8" font-family="Helvetica,sans-Serif" font-size="11.00" fill="#000000">&lt; 7</text>
<polygon fill="#ffffff" stroke="transparent" points="932,-124.7 932,-143.7 993,-143.7 993,-124.7 932,-124.7"/>
<polygon fill="none" stroke="#000000" points="932,-124.7 932,-143.7 993,-143.7 993,-124.7 932,-124.7"/>
<text text-anchor="start" x="983.8862" y="-130.8" font-family="Helvetica,sans-Serif" font-size="11.00" fill="#000000"> &#160;</text>
<polygon fill="#ffffff" stroke="transparent" points="993,-124.7 993,-143.7 1064,-143.7 1064,-124.7 993,-124.7"/>
<polygon fill="none" stroke="#000000" points="993,-124.7 993,-143.7 1064,-143.7 1064,-124.7 993,-124.7"/>
<text text-anchor="start" x="1045.4053" y="-130.8" font-family="Helvetica,sans-Serif" font-size="11.00" fill="#000000">1 &gt;</text>
</a>
</g>
</g>
<!-- temporary_absence_movement&#45;&gt;temporary_absence_occurrence -->
<g id="edge14" class="edge">
<title>temporary_absence_movement:w&#45;&gt;temporary_absence_occurrence:e</title>
<path fill="none" stroke="#000000" d="M1099.5392,-211.678C1083.5225,-196.5906 1093.779,-152.7 1064,-152.7"/>
<polygon fill="#000000" stroke="#000000" points="1105.9722,-213.9921 1112.2814,-220.0875 1109.7361,-215.346 1113.5,-216.7 1113.5,-216.7 1113.5,-216.7 1109.7361,-215.346 1114.7186,-213.3125 1105.9722,-213.9921 1105.9722,-213.9921"/>
<ellipse fill="none" stroke="#000000" cx="1102.9611" cy="-212.9089" rx="3.2" ry="3.2"/>
</g>
<!-- temporary_absence_occurrence&#45;&gt;reference_data -->
<g id="edge15" class="edge">
<title>temporary_absence_occurrence:w&#45;&gt;reference_data:e</title>
<path fill="none" stroke="#000000" d="M797.6245,-150.3997C675.9332,-131.5369 538.3198,-125.3781 454.3679,-131.4447"/>
<polygon fill="#000000" stroke="#000000" points="804.1005,-151.4359 811.4312,-156.2548 808.0502,-152.0679 812,-152.7 812,-152.7 812,-152.7 808.0502,-152.0679 812.5688,-149.1452 804.1005,-151.4359 804.1005,-151.4359"/>
<ellipse fill="none" stroke="#000000" cx="800.9407" cy="-150.9303" rx="3.2" ry="3.2"/>
</g>
<!-- temporary_absence_occurrence&#45;&gt;reference_data -->
<g id="edge16" class="edge">
<title>temporary_absence_occurrence:w&#45;&gt;reference_data:e</title>
<path fill="none" stroke="#000000" d="M797.6245,-151.3349C675.9332,-140.1472 538.3198,-136.6515 454.3679,-140.3689"/>
<polygon fill="#000000" stroke="#000000" points="804.0358,-151.9437 811.6597,-156.2839 808.0179,-152.3218 812,-152.7 812,-152.7 812,-152.7 808.0179,-152.3218 812.3403,-149.1161 804.0358,-151.9437 804.0358,-151.9437"/>
<ellipse fill="none" stroke="#000000" cx="800.8502" cy="-151.6411" rx="3.2" ry="3.2"/>
</g>
<!-- temporary_absence_occurrence&#45;&gt;reference_data -->
<g id="edge17" class="edge">
<title>temporary_absence_occurrence:w&#45;&gt;reference_data:e</title>
<path fill="none" stroke="#000000" d="M797.2538,-152.2594C675.6538,-148.7559 538.2346,-147.9262 454.3679,-149.2932"/>
<polygon fill="#000000" stroke="#000000" points="804.0036,-152.461 811.8925,-156.2984 808.0018,-152.5805 812,-152.7 812,-152.7 812,-152.7 808.0018,-152.5805 812.1075,-149.1016 804.0036,-152.461 804.0036,-152.461"/>
<ellipse fill="none" stroke="#000000" cx="800.805" cy="-152.3655" rx="3.2" ry="3.2"/>
</g>
<!-- temporary_absence_occurrence&#45;&gt;reference_data -->
<g id="edge18" class="edge">
<title>temporary_absence_occurrence:w&#45;&gt;reference_data:e</title>
<path fill="none" stroke="#000000" d="M797.2538,-153.218C675.6538,-157.3716 538.2346,-159.1972 454.3679,-158.2175"/>
<polygon fill="#000000" stroke="#000000" points="804.0049,-152.9809 812.1264,-156.2978 808.0025,-152.8405 812,-152.7 812,-152.7 812,-152.7 808.0025,-152.8405 811.8736,-149.1022 804.0049,-152.9809 804.0049,-152.9809"/>
<ellipse fill="none" stroke="#000000" cx="800.8069" cy="-153.0933" rx="3.2" ry="3.2"/>
</g>
<!-- temporary_absence_occurrence&#45;&gt;reference_data -->
<g id="edge19" class="edge">
<title>temporary_absence_occurrence:w&#45;&gt;reference_data:e</title>
<path fill="none" stroke="#000000" d="M797.6245,-154.1406C675.9332,-165.9782 538.3198,-170.4715 454.3679,-167.1417"/>
<polygon fill="#000000" stroke="#000000" points="804.0399,-153.4978 812.359,-156.2821 808.0199,-153.0989 812,-152.7 812,-152.7 812,-152.7 808.0199,-153.0989 811.641,-149.1179 804.0399,-153.4978 804.0399,-153.4978"/>
<ellipse fill="none" stroke="#000000" cx="800.8558" cy="-153.8169" rx="3.2" ry="3.2"/>
</g>
<!-- temporary_absence_occurrence&#45;&gt;reference_data -->
<g id="edge21" class="edge">
<title>temporary_absence_occurrence:w&#45;&gt;reference_data:e</title>
<path fill="none" stroke="#000000" d="M797.6245,-155.0758C675.9332,-174.5886 538.3198,-181.7449 454.3679,-176.066"/>
<polygon fill="#000000" stroke="#000000" points="804.1071,-154.0045 812.587,-156.2518 808.0535,-153.3523 812,-152.7 812,-152.7 812,-152.7 808.0535,-153.3523 811.413,-149.1482 804.1071,-154.0045 804.1071,-154.0045"/>
<ellipse fill="none" stroke="#000000" cx="800.9499" cy="-154.5263" rx="3.2" ry="3.2"/>
</g>
<!-- temporary_absence_occurrence&#45;&gt;temporary_absence_authorisation -->
<g id="edge20" class="edge">
<title>temporary_absence_occurrence:w&#45;&gt;temporary_absence_authorisation:e</title>
<path fill="none" stroke="#000000" d="M798.086,-148.266C776.9203,-130.5371 801.3105,-65.7 763,-65.7"/>
<polygon fill="#000000" stroke="#000000" points="804.3777,-150.271 810.9069,-156.1301 808.1888,-151.4855 812,-152.7 812,-152.7 812,-152.7 808.1888,-151.4855 813.0931,-149.2699 804.3777,-150.271 804.3777,-150.271"/>
<ellipse fill="none" stroke="#000000" cx="801.3287" cy="-149.2993" rx="3.2" ry="3.2"/>
</g>
</g>
</svg>
