<?xml version="1.0" encoding="UTF-8" standalone="no"?>
<!DOCTYPE svg PUBLIC "-//W3C//DTD SVG 1.1//EN"
 "http://www.w3.org/Graphics/SVG/1.1/DTD/svg11.dtd">
<!-- Generated by graphviz version 2.40.1 (20161225.0304)
 -->
<!-- Title: twoDegreesRelationshipsDiagram Pages: 1 -->
<svg width="1030pt" height="470pt"
 viewBox="0.00 0.00 1030.00 470.20" xmlns="http://www.w3.org/2000/svg" xmlns:xlink="http://www.w3.org/1999/xlink">
<g id="graph0" class="graph" transform="scale(1 1) rotate(0) translate(4 466.2)">
<title>twoDegreesRelationshipsDiagram</title>
<polygon fill="#ffffff" stroke="transparent" points="-4,4 -4,-466.2 1026,-466.2 1026,4 -4,4"/>
<text text-anchor="middle" x="72.4936" y="-7.3" font-family="Helvetica,sans-Serif" font-size="11.00" fill="#000000">Generated by SchemaSpy</text>
<!-- reference_data -->
<g id="node1" class="node">
<title>reference_data</title>
<g id="a_node1"><a xlink:href="../../tables/reference_data.html" xlink:title="reference_data" target="_top">
<polygon fill="#ffffff" stroke="transparent" points="253,-65.2 253,-214.2 396,-214.2 396,-65.2 253,-65.2"/>
<polygon fill="#f5f5f5" stroke="transparent" points="253.5,-190.7 253.5,-213.7 396.5,-213.7 396.5,-190.7 253.5,-190.7"/>
<polygon fill="none" stroke="#000000" points="253.5,-190.7 253.5,-213.7 396.5,-213.7 396.5,-190.7 253.5,-190.7"/>
<text text-anchor="start" x="258.5" y="-199.3" font-family="Helvetica,sans-Serif" font-weight="bold" font-size="11.00" fill="#000000">reference_data</text>
<text text-anchor="start" x="361.5437" y="-198.8" font-family="Helvetica,sans-Serif" font-size="11.00" fill="#000000">[table]</text>
<polygon fill="none" stroke="#000000" points="253.5,-168.7 253.5,-190.7 396.5,-190.7 396.5,-168.7 253.5,-168.7"/>
<image xlink:href="../../images/primaryKeys.png" width="11px" height="12px" preserveAspectRatio="xMinYMin meet" x="258.5" y="-185.7"/>
<text text-anchor="start" x="273.5" y="-175.8" font-family="Helvetica,sans-Serif" font-size="11.00" fill="#000000">id</text>
<polygon fill="#ffffff" stroke="transparent" points="253.5,-146.7 253.5,-168.7 396.5,-168.7 396.5,-146.7 253.5,-146.7"/>
<polygon fill="none" stroke="#000000" points="253.5,-146.7 253.5,-168.7 396.5,-168.7 396.5,-146.7 253.5,-146.7"/>
<image xlink:href="../../images/foreignKeys.png" width="11px" height="12px" preserveAspectRatio="xMinYMin meet" x="258.5" y="-163.7"/>
<text text-anchor="start" x="273.5" y="-153.8" font-family="Helvetica,sans-Serif" font-size="11.00" fill="#000000">domain</text>
<polygon fill="#ffffff" stroke="transparent" points="253.5,-124.7 253.5,-146.7 396.5,-146.7 396.5,-124.7 253.5,-124.7"/>
<polygon fill="none" stroke="#000000" points="253.5,-124.7 253.5,-146.7 396.5,-146.7 396.5,-124.7 253.5,-124.7"/>
<text text-anchor="start" x="273.5" y="-131.8" font-family="Helvetica,sans-Serif" font-size="11.00" fill="#000000">code</text>
<polygon fill="#ffffff" stroke="transparent" points="253.5,-102.7 253.5,-124.7 396.5,-124.7 396.5,-102.7 253.5,-102.7"/>
<polygon fill="none" stroke="#000000" points="253.5,-102.7 253.5,-124.7 396.5,-124.7 396.5,-102.7 253.5,-102.7"/>
<text text-anchor="start" x="273.5" y="-109.8" font-family="Helvetica,sans-Serif" font-size="11.00" fill="#000000">sequence_number</text>
<polygon fill="none" stroke="#000000" points="253.5,-83.7 253.5,-102.7 396.5,-102.7 396.5,-83.7 253.5,-83.7"/>
<text text-anchor="start" x="256.5" y="-89.8" font-family="Helvetica,sans-Serif" font-size="11.00" fill="#000000">...</text>
<polygon fill="#ffffff" stroke="transparent" points="253.5,-64.7 253.5,-83.7 315.5,-83.7 315.5,-64.7 253.5,-64.7"/>
<polygon fill="none" stroke="#000000" points="253.5,-64.7 253.5,-83.7 315.5,-83.7 315.5,-64.7 253.5,-64.7"/>
<text text-anchor="start" x="256.5" y="-70.8" font-family="Helvetica,sans-Serif" font-size="11.00" fill="#000000">&lt; 1</text>
<polygon fill="#ffffff" stroke="transparent" points="315.5,-64.7 315.5,-83.7 348.5,-83.7 348.5,-64.7 315.5,-64.7"/>
<polygon fill="none" stroke="#000000" points="315.5,-64.7 315.5,-83.7 348.5,-83.7 348.5,-64.7 315.5,-64.7"/>
<text text-anchor="start" x="339.3862" y="-70.8" font-family="Helvetica,sans-Serif" font-size="11.00" fill="#000000"> &#160;</text>
<polygon fill="#ffffff" stroke="transparent" points="348.5,-64.7 348.5,-83.7 396.5,-83.7 396.5,-64.7 348.5,-64.7"/>
<polygon fill="none" stroke="#000000" points="348.5,-64.7 348.5,-83.7 396.5,-83.7 396.5,-64.7 348.5,-64.7"/>
<text text-anchor="start" x="371.7904" y="-70.8" font-family="Helvetica,sans-Serif" font-size="11.00" fill="#000000">11 &gt;</text>
</a>
</g>
</g>
<!-- reference_data_domain -->
<g id="node2" class="node">
<title>reference_data_domain</title>
<g id="a_node2"><a xlink:href="../../tables/reference_data_domain.html" xlink:title="reference_data_domain" target="_top">
<polygon fill="#ffffff" stroke="transparent" points="8,-170.2 8,-231.2 204,-231.2 204,-170.2 8,-170.2"/>
<polygon fill="#f5f5f5" stroke="transparent" points="8,-207.7 8,-230.7 204,-230.7 204,-207.7 8,-207.7"/>
<polygon fill="none" stroke="#000000" points="8,-207.7 8,-230.7 204,-230.7 204,-207.7 8,-207.7"/>
<text text-anchor="start" x="13" y="-216.3" font-family="Helvetica,sans-Serif" font-weight="bold" font-size="11.00" fill="#000000">reference_data_domain</text>
<text text-anchor="start" x="169.5219" y="-215.8" font-family="Helvetica,sans-Serif" font-size="11.00" fill="#000000">[table]</text>
<polygon fill="none" stroke="#000000" points="8,-188.7 8,-207.7 204,-207.7 204,-188.7 8,-188.7"/>
<text text-anchor="start" x="11" y="-194.8" font-family="Helvetica,sans-Serif" font-size="11.00" fill="#000000">...</text>
<polygon fill="#ffffff" stroke="transparent" points="8,-169.7 8,-188.7 95,-188.7 95,-169.7 8,-169.7"/>
<polygon fill="none" stroke="#000000" points="8,-169.7 8,-188.7 95,-188.7 95,-169.7 8,-169.7"/>
<text text-anchor="start" x="11" y="-175.8" font-family="Helvetica,sans-Serif" font-size="11.00" fill="#000000"> &#160;</text>
<polygon fill="#ffffff" stroke="transparent" points="95,-169.7 95,-188.7 145,-188.7 145,-169.7 95,-169.7"/>
<polygon fill="none" stroke="#000000" points="95,-169.7 95,-188.7 145,-188.7 145,-169.7 95,-169.7"/>
<text text-anchor="start" x="135.8862" y="-175.8" font-family="Helvetica,sans-Serif" font-size="11.00" fill="#000000"> &#160;</text>
<polygon fill="#ffffff" stroke="transparent" points="145,-169.7 145,-188.7 204,-188.7 204,-169.7 145,-169.7"/>
<polygon fill="none" stroke="#000000" points="145,-169.7 145,-188.7 204,-188.7 204,-169.7 145,-169.7"/>
<text text-anchor="start" x="185.4053" y="-175.8" font-family="Helvetica,sans-Serif" font-size="11.00" fill="#000000">2 &gt;</text>
</a>
</g>
</g>
<!-- reference_data&#45;&gt;reference_data_domain -->
<g id="edge1" class="edge">
<title>reference_data:w&#45;&gt;reference_data_domain:e</title>
<path fill="none" stroke="#000000" d="M239.6565,-162.2885C226.6245,-172.7952 226.3187,-197.7 204,-197.7"/>
<polygon fill="#000000" stroke="#000000" points="245.9063,-160.217 254.6327,-161.1172 249.7031,-158.9585 253.5,-157.7 253.5,-157.7 253.5,-157.7 249.7031,-158.9585 252.3673,-154.2828 245.9063,-160.217 245.9063,-160.217"/>
<ellipse fill="none" stroke="#000000" cx="242.8688" cy="-161.2238" rx="3.2" ry="3.2"/>
</g>
<!-- reference_data_domain_link -->
<g id="node3" class="node">
<title>reference_data_domain_link</title>
<g id="a_node3"><a xlink:href="../../tables/reference_data_domain_link.html" xlink:title="reference_data_domain_link" target="_top">
<polygon fill="#ffffff" stroke="transparent" points="465.5,-397.2 465.5,-458.2 692.5,-458.2 692.5,-397.2 465.5,-397.2"/>
<polygon fill="#f5f5f5" stroke="transparent" points="466,-434.7 466,-457.7 693,-457.7 693,-434.7 466,-434.7"/>
<polygon fill="none" stroke="#000000" points="466,-434.7 466,-457.7 693,-457.7 693,-434.7 466,-434.7"/>
<text text-anchor="start" x="471" y="-443.3" font-family="Helvetica,sans-Serif" font-weight="bold" font-size="11.00" fill="#000000">reference_data_domain_link</text>
<text text-anchor="start" x="658.5219" y="-442.8" font-family="Helvetica,sans-Serif" font-size="11.00" fill="#000000">[table]</text>
<polygon fill="none" stroke="#000000" points="466,-415.7 466,-434.7 693,-434.7 693,-415.7 466,-415.7"/>
<text text-anchor="start" x="469" y="-421.8" font-family="Helvetica,sans-Serif" font-size="11.00" fill="#000000">...</text>
<polygon fill="#ffffff" stroke="transparent" points="466,-396.7 466,-415.7 578,-415.7 578,-396.7 466,-396.7"/>
<polygon fill="none" stroke="#000000" points="466,-396.7 466,-415.7 578,-415.7 578,-396.7 466,-396.7"/>
<text text-anchor="start" x="469" y="-402.8" font-family="Helvetica,sans-Serif" font-size="11.00" fill="#000000">&lt; 2</text>
<polygon fill="#ffffff" stroke="transparent" points="578,-396.7 578,-415.7 635,-415.7 635,-396.7 578,-396.7"/>
<polygon fill="none" stroke="#000000" points="578,-396.7 578,-415.7 635,-415.7 635,-396.7 578,-396.7"/>
<text text-anchor="start" x="625.8862" y="-402.8" font-family="Helvetica,sans-Serif" font-size="11.00" fill="#000000"> &#160;</text>
<polygon fill="#ffffff" stroke="transparent" points="635,-396.7 635,-415.7 693,-415.7 693,-396.7 635,-396.7"/>
<polygon fill="none" stroke="#000000" points="635,-396.7 635,-415.7 693,-415.7 693,-396.7 635,-396.7"/>
<text text-anchor="start" x="683.8862" y="-402.8" font-family="Helvetica,sans-Serif" font-size="11.00" fill="#000000"> &#160;</text>
</a>
</g>
</g>
<!-- reference_data_domain_link&#45;&gt;reference_data -->
<g id="edge3" class="edge">
<title>reference_data_domain_link:w&#45;&gt;reference_data:e</title>
<path fill="none" stroke="#000000" d="M455.5348,-422.5446C444.7448,-417.1032 443.9425,-402.1408 437,-386.7 417.7787,-343.9502 443.3722,-179.7 396.5,-179.7"/>
<polygon fill="#000000" stroke="#000000" points="466.0234,-420.6208 464.4095,-428.4564 462.8424,-428.1336 464.4563,-420.2981 466.0234,-420.6208"/>
<polyline fill="none" stroke="#000000" points="466,-424.7 462.0822,-423.8931 "/>
<ellipse fill="none" stroke="#000000" cx="458.948" cy="-423.2475" rx="3.2" ry="3.2"/>
</g>
<!-- reference_data_domain_link&#45;&gt;reference_data_domain -->
<g id="edge2" class="edge">
<title>reference_data_domain_link:w&#45;&gt;reference_data_domain:e</title>
<path fill="none" stroke="#000000" d="M453.23,-417.4044C401.084,-378.5499 221.1901,-197.7 204,-197.7"/>
<polygon fill="#000000" stroke="#000000" points="459.0537,-420.7315 464.2142,-427.8258 462.5268,-422.7158 466,-424.7 466,-424.7 466,-424.7 462.5268,-422.7158 467.7858,-421.5742 459.0537,-420.7315 459.0537,-420.7315"/>
<ellipse fill="none" stroke="#000000" cx="456.2752" cy="-419.1441" rx="3.2" ry="3.2"/>
</g>
<!-- reference_data_link -->
<g id="node4" class="node">
<title>reference_data_link</title>
<g id="a_node4"><a xlink:href="../../tables/reference_data_link.html" xlink:title="reference_data_link" target="_top">
<polygon fill="#ffffff" stroke="transparent" points="467,-241.7 467,-375.7 691,-375.7 691,-241.7 467,-241.7"/>
<polygon fill="#f5f5f5" stroke="transparent" points="469,-350.7 469,-373.7 689,-373.7 689,-350.7 469,-350.7"/>
<polygon fill="none" stroke="#000000" points="469,-350.7 469,-373.7 689,-373.7 689,-350.7 469,-350.7"/>
<text text-anchor="start" x="474" y="-359.3" font-family="Helvetica,sans-Serif" font-weight="bold" font-size="11.00" fill="#000000">reference_data_link</text>
<text text-anchor="start" x="654.0437" y="-358.8" font-family="Helvetica,sans-Serif" font-size="11.00" fill="#000000">[table]</text>
<polygon fill="none" stroke="#000000" points="469,-328.7 469,-350.7 624,-350.7 624,-328.7 469,-328.7"/>
<image xlink:href="../../images/primaryKeys.png" width="11px" height="12px" preserveAspectRatio="xMinYMin meet" x="474" y="-345.7"/>
<text text-anchor="start" x="489" y="-335.8" font-family="Helvetica,sans-Serif" font-size="11.00" fill="#000000">id</text>
<polygon fill="none" stroke="#000000" points="624,-328.7 624,-350.7 689,-350.7 689,-328.7 624,-328.7"/>
<text text-anchor="start" x="626.8561" y="-336.4" font-family="Helvetica,sans-Serif" font-size="11.00" fill="#000000">bigserial[19]</text>
<polygon fill="#ffffff" stroke="transparent" points="469,-306.7 469,-328.7 624,-328.7 624,-306.7 469,-306.7"/>
<polygon fill="none" stroke="#000000" points="469,-306.7 469,-328.7 624,-328.7 624,-306.7 469,-306.7"/>
<image xlink:href="../../images/foreignKeys.png" width="11px" height="12px" preserveAspectRatio="xMinYMin meet" x="474" y="-323.7"/>
<text text-anchor="start" x="489" y="-313.8" font-family="Helvetica,sans-Serif" font-size="11.00" fill="#000000">reference_data_id_1</text>
<polygon fill="none" stroke="#000000" points="624,-306.7 624,-328.7 689,-328.7 689,-306.7 624,-306.7"/>
<text text-anchor="start" x="627" y="-314.4" font-family="Helvetica,sans-Serif" font-size="11.00" fill="#000000">int8[19]</text>
<polygon fill="none" stroke="#000000" points="469,-284.7 469,-306.7 624,-306.7 624,-284.7 469,-284.7"/>
<image xlink:href="../../images/foreignKeys.png" width="11px" height="12px" preserveAspectRatio="xMinYMin meet" x="474" y="-301.7"/>
<text text-anchor="start" x="489" y="-291.8" font-family="Helvetica,sans-Serif" font-size="11.00" fill="#000000">reference_data_id_2</text>
<polygon fill="none" stroke="#000000" points="624,-284.7 624,-306.7 689,-306.7 689,-284.7 624,-284.7"/>
<text text-anchor="start" x="627" y="-292.4" font-family="Helvetica,sans-Serif" font-size="11.00" fill="#000000">int8[19]</text>
<polygon fill="#ffffff" stroke="transparent" points="469,-262.7 469,-284.7 624,-284.7 624,-262.7 469,-262.7"/>
<polygon fill="none" stroke="#000000" points="469,-262.7 469,-284.7 624,-284.7 624,-262.7 469,-262.7"/>
<text text-anchor="start" x="489" y="-269.8" font-family="Helvetica,sans-Serif" font-size="11.00" fill="#000000">sequence_number</text>
<polygon fill="none" stroke="#000000" points="624,-262.7 624,-284.7 689,-284.7 689,-262.7 624,-262.7"/>
<text text-anchor="start" x="627" y="-270.4" font-family="Helvetica,sans-Serif" font-size="11.00" fill="#000000">int4[10]</text>
<polygon fill="#ffffff" stroke="transparent" points="469,-243.7 469,-262.7 551,-262.7 551,-243.7 469,-243.7"/>
<polygon fill="none" stroke="#000000" points="469,-243.7 469,-262.7 551,-262.7 551,-243.7 469,-243.7"/>
<text text-anchor="start" x="472" y="-249.8" font-family="Helvetica,sans-Serif" font-size="11.00" fill="#000000">&lt; 2</text>
<polygon fill="#ffffff" stroke="transparent" points="551,-243.7 551,-262.7 624,-262.7 624,-243.7 551,-243.7"/>
<polygon fill="none" stroke="#000000" points="551,-243.7 551,-262.7 624,-262.7 624,-243.7 551,-243.7"/>
<text text-anchor="start" x="614.8862" y="-249.8" font-family="Helvetica,sans-Serif" font-size="11.00" fill="#000000"> &#160;</text>
<polygon fill="#ffffff" stroke="transparent" points="624,-243.7 624,-262.7 689,-262.7 689,-243.7 624,-243.7"/>
<polygon fill="none" stroke="#000000" points="624,-243.7 624,-262.7 689,-262.7 689,-243.7 624,-243.7"/>
<text text-anchor="start" x="670.4053" y="-249.8" font-family="Helvetica,sans-Serif" font-size="11.00" fill="#000000">0 &gt;</text>
<polygon fill="none" stroke="#000000" stroke-width="2" points="468,-242.7 468,-374.7 690,-374.7 690,-242.7 468,-242.7"/>
</a>
</g>
</g>
<!-- reference_data_link&#45;&gt;reference_data -->
<g id="edge4" class="edge">
<title>reference_data_link:w&#45;&gt;reference_data:e</title>
<path fill="none" stroke="#000000" d="M454.8207,-315.1869C409.4304,-296.4834 460.2344,-179.7 396.5,-179.7"/>
<polygon fill="#000000" stroke="#000000" points="461.1228,-316.3038 468.3717,-321.2448 465.0614,-317.0019 469,-317.7 469,-317.7 469,-317.7 465.0614,-317.0019 469.6283,-314.1552 461.1228,-316.3038 461.1228,-316.3038"/>
<ellipse fill="none" stroke="#000000" cx="457.9719" cy="-315.7454" rx="3.2" ry="3.2"/>
</g>
<!-- reference_data_link&#45;&gt;reference_data -->
<g id="edge5" class="edge">
<title>reference_data_link:w&#45;&gt;reference_data:e</title>
<path fill="none" stroke="#000000" d="M454.8652,-292.947C416.2905,-275.3806 451.7158,-179.7 396.5,-179.7"/>
<polygon fill="#000000" stroke="#000000" points="461.1476,-294.1705 468.3117,-299.2336 465.0738,-294.9353 469,-295.7 469,-295.7 469,-295.7 465.0738,-294.9353 469.6883,-292.1664 461.1476,-294.1705 461.1476,-294.1705"/>
<ellipse fill="none" stroke="#000000" cx="458.0066" cy="-293.5588" rx="3.2" ry="3.2"/>
</g>
<!-- temporary_absence_authorisation -->
<g id="node5" class="node">
<title>temporary_absence_authorisation</title>
<g id="a_node5"><a xlink:href="../../tables/temporary_absence_authorisation.html" xlink:title="temporary_absence_authorisation" target="_top">
<polygon fill="#ffffff" stroke="transparent" points="445,-120.2 445,-181.2 713,-181.2 713,-120.2 445,-120.2"/>
<polygon fill="#f5f5f5" stroke="transparent" points="445,-157.7 445,-180.7 713,-180.7 713,-157.7 445,-157.7"/>
<polygon fill="none" stroke="#000000" points="445,-157.7 445,-180.7 713,-180.7 713,-157.7 445,-157.7"/>
<text text-anchor="start" x="450" y="-166.3" font-family="Helvetica,sans-Serif" font-weight="bold" font-size="11.00" fill="#000000">temporary_absence_authorisation</text>
<text text-anchor="start" x="678.5219" y="-165.8" font-family="Helvetica,sans-Serif" font-size="11.00" fill="#000000">[table]</text>
<polygon fill="none" stroke="#000000" points="445,-138.7 445,-157.7 713,-157.7 713,-138.7 445,-138.7"/>
<text text-anchor="start" x="448" y="-144.8" font-family="Helvetica,sans-Serif" font-size="11.00" fill="#000000">...</text>
<polygon fill="#ffffff" stroke="transparent" points="445,-119.7 445,-138.7 573,-138.7 573,-119.7 445,-119.7"/>
<polygon fill="none" stroke="#000000" points="445,-119.7 445,-138.7 573,-138.7 573,-119.7 445,-119.7"/>
<text text-anchor="start" x="448" y="-125.8" font-family="Helvetica,sans-Serif" font-size="11.00" fill="#000000">&lt; 4</text>
<polygon fill="#ffffff" stroke="transparent" points="573,-119.7 573,-138.7 638,-138.7 638,-119.7 573,-119.7"/>
<polygon fill="none" stroke="#000000" points="573,-119.7 573,-138.7 638,-138.7 638,-119.7 573,-119.7"/>
<text text-anchor="start" x="628.8862" y="-125.8" font-family="Helvetica,sans-Serif" font-size="11.00" fill="#000000"> &#160;</text>
<polygon fill="#ffffff" stroke="transparent" points="638,-119.7 638,-138.7 713,-138.7 713,-119.7 638,-119.7"/>
<polygon fill="none" stroke="#000000" points="638,-119.7 638,-138.7 713,-138.7 713,-119.7 638,-119.7"/>
<text text-anchor="start" x="694.4053" y="-125.8" font-family="Helvetica,sans-Serif" font-size="11.00" fill="#000000">1 &gt;</text>
</a>
</g>
</g>
<!-- temporary_absence_authorisation&#45;&gt;reference_data -->
<g id="edge6" class="edge">
<title>temporary_absence_authorisation:w&#45;&gt;reference_data:e</title>
<path fill="none" stroke="#000000" d="M431.6053,-141.8826C419.1667,-142.0779 416.6755,-164.8563 396.5,-179.7"/>
<polygon fill="#000000" stroke="#000000" points="437.6622,-144.5131 443.5659,-151.002 441.3311,-146.1065 445,-147.7 445,-147.7 445,-147.7 441.3311,-146.1065 446.4341,-144.398 437.6622,-144.5131 437.6622,-144.5131"/>
<ellipse fill="none" stroke="#000000" cx="434.727" cy="-143.2383" rx="3.2" ry="3.2"/>
</g>
<!-- temporary_absence_authorisation&#45;&gt;reference_data -->
<g id="edge7" class="edge">
<title>temporary_absence_authorisation:w&#45;&gt;reference_data:e</title>
<path fill="none" stroke="#000000" d="M430.512,-149.1181C419.0013,-155.675 416.0703,-175.1531 396.5,-179.7"/>
<polygon fill="#000000" stroke="#000000" points="437.0381,-148.4794 445.3507,-151.2829 441.019,-148.0897 445,-147.7 445,-147.7 445,-147.7 441.019,-148.0897 444.6493,-144.1171 437.0381,-148.4794 437.0381,-148.4794"/>
<ellipse fill="none" stroke="#000000" cx="433.8533" cy="-148.7911" rx="3.2" ry="3.2"/>
</g>
<!-- temporary_absence_authorisation&#45;&gt;reference_data -->
<g id="edge8" class="edge">
<title>temporary_absence_authorisation:w&#45;&gt;reference_data:e</title>
<path fill="none" stroke="#000000" d="M431.9815,-154.8661C419.2148,-166.4647 416.8773,-185.2234 396.5,-179.7"/>
<polygon fill="#000000" stroke="#000000" points="437.9916,-151.5578 446.736,-150.8538 441.4958,-149.6289 445,-147.7 445,-147.7 445,-147.7 441.4958,-149.6289 443.264,-144.5462 437.9916,-151.5578 437.9916,-151.5578"/>
<ellipse fill="none" stroke="#000000" cx="435.1883" cy="-153.101" rx="3.2" ry="3.2"/>
</g>
<!-- temporary_absence_authorisation&#45;&gt;reference_data -->
<g id="edge9" class="edge">
<title>temporary_absence_authorisation:w&#45;&gt;reference_data:e</title>
<path fill="none" stroke="#000000" d="M434.5836,-157.9699C419.4409,-176.6162 418.1887,-196.4969 396.5,-179.7"/>
<polygon fill="#000000" stroke="#000000" points="439.3032,-153.3166 447.5275,-150.2636 442.1516,-150.5083 445,-147.7 445,-147.7 445,-147.7 442.1516,-150.5083 442.4725,-145.1364 439.3032,-153.3166 439.3032,-153.3166"/>
<ellipse fill="none" stroke="#000000" cx="437.0245" cy="-155.5633" rx="3.2" ry="3.2"/>
</g>
<!-- temporary_absence_movement -->
<g id="node6" class="node">
<title>temporary_absence_movement</title>
<g id="a_node6"><a xlink:href="../../tables/temporary_absence_movement.html" xlink:title="temporary_absence_movement" target="_top">
<polygon fill="#ffffff" stroke="transparent" points="454.5,-38.2 454.5,-99.2 703.5,-99.2 703.5,-38.2 454.5,-38.2"/>
<polygon fill="#f5f5f5" stroke="transparent" points="455,-75.7 455,-98.7 704,-98.7 704,-75.7 455,-75.7"/>
<polygon fill="none" stroke="#000000" points="455,-75.7 455,-98.7 704,-98.7 704,-75.7 455,-75.7"/>
<text text-anchor="start" x="460" y="-84.3" font-family="Helvetica,sans-Serif" font-weight="bold" font-size="11.00" fill="#000000">temporary_absence_movement</text>
<text text-anchor="start" x="669.5219" y="-83.8" font-family="Helvetica,sans-Serif" font-size="11.00" fill="#000000">[table]</text>
<polygon fill="none" stroke="#000000" points="455,-56.7 455,-75.7 704,-75.7 704,-56.7 455,-56.7"/>
<text text-anchor="start" x="458" y="-62.8" font-family="Helvetica,sans-Serif" font-size="11.00" fill="#000000">...</text>
<polygon fill="#ffffff" stroke="transparent" points="455,-37.7 455,-56.7 578,-56.7 578,-37.7 455,-37.7"/>
<polygon fill="none" stroke="#000000" points="455,-37.7 455,-56.7 578,-56.7 578,-37.7 455,-37.7"/>
<text text-anchor="start" x="458" y="-43.8" font-family="Helvetica,sans-Serif" font-size="11.00" fill="#000000">&lt; 2</text>
<polygon fill="#ffffff" stroke="transparent" points="578,-37.7 578,-56.7 641,-56.7 641,-37.7 578,-37.7"/>
<polygon fill="none" stroke="#000000" points="578,-37.7 578,-56.7 641,-56.7 641,-37.7 578,-37.7"/>
<text text-anchor="start" x="631.8862" y="-43.8" font-family="Helvetica,sans-Serif" font-size="11.00" fill="#000000"> &#160;</text>
<polygon fill="#ffffff" stroke="transparent" points="641,-37.7 641,-56.7 704,-56.7 704,-37.7 641,-37.7"/>
<polygon fill="none" stroke="#000000" points="641,-37.7 641,-56.7 704,-56.7 704,-37.7 641,-37.7"/>
<text text-anchor="start" x="694.8862" y="-43.8" font-family="Helvetica,sans-Serif" font-size="11.00" fill="#000000"> &#160;</text>
</a>
</g>
</g>
<!-- temporary_absence_movement&#45;&gt;reference_data -->
<g id="edge10" class="edge">
<title>temporary_absence_movement:w&#45;&gt;reference_data:e</title>
<path fill="none" stroke="#000000" d="M440.4667,-67.5386C408.4872,-82.5455 447.4421,-174.3328 396.5,-179.7"/>
<polygon fill="#000000" stroke="#000000" points="447.0633,-66.7041 455.4519,-69.2715 451.0316,-66.2021 455,-65.7 455,-65.7 455,-65.7 451.0316,-66.2021 454.5481,-62.1285 447.0633,-66.7041 447.0633,-66.7041"/>
<ellipse fill="none" stroke="#000000" cx="443.8886" cy="-67.1058" rx="3.2" ry="3.2"/>
</g>
<!-- temporary_absence_movement&#45;&gt;reference_data -->
<g id="edge11" class="edge">
<title>temporary_absence_movement:w&#45;&gt;reference_data:e</title>
<path fill="none" stroke="#000000" d="M441.3209,-70.5997C407.7999,-93.8117 447.887,-186.0164 396.5,-179.7"/>
<polygon fill="#000000" stroke="#000000" points="447.4686,-68.3977 456.214,-69.0891 451.2343,-67.0489 455,-65.7 455,-65.7 455,-65.7 451.2343,-67.0489 453.786,-62.3109 447.4686,-68.3977 447.4686,-68.3977"/>
<ellipse fill="none" stroke="#000000" cx="444.456" cy="-69.4768" rx="3.2" ry="3.2"/>
</g>
<!-- temporary_absence_occurrence -->
<g id="node7" class="node">
<title>temporary_absence_occurrence</title>
<g id="a_node7"><a xlink:href="../../tables/temporary_absence_occurrence.html" xlink:title="temporary_absence_occurrence" target="_top">
<polygon fill="#ffffff" stroke="transparent" points="762,-184.2 762,-245.2 1014,-245.2 1014,-184.2 762,-184.2"/>
<polygon fill="#f5f5f5" stroke="transparent" points="762,-221.7 762,-244.7 1014,-244.7 1014,-221.7 762,-221.7"/>
<polygon fill="none" stroke="#000000" points="762,-221.7 762,-244.7 1014,-244.7 1014,-221.7 762,-221.7"/>
<text text-anchor="start" x="767" y="-230.3" font-family="Helvetica,sans-Serif" font-weight="bold" font-size="11.00" fill="#000000">temporary_absence_occurrence</text>
<text text-anchor="start" x="979.5219" y="-229.8" font-family="Helvetica,sans-Serif" font-size="11.00" fill="#000000">[table]</text>
<polygon fill="none" stroke="#000000" points="762,-202.7 762,-221.7 1014,-221.7 1014,-202.7 762,-202.7"/>
<text text-anchor="start" x="765" y="-208.8" font-family="Helvetica,sans-Serif" font-size="11.00" fill="#000000">...</text>
<polygon fill="#ffffff" stroke="transparent" points="762,-183.7 762,-202.7 886,-202.7 886,-183.7 762,-183.7"/>
<polygon fill="none" stroke="#000000" points="762,-183.7 762,-202.7 886,-202.7 886,-183.7 762,-183.7"/>
<text text-anchor="start" x="765" y="-189.8" font-family="Helvetica,sans-Serif" font-size="11.00" fill="#000000">&lt; 3</text>
<polygon fill="#ffffff" stroke="transparent" points="886,-183.7 886,-202.7 950,-202.7 950,-183.7 886,-183.7"/>
<polygon fill="none" stroke="#000000" points="886,-183.7 886,-202.7 950,-202.7 950,-183.7 886,-183.7"/>
<text text-anchor="start" x="940.8862" y="-189.8" font-family="Helvetica,sans-Serif" font-size="11.00" fill="#000000"> &#160;</text>
<polygon fill="#ffffff" stroke="transparent" points="950,-183.7 950,-202.7 1014,-202.7 1014,-183.7 950,-183.7"/>
<polygon fill="none" stroke="#000000" points="950,-183.7 950,-202.7 1014,-202.7 1014,-183.7 950,-183.7"/>
<text text-anchor="start" x="1004.8862" y="-189.8" font-family="Helvetica,sans-Serif" font-size="11.00" fill="#000000"> &#160;</text>
</a>
</g>
</g>
<!-- temporary_absence_occurrence&#45;&gt;reference_data -->
<g id="edge12" class="edge">
<title>temporary_absence_occurrence:w&#45;&gt;reference_data:e</title>
<path fill="none" stroke="#000000" d="M747.5272,-211.7167C614.5781,-212.0174 574.6424,-216.002 437,-191.7 418.5124,-188.4359 415.2735,-179.7 396.5,-179.7"/>
<polygon fill="#000000" stroke="#000000" points="754,-211.7093 762.0042,-215.3 758,-211.7046 762,-211.7 762,-211.7 762,-211.7 758,-211.7046 761.9958,-208.1 754,-211.7093 754,-211.7093"/>
<ellipse fill="none" stroke="#000000" cx="750.8" cy="-211.713" rx="3.2" ry="3.2"/>
</g>
<!-- temporary_absence_occurrence&#45;&gt;reference_data -->
<g id="edge14" class="edge">
<title>temporary_absence_occurrence:w&#45;&gt;reference_data:e</title>
<path fill="none" stroke="#000000" d="M747.5191,-211.6835C614.5334,-211.3684 575.6264,-206.4396 437,-187.7 418.8176,-185.2421 414.8478,-179.7 396.5,-179.7"/>
<polygon fill="#000000" stroke="#000000" points="754,-211.6908 761.9959,-215.3 758,-211.6954 762,-211.7 762,-211.7 762,-211.7 758,-211.6954 762.0041,-208.1 754,-211.6908 754,-211.6908"/>
<ellipse fill="none" stroke="#000000" cx="750.8" cy="-211.6871" rx="3.2" ry="3.2"/>
</g>
<!-- temporary_absence_occurrence&#45;&gt;temporary_absence_authorisation -->
<g id="edge13" class="edge">
<title>temporary_absence_occurrence:w&#45;&gt;temporary_absence_authorisation:e</title>
<path fill="none" stroke="#000000" d="M748.1165,-206.678C732.2339,-191.5906 742.6667,-147.7 713,-147.7"/>
<polygon fill="#000000" stroke="#000000" points="754.477,-208.9787 760.7754,-215.0853 758.2385,-210.3394 762,-211.7 762,-211.7 762,-211.7 758.2385,-210.3394 763.2246,-208.3147 754.477,-208.9787 754.477,-208.9787"/>
<ellipse fill="none" stroke="#000000" cx="751.4678" cy="-207.8902" rx="3.2" ry="3.2"/>
</g>
</g>
</svg>
