<?xml version="1.0" encoding="UTF-8" standalone="no"?>
<!DOCTYPE svg PUBLIC "-//W3C//DTD SVG 1.1//EN"
 "http://www.w3.org/Graphics/SVG/1.1/DTD/svg11.dtd">
<!-- Generated by graphviz version 2.40.1 (20161225.0304)
 -->
<!-- Title: oneDegreeRelationshipsDiagram Pages: 1 -->
<svg width="741pt" height="227pt"
 viewBox="0.00 0.00 741.00 226.57" xmlns="http://www.w3.org/2000/svg" xmlns:xlink="http://www.w3.org/1999/xlink">
<g id="graph0" class="graph" transform="scale(1 1) rotate(0) translate(4 222.575)">
<title>oneDegreeRelationshipsDiagram</title>
<polygon fill="#ffffff" stroke="transparent" points="-4,4 -4,-222.575 737,-222.575 737,4 -4,4"/>
<text text-anchor="middle" x="72.4936" y="-7.3" font-family="Helvetica,sans-Serif" font-size="11.00" fill="#000000">Generated by SchemaSpy</text>
<!-- reference_data -->
<g id="node1" class="node">
<title>reference_data</title>
<g id="a_node1"><a xlink:href="../../tables/reference_data.html" xlink:title="reference_data" target="_top">
<polygon fill="#ffffff" stroke="transparent" points="306,-65.575 306,-214.575 449,-214.575 449,-65.575 306,-65.575"/>
<polygon fill="#f5f5f5" stroke="transparent" points="306.5,-191.075 306.5,-214.075 449.5,-214.075 449.5,-191.075 306.5,-191.075"/>
<polygon fill="none" stroke="#000000" points="306.5,-191.075 306.5,-214.075 449.5,-214.075 449.5,-191.075 306.5,-191.075"/>
<text text-anchor="start" x="311.5" y="-199.675" font-family="Helvetica,sans-Serif" font-weight="bold" font-size="11.00" fill="#000000">reference_data</text>
<text text-anchor="start" x="414.5437" y="-199.175" font-family="Helvetica,sans-Serif" font-size="11.00" fill="#000000">[table]</text>
<polygon fill="none" stroke="#000000" points="306.5,-169.075 306.5,-191.075 449.5,-191.075 449.5,-169.075 306.5,-169.075"/>
<image xlink:href="../../images/primaryKeys.png" width="11px" height="12px" preserveAspectRatio="xMinYMin meet" x="311.5" y="-186.075"/>
<text text-anchor="start" x="326.5" y="-176.175" font-family="Helvetica,sans-Serif" font-size="11.00" fill="#000000">id</text>
<polygon fill="#ffffff" stroke="transparent" points="306.5,-147.075 306.5,-169.075 449.5,-169.075 449.5,-147.075 306.5,-147.075"/>
<polygon fill="none" stroke="#000000" points="306.5,-147.075 306.5,-169.075 449.5,-169.075 449.5,-147.075 306.5,-147.075"/>
<image xlink:href="../../images/foreignKeys.png" width="11px" height="12px" preserveAspectRatio="xMinYMin meet" x="311.5" y="-164.075"/>
<text text-anchor="start" x="326.5" y="-154.175" font-family="Helvetica,sans-Serif" font-size="11.00" fill="#000000">domain</text>
<polygon fill="#ffffff" stroke="transparent" points="306.5,-125.075 306.5,-147.075 449.5,-147.075 449.5,-125.075 306.5,-125.075"/>
<polygon fill="none" stroke="#000000" points="306.5,-125.075 306.5,-147.075 449.5,-147.075 449.5,-125.075 306.5,-125.075"/>
<text text-anchor="start" x="326.5" y="-132.175" font-family="Helvetica,sans-Serif" font-size="11.00" fill="#000000">code</text>
<polygon fill="#ffffff" stroke="transparent" points="306.5,-103.075 306.5,-125.075 449.5,-125.075 449.5,-103.075 306.5,-103.075"/>
<polygon fill="none" stroke="#000000" points="306.5,-103.075 306.5,-125.075 449.5,-125.075 449.5,-103.075 306.5,-103.075"/>
<text text-anchor="start" x="326.5" y="-110.175" font-family="Helvetica,sans-Serif" font-size="11.00" fill="#000000">sequence_number</text>
<polygon fill="none" stroke="#000000" points="306.5,-84.075 306.5,-103.075 449.5,-103.075 449.5,-84.075 306.5,-84.075"/>
<text text-anchor="start" x="309.5" y="-90.175" font-family="Helvetica,sans-Serif" font-size="11.00" fill="#000000">...</text>
<polygon fill="#ffffff" stroke="transparent" points="306.5,-65.075 306.5,-84.075 349.5,-84.075 349.5,-65.075 306.5,-65.075"/>
<polygon fill="none" stroke="#000000" points="306.5,-65.075 306.5,-84.075 349.5,-84.075 349.5,-65.075 306.5,-65.075"/>
<text text-anchor="start" x="309.5" y="-71.175" font-family="Helvetica,sans-Serif" font-size="11.00" fill="#000000">&lt; 1</text>
<polygon fill="#ffffff" stroke="transparent" points="349.5,-65.075 349.5,-84.075 410.5,-84.075 410.5,-65.075 349.5,-65.075"/>
<polygon fill="none" stroke="#000000" points="349.5,-65.075 349.5,-84.075 410.5,-84.075 410.5,-65.075 349.5,-65.075"/>
<text text-anchor="start" x="362.8807" y="-71.175" font-family="Helvetica,sans-Serif" font-size="11.00" fill="#000000">160 rows</text>
<polygon fill="#ffffff" stroke="transparent" points="410.5,-65.075 410.5,-84.075 449.5,-84.075 449.5,-65.075 410.5,-65.075"/>
<polygon fill="none" stroke="#000000" points="410.5,-65.075 410.5,-84.075 449.5,-84.075 449.5,-65.075 410.5,-65.075"/>
<text text-anchor="start" x="424.7904" y="-71.175" font-family="Helvetica,sans-Serif" font-size="11.00" fill="#000000">18 &gt;</text>
</a>
</g>
</g>
<!-- reference_data_domain -->
<g id="node2" class="node">
<title>reference_data_domain</title>
<g id="a_node2"><a xlink:href="../../tables/reference_data_domain.html" xlink:title="reference_data_domain" target="_top">
<polygon fill="#ffffff" stroke="transparent" points="8,-45.075 8,-135.075 257,-135.075 257,-45.075 8,-45.075"/>
<polygon fill="#f5f5f5" stroke="transparent" points="10.5,-110.075 10.5,-133.075 255.5,-133.075 255.5,-110.075 10.5,-110.075"/>
<polygon fill="none" stroke="#000000" points="10.5,-110.075 10.5,-133.075 255.5,-133.075 255.5,-110.075 10.5,-110.075"/>
<text text-anchor="start" x="15.5" y="-118.675" font-family="Helvetica,sans-Serif" font-weight="bold" font-size="11.00" fill="#000000">reference_data_domain</text>
<text text-anchor="start" x="220.5437" y="-118.175" font-family="Helvetica,sans-Serif" font-size="11.00" fill="#000000">[table]</text>
<polygon fill="none" stroke="#000000" points="10.5,-88.075 10.5,-110.075 188.5,-110.075 188.5,-88.075 10.5,-88.075"/>
<image xlink:href="../../images/primaryKeys.png" width="11px" height="12px" preserveAspectRatio="xMinYMin meet" x="15.5" y="-105.075"/>
<text text-anchor="start" x="30.5" y="-95.175" font-family="Helvetica,sans-Serif" font-size="11.00" fill="#000000">code</text>
<polygon fill="none" stroke="#000000" points="188.5,-88.075 188.5,-110.075 255.5,-110.075 255.5,-88.075 188.5,-88.075"/>
<text text-anchor="start" x="191.5" y="-95.775" font-family="Helvetica,sans-Serif" font-size="11.00" fill="#000000">varchar[32]</text>
<polygon fill="none" stroke="#000000" points="10.5,-66.075 10.5,-88.075 188.5,-88.075 188.5,-66.075 10.5,-66.075"/>
<text text-anchor="start" x="30.5" y="-73.175" font-family="Helvetica,sans-Serif" font-size="11.00" fill="#000000">description</text>
<polygon fill="none" stroke="#000000" points="188.5,-66.075 188.5,-88.075 255.5,-88.075 255.5,-66.075 188.5,-66.075"/>
<text text-anchor="start" x="191.4365" y="-73.775" font-family="Helvetica,sans-Serif" font-size="11.00" fill="#000000">varchar[255]</text>
<polygon fill="#ffffff" stroke="transparent" points="10.5,-47.075 10.5,-66.075 103.5,-66.075 103.5,-47.075 10.5,-47.075"/>
<polygon fill="none" stroke="#000000" points="10.5,-47.075 10.5,-66.075 103.5,-66.075 103.5,-47.075 10.5,-47.075"/>
<text text-anchor="start" x="13.5" y="-53.175" font-family="Helvetica,sans-Serif" font-size="11.00" fill="#000000">&lt; 0</text>
<polygon fill="#ffffff" stroke="transparent" points="103.5,-47.075 103.5,-66.075 188.5,-66.075 188.5,-47.075 103.5,-47.075"/>
<polygon fill="none" stroke="#000000" points="103.5,-47.075 103.5,-66.075 188.5,-66.075 188.5,-47.075 103.5,-47.075"/>
<text text-anchor="start" x="179.3862" y="-53.175" font-family="Helvetica,sans-Serif" font-size="11.00" fill="#000000"> &#160;</text>
<polygon fill="#ffffff" stroke="transparent" points="188.5,-47.075 188.5,-66.075 255.5,-66.075 255.5,-47.075 188.5,-47.075"/>
<polygon fill="none" stroke="#000000" points="188.5,-47.075 188.5,-66.075 255.5,-66.075 255.5,-47.075 188.5,-47.075"/>
<text text-anchor="start" x="236.9053" y="-53.175" font-family="Helvetica,sans-Serif" font-size="11.00" fill="#000000">2 &gt;</text>
<polygon fill="none" stroke="#000000" stroke-width="2" points="9,-46.075 9,-134.075 256,-134.075 256,-46.075 9,-46.075"/>
</a>
</g>
</g>
<!-- reference_data&#45;&gt;reference_data_domain -->
<g id="edge1" class="edge">
<title>reference_data:w&#45;&gt;reference_data_domain:e</title>
<path fill="none" stroke="#000000" d="M292.7854,-153.4453C276.572,-139.5366 284.2036,-99.075 255.5,-99.075"/>
<polygon fill="#000000" stroke="#000000" points="298.9202,-155.5162 305.3486,-161.4859 302.7101,-156.7956 306.5,-158.075 306.5,-158.075 306.5,-158.075 302.7101,-156.7956 307.6514,-154.6641 298.9202,-155.5162 298.9202,-155.5162"/>
<ellipse fill="none" stroke="#000000" cx="295.8883" cy="-154.4927" rx="3.2" ry="3.2"/>
</g>
<!-- reference_data_domain_link -->
<g id="node3" class="node">
<title>reference_data_domain_link</title>
<g id="a_node3"><a xlink:href="../../tables/reference_data_domain_link.html" xlink:title="reference_data_domain_link" target="_top">
<polygon fill="#ffffff" stroke="transparent" points="498,-69.075 498,-155.075 725,-155.075 725,-69.075 498,-69.075"/>
<polygon fill="#f5f5f5" stroke="transparent" points="498.5,-132.075 498.5,-155.075 725.5,-155.075 725.5,-132.075 498.5,-132.075"/>
<polygon fill="none" stroke="#000000" points="498.5,-132.075 498.5,-155.075 725.5,-155.075 725.5,-132.075 498.5,-132.075"/>
<text text-anchor="start" x="503.5" y="-140.675" font-family="Helvetica,sans-Serif" font-weight="bold" font-size="11.00" fill="#000000">reference_data_domain_link</text>
<text text-anchor="start" x="691.0219" y="-140.175" font-family="Helvetica,sans-Serif" font-size="11.00" fill="#000000">[table]</text>
<polygon fill="none" stroke="#000000" points="498.5,-110.075 498.5,-132.075 725.5,-132.075 725.5,-110.075 498.5,-110.075"/>
<image xlink:href="../../images/primaryKeys.png" width="11px" height="12px" preserveAspectRatio="xMinYMin meet" x="503.5" y="-127.075"/>
<text text-anchor="start" x="527.5" y="-117.175" font-family="Helvetica,sans-Serif" font-size="11.00" fill="#000000">id</text>
<polygon fill="none" stroke="#000000" points="498.5,-88.075 498.5,-110.075 725.5,-110.075 725.5,-88.075 498.5,-88.075"/>
<image xlink:href="../../images/foreignKeys.png" width="11px" height="12px" preserveAspectRatio="xMinYMin meet" x="503.5" y="-105.075"/>
<text text-anchor="start" x="527.5" y="-95.175" font-family="Helvetica,sans-Serif" font-size="11.00" fill="#000000">domain</text>
<polygon fill="#ffffff" stroke="transparent" points="498.5,-69.075 498.5,-88.075 610.5,-88.075 610.5,-69.075 498.5,-69.075"/>
<polygon fill="none" stroke="#000000" points="498.5,-69.075 498.5,-88.075 610.5,-88.075 610.5,-69.075 498.5,-69.075"/>
<text text-anchor="start" x="501.5" y="-75.175" font-family="Helvetica,sans-Serif" font-size="11.00" fill="#000000">&lt; 2</text>
<polygon fill="#ffffff" stroke="transparent" points="610.5,-69.075 610.5,-88.075 667.5,-88.075 667.5,-69.075 610.5,-69.075"/>
<polygon fill="none" stroke="#000000" points="610.5,-69.075 610.5,-88.075 667.5,-88.075 667.5,-69.075 610.5,-69.075"/>
<text text-anchor="start" x="658.3862" y="-75.175" font-family="Helvetica,sans-Serif" font-size="11.00" fill="#000000"> &#160;</text>
<polygon fill="#ffffff" stroke="transparent" points="667.5,-69.075 667.5,-88.075 725.5,-88.075 725.5,-69.075 667.5,-69.075"/>
<polygon fill="none" stroke="#000000" points="667.5,-69.075 667.5,-88.075 725.5,-88.075 725.5,-69.075 667.5,-69.075"/>
<text text-anchor="start" x="716.3862" y="-75.175" font-family="Helvetica,sans-Serif" font-size="11.00" fill="#000000"> &#160;</text>
</a>
</g>
</g>
<!-- reference_data_domain_link&#45;&gt;reference_data -->
<g id="edge3" class="edge">
<title>reference_data_domain_link:w&#45;&gt;reference_data:e</title>
<path fill="none" stroke="#000000" d="M488.2709,-123.4609C468.2761,-134.4989 479.4587,-180.075 449.5,-180.075"/>
<polygon fill="#000000" stroke="#000000" points="496.8123,-117.3613 498.6296,-125.1521 497.0714,-125.5156 495.2541,-117.7247 496.8123,-117.3613"/>
<polyline fill="none" stroke="#000000" points="498.5,-121.075 494.6046,-121.9836 "/>
<ellipse fill="none" stroke="#000000" cx="491.4882" cy="-122.7105" rx="3.2" ry="3.2"/>
</g>
<!-- reference_data_domain_link&#45;&gt;reference_data_domain -->
<g id="edge2" class="edge">
<title>reference_data_domain_link:w&#45;&gt;reference_data_domain:e</title>
<path fill="none" stroke="#000000" d="M484.7643,-94.3006C474.4272,-84.6888 475.8974,-63.2281 457,-55.075 392.1147,-27.0807 363.0506,-27.467 298,-55.075 272.9723,-65.6969 282.6884,-99.075 255.5,-99.075"/>
<polygon fill="#000000" stroke="#000000" points="490.9435,-96.4484 497.318,-102.4754 494.7217,-97.7617 498.5,-99.075 498.5,-99.075 498.5,-99.075 494.7217,-97.7617 499.682,-95.6745 490.9435,-96.4484 490.9435,-96.4484"/>
<ellipse fill="none" stroke="#000000" cx="487.9209" cy="-95.3977" rx="3.2" ry="3.2"/>
</g>
</g>
</svg>
