<?xml version="1.0" encoding="UTF-8" standalone="no"?>
<!DOCTYPE svg PUBLIC "-//W3C//DTD SVG 1.1//EN"
 "http://www.w3.org/Graphics/SVG/1.1/DTD/svg11.dtd">
<!-- Generated by graphviz version 2.40.1 (20161225.0304)
 -->
<!-- Title: twoDegreesRelationshipsDiagram Pages: 1 -->
<svg width="1497pt" height="608pt"
 viewBox="0.00 0.00 1497.00 608.20" xmlns="http://www.w3.org/2000/svg" xmlns:xlink="http://www.w3.org/1999/xlink">
<g id="graph0" class="graph" transform="scale(1 1) rotate(0) translate(4 604.2)">
<title>twoDegreesRelationshipsDiagram</title>
<polygon fill="#ffffff" stroke="transparent" points="-4,4 -4,-604.2 1493,-604.2 1493,4 -4,4"/>
<text text-anchor="middle" x="72.4936" y="-7.3" font-family="Helvetica,sans-Serif" font-size="11.00" fill="#000000">Generated by SchemaSpy</text>
<!-- reference_data -->
<g id="node1" class="node">
<title>reference_data</title>
<g id="a_node1"><a xlink:href="../../tables/reference_data.html" xlink:title="reference_data" target="_top">
<polygon fill="#ffffff" stroke="transparent" points="302,-120.7 302,-320.7 516,-320.7 516,-120.7 302,-120.7"/>
<polygon fill="#f5f5f5" stroke="transparent" points="304,-295.7 304,-318.7 514,-318.7 514,-295.7 304,-295.7"/>
<polygon fill="none" stroke="#000000" points="304,-295.7 304,-318.7 514,-318.7 514,-295.7 304,-295.7"/>
<text text-anchor="start" x="309" y="-304.3" font-family="Helvetica,sans-Serif" font-weight="bold" font-size="11.00" fill="#000000">reference_data</text>
<text text-anchor="start" x="479.0437" y="-303.8" font-family="Helvetica,sans-Serif" font-size="11.00" fill="#000000">[table]</text>
<polygon fill="none" stroke="#000000" points="304,-273.7 304,-295.7 447,-295.7 447,-273.7 304,-273.7"/>
<image xlink:href="../../images/primaryKeys.png" width="11px" height="12px" preserveAspectRatio="xMinYMin meet" x="309" y="-290.7"/>
<text text-anchor="start" x="324" y="-280.8" font-family="Helvetica,sans-Serif" font-size="11.00" fill="#000000">id</text>
<polygon fill="none" stroke="#000000" points="447,-273.7 447,-295.7 514,-295.7 514,-273.7 447,-273.7"/>
<text text-anchor="start" x="450" y="-281.4" font-family="Helvetica,sans-Serif" font-size="11.00" fill="#000000">bigserial[19]</text>
<polygon fill="#ffffff" stroke="transparent" points="304,-251.7 304,-273.7 447,-273.7 447,-251.7 304,-251.7"/>
<polygon fill="none" stroke="#000000" points="304,-251.7 304,-273.7 447,-273.7 447,-251.7 304,-251.7"/>
<image xlink:href="../../images/foreignKeys.png" width="11px" height="12px" preserveAspectRatio="xMinYMin meet" x="309" y="-268.7"/>
<text text-anchor="start" x="324" y="-258.8" font-family="Helvetica,sans-Serif" font-size="11.00" fill="#000000">domain</text>
<polygon fill="none" stroke="#000000" points="447,-251.7 447,-273.7 514,-273.7 514,-251.7 447,-251.7"/>
<text text-anchor="start" x="450" y="-259.4" font-family="Helvetica,sans-Serif" font-size="11.00" fill="#000000">varchar[32]</text>
<polygon fill="#ffffff" stroke="transparent" points="304,-229.7 304,-251.7 447,-251.7 447,-229.7 304,-229.7"/>
<polygon fill="none" stroke="#000000" points="304,-229.7 304,-251.7 447,-251.7 447,-229.7 304,-229.7"/>
<text text-anchor="start" x="324" y="-236.8" font-family="Helvetica,sans-Serif" font-size="11.00" fill="#000000">code</text>
<polygon fill="none" stroke="#000000" points="447,-229.7 447,-251.7 514,-251.7 514,-229.7 447,-229.7"/>
<text text-anchor="start" x="450" y="-237.4" font-family="Helvetica,sans-Serif" font-size="11.00" fill="#000000">varchar[16]</text>
<polygon fill="none" stroke="#000000" points="304,-207.7 304,-229.7 447,-229.7 447,-207.7 304,-207.7"/>
<text text-anchor="start" x="324" y="-214.8" font-family="Helvetica,sans-Serif" font-size="11.00" fill="#000000">description</text>
<polygon fill="none" stroke="#000000" points="447,-207.7 447,-229.7 514,-229.7 514,-207.7 447,-207.7"/>
<text text-anchor="start" x="449.9365" y="-215.4" font-family="Helvetica,sans-Serif" font-size="11.00" fill="#000000">varchar[255]</text>
<polygon fill="none" stroke="#000000" points="304,-185.7 304,-207.7 447,-207.7 447,-185.7 304,-185.7"/>
<text text-anchor="start" x="324" y="-192.8" font-family="Helvetica,sans-Serif" font-size="11.00" fill="#000000">hint_text</text>
<polygon fill="none" stroke="#000000" points="447,-185.7 447,-207.7 514,-207.7 514,-185.7 447,-185.7"/>
<text text-anchor="start" x="449.9365" y="-193.4" font-family="Helvetica,sans-Serif" font-size="11.00" fill="#000000">varchar[255]</text>
<polygon fill="#ffffff" stroke="transparent" points="304,-163.7 304,-185.7 447,-185.7 447,-163.7 304,-163.7"/>
<polygon fill="none" stroke="#000000" points="304,-163.7 304,-185.7 447,-185.7 447,-163.7 304,-163.7"/>
<text text-anchor="start" x="324" y="-170.8" font-family="Helvetica,sans-Serif" font-size="11.00" fill="#000000">sequence_number</text>
<polygon fill="none" stroke="#000000" points="447,-163.7 447,-185.7 514,-185.7 514,-163.7 447,-163.7"/>
<text text-anchor="start" x="450" y="-171.4" font-family="Helvetica,sans-Serif" font-size="11.00" fill="#000000">int4[10]</text>
<polygon fill="none" stroke="#000000" points="304,-141.7 304,-163.7 447,-163.7 447,-141.7 304,-141.7"/>
<text text-anchor="start" x="324" y="-148.8" font-family="Helvetica,sans-Serif" font-size="11.00" fill="#000000">active</text>
<polygon fill="none" stroke="#000000" points="447,-141.7 447,-163.7 514,-163.7 514,-141.7 447,-141.7"/>
<text text-anchor="start" x="450" y="-149.4" font-family="Helvetica,sans-Serif" font-size="11.00" fill="#000000">bool[1]</text>
<polygon fill="#ffffff" stroke="transparent" points="304,-122.7 304,-141.7 361,-141.7 361,-122.7 304,-122.7"/>
<polygon fill="none" stroke="#000000" points="304,-122.7 304,-141.7 361,-141.7 361,-122.7 304,-122.7"/>
<text text-anchor="start" x="307" y="-128.8" font-family="Helvetica,sans-Serif" font-size="11.00" fill="#000000">&lt; 1</text>
<polygon fill="#ffffff" stroke="transparent" points="361,-122.7 361,-141.7 447,-141.7 447,-122.7 361,-122.7"/>
<polygon fill="none" stroke="#000000" points="361,-122.7 361,-141.7 447,-141.7 447,-122.7 361,-122.7"/>
<text text-anchor="start" x="399.3807" y="-128.8" font-family="Helvetica,sans-Serif" font-size="11.00" fill="#000000">163 rows</text>
<polygon fill="#ffffff" stroke="transparent" points="447,-122.7 447,-141.7 514,-141.7 514,-122.7 447,-122.7"/>
<polygon fill="none" stroke="#000000" points="447,-122.7 447,-141.7 514,-141.7 514,-122.7 447,-122.7"/>
<text text-anchor="start" x="489.2904" y="-128.8" font-family="Helvetica,sans-Serif" font-size="11.00" fill="#000000">18 &gt;</text>
<polygon fill="none" stroke="#000000" stroke-width="2" points="303,-121.7 303,-319.7 515,-319.7 515,-121.7 303,-121.7"/>
</a>
</g>
</g>
<!-- reference_data_domain -->
<g id="node2" class="node">
<title>reference_data_domain</title>
<g id="a_node2"><a xlink:href="../../tables/reference_data_domain.html" xlink:title="reference_data_domain" target="_top">
<polygon fill="#ffffff" stroke="transparent" points="8,-424.2 8,-485.2 204,-485.2 204,-424.2 8,-424.2"/>
<polygon fill="#f5f5f5" stroke="transparent" points="8,-461.7 8,-484.7 204,-484.7 204,-461.7 8,-461.7"/>
<polygon fill="none" stroke="#000000" points="8,-461.7 8,-484.7 204,-484.7 204,-461.7 8,-461.7"/>
<text text-anchor="start" x="13" y="-470.3" font-family="Helvetica,sans-Serif" font-weight="bold" font-size="11.00" fill="#000000">reference_data_domain</text>
<text text-anchor="start" x="169.5219" y="-469.8" font-family="Helvetica,sans-Serif" font-size="11.00" fill="#000000">[table]</text>
<polygon fill="none" stroke="#000000" points="8,-442.7 8,-461.7 204,-461.7 204,-442.7 8,-442.7"/>
<text text-anchor="start" x="11" y="-448.8" font-family="Helvetica,sans-Serif" font-size="11.00" fill="#000000">...</text>
<polygon fill="#ffffff" stroke="transparent" points="8,-423.7 8,-442.7 95,-442.7 95,-423.7 8,-423.7"/>
<polygon fill="none" stroke="#000000" points="8,-423.7 8,-442.7 95,-442.7 95,-423.7 8,-423.7"/>
<text text-anchor="start" x="11" y="-429.8" font-family="Helvetica,sans-Serif" font-size="11.00" fill="#000000"> &#160;</text>
<polygon fill="#ffffff" stroke="transparent" points="95,-423.7 95,-442.7 145,-442.7 145,-423.7 95,-423.7"/>
<polygon fill="none" stroke="#000000" points="95,-423.7 95,-442.7 145,-442.7 145,-423.7 95,-423.7"/>
<text text-anchor="start" x="135.8862" y="-429.8" font-family="Helvetica,sans-Serif" font-size="11.00" fill="#000000"> &#160;</text>
<polygon fill="#ffffff" stroke="transparent" points="145,-423.7 145,-442.7 204,-442.7 204,-423.7 145,-423.7"/>
<polygon fill="none" stroke="#000000" points="145,-423.7 145,-442.7 204,-442.7 204,-423.7 145,-423.7"/>
<text text-anchor="start" x="185.4053" y="-429.8" font-family="Helvetica,sans-Serif" font-size="11.00" fill="#000000">3 &gt;</text>
</a>
</g>
</g>
<!-- reference_data&#45;&gt;reference_data_domain -->
<g id="edge1" class="edge">
<title>reference_data:w&#45;&gt;reference_data_domain:e</title>
<path fill="none" stroke="#000000" d="M289.5754,-263.59C207.7766,-273.7062 148.8782,-367.6269 122.1108,-419.9302"/>
<polygon fill="#000000" stroke="#000000" points="296.0152,-263.1927 304.2217,-266.2932 300.0076,-262.9464 304,-262.7 304,-262.7 304,-262.7 300.0076,-262.9464 303.7783,-259.1068 296.0152,-263.1927 296.0152,-263.1927"/>
<ellipse fill="none" stroke="#000000" cx="292.8213" cy="-263.3898" rx="3.2" ry="3.2"/>
</g>
<!-- reference_data_domain_link -->
<g id="node3" class="node">
<title>reference_data_domain_link</title>
<g id="a_node3"><a xlink:href="../../tables/reference_data_domain_link.html" xlink:title="reference_data_domain_link" target="_top">
<polygon fill="#ffffff" stroke="transparent" points="634.5,-535.2 634.5,-596.2 861.5,-596.2 861.5,-535.2 634.5,-535.2"/>
<polygon fill="#f5f5f5" stroke="transparent" points="635,-572.7 635,-595.7 862,-595.7 862,-572.7 635,-572.7"/>
<polygon fill="none" stroke="#000000" points="635,-572.7 635,-595.7 862,-595.7 862,-572.7 635,-572.7"/>
<text text-anchor="start" x="640" y="-581.3" font-family="Helvetica,sans-Serif" font-weight="bold" font-size="11.00" fill="#000000">reference_data_domain_link</text>
<text text-anchor="start" x="827.5219" y="-580.8" font-family="Helvetica,sans-Serif" font-size="11.00" fill="#000000">[table]</text>
<polygon fill="none" stroke="#000000" points="635,-553.7 635,-572.7 862,-572.7 862,-553.7 635,-553.7"/>
<text text-anchor="start" x="638" y="-559.8" font-family="Helvetica,sans-Serif" font-size="11.00" fill="#000000">...</text>
<polygon fill="#ffffff" stroke="transparent" points="635,-534.7 635,-553.7 747,-553.7 747,-534.7 635,-534.7"/>
<polygon fill="none" stroke="#000000" points="635,-534.7 635,-553.7 747,-553.7 747,-534.7 635,-534.7"/>
<text text-anchor="start" x="638" y="-540.8" font-family="Helvetica,sans-Serif" font-size="11.00" fill="#000000">&lt; 2</text>
<polygon fill="#ffffff" stroke="transparent" points="747,-534.7 747,-553.7 804,-553.7 804,-534.7 747,-534.7"/>
<polygon fill="none" stroke="#000000" points="747,-534.7 747,-553.7 804,-553.7 804,-534.7 747,-534.7"/>
<text text-anchor="start" x="794.8862" y="-540.8" font-family="Helvetica,sans-Serif" font-size="11.00" fill="#000000"> &#160;</text>
<polygon fill="#ffffff" stroke="transparent" points="804,-534.7 804,-553.7 862,-553.7 862,-534.7 804,-534.7"/>
<polygon fill="none" stroke="#000000" points="804,-534.7 804,-553.7 862,-553.7 862,-534.7 804,-534.7"/>
<text text-anchor="start" x="852.8862" y="-540.8" font-family="Helvetica,sans-Serif" font-size="11.00" fill="#000000"> &#160;</text>
</a>
</g>
</g>
<!-- reference_data_domain_link&#45;&gt;reference_data -->
<g id="edge3" class="edge">
<title>reference_data_domain_link:w&#45;&gt;reference_data:e</title>
<path fill="none" stroke="#000000" d="M617.3287,-533.7305C613.3454,-530.9647 609.5508,-527.9613 606,-524.7 563.9329,-486.0636 571.1176,-284.7 514,-284.7"/>
<polygon fill="#000000" stroke="#000000" points="627.7885,-535.6044 623.5172,-542.3688 622.1643,-541.5146 626.4356,-534.7502 627.7885,-535.6044"/>
<polyline fill="none" stroke="#000000" points="626.3293,-539.4138 622.9471,-537.2781 "/>
<ellipse fill="none" stroke="#000000" cx="620.2414" cy="-535.5696" rx="3.2" ry="3.2"/>
</g>
<!-- reference_data_domain_link&#45;&gt;reference_data_domain -->
<g id="edge2" class="edge">
<title>reference_data_domain_link:w&#45;&gt;reference_data_domain:e</title>
<path fill="none" stroke="#000000" d="M613.6086,-530.1519C610.996,-528.4203 608.4553,-526.6043 606,-524.7 583.1725,-506.9948 597.865,-483.4071 573,-468.7 463.3909,-403.8684 312.579,-413.2913 212.3277,-430.2749"/>
<polygon fill="#000000" stroke="#000000" points="619.4211,-533.5862 624.4774,-540.7552 622.8649,-535.621 626.3087,-537.6558 626.3087,-537.6558 626.3087,-537.6558 622.8649,-535.621 628.14,-534.5563 619.4211,-533.5862 619.4211,-533.5862"/>
<ellipse fill="none" stroke="#000000" cx="616.6661" cy="-531.9584" rx="3.2" ry="3.2"/>
</g>
<!-- reference_data_link -->
<g id="node4" class="node">
<title>reference_data_link</title>
<g id="a_node4"><a xlink:href="../../tables/reference_data_link.html" xlink:title="reference_data_link" target="_top">
<polygon fill="#ffffff" stroke="transparent" points="662.5,-383.7 662.5,-513.7 833.5,-513.7 833.5,-383.7 662.5,-383.7"/>
<polygon fill="#f5f5f5" stroke="transparent" points="663,-490.7 663,-513.7 834,-513.7 834,-490.7 663,-490.7"/>
<polygon fill="none" stroke="#000000" points="663,-490.7 663,-513.7 834,-513.7 834,-490.7 663,-490.7"/>
<text text-anchor="start" x="668" y="-499.3" font-family="Helvetica,sans-Serif" font-weight="bold" font-size="11.00" fill="#000000">reference_data_link</text>
<text text-anchor="start" x="799.5219" y="-498.8" font-family="Helvetica,sans-Serif" font-size="11.00" fill="#000000">[table]</text>
<polygon fill="none" stroke="#000000" points="663,-468.7 663,-490.7 834,-490.7 834,-468.7 663,-468.7"/>
<image xlink:href="../../images/primaryKeys.png" width="11px" height="12px" preserveAspectRatio="xMinYMin meet" x="668" y="-485.7"/>
<text text-anchor="start" x="691" y="-475.8" font-family="Helvetica,sans-Serif" font-size="11.00" fill="#000000">id</text>
<polygon fill="#ffffff" stroke="transparent" points="663,-446.7 663,-468.7 834,-468.7 834,-446.7 663,-446.7"/>
<polygon fill="none" stroke="#000000" points="663,-446.7 663,-468.7 834,-468.7 834,-446.7 663,-446.7"/>
<image xlink:href="../../images/foreignKeys.png" width="11px" height="12px" preserveAspectRatio="xMinYMin meet" x="668" y="-463.7"/>
<text text-anchor="start" x="691" y="-453.8" font-family="Helvetica,sans-Serif" font-size="11.00" fill="#000000">reference_data_id_1</text>
<polygon fill="none" stroke="#000000" points="663,-424.7 663,-446.7 834,-446.7 834,-424.7 663,-424.7"/>
<image xlink:href="../../images/foreignKeys.png" width="11px" height="12px" preserveAspectRatio="xMinYMin meet" x="668" y="-441.7"/>
<text text-anchor="start" x="691" y="-431.8" font-family="Helvetica,sans-Serif" font-size="11.00" fill="#000000">reference_data_id_2</text>
<polygon fill="#ffffff" stroke="transparent" points="663,-402.7 663,-424.7 834,-424.7 834,-402.7 663,-402.7"/>
<polygon fill="none" stroke="#000000" points="663,-402.7 663,-424.7 834,-424.7 834,-402.7 663,-402.7"/>
<text text-anchor="start" x="691" y="-409.8" font-family="Helvetica,sans-Serif" font-size="11.00" fill="#000000">sequence_number</text>
<polygon fill="#ffffff" stroke="transparent" points="663,-383.7 663,-402.7 731,-402.7 731,-383.7 663,-383.7"/>
<polygon fill="none" stroke="#000000" points="663,-383.7 663,-402.7 731,-402.7 731,-383.7 663,-383.7"/>
<text text-anchor="start" x="666" y="-389.8" font-family="Helvetica,sans-Serif" font-size="11.00" fill="#000000">&lt; 2</text>
<polygon fill="#ffffff" stroke="transparent" points="731,-383.7 731,-402.7 798,-402.7 798,-383.7 731,-383.7"/>
<polygon fill="none" stroke="#000000" points="731,-383.7 731,-402.7 798,-402.7 798,-383.7 731,-383.7"/>
<text text-anchor="start" x="756.4956" y="-389.8" font-family="Helvetica,sans-Serif" font-size="11.00" fill="#000000">69 rows</text>
<polygon fill="#ffffff" stroke="transparent" points="798,-383.7 798,-402.7 834,-402.7 834,-383.7 798,-383.7"/>
<polygon fill="none" stroke="#000000" points="798,-383.7 798,-402.7 834,-402.7 834,-383.7 798,-383.7"/>
<text text-anchor="start" x="824.8862" y="-389.8" font-family="Helvetica,sans-Serif" font-size="11.00" fill="#000000"> &#160;</text>
</a>
</g>
</g>
<!-- reference_data_link&#45;&gt;reference_data -->
<g id="edge4" class="edge">
<title>reference_data_link:w&#45;&gt;reference_data:e</title>
<path fill="none" stroke="#000000" d="M648.4495,-456.3576C566.6929,-440.2552 610.2234,-284.7 514,-284.7"/>
<polygon fill="#000000" stroke="#000000" points="655.0338,-456.965 662.6693,-461.2848 659.0169,-457.3325 663,-457.7 663,-457.7 663,-457.7 659.0169,-457.3325 663.3307,-454.1152 655.0338,-456.965 655.0338,-456.965"/>
<ellipse fill="none" stroke="#000000" cx="651.8474" cy="-456.671" rx="3.2" ry="3.2"/>
</g>
<!-- reference_data_link&#45;&gt;reference_data -->
<g id="edge5" class="edge">
<title>reference_data_link:w&#45;&gt;reference_data:e</title>
<path fill="none" stroke="#000000" d="M648.2188,-434.3016C572.7697,-419.079 602.9428,-284.7 514,-284.7"/>
<polygon fill="#000000" stroke="#000000" points="655.0356,-434.9464 662.6609,-439.284 659.0178,-435.3232 663,-435.7 663,-435.7 663,-435.7 659.0178,-435.3232 663.3391,-432.116 655.0356,-434.9464 655.0356,-434.9464"/>
<ellipse fill="none" stroke="#000000" cx="651.8498" cy="-434.645" rx="3.2" ry="3.2"/>
</g>
<!-- temporary_absence_authorisation -->
<g id="node5" class="node">
<title>temporary_absence_authorisation</title>
<g id="a_node5"><a xlink:href="../../tables/temporary_absence_authorisation.html" xlink:title="temporary_absence_authorisation" target="_top">
<polygon fill="#ffffff" stroke="transparent" points="614,-163.2 614,-224.2 882,-224.2 882,-163.2 614,-163.2"/>
<polygon fill="#f5f5f5" stroke="transparent" points="614,-200.7 614,-223.7 882,-223.7 882,-200.7 614,-200.7"/>
<polygon fill="none" stroke="#000000" points="614,-200.7 614,-223.7 882,-223.7 882,-200.7 614,-200.7"/>
<text text-anchor="start" x="619" y="-209.3" font-family="Helvetica,sans-Serif" font-weight="bold" font-size="11.00" fill="#000000">temporary_absence_authorisation</text>
<text text-anchor="start" x="847.5219" y="-208.8" font-family="Helvetica,sans-Serif" font-size="11.00" fill="#000000">[table]</text>
<polygon fill="none" stroke="#000000" points="614,-181.7 614,-200.7 882,-200.7 882,-181.7 614,-181.7"/>
<text text-anchor="start" x="617" y="-187.8" font-family="Helvetica,sans-Serif" font-size="11.00" fill="#000000">...</text>
<polygon fill="#ffffff" stroke="transparent" points="614,-162.7 614,-181.7 742,-181.7 742,-162.7 614,-162.7"/>
<polygon fill="none" stroke="#000000" points="614,-162.7 614,-181.7 742,-181.7 742,-162.7 614,-162.7"/>
<text text-anchor="start" x="617" y="-168.8" font-family="Helvetica,sans-Serif" font-size="11.00" fill="#000000">&lt; 7</text>
<polygon fill="#ffffff" stroke="transparent" points="742,-162.7 742,-181.7 807,-181.7 807,-162.7 742,-162.7"/>
<polygon fill="none" stroke="#000000" points="742,-162.7 742,-181.7 807,-181.7 807,-162.7 742,-162.7"/>
<text text-anchor="start" x="797.8862" y="-168.8" font-family="Helvetica,sans-Serif" font-size="11.00" fill="#000000"> &#160;</text>
<polygon fill="#ffffff" stroke="transparent" points="807,-162.7 807,-181.7 882,-181.7 882,-162.7 807,-162.7"/>
<polygon fill="none" stroke="#000000" points="807,-162.7 807,-181.7 882,-181.7 882,-162.7 807,-162.7"/>
<text text-anchor="start" x="863.4053" y="-168.8" font-family="Helvetica,sans-Serif" font-size="11.00" fill="#000000">1 &gt;</text>
</a>
</g>
</g>
<!-- temporary_absence_authorisation&#45;&gt;reference_data -->
<g id="edge6" class="edge">
<title>temporary_absence_authorisation:w&#45;&gt;reference_data:e</title>
<path fill="none" stroke="#000000" d="M592.2056,-213.411C562.0817,-230.8798 554.2003,-256.5604 514,-284.7"/>
<polygon fill="#000000" stroke="#000000" points="598.3197,-210.4186 607.0878,-210.1354 601.9125,-208.6602 605.5053,-206.9019 605.5053,-206.9019 605.5053,-206.9019 601.9125,-208.6602 603.9228,-203.6684 598.3197,-210.4186 598.3197,-210.4186"/>
<ellipse fill="none" stroke="#000000" cx="595.4455" cy="-211.8253" rx="3.2" ry="3.2"/>
</g>
<!-- temporary_absence_authorisation&#45;&gt;reference_data -->
<g id="edge7" class="edge">
<title>temporary_absence_authorisation:w&#45;&gt;reference_data:e</title>
<path fill="none" stroke="#000000" d="M592.2056,-226.3881C562.0817,-243.6906 554.2003,-267.9921 514,-284.7"/>
<polygon fill="#000000" stroke="#000000" points="598.3149,-223.4087 607.0834,-223.1376 601.9101,-221.6553 605.5053,-219.9019 605.5053,-219.9019 605.5053,-219.9019 601.9101,-221.6553 603.9272,-216.6662 598.3149,-223.4087 598.3149,-223.4087"/>
<ellipse fill="none" stroke="#000000" cx="595.4387" cy="-224.8114" rx="3.2" ry="3.2"/>
</g>
<!-- temporary_absence_authorisation&#45;&gt;reference_data -->
<g id="edge8" class="edge">
<title>temporary_absence_authorisation:w&#45;&gt;reference_data:e</title>
<path fill="none" stroke="#000000" d="M603.9996,-234.2232C562.594,-254.8745 555.6079,-279.2391 514,-284.7"/>
<polygon fill="#000000" stroke="#000000" points="610.0355,-231.5139 618.8082,-231.5222 613.6847,-229.8759 617.3339,-228.2379 617.3339,-228.2379 617.3339,-228.2379 613.6847,-229.8759 615.8597,-224.9535 610.0355,-231.5139 610.0355,-231.5139"/>
<ellipse fill="none" stroke="#000000" cx="607.1161" cy="-232.8243" rx="3.2" ry="3.2"/>
</g>
<!-- temporary_absence_authorisation&#45;&gt;reference_data -->
<g id="edge9" class="edge">
<title>temporary_absence_authorisation:w&#45;&gt;reference_data:e</title>
<path fill="none" stroke="#000000" d="M639.4384,-233.123C628.0584,-237.1398 616.7339,-241.347 606,-245.7 563.6359,-262.8801 559.7152,-291.7 514,-284.7"/>
<polygon fill="#000000" stroke="#000000" points="645.7511,-230.9379 654.4887,-231.7229 649.5311,-229.6294 653.311,-228.3209 653.311,-228.3209 653.311,-228.3209 649.5311,-229.6294 652.1334,-224.919 645.7511,-230.9379 645.7511,-230.9379"/>
<ellipse fill="none" stroke="#000000" cx="642.7272" cy="-231.9847" rx="3.2" ry="3.2"/>
</g>
<!-- temporary_absence_authorisation&#45;&gt;reference_data -->
<g id="edge10" class="edge">
<title>temporary_absence_authorisation:w&#45;&gt;reference_data:e</title>
<path fill="none" stroke="#000000" d="M675.8314,-233.2044C653.21,-241.2216 628.3271,-249.6456 606,-258.7 563.6359,-275.8801 559.7152,-304.7 514,-284.7"/>
<polygon fill="#000000" stroke="#000000" points="682.0525,-230.9687 690.7986,-231.651 685.8168,-229.6159 689.5811,-228.2631 689.5811,-228.2631 689.5811,-228.2631 685.8168,-229.6159 688.3636,-224.8753 682.0525,-230.9687 682.0525,-230.9687"/>
<ellipse fill="none" stroke="#000000" cx="679.041" cy="-232.051" rx="3.2" ry="3.2"/>
</g>
<!-- temporary_absence_authorisation&#45;&gt;reference_data -->
<g id="edge12" class="edge">
<title>temporary_absence_authorisation:w&#45;&gt;reference_data:e</title>
<path fill="none" stroke="#000000" d="M702.538,-234.6169C674.3513,-247.323 637.6137,-258.8795 606,-271.7 563.6359,-288.8801 559.7152,-317.7 514,-284.7"/>
<polygon fill="#000000" stroke="#000000" points="708.4284,-231.7638 717.1976,-231.5164 712.0284,-230.0201 715.6283,-228.2764 715.6283,-228.2764 715.6283,-228.2764 712.0284,-230.0201 714.059,-225.0365 708.4284,-231.7638 708.4284,-231.7638"/>
<ellipse fill="none" stroke="#000000" cx="705.5485" cy="-233.1588" rx="3.2" ry="3.2"/>
</g>
<!-- person_summary -->
<g id="node6" class="node">
<title>person_summary</title>
<g id="a_node6"><a xlink:href="../../tables/person_summary.html" xlink:title="person_summary" target="_top">
<polygon fill="#ffffff" stroke="transparent" points="332,-38.2 332,-99.2 486,-99.2 486,-38.2 332,-38.2"/>
<polygon fill="#f5f5f5" stroke="transparent" points="332,-75.7 332,-98.7 486,-98.7 486,-75.7 332,-75.7"/>
<polygon fill="none" stroke="#000000" points="332,-75.7 332,-98.7 486,-98.7 486,-75.7 332,-75.7"/>
<text text-anchor="start" x="337" y="-84.3" font-family="Helvetica,sans-Serif" font-weight="bold" font-size="11.00" fill="#000000">person_summary</text>
<text text-anchor="start" x="451.5219" y="-83.8" font-family="Helvetica,sans-Serif" font-size="11.00" fill="#000000">[table]</text>
<polygon fill="none" stroke="#000000" points="332,-56.7 332,-75.7 486,-75.7 486,-56.7 332,-56.7"/>
<text text-anchor="start" x="335" y="-62.8" font-family="Helvetica,sans-Serif" font-size="11.00" fill="#000000">...</text>
<polygon fill="#ffffff" stroke="transparent" points="332,-37.7 332,-56.7 398,-56.7 398,-37.7 332,-37.7"/>
<polygon fill="none" stroke="#000000" points="332,-37.7 332,-56.7 398,-56.7 398,-37.7 332,-37.7"/>
<text text-anchor="start" x="335" y="-43.8" font-family="Helvetica,sans-Serif" font-size="11.00" fill="#000000"> &#160;</text>
<polygon fill="#ffffff" stroke="transparent" points="398,-37.7 398,-56.7 437,-56.7 437,-37.7 398,-37.7"/>
<polygon fill="none" stroke="#000000" points="398,-37.7 398,-56.7 437,-56.7 437,-37.7 398,-37.7"/>
<text text-anchor="start" x="427.8862" y="-43.8" font-family="Helvetica,sans-Serif" font-size="11.00" fill="#000000"> &#160;</text>
<polygon fill="#ffffff" stroke="transparent" points="437,-37.7 437,-56.7 486,-56.7 486,-37.7 437,-37.7"/>
<polygon fill="none" stroke="#000000" points="437,-37.7 437,-56.7 486,-56.7 486,-37.7 437,-37.7"/>
<text text-anchor="start" x="467.4053" y="-43.8" font-family="Helvetica,sans-Serif" font-size="11.00" fill="#000000">2 &gt;</text>
</a>
</g>
</g>
<!-- temporary_absence_authorisation&#45;&gt;person_summary -->
<g id="edge11" class="edge">
<title>temporary_absence_authorisation:w&#45;&gt;person_summary:e</title>
<path fill="none" stroke="#000000" d="M671.8334,-152.2319C601.867,-114.8455 506.0759,-65.7 486,-65.7"/>
<polygon fill="#000000" stroke="#000000" points="677.5223,-155.2815 682.8722,-162.2342 681.0477,-157.1714 684.5731,-159.0614 684.5731,-159.0614 684.5731,-159.0614 681.0477,-157.1714 686.274,-155.8885 677.5223,-155.2815 677.5223,-155.2815"/>
<ellipse fill="none" stroke="#000000" cx="674.702" cy="-153.7696" rx="3.2" ry="3.2"/>
</g>
<!-- temporary_absence_movement -->
<g id="node7" class="node">
<title>temporary_absence_movement</title>
<g id="a_node7"><a xlink:href="../../tables/temporary_absence_movement.html" xlink:title="temporary_absence_movement" target="_top">
<polygon fill="#ffffff" stroke="transparent" points="1232,-288.2 1232,-349.2 1481,-349.2 1481,-288.2 1232,-288.2"/>
<polygon fill="#f5f5f5" stroke="transparent" points="1232.5,-325.7 1232.5,-348.7 1481.5,-348.7 1481.5,-325.7 1232.5,-325.7"/>
<polygon fill="none" stroke="#000000" points="1232.5,-325.7 1232.5,-348.7 1481.5,-348.7 1481.5,-325.7 1232.5,-325.7"/>
<text text-anchor="start" x="1237.5" y="-334.3" font-family="Helvetica,sans-Serif" font-weight="bold" font-size="11.00" fill="#000000">temporary_absence_movement</text>
<text text-anchor="start" x="1447.0219" y="-333.8" font-family="Helvetica,sans-Serif" font-size="11.00" fill="#000000">[table]</text>
<polygon fill="none" stroke="#000000" points="1232.5,-306.7 1232.5,-325.7 1481.5,-325.7 1481.5,-306.7 1232.5,-306.7"/>
<text text-anchor="start" x="1235.5" y="-312.8" font-family="Helvetica,sans-Serif" font-size="11.00" fill="#000000">...</text>
<polygon fill="#ffffff" stroke="transparent" points="1232.5,-287.7 1232.5,-306.7 1355.5,-306.7 1355.5,-287.7 1232.5,-287.7"/>
<polygon fill="none" stroke="#000000" points="1232.5,-287.7 1232.5,-306.7 1355.5,-306.7 1355.5,-287.7 1232.5,-287.7"/>
<text text-anchor="start" x="1235.5" y="-293.8" font-family="Helvetica,sans-Serif" font-size="11.00" fill="#000000">&lt; 4</text>
<polygon fill="#ffffff" stroke="transparent" points="1355.5,-287.7 1355.5,-306.7 1418.5,-306.7 1418.5,-287.7 1355.5,-287.7"/>
<polygon fill="none" stroke="#000000" points="1355.5,-287.7 1355.5,-306.7 1418.5,-306.7 1418.5,-287.7 1355.5,-287.7"/>
<text text-anchor="start" x="1409.3862" y="-293.8" font-family="Helvetica,sans-Serif" font-size="11.00" fill="#000000"> &#160;</text>
<polygon fill="#ffffff" stroke="transparent" points="1418.5,-287.7 1418.5,-306.7 1481.5,-306.7 1481.5,-287.7 1418.5,-287.7"/>
<polygon fill="none" stroke="#000000" points="1418.5,-287.7 1418.5,-306.7 1481.5,-306.7 1481.5,-287.7 1418.5,-287.7"/>
<text text-anchor="start" x="1472.3862" y="-293.8" font-family="Helvetica,sans-Serif" font-size="11.00" fill="#000000"> &#160;</text>
</a>
</g>
</g>
<!-- temporary_absence_movement&#45;&gt;reference_data -->
<g id="edge13" class="edge">
<title>temporary_absence_movement:w&#45;&gt;reference_data:e</title>
<path fill="none" stroke="#000000" d="M1209.2522,-319.1258C1203.0866,-319.33 1196.9827,-319.5238 1191,-319.7 931.1032,-327.3537 859.054,-384.4379 606,-324.7 561.5078,-314.1968 559.7152,-278.7 514,-284.7"/>
<polygon fill="#000000" stroke="#000000" points="1215.7279,-318.9058 1223.8456,-322.232 1219.7256,-318.7699 1223.7233,-318.634 1223.7233,-318.634 1223.7233,-318.634 1219.7256,-318.7699 1223.601,-315.0361 1215.7279,-318.9058 1215.7279,-318.9058"/>
<ellipse fill="none" stroke="#000000" cx="1212.5297" cy="-319.0145" rx="3.2" ry="3.2"/>
</g>
<!-- temporary_absence_movement&#45;&gt;reference_data -->
<g id="edge14" class="edge">
<title>temporary_absence_movement:w&#45;&gt;reference_data:e</title>
<path fill="none" stroke="#000000" d="M1209.2522,-332.1189C1203.0866,-332.33 1196.9827,-332.5238 1191,-332.7 931.1032,-340.3537 859.054,-397.4379 606,-337.7 561.5078,-327.1968 559.7152,-291.7 514,-284.7"/>
<polygon fill="#000000" stroke="#000000" points="1215.7285,-331.8844 1223.8536,-335.1924 1219.7259,-331.7396 1223.7233,-331.5948 1223.7233,-331.5948 1223.7233,-331.5948 1219.7259,-331.7396 1223.5929,-327.9972 1215.7285,-331.8844 1215.7285,-331.8844"/>
<ellipse fill="none" stroke="#000000" cx="1212.5306" cy="-332.0002" rx="3.2" ry="3.2"/>
</g>
<!-- temporary_absence_movement&#45;&gt;person_summary -->
<g id="edge16" class="edge">
<title>temporary_absence_movement:w&#45;&gt;person_summary:e</title>
<path fill="none" stroke="#000000" d="M1274.4538,-277.8989C1122.7396,-206.3342 786.3864,-65.7 486,-65.7"/>
<polygon fill="#000000" stroke="#000000" points="1280.4542,-280.7503 1286.1347,-287.4356 1284.0671,-282.4672 1287.6799,-284.1841 1287.6799,-284.1841 1287.6799,-284.1841 1284.0671,-282.4672 1289.2251,-280.9325 1280.4542,-280.7503 1280.4542,-280.7503"/>
<ellipse fill="none" stroke="#000000" cx="1277.564" cy="-279.3768" rx="3.2" ry="3.2"/>
</g>
<!-- temporary_absence_occurrence -->
<g id="node8" class="node">
<title>temporary_absence_occurrence</title>
<g id="a_node8"><a xlink:href="../../tables/temporary_absence_occurrence.html" xlink:title="temporary_absence_occurrence" target="_top">
<polygon fill="#ffffff" stroke="transparent" points="931,-254.2 931,-315.2 1183,-315.2 1183,-254.2 931,-254.2"/>
<polygon fill="#f5f5f5" stroke="transparent" points="931,-291.7 931,-314.7 1183,-314.7 1183,-291.7 931,-291.7"/>
<polygon fill="none" stroke="#000000" points="931,-291.7 931,-314.7 1183,-314.7 1183,-291.7 931,-291.7"/>
<text text-anchor="start" x="936" y="-300.3" font-family="Helvetica,sans-Serif" font-weight="bold" font-size="11.00" fill="#000000">temporary_absence_occurrence</text>
<text text-anchor="start" x="1148.5219" y="-299.8" font-family="Helvetica,sans-Serif" font-size="11.00" fill="#000000">[table]</text>
<polygon fill="none" stroke="#000000" points="931,-272.7 931,-291.7 1183,-291.7 1183,-272.7 931,-272.7"/>
<text text-anchor="start" x="934" y="-278.8" font-family="Helvetica,sans-Serif" font-size="11.00" fill="#000000">...</text>
<polygon fill="#ffffff" stroke="transparent" points="931,-253.7 931,-272.7 1051,-272.7 1051,-253.7 931,-253.7"/>
<polygon fill="none" stroke="#000000" points="931,-253.7 931,-272.7 1051,-272.7 1051,-253.7 931,-253.7"/>
<text text-anchor="start" x="934" y="-259.8" font-family="Helvetica,sans-Serif" font-size="11.00" fill="#000000">&lt; 8</text>
<polygon fill="#ffffff" stroke="transparent" points="1051,-253.7 1051,-272.7 1112,-272.7 1112,-253.7 1051,-253.7"/>
<polygon fill="none" stroke="#000000" points="1051,-253.7 1051,-272.7 1112,-272.7 1112,-253.7 1051,-253.7"/>
<text text-anchor="start" x="1102.8862" y="-259.8" font-family="Helvetica,sans-Serif" font-size="11.00" fill="#000000"> &#160;</text>
<polygon fill="#ffffff" stroke="transparent" points="1112,-253.7 1112,-272.7 1183,-272.7 1183,-253.7 1112,-253.7"/>
<polygon fill="none" stroke="#000000" points="1112,-253.7 1112,-272.7 1183,-272.7 1183,-253.7 1112,-253.7"/>
<text text-anchor="start" x="1164.4053" y="-259.8" font-family="Helvetica,sans-Serif" font-size="11.00" fill="#000000">1 &gt;</text>
</a>
</g>
</g>
<!-- temporary_absence_movement&#45;&gt;temporary_absence_occurrence -->
<g id="edge15" class="edge">
<title>temporary_absence_movement:w&#45;&gt;temporary_absence_occurrence:e</title>
<path fill="none" stroke="#000000" d="M1209.3528,-301.9955C1203.3301,-301.3118 1197.3019,-300.6274 1191.307,-299.9469"/>
<polygon fill="#000000" stroke="#000000" points="1215.8781,-302.7362 1223.4209,-307.2157 1219.8525,-303.1874 1223.827,-303.6386 1223.827,-303.6386 1223.827,-303.6386 1219.8525,-303.1874 1224.2331,-300.0616 1215.8781,-302.7362 1215.8781,-302.7362"/>
<ellipse fill="none" stroke="#000000" cx="1212.6985" cy="-302.3752" rx="3.2" ry="3.2"/>
</g>
<!-- temporary_absence_occurrence&#45;&gt;reference_data -->
<g id="edge17" class="edge">
<title>temporary_absence_occurrence:w&#45;&gt;reference_data:e</title>
<path fill="none" stroke="#000000" d="M908.396,-255.7764C799.2643,-253.499 647.413,-263.1402 514,-284.7"/>
<polygon fill="#000000" stroke="#000000" points="914.8343,-255.9453 922.7371,-259.754 918.8329,-256.0502 922.8315,-256.1552 922.8315,-256.1552 922.8315,-256.1552 918.8329,-256.0502 922.926,-252.5565 914.8343,-255.9453 914.8343,-255.9453"/>
<ellipse fill="none" stroke="#000000" cx="911.6354" cy="-255.8613" rx="3.2" ry="3.2"/>
</g>
<!-- temporary_absence_occurrence&#45;&gt;reference_data -->
<g id="edge18" class="edge">
<title>temporary_absence_occurrence:w&#45;&gt;reference_data:e</title>
<path fill="none" stroke="#000000" d="M908.396,-265.4176C799.2643,-263.8993 647.413,-270.3268 514,-284.7"/>
<polygon fill="#000000" stroke="#000000" points="914.8327,-265.5301 922.7685,-269.2696 918.8321,-265.6001 922.8315,-265.6701 922.8315,-265.6701 922.8315,-265.6701 918.8321,-265.6001 922.8945,-262.0707 914.8327,-265.5301 914.8327,-265.5301"/>
<ellipse fill="none" stroke="#000000" cx="911.6332" cy="-265.4741" rx="3.2" ry="3.2"/>
</g>
<!-- temporary_absence_occurrence&#45;&gt;reference_data -->
<g id="edge19" class="edge">
<title>temporary_absence_occurrence:w&#45;&gt;reference_data:e</title>
<path fill="none" stroke="#000000" d="M908.396,-275.0588C799.2643,-274.2997 647.413,-277.5134 514,-284.7"/>
<polygon fill="#000000" stroke="#000000" points="914.8318,-275.115 922.8,-278.7849 918.8317,-275.1501 922.8315,-275.1851 922.8315,-275.1851 922.8315,-275.1851 918.8317,-275.1501 922.863,-271.5852 914.8318,-275.115 914.8318,-275.115"/>
<ellipse fill="none" stroke="#000000" cx="911.632" cy="-275.087" rx="3.2" ry="3.2"/>
</g>
<!-- temporary_absence_occurrence&#45;&gt;reference_data -->
<g id="edge20" class="edge">
<title>temporary_absence_occurrence:w&#45;&gt;reference_data:e</title>
<path fill="none" stroke="#000000" d="M908.396,-284.7C799.2643,-284.7 647.413,-284.7 514,-284.7"/>
<polygon fill="#000000" stroke="#000000" points="914.8315,-284.7001 922.8315,-288.3 918.8315,-284.7 922.8315,-284.7 922.8315,-284.7 922.8315,-284.7 918.8315,-284.7 922.8315,-281.1 914.8315,-284.7001 914.8315,-284.7001"/>
<ellipse fill="none" stroke="#000000" cx="911.6315" cy="-284.7001" rx="3.2" ry="3.2"/>
</g>
<!-- temporary_absence_occurrence&#45;&gt;reference_data -->
<g id="edge21" class="edge">
<title>temporary_absence_occurrence:w&#45;&gt;reference_data:e</title>
<path fill="none" stroke="#000000" d="M908.396,-294.3412C799.2643,-295.1003 647.413,-291.8866 514,-284.7"/>
<polygon fill="#000000" stroke="#000000" points="914.8318,-294.285 922.863,-297.8148 918.8317,-294.2499 922.8315,-294.2149 922.8315,-294.2149 922.8315,-294.2149 918.8317,-294.2499 922.8,-290.6151 914.8318,-294.285 914.8318,-294.285"/>
<ellipse fill="none" stroke="#000000" cx="911.632" cy="-294.313" rx="3.2" ry="3.2"/>
</g>
<!-- temporary_absence_occurrence&#45;&gt;reference_data -->
<g id="edge23" class="edge">
<title>temporary_absence_occurrence:w&#45;&gt;reference_data:e</title>
<path fill="none" stroke="#000000" d="M908.396,-303.9824C799.2643,-305.5007 647.413,-299.0732 514,-284.7"/>
<polygon fill="#000000" stroke="#000000" points="914.8327,-303.8699 922.8945,-307.3293 918.8321,-303.7999 922.8315,-303.7299 922.8315,-303.7299 922.8315,-303.7299 918.8321,-303.7999 922.7685,-300.1304 914.8327,-303.8699 914.8327,-303.8699"/>
<ellipse fill="none" stroke="#000000" cx="911.6332" cy="-303.9259" rx="3.2" ry="3.2"/>
</g>
<!-- temporary_absence_occurrence&#45;&gt;reference_data -->
<g id="edge24" class="edge">
<title>temporary_absence_occurrence:w&#45;&gt;reference_data:e</title>
<path fill="none" stroke="#000000" d="M908.396,-313.6236C799.2643,-315.901 647.413,-306.2598 514,-284.7"/>
<polygon fill="#000000" stroke="#000000" points="914.8343,-313.4547 922.926,-316.8435 918.8329,-313.3498 922.8315,-313.2448 922.8315,-313.2448 922.8315,-313.2448 918.8329,-313.3498 922.7371,-309.646 914.8343,-313.4547 914.8343,-313.4547"/>
<ellipse fill="none" stroke="#000000" cx="911.6354" cy="-313.5387" rx="3.2" ry="3.2"/>
</g>
<!-- temporary_absence_occurrence&#45;&gt;temporary_absence_authorisation -->
<g id="edge22" class="edge">
<title>temporary_absence_occurrence:w&#45;&gt;temporary_absence_authorisation:e</title>
<path fill="none" stroke="#000000" d="M925.8849,-246.0868C905.7217,-240.1488 885.0145,-234.0506 865.1802,-228.2094"/>
<polygon fill="#000000" stroke="#000000" points="932.0656,-247.907 938.7227,-253.6204 935.9027,-249.037 939.7398,-250.167 939.7398,-250.167 939.7398,-250.167 935.9027,-249.037 940.7568,-246.7137 932.0656,-247.907 932.0656,-247.907"/>
<ellipse fill="none" stroke="#000000" cx="928.996" cy="-247.003" rx="3.2" ry="3.2"/>
</g>
<!-- tap.absence_categorisation_domain_link -->
<g id="node9" class="node">
<title>tap.absence_categorisation_domain_link</title>
<g id="a_node9"><a xlink:title="tap.absence_categorisation_domain_link">
<polygon fill="#ffffff" stroke="transparent" points="253,-479.2 253,-540.2 565,-540.2 565,-479.2 253,-479.2"/>
<polygon fill="#f5f5f5" stroke="transparent" points="253,-516.7 253,-539.7 565,-539.7 565,-516.7 253,-516.7"/>
<polygon fill="none" stroke="#000000" points="253,-516.7 253,-539.7 565,-539.7 565,-516.7 253,-516.7"/>
<text text-anchor="start" x="258" y="-525.3" font-family="Helvetica,sans-Serif" font-weight="bold" font-size="11.00" fill="#000000">tap.absence_categorisation_domain_link</text>
<text text-anchor="start" x="530.5219" y="-524.8" font-family="Helvetica,sans-Serif" font-size="11.00" fill="#000000">[table]</text>
<polygon fill="none" stroke="#000000" points="253,-497.7 253,-516.7 565,-516.7 565,-497.7 253,-497.7"/>
<text text-anchor="start" x="256" y="-503.8" font-family="Helvetica,sans-Serif" font-size="11.00" fill="#000000">...</text>
<polygon fill="#ffffff" stroke="transparent" points="253,-478.7 253,-497.7 394,-497.7 394,-478.7 253,-478.7"/>
<polygon fill="none" stroke="#000000" points="253,-478.7 253,-497.7 394,-497.7 394,-478.7 253,-478.7"/>
<text text-anchor="start" x="256" y="-484.8" font-family="Helvetica,sans-Serif" font-size="11.00" fill="#000000">&lt; 1</text>
<polygon fill="#ffffff" stroke="transparent" points="394,-478.7 394,-497.7 492,-497.7 492,-478.7 394,-478.7"/>
<polygon fill="none" stroke="#000000" points="394,-478.7 394,-497.7 492,-497.7 492,-478.7 394,-478.7"/>
<text text-anchor="start" x="456.6105" y="-484.8" font-family="Helvetica,sans-Serif" font-size="11.00" fill="#000000">0 rows</text>
<polygon fill="#ffffff" stroke="transparent" points="492,-478.7 492,-497.7 565,-497.7 565,-478.7 492,-478.7"/>
<polygon fill="none" stroke="#000000" points="492,-478.7 492,-497.7 565,-497.7 565,-478.7 492,-478.7"/>
<text text-anchor="start" x="555.8862" y="-484.8" font-family="Helvetica,sans-Serif" font-size="11.00" fill="#000000"> &#160;</text>
</a>
</g>
</g>
<!-- tap.absence_categorisation_domain_link&#45;&gt;reference_data_domain -->
<g id="edge25" class="edge">
<title>tap.absence_categorisation_domain_link:w&#45;&gt;reference_data_domain:e</title>
<path fill="none" stroke="#000000" d="M238.3867,-505.9745C216.0513,-503.8205 193.4733,-497.1188 173.4434,-489.2401"/>
<polygon fill="#000000" stroke="#000000" points="245.0098,-506.3033 252.8215,-510.2956 249.0049,-506.5016 253,-506.7 253,-506.7 253,-506.7 249.0049,-506.5016 253.1785,-503.1044 245.0098,-506.3033 245.0098,-506.3033"/>
<ellipse fill="none" stroke="#000000" cx="241.8138" cy="-506.1446" rx="3.2" ry="3.2"/>
</g>
</g>
</svg>
