<?xml version="1.0" encoding="UTF-8" standalone="no"?>
<!DOCTYPE svg PUBLIC "-//W3C//DTD SVG 1.1//EN"
 "http://www.w3.org/Graphics/SVG/1.1/DTD/svg11.dtd">
<!-- Generated by graphviz version 2.40.1 (20161225.0304)
 -->
<!-- Title: oneDegreeRelationshipsDiagram Pages: 1 -->
<svg width="1101pt" height="898pt"
 viewBox="0.00 0.00 1101.00 898.20" xmlns="http://www.w3.org/2000/svg" xmlns:xlink="http://www.w3.org/1999/xlink">
<g id="graph0" class="graph" transform="scale(1 1) rotate(0) translate(4 894.1992)">
<title>oneDegreeRelationshipsDiagram</title>
<polygon fill="#ffffff" stroke="transparent" points="-4,4 -4,-894.1992 1097,-894.1992 1097,4 -4,4"/>
<text text-anchor="middle" x="72.4936" y="-7.3" font-family="Helvetica,sans-Serif" font-size="11.00" fill="#000000">Generated by SchemaSpy</text>
<!-- reference_data -->
<g id="node1" class="node">
<title>reference_data</title>
<g id="a_node1"><a xlink:href="../../tables/reference_data.html" xlink:title="reference_data" target="_top">
<polygon fill="#ffffff" stroke="transparent" points="253,-267.1992 253,-467.1992 467,-467.1992 467,-267.1992 253,-267.1992"/>
<polygon fill="#f5f5f5" stroke="transparent" points="255,-442.1992 255,-465.1992 465,-465.1992 465,-442.1992 255,-442.1992"/>
<polygon fill="none" stroke="#000000" points="255,-442.1992 255,-465.1992 465,-465.1992 465,-442.1992 255,-442.1992"/>
<text text-anchor="start" x="260" y="-450.7992" font-family="Helvetica,sans-Serif" font-weight="bold" font-size="11.00" fill="#000000">reference_data</text>
<text text-anchor="start" x="430.0437" y="-450.2992" font-family="Helvetica,sans-Serif" font-size="11.00" fill="#000000">[table]</text>
<polygon fill="none" stroke="#000000" points="255,-420.1992 255,-442.1992 398,-442.1992 398,-420.1992 255,-420.1992"/>
<image xlink:href="../../images/primaryKeys.png" width="11px" height="12px" preserveAspectRatio="xMinYMin meet" x="260" y="-437.199"/>
<text text-anchor="start" x="275" y="-427.2992" font-family="Helvetica,sans-Serif" font-size="11.00" fill="#000000">id</text>
<polygon fill="none" stroke="#000000" points="398,-420.1992 398,-442.1992 465,-442.1992 465,-420.1992 398,-420.1992"/>
<text text-anchor="start" x="401" y="-427.8992" font-family="Helvetica,sans-Serif" font-size="11.00" fill="#000000">bigserial[19]</text>
<polygon fill="#ffffff" stroke="transparent" points="255,-398.1992 255,-420.1992 398,-420.1992 398,-398.1992 255,-398.1992"/>
<polygon fill="none" stroke="#000000" points="255,-398.1992 255,-420.1992 398,-420.1992 398,-398.1992 255,-398.1992"/>
<image xlink:href="../../images/foreignKeys.png" width="11px" height="12px" preserveAspectRatio="xMinYMin meet" x="260" y="-415.199"/>
<text text-anchor="start" x="275" y="-405.2992" font-family="Helvetica,sans-Serif" font-size="11.00" fill="#000000">domain</text>
<polygon fill="none" stroke="#000000" points="398,-398.1992 398,-420.1992 465,-420.1992 465,-398.1992 398,-398.1992"/>
<text text-anchor="start" x="401" y="-405.8992" font-family="Helvetica,sans-Serif" font-size="11.00" fill="#000000">varchar[32]</text>
<polygon fill="#ffffff" stroke="transparent" points="255,-376.1992 255,-398.1992 398,-398.1992 398,-376.1992 255,-376.1992"/>
<polygon fill="none" stroke="#000000" points="255,-376.1992 255,-398.1992 398,-398.1992 398,-376.1992 255,-376.1992"/>
<text text-anchor="start" x="275" y="-383.2992" font-family="Helvetica,sans-Serif" font-size="11.00" fill="#000000">code</text>
<polygon fill="none" stroke="#000000" points="398,-376.1992 398,-398.1992 465,-398.1992 465,-376.1992 398,-376.1992"/>
<text text-anchor="start" x="401" y="-383.8992" font-family="Helvetica,sans-Serif" font-size="11.00" fill="#000000">varchar[16]</text>
<polygon fill="none" stroke="#000000" points="255,-354.1992 255,-376.1992 398,-376.1992 398,-354.1992 255,-354.1992"/>
<text text-anchor="start" x="275" y="-361.2992" font-family="Helvetica,sans-Serif" font-size="11.00" fill="#000000">description</text>
<polygon fill="none" stroke="#000000" points="398,-354.1992 398,-376.1992 465,-376.1992 465,-354.1992 398,-354.1992"/>
<text text-anchor="start" x="400.9365" y="-361.8992" font-family="Helvetica,sans-Serif" font-size="11.00" fill="#000000">varchar[255]</text>
<polygon fill="none" stroke="#000000" points="255,-332.1992 255,-354.1992 398,-354.1992 398,-332.1992 255,-332.1992"/>
<text text-anchor="start" x="275" y="-339.2992" font-family="Helvetica,sans-Serif" font-size="11.00" fill="#000000">hint_text</text>
<polygon fill="none" stroke="#000000" points="398,-332.1992 398,-354.1992 465,-354.1992 465,-332.1992 398,-332.1992"/>
<text text-anchor="start" x="400.9365" y="-339.8992" font-family="Helvetica,sans-Serif" font-size="11.00" fill="#000000">varchar[255]</text>
<polygon fill="#ffffff" stroke="transparent" points="255,-310.1992 255,-332.1992 398,-332.1992 398,-310.1992 255,-310.1992"/>
<polygon fill="none" stroke="#000000" points="255,-310.1992 255,-332.1992 398,-332.1992 398,-310.1992 255,-310.1992"/>
<text text-anchor="start" x="275" y="-317.2992" font-family="Helvetica,sans-Serif" font-size="11.00" fill="#000000">sequence_number</text>
<polygon fill="none" stroke="#000000" points="398,-310.1992 398,-332.1992 465,-332.1992 465,-310.1992 398,-310.1992"/>
<text text-anchor="start" x="401" y="-317.8992" font-family="Helvetica,sans-Serif" font-size="11.00" fill="#000000">int4[10]</text>
<polygon fill="none" stroke="#000000" points="255,-288.1992 255,-310.1992 398,-310.1992 398,-288.1992 255,-288.1992"/>
<text text-anchor="start" x="275" y="-295.2992" font-family="Helvetica,sans-Serif" font-size="11.00" fill="#000000">active</text>
<polygon fill="none" stroke="#000000" points="398,-288.1992 398,-310.1992 465,-310.1992 465,-288.1992 398,-288.1992"/>
<text text-anchor="start" x="401" y="-295.8992" font-family="Helvetica,sans-Serif" font-size="11.00" fill="#000000">bool[1]</text>
<polygon fill="#ffffff" stroke="transparent" points="255,-269.1992 255,-288.1992 312,-288.1992 312,-269.1992 255,-269.1992"/>
<polygon fill="none" stroke="#000000" points="255,-269.1992 255,-288.1992 312,-288.1992 312,-269.1992 255,-269.1992"/>
<text text-anchor="start" x="258" y="-275.2992" font-family="Helvetica,sans-Serif" font-size="11.00" fill="#000000">&lt; 1</text>
<polygon fill="#ffffff" stroke="transparent" points="312,-269.1992 312,-288.1992 398,-288.1992 398,-269.1992 312,-269.1992"/>
<polygon fill="none" stroke="#000000" points="312,-269.1992 312,-288.1992 398,-288.1992 398,-269.1992 312,-269.1992"/>
<text text-anchor="start" x="350.3807" y="-275.2992" font-family="Helvetica,sans-Serif" font-size="11.00" fill="#000000">158 rows</text>
<polygon fill="#ffffff" stroke="transparent" points="398,-269.1992 398,-288.1992 465,-288.1992 465,-269.1992 398,-269.1992"/>
<polygon fill="none" stroke="#000000" points="398,-269.1992 398,-288.1992 465,-288.1992 465,-269.1992 398,-269.1992"/>
<text text-anchor="start" x="440.2904" y="-275.2992" font-family="Helvetica,sans-Serif" font-size="11.00" fill="#000000">11 &gt;</text>
<polygon fill="none" stroke="#000000" stroke-width="2" points="254,-268.1992 254,-466.1992 466,-466.1992 466,-268.1992 254,-268.1992"/>
</a>
</g>
</g>
<!-- reference_data_domain -->
<g id="node2" class="node">
<title>reference_data_domain</title>
<g id="a_node2"><a xlink:href="../../tables/reference_data_domain.html" xlink:title="reference_data_domain" target="_top">
<polygon fill="#ffffff" stroke="transparent" points="8,-401.6992 8,-484.6992 204,-484.6992 204,-401.6992 8,-401.6992"/>
<polygon fill="#f5f5f5" stroke="transparent" points="8,-461.1992 8,-484.1992 204,-484.1992 204,-461.1992 8,-461.1992"/>
<polygon fill="none" stroke="#000000" points="8,-461.1992 8,-484.1992 204,-484.1992 204,-461.1992 8,-461.1992"/>
<text text-anchor="start" x="13" y="-469.7992" font-family="Helvetica,sans-Serif" font-weight="bold" font-size="11.00" fill="#000000">reference_data_domain</text>
<text text-anchor="start" x="169.5219" y="-469.2992" font-family="Helvetica,sans-Serif" font-size="11.00" fill="#000000">[table]</text>
<polygon fill="none" stroke="#000000" points="8,-439.1992 8,-461.1992 204,-461.1992 204,-439.1992 8,-439.1992"/>
<image xlink:href="../../images/primaryKeys.png" width="11px" height="12px" preserveAspectRatio="xMinYMin meet" x="13" y="-456.199"/>
<text text-anchor="start" x="37" y="-446.2992" font-family="Helvetica,sans-Serif" font-size="11.00" fill="#000000">code</text>
<polygon fill="none" stroke="#000000" points="8,-420.1992 8,-439.1992 204,-439.1992 204,-420.1992 8,-420.1992"/>
<text text-anchor="start" x="11" y="-426.2992" font-family="Helvetica,sans-Serif" font-size="11.00" fill="#000000">...</text>
<polygon fill="#ffffff" stroke="transparent" points="8,-401.1992 8,-420.1992 95,-420.1992 95,-401.1992 8,-401.1992"/>
<polygon fill="none" stroke="#000000" points="8,-401.1992 8,-420.1992 95,-420.1992 95,-401.1992 8,-401.1992"/>
<text text-anchor="start" x="11" y="-407.2992" font-family="Helvetica,sans-Serif" font-size="11.00" fill="#000000"> &#160;</text>
<polygon fill="#ffffff" stroke="transparent" points="95,-401.1992 95,-420.1992 145,-420.1992 145,-401.1992 95,-401.1992"/>
<polygon fill="none" stroke="#000000" points="95,-401.1992 95,-420.1992 145,-420.1992 145,-401.1992 95,-401.1992"/>
<text text-anchor="start" x="135.8862" y="-407.2992" font-family="Helvetica,sans-Serif" font-size="11.00" fill="#000000"> &#160;</text>
<polygon fill="#ffffff" stroke="transparent" points="145,-401.1992 145,-420.1992 204,-420.1992 204,-401.1992 145,-401.1992"/>
<polygon fill="none" stroke="#000000" points="145,-401.1992 145,-420.1992 204,-420.1992 204,-401.1992 145,-401.1992"/>
<text text-anchor="start" x="185.4053" y="-407.2992" font-family="Helvetica,sans-Serif" font-size="11.00" fill="#000000">2 &gt;</text>
</a>
</g>
</g>
<!-- reference_data&#45;&gt;reference_data_domain -->
<g id="edge1" class="edge">
<title>reference_data:w&#45;&gt;reference_data_domain:e</title>
<path fill="none" stroke="#000000" d="M241.1568,-413.5869C227.3325,-424.1638 227.1756,-450.1992 204,-450.1992"/>
<polygon fill="#000000" stroke="#000000" points="247.3739,-411.6164 256.0877,-412.631 251.1869,-410.4078 255,-409.1992 255,-409.1992 255,-409.1992 251.1869,-410.4078 253.9123,-405.7675 247.3739,-411.6164 247.3739,-411.6164"/>
<ellipse fill="none" stroke="#000000" cx="244.3235" cy="-412.5833" rx="3.2" ry="3.2"/>
</g>
<!-- reference_data_domain_link -->
<g id="node3" class="node">
<title>reference_data_domain_link</title>
<g id="a_node3"><a xlink:href="../../tables/reference_data_domain_link.html" xlink:title="reference_data_domain_link" target="_top">
<polygon fill="#ffffff" stroke="transparent" points="536.5,-800.1992 536.5,-886.1992 763.5,-886.1992 763.5,-800.1992 536.5,-800.1992"/>
<polygon fill="#f5f5f5" stroke="transparent" points="537,-863.1992 537,-886.1992 764,-886.1992 764,-863.1992 537,-863.1992"/>
<polygon fill="none" stroke="#000000" points="537,-863.1992 537,-886.1992 764,-886.1992 764,-863.1992 537,-863.1992"/>
<text text-anchor="start" x="542" y="-871.7992" font-family="Helvetica,sans-Serif" font-weight="bold" font-size="11.00" fill="#000000">reference_data_domain_link</text>
<text text-anchor="start" x="729.5219" y="-871.2992" font-family="Helvetica,sans-Serif" font-size="11.00" fill="#000000">[table]</text>
<polygon fill="none" stroke="#000000" points="537,-841.1992 537,-863.1992 764,-863.1992 764,-841.1992 537,-841.1992"/>
<image xlink:href="../../images/primaryKeys.png" width="11px" height="12px" preserveAspectRatio="xMinYMin meet" x="542" y="-858.199"/>
<text text-anchor="start" x="566" y="-848.2992" font-family="Helvetica,sans-Serif" font-size="11.00" fill="#000000">id</text>
<polygon fill="none" stroke="#000000" points="537,-819.1992 537,-841.1992 764,-841.1992 764,-819.1992 537,-819.1992"/>
<image xlink:href="../../images/foreignKeys.png" width="11px" height="12px" preserveAspectRatio="xMinYMin meet" x="542" y="-836.199"/>
<text text-anchor="start" x="566" y="-826.2992" font-family="Helvetica,sans-Serif" font-size="11.00" fill="#000000">domain</text>
<polygon fill="#ffffff" stroke="transparent" points="537,-800.1992 537,-819.1992 649,-819.1992 649,-800.1992 537,-800.1992"/>
<polygon fill="none" stroke="#000000" points="537,-800.1992 537,-819.1992 649,-819.1992 649,-800.1992 537,-800.1992"/>
<text text-anchor="start" x="540" y="-806.2992" font-family="Helvetica,sans-Serif" font-size="11.00" fill="#000000">&lt; 2</text>
<polygon fill="#ffffff" stroke="transparent" points="649,-800.1992 649,-819.1992 706,-819.1992 706,-800.1992 649,-800.1992"/>
<polygon fill="none" stroke="#000000" points="649,-800.1992 649,-819.1992 706,-819.1992 706,-800.1992 649,-800.1992"/>
<text text-anchor="start" x="696.8862" y="-806.2992" font-family="Helvetica,sans-Serif" font-size="11.00" fill="#000000"> &#160;</text>
<polygon fill="#ffffff" stroke="transparent" points="706,-800.1992 706,-819.1992 764,-819.1992 764,-800.1992 706,-800.1992"/>
<polygon fill="none" stroke="#000000" points="706,-800.1992 706,-819.1992 764,-819.1992 764,-800.1992 706,-800.1992"/>
<text text-anchor="start" x="754.8862" y="-806.2992" font-family="Helvetica,sans-Serif" font-size="11.00" fill="#000000"> &#160;</text>
</a>
</g>
</g>
<!-- reference_data_domain_link&#45;&gt;reference_data -->
<g id="edge3" class="edge">
<title>reference_data_domain_link:w&#45;&gt;reference_data:e</title>
<path fill="none" stroke="#000000" d="M526.3655,-850.1326C451.3938,-818.3723 556.0209,-431.1992 465,-431.1992"/>
<polygon fill="#000000" stroke="#000000" points="536.9778,-848.1201 535.4516,-855.9731 533.881,-855.6679 535.4072,-847.8148 536.9778,-848.1201"/>
<polyline fill="none" stroke="#000000" points="537,-852.1992 533.0735,-851.4361 "/>
<ellipse fill="none" stroke="#000000" cx="529.9322" cy="-850.8257" rx="3.2" ry="3.2"/>
</g>
<!-- reference_data_domain_link&#45;&gt;reference_data_domain -->
<g id="edge2" class="edge">
<title>reference_data_domain_link:w&#45;&gt;reference_data_domain:e</title>
<path fill="none" stroke="#000000" d="M523.2848,-825.1148C451.4524,-780.0218 256.3024,-450.1992 204,-450.1992"/>
<polygon fill="#000000" stroke="#000000" points="529.4989,-827.4184 535.7486,-833.5747 533.2494,-828.8088 537,-830.1992 537,-830.1992 537,-830.1992 533.2494,-828.8088 538.2514,-826.8237 529.4989,-827.4184 529.4989,-827.4184"/>
<ellipse fill="none" stroke="#000000" cx="526.4984" cy="-826.3061" rx="3.2" ry="3.2"/>
</g>
<!-- reference_data_link -->
<g id="node4" class="node">
<title>reference_data_link</title>
<g id="a_node4"><a xlink:href="../../tables/reference_data_link.html" xlink:title="reference_data_link" target="_top">
<polygon fill="#ffffff" stroke="transparent" points="564.5,-105.1992 564.5,-235.1992 735.5,-235.1992 735.5,-105.1992 564.5,-105.1992"/>
<polygon fill="#f5f5f5" stroke="transparent" points="565,-212.1992 565,-235.1992 736,-235.1992 736,-212.1992 565,-212.1992"/>
<polygon fill="none" stroke="#000000" points="565,-212.1992 565,-235.1992 736,-235.1992 736,-212.1992 565,-212.1992"/>
<text text-anchor="start" x="570" y="-220.7992" font-family="Helvetica,sans-Serif" font-weight="bold" font-size="11.00" fill="#000000">reference_data_link</text>
<text text-anchor="start" x="701.5219" y="-220.2992" font-family="Helvetica,sans-Serif" font-size="11.00" fill="#000000">[table]</text>
<polygon fill="none" stroke="#000000" points="565,-190.1992 565,-212.1992 736,-212.1992 736,-190.1992 565,-190.1992"/>
<image xlink:href="../../images/primaryKeys.png" width="11px" height="12px" preserveAspectRatio="xMinYMin meet" x="570" y="-207.199"/>
<text text-anchor="start" x="593" y="-197.2992" font-family="Helvetica,sans-Serif" font-size="11.00" fill="#000000">id</text>
<polygon fill="#ffffff" stroke="transparent" points="565,-168.1992 565,-190.1992 736,-190.1992 736,-168.1992 565,-168.1992"/>
<polygon fill="none" stroke="#000000" points="565,-168.1992 565,-190.1992 736,-190.1992 736,-168.1992 565,-168.1992"/>
<image xlink:href="../../images/foreignKeys.png" width="11px" height="12px" preserveAspectRatio="xMinYMin meet" x="570" y="-185.199"/>
<text text-anchor="start" x="593" y="-175.2992" font-family="Helvetica,sans-Serif" font-size="11.00" fill="#000000">reference_data_id_1</text>
<polygon fill="none" stroke="#000000" points="565,-146.1992 565,-168.1992 736,-168.1992 736,-146.1992 565,-146.1992"/>
<image xlink:href="../../images/foreignKeys.png" width="11px" height="12px" preserveAspectRatio="xMinYMin meet" x="570" y="-163.199"/>
<text text-anchor="start" x="593" y="-153.2992" font-family="Helvetica,sans-Serif" font-size="11.00" fill="#000000">reference_data_id_2</text>
<polygon fill="#ffffff" stroke="transparent" points="565,-124.1992 565,-146.1992 736,-146.1992 736,-124.1992 565,-124.1992"/>
<polygon fill="none" stroke="#000000" points="565,-124.1992 565,-146.1992 736,-146.1992 736,-124.1992 565,-124.1992"/>
<text text-anchor="start" x="593" y="-131.2992" font-family="Helvetica,sans-Serif" font-size="11.00" fill="#000000">sequence_number</text>
<polygon fill="#ffffff" stroke="transparent" points="565,-105.1992 565,-124.1992 633,-124.1992 633,-105.1992 565,-105.1992"/>
<polygon fill="none" stroke="#000000" points="565,-105.1992 565,-124.1992 633,-124.1992 633,-105.1992 565,-105.1992"/>
<text text-anchor="start" x="568" y="-111.2992" font-family="Helvetica,sans-Serif" font-size="11.00" fill="#000000">&lt; 2</text>
<polygon fill="#ffffff" stroke="transparent" points="633,-105.1992 633,-124.1992 700,-124.1992 700,-105.1992 633,-105.1992"/>
<polygon fill="none" stroke="#000000" points="633,-105.1992 633,-124.1992 700,-124.1992 700,-105.1992 633,-105.1992"/>
<text text-anchor="start" x="658.4956" y="-111.2992" font-family="Helvetica,sans-Serif" font-size="11.00" fill="#000000">64 rows</text>
<polygon fill="#ffffff" stroke="transparent" points="700,-105.1992 700,-124.1992 736,-124.1992 736,-105.1992 700,-105.1992"/>
<polygon fill="none" stroke="#000000" points="700,-105.1992 700,-124.1992 736,-124.1992 736,-105.1992 700,-105.1992"/>
<text text-anchor="start" x="726.8862" y="-111.2992" font-family="Helvetica,sans-Serif" font-size="11.00" fill="#000000"> &#160;</text>
</a>
</g>
</g>
<!-- reference_data_link&#45;&gt;reference_data -->
<g id="edge4" class="edge">
<title>reference_data_link:w&#45;&gt;reference_data:e</title>
<path fill="none" stroke="#000000" d="M550.6895,-181.0244C524.7642,-188.5355 523.305,-218.1287 508,-249.1992 471.2722,-323.7601 548.1159,-431.1992 465,-431.1992"/>
<polygon fill="#000000" stroke="#000000" points="557.0643,-180.2114 565.4555,-182.7703 561.0321,-179.7053 565,-179.1992 565,-179.1992 565,-179.1992 561.0321,-179.7053 564.5445,-175.6281 557.0643,-180.2114 557.0643,-180.2114"/>
<ellipse fill="none" stroke="#000000" cx="553.89" cy="-180.6163" rx="3.2" ry="3.2"/>
</g>
<!-- reference_data_link&#45;&gt;reference_data -->
<g id="edge5" class="edge">
<title>reference_data_link:w&#45;&gt;reference_data:e</title>
<path fill="none" stroke="#000000" d="M550.3264,-159.0775C518.7503,-168.3059 524.2756,-209.9782 508,-249.1992 476.1433,-325.9677 548.1159,-431.1992 465,-431.1992"/>
<polygon fill="#000000" stroke="#000000" points="557.0647,-158.215 565.4571,-160.7701 561.0324,-157.7071 565,-157.1992 565,-157.1992 565,-157.1992 561.0324,-157.7071 564.5429,-153.6284 557.0647,-158.215 557.0647,-158.215"/>
<ellipse fill="none" stroke="#000000" cx="553.8906" cy="-158.6213" rx="3.2" ry="3.2"/>
</g>
<!-- temporary_absence_authorisation -->
<g id="node5" class="node">
<title>temporary_absence_authorisation</title>
<g id="a_node5"><a xlink:href="../../tables/temporary_absence_authorisation.html" xlink:title="temporary_absence_authorisation" target="_top">
<polygon fill="#ffffff" stroke="transparent" points="516,-283.6992 516,-564.6992 784,-564.6992 784,-283.6992 516,-283.6992"/>
<polygon fill="#f5f5f5" stroke="transparent" points="516,-541.1992 516,-564.1992 784,-564.1992 784,-541.1992 516,-541.1992"/>
<polygon fill="none" stroke="#000000" points="516,-541.1992 516,-564.1992 784,-564.1992 784,-541.1992 516,-541.1992"/>
<text text-anchor="start" x="521" y="-549.7992" font-family="Helvetica,sans-Serif" font-weight="bold" font-size="11.00" fill="#000000">temporary_absence_authorisation</text>
<text text-anchor="start" x="749.5219" y="-549.2992" font-family="Helvetica,sans-Serif" font-size="11.00" fill="#000000">[table]</text>
<polygon fill="none" stroke="#000000" points="516,-519.1992 516,-541.1992 784,-541.1992 784,-519.1992 516,-519.1992"/>
<image xlink:href="../../images/primaryKeys.png" width="11px" height="12px" preserveAspectRatio="xMinYMin meet" x="521" y="-536.199"/>
<text text-anchor="start" x="545" y="-526.2992" font-family="Helvetica,sans-Serif" font-size="11.00" fill="#000000">id</text>
<polygon fill="#ffffff" stroke="transparent" points="516,-497.1992 516,-519.1992 784,-519.1992 784,-497.1992 516,-497.1992"/>
<polygon fill="none" stroke="#000000" points="516,-497.1992 516,-519.1992 784,-519.1992 784,-497.1992 516,-497.1992"/>
<text text-anchor="start" x="545" y="-504.2992" font-family="Helvetica,sans-Serif" font-size="11.00" fill="#000000">person_identifier</text>
<polygon fill="#ffffff" stroke="transparent" points="516,-475.1992 516,-497.1992 784,-497.1992 784,-475.1992 516,-475.1992"/>
<polygon fill="none" stroke="#000000" points="516,-475.1992 516,-497.1992 784,-497.1992 784,-475.1992 516,-475.1992"/>
<text text-anchor="start" x="545" y="-482.2992" font-family="Helvetica,sans-Serif" font-size="11.00" fill="#000000">prison_code</text>
<polygon fill="none" stroke="#000000" points="516,-453.1992 516,-475.1992 784,-475.1992 784,-453.1992 516,-453.1992"/>
<image xlink:href="../../images/foreignKeys.png" width="11px" height="12px" preserveAspectRatio="xMinYMin meet" x="521" y="-470.199"/>
<text text-anchor="start" x="545" y="-460.2992" font-family="Helvetica,sans-Serif" font-size="11.00" fill="#000000">absence_type_id</text>
<polygon fill="none" stroke="#000000" points="516,-431.1992 516,-453.1992 784,-453.1992 784,-431.1992 516,-431.1992"/>
<image xlink:href="../../images/foreignKeys.png" width="11px" height="12px" preserveAspectRatio="xMinYMin meet" x="521" y="-448.199"/>
<text text-anchor="start" x="545" y="-438.2992" font-family="Helvetica,sans-Serif" font-size="11.00" fill="#000000">absence_sub_type_id</text>
<polygon fill="none" stroke="#000000" points="516,-409.1992 516,-431.1992 784,-431.1992 784,-409.1992 516,-409.1992"/>
<image xlink:href="../../images/foreignKeys.png" width="11px" height="12px" preserveAspectRatio="xMinYMin meet" x="521" y="-426.199"/>
<text text-anchor="start" x="545" y="-416.2992" font-family="Helvetica,sans-Serif" font-size="11.00" fill="#000000">absence_reason_id</text>
<polygon fill="none" stroke="#000000" points="516,-387.1992 516,-409.1992 784,-409.1992 784,-387.1992 516,-387.1992"/>
<image xlink:href="../../images/foreignKeys.png" width="11px" height="12px" preserveAspectRatio="xMinYMin meet" x="521" y="-404.199"/>
<text text-anchor="start" x="545" y="-394.2992" font-family="Helvetica,sans-Serif" font-size="11.00" fill="#000000">status_id</text>
<polygon fill="#ffffff" stroke="transparent" points="516,-365.1992 516,-387.1992 784,-387.1992 784,-365.1992 516,-365.1992"/>
<polygon fill="none" stroke="#000000" points="516,-365.1992 516,-387.1992 784,-387.1992 784,-365.1992 516,-365.1992"/>
<text text-anchor="start" x="545" y="-372.2992" font-family="Helvetica,sans-Serif" font-size="11.00" fill="#000000">legacy_id</text>
<polygon fill="#ffffff" stroke="transparent" points="516,-343.1992 516,-365.1992 784,-365.1992 784,-343.1992 516,-343.1992"/>
<polygon fill="none" stroke="#000000" points="516,-343.1992 516,-365.1992 784,-365.1992 784,-343.1992 516,-343.1992"/>
<text text-anchor="start" x="545" y="-350.2992" font-family="Helvetica,sans-Serif" font-size="11.00" fill="#000000">from_date</text>
<polygon fill="#ffffff" stroke="transparent" points="516,-321.1992 516,-343.1992 784,-343.1992 784,-321.1992 516,-321.1992"/>
<polygon fill="none" stroke="#000000" points="516,-321.1992 516,-343.1992 784,-343.1992 784,-321.1992 516,-321.1992"/>
<text text-anchor="start" x="545" y="-328.2992" font-family="Helvetica,sans-Serif" font-size="11.00" fill="#000000">to_date</text>
<polygon fill="none" stroke="#000000" points="516,-302.1992 516,-321.1992 784,-321.1992 784,-302.1992 516,-302.1992"/>
<text text-anchor="start" x="519" y="-308.2992" font-family="Helvetica,sans-Serif" font-size="11.00" fill="#000000">...</text>
<polygon fill="#ffffff" stroke="transparent" points="516,-283.1992 516,-302.1992 644,-302.1992 644,-283.1992 516,-283.1992"/>
<polygon fill="none" stroke="#000000" points="516,-283.1992 516,-302.1992 644,-302.1992 644,-283.1992 516,-283.1992"/>
<text text-anchor="start" x="519" y="-289.2992" font-family="Helvetica,sans-Serif" font-size="11.00" fill="#000000">&lt; 4</text>
<polygon fill="#ffffff" stroke="transparent" points="644,-283.1992 644,-302.1992 709,-302.1992 709,-283.1992 644,-283.1992"/>
<polygon fill="none" stroke="#000000" points="644,-283.1992 644,-302.1992 709,-302.1992 709,-283.1992 644,-283.1992"/>
<text text-anchor="start" x="699.8862" y="-289.2992" font-family="Helvetica,sans-Serif" font-size="11.00" fill="#000000"> &#160;</text>
<polygon fill="#ffffff" stroke="transparent" points="709,-283.1992 709,-302.1992 784,-302.1992 784,-283.1992 709,-283.1992"/>
<polygon fill="none" stroke="#000000" points="709,-283.1992 709,-302.1992 784,-302.1992 784,-283.1992 709,-283.1992"/>
<text text-anchor="start" x="765.4053" y="-289.2992" font-family="Helvetica,sans-Serif" font-size="11.00" fill="#000000">1 &gt;</text>
</a>
</g>
</g>
<!-- temporary_absence_authorisation&#45;&gt;reference_data -->
<g id="edge6" class="edge">
<title>temporary_absence_authorisation:w&#45;&gt;reference_data:e</title>
<path fill="none" stroke="#000000" d="M501.5097,-421.918C489.3398,-425.0117 482.3909,-431.1992 465,-431.1992"/>
<polygon fill="#000000" stroke="#000000" points="508.0557,-421.1416 516.4241,-423.7742 512.0278,-420.6704 516,-420.1992 516,-420.1992 516,-420.1992 512.0278,-420.6704 515.5759,-416.6243 508.0557,-421.1416 508.0557,-421.1416"/>
<ellipse fill="none" stroke="#000000" cx="504.878" cy="-421.5185" rx="3.2" ry="3.2"/>
</g>
<!-- temporary_absence_authorisation&#45;&gt;reference_data -->
<g id="edge7" class="edge">
<title>temporary_absence_authorisation:w&#45;&gt;reference_data:e</title>
<path fill="none" stroke="#000000" d="M501.5097,-440.4805C489.3398,-437.3867 482.3909,-431.1992 465,-431.1992"/>
<polygon fill="#000000" stroke="#000000" points="508.0557,-441.2569 515.5759,-445.7742 512.0278,-441.728 516,-442.1992 516,-442.1992 516,-442.1992 512.0278,-441.728 516.4241,-438.6243 508.0557,-441.2569 508.0557,-441.2569"/>
<ellipse fill="none" stroke="#000000" cx="504.878" cy="-440.8799" rx="3.2" ry="3.2"/>
</g>
<!-- temporary_absence_authorisation&#45;&gt;reference_data -->
<g id="edge8" class="edge">
<title>temporary_absence_authorisation:w&#45;&gt;reference_data:e</title>
<path fill="none" stroke="#000000" d="M501.9604,-460.1528C488.8775,-451.3408 486.0921,-431.1992 465,-431.1992"/>
<polygon fill="#000000" stroke="#000000" points="508.3129,-461.9836 515.003,-467.6584 512.1565,-463.0914 516,-464.1992 516,-464.1992 516,-464.1992 512.1565,-463.0914 516.997,-460.74 508.3129,-461.9836 508.3129,-461.9836"/>
<ellipse fill="none" stroke="#000000" cx="505.2381" cy="-461.0974" rx="3.2" ry="3.2"/>
</g>
<!-- temporary_absence_authorisation&#45;&gt;reference_data -->
<g id="edge9" class="edge">
<title>temporary_absence_authorisation:w&#45;&gt;reference_data:e</title>
<path fill="none" stroke="#000000" d="M501.9604,-402.2457C488.8775,-411.0576 486.0921,-431.1992 465,-431.1992"/>
<polygon fill="#000000" stroke="#000000" points="508.3129,-400.4148 516.997,-401.6584 512.1565,-399.307 516,-398.1992 516,-398.1992 516,-398.1992 512.1565,-399.307 515.003,-394.74 508.3129,-400.4148 508.3129,-400.4148"/>
<ellipse fill="none" stroke="#000000" cx="505.2381" cy="-401.301" rx="3.2" ry="3.2"/>
</g>
<!-- temporary_absence_movement -->
<g id="node6" class="node">
<title>temporary_absence_movement</title>
<g id="a_node6"><a xlink:href="../../tables/temporary_absence_movement.html" xlink:title="temporary_absence_movement" target="_top">
<polygon fill="#ffffff" stroke="transparent" points="525.5,-585.6992 525.5,-778.6992 774.5,-778.6992 774.5,-585.6992 525.5,-585.6992"/>
<polygon fill="#f5f5f5" stroke="transparent" points="526,-755.1992 526,-778.1992 775,-778.1992 775,-755.1992 526,-755.1992"/>
<polygon fill="none" stroke="#000000" points="526,-755.1992 526,-778.1992 775,-778.1992 775,-755.1992 526,-755.1992"/>
<text text-anchor="start" x="531" y="-763.7992" font-family="Helvetica,sans-Serif" font-weight="bold" font-size="11.00" fill="#000000">temporary_absence_movement</text>
<text text-anchor="start" x="740.5219" y="-763.2992" font-family="Helvetica,sans-Serif" font-size="11.00" fill="#000000">[table]</text>
<polygon fill="none" stroke="#000000" points="526,-733.1992 526,-755.1992 775,-755.1992 775,-733.1992 526,-733.1992"/>
<image xlink:href="../../images/primaryKeys.png" width="11px" height="12px" preserveAspectRatio="xMinYMin meet" x="531" y="-750.199"/>
<text text-anchor="start" x="555" y="-740.2992" font-family="Helvetica,sans-Serif" font-size="11.00" fill="#000000">id</text>
<polygon fill="#ffffff" stroke="transparent" points="526,-711.1992 526,-733.1992 775,-733.1992 775,-711.1992 526,-711.1992"/>
<polygon fill="none" stroke="#000000" points="526,-711.1992 526,-733.1992 775,-733.1992 775,-711.1992 526,-711.1992"/>
<text text-anchor="start" x="555" y="-718.2992" font-family="Helvetica,sans-Serif" font-size="11.00" fill="#000000">person_identifier</text>
<polygon fill="#ffffff" stroke="transparent" points="526,-689.1992 526,-711.1992 775,-711.1992 775,-689.1992 526,-689.1992"/>
<polygon fill="none" stroke="#000000" points="526,-689.1992 526,-711.1992 775,-711.1992 775,-689.1992 526,-689.1992"/>
<text text-anchor="start" x="555" y="-696.2992" font-family="Helvetica,sans-Serif" font-size="11.00" fill="#000000">occurred_at</text>
<polygon fill="none" stroke="#000000" points="526,-667.1992 526,-689.1992 775,-689.1992 775,-667.1992 526,-667.1992"/>
<image xlink:href="../../images/foreignKeys.png" width="11px" height="12px" preserveAspectRatio="xMinYMin meet" x="531" y="-684.199"/>
<text text-anchor="start" x="555" y="-674.2992" font-family="Helvetica,sans-Serif" font-size="11.00" fill="#000000">absence_reason_id</text>
<polygon fill="none" stroke="#000000" points="526,-645.1992 526,-667.1992 775,-667.1992 775,-645.1992 526,-645.1992"/>
<image xlink:href="../../images/foreignKeys.png" width="11px" height="12px" preserveAspectRatio="xMinYMin meet" x="531" y="-662.199"/>
<text text-anchor="start" x="555" y="-652.2992" font-family="Helvetica,sans-Serif" font-size="11.00" fill="#000000">accompanied_by_id</text>
<polygon fill="#ffffff" stroke="transparent" points="526,-623.1992 526,-645.1992 775,-645.1992 775,-623.1992 526,-623.1992"/>
<polygon fill="none" stroke="#000000" points="526,-623.1992 526,-645.1992 775,-645.1992 775,-623.1992 526,-623.1992"/>
<text text-anchor="start" x="555" y="-630.2992" font-family="Helvetica,sans-Serif" font-size="11.00" fill="#000000">legacy_id</text>
<polygon fill="none" stroke="#000000" points="526,-604.1992 526,-623.1992 775,-623.1992 775,-604.1992 526,-604.1992"/>
<text text-anchor="start" x="529" y="-610.2992" font-family="Helvetica,sans-Serif" font-size="11.00" fill="#000000">...</text>
<polygon fill="#ffffff" stroke="transparent" points="526,-585.1992 526,-604.1992 649,-604.1992 649,-585.1992 526,-585.1992"/>
<polygon fill="none" stroke="#000000" points="526,-585.1992 526,-604.1992 649,-604.1992 649,-585.1992 526,-585.1992"/>
<text text-anchor="start" x="529" y="-591.2992" font-family="Helvetica,sans-Serif" font-size="11.00" fill="#000000">&lt; 2</text>
<polygon fill="#ffffff" stroke="transparent" points="649,-585.1992 649,-604.1992 712,-604.1992 712,-585.1992 649,-585.1992"/>
<polygon fill="none" stroke="#000000" points="649,-585.1992 649,-604.1992 712,-604.1992 712,-585.1992 649,-585.1992"/>
<text text-anchor="start" x="702.8862" y="-591.2992" font-family="Helvetica,sans-Serif" font-size="11.00" fill="#000000"> &#160;</text>
<polygon fill="#ffffff" stroke="transparent" points="712,-585.1992 712,-604.1992 775,-604.1992 775,-585.1992 712,-585.1992"/>
<polygon fill="none" stroke="#000000" points="712,-585.1992 712,-604.1992 775,-604.1992 775,-585.1992 712,-585.1992"/>
<text text-anchor="start" x="765.8862" y="-591.2992" font-family="Helvetica,sans-Serif" font-size="11.00" fill="#000000"> &#160;</text>
</a>
</g>
</g>
<!-- temporary_absence_movement&#45;&gt;reference_data -->
<g id="edge10" class="edge">
<title>temporary_absence_movement:w&#45;&gt;reference_data:e</title>
<path fill="none" stroke="#000000" d="M511.6177,-676.5566C428.0925,-655.1261 572.6651,-431.1992 465,-431.1992"/>
<polygon fill="#000000" stroke="#000000" points="518.0517,-677.2914 525.5915,-681.776 522.0258,-677.7453 526,-678.1992 526,-678.1992 526,-678.1992 522.0258,-677.7453 526.4085,-674.6225 518.0517,-677.2914 518.0517,-677.2914"/>
<ellipse fill="none" stroke="#000000" cx="514.8723" cy="-676.9283" rx="3.2" ry="3.2"/>
</g>
<!-- temporary_absence_movement&#45;&gt;reference_data -->
<g id="edge11" class="edge">
<title>temporary_absence_movement:w&#45;&gt;reference_data:e</title>
<path fill="none" stroke="#000000" d="M511.6196,-654.3881C437.117,-633.0945 563.1461,-431.1992 465,-431.1992"/>
<polygon fill="#000000" stroke="#000000" points="518.0627,-655.1995 525.5501,-659.771 522.0314,-655.6994 526,-656.1992 526,-656.1992 526,-656.1992 522.0314,-655.6994 526.4499,-652.6274 518.0627,-655.1995 518.0627,-655.1995"/>
<ellipse fill="none" stroke="#000000" cx="514.8878" cy="-654.7996" rx="3.2" ry="3.2"/>
</g>
<!-- temporary_absence_occurrence -->
<g id="node7" class="node">
<title>temporary_absence_occurrence</title>
<g id="a_node7"><a xlink:href="../../tables/temporary_absence_occurrence.html" xlink:title="temporary_absence_occurrence" target="_top">
<polygon fill="#ffffff" stroke="transparent" points="833,-166.6992 833,-403.6992 1085,-403.6992 1085,-166.6992 833,-166.6992"/>
<polygon fill="#f5f5f5" stroke="transparent" points="833,-380.1992 833,-403.1992 1085,-403.1992 1085,-380.1992 833,-380.1992"/>
<polygon fill="none" stroke="#000000" points="833,-380.1992 833,-403.1992 1085,-403.1992 1085,-380.1992 833,-380.1992"/>
<text text-anchor="start" x="838" y="-388.7992" font-family="Helvetica,sans-Serif" font-weight="bold" font-size="11.00" fill="#000000">temporary_absence_occurrence</text>
<text text-anchor="start" x="1050.5219" y="-388.2992" font-family="Helvetica,sans-Serif" font-size="11.00" fill="#000000">[table]</text>
<polygon fill="none" stroke="#000000" points="833,-358.1992 833,-380.1992 1085,-380.1992 1085,-358.1992 833,-358.1992"/>
<image xlink:href="../../images/primaryKeys.png" width="11px" height="12px" preserveAspectRatio="xMinYMin meet" x="838" y="-375.199"/>
<text text-anchor="start" x="862" y="-365.2992" font-family="Helvetica,sans-Serif" font-size="11.00" fill="#000000">id</text>
<polygon fill="#ffffff" stroke="transparent" points="833,-336.1992 833,-358.1992 1085,-358.1992 1085,-336.1992 833,-336.1992"/>
<polygon fill="none" stroke="#000000" points="833,-336.1992 833,-358.1992 1085,-358.1992 1085,-336.1992 833,-336.1992"/>
<text text-anchor="start" x="862" y="-343.2992" font-family="Helvetica,sans-Serif" font-size="11.00" fill="#000000">person_identifier</text>
<polygon fill="#ffffff" stroke="transparent" points="833,-314.1992 833,-336.1992 1085,-336.1992 1085,-314.1992 833,-314.1992"/>
<polygon fill="none" stroke="#000000" points="833,-314.1992 833,-336.1992 1085,-336.1992 1085,-314.1992 833,-314.1992"/>
<image xlink:href="../../images/foreignKeys.png" width="11px" height="12px" preserveAspectRatio="xMinYMin meet" x="838" y="-331.199"/>
<text text-anchor="start" x="862" y="-321.2992" font-family="Helvetica,sans-Serif" font-size="11.00" fill="#000000">authorisation_id</text>
<polygon fill="#ffffff" stroke="transparent" points="833,-292.1992 833,-314.1992 1085,-314.1992 1085,-292.1992 833,-292.1992"/>
<polygon fill="none" stroke="#000000" points="833,-292.1992 833,-314.1992 1085,-314.1992 1085,-292.1992 833,-292.1992"/>
<text text-anchor="start" x="862" y="-299.2992" font-family="Helvetica,sans-Serif" font-size="11.00" fill="#000000">release_at</text>
<polygon fill="#ffffff" stroke="transparent" points="833,-270.1992 833,-292.1992 1085,-292.1992 1085,-270.1992 833,-270.1992"/>
<polygon fill="none" stroke="#000000" points="833,-270.1992 833,-292.1992 1085,-292.1992 1085,-270.1992 833,-270.1992"/>
<text text-anchor="start" x="862" y="-277.2992" font-family="Helvetica,sans-Serif" font-size="11.00" fill="#000000">return_by</text>
<polygon fill="none" stroke="#000000" points="833,-248.1992 833,-270.1992 1085,-270.1992 1085,-248.1992 833,-248.1992"/>
<image xlink:href="../../images/foreignKeys.png" width="11px" height="12px" preserveAspectRatio="xMinYMin meet" x="838" y="-265.199"/>
<text text-anchor="start" x="862" y="-255.2992" font-family="Helvetica,sans-Serif" font-size="11.00" fill="#000000">accompanied_by_id</text>
<polygon fill="none" stroke="#000000" points="833,-226.1992 833,-248.1992 1085,-248.1992 1085,-226.1992 833,-226.1992"/>
<image xlink:href="../../images/foreignKeys.png" width="11px" height="12px" preserveAspectRatio="xMinYMin meet" x="838" y="-243.199"/>
<text text-anchor="start" x="862" y="-233.2992" font-family="Helvetica,sans-Serif" font-size="11.00" fill="#000000">transport_id</text>
<polygon fill="#ffffff" stroke="transparent" points="833,-204.1992 833,-226.1992 1085,-226.1992 1085,-204.1992 833,-204.1992"/>
<polygon fill="none" stroke="#000000" points="833,-204.1992 833,-226.1992 1085,-226.1992 1085,-204.1992 833,-204.1992"/>
<text text-anchor="start" x="862" y="-211.2992" font-family="Helvetica,sans-Serif" font-size="11.00" fill="#000000">legacy_id</text>
<polygon fill="none" stroke="#000000" points="833,-185.1992 833,-204.1992 1085,-204.1992 1085,-185.1992 833,-185.1992"/>
<text text-anchor="start" x="836" y="-191.2992" font-family="Helvetica,sans-Serif" font-size="11.00" fill="#000000">...</text>
<polygon fill="#ffffff" stroke="transparent" points="833,-166.1992 833,-185.1992 957,-185.1992 957,-166.1992 833,-166.1992"/>
<polygon fill="none" stroke="#000000" points="833,-166.1992 833,-185.1992 957,-185.1992 957,-166.1992 833,-166.1992"/>
<text text-anchor="start" x="836" y="-172.2992" font-family="Helvetica,sans-Serif" font-size="11.00" fill="#000000">&lt; 3</text>
<polygon fill="#ffffff" stroke="transparent" points="957,-166.1992 957,-185.1992 1021,-185.1992 1021,-166.1992 957,-166.1992"/>
<polygon fill="none" stroke="#000000" points="957,-166.1992 957,-185.1992 1021,-185.1992 1021,-166.1992 957,-166.1992"/>
<text text-anchor="start" x="1011.8862" y="-172.2992" font-family="Helvetica,sans-Serif" font-size="11.00" fill="#000000"> &#160;</text>
<polygon fill="#ffffff" stroke="transparent" points="1021,-166.1992 1021,-185.1992 1085,-185.1992 1085,-166.1992 1021,-166.1992"/>
<polygon fill="none" stroke="#000000" points="1021,-166.1992 1021,-185.1992 1085,-185.1992 1085,-166.1992 1021,-166.1992"/>
<text text-anchor="start" x="1075.8862" y="-172.2992" font-family="Helvetica,sans-Serif" font-size="11.00" fill="#000000"> &#160;</text>
</a>
</g>
</g>
<!-- temporary_absence_occurrence&#45;&gt;reference_data -->
<g id="edge12" class="edge">
<title>temporary_absence_occurrence:w&#45;&gt;reference_data:e</title>
<path fill="none" stroke="#000000" d="M818.5648,-258.8808C737.4607,-255.7102 561.0593,-230.8106 508,-273.1992 451.1405,-318.6238 537.7763,-431.1992 465,-431.1992"/>
<polygon fill="#000000" stroke="#000000" points="825.0019,-259.0227 832.9206,-262.7983 829.001,-259.111 833,-259.1992 833,-259.1992 833,-259.1992 829.001,-259.111 833.0794,-255.6001 825.0019,-259.0227 825.0019,-259.0227"/>
<ellipse fill="none" stroke="#000000" cx="821.8027" cy="-258.9521" rx="3.2" ry="3.2"/>
</g>
<!-- temporary_absence_occurrence&#45;&gt;reference_data -->
<g id="edge14" class="edge">
<title>temporary_absence_occurrence:w&#45;&gt;reference_data:e</title>
<path fill="none" stroke="#000000" d="M818.7184,-234.9205C779.5706,-219.5468 840.1614,-130.4925 792,-94.1992 691.1956,-18.2353 602.7327,-10.786 508,-94.1992 451.3385,-144.0903 540.4961,-431.1992 465,-431.1992"/>
<polygon fill="#000000" stroke="#000000" points="825.0999,-235.9387 832.4328,-240.7542 829.05,-236.569 833,-237.1992 833,-237.1992 833,-237.1992 829.05,-236.569 833.5672,-233.6442 825.0999,-235.9387 825.0999,-235.9387"/>
<ellipse fill="none" stroke="#000000" cx="821.9399" cy="-235.4345" rx="3.2" ry="3.2"/>
</g>
<!-- temporary_absence_occurrence&#45;&gt;temporary_absence_authorisation -->
<g id="edge13" class="edge">
<title>temporary_absence_occurrence:w&#45;&gt;temporary_absence_authorisation:e</title>
<path fill="none" stroke="#000000" d="M818.4332,-327.3628C755.2257,-349.2719 872.0058,-530.1992 784,-530.1992"/>
<polygon fill="#000000" stroke="#000000" points="825.0868,-326.3746 833.5289,-328.7602 829.0434,-325.7869 833,-325.1992 833,-325.1992 833,-325.1992 829.0434,-325.7869 832.4711,-321.6383 825.0868,-326.3746 825.0868,-326.3746"/>
<ellipse fill="none" stroke="#000000" cx="821.9215" cy="-326.8447" rx="3.2" ry="3.2"/>
</g>
</g>
</svg>
