<?xml version="1.0" encoding="UTF-8" standalone="no"?>
<!DOCTYPE svg PUBLIC "-//W3C//DTD SVG 1.1//EN"
 "http://www.w3.org/Graphics/SVG/1.1/DTD/svg11.dtd">
<!-- Generated by graphviz version 2.40.1 (20161225.0304)
 -->
<!-- Title: twoDegreesRelationshipsDiagram Pages: 1 -->
<svg width="1101pt" height="370pt"
 viewBox="0.00 0.00 1101.00 370.37" xmlns="http://www.w3.org/2000/svg" xmlns:xlink="http://www.w3.org/1999/xlink">
<g id="graph0" class="graph" transform="scale(1 1) rotate(0) translate(4 366.3692)">
<title>twoDegreesRelationshipsDiagram</title>
<polygon fill="#ffffff" stroke="transparent" points="-4,4 -4,-366.3692 1097,-366.3692 1097,4 -4,4"/>
<text text-anchor="middle" x="72.4936" y="-7.3" font-family="Helvetica,sans-Serif" font-size="11.00" fill="#000000">Generated by SchemaSpy</text>
<!-- tap_occurrence_action -->
<g id="node1" class="node">
<title>tap_occurrence_action</title>
<g id="a_node1"><a xlink:href="../../tables/tap_occurrence_action.html" xlink:title="tap_occurrence_action" target="_top">
<polygon fill="#ffffff" stroke="transparent" points="815,-224.3692 815,-358.3692 1085,-358.3692 1085,-224.3692 815,-224.3692"/>
<polygon fill="#f5f5f5" stroke="transparent" points="817,-333.3692 817,-356.3692 1083,-356.3692 1083,-333.3692 817,-333.3692"/>
<polygon fill="none" stroke="#000000" points="817,-333.3692 817,-356.3692 1083,-356.3692 1083,-333.3692 817,-333.3692"/>
<text text-anchor="start" x="822" y="-341.9692" font-family="Helvetica,sans-Serif" font-weight="bold" font-size="11.00" fill="#000000">tap_occurrence_action</text>
<text text-anchor="start" x="1048.0437" y="-341.4692" font-family="Helvetica,sans-Serif" font-size="11.00" fill="#000000">[table]</text>
<polygon fill="none" stroke="#000000" points="817,-311.3692 817,-333.3692 989,-333.3692 989,-311.3692 817,-311.3692"/>
<image xlink:href="../../images/primaryKeys.png" width="11px" height="12px" preserveAspectRatio="xMinYMin meet" x="822" y="-328.369"/>
<text text-anchor="start" x="837" y="-318.4692" font-family="Helvetica,sans-Serif" font-size="11.00" fill="#000000">id</text>
<polygon fill="none" stroke="#000000" points="989,-311.3692 989,-333.3692 1083,-333.3692 1083,-311.3692 989,-311.3692"/>
<text text-anchor="start" x="991.9758" y="-319.0692" font-family="Helvetica,sans-Serif" font-size="11.00" fill="#000000">uuid[2147483647]</text>
<polygon fill="none" stroke="#000000" points="817,-289.3692 817,-311.3692 989,-311.3692 989,-289.3692 817,-289.3692"/>
<image xlink:href="../../images/foreignKeys.png" width="11px" height="12px" preserveAspectRatio="xMinYMin meet" x="822" y="-306.369"/>
<text text-anchor="start" x="837" y="-296.4692" font-family="Helvetica,sans-Serif" font-size="11.00" fill="#000000">occurrence_id</text>
<polygon fill="none" stroke="#000000" points="989,-289.3692 989,-311.3692 1083,-311.3692 1083,-289.3692 989,-289.3692"/>
<text text-anchor="start" x="991.9758" y="-297.0692" font-family="Helvetica,sans-Serif" font-size="11.00" fill="#000000">uuid[2147483647]</text>
<polygon fill="none" stroke="#000000" points="817,-267.3692 817,-289.3692 989,-289.3692 989,-267.3692 817,-267.3692"/>
<text text-anchor="start" x="837" y="-274.4692" font-family="Helvetica,sans-Serif" font-size="11.00" fill="#000000">type</text>
<polygon fill="none" stroke="#000000" points="989,-267.3692 989,-289.3692 1083,-289.3692 1083,-267.3692 989,-267.3692"/>
<text text-anchor="start" x="992" y="-275.0692" font-family="Helvetica,sans-Serif" font-size="11.00" fill="#000000">text[2147483647]</text>
<polygon fill="none" stroke="#000000" points="817,-245.3692 817,-267.3692 989,-267.3692 989,-245.3692 817,-245.3692"/>
<text text-anchor="start" x="837" y="-252.4692" font-family="Helvetica,sans-Serif" font-size="11.00" fill="#000000">reason</text>
<polygon fill="none" stroke="#000000" points="989,-245.3692 989,-267.3692 1083,-267.3692 1083,-245.3692 989,-245.3692"/>
<text text-anchor="start" x="992" y="-253.0692" font-family="Helvetica,sans-Serif" font-size="11.00" fill="#000000">text[2147483647]</text>
<polygon fill="#ffffff" stroke="transparent" points="817,-226.3692 817,-245.3692 907,-245.3692 907,-226.3692 817,-226.3692"/>
<polygon fill="none" stroke="#000000" points="817,-226.3692 817,-245.3692 907,-245.3692 907,-226.3692 817,-226.3692"/>
<text text-anchor="start" x="820" y="-232.4692" font-family="Helvetica,sans-Serif" font-size="11.00" fill="#000000">&lt; 1</text>
<polygon fill="#ffffff" stroke="transparent" points="907,-226.3692 907,-245.3692 989,-245.3692 989,-226.3692 907,-226.3692"/>
<polygon fill="none" stroke="#000000" points="907,-226.3692 907,-245.3692 989,-245.3692 989,-226.3692 907,-226.3692"/>
<text text-anchor="start" x="979.8862" y="-232.4692" font-family="Helvetica,sans-Serif" font-size="11.00" fill="#000000"> &#160;</text>
<polygon fill="#ffffff" stroke="transparent" points="989,-226.3692 989,-245.3692 1083,-245.3692 1083,-226.3692 989,-226.3692"/>
<polygon fill="none" stroke="#000000" points="989,-226.3692 989,-245.3692 1083,-245.3692 1083,-226.3692 989,-226.3692"/>
<text text-anchor="start" x="1064.4053" y="-232.4692" font-family="Helvetica,sans-Serif" font-size="11.00" fill="#000000">0 &gt;</text>
<polygon fill="none" stroke="#000000" stroke-width="2" points="816,-225.3692 816,-357.3692 1084,-357.3692 1084,-225.3692 816,-225.3692"/>
</a>
</g>
</g>
<!-- temporary_absence_occurrence -->
<g id="node2" class="node">
<title>temporary_absence_occurrence</title>
<g id="a_node2"><a xlink:href="../../tables/temporary_absence_occurrence.html" xlink:title="temporary_absence_occurrence" target="_top">
<polygon fill="#ffffff" stroke="transparent" points="514,-97.8692 514,-334.8692 766,-334.8692 766,-97.8692 514,-97.8692"/>
<polygon fill="#f5f5f5" stroke="transparent" points="514,-311.3692 514,-334.3692 766,-334.3692 766,-311.3692 514,-311.3692"/>
<polygon fill="none" stroke="#000000" points="514,-311.3692 514,-334.3692 766,-334.3692 766,-311.3692 514,-311.3692"/>
<text text-anchor="start" x="519" y="-319.9692" font-family="Helvetica,sans-Serif" font-weight="bold" font-size="11.00" fill="#000000">temporary_absence_occurrence</text>
<text text-anchor="start" x="731.5219" y="-319.4692" font-family="Helvetica,sans-Serif" font-size="11.00" fill="#000000">[table]</text>
<polygon fill="none" stroke="#000000" points="514,-289.3692 514,-311.3692 766,-311.3692 766,-289.3692 514,-289.3692"/>
<image xlink:href="../../images/primaryKeys.png" width="11px" height="12px" preserveAspectRatio="xMinYMin meet" x="519" y="-306.369"/>
<text text-anchor="start" x="543" y="-296.4692" font-family="Helvetica,sans-Serif" font-size="11.00" fill="#000000">id</text>
<polygon fill="#ffffff" stroke="transparent" points="514,-267.3692 514,-289.3692 766,-289.3692 766,-267.3692 514,-267.3692"/>
<polygon fill="none" stroke="#000000" points="514,-267.3692 514,-289.3692 766,-289.3692 766,-267.3692 514,-267.3692"/>
<text text-anchor="start" x="543" y="-274.4692" font-family="Helvetica,sans-Serif" font-size="11.00" fill="#000000">person_identifier</text>
<polygon fill="#ffffff" stroke="transparent" points="514,-245.3692 514,-267.3692 766,-267.3692 766,-245.3692 514,-245.3692"/>
<polygon fill="none" stroke="#000000" points="514,-245.3692 514,-267.3692 766,-267.3692 766,-245.3692 514,-245.3692"/>
<image xlink:href="../../images/foreignKeys.png" width="11px" height="12px" preserveAspectRatio="xMinYMin meet" x="519" y="-262.369"/>
<text text-anchor="start" x="543" y="-252.4692" font-family="Helvetica,sans-Serif" font-size="11.00" fill="#000000">authorisation_id</text>
<polygon fill="#ffffff" stroke="transparent" points="514,-223.3692 514,-245.3692 766,-245.3692 766,-223.3692 514,-223.3692"/>
<polygon fill="none" stroke="#000000" points="514,-223.3692 514,-245.3692 766,-245.3692 766,-223.3692 514,-223.3692"/>
<text text-anchor="start" x="543" y="-230.4692" font-family="Helvetica,sans-Serif" font-size="11.00" fill="#000000">release_at</text>
<polygon fill="#ffffff" stroke="transparent" points="514,-201.3692 514,-223.3692 766,-223.3692 766,-201.3692 514,-201.3692"/>
<polygon fill="none" stroke="#000000" points="514,-201.3692 514,-223.3692 766,-223.3692 766,-201.3692 514,-201.3692"/>
<text text-anchor="start" x="543" y="-208.4692" font-family="Helvetica,sans-Serif" font-size="11.00" fill="#000000">return_by</text>
<polygon fill="none" stroke="#000000" points="514,-179.3692 514,-201.3692 766,-201.3692 766,-179.3692 514,-179.3692"/>
<image xlink:href="../../images/foreignKeys.png" width="11px" height="12px" preserveAspectRatio="xMinYMin meet" x="519" y="-196.369"/>
<text text-anchor="start" x="543" y="-186.4692" font-family="Helvetica,sans-Serif" font-size="11.00" fill="#000000">accompanied_by_id</text>
<polygon fill="none" stroke="#000000" points="514,-157.3692 514,-179.3692 766,-179.3692 766,-157.3692 514,-157.3692"/>
<image xlink:href="../../images/foreignKeys.png" width="11px" height="12px" preserveAspectRatio="xMinYMin meet" x="519" y="-174.369"/>
<text text-anchor="start" x="543" y="-164.4692" font-family="Helvetica,sans-Serif" font-size="11.00" fill="#000000">transport_id</text>
<polygon fill="#ffffff" stroke="transparent" points="514,-135.3692 514,-157.3692 766,-157.3692 766,-135.3692 514,-135.3692"/>
<polygon fill="none" stroke="#000000" points="514,-135.3692 514,-157.3692 766,-157.3692 766,-135.3692 514,-135.3692"/>
<text text-anchor="start" x="543" y="-142.4692" font-family="Helvetica,sans-Serif" font-size="11.00" fill="#000000">legacy_id</text>
<polygon fill="none" stroke="#000000" points="514,-116.3692 514,-135.3692 766,-135.3692 766,-116.3692 514,-116.3692"/>
<text text-anchor="start" x="517" y="-122.4692" font-family="Helvetica,sans-Serif" font-size="11.00" fill="#000000">...</text>
<polygon fill="#ffffff" stroke="transparent" points="514,-97.3692 514,-116.3692 634,-116.3692 634,-97.3692 514,-97.3692"/>
<polygon fill="none" stroke="#000000" points="514,-97.3692 514,-116.3692 634,-116.3692 634,-97.3692 514,-97.3692"/>
<text text-anchor="start" x="517" y="-103.4692" font-family="Helvetica,sans-Serif" font-size="11.00" fill="#000000">&lt; 3</text>
<polygon fill="#ffffff" stroke="transparent" points="634,-97.3692 634,-116.3692 695,-116.3692 695,-97.3692 634,-97.3692"/>
<polygon fill="none" stroke="#000000" points="634,-97.3692 634,-116.3692 695,-116.3692 695,-97.3692 634,-97.3692"/>
<text text-anchor="start" x="685.8862" y="-103.4692" font-family="Helvetica,sans-Serif" font-size="11.00" fill="#000000"> &#160;</text>
<polygon fill="#ffffff" stroke="transparent" points="695,-97.3692 695,-116.3692 766,-116.3692 766,-97.3692 695,-97.3692"/>
<polygon fill="none" stroke="#000000" points="695,-97.3692 695,-116.3692 766,-116.3692 766,-97.3692 695,-97.3692"/>
<text text-anchor="start" x="747.4053" y="-103.4692" font-family="Helvetica,sans-Serif" font-size="11.00" fill="#000000">2 &gt;</text>
</a>
</g>
</g>
<!-- tap_occurrence_action&#45;&gt;temporary_absence_occurrence -->
<g id="edge1" class="edge">
<title>tap_occurrence_action:w&#45;&gt;temporary_absence_occurrence:e</title>
<path fill="none" stroke="#000000" d="M802.276,-300.3692C790.2815,-300.3692 782.8229,-300.3692 766,-300.3692"/>
<polygon fill="#000000" stroke="#000000" points="809,-300.3693 817,-303.9692 813,-300.3692 817,-300.3692 817,-300.3692 817,-300.3692 813,-300.3692 817,-296.7692 809,-300.3693 809,-300.3693"/>
<ellipse fill="none" stroke="#000000" cx="805.8" cy="-300.3693" rx="3.2" ry="3.2"/>
</g>
<!-- temporary_absence_authorisation -->
<g id="node3" class="node">
<title>temporary_absence_authorisation</title>
<g id="a_node3"><a xlink:href="../../tables/temporary_absence_authorisation.html" xlink:title="temporary_absence_authorisation" target="_top">
<polygon fill="#ffffff" stroke="transparent" points="197,-214.8692 197,-275.8692 465,-275.8692 465,-214.8692 197,-214.8692"/>
<polygon fill="#f5f5f5" stroke="transparent" points="197,-252.3692 197,-275.3692 465,-275.3692 465,-252.3692 197,-252.3692"/>
<polygon fill="none" stroke="#000000" points="197,-252.3692 197,-275.3692 465,-275.3692 465,-252.3692 197,-252.3692"/>
<text text-anchor="start" x="202" y="-260.9692" font-family="Helvetica,sans-Serif" font-weight="bold" font-size="11.00" fill="#000000">temporary_absence_authorisation</text>
<text text-anchor="start" x="430.5219" y="-260.4692" font-family="Helvetica,sans-Serif" font-size="11.00" fill="#000000">[table]</text>
<polygon fill="none" stroke="#000000" points="197,-233.3692 197,-252.3692 465,-252.3692 465,-233.3692 197,-233.3692"/>
<text text-anchor="start" x="200" y="-239.4692" font-family="Helvetica,sans-Serif" font-size="11.00" fill="#000000">...</text>
<polygon fill="#ffffff" stroke="transparent" points="197,-214.3692 197,-233.3692 325,-233.3692 325,-214.3692 197,-214.3692"/>
<polygon fill="none" stroke="#000000" points="197,-214.3692 197,-233.3692 325,-233.3692 325,-214.3692 197,-214.3692"/>
<text text-anchor="start" x="200" y="-220.4692" font-family="Helvetica,sans-Serif" font-size="11.00" fill="#000000">&lt; 5</text>
<polygon fill="#ffffff" stroke="transparent" points="325,-214.3692 325,-233.3692 390,-233.3692 390,-214.3692 325,-214.3692"/>
<polygon fill="none" stroke="#000000" points="325,-214.3692 325,-233.3692 390,-233.3692 390,-214.3692 325,-214.3692"/>
<text text-anchor="start" x="380.8862" y="-220.4692" font-family="Helvetica,sans-Serif" font-size="11.00" fill="#000000"> &#160;</text>
<polygon fill="#ffffff" stroke="transparent" points="390,-214.3692 390,-233.3692 465,-233.3692 465,-214.3692 390,-214.3692"/>
<polygon fill="none" stroke="#000000" points="390,-214.3692 390,-233.3692 465,-233.3692 465,-214.3692 390,-214.3692"/>
<text text-anchor="start" x="446.4053" y="-220.4692" font-family="Helvetica,sans-Serif" font-size="11.00" fill="#000000">1 &gt;</text>
</a>
</g>
</g>
<!-- temporary_absence_occurrence&#45;&gt;temporary_absence_authorisation -->
<g id="edge11" class="edge">
<title>temporary_absence_occurrence:w&#45;&gt;temporary_absence_authorisation:e</title>
<path fill="none" stroke="#000000" d="M499.6111,-254.0574C488.1828,-250.081 481.81,-242.3692 465,-242.3692"/>
<polygon fill="#000000" stroke="#000000" points="506.1013,-255.1001 513.4289,-259.9236 510.0506,-255.7347 514,-256.3692 514,-256.3692 514,-256.3692 510.0506,-255.7347 514.5711,-252.8148 506.1013,-255.1001 506.1013,-255.1001"/>
<ellipse fill="none" stroke="#000000" cx="502.9418" cy="-254.5925" rx="3.2" ry="3.2"/>
</g>
<!-- reference_data -->
<g id="node4" class="node">
<title>reference_data</title>
<g id="a_node4"><a xlink:href="../../tables/reference_data.html" xlink:title="reference_data" target="_top">
<polygon fill="#ffffff" stroke="transparent" points="8,-214.8692 8,-275.8692 148,-275.8692 148,-214.8692 8,-214.8692"/>
<polygon fill="#f5f5f5" stroke="transparent" points="8,-252.3692 8,-275.3692 148,-275.3692 148,-252.3692 8,-252.3692"/>
<polygon fill="none" stroke="#000000" points="8,-252.3692 8,-275.3692 148,-275.3692 148,-252.3692 8,-252.3692"/>
<text text-anchor="start" x="13" y="-260.9692" font-family="Helvetica,sans-Serif" font-weight="bold" font-size="11.00" fill="#000000">reference_data</text>
<text text-anchor="start" x="113.5219" y="-260.4692" font-family="Helvetica,sans-Serif" font-size="11.00" fill="#000000">[table]</text>
<polygon fill="none" stroke="#000000" points="8,-233.3692 8,-252.3692 148,-252.3692 148,-233.3692 8,-233.3692"/>
<text text-anchor="start" x="11" y="-239.4692" font-family="Helvetica,sans-Serif" font-size="11.00" fill="#000000">...</text>
<polygon fill="#ffffff" stroke="transparent" points="8,-214.3692 8,-233.3692 50,-233.3692 50,-214.3692 8,-214.3692"/>
<polygon fill="none" stroke="#000000" points="8,-214.3692 8,-233.3692 50,-233.3692 50,-214.3692 8,-214.3692"/>
<text text-anchor="start" x="11" y="-220.4692" font-family="Helvetica,sans-Serif" font-size="11.00" fill="#000000">&lt; 1</text>
<polygon fill="#ffffff" stroke="transparent" points="50,-214.3692 50,-233.3692 110,-233.3692 110,-214.3692 50,-214.3692"/>
<polygon fill="none" stroke="#000000" points="50,-214.3692 50,-233.3692 110,-233.3692 110,-214.3692 50,-214.3692"/>
<text text-anchor="start" x="62.3807" y="-220.4692" font-family="Helvetica,sans-Serif" font-size="11.00" fill="#000000">157 rows</text>
<polygon fill="#ffffff" stroke="transparent" points="110,-214.3692 110,-233.3692 148,-233.3692 148,-214.3692 110,-214.3692"/>
<polygon fill="none" stroke="#000000" points="110,-214.3692 110,-233.3692 148,-233.3692 148,-214.3692 110,-214.3692"/>
<text text-anchor="start" x="123.2904" y="-220.4692" font-family="Helvetica,sans-Serif" font-size="11.00" fill="#000000">12 &gt;</text>
</a>
</g>
</g>
<!-- temporary_absence_occurrence&#45;&gt;reference_data -->
<g id="edge10" class="edge">
<title>temporary_absence_occurrence:w&#45;&gt;reference_data:e</title>
<path fill="none" stroke="#000000" d="M499.5097,-190.2287C366.1084,-187.6345 317.871,-150.6041 189,-204.3692 166.0703,-213.9355 172.8452,-242.3692 148,-242.3692"/>
<polygon fill="#000000" stroke="#000000" points="506.0004,-190.2916 513.9651,-193.969 510.0002,-190.3304 514,-190.3692 514,-190.3692 514,-190.3692 510.0002,-190.3304 514.0349,-186.7694 506.0004,-190.2916 506.0004,-190.2916"/>
<ellipse fill="none" stroke="#000000" cx="502.8005" cy="-190.2606" rx="3.2" ry="3.2"/>
</g>
<!-- temporary_absence_occurrence&#45;&gt;reference_data -->
<g id="edge12" class="edge">
<title>temporary_absence_occurrence:w&#45;&gt;reference_data:e</title>
<path fill="none" stroke="#000000" d="M499.4921,-168.1454C365.6625,-164.0054 309.8557,-104.6351 189,-174.3692 158.4328,-192.0066 183.2907,-242.3692 148,-242.3692"/>
<polygon fill="#000000" stroke="#000000" points="506.001,-168.2457 513.9444,-171.9688 510.0005,-168.3075 514,-168.3692 514,-168.3692 514,-168.3692 510.0005,-168.3075 514.0556,-164.7696 506.001,-168.2457 506.001,-168.2457"/>
<ellipse fill="none" stroke="#000000" cx="502.8013" cy="-168.1963" rx="3.2" ry="3.2"/>
</g>
<!-- temporary_absence_authorisation&#45;&gt;reference_data -->
<g id="edge2" class="edge">
<title>temporary_absence_authorisation:w&#45;&gt;reference_data:e</title>
<path fill="none" stroke="#000000" d="M187.0525,-231.2672C172.8682,-217.1373 166.0347,-220.838 148,-242.3692"/>
<polygon fill="#000000" stroke="#000000" points="191.6614,-236.411 194.3188,-244.7716 194.3307,-239.3901 197,-242.3692 197,-242.3692 197,-242.3692 194.3307,-239.3901 199.6812,-239.9669 191.6614,-236.411 191.6614,-236.411"/>
<ellipse fill="none" stroke="#000000" cx="189.526" cy="-234.0278" rx="3.2" ry="3.2"/>
</g>
<!-- temporary_absence_authorisation&#45;&gt;reference_data -->
<g id="edge3" class="edge">
<title>temporary_absence_authorisation:w&#45;&gt;reference_data:e</title>
<path fill="none" stroke="#000000" d="M183.9586,-235.3709C171.7729,-230.0833 164.6736,-232.4161 148,-242.3692"/>
<polygon fill="#000000" stroke="#000000" points="189.9508,-238.5865 195.2978,-245.5413 193.4754,-240.4778 197,-242.3692 197,-242.3692 197,-242.3692 193.4754,-240.4778 198.7022,-239.1971 189.9508,-238.5865 189.9508,-238.5865"/>
<ellipse fill="none" stroke="#000000" cx="187.1311" cy="-237.0733" rx="3.2" ry="3.2"/>
</g>
<!-- temporary_absence_authorisation&#45;&gt;reference_data -->
<g id="edge4" class="edge">
<title>temporary_absence_authorisation:w&#45;&gt;reference_data:e</title>
<path fill="none" stroke="#000000" d="M182.4909,-242.3692C171.1774,-242.3692 163.9931,-242.3692 148,-242.3692"/>
<polygon fill="#000000" stroke="#000000" points="189,-242.3693 197,-245.9692 193,-242.3692 197,-242.3692 197,-242.3692 197,-242.3692 193,-242.3692 197,-238.7692 189,-242.3693 189,-242.3693"/>
<ellipse fill="none" stroke="#000000" cx="185.8" cy="-242.3693" rx="3.2" ry="3.2"/>
</g>
<!-- temporary_absence_authorisation&#45;&gt;reference_data -->
<g id="edge5" class="edge">
<title>temporary_absence_authorisation:w&#45;&gt;reference_data:e</title>
<path fill="none" stroke="#000000" d="M183.9586,-249.3675C171.7729,-254.6551 164.6736,-252.3223 148,-242.3692"/>
<polygon fill="#000000" stroke="#000000" points="189.9508,-246.152 198.7022,-245.5413 193.4754,-244.2606 197,-242.3692 197,-242.3692 197,-242.3692 193.4754,-244.2606 195.2978,-239.1971 189.9508,-246.152 189.9508,-246.152"/>
<ellipse fill="none" stroke="#000000" cx="187.1311" cy="-247.6651" rx="3.2" ry="3.2"/>
</g>
<!-- temporary_absence_authorisation&#45;&gt;reference_data -->
<g id="edge6" class="edge">
<title>temporary_absence_authorisation:w&#45;&gt;reference_data:e</title>
<path fill="none" stroke="#000000" d="M187.0525,-253.4713C172.8682,-267.6011 166.0347,-263.9005 148,-242.3692"/>
<polygon fill="#000000" stroke="#000000" points="191.6614,-248.3274 199.6812,-244.7716 194.3307,-245.3483 197,-242.3692 197,-242.3692 197,-242.3692 194.3307,-245.3483 194.3188,-239.9669 191.6614,-248.3274 191.6614,-248.3274"/>
<ellipse fill="none" stroke="#000000" cx="189.526" cy="-250.7107" rx="3.2" ry="3.2"/>
</g>
<!-- temporary_absence_movement -->
<g id="node5" class="node">
<title>temporary_absence_movement</title>
<g id="a_node5"><a xlink:href="../../tables/temporary_absence_movement.html" xlink:title="temporary_absence_movement" target="_top">
<polygon fill="#ffffff" stroke="transparent" points="825.5,-39.8692 825.5,-100.8692 1074.5,-100.8692 1074.5,-39.8692 825.5,-39.8692"/>
<polygon fill="#f5f5f5" stroke="transparent" points="826,-77.3692 826,-100.3692 1075,-100.3692 1075,-77.3692 826,-77.3692"/>
<polygon fill="none" stroke="#000000" points="826,-77.3692 826,-100.3692 1075,-100.3692 1075,-77.3692 826,-77.3692"/>
<text text-anchor="start" x="831" y="-85.9692" font-family="Helvetica,sans-Serif" font-weight="bold" font-size="11.00" fill="#000000">temporary_absence_movement</text>
<text text-anchor="start" x="1040.5219" y="-85.4692" font-family="Helvetica,sans-Serif" font-size="11.00" fill="#000000">[table]</text>
<polygon fill="none" stroke="#000000" points="826,-58.3692 826,-77.3692 1075,-77.3692 1075,-58.3692 826,-58.3692"/>
<text text-anchor="start" x="829" y="-64.4692" font-family="Helvetica,sans-Serif" font-size="11.00" fill="#000000">...</text>
<polygon fill="#ffffff" stroke="transparent" points="826,-39.3692 826,-58.3692 949,-58.3692 949,-39.3692 826,-39.3692"/>
<polygon fill="none" stroke="#000000" points="826,-39.3692 826,-58.3692 949,-58.3692 949,-39.3692 826,-39.3692"/>
<text text-anchor="start" x="829" y="-45.4692" font-family="Helvetica,sans-Serif" font-size="11.00" fill="#000000">&lt; 3</text>
<polygon fill="#ffffff" stroke="transparent" points="949,-39.3692 949,-58.3692 1012,-58.3692 1012,-39.3692 949,-39.3692"/>
<polygon fill="none" stroke="#000000" points="949,-39.3692 949,-58.3692 1012,-58.3692 1012,-39.3692 949,-39.3692"/>
<text text-anchor="start" x="1002.8862" y="-45.4692" font-family="Helvetica,sans-Serif" font-size="11.00" fill="#000000"> &#160;</text>
<polygon fill="#ffffff" stroke="transparent" points="1012,-39.3692 1012,-58.3692 1075,-58.3692 1075,-39.3692 1012,-39.3692"/>
<polygon fill="none" stroke="#000000" points="1012,-39.3692 1012,-58.3692 1075,-58.3692 1075,-39.3692 1012,-39.3692"/>
<text text-anchor="start" x="1065.8862" y="-45.4692" font-family="Helvetica,sans-Serif" font-size="11.00" fill="#000000"> &#160;</text>
</a>
</g>
</g>
<!-- temporary_absence_movement&#45;&gt;temporary_absence_occurrence -->
<g id="edge9" class="edge">
<title>temporary_absence_movement:w&#45;&gt;temporary_absence_occurrence:e</title>
<path fill="none" stroke="#000000" d="M811.6586,-69.1107C734.0207,-90.4324 867.5037,-300.3692 766,-300.3692"/>
<polygon fill="#000000" stroke="#000000" points="818.0583,-68.3336 826.434,-70.943 822.0292,-67.8514 826,-67.3692 826,-67.3692 826,-67.3692 822.0292,-67.8514 825.566,-63.7955 818.0583,-68.3336 818.0583,-68.3336"/>
<ellipse fill="none" stroke="#000000" cx="814.8817" cy="-68.7194" rx="3.2" ry="3.2"/>
</g>
<!-- temporary_absence_movement&#45;&gt;reference_data -->
<g id="edge7" class="edge">
<title>temporary_absence_movement:w&#45;&gt;reference_data:e</title>
<path fill="none" stroke="#000000" d="M811.5318,-67.2761C536.7053,-63.7435 407.1222,38.1117 189,-137.3692 149.9659,-168.7725 198.0982,-242.3692 148,-242.3692"/>
<polygon fill="#000000" stroke="#000000" points="818.0002,-67.3177 825.9768,-70.9691 822.0001,-67.3434 826,-67.3692 826,-67.3692 826,-67.3692 822.0001,-67.3434 826.0232,-63.7693 818.0002,-67.3177 818.0002,-67.3177"/>
<ellipse fill="none" stroke="#000000" cx="814.8002" cy="-67.2971" rx="3.2" ry="3.2"/>
</g>
<!-- temporary_absence_movement&#45;&gt;reference_data -->
<g id="edge8" class="edge">
<title>temporary_absence_movement:w&#45;&gt;reference_data:e</title>
<path fill="none" stroke="#000000" d="M811.5222,-67.2796C536.5208,-63.8788 407.3681,34.119 189,-141.3692 151.2367,-171.7171 196.4465,-242.3692 148,-242.3692"/>
<polygon fill="#000000" stroke="#000000" points="818.0002,-67.3196 825.9777,-70.9691 822.0001,-67.3444 826,-67.3692 826,-67.3692 826,-67.3692 822.0001,-67.3444 826.0223,-63.7693 818.0002,-67.3196 818.0002,-67.3196"/>
<ellipse fill="none" stroke="#000000" cx="814.8002" cy="-67.2998" rx="3.2" ry="3.2"/>
</g>
</g>
</svg>
