<?xml version="1.0" encoding="UTF-8" standalone="no"?>
<!DOCTYPE svg PUBLIC "-//W3C//DTD SVG 1.1//EN"
 "http://www.w3.org/Graphics/SVG/1.1/DTD/svg11.dtd">
<!-- Generated by graphviz version 2.40.1 (20161225.0304)
 -->
<!-- Title: oneDegreeRelationshipsDiagram Pages: 1 -->
<svg width="595pt" height="311pt"
 viewBox="0.00 0.00 595.00 310.70" xmlns="http://www.w3.org/2000/svg" xmlns:xlink="http://www.w3.org/1999/xlink">
<g id="graph0" class="graph" transform="scale(1 1) rotate(0) translate(4 306.7)">
<title>oneDegreeRelationshipsDiagram</title>
<polygon fill="#ffffff" stroke="transparent" points="-4,4 -4,-306.7 591,-306.7 591,4 -4,4"/>
<text text-anchor="middle" x="72.4936" y="-7.3" font-family="Helvetica,sans-Serif" font-size="11.00" fill="#000000">Generated by SchemaSpy</text>
<!-- tap_occurrence_action -->
<g id="node1" class="node">
<title>tap_occurrence_action</title>
<g id="a_node1"><a xlink:href="../../tables/tap_occurrence_action.html" xlink:title="tap_occurrence_action" target="_top">
<polygon fill="#ffffff" stroke="transparent" points="309,-164.7 309,-298.7 579,-298.7 579,-164.7 309,-164.7"/>
<polygon fill="#f5f5f5" stroke="transparent" points="311,-273.7 311,-296.7 577,-296.7 577,-273.7 311,-273.7"/>
<polygon fill="none" stroke="#000000" points="311,-273.7 311,-296.7 577,-296.7 577,-273.7 311,-273.7"/>
<text text-anchor="start" x="316" y="-282.3" font-family="Helvetica,sans-Serif" font-weight="bold" font-size="11.00" fill="#000000">tap_occurrence_action</text>
<text text-anchor="start" x="542.0437" y="-281.8" font-family="Helvetica,sans-Serif" font-size="11.00" fill="#000000">[table]</text>
<polygon fill="none" stroke="#000000" points="311,-251.7 311,-273.7 483,-273.7 483,-251.7 311,-251.7"/>
<image xlink:href="../../images/primaryKeys.png" width="11px" height="12px" preserveAspectRatio="xMinYMin meet" x="316" y="-268.7"/>
<text text-anchor="start" x="331" y="-258.8" font-family="Helvetica,sans-Serif" font-size="11.00" fill="#000000">id</text>
<polygon fill="none" stroke="#000000" points="483,-251.7 483,-273.7 577,-273.7 577,-251.7 483,-251.7"/>
<text text-anchor="start" x="485.9758" y="-259.4" font-family="Helvetica,sans-Serif" font-size="11.00" fill="#000000">uuid[2147483647]</text>
<polygon fill="none" stroke="#000000" points="311,-229.7 311,-251.7 483,-251.7 483,-229.7 311,-229.7"/>
<image xlink:href="../../images/foreignKeys.png" width="11px" height="12px" preserveAspectRatio="xMinYMin meet" x="316" y="-246.7"/>
<text text-anchor="start" x="331" y="-236.8" font-family="Helvetica,sans-Serif" font-size="11.00" fill="#000000">occurrence_id</text>
<polygon fill="none" stroke="#000000" points="483,-229.7 483,-251.7 577,-251.7 577,-229.7 483,-229.7"/>
<text text-anchor="start" x="485.9758" y="-237.4" font-family="Helvetica,sans-Serif" font-size="11.00" fill="#000000">uuid[2147483647]</text>
<polygon fill="none" stroke="#000000" points="311,-207.7 311,-229.7 483,-229.7 483,-207.7 311,-207.7"/>
<text text-anchor="start" x="331" y="-214.8" font-family="Helvetica,sans-Serif" font-size="11.00" fill="#000000">type</text>
<polygon fill="none" stroke="#000000" points="483,-207.7 483,-229.7 577,-229.7 577,-207.7 483,-207.7"/>
<text text-anchor="start" x="486" y="-215.4" font-family="Helvetica,sans-Serif" font-size="11.00" fill="#000000">text[2147483647]</text>
<polygon fill="none" stroke="#000000" points="311,-185.7 311,-207.7 483,-207.7 483,-185.7 311,-185.7"/>
<text text-anchor="start" x="331" y="-192.8" font-family="Helvetica,sans-Serif" font-size="11.00" fill="#000000">reason</text>
<polygon fill="none" stroke="#000000" points="483,-185.7 483,-207.7 577,-207.7 577,-185.7 483,-185.7"/>
<text text-anchor="start" x="486" y="-193.4" font-family="Helvetica,sans-Serif" font-size="11.00" fill="#000000">text[2147483647]</text>
<polygon fill="#ffffff" stroke="transparent" points="311,-166.7 311,-185.7 401,-185.7 401,-166.7 311,-166.7"/>
<polygon fill="none" stroke="#000000" points="311,-166.7 311,-185.7 401,-185.7 401,-166.7 311,-166.7"/>
<text text-anchor="start" x="314" y="-172.8" font-family="Helvetica,sans-Serif" font-size="11.00" fill="#000000">&lt; 1</text>
<polygon fill="#ffffff" stroke="transparent" points="401,-166.7 401,-185.7 483,-185.7 483,-166.7 401,-166.7"/>
<polygon fill="none" stroke="#000000" points="401,-166.7 401,-185.7 483,-185.7 483,-166.7 401,-166.7"/>
<text text-anchor="start" x="473.8862" y="-172.8" font-family="Helvetica,sans-Serif" font-size="11.00" fill="#000000"> &#160;</text>
<polygon fill="#ffffff" stroke="transparent" points="483,-166.7 483,-185.7 577,-185.7 577,-166.7 483,-166.7"/>
<polygon fill="none" stroke="#000000" points="483,-166.7 483,-185.7 577,-185.7 577,-166.7 483,-166.7"/>
<text text-anchor="start" x="558.4053" y="-172.8" font-family="Helvetica,sans-Serif" font-size="11.00" fill="#000000">0 &gt;</text>
<polygon fill="none" stroke="#000000" stroke-width="2" points="310,-165.7 310,-297.7 578,-297.7 578,-165.7 310,-165.7"/>
</a>
</g>
</g>
<!-- temporary_absence_occurrence -->
<g id="node2" class="node">
<title>temporary_absence_occurrence</title>
<g id="a_node2"><a xlink:href="../../tables/temporary_absence_occurrence.html" xlink:title="temporary_absence_occurrence" target="_top">
<polygon fill="#ffffff" stroke="transparent" points="8,-38.2 8,-275.2 260,-275.2 260,-38.2 8,-38.2"/>
<polygon fill="#f5f5f5" stroke="transparent" points="8,-251.7 8,-274.7 260,-274.7 260,-251.7 8,-251.7"/>
<polygon fill="none" stroke="#000000" points="8,-251.7 8,-274.7 260,-274.7 260,-251.7 8,-251.7"/>
<text text-anchor="start" x="13" y="-260.3" font-family="Helvetica,sans-Serif" font-weight="bold" font-size="11.00" fill="#000000">temporary_absence_occurrence</text>
<text text-anchor="start" x="225.5219" y="-259.8" font-family="Helvetica,sans-Serif" font-size="11.00" fill="#000000">[table]</text>
<polygon fill="none" stroke="#000000" points="8,-229.7 8,-251.7 260,-251.7 260,-229.7 8,-229.7"/>
<image xlink:href="../../images/primaryKeys.png" width="11px" height="12px" preserveAspectRatio="xMinYMin meet" x="13" y="-246.7"/>
<text text-anchor="start" x="37" y="-236.8" font-family="Helvetica,sans-Serif" font-size="11.00" fill="#000000">id</text>
<polygon fill="#ffffff" stroke="transparent" points="8,-207.7 8,-229.7 260,-229.7 260,-207.7 8,-207.7"/>
<polygon fill="none" stroke="#000000" points="8,-207.7 8,-229.7 260,-229.7 260,-207.7 8,-207.7"/>
<text text-anchor="start" x="37" y="-214.8" font-family="Helvetica,sans-Serif" font-size="11.00" fill="#000000">person_identifier</text>
<polygon fill="#ffffff" stroke="transparent" points="8,-185.7 8,-207.7 260,-207.7 260,-185.7 8,-185.7"/>
<polygon fill="none" stroke="#000000" points="8,-185.7 8,-207.7 260,-207.7 260,-185.7 8,-185.7"/>
<image xlink:href="../../images/foreignKeys.png" width="11px" height="12px" preserveAspectRatio="xMinYMin meet" x="13" y="-202.7"/>
<text text-anchor="start" x="37" y="-192.8" font-family="Helvetica,sans-Serif" font-size="11.00" fill="#000000">authorisation_id</text>
<polygon fill="#ffffff" stroke="transparent" points="8,-163.7 8,-185.7 260,-185.7 260,-163.7 8,-163.7"/>
<polygon fill="none" stroke="#000000" points="8,-163.7 8,-185.7 260,-185.7 260,-163.7 8,-163.7"/>
<text text-anchor="start" x="37" y="-170.8" font-family="Helvetica,sans-Serif" font-size="11.00" fill="#000000">release_at</text>
<polygon fill="#ffffff" stroke="transparent" points="8,-141.7 8,-163.7 260,-163.7 260,-141.7 8,-141.7"/>
<polygon fill="none" stroke="#000000" points="8,-141.7 8,-163.7 260,-163.7 260,-141.7 8,-141.7"/>
<text text-anchor="start" x="37" y="-148.8" font-family="Helvetica,sans-Serif" font-size="11.00" fill="#000000">return_by</text>
<polygon fill="none" stroke="#000000" points="8,-119.7 8,-141.7 260,-141.7 260,-119.7 8,-119.7"/>
<image xlink:href="../../images/foreignKeys.png" width="11px" height="12px" preserveAspectRatio="xMinYMin meet" x="13" y="-136.7"/>
<text text-anchor="start" x="37" y="-126.8" font-family="Helvetica,sans-Serif" font-size="11.00" fill="#000000">accompanied_by_id</text>
<polygon fill="none" stroke="#000000" points="8,-97.7 8,-119.7 260,-119.7 260,-97.7 8,-97.7"/>
<image xlink:href="../../images/foreignKeys.png" width="11px" height="12px" preserveAspectRatio="xMinYMin meet" x="13" y="-114.7"/>
<text text-anchor="start" x="37" y="-104.8" font-family="Helvetica,sans-Serif" font-size="11.00" fill="#000000">transport_id</text>
<polygon fill="#ffffff" stroke="transparent" points="8,-75.7 8,-97.7 260,-97.7 260,-75.7 8,-75.7"/>
<polygon fill="none" stroke="#000000" points="8,-75.7 8,-97.7 260,-97.7 260,-75.7 8,-75.7"/>
<text text-anchor="start" x="37" y="-82.8" font-family="Helvetica,sans-Serif" font-size="11.00" fill="#000000">legacy_id</text>
<polygon fill="none" stroke="#000000" points="8,-56.7 8,-75.7 260,-75.7 260,-56.7 8,-56.7"/>
<text text-anchor="start" x="11" y="-62.8" font-family="Helvetica,sans-Serif" font-size="11.00" fill="#000000">...</text>
<polygon fill="#ffffff" stroke="transparent" points="8,-37.7 8,-56.7 128,-56.7 128,-37.7 8,-37.7"/>
<polygon fill="none" stroke="#000000" points="8,-37.7 8,-56.7 128,-56.7 128,-37.7 8,-37.7"/>
<text text-anchor="start" x="11" y="-43.8" font-family="Helvetica,sans-Serif" font-size="11.00" fill="#000000">&lt; 3</text>
<polygon fill="#ffffff" stroke="transparent" points="128,-37.7 128,-56.7 189,-56.7 189,-37.7 128,-37.7"/>
<polygon fill="none" stroke="#000000" points="128,-37.7 128,-56.7 189,-56.7 189,-37.7 128,-37.7"/>
<text text-anchor="start" x="179.8862" y="-43.8" font-family="Helvetica,sans-Serif" font-size="11.00" fill="#000000"> &#160;</text>
<polygon fill="#ffffff" stroke="transparent" points="189,-37.7 189,-56.7 260,-56.7 260,-37.7 189,-37.7"/>
<polygon fill="none" stroke="#000000" points="189,-37.7 189,-56.7 260,-56.7 260,-37.7 189,-37.7"/>
<text text-anchor="start" x="241.4053" y="-43.8" font-family="Helvetica,sans-Serif" font-size="11.00" fill="#000000">2 &gt;</text>
</a>
</g>
</g>
<!-- tap_occurrence_action&#45;&gt;temporary_absence_occurrence -->
<g id="edge1" class="edge">
<title>tap_occurrence_action:w&#45;&gt;temporary_absence_occurrence:e</title>
<path fill="none" stroke="#000000" d="M296.276,-240.7C284.2815,-240.7 276.8229,-240.7 260,-240.7"/>
<polygon fill="#000000" stroke="#000000" points="303,-240.7001 311,-244.3 307,-240.7 311,-240.7 311,-240.7 311,-240.7 307,-240.7 311,-237.1 303,-240.7001 303,-240.7001"/>
<ellipse fill="none" stroke="#000000" cx="299.8" cy="-240.7001" rx="3.2" ry="3.2"/>
</g>
</g>
</svg>
