<?xml version="1.0" encoding="UTF-8" standalone="no"?>
<!DOCTYPE svg PUBLIC "-//W3C//DTD SVG 1.1//EN"
 "http://www.w3.org/Graphics/SVG/1.1/DTD/svg11.dtd">
<!-- Generated by graphviz version 2.40.1 (20161225.0304)
 -->
<!-- Title: twoDegreesRelationshipsDiagram Pages: 1 -->
<svg width="582pt" height="651pt"
 viewBox="0.00 0.00 582.00 651.20" xmlns="http://www.w3.org/2000/svg" xmlns:xlink="http://www.w3.org/1999/xlink">
<g id="graph0" class="graph" transform="scale(1 1) rotate(0) translate(4 647.2)">
<title>twoDegreesRelationshipsDiagram</title>
<polygon fill="#ffffff" stroke="transparent" points="-4,4 -4,-647.2 578,-647.2 578,4 -4,4"/>
<text text-anchor="middle" x="72.4936" y="-7.3" font-family="Helvetica,sans-Serif" font-size="11.00" fill="#000000">Generated by SchemaSpy</text>
<!-- hmpps_domain_event_audit -->
<g id="node1" class="node">
<title>hmpps_domain_event_audit</title>
<g id="a_node1"><a xlink:href="../../tables/hmpps_domain_event_audit.html" xlink:title="hmpps_domain_event_audit" target="_top">
<polygon fill="#ffffff" stroke="transparent" points="266,-578.2 266,-639.2 491,-639.2 491,-578.2 266,-578.2"/>
<polygon fill="#f5f5f5" stroke="transparent" points="266.5,-615.7 266.5,-638.7 491.5,-638.7 491.5,-615.7 266.5,-615.7"/>
<polygon fill="none" stroke="#000000" points="266.5,-615.7 266.5,-638.7 491.5,-638.7 491.5,-615.7 266.5,-615.7"/>
<text text-anchor="start" x="271.5" y="-624.3" font-family="Helvetica,sans-Serif" font-weight="bold" font-size="11.00" fill="#000000">hmpps_domain_event_audit</text>
<text text-anchor="start" x="457.0219" y="-623.8" font-family="Helvetica,sans-Serif" font-size="11.00" fill="#000000">[table]</text>
<polygon fill="none" stroke="#000000" points="266.5,-596.7 266.5,-615.7 491.5,-615.7 491.5,-596.7 266.5,-596.7"/>
<text text-anchor="start" x="269.5" y="-602.8" font-family="Helvetica,sans-Serif" font-size="11.00" fill="#000000">...</text>
<polygon fill="#ffffff" stroke="transparent" points="266.5,-577.7 266.5,-596.7 377.5,-596.7 377.5,-577.7 266.5,-577.7"/>
<polygon fill="none" stroke="#000000" points="266.5,-577.7 266.5,-596.7 377.5,-596.7 377.5,-577.7 266.5,-577.7"/>
<text text-anchor="start" x="269.5" y="-583.8" font-family="Helvetica,sans-Serif" font-size="11.00" fill="#000000">&lt; 1</text>
<polygon fill="#ffffff" stroke="transparent" points="377.5,-577.7 377.5,-596.7 434.5,-596.7 434.5,-577.7 377.5,-577.7"/>
<polygon fill="none" stroke="#000000" points="377.5,-577.7 377.5,-596.7 434.5,-596.7 434.5,-577.7 377.5,-577.7"/>
<text text-anchor="start" x="425.3862" y="-583.8" font-family="Helvetica,sans-Serif" font-size="11.00" fill="#000000"> &#160;</text>
<polygon fill="#ffffff" stroke="transparent" points="434.5,-577.7 434.5,-596.7 491.5,-596.7 491.5,-577.7 434.5,-577.7"/>
<polygon fill="none" stroke="#000000" points="434.5,-577.7 434.5,-596.7 491.5,-596.7 491.5,-577.7 434.5,-577.7"/>
<text text-anchor="start" x="482.3862" y="-583.8" font-family="Helvetica,sans-Serif" font-size="11.00" fill="#000000"> &#160;</text>
</a>
</g>
</g>
<!-- audit_revision -->
<g id="node2" class="node">
<title>audit_revision</title>
<g id="a_node2"><a xlink:href="../../tables/audit_revision.html" xlink:title="audit_revision" target="_top">
<polygon fill="#ffffff" stroke="transparent" points="8,-432.2 8,-515.2 142,-515.2 142,-432.2 8,-432.2"/>
<polygon fill="#f5f5f5" stroke="transparent" points="8,-491.7 8,-514.7 142,-514.7 142,-491.7 8,-491.7"/>
<polygon fill="none" stroke="#000000" points="8,-491.7 8,-514.7 142,-514.7 142,-491.7 8,-491.7"/>
<text text-anchor="start" x="13" y="-500.3" font-family="Helvetica,sans-Serif" font-weight="bold" font-size="11.00" fill="#000000">audit_revision</text>
<text text-anchor="start" x="107.5219" y="-499.8" font-family="Helvetica,sans-Serif" font-size="11.00" fill="#000000">[table]</text>
<polygon fill="none" stroke="#000000" points="8,-469.7 8,-491.7 142,-491.7 142,-469.7 8,-469.7"/>
<image xlink:href="../../images/primaryKeys.png" width="11px" height="12px" preserveAspectRatio="xMinYMin meet" x="13" y="-486.7"/>
<text text-anchor="start" x="28" y="-476.8" font-family="Helvetica,sans-Serif" font-size="11.00" fill="#000000">id</text>
<polygon fill="none" stroke="#000000" points="8,-450.7 8,-469.7 142,-469.7 142,-450.7 8,-450.7"/>
<text text-anchor="start" x="11" y="-456.8" font-family="Helvetica,sans-Serif" font-size="11.00" fill="#000000">...</text>
<polygon fill="#ffffff" stroke="transparent" points="8,-431.7 8,-450.7 64,-450.7 64,-431.7 8,-431.7"/>
<polygon fill="none" stroke="#000000" points="8,-431.7 8,-450.7 64,-450.7 64,-431.7 8,-431.7"/>
<text text-anchor="start" x="11" y="-437.8" font-family="Helvetica,sans-Serif" font-size="11.00" fill="#000000"> &#160;</text>
<polygon fill="#ffffff" stroke="transparent" points="64,-431.7 64,-450.7 98,-450.7 98,-431.7 64,-431.7"/>
<polygon fill="none" stroke="#000000" points="64,-431.7 64,-450.7 98,-450.7 98,-431.7 64,-431.7"/>
<text text-anchor="start" x="88.8862" y="-437.8" font-family="Helvetica,sans-Serif" font-size="11.00" fill="#000000"> &#160;</text>
<polygon fill="#ffffff" stroke="transparent" points="98,-431.7 98,-450.7 142,-450.7 142,-431.7 98,-431.7"/>
<polygon fill="none" stroke="#000000" points="98,-431.7 98,-450.7 142,-450.7 142,-431.7 98,-431.7"/>
<text text-anchor="start" x="123.4053" y="-437.8" font-family="Helvetica,sans-Serif" font-size="11.00" fill="#000000">4 &gt;</text>
</a>
</g>
</g>
<!-- hmpps_domain_event_audit&#45;&gt;audit_revision -->
<g id="edge1" class="edge">
<title>hmpps_domain_event_audit:w&#45;&gt;audit_revision:e</title>
<path fill="none" stroke="#000000" d="M251.9908,-605.2121C221.939,-602.9662 208.2813,-592.6468 183,-567.7 152.5739,-537.6764 184.7453,-480.7 142,-480.7"/>
<polygon fill="#000000" stroke="#000000" points="258.5045,-605.4311 266.379,-609.298 262.5023,-605.5655 266.5,-605.7 266.5,-605.7 266.5,-605.7 262.5023,-605.5655 266.621,-602.102 258.5045,-605.4311 258.5045,-605.4311"/>
<ellipse fill="none" stroke="#000000" cx="255.3063" cy="-605.3235" rx="3.2" ry="3.2"/>
</g>
<!-- temporary_absence_authorisation_audit -->
<g id="node3" class="node">
<title>temporary_absence_authorisation_audit</title>
<g id="a_node3"><a xlink:href="../../tables/temporary_absence_authorisation_audit.html" xlink:title="temporary_absence_authorisation_audit" target="_top">
<polygon fill="#ffffff" stroke="transparent" points="224,-496.2 224,-557.2 533,-557.2 533,-496.2 224,-496.2"/>
<polygon fill="#f5f5f5" stroke="transparent" points="224.5,-533.7 224.5,-556.7 533.5,-556.7 533.5,-533.7 224.5,-533.7"/>
<polygon fill="none" stroke="#000000" points="224.5,-533.7 224.5,-556.7 533.5,-556.7 533.5,-533.7 224.5,-533.7"/>
<text text-anchor="start" x="229.5" y="-542.3" font-family="Helvetica,sans-Serif" font-weight="bold" font-size="11.00" fill="#000000">temporary_absence_authorisation_audit</text>
<text text-anchor="start" x="499.0219" y="-541.8" font-family="Helvetica,sans-Serif" font-size="11.00" fill="#000000">[table]</text>
<polygon fill="none" stroke="#000000" points="224.5,-514.7 224.5,-533.7 533.5,-533.7 533.5,-514.7 224.5,-514.7"/>
<text text-anchor="start" x="227.5" y="-520.8" font-family="Helvetica,sans-Serif" font-size="11.00" fill="#000000">...</text>
<polygon fill="#ffffff" stroke="transparent" points="224.5,-495.7 224.5,-514.7 377.5,-514.7 377.5,-495.7 224.5,-495.7"/>
<polygon fill="none" stroke="#000000" points="224.5,-495.7 224.5,-514.7 377.5,-514.7 377.5,-495.7 224.5,-495.7"/>
<text text-anchor="start" x="227.5" y="-501.8" font-family="Helvetica,sans-Serif" font-size="11.00" fill="#000000">&lt; 1</text>
<polygon fill="#ffffff" stroke="transparent" points="377.5,-495.7 377.5,-514.7 455.5,-514.7 455.5,-495.7 377.5,-495.7"/>
<polygon fill="none" stroke="#000000" points="377.5,-495.7 377.5,-514.7 455.5,-514.7 455.5,-495.7 377.5,-495.7"/>
<text text-anchor="start" x="446.3862" y="-501.8" font-family="Helvetica,sans-Serif" font-size="11.00" fill="#000000"> &#160;</text>
<polygon fill="#ffffff" stroke="transparent" points="455.5,-495.7 455.5,-514.7 533.5,-514.7 533.5,-495.7 455.5,-495.7"/>
<polygon fill="none" stroke="#000000" points="455.5,-495.7 455.5,-514.7 533.5,-514.7 533.5,-495.7 455.5,-495.7"/>
<text text-anchor="start" x="524.3862" y="-501.8" font-family="Helvetica,sans-Serif" font-size="11.00" fill="#000000"> &#160;</text>
</a>
</g>
</g>
<!-- temporary_absence_authorisation_audit&#45;&gt;audit_revision -->
<g id="edge2" class="edge">
<title>temporary_absence_authorisation_audit:w&#45;&gt;audit_revision:e</title>
<path fill="none" stroke="#000000" d="M210.0291,-521.626C182.4711,-513.0366 177.8567,-480.7 142,-480.7"/>
<polygon fill="#000000" stroke="#000000" points="216.5809,-522.565 223.9892,-527.2636 220.5405,-523.1325 224.5,-523.7 224.5,-523.7 224.5,-523.7 220.5405,-523.1325 225.0108,-520.1364 216.5809,-522.565 216.5809,-522.565"/>
<ellipse fill="none" stroke="#000000" cx="213.4133" cy="-522.111" rx="3.2" ry="3.2"/>
</g>
<!-- temporary_absence_movement_audit -->
<g id="node4" class="node">
<title>temporary_absence_movement_audit</title>
<g id="a_node4"><a xlink:href="../../tables/temporary_absence_movement_audit.html" xlink:title="temporary_absence_movement_audit" target="_top">
<polygon fill="#ffffff" stroke="transparent" points="191,-120.7 191,-474.7 566,-474.7 566,-120.7 191,-120.7"/>
<polygon fill="#f5f5f5" stroke="transparent" points="193.5,-449.7 193.5,-472.7 564.5,-472.7 564.5,-449.7 193.5,-449.7"/>
<polygon fill="none" stroke="#000000" points="193.5,-449.7 193.5,-472.7 564.5,-472.7 564.5,-449.7 193.5,-449.7"/>
<text text-anchor="start" x="198.5" y="-458.3" font-family="Helvetica,sans-Serif" font-weight="bold" font-size="11.00" fill="#000000">temporary_absence_movement_audit</text>
<text text-anchor="start" x="529.5437" y="-457.8" font-family="Helvetica,sans-Serif" font-size="11.00" fill="#000000">[table]</text>
<polygon fill="none" stroke="#000000" points="193.5,-427.7 193.5,-449.7 465.5,-449.7 465.5,-427.7 193.5,-427.7"/>
<image xlink:href="../../images/primaryKeys.png" width="11px" height="12px" preserveAspectRatio="xMinYMin meet" x="198.5" y="-444.7"/>
<text text-anchor="start" x="213.5" y="-434.8" font-family="Helvetica,sans-Serif" font-size="11.00" fill="#000000">rev_id</text>
<polygon fill="none" stroke="#000000" points="465.5,-427.7 465.5,-449.7 564.5,-449.7 564.5,-427.7 465.5,-427.7"/>
<text text-anchor="start" x="468.5" y="-435.4" font-family="Helvetica,sans-Serif" font-size="11.00" fill="#000000">int8[19]</text>
<polygon fill="none" stroke="#000000" points="193.5,-405.7 193.5,-427.7 465.5,-427.7 465.5,-405.7 193.5,-405.7"/>
<text text-anchor="start" x="213.5" y="-412.8" font-family="Helvetica,sans-Serif" font-size="11.00" fill="#000000">rev_type</text>
<polygon fill="none" stroke="#000000" points="465.5,-405.7 465.5,-427.7 564.5,-427.7 564.5,-405.7 465.5,-405.7"/>
<text text-anchor="start" x="468.5" y="-413.4" font-family="Helvetica,sans-Serif" font-size="11.00" fill="#000000">int2[5]</text>
<polygon fill="none" stroke="#000000" points="193.5,-383.7 193.5,-405.7 465.5,-405.7 465.5,-383.7 193.5,-383.7"/>
<image xlink:href="../../images/primaryKeys.png" width="11px" height="12px" preserveAspectRatio="xMinYMin meet" x="198.5" y="-400.7"/>
<text text-anchor="start" x="213.5" y="-390.8" font-family="Helvetica,sans-Serif" font-size="11.00" fill="#000000">id</text>
<polygon fill="none" stroke="#000000" points="465.5,-383.7 465.5,-405.7 564.5,-405.7 564.5,-383.7 465.5,-383.7"/>
<text text-anchor="start" x="468.5" y="-391.4" font-family="Helvetica,sans-Serif" font-size="11.00" fill="#000000">uuid[2147483647]</text>
<polygon fill="none" stroke="#000000" points="193.5,-361.7 193.5,-383.7 465.5,-383.7 465.5,-361.7 193.5,-361.7"/>
<image xlink:href="../../images/foreignKeys.png" width="11px" height="12px" preserveAspectRatio="xMinYMin meet" x="198.5" y="-378.7"/>
<text text-anchor="start" x="213.5" y="-368.8" font-family="Helvetica,sans-Serif" font-size="11.00" fill="#000000">person_identifier</text>
<polygon fill="none" stroke="#000000" points="465.5,-361.7 465.5,-383.7 564.5,-383.7 564.5,-361.7 465.5,-361.7"/>
<text text-anchor="start" x="468.5" y="-369.4" font-family="Helvetica,sans-Serif" font-size="11.00" fill="#000000">varchar[10]</text>
<polygon fill="none" stroke="#000000" points="193.5,-339.7 193.5,-361.7 465.5,-361.7 465.5,-339.7 193.5,-339.7"/>
<text text-anchor="start" x="213.5" y="-346.8" font-family="Helvetica,sans-Serif" font-size="11.00" fill="#000000">occurrence_id</text>
<polygon fill="none" stroke="#000000" points="465.5,-339.7 465.5,-361.7 564.5,-361.7 564.5,-339.7 465.5,-339.7"/>
<text text-anchor="start" x="468.5" y="-347.4" font-family="Helvetica,sans-Serif" font-size="11.00" fill="#000000">uuid[2147483647]</text>
<polygon fill="none" stroke="#000000" points="193.5,-317.7 193.5,-339.7 465.5,-339.7 465.5,-317.7 193.5,-317.7"/>
<text text-anchor="start" x="213.5" y="-324.8" font-family="Helvetica,sans-Serif" font-size="11.00" fill="#000000">occurred_at</text>
<polygon fill="none" stroke="#000000" points="465.5,-317.7 465.5,-339.7 564.5,-339.7 564.5,-317.7 465.5,-317.7"/>
<text text-anchor="start" x="468.5" y="-325.4" font-family="Helvetica,sans-Serif" font-size="11.00" fill="#000000">timestamp[29,6]</text>
<polygon fill="none" stroke="#000000" points="193.5,-295.7 193.5,-317.7 465.5,-317.7 465.5,-295.7 193.5,-295.7"/>
<text text-anchor="start" x="213.5" y="-302.8" font-family="Helvetica,sans-Serif" font-size="11.00" fill="#000000">direction</text>
<polygon fill="none" stroke="#000000" points="465.5,-295.7 465.5,-317.7 564.5,-317.7 564.5,-295.7 465.5,-295.7"/>
<text text-anchor="start" x="468.5" y="-303.4" font-family="Helvetica,sans-Serif" font-size="11.00" fill="#000000">varchar[3]</text>
<polygon fill="none" stroke="#000000" points="193.5,-273.7 193.5,-295.7 465.5,-295.7 465.5,-273.7 193.5,-273.7"/>
<text text-anchor="start" x="213.5" y="-280.8" font-family="Helvetica,sans-Serif" font-size="11.00" fill="#000000">absence_reason_id</text>
<polygon fill="none" stroke="#000000" points="465.5,-273.7 465.5,-295.7 564.5,-295.7 564.5,-273.7 465.5,-273.7"/>
<text text-anchor="start" x="468.5" y="-281.4" font-family="Helvetica,sans-Serif" font-size="11.00" fill="#000000">int8[19]</text>
<polygon fill="none" stroke="#000000" points="193.5,-251.7 193.5,-273.7 465.5,-273.7 465.5,-251.7 193.5,-251.7"/>
<text text-anchor="start" x="213.5" y="-258.8" font-family="Helvetica,sans-Serif" font-size="11.00" fill="#000000">accompanied_by_id</text>
<polygon fill="none" stroke="#000000" points="465.5,-251.7 465.5,-273.7 564.5,-273.7 564.5,-251.7 465.5,-251.7"/>
<text text-anchor="start" x="468.5" y="-259.4" font-family="Helvetica,sans-Serif" font-size="11.00" fill="#000000">int8[19]</text>
<polygon fill="none" stroke="#000000" points="193.5,-229.7 193.5,-251.7 465.5,-251.7 465.5,-229.7 193.5,-229.7"/>
<text text-anchor="start" x="213.5" y="-236.8" font-family="Helvetica,sans-Serif" font-size="11.00" fill="#000000">accompanied_by_notes</text>
<polygon fill="none" stroke="#000000" points="465.5,-229.7 465.5,-251.7 564.5,-251.7 564.5,-229.7 465.5,-229.7"/>
<text text-anchor="start" x="468.5" y="-237.4" font-family="Helvetica,sans-Serif" font-size="11.00" fill="#000000">text[2147483647]</text>
<polygon fill="none" stroke="#000000" points="193.5,-207.7 193.5,-229.7 465.5,-229.7 465.5,-207.7 193.5,-207.7"/>
<text text-anchor="start" x="213.5" y="-214.8" font-family="Helvetica,sans-Serif" font-size="11.00" fill="#000000">notes</text>
<polygon fill="none" stroke="#000000" points="465.5,-207.7 465.5,-229.7 564.5,-229.7 564.5,-207.7 465.5,-207.7"/>
<text text-anchor="start" x="468.5" y="-215.4" font-family="Helvetica,sans-Serif" font-size="11.00" fill="#000000">text[2147483647]</text>
<polygon fill="none" stroke="#000000" points="193.5,-185.7 193.5,-207.7 465.5,-207.7 465.5,-185.7 193.5,-185.7"/>
<text text-anchor="start" x="213.5" y="-192.8" font-family="Helvetica,sans-Serif" font-size="11.00" fill="#000000">recorded_by_prison_code</text>
<polygon fill="none" stroke="#000000" points="465.5,-185.7 465.5,-207.7 564.5,-207.7 564.5,-185.7 465.5,-185.7"/>
<text text-anchor="start" x="468.5" y="-193.4" font-family="Helvetica,sans-Serif" font-size="11.00" fill="#000000">varchar[6]</text>
<polygon fill="none" stroke="#000000" points="193.5,-163.7 193.5,-185.7 465.5,-185.7 465.5,-163.7 193.5,-163.7"/>
<text text-anchor="start" x="213.5" y="-170.8" font-family="Helvetica,sans-Serif" font-size="11.00" fill="#000000">legacy_id</text>
<polygon fill="none" stroke="#000000" points="465.5,-163.7 465.5,-185.7 564.5,-185.7 564.5,-163.7 465.5,-163.7"/>
<text text-anchor="start" x="468.5" y="-171.4" font-family="Helvetica,sans-Serif" font-size="11.00" fill="#000000">varchar[32]</text>
<polygon fill="none" stroke="#000000" points="193.5,-141.7 193.5,-163.7 465.5,-163.7 465.5,-141.7 193.5,-141.7"/>
<text text-anchor="start" x="213.5" y="-148.8" font-family="Helvetica,sans-Serif" font-size="11.00" fill="#000000">location</text>
<polygon fill="none" stroke="#000000" points="465.5,-141.7 465.5,-163.7 564.5,-163.7 564.5,-141.7 465.5,-141.7"/>
<text text-anchor="start" x="468.2258" y="-149.4" font-family="Helvetica,sans-Serif" font-size="11.00" fill="#000000">jsonb[2147483647]</text>
<polygon fill="#ffffff" stroke="transparent" points="193.5,-122.7 193.5,-141.7 333.5,-141.7 333.5,-122.7 193.5,-122.7"/>
<polygon fill="none" stroke="#000000" points="193.5,-122.7 193.5,-141.7 333.5,-141.7 333.5,-122.7 193.5,-122.7"/>
<text text-anchor="start" x="196.5" y="-128.8" font-family="Helvetica,sans-Serif" font-size="11.00" fill="#000000">&lt; 1</text>
<polygon fill="#ffffff" stroke="transparent" points="333.5,-122.7 333.5,-141.7 465.5,-141.7 465.5,-122.7 333.5,-122.7"/>
<polygon fill="none" stroke="#000000" points="333.5,-122.7 333.5,-141.7 465.5,-141.7 465.5,-122.7 333.5,-122.7"/>
<text text-anchor="start" x="456.3862" y="-128.8" font-family="Helvetica,sans-Serif" font-size="11.00" fill="#000000"> &#160;</text>
<polygon fill="#ffffff" stroke="transparent" points="465.5,-122.7 465.5,-141.7 564.5,-141.7 564.5,-122.7 465.5,-122.7"/>
<polygon fill="none" stroke="#000000" points="465.5,-122.7 465.5,-141.7 564.5,-141.7 564.5,-122.7 465.5,-122.7"/>
<text text-anchor="start" x="545.9053" y="-128.8" font-family="Helvetica,sans-Serif" font-size="11.00" fill="#000000">0 &gt;</text>
<polygon fill="none" stroke="#000000" stroke-width="2" points="192,-121.7 192,-473.7 565,-473.7 565,-121.7 192,-121.7"/>
</a>
</g>
</g>
<!-- temporary_absence_movement_audit&#45;&gt;audit_revision -->
<g id="edge3" class="edge">
<title>temporary_absence_movement_audit:w&#45;&gt;audit_revision:e</title>
<path fill="none" stroke="#000000" d="M179.4729,-443.1947C165.5092,-454.0296 165.5361,-480.7 142,-480.7"/>
<polygon fill="#000000" stroke="#000000" points="185.8816,-441.1412 194.5986,-442.1283 189.6908,-439.9206 193.5,-438.7 193.5,-438.7 193.5,-438.7 189.6908,-439.9206 192.4014,-435.2717 185.8816,-441.1412 185.8816,-441.1412"/>
<ellipse fill="none" stroke="#000000" cx="182.8342" cy="-442.1177" rx="3.2" ry="3.2"/>
</g>
<!-- temporary_absence_occurrence_audit -->
<g id="node5" class="node">
<title>temporary_absence_occurrence_audit</title>
<g id="a_node5"><a xlink:href="../../tables/temporary_absence_occurrence_audit.html" xlink:title="temporary_absence_occurrence_audit" target="_top">
<polygon fill="#ffffff" stroke="transparent" points="232,-38.2 232,-99.2 525,-99.2 525,-38.2 232,-38.2"/>
<polygon fill="#f5f5f5" stroke="transparent" points="232.5,-75.7 232.5,-98.7 525.5,-98.7 525.5,-75.7 232.5,-75.7"/>
<polygon fill="none" stroke="#000000" points="232.5,-75.7 232.5,-98.7 525.5,-98.7 525.5,-75.7 232.5,-75.7"/>
<text text-anchor="start" x="237.5" y="-84.3" font-family="Helvetica,sans-Serif" font-weight="bold" font-size="11.00" fill="#000000">temporary_absence_occurrence_audit</text>
<text text-anchor="start" x="491.0219" y="-83.8" font-family="Helvetica,sans-Serif" font-size="11.00" fill="#000000">[table]</text>
<polygon fill="none" stroke="#000000" points="232.5,-56.7 232.5,-75.7 525.5,-75.7 525.5,-56.7 232.5,-56.7"/>
<text text-anchor="start" x="235.5" y="-62.8" font-family="Helvetica,sans-Serif" font-size="11.00" fill="#000000">...</text>
<polygon fill="#ffffff" stroke="transparent" points="232.5,-37.7 232.5,-56.7 377.5,-56.7 377.5,-37.7 232.5,-37.7"/>
<polygon fill="none" stroke="#000000" points="232.5,-37.7 232.5,-56.7 377.5,-56.7 377.5,-37.7 232.5,-37.7"/>
<text text-anchor="start" x="235.5" y="-43.8" font-family="Helvetica,sans-Serif" font-size="11.00" fill="#000000">&lt; 1</text>
<polygon fill="#ffffff" stroke="transparent" points="377.5,-37.7 377.5,-56.7 451.5,-56.7 451.5,-37.7 377.5,-37.7"/>
<polygon fill="none" stroke="#000000" points="377.5,-37.7 377.5,-56.7 451.5,-56.7 451.5,-37.7 377.5,-37.7"/>
<text text-anchor="start" x="442.3862" y="-43.8" font-family="Helvetica,sans-Serif" font-size="11.00" fill="#000000"> &#160;</text>
<polygon fill="#ffffff" stroke="transparent" points="451.5,-37.7 451.5,-56.7 525.5,-56.7 525.5,-37.7 451.5,-37.7"/>
<polygon fill="none" stroke="#000000" points="451.5,-37.7 451.5,-56.7 525.5,-56.7 525.5,-37.7 451.5,-37.7"/>
<text text-anchor="start" x="516.3862" y="-43.8" font-family="Helvetica,sans-Serif" font-size="11.00" fill="#000000"> &#160;</text>
</a>
</g>
</g>
<!-- temporary_absence_occurrence_audit&#45;&gt;audit_revision -->
<g id="edge4" class="edge">
<title>temporary_absence_occurrence_audit:w&#45;&gt;audit_revision:e</title>
<path fill="none" stroke="#000000" d="M218.0489,-67.5832C200.1661,-72.9231 193.9765,-89.1804 183,-110.7 145.4116,-184.3927 224.7255,-480.7 142,-480.7"/>
<polygon fill="#000000" stroke="#000000" points="224.5671,-66.7338 232.9652,-69.2698 228.5335,-66.2169 232.5,-65.7 232.5,-65.7 232.5,-65.7 228.5335,-66.2169 232.0348,-62.1302 224.5671,-66.7338 224.5671,-66.7338"/>
<ellipse fill="none" stroke="#000000" cx="221.3939" cy="-67.1473" rx="3.2" ry="3.2"/>
</g>
</g>
</svg>
