<?xml version="1.0" encoding="UTF-8" standalone="no"?>
<!DOCTYPE svg PUBLIC "-//W3C//DTD SVG 1.1//EN"
 "http://www.w3.org/Graphics/SVG/1.1/DTD/svg11.dtd">
<!-- Generated by graphviz version 2.40.1 (20161225.0304)
 -->
<!-- Title: oneDegreeRelationshipsDiagram Pages: 1 -->
<svg width="851pt" height="566pt"
 viewBox="0.00 0.00 851.00 565.81" xmlns="http://www.w3.org/2000/svg" xmlns:xlink="http://www.w3.org/1999/xlink">
<g id="graph0" class="graph" transform="scale(1 1) rotate(0) translate(4 561.8072)">
<title>oneDegreeRelationshipsDiagram</title>
<polygon fill="#ffffff" stroke="transparent" points="-4,4 -4,-561.8072 847,-561.8072 847,4 -4,4"/>
<text text-anchor="middle" x="72.4936" y="-7.3" font-family="Helvetica,sans-Serif" font-size="11.00" fill="#000000">Generated by SchemaSpy</text>
<!-- temporary_absence_movement -->
<g id="node1" class="node">
<title>temporary_absence_movement</title>
<g id="a_node1"><a xlink:href="../../tables/temporary_absence_movement.html" xlink:title="temporary_absence_movement" target="_top">
<polygon fill="#ffffff" stroke="transparent" points="501,-60.3072 501,-392.3072 835,-392.3072 835,-60.3072 501,-60.3072"/>
<polygon fill="#f5f5f5" stroke="transparent" points="503,-367.3072 503,-390.3072 833,-390.3072 833,-367.3072 503,-367.3072"/>
<polygon fill="none" stroke="#000000" points="503,-367.3072 503,-390.3072 833,-390.3072 833,-367.3072 503,-367.3072"/>
<text text-anchor="start" x="508" y="-375.9072" font-family="Helvetica,sans-Serif" font-weight="bold" font-size="11.00" fill="#000000">temporary_absence_movement</text>
<text text-anchor="start" x="798.0437" y="-375.4072" font-family="Helvetica,sans-Serif" font-size="11.00" fill="#000000">[table]</text>
<polygon fill="none" stroke="#000000" points="503,-345.3072 503,-367.3072 734,-367.3072 734,-345.3072 503,-345.3072"/>
<image xlink:href="../../images/primaryKeys.png" width="11px" height="12px" preserveAspectRatio="xMinYMin meet" x="508" y="-362.307"/>
<text text-anchor="start" x="523" y="-352.4072" font-family="Helvetica,sans-Serif" font-size="11.00" fill="#000000">id</text>
<polygon fill="none" stroke="#000000" points="734,-345.3072 734,-367.3072 833,-367.3072 833,-345.3072 734,-345.3072"/>
<text text-anchor="start" x="737" y="-353.0072" font-family="Helvetica,sans-Serif" font-size="11.00" fill="#000000">uuid[2147483647]</text>
<polygon fill="none" stroke="#000000" points="503,-323.3072 503,-345.3072 734,-345.3072 734,-323.3072 503,-323.3072"/>
<text text-anchor="start" x="523" y="-330.4072" font-family="Helvetica,sans-Serif" font-size="11.00" fill="#000000">version</text>
<polygon fill="none" stroke="#000000" points="734,-323.3072 734,-345.3072 833,-345.3072 833,-323.3072 734,-323.3072"/>
<text text-anchor="start" x="737" y="-331.0072" font-family="Helvetica,sans-Serif" font-size="11.00" fill="#000000">int4[10]</text>
<polygon fill="#ffffff" stroke="transparent" points="503,-301.3072 503,-323.3072 734,-323.3072 734,-301.3072 503,-301.3072"/>
<polygon fill="none" stroke="#000000" points="503,-301.3072 503,-323.3072 734,-323.3072 734,-301.3072 503,-301.3072"/>
<image xlink:href="../../images/foreignKeys.png" width="11px" height="12px" preserveAspectRatio="xMinYMin meet" x="508" y="-318.307"/>
<text text-anchor="start" x="523" y="-308.4072" font-family="Helvetica,sans-Serif" font-size="11.00" fill="#000000">person_identifier</text>
<polygon fill="none" stroke="#000000" points="734,-301.3072 734,-323.3072 833,-323.3072 833,-301.3072 734,-301.3072"/>
<text text-anchor="start" x="737" y="-309.0072" font-family="Helvetica,sans-Serif" font-size="11.00" fill="#000000">varchar[10]</text>
<polygon fill="none" stroke="#000000" points="503,-279.3072 503,-301.3072 734,-301.3072 734,-279.3072 503,-279.3072"/>
<image xlink:href="../../images/foreignKeys.png" width="11px" height="12px" preserveAspectRatio="xMinYMin meet" x="508" y="-296.307"/>
<text text-anchor="start" x="523" y="-286.4072" font-family="Helvetica,sans-Serif" font-size="11.00" fill="#000000">occurrence_id</text>
<polygon fill="none" stroke="#000000" points="734,-279.3072 734,-301.3072 833,-301.3072 833,-279.3072 734,-279.3072"/>
<text text-anchor="start" x="737" y="-287.0072" font-family="Helvetica,sans-Serif" font-size="11.00" fill="#000000">uuid[2147483647]</text>
<polygon fill="#ffffff" stroke="transparent" points="503,-257.3072 503,-279.3072 734,-279.3072 734,-257.3072 503,-257.3072"/>
<polygon fill="none" stroke="#000000" points="503,-257.3072 503,-279.3072 734,-279.3072 734,-257.3072 503,-257.3072"/>
<text text-anchor="start" x="523" y="-264.4072" font-family="Helvetica,sans-Serif" font-size="11.00" fill="#000000">occurred_at</text>
<polygon fill="none" stroke="#000000" points="734,-257.3072 734,-279.3072 833,-279.3072 833,-257.3072 734,-257.3072"/>
<text text-anchor="start" x="737" y="-265.0072" font-family="Helvetica,sans-Serif" font-size="11.00" fill="#000000">timestamp[29,6]</text>
<polygon fill="none" stroke="#000000" points="503,-235.3072 503,-257.3072 734,-257.3072 734,-235.3072 503,-235.3072"/>
<text text-anchor="start" x="523" y="-242.4072" font-family="Helvetica,sans-Serif" font-size="11.00" fill="#000000">direction</text>
<polygon fill="none" stroke="#000000" points="734,-235.3072 734,-257.3072 833,-257.3072 833,-235.3072 734,-235.3072"/>
<text text-anchor="start" x="737" y="-243.0072" font-family="Helvetica,sans-Serif" font-size="11.00" fill="#000000">varchar[3]</text>
<polygon fill="none" stroke="#000000" points="503,-213.3072 503,-235.3072 734,-235.3072 734,-213.3072 503,-213.3072"/>
<image xlink:href="../../images/foreignKeys.png" width="11px" height="12px" preserveAspectRatio="xMinYMin meet" x="508" y="-230.307"/>
<text text-anchor="start" x="523" y="-220.4072" font-family="Helvetica,sans-Serif" font-size="11.00" fill="#000000">absence_reason_id</text>
<polygon fill="none" stroke="#000000" points="734,-213.3072 734,-235.3072 833,-235.3072 833,-213.3072 734,-213.3072"/>
<text text-anchor="start" x="737" y="-221.0072" font-family="Helvetica,sans-Serif" font-size="11.00" fill="#000000">int8[19]</text>
<polygon fill="none" stroke="#000000" points="503,-191.3072 503,-213.3072 734,-213.3072 734,-191.3072 503,-191.3072"/>
<image xlink:href="../../images/foreignKeys.png" width="11px" height="12px" preserveAspectRatio="xMinYMin meet" x="508" y="-208.307"/>
<text text-anchor="start" x="523" y="-198.4072" font-family="Helvetica,sans-Serif" font-size="11.00" fill="#000000">accompanied_by_id</text>
<polygon fill="none" stroke="#000000" points="734,-191.3072 734,-213.3072 833,-213.3072 833,-191.3072 734,-191.3072"/>
<text text-anchor="start" x="737" y="-199.0072" font-family="Helvetica,sans-Serif" font-size="11.00" fill="#000000">int8[19]</text>
<polygon fill="none" stroke="#000000" points="503,-169.3072 503,-191.3072 734,-191.3072 734,-169.3072 503,-169.3072"/>
<text text-anchor="start" x="523" y="-176.4072" font-family="Helvetica,sans-Serif" font-size="11.00" fill="#000000">accompanied_by_comments</text>
<polygon fill="none" stroke="#000000" points="734,-169.3072 734,-191.3072 833,-191.3072 833,-169.3072 734,-169.3072"/>
<text text-anchor="start" x="737" y="-177.0072" font-family="Helvetica,sans-Serif" font-size="11.00" fill="#000000">text[2147483647]</text>
<polygon fill="none" stroke="#000000" points="503,-147.3072 503,-169.3072 734,-169.3072 734,-147.3072 503,-147.3072"/>
<text text-anchor="start" x="523" y="-154.4072" font-family="Helvetica,sans-Serif" font-size="11.00" fill="#000000">comments</text>
<polygon fill="none" stroke="#000000" points="734,-147.3072 734,-169.3072 833,-169.3072 833,-147.3072 734,-147.3072"/>
<text text-anchor="start" x="737" y="-155.0072" font-family="Helvetica,sans-Serif" font-size="11.00" fill="#000000">text[2147483647]</text>
<polygon fill="none" stroke="#000000" points="503,-125.3072 503,-147.3072 734,-147.3072 734,-125.3072 503,-125.3072"/>
<text text-anchor="start" x="523" y="-132.4072" font-family="Helvetica,sans-Serif" font-size="11.00" fill="#000000">recorded_by_prison_code</text>
<polygon fill="none" stroke="#000000" points="734,-125.3072 734,-147.3072 833,-147.3072 833,-125.3072 734,-125.3072"/>
<text text-anchor="start" x="737" y="-133.0072" font-family="Helvetica,sans-Serif" font-size="11.00" fill="#000000">varchar[6]</text>
<polygon fill="#ffffff" stroke="transparent" points="503,-103.3072 503,-125.3072 734,-125.3072 734,-103.3072 503,-103.3072"/>
<polygon fill="none" stroke="#000000" points="503,-103.3072 503,-125.3072 734,-125.3072 734,-103.3072 503,-103.3072"/>
<text text-anchor="start" x="523" y="-110.4072" font-family="Helvetica,sans-Serif" font-size="11.00" fill="#000000">legacy_id</text>
<polygon fill="none" stroke="#000000" points="734,-103.3072 734,-125.3072 833,-125.3072 833,-103.3072 734,-103.3072"/>
<text text-anchor="start" x="737" y="-111.0072" font-family="Helvetica,sans-Serif" font-size="11.00" fill="#000000">varchar[32]</text>
<polygon fill="none" stroke="#000000" points="503,-81.3072 503,-103.3072 734,-103.3072 734,-81.3072 503,-81.3072"/>
<text text-anchor="start" x="523" y="-88.4072" font-family="Helvetica,sans-Serif" font-size="11.00" fill="#000000">location</text>
<polygon fill="none" stroke="#000000" points="734,-81.3072 734,-103.3072 833,-103.3072 833,-81.3072 734,-81.3072"/>
<text text-anchor="start" x="736.7258" y="-89.0072" font-family="Helvetica,sans-Serif" font-size="11.00" fill="#000000">jsonb[2147483647]</text>
<polygon fill="#ffffff" stroke="transparent" points="503,-62.3072 503,-81.3072 623,-81.3072 623,-62.3072 503,-62.3072"/>
<polygon fill="none" stroke="#000000" points="503,-62.3072 503,-81.3072 623,-81.3072 623,-62.3072 503,-62.3072"/>
<text text-anchor="start" x="506" y="-68.4072" font-family="Helvetica,sans-Serif" font-size="11.00" fill="#000000">&lt; 4</text>
<polygon fill="#ffffff" stroke="transparent" points="623,-62.3072 623,-81.3072 734,-81.3072 734,-62.3072 623,-62.3072"/>
<polygon fill="none" stroke="#000000" points="623,-62.3072 623,-81.3072 734,-81.3072 734,-62.3072 623,-62.3072"/>
<text text-anchor="start" x="724.8862" y="-68.4072" font-family="Helvetica,sans-Serif" font-size="11.00" fill="#000000"> &#160;</text>
<polygon fill="#ffffff" stroke="transparent" points="734,-62.3072 734,-81.3072 833,-81.3072 833,-62.3072 734,-62.3072"/>
<polygon fill="none" stroke="#000000" points="734,-62.3072 734,-81.3072 833,-81.3072 833,-62.3072 734,-62.3072"/>
<text text-anchor="start" x="814.4053" y="-68.4072" font-family="Helvetica,sans-Serif" font-size="11.00" fill="#000000">0 &gt;</text>
<polygon fill="none" stroke="#000000" stroke-width="2" points="502,-61.3072 502,-391.3072 834,-391.3072 834,-61.3072 502,-61.3072"/>
</a>
</g>
</g>
<!-- reference_data -->
<g id="node2" class="node">
<title>reference_data</title>
<g id="a_node2"><a xlink:href="../../tables/reference_data.html" xlink:title="reference_data" target="_top">
<polygon fill="#ffffff" stroke="transparent" points="8,-102.8072 8,-251.8072 151,-251.8072 151,-102.8072 8,-102.8072"/>
<polygon fill="#f5f5f5" stroke="transparent" points="8.5,-228.3072 8.5,-251.3072 151.5,-251.3072 151.5,-228.3072 8.5,-228.3072"/>
<polygon fill="none" stroke="#000000" points="8.5,-228.3072 8.5,-251.3072 151.5,-251.3072 151.5,-228.3072 8.5,-228.3072"/>
<text text-anchor="start" x="13.5" y="-236.9072" font-family="Helvetica,sans-Serif" font-weight="bold" font-size="11.00" fill="#000000">reference_data</text>
<text text-anchor="start" x="116.5437" y="-236.4072" font-family="Helvetica,sans-Serif" font-size="11.00" fill="#000000">[table]</text>
<polygon fill="none" stroke="#000000" points="8.5,-206.3072 8.5,-228.3072 151.5,-228.3072 151.5,-206.3072 8.5,-206.3072"/>
<image xlink:href="../../images/primaryKeys.png" width="11px" height="12px" preserveAspectRatio="xMinYMin meet" x="13.5" y="-223.307"/>
<text text-anchor="start" x="28.5" y="-213.4072" font-family="Helvetica,sans-Serif" font-size="11.00" fill="#000000">id</text>
<polygon fill="#ffffff" stroke="transparent" points="8.5,-184.3072 8.5,-206.3072 151.5,-206.3072 151.5,-184.3072 8.5,-184.3072"/>
<polygon fill="none" stroke="#000000" points="8.5,-184.3072 8.5,-206.3072 151.5,-206.3072 151.5,-184.3072 8.5,-184.3072"/>
<image xlink:href="../../images/foreignKeys.png" width="11px" height="12px" preserveAspectRatio="xMinYMin meet" x="13.5" y="-201.307"/>
<text text-anchor="start" x="28.5" y="-191.4072" font-family="Helvetica,sans-Serif" font-size="11.00" fill="#000000">domain</text>
<polygon fill="#ffffff" stroke="transparent" points="8.5,-162.3072 8.5,-184.3072 151.5,-184.3072 151.5,-162.3072 8.5,-162.3072"/>
<polygon fill="none" stroke="#000000" points="8.5,-162.3072 8.5,-184.3072 151.5,-184.3072 151.5,-162.3072 8.5,-162.3072"/>
<text text-anchor="start" x="28.5" y="-169.4072" font-family="Helvetica,sans-Serif" font-size="11.00" fill="#000000">code</text>
<polygon fill="#ffffff" stroke="transparent" points="8.5,-140.3072 8.5,-162.3072 151.5,-162.3072 151.5,-140.3072 8.5,-140.3072"/>
<polygon fill="none" stroke="#000000" points="8.5,-140.3072 8.5,-162.3072 151.5,-162.3072 151.5,-140.3072 8.5,-140.3072"/>
<text text-anchor="start" x="28.5" y="-147.4072" font-family="Helvetica,sans-Serif" font-size="11.00" fill="#000000">sequence_number</text>
<polygon fill="none" stroke="#000000" points="8.5,-121.3072 8.5,-140.3072 151.5,-140.3072 151.5,-121.3072 8.5,-121.3072"/>
<text text-anchor="start" x="11.5" y="-127.4072" font-family="Helvetica,sans-Serif" font-size="11.00" fill="#000000">...</text>
<polygon fill="#ffffff" stroke="transparent" points="8.5,-102.3072 8.5,-121.3072 51.5,-121.3072 51.5,-102.3072 8.5,-102.3072"/>
<polygon fill="none" stroke="#000000" points="8.5,-102.3072 8.5,-121.3072 51.5,-121.3072 51.5,-102.3072 8.5,-102.3072"/>
<text text-anchor="start" x="11.5" y="-108.4072" font-family="Helvetica,sans-Serif" font-size="11.00" fill="#000000">&lt; 1</text>
<polygon fill="#ffffff" stroke="transparent" points="51.5,-102.3072 51.5,-121.3072 112.5,-121.3072 112.5,-102.3072 51.5,-102.3072"/>
<polygon fill="none" stroke="#000000" points="51.5,-102.3072 51.5,-121.3072 112.5,-121.3072 112.5,-102.3072 51.5,-102.3072"/>
<text text-anchor="start" x="64.8807" y="-108.4072" font-family="Helvetica,sans-Serif" font-size="11.00" fill="#000000">158 rows</text>
<polygon fill="#ffffff" stroke="transparent" points="112.5,-102.3072 112.5,-121.3072 151.5,-121.3072 151.5,-102.3072 112.5,-102.3072"/>
<polygon fill="none" stroke="#000000" points="112.5,-102.3072 112.5,-121.3072 151.5,-121.3072 151.5,-102.3072 112.5,-102.3072"/>
<text text-anchor="start" x="126.7904" y="-108.4072" font-family="Helvetica,sans-Serif" font-size="11.00" fill="#000000">18 &gt;</text>
</a>
</g>
</g>
<!-- temporary_absence_movement&#45;&gt;reference_data -->
<g id="edge1" class="edge">
<title>temporary_absence_movement:w&#45;&gt;reference_data:e</title>
<path fill="none" stroke="#000000" d="M488.5612,-221.2059C461.5723,-206.1609 498.2703,-140.4375 460,-114.3072 410.8156,-80.7251 241.2178,-80.774 192,-114.3072 151.349,-142.0037 200.6895,-217.3072 151.5,-217.3072"/>
<polygon fill="#000000" stroke="#000000" points="495.1784,-222.6272 502.244,-227.8269 499.0892,-223.4672 503,-224.3072 503,-224.3072 503,-224.3072 499.0892,-223.4672 503.756,-220.7875 495.1784,-222.6272 495.1784,-222.6272"/>
<ellipse fill="none" stroke="#000000" cx="492.0497" cy="-221.9552" rx="3.2" ry="3.2"/>
</g>
<!-- temporary_absence_movement&#45;&gt;reference_data -->
<g id="edge2" class="edge">
<title>temporary_absence_movement:w&#45;&gt;reference_data:e</title>
<path fill="none" stroke="#000000" d="M488.7011,-199.4515C459.2874,-184.4382 500.1967,-114.2763 460,-86.3072 362.2281,-18.277 287.8592,-15.6073 192,-86.3072 142.9553,-122.4796 212.4412,-217.3072 151.5,-217.3072"/>
<polygon fill="#000000" stroke="#000000" points="495.1549,-200.7404 502.2949,-205.8375 499.0775,-201.5238 503,-202.3072 503,-202.3072 503,-202.3072 499.0775,-201.5238 503.7051,-198.7769 495.1549,-200.7404 495.1549,-200.7404"/>
<ellipse fill="none" stroke="#000000" cx="492.0169" cy="-200.1136" rx="3.2" ry="3.2"/>
</g>
<!-- temporary_absence_occurrence -->
<g id="node3" class="node">
<title>temporary_absence_occurrence</title>
<g id="a_node3"><a xlink:href="../../tables/temporary_absence_occurrence.html" xlink:title="temporary_absence_occurrence" target="_top">
<polygon fill="#ffffff" stroke="transparent" points="200,-124.8072 200,-449.8072 452,-449.8072 452,-124.8072 200,-124.8072"/>
<polygon fill="#f5f5f5" stroke="transparent" points="200,-426.3072 200,-449.3072 452,-449.3072 452,-426.3072 200,-426.3072"/>
<polygon fill="none" stroke="#000000" points="200,-426.3072 200,-449.3072 452,-449.3072 452,-426.3072 200,-426.3072"/>
<text text-anchor="start" x="205" y="-434.9072" font-family="Helvetica,sans-Serif" font-weight="bold" font-size="11.00" fill="#000000">temporary_absence_occurrence</text>
<text text-anchor="start" x="417.5219" y="-434.4072" font-family="Helvetica,sans-Serif" font-size="11.00" fill="#000000">[table]</text>
<polygon fill="none" stroke="#000000" points="200,-404.3072 200,-426.3072 452,-426.3072 452,-404.3072 200,-404.3072"/>
<image xlink:href="../../images/primaryKeys.png" width="11px" height="12px" preserveAspectRatio="xMinYMin meet" x="205" y="-421.307"/>
<text text-anchor="start" x="229" y="-411.4072" font-family="Helvetica,sans-Serif" font-size="11.00" fill="#000000">id</text>
<polygon fill="#ffffff" stroke="transparent" points="200,-382.3072 200,-404.3072 452,-404.3072 452,-382.3072 200,-382.3072"/>
<polygon fill="none" stroke="#000000" points="200,-382.3072 200,-404.3072 452,-404.3072 452,-382.3072 200,-382.3072"/>
<image xlink:href="../../images/foreignKeys.png" width="11px" height="12px" preserveAspectRatio="xMinYMin meet" x="205" y="-399.307"/>
<text text-anchor="start" x="229" y="-389.4072" font-family="Helvetica,sans-Serif" font-size="11.00" fill="#000000">authorisation_id</text>
<polygon fill="#ffffff" stroke="transparent" points="200,-360.3072 200,-382.3072 452,-382.3072 452,-360.3072 200,-360.3072"/>
<polygon fill="none" stroke="#000000" points="200,-360.3072 200,-382.3072 452,-382.3072 452,-360.3072 200,-360.3072"/>
<text text-anchor="start" x="229" y="-367.4072" font-family="Helvetica,sans-Serif" font-size="11.00" fill="#000000">start</text>
<polygon fill="#ffffff" stroke="transparent" points="200,-338.3072 200,-360.3072 452,-360.3072 452,-338.3072 200,-338.3072"/>
<polygon fill="none" stroke="#000000" points="200,-338.3072 200,-360.3072 452,-360.3072 452,-338.3072 200,-338.3072"/>
<text text-anchor="start" x="229" y="-345.4072" font-family="Helvetica,sans-Serif" font-size="11.00" fill="#000000">end</text>
<polygon fill="none" stroke="#000000" points="200,-316.3072 200,-338.3072 452,-338.3072 452,-316.3072 200,-316.3072"/>
<image xlink:href="../../images/foreignKeys.png" width="11px" height="12px" preserveAspectRatio="xMinYMin meet" x="205" y="-333.307"/>
<text text-anchor="start" x="229" y="-323.4072" font-family="Helvetica,sans-Serif" font-size="11.00" fill="#000000">accompanied_by_id</text>
<polygon fill="none" stroke="#000000" points="200,-294.3072 200,-316.3072 452,-316.3072 452,-294.3072 200,-294.3072"/>
<image xlink:href="../../images/foreignKeys.png" width="11px" height="12px" preserveAspectRatio="xMinYMin meet" x="205" y="-311.307"/>
<text text-anchor="start" x="229" y="-301.4072" font-family="Helvetica,sans-Serif" font-size="11.00" fill="#000000">transport_id</text>
<polygon fill="#ffffff" stroke="transparent" points="200,-272.3072 200,-294.3072 452,-294.3072 452,-272.3072 200,-272.3072"/>
<polygon fill="none" stroke="#000000" points="200,-272.3072 200,-294.3072 452,-294.3072 452,-272.3072 200,-272.3072"/>
<text text-anchor="start" x="229" y="-279.4072" font-family="Helvetica,sans-Serif" font-size="11.00" fill="#000000">legacy_id</text>
<polygon fill="none" stroke="#000000" points="200,-250.3072 200,-272.3072 452,-272.3072 452,-250.3072 200,-250.3072"/>
<image xlink:href="../../images/foreignKeys.png" width="11px" height="12px" preserveAspectRatio="xMinYMin meet" x="205" y="-267.307"/>
<text text-anchor="start" x="229" y="-257.4072" font-family="Helvetica,sans-Serif" font-size="11.00" fill="#000000">absence_type_id</text>
<polygon fill="none" stroke="#000000" points="200,-228.3072 200,-250.3072 452,-250.3072 452,-228.3072 200,-228.3072"/>
<image xlink:href="../../images/foreignKeys.png" width="11px" height="12px" preserveAspectRatio="xMinYMin meet" x="205" y="-245.307"/>
<text text-anchor="start" x="229" y="-235.4072" font-family="Helvetica,sans-Serif" font-size="11.00" fill="#000000">absence_sub_type_id</text>
<polygon fill="none" stroke="#000000" points="200,-206.3072 200,-228.3072 452,-228.3072 452,-206.3072 200,-206.3072"/>
<image xlink:href="../../images/foreignKeys.png" width="11px" height="12px" preserveAspectRatio="xMinYMin meet" x="205" y="-223.307"/>
<text text-anchor="start" x="229" y="-213.4072" font-family="Helvetica,sans-Serif" font-size="11.00" fill="#000000">absence_reason_category_id</text>
<polygon fill="none" stroke="#000000" points="200,-184.3072 200,-206.3072 452,-206.3072 452,-184.3072 200,-184.3072"/>
<image xlink:href="../../images/foreignKeys.png" width="11px" height="12px" preserveAspectRatio="xMinYMin meet" x="205" y="-201.307"/>
<text text-anchor="start" x="229" y="-191.4072" font-family="Helvetica,sans-Serif" font-size="11.00" fill="#000000">absence_reason_id</text>
<polygon fill="#ffffff" stroke="transparent" points="200,-162.3072 200,-184.3072 452,-184.3072 452,-162.3072 200,-162.3072"/>
<polygon fill="none" stroke="#000000" points="200,-162.3072 200,-184.3072 452,-184.3072 452,-162.3072 200,-162.3072"/>
<image xlink:href="../../images/foreignKeys.png" width="11px" height="12px" preserveAspectRatio="xMinYMin meet" x="205" y="-179.307"/>
<text text-anchor="start" x="229" y="-169.4072" font-family="Helvetica,sans-Serif" font-size="11.00" fill="#000000">status_id</text>
<polygon fill="none" stroke="#000000" points="200,-143.3072 200,-162.3072 452,-162.3072 452,-143.3072 200,-143.3072"/>
<text text-anchor="start" x="203" y="-149.4072" font-family="Helvetica,sans-Serif" font-size="11.00" fill="#000000">...</text>
<polygon fill="#ffffff" stroke="transparent" points="200,-124.3072 200,-143.3072 320,-143.3072 320,-124.3072 200,-124.3072"/>
<polygon fill="none" stroke="#000000" points="200,-124.3072 200,-143.3072 320,-143.3072 320,-124.3072 200,-124.3072"/>
<text text-anchor="start" x="203" y="-130.4072" font-family="Helvetica,sans-Serif" font-size="11.00" fill="#000000">&lt; 8</text>
<polygon fill="#ffffff" stroke="transparent" points="320,-124.3072 320,-143.3072 381,-143.3072 381,-124.3072 320,-124.3072"/>
<polygon fill="none" stroke="#000000" points="320,-124.3072 320,-143.3072 381,-143.3072 381,-124.3072 320,-124.3072"/>
<text text-anchor="start" x="371.8862" y="-130.4072" font-family="Helvetica,sans-Serif" font-size="11.00" fill="#000000"> &#160;</text>
<polygon fill="#ffffff" stroke="transparent" points="381,-124.3072 381,-143.3072 452,-143.3072 452,-124.3072 381,-124.3072"/>
<polygon fill="none" stroke="#000000" points="381,-124.3072 381,-143.3072 452,-143.3072 452,-124.3072 381,-124.3072"/>
<text text-anchor="start" x="433.4053" y="-130.4072" font-family="Helvetica,sans-Serif" font-size="11.00" fill="#000000">1 &gt;</text>
</a>
</g>
</g>
<!-- temporary_absence_movement&#45;&gt;temporary_absence_occurrence -->
<g id="edge3" class="edge">
<title>temporary_absence_movement:w&#45;&gt;temporary_absence_occurrence:e</title>
<path fill="none" stroke="#000000" d="M488.872,-293.6507C455.2453,-313.5292 506.1421,-415.3072 452,-415.3072"/>
<polygon fill="#000000" stroke="#000000" points="495.215,-292.1496 503.8291,-293.8105 499.1075,-291.2284 503,-290.3072 503,-290.3072 503,-290.3072 499.1075,-291.2284 502.1709,-286.804 495.215,-292.1496 495.215,-292.1496"/>
<ellipse fill="none" stroke="#000000" cx="492.101" cy="-292.8866" rx="3.2" ry="3.2"/>
</g>
<!-- person_summary -->
<g id="node4" class="node">
<title>person_summary</title>
<g id="a_node4"><a xlink:href="../../tables/person_summary.html" xlink:title="person_summary" target="_top">
<polygon fill="#ffffff" stroke="transparent" points="249,-470.8072 249,-553.8072 403,-553.8072 403,-470.8072 249,-470.8072"/>
<polygon fill="#f5f5f5" stroke="transparent" points="249,-530.3072 249,-553.3072 403,-553.3072 403,-530.3072 249,-530.3072"/>
<polygon fill="none" stroke="#000000" points="249,-530.3072 249,-553.3072 403,-553.3072 403,-530.3072 249,-530.3072"/>
<text text-anchor="start" x="254" y="-538.9072" font-family="Helvetica,sans-Serif" font-weight="bold" font-size="11.00" fill="#000000">person_summary</text>
<text text-anchor="start" x="368.5219" y="-538.4072" font-family="Helvetica,sans-Serif" font-size="11.00" fill="#000000">[table]</text>
<polygon fill="none" stroke="#000000" points="249,-508.3072 249,-530.3072 403,-530.3072 403,-508.3072 249,-508.3072"/>
<image xlink:href="../../images/primaryKeys.png" width="11px" height="12px" preserveAspectRatio="xMinYMin meet" x="254" y="-525.307"/>
<text text-anchor="start" x="278" y="-515.4072" font-family="Helvetica,sans-Serif" font-size="11.00" fill="#000000">person_identifier</text>
<polygon fill="none" stroke="#000000" points="249,-489.3072 249,-508.3072 403,-508.3072 403,-489.3072 249,-489.3072"/>
<text text-anchor="start" x="252" y="-495.4072" font-family="Helvetica,sans-Serif" font-size="11.00" fill="#000000">...</text>
<polygon fill="#ffffff" stroke="transparent" points="249,-470.3072 249,-489.3072 315,-489.3072 315,-470.3072 249,-470.3072"/>
<polygon fill="none" stroke="#000000" points="249,-470.3072 249,-489.3072 315,-489.3072 315,-470.3072 249,-470.3072"/>
<text text-anchor="start" x="252" y="-476.4072" font-family="Helvetica,sans-Serif" font-size="11.00" fill="#000000"> &#160;</text>
<polygon fill="#ffffff" stroke="transparent" points="315,-470.3072 315,-489.3072 354,-489.3072 354,-470.3072 315,-470.3072"/>
<polygon fill="none" stroke="#000000" points="315,-470.3072 315,-489.3072 354,-489.3072 354,-470.3072 315,-470.3072"/>
<text text-anchor="start" x="344.8862" y="-476.4072" font-family="Helvetica,sans-Serif" font-size="11.00" fill="#000000"> &#160;</text>
<polygon fill="#ffffff" stroke="transparent" points="354,-470.3072 354,-489.3072 403,-489.3072 403,-470.3072 354,-470.3072"/>
<polygon fill="none" stroke="#000000" points="354,-470.3072 354,-489.3072 403,-489.3072 403,-470.3072 354,-470.3072"/>
<text text-anchor="start" x="384.4053" y="-476.4072" font-family="Helvetica,sans-Serif" font-size="11.00" fill="#000000">2 &gt;</text>
</a>
</g>
</g>
<!-- temporary_absence_movement&#45;&gt;person_summary -->
<g id="edge4" class="edge">
<title>temporary_absence_movement:w&#45;&gt;person_summary:e</title>
<path fill="none" stroke="#000000" d="M488.6114,-314.0334C443.6885,-326.6682 491.5406,-405.9111 460,-460.3072 441.711,-491.8492 439.4607,-519.3072 403,-519.3072"/>
<polygon fill="#000000" stroke="#000000" points="495.057,-313.2602 503.4288,-315.8816 499.0285,-312.7837 503,-312.3072 503,-312.3072 503,-312.3072 499.0285,-312.7837 502.5712,-308.7328 495.057,-313.2602 495.057,-313.2602"/>
<ellipse fill="none" stroke="#000000" cx="491.8797" cy="-313.6414" rx="3.2" ry="3.2"/>
</g>
<!-- temporary_absence_occurrence&#45;&gt;reference_data -->
<g id="edge5" class="edge">
<title>temporary_absence_occurrence:w&#45;&gt;reference_data:e</title>
<path fill="none" stroke="#000000" d="M185.2829,-217.3072C174.2886,-217.3072 167.1615,-217.3072 151.5,-217.3072"/>
<polygon fill="#000000" stroke="#000000" points="192,-217.3073 200,-220.9072 196,-217.3072 200,-217.3072 200,-217.3072 200,-217.3072 196,-217.3072 200,-213.7072 192,-217.3073 192,-217.3073"/>
<ellipse fill="none" stroke="#000000" cx="188.8" cy="-217.3073" rx="3.2" ry="3.2"/>
</g>
<!-- temporary_absence_occurrence&#45;&gt;reference_data -->
<g id="edge6" class="edge">
<title>temporary_absence_occurrence:w&#45;&gt;reference_data:e</title>
<path fill="none" stroke="#000000" d="M185.7648,-198.7447C174.3432,-204.9322 169.2522,-217.3072 151.5,-217.3072"/>
<polygon fill="#000000" stroke="#000000" points="192.2235,-197.1851 200.8451,-198.8066 196.1118,-196.2462 200,-195.3072 200,-195.3072 200,-195.3072 196.1118,-196.2462 199.1549,-191.8078 192.2235,-197.1851 192.2235,-197.1851"/>
<ellipse fill="none" stroke="#000000" cx="189.1129" cy="-197.9363" rx="3.2" ry="3.2"/>
</g>
<!-- temporary_absence_occurrence&#45;&gt;reference_data -->
<g id="edge7" class="edge">
<title>temporary_absence_occurrence:w&#45;&gt;reference_data:e</title>
<path fill="none" stroke="#000000" d="M185.7648,-235.8697C174.3432,-229.6822 169.2522,-217.3072 151.5,-217.3072"/>
<polygon fill="#000000" stroke="#000000" points="192.2235,-237.4293 199.1549,-242.8066 196.1118,-238.3683 200,-239.3072 200,-239.3072 200,-239.3072 196.1118,-238.3683 200.8451,-235.8078 192.2235,-237.4293 192.2235,-237.4293"/>
<ellipse fill="none" stroke="#000000" cx="189.1129" cy="-236.6782" rx="3.2" ry="3.2"/>
</g>
<!-- temporary_absence_occurrence&#45;&gt;reference_data -->
<g id="edge8" class="edge">
<title>temporary_absence_occurrence:w&#45;&gt;reference_data:e</title>
<path fill="none" stroke="#000000" d="M186.0348,-256.2599C173.2645,-244.7025 174.4651,-217.3072 151.5,-217.3072"/>
<polygon fill="#000000" stroke="#000000" points="192.4763,-258.5879 198.7763,-264.6929 196.2382,-259.9476 200,-261.3072 200,-261.3072 200,-261.3072 196.2382,-259.9476 201.2237,-257.9216 192.4763,-258.5879 192.4763,-258.5879"/>
<ellipse fill="none" stroke="#000000" cx="189.4668" cy="-257.5002" rx="3.2" ry="3.2"/>
</g>
<!-- temporary_absence_occurrence&#45;&gt;reference_data -->
<g id="edge9" class="edge">
<title>temporary_absence_occurrence:w&#45;&gt;reference_data:e</title>
<path fill="none" stroke="#000000" d="M185.8208,-323.3923C158.3576,-303.7969 198.8774,-217.3072 151.5,-217.3072"/>
<polygon fill="#000000" stroke="#000000" points="192.2885,-325.178 199.0419,-330.7774 196.1443,-326.2426 200,-327.3072 200,-327.3072 200,-327.3072 196.1443,-326.2426 200.9581,-323.8371 192.2885,-325.178 192.2885,-325.178"/>
<ellipse fill="none" stroke="#000000" cx="189.204" cy="-324.3263" rx="3.2" ry="3.2"/>
</g>
<!-- temporary_absence_occurrence&#45;&gt;reference_data -->
<g id="edge10" class="edge">
<title>temporary_absence_occurrence:w&#45;&gt;reference_data:e</title>
<path fill="none" stroke="#000000" d="M186.0348,-178.3546C173.2645,-189.912 174.4651,-217.3072 151.5,-217.3072"/>
<polygon fill="#000000" stroke="#000000" points="192.4763,-176.0265 201.2237,-176.6929 196.2382,-174.6668 200,-173.3072 200,-173.3072 200,-173.3072 196.2382,-174.6668 198.7763,-169.9216 192.4763,-176.0265 192.4763,-176.0265"/>
<ellipse fill="none" stroke="#000000" cx="189.4668" cy="-177.1142" rx="3.2" ry="3.2"/>
</g>
<!-- temporary_absence_occurrence&#45;&gt;reference_data -->
<g id="edge11" class="edge">
<title>temporary_absence_occurrence:w&#45;&gt;reference_data:e</title>
<path fill="none" stroke="#000000" d="M186.0395,-300.8223C164.905,-282.8896 190.0523,-217.3072 151.5,-217.3072"/>
<polygon fill="#000000" stroke="#000000" points="192.3834,-302.8603 198.8989,-308.7347 196.1917,-304.0838 200,-305.3072 200,-305.3072 200,-305.3072 196.1917,-304.0838 201.1011,-301.8797 192.3834,-302.8603 192.3834,-302.8603"/>
<ellipse fill="none" stroke="#000000" cx="189.3367" cy="-301.8815" rx="3.2" ry="3.2"/>
</g>
</g>
</svg>
