<?xml version="1.0" encoding="UTF-8" standalone="no"?>
<!DOCTYPE svg PUBLIC "-//W3C//DTD SVG 1.1//EN"
 "http://www.w3.org/Graphics/SVG/1.1/DTD/svg11.dtd">
<!-- Generated by graphviz version 2.40.1 (20161225.0304)
 -->
<!-- Title: oneDegreeRelationshipsDiagram Pages: 1 -->
<svg width="582pt" height="448pt"
 viewBox="0.00 0.00 582.00 448.20" xmlns="http://www.w3.org/2000/svg" xmlns:xlink="http://www.w3.org/1999/xlink">
<g id="graph0" class="graph" transform="scale(1 1) rotate(0) translate(4 444.2)">
<title>oneDegreeRelationshipsDiagram</title>
<polygon fill="#ffffff" stroke="transparent" points="-4,4 -4,-444.2 578,-444.2 578,4 -4,4"/>
<text text-anchor="middle" x="72.4936" y="-7.3" font-family="Helvetica,sans-Serif" font-size="11.00" fill="#000000">Generated by SchemaSpy</text>
<!-- temporary_absence_movement_audit -->
<g id="node1" class="node">
<title>temporary_absence_movement_audit</title>
<g id="a_node1"><a xlink:href="../../tables/temporary_absence_movement_audit.html" xlink:title="temporary_absence_movement_audit" target="_top">
<polygon fill="#ffffff" stroke="transparent" points="191,-38.2 191,-436.2 566,-436.2 566,-38.2 191,-38.2"/>
<polygon fill="#f5f5f5" stroke="transparent" points="193.5,-411.2 193.5,-434.2 564.5,-434.2 564.5,-411.2 193.5,-411.2"/>
<polygon fill="none" stroke="#000000" points="193.5,-411.2 193.5,-434.2 564.5,-434.2 564.5,-411.2 193.5,-411.2"/>
<text text-anchor="start" x="198.5" y="-419.8" font-family="Helvetica,sans-Serif" font-weight="bold" font-size="11.00" fill="#000000">temporary_absence_movement_audit</text>
<text text-anchor="start" x="529.5437" y="-419.3" font-family="Helvetica,sans-Serif" font-size="11.00" fill="#000000">[table]</text>
<polygon fill="none" stroke="#000000" points="193.5,-389.2 193.5,-411.2 465.5,-411.2 465.5,-389.2 193.5,-389.2"/>
<image xlink:href="../../images/primaryKeys.png" width="11px" height="12px" preserveAspectRatio="xMinYMin meet" x="198.5" y="-406.2"/>
<text text-anchor="start" x="213.5" y="-396.3" font-family="Helvetica,sans-Serif" font-size="11.00" fill="#000000">rev_id</text>
<polygon fill="none" stroke="#000000" points="465.5,-389.2 465.5,-411.2 564.5,-411.2 564.5,-389.2 465.5,-389.2"/>
<text text-anchor="start" x="468.5" y="-396.9" font-family="Helvetica,sans-Serif" font-size="11.00" fill="#000000">int8[19]</text>
<polygon fill="none" stroke="#000000" points="193.5,-367.2 193.5,-389.2 465.5,-389.2 465.5,-367.2 193.5,-367.2"/>
<text text-anchor="start" x="213.5" y="-374.3" font-family="Helvetica,sans-Serif" font-size="11.00" fill="#000000">rev_type</text>
<polygon fill="none" stroke="#000000" points="465.5,-367.2 465.5,-389.2 564.5,-389.2 564.5,-367.2 465.5,-367.2"/>
<text text-anchor="start" x="468.5" y="-374.9" font-family="Helvetica,sans-Serif" font-size="11.00" fill="#000000">int2[5]</text>
<polygon fill="none" stroke="#000000" points="193.5,-345.2 193.5,-367.2 465.5,-367.2 465.5,-345.2 193.5,-345.2"/>
<image xlink:href="../../images/primaryKeys.png" width="11px" height="12px" preserveAspectRatio="xMinYMin meet" x="198.5" y="-362.2"/>
<text text-anchor="start" x="213.5" y="-352.3" font-family="Helvetica,sans-Serif" font-size="11.00" fill="#000000">id</text>
<polygon fill="none" stroke="#000000" points="465.5,-345.2 465.5,-367.2 564.5,-367.2 564.5,-345.2 465.5,-345.2"/>
<text text-anchor="start" x="468.5" y="-352.9" font-family="Helvetica,sans-Serif" font-size="11.00" fill="#000000">uuid[2147483647]</text>
<polygon fill="none" stroke="#000000" points="193.5,-323.2 193.5,-345.2 465.5,-345.2 465.5,-323.2 193.5,-323.2"/>
<text text-anchor="start" x="213.5" y="-330.3" font-family="Helvetica,sans-Serif" font-size="11.00" fill="#000000">person_identifier</text>
<polygon fill="none" stroke="#000000" points="465.5,-323.2 465.5,-345.2 564.5,-345.2 564.5,-323.2 465.5,-323.2"/>
<text text-anchor="start" x="468.5" y="-330.9" font-family="Helvetica,sans-Serif" font-size="11.00" fill="#000000">varchar[10]</text>
<polygon fill="none" stroke="#000000" points="193.5,-301.2 193.5,-323.2 465.5,-323.2 465.5,-301.2 193.5,-301.2"/>
<text text-anchor="start" x="213.5" y="-308.3" font-family="Helvetica,sans-Serif" font-size="11.00" fill="#000000">occurrence_id</text>
<polygon fill="none" stroke="#000000" points="465.5,-301.2 465.5,-323.2 564.5,-323.2 564.5,-301.2 465.5,-301.2"/>
<text text-anchor="start" x="468.5" y="-308.9" font-family="Helvetica,sans-Serif" font-size="11.00" fill="#000000">uuid[2147483647]</text>
<polygon fill="none" stroke="#000000" points="193.5,-279.2 193.5,-301.2 465.5,-301.2 465.5,-279.2 193.5,-279.2"/>
<text text-anchor="start" x="213.5" y="-286.3" font-family="Helvetica,sans-Serif" font-size="11.00" fill="#000000">occurred_at</text>
<polygon fill="none" stroke="#000000" points="465.5,-279.2 465.5,-301.2 564.5,-301.2 564.5,-279.2 465.5,-279.2"/>
<text text-anchor="start" x="468.5" y="-286.9" font-family="Helvetica,sans-Serif" font-size="11.00" fill="#000000">timestamp[29,6]</text>
<polygon fill="none" stroke="#000000" points="193.5,-257.2 193.5,-279.2 465.5,-279.2 465.5,-257.2 193.5,-257.2"/>
<text text-anchor="start" x="213.5" y="-264.3" font-family="Helvetica,sans-Serif" font-size="11.00" fill="#000000">direction</text>
<polygon fill="none" stroke="#000000" points="465.5,-257.2 465.5,-279.2 564.5,-279.2 564.5,-257.2 465.5,-257.2"/>
<text text-anchor="start" x="468.5" y="-264.9" font-family="Helvetica,sans-Serif" font-size="11.00" fill="#000000">varchar[3]</text>
<polygon fill="none" stroke="#000000" points="193.5,-235.2 193.5,-257.2 465.5,-257.2 465.5,-235.2 193.5,-235.2"/>
<text text-anchor="start" x="213.5" y="-242.3" font-family="Helvetica,sans-Serif" font-size="11.00" fill="#000000">absence_reason_id</text>
<polygon fill="none" stroke="#000000" points="465.5,-235.2 465.5,-257.2 564.5,-257.2 564.5,-235.2 465.5,-235.2"/>
<text text-anchor="start" x="468.5" y="-242.9" font-family="Helvetica,sans-Serif" font-size="11.00" fill="#000000">int8[19]</text>
<polygon fill="none" stroke="#000000" points="193.5,-213.2 193.5,-235.2 465.5,-235.2 465.5,-213.2 193.5,-213.2"/>
<text text-anchor="start" x="213.5" y="-220.3" font-family="Helvetica,sans-Serif" font-size="11.00" fill="#000000">accompanied_by_id</text>
<polygon fill="none" stroke="#000000" points="465.5,-213.2 465.5,-235.2 564.5,-235.2 564.5,-213.2 465.5,-213.2"/>
<text text-anchor="start" x="468.5" y="-220.9" font-family="Helvetica,sans-Serif" font-size="11.00" fill="#000000">int8[19]</text>
<polygon fill="none" stroke="#000000" points="193.5,-191.2 193.5,-213.2 465.5,-213.2 465.5,-191.2 193.5,-191.2"/>
<text text-anchor="start" x="213.5" y="-198.3" font-family="Helvetica,sans-Serif" font-size="11.00" fill="#000000">accompanied_by_notes</text>
<polygon fill="none" stroke="#000000" points="465.5,-191.2 465.5,-213.2 564.5,-213.2 564.5,-191.2 465.5,-191.2"/>
<text text-anchor="start" x="468.5" y="-198.9" font-family="Helvetica,sans-Serif" font-size="11.00" fill="#000000">text[2147483647]</text>
<polygon fill="none" stroke="#000000" points="193.5,-169.2 193.5,-191.2 465.5,-191.2 465.5,-169.2 193.5,-169.2"/>
<text text-anchor="start" x="213.5" y="-176.3" font-family="Helvetica,sans-Serif" font-size="11.00" fill="#000000">notes</text>
<polygon fill="none" stroke="#000000" points="465.5,-169.2 465.5,-191.2 564.5,-191.2 564.5,-169.2 465.5,-169.2"/>
<text text-anchor="start" x="468.5" y="-176.9" font-family="Helvetica,sans-Serif" font-size="11.00" fill="#000000">text[2147483647]</text>
<polygon fill="none" stroke="#000000" points="193.5,-147.2 193.5,-169.2 465.5,-169.2 465.5,-147.2 193.5,-147.2"/>
<text text-anchor="start" x="213.5" y="-154.3" font-family="Helvetica,sans-Serif" font-size="11.00" fill="#000000">recorded_at</text>
<polygon fill="none" stroke="#000000" points="465.5,-147.2 465.5,-169.2 564.5,-169.2 564.5,-147.2 465.5,-147.2"/>
<text text-anchor="start" x="468.5" y="-154.9" font-family="Helvetica,sans-Serif" font-size="11.00" fill="#000000">timestamp[29,6]</text>
<polygon fill="none" stroke="#000000" points="193.5,-125.2 193.5,-147.2 465.5,-147.2 465.5,-125.2 193.5,-125.2"/>
<text text-anchor="start" x="213.5" y="-132.3" font-family="Helvetica,sans-Serif" font-size="11.00" fill="#000000">recorded_by</text>
<polygon fill="none" stroke="#000000" points="465.5,-125.2 465.5,-147.2 564.5,-147.2 564.5,-125.2 465.5,-125.2"/>
<text text-anchor="start" x="468.5" y="-132.9" font-family="Helvetica,sans-Serif" font-size="11.00" fill="#000000">varchar[64]</text>
<polygon fill="none" stroke="#000000" points="193.5,-103.2 193.5,-125.2 465.5,-125.2 465.5,-103.2 193.5,-103.2"/>
<text text-anchor="start" x="213.5" y="-110.3" font-family="Helvetica,sans-Serif" font-size="11.00" fill="#000000">recorded_by_prison_code</text>
<polygon fill="none" stroke="#000000" points="465.5,-103.2 465.5,-125.2 564.5,-125.2 564.5,-103.2 465.5,-103.2"/>
<text text-anchor="start" x="468.5" y="-110.9" font-family="Helvetica,sans-Serif" font-size="11.00" fill="#000000">varchar[6]</text>
<polygon fill="none" stroke="#000000" points="193.5,-81.2 193.5,-103.2 465.5,-103.2 465.5,-81.2 193.5,-81.2"/>
<text text-anchor="start" x="213.5" y="-88.3" font-family="Helvetica,sans-Serif" font-size="11.00" fill="#000000">legacy_id</text>
<polygon fill="none" stroke="#000000" points="465.5,-81.2 465.5,-103.2 564.5,-103.2 564.5,-81.2 465.5,-81.2"/>
<text text-anchor="start" x="468.5" y="-88.9" font-family="Helvetica,sans-Serif" font-size="11.00" fill="#000000">varchar[32]</text>
<polygon fill="none" stroke="#000000" points="193.5,-59.2 193.5,-81.2 465.5,-81.2 465.5,-59.2 193.5,-59.2"/>
<text text-anchor="start" x="213.5" y="-66.3" font-family="Helvetica,sans-Serif" font-size="11.00" fill="#000000">location</text>
<polygon fill="none" stroke="#000000" points="465.5,-59.2 465.5,-81.2 564.5,-81.2 564.5,-59.2 465.5,-59.2"/>
<text text-anchor="start" x="468.2258" y="-66.9" font-family="Helvetica,sans-Serif" font-size="11.00" fill="#000000">jsonb[2147483647]</text>
<polygon fill="#ffffff" stroke="transparent" points="193.5,-40.2 193.5,-59.2 333.5,-59.2 333.5,-40.2 193.5,-40.2"/>
<polygon fill="none" stroke="#000000" points="193.5,-40.2 193.5,-59.2 333.5,-59.2 333.5,-40.2 193.5,-40.2"/>
<text text-anchor="start" x="196.5" y="-46.3" font-family="Helvetica,sans-Serif" font-size="11.00" fill="#000000">&lt; 1</text>
<polygon fill="#ffffff" stroke="transparent" points="333.5,-40.2 333.5,-59.2 465.5,-59.2 465.5,-40.2 333.5,-40.2"/>
<polygon fill="none" stroke="#000000" points="333.5,-40.2 333.5,-59.2 465.5,-59.2 465.5,-40.2 333.5,-40.2"/>
<text text-anchor="start" x="456.3862" y="-46.3" font-family="Helvetica,sans-Serif" font-size="11.00" fill="#000000"> &#160;</text>
<polygon fill="#ffffff" stroke="transparent" points="465.5,-40.2 465.5,-59.2 564.5,-59.2 564.5,-40.2 465.5,-40.2"/>
<polygon fill="none" stroke="#000000" points="465.5,-40.2 465.5,-59.2 564.5,-59.2 564.5,-40.2 465.5,-40.2"/>
<text text-anchor="start" x="545.9053" y="-46.3" font-family="Helvetica,sans-Serif" font-size="11.00" fill="#000000">0 &gt;</text>
<polygon fill="none" stroke="#000000" stroke-width="2" points="192,-39.2 192,-435.2 565,-435.2 565,-39.2 192,-39.2"/>
</a>
</g>
</g>
<!-- audit_revision -->
<g id="node2" class="node">
<title>audit_revision</title>
<g id="a_node2"><a xlink:href="../../tables/audit_revision.html" xlink:title="audit_revision" target="_top">
<polygon fill="#ffffff" stroke="transparent" points="8,-351.7 8,-434.7 142,-434.7 142,-351.7 8,-351.7"/>
<polygon fill="#f5f5f5" stroke="transparent" points="8,-411.2 8,-434.2 142,-434.2 142,-411.2 8,-411.2"/>
<polygon fill="none" stroke="#000000" points="8,-411.2 8,-434.2 142,-434.2 142,-411.2 8,-411.2"/>
<text text-anchor="start" x="13" y="-419.8" font-family="Helvetica,sans-Serif" font-weight="bold" font-size="11.00" fill="#000000">audit_revision</text>
<text text-anchor="start" x="107.5219" y="-419.3" font-family="Helvetica,sans-Serif" font-size="11.00" fill="#000000">[table]</text>
<polygon fill="none" stroke="#000000" points="8,-389.2 8,-411.2 142,-411.2 142,-389.2 8,-389.2"/>
<image xlink:href="../../images/primaryKeys.png" width="11px" height="12px" preserveAspectRatio="xMinYMin meet" x="13" y="-406.2"/>
<text text-anchor="start" x="28" y="-396.3" font-family="Helvetica,sans-Serif" font-size="11.00" fill="#000000">id</text>
<polygon fill="none" stroke="#000000" points="8,-370.2 8,-389.2 142,-389.2 142,-370.2 8,-370.2"/>
<text text-anchor="start" x="11" y="-376.3" font-family="Helvetica,sans-Serif" font-size="11.00" fill="#000000">...</text>
<polygon fill="#ffffff" stroke="transparent" points="8,-351.2 8,-370.2 64,-370.2 64,-351.2 8,-351.2"/>
<polygon fill="none" stroke="#000000" points="8,-351.2 8,-370.2 64,-370.2 64,-351.2 8,-351.2"/>
<text text-anchor="start" x="11" y="-357.3" font-family="Helvetica,sans-Serif" font-size="11.00" fill="#000000"> &#160;</text>
<polygon fill="#ffffff" stroke="transparent" points="64,-351.2 64,-370.2 98,-370.2 98,-351.2 64,-351.2"/>
<polygon fill="none" stroke="#000000" points="64,-351.2 64,-370.2 98,-370.2 98,-351.2 64,-351.2"/>
<text text-anchor="start" x="88.8862" y="-357.3" font-family="Helvetica,sans-Serif" font-size="11.00" fill="#000000"> &#160;</text>
<polygon fill="#ffffff" stroke="transparent" points="98,-351.2 98,-370.2 142,-370.2 142,-351.2 98,-351.2"/>
<polygon fill="none" stroke="#000000" points="98,-351.2 98,-370.2 142,-370.2 142,-351.2 98,-351.2"/>
<text text-anchor="start" x="123.4053" y="-357.3" font-family="Helvetica,sans-Serif" font-size="11.00" fill="#000000">3 &gt;</text>
</a>
</g>
</g>
<!-- temporary_absence_movement_audit&#45;&gt;audit_revision -->
<g id="edge1" class="edge">
<title>temporary_absence_movement_audit:w&#45;&gt;audit_revision:e</title>
<path fill="none" stroke="#000000" d="M179.0156,-400.2C166.6771,-400.2 159.1667,-400.2 142,-400.2"/>
<polygon fill="#000000" stroke="#000000" points="185.5,-400.2001 193.5,-403.8 189.5,-400.2 193.5,-400.2 193.5,-400.2 193.5,-400.2 189.5,-400.2 193.5,-396.6 185.5,-400.2001 185.5,-400.2001"/>
<ellipse fill="none" stroke="#000000" cx="182.3" cy="-400.2001" rx="3.2" ry="3.2"/>
</g>
</g>
</svg>
