<?xml version="1.0" encoding="UTF-8" standalone="no"?>
<!DOCTYPE svg PUBLIC "-//W3C//DTD SVG 1.1//EN"
 "http://www.w3.org/Graphics/SVG/1.1/DTD/svg11.dtd">
<!-- Generated by graphviz version 2.40.1 (20161225.0304)
 -->
<!-- Title: twoDegreesRelationshipsDiagram Pages: 1 -->
<svg width="601pt" height="739pt"
 viewBox="0.00 0.00 601.00 739.20" xmlns="http://www.w3.org/2000/svg" xmlns:xlink="http://www.w3.org/1999/xlink">
<g id="graph0" class="graph" transform="scale(1 1) rotate(0) translate(4 735.2)">
<title>twoDegreesRelationshipsDiagram</title>
<polygon fill="#ffffff" stroke="transparent" points="-4,4 -4,-735.2 597,-735.2 597,4 -4,4"/>
<text text-anchor="middle" x="72.4936" y="-7.3" font-family="Helvetica,sans-Serif" font-size="11.00" fill="#000000">Generated by SchemaSpy</text>
<!-- hmpps_domain_event_audit -->
<g id="node1" class="node">
<title>hmpps_domain_event_audit</title>
<g id="a_node1"><a xlink:href="../../tables/hmpps_domain_event_audit.html" xlink:title="hmpps_domain_event_audit" target="_top">
<polygon fill="#ffffff" stroke="transparent" points="275.5,-666.2 275.5,-727.2 500.5,-727.2 500.5,-666.2 275.5,-666.2"/>
<polygon fill="#f5f5f5" stroke="transparent" points="276,-703.7 276,-726.7 501,-726.7 501,-703.7 276,-703.7"/>
<polygon fill="none" stroke="#000000" points="276,-703.7 276,-726.7 501,-726.7 501,-703.7 276,-703.7"/>
<text text-anchor="start" x="281" y="-712.3" font-family="Helvetica,sans-Serif" font-weight="bold" font-size="11.00" fill="#000000">hmpps_domain_event_audit</text>
<text text-anchor="start" x="466.5219" y="-711.8" font-family="Helvetica,sans-Serif" font-size="11.00" fill="#000000">[table]</text>
<polygon fill="none" stroke="#000000" points="276,-684.7 276,-703.7 501,-703.7 501,-684.7 276,-684.7"/>
<text text-anchor="start" x="279" y="-690.8" font-family="Helvetica,sans-Serif" font-size="11.00" fill="#000000">...</text>
<polygon fill="#ffffff" stroke="transparent" points="276,-665.7 276,-684.7 387,-684.7 387,-665.7 276,-665.7"/>
<polygon fill="none" stroke="#000000" points="276,-665.7 276,-684.7 387,-684.7 387,-665.7 276,-665.7"/>
<text text-anchor="start" x="279" y="-671.8" font-family="Helvetica,sans-Serif" font-size="11.00" fill="#000000">&lt; 1</text>
<polygon fill="#ffffff" stroke="transparent" points="387,-665.7 387,-684.7 444,-684.7 444,-665.7 387,-665.7"/>
<polygon fill="none" stroke="#000000" points="387,-665.7 387,-684.7 444,-684.7 444,-665.7 387,-665.7"/>
<text text-anchor="start" x="434.8862" y="-671.8" font-family="Helvetica,sans-Serif" font-size="11.00" fill="#000000"> &#160;</text>
<polygon fill="#ffffff" stroke="transparent" points="444,-665.7 444,-684.7 501,-684.7 501,-665.7 444,-665.7"/>
<polygon fill="none" stroke="#000000" points="444,-665.7 444,-684.7 501,-684.7 501,-665.7 444,-665.7"/>
<text text-anchor="start" x="491.8862" y="-671.8" font-family="Helvetica,sans-Serif" font-size="11.00" fill="#000000"> &#160;</text>
</a>
</g>
</g>
<!-- audit_revision -->
<g id="node2" class="node">
<title>audit_revision</title>
<g id="a_node2"><a xlink:href="../../tables/audit_revision.html" xlink:title="audit_revision" target="_top">
<polygon fill="#ffffff" stroke="transparent" points="8,-329.2 8,-412.2 142,-412.2 142,-329.2 8,-329.2"/>
<polygon fill="#f5f5f5" stroke="transparent" points="8,-388.7 8,-411.7 142,-411.7 142,-388.7 8,-388.7"/>
<polygon fill="none" stroke="#000000" points="8,-388.7 8,-411.7 142,-411.7 142,-388.7 8,-388.7"/>
<text text-anchor="start" x="13" y="-397.3" font-family="Helvetica,sans-Serif" font-weight="bold" font-size="11.00" fill="#000000">audit_revision</text>
<text text-anchor="start" x="107.5219" y="-396.8" font-family="Helvetica,sans-Serif" font-size="11.00" fill="#000000">[table]</text>
<polygon fill="none" stroke="#000000" points="8,-366.7 8,-388.7 142,-388.7 142,-366.7 8,-366.7"/>
<image xlink:href="../../images/primaryKeys.png" width="11px" height="12px" preserveAspectRatio="xMinYMin meet" x="13" y="-383.7"/>
<text text-anchor="start" x="28" y="-373.8" font-family="Helvetica,sans-Serif" font-size="11.00" fill="#000000">id</text>
<polygon fill="none" stroke="#000000" points="8,-347.7 8,-366.7 142,-366.7 142,-347.7 8,-347.7"/>
<text text-anchor="start" x="11" y="-353.8" font-family="Helvetica,sans-Serif" font-size="11.00" fill="#000000">...</text>
<polygon fill="#ffffff" stroke="transparent" points="8,-328.7 8,-347.7 64,-347.7 64,-328.7 8,-328.7"/>
<polygon fill="none" stroke="#000000" points="8,-328.7 8,-347.7 64,-347.7 64,-328.7 8,-328.7"/>
<text text-anchor="start" x="11" y="-334.8" font-family="Helvetica,sans-Serif" font-size="11.00" fill="#000000"> &#160;</text>
<polygon fill="#ffffff" stroke="transparent" points="64,-328.7 64,-347.7 98,-347.7 98,-328.7 64,-328.7"/>
<polygon fill="none" stroke="#000000" points="64,-328.7 64,-347.7 98,-347.7 98,-328.7 64,-328.7"/>
<text text-anchor="start" x="88.8862" y="-334.8" font-family="Helvetica,sans-Serif" font-size="11.00" fill="#000000"> &#160;</text>
<polygon fill="#ffffff" stroke="transparent" points="98,-328.7 98,-347.7 142,-347.7 142,-328.7 98,-328.7"/>
<polygon fill="none" stroke="#000000" points="98,-328.7 98,-347.7 142,-347.7 142,-328.7 98,-328.7"/>
<text text-anchor="start" x="123.4053" y="-334.8" font-family="Helvetica,sans-Serif" font-size="11.00" fill="#000000">4 &gt;</text>
</a>
</g>
</g>
<!-- hmpps_domain_event_audit&#45;&gt;audit_revision -->
<g id="edge1" class="edge">
<title>hmpps_domain_event_audit:w&#45;&gt;audit_revision:e</title>
<path fill="none" stroke="#000000" d="M261.2355,-693.535C226.3798,-692.5876 207.3128,-686.727 183,-655.7 144.4837,-606.5471 204.446,-377.7 142,-377.7"/>
<polygon fill="#000000" stroke="#000000" points="268.0005,-693.6106 275.9598,-697.2998 272.0002,-693.6553 276,-693.7 276,-693.7 276,-693.7 272.0002,-693.6553 276.0402,-690.1002 268.0005,-693.6106 268.0005,-693.6106"/>
<ellipse fill="none" stroke="#000000" cx="264.8007" cy="-693.5748" rx="3.2" ry="3.2"/>
</g>
<!-- temporary_absence_authorisation_audit -->
<g id="node3" class="node">
<title>temporary_absence_authorisation_audit</title>
<g id="a_node3"><a xlink:href="../../tables/temporary_absence_authorisation_audit.html" xlink:title="temporary_absence_authorisation_audit" target="_top">
<polygon fill="#ffffff" stroke="transparent" points="191,-202.7 191,-644.7 585,-644.7 585,-202.7 191,-202.7"/>
<polygon fill="#f5f5f5" stroke="transparent" points="193,-619.7 193,-642.7 583,-642.7 583,-619.7 193,-619.7"/>
<polygon fill="none" stroke="#000000" points="193,-619.7 193,-642.7 583,-642.7 583,-619.7 193,-619.7"/>
<text text-anchor="start" x="198" y="-628.3" font-family="Helvetica,sans-Serif" font-weight="bold" font-size="11.00" fill="#000000">temporary_absence_authorisation_audit</text>
<text text-anchor="start" x="548.0437" y="-627.8" font-family="Helvetica,sans-Serif" font-size="11.00" fill="#000000">[table]</text>
<polygon fill="none" stroke="#000000" points="193,-597.7 193,-619.7 484,-619.7 484,-597.7 193,-597.7"/>
<image xlink:href="../../images/primaryKeys.png" width="11px" height="12px" preserveAspectRatio="xMinYMin meet" x="198" y="-614.7"/>
<text text-anchor="start" x="213" y="-604.8" font-family="Helvetica,sans-Serif" font-size="11.00" fill="#000000">rev_id</text>
<polygon fill="none" stroke="#000000" points="484,-597.7 484,-619.7 583,-619.7 583,-597.7 484,-597.7"/>
<text text-anchor="start" x="487" y="-605.4" font-family="Helvetica,sans-Serif" font-size="11.00" fill="#000000">int8[19]</text>
<polygon fill="none" stroke="#000000" points="193,-575.7 193,-597.7 484,-597.7 484,-575.7 193,-575.7"/>
<text text-anchor="start" x="213" y="-582.8" font-family="Helvetica,sans-Serif" font-size="11.00" fill="#000000">rev_type</text>
<polygon fill="none" stroke="#000000" points="484,-575.7 484,-597.7 583,-597.7 583,-575.7 484,-575.7"/>
<text text-anchor="start" x="487" y="-583.4" font-family="Helvetica,sans-Serif" font-size="11.00" fill="#000000">int2[5]</text>
<polygon fill="none" stroke="#000000" points="193,-553.7 193,-575.7 484,-575.7 484,-553.7 193,-553.7"/>
<image xlink:href="../../images/primaryKeys.png" width="11px" height="12px" preserveAspectRatio="xMinYMin meet" x="198" y="-570.7"/>
<text text-anchor="start" x="213" y="-560.8" font-family="Helvetica,sans-Serif" font-size="11.00" fill="#000000">id</text>
<polygon fill="none" stroke="#000000" points="484,-553.7 484,-575.7 583,-575.7 583,-553.7 484,-553.7"/>
<text text-anchor="start" x="487" y="-561.4" font-family="Helvetica,sans-Serif" font-size="11.00" fill="#000000">uuid[2147483647]</text>
<polygon fill="none" stroke="#000000" points="193,-531.7 193,-553.7 484,-553.7 484,-531.7 193,-531.7"/>
<text text-anchor="start" x="213" y="-538.8" font-family="Helvetica,sans-Serif" font-size="11.00" fill="#000000">person_identifier</text>
<polygon fill="none" stroke="#000000" points="484,-531.7 484,-553.7 583,-553.7 583,-531.7 484,-531.7"/>
<text text-anchor="start" x="487" y="-539.4" font-family="Helvetica,sans-Serif" font-size="11.00" fill="#000000">varchar[10]</text>
<polygon fill="none" stroke="#000000" points="193,-509.7 193,-531.7 484,-531.7 484,-509.7 193,-509.7"/>
<text text-anchor="start" x="213" y="-516.8" font-family="Helvetica,sans-Serif" font-size="11.00" fill="#000000">prison_code</text>
<polygon fill="none" stroke="#000000" points="484,-509.7 484,-531.7 583,-531.7 583,-509.7 484,-509.7"/>
<text text-anchor="start" x="487" y="-517.4" font-family="Helvetica,sans-Serif" font-size="11.00" fill="#000000">varchar[6]</text>
<polygon fill="none" stroke="#000000" points="193,-487.7 193,-509.7 484,-509.7 484,-487.7 193,-487.7"/>
<text text-anchor="start" x="213" y="-494.8" font-family="Helvetica,sans-Serif" font-size="11.00" fill="#000000">absence_type_id</text>
<polygon fill="none" stroke="#000000" points="484,-487.7 484,-509.7 583,-509.7 583,-487.7 484,-487.7"/>
<text text-anchor="start" x="487" y="-495.4" font-family="Helvetica,sans-Serif" font-size="11.00" fill="#000000">int8[19]</text>
<polygon fill="none" stroke="#000000" points="193,-465.7 193,-487.7 484,-487.7 484,-465.7 193,-465.7"/>
<text text-anchor="start" x="213" y="-472.8" font-family="Helvetica,sans-Serif" font-size="11.00" fill="#000000">absence_sub_type_id</text>
<polygon fill="none" stroke="#000000" points="484,-465.7 484,-487.7 583,-487.7 583,-465.7 484,-465.7"/>
<text text-anchor="start" x="487" y="-473.4" font-family="Helvetica,sans-Serif" font-size="11.00" fill="#000000">int8[19]</text>
<polygon fill="none" stroke="#000000" points="193,-443.7 193,-465.7 484,-465.7 484,-443.7 193,-443.7"/>
<text text-anchor="start" x="213" y="-450.8" font-family="Helvetica,sans-Serif" font-size="11.00" fill="#000000">absence_reason_id</text>
<polygon fill="none" stroke="#000000" points="484,-443.7 484,-465.7 583,-465.7 583,-443.7 484,-443.7"/>
<text text-anchor="start" x="487" y="-451.4" font-family="Helvetica,sans-Serif" font-size="11.00" fill="#000000">int8[19]</text>
<polygon fill="none" stroke="#000000" points="193,-421.7 193,-443.7 484,-443.7 484,-421.7 193,-421.7"/>
<text text-anchor="start" x="213" y="-428.8" font-family="Helvetica,sans-Serif" font-size="11.00" fill="#000000">repeat</text>
<polygon fill="none" stroke="#000000" points="484,-421.7 484,-443.7 583,-443.7 583,-421.7 484,-421.7"/>
<text text-anchor="start" x="487" y="-429.4" font-family="Helvetica,sans-Serif" font-size="11.00" fill="#000000">bool[1]</text>
<polygon fill="none" stroke="#000000" points="193,-399.7 193,-421.7 484,-421.7 484,-399.7 193,-399.7"/>
<text text-anchor="start" x="213" y="-406.8" font-family="Helvetica,sans-Serif" font-size="11.00" fill="#000000">status_id</text>
<polygon fill="none" stroke="#000000" points="484,-399.7 484,-421.7 583,-421.7 583,-399.7 484,-399.7"/>
<text text-anchor="start" x="487" y="-407.4" font-family="Helvetica,sans-Serif" font-size="11.00" fill="#000000">int8[19]</text>
<polygon fill="none" stroke="#000000" points="193,-377.7 193,-399.7 484,-399.7 484,-377.7 193,-377.7"/>
<text text-anchor="start" x="213" y="-384.8" font-family="Helvetica,sans-Serif" font-size="11.00" fill="#000000">notes</text>
<polygon fill="none" stroke="#000000" points="484,-377.7 484,-399.7 583,-399.7 583,-377.7 484,-377.7"/>
<text text-anchor="start" x="487" y="-385.4" font-family="Helvetica,sans-Serif" font-size="11.00" fill="#000000">text[2147483647]</text>
<polygon fill="none" stroke="#000000" points="193,-355.7 193,-377.7 484,-377.7 484,-355.7 193,-355.7"/>
<text text-anchor="start" x="213" y="-362.8" font-family="Helvetica,sans-Serif" font-size="11.00" fill="#000000">legacy_id</text>
<polygon fill="none" stroke="#000000" points="484,-355.7 484,-377.7 583,-377.7 583,-355.7 484,-355.7"/>
<text text-anchor="start" x="487" y="-363.4" font-family="Helvetica,sans-Serif" font-size="11.00" fill="#000000">int8[19]</text>
<polygon fill="none" stroke="#000000" points="193,-333.7 193,-355.7 484,-355.7 484,-333.7 193,-333.7"/>
<text text-anchor="start" x="213" y="-340.8" font-family="Helvetica,sans-Serif" font-size="11.00" fill="#000000">from_date</text>
<polygon fill="none" stroke="#000000" points="484,-333.7 484,-355.7 583,-355.7 583,-333.7 484,-333.7"/>
<text text-anchor="start" x="487" y="-341.4" font-family="Helvetica,sans-Serif" font-size="11.00" fill="#000000">date[13]</text>
<polygon fill="none" stroke="#000000" points="193,-311.7 193,-333.7 484,-333.7 484,-311.7 193,-311.7"/>
<text text-anchor="start" x="213" y="-318.8" font-family="Helvetica,sans-Serif" font-size="11.00" fill="#000000">to_date</text>
<polygon fill="none" stroke="#000000" points="484,-311.7 484,-333.7 583,-333.7 583,-311.7 484,-311.7"/>
<text text-anchor="start" x="487" y="-319.4" font-family="Helvetica,sans-Serif" font-size="11.00" fill="#000000">date[13]</text>
<polygon fill="none" stroke="#000000" points="193,-289.7 193,-311.7 484,-311.7 484,-289.7 193,-289.7"/>
<text text-anchor="start" x="213" y="-296.8" font-family="Helvetica,sans-Serif" font-size="11.00" fill="#000000">schedule</text>
<polygon fill="none" stroke="#000000" points="484,-289.7 484,-311.7 583,-311.7 583,-289.7 484,-289.7"/>
<text text-anchor="start" x="486.7258" y="-297.4" font-family="Helvetica,sans-Serif" font-size="11.00" fill="#000000">jsonb[2147483647]</text>
<polygon fill="none" stroke="#000000" points="193,-267.7 193,-289.7 484,-289.7 484,-267.7 193,-267.7"/>
<text text-anchor="start" x="213" y="-274.8" font-family="Helvetica,sans-Serif" font-size="11.00" fill="#000000">absence_reason_category_id</text>
<polygon fill="none" stroke="#000000" points="484,-267.7 484,-289.7 583,-289.7 583,-267.7 484,-267.7"/>
<text text-anchor="start" x="487" y="-275.4" font-family="Helvetica,sans-Serif" font-size="11.00" fill="#000000">int8[19]</text>
<polygon fill="none" stroke="#000000" points="193,-245.7 193,-267.7 484,-267.7 484,-245.7 193,-245.7"/>
<text text-anchor="start" x="213" y="-252.8" font-family="Helvetica,sans-Serif" font-size="11.00" fill="#000000">reason_path</text>
<polygon fill="none" stroke="#000000" points="484,-245.7 484,-267.7 583,-267.7 583,-245.7 484,-245.7"/>
<text text-anchor="start" x="486.7258" y="-253.4" font-family="Helvetica,sans-Serif" font-size="11.00" fill="#000000">jsonb[2147483647]</text>
<polygon fill="none" stroke="#000000" points="193,-223.7 193,-245.7 484,-245.7 484,-223.7 193,-223.7"/>
<text text-anchor="start" x="213" y="-230.8" font-family="Helvetica,sans-Serif" font-size="11.00" fill="#000000">accompanied_by_id</text>
<polygon fill="none" stroke="#000000" points="484,-223.7 484,-245.7 583,-245.7 583,-223.7 484,-223.7"/>
<text text-anchor="start" x="487" y="-231.4" font-family="Helvetica,sans-Serif" font-size="11.00" fill="#000000">int8[19]</text>
<polygon fill="#ffffff" stroke="transparent" points="193,-204.7 193,-223.7 343,-223.7 343,-204.7 193,-204.7"/>
<polygon fill="none" stroke="#000000" points="193,-204.7 193,-223.7 343,-223.7 343,-204.7 193,-204.7"/>
<text text-anchor="start" x="196" y="-210.8" font-family="Helvetica,sans-Serif" font-size="11.00" fill="#000000">&lt; 1</text>
<polygon fill="#ffffff" stroke="transparent" points="343,-204.7 343,-223.7 484,-223.7 484,-204.7 343,-204.7"/>
<polygon fill="none" stroke="#000000" points="343,-204.7 343,-223.7 484,-223.7 484,-204.7 343,-204.7"/>
<text text-anchor="start" x="474.8862" y="-210.8" font-family="Helvetica,sans-Serif" font-size="11.00" fill="#000000"> &#160;</text>
<polygon fill="#ffffff" stroke="transparent" points="484,-204.7 484,-223.7 583,-223.7 583,-204.7 484,-204.7"/>
<polygon fill="none" stroke="#000000" points="484,-204.7 484,-223.7 583,-223.7 583,-204.7 484,-204.7"/>
<text text-anchor="start" x="564.4053" y="-210.8" font-family="Helvetica,sans-Serif" font-size="11.00" fill="#000000">0 &gt;</text>
<polygon fill="none" stroke="#000000" stroke-width="2" points="192,-203.7 192,-643.7 584,-643.7 584,-203.7 192,-203.7"/>
</a>
</g>
</g>
<!-- temporary_absence_authorisation_audit&#45;&gt;audit_revision -->
<g id="edge2" class="edge">
<title>temporary_absence_authorisation_audit:w&#45;&gt;audit_revision:e</title>
<path fill="none" stroke="#000000" d="M178.4951,-606.8406C103.9245,-584.9791 241.5946,-377.7 142,-377.7"/>
<polygon fill="#000000" stroke="#000000" points="185.0649,-607.6827 192.5422,-612.2708 189.0325,-608.1914 193,-608.7 193,-608.7 193,-608.7 189.0325,-608.1914 193.4578,-605.1292 185.0649,-607.6827 185.0649,-607.6827"/>
<ellipse fill="none" stroke="#000000" cx="181.8909" cy="-607.2758" rx="3.2" ry="3.2"/>
</g>
<!-- temporary_absence_movement_audit -->
<g id="node4" class="node">
<title>temporary_absence_movement_audit</title>
<g id="a_node4"><a xlink:href="../../tables/temporary_absence_movement_audit.html" xlink:title="temporary_absence_movement_audit" target="_top">
<polygon fill="#ffffff" stroke="transparent" points="243,-120.2 243,-181.2 533,-181.2 533,-120.2 243,-120.2"/>
<polygon fill="#f5f5f5" stroke="transparent" points="243,-157.7 243,-180.7 533,-180.7 533,-157.7 243,-157.7"/>
<polygon fill="none" stroke="#000000" points="243,-157.7 243,-180.7 533,-180.7 533,-157.7 243,-157.7"/>
<text text-anchor="start" x="248" y="-166.3" font-family="Helvetica,sans-Serif" font-weight="bold" font-size="11.00" fill="#000000">temporary_absence_movement_audit</text>
<text text-anchor="start" x="498.5219" y="-165.8" font-family="Helvetica,sans-Serif" font-size="11.00" fill="#000000">[table]</text>
<polygon fill="none" stroke="#000000" points="243,-138.7 243,-157.7 533,-157.7 533,-138.7 243,-138.7"/>
<text text-anchor="start" x="246" y="-144.8" font-family="Helvetica,sans-Serif" font-size="11.00" fill="#000000">...</text>
<polygon fill="#ffffff" stroke="transparent" points="243,-119.7 243,-138.7 386,-138.7 386,-119.7 243,-119.7"/>
<polygon fill="none" stroke="#000000" points="243,-119.7 243,-138.7 386,-138.7 386,-119.7 243,-119.7"/>
<text text-anchor="start" x="246" y="-125.8" font-family="Helvetica,sans-Serif" font-size="11.00" fill="#000000">&lt; 1</text>
<polygon fill="#ffffff" stroke="transparent" points="386,-119.7 386,-138.7 459,-138.7 459,-119.7 386,-119.7"/>
<polygon fill="none" stroke="#000000" points="386,-119.7 386,-138.7 459,-138.7 459,-119.7 386,-119.7"/>
<text text-anchor="start" x="449.8862" y="-125.8" font-family="Helvetica,sans-Serif" font-size="11.00" fill="#000000"> &#160;</text>
<polygon fill="#ffffff" stroke="transparent" points="459,-119.7 459,-138.7 533,-138.7 533,-119.7 459,-119.7"/>
<polygon fill="none" stroke="#000000" points="459,-119.7 459,-138.7 533,-138.7 533,-119.7 459,-119.7"/>
<text text-anchor="start" x="523.8862" y="-125.8" font-family="Helvetica,sans-Serif" font-size="11.00" fill="#000000"> &#160;</text>
</a>
</g>
</g>
<!-- temporary_absence_movement_audit&#45;&gt;audit_revision -->
<g id="edge3" class="edge">
<title>temporary_absence_movement_audit:w&#45;&gt;audit_revision:e</title>
<path fill="none" stroke="#000000" d="M228.4397,-149.0452C206.5891,-153.5702 198.0998,-169.2814 183,-192.7 137.3627,-263.4798 226.2172,-377.7 142,-377.7"/>
<polygon fill="#000000" stroke="#000000" points="235.0339,-148.436 243.3312,-151.2847 239.017,-148.068 243,-147.7 243,-147.7 243,-147.7 239.017,-148.068 242.6688,-144.1153 235.0339,-148.436 235.0339,-148.436"/>
<ellipse fill="none" stroke="#000000" cx="231.8475" cy="-148.7305" rx="3.2" ry="3.2"/>
</g>
<!-- temporary_absence_occurrence_audit -->
<g id="node5" class="node">
<title>temporary_absence_occurrence_audit</title>
<g id="a_node5"><a xlink:href="../../tables/temporary_absence_occurrence_audit.html" xlink:title="temporary_absence_occurrence_audit" target="_top">
<polygon fill="#ffffff" stroke="transparent" points="241.5,-38.2 241.5,-99.2 534.5,-99.2 534.5,-38.2 241.5,-38.2"/>
<polygon fill="#f5f5f5" stroke="transparent" points="242,-75.7 242,-98.7 535,-98.7 535,-75.7 242,-75.7"/>
<polygon fill="none" stroke="#000000" points="242,-75.7 242,-98.7 535,-98.7 535,-75.7 242,-75.7"/>
<text text-anchor="start" x="247" y="-84.3" font-family="Helvetica,sans-Serif" font-weight="bold" font-size="11.00" fill="#000000">temporary_absence_occurrence_audit</text>
<text text-anchor="start" x="500.5219" y="-83.8" font-family="Helvetica,sans-Serif" font-size="11.00" fill="#000000">[table]</text>
<polygon fill="none" stroke="#000000" points="242,-56.7 242,-75.7 535,-75.7 535,-56.7 242,-56.7"/>
<text text-anchor="start" x="245" y="-62.8" font-family="Helvetica,sans-Serif" font-size="11.00" fill="#000000">...</text>
<polygon fill="#ffffff" stroke="transparent" points="242,-37.7 242,-56.7 387,-56.7 387,-37.7 242,-37.7"/>
<polygon fill="none" stroke="#000000" points="242,-37.7 242,-56.7 387,-56.7 387,-37.7 242,-37.7"/>
<text text-anchor="start" x="245" y="-43.8" font-family="Helvetica,sans-Serif" font-size="11.00" fill="#000000">&lt; 1</text>
<polygon fill="#ffffff" stroke="transparent" points="387,-37.7 387,-56.7 461,-56.7 461,-37.7 387,-37.7"/>
<polygon fill="none" stroke="#000000" points="387,-37.7 387,-56.7 461,-56.7 461,-37.7 387,-37.7"/>
<text text-anchor="start" x="451.8862" y="-43.8" font-family="Helvetica,sans-Serif" font-size="11.00" fill="#000000"> &#160;</text>
<polygon fill="#ffffff" stroke="transparent" points="461,-37.7 461,-56.7 535,-56.7 535,-37.7 461,-37.7"/>
<polygon fill="none" stroke="#000000" points="461,-37.7 461,-56.7 535,-56.7 535,-37.7 461,-37.7"/>
<text text-anchor="start" x="525.8862" y="-43.8" font-family="Helvetica,sans-Serif" font-size="11.00" fill="#000000"> &#160;</text>
</a>
</g>
</g>
<!-- temporary_absence_occurrence_audit&#45;&gt;audit_revision -->
<g id="edge4" class="edge">
<title>temporary_absence_occurrence_audit:w&#45;&gt;audit_revision:e</title>
<path fill="none" stroke="#000000" d="M227.6432,-66.9715C205.9904,-71.2616 197.0802,-86.2592 183,-109.7 151.9771,-161.3474 202.2485,-377.7 142,-377.7"/>
<polygon fill="#000000" stroke="#000000" points="234.0312,-66.4058 242.3176,-69.286 238.0156,-66.0529 242,-65.7 242,-65.7 242,-65.7 238.0156,-66.0529 241.6824,-62.114 234.0312,-66.4058 234.0312,-66.4058"/>
<ellipse fill="none" stroke="#000000" cx="230.8437" cy="-66.6882" rx="3.2" ry="3.2"/>
</g>
</g>
</svg>
