<?xml version="1.0" encoding="UTF-8" standalone="no"?>
<!DOCTYPE svg PUBLIC "-//W3C//DTD SVG 1.1//EN"
 "http://www.w3.org/Graphics/SVG/1.1/DTD/svg11.dtd">
<!-- Generated by graphviz version 2.40.1 (20161225.0304)
 -->
<!-- Title: oneDegreeRelationshipsDiagram Pages: 1 -->
<svg width="870pt" height="761pt"
 viewBox="0.00 0.00 870.00 760.70" xmlns="http://www.w3.org/2000/svg" xmlns:xlink="http://www.w3.org/1999/xlink">
<g id="graph0" class="graph" transform="scale(1 1) rotate(0) translate(4 756.7)">
<title>oneDegreeRelationshipsDiagram</title>
<polygon fill="#ffffff" stroke="transparent" points="-4,4 -4,-756.7 866,-756.7 866,4 -4,4"/>
<text text-anchor="middle" x="72.4936" y="-7.3" font-family="Helvetica,sans-Serif" font-size="11.00" fill="#000000">Generated by SchemaSpy</text>
<!-- temporary_absence_authorisation -->
<g id="node1" class="node">
<title>temporary_absence_authorisation</title>
<g id="a_node1"><a xlink:href="../../tables/temporary_absence_authorisation.html" xlink:title="temporary_absence_authorisation" target="_top">
<polygon fill="#ffffff" stroke="transparent" points="200,-240.7 200,-748.7 553,-748.7 553,-240.7 200,-240.7"/>
<polygon fill="#f5f5f5" stroke="transparent" points="202.5,-723.7 202.5,-746.7 551.5,-746.7 551.5,-723.7 202.5,-723.7"/>
<polygon fill="none" stroke="#000000" points="202.5,-723.7 202.5,-746.7 551.5,-746.7 551.5,-723.7 202.5,-723.7"/>
<text text-anchor="start" x="207.5" y="-732.3" font-family="Helvetica,sans-Serif" font-weight="bold" font-size="11.00" fill="#000000">temporary_absence_authorisation</text>
<text text-anchor="start" x="516.5437" y="-731.8" font-family="Helvetica,sans-Serif" font-size="11.00" fill="#000000">[table]</text>
<polygon fill="none" stroke="#000000" points="202.5,-701.7 202.5,-723.7 452.5,-723.7 452.5,-701.7 202.5,-701.7"/>
<image xlink:href="../../images/primaryKeys.png" width="11px" height="12px" preserveAspectRatio="xMinYMin meet" x="207.5" y="-718.7"/>
<text text-anchor="start" x="222.5" y="-708.8" font-family="Helvetica,sans-Serif" font-size="11.00" fill="#000000">id</text>
<polygon fill="none" stroke="#000000" points="452.5,-701.7 452.5,-723.7 551.5,-723.7 551.5,-701.7 452.5,-701.7"/>
<text text-anchor="start" x="455.5" y="-709.4" font-family="Helvetica,sans-Serif" font-size="11.00" fill="#000000">uuid[2147483647]</text>
<polygon fill="none" stroke="#000000" points="202.5,-679.7 202.5,-701.7 452.5,-701.7 452.5,-679.7 202.5,-679.7"/>
<text text-anchor="start" x="222.5" y="-686.8" font-family="Helvetica,sans-Serif" font-size="11.00" fill="#000000">version</text>
<polygon fill="none" stroke="#000000" points="452.5,-679.7 452.5,-701.7 551.5,-701.7 551.5,-679.7 452.5,-679.7"/>
<text text-anchor="start" x="455.5" y="-687.4" font-family="Helvetica,sans-Serif" font-size="11.00" fill="#000000">int4[10]</text>
<polygon fill="#ffffff" stroke="transparent" points="202.5,-657.7 202.5,-679.7 452.5,-679.7 452.5,-657.7 202.5,-657.7"/>
<polygon fill="none" stroke="#000000" points="202.5,-657.7 202.5,-679.7 452.5,-679.7 452.5,-657.7 202.5,-657.7"/>
<text text-anchor="start" x="222.5" y="-664.8" font-family="Helvetica,sans-Serif" font-size="11.00" fill="#000000">person_identifier</text>
<polygon fill="none" stroke="#000000" points="452.5,-657.7 452.5,-679.7 551.5,-679.7 551.5,-657.7 452.5,-657.7"/>
<text text-anchor="start" x="455.5" y="-665.4" font-family="Helvetica,sans-Serif" font-size="11.00" fill="#000000">varchar[10]</text>
<polygon fill="#ffffff" stroke="transparent" points="202.5,-635.7 202.5,-657.7 452.5,-657.7 452.5,-635.7 202.5,-635.7"/>
<polygon fill="none" stroke="#000000" points="202.5,-635.7 202.5,-657.7 452.5,-657.7 452.5,-635.7 202.5,-635.7"/>
<text text-anchor="start" x="222.5" y="-642.8" font-family="Helvetica,sans-Serif" font-size="11.00" fill="#000000">prison_code</text>
<polygon fill="none" stroke="#000000" points="452.5,-635.7 452.5,-657.7 551.5,-657.7 551.5,-635.7 452.5,-635.7"/>
<text text-anchor="start" x="455.5" y="-643.4" font-family="Helvetica,sans-Serif" font-size="11.00" fill="#000000">varchar[6]</text>
<polygon fill="none" stroke="#000000" points="202.5,-613.7 202.5,-635.7 452.5,-635.7 452.5,-613.7 202.5,-613.7"/>
<image xlink:href="../../images/foreignKeys.png" width="11px" height="12px" preserveAspectRatio="xMinYMin meet" x="207.5" y="-630.7"/>
<text text-anchor="start" x="222.5" y="-620.8" font-family="Helvetica,sans-Serif" font-size="11.00" fill="#000000">absence_type_id</text>
<polygon fill="none" stroke="#000000" points="452.5,-613.7 452.5,-635.7 551.5,-635.7 551.5,-613.7 452.5,-613.7"/>
<text text-anchor="start" x="455.5" y="-621.4" font-family="Helvetica,sans-Serif" font-size="11.00" fill="#000000">int8[19]</text>
<polygon fill="none" stroke="#000000" points="202.5,-591.7 202.5,-613.7 452.5,-613.7 452.5,-591.7 202.5,-591.7"/>
<image xlink:href="../../images/foreignKeys.png" width="11px" height="12px" preserveAspectRatio="xMinYMin meet" x="207.5" y="-608.7"/>
<text text-anchor="start" x="222.5" y="-598.8" font-family="Helvetica,sans-Serif" font-size="11.00" fill="#000000">absence_sub_type_id</text>
<polygon fill="none" stroke="#000000" points="452.5,-591.7 452.5,-613.7 551.5,-613.7 551.5,-591.7 452.5,-591.7"/>
<text text-anchor="start" x="455.5" y="-599.4" font-family="Helvetica,sans-Serif" font-size="11.00" fill="#000000">int8[19]</text>
<polygon fill="none" stroke="#000000" points="202.5,-569.7 202.5,-591.7 452.5,-591.7 452.5,-569.7 202.5,-569.7"/>
<image xlink:href="../../images/foreignKeys.png" width="11px" height="12px" preserveAspectRatio="xMinYMin meet" x="207.5" y="-586.7"/>
<text text-anchor="start" x="222.5" y="-576.8" font-family="Helvetica,sans-Serif" font-size="11.00" fill="#000000">absence_reason_id</text>
<polygon fill="none" stroke="#000000" points="452.5,-569.7 452.5,-591.7 551.5,-591.7 551.5,-569.7 452.5,-569.7"/>
<text text-anchor="start" x="455.5" y="-577.4" font-family="Helvetica,sans-Serif" font-size="11.00" fill="#000000">int8[19]</text>
<polygon fill="none" stroke="#000000" points="202.5,-547.7 202.5,-569.7 452.5,-569.7 452.5,-547.7 202.5,-547.7"/>
<text text-anchor="start" x="222.5" y="-554.8" font-family="Helvetica,sans-Serif" font-size="11.00" fill="#000000">repeat</text>
<polygon fill="none" stroke="#000000" points="452.5,-547.7 452.5,-569.7 551.5,-569.7 551.5,-547.7 452.5,-547.7"/>
<text text-anchor="start" x="455.5" y="-555.4" font-family="Helvetica,sans-Serif" font-size="11.00" fill="#000000">bool[1]</text>
<polygon fill="none" stroke="#000000" points="202.5,-525.7 202.5,-547.7 452.5,-547.7 452.5,-525.7 202.5,-525.7"/>
<image xlink:href="../../images/foreignKeys.png" width="11px" height="12px" preserveAspectRatio="xMinYMin meet" x="207.5" y="-542.7"/>
<text text-anchor="start" x="222.5" y="-532.8" font-family="Helvetica,sans-Serif" font-size="11.00" fill="#000000">status_id</text>
<polygon fill="none" stroke="#000000" points="452.5,-525.7 452.5,-547.7 551.5,-547.7 551.5,-525.7 452.5,-525.7"/>
<text text-anchor="start" x="455.5" y="-533.4" font-family="Helvetica,sans-Serif" font-size="11.00" fill="#000000">int8[19]</text>
<polygon fill="none" stroke="#000000" points="202.5,-503.7 202.5,-525.7 452.5,-525.7 452.5,-503.7 202.5,-503.7"/>
<text text-anchor="start" x="222.5" y="-510.8" font-family="Helvetica,sans-Serif" font-size="11.00" fill="#000000">notes</text>
<polygon fill="none" stroke="#000000" points="452.5,-503.7 452.5,-525.7 551.5,-525.7 551.5,-503.7 452.5,-503.7"/>
<text text-anchor="start" x="455.5" y="-511.4" font-family="Helvetica,sans-Serif" font-size="11.00" fill="#000000">text[2147483647]</text>
<polygon fill="none" stroke="#000000" points="202.5,-481.7 202.5,-503.7 452.5,-503.7 452.5,-481.7 202.5,-481.7"/>
<text text-anchor="start" x="222.5" y="-488.8" font-family="Helvetica,sans-Serif" font-size="11.00" fill="#000000">submitted_at</text>
<polygon fill="none" stroke="#000000" points="452.5,-481.7 452.5,-503.7 551.5,-503.7 551.5,-481.7 452.5,-481.7"/>
<text text-anchor="start" x="455.5" y="-489.4" font-family="Helvetica,sans-Serif" font-size="11.00" fill="#000000">timestamp[29,6]</text>
<polygon fill="none" stroke="#000000" points="202.5,-459.7 202.5,-481.7 452.5,-481.7 452.5,-459.7 202.5,-459.7"/>
<text text-anchor="start" x="222.5" y="-466.8" font-family="Helvetica,sans-Serif" font-size="11.00" fill="#000000">submitted_by</text>
<polygon fill="none" stroke="#000000" points="452.5,-459.7 452.5,-481.7 551.5,-481.7 551.5,-459.7 452.5,-459.7"/>
<text text-anchor="start" x="455.5" y="-467.4" font-family="Helvetica,sans-Serif" font-size="11.00" fill="#000000">varchar[64]</text>
<polygon fill="none" stroke="#000000" points="202.5,-437.7 202.5,-459.7 452.5,-459.7 452.5,-437.7 202.5,-437.7"/>
<text text-anchor="start" x="222.5" y="-444.8" font-family="Helvetica,sans-Serif" font-size="11.00" fill="#000000">approved_at</text>
<polygon fill="none" stroke="#000000" points="452.5,-437.7 452.5,-459.7 551.5,-459.7 551.5,-437.7 452.5,-437.7"/>
<text text-anchor="start" x="455.5" y="-445.4" font-family="Helvetica,sans-Serif" font-size="11.00" fill="#000000">timestamp[29,6]</text>
<polygon fill="none" stroke="#000000" points="202.5,-415.7 202.5,-437.7 452.5,-437.7 452.5,-415.7 202.5,-415.7"/>
<text text-anchor="start" x="222.5" y="-422.8" font-family="Helvetica,sans-Serif" font-size="11.00" fill="#000000">approved_by</text>
<polygon fill="none" stroke="#000000" points="452.5,-415.7 452.5,-437.7 551.5,-437.7 551.5,-415.7 452.5,-415.7"/>
<text text-anchor="start" x="455.5" y="-423.4" font-family="Helvetica,sans-Serif" font-size="11.00" fill="#000000">varchar[64]</text>
<polygon fill="#ffffff" stroke="transparent" points="202.5,-393.7 202.5,-415.7 452.5,-415.7 452.5,-393.7 202.5,-393.7"/>
<polygon fill="none" stroke="#000000" points="202.5,-393.7 202.5,-415.7 452.5,-415.7 452.5,-393.7 202.5,-393.7"/>
<text text-anchor="start" x="222.5" y="-400.8" font-family="Helvetica,sans-Serif" font-size="11.00" fill="#000000">legacy_id</text>
<polygon fill="none" stroke="#000000" points="452.5,-393.7 452.5,-415.7 551.5,-415.7 551.5,-393.7 452.5,-393.7"/>
<text text-anchor="start" x="455.5" y="-401.4" font-family="Helvetica,sans-Serif" font-size="11.00" fill="#000000">int8[19]</text>
<polygon fill="#ffffff" stroke="transparent" points="202.5,-371.7 202.5,-393.7 452.5,-393.7 452.5,-371.7 202.5,-371.7"/>
<polygon fill="none" stroke="#000000" points="202.5,-371.7 202.5,-393.7 452.5,-393.7 452.5,-371.7 202.5,-371.7"/>
<text text-anchor="start" x="222.5" y="-378.8" font-family="Helvetica,sans-Serif" font-size="11.00" fill="#000000">from_date</text>
<polygon fill="none" stroke="#000000" points="452.5,-371.7 452.5,-393.7 551.5,-393.7 551.5,-371.7 452.5,-371.7"/>
<text text-anchor="start" x="455.5" y="-379.4" font-family="Helvetica,sans-Serif" font-size="11.00" fill="#000000">date[13]</text>
<polygon fill="#ffffff" stroke="transparent" points="202.5,-349.7 202.5,-371.7 452.5,-371.7 452.5,-349.7 202.5,-349.7"/>
<polygon fill="none" stroke="#000000" points="202.5,-349.7 202.5,-371.7 452.5,-371.7 452.5,-349.7 202.5,-349.7"/>
<text text-anchor="start" x="222.5" y="-356.8" font-family="Helvetica,sans-Serif" font-size="11.00" fill="#000000">to_date</text>
<polygon fill="none" stroke="#000000" points="452.5,-349.7 452.5,-371.7 551.5,-371.7 551.5,-349.7 452.5,-349.7"/>
<text text-anchor="start" x="455.5" y="-357.4" font-family="Helvetica,sans-Serif" font-size="11.00" fill="#000000">date[13]</text>
<polygon fill="none" stroke="#000000" points="202.5,-327.7 202.5,-349.7 452.5,-349.7 452.5,-327.7 202.5,-327.7"/>
<text text-anchor="start" x="222.5" y="-334.8" font-family="Helvetica,sans-Serif" font-size="11.00" fill="#000000">schedule</text>
<polygon fill="none" stroke="#000000" points="452.5,-327.7 452.5,-349.7 551.5,-349.7 551.5,-327.7 452.5,-327.7"/>
<text text-anchor="start" x="455.2258" y="-335.4" font-family="Helvetica,sans-Serif" font-size="11.00" fill="#000000">jsonb[2147483647]</text>
<polygon fill="none" stroke="#000000" points="202.5,-305.7 202.5,-327.7 452.5,-327.7 452.5,-305.7 202.5,-305.7"/>
<image xlink:href="../../images/foreignKeys.png" width="11px" height="12px" preserveAspectRatio="xMinYMin meet" x="207.5" y="-322.7"/>
<text text-anchor="start" x="222.5" y="-312.8" font-family="Helvetica,sans-Serif" font-size="11.00" fill="#000000">absence_reason_category_id</text>
<polygon fill="none" stroke="#000000" points="452.5,-305.7 452.5,-327.7 551.5,-327.7 551.5,-305.7 452.5,-305.7"/>
<text text-anchor="start" x="455.5" y="-313.4" font-family="Helvetica,sans-Serif" font-size="11.00" fill="#000000">int8[19]</text>
<polygon fill="none" stroke="#000000" points="202.5,-283.7 202.5,-305.7 452.5,-305.7 452.5,-283.7 202.5,-283.7"/>
<text text-anchor="start" x="222.5" y="-290.8" font-family="Helvetica,sans-Serif" font-size="11.00" fill="#000000">reason_path</text>
<polygon fill="none" stroke="#000000" points="452.5,-283.7 452.5,-305.7 551.5,-305.7 551.5,-283.7 452.5,-283.7"/>
<text text-anchor="start" x="455.2258" y="-291.4" font-family="Helvetica,sans-Serif" font-size="11.00" fill="#000000">jsonb[2147483647]</text>
<polygon fill="none" stroke="#000000" points="202.5,-261.7 202.5,-283.7 452.5,-283.7 452.5,-261.7 202.5,-261.7"/>
<image xlink:href="../../images/foreignKeys.png" width="11px" height="12px" preserveAspectRatio="xMinYMin meet" x="207.5" y="-278.7"/>
<text text-anchor="start" x="222.5" y="-268.8" font-family="Helvetica,sans-Serif" font-size="11.00" fill="#000000">accompanied_by_id</text>
<polygon fill="none" stroke="#000000" points="452.5,-261.7 452.5,-283.7 551.5,-283.7 551.5,-261.7 452.5,-261.7"/>
<text text-anchor="start" x="455.5" y="-269.4" font-family="Helvetica,sans-Serif" font-size="11.00" fill="#000000">int8[19]</text>
<polygon fill="#ffffff" stroke="transparent" points="202.5,-242.7 202.5,-261.7 331.5,-261.7 331.5,-242.7 202.5,-242.7"/>
<polygon fill="none" stroke="#000000" points="202.5,-242.7 202.5,-261.7 331.5,-261.7 331.5,-242.7 202.5,-242.7"/>
<text text-anchor="start" x="205.5" y="-248.8" font-family="Helvetica,sans-Serif" font-size="11.00" fill="#000000">&lt; 6</text>
<polygon fill="#ffffff" stroke="transparent" points="331.5,-242.7 331.5,-261.7 452.5,-261.7 452.5,-242.7 331.5,-242.7"/>
<polygon fill="none" stroke="#000000" points="331.5,-242.7 331.5,-261.7 452.5,-261.7 452.5,-242.7 331.5,-242.7"/>
<text text-anchor="start" x="443.3862" y="-248.8" font-family="Helvetica,sans-Serif" font-size="11.00" fill="#000000"> &#160;</text>
<polygon fill="#ffffff" stroke="transparent" points="452.5,-242.7 452.5,-261.7 551.5,-261.7 551.5,-242.7 452.5,-242.7"/>
<polygon fill="none" stroke="#000000" points="452.5,-242.7 452.5,-261.7 551.5,-261.7 551.5,-242.7 452.5,-242.7"/>
<text text-anchor="start" x="532.9053" y="-248.8" font-family="Helvetica,sans-Serif" font-size="11.00" fill="#000000">1 &gt;</text>
<polygon fill="none" stroke="#000000" stroke-width="2" points="201,-241.7 201,-747.7 552,-747.7 552,-241.7 201,-241.7"/>
</a>
</g>
</g>
<!-- reference_data -->
<g id="node2" class="node">
<title>reference_data</title>
<g id="a_node2"><a xlink:href="../../tables/reference_data.html" xlink:title="reference_data" target="_top">
<polygon fill="#ffffff" stroke="transparent" points="8,-130.2 8,-279.2 151,-279.2 151,-130.2 8,-130.2"/>
<polygon fill="#f5f5f5" stroke="transparent" points="8.5,-255.7 8.5,-278.7 151.5,-278.7 151.5,-255.7 8.5,-255.7"/>
<polygon fill="none" stroke="#000000" points="8.5,-255.7 8.5,-278.7 151.5,-278.7 151.5,-255.7 8.5,-255.7"/>
<text text-anchor="start" x="13.5" y="-264.3" font-family="Helvetica,sans-Serif" font-weight="bold" font-size="11.00" fill="#000000">reference_data</text>
<text text-anchor="start" x="116.5437" y="-263.8" font-family="Helvetica,sans-Serif" font-size="11.00" fill="#000000">[table]</text>
<polygon fill="none" stroke="#000000" points="8.5,-233.7 8.5,-255.7 151.5,-255.7 151.5,-233.7 8.5,-233.7"/>
<image xlink:href="../../images/primaryKeys.png" width="11px" height="12px" preserveAspectRatio="xMinYMin meet" x="13.5" y="-250.7"/>
<text text-anchor="start" x="28.5" y="-240.8" font-family="Helvetica,sans-Serif" font-size="11.00" fill="#000000">id</text>
<polygon fill="#ffffff" stroke="transparent" points="8.5,-211.7 8.5,-233.7 151.5,-233.7 151.5,-211.7 8.5,-211.7"/>
<polygon fill="none" stroke="#000000" points="8.5,-211.7 8.5,-233.7 151.5,-233.7 151.5,-211.7 8.5,-211.7"/>
<image xlink:href="../../images/foreignKeys.png" width="11px" height="12px" preserveAspectRatio="xMinYMin meet" x="13.5" y="-228.7"/>
<text text-anchor="start" x="28.5" y="-218.8" font-family="Helvetica,sans-Serif" font-size="11.00" fill="#000000">domain</text>
<polygon fill="#ffffff" stroke="transparent" points="8.5,-189.7 8.5,-211.7 151.5,-211.7 151.5,-189.7 8.5,-189.7"/>
<polygon fill="none" stroke="#000000" points="8.5,-189.7 8.5,-211.7 151.5,-211.7 151.5,-189.7 8.5,-189.7"/>
<text text-anchor="start" x="28.5" y="-196.8" font-family="Helvetica,sans-Serif" font-size="11.00" fill="#000000">code</text>
<polygon fill="#ffffff" stroke="transparent" points="8.5,-167.7 8.5,-189.7 151.5,-189.7 151.5,-167.7 8.5,-167.7"/>
<polygon fill="none" stroke="#000000" points="8.5,-167.7 8.5,-189.7 151.5,-189.7 151.5,-167.7 8.5,-167.7"/>
<text text-anchor="start" x="28.5" y="-174.8" font-family="Helvetica,sans-Serif" font-size="11.00" fill="#000000">sequence_number</text>
<polygon fill="none" stroke="#000000" points="8.5,-148.7 8.5,-167.7 151.5,-167.7 151.5,-148.7 8.5,-148.7"/>
<text text-anchor="start" x="11.5" y="-154.8" font-family="Helvetica,sans-Serif" font-size="11.00" fill="#000000">...</text>
<polygon fill="#ffffff" stroke="transparent" points="8.5,-129.7 8.5,-148.7 70.5,-148.7 70.5,-129.7 8.5,-129.7"/>
<polygon fill="none" stroke="#000000" points="8.5,-129.7 8.5,-148.7 70.5,-148.7 70.5,-129.7 8.5,-129.7"/>
<text text-anchor="start" x="11.5" y="-135.8" font-family="Helvetica,sans-Serif" font-size="11.00" fill="#000000">&lt; 1</text>
<polygon fill="#ffffff" stroke="transparent" points="70.5,-129.7 70.5,-148.7 103.5,-148.7 103.5,-129.7 70.5,-129.7"/>
<polygon fill="none" stroke="#000000" points="70.5,-129.7 70.5,-148.7 103.5,-148.7 103.5,-129.7 70.5,-129.7"/>
<text text-anchor="start" x="94.3862" y="-135.8" font-family="Helvetica,sans-Serif" font-size="11.00" fill="#000000"> &#160;</text>
<polygon fill="#ffffff" stroke="transparent" points="103.5,-129.7 103.5,-148.7 151.5,-148.7 151.5,-129.7 103.5,-129.7"/>
<polygon fill="none" stroke="#000000" points="103.5,-129.7 103.5,-148.7 151.5,-148.7 151.5,-129.7 103.5,-129.7"/>
<text text-anchor="start" x="126.7904" y="-135.8" font-family="Helvetica,sans-Serif" font-size="11.00" fill="#000000">17 &gt;</text>
</a>
</g>
</g>
<!-- temporary_absence_authorisation&#45;&gt;reference_data -->
<g id="edge1" class="edge">
<title>temporary_absence_authorisation:w&#45;&gt;reference_data:e</title>
<path fill="none" stroke="#000000" d="M188.7466,-312.1961C170.0961,-296.4335 184.7404,-244.7 151.5,-244.7"/>
<polygon fill="#000000" stroke="#000000" points="194.8973,-314.2102 201.3796,-320.1212 198.6986,-315.4551 202.5,-316.7 202.5,-316.7 202.5,-316.7 198.6986,-315.4551 203.6204,-313.2788 194.8973,-314.2102 194.8973,-314.2102"/>
<ellipse fill="none" stroke="#000000" cx="191.8562" cy="-313.2143" rx="3.2" ry="3.2"/>
</g>
<!-- temporary_absence_authorisation&#45;&gt;reference_data -->
<g id="edge2" class="edge">
<title>temporary_absence_authorisation:w&#45;&gt;reference_data:e</title>
<path fill="none" stroke="#000000" d="M188.0257,-579.4833C68.6138,-557.4903 297.2336,-244.7 151.5,-244.7"/>
<polygon fill="#000000" stroke="#000000" points="194.5281,-580.0299 202.1984,-584.2873 198.5141,-580.3649 202.5,-580.7 202.5,-580.7 202.5,-580.7 198.5141,-580.3649 202.8016,-577.1127 194.5281,-580.0299 194.5281,-580.0299"/>
<ellipse fill="none" stroke="#000000" cx="191.3394" cy="-579.7618" rx="3.2" ry="3.2"/>
</g>
<!-- temporary_absence_authorisation&#45;&gt;reference_data -->
<g id="edge3" class="edge">
<title>temporary_absence_authorisation:w&#45;&gt;reference_data:e</title>
<path fill="none" stroke="#000000" d="M187.8854,-601.5422C59.2657,-579.3212 306.8812,-244.7 151.5,-244.7"/>
<polygon fill="#000000" stroke="#000000" points="194.525,-602.0681 202.2157,-606.2888 198.5125,-602.3841 202.5,-602.7 202.5,-602.7 202.5,-602.7 198.5125,-602.3841 202.7843,-599.1112 194.525,-602.0681 194.525,-602.0681"/>
<ellipse fill="none" stroke="#000000" cx="191.335" cy="-601.8154" rx="3.2" ry="3.2"/>
</g>
<!-- temporary_absence_authorisation&#45;&gt;reference_data -->
<g id="edge4" class="edge">
<title>temporary_absence_authorisation:w&#45;&gt;reference_data:e</title>
<path fill="none" stroke="#000000" d="M187.8449,-623.6099C49.7603,-601.3211 316.5781,-244.7 151.5,-244.7"/>
<polygon fill="#000000" stroke="#000000" points="194.522,-624.1065 202.2329,-628.2901 198.511,-624.4033 202.5,-624.7 202.5,-624.7 202.5,-624.7 198.511,-624.4033 202.7671,-621.1099 194.522,-624.1065 194.522,-624.1065"/>
<ellipse fill="none" stroke="#000000" cx="191.3309" cy="-623.8691" rx="3.2" ry="3.2"/>
</g>
<!-- temporary_absence_authorisation&#45;&gt;reference_data -->
<g id="edge5" class="edge">
<title>temporary_absence_authorisation:w&#45;&gt;reference_data:e</title>
<path fill="none" stroke="#000000" d="M188.3987,-269.0395C175.6024,-261.4498 171.4996,-244.7 151.5,-244.7"/>
<polygon fill="#000000" stroke="#000000" points="194.7566,-270.6899 201.5954,-276.1845 198.6283,-271.6949 202.5,-272.7 202.5,-272.7 202.5,-272.7 198.6283,-271.6949 203.4046,-269.2155 194.7566,-270.6899 194.7566,-270.6899"/>
<ellipse fill="none" stroke="#000000" cx="191.6593" cy="-269.8858" rx="3.2" ry="3.2"/>
</g>
<!-- temporary_absence_authorisation&#45;&gt;reference_data -->
<g id="edge6" class="edge">
<title>temporary_absence_authorisation:w&#45;&gt;reference_data:e</title>
<path fill="none" stroke="#000000" d="M187.9793,-535.2666C87.6089,-513.2381 277.8389,-244.7 151.5,-244.7"/>
<polygon fill="#000000" stroke="#000000" points="194.5387,-535.9141 202.1463,-540.2826 198.5193,-536.307 202.5,-536.7 202.5,-536.7 202.5,-536.7 198.5193,-536.307 202.8537,-533.1174 194.5387,-535.9141 194.5387,-535.9141"/>
<ellipse fill="none" stroke="#000000" cx="191.3542" cy="-535.5997" rx="3.2" ry="3.2"/>
</g>
<!-- temporary_absence_occurrence -->
<g id="node3" class="node">
<title>temporary_absence_occurrence</title>
<g id="a_node3"><a xlink:href="../../tables/temporary_absence_occurrence.html" xlink:title="temporary_absence_occurrence" target="_top">
<polygon fill="#ffffff" stroke="transparent" points="602,-38.2 602,-363.2 854,-363.2 854,-38.2 602,-38.2"/>
<polygon fill="#f5f5f5" stroke="transparent" points="602,-339.7 602,-362.7 854,-362.7 854,-339.7 602,-339.7"/>
<polygon fill="none" stroke="#000000" points="602,-339.7 602,-362.7 854,-362.7 854,-339.7 602,-339.7"/>
<text text-anchor="start" x="607" y="-348.3" font-family="Helvetica,sans-Serif" font-weight="bold" font-size="11.00" fill="#000000">temporary_absence_occurrence</text>
<text text-anchor="start" x="819.5219" y="-347.8" font-family="Helvetica,sans-Serif" font-size="11.00" fill="#000000">[table]</text>
<polygon fill="none" stroke="#000000" points="602,-317.7 602,-339.7 854,-339.7 854,-317.7 602,-317.7"/>
<image xlink:href="../../images/primaryKeys.png" width="11px" height="12px" preserveAspectRatio="xMinYMin meet" x="607" y="-334.7"/>
<text text-anchor="start" x="631" y="-324.8" font-family="Helvetica,sans-Serif" font-size="11.00" fill="#000000">id</text>
<polygon fill="#ffffff" stroke="transparent" points="602,-295.7 602,-317.7 854,-317.7 854,-295.7 602,-295.7"/>
<polygon fill="none" stroke="#000000" points="602,-295.7 602,-317.7 854,-317.7 854,-295.7 602,-295.7"/>
<text text-anchor="start" x="631" y="-302.8" font-family="Helvetica,sans-Serif" font-size="11.00" fill="#000000">person_identifier</text>
<polygon fill="#ffffff" stroke="transparent" points="602,-273.7 602,-295.7 854,-295.7 854,-273.7 602,-273.7"/>
<polygon fill="none" stroke="#000000" points="602,-273.7 602,-295.7 854,-295.7 854,-273.7 602,-273.7"/>
<image xlink:href="../../images/foreignKeys.png" width="11px" height="12px" preserveAspectRatio="xMinYMin meet" x="607" y="-290.7"/>
<text text-anchor="start" x="631" y="-280.8" font-family="Helvetica,sans-Serif" font-size="11.00" fill="#000000">authorisation_id</text>
<polygon fill="#ffffff" stroke="transparent" points="602,-251.7 602,-273.7 854,-273.7 854,-251.7 602,-251.7"/>
<polygon fill="none" stroke="#000000" points="602,-251.7 602,-273.7 854,-273.7 854,-251.7 602,-251.7"/>
<text text-anchor="start" x="631" y="-258.8" font-family="Helvetica,sans-Serif" font-size="11.00" fill="#000000">release_at</text>
<polygon fill="#ffffff" stroke="transparent" points="602,-229.7 602,-251.7 854,-251.7 854,-229.7 602,-229.7"/>
<polygon fill="none" stroke="#000000" points="602,-229.7 602,-251.7 854,-251.7 854,-229.7 602,-229.7"/>
<text text-anchor="start" x="631" y="-236.8" font-family="Helvetica,sans-Serif" font-size="11.00" fill="#000000">return_by</text>
<polygon fill="none" stroke="#000000" points="602,-207.7 602,-229.7 854,-229.7 854,-207.7 602,-207.7"/>
<image xlink:href="../../images/foreignKeys.png" width="11px" height="12px" preserveAspectRatio="xMinYMin meet" x="607" y="-224.7"/>
<text text-anchor="start" x="631" y="-214.8" font-family="Helvetica,sans-Serif" font-size="11.00" fill="#000000">accompanied_by_id</text>
<polygon fill="none" stroke="#000000" points="602,-185.7 602,-207.7 854,-207.7 854,-185.7 602,-185.7"/>
<image xlink:href="../../images/foreignKeys.png" width="11px" height="12px" preserveAspectRatio="xMinYMin meet" x="607" y="-202.7"/>
<text text-anchor="start" x="631" y="-192.8" font-family="Helvetica,sans-Serif" font-size="11.00" fill="#000000">transport_id</text>
<polygon fill="#ffffff" stroke="transparent" points="602,-163.7 602,-185.7 854,-185.7 854,-163.7 602,-163.7"/>
<polygon fill="none" stroke="#000000" points="602,-163.7 602,-185.7 854,-185.7 854,-163.7 602,-163.7"/>
<text text-anchor="start" x="631" y="-170.8" font-family="Helvetica,sans-Serif" font-size="11.00" fill="#000000">legacy_id</text>
<polygon fill="none" stroke="#000000" points="602,-141.7 602,-163.7 854,-163.7 854,-141.7 602,-141.7"/>
<image xlink:href="../../images/foreignKeys.png" width="11px" height="12px" preserveAspectRatio="xMinYMin meet" x="607" y="-158.7"/>
<text text-anchor="start" x="631" y="-148.8" font-family="Helvetica,sans-Serif" font-size="11.00" fill="#000000">absence_type_id</text>
<polygon fill="none" stroke="#000000" points="602,-119.7 602,-141.7 854,-141.7 854,-119.7 602,-119.7"/>
<image xlink:href="../../images/foreignKeys.png" width="11px" height="12px" preserveAspectRatio="xMinYMin meet" x="607" y="-136.7"/>
<text text-anchor="start" x="631" y="-126.8" font-family="Helvetica,sans-Serif" font-size="11.00" fill="#000000">absence_sub_type_id</text>
<polygon fill="none" stroke="#000000" points="602,-97.7 602,-119.7 854,-119.7 854,-97.7 602,-97.7"/>
<image xlink:href="../../images/foreignKeys.png" width="11px" height="12px" preserveAspectRatio="xMinYMin meet" x="607" y="-114.7"/>
<text text-anchor="start" x="631" y="-104.8" font-family="Helvetica,sans-Serif" font-size="11.00" fill="#000000">absence_reason_category_id</text>
<polygon fill="none" stroke="#000000" points="602,-75.7 602,-97.7 854,-97.7 854,-75.7 602,-75.7"/>
<image xlink:href="../../images/foreignKeys.png" width="11px" height="12px" preserveAspectRatio="xMinYMin meet" x="607" y="-92.7"/>
<text text-anchor="start" x="631" y="-82.8" font-family="Helvetica,sans-Serif" font-size="11.00" fill="#000000">absence_reason_id</text>
<polygon fill="none" stroke="#000000" points="602,-56.7 602,-75.7 854,-75.7 854,-56.7 602,-56.7"/>
<text text-anchor="start" x="605" y="-62.8" font-family="Helvetica,sans-Serif" font-size="11.00" fill="#000000">...</text>
<polygon fill="#ffffff" stroke="transparent" points="602,-37.7 602,-56.7 722,-56.7 722,-37.7 602,-37.7"/>
<polygon fill="none" stroke="#000000" points="602,-37.7 602,-56.7 722,-56.7 722,-37.7 602,-37.7"/>
<text text-anchor="start" x="605" y="-43.8" font-family="Helvetica,sans-Serif" font-size="11.00" fill="#000000">&lt; 7</text>
<polygon fill="#ffffff" stroke="transparent" points="722,-37.7 722,-56.7 783,-56.7 783,-37.7 722,-37.7"/>
<polygon fill="none" stroke="#000000" points="722,-37.7 722,-56.7 783,-56.7 783,-37.7 722,-37.7"/>
<text text-anchor="start" x="773.8862" y="-43.8" font-family="Helvetica,sans-Serif" font-size="11.00" fill="#000000"> &#160;</text>
<polygon fill="#ffffff" stroke="transparent" points="783,-37.7 783,-56.7 854,-56.7 854,-37.7 783,-37.7"/>
<polygon fill="none" stroke="#000000" points="783,-37.7 783,-56.7 854,-56.7 854,-37.7 783,-37.7"/>
<text text-anchor="start" x="835.4053" y="-43.8" font-family="Helvetica,sans-Serif" font-size="11.00" fill="#000000">1 &gt;</text>
</a>
</g>
</g>
<!-- temporary_absence_occurrence&#45;&gt;temporary_absence_authorisation -->
<g id="edge12" class="edge">
<title>temporary_absence_occurrence:w&#45;&gt;temporary_absence_authorisation:e</title>
<path fill="none" stroke="#000000" d="M587.9196,-288.6637C521.4468,-331.8113 641.8464,-712.7 551.5,-712.7"/>
<polygon fill="#000000" stroke="#000000" points="594.2993,-286.8678 602.9755,-288.1653 598.1497,-285.7839 602,-284.7 602,-284.7 602,-284.7 598.1497,-285.7839 601.0245,-281.2347 594.2993,-286.8678 594.2993,-286.8678"/>
<ellipse fill="none" stroke="#000000" cx="591.219" cy="-287.735" rx="3.2" ry="3.2"/>
</g>
<!-- temporary_absence_occurrence&#45;&gt;reference_data -->
<g id="edge7" class="edge">
<title>temporary_absence_occurrence:w&#45;&gt;reference_data:e</title>
<path fill="none" stroke="#000000" d="M587.5746,-108.4461C487.2203,-105.2469 261.4624,-73.7553 192,-125.7 147.2586,-159.1581 207.368,-244.7 151.5,-244.7"/>
<polygon fill="#000000" stroke="#000000" points="594.0012,-108.5592 601.9366,-112.2994 598.0006,-108.6296 602,-108.7 602,-108.7 602,-108.7 598.0006,-108.6296 602.0634,-105.1006 594.0012,-108.5592 594.0012,-108.5592"/>
<ellipse fill="none" stroke="#000000" cx="590.8017" cy="-108.5028" rx="3.2" ry="3.2"/>
</g>
<!-- temporary_absence_occurrence&#45;&gt;reference_data -->
<g id="edge8" class="edge">
<title>temporary_absence_occurrence:w&#45;&gt;reference_data:e</title>
<path fill="none" stroke="#000000" d="M587.5262,-86.4787C415.1911,-81.2086 331.7914,15.4465 192,-93.7 137.2332,-136.4609 220.9831,-244.7 151.5,-244.7"/>
<polygon fill="#000000" stroke="#000000" points="594.0009,-86.5777 601.9449,-90.2996 598.0005,-86.6388 602,-86.7 602,-86.7 602,-86.7 598.0005,-86.6388 602.0551,-83.1004 594.0009,-86.5777 594.0009,-86.5777"/>
<ellipse fill="none" stroke="#000000" cx="590.8013" cy="-86.5287" rx="3.2" ry="3.2"/>
</g>
<!-- temporary_absence_occurrence&#45;&gt;reference_data -->
<g id="edge9" class="edge">
<title>temporary_absence_occurrence:w&#45;&gt;reference_data:e</title>
<path fill="none" stroke="#000000" d="M587.5813,-130.4992C487.3607,-127.9766 263.3895,-103.349 192,-152.7 155.2507,-178.1045 196.1755,-244.7 151.5,-244.7"/>
<polygon fill="#000000" stroke="#000000" points="594.0008,-130.5886 601.9499,-134.2997 598.0004,-130.6443 602,-130.7 602,-130.7 602,-130.7 598.0004,-130.6443 602.0501,-127.1003 594.0008,-130.5886 594.0008,-130.5886"/>
<ellipse fill="none" stroke="#000000" cx="590.8011" cy="-130.544" rx="3.2" ry="3.2"/>
</g>
<!-- temporary_absence_occurrence&#45;&gt;reference_data -->
<g id="edge10" class="edge">
<title>temporary_absence_occurrence:w&#45;&gt;reference_data:e</title>
<path fill="none" stroke="#000000" d="M587.5949,-152.5676C487.6052,-150.9141 266.5068,-135.0719 192,-179.7 162.7998,-197.1904 185.5377,-244.7 151.5,-244.7"/>
<polygon fill="#000000" stroke="#000000" points="594.0003,-152.6264 601.9669,-156.2998 598.0002,-152.6632 602,-152.7 602,-152.7 602,-152.7 598.0002,-152.6632 602.0331,-149.1002 594.0003,-152.6264 594.0003,-152.6264"/>
<ellipse fill="none" stroke="#000000" cx="590.8005" cy="-152.597" rx="3.2" ry="3.2"/>
</g>
<!-- temporary_absence_occurrence&#45;&gt;reference_data -->
<g id="edge11" class="edge">
<title>temporary_absence_occurrence:w&#45;&gt;reference_data:e</title>
<path fill="none" stroke="#000000" d="M587.5974,-218.6564C417.0068,-217.6202 366.5052,-198.7578 192,-230.7 173.2661,-234.1291 170.5451,-244.7 151.5,-244.7"/>
<polygon fill="#000000" stroke="#000000" points="594,-218.6757 601.9891,-222.3 598,-218.6879 602,-218.7 602,-218.7 602,-218.7 598,-218.6879 602.0109,-215.1 594,-218.6757 594,-218.6757"/>
<ellipse fill="none" stroke="#000000" cx="590.8001" cy="-218.666" rx="3.2" ry="3.2"/>
</g>
<!-- temporary_absence_occurrence&#45;&gt;reference_data -->
<g id="edge13" class="edge">
<title>temporary_absence_occurrence:w&#45;&gt;reference_data:e</title>
<path fill="none" stroke="#000000" d="M587.5765,-196.5839C416.4901,-193.8197 356.8838,-143.2347 192,-208.7 169.6165,-217.5871 175.5832,-244.7 151.5,-244.7"/>
<polygon fill="#000000" stroke="#000000" points="594.0003,-196.6355 601.971,-200.2999 598.0001,-196.6678 602,-196.7 602,-196.7 602,-196.7 598.0001,-196.6678 602.029,-193.1001 594.0003,-196.6355 594.0003,-196.6355"/>
<ellipse fill="none" stroke="#000000" cx="590.8004" cy="-196.6097" rx="3.2" ry="3.2"/>
</g>
</g>
</svg>
