<?xml version="1.0" encoding="UTF-8" standalone="no"?>
<!DOCTYPE svg PUBLIC "-//W3C//DTD SVG 1.1//EN"
 "http://www.w3.org/Graphics/SVG/1.1/DTD/svg11.dtd">
<!-- Generated by graphviz version 2.40.1 (20161225.0304)
 -->
<!-- Title: oneDegreeRelationshipsDiagramImplied Pages: 1 -->
<svg width="621pt" height="532pt"
 viewBox="0.00 0.00 621.00 531.70" xmlns="http://www.w3.org/2000/svg" xmlns:xlink="http://www.w3.org/1999/xlink">
<g id="graph0" class="graph" transform="scale(1 1) rotate(0) translate(4 527.7)">
<title>oneDegreeRelationshipsDiagramImplied</title>
<polygon fill="#ffffff" stroke="transparent" points="-4,4 -4,-527.7 617,-527.7 617,4 -4,4"/>
<text text-anchor="middle" x="72.4936" y="-7.3" font-family="Helvetica,sans-Serif" font-size="11.00" fill="#000000">Generated by SchemaSpy</text>
<!-- temporary_absence_authorisation_audit -->
<g id="node1" class="node">
<title>temporary_absence_authorisation_audit</title>
<g id="a_node1"><a xlink:href="../../tables/temporary_absence_authorisation_audit.html" xlink:title="temporary_absence_authorisation_audit" target="_top">
<polygon fill="#ffffff" stroke="transparent" points="211,-38.2 211,-502.2 605,-502.2 605,-38.2 211,-38.2"/>
<polygon fill="#f5f5f5" stroke="transparent" points="213,-477.2 213,-500.2 603,-500.2 603,-477.2 213,-477.2"/>
<polygon fill="none" stroke="#000000" points="213,-477.2 213,-500.2 603,-500.2 603,-477.2 213,-477.2"/>
<text text-anchor="start" x="218" y="-485.8" font-family="Helvetica,sans-Serif" font-weight="bold" font-size="11.00" fill="#000000">temporary_absence_authorisation_audit</text>
<text text-anchor="start" x="568.0437" y="-485.3" font-family="Helvetica,sans-Serif" font-size="11.00" fill="#000000">[table]</text>
<polygon fill="none" stroke="#000000" points="213,-455.2 213,-477.2 504,-477.2 504,-455.2 213,-455.2"/>
<image xlink:href="../../images/primaryKeys.png" width="11px" height="12px" preserveAspectRatio="xMinYMin meet" x="218" y="-472.2"/>
<text text-anchor="start" x="233" y="-462.3" font-family="Helvetica,sans-Serif" font-size="11.00" fill="#000000">rev_id</text>
<polygon fill="none" stroke="#000000" points="504,-455.2 504,-477.2 603,-477.2 603,-455.2 504,-455.2"/>
<text text-anchor="start" x="507" y="-462.9" font-family="Helvetica,sans-Serif" font-size="11.00" fill="#000000">int8[19]</text>
<polygon fill="none" stroke="#000000" points="213,-433.2 213,-455.2 504,-455.2 504,-433.2 213,-433.2"/>
<text text-anchor="start" x="233" y="-440.3" font-family="Helvetica,sans-Serif" font-size="11.00" fill="#000000">rev_type</text>
<polygon fill="none" stroke="#000000" points="504,-433.2 504,-455.2 603,-455.2 603,-433.2 504,-433.2"/>
<text text-anchor="start" x="507" y="-440.9" font-family="Helvetica,sans-Serif" font-size="11.00" fill="#000000">int2[5]</text>
<polygon fill="none" stroke="#000000" points="213,-411.2 213,-433.2 504,-433.2 504,-411.2 213,-411.2"/>
<image xlink:href="../../images/primaryKeys.png" width="11px" height="12px" preserveAspectRatio="xMinYMin meet" x="218" y="-428.2"/>
<text text-anchor="start" x="233" y="-418.3" font-family="Helvetica,sans-Serif" font-size="11.00" fill="#000000">id</text>
<polygon fill="none" stroke="#000000" points="504,-411.2 504,-433.2 603,-433.2 603,-411.2 504,-411.2"/>
<text text-anchor="start" x="507" y="-418.9" font-family="Helvetica,sans-Serif" font-size="11.00" fill="#000000">uuid[2147483647]</text>
<polygon fill="none" stroke="#000000" points="213,-389.2 213,-411.2 504,-411.2 504,-389.2 213,-389.2"/>
<image xlink:href="../../images/foreignKeys.png" width="11px" height="12px" preserveAspectRatio="xMinYMin meet" x="218" y="-406.2"/>
<text text-anchor="start" x="233" y="-396.3" font-family="Helvetica,sans-Serif" font-size="11.00" fill="#000000">person_identifier</text>
<polygon fill="none" stroke="#000000" points="504,-389.2 504,-411.2 603,-411.2 603,-389.2 504,-389.2"/>
<text text-anchor="start" x="507" y="-396.9" font-family="Helvetica,sans-Serif" font-size="11.00" fill="#000000">varchar[10]</text>
<polygon fill="none" stroke="#000000" points="213,-367.2 213,-389.2 504,-389.2 504,-367.2 213,-367.2"/>
<text text-anchor="start" x="233" y="-374.3" font-family="Helvetica,sans-Serif" font-size="11.00" fill="#000000">prison_code</text>
<polygon fill="none" stroke="#000000" points="504,-367.2 504,-389.2 603,-389.2 603,-367.2 504,-367.2"/>
<text text-anchor="start" x="507" y="-374.9" font-family="Helvetica,sans-Serif" font-size="11.00" fill="#000000">varchar[6]</text>
<polygon fill="none" stroke="#000000" points="213,-345.2 213,-367.2 504,-367.2 504,-345.2 213,-345.2"/>
<text text-anchor="start" x="233" y="-352.3" font-family="Helvetica,sans-Serif" font-size="11.00" fill="#000000">absence_type_id</text>
<polygon fill="none" stroke="#000000" points="504,-345.2 504,-367.2 603,-367.2 603,-345.2 504,-345.2"/>
<text text-anchor="start" x="507" y="-352.9" font-family="Helvetica,sans-Serif" font-size="11.00" fill="#000000">int8[19]</text>
<polygon fill="none" stroke="#000000" points="213,-323.2 213,-345.2 504,-345.2 504,-323.2 213,-323.2"/>
<text text-anchor="start" x="233" y="-330.3" font-family="Helvetica,sans-Serif" font-size="11.00" fill="#000000">absence_sub_type_id</text>
<polygon fill="none" stroke="#000000" points="504,-323.2 504,-345.2 603,-345.2 603,-323.2 504,-323.2"/>
<text text-anchor="start" x="507" y="-330.9" font-family="Helvetica,sans-Serif" font-size="11.00" fill="#000000">int8[19]</text>
<polygon fill="none" stroke="#000000" points="213,-301.2 213,-323.2 504,-323.2 504,-301.2 213,-301.2"/>
<text text-anchor="start" x="233" y="-308.3" font-family="Helvetica,sans-Serif" font-size="11.00" fill="#000000">absence_reason_id</text>
<polygon fill="none" stroke="#000000" points="504,-301.2 504,-323.2 603,-323.2 603,-301.2 504,-301.2"/>
<text text-anchor="start" x="507" y="-308.9" font-family="Helvetica,sans-Serif" font-size="11.00" fill="#000000">int8[19]</text>
<polygon fill="none" stroke="#000000" points="213,-279.2 213,-301.2 504,-301.2 504,-279.2 213,-279.2"/>
<text text-anchor="start" x="233" y="-286.3" font-family="Helvetica,sans-Serif" font-size="11.00" fill="#000000">repeat</text>
<polygon fill="none" stroke="#000000" points="504,-279.2 504,-301.2 603,-301.2 603,-279.2 504,-279.2"/>
<text text-anchor="start" x="507" y="-286.9" font-family="Helvetica,sans-Serif" font-size="11.00" fill="#000000">bool[1]</text>
<polygon fill="none" stroke="#000000" points="213,-257.2 213,-279.2 504,-279.2 504,-257.2 213,-257.2"/>
<text text-anchor="start" x="233" y="-264.3" font-family="Helvetica,sans-Serif" font-size="11.00" fill="#000000">status_id</text>
<polygon fill="none" stroke="#000000" points="504,-257.2 504,-279.2 603,-279.2 603,-257.2 504,-257.2"/>
<text text-anchor="start" x="507" y="-264.9" font-family="Helvetica,sans-Serif" font-size="11.00" fill="#000000">int8[19]</text>
<polygon fill="none" stroke="#000000" points="213,-235.2 213,-257.2 504,-257.2 504,-235.2 213,-235.2"/>
<text text-anchor="start" x="233" y="-242.3" font-family="Helvetica,sans-Serif" font-size="11.00" fill="#000000">notes</text>
<polygon fill="none" stroke="#000000" points="504,-235.2 504,-257.2 603,-257.2 603,-235.2 504,-235.2"/>
<text text-anchor="start" x="507" y="-242.9" font-family="Helvetica,sans-Serif" font-size="11.00" fill="#000000">text[2147483647]</text>
<polygon fill="none" stroke="#000000" points="213,-213.2 213,-235.2 504,-235.2 504,-213.2 213,-213.2"/>
<text text-anchor="start" x="233" y="-220.3" font-family="Helvetica,sans-Serif" font-size="11.00" fill="#000000">legacy_id</text>
<polygon fill="none" stroke="#000000" points="504,-213.2 504,-235.2 603,-235.2 603,-213.2 504,-213.2"/>
<text text-anchor="start" x="507" y="-220.9" font-family="Helvetica,sans-Serif" font-size="11.00" fill="#000000">int8[19]</text>
<polygon fill="none" stroke="#000000" points="213,-191.2 213,-213.2 504,-213.2 504,-191.2 213,-191.2"/>
<text text-anchor="start" x="233" y="-198.3" font-family="Helvetica,sans-Serif" font-size="11.00" fill="#000000">from_date</text>
<polygon fill="none" stroke="#000000" points="504,-191.2 504,-213.2 603,-213.2 603,-191.2 504,-191.2"/>
<text text-anchor="start" x="507" y="-198.9" font-family="Helvetica,sans-Serif" font-size="11.00" fill="#000000">date[13]</text>
<polygon fill="none" stroke="#000000" points="213,-169.2 213,-191.2 504,-191.2 504,-169.2 213,-169.2"/>
<text text-anchor="start" x="233" y="-176.3" font-family="Helvetica,sans-Serif" font-size="11.00" fill="#000000">to_date</text>
<polygon fill="none" stroke="#000000" points="504,-169.2 504,-191.2 603,-191.2 603,-169.2 504,-169.2"/>
<text text-anchor="start" x="507" y="-176.9" font-family="Helvetica,sans-Serif" font-size="11.00" fill="#000000">date[13]</text>
<polygon fill="none" stroke="#000000" points="213,-147.2 213,-169.2 504,-169.2 504,-147.2 213,-147.2"/>
<text text-anchor="start" x="233" y="-154.3" font-family="Helvetica,sans-Serif" font-size="11.00" fill="#000000">schedule</text>
<polygon fill="none" stroke="#000000" points="504,-147.2 504,-169.2 603,-169.2 603,-147.2 504,-147.2"/>
<text text-anchor="start" x="506.7258" y="-154.9" font-family="Helvetica,sans-Serif" font-size="11.00" fill="#000000">jsonb[2147483647]</text>
<polygon fill="none" stroke="#000000" points="213,-125.2 213,-147.2 504,-147.2 504,-125.2 213,-125.2"/>
<text text-anchor="start" x="233" y="-132.3" font-family="Helvetica,sans-Serif" font-size="11.00" fill="#000000">absence_reason_category_id</text>
<polygon fill="none" stroke="#000000" points="504,-125.2 504,-147.2 603,-147.2 603,-125.2 504,-125.2"/>
<text text-anchor="start" x="507" y="-132.9" font-family="Helvetica,sans-Serif" font-size="11.00" fill="#000000">int8[19]</text>
<polygon fill="none" stroke="#000000" points="213,-103.2 213,-125.2 504,-125.2 504,-103.2 213,-103.2"/>
<text text-anchor="start" x="233" y="-110.3" font-family="Helvetica,sans-Serif" font-size="11.00" fill="#000000">reason_path</text>
<polygon fill="none" stroke="#000000" points="504,-103.2 504,-125.2 603,-125.2 603,-103.2 504,-103.2"/>
<text text-anchor="start" x="506.7258" y="-110.9" font-family="Helvetica,sans-Serif" font-size="11.00" fill="#000000">jsonb[2147483647]</text>
<polygon fill="none" stroke="#000000" points="213,-81.2 213,-103.2 504,-103.2 504,-81.2 213,-81.2"/>
<text text-anchor="start" x="233" y="-88.3" font-family="Helvetica,sans-Serif" font-size="11.00" fill="#000000">accompanied_by_id</text>
<polygon fill="none" stroke="#000000" points="504,-81.2 504,-103.2 603,-103.2 603,-81.2 504,-81.2"/>
<text text-anchor="start" x="507" y="-88.9" font-family="Helvetica,sans-Serif" font-size="11.00" fill="#000000">int8[19]</text>
<polygon fill="none" stroke="#000000" points="213,-59.2 213,-81.2 504,-81.2 504,-59.2 213,-59.2"/>
<text text-anchor="start" x="233" y="-66.3" font-family="Helvetica,sans-Serif" font-size="11.00" fill="#000000">transport_id</text>
<polygon fill="none" stroke="#000000" points="504,-59.2 504,-81.2 603,-81.2 603,-59.2 504,-59.2"/>
<text text-anchor="start" x="507" y="-66.9" font-family="Helvetica,sans-Serif" font-size="11.00" fill="#000000">int8[19]</text>
<polygon fill="#ffffff" stroke="transparent" points="213,-40.2 213,-59.2 363,-59.2 363,-40.2 213,-40.2"/>
<polygon fill="none" stroke="#000000" points="213,-40.2 213,-59.2 363,-59.2 363,-40.2 213,-40.2"/>
<text text-anchor="start" x="216" y="-46.3" font-family="Helvetica,sans-Serif" font-size="11.00" fill="#000000">&lt; 2</text>
<polygon fill="#ffffff" stroke="transparent" points="363,-40.2 363,-59.2 504,-59.2 504,-40.2 363,-40.2"/>
<polygon fill="none" stroke="#000000" points="363,-40.2 363,-59.2 504,-59.2 504,-40.2 363,-40.2"/>
<text text-anchor="start" x="494.8862" y="-46.3" font-family="Helvetica,sans-Serif" font-size="11.00" fill="#000000"> &#160;</text>
<polygon fill="#ffffff" stroke="transparent" points="504,-40.2 504,-59.2 603,-59.2 603,-40.2 504,-40.2"/>
<polygon fill="none" stroke="#000000" points="504,-40.2 504,-59.2 603,-59.2 603,-40.2 504,-40.2"/>
<text text-anchor="start" x="584.4053" y="-46.3" font-family="Helvetica,sans-Serif" font-size="11.00" fill="#000000">0 &gt;</text>
<polygon fill="none" stroke="#000000" stroke-width="2" points="212,-39.2 212,-501.2 604,-501.2 604,-39.2 212,-39.2"/>
</a>
</g>
</g>
<!-- person_summary -->
<g id="node2" class="node">
<title>person_summary</title>
<g id="a_node2"><a xlink:href="../../tables/person_summary.html" xlink:title="person_summary" target="_top">
<polygon fill="#ffffff" stroke="transparent" points="8,-332.7 8,-415.7 162,-415.7 162,-332.7 8,-332.7"/>
<polygon fill="#f5f5f5" stroke="transparent" points="8,-392.2 8,-415.2 162,-415.2 162,-392.2 8,-392.2"/>
<polygon fill="none" stroke="#000000" points="8,-392.2 8,-415.2 162,-415.2 162,-392.2 8,-392.2"/>
<text text-anchor="start" x="13" y="-400.8" font-family="Helvetica,sans-Serif" font-weight="bold" font-size="11.00" fill="#000000">person_summary</text>
<text text-anchor="start" x="127.5219" y="-400.3" font-family="Helvetica,sans-Serif" font-size="11.00" fill="#000000">[table]</text>
<polygon fill="none" stroke="#000000" points="8,-370.2 8,-392.2 162,-392.2 162,-370.2 8,-370.2"/>
<image xlink:href="../../images/primaryKeys.png" width="11px" height="12px" preserveAspectRatio="xMinYMin meet" x="13" y="-387.2"/>
<text text-anchor="start" x="37" y="-377.3" font-family="Helvetica,sans-Serif" font-size="11.00" fill="#000000">person_identifier</text>
<polygon fill="none" stroke="#000000" points="8,-351.2 8,-370.2 162,-370.2 162,-351.2 8,-351.2"/>
<text text-anchor="start" x="11" y="-357.3" font-family="Helvetica,sans-Serif" font-size="11.00" fill="#000000">...</text>
<polygon fill="#ffffff" stroke="transparent" points="8,-332.2 8,-351.2 74,-351.2 74,-332.2 8,-332.2"/>
<polygon fill="none" stroke="#000000" points="8,-332.2 8,-351.2 74,-351.2 74,-332.2 8,-332.2"/>
<text text-anchor="start" x="11" y="-338.3" font-family="Helvetica,sans-Serif" font-size="11.00" fill="#000000"> &#160;</text>
<polygon fill="#ffffff" stroke="transparent" points="74,-332.2 74,-351.2 113,-351.2 113,-332.2 74,-332.2"/>
<polygon fill="none" stroke="#000000" points="74,-332.2 74,-351.2 113,-351.2 113,-332.2 74,-332.2"/>
<text text-anchor="start" x="103.8862" y="-338.3" font-family="Helvetica,sans-Serif" font-size="11.00" fill="#000000"> &#160;</text>
<polygon fill="#ffffff" stroke="transparent" points="113,-332.2 113,-351.2 162,-351.2 162,-332.2 113,-332.2"/>
<polygon fill="none" stroke="#000000" points="113,-332.2 113,-351.2 162,-351.2 162,-332.2 113,-332.2"/>
<text text-anchor="start" x="143.4053" y="-338.3" font-family="Helvetica,sans-Serif" font-size="11.00" fill="#000000">6 &gt;</text>
</a>
</g>
</g>
<!-- temporary_absence_authorisation_audit&#45;&gt;person_summary -->
<g id="edge1" class="edge">
<title>temporary_absence_authorisation_audit:w&#45;&gt;person_summary:e</title>
<path fill="none" stroke="#000000" stroke-dasharray="5,2" d="M198.6076,-397.3965C186.2761,-392.1113 180.3304,-381.2 162,-381.2"/>
<polygon fill="#000000" stroke="#000000" points="205.1476,-398.6704 212.3117,-403.7336 209.0738,-399.4352 213,-400.2 213,-400.2 213,-400.2 209.0738,-399.4352 213.6883,-396.6664 205.1476,-398.6704 205.1476,-398.6704"/>
<ellipse fill="none" stroke="#000000" cx="202.0066" cy="-398.0585" rx="3.2" ry="3.2"/>
</g>
<!-- audit_revision -->
<g id="node3" class="node">
<title>audit_revision</title>
<g id="a_node3"><a xlink:href="../../tables/audit_revision.html" xlink:title="audit_revision" target="_top">
<polygon fill="#ffffff" stroke="transparent" points="18,-436.7 18,-519.7 152,-519.7 152,-436.7 18,-436.7"/>
<polygon fill="#f5f5f5" stroke="transparent" points="18,-496.2 18,-519.2 152,-519.2 152,-496.2 18,-496.2"/>
<polygon fill="none" stroke="#000000" points="18,-496.2 18,-519.2 152,-519.2 152,-496.2 18,-496.2"/>
<text text-anchor="start" x="23" y="-504.8" font-family="Helvetica,sans-Serif" font-weight="bold" font-size="11.00" fill="#000000">audit_revision</text>
<text text-anchor="start" x="117.5219" y="-504.3" font-family="Helvetica,sans-Serif" font-size="11.00" fill="#000000">[table]</text>
<polygon fill="none" stroke="#000000" points="18,-474.2 18,-496.2 152,-496.2 152,-474.2 18,-474.2"/>
<image xlink:href="../../images/primaryKeys.png" width="11px" height="12px" preserveAspectRatio="xMinYMin meet" x="23" y="-491.2"/>
<text text-anchor="start" x="38" y="-481.3" font-family="Helvetica,sans-Serif" font-size="11.00" fill="#000000">id</text>
<polygon fill="none" stroke="#000000" points="18,-455.2 18,-474.2 152,-474.2 152,-455.2 18,-455.2"/>
<text text-anchor="start" x="21" y="-461.3" font-family="Helvetica,sans-Serif" font-size="11.00" fill="#000000">...</text>
<polygon fill="#ffffff" stroke="transparent" points="18,-436.2 18,-455.2 74,-455.2 74,-436.2 18,-436.2"/>
<polygon fill="none" stroke="#000000" points="18,-436.2 18,-455.2 74,-455.2 74,-436.2 18,-436.2"/>
<text text-anchor="start" x="21" y="-442.3" font-family="Helvetica,sans-Serif" font-size="11.00" fill="#000000"> &#160;</text>
<polygon fill="#ffffff" stroke="transparent" points="74,-436.2 74,-455.2 108,-455.2 108,-436.2 74,-436.2"/>
<polygon fill="none" stroke="#000000" points="74,-436.2 74,-455.2 108,-455.2 108,-436.2 74,-436.2"/>
<text text-anchor="start" x="98.8862" y="-442.3" font-family="Helvetica,sans-Serif" font-size="11.00" fill="#000000"> &#160;</text>
<polygon fill="#ffffff" stroke="transparent" points="108,-436.2 108,-455.2 152,-455.2 152,-436.2 108,-436.2"/>
<polygon fill="none" stroke="#000000" points="108,-436.2 108,-455.2 152,-455.2 152,-436.2 108,-436.2"/>
<text text-anchor="start" x="133.4053" y="-442.3" font-family="Helvetica,sans-Serif" font-size="11.00" fill="#000000">4 &gt;</text>
</a>
</g>
</g>
<!-- temporary_absence_authorisation_audit&#45;&gt;audit_revision -->
<g id="edge2" class="edge">
<title>temporary_absence_authorisation_audit:w&#45;&gt;audit_revision:e</title>
<path fill="none" stroke="#000000" d="M198.2848,-468.2333C181.8966,-473.1348 174.6279,-485.2 152,-485.2"/>
<polygon fill="#000000" stroke="#000000" points="205.0753,-467.2951 213.4928,-469.7661 209.0376,-466.7475 213,-466.2 213,-466.2 213,-466.2 209.0376,-466.7475 212.5072,-462.6339 205.0753,-467.2951 205.0753,-467.2951"/>
<ellipse fill="none" stroke="#000000" cx="201.9054" cy="-467.7331" rx="3.2" ry="3.2"/>
</g>
</g>
</svg>
