<?xml version="1.0" encoding="UTF-8" standalone="no"?>
<!DOCTYPE svg PUBLIC "-//W3C//DTD SVG 1.1//EN"
 "http://www.w3.org/Graphics/SVG/1.1/DTD/svg11.dtd">
<!-- Generated by graphviz version 2.40.1 (20161225.0304)
 -->
<!-- Title: twoDegreesRelationshipsDiagram Pages: 1 -->
<svg width="1410pt" height="712pt"
 viewBox="0.00 0.00 1410.00 711.70" xmlns="http://www.w3.org/2000/svg" xmlns:xlink="http://www.w3.org/1999/xlink">
<g id="graph0" class="graph" transform="scale(1 1) rotate(0) translate(4 707.7)">
<title>twoDegreesRelationshipsDiagram</title>
<polygon fill="#ffffff" stroke="transparent" points="-4,4 -4,-707.7 1406,-707.7 1406,4 -4,4"/>
<text text-anchor="middle" x="72.4936" y="-7.3" font-family="Helvetica,sans-Serif" font-size="11.00" fill="#000000">Generated by SchemaSpy</text>
<!-- reference_data -->
<g id="node1" class="node">
<title>reference_data</title>
<g id="a_node1"><a xlink:href="../../tables/reference_data.html" xlink:title="reference_data" target="_top">
<polygon fill="#ffffff" stroke="transparent" points="253,-434.7 253,-495.7 393,-495.7 393,-434.7 253,-434.7"/>
<polygon fill="#f5f5f5" stroke="transparent" points="253,-472.2 253,-495.2 393,-495.2 393,-472.2 253,-472.2"/>
<polygon fill="none" stroke="#000000" points="253,-472.2 253,-495.2 393,-495.2 393,-472.2 253,-472.2"/>
<text text-anchor="start" x="258" y="-480.8" font-family="Helvetica,sans-Serif" font-weight="bold" font-size="11.00" fill="#000000">reference_data</text>
<text text-anchor="start" x="358.5219" y="-480.3" font-family="Helvetica,sans-Serif" font-size="11.00" fill="#000000">[table]</text>
<polygon fill="none" stroke="#000000" points="253,-453.2 253,-472.2 393,-472.2 393,-453.2 253,-453.2"/>
<text text-anchor="start" x="256" y="-459.3" font-family="Helvetica,sans-Serif" font-size="11.00" fill="#000000">...</text>
<polygon fill="#ffffff" stroke="transparent" points="253,-434.2 253,-453.2 295,-453.2 295,-434.2 253,-434.2"/>
<polygon fill="none" stroke="#000000" points="253,-434.2 253,-453.2 295,-453.2 295,-434.2 253,-434.2"/>
<text text-anchor="start" x="256" y="-440.3" font-family="Helvetica,sans-Serif" font-size="11.00" fill="#000000">&lt; 1</text>
<polygon fill="#ffffff" stroke="transparent" points="295,-434.2 295,-453.2 355,-453.2 355,-434.2 295,-434.2"/>
<polygon fill="none" stroke="#000000" points="295,-434.2 295,-453.2 355,-453.2 355,-434.2 295,-434.2"/>
<text text-anchor="start" x="307.3807" y="-440.3" font-family="Helvetica,sans-Serif" font-size="11.00" fill="#000000">157 rows</text>
<polygon fill="#ffffff" stroke="transparent" points="355,-434.2 355,-453.2 393,-453.2 393,-434.2 355,-434.2"/>
<polygon fill="none" stroke="#000000" points="355,-434.2 355,-453.2 393,-453.2 393,-434.2 355,-434.2"/>
<text text-anchor="start" x="368.2904" y="-440.3" font-family="Helvetica,sans-Serif" font-size="11.00" fill="#000000">17 &gt;</text>
</a>
</g>
</g>
<!-- reference_data_domain -->
<g id="node2" class="node">
<title>reference_data_domain</title>
<g id="a_node2"><a xlink:href="../../tables/reference_data_domain.html" xlink:title="reference_data_domain" target="_top">
<polygon fill="#ffffff" stroke="transparent" points="8,-464.7 8,-525.7 204,-525.7 204,-464.7 8,-464.7"/>
<polygon fill="#f5f5f5" stroke="transparent" points="8,-502.2 8,-525.2 204,-525.2 204,-502.2 8,-502.2"/>
<polygon fill="none" stroke="#000000" points="8,-502.2 8,-525.2 204,-525.2 204,-502.2 8,-502.2"/>
<text text-anchor="start" x="13" y="-510.8" font-family="Helvetica,sans-Serif" font-weight="bold" font-size="11.00" fill="#000000">reference_data_domain</text>
<text text-anchor="start" x="169.5219" y="-510.3" font-family="Helvetica,sans-Serif" font-size="11.00" fill="#000000">[table]</text>
<polygon fill="none" stroke="#000000" points="8,-483.2 8,-502.2 204,-502.2 204,-483.2 8,-483.2"/>
<text text-anchor="start" x="11" y="-489.3" font-family="Helvetica,sans-Serif" font-size="11.00" fill="#000000">...</text>
<polygon fill="#ffffff" stroke="transparent" points="8,-464.2 8,-483.2 95,-483.2 95,-464.2 8,-464.2"/>
<polygon fill="none" stroke="#000000" points="8,-464.2 8,-483.2 95,-483.2 95,-464.2 8,-464.2"/>
<text text-anchor="start" x="11" y="-470.3" font-family="Helvetica,sans-Serif" font-size="11.00" fill="#000000"> &#160;</text>
<polygon fill="#ffffff" stroke="transparent" points="95,-464.2 95,-483.2 145,-483.2 145,-464.2 95,-464.2"/>
<polygon fill="none" stroke="#000000" points="95,-464.2 95,-483.2 145,-483.2 145,-464.2 95,-464.2"/>
<text text-anchor="start" x="135.8862" y="-470.3" font-family="Helvetica,sans-Serif" font-size="11.00" fill="#000000"> &#160;</text>
<polygon fill="#ffffff" stroke="transparent" points="145,-464.2 145,-483.2 204,-483.2 204,-464.2 145,-464.2"/>
<polygon fill="none" stroke="#000000" points="145,-464.2 145,-483.2 204,-483.2 204,-464.2 145,-464.2"/>
<text text-anchor="start" x="185.4053" y="-470.3" font-family="Helvetica,sans-Serif" font-size="11.00" fill="#000000">2 &gt;</text>
</a>
</g>
</g>
<!-- reference_data&#45;&gt;reference_data_domain -->
<g id="edge1" class="edge">
<title>reference_data:w&#45;&gt;reference_data_domain:e</title>
<path fill="none" stroke="#000000" d="M230.4617,-490.3568C221.5769,-491.5125 212.6543,-492.2 204,-492.2"/>
<polygon fill="#000000" stroke="#000000" points="236.9278,-489.341 245.3896,-491.6557 240.8793,-488.7201 244.8309,-488.0993 244.8309,-488.0993 244.8309,-488.0993 240.8793,-488.7201 244.2721,-484.5429 236.9278,-489.341 236.9278,-489.341"/>
<ellipse fill="none" stroke="#000000" cx="233.7666" cy="-489.8376" rx="3.2" ry="3.2"/>
</g>
<!-- reference_data_domain_link -->
<g id="node3" class="node">
<title>reference_data_domain_link</title>
<g id="a_node3"><a xlink:href="../../tables/reference_data_domain_link.html" xlink:title="reference_data_domain_link" target="_top">
<polygon fill="#ffffff" stroke="transparent" points="462.5,-638.7 462.5,-699.7 689.5,-699.7 689.5,-638.7 462.5,-638.7"/>
<polygon fill="#f5f5f5" stroke="transparent" points="463,-676.2 463,-699.2 690,-699.2 690,-676.2 463,-676.2"/>
<polygon fill="none" stroke="#000000" points="463,-676.2 463,-699.2 690,-699.2 690,-676.2 463,-676.2"/>
<text text-anchor="start" x="468" y="-684.8" font-family="Helvetica,sans-Serif" font-weight="bold" font-size="11.00" fill="#000000">reference_data_domain_link</text>
<text text-anchor="start" x="655.5219" y="-684.3" font-family="Helvetica,sans-Serif" font-size="11.00" fill="#000000">[table]</text>
<polygon fill="none" stroke="#000000" points="463,-657.2 463,-676.2 690,-676.2 690,-657.2 463,-657.2"/>
<text text-anchor="start" x="466" y="-663.3" font-family="Helvetica,sans-Serif" font-size="11.00" fill="#000000">...</text>
<polygon fill="#ffffff" stroke="transparent" points="463,-638.2 463,-657.2 575,-657.2 575,-638.2 463,-638.2"/>
<polygon fill="none" stroke="#000000" points="463,-638.2 463,-657.2 575,-657.2 575,-638.2 463,-638.2"/>
<text text-anchor="start" x="466" y="-644.3" font-family="Helvetica,sans-Serif" font-size="11.00" fill="#000000">&lt; 2</text>
<polygon fill="#ffffff" stroke="transparent" points="575,-638.2 575,-657.2 632,-657.2 632,-638.2 575,-638.2"/>
<polygon fill="none" stroke="#000000" points="575,-638.2 575,-657.2 632,-657.2 632,-638.2 575,-638.2"/>
<text text-anchor="start" x="622.8862" y="-644.3" font-family="Helvetica,sans-Serif" font-size="11.00" fill="#000000"> &#160;</text>
<polygon fill="#ffffff" stroke="transparent" points="632,-638.2 632,-657.2 690,-657.2 690,-638.2 632,-638.2"/>
<polygon fill="none" stroke="#000000" points="632,-638.2 632,-657.2 690,-657.2 690,-638.2 632,-638.2"/>
<text text-anchor="start" x="680.8862" y="-644.3" font-family="Helvetica,sans-Serif" font-size="11.00" fill="#000000"> &#160;</text>
</a>
</g>
</g>
<!-- reference_data_domain_link&#45;&gt;reference_data -->
<g id="edge3" class="edge">
<title>reference_data_domain_link:w&#45;&gt;reference_data:e</title>
<path fill="none" stroke="#000000" d="M455.7454,-658.4734C435.3355,-632.6142 378.2979,-548.018 346.0219,-499.7531"/>
<polygon fill="#000000" stroke="#000000" points="465.3685,-662.8788 459.5363,-668.3548 458.4411,-667.1883 464.2733,-661.7124 465.3685,-662.8788"/>
<polyline fill="none" stroke="#000000" points="463,-666.2 460.262,-663.2839 "/>
<ellipse fill="none" stroke="#000000" cx="458.0716" cy="-660.951" rx="3.2" ry="3.2"/>
</g>
<!-- reference_data_domain_link&#45;&gt;reference_data_domain -->
<g id="edge2" class="edge">
<title>reference_data_domain_link:w&#45;&gt;reference_data_domain:e</title>
<path fill="none" stroke="#000000" d="M448.5419,-664C377.9063,-643.8579 268.7335,-492.2 204,-492.2"/>
<polygon fill="#000000" stroke="#000000" points="455.091,-664.9965 462.4584,-669.759 459.0455,-665.5982 463,-666.2 463,-666.2 463,-666.2 459.0455,-665.5982 463.5416,-662.641 455.091,-664.9965 455.091,-664.9965"/>
<ellipse fill="none" stroke="#000000" cx="451.9275" cy="-664.5151" rx="3.2" ry="3.2"/>
</g>
<!-- reference_data_link -->
<g id="node4" class="node">
<title>reference_data_link</title>
<g id="a_node4"><a xlink:href="../../tables/reference_data_link.html" xlink:title="reference_data_link" target="_top">
<polygon fill="#ffffff" stroke="transparent" points="490.5,-556.7 490.5,-617.7 661.5,-617.7 661.5,-556.7 490.5,-556.7"/>
<polygon fill="#f5f5f5" stroke="transparent" points="491,-594.2 491,-617.2 662,-617.2 662,-594.2 491,-594.2"/>
<polygon fill="none" stroke="#000000" points="491,-594.2 491,-617.2 662,-617.2 662,-594.2 491,-594.2"/>
<text text-anchor="start" x="496" y="-602.8" font-family="Helvetica,sans-Serif" font-weight="bold" font-size="11.00" fill="#000000">reference_data_link</text>
<text text-anchor="start" x="627.5219" y="-602.3" font-family="Helvetica,sans-Serif" font-size="11.00" fill="#000000">[table]</text>
<polygon fill="none" stroke="#000000" points="491,-575.2 491,-594.2 662,-594.2 662,-575.2 491,-575.2"/>
<text text-anchor="start" x="494" y="-581.3" font-family="Helvetica,sans-Serif" font-size="11.00" fill="#000000">...</text>
<polygon fill="#ffffff" stroke="transparent" points="491,-556.2 491,-575.2 559,-575.2 559,-556.2 491,-556.2"/>
<polygon fill="none" stroke="#000000" points="491,-556.2 491,-575.2 559,-575.2 559,-556.2 491,-556.2"/>
<text text-anchor="start" x="494" y="-562.3" font-family="Helvetica,sans-Serif" font-size="11.00" fill="#000000">&lt; 2</text>
<polygon fill="#ffffff" stroke="transparent" points="559,-556.2 559,-575.2 626,-575.2 626,-556.2 559,-556.2"/>
<polygon fill="none" stroke="#000000" points="559,-556.2 559,-575.2 626,-575.2 626,-556.2 559,-556.2"/>
<text text-anchor="start" x="584.4956" y="-562.3" font-family="Helvetica,sans-Serif" font-size="11.00" fill="#000000">64 rows</text>
<polygon fill="#ffffff" stroke="transparent" points="626,-556.2 626,-575.2 662,-575.2 662,-556.2 626,-556.2"/>
<polygon fill="none" stroke="#000000" points="626,-556.2 626,-575.2 662,-575.2 662,-556.2 626,-556.2"/>
<text text-anchor="start" x="652.8862" y="-562.3" font-family="Helvetica,sans-Serif" font-size="11.00" fill="#000000"> &#160;</text>
</a>
</g>
</g>
<!-- reference_data_link&#45;&gt;reference_data -->
<g id="edge4" class="edge">
<title>reference_data_link:w&#45;&gt;reference_data:e</title>
<path fill="none" stroke="#000000" d="M476.5763,-582.3271C425.9518,-572.5576 381.1397,-530.8418 353.1819,-499.9122"/>
<polygon fill="#000000" stroke="#000000" points="483.0666,-583.1698 490.5364,-587.77 487.0333,-583.6849 491,-584.2 491,-584.2 491,-584.2 487.0333,-583.6849 491.4636,-580.63 483.0666,-583.1698 483.0666,-583.1698"/>
<ellipse fill="none" stroke="#000000" cx="479.8932" cy="-582.7578" rx="3.2" ry="3.2"/>
</g>
<!-- reference_data_link&#45;&gt;reference_data -->
<g id="edge5" class="edge">
<title>reference_data_link:w&#45;&gt;reference_data:e</title>
<path fill="none" stroke="#000000" d="M476.371,-584.2727C420.9247,-580.6451 372.4731,-533.7754 345.5366,-499.8584"/>
<polygon fill="#000000" stroke="#000000" points="483.0001,-584.2398 491.0179,-587.8 487,-584.2199 491,-584.2 491,-584.2 491,-584.2 487,-584.2199 490.9821,-580.6 483.0001,-584.2398 483.0001,-584.2398"/>
<ellipse fill="none" stroke="#000000" cx="479.8001" cy="-584.2557" rx="3.2" ry="3.2"/>
</g>
<!-- temporary_absence_authorisation -->
<g id="node5" class="node">
<title>temporary_absence_authorisation</title>
<g id="a_node5"><a xlink:href="../../tables/temporary_absence_authorisation.html" xlink:title="temporary_absence_authorisation" target="_top">
<polygon fill="#ffffff" stroke="transparent" points="442,-434.7 442,-495.7 710,-495.7 710,-434.7 442,-434.7"/>
<polygon fill="#f5f5f5" stroke="transparent" points="442,-472.2 442,-495.2 710,-495.2 710,-472.2 442,-472.2"/>
<polygon fill="none" stroke="#000000" points="442,-472.2 442,-495.2 710,-495.2 710,-472.2 442,-472.2"/>
<text text-anchor="start" x="447" y="-480.8" font-family="Helvetica,sans-Serif" font-weight="bold" font-size="11.00" fill="#000000">temporary_absence_authorisation</text>
<text text-anchor="start" x="675.5219" y="-480.3" font-family="Helvetica,sans-Serif" font-size="11.00" fill="#000000">[table]</text>
<polygon fill="none" stroke="#000000" points="442,-453.2 442,-472.2 710,-472.2 710,-453.2 442,-453.2"/>
<text text-anchor="start" x="445" y="-459.3" font-family="Helvetica,sans-Serif" font-size="11.00" fill="#000000">...</text>
<polygon fill="#ffffff" stroke="transparent" points="442,-434.2 442,-453.2 570,-453.2 570,-434.2 442,-434.2"/>
<polygon fill="none" stroke="#000000" points="442,-434.2 442,-453.2 570,-453.2 570,-434.2 442,-434.2"/>
<text text-anchor="start" x="445" y="-440.3" font-family="Helvetica,sans-Serif" font-size="11.00" fill="#000000">&lt; 6</text>
<polygon fill="#ffffff" stroke="transparent" points="570,-434.2 570,-453.2 635,-453.2 635,-434.2 570,-434.2"/>
<polygon fill="none" stroke="#000000" points="570,-434.2 570,-453.2 635,-453.2 635,-434.2 570,-434.2"/>
<text text-anchor="start" x="625.8862" y="-440.3" font-family="Helvetica,sans-Serif" font-size="11.00" fill="#000000"> &#160;</text>
<polygon fill="#ffffff" stroke="transparent" points="635,-434.2 635,-453.2 710,-453.2 710,-434.2 635,-434.2"/>
<polygon fill="none" stroke="#000000" points="635,-434.2 635,-453.2 710,-453.2 710,-434.2 635,-434.2"/>
<text text-anchor="start" x="691.4053" y="-440.3" font-family="Helvetica,sans-Serif" font-size="11.00" fill="#000000">1 &gt;</text>
</a>
</g>
</g>
<!-- temporary_absence_authorisation&#45;&gt;reference_data -->
<g id="edge6" class="edge">
<title>temporary_absence_authorisation:w&#45;&gt;reference_data:e</title>
<path fill="none" stroke="#000000" d="M419.571,-441.8073C413.2672,-442.0675 407.0686,-442.4114 401.0429,-442.8389"/>
<polygon fill="#000000" stroke="#000000" points="425.9733,-441.6091 434.0809,-444.9598 429.9714,-441.4853 433.9695,-441.3615 433.9695,-441.3615 433.9695,-441.3615 429.9714,-441.4853 433.8581,-437.7632 425.9733,-441.6091 425.9733,-441.6091"/>
<ellipse fill="none" stroke="#000000" cx="422.7748" cy="-441.7082" rx="3.2" ry="3.2"/>
</g>
<!-- temporary_absence_authorisation&#45;&gt;reference_data -->
<g id="edge7" class="edge">
<title>temporary_absence_authorisation:w&#45;&gt;reference_data:e</title>
<path fill="none" stroke="#000000" d="M419.571,-451.3106C413.2672,-451.4651 407.0686,-451.6693 401.0429,-451.9231"/>
<polygon fill="#000000" stroke="#000000" points="425.9708,-451.193 434.0357,-454.6453 429.9702,-451.1194 433.9695,-451.0459 433.9695,-451.0459 433.9695,-451.0459 429.9702,-451.1194 433.9033,-447.4465 425.9708,-451.193 425.9708,-451.193"/>
<ellipse fill="none" stroke="#000000" cx="422.7714" cy="-451.2518" rx="3.2" ry="3.2"/>
</g>
<!-- temporary_absence_authorisation&#45;&gt;reference_data -->
<g id="edge8" class="edge">
<title>temporary_absence_authorisation:w&#45;&gt;reference_data:e</title>
<path fill="none" stroke="#000000" d="M419.312,-460.8159C413.0974,-460.8644 406.9861,-460.9282 401.0429,-461.0073"/>
<polygon fill="#000000" stroke="#000000" points="425.9696,-460.7771 433.9905,-464.3302 429.9696,-460.7537 433.9695,-460.7303 433.9695,-460.7303 433.9695,-460.7303 429.9696,-460.7537 433.9484,-457.1303 425.9696,-460.7771 425.9696,-460.7771"/>
<ellipse fill="none" stroke="#000000" cx="422.7697" cy="-460.7958" rx="3.2" ry="3.2"/>
</g>
<!-- temporary_absence_authorisation&#45;&gt;reference_data -->
<g id="edge9" class="edge">
<title>temporary_absence_authorisation:w&#45;&gt;reference_data:e</title>
<path fill="none" stroke="#000000" d="M419.312,-470.3148C413.0974,-470.2582 406.9861,-470.1837 401.0429,-470.0915"/>
<polygon fill="#000000" stroke="#000000" points="425.9697,-470.3601 433.9449,-474.0146 429.9696,-470.3874 433.9695,-470.4147 433.9695,-470.4147 433.9695,-470.4147 429.9696,-470.3874 433.994,-466.8148 425.9697,-470.3601 425.9697,-470.3601"/>
<ellipse fill="none" stroke="#000000" cx="422.7697" cy="-470.3383" rx="3.2" ry="3.2"/>
</g>
<!-- temporary_absence_authorisation&#45;&gt;reference_data -->
<g id="edge10" class="edge">
<title>temporary_absence_authorisation:w&#45;&gt;reference_data:e</title>
<path fill="none" stroke="#000000" d="M419.571,-479.8204C413.2672,-479.6578 407.0686,-479.4429 401.0429,-479.1757"/>
<polygon fill="#000000" stroke="#000000" points="425.971,-479.9442 433.8998,-483.6984 429.9702,-480.0216 433.9695,-480.0991 433.9695,-480.0991 433.9695,-480.0991 429.9702,-480.0216 434.0392,-476.4997 425.971,-479.9442 425.971,-479.9442"/>
<ellipse fill="none" stroke="#000000" cx="422.7716" cy="-479.8823" rx="3.2" ry="3.2"/>
</g>
<!-- temporary_absence_authorisation&#45;&gt;reference_data -->
<g id="edge11" class="edge">
<title>temporary_absence_authorisation:w&#45;&gt;reference_data:e</title>
<path fill="none" stroke="#000000" d="M419.571,-489.3237C413.2672,-489.0554 407.0686,-488.7007 401.0429,-488.2598"/>
<polygon fill="#000000" stroke="#000000" points="425.9736,-489.5281 433.8546,-493.3816 429.9715,-489.6558 433.9695,-489.7835 433.9695,-489.7835 433.9695,-489.7835 429.9715,-489.6558 434.0844,-486.1853 425.9736,-489.5281 425.9736,-489.5281"/>
<ellipse fill="none" stroke="#000000" cx="422.7752" cy="-489.426" rx="3.2" ry="3.2"/>
</g>
<!-- temporary_absence_movement -->
<g id="node6" class="node">
<title>temporary_absence_movement</title>
<g id="a_node6"><a xlink:href="../../tables/temporary_absence_movement.html" xlink:title="temporary_absence_movement" target="_top">
<polygon fill="#ffffff" stroke="transparent" points="1145,-567.7 1145,-628.7 1394,-628.7 1394,-567.7 1145,-567.7"/>
<polygon fill="#f5f5f5" stroke="transparent" points="1145.5,-605.2 1145.5,-628.2 1394.5,-628.2 1394.5,-605.2 1145.5,-605.2"/>
<polygon fill="none" stroke="#000000" points="1145.5,-605.2 1145.5,-628.2 1394.5,-628.2 1394.5,-605.2 1145.5,-605.2"/>
<text text-anchor="start" x="1150.5" y="-613.8" font-family="Helvetica,sans-Serif" font-weight="bold" font-size="11.00" fill="#000000">temporary_absence_movement</text>
<text text-anchor="start" x="1360.0219" y="-613.3" font-family="Helvetica,sans-Serif" font-size="11.00" fill="#000000">[table]</text>
<polygon fill="none" stroke="#000000" points="1145.5,-586.2 1145.5,-605.2 1394.5,-605.2 1394.5,-586.2 1145.5,-586.2"/>
<text text-anchor="start" x="1148.5" y="-592.3" font-family="Helvetica,sans-Serif" font-size="11.00" fill="#000000">...</text>
<polygon fill="#ffffff" stroke="transparent" points="1145.5,-567.2 1145.5,-586.2 1268.5,-586.2 1268.5,-567.2 1145.5,-567.2"/>
<polygon fill="none" stroke="#000000" points="1145.5,-567.2 1145.5,-586.2 1268.5,-586.2 1268.5,-567.2 1145.5,-567.2"/>
<text text-anchor="start" x="1148.5" y="-573.3" font-family="Helvetica,sans-Serif" font-size="11.00" fill="#000000">&lt; 3</text>
<polygon fill="#ffffff" stroke="transparent" points="1268.5,-567.2 1268.5,-586.2 1331.5,-586.2 1331.5,-567.2 1268.5,-567.2"/>
<polygon fill="none" stroke="#000000" points="1268.5,-567.2 1268.5,-586.2 1331.5,-586.2 1331.5,-567.2 1268.5,-567.2"/>
<text text-anchor="start" x="1322.3862" y="-573.3" font-family="Helvetica,sans-Serif" font-size="11.00" fill="#000000"> &#160;</text>
<polygon fill="#ffffff" stroke="transparent" points="1331.5,-567.2 1331.5,-586.2 1394.5,-586.2 1394.5,-567.2 1331.5,-567.2"/>
<polygon fill="none" stroke="#000000" points="1331.5,-567.2 1331.5,-586.2 1394.5,-586.2 1394.5,-567.2 1331.5,-567.2"/>
<text text-anchor="start" x="1385.3862" y="-573.3" font-family="Helvetica,sans-Serif" font-size="11.00" fill="#000000"> &#160;</text>
</a>
</g>
</g>
<!-- temporary_absence_movement&#45;&gt;reference_data -->
<g id="edge12" class="edge">
<title>temporary_absence_movement:w&#45;&gt;reference_data:e</title>
<path fill="none" stroke="#000000" d="M1122.2496,-614.8188C1014.9749,-623.1672 868.4869,-622.4671 751,-572.2 732.217,-564.1637 736.3517,-549.1776 718,-540.2 603.4987,-484.1861 557.6033,-531.35 434,-500.2 423.2429,-497.489 412.0851,-494.0975 401.1741,-490.4894"/>
<polygon fill="#000000" stroke="#000000" points="1128.8145,-614.2749 1137.0845,-617.2019 1132.8009,-613.9445 1136.7872,-613.6142 1136.7872,-613.6142 1136.7872,-613.6142 1132.8009,-613.9445 1136.4899,-610.0265 1128.8145,-614.2749 1128.8145,-614.2749"/>
<ellipse fill="none" stroke="#000000" cx="1125.6255" cy="-614.5391" rx="3.2" ry="3.2"/>
</g>
<!-- temporary_absence_movement&#45;&gt;reference_data -->
<g id="edge13" class="edge">
<title>temporary_absence_movement:w&#45;&gt;reference_data:e</title>
<path fill="none" stroke="#000000" d="M1122.2496,-625.607C1014.9749,-636.1672 868.4869,-635.4671 751,-585.2 732.217,-577.1637 736.3517,-562.1776 718,-553.2 603.4987,-497.1861 557.6033,-544.35 434,-513.2 419.8564,-509.6356 405.02,-504.8946 390.963,-499.7545"/>
<polygon fill="#000000" stroke="#000000" points="1128.8308,-624.9171 1137.1625,-627.6635 1132.809,-624.5001 1136.7872,-624.0831 1136.7872,-624.0831 1136.7872,-624.0831 1132.809,-624.5001 1136.4119,-620.5027 1128.8308,-624.9171 1128.8308,-624.9171"/>
<ellipse fill="none" stroke="#000000" cx="1125.6482" cy="-625.2508" rx="3.2" ry="3.2"/>
</g>
<!-- temporary_absence_occurrence -->
<g id="node7" class="node">
<title>temporary_absence_occurrence</title>
<g id="a_node7"><a xlink:href="../../tables/temporary_absence_occurrence.html" xlink:title="temporary_absence_occurrence" target="_top">
<polygon fill="#ffffff" stroke="transparent" points="759,-38.2 759,-568.2 1096,-568.2 1096,-38.2 759,-38.2"/>
<polygon fill="#f5f5f5" stroke="transparent" points="761.5,-543.2 761.5,-566.2 1094.5,-566.2 1094.5,-543.2 761.5,-543.2"/>
<polygon fill="none" stroke="#000000" points="761.5,-543.2 761.5,-566.2 1094.5,-566.2 1094.5,-543.2 761.5,-543.2"/>
<text text-anchor="start" x="766.5" y="-551.8" font-family="Helvetica,sans-Serif" font-weight="bold" font-size="11.00" fill="#000000">temporary_absence_occurrence</text>
<text text-anchor="start" x="1059.5437" y="-551.3" font-family="Helvetica,sans-Serif" font-size="11.00" fill="#000000">[table]</text>
<polygon fill="none" stroke="#000000" points="761.5,-521.2 761.5,-543.2 995.5,-543.2 995.5,-521.2 761.5,-521.2"/>
<image xlink:href="../../images/primaryKeys.png" width="11px" height="12px" preserveAspectRatio="xMinYMin meet" x="766.5" y="-538.2"/>
<text text-anchor="start" x="781.5" y="-528.3" font-family="Helvetica,sans-Serif" font-size="11.00" fill="#000000">id</text>
<polygon fill="none" stroke="#000000" points="995.5,-521.2 995.5,-543.2 1094.5,-543.2 1094.5,-521.2 995.5,-521.2"/>
<text text-anchor="start" x="998.5" y="-528.9" font-family="Helvetica,sans-Serif" font-size="11.00" fill="#000000">uuid[2147483647]</text>
<polygon fill="none" stroke="#000000" points="761.5,-499.2 761.5,-521.2 995.5,-521.2 995.5,-499.2 761.5,-499.2"/>
<text text-anchor="start" x="781.5" y="-506.3" font-family="Helvetica,sans-Serif" font-size="11.00" fill="#000000">version</text>
<polygon fill="none" stroke="#000000" points="995.5,-499.2 995.5,-521.2 1094.5,-521.2 1094.5,-499.2 995.5,-499.2"/>
<text text-anchor="start" x="998.5" y="-506.9" font-family="Helvetica,sans-Serif" font-size="11.00" fill="#000000">int4[10]</text>
<polygon fill="#ffffff" stroke="transparent" points="761.5,-477.2 761.5,-499.2 995.5,-499.2 995.5,-477.2 761.5,-477.2"/>
<polygon fill="none" stroke="#000000" points="761.5,-477.2 761.5,-499.2 995.5,-499.2 995.5,-477.2 761.5,-477.2"/>
<text text-anchor="start" x="781.5" y="-484.3" font-family="Helvetica,sans-Serif" font-size="11.00" fill="#000000">person_identifier</text>
<polygon fill="none" stroke="#000000" points="995.5,-477.2 995.5,-499.2 1094.5,-499.2 1094.5,-477.2 995.5,-477.2"/>
<text text-anchor="start" x="998.5" y="-484.9" font-family="Helvetica,sans-Serif" font-size="11.00" fill="#000000">varchar[10]</text>
<polygon fill="#ffffff" stroke="transparent" points="761.5,-455.2 761.5,-477.2 995.5,-477.2 995.5,-455.2 761.5,-455.2"/>
<polygon fill="none" stroke="#000000" points="761.5,-455.2 761.5,-477.2 995.5,-477.2 995.5,-455.2 761.5,-455.2"/>
<image xlink:href="../../images/foreignKeys.png" width="11px" height="12px" preserveAspectRatio="xMinYMin meet" x="766.5" y="-472.2"/>
<text text-anchor="start" x="781.5" y="-462.3" font-family="Helvetica,sans-Serif" font-size="11.00" fill="#000000">authorisation_id</text>
<polygon fill="none" stroke="#000000" points="995.5,-455.2 995.5,-477.2 1094.5,-477.2 1094.5,-455.2 995.5,-455.2"/>
<text text-anchor="start" x="998.5" y="-462.9" font-family="Helvetica,sans-Serif" font-size="11.00" fill="#000000">uuid[2147483647]</text>
<polygon fill="#ffffff" stroke="transparent" points="761.5,-433.2 761.5,-455.2 995.5,-455.2 995.5,-433.2 761.5,-433.2"/>
<polygon fill="none" stroke="#000000" points="761.5,-433.2 761.5,-455.2 995.5,-455.2 995.5,-433.2 761.5,-433.2"/>
<text text-anchor="start" x="781.5" y="-440.3" font-family="Helvetica,sans-Serif" font-size="11.00" fill="#000000">release_at</text>
<polygon fill="none" stroke="#000000" points="995.5,-433.2 995.5,-455.2 1094.5,-455.2 1094.5,-433.2 995.5,-433.2"/>
<text text-anchor="start" x="998.5" y="-440.9" font-family="Helvetica,sans-Serif" font-size="11.00" fill="#000000">timestamp[29,6]</text>
<polygon fill="#ffffff" stroke="transparent" points="761.5,-411.2 761.5,-433.2 995.5,-433.2 995.5,-411.2 761.5,-411.2"/>
<polygon fill="none" stroke="#000000" points="761.5,-411.2 761.5,-433.2 995.5,-433.2 995.5,-411.2 761.5,-411.2"/>
<text text-anchor="start" x="781.5" y="-418.3" font-family="Helvetica,sans-Serif" font-size="11.00" fill="#000000">return_by</text>
<polygon fill="none" stroke="#000000" points="995.5,-411.2 995.5,-433.2 1094.5,-433.2 1094.5,-411.2 995.5,-411.2"/>
<text text-anchor="start" x="998.5" y="-418.9" font-family="Helvetica,sans-Serif" font-size="11.00" fill="#000000">timestamp[29,6]</text>
<polygon fill="none" stroke="#000000" points="761.5,-389.2 761.5,-411.2 995.5,-411.2 995.5,-389.2 761.5,-389.2"/>
<image xlink:href="../../images/foreignKeys.png" width="11px" height="12px" preserveAspectRatio="xMinYMin meet" x="766.5" y="-406.2"/>
<text text-anchor="start" x="781.5" y="-396.3" font-family="Helvetica,sans-Serif" font-size="11.00" fill="#000000">accompanied_by_id</text>
<polygon fill="none" stroke="#000000" points="995.5,-389.2 995.5,-411.2 1094.5,-411.2 1094.5,-389.2 995.5,-389.2"/>
<text text-anchor="start" x="998.5" y="-396.9" font-family="Helvetica,sans-Serif" font-size="11.00" fill="#000000">int8[19]</text>
<polygon fill="none" stroke="#000000" points="761.5,-367.2 761.5,-389.2 995.5,-389.2 995.5,-367.2 761.5,-367.2"/>
<image xlink:href="../../images/foreignKeys.png" width="11px" height="12px" preserveAspectRatio="xMinYMin meet" x="766.5" y="-384.2"/>
<text text-anchor="start" x="781.5" y="-374.3" font-family="Helvetica,sans-Serif" font-size="11.00" fill="#000000">transport_id</text>
<polygon fill="none" stroke="#000000" points="995.5,-367.2 995.5,-389.2 1094.5,-389.2 1094.5,-367.2 995.5,-367.2"/>
<text text-anchor="start" x="998.5" y="-374.9" font-family="Helvetica,sans-Serif" font-size="11.00" fill="#000000">int8[19]</text>
<polygon fill="none" stroke="#000000" points="761.5,-345.2 761.5,-367.2 995.5,-367.2 995.5,-345.2 761.5,-345.2"/>
<text text-anchor="start" x="781.5" y="-352.3" font-family="Helvetica,sans-Serif" font-size="11.00" fill="#000000">contact_information</text>
<polygon fill="none" stroke="#000000" points="995.5,-345.2 995.5,-367.2 1094.5,-367.2 1094.5,-345.2 995.5,-345.2"/>
<text text-anchor="start" x="998.5" y="-352.9" font-family="Helvetica,sans-Serif" font-size="11.00" fill="#000000">text[2147483647]</text>
<polygon fill="none" stroke="#000000" points="761.5,-323.2 761.5,-345.2 995.5,-345.2 995.5,-323.2 761.5,-323.2"/>
<text text-anchor="start" x="781.5" y="-330.3" font-family="Helvetica,sans-Serif" font-size="11.00" fill="#000000">notes</text>
<polygon fill="none" stroke="#000000" points="995.5,-323.2 995.5,-345.2 1094.5,-345.2 1094.5,-323.2 995.5,-323.2"/>
<text text-anchor="start" x="998.5" y="-330.9" font-family="Helvetica,sans-Serif" font-size="11.00" fill="#000000">text[2147483647]</text>
<polygon fill="none" stroke="#000000" points="761.5,-301.2 761.5,-323.2 995.5,-323.2 995.5,-301.2 761.5,-301.2"/>
<text text-anchor="start" x="781.5" y="-308.3" font-family="Helvetica,sans-Serif" font-size="11.00" fill="#000000">added_at</text>
<polygon fill="none" stroke="#000000" points="995.5,-301.2 995.5,-323.2 1094.5,-323.2 1094.5,-301.2 995.5,-301.2"/>
<text text-anchor="start" x="998.5" y="-308.9" font-family="Helvetica,sans-Serif" font-size="11.00" fill="#000000">timestamp[29,6]</text>
<polygon fill="none" stroke="#000000" points="761.5,-279.2 761.5,-301.2 995.5,-301.2 995.5,-279.2 761.5,-279.2"/>
<text text-anchor="start" x="781.5" y="-286.3" font-family="Helvetica,sans-Serif" font-size="11.00" fill="#000000">added_by</text>
<polygon fill="none" stroke="#000000" points="995.5,-279.2 995.5,-301.2 1094.5,-301.2 1094.5,-279.2 995.5,-279.2"/>
<text text-anchor="start" x="998.5" y="-286.9" font-family="Helvetica,sans-Serif" font-size="11.00" fill="#000000">varchar[64]</text>
<polygon fill="none" stroke="#000000" points="761.5,-257.2 761.5,-279.2 995.5,-279.2 995.5,-257.2 761.5,-257.2"/>
<text text-anchor="start" x="781.5" y="-264.3" font-family="Helvetica,sans-Serif" font-size="11.00" fill="#000000">cancelled_at</text>
<polygon fill="none" stroke="#000000" points="995.5,-257.2 995.5,-279.2 1094.5,-279.2 1094.5,-257.2 995.5,-257.2"/>
<text text-anchor="start" x="998.5" y="-264.9" font-family="Helvetica,sans-Serif" font-size="11.00" fill="#000000">timestamp[29,6]</text>
<polygon fill="none" stroke="#000000" points="761.5,-235.2 761.5,-257.2 995.5,-257.2 995.5,-235.2 761.5,-235.2"/>
<text text-anchor="start" x="781.5" y="-242.3" font-family="Helvetica,sans-Serif" font-size="11.00" fill="#000000">cancelled_by</text>
<polygon fill="none" stroke="#000000" points="995.5,-235.2 995.5,-257.2 1094.5,-257.2 1094.5,-235.2 995.5,-235.2"/>
<text text-anchor="start" x="998.5" y="-242.9" font-family="Helvetica,sans-Serif" font-size="11.00" fill="#000000">varchar[64]</text>
<polygon fill="#ffffff" stroke="transparent" points="761.5,-213.2 761.5,-235.2 995.5,-235.2 995.5,-213.2 761.5,-213.2"/>
<polygon fill="none" stroke="#000000" points="761.5,-213.2 761.5,-235.2 995.5,-235.2 995.5,-213.2 761.5,-213.2"/>
<text text-anchor="start" x="781.5" y="-220.3" font-family="Helvetica,sans-Serif" font-size="11.00" fill="#000000">legacy_id</text>
<polygon fill="none" stroke="#000000" points="995.5,-213.2 995.5,-235.2 1094.5,-235.2 1094.5,-213.2 995.5,-213.2"/>
<text text-anchor="start" x="998.5" y="-220.9" font-family="Helvetica,sans-Serif" font-size="11.00" fill="#000000">int8[19]</text>
<polygon fill="none" stroke="#000000" points="761.5,-191.2 761.5,-213.2 995.5,-213.2 995.5,-191.2 761.5,-191.2"/>
<text text-anchor="start" x="781.5" y="-198.3" font-family="Helvetica,sans-Serif" font-size="11.00" fill="#000000">location</text>
<polygon fill="none" stroke="#000000" points="995.5,-191.2 995.5,-213.2 1094.5,-213.2 1094.5,-191.2 995.5,-191.2"/>
<text text-anchor="start" x="998.2258" y="-198.9" font-family="Helvetica,sans-Serif" font-size="11.00" fill="#000000">jsonb[2147483647]</text>
<polygon fill="none" stroke="#000000" points="761.5,-169.2 761.5,-191.2 995.5,-191.2 995.5,-169.2 761.5,-169.2"/>
<text text-anchor="start" x="781.5" y="-176.3" font-family="Helvetica,sans-Serif" font-size="11.00" fill="#000000">schedule_reference</text>
<polygon fill="none" stroke="#000000" points="995.5,-169.2 995.5,-191.2 1094.5,-191.2 1094.5,-169.2 995.5,-169.2"/>
<text text-anchor="start" x="998.2258" y="-176.9" font-family="Helvetica,sans-Serif" font-size="11.00" fill="#000000">jsonb[2147483647]</text>
<polygon fill="none" stroke="#000000" points="761.5,-147.2 761.5,-169.2 995.5,-169.2 995.5,-147.2 761.5,-147.2"/>
<image xlink:href="../../images/foreignKeys.png" width="11px" height="12px" preserveAspectRatio="xMinYMin meet" x="766.5" y="-164.2"/>
<text text-anchor="start" x="781.5" y="-154.3" font-family="Helvetica,sans-Serif" font-size="11.00" fill="#000000">absence_type_id</text>
<polygon fill="none" stroke="#000000" points="995.5,-147.2 995.5,-169.2 1094.5,-169.2 1094.5,-147.2 995.5,-147.2"/>
<text text-anchor="start" x="998.5" y="-154.9" font-family="Helvetica,sans-Serif" font-size="11.00" fill="#000000">int8[19]</text>
<polygon fill="none" stroke="#000000" points="761.5,-125.2 761.5,-147.2 995.5,-147.2 995.5,-125.2 761.5,-125.2"/>
<image xlink:href="../../images/foreignKeys.png" width="11px" height="12px" preserveAspectRatio="xMinYMin meet" x="766.5" y="-142.2"/>
<text text-anchor="start" x="781.5" y="-132.3" font-family="Helvetica,sans-Serif" font-size="11.00" fill="#000000">absence_sub_type_id</text>
<polygon fill="none" stroke="#000000" points="995.5,-125.2 995.5,-147.2 1094.5,-147.2 1094.5,-125.2 995.5,-125.2"/>
<text text-anchor="start" x="998.5" y="-132.9" font-family="Helvetica,sans-Serif" font-size="11.00" fill="#000000">int8[19]</text>
<polygon fill="none" stroke="#000000" points="761.5,-103.2 761.5,-125.2 995.5,-125.2 995.5,-103.2 761.5,-103.2"/>
<image xlink:href="../../images/foreignKeys.png" width="11px" height="12px" preserveAspectRatio="xMinYMin meet" x="766.5" y="-120.2"/>
<text text-anchor="start" x="781.5" y="-110.3" font-family="Helvetica,sans-Serif" font-size="11.00" fill="#000000">absence_reason_category_id</text>
<polygon fill="none" stroke="#000000" points="995.5,-103.2 995.5,-125.2 1094.5,-125.2 1094.5,-103.2 995.5,-103.2"/>
<text text-anchor="start" x="998.5" y="-110.9" font-family="Helvetica,sans-Serif" font-size="11.00" fill="#000000">int8[19]</text>
<polygon fill="none" stroke="#000000" points="761.5,-81.2 761.5,-103.2 995.5,-103.2 995.5,-81.2 761.5,-81.2"/>
<image xlink:href="../../images/foreignKeys.png" width="11px" height="12px" preserveAspectRatio="xMinYMin meet" x="766.5" y="-98.2"/>
<text text-anchor="start" x="781.5" y="-88.3" font-family="Helvetica,sans-Serif" font-size="11.00" fill="#000000">absence_reason_id</text>
<polygon fill="none" stroke="#000000" points="995.5,-81.2 995.5,-103.2 1094.5,-103.2 1094.5,-81.2 995.5,-81.2"/>
<text text-anchor="start" x="998.5" y="-88.9" font-family="Helvetica,sans-Serif" font-size="11.00" fill="#000000">int8[19]</text>
<polygon fill="none" stroke="#000000" points="761.5,-59.2 761.5,-81.2 995.5,-81.2 995.5,-59.2 761.5,-59.2"/>
<text text-anchor="start" x="781.5" y="-66.3" font-family="Helvetica,sans-Serif" font-size="11.00" fill="#000000">reason_path</text>
<polygon fill="none" stroke="#000000" points="995.5,-59.2 995.5,-81.2 1094.5,-81.2 1094.5,-59.2 995.5,-59.2"/>
<text text-anchor="start" x="998.2258" y="-66.9" font-family="Helvetica,sans-Serif" font-size="11.00" fill="#000000">jsonb[2147483647]</text>
<polygon fill="#ffffff" stroke="transparent" points="761.5,-40.2 761.5,-59.2 882.5,-59.2 882.5,-40.2 761.5,-40.2"/>
<polygon fill="none" stroke="#000000" points="761.5,-40.2 761.5,-59.2 882.5,-59.2 882.5,-40.2 761.5,-40.2"/>
<text text-anchor="start" x="764.5" y="-46.3" font-family="Helvetica,sans-Serif" font-size="11.00" fill="#000000">&lt; 7</text>
<polygon fill="#ffffff" stroke="transparent" points="882.5,-40.2 882.5,-59.2 995.5,-59.2 995.5,-40.2 882.5,-40.2"/>
<polygon fill="none" stroke="#000000" points="882.5,-40.2 882.5,-59.2 995.5,-59.2 995.5,-40.2 882.5,-40.2"/>
<text text-anchor="start" x="986.3862" y="-46.3" font-family="Helvetica,sans-Serif" font-size="11.00" fill="#000000"> &#160;</text>
<polygon fill="#ffffff" stroke="transparent" points="995.5,-40.2 995.5,-59.2 1094.5,-59.2 1094.5,-40.2 995.5,-40.2"/>
<polygon fill="none" stroke="#000000" points="995.5,-40.2 995.5,-59.2 1094.5,-59.2 1094.5,-40.2 995.5,-40.2"/>
<text text-anchor="start" x="1075.9053" y="-46.3" font-family="Helvetica,sans-Serif" font-size="11.00" fill="#000000">1 &gt;</text>
<polygon fill="none" stroke="#000000" stroke-width="2" points="760,-39.2 760,-567.2 1095,-567.2 1095,-39.2 760,-39.2"/>
</a>
</g>
</g>
<!-- temporary_absence_movement&#45;&gt;temporary_absence_occurrence -->
<g id="edge14" class="edge">
<title>temporary_absence_movement:w&#45;&gt;temporary_absence_occurrence:e</title>
<path fill="none" stroke="#000000" d="M1196.8351,-557.5345C1166.2048,-543.95 1129.5736,-532.2 1094.5,-532.2"/>
<polygon fill="#000000" stroke="#000000" points="1202.7585,-560.2846 1208.4985,-566.9189 1206.3865,-561.9691 1210.0145,-563.6536 1210.0145,-563.6536 1210.0145,-563.6536 1206.3865,-561.9691 1211.5306,-560.3884 1202.7585,-560.2846 1202.7585,-560.2846"/>
<ellipse fill="none" stroke="#000000" cx="1199.8561" cy="-558.9371" rx="3.2" ry="3.2"/>
</g>
<!-- temporary_absence_occurrence&#45;&gt;reference_data -->
<g id="edge15" class="edge">
<title>temporary_absence_occurrence:w&#45;&gt;reference_data:e</title>
<path fill="none" stroke="#000000" d="M746.9656,-114.3554C595.1658,-117.6724 550.0976,-174.0932 434,-282.2 388.1778,-324.8683 354.5875,-390.6491 336.9786,-430.6318"/>
<polygon fill="#000000" stroke="#000000" points="753.5005,-114.2856 761.5385,-117.7998 757.5002,-114.2428 761.5,-114.2 761.5,-114.2 761.5,-114.2 757.5002,-114.2428 761.4615,-110.6002 753.5005,-114.2856 753.5005,-114.2856"/>
<ellipse fill="none" stroke="#000000" cx="750.3006" cy="-114.3198" rx="3.2" ry="3.2"/>
</g>
<!-- temporary_absence_occurrence&#45;&gt;reference_data -->
<g id="edge16" class="edge">
<title>temporary_absence_occurrence:w&#45;&gt;reference_data:e</title>
<path fill="none" stroke="#000000" d="M746.8066,-91.9762C610.9199,-87.844 544.6598,-28.8878 434,-116.2 383.5861,-155.9773 343.6208,-350.2753 329.0037,-430.4749"/>
<polygon fill="#000000" stroke="#000000" points="753.5009,-92.0781 761.4451,-95.7996 757.5005,-92.1391 761.5,-92.2 761.5,-92.2 761.5,-92.2 757.5005,-92.1391 761.5549,-88.6004 753.5009,-92.0781 753.5009,-92.0781"/>
<ellipse fill="none" stroke="#000000" cx="750.3013" cy="-92.0293" rx="3.2" ry="3.2"/>
</g>
<!-- temporary_absence_occurrence&#45;&gt;reference_data -->
<g id="edge17" class="edge">
<title>temporary_absence_occurrence:w&#45;&gt;reference_data:e</title>
<path fill="none" stroke="#000000" d="M747.2992,-139.7698C729.7967,-151.3607 741.7447,-188.3923 718,-209.2 614.6814,-299.7393 543.9937,-248.8988 434,-331.2 397.235,-358.7089 364.9966,-400.7912 344.8705,-430.4431"/>
<polygon fill="#000000" stroke="#000000" points="753.7414,-138.1504 762.3777,-139.6914 757.6207,-137.1752 761.5,-136.2 761.5,-136.2 761.5,-136.2 757.6207,-137.1752 760.6223,-132.7086 753.7414,-138.1504 753.7414,-138.1504"/>
<ellipse fill="none" stroke="#000000" cx="750.6379" cy="-138.9305" rx="3.2" ry="3.2"/>
</g>
<!-- temporary_absence_occurrence&#45;&gt;reference_data -->
<g id="edge18" class="edge">
<title>temporary_absence_occurrence:w&#45;&gt;reference_data:e</title>
<path fill="none" stroke="#000000" d="M747.2407,-160.6101C714.2175,-174.4399 755.274,-244.3456 718,-280.2 622.6698,-371.8997 549.5472,-304.8142 434,-369.2 404.8443,-385.4463 376.4617,-410.2037 355.6954,-430.5074"/>
<polygon fill="#000000" stroke="#000000" points="753.6119,-159.5333 762.1,-161.7497 757.5559,-158.8667 761.5,-158.2 761.5,-158.2 761.5,-158.2 757.5559,-158.8667 760.9,-154.6503 753.6119,-159.5333 753.6119,-159.5333"/>
<ellipse fill="none" stroke="#000000" cx="750.4566" cy="-160.0666" rx="3.2" ry="3.2"/>
</g>
<!-- temporary_absence_occurrence&#45;&gt;reference_data -->
<g id="edge19" class="edge">
<title>temporary_absence_occurrence:w&#45;&gt;reference_data:e</title>
<path fill="none" stroke="#000000" d="M746.9015,-400.1775C612.7723,-399.7711 571.7574,-394.3353 434,-424.2 423.1584,-426.5504 411.9517,-429.7335 401.0163,-433.2934"/>
<polygon fill="#000000" stroke="#000000" points="753.5,-400.1876 761.4944,-403.8 757.5,-400.1938 761.5,-400.2 761.5,-400.2 761.5,-400.2 757.5,-400.1938 761.5056,-396.6 753.5,-400.1876 753.5,-400.1876"/>
<ellipse fill="none" stroke="#000000" cx="750.3" cy="-400.1827" rx="3.2" ry="3.2"/>
</g>
<!-- temporary_absence_occurrence&#45;&gt;reference_data -->
<g id="edge21" class="edge">
<title>temporary_absence_occurrence:w&#45;&gt;reference_data:e</title>
<path fill="none" stroke="#000000" d="M746.9036,-378.1174C612.6764,-376.597 568.3686,-355.0754 434,-397.2 410.7102,-404.5014 387.3156,-417.7447 368.0496,-430.6171"/>
<polygon fill="#000000" stroke="#000000" points="753.5001,-378.1547 761.4796,-381.7999 757.5001,-378.1773 761.5,-378.2 761.5,-378.2 761.5,-378.2 757.5001,-378.1773 761.5204,-374.6001 753.5001,-378.1547 753.5001,-378.1547"/>
<ellipse fill="none" stroke="#000000" cx="750.3002" cy="-378.1366" rx="3.2" ry="3.2"/>
</g>
<!-- temporary_absence_occurrence&#45;&gt;temporary_absence_authorisation -->
<g id="edge20" class="edge">
<title>temporary_absence_occurrence:w&#45;&gt;temporary_absence_authorisation:e</title>
<path fill="none" stroke="#000000" d="M746.7816,-466.1901C737.3114,-466.1776 727.6734,-466.1541 718.042,-466.1224"/>
<polygon fill="#000000" stroke="#000000" points="753.5,-466.1945 761.4975,-469.8 757.5,-466.1973 761.5,-466.2 761.5,-466.2 761.5,-466.2 757.5,-466.1973 761.5025,-462.6 753.5,-466.1945 753.5,-466.1945"/>
<ellipse fill="none" stroke="#000000" cx="750.3" cy="-466.1924" rx="3.2" ry="3.2"/>
</g>
</g>
</svg>
