<?xml version="1.0" encoding="UTF-8" standalone="no"?>
<!DOCTYPE svg PUBLIC "-//W3C//DTD SVG 1.1//EN"
 "http://www.w3.org/Graphics/SVG/1.1/DTD/svg11.dtd">
<!-- Generated by graphviz version 2.40.1 (20161225.0304)
 -->
<!-- Title: twoDegreesRelationshipsDiagram Pages: 1 -->
<svg width="1410pt" height="641pt"
 viewBox="0.00 0.00 1410.00 640.70" xmlns="http://www.w3.org/2000/svg" xmlns:xlink="http://www.w3.org/1999/xlink">
<g id="graph0" class="graph" transform="scale(1 1) rotate(0) translate(4 636.7)">
<title>twoDegreesRelationshipsDiagram</title>
<polygon fill="#ffffff" stroke="transparent" points="-4,4 -4,-636.7 1406,-636.7 1406,4 -4,4"/>
<text text-anchor="middle" x="72.4936" y="-7.3" font-family="Helvetica,sans-Serif" font-size="11.00" fill="#000000">Generated by SchemaSpy</text>
<!-- reference_data -->
<g id="node1" class="node">
<title>reference_data</title>
<g id="a_node1"><a xlink:href="../../tables/reference_data.html" xlink:title="reference_data" target="_top">
<polygon fill="#ffffff" stroke="transparent" points="253,-363.7 253,-424.7 393,-424.7 393,-363.7 253,-363.7"/>
<polygon fill="#f5f5f5" stroke="transparent" points="253,-401.2 253,-424.2 393,-424.2 393,-401.2 253,-401.2"/>
<polygon fill="none" stroke="#000000" points="253,-401.2 253,-424.2 393,-424.2 393,-401.2 253,-401.2"/>
<text text-anchor="start" x="258" y="-409.8" font-family="Helvetica,sans-Serif" font-weight="bold" font-size="11.00" fill="#000000">reference_data</text>
<text text-anchor="start" x="358.5219" y="-409.3" font-family="Helvetica,sans-Serif" font-size="11.00" fill="#000000">[table]</text>
<polygon fill="none" stroke="#000000" points="253,-382.2 253,-401.2 393,-401.2 393,-382.2 253,-382.2"/>
<text text-anchor="start" x="256" y="-388.3" font-family="Helvetica,sans-Serif" font-size="11.00" fill="#000000">...</text>
<polygon fill="#ffffff" stroke="transparent" points="253,-363.2 253,-382.2 314,-382.2 314,-363.2 253,-363.2"/>
<polygon fill="none" stroke="#000000" points="253,-363.2 253,-382.2 314,-382.2 314,-363.2 253,-363.2"/>
<text text-anchor="start" x="256" y="-369.3" font-family="Helvetica,sans-Serif" font-size="11.00" fill="#000000">&lt; 1</text>
<polygon fill="#ffffff" stroke="transparent" points="314,-363.2 314,-382.2 346,-382.2 346,-363.2 314,-363.2"/>
<polygon fill="none" stroke="#000000" points="314,-363.2 314,-382.2 346,-382.2 346,-363.2 314,-363.2"/>
<text text-anchor="start" x="336.8862" y="-369.3" font-family="Helvetica,sans-Serif" font-size="11.00" fill="#000000"> &#160;</text>
<polygon fill="#ffffff" stroke="transparent" points="346,-363.2 346,-382.2 393,-382.2 393,-363.2 346,-363.2"/>
<polygon fill="none" stroke="#000000" points="346,-363.2 346,-382.2 393,-382.2 393,-363.2 346,-363.2"/>
<text text-anchor="start" x="368.2904" y="-369.3" font-family="Helvetica,sans-Serif" font-size="11.00" fill="#000000">18 &gt;</text>
</a>
</g>
</g>
<!-- reference_data_domain -->
<g id="node2" class="node">
<title>reference_data_domain</title>
<g id="a_node2"><a xlink:href="../../tables/reference_data_domain.html" xlink:title="reference_data_domain" target="_top">
<polygon fill="#ffffff" stroke="transparent" points="8,-393.7 8,-454.7 204,-454.7 204,-393.7 8,-393.7"/>
<polygon fill="#f5f5f5" stroke="transparent" points="8,-431.2 8,-454.2 204,-454.2 204,-431.2 8,-431.2"/>
<polygon fill="none" stroke="#000000" points="8,-431.2 8,-454.2 204,-454.2 204,-431.2 8,-431.2"/>
<text text-anchor="start" x="13" y="-439.8" font-family="Helvetica,sans-Serif" font-weight="bold" font-size="11.00" fill="#000000">reference_data_domain</text>
<text text-anchor="start" x="169.5219" y="-439.3" font-family="Helvetica,sans-Serif" font-size="11.00" fill="#000000">[table]</text>
<polygon fill="none" stroke="#000000" points="8,-412.2 8,-431.2 204,-431.2 204,-412.2 8,-412.2"/>
<text text-anchor="start" x="11" y="-418.3" font-family="Helvetica,sans-Serif" font-size="11.00" fill="#000000">...</text>
<polygon fill="#ffffff" stroke="transparent" points="8,-393.2 8,-412.2 95,-412.2 95,-393.2 8,-393.2"/>
<polygon fill="none" stroke="#000000" points="8,-393.2 8,-412.2 95,-412.2 95,-393.2 8,-393.2"/>
<text text-anchor="start" x="11" y="-399.3" font-family="Helvetica,sans-Serif" font-size="11.00" fill="#000000"> &#160;</text>
<polygon fill="#ffffff" stroke="transparent" points="95,-393.2 95,-412.2 145,-412.2 145,-393.2 95,-393.2"/>
<polygon fill="none" stroke="#000000" points="95,-393.2 95,-412.2 145,-412.2 145,-393.2 95,-393.2"/>
<text text-anchor="start" x="135.8862" y="-399.3" font-family="Helvetica,sans-Serif" font-size="11.00" fill="#000000"> &#160;</text>
<polygon fill="#ffffff" stroke="transparent" points="145,-393.2 145,-412.2 204,-412.2 204,-393.2 145,-393.2"/>
<polygon fill="none" stroke="#000000" points="145,-393.2 145,-412.2 204,-412.2 204,-393.2 145,-393.2"/>
<text text-anchor="start" x="185.4053" y="-399.3" font-family="Helvetica,sans-Serif" font-size="11.00" fill="#000000">2 &gt;</text>
</a>
</g>
</g>
<!-- reference_data&#45;&gt;reference_data_domain -->
<g id="edge1" class="edge">
<title>reference_data:w&#45;&gt;reference_data_domain:e</title>
<path fill="none" stroke="#000000" d="M230.4617,-419.3568C221.5769,-420.5125 212.6543,-421.2 204,-421.2"/>
<polygon fill="#000000" stroke="#000000" points="236.9278,-418.341 245.3896,-420.6557 240.8793,-417.7201 244.8309,-417.0993 244.8309,-417.0993 244.8309,-417.0993 240.8793,-417.7201 244.2721,-413.5429 236.9278,-418.341 236.9278,-418.341"/>
<ellipse fill="none" stroke="#000000" cx="233.7666" cy="-418.8376" rx="3.2" ry="3.2"/>
</g>
<!-- reference_data_domain_link -->
<g id="node3" class="node">
<title>reference_data_domain_link</title>
<g id="a_node3"><a xlink:href="../../tables/reference_data_domain_link.html" xlink:title="reference_data_domain_link" target="_top">
<polygon fill="#ffffff" stroke="transparent" points="462.5,-567.7 462.5,-628.7 689.5,-628.7 689.5,-567.7 462.5,-567.7"/>
<polygon fill="#f5f5f5" stroke="transparent" points="463,-605.2 463,-628.2 690,-628.2 690,-605.2 463,-605.2"/>
<polygon fill="none" stroke="#000000" points="463,-605.2 463,-628.2 690,-628.2 690,-605.2 463,-605.2"/>
<text text-anchor="start" x="468" y="-613.8" font-family="Helvetica,sans-Serif" font-weight="bold" font-size="11.00" fill="#000000">reference_data_domain_link</text>
<text text-anchor="start" x="655.5219" y="-613.3" font-family="Helvetica,sans-Serif" font-size="11.00" fill="#000000">[table]</text>
<polygon fill="none" stroke="#000000" points="463,-586.2 463,-605.2 690,-605.2 690,-586.2 463,-586.2"/>
<text text-anchor="start" x="466" y="-592.3" font-family="Helvetica,sans-Serif" font-size="11.00" fill="#000000">...</text>
<polygon fill="#ffffff" stroke="transparent" points="463,-567.2 463,-586.2 575,-586.2 575,-567.2 463,-567.2"/>
<polygon fill="none" stroke="#000000" points="463,-567.2 463,-586.2 575,-586.2 575,-567.2 463,-567.2"/>
<text text-anchor="start" x="466" y="-573.3" font-family="Helvetica,sans-Serif" font-size="11.00" fill="#000000">&lt; 2</text>
<polygon fill="#ffffff" stroke="transparent" points="575,-567.2 575,-586.2 632,-586.2 632,-567.2 575,-567.2"/>
<polygon fill="none" stroke="#000000" points="575,-567.2 575,-586.2 632,-586.2 632,-567.2 575,-567.2"/>
<text text-anchor="start" x="622.8862" y="-573.3" font-family="Helvetica,sans-Serif" font-size="11.00" fill="#000000"> &#160;</text>
<polygon fill="#ffffff" stroke="transparent" points="632,-567.2 632,-586.2 690,-586.2 690,-567.2 632,-567.2"/>
<polygon fill="none" stroke="#000000" points="632,-567.2 632,-586.2 690,-586.2 690,-567.2 632,-567.2"/>
<text text-anchor="start" x="680.8862" y="-573.3" font-family="Helvetica,sans-Serif" font-size="11.00" fill="#000000"> &#160;</text>
</a>
</g>
</g>
<!-- reference_data_domain_link&#45;&gt;reference_data -->
<g id="edge3" class="edge">
<title>reference_data_domain_link:w&#45;&gt;reference_data:e</title>
<path fill="none" stroke="#000000" d="M455.7454,-587.4734C435.3355,-561.6142 378.2979,-477.018 346.0219,-428.7531"/>
<polygon fill="#000000" stroke="#000000" points="465.3685,-591.8788 459.5363,-597.3548 458.4411,-596.1883 464.2733,-590.7124 465.3685,-591.8788"/>
<polyline fill="none" stroke="#000000" points="463,-595.2 460.262,-592.2839 "/>
<ellipse fill="none" stroke="#000000" cx="458.0716" cy="-589.951" rx="3.2" ry="3.2"/>
</g>
<!-- reference_data_domain_link&#45;&gt;reference_data_domain -->
<g id="edge2" class="edge">
<title>reference_data_domain_link:w&#45;&gt;reference_data_domain:e</title>
<path fill="none" stroke="#000000" d="M448.5419,-593C377.9063,-572.8579 268.7335,-421.2 204,-421.2"/>
<polygon fill="#000000" stroke="#000000" points="455.091,-593.9965 462.4584,-598.759 459.0455,-594.5982 463,-595.2 463,-595.2 463,-595.2 459.0455,-594.5982 463.5416,-591.641 455.091,-593.9965 455.091,-593.9965"/>
<ellipse fill="none" stroke="#000000" cx="451.9275" cy="-593.5151" rx="3.2" ry="3.2"/>
</g>
<!-- reference_data_link -->
<g id="node4" class="node">
<title>reference_data_link</title>
<g id="a_node4"><a xlink:href="../../tables/reference_data_link.html" xlink:title="reference_data_link" target="_top">
<polygon fill="#ffffff" stroke="transparent" points="490.5,-485.7 490.5,-546.7 661.5,-546.7 661.5,-485.7 490.5,-485.7"/>
<polygon fill="#f5f5f5" stroke="transparent" points="491,-523.2 491,-546.2 662,-546.2 662,-523.2 491,-523.2"/>
<polygon fill="none" stroke="#000000" points="491,-523.2 491,-546.2 662,-546.2 662,-523.2 491,-523.2"/>
<text text-anchor="start" x="496" y="-531.8" font-family="Helvetica,sans-Serif" font-weight="bold" font-size="11.00" fill="#000000">reference_data_link</text>
<text text-anchor="start" x="627.5219" y="-531.3" font-family="Helvetica,sans-Serif" font-size="11.00" fill="#000000">[table]</text>
<polygon fill="none" stroke="#000000" points="491,-504.2 491,-523.2 662,-523.2 662,-504.2 491,-504.2"/>
<text text-anchor="start" x="494" y="-510.3" font-family="Helvetica,sans-Serif" font-size="11.00" fill="#000000">...</text>
<polygon fill="#ffffff" stroke="transparent" points="491,-485.2 491,-504.2 575,-504.2 575,-485.2 491,-485.2"/>
<polygon fill="none" stroke="#000000" points="491,-485.2 491,-504.2 575,-504.2 575,-485.2 491,-485.2"/>
<text text-anchor="start" x="494" y="-491.3" font-family="Helvetica,sans-Serif" font-size="11.00" fill="#000000">&lt; 2</text>
<polygon fill="#ffffff" stroke="transparent" points="575,-485.2 575,-504.2 618,-504.2 618,-485.2 575,-485.2"/>
<polygon fill="none" stroke="#000000" points="575,-485.2 575,-504.2 618,-504.2 618,-485.2 575,-485.2"/>
<text text-anchor="start" x="608.8862" y="-491.3" font-family="Helvetica,sans-Serif" font-size="11.00" fill="#000000"> &#160;</text>
<polygon fill="#ffffff" stroke="transparent" points="618,-485.2 618,-504.2 662,-504.2 662,-485.2 618,-485.2"/>
<polygon fill="none" stroke="#000000" points="618,-485.2 618,-504.2 662,-504.2 662,-485.2 618,-485.2"/>
<text text-anchor="start" x="652.8862" y="-491.3" font-family="Helvetica,sans-Serif" font-size="11.00" fill="#000000"> &#160;</text>
</a>
</g>
</g>
<!-- reference_data_link&#45;&gt;reference_data -->
<g id="edge4" class="edge">
<title>reference_data_link:w&#45;&gt;reference_data:e</title>
<path fill="none" stroke="#000000" d="M476.5763,-511.3271C425.9518,-501.5576 381.1397,-459.8418 353.1819,-428.9122"/>
<polygon fill="#000000" stroke="#000000" points="483.0666,-512.1698 490.5364,-516.77 487.0333,-512.6849 491,-513.2 491,-513.2 491,-513.2 487.0333,-512.6849 491.4636,-509.63 483.0666,-512.1698 483.0666,-512.1698"/>
<ellipse fill="none" stroke="#000000" cx="479.8932" cy="-511.7578" rx="3.2" ry="3.2"/>
</g>
<!-- reference_data_link&#45;&gt;reference_data -->
<g id="edge5" class="edge">
<title>reference_data_link:w&#45;&gt;reference_data:e</title>
<path fill="none" stroke="#000000" d="M476.371,-513.2727C420.9247,-509.6451 372.4731,-462.7754 345.5366,-428.8584"/>
<polygon fill="#000000" stroke="#000000" points="483.0001,-513.2398 491.0179,-516.8 487,-513.2199 491,-513.2 491,-513.2 491,-513.2 487,-513.2199 490.9821,-509.6 483.0001,-513.2398 483.0001,-513.2398"/>
<ellipse fill="none" stroke="#000000" cx="479.8001" cy="-513.2557" rx="3.2" ry="3.2"/>
</g>
<!-- temporary_absence_authorisation -->
<g id="node5" class="node">
<title>temporary_absence_authorisation</title>
<g id="a_node5"><a xlink:href="../../tables/temporary_absence_authorisation.html" xlink:title="temporary_absence_authorisation" target="_top">
<polygon fill="#ffffff" stroke="transparent" points="442,-363.7 442,-424.7 710,-424.7 710,-363.7 442,-363.7"/>
<polygon fill="#f5f5f5" stroke="transparent" points="442,-401.2 442,-424.2 710,-424.2 710,-401.2 442,-401.2"/>
<polygon fill="none" stroke="#000000" points="442,-401.2 442,-424.2 710,-424.2 710,-401.2 442,-401.2"/>
<text text-anchor="start" x="447" y="-409.8" font-family="Helvetica,sans-Serif" font-weight="bold" font-size="11.00" fill="#000000">temporary_absence_authorisation</text>
<text text-anchor="start" x="675.5219" y="-409.3" font-family="Helvetica,sans-Serif" font-size="11.00" fill="#000000">[table]</text>
<polygon fill="none" stroke="#000000" points="442,-382.2 442,-401.2 710,-401.2 710,-382.2 442,-382.2"/>
<text text-anchor="start" x="445" y="-388.3" font-family="Helvetica,sans-Serif" font-size="11.00" fill="#000000">...</text>
<polygon fill="#ffffff" stroke="transparent" points="442,-363.2 442,-382.2 570,-382.2 570,-363.2 442,-363.2"/>
<polygon fill="none" stroke="#000000" points="442,-363.2 442,-382.2 570,-382.2 570,-363.2 442,-363.2"/>
<text text-anchor="start" x="445" y="-369.3" font-family="Helvetica,sans-Serif" font-size="11.00" fill="#000000">&lt; 6</text>
<polygon fill="#ffffff" stroke="transparent" points="570,-363.2 570,-382.2 635,-382.2 635,-363.2 570,-363.2"/>
<polygon fill="none" stroke="#000000" points="570,-363.2 570,-382.2 635,-382.2 635,-363.2 570,-363.2"/>
<text text-anchor="start" x="625.8862" y="-369.3" font-family="Helvetica,sans-Serif" font-size="11.00" fill="#000000"> &#160;</text>
<polygon fill="#ffffff" stroke="transparent" points="635,-363.2 635,-382.2 710,-382.2 710,-363.2 635,-363.2"/>
<polygon fill="none" stroke="#000000" points="635,-363.2 635,-382.2 710,-382.2 710,-363.2 635,-363.2"/>
<text text-anchor="start" x="691.4053" y="-369.3" font-family="Helvetica,sans-Serif" font-size="11.00" fill="#000000">1 &gt;</text>
</a>
</g>
</g>
<!-- temporary_absence_authorisation&#45;&gt;reference_data -->
<g id="edge6" class="edge">
<title>temporary_absence_authorisation:w&#45;&gt;reference_data:e</title>
<path fill="none" stroke="#000000" d="M419.571,-370.8073C413.2672,-371.0675 407.0686,-371.4114 401.0429,-371.8389"/>
<polygon fill="#000000" stroke="#000000" points="425.9733,-370.6091 434.0809,-373.9598 429.9714,-370.4853 433.9695,-370.3615 433.9695,-370.3615 433.9695,-370.3615 429.9714,-370.4853 433.8581,-366.7632 425.9733,-370.6091 425.9733,-370.6091"/>
<ellipse fill="none" stroke="#000000" cx="422.7748" cy="-370.7082" rx="3.2" ry="3.2"/>
</g>
<!-- temporary_absence_authorisation&#45;&gt;reference_data -->
<g id="edge7" class="edge">
<title>temporary_absence_authorisation:w&#45;&gt;reference_data:e</title>
<path fill="none" stroke="#000000" d="M419.571,-380.3106C413.2672,-380.4651 407.0686,-380.6693 401.0429,-380.9231"/>
<polygon fill="#000000" stroke="#000000" points="425.9708,-380.193 434.0357,-383.6453 429.9702,-380.1194 433.9695,-380.0459 433.9695,-380.0459 433.9695,-380.0459 429.9702,-380.1194 433.9033,-376.4465 425.9708,-380.193 425.9708,-380.193"/>
<ellipse fill="none" stroke="#000000" cx="422.7714" cy="-380.2518" rx="3.2" ry="3.2"/>
</g>
<!-- temporary_absence_authorisation&#45;&gt;reference_data -->
<g id="edge8" class="edge">
<title>temporary_absence_authorisation:w&#45;&gt;reference_data:e</title>
<path fill="none" stroke="#000000" d="M419.312,-389.8159C413.0974,-389.8644 406.9861,-389.9282 401.0429,-390.0073"/>
<polygon fill="#000000" stroke="#000000" points="425.9696,-389.7771 433.9905,-393.3302 429.9696,-389.7537 433.9695,-389.7303 433.9695,-389.7303 433.9695,-389.7303 429.9696,-389.7537 433.9484,-386.1303 425.9696,-389.7771 425.9696,-389.7771"/>
<ellipse fill="none" stroke="#000000" cx="422.7697" cy="-389.7958" rx="3.2" ry="3.2"/>
</g>
<!-- temporary_absence_authorisation&#45;&gt;reference_data -->
<g id="edge9" class="edge">
<title>temporary_absence_authorisation:w&#45;&gt;reference_data:e</title>
<path fill="none" stroke="#000000" d="M419.312,-399.3148C413.0974,-399.2582 406.9861,-399.1837 401.0429,-399.0915"/>
<polygon fill="#000000" stroke="#000000" points="425.9697,-399.3601 433.9449,-403.0146 429.9696,-399.3874 433.9695,-399.4147 433.9695,-399.4147 433.9695,-399.4147 429.9696,-399.3874 433.994,-395.8148 425.9697,-399.3601 425.9697,-399.3601"/>
<ellipse fill="none" stroke="#000000" cx="422.7697" cy="-399.3383" rx="3.2" ry="3.2"/>
</g>
<!-- temporary_absence_authorisation&#45;&gt;reference_data -->
<g id="edge10" class="edge">
<title>temporary_absence_authorisation:w&#45;&gt;reference_data:e</title>
<path fill="none" stroke="#000000" d="M419.571,-408.8204C413.2672,-408.6578 407.0686,-408.4429 401.0429,-408.1757"/>
<polygon fill="#000000" stroke="#000000" points="425.971,-408.9442 433.8998,-412.6984 429.9702,-409.0216 433.9695,-409.0991 433.9695,-409.0991 433.9695,-409.0991 429.9702,-409.0216 434.0392,-405.4997 425.971,-408.9442 425.971,-408.9442"/>
<ellipse fill="none" stroke="#000000" cx="422.7716" cy="-408.8823" rx="3.2" ry="3.2"/>
</g>
<!-- temporary_absence_authorisation&#45;&gt;reference_data -->
<g id="edge11" class="edge">
<title>temporary_absence_authorisation:w&#45;&gt;reference_data:e</title>
<path fill="none" stroke="#000000" d="M419.571,-418.3237C413.2672,-418.0554 407.0686,-417.7007 401.0429,-417.2598"/>
<polygon fill="#000000" stroke="#000000" points="425.9736,-418.5281 433.8546,-422.3816 429.9715,-418.6558 433.9695,-418.7835 433.9695,-418.7835 433.9695,-418.7835 429.9715,-418.6558 434.0844,-415.1853 425.9736,-418.5281 425.9736,-418.5281"/>
<ellipse fill="none" stroke="#000000" cx="422.7752" cy="-418.426" rx="3.2" ry="3.2"/>
</g>
<!-- temporary_absence_movement -->
<g id="node6" class="node">
<title>temporary_absence_movement</title>
<g id="a_node6"><a xlink:href="../../tables/temporary_absence_movement.html" xlink:title="temporary_absence_movement" target="_top">
<polygon fill="#ffffff" stroke="transparent" points="1145,-479.7 1145,-540.7 1394,-540.7 1394,-479.7 1145,-479.7"/>
<polygon fill="#f5f5f5" stroke="transparent" points="1145.5,-517.2 1145.5,-540.2 1394.5,-540.2 1394.5,-517.2 1145.5,-517.2"/>
<polygon fill="none" stroke="#000000" points="1145.5,-517.2 1145.5,-540.2 1394.5,-540.2 1394.5,-517.2 1145.5,-517.2"/>
<text text-anchor="start" x="1150.5" y="-525.8" font-family="Helvetica,sans-Serif" font-weight="bold" font-size="11.00" fill="#000000">temporary_absence_movement</text>
<text text-anchor="start" x="1360.0219" y="-525.3" font-family="Helvetica,sans-Serif" font-size="11.00" fill="#000000">[table]</text>
<polygon fill="none" stroke="#000000" points="1145.5,-498.2 1145.5,-517.2 1394.5,-517.2 1394.5,-498.2 1145.5,-498.2"/>
<text text-anchor="start" x="1148.5" y="-504.3" font-family="Helvetica,sans-Serif" font-size="11.00" fill="#000000">...</text>
<polygon fill="#ffffff" stroke="transparent" points="1145.5,-479.2 1145.5,-498.2 1268.5,-498.2 1268.5,-479.2 1145.5,-479.2"/>
<polygon fill="none" stroke="#000000" points="1145.5,-479.2 1145.5,-498.2 1268.5,-498.2 1268.5,-479.2 1145.5,-479.2"/>
<text text-anchor="start" x="1148.5" y="-485.3" font-family="Helvetica,sans-Serif" font-size="11.00" fill="#000000">&lt; 3</text>
<polygon fill="#ffffff" stroke="transparent" points="1268.5,-479.2 1268.5,-498.2 1331.5,-498.2 1331.5,-479.2 1268.5,-479.2"/>
<polygon fill="none" stroke="#000000" points="1268.5,-479.2 1268.5,-498.2 1331.5,-498.2 1331.5,-479.2 1268.5,-479.2"/>
<text text-anchor="start" x="1322.3862" y="-485.3" font-family="Helvetica,sans-Serif" font-size="11.00" fill="#000000"> &#160;</text>
<polygon fill="#ffffff" stroke="transparent" points="1331.5,-479.2 1331.5,-498.2 1394.5,-498.2 1394.5,-479.2 1331.5,-479.2"/>
<polygon fill="none" stroke="#000000" points="1331.5,-479.2 1331.5,-498.2 1394.5,-498.2 1394.5,-479.2 1331.5,-479.2"/>
<text text-anchor="start" x="1385.3862" y="-485.3" font-family="Helvetica,sans-Serif" font-size="11.00" fill="#000000"> &#160;</text>
</a>
</g>
</g>
<!-- temporary_absence_movement&#45;&gt;reference_data -->
<g id="edge12" class="edge">
<title>temporary_absence_movement:w&#45;&gt;reference_data:e</title>
<path fill="none" stroke="#000000" d="M1122.279,-514.488C1017.3644,-516.528 873.7556,-513.2781 751,-484.2 735.3231,-480.4865 733.4686,-473.703 718,-469.2 595.6122,-433.5723 557.6033,-460.35 434,-429.2 423.2429,-426.489 412.0851,-423.0975 401.1741,-419.4894"/>
<polygon fill="#000000" stroke="#000000" points="1128.8219,-514.3437 1136.8994,-517.7663 1132.8209,-514.2554 1136.82,-514.1672 1136.82,-514.1672 1136.82,-514.1672 1132.8209,-514.2554 1136.7405,-510.5681 1128.8219,-514.3437 1128.8219,-514.3437"/>
<ellipse fill="none" stroke="#000000" cx="1125.6227" cy="-514.4143" rx="3.2" ry="3.2"/>
</g>
<!-- temporary_absence_movement&#45;&gt;reference_data -->
<g id="edge13" class="edge">
<title>temporary_absence_movement:w&#45;&gt;reference_data:e</title>
<path fill="none" stroke="#000000" d="M1122.279,-525.36C1017.3644,-529.528 873.7556,-526.2781 751,-497.2 735.3231,-493.4865 733.4686,-486.703 718,-482.2 595.6122,-446.5723 557.6033,-473.35 434,-442.2 419.8564,-438.6356 405.02,-433.8946 390.963,-428.7545"/>
<polygon fill="#000000" stroke="#000000" points="1128.8276,-525.0739 1136.9772,-528.3212 1132.8238,-524.8993 1136.82,-524.7246 1136.82,-524.7246 1136.82,-524.7246 1132.8238,-524.8993 1136.6628,-521.128 1128.8276,-525.0739 1128.8276,-525.0739"/>
<ellipse fill="none" stroke="#000000" cx="1125.6306" cy="-525.2136" rx="3.2" ry="3.2"/>
</g>
<!-- temporary_absence_occurrence -->
<g id="node7" class="node">
<title>temporary_absence_occurrence</title>
<g id="a_node7"><a xlink:href="../../tables/temporary_absence_occurrence.html" xlink:title="temporary_absence_occurrence" target="_top">
<polygon fill="#ffffff" stroke="transparent" points="759,-38.2 759,-480.2 1096,-480.2 1096,-38.2 759,-38.2"/>
<polygon fill="#f5f5f5" stroke="transparent" points="761.5,-455.2 761.5,-478.2 1094.5,-478.2 1094.5,-455.2 761.5,-455.2"/>
<polygon fill="none" stroke="#000000" points="761.5,-455.2 761.5,-478.2 1094.5,-478.2 1094.5,-455.2 761.5,-455.2"/>
<text text-anchor="start" x="766.5" y="-463.8" font-family="Helvetica,sans-Serif" font-weight="bold" font-size="11.00" fill="#000000">temporary_absence_occurrence</text>
<text text-anchor="start" x="1059.5437" y="-463.3" font-family="Helvetica,sans-Serif" font-size="11.00" fill="#000000">[table]</text>
<polygon fill="none" stroke="#000000" points="761.5,-433.2 761.5,-455.2 995.5,-455.2 995.5,-433.2 761.5,-433.2"/>
<image xlink:href="../../images/primaryKeys.png" width="11px" height="12px" preserveAspectRatio="xMinYMin meet" x="766.5" y="-450.2"/>
<text text-anchor="start" x="781.5" y="-440.3" font-family="Helvetica,sans-Serif" font-size="11.00" fill="#000000">id</text>
<polygon fill="none" stroke="#000000" points="995.5,-433.2 995.5,-455.2 1094.5,-455.2 1094.5,-433.2 995.5,-433.2"/>
<text text-anchor="start" x="998.5" y="-440.9" font-family="Helvetica,sans-Serif" font-size="11.00" fill="#000000">uuid[2147483647]</text>
<polygon fill="none" stroke="#000000" points="761.5,-411.2 761.5,-433.2 995.5,-433.2 995.5,-411.2 761.5,-411.2"/>
<text text-anchor="start" x="781.5" y="-418.3" font-family="Helvetica,sans-Serif" font-size="11.00" fill="#000000">version</text>
<polygon fill="none" stroke="#000000" points="995.5,-411.2 995.5,-433.2 1094.5,-433.2 1094.5,-411.2 995.5,-411.2"/>
<text text-anchor="start" x="998.5" y="-418.9" font-family="Helvetica,sans-Serif" font-size="11.00" fill="#000000">int4[10]</text>
<polygon fill="#ffffff" stroke="transparent" points="761.5,-389.2 761.5,-411.2 995.5,-411.2 995.5,-389.2 761.5,-389.2"/>
<polygon fill="none" stroke="#000000" points="761.5,-389.2 761.5,-411.2 995.5,-411.2 995.5,-389.2 761.5,-389.2"/>
<image xlink:href="../../images/foreignKeys.png" width="11px" height="12px" preserveAspectRatio="xMinYMin meet" x="766.5" y="-406.2"/>
<text text-anchor="start" x="781.5" y="-396.3" font-family="Helvetica,sans-Serif" font-size="11.00" fill="#000000">authorisation_id</text>
<polygon fill="none" stroke="#000000" points="995.5,-389.2 995.5,-411.2 1094.5,-411.2 1094.5,-389.2 995.5,-389.2"/>
<text text-anchor="start" x="998.5" y="-396.9" font-family="Helvetica,sans-Serif" font-size="11.00" fill="#000000">uuid[2147483647]</text>
<polygon fill="none" stroke="#000000" points="761.5,-367.2 761.5,-389.2 995.5,-389.2 995.5,-367.2 761.5,-367.2"/>
<text text-anchor="start" x="781.5" y="-374.3" font-family="Helvetica,sans-Serif" font-size="11.00" fill="#000000">release_at</text>
<polygon fill="none" stroke="#000000" points="995.5,-367.2 995.5,-389.2 1094.5,-389.2 1094.5,-367.2 995.5,-367.2"/>
<text text-anchor="start" x="998.5" y="-374.9" font-family="Helvetica,sans-Serif" font-size="11.00" fill="#000000">timestamp[29,6]</text>
<polygon fill="none" stroke="#000000" points="761.5,-345.2 761.5,-367.2 995.5,-367.2 995.5,-345.2 761.5,-345.2"/>
<text text-anchor="start" x="781.5" y="-352.3" font-family="Helvetica,sans-Serif" font-size="11.00" fill="#000000">return_by</text>
<polygon fill="none" stroke="#000000" points="995.5,-345.2 995.5,-367.2 1094.5,-367.2 1094.5,-345.2 995.5,-345.2"/>
<text text-anchor="start" x="998.5" y="-352.9" font-family="Helvetica,sans-Serif" font-size="11.00" fill="#000000">timestamp[29,6]</text>
<polygon fill="none" stroke="#000000" points="761.5,-323.2 761.5,-345.2 995.5,-345.2 995.5,-323.2 761.5,-323.2"/>
<image xlink:href="../../images/foreignKeys.png" width="11px" height="12px" preserveAspectRatio="xMinYMin meet" x="766.5" y="-340.2"/>
<text text-anchor="start" x="781.5" y="-330.3" font-family="Helvetica,sans-Serif" font-size="11.00" fill="#000000">accompanied_by_id</text>
<polygon fill="none" stroke="#000000" points="995.5,-323.2 995.5,-345.2 1094.5,-345.2 1094.5,-323.2 995.5,-323.2"/>
<text text-anchor="start" x="998.5" y="-330.9" font-family="Helvetica,sans-Serif" font-size="11.00" fill="#000000">int8[19]</text>
<polygon fill="none" stroke="#000000" points="761.5,-301.2 761.5,-323.2 995.5,-323.2 995.5,-301.2 761.5,-301.2"/>
<image xlink:href="../../images/foreignKeys.png" width="11px" height="12px" preserveAspectRatio="xMinYMin meet" x="766.5" y="-318.2"/>
<text text-anchor="start" x="781.5" y="-308.3" font-family="Helvetica,sans-Serif" font-size="11.00" fill="#000000">transport_id</text>
<polygon fill="none" stroke="#000000" points="995.5,-301.2 995.5,-323.2 1094.5,-323.2 1094.5,-301.2 995.5,-301.2"/>
<text text-anchor="start" x="998.5" y="-308.9" font-family="Helvetica,sans-Serif" font-size="11.00" fill="#000000">int8[19]</text>
<polygon fill="none" stroke="#000000" points="761.5,-279.2 761.5,-301.2 995.5,-301.2 995.5,-279.2 761.5,-279.2"/>
<text text-anchor="start" x="781.5" y="-286.3" font-family="Helvetica,sans-Serif" font-size="11.00" fill="#000000">contact_information</text>
<polygon fill="none" stroke="#000000" points="995.5,-279.2 995.5,-301.2 1094.5,-301.2 1094.5,-279.2 995.5,-279.2"/>
<text text-anchor="start" x="998.5" y="-286.9" font-family="Helvetica,sans-Serif" font-size="11.00" fill="#000000">text[2147483647]</text>
<polygon fill="none" stroke="#000000" points="761.5,-257.2 761.5,-279.2 995.5,-279.2 995.5,-257.2 761.5,-257.2"/>
<text text-anchor="start" x="781.5" y="-264.3" font-family="Helvetica,sans-Serif" font-size="11.00" fill="#000000">notes</text>
<polygon fill="none" stroke="#000000" points="995.5,-257.2 995.5,-279.2 1094.5,-279.2 1094.5,-257.2 995.5,-257.2"/>
<text text-anchor="start" x="998.5" y="-264.9" font-family="Helvetica,sans-Serif" font-size="11.00" fill="#000000">text[2147483647]</text>
<polygon fill="#ffffff" stroke="transparent" points="761.5,-235.2 761.5,-257.2 995.5,-257.2 995.5,-235.2 761.5,-235.2"/>
<polygon fill="none" stroke="#000000" points="761.5,-235.2 761.5,-257.2 995.5,-257.2 995.5,-235.2 761.5,-235.2"/>
<text text-anchor="start" x="781.5" y="-242.3" font-family="Helvetica,sans-Serif" font-size="11.00" fill="#000000">legacy_id</text>
<polygon fill="none" stroke="#000000" points="995.5,-235.2 995.5,-257.2 1094.5,-257.2 1094.5,-235.2 995.5,-235.2"/>
<text text-anchor="start" x="998.5" y="-242.9" font-family="Helvetica,sans-Serif" font-size="11.00" fill="#000000">int8[19]</text>
<polygon fill="none" stroke="#000000" points="761.5,-213.2 761.5,-235.2 995.5,-235.2 995.5,-213.2 761.5,-213.2"/>
<text text-anchor="start" x="781.5" y="-220.3" font-family="Helvetica,sans-Serif" font-size="11.00" fill="#000000">location</text>
<polygon fill="none" stroke="#000000" points="995.5,-213.2 995.5,-235.2 1094.5,-235.2 1094.5,-213.2 995.5,-213.2"/>
<text text-anchor="start" x="998.2258" y="-220.9" font-family="Helvetica,sans-Serif" font-size="11.00" fill="#000000">jsonb[2147483647]</text>
<polygon fill="none" stroke="#000000" points="761.5,-191.2 761.5,-213.2 995.5,-213.2 995.5,-191.2 761.5,-191.2"/>
<text text-anchor="start" x="781.5" y="-198.3" font-family="Helvetica,sans-Serif" font-size="11.00" fill="#000000">schedule_reference</text>
<polygon fill="none" stroke="#000000" points="995.5,-191.2 995.5,-213.2 1094.5,-213.2 1094.5,-191.2 995.5,-191.2"/>
<text text-anchor="start" x="998.2258" y="-198.9" font-family="Helvetica,sans-Serif" font-size="11.00" fill="#000000">jsonb[2147483647]</text>
<polygon fill="none" stroke="#000000" points="761.5,-169.2 761.5,-191.2 995.5,-191.2 995.5,-169.2 761.5,-169.2"/>
<image xlink:href="../../images/foreignKeys.png" width="11px" height="12px" preserveAspectRatio="xMinYMin meet" x="766.5" y="-186.2"/>
<text text-anchor="start" x="781.5" y="-176.3" font-family="Helvetica,sans-Serif" font-size="11.00" fill="#000000">absence_type_id</text>
<polygon fill="none" stroke="#000000" points="995.5,-169.2 995.5,-191.2 1094.5,-191.2 1094.5,-169.2 995.5,-169.2"/>
<text text-anchor="start" x="998.5" y="-176.9" font-family="Helvetica,sans-Serif" font-size="11.00" fill="#000000">int8[19]</text>
<polygon fill="none" stroke="#000000" points="761.5,-147.2 761.5,-169.2 995.5,-169.2 995.5,-147.2 761.5,-147.2"/>
<image xlink:href="../../images/foreignKeys.png" width="11px" height="12px" preserveAspectRatio="xMinYMin meet" x="766.5" y="-164.2"/>
<text text-anchor="start" x="781.5" y="-154.3" font-family="Helvetica,sans-Serif" font-size="11.00" fill="#000000">absence_sub_type_id</text>
<polygon fill="none" stroke="#000000" points="995.5,-147.2 995.5,-169.2 1094.5,-169.2 1094.5,-147.2 995.5,-147.2"/>
<text text-anchor="start" x="998.5" y="-154.9" font-family="Helvetica,sans-Serif" font-size="11.00" fill="#000000">int8[19]</text>
<polygon fill="none" stroke="#000000" points="761.5,-125.2 761.5,-147.2 995.5,-147.2 995.5,-125.2 761.5,-125.2"/>
<image xlink:href="../../images/foreignKeys.png" width="11px" height="12px" preserveAspectRatio="xMinYMin meet" x="766.5" y="-142.2"/>
<text text-anchor="start" x="781.5" y="-132.3" font-family="Helvetica,sans-Serif" font-size="11.00" fill="#000000">absence_reason_category_id</text>
<polygon fill="none" stroke="#000000" points="995.5,-125.2 995.5,-147.2 1094.5,-147.2 1094.5,-125.2 995.5,-125.2"/>
<text text-anchor="start" x="998.5" y="-132.9" font-family="Helvetica,sans-Serif" font-size="11.00" fill="#000000">int8[19]</text>
<polygon fill="none" stroke="#000000" points="761.5,-103.2 761.5,-125.2 995.5,-125.2 995.5,-103.2 761.5,-103.2"/>
<image xlink:href="../../images/foreignKeys.png" width="11px" height="12px" preserveAspectRatio="xMinYMin meet" x="766.5" y="-120.2"/>
<text text-anchor="start" x="781.5" y="-110.3" font-family="Helvetica,sans-Serif" font-size="11.00" fill="#000000">absence_reason_id</text>
<polygon fill="none" stroke="#000000" points="995.5,-103.2 995.5,-125.2 1094.5,-125.2 1094.5,-103.2 995.5,-103.2"/>
<text text-anchor="start" x="998.5" y="-110.9" font-family="Helvetica,sans-Serif" font-size="11.00" fill="#000000">int8[19]</text>
<polygon fill="none" stroke="#000000" points="761.5,-81.2 761.5,-103.2 995.5,-103.2 995.5,-81.2 761.5,-81.2"/>
<text text-anchor="start" x="781.5" y="-88.3" font-family="Helvetica,sans-Serif" font-size="11.00" fill="#000000">reason_path</text>
<polygon fill="none" stroke="#000000" points="995.5,-81.2 995.5,-103.2 1094.5,-103.2 1094.5,-81.2 995.5,-81.2"/>
<text text-anchor="start" x="998.2258" y="-88.9" font-family="Helvetica,sans-Serif" font-size="11.00" fill="#000000">jsonb[2147483647]</text>
<polygon fill="none" stroke="#000000" points="761.5,-59.2 761.5,-81.2 995.5,-81.2 995.5,-59.2 761.5,-59.2"/>
<image xlink:href="../../images/foreignKeys.png" width="11px" height="12px" preserveAspectRatio="xMinYMin meet" x="766.5" y="-76.2"/>
<text text-anchor="start" x="781.5" y="-66.3" font-family="Helvetica,sans-Serif" font-size="11.00" fill="#000000">status_id</text>
<polygon fill="none" stroke="#000000" points="995.5,-59.2 995.5,-81.2 1094.5,-81.2 1094.5,-59.2 995.5,-59.2"/>
<text text-anchor="start" x="998.5" y="-66.9" font-family="Helvetica,sans-Serif" font-size="11.00" fill="#000000">int8[19]</text>
<polygon fill="#ffffff" stroke="transparent" points="761.5,-40.2 761.5,-59.2 882.5,-59.2 882.5,-40.2 761.5,-40.2"/>
<polygon fill="none" stroke="#000000" points="761.5,-40.2 761.5,-59.2 882.5,-59.2 882.5,-40.2 761.5,-40.2"/>
<text text-anchor="start" x="764.5" y="-46.3" font-family="Helvetica,sans-Serif" font-size="11.00" fill="#000000">&lt; 8</text>
<polygon fill="#ffffff" stroke="transparent" points="882.5,-40.2 882.5,-59.2 995.5,-59.2 995.5,-40.2 882.5,-40.2"/>
<polygon fill="none" stroke="#000000" points="882.5,-40.2 882.5,-59.2 995.5,-59.2 995.5,-40.2 882.5,-40.2"/>
<text text-anchor="start" x="986.3862" y="-46.3" font-family="Helvetica,sans-Serif" font-size="11.00" fill="#000000"> &#160;</text>
<polygon fill="#ffffff" stroke="transparent" points="995.5,-40.2 995.5,-59.2 1094.5,-59.2 1094.5,-40.2 995.5,-40.2"/>
<polygon fill="none" stroke="#000000" points="995.5,-40.2 995.5,-59.2 1094.5,-59.2 1094.5,-40.2 995.5,-40.2"/>
<text text-anchor="start" x="1075.9053" y="-46.3" font-family="Helvetica,sans-Serif" font-size="11.00" fill="#000000">1 &gt;</text>
<polygon fill="none" stroke="#000000" stroke-width="2" points="760,-39.2 760,-479.2 1095,-479.2 1095,-39.2 760,-39.2"/>
</a>
</g>
</g>
<!-- temporary_absence_movement&#45;&gt;temporary_absence_occurrence -->
<g id="edge14" class="edge">
<title>temporary_absence_movement:w&#45;&gt;temporary_absence_occurrence:e</title>
<path fill="none" stroke="#000000" d="M1196.8351,-469.5345C1166.2048,-455.95 1129.5736,-444.2 1094.5,-444.2"/>
<polygon fill="#000000" stroke="#000000" points="1202.7585,-472.2846 1208.4985,-478.9189 1206.3865,-473.9691 1210.0145,-475.6536 1210.0145,-475.6536 1210.0145,-475.6536 1206.3865,-473.9691 1211.5306,-472.3884 1202.7585,-472.2846 1202.7585,-472.2846"/>
<ellipse fill="none" stroke="#000000" cx="1199.8561" cy="-470.9371" rx="3.2" ry="3.2"/>
</g>
<!-- temporary_absence_occurrence&#45;&gt;reference_data -->
<g id="edge15" class="edge">
<title>temporary_absence_occurrence:w&#45;&gt;reference_data:e</title>
<path fill="none" stroke="#000000" d="M746.8882,-136.1749C607.9494,-135.7251 551.2916,-130.36 434,-215.2 383.6321,-251.6324 351.2104,-318.6132 335.1113,-359.5045"/>
<polygon fill="#000000" stroke="#000000" points="753.5,-136.1862 761.4938,-139.8 757.5,-136.1931 761.5,-136.2 761.5,-136.2 761.5,-136.2 757.5,-136.1931 761.5062,-132.6 753.5,-136.1862 753.5,-136.1862"/>
<ellipse fill="none" stroke="#000000" cx="750.3" cy="-136.1807" rx="3.2" ry="3.2"/>
</g>
<!-- temporary_absence_occurrence&#45;&gt;reference_data -->
<g id="edge16" class="edge">
<title>temporary_absence_occurrence:w&#45;&gt;reference_data:e</title>
<path fill="none" stroke="#000000" d="M746.9728,-113.967C665.4845,-111.6577 490.0042,-93.7805 434,-133.2 358.5017,-186.3408 334.0515,-301.6499 326.3725,-359.5536"/>
<polygon fill="#000000" stroke="#000000" points="753.501,-114.0716 761.4422,-117.7995 757.5005,-114.1358 761.5,-114.2 761.5,-114.2 761.5,-114.2 757.5005,-114.1358 761.5578,-110.6005 753.501,-114.0716 753.501,-114.0716"/>
<ellipse fill="none" stroke="#000000" cx="750.3014" cy="-114.0203" rx="3.2" ry="3.2"/>
</g>
<!-- temporary_absence_occurrence&#45;&gt;reference_data -->
<g id="edge17" class="edge">
<title>temporary_absence_occurrence:w&#45;&gt;reference_data:e</title>
<path fill="none" stroke="#000000" d="M747.3052,-161.62C737.2506,-167.4419 733.4176,-179.3153 718,-186.2 598.4789,-239.5717 544.4794,-193.9994 434,-264.2 395.8013,-288.4722 363.723,-329.9584 344.0286,-359.5365"/>
<polygon fill="#000000" stroke="#000000" points="753.7225,-160.0739 762.3432,-161.6999 757.6113,-159.1369 761.5,-158.2 761.5,-158.2 761.5,-158.2 757.6113,-159.1369 760.6568,-154.7001 753.7225,-160.0739 753.7225,-160.0739"/>
<ellipse fill="none" stroke="#000000" cx="750.6116" cy="-160.8234" rx="3.2" ry="3.2"/>
</g>
<!-- temporary_absence_occurrence&#45;&gt;reference_data -->
<g id="edge18" class="edge">
<title>temporary_absence_occurrence:w&#45;&gt;reference_data:e</title>
<path fill="none" stroke="#000000" d="M747.3785,-184.4358C734.3447,-194.8584 738.9536,-221.8682 718,-235.2 608.5825,-304.8173 550.0983,-244.4076 434,-302.2 405.0951,-316.5885 377.1357,-339.8369 356.5084,-359.3625"/>
<polygon fill="#000000" stroke="#000000" points="753.8373,-182.4985 762.5343,-183.6482 757.6686,-181.3492 761.5,-180.2 761.5,-180.2 761.5,-180.2 757.6686,-181.3492 760.4657,-176.7518 753.8373,-182.4985 753.8373,-182.4985"/>
<ellipse fill="none" stroke="#000000" cx="750.7722" cy="-183.4179" rx="3.2" ry="3.2"/>
</g>
<!-- temporary_absence_occurrence&#45;&gt;reference_data -->
<g id="edge19" class="edge">
<title>temporary_absence_occurrence:w&#45;&gt;reference_data:e</title>
<path fill="none" stroke="#000000" d="M746.9157,-334.1642C612.9139,-333.5087 571.8428,-324.4119 434,-353.2 423.2414,-355.4469 412.1317,-358.5453 401.2875,-362.0412"/>
<polygon fill="#000000" stroke="#000000" points="753.5,-334.1803 761.4911,-337.8 757.5,-334.1901 761.5,-334.2 761.5,-334.2 761.5,-334.2 757.5,-334.1901 761.5089,-330.6 753.5,-334.1803 753.5,-334.1803"/>
<ellipse fill="none" stroke="#000000" cx="750.3" cy="-334.1724" rx="3.2" ry="3.2"/>
</g>
<!-- temporary_absence_occurrence&#45;&gt;reference_data -->
<g id="edge21" class="edge">
<title>temporary_absence_occurrence:w&#45;&gt;reference_data:e</title>
<path fill="none" stroke="#000000" d="M746.7697,-70.0179C610.6092,-66.6622 546.0981,-19.0455 434,-105.2 352.8184,-167.5932 330.9921,-297.1602 325.1377,-359.3775"/>
<polygon fill="#000000" stroke="#000000" points="753.5006,-70.1011 761.4555,-73.7997 757.5003,-70.1505 761.5,-70.2 761.5,-70.2 761.5,-70.2 757.5003,-70.1505 761.5445,-66.6003 753.5006,-70.1011 753.5006,-70.1011"/>
<ellipse fill="none" stroke="#000000" cx="750.3009" cy="-70.0615" rx="3.2" ry="3.2"/>
</g>
<!-- temporary_absence_occurrence&#45;&gt;reference_data -->
<g id="edge22" class="edge">
<title>temporary_absence_occurrence:w&#45;&gt;reference_data:e</title>
<path fill="none" stroke="#000000" d="M746.908,-312.121C612.7399,-310.6669 568.9554,-290.08 434,-330.2 412.2512,-336.6655 390.212,-348.139 371.5664,-359.6033"/>
<polygon fill="#000000" stroke="#000000" points="753.5001,-312.1567 761.4805,-315.7999 757.5001,-312.1783 761.5,-312.2 761.5,-312.2 761.5,-312.2 757.5001,-312.1783 761.5195,-308.6001 753.5001,-312.1567 753.5001,-312.1567"/>
<ellipse fill="none" stroke="#000000" cx="750.3002" cy="-312.1393" rx="3.2" ry="3.2"/>
</g>
<!-- temporary_absence_occurrence&#45;&gt;temporary_absence_authorisation -->
<g id="edge20" class="edge">
<title>temporary_absence_occurrence:w&#45;&gt;temporary_absence_authorisation:e</title>
<path fill="none" stroke="#000000" d="M746.775,-400.1403C737.3012,-400.0659 727.6605,-399.9249 718.0273,-399.7342"/>
<polygon fill="#000000" stroke="#000000" points="753.5001,-400.1675 761.4854,-403.8 757.5,-400.1838 761.5,-400.2 761.5,-400.2 761.5,-400.2 757.5,-400.1838 761.5146,-396.6 753.5001,-400.1675 753.5001,-400.1675"/>
<ellipse fill="none" stroke="#000000" cx="750.3001" cy="-400.1545" rx="3.2" ry="3.2"/>
</g>
</g>
</svg>
