<?xml version="1.0" encoding="UTF-8" standalone="no"?>
<!DOCTYPE svg PUBLIC "-//W3C//DTD SVG 1.1//EN"
 "http://www.w3.org/Graphics/SVG/1.1/DTD/svg11.dtd">
<!-- Generated by graphviz version 2.40.1 (20161225.0304)
 -->
<!-- Title: twoDegreesRelationshipsDiagram Pages: 1 -->
<svg width="1424pt" height="478pt"
 viewBox="0.00 0.00 1424.00 477.70" xmlns="http://www.w3.org/2000/svg" xmlns:xlink="http://www.w3.org/1999/xlink">
<g id="graph0" class="graph" transform="scale(1 1) rotate(0) translate(4 473.7)">
<title>twoDegreesRelationshipsDiagram</title>
<polygon fill="#ffffff" stroke="transparent" points="-4,4 -4,-473.7 1420,-473.7 1420,4 -4,4"/>
<text text-anchor="middle" x="72.4936" y="-7.3" font-family="Helvetica,sans-Serif" font-size="11.00" fill="#000000">Generated by SchemaSpy</text>
<!-- reference_data -->
<g id="node1" class="node">
<title>reference_data</title>
<g id="a_node1"><a xlink:href="../../tables/reference_data.html" xlink:title="reference_data" target="_top">
<polygon fill="#ffffff" stroke="transparent" points="260,-277.7 260,-338.7 400,-338.7 400,-277.7 260,-277.7"/>
<polygon fill="#f5f5f5" stroke="transparent" points="260,-315.2 260,-338.2 400,-338.2 400,-315.2 260,-315.2"/>
<polygon fill="none" stroke="#000000" points="260,-315.2 260,-338.2 400,-338.2 400,-315.2 260,-315.2"/>
<text text-anchor="start" x="265" y="-323.8" font-family="Helvetica,sans-Serif" font-weight="bold" font-size="11.00" fill="#000000">reference_data</text>
<text text-anchor="start" x="365.5219" y="-323.3" font-family="Helvetica,sans-Serif" font-size="11.00" fill="#000000">[table]</text>
<polygon fill="none" stroke="#000000" points="260,-296.2 260,-315.2 400,-315.2 400,-296.2 260,-296.2"/>
<text text-anchor="start" x="263" y="-302.3" font-family="Helvetica,sans-Serif" font-size="11.00" fill="#000000">...</text>
<polygon fill="#ffffff" stroke="transparent" points="260,-277.2 260,-296.2 302,-296.2 302,-277.2 260,-277.2"/>
<polygon fill="none" stroke="#000000" points="260,-277.2 260,-296.2 302,-296.2 302,-277.2 260,-277.2"/>
<text text-anchor="start" x="263" y="-283.3" font-family="Helvetica,sans-Serif" font-size="11.00" fill="#000000">&lt; 1</text>
<polygon fill="#ffffff" stroke="transparent" points="302,-277.2 302,-296.2 362,-296.2 362,-277.2 302,-277.2"/>
<polygon fill="none" stroke="#000000" points="302,-277.2 302,-296.2 362,-296.2 362,-277.2 302,-277.2"/>
<text text-anchor="start" x="314.3807" y="-283.3" font-family="Helvetica,sans-Serif" font-size="11.00" fill="#000000">163 rows</text>
<polygon fill="#ffffff" stroke="transparent" points="362,-277.2 362,-296.2 400,-296.2 400,-277.2 362,-277.2"/>
<polygon fill="none" stroke="#000000" points="362,-277.2 362,-296.2 400,-296.2 400,-277.2 362,-277.2"/>
<text text-anchor="start" x="375.2904" y="-283.3" font-family="Helvetica,sans-Serif" font-size="11.00" fill="#000000">18 &gt;</text>
</a>
</g>
</g>
<!-- reference_data_domain -->
<g id="node2" class="node">
<title>reference_data_domain</title>
<g id="a_node2"><a xlink:href="../../tables/reference_data_domain.html" xlink:title="reference_data_domain" target="_top">
<polygon fill="#ffffff" stroke="transparent" points="8,-164.7 8,-225.7 204,-225.7 204,-164.7 8,-164.7"/>
<polygon fill="#f5f5f5" stroke="transparent" points="8,-202.2 8,-225.2 204,-225.2 204,-202.2 8,-202.2"/>
<polygon fill="none" stroke="#000000" points="8,-202.2 8,-225.2 204,-225.2 204,-202.2 8,-202.2"/>
<text text-anchor="start" x="13" y="-210.8" font-family="Helvetica,sans-Serif" font-weight="bold" font-size="11.00" fill="#000000">reference_data_domain</text>
<text text-anchor="start" x="169.5219" y="-210.3" font-family="Helvetica,sans-Serif" font-size="11.00" fill="#000000">[table]</text>
<polygon fill="none" stroke="#000000" points="8,-183.2 8,-202.2 204,-202.2 204,-183.2 8,-183.2"/>
<text text-anchor="start" x="11" y="-189.3" font-family="Helvetica,sans-Serif" font-size="11.00" fill="#000000">...</text>
<polygon fill="#ffffff" stroke="transparent" points="8,-164.2 8,-183.2 95,-183.2 95,-164.2 8,-164.2"/>
<polygon fill="none" stroke="#000000" points="8,-164.2 8,-183.2 95,-183.2 95,-164.2 8,-164.2"/>
<text text-anchor="start" x="11" y="-170.3" font-family="Helvetica,sans-Serif" font-size="11.00" fill="#000000"> &#160;</text>
<polygon fill="#ffffff" stroke="transparent" points="95,-164.2 95,-183.2 145,-183.2 145,-164.2 95,-164.2"/>
<polygon fill="none" stroke="#000000" points="95,-164.2 95,-183.2 145,-183.2 145,-164.2 95,-164.2"/>
<text text-anchor="start" x="135.8862" y="-170.3" font-family="Helvetica,sans-Serif" font-size="11.00" fill="#000000"> &#160;</text>
<polygon fill="#ffffff" stroke="transparent" points="145,-164.2 145,-183.2 204,-183.2 204,-164.2 145,-164.2"/>
<polygon fill="none" stroke="#000000" points="145,-164.2 145,-183.2 204,-183.2 204,-164.2 145,-164.2"/>
<text text-anchor="start" x="185.4053" y="-170.3" font-family="Helvetica,sans-Serif" font-size="11.00" fill="#000000">2 &gt;</text>
</a>
</g>
</g>
<!-- reference_data&#45;&gt;reference_data_domain -->
<g id="edge1" class="edge">
<title>reference_data:w&#45;&gt;reference_data_domain:e</title>
<path fill="none" stroke="#000000" d="M303.2904,-260.9504C281.2829,-228.8514 246.7863,-192.2 204,-192.2"/>
<polygon fill="#000000" stroke="#000000" points="307.0229,-266.6897 308.3665,-275.3589 309.2037,-270.0429 311.3844,-273.3962 311.3844,-273.3962 311.3844,-273.3962 309.2037,-270.0429 314.4024,-271.4335 307.0229,-266.6897 307.0229,-266.6897"/>
<ellipse fill="none" stroke="#000000" cx="305.2783" cy="-264.0071" rx="3.2" ry="3.2"/>
</g>
<!-- reference_data_domain_link -->
<g id="node3" class="node">
<title>reference_data_domain_link</title>
<g id="a_node3"><a xlink:href="../../tables/reference_data_domain_link.html" xlink:title="reference_data_domain_link" target="_top">
<polygon fill="#ffffff" stroke="transparent" points="476.5,-49.7 476.5,-110.7 703.5,-110.7 703.5,-49.7 476.5,-49.7"/>
<polygon fill="#f5f5f5" stroke="transparent" points="477,-87.2 477,-110.2 704,-110.2 704,-87.2 477,-87.2"/>
<polygon fill="none" stroke="#000000" points="477,-87.2 477,-110.2 704,-110.2 704,-87.2 477,-87.2"/>
<text text-anchor="start" x="482" y="-95.8" font-family="Helvetica,sans-Serif" font-weight="bold" font-size="11.00" fill="#000000">reference_data_domain_link</text>
<text text-anchor="start" x="669.5219" y="-95.3" font-family="Helvetica,sans-Serif" font-size="11.00" fill="#000000">[table]</text>
<polygon fill="none" stroke="#000000" points="477,-68.2 477,-87.2 704,-87.2 704,-68.2 477,-68.2"/>
<text text-anchor="start" x="480" y="-74.3" font-family="Helvetica,sans-Serif" font-size="11.00" fill="#000000">...</text>
<polygon fill="#ffffff" stroke="transparent" points="477,-49.2 477,-68.2 589,-68.2 589,-49.2 477,-49.2"/>
<polygon fill="none" stroke="#000000" points="477,-49.2 477,-68.2 589,-68.2 589,-49.2 477,-49.2"/>
<text text-anchor="start" x="480" y="-55.3" font-family="Helvetica,sans-Serif" font-size="11.00" fill="#000000">&lt; 2</text>
<polygon fill="#ffffff" stroke="transparent" points="589,-49.2 589,-68.2 646,-68.2 646,-49.2 589,-49.2"/>
<polygon fill="none" stroke="#000000" points="589,-49.2 589,-68.2 646,-68.2 646,-49.2 589,-49.2"/>
<text text-anchor="start" x="636.8862" y="-55.3" font-family="Helvetica,sans-Serif" font-size="11.00" fill="#000000"> &#160;</text>
<polygon fill="#ffffff" stroke="transparent" points="646,-49.2 646,-68.2 704,-68.2 704,-49.2 646,-49.2"/>
<polygon fill="none" stroke="#000000" points="646,-49.2 646,-68.2 704,-68.2 704,-49.2 646,-49.2"/>
<text text-anchor="start" x="694.8862" y="-55.3" font-family="Helvetica,sans-Serif" font-size="11.00" fill="#000000"> &#160;</text>
</a>
</g>
</g>
<!-- reference_data_domain_link&#45;&gt;reference_data -->
<g id="edge3" class="edge">
<title>reference_data_domain_link:w&#45;&gt;reference_data:e</title>
<path fill="none" stroke="#000000" d="M466.6137,-78.074C427.7652,-85.2303 440.6029,-134.9357 415,-175.2 393.7528,-208.6143 369.4101,-246.6818 352.2359,-273.5034"/>
<polygon fill="#000000" stroke="#000000" points="475.8674,-73.2812 476.5383,-81.253 474.9439,-81.3872 474.273,-73.4153 475.8674,-73.2812"/>
<polyline fill="none" stroke="#000000" points="477,-77.2 473.0141,-77.5354 "/>
<ellipse fill="none" stroke="#000000" cx="469.8254" cy="-77.8038" rx="3.2" ry="3.2"/>
</g>
<!-- reference_data_domain_link&#45;&gt;reference_data_domain -->
<g id="edge2" class="edge">
<title>reference_data_domain_link:w&#45;&gt;reference_data_domain:e</title>
<path fill="none" stroke="#000000" d="M462.4742,-77.6877C344.4265,-85.793 330.6448,-192.2 204,-192.2"/>
<polygon fill="#000000" stroke="#000000" points="469.0045,-77.4685 477.1208,-80.798 473.0023,-77.3343 477,-77.2 477,-77.2 477,-77.2 473.0023,-77.3343 476.8792,-73.602 469.0045,-77.4685 469.0045,-77.4685"/>
<ellipse fill="none" stroke="#000000" cx="465.8063" cy="-77.5759" rx="3.2" ry="3.2"/>
</g>
<!-- reference_data_link -->
<g id="node4" class="node">
<title>reference_data_link</title>
<g id="a_node4"><a xlink:href="../../tables/reference_data_link.html" xlink:title="reference_data_link" target="_top">
<polygon fill="#ffffff" stroke="transparent" points="504.5,-186.7 504.5,-247.7 675.5,-247.7 675.5,-186.7 504.5,-186.7"/>
<polygon fill="#f5f5f5" stroke="transparent" points="505,-224.2 505,-247.2 676,-247.2 676,-224.2 505,-224.2"/>
<polygon fill="none" stroke="#000000" points="505,-224.2 505,-247.2 676,-247.2 676,-224.2 505,-224.2"/>
<text text-anchor="start" x="510" y="-232.8" font-family="Helvetica,sans-Serif" font-weight="bold" font-size="11.00" fill="#000000">reference_data_link</text>
<text text-anchor="start" x="641.5219" y="-232.3" font-family="Helvetica,sans-Serif" font-size="11.00" fill="#000000">[table]</text>
<polygon fill="none" stroke="#000000" points="505,-205.2 505,-224.2 676,-224.2 676,-205.2 505,-205.2"/>
<text text-anchor="start" x="508" y="-211.3" font-family="Helvetica,sans-Serif" font-size="11.00" fill="#000000">...</text>
<polygon fill="#ffffff" stroke="transparent" points="505,-186.2 505,-205.2 573,-205.2 573,-186.2 505,-186.2"/>
<polygon fill="none" stroke="#000000" points="505,-186.2 505,-205.2 573,-205.2 573,-186.2 505,-186.2"/>
<text text-anchor="start" x="508" y="-192.3" font-family="Helvetica,sans-Serif" font-size="11.00" fill="#000000">&lt; 2</text>
<polygon fill="#ffffff" stroke="transparent" points="573,-186.2 573,-205.2 640,-205.2 640,-186.2 573,-186.2"/>
<polygon fill="none" stroke="#000000" points="573,-186.2 573,-205.2 640,-205.2 640,-186.2 573,-186.2"/>
<text text-anchor="start" x="598.4956" y="-192.3" font-family="Helvetica,sans-Serif" font-size="11.00" fill="#000000">69 rows</text>
<polygon fill="#ffffff" stroke="transparent" points="640,-186.2 640,-205.2 676,-205.2 676,-186.2 640,-186.2"/>
<polygon fill="none" stroke="#000000" points="640,-186.2 640,-205.2 676,-205.2 676,-186.2 640,-186.2"/>
<text text-anchor="start" x="666.8862" y="-192.3" font-family="Helvetica,sans-Serif" font-size="11.00" fill="#000000"> &#160;</text>
</a>
</g>
</g>
<!-- reference_data_link&#45;&gt;reference_data -->
<g id="edge4" class="edge">
<title>reference_data_link:w&#45;&gt;reference_data:e</title>
<path fill="none" stroke="#000000" d="M490.296,-214.0946C440.7917,-216.655 393.2916,-247.6493 363.0304,-273.4364"/>
<polygon fill="#000000" stroke="#000000" points="497.0002,-214.1426 504.9742,-217.7999 501.0001,-214.1713 505,-214.2 505,-214.2 505,-214.2 501.0001,-214.1713 505.0258,-210.6001 497.0002,-214.1426 497.0002,-214.1426"/>
<ellipse fill="none" stroke="#000000" cx="493.8003" cy="-214.1197" rx="3.2" ry="3.2"/>
</g>
<!-- reference_data_link&#45;&gt;reference_data -->
<g id="edge5" class="edge">
<title>reference_data_link:w&#45;&gt;reference_data:e</title>
<path fill="none" stroke="#000000" d="M490.4971,-216.1067C446.9263,-224.0316 404.8918,-250.8162 374.7771,-273.5314"/>
<polygon fill="#000000" stroke="#000000" points="497.0683,-215.2428 505.4693,-217.7693 501.0341,-214.7214 505,-214.2 505,-214.2 505,-214.2 501.0341,-214.7214 504.5307,-210.6307 497.0683,-215.2428 497.0683,-215.2428"/>
<ellipse fill="none" stroke="#000000" cx="493.8956" cy="-215.6599" rx="3.2" ry="3.2"/>
</g>
<!-- temporary_absence_authorisation -->
<g id="node5" class="node">
<title>temporary_absence_authorisation</title>
<g id="a_node5"><a xlink:href="../../tables/temporary_absence_authorisation.html" xlink:title="temporary_absence_authorisation" target="_top">
<polygon fill="#ffffff" stroke="transparent" points="456,-368.7 456,-429.7 724,-429.7 724,-368.7 456,-368.7"/>
<polygon fill="#f5f5f5" stroke="transparent" points="456,-406.2 456,-429.2 724,-429.2 724,-406.2 456,-406.2"/>
<polygon fill="none" stroke="#000000" points="456,-406.2 456,-429.2 724,-429.2 724,-406.2 456,-406.2"/>
<text text-anchor="start" x="461" y="-414.8" font-family="Helvetica,sans-Serif" font-weight="bold" font-size="11.00" fill="#000000">temporary_absence_authorisation</text>
<text text-anchor="start" x="689.5219" y="-414.3" font-family="Helvetica,sans-Serif" font-size="11.00" fill="#000000">[table]</text>
<polygon fill="none" stroke="#000000" points="456,-387.2 456,-406.2 724,-406.2 724,-387.2 456,-387.2"/>
<text text-anchor="start" x="459" y="-393.3" font-family="Helvetica,sans-Serif" font-size="11.00" fill="#000000">...</text>
<polygon fill="#ffffff" stroke="transparent" points="456,-368.2 456,-387.2 584,-387.2 584,-368.2 456,-368.2"/>
<polygon fill="none" stroke="#000000" points="456,-368.2 456,-387.2 584,-387.2 584,-368.2 456,-368.2"/>
<text text-anchor="start" x="459" y="-374.3" font-family="Helvetica,sans-Serif" font-size="11.00" fill="#000000">&lt; 7</text>
<polygon fill="#ffffff" stroke="transparent" points="584,-368.2 584,-387.2 649,-387.2 649,-368.2 584,-368.2"/>
<polygon fill="none" stroke="#000000" points="584,-368.2 584,-387.2 649,-387.2 649,-368.2 584,-368.2"/>
<text text-anchor="start" x="639.8862" y="-374.3" font-family="Helvetica,sans-Serif" font-size="11.00" fill="#000000"> &#160;</text>
<polygon fill="#ffffff" stroke="transparent" points="649,-368.2 649,-387.2 724,-387.2 724,-368.2 649,-368.2"/>
<polygon fill="none" stroke="#000000" points="649,-368.2 649,-387.2 724,-387.2 724,-368.2 649,-368.2"/>
<text text-anchor="start" x="705.4053" y="-374.3" font-family="Helvetica,sans-Serif" font-size="11.00" fill="#000000">1 &gt;</text>
</a>
</g>
</g>
<!-- temporary_absence_authorisation&#45;&gt;reference_data -->
<g id="edge6" class="edge">
<title>temporary_absence_authorisation:w&#45;&gt;reference_data:e</title>
<path fill="none" stroke="#000000" d="M449.0612,-383.1837C440.3861,-371.1267 425.0632,-356.2027 408.238,-342.4121"/>
<polygon fill="#000000" stroke="#000000" points="452.2366,-389.1405 452.8232,-397.8935 454.1183,-392.6702 456,-396.2 456,-396.2 456,-396.2 454.1183,-392.6702 459.1768,-394.5065 452.2366,-389.1405 452.2366,-389.1405"/>
<ellipse fill="none" stroke="#000000" cx="450.7312" cy="-386.3166" rx="3.2" ry="3.2"/>
</g>
<!-- temporary_absence_authorisation&#45;&gt;reference_data -->
<g id="edge7" class="edge">
<title>temporary_absence_authorisation:w&#45;&gt;reference_data:e</title>
<path fill="none" stroke="#000000" d="M446.8966,-384.9147C435.7656,-373.6403 416.3918,-357.6187 396.5803,-342.9179"/>
<polygon fill="#000000" stroke="#000000" points="450.9772,-389.9733 453.198,-398.4603 453.4886,-393.0867 456,-396.2 456,-396.2 456,-396.2 453.4886,-393.0867 458.802,-393.9397 450.9772,-389.9733 450.9772,-389.9733"/>
<ellipse fill="none" stroke="#000000" cx="448.9681" cy="-387.4826" rx="3.2" ry="3.2"/>
</g>
<!-- temporary_absence_authorisation&#45;&gt;reference_data -->
<g id="edge8" class="edge">
<title>temporary_absence_authorisation:w&#45;&gt;reference_data:e</title>
<path fill="none" stroke="#000000" d="M444.0489,-387.4374C429.8104,-376.9338 405.5473,-359.0107 383.0513,-342.8353"/>
<polygon fill="#000000" stroke="#000000" points="449.5484,-391.4696 453.8713,-399.1032 452.7742,-393.8348 456,-396.2 456,-396.2 456,-396.2 452.7742,-393.8348 458.1287,-393.2968 449.5484,-391.4696 449.5484,-391.4696"/>
<ellipse fill="none" stroke="#000000" cx="446.9677" cy="-389.5774" rx="3.2" ry="3.2"/>
</g>
<!-- temporary_absence_authorisation&#45;&gt;reference_data -->
<g id="edge9" class="edge">
<title>temporary_absence_authorisation:w&#45;&gt;reference_data:e</title>
<path fill="none" stroke="#000000" d="M442.2312,-391.8303C424.8155,-382.5878 394.6253,-361.4861 369.9412,-342.7373"/>
<polygon fill="#000000" stroke="#000000" points="448.3748,-393.78 454.911,-399.6313 452.1874,-394.99 456,-396.2 456,-396.2 456,-396.2 452.1874,-394.99 457.089,-392.7687 448.3748,-393.78 448.3748,-393.78"/>
<ellipse fill="none" stroke="#000000" cx="445.3247" cy="-392.812" rx="3.2" ry="3.2"/>
</g>
<!-- temporary_absence_authorisation&#45;&gt;reference_data -->
<g id="edge10" class="edge">
<title>temporary_absence_authorisation:w&#45;&gt;reference_data:e</title>
<path fill="none" stroke="#000000" d="M441.4717,-397.3121C421.2164,-390.426 384.7226,-365.2612 359.0201,-342.8319"/>
<polygon fill="#000000" stroke="#000000" points="448.0233,-396.8107 456.2748,-399.7895 452.0117,-396.5053 456,-396.2 456,-396.2 456,-396.2 452.0117,-396.5053 455.7252,-392.6105 448.0233,-396.8107 448.0233,-396.8107"/>
<ellipse fill="none" stroke="#000000" cx="444.8327" cy="-397.0549" rx="3.2" ry="3.2"/>
</g>
<!-- temporary_absence_authorisation&#45;&gt;reference_data -->
<g id="edge12" class="edge">
<title>temporary_absence_authorisation:w&#45;&gt;reference_data:e</title>
<path fill="none" stroke="#000000" d="M443.4017,-403.4107C421.4048,-401.7622 376.8582,-370.9838 350.6203,-342.8402"/>
<polygon fill="#000000" stroke="#000000" points="449.0568,-400.174 457.7883,-399.3244 452.5284,-398.187 456,-396.2 456,-396.2 456,-396.2 452.5284,-398.187 454.2117,-393.0756 449.0568,-400.174 449.0568,-400.174"/>
<ellipse fill="none" stroke="#000000" cx="446.2795" cy="-401.7636" rx="3.2" ry="3.2"/>
</g>
<!-- person_summary -->
<g id="node6" class="node">
<title>person_summary</title>
<g id="a_node6"><a xlink:href="../../tables/person_summary.html" xlink:title="person_summary" target="_top">
<polygon fill="#ffffff" stroke="transparent" points="253,-382.7 253,-465.7 407,-465.7 407,-382.7 253,-382.7"/>
<polygon fill="#f5f5f5" stroke="transparent" points="253,-442.2 253,-465.2 407,-465.2 407,-442.2 253,-442.2"/>
<polygon fill="none" stroke="#000000" points="253,-442.2 253,-465.2 407,-465.2 407,-442.2 253,-442.2"/>
<text text-anchor="start" x="258" y="-450.8" font-family="Helvetica,sans-Serif" font-weight="bold" font-size="11.00" fill="#000000">person_summary</text>
<text text-anchor="start" x="372.5219" y="-450.3" font-family="Helvetica,sans-Serif" font-size="11.00" fill="#000000">[table]</text>
<polygon fill="none" stroke="#000000" points="253,-420.2 253,-442.2 407,-442.2 407,-420.2 253,-420.2"/>
<image xlink:href="../../images/primaryKeys.png" width="11px" height="12px" preserveAspectRatio="xMinYMin meet" x="258" y="-437.2"/>
<text text-anchor="start" x="282" y="-427.3" font-family="Helvetica,sans-Serif" font-size="11.00" fill="#000000">person_identifier</text>
<polygon fill="none" stroke="#000000" points="253,-401.2 253,-420.2 407,-420.2 407,-401.2 253,-401.2"/>
<text text-anchor="start" x="256" y="-407.3" font-family="Helvetica,sans-Serif" font-size="11.00" fill="#000000">...</text>
<polygon fill="#ffffff" stroke="transparent" points="253,-382.2 253,-401.2 319,-401.2 319,-382.2 253,-382.2"/>
<polygon fill="none" stroke="#000000" points="253,-382.2 253,-401.2 319,-401.2 319,-382.2 253,-382.2"/>
<text text-anchor="start" x="256" y="-388.3" font-family="Helvetica,sans-Serif" font-size="11.00" fill="#000000"> &#160;</text>
<polygon fill="#ffffff" stroke="transparent" points="319,-382.2 319,-401.2 358,-401.2 358,-382.2 319,-382.2"/>
<polygon fill="none" stroke="#000000" points="319,-382.2 319,-401.2 358,-401.2 358,-382.2 319,-382.2"/>
<text text-anchor="start" x="348.8862" y="-388.3" font-family="Helvetica,sans-Serif" font-size="11.00" fill="#000000"> &#160;</text>
<polygon fill="#ffffff" stroke="transparent" points="358,-382.2 358,-401.2 407,-401.2 407,-382.2 358,-382.2"/>
<polygon fill="none" stroke="#000000" points="358,-382.2 358,-401.2 407,-401.2 407,-382.2 358,-382.2"/>
<text text-anchor="start" x="388.4053" y="-388.3" font-family="Helvetica,sans-Serif" font-size="11.00" fill="#000000">2 &gt;</text>
</a>
</g>
</g>
<!-- temporary_absence_authorisation&#45;&gt;person_summary -->
<g id="edge11" class="edge">
<title>temporary_absence_authorisation:w&#45;&gt;person_summary:e</title>
<path fill="none" stroke="#000000" d="M441.9001,-400.7756C429.6818,-410.2628 427.6993,-431.2 407,-431.2"/>
<polygon fill="#000000" stroke="#000000" points="448.3906,-398.6694 457.1112,-399.6242 452.1953,-397.4347 456,-396.2 456,-396.2 456,-396.2 452.1953,-397.4347 454.8888,-392.7758 448.3906,-398.6694 448.3906,-398.6694"/>
<ellipse fill="none" stroke="#000000" cx="445.3469" cy="-399.6571" rx="3.2" ry="3.2"/>
</g>
<!-- temporary_absence_movement -->
<g id="node7" class="node">
<title>temporary_absence_movement</title>
<g id="a_node7"><a xlink:href="../../tables/temporary_absence_movement.html" xlink:title="temporary_absence_movement" target="_top">
<polygon fill="#ffffff" stroke="transparent" points="1074,-38.2 1074,-370.2 1408,-370.2 1408,-38.2 1074,-38.2"/>
<polygon fill="#f5f5f5" stroke="transparent" points="1076,-345.2 1076,-368.2 1406,-368.2 1406,-345.2 1076,-345.2"/>
<polygon fill="none" stroke="#000000" points="1076,-345.2 1076,-368.2 1406,-368.2 1406,-345.2 1076,-345.2"/>
<text text-anchor="start" x="1081" y="-353.8" font-family="Helvetica,sans-Serif" font-weight="bold" font-size="11.00" fill="#000000">temporary_absence_movement</text>
<text text-anchor="start" x="1371.0437" y="-353.3" font-family="Helvetica,sans-Serif" font-size="11.00" fill="#000000">[table]</text>
<polygon fill="none" stroke="#000000" points="1076,-323.2 1076,-345.2 1307,-345.2 1307,-323.2 1076,-323.2"/>
<image xlink:href="../../images/primaryKeys.png" width="11px" height="12px" preserveAspectRatio="xMinYMin meet" x="1081" y="-340.2"/>
<text text-anchor="start" x="1096" y="-330.3" font-family="Helvetica,sans-Serif" font-size="11.00" fill="#000000">id</text>
<polygon fill="none" stroke="#000000" points="1307,-323.2 1307,-345.2 1406,-345.2 1406,-323.2 1307,-323.2"/>
<text text-anchor="start" x="1310" y="-330.9" font-family="Helvetica,sans-Serif" font-size="11.00" fill="#000000">uuid[2147483647]</text>
<polygon fill="none" stroke="#000000" points="1076,-301.2 1076,-323.2 1307,-323.2 1307,-301.2 1076,-301.2"/>
<text text-anchor="start" x="1096" y="-308.3" font-family="Helvetica,sans-Serif" font-size="11.00" fill="#000000">version</text>
<polygon fill="none" stroke="#000000" points="1307,-301.2 1307,-323.2 1406,-323.2 1406,-301.2 1307,-301.2"/>
<text text-anchor="start" x="1310" y="-308.9" font-family="Helvetica,sans-Serif" font-size="11.00" fill="#000000">int4[10]</text>
<polygon fill="#ffffff" stroke="transparent" points="1076,-279.2 1076,-301.2 1307,-301.2 1307,-279.2 1076,-279.2"/>
<polygon fill="none" stroke="#000000" points="1076,-279.2 1076,-301.2 1307,-301.2 1307,-279.2 1076,-279.2"/>
<image xlink:href="../../images/foreignKeys.png" width="11px" height="12px" preserveAspectRatio="xMinYMin meet" x="1081" y="-296.2"/>
<text text-anchor="start" x="1096" y="-286.3" font-family="Helvetica,sans-Serif" font-size="11.00" fill="#000000">person_identifier</text>
<polygon fill="none" stroke="#000000" points="1307,-279.2 1307,-301.2 1406,-301.2 1406,-279.2 1307,-279.2"/>
<text text-anchor="start" x="1310" y="-286.9" font-family="Helvetica,sans-Serif" font-size="11.00" fill="#000000">varchar[10]</text>
<polygon fill="#ffffff" stroke="transparent" points="1076,-257.2 1076,-279.2 1307,-279.2 1307,-257.2 1076,-257.2"/>
<polygon fill="none" stroke="#000000" points="1076,-257.2 1076,-279.2 1307,-279.2 1307,-257.2 1076,-257.2"/>
<image xlink:href="../../images/foreignKeys.png" width="11px" height="12px" preserveAspectRatio="xMinYMin meet" x="1081" y="-274.2"/>
<text text-anchor="start" x="1096" y="-264.3" font-family="Helvetica,sans-Serif" font-size="11.00" fill="#000000">occurrence_id</text>
<polygon fill="none" stroke="#000000" points="1307,-257.2 1307,-279.2 1406,-279.2 1406,-257.2 1307,-257.2"/>
<text text-anchor="start" x="1310" y="-264.9" font-family="Helvetica,sans-Serif" font-size="11.00" fill="#000000">uuid[2147483647]</text>
<polygon fill="#ffffff" stroke="transparent" points="1076,-235.2 1076,-257.2 1307,-257.2 1307,-235.2 1076,-235.2"/>
<polygon fill="none" stroke="#000000" points="1076,-235.2 1076,-257.2 1307,-257.2 1307,-235.2 1076,-235.2"/>
<text text-anchor="start" x="1096" y="-242.3" font-family="Helvetica,sans-Serif" font-size="11.00" fill="#000000">occurred_at</text>
<polygon fill="none" stroke="#000000" points="1307,-235.2 1307,-257.2 1406,-257.2 1406,-235.2 1307,-235.2"/>
<text text-anchor="start" x="1310" y="-242.9" font-family="Helvetica,sans-Serif" font-size="11.00" fill="#000000">timestamp[29,6]</text>
<polygon fill="none" stroke="#000000" points="1076,-213.2 1076,-235.2 1307,-235.2 1307,-213.2 1076,-213.2"/>
<text text-anchor="start" x="1096" y="-220.3" font-family="Helvetica,sans-Serif" font-size="11.00" fill="#000000">direction</text>
<polygon fill="none" stroke="#000000" points="1307,-213.2 1307,-235.2 1406,-235.2 1406,-213.2 1307,-213.2"/>
<text text-anchor="start" x="1310" y="-220.9" font-family="Helvetica,sans-Serif" font-size="11.00" fill="#000000">varchar[3]</text>
<polygon fill="none" stroke="#000000" points="1076,-191.2 1076,-213.2 1307,-213.2 1307,-191.2 1076,-191.2"/>
<image xlink:href="../../images/foreignKeys.png" width="11px" height="12px" preserveAspectRatio="xMinYMin meet" x="1081" y="-208.2"/>
<text text-anchor="start" x="1096" y="-198.3" font-family="Helvetica,sans-Serif" font-size="11.00" fill="#000000">absence_reason_id</text>
<polygon fill="none" stroke="#000000" points="1307,-191.2 1307,-213.2 1406,-213.2 1406,-191.2 1307,-191.2"/>
<text text-anchor="start" x="1310" y="-198.9" font-family="Helvetica,sans-Serif" font-size="11.00" fill="#000000">int8[19]</text>
<polygon fill="none" stroke="#000000" points="1076,-169.2 1076,-191.2 1307,-191.2 1307,-169.2 1076,-169.2"/>
<image xlink:href="../../images/foreignKeys.png" width="11px" height="12px" preserveAspectRatio="xMinYMin meet" x="1081" y="-186.2"/>
<text text-anchor="start" x="1096" y="-176.3" font-family="Helvetica,sans-Serif" font-size="11.00" fill="#000000">accompanied_by_id</text>
<polygon fill="none" stroke="#000000" points="1307,-169.2 1307,-191.2 1406,-191.2 1406,-169.2 1307,-169.2"/>
<text text-anchor="start" x="1310" y="-176.9" font-family="Helvetica,sans-Serif" font-size="11.00" fill="#000000">int8[19]</text>
<polygon fill="none" stroke="#000000" points="1076,-147.2 1076,-169.2 1307,-169.2 1307,-147.2 1076,-147.2"/>
<text text-anchor="start" x="1096" y="-154.3" font-family="Helvetica,sans-Serif" font-size="11.00" fill="#000000">accompanied_by_comments</text>
<polygon fill="none" stroke="#000000" points="1307,-147.2 1307,-169.2 1406,-169.2 1406,-147.2 1307,-147.2"/>
<text text-anchor="start" x="1310" y="-154.9" font-family="Helvetica,sans-Serif" font-size="11.00" fill="#000000">text[2147483647]</text>
<polygon fill="none" stroke="#000000" points="1076,-125.2 1076,-147.2 1307,-147.2 1307,-125.2 1076,-125.2"/>
<text text-anchor="start" x="1096" y="-132.3" font-family="Helvetica,sans-Serif" font-size="11.00" fill="#000000">comments</text>
<polygon fill="none" stroke="#000000" points="1307,-125.2 1307,-147.2 1406,-147.2 1406,-125.2 1307,-125.2"/>
<text text-anchor="start" x="1310" y="-132.9" font-family="Helvetica,sans-Serif" font-size="11.00" fill="#000000">text[2147483647]</text>
<polygon fill="none" stroke="#000000" points="1076,-103.2 1076,-125.2 1307,-125.2 1307,-103.2 1076,-103.2"/>
<text text-anchor="start" x="1096" y="-110.3" font-family="Helvetica,sans-Serif" font-size="11.00" fill="#000000">recorded_by_prison_code</text>
<polygon fill="none" stroke="#000000" points="1307,-103.2 1307,-125.2 1406,-125.2 1406,-103.2 1307,-103.2"/>
<text text-anchor="start" x="1310" y="-110.9" font-family="Helvetica,sans-Serif" font-size="11.00" fill="#000000">varchar[6]</text>
<polygon fill="#ffffff" stroke="transparent" points="1076,-81.2 1076,-103.2 1307,-103.2 1307,-81.2 1076,-81.2"/>
<polygon fill="none" stroke="#000000" points="1076,-81.2 1076,-103.2 1307,-103.2 1307,-81.2 1076,-81.2"/>
<text text-anchor="start" x="1096" y="-88.3" font-family="Helvetica,sans-Serif" font-size="11.00" fill="#000000">legacy_id</text>
<polygon fill="none" stroke="#000000" points="1307,-81.2 1307,-103.2 1406,-103.2 1406,-81.2 1307,-81.2"/>
<text text-anchor="start" x="1310" y="-88.9" font-family="Helvetica,sans-Serif" font-size="11.00" fill="#000000">varchar[32]</text>
<polygon fill="none" stroke="#000000" points="1076,-59.2 1076,-81.2 1307,-81.2 1307,-59.2 1076,-59.2"/>
<text text-anchor="start" x="1096" y="-66.3" font-family="Helvetica,sans-Serif" font-size="11.00" fill="#000000">location</text>
<polygon fill="none" stroke="#000000" points="1307,-59.2 1307,-81.2 1406,-81.2 1406,-59.2 1307,-59.2"/>
<text text-anchor="start" x="1309.7258" y="-66.9" font-family="Helvetica,sans-Serif" font-size="11.00" fill="#000000">jsonb[2147483647]</text>
<polygon fill="#ffffff" stroke="transparent" points="1076,-40.2 1076,-59.2 1196,-59.2 1196,-40.2 1076,-40.2"/>
<polygon fill="none" stroke="#000000" points="1076,-40.2 1076,-59.2 1196,-59.2 1196,-40.2 1076,-40.2"/>
<text text-anchor="start" x="1079" y="-46.3" font-family="Helvetica,sans-Serif" font-size="11.00" fill="#000000">&lt; 4</text>
<polygon fill="#ffffff" stroke="transparent" points="1196,-40.2 1196,-59.2 1307,-59.2 1307,-40.2 1196,-40.2"/>
<polygon fill="none" stroke="#000000" points="1196,-40.2 1196,-59.2 1307,-59.2 1307,-40.2 1196,-40.2"/>
<text text-anchor="start" x="1297.8862" y="-46.3" font-family="Helvetica,sans-Serif" font-size="11.00" fill="#000000"> &#160;</text>
<polygon fill="#ffffff" stroke="transparent" points="1307,-40.2 1307,-59.2 1406,-59.2 1406,-40.2 1307,-40.2"/>
<polygon fill="none" stroke="#000000" points="1307,-40.2 1307,-59.2 1406,-59.2 1406,-40.2 1307,-40.2"/>
<text text-anchor="start" x="1387.4053" y="-46.3" font-family="Helvetica,sans-Serif" font-size="11.00" fill="#000000">0 &gt;</text>
<polygon fill="none" stroke="#000000" stroke-width="2" points="1075,-39.2 1075,-369.2 1407,-369.2 1407,-39.2 1075,-39.2"/>
</a>
</g>
</g>
<!-- temporary_absence_movement&#45;&gt;reference_data -->
<g id="edge13" class="edge">
<title>temporary_absence_movement:w&#45;&gt;reference_data:e</title>
<path fill="none" stroke="#000000" d="M1061.3723,-201.9335C912.6209,-196.8401 571.2643,-121.0545 448,-176.2 403.6675,-196.0333 369.1093,-241.6664 349.1474,-273.6977"/>
<polygon fill="#000000" stroke="#000000" points="1068.0013,-202.0542 1075.9344,-205.7994 1072.0007,-202.1271 1076,-202.2 1076,-202.2 1076,-202.2 1072.0007,-202.1271 1076.0656,-198.6006 1068.0013,-202.0542 1068.0013,-202.0542"/>
<ellipse fill="none" stroke="#000000" cx="1064.8019" cy="-201.9959" rx="3.2" ry="3.2"/>
</g>
<!-- temporary_absence_movement&#45;&gt;reference_data -->
<g id="edge14" class="edge">
<title>temporary_absence_movement:w&#45;&gt;reference_data:e</title>
<path fill="none" stroke="#000000" d="M1061.708,-177.8961C1052.5789,-174.615 1046.9061,-168.7155 1033,-166.2 905.0446,-143.0535 564.5125,-95.4662 448,-153.2 397.6954,-178.1267 363.014,-235.8997 344.8461,-273.4404"/>
<polygon fill="#000000" stroke="#000000" points="1068.102,-178.9268 1075.427,-183.7541 1072.051,-179.5634 1076,-180.2 1076,-180.2 1076,-180.2 1072.051,-179.5634 1076.573,-176.6459 1068.102,-178.9268 1068.102,-178.9268"/>
<ellipse fill="none" stroke="#000000" cx="1064.9427" cy="-178.4175" rx="3.2" ry="3.2"/>
</g>
<!-- temporary_absence_movement&#45;&gt;person_summary -->
<g id="edge16" class="edge">
<title>temporary_absence_movement:w&#45;&gt;person_summary:e</title>
<path fill="none" stroke="#000000" d="M1061.8456,-294.3433C1048.15,-305.0926 1054.2915,-334.0867 1033,-349.2 919.0346,-430.0958 870.2547,-419.7579 732,-440.2 607.1353,-458.6623 573.4862,-453.8108 448,-440.2 429.4527,-438.1883 425.6561,-431.2 407,-431.2"/>
<polygon fill="#000000" stroke="#000000" points="1068.3222,-292.4475 1077.0114,-293.655 1072.1611,-291.3237 1076,-290.2 1076,-290.2 1076,-290.2 1072.1611,-291.3237 1074.9886,-286.745 1068.3222,-292.4475 1068.3222,-292.4475"/>
<ellipse fill="none" stroke="#000000" cx="1065.251" cy="-293.3465" rx="3.2" ry="3.2"/>
</g>
<!-- temporary_absence_occurrence -->
<g id="node8" class="node">
<title>temporary_absence_occurrence</title>
<g id="a_node8"><a xlink:href="../../tables/temporary_absence_occurrence.html" xlink:title="temporary_absence_occurrence" target="_top">
<polygon fill="#ffffff" stroke="transparent" points="773,-277.7 773,-338.7 1025,-338.7 1025,-277.7 773,-277.7"/>
<polygon fill="#f5f5f5" stroke="transparent" points="773,-315.2 773,-338.2 1025,-338.2 1025,-315.2 773,-315.2"/>
<polygon fill="none" stroke="#000000" points="773,-315.2 773,-338.2 1025,-338.2 1025,-315.2 773,-315.2"/>
<text text-anchor="start" x="778" y="-323.8" font-family="Helvetica,sans-Serif" font-weight="bold" font-size="11.00" fill="#000000">temporary_absence_occurrence</text>
<text text-anchor="start" x="990.5219" y="-323.3" font-family="Helvetica,sans-Serif" font-size="11.00" fill="#000000">[table]</text>
<polygon fill="none" stroke="#000000" points="773,-296.2 773,-315.2 1025,-315.2 1025,-296.2 773,-296.2"/>
<text text-anchor="start" x="776" y="-302.3" font-family="Helvetica,sans-Serif" font-size="11.00" fill="#000000">...</text>
<polygon fill="#ffffff" stroke="transparent" points="773,-277.2 773,-296.2 893,-296.2 893,-277.2 773,-277.2"/>
<polygon fill="none" stroke="#000000" points="773,-277.2 773,-296.2 893,-296.2 893,-277.2 773,-277.2"/>
<text text-anchor="start" x="776" y="-283.3" font-family="Helvetica,sans-Serif" font-size="11.00" fill="#000000">&lt; 8</text>
<polygon fill="#ffffff" stroke="transparent" points="893,-277.2 893,-296.2 954,-296.2 954,-277.2 893,-277.2"/>
<polygon fill="none" stroke="#000000" points="893,-277.2 893,-296.2 954,-296.2 954,-277.2 893,-277.2"/>
<text text-anchor="start" x="944.8862" y="-283.3" font-family="Helvetica,sans-Serif" font-size="11.00" fill="#000000"> &#160;</text>
<polygon fill="#ffffff" stroke="transparent" points="954,-277.2 954,-296.2 1025,-296.2 1025,-277.2 954,-277.2"/>
<polygon fill="none" stroke="#000000" points="954,-277.2 954,-296.2 1025,-296.2 1025,-277.2 954,-277.2"/>
<text text-anchor="start" x="1006.4053" y="-283.3" font-family="Helvetica,sans-Serif" font-size="11.00" fill="#000000">1 &gt;</text>
</a>
</g>
</g>
<!-- temporary_absence_movement&#45;&gt;temporary_absence_occurrence -->
<g id="edge15" class="edge">
<title>temporary_absence_movement:w&#45;&gt;temporary_absence_occurrence:e</title>
<path fill="none" stroke="#000000" d="M1061.357,-268.6137C1047.1896,-269.391 1032.7548,-271.216 1018.6278,-273.678"/>
<polygon fill="#000000" stroke="#000000" points="1068.0032,-268.426 1076.1017,-271.7986 1072.0016,-268.313 1076,-268.2 1076,-268.2 1076,-268.2 1072.0016,-268.313 1075.8983,-264.6014 1068.0032,-268.426 1068.0032,-268.426"/>
<ellipse fill="none" stroke="#000000" cx="1064.8045" cy="-268.5163" rx="3.2" ry="3.2"/>
</g>
<!-- temporary_absence_occurrence&#45;&gt;reference_data -->
<g id="edge17" class="edge">
<title>temporary_absence_occurrence:w&#45;&gt;reference_data:e</title>
<path fill="none" stroke="#000000" d="M750.3308,-282.1412C640.7078,-276.5697 495.9281,-278.2936 408.0611,-287.3129"/>
<polygon fill="#000000" stroke="#000000" points="756.8874,-282.4993 764.6791,-286.5304 760.8814,-282.7175 764.8755,-282.9357 764.8755,-282.9357 764.8755,-282.9357 760.8814,-282.7175 765.0719,-279.3411 756.8874,-282.4993 756.8874,-282.4993"/>
<ellipse fill="none" stroke="#000000" cx="753.6921" cy="-282.3247" rx="3.2" ry="3.2"/>
</g>
<!-- temporary_absence_occurrence&#45;&gt;reference_data -->
<g id="edge18" class="edge">
<title>temporary_absence_occurrence:w&#45;&gt;reference_data:e</title>
<path fill="none" stroke="#000000" d="M750.3308,-290.8275C640.7078,-287.1132 495.9281,-288.2624 408.0611,-294.2753"/>
<polygon fill="#000000" stroke="#000000" points="756.8808,-291.0659 764.7444,-294.9548 760.8781,-291.2116 764.8755,-291.3572 764.8755,-291.3572 764.8755,-291.3572 760.8781,-291.2116 765.0065,-287.7595 756.8808,-291.0659 756.8808,-291.0659"/>
<ellipse fill="none" stroke="#000000" cx="753.6829" cy="-290.9495" rx="3.2" ry="3.2"/>
</g>
<!-- temporary_absence_occurrence&#45;&gt;reference_data -->
<g id="edge19" class="edge">
<title>temporary_absence_occurrence:w&#45;&gt;reference_data:e</title>
<path fill="none" stroke="#000000" d="M750.3308,-299.5137C640.7078,-297.6566 495.9281,-298.2312 408.0611,-301.2376"/>
<polygon fill="#000000" stroke="#000000" points="756.8768,-299.6329 764.8099,-303.378 760.8761,-299.7057 764.8755,-299.7786 764.8755,-299.7786 764.8755,-299.7786 760.8761,-299.7057 764.941,-296.1792 756.8768,-299.6329 756.8768,-299.6329"/>
<ellipse fill="none" stroke="#000000" cx="753.6773" cy="-299.5746" rx="3.2" ry="3.2"/>
</g>
<!-- temporary_absence_occurrence&#45;&gt;reference_data -->
<g id="edge20" class="edge">
<title>temporary_absence_occurrence:w&#45;&gt;reference_data:e</title>
<path fill="none" stroke="#000000" d="M750.3308,-308.2C640.7078,-308.2 495.9281,-308.2 408.0611,-308.2"/>
<polygon fill="#000000" stroke="#000000" points="756.8755,-308.2001 764.8755,-311.8 760.8755,-308.2 764.8755,-308.2 764.8755,-308.2 764.8755,-308.2 760.8755,-308.2 764.8754,-304.6 756.8755,-308.2001 756.8755,-308.2001"/>
<ellipse fill="none" stroke="#000000" cx="753.6755" cy="-308.2001" rx="3.2" ry="3.2"/>
</g>
<!-- temporary_absence_occurrence&#45;&gt;reference_data -->
<g id="edge21" class="edge">
<title>temporary_absence_occurrence:w&#45;&gt;reference_data:e</title>
<path fill="none" stroke="#000000" d="M750.3308,-316.8863C640.7078,-318.7434 495.9281,-318.1688 408.0611,-315.1624"/>
<polygon fill="#000000" stroke="#000000" points="756.8768,-316.7671 764.941,-320.2208 760.8761,-316.6943 764.8755,-316.6214 764.8755,-316.6214 764.8755,-316.6214 760.8761,-316.6943 764.8099,-313.022 756.8768,-316.7671 756.8768,-316.7671"/>
<ellipse fill="none" stroke="#000000" cx="753.6773" cy="-316.8254" rx="3.2" ry="3.2"/>
</g>
<!-- temporary_absence_occurrence&#45;&gt;reference_data -->
<g id="edge23" class="edge">
<title>temporary_absence_occurrence:w&#45;&gt;reference_data:e</title>
<path fill="none" stroke="#000000" d="M750.3308,-325.5725C640.7078,-329.2868 495.9281,-328.1376 408.0611,-322.1247"/>
<polygon fill="#000000" stroke="#000000" points="756.8808,-325.3341 765.0065,-328.6405 760.8781,-325.1884 764.8755,-325.0428 764.8755,-325.0428 764.8755,-325.0428 760.8781,-325.1884 764.7444,-321.4452 756.8808,-325.3341 756.8808,-325.3341"/>
<ellipse fill="none" stroke="#000000" cx="753.6829" cy="-325.4505" rx="3.2" ry="3.2"/>
</g>
<!-- temporary_absence_occurrence&#45;&gt;reference_data -->
<g id="edge24" class="edge">
<title>temporary_absence_occurrence:w&#45;&gt;reference_data:e</title>
<path fill="none" stroke="#000000" d="M750.3308,-334.2588C640.7078,-339.8303 495.9281,-338.1064 408.0611,-329.0871"/>
<polygon fill="#000000" stroke="#000000" points="756.8874,-333.9007 765.0719,-337.0589 760.8814,-333.6825 764.8755,-333.4643 764.8755,-333.4643 764.8755,-333.4643 760.8814,-333.6825 764.6791,-329.8696 756.8874,-333.9007 756.8874,-333.9007"/>
<ellipse fill="none" stroke="#000000" cx="753.6921" cy="-334.0753" rx="3.2" ry="3.2"/>
</g>
<!-- temporary_absence_occurrence&#45;&gt;temporary_absence_authorisation -->
<g id="edge22" class="edge">
<title>temporary_absence_occurrence:w&#45;&gt;temporary_absence_authorisation:e</title>
<path fill="none" stroke="#000000" d="M845.6064,-351.2182C812.5807,-373.5405 768.1765,-396.2 724,-396.2"/>
<polygon fill="#000000" stroke="#000000" points="851.1382,-347.3287 859.7531,-345.6723 854.4103,-345.028 857.6825,-342.7274 857.6825,-342.7274 857.6825,-342.7274 854.4103,-345.028 855.6118,-339.7824 851.1382,-347.3287 851.1382,-347.3287"/>
<ellipse fill="none" stroke="#000000" cx="848.5204" cy="-349.1693" rx="3.2" ry="3.2"/>
</g>
</g>
</svg>
