<?xml version="1.0" encoding="UTF-8" standalone="no"?>
<!DOCTYPE svg PUBLIC "-//W3C//DTD SVG 1.1//EN"
 "http://www.w3.org/Graphics/SVG/1.1/DTD/svg11.dtd">
<!-- Generated by graphviz version 2.40.1 (20161225.0304)
 -->
<!-- Title: twoDegreesRelationshipsDiagramImplied Pages: 1 -->
<svg width="621pt" height="1074pt"
 viewBox="0.00 0.00 621.00 1073.70" xmlns="http://www.w3.org/2000/svg" xmlns:xlink="http://www.w3.org/1999/xlink">
<g id="graph0" class="graph" transform="scale(1 1) rotate(0) translate(4 1069.7)">
<title>twoDegreesRelationshipsDiagramImplied</title>
<polygon fill="#ffffff" stroke="transparent" points="-4,4 -4,-1069.7 617,-1069.7 617,4 -4,4"/>
<text text-anchor="middle" x="72.4936" y="-7.3" font-family="Helvetica,sans-Serif" font-size="11.00" fill="#000000">Generated by SchemaSpy</text>
<!-- audited_tap_authorisation -->
<g id="node1" class="node">
<title>audited_tap_authorisation</title>
<g id="a_node1"><a xlink:href="../../tables/audited_tap_authorisation.html" xlink:title="audited_tap_authorisation" target="_top">
<polygon fill="#ffffff" stroke="transparent" points="300.5,-1019.7 300.5,-1061.7 515.5,-1061.7 515.5,-1019.7 300.5,-1019.7"/>
<polygon fill="#f5f5f5" stroke="transparent" points="301,-1038.7 301,-1061.7 516,-1061.7 516,-1038.7 301,-1038.7"/>
<polygon fill="none" stroke="#000000" points="301,-1038.7 301,-1061.7 516,-1061.7 516,-1038.7 301,-1038.7"/>
<text text-anchor="start" x="306" y="-1047.3" font-family="Helvetica,sans-Serif" font-weight="bold" font-size="11.00" fill="#000000">audited_tap_authorisation</text>
<text text-anchor="start" x="482.9448" y="-1046.8" font-family="Helvetica,sans-Serif" font-size="11.00" fill="#000000">[view]</text>
<polygon fill="none" stroke="#000000" points="301,-1019.7 301,-1038.7 516,-1038.7 516,-1019.7 301,-1019.7"/>
<text text-anchor="start" x="304" y="-1025.8" font-family="Helvetica,sans-Serif" font-size="11.00" fill="#000000">...</text>
</a>
</g>
</g>
<!-- person_summary -->
<g id="node2" class="node">
<title>person_summary</title>
<g id="a_node2"><a xlink:href="../../tables/person_summary.html" xlink:title="person_summary" target="_top">
<polygon fill="#ffffff" stroke="transparent" points="8,-812.2 8,-895.2 162,-895.2 162,-812.2 8,-812.2"/>
<polygon fill="#f5f5f5" stroke="transparent" points="8,-871.7 8,-894.7 162,-894.7 162,-871.7 8,-871.7"/>
<polygon fill="none" stroke="#000000" points="8,-871.7 8,-894.7 162,-894.7 162,-871.7 8,-871.7"/>
<text text-anchor="start" x="13" y="-880.3" font-family="Helvetica,sans-Serif" font-weight="bold" font-size="11.00" fill="#000000">person_summary</text>
<text text-anchor="start" x="127.5219" y="-879.8" font-family="Helvetica,sans-Serif" font-size="11.00" fill="#000000">[table]</text>
<polygon fill="none" stroke="#000000" points="8,-849.7 8,-871.7 162,-871.7 162,-849.7 8,-849.7"/>
<image xlink:href="../../images/primaryKeys.png" width="11px" height="12px" preserveAspectRatio="xMinYMin meet" x="13" y="-866.7"/>
<text text-anchor="start" x="37" y="-856.8" font-family="Helvetica,sans-Serif" font-size="11.00" fill="#000000">person_identifier</text>
<polygon fill="none" stroke="#000000" points="8,-830.7 8,-849.7 162,-849.7 162,-830.7 8,-830.7"/>
<text text-anchor="start" x="11" y="-836.8" font-family="Helvetica,sans-Serif" font-size="11.00" fill="#000000">...</text>
<polygon fill="#ffffff" stroke="transparent" points="8,-811.7 8,-830.7 74,-830.7 74,-811.7 8,-811.7"/>
<polygon fill="none" stroke="#000000" points="8,-811.7 8,-830.7 74,-830.7 74,-811.7 8,-811.7"/>
<text text-anchor="start" x="11" y="-817.8" font-family="Helvetica,sans-Serif" font-size="11.00" fill="#000000"> &#160;</text>
<polygon fill="#ffffff" stroke="transparent" points="74,-811.7 74,-830.7 113,-830.7 113,-811.7 74,-811.7"/>
<polygon fill="none" stroke="#000000" points="74,-811.7 74,-830.7 113,-830.7 113,-811.7 74,-811.7"/>
<text text-anchor="start" x="103.8862" y="-817.8" font-family="Helvetica,sans-Serif" font-size="11.00" fill="#000000"> &#160;</text>
<polygon fill="#ffffff" stroke="transparent" points="113,-811.7 113,-830.7 162,-830.7 162,-811.7 113,-811.7"/>
<polygon fill="none" stroke="#000000" points="113,-811.7 113,-830.7 162,-830.7 162,-811.7 113,-811.7"/>
<text text-anchor="start" x="143.4053" y="-817.8" font-family="Helvetica,sans-Serif" font-size="11.00" fill="#000000">6 &gt;</text>
</a>
</g>
</g>
<!-- audited_tap_authorisation&#45;&gt;person_summary -->
<g id="edge1" class="edge">
<title>audited_tap_authorisation:w&#45;&gt;person_summary:e</title>
<path fill="none" stroke="#000000" stroke-dasharray="5,2" d="M286.3059,-1029.0746C251.5359,-1030.7442 231.7413,-1036.3087 203,-1009.7 152.5995,-963.0392 230.6836,-860.7 162,-860.7"/>
<polygon fill="#000000" stroke="#000000" points="293.0026,-1028.9039 301.0918,-1032.2988 297.0013,-1028.802 301,-1028.7 301,-1028.7 301,-1028.7 297.0013,-1028.802 300.9082,-1025.1012 293.0026,-1028.9039 293.0026,-1028.9039"/>
<ellipse fill="none" stroke="#000000" cx="289.8036" cy="-1028.9855" rx="3.2" ry="3.2"/>
</g>
<!-- audited_tap_movement -->
<g id="node3" class="node">
<title>audited_tap_movement</title>
<g id="a_node3"><a xlink:href="../../tables/audited_tap_movement.html" xlink:title="audited_tap_movement" target="_top">
<polygon fill="#ffffff" stroke="transparent" points="310.5,-956.7 310.5,-998.7 505.5,-998.7 505.5,-956.7 310.5,-956.7"/>
<polygon fill="#f5f5f5" stroke="transparent" points="311,-975.7 311,-998.7 506,-998.7 506,-975.7 311,-975.7"/>
<polygon fill="none" stroke="#000000" points="311,-975.7 311,-998.7 506,-998.7 506,-975.7 311,-975.7"/>
<text text-anchor="start" x="316" y="-984.3" font-family="Helvetica,sans-Serif" font-weight="bold" font-size="11.00" fill="#000000">audited_tap_movement</text>
<text text-anchor="start" x="472.9448" y="-983.8" font-family="Helvetica,sans-Serif" font-size="11.00" fill="#000000">[view]</text>
<polygon fill="none" stroke="#000000" points="311,-956.7 311,-975.7 506,-975.7 506,-956.7 311,-956.7"/>
<text text-anchor="start" x="314" y="-962.8" font-family="Helvetica,sans-Serif" font-size="11.00" fill="#000000">...</text>
</a>
</g>
</g>
<!-- audited_tap_movement&#45;&gt;person_summary -->
<g id="edge2" class="edge">
<title>audited_tap_movement:w&#45;&gt;person_summary:e</title>
<path fill="none" stroke="#000000" stroke-dasharray="5,2" d="M296.448,-965.964C257.6785,-967.2946 237.7038,-972.2047 203,-945.7 169.6668,-920.242 203.9429,-860.7 162,-860.7"/>
<polygon fill="#000000" stroke="#000000" points="303.0013,-965.8452 311.0653,-969.2994 307.0007,-965.7726 311,-965.7 311,-965.7 311,-965.7 307.0007,-965.7726 310.9347,-962.1006 303.0013,-965.8452 303.0013,-965.8452"/>
<ellipse fill="none" stroke="#000000" cx="299.8018" cy="-965.9032" rx="3.2" ry="3.2"/>
</g>
<!-- hmpps_domain_event_audit -->
<g id="node4" class="node">
<title>hmpps_domain_event_audit</title>
<g id="a_node4"><a xlink:href="../../tables/hmpps_domain_event_audit.html" xlink:title="hmpps_domain_event_audit" target="_top">
<polygon fill="#ffffff" stroke="transparent" points="295.5,-120.2 295.5,-181.2 520.5,-181.2 520.5,-120.2 295.5,-120.2"/>
<polygon fill="#f5f5f5" stroke="transparent" points="296,-157.7 296,-180.7 521,-180.7 521,-157.7 296,-157.7"/>
<polygon fill="none" stroke="#000000" points="296,-157.7 296,-180.7 521,-180.7 521,-157.7 296,-157.7"/>
<text text-anchor="start" x="301" y="-166.3" font-family="Helvetica,sans-Serif" font-weight="bold" font-size="11.00" fill="#000000">hmpps_domain_event_audit</text>
<text text-anchor="start" x="486.5219" y="-165.8" font-family="Helvetica,sans-Serif" font-size="11.00" fill="#000000">[table]</text>
<polygon fill="none" stroke="#000000" points="296,-138.7 296,-157.7 521,-157.7 521,-138.7 296,-138.7"/>
<text text-anchor="start" x="299" y="-144.8" font-family="Helvetica,sans-Serif" font-size="11.00" fill="#000000">...</text>
<polygon fill="#ffffff" stroke="transparent" points="296,-119.7 296,-138.7 407,-138.7 407,-119.7 296,-119.7"/>
<polygon fill="none" stroke="#000000" points="296,-119.7 296,-138.7 407,-138.7 407,-119.7 296,-119.7"/>
<text text-anchor="start" x="299" y="-125.8" font-family="Helvetica,sans-Serif" font-size="11.00" fill="#000000">&lt; 1</text>
<polygon fill="#ffffff" stroke="transparent" points="407,-119.7 407,-138.7 464,-138.7 464,-119.7 407,-119.7"/>
<polygon fill="none" stroke="#000000" points="407,-119.7 407,-138.7 464,-138.7 464,-119.7 407,-119.7"/>
<text text-anchor="start" x="454.8862" y="-125.8" font-family="Helvetica,sans-Serif" font-size="11.00" fill="#000000"> &#160;</text>
<polygon fill="#ffffff" stroke="transparent" points="464,-119.7 464,-138.7 521,-138.7 521,-119.7 464,-119.7"/>
<polygon fill="none" stroke="#000000" points="464,-119.7 464,-138.7 521,-138.7 521,-119.7 464,-119.7"/>
<text text-anchor="start" x="511.8862" y="-125.8" font-family="Helvetica,sans-Serif" font-size="11.00" fill="#000000"> &#160;</text>
</a>
</g>
</g>
<!-- audit_revision -->
<g id="node5" class="node">
<title>audit_revision</title>
<g id="a_node5"><a xlink:href="../../tables/audit_revision.html" xlink:title="audit_revision" target="_top">
<polygon fill="#ffffff" stroke="transparent" points="18,-140.2 18,-223.2 152,-223.2 152,-140.2 18,-140.2"/>
<polygon fill="#f5f5f5" stroke="transparent" points="18,-199.7 18,-222.7 152,-222.7 152,-199.7 18,-199.7"/>
<polygon fill="none" stroke="#000000" points="18,-199.7 18,-222.7 152,-222.7 152,-199.7 18,-199.7"/>
<text text-anchor="start" x="23" y="-208.3" font-family="Helvetica,sans-Serif" font-weight="bold" font-size="11.00" fill="#000000">audit_revision</text>
<text text-anchor="start" x="117.5219" y="-207.8" font-family="Helvetica,sans-Serif" font-size="11.00" fill="#000000">[table]</text>
<polygon fill="none" stroke="#000000" points="18,-177.7 18,-199.7 152,-199.7 152,-177.7 18,-177.7"/>
<image xlink:href="../../images/primaryKeys.png" width="11px" height="12px" preserveAspectRatio="xMinYMin meet" x="23" y="-194.7"/>
<text text-anchor="start" x="38" y="-184.8" font-family="Helvetica,sans-Serif" font-size="11.00" fill="#000000">id</text>
<polygon fill="none" stroke="#000000" points="18,-158.7 18,-177.7 152,-177.7 152,-158.7 18,-158.7"/>
<text text-anchor="start" x="21" y="-164.8" font-family="Helvetica,sans-Serif" font-size="11.00" fill="#000000">...</text>
<polygon fill="#ffffff" stroke="transparent" points="18,-139.7 18,-158.7 74,-158.7 74,-139.7 18,-139.7"/>
<polygon fill="none" stroke="#000000" points="18,-139.7 18,-158.7 74,-158.7 74,-139.7 18,-139.7"/>
<text text-anchor="start" x="21" y="-145.8" font-family="Helvetica,sans-Serif" font-size="11.00" fill="#000000"> &#160;</text>
<polygon fill="#ffffff" stroke="transparent" points="74,-139.7 74,-158.7 108,-158.7 108,-139.7 74,-139.7"/>
<polygon fill="none" stroke="#000000" points="74,-139.7 74,-158.7 108,-158.7 108,-139.7 74,-139.7"/>
<text text-anchor="start" x="98.8862" y="-145.8" font-family="Helvetica,sans-Serif" font-size="11.00" fill="#000000"> &#160;</text>
<polygon fill="#ffffff" stroke="transparent" points="108,-139.7 108,-158.7 152,-158.7 152,-139.7 108,-139.7"/>
<polygon fill="none" stroke="#000000" points="108,-139.7 108,-158.7 152,-158.7 152,-139.7 108,-139.7"/>
<text text-anchor="start" x="133.4053" y="-145.8" font-family="Helvetica,sans-Serif" font-size="11.00" fill="#000000">4 &gt;</text>
</a>
</g>
</g>
<!-- hmpps_domain_event_audit&#45;&gt;audit_revision -->
<g id="edge3" class="edge">
<title>hmpps_domain_event_audit:w&#45;&gt;audit_revision:e</title>
<path fill="none" stroke="#000000" d="M281.3694,-148.4116C227.4117,-153.856 213.3449,-188.7 152,-188.7"/>
<polygon fill="#000000" stroke="#000000" points="288.0094,-148.0887 296.1749,-151.2957 292.0047,-147.8944 296,-147.7 296,-147.7 296,-147.7 292.0047,-147.8944 295.8251,-144.1043 288.0094,-148.0887 288.0094,-148.0887"/>
<ellipse fill="none" stroke="#000000" cx="284.8132" cy="-148.2442" rx="3.2" ry="3.2"/>
</g>
<!-- temporary_absence_authorisation -->
<g id="node6" class="node">
<title>temporary_absence_authorisation</title>
<g id="a_node6"><a xlink:href="../../tables/temporary_absence_authorisation.html" xlink:title="temporary_absence_authorisation" target="_top">
<polygon fill="#ffffff" stroke="transparent" points="274,-874.2 274,-935.2 542,-935.2 542,-874.2 274,-874.2"/>
<polygon fill="#f5f5f5" stroke="transparent" points="274,-911.7 274,-934.7 542,-934.7 542,-911.7 274,-911.7"/>
<polygon fill="none" stroke="#000000" points="274,-911.7 274,-934.7 542,-934.7 542,-911.7 274,-911.7"/>
<text text-anchor="start" x="279" y="-920.3" font-family="Helvetica,sans-Serif" font-weight="bold" font-size="11.00" fill="#000000">temporary_absence_authorisation</text>
<text text-anchor="start" x="507.5219" y="-919.8" font-family="Helvetica,sans-Serif" font-size="11.00" fill="#000000">[table]</text>
<polygon fill="none" stroke="#000000" points="274,-892.7 274,-911.7 542,-911.7 542,-892.7 274,-892.7"/>
<text text-anchor="start" x="277" y="-898.8" font-family="Helvetica,sans-Serif" font-size="11.00" fill="#000000">...</text>
<polygon fill="#ffffff" stroke="transparent" points="274,-873.7 274,-892.7 402,-892.7 402,-873.7 274,-873.7"/>
<polygon fill="none" stroke="#000000" points="274,-873.7 274,-892.7 402,-892.7 402,-873.7 274,-873.7"/>
<text text-anchor="start" x="277" y="-879.8" font-family="Helvetica,sans-Serif" font-size="11.00" fill="#000000">&lt; 7</text>
<polygon fill="#ffffff" stroke="transparent" points="402,-873.7 402,-892.7 467,-892.7 467,-873.7 402,-873.7"/>
<polygon fill="none" stroke="#000000" points="402,-873.7 402,-892.7 467,-892.7 467,-873.7 402,-873.7"/>
<text text-anchor="start" x="457.8862" y="-879.8" font-family="Helvetica,sans-Serif" font-size="11.00" fill="#000000"> &#160;</text>
<polygon fill="#ffffff" stroke="transparent" points="467,-873.7 467,-892.7 542,-892.7 542,-873.7 467,-873.7"/>
<polygon fill="none" stroke="#000000" points="467,-873.7 467,-892.7 542,-892.7 542,-873.7 467,-873.7"/>
<text text-anchor="start" x="523.4053" y="-879.8" font-family="Helvetica,sans-Serif" font-size="11.00" fill="#000000">1 &gt;</text>
</a>
</g>
</g>
<!-- temporary_absence_authorisation&#45;&gt;person_summary -->
<g id="edge4" class="edge">
<title>temporary_absence_authorisation:w&#45;&gt;person_summary:e</title>
<path fill="none" stroke="#000000" d="M259.4664,-900.5606C219.3331,-893.9388 209.7281,-860.7 162,-860.7"/>
<polygon fill="#000000" stroke="#000000" points="266.0245,-901.0747 273.7186,-905.289 270.0122,-901.3874 274,-901.7 274,-901.7 274,-901.7 270.0122,-901.3874 274.2814,-898.111 266.0245,-901.0747 266.0245,-901.0747"/>
<ellipse fill="none" stroke="#000000" cx="262.8343" cy="-900.8246" rx="3.2" ry="3.2"/>
</g>
<!-- temporary_absence_authorisation_audit -->
<g id="node7" class="node">
<title>temporary_absence_authorisation_audit</title>
<g id="a_node7"><a xlink:href="../../tables/temporary_absence_authorisation_audit.html" xlink:title="temporary_absence_authorisation_audit" target="_top">
<polygon fill="#ffffff" stroke="transparent" points="211,-284.7 211,-770.7 605,-770.7 605,-284.7 211,-284.7"/>
<polygon fill="#f5f5f5" stroke="transparent" points="213,-745.7 213,-768.7 603,-768.7 603,-745.7 213,-745.7"/>
<polygon fill="none" stroke="#000000" points="213,-745.7 213,-768.7 603,-768.7 603,-745.7 213,-745.7"/>
<text text-anchor="start" x="218" y="-754.3" font-family="Helvetica,sans-Serif" font-weight="bold" font-size="11.00" fill="#000000">temporary_absence_authorisation_audit</text>
<text text-anchor="start" x="568.0437" y="-753.8" font-family="Helvetica,sans-Serif" font-size="11.00" fill="#000000">[table]</text>
<polygon fill="none" stroke="#000000" points="213,-723.7 213,-745.7 504,-745.7 504,-723.7 213,-723.7"/>
<image xlink:href="../../images/primaryKeys.png" width="11px" height="12px" preserveAspectRatio="xMinYMin meet" x="218" y="-740.7"/>
<text text-anchor="start" x="233" y="-730.8" font-family="Helvetica,sans-Serif" font-size="11.00" fill="#000000">rev_id</text>
<polygon fill="none" stroke="#000000" points="504,-723.7 504,-745.7 603,-745.7 603,-723.7 504,-723.7"/>
<text text-anchor="start" x="507" y="-731.4" font-family="Helvetica,sans-Serif" font-size="11.00" fill="#000000">int8[19]</text>
<polygon fill="none" stroke="#000000" points="213,-701.7 213,-723.7 504,-723.7 504,-701.7 213,-701.7"/>
<text text-anchor="start" x="233" y="-708.8" font-family="Helvetica,sans-Serif" font-size="11.00" fill="#000000">rev_type</text>
<polygon fill="none" stroke="#000000" points="504,-701.7 504,-723.7 603,-723.7 603,-701.7 504,-701.7"/>
<text text-anchor="start" x="507" y="-709.4" font-family="Helvetica,sans-Serif" font-size="11.00" fill="#000000">int2[5]</text>
<polygon fill="none" stroke="#000000" points="213,-679.7 213,-701.7 504,-701.7 504,-679.7 213,-679.7"/>
<image xlink:href="../../images/primaryKeys.png" width="11px" height="12px" preserveAspectRatio="xMinYMin meet" x="218" y="-696.7"/>
<text text-anchor="start" x="233" y="-686.8" font-family="Helvetica,sans-Serif" font-size="11.00" fill="#000000">id</text>
<polygon fill="none" stroke="#000000" points="504,-679.7 504,-701.7 603,-701.7 603,-679.7 504,-679.7"/>
<text text-anchor="start" x="507" y="-687.4" font-family="Helvetica,sans-Serif" font-size="11.00" fill="#000000">uuid[2147483647]</text>
<polygon fill="none" stroke="#000000" points="213,-657.7 213,-679.7 504,-679.7 504,-657.7 213,-657.7"/>
<image xlink:href="../../images/foreignKeys.png" width="11px" height="12px" preserveAspectRatio="xMinYMin meet" x="218" y="-674.7"/>
<text text-anchor="start" x="233" y="-664.8" font-family="Helvetica,sans-Serif" font-size="11.00" fill="#000000">person_identifier</text>
<polygon fill="none" stroke="#000000" points="504,-657.7 504,-679.7 603,-679.7 603,-657.7 504,-657.7"/>
<text text-anchor="start" x="507" y="-665.4" font-family="Helvetica,sans-Serif" font-size="11.00" fill="#000000">varchar[10]</text>
<polygon fill="none" stroke="#000000" points="213,-635.7 213,-657.7 504,-657.7 504,-635.7 213,-635.7"/>
<text text-anchor="start" x="233" y="-642.8" font-family="Helvetica,sans-Serif" font-size="11.00" fill="#000000">prison_code</text>
<polygon fill="none" stroke="#000000" points="504,-635.7 504,-657.7 603,-657.7 603,-635.7 504,-635.7"/>
<text text-anchor="start" x="507" y="-643.4" font-family="Helvetica,sans-Serif" font-size="11.00" fill="#000000">varchar[6]</text>
<polygon fill="none" stroke="#000000" points="213,-613.7 213,-635.7 504,-635.7 504,-613.7 213,-613.7"/>
<text text-anchor="start" x="233" y="-620.8" font-family="Helvetica,sans-Serif" font-size="11.00" fill="#000000">absence_type_id</text>
<polygon fill="none" stroke="#000000" points="504,-613.7 504,-635.7 603,-635.7 603,-613.7 504,-613.7"/>
<text text-anchor="start" x="507" y="-621.4" font-family="Helvetica,sans-Serif" font-size="11.00" fill="#000000">int8[19]</text>
<polygon fill="none" stroke="#000000" points="213,-591.7 213,-613.7 504,-613.7 504,-591.7 213,-591.7"/>
<text text-anchor="start" x="233" y="-598.8" font-family="Helvetica,sans-Serif" font-size="11.00" fill="#000000">absence_sub_type_id</text>
<polygon fill="none" stroke="#000000" points="504,-591.7 504,-613.7 603,-613.7 603,-591.7 504,-591.7"/>
<text text-anchor="start" x="507" y="-599.4" font-family="Helvetica,sans-Serif" font-size="11.00" fill="#000000">int8[19]</text>
<polygon fill="none" stroke="#000000" points="213,-569.7 213,-591.7 504,-591.7 504,-569.7 213,-569.7"/>
<text text-anchor="start" x="233" y="-576.8" font-family="Helvetica,sans-Serif" font-size="11.00" fill="#000000">absence_reason_id</text>
<polygon fill="none" stroke="#000000" points="504,-569.7 504,-591.7 603,-591.7 603,-569.7 504,-569.7"/>
<text text-anchor="start" x="507" y="-577.4" font-family="Helvetica,sans-Serif" font-size="11.00" fill="#000000">int8[19]</text>
<polygon fill="none" stroke="#000000" points="213,-547.7 213,-569.7 504,-569.7 504,-547.7 213,-547.7"/>
<text text-anchor="start" x="233" y="-554.8" font-family="Helvetica,sans-Serif" font-size="11.00" fill="#000000">repeat</text>
<polygon fill="none" stroke="#000000" points="504,-547.7 504,-569.7 603,-569.7 603,-547.7 504,-547.7"/>
<text text-anchor="start" x="507" y="-555.4" font-family="Helvetica,sans-Serif" font-size="11.00" fill="#000000">bool[1]</text>
<polygon fill="none" stroke="#000000" points="213,-525.7 213,-547.7 504,-547.7 504,-525.7 213,-525.7"/>
<text text-anchor="start" x="233" y="-532.8" font-family="Helvetica,sans-Serif" font-size="11.00" fill="#000000">status_id</text>
<polygon fill="none" stroke="#000000" points="504,-525.7 504,-547.7 603,-547.7 603,-525.7 504,-525.7"/>
<text text-anchor="start" x="507" y="-533.4" font-family="Helvetica,sans-Serif" font-size="11.00" fill="#000000">int8[19]</text>
<polygon fill="none" stroke="#000000" points="213,-503.7 213,-525.7 504,-525.7 504,-503.7 213,-503.7"/>
<text text-anchor="start" x="233" y="-510.8" font-family="Helvetica,sans-Serif" font-size="11.00" fill="#000000">notes</text>
<polygon fill="none" stroke="#000000" points="504,-503.7 504,-525.7 603,-525.7 603,-503.7 504,-503.7"/>
<text text-anchor="start" x="507" y="-511.4" font-family="Helvetica,sans-Serif" font-size="11.00" fill="#000000">text[2147483647]</text>
<polygon fill="none" stroke="#000000" points="213,-481.7 213,-503.7 504,-503.7 504,-481.7 213,-481.7"/>
<text text-anchor="start" x="233" y="-488.8" font-family="Helvetica,sans-Serif" font-size="11.00" fill="#000000">legacy_id</text>
<polygon fill="none" stroke="#000000" points="504,-481.7 504,-503.7 603,-503.7 603,-481.7 504,-481.7"/>
<text text-anchor="start" x="507" y="-489.4" font-family="Helvetica,sans-Serif" font-size="11.00" fill="#000000">int8[19]</text>
<polygon fill="none" stroke="#000000" points="213,-459.7 213,-481.7 504,-481.7 504,-459.7 213,-459.7"/>
<text text-anchor="start" x="233" y="-466.8" font-family="Helvetica,sans-Serif" font-size="11.00" fill="#000000">from_date</text>
<polygon fill="none" stroke="#000000" points="504,-459.7 504,-481.7 603,-481.7 603,-459.7 504,-459.7"/>
<text text-anchor="start" x="507" y="-467.4" font-family="Helvetica,sans-Serif" font-size="11.00" fill="#000000">date[13]</text>
<polygon fill="none" stroke="#000000" points="213,-437.7 213,-459.7 504,-459.7 504,-437.7 213,-437.7"/>
<text text-anchor="start" x="233" y="-444.8" font-family="Helvetica,sans-Serif" font-size="11.00" fill="#000000">to_date</text>
<polygon fill="none" stroke="#000000" points="504,-437.7 504,-459.7 603,-459.7 603,-437.7 504,-437.7"/>
<text text-anchor="start" x="507" y="-445.4" font-family="Helvetica,sans-Serif" font-size="11.00" fill="#000000">date[13]</text>
<polygon fill="none" stroke="#000000" points="213,-415.7 213,-437.7 504,-437.7 504,-415.7 213,-415.7"/>
<text text-anchor="start" x="233" y="-422.8" font-family="Helvetica,sans-Serif" font-size="11.00" fill="#000000">schedule</text>
<polygon fill="none" stroke="#000000" points="504,-415.7 504,-437.7 603,-437.7 603,-415.7 504,-415.7"/>
<text text-anchor="start" x="506.7258" y="-423.4" font-family="Helvetica,sans-Serif" font-size="11.00" fill="#000000">jsonb[2147483647]</text>
<polygon fill="none" stroke="#000000" points="213,-393.7 213,-415.7 504,-415.7 504,-393.7 213,-393.7"/>
<text text-anchor="start" x="233" y="-400.8" font-family="Helvetica,sans-Serif" font-size="11.00" fill="#000000">absence_reason_category_id</text>
<polygon fill="none" stroke="#000000" points="504,-393.7 504,-415.7 603,-415.7 603,-393.7 504,-393.7"/>
<text text-anchor="start" x="507" y="-401.4" font-family="Helvetica,sans-Serif" font-size="11.00" fill="#000000">int8[19]</text>
<polygon fill="none" stroke="#000000" points="213,-371.7 213,-393.7 504,-393.7 504,-371.7 213,-371.7"/>
<text text-anchor="start" x="233" y="-378.8" font-family="Helvetica,sans-Serif" font-size="11.00" fill="#000000">reason_path</text>
<polygon fill="none" stroke="#000000" points="504,-371.7 504,-393.7 603,-393.7 603,-371.7 504,-371.7"/>
<text text-anchor="start" x="506.7258" y="-379.4" font-family="Helvetica,sans-Serif" font-size="11.00" fill="#000000">jsonb[2147483647]</text>
<polygon fill="none" stroke="#000000" points="213,-349.7 213,-371.7 504,-371.7 504,-349.7 213,-349.7"/>
<text text-anchor="start" x="233" y="-356.8" font-family="Helvetica,sans-Serif" font-size="11.00" fill="#000000">accompanied_by_id</text>
<polygon fill="none" stroke="#000000" points="504,-349.7 504,-371.7 603,-371.7 603,-349.7 504,-349.7"/>
<text text-anchor="start" x="507" y="-357.4" font-family="Helvetica,sans-Serif" font-size="11.00" fill="#000000">int8[19]</text>
<polygon fill="none" stroke="#000000" points="213,-327.7 213,-349.7 504,-349.7 504,-327.7 213,-327.7"/>
<text text-anchor="start" x="233" y="-334.8" font-family="Helvetica,sans-Serif" font-size="11.00" fill="#000000">transport_id</text>
<polygon fill="none" stroke="#000000" points="504,-327.7 504,-349.7 603,-349.7 603,-327.7 504,-327.7"/>
<text text-anchor="start" x="507" y="-335.4" font-family="Helvetica,sans-Serif" font-size="11.00" fill="#000000">int8[19]</text>
<polygon fill="none" stroke="#000000" points="213,-305.7 213,-327.7 504,-327.7 504,-305.7 213,-305.7"/>
<text text-anchor="start" x="233" y="-312.8" font-family="Helvetica,sans-Serif" font-size="11.00" fill="#000000">version</text>
<polygon fill="none" stroke="#000000" points="504,-305.7 504,-327.7 603,-327.7 603,-305.7 504,-305.7"/>
<text text-anchor="start" x="507" y="-313.4" font-family="Helvetica,sans-Serif" font-size="11.00" fill="#000000">int4[10]</text>
<polygon fill="#ffffff" stroke="transparent" points="213,-286.7 213,-305.7 363,-305.7 363,-286.7 213,-286.7"/>
<polygon fill="none" stroke="#000000" points="213,-286.7 213,-305.7 363,-305.7 363,-286.7 213,-286.7"/>
<text text-anchor="start" x="216" y="-292.8" font-family="Helvetica,sans-Serif" font-size="11.00" fill="#000000">&lt; 2</text>
<polygon fill="#ffffff" stroke="transparent" points="363,-286.7 363,-305.7 504,-305.7 504,-286.7 363,-286.7"/>
<polygon fill="none" stroke="#000000" points="363,-286.7 363,-305.7 504,-305.7 504,-286.7 363,-286.7"/>
<text text-anchor="start" x="494.8862" y="-292.8" font-family="Helvetica,sans-Serif" font-size="11.00" fill="#000000"> &#160;</text>
<polygon fill="#ffffff" stroke="transparent" points="504,-286.7 504,-305.7 603,-305.7 603,-286.7 504,-286.7"/>
<polygon fill="none" stroke="#000000" points="504,-286.7 504,-305.7 603,-305.7 603,-286.7 504,-286.7"/>
<text text-anchor="start" x="584.4053" y="-292.8" font-family="Helvetica,sans-Serif" font-size="11.00" fill="#000000">0 &gt;</text>
<polygon fill="none" stroke="#000000" stroke-width="2" points="212,-285.7 212,-769.7 604,-769.7 604,-285.7 212,-285.7"/>
</a>
</g>
</g>
<!-- temporary_absence_authorisation_audit&#45;&gt;person_summary -->
<g id="edge5" class="edge">
<title>temporary_absence_authorisation_audit:w&#45;&gt;person_summary:e</title>
<path fill="none" stroke="#000000" stroke-dasharray="5,2" d="M198.4788,-670.99C140.0077,-692.6524 244.6017,-860.7 162,-860.7"/>
<polygon fill="#000000" stroke="#000000" points="205.0977,-669.9462 213.5608,-672.2561 209.0488,-669.3231 213,-668.7 213,-668.7 213,-668.7 209.0488,-669.3231 212.4392,-665.1439 205.0977,-669.9462 205.0977,-669.9462"/>
<ellipse fill="none" stroke="#000000" cx="201.9367" cy="-670.4447" rx="3.2" ry="3.2"/>
</g>
<!-- temporary_absence_authorisation_audit&#45;&gt;audit_revision -->
<g id="edge6" class="edge">
<title>temporary_absence_authorisation_audit:w&#45;&gt;audit_revision:e</title>
<path fill="none" stroke="#000000" d="M198.6211,-731.6294C106.4218,-687.7661 268.723,-188.7 152,-188.7"/>
<polygon fill="#000000" stroke="#000000" points="205.1764,-733.0292 212.2481,-738.2206 209.0882,-733.8646 213,-734.7 213,-734.7 213,-734.7 209.0882,-733.8646 213.7519,-731.1794 205.1764,-733.0292 205.1764,-733.0292"/>
<ellipse fill="none" stroke="#000000" cx="202.047" cy="-732.3609" rx="3.2" ry="3.2"/>
</g>
<!-- temporary_absence_movement -->
<g id="node8" class="node">
<title>temporary_absence_movement</title>
<g id="a_node8"><a xlink:href="../../tables/temporary_absence_movement.html" xlink:title="temporary_absence_movement" target="_top">
<polygon fill="#ffffff" stroke="transparent" points="283.5,-792.2 283.5,-853.2 532.5,-853.2 532.5,-792.2 283.5,-792.2"/>
<polygon fill="#f5f5f5" stroke="transparent" points="284,-829.7 284,-852.7 533,-852.7 533,-829.7 284,-829.7"/>
<polygon fill="none" stroke="#000000" points="284,-829.7 284,-852.7 533,-852.7 533,-829.7 284,-829.7"/>
<text text-anchor="start" x="289" y="-838.3" font-family="Helvetica,sans-Serif" font-weight="bold" font-size="11.00" fill="#000000">temporary_absence_movement</text>
<text text-anchor="start" x="498.5219" y="-837.8" font-family="Helvetica,sans-Serif" font-size="11.00" fill="#000000">[table]</text>
<polygon fill="none" stroke="#000000" points="284,-810.7 284,-829.7 533,-829.7 533,-810.7 284,-810.7"/>
<text text-anchor="start" x="287" y="-816.8" font-family="Helvetica,sans-Serif" font-size="11.00" fill="#000000">...</text>
<polygon fill="#ffffff" stroke="transparent" points="284,-791.7 284,-810.7 407,-810.7 407,-791.7 284,-791.7"/>
<polygon fill="none" stroke="#000000" points="284,-791.7 284,-810.7 407,-810.7 407,-791.7 284,-791.7"/>
<text text-anchor="start" x="287" y="-797.8" font-family="Helvetica,sans-Serif" font-size="11.00" fill="#000000">&lt; 4</text>
<polygon fill="#ffffff" stroke="transparent" points="407,-791.7 407,-810.7 470,-810.7 470,-791.7 407,-791.7"/>
<polygon fill="none" stroke="#000000" points="407,-791.7 407,-810.7 470,-810.7 470,-791.7 407,-791.7"/>
<text text-anchor="start" x="460.8862" y="-797.8" font-family="Helvetica,sans-Serif" font-size="11.00" fill="#000000"> &#160;</text>
<polygon fill="#ffffff" stroke="transparent" points="470,-791.7 470,-810.7 533,-810.7 533,-791.7 470,-791.7"/>
<polygon fill="none" stroke="#000000" points="470,-791.7 470,-810.7 533,-810.7 533,-791.7 470,-791.7"/>
<text text-anchor="start" x="523.8862" y="-797.8" font-family="Helvetica,sans-Serif" font-size="11.00" fill="#000000"> &#160;</text>
</a>
</g>
</g>
<!-- temporary_absence_movement&#45;&gt;person_summary -->
<g id="edge7" class="edge">
<title>temporary_absence_movement:w&#45;&gt;person_summary:e</title>
<path fill="none" stroke="#000000" d="M269.4243,-820.673C224.9852,-826.8819 213.9513,-860.7 162,-860.7"/>
<polygon fill="#000000" stroke="#000000" points="276.0178,-820.2329 284.2398,-823.292 280.0089,-819.9665 284,-819.7 284,-819.7 284,-819.7 280.0089,-819.9665 283.7602,-816.108 276.0178,-820.2329 276.0178,-820.2329"/>
<ellipse fill="none" stroke="#000000" cx="272.8249" cy="-820.4461" rx="3.2" ry="3.2"/>
</g>
<!-- temporary_absence_movement_audit -->
<g id="node9" class="node">
<title>temporary_absence_movement_audit</title>
<g id="a_node9"><a xlink:href="../../tables/temporary_absence_movement_audit.html" xlink:title="temporary_absence_movement_audit" target="_top">
<polygon fill="#ffffff" stroke="transparent" points="263,-202.2 263,-263.2 553,-263.2 553,-202.2 263,-202.2"/>
<polygon fill="#f5f5f5" stroke="transparent" points="263,-239.7 263,-262.7 553,-262.7 553,-239.7 263,-239.7"/>
<polygon fill="none" stroke="#000000" points="263,-239.7 263,-262.7 553,-262.7 553,-239.7 263,-239.7"/>
<text text-anchor="start" x="268" y="-248.3" font-family="Helvetica,sans-Serif" font-weight="bold" font-size="11.00" fill="#000000">temporary_absence_movement_audit</text>
<text text-anchor="start" x="518.5219" y="-247.8" font-family="Helvetica,sans-Serif" font-size="11.00" fill="#000000">[table]</text>
<polygon fill="none" stroke="#000000" points="263,-220.7 263,-239.7 553,-239.7 553,-220.7 263,-220.7"/>
<text text-anchor="start" x="266" y="-226.8" font-family="Helvetica,sans-Serif" font-size="11.00" fill="#000000">...</text>
<polygon fill="#ffffff" stroke="transparent" points="263,-201.7 263,-220.7 406,-220.7 406,-201.7 263,-201.7"/>
<polygon fill="none" stroke="#000000" points="263,-201.7 263,-220.7 406,-220.7 406,-201.7 263,-201.7"/>
<text text-anchor="start" x="266" y="-207.8" font-family="Helvetica,sans-Serif" font-size="11.00" fill="#000000">&lt; 2</text>
<polygon fill="#ffffff" stroke="transparent" points="406,-201.7 406,-220.7 479,-220.7 479,-201.7 406,-201.7"/>
<polygon fill="none" stroke="#000000" points="406,-201.7 406,-220.7 479,-220.7 479,-201.7 406,-201.7"/>
<text text-anchor="start" x="469.8862" y="-207.8" font-family="Helvetica,sans-Serif" font-size="11.00" fill="#000000"> &#160;</text>
<polygon fill="#ffffff" stroke="transparent" points="479,-201.7 479,-220.7 553,-220.7 553,-201.7 479,-201.7"/>
<polygon fill="none" stroke="#000000" points="479,-201.7 479,-220.7 553,-220.7 553,-201.7 479,-201.7"/>
<text text-anchor="start" x="543.8862" y="-207.8" font-family="Helvetica,sans-Serif" font-size="11.00" fill="#000000"> &#160;</text>
</a>
</g>
</g>
<!-- temporary_absence_movement_audit&#45;&gt;person_summary -->
<g id="edge8" class="edge">
<title>temporary_absence_movement_audit:w&#45;&gt;person_summary:e</title>
<path fill="none" stroke="#000000" stroke-dasharray="5,2" d="M248.3892,-230.9096C226.199,-235.0101 216.3472,-249.4925 203,-273.7 171.4316,-330.955 227.3811,-860.7 162,-860.7"/>
<polygon fill="#000000" stroke="#000000" points="255.0273,-230.3601 263.2971,-233.2877 259.0136,-230.0301 263,-229.7 263,-229.7 263,-229.7 259.0136,-230.0301 262.7029,-226.1123 255.0273,-230.3601 255.0273,-230.3601"/>
<ellipse fill="none" stroke="#000000" cx="251.8382" cy="-230.6242" rx="3.2" ry="3.2"/>
</g>
<!-- temporary_absence_movement_audit&#45;&gt;audit_revision -->
<g id="edge9" class="edge">
<title>temporary_absence_movement_audit:w&#45;&gt;audit_revision:e</title>
<path fill="none" stroke="#000000" d="M248.5841,-228.5606C208.7858,-221.9388 199.3526,-188.7 152,-188.7"/>
<polygon fill="#000000" stroke="#000000" points="255.0249,-229.0696 262.7163,-233.2888 259.0124,-229.3848 263,-229.7 263,-229.7 263,-229.7 259.0124,-229.3848 263.2837,-226.1112 255.0249,-229.0696 255.0249,-229.0696"/>
<ellipse fill="none" stroke="#000000" cx="251.8348" cy="-228.8175" rx="3.2" ry="3.2"/>
</g>
<!-- temporary_absence_occurrence_audit -->
<g id="node10" class="node">
<title>temporary_absence_occurrence_audit</title>
<g id="a_node10"><a xlink:href="../../tables/temporary_absence_occurrence_audit.html" xlink:title="temporary_absence_occurrence_audit" target="_top">
<polygon fill="#ffffff" stroke="transparent" points="261.5,-38.2 261.5,-99.2 554.5,-99.2 554.5,-38.2 261.5,-38.2"/>
<polygon fill="#f5f5f5" stroke="transparent" points="262,-75.7 262,-98.7 555,-98.7 555,-75.7 262,-75.7"/>
<polygon fill="none" stroke="#000000" points="262,-75.7 262,-98.7 555,-98.7 555,-75.7 262,-75.7"/>
<text text-anchor="start" x="267" y="-84.3" font-family="Helvetica,sans-Serif" font-weight="bold" font-size="11.00" fill="#000000">temporary_absence_occurrence_audit</text>
<text text-anchor="start" x="520.5219" y="-83.8" font-family="Helvetica,sans-Serif" font-size="11.00" fill="#000000">[table]</text>
<polygon fill="none" stroke="#000000" points="262,-56.7 262,-75.7 555,-75.7 555,-56.7 262,-56.7"/>
<text text-anchor="start" x="265" y="-62.8" font-family="Helvetica,sans-Serif" font-size="11.00" fill="#000000">...</text>
<polygon fill="#ffffff" stroke="transparent" points="262,-37.7 262,-56.7 407,-56.7 407,-37.7 262,-37.7"/>
<polygon fill="none" stroke="#000000" points="262,-37.7 262,-56.7 407,-56.7 407,-37.7 262,-37.7"/>
<text text-anchor="start" x="265" y="-43.8" font-family="Helvetica,sans-Serif" font-size="11.00" fill="#000000">&lt; 1</text>
<polygon fill="#ffffff" stroke="transparent" points="407,-37.7 407,-56.7 481,-56.7 481,-37.7 407,-37.7"/>
<polygon fill="none" stroke="#000000" points="407,-37.7 407,-56.7 481,-56.7 481,-37.7 407,-37.7"/>
<text text-anchor="start" x="471.8862" y="-43.8" font-family="Helvetica,sans-Serif" font-size="11.00" fill="#000000"> &#160;</text>
<polygon fill="#ffffff" stroke="transparent" points="481,-37.7 481,-56.7 555,-56.7 555,-37.7 481,-37.7"/>
<polygon fill="none" stroke="#000000" points="481,-37.7 481,-56.7 555,-56.7 555,-37.7 481,-37.7"/>
<text text-anchor="start" x="545.8862" y="-43.8" font-family="Helvetica,sans-Serif" font-size="11.00" fill="#000000"> &#160;</text>
</a>
</g>
</g>
<!-- temporary_absence_occurrence_audit&#45;&gt;audit_revision -->
<g id="edge10" class="edge">
<title>temporary_absence_occurrence_audit:w&#45;&gt;audit_revision:e</title>
<path fill="none" stroke="#000000" d="M247.4426,-67.3987C227.387,-72.7222 221.4973,-89.9095 203,-109.7 174.4631,-140.2321 193.792,-188.7 152,-188.7"/>
<polygon fill="#000000" stroke="#000000" points="254.0539,-66.6273 262.4173,-69.2757 258.027,-66.1636 262,-65.7 262,-65.7 262,-65.7 258.027,-66.1636 261.5827,-62.1243 254.0539,-66.6273 254.0539,-66.6273"/>
<ellipse fill="none" stroke="#000000" cx="250.8755" cy="-66.9982" rx="3.2" ry="3.2"/>
</g>
</g>
</svg>
