<?xml version="1.0" encoding="UTF-8" standalone="no"?>
<!DOCTYPE svg PUBLIC "-//W3C//DTD SVG 1.1//EN"
 "http://www.w3.org/Graphics/SVG/1.1/DTD/svg11.dtd">
<!-- Generated by graphviz version 2.40.1 (20161225.0304)
 -->
<!-- Title: oneDegreeRelationshipsDiagram Pages: 1 -->
<svg width="870pt" height="784pt"
 viewBox="0.00 0.00 870.00 783.70" xmlns="http://www.w3.org/2000/svg" xmlns:xlink="http://www.w3.org/1999/xlink">
<g id="graph0" class="graph" transform="scale(1 1) rotate(0) translate(4 779.7)">
<title>oneDegreeRelationshipsDiagram</title>
<polygon fill="#ffffff" stroke="transparent" points="-4,4 -4,-779.7 866,-779.7 866,4 -4,4"/>
<text text-anchor="middle" x="72.4936" y="-7.3" font-family="Helvetica,sans-Serif" font-size="11.00" fill="#000000">Generated by SchemaSpy</text>
<!-- temporary_absence_authorisation -->
<g id="node1" class="node">
<title>temporary_absence_authorisation</title>
<g id="a_node1"><a xlink:href="../../tables/temporary_absence_authorisation.html" xlink:title="temporary_absence_authorisation" target="_top">
<polygon fill="#ffffff" stroke="transparent" points="200,-263.7 200,-771.7 553,-771.7 553,-263.7 200,-263.7"/>
<polygon fill="#f5f5f5" stroke="transparent" points="202.5,-746.7 202.5,-769.7 551.5,-769.7 551.5,-746.7 202.5,-746.7"/>
<polygon fill="none" stroke="#000000" points="202.5,-746.7 202.5,-769.7 551.5,-769.7 551.5,-746.7 202.5,-746.7"/>
<text text-anchor="start" x="207.5" y="-755.3" font-family="Helvetica,sans-Serif" font-weight="bold" font-size="11.00" fill="#000000">temporary_absence_authorisation</text>
<text text-anchor="start" x="516.5437" y="-754.8" font-family="Helvetica,sans-Serif" font-size="11.00" fill="#000000">[table]</text>
<polygon fill="none" stroke="#000000" points="202.5,-724.7 202.5,-746.7 452.5,-746.7 452.5,-724.7 202.5,-724.7"/>
<image xlink:href="../../images/primaryKeys.png" width="11px" height="12px" preserveAspectRatio="xMinYMin meet" x="207.5" y="-741.7"/>
<text text-anchor="start" x="222.5" y="-731.8" font-family="Helvetica,sans-Serif" font-size="11.00" fill="#000000">id</text>
<polygon fill="none" stroke="#000000" points="452.5,-724.7 452.5,-746.7 551.5,-746.7 551.5,-724.7 452.5,-724.7"/>
<text text-anchor="start" x="455.5" y="-732.4" font-family="Helvetica,sans-Serif" font-size="11.00" fill="#000000">uuid[2147483647]</text>
<polygon fill="none" stroke="#000000" points="202.5,-702.7 202.5,-724.7 452.5,-724.7 452.5,-702.7 202.5,-702.7"/>
<text text-anchor="start" x="222.5" y="-709.8" font-family="Helvetica,sans-Serif" font-size="11.00" fill="#000000">version</text>
<polygon fill="none" stroke="#000000" points="452.5,-702.7 452.5,-724.7 551.5,-724.7 551.5,-702.7 452.5,-702.7"/>
<text text-anchor="start" x="455.5" y="-710.4" font-family="Helvetica,sans-Serif" font-size="11.00" fill="#000000">int4[10]</text>
<polygon fill="#ffffff" stroke="transparent" points="202.5,-680.7 202.5,-702.7 452.5,-702.7 452.5,-680.7 202.5,-680.7"/>
<polygon fill="none" stroke="#000000" points="202.5,-680.7 202.5,-702.7 452.5,-702.7 452.5,-680.7 202.5,-680.7"/>
<text text-anchor="start" x="222.5" y="-687.8" font-family="Helvetica,sans-Serif" font-size="11.00" fill="#000000">person_identifier</text>
<polygon fill="none" stroke="#000000" points="452.5,-680.7 452.5,-702.7 551.5,-702.7 551.5,-680.7 452.5,-680.7"/>
<text text-anchor="start" x="455.5" y="-688.4" font-family="Helvetica,sans-Serif" font-size="11.00" fill="#000000">varchar[10]</text>
<polygon fill="#ffffff" stroke="transparent" points="202.5,-658.7 202.5,-680.7 452.5,-680.7 452.5,-658.7 202.5,-658.7"/>
<polygon fill="none" stroke="#000000" points="202.5,-658.7 202.5,-680.7 452.5,-680.7 452.5,-658.7 202.5,-658.7"/>
<text text-anchor="start" x="222.5" y="-665.8" font-family="Helvetica,sans-Serif" font-size="11.00" fill="#000000">prison_code</text>
<polygon fill="none" stroke="#000000" points="452.5,-658.7 452.5,-680.7 551.5,-680.7 551.5,-658.7 452.5,-658.7"/>
<text text-anchor="start" x="455.5" y="-666.4" font-family="Helvetica,sans-Serif" font-size="11.00" fill="#000000">varchar[6]</text>
<polygon fill="none" stroke="#000000" points="202.5,-636.7 202.5,-658.7 452.5,-658.7 452.5,-636.7 202.5,-636.7"/>
<image xlink:href="../../images/foreignKeys.png" width="11px" height="12px" preserveAspectRatio="xMinYMin meet" x="207.5" y="-653.7"/>
<text text-anchor="start" x="222.5" y="-643.8" font-family="Helvetica,sans-Serif" font-size="11.00" fill="#000000">absence_type_id</text>
<polygon fill="none" stroke="#000000" points="452.5,-636.7 452.5,-658.7 551.5,-658.7 551.5,-636.7 452.5,-636.7"/>
<text text-anchor="start" x="455.5" y="-644.4" font-family="Helvetica,sans-Serif" font-size="11.00" fill="#000000">int8[19]</text>
<polygon fill="none" stroke="#000000" points="202.5,-614.7 202.5,-636.7 452.5,-636.7 452.5,-614.7 202.5,-614.7"/>
<image xlink:href="../../images/foreignKeys.png" width="11px" height="12px" preserveAspectRatio="xMinYMin meet" x="207.5" y="-631.7"/>
<text text-anchor="start" x="222.5" y="-621.8" font-family="Helvetica,sans-Serif" font-size="11.00" fill="#000000">absence_sub_type_id</text>
<polygon fill="none" stroke="#000000" points="452.5,-614.7 452.5,-636.7 551.5,-636.7 551.5,-614.7 452.5,-614.7"/>
<text text-anchor="start" x="455.5" y="-622.4" font-family="Helvetica,sans-Serif" font-size="11.00" fill="#000000">int8[19]</text>
<polygon fill="none" stroke="#000000" points="202.5,-592.7 202.5,-614.7 452.5,-614.7 452.5,-592.7 202.5,-592.7"/>
<image xlink:href="../../images/foreignKeys.png" width="11px" height="12px" preserveAspectRatio="xMinYMin meet" x="207.5" y="-609.7"/>
<text text-anchor="start" x="222.5" y="-599.8" font-family="Helvetica,sans-Serif" font-size="11.00" fill="#000000">absence_reason_id</text>
<polygon fill="none" stroke="#000000" points="452.5,-592.7 452.5,-614.7 551.5,-614.7 551.5,-592.7 452.5,-592.7"/>
<text text-anchor="start" x="455.5" y="-600.4" font-family="Helvetica,sans-Serif" font-size="11.00" fill="#000000">int8[19]</text>
<polygon fill="none" stroke="#000000" points="202.5,-570.7 202.5,-592.7 452.5,-592.7 452.5,-570.7 202.5,-570.7"/>
<text text-anchor="start" x="222.5" y="-577.8" font-family="Helvetica,sans-Serif" font-size="11.00" fill="#000000">repeat</text>
<polygon fill="none" stroke="#000000" points="452.5,-570.7 452.5,-592.7 551.5,-592.7 551.5,-570.7 452.5,-570.7"/>
<text text-anchor="start" x="455.5" y="-578.4" font-family="Helvetica,sans-Serif" font-size="11.00" fill="#000000">bool[1]</text>
<polygon fill="none" stroke="#000000" points="202.5,-548.7 202.5,-570.7 452.5,-570.7 452.5,-548.7 202.5,-548.7"/>
<image xlink:href="../../images/foreignKeys.png" width="11px" height="12px" preserveAspectRatio="xMinYMin meet" x="207.5" y="-565.7"/>
<text text-anchor="start" x="222.5" y="-555.8" font-family="Helvetica,sans-Serif" font-size="11.00" fill="#000000">status_id</text>
<polygon fill="none" stroke="#000000" points="452.5,-548.7 452.5,-570.7 551.5,-570.7 551.5,-548.7 452.5,-548.7"/>
<text text-anchor="start" x="455.5" y="-556.4" font-family="Helvetica,sans-Serif" font-size="11.00" fill="#000000">int8[19]</text>
<polygon fill="none" stroke="#000000" points="202.5,-526.7 202.5,-548.7 452.5,-548.7 452.5,-526.7 202.5,-526.7"/>
<text text-anchor="start" x="222.5" y="-533.8" font-family="Helvetica,sans-Serif" font-size="11.00" fill="#000000">notes</text>
<polygon fill="none" stroke="#000000" points="452.5,-526.7 452.5,-548.7 551.5,-548.7 551.5,-526.7 452.5,-526.7"/>
<text text-anchor="start" x="455.5" y="-534.4" font-family="Helvetica,sans-Serif" font-size="11.00" fill="#000000">text[2147483647]</text>
<polygon fill="none" stroke="#000000" points="202.5,-504.7 202.5,-526.7 452.5,-526.7 452.5,-504.7 202.5,-504.7"/>
<text text-anchor="start" x="222.5" y="-511.8" font-family="Helvetica,sans-Serif" font-size="11.00" fill="#000000">submitted_at</text>
<polygon fill="none" stroke="#000000" points="452.5,-504.7 452.5,-526.7 551.5,-526.7 551.5,-504.7 452.5,-504.7"/>
<text text-anchor="start" x="455.5" y="-512.4" font-family="Helvetica,sans-Serif" font-size="11.00" fill="#000000">timestamp[29,6]</text>
<polygon fill="none" stroke="#000000" points="202.5,-482.7 202.5,-504.7 452.5,-504.7 452.5,-482.7 202.5,-482.7"/>
<text text-anchor="start" x="222.5" y="-489.8" font-family="Helvetica,sans-Serif" font-size="11.00" fill="#000000">submitted_by</text>
<polygon fill="none" stroke="#000000" points="452.5,-482.7 452.5,-504.7 551.5,-504.7 551.5,-482.7 452.5,-482.7"/>
<text text-anchor="start" x="455.5" y="-490.4" font-family="Helvetica,sans-Serif" font-size="11.00" fill="#000000">varchar[64]</text>
<polygon fill="none" stroke="#000000" points="202.5,-460.7 202.5,-482.7 452.5,-482.7 452.5,-460.7 202.5,-460.7"/>
<text text-anchor="start" x="222.5" y="-467.8" font-family="Helvetica,sans-Serif" font-size="11.00" fill="#000000">approved_at</text>
<polygon fill="none" stroke="#000000" points="452.5,-460.7 452.5,-482.7 551.5,-482.7 551.5,-460.7 452.5,-460.7"/>
<text text-anchor="start" x="455.5" y="-468.4" font-family="Helvetica,sans-Serif" font-size="11.00" fill="#000000">timestamp[29,6]</text>
<polygon fill="none" stroke="#000000" points="202.5,-438.7 202.5,-460.7 452.5,-460.7 452.5,-438.7 202.5,-438.7"/>
<text text-anchor="start" x="222.5" y="-445.8" font-family="Helvetica,sans-Serif" font-size="11.00" fill="#000000">approved_by</text>
<polygon fill="none" stroke="#000000" points="452.5,-438.7 452.5,-460.7 551.5,-460.7 551.5,-438.7 452.5,-438.7"/>
<text text-anchor="start" x="455.5" y="-446.4" font-family="Helvetica,sans-Serif" font-size="11.00" fill="#000000">varchar[64]</text>
<polygon fill="#ffffff" stroke="transparent" points="202.5,-416.7 202.5,-438.7 452.5,-438.7 452.5,-416.7 202.5,-416.7"/>
<polygon fill="none" stroke="#000000" points="202.5,-416.7 202.5,-438.7 452.5,-438.7 452.5,-416.7 202.5,-416.7"/>
<text text-anchor="start" x="222.5" y="-423.8" font-family="Helvetica,sans-Serif" font-size="11.00" fill="#000000">legacy_id</text>
<polygon fill="none" stroke="#000000" points="452.5,-416.7 452.5,-438.7 551.5,-438.7 551.5,-416.7 452.5,-416.7"/>
<text text-anchor="start" x="455.5" y="-424.4" font-family="Helvetica,sans-Serif" font-size="11.00" fill="#000000">int8[19]</text>
<polygon fill="#ffffff" stroke="transparent" points="202.5,-394.7 202.5,-416.7 452.5,-416.7 452.5,-394.7 202.5,-394.7"/>
<polygon fill="none" stroke="#000000" points="202.5,-394.7 202.5,-416.7 452.5,-416.7 452.5,-394.7 202.5,-394.7"/>
<text text-anchor="start" x="222.5" y="-401.8" font-family="Helvetica,sans-Serif" font-size="11.00" fill="#000000">from_date</text>
<polygon fill="none" stroke="#000000" points="452.5,-394.7 452.5,-416.7 551.5,-416.7 551.5,-394.7 452.5,-394.7"/>
<text text-anchor="start" x="455.5" y="-402.4" font-family="Helvetica,sans-Serif" font-size="11.00" fill="#000000">date[13]</text>
<polygon fill="#ffffff" stroke="transparent" points="202.5,-372.7 202.5,-394.7 452.5,-394.7 452.5,-372.7 202.5,-372.7"/>
<polygon fill="none" stroke="#000000" points="202.5,-372.7 202.5,-394.7 452.5,-394.7 452.5,-372.7 202.5,-372.7"/>
<text text-anchor="start" x="222.5" y="-379.8" font-family="Helvetica,sans-Serif" font-size="11.00" fill="#000000">to_date</text>
<polygon fill="none" stroke="#000000" points="452.5,-372.7 452.5,-394.7 551.5,-394.7 551.5,-372.7 452.5,-372.7"/>
<text text-anchor="start" x="455.5" y="-380.4" font-family="Helvetica,sans-Serif" font-size="11.00" fill="#000000">date[13]</text>
<polygon fill="none" stroke="#000000" points="202.5,-350.7 202.5,-372.7 452.5,-372.7 452.5,-350.7 202.5,-350.7"/>
<text text-anchor="start" x="222.5" y="-357.8" font-family="Helvetica,sans-Serif" font-size="11.00" fill="#000000">schedule</text>
<polygon fill="none" stroke="#000000" points="452.5,-350.7 452.5,-372.7 551.5,-372.7 551.5,-350.7 452.5,-350.7"/>
<text text-anchor="start" x="455.2258" y="-358.4" font-family="Helvetica,sans-Serif" font-size="11.00" fill="#000000">jsonb[2147483647]</text>
<polygon fill="none" stroke="#000000" points="202.5,-328.7 202.5,-350.7 452.5,-350.7 452.5,-328.7 202.5,-328.7"/>
<image xlink:href="../../images/foreignKeys.png" width="11px" height="12px" preserveAspectRatio="xMinYMin meet" x="207.5" y="-345.7"/>
<text text-anchor="start" x="222.5" y="-335.8" font-family="Helvetica,sans-Serif" font-size="11.00" fill="#000000">absence_reason_category_id</text>
<polygon fill="none" stroke="#000000" points="452.5,-328.7 452.5,-350.7 551.5,-350.7 551.5,-328.7 452.5,-328.7"/>
<text text-anchor="start" x="455.5" y="-336.4" font-family="Helvetica,sans-Serif" font-size="11.00" fill="#000000">int8[19]</text>
<polygon fill="none" stroke="#000000" points="202.5,-306.7 202.5,-328.7 452.5,-328.7 452.5,-306.7 202.5,-306.7"/>
<text text-anchor="start" x="222.5" y="-313.8" font-family="Helvetica,sans-Serif" font-size="11.00" fill="#000000">reason_path</text>
<polygon fill="none" stroke="#000000" points="452.5,-306.7 452.5,-328.7 551.5,-328.7 551.5,-306.7 452.5,-306.7"/>
<text text-anchor="start" x="455.2258" y="-314.4" font-family="Helvetica,sans-Serif" font-size="11.00" fill="#000000">jsonb[2147483647]</text>
<polygon fill="none" stroke="#000000" points="202.5,-284.7 202.5,-306.7 452.5,-306.7 452.5,-284.7 202.5,-284.7"/>
<image xlink:href="../../images/foreignKeys.png" width="11px" height="12px" preserveAspectRatio="xMinYMin meet" x="207.5" y="-301.7"/>
<text text-anchor="start" x="222.5" y="-291.8" font-family="Helvetica,sans-Serif" font-size="11.00" fill="#000000">accompanied_by_id</text>
<polygon fill="none" stroke="#000000" points="452.5,-284.7 452.5,-306.7 551.5,-306.7 551.5,-284.7 452.5,-284.7"/>
<text text-anchor="start" x="455.5" y="-292.4" font-family="Helvetica,sans-Serif" font-size="11.00" fill="#000000">int8[19]</text>
<polygon fill="#ffffff" stroke="transparent" points="202.5,-265.7 202.5,-284.7 331.5,-284.7 331.5,-265.7 202.5,-265.7"/>
<polygon fill="none" stroke="#000000" points="202.5,-265.7 202.5,-284.7 331.5,-284.7 331.5,-265.7 202.5,-265.7"/>
<text text-anchor="start" x="205.5" y="-271.8" font-family="Helvetica,sans-Serif" font-size="11.00" fill="#000000">&lt; 6</text>
<polygon fill="#ffffff" stroke="transparent" points="331.5,-265.7 331.5,-284.7 452.5,-284.7 452.5,-265.7 331.5,-265.7"/>
<polygon fill="none" stroke="#000000" points="331.5,-265.7 331.5,-284.7 452.5,-284.7 452.5,-265.7 331.5,-265.7"/>
<text text-anchor="start" x="443.3862" y="-271.8" font-family="Helvetica,sans-Serif" font-size="11.00" fill="#000000"> &#160;</text>
<polygon fill="#ffffff" stroke="transparent" points="452.5,-265.7 452.5,-284.7 551.5,-284.7 551.5,-265.7 452.5,-265.7"/>
<polygon fill="none" stroke="#000000" points="452.5,-265.7 452.5,-284.7 551.5,-284.7 551.5,-265.7 452.5,-265.7"/>
<text text-anchor="start" x="532.9053" y="-271.8" font-family="Helvetica,sans-Serif" font-size="11.00" fill="#000000">1 &gt;</text>
<polygon fill="none" stroke="#000000" stroke-width="2" points="201,-264.7 201,-770.7 552,-770.7 552,-264.7 201,-264.7"/>
</a>
</g>
</g>
<!-- reference_data -->
<g id="node2" class="node">
<title>reference_data</title>
<g id="a_node2"><a xlink:href="../../tables/reference_data.html" xlink:title="reference_data" target="_top">
<polygon fill="#ffffff" stroke="transparent" points="8,-125.2 8,-274.2 151,-274.2 151,-125.2 8,-125.2"/>
<polygon fill="#f5f5f5" stroke="transparent" points="8.5,-250.7 8.5,-273.7 151.5,-273.7 151.5,-250.7 8.5,-250.7"/>
<polygon fill="none" stroke="#000000" points="8.5,-250.7 8.5,-273.7 151.5,-273.7 151.5,-250.7 8.5,-250.7"/>
<text text-anchor="start" x="13.5" y="-259.3" font-family="Helvetica,sans-Serif" font-weight="bold" font-size="11.00" fill="#000000">reference_data</text>
<text text-anchor="start" x="116.5437" y="-258.8" font-family="Helvetica,sans-Serif" font-size="11.00" fill="#000000">[table]</text>
<polygon fill="none" stroke="#000000" points="8.5,-228.7 8.5,-250.7 151.5,-250.7 151.5,-228.7 8.5,-228.7"/>
<image xlink:href="../../images/primaryKeys.png" width="11px" height="12px" preserveAspectRatio="xMinYMin meet" x="13.5" y="-245.7"/>
<text text-anchor="start" x="28.5" y="-235.8" font-family="Helvetica,sans-Serif" font-size="11.00" fill="#000000">id</text>
<polygon fill="#ffffff" stroke="transparent" points="8.5,-206.7 8.5,-228.7 151.5,-228.7 151.5,-206.7 8.5,-206.7"/>
<polygon fill="none" stroke="#000000" points="8.5,-206.7 8.5,-228.7 151.5,-228.7 151.5,-206.7 8.5,-206.7"/>
<image xlink:href="../../images/foreignKeys.png" width="11px" height="12px" preserveAspectRatio="xMinYMin meet" x="13.5" y="-223.7"/>
<text text-anchor="start" x="28.5" y="-213.8" font-family="Helvetica,sans-Serif" font-size="11.00" fill="#000000">domain</text>
<polygon fill="#ffffff" stroke="transparent" points="8.5,-184.7 8.5,-206.7 151.5,-206.7 151.5,-184.7 8.5,-184.7"/>
<polygon fill="none" stroke="#000000" points="8.5,-184.7 8.5,-206.7 151.5,-206.7 151.5,-184.7 8.5,-184.7"/>
<text text-anchor="start" x="28.5" y="-191.8" font-family="Helvetica,sans-Serif" font-size="11.00" fill="#000000">code</text>
<polygon fill="#ffffff" stroke="transparent" points="8.5,-162.7 8.5,-184.7 151.5,-184.7 151.5,-162.7 8.5,-162.7"/>
<polygon fill="none" stroke="#000000" points="8.5,-162.7 8.5,-184.7 151.5,-184.7 151.5,-162.7 8.5,-162.7"/>
<text text-anchor="start" x="28.5" y="-169.8" font-family="Helvetica,sans-Serif" font-size="11.00" fill="#000000">sequence_number</text>
<polygon fill="none" stroke="#000000" points="8.5,-143.7 8.5,-162.7 151.5,-162.7 151.5,-143.7 8.5,-143.7"/>
<text text-anchor="start" x="11.5" y="-149.8" font-family="Helvetica,sans-Serif" font-size="11.00" fill="#000000">...</text>
<polygon fill="#ffffff" stroke="transparent" points="8.5,-124.7 8.5,-143.7 70.5,-143.7 70.5,-124.7 8.5,-124.7"/>
<polygon fill="none" stroke="#000000" points="8.5,-124.7 8.5,-143.7 70.5,-143.7 70.5,-124.7 8.5,-124.7"/>
<text text-anchor="start" x="11.5" y="-130.8" font-family="Helvetica,sans-Serif" font-size="11.00" fill="#000000">&lt; 1</text>
<polygon fill="#ffffff" stroke="transparent" points="70.5,-124.7 70.5,-143.7 103.5,-143.7 103.5,-124.7 70.5,-124.7"/>
<polygon fill="none" stroke="#000000" points="70.5,-124.7 70.5,-143.7 103.5,-143.7 103.5,-124.7 70.5,-124.7"/>
<text text-anchor="start" x="94.3862" y="-130.8" font-family="Helvetica,sans-Serif" font-size="11.00" fill="#000000"> &#160;</text>
<polygon fill="#ffffff" stroke="transparent" points="103.5,-124.7 103.5,-143.7 151.5,-143.7 151.5,-124.7 103.5,-124.7"/>
<polygon fill="none" stroke="#000000" points="103.5,-124.7 103.5,-143.7 151.5,-143.7 151.5,-124.7 103.5,-124.7"/>
<text text-anchor="start" x="126.7904" y="-130.8" font-family="Helvetica,sans-Serif" font-size="11.00" fill="#000000">18 &gt;</text>
</a>
</g>
</g>
<!-- temporary_absence_authorisation&#45;&gt;reference_data -->
<g id="edge1" class="edge">
<title>temporary_absence_authorisation:w&#45;&gt;reference_data:e</title>
<path fill="none" stroke="#000000" d="M188.3659,-335.656C162.9766,-316.9476 195.3493,-239.7 151.5,-239.7"/>
<polygon fill="#000000" stroke="#000000" points="194.8086,-337.4993 201.5097,-343.1611 198.6543,-338.5997 202.5,-339.7 202.5,-339.7 202.5,-339.7 198.6543,-338.5997 203.4903,-336.2389 194.8086,-337.4993 194.8086,-337.4993"/>
<ellipse fill="none" stroke="#000000" cx="191.7321" cy="-336.6191" rx="3.2" ry="3.2"/>
</g>
<!-- temporary_absence_authorisation&#45;&gt;reference_data -->
<g id="edge2" class="edge">
<title>temporary_absence_authorisation:w&#45;&gt;reference_data:e</title>
<path fill="none" stroke="#000000" d="M188.0452,-602.5903C56.4568,-580.6171 309.5935,-239.7 151.5,-239.7"/>
<polygon fill="#000000" stroke="#000000" points="194.5235,-603.0876 202.2244,-607.2894 198.5117,-603.3938 202.5,-603.7 202.5,-603.7 202.5,-603.7 198.5117,-603.3938 202.7756,-600.1106 194.5235,-603.0876 194.5235,-603.0876"/>
<ellipse fill="none" stroke="#000000" cx="191.3329" cy="-602.8426" rx="3.2" ry="3.2"/>
</g>
<!-- temporary_absence_authorisation&#45;&gt;reference_data -->
<g id="edge3" class="edge">
<title>temporary_absence_authorisation:w&#45;&gt;reference_data:e</title>
<path fill="none" stroke="#000000" d="M188.045,-624.6601C46.8914,-602.6827 319.3078,-239.7 151.5,-239.7"/>
<polygon fill="#000000" stroke="#000000" points="194.5206,-625.1259 202.2417,-629.2907 198.5103,-625.413 202.5,-625.7 202.5,-625.7 202.5,-625.7 198.5103,-625.413 202.7583,-622.1093 194.5206,-625.1259 194.5206,-625.1259"/>
<ellipse fill="none" stroke="#000000" cx="191.3289" cy="-624.8963" rx="3.2" ry="3.2"/>
</g>
<!-- temporary_absence_authorisation&#45;&gt;reference_data -->
<g id="edge4" class="edge">
<title>temporary_absence_authorisation:w&#45;&gt;reference_data:e</title>
<path fill="none" stroke="#000000" d="M187.6938,-646.67C37.7558,-624.1439 328.8907,-239.7 151.5,-239.7"/>
<polygon fill="#000000" stroke="#000000" points="194.5193,-647.1447 202.2501,-651.2913 198.5096,-647.4224 202.5,-647.7 202.5,-647.7 202.5,-647.7 198.5096,-647.4224 202.7499,-644.1087 194.5193,-647.1447 194.5193,-647.1447"/>
<ellipse fill="none" stroke="#000000" cx="191.327" cy="-646.9226" rx="3.2" ry="3.2"/>
</g>
<!-- temporary_absence_authorisation&#45;&gt;reference_data -->
<g id="edge5" class="edge">
<title>temporary_absence_authorisation:w&#45;&gt;reference_data:e</title>
<path fill="none" stroke="#000000" d="M188.6154,-290.9255C173.0899,-277.3831 179.1146,-239.7 151.5,-239.7"/>
<polygon fill="#000000" stroke="#000000" points="194.9348,-293.0985 201.3293,-299.1043 198.7174,-294.3992 202.5,-295.7 202.5,-295.7 202.5,-295.7 198.7174,-294.3992 203.6707,-292.2957 194.9348,-293.0985 194.9348,-293.0985"/>
<ellipse fill="none" stroke="#000000" cx="191.9087" cy="-292.0579" rx="3.2" ry="3.2"/>
</g>
<!-- temporary_absence_authorisation&#45;&gt;reference_data -->
<g id="edge6" class="edge">
<title>temporary_absence_authorisation:w&#45;&gt;reference_data:e</title>
<path fill="none" stroke="#000000" d="M188.0021,-558.4107C75.5505,-536.3907 290.1728,-239.7 151.5,-239.7"/>
<polygon fill="#000000" stroke="#000000" points="194.5314,-558.9913 202.1811,-563.2858 198.5157,-559.3456 202.5,-559.7 202.5,-559.7 202.5,-559.7 198.5157,-559.3456 202.8189,-556.1142 194.5314,-558.9913 194.5314,-558.9913"/>
<ellipse fill="none" stroke="#000000" cx="191.344" cy="-558.7078" rx="3.2" ry="3.2"/>
</g>
<!-- temporary_absence_occurrence -->
<g id="node3" class="node">
<title>temporary_absence_occurrence</title>
<g id="a_node3"><a xlink:href="../../tables/temporary_absence_occurrence.html" xlink:title="temporary_absence_occurrence" target="_top">
<polygon fill="#ffffff" stroke="transparent" points="602,-38.2 602,-385.2 854,-385.2 854,-38.2 602,-38.2"/>
<polygon fill="#f5f5f5" stroke="transparent" points="602,-361.7 602,-384.7 854,-384.7 854,-361.7 602,-361.7"/>
<polygon fill="none" stroke="#000000" points="602,-361.7 602,-384.7 854,-384.7 854,-361.7 602,-361.7"/>
<text text-anchor="start" x="607" y="-370.3" font-family="Helvetica,sans-Serif" font-weight="bold" font-size="11.00" fill="#000000">temporary_absence_occurrence</text>
<text text-anchor="start" x="819.5219" y="-369.8" font-family="Helvetica,sans-Serif" font-size="11.00" fill="#000000">[table]</text>
<polygon fill="none" stroke="#000000" points="602,-339.7 602,-361.7 854,-361.7 854,-339.7 602,-339.7"/>
<image xlink:href="../../images/primaryKeys.png" width="11px" height="12px" preserveAspectRatio="xMinYMin meet" x="607" y="-356.7"/>
<text text-anchor="start" x="631" y="-346.8" font-family="Helvetica,sans-Serif" font-size="11.00" fill="#000000">id</text>
<polygon fill="#ffffff" stroke="transparent" points="602,-317.7 602,-339.7 854,-339.7 854,-317.7 602,-317.7"/>
<polygon fill="none" stroke="#000000" points="602,-317.7 602,-339.7 854,-339.7 854,-317.7 602,-317.7"/>
<text text-anchor="start" x="631" y="-324.8" font-family="Helvetica,sans-Serif" font-size="11.00" fill="#000000">person_identifier</text>
<polygon fill="#ffffff" stroke="transparent" points="602,-295.7 602,-317.7 854,-317.7 854,-295.7 602,-295.7"/>
<polygon fill="none" stroke="#000000" points="602,-295.7 602,-317.7 854,-317.7 854,-295.7 602,-295.7"/>
<image xlink:href="../../images/foreignKeys.png" width="11px" height="12px" preserveAspectRatio="xMinYMin meet" x="607" y="-312.7"/>
<text text-anchor="start" x="631" y="-302.8" font-family="Helvetica,sans-Serif" font-size="11.00" fill="#000000">authorisation_id</text>
<polygon fill="#ffffff" stroke="transparent" points="602,-273.7 602,-295.7 854,-295.7 854,-273.7 602,-273.7"/>
<polygon fill="none" stroke="#000000" points="602,-273.7 602,-295.7 854,-295.7 854,-273.7 602,-273.7"/>
<text text-anchor="start" x="631" y="-280.8" font-family="Helvetica,sans-Serif" font-size="11.00" fill="#000000">release_at</text>
<polygon fill="#ffffff" stroke="transparent" points="602,-251.7 602,-273.7 854,-273.7 854,-251.7 602,-251.7"/>
<polygon fill="none" stroke="#000000" points="602,-251.7 602,-273.7 854,-273.7 854,-251.7 602,-251.7"/>
<text text-anchor="start" x="631" y="-258.8" font-family="Helvetica,sans-Serif" font-size="11.00" fill="#000000">return_by</text>
<polygon fill="none" stroke="#000000" points="602,-229.7 602,-251.7 854,-251.7 854,-229.7 602,-229.7"/>
<image xlink:href="../../images/foreignKeys.png" width="11px" height="12px" preserveAspectRatio="xMinYMin meet" x="607" y="-246.7"/>
<text text-anchor="start" x="631" y="-236.8" font-family="Helvetica,sans-Serif" font-size="11.00" fill="#000000">accompanied_by_id</text>
<polygon fill="none" stroke="#000000" points="602,-207.7 602,-229.7 854,-229.7 854,-207.7 602,-207.7"/>
<image xlink:href="../../images/foreignKeys.png" width="11px" height="12px" preserveAspectRatio="xMinYMin meet" x="607" y="-224.7"/>
<text text-anchor="start" x="631" y="-214.8" font-family="Helvetica,sans-Serif" font-size="11.00" fill="#000000">transport_id</text>
<polygon fill="#ffffff" stroke="transparent" points="602,-185.7 602,-207.7 854,-207.7 854,-185.7 602,-185.7"/>
<polygon fill="none" stroke="#000000" points="602,-185.7 602,-207.7 854,-207.7 854,-185.7 602,-185.7"/>
<text text-anchor="start" x="631" y="-192.8" font-family="Helvetica,sans-Serif" font-size="11.00" fill="#000000">legacy_id</text>
<polygon fill="none" stroke="#000000" points="602,-163.7 602,-185.7 854,-185.7 854,-163.7 602,-163.7"/>
<image xlink:href="../../images/foreignKeys.png" width="11px" height="12px" preserveAspectRatio="xMinYMin meet" x="607" y="-180.7"/>
<text text-anchor="start" x="631" y="-170.8" font-family="Helvetica,sans-Serif" font-size="11.00" fill="#000000">absence_type_id</text>
<polygon fill="none" stroke="#000000" points="602,-141.7 602,-163.7 854,-163.7 854,-141.7 602,-141.7"/>
<image xlink:href="../../images/foreignKeys.png" width="11px" height="12px" preserveAspectRatio="xMinYMin meet" x="607" y="-158.7"/>
<text text-anchor="start" x="631" y="-148.8" font-family="Helvetica,sans-Serif" font-size="11.00" fill="#000000">absence_sub_type_id</text>
<polygon fill="none" stroke="#000000" points="602,-119.7 602,-141.7 854,-141.7 854,-119.7 602,-119.7"/>
<image xlink:href="../../images/foreignKeys.png" width="11px" height="12px" preserveAspectRatio="xMinYMin meet" x="607" y="-136.7"/>
<text text-anchor="start" x="631" y="-126.8" font-family="Helvetica,sans-Serif" font-size="11.00" fill="#000000">absence_reason_category_id</text>
<polygon fill="none" stroke="#000000" points="602,-97.7 602,-119.7 854,-119.7 854,-97.7 602,-97.7"/>
<image xlink:href="../../images/foreignKeys.png" width="11px" height="12px" preserveAspectRatio="xMinYMin meet" x="607" y="-114.7"/>
<text text-anchor="start" x="631" y="-104.8" font-family="Helvetica,sans-Serif" font-size="11.00" fill="#000000">absence_reason_id</text>
<polygon fill="none" stroke="#000000" points="602,-75.7 602,-97.7 854,-97.7 854,-75.7 602,-75.7"/>
<image xlink:href="../../images/foreignKeys.png" width="11px" height="12px" preserveAspectRatio="xMinYMin meet" x="607" y="-92.7"/>
<text text-anchor="start" x="631" y="-82.8" font-family="Helvetica,sans-Serif" font-size="11.00" fill="#000000">status_id</text>
<polygon fill="none" stroke="#000000" points="602,-56.7 602,-75.7 854,-75.7 854,-56.7 602,-56.7"/>
<text text-anchor="start" x="605" y="-62.8" font-family="Helvetica,sans-Serif" font-size="11.00" fill="#000000">...</text>
<polygon fill="#ffffff" stroke="transparent" points="602,-37.7 602,-56.7 722,-56.7 722,-37.7 602,-37.7"/>
<polygon fill="none" stroke="#000000" points="602,-37.7 602,-56.7 722,-56.7 722,-37.7 602,-37.7"/>
<text text-anchor="start" x="605" y="-43.8" font-family="Helvetica,sans-Serif" font-size="11.00" fill="#000000">&lt; 8</text>
<polygon fill="#ffffff" stroke="transparent" points="722,-37.7 722,-56.7 783,-56.7 783,-37.7 722,-37.7"/>
<polygon fill="none" stroke="#000000" points="722,-37.7 722,-56.7 783,-56.7 783,-37.7 722,-37.7"/>
<text text-anchor="start" x="773.8862" y="-43.8" font-family="Helvetica,sans-Serif" font-size="11.00" fill="#000000"> &#160;</text>
<polygon fill="#ffffff" stroke="transparent" points="783,-37.7 783,-56.7 854,-56.7 854,-37.7 783,-37.7"/>
<polygon fill="none" stroke="#000000" points="783,-37.7 783,-56.7 854,-56.7 854,-37.7 783,-37.7"/>
<text text-anchor="start" x="835.4053" y="-43.8" font-family="Helvetica,sans-Serif" font-size="11.00" fill="#000000">1 &gt;</text>
</a>
</g>
</g>
<!-- temporary_absence_occurrence&#45;&gt;temporary_absence_authorisation -->
<g id="edge12" class="edge">
<title>temporary_absence_occurrence:w&#45;&gt;temporary_absence_authorisation:e</title>
<path fill="none" stroke="#000000" d="M587.8882,-310.673C521.274,-353.9214 642.0546,-735.7 551.5,-735.7"/>
<polygon fill="#000000" stroke="#000000" points="594.2994,-308.8681 602.9756,-310.1653 598.1497,-307.784 602,-306.7 602,-306.7 602,-306.7 598.1497,-307.784 601.0244,-303.2347 594.2994,-308.8681 594.2994,-308.8681"/>
<ellipse fill="none" stroke="#000000" cx="591.2191" cy="-309.7353" rx="3.2" ry="3.2"/>
</g>
<!-- temporary_absence_occurrence&#45;&gt;reference_data -->
<g id="edge7" class="edge">
<title>temporary_absence_occurrence:w&#45;&gt;reference_data:e</title>
<path fill="none" stroke="#000000" d="M587.5893,-130.4753C487.4296,-127.6459 263.6938,-99.8652 192,-148.7 155.4124,-173.6219 195.7691,-239.7 151.5,-239.7"/>
<polygon fill="#000000" stroke="#000000" points="594.001,-130.5752 601.9438,-134.2996 598.0005,-130.6376 602,-130.7 602,-130.7 602,-130.7 598.0005,-130.6376 602.0562,-127.1004 594.001,-130.5752 594.001,-130.5752"/>
<ellipse fill="none" stroke="#000000" cx="590.8014" cy="-130.5253" rx="3.2" ry="3.2"/>
</g>
<!-- temporary_absence_occurrence&#45;&gt;reference_data -->
<g id="edge8" class="edge">
<title>temporary_absence_occurrence:w&#45;&gt;reference_data:e</title>
<path fill="none" stroke="#000000" d="M587.5839,-108.3939C487.2973,-104.5285 261.729,-66.2039 192,-117.7 146.0425,-151.6404 208.6319,-239.7 151.5,-239.7"/>
<polygon fill="#000000" stroke="#000000" points="594.0018,-108.5301 601.9236,-112.2992 598.0009,-108.6151 602,-108.7 602,-108.7 602,-108.7 598.0009,-108.6151 602.0764,-105.1008 594.0018,-108.5301 594.0018,-108.5301"/>
<ellipse fill="none" stroke="#000000" cx="590.8025" cy="-108.4622" rx="3.2" ry="3.2"/>
</g>
<!-- temporary_absence_occurrence&#45;&gt;reference_data -->
<g id="edge9" class="edge">
<title>temporary_absence_occurrence:w&#45;&gt;reference_data:e</title>
<path fill="none" stroke="#000000" d="M587.2962,-152.5385C487.2326,-150.5578 266.7557,-131.7668 192,-175.7 162.9792,-192.7552 185.1613,-239.7 151.5,-239.7"/>
<polygon fill="#000000" stroke="#000000" points="594.0005,-152.6121 601.9604,-156.2998 598.0002,-152.6561 602,-152.7 602,-152.7 602,-152.7 598.0002,-152.6561 602.0396,-149.1002 594.0005,-152.6121 594.0005,-152.6121"/>
<ellipse fill="none" stroke="#000000" cx="590.8007" cy="-152.5769" rx="3.2" ry="3.2"/>
</g>
<!-- temporary_absence_occurrence&#45;&gt;reference_data -->
<g id="edge10" class="edge">
<title>temporary_absence_occurrence:w&#45;&gt;reference_data:e</title>
<path fill="none" stroke="#000000" d="M587.3243,-174.6475C487.671,-174.02 271.7815,-168.5707 192,-202.7 169.5842,-212.2891 175.8807,-239.7 151.5,-239.7"/>
<polygon fill="#000000" stroke="#000000" points="594.0001,-174.6713 601.9871,-178.3 598,-174.6857 602,-174.7 602,-174.7 602,-174.7 598,-174.6857 602.0129,-171.1 594.0001,-174.6713 594.0001,-174.6713"/>
<ellipse fill="none" stroke="#000000" cx="590.8001" cy="-174.6598" rx="3.2" ry="3.2"/>
</g>
<!-- temporary_absence_occurrence&#45;&gt;reference_data -->
<g id="edge11" class="edge">
<title>temporary_absence_occurrence:w&#45;&gt;reference_data:e</title>
<path fill="none" stroke="#000000" d="M587.5994,-240.6982C399.2437,-240.6518 346.8345,-239.7 151.5,-239.7"/>
<polygon fill="#000000" stroke="#000000" points="594,-240.699 601.9995,-244.3 598,-240.6995 602,-240.7 602,-240.7 602,-240.7 598,-240.6995 602.0005,-237.1 594,-240.699 594,-240.699"/>
<ellipse fill="none" stroke="#000000" cx="590.8" cy="-240.6986" rx="3.2" ry="3.2"/>
</g>
<!-- temporary_absence_occurrence&#45;&gt;reference_data -->
<g id="edge13" class="edge">
<title>temporary_absence_occurrence:w&#45;&gt;reference_data:e</title>
<path fill="none" stroke="#000000" d="M587.5294,-86.47C415.2488,-80.9903 332.4354,19.5777 192,-88.7 136.9735,-131.1262 220.9831,-239.7 151.5,-239.7"/>
<polygon fill="#000000" stroke="#000000" points="594.001,-86.5728 601.9428,-90.2995 598.0005,-86.6364 602,-86.7 602,-86.7 602,-86.7 598.0005,-86.6364 602.0572,-83.1005 594.001,-86.5728 594.001,-86.5728"/>
<ellipse fill="none" stroke="#000000" cx="590.8014" cy="-86.5219" rx="3.2" ry="3.2"/>
</g>
<!-- temporary_absence_occurrence&#45;&gt;reference_data -->
<g id="edge14" class="edge">
<title>temporary_absence_occurrence:w&#45;&gt;reference_data:e</title>
<path fill="none" stroke="#000000" d="M587.5957,-218.7156C417.0588,-219.0925 369.1915,-226.2502 192,-236.7 173.982,-237.7626 169.5493,-239.7 151.5,-239.7"/>
<polygon fill="#000000" stroke="#000000" points="594,-218.7087 602.0039,-222.3 598,-218.7044 602,-218.7 602,-218.7 602,-218.7 598,-218.7044 601.9961,-215.1 594,-218.7087 594,-218.7087"/>
<ellipse fill="none" stroke="#000000" cx="590.8" cy="-218.7122" rx="3.2" ry="3.2"/>
</g>
</g>
</svg>
