<?xml version="1.0" encoding="UTF-8" standalone="no"?>
<!DOCTYPE svg PUBLIC "-//W3C//DTD SVG 1.1//EN"
 "http://www.w3.org/Graphics/SVG/1.1/DTD/svg11.dtd">
<!-- Generated by graphviz version 2.40.1 (20161225.0304)
 -->
<!-- Title: twoDegreesRelationshipsDiagram Pages: 1 -->
<svg width="1410pt" height="795pt"
 viewBox="0.00 0.00 1410.00 794.70" xmlns="http://www.w3.org/2000/svg" xmlns:xlink="http://www.w3.org/1999/xlink">
<g id="graph0" class="graph" transform="scale(1 1) rotate(0) translate(4 790.7)">
<title>twoDegreesRelationshipsDiagram</title>
<polygon fill="#ffffff" stroke="transparent" points="-4,4 -4,-790.7 1406,-790.7 1406,4 -4,4"/>
<text text-anchor="middle" x="72.4936" y="-7.3" font-family="Helvetica,sans-Serif" font-size="11.00" fill="#000000">Generated by SchemaSpy</text>
<!-- reference_data -->
<g id="node1" class="node">
<title>reference_data</title>
<g id="a_node1"><a xlink:href="../../tables/reference_data.html" xlink:title="reference_data" target="_top">
<polygon fill="#ffffff" stroke="transparent" points="253,-509.7 253,-570.7 393,-570.7 393,-509.7 253,-509.7"/>
<polygon fill="#f5f5f5" stroke="transparent" points="253,-547.2 253,-570.2 393,-570.2 393,-547.2 253,-547.2"/>
<polygon fill="none" stroke="#000000" points="253,-547.2 253,-570.2 393,-570.2 393,-547.2 253,-547.2"/>
<text text-anchor="start" x="258" y="-555.8" font-family="Helvetica,sans-Serif" font-weight="bold" font-size="11.00" fill="#000000">reference_data</text>
<text text-anchor="start" x="358.5219" y="-555.3" font-family="Helvetica,sans-Serif" font-size="11.00" fill="#000000">[table]</text>
<polygon fill="none" stroke="#000000" points="253,-528.2 253,-547.2 393,-547.2 393,-528.2 253,-528.2"/>
<text text-anchor="start" x="256" y="-534.3" font-family="Helvetica,sans-Serif" font-size="11.00" fill="#000000">...</text>
<polygon fill="#ffffff" stroke="transparent" points="253,-509.2 253,-528.2 295,-528.2 295,-509.2 253,-509.2"/>
<polygon fill="none" stroke="#000000" points="253,-509.2 253,-528.2 295,-528.2 295,-509.2 253,-509.2"/>
<text text-anchor="start" x="256" y="-515.3" font-family="Helvetica,sans-Serif" font-size="11.00" fill="#000000">&lt; 1</text>
<polygon fill="#ffffff" stroke="transparent" points="295,-509.2 295,-528.2 355,-528.2 355,-509.2 295,-509.2"/>
<polygon fill="none" stroke="#000000" points="295,-509.2 295,-528.2 355,-528.2 355,-509.2 295,-509.2"/>
<text text-anchor="start" x="307.3807" y="-515.3" font-family="Helvetica,sans-Serif" font-size="11.00" fill="#000000">157 rows</text>
<polygon fill="#ffffff" stroke="transparent" points="355,-509.2 355,-528.2 393,-528.2 393,-509.2 355,-509.2"/>
<polygon fill="none" stroke="#000000" points="355,-509.2 355,-528.2 393,-528.2 393,-509.2 355,-509.2"/>
<text text-anchor="start" x="368.2904" y="-515.3" font-family="Helvetica,sans-Serif" font-size="11.00" fill="#000000">18 &gt;</text>
</a>
</g>
</g>
<!-- reference_data_domain -->
<g id="node2" class="node">
<title>reference_data_domain</title>
<g id="a_node2"><a xlink:href="../../tables/reference_data_domain.html" xlink:title="reference_data_domain" target="_top">
<polygon fill="#ffffff" stroke="transparent" points="8,-578.7 8,-639.7 204,-639.7 204,-578.7 8,-578.7"/>
<polygon fill="#f5f5f5" stroke="transparent" points="8,-616.2 8,-639.2 204,-639.2 204,-616.2 8,-616.2"/>
<polygon fill="none" stroke="#000000" points="8,-616.2 8,-639.2 204,-639.2 204,-616.2 8,-616.2"/>
<text text-anchor="start" x="13" y="-624.8" font-family="Helvetica,sans-Serif" font-weight="bold" font-size="11.00" fill="#000000">reference_data_domain</text>
<text text-anchor="start" x="169.5219" y="-624.3" font-family="Helvetica,sans-Serif" font-size="11.00" fill="#000000">[table]</text>
<polygon fill="none" stroke="#000000" points="8,-597.2 8,-616.2 204,-616.2 204,-597.2 8,-597.2"/>
<text text-anchor="start" x="11" y="-603.3" font-family="Helvetica,sans-Serif" font-size="11.00" fill="#000000">...</text>
<polygon fill="#ffffff" stroke="transparent" points="8,-578.2 8,-597.2 95,-597.2 95,-578.2 8,-578.2"/>
<polygon fill="none" stroke="#000000" points="8,-578.2 8,-597.2 95,-597.2 95,-578.2 8,-578.2"/>
<text text-anchor="start" x="11" y="-584.3" font-family="Helvetica,sans-Serif" font-size="11.00" fill="#000000"> &#160;</text>
<polygon fill="#ffffff" stroke="transparent" points="95,-578.2 95,-597.2 145,-597.2 145,-578.2 95,-578.2"/>
<polygon fill="none" stroke="#000000" points="95,-578.2 95,-597.2 145,-597.2 145,-578.2 95,-578.2"/>
<text text-anchor="start" x="135.8862" y="-584.3" font-family="Helvetica,sans-Serif" font-size="11.00" fill="#000000"> &#160;</text>
<polygon fill="#ffffff" stroke="transparent" points="145,-578.2 145,-597.2 204,-597.2 204,-578.2 145,-578.2"/>
<polygon fill="none" stroke="#000000" points="145,-578.2 145,-597.2 204,-597.2 204,-578.2 145,-578.2"/>
<text text-anchor="start" x="185.4053" y="-584.3" font-family="Helvetica,sans-Serif" font-size="11.00" fill="#000000">2 &gt;</text>
</a>
</g>
</g>
<!-- reference_data&#45;&gt;reference_data_domain -->
<g id="edge1" class="edge">
<title>reference_data:w&#45;&gt;reference_data_domain:e</title>
<path fill="none" stroke="#000000" d="M271.8997,-583.0411C251.978,-595.6806 228.145,-606.2 204,-606.2"/>
<polygon fill="#000000" stroke="#000000" points="277.4654,-579.2501 286.1039,-577.7217 280.7713,-576.9982 284.0773,-574.7464 284.0773,-574.7464 284.0773,-574.7464 280.7713,-576.9982 282.0506,-571.771 277.4654,-579.2501 277.4654,-579.2501"/>
<ellipse fill="none" stroke="#000000" cx="274.8206" cy="-581.0515" rx="3.2" ry="3.2"/>
</g>
<!-- reference_data_domain_link -->
<g id="node3" class="node">
<title>reference_data_domain_link</title>
<g id="a_node3"><a xlink:href="../../tables/reference_data_domain_link.html" xlink:title="reference_data_domain_link" target="_top">
<polygon fill="#ffffff" stroke="transparent" points="505,-721.7 505,-782.7 732,-782.7 732,-721.7 505,-721.7"/>
<polygon fill="#f5f5f5" stroke="transparent" points="505.5,-759.2 505.5,-782.2 732.5,-782.2 732.5,-759.2 505.5,-759.2"/>
<polygon fill="none" stroke="#000000" points="505.5,-759.2 505.5,-782.2 732.5,-782.2 732.5,-759.2 505.5,-759.2"/>
<text text-anchor="start" x="510.5" y="-767.8" font-family="Helvetica,sans-Serif" font-weight="bold" font-size="11.00" fill="#000000">reference_data_domain_link</text>
<text text-anchor="start" x="698.0219" y="-767.3" font-family="Helvetica,sans-Serif" font-size="11.00" fill="#000000">[table]</text>
<polygon fill="none" stroke="#000000" points="505.5,-740.2 505.5,-759.2 732.5,-759.2 732.5,-740.2 505.5,-740.2"/>
<text text-anchor="start" x="508.5" y="-746.3" font-family="Helvetica,sans-Serif" font-size="11.00" fill="#000000">...</text>
<polygon fill="#ffffff" stroke="transparent" points="505.5,-721.2 505.5,-740.2 617.5,-740.2 617.5,-721.2 505.5,-721.2"/>
<polygon fill="none" stroke="#000000" points="505.5,-721.2 505.5,-740.2 617.5,-740.2 617.5,-721.2 505.5,-721.2"/>
<text text-anchor="start" x="508.5" y="-727.3" font-family="Helvetica,sans-Serif" font-size="11.00" fill="#000000">&lt; 2</text>
<polygon fill="#ffffff" stroke="transparent" points="617.5,-721.2 617.5,-740.2 674.5,-740.2 674.5,-721.2 617.5,-721.2"/>
<polygon fill="none" stroke="#000000" points="617.5,-721.2 617.5,-740.2 674.5,-740.2 674.5,-721.2 617.5,-721.2"/>
<text text-anchor="start" x="665.3862" y="-727.3" font-family="Helvetica,sans-Serif" font-size="11.00" fill="#000000"> &#160;</text>
<polygon fill="#ffffff" stroke="transparent" points="674.5,-721.2 674.5,-740.2 732.5,-740.2 732.5,-721.2 674.5,-721.2"/>
<polygon fill="none" stroke="#000000" points="674.5,-721.2 674.5,-740.2 732.5,-740.2 732.5,-721.2 674.5,-721.2"/>
<text text-anchor="start" x="723.3862" y="-727.3" font-family="Helvetica,sans-Serif" font-size="11.00" fill="#000000"> &#160;</text>
</a>
</g>
</g>
<!-- reference_data_domain_link&#45;&gt;reference_data -->
<g id="edge3" class="edge">
<title>reference_data_domain_link:w&#45;&gt;reference_data:e</title>
<path fill="none" stroke="#000000" d="M494.9624,-748.7468C467.4234,-746.1946 457.7339,-732.9484 434,-711.2 431.048,-708.495 376.7822,-624.1333 345.2392,-574.9348"/>
<polygon fill="#000000" stroke="#000000" points="504.8726,-745.1693 504.5288,-753.1619 502.9303,-753.0932 503.2741,-745.1006 504.8726,-745.1693"/>
<polyline fill="none" stroke="#000000" points="505.5,-749.2 501.5037,-749.0281 "/>
<ellipse fill="none" stroke="#000000" cx="498.3066" cy="-748.8906" rx="3.2" ry="3.2"/>
</g>
<!-- reference_data_domain_link&#45;&gt;reference_data_domain -->
<g id="edge2" class="edge">
<title>reference_data_domain_link:w&#45;&gt;reference_data_domain:e</title>
<path fill="none" stroke="#000000" d="M490.7838,-748.7102C356.6904,-739.5917 347.239,-606.2 204,-606.2"/>
<polygon fill="#000000" stroke="#000000" points="497.5044,-748.9339 505.3802,-752.798 501.5022,-749.0669 505.5,-749.2 505.5,-749.2 505.5,-749.2 501.5022,-749.0669 505.6198,-745.602 497.5044,-748.9339 497.5044,-748.9339"/>
<ellipse fill="none" stroke="#000000" cx="494.3062" cy="-748.8274" rx="3.2" ry="3.2"/>
</g>
<!-- reference_data_link -->
<g id="node4" class="node">
<title>reference_data_link</title>
<g id="a_node4"><a xlink:href="../../tables/reference_data_link.html" xlink:title="reference_data_link" target="_top">
<polygon fill="#ffffff" stroke="transparent" points="533,-639.7 533,-700.7 704,-700.7 704,-639.7 533,-639.7"/>
<polygon fill="#f5f5f5" stroke="transparent" points="533.5,-677.2 533.5,-700.2 704.5,-700.2 704.5,-677.2 533.5,-677.2"/>
<polygon fill="none" stroke="#000000" points="533.5,-677.2 533.5,-700.2 704.5,-700.2 704.5,-677.2 533.5,-677.2"/>
<text text-anchor="start" x="538.5" y="-685.8" font-family="Helvetica,sans-Serif" font-weight="bold" font-size="11.00" fill="#000000">reference_data_link</text>
<text text-anchor="start" x="670.0219" y="-685.3" font-family="Helvetica,sans-Serif" font-size="11.00" fill="#000000">[table]</text>
<polygon fill="none" stroke="#000000" points="533.5,-658.2 533.5,-677.2 704.5,-677.2 704.5,-658.2 533.5,-658.2"/>
<text text-anchor="start" x="536.5" y="-664.3" font-family="Helvetica,sans-Serif" font-size="11.00" fill="#000000">...</text>
<polygon fill="#ffffff" stroke="transparent" points="533.5,-639.2 533.5,-658.2 601.5,-658.2 601.5,-639.2 533.5,-639.2"/>
<polygon fill="none" stroke="#000000" points="533.5,-639.2 533.5,-658.2 601.5,-658.2 601.5,-639.2 533.5,-639.2"/>
<text text-anchor="start" x="536.5" y="-645.3" font-family="Helvetica,sans-Serif" font-size="11.00" fill="#000000">&lt; 2</text>
<polygon fill="#ffffff" stroke="transparent" points="601.5,-639.2 601.5,-658.2 668.5,-658.2 668.5,-639.2 601.5,-639.2"/>
<polygon fill="none" stroke="#000000" points="601.5,-639.2 601.5,-658.2 668.5,-658.2 668.5,-639.2 601.5,-639.2"/>
<text text-anchor="start" x="626.9956" y="-645.3" font-family="Helvetica,sans-Serif" font-size="11.00" fill="#000000">64 rows</text>
<polygon fill="#ffffff" stroke="transparent" points="668.5,-639.2 668.5,-658.2 704.5,-658.2 704.5,-639.2 668.5,-639.2"/>
<polygon fill="none" stroke="#000000" points="668.5,-639.2 668.5,-658.2 704.5,-658.2 704.5,-639.2 668.5,-639.2"/>
<text text-anchor="start" x="695.3862" y="-645.3" font-family="Helvetica,sans-Serif" font-size="11.00" fill="#000000"> &#160;</text>
</a>
</g>
</g>
<!-- reference_data_link&#45;&gt;reference_data -->
<g id="edge4" class="edge">
<title>reference_data_link:w&#45;&gt;reference_data:e</title>
<path fill="none" stroke="#000000" d="M518.9709,-665.7028C455.2178,-656.1339 395.6788,-608.5965 359.3335,-574.8118"/>
<polygon fill="#000000" stroke="#000000" points="525.5421,-666.3799 533.131,-670.781 529.5211,-666.79 533.5,-667.2 533.5,-667.2 533.5,-667.2 529.5211,-666.79 533.869,-663.619 525.5421,-666.3799 525.5421,-666.3799"/>
<ellipse fill="none" stroke="#000000" cx="522.359" cy="-666.0519" rx="3.2" ry="3.2"/>
</g>
<!-- reference_data_link&#45;&gt;reference_data -->
<g id="edge5" class="edge">
<title>reference_data_link:w&#45;&gt;reference_data:e</title>
<path fill="none" stroke="#000000" d="M518.6783,-667.3487C449.5339,-664.3859 385.3826,-611.5414 350.4526,-574.8394"/>
<polygon fill="#000000" stroke="#000000" points="525.5004,-667.2803 533.5361,-670.7998 529.5002,-667.2401 533.5,-667.2 533.5,-667.2 533.5,-667.2 529.5002,-667.2401 533.4639,-663.6002 525.5004,-667.2803 525.5004,-667.2803"/>
<ellipse fill="none" stroke="#000000" cx="522.3006" cy="-667.3124" rx="3.2" ry="3.2"/>
</g>
<!-- temporary_absence_authorisation -->
<g id="node5" class="node">
<title>temporary_absence_authorisation</title>
<g id="a_node5"><a xlink:href="../../tables/temporary_absence_authorisation.html" xlink:title="temporary_absence_authorisation" target="_top">
<polygon fill="#ffffff" stroke="transparent" points="442,-38.2 442,-480.2 795,-480.2 795,-38.2 442,-38.2"/>
<polygon fill="#f5f5f5" stroke="transparent" points="444.5,-455.2 444.5,-478.2 793.5,-478.2 793.5,-455.2 444.5,-455.2"/>
<polygon fill="none" stroke="#000000" points="444.5,-455.2 444.5,-478.2 793.5,-478.2 793.5,-455.2 444.5,-455.2"/>
<text text-anchor="start" x="449.5" y="-463.8" font-family="Helvetica,sans-Serif" font-weight="bold" font-size="11.00" fill="#000000">temporary_absence_authorisation</text>
<text text-anchor="start" x="758.5437" y="-463.3" font-family="Helvetica,sans-Serif" font-size="11.00" fill="#000000">[table]</text>
<polygon fill="none" stroke="#000000" points="444.5,-433.2 444.5,-455.2 694.5,-455.2 694.5,-433.2 444.5,-433.2"/>
<image xlink:href="../../images/primaryKeys.png" width="11px" height="12px" preserveAspectRatio="xMinYMin meet" x="449.5" y="-450.2"/>
<text text-anchor="start" x="464.5" y="-440.3" font-family="Helvetica,sans-Serif" font-size="11.00" fill="#000000">id</text>
<polygon fill="none" stroke="#000000" points="694.5,-433.2 694.5,-455.2 793.5,-455.2 793.5,-433.2 694.5,-433.2"/>
<text text-anchor="start" x="697.5" y="-440.9" font-family="Helvetica,sans-Serif" font-size="11.00" fill="#000000">uuid[2147483647]</text>
<polygon fill="none" stroke="#000000" points="444.5,-411.2 444.5,-433.2 694.5,-433.2 694.5,-411.2 444.5,-411.2"/>
<text text-anchor="start" x="464.5" y="-418.3" font-family="Helvetica,sans-Serif" font-size="11.00" fill="#000000">version</text>
<polygon fill="none" stroke="#000000" points="694.5,-411.2 694.5,-433.2 793.5,-433.2 793.5,-411.2 694.5,-411.2"/>
<text text-anchor="start" x="697.5" y="-418.9" font-family="Helvetica,sans-Serif" font-size="11.00" fill="#000000">int4[10]</text>
<polygon fill="#ffffff" stroke="transparent" points="444.5,-389.2 444.5,-411.2 694.5,-411.2 694.5,-389.2 444.5,-389.2"/>
<polygon fill="none" stroke="#000000" points="444.5,-389.2 444.5,-411.2 694.5,-411.2 694.5,-389.2 444.5,-389.2"/>
<text text-anchor="start" x="464.5" y="-396.3" font-family="Helvetica,sans-Serif" font-size="11.00" fill="#000000">person_identifier</text>
<polygon fill="none" stroke="#000000" points="694.5,-389.2 694.5,-411.2 793.5,-411.2 793.5,-389.2 694.5,-389.2"/>
<text text-anchor="start" x="697.5" y="-396.9" font-family="Helvetica,sans-Serif" font-size="11.00" fill="#000000">varchar[10]</text>
<polygon fill="#ffffff" stroke="transparent" points="444.5,-367.2 444.5,-389.2 694.5,-389.2 694.5,-367.2 444.5,-367.2"/>
<polygon fill="none" stroke="#000000" points="444.5,-367.2 444.5,-389.2 694.5,-389.2 694.5,-367.2 444.5,-367.2"/>
<text text-anchor="start" x="464.5" y="-374.3" font-family="Helvetica,sans-Serif" font-size="11.00" fill="#000000">prison_code</text>
<polygon fill="none" stroke="#000000" points="694.5,-367.2 694.5,-389.2 793.5,-389.2 793.5,-367.2 694.5,-367.2"/>
<text text-anchor="start" x="697.5" y="-374.9" font-family="Helvetica,sans-Serif" font-size="11.00" fill="#000000">varchar[6]</text>
<polygon fill="none" stroke="#000000" points="444.5,-345.2 444.5,-367.2 694.5,-367.2 694.5,-345.2 444.5,-345.2"/>
<image xlink:href="../../images/foreignKeys.png" width="11px" height="12px" preserveAspectRatio="xMinYMin meet" x="449.5" y="-362.2"/>
<text text-anchor="start" x="464.5" y="-352.3" font-family="Helvetica,sans-Serif" font-size="11.00" fill="#000000">absence_type_id</text>
<polygon fill="none" stroke="#000000" points="694.5,-345.2 694.5,-367.2 793.5,-367.2 793.5,-345.2 694.5,-345.2"/>
<text text-anchor="start" x="697.5" y="-352.9" font-family="Helvetica,sans-Serif" font-size="11.00" fill="#000000">int8[19]</text>
<polygon fill="none" stroke="#000000" points="444.5,-323.2 444.5,-345.2 694.5,-345.2 694.5,-323.2 444.5,-323.2"/>
<image xlink:href="../../images/foreignKeys.png" width="11px" height="12px" preserveAspectRatio="xMinYMin meet" x="449.5" y="-340.2"/>
<text text-anchor="start" x="464.5" y="-330.3" font-family="Helvetica,sans-Serif" font-size="11.00" fill="#000000">absence_sub_type_id</text>
<polygon fill="none" stroke="#000000" points="694.5,-323.2 694.5,-345.2 793.5,-345.2 793.5,-323.2 694.5,-323.2"/>
<text text-anchor="start" x="697.5" y="-330.9" font-family="Helvetica,sans-Serif" font-size="11.00" fill="#000000">int8[19]</text>
<polygon fill="none" stroke="#000000" points="444.5,-301.2 444.5,-323.2 694.5,-323.2 694.5,-301.2 444.5,-301.2"/>
<image xlink:href="../../images/foreignKeys.png" width="11px" height="12px" preserveAspectRatio="xMinYMin meet" x="449.5" y="-318.2"/>
<text text-anchor="start" x="464.5" y="-308.3" font-family="Helvetica,sans-Serif" font-size="11.00" fill="#000000">absence_reason_id</text>
<polygon fill="none" stroke="#000000" points="694.5,-301.2 694.5,-323.2 793.5,-323.2 793.5,-301.2 694.5,-301.2"/>
<text text-anchor="start" x="697.5" y="-308.9" font-family="Helvetica,sans-Serif" font-size="11.00" fill="#000000">int8[19]</text>
<polygon fill="none" stroke="#000000" points="444.5,-279.2 444.5,-301.2 694.5,-301.2 694.5,-279.2 444.5,-279.2"/>
<text text-anchor="start" x="464.5" y="-286.3" font-family="Helvetica,sans-Serif" font-size="11.00" fill="#000000">repeat</text>
<polygon fill="none" stroke="#000000" points="694.5,-279.2 694.5,-301.2 793.5,-301.2 793.5,-279.2 694.5,-279.2"/>
<text text-anchor="start" x="697.5" y="-286.9" font-family="Helvetica,sans-Serif" font-size="11.00" fill="#000000">bool[1]</text>
<polygon fill="none" stroke="#000000" points="444.5,-257.2 444.5,-279.2 694.5,-279.2 694.5,-257.2 444.5,-257.2"/>
<image xlink:href="../../images/foreignKeys.png" width="11px" height="12px" preserveAspectRatio="xMinYMin meet" x="449.5" y="-274.2"/>
<text text-anchor="start" x="464.5" y="-264.3" font-family="Helvetica,sans-Serif" font-size="11.00" fill="#000000">status_id</text>
<polygon fill="none" stroke="#000000" points="694.5,-257.2 694.5,-279.2 793.5,-279.2 793.5,-257.2 694.5,-257.2"/>
<text text-anchor="start" x="697.5" y="-264.9" font-family="Helvetica,sans-Serif" font-size="11.00" fill="#000000">int8[19]</text>
<polygon fill="none" stroke="#000000" points="444.5,-235.2 444.5,-257.2 694.5,-257.2 694.5,-235.2 444.5,-235.2"/>
<text text-anchor="start" x="464.5" y="-242.3" font-family="Helvetica,sans-Serif" font-size="11.00" fill="#000000">notes</text>
<polygon fill="none" stroke="#000000" points="694.5,-235.2 694.5,-257.2 793.5,-257.2 793.5,-235.2 694.5,-235.2"/>
<text text-anchor="start" x="697.5" y="-242.9" font-family="Helvetica,sans-Serif" font-size="11.00" fill="#000000">text[2147483647]</text>
<polygon fill="#ffffff" stroke="transparent" points="444.5,-213.2 444.5,-235.2 694.5,-235.2 694.5,-213.2 444.5,-213.2"/>
<polygon fill="none" stroke="#000000" points="444.5,-213.2 444.5,-235.2 694.5,-235.2 694.5,-213.2 444.5,-213.2"/>
<text text-anchor="start" x="464.5" y="-220.3" font-family="Helvetica,sans-Serif" font-size="11.00" fill="#000000">legacy_id</text>
<polygon fill="none" stroke="#000000" points="694.5,-213.2 694.5,-235.2 793.5,-235.2 793.5,-213.2 694.5,-213.2"/>
<text text-anchor="start" x="697.5" y="-220.9" font-family="Helvetica,sans-Serif" font-size="11.00" fill="#000000">int8[19]</text>
<polygon fill="#ffffff" stroke="transparent" points="444.5,-191.2 444.5,-213.2 694.5,-213.2 694.5,-191.2 444.5,-191.2"/>
<polygon fill="none" stroke="#000000" points="444.5,-191.2 444.5,-213.2 694.5,-213.2 694.5,-191.2 444.5,-191.2"/>
<text text-anchor="start" x="464.5" y="-198.3" font-family="Helvetica,sans-Serif" font-size="11.00" fill="#000000">from_date</text>
<polygon fill="none" stroke="#000000" points="694.5,-191.2 694.5,-213.2 793.5,-213.2 793.5,-191.2 694.5,-191.2"/>
<text text-anchor="start" x="697.5" y="-198.9" font-family="Helvetica,sans-Serif" font-size="11.00" fill="#000000">date[13]</text>
<polygon fill="#ffffff" stroke="transparent" points="444.5,-169.2 444.5,-191.2 694.5,-191.2 694.5,-169.2 444.5,-169.2"/>
<polygon fill="none" stroke="#000000" points="444.5,-169.2 444.5,-191.2 694.5,-191.2 694.5,-169.2 444.5,-169.2"/>
<text text-anchor="start" x="464.5" y="-176.3" font-family="Helvetica,sans-Serif" font-size="11.00" fill="#000000">to_date</text>
<polygon fill="none" stroke="#000000" points="694.5,-169.2 694.5,-191.2 793.5,-191.2 793.5,-169.2 694.5,-169.2"/>
<text text-anchor="start" x="697.5" y="-176.9" font-family="Helvetica,sans-Serif" font-size="11.00" fill="#000000">date[13]</text>
<polygon fill="none" stroke="#000000" points="444.5,-147.2 444.5,-169.2 694.5,-169.2 694.5,-147.2 444.5,-147.2"/>
<text text-anchor="start" x="464.5" y="-154.3" font-family="Helvetica,sans-Serif" font-size="11.00" fill="#000000">schedule</text>
<polygon fill="none" stroke="#000000" points="694.5,-147.2 694.5,-169.2 793.5,-169.2 793.5,-147.2 694.5,-147.2"/>
<text text-anchor="start" x="697.2258" y="-154.9" font-family="Helvetica,sans-Serif" font-size="11.00" fill="#000000">jsonb[2147483647]</text>
<polygon fill="none" stroke="#000000" points="444.5,-125.2 444.5,-147.2 694.5,-147.2 694.5,-125.2 444.5,-125.2"/>
<image xlink:href="../../images/foreignKeys.png" width="11px" height="12px" preserveAspectRatio="xMinYMin meet" x="449.5" y="-142.2"/>
<text text-anchor="start" x="464.5" y="-132.3" font-family="Helvetica,sans-Serif" font-size="11.00" fill="#000000">absence_reason_category_id</text>
<polygon fill="none" stroke="#000000" points="694.5,-125.2 694.5,-147.2 793.5,-147.2 793.5,-125.2 694.5,-125.2"/>
<text text-anchor="start" x="697.5" y="-132.9" font-family="Helvetica,sans-Serif" font-size="11.00" fill="#000000">int8[19]</text>
<polygon fill="none" stroke="#000000" points="444.5,-103.2 444.5,-125.2 694.5,-125.2 694.5,-103.2 444.5,-103.2"/>
<text text-anchor="start" x="464.5" y="-110.3" font-family="Helvetica,sans-Serif" font-size="11.00" fill="#000000">reason_path</text>
<polygon fill="none" stroke="#000000" points="694.5,-103.2 694.5,-125.2 793.5,-125.2 793.5,-103.2 694.5,-103.2"/>
<text text-anchor="start" x="697.2258" y="-110.9" font-family="Helvetica,sans-Serif" font-size="11.00" fill="#000000">jsonb[2147483647]</text>
<polygon fill="none" stroke="#000000" points="444.5,-81.2 444.5,-103.2 694.5,-103.2 694.5,-81.2 444.5,-81.2"/>
<image xlink:href="../../images/foreignKeys.png" width="11px" height="12px" preserveAspectRatio="xMinYMin meet" x="449.5" y="-98.2"/>
<text text-anchor="start" x="464.5" y="-88.3" font-family="Helvetica,sans-Serif" font-size="11.00" fill="#000000">accompanied_by_id</text>
<polygon fill="none" stroke="#000000" points="694.5,-81.2 694.5,-103.2 793.5,-103.2 793.5,-81.2 694.5,-81.2"/>
<text text-anchor="start" x="697.5" y="-88.9" font-family="Helvetica,sans-Serif" font-size="11.00" fill="#000000">int8[19]</text>
<polygon fill="none" stroke="#000000" points="444.5,-59.2 444.5,-81.2 694.5,-81.2 694.5,-59.2 444.5,-59.2"/>
<text text-anchor="start" x="464.5" y="-66.3" font-family="Helvetica,sans-Serif" font-size="11.00" fill="#000000">transport_id</text>
<polygon fill="none" stroke="#000000" points="694.5,-59.2 694.5,-81.2 793.5,-81.2 793.5,-59.2 694.5,-59.2"/>
<text text-anchor="start" x="697.5" y="-66.9" font-family="Helvetica,sans-Serif" font-size="11.00" fill="#000000">int8[19]</text>
<polygon fill="#ffffff" stroke="transparent" points="444.5,-40.2 444.5,-59.2 573.5,-59.2 573.5,-40.2 444.5,-40.2"/>
<polygon fill="none" stroke="#000000" points="444.5,-40.2 444.5,-59.2 573.5,-59.2 573.5,-40.2 444.5,-40.2"/>
<text text-anchor="start" x="447.5" y="-46.3" font-family="Helvetica,sans-Serif" font-size="11.00" fill="#000000">&lt; 6</text>
<polygon fill="#ffffff" stroke="transparent" points="573.5,-40.2 573.5,-59.2 694.5,-59.2 694.5,-40.2 573.5,-40.2"/>
<polygon fill="none" stroke="#000000" points="573.5,-40.2 573.5,-59.2 694.5,-59.2 694.5,-40.2 573.5,-40.2"/>
<text text-anchor="start" x="685.3862" y="-46.3" font-family="Helvetica,sans-Serif" font-size="11.00" fill="#000000"> &#160;</text>
<polygon fill="#ffffff" stroke="transparent" points="694.5,-40.2 694.5,-59.2 793.5,-59.2 793.5,-40.2 694.5,-40.2"/>
<polygon fill="none" stroke="#000000" points="694.5,-40.2 694.5,-59.2 793.5,-59.2 793.5,-40.2 694.5,-40.2"/>
<text text-anchor="start" x="774.9053" y="-46.3" font-family="Helvetica,sans-Serif" font-size="11.00" fill="#000000">1 &gt;</text>
<polygon fill="none" stroke="#000000" stroke-width="2" points="443,-39.2 443,-479.2 794,-479.2 794,-39.2 443,-39.2"/>
</a>
</g>
</g>
<!-- temporary_absence_authorisation&#45;&gt;reference_data -->
<g id="edge6" class="edge">
<title>temporary_absence_authorisation:w&#45;&gt;reference_data:e</title>
<path fill="none" stroke="#000000" d="M430.1941,-139.461C363.5937,-170.4411 334.5856,-413.7259 325.9428,-505.4055"/>
<polygon fill="#000000" stroke="#000000" points="436.7001,-137.978 445.3001,-139.71 440.6,-137.089 444.5,-136.2 444.5,-136.2 444.5,-136.2 440.6,-137.089 443.6999,-132.69 436.7001,-137.978 436.7001,-137.978"/>
<ellipse fill="none" stroke="#000000" cx="433.5801" cy="-138.6892" rx="3.2" ry="3.2"/>
</g>
<!-- temporary_absence_authorisation&#45;&gt;reference_data -->
<g id="edge7" class="edge">
<title>temporary_absence_authorisation:w&#45;&gt;reference_data:e</title>
<path fill="none" stroke="#000000" d="M429.9076,-313.4954C355.0544,-327.1603 332.4191,-445.5267 325.7253,-505.5717"/>
<polygon fill="#000000" stroke="#000000" points="436.5313,-312.9075 444.8184,-315.7859 440.5157,-312.5537 444.5,-312.2 444.5,-312.2 444.5,-312.2 440.5157,-312.5537 444.1816,-308.6141 436.5313,-312.9075 436.5313,-312.9075"/>
<ellipse fill="none" stroke="#000000" cx="433.3439" cy="-313.1904" rx="3.2" ry="3.2"/>
</g>
<!-- temporary_absence_authorisation&#45;&gt;reference_data -->
<g id="edge8" class="edge">
<title>temporary_absence_authorisation:w&#45;&gt;reference_data:e</title>
<path fill="none" stroke="#000000" d="M429.9367,-335.5549C362.3886,-348.4516 336.5725,-450.2703 327.485,-505.2549"/>
<polygon fill="#000000" stroke="#000000" points="436.5344,-334.9412 444.8335,-337.7845 440.5172,-334.5706 444.5,-334.2 444.5,-334.2 444.5,-334.2 440.5172,-334.5706 444.1665,-330.6155 436.5344,-334.9412 436.5344,-334.9412"/>
<ellipse fill="none" stroke="#000000" cx="433.3482" cy="-335.2376" rx="3.2" ry="3.2"/>
</g>
<!-- temporary_absence_authorisation&#45;&gt;reference_data -->
<g id="edge9" class="edge">
<title>temporary_absence_authorisation:w&#45;&gt;reference_data:e</title>
<path fill="none" stroke="#000000" d="M430.132,-357.5769C369.2903,-369.5012 340.9048,-456.0384 329.5112,-505.591"/>
<polygon fill="#000000" stroke="#000000" points="436.5365,-356.9632 444.8434,-359.7836 440.5182,-356.5816 444.5,-356.2 444.5,-356.2 444.5,-356.2 440.5182,-356.5816 444.1566,-352.6164 436.5365,-356.9632 436.5365,-356.9632"/>
<ellipse fill="none" stroke="#000000" cx="433.3511" cy="-357.2685" rx="3.2" ry="3.2"/>
</g>
<!-- temporary_absence_authorisation&#45;&gt;reference_data -->
<g id="edge10" class="edge">
<title>temporary_absence_authorisation:w&#45;&gt;reference_data:e</title>
<path fill="none" stroke="#000000" d="M430.0594,-95.2692C355.8559,-127.5931 331.3492,-406.327 324.9393,-505.419"/>
<polygon fill="#000000" stroke="#000000" points="436.6748,-93.8632 445.2484,-95.7213 440.5874,-93.0316 444.5,-92.2 444.5,-92.2 444.5,-92.2 440.5874,-93.0316 443.7516,-88.6787 436.6748,-93.8632 436.6748,-93.8632"/>
<ellipse fill="none" stroke="#000000" cx="433.5447" cy="-94.5285" rx="3.2" ry="3.2"/>
</g>
<!-- temporary_absence_authorisation&#45;&gt;reference_data -->
<g id="edge11" class="edge">
<title>temporary_absence_authorisation:w&#45;&gt;reference_data:e</title>
<path fill="none" stroke="#000000" d="M430.5282,-272.1477C385.1048,-297.536 346.6742,-438.8782 330.8003,-505.4747"/>
<polygon fill="#000000" stroke="#000000" points="436.8014,-270.3752 445.4789,-271.6644 440.6507,-269.2876 444.5,-268.2 444.5,-268.2 444.5,-268.2 440.6507,-269.2876 443.5211,-264.7356 436.8014,-270.3752 436.8014,-270.3752"/>
<ellipse fill="none" stroke="#000000" cx="433.722" cy="-271.2453" rx="3.2" ry="3.2"/>
</g>
<!-- temporary_absence_movement -->
<g id="node6" class="node">
<title>temporary_absence_movement</title>
<g id="a_node6"><a xlink:href="../../tables/temporary_absence_movement.html" xlink:title="temporary_absence_movement" target="_top">
<polygon fill="#ffffff" stroke="transparent" points="1145,-581.7 1145,-642.7 1394,-642.7 1394,-581.7 1145,-581.7"/>
<polygon fill="#f5f5f5" stroke="transparent" points="1145.5,-619.2 1145.5,-642.2 1394.5,-642.2 1394.5,-619.2 1145.5,-619.2"/>
<polygon fill="none" stroke="#000000" points="1145.5,-619.2 1145.5,-642.2 1394.5,-642.2 1394.5,-619.2 1145.5,-619.2"/>
<text text-anchor="start" x="1150.5" y="-627.8" font-family="Helvetica,sans-Serif" font-weight="bold" font-size="11.00" fill="#000000">temporary_absence_movement</text>
<text text-anchor="start" x="1360.0219" y="-627.3" font-family="Helvetica,sans-Serif" font-size="11.00" fill="#000000">[table]</text>
<polygon fill="none" stroke="#000000" points="1145.5,-600.2 1145.5,-619.2 1394.5,-619.2 1394.5,-600.2 1145.5,-600.2"/>
<text text-anchor="start" x="1148.5" y="-606.3" font-family="Helvetica,sans-Serif" font-size="11.00" fill="#000000">...</text>
<polygon fill="#ffffff" stroke="transparent" points="1145.5,-581.2 1145.5,-600.2 1268.5,-600.2 1268.5,-581.2 1145.5,-581.2"/>
<polygon fill="none" stroke="#000000" points="1145.5,-581.2 1145.5,-600.2 1268.5,-600.2 1268.5,-581.2 1145.5,-581.2"/>
<text text-anchor="start" x="1148.5" y="-587.3" font-family="Helvetica,sans-Serif" font-size="11.00" fill="#000000">&lt; 3</text>
<polygon fill="#ffffff" stroke="transparent" points="1268.5,-581.2 1268.5,-600.2 1331.5,-600.2 1331.5,-581.2 1268.5,-581.2"/>
<polygon fill="none" stroke="#000000" points="1268.5,-581.2 1268.5,-600.2 1331.5,-600.2 1331.5,-581.2 1268.5,-581.2"/>
<text text-anchor="start" x="1322.3862" y="-587.3" font-family="Helvetica,sans-Serif" font-size="11.00" fill="#000000"> &#160;</text>
<polygon fill="#ffffff" stroke="transparent" points="1331.5,-581.2 1331.5,-600.2 1394.5,-600.2 1394.5,-581.2 1331.5,-581.2"/>
<polygon fill="none" stroke="#000000" points="1331.5,-581.2 1331.5,-600.2 1394.5,-600.2 1394.5,-581.2 1331.5,-581.2"/>
<text text-anchor="start" x="1385.3862" y="-587.3" font-family="Helvetica,sans-Serif" font-size="11.00" fill="#000000"> &#160;</text>
</a>
</g>
</g>
<!-- temporary_absence_movement&#45;&gt;reference_data -->
<g id="edge12" class="edge">
<title>temporary_absence_movement:w&#45;&gt;reference_data:e</title>
<path fill="none" stroke="#000000" d="M1130.8365,-608.9546C826.3753,-604.5404 738.4324,-645.9131 434,-580.2 423.0911,-577.8453 411.8939,-574.4657 401.0054,-570.6473"/>
<polygon fill="#000000" stroke="#000000" points="1137.5011,-609.0661 1145.4397,-612.7995 1141.5006,-609.133 1145.5,-609.2 1145.5,-609.2 1145.5,-609.2 1141.5006,-609.133 1145.5603,-605.6005 1137.5011,-609.0661 1137.5011,-609.0661"/>
<ellipse fill="none" stroke="#000000" cx="1134.3016" cy="-609.0125" rx="3.2" ry="3.2"/>
</g>
<!-- temporary_absence_movement&#45;&gt;reference_data -->
<g id="edge13" class="edge">
<title>temporary_absence_movement:w&#45;&gt;reference_data:e</title>
<path fill="none" stroke="#000000" d="M1130.8365,-609.5545C826.3753,-617.5404 738.4324,-658.9131 434,-593.2 415.5466,-589.2168 396.2683,-582.301 379.0545,-574.7147"/>
<polygon fill="#000000" stroke="#000000" points="1137.5023,-609.3934 1145.587,-612.7989 1141.5012,-609.2967 1145.5,-609.2 1145.5,-609.2 1145.5,-609.2 1141.5012,-609.2967 1145.413,-605.6011 1137.5023,-609.3934 1137.5023,-609.3934"/>
<ellipse fill="none" stroke="#000000" cx="1134.3033" cy="-609.4708" rx="3.2" ry="3.2"/>
</g>
<!-- temporary_absence_occurrence -->
<g id="node7" class="node">
<title>temporary_absence_occurrence</title>
<g id="a_node7"><a xlink:href="../../tables/temporary_absence_occurrence.html" xlink:title="temporary_absence_occurrence" target="_top">
<polygon fill="#ffffff" stroke="transparent" points="844,-509.7 844,-570.7 1096,-570.7 1096,-509.7 844,-509.7"/>
<polygon fill="#f5f5f5" stroke="transparent" points="844,-547.2 844,-570.2 1096,-570.2 1096,-547.2 844,-547.2"/>
<polygon fill="none" stroke="#000000" points="844,-547.2 844,-570.2 1096,-570.2 1096,-547.2 844,-547.2"/>
<text text-anchor="start" x="849" y="-555.8" font-family="Helvetica,sans-Serif" font-weight="bold" font-size="11.00" fill="#000000">temporary_absence_occurrence</text>
<text text-anchor="start" x="1061.5219" y="-555.3" font-family="Helvetica,sans-Serif" font-size="11.00" fill="#000000">[table]</text>
<polygon fill="none" stroke="#000000" points="844,-528.2 844,-547.2 1096,-547.2 1096,-528.2 844,-528.2"/>
<text text-anchor="start" x="847" y="-534.3" font-family="Helvetica,sans-Serif" font-size="11.00" fill="#000000">...</text>
<polygon fill="#ffffff" stroke="transparent" points="844,-509.2 844,-528.2 964,-528.2 964,-509.2 844,-509.2"/>
<polygon fill="none" stroke="#000000" points="844,-509.2 844,-528.2 964,-528.2 964,-509.2 844,-509.2"/>
<text text-anchor="start" x="847" y="-515.3" font-family="Helvetica,sans-Serif" font-size="11.00" fill="#000000">&lt; 8</text>
<polygon fill="#ffffff" stroke="transparent" points="964,-509.2 964,-528.2 1025,-528.2 1025,-509.2 964,-509.2"/>
<polygon fill="none" stroke="#000000" points="964,-509.2 964,-528.2 1025,-528.2 1025,-509.2 964,-509.2"/>
<text text-anchor="start" x="1015.8862" y="-515.3" font-family="Helvetica,sans-Serif" font-size="11.00" fill="#000000"> &#160;</text>
<polygon fill="#ffffff" stroke="transparent" points="1025,-509.2 1025,-528.2 1096,-528.2 1096,-509.2 1025,-509.2"/>
<polygon fill="none" stroke="#000000" points="1025,-509.2 1025,-528.2 1096,-528.2 1096,-509.2 1025,-509.2"/>
<text text-anchor="start" x="1077.4053" y="-515.3" font-family="Helvetica,sans-Serif" font-size="11.00" fill="#000000">1 &gt;</text>
</a>
</g>
</g>
<!-- temporary_absence_movement&#45;&gt;temporary_absence_occurrence -->
<g id="edge14" class="edge">
<title>temporary_absence_movement:w&#45;&gt;temporary_absence_occurrence:e</title>
<path fill="none" stroke="#000000" d="M1131.9009,-604.0328C1115.491,-597.6516 1086.4857,-586.2337 1057.515,-574.8011"/>
<polygon fill="#000000" stroke="#000000" points="1138.0217,-606.3584 1144.2213,-612.5653 1141.7608,-607.7792 1145.5,-609.2 1145.5,-609.2 1145.5,-609.2 1141.7608,-607.7792 1146.7787,-605.8347 1138.0217,-606.3584 1138.0217,-606.3584"/>
<ellipse fill="none" stroke="#000000" cx="1135.0303" cy="-605.2218" rx="3.2" ry="3.2"/>
</g>
<!-- temporary_absence_occurrence&#45;&gt;reference_data -->
<g id="edge15" class="edge">
<title>temporary_absence_occurrence:w&#45;&gt;reference_data:e</title>
<path fill="none" stroke="#000000" d="M821.4528,-515.1434C690.5092,-508.1659 504.8698,-509.8959 401.0483,-520.3334"/>
<polygon fill="#000000" stroke="#000000" points="827.954,-515.512 835.7374,-519.5591 831.9476,-515.7384 835.9412,-515.9648 835.9412,-515.9648 835.9412,-515.9648 831.9476,-515.7384 836.145,-512.3706 827.954,-515.512 827.954,-515.512"/>
<ellipse fill="none" stroke="#000000" cx="824.7591" cy="-515.3308" rx="3.2" ry="3.2"/>
</g>
<!-- temporary_absence_occurrence&#45;&gt;reference_data -->
<g id="edge16" class="edge">
<title>temporary_absence_occurrence:w&#45;&gt;reference_data:e</title>
<path fill="none" stroke="#000000" d="M821.4528,-523.4956C690.5092,-518.8439 504.8698,-519.9973 401.0483,-526.9556"/>
<polygon fill="#000000" stroke="#000000" points="827.9469,-523.741 835.8052,-527.6407 831.944,-523.8921 835.9412,-524.0432 835.9412,-524.0432 835.9412,-524.0432 831.944,-523.8921 836.0772,-520.4458 827.9469,-523.741 827.9469,-523.741"/>
<ellipse fill="none" stroke="#000000" cx="824.7492" cy="-523.6201" rx="3.2" ry="3.2"/>
</g>
<!-- temporary_absence_occurrence&#45;&gt;reference_data -->
<g id="edge17" class="edge">
<title>temporary_absence_occurrence:w&#45;&gt;reference_data:e</title>
<path fill="none" stroke="#000000" d="M821.4528,-531.8478C690.5092,-529.522 504.8698,-530.0986 401.0483,-533.5778"/>
<polygon fill="#000000" stroke="#000000" points="827.9426,-531.9704 835.8731,-535.721 831.9419,-532.046 835.9412,-532.1216 835.9412,-532.1216 835.9412,-532.1216 831.9419,-532.046 836.0092,-528.5223 827.9426,-531.9704 827.9426,-531.9704"/>
<ellipse fill="none" stroke="#000000" cx="824.7432" cy="-531.9099" rx="3.2" ry="3.2"/>
</g>
<!-- temporary_absence_occurrence&#45;&gt;reference_data -->
<g id="edge18" class="edge">
<title>temporary_absence_occurrence:w&#45;&gt;reference_data:e</title>
<path fill="none" stroke="#000000" d="M821.4528,-540.2C690.5092,-540.2 504.8698,-540.2 401.0483,-540.2"/>
<polygon fill="#000000" stroke="#000000" points="827.9412,-540.2001 835.9412,-543.8 831.9412,-540.2 835.9412,-540.2 835.9412,-540.2 835.9412,-540.2 831.9412,-540.2 835.9412,-536.6 827.9412,-540.2001 827.9412,-540.2001"/>
<ellipse fill="none" stroke="#000000" cx="824.7412" cy="-540.2001" rx="3.2" ry="3.2"/>
</g>
<!-- temporary_absence_occurrence&#45;&gt;reference_data -->
<g id="edge19" class="edge">
<title>temporary_absence_occurrence:w&#45;&gt;reference_data:e</title>
<path fill="none" stroke="#000000" d="M821.4528,-548.5522C690.5092,-550.878 504.8698,-550.3014 401.0483,-546.8222"/>
<polygon fill="#000000" stroke="#000000" points="827.9426,-548.4296 836.0092,-551.8777 831.9419,-548.354 835.9412,-548.2784 835.9412,-548.2784 835.9412,-548.2784 831.9419,-548.354 835.8731,-544.679 827.9426,-548.4296 827.9426,-548.4296"/>
<ellipse fill="none" stroke="#000000" cx="824.7432" cy="-548.4901" rx="3.2" ry="3.2"/>
</g>
<!-- temporary_absence_occurrence&#45;&gt;reference_data -->
<g id="edge21" class="edge">
<title>temporary_absence_occurrence:w&#45;&gt;reference_data:e</title>
<path fill="none" stroke="#000000" d="M821.4528,-556.9044C690.5092,-561.5561 504.8698,-560.4027 401.0483,-553.4444"/>
<polygon fill="#000000" stroke="#000000" points="827.9469,-556.659 836.0772,-559.9542 831.944,-556.5079 835.9412,-556.3568 835.9412,-556.3568 835.9412,-556.3568 831.944,-556.5079 835.8052,-552.7593 827.9469,-556.659 827.9469,-556.659"/>
<ellipse fill="none" stroke="#000000" cx="824.7492" cy="-556.7799" rx="3.2" ry="3.2"/>
</g>
<!-- temporary_absence_occurrence&#45;&gt;reference_data -->
<g id="edge22" class="edge">
<title>temporary_absence_occurrence:w&#45;&gt;reference_data:e</title>
<path fill="none" stroke="#000000" d="M821.4528,-565.2566C690.5092,-572.2341 504.8698,-570.5041 401.0483,-560.0666"/>
<polygon fill="#000000" stroke="#000000" points="827.954,-564.888 836.145,-568.0294 831.9476,-564.6616 835.9412,-564.4352 835.9412,-564.4352 835.9412,-564.4352 831.9476,-564.6616 835.7374,-560.8409 827.954,-564.888 827.954,-564.888"/>
<ellipse fill="none" stroke="#000000" cx="824.7591" cy="-565.0692" rx="3.2" ry="3.2"/>
</g>
<!-- temporary_absence_occurrence&#45;&gt;temporary_absence_authorisation -->
<g id="edge20" class="edge">
<title>temporary_absence_occurrence:w&#45;&gt;temporary_absence_authorisation:e</title>
<path fill="none" stroke="#000000" d="M920.8209,-496.3438C887.3565,-471.0453 840.7211,-444.2 793.5,-444.2"/>
<polygon fill="#000000" stroke="#000000" points="926.2394,-500.6001 930.3069,-508.3728 929.385,-503.0709 932.5306,-505.5418 932.5306,-505.5418 932.5306,-505.5418 929.385,-503.0709 934.7544,-502.7107 926.2394,-500.6001 926.2394,-500.6001"/>
<ellipse fill="none" stroke="#000000" cx="923.7229" cy="-498.6234" rx="3.2" ry="3.2"/>
</g>
</g>
</svg>
