<?xml version="1.0" encoding="UTF-8" standalone="no"?>
<!DOCTYPE svg PUBLIC "-//W3C//DTD SVG 1.1//EN"
 "http://www.w3.org/Graphics/SVG/1.1/DTD/svg11.dtd">
<!-- Generated by graphviz version 2.40.1 (20161225.0304)
 -->
<!-- Title: twoDegreesRelationshipsDiagram Pages: 1 -->
<svg width="1410pt" height="548pt"
 viewBox="0.00 0.00 1410.00 547.70" xmlns="http://www.w3.org/2000/svg" xmlns:xlink="http://www.w3.org/1999/xlink">
<g id="graph0" class="graph" transform="scale(1 1) rotate(0) translate(4 543.7)">
<title>twoDegreesRelationshipsDiagram</title>
<polygon fill="#ffffff" stroke="transparent" points="-4,4 -4,-543.7 1406,-543.7 1406,4 -4,4"/>
<text text-anchor="middle" x="72.4936" y="-7.3" font-family="Helvetica,sans-Serif" font-size="11.00" fill="#000000">Generated by SchemaSpy</text>
<!-- reference_data -->
<g id="node1" class="node">
<title>reference_data</title>
<g id="a_node1"><a xlink:href="../../tables/reference_data.html" xlink:title="reference_data" target="_top">
<polygon fill="#ffffff" stroke="transparent" points="253,-267.7 253,-328.7 393,-328.7 393,-267.7 253,-267.7"/>
<polygon fill="#f5f5f5" stroke="transparent" points="253,-305.2 253,-328.2 393,-328.2 393,-305.2 253,-305.2"/>
<polygon fill="none" stroke="#000000" points="253,-305.2 253,-328.2 393,-328.2 393,-305.2 253,-305.2"/>
<text text-anchor="start" x="258" y="-313.8" font-family="Helvetica,sans-Serif" font-weight="bold" font-size="11.00" fill="#000000">reference_data</text>
<text text-anchor="start" x="358.5219" y="-313.3" font-family="Helvetica,sans-Serif" font-size="11.00" fill="#000000">[table]</text>
<polygon fill="none" stroke="#000000" points="253,-286.2 253,-305.2 393,-305.2 393,-286.2 253,-286.2"/>
<text text-anchor="start" x="256" y="-292.3" font-family="Helvetica,sans-Serif" font-size="11.00" fill="#000000">...</text>
<polygon fill="#ffffff" stroke="transparent" points="253,-267.2 253,-286.2 314,-286.2 314,-267.2 253,-267.2"/>
<polygon fill="none" stroke="#000000" points="253,-267.2 253,-286.2 314,-286.2 314,-267.2 253,-267.2"/>
<text text-anchor="start" x="256" y="-273.3" font-family="Helvetica,sans-Serif" font-size="11.00" fill="#000000">&lt; 1</text>
<polygon fill="#ffffff" stroke="transparent" points="314,-267.2 314,-286.2 346,-286.2 346,-267.2 314,-267.2"/>
<polygon fill="none" stroke="#000000" points="314,-267.2 314,-286.2 346,-286.2 346,-267.2 314,-267.2"/>
<text text-anchor="start" x="336.8862" y="-273.3" font-family="Helvetica,sans-Serif" font-size="11.00" fill="#000000"> &#160;</text>
<polygon fill="#ffffff" stroke="transparent" points="346,-267.2 346,-286.2 393,-286.2 393,-267.2 346,-267.2"/>
<polygon fill="none" stroke="#000000" points="346,-267.2 346,-286.2 393,-286.2 393,-267.2 346,-267.2"/>
<text text-anchor="start" x="368.2904" y="-273.3" font-family="Helvetica,sans-Serif" font-size="11.00" fill="#000000">12 &gt;</text>
</a>
</g>
</g>
<!-- reference_data_domain -->
<g id="node2" class="node">
<title>reference_data_domain</title>
<g id="a_node2"><a xlink:href="../../tables/reference_data_domain.html" xlink:title="reference_data_domain" target="_top">
<polygon fill="#ffffff" stroke="transparent" points="8,-297.7 8,-358.7 204,-358.7 204,-297.7 8,-297.7"/>
<polygon fill="#f5f5f5" stroke="transparent" points="8,-335.2 8,-358.2 204,-358.2 204,-335.2 8,-335.2"/>
<polygon fill="none" stroke="#000000" points="8,-335.2 8,-358.2 204,-358.2 204,-335.2 8,-335.2"/>
<text text-anchor="start" x="13" y="-343.8" font-family="Helvetica,sans-Serif" font-weight="bold" font-size="11.00" fill="#000000">reference_data_domain</text>
<text text-anchor="start" x="169.5219" y="-343.3" font-family="Helvetica,sans-Serif" font-size="11.00" fill="#000000">[table]</text>
<polygon fill="none" stroke="#000000" points="8,-316.2 8,-335.2 204,-335.2 204,-316.2 8,-316.2"/>
<text text-anchor="start" x="11" y="-322.3" font-family="Helvetica,sans-Serif" font-size="11.00" fill="#000000">...</text>
<polygon fill="#ffffff" stroke="transparent" points="8,-297.2 8,-316.2 95,-316.2 95,-297.2 8,-297.2"/>
<polygon fill="none" stroke="#000000" points="8,-297.2 8,-316.2 95,-316.2 95,-297.2 8,-297.2"/>
<text text-anchor="start" x="11" y="-303.3" font-family="Helvetica,sans-Serif" font-size="11.00" fill="#000000"> &#160;</text>
<polygon fill="#ffffff" stroke="transparent" points="95,-297.2 95,-316.2 145,-316.2 145,-297.2 95,-297.2"/>
<polygon fill="none" stroke="#000000" points="95,-297.2 95,-316.2 145,-316.2 145,-297.2 95,-297.2"/>
<text text-anchor="start" x="135.8862" y="-303.3" font-family="Helvetica,sans-Serif" font-size="11.00" fill="#000000"> &#160;</text>
<polygon fill="#ffffff" stroke="transparent" points="145,-297.2 145,-316.2 204,-316.2 204,-297.2 145,-297.2"/>
<polygon fill="none" stroke="#000000" points="145,-297.2 145,-316.2 204,-316.2 204,-297.2 145,-297.2"/>
<text text-anchor="start" x="185.4053" y="-303.3" font-family="Helvetica,sans-Serif" font-size="11.00" fill="#000000">2 &gt;</text>
</a>
</g>
</g>
<!-- reference_data&#45;&gt;reference_data_domain -->
<g id="edge1" class="edge">
<title>reference_data:w&#45;&gt;reference_data_domain:e</title>
<path fill="none" stroke="#000000" d="M230.4617,-323.3568C221.5769,-324.5125 212.6543,-325.2 204,-325.2"/>
<polygon fill="#000000" stroke="#000000" points="236.9278,-322.341 245.3896,-324.6557 240.8793,-321.7201 244.8309,-321.0993 244.8309,-321.0993 244.8309,-321.0993 240.8793,-321.7201 244.2721,-317.5429 236.9278,-322.341 236.9278,-322.341"/>
<ellipse fill="none" stroke="#000000" cx="233.7666" cy="-322.8376" rx="3.2" ry="3.2"/>
</g>
<!-- reference_data_domain_link -->
<g id="node3" class="node">
<title>reference_data_domain_link</title>
<g id="a_node3"><a xlink:href="../../tables/reference_data_domain_link.html" xlink:title="reference_data_domain_link" target="_top">
<polygon fill="#ffffff" stroke="transparent" points="462.5,-474.7 462.5,-535.7 689.5,-535.7 689.5,-474.7 462.5,-474.7"/>
<polygon fill="#f5f5f5" stroke="transparent" points="463,-512.2 463,-535.2 690,-535.2 690,-512.2 463,-512.2"/>
<polygon fill="none" stroke="#000000" points="463,-512.2 463,-535.2 690,-535.2 690,-512.2 463,-512.2"/>
<text text-anchor="start" x="468" y="-520.8" font-family="Helvetica,sans-Serif" font-weight="bold" font-size="11.00" fill="#000000">reference_data_domain_link</text>
<text text-anchor="start" x="655.5219" y="-520.3" font-family="Helvetica,sans-Serif" font-size="11.00" fill="#000000">[table]</text>
<polygon fill="none" stroke="#000000" points="463,-493.2 463,-512.2 690,-512.2 690,-493.2 463,-493.2"/>
<text text-anchor="start" x="466" y="-499.3" font-family="Helvetica,sans-Serif" font-size="11.00" fill="#000000">...</text>
<polygon fill="#ffffff" stroke="transparent" points="463,-474.2 463,-493.2 575,-493.2 575,-474.2 463,-474.2"/>
<polygon fill="none" stroke="#000000" points="463,-474.2 463,-493.2 575,-493.2 575,-474.2 463,-474.2"/>
<text text-anchor="start" x="466" y="-480.3" font-family="Helvetica,sans-Serif" font-size="11.00" fill="#000000">&lt; 2</text>
<polygon fill="#ffffff" stroke="transparent" points="575,-474.2 575,-493.2 632,-493.2 632,-474.2 575,-474.2"/>
<polygon fill="none" stroke="#000000" points="575,-474.2 575,-493.2 632,-493.2 632,-474.2 575,-474.2"/>
<text text-anchor="start" x="622.8862" y="-480.3" font-family="Helvetica,sans-Serif" font-size="11.00" fill="#000000"> &#160;</text>
<polygon fill="#ffffff" stroke="transparent" points="632,-474.2 632,-493.2 690,-493.2 690,-474.2 632,-474.2"/>
<polygon fill="none" stroke="#000000" points="632,-474.2 632,-493.2 690,-493.2 690,-474.2 632,-474.2"/>
<text text-anchor="start" x="680.8862" y="-480.3" font-family="Helvetica,sans-Serif" font-size="11.00" fill="#000000"> &#160;</text>
</a>
</g>
</g>
<!-- reference_data_domain_link&#45;&gt;reference_data -->
<g id="edge3" class="edge">
<title>reference_data_domain_link:w&#45;&gt;reference_data:e</title>
<path fill="none" stroke="#000000" d="M455.6955,-494.3182C435.1702,-467.943 377.8971,-381.6865 345.7064,-332.8058"/>
<polygon fill="#000000" stroke="#000000" points="465.39,-498.8943 459.5224,-504.3322 458.4348,-503.1587 464.3024,-497.7207 465.39,-498.8943"/>
<polyline fill="none" stroke="#000000" points="463,-502.2 460.281,-499.2662 "/>
<ellipse fill="none" stroke="#000000" cx="458.1059" cy="-496.9191" rx="3.2" ry="3.2"/>
</g>
<!-- reference_data_domain_link&#45;&gt;reference_data_domain -->
<g id="edge2" class="edge">
<title>reference_data_domain_link:w&#45;&gt;reference_data_domain:e</title>
<path fill="none" stroke="#000000" d="M448.4816,-499.9621C377.6268,-479.4727 269.0826,-325.2 204,-325.2"/>
<polygon fill="#000000" stroke="#000000" points="455.0934,-500.9812 462.4515,-505.758 459.0467,-501.5906 463,-502.2 463,-502.2 463,-502.2 459.0467,-501.5906 463.5485,-498.642 455.0934,-500.9812 455.0934,-500.9812"/>
<ellipse fill="none" stroke="#000000" cx="451.9307" cy="-500.4937" rx="3.2" ry="3.2"/>
</g>
<!-- reference_data_link -->
<g id="node4" class="node">
<title>reference_data_link</title>
<g id="a_node4"><a xlink:href="../../tables/reference_data_link.html" xlink:title="reference_data_link" target="_top">
<polygon fill="#ffffff" stroke="transparent" points="490.5,-392.7 490.5,-453.7 661.5,-453.7 661.5,-392.7 490.5,-392.7"/>
<polygon fill="#f5f5f5" stroke="transparent" points="491,-430.2 491,-453.2 662,-453.2 662,-430.2 491,-430.2"/>
<polygon fill="none" stroke="#000000" points="491,-430.2 491,-453.2 662,-453.2 662,-430.2 491,-430.2"/>
<text text-anchor="start" x="496" y="-438.8" font-family="Helvetica,sans-Serif" font-weight="bold" font-size="11.00" fill="#000000">reference_data_link</text>
<text text-anchor="start" x="627.5219" y="-438.3" font-family="Helvetica,sans-Serif" font-size="11.00" fill="#000000">[table]</text>
<polygon fill="none" stroke="#000000" points="491,-411.2 491,-430.2 662,-430.2 662,-411.2 491,-411.2"/>
<text text-anchor="start" x="494" y="-417.3" font-family="Helvetica,sans-Serif" font-size="11.00" fill="#000000">...</text>
<polygon fill="#ffffff" stroke="transparent" points="491,-392.2 491,-411.2 575,-411.2 575,-392.2 491,-392.2"/>
<polygon fill="none" stroke="#000000" points="491,-392.2 491,-411.2 575,-411.2 575,-392.2 491,-392.2"/>
<text text-anchor="start" x="494" y="-398.3" font-family="Helvetica,sans-Serif" font-size="11.00" fill="#000000">&lt; 2</text>
<polygon fill="#ffffff" stroke="transparent" points="575,-392.2 575,-411.2 618,-411.2 618,-392.2 575,-392.2"/>
<polygon fill="none" stroke="#000000" points="575,-392.2 575,-411.2 618,-411.2 618,-392.2 575,-392.2"/>
<text text-anchor="start" x="608.8862" y="-398.3" font-family="Helvetica,sans-Serif" font-size="11.00" fill="#000000"> &#160;</text>
<polygon fill="#ffffff" stroke="transparent" points="618,-392.2 618,-411.2 662,-411.2 662,-392.2 618,-392.2"/>
<polygon fill="none" stroke="#000000" points="618,-392.2 618,-411.2 662,-411.2 662,-392.2 618,-392.2"/>
<text text-anchor="start" x="652.8862" y="-398.3" font-family="Helvetica,sans-Serif" font-size="11.00" fill="#000000"> &#160;</text>
</a>
</g>
</g>
<!-- reference_data_link&#45;&gt;reference_data -->
<g id="edge4" class="edge">
<title>reference_data_link:w&#45;&gt;reference_data:e</title>
<path fill="none" stroke="#000000" d="M476.6588,-418.3403C425.0754,-408.3688 379.8927,-364.7724 352.1099,-332.9095"/>
<polygon fill="#000000" stroke="#000000" points="483.0664,-419.1711 490.537,-423.7701 487.0332,-419.6856 491,-420.2 491,-420.2 491,-420.2 487.0332,-419.6856 491.463,-416.6299 483.0664,-419.1711 483.0664,-419.1711"/>
<ellipse fill="none" stroke="#000000" cx="479.893" cy="-418.7596" rx="3.2" ry="3.2"/>
</g>
<!-- reference_data_link&#45;&gt;reference_data -->
<g id="edge5" class="edge">
<title>reference_data_link:w&#45;&gt;reference_data:e</title>
<path fill="none" stroke="#000000" d="M476.5316,-420.2659C420.2358,-416.5647 371.5775,-367.7968 344.8628,-332.9584"/>
<polygon fill="#000000" stroke="#000000" points="483.0001,-420.2365 491.0164,-423.8 487,-420.2182 491,-420.2 491,-420.2 491,-420.2 487,-420.2182 490.9836,-416.6 483.0001,-420.2365 483.0001,-420.2365"/>
<ellipse fill="none" stroke="#000000" cx="479.8001" cy="-420.2511" rx="3.2" ry="3.2"/>
</g>
<!-- temporary_absence_authorisation -->
<g id="node5" class="node">
<title>temporary_absence_authorisation</title>
<g id="a_node5"><a xlink:href="../../tables/temporary_absence_authorisation.html" xlink:title="temporary_absence_authorisation" target="_top">
<polygon fill="#ffffff" stroke="transparent" points="442,-270.7 442,-331.7 710,-331.7 710,-270.7 442,-270.7"/>
<polygon fill="#f5f5f5" stroke="transparent" points="442,-308.2 442,-331.2 710,-331.2 710,-308.2 442,-308.2"/>
<polygon fill="none" stroke="#000000" points="442,-308.2 442,-331.2 710,-331.2 710,-308.2 442,-308.2"/>
<text text-anchor="start" x="447" y="-316.8" font-family="Helvetica,sans-Serif" font-weight="bold" font-size="11.00" fill="#000000">temporary_absence_authorisation</text>
<text text-anchor="start" x="675.5219" y="-316.3" font-family="Helvetica,sans-Serif" font-size="11.00" fill="#000000">[table]</text>
<polygon fill="none" stroke="#000000" points="442,-289.2 442,-308.2 710,-308.2 710,-289.2 442,-289.2"/>
<text text-anchor="start" x="445" y="-295.3" font-family="Helvetica,sans-Serif" font-size="11.00" fill="#000000">...</text>
<polygon fill="#ffffff" stroke="transparent" points="442,-270.2 442,-289.2 570,-289.2 570,-270.2 442,-270.2"/>
<polygon fill="none" stroke="#000000" points="442,-270.2 442,-289.2 570,-289.2 570,-270.2 442,-270.2"/>
<text text-anchor="start" x="445" y="-276.3" font-family="Helvetica,sans-Serif" font-size="11.00" fill="#000000">&lt; 5</text>
<polygon fill="#ffffff" stroke="transparent" points="570,-270.2 570,-289.2 635,-289.2 635,-270.2 570,-270.2"/>
<polygon fill="none" stroke="#000000" points="570,-270.2 570,-289.2 635,-289.2 635,-270.2 570,-270.2"/>
<text text-anchor="start" x="625.8862" y="-276.3" font-family="Helvetica,sans-Serif" font-size="11.00" fill="#000000"> &#160;</text>
<polygon fill="#ffffff" stroke="transparent" points="635,-270.2 635,-289.2 710,-289.2 710,-270.2 635,-270.2"/>
<polygon fill="none" stroke="#000000" points="635,-270.2 635,-289.2 710,-289.2 710,-270.2 635,-270.2"/>
<text text-anchor="start" x="691.4053" y="-276.3" font-family="Helvetica,sans-Serif" font-size="11.00" fill="#000000">1 &gt;</text>
</a>
</g>
</g>
<!-- temporary_absence_authorisation&#45;&gt;reference_data -->
<g id="edge6" class="edge">
<title>temporary_absence_authorisation:w&#45;&gt;reference_data:e</title>
<path fill="none" stroke="#000000" d="M428.7612,-292.3264C419.6029,-288.6757 410.255,-285.7586 401.0938,-283.575"/>
<polygon fill="#000000" stroke="#000000" points="434.6874,-294.9556 440.54,-301.4907 438.3437,-296.5778 442,-298.2 442,-298.2 442,-298.2 438.3437,-296.5778 443.46,-294.9093 434.6874,-294.9556 434.6874,-294.9556"/>
<ellipse fill="none" stroke="#000000" cx="431.7623" cy="-293.6579" rx="3.2" ry="3.2"/>
</g>
<!-- temporary_absence_authorisation&#45;&gt;reference_data -->
<g id="edge7" class="edge">
<title>temporary_absence_authorisation:w&#45;&gt;reference_data:e</title>
<path fill="none" stroke="#000000" d="M427.8021,-295.0735C418.9509,-293.3366 409.9355,-291.9412 401.0938,-290.8875"/>
<polygon fill="#000000" stroke="#000000" points="434.1872,-296.4795 441.2258,-301.7158 438.0936,-297.3398 442,-298.2 442,-298.2 442,-298.2 438.0936,-297.3398 442.7742,-294.6842 434.1872,-296.4795 434.1872,-296.4795"/>
<ellipse fill="none" stroke="#000000" cx="431.0621" cy="-295.7913" rx="3.2" ry="3.2"/>
</g>
<!-- temporary_absence_authorisation&#45;&gt;reference_data -->
<g id="edge8" class="edge">
<title>temporary_absence_authorisation:w&#45;&gt;reference_data:e</title>
<path fill="none" stroke="#000000" d="M427.4821,-298.2C418.7337,-298.2 409.8289,-298.2 401.0938,-298.2"/>
<polygon fill="#000000" stroke="#000000" points="434,-298.2001 442,-301.8 438,-298.2 442,-298.2 442,-298.2 442,-298.2 438,-298.2 442,-294.6 434,-298.2001 434,-298.2001"/>
<ellipse fill="none" stroke="#000000" cx="430.8" cy="-298.2001" rx="3.2" ry="3.2"/>
</g>
<!-- temporary_absence_authorisation&#45;&gt;reference_data -->
<g id="edge9" class="edge">
<title>temporary_absence_authorisation:w&#45;&gt;reference_data:e</title>
<path fill="none" stroke="#000000" d="M427.8021,-301.3265C418.9509,-303.0634 409.9355,-304.4588 401.0938,-305.5125"/>
<polygon fill="#000000" stroke="#000000" points="434.1872,-299.9205 442.7742,-301.7158 438.0936,-299.0602 442,-298.2 442,-298.2 442,-298.2 438.0936,-299.0602 441.2258,-294.6842 434.1872,-299.9205 434.1872,-299.9205"/>
<ellipse fill="none" stroke="#000000" cx="431.0621" cy="-300.6087" rx="3.2" ry="3.2"/>
</g>
<!-- temporary_absence_authorisation&#45;&gt;reference_data -->
<g id="edge10" class="edge">
<title>temporary_absence_authorisation:w&#45;&gt;reference_data:e</title>
<path fill="none" stroke="#000000" d="M428.7612,-304.0736C419.6029,-307.7243 410.255,-310.6414 401.0938,-312.825"/>
<polygon fill="#000000" stroke="#000000" points="434.6874,-301.4444 443.46,-301.4907 438.3437,-299.8222 442,-298.2 442,-298.2 442,-298.2 438.3437,-299.8222 440.54,-294.9093 434.6874,-301.4444 434.6874,-301.4444"/>
<ellipse fill="none" stroke="#000000" cx="431.7623" cy="-302.7421" rx="3.2" ry="3.2"/>
</g>
<!-- temporary_absence_movement -->
<g id="node6" class="node">
<title>temporary_absence_movement</title>
<g id="a_node6"><a xlink:href="../../tables/temporary_absence_movement.html" xlink:title="temporary_absence_movement" target="_top">
<polygon fill="#ffffff" stroke="transparent" points="1060,-38.2 1060,-414.2 1394,-414.2 1394,-38.2 1060,-38.2"/>
<polygon fill="#f5f5f5" stroke="transparent" points="1062,-389.2 1062,-412.2 1392,-412.2 1392,-389.2 1062,-389.2"/>
<polygon fill="none" stroke="#000000" points="1062,-389.2 1062,-412.2 1392,-412.2 1392,-389.2 1062,-389.2"/>
<text text-anchor="start" x="1067" y="-397.8" font-family="Helvetica,sans-Serif" font-weight="bold" font-size="11.00" fill="#000000">temporary_absence_movement</text>
<text text-anchor="start" x="1357.0437" y="-397.3" font-family="Helvetica,sans-Serif" font-size="11.00" fill="#000000">[table]</text>
<polygon fill="none" stroke="#000000" points="1062,-367.2 1062,-389.2 1293,-389.2 1293,-367.2 1062,-367.2"/>
<image xlink:href="../../images/primaryKeys.png" width="11px" height="12px" preserveAspectRatio="xMinYMin meet" x="1067" y="-384.2"/>
<text text-anchor="start" x="1082" y="-374.3" font-family="Helvetica,sans-Serif" font-size="11.00" fill="#000000">id</text>
<polygon fill="none" stroke="#000000" points="1293,-367.2 1293,-389.2 1392,-389.2 1392,-367.2 1293,-367.2"/>
<text text-anchor="start" x="1296" y="-374.9" font-family="Helvetica,sans-Serif" font-size="11.00" fill="#000000">uuid[2147483647]</text>
<polygon fill="none" stroke="#000000" points="1062,-345.2 1062,-367.2 1293,-367.2 1293,-345.2 1062,-345.2"/>
<text text-anchor="start" x="1082" y="-352.3" font-family="Helvetica,sans-Serif" font-size="11.00" fill="#000000">version</text>
<polygon fill="none" stroke="#000000" points="1293,-345.2 1293,-367.2 1392,-367.2 1392,-345.2 1293,-345.2"/>
<text text-anchor="start" x="1296" y="-352.9" font-family="Helvetica,sans-Serif" font-size="11.00" fill="#000000">int4[10]</text>
<polygon fill="#ffffff" stroke="transparent" points="1062,-323.2 1062,-345.2 1293,-345.2 1293,-323.2 1062,-323.2"/>
<polygon fill="none" stroke="#000000" points="1062,-323.2 1062,-345.2 1293,-345.2 1293,-323.2 1062,-323.2"/>
<text text-anchor="start" x="1082" y="-330.3" font-family="Helvetica,sans-Serif" font-size="11.00" fill="#000000">person_identifier</text>
<polygon fill="none" stroke="#000000" points="1293,-323.2 1293,-345.2 1392,-345.2 1392,-323.2 1293,-323.2"/>
<text text-anchor="start" x="1296" y="-330.9" font-family="Helvetica,sans-Serif" font-size="11.00" fill="#000000">varchar[10]</text>
<polygon fill="none" stroke="#000000" points="1062,-301.2 1062,-323.2 1293,-323.2 1293,-301.2 1062,-301.2"/>
<image xlink:href="../../images/foreignKeys.png" width="11px" height="12px" preserveAspectRatio="xMinYMin meet" x="1067" y="-318.2"/>
<text text-anchor="start" x="1082" y="-308.3" font-family="Helvetica,sans-Serif" font-size="11.00" fill="#000000">occurrence_id</text>
<polygon fill="none" stroke="#000000" points="1293,-301.2 1293,-323.2 1392,-323.2 1392,-301.2 1293,-301.2"/>
<text text-anchor="start" x="1296" y="-308.9" font-family="Helvetica,sans-Serif" font-size="11.00" fill="#000000">uuid[2147483647]</text>
<polygon fill="#ffffff" stroke="transparent" points="1062,-279.2 1062,-301.2 1293,-301.2 1293,-279.2 1062,-279.2"/>
<polygon fill="none" stroke="#000000" points="1062,-279.2 1062,-301.2 1293,-301.2 1293,-279.2 1062,-279.2"/>
<text text-anchor="start" x="1082" y="-286.3" font-family="Helvetica,sans-Serif" font-size="11.00" fill="#000000">occurred_at</text>
<polygon fill="none" stroke="#000000" points="1293,-279.2 1293,-301.2 1392,-301.2 1392,-279.2 1293,-279.2"/>
<text text-anchor="start" x="1296" y="-286.9" font-family="Helvetica,sans-Serif" font-size="11.00" fill="#000000">timestamp[29,6]</text>
<polygon fill="none" stroke="#000000" points="1062,-257.2 1062,-279.2 1293,-279.2 1293,-257.2 1062,-257.2"/>
<text text-anchor="start" x="1082" y="-264.3" font-family="Helvetica,sans-Serif" font-size="11.00" fill="#000000">direction</text>
<polygon fill="none" stroke="#000000" points="1293,-257.2 1293,-279.2 1392,-279.2 1392,-257.2 1293,-257.2"/>
<text text-anchor="start" x="1296" y="-264.9" font-family="Helvetica,sans-Serif" font-size="11.00" fill="#000000">varchar[3]</text>
<polygon fill="none" stroke="#000000" points="1062,-235.2 1062,-257.2 1293,-257.2 1293,-235.2 1062,-235.2"/>
<image xlink:href="../../images/foreignKeys.png" width="11px" height="12px" preserveAspectRatio="xMinYMin meet" x="1067" y="-252.2"/>
<text text-anchor="start" x="1082" y="-242.3" font-family="Helvetica,sans-Serif" font-size="11.00" fill="#000000">absence_reason_id</text>
<polygon fill="none" stroke="#000000" points="1293,-235.2 1293,-257.2 1392,-257.2 1392,-235.2 1293,-235.2"/>
<text text-anchor="start" x="1296" y="-242.9" font-family="Helvetica,sans-Serif" font-size="11.00" fill="#000000">int8[19]</text>
<polygon fill="none" stroke="#000000" points="1062,-213.2 1062,-235.2 1293,-235.2 1293,-213.2 1062,-213.2"/>
<image xlink:href="../../images/foreignKeys.png" width="11px" height="12px" preserveAspectRatio="xMinYMin meet" x="1067" y="-230.2"/>
<text text-anchor="start" x="1082" y="-220.3" font-family="Helvetica,sans-Serif" font-size="11.00" fill="#000000">accompanied_by_id</text>
<polygon fill="none" stroke="#000000" points="1293,-213.2 1293,-235.2 1392,-235.2 1392,-213.2 1293,-213.2"/>
<text text-anchor="start" x="1296" y="-220.9" font-family="Helvetica,sans-Serif" font-size="11.00" fill="#000000">int8[19]</text>
<polygon fill="none" stroke="#000000" points="1062,-191.2 1062,-213.2 1293,-213.2 1293,-191.2 1062,-191.2"/>
<text text-anchor="start" x="1082" y="-198.3" font-family="Helvetica,sans-Serif" font-size="11.00" fill="#000000">accompanied_by_notes</text>
<polygon fill="none" stroke="#000000" points="1293,-191.2 1293,-213.2 1392,-213.2 1392,-191.2 1293,-191.2"/>
<text text-anchor="start" x="1296" y="-198.9" font-family="Helvetica,sans-Serif" font-size="11.00" fill="#000000">text[2147483647]</text>
<polygon fill="none" stroke="#000000" points="1062,-169.2 1062,-191.2 1293,-191.2 1293,-169.2 1062,-169.2"/>
<text text-anchor="start" x="1082" y="-176.3" font-family="Helvetica,sans-Serif" font-size="11.00" fill="#000000">notes</text>
<polygon fill="none" stroke="#000000" points="1293,-169.2 1293,-191.2 1392,-191.2 1392,-169.2 1293,-169.2"/>
<text text-anchor="start" x="1296" y="-176.9" font-family="Helvetica,sans-Serif" font-size="11.00" fill="#000000">text[2147483647]</text>
<polygon fill="none" stroke="#000000" points="1062,-147.2 1062,-169.2 1293,-169.2 1293,-147.2 1062,-147.2"/>
<text text-anchor="start" x="1082" y="-154.3" font-family="Helvetica,sans-Serif" font-size="11.00" fill="#000000">recorded_at</text>
<polygon fill="none" stroke="#000000" points="1293,-147.2 1293,-169.2 1392,-169.2 1392,-147.2 1293,-147.2"/>
<text text-anchor="start" x="1296" y="-154.9" font-family="Helvetica,sans-Serif" font-size="11.00" fill="#000000">timestamp[29,6]</text>
<polygon fill="none" stroke="#000000" points="1062,-125.2 1062,-147.2 1293,-147.2 1293,-125.2 1062,-125.2"/>
<text text-anchor="start" x="1082" y="-132.3" font-family="Helvetica,sans-Serif" font-size="11.00" fill="#000000">recorded_by</text>
<polygon fill="none" stroke="#000000" points="1293,-125.2 1293,-147.2 1392,-147.2 1392,-125.2 1293,-125.2"/>
<text text-anchor="start" x="1296" y="-132.9" font-family="Helvetica,sans-Serif" font-size="11.00" fill="#000000">varchar[64]</text>
<polygon fill="none" stroke="#000000" points="1062,-103.2 1062,-125.2 1293,-125.2 1293,-103.2 1062,-103.2"/>
<text text-anchor="start" x="1082" y="-110.3" font-family="Helvetica,sans-Serif" font-size="11.00" fill="#000000">recorded_by_prison_code</text>
<polygon fill="none" stroke="#000000" points="1293,-103.2 1293,-125.2 1392,-125.2 1392,-103.2 1293,-103.2"/>
<text text-anchor="start" x="1296" y="-110.9" font-family="Helvetica,sans-Serif" font-size="11.00" fill="#000000">varchar[6]</text>
<polygon fill="#ffffff" stroke="transparent" points="1062,-81.2 1062,-103.2 1293,-103.2 1293,-81.2 1062,-81.2"/>
<polygon fill="none" stroke="#000000" points="1062,-81.2 1062,-103.2 1293,-103.2 1293,-81.2 1062,-81.2"/>
<text text-anchor="start" x="1082" y="-88.3" font-family="Helvetica,sans-Serif" font-size="11.00" fill="#000000">legacy_id</text>
<polygon fill="none" stroke="#000000" points="1293,-81.2 1293,-103.2 1392,-103.2 1392,-81.2 1293,-81.2"/>
<text text-anchor="start" x="1296" y="-88.9" font-family="Helvetica,sans-Serif" font-size="11.00" fill="#000000">varchar[32]</text>
<polygon fill="none" stroke="#000000" points="1062,-59.2 1062,-81.2 1293,-81.2 1293,-59.2 1062,-59.2"/>
<text text-anchor="start" x="1082" y="-66.3" font-family="Helvetica,sans-Serif" font-size="11.00" fill="#000000">location</text>
<polygon fill="none" stroke="#000000" points="1293,-59.2 1293,-81.2 1392,-81.2 1392,-59.2 1293,-59.2"/>
<text text-anchor="start" x="1295.7258" y="-66.9" font-family="Helvetica,sans-Serif" font-size="11.00" fill="#000000">jsonb[2147483647]</text>
<polygon fill="#ffffff" stroke="transparent" points="1062,-40.2 1062,-59.2 1182,-59.2 1182,-40.2 1062,-40.2"/>
<polygon fill="none" stroke="#000000" points="1062,-40.2 1062,-59.2 1182,-59.2 1182,-40.2 1062,-40.2"/>
<text text-anchor="start" x="1065" y="-46.3" font-family="Helvetica,sans-Serif" font-size="11.00" fill="#000000">&lt; 3</text>
<polygon fill="#ffffff" stroke="transparent" points="1182,-40.2 1182,-59.2 1293,-59.2 1293,-40.2 1182,-40.2"/>
<polygon fill="none" stroke="#000000" points="1182,-40.2 1182,-59.2 1293,-59.2 1293,-40.2 1182,-40.2"/>
<text text-anchor="start" x="1283.8862" y="-46.3" font-family="Helvetica,sans-Serif" font-size="11.00" fill="#000000"> &#160;</text>
<polygon fill="#ffffff" stroke="transparent" points="1293,-40.2 1293,-59.2 1392,-59.2 1392,-40.2 1293,-40.2"/>
<polygon fill="none" stroke="#000000" points="1293,-40.2 1293,-59.2 1392,-59.2 1392,-40.2 1293,-40.2"/>
<text text-anchor="start" x="1373.4053" y="-46.3" font-family="Helvetica,sans-Serif" font-size="11.00" fill="#000000">0 &gt;</text>
<polygon fill="none" stroke="#000000" stroke-width="2" points="1061,-39.2 1061,-413.2 1393,-413.2 1393,-39.2 1061,-39.2"/>
</a>
</g>
</g>
<!-- temporary_absence_movement&#45;&gt;reference_data -->
<g id="edge11" class="edge">
<title>temporary_absence_movement:w&#45;&gt;reference_data:e</title>
<path fill="none" stroke="#000000" d="M1047.4656,-246.1683C780.1575,-244.9989 704.033,-212.1598 434,-260.2 423.1709,-262.1266 411.9714,-264.9311 401.0396,-268.1576"/>
<polygon fill="#000000" stroke="#000000" points="1054,-246.1825 1061.9921,-249.8 1058,-246.1912 1062,-246.2 1062,-246.2 1062,-246.2 1058,-246.1912 1062.0079,-242.6 1054,-246.1825 1054,-246.1825"/>
<ellipse fill="none" stroke="#000000" cx="1050.8" cy="-246.1755" rx="3.2" ry="3.2"/>
</g>
<!-- temporary_absence_movement&#45;&gt;reference_data -->
<g id="edge12" class="edge">
<title>temporary_absence_movement:w&#45;&gt;reference_data:e</title>
<path fill="none" stroke="#000000" d="M1047.4625,-224.1369C779.9872,-221.8065 697.7607,-156.1804 434,-231.2 410.6174,-237.8506 387.2082,-250.8143 367.9565,-263.5807"/>
<polygon fill="#000000" stroke="#000000" points="1054.0001,-224.1652 1061.9843,-227.8 1058,-224.1826 1062,-224.2 1062,-224.2 1062,-224.2 1058,-224.1826 1062.0157,-220.6 1054.0001,-224.1652 1054.0001,-224.1652"/>
<ellipse fill="none" stroke="#000000" cx="1050.8001" cy="-224.1513" rx="3.2" ry="3.2"/>
</g>
<!-- temporary_absence_occurrence -->
<g id="node7" class="node">
<title>temporary_absence_occurrence</title>
<g id="a_node7"><a xlink:href="../../tables/temporary_absence_occurrence.html" xlink:title="temporary_absence_occurrence" target="_top">
<polygon fill="#ffffff" stroke="transparent" points="759,-306.7 759,-367.7 1011,-367.7 1011,-306.7 759,-306.7"/>
<polygon fill="#f5f5f5" stroke="transparent" points="759,-344.2 759,-367.2 1011,-367.2 1011,-344.2 759,-344.2"/>
<polygon fill="none" stroke="#000000" points="759,-344.2 759,-367.2 1011,-367.2 1011,-344.2 759,-344.2"/>
<text text-anchor="start" x="764" y="-352.8" font-family="Helvetica,sans-Serif" font-weight="bold" font-size="11.00" fill="#000000">temporary_absence_occurrence</text>
<text text-anchor="start" x="976.5219" y="-352.3" font-family="Helvetica,sans-Serif" font-size="11.00" fill="#000000">[table]</text>
<polygon fill="none" stroke="#000000" points="759,-325.2 759,-344.2 1011,-344.2 1011,-325.2 759,-325.2"/>
<text text-anchor="start" x="762" y="-331.3" font-family="Helvetica,sans-Serif" font-size="11.00" fill="#000000">...</text>
<polygon fill="#ffffff" stroke="transparent" points="759,-306.2 759,-325.2 879,-325.2 879,-306.2 759,-306.2"/>
<polygon fill="none" stroke="#000000" points="759,-306.2 759,-325.2 879,-325.2 879,-306.2 759,-306.2"/>
<text text-anchor="start" x="762" y="-312.3" font-family="Helvetica,sans-Serif" font-size="11.00" fill="#000000">&lt; 3</text>
<polygon fill="#ffffff" stroke="transparent" points="879,-306.2 879,-325.2 940,-325.2 940,-306.2 879,-306.2"/>
<polygon fill="none" stroke="#000000" points="879,-306.2 879,-325.2 940,-325.2 940,-306.2 879,-306.2"/>
<text text-anchor="start" x="930.8862" y="-312.3" font-family="Helvetica,sans-Serif" font-size="11.00" fill="#000000"> &#160;</text>
<polygon fill="#ffffff" stroke="transparent" points="940,-306.2 940,-325.2 1011,-325.2 1011,-306.2 940,-306.2"/>
<polygon fill="none" stroke="#000000" points="940,-306.2 940,-325.2 1011,-325.2 1011,-306.2 940,-306.2"/>
<text text-anchor="start" x="992.4053" y="-312.3" font-family="Helvetica,sans-Serif" font-size="11.00" fill="#000000">1 &gt;</text>
</a>
</g>
</g>
<!-- temporary_absence_movement&#45;&gt;temporary_absence_occurrence -->
<g id="edge13" class="edge">
<title>temporary_absence_movement:w&#45;&gt;temporary_absence_occurrence:e</title>
<path fill="none" stroke="#000000" d="M1047.4254,-312.4628C1038.0569,-312.7903 1028.5406,-313.4102 1019.0538,-314.2459"/>
<polygon fill="#000000" stroke="#000000" points="1054.0013,-312.3443 1062.0649,-315.7994 1058.0007,-312.2721 1062,-312.2 1062,-312.2 1062,-312.2 1058.0007,-312.2721 1061.9351,-308.6006 1054.0013,-312.3443 1054.0013,-312.3443"/>
<ellipse fill="none" stroke="#000000" cx="1050.8018" cy="-312.402" rx="3.2" ry="3.2"/>
</g>
<!-- temporary_absence_occurrence&#45;&gt;reference_data -->
<g id="edge14" class="edge">
<title>temporary_absence_occurrence:w&#45;&gt;reference_data:e</title>
<path fill="none" stroke="#000000" d="M736.0183,-348.3908C647.4941,-353.7234 533.4505,-355.1921 434,-336.2 423.1065,-334.1197 411.9183,-330.9872 401.0343,-327.3879"/>
<polygon fill="#000000" stroke="#000000" points="742.5747,-347.9743 750.7869,-351.0599 746.5667,-347.7207 750.5586,-347.4671 750.5586,-347.4671 750.5586,-347.4671 746.5667,-347.7207 750.3304,-343.8744 742.5747,-347.9743 742.5747,-347.9743"/>
<ellipse fill="none" stroke="#000000" cx="739.3812" cy="-348.1772" rx="3.2" ry="3.2"/>
</g>
<!-- temporary_absence_occurrence&#45;&gt;reference_data -->
<g id="edge16" class="edge">
<title>temporary_absence_occurrence:w&#45;&gt;reference_data:e</title>
<path fill="none" stroke="#000000" d="M736.0183,-359.7157C647.4941,-366.7234 533.4505,-368.1921 434,-349.2 416.2854,-345.817 397.7913,-339.6517 381.0936,-332.7111"/>
<polygon fill="#000000" stroke="#000000" points="742.5866,-359.165 750.8595,-362.0838 746.5726,-358.8307 750.5586,-358.4964 750.5586,-358.4964 750.5586,-358.4964 746.5726,-358.8307 750.2578,-354.909 742.5866,-359.165 742.5866,-359.165"/>
<ellipse fill="none" stroke="#000000" cx="739.3978" cy="-359.4324" rx="3.2" ry="3.2"/>
</g>
<!-- temporary_absence_occurrence&#45;&gt;temporary_absence_authorisation -->
<g id="edge15" class="edge">
<title>temporary_absence_occurrence:w&#45;&gt;temporary_absence_authorisation:e</title>
<path fill="none" stroke="#000000" d="M746.9349,-300.6175C734.5218,-299.0965 722.0813,-298.2 710,-298.2"/>
<polygon fill="#000000" stroke="#000000" points="753.5499,-301.5532 760.9668,-306.2383 757.5105,-302.1135 761.471,-302.6738 761.471,-302.6738 761.471,-302.6738 757.5105,-302.1135 761.9753,-299.1093 753.5499,-301.5532 753.5499,-301.5532"/>
<ellipse fill="none" stroke="#000000" cx="750.3815" cy="-301.105" rx="3.2" ry="3.2"/>
</g>
</g>
</svg>
