<?xml version="1.0" encoding="UTF-8" standalone="no"?>
<!DOCTYPE svg PUBLIC "-//W3C//DTD SVG 1.1//EN"
 "http://www.w3.org/Graphics/SVG/1.1/DTD/svg11.dtd">
<!-- Generated by graphviz version 2.40.1 (20161225.0304)
 -->
<!-- Title: twoDegreesRelationshipsDiagram Pages: 1 -->
<svg width="1410pt" height="612pt"
 viewBox="0.00 0.00 1410.00 612.20" xmlns="http://www.w3.org/2000/svg" xmlns:xlink="http://www.w3.org/1999/xlink">
<g id="graph0" class="graph" transform="scale(1 1) rotate(0) translate(4 608.2)">
<title>twoDegreesRelationshipsDiagram</title>
<polygon fill="#ffffff" stroke="transparent" points="-4,4 -4,-608.2 1406,-608.2 1406,4 -4,4"/>
<text text-anchor="middle" x="72.4936" y="-7.3" font-family="Helvetica,sans-Serif" font-size="11.00" fill="#000000">Generated by SchemaSpy</text>
<!-- reference_data -->
<g id="node1" class="node">
<title>reference_data</title>
<g id="a_node1"><a xlink:href="../../tables/reference_data.html" xlink:title="reference_data" target="_top">
<polygon fill="#ffffff" stroke="transparent" points="253,-375.2 253,-436.2 393,-436.2 393,-375.2 253,-375.2"/>
<polygon fill="#f5f5f5" stroke="transparent" points="253,-412.7 253,-435.7 393,-435.7 393,-412.7 253,-412.7"/>
<polygon fill="none" stroke="#000000" points="253,-412.7 253,-435.7 393,-435.7 393,-412.7 253,-412.7"/>
<text text-anchor="start" x="258" y="-421.3" font-family="Helvetica,sans-Serif" font-weight="bold" font-size="11.00" fill="#000000">reference_data</text>
<text text-anchor="start" x="358.5219" y="-420.8" font-family="Helvetica,sans-Serif" font-size="11.00" fill="#000000">[table]</text>
<polygon fill="none" stroke="#000000" points="253,-393.7 253,-412.7 393,-412.7 393,-393.7 253,-393.7"/>
<text text-anchor="start" x="256" y="-399.8" font-family="Helvetica,sans-Serif" font-size="11.00" fill="#000000">...</text>
<polygon fill="#ffffff" stroke="transparent" points="253,-374.7 253,-393.7 295,-393.7 295,-374.7 253,-374.7"/>
<polygon fill="none" stroke="#000000" points="253,-374.7 253,-393.7 295,-393.7 295,-374.7 253,-374.7"/>
<text text-anchor="start" x="256" y="-380.8" font-family="Helvetica,sans-Serif" font-size="11.00" fill="#000000">&lt; 1</text>
<polygon fill="#ffffff" stroke="transparent" points="295,-374.7 295,-393.7 355,-393.7 355,-374.7 295,-374.7"/>
<polygon fill="none" stroke="#000000" points="295,-374.7 295,-393.7 355,-393.7 355,-374.7 295,-374.7"/>
<text text-anchor="start" x="307.3807" y="-380.8" font-family="Helvetica,sans-Serif" font-size="11.00" fill="#000000">157 rows</text>
<polygon fill="#ffffff" stroke="transparent" points="355,-374.7 355,-393.7 393,-393.7 393,-374.7 355,-374.7"/>
<polygon fill="none" stroke="#000000" points="355,-374.7 355,-393.7 393,-393.7 393,-374.7 355,-374.7"/>
<text text-anchor="start" x="368.2904" y="-380.8" font-family="Helvetica,sans-Serif" font-size="11.00" fill="#000000">12 &gt;</text>
</a>
</g>
</g>
<!-- reference_data_domain -->
<g id="node2" class="node">
<title>reference_data_domain</title>
<g id="a_node2"><a xlink:href="../../tables/reference_data_domain.html" xlink:title="reference_data_domain" target="_top">
<polygon fill="#ffffff" stroke="transparent" points="8,-405.2 8,-466.2 204,-466.2 204,-405.2 8,-405.2"/>
<polygon fill="#f5f5f5" stroke="transparent" points="8,-442.7 8,-465.7 204,-465.7 204,-442.7 8,-442.7"/>
<polygon fill="none" stroke="#000000" points="8,-442.7 8,-465.7 204,-465.7 204,-442.7 8,-442.7"/>
<text text-anchor="start" x="13" y="-451.3" font-family="Helvetica,sans-Serif" font-weight="bold" font-size="11.00" fill="#000000">reference_data_domain</text>
<text text-anchor="start" x="169.5219" y="-450.8" font-family="Helvetica,sans-Serif" font-size="11.00" fill="#000000">[table]</text>
<polygon fill="none" stroke="#000000" points="8,-423.7 8,-442.7 204,-442.7 204,-423.7 8,-423.7"/>
<text text-anchor="start" x="11" y="-429.8" font-family="Helvetica,sans-Serif" font-size="11.00" fill="#000000">...</text>
<polygon fill="#ffffff" stroke="transparent" points="8,-404.7 8,-423.7 95,-423.7 95,-404.7 8,-404.7"/>
<polygon fill="none" stroke="#000000" points="8,-404.7 8,-423.7 95,-423.7 95,-404.7 8,-404.7"/>
<text text-anchor="start" x="11" y="-410.8" font-family="Helvetica,sans-Serif" font-size="11.00" fill="#000000"> &#160;</text>
<polygon fill="#ffffff" stroke="transparent" points="95,-404.7 95,-423.7 145,-423.7 145,-404.7 95,-404.7"/>
<polygon fill="none" stroke="#000000" points="95,-404.7 95,-423.7 145,-423.7 145,-404.7 95,-404.7"/>
<text text-anchor="start" x="135.8862" y="-410.8" font-family="Helvetica,sans-Serif" font-size="11.00" fill="#000000"> &#160;</text>
<polygon fill="#ffffff" stroke="transparent" points="145,-404.7 145,-423.7 204,-423.7 204,-404.7 145,-404.7"/>
<polygon fill="none" stroke="#000000" points="145,-404.7 145,-423.7 204,-423.7 204,-404.7 145,-404.7"/>
<text text-anchor="start" x="185.4053" y="-410.8" font-family="Helvetica,sans-Serif" font-size="11.00" fill="#000000">2 &gt;</text>
</a>
</g>
</g>
<!-- reference_data&#45;&gt;reference_data_domain -->
<g id="edge1" class="edge">
<title>reference_data:w&#45;&gt;reference_data_domain:e</title>
<path fill="none" stroke="#000000" d="M230.4617,-430.8568C221.5769,-432.0125 212.6543,-432.7 204,-432.7"/>
<polygon fill="#000000" stroke="#000000" points="236.9278,-429.841 245.3896,-432.1557 240.8793,-429.2201 244.8309,-428.5993 244.8309,-428.5993 244.8309,-428.5993 240.8793,-429.2201 244.2721,-425.0429 236.9278,-429.841 236.9278,-429.841"/>
<ellipse fill="none" stroke="#000000" cx="233.7666" cy="-430.3376" rx="3.2" ry="3.2"/>
</g>
<!-- reference_data_domain_link -->
<g id="node3" class="node">
<title>reference_data_domain_link</title>
<g id="a_node3"><a xlink:href="../../tables/reference_data_domain_link.html" xlink:title="reference_data_domain_link" target="_top">
<polygon fill="#ffffff" stroke="transparent" points="462.5,-539.2 462.5,-600.2 689.5,-600.2 689.5,-539.2 462.5,-539.2"/>
<polygon fill="#f5f5f5" stroke="transparent" points="463,-576.7 463,-599.7 690,-599.7 690,-576.7 463,-576.7"/>
<polygon fill="none" stroke="#000000" points="463,-576.7 463,-599.7 690,-599.7 690,-576.7 463,-576.7"/>
<text text-anchor="start" x="468" y="-585.3" font-family="Helvetica,sans-Serif" font-weight="bold" font-size="11.00" fill="#000000">reference_data_domain_link</text>
<text text-anchor="start" x="655.5219" y="-584.8" font-family="Helvetica,sans-Serif" font-size="11.00" fill="#000000">[table]</text>
<polygon fill="none" stroke="#000000" points="463,-557.7 463,-576.7 690,-576.7 690,-557.7 463,-557.7"/>
<text text-anchor="start" x="466" y="-563.8" font-family="Helvetica,sans-Serif" font-size="11.00" fill="#000000">...</text>
<polygon fill="#ffffff" stroke="transparent" points="463,-538.7 463,-557.7 575,-557.7 575,-538.7 463,-538.7"/>
<polygon fill="none" stroke="#000000" points="463,-538.7 463,-557.7 575,-557.7 575,-538.7 463,-538.7"/>
<text text-anchor="start" x="466" y="-544.8" font-family="Helvetica,sans-Serif" font-size="11.00" fill="#000000">&lt; 2</text>
<polygon fill="#ffffff" stroke="transparent" points="575,-538.7 575,-557.7 632,-557.7 632,-538.7 575,-538.7"/>
<polygon fill="none" stroke="#000000" points="575,-538.7 575,-557.7 632,-557.7 632,-538.7 575,-538.7"/>
<text text-anchor="start" x="622.8862" y="-544.8" font-family="Helvetica,sans-Serif" font-size="11.00" fill="#000000"> &#160;</text>
<polygon fill="#ffffff" stroke="transparent" points="632,-538.7 632,-557.7 690,-557.7 690,-538.7 632,-538.7"/>
<polygon fill="none" stroke="#000000" points="632,-538.7 632,-557.7 690,-557.7 690,-538.7 632,-538.7"/>
<text text-anchor="start" x="680.8862" y="-544.8" font-family="Helvetica,sans-Serif" font-size="11.00" fill="#000000"> &#160;</text>
</a>
</g>
</g>
<!-- reference_data_domain_link&#45;&gt;reference_data -->
<g id="edge3" class="edge">
<title>reference_data_domain_link:w&#45;&gt;reference_data:e</title>
<path fill="none" stroke="#000000" d="M454.372,-560.5264C433.454,-541.0076 382.7536,-479.5995 350.807,-440.2385"/>
<polygon fill="#000000" stroke="#000000" points="464.6771,-562.9815 460.0217,-569.4875 458.7205,-568.5564 463.3758,-562.0504 464.6771,-562.9815"/>
<polyline fill="none" stroke="#000000" points="463,-566.7 459.747,-564.3723 "/>
<ellipse fill="none" stroke="#000000" cx="457.1446" cy="-562.5102" rx="3.2" ry="3.2"/>
</g>
<!-- reference_data_domain_link&#45;&gt;reference_data_domain -->
<g id="edge2" class="edge">
<title>reference_data_domain_link:w&#45;&gt;reference_data_domain:e</title>
<path fill="none" stroke="#000000" d="M448.8214,-562.9762C393.5163,-541.3342 233.1738,-432.7 204,-432.7"/>
<polygon fill="#000000" stroke="#000000" points="455.2624,-564.6678 462.0855,-570.1819 459.1312,-565.6839 463,-566.7 463,-566.7 463,-566.7 459.1312,-565.6839 463.9145,-563.2181 455.2624,-564.6678 455.2624,-564.6678"/>
<ellipse fill="none" stroke="#000000" cx="452.1674" cy="-563.8549" rx="3.2" ry="3.2"/>
</g>
<!-- reference_data_link -->
<g id="node4" class="node">
<title>reference_data_link</title>
<g id="a_node4"><a xlink:href="../../tables/reference_data_link.html" xlink:title="reference_data_link" target="_top">
<polygon fill="#ffffff" stroke="transparent" points="490.5,-457.2 490.5,-518.2 661.5,-518.2 661.5,-457.2 490.5,-457.2"/>
<polygon fill="#f5f5f5" stroke="transparent" points="491,-494.7 491,-517.7 662,-517.7 662,-494.7 491,-494.7"/>
<polygon fill="none" stroke="#000000" points="491,-494.7 491,-517.7 662,-517.7 662,-494.7 491,-494.7"/>
<text text-anchor="start" x="496" y="-503.3" font-family="Helvetica,sans-Serif" font-weight="bold" font-size="11.00" fill="#000000">reference_data_link</text>
<text text-anchor="start" x="627.5219" y="-502.8" font-family="Helvetica,sans-Serif" font-size="11.00" fill="#000000">[table]</text>
<polygon fill="none" stroke="#000000" points="491,-475.7 491,-494.7 662,-494.7 662,-475.7 491,-475.7"/>
<text text-anchor="start" x="494" y="-481.8" font-family="Helvetica,sans-Serif" font-size="11.00" fill="#000000">...</text>
<polygon fill="#ffffff" stroke="transparent" points="491,-456.7 491,-475.7 559,-475.7 559,-456.7 491,-456.7"/>
<polygon fill="none" stroke="#000000" points="491,-456.7 491,-475.7 559,-475.7 559,-456.7 491,-456.7"/>
<text text-anchor="start" x="494" y="-462.8" font-family="Helvetica,sans-Serif" font-size="11.00" fill="#000000">&lt; 2</text>
<polygon fill="#ffffff" stroke="transparent" points="559,-456.7 559,-475.7 626,-475.7 626,-456.7 559,-456.7"/>
<polygon fill="none" stroke="#000000" points="559,-456.7 559,-475.7 626,-475.7 626,-456.7 559,-456.7"/>
<text text-anchor="start" x="584.4956" y="-462.8" font-family="Helvetica,sans-Serif" font-size="11.00" fill="#000000">64 rows</text>
<polygon fill="#ffffff" stroke="transparent" points="626,-456.7 626,-475.7 662,-475.7 662,-456.7 626,-456.7"/>
<polygon fill="none" stroke="#000000" points="626,-456.7 626,-475.7 662,-475.7 662,-456.7 626,-456.7"/>
<text text-anchor="start" x="652.8862" y="-462.8" font-family="Helvetica,sans-Serif" font-size="11.00" fill="#000000"> &#160;</text>
</a>
</g>
</g>
<!-- reference_data_link&#45;&gt;reference_data -->
<g id="edge4" class="edge">
<title>reference_data_link:w&#45;&gt;reference_data:e</title>
<path fill="none" stroke="#000000" d="M476.37,-482.9059C439.6457,-476.6466 403.3656,-457.7872 375.318,-440.2374"/>
<polygon fill="#000000" stroke="#000000" points="483.0595,-483.7262 490.5618,-488.2732 487.0297,-484.2131 491,-484.7 491,-484.7 491,-484.7 487.0297,-484.2131 491.4382,-481.1268 483.0595,-483.7262 483.0595,-483.7262"/>
<ellipse fill="none" stroke="#000000" cx="479.8833" cy="-483.3367" rx="3.2" ry="3.2"/>
</g>
<!-- reference_data_link&#45;&gt;reference_data -->
<g id="edge5" class="edge">
<title>reference_data_link:w&#45;&gt;reference_data:e</title>
<path fill="none" stroke="#000000" d="M476.5401,-485.0782C432.9855,-483.759 390.0387,-461.0698 360.6907,-440.2116"/>
<polygon fill="#000000" stroke="#000000" points="483.0027,-484.9092 491.0942,-488.2988 487.0014,-484.8046 491,-484.7 491,-484.7 491,-484.7 487.0014,-484.8046 490.9058,-481.1012 483.0027,-484.9092 483.0027,-484.9092"/>
<ellipse fill="none" stroke="#000000" cx="479.8038" cy="-484.9929" rx="3.2" ry="3.2"/>
</g>
<!-- tap_occurrence_action -->
<g id="node5" class="node">
<title>tap_occurrence_action</title>
<g id="a_node5"><a xlink:href="../../tables/tap_occurrence_action.html" xlink:title="tap_occurrence_action" target="_top">
<polygon fill="#ffffff" stroke="transparent" points="1174.5,-434.2 1174.5,-539.2 1364.5,-539.2 1364.5,-434.2 1174.5,-434.2"/>
<polygon fill="#f5f5f5" stroke="transparent" points="1174.5,-515.7 1174.5,-538.7 1364.5,-538.7 1364.5,-515.7 1174.5,-515.7"/>
<polygon fill="none" stroke="#000000" points="1174.5,-515.7 1174.5,-538.7 1364.5,-538.7 1364.5,-515.7 1174.5,-515.7"/>
<text text-anchor="start" x="1179.5" y="-524.3" font-family="Helvetica,sans-Serif" font-weight="bold" font-size="11.00" fill="#000000">tap_occurrence_action</text>
<text text-anchor="start" x="1330.0219" y="-523.8" font-family="Helvetica,sans-Serif" font-size="11.00" fill="#000000">[table]</text>
<polygon fill="none" stroke="#000000" points="1174.5,-493.7 1174.5,-515.7 1364.5,-515.7 1364.5,-493.7 1174.5,-493.7"/>
<image xlink:href="../../images/primaryKeys.png" width="11px" height="12px" preserveAspectRatio="xMinYMin meet" x="1179.5" y="-510.7"/>
<text text-anchor="start" x="1203.5" y="-500.8" font-family="Helvetica,sans-Serif" font-size="11.00" fill="#000000">id</text>
<polygon fill="none" stroke="#000000" points="1174.5,-471.7 1174.5,-493.7 1364.5,-493.7 1364.5,-471.7 1174.5,-471.7"/>
<image xlink:href="../../images/foreignKeys.png" width="11px" height="12px" preserveAspectRatio="xMinYMin meet" x="1179.5" y="-488.7"/>
<text text-anchor="start" x="1203.5" y="-478.8" font-family="Helvetica,sans-Serif" font-size="11.00" fill="#000000">occurrence_id</text>
<polygon fill="none" stroke="#000000" points="1174.5,-452.7 1174.5,-471.7 1364.5,-471.7 1364.5,-452.7 1174.5,-452.7"/>
<text text-anchor="start" x="1177.5" y="-458.8" font-family="Helvetica,sans-Serif" font-size="11.00" fill="#000000">...</text>
<polygon fill="#ffffff" stroke="transparent" points="1174.5,-433.7 1174.5,-452.7 1267.5,-452.7 1267.5,-433.7 1174.5,-433.7"/>
<polygon fill="none" stroke="#000000" points="1174.5,-433.7 1174.5,-452.7 1267.5,-452.7 1267.5,-433.7 1174.5,-433.7"/>
<text text-anchor="start" x="1177.5" y="-439.8" font-family="Helvetica,sans-Serif" font-size="11.00" fill="#000000">&lt; 1</text>
<polygon fill="#ffffff" stroke="transparent" points="1267.5,-433.7 1267.5,-452.7 1315.5,-452.7 1315.5,-433.7 1267.5,-433.7"/>
<polygon fill="none" stroke="#000000" points="1267.5,-433.7 1267.5,-452.7 1315.5,-452.7 1315.5,-433.7 1267.5,-433.7"/>
<text text-anchor="start" x="1306.3862" y="-439.8" font-family="Helvetica,sans-Serif" font-size="11.00" fill="#000000"> &#160;</text>
<polygon fill="#ffffff" stroke="transparent" points="1315.5,-433.7 1315.5,-452.7 1364.5,-452.7 1364.5,-433.7 1315.5,-433.7"/>
<polygon fill="none" stroke="#000000" points="1315.5,-433.7 1315.5,-452.7 1364.5,-452.7 1364.5,-433.7 1315.5,-433.7"/>
<text text-anchor="start" x="1355.3862" y="-439.8" font-family="Helvetica,sans-Serif" font-size="11.00" fill="#000000"> &#160;</text>
</a>
</g>
</g>
<!-- temporary_absence_occurrence -->
<g id="node6" class="node">
<title>temporary_absence_occurrence</title>
<g id="a_node6"><a xlink:href="../../tables/temporary_absence_occurrence.html" xlink:title="temporary_absence_occurrence" target="_top">
<polygon fill="#ffffff" stroke="transparent" points="759,-98.7 759,-518.7 1096,-518.7 1096,-98.7 759,-98.7"/>
<polygon fill="#f5f5f5" stroke="transparent" points="761.5,-493.7 761.5,-516.7 1094.5,-516.7 1094.5,-493.7 761.5,-493.7"/>
<polygon fill="none" stroke="#000000" points="761.5,-493.7 761.5,-516.7 1094.5,-516.7 1094.5,-493.7 761.5,-493.7"/>
<text text-anchor="start" x="766.5" y="-502.3" font-family="Helvetica,sans-Serif" font-weight="bold" font-size="11.00" fill="#000000">temporary_absence_occurrence</text>
<text text-anchor="start" x="1059.5437" y="-501.8" font-family="Helvetica,sans-Serif" font-size="11.00" fill="#000000">[table]</text>
<polygon fill="none" stroke="#000000" points="761.5,-471.7 761.5,-493.7 995.5,-493.7 995.5,-471.7 761.5,-471.7"/>
<image xlink:href="../../images/primaryKeys.png" width="11px" height="12px" preserveAspectRatio="xMinYMin meet" x="766.5" y="-488.7"/>
<text text-anchor="start" x="781.5" y="-478.8" font-family="Helvetica,sans-Serif" font-size="11.00" fill="#000000">id</text>
<polygon fill="none" stroke="#000000" points="995.5,-471.7 995.5,-493.7 1094.5,-493.7 1094.5,-471.7 995.5,-471.7"/>
<text text-anchor="start" x="998.5" y="-479.4" font-family="Helvetica,sans-Serif" font-size="11.00" fill="#000000">uuid[2147483647]</text>
<polygon fill="none" stroke="#000000" points="761.5,-449.7 761.5,-471.7 995.5,-471.7 995.5,-449.7 761.5,-449.7"/>
<text text-anchor="start" x="781.5" y="-456.8" font-family="Helvetica,sans-Serif" font-size="11.00" fill="#000000">version</text>
<polygon fill="none" stroke="#000000" points="995.5,-449.7 995.5,-471.7 1094.5,-471.7 1094.5,-449.7 995.5,-449.7"/>
<text text-anchor="start" x="998.5" y="-457.4" font-family="Helvetica,sans-Serif" font-size="11.00" fill="#000000">int4[10]</text>
<polygon fill="#ffffff" stroke="transparent" points="761.5,-427.7 761.5,-449.7 995.5,-449.7 995.5,-427.7 761.5,-427.7"/>
<polygon fill="none" stroke="#000000" points="761.5,-427.7 761.5,-449.7 995.5,-449.7 995.5,-427.7 761.5,-427.7"/>
<text text-anchor="start" x="781.5" y="-434.8" font-family="Helvetica,sans-Serif" font-size="11.00" fill="#000000">person_identifier</text>
<polygon fill="none" stroke="#000000" points="995.5,-427.7 995.5,-449.7 1094.5,-449.7 1094.5,-427.7 995.5,-427.7"/>
<text text-anchor="start" x="998.5" y="-435.4" font-family="Helvetica,sans-Serif" font-size="11.00" fill="#000000">varchar[10]</text>
<polygon fill="#ffffff" stroke="transparent" points="761.5,-405.7 761.5,-427.7 995.5,-427.7 995.5,-405.7 761.5,-405.7"/>
<polygon fill="none" stroke="#000000" points="761.5,-405.7 761.5,-427.7 995.5,-427.7 995.5,-405.7 761.5,-405.7"/>
<image xlink:href="../../images/foreignKeys.png" width="11px" height="12px" preserveAspectRatio="xMinYMin meet" x="766.5" y="-422.7"/>
<text text-anchor="start" x="781.5" y="-412.8" font-family="Helvetica,sans-Serif" font-size="11.00" fill="#000000">authorisation_id</text>
<polygon fill="none" stroke="#000000" points="995.5,-405.7 995.5,-427.7 1094.5,-427.7 1094.5,-405.7 995.5,-405.7"/>
<text text-anchor="start" x="998.5" y="-413.4" font-family="Helvetica,sans-Serif" font-size="11.00" fill="#000000">uuid[2147483647]</text>
<polygon fill="#ffffff" stroke="transparent" points="761.5,-383.7 761.5,-405.7 995.5,-405.7 995.5,-383.7 761.5,-383.7"/>
<polygon fill="none" stroke="#000000" points="761.5,-383.7 761.5,-405.7 995.5,-405.7 995.5,-383.7 761.5,-383.7"/>
<text text-anchor="start" x="781.5" y="-390.8" font-family="Helvetica,sans-Serif" font-size="11.00" fill="#000000">release_at</text>
<polygon fill="none" stroke="#000000" points="995.5,-383.7 995.5,-405.7 1094.5,-405.7 1094.5,-383.7 995.5,-383.7"/>
<text text-anchor="start" x="998.5" y="-391.4" font-family="Helvetica,sans-Serif" font-size="11.00" fill="#000000">timestamp[29,6]</text>
<polygon fill="#ffffff" stroke="transparent" points="761.5,-361.7 761.5,-383.7 995.5,-383.7 995.5,-361.7 761.5,-361.7"/>
<polygon fill="none" stroke="#000000" points="761.5,-361.7 761.5,-383.7 995.5,-383.7 995.5,-361.7 761.5,-361.7"/>
<text text-anchor="start" x="781.5" y="-368.8" font-family="Helvetica,sans-Serif" font-size="11.00" fill="#000000">return_by</text>
<polygon fill="none" stroke="#000000" points="995.5,-361.7 995.5,-383.7 1094.5,-383.7 1094.5,-361.7 995.5,-361.7"/>
<text text-anchor="start" x="998.5" y="-369.4" font-family="Helvetica,sans-Serif" font-size="11.00" fill="#000000">timestamp[29,6]</text>
<polygon fill="none" stroke="#000000" points="761.5,-339.7 761.5,-361.7 995.5,-361.7 995.5,-339.7 761.5,-339.7"/>
<image xlink:href="../../images/foreignKeys.png" width="11px" height="12px" preserveAspectRatio="xMinYMin meet" x="766.5" y="-356.7"/>
<text text-anchor="start" x="781.5" y="-346.8" font-family="Helvetica,sans-Serif" font-size="11.00" fill="#000000">accompanied_by_id</text>
<polygon fill="none" stroke="#000000" points="995.5,-339.7 995.5,-361.7 1094.5,-361.7 1094.5,-339.7 995.5,-339.7"/>
<text text-anchor="start" x="998.5" y="-347.4" font-family="Helvetica,sans-Serif" font-size="11.00" fill="#000000">int8[19]</text>
<polygon fill="none" stroke="#000000" points="761.5,-317.7 761.5,-339.7 995.5,-339.7 995.5,-317.7 761.5,-317.7"/>
<image xlink:href="../../images/foreignKeys.png" width="11px" height="12px" preserveAspectRatio="xMinYMin meet" x="766.5" y="-334.7"/>
<text text-anchor="start" x="781.5" y="-324.8" font-family="Helvetica,sans-Serif" font-size="11.00" fill="#000000">transport_id</text>
<polygon fill="none" stroke="#000000" points="995.5,-317.7 995.5,-339.7 1094.5,-339.7 1094.5,-317.7 995.5,-317.7"/>
<text text-anchor="start" x="998.5" y="-325.4" font-family="Helvetica,sans-Serif" font-size="11.00" fill="#000000">int8[19]</text>
<polygon fill="none" stroke="#000000" points="761.5,-295.7 761.5,-317.7 995.5,-317.7 995.5,-295.7 761.5,-295.7"/>
<text text-anchor="start" x="781.5" y="-302.8" font-family="Helvetica,sans-Serif" font-size="11.00" fill="#000000">contact_information</text>
<polygon fill="none" stroke="#000000" points="995.5,-295.7 995.5,-317.7 1094.5,-317.7 1094.5,-295.7 995.5,-295.7"/>
<text text-anchor="start" x="998.5" y="-303.4" font-family="Helvetica,sans-Serif" font-size="11.00" fill="#000000">text[2147483647]</text>
<polygon fill="none" stroke="#000000" points="761.5,-273.7 761.5,-295.7 995.5,-295.7 995.5,-273.7 761.5,-273.7"/>
<text text-anchor="start" x="781.5" y="-280.8" font-family="Helvetica,sans-Serif" font-size="11.00" fill="#000000">notes</text>
<polygon fill="none" stroke="#000000" points="995.5,-273.7 995.5,-295.7 1094.5,-295.7 1094.5,-273.7 995.5,-273.7"/>
<text text-anchor="start" x="998.5" y="-281.4" font-family="Helvetica,sans-Serif" font-size="11.00" fill="#000000">text[2147483647]</text>
<polygon fill="none" stroke="#000000" points="761.5,-251.7 761.5,-273.7 995.5,-273.7 995.5,-251.7 761.5,-251.7"/>
<text text-anchor="start" x="781.5" y="-258.8" font-family="Helvetica,sans-Serif" font-size="11.00" fill="#000000">added_at</text>
<polygon fill="none" stroke="#000000" points="995.5,-251.7 995.5,-273.7 1094.5,-273.7 1094.5,-251.7 995.5,-251.7"/>
<text text-anchor="start" x="998.5" y="-259.4" font-family="Helvetica,sans-Serif" font-size="11.00" fill="#000000">timestamp[29,6]</text>
<polygon fill="none" stroke="#000000" points="761.5,-229.7 761.5,-251.7 995.5,-251.7 995.5,-229.7 761.5,-229.7"/>
<text text-anchor="start" x="781.5" y="-236.8" font-family="Helvetica,sans-Serif" font-size="11.00" fill="#000000">added_by</text>
<polygon fill="none" stroke="#000000" points="995.5,-229.7 995.5,-251.7 1094.5,-251.7 1094.5,-229.7 995.5,-229.7"/>
<text text-anchor="start" x="998.5" y="-237.4" font-family="Helvetica,sans-Serif" font-size="11.00" fill="#000000">varchar[64]</text>
<polygon fill="none" stroke="#000000" points="761.5,-207.7 761.5,-229.7 995.5,-229.7 995.5,-207.7 761.5,-207.7"/>
<text text-anchor="start" x="781.5" y="-214.8" font-family="Helvetica,sans-Serif" font-size="11.00" fill="#000000">cancelled_at</text>
<polygon fill="none" stroke="#000000" points="995.5,-207.7 995.5,-229.7 1094.5,-229.7 1094.5,-207.7 995.5,-207.7"/>
<text text-anchor="start" x="998.5" y="-215.4" font-family="Helvetica,sans-Serif" font-size="11.00" fill="#000000">timestamp[29,6]</text>
<polygon fill="none" stroke="#000000" points="761.5,-185.7 761.5,-207.7 995.5,-207.7 995.5,-185.7 761.5,-185.7"/>
<text text-anchor="start" x="781.5" y="-192.8" font-family="Helvetica,sans-Serif" font-size="11.00" fill="#000000">cancelled_by</text>
<polygon fill="none" stroke="#000000" points="995.5,-185.7 995.5,-207.7 1094.5,-207.7 1094.5,-185.7 995.5,-185.7"/>
<text text-anchor="start" x="998.5" y="-193.4" font-family="Helvetica,sans-Serif" font-size="11.00" fill="#000000">varchar[64]</text>
<polygon fill="#ffffff" stroke="transparent" points="761.5,-163.7 761.5,-185.7 995.5,-185.7 995.5,-163.7 761.5,-163.7"/>
<polygon fill="none" stroke="#000000" points="761.5,-163.7 761.5,-185.7 995.5,-185.7 995.5,-163.7 761.5,-163.7"/>
<text text-anchor="start" x="781.5" y="-170.8" font-family="Helvetica,sans-Serif" font-size="11.00" fill="#000000">legacy_id</text>
<polygon fill="none" stroke="#000000" points="995.5,-163.7 995.5,-185.7 1094.5,-185.7 1094.5,-163.7 995.5,-163.7"/>
<text text-anchor="start" x="998.5" y="-171.4" font-family="Helvetica,sans-Serif" font-size="11.00" fill="#000000">int8[19]</text>
<polygon fill="none" stroke="#000000" points="761.5,-141.7 761.5,-163.7 995.5,-163.7 995.5,-141.7 761.5,-141.7"/>
<text text-anchor="start" x="781.5" y="-148.8" font-family="Helvetica,sans-Serif" font-size="11.00" fill="#000000">location</text>
<polygon fill="none" stroke="#000000" points="995.5,-141.7 995.5,-163.7 1094.5,-163.7 1094.5,-141.7 995.5,-141.7"/>
<text text-anchor="start" x="998.2258" y="-149.4" font-family="Helvetica,sans-Serif" font-size="11.00" fill="#000000">jsonb[2147483647]</text>
<polygon fill="none" stroke="#000000" points="761.5,-119.7 761.5,-141.7 995.5,-141.7 995.5,-119.7 761.5,-119.7"/>
<text text-anchor="start" x="781.5" y="-126.8" font-family="Helvetica,sans-Serif" font-size="11.00" fill="#000000">schedule_reference</text>
<polygon fill="none" stroke="#000000" points="995.5,-119.7 995.5,-141.7 1094.5,-141.7 1094.5,-119.7 995.5,-119.7"/>
<text text-anchor="start" x="998.2258" y="-127.4" font-family="Helvetica,sans-Serif" font-size="11.00" fill="#000000">jsonb[2147483647]</text>
<polygon fill="#ffffff" stroke="transparent" points="761.5,-100.7 761.5,-119.7 882.5,-119.7 882.5,-100.7 761.5,-100.7"/>
<polygon fill="none" stroke="#000000" points="761.5,-100.7 761.5,-119.7 882.5,-119.7 882.5,-100.7 761.5,-100.7"/>
<text text-anchor="start" x="764.5" y="-106.8" font-family="Helvetica,sans-Serif" font-size="11.00" fill="#000000">&lt; 3</text>
<polygon fill="#ffffff" stroke="transparent" points="882.5,-100.7 882.5,-119.7 995.5,-119.7 995.5,-100.7 882.5,-100.7"/>
<polygon fill="none" stroke="#000000" points="882.5,-100.7 882.5,-119.7 995.5,-119.7 995.5,-100.7 882.5,-100.7"/>
<text text-anchor="start" x="986.3862" y="-106.8" font-family="Helvetica,sans-Serif" font-size="11.00" fill="#000000"> &#160;</text>
<polygon fill="#ffffff" stroke="transparent" points="995.5,-100.7 995.5,-119.7 1094.5,-119.7 1094.5,-100.7 995.5,-100.7"/>
<polygon fill="none" stroke="#000000" points="995.5,-100.7 995.5,-119.7 1094.5,-119.7 1094.5,-100.7 995.5,-100.7"/>
<text text-anchor="start" x="1075.9053" y="-106.8" font-family="Helvetica,sans-Serif" font-size="11.00" fill="#000000">2 &gt;</text>
<polygon fill="none" stroke="#000000" stroke-width="2" points="760,-99.7 760,-517.7 1095,-517.7 1095,-99.7 760,-99.7"/>
</a>
</g>
</g>
<!-- tap_occurrence_action&#45;&gt;temporary_absence_occurrence -->
<g id="edge6" class="edge">
<title>tap_occurrence_action:w&#45;&gt;temporary_absence_occurrence:e</title>
<path fill="none" stroke="#000000" d="M1159.9181,-482.7C1135.6172,-482.7 1124.6389,-482.7 1094.5,-482.7"/>
<polygon fill="#000000" stroke="#000000" points="1166.5,-482.7001 1174.5,-486.3 1170.5,-482.7 1174.5,-482.7 1174.5,-482.7 1174.5,-482.7 1170.5,-482.7 1174.5,-479.1 1166.5,-482.7001 1166.5,-482.7001"/>
<ellipse fill="none" stroke="#000000" cx="1163.3" cy="-482.7001" rx="3.2" ry="3.2"/>
</g>
<!-- temporary_absence_occurrence&#45;&gt;reference_data -->
<g id="edge15" class="edge">
<title>temporary_absence_occurrence:w&#45;&gt;reference_data:e</title>
<path fill="none" stroke="#000000" d="M746.9268,-350.6508C613.0257,-349.746 571.9521,-336.9836 434,-364.7 423.2246,-366.8649 412.1051,-369.9156 401.256,-373.3873"/>
<polygon fill="#000000" stroke="#000000" points="753.5,-350.6729 761.4878,-354.3 757.5,-350.6865 761.5,-350.7 761.5,-350.7 761.5,-350.7 757.5,-350.6865 761.5122,-347.1 753.5,-350.6729 753.5,-350.6729"/>
<ellipse fill="none" stroke="#000000" cx="750.3001" cy="-350.6621" rx="3.2" ry="3.2"/>
</g>
<!-- temporary_absence_occurrence&#45;&gt;reference_data -->
<g id="edge17" class="edge">
<title>temporary_absence_occurrence:w&#45;&gt;reference_data:e</title>
<path fill="none" stroke="#000000" d="M746.9158,-328.6162C612.8289,-327.0717 569.341,-305.1365 434,-343.7 412.984,-349.6882 391.6224,-360.3171 373.3254,-371.1019"/>
<polygon fill="#000000" stroke="#000000" points="753.5001,-328.654 761.4793,-332.2999 757.5001,-328.677 761.5,-328.7 761.5,-328.7 761.5,-328.7 757.5001,-328.677 761.5207,-325.1001 753.5001,-328.654 753.5001,-328.654"/>
<ellipse fill="none" stroke="#000000" cx="750.3002" cy="-328.6356" rx="3.2" ry="3.2"/>
</g>
<!-- temporary_absence_authorisation -->
<g id="node7" class="node">
<title>temporary_absence_authorisation</title>
<g id="a_node7"><a xlink:href="../../tables/temporary_absence_authorisation.html" xlink:title="temporary_absence_authorisation" target="_top">
<polygon fill="#ffffff" stroke="transparent" points="442,-375.2 442,-436.2 710,-436.2 710,-375.2 442,-375.2"/>
<polygon fill="#f5f5f5" stroke="transparent" points="442,-412.7 442,-435.7 710,-435.7 710,-412.7 442,-412.7"/>
<polygon fill="none" stroke="#000000" points="442,-412.7 442,-435.7 710,-435.7 710,-412.7 442,-412.7"/>
<text text-anchor="start" x="447" y="-421.3" font-family="Helvetica,sans-Serif" font-weight="bold" font-size="11.00" fill="#000000">temporary_absence_authorisation</text>
<text text-anchor="start" x="675.5219" y="-420.8" font-family="Helvetica,sans-Serif" font-size="11.00" fill="#000000">[table]</text>
<polygon fill="none" stroke="#000000" points="442,-393.7 442,-412.7 710,-412.7 710,-393.7 442,-393.7"/>
<text text-anchor="start" x="445" y="-399.8" font-family="Helvetica,sans-Serif" font-size="11.00" fill="#000000">...</text>
<polygon fill="#ffffff" stroke="transparent" points="442,-374.7 442,-393.7 570,-393.7 570,-374.7 442,-374.7"/>
<polygon fill="none" stroke="#000000" points="442,-374.7 442,-393.7 570,-393.7 570,-374.7 442,-374.7"/>
<text text-anchor="start" x="445" y="-380.8" font-family="Helvetica,sans-Serif" font-size="11.00" fill="#000000">&lt; 5</text>
<polygon fill="#ffffff" stroke="transparent" points="570,-374.7 570,-393.7 635,-393.7 635,-374.7 570,-374.7"/>
<polygon fill="none" stroke="#000000" points="570,-374.7 570,-393.7 635,-393.7 635,-374.7 570,-374.7"/>
<text text-anchor="start" x="625.8862" y="-380.8" font-family="Helvetica,sans-Serif" font-size="11.00" fill="#000000"> &#160;</text>
<polygon fill="#ffffff" stroke="transparent" points="635,-374.7 635,-393.7 710,-393.7 710,-374.7 635,-374.7"/>
<polygon fill="none" stroke="#000000" points="635,-374.7 635,-393.7 710,-393.7 710,-374.7 635,-374.7"/>
<text text-anchor="start" x="691.4053" y="-380.8" font-family="Helvetica,sans-Serif" font-size="11.00" fill="#000000">1 &gt;</text>
</a>
</g>
</g>
<!-- temporary_absence_occurrence&#45;&gt;temporary_absence_authorisation -->
<g id="edge16" class="edge">
<title>temporary_absence_occurrence:w&#45;&gt;temporary_absence_authorisation:e</title>
<path fill="none" stroke="#000000" d="M746.8443,-416.5918C737.4168,-416.4569 727.8262,-416.2011 718.2432,-415.8551"/>
<polygon fill="#000000" stroke="#000000" points="753.5002,-416.6409 761.4734,-420.2999 757.5001,-416.6704 761.5,-416.7 761.5,-416.7 761.5,-416.7 757.5001,-416.6704 761.5266,-413.1001 753.5002,-416.6409 753.5002,-416.6409"/>
<ellipse fill="none" stroke="#000000" cx="750.3003" cy="-416.6172" rx="3.2" ry="3.2"/>
</g>
<!-- temporary_absence_authorisation&#45;&gt;reference_data -->
<g id="edge7" class="edge">
<title>temporary_absence_authorisation:w&#45;&gt;reference_data:e</title>
<path fill="none" stroke="#000000" d="M419.571,-386.6934C413.2672,-386.9049 407.0686,-387.1843 401.0429,-387.5316"/>
<polygon fill="#000000" stroke="#000000" points="425.972,-386.5325 434.06,-389.9301 429.9707,-386.4318 433.9695,-386.3312 433.9695,-386.3312 433.9695,-386.3312 429.9707,-386.4318 433.8789,-382.7324 425.972,-386.5325 425.972,-386.5325"/>
<ellipse fill="none" stroke="#000000" cx="422.773" cy="-386.6129" rx="3.2" ry="3.2"/>
</g>
<!-- temporary_absence_authorisation&#45;&gt;reference_data -->
<g id="edge8" class="edge">
<title>temporary_absence_authorisation:w&#45;&gt;reference_data:e</title>
<path fill="none" stroke="#000000" d="M419.312,-396.2011C413.0974,-396.3063 406.9861,-396.4445 401.0429,-396.6158"/>
<polygon fill="#000000" stroke="#000000" points="425.9701,-396.1169 434.0151,-399.6153 429.9698,-396.0662 433.9695,-396.0156 433.9695,-396.0156 433.9695,-396.0156 429.9698,-396.0662 433.9239,-392.4159 425.9701,-396.1169 425.9701,-396.1169"/>
<ellipse fill="none" stroke="#000000" cx="422.7704" cy="-396.1574" rx="3.2" ry="3.2"/>
</g>
<!-- temporary_absence_authorisation&#45;&gt;reference_data -->
<g id="edge9" class="edge">
<title>temporary_absence_authorisation:w&#45;&gt;reference_data:e</title>
<path fill="none" stroke="#000000" d="M419.312,-405.7C413.0974,-405.7 406.9861,-405.7 401.0429,-405.7"/>
<polygon fill="#000000" stroke="#000000" points="425.9695,-405.7001 433.9695,-409.3 429.9695,-405.7 433.9695,-405.7 433.9695,-405.7 433.9695,-405.7 429.9695,-405.7 433.9695,-402.1 425.9695,-405.7001 425.9695,-405.7001"/>
<ellipse fill="none" stroke="#000000" cx="422.7695" cy="-405.7001" rx="3.2" ry="3.2"/>
</g>
<!-- temporary_absence_authorisation&#45;&gt;reference_data -->
<g id="edge10" class="edge">
<title>temporary_absence_authorisation:w&#45;&gt;reference_data:e</title>
<path fill="none" stroke="#000000" d="M419.312,-415.1989C413.0974,-415.0937 406.9861,-414.9555 401.0429,-414.7842"/>
<polygon fill="#000000" stroke="#000000" points="425.9701,-415.2831 433.9239,-418.9841 429.9698,-415.3338 433.9695,-415.3844 433.9695,-415.3844 433.9695,-415.3844 429.9698,-415.3338 434.0151,-411.7847 425.9701,-415.2831 425.9701,-415.2831"/>
<ellipse fill="none" stroke="#000000" cx="422.7704" cy="-415.2426" rx="3.2" ry="3.2"/>
</g>
<!-- temporary_absence_authorisation&#45;&gt;reference_data -->
<g id="edge11" class="edge">
<title>temporary_absence_authorisation:w&#45;&gt;reference_data:e</title>
<path fill="none" stroke="#000000" d="M419.571,-424.7066C413.2672,-424.4951 407.0686,-424.2157 401.0429,-423.8684"/>
<polygon fill="#000000" stroke="#000000" points="425.972,-424.8675 433.8789,-428.6676 429.9707,-424.9682 433.9695,-425.0688 433.9695,-425.0688 433.9695,-425.0688 429.9707,-424.9682 434.06,-421.4699 425.972,-424.8675 425.972,-424.8675"/>
<ellipse fill="none" stroke="#000000" cx="422.773" cy="-424.7871" rx="3.2" ry="3.2"/>
</g>
<!-- temporary_absence_movement -->
<g id="node8" class="node">
<title>temporary_absence_movement</title>
<g id="a_node8"><a xlink:href="../../tables/temporary_absence_movement.html" xlink:title="temporary_absence_movement" target="_top">
<polygon fill="#ffffff" stroke="transparent" points="1145,-38.2 1145,-99.2 1394,-99.2 1394,-38.2 1145,-38.2"/>
<polygon fill="#f5f5f5" stroke="transparent" points="1145.5,-75.7 1145.5,-98.7 1394.5,-98.7 1394.5,-75.7 1145.5,-75.7"/>
<polygon fill="none" stroke="#000000" points="1145.5,-75.7 1145.5,-98.7 1394.5,-98.7 1394.5,-75.7 1145.5,-75.7"/>
<text text-anchor="start" x="1150.5" y="-84.3" font-family="Helvetica,sans-Serif" font-weight="bold" font-size="11.00" fill="#000000">temporary_absence_movement</text>
<text text-anchor="start" x="1360.0219" y="-83.8" font-family="Helvetica,sans-Serif" font-size="11.00" fill="#000000">[table]</text>
<polygon fill="none" stroke="#000000" points="1145.5,-56.7 1145.5,-75.7 1394.5,-75.7 1394.5,-56.7 1145.5,-56.7"/>
<text text-anchor="start" x="1148.5" y="-62.8" font-family="Helvetica,sans-Serif" font-size="11.00" fill="#000000">...</text>
<polygon fill="#ffffff" stroke="transparent" points="1145.5,-37.7 1145.5,-56.7 1268.5,-56.7 1268.5,-37.7 1145.5,-37.7"/>
<polygon fill="none" stroke="#000000" points="1145.5,-37.7 1145.5,-56.7 1268.5,-56.7 1268.5,-37.7 1145.5,-37.7"/>
<text text-anchor="start" x="1148.5" y="-43.8" font-family="Helvetica,sans-Serif" font-size="11.00" fill="#000000">&lt; 3</text>
<polygon fill="#ffffff" stroke="transparent" points="1268.5,-37.7 1268.5,-56.7 1331.5,-56.7 1331.5,-37.7 1268.5,-37.7"/>
<polygon fill="none" stroke="#000000" points="1268.5,-37.7 1268.5,-56.7 1331.5,-56.7 1331.5,-37.7 1268.5,-37.7"/>
<text text-anchor="start" x="1322.3862" y="-43.8" font-family="Helvetica,sans-Serif" font-size="11.00" fill="#000000"> &#160;</text>
<polygon fill="#ffffff" stroke="transparent" points="1331.5,-37.7 1331.5,-56.7 1394.5,-56.7 1394.5,-37.7 1331.5,-37.7"/>
<polygon fill="none" stroke="#000000" points="1331.5,-37.7 1331.5,-56.7 1394.5,-56.7 1394.5,-37.7 1331.5,-37.7"/>
<text text-anchor="start" x="1385.3862" y="-43.8" font-family="Helvetica,sans-Serif" font-size="11.00" fill="#000000"> &#160;</text>
</a>
</g>
</g>
<!-- temporary_absence_movement&#45;&gt;reference_data -->
<g id="edge12" class="edge">
<title>temporary_absence_movement:w&#45;&gt;reference_data:e</title>
<path fill="none" stroke="#000000" d="M1122.608,-46.7114C1016.4487,-38.7246 871.185,-40.2449 751,-81.7 576.8534,-141.768 414.8257,-300.6047 351.3061,-371.1772"/>
<polygon fill="#000000" stroke="#000000" points="1129.0187,-47.2277 1136.7038,-51.4584 1133.0057,-47.5489 1136.9928,-47.87 1136.9928,-47.87 1136.9928,-47.87 1133.0057,-47.5489 1137.2819,-44.2817 1129.0187,-47.2277 1129.0187,-47.2277"/>
<ellipse fill="none" stroke="#000000" cx="1125.829" cy="-46.9708" rx="3.2" ry="3.2"/>
</g>
<!-- temporary_absence_movement&#45;&gt;reference_data -->
<g id="edge13" class="edge">
<title>temporary_absence_movement:w&#45;&gt;reference_data:e</title>
<path fill="none" stroke="#000000" d="M1122.608,-57.5329C1016.4487,-51.7246 871.185,-53.2449 751,-94.7 582.7604,-152.7305 425.8314,-302.943 358.1064,-371.1926"/>
<polygon fill="#000000" stroke="#000000" points="1129.0066,-57.9084 1136.7819,-61.971 1132.9997,-58.1428 1136.9928,-58.3772 1136.9928,-58.3772 1136.9928,-58.3772 1132.9997,-58.1428 1137.2038,-54.7833 1129.0066,-57.9084 1129.0066,-57.9084"/>
<ellipse fill="none" stroke="#000000" cx="1125.8121" cy="-57.7209" rx="3.2" ry="3.2"/>
</g>
<!-- temporary_absence_movement&#45;&gt;temporary_absence_occurrence -->
<g id="edge14" class="edge">
<title>temporary_absence_movement:w&#45;&gt;temporary_absence_occurrence:e</title>
<path fill="none" stroke="#000000" d="M1251.7281,-117.0744C1211.2449,-226.3243 1114.1501,-482.7 1094.5,-482.7"/>
<polygon fill="#000000" stroke="#000000" points="1254.052,-110.7889 1260.203,-104.5338 1255.4392,-107.0371 1256.8264,-103.2853 1256.8264,-103.2853 1256.8264,-103.2853 1255.4392,-107.0371 1253.4498,-102.0369 1254.052,-110.7889 1254.052,-110.7889"/>
<ellipse fill="none" stroke="#000000" cx="1252.9423" cy="-113.7903" rx="3.2" ry="3.2"/>
</g>
</g>
</svg>
