<?xml version="1.0" encoding="UTF-8" standalone="no"?>
<!DOCTYPE svg PUBLIC "-//W3C//DTD SVG 1.1//EN"
 "http://www.w3.org/Graphics/SVG/1.1/DTD/svg11.dtd">
<!-- Generated by graphviz version 2.40.1 (20161225.0304)
 -->
<!-- Title: twoDegreesRelationshipsDiagram Pages: 1 -->
<svg width="585pt" height="821pt"
 viewBox="0.00 0.00 585.00 820.70" xmlns="http://www.w3.org/2000/svg" xmlns:xlink="http://www.w3.org/1999/xlink">
<g id="graph0" class="graph" transform="scale(1 1) rotate(0) translate(4 816.7)">
<title>twoDegreesRelationshipsDiagram</title>
<polygon fill="#ffffff" stroke="transparent" points="-4,4 -4,-816.7 581,-816.7 581,4 -4,4"/>
<text text-anchor="middle" x="72.4936" y="-7.3" font-family="Helvetica,sans-Serif" font-size="11.00" fill="#000000">Generated by SchemaSpy</text>
<!-- hmpps_domain_event_audit -->
<g id="node1" class="node">
<title>hmpps_domain_event_audit</title>
<g id="a_node1"><a xlink:href="../../tables/hmpps_domain_event_audit.html" xlink:title="hmpps_domain_event_audit" target="_top">
<polygon fill="#ffffff" stroke="transparent" points="267.5,-747.7 267.5,-808.7 492.5,-808.7 492.5,-747.7 267.5,-747.7"/>
<polygon fill="#f5f5f5" stroke="transparent" points="268,-785.2 268,-808.2 493,-808.2 493,-785.2 268,-785.2"/>
<polygon fill="none" stroke="#000000" points="268,-785.2 268,-808.2 493,-808.2 493,-785.2 268,-785.2"/>
<text text-anchor="start" x="273" y="-793.8" font-family="Helvetica,sans-Serif" font-weight="bold" font-size="11.00" fill="#000000">hmpps_domain_event_audit</text>
<text text-anchor="start" x="458.5219" y="-793.3" font-family="Helvetica,sans-Serif" font-size="11.00" fill="#000000">[table]</text>
<polygon fill="none" stroke="#000000" points="268,-766.2 268,-785.2 493,-785.2 493,-766.2 268,-766.2"/>
<text text-anchor="start" x="271" y="-772.3" font-family="Helvetica,sans-Serif" font-size="11.00" fill="#000000">...</text>
<polygon fill="#ffffff" stroke="transparent" points="268,-747.2 268,-766.2 379,-766.2 379,-747.2 268,-747.2"/>
<polygon fill="none" stroke="#000000" points="268,-747.2 268,-766.2 379,-766.2 379,-747.2 268,-747.2"/>
<text text-anchor="start" x="271" y="-753.3" font-family="Helvetica,sans-Serif" font-size="11.00" fill="#000000">&lt; 1</text>
<polygon fill="#ffffff" stroke="transparent" points="379,-747.2 379,-766.2 436,-766.2 436,-747.2 379,-747.2"/>
<polygon fill="none" stroke="#000000" points="379,-747.2 379,-766.2 436,-766.2 436,-747.2 379,-747.2"/>
<text text-anchor="start" x="426.8862" y="-753.3" font-family="Helvetica,sans-Serif" font-size="11.00" fill="#000000"> &#160;</text>
<polygon fill="#ffffff" stroke="transparent" points="436,-747.2 436,-766.2 493,-766.2 493,-747.2 436,-747.2"/>
<polygon fill="none" stroke="#000000" points="436,-747.2 436,-766.2 493,-766.2 493,-747.2 436,-747.2"/>
<text text-anchor="start" x="483.8862" y="-753.3" font-family="Helvetica,sans-Serif" font-size="11.00" fill="#000000"> &#160;</text>
</a>
</g>
</g>
<!-- audit_revision -->
<g id="node2" class="node">
<title>audit_revision</title>
<g id="a_node2"><a xlink:href="../../tables/audit_revision.html" xlink:title="audit_revision" target="_top">
<polygon fill="#ffffff" stroke="transparent" points="8,-562.7 8,-645.7 142,-645.7 142,-562.7 8,-562.7"/>
<polygon fill="#f5f5f5" stroke="transparent" points="8,-622.2 8,-645.2 142,-645.2 142,-622.2 8,-622.2"/>
<polygon fill="none" stroke="#000000" points="8,-622.2 8,-645.2 142,-645.2 142,-622.2 8,-622.2"/>
<text text-anchor="start" x="13" y="-630.8" font-family="Helvetica,sans-Serif" font-weight="bold" font-size="11.00" fill="#000000">audit_revision</text>
<text text-anchor="start" x="107.5219" y="-630.3" font-family="Helvetica,sans-Serif" font-size="11.00" fill="#000000">[table]</text>
<polygon fill="none" stroke="#000000" points="8,-600.2 8,-622.2 142,-622.2 142,-600.2 8,-600.2"/>
<image xlink:href="../../images/primaryKeys.png" width="11px" height="12px" preserveAspectRatio="xMinYMin meet" x="13" y="-617.2"/>
<text text-anchor="start" x="28" y="-607.3" font-family="Helvetica,sans-Serif" font-size="11.00" fill="#000000">id</text>
<polygon fill="none" stroke="#000000" points="8,-581.2 8,-600.2 142,-600.2 142,-581.2 8,-581.2"/>
<text text-anchor="start" x="11" y="-587.3" font-family="Helvetica,sans-Serif" font-size="11.00" fill="#000000">...</text>
<polygon fill="#ffffff" stroke="transparent" points="8,-562.2 8,-581.2 64,-581.2 64,-562.2 8,-562.2"/>
<polygon fill="none" stroke="#000000" points="8,-562.2 8,-581.2 64,-581.2 64,-562.2 8,-562.2"/>
<text text-anchor="start" x="11" y="-568.3" font-family="Helvetica,sans-Serif" font-size="11.00" fill="#000000"> &#160;</text>
<polygon fill="#ffffff" stroke="transparent" points="64,-562.2 64,-581.2 98,-581.2 98,-562.2 64,-562.2"/>
<polygon fill="none" stroke="#000000" points="64,-562.2 64,-581.2 98,-581.2 98,-562.2 64,-562.2"/>
<text text-anchor="start" x="88.8862" y="-568.3" font-family="Helvetica,sans-Serif" font-size="11.00" fill="#000000"> &#160;</text>
<polygon fill="#ffffff" stroke="transparent" points="98,-562.2 98,-581.2 142,-581.2 142,-562.2 98,-562.2"/>
<polygon fill="none" stroke="#000000" points="98,-562.2 98,-581.2 142,-581.2 142,-562.2 98,-562.2"/>
<text text-anchor="start" x="123.4053" y="-568.3" font-family="Helvetica,sans-Serif" font-size="11.00" fill="#000000">5 &gt;</text>
</a>
</g>
</g>
<!-- hmpps_domain_event_audit&#45;&gt;audit_revision -->
<g id="edge1" class="edge">
<title>hmpps_domain_event_audit:w&#45;&gt;audit_revision:e</title>
<path fill="none" stroke="#000000" d="M253.6018,-774.8291C222.4491,-773.0241 207.2135,-764.1214 183,-737.2 143.6188,-693.4145 200.8901,-611.2 142,-611.2"/>
<polygon fill="#000000" stroke="#000000" points="260.0027,-774.9939 267.9073,-778.7988 264.0013,-775.097 268,-775.2 268,-775.2 268,-775.2 264.0013,-775.097 268.0927,-771.6012 260.0027,-774.9939 260.0027,-774.9939"/>
<ellipse fill="none" stroke="#000000" cx="256.8037" cy="-774.9115" rx="3.2" ry="3.2"/>
</g>
<!-- tap_occurrence_action_audit -->
<g id="node3" class="node">
<title>tap_occurrence_action_audit</title>
<g id="a_node3"><a xlink:href="../../tables/tap_occurrence_action_audit.html" xlink:title="tap_occurrence_action_audit" target="_top">
<polygon fill="#ffffff" stroke="transparent" points="264.5,-665.7 264.5,-726.7 495.5,-726.7 495.5,-665.7 264.5,-665.7"/>
<polygon fill="#f5f5f5" stroke="transparent" points="265,-703.2 265,-726.2 496,-726.2 496,-703.2 265,-703.2"/>
<polygon fill="none" stroke="#000000" points="265,-703.2 265,-726.2 496,-726.2 496,-703.2 265,-703.2"/>
<text text-anchor="start" x="270" y="-711.8" font-family="Helvetica,sans-Serif" font-weight="bold" font-size="11.00" fill="#000000">tap_occurrence_action_audit</text>
<text text-anchor="start" x="461.5219" y="-711.3" font-family="Helvetica,sans-Serif" font-size="11.00" fill="#000000">[table]</text>
<polygon fill="none" stroke="#000000" points="265,-684.2 265,-703.2 496,-703.2 496,-684.2 265,-684.2"/>
<text text-anchor="start" x="268" y="-690.3" font-family="Helvetica,sans-Serif" font-size="11.00" fill="#000000">...</text>
<polygon fill="#ffffff" stroke="transparent" points="265,-665.2 265,-684.2 379,-684.2 379,-665.2 265,-665.2"/>
<polygon fill="none" stroke="#000000" points="265,-665.2 265,-684.2 379,-684.2 379,-665.2 265,-665.2"/>
<text text-anchor="start" x="268" y="-671.3" font-family="Helvetica,sans-Serif" font-size="11.00" fill="#000000">&lt; 1</text>
<polygon fill="#ffffff" stroke="transparent" points="379,-665.2 379,-684.2 437,-684.2 437,-665.2 379,-665.2"/>
<polygon fill="none" stroke="#000000" points="379,-665.2 379,-684.2 437,-684.2 437,-665.2 379,-665.2"/>
<text text-anchor="start" x="427.8862" y="-671.3" font-family="Helvetica,sans-Serif" font-size="11.00" fill="#000000"> &#160;</text>
<polygon fill="#ffffff" stroke="transparent" points="437,-665.2 437,-684.2 496,-684.2 496,-665.2 437,-665.2"/>
<polygon fill="none" stroke="#000000" points="437,-665.2 437,-684.2 496,-684.2 496,-665.2 437,-665.2"/>
<text text-anchor="start" x="486.8862" y="-671.3" font-family="Helvetica,sans-Serif" font-size="11.00" fill="#000000"> &#160;</text>
</a>
</g>
</g>
<!-- tap_occurrence_action_audit&#45;&gt;audit_revision -->
<g id="edge2" class="edge">
<title>tap_occurrence_action_audit:w&#45;&gt;audit_revision:e</title>
<path fill="none" stroke="#000000" d="M250.5019,-692.4491C221.9494,-689.2075 211.2008,-675.6459 183,-655.2 161.3596,-639.5105 168.7296,-611.2 142,-611.2"/>
<polygon fill="#000000" stroke="#000000" points="257.0107,-692.7862 264.8138,-696.7952 261.0054,-692.9931 265,-693.2 265,-693.2 265,-693.2 261.0054,-692.9931 265.1862,-689.6048 257.0107,-692.7862 257.0107,-692.7862"/>
<ellipse fill="none" stroke="#000000" cx="253.815" cy="-692.6206" rx="3.2" ry="3.2"/>
</g>
<!-- temporary_absence_authorisation_audit -->
<g id="node4" class="node">
<title>temporary_absence_authorisation_audit</title>
<g id="a_node4"><a xlink:href="../../tables/temporary_absence_authorisation_audit.html" xlink:title="temporary_absence_authorisation_audit" target="_top">
<polygon fill="#ffffff" stroke="transparent" points="225.5,-583.7 225.5,-644.7 534.5,-644.7 534.5,-583.7 225.5,-583.7"/>
<polygon fill="#f5f5f5" stroke="transparent" points="226,-621.2 226,-644.2 535,-644.2 535,-621.2 226,-621.2"/>
<polygon fill="none" stroke="#000000" points="226,-621.2 226,-644.2 535,-644.2 535,-621.2 226,-621.2"/>
<text text-anchor="start" x="231" y="-629.8" font-family="Helvetica,sans-Serif" font-weight="bold" font-size="11.00" fill="#000000">temporary_absence_authorisation_audit</text>
<text text-anchor="start" x="500.5219" y="-629.3" font-family="Helvetica,sans-Serif" font-size="11.00" fill="#000000">[table]</text>
<polygon fill="none" stroke="#000000" points="226,-602.2 226,-621.2 535,-621.2 535,-602.2 226,-602.2"/>
<text text-anchor="start" x="229" y="-608.3" font-family="Helvetica,sans-Serif" font-size="11.00" fill="#000000">...</text>
<polygon fill="#ffffff" stroke="transparent" points="226,-583.2 226,-602.2 379,-602.2 379,-583.2 226,-583.2"/>
<polygon fill="none" stroke="#000000" points="226,-583.2 226,-602.2 379,-602.2 379,-583.2 226,-583.2"/>
<text text-anchor="start" x="229" y="-589.3" font-family="Helvetica,sans-Serif" font-size="11.00" fill="#000000">&lt; 1</text>
<polygon fill="#ffffff" stroke="transparent" points="379,-583.2 379,-602.2 457,-602.2 457,-583.2 379,-583.2"/>
<polygon fill="none" stroke="#000000" points="379,-583.2 379,-602.2 457,-602.2 457,-583.2 379,-583.2"/>
<text text-anchor="start" x="447.8862" y="-589.3" font-family="Helvetica,sans-Serif" font-size="11.00" fill="#000000"> &#160;</text>
<polygon fill="#ffffff" stroke="transparent" points="457,-583.2 457,-602.2 535,-602.2 535,-583.2 457,-583.2"/>
<polygon fill="none" stroke="#000000" points="457,-583.2 457,-602.2 535,-602.2 535,-583.2 457,-583.2"/>
<text text-anchor="start" x="525.8862" y="-589.3" font-family="Helvetica,sans-Serif" font-size="11.00" fill="#000000"> &#160;</text>
</a>
</g>
</g>
<!-- temporary_absence_authorisation_audit&#45;&gt;audit_revision -->
<g id="edge3" class="edge">
<title>temporary_absence_authorisation_audit:w&#45;&gt;audit_revision:e</title>
<path fill="none" stroke="#000000" d="M211.3981,-611.2C185.3839,-611.2 173.9375,-611.2 142,-611.2"/>
<polygon fill="#000000" stroke="#000000" points="218,-611.2001 226,-614.8 222,-611.2 226,-611.2 226,-611.2 226,-611.2 222,-611.2 226,-607.6 218,-611.2001 218,-611.2001"/>
<ellipse fill="none" stroke="#000000" cx="214.8" cy="-611.2001" rx="3.2" ry="3.2"/>
</g>
<!-- temporary_absence_movement_audit -->
<g id="node5" class="node">
<title>temporary_absence_movement_audit</title>
<g id="a_node5"><a xlink:href="../../tables/temporary_absence_movement_audit.html" xlink:title="temporary_absence_movement_audit" target="_top">
<polygon fill="#ffffff" stroke="transparent" points="235,-501.7 235,-562.7 525,-562.7 525,-501.7 235,-501.7"/>
<polygon fill="#f5f5f5" stroke="transparent" points="235,-539.2 235,-562.2 525,-562.2 525,-539.2 235,-539.2"/>
<polygon fill="none" stroke="#000000" points="235,-539.2 235,-562.2 525,-562.2 525,-539.2 235,-539.2"/>
<text text-anchor="start" x="240" y="-547.8" font-family="Helvetica,sans-Serif" font-weight="bold" font-size="11.00" fill="#000000">temporary_absence_movement_audit</text>
<text text-anchor="start" x="490.5219" y="-547.3" font-family="Helvetica,sans-Serif" font-size="11.00" fill="#000000">[table]</text>
<polygon fill="none" stroke="#000000" points="235,-520.2 235,-539.2 525,-539.2 525,-520.2 235,-520.2"/>
<text text-anchor="start" x="238" y="-526.3" font-family="Helvetica,sans-Serif" font-size="11.00" fill="#000000">...</text>
<polygon fill="#ffffff" stroke="transparent" points="235,-501.2 235,-520.2 378,-520.2 378,-501.2 235,-501.2"/>
<polygon fill="none" stroke="#000000" points="235,-501.2 235,-520.2 378,-520.2 378,-501.2 235,-501.2"/>
<text text-anchor="start" x="238" y="-507.3" font-family="Helvetica,sans-Serif" font-size="11.00" fill="#000000">&lt; 1</text>
<polygon fill="#ffffff" stroke="transparent" points="378,-501.2 378,-520.2 451,-520.2 451,-501.2 378,-501.2"/>
<polygon fill="none" stroke="#000000" points="378,-501.2 378,-520.2 451,-520.2 451,-501.2 378,-501.2"/>
<text text-anchor="start" x="441.8862" y="-507.3" font-family="Helvetica,sans-Serif" font-size="11.00" fill="#000000"> &#160;</text>
<polygon fill="#ffffff" stroke="transparent" points="451,-501.2 451,-520.2 525,-520.2 525,-501.2 451,-501.2"/>
<polygon fill="none" stroke="#000000" points="451,-501.2 451,-520.2 525,-520.2 525,-501.2 451,-501.2"/>
<text text-anchor="start" x="515.8862" y="-507.3" font-family="Helvetica,sans-Serif" font-size="11.00" fill="#000000"> &#160;</text>
</a>
</g>
</g>
<!-- temporary_absence_movement_audit&#45;&gt;audit_revision -->
<g id="edge4" class="edge">
<title>temporary_absence_movement_audit:w&#45;&gt;audit_revision:e</title>
<path fill="none" stroke="#000000" d="M220.4246,-531.7313C204.1916,-538.3996 201.237,-557.0478 183,-573.2 164.4009,-589.6729 166.8452,-611.2 142,-611.2"/>
<polygon fill="#000000" stroke="#000000" points="227.118,-530.5689 235.616,-532.7469 231.059,-529.8844 235,-529.2 235,-529.2 235,-529.2 231.059,-529.8844 234.384,-525.6531 227.118,-530.5689 227.118,-530.5689"/>
<ellipse fill="none" stroke="#000000" cx="223.9652" cy="-531.1165" rx="3.2" ry="3.2"/>
</g>
<!-- temporary_absence_occurrence_audit -->
<g id="node6" class="node">
<title>temporary_absence_occurrence_audit</title>
<g id="a_node6"><a xlink:href="../../tables/temporary_absence_occurrence_audit.html" xlink:title="temporary_absence_occurrence_audit" target="_top">
<polygon fill="#ffffff" stroke="transparent" points="191,-38.2 191,-480.2 569,-480.2 569,-38.2 191,-38.2"/>
<polygon fill="#f5f5f5" stroke="transparent" points="193,-455.2 193,-478.2 567,-478.2 567,-455.2 193,-455.2"/>
<polygon fill="none" stroke="#000000" points="193,-455.2 193,-478.2 567,-478.2 567,-455.2 193,-455.2"/>
<text text-anchor="start" x="198" y="-463.8" font-family="Helvetica,sans-Serif" font-weight="bold" font-size="11.00" fill="#000000">temporary_absence_occurrence_audit</text>
<text text-anchor="start" x="532.0437" y="-463.3" font-family="Helvetica,sans-Serif" font-size="11.00" fill="#000000">[table]</text>
<polygon fill="none" stroke="#000000" points="193,-433.2 193,-455.2 468,-455.2 468,-433.2 193,-433.2"/>
<image xlink:href="../../images/primaryKeys.png" width="11px" height="12px" preserveAspectRatio="xMinYMin meet" x="198" y="-450.2"/>
<text text-anchor="start" x="213" y="-440.3" font-family="Helvetica,sans-Serif" font-size="11.00" fill="#000000">rev_id</text>
<polygon fill="none" stroke="#000000" points="468,-433.2 468,-455.2 567,-455.2 567,-433.2 468,-433.2"/>
<text text-anchor="start" x="471" y="-440.9" font-family="Helvetica,sans-Serif" font-size="11.00" fill="#000000">int8[19]</text>
<polygon fill="none" stroke="#000000" points="193,-411.2 193,-433.2 468,-433.2 468,-411.2 193,-411.2"/>
<text text-anchor="start" x="213" y="-418.3" font-family="Helvetica,sans-Serif" font-size="11.00" fill="#000000">rev_type</text>
<polygon fill="none" stroke="#000000" points="468,-411.2 468,-433.2 567,-433.2 567,-411.2 468,-411.2"/>
<text text-anchor="start" x="471" y="-418.9" font-family="Helvetica,sans-Serif" font-size="11.00" fill="#000000">int2[5]</text>
<polygon fill="none" stroke="#000000" points="193,-389.2 193,-411.2 468,-411.2 468,-389.2 193,-389.2"/>
<image xlink:href="../../images/primaryKeys.png" width="11px" height="12px" preserveAspectRatio="xMinYMin meet" x="198" y="-406.2"/>
<text text-anchor="start" x="213" y="-396.3" font-family="Helvetica,sans-Serif" font-size="11.00" fill="#000000">id</text>
<polygon fill="none" stroke="#000000" points="468,-389.2 468,-411.2 567,-411.2 567,-389.2 468,-389.2"/>
<text text-anchor="start" x="471" y="-396.9" font-family="Helvetica,sans-Serif" font-size="11.00" fill="#000000">uuid[2147483647]</text>
<polygon fill="none" stroke="#000000" points="193,-367.2 193,-389.2 468,-389.2 468,-367.2 193,-367.2"/>
<text text-anchor="start" x="213" y="-374.3" font-family="Helvetica,sans-Serif" font-size="11.00" fill="#000000">person_identifier</text>
<polygon fill="none" stroke="#000000" points="468,-367.2 468,-389.2 567,-389.2 567,-367.2 468,-367.2"/>
<text text-anchor="start" x="471" y="-374.9" font-family="Helvetica,sans-Serif" font-size="11.00" fill="#000000">varchar[10]</text>
<polygon fill="none" stroke="#000000" points="193,-345.2 193,-367.2 468,-367.2 468,-345.2 193,-345.2"/>
<text text-anchor="start" x="213" y="-352.3" font-family="Helvetica,sans-Serif" font-size="11.00" fill="#000000">authorisation_id</text>
<polygon fill="none" stroke="#000000" points="468,-345.2 468,-367.2 567,-367.2 567,-345.2 468,-345.2"/>
<text text-anchor="start" x="471" y="-352.9" font-family="Helvetica,sans-Serif" font-size="11.00" fill="#000000">uuid[2147483647]</text>
<polygon fill="none" stroke="#000000" points="193,-323.2 193,-345.2 468,-345.2 468,-323.2 193,-323.2"/>
<text text-anchor="start" x="213" y="-330.3" font-family="Helvetica,sans-Serif" font-size="11.00" fill="#000000">release_at</text>
<polygon fill="none" stroke="#000000" points="468,-323.2 468,-345.2 567,-345.2 567,-323.2 468,-323.2"/>
<text text-anchor="start" x="471" y="-330.9" font-family="Helvetica,sans-Serif" font-size="11.00" fill="#000000">timestamp[29,6]</text>
<polygon fill="none" stroke="#000000" points="193,-301.2 193,-323.2 468,-323.2 468,-301.2 193,-301.2"/>
<text text-anchor="start" x="213" y="-308.3" font-family="Helvetica,sans-Serif" font-size="11.00" fill="#000000">return_by</text>
<polygon fill="none" stroke="#000000" points="468,-301.2 468,-323.2 567,-323.2 567,-301.2 468,-301.2"/>
<text text-anchor="start" x="471" y="-308.9" font-family="Helvetica,sans-Serif" font-size="11.00" fill="#000000">timestamp[29,6]</text>
<polygon fill="none" stroke="#000000" points="193,-279.2 193,-301.2 468,-301.2 468,-279.2 193,-279.2"/>
<text text-anchor="start" x="213" y="-286.3" font-family="Helvetica,sans-Serif" font-size="11.00" fill="#000000">accompanied_by_id</text>
<polygon fill="none" stroke="#000000" points="468,-279.2 468,-301.2 567,-301.2 567,-279.2 468,-279.2"/>
<text text-anchor="start" x="471" y="-286.9" font-family="Helvetica,sans-Serif" font-size="11.00" fill="#000000">int8[19]</text>
<polygon fill="none" stroke="#000000" points="193,-257.2 193,-279.2 468,-279.2 468,-257.2 193,-257.2"/>
<text text-anchor="start" x="213" y="-264.3" font-family="Helvetica,sans-Serif" font-size="11.00" fill="#000000">transport_id</text>
<polygon fill="none" stroke="#000000" points="468,-257.2 468,-279.2 567,-279.2 567,-257.2 468,-257.2"/>
<text text-anchor="start" x="471" y="-264.9" font-family="Helvetica,sans-Serif" font-size="11.00" fill="#000000">int8[19]</text>
<polygon fill="none" stroke="#000000" points="193,-235.2 193,-257.2 468,-257.2 468,-235.2 193,-235.2"/>
<text text-anchor="start" x="213" y="-242.3" font-family="Helvetica,sans-Serif" font-size="11.00" fill="#000000">contact_information</text>
<polygon fill="none" stroke="#000000" points="468,-235.2 468,-257.2 567,-257.2 567,-235.2 468,-235.2"/>
<text text-anchor="start" x="471" y="-242.9" font-family="Helvetica,sans-Serif" font-size="11.00" fill="#000000">text[2147483647]</text>
<polygon fill="none" stroke="#000000" points="193,-213.2 193,-235.2 468,-235.2 468,-213.2 193,-213.2"/>
<text text-anchor="start" x="213" y="-220.3" font-family="Helvetica,sans-Serif" font-size="11.00" fill="#000000">notes</text>
<polygon fill="none" stroke="#000000" points="468,-213.2 468,-235.2 567,-235.2 567,-213.2 468,-213.2"/>
<text text-anchor="start" x="471" y="-220.9" font-family="Helvetica,sans-Serif" font-size="11.00" fill="#000000">text[2147483647]</text>
<polygon fill="none" stroke="#000000" points="193,-191.2 193,-213.2 468,-213.2 468,-191.2 193,-191.2"/>
<text text-anchor="start" x="213" y="-198.3" font-family="Helvetica,sans-Serif" font-size="11.00" fill="#000000">added_at</text>
<polygon fill="none" stroke="#000000" points="468,-191.2 468,-213.2 567,-213.2 567,-191.2 468,-191.2"/>
<text text-anchor="start" x="471" y="-198.9" font-family="Helvetica,sans-Serif" font-size="11.00" fill="#000000">timestamp[29,6]</text>
<polygon fill="none" stroke="#000000" points="193,-169.2 193,-191.2 468,-191.2 468,-169.2 193,-169.2"/>
<text text-anchor="start" x="213" y="-176.3" font-family="Helvetica,sans-Serif" font-size="11.00" fill="#000000">added_by</text>
<polygon fill="none" stroke="#000000" points="468,-169.2 468,-191.2 567,-191.2 567,-169.2 468,-169.2"/>
<text text-anchor="start" x="471" y="-176.9" font-family="Helvetica,sans-Serif" font-size="11.00" fill="#000000">varchar[64]</text>
<polygon fill="none" stroke="#000000" points="193,-147.2 193,-169.2 468,-169.2 468,-147.2 193,-147.2"/>
<text text-anchor="start" x="213" y="-154.3" font-family="Helvetica,sans-Serif" font-size="11.00" fill="#000000">cancelled_at</text>
<polygon fill="none" stroke="#000000" points="468,-147.2 468,-169.2 567,-169.2 567,-147.2 468,-147.2"/>
<text text-anchor="start" x="471" y="-154.9" font-family="Helvetica,sans-Serif" font-size="11.00" fill="#000000">timestamp[29,6]</text>
<polygon fill="none" stroke="#000000" points="193,-125.2 193,-147.2 468,-147.2 468,-125.2 193,-125.2"/>
<text text-anchor="start" x="213" y="-132.3" font-family="Helvetica,sans-Serif" font-size="11.00" fill="#000000">cancelled_by</text>
<polygon fill="none" stroke="#000000" points="468,-125.2 468,-147.2 567,-147.2 567,-125.2 468,-125.2"/>
<text text-anchor="start" x="471" y="-132.9" font-family="Helvetica,sans-Serif" font-size="11.00" fill="#000000">varchar[64]</text>
<polygon fill="none" stroke="#000000" points="193,-103.2 193,-125.2 468,-125.2 468,-103.2 193,-103.2"/>
<text text-anchor="start" x="213" y="-110.3" font-family="Helvetica,sans-Serif" font-size="11.00" fill="#000000">legacy_id</text>
<polygon fill="none" stroke="#000000" points="468,-103.2 468,-125.2 567,-125.2 567,-103.2 468,-103.2"/>
<text text-anchor="start" x="471" y="-110.9" font-family="Helvetica,sans-Serif" font-size="11.00" fill="#000000">int8[19]</text>
<polygon fill="none" stroke="#000000" points="193,-81.2 193,-103.2 468,-103.2 468,-81.2 193,-81.2"/>
<text text-anchor="start" x="213" y="-88.3" font-family="Helvetica,sans-Serif" font-size="11.00" fill="#000000">location</text>
<polygon fill="none" stroke="#000000" points="468,-81.2 468,-103.2 567,-103.2 567,-81.2 468,-81.2"/>
<text text-anchor="start" x="470.7258" y="-88.9" font-family="Helvetica,sans-Serif" font-size="11.00" fill="#000000">jsonb[2147483647]</text>
<polygon fill="none" stroke="#000000" points="193,-59.2 193,-81.2 468,-81.2 468,-59.2 193,-59.2"/>
<text text-anchor="start" x="213" y="-66.3" font-family="Helvetica,sans-Serif" font-size="11.00" fill="#000000">schedule_reference</text>
<polygon fill="none" stroke="#000000" points="468,-59.2 468,-81.2 567,-81.2 567,-59.2 468,-59.2"/>
<text text-anchor="start" x="470.7258" y="-66.9" font-family="Helvetica,sans-Serif" font-size="11.00" fill="#000000">jsonb[2147483647]</text>
<polygon fill="#ffffff" stroke="transparent" points="193,-40.2 193,-59.2 335,-59.2 335,-40.2 193,-40.2"/>
<polygon fill="none" stroke="#000000" points="193,-40.2 193,-59.2 335,-59.2 335,-40.2 193,-40.2"/>
<text text-anchor="start" x="196" y="-46.3" font-family="Helvetica,sans-Serif" font-size="11.00" fill="#000000">&lt; 1</text>
<polygon fill="#ffffff" stroke="transparent" points="335,-40.2 335,-59.2 468,-59.2 468,-40.2 335,-40.2"/>
<polygon fill="none" stroke="#000000" points="335,-40.2 335,-59.2 468,-59.2 468,-40.2 335,-40.2"/>
<text text-anchor="start" x="458.8862" y="-46.3" font-family="Helvetica,sans-Serif" font-size="11.00" fill="#000000"> &#160;</text>
<polygon fill="#ffffff" stroke="transparent" points="468,-40.2 468,-59.2 567,-59.2 567,-40.2 468,-40.2"/>
<polygon fill="none" stroke="#000000" points="468,-40.2 468,-59.2 567,-59.2 567,-40.2 468,-40.2"/>
<text text-anchor="start" x="548.4053" y="-46.3" font-family="Helvetica,sans-Serif" font-size="11.00" fill="#000000">0 &gt;</text>
<polygon fill="none" stroke="#000000" stroke-width="2" points="192,-39.2 192,-479.2 568,-479.2 568,-39.2 192,-39.2"/>
</a>
</g>
</g>
<!-- temporary_absence_occurrence_audit&#45;&gt;audit_revision -->
<g id="edge5" class="edge">
<title>temporary_absence_occurrence_audit:w&#45;&gt;audit_revision:e</title>
<path fill="none" stroke="#000000" d="M178.5764,-446.8232C129.8613,-468.0692 213.8463,-611.2 142,-611.2"/>
<polygon fill="#000000" stroke="#000000" points="185.1291,-445.6315 193.6442,-447.7419 189.0646,-444.9158 193,-444.2 193,-444.2 193,-444.2 189.0646,-444.9158 192.3558,-440.6581 185.1291,-445.6315 185.1291,-445.6315"/>
<ellipse fill="none" stroke="#000000" cx="181.9808" cy="-446.2041" rx="3.2" ry="3.2"/>
</g>
</g>
</svg>
