<?xml version="1.0" encoding="UTF-8" standalone="no"?>
<!DOCTYPE svg PUBLIC "-//W3C//DTD SVG 1.1//EN"
 "http://www.w3.org/Graphics/SVG/1.1/DTD/svg11.dtd">
<!-- Generated by graphviz version 2.40.1 (20161225.0304)
 -->
<!-- Title: twoDegreesRelationshipsDiagramImplied Pages: 1 -->
<svg width="602pt" height="964pt"
 viewBox="0.00 0.00 602.00 963.70" xmlns="http://www.w3.org/2000/svg" xmlns:xlink="http://www.w3.org/1999/xlink">
<g id="graph0" class="graph" transform="scale(1 1) rotate(0) translate(4 959.7)">
<title>twoDegreesRelationshipsDiagramImplied</title>
<polygon fill="#ffffff" stroke="transparent" points="-4,4 -4,-959.7 598,-959.7 598,4 -4,4"/>
<text text-anchor="middle" x="72.4936" y="-7.3" font-family="Helvetica,sans-Serif" font-size="11.00" fill="#000000">Generated by SchemaSpy</text>
<!-- audited_tap_authorisation -->
<g id="node1" class="node">
<title>audited_tap_authorisation</title>
<g id="a_node1"><a xlink:href="../../tables/audited_tap_authorisation.html" xlink:title="audited_tap_authorisation" target="_top">
<polygon fill="#ffffff" stroke="transparent" points="291,-909.7 291,-951.7 506,-951.7 506,-909.7 291,-909.7"/>
<polygon fill="#f5f5f5" stroke="transparent" points="291.5,-928.7 291.5,-951.7 506.5,-951.7 506.5,-928.7 291.5,-928.7"/>
<polygon fill="none" stroke="#000000" points="291.5,-928.7 291.5,-951.7 506.5,-951.7 506.5,-928.7 291.5,-928.7"/>
<text text-anchor="start" x="296.5" y="-937.3" font-family="Helvetica,sans-Serif" font-weight="bold" font-size="11.00" fill="#000000">audited_tap_authorisation</text>
<text text-anchor="start" x="473.4448" y="-936.8" font-family="Helvetica,sans-Serif" font-size="11.00" fill="#000000">[view]</text>
<polygon fill="none" stroke="#000000" points="291.5,-909.7 291.5,-928.7 506.5,-928.7 506.5,-909.7 291.5,-909.7"/>
<text text-anchor="start" x="294.5" y="-915.8" font-family="Helvetica,sans-Serif" font-size="11.00" fill="#000000">...</text>
</a>
</g>
</g>
<!-- person_summary -->
<g id="node2" class="node">
<title>person_summary</title>
<g id="a_node2"><a xlink:href="../../tables/person_summary.html" xlink:title="person_summary" target="_top">
<polygon fill="#ffffff" stroke="transparent" points="8,-702.2 8,-785.2 162,-785.2 162,-702.2 8,-702.2"/>
<polygon fill="#f5f5f5" stroke="transparent" points="8,-761.7 8,-784.7 162,-784.7 162,-761.7 8,-761.7"/>
<polygon fill="none" stroke="#000000" points="8,-761.7 8,-784.7 162,-784.7 162,-761.7 8,-761.7"/>
<text text-anchor="start" x="13" y="-770.3" font-family="Helvetica,sans-Serif" font-weight="bold" font-size="11.00" fill="#000000">person_summary</text>
<text text-anchor="start" x="127.5219" y="-769.8" font-family="Helvetica,sans-Serif" font-size="11.00" fill="#000000">[table]</text>
<polygon fill="none" stroke="#000000" points="8,-739.7 8,-761.7 162,-761.7 162,-739.7 8,-739.7"/>
<image xlink:href="../../images/primaryKeys.png" width="11px" height="12px" preserveAspectRatio="xMinYMin meet" x="13" y="-756.7"/>
<text text-anchor="start" x="37" y="-746.8" font-family="Helvetica,sans-Serif" font-size="11.00" fill="#000000">person_identifier</text>
<polygon fill="none" stroke="#000000" points="8,-720.7 8,-739.7 162,-739.7 162,-720.7 8,-720.7"/>
<text text-anchor="start" x="11" y="-726.8" font-family="Helvetica,sans-Serif" font-size="11.00" fill="#000000">...</text>
<polygon fill="#ffffff" stroke="transparent" points="8,-701.7 8,-720.7 74,-720.7 74,-701.7 8,-701.7"/>
<polygon fill="none" stroke="#000000" points="8,-701.7 8,-720.7 74,-720.7 74,-701.7 8,-701.7"/>
<text text-anchor="start" x="11" y="-707.8" font-family="Helvetica,sans-Serif" font-size="11.00" fill="#000000"> &#160;</text>
<polygon fill="#ffffff" stroke="transparent" points="74,-701.7 74,-720.7 113,-720.7 113,-701.7 74,-701.7"/>
<polygon fill="none" stroke="#000000" points="74,-701.7 74,-720.7 113,-720.7 113,-701.7 74,-701.7"/>
<text text-anchor="start" x="103.8862" y="-707.8" font-family="Helvetica,sans-Serif" font-size="11.00" fill="#000000"> &#160;</text>
<polygon fill="#ffffff" stroke="transparent" points="113,-701.7 113,-720.7 162,-720.7 162,-701.7 113,-701.7"/>
<polygon fill="none" stroke="#000000" points="113,-701.7 113,-720.7 162,-720.7 162,-701.7 113,-701.7"/>
<text text-anchor="start" x="143.4053" y="-707.8" font-family="Helvetica,sans-Serif" font-size="11.00" fill="#000000">6 &gt;</text>
</a>
</g>
</g>
<!-- audited_tap_authorisation&#45;&gt;person_summary -->
<g id="edge1" class="edge">
<title>audited_tap_authorisation:w&#45;&gt;person_summary:e</title>
<path fill="none" stroke="#000000" stroke-dasharray="5,2" d="M276.9322,-919.0338C246.1959,-920.321 228.4762,-923.7629 203,-899.7 153.0681,-852.5381 230.6836,-750.7 162,-750.7"/>
<polygon fill="#000000" stroke="#000000" points="283.5021,-918.8833 291.5825,-922.2991 287.501,-918.7917 291.5,-918.7 291.5,-918.7 291.5,-918.7 287.501,-918.7917 291.4175,-915.1009 283.5021,-918.8833 283.5021,-918.8833"/>
<ellipse fill="none" stroke="#000000" cx="280.3029" cy="-918.9566" rx="3.2" ry="3.2"/>
</g>
<!-- audited_tap_movement -->
<g id="node3" class="node">
<title>audited_tap_movement</title>
<g id="a_node3"><a xlink:href="../../tables/audited_tap_movement.html" xlink:title="audited_tap_movement" target="_top">
<polygon fill="#ffffff" stroke="transparent" points="301,-846.7 301,-888.7 496,-888.7 496,-846.7 301,-846.7"/>
<polygon fill="#f5f5f5" stroke="transparent" points="301.5,-865.7 301.5,-888.7 496.5,-888.7 496.5,-865.7 301.5,-865.7"/>
<polygon fill="none" stroke="#000000" points="301.5,-865.7 301.5,-888.7 496.5,-888.7 496.5,-865.7 301.5,-865.7"/>
<text text-anchor="start" x="306.5" y="-874.3" font-family="Helvetica,sans-Serif" font-weight="bold" font-size="11.00" fill="#000000">audited_tap_movement</text>
<text text-anchor="start" x="463.4448" y="-873.8" font-family="Helvetica,sans-Serif" font-size="11.00" fill="#000000">[view]</text>
<polygon fill="none" stroke="#000000" points="301.5,-846.7 301.5,-865.7 496.5,-865.7 496.5,-846.7 301.5,-846.7"/>
<text text-anchor="start" x="304.5" y="-852.8" font-family="Helvetica,sans-Serif" font-size="11.00" fill="#000000">...</text>
</a>
</g>
</g>
<!-- audited_tap_movement&#45;&gt;person_summary -->
<g id="edge2" class="edge">
<title>audited_tap_movement:w&#45;&gt;person_summary:e</title>
<path fill="none" stroke="#000000" stroke-dasharray="5,2" d="M286.8021,-855.9376C252.249,-856.9603 234.1339,-859.9053 203,-835.7 169.8871,-809.9561 203.9429,-750.7 162,-750.7"/>
<polygon fill="#000000" stroke="#000000" points="293.501,-855.8294 301.5582,-859.2995 297.5005,-855.7647 301.5,-855.7 301.5,-855.7 301.5,-855.7 297.5005,-855.7647 301.4418,-852.1005 293.501,-855.8294 293.501,-855.8294"/>
<ellipse fill="none" stroke="#000000" cx="290.3015" cy="-855.8811" rx="3.2" ry="3.2"/>
</g>
<!-- hmpps_domain_event_audit -->
<g id="node4" class="node">
<title>hmpps_domain_event_audit</title>
<g id="a_node4"><a xlink:href="../../tables/hmpps_domain_event_audit.html" xlink:title="hmpps_domain_event_audit" target="_top">
<polygon fill="#ffffff" stroke="transparent" points="286,-120.2 286,-181.2 511,-181.2 511,-120.2 286,-120.2"/>
<polygon fill="#f5f5f5" stroke="transparent" points="286.5,-157.7 286.5,-180.7 511.5,-180.7 511.5,-157.7 286.5,-157.7"/>
<polygon fill="none" stroke="#000000" points="286.5,-157.7 286.5,-180.7 511.5,-180.7 511.5,-157.7 286.5,-157.7"/>
<text text-anchor="start" x="291.5" y="-166.3" font-family="Helvetica,sans-Serif" font-weight="bold" font-size="11.00" fill="#000000">hmpps_domain_event_audit</text>
<text text-anchor="start" x="477.0219" y="-165.8" font-family="Helvetica,sans-Serif" font-size="11.00" fill="#000000">[table]</text>
<polygon fill="none" stroke="#000000" points="286.5,-138.7 286.5,-157.7 511.5,-157.7 511.5,-138.7 286.5,-138.7"/>
<text text-anchor="start" x="289.5" y="-144.8" font-family="Helvetica,sans-Serif" font-size="11.00" fill="#000000">...</text>
<polygon fill="#ffffff" stroke="transparent" points="286.5,-119.7 286.5,-138.7 397.5,-138.7 397.5,-119.7 286.5,-119.7"/>
<polygon fill="none" stroke="#000000" points="286.5,-119.7 286.5,-138.7 397.5,-138.7 397.5,-119.7 286.5,-119.7"/>
<text text-anchor="start" x="289.5" y="-125.8" font-family="Helvetica,sans-Serif" font-size="11.00" fill="#000000">&lt; 1</text>
<polygon fill="#ffffff" stroke="transparent" points="397.5,-119.7 397.5,-138.7 454.5,-138.7 454.5,-119.7 397.5,-119.7"/>
<polygon fill="none" stroke="#000000" points="397.5,-119.7 397.5,-138.7 454.5,-138.7 454.5,-119.7 397.5,-119.7"/>
<text text-anchor="start" x="445.3862" y="-125.8" font-family="Helvetica,sans-Serif" font-size="11.00" fill="#000000"> &#160;</text>
<polygon fill="#ffffff" stroke="transparent" points="454.5,-119.7 454.5,-138.7 511.5,-138.7 511.5,-119.7 454.5,-119.7"/>
<polygon fill="none" stroke="#000000" points="454.5,-119.7 454.5,-138.7 511.5,-138.7 511.5,-119.7 454.5,-119.7"/>
<text text-anchor="start" x="502.3862" y="-125.8" font-family="Helvetica,sans-Serif" font-size="11.00" fill="#000000"> &#160;</text>
</a>
</g>
</g>
<!-- audit_revision -->
<g id="node5" class="node">
<title>audit_revision</title>
<g id="a_node5"><a xlink:href="../../tables/audit_revision.html" xlink:title="audit_revision" target="_top">
<polygon fill="#ffffff" stroke="transparent" points="18,-296.2 18,-379.2 152,-379.2 152,-296.2 18,-296.2"/>
<polygon fill="#f5f5f5" stroke="transparent" points="18,-355.7 18,-378.7 152,-378.7 152,-355.7 18,-355.7"/>
<polygon fill="none" stroke="#000000" points="18,-355.7 18,-378.7 152,-378.7 152,-355.7 18,-355.7"/>
<text text-anchor="start" x="23" y="-364.3" font-family="Helvetica,sans-Serif" font-weight="bold" font-size="11.00" fill="#000000">audit_revision</text>
<text text-anchor="start" x="117.5219" y="-363.8" font-family="Helvetica,sans-Serif" font-size="11.00" fill="#000000">[table]</text>
<polygon fill="none" stroke="#000000" points="18,-333.7 18,-355.7 152,-355.7 152,-333.7 18,-333.7"/>
<image xlink:href="../../images/primaryKeys.png" width="11px" height="12px" preserveAspectRatio="xMinYMin meet" x="23" y="-350.7"/>
<text text-anchor="start" x="38" y="-340.8" font-family="Helvetica,sans-Serif" font-size="11.00" fill="#000000">id</text>
<polygon fill="none" stroke="#000000" points="18,-314.7 18,-333.7 152,-333.7 152,-314.7 18,-314.7"/>
<text text-anchor="start" x="21" y="-320.8" font-family="Helvetica,sans-Serif" font-size="11.00" fill="#000000">...</text>
<polygon fill="#ffffff" stroke="transparent" points="18,-295.7 18,-314.7 74,-314.7 74,-295.7 18,-295.7"/>
<polygon fill="none" stroke="#000000" points="18,-295.7 18,-314.7 74,-314.7 74,-295.7 18,-295.7"/>
<text text-anchor="start" x="21" y="-301.8" font-family="Helvetica,sans-Serif" font-size="11.00" fill="#000000"> &#160;</text>
<polygon fill="#ffffff" stroke="transparent" points="74,-295.7 74,-314.7 108,-314.7 108,-295.7 74,-295.7"/>
<polygon fill="none" stroke="#000000" points="74,-295.7 74,-314.7 108,-314.7 108,-295.7 74,-295.7"/>
<text text-anchor="start" x="98.8862" y="-301.8" font-family="Helvetica,sans-Serif" font-size="11.00" fill="#000000"> &#160;</text>
<polygon fill="#ffffff" stroke="transparent" points="108,-295.7 108,-314.7 152,-314.7 152,-295.7 108,-295.7"/>
<polygon fill="none" stroke="#000000" points="108,-295.7 108,-314.7 152,-314.7 152,-295.7 108,-295.7"/>
<text text-anchor="start" x="133.4053" y="-301.8" font-family="Helvetica,sans-Serif" font-size="11.00" fill="#000000">4 &gt;</text>
</a>
</g>
</g>
<!-- hmpps_domain_event_audit&#45;&gt;audit_revision -->
<g id="edge3" class="edge">
<title>hmpps_domain_event_audit:w&#45;&gt;audit_revision:e</title>
<path fill="none" stroke="#000000" d="M271.9818,-148.2789C240.7511,-151.0166 226.752,-163.7165 203,-191.7 156.6163,-246.3473 223.6783,-344.7 152,-344.7"/>
<polygon fill="#000000" stroke="#000000" points="278.5064,-148.0188 286.6435,-151.2971 282.5032,-147.8594 286.5,-147.7 286.5,-147.7 286.5,-147.7 282.5032,-147.8594 286.3565,-144.1029 278.5064,-148.0188 278.5064,-148.0188"/>
<ellipse fill="none" stroke="#000000" cx="275.3089" cy="-148.1463" rx="3.2" ry="3.2"/>
</g>
<!-- temporary_absence_authorisation -->
<g id="node6" class="node">
<title>temporary_absence_authorisation</title>
<g id="a_node6"><a xlink:href="../../tables/temporary_absence_authorisation.html" xlink:title="temporary_absence_authorisation" target="_top">
<polygon fill="#ffffff" stroke="transparent" points="264.5,-764.2 264.5,-825.2 532.5,-825.2 532.5,-764.2 264.5,-764.2"/>
<polygon fill="#f5f5f5" stroke="transparent" points="264.5,-801.7 264.5,-824.7 532.5,-824.7 532.5,-801.7 264.5,-801.7"/>
<polygon fill="none" stroke="#000000" points="264.5,-801.7 264.5,-824.7 532.5,-824.7 532.5,-801.7 264.5,-801.7"/>
<text text-anchor="start" x="269.5" y="-810.3" font-family="Helvetica,sans-Serif" font-weight="bold" font-size="11.00" fill="#000000">temporary_absence_authorisation</text>
<text text-anchor="start" x="498.0219" y="-809.8" font-family="Helvetica,sans-Serif" font-size="11.00" fill="#000000">[table]</text>
<polygon fill="none" stroke="#000000" points="264.5,-782.7 264.5,-801.7 532.5,-801.7 532.5,-782.7 264.5,-782.7"/>
<text text-anchor="start" x="267.5" y="-788.8" font-family="Helvetica,sans-Serif" font-size="11.00" fill="#000000">...</text>
<polygon fill="#ffffff" stroke="transparent" points="264.5,-763.7 264.5,-782.7 392.5,-782.7 392.5,-763.7 264.5,-763.7"/>
<polygon fill="none" stroke="#000000" points="264.5,-763.7 264.5,-782.7 392.5,-782.7 392.5,-763.7 264.5,-763.7"/>
<text text-anchor="start" x="267.5" y="-769.8" font-family="Helvetica,sans-Serif" font-size="11.00" fill="#000000">&lt; 7</text>
<polygon fill="#ffffff" stroke="transparent" points="392.5,-763.7 392.5,-782.7 457.5,-782.7 457.5,-763.7 392.5,-763.7"/>
<polygon fill="none" stroke="#000000" points="392.5,-763.7 392.5,-782.7 457.5,-782.7 457.5,-763.7 392.5,-763.7"/>
<text text-anchor="start" x="448.3862" y="-769.8" font-family="Helvetica,sans-Serif" font-size="11.00" fill="#000000"> &#160;</text>
<polygon fill="#ffffff" stroke="transparent" points="457.5,-763.7 457.5,-782.7 532.5,-782.7 532.5,-763.7 457.5,-763.7"/>
<polygon fill="none" stroke="#000000" points="457.5,-763.7 457.5,-782.7 532.5,-782.7 532.5,-763.7 457.5,-763.7"/>
<text text-anchor="start" x="513.9053" y="-769.8" font-family="Helvetica,sans-Serif" font-size="11.00" fill="#000000">1 &gt;</text>
</a>
</g>
</g>
<!-- temporary_absence_authorisation&#45;&gt;person_summary -->
<g id="edge4" class="edge">
<title>temporary_absence_authorisation:w&#45;&gt;person_summary:e</title>
<path fill="none" stroke="#000000" d="M249.8877,-790.3359C213.9445,-783.2217 205.6984,-750.7 162,-750.7"/>
<polygon fill="#000000" stroke="#000000" points="256.5346,-790.9563 264.1654,-795.2844 260.5173,-791.3282 264.5,-791.7 264.5,-791.7 264.5,-791.7 260.5173,-791.3282 264.8346,-788.1156 256.5346,-790.9563 256.5346,-790.9563"/>
<ellipse fill="none" stroke="#000000" cx="253.3485" cy="-790.6589" rx="3.2" ry="3.2"/>
</g>
<!-- temporary_absence_authorisation_audit -->
<g id="node7" class="node">
<title>temporary_absence_authorisation_audit</title>
<g id="a_node7"><a xlink:href="../../tables/temporary_absence_authorisation_audit.html" xlink:title="temporary_absence_authorisation_audit" target="_top">
<polygon fill="#ffffff" stroke="transparent" points="244,-600.2 244,-661.2 553,-661.2 553,-600.2 244,-600.2"/>
<polygon fill="#f5f5f5" stroke="transparent" points="244.5,-637.7 244.5,-660.7 553.5,-660.7 553.5,-637.7 244.5,-637.7"/>
<polygon fill="none" stroke="#000000" points="244.5,-637.7 244.5,-660.7 553.5,-660.7 553.5,-637.7 244.5,-637.7"/>
<text text-anchor="start" x="249.5" y="-646.3" font-family="Helvetica,sans-Serif" font-weight="bold" font-size="11.00" fill="#000000">temporary_absence_authorisation_audit</text>
<text text-anchor="start" x="519.0219" y="-645.8" font-family="Helvetica,sans-Serif" font-size="11.00" fill="#000000">[table]</text>
<polygon fill="none" stroke="#000000" points="244.5,-618.7 244.5,-637.7 553.5,-637.7 553.5,-618.7 244.5,-618.7"/>
<text text-anchor="start" x="247.5" y="-624.8" font-family="Helvetica,sans-Serif" font-size="11.00" fill="#000000">...</text>
<polygon fill="#ffffff" stroke="transparent" points="244.5,-599.7 244.5,-618.7 397.5,-618.7 397.5,-599.7 244.5,-599.7"/>
<polygon fill="none" stroke="#000000" points="244.5,-599.7 244.5,-618.7 397.5,-618.7 397.5,-599.7 244.5,-599.7"/>
<text text-anchor="start" x="247.5" y="-605.8" font-family="Helvetica,sans-Serif" font-size="11.00" fill="#000000">&lt; 2</text>
<polygon fill="#ffffff" stroke="transparent" points="397.5,-599.7 397.5,-618.7 475.5,-618.7 475.5,-599.7 397.5,-599.7"/>
<polygon fill="none" stroke="#000000" points="397.5,-599.7 397.5,-618.7 475.5,-618.7 475.5,-599.7 397.5,-599.7"/>
<text text-anchor="start" x="466.3862" y="-605.8" font-family="Helvetica,sans-Serif" font-size="11.00" fill="#000000"> &#160;</text>
<polygon fill="#ffffff" stroke="transparent" points="475.5,-599.7 475.5,-618.7 553.5,-618.7 553.5,-599.7 475.5,-599.7"/>
<polygon fill="none" stroke="#000000" points="475.5,-599.7 475.5,-618.7 553.5,-618.7 553.5,-599.7 475.5,-599.7"/>
<text text-anchor="start" x="544.3862" y="-605.8" font-family="Helvetica,sans-Serif" font-size="11.00" fill="#000000"> &#160;</text>
</a>
</g>
</g>
<!-- temporary_absence_authorisation_audit&#45;&gt;person_summary -->
<g id="edge5" class="edge">
<title>temporary_absence_authorisation_audit:w&#45;&gt;person_summary:e</title>
<path fill="none" stroke="#000000" stroke-dasharray="5,2" d="M230.3895,-630.6371C217.2418,-637.353 215.1587,-654.5764 203,-671.7 180.0977,-703.9541 201.5581,-750.7 162,-750.7"/>
<polygon fill="#000000" stroke="#000000" points="236.6679,-629.3303 245.2336,-631.2245 240.5839,-628.5152 244.5,-627.7 244.5,-627.7 244.5,-627.7 240.5839,-628.5152 243.7664,-624.1755 236.6679,-629.3303 236.6679,-629.3303"/>
<ellipse fill="none" stroke="#000000" cx="233.535" cy="-629.9824" rx="3.2" ry="3.2"/>
</g>
<!-- temporary_absence_authorisation_audit&#45;&gt;audit_revision -->
<g id="edge6" class="edge">
<title>temporary_absence_authorisation_audit:w&#45;&gt;audit_revision:e</title>
<path fill="none" stroke="#000000" d="M229.9825,-625.1588C217.1056,-619.7758 212.4692,-606.3418 203,-589.7 147.995,-493.0304 263.2231,-344.7 152,-344.7"/>
<polygon fill="#000000" stroke="#000000" points="236.6198,-626.3205 243.8792,-631.2461 240.5599,-627.0103 244.5,-627.7 244.5,-627.7 244.5,-627.7 240.5599,-627.0103 245.1208,-624.1539 236.6198,-626.3205 236.6198,-626.3205"/>
<ellipse fill="none" stroke="#000000" cx="233.4677" cy="-625.7688" rx="3.2" ry="3.2"/>
</g>
<!-- temporary_absence_movement -->
<g id="node8" class="node">
<title>temporary_absence_movement</title>
<g id="a_node8"><a xlink:href="../../tables/temporary_absence_movement.html" xlink:title="temporary_absence_movement" target="_top">
<polygon fill="#ffffff" stroke="transparent" points="274,-682.2 274,-743.2 523,-743.2 523,-682.2 274,-682.2"/>
<polygon fill="#f5f5f5" stroke="transparent" points="274.5,-719.7 274.5,-742.7 523.5,-742.7 523.5,-719.7 274.5,-719.7"/>
<polygon fill="none" stroke="#000000" points="274.5,-719.7 274.5,-742.7 523.5,-742.7 523.5,-719.7 274.5,-719.7"/>
<text text-anchor="start" x="279.5" y="-728.3" font-family="Helvetica,sans-Serif" font-weight="bold" font-size="11.00" fill="#000000">temporary_absence_movement</text>
<text text-anchor="start" x="489.0219" y="-727.8" font-family="Helvetica,sans-Serif" font-size="11.00" fill="#000000">[table]</text>
<polygon fill="none" stroke="#000000" points="274.5,-700.7 274.5,-719.7 523.5,-719.7 523.5,-700.7 274.5,-700.7"/>
<text text-anchor="start" x="277.5" y="-706.8" font-family="Helvetica,sans-Serif" font-size="11.00" fill="#000000">...</text>
<polygon fill="#ffffff" stroke="transparent" points="274.5,-681.7 274.5,-700.7 397.5,-700.7 397.5,-681.7 274.5,-681.7"/>
<polygon fill="none" stroke="#000000" points="274.5,-681.7 274.5,-700.7 397.5,-700.7 397.5,-681.7 274.5,-681.7"/>
<text text-anchor="start" x="277.5" y="-687.8" font-family="Helvetica,sans-Serif" font-size="11.00" fill="#000000">&lt; 4</text>
<polygon fill="#ffffff" stroke="transparent" points="397.5,-681.7 397.5,-700.7 460.5,-700.7 460.5,-681.7 397.5,-681.7"/>
<polygon fill="none" stroke="#000000" points="397.5,-681.7 397.5,-700.7 460.5,-700.7 460.5,-681.7 397.5,-681.7"/>
<text text-anchor="start" x="451.3862" y="-687.8" font-family="Helvetica,sans-Serif" font-size="11.00" fill="#000000"> &#160;</text>
<polygon fill="#ffffff" stroke="transparent" points="460.5,-681.7 460.5,-700.7 523.5,-700.7 523.5,-681.7 460.5,-681.7"/>
<polygon fill="none" stroke="#000000" points="460.5,-681.7 460.5,-700.7 523.5,-700.7 523.5,-681.7 460.5,-681.7"/>
<text text-anchor="start" x="514.3862" y="-687.8" font-family="Helvetica,sans-Serif" font-size="11.00" fill="#000000"> &#160;</text>
</a>
</g>
</g>
<!-- temporary_absence_movement&#45;&gt;person_summary -->
<g id="edge7" class="edge">
<title>temporary_absence_movement:w&#45;&gt;person_summary:e</title>
<path fill="none" stroke="#000000" d="M259.9076,-710.8394C219.6067,-717.4612 209.9161,-750.7 162,-750.7"/>
<polygon fill="#000000" stroke="#000000" points="266.5243,-710.3228 274.7803,-713.2891 270.5121,-710.0114 274.5,-709.7 274.5,-709.7 274.5,-709.7 270.5121,-710.0114 274.2197,-706.1109 266.5243,-710.3228 266.5243,-710.3228"/>
<ellipse fill="none" stroke="#000000" cx="263.334" cy="-710.5719" rx="3.2" ry="3.2"/>
</g>
<!-- temporary_absence_movement_audit -->
<g id="node9" class="node">
<title>temporary_absence_movement_audit</title>
<g id="a_node9"><a xlink:href="../../tables/temporary_absence_movement_audit.html" xlink:title="temporary_absence_movement_audit" target="_top">
<polygon fill="#ffffff" stroke="transparent" points="211,-202.7 211,-578.7 586,-578.7 586,-202.7 211,-202.7"/>
<polygon fill="#f5f5f5" stroke="transparent" points="213.5,-553.7 213.5,-576.7 584.5,-576.7 584.5,-553.7 213.5,-553.7"/>
<polygon fill="none" stroke="#000000" points="213.5,-553.7 213.5,-576.7 584.5,-576.7 584.5,-553.7 213.5,-553.7"/>
<text text-anchor="start" x="218.5" y="-562.3" font-family="Helvetica,sans-Serif" font-weight="bold" font-size="11.00" fill="#000000">temporary_absence_movement_audit</text>
<text text-anchor="start" x="549.5437" y="-561.8" font-family="Helvetica,sans-Serif" font-size="11.00" fill="#000000">[table]</text>
<polygon fill="none" stroke="#000000" points="213.5,-531.7 213.5,-553.7 485.5,-553.7 485.5,-531.7 213.5,-531.7"/>
<image xlink:href="../../images/primaryKeys.png" width="11px" height="12px" preserveAspectRatio="xMinYMin meet" x="218.5" y="-548.7"/>
<text text-anchor="start" x="233.5" y="-538.8" font-family="Helvetica,sans-Serif" font-size="11.00" fill="#000000">rev_id</text>
<polygon fill="none" stroke="#000000" points="485.5,-531.7 485.5,-553.7 584.5,-553.7 584.5,-531.7 485.5,-531.7"/>
<text text-anchor="start" x="488.5" y="-539.4" font-family="Helvetica,sans-Serif" font-size="11.00" fill="#000000">int8[19]</text>
<polygon fill="none" stroke="#000000" points="213.5,-509.7 213.5,-531.7 485.5,-531.7 485.5,-509.7 213.5,-509.7"/>
<text text-anchor="start" x="233.5" y="-516.8" font-family="Helvetica,sans-Serif" font-size="11.00" fill="#000000">rev_type</text>
<polygon fill="none" stroke="#000000" points="485.5,-509.7 485.5,-531.7 584.5,-531.7 584.5,-509.7 485.5,-509.7"/>
<text text-anchor="start" x="488.5" y="-517.4" font-family="Helvetica,sans-Serif" font-size="11.00" fill="#000000">int2[5]</text>
<polygon fill="none" stroke="#000000" points="213.5,-487.7 213.5,-509.7 485.5,-509.7 485.5,-487.7 213.5,-487.7"/>
<image xlink:href="../../images/primaryKeys.png" width="11px" height="12px" preserveAspectRatio="xMinYMin meet" x="218.5" y="-504.7"/>
<text text-anchor="start" x="233.5" y="-494.8" font-family="Helvetica,sans-Serif" font-size="11.00" fill="#000000">id</text>
<polygon fill="none" stroke="#000000" points="485.5,-487.7 485.5,-509.7 584.5,-509.7 584.5,-487.7 485.5,-487.7"/>
<text text-anchor="start" x="488.5" y="-495.4" font-family="Helvetica,sans-Serif" font-size="11.00" fill="#000000">uuid[2147483647]</text>
<polygon fill="none" stroke="#000000" points="213.5,-465.7 213.5,-487.7 485.5,-487.7 485.5,-465.7 213.5,-465.7"/>
<image xlink:href="../../images/foreignKeys.png" width="11px" height="12px" preserveAspectRatio="xMinYMin meet" x="218.5" y="-482.7"/>
<text text-anchor="start" x="233.5" y="-472.8" font-family="Helvetica,sans-Serif" font-size="11.00" fill="#000000">person_identifier</text>
<polygon fill="none" stroke="#000000" points="485.5,-465.7 485.5,-487.7 584.5,-487.7 584.5,-465.7 485.5,-465.7"/>
<text text-anchor="start" x="488.5" y="-473.4" font-family="Helvetica,sans-Serif" font-size="11.00" fill="#000000">varchar[10]</text>
<polygon fill="none" stroke="#000000" points="213.5,-443.7 213.5,-465.7 485.5,-465.7 485.5,-443.7 213.5,-443.7"/>
<text text-anchor="start" x="233.5" y="-450.8" font-family="Helvetica,sans-Serif" font-size="11.00" fill="#000000">occurrence_id</text>
<polygon fill="none" stroke="#000000" points="485.5,-443.7 485.5,-465.7 584.5,-465.7 584.5,-443.7 485.5,-443.7"/>
<text text-anchor="start" x="488.5" y="-451.4" font-family="Helvetica,sans-Serif" font-size="11.00" fill="#000000">uuid[2147483647]</text>
<polygon fill="none" stroke="#000000" points="213.5,-421.7 213.5,-443.7 485.5,-443.7 485.5,-421.7 213.5,-421.7"/>
<text text-anchor="start" x="233.5" y="-428.8" font-family="Helvetica,sans-Serif" font-size="11.00" fill="#000000">occurred_at</text>
<polygon fill="none" stroke="#000000" points="485.5,-421.7 485.5,-443.7 584.5,-443.7 584.5,-421.7 485.5,-421.7"/>
<text text-anchor="start" x="488.5" y="-429.4" font-family="Helvetica,sans-Serif" font-size="11.00" fill="#000000">timestamp[29,6]</text>
<polygon fill="none" stroke="#000000" points="213.5,-399.7 213.5,-421.7 485.5,-421.7 485.5,-399.7 213.5,-399.7"/>
<text text-anchor="start" x="233.5" y="-406.8" font-family="Helvetica,sans-Serif" font-size="11.00" fill="#000000">direction</text>
<polygon fill="none" stroke="#000000" points="485.5,-399.7 485.5,-421.7 584.5,-421.7 584.5,-399.7 485.5,-399.7"/>
<text text-anchor="start" x="488.5" y="-407.4" font-family="Helvetica,sans-Serif" font-size="11.00" fill="#000000">varchar[3]</text>
<polygon fill="none" stroke="#000000" points="213.5,-377.7 213.5,-399.7 485.5,-399.7 485.5,-377.7 213.5,-377.7"/>
<text text-anchor="start" x="233.5" y="-384.8" font-family="Helvetica,sans-Serif" font-size="11.00" fill="#000000">absence_reason_id</text>
<polygon fill="none" stroke="#000000" points="485.5,-377.7 485.5,-399.7 584.5,-399.7 584.5,-377.7 485.5,-377.7"/>
<text text-anchor="start" x="488.5" y="-385.4" font-family="Helvetica,sans-Serif" font-size="11.00" fill="#000000">int8[19]</text>
<polygon fill="none" stroke="#000000" points="213.5,-355.7 213.5,-377.7 485.5,-377.7 485.5,-355.7 213.5,-355.7"/>
<text text-anchor="start" x="233.5" y="-362.8" font-family="Helvetica,sans-Serif" font-size="11.00" fill="#000000">accompanied_by_id</text>
<polygon fill="none" stroke="#000000" points="485.5,-355.7 485.5,-377.7 584.5,-377.7 584.5,-355.7 485.5,-355.7"/>
<text text-anchor="start" x="488.5" y="-363.4" font-family="Helvetica,sans-Serif" font-size="11.00" fill="#000000">int8[19]</text>
<polygon fill="none" stroke="#000000" points="213.5,-333.7 213.5,-355.7 485.5,-355.7 485.5,-333.7 213.5,-333.7"/>
<text text-anchor="start" x="233.5" y="-340.8" font-family="Helvetica,sans-Serif" font-size="11.00" fill="#000000">accompanied_by_comments</text>
<polygon fill="none" stroke="#000000" points="485.5,-333.7 485.5,-355.7 584.5,-355.7 584.5,-333.7 485.5,-333.7"/>
<text text-anchor="start" x="488.5" y="-341.4" font-family="Helvetica,sans-Serif" font-size="11.00" fill="#000000">text[2147483647]</text>
<polygon fill="none" stroke="#000000" points="213.5,-311.7 213.5,-333.7 485.5,-333.7 485.5,-311.7 213.5,-311.7"/>
<text text-anchor="start" x="233.5" y="-318.8" font-family="Helvetica,sans-Serif" font-size="11.00" fill="#000000">comments</text>
<polygon fill="none" stroke="#000000" points="485.5,-311.7 485.5,-333.7 584.5,-333.7 584.5,-311.7 485.5,-311.7"/>
<text text-anchor="start" x="488.5" y="-319.4" font-family="Helvetica,sans-Serif" font-size="11.00" fill="#000000">text[2147483647]</text>
<polygon fill="none" stroke="#000000" points="213.5,-289.7 213.5,-311.7 485.5,-311.7 485.5,-289.7 213.5,-289.7"/>
<text text-anchor="start" x="233.5" y="-296.8" font-family="Helvetica,sans-Serif" font-size="11.00" fill="#000000">recorded_by_prison_code</text>
<polygon fill="none" stroke="#000000" points="485.5,-289.7 485.5,-311.7 584.5,-311.7 584.5,-289.7 485.5,-289.7"/>
<text text-anchor="start" x="488.5" y="-297.4" font-family="Helvetica,sans-Serif" font-size="11.00" fill="#000000">varchar[6]</text>
<polygon fill="none" stroke="#000000" points="213.5,-267.7 213.5,-289.7 485.5,-289.7 485.5,-267.7 213.5,-267.7"/>
<text text-anchor="start" x="233.5" y="-274.8" font-family="Helvetica,sans-Serif" font-size="11.00" fill="#000000">legacy_id</text>
<polygon fill="none" stroke="#000000" points="485.5,-267.7 485.5,-289.7 584.5,-289.7 584.5,-267.7 485.5,-267.7"/>
<text text-anchor="start" x="488.5" y="-275.4" font-family="Helvetica,sans-Serif" font-size="11.00" fill="#000000">varchar[32]</text>
<polygon fill="none" stroke="#000000" points="213.5,-245.7 213.5,-267.7 485.5,-267.7 485.5,-245.7 213.5,-245.7"/>
<text text-anchor="start" x="233.5" y="-252.8" font-family="Helvetica,sans-Serif" font-size="11.00" fill="#000000">location</text>
<polygon fill="none" stroke="#000000" points="485.5,-245.7 485.5,-267.7 584.5,-267.7 584.5,-245.7 485.5,-245.7"/>
<text text-anchor="start" x="488.2258" y="-253.4" font-family="Helvetica,sans-Serif" font-size="11.00" fill="#000000">jsonb[2147483647]</text>
<polygon fill="none" stroke="#000000" points="213.5,-223.7 213.5,-245.7 485.5,-245.7 485.5,-223.7 213.5,-223.7"/>
<text text-anchor="start" x="233.5" y="-230.8" font-family="Helvetica,sans-Serif" font-size="11.00" fill="#000000">version</text>
<polygon fill="none" stroke="#000000" points="485.5,-223.7 485.5,-245.7 584.5,-245.7 584.5,-223.7 485.5,-223.7"/>
<text text-anchor="start" x="488.5" y="-231.4" font-family="Helvetica,sans-Serif" font-size="11.00" fill="#000000">int4[10]</text>
<polygon fill="#ffffff" stroke="transparent" points="213.5,-204.7 213.5,-223.7 353.5,-223.7 353.5,-204.7 213.5,-204.7"/>
<polygon fill="none" stroke="#000000" points="213.5,-204.7 213.5,-223.7 353.5,-223.7 353.5,-204.7 213.5,-204.7"/>
<text text-anchor="start" x="216.5" y="-210.8" font-family="Helvetica,sans-Serif" font-size="11.00" fill="#000000">&lt; 2</text>
<polygon fill="#ffffff" stroke="transparent" points="353.5,-204.7 353.5,-223.7 485.5,-223.7 485.5,-204.7 353.5,-204.7"/>
<polygon fill="none" stroke="#000000" points="353.5,-204.7 353.5,-223.7 485.5,-223.7 485.5,-204.7 353.5,-204.7"/>
<text text-anchor="start" x="476.3862" y="-210.8" font-family="Helvetica,sans-Serif" font-size="11.00" fill="#000000"> &#160;</text>
<polygon fill="#ffffff" stroke="transparent" points="485.5,-204.7 485.5,-223.7 584.5,-223.7 584.5,-204.7 485.5,-204.7"/>
<polygon fill="none" stroke="#000000" points="485.5,-204.7 485.5,-223.7 584.5,-223.7 584.5,-204.7 485.5,-204.7"/>
<text text-anchor="start" x="565.9053" y="-210.8" font-family="Helvetica,sans-Serif" font-size="11.00" fill="#000000">0 &gt;</text>
<polygon fill="none" stroke="#000000" stroke-width="2" points="212,-203.7 212,-577.7 585,-577.7 585,-203.7 212,-203.7"/>
</a>
</g>
</g>
<!-- temporary_absence_movement_audit&#45;&gt;person_summary -->
<g id="edge8" class="edge">
<title>temporary_absence_movement_audit:w&#45;&gt;person_summary:e</title>
<path fill="none" stroke="#000000" stroke-dasharray="5,2" d="M200.0956,-482.6777C163.2353,-522.7475 218.5098,-750.7 162,-750.7"/>
<polygon fill="#000000" stroke="#000000" points="206.1936,-479.9583 214.9662,-479.9879 209.8468,-478.3292 213.5,-476.7 213.5,-476.7 213.5,-476.7 209.8468,-478.3292 212.0338,-473.4121 206.1936,-479.9583 206.1936,-479.9583"/>
<ellipse fill="none" stroke="#000000" cx="203.271" cy="-481.2616" rx="3.2" ry="3.2"/>
</g>
<!-- temporary_absence_movement_audit&#45;&gt;audit_revision -->
<g id="edge9" class="edge">
<title>temporary_absence_movement_audit:w&#45;&gt;audit_revision:e</title>
<path fill="none" stroke="#000000" d="M199.0308,-540.6103C135.4345,-519.4493 238.568,-344.7 152,-344.7"/>
<polygon fill="#000000" stroke="#000000" points="205.5821,-541.5564 212.9854,-546.263 209.5411,-542.1282 213.5,-542.7 213.5,-542.7 213.5,-542.7 209.5411,-542.1282 214.0146,-539.137 205.5821,-541.5564 205.5821,-541.5564"/>
<ellipse fill="none" stroke="#000000" cx="202.415" cy="-541.099" rx="3.2" ry="3.2"/>
</g>
<!-- temporary_absence_occurrence_audit -->
<g id="node10" class="node">
<title>temporary_absence_occurrence_audit</title>
<g id="a_node10"><a xlink:href="../../tables/temporary_absence_occurrence_audit.html" xlink:title="temporary_absence_occurrence_audit" target="_top">
<polygon fill="#ffffff" stroke="transparent" points="252,-38.2 252,-99.2 545,-99.2 545,-38.2 252,-38.2"/>
<polygon fill="#f5f5f5" stroke="transparent" points="252.5,-75.7 252.5,-98.7 545.5,-98.7 545.5,-75.7 252.5,-75.7"/>
<polygon fill="none" stroke="#000000" points="252.5,-75.7 252.5,-98.7 545.5,-98.7 545.5,-75.7 252.5,-75.7"/>
<text text-anchor="start" x="257.5" y="-84.3" font-family="Helvetica,sans-Serif" font-weight="bold" font-size="11.00" fill="#000000">temporary_absence_occurrence_audit</text>
<text text-anchor="start" x="511.0219" y="-83.8" font-family="Helvetica,sans-Serif" font-size="11.00" fill="#000000">[table]</text>
<polygon fill="none" stroke="#000000" points="252.5,-56.7 252.5,-75.7 545.5,-75.7 545.5,-56.7 252.5,-56.7"/>
<text text-anchor="start" x="255.5" y="-62.8" font-family="Helvetica,sans-Serif" font-size="11.00" fill="#000000">...</text>
<polygon fill="#ffffff" stroke="transparent" points="252.5,-37.7 252.5,-56.7 397.5,-56.7 397.5,-37.7 252.5,-37.7"/>
<polygon fill="none" stroke="#000000" points="252.5,-37.7 252.5,-56.7 397.5,-56.7 397.5,-37.7 252.5,-37.7"/>
<text text-anchor="start" x="255.5" y="-43.8" font-family="Helvetica,sans-Serif" font-size="11.00" fill="#000000">&lt; 1</text>
<polygon fill="#ffffff" stroke="transparent" points="397.5,-37.7 397.5,-56.7 471.5,-56.7 471.5,-37.7 397.5,-37.7"/>
<polygon fill="none" stroke="#000000" points="397.5,-37.7 397.5,-56.7 471.5,-56.7 471.5,-37.7 397.5,-37.7"/>
<text text-anchor="start" x="462.3862" y="-43.8" font-family="Helvetica,sans-Serif" font-size="11.00" fill="#000000"> &#160;</text>
<polygon fill="#ffffff" stroke="transparent" points="471.5,-37.7 471.5,-56.7 545.5,-56.7 545.5,-37.7 471.5,-37.7"/>
<polygon fill="none" stroke="#000000" points="471.5,-37.7 471.5,-56.7 545.5,-56.7 545.5,-37.7 471.5,-37.7"/>
<text text-anchor="start" x="536.3862" y="-43.8" font-family="Helvetica,sans-Serif" font-size="11.00" fill="#000000"> &#160;</text>
</a>
</g>
</g>
<!-- temporary_absence_occurrence_audit&#45;&gt;audit_revision -->
<g id="edge10" class="edge">
<title>temporary_absence_occurrence_audit:w&#45;&gt;audit_revision:e</title>
<path fill="none" stroke="#000000" d="M237.7727,-67.7395C220.6613,-73.2211 214.9522,-89.2508 203,-109.7 149.0694,-201.9709 258.8757,-344.7 152,-344.7"/>
<polygon fill="#000000" stroke="#000000" points="244.5756,-66.7975 252.9939,-69.266 248.5378,-66.2487 252.5,-65.7 252.5,-65.7 252.5,-65.7 248.5378,-66.2487 252.0061,-62.134 244.5756,-66.7975 244.5756,-66.7975"/>
<ellipse fill="none" stroke="#000000" cx="241.4059" cy="-67.2364" rx="3.2" ry="3.2"/>
</g>
</g>
</svg>
