<?xml version="1.0" encoding="UTF-8" standalone="no"?>
<!DOCTYPE svg PUBLIC "-//W3C//DTD SVG 1.1//EN"
 "http://www.w3.org/Graphics/SVG/1.1/DTD/svg11.dtd">
<!-- Generated by graphviz version 2.40.1 (20161225.0304)
 -->
<!-- Title: twoDegreesRelationshipsDiagram Pages: 1 -->
<svg width="1410pt" height="779pt"
 viewBox="0.00 0.00 1410.00 778.70" xmlns="http://www.w3.org/2000/svg" xmlns:xlink="http://www.w3.org/1999/xlink">
<g id="graph0" class="graph" transform="scale(1 1) rotate(0) translate(4 774.7)">
<title>twoDegreesRelationshipsDiagram</title>
<polygon fill="#ffffff" stroke="transparent" points="-4,4 -4,-774.7 1406,-774.7 1406,4 -4,4"/>
<text text-anchor="middle" x="72.4936" y="-7.3" font-family="Helvetica,sans-Serif" font-size="11.00" fill="#000000">Generated by SchemaSpy</text>
<!-- reference_data -->
<g id="node1" class="node">
<title>reference_data</title>
<g id="a_node1"><a xlink:href="../../tables/reference_data.html" xlink:title="reference_data" target="_top">
<polygon fill="#ffffff" stroke="transparent" points="253,-523.7 253,-584.7 393,-584.7 393,-523.7 253,-523.7"/>
<polygon fill="#f5f5f5" stroke="transparent" points="253,-561.2 253,-584.2 393,-584.2 393,-561.2 253,-561.2"/>
<polygon fill="none" stroke="#000000" points="253,-561.2 253,-584.2 393,-584.2 393,-561.2 253,-561.2"/>
<text text-anchor="start" x="258" y="-569.8" font-family="Helvetica,sans-Serif" font-weight="bold" font-size="11.00" fill="#000000">reference_data</text>
<text text-anchor="start" x="358.5219" y="-569.3" font-family="Helvetica,sans-Serif" font-size="11.00" fill="#000000">[table]</text>
<polygon fill="none" stroke="#000000" points="253,-542.2 253,-561.2 393,-561.2 393,-542.2 253,-542.2"/>
<text text-anchor="start" x="256" y="-548.3" font-family="Helvetica,sans-Serif" font-size="11.00" fill="#000000">...</text>
<polygon fill="#ffffff" stroke="transparent" points="253,-523.2 253,-542.2 314,-542.2 314,-523.2 253,-523.2"/>
<polygon fill="none" stroke="#000000" points="253,-523.2 253,-542.2 314,-542.2 314,-523.2 253,-523.2"/>
<text text-anchor="start" x="256" y="-529.3" font-family="Helvetica,sans-Serif" font-size="11.00" fill="#000000">&lt; 1</text>
<polygon fill="#ffffff" stroke="transparent" points="314,-523.2 314,-542.2 346,-542.2 346,-523.2 314,-523.2"/>
<polygon fill="none" stroke="#000000" points="314,-523.2 314,-542.2 346,-542.2 346,-523.2 314,-523.2"/>
<text text-anchor="start" x="336.8862" y="-529.3" font-family="Helvetica,sans-Serif" font-size="11.00" fill="#000000"> &#160;</text>
<polygon fill="#ffffff" stroke="transparent" points="346,-523.2 346,-542.2 393,-542.2 393,-523.2 346,-523.2"/>
<polygon fill="none" stroke="#000000" points="346,-523.2 346,-542.2 393,-542.2 393,-523.2 346,-523.2"/>
<text text-anchor="start" x="368.2904" y="-529.3" font-family="Helvetica,sans-Serif" font-size="11.00" fill="#000000">12 &gt;</text>
</a>
</g>
</g>
<!-- reference_data_domain -->
<g id="node2" class="node">
<title>reference_data_domain</title>
<g id="a_node2"><a xlink:href="../../tables/reference_data_domain.html" xlink:title="reference_data_domain" target="_top">
<polygon fill="#ffffff" stroke="transparent" points="8,-584.7 8,-645.7 204,-645.7 204,-584.7 8,-584.7"/>
<polygon fill="#f5f5f5" stroke="transparent" points="8,-622.2 8,-645.2 204,-645.2 204,-622.2 8,-622.2"/>
<polygon fill="none" stroke="#000000" points="8,-622.2 8,-645.2 204,-645.2 204,-622.2 8,-622.2"/>
<text text-anchor="start" x="13" y="-630.8" font-family="Helvetica,sans-Serif" font-weight="bold" font-size="11.00" fill="#000000">reference_data_domain</text>
<text text-anchor="start" x="169.5219" y="-630.3" font-family="Helvetica,sans-Serif" font-size="11.00" fill="#000000">[table]</text>
<polygon fill="none" stroke="#000000" points="8,-603.2 8,-622.2 204,-622.2 204,-603.2 8,-603.2"/>
<text text-anchor="start" x="11" y="-609.3" font-family="Helvetica,sans-Serif" font-size="11.00" fill="#000000">...</text>
<polygon fill="#ffffff" stroke="transparent" points="8,-584.2 8,-603.2 95,-603.2 95,-584.2 8,-584.2"/>
<polygon fill="none" stroke="#000000" points="8,-584.2 8,-603.2 95,-603.2 95,-584.2 8,-584.2"/>
<text text-anchor="start" x="11" y="-590.3" font-family="Helvetica,sans-Serif" font-size="11.00" fill="#000000"> &#160;</text>
<polygon fill="#ffffff" stroke="transparent" points="95,-584.2 95,-603.2 145,-603.2 145,-584.2 95,-584.2"/>
<polygon fill="none" stroke="#000000" points="95,-584.2 95,-603.2 145,-603.2 145,-584.2 95,-584.2"/>
<text text-anchor="start" x="135.8862" y="-590.3" font-family="Helvetica,sans-Serif" font-size="11.00" fill="#000000"> &#160;</text>
<polygon fill="#ffffff" stroke="transparent" points="145,-584.2 145,-603.2 204,-603.2 204,-584.2 145,-584.2"/>
<polygon fill="none" stroke="#000000" points="145,-584.2 145,-603.2 204,-603.2 204,-584.2 145,-584.2"/>
<text text-anchor="start" x="185.4053" y="-590.3" font-family="Helvetica,sans-Serif" font-size="11.00" fill="#000000">2 &gt;</text>
</a>
</g>
</g>
<!-- reference_data&#45;&gt;reference_data_domain -->
<g id="edge1" class="edge">
<title>reference_data:w&#45;&gt;reference_data_domain:e</title>
<path fill="none" stroke="#000000" d="M263.7046,-595.8206C245.4049,-605.0755 224.6209,-612.2 204,-612.2"/>
<polygon fill="#000000" stroke="#000000" points="269.5379,-592.6224 278.2835,-591.9331 273.0453,-590.6994 276.5528,-588.7764 276.5528,-588.7764 276.5528,-588.7764 273.0453,-590.6994 274.8221,-585.6197 269.5379,-592.6224 269.5379,-592.6224"/>
<ellipse fill="none" stroke="#000000" cx="266.732" cy="-594.1608" rx="3.2" ry="3.2"/>
</g>
<!-- reference_data_domain_link -->
<g id="node3" class="node">
<title>reference_data_domain_link</title>
<g id="a_node3"><a xlink:href="../../tables/reference_data_domain_link.html" xlink:title="reference_data_domain_link" target="_top">
<polygon fill="#ffffff" stroke="transparent" points="505,-705.7 505,-766.7 732,-766.7 732,-705.7 505,-705.7"/>
<polygon fill="#f5f5f5" stroke="transparent" points="505.5,-743.2 505.5,-766.2 732.5,-766.2 732.5,-743.2 505.5,-743.2"/>
<polygon fill="none" stroke="#000000" points="505.5,-743.2 505.5,-766.2 732.5,-766.2 732.5,-743.2 505.5,-743.2"/>
<text text-anchor="start" x="510.5" y="-751.8" font-family="Helvetica,sans-Serif" font-weight="bold" font-size="11.00" fill="#000000">reference_data_domain_link</text>
<text text-anchor="start" x="698.0219" y="-751.3" font-family="Helvetica,sans-Serif" font-size="11.00" fill="#000000">[table]</text>
<polygon fill="none" stroke="#000000" points="505.5,-724.2 505.5,-743.2 732.5,-743.2 732.5,-724.2 505.5,-724.2"/>
<text text-anchor="start" x="508.5" y="-730.3" font-family="Helvetica,sans-Serif" font-size="11.00" fill="#000000">...</text>
<polygon fill="#ffffff" stroke="transparent" points="505.5,-705.2 505.5,-724.2 617.5,-724.2 617.5,-705.2 505.5,-705.2"/>
<polygon fill="none" stroke="#000000" points="505.5,-705.2 505.5,-724.2 617.5,-724.2 617.5,-705.2 505.5,-705.2"/>
<text text-anchor="start" x="508.5" y="-711.3" font-family="Helvetica,sans-Serif" font-size="11.00" fill="#000000">&lt; 2</text>
<polygon fill="#ffffff" stroke="transparent" points="617.5,-705.2 617.5,-724.2 674.5,-724.2 674.5,-705.2 617.5,-705.2"/>
<polygon fill="none" stroke="#000000" points="617.5,-705.2 617.5,-724.2 674.5,-724.2 674.5,-705.2 617.5,-705.2"/>
<text text-anchor="start" x="665.3862" y="-711.3" font-family="Helvetica,sans-Serif" font-size="11.00" fill="#000000"> &#160;</text>
<polygon fill="#ffffff" stroke="transparent" points="674.5,-705.2 674.5,-724.2 732.5,-724.2 732.5,-705.2 674.5,-705.2"/>
<polygon fill="none" stroke="#000000" points="674.5,-705.2 674.5,-724.2 732.5,-724.2 732.5,-705.2 674.5,-705.2"/>
<text text-anchor="start" x="723.3862" y="-711.3" font-family="Helvetica,sans-Serif" font-size="11.00" fill="#000000"> &#160;</text>
</a>
</g>
</g>
<!-- reference_data_domain_link&#45;&gt;reference_data -->
<g id="edge3" class="edge">
<title>reference_data_domain_link:w&#45;&gt;reference_data:e</title>
<path fill="none" stroke="#000000" d="M494.9947,-732.71C467.6272,-729.9618 458.7001,-715.8445 434,-695.2 414.2789,-678.717 373.8679,-624.9073 347.63,-588.7348"/>
<polygon fill="#000000" stroke="#000000" points="504.8873,-729.1671 504.5145,-737.1584 502.9162,-737.0838 503.289,-729.0925 504.8873,-729.1671"/>
<polyline fill="none" stroke="#000000" points="505.5,-733.2 501.5043,-733.0136 "/>
<ellipse fill="none" stroke="#000000" cx="498.3078" cy="-732.8645" rx="3.2" ry="3.2"/>
</g>
<!-- reference_data_domain_link&#45;&gt;reference_data_domain -->
<g id="edge2" class="edge">
<title>reference_data_domain_link:w&#45;&gt;reference_data_domain:e</title>
<path fill="none" stroke="#000000" d="M490.7483,-732.7619C360.0541,-724.8417 343.3124,-612.2 204,-612.2"/>
<polygon fill="#000000" stroke="#000000" points="497.5035,-732.9624 505.3931,-736.7984 501.5018,-733.0812 505.5,-733.2 505.5,-733.2 505.5,-733.2 501.5018,-733.0812 505.6069,-729.6016 497.5035,-732.9624 497.5035,-732.9624"/>
<ellipse fill="none" stroke="#000000" cx="494.3049" cy="-732.8674" rx="3.2" ry="3.2"/>
</g>
<!-- reference_data_link -->
<g id="node4" class="node">
<title>reference_data_link</title>
<g id="a_node4"><a xlink:href="../../tables/reference_data_link.html" xlink:title="reference_data_link" target="_top">
<polygon fill="#ffffff" stroke="transparent" points="533,-623.7 533,-684.7 704,-684.7 704,-623.7 533,-623.7"/>
<polygon fill="#f5f5f5" stroke="transparent" points="533.5,-661.2 533.5,-684.2 704.5,-684.2 704.5,-661.2 533.5,-661.2"/>
<polygon fill="none" stroke="#000000" points="533.5,-661.2 533.5,-684.2 704.5,-684.2 704.5,-661.2 533.5,-661.2"/>
<text text-anchor="start" x="538.5" y="-669.8" font-family="Helvetica,sans-Serif" font-weight="bold" font-size="11.00" fill="#000000">reference_data_link</text>
<text text-anchor="start" x="670.0219" y="-669.3" font-family="Helvetica,sans-Serif" font-size="11.00" fill="#000000">[table]</text>
<polygon fill="none" stroke="#000000" points="533.5,-642.2 533.5,-661.2 704.5,-661.2 704.5,-642.2 533.5,-642.2"/>
<text text-anchor="start" x="536.5" y="-648.3" font-family="Helvetica,sans-Serif" font-size="11.00" fill="#000000">...</text>
<polygon fill="#ffffff" stroke="transparent" points="533.5,-623.2 533.5,-642.2 617.5,-642.2 617.5,-623.2 533.5,-623.2"/>
<polygon fill="none" stroke="#000000" points="533.5,-623.2 533.5,-642.2 617.5,-642.2 617.5,-623.2 533.5,-623.2"/>
<text text-anchor="start" x="536.5" y="-629.3" font-family="Helvetica,sans-Serif" font-size="11.00" fill="#000000">&lt; 2</text>
<polygon fill="#ffffff" stroke="transparent" points="617.5,-623.2 617.5,-642.2 660.5,-642.2 660.5,-623.2 617.5,-623.2"/>
<polygon fill="none" stroke="#000000" points="617.5,-623.2 617.5,-642.2 660.5,-642.2 660.5,-623.2 617.5,-623.2"/>
<text text-anchor="start" x="651.3862" y="-629.3" font-family="Helvetica,sans-Serif" font-size="11.00" fill="#000000"> &#160;</text>
<polygon fill="#ffffff" stroke="transparent" points="660.5,-623.2 660.5,-642.2 704.5,-642.2 704.5,-623.2 660.5,-623.2"/>
<polygon fill="none" stroke="#000000" points="660.5,-623.2 660.5,-642.2 704.5,-642.2 704.5,-623.2 660.5,-623.2"/>
<text text-anchor="start" x="695.3862" y="-629.3" font-family="Helvetica,sans-Serif" font-size="11.00" fill="#000000"> &#160;</text>
</a>
</g>
</g>
<!-- reference_data_link&#45;&gt;reference_data -->
<g id="edge4" class="edge">
<title>reference_data_link:w&#45;&gt;reference_data:e</title>
<path fill="none" stroke="#000000" d="M518.832,-649.7539C465.4811,-642.416 412.3518,-613.209 374.9213,-588.9488"/>
<polygon fill="#000000" stroke="#000000" points="525.5386,-650.415 533.1468,-654.7826 529.5193,-650.8075 533.5,-651.2 533.5,-651.2 533.5,-651.2 529.5193,-650.8075 533.8532,-647.6174 525.5386,-650.415 525.5386,-650.415"/>
<ellipse fill="none" stroke="#000000" cx="522.354" cy="-650.101" rx="3.2" ry="3.2"/>
</g>
<!-- reference_data_link&#45;&gt;reference_data -->
<g id="edge5" class="edge">
<title>reference_data_link:w&#45;&gt;reference_data:e</title>
<path fill="none" stroke="#000000" d="M518.9678,-651.5182C458.5176,-650.1466 398.3352,-616.2079 360.9341,-588.7098"/>
<polygon fill="#000000" stroke="#000000" points="525.5019,-651.3752 533.5788,-654.7991 529.501,-651.2876 533.5,-651.2 533.5,-651.2 533.5,-651.2 529.501,-651.2876 533.4212,-647.6009 525.5019,-651.3752 525.5019,-651.3752"/>
<ellipse fill="none" stroke="#000000" cx="522.3027" cy="-651.4452" rx="3.2" ry="3.2"/>
</g>
<!-- temporary_absence_authorisation -->
<g id="node5" class="node">
<title>temporary_absence_authorisation</title>
<g id="a_node5"><a xlink:href="../../tables/temporary_absence_authorisation.html" xlink:title="temporary_absence_authorisation" target="_top">
<polygon fill="#ffffff" stroke="transparent" points="442,-38.2 442,-524.2 795,-524.2 795,-38.2 442,-38.2"/>
<polygon fill="#f5f5f5" stroke="transparent" points="444.5,-499.2 444.5,-522.2 793.5,-522.2 793.5,-499.2 444.5,-499.2"/>
<polygon fill="none" stroke="#000000" points="444.5,-499.2 444.5,-522.2 793.5,-522.2 793.5,-499.2 444.5,-499.2"/>
<text text-anchor="start" x="449.5" y="-507.8" font-family="Helvetica,sans-Serif" font-weight="bold" font-size="11.00" fill="#000000">temporary_absence_authorisation</text>
<text text-anchor="start" x="758.5437" y="-507.3" font-family="Helvetica,sans-Serif" font-size="11.00" fill="#000000">[table]</text>
<polygon fill="none" stroke="#000000" points="444.5,-477.2 444.5,-499.2 694.5,-499.2 694.5,-477.2 444.5,-477.2"/>
<image xlink:href="../../images/primaryKeys.png" width="11px" height="12px" preserveAspectRatio="xMinYMin meet" x="449.5" y="-494.2"/>
<text text-anchor="start" x="464.5" y="-484.3" font-family="Helvetica,sans-Serif" font-size="11.00" fill="#000000">id</text>
<polygon fill="none" stroke="#000000" points="694.5,-477.2 694.5,-499.2 793.5,-499.2 793.5,-477.2 694.5,-477.2"/>
<text text-anchor="start" x="697.5" y="-484.9" font-family="Helvetica,sans-Serif" font-size="11.00" fill="#000000">uuid[2147483647]</text>
<polygon fill="none" stroke="#000000" points="444.5,-455.2 444.5,-477.2 694.5,-477.2 694.5,-455.2 444.5,-455.2"/>
<text text-anchor="start" x="464.5" y="-462.3" font-family="Helvetica,sans-Serif" font-size="11.00" fill="#000000">version</text>
<polygon fill="none" stroke="#000000" points="694.5,-455.2 694.5,-477.2 793.5,-477.2 793.5,-455.2 694.5,-455.2"/>
<text text-anchor="start" x="697.5" y="-462.9" font-family="Helvetica,sans-Serif" font-size="11.00" fill="#000000">int4[10]</text>
<polygon fill="#ffffff" stroke="transparent" points="444.5,-433.2 444.5,-455.2 694.5,-455.2 694.5,-433.2 444.5,-433.2"/>
<polygon fill="none" stroke="#000000" points="444.5,-433.2 444.5,-455.2 694.5,-455.2 694.5,-433.2 444.5,-433.2"/>
<text text-anchor="start" x="464.5" y="-440.3" font-family="Helvetica,sans-Serif" font-size="11.00" fill="#000000">person_identifier</text>
<polygon fill="none" stroke="#000000" points="694.5,-433.2 694.5,-455.2 793.5,-455.2 793.5,-433.2 694.5,-433.2"/>
<text text-anchor="start" x="697.5" y="-440.9" font-family="Helvetica,sans-Serif" font-size="11.00" fill="#000000">varchar[10]</text>
<polygon fill="#ffffff" stroke="transparent" points="444.5,-411.2 444.5,-433.2 694.5,-433.2 694.5,-411.2 444.5,-411.2"/>
<polygon fill="none" stroke="#000000" points="444.5,-411.2 444.5,-433.2 694.5,-433.2 694.5,-411.2 444.5,-411.2"/>
<text text-anchor="start" x="464.5" y="-418.3" font-family="Helvetica,sans-Serif" font-size="11.00" fill="#000000">prison_code</text>
<polygon fill="none" stroke="#000000" points="694.5,-411.2 694.5,-433.2 793.5,-433.2 793.5,-411.2 694.5,-411.2"/>
<text text-anchor="start" x="697.5" y="-418.9" font-family="Helvetica,sans-Serif" font-size="11.00" fill="#000000">varchar[6]</text>
<polygon fill="none" stroke="#000000" points="444.5,-389.2 444.5,-411.2 694.5,-411.2 694.5,-389.2 444.5,-389.2"/>
<image xlink:href="../../images/foreignKeys.png" width="11px" height="12px" preserveAspectRatio="xMinYMin meet" x="449.5" y="-406.2"/>
<text text-anchor="start" x="464.5" y="-396.3" font-family="Helvetica,sans-Serif" font-size="11.00" fill="#000000">absence_type_id</text>
<polygon fill="none" stroke="#000000" points="694.5,-389.2 694.5,-411.2 793.5,-411.2 793.5,-389.2 694.5,-389.2"/>
<text text-anchor="start" x="697.5" y="-396.9" font-family="Helvetica,sans-Serif" font-size="11.00" fill="#000000">int8[19]</text>
<polygon fill="none" stroke="#000000" points="444.5,-367.2 444.5,-389.2 694.5,-389.2 694.5,-367.2 444.5,-367.2"/>
<image xlink:href="../../images/foreignKeys.png" width="11px" height="12px" preserveAspectRatio="xMinYMin meet" x="449.5" y="-384.2"/>
<text text-anchor="start" x="464.5" y="-374.3" font-family="Helvetica,sans-Serif" font-size="11.00" fill="#000000">absence_sub_type_id</text>
<polygon fill="none" stroke="#000000" points="694.5,-367.2 694.5,-389.2 793.5,-389.2 793.5,-367.2 694.5,-367.2"/>
<text text-anchor="start" x="697.5" y="-374.9" font-family="Helvetica,sans-Serif" font-size="11.00" fill="#000000">int8[19]</text>
<polygon fill="none" stroke="#000000" points="444.5,-345.2 444.5,-367.2 694.5,-367.2 694.5,-345.2 444.5,-345.2"/>
<image xlink:href="../../images/foreignKeys.png" width="11px" height="12px" preserveAspectRatio="xMinYMin meet" x="449.5" y="-362.2"/>
<text text-anchor="start" x="464.5" y="-352.3" font-family="Helvetica,sans-Serif" font-size="11.00" fill="#000000">absence_reason_id</text>
<polygon fill="none" stroke="#000000" points="694.5,-345.2 694.5,-367.2 793.5,-367.2 793.5,-345.2 694.5,-345.2"/>
<text text-anchor="start" x="697.5" y="-352.9" font-family="Helvetica,sans-Serif" font-size="11.00" fill="#000000">int8[19]</text>
<polygon fill="none" stroke="#000000" points="444.5,-323.2 444.5,-345.2 694.5,-345.2 694.5,-323.2 444.5,-323.2"/>
<text text-anchor="start" x="464.5" y="-330.3" font-family="Helvetica,sans-Serif" font-size="11.00" fill="#000000">repeat</text>
<polygon fill="none" stroke="#000000" points="694.5,-323.2 694.5,-345.2 793.5,-345.2 793.5,-323.2 694.5,-323.2"/>
<text text-anchor="start" x="697.5" y="-330.9" font-family="Helvetica,sans-Serif" font-size="11.00" fill="#000000">bool[1]</text>
<polygon fill="none" stroke="#000000" points="444.5,-301.2 444.5,-323.2 694.5,-323.2 694.5,-301.2 444.5,-301.2"/>
<image xlink:href="../../images/foreignKeys.png" width="11px" height="12px" preserveAspectRatio="xMinYMin meet" x="449.5" y="-318.2"/>
<text text-anchor="start" x="464.5" y="-308.3" font-family="Helvetica,sans-Serif" font-size="11.00" fill="#000000">status_id</text>
<polygon fill="none" stroke="#000000" points="694.5,-301.2 694.5,-323.2 793.5,-323.2 793.5,-301.2 694.5,-301.2"/>
<text text-anchor="start" x="697.5" y="-308.9" font-family="Helvetica,sans-Serif" font-size="11.00" fill="#000000">int8[19]</text>
<polygon fill="none" stroke="#000000" points="444.5,-279.2 444.5,-301.2 694.5,-301.2 694.5,-279.2 444.5,-279.2"/>
<text text-anchor="start" x="464.5" y="-286.3" font-family="Helvetica,sans-Serif" font-size="11.00" fill="#000000">notes</text>
<polygon fill="none" stroke="#000000" points="694.5,-279.2 694.5,-301.2 793.5,-301.2 793.5,-279.2 694.5,-279.2"/>
<text text-anchor="start" x="697.5" y="-286.9" font-family="Helvetica,sans-Serif" font-size="11.00" fill="#000000">text[2147483647]</text>
<polygon fill="none" stroke="#000000" points="444.5,-257.2 444.5,-279.2 694.5,-279.2 694.5,-257.2 444.5,-257.2"/>
<text text-anchor="start" x="464.5" y="-264.3" font-family="Helvetica,sans-Serif" font-size="11.00" fill="#000000">submitted_at</text>
<polygon fill="none" stroke="#000000" points="694.5,-257.2 694.5,-279.2 793.5,-279.2 793.5,-257.2 694.5,-257.2"/>
<text text-anchor="start" x="697.5" y="-264.9" font-family="Helvetica,sans-Serif" font-size="11.00" fill="#000000">timestamp[29,6]</text>
<polygon fill="none" stroke="#000000" points="444.5,-235.2 444.5,-257.2 694.5,-257.2 694.5,-235.2 444.5,-235.2"/>
<text text-anchor="start" x="464.5" y="-242.3" font-family="Helvetica,sans-Serif" font-size="11.00" fill="#000000">submitted_by</text>
<polygon fill="none" stroke="#000000" points="694.5,-235.2 694.5,-257.2 793.5,-257.2 793.5,-235.2 694.5,-235.2"/>
<text text-anchor="start" x="697.5" y="-242.9" font-family="Helvetica,sans-Serif" font-size="11.00" fill="#000000">varchar[64]</text>
<polygon fill="none" stroke="#000000" points="444.5,-213.2 444.5,-235.2 694.5,-235.2 694.5,-213.2 444.5,-213.2"/>
<text text-anchor="start" x="464.5" y="-220.3" font-family="Helvetica,sans-Serif" font-size="11.00" fill="#000000">approved_at</text>
<polygon fill="none" stroke="#000000" points="694.5,-213.2 694.5,-235.2 793.5,-235.2 793.5,-213.2 694.5,-213.2"/>
<text text-anchor="start" x="697.5" y="-220.9" font-family="Helvetica,sans-Serif" font-size="11.00" fill="#000000">timestamp[29,6]</text>
<polygon fill="none" stroke="#000000" points="444.5,-191.2 444.5,-213.2 694.5,-213.2 694.5,-191.2 444.5,-191.2"/>
<text text-anchor="start" x="464.5" y="-198.3" font-family="Helvetica,sans-Serif" font-size="11.00" fill="#000000">approved_by</text>
<polygon fill="none" stroke="#000000" points="694.5,-191.2 694.5,-213.2 793.5,-213.2 793.5,-191.2 694.5,-191.2"/>
<text text-anchor="start" x="697.5" y="-198.9" font-family="Helvetica,sans-Serif" font-size="11.00" fill="#000000">varchar[64]</text>
<polygon fill="#ffffff" stroke="transparent" points="444.5,-169.2 444.5,-191.2 694.5,-191.2 694.5,-169.2 444.5,-169.2"/>
<polygon fill="none" stroke="#000000" points="444.5,-169.2 444.5,-191.2 694.5,-191.2 694.5,-169.2 444.5,-169.2"/>
<text text-anchor="start" x="464.5" y="-176.3" font-family="Helvetica,sans-Serif" font-size="11.00" fill="#000000">legacy_id</text>
<polygon fill="none" stroke="#000000" points="694.5,-169.2 694.5,-191.2 793.5,-191.2 793.5,-169.2 694.5,-169.2"/>
<text text-anchor="start" x="697.5" y="-176.9" font-family="Helvetica,sans-Serif" font-size="11.00" fill="#000000">int8[19]</text>
<polygon fill="#ffffff" stroke="transparent" points="444.5,-147.2 444.5,-169.2 694.5,-169.2 694.5,-147.2 444.5,-147.2"/>
<polygon fill="none" stroke="#000000" points="444.5,-147.2 444.5,-169.2 694.5,-169.2 694.5,-147.2 444.5,-147.2"/>
<text text-anchor="start" x="464.5" y="-154.3" font-family="Helvetica,sans-Serif" font-size="11.00" fill="#000000">from_date</text>
<polygon fill="none" stroke="#000000" points="694.5,-147.2 694.5,-169.2 793.5,-169.2 793.5,-147.2 694.5,-147.2"/>
<text text-anchor="start" x="697.5" y="-154.9" font-family="Helvetica,sans-Serif" font-size="11.00" fill="#000000">date[13]</text>
<polygon fill="#ffffff" stroke="transparent" points="444.5,-125.2 444.5,-147.2 694.5,-147.2 694.5,-125.2 444.5,-125.2"/>
<polygon fill="none" stroke="#000000" points="444.5,-125.2 444.5,-147.2 694.5,-147.2 694.5,-125.2 444.5,-125.2"/>
<text text-anchor="start" x="464.5" y="-132.3" font-family="Helvetica,sans-Serif" font-size="11.00" fill="#000000">to_date</text>
<polygon fill="none" stroke="#000000" points="694.5,-125.2 694.5,-147.2 793.5,-147.2 793.5,-125.2 694.5,-125.2"/>
<text text-anchor="start" x="697.5" y="-132.9" font-family="Helvetica,sans-Serif" font-size="11.00" fill="#000000">date[13]</text>
<polygon fill="none" stroke="#000000" points="444.5,-103.2 444.5,-125.2 694.5,-125.2 694.5,-103.2 444.5,-103.2"/>
<text text-anchor="start" x="464.5" y="-110.3" font-family="Helvetica,sans-Serif" font-size="11.00" fill="#000000">schedule</text>
<polygon fill="none" stroke="#000000" points="694.5,-103.2 694.5,-125.2 793.5,-125.2 793.5,-103.2 694.5,-103.2"/>
<text text-anchor="start" x="697.2258" y="-110.9" font-family="Helvetica,sans-Serif" font-size="11.00" fill="#000000">jsonb[2147483647]</text>
<polygon fill="none" stroke="#000000" points="444.5,-81.2 444.5,-103.2 694.5,-103.2 694.5,-81.2 444.5,-81.2"/>
<image xlink:href="../../images/foreignKeys.png" width="11px" height="12px" preserveAspectRatio="xMinYMin meet" x="449.5" y="-98.2"/>
<text text-anchor="start" x="464.5" y="-88.3" font-family="Helvetica,sans-Serif" font-size="11.00" fill="#000000">absence_reason_category_id</text>
<polygon fill="none" stroke="#000000" points="694.5,-81.2 694.5,-103.2 793.5,-103.2 793.5,-81.2 694.5,-81.2"/>
<text text-anchor="start" x="697.5" y="-88.9" font-family="Helvetica,sans-Serif" font-size="11.00" fill="#000000">int8[19]</text>
<polygon fill="none" stroke="#000000" points="444.5,-59.2 444.5,-81.2 694.5,-81.2 694.5,-59.2 444.5,-59.2"/>
<text text-anchor="start" x="464.5" y="-66.3" font-family="Helvetica,sans-Serif" font-size="11.00" fill="#000000">reason_path</text>
<polygon fill="none" stroke="#000000" points="694.5,-59.2 694.5,-81.2 793.5,-81.2 793.5,-59.2 694.5,-59.2"/>
<text text-anchor="start" x="697.2258" y="-66.9" font-family="Helvetica,sans-Serif" font-size="11.00" fill="#000000">jsonb[2147483647]</text>
<polygon fill="#ffffff" stroke="transparent" points="444.5,-40.2 444.5,-59.2 573.5,-59.2 573.5,-40.2 444.5,-40.2"/>
<polygon fill="none" stroke="#000000" points="444.5,-40.2 444.5,-59.2 573.5,-59.2 573.5,-40.2 444.5,-40.2"/>
<text text-anchor="start" x="447.5" y="-46.3" font-family="Helvetica,sans-Serif" font-size="11.00" fill="#000000">&lt; 5</text>
<polygon fill="#ffffff" stroke="transparent" points="573.5,-40.2 573.5,-59.2 694.5,-59.2 694.5,-40.2 573.5,-40.2"/>
<polygon fill="none" stroke="#000000" points="573.5,-40.2 573.5,-59.2 694.5,-59.2 694.5,-40.2 573.5,-40.2"/>
<text text-anchor="start" x="685.3862" y="-46.3" font-family="Helvetica,sans-Serif" font-size="11.00" fill="#000000"> &#160;</text>
<polygon fill="#ffffff" stroke="transparent" points="694.5,-40.2 694.5,-59.2 793.5,-59.2 793.5,-40.2 694.5,-40.2"/>
<polygon fill="none" stroke="#000000" points="694.5,-40.2 694.5,-59.2 793.5,-59.2 793.5,-40.2 694.5,-40.2"/>
<text text-anchor="start" x="774.9053" y="-46.3" font-family="Helvetica,sans-Serif" font-size="11.00" fill="#000000">1 &gt;</text>
<polygon fill="none" stroke="#000000" stroke-width="2" points="443,-39.2 443,-523.2 794,-523.2 794,-39.2 443,-39.2"/>
</a>
</g>
</g>
<!-- temporary_absence_authorisation&#45;&gt;reference_data -->
<g id="edge6" class="edge">
<title>temporary_absence_authorisation:w&#45;&gt;reference_data:e</title>
<path fill="none" stroke="#000000" d="M430.0886,-95.1815C353.3519,-127.7495 330.373,-418.1172 324.6563,-519.4749"/>
<polygon fill="#000000" stroke="#000000" points="436.6659,-93.8208 445.2294,-95.7253 440.5829,-93.0104 444.5,-92.2 444.5,-92.2 444.5,-92.2 440.5829,-93.0104 443.7706,-88.6747 436.6659,-93.8208 436.6659,-93.8208"/>
<ellipse fill="none" stroke="#000000" cx="433.5323" cy="-94.4691" rx="3.2" ry="3.2"/>
</g>
<!-- temporary_absence_authorisation&#45;&gt;reference_data -->
<g id="edge7" class="edge">
<title>temporary_absence_authorisation:w&#45;&gt;reference_data:e</title>
<path fill="none" stroke="#000000" d="M430.0305,-357.5596C364.977,-370.089 338.146,-466.1901 328.1992,-519.2574"/>
<polygon fill="#000000" stroke="#000000" points="436.5351,-356.9485 444.8368,-359.7842 440.5175,-356.5742 444.5,-356.2 444.5,-356.2 444.5,-356.2 440.5175,-356.5742 444.1632,-352.6158 436.5351,-356.9485 436.5351,-356.9485"/>
<ellipse fill="none" stroke="#000000" cx="433.3491" cy="-357.2478" rx="3.2" ry="3.2"/>
</g>
<!-- temporary_absence_authorisation&#45;&gt;reference_data -->
<g id="edge8" class="edge">
<title>temporary_absence_authorisation:w&#45;&gt;reference_data:e</title>
<path fill="none" stroke="#000000" d="M429.9443,-379.6337C371.7793,-391.337 342.6803,-471.9431 330.4294,-519.4281"/>
<polygon fill="#000000" stroke="#000000" points="436.5385,-378.9842 444.8529,-381.7827 440.5193,-378.5921 444.5,-378.2 444.5,-378.2 444.5,-378.2 440.5193,-378.5921 444.1471,-374.6173 436.5385,-378.9842 436.5385,-378.9842"/>
<ellipse fill="none" stroke="#000000" cx="433.3539" cy="-379.2979" rx="3.2" ry="3.2"/>
</g>
<!-- temporary_absence_authorisation&#45;&gt;reference_data -->
<g id="edge9" class="edge">
<title>temporary_absence_authorisation:w&#45;&gt;reference_data:e</title>
<path fill="none" stroke="#000000" d="M430.1337,-401.6379C378.4334,-412.1537 347.7212,-477.9596 333.2154,-519.6394"/>
<polygon fill="#000000" stroke="#000000" points="436.5398,-400.9968 444.8585,-403.7821 440.5199,-400.5984 444.5,-400.2 444.5,-400.2 444.5,-400.2 440.5199,-400.5984 444.1415,-396.6179 436.5398,-400.9968 436.5398,-400.9968"/>
<ellipse fill="none" stroke="#000000" cx="433.3557" cy="-401.3155" rx="3.2" ry="3.2"/>
</g>
<!-- temporary_absence_authorisation&#45;&gt;reference_data -->
<g id="edge10" class="edge">
<title>temporary_absence_authorisation:w&#45;&gt;reference_data:e</title>
<path fill="none" stroke="#000000" d="M430.0719,-313.4248C350.4156,-327.3378 330.0138,-456.2716 324.793,-519.5273"/>
<polygon fill="#000000" stroke="#000000" points="436.5287,-312.8767 444.8045,-315.7871 440.5143,-312.5384 444.5,-312.2 444.5,-312.2 444.5,-312.2 440.5143,-312.5384 444.1955,-308.6129 436.5287,-312.8767 436.5287,-312.8767"/>
<ellipse fill="none" stroke="#000000" cx="433.3401" cy="-313.1474" rx="3.2" ry="3.2"/>
</g>
<!-- temporary_absence_movement -->
<g id="node6" class="node">
<title>temporary_absence_movement</title>
<g id="a_node6"><a xlink:href="../../tables/temporary_absence_movement.html" xlink:title="temporary_absence_movement" target="_top">
<polygon fill="#ffffff" stroke="transparent" points="1145,-565.7 1145,-626.7 1394,-626.7 1394,-565.7 1145,-565.7"/>
<polygon fill="#f5f5f5" stroke="transparent" points="1145.5,-603.2 1145.5,-626.2 1394.5,-626.2 1394.5,-603.2 1145.5,-603.2"/>
<polygon fill="none" stroke="#000000" points="1145.5,-603.2 1145.5,-626.2 1394.5,-626.2 1394.5,-603.2 1145.5,-603.2"/>
<text text-anchor="start" x="1150.5" y="-611.8" font-family="Helvetica,sans-Serif" font-weight="bold" font-size="11.00" fill="#000000">temporary_absence_movement</text>
<text text-anchor="start" x="1360.0219" y="-611.3" font-family="Helvetica,sans-Serif" font-size="11.00" fill="#000000">[table]</text>
<polygon fill="none" stroke="#000000" points="1145.5,-584.2 1145.5,-603.2 1394.5,-603.2 1394.5,-584.2 1145.5,-584.2"/>
<text text-anchor="start" x="1148.5" y="-590.3" font-family="Helvetica,sans-Serif" font-size="11.00" fill="#000000">...</text>
<polygon fill="#ffffff" stroke="transparent" points="1145.5,-565.2 1145.5,-584.2 1268.5,-584.2 1268.5,-565.2 1145.5,-565.2"/>
<polygon fill="none" stroke="#000000" points="1145.5,-565.2 1145.5,-584.2 1268.5,-584.2 1268.5,-565.2 1145.5,-565.2"/>
<text text-anchor="start" x="1148.5" y="-571.3" font-family="Helvetica,sans-Serif" font-size="11.00" fill="#000000">&lt; 3</text>
<polygon fill="#ffffff" stroke="transparent" points="1268.5,-565.2 1268.5,-584.2 1331.5,-584.2 1331.5,-565.2 1268.5,-565.2"/>
<polygon fill="none" stroke="#000000" points="1268.5,-565.2 1268.5,-584.2 1331.5,-584.2 1331.5,-565.2 1268.5,-565.2"/>
<text text-anchor="start" x="1322.3862" y="-571.3" font-family="Helvetica,sans-Serif" font-size="11.00" fill="#000000"> &#160;</text>
<polygon fill="#ffffff" stroke="transparent" points="1331.5,-565.2 1331.5,-584.2 1394.5,-584.2 1394.5,-565.2 1331.5,-565.2"/>
<polygon fill="none" stroke="#000000" points="1331.5,-565.2 1331.5,-584.2 1394.5,-584.2 1394.5,-565.2 1331.5,-565.2"/>
<text text-anchor="start" x="1385.3862" y="-571.3" font-family="Helvetica,sans-Serif" font-size="11.00" fill="#000000"> &#160;</text>
</a>
</g>
</g>
<!-- temporary_absence_movement&#45;&gt;reference_data -->
<g id="edge11" class="edge">
<title>temporary_absence_movement:w&#45;&gt;reference_data:e</title>
<path fill="none" stroke="#000000" d="M1131.0177,-592.9464C860.3891,-587.9091 544.7326,-565.6033 401.1924,-556.9872"/>
<polygon fill="#000000" stroke="#000000" points="1137.5012,-593.0599 1145.4369,-596.7994 1141.5006,-593.1299 1145.5,-593.2 1145.5,-593.2 1145.5,-593.2 1141.5006,-593.1299 1145.5631,-589.6006 1137.5012,-593.0599 1137.5012,-593.0599"/>
<ellipse fill="none" stroke="#000000" cx="1134.3017" cy="-593.0038" rx="3.2" ry="3.2"/>
</g>
<!-- temporary_absence_movement&#45;&gt;reference_data -->
<g id="edge12" class="edge">
<title>temporary_absence_movement:w&#45;&gt;reference_data:e</title>
<path fill="none" stroke="#000000" d="M1131.0177,-593.4525C860.3891,-597.7176 544.7326,-577.6933 401.1924,-564.3376"/>
<polygon fill="#000000" stroke="#000000" points="1137.5012,-593.3395 1145.5628,-596.7995 1141.5006,-593.2697 1145.5,-593.2 1145.5,-593.2 1145.5,-593.2 1141.5006,-593.2697 1145.4372,-589.6005 1137.5012,-593.3395 1137.5012,-593.3395"/>
<ellipse fill="none" stroke="#000000" cx="1134.3017" cy="-593.3953" rx="3.2" ry="3.2"/>
</g>
<!-- temporary_absence_occurrence -->
<g id="node7" class="node">
<title>temporary_absence_occurrence</title>
<g id="a_node7"><a xlink:href="../../tables/temporary_absence_occurrence.html" xlink:title="temporary_absence_occurrence" target="_top">
<polygon fill="#ffffff" stroke="transparent" points="844,-501.7 844,-562.7 1096,-562.7 1096,-501.7 844,-501.7"/>
<polygon fill="#f5f5f5" stroke="transparent" points="844,-539.2 844,-562.2 1096,-562.2 1096,-539.2 844,-539.2"/>
<polygon fill="none" stroke="#000000" points="844,-539.2 844,-562.2 1096,-562.2 1096,-539.2 844,-539.2"/>
<text text-anchor="start" x="849" y="-547.8" font-family="Helvetica,sans-Serif" font-weight="bold" font-size="11.00" fill="#000000">temporary_absence_occurrence</text>
<text text-anchor="start" x="1061.5219" y="-547.3" font-family="Helvetica,sans-Serif" font-size="11.00" fill="#000000">[table]</text>
<polygon fill="none" stroke="#000000" points="844,-520.2 844,-539.2 1096,-539.2 1096,-520.2 844,-520.2"/>
<text text-anchor="start" x="847" y="-526.3" font-family="Helvetica,sans-Serif" font-size="11.00" fill="#000000">...</text>
<polygon fill="#ffffff" stroke="transparent" points="844,-501.2 844,-520.2 964,-520.2 964,-501.2 844,-501.2"/>
<polygon fill="none" stroke="#000000" points="844,-501.2 844,-520.2 964,-520.2 964,-501.2 844,-501.2"/>
<text text-anchor="start" x="847" y="-507.3" font-family="Helvetica,sans-Serif" font-size="11.00" fill="#000000">&lt; 3</text>
<polygon fill="#ffffff" stroke="transparent" points="964,-501.2 964,-520.2 1025,-520.2 1025,-501.2 964,-501.2"/>
<polygon fill="none" stroke="#000000" points="964,-501.2 964,-520.2 1025,-520.2 1025,-501.2 964,-501.2"/>
<text text-anchor="start" x="1015.8862" y="-507.3" font-family="Helvetica,sans-Serif" font-size="11.00" fill="#000000"> &#160;</text>
<polygon fill="#ffffff" stroke="transparent" points="1025,-501.2 1025,-520.2 1096,-520.2 1096,-501.2 1025,-501.2"/>
<polygon fill="none" stroke="#000000" points="1025,-501.2 1025,-520.2 1096,-520.2 1096,-501.2 1025,-501.2"/>
<text text-anchor="start" x="1077.4053" y="-507.3" font-family="Helvetica,sans-Serif" font-size="11.00" fill="#000000">1 &gt;</text>
</a>
</g>
</g>
<!-- temporary_absence_movement&#45;&gt;temporary_absence_occurrence -->
<g id="edge13" class="edge">
<title>temporary_absence_movement:w&#45;&gt;temporary_absence_occurrence:e</title>
<path fill="none" stroke="#000000" d="M1131.1553,-590.9472C1122.386,-587.7758 1116.9303,-581.8612 1104,-577.2 1094.4191,-573.7462 1084.4231,-570.2297 1074.3983,-566.7615"/>
<polygon fill="#000000" stroke="#000000" points="1137.5969,-591.9588 1144.9415,-596.7564 1141.5484,-592.5794 1145.5,-593.2 1145.5,-593.2 1145.5,-593.2 1141.5484,-592.5794 1146.0585,-589.6436 1137.5969,-591.9588 1137.5969,-591.9588"/>
<ellipse fill="none" stroke="#000000" cx="1134.4356" cy="-591.4623" rx="3.2" ry="3.2"/>
</g>
<!-- temporary_absence_occurrence&#45;&gt;reference_data -->
<g id="edge14" class="edge">
<title>temporary_absence_occurrence:w&#45;&gt;reference_data:e</title>
<path fill="none" stroke="#000000" d="M821.4528,-533.3962C690.5092,-536.7752 504.8698,-543.3537 401.0483,-548.4897"/>
<polygon fill="#000000" stroke="#000000" points="827.9437,-533.2322 836.0322,-536.6288 831.9425,-533.131 835.9412,-533.0299 835.9412,-533.0299 835.9412,-533.0299 831.9425,-533.131 835.8502,-529.4311 827.9437,-533.2322 827.9437,-533.2322"/>
<ellipse fill="none" stroke="#000000" cx="824.7448" cy="-533.3131" rx="3.2" ry="3.2"/>
</g>
<!-- temporary_absence_occurrence&#45;&gt;reference_data -->
<g id="edge16" class="edge">
<title>temporary_absence_occurrence:w&#45;&gt;reference_data:e</title>
<path fill="none" stroke="#000000" d="M821.4528,-541.7484C690.5092,-547.4533 504.8698,-553.4551 401.0483,-555.1119"/>
<polygon fill="#000000" stroke="#000000" points="827.949,-541.4615 836.1001,-544.7048 831.9451,-541.2849 835.9412,-541.1083 835.9412,-541.1083 835.9412,-541.1083 831.9451,-541.2849 835.7823,-537.5118 827.949,-541.4615 827.949,-541.4615"/>
<ellipse fill="none" stroke="#000000" cx="824.7521" cy="-541.6027" rx="3.2" ry="3.2"/>
</g>
<!-- temporary_absence_occurrence&#45;&gt;temporary_absence_authorisation -->
<g id="edge15" class="edge">
<title>temporary_absence_occurrence:w&#45;&gt;temporary_absence_authorisation:e</title>
<path fill="none" stroke="#000000" d="M852.854,-494.609C833.2369,-490.7442 812.9403,-488.2 793.5,-488.2"/>
<polygon fill="#000000" stroke="#000000" points="859.1737,-495.963 866.2419,-501.1592 863.0849,-496.8011 866.9962,-497.6391 866.9962,-497.6391 866.9962,-497.6391 863.0849,-496.8011 867.7504,-494.119 859.1737,-495.963 859.1737,-495.963"/>
<ellipse fill="none" stroke="#000000" cx="856.0447" cy="-495.2926" rx="3.2" ry="3.2"/>
</g>
</g>
</svg>
