<?xml version="1.0" encoding="UTF-8" standalone="no"?>
<!DOCTYPE svg PUBLIC "-//W3C//DTD SVG 1.1//EN"
 "http://www.w3.org/Graphics/SVG/1.1/DTD/svg11.dtd">
<!-- Generated by graphviz version 2.40.1 (20161225.0304)
 -->
<!-- Title: oneDegreeRelationshipsDiagram Pages: 1 -->
<svg width="870pt" height="631pt"
 viewBox="0.00 0.00 870.00 630.70" xmlns="http://www.w3.org/2000/svg" xmlns:xlink="http://www.w3.org/1999/xlink">
<g id="graph0" class="graph" transform="scale(1 1) rotate(0) translate(4 626.7)">
<title>oneDegreeRelationshipsDiagram</title>
<polygon fill="#ffffff" stroke="transparent" points="-4,4 -4,-626.7 866,-626.7 866,4 -4,4"/>
<text text-anchor="middle" x="72.4936" y="-7.3" font-family="Helvetica,sans-Serif" font-size="11.00" fill="#000000">Generated by SchemaSpy</text>
<!-- temporary_absence_authorisation -->
<g id="node1" class="node">
<title>temporary_absence_authorisation</title>
<g id="a_node1"><a xlink:href="../../tables/temporary_absence_authorisation.html" xlink:title="temporary_absence_authorisation" target="_top">
<polygon fill="#ffffff" stroke="transparent" points="200,-154.7 200,-618.7 553,-618.7 553,-154.7 200,-154.7"/>
<polygon fill="#f5f5f5" stroke="transparent" points="202.5,-593.7 202.5,-616.7 551.5,-616.7 551.5,-593.7 202.5,-593.7"/>
<polygon fill="none" stroke="#000000" points="202.5,-593.7 202.5,-616.7 551.5,-616.7 551.5,-593.7 202.5,-593.7"/>
<text text-anchor="start" x="207.5" y="-602.3" font-family="Helvetica,sans-Serif" font-weight="bold" font-size="11.00" fill="#000000">temporary_absence_authorisation</text>
<text text-anchor="start" x="516.5437" y="-601.8" font-family="Helvetica,sans-Serif" font-size="11.00" fill="#000000">[table]</text>
<polygon fill="none" stroke="#000000" points="202.5,-571.7 202.5,-593.7 452.5,-593.7 452.5,-571.7 202.5,-571.7"/>
<image xlink:href="../../images/primaryKeys.png" width="11px" height="12px" preserveAspectRatio="xMinYMin meet" x="207.5" y="-588.7"/>
<text text-anchor="start" x="222.5" y="-578.8" font-family="Helvetica,sans-Serif" font-size="11.00" fill="#000000">id</text>
<polygon fill="none" stroke="#000000" points="452.5,-571.7 452.5,-593.7 551.5,-593.7 551.5,-571.7 452.5,-571.7"/>
<text text-anchor="start" x="455.5" y="-579.4" font-family="Helvetica,sans-Serif" font-size="11.00" fill="#000000">uuid[2147483647]</text>
<polygon fill="none" stroke="#000000" points="202.5,-549.7 202.5,-571.7 452.5,-571.7 452.5,-549.7 202.5,-549.7"/>
<text text-anchor="start" x="222.5" y="-556.8" font-family="Helvetica,sans-Serif" font-size="11.00" fill="#000000">version</text>
<polygon fill="none" stroke="#000000" points="452.5,-549.7 452.5,-571.7 551.5,-571.7 551.5,-549.7 452.5,-549.7"/>
<text text-anchor="start" x="455.5" y="-557.4" font-family="Helvetica,sans-Serif" font-size="11.00" fill="#000000">int4[10]</text>
<polygon fill="#ffffff" stroke="transparent" points="202.5,-527.7 202.5,-549.7 452.5,-549.7 452.5,-527.7 202.5,-527.7"/>
<polygon fill="none" stroke="#000000" points="202.5,-527.7 202.5,-549.7 452.5,-549.7 452.5,-527.7 202.5,-527.7"/>
<text text-anchor="start" x="222.5" y="-534.8" font-family="Helvetica,sans-Serif" font-size="11.00" fill="#000000">person_identifier</text>
<polygon fill="none" stroke="#000000" points="452.5,-527.7 452.5,-549.7 551.5,-549.7 551.5,-527.7 452.5,-527.7"/>
<text text-anchor="start" x="455.5" y="-535.4" font-family="Helvetica,sans-Serif" font-size="11.00" fill="#000000">varchar[10]</text>
<polygon fill="#ffffff" stroke="transparent" points="202.5,-505.7 202.5,-527.7 452.5,-527.7 452.5,-505.7 202.5,-505.7"/>
<polygon fill="none" stroke="#000000" points="202.5,-505.7 202.5,-527.7 452.5,-527.7 452.5,-505.7 202.5,-505.7"/>
<text text-anchor="start" x="222.5" y="-512.8" font-family="Helvetica,sans-Serif" font-size="11.00" fill="#000000">prison_code</text>
<polygon fill="none" stroke="#000000" points="452.5,-505.7 452.5,-527.7 551.5,-527.7 551.5,-505.7 452.5,-505.7"/>
<text text-anchor="start" x="455.5" y="-513.4" font-family="Helvetica,sans-Serif" font-size="11.00" fill="#000000">varchar[6]</text>
<polygon fill="none" stroke="#000000" points="202.5,-483.7 202.5,-505.7 452.5,-505.7 452.5,-483.7 202.5,-483.7"/>
<image xlink:href="../../images/foreignKeys.png" width="11px" height="12px" preserveAspectRatio="xMinYMin meet" x="207.5" y="-500.7"/>
<text text-anchor="start" x="222.5" y="-490.8" font-family="Helvetica,sans-Serif" font-size="11.00" fill="#000000">absence_type_id</text>
<polygon fill="none" stroke="#000000" points="452.5,-483.7 452.5,-505.7 551.5,-505.7 551.5,-483.7 452.5,-483.7"/>
<text text-anchor="start" x="455.5" y="-491.4" font-family="Helvetica,sans-Serif" font-size="11.00" fill="#000000">int8[19]</text>
<polygon fill="none" stroke="#000000" points="202.5,-461.7 202.5,-483.7 452.5,-483.7 452.5,-461.7 202.5,-461.7"/>
<image xlink:href="../../images/foreignKeys.png" width="11px" height="12px" preserveAspectRatio="xMinYMin meet" x="207.5" y="-478.7"/>
<text text-anchor="start" x="222.5" y="-468.8" font-family="Helvetica,sans-Serif" font-size="11.00" fill="#000000">absence_sub_type_id</text>
<polygon fill="none" stroke="#000000" points="452.5,-461.7 452.5,-483.7 551.5,-483.7 551.5,-461.7 452.5,-461.7"/>
<text text-anchor="start" x="455.5" y="-469.4" font-family="Helvetica,sans-Serif" font-size="11.00" fill="#000000">int8[19]</text>
<polygon fill="none" stroke="#000000" points="202.5,-439.7 202.5,-461.7 452.5,-461.7 452.5,-439.7 202.5,-439.7"/>
<image xlink:href="../../images/foreignKeys.png" width="11px" height="12px" preserveAspectRatio="xMinYMin meet" x="207.5" y="-456.7"/>
<text text-anchor="start" x="222.5" y="-446.8" font-family="Helvetica,sans-Serif" font-size="11.00" fill="#000000">absence_reason_id</text>
<polygon fill="none" stroke="#000000" points="452.5,-439.7 452.5,-461.7 551.5,-461.7 551.5,-439.7 452.5,-439.7"/>
<text text-anchor="start" x="455.5" y="-447.4" font-family="Helvetica,sans-Serif" font-size="11.00" fill="#000000">int8[19]</text>
<polygon fill="none" stroke="#000000" points="202.5,-417.7 202.5,-439.7 452.5,-439.7 452.5,-417.7 202.5,-417.7"/>
<text text-anchor="start" x="222.5" y="-424.8" font-family="Helvetica,sans-Serif" font-size="11.00" fill="#000000">repeat</text>
<polygon fill="none" stroke="#000000" points="452.5,-417.7 452.5,-439.7 551.5,-439.7 551.5,-417.7 452.5,-417.7"/>
<text text-anchor="start" x="455.5" y="-425.4" font-family="Helvetica,sans-Serif" font-size="11.00" fill="#000000">bool[1]</text>
<polygon fill="none" stroke="#000000" points="202.5,-395.7 202.5,-417.7 452.5,-417.7 452.5,-395.7 202.5,-395.7"/>
<image xlink:href="../../images/foreignKeys.png" width="11px" height="12px" preserveAspectRatio="xMinYMin meet" x="207.5" y="-412.7"/>
<text text-anchor="start" x="222.5" y="-402.8" font-family="Helvetica,sans-Serif" font-size="11.00" fill="#000000">status_id</text>
<polygon fill="none" stroke="#000000" points="452.5,-395.7 452.5,-417.7 551.5,-417.7 551.5,-395.7 452.5,-395.7"/>
<text text-anchor="start" x="455.5" y="-403.4" font-family="Helvetica,sans-Serif" font-size="11.00" fill="#000000">int8[19]</text>
<polygon fill="none" stroke="#000000" points="202.5,-373.7 202.5,-395.7 452.5,-395.7 452.5,-373.7 202.5,-373.7"/>
<text text-anchor="start" x="222.5" y="-380.8" font-family="Helvetica,sans-Serif" font-size="11.00" fill="#000000">notes</text>
<polygon fill="none" stroke="#000000" points="452.5,-373.7 452.5,-395.7 551.5,-395.7 551.5,-373.7 452.5,-373.7"/>
<text text-anchor="start" x="455.5" y="-381.4" font-family="Helvetica,sans-Serif" font-size="11.00" fill="#000000">text[2147483647]</text>
<polygon fill="none" stroke="#000000" points="202.5,-351.7 202.5,-373.7 452.5,-373.7 452.5,-351.7 202.5,-351.7"/>
<text text-anchor="start" x="222.5" y="-358.8" font-family="Helvetica,sans-Serif" font-size="11.00" fill="#000000">application_date</text>
<polygon fill="none" stroke="#000000" points="452.5,-351.7 452.5,-373.7 551.5,-373.7 551.5,-351.7 452.5,-351.7"/>
<text text-anchor="start" x="455.5" y="-359.4" font-family="Helvetica,sans-Serif" font-size="11.00" fill="#000000">date[13]</text>
<polygon fill="none" stroke="#000000" points="202.5,-329.7 202.5,-351.7 452.5,-351.7 452.5,-329.7 202.5,-329.7"/>
<text text-anchor="start" x="222.5" y="-336.8" font-family="Helvetica,sans-Serif" font-size="11.00" fill="#000000">submitted_at</text>
<polygon fill="none" stroke="#000000" points="452.5,-329.7 452.5,-351.7 551.5,-351.7 551.5,-329.7 452.5,-329.7"/>
<text text-anchor="start" x="455.5" y="-337.4" font-family="Helvetica,sans-Serif" font-size="11.00" fill="#000000">timestamp[29,6]</text>
<polygon fill="none" stroke="#000000" points="202.5,-307.7 202.5,-329.7 452.5,-329.7 452.5,-307.7 202.5,-307.7"/>
<text text-anchor="start" x="222.5" y="-314.8" font-family="Helvetica,sans-Serif" font-size="11.00" fill="#000000">submitted_by</text>
<polygon fill="none" stroke="#000000" points="452.5,-307.7 452.5,-329.7 551.5,-329.7 551.5,-307.7 452.5,-307.7"/>
<text text-anchor="start" x="455.5" y="-315.4" font-family="Helvetica,sans-Serif" font-size="11.00" fill="#000000">varchar[64]</text>
<polygon fill="none" stroke="#000000" points="202.5,-285.7 202.5,-307.7 452.5,-307.7 452.5,-285.7 202.5,-285.7"/>
<text text-anchor="start" x="222.5" y="-292.8" font-family="Helvetica,sans-Serif" font-size="11.00" fill="#000000">approved_at</text>
<polygon fill="none" stroke="#000000" points="452.5,-285.7 452.5,-307.7 551.5,-307.7 551.5,-285.7 452.5,-285.7"/>
<text text-anchor="start" x="455.5" y="-293.4" font-family="Helvetica,sans-Serif" font-size="11.00" fill="#000000">timestamp[29,6]</text>
<polygon fill="none" stroke="#000000" points="202.5,-263.7 202.5,-285.7 452.5,-285.7 452.5,-263.7 202.5,-263.7"/>
<text text-anchor="start" x="222.5" y="-270.8" font-family="Helvetica,sans-Serif" font-size="11.00" fill="#000000">approved_by</text>
<polygon fill="none" stroke="#000000" points="452.5,-263.7 452.5,-285.7 551.5,-285.7 551.5,-263.7 452.5,-263.7"/>
<text text-anchor="start" x="455.5" y="-271.4" font-family="Helvetica,sans-Serif" font-size="11.00" fill="#000000">varchar[64]</text>
<polygon fill="#ffffff" stroke="transparent" points="202.5,-241.7 202.5,-263.7 452.5,-263.7 452.5,-241.7 202.5,-241.7"/>
<polygon fill="none" stroke="#000000" points="202.5,-241.7 202.5,-263.7 452.5,-263.7 452.5,-241.7 202.5,-241.7"/>
<text text-anchor="start" x="222.5" y="-248.8" font-family="Helvetica,sans-Serif" font-size="11.00" fill="#000000">legacy_id</text>
<polygon fill="none" stroke="#000000" points="452.5,-241.7 452.5,-263.7 551.5,-263.7 551.5,-241.7 452.5,-241.7"/>
<text text-anchor="start" x="455.5" y="-249.4" font-family="Helvetica,sans-Serif" font-size="11.00" fill="#000000">int8[19]</text>
<polygon fill="#ffffff" stroke="transparent" points="202.5,-219.7 202.5,-241.7 452.5,-241.7 452.5,-219.7 202.5,-219.7"/>
<polygon fill="none" stroke="#000000" points="202.5,-219.7 202.5,-241.7 452.5,-241.7 452.5,-219.7 202.5,-219.7"/>
<text text-anchor="start" x="222.5" y="-226.8" font-family="Helvetica,sans-Serif" font-size="11.00" fill="#000000">from_date</text>
<polygon fill="none" stroke="#000000" points="452.5,-219.7 452.5,-241.7 551.5,-241.7 551.5,-219.7 452.5,-219.7"/>
<text text-anchor="start" x="455.5" y="-227.4" font-family="Helvetica,sans-Serif" font-size="11.00" fill="#000000">date[13]</text>
<polygon fill="#ffffff" stroke="transparent" points="202.5,-197.7 202.5,-219.7 452.5,-219.7 452.5,-197.7 202.5,-197.7"/>
<polygon fill="none" stroke="#000000" points="202.5,-197.7 202.5,-219.7 452.5,-219.7 452.5,-197.7 202.5,-197.7"/>
<text text-anchor="start" x="222.5" y="-204.8" font-family="Helvetica,sans-Serif" font-size="11.00" fill="#000000">to_date</text>
<polygon fill="none" stroke="#000000" points="452.5,-197.7 452.5,-219.7 551.5,-219.7 551.5,-197.7 452.5,-197.7"/>
<text text-anchor="start" x="455.5" y="-205.4" font-family="Helvetica,sans-Serif" font-size="11.00" fill="#000000">date[13]</text>
<polygon fill="none" stroke="#000000" points="202.5,-175.7 202.5,-197.7 452.5,-197.7 452.5,-175.7 202.5,-175.7"/>
<text text-anchor="start" x="222.5" y="-182.8" font-family="Helvetica,sans-Serif" font-size="11.00" fill="#000000">schedule</text>
<polygon fill="none" stroke="#000000" points="452.5,-175.7 452.5,-197.7 551.5,-197.7 551.5,-175.7 452.5,-175.7"/>
<text text-anchor="start" x="455.2258" y="-183.4" font-family="Helvetica,sans-Serif" font-size="11.00" fill="#000000">jsonb[2147483647]</text>
<polygon fill="#ffffff" stroke="transparent" points="202.5,-156.7 202.5,-175.7 331.5,-175.7 331.5,-156.7 202.5,-156.7"/>
<polygon fill="none" stroke="#000000" points="202.5,-156.7 202.5,-175.7 331.5,-175.7 331.5,-156.7 202.5,-156.7"/>
<text text-anchor="start" x="205.5" y="-162.8" font-family="Helvetica,sans-Serif" font-size="11.00" fill="#000000">&lt; 4</text>
<polygon fill="#ffffff" stroke="transparent" points="331.5,-156.7 331.5,-175.7 452.5,-175.7 452.5,-156.7 331.5,-156.7"/>
<polygon fill="none" stroke="#000000" points="331.5,-156.7 331.5,-175.7 452.5,-175.7 452.5,-156.7 331.5,-156.7"/>
<text text-anchor="start" x="443.3862" y="-162.8" font-family="Helvetica,sans-Serif" font-size="11.00" fill="#000000"> &#160;</text>
<polygon fill="#ffffff" stroke="transparent" points="452.5,-156.7 452.5,-175.7 551.5,-175.7 551.5,-156.7 452.5,-156.7"/>
<polygon fill="none" stroke="#000000" points="452.5,-156.7 452.5,-175.7 551.5,-175.7 551.5,-156.7 452.5,-156.7"/>
<text text-anchor="start" x="532.9053" y="-162.8" font-family="Helvetica,sans-Serif" font-size="11.00" fill="#000000">1 &gt;</text>
<polygon fill="none" stroke="#000000" stroke-width="2" points="201,-155.7 201,-617.7 552,-617.7 552,-155.7 201,-155.7"/>
</a>
</g>
</g>
<!-- reference_data -->
<g id="node2" class="node">
<title>reference_data</title>
<g id="a_node2"><a xlink:href="../../tables/reference_data.html" xlink:title="reference_data" target="_top">
<polygon fill="#ffffff" stroke="transparent" points="8,-314.2 8,-463.2 151,-463.2 151,-314.2 8,-314.2"/>
<polygon fill="#f5f5f5" stroke="transparent" points="8.5,-439.7 8.5,-462.7 151.5,-462.7 151.5,-439.7 8.5,-439.7"/>
<polygon fill="none" stroke="#000000" points="8.5,-439.7 8.5,-462.7 151.5,-462.7 151.5,-439.7 8.5,-439.7"/>
<text text-anchor="start" x="13.5" y="-448.3" font-family="Helvetica,sans-Serif" font-weight="bold" font-size="11.00" fill="#000000">reference_data</text>
<text text-anchor="start" x="116.5437" y="-447.8" font-family="Helvetica,sans-Serif" font-size="11.00" fill="#000000">[table]</text>
<polygon fill="none" stroke="#000000" points="8.5,-417.7 8.5,-439.7 151.5,-439.7 151.5,-417.7 8.5,-417.7"/>
<image xlink:href="../../images/primaryKeys.png" width="11px" height="12px" preserveAspectRatio="xMinYMin meet" x="13.5" y="-434.7"/>
<text text-anchor="start" x="28.5" y="-424.8" font-family="Helvetica,sans-Serif" font-size="11.00" fill="#000000">id</text>
<polygon fill="#ffffff" stroke="transparent" points="8.5,-395.7 8.5,-417.7 151.5,-417.7 151.5,-395.7 8.5,-395.7"/>
<polygon fill="none" stroke="#000000" points="8.5,-395.7 8.5,-417.7 151.5,-417.7 151.5,-395.7 8.5,-395.7"/>
<image xlink:href="../../images/foreignKeys.png" width="11px" height="12px" preserveAspectRatio="xMinYMin meet" x="13.5" y="-412.7"/>
<text text-anchor="start" x="28.5" y="-402.8" font-family="Helvetica,sans-Serif" font-size="11.00" fill="#000000">domain</text>
<polygon fill="#ffffff" stroke="transparent" points="8.5,-373.7 8.5,-395.7 151.5,-395.7 151.5,-373.7 8.5,-373.7"/>
<polygon fill="none" stroke="#000000" points="8.5,-373.7 8.5,-395.7 151.5,-395.7 151.5,-373.7 8.5,-373.7"/>
<text text-anchor="start" x="28.5" y="-380.8" font-family="Helvetica,sans-Serif" font-size="11.00" fill="#000000">code</text>
<polygon fill="#ffffff" stroke="transparent" points="8.5,-351.7 8.5,-373.7 151.5,-373.7 151.5,-351.7 8.5,-351.7"/>
<polygon fill="none" stroke="#000000" points="8.5,-351.7 8.5,-373.7 151.5,-373.7 151.5,-351.7 8.5,-351.7"/>
<text text-anchor="start" x="28.5" y="-358.8" font-family="Helvetica,sans-Serif" font-size="11.00" fill="#000000">sequence_number</text>
<polygon fill="none" stroke="#000000" points="8.5,-332.7 8.5,-351.7 151.5,-351.7 151.5,-332.7 8.5,-332.7"/>
<text text-anchor="start" x="11.5" y="-338.8" font-family="Helvetica,sans-Serif" font-size="11.00" fill="#000000">...</text>
<polygon fill="#ffffff" stroke="transparent" points="8.5,-313.7 8.5,-332.7 70.5,-332.7 70.5,-313.7 8.5,-313.7"/>
<polygon fill="none" stroke="#000000" points="8.5,-313.7 8.5,-332.7 70.5,-332.7 70.5,-313.7 8.5,-313.7"/>
<text text-anchor="start" x="11.5" y="-319.8" font-family="Helvetica,sans-Serif" font-size="11.00" fill="#000000">&lt; 1</text>
<polygon fill="#ffffff" stroke="transparent" points="70.5,-313.7 70.5,-332.7 103.5,-332.7 103.5,-313.7 70.5,-313.7"/>
<polygon fill="none" stroke="#000000" points="70.5,-313.7 70.5,-332.7 103.5,-332.7 103.5,-313.7 70.5,-313.7"/>
<text text-anchor="start" x="94.3862" y="-319.8" font-family="Helvetica,sans-Serif" font-size="11.00" fill="#000000"> &#160;</text>
<polygon fill="#ffffff" stroke="transparent" points="103.5,-313.7 103.5,-332.7 151.5,-332.7 151.5,-313.7 103.5,-313.7"/>
<polygon fill="none" stroke="#000000" points="103.5,-313.7 103.5,-332.7 151.5,-332.7 151.5,-313.7 103.5,-313.7"/>
<text text-anchor="start" x="126.7904" y="-319.8" font-family="Helvetica,sans-Serif" font-size="11.00" fill="#000000">11 &gt;</text>
</a>
</g>
</g>
<!-- temporary_absence_authorisation&#45;&gt;reference_data -->
<g id="edge1" class="edge">
<title>temporary_absence_authorisation:w&#45;&gt;reference_data:e</title>
<path fill="none" stroke="#000000" d="M188.3489,-447.641C175.7843,-441.596 170.4,-428.7 151.5,-428.7"/>
<polygon fill="#000000" stroke="#000000" points="194.6806,-449.0097 201.7393,-454.2187 198.5903,-449.8548 202.5,-450.7 202.5,-450.7 202.5,-450.7 198.5903,-449.8548 203.2607,-447.1813 194.6806,-449.0097 194.6806,-449.0097"/>
<ellipse fill="none" stroke="#000000" cx="191.5528" cy="-448.3335" rx="3.2" ry="3.2"/>
</g>
<!-- temporary_absence_authorisation&#45;&gt;reference_data -->
<g id="edge2" class="edge">
<title>temporary_absence_authorisation:w&#45;&gt;reference_data:e</title>
<path fill="none" stroke="#000000" d="M188.4107,-467.9912C174.5669,-456.6404 175.3557,-428.7 151.5,-428.7"/>
<polygon fill="#000000" stroke="#000000" points="194.9125,-470.1642 201.3589,-476.1144 198.7063,-471.4321 202.5,-472.7 202.5,-472.7 202.5,-472.7 198.7063,-471.4321 203.6411,-469.2856 194.9125,-470.1642 194.9125,-470.1642"/>
<ellipse fill="none" stroke="#000000" cx="191.8775" cy="-469.1498" rx="3.2" ry="3.2"/>
</g>
<!-- temporary_absence_authorisation&#45;&gt;reference_data -->
<g id="edge3" class="edge">
<title>temporary_absence_authorisation:w&#45;&gt;reference_data:e</title>
<path fill="none" stroke="#000000" d="M188.5846,-489.9534C171.402,-474.8202 182.4886,-428.7 151.5,-428.7"/>
<polygon fill="#000000" stroke="#000000" points="194.9284,-492.1173 201.3378,-498.1072 198.7142,-493.4086 202.5,-494.7 202.5,-494.7 202.5,-494.7 198.7142,-493.4086 203.6622,-491.2928 194.9284,-492.1173 194.9284,-492.1173"/>
<ellipse fill="none" stroke="#000000" cx="191.8997" cy="-491.0842" rx="3.2" ry="3.2"/>
</g>
<!-- temporary_absence_authorisation&#45;&gt;reference_data -->
<g id="edge4" class="edge">
<title>temporary_absence_authorisation:w&#45;&gt;reference_data:e</title>
<path fill="none" stroke="#000000" d="M188.3489,-409.759C175.7843,-415.804 170.4,-428.7 151.5,-428.7"/>
<polygon fill="#000000" stroke="#000000" points="194.6806,-408.3903 203.2607,-410.2187 198.5903,-407.5452 202.5,-406.7 202.5,-406.7 202.5,-406.7 198.5903,-407.5452 201.7393,-403.1813 194.6806,-408.3903 194.6806,-408.3903"/>
<ellipse fill="none" stroke="#000000" cx="191.5528" cy="-409.0665" rx="3.2" ry="3.2"/>
</g>
<!-- temporary_absence_occurrence -->
<g id="node3" class="node">
<title>temporary_absence_occurrence</title>
<g id="a_node3"><a xlink:href="../../tables/temporary_absence_occurrence.html" xlink:title="temporary_absence_occurrence" target="_top">
<polygon fill="#ffffff" stroke="transparent" points="602,-38.2 602,-275.2 854,-275.2 854,-38.2 602,-38.2"/>
<polygon fill="#f5f5f5" stroke="transparent" points="602,-251.7 602,-274.7 854,-274.7 854,-251.7 602,-251.7"/>
<polygon fill="none" stroke="#000000" points="602,-251.7 602,-274.7 854,-274.7 854,-251.7 602,-251.7"/>
<text text-anchor="start" x="607" y="-260.3" font-family="Helvetica,sans-Serif" font-weight="bold" font-size="11.00" fill="#000000">temporary_absence_occurrence</text>
<text text-anchor="start" x="819.5219" y="-259.8" font-family="Helvetica,sans-Serif" font-size="11.00" fill="#000000">[table]</text>
<polygon fill="none" stroke="#000000" points="602,-229.7 602,-251.7 854,-251.7 854,-229.7 602,-229.7"/>
<image xlink:href="../../images/primaryKeys.png" width="11px" height="12px" preserveAspectRatio="xMinYMin meet" x="607" y="-246.7"/>
<text text-anchor="start" x="631" y="-236.8" font-family="Helvetica,sans-Serif" font-size="11.00" fill="#000000">id</text>
<polygon fill="#ffffff" stroke="transparent" points="602,-207.7 602,-229.7 854,-229.7 854,-207.7 602,-207.7"/>
<polygon fill="none" stroke="#000000" points="602,-207.7 602,-229.7 854,-229.7 854,-207.7 602,-207.7"/>
<text text-anchor="start" x="631" y="-214.8" font-family="Helvetica,sans-Serif" font-size="11.00" fill="#000000">person_identifier</text>
<polygon fill="#ffffff" stroke="transparent" points="602,-185.7 602,-207.7 854,-207.7 854,-185.7 602,-185.7"/>
<polygon fill="none" stroke="#000000" points="602,-185.7 602,-207.7 854,-207.7 854,-185.7 602,-185.7"/>
<image xlink:href="../../images/foreignKeys.png" width="11px" height="12px" preserveAspectRatio="xMinYMin meet" x="607" y="-202.7"/>
<text text-anchor="start" x="631" y="-192.8" font-family="Helvetica,sans-Serif" font-size="11.00" fill="#000000">authorisation_id</text>
<polygon fill="#ffffff" stroke="transparent" points="602,-163.7 602,-185.7 854,-185.7 854,-163.7 602,-163.7"/>
<polygon fill="none" stroke="#000000" points="602,-163.7 602,-185.7 854,-185.7 854,-163.7 602,-163.7"/>
<text text-anchor="start" x="631" y="-170.8" font-family="Helvetica,sans-Serif" font-size="11.00" fill="#000000">release_at</text>
<polygon fill="#ffffff" stroke="transparent" points="602,-141.7 602,-163.7 854,-163.7 854,-141.7 602,-141.7"/>
<polygon fill="none" stroke="#000000" points="602,-141.7 602,-163.7 854,-163.7 854,-141.7 602,-141.7"/>
<text text-anchor="start" x="631" y="-148.8" font-family="Helvetica,sans-Serif" font-size="11.00" fill="#000000">return_by</text>
<polygon fill="none" stroke="#000000" points="602,-119.7 602,-141.7 854,-141.7 854,-119.7 602,-119.7"/>
<image xlink:href="../../images/foreignKeys.png" width="11px" height="12px" preserveAspectRatio="xMinYMin meet" x="607" y="-136.7"/>
<text text-anchor="start" x="631" y="-126.8" font-family="Helvetica,sans-Serif" font-size="11.00" fill="#000000">accompanied_by_id</text>
<polygon fill="none" stroke="#000000" points="602,-97.7 602,-119.7 854,-119.7 854,-97.7 602,-97.7"/>
<image xlink:href="../../images/foreignKeys.png" width="11px" height="12px" preserveAspectRatio="xMinYMin meet" x="607" y="-114.7"/>
<text text-anchor="start" x="631" y="-104.8" font-family="Helvetica,sans-Serif" font-size="11.00" fill="#000000">transport_id</text>
<polygon fill="#ffffff" stroke="transparent" points="602,-75.7 602,-97.7 854,-97.7 854,-75.7 602,-75.7"/>
<polygon fill="none" stroke="#000000" points="602,-75.7 602,-97.7 854,-97.7 854,-75.7 602,-75.7"/>
<text text-anchor="start" x="631" y="-82.8" font-family="Helvetica,sans-Serif" font-size="11.00" fill="#000000">legacy_id</text>
<polygon fill="none" stroke="#000000" points="602,-56.7 602,-75.7 854,-75.7 854,-56.7 602,-56.7"/>
<text text-anchor="start" x="605" y="-62.8" font-family="Helvetica,sans-Serif" font-size="11.00" fill="#000000">...</text>
<polygon fill="#ffffff" stroke="transparent" points="602,-37.7 602,-56.7 726,-56.7 726,-37.7 602,-37.7"/>
<polygon fill="none" stroke="#000000" points="602,-37.7 602,-56.7 726,-56.7 726,-37.7 602,-37.7"/>
<text text-anchor="start" x="605" y="-43.8" font-family="Helvetica,sans-Serif" font-size="11.00" fill="#000000">&lt; 3</text>
<polygon fill="#ffffff" stroke="transparent" points="726,-37.7 726,-56.7 790,-56.7 790,-37.7 726,-37.7"/>
<polygon fill="none" stroke="#000000" points="726,-37.7 726,-56.7 790,-56.7 790,-37.7 726,-37.7"/>
<text text-anchor="start" x="780.8862" y="-43.8" font-family="Helvetica,sans-Serif" font-size="11.00" fill="#000000"> &#160;</text>
<polygon fill="#ffffff" stroke="transparent" points="790,-37.7 790,-56.7 854,-56.7 854,-37.7 790,-37.7"/>
<polygon fill="none" stroke="#000000" points="790,-37.7 790,-56.7 854,-56.7 854,-37.7 790,-37.7"/>
<text text-anchor="start" x="844.8862" y="-43.8" font-family="Helvetica,sans-Serif" font-size="11.00" fill="#000000"> &#160;</text>
</a>
</g>
</g>
<!-- temporary_absence_occurrence&#45;&gt;temporary_absence_authorisation -->
<g id="edge6" class="edge">
<title>temporary_absence_occurrence:w&#45;&gt;temporary_absence_authorisation:e</title>
<path fill="none" stroke="#000000" d="M588.1271,-201.035C529.9894,-243.4422 632.602,-582.7 551.5,-582.7"/>
<polygon fill="#000000" stroke="#000000" points="594.3641,-199.0861 603.0737,-200.1362 598.1821,-197.893 602,-196.7 602,-196.7 602,-196.7 598.1821,-197.893 600.9263,-193.2638 594.3641,-199.0861 594.3641,-199.0861"/>
<ellipse fill="none" stroke="#000000" cx="591.3097" cy="-200.0405" rx="3.2" ry="3.2"/>
</g>
<!-- temporary_absence_occurrence&#45;&gt;reference_data -->
<g id="edge5" class="edge">
<title>temporary_absence_occurrence:w&#45;&gt;reference_data:e</title>
<path fill="none" stroke="#000000" d="M587.3813,-130.4388C508.9997,-128.3781 223.4244,-115.54 192,-143.7 144.3599,-186.3911 215.4696,-428.7 151.5,-428.7"/>
<polygon fill="#000000" stroke="#000000" points="594.0013,-130.5571 601.9357,-134.2994 598.0006,-130.6285 602,-130.7 602,-130.7 602,-130.7 598.0006,-130.6285 602.0643,-127.1006 594.0013,-130.5571 594.0013,-130.5571"/>
<ellipse fill="none" stroke="#000000" cx="590.8018" cy="-130.4999" rx="3.2" ry="3.2"/>
</g>
<!-- temporary_absence_occurrence&#45;&gt;reference_data -->
<g id="edge7" class="edge">
<title>temporary_absence_occurrence:w&#45;&gt;reference_data:e</title>
<path fill="none" stroke="#000000" d="M587.5006,-108.4737C414.6456,-103.0847 323.317,-4.3544 192,-123.7 141.4019,-169.6854 219.8727,-428.7 151.5,-428.7"/>
<polygon fill="#000000" stroke="#000000" points="594.001,-108.5751 601.9438,-112.2996 598.0005,-108.6375 602,-108.7 602,-108.7 602,-108.7 598.0005,-108.6375 602.0562,-105.1004 594.001,-108.5751 594.001,-108.5751"/>
<ellipse fill="none" stroke="#000000" cx="590.8014" cy="-108.5251" rx="3.2" ry="3.2"/>
</g>
</g>
</svg>
