<?xml version="1.0" encoding="UTF-8" standalone="no"?>
<!DOCTYPE svg PUBLIC "-//W3C//DTD SVG 1.1//EN"
 "http://www.w3.org/Graphics/SVG/1.1/DTD/svg11.dtd">
<!-- Generated by graphviz version 2.40.1 (20161225.0304)
 -->
<!-- Title: oneDegreeRelationshipsDiagram Pages: 1 -->
<svg width="585pt" height="536pt"
 viewBox="0.00 0.00 585.00 536.20" xmlns="http://www.w3.org/2000/svg" xmlns:xlink="http://www.w3.org/1999/xlink">
<g id="graph0" class="graph" transform="scale(1 1) rotate(0) translate(4 532.2)">
<title>oneDegreeRelationshipsDiagram</title>
<polygon fill="#ffffff" stroke="transparent" points="-4,4 -4,-532.2 581,-532.2 581,4 -4,4"/>
<text text-anchor="middle" x="72.4936" y="-7.3" font-family="Helvetica,sans-Serif" font-size="11.00" fill="#000000">Generated by SchemaSpy</text>
<!-- temporary_absence_occurrence_audit -->
<g id="node1" class="node">
<title>temporary_absence_occurrence_audit</title>
<g id="a_node1"><a xlink:href="../../tables/temporary_absence_occurrence_audit.html" xlink:title="temporary_absence_occurrence_audit" target="_top">
<polygon fill="#ffffff" stroke="transparent" points="191,-38.2 191,-524.2 569,-524.2 569,-38.2 191,-38.2"/>
<polygon fill="#f5f5f5" stroke="transparent" points="193,-499.2 193,-522.2 567,-522.2 567,-499.2 193,-499.2"/>
<polygon fill="none" stroke="#000000" points="193,-499.2 193,-522.2 567,-522.2 567,-499.2 193,-499.2"/>
<text text-anchor="start" x="198" y="-507.8" font-family="Helvetica,sans-Serif" font-weight="bold" font-size="11.00" fill="#000000">temporary_absence_occurrence_audit</text>
<text text-anchor="start" x="532.0437" y="-507.3" font-family="Helvetica,sans-Serif" font-size="11.00" fill="#000000">[table]</text>
<polygon fill="none" stroke="#000000" points="193,-477.2 193,-499.2 468,-499.2 468,-477.2 193,-477.2"/>
<image xlink:href="../../images/primaryKeys.png" width="11px" height="12px" preserveAspectRatio="xMinYMin meet" x="198" y="-494.2"/>
<text text-anchor="start" x="213" y="-484.3" font-family="Helvetica,sans-Serif" font-size="11.00" fill="#000000">rev_id</text>
<polygon fill="none" stroke="#000000" points="468,-477.2 468,-499.2 567,-499.2 567,-477.2 468,-477.2"/>
<text text-anchor="start" x="471" y="-484.9" font-family="Helvetica,sans-Serif" font-size="11.00" fill="#000000">int8[19]</text>
<polygon fill="none" stroke="#000000" points="193,-455.2 193,-477.2 468,-477.2 468,-455.2 193,-455.2"/>
<text text-anchor="start" x="213" y="-462.3" font-family="Helvetica,sans-Serif" font-size="11.00" fill="#000000">rev_type</text>
<polygon fill="none" stroke="#000000" points="468,-455.2 468,-477.2 567,-477.2 567,-455.2 468,-455.2"/>
<text text-anchor="start" x="471" y="-462.9" font-family="Helvetica,sans-Serif" font-size="11.00" fill="#000000">int2[5]</text>
<polygon fill="none" stroke="#000000" points="193,-433.2 193,-455.2 468,-455.2 468,-433.2 193,-433.2"/>
<image xlink:href="../../images/primaryKeys.png" width="11px" height="12px" preserveAspectRatio="xMinYMin meet" x="198" y="-450.2"/>
<text text-anchor="start" x="213" y="-440.3" font-family="Helvetica,sans-Serif" font-size="11.00" fill="#000000">id</text>
<polygon fill="none" stroke="#000000" points="468,-433.2 468,-455.2 567,-455.2 567,-433.2 468,-433.2"/>
<text text-anchor="start" x="471" y="-440.9" font-family="Helvetica,sans-Serif" font-size="11.00" fill="#000000">uuid[2147483647]</text>
<polygon fill="none" stroke="#000000" points="193,-411.2 193,-433.2 468,-433.2 468,-411.2 193,-411.2"/>
<text text-anchor="start" x="213" y="-418.3" font-family="Helvetica,sans-Serif" font-size="11.00" fill="#000000">authorisation_id</text>
<polygon fill="none" stroke="#000000" points="468,-411.2 468,-433.2 567,-433.2 567,-411.2 468,-411.2"/>
<text text-anchor="start" x="471" y="-418.9" font-family="Helvetica,sans-Serif" font-size="11.00" fill="#000000">uuid[2147483647]</text>
<polygon fill="none" stroke="#000000" points="193,-389.2 193,-411.2 468,-411.2 468,-389.2 193,-389.2"/>
<text text-anchor="start" x="213" y="-396.3" font-family="Helvetica,sans-Serif" font-size="11.00" fill="#000000">start</text>
<polygon fill="none" stroke="#000000" points="468,-389.2 468,-411.2 567,-411.2 567,-389.2 468,-389.2"/>
<text text-anchor="start" x="471" y="-396.9" font-family="Helvetica,sans-Serif" font-size="11.00" fill="#000000">timestamp[29,6]</text>
<polygon fill="none" stroke="#000000" points="193,-367.2 193,-389.2 468,-389.2 468,-367.2 193,-367.2"/>
<text text-anchor="start" x="213" y="-374.3" font-family="Helvetica,sans-Serif" font-size="11.00" fill="#000000">end</text>
<polygon fill="none" stroke="#000000" points="468,-367.2 468,-389.2 567,-389.2 567,-367.2 468,-367.2"/>
<text text-anchor="start" x="471" y="-374.9" font-family="Helvetica,sans-Serif" font-size="11.00" fill="#000000">timestamp[29,6]</text>
<polygon fill="none" stroke="#000000" points="193,-345.2 193,-367.2 468,-367.2 468,-345.2 193,-345.2"/>
<text text-anchor="start" x="213" y="-352.3" font-family="Helvetica,sans-Serif" font-size="11.00" fill="#000000">accompanied_by_id</text>
<polygon fill="none" stroke="#000000" points="468,-345.2 468,-367.2 567,-367.2 567,-345.2 468,-345.2"/>
<text text-anchor="start" x="471" y="-352.9" font-family="Helvetica,sans-Serif" font-size="11.00" fill="#000000">int8[19]</text>
<polygon fill="none" stroke="#000000" points="193,-323.2 193,-345.2 468,-345.2 468,-323.2 193,-323.2"/>
<text text-anchor="start" x="213" y="-330.3" font-family="Helvetica,sans-Serif" font-size="11.00" fill="#000000">transport_id</text>
<polygon fill="none" stroke="#000000" points="468,-323.2 468,-345.2 567,-345.2 567,-323.2 468,-323.2"/>
<text text-anchor="start" x="471" y="-330.9" font-family="Helvetica,sans-Serif" font-size="11.00" fill="#000000">int8[19]</text>
<polygon fill="none" stroke="#000000" points="193,-301.2 193,-323.2 468,-323.2 468,-301.2 193,-301.2"/>
<text text-anchor="start" x="213" y="-308.3" font-family="Helvetica,sans-Serif" font-size="11.00" fill="#000000">contact_information</text>
<polygon fill="none" stroke="#000000" points="468,-301.2 468,-323.2 567,-323.2 567,-301.2 468,-301.2"/>
<text text-anchor="start" x="471" y="-308.9" font-family="Helvetica,sans-Serif" font-size="11.00" fill="#000000">text[2147483647]</text>
<polygon fill="none" stroke="#000000" points="193,-279.2 193,-301.2 468,-301.2 468,-279.2 193,-279.2"/>
<text text-anchor="start" x="213" y="-286.3" font-family="Helvetica,sans-Serif" font-size="11.00" fill="#000000">comments</text>
<polygon fill="none" stroke="#000000" points="468,-279.2 468,-301.2 567,-301.2 567,-279.2 468,-279.2"/>
<text text-anchor="start" x="471" y="-286.9" font-family="Helvetica,sans-Serif" font-size="11.00" fill="#000000">text[2147483647]</text>
<polygon fill="none" stroke="#000000" points="193,-257.2 193,-279.2 468,-279.2 468,-257.2 193,-257.2"/>
<text text-anchor="start" x="213" y="-264.3" font-family="Helvetica,sans-Serif" font-size="11.00" fill="#000000">legacy_id</text>
<polygon fill="none" stroke="#000000" points="468,-257.2 468,-279.2 567,-279.2 567,-257.2 468,-257.2"/>
<text text-anchor="start" x="471" y="-264.9" font-family="Helvetica,sans-Serif" font-size="11.00" fill="#000000">int8[19]</text>
<polygon fill="none" stroke="#000000" points="193,-235.2 193,-257.2 468,-257.2 468,-235.2 193,-235.2"/>
<text text-anchor="start" x="213" y="-242.3" font-family="Helvetica,sans-Serif" font-size="11.00" fill="#000000">location</text>
<polygon fill="none" stroke="#000000" points="468,-235.2 468,-257.2 567,-257.2 567,-235.2 468,-235.2"/>
<text text-anchor="start" x="470.7258" y="-242.9" font-family="Helvetica,sans-Serif" font-size="11.00" fill="#000000">jsonb[2147483647]</text>
<polygon fill="none" stroke="#000000" points="193,-213.2 193,-235.2 468,-235.2 468,-213.2 193,-213.2"/>
<text text-anchor="start" x="213" y="-220.3" font-family="Helvetica,sans-Serif" font-size="11.00" fill="#000000">schedule_reference</text>
<polygon fill="none" stroke="#000000" points="468,-213.2 468,-235.2 567,-235.2 567,-213.2 468,-213.2"/>
<text text-anchor="start" x="470.7258" y="-220.9" font-family="Helvetica,sans-Serif" font-size="11.00" fill="#000000">jsonb[2147483647]</text>
<polygon fill="none" stroke="#000000" points="193,-191.2 193,-213.2 468,-213.2 468,-191.2 193,-191.2"/>
<text text-anchor="start" x="213" y="-198.3" font-family="Helvetica,sans-Serif" font-size="11.00" fill="#000000">absence_type_id</text>
<polygon fill="none" stroke="#000000" points="468,-191.2 468,-213.2 567,-213.2 567,-191.2 468,-191.2"/>
<text text-anchor="start" x="471" y="-198.9" font-family="Helvetica,sans-Serif" font-size="11.00" fill="#000000">int8[19]</text>
<polygon fill="none" stroke="#000000" points="193,-169.2 193,-191.2 468,-191.2 468,-169.2 193,-169.2"/>
<text text-anchor="start" x="213" y="-176.3" font-family="Helvetica,sans-Serif" font-size="11.00" fill="#000000">absence_sub_type_id</text>
<polygon fill="none" stroke="#000000" points="468,-169.2 468,-191.2 567,-191.2 567,-169.2 468,-169.2"/>
<text text-anchor="start" x="471" y="-176.9" font-family="Helvetica,sans-Serif" font-size="11.00" fill="#000000">int8[19]</text>
<polygon fill="none" stroke="#000000" points="193,-147.2 193,-169.2 468,-169.2 468,-147.2 193,-147.2"/>
<text text-anchor="start" x="213" y="-154.3" font-family="Helvetica,sans-Serif" font-size="11.00" fill="#000000">absence_reason_category_id</text>
<polygon fill="none" stroke="#000000" points="468,-147.2 468,-169.2 567,-169.2 567,-147.2 468,-147.2"/>
<text text-anchor="start" x="471" y="-154.9" font-family="Helvetica,sans-Serif" font-size="11.00" fill="#000000">int8[19]</text>
<polygon fill="none" stroke="#000000" points="193,-125.2 193,-147.2 468,-147.2 468,-125.2 193,-125.2"/>
<text text-anchor="start" x="213" y="-132.3" font-family="Helvetica,sans-Serif" font-size="11.00" fill="#000000">absence_reason_id</text>
<polygon fill="none" stroke="#000000" points="468,-125.2 468,-147.2 567,-147.2 567,-125.2 468,-125.2"/>
<text text-anchor="start" x="471" y="-132.9" font-family="Helvetica,sans-Serif" font-size="11.00" fill="#000000">int8[19]</text>
<polygon fill="none" stroke="#000000" points="193,-103.2 193,-125.2 468,-125.2 468,-103.2 193,-103.2"/>
<text text-anchor="start" x="213" y="-110.3" font-family="Helvetica,sans-Serif" font-size="11.00" fill="#000000">reason_path</text>
<polygon fill="none" stroke="#000000" points="468,-103.2 468,-125.2 567,-125.2 567,-103.2 468,-103.2"/>
<text text-anchor="start" x="470.7258" y="-110.9" font-family="Helvetica,sans-Serif" font-size="11.00" fill="#000000">jsonb[2147483647]</text>
<polygon fill="none" stroke="#000000" points="193,-81.2 193,-103.2 468,-103.2 468,-81.2 193,-81.2"/>
<text text-anchor="start" x="213" y="-88.3" font-family="Helvetica,sans-Serif" font-size="11.00" fill="#000000">status_id</text>
<polygon fill="none" stroke="#000000" points="468,-81.2 468,-103.2 567,-103.2 567,-81.2 468,-81.2"/>
<text text-anchor="start" x="471" y="-88.9" font-family="Helvetica,sans-Serif" font-size="11.00" fill="#000000">int8[19]</text>
<polygon fill="none" stroke="#000000" points="193,-59.2 193,-81.2 468,-81.2 468,-59.2 193,-59.2"/>
<text text-anchor="start" x="213" y="-66.3" font-family="Helvetica,sans-Serif" font-size="11.00" fill="#000000">version</text>
<polygon fill="none" stroke="#000000" points="468,-59.2 468,-81.2 567,-81.2 567,-59.2 468,-59.2"/>
<text text-anchor="start" x="471" y="-66.9" font-family="Helvetica,sans-Serif" font-size="11.00" fill="#000000">int4[10]</text>
<polygon fill="#ffffff" stroke="transparent" points="193,-40.2 193,-59.2 335,-59.2 335,-40.2 193,-40.2"/>
<polygon fill="none" stroke="#000000" points="193,-40.2 193,-59.2 335,-59.2 335,-40.2 193,-40.2"/>
<text text-anchor="start" x="196" y="-46.3" font-family="Helvetica,sans-Serif" font-size="11.00" fill="#000000">&lt; 1</text>
<polygon fill="#ffffff" stroke="transparent" points="335,-40.2 335,-59.2 468,-59.2 468,-40.2 335,-40.2"/>
<polygon fill="none" stroke="#000000" points="335,-40.2 335,-59.2 468,-59.2 468,-40.2 335,-40.2"/>
<text text-anchor="start" x="458.8862" y="-46.3" font-family="Helvetica,sans-Serif" font-size="11.00" fill="#000000"> &#160;</text>
<polygon fill="#ffffff" stroke="transparent" points="468,-40.2 468,-59.2 567,-59.2 567,-40.2 468,-40.2"/>
<polygon fill="none" stroke="#000000" points="468,-40.2 468,-59.2 567,-59.2 567,-40.2 468,-40.2"/>
<text text-anchor="start" x="548.4053" y="-46.3" font-family="Helvetica,sans-Serif" font-size="11.00" fill="#000000">0 &gt;</text>
<polygon fill="none" stroke="#000000" stroke-width="2" points="192,-39.2 192,-523.2 568,-523.2 568,-39.2 192,-39.2"/>
</a>
</g>
</g>
<!-- audit_revision -->
<g id="node2" class="node">
<title>audit_revision</title>
<g id="a_node2"><a xlink:href="../../tables/audit_revision.html" xlink:title="audit_revision" target="_top">
<polygon fill="#ffffff" stroke="transparent" points="8,-439.7 8,-522.7 142,-522.7 142,-439.7 8,-439.7"/>
<polygon fill="#f5f5f5" stroke="transparent" points="8,-499.2 8,-522.2 142,-522.2 142,-499.2 8,-499.2"/>
<polygon fill="none" stroke="#000000" points="8,-499.2 8,-522.2 142,-522.2 142,-499.2 8,-499.2"/>
<text text-anchor="start" x="13" y="-507.8" font-family="Helvetica,sans-Serif" font-weight="bold" font-size="11.00" fill="#000000">audit_revision</text>
<text text-anchor="start" x="107.5219" y="-507.3" font-family="Helvetica,sans-Serif" font-size="11.00" fill="#000000">[table]</text>
<polygon fill="none" stroke="#000000" points="8,-477.2 8,-499.2 142,-499.2 142,-477.2 8,-477.2"/>
<image xlink:href="../../images/primaryKeys.png" width="11px" height="12px" preserveAspectRatio="xMinYMin meet" x="13" y="-494.2"/>
<text text-anchor="start" x="28" y="-484.3" font-family="Helvetica,sans-Serif" font-size="11.00" fill="#000000">id</text>
<polygon fill="none" stroke="#000000" points="8,-458.2 8,-477.2 142,-477.2 142,-458.2 8,-458.2"/>
<text text-anchor="start" x="11" y="-464.3" font-family="Helvetica,sans-Serif" font-size="11.00" fill="#000000">...</text>
<polygon fill="#ffffff" stroke="transparent" points="8,-439.2 8,-458.2 64,-458.2 64,-439.2 8,-439.2"/>
<polygon fill="none" stroke="#000000" points="8,-439.2 8,-458.2 64,-458.2 64,-439.2 8,-439.2"/>
<text text-anchor="start" x="11" y="-445.3" font-family="Helvetica,sans-Serif" font-size="11.00" fill="#000000"> &#160;</text>
<polygon fill="#ffffff" stroke="transparent" points="64,-439.2 64,-458.2 98,-458.2 98,-439.2 64,-439.2"/>
<polygon fill="none" stroke="#000000" points="64,-439.2 64,-458.2 98,-458.2 98,-439.2 64,-439.2"/>
<text text-anchor="start" x="88.8862" y="-445.3" font-family="Helvetica,sans-Serif" font-size="11.00" fill="#000000"> &#160;</text>
<polygon fill="#ffffff" stroke="transparent" points="98,-439.2 98,-458.2 142,-458.2 142,-439.2 98,-439.2"/>
<polygon fill="none" stroke="#000000" points="98,-439.2 98,-458.2 142,-458.2 142,-439.2 98,-439.2"/>
<text text-anchor="start" x="123.4053" y="-445.3" font-family="Helvetica,sans-Serif" font-size="11.00" fill="#000000">7 &gt;</text>
</a>
</g>
</g>
<!-- temporary_absence_occurrence_audit&#45;&gt;audit_revision -->
<g id="edge1" class="edge">
<title>temporary_absence_occurrence_audit:w&#45;&gt;audit_revision:e</title>
<path fill="none" stroke="#000000" d="M178.276,-488.2C166.2815,-488.2 158.8229,-488.2 142,-488.2"/>
<polygon fill="#000000" stroke="#000000" points="185,-488.2001 193,-491.8 189,-488.2 193,-488.2 193,-488.2 193,-488.2 189,-488.2 193,-484.6 185,-488.2001 185,-488.2001"/>
<ellipse fill="none" stroke="#000000" cx="181.8" cy="-488.2001" rx="3.2" ry="3.2"/>
</g>
</g>
</svg>
