<?xml version="1.0" encoding="UTF-8" standalone="no"?>
<!DOCTYPE svg PUBLIC "-//W3C//DTD SVG 1.1//EN"
 "http://www.w3.org/Graphics/SVG/1.1/DTD/svg11.dtd">
<!-- Generated by graphviz version 2.40.1 (20161225.0304)
 -->
<!-- Title: twoDegreesRelationshipsDiagram Pages: 1 -->
<svg width="1410pt" height="773pt"
 viewBox="0.00 0.00 1410.00 772.70" xmlns="http://www.w3.org/2000/svg" xmlns:xlink="http://www.w3.org/1999/xlink">
<g id="graph0" class="graph" transform="scale(1 1) rotate(0) translate(4 768.7)">
<title>twoDegreesRelationshipsDiagram</title>
<polygon fill="#ffffff" stroke="transparent" points="-4,4 -4,-768.7 1406,-768.7 1406,4 -4,4"/>
<text text-anchor="middle" x="72.4936" y="-7.3" font-family="Helvetica,sans-Serif" font-size="11.00" fill="#000000">Generated by SchemaSpy</text>
<!-- reference_data -->
<g id="node1" class="node">
<title>reference_data</title>
<g id="a_node1"><a xlink:href="../../tables/reference_data.html" xlink:title="reference_data" target="_top">
<polygon fill="#ffffff" stroke="transparent" points="253,-487.7 253,-548.7 393,-548.7 393,-487.7 253,-487.7"/>
<polygon fill="#f5f5f5" stroke="transparent" points="253,-525.2 253,-548.2 393,-548.2 393,-525.2 253,-525.2"/>
<polygon fill="none" stroke="#000000" points="253,-525.2 253,-548.2 393,-548.2 393,-525.2 253,-525.2"/>
<text text-anchor="start" x="258" y="-533.8" font-family="Helvetica,sans-Serif" font-weight="bold" font-size="11.00" fill="#000000">reference_data</text>
<text text-anchor="start" x="358.5219" y="-533.3" font-family="Helvetica,sans-Serif" font-size="11.00" fill="#000000">[table]</text>
<polygon fill="none" stroke="#000000" points="253,-506.2 253,-525.2 393,-525.2 393,-506.2 253,-506.2"/>
<text text-anchor="start" x="256" y="-512.3" font-family="Helvetica,sans-Serif" font-size="11.00" fill="#000000">...</text>
<polygon fill="#ffffff" stroke="transparent" points="253,-487.2 253,-506.2 314,-506.2 314,-487.2 253,-487.2"/>
<polygon fill="none" stroke="#000000" points="253,-487.2 253,-506.2 314,-506.2 314,-487.2 253,-487.2"/>
<text text-anchor="start" x="256" y="-493.3" font-family="Helvetica,sans-Serif" font-size="11.00" fill="#000000">&lt; 1</text>
<polygon fill="#ffffff" stroke="transparent" points="314,-487.2 314,-506.2 346,-506.2 346,-487.2 314,-487.2"/>
<polygon fill="none" stroke="#000000" points="314,-487.2 314,-506.2 346,-506.2 346,-487.2 314,-487.2"/>
<text text-anchor="start" x="336.8862" y="-493.3" font-family="Helvetica,sans-Serif" font-size="11.00" fill="#000000"> &#160;</text>
<polygon fill="#ffffff" stroke="transparent" points="346,-487.2 346,-506.2 393,-506.2 393,-487.2 346,-487.2"/>
<polygon fill="none" stroke="#000000" points="346,-487.2 346,-506.2 393,-506.2 393,-487.2 346,-487.2"/>
<text text-anchor="start" x="368.2904" y="-493.3" font-family="Helvetica,sans-Serif" font-size="11.00" fill="#000000">18 &gt;</text>
</a>
</g>
</g>
<!-- reference_data_domain -->
<g id="node2" class="node">
<title>reference_data_domain</title>
<g id="a_node2"><a xlink:href="../../tables/reference_data_domain.html" xlink:title="reference_data_domain" target="_top">
<polygon fill="#ffffff" stroke="transparent" points="8,-556.7 8,-617.7 204,-617.7 204,-556.7 8,-556.7"/>
<polygon fill="#f5f5f5" stroke="transparent" points="8,-594.2 8,-617.2 204,-617.2 204,-594.2 8,-594.2"/>
<polygon fill="none" stroke="#000000" points="8,-594.2 8,-617.2 204,-617.2 204,-594.2 8,-594.2"/>
<text text-anchor="start" x="13" y="-602.8" font-family="Helvetica,sans-Serif" font-weight="bold" font-size="11.00" fill="#000000">reference_data_domain</text>
<text text-anchor="start" x="169.5219" y="-602.3" font-family="Helvetica,sans-Serif" font-size="11.00" fill="#000000">[table]</text>
<polygon fill="none" stroke="#000000" points="8,-575.2 8,-594.2 204,-594.2 204,-575.2 8,-575.2"/>
<text text-anchor="start" x="11" y="-581.3" font-family="Helvetica,sans-Serif" font-size="11.00" fill="#000000">...</text>
<polygon fill="#ffffff" stroke="transparent" points="8,-556.2 8,-575.2 95,-575.2 95,-556.2 8,-556.2"/>
<polygon fill="none" stroke="#000000" points="8,-556.2 8,-575.2 95,-575.2 95,-556.2 8,-556.2"/>
<text text-anchor="start" x="11" y="-562.3" font-family="Helvetica,sans-Serif" font-size="11.00" fill="#000000"> &#160;</text>
<polygon fill="#ffffff" stroke="transparent" points="95,-556.2 95,-575.2 145,-575.2 145,-556.2 95,-556.2"/>
<polygon fill="none" stroke="#000000" points="95,-556.2 95,-575.2 145,-575.2 145,-556.2 95,-556.2"/>
<text text-anchor="start" x="135.8862" y="-562.3" font-family="Helvetica,sans-Serif" font-size="11.00" fill="#000000"> &#160;</text>
<polygon fill="#ffffff" stroke="transparent" points="145,-556.2 145,-575.2 204,-575.2 204,-556.2 145,-556.2"/>
<polygon fill="none" stroke="#000000" points="145,-556.2 145,-575.2 204,-575.2 204,-556.2 145,-556.2"/>
<text text-anchor="start" x="185.4053" y="-562.3" font-family="Helvetica,sans-Serif" font-size="11.00" fill="#000000">2 &gt;</text>
</a>
</g>
</g>
<!-- reference_data&#45;&gt;reference_data_domain -->
<g id="edge1" class="edge">
<title>reference_data:w&#45;&gt;reference_data_domain:e</title>
<path fill="none" stroke="#000000" d="M271.8997,-561.0411C251.978,-573.6806 228.145,-584.2 204,-584.2"/>
<polygon fill="#000000" stroke="#000000" points="277.4654,-557.2501 286.1039,-555.7217 280.7713,-554.9982 284.0773,-552.7464 284.0773,-552.7464 284.0773,-552.7464 280.7713,-554.9982 282.0506,-549.771 277.4654,-557.2501 277.4654,-557.2501"/>
<ellipse fill="none" stroke="#000000" cx="274.8206" cy="-559.0515" rx="3.2" ry="3.2"/>
</g>
<!-- reference_data_domain_link -->
<g id="node3" class="node">
<title>reference_data_domain_link</title>
<g id="a_node3"><a xlink:href="../../tables/reference_data_domain_link.html" xlink:title="reference_data_domain_link" target="_top">
<polygon fill="#ffffff" stroke="transparent" points="505,-699.7 505,-760.7 732,-760.7 732,-699.7 505,-699.7"/>
<polygon fill="#f5f5f5" stroke="transparent" points="505.5,-737.2 505.5,-760.2 732.5,-760.2 732.5,-737.2 505.5,-737.2"/>
<polygon fill="none" stroke="#000000" points="505.5,-737.2 505.5,-760.2 732.5,-760.2 732.5,-737.2 505.5,-737.2"/>
<text text-anchor="start" x="510.5" y="-745.8" font-family="Helvetica,sans-Serif" font-weight="bold" font-size="11.00" fill="#000000">reference_data_domain_link</text>
<text text-anchor="start" x="698.0219" y="-745.3" font-family="Helvetica,sans-Serif" font-size="11.00" fill="#000000">[table]</text>
<polygon fill="none" stroke="#000000" points="505.5,-718.2 505.5,-737.2 732.5,-737.2 732.5,-718.2 505.5,-718.2"/>
<text text-anchor="start" x="508.5" y="-724.3" font-family="Helvetica,sans-Serif" font-size="11.00" fill="#000000">...</text>
<polygon fill="#ffffff" stroke="transparent" points="505.5,-699.2 505.5,-718.2 617.5,-718.2 617.5,-699.2 505.5,-699.2"/>
<polygon fill="none" stroke="#000000" points="505.5,-699.2 505.5,-718.2 617.5,-718.2 617.5,-699.2 505.5,-699.2"/>
<text text-anchor="start" x="508.5" y="-705.3" font-family="Helvetica,sans-Serif" font-size="11.00" fill="#000000">&lt; 2</text>
<polygon fill="#ffffff" stroke="transparent" points="617.5,-699.2 617.5,-718.2 674.5,-718.2 674.5,-699.2 617.5,-699.2"/>
<polygon fill="none" stroke="#000000" points="617.5,-699.2 617.5,-718.2 674.5,-718.2 674.5,-699.2 617.5,-699.2"/>
<text text-anchor="start" x="665.3862" y="-705.3" font-family="Helvetica,sans-Serif" font-size="11.00" fill="#000000"> &#160;</text>
<polygon fill="#ffffff" stroke="transparent" points="674.5,-699.2 674.5,-718.2 732.5,-718.2 732.5,-699.2 674.5,-699.2"/>
<polygon fill="none" stroke="#000000" points="674.5,-699.2 674.5,-718.2 732.5,-718.2 732.5,-699.2 674.5,-699.2"/>
<text text-anchor="start" x="723.3862" y="-705.3" font-family="Helvetica,sans-Serif" font-size="11.00" fill="#000000"> &#160;</text>
</a>
</g>
</g>
<!-- reference_data_domain_link&#45;&gt;reference_data -->
<g id="edge3" class="edge">
<title>reference_data_domain_link:w&#45;&gt;reference_data:e</title>
<path fill="none" stroke="#000000" d="M494.9624,-726.7468C467.4234,-724.1946 457.7339,-710.9484 434,-689.2 431.048,-686.495 376.7822,-602.1333 345.2392,-552.9348"/>
<polygon fill="#000000" stroke="#000000" points="504.8726,-723.1693 504.5288,-731.1619 502.9303,-731.0932 503.2741,-723.1006 504.8726,-723.1693"/>
<polyline fill="none" stroke="#000000" points="505.5,-727.2 501.5037,-727.0281 "/>
<ellipse fill="none" stroke="#000000" cx="498.3066" cy="-726.8906" rx="3.2" ry="3.2"/>
</g>
<!-- reference_data_domain_link&#45;&gt;reference_data_domain -->
<g id="edge2" class="edge">
<title>reference_data_domain_link:w&#45;&gt;reference_data_domain:e</title>
<path fill="none" stroke="#000000" d="M490.7838,-726.7102C356.6904,-717.5917 347.239,-584.2 204,-584.2"/>
<polygon fill="#000000" stroke="#000000" points="497.5044,-726.9339 505.3802,-730.798 501.5022,-727.0669 505.5,-727.2 505.5,-727.2 505.5,-727.2 501.5022,-727.0669 505.6198,-723.602 497.5044,-726.9339 497.5044,-726.9339"/>
<ellipse fill="none" stroke="#000000" cx="494.3062" cy="-726.8274" rx="3.2" ry="3.2"/>
</g>
<!-- reference_data_link -->
<g id="node4" class="node">
<title>reference_data_link</title>
<g id="a_node4"><a xlink:href="../../tables/reference_data_link.html" xlink:title="reference_data_link" target="_top">
<polygon fill="#ffffff" stroke="transparent" points="533,-617.7 533,-678.7 704,-678.7 704,-617.7 533,-617.7"/>
<polygon fill="#f5f5f5" stroke="transparent" points="533.5,-655.2 533.5,-678.2 704.5,-678.2 704.5,-655.2 533.5,-655.2"/>
<polygon fill="none" stroke="#000000" points="533.5,-655.2 533.5,-678.2 704.5,-678.2 704.5,-655.2 533.5,-655.2"/>
<text text-anchor="start" x="538.5" y="-663.8" font-family="Helvetica,sans-Serif" font-weight="bold" font-size="11.00" fill="#000000">reference_data_link</text>
<text text-anchor="start" x="670.0219" y="-663.3" font-family="Helvetica,sans-Serif" font-size="11.00" fill="#000000">[table]</text>
<polygon fill="none" stroke="#000000" points="533.5,-636.2 533.5,-655.2 704.5,-655.2 704.5,-636.2 533.5,-636.2"/>
<text text-anchor="start" x="536.5" y="-642.3" font-family="Helvetica,sans-Serif" font-size="11.00" fill="#000000">...</text>
<polygon fill="#ffffff" stroke="transparent" points="533.5,-617.2 533.5,-636.2 617.5,-636.2 617.5,-617.2 533.5,-617.2"/>
<polygon fill="none" stroke="#000000" points="533.5,-617.2 533.5,-636.2 617.5,-636.2 617.5,-617.2 533.5,-617.2"/>
<text text-anchor="start" x="536.5" y="-623.3" font-family="Helvetica,sans-Serif" font-size="11.00" fill="#000000">&lt; 2</text>
<polygon fill="#ffffff" stroke="transparent" points="617.5,-617.2 617.5,-636.2 660.5,-636.2 660.5,-617.2 617.5,-617.2"/>
<polygon fill="none" stroke="#000000" points="617.5,-617.2 617.5,-636.2 660.5,-636.2 660.5,-617.2 617.5,-617.2"/>
<text text-anchor="start" x="651.3862" y="-623.3" font-family="Helvetica,sans-Serif" font-size="11.00" fill="#000000"> &#160;</text>
<polygon fill="#ffffff" stroke="transparent" points="660.5,-617.2 660.5,-636.2 704.5,-636.2 704.5,-617.2 660.5,-617.2"/>
<polygon fill="none" stroke="#000000" points="660.5,-617.2 660.5,-636.2 704.5,-636.2 704.5,-617.2 660.5,-617.2"/>
<text text-anchor="start" x="695.3862" y="-623.3" font-family="Helvetica,sans-Serif" font-size="11.00" fill="#000000"> &#160;</text>
</a>
</g>
</g>
<!-- reference_data_link&#45;&gt;reference_data -->
<g id="edge4" class="edge">
<title>reference_data_link:w&#45;&gt;reference_data:e</title>
<path fill="none" stroke="#000000" d="M518.9709,-643.7028C455.2178,-634.1339 395.6788,-586.5965 359.3335,-552.8118"/>
<polygon fill="#000000" stroke="#000000" points="525.5421,-644.3799 533.131,-648.781 529.5211,-644.79 533.5,-645.2 533.5,-645.2 533.5,-645.2 529.5211,-644.79 533.869,-641.619 525.5421,-644.3799 525.5421,-644.3799"/>
<ellipse fill="none" stroke="#000000" cx="522.359" cy="-644.0519" rx="3.2" ry="3.2"/>
</g>
<!-- reference_data_link&#45;&gt;reference_data -->
<g id="edge5" class="edge">
<title>reference_data_link:w&#45;&gt;reference_data:e</title>
<path fill="none" stroke="#000000" d="M518.6783,-645.3487C449.5339,-642.3859 385.3826,-589.5414 350.4526,-552.8394"/>
<polygon fill="#000000" stroke="#000000" points="525.5004,-645.2803 533.5361,-648.7998 529.5002,-645.2401 533.5,-645.2 533.5,-645.2 533.5,-645.2 529.5002,-645.2401 533.4639,-641.6002 525.5004,-645.2803 525.5004,-645.2803"/>
<ellipse fill="none" stroke="#000000" cx="522.3006" cy="-645.3124" rx="3.2" ry="3.2"/>
</g>
<!-- temporary_absence_authorisation -->
<g id="node5" class="node">
<title>temporary_absence_authorisation</title>
<g id="a_node5"><a xlink:href="../../tables/temporary_absence_authorisation.html" xlink:title="temporary_absence_authorisation" target="_top">
<polygon fill="#ffffff" stroke="transparent" points="442,-38.2 442,-458.2 795,-458.2 795,-38.2 442,-38.2"/>
<polygon fill="#f5f5f5" stroke="transparent" points="444.5,-433.2 444.5,-456.2 793.5,-456.2 793.5,-433.2 444.5,-433.2"/>
<polygon fill="none" stroke="#000000" points="444.5,-433.2 444.5,-456.2 793.5,-456.2 793.5,-433.2 444.5,-433.2"/>
<text text-anchor="start" x="449.5" y="-441.8" font-family="Helvetica,sans-Serif" font-weight="bold" font-size="11.00" fill="#000000">temporary_absence_authorisation</text>
<text text-anchor="start" x="758.5437" y="-441.3" font-family="Helvetica,sans-Serif" font-size="11.00" fill="#000000">[table]</text>
<polygon fill="none" stroke="#000000" points="444.5,-411.2 444.5,-433.2 694.5,-433.2 694.5,-411.2 444.5,-411.2"/>
<image xlink:href="../../images/primaryKeys.png" width="11px" height="12px" preserveAspectRatio="xMinYMin meet" x="449.5" y="-428.2"/>
<text text-anchor="start" x="464.5" y="-418.3" font-family="Helvetica,sans-Serif" font-size="11.00" fill="#000000">id</text>
<polygon fill="none" stroke="#000000" points="694.5,-411.2 694.5,-433.2 793.5,-433.2 793.5,-411.2 694.5,-411.2"/>
<text text-anchor="start" x="697.5" y="-418.9" font-family="Helvetica,sans-Serif" font-size="11.00" fill="#000000">uuid[2147483647]</text>
<polygon fill="none" stroke="#000000" points="444.5,-389.2 444.5,-411.2 694.5,-411.2 694.5,-389.2 444.5,-389.2"/>
<text text-anchor="start" x="464.5" y="-396.3" font-family="Helvetica,sans-Serif" font-size="11.00" fill="#000000">version</text>
<polygon fill="none" stroke="#000000" points="694.5,-389.2 694.5,-411.2 793.5,-411.2 793.5,-389.2 694.5,-389.2"/>
<text text-anchor="start" x="697.5" y="-396.9" font-family="Helvetica,sans-Serif" font-size="11.00" fill="#000000">int4[10]</text>
<polygon fill="#ffffff" stroke="transparent" points="444.5,-367.2 444.5,-389.2 694.5,-389.2 694.5,-367.2 444.5,-367.2"/>
<polygon fill="none" stroke="#000000" points="444.5,-367.2 444.5,-389.2 694.5,-389.2 694.5,-367.2 444.5,-367.2"/>
<text text-anchor="start" x="464.5" y="-374.3" font-family="Helvetica,sans-Serif" font-size="11.00" fill="#000000">person_identifier</text>
<polygon fill="none" stroke="#000000" points="694.5,-367.2 694.5,-389.2 793.5,-389.2 793.5,-367.2 694.5,-367.2"/>
<text text-anchor="start" x="697.5" y="-374.9" font-family="Helvetica,sans-Serif" font-size="11.00" fill="#000000">varchar[10]</text>
<polygon fill="#ffffff" stroke="transparent" points="444.5,-345.2 444.5,-367.2 694.5,-367.2 694.5,-345.2 444.5,-345.2"/>
<polygon fill="none" stroke="#000000" points="444.5,-345.2 444.5,-367.2 694.5,-367.2 694.5,-345.2 444.5,-345.2"/>
<text text-anchor="start" x="464.5" y="-352.3" font-family="Helvetica,sans-Serif" font-size="11.00" fill="#000000">prison_code</text>
<polygon fill="none" stroke="#000000" points="694.5,-345.2 694.5,-367.2 793.5,-367.2 793.5,-345.2 694.5,-345.2"/>
<text text-anchor="start" x="697.5" y="-352.9" font-family="Helvetica,sans-Serif" font-size="11.00" fill="#000000">varchar[6]</text>
<polygon fill="none" stroke="#000000" points="444.5,-323.2 444.5,-345.2 694.5,-345.2 694.5,-323.2 444.5,-323.2"/>
<image xlink:href="../../images/foreignKeys.png" width="11px" height="12px" preserveAspectRatio="xMinYMin meet" x="449.5" y="-340.2"/>
<text text-anchor="start" x="464.5" y="-330.3" font-family="Helvetica,sans-Serif" font-size="11.00" fill="#000000">absence_type_id</text>
<polygon fill="none" stroke="#000000" points="694.5,-323.2 694.5,-345.2 793.5,-345.2 793.5,-323.2 694.5,-323.2"/>
<text text-anchor="start" x="697.5" y="-330.9" font-family="Helvetica,sans-Serif" font-size="11.00" fill="#000000">int8[19]</text>
<polygon fill="none" stroke="#000000" points="444.5,-301.2 444.5,-323.2 694.5,-323.2 694.5,-301.2 444.5,-301.2"/>
<image xlink:href="../../images/foreignKeys.png" width="11px" height="12px" preserveAspectRatio="xMinYMin meet" x="449.5" y="-318.2"/>
<text text-anchor="start" x="464.5" y="-308.3" font-family="Helvetica,sans-Serif" font-size="11.00" fill="#000000">absence_sub_type_id</text>
<polygon fill="none" stroke="#000000" points="694.5,-301.2 694.5,-323.2 793.5,-323.2 793.5,-301.2 694.5,-301.2"/>
<text text-anchor="start" x="697.5" y="-308.9" font-family="Helvetica,sans-Serif" font-size="11.00" fill="#000000">int8[19]</text>
<polygon fill="none" stroke="#000000" points="444.5,-279.2 444.5,-301.2 694.5,-301.2 694.5,-279.2 444.5,-279.2"/>
<image xlink:href="../../images/foreignKeys.png" width="11px" height="12px" preserveAspectRatio="xMinYMin meet" x="449.5" y="-296.2"/>
<text text-anchor="start" x="464.5" y="-286.3" font-family="Helvetica,sans-Serif" font-size="11.00" fill="#000000">absence_reason_id</text>
<polygon fill="none" stroke="#000000" points="694.5,-279.2 694.5,-301.2 793.5,-301.2 793.5,-279.2 694.5,-279.2"/>
<text text-anchor="start" x="697.5" y="-286.9" font-family="Helvetica,sans-Serif" font-size="11.00" fill="#000000">int8[19]</text>
<polygon fill="none" stroke="#000000" points="444.5,-257.2 444.5,-279.2 694.5,-279.2 694.5,-257.2 444.5,-257.2"/>
<text text-anchor="start" x="464.5" y="-264.3" font-family="Helvetica,sans-Serif" font-size="11.00" fill="#000000">repeat</text>
<polygon fill="none" stroke="#000000" points="694.5,-257.2 694.5,-279.2 793.5,-279.2 793.5,-257.2 694.5,-257.2"/>
<text text-anchor="start" x="697.5" y="-264.9" font-family="Helvetica,sans-Serif" font-size="11.00" fill="#000000">bool[1]</text>
<polygon fill="none" stroke="#000000" points="444.5,-235.2 444.5,-257.2 694.5,-257.2 694.5,-235.2 444.5,-235.2"/>
<image xlink:href="../../images/foreignKeys.png" width="11px" height="12px" preserveAspectRatio="xMinYMin meet" x="449.5" y="-252.2"/>
<text text-anchor="start" x="464.5" y="-242.3" font-family="Helvetica,sans-Serif" font-size="11.00" fill="#000000">status_id</text>
<polygon fill="none" stroke="#000000" points="694.5,-235.2 694.5,-257.2 793.5,-257.2 793.5,-235.2 694.5,-235.2"/>
<text text-anchor="start" x="697.5" y="-242.9" font-family="Helvetica,sans-Serif" font-size="11.00" fill="#000000">int8[19]</text>
<polygon fill="none" stroke="#000000" points="444.5,-213.2 444.5,-235.2 694.5,-235.2 694.5,-213.2 444.5,-213.2"/>
<text text-anchor="start" x="464.5" y="-220.3" font-family="Helvetica,sans-Serif" font-size="11.00" fill="#000000">notes</text>
<polygon fill="none" stroke="#000000" points="694.5,-213.2 694.5,-235.2 793.5,-235.2 793.5,-213.2 694.5,-213.2"/>
<text text-anchor="start" x="697.5" y="-220.9" font-family="Helvetica,sans-Serif" font-size="11.00" fill="#000000">text[2147483647]</text>
<polygon fill="#ffffff" stroke="transparent" points="444.5,-191.2 444.5,-213.2 694.5,-213.2 694.5,-191.2 444.5,-191.2"/>
<polygon fill="none" stroke="#000000" points="444.5,-191.2 444.5,-213.2 694.5,-213.2 694.5,-191.2 444.5,-191.2"/>
<text text-anchor="start" x="464.5" y="-198.3" font-family="Helvetica,sans-Serif" font-size="11.00" fill="#000000">legacy_id</text>
<polygon fill="none" stroke="#000000" points="694.5,-191.2 694.5,-213.2 793.5,-213.2 793.5,-191.2 694.5,-191.2"/>
<text text-anchor="start" x="697.5" y="-198.9" font-family="Helvetica,sans-Serif" font-size="11.00" fill="#000000">int8[19]</text>
<polygon fill="#ffffff" stroke="transparent" points="444.5,-169.2 444.5,-191.2 694.5,-191.2 694.5,-169.2 444.5,-169.2"/>
<polygon fill="none" stroke="#000000" points="444.5,-169.2 444.5,-191.2 694.5,-191.2 694.5,-169.2 444.5,-169.2"/>
<text text-anchor="start" x="464.5" y="-176.3" font-family="Helvetica,sans-Serif" font-size="11.00" fill="#000000">from_date</text>
<polygon fill="none" stroke="#000000" points="694.5,-169.2 694.5,-191.2 793.5,-191.2 793.5,-169.2 694.5,-169.2"/>
<text text-anchor="start" x="697.5" y="-176.9" font-family="Helvetica,sans-Serif" font-size="11.00" fill="#000000">date[13]</text>
<polygon fill="#ffffff" stroke="transparent" points="444.5,-147.2 444.5,-169.2 694.5,-169.2 694.5,-147.2 444.5,-147.2"/>
<polygon fill="none" stroke="#000000" points="444.5,-147.2 444.5,-169.2 694.5,-169.2 694.5,-147.2 444.5,-147.2"/>
<text text-anchor="start" x="464.5" y="-154.3" font-family="Helvetica,sans-Serif" font-size="11.00" fill="#000000">to_date</text>
<polygon fill="none" stroke="#000000" points="694.5,-147.2 694.5,-169.2 793.5,-169.2 793.5,-147.2 694.5,-147.2"/>
<text text-anchor="start" x="697.5" y="-154.9" font-family="Helvetica,sans-Serif" font-size="11.00" fill="#000000">date[13]</text>
<polygon fill="none" stroke="#000000" points="444.5,-125.2 444.5,-147.2 694.5,-147.2 694.5,-125.2 444.5,-125.2"/>
<text text-anchor="start" x="464.5" y="-132.3" font-family="Helvetica,sans-Serif" font-size="11.00" fill="#000000">schedule</text>
<polygon fill="none" stroke="#000000" points="694.5,-125.2 694.5,-147.2 793.5,-147.2 793.5,-125.2 694.5,-125.2"/>
<text text-anchor="start" x="697.2258" y="-132.9" font-family="Helvetica,sans-Serif" font-size="11.00" fill="#000000">jsonb[2147483647]</text>
<polygon fill="none" stroke="#000000" points="444.5,-103.2 444.5,-125.2 694.5,-125.2 694.5,-103.2 444.5,-103.2"/>
<image xlink:href="../../images/foreignKeys.png" width="11px" height="12px" preserveAspectRatio="xMinYMin meet" x="449.5" y="-120.2"/>
<text text-anchor="start" x="464.5" y="-110.3" font-family="Helvetica,sans-Serif" font-size="11.00" fill="#000000">absence_reason_category_id</text>
<polygon fill="none" stroke="#000000" points="694.5,-103.2 694.5,-125.2 793.5,-125.2 793.5,-103.2 694.5,-103.2"/>
<text text-anchor="start" x="697.5" y="-110.9" font-family="Helvetica,sans-Serif" font-size="11.00" fill="#000000">int8[19]</text>
<polygon fill="none" stroke="#000000" points="444.5,-81.2 444.5,-103.2 694.5,-103.2 694.5,-81.2 444.5,-81.2"/>
<text text-anchor="start" x="464.5" y="-88.3" font-family="Helvetica,sans-Serif" font-size="11.00" fill="#000000">reason_path</text>
<polygon fill="none" stroke="#000000" points="694.5,-81.2 694.5,-103.2 793.5,-103.2 793.5,-81.2 694.5,-81.2"/>
<text text-anchor="start" x="697.2258" y="-88.9" font-family="Helvetica,sans-Serif" font-size="11.00" fill="#000000">jsonb[2147483647]</text>
<polygon fill="none" stroke="#000000" points="444.5,-59.2 444.5,-81.2 694.5,-81.2 694.5,-59.2 444.5,-59.2"/>
<image xlink:href="../../images/foreignKeys.png" width="11px" height="12px" preserveAspectRatio="xMinYMin meet" x="449.5" y="-76.2"/>
<text text-anchor="start" x="464.5" y="-66.3" font-family="Helvetica,sans-Serif" font-size="11.00" fill="#000000">accompanied_by_id</text>
<polygon fill="none" stroke="#000000" points="694.5,-59.2 694.5,-81.2 793.5,-81.2 793.5,-59.2 694.5,-59.2"/>
<text text-anchor="start" x="697.5" y="-66.9" font-family="Helvetica,sans-Serif" font-size="11.00" fill="#000000">int8[19]</text>
<polygon fill="#ffffff" stroke="transparent" points="444.5,-40.2 444.5,-59.2 573.5,-59.2 573.5,-40.2 444.5,-40.2"/>
<polygon fill="none" stroke="#000000" points="444.5,-40.2 444.5,-59.2 573.5,-59.2 573.5,-40.2 444.5,-40.2"/>
<text text-anchor="start" x="447.5" y="-46.3" font-family="Helvetica,sans-Serif" font-size="11.00" fill="#000000">&lt; 6</text>
<polygon fill="#ffffff" stroke="transparent" points="573.5,-40.2 573.5,-59.2 694.5,-59.2 694.5,-40.2 573.5,-40.2"/>
<polygon fill="none" stroke="#000000" points="573.5,-40.2 573.5,-59.2 694.5,-59.2 694.5,-40.2 573.5,-40.2"/>
<text text-anchor="start" x="685.3862" y="-46.3" font-family="Helvetica,sans-Serif" font-size="11.00" fill="#000000"> &#160;</text>
<polygon fill="#ffffff" stroke="transparent" points="694.5,-40.2 694.5,-59.2 793.5,-59.2 793.5,-40.2 694.5,-40.2"/>
<polygon fill="none" stroke="#000000" points="694.5,-40.2 694.5,-59.2 793.5,-59.2 793.5,-40.2 694.5,-40.2"/>
<text text-anchor="start" x="774.9053" y="-46.3" font-family="Helvetica,sans-Serif" font-size="11.00" fill="#000000">1 &gt;</text>
<polygon fill="none" stroke="#000000" stroke-width="2" points="443,-39.2 443,-457.2 794,-457.2 794,-39.2 443,-39.2"/>
</a>
</g>
</g>
<!-- temporary_absence_authorisation&#45;&gt;reference_data -->
<g id="edge6" class="edge">
<title>temporary_absence_authorisation:w&#45;&gt;reference_data:e</title>
<path fill="none" stroke="#000000" d="M430.1941,-117.461C363.5937,-148.4411 334.5856,-391.7259 325.9428,-483.4055"/>
<polygon fill="#000000" stroke="#000000" points="436.7001,-115.978 445.3001,-117.71 440.6,-115.089 444.5,-114.2 444.5,-114.2 444.5,-114.2 440.6,-115.089 443.6999,-110.69 436.7001,-115.978 436.7001,-115.978"/>
<ellipse fill="none" stroke="#000000" cx="433.5801" cy="-116.6892" rx="3.2" ry="3.2"/>
</g>
<!-- temporary_absence_authorisation&#45;&gt;reference_data -->
<g id="edge7" class="edge">
<title>temporary_absence_authorisation:w&#45;&gt;reference_data:e</title>
<path fill="none" stroke="#000000" d="M429.9076,-291.4954C355.0544,-305.1603 332.4191,-423.5267 325.7253,-483.5717"/>
<polygon fill="#000000" stroke="#000000" points="436.5313,-290.9075 444.8184,-293.7859 440.5157,-290.5537 444.5,-290.2 444.5,-290.2 444.5,-290.2 440.5157,-290.5537 444.1816,-286.6141 436.5313,-290.9075 436.5313,-290.9075"/>
<ellipse fill="none" stroke="#000000" cx="433.3439" cy="-291.1904" rx="3.2" ry="3.2"/>
</g>
<!-- temporary_absence_authorisation&#45;&gt;reference_data -->
<g id="edge8" class="edge">
<title>temporary_absence_authorisation:w&#45;&gt;reference_data:e</title>
<path fill="none" stroke="#000000" d="M429.9367,-313.5549C362.3886,-326.4516 336.5725,-428.2703 327.485,-483.2549"/>
<polygon fill="#000000" stroke="#000000" points="436.5344,-312.9412 444.8335,-315.7845 440.5172,-312.5706 444.5,-312.2 444.5,-312.2 444.5,-312.2 440.5172,-312.5706 444.1665,-308.6155 436.5344,-312.9412 436.5344,-312.9412"/>
<ellipse fill="none" stroke="#000000" cx="433.3482" cy="-313.2376" rx="3.2" ry="3.2"/>
</g>
<!-- temporary_absence_authorisation&#45;&gt;reference_data -->
<g id="edge9" class="edge">
<title>temporary_absence_authorisation:w&#45;&gt;reference_data:e</title>
<path fill="none" stroke="#000000" d="M430.132,-335.5769C369.2903,-347.5012 340.9048,-434.0384 329.5112,-483.591"/>
<polygon fill="#000000" stroke="#000000" points="436.5365,-334.9632 444.8434,-337.7836 440.5182,-334.5816 444.5,-334.2 444.5,-334.2 444.5,-334.2 440.5182,-334.5816 444.1566,-330.6164 436.5365,-334.9632 436.5365,-334.9632"/>
<ellipse fill="none" stroke="#000000" cx="433.3511" cy="-335.2685" rx="3.2" ry="3.2"/>
</g>
<!-- temporary_absence_authorisation&#45;&gt;reference_data -->
<g id="edge10" class="edge">
<title>temporary_absence_authorisation:w&#45;&gt;reference_data:e</title>
<path fill="none" stroke="#000000" d="M430.0594,-73.2692C355.8559,-105.5931 331.3492,-384.327 324.9393,-483.419"/>
<polygon fill="#000000" stroke="#000000" points="436.6748,-71.8632 445.2484,-73.7213 440.5874,-71.0316 444.5,-70.2 444.5,-70.2 444.5,-70.2 440.5874,-71.0316 443.7516,-66.6787 436.6748,-71.8632 436.6748,-71.8632"/>
<ellipse fill="none" stroke="#000000" cx="433.5447" cy="-72.5285" rx="3.2" ry="3.2"/>
</g>
<!-- temporary_absence_authorisation&#45;&gt;reference_data -->
<g id="edge11" class="edge">
<title>temporary_absence_authorisation:w&#45;&gt;reference_data:e</title>
<path fill="none" stroke="#000000" d="M430.5282,-250.1477C385.1048,-275.536 346.6742,-416.8782 330.8003,-483.4747"/>
<polygon fill="#000000" stroke="#000000" points="436.8014,-248.3752 445.4789,-249.6644 440.6507,-247.2876 444.5,-246.2 444.5,-246.2 444.5,-246.2 440.6507,-247.2876 443.5211,-242.7356 436.8014,-248.3752 436.8014,-248.3752"/>
<ellipse fill="none" stroke="#000000" cx="433.722" cy="-249.2453" rx="3.2" ry="3.2"/>
</g>
<!-- temporary_absence_movement -->
<g id="node6" class="node">
<title>temporary_absence_movement</title>
<g id="a_node6"><a xlink:href="../../tables/temporary_absence_movement.html" xlink:title="temporary_absence_movement" target="_top">
<polygon fill="#ffffff" stroke="transparent" points="1145,-559.7 1145,-620.7 1394,-620.7 1394,-559.7 1145,-559.7"/>
<polygon fill="#f5f5f5" stroke="transparent" points="1145.5,-597.2 1145.5,-620.2 1394.5,-620.2 1394.5,-597.2 1145.5,-597.2"/>
<polygon fill="none" stroke="#000000" points="1145.5,-597.2 1145.5,-620.2 1394.5,-620.2 1394.5,-597.2 1145.5,-597.2"/>
<text text-anchor="start" x="1150.5" y="-605.8" font-family="Helvetica,sans-Serif" font-weight="bold" font-size="11.00" fill="#000000">temporary_absence_movement</text>
<text text-anchor="start" x="1360.0219" y="-605.3" font-family="Helvetica,sans-Serif" font-size="11.00" fill="#000000">[table]</text>
<polygon fill="none" stroke="#000000" points="1145.5,-578.2 1145.5,-597.2 1394.5,-597.2 1394.5,-578.2 1145.5,-578.2"/>
<text text-anchor="start" x="1148.5" y="-584.3" font-family="Helvetica,sans-Serif" font-size="11.00" fill="#000000">...</text>
<polygon fill="#ffffff" stroke="transparent" points="1145.5,-559.2 1145.5,-578.2 1268.5,-578.2 1268.5,-559.2 1145.5,-559.2"/>
<polygon fill="none" stroke="#000000" points="1145.5,-559.2 1145.5,-578.2 1268.5,-578.2 1268.5,-559.2 1145.5,-559.2"/>
<text text-anchor="start" x="1148.5" y="-565.3" font-family="Helvetica,sans-Serif" font-size="11.00" fill="#000000">&lt; 3</text>
<polygon fill="#ffffff" stroke="transparent" points="1268.5,-559.2 1268.5,-578.2 1331.5,-578.2 1331.5,-559.2 1268.5,-559.2"/>
<polygon fill="none" stroke="#000000" points="1268.5,-559.2 1268.5,-578.2 1331.5,-578.2 1331.5,-559.2 1268.5,-559.2"/>
<text text-anchor="start" x="1322.3862" y="-565.3" font-family="Helvetica,sans-Serif" font-size="11.00" fill="#000000"> &#160;</text>
<polygon fill="#ffffff" stroke="transparent" points="1331.5,-559.2 1331.5,-578.2 1394.5,-578.2 1394.5,-559.2 1331.5,-559.2"/>
<polygon fill="none" stroke="#000000" points="1331.5,-559.2 1331.5,-578.2 1394.5,-578.2 1394.5,-559.2 1331.5,-559.2"/>
<text text-anchor="start" x="1385.3862" y="-565.3" font-family="Helvetica,sans-Serif" font-size="11.00" fill="#000000"> &#160;</text>
</a>
</g>
</g>
<!-- temporary_absence_movement&#45;&gt;reference_data -->
<g id="edge12" class="edge">
<title>temporary_absence_movement:w&#45;&gt;reference_data:e</title>
<path fill="none" stroke="#000000" d="M1130.8365,-586.9546C826.3753,-582.5404 738.4324,-623.9131 434,-558.2 423.0911,-555.8453 411.8939,-552.4657 401.0054,-548.6473"/>
<polygon fill="#000000" stroke="#000000" points="1137.5011,-587.0661 1145.4397,-590.7995 1141.5006,-587.133 1145.5,-587.2 1145.5,-587.2 1145.5,-587.2 1141.5006,-587.133 1145.5603,-583.6005 1137.5011,-587.0661 1137.5011,-587.0661"/>
<ellipse fill="none" stroke="#000000" cx="1134.3016" cy="-587.0125" rx="3.2" ry="3.2"/>
</g>
<!-- temporary_absence_movement&#45;&gt;reference_data -->
<g id="edge13" class="edge">
<title>temporary_absence_movement:w&#45;&gt;reference_data:e</title>
<path fill="none" stroke="#000000" d="M1130.8365,-587.5545C826.3753,-595.5404 738.4324,-636.9131 434,-571.2 415.5466,-567.2168 396.2683,-560.301 379.0545,-552.7147"/>
<polygon fill="#000000" stroke="#000000" points="1137.5023,-587.3934 1145.587,-590.7989 1141.5012,-587.2967 1145.5,-587.2 1145.5,-587.2 1145.5,-587.2 1141.5012,-587.2967 1145.413,-583.6011 1137.5023,-587.3934 1137.5023,-587.3934"/>
<ellipse fill="none" stroke="#000000" cx="1134.3033" cy="-587.4708" rx="3.2" ry="3.2"/>
</g>
<!-- temporary_absence_occurrence -->
<g id="node7" class="node">
<title>temporary_absence_occurrence</title>
<g id="a_node7"><a xlink:href="../../tables/temporary_absence_occurrence.html" xlink:title="temporary_absence_occurrence" target="_top">
<polygon fill="#ffffff" stroke="transparent" points="844,-487.7 844,-548.7 1096,-548.7 1096,-487.7 844,-487.7"/>
<polygon fill="#f5f5f5" stroke="transparent" points="844,-525.2 844,-548.2 1096,-548.2 1096,-525.2 844,-525.2"/>
<polygon fill="none" stroke="#000000" points="844,-525.2 844,-548.2 1096,-548.2 1096,-525.2 844,-525.2"/>
<text text-anchor="start" x="849" y="-533.8" font-family="Helvetica,sans-Serif" font-weight="bold" font-size="11.00" fill="#000000">temporary_absence_occurrence</text>
<text text-anchor="start" x="1061.5219" y="-533.3" font-family="Helvetica,sans-Serif" font-size="11.00" fill="#000000">[table]</text>
<polygon fill="none" stroke="#000000" points="844,-506.2 844,-525.2 1096,-525.2 1096,-506.2 844,-506.2"/>
<text text-anchor="start" x="847" y="-512.3" font-family="Helvetica,sans-Serif" font-size="11.00" fill="#000000">...</text>
<polygon fill="#ffffff" stroke="transparent" points="844,-487.2 844,-506.2 964,-506.2 964,-487.2 844,-487.2"/>
<polygon fill="none" stroke="#000000" points="844,-487.2 844,-506.2 964,-506.2 964,-487.2 844,-487.2"/>
<text text-anchor="start" x="847" y="-493.3" font-family="Helvetica,sans-Serif" font-size="11.00" fill="#000000">&lt; 8</text>
<polygon fill="#ffffff" stroke="transparent" points="964,-487.2 964,-506.2 1025,-506.2 1025,-487.2 964,-487.2"/>
<polygon fill="none" stroke="#000000" points="964,-487.2 964,-506.2 1025,-506.2 1025,-487.2 964,-487.2"/>
<text text-anchor="start" x="1015.8862" y="-493.3" font-family="Helvetica,sans-Serif" font-size="11.00" fill="#000000"> &#160;</text>
<polygon fill="#ffffff" stroke="transparent" points="1025,-487.2 1025,-506.2 1096,-506.2 1096,-487.2 1025,-487.2"/>
<polygon fill="none" stroke="#000000" points="1025,-487.2 1025,-506.2 1096,-506.2 1096,-487.2 1025,-487.2"/>
<text text-anchor="start" x="1077.4053" y="-493.3" font-family="Helvetica,sans-Serif" font-size="11.00" fill="#000000">1 &gt;</text>
</a>
</g>
</g>
<!-- temporary_absence_movement&#45;&gt;temporary_absence_occurrence -->
<g id="edge14" class="edge">
<title>temporary_absence_movement:w&#45;&gt;temporary_absence_occurrence:e</title>
<path fill="none" stroke="#000000" d="M1131.9009,-582.0328C1115.491,-575.6516 1086.4857,-564.2337 1057.515,-552.8011"/>
<polygon fill="#000000" stroke="#000000" points="1138.0217,-584.3584 1144.2213,-590.5653 1141.7608,-585.7792 1145.5,-587.2 1145.5,-587.2 1145.5,-587.2 1141.7608,-585.7792 1146.7787,-583.8347 1138.0217,-584.3584 1138.0217,-584.3584"/>
<ellipse fill="none" stroke="#000000" cx="1135.0303" cy="-583.2218" rx="3.2" ry="3.2"/>
</g>
<!-- temporary_absence_occurrence&#45;&gt;reference_data -->
<g id="edge15" class="edge">
<title>temporary_absence_occurrence:w&#45;&gt;reference_data:e</title>
<path fill="none" stroke="#000000" d="M821.4528,-493.1434C690.5092,-486.1659 504.8698,-487.8959 401.0483,-498.3334"/>
<polygon fill="#000000" stroke="#000000" points="827.954,-493.512 835.7374,-497.5591 831.9476,-493.7384 835.9412,-493.9648 835.9412,-493.9648 835.9412,-493.9648 831.9476,-493.7384 836.145,-490.3706 827.954,-493.512 827.954,-493.512"/>
<ellipse fill="none" stroke="#000000" cx="824.7591" cy="-493.3308" rx="3.2" ry="3.2"/>
</g>
<!-- temporary_absence_occurrence&#45;&gt;reference_data -->
<g id="edge16" class="edge">
<title>temporary_absence_occurrence:w&#45;&gt;reference_data:e</title>
<path fill="none" stroke="#000000" d="M821.4528,-501.4956C690.5092,-496.8439 504.8698,-497.9973 401.0483,-504.9556"/>
<polygon fill="#000000" stroke="#000000" points="827.9469,-501.741 835.8052,-505.6407 831.944,-501.8921 835.9412,-502.0432 835.9412,-502.0432 835.9412,-502.0432 831.944,-501.8921 836.0772,-498.4458 827.9469,-501.741 827.9469,-501.741"/>
<ellipse fill="none" stroke="#000000" cx="824.7492" cy="-501.6201" rx="3.2" ry="3.2"/>
</g>
<!-- temporary_absence_occurrence&#45;&gt;reference_data -->
<g id="edge17" class="edge">
<title>temporary_absence_occurrence:w&#45;&gt;reference_data:e</title>
<path fill="none" stroke="#000000" d="M821.4528,-509.8478C690.5092,-507.522 504.8698,-508.0986 401.0483,-511.5778"/>
<polygon fill="#000000" stroke="#000000" points="827.9426,-509.9704 835.8731,-513.721 831.9419,-510.046 835.9412,-510.1216 835.9412,-510.1216 835.9412,-510.1216 831.9419,-510.046 836.0092,-506.5223 827.9426,-509.9704 827.9426,-509.9704"/>
<ellipse fill="none" stroke="#000000" cx="824.7432" cy="-509.9099" rx="3.2" ry="3.2"/>
</g>
<!-- temporary_absence_occurrence&#45;&gt;reference_data -->
<g id="edge18" class="edge">
<title>temporary_absence_occurrence:w&#45;&gt;reference_data:e</title>
<path fill="none" stroke="#000000" d="M821.4528,-518.2C690.5092,-518.2 504.8698,-518.2 401.0483,-518.2"/>
<polygon fill="#000000" stroke="#000000" points="827.9412,-518.2001 835.9412,-521.8 831.9412,-518.2 835.9412,-518.2 835.9412,-518.2 835.9412,-518.2 831.9412,-518.2 835.9412,-514.6 827.9412,-518.2001 827.9412,-518.2001"/>
<ellipse fill="none" stroke="#000000" cx="824.7412" cy="-518.2001" rx="3.2" ry="3.2"/>
</g>
<!-- temporary_absence_occurrence&#45;&gt;reference_data -->
<g id="edge19" class="edge">
<title>temporary_absence_occurrence:w&#45;&gt;reference_data:e</title>
<path fill="none" stroke="#000000" d="M821.4528,-526.5522C690.5092,-528.878 504.8698,-528.3014 401.0483,-524.8222"/>
<polygon fill="#000000" stroke="#000000" points="827.9426,-526.4296 836.0092,-529.8777 831.9419,-526.354 835.9412,-526.2784 835.9412,-526.2784 835.9412,-526.2784 831.9419,-526.354 835.8731,-522.679 827.9426,-526.4296 827.9426,-526.4296"/>
<ellipse fill="none" stroke="#000000" cx="824.7432" cy="-526.4901" rx="3.2" ry="3.2"/>
</g>
<!-- temporary_absence_occurrence&#45;&gt;reference_data -->
<g id="edge21" class="edge">
<title>temporary_absence_occurrence:w&#45;&gt;reference_data:e</title>
<path fill="none" stroke="#000000" d="M821.4528,-534.9044C690.5092,-539.5561 504.8698,-538.4027 401.0483,-531.4444"/>
<polygon fill="#000000" stroke="#000000" points="827.9469,-534.659 836.0772,-537.9542 831.944,-534.5079 835.9412,-534.3568 835.9412,-534.3568 835.9412,-534.3568 831.944,-534.5079 835.8052,-530.7593 827.9469,-534.659 827.9469,-534.659"/>
<ellipse fill="none" stroke="#000000" cx="824.7492" cy="-534.7799" rx="3.2" ry="3.2"/>
</g>
<!-- temporary_absence_occurrence&#45;&gt;reference_data -->
<g id="edge22" class="edge">
<title>temporary_absence_occurrence:w&#45;&gt;reference_data:e</title>
<path fill="none" stroke="#000000" d="M821.4528,-543.2566C690.5092,-550.2341 504.8698,-548.5041 401.0483,-538.0666"/>
<polygon fill="#000000" stroke="#000000" points="827.954,-542.888 836.145,-546.0294 831.9476,-542.6616 835.9412,-542.4352 835.9412,-542.4352 835.9412,-542.4352 831.9476,-542.6616 835.7374,-538.8409 827.954,-542.888 827.954,-542.888"/>
<ellipse fill="none" stroke="#000000" cx="824.7591" cy="-543.0692" rx="3.2" ry="3.2"/>
</g>
<!-- temporary_absence_occurrence&#45;&gt;temporary_absence_authorisation -->
<g id="edge20" class="edge">
<title>temporary_absence_occurrence:w&#45;&gt;temporary_absence_authorisation:e</title>
<path fill="none" stroke="#000000" d="M920.8209,-474.3438C887.3565,-449.0453 840.7211,-422.2 793.5,-422.2"/>
<polygon fill="#000000" stroke="#000000" points="926.2394,-478.6001 930.3069,-486.3728 929.385,-481.0709 932.5306,-483.5418 932.5306,-483.5418 932.5306,-483.5418 929.385,-481.0709 934.7544,-480.7107 926.2394,-478.6001 926.2394,-478.6001"/>
<ellipse fill="none" stroke="#000000" cx="923.7229" cy="-476.6234" rx="3.2" ry="3.2"/>
</g>
</g>
</svg>
