<?xml version="1.0" encoding="UTF-8" standalone="no"?>
<!DOCTYPE svg PUBLIC "-//W3C//DTD SVG 1.1//EN"
 "http://www.w3.org/Graphics/SVG/1.1/DTD/svg11.dtd">
<!-- Generated by graphviz version 2.40.1 (20161225.0304)
 -->
<!-- Title: twoDegreesRelationshipsDiagram Pages: 1 -->
<svg width="601pt" height="1029pt"
 viewBox="0.00 0.00 601.00 1029.20" xmlns="http://www.w3.org/2000/svg" xmlns:xlink="http://www.w3.org/1999/xlink">
<g id="graph0" class="graph" transform="scale(1 1) rotate(0) translate(4 1025.2)">
<title>twoDegreesRelationshipsDiagram</title>
<polygon fill="#ffffff" stroke="transparent" points="-4,4 -4,-1025.2 597,-1025.2 597,4 -4,4"/>
<text text-anchor="middle" x="72.4936" y="-7.3" font-family="Helvetica,sans-Serif" font-size="11.00" fill="#000000">Generated by SchemaSpy</text>
<!-- hmpps_domain_event_audit -->
<g id="node1" class="node">
<title>hmpps_domain_event_audit</title>
<g id="a_node1"><a xlink:href="../../tables/hmpps_domain_event_audit.html" xlink:title="hmpps_domain_event_audit" target="_top">
<polygon fill="#ffffff" stroke="transparent" points="275.5,-956.2 275.5,-1017.2 500.5,-1017.2 500.5,-956.2 275.5,-956.2"/>
<polygon fill="#f5f5f5" stroke="transparent" points="276,-993.7 276,-1016.7 501,-1016.7 501,-993.7 276,-993.7"/>
<polygon fill="none" stroke="#000000" points="276,-993.7 276,-1016.7 501,-1016.7 501,-993.7 276,-993.7"/>
<text text-anchor="start" x="281" y="-1002.3" font-family="Helvetica,sans-Serif" font-weight="bold" font-size="11.00" fill="#000000">hmpps_domain_event_audit</text>
<text text-anchor="start" x="466.5219" y="-1001.8" font-family="Helvetica,sans-Serif" font-size="11.00" fill="#000000">[table]</text>
<polygon fill="none" stroke="#000000" points="276,-974.7 276,-993.7 501,-993.7 501,-974.7 276,-974.7"/>
<text text-anchor="start" x="279" y="-980.8" font-family="Helvetica,sans-Serif" font-size="11.00" fill="#000000">...</text>
<polygon fill="#ffffff" stroke="transparent" points="276,-955.7 276,-974.7 387,-974.7 387,-955.7 276,-955.7"/>
<polygon fill="none" stroke="#000000" points="276,-955.7 276,-974.7 387,-974.7 387,-955.7 276,-955.7"/>
<text text-anchor="start" x="279" y="-961.8" font-family="Helvetica,sans-Serif" font-size="11.00" fill="#000000">&lt; 1</text>
<polygon fill="#ffffff" stroke="transparent" points="387,-955.7 387,-974.7 444,-974.7 444,-955.7 387,-955.7"/>
<polygon fill="none" stroke="#000000" points="387,-955.7 387,-974.7 444,-974.7 444,-955.7 387,-955.7"/>
<text text-anchor="start" x="434.8862" y="-961.8" font-family="Helvetica,sans-Serif" font-size="11.00" fill="#000000"> &#160;</text>
<polygon fill="#ffffff" stroke="transparent" points="444,-955.7 444,-974.7 501,-974.7 501,-955.7 444,-955.7"/>
<polygon fill="none" stroke="#000000" points="444,-955.7 444,-974.7 501,-974.7 501,-955.7 444,-955.7"/>
<text text-anchor="start" x="491.8862" y="-961.8" font-family="Helvetica,sans-Serif" font-size="11.00" fill="#000000"> &#160;</text>
</a>
</g>
</g>
<!-- audit_revision -->
<g id="node2" class="node">
<title>audit_revision</title>
<g id="a_node2"><a xlink:href="../../tables/audit_revision.html" xlink:title="audit_revision" target="_top">
<polygon fill="#ffffff" stroke="transparent" points="8,-263.2 8,-346.2 142,-346.2 142,-263.2 8,-263.2"/>
<polygon fill="#f5f5f5" stroke="transparent" points="8,-322.7 8,-345.7 142,-345.7 142,-322.7 8,-322.7"/>
<polygon fill="none" stroke="#000000" points="8,-322.7 8,-345.7 142,-345.7 142,-322.7 8,-322.7"/>
<text text-anchor="start" x="13" y="-331.3" font-family="Helvetica,sans-Serif" font-weight="bold" font-size="11.00" fill="#000000">audit_revision</text>
<text text-anchor="start" x="107.5219" y="-330.8" font-family="Helvetica,sans-Serif" font-size="11.00" fill="#000000">[table]</text>
<polygon fill="none" stroke="#000000" points="8,-300.7 8,-322.7 142,-322.7 142,-300.7 8,-300.7"/>
<image xlink:href="../../images/primaryKeys.png" width="11px" height="12px" preserveAspectRatio="xMinYMin meet" x="13" y="-317.7"/>
<text text-anchor="start" x="28" y="-307.8" font-family="Helvetica,sans-Serif" font-size="11.00" fill="#000000">id</text>
<polygon fill="none" stroke="#000000" points="8,-281.7 8,-300.7 142,-300.7 142,-281.7 8,-281.7"/>
<text text-anchor="start" x="11" y="-287.8" font-family="Helvetica,sans-Serif" font-size="11.00" fill="#000000">...</text>
<polygon fill="#ffffff" stroke="transparent" points="8,-262.7 8,-281.7 64,-281.7 64,-262.7 8,-262.7"/>
<polygon fill="none" stroke="#000000" points="8,-262.7 8,-281.7 64,-281.7 64,-262.7 8,-262.7"/>
<text text-anchor="start" x="11" y="-268.8" font-family="Helvetica,sans-Serif" font-size="11.00" fill="#000000"> &#160;</text>
<polygon fill="#ffffff" stroke="transparent" points="64,-262.7 64,-281.7 98,-281.7 98,-262.7 64,-262.7"/>
<polygon fill="none" stroke="#000000" points="64,-262.7 64,-281.7 98,-281.7 98,-262.7 64,-262.7"/>
<text text-anchor="start" x="88.8862" y="-268.8" font-family="Helvetica,sans-Serif" font-size="11.00" fill="#000000"> &#160;</text>
<polygon fill="#ffffff" stroke="transparent" points="98,-262.7 98,-281.7 142,-281.7 142,-262.7 98,-262.7"/>
<polygon fill="none" stroke="#000000" points="98,-262.7 98,-281.7 142,-281.7 142,-262.7 98,-262.7"/>
<text text-anchor="start" x="123.4053" y="-268.8" font-family="Helvetica,sans-Serif" font-size="11.00" fill="#000000">7 &gt;</text>
</a>
</g>
</g>
<!-- hmpps_domain_event_audit&#45;&gt;audit_revision -->
<g id="edge1" class="edge">
<title>hmpps_domain_event_audit:w&#45;&gt;audit_revision:e</title>
<path fill="none" stroke="#000000" d="M261.1824,-983.5749C226.0775,-982.8146 206.0231,-977.6957 183,-945.7 141.7694,-888.4007 212.5916,-311.7 142,-311.7"/>
<polygon fill="#000000" stroke="#000000" points="268.0003,-983.6324 275.9696,-987.2999 272.0001,-983.6662 276,-983.7 276,-983.7 276,-983.7 272.0001,-983.6662 276.0304,-980.1001 268.0003,-983.6324 268.0003,-983.6324"/>
<ellipse fill="none" stroke="#000000" cx="264.8004" cy="-983.6054" rx="3.2" ry="3.2"/>
</g>
<!-- temporary_absence_authorisation_audit -->
<g id="node3" class="node">
<title>temporary_absence_authorisation_audit</title>
<g id="a_node3"><a xlink:href="../../tables/temporary_absence_authorisation_audit.html" xlink:title="temporary_absence_authorisation_audit" target="_top">
<polygon fill="#ffffff" stroke="transparent" points="191,-448.7 191,-934.7 585,-934.7 585,-448.7 191,-448.7"/>
<polygon fill="#f5f5f5" stroke="transparent" points="193,-909.7 193,-932.7 583,-932.7 583,-909.7 193,-909.7"/>
<polygon fill="none" stroke="#000000" points="193,-909.7 193,-932.7 583,-932.7 583,-909.7 193,-909.7"/>
<text text-anchor="start" x="198" y="-918.3" font-family="Helvetica,sans-Serif" font-weight="bold" font-size="11.00" fill="#000000">temporary_absence_authorisation_audit</text>
<text text-anchor="start" x="548.0437" y="-917.8" font-family="Helvetica,sans-Serif" font-size="11.00" fill="#000000">[table]</text>
<polygon fill="none" stroke="#000000" points="193,-887.7 193,-909.7 484,-909.7 484,-887.7 193,-887.7"/>
<image xlink:href="../../images/primaryKeys.png" width="11px" height="12px" preserveAspectRatio="xMinYMin meet" x="198" y="-904.7"/>
<text text-anchor="start" x="213" y="-894.8" font-family="Helvetica,sans-Serif" font-size="11.00" fill="#000000">rev_id</text>
<polygon fill="none" stroke="#000000" points="484,-887.7 484,-909.7 583,-909.7 583,-887.7 484,-887.7"/>
<text text-anchor="start" x="487" y="-895.4" font-family="Helvetica,sans-Serif" font-size="11.00" fill="#000000">int8[19]</text>
<polygon fill="none" stroke="#000000" points="193,-865.7 193,-887.7 484,-887.7 484,-865.7 193,-865.7"/>
<text text-anchor="start" x="213" y="-872.8" font-family="Helvetica,sans-Serif" font-size="11.00" fill="#000000">rev_type</text>
<polygon fill="none" stroke="#000000" points="484,-865.7 484,-887.7 583,-887.7 583,-865.7 484,-865.7"/>
<text text-anchor="start" x="487" y="-873.4" font-family="Helvetica,sans-Serif" font-size="11.00" fill="#000000">int2[5]</text>
<polygon fill="none" stroke="#000000" points="193,-843.7 193,-865.7 484,-865.7 484,-843.7 193,-843.7"/>
<image xlink:href="../../images/primaryKeys.png" width="11px" height="12px" preserveAspectRatio="xMinYMin meet" x="198" y="-860.7"/>
<text text-anchor="start" x="213" y="-850.8" font-family="Helvetica,sans-Serif" font-size="11.00" fill="#000000">id</text>
<polygon fill="none" stroke="#000000" points="484,-843.7 484,-865.7 583,-865.7 583,-843.7 484,-843.7"/>
<text text-anchor="start" x="487" y="-851.4" font-family="Helvetica,sans-Serif" font-size="11.00" fill="#000000">uuid[2147483647]</text>
<polygon fill="none" stroke="#000000" points="193,-821.7 193,-843.7 484,-843.7 484,-821.7 193,-821.7"/>
<image xlink:href="../../images/foreignKeys.png" width="11px" height="12px" preserveAspectRatio="xMinYMin meet" x="198" y="-838.7"/>
<text text-anchor="start" x="213" y="-828.8" font-family="Helvetica,sans-Serif" font-size="11.00" fill="#000000">person_identifier</text>
<polygon fill="none" stroke="#000000" points="484,-821.7 484,-843.7 583,-843.7 583,-821.7 484,-821.7"/>
<text text-anchor="start" x="487" y="-829.4" font-family="Helvetica,sans-Serif" font-size="11.00" fill="#000000">varchar[10]</text>
<polygon fill="none" stroke="#000000" points="193,-799.7 193,-821.7 484,-821.7 484,-799.7 193,-799.7"/>
<text text-anchor="start" x="213" y="-806.8" font-family="Helvetica,sans-Serif" font-size="11.00" fill="#000000">prison_code</text>
<polygon fill="none" stroke="#000000" points="484,-799.7 484,-821.7 583,-821.7 583,-799.7 484,-799.7"/>
<text text-anchor="start" x="487" y="-807.4" font-family="Helvetica,sans-Serif" font-size="11.00" fill="#000000">varchar[6]</text>
<polygon fill="none" stroke="#000000" points="193,-777.7 193,-799.7 484,-799.7 484,-777.7 193,-777.7"/>
<text text-anchor="start" x="213" y="-784.8" font-family="Helvetica,sans-Serif" font-size="11.00" fill="#000000">absence_type_id</text>
<polygon fill="none" stroke="#000000" points="484,-777.7 484,-799.7 583,-799.7 583,-777.7 484,-777.7"/>
<text text-anchor="start" x="487" y="-785.4" font-family="Helvetica,sans-Serif" font-size="11.00" fill="#000000">int8[19]</text>
<polygon fill="none" stroke="#000000" points="193,-755.7 193,-777.7 484,-777.7 484,-755.7 193,-755.7"/>
<text text-anchor="start" x="213" y="-762.8" font-family="Helvetica,sans-Serif" font-size="11.00" fill="#000000">absence_sub_type_id</text>
<polygon fill="none" stroke="#000000" points="484,-755.7 484,-777.7 583,-777.7 583,-755.7 484,-755.7"/>
<text text-anchor="start" x="487" y="-763.4" font-family="Helvetica,sans-Serif" font-size="11.00" fill="#000000">int8[19]</text>
<polygon fill="none" stroke="#000000" points="193,-733.7 193,-755.7 484,-755.7 484,-733.7 193,-733.7"/>
<text text-anchor="start" x="213" y="-740.8" font-family="Helvetica,sans-Serif" font-size="11.00" fill="#000000">absence_reason_id</text>
<polygon fill="none" stroke="#000000" points="484,-733.7 484,-755.7 583,-755.7 583,-733.7 484,-733.7"/>
<text text-anchor="start" x="487" y="-741.4" font-family="Helvetica,sans-Serif" font-size="11.00" fill="#000000">int8[19]</text>
<polygon fill="none" stroke="#000000" points="193,-711.7 193,-733.7 484,-733.7 484,-711.7 193,-711.7"/>
<text text-anchor="start" x="213" y="-718.8" font-family="Helvetica,sans-Serif" font-size="11.00" fill="#000000">repeat</text>
<polygon fill="none" stroke="#000000" points="484,-711.7 484,-733.7 583,-733.7 583,-711.7 484,-711.7"/>
<text text-anchor="start" x="487" y="-719.4" font-family="Helvetica,sans-Serif" font-size="11.00" fill="#000000">bool[1]</text>
<polygon fill="none" stroke="#000000" points="193,-689.7 193,-711.7 484,-711.7 484,-689.7 193,-689.7"/>
<text text-anchor="start" x="213" y="-696.8" font-family="Helvetica,sans-Serif" font-size="11.00" fill="#000000">status_id</text>
<polygon fill="none" stroke="#000000" points="484,-689.7 484,-711.7 583,-711.7 583,-689.7 484,-689.7"/>
<text text-anchor="start" x="487" y="-697.4" font-family="Helvetica,sans-Serif" font-size="11.00" fill="#000000">int8[19]</text>
<polygon fill="none" stroke="#000000" points="193,-667.7 193,-689.7 484,-689.7 484,-667.7 193,-667.7"/>
<text text-anchor="start" x="213" y="-674.8" font-family="Helvetica,sans-Serif" font-size="11.00" fill="#000000">comments</text>
<polygon fill="none" stroke="#000000" points="484,-667.7 484,-689.7 583,-689.7 583,-667.7 484,-667.7"/>
<text text-anchor="start" x="487" y="-675.4" font-family="Helvetica,sans-Serif" font-size="11.00" fill="#000000">text[2147483647]</text>
<polygon fill="none" stroke="#000000" points="193,-645.7 193,-667.7 484,-667.7 484,-645.7 193,-645.7"/>
<text text-anchor="start" x="213" y="-652.8" font-family="Helvetica,sans-Serif" font-size="11.00" fill="#000000">legacy_id</text>
<polygon fill="none" stroke="#000000" points="484,-645.7 484,-667.7 583,-667.7 583,-645.7 484,-645.7"/>
<text text-anchor="start" x="487" y="-653.4" font-family="Helvetica,sans-Serif" font-size="11.00" fill="#000000">int8[19]</text>
<polygon fill="none" stroke="#000000" points="193,-623.7 193,-645.7 484,-645.7 484,-623.7 193,-623.7"/>
<text text-anchor="start" x="213" y="-630.8" font-family="Helvetica,sans-Serif" font-size="11.00" fill="#000000">start</text>
<polygon fill="none" stroke="#000000" points="484,-623.7 484,-645.7 583,-645.7 583,-623.7 484,-623.7"/>
<text text-anchor="start" x="487" y="-631.4" font-family="Helvetica,sans-Serif" font-size="11.00" fill="#000000">date[13]</text>
<polygon fill="none" stroke="#000000" points="193,-601.7 193,-623.7 484,-623.7 484,-601.7 193,-601.7"/>
<text text-anchor="start" x="213" y="-608.8" font-family="Helvetica,sans-Serif" font-size="11.00" fill="#000000">end</text>
<polygon fill="none" stroke="#000000" points="484,-601.7 484,-623.7 583,-623.7 583,-601.7 484,-601.7"/>
<text text-anchor="start" x="487" y="-609.4" font-family="Helvetica,sans-Serif" font-size="11.00" fill="#000000">date[13]</text>
<polygon fill="none" stroke="#000000" points="193,-579.7 193,-601.7 484,-601.7 484,-579.7 193,-579.7"/>
<text text-anchor="start" x="213" y="-586.8" font-family="Helvetica,sans-Serif" font-size="11.00" fill="#000000">schedule</text>
<polygon fill="none" stroke="#000000" points="484,-579.7 484,-601.7 583,-601.7 583,-579.7 484,-579.7"/>
<text text-anchor="start" x="486.7258" y="-587.4" font-family="Helvetica,sans-Serif" font-size="11.00" fill="#000000">jsonb[2147483647]</text>
<polygon fill="none" stroke="#000000" points="193,-557.7 193,-579.7 484,-579.7 484,-557.7 193,-557.7"/>
<text text-anchor="start" x="213" y="-564.8" font-family="Helvetica,sans-Serif" font-size="11.00" fill="#000000">absence_reason_category_id</text>
<polygon fill="none" stroke="#000000" points="484,-557.7 484,-579.7 583,-579.7 583,-557.7 484,-557.7"/>
<text text-anchor="start" x="487" y="-565.4" font-family="Helvetica,sans-Serif" font-size="11.00" fill="#000000">int8[19]</text>
<polygon fill="none" stroke="#000000" points="193,-535.7 193,-557.7 484,-557.7 484,-535.7 193,-535.7"/>
<text text-anchor="start" x="213" y="-542.8" font-family="Helvetica,sans-Serif" font-size="11.00" fill="#000000">reason_path</text>
<polygon fill="none" stroke="#000000" points="484,-535.7 484,-557.7 583,-557.7 583,-535.7 484,-535.7"/>
<text text-anchor="start" x="486.7258" y="-543.4" font-family="Helvetica,sans-Serif" font-size="11.00" fill="#000000">jsonb[2147483647]</text>
<polygon fill="none" stroke="#000000" points="193,-513.7 193,-535.7 484,-535.7 484,-513.7 193,-513.7"/>
<text text-anchor="start" x="213" y="-520.8" font-family="Helvetica,sans-Serif" font-size="11.00" fill="#000000">accompanied_by_id</text>
<polygon fill="none" stroke="#000000" points="484,-513.7 484,-535.7 583,-535.7 583,-513.7 484,-513.7"/>
<text text-anchor="start" x="487" y="-521.4" font-family="Helvetica,sans-Serif" font-size="11.00" fill="#000000">int8[19]</text>
<polygon fill="none" stroke="#000000" points="193,-491.7 193,-513.7 484,-513.7 484,-491.7 193,-491.7"/>
<text text-anchor="start" x="213" y="-498.8" font-family="Helvetica,sans-Serif" font-size="11.00" fill="#000000">transport_id</text>
<polygon fill="none" stroke="#000000" points="484,-491.7 484,-513.7 583,-513.7 583,-491.7 484,-491.7"/>
<text text-anchor="start" x="487" y="-499.4" font-family="Helvetica,sans-Serif" font-size="11.00" fill="#000000">int8[19]</text>
<polygon fill="none" stroke="#000000" points="193,-469.7 193,-491.7 484,-491.7 484,-469.7 193,-469.7"/>
<text text-anchor="start" x="213" y="-476.8" font-family="Helvetica,sans-Serif" font-size="11.00" fill="#000000">version</text>
<polygon fill="none" stroke="#000000" points="484,-469.7 484,-491.7 583,-491.7 583,-469.7 484,-469.7"/>
<text text-anchor="start" x="487" y="-477.4" font-family="Helvetica,sans-Serif" font-size="11.00" fill="#000000">int4[10]</text>
<polygon fill="#ffffff" stroke="transparent" points="193,-450.7 193,-469.7 343,-469.7 343,-450.7 193,-450.7"/>
<polygon fill="none" stroke="#000000" points="193,-450.7 193,-469.7 343,-469.7 343,-450.7 193,-450.7"/>
<text text-anchor="start" x="196" y="-456.8" font-family="Helvetica,sans-Serif" font-size="11.00" fill="#000000">&lt; 1</text>
<polygon fill="#ffffff" stroke="transparent" points="343,-450.7 343,-469.7 484,-469.7 484,-450.7 343,-450.7"/>
<polygon fill="none" stroke="#000000" points="343,-450.7 343,-469.7 484,-469.7 484,-450.7 343,-450.7"/>
<text text-anchor="start" x="474.8862" y="-456.8" font-family="Helvetica,sans-Serif" font-size="11.00" fill="#000000"> &#160;</text>
<polygon fill="#ffffff" stroke="transparent" points="484,-450.7 484,-469.7 583,-469.7 583,-450.7 484,-450.7"/>
<polygon fill="none" stroke="#000000" points="484,-450.7 484,-469.7 583,-469.7 583,-450.7 484,-450.7"/>
<text text-anchor="start" x="564.4053" y="-456.8" font-family="Helvetica,sans-Serif" font-size="11.00" fill="#000000">0 &gt;</text>
<polygon fill="none" stroke="#000000" stroke-width="2" points="192,-449.7 192,-933.7 584,-933.7 584,-449.7 192,-449.7"/>
</a>
</g>
</g>
<!-- temporary_absence_authorisation_audit&#45;&gt;audit_revision -->
<g id="edge2" class="edge">
<title>temporary_absence_authorisation_audit:w&#45;&gt;audit_revision:e</title>
<path fill="none" stroke="#000000" d="M180.975,-889.9466C138.326,-816.9257 202.7368,-311.7 142,-311.7"/>
<polygon fill="#000000" stroke="#000000" points="186.5322,-893.9918 190.8813,-901.6105 189.7661,-896.3459 193,-898.7 193,-898.7 193,-898.7 189.7661,-896.3459 195.1187,-895.7895 186.5322,-893.9918 186.5322,-893.9918"/>
<ellipse fill="none" stroke="#000000" cx="183.945" cy="-892.1085" rx="3.2" ry="3.2"/>
</g>
<!-- temporary_absence_movement_audit -->
<g id="node4" class="node">
<title>temporary_absence_movement_audit</title>
<g id="a_node4"><a xlink:href="../../tables/temporary_absence_movement_audit.html" xlink:title="temporary_absence_movement_audit" target="_top">
<polygon fill="#ffffff" stroke="transparent" points="243,-366.2 243,-427.2 533,-427.2 533,-366.2 243,-366.2"/>
<polygon fill="#f5f5f5" stroke="transparent" points="243,-403.7 243,-426.7 533,-426.7 533,-403.7 243,-403.7"/>
<polygon fill="none" stroke="#000000" points="243,-403.7 243,-426.7 533,-426.7 533,-403.7 243,-403.7"/>
<text text-anchor="start" x="248" y="-412.3" font-family="Helvetica,sans-Serif" font-weight="bold" font-size="11.00" fill="#000000">temporary_absence_movement_audit</text>
<text text-anchor="start" x="498.5219" y="-411.8" font-family="Helvetica,sans-Serif" font-size="11.00" fill="#000000">[table]</text>
<polygon fill="none" stroke="#000000" points="243,-384.7 243,-403.7 533,-403.7 533,-384.7 243,-384.7"/>
<text text-anchor="start" x="246" y="-390.8" font-family="Helvetica,sans-Serif" font-size="11.00" fill="#000000">...</text>
<polygon fill="#ffffff" stroke="transparent" points="243,-365.7 243,-384.7 386,-384.7 386,-365.7 243,-365.7"/>
<polygon fill="none" stroke="#000000" points="243,-365.7 243,-384.7 386,-384.7 386,-365.7 243,-365.7"/>
<text text-anchor="start" x="246" y="-371.8" font-family="Helvetica,sans-Serif" font-size="11.00" fill="#000000">&lt; 1</text>
<polygon fill="#ffffff" stroke="transparent" points="386,-365.7 386,-384.7 459,-384.7 459,-365.7 386,-365.7"/>
<polygon fill="none" stroke="#000000" points="386,-365.7 386,-384.7 459,-384.7 459,-365.7 386,-365.7"/>
<text text-anchor="start" x="449.8862" y="-371.8" font-family="Helvetica,sans-Serif" font-size="11.00" fill="#000000"> &#160;</text>
<polygon fill="#ffffff" stroke="transparent" points="459,-365.7 459,-384.7 533,-384.7 533,-365.7 459,-365.7"/>
<polygon fill="none" stroke="#000000" points="459,-365.7 459,-384.7 533,-384.7 533,-365.7 459,-365.7"/>
<text text-anchor="start" x="523.8862" y="-371.8" font-family="Helvetica,sans-Serif" font-size="11.00" fill="#000000"> &#160;</text>
</a>
</g>
</g>
<!-- temporary_absence_movement_audit&#45;&gt;audit_revision -->
<g id="edge3" class="edge">
<title>temporary_absence_movement_audit:w&#45;&gt;audit_revision:e</title>
<path fill="none" stroke="#000000" d="M228.6379,-392.1303C209.3558,-387.3553 203.0215,-372.313 183,-355.7 162.4296,-338.6316 168.7296,-311.7 142,-311.7"/>
<polygon fill="#000000" stroke="#000000" points="235.0474,-392.8308 242.6088,-397.2787 239.0237,-393.2654 243,-393.7 243,-393.7 243,-393.7 239.0237,-393.2654 243.3912,-390.1213 235.0474,-392.8308 235.0474,-392.8308"/>
<ellipse fill="none" stroke="#000000" cx="231.8663" cy="-392.4831" rx="3.2" ry="3.2"/>
</g>
<!-- temporary_absence_occurrence_audit -->
<g id="node5" class="node">
<title>temporary_absence_occurrence_audit</title>
<g id="a_node5"><a xlink:href="../../tables/temporary_absence_occurrence_audit.html" xlink:title="temporary_absence_occurrence_audit" target="_top">
<polygon fill="#ffffff" stroke="transparent" points="241.5,-284.2 241.5,-345.2 534.5,-345.2 534.5,-284.2 241.5,-284.2"/>
<polygon fill="#f5f5f5" stroke="transparent" points="242,-321.7 242,-344.7 535,-344.7 535,-321.7 242,-321.7"/>
<polygon fill="none" stroke="#000000" points="242,-321.7 242,-344.7 535,-344.7 535,-321.7 242,-321.7"/>
<text text-anchor="start" x="247" y="-330.3" font-family="Helvetica,sans-Serif" font-weight="bold" font-size="11.00" fill="#000000">temporary_absence_occurrence_audit</text>
<text text-anchor="start" x="500.5219" y="-329.8" font-family="Helvetica,sans-Serif" font-size="11.00" fill="#000000">[table]</text>
<polygon fill="none" stroke="#000000" points="242,-302.7 242,-321.7 535,-321.7 535,-302.7 242,-302.7"/>
<text text-anchor="start" x="245" y="-308.8" font-family="Helvetica,sans-Serif" font-size="11.00" fill="#000000">...</text>
<polygon fill="#ffffff" stroke="transparent" points="242,-283.7 242,-302.7 387,-302.7 387,-283.7 242,-283.7"/>
<polygon fill="none" stroke="#000000" points="242,-283.7 242,-302.7 387,-302.7 387,-283.7 242,-283.7"/>
<text text-anchor="start" x="245" y="-289.8" font-family="Helvetica,sans-Serif" font-size="11.00" fill="#000000">&lt; 1</text>
<polygon fill="#ffffff" stroke="transparent" points="387,-283.7 387,-302.7 461,-302.7 461,-283.7 387,-283.7"/>
<polygon fill="none" stroke="#000000" points="387,-283.7 387,-302.7 461,-302.7 461,-283.7 387,-283.7"/>
<text text-anchor="start" x="451.8862" y="-289.8" font-family="Helvetica,sans-Serif" font-size="11.00" fill="#000000"> &#160;</text>
<polygon fill="#ffffff" stroke="transparent" points="461,-283.7 461,-302.7 535,-302.7 535,-283.7 461,-283.7"/>
<polygon fill="none" stroke="#000000" points="461,-283.7 461,-302.7 535,-302.7 535,-283.7 461,-283.7"/>
<text text-anchor="start" x="525.8862" y="-289.8" font-family="Helvetica,sans-Serif" font-size="11.00" fill="#000000"> &#160;</text>
</a>
</g>
</g>
<!-- temporary_absence_occurrence_audit&#45;&gt;audit_revision -->
<g id="edge4" class="edge">
<title>temporary_absence_occurrence_audit:w&#45;&gt;audit_revision:e</title>
<path fill="none" stroke="#000000" d="M227.2022,-311.7C194.3758,-311.7 181.0625,-311.7 142,-311.7"/>
<polygon fill="#000000" stroke="#000000" points="234,-311.7001 242,-315.3 238,-311.7 242,-311.7 242,-311.7 242,-311.7 238,-311.7 242,-308.1 234,-311.7001 234,-311.7001"/>
<ellipse fill="none" stroke="#000000" cx="230.8" cy="-311.7001" rx="3.2" ry="3.2"/>
</g>
<!-- tap.authorisation_audit -->
<g id="node6" class="node">
<title>tap.authorisation_audit</title>
<g id="a_node6"><a xlink:title="tap.authorisation_audit">
<polygon fill="#ffffff" stroke="transparent" points="289,-202.2 289,-263.2 487,-263.2 487,-202.2 289,-202.2"/>
<polygon fill="#f5f5f5" stroke="transparent" points="289,-239.7 289,-262.7 487,-262.7 487,-239.7 289,-239.7"/>
<polygon fill="none" stroke="#000000" points="289,-239.7 289,-262.7 487,-262.7 487,-239.7 289,-239.7"/>
<text text-anchor="start" x="294" y="-248.3" font-family="Helvetica,sans-Serif" font-weight="bold" font-size="11.00" fill="#000000">tap.authorisation_audit</text>
<text text-anchor="start" x="452.5219" y="-247.8" font-family="Helvetica,sans-Serif" font-size="11.00" fill="#000000">[table]</text>
<polygon fill="none" stroke="#000000" points="289,-220.7 289,-239.7 487,-239.7 487,-220.7 289,-220.7"/>
<text text-anchor="start" x="292" y="-226.8" font-family="Helvetica,sans-Serif" font-size="11.00" fill="#000000">...</text>
<polygon fill="#ffffff" stroke="transparent" points="289,-201.7 289,-220.7 373,-220.7 373,-201.7 289,-201.7"/>
<polygon fill="none" stroke="#000000" points="289,-201.7 289,-220.7 373,-220.7 373,-201.7 289,-201.7"/>
<text text-anchor="start" x="292" y="-207.8" font-family="Helvetica,sans-Serif" font-size="11.00" fill="#000000">&lt; 1</text>
<polygon fill="#ffffff" stroke="transparent" points="373,-201.7 373,-220.7 443,-220.7 443,-201.7 373,-201.7"/>
<polygon fill="none" stroke="#000000" points="373,-201.7 373,-220.7 443,-220.7 443,-201.7 373,-201.7"/>
<text text-anchor="start" x="407.6105" y="-207.8" font-family="Helvetica,sans-Serif" font-size="11.00" fill="#000000">0 rows</text>
<polygon fill="#ffffff" stroke="transparent" points="443,-201.7 443,-220.7 487,-220.7 487,-201.7 443,-201.7"/>
<polygon fill="none" stroke="#000000" points="443,-201.7 443,-220.7 487,-220.7 487,-201.7 443,-201.7"/>
<text text-anchor="start" x="477.8862" y="-207.8" font-family="Helvetica,sans-Serif" font-size="11.00" fill="#000000"> &#160;</text>
</a>
</g>
</g>
<!-- tap.authorisation_audit&#45;&gt;audit_revision -->
<g id="edge5" class="edge">
<title>tap.authorisation_audit:w&#45;&gt;audit_revision:e</title>
<path fill="none" stroke="#000000" d="M274.5904,-230.2036C235.2234,-233.1568 221.5716,-248.9525 183,-273.7 162.0888,-287.1166 166.8452,-311.7 142,-311.7"/>
<polygon fill="#000000" stroke="#000000" points="281.0049,-229.9795 289.1258,-233.2978 285.0024,-229.8397 289,-229.7 289,-229.7 289,-229.7 285.0024,-229.8397 288.8742,-226.1022 281.0049,-229.9795 281.0049,-229.9795"/>
<ellipse fill="none" stroke="#000000" cx="277.8068" cy="-230.0912" rx="3.2" ry="3.2"/>
</g>
<!-- tap.movement_audit -->
<g id="node7" class="node">
<title>tap.movement_audit</title>
<g id="a_node7"><a xlink:title="tap.movement_audit">
<polygon fill="#ffffff" stroke="transparent" points="299,-120.2 299,-181.2 477,-181.2 477,-120.2 299,-120.2"/>
<polygon fill="#f5f5f5" stroke="transparent" points="299,-157.7 299,-180.7 477,-180.7 477,-157.7 299,-157.7"/>
<polygon fill="none" stroke="#000000" points="299,-157.7 299,-180.7 477,-180.7 477,-157.7 299,-157.7"/>
<text text-anchor="start" x="304" y="-166.3" font-family="Helvetica,sans-Serif" font-weight="bold" font-size="11.00" fill="#000000">tap.movement_audit</text>
<text text-anchor="start" x="442.5219" y="-165.8" font-family="Helvetica,sans-Serif" font-size="11.00" fill="#000000">[table]</text>
<polygon fill="none" stroke="#000000" points="299,-138.7 299,-157.7 477,-157.7 477,-138.7 299,-138.7"/>
<text text-anchor="start" x="302" y="-144.8" font-family="Helvetica,sans-Serif" font-size="11.00" fill="#000000">...</text>
<polygon fill="#ffffff" stroke="transparent" points="299,-119.7 299,-138.7 373,-138.7 373,-119.7 299,-119.7"/>
<polygon fill="none" stroke="#000000" points="299,-119.7 299,-138.7 373,-138.7 373,-119.7 299,-119.7"/>
<text text-anchor="start" x="302" y="-125.8" font-family="Helvetica,sans-Serif" font-size="11.00" fill="#000000">&lt; 1</text>
<polygon fill="#ffffff" stroke="transparent" points="373,-119.7 373,-138.7 438,-138.7 438,-119.7 373,-119.7"/>
<polygon fill="none" stroke="#000000" points="373,-119.7 373,-138.7 438,-138.7 438,-119.7 373,-119.7"/>
<text text-anchor="start" x="402.6105" y="-125.8" font-family="Helvetica,sans-Serif" font-size="11.00" fill="#000000">0 rows</text>
<polygon fill="#ffffff" stroke="transparent" points="438,-119.7 438,-138.7 477,-138.7 477,-119.7 438,-119.7"/>
<polygon fill="none" stroke="#000000" points="438,-119.7 438,-138.7 477,-138.7 477,-119.7 438,-119.7"/>
<text text-anchor="start" x="467.8862" y="-125.8" font-family="Helvetica,sans-Serif" font-size="11.00" fill="#000000"> &#160;</text>
</a>
</g>
</g>
<!-- tap.movement_audit&#45;&gt;audit_revision -->
<g id="edge6" class="edge">
<title>tap.movement_audit:w&#45;&gt;audit_revision:e</title>
<path fill="none" stroke="#000000" d="M284.312,-147.8406C239.4978,-148.8286 217.741,-155.782 183,-191.7 143.8165,-232.2111 198.3604,-311.7 142,-311.7"/>
<polygon fill="#000000" stroke="#000000" points="291.0004,-147.7766 299.0345,-151.2998 295.0002,-147.7383 299,-147.7 299,-147.7 299,-147.7 295.0002,-147.7383 298.9655,-144.1002 291.0004,-147.7766 291.0004,-147.7766"/>
<ellipse fill="none" stroke="#000000" cx="287.8005" cy="-147.8073" rx="3.2" ry="3.2"/>
</g>
<!-- tap.occurrence_audit -->
<g id="node8" class="node">
<title>tap.occurrence_audit</title>
<g id="a_node8"><a xlink:title="tap.occurrence_audit">
<polygon fill="#ffffff" stroke="transparent" points="297.5,-38.2 297.5,-99.2 478.5,-99.2 478.5,-38.2 297.5,-38.2"/>
<polygon fill="#f5f5f5" stroke="transparent" points="298,-75.7 298,-98.7 479,-98.7 479,-75.7 298,-75.7"/>
<polygon fill="none" stroke="#000000" points="298,-75.7 298,-98.7 479,-98.7 479,-75.7 298,-75.7"/>
<text text-anchor="start" x="303" y="-84.3" font-family="Helvetica,sans-Serif" font-weight="bold" font-size="11.00" fill="#000000">tap.occurrence_audit</text>
<text text-anchor="start" x="444.5219" y="-83.8" font-family="Helvetica,sans-Serif" font-size="11.00" fill="#000000">[table]</text>
<polygon fill="none" stroke="#000000" points="298,-56.7 298,-75.7 479,-75.7 479,-56.7 298,-56.7"/>
<text text-anchor="start" x="301" y="-62.8" font-family="Helvetica,sans-Serif" font-size="11.00" fill="#000000">...</text>
<polygon fill="#ffffff" stroke="transparent" points="298,-37.7 298,-56.7 374,-56.7 374,-37.7 298,-37.7"/>
<polygon fill="none" stroke="#000000" points="298,-37.7 298,-56.7 374,-56.7 374,-37.7 298,-37.7"/>
<text text-anchor="start" x="301" y="-43.8" font-family="Helvetica,sans-Serif" font-size="11.00" fill="#000000">&lt; 1</text>
<polygon fill="#ffffff" stroke="transparent" points="374,-37.7 374,-56.7 439,-56.7 439,-37.7 374,-37.7"/>
<polygon fill="none" stroke="#000000" points="374,-37.7 374,-56.7 439,-56.7 439,-37.7 374,-37.7"/>
<text text-anchor="start" x="403.6105" y="-43.8" font-family="Helvetica,sans-Serif" font-size="11.00" fill="#000000">0 rows</text>
<polygon fill="#ffffff" stroke="transparent" points="439,-37.7 439,-56.7 479,-56.7 479,-37.7 439,-37.7"/>
<polygon fill="none" stroke="#000000" points="439,-37.7 439,-56.7 479,-56.7 479,-37.7 439,-37.7"/>
<text text-anchor="start" x="469.8862" y="-43.8" font-family="Helvetica,sans-Serif" font-size="11.00" fill="#000000"> &#160;</text>
</a>
</g>
</g>
<!-- tap.occurrence_audit&#45;&gt;audit_revision -->
<g id="edge7" class="edge">
<title>tap.occurrence_audit:w&#45;&gt;audit_revision:e</title>
<path fill="none" stroke="#000000" d="M283.3618,-65.7899C238.5141,-66.468 215.0558,-71.8583 183,-109.7 123.7875,-179.5998 233.6084,-311.7 142,-311.7"/>
<polygon fill="#000000" stroke="#000000" points="290.0002,-65.7492 298.0221,-69.2999 294.0001,-65.7246 298,-65.7 298,-65.7 298,-65.7 294.0001,-65.7246 297.9779,-62.1001 290.0002,-65.7492 290.0002,-65.7492"/>
<ellipse fill="none" stroke="#000000" cx="286.8002" cy="-65.7688" rx="3.2" ry="3.2"/>
</g>
</g>
</svg>
