<?xml version="1.0" encoding="UTF-8" standalone="no"?>
<!DOCTYPE svg PUBLIC "-//W3C//DTD SVG 1.1//EN"
 "http://www.w3.org/Graphics/SVG/1.1/DTD/svg11.dtd">
<!-- Generated by graphviz version 2.40.1 (20161225.0304)
 -->
<!-- Title: twoDegreesRelationshipsDiagram Pages: 1 -->
<svg width="582pt" height="695pt"
 viewBox="0.00 0.00 582.00 695.20" xmlns="http://www.w3.org/2000/svg" xmlns:xlink="http://www.w3.org/1999/xlink">
<g id="graph0" class="graph" transform="scale(1 1) rotate(0) translate(4 691.2)">
<title>twoDegreesRelationshipsDiagram</title>
<polygon fill="#ffffff" stroke="transparent" points="-4,4 -4,-691.2 578,-691.2 578,4 -4,4"/>
<text text-anchor="middle" x="72.4936" y="-7.3" font-family="Helvetica,sans-Serif" font-size="11.00" fill="#000000">Generated by SchemaSpy</text>
<!-- hmpps_domain_event_audit -->
<g id="node1" class="node">
<title>hmpps_domain_event_audit</title>
<g id="a_node1"><a xlink:href="../../tables/hmpps_domain_event_audit.html" xlink:title="hmpps_domain_event_audit" target="_top">
<polygon fill="#ffffff" stroke="transparent" points="266,-622.2 266,-683.2 491,-683.2 491,-622.2 266,-622.2"/>
<polygon fill="#f5f5f5" stroke="transparent" points="266.5,-659.7 266.5,-682.7 491.5,-682.7 491.5,-659.7 266.5,-659.7"/>
<polygon fill="none" stroke="#000000" points="266.5,-659.7 266.5,-682.7 491.5,-682.7 491.5,-659.7 266.5,-659.7"/>
<text text-anchor="start" x="271.5" y="-668.3" font-family="Helvetica,sans-Serif" font-weight="bold" font-size="11.00" fill="#000000">hmpps_domain_event_audit</text>
<text text-anchor="start" x="457.0219" y="-667.8" font-family="Helvetica,sans-Serif" font-size="11.00" fill="#000000">[table]</text>
<polygon fill="none" stroke="#000000" points="266.5,-640.7 266.5,-659.7 491.5,-659.7 491.5,-640.7 266.5,-640.7"/>
<text text-anchor="start" x="269.5" y="-646.8" font-family="Helvetica,sans-Serif" font-size="11.00" fill="#000000">...</text>
<polygon fill="#ffffff" stroke="transparent" points="266.5,-621.7 266.5,-640.7 377.5,-640.7 377.5,-621.7 266.5,-621.7"/>
<polygon fill="none" stroke="#000000" points="266.5,-621.7 266.5,-640.7 377.5,-640.7 377.5,-621.7 266.5,-621.7"/>
<text text-anchor="start" x="269.5" y="-627.8" font-family="Helvetica,sans-Serif" font-size="11.00" fill="#000000">&lt; 1</text>
<polygon fill="#ffffff" stroke="transparent" points="377.5,-621.7 377.5,-640.7 434.5,-640.7 434.5,-621.7 377.5,-621.7"/>
<polygon fill="none" stroke="#000000" points="377.5,-621.7 377.5,-640.7 434.5,-640.7 434.5,-621.7 377.5,-621.7"/>
<text text-anchor="start" x="425.3862" y="-627.8" font-family="Helvetica,sans-Serif" font-size="11.00" fill="#000000"> &#160;</text>
<polygon fill="#ffffff" stroke="transparent" points="434.5,-621.7 434.5,-640.7 491.5,-640.7 491.5,-621.7 434.5,-621.7"/>
<polygon fill="none" stroke="#000000" points="434.5,-621.7 434.5,-640.7 491.5,-640.7 491.5,-621.7 434.5,-621.7"/>
<text text-anchor="start" x="482.3862" y="-627.8" font-family="Helvetica,sans-Serif" font-size="11.00" fill="#000000"> &#160;</text>
</a>
</g>
</g>
<!-- audit_revision -->
<g id="node2" class="node">
<title>audit_revision</title>
<g id="a_node2"><a xlink:href="../../tables/audit_revision.html" xlink:title="audit_revision" target="_top">
<polygon fill="#ffffff" stroke="transparent" points="8,-476.2 8,-559.2 142,-559.2 142,-476.2 8,-476.2"/>
<polygon fill="#f5f5f5" stroke="transparent" points="8,-535.7 8,-558.7 142,-558.7 142,-535.7 8,-535.7"/>
<polygon fill="none" stroke="#000000" points="8,-535.7 8,-558.7 142,-558.7 142,-535.7 8,-535.7"/>
<text text-anchor="start" x="13" y="-544.3" font-family="Helvetica,sans-Serif" font-weight="bold" font-size="11.00" fill="#000000">audit_revision</text>
<text text-anchor="start" x="107.5219" y="-543.8" font-family="Helvetica,sans-Serif" font-size="11.00" fill="#000000">[table]</text>
<polygon fill="none" stroke="#000000" points="8,-513.7 8,-535.7 142,-535.7 142,-513.7 8,-513.7"/>
<image xlink:href="../../images/primaryKeys.png" width="11px" height="12px" preserveAspectRatio="xMinYMin meet" x="13" y="-530.7"/>
<text text-anchor="start" x="28" y="-520.8" font-family="Helvetica,sans-Serif" font-size="11.00" fill="#000000">id</text>
<polygon fill="none" stroke="#000000" points="8,-494.7 8,-513.7 142,-513.7 142,-494.7 8,-494.7"/>
<text text-anchor="start" x="11" y="-500.8" font-family="Helvetica,sans-Serif" font-size="11.00" fill="#000000">...</text>
<polygon fill="#ffffff" stroke="transparent" points="8,-475.7 8,-494.7 64,-494.7 64,-475.7 8,-475.7"/>
<polygon fill="none" stroke="#000000" points="8,-475.7 8,-494.7 64,-494.7 64,-475.7 8,-475.7"/>
<text text-anchor="start" x="11" y="-481.8" font-family="Helvetica,sans-Serif" font-size="11.00" fill="#000000"> &#160;</text>
<polygon fill="#ffffff" stroke="transparent" points="64,-475.7 64,-494.7 98,-494.7 98,-475.7 64,-475.7"/>
<polygon fill="none" stroke="#000000" points="64,-475.7 64,-494.7 98,-494.7 98,-475.7 64,-475.7"/>
<text text-anchor="start" x="88.8862" y="-481.8" font-family="Helvetica,sans-Serif" font-size="11.00" fill="#000000"> &#160;</text>
<polygon fill="#ffffff" stroke="transparent" points="98,-475.7 98,-494.7 142,-494.7 142,-475.7 98,-475.7"/>
<polygon fill="none" stroke="#000000" points="98,-475.7 98,-494.7 142,-494.7 142,-475.7 98,-475.7"/>
<text text-anchor="start" x="123.4053" y="-481.8" font-family="Helvetica,sans-Serif" font-size="11.00" fill="#000000">4 &gt;</text>
</a>
</g>
</g>
<!-- hmpps_domain_event_audit&#45;&gt;audit_revision -->
<g id="edge1" class="edge">
<title>hmpps_domain_event_audit:w&#45;&gt;audit_revision:e</title>
<path fill="none" stroke="#000000" d="M251.9908,-649.2121C221.939,-646.9662 208.2813,-636.6468 183,-611.7 152.5739,-581.6764 184.7453,-524.7 142,-524.7"/>
<polygon fill="#000000" stroke="#000000" points="258.5045,-649.4311 266.379,-653.298 262.5023,-649.5655 266.5,-649.7 266.5,-649.7 266.5,-649.7 262.5023,-649.5655 266.621,-646.102 258.5045,-649.4311 258.5045,-649.4311"/>
<ellipse fill="none" stroke="#000000" cx="255.3063" cy="-649.3235" rx="3.2" ry="3.2"/>
</g>
<!-- temporary_absence_authorisation_audit -->
<g id="node3" class="node">
<title>temporary_absence_authorisation_audit</title>
<g id="a_node3"><a xlink:href="../../tables/temporary_absence_authorisation_audit.html" xlink:title="temporary_absence_authorisation_audit" target="_top">
<polygon fill="#ffffff" stroke="transparent" points="224,-540.2 224,-601.2 533,-601.2 533,-540.2 224,-540.2"/>
<polygon fill="#f5f5f5" stroke="transparent" points="224.5,-577.7 224.5,-600.7 533.5,-600.7 533.5,-577.7 224.5,-577.7"/>
<polygon fill="none" stroke="#000000" points="224.5,-577.7 224.5,-600.7 533.5,-600.7 533.5,-577.7 224.5,-577.7"/>
<text text-anchor="start" x="229.5" y="-586.3" font-family="Helvetica,sans-Serif" font-weight="bold" font-size="11.00" fill="#000000">temporary_absence_authorisation_audit</text>
<text text-anchor="start" x="499.0219" y="-585.8" font-family="Helvetica,sans-Serif" font-size="11.00" fill="#000000">[table]</text>
<polygon fill="none" stroke="#000000" points="224.5,-558.7 224.5,-577.7 533.5,-577.7 533.5,-558.7 224.5,-558.7"/>
<text text-anchor="start" x="227.5" y="-564.8" font-family="Helvetica,sans-Serif" font-size="11.00" fill="#000000">...</text>
<polygon fill="#ffffff" stroke="transparent" points="224.5,-539.7 224.5,-558.7 377.5,-558.7 377.5,-539.7 224.5,-539.7"/>
<polygon fill="none" stroke="#000000" points="224.5,-539.7 224.5,-558.7 377.5,-558.7 377.5,-539.7 224.5,-539.7"/>
<text text-anchor="start" x="227.5" y="-545.8" font-family="Helvetica,sans-Serif" font-size="11.00" fill="#000000">&lt; 1</text>
<polygon fill="#ffffff" stroke="transparent" points="377.5,-539.7 377.5,-558.7 455.5,-558.7 455.5,-539.7 377.5,-539.7"/>
<polygon fill="none" stroke="#000000" points="377.5,-539.7 377.5,-558.7 455.5,-558.7 455.5,-539.7 377.5,-539.7"/>
<text text-anchor="start" x="446.3862" y="-545.8" font-family="Helvetica,sans-Serif" font-size="11.00" fill="#000000"> &#160;</text>
<polygon fill="#ffffff" stroke="transparent" points="455.5,-539.7 455.5,-558.7 533.5,-558.7 533.5,-539.7 455.5,-539.7"/>
<polygon fill="none" stroke="#000000" points="455.5,-539.7 455.5,-558.7 533.5,-558.7 533.5,-539.7 455.5,-539.7"/>
<text text-anchor="start" x="524.3862" y="-545.8" font-family="Helvetica,sans-Serif" font-size="11.00" fill="#000000"> &#160;</text>
</a>
</g>
</g>
<!-- temporary_absence_authorisation_audit&#45;&gt;audit_revision -->
<g id="edge2" class="edge">
<title>temporary_absence_authorisation_audit:w&#45;&gt;audit_revision:e</title>
<path fill="none" stroke="#000000" d="M210.0291,-565.626C182.4711,-557.0366 177.8567,-524.7 142,-524.7"/>
<polygon fill="#000000" stroke="#000000" points="216.5809,-566.565 223.9892,-571.2636 220.5405,-567.1325 224.5,-567.7 224.5,-567.7 224.5,-567.7 220.5405,-567.1325 225.0108,-564.1364 216.5809,-566.565 216.5809,-566.565"/>
<ellipse fill="none" stroke="#000000" cx="213.4133" cy="-566.111" rx="3.2" ry="3.2"/>
</g>
<!-- temporary_absence_movement_audit -->
<g id="node4" class="node">
<title>temporary_absence_movement_audit</title>
<g id="a_node4"><a xlink:href="../../tables/temporary_absence_movement_audit.html" xlink:title="temporary_absence_movement_audit" target="_top">
<polygon fill="#ffffff" stroke="transparent" points="191,-120.7 191,-518.7 566,-518.7 566,-120.7 191,-120.7"/>
<polygon fill="#f5f5f5" stroke="transparent" points="193.5,-493.7 193.5,-516.7 564.5,-516.7 564.5,-493.7 193.5,-493.7"/>
<polygon fill="none" stroke="#000000" points="193.5,-493.7 193.5,-516.7 564.5,-516.7 564.5,-493.7 193.5,-493.7"/>
<text text-anchor="start" x="198.5" y="-502.3" font-family="Helvetica,sans-Serif" font-weight="bold" font-size="11.00" fill="#000000">temporary_absence_movement_audit</text>
<text text-anchor="start" x="529.5437" y="-501.8" font-family="Helvetica,sans-Serif" font-size="11.00" fill="#000000">[table]</text>
<polygon fill="none" stroke="#000000" points="193.5,-471.7 193.5,-493.7 465.5,-493.7 465.5,-471.7 193.5,-471.7"/>
<image xlink:href="../../images/primaryKeys.png" width="11px" height="12px" preserveAspectRatio="xMinYMin meet" x="198.5" y="-488.7"/>
<text text-anchor="start" x="213.5" y="-478.8" font-family="Helvetica,sans-Serif" font-size="11.00" fill="#000000">rev_id</text>
<polygon fill="none" stroke="#000000" points="465.5,-471.7 465.5,-493.7 564.5,-493.7 564.5,-471.7 465.5,-471.7"/>
<text text-anchor="start" x="468.5" y="-479.4" font-family="Helvetica,sans-Serif" font-size="11.00" fill="#000000">int8[19]</text>
<polygon fill="none" stroke="#000000" points="193.5,-449.7 193.5,-471.7 465.5,-471.7 465.5,-449.7 193.5,-449.7"/>
<text text-anchor="start" x="213.5" y="-456.8" font-family="Helvetica,sans-Serif" font-size="11.00" fill="#000000">rev_type</text>
<polygon fill="none" stroke="#000000" points="465.5,-449.7 465.5,-471.7 564.5,-471.7 564.5,-449.7 465.5,-449.7"/>
<text text-anchor="start" x="468.5" y="-457.4" font-family="Helvetica,sans-Serif" font-size="11.00" fill="#000000">int2[5]</text>
<polygon fill="none" stroke="#000000" points="193.5,-427.7 193.5,-449.7 465.5,-449.7 465.5,-427.7 193.5,-427.7"/>
<image xlink:href="../../images/primaryKeys.png" width="11px" height="12px" preserveAspectRatio="xMinYMin meet" x="198.5" y="-444.7"/>
<text text-anchor="start" x="213.5" y="-434.8" font-family="Helvetica,sans-Serif" font-size="11.00" fill="#000000">id</text>
<polygon fill="none" stroke="#000000" points="465.5,-427.7 465.5,-449.7 564.5,-449.7 564.5,-427.7 465.5,-427.7"/>
<text text-anchor="start" x="468.5" y="-435.4" font-family="Helvetica,sans-Serif" font-size="11.00" fill="#000000">uuid[2147483647]</text>
<polygon fill="none" stroke="#000000" points="193.5,-405.7 193.5,-427.7 465.5,-427.7 465.5,-405.7 193.5,-405.7"/>
<text text-anchor="start" x="213.5" y="-412.8" font-family="Helvetica,sans-Serif" font-size="11.00" fill="#000000">person_identifier</text>
<polygon fill="none" stroke="#000000" points="465.5,-405.7 465.5,-427.7 564.5,-427.7 564.5,-405.7 465.5,-405.7"/>
<text text-anchor="start" x="468.5" y="-413.4" font-family="Helvetica,sans-Serif" font-size="11.00" fill="#000000">varchar[10]</text>
<polygon fill="none" stroke="#000000" points="193.5,-383.7 193.5,-405.7 465.5,-405.7 465.5,-383.7 193.5,-383.7"/>
<text text-anchor="start" x="213.5" y="-390.8" font-family="Helvetica,sans-Serif" font-size="11.00" fill="#000000">occurrence_id</text>
<polygon fill="none" stroke="#000000" points="465.5,-383.7 465.5,-405.7 564.5,-405.7 564.5,-383.7 465.5,-383.7"/>
<text text-anchor="start" x="468.5" y="-391.4" font-family="Helvetica,sans-Serif" font-size="11.00" fill="#000000">uuid[2147483647]</text>
<polygon fill="none" stroke="#000000" points="193.5,-361.7 193.5,-383.7 465.5,-383.7 465.5,-361.7 193.5,-361.7"/>
<text text-anchor="start" x="213.5" y="-368.8" font-family="Helvetica,sans-Serif" font-size="11.00" fill="#000000">occurred_at</text>
<polygon fill="none" stroke="#000000" points="465.5,-361.7 465.5,-383.7 564.5,-383.7 564.5,-361.7 465.5,-361.7"/>
<text text-anchor="start" x="468.5" y="-369.4" font-family="Helvetica,sans-Serif" font-size="11.00" fill="#000000">timestamp[29,6]</text>
<polygon fill="none" stroke="#000000" points="193.5,-339.7 193.5,-361.7 465.5,-361.7 465.5,-339.7 193.5,-339.7"/>
<text text-anchor="start" x="213.5" y="-346.8" font-family="Helvetica,sans-Serif" font-size="11.00" fill="#000000">direction</text>
<polygon fill="none" stroke="#000000" points="465.5,-339.7 465.5,-361.7 564.5,-361.7 564.5,-339.7 465.5,-339.7"/>
<text text-anchor="start" x="468.5" y="-347.4" font-family="Helvetica,sans-Serif" font-size="11.00" fill="#000000">varchar[3]</text>
<polygon fill="none" stroke="#000000" points="193.5,-317.7 193.5,-339.7 465.5,-339.7 465.5,-317.7 193.5,-317.7"/>
<text text-anchor="start" x="213.5" y="-324.8" font-family="Helvetica,sans-Serif" font-size="11.00" fill="#000000">absence_reason_id</text>
<polygon fill="none" stroke="#000000" points="465.5,-317.7 465.5,-339.7 564.5,-339.7 564.5,-317.7 465.5,-317.7"/>
<text text-anchor="start" x="468.5" y="-325.4" font-family="Helvetica,sans-Serif" font-size="11.00" fill="#000000">int8[19]</text>
<polygon fill="none" stroke="#000000" points="193.5,-295.7 193.5,-317.7 465.5,-317.7 465.5,-295.7 193.5,-295.7"/>
<text text-anchor="start" x="213.5" y="-302.8" font-family="Helvetica,sans-Serif" font-size="11.00" fill="#000000">accompanied_by_id</text>
<polygon fill="none" stroke="#000000" points="465.5,-295.7 465.5,-317.7 564.5,-317.7 564.5,-295.7 465.5,-295.7"/>
<text text-anchor="start" x="468.5" y="-303.4" font-family="Helvetica,sans-Serif" font-size="11.00" fill="#000000">int8[19]</text>
<polygon fill="none" stroke="#000000" points="193.5,-273.7 193.5,-295.7 465.5,-295.7 465.5,-273.7 193.5,-273.7"/>
<text text-anchor="start" x="213.5" y="-280.8" font-family="Helvetica,sans-Serif" font-size="11.00" fill="#000000">accompanied_by_notes</text>
<polygon fill="none" stroke="#000000" points="465.5,-273.7 465.5,-295.7 564.5,-295.7 564.5,-273.7 465.5,-273.7"/>
<text text-anchor="start" x="468.5" y="-281.4" font-family="Helvetica,sans-Serif" font-size="11.00" fill="#000000">text[2147483647]</text>
<polygon fill="none" stroke="#000000" points="193.5,-251.7 193.5,-273.7 465.5,-273.7 465.5,-251.7 193.5,-251.7"/>
<text text-anchor="start" x="213.5" y="-258.8" font-family="Helvetica,sans-Serif" font-size="11.00" fill="#000000">notes</text>
<polygon fill="none" stroke="#000000" points="465.5,-251.7 465.5,-273.7 564.5,-273.7 564.5,-251.7 465.5,-251.7"/>
<text text-anchor="start" x="468.5" y="-259.4" font-family="Helvetica,sans-Serif" font-size="11.00" fill="#000000">text[2147483647]</text>
<polygon fill="none" stroke="#000000" points="193.5,-229.7 193.5,-251.7 465.5,-251.7 465.5,-229.7 193.5,-229.7"/>
<text text-anchor="start" x="213.5" y="-236.8" font-family="Helvetica,sans-Serif" font-size="11.00" fill="#000000">recorded_at</text>
<polygon fill="none" stroke="#000000" points="465.5,-229.7 465.5,-251.7 564.5,-251.7 564.5,-229.7 465.5,-229.7"/>
<text text-anchor="start" x="468.5" y="-237.4" font-family="Helvetica,sans-Serif" font-size="11.00" fill="#000000">timestamp[29,6]</text>
<polygon fill="none" stroke="#000000" points="193.5,-207.7 193.5,-229.7 465.5,-229.7 465.5,-207.7 193.5,-207.7"/>
<text text-anchor="start" x="213.5" y="-214.8" font-family="Helvetica,sans-Serif" font-size="11.00" fill="#000000">recorded_by</text>
<polygon fill="none" stroke="#000000" points="465.5,-207.7 465.5,-229.7 564.5,-229.7 564.5,-207.7 465.5,-207.7"/>
<text text-anchor="start" x="468.5" y="-215.4" font-family="Helvetica,sans-Serif" font-size="11.00" fill="#000000">varchar[64]</text>
<polygon fill="none" stroke="#000000" points="193.5,-185.7 193.5,-207.7 465.5,-207.7 465.5,-185.7 193.5,-185.7"/>
<text text-anchor="start" x="213.5" y="-192.8" font-family="Helvetica,sans-Serif" font-size="11.00" fill="#000000">recorded_by_prison_code</text>
<polygon fill="none" stroke="#000000" points="465.5,-185.7 465.5,-207.7 564.5,-207.7 564.5,-185.7 465.5,-185.7"/>
<text text-anchor="start" x="468.5" y="-193.4" font-family="Helvetica,sans-Serif" font-size="11.00" fill="#000000">varchar[6]</text>
<polygon fill="none" stroke="#000000" points="193.5,-163.7 193.5,-185.7 465.5,-185.7 465.5,-163.7 193.5,-163.7"/>
<text text-anchor="start" x="213.5" y="-170.8" font-family="Helvetica,sans-Serif" font-size="11.00" fill="#000000">legacy_id</text>
<polygon fill="none" stroke="#000000" points="465.5,-163.7 465.5,-185.7 564.5,-185.7 564.5,-163.7 465.5,-163.7"/>
<text text-anchor="start" x="468.5" y="-171.4" font-family="Helvetica,sans-Serif" font-size="11.00" fill="#000000">varchar[32]</text>
<polygon fill="none" stroke="#000000" points="193.5,-141.7 193.5,-163.7 465.5,-163.7 465.5,-141.7 193.5,-141.7"/>
<text text-anchor="start" x="213.5" y="-148.8" font-family="Helvetica,sans-Serif" font-size="11.00" fill="#000000">location</text>
<polygon fill="none" stroke="#000000" points="465.5,-141.7 465.5,-163.7 564.5,-163.7 564.5,-141.7 465.5,-141.7"/>
<text text-anchor="start" x="468.2258" y="-149.4" font-family="Helvetica,sans-Serif" font-size="11.00" fill="#000000">jsonb[2147483647]</text>
<polygon fill="#ffffff" stroke="transparent" points="193.5,-122.7 193.5,-141.7 333.5,-141.7 333.5,-122.7 193.5,-122.7"/>
<polygon fill="none" stroke="#000000" points="193.5,-122.7 193.5,-141.7 333.5,-141.7 333.5,-122.7 193.5,-122.7"/>
<text text-anchor="start" x="196.5" y="-128.8" font-family="Helvetica,sans-Serif" font-size="11.00" fill="#000000">&lt; 1</text>
<polygon fill="#ffffff" stroke="transparent" points="333.5,-122.7 333.5,-141.7 465.5,-141.7 465.5,-122.7 333.5,-122.7"/>
<polygon fill="none" stroke="#000000" points="333.5,-122.7 333.5,-141.7 465.5,-141.7 465.5,-122.7 333.5,-122.7"/>
<text text-anchor="start" x="456.3862" y="-128.8" font-family="Helvetica,sans-Serif" font-size="11.00" fill="#000000"> &#160;</text>
<polygon fill="#ffffff" stroke="transparent" points="465.5,-122.7 465.5,-141.7 564.5,-141.7 564.5,-122.7 465.5,-122.7"/>
<polygon fill="none" stroke="#000000" points="465.5,-122.7 465.5,-141.7 564.5,-141.7 564.5,-122.7 465.5,-122.7"/>
<text text-anchor="start" x="545.9053" y="-128.8" font-family="Helvetica,sans-Serif" font-size="11.00" fill="#000000">0 &gt;</text>
<polygon fill="none" stroke="#000000" stroke-width="2" points="192,-121.7 192,-517.7 565,-517.7 565,-121.7 192,-121.7"/>
</a>
</g>
</g>
<!-- temporary_absence_movement_audit&#45;&gt;audit_revision -->
<g id="edge3" class="edge">
<title>temporary_absence_movement_audit:w&#45;&gt;audit_revision:e</title>
<path fill="none" stroke="#000000" d="M179.4729,-487.1947C165.5092,-498.0296 165.5361,-524.7 142,-524.7"/>
<polygon fill="#000000" stroke="#000000" points="185.8816,-485.1412 194.5986,-486.1283 189.6908,-483.9206 193.5,-482.7 193.5,-482.7 193.5,-482.7 189.6908,-483.9206 192.4014,-479.2717 185.8816,-485.1412 185.8816,-485.1412"/>
<ellipse fill="none" stroke="#000000" cx="182.8342" cy="-486.1177" rx="3.2" ry="3.2"/>
</g>
<!-- temporary_absence_occurrence_audit -->
<g id="node5" class="node">
<title>temporary_absence_occurrence_audit</title>
<g id="a_node5"><a xlink:href="../../tables/temporary_absence_occurrence_audit.html" xlink:title="temporary_absence_occurrence_audit" target="_top">
<polygon fill="#ffffff" stroke="transparent" points="232,-38.2 232,-99.2 525,-99.2 525,-38.2 232,-38.2"/>
<polygon fill="#f5f5f5" stroke="transparent" points="232.5,-75.7 232.5,-98.7 525.5,-98.7 525.5,-75.7 232.5,-75.7"/>
<polygon fill="none" stroke="#000000" points="232.5,-75.7 232.5,-98.7 525.5,-98.7 525.5,-75.7 232.5,-75.7"/>
<text text-anchor="start" x="237.5" y="-84.3" font-family="Helvetica,sans-Serif" font-weight="bold" font-size="11.00" fill="#000000">temporary_absence_occurrence_audit</text>
<text text-anchor="start" x="491.0219" y="-83.8" font-family="Helvetica,sans-Serif" font-size="11.00" fill="#000000">[table]</text>
<polygon fill="none" stroke="#000000" points="232.5,-56.7 232.5,-75.7 525.5,-75.7 525.5,-56.7 232.5,-56.7"/>
<text text-anchor="start" x="235.5" y="-62.8" font-family="Helvetica,sans-Serif" font-size="11.00" fill="#000000">...</text>
<polygon fill="#ffffff" stroke="transparent" points="232.5,-37.7 232.5,-56.7 377.5,-56.7 377.5,-37.7 232.5,-37.7"/>
<polygon fill="none" stroke="#000000" points="232.5,-37.7 232.5,-56.7 377.5,-56.7 377.5,-37.7 232.5,-37.7"/>
<text text-anchor="start" x="235.5" y="-43.8" font-family="Helvetica,sans-Serif" font-size="11.00" fill="#000000">&lt; 1</text>
<polygon fill="#ffffff" stroke="transparent" points="377.5,-37.7 377.5,-56.7 451.5,-56.7 451.5,-37.7 377.5,-37.7"/>
<polygon fill="none" stroke="#000000" points="377.5,-37.7 377.5,-56.7 451.5,-56.7 451.5,-37.7 377.5,-37.7"/>
<text text-anchor="start" x="442.3862" y="-43.8" font-family="Helvetica,sans-Serif" font-size="11.00" fill="#000000"> &#160;</text>
<polygon fill="#ffffff" stroke="transparent" points="451.5,-37.7 451.5,-56.7 525.5,-56.7 525.5,-37.7 451.5,-37.7"/>
<polygon fill="none" stroke="#000000" points="451.5,-37.7 451.5,-56.7 525.5,-56.7 525.5,-37.7 451.5,-37.7"/>
<text text-anchor="start" x="516.3862" y="-43.8" font-family="Helvetica,sans-Serif" font-size="11.00" fill="#000000"> &#160;</text>
</a>
</g>
</g>
<!-- temporary_absence_occurrence_audit&#45;&gt;audit_revision -->
<g id="edge4" class="edge">
<title>temporary_absence_occurrence_audit:w&#45;&gt;audit_revision:e</title>
<path fill="none" stroke="#000000" d="M218.0357,-67.5765C200.119,-72.8993 193.851,-89.1168 183,-110.7 162.2367,-151.9994 188.225,-524.7 142,-524.7"/>
<polygon fill="#000000" stroke="#000000" points="224.5665,-66.7293 232.9632,-69.2701 228.5332,-66.2146 232.5,-65.7 232.5,-65.7 232.5,-65.7 228.5332,-66.2146 232.0368,-62.1299 224.5665,-66.7293 224.5665,-66.7293"/>
<ellipse fill="none" stroke="#000000" cx="221.3931" cy="-67.141" rx="3.2" ry="3.2"/>
</g>
</g>
</svg>
