<?xml version="1.0" encoding="UTF-8" standalone="no"?>
<!DOCTYPE svg PUBLIC "-//W3C//DTD SVG 1.1//EN"
 "http://www.w3.org/Graphics/SVG/1.1/DTD/svg11.dtd">
<!-- Generated by graphviz version 2.40.1 (20161225.0304)
 -->
<!-- Title: twoDegreesRelationshipsDiagram Pages: 1 -->
<svg width="1410pt" height="866pt"
 viewBox="0.00 0.00 1410.00 866.25" xmlns="http://www.w3.org/2000/svg" xmlns:xlink="http://www.w3.org/1999/xlink">
<g id="graph0" class="graph" transform="scale(1 1) rotate(0) translate(4 862.2462)">
<title>twoDegreesRelationshipsDiagram</title>
<polygon fill="#ffffff" stroke="transparent" points="-4,4 -4,-862.2462 1406,-862.2462 1406,4 -4,4"/>
<text text-anchor="middle" x="72.4936" y="-7.3" font-family="Helvetica,sans-Serif" font-size="11.00" fill="#000000">Generated by SchemaSpy</text>
<!-- reference_data -->
<g id="node1" class="node">
<title>reference_data</title>
<g id="a_node1"><a xlink:href="../../tables/reference_data.html" xlink:title="reference_data" target="_top">
<polygon fill="#ffffff" stroke="transparent" points="253,-496.2462 253,-557.2462 393,-557.2462 393,-496.2462 253,-496.2462"/>
<polygon fill="#f5f5f5" stroke="transparent" points="253,-533.7462 253,-556.7462 393,-556.7462 393,-533.7462 253,-533.7462"/>
<polygon fill="none" stroke="#000000" points="253,-533.7462 253,-556.7462 393,-556.7462 393,-533.7462 253,-533.7462"/>
<text text-anchor="start" x="258" y="-542.3462" font-family="Helvetica,sans-Serif" font-weight="bold" font-size="11.00" fill="#000000">reference_data</text>
<text text-anchor="start" x="358.5219" y="-541.8462" font-family="Helvetica,sans-Serif" font-size="11.00" fill="#000000">[table]</text>
<polygon fill="none" stroke="#000000" points="253,-514.7462 253,-533.7462 393,-533.7462 393,-514.7462 253,-514.7462"/>
<text text-anchor="start" x="256" y="-520.8462" font-family="Helvetica,sans-Serif" font-size="11.00" fill="#000000">...</text>
<polygon fill="#ffffff" stroke="transparent" points="253,-495.7462 253,-514.7462 314,-514.7462 314,-495.7462 253,-495.7462"/>
<polygon fill="none" stroke="#000000" points="253,-495.7462 253,-514.7462 314,-514.7462 314,-495.7462 253,-495.7462"/>
<text text-anchor="start" x="256" y="-501.8462" font-family="Helvetica,sans-Serif" font-size="11.00" fill="#000000">&lt; 1</text>
<polygon fill="#ffffff" stroke="transparent" points="314,-495.7462 314,-514.7462 346,-514.7462 346,-495.7462 314,-495.7462"/>
<polygon fill="none" stroke="#000000" points="314,-495.7462 314,-514.7462 346,-514.7462 346,-495.7462 314,-495.7462"/>
<text text-anchor="start" x="336.8862" y="-501.8462" font-family="Helvetica,sans-Serif" font-size="11.00" fill="#000000"> &#160;</text>
<polygon fill="#ffffff" stroke="transparent" points="346,-495.7462 346,-514.7462 393,-514.7462 393,-495.7462 346,-495.7462"/>
<polygon fill="none" stroke="#000000" points="346,-495.7462 346,-514.7462 393,-514.7462 393,-495.7462 346,-495.7462"/>
<text text-anchor="start" x="368.2904" y="-501.8462" font-family="Helvetica,sans-Serif" font-size="11.00" fill="#000000">12 &gt;</text>
</a>
</g>
</g>
<!-- reference_data_domain -->
<g id="node2" class="node">
<title>reference_data_domain</title>
<g id="a_node2"><a xlink:href="../../tables/reference_data_domain.html" xlink:title="reference_data_domain" target="_top">
<polygon fill="#ffffff" stroke="transparent" points="8,-586.2462 8,-647.2462 204,-647.2462 204,-586.2462 8,-586.2462"/>
<polygon fill="#f5f5f5" stroke="transparent" points="8,-623.7462 8,-646.7462 204,-646.7462 204,-623.7462 8,-623.7462"/>
<polygon fill="none" stroke="#000000" points="8,-623.7462 8,-646.7462 204,-646.7462 204,-623.7462 8,-623.7462"/>
<text text-anchor="start" x="13" y="-632.3462" font-family="Helvetica,sans-Serif" font-weight="bold" font-size="11.00" fill="#000000">reference_data_domain</text>
<text text-anchor="start" x="169.5219" y="-631.8462" font-family="Helvetica,sans-Serif" font-size="11.00" fill="#000000">[table]</text>
<polygon fill="none" stroke="#000000" points="8,-604.7462 8,-623.7462 204,-623.7462 204,-604.7462 8,-604.7462"/>
<text text-anchor="start" x="11" y="-610.8462" font-family="Helvetica,sans-Serif" font-size="11.00" fill="#000000">...</text>
<polygon fill="#ffffff" stroke="transparent" points="8,-585.7462 8,-604.7462 95,-604.7462 95,-585.7462 8,-585.7462"/>
<polygon fill="none" stroke="#000000" points="8,-585.7462 8,-604.7462 95,-604.7462 95,-585.7462 8,-585.7462"/>
<text text-anchor="start" x="11" y="-591.8462" font-family="Helvetica,sans-Serif" font-size="11.00" fill="#000000"> &#160;</text>
<polygon fill="#ffffff" stroke="transparent" points="95,-585.7462 95,-604.7462 145,-604.7462 145,-585.7462 95,-585.7462"/>
<polygon fill="none" stroke="#000000" points="95,-585.7462 95,-604.7462 145,-604.7462 145,-585.7462 95,-585.7462"/>
<text text-anchor="start" x="135.8862" y="-591.8462" font-family="Helvetica,sans-Serif" font-size="11.00" fill="#000000"> &#160;</text>
<polygon fill="#ffffff" stroke="transparent" points="145,-585.7462 145,-604.7462 204,-604.7462 204,-585.7462 145,-585.7462"/>
<polygon fill="none" stroke="#000000" points="145,-585.7462 145,-604.7462 204,-604.7462 204,-585.7462 145,-585.7462"/>
<text text-anchor="start" x="185.4053" y="-591.8462" font-family="Helvetica,sans-Serif" font-size="11.00" fill="#000000">2 &gt;</text>
</a>
</g>
</g>
<!-- reference_data&#45;&gt;reference_data_domain -->
<g id="edge1" class="edge">
<title>reference_data:w&#45;&gt;reference_data_domain:e</title>
<path fill="none" stroke="#000000" d="M286.2665,-572.0449C264.8651,-593.1791 235.8548,-613.7462 204,-613.7462"/>
<polygon fill="#000000" stroke="#000000" points="290.9172,-567.1695 299.0441,-563.8658 293.6782,-564.2752 296.4392,-561.3809 296.4392,-561.3809 296.4392,-561.3809 293.6782,-564.2752 293.8343,-558.896 290.9172,-567.1695 290.9172,-567.1695"/>
<ellipse fill="none" stroke="#000000" cx="288.7084" cy="-569.485" rx="3.2" ry="3.2"/>
</g>
<!-- reference_data_domain_link -->
<g id="node3" class="node">
<title>reference_data_domain_link</title>
<g id="a_node3"><a xlink:href="../../tables/reference_data_domain_link.html" xlink:title="reference_data_domain_link" target="_top">
<polygon fill="#ffffff" stroke="transparent" points="505,-793.2462 505,-854.2462 732,-854.2462 732,-793.2462 505,-793.2462"/>
<polygon fill="#f5f5f5" stroke="transparent" points="505.5,-830.7462 505.5,-853.7462 732.5,-853.7462 732.5,-830.7462 505.5,-830.7462"/>
<polygon fill="none" stroke="#000000" points="505.5,-830.7462 505.5,-853.7462 732.5,-853.7462 732.5,-830.7462 505.5,-830.7462"/>
<text text-anchor="start" x="510.5" y="-839.3462" font-family="Helvetica,sans-Serif" font-weight="bold" font-size="11.00" fill="#000000">reference_data_domain_link</text>
<text text-anchor="start" x="698.0219" y="-838.8462" font-family="Helvetica,sans-Serif" font-size="11.00" fill="#000000">[table]</text>
<polygon fill="none" stroke="#000000" points="505.5,-811.7462 505.5,-830.7462 732.5,-830.7462 732.5,-811.7462 505.5,-811.7462"/>
<text text-anchor="start" x="508.5" y="-817.8462" font-family="Helvetica,sans-Serif" font-size="11.00" fill="#000000">...</text>
<polygon fill="#ffffff" stroke="transparent" points="505.5,-792.7462 505.5,-811.7462 617.5,-811.7462 617.5,-792.7462 505.5,-792.7462"/>
<polygon fill="none" stroke="#000000" points="505.5,-792.7462 505.5,-811.7462 617.5,-811.7462 617.5,-792.7462 505.5,-792.7462"/>
<text text-anchor="start" x="508.5" y="-798.8462" font-family="Helvetica,sans-Serif" font-size="11.00" fill="#000000">&lt; 2</text>
<polygon fill="#ffffff" stroke="transparent" points="617.5,-792.7462 617.5,-811.7462 674.5,-811.7462 674.5,-792.7462 617.5,-792.7462"/>
<polygon fill="none" stroke="#000000" points="617.5,-792.7462 617.5,-811.7462 674.5,-811.7462 674.5,-792.7462 617.5,-792.7462"/>
<text text-anchor="start" x="665.3862" y="-798.8462" font-family="Helvetica,sans-Serif" font-size="11.00" fill="#000000"> &#160;</text>
<polygon fill="#ffffff" stroke="transparent" points="674.5,-792.7462 674.5,-811.7462 732.5,-811.7462 732.5,-792.7462 674.5,-792.7462"/>
<polygon fill="none" stroke="#000000" points="674.5,-792.7462 674.5,-811.7462 732.5,-811.7462 732.5,-792.7462 674.5,-792.7462"/>
<text text-anchor="start" x="723.3862" y="-798.8462" font-family="Helvetica,sans-Serif" font-size="11.00" fill="#000000"> &#160;</text>
</a>
</g>
</g>
<!-- reference_data_domain_link&#45;&gt;reference_data -->
<g id="edge3" class="edge">
<title>reference_data_domain_link:w&#45;&gt;reference_data:e</title>
<path fill="none" stroke="#000000" d="M494.8734,-820.3796C466.8604,-818.288 455.0651,-807.0886 434,-782.7462 405.5744,-749.8981 417.6828,-730.8548 401,-690.7462 382.111,-645.3335 357.2786,-594.3681 340.7605,-561.4808"/>
<polygon fill="#000000" stroke="#000000" points="504.8384,-816.721 504.5625,-824.7162 502.9635,-824.6611 503.2394,-816.6658 504.8384,-816.721"/>
<polyline fill="none" stroke="#000000" points="505.5,-820.7462 501.5024,-820.6083 "/>
<ellipse fill="none" stroke="#000000" cx="498.3043" cy="-820.4979" rx="3.2" ry="3.2"/>
</g>
<!-- reference_data_domain_link&#45;&gt;reference_data_domain -->
<g id="edge2" class="edge">
<title>reference_data_domain_link:w&#45;&gt;reference_data_domain:e</title>
<path fill="none" stroke="#000000" d="M490.7956,-820.1524C344.25,-808.0108 361.4629,-613.7462 204,-613.7462"/>
<polygon fill="#000000" stroke="#000000" points="497.5065,-820.4233 505.3547,-824.3433 501.5033,-820.5848 505.5,-820.7462 505.5,-820.7462 505.5,-820.7462 501.5033,-820.5848 505.6453,-817.1491 497.5065,-820.4233 497.5065,-820.4233"/>
<ellipse fill="none" stroke="#000000" cx="494.3091" cy="-820.2942" rx="3.2" ry="3.2"/>
</g>
<!-- reference_data_link -->
<g id="node4" class="node">
<title>reference_data_link</title>
<g id="a_node4"><a xlink:href="../../tables/reference_data_link.html" xlink:title="reference_data_link" target="_top">
<polygon fill="#ffffff" stroke="transparent" points="533,-711.2462 533,-772.2462 704,-772.2462 704,-711.2462 533,-711.2462"/>
<polygon fill="#f5f5f5" stroke="transparent" points="533.5,-748.7462 533.5,-771.7462 704.5,-771.7462 704.5,-748.7462 533.5,-748.7462"/>
<polygon fill="none" stroke="#000000" points="533.5,-748.7462 533.5,-771.7462 704.5,-771.7462 704.5,-748.7462 533.5,-748.7462"/>
<text text-anchor="start" x="538.5" y="-757.3462" font-family="Helvetica,sans-Serif" font-weight="bold" font-size="11.00" fill="#000000">reference_data_link</text>
<text text-anchor="start" x="670.0219" y="-756.8462" font-family="Helvetica,sans-Serif" font-size="11.00" fill="#000000">[table]</text>
<polygon fill="none" stroke="#000000" points="533.5,-729.7462 533.5,-748.7462 704.5,-748.7462 704.5,-729.7462 533.5,-729.7462"/>
<text text-anchor="start" x="536.5" y="-735.8462" font-family="Helvetica,sans-Serif" font-size="11.00" fill="#000000">...</text>
<polygon fill="#ffffff" stroke="transparent" points="533.5,-710.7462 533.5,-729.7462 617.5,-729.7462 617.5,-710.7462 533.5,-710.7462"/>
<polygon fill="none" stroke="#000000" points="533.5,-710.7462 533.5,-729.7462 617.5,-729.7462 617.5,-710.7462 533.5,-710.7462"/>
<text text-anchor="start" x="536.5" y="-716.8462" font-family="Helvetica,sans-Serif" font-size="11.00" fill="#000000">&lt; 2</text>
<polygon fill="#ffffff" stroke="transparent" points="617.5,-710.7462 617.5,-729.7462 660.5,-729.7462 660.5,-710.7462 617.5,-710.7462"/>
<polygon fill="none" stroke="#000000" points="617.5,-710.7462 617.5,-729.7462 660.5,-729.7462 660.5,-710.7462 617.5,-710.7462"/>
<text text-anchor="start" x="651.3862" y="-716.8462" font-family="Helvetica,sans-Serif" font-size="11.00" fill="#000000"> &#160;</text>
<polygon fill="#ffffff" stroke="transparent" points="660.5,-710.7462 660.5,-729.7462 704.5,-729.7462 704.5,-710.7462 660.5,-710.7462"/>
<polygon fill="none" stroke="#000000" points="660.5,-710.7462 660.5,-729.7462 704.5,-729.7462 704.5,-710.7462 660.5,-710.7462"/>
<text text-anchor="start" x="695.3862" y="-716.8462" font-family="Helvetica,sans-Serif" font-size="11.00" fill="#000000"> &#160;</text>
</a>
</g>
</g>
<!-- reference_data_link&#45;&gt;reference_data -->
<g id="edge4" class="edge">
<title>reference_data_link:w&#45;&gt;reference_data:e</title>
<path fill="none" stroke="#000000" d="M518.9907,-737.256C430.0093,-722.968 367.7584,-617.6717 339.7314,-561.5778"/>
<polygon fill="#000000" stroke="#000000" points="525.5419,-737.9288 533.1322,-742.3274 529.5209,-738.3375 533.5,-738.7462 533.5,-738.7462 533.5,-738.7462 529.5209,-738.3375 533.8678,-735.165 525.5419,-737.9288 525.5419,-737.9288"/>
<ellipse fill="none" stroke="#000000" cx="522.3586" cy="-737.6018" rx="3.2" ry="3.2"/>
</g>
<!-- reference_data_link&#45;&gt;reference_data -->
<g id="edge5" class="edge">
<title>reference_data_link:w&#45;&gt;reference_data:e</title>
<path fill="none" stroke="#000000" d="M518.9509,-738.6427C425.97,-732.3805 362.183,-619.9606 336.1421,-561.4058"/>
<polygon fill="#000000" stroke="#000000" points="525.5002,-738.6892 533.4744,-742.3461 529.5001,-738.7177 533.5,-738.7462 533.5,-738.7462 533.5,-738.7462 529.5001,-738.7177 533.5256,-735.1463 525.5002,-738.6892 525.5002,-738.6892"/>
<ellipse fill="none" stroke="#000000" cx="522.3003" cy="-738.6665" rx="3.2" ry="3.2"/>
</g>
<!-- tap_occurrence_action -->
<g id="node5" class="node">
<title>tap_occurrence_action</title>
<g id="a_node5"><a xlink:href="../../tables/tap_occurrence_action.html" xlink:title="tap_occurrence_action" target="_top">
<polygon fill="#ffffff" stroke="transparent" points="1174.5,-620.2462 1174.5,-681.2462 1364.5,-681.2462 1364.5,-620.2462 1174.5,-620.2462"/>
<polygon fill="#f5f5f5" stroke="transparent" points="1174.5,-657.7462 1174.5,-680.7462 1364.5,-680.7462 1364.5,-657.7462 1174.5,-657.7462"/>
<polygon fill="none" stroke="#000000" points="1174.5,-657.7462 1174.5,-680.7462 1364.5,-680.7462 1364.5,-657.7462 1174.5,-657.7462"/>
<text text-anchor="start" x="1179.5" y="-666.3462" font-family="Helvetica,sans-Serif" font-weight="bold" font-size="11.00" fill="#000000">tap_occurrence_action</text>
<text text-anchor="start" x="1330.0219" y="-665.8462" font-family="Helvetica,sans-Serif" font-size="11.00" fill="#000000">[table]</text>
<polygon fill="none" stroke="#000000" points="1174.5,-638.7462 1174.5,-657.7462 1364.5,-657.7462 1364.5,-638.7462 1174.5,-638.7462"/>
<text text-anchor="start" x="1177.5" y="-644.8462" font-family="Helvetica,sans-Serif" font-size="11.00" fill="#000000">...</text>
<polygon fill="#ffffff" stroke="transparent" points="1174.5,-619.7462 1174.5,-638.7462 1267.5,-638.7462 1267.5,-619.7462 1174.5,-619.7462"/>
<polygon fill="none" stroke="#000000" points="1174.5,-619.7462 1174.5,-638.7462 1267.5,-638.7462 1267.5,-619.7462 1174.5,-619.7462"/>
<text text-anchor="start" x="1177.5" y="-625.8462" font-family="Helvetica,sans-Serif" font-size="11.00" fill="#000000">&lt; 1</text>
<polygon fill="#ffffff" stroke="transparent" points="1267.5,-619.7462 1267.5,-638.7462 1315.5,-638.7462 1315.5,-619.7462 1267.5,-619.7462"/>
<polygon fill="none" stroke="#000000" points="1267.5,-619.7462 1267.5,-638.7462 1315.5,-638.7462 1315.5,-619.7462 1267.5,-619.7462"/>
<text text-anchor="start" x="1306.3862" y="-625.8462" font-family="Helvetica,sans-Serif" font-size="11.00" fill="#000000"> &#160;</text>
<polygon fill="#ffffff" stroke="transparent" points="1315.5,-619.7462 1315.5,-638.7462 1364.5,-638.7462 1364.5,-619.7462 1315.5,-619.7462"/>
<polygon fill="none" stroke="#000000" points="1315.5,-619.7462 1315.5,-638.7462 1364.5,-638.7462 1364.5,-619.7462 1315.5,-619.7462"/>
<text text-anchor="start" x="1355.3862" y="-625.8462" font-family="Helvetica,sans-Serif" font-size="11.00" fill="#000000"> &#160;</text>
</a>
</g>
</g>
<!-- temporary_absence_occurrence -->
<g id="node6" class="node">
<title>temporary_absence_occurrence</title>
<g id="a_node6"><a xlink:href="../../tables/temporary_absence_occurrence.html" xlink:title="temporary_absence_occurrence" target="_top">
<polygon fill="#ffffff" stroke="transparent" points="844,-617.2462 844,-678.2462 1096,-678.2462 1096,-617.2462 844,-617.2462"/>
<polygon fill="#f5f5f5" stroke="transparent" points="844,-654.7462 844,-677.7462 1096,-677.7462 1096,-654.7462 844,-654.7462"/>
<polygon fill="none" stroke="#000000" points="844,-654.7462 844,-677.7462 1096,-677.7462 1096,-654.7462 844,-654.7462"/>
<text text-anchor="start" x="849" y="-663.3462" font-family="Helvetica,sans-Serif" font-weight="bold" font-size="11.00" fill="#000000">temporary_absence_occurrence</text>
<text text-anchor="start" x="1061.5219" y="-662.8462" font-family="Helvetica,sans-Serif" font-size="11.00" fill="#000000">[table]</text>
<polygon fill="none" stroke="#000000" points="844,-635.7462 844,-654.7462 1096,-654.7462 1096,-635.7462 844,-635.7462"/>
<text text-anchor="start" x="847" y="-641.8462" font-family="Helvetica,sans-Serif" font-size="11.00" fill="#000000">...</text>
<polygon fill="#ffffff" stroke="transparent" points="844,-616.7462 844,-635.7462 964,-635.7462 964,-616.7462 844,-616.7462"/>
<polygon fill="none" stroke="#000000" points="844,-616.7462 844,-635.7462 964,-635.7462 964,-616.7462 844,-616.7462"/>
<text text-anchor="start" x="847" y="-622.8462" font-family="Helvetica,sans-Serif" font-size="11.00" fill="#000000">&lt; 3</text>
<polygon fill="#ffffff" stroke="transparent" points="964,-616.7462 964,-635.7462 1025,-635.7462 1025,-616.7462 964,-616.7462"/>
<polygon fill="none" stroke="#000000" points="964,-616.7462 964,-635.7462 1025,-635.7462 1025,-616.7462 964,-616.7462"/>
<text text-anchor="start" x="1015.8862" y="-622.8462" font-family="Helvetica,sans-Serif" font-size="11.00" fill="#000000"> &#160;</text>
<polygon fill="#ffffff" stroke="transparent" points="1025,-616.7462 1025,-635.7462 1096,-635.7462 1096,-616.7462 1025,-616.7462"/>
<polygon fill="none" stroke="#000000" points="1025,-616.7462 1025,-635.7462 1096,-635.7462 1096,-616.7462 1025,-616.7462"/>
<text text-anchor="start" x="1077.4053" y="-622.8462" font-family="Helvetica,sans-Serif" font-size="11.00" fill="#000000">2 &gt;</text>
</a>
</g>
</g>
<!-- tap_occurrence_action&#45;&gt;temporary_absence_occurrence -->
<g id="edge6" class="edge">
<title>tap_occurrence_action:w&#45;&gt;temporary_absence_occurrence:e</title>
<path fill="none" stroke="#000000" d="M1159.9515,-647.7462C1141.6243,-647.7462 1122.6927,-647.7462 1104.2031,-647.7462"/>
<polygon fill="#000000" stroke="#000000" points="1166.5,-647.7463 1174.5,-651.3462 1170.5,-647.7462 1174.5,-647.7462 1174.5,-647.7462 1174.5,-647.7462 1170.5,-647.7462 1174.5,-644.1462 1166.5,-647.7463 1166.5,-647.7463"/>
<ellipse fill="none" stroke="#000000" cx="1163.3" cy="-647.7463" rx="3.2" ry="3.2"/>
</g>
<!-- temporary_absence_occurrence&#45;&gt;reference_data -->
<g id="edge15" class="edge">
<title>temporary_absence_occurrence:w&#45;&gt;reference_data:e</title>
<path fill="none" stroke="#000000" d="M821.236,-661.7887C686.767,-674.6171 500.084,-686.9643 434,-655.7462 392.4352,-636.111 361.1915,-592.4357 342.6098,-561.2943"/>
<polygon fill="#000000" stroke="#000000" points="827.756,-661.1575 836.0657,-663.9698 831.7374,-660.772 835.7187,-660.3865 835.7187,-660.3865 835.7187,-660.3865 831.7374,-660.772 835.3718,-656.8033 827.756,-661.1575 827.756,-661.1575"/>
<ellipse fill="none" stroke="#000000" cx="824.5709" cy="-661.4659" rx="3.2" ry="3.2"/>
</g>
<!-- temporary_absence_occurrence&#45;&gt;reference_data -->
<g id="edge17" class="edge">
<title>temporary_absence_occurrence:w&#45;&gt;reference_data:e</title>
<path fill="none" stroke="#000000" d="M821.236,-671.7884C686.767,-687.6171 500.084,-699.9643 434,-668.7462 388.0456,-647.0373 354.7072,-595.9424 337.1489,-561.2488"/>
<polygon fill="#000000" stroke="#000000" points="827.776,-671.0017 836.1487,-673.6205 831.7474,-670.524 835.7187,-670.0462 835.7187,-670.0462 835.7187,-670.0462 831.7474,-670.524 835.2888,-666.472 827.776,-671.0017 827.776,-671.0017"/>
<ellipse fill="none" stroke="#000000" cx="824.5989" cy="-671.3839" rx="3.2" ry="3.2"/>
</g>
<!-- temporary_absence_authorisation -->
<g id="node7" class="node">
<title>temporary_absence_authorisation</title>
<g id="a_node7"><a xlink:href="../../tables/temporary_absence_authorisation.html" xlink:title="temporary_absence_authorisation" target="_top">
<polygon fill="#ffffff" stroke="transparent" points="442,-142.7462 442,-650.7462 795,-650.7462 795,-142.7462 442,-142.7462"/>
<polygon fill="#f5f5f5" stroke="transparent" points="444.5,-625.7462 444.5,-648.7462 793.5,-648.7462 793.5,-625.7462 444.5,-625.7462"/>
<polygon fill="none" stroke="#000000" points="444.5,-625.7462 444.5,-648.7462 793.5,-648.7462 793.5,-625.7462 444.5,-625.7462"/>
<text text-anchor="start" x="449.5" y="-634.3462" font-family="Helvetica,sans-Serif" font-weight="bold" font-size="11.00" fill="#000000">temporary_absence_authorisation</text>
<text text-anchor="start" x="758.5437" y="-633.8462" font-family="Helvetica,sans-Serif" font-size="11.00" fill="#000000">[table]</text>
<polygon fill="none" stroke="#000000" points="444.5,-603.7462 444.5,-625.7462 694.5,-625.7462 694.5,-603.7462 444.5,-603.7462"/>
<image xlink:href="../../images/primaryKeys.png" width="11px" height="12px" preserveAspectRatio="xMinYMin meet" x="449.5" y="-620.746"/>
<text text-anchor="start" x="464.5" y="-610.8462" font-family="Helvetica,sans-Serif" font-size="11.00" fill="#000000">id</text>
<polygon fill="none" stroke="#000000" points="694.5,-603.7462 694.5,-625.7462 793.5,-625.7462 793.5,-603.7462 694.5,-603.7462"/>
<text text-anchor="start" x="697.5" y="-611.4462" font-family="Helvetica,sans-Serif" font-size="11.00" fill="#000000">uuid[2147483647]</text>
<polygon fill="none" stroke="#000000" points="444.5,-581.7462 444.5,-603.7462 694.5,-603.7462 694.5,-581.7462 444.5,-581.7462"/>
<text text-anchor="start" x="464.5" y="-588.8462" font-family="Helvetica,sans-Serif" font-size="11.00" fill="#000000">version</text>
<polygon fill="none" stroke="#000000" points="694.5,-581.7462 694.5,-603.7462 793.5,-603.7462 793.5,-581.7462 694.5,-581.7462"/>
<text text-anchor="start" x="697.5" y="-589.4462" font-family="Helvetica,sans-Serif" font-size="11.00" fill="#000000">int4[10]</text>
<polygon fill="#ffffff" stroke="transparent" points="444.5,-559.7462 444.5,-581.7462 694.5,-581.7462 694.5,-559.7462 444.5,-559.7462"/>
<polygon fill="none" stroke="#000000" points="444.5,-559.7462 444.5,-581.7462 694.5,-581.7462 694.5,-559.7462 444.5,-559.7462"/>
<text text-anchor="start" x="464.5" y="-566.8462" font-family="Helvetica,sans-Serif" font-size="11.00" fill="#000000">person_identifier</text>
<polygon fill="none" stroke="#000000" points="694.5,-559.7462 694.5,-581.7462 793.5,-581.7462 793.5,-559.7462 694.5,-559.7462"/>
<text text-anchor="start" x="697.5" y="-567.4462" font-family="Helvetica,sans-Serif" font-size="11.00" fill="#000000">varchar[10]</text>
<polygon fill="#ffffff" stroke="transparent" points="444.5,-537.7462 444.5,-559.7462 694.5,-559.7462 694.5,-537.7462 444.5,-537.7462"/>
<polygon fill="none" stroke="#000000" points="444.5,-537.7462 444.5,-559.7462 694.5,-559.7462 694.5,-537.7462 444.5,-537.7462"/>
<text text-anchor="start" x="464.5" y="-544.8462" font-family="Helvetica,sans-Serif" font-size="11.00" fill="#000000">prison_code</text>
<polygon fill="none" stroke="#000000" points="694.5,-537.7462 694.5,-559.7462 793.5,-559.7462 793.5,-537.7462 694.5,-537.7462"/>
<text text-anchor="start" x="697.5" y="-545.4462" font-family="Helvetica,sans-Serif" font-size="11.00" fill="#000000">varchar[6]</text>
<polygon fill="none" stroke="#000000" points="444.5,-515.7462 444.5,-537.7462 694.5,-537.7462 694.5,-515.7462 444.5,-515.7462"/>
<image xlink:href="../../images/foreignKeys.png" width="11px" height="12px" preserveAspectRatio="xMinYMin meet" x="449.5" y="-532.746"/>
<text text-anchor="start" x="464.5" y="-522.8462" font-family="Helvetica,sans-Serif" font-size="11.00" fill="#000000">absence_type_id</text>
<polygon fill="none" stroke="#000000" points="694.5,-515.7462 694.5,-537.7462 793.5,-537.7462 793.5,-515.7462 694.5,-515.7462"/>
<text text-anchor="start" x="697.5" y="-523.4462" font-family="Helvetica,sans-Serif" font-size="11.00" fill="#000000">int8[19]</text>
<polygon fill="none" stroke="#000000" points="444.5,-493.7462 444.5,-515.7462 694.5,-515.7462 694.5,-493.7462 444.5,-493.7462"/>
<image xlink:href="../../images/foreignKeys.png" width="11px" height="12px" preserveAspectRatio="xMinYMin meet" x="449.5" y="-510.746"/>
<text text-anchor="start" x="464.5" y="-500.8462" font-family="Helvetica,sans-Serif" font-size="11.00" fill="#000000">absence_sub_type_id</text>
<polygon fill="none" stroke="#000000" points="694.5,-493.7462 694.5,-515.7462 793.5,-515.7462 793.5,-493.7462 694.5,-493.7462"/>
<text text-anchor="start" x="697.5" y="-501.4462" font-family="Helvetica,sans-Serif" font-size="11.00" fill="#000000">int8[19]</text>
<polygon fill="none" stroke="#000000" points="444.5,-471.7462 444.5,-493.7462 694.5,-493.7462 694.5,-471.7462 444.5,-471.7462"/>
<image xlink:href="../../images/foreignKeys.png" width="11px" height="12px" preserveAspectRatio="xMinYMin meet" x="449.5" y="-488.746"/>
<text text-anchor="start" x="464.5" y="-478.8462" font-family="Helvetica,sans-Serif" font-size="11.00" fill="#000000">absence_reason_id</text>
<polygon fill="none" stroke="#000000" points="694.5,-471.7462 694.5,-493.7462 793.5,-493.7462 793.5,-471.7462 694.5,-471.7462"/>
<text text-anchor="start" x="697.5" y="-479.4462" font-family="Helvetica,sans-Serif" font-size="11.00" fill="#000000">int8[19]</text>
<polygon fill="none" stroke="#000000" points="444.5,-449.7462 444.5,-471.7462 694.5,-471.7462 694.5,-449.7462 444.5,-449.7462"/>
<text text-anchor="start" x="464.5" y="-456.8462" font-family="Helvetica,sans-Serif" font-size="11.00" fill="#000000">repeat</text>
<polygon fill="none" stroke="#000000" points="694.5,-449.7462 694.5,-471.7462 793.5,-471.7462 793.5,-449.7462 694.5,-449.7462"/>
<text text-anchor="start" x="697.5" y="-457.4462" font-family="Helvetica,sans-Serif" font-size="11.00" fill="#000000">bool[1]</text>
<polygon fill="none" stroke="#000000" points="444.5,-427.7462 444.5,-449.7462 694.5,-449.7462 694.5,-427.7462 444.5,-427.7462"/>
<image xlink:href="../../images/foreignKeys.png" width="11px" height="12px" preserveAspectRatio="xMinYMin meet" x="449.5" y="-444.746"/>
<text text-anchor="start" x="464.5" y="-434.8462" font-family="Helvetica,sans-Serif" font-size="11.00" fill="#000000">status_id</text>
<polygon fill="none" stroke="#000000" points="694.5,-427.7462 694.5,-449.7462 793.5,-449.7462 793.5,-427.7462 694.5,-427.7462"/>
<text text-anchor="start" x="697.5" y="-435.4462" font-family="Helvetica,sans-Serif" font-size="11.00" fill="#000000">int8[19]</text>
<polygon fill="none" stroke="#000000" points="444.5,-405.7462 444.5,-427.7462 694.5,-427.7462 694.5,-405.7462 444.5,-405.7462"/>
<text text-anchor="start" x="464.5" y="-412.8462" font-family="Helvetica,sans-Serif" font-size="11.00" fill="#000000">notes</text>
<polygon fill="none" stroke="#000000" points="694.5,-405.7462 694.5,-427.7462 793.5,-427.7462 793.5,-405.7462 694.5,-405.7462"/>
<text text-anchor="start" x="697.5" y="-413.4462" font-family="Helvetica,sans-Serif" font-size="11.00" fill="#000000">text[2147483647]</text>
<polygon fill="none" stroke="#000000" points="444.5,-383.7462 444.5,-405.7462 694.5,-405.7462 694.5,-383.7462 444.5,-383.7462"/>
<text text-anchor="start" x="464.5" y="-390.8462" font-family="Helvetica,sans-Serif" font-size="11.00" fill="#000000">application_date</text>
<polygon fill="none" stroke="#000000" points="694.5,-383.7462 694.5,-405.7462 793.5,-405.7462 793.5,-383.7462 694.5,-383.7462"/>
<text text-anchor="start" x="697.5" y="-391.4462" font-family="Helvetica,sans-Serif" font-size="11.00" fill="#000000">date[13]</text>
<polygon fill="none" stroke="#000000" points="444.5,-361.7462 444.5,-383.7462 694.5,-383.7462 694.5,-361.7462 444.5,-361.7462"/>
<text text-anchor="start" x="464.5" y="-368.8462" font-family="Helvetica,sans-Serif" font-size="11.00" fill="#000000">submitted_at</text>
<polygon fill="none" stroke="#000000" points="694.5,-361.7462 694.5,-383.7462 793.5,-383.7462 793.5,-361.7462 694.5,-361.7462"/>
<text text-anchor="start" x="697.5" y="-369.4462" font-family="Helvetica,sans-Serif" font-size="11.00" fill="#000000">timestamp[29,6]</text>
<polygon fill="none" stroke="#000000" points="444.5,-339.7462 444.5,-361.7462 694.5,-361.7462 694.5,-339.7462 444.5,-339.7462"/>
<text text-anchor="start" x="464.5" y="-346.8462" font-family="Helvetica,sans-Serif" font-size="11.00" fill="#000000">submitted_by</text>
<polygon fill="none" stroke="#000000" points="694.5,-339.7462 694.5,-361.7462 793.5,-361.7462 793.5,-339.7462 694.5,-339.7462"/>
<text text-anchor="start" x="697.5" y="-347.4462" font-family="Helvetica,sans-Serif" font-size="11.00" fill="#000000">varchar[64]</text>
<polygon fill="none" stroke="#000000" points="444.5,-317.7462 444.5,-339.7462 694.5,-339.7462 694.5,-317.7462 444.5,-317.7462"/>
<text text-anchor="start" x="464.5" y="-324.8462" font-family="Helvetica,sans-Serif" font-size="11.00" fill="#000000">approved_at</text>
<polygon fill="none" stroke="#000000" points="694.5,-317.7462 694.5,-339.7462 793.5,-339.7462 793.5,-317.7462 694.5,-317.7462"/>
<text text-anchor="start" x="697.5" y="-325.4462" font-family="Helvetica,sans-Serif" font-size="11.00" fill="#000000">timestamp[29,6]</text>
<polygon fill="none" stroke="#000000" points="444.5,-295.7462 444.5,-317.7462 694.5,-317.7462 694.5,-295.7462 444.5,-295.7462"/>
<text text-anchor="start" x="464.5" y="-302.8462" font-family="Helvetica,sans-Serif" font-size="11.00" fill="#000000">approved_by</text>
<polygon fill="none" stroke="#000000" points="694.5,-295.7462 694.5,-317.7462 793.5,-317.7462 793.5,-295.7462 694.5,-295.7462"/>
<text text-anchor="start" x="697.5" y="-303.4462" font-family="Helvetica,sans-Serif" font-size="11.00" fill="#000000">varchar[64]</text>
<polygon fill="#ffffff" stroke="transparent" points="444.5,-273.7462 444.5,-295.7462 694.5,-295.7462 694.5,-273.7462 444.5,-273.7462"/>
<polygon fill="none" stroke="#000000" points="444.5,-273.7462 444.5,-295.7462 694.5,-295.7462 694.5,-273.7462 444.5,-273.7462"/>
<text text-anchor="start" x="464.5" y="-280.8462" font-family="Helvetica,sans-Serif" font-size="11.00" fill="#000000">legacy_id</text>
<polygon fill="none" stroke="#000000" points="694.5,-273.7462 694.5,-295.7462 793.5,-295.7462 793.5,-273.7462 694.5,-273.7462"/>
<text text-anchor="start" x="697.5" y="-281.4462" font-family="Helvetica,sans-Serif" font-size="11.00" fill="#000000">int8[19]</text>
<polygon fill="#ffffff" stroke="transparent" points="444.5,-251.7462 444.5,-273.7462 694.5,-273.7462 694.5,-251.7462 444.5,-251.7462"/>
<polygon fill="none" stroke="#000000" points="444.5,-251.7462 444.5,-273.7462 694.5,-273.7462 694.5,-251.7462 444.5,-251.7462"/>
<text text-anchor="start" x="464.5" y="-258.8462" font-family="Helvetica,sans-Serif" font-size="11.00" fill="#000000">from_date</text>
<polygon fill="none" stroke="#000000" points="694.5,-251.7462 694.5,-273.7462 793.5,-273.7462 793.5,-251.7462 694.5,-251.7462"/>
<text text-anchor="start" x="697.5" y="-259.4462" font-family="Helvetica,sans-Serif" font-size="11.00" fill="#000000">date[13]</text>
<polygon fill="#ffffff" stroke="transparent" points="444.5,-229.7462 444.5,-251.7462 694.5,-251.7462 694.5,-229.7462 444.5,-229.7462"/>
<polygon fill="none" stroke="#000000" points="444.5,-229.7462 444.5,-251.7462 694.5,-251.7462 694.5,-229.7462 444.5,-229.7462"/>
<text text-anchor="start" x="464.5" y="-236.8462" font-family="Helvetica,sans-Serif" font-size="11.00" fill="#000000">to_date</text>
<polygon fill="none" stroke="#000000" points="694.5,-229.7462 694.5,-251.7462 793.5,-251.7462 793.5,-229.7462 694.5,-229.7462"/>
<text text-anchor="start" x="697.5" y="-237.4462" font-family="Helvetica,sans-Serif" font-size="11.00" fill="#000000">date[13]</text>
<polygon fill="none" stroke="#000000" points="444.5,-207.7462 444.5,-229.7462 694.5,-229.7462 694.5,-207.7462 444.5,-207.7462"/>
<text text-anchor="start" x="464.5" y="-214.8462" font-family="Helvetica,sans-Serif" font-size="11.00" fill="#000000">schedule</text>
<polygon fill="none" stroke="#000000" points="694.5,-207.7462 694.5,-229.7462 793.5,-229.7462 793.5,-207.7462 694.5,-207.7462"/>
<text text-anchor="start" x="697.2258" y="-215.4462" font-family="Helvetica,sans-Serif" font-size="11.00" fill="#000000">jsonb[2147483647]</text>
<polygon fill="none" stroke="#000000" points="444.5,-185.7462 444.5,-207.7462 694.5,-207.7462 694.5,-185.7462 444.5,-185.7462"/>
<image xlink:href="../../images/foreignKeys.png" width="11px" height="12px" preserveAspectRatio="xMinYMin meet" x="449.5" y="-202.746"/>
<text text-anchor="start" x="464.5" y="-192.8462" font-family="Helvetica,sans-Serif" font-size="11.00" fill="#000000">absence_reason_category_id</text>
<polygon fill="none" stroke="#000000" points="694.5,-185.7462 694.5,-207.7462 793.5,-207.7462 793.5,-185.7462 694.5,-185.7462"/>
<text text-anchor="start" x="697.5" y="-193.4462" font-family="Helvetica,sans-Serif" font-size="11.00" fill="#000000">int8[19]</text>
<polygon fill="none" stroke="#000000" points="444.5,-163.7462 444.5,-185.7462 694.5,-185.7462 694.5,-163.7462 444.5,-163.7462"/>
<text text-anchor="start" x="464.5" y="-170.8462" font-family="Helvetica,sans-Serif" font-size="11.00" fill="#000000">reason_path</text>
<polygon fill="none" stroke="#000000" points="694.5,-163.7462 694.5,-185.7462 793.5,-185.7462 793.5,-163.7462 694.5,-163.7462"/>
<text text-anchor="start" x="697.2258" y="-171.4462" font-family="Helvetica,sans-Serif" font-size="11.00" fill="#000000">jsonb[2147483647]</text>
<polygon fill="#ffffff" stroke="transparent" points="444.5,-144.7462 444.5,-163.7462 573.5,-163.7462 573.5,-144.7462 444.5,-144.7462"/>
<polygon fill="none" stroke="#000000" points="444.5,-144.7462 444.5,-163.7462 573.5,-163.7462 573.5,-144.7462 444.5,-144.7462"/>
<text text-anchor="start" x="447.5" y="-150.8462" font-family="Helvetica,sans-Serif" font-size="11.00" fill="#000000">&lt; 5</text>
<polygon fill="#ffffff" stroke="transparent" points="573.5,-144.7462 573.5,-163.7462 694.5,-163.7462 694.5,-144.7462 573.5,-144.7462"/>
<polygon fill="none" stroke="#000000" points="573.5,-144.7462 573.5,-163.7462 694.5,-163.7462 694.5,-144.7462 573.5,-144.7462"/>
<text text-anchor="start" x="685.3862" y="-150.8462" font-family="Helvetica,sans-Serif" font-size="11.00" fill="#000000"> &#160;</text>
<polygon fill="#ffffff" stroke="transparent" points="694.5,-144.7462 694.5,-163.7462 793.5,-163.7462 793.5,-144.7462 694.5,-144.7462"/>
<polygon fill="none" stroke="#000000" points="694.5,-144.7462 694.5,-163.7462 793.5,-163.7462 793.5,-144.7462 694.5,-144.7462"/>
<text text-anchor="start" x="774.9053" y="-150.8462" font-family="Helvetica,sans-Serif" font-size="11.00" fill="#000000">1 &gt;</text>
<polygon fill="none" stroke="#000000" stroke-width="2" points="443,-143.7462 443,-649.7462 794,-649.7462 794,-143.7462 443,-143.7462"/>
</a>
</g>
</g>
<!-- temporary_absence_occurrence&#45;&gt;temporary_absence_authorisation -->
<g id="edge16" class="edge">
<title>temporary_absence_occurrence:w&#45;&gt;temporary_absence_authorisation:e</title>
<path fill="none" stroke="#000000" d="M820.9856,-615.911C811.7175,-615.166 802.5013,-614.7462 793.5,-614.7462"/>
<polygon fill="#000000" stroke="#000000" points="827.6071,-616.5578 835.2191,-620.9186 831.5881,-616.9467 835.5691,-617.3357 835.5691,-617.3357 835.5691,-617.3357 831.5881,-616.9467 835.9192,-613.7527 827.6071,-616.5578 827.6071,-616.5578"/>
<ellipse fill="none" stroke="#000000" cx="824.4222" cy="-616.2466" rx="3.2" ry="3.2"/>
</g>
<!-- temporary_absence_authorisation&#45;&gt;reference_data -->
<g id="edge7" class="edge">
<title>temporary_absence_authorisation:w&#45;&gt;reference_data:e</title>
<path fill="none" stroke="#000000" d="M430.2777,-200.4416C375.9521,-228.8814 340.7843,-413.9471 328.1939,-492.0541"/>
<polygon fill="#000000" stroke="#000000" points="436.7571,-198.7581 445.4054,-200.2305 440.6286,-197.7522 444.5,-196.7462 444.5,-196.7462 444.5,-196.7462 440.6286,-197.7522 443.5946,-193.2619 436.7571,-198.7581 436.7571,-198.7581"/>
<ellipse fill="none" stroke="#000000" cx="433.6599" cy="-199.5629" rx="3.2" ry="3.2"/>
</g>
<!-- temporary_absence_authorisation&#45;&gt;reference_data -->
<g id="edge8" class="edge">
<title>temporary_absence_authorisation:w&#45;&gt;reference_data:e</title>
<path fill="none" stroke="#000000" d="M429.9207,-483.6264C417.453,-485.0814 404.9533,-488.225 393.1221,-492.1853"/>
<polygon fill="#000000" stroke="#000000" points="436.5145,-483.2283 444.717,-486.3397 440.5073,-482.9873 444.5,-482.7462 444.5,-482.7462 444.5,-482.7462 440.5073,-482.9873 444.283,-479.1527 436.5145,-483.2283 436.5145,-483.2283"/>
<ellipse fill="none" stroke="#000000" cx="433.3204" cy="-483.4212" rx="3.2" ry="3.2"/>
</g>
<!-- temporary_absence_authorisation&#45;&gt;reference_data -->
<g id="edge9" class="edge">
<title>temporary_absence_authorisation:w&#45;&gt;reference_data:e</title>
<path fill="none" stroke="#000000" d="M430.0278,-505.2127C420.3849,-505.8086 410.5966,-506.9377 401.0564,-508.3791"/>
<polygon fill="#000000" stroke="#000000" points="436.5042,-505.004 444.616,-508.3443 440.5021,-504.8751 444.5,-504.7462 444.5,-504.7462 444.5,-504.7462 440.5021,-504.8751 444.384,-501.1481 436.5042,-505.004 436.5042,-505.004"/>
<ellipse fill="none" stroke="#000000" cx="433.3058" cy="-505.1071" rx="3.2" ry="3.2"/>
</g>
<!-- temporary_absence_authorisation&#45;&gt;reference_data -->
<g id="edge10" class="edge">
<title>temporary_absence_authorisation:w&#45;&gt;reference_data:e</title>
<path fill="none" stroke="#000000" d="M429.769,-526.7462C420.2627,-526.7462 410.5742,-526.7462 401.1049,-526.7462"/>
<polygon fill="#000000" stroke="#000000" points="436.5,-526.7463 444.5,-530.3462 440.5,-526.7462 444.5,-526.7462 444.5,-526.7462 444.5,-526.7462 440.5,-526.7462 444.5,-523.1462 436.5,-526.7463 436.5,-526.7463"/>
<ellipse fill="none" stroke="#000000" cx="433.3" cy="-526.7463" rx="3.2" ry="3.2"/>
</g>
<!-- temporary_absence_authorisation&#45;&gt;reference_data -->
<g id="edge11" class="edge">
<title>temporary_absence_authorisation:w&#45;&gt;reference_data:e</title>
<path fill="none" stroke="#000000" d="M429.955,-440.1122C397.7055,-446.1069 369.1889,-470.7432 349.7284,-492.2188"/>
<polygon fill="#000000" stroke="#000000" points="436.535,-439.4943 444.8366,-442.3304 440.5175,-439.1202 444.5,-438.7462 444.5,-438.7462 444.5,-438.7462 440.5175,-439.1202 444.1634,-435.162 436.535,-439.4943 436.535,-439.4943"/>
<ellipse fill="none" stroke="#000000" cx="433.3491" cy="-439.7935" rx="3.2" ry="3.2"/>
</g>
<!-- temporary_absence_movement -->
<g id="node8" class="node">
<title>temporary_absence_movement</title>
<g id="a_node8"><a xlink:href="../../tables/temporary_absence_movement.html" xlink:title="temporary_absence_movement" target="_top">
<polygon fill="#ffffff" stroke="transparent" points="1145,-85.2462 1145,-146.2462 1394,-146.2462 1394,-85.2462 1145,-85.2462"/>
<polygon fill="#f5f5f5" stroke="transparent" points="1145.5,-122.7462 1145.5,-145.7462 1394.5,-145.7462 1394.5,-122.7462 1145.5,-122.7462"/>
<polygon fill="none" stroke="#000000" points="1145.5,-122.7462 1145.5,-145.7462 1394.5,-145.7462 1394.5,-122.7462 1145.5,-122.7462"/>
<text text-anchor="start" x="1150.5" y="-131.3462" font-family="Helvetica,sans-Serif" font-weight="bold" font-size="11.00" fill="#000000">temporary_absence_movement</text>
<text text-anchor="start" x="1360.0219" y="-130.8462" font-family="Helvetica,sans-Serif" font-size="11.00" fill="#000000">[table]</text>
<polygon fill="none" stroke="#000000" points="1145.5,-103.7462 1145.5,-122.7462 1394.5,-122.7462 1394.5,-103.7462 1145.5,-103.7462"/>
<text text-anchor="start" x="1148.5" y="-109.8462" font-family="Helvetica,sans-Serif" font-size="11.00" fill="#000000">...</text>
<polygon fill="#ffffff" stroke="transparent" points="1145.5,-84.7462 1145.5,-103.7462 1268.5,-103.7462 1268.5,-84.7462 1145.5,-84.7462"/>
<polygon fill="none" stroke="#000000" points="1145.5,-84.7462 1145.5,-103.7462 1268.5,-103.7462 1268.5,-84.7462 1145.5,-84.7462"/>
<text text-anchor="start" x="1148.5" y="-90.8462" font-family="Helvetica,sans-Serif" font-size="11.00" fill="#000000">&lt; 3</text>
<polygon fill="#ffffff" stroke="transparent" points="1268.5,-84.7462 1268.5,-103.7462 1331.5,-103.7462 1331.5,-84.7462 1268.5,-84.7462"/>
<polygon fill="none" stroke="#000000" points="1268.5,-84.7462 1268.5,-103.7462 1331.5,-103.7462 1331.5,-84.7462 1268.5,-84.7462"/>
<text text-anchor="start" x="1322.3862" y="-90.8462" font-family="Helvetica,sans-Serif" font-size="11.00" fill="#000000"> &#160;</text>
<polygon fill="#ffffff" stroke="transparent" points="1331.5,-84.7462 1331.5,-103.7462 1394.5,-103.7462 1394.5,-84.7462 1331.5,-84.7462"/>
<polygon fill="none" stroke="#000000" points="1331.5,-84.7462 1331.5,-103.7462 1394.5,-103.7462 1394.5,-84.7462 1331.5,-84.7462"/>
<text text-anchor="start" x="1385.3862" y="-90.8462" font-family="Helvetica,sans-Serif" font-size="11.00" fill="#000000"> &#160;</text>
</a>
</g>
</g>
<!-- temporary_absence_movement&#45;&gt;reference_data -->
<g id="edge12" class="edge">
<title>temporary_absence_movement:w&#45;&gt;reference_data:e</title>
<path fill="none" stroke="#000000" d="M1130.7958,-112.3429C824.5894,-101.3554 679.6585,65.6095 434,-125.7462 375.6267,-171.2161 338.8947,-403.0215 327.1221,-491.9927"/>
<polygon fill="#000000" stroke="#000000" points="1137.503,-112.5268 1145.4013,-116.3448 1141.5015,-112.6365 1145.5,-112.7462 1145.5,-112.7462 1145.5,-112.7462 1141.5015,-112.6365 1145.5987,-109.1476 1137.503,-112.5268 1137.503,-112.5268"/>
<ellipse fill="none" stroke="#000000" cx="1134.3042" cy="-112.4391" rx="3.2" ry="3.2"/>
</g>
<!-- temporary_absence_movement&#45;&gt;reference_data -->
<g id="edge13" class="edge">
<title>temporary_absence_movement:w&#45;&gt;reference_data:e</title>
<path fill="none" stroke="#000000" d="M1130.7958,-112.9428C824.5894,-114.3554 679.6585,52.6095 434,-138.7462 376.9614,-183.1764 340.5857,-405.5189 327.9687,-492.1878"/>
<polygon fill="#000000" stroke="#000000" points="1137.5007,-112.8532 1145.5482,-116.3459 1141.5004,-112.7997 1145.5,-112.7462 1145.5,-112.7462 1145.5,-112.7462 1141.5004,-112.7997 1145.4518,-109.1465 1137.5007,-112.8532 1137.5007,-112.8532"/>
<ellipse fill="none" stroke="#000000" cx="1134.301" cy="-112.896" rx="3.2" ry="3.2"/>
</g>
<!-- temporary_absence_movement&#45;&gt;temporary_absence_occurrence -->
<g id="edge14" class="edge">
<title>temporary_absence_movement:w&#45;&gt;temporary_absence_occurrence:e</title>
<path fill="none" stroke="#000000" d="M1131.2821,-115.0965C1035.081,-147.2357 986.8174,-499.9438 973.735,-613.0556"/>
<polygon fill="#000000" stroke="#000000" points="1137.6071,-114.051 1146.0872,-116.298 1141.5536,-113.3986 1145.5,-112.7462 1145.5,-112.7462 1145.5,-112.7462 1141.5536,-113.3986 1144.9128,-109.1944 1137.6071,-114.051 1137.6071,-114.051"/>
<ellipse fill="none" stroke="#000000" cx="1134.45" cy="-114.5729" rx="3.2" ry="3.2"/>
</g>
</g>
</svg>
