<?xml version="1.0" encoding="UTF-8" standalone="no"?>
<!DOCTYPE svg PUBLIC "-//W3C//DTD SVG 1.1//EN"
 "http://www.w3.org/Graphics/SVG/1.1/DTD/svg11.dtd">
<!-- Generated by graphviz version 2.40.1 (20161225.0304)
 -->
<!-- Title: oneDegreeRelationshipsDiagram Pages: 1 -->
<svg width="870pt" height="630pt"
 viewBox="0.00 0.00 870.00 629.70" xmlns="http://www.w3.org/2000/svg" xmlns:xlink="http://www.w3.org/1999/xlink">
<g id="graph0" class="graph" transform="scale(1 1) rotate(0) translate(4 625.7)">
<title>oneDegreeRelationshipsDiagram</title>
<polygon fill="#ffffff" stroke="transparent" points="-4,4 -4,-625.7 866,-625.7 866,4 -4,4"/>
<text text-anchor="middle" x="72.4936" y="-7.3" font-family="Helvetica,sans-Serif" font-size="11.00" fill="#000000">Generated by SchemaSpy</text>
<!-- temporary_absence_authorisation -->
<g id="node1" class="node">
<title>temporary_absence_authorisation</title>
<g id="a_node1"><a xlink:href="../../tables/temporary_absence_authorisation.html" xlink:title="temporary_absence_authorisation" target="_top">
<polygon fill="#ffffff" stroke="transparent" points="200,-314.7 200,-617.7 468,-617.7 468,-314.7 200,-314.7"/>
<polygon fill="#f5f5f5" stroke="transparent" points="200,-594.2 200,-617.2 468,-617.2 468,-594.2 200,-594.2"/>
<polygon fill="none" stroke="#000000" points="200,-594.2 200,-617.2 468,-617.2 468,-594.2 200,-594.2"/>
<text text-anchor="start" x="205" y="-602.8" font-family="Helvetica,sans-Serif" font-weight="bold" font-size="11.00" fill="#000000">temporary_absence_authorisation</text>
<text text-anchor="start" x="433.5219" y="-602.3" font-family="Helvetica,sans-Serif" font-size="11.00" fill="#000000">[table]</text>
<polygon fill="none" stroke="#000000" points="200,-572.2 200,-594.2 468,-594.2 468,-572.2 200,-572.2"/>
<image xlink:href="../../images/primaryKeys.png" width="11px" height="12px" preserveAspectRatio="xMinYMin meet" x="205" y="-589.2"/>
<text text-anchor="start" x="229" y="-579.3" font-family="Helvetica,sans-Serif" font-size="11.00" fill="#000000">id</text>
<polygon fill="#ffffff" stroke="transparent" points="200,-550.2 200,-572.2 468,-572.2 468,-550.2 200,-550.2"/>
<polygon fill="none" stroke="#000000" points="200,-550.2 200,-572.2 468,-572.2 468,-550.2 200,-550.2"/>
<text text-anchor="start" x="229" y="-557.3" font-family="Helvetica,sans-Serif" font-size="11.00" fill="#000000">person_identifier</text>
<polygon fill="#ffffff" stroke="transparent" points="200,-528.2 200,-550.2 468,-550.2 468,-528.2 200,-528.2"/>
<polygon fill="none" stroke="#000000" points="200,-528.2 200,-550.2 468,-550.2 468,-528.2 200,-528.2"/>
<text text-anchor="start" x="229" y="-535.3" font-family="Helvetica,sans-Serif" font-size="11.00" fill="#000000">prison_code</text>
<polygon fill="none" stroke="#000000" points="200,-506.2 200,-528.2 468,-528.2 468,-506.2 200,-506.2"/>
<image xlink:href="../../images/foreignKeys.png" width="11px" height="12px" preserveAspectRatio="xMinYMin meet" x="205" y="-523.2"/>
<text text-anchor="start" x="229" y="-513.3" font-family="Helvetica,sans-Serif" font-size="11.00" fill="#000000">absence_type_id</text>
<polygon fill="none" stroke="#000000" points="200,-484.2 200,-506.2 468,-506.2 468,-484.2 200,-484.2"/>
<image xlink:href="../../images/foreignKeys.png" width="11px" height="12px" preserveAspectRatio="xMinYMin meet" x="205" y="-501.2"/>
<text text-anchor="start" x="229" y="-491.3" font-family="Helvetica,sans-Serif" font-size="11.00" fill="#000000">absence_sub_type_id</text>
<polygon fill="none" stroke="#000000" points="200,-462.2 200,-484.2 468,-484.2 468,-462.2 200,-462.2"/>
<image xlink:href="../../images/foreignKeys.png" width="11px" height="12px" preserveAspectRatio="xMinYMin meet" x="205" y="-479.2"/>
<text text-anchor="start" x="229" y="-469.3" font-family="Helvetica,sans-Serif" font-size="11.00" fill="#000000">absence_reason_id</text>
<polygon fill="none" stroke="#000000" points="200,-440.2 200,-462.2 468,-462.2 468,-440.2 200,-440.2"/>
<image xlink:href="../../images/foreignKeys.png" width="11px" height="12px" preserveAspectRatio="xMinYMin meet" x="205" y="-457.2"/>
<text text-anchor="start" x="229" y="-447.3" font-family="Helvetica,sans-Serif" font-size="11.00" fill="#000000">status_id</text>
<polygon fill="#ffffff" stroke="transparent" points="200,-418.2 200,-440.2 468,-440.2 468,-418.2 200,-418.2"/>
<polygon fill="none" stroke="#000000" points="200,-418.2 200,-440.2 468,-440.2 468,-418.2 200,-418.2"/>
<text text-anchor="start" x="229" y="-425.3" font-family="Helvetica,sans-Serif" font-size="11.00" fill="#000000">legacy_id</text>
<polygon fill="#ffffff" stroke="transparent" points="200,-396.2 200,-418.2 468,-418.2 468,-396.2 200,-396.2"/>
<polygon fill="none" stroke="#000000" points="200,-396.2 200,-418.2 468,-418.2 468,-396.2 200,-396.2"/>
<text text-anchor="start" x="229" y="-403.3" font-family="Helvetica,sans-Serif" font-size="11.00" fill="#000000">from_date</text>
<polygon fill="#ffffff" stroke="transparent" points="200,-374.2 200,-396.2 468,-396.2 468,-374.2 200,-374.2"/>
<polygon fill="none" stroke="#000000" points="200,-374.2 200,-396.2 468,-396.2 468,-374.2 200,-374.2"/>
<text text-anchor="start" x="229" y="-381.3" font-family="Helvetica,sans-Serif" font-size="11.00" fill="#000000">to_date</text>
<polygon fill="none" stroke="#000000" points="200,-352.2 200,-374.2 468,-374.2 468,-352.2 200,-352.2"/>
<image xlink:href="../../images/foreignKeys.png" width="11px" height="12px" preserveAspectRatio="xMinYMin meet" x="205" y="-369.2"/>
<text text-anchor="start" x="229" y="-359.3" font-family="Helvetica,sans-Serif" font-size="11.00" fill="#000000">absence_reason_category_id</text>
<polygon fill="none" stroke="#000000" points="200,-333.2 200,-352.2 468,-352.2 468,-333.2 200,-333.2"/>
<text text-anchor="start" x="203" y="-339.3" font-family="Helvetica,sans-Serif" font-size="11.00" fill="#000000">...</text>
<polygon fill="#ffffff" stroke="transparent" points="200,-314.2 200,-333.2 328,-333.2 328,-314.2 200,-314.2"/>
<polygon fill="none" stroke="#000000" points="200,-314.2 200,-333.2 328,-333.2 328,-314.2 200,-314.2"/>
<text text-anchor="start" x="203" y="-320.3" font-family="Helvetica,sans-Serif" font-size="11.00" fill="#000000">&lt; 5</text>
<polygon fill="#ffffff" stroke="transparent" points="328,-314.2 328,-333.2 393,-333.2 393,-314.2 328,-314.2"/>
<polygon fill="none" stroke="#000000" points="328,-314.2 328,-333.2 393,-333.2 393,-314.2 328,-314.2"/>
<text text-anchor="start" x="383.8862" y="-320.3" font-family="Helvetica,sans-Serif" font-size="11.00" fill="#000000"> &#160;</text>
<polygon fill="#ffffff" stroke="transparent" points="393,-314.2 393,-333.2 468,-333.2 468,-314.2 393,-314.2"/>
<polygon fill="none" stroke="#000000" points="393,-314.2 393,-333.2 468,-333.2 468,-314.2 393,-314.2"/>
<text text-anchor="start" x="449.4053" y="-320.3" font-family="Helvetica,sans-Serif" font-size="11.00" fill="#000000">1 &gt;</text>
</a>
</g>
</g>
<!-- reference_data -->
<g id="node2" class="node">
<title>reference_data</title>
<g id="a_node2"><a xlink:href="../../tables/reference_data.html" xlink:title="reference_data" target="_top">
<polygon fill="#ffffff" stroke="transparent" points="8,-336.7 8,-485.7 151,-485.7 151,-336.7 8,-336.7"/>
<polygon fill="#f5f5f5" stroke="transparent" points="8.5,-462.2 8.5,-485.2 151.5,-485.2 151.5,-462.2 8.5,-462.2"/>
<polygon fill="none" stroke="#000000" points="8.5,-462.2 8.5,-485.2 151.5,-485.2 151.5,-462.2 8.5,-462.2"/>
<text text-anchor="start" x="13.5" y="-470.8" font-family="Helvetica,sans-Serif" font-weight="bold" font-size="11.00" fill="#000000">reference_data</text>
<text text-anchor="start" x="116.5437" y="-470.3" font-family="Helvetica,sans-Serif" font-size="11.00" fill="#000000">[table]</text>
<polygon fill="none" stroke="#000000" points="8.5,-440.2 8.5,-462.2 151.5,-462.2 151.5,-440.2 8.5,-440.2"/>
<image xlink:href="../../images/primaryKeys.png" width="11px" height="12px" preserveAspectRatio="xMinYMin meet" x="13.5" y="-457.2"/>
<text text-anchor="start" x="28.5" y="-447.3" font-family="Helvetica,sans-Serif" font-size="11.00" fill="#000000">id</text>
<polygon fill="#ffffff" stroke="transparent" points="8.5,-418.2 8.5,-440.2 151.5,-440.2 151.5,-418.2 8.5,-418.2"/>
<polygon fill="none" stroke="#000000" points="8.5,-418.2 8.5,-440.2 151.5,-440.2 151.5,-418.2 8.5,-418.2"/>
<image xlink:href="../../images/foreignKeys.png" width="11px" height="12px" preserveAspectRatio="xMinYMin meet" x="13.5" y="-435.2"/>
<text text-anchor="start" x="28.5" y="-425.3" font-family="Helvetica,sans-Serif" font-size="11.00" fill="#000000">domain</text>
<polygon fill="#ffffff" stroke="transparent" points="8.5,-396.2 8.5,-418.2 151.5,-418.2 151.5,-396.2 8.5,-396.2"/>
<polygon fill="none" stroke="#000000" points="8.5,-396.2 8.5,-418.2 151.5,-418.2 151.5,-396.2 8.5,-396.2"/>
<text text-anchor="start" x="28.5" y="-403.3" font-family="Helvetica,sans-Serif" font-size="11.00" fill="#000000">code</text>
<polygon fill="#ffffff" stroke="transparent" points="8.5,-374.2 8.5,-396.2 151.5,-396.2 151.5,-374.2 8.5,-374.2"/>
<polygon fill="none" stroke="#000000" points="8.5,-374.2 8.5,-396.2 151.5,-396.2 151.5,-374.2 8.5,-374.2"/>
<text text-anchor="start" x="28.5" y="-381.3" font-family="Helvetica,sans-Serif" font-size="11.00" fill="#000000">sequence_number</text>
<polygon fill="none" stroke="#000000" points="8.5,-355.2 8.5,-374.2 151.5,-374.2 151.5,-355.2 8.5,-355.2"/>
<text text-anchor="start" x="11.5" y="-361.3" font-family="Helvetica,sans-Serif" font-size="11.00" fill="#000000">...</text>
<polygon fill="#ffffff" stroke="transparent" points="8.5,-336.2 8.5,-355.2 70.5,-355.2 70.5,-336.2 8.5,-336.2"/>
<polygon fill="none" stroke="#000000" points="8.5,-336.2 8.5,-355.2 70.5,-355.2 70.5,-336.2 8.5,-336.2"/>
<text text-anchor="start" x="11.5" y="-342.3" font-family="Helvetica,sans-Serif" font-size="11.00" fill="#000000">&lt; 1</text>
<polygon fill="#ffffff" stroke="transparent" points="70.5,-336.2 70.5,-355.2 103.5,-355.2 103.5,-336.2 70.5,-336.2"/>
<polygon fill="none" stroke="#000000" points="70.5,-336.2 70.5,-355.2 103.5,-355.2 103.5,-336.2 70.5,-336.2"/>
<text text-anchor="start" x="94.3862" y="-342.3" font-family="Helvetica,sans-Serif" font-size="11.00" fill="#000000"> &#160;</text>
<polygon fill="#ffffff" stroke="transparent" points="103.5,-336.2 103.5,-355.2 151.5,-355.2 151.5,-336.2 103.5,-336.2"/>
<polygon fill="none" stroke="#000000" points="103.5,-336.2 103.5,-355.2 151.5,-355.2 151.5,-336.2 103.5,-336.2"/>
<text text-anchor="start" x="126.7904" y="-342.3" font-family="Helvetica,sans-Serif" font-size="11.00" fill="#000000">12 &gt;</text>
</a>
</g>
</g>
<!-- temporary_absence_authorisation&#45;&gt;reference_data -->
<g id="edge1" class="edge">
<title>temporary_absence_authorisation:w&#45;&gt;reference_data:e</title>
<path fill="none" stroke="#000000" d="M186.0395,-367.6849C164.905,-385.6176 190.0523,-451.2 151.5,-451.2"/>
<polygon fill="#000000" stroke="#000000" points="192.3834,-365.6469 201.1011,-366.6275 196.1917,-364.4235 200,-363.2 200,-363.2 200,-363.2 196.1917,-364.4235 198.8989,-359.7725 192.3834,-365.6469 192.3834,-365.6469"/>
<ellipse fill="none" stroke="#000000" cx="189.3367" cy="-366.6257" rx="3.2" ry="3.2"/>
</g>
<!-- temporary_absence_authorisation&#45;&gt;reference_data -->
<g id="edge2" class="edge">
<title>temporary_absence_authorisation:w&#45;&gt;reference_data:e</title>
<path fill="none" stroke="#000000" d="M185.7648,-469.7625C174.3432,-463.575 169.2522,-451.2 151.5,-451.2"/>
<polygon fill="#000000" stroke="#000000" points="192.2235,-471.3221 199.1549,-476.6994 196.1118,-472.2611 200,-473.2 200,-473.2 200,-473.2 196.1118,-472.2611 200.8451,-469.7006 192.2235,-471.3221 192.2235,-471.3221"/>
<ellipse fill="none" stroke="#000000" cx="189.1129" cy="-470.5709" rx="3.2" ry="3.2"/>
</g>
<!-- temporary_absence_authorisation&#45;&gt;reference_data -->
<g id="edge3" class="edge">
<title>temporary_absence_authorisation:w&#45;&gt;reference_data:e</title>
<path fill="none" stroke="#000000" d="M186.0348,-490.1526C173.2645,-478.5953 174.4651,-451.2 151.5,-451.2"/>
<polygon fill="#000000" stroke="#000000" points="192.4763,-492.4807 198.7763,-498.5857 196.2382,-493.8404 200,-495.2 200,-495.2 200,-495.2 196.2382,-493.8404 201.2237,-491.8143 192.4763,-492.4807 192.4763,-492.4807"/>
<ellipse fill="none" stroke="#000000" cx="189.4668" cy="-491.393" rx="3.2" ry="3.2"/>
</g>
<!-- temporary_absence_authorisation&#45;&gt;reference_data -->
<g id="edge4" class="edge">
<title>temporary_absence_authorisation:w&#45;&gt;reference_data:e</title>
<path fill="none" stroke="#000000" d="M185.9938,-512.0211C170.1593,-496.4622 181.6452,-451.2 151.5,-451.2"/>
<polygon fill="#000000" stroke="#000000" points="192.4965,-514.4255 198.7515,-520.5766 196.2483,-515.8127 200,-517.2 200,-517.2 200,-517.2 196.2483,-515.8127 201.2485,-513.8234 192.4965,-514.4255 192.4965,-514.4255"/>
<ellipse fill="none" stroke="#000000" cx="189.4951" cy="-513.3157" rx="3.2" ry="3.2"/>
</g>
<!-- temporary_absence_authorisation&#45;&gt;reference_data -->
<g id="edge5" class="edge">
<title>temporary_absence_authorisation:w&#45;&gt;reference_data:e</title>
<path fill="none" stroke="#000000" d="M185.2829,-451.2C174.2886,-451.2 167.1615,-451.2 151.5,-451.2"/>
<polygon fill="#000000" stroke="#000000" points="192,-451.2001 200,-454.8 196,-451.2 200,-451.2 200,-451.2 200,-451.2 196,-451.2 200,-447.6 192,-451.2001 192,-451.2001"/>
<ellipse fill="none" stroke="#000000" cx="188.8" cy="-451.2001" rx="3.2" ry="3.2"/>
</g>
<!-- temporary_absence_occurrence -->
<g id="node3" class="node">
<title>temporary_absence_occurrence</title>
<g id="a_node3"><a xlink:href="../../tables/temporary_absence_occurrence.html" xlink:title="temporary_absence_occurrence" target="_top">
<polygon fill="#ffffff" stroke="transparent" points="517,-38.2 517,-458.2 854,-458.2 854,-38.2 517,-38.2"/>
<polygon fill="#f5f5f5" stroke="transparent" points="519.5,-433.2 519.5,-456.2 852.5,-456.2 852.5,-433.2 519.5,-433.2"/>
<polygon fill="none" stroke="#000000" points="519.5,-433.2 519.5,-456.2 852.5,-456.2 852.5,-433.2 519.5,-433.2"/>
<text text-anchor="start" x="524.5" y="-441.8" font-family="Helvetica,sans-Serif" font-weight="bold" font-size="11.00" fill="#000000">temporary_absence_occurrence</text>
<text text-anchor="start" x="817.5437" y="-441.3" font-family="Helvetica,sans-Serif" font-size="11.00" fill="#000000">[table]</text>
<polygon fill="none" stroke="#000000" points="519.5,-411.2 519.5,-433.2 753.5,-433.2 753.5,-411.2 519.5,-411.2"/>
<image xlink:href="../../images/primaryKeys.png" width="11px" height="12px" preserveAspectRatio="xMinYMin meet" x="524.5" y="-428.2"/>
<text text-anchor="start" x="539.5" y="-418.3" font-family="Helvetica,sans-Serif" font-size="11.00" fill="#000000">id</text>
<polygon fill="none" stroke="#000000" points="753.5,-411.2 753.5,-433.2 852.5,-433.2 852.5,-411.2 753.5,-411.2"/>
<text text-anchor="start" x="756.5" y="-418.9" font-family="Helvetica,sans-Serif" font-size="11.00" fill="#000000">uuid[2147483647]</text>
<polygon fill="none" stroke="#000000" points="519.5,-389.2 519.5,-411.2 753.5,-411.2 753.5,-389.2 519.5,-389.2"/>
<text text-anchor="start" x="539.5" y="-396.3" font-family="Helvetica,sans-Serif" font-size="11.00" fill="#000000">version</text>
<polygon fill="none" stroke="#000000" points="753.5,-389.2 753.5,-411.2 852.5,-411.2 852.5,-389.2 753.5,-389.2"/>
<text text-anchor="start" x="756.5" y="-396.9" font-family="Helvetica,sans-Serif" font-size="11.00" fill="#000000">int4[10]</text>
<polygon fill="#ffffff" stroke="transparent" points="519.5,-367.2 519.5,-389.2 753.5,-389.2 753.5,-367.2 519.5,-367.2"/>
<polygon fill="none" stroke="#000000" points="519.5,-367.2 519.5,-389.2 753.5,-389.2 753.5,-367.2 519.5,-367.2"/>
<text text-anchor="start" x="539.5" y="-374.3" font-family="Helvetica,sans-Serif" font-size="11.00" fill="#000000">person_identifier</text>
<polygon fill="none" stroke="#000000" points="753.5,-367.2 753.5,-389.2 852.5,-389.2 852.5,-367.2 753.5,-367.2"/>
<text text-anchor="start" x="756.5" y="-374.9" font-family="Helvetica,sans-Serif" font-size="11.00" fill="#000000">varchar[10]</text>
<polygon fill="#ffffff" stroke="transparent" points="519.5,-345.2 519.5,-367.2 753.5,-367.2 753.5,-345.2 519.5,-345.2"/>
<polygon fill="none" stroke="#000000" points="519.5,-345.2 519.5,-367.2 753.5,-367.2 753.5,-345.2 519.5,-345.2"/>
<image xlink:href="../../images/foreignKeys.png" width="11px" height="12px" preserveAspectRatio="xMinYMin meet" x="524.5" y="-362.2"/>
<text text-anchor="start" x="539.5" y="-352.3" font-family="Helvetica,sans-Serif" font-size="11.00" fill="#000000">authorisation_id</text>
<polygon fill="none" stroke="#000000" points="753.5,-345.2 753.5,-367.2 852.5,-367.2 852.5,-345.2 753.5,-345.2"/>
<text text-anchor="start" x="756.5" y="-352.9" font-family="Helvetica,sans-Serif" font-size="11.00" fill="#000000">uuid[2147483647]</text>
<polygon fill="#ffffff" stroke="transparent" points="519.5,-323.2 519.5,-345.2 753.5,-345.2 753.5,-323.2 519.5,-323.2"/>
<polygon fill="none" stroke="#000000" points="519.5,-323.2 519.5,-345.2 753.5,-345.2 753.5,-323.2 519.5,-323.2"/>
<text text-anchor="start" x="539.5" y="-330.3" font-family="Helvetica,sans-Serif" font-size="11.00" fill="#000000">release_at</text>
<polygon fill="none" stroke="#000000" points="753.5,-323.2 753.5,-345.2 852.5,-345.2 852.5,-323.2 753.5,-323.2"/>
<text text-anchor="start" x="756.5" y="-330.9" font-family="Helvetica,sans-Serif" font-size="11.00" fill="#000000">timestamp[29,6]</text>
<polygon fill="#ffffff" stroke="transparent" points="519.5,-301.2 519.5,-323.2 753.5,-323.2 753.5,-301.2 519.5,-301.2"/>
<polygon fill="none" stroke="#000000" points="519.5,-301.2 519.5,-323.2 753.5,-323.2 753.5,-301.2 519.5,-301.2"/>
<text text-anchor="start" x="539.5" y="-308.3" font-family="Helvetica,sans-Serif" font-size="11.00" fill="#000000">return_by</text>
<polygon fill="none" stroke="#000000" points="753.5,-301.2 753.5,-323.2 852.5,-323.2 852.5,-301.2 753.5,-301.2"/>
<text text-anchor="start" x="756.5" y="-308.9" font-family="Helvetica,sans-Serif" font-size="11.00" fill="#000000">timestamp[29,6]</text>
<polygon fill="none" stroke="#000000" points="519.5,-279.2 519.5,-301.2 753.5,-301.2 753.5,-279.2 519.5,-279.2"/>
<image xlink:href="../../images/foreignKeys.png" width="11px" height="12px" preserveAspectRatio="xMinYMin meet" x="524.5" y="-296.2"/>
<text text-anchor="start" x="539.5" y="-286.3" font-family="Helvetica,sans-Serif" font-size="11.00" fill="#000000">accompanied_by_id</text>
<polygon fill="none" stroke="#000000" points="753.5,-279.2 753.5,-301.2 852.5,-301.2 852.5,-279.2 753.5,-279.2"/>
<text text-anchor="start" x="756.5" y="-286.9" font-family="Helvetica,sans-Serif" font-size="11.00" fill="#000000">int8[19]</text>
<polygon fill="none" stroke="#000000" points="519.5,-257.2 519.5,-279.2 753.5,-279.2 753.5,-257.2 519.5,-257.2"/>
<image xlink:href="../../images/foreignKeys.png" width="11px" height="12px" preserveAspectRatio="xMinYMin meet" x="524.5" y="-274.2"/>
<text text-anchor="start" x="539.5" y="-264.3" font-family="Helvetica,sans-Serif" font-size="11.00" fill="#000000">transport_id</text>
<polygon fill="none" stroke="#000000" points="753.5,-257.2 753.5,-279.2 852.5,-279.2 852.5,-257.2 753.5,-257.2"/>
<text text-anchor="start" x="756.5" y="-264.9" font-family="Helvetica,sans-Serif" font-size="11.00" fill="#000000">int8[19]</text>
<polygon fill="none" stroke="#000000" points="519.5,-235.2 519.5,-257.2 753.5,-257.2 753.5,-235.2 519.5,-235.2"/>
<text text-anchor="start" x="539.5" y="-242.3" font-family="Helvetica,sans-Serif" font-size="11.00" fill="#000000">contact_information</text>
<polygon fill="none" stroke="#000000" points="753.5,-235.2 753.5,-257.2 852.5,-257.2 852.5,-235.2 753.5,-235.2"/>
<text text-anchor="start" x="756.5" y="-242.9" font-family="Helvetica,sans-Serif" font-size="11.00" fill="#000000">text[2147483647]</text>
<polygon fill="none" stroke="#000000" points="519.5,-213.2 519.5,-235.2 753.5,-235.2 753.5,-213.2 519.5,-213.2"/>
<text text-anchor="start" x="539.5" y="-220.3" font-family="Helvetica,sans-Serif" font-size="11.00" fill="#000000">notes</text>
<polygon fill="none" stroke="#000000" points="753.5,-213.2 753.5,-235.2 852.5,-235.2 852.5,-213.2 753.5,-213.2"/>
<text text-anchor="start" x="756.5" y="-220.9" font-family="Helvetica,sans-Serif" font-size="11.00" fill="#000000">text[2147483647]</text>
<polygon fill="none" stroke="#000000" points="519.5,-191.2 519.5,-213.2 753.5,-213.2 753.5,-191.2 519.5,-191.2"/>
<text text-anchor="start" x="539.5" y="-198.3" font-family="Helvetica,sans-Serif" font-size="11.00" fill="#000000">added_at</text>
<polygon fill="none" stroke="#000000" points="753.5,-191.2 753.5,-213.2 852.5,-213.2 852.5,-191.2 753.5,-191.2"/>
<text text-anchor="start" x="756.5" y="-198.9" font-family="Helvetica,sans-Serif" font-size="11.00" fill="#000000">timestamp[29,6]</text>
<polygon fill="none" stroke="#000000" points="519.5,-169.2 519.5,-191.2 753.5,-191.2 753.5,-169.2 519.5,-169.2"/>
<text text-anchor="start" x="539.5" y="-176.3" font-family="Helvetica,sans-Serif" font-size="11.00" fill="#000000">added_by</text>
<polygon fill="none" stroke="#000000" points="753.5,-169.2 753.5,-191.2 852.5,-191.2 852.5,-169.2 753.5,-169.2"/>
<text text-anchor="start" x="756.5" y="-176.9" font-family="Helvetica,sans-Serif" font-size="11.00" fill="#000000">varchar[64]</text>
<polygon fill="none" stroke="#000000" points="519.5,-147.2 519.5,-169.2 753.5,-169.2 753.5,-147.2 519.5,-147.2"/>
<text text-anchor="start" x="539.5" y="-154.3" font-family="Helvetica,sans-Serif" font-size="11.00" fill="#000000">cancelled_at</text>
<polygon fill="none" stroke="#000000" points="753.5,-147.2 753.5,-169.2 852.5,-169.2 852.5,-147.2 753.5,-147.2"/>
<text text-anchor="start" x="756.5" y="-154.9" font-family="Helvetica,sans-Serif" font-size="11.00" fill="#000000">timestamp[29,6]</text>
<polygon fill="none" stroke="#000000" points="519.5,-125.2 519.5,-147.2 753.5,-147.2 753.5,-125.2 519.5,-125.2"/>
<text text-anchor="start" x="539.5" y="-132.3" font-family="Helvetica,sans-Serif" font-size="11.00" fill="#000000">cancelled_by</text>
<polygon fill="none" stroke="#000000" points="753.5,-125.2 753.5,-147.2 852.5,-147.2 852.5,-125.2 753.5,-125.2"/>
<text text-anchor="start" x="756.5" y="-132.9" font-family="Helvetica,sans-Serif" font-size="11.00" fill="#000000">varchar[64]</text>
<polygon fill="#ffffff" stroke="transparent" points="519.5,-103.2 519.5,-125.2 753.5,-125.2 753.5,-103.2 519.5,-103.2"/>
<polygon fill="none" stroke="#000000" points="519.5,-103.2 519.5,-125.2 753.5,-125.2 753.5,-103.2 519.5,-103.2"/>
<text text-anchor="start" x="539.5" y="-110.3" font-family="Helvetica,sans-Serif" font-size="11.00" fill="#000000">legacy_id</text>
<polygon fill="none" stroke="#000000" points="753.5,-103.2 753.5,-125.2 852.5,-125.2 852.5,-103.2 753.5,-103.2"/>
<text text-anchor="start" x="756.5" y="-110.9" font-family="Helvetica,sans-Serif" font-size="11.00" fill="#000000">int8[19]</text>
<polygon fill="none" stroke="#000000" points="519.5,-81.2 519.5,-103.2 753.5,-103.2 753.5,-81.2 519.5,-81.2"/>
<text text-anchor="start" x="539.5" y="-88.3" font-family="Helvetica,sans-Serif" font-size="11.00" fill="#000000">location</text>
<polygon fill="none" stroke="#000000" points="753.5,-81.2 753.5,-103.2 852.5,-103.2 852.5,-81.2 753.5,-81.2"/>
<text text-anchor="start" x="756.2258" y="-88.9" font-family="Helvetica,sans-Serif" font-size="11.00" fill="#000000">jsonb[2147483647]</text>
<polygon fill="none" stroke="#000000" points="519.5,-59.2 519.5,-81.2 753.5,-81.2 753.5,-59.2 519.5,-59.2"/>
<text text-anchor="start" x="539.5" y="-66.3" font-family="Helvetica,sans-Serif" font-size="11.00" fill="#000000">schedule_reference</text>
<polygon fill="none" stroke="#000000" points="753.5,-59.2 753.5,-81.2 852.5,-81.2 852.5,-59.2 753.5,-59.2"/>
<text text-anchor="start" x="756.2258" y="-66.9" font-family="Helvetica,sans-Serif" font-size="11.00" fill="#000000">jsonb[2147483647]</text>
<polygon fill="#ffffff" stroke="transparent" points="519.5,-40.2 519.5,-59.2 640.5,-59.2 640.5,-40.2 519.5,-40.2"/>
<polygon fill="none" stroke="#000000" points="519.5,-40.2 519.5,-59.2 640.5,-59.2 640.5,-40.2 519.5,-40.2"/>
<text text-anchor="start" x="522.5" y="-46.3" font-family="Helvetica,sans-Serif" font-size="11.00" fill="#000000">&lt; 3</text>
<polygon fill="#ffffff" stroke="transparent" points="640.5,-40.2 640.5,-59.2 753.5,-59.2 753.5,-40.2 640.5,-40.2"/>
<polygon fill="none" stroke="#000000" points="640.5,-40.2 640.5,-59.2 753.5,-59.2 753.5,-40.2 640.5,-40.2"/>
<text text-anchor="start" x="744.3862" y="-46.3" font-family="Helvetica,sans-Serif" font-size="11.00" fill="#000000"> &#160;</text>
<polygon fill="#ffffff" stroke="transparent" points="753.5,-40.2 753.5,-59.2 852.5,-59.2 852.5,-40.2 753.5,-40.2"/>
<polygon fill="none" stroke="#000000" points="753.5,-40.2 753.5,-59.2 852.5,-59.2 852.5,-40.2 753.5,-40.2"/>
<text text-anchor="start" x="833.9053" y="-46.3" font-family="Helvetica,sans-Serif" font-size="11.00" fill="#000000">0 &gt;</text>
<polygon fill="none" stroke="#000000" stroke-width="2" points="518,-39.2 518,-457.2 853,-457.2 853,-39.2 518,-39.2"/>
</a>
</g>
</g>
<!-- temporary_absence_occurrence&#45;&gt;temporary_absence_authorisation -->
<g id="edge7" class="edge">
<title>temporary_absence_occurrence:w&#45;&gt;temporary_absence_authorisation:e</title>
<path fill="none" stroke="#000000" d="M504.7651,-358.1624C432.2706,-380.3492 565.7952,-583.2 468,-583.2"/>
<polygon fill="#000000" stroke="#000000" points="511.57,-357.2562 519.9753,-359.7685 515.535,-356.7281 519.5,-356.2 519.5,-356.2 519.5,-356.2 515.535,-356.7281 519.0247,-352.6315 511.57,-357.2562 511.57,-357.2562"/>
<ellipse fill="none" stroke="#000000" cx="508.398" cy="-357.6787" rx="3.2" ry="3.2"/>
</g>
<!-- temporary_absence_occurrence&#45;&gt;reference_data -->
<g id="edge6" class="edge">
<title>temporary_absence_occurrence:w&#45;&gt;reference_data:e</title>
<path fill="none" stroke="#000000" d="M504.9547,-289.879C423.2355,-286.6828 245.5403,-261.5783 192,-304.2 138.9809,-346.4068 219.2676,-451.2 151.5,-451.2"/>
<polygon fill="#000000" stroke="#000000" points="511.5019,-290.0234 519.4205,-293.7991 515.501,-290.1117 519.5,-290.2 519.5,-290.2 519.5,-290.2 515.501,-290.1117 519.5795,-286.6009 511.5019,-290.0234 511.5019,-290.0234"/>
<ellipse fill="none" stroke="#000000" cx="508.3027" cy="-289.9528" rx="3.2" ry="3.2"/>
</g>
<!-- temporary_absence_occurrence&#45;&gt;reference_data -->
<g id="edge8" class="edge">
<title>temporary_absence_occurrence:w&#45;&gt;reference_data:e</title>
<path fill="none" stroke="#000000" d="M504.8339,-267.916C369.13,-262.6639 300.9988,-187.3521 192,-276.2 130.1198,-326.6403 231.3335,-451.2 151.5,-451.2"/>
<polygon fill="#000000" stroke="#000000" points="511.5015,-268.0451 519.4303,-271.7993 515.5007,-268.1225 519.5,-268.2 519.5,-268.2 519.5,-268.2 515.5007,-268.1225 519.5697,-264.6007 511.5015,-268.0451 511.5015,-268.0451"/>
<ellipse fill="none" stroke="#000000" cx="508.3021" cy="-267.9831" rx="3.2" ry="3.2"/>
</g>
</g>
</svg>
