<?xml version="1.0" encoding="UTF-8" standalone="no"?>
<!DOCTYPE svg PUBLIC "-//W3C//DTD SVG 1.1//EN"
 "http://www.w3.org/Graphics/SVG/1.1/DTD/svg11.dtd">
<!-- Generated by graphviz version 2.40.1 (20161225.0304)
 -->
<!-- Title: twoDegreesRelationshipsDiagram Pages: 1 -->
<svg width="1112pt" height="557pt"
 viewBox="0.00 0.00 1112.00 556.70" xmlns="http://www.w3.org/2000/svg" xmlns:xlink="http://www.w3.org/1999/xlink">
<g id="graph0" class="graph" transform="scale(1 1) rotate(0) translate(4 552.7)">
<title>twoDegreesRelationshipsDiagram</title>
<polygon fill="#ffffff" stroke="transparent" points="-4,4 -4,-552.7 1108,-552.7 1108,4 -4,4"/>
<text text-anchor="middle" x="72.4936" y="-7.3" font-family="Helvetica,sans-Serif" font-size="11.00" fill="#000000">Generated by SchemaSpy</text>
<!-- reference_data -->
<g id="node1" class="node">
<title>reference_data</title>
<g id="a_node1"><a xlink:href="../../tables/reference_data.html" xlink:title="reference_data" target="_top">
<polygon fill="#ffffff" stroke="transparent" points="253,-319.7 253,-380.7 393,-380.7 393,-319.7 253,-319.7"/>
<polygon fill="#f5f5f5" stroke="transparent" points="253,-357.2 253,-380.2 393,-380.2 393,-357.2 253,-357.2"/>
<polygon fill="none" stroke="#000000" points="253,-357.2 253,-380.2 393,-380.2 393,-357.2 253,-357.2"/>
<text text-anchor="start" x="258" y="-365.8" font-family="Helvetica,sans-Serif" font-weight="bold" font-size="11.00" fill="#000000">reference_data</text>
<text text-anchor="start" x="358.5219" y="-365.3" font-family="Helvetica,sans-Serif" font-size="11.00" fill="#000000">[table]</text>
<polygon fill="none" stroke="#000000" points="253,-338.2 253,-357.2 393,-357.2 393,-338.2 253,-338.2"/>
<text text-anchor="start" x="256" y="-344.3" font-family="Helvetica,sans-Serif" font-size="11.00" fill="#000000">...</text>
<polygon fill="#ffffff" stroke="transparent" points="253,-319.2 253,-338.2 295,-338.2 295,-319.2 253,-319.2"/>
<polygon fill="none" stroke="#000000" points="253,-319.2 253,-338.2 295,-338.2 295,-319.2 253,-319.2"/>
<text text-anchor="start" x="256" y="-325.3" font-family="Helvetica,sans-Serif" font-size="11.00" fill="#000000">&lt; 1</text>
<polygon fill="#ffffff" stroke="transparent" points="295,-319.2 295,-338.2 355,-338.2 355,-319.2 295,-319.2"/>
<polygon fill="none" stroke="#000000" points="295,-319.2 295,-338.2 355,-338.2 355,-319.2 295,-319.2"/>
<text text-anchor="start" x="307.3807" y="-325.3" font-family="Helvetica,sans-Serif" font-size="11.00" fill="#000000">158 rows</text>
<polygon fill="#ffffff" stroke="transparent" points="355,-319.2 355,-338.2 393,-338.2 393,-319.2 355,-319.2"/>
<polygon fill="none" stroke="#000000" points="355,-319.2 355,-338.2 393,-338.2 393,-319.2 355,-319.2"/>
<text text-anchor="start" x="368.2904" y="-325.3" font-family="Helvetica,sans-Serif" font-size="11.00" fill="#000000">11 &gt;</text>
</a>
</g>
</g>
<!-- reference_data_domain -->
<g id="node2" class="node">
<title>reference_data_domain</title>
<g id="a_node2"><a xlink:href="../../tables/reference_data_domain.html" xlink:title="reference_data_domain" target="_top">
<polygon fill="#ffffff" stroke="transparent" points="8,-349.7 8,-410.7 204,-410.7 204,-349.7 8,-349.7"/>
<polygon fill="#f5f5f5" stroke="transparent" points="8,-387.2 8,-410.2 204,-410.2 204,-387.2 8,-387.2"/>
<polygon fill="none" stroke="#000000" points="8,-387.2 8,-410.2 204,-410.2 204,-387.2 8,-387.2"/>
<text text-anchor="start" x="13" y="-395.8" font-family="Helvetica,sans-Serif" font-weight="bold" font-size="11.00" fill="#000000">reference_data_domain</text>
<text text-anchor="start" x="169.5219" y="-395.3" font-family="Helvetica,sans-Serif" font-size="11.00" fill="#000000">[table]</text>
<polygon fill="none" stroke="#000000" points="8,-368.2 8,-387.2 204,-387.2 204,-368.2 8,-368.2"/>
<text text-anchor="start" x="11" y="-374.3" font-family="Helvetica,sans-Serif" font-size="11.00" fill="#000000">...</text>
<polygon fill="#ffffff" stroke="transparent" points="8,-349.2 8,-368.2 95,-368.2 95,-349.2 8,-349.2"/>
<polygon fill="none" stroke="#000000" points="8,-349.2 8,-368.2 95,-368.2 95,-349.2 8,-349.2"/>
<text text-anchor="start" x="11" y="-355.3" font-family="Helvetica,sans-Serif" font-size="11.00" fill="#000000"> &#160;</text>
<polygon fill="#ffffff" stroke="transparent" points="95,-349.2 95,-368.2 145,-368.2 145,-349.2 95,-349.2"/>
<polygon fill="none" stroke="#000000" points="95,-349.2 95,-368.2 145,-368.2 145,-349.2 95,-349.2"/>
<text text-anchor="start" x="135.8862" y="-355.3" font-family="Helvetica,sans-Serif" font-size="11.00" fill="#000000"> &#160;</text>
<polygon fill="#ffffff" stroke="transparent" points="145,-349.2 145,-368.2 204,-368.2 204,-349.2 145,-349.2"/>
<polygon fill="none" stroke="#000000" points="145,-349.2 145,-368.2 204,-368.2 204,-349.2 145,-349.2"/>
<text text-anchor="start" x="185.4053" y="-355.3" font-family="Helvetica,sans-Serif" font-size="11.00" fill="#000000">2 &gt;</text>
</a>
</g>
</g>
<!-- reference_data&#45;&gt;reference_data_domain -->
<g id="edge1" class="edge">
<title>reference_data:w&#45;&gt;reference_data_domain:e</title>
<path fill="none" stroke="#000000" d="M230.4617,-375.3568C221.5769,-376.5125 212.6543,-377.2 204,-377.2"/>
<polygon fill="#000000" stroke="#000000" points="236.9278,-374.341 245.3896,-376.6557 240.8793,-373.7201 244.8309,-373.0993 244.8309,-373.0993 244.8309,-373.0993 240.8793,-373.7201 244.2721,-369.5429 236.9278,-374.341 236.9278,-374.341"/>
<ellipse fill="none" stroke="#000000" cx="233.7666" cy="-374.8376" rx="3.2" ry="3.2"/>
</g>
<!-- reference_data_domain_link -->
<g id="node3" class="node">
<title>reference_data_domain_link</title>
<g id="a_node3"><a xlink:href="../../tables/reference_data_domain_link.html" xlink:title="reference_data_domain_link" target="_top">
<polygon fill="#ffffff" stroke="transparent" points="462.5,-483.7 462.5,-544.7 689.5,-544.7 689.5,-483.7 462.5,-483.7"/>
<polygon fill="#f5f5f5" stroke="transparent" points="463,-521.2 463,-544.2 690,-544.2 690,-521.2 463,-521.2"/>
<polygon fill="none" stroke="#000000" points="463,-521.2 463,-544.2 690,-544.2 690,-521.2 463,-521.2"/>
<text text-anchor="start" x="468" y="-529.8" font-family="Helvetica,sans-Serif" font-weight="bold" font-size="11.00" fill="#000000">reference_data_domain_link</text>
<text text-anchor="start" x="655.5219" y="-529.3" font-family="Helvetica,sans-Serif" font-size="11.00" fill="#000000">[table]</text>
<polygon fill="none" stroke="#000000" points="463,-502.2 463,-521.2 690,-521.2 690,-502.2 463,-502.2"/>
<text text-anchor="start" x="466" y="-508.3" font-family="Helvetica,sans-Serif" font-size="11.00" fill="#000000">...</text>
<polygon fill="#ffffff" stroke="transparent" points="463,-483.2 463,-502.2 575,-502.2 575,-483.2 463,-483.2"/>
<polygon fill="none" stroke="#000000" points="463,-483.2 463,-502.2 575,-502.2 575,-483.2 463,-483.2"/>
<text text-anchor="start" x="466" y="-489.3" font-family="Helvetica,sans-Serif" font-size="11.00" fill="#000000">&lt; 2</text>
<polygon fill="#ffffff" stroke="transparent" points="575,-483.2 575,-502.2 632,-502.2 632,-483.2 575,-483.2"/>
<polygon fill="none" stroke="#000000" points="575,-483.2 575,-502.2 632,-502.2 632,-483.2 575,-483.2"/>
<text text-anchor="start" x="622.8862" y="-489.3" font-family="Helvetica,sans-Serif" font-size="11.00" fill="#000000"> &#160;</text>
<polygon fill="#ffffff" stroke="transparent" points="632,-483.2 632,-502.2 690,-502.2 690,-483.2 632,-483.2"/>
<polygon fill="none" stroke="#000000" points="632,-483.2 632,-502.2 690,-502.2 690,-483.2 632,-483.2"/>
<text text-anchor="start" x="680.8862" y="-489.3" font-family="Helvetica,sans-Serif" font-size="11.00" fill="#000000"> &#160;</text>
</a>
</g>
</g>
<!-- reference_data_domain_link&#45;&gt;reference_data -->
<g id="edge3" class="edge">
<title>reference_data_domain_link:w&#45;&gt;reference_data:e</title>
<path fill="none" stroke="#000000" d="M454.372,-505.0264C433.454,-485.5076 382.7536,-424.0995 350.807,-384.7385"/>
<polygon fill="#000000" stroke="#000000" points="464.6771,-507.4815 460.0217,-513.9875 458.7205,-513.0564 463.3758,-506.5504 464.6771,-507.4815"/>
<polyline fill="none" stroke="#000000" points="463,-511.2 459.747,-508.8723 "/>
<ellipse fill="none" stroke="#000000" cx="457.1446" cy="-507.0102" rx="3.2" ry="3.2"/>
</g>
<!-- reference_data_domain_link&#45;&gt;reference_data_domain -->
<g id="edge2" class="edge">
<title>reference_data_domain_link:w&#45;&gt;reference_data_domain:e</title>
<path fill="none" stroke="#000000" d="M448.8214,-507.4762C393.5163,-485.8342 233.1738,-377.2 204,-377.2"/>
<polygon fill="#000000" stroke="#000000" points="455.2624,-509.1678 462.0855,-514.6819 459.1312,-510.1839 463,-511.2 463,-511.2 463,-511.2 459.1312,-510.1839 463.9145,-507.7181 455.2624,-509.1678 455.2624,-509.1678"/>
<ellipse fill="none" stroke="#000000" cx="452.1674" cy="-508.3549" rx="3.2" ry="3.2"/>
</g>
<!-- reference_data_link -->
<g id="node4" class="node">
<title>reference_data_link</title>
<g id="a_node4"><a xlink:href="../../tables/reference_data_link.html" xlink:title="reference_data_link" target="_top">
<polygon fill="#ffffff" stroke="transparent" points="490.5,-401.7 490.5,-462.7 661.5,-462.7 661.5,-401.7 490.5,-401.7"/>
<polygon fill="#f5f5f5" stroke="transparent" points="491,-439.2 491,-462.2 662,-462.2 662,-439.2 491,-439.2"/>
<polygon fill="none" stroke="#000000" points="491,-439.2 491,-462.2 662,-462.2 662,-439.2 491,-439.2"/>
<text text-anchor="start" x="496" y="-447.8" font-family="Helvetica,sans-Serif" font-weight="bold" font-size="11.00" fill="#000000">reference_data_link</text>
<text text-anchor="start" x="627.5219" y="-447.3" font-family="Helvetica,sans-Serif" font-size="11.00" fill="#000000">[table]</text>
<polygon fill="none" stroke="#000000" points="491,-420.2 491,-439.2 662,-439.2 662,-420.2 491,-420.2"/>
<text text-anchor="start" x="494" y="-426.3" font-family="Helvetica,sans-Serif" font-size="11.00" fill="#000000">...</text>
<polygon fill="#ffffff" stroke="transparent" points="491,-401.2 491,-420.2 559,-420.2 559,-401.2 491,-401.2"/>
<polygon fill="none" stroke="#000000" points="491,-401.2 491,-420.2 559,-420.2 559,-401.2 491,-401.2"/>
<text text-anchor="start" x="494" y="-407.3" font-family="Helvetica,sans-Serif" font-size="11.00" fill="#000000">&lt; 2</text>
<polygon fill="#ffffff" stroke="transparent" points="559,-401.2 559,-420.2 626,-420.2 626,-401.2 559,-401.2"/>
<polygon fill="none" stroke="#000000" points="559,-401.2 559,-420.2 626,-420.2 626,-401.2 559,-401.2"/>
<text text-anchor="start" x="584.4956" y="-407.3" font-family="Helvetica,sans-Serif" font-size="11.00" fill="#000000">64 rows</text>
<polygon fill="#ffffff" stroke="transparent" points="626,-401.2 626,-420.2 662,-420.2 662,-401.2 626,-401.2"/>
<polygon fill="none" stroke="#000000" points="626,-401.2 626,-420.2 662,-420.2 662,-401.2 626,-401.2"/>
<text text-anchor="start" x="652.8862" y="-407.3" font-family="Helvetica,sans-Serif" font-size="11.00" fill="#000000"> &#160;</text>
</a>
</g>
</g>
<!-- reference_data_link&#45;&gt;reference_data -->
<g id="edge4" class="edge">
<title>reference_data_link:w&#45;&gt;reference_data:e</title>
<path fill="none" stroke="#000000" d="M476.37,-427.4059C439.6457,-421.1466 403.3656,-402.2872 375.318,-384.7374"/>
<polygon fill="#000000" stroke="#000000" points="483.0595,-428.2262 490.5618,-432.7732 487.0297,-428.7131 491,-429.2 491,-429.2 491,-429.2 487.0297,-428.7131 491.4382,-425.6268 483.0595,-428.2262 483.0595,-428.2262"/>
<ellipse fill="none" stroke="#000000" cx="479.8833" cy="-427.8367" rx="3.2" ry="3.2"/>
</g>
<!-- reference_data_link&#45;&gt;reference_data -->
<g id="edge5" class="edge">
<title>reference_data_link:w&#45;&gt;reference_data:e</title>
<path fill="none" stroke="#000000" d="M476.5401,-429.5782C432.9855,-428.259 390.0387,-405.5698 360.6907,-384.7116"/>
<polygon fill="#000000" stroke="#000000" points="483.0027,-429.4092 491.0942,-432.7988 487.0014,-429.3046 491,-429.2 491,-429.2 491,-429.2 487.0014,-429.3046 490.9058,-425.6012 483.0027,-429.4092 483.0027,-429.4092"/>
<ellipse fill="none" stroke="#000000" cx="479.8038" cy="-429.4929" rx="3.2" ry="3.2"/>
</g>
<!-- temporary_absence_authorisation -->
<g id="node5" class="node">
<title>temporary_absence_authorisation</title>
<g id="a_node5"><a xlink:href="../../tables/temporary_absence_authorisation.html" xlink:title="temporary_absence_authorisation" target="_top">
<polygon fill="#ffffff" stroke="transparent" points="442,-319.7 442,-380.7 710,-380.7 710,-319.7 442,-319.7"/>
<polygon fill="#f5f5f5" stroke="transparent" points="442,-357.2 442,-380.2 710,-380.2 710,-357.2 442,-357.2"/>
<polygon fill="none" stroke="#000000" points="442,-357.2 442,-380.2 710,-380.2 710,-357.2 442,-357.2"/>
<text text-anchor="start" x="447" y="-365.8" font-family="Helvetica,sans-Serif" font-weight="bold" font-size="11.00" fill="#000000">temporary_absence_authorisation</text>
<text text-anchor="start" x="675.5219" y="-365.3" font-family="Helvetica,sans-Serif" font-size="11.00" fill="#000000">[table]</text>
<polygon fill="none" stroke="#000000" points="442,-338.2 442,-357.2 710,-357.2 710,-338.2 442,-338.2"/>
<text text-anchor="start" x="445" y="-344.3" font-family="Helvetica,sans-Serif" font-size="11.00" fill="#000000">...</text>
<polygon fill="#ffffff" stroke="transparent" points="442,-319.2 442,-338.2 570,-338.2 570,-319.2 442,-319.2"/>
<polygon fill="none" stroke="#000000" points="442,-319.2 442,-338.2 570,-338.2 570,-319.2 442,-319.2"/>
<text text-anchor="start" x="445" y="-325.3" font-family="Helvetica,sans-Serif" font-size="11.00" fill="#000000">&lt; 4</text>
<polygon fill="#ffffff" stroke="transparent" points="570,-319.2 570,-338.2 635,-338.2 635,-319.2 570,-319.2"/>
<polygon fill="none" stroke="#000000" points="570,-319.2 570,-338.2 635,-338.2 635,-319.2 570,-319.2"/>
<text text-anchor="start" x="625.8862" y="-325.3" font-family="Helvetica,sans-Serif" font-size="11.00" fill="#000000"> &#160;</text>
<polygon fill="#ffffff" stroke="transparent" points="635,-319.2 635,-338.2 710,-338.2 710,-319.2 635,-319.2"/>
<polygon fill="none" stroke="#000000" points="635,-319.2 635,-338.2 710,-338.2 710,-319.2 635,-319.2"/>
<text text-anchor="start" x="691.4053" y="-325.3" font-family="Helvetica,sans-Serif" font-size="11.00" fill="#000000">1 &gt;</text>
</a>
</g>
</g>
<!-- temporary_absence_authorisation&#45;&gt;reference_data -->
<g id="edge6" class="edge">
<title>temporary_absence_authorisation:w&#45;&gt;reference_data:e</title>
<path fill="none" stroke="#000000" d="M419.571,-336.3106C413.2672,-336.4651 407.0686,-336.6693 401.0429,-336.9231"/>
<polygon fill="#000000" stroke="#000000" points="425.9708,-336.193 434.0357,-339.6453 429.9702,-336.1194 433.9695,-336.0459 433.9695,-336.0459 433.9695,-336.0459 429.9702,-336.1194 433.9033,-332.4465 425.9708,-336.193 425.9708,-336.193"/>
<ellipse fill="none" stroke="#000000" cx="422.7714" cy="-336.2518" rx="3.2" ry="3.2"/>
</g>
<!-- temporary_absence_authorisation&#45;&gt;reference_data -->
<g id="edge7" class="edge">
<title>temporary_absence_authorisation:w&#45;&gt;reference_data:e</title>
<path fill="none" stroke="#000000" d="M419.312,-345.8159C413.0974,-345.8644 406.9861,-345.9282 401.0429,-346.0073"/>
<polygon fill="#000000" stroke="#000000" points="425.9696,-345.7771 433.9905,-349.3302 429.9696,-345.7537 433.9695,-345.7303 433.9695,-345.7303 433.9695,-345.7303 429.9696,-345.7537 433.9484,-342.1303 425.9696,-345.7771 425.9696,-345.7771"/>
<ellipse fill="none" stroke="#000000" cx="422.7697" cy="-345.7958" rx="3.2" ry="3.2"/>
</g>
<!-- temporary_absence_authorisation&#45;&gt;reference_data -->
<g id="edge8" class="edge">
<title>temporary_absence_authorisation:w&#45;&gt;reference_data:e</title>
<path fill="none" stroke="#000000" d="M419.312,-355.3148C413.0974,-355.2582 406.9861,-355.1837 401.0429,-355.0915"/>
<polygon fill="#000000" stroke="#000000" points="425.9697,-355.3601 433.9449,-359.0146 429.9696,-355.3874 433.9695,-355.4147 433.9695,-355.4147 433.9695,-355.4147 429.9696,-355.3874 433.994,-351.8148 425.9697,-355.3601 425.9697,-355.3601"/>
<ellipse fill="none" stroke="#000000" cx="422.7697" cy="-355.3383" rx="3.2" ry="3.2"/>
</g>
<!-- temporary_absence_authorisation&#45;&gt;reference_data -->
<g id="edge9" class="edge">
<title>temporary_absence_authorisation:w&#45;&gt;reference_data:e</title>
<path fill="none" stroke="#000000" d="M419.571,-364.8204C413.2672,-364.6578 407.0686,-364.4429 401.0429,-364.1757"/>
<polygon fill="#000000" stroke="#000000" points="425.971,-364.9442 433.8998,-368.6984 429.9702,-365.0216 433.9695,-365.0991 433.9695,-365.0991 433.9695,-365.0991 429.9702,-365.0216 434.0392,-361.4997 425.971,-364.9442 425.971,-364.9442"/>
<ellipse fill="none" stroke="#000000" cx="422.7716" cy="-364.8823" rx="3.2" ry="3.2"/>
</g>
<!-- temporary_absence_movement -->
<g id="node6" class="node">
<title>temporary_absence_movement</title>
<g id="a_node6"><a xlink:href="../../tables/temporary_absence_movement.html" xlink:title="temporary_absence_movement" target="_top">
<polygon fill="#ffffff" stroke="transparent" points="451.5,-182.7 451.5,-243.7 700.5,-243.7 700.5,-182.7 451.5,-182.7"/>
<polygon fill="#f5f5f5" stroke="transparent" points="452,-220.2 452,-243.2 701,-243.2 701,-220.2 452,-220.2"/>
<polygon fill="none" stroke="#000000" points="452,-220.2 452,-243.2 701,-243.2 701,-220.2 452,-220.2"/>
<text text-anchor="start" x="457" y="-228.8" font-family="Helvetica,sans-Serif" font-weight="bold" font-size="11.00" fill="#000000">temporary_absence_movement</text>
<text text-anchor="start" x="666.5219" y="-228.3" font-family="Helvetica,sans-Serif" font-size="11.00" fill="#000000">[table]</text>
<polygon fill="none" stroke="#000000" points="452,-201.2 452,-220.2 701,-220.2 701,-201.2 452,-201.2"/>
<text text-anchor="start" x="455" y="-207.3" font-family="Helvetica,sans-Serif" font-size="11.00" fill="#000000">...</text>
<polygon fill="#ffffff" stroke="transparent" points="452,-182.2 452,-201.2 575,-201.2 575,-182.2 452,-182.2"/>
<polygon fill="none" stroke="#000000" points="452,-182.2 452,-201.2 575,-201.2 575,-182.2 452,-182.2"/>
<text text-anchor="start" x="455" y="-188.3" font-family="Helvetica,sans-Serif" font-size="11.00" fill="#000000">&lt; 2</text>
<polygon fill="#ffffff" stroke="transparent" points="575,-182.2 575,-201.2 638,-201.2 638,-182.2 575,-182.2"/>
<polygon fill="none" stroke="#000000" points="575,-182.2 575,-201.2 638,-201.2 638,-182.2 575,-182.2"/>
<text text-anchor="start" x="628.8862" y="-188.3" font-family="Helvetica,sans-Serif" font-size="11.00" fill="#000000"> &#160;</text>
<polygon fill="#ffffff" stroke="transparent" points="638,-182.2 638,-201.2 701,-201.2 701,-182.2 638,-182.2"/>
<polygon fill="none" stroke="#000000" points="638,-182.2 638,-201.2 701,-201.2 701,-182.2 638,-182.2"/>
<text text-anchor="start" x="691.8862" y="-188.3" font-family="Helvetica,sans-Serif" font-size="11.00" fill="#000000"> &#160;</text>
</a>
</g>
</g>
<!-- temporary_absence_movement&#45;&gt;reference_data -->
<g id="edge10" class="edge">
<title>temporary_absence_movement:w&#45;&gt;reference_data:e</title>
<path fill="none" stroke="#000000" d="M437.5506,-210.5917C386.5278,-217.0676 352.0117,-276.4147 335.0892,-315.6769"/>
<polygon fill="#000000" stroke="#000000" points="444.0029,-210.4168 452.0976,-213.7987 448.0015,-210.3084 452,-210.2 452,-210.2 452,-210.2 448.0015,-210.3084 451.9024,-206.6013 444.0029,-210.4168 444.0029,-210.4168"/>
<ellipse fill="none" stroke="#000000" cx="440.8041" cy="-210.5036" rx="3.2" ry="3.2"/>
</g>
<!-- temporary_absence_movement&#45;&gt;reference_data -->
<g id="edge11" class="edge">
<title>temporary_absence_movement:w&#45;&gt;reference_data:e</title>
<path fill="none" stroke="#000000" d="M437.5808,-212.7336C390.2865,-225.5124 357.1707,-279.1628 339.0989,-315.6047"/>
<polygon fill="#000000" stroke="#000000" points="444.1207,-211.5845 452.623,-213.7457 448.0604,-210.8923 452,-210.2 452,-210.2 452,-210.2 448.0604,-210.8923 451.377,-206.6543 444.1207,-211.5845 444.1207,-211.5845"/>
<ellipse fill="none" stroke="#000000" cx="440.969" cy="-212.1383" rx="3.2" ry="3.2"/>
</g>
<!-- temporary_absence_occurrence -->
<g id="node7" class="node">
<title>temporary_absence_occurrence</title>
<g id="a_node7"><a xlink:href="../../tables/temporary_absence_occurrence.html" xlink:title="temporary_absence_occurrence" target="_top">
<polygon fill="#ffffff" stroke="transparent" points="759,-38.2 759,-458.2 1096,-458.2 1096,-38.2 759,-38.2"/>
<polygon fill="#f5f5f5" stroke="transparent" points="761.5,-433.2 761.5,-456.2 1094.5,-456.2 1094.5,-433.2 761.5,-433.2"/>
<polygon fill="none" stroke="#000000" points="761.5,-433.2 761.5,-456.2 1094.5,-456.2 1094.5,-433.2 761.5,-433.2"/>
<text text-anchor="start" x="766.5" y="-441.8" font-family="Helvetica,sans-Serif" font-weight="bold" font-size="11.00" fill="#000000">temporary_absence_occurrence</text>
<text text-anchor="start" x="1059.5437" y="-441.3" font-family="Helvetica,sans-Serif" font-size="11.00" fill="#000000">[table]</text>
<polygon fill="none" stroke="#000000" points="761.5,-411.2 761.5,-433.2 995.5,-433.2 995.5,-411.2 761.5,-411.2"/>
<image xlink:href="../../images/primaryKeys.png" width="11px" height="12px" preserveAspectRatio="xMinYMin meet" x="766.5" y="-428.2"/>
<text text-anchor="start" x="781.5" y="-418.3" font-family="Helvetica,sans-Serif" font-size="11.00" fill="#000000">id</text>
<polygon fill="none" stroke="#000000" points="995.5,-411.2 995.5,-433.2 1094.5,-433.2 1094.5,-411.2 995.5,-411.2"/>
<text text-anchor="start" x="998.5" y="-418.9" font-family="Helvetica,sans-Serif" font-size="11.00" fill="#000000">uuid[2147483647]</text>
<polygon fill="none" stroke="#000000" points="761.5,-389.2 761.5,-411.2 995.5,-411.2 995.5,-389.2 761.5,-389.2"/>
<text text-anchor="start" x="781.5" y="-396.3" font-family="Helvetica,sans-Serif" font-size="11.00" fill="#000000">version</text>
<polygon fill="none" stroke="#000000" points="995.5,-389.2 995.5,-411.2 1094.5,-411.2 1094.5,-389.2 995.5,-389.2"/>
<text text-anchor="start" x="998.5" y="-396.9" font-family="Helvetica,sans-Serif" font-size="11.00" fill="#000000">int4[10]</text>
<polygon fill="#ffffff" stroke="transparent" points="761.5,-367.2 761.5,-389.2 995.5,-389.2 995.5,-367.2 761.5,-367.2"/>
<polygon fill="none" stroke="#000000" points="761.5,-367.2 761.5,-389.2 995.5,-389.2 995.5,-367.2 761.5,-367.2"/>
<text text-anchor="start" x="781.5" y="-374.3" font-family="Helvetica,sans-Serif" font-size="11.00" fill="#000000">person_identifier</text>
<polygon fill="none" stroke="#000000" points="995.5,-367.2 995.5,-389.2 1094.5,-389.2 1094.5,-367.2 995.5,-367.2"/>
<text text-anchor="start" x="998.5" y="-374.9" font-family="Helvetica,sans-Serif" font-size="11.00" fill="#000000">varchar[10]</text>
<polygon fill="#ffffff" stroke="transparent" points="761.5,-345.2 761.5,-367.2 995.5,-367.2 995.5,-345.2 761.5,-345.2"/>
<polygon fill="none" stroke="#000000" points="761.5,-345.2 761.5,-367.2 995.5,-367.2 995.5,-345.2 761.5,-345.2"/>
<image xlink:href="../../images/foreignKeys.png" width="11px" height="12px" preserveAspectRatio="xMinYMin meet" x="766.5" y="-362.2"/>
<text text-anchor="start" x="781.5" y="-352.3" font-family="Helvetica,sans-Serif" font-size="11.00" fill="#000000">authorisation_id</text>
<polygon fill="none" stroke="#000000" points="995.5,-345.2 995.5,-367.2 1094.5,-367.2 1094.5,-345.2 995.5,-345.2"/>
<text text-anchor="start" x="998.5" y="-352.9" font-family="Helvetica,sans-Serif" font-size="11.00" fill="#000000">uuid[2147483647]</text>
<polygon fill="#ffffff" stroke="transparent" points="761.5,-323.2 761.5,-345.2 995.5,-345.2 995.5,-323.2 761.5,-323.2"/>
<polygon fill="none" stroke="#000000" points="761.5,-323.2 761.5,-345.2 995.5,-345.2 995.5,-323.2 761.5,-323.2"/>
<text text-anchor="start" x="781.5" y="-330.3" font-family="Helvetica,sans-Serif" font-size="11.00" fill="#000000">release_at</text>
<polygon fill="none" stroke="#000000" points="995.5,-323.2 995.5,-345.2 1094.5,-345.2 1094.5,-323.2 995.5,-323.2"/>
<text text-anchor="start" x="998.5" y="-330.9" font-family="Helvetica,sans-Serif" font-size="11.00" fill="#000000">timestamp[29,6]</text>
<polygon fill="#ffffff" stroke="transparent" points="761.5,-301.2 761.5,-323.2 995.5,-323.2 995.5,-301.2 761.5,-301.2"/>
<polygon fill="none" stroke="#000000" points="761.5,-301.2 761.5,-323.2 995.5,-323.2 995.5,-301.2 761.5,-301.2"/>
<text text-anchor="start" x="781.5" y="-308.3" font-family="Helvetica,sans-Serif" font-size="11.00" fill="#000000">return_by</text>
<polygon fill="none" stroke="#000000" points="995.5,-301.2 995.5,-323.2 1094.5,-323.2 1094.5,-301.2 995.5,-301.2"/>
<text text-anchor="start" x="998.5" y="-308.9" font-family="Helvetica,sans-Serif" font-size="11.00" fill="#000000">timestamp[29,6]</text>
<polygon fill="none" stroke="#000000" points="761.5,-279.2 761.5,-301.2 995.5,-301.2 995.5,-279.2 761.5,-279.2"/>
<image xlink:href="../../images/foreignKeys.png" width="11px" height="12px" preserveAspectRatio="xMinYMin meet" x="766.5" y="-296.2"/>
<text text-anchor="start" x="781.5" y="-286.3" font-family="Helvetica,sans-Serif" font-size="11.00" fill="#000000">accompanied_by_id</text>
<polygon fill="none" stroke="#000000" points="995.5,-279.2 995.5,-301.2 1094.5,-301.2 1094.5,-279.2 995.5,-279.2"/>
<text text-anchor="start" x="998.5" y="-286.9" font-family="Helvetica,sans-Serif" font-size="11.00" fill="#000000">int8[19]</text>
<polygon fill="none" stroke="#000000" points="761.5,-257.2 761.5,-279.2 995.5,-279.2 995.5,-257.2 761.5,-257.2"/>
<image xlink:href="../../images/foreignKeys.png" width="11px" height="12px" preserveAspectRatio="xMinYMin meet" x="766.5" y="-274.2"/>
<text text-anchor="start" x="781.5" y="-264.3" font-family="Helvetica,sans-Serif" font-size="11.00" fill="#000000">transport_id</text>
<polygon fill="none" stroke="#000000" points="995.5,-257.2 995.5,-279.2 1094.5,-279.2 1094.5,-257.2 995.5,-257.2"/>
<text text-anchor="start" x="998.5" y="-264.9" font-family="Helvetica,sans-Serif" font-size="11.00" fill="#000000">int8[19]</text>
<polygon fill="none" stroke="#000000" points="761.5,-235.2 761.5,-257.2 995.5,-257.2 995.5,-235.2 761.5,-235.2"/>
<text text-anchor="start" x="781.5" y="-242.3" font-family="Helvetica,sans-Serif" font-size="11.00" fill="#000000">contact_information</text>
<polygon fill="none" stroke="#000000" points="995.5,-235.2 995.5,-257.2 1094.5,-257.2 1094.5,-235.2 995.5,-235.2"/>
<text text-anchor="start" x="998.5" y="-242.9" font-family="Helvetica,sans-Serif" font-size="11.00" fill="#000000">text[2147483647]</text>
<polygon fill="none" stroke="#000000" points="761.5,-213.2 761.5,-235.2 995.5,-235.2 995.5,-213.2 761.5,-213.2"/>
<text text-anchor="start" x="781.5" y="-220.3" font-family="Helvetica,sans-Serif" font-size="11.00" fill="#000000">notes</text>
<polygon fill="none" stroke="#000000" points="995.5,-213.2 995.5,-235.2 1094.5,-235.2 1094.5,-213.2 995.5,-213.2"/>
<text text-anchor="start" x="998.5" y="-220.9" font-family="Helvetica,sans-Serif" font-size="11.00" fill="#000000">text[2147483647]</text>
<polygon fill="none" stroke="#000000" points="761.5,-191.2 761.5,-213.2 995.5,-213.2 995.5,-191.2 761.5,-191.2"/>
<text text-anchor="start" x="781.5" y="-198.3" font-family="Helvetica,sans-Serif" font-size="11.00" fill="#000000">added_at</text>
<polygon fill="none" stroke="#000000" points="995.5,-191.2 995.5,-213.2 1094.5,-213.2 1094.5,-191.2 995.5,-191.2"/>
<text text-anchor="start" x="998.5" y="-198.9" font-family="Helvetica,sans-Serif" font-size="11.00" fill="#000000">timestamp[29,6]</text>
<polygon fill="none" stroke="#000000" points="761.5,-169.2 761.5,-191.2 995.5,-191.2 995.5,-169.2 761.5,-169.2"/>
<text text-anchor="start" x="781.5" y="-176.3" font-family="Helvetica,sans-Serif" font-size="11.00" fill="#000000">added_by</text>
<polygon fill="none" stroke="#000000" points="995.5,-169.2 995.5,-191.2 1094.5,-191.2 1094.5,-169.2 995.5,-169.2"/>
<text text-anchor="start" x="998.5" y="-176.9" font-family="Helvetica,sans-Serif" font-size="11.00" fill="#000000">varchar[64]</text>
<polygon fill="none" stroke="#000000" points="761.5,-147.2 761.5,-169.2 995.5,-169.2 995.5,-147.2 761.5,-147.2"/>
<text text-anchor="start" x="781.5" y="-154.3" font-family="Helvetica,sans-Serif" font-size="11.00" fill="#000000">cancelled_at</text>
<polygon fill="none" stroke="#000000" points="995.5,-147.2 995.5,-169.2 1094.5,-169.2 1094.5,-147.2 995.5,-147.2"/>
<text text-anchor="start" x="998.5" y="-154.9" font-family="Helvetica,sans-Serif" font-size="11.00" fill="#000000">timestamp[29,6]</text>
<polygon fill="none" stroke="#000000" points="761.5,-125.2 761.5,-147.2 995.5,-147.2 995.5,-125.2 761.5,-125.2"/>
<text text-anchor="start" x="781.5" y="-132.3" font-family="Helvetica,sans-Serif" font-size="11.00" fill="#000000">cancelled_by</text>
<polygon fill="none" stroke="#000000" points="995.5,-125.2 995.5,-147.2 1094.5,-147.2 1094.5,-125.2 995.5,-125.2"/>
<text text-anchor="start" x="998.5" y="-132.9" font-family="Helvetica,sans-Serif" font-size="11.00" fill="#000000">varchar[64]</text>
<polygon fill="#ffffff" stroke="transparent" points="761.5,-103.2 761.5,-125.2 995.5,-125.2 995.5,-103.2 761.5,-103.2"/>
<polygon fill="none" stroke="#000000" points="761.5,-103.2 761.5,-125.2 995.5,-125.2 995.5,-103.2 761.5,-103.2"/>
<text text-anchor="start" x="781.5" y="-110.3" font-family="Helvetica,sans-Serif" font-size="11.00" fill="#000000">legacy_id</text>
<polygon fill="none" stroke="#000000" points="995.5,-103.2 995.5,-125.2 1094.5,-125.2 1094.5,-103.2 995.5,-103.2"/>
<text text-anchor="start" x="998.5" y="-110.9" font-family="Helvetica,sans-Serif" font-size="11.00" fill="#000000">int8[19]</text>
<polygon fill="none" stroke="#000000" points="761.5,-81.2 761.5,-103.2 995.5,-103.2 995.5,-81.2 761.5,-81.2"/>
<text text-anchor="start" x="781.5" y="-88.3" font-family="Helvetica,sans-Serif" font-size="11.00" fill="#000000">location</text>
<polygon fill="none" stroke="#000000" points="995.5,-81.2 995.5,-103.2 1094.5,-103.2 1094.5,-81.2 995.5,-81.2"/>
<text text-anchor="start" x="998.2258" y="-88.9" font-family="Helvetica,sans-Serif" font-size="11.00" fill="#000000">jsonb[2147483647]</text>
<polygon fill="none" stroke="#000000" points="761.5,-59.2 761.5,-81.2 995.5,-81.2 995.5,-59.2 761.5,-59.2"/>
<text text-anchor="start" x="781.5" y="-66.3" font-family="Helvetica,sans-Serif" font-size="11.00" fill="#000000">schedule_reference</text>
<polygon fill="none" stroke="#000000" points="995.5,-59.2 995.5,-81.2 1094.5,-81.2 1094.5,-59.2 995.5,-59.2"/>
<text text-anchor="start" x="998.2258" y="-66.9" font-family="Helvetica,sans-Serif" font-size="11.00" fill="#000000">jsonb[2147483647]</text>
<polygon fill="#ffffff" stroke="transparent" points="761.5,-40.2 761.5,-59.2 882.5,-59.2 882.5,-40.2 761.5,-40.2"/>
<polygon fill="none" stroke="#000000" points="761.5,-40.2 761.5,-59.2 882.5,-59.2 882.5,-40.2 761.5,-40.2"/>
<text text-anchor="start" x="764.5" y="-46.3" font-family="Helvetica,sans-Serif" font-size="11.00" fill="#000000">&lt; 3</text>
<polygon fill="#ffffff" stroke="transparent" points="882.5,-40.2 882.5,-59.2 995.5,-59.2 995.5,-40.2 882.5,-40.2"/>
<polygon fill="none" stroke="#000000" points="882.5,-40.2 882.5,-59.2 995.5,-59.2 995.5,-40.2 882.5,-40.2"/>
<text text-anchor="start" x="986.3862" y="-46.3" font-family="Helvetica,sans-Serif" font-size="11.00" fill="#000000"> &#160;</text>
<polygon fill="#ffffff" stroke="transparent" points="995.5,-40.2 995.5,-59.2 1094.5,-59.2 1094.5,-40.2 995.5,-40.2"/>
<polygon fill="none" stroke="#000000" points="995.5,-40.2 995.5,-59.2 1094.5,-59.2 1094.5,-40.2 995.5,-40.2"/>
<text text-anchor="start" x="1075.9053" y="-46.3" font-family="Helvetica,sans-Serif" font-size="11.00" fill="#000000">0 &gt;</text>
<polygon fill="none" stroke="#000000" stroke-width="2" points="760,-39.2 760,-457.2 1095,-457.2 1095,-39.2 760,-39.2"/>
</a>
</g>
</g>
<!-- temporary_absence_occurrence&#45;&gt;reference_data -->
<g id="edge12" class="edge">
<title>temporary_absence_occurrence:w&#45;&gt;reference_data:e</title>
<path fill="none" stroke="#000000" d="M746.9157,-290.1642C612.9139,-289.5087 571.8428,-280.4119 434,-309.2 423.2414,-311.4469 412.1317,-314.5453 401.2875,-318.0412"/>
<polygon fill="#000000" stroke="#000000" points="753.5,-290.1803 761.4911,-293.8 757.5,-290.1901 761.5,-290.2 761.5,-290.2 761.5,-290.2 757.5,-290.1901 761.5089,-286.6 753.5,-290.1803 753.5,-290.1803"/>
<ellipse fill="none" stroke="#000000" cx="750.3" cy="-290.1724" rx="3.2" ry="3.2"/>
</g>
<!-- temporary_absence_occurrence&#45;&gt;reference_data -->
<g id="edge14" class="edge">
<title>temporary_absence_occurrence:w&#45;&gt;reference_data:e</title>
<path fill="none" stroke="#000000" d="M746.91,-268.1168C612.7555,-266.5831 568.8592,-244.8377 434,-285.2 411.857,-291.8272 389.4751,-303.7203 370.6669,-315.5381"/>
<polygon fill="#000000" stroke="#000000" points="753.5001,-268.1543 761.4794,-271.7999 757.5001,-268.1772 761.5,-268.2 761.5,-268.2 761.5,-268.2 757.5001,-268.1772 761.5206,-264.6001 753.5001,-268.1543 753.5001,-268.1543"/>
<ellipse fill="none" stroke="#000000" cx="750.3002" cy="-268.136" rx="3.2" ry="3.2"/>
</g>
<!-- temporary_absence_occurrence&#45;&gt;temporary_absence_authorisation -->
<g id="edge13" class="edge">
<title>temporary_absence_occurrence:w&#45;&gt;temporary_absence_authorisation:e</title>
<path fill="none" stroke="#000000" d="M746.775,-356.1403C737.3012,-356.0659 727.6605,-355.9249 718.0273,-355.7342"/>
<polygon fill="#000000" stroke="#000000" points="753.5001,-356.1675 761.4854,-359.8 757.5,-356.1838 761.5,-356.2 761.5,-356.2 761.5,-356.2 757.5,-356.1838 761.5146,-352.6 753.5001,-356.1675 753.5001,-356.1675"/>
<ellipse fill="none" stroke="#000000" cx="750.3001" cy="-356.1545" rx="3.2" ry="3.2"/>
</g>
</g>
</svg>
