<?xml version="1.0" encoding="UTF-8" standalone="no"?>
<!DOCTYPE svg PUBLIC "-//W3C//DTD SVG 1.1//EN"
 "http://www.w3.org/Graphics/SVG/1.1/DTD/svg11.dtd">
<!-- Generated by graphviz version 2.40.1 (20161225.0304)
 -->
<!-- Title: oneDegreeRelationshipsDiagram Pages: 1 -->
<svg width="881pt" height="718pt"
 viewBox="0.00 0.00 881.00 717.70" xmlns="http://www.w3.org/2000/svg" xmlns:xlink="http://www.w3.org/1999/xlink">
<g id="graph0" class="graph" transform="scale(1 1) rotate(0) translate(4 713.7)">
<title>oneDegreeRelationshipsDiagram</title>
<polygon fill="#ffffff" stroke="transparent" points="-4,4 -4,-713.7 877,-713.7 877,4 -4,4"/>
<text text-anchor="middle" x="72.4936" y="-7.3" font-family="Helvetica,sans-Serif" font-size="11.00" fill="#000000">Generated by SchemaSpy</text>
<!-- temporary_absence_authorisation -->
<g id="node1" class="node">
<title>temporary_absence_authorisation</title>
<g id="a_node1"><a xlink:href="../../tables/temporary_absence_authorisation.html" xlink:title="temporary_absence_authorisation" target="_top">
<polygon fill="#ffffff" stroke="transparent" points="211,-263.7 211,-705.7 564,-705.7 564,-263.7 211,-263.7"/>
<polygon fill="#f5f5f5" stroke="transparent" points="213.5,-680.7 213.5,-703.7 562.5,-703.7 562.5,-680.7 213.5,-680.7"/>
<polygon fill="none" stroke="#000000" points="213.5,-680.7 213.5,-703.7 562.5,-703.7 562.5,-680.7 213.5,-680.7"/>
<text text-anchor="start" x="218.5" y="-689.3" font-family="Helvetica,sans-Serif" font-weight="bold" font-size="11.00" fill="#000000">temporary_absence_authorisation</text>
<text text-anchor="start" x="527.5437" y="-688.8" font-family="Helvetica,sans-Serif" font-size="11.00" fill="#000000">[table]</text>
<polygon fill="none" stroke="#000000" points="213.5,-658.7 213.5,-680.7 463.5,-680.7 463.5,-658.7 213.5,-658.7"/>
<image xlink:href="../../images/primaryKeys.png" width="11px" height="12px" preserveAspectRatio="xMinYMin meet" x="218.5" y="-675.7"/>
<text text-anchor="start" x="233.5" y="-665.8" font-family="Helvetica,sans-Serif" font-size="11.00" fill="#000000">id</text>
<polygon fill="none" stroke="#000000" points="463.5,-658.7 463.5,-680.7 562.5,-680.7 562.5,-658.7 463.5,-658.7"/>
<text text-anchor="start" x="466.5" y="-666.4" font-family="Helvetica,sans-Serif" font-size="11.00" fill="#000000">uuid[2147483647]</text>
<polygon fill="none" stroke="#000000" points="213.5,-636.7 213.5,-658.7 463.5,-658.7 463.5,-636.7 213.5,-636.7"/>
<text text-anchor="start" x="233.5" y="-643.8" font-family="Helvetica,sans-Serif" font-size="11.00" fill="#000000">version</text>
<polygon fill="none" stroke="#000000" points="463.5,-636.7 463.5,-658.7 562.5,-658.7 562.5,-636.7 463.5,-636.7"/>
<text text-anchor="start" x="466.5" y="-644.4" font-family="Helvetica,sans-Serif" font-size="11.00" fill="#000000">int4[10]</text>
<polygon fill="#ffffff" stroke="transparent" points="213.5,-614.7 213.5,-636.7 463.5,-636.7 463.5,-614.7 213.5,-614.7"/>
<polygon fill="none" stroke="#000000" points="213.5,-614.7 213.5,-636.7 463.5,-636.7 463.5,-614.7 213.5,-614.7"/>
<image xlink:href="../../images/foreignKeys.png" width="11px" height="12px" preserveAspectRatio="xMinYMin meet" x="218.5" y="-631.7"/>
<text text-anchor="start" x="233.5" y="-621.8" font-family="Helvetica,sans-Serif" font-size="11.00" fill="#000000">person_identifier</text>
<polygon fill="none" stroke="#000000" points="463.5,-614.7 463.5,-636.7 562.5,-636.7 562.5,-614.7 463.5,-614.7"/>
<text text-anchor="start" x="466.5" y="-622.4" font-family="Helvetica,sans-Serif" font-size="11.00" fill="#000000">varchar[10]</text>
<polygon fill="#ffffff" stroke="transparent" points="213.5,-592.7 213.5,-614.7 463.5,-614.7 463.5,-592.7 213.5,-592.7"/>
<polygon fill="none" stroke="#000000" points="213.5,-592.7 213.5,-614.7 463.5,-614.7 463.5,-592.7 213.5,-592.7"/>
<text text-anchor="start" x="233.5" y="-599.8" font-family="Helvetica,sans-Serif" font-size="11.00" fill="#000000">prison_code</text>
<polygon fill="none" stroke="#000000" points="463.5,-592.7 463.5,-614.7 562.5,-614.7 562.5,-592.7 463.5,-592.7"/>
<text text-anchor="start" x="466.5" y="-600.4" font-family="Helvetica,sans-Serif" font-size="11.00" fill="#000000">varchar[6]</text>
<polygon fill="none" stroke="#000000" points="213.5,-570.7 213.5,-592.7 463.5,-592.7 463.5,-570.7 213.5,-570.7"/>
<image xlink:href="../../images/foreignKeys.png" width="11px" height="12px" preserveAspectRatio="xMinYMin meet" x="218.5" y="-587.7"/>
<text text-anchor="start" x="233.5" y="-577.8" font-family="Helvetica,sans-Serif" font-size="11.00" fill="#000000">absence_type_id</text>
<polygon fill="none" stroke="#000000" points="463.5,-570.7 463.5,-592.7 562.5,-592.7 562.5,-570.7 463.5,-570.7"/>
<text text-anchor="start" x="466.5" y="-578.4" font-family="Helvetica,sans-Serif" font-size="11.00" fill="#000000">int8[19]</text>
<polygon fill="none" stroke="#000000" points="213.5,-548.7 213.5,-570.7 463.5,-570.7 463.5,-548.7 213.5,-548.7"/>
<image xlink:href="../../images/foreignKeys.png" width="11px" height="12px" preserveAspectRatio="xMinYMin meet" x="218.5" y="-565.7"/>
<text text-anchor="start" x="233.5" y="-555.8" font-family="Helvetica,sans-Serif" font-size="11.00" fill="#000000">absence_sub_type_id</text>
<polygon fill="none" stroke="#000000" points="463.5,-548.7 463.5,-570.7 562.5,-570.7 562.5,-548.7 463.5,-548.7"/>
<text text-anchor="start" x="466.5" y="-556.4" font-family="Helvetica,sans-Serif" font-size="11.00" fill="#000000">int8[19]</text>
<polygon fill="none" stroke="#000000" points="213.5,-526.7 213.5,-548.7 463.5,-548.7 463.5,-526.7 213.5,-526.7"/>
<image xlink:href="../../images/foreignKeys.png" width="11px" height="12px" preserveAspectRatio="xMinYMin meet" x="218.5" y="-543.7"/>
<text text-anchor="start" x="233.5" y="-533.8" font-family="Helvetica,sans-Serif" font-size="11.00" fill="#000000">absence_reason_id</text>
<polygon fill="none" stroke="#000000" points="463.5,-526.7 463.5,-548.7 562.5,-548.7 562.5,-526.7 463.5,-526.7"/>
<text text-anchor="start" x="466.5" y="-534.4" font-family="Helvetica,sans-Serif" font-size="11.00" fill="#000000">int8[19]</text>
<polygon fill="none" stroke="#000000" points="213.5,-504.7 213.5,-526.7 463.5,-526.7 463.5,-504.7 213.5,-504.7"/>
<text text-anchor="start" x="233.5" y="-511.8" font-family="Helvetica,sans-Serif" font-size="11.00" fill="#000000">repeat</text>
<polygon fill="none" stroke="#000000" points="463.5,-504.7 463.5,-526.7 562.5,-526.7 562.5,-504.7 463.5,-504.7"/>
<text text-anchor="start" x="466.5" y="-512.4" font-family="Helvetica,sans-Serif" font-size="11.00" fill="#000000">bool[1]</text>
<polygon fill="#ffffff" stroke="transparent" points="213.5,-482.7 213.5,-504.7 463.5,-504.7 463.5,-482.7 213.5,-482.7"/>
<polygon fill="none" stroke="#000000" points="213.5,-482.7 213.5,-504.7 463.5,-504.7 463.5,-482.7 213.5,-482.7"/>
<image xlink:href="../../images/foreignKeys.png" width="11px" height="12px" preserveAspectRatio="xMinYMin meet" x="218.5" y="-499.7"/>
<text text-anchor="start" x="233.5" y="-489.8" font-family="Helvetica,sans-Serif" font-size="11.00" fill="#000000">status_id</text>
<polygon fill="none" stroke="#000000" points="463.5,-482.7 463.5,-504.7 562.5,-504.7 562.5,-482.7 463.5,-482.7"/>
<text text-anchor="start" x="466.5" y="-490.4" font-family="Helvetica,sans-Serif" font-size="11.00" fill="#000000">int8[19]</text>
<polygon fill="none" stroke="#000000" points="213.5,-460.7 213.5,-482.7 463.5,-482.7 463.5,-460.7 213.5,-460.7"/>
<text text-anchor="start" x="233.5" y="-467.8" font-family="Helvetica,sans-Serif" font-size="11.00" fill="#000000">comments</text>
<polygon fill="none" stroke="#000000" points="463.5,-460.7 463.5,-482.7 562.5,-482.7 562.5,-460.7 463.5,-460.7"/>
<text text-anchor="start" x="466.5" y="-468.4" font-family="Helvetica,sans-Serif" font-size="11.00" fill="#000000">text[2147483647]</text>
<polygon fill="#ffffff" stroke="transparent" points="213.5,-438.7 213.5,-460.7 463.5,-460.7 463.5,-438.7 213.5,-438.7"/>
<polygon fill="none" stroke="#000000" points="213.5,-438.7 213.5,-460.7 463.5,-460.7 463.5,-438.7 213.5,-438.7"/>
<text text-anchor="start" x="233.5" y="-445.8" font-family="Helvetica,sans-Serif" font-size="11.00" fill="#000000">legacy_id</text>
<polygon fill="none" stroke="#000000" points="463.5,-438.7 463.5,-460.7 562.5,-460.7 562.5,-438.7 463.5,-438.7"/>
<text text-anchor="start" x="466.5" y="-446.4" font-family="Helvetica,sans-Serif" font-size="11.00" fill="#000000">int8[19]</text>
<polygon fill="#ffffff" stroke="transparent" points="213.5,-416.7 213.5,-438.7 463.5,-438.7 463.5,-416.7 213.5,-416.7"/>
<polygon fill="none" stroke="#000000" points="213.5,-416.7 213.5,-438.7 463.5,-438.7 463.5,-416.7 213.5,-416.7"/>
<text text-anchor="start" x="233.5" y="-423.8" font-family="Helvetica,sans-Serif" font-size="11.00" fill="#000000">start</text>
<polygon fill="none" stroke="#000000" points="463.5,-416.7 463.5,-438.7 562.5,-438.7 562.5,-416.7 463.5,-416.7"/>
<text text-anchor="start" x="466.5" y="-424.4" font-family="Helvetica,sans-Serif" font-size="11.00" fill="#000000">date[13]</text>
<polygon fill="#ffffff" stroke="transparent" points="213.5,-394.7 213.5,-416.7 463.5,-416.7 463.5,-394.7 213.5,-394.7"/>
<polygon fill="none" stroke="#000000" points="213.5,-394.7 213.5,-416.7 463.5,-416.7 463.5,-394.7 213.5,-394.7"/>
<text text-anchor="start" x="233.5" y="-401.8" font-family="Helvetica,sans-Serif" font-size="11.00" fill="#000000">end</text>
<polygon fill="none" stroke="#000000" points="463.5,-394.7 463.5,-416.7 562.5,-416.7 562.5,-394.7 463.5,-394.7"/>
<text text-anchor="start" x="466.5" y="-402.4" font-family="Helvetica,sans-Serif" font-size="11.00" fill="#000000">date[13]</text>
<polygon fill="none" stroke="#000000" points="213.5,-372.7 213.5,-394.7 463.5,-394.7 463.5,-372.7 213.5,-372.7"/>
<text text-anchor="start" x="233.5" y="-379.8" font-family="Helvetica,sans-Serif" font-size="11.00" fill="#000000">schedule</text>
<polygon fill="none" stroke="#000000" points="463.5,-372.7 463.5,-394.7 562.5,-394.7 562.5,-372.7 463.5,-372.7"/>
<text text-anchor="start" x="466.2258" y="-380.4" font-family="Helvetica,sans-Serif" font-size="11.00" fill="#000000">jsonb[2147483647]</text>
<polygon fill="none" stroke="#000000" points="213.5,-350.7 213.5,-372.7 463.5,-372.7 463.5,-350.7 213.5,-350.7"/>
<image xlink:href="../../images/foreignKeys.png" width="11px" height="12px" preserveAspectRatio="xMinYMin meet" x="218.5" y="-367.7"/>
<text text-anchor="start" x="233.5" y="-357.8" font-family="Helvetica,sans-Serif" font-size="11.00" fill="#000000">absence_reason_category_id</text>
<polygon fill="none" stroke="#000000" points="463.5,-350.7 463.5,-372.7 562.5,-372.7 562.5,-350.7 463.5,-350.7"/>
<text text-anchor="start" x="466.5" y="-358.4" font-family="Helvetica,sans-Serif" font-size="11.00" fill="#000000">int8[19]</text>
<polygon fill="none" stroke="#000000" points="213.5,-328.7 213.5,-350.7 463.5,-350.7 463.5,-328.7 213.5,-328.7"/>
<text text-anchor="start" x="233.5" y="-335.8" font-family="Helvetica,sans-Serif" font-size="11.00" fill="#000000">reason_path</text>
<polygon fill="none" stroke="#000000" points="463.5,-328.7 463.5,-350.7 562.5,-350.7 562.5,-328.7 463.5,-328.7"/>
<text text-anchor="start" x="466.2258" y="-336.4" font-family="Helvetica,sans-Serif" font-size="11.00" fill="#000000">jsonb[2147483647]</text>
<polygon fill="none" stroke="#000000" points="213.5,-306.7 213.5,-328.7 463.5,-328.7 463.5,-306.7 213.5,-306.7"/>
<image xlink:href="../../images/foreignKeys.png" width="11px" height="12px" preserveAspectRatio="xMinYMin meet" x="218.5" y="-323.7"/>
<text text-anchor="start" x="233.5" y="-313.8" font-family="Helvetica,sans-Serif" font-size="11.00" fill="#000000">accompanied_by_id</text>
<polygon fill="none" stroke="#000000" points="463.5,-306.7 463.5,-328.7 562.5,-328.7 562.5,-306.7 463.5,-306.7"/>
<text text-anchor="start" x="466.5" y="-314.4" font-family="Helvetica,sans-Serif" font-size="11.00" fill="#000000">int8[19]</text>
<polygon fill="none" stroke="#000000" points="213.5,-284.7 213.5,-306.7 463.5,-306.7 463.5,-284.7 213.5,-284.7"/>
<text text-anchor="start" x="233.5" y="-291.8" font-family="Helvetica,sans-Serif" font-size="11.00" fill="#000000">transport_id</text>
<polygon fill="none" stroke="#000000" points="463.5,-284.7 463.5,-306.7 562.5,-306.7 562.5,-284.7 463.5,-284.7"/>
<text text-anchor="start" x="466.5" y="-292.4" font-family="Helvetica,sans-Serif" font-size="11.00" fill="#000000">int8[19]</text>
<polygon fill="#ffffff" stroke="transparent" points="213.5,-265.7 213.5,-284.7 342.5,-284.7 342.5,-265.7 213.5,-265.7"/>
<polygon fill="none" stroke="#000000" points="213.5,-265.7 213.5,-284.7 342.5,-284.7 342.5,-265.7 213.5,-265.7"/>
<text text-anchor="start" x="216.5" y="-271.8" font-family="Helvetica,sans-Serif" font-size="11.00" fill="#000000">&lt; 7</text>
<polygon fill="#ffffff" stroke="transparent" points="342.5,-265.7 342.5,-284.7 463.5,-284.7 463.5,-265.7 342.5,-265.7"/>
<polygon fill="none" stroke="#000000" points="342.5,-265.7 342.5,-284.7 463.5,-284.7 463.5,-265.7 342.5,-265.7"/>
<text text-anchor="start" x="454.3862" y="-271.8" font-family="Helvetica,sans-Serif" font-size="11.00" fill="#000000"> &#160;</text>
<polygon fill="#ffffff" stroke="transparent" points="463.5,-265.7 463.5,-284.7 562.5,-284.7 562.5,-265.7 463.5,-265.7"/>
<polygon fill="none" stroke="#000000" points="463.5,-265.7 463.5,-284.7 562.5,-284.7 562.5,-265.7 463.5,-265.7"/>
<text text-anchor="start" x="543.9053" y="-271.8" font-family="Helvetica,sans-Serif" font-size="11.00" fill="#000000">1 &gt;</text>
<polygon fill="none" stroke="#000000" stroke-width="2" points="212,-264.7 212,-704.7 563,-704.7 563,-264.7 212,-264.7"/>
</a>
</g>
</g>
<!-- reference_data -->
<g id="node2" class="node">
<title>reference_data</title>
<g id="a_node2"><a xlink:href="../../tables/reference_data.html" xlink:title="reference_data" target="_top">
<polygon fill="#ffffff" stroke="transparent" points="13.5,-125.2 13.5,-274.2 156.5,-274.2 156.5,-125.2 13.5,-125.2"/>
<polygon fill="#f5f5f5" stroke="transparent" points="14,-250.7 14,-273.7 157,-273.7 157,-250.7 14,-250.7"/>
<polygon fill="none" stroke="#000000" points="14,-250.7 14,-273.7 157,-273.7 157,-250.7 14,-250.7"/>
<text text-anchor="start" x="19" y="-259.3" font-family="Helvetica,sans-Serif" font-weight="bold" font-size="11.00" fill="#000000">reference_data</text>
<text text-anchor="start" x="122.0437" y="-258.8" font-family="Helvetica,sans-Serif" font-size="11.00" fill="#000000">[table]</text>
<polygon fill="none" stroke="#000000" points="14,-228.7 14,-250.7 157,-250.7 157,-228.7 14,-228.7"/>
<image xlink:href="../../images/primaryKeys.png" width="11px" height="12px" preserveAspectRatio="xMinYMin meet" x="19" y="-245.7"/>
<text text-anchor="start" x="34" y="-235.8" font-family="Helvetica,sans-Serif" font-size="11.00" fill="#000000">id</text>
<polygon fill="#ffffff" stroke="transparent" points="14,-206.7 14,-228.7 157,-228.7 157,-206.7 14,-206.7"/>
<polygon fill="none" stroke="#000000" points="14,-206.7 14,-228.7 157,-228.7 157,-206.7 14,-206.7"/>
<image xlink:href="../../images/foreignKeys.png" width="11px" height="12px" preserveAspectRatio="xMinYMin meet" x="19" y="-223.7"/>
<text text-anchor="start" x="34" y="-213.8" font-family="Helvetica,sans-Serif" font-size="11.00" fill="#000000">domain</text>
<polygon fill="#ffffff" stroke="transparent" points="14,-184.7 14,-206.7 157,-206.7 157,-184.7 14,-184.7"/>
<polygon fill="none" stroke="#000000" points="14,-184.7 14,-206.7 157,-206.7 157,-184.7 14,-184.7"/>
<text text-anchor="start" x="34" y="-191.8" font-family="Helvetica,sans-Serif" font-size="11.00" fill="#000000">code</text>
<polygon fill="#ffffff" stroke="transparent" points="14,-162.7 14,-184.7 157,-184.7 157,-162.7 14,-162.7"/>
<polygon fill="none" stroke="#000000" points="14,-162.7 14,-184.7 157,-184.7 157,-162.7 14,-162.7"/>
<text text-anchor="start" x="34" y="-169.8" font-family="Helvetica,sans-Serif" font-size="11.00" fill="#000000">sequence_number</text>
<polygon fill="none" stroke="#000000" points="14,-143.7 14,-162.7 157,-162.7 157,-143.7 14,-143.7"/>
<text text-anchor="start" x="17" y="-149.8" font-family="Helvetica,sans-Serif" font-size="11.00" fill="#000000">...</text>
<polygon fill="#ffffff" stroke="transparent" points="14,-124.7 14,-143.7 57,-143.7 57,-124.7 14,-124.7"/>
<polygon fill="none" stroke="#000000" points="14,-124.7 14,-143.7 57,-143.7 57,-124.7 14,-124.7"/>
<text text-anchor="start" x="17" y="-130.8" font-family="Helvetica,sans-Serif" font-size="11.00" fill="#000000">&lt; 1</text>
<polygon fill="#ffffff" stroke="transparent" points="57,-124.7 57,-143.7 118,-143.7 118,-124.7 57,-124.7"/>
<polygon fill="none" stroke="#000000" points="57,-124.7 57,-143.7 118,-143.7 118,-124.7 57,-124.7"/>
<text text-anchor="start" x="70.3807" y="-130.8" font-family="Helvetica,sans-Serif" font-size="11.00" fill="#000000">158 rows</text>
<polygon fill="#ffffff" stroke="transparent" points="118,-124.7 118,-143.7 157,-143.7 157,-124.7 118,-124.7"/>
<polygon fill="none" stroke="#000000" points="118,-124.7 118,-143.7 157,-143.7 157,-124.7 118,-124.7"/>
<text text-anchor="start" x="132.2904" y="-130.8" font-family="Helvetica,sans-Serif" font-size="11.00" fill="#000000">18 &gt;</text>
</a>
</g>
</g>
<!-- temporary_absence_authorisation&#45;&gt;reference_data -->
<g id="edge1" class="edge">
<title>temporary_absence_authorisation:w&#45;&gt;reference_data:e</title>
<path fill="none" stroke="#000000" d="M199.2774,-358.4368C164.8811,-339.0354 210.9192,-239.7 157,-239.7"/>
<polygon fill="#000000" stroke="#000000" points="205.7026,-359.9109 212.6949,-365.2088 209.6013,-360.8055 213.5,-361.7 213.5,-361.7 213.5,-361.7 209.6013,-360.8055 214.3051,-358.1912 205.7026,-359.9109 205.7026,-359.9109"/>
<ellipse fill="none" stroke="#000000" cx="202.5836" cy="-359.1953" rx="3.2" ry="3.2"/>
</g>
<!-- temporary_absence_authorisation&#45;&gt;reference_data -->
<g id="edge2" class="edge">
<title>temporary_absence_authorisation:w&#45;&gt;reference_data:e</title>
<path fill="none" stroke="#000000" d="M198.9363,-536.3051C95.2036,-514.3145 286.4065,-239.7 157,-239.7"/>
<polygon fill="#000000" stroke="#000000" points="205.5364,-536.9372 213.1567,-541.2836 209.5182,-537.3186 213.5,-537.7 213.5,-537.7 213.5,-537.7 209.5182,-537.3186 213.8433,-534.1164 205.5364,-536.9372 205.5364,-536.9372"/>
<ellipse fill="none" stroke="#000000" cx="202.351" cy="-536.6321" rx="3.2" ry="3.2"/>
</g>
<!-- temporary_absence_authorisation&#45;&gt;reference_data -->
<g id="edge3" class="edge">
<title>temporary_absence_authorisation:w&#45;&gt;reference_data:e</title>
<path fill="none" stroke="#000000" d="M198.9398,-558.4107C85.8034,-536.3907 296.0626,-239.7 157,-239.7"/>
<polygon fill="#000000" stroke="#000000" points="205.5312,-558.9943 213.1824,-563.286 209.5156,-559.3472 213.5,-559.7 213.5,-559.7 213.5,-559.7 209.5156,-559.3472 213.8176,-556.114 205.5312,-558.9943 205.5312,-558.9943"/>
<ellipse fill="none" stroke="#000000" cx="202.3437" cy="-558.712" rx="3.2" ry="3.2"/>
</g>
<!-- temporary_absence_authorisation&#45;&gt;reference_data -->
<g id="edge4" class="edge">
<title>temporary_absence_authorisation:w&#45;&gt;reference_data:e</title>
<path fill="none" stroke="#000000" d="M199.0922,-580.5287C76.1664,-558.7206 305.7945,-239.7 157,-239.7"/>
<polygon fill="#000000" stroke="#000000" points="205.5263,-581.0517 213.2083,-585.2882 209.5132,-581.3759 213.5,-581.7 213.5,-581.7 213.5,-581.7 209.5132,-581.3759 213.7917,-578.1118 205.5263,-581.0517 205.5263,-581.0517"/>
<ellipse fill="none" stroke="#000000" cx="202.3368" cy="-580.7924" rx="3.2" ry="3.2"/>
</g>
<!-- temporary_absence_authorisation&#45;&gt;reference_data -->
<g id="edge5" class="edge">
<title>temporary_absence_authorisation:w&#45;&gt;reference_data:e</title>
<path fill="none" stroke="#000000" d="M199.6082,-313.7247C177.3101,-297.8299 193.9535,-239.7 157,-239.7"/>
<polygon fill="#000000" stroke="#000000" points="205.8087,-315.499 212.5096,-321.1611 209.6544,-316.5995 213.5,-317.7 213.5,-317.7 213.5,-317.7 209.6544,-316.5995 214.4904,-314.2389 205.8087,-315.499 205.8087,-315.499"/>
<ellipse fill="none" stroke="#000000" cx="202.7322" cy="-314.6186" rx="3.2" ry="3.2"/>
</g>
<!-- temporary_absence_authorisation&#45;&gt;reference_data -->
<g id="edge7" class="edge">
<title>temporary_absence_authorisation:w&#45;&gt;reference_data:e</title>
<path fill="none" stroke="#000000" d="M199.0917,-492.078C113.6009,-470.4456 267.227,-239.7 157,-239.7"/>
<polygon fill="#000000" stroke="#000000" points="205.5502,-492.805 213.0973,-497.2774 209.5251,-493.2525 213.5,-493.7 213.5,-493.7 213.5,-493.7 209.5251,-493.2525 213.9027,-490.1226 205.5502,-492.805 205.5502,-492.805"/>
<ellipse fill="none" stroke="#000000" cx="202.3703" cy="-492.447" rx="3.2" ry="3.2"/>
</g>
<!-- person_summary -->
<g id="node3" class="node">
<title>person_summary</title>
<g id="a_node3"><a xlink:href="../../tables/person_summary.html" xlink:title="person_summary" target="_top">
<polygon fill="#ffffff" stroke="transparent" points="8,-577.2 8,-660.2 162,-660.2 162,-577.2 8,-577.2"/>
<polygon fill="#f5f5f5" stroke="transparent" points="8,-636.7 8,-659.7 162,-659.7 162,-636.7 8,-636.7"/>
<polygon fill="none" stroke="#000000" points="8,-636.7 8,-659.7 162,-659.7 162,-636.7 8,-636.7"/>
<text text-anchor="start" x="13" y="-645.3" font-family="Helvetica,sans-Serif" font-weight="bold" font-size="11.00" fill="#000000">person_summary</text>
<text text-anchor="start" x="127.5219" y="-644.8" font-family="Helvetica,sans-Serif" font-size="11.00" fill="#000000">[table]</text>
<polygon fill="none" stroke="#000000" points="8,-614.7 8,-636.7 162,-636.7 162,-614.7 8,-614.7"/>
<image xlink:href="../../images/primaryKeys.png" width="11px" height="12px" preserveAspectRatio="xMinYMin meet" x="13" y="-631.7"/>
<text text-anchor="start" x="37" y="-621.8" font-family="Helvetica,sans-Serif" font-size="11.00" fill="#000000">person_identifier</text>
<polygon fill="none" stroke="#000000" points="8,-595.7 8,-614.7 162,-614.7 162,-595.7 8,-595.7"/>
<text text-anchor="start" x="11" y="-601.8" font-family="Helvetica,sans-Serif" font-size="11.00" fill="#000000">...</text>
<polygon fill="#ffffff" stroke="transparent" points="8,-576.7 8,-595.7 74,-595.7 74,-576.7 8,-576.7"/>
<polygon fill="none" stroke="#000000" points="8,-576.7 8,-595.7 74,-595.7 74,-576.7 8,-576.7"/>
<text text-anchor="start" x="11" y="-582.8" font-family="Helvetica,sans-Serif" font-size="11.00" fill="#000000"> &#160;</text>
<polygon fill="#ffffff" stroke="transparent" points="74,-576.7 74,-595.7 113,-595.7 113,-576.7 74,-576.7"/>
<polygon fill="none" stroke="#000000" points="74,-576.7 74,-595.7 113,-595.7 113,-576.7 74,-576.7"/>
<text text-anchor="start" x="103.8862" y="-582.8" font-family="Helvetica,sans-Serif" font-size="11.00" fill="#000000"> &#160;</text>
<polygon fill="#ffffff" stroke="transparent" points="113,-576.7 113,-595.7 162,-595.7 162,-576.7 113,-576.7"/>
<polygon fill="none" stroke="#000000" points="113,-576.7 113,-595.7 162,-595.7 162,-576.7 113,-576.7"/>
<text text-anchor="start" x="143.4053" y="-582.8" font-family="Helvetica,sans-Serif" font-size="11.00" fill="#000000">2 &gt;</text>
</a>
</g>
</g>
<!-- temporary_absence_authorisation&#45;&gt;person_summary -->
<g id="edge6" class="edge">
<title>temporary_absence_authorisation:w&#45;&gt;person_summary:e</title>
<path fill="none" stroke="#000000" d="M199.0156,-625.7C186.6771,-625.7 179.1667,-625.7 162,-625.7"/>
<polygon fill="#000000" stroke="#000000" points="205.5,-625.7001 213.5,-629.3 209.5,-625.7 213.5,-625.7 213.5,-625.7 213.5,-625.7 209.5,-625.7 213.5,-622.1 205.5,-625.7001 205.5,-625.7001"/>
<ellipse fill="none" stroke="#000000" cx="202.3" cy="-625.7001" rx="3.2" ry="3.2"/>
</g>
<!-- temporary_absence_occurrence -->
<g id="node4" class="node">
<title>temporary_absence_occurrence</title>
<g id="a_node4"><a xlink:href="../../tables/temporary_absence_occurrence.html" xlink:title="temporary_absence_occurrence" target="_top">
<polygon fill="#ffffff" stroke="transparent" points="613,-38.2 613,-363.2 865,-363.2 865,-38.2 613,-38.2"/>
<polygon fill="#f5f5f5" stroke="transparent" points="613,-339.7 613,-362.7 865,-362.7 865,-339.7 613,-339.7"/>
<polygon fill="none" stroke="#000000" points="613,-339.7 613,-362.7 865,-362.7 865,-339.7 613,-339.7"/>
<text text-anchor="start" x="618" y="-348.3" font-family="Helvetica,sans-Serif" font-weight="bold" font-size="11.00" fill="#000000">temporary_absence_occurrence</text>
<text text-anchor="start" x="830.5219" y="-347.8" font-family="Helvetica,sans-Serif" font-size="11.00" fill="#000000">[table]</text>
<polygon fill="none" stroke="#000000" points="613,-317.7 613,-339.7 865,-339.7 865,-317.7 613,-317.7"/>
<image xlink:href="../../images/primaryKeys.png" width="11px" height="12px" preserveAspectRatio="xMinYMin meet" x="618" y="-334.7"/>
<text text-anchor="start" x="642" y="-324.8" font-family="Helvetica,sans-Serif" font-size="11.00" fill="#000000">id</text>
<polygon fill="#ffffff" stroke="transparent" points="613,-295.7 613,-317.7 865,-317.7 865,-295.7 613,-295.7"/>
<polygon fill="none" stroke="#000000" points="613,-295.7 613,-317.7 865,-317.7 865,-295.7 613,-295.7"/>
<image xlink:href="../../images/foreignKeys.png" width="11px" height="12px" preserveAspectRatio="xMinYMin meet" x="618" y="-312.7"/>
<text text-anchor="start" x="642" y="-302.8" font-family="Helvetica,sans-Serif" font-size="11.00" fill="#000000">authorisation_id</text>
<polygon fill="#ffffff" stroke="transparent" points="613,-273.7 613,-295.7 865,-295.7 865,-273.7 613,-273.7"/>
<polygon fill="none" stroke="#000000" points="613,-273.7 613,-295.7 865,-295.7 865,-273.7 613,-273.7"/>
<text text-anchor="start" x="642" y="-280.8" font-family="Helvetica,sans-Serif" font-size="11.00" fill="#000000">start</text>
<polygon fill="#ffffff" stroke="transparent" points="613,-251.7 613,-273.7 865,-273.7 865,-251.7 613,-251.7"/>
<polygon fill="none" stroke="#000000" points="613,-251.7 613,-273.7 865,-273.7 865,-251.7 613,-251.7"/>
<text text-anchor="start" x="642" y="-258.8" font-family="Helvetica,sans-Serif" font-size="11.00" fill="#000000">end</text>
<polygon fill="none" stroke="#000000" points="613,-229.7 613,-251.7 865,-251.7 865,-229.7 613,-229.7"/>
<image xlink:href="../../images/foreignKeys.png" width="11px" height="12px" preserveAspectRatio="xMinYMin meet" x="618" y="-246.7"/>
<text text-anchor="start" x="642" y="-236.8" font-family="Helvetica,sans-Serif" font-size="11.00" fill="#000000">accompanied_by_id</text>
<polygon fill="none" stroke="#000000" points="613,-207.7 613,-229.7 865,-229.7 865,-207.7 613,-207.7"/>
<image xlink:href="../../images/foreignKeys.png" width="11px" height="12px" preserveAspectRatio="xMinYMin meet" x="618" y="-224.7"/>
<text text-anchor="start" x="642" y="-214.8" font-family="Helvetica,sans-Serif" font-size="11.00" fill="#000000">transport_id</text>
<polygon fill="#ffffff" stroke="transparent" points="613,-185.7 613,-207.7 865,-207.7 865,-185.7 613,-185.7"/>
<polygon fill="none" stroke="#000000" points="613,-185.7 613,-207.7 865,-207.7 865,-185.7 613,-185.7"/>
<text text-anchor="start" x="642" y="-192.8" font-family="Helvetica,sans-Serif" font-size="11.00" fill="#000000">legacy_id</text>
<polygon fill="none" stroke="#000000" points="613,-163.7 613,-185.7 865,-185.7 865,-163.7 613,-163.7"/>
<image xlink:href="../../images/foreignKeys.png" width="11px" height="12px" preserveAspectRatio="xMinYMin meet" x="618" y="-180.7"/>
<text text-anchor="start" x="642" y="-170.8" font-family="Helvetica,sans-Serif" font-size="11.00" fill="#000000">absence_type_id</text>
<polygon fill="none" stroke="#000000" points="613,-141.7 613,-163.7 865,-163.7 865,-141.7 613,-141.7"/>
<image xlink:href="../../images/foreignKeys.png" width="11px" height="12px" preserveAspectRatio="xMinYMin meet" x="618" y="-158.7"/>
<text text-anchor="start" x="642" y="-148.8" font-family="Helvetica,sans-Serif" font-size="11.00" fill="#000000">absence_sub_type_id</text>
<polygon fill="none" stroke="#000000" points="613,-119.7 613,-141.7 865,-141.7 865,-119.7 613,-119.7"/>
<image xlink:href="../../images/foreignKeys.png" width="11px" height="12px" preserveAspectRatio="xMinYMin meet" x="618" y="-136.7"/>
<text text-anchor="start" x="642" y="-126.8" font-family="Helvetica,sans-Serif" font-size="11.00" fill="#000000">absence_reason_category_id</text>
<polygon fill="none" stroke="#000000" points="613,-97.7 613,-119.7 865,-119.7 865,-97.7 613,-97.7"/>
<image xlink:href="../../images/foreignKeys.png" width="11px" height="12px" preserveAspectRatio="xMinYMin meet" x="618" y="-114.7"/>
<text text-anchor="start" x="642" y="-104.8" font-family="Helvetica,sans-Serif" font-size="11.00" fill="#000000">absence_reason_id</text>
<polygon fill="#ffffff" stroke="transparent" points="613,-75.7 613,-97.7 865,-97.7 865,-75.7 613,-75.7"/>
<polygon fill="none" stroke="#000000" points="613,-75.7 613,-97.7 865,-97.7 865,-75.7 613,-75.7"/>
<image xlink:href="../../images/foreignKeys.png" width="11px" height="12px" preserveAspectRatio="xMinYMin meet" x="618" y="-92.7"/>
<text text-anchor="start" x="642" y="-82.8" font-family="Helvetica,sans-Serif" font-size="11.00" fill="#000000">status_id</text>
<polygon fill="none" stroke="#000000" points="613,-56.7 613,-75.7 865,-75.7 865,-56.7 613,-56.7"/>
<text text-anchor="start" x="616" y="-62.8" font-family="Helvetica,sans-Serif" font-size="11.00" fill="#000000">...</text>
<polygon fill="#ffffff" stroke="transparent" points="613,-37.7 613,-56.7 733,-56.7 733,-37.7 613,-37.7"/>
<polygon fill="none" stroke="#000000" points="613,-37.7 613,-56.7 733,-56.7 733,-37.7 613,-37.7"/>
<text text-anchor="start" x="616" y="-43.8" font-family="Helvetica,sans-Serif" font-size="11.00" fill="#000000">&lt; 8</text>
<polygon fill="#ffffff" stroke="transparent" points="733,-37.7 733,-56.7 794,-56.7 794,-37.7 733,-37.7"/>
<polygon fill="none" stroke="#000000" points="733,-37.7 733,-56.7 794,-56.7 794,-37.7 733,-37.7"/>
<text text-anchor="start" x="784.8862" y="-43.8" font-family="Helvetica,sans-Serif" font-size="11.00" fill="#000000"> &#160;</text>
<polygon fill="#ffffff" stroke="transparent" points="794,-37.7 794,-56.7 865,-56.7 865,-37.7 794,-37.7"/>
<polygon fill="none" stroke="#000000" points="794,-37.7 794,-56.7 865,-56.7 865,-37.7 794,-37.7"/>
<text text-anchor="start" x="846.4053" y="-43.8" font-family="Helvetica,sans-Serif" font-size="11.00" fill="#000000">1 &gt;</text>
</a>
</g>
</g>
<!-- temporary_absence_occurrence&#45;&gt;temporary_absence_authorisation -->
<g id="edge13" class="edge">
<title>temporary_absence_occurrence:w&#45;&gt;temporary_absence_authorisation:e</title>
<path fill="none" stroke="#000000" d="M599.2257,-311.2897C545.6281,-353.3102 638.5352,-669.7 562.5,-669.7"/>
<polygon fill="#000000" stroke="#000000" points="605.4102,-309.229 614.138,-310.1154 609.2051,-307.9645 613,-306.7 613,-306.7 613,-306.7 609.2051,-307.9645 611.862,-303.2846 605.4102,-309.229 605.4102,-309.229"/>
<ellipse fill="none" stroke="#000000" cx="602.3743" cy="-310.2406" rx="3.2" ry="3.2"/>
</g>
<!-- temporary_absence_occurrence&#45;&gt;reference_data -->
<g id="edge8" class="edge">
<title>temporary_absence_occurrence:w&#45;&gt;reference_data:e</title>
<path fill="none" stroke="#000000" d="M598.5977,-130.488C498.545,-127.8199 275.8756,-101.6471 203,-148.7 164.928,-173.2816 202.3181,-239.7 157,-239.7"/>
<polygon fill="#000000" stroke="#000000" points="605.0009,-130.5822 612.947,-134.2996 609.0004,-130.6411 613,-130.7 613,-130.7 613,-130.7 609.0004,-130.6411 613.053,-127.1004 605.0009,-130.5822 605.0009,-130.5822"/>
<ellipse fill="none" stroke="#000000" cx="601.8012" cy="-130.5351" rx="3.2" ry="3.2"/>
</g>
<!-- temporary_absence_occurrence&#45;&gt;reference_data -->
<g id="edge9" class="edge">
<title>temporary_absence_occurrence:w&#45;&gt;reference_data:e</title>
<path fill="none" stroke="#000000" d="M598.5906,-108.411C498.3931,-104.7619 273.7572,-68.6177 203,-118.7 156.0401,-151.9384 214.5328,-239.7 157,-239.7"/>
<polygon fill="#000000" stroke="#000000" points="605.0016,-108.5395 612.9278,-112.2993 609.0008,-108.6198 613,-108.7 613,-108.7 613,-108.7 609.0008,-108.6198 613.0722,-105.1007 605.0016,-108.5395 605.0016,-108.5395"/>
<ellipse fill="none" stroke="#000000" cx="601.8023" cy="-108.4753" rx="3.2" ry="3.2"/>
</g>
<!-- temporary_absence_occurrence&#45;&gt;reference_data -->
<g id="edge10" class="edge">
<title>temporary_absence_occurrence:w&#45;&gt;reference_data:e</title>
<path fill="none" stroke="#000000" d="M598.3056,-152.5551C498.3584,-150.7794 279.019,-133.991 203,-175.7 172.2894,-192.5499 192.0294,-239.7 157,-239.7"/>
<polygon fill="#000000" stroke="#000000" points="605.0004,-152.6211 612.9645,-156.2998 609.0002,-152.6605 613,-152.7 613,-152.7 613,-152.7 609.0002,-152.6605 613.0355,-149.1002 605.0004,-152.6211 605.0004,-152.6211"/>
<ellipse fill="none" stroke="#000000" cx="601.8005" cy="-152.5895" rx="3.2" ry="3.2"/>
</g>
<!-- temporary_absence_occurrence&#45;&gt;reference_data -->
<g id="edge11" class="edge">
<title>temporary_absence_occurrence:w&#45;&gt;reference_data:e</title>
<path fill="none" stroke="#000000" d="M598.332,-174.6663C498.7739,-174.2715 283.8149,-171.0955 203,-202.7 178.5648,-212.2559 183.2373,-239.7 157,-239.7"/>
<polygon fill="#000000" stroke="#000000" points="605,-174.6815 612.9917,-178.3 609,-174.6908 613,-174.7 613,-174.7 613,-174.7 609,-174.6908 613.0083,-171.1 605,-174.6815 605,-174.6815"/>
<ellipse fill="none" stroke="#000000" cx="601.8" cy="-174.6742" rx="3.2" ry="3.2"/>
</g>
<!-- temporary_absence_occurrence&#45;&gt;reference_data -->
<g id="edge12" class="edge">
<title>temporary_absence_occurrence:w&#45;&gt;reference_data:e</title>
<path fill="none" stroke="#000000" d="M598.4236,-240.6982C407.7683,-240.6518 354.7192,-239.7 157,-239.7"/>
<polygon fill="#000000" stroke="#000000" points="605,-240.699 612.9995,-244.3 609,-240.6995 613,-240.7 613,-240.7 613,-240.7 609,-240.6995 613.0005,-237.1 605,-240.699 605,-240.699"/>
<ellipse fill="none" stroke="#000000" cx="601.8" cy="-240.6986" rx="3.2" ry="3.2"/>
</g>
<!-- temporary_absence_occurrence&#45;&gt;reference_data -->
<g id="edge14" class="edge">
<title>temporary_absence_occurrence:w&#45;&gt;reference_data:e</title>
<path fill="none" stroke="#000000" d="M598.5331,-86.4772C426.3415,-81.1687 345.2091,16.2419 203,-89.7 147.0805,-131.3585 226.7311,-239.7 157,-239.7"/>
<polygon fill="#000000" stroke="#000000" points="605.0009,-86.5767 612.9445,-90.2996 609.0005,-86.6384 613,-86.7 613,-86.7 613,-86.7 609.0005,-86.6384 613.0555,-83.1004 605.0009,-86.5767 605.0009,-86.5767"/>
<ellipse fill="none" stroke="#000000" cx="601.8013" cy="-86.5274" rx="3.2" ry="3.2"/>
</g>
<!-- temporary_absence_occurrence&#45;&gt;reference_data -->
<g id="edge15" class="edge">
<title>temporary_absence_occurrence:w&#45;&gt;reference_data:e</title>
<path fill="none" stroke="#000000" d="M598.5958,-218.7173C428.0612,-219.1345 380.2358,-227.0311 203,-236.7 182.5425,-237.816 177.4879,-239.7 157,-239.7"/>
<polygon fill="#000000" stroke="#000000" points="605,-218.7097 613.0044,-222.3 609,-218.7048 613,-218.7 613,-218.7 613,-218.7 609,-218.7048 612.9956,-215.1 605,-218.7097 605,-218.7097"/>
<ellipse fill="none" stroke="#000000" cx="601.8" cy="-218.7136" rx="3.2" ry="3.2"/>
</g>
</g>
</svg>
