<?xml version="1.0" encoding="UTF-8" standalone="no"?>
<!DOCTYPE svg PUBLIC "-//W3C//DTD SVG 1.1//EN"
 "http://www.w3.org/Graphics/SVG/1.1/DTD/svg11.dtd">
<!-- Generated by graphviz version 2.40.1 (20161225.0304)
 -->
<!-- Title: twoDegreesRelationshipsDiagram Pages: 1 -->
<svg width="582pt" height="613pt"
 viewBox="0.00 0.00 582.00 613.20" xmlns="http://www.w3.org/2000/svg" xmlns:xlink="http://www.w3.org/1999/xlink">
<g id="graph0" class="graph" transform="scale(1 1) rotate(0) translate(4 609.2)">
<title>twoDegreesRelationshipsDiagram</title>
<polygon fill="#ffffff" stroke="transparent" points="-4,4 -4,-609.2 578,-609.2 578,4 -4,4"/>
<text text-anchor="middle" x="72.4936" y="-7.3" font-family="Helvetica,sans-Serif" font-size="11.00" fill="#000000">Generated by SchemaSpy</text>
<!-- temporary_absence_authorisation_audit -->
<g id="node1" class="node">
<title>temporary_absence_authorisation_audit</title>
<g id="a_node1"><a xlink:href="../../tables/temporary_absence_authorisation_audit.html" xlink:title="temporary_absence_authorisation_audit" target="_top">
<polygon fill="#ffffff" stroke="transparent" points="224,-540.2 224,-601.2 533,-601.2 533,-540.2 224,-540.2"/>
<polygon fill="#f5f5f5" stroke="transparent" points="224.5,-577.7 224.5,-600.7 533.5,-600.7 533.5,-577.7 224.5,-577.7"/>
<polygon fill="none" stroke="#000000" points="224.5,-577.7 224.5,-600.7 533.5,-600.7 533.5,-577.7 224.5,-577.7"/>
<text text-anchor="start" x="229.5" y="-586.3" font-family="Helvetica,sans-Serif" font-weight="bold" font-size="11.00" fill="#000000">temporary_absence_authorisation_audit</text>
<text text-anchor="start" x="499.0219" y="-585.8" font-family="Helvetica,sans-Serif" font-size="11.00" fill="#000000">[table]</text>
<polygon fill="none" stroke="#000000" points="224.5,-558.7 224.5,-577.7 533.5,-577.7 533.5,-558.7 224.5,-558.7"/>
<text text-anchor="start" x="227.5" y="-564.8" font-family="Helvetica,sans-Serif" font-size="11.00" fill="#000000">...</text>
<polygon fill="#ffffff" stroke="transparent" points="224.5,-539.7 224.5,-558.7 377.5,-558.7 377.5,-539.7 224.5,-539.7"/>
<polygon fill="none" stroke="#000000" points="224.5,-539.7 224.5,-558.7 377.5,-558.7 377.5,-539.7 224.5,-539.7"/>
<text text-anchor="start" x="227.5" y="-545.8" font-family="Helvetica,sans-Serif" font-size="11.00" fill="#000000">&lt; 1</text>
<polygon fill="#ffffff" stroke="transparent" points="377.5,-539.7 377.5,-558.7 455.5,-558.7 455.5,-539.7 377.5,-539.7"/>
<polygon fill="none" stroke="#000000" points="377.5,-539.7 377.5,-558.7 455.5,-558.7 455.5,-539.7 377.5,-539.7"/>
<text text-anchor="start" x="446.3862" y="-545.8" font-family="Helvetica,sans-Serif" font-size="11.00" fill="#000000"> &#160;</text>
<polygon fill="#ffffff" stroke="transparent" points="455.5,-539.7 455.5,-558.7 533.5,-558.7 533.5,-539.7 455.5,-539.7"/>
<polygon fill="none" stroke="#000000" points="455.5,-539.7 455.5,-558.7 533.5,-558.7 533.5,-539.7 455.5,-539.7"/>
<text text-anchor="start" x="524.3862" y="-545.8" font-family="Helvetica,sans-Serif" font-size="11.00" fill="#000000"> &#160;</text>
</a>
</g>
</g>
<!-- audit_revision -->
<g id="node2" class="node">
<title>audit_revision</title>
<g id="a_node2"><a xlink:href="../../tables/audit_revision.html" xlink:title="audit_revision" target="_top">
<polygon fill="#ffffff" stroke="transparent" points="8,-434.2 8,-517.2 142,-517.2 142,-434.2 8,-434.2"/>
<polygon fill="#f5f5f5" stroke="transparent" points="8,-493.7 8,-516.7 142,-516.7 142,-493.7 8,-493.7"/>
<polygon fill="none" stroke="#000000" points="8,-493.7 8,-516.7 142,-516.7 142,-493.7 8,-493.7"/>
<text text-anchor="start" x="13" y="-502.3" font-family="Helvetica,sans-Serif" font-weight="bold" font-size="11.00" fill="#000000">audit_revision</text>
<text text-anchor="start" x="107.5219" y="-501.8" font-family="Helvetica,sans-Serif" font-size="11.00" fill="#000000">[table]</text>
<polygon fill="none" stroke="#000000" points="8,-471.7 8,-493.7 142,-493.7 142,-471.7 8,-471.7"/>
<image xlink:href="../../images/primaryKeys.png" width="11px" height="12px" preserveAspectRatio="xMinYMin meet" x="13" y="-488.7"/>
<text text-anchor="start" x="28" y="-478.8" font-family="Helvetica,sans-Serif" font-size="11.00" fill="#000000">id</text>
<polygon fill="none" stroke="#000000" points="8,-452.7 8,-471.7 142,-471.7 142,-452.7 8,-452.7"/>
<text text-anchor="start" x="11" y="-458.8" font-family="Helvetica,sans-Serif" font-size="11.00" fill="#000000">...</text>
<polygon fill="#ffffff" stroke="transparent" points="8,-433.7 8,-452.7 64,-452.7 64,-433.7 8,-433.7"/>
<polygon fill="none" stroke="#000000" points="8,-433.7 8,-452.7 64,-452.7 64,-433.7 8,-433.7"/>
<text text-anchor="start" x="11" y="-439.8" font-family="Helvetica,sans-Serif" font-size="11.00" fill="#000000"> &#160;</text>
<polygon fill="#ffffff" stroke="transparent" points="64,-433.7 64,-452.7 98,-452.7 98,-433.7 64,-433.7"/>
<polygon fill="none" stroke="#000000" points="64,-433.7 64,-452.7 98,-452.7 98,-433.7 64,-433.7"/>
<text text-anchor="start" x="88.8862" y="-439.8" font-family="Helvetica,sans-Serif" font-size="11.00" fill="#000000"> &#160;</text>
<polygon fill="#ffffff" stroke="transparent" points="98,-433.7 98,-452.7 142,-452.7 142,-433.7 98,-433.7"/>
<polygon fill="none" stroke="#000000" points="98,-433.7 98,-452.7 142,-452.7 142,-433.7 98,-433.7"/>
<text text-anchor="start" x="123.4053" y="-439.8" font-family="Helvetica,sans-Serif" font-size="11.00" fill="#000000">3 &gt;</text>
</a>
</g>
</g>
<!-- temporary_absence_authorisation_audit&#45;&gt;audit_revision -->
<g id="edge1" class="edge">
<title>temporary_absence_authorisation_audit:w&#45;&gt;audit_revision:e</title>
<path fill="none" stroke="#000000" d="M210.2712,-564.4793C198.8831,-558.0914 196.2387,-543.2614 183,-529.7 163.6365,-509.8645 169.7199,-482.7 142,-482.7"/>
<polygon fill="#000000" stroke="#000000" points="216.6974,-565.9338 223.7052,-571.2112 220.5987,-566.8169 224.5,-567.7 224.5,-567.7 224.5,-567.7 220.5987,-566.8169 225.2948,-564.1888 216.6974,-565.9338 216.6974,-565.9338"/>
<ellipse fill="none" stroke="#000000" cx="213.5763" cy="-565.2273" rx="3.2" ry="3.2"/>
</g>
<!-- temporary_absence_movement_audit -->
<g id="node3" class="node">
<title>temporary_absence_movement_audit</title>
<g id="a_node3"><a xlink:href="../../tables/temporary_absence_movement_audit.html" xlink:title="temporary_absence_movement_audit" target="_top">
<polygon fill="#ffffff" stroke="transparent" points="191,-120.7 191,-518.7 566,-518.7 566,-120.7 191,-120.7"/>
<polygon fill="#f5f5f5" stroke="transparent" points="193.5,-493.7 193.5,-516.7 564.5,-516.7 564.5,-493.7 193.5,-493.7"/>
<polygon fill="none" stroke="#000000" points="193.5,-493.7 193.5,-516.7 564.5,-516.7 564.5,-493.7 193.5,-493.7"/>
<text text-anchor="start" x="198.5" y="-502.3" font-family="Helvetica,sans-Serif" font-weight="bold" font-size="11.00" fill="#000000">temporary_absence_movement_audit</text>
<text text-anchor="start" x="529.5437" y="-501.8" font-family="Helvetica,sans-Serif" font-size="11.00" fill="#000000">[table]</text>
<polygon fill="none" stroke="#000000" points="193.5,-471.7 193.5,-493.7 465.5,-493.7 465.5,-471.7 193.5,-471.7"/>
<image xlink:href="../../images/primaryKeys.png" width="11px" height="12px" preserveAspectRatio="xMinYMin meet" x="198.5" y="-488.7"/>
<text text-anchor="start" x="213.5" y="-478.8" font-family="Helvetica,sans-Serif" font-size="11.00" fill="#000000">rev_id</text>
<polygon fill="none" stroke="#000000" points="465.5,-471.7 465.5,-493.7 564.5,-493.7 564.5,-471.7 465.5,-471.7"/>
<text text-anchor="start" x="468.5" y="-479.4" font-family="Helvetica,sans-Serif" font-size="11.00" fill="#000000">int8[19]</text>
<polygon fill="none" stroke="#000000" points="193.5,-449.7 193.5,-471.7 465.5,-471.7 465.5,-449.7 193.5,-449.7"/>
<text text-anchor="start" x="213.5" y="-456.8" font-family="Helvetica,sans-Serif" font-size="11.00" fill="#000000">rev_type</text>
<polygon fill="none" stroke="#000000" points="465.5,-449.7 465.5,-471.7 564.5,-471.7 564.5,-449.7 465.5,-449.7"/>
<text text-anchor="start" x="468.5" y="-457.4" font-family="Helvetica,sans-Serif" font-size="11.00" fill="#000000">int2[5]</text>
<polygon fill="none" stroke="#000000" points="193.5,-427.7 193.5,-449.7 465.5,-449.7 465.5,-427.7 193.5,-427.7"/>
<image xlink:href="../../images/primaryKeys.png" width="11px" height="12px" preserveAspectRatio="xMinYMin meet" x="198.5" y="-444.7"/>
<text text-anchor="start" x="213.5" y="-434.8" font-family="Helvetica,sans-Serif" font-size="11.00" fill="#000000">id</text>
<polygon fill="none" stroke="#000000" points="465.5,-427.7 465.5,-449.7 564.5,-449.7 564.5,-427.7 465.5,-427.7"/>
<text text-anchor="start" x="468.5" y="-435.4" font-family="Helvetica,sans-Serif" font-size="11.00" fill="#000000">uuid[2147483647]</text>
<polygon fill="none" stroke="#000000" points="193.5,-405.7 193.5,-427.7 465.5,-427.7 465.5,-405.7 193.5,-405.7"/>
<text text-anchor="start" x="213.5" y="-412.8" font-family="Helvetica,sans-Serif" font-size="11.00" fill="#000000">person_identifier</text>
<polygon fill="none" stroke="#000000" points="465.5,-405.7 465.5,-427.7 564.5,-427.7 564.5,-405.7 465.5,-405.7"/>
<text text-anchor="start" x="468.5" y="-413.4" font-family="Helvetica,sans-Serif" font-size="11.00" fill="#000000">varchar[10]</text>
<polygon fill="none" stroke="#000000" points="193.5,-383.7 193.5,-405.7 465.5,-405.7 465.5,-383.7 193.5,-383.7"/>
<text text-anchor="start" x="213.5" y="-390.8" font-family="Helvetica,sans-Serif" font-size="11.00" fill="#000000">occurrence_id</text>
<polygon fill="none" stroke="#000000" points="465.5,-383.7 465.5,-405.7 564.5,-405.7 564.5,-383.7 465.5,-383.7"/>
<text text-anchor="start" x="468.5" y="-391.4" font-family="Helvetica,sans-Serif" font-size="11.00" fill="#000000">uuid[2147483647]</text>
<polygon fill="none" stroke="#000000" points="193.5,-361.7 193.5,-383.7 465.5,-383.7 465.5,-361.7 193.5,-361.7"/>
<text text-anchor="start" x="213.5" y="-368.8" font-family="Helvetica,sans-Serif" font-size="11.00" fill="#000000">occurred_at</text>
<polygon fill="none" stroke="#000000" points="465.5,-361.7 465.5,-383.7 564.5,-383.7 564.5,-361.7 465.5,-361.7"/>
<text text-anchor="start" x="468.5" y="-369.4" font-family="Helvetica,sans-Serif" font-size="11.00" fill="#000000">timestamp[29,6]</text>
<polygon fill="none" stroke="#000000" points="193.5,-339.7 193.5,-361.7 465.5,-361.7 465.5,-339.7 193.5,-339.7"/>
<text text-anchor="start" x="213.5" y="-346.8" font-family="Helvetica,sans-Serif" font-size="11.00" fill="#000000">direction</text>
<polygon fill="none" stroke="#000000" points="465.5,-339.7 465.5,-361.7 564.5,-361.7 564.5,-339.7 465.5,-339.7"/>
<text text-anchor="start" x="468.5" y="-347.4" font-family="Helvetica,sans-Serif" font-size="11.00" fill="#000000">varchar[3]</text>
<polygon fill="none" stroke="#000000" points="193.5,-317.7 193.5,-339.7 465.5,-339.7 465.5,-317.7 193.5,-317.7"/>
<text text-anchor="start" x="213.5" y="-324.8" font-family="Helvetica,sans-Serif" font-size="11.00" fill="#000000">absence_reason_id</text>
<polygon fill="none" stroke="#000000" points="465.5,-317.7 465.5,-339.7 564.5,-339.7 564.5,-317.7 465.5,-317.7"/>
<text text-anchor="start" x="468.5" y="-325.4" font-family="Helvetica,sans-Serif" font-size="11.00" fill="#000000">int8[19]</text>
<polygon fill="none" stroke="#000000" points="193.5,-295.7 193.5,-317.7 465.5,-317.7 465.5,-295.7 193.5,-295.7"/>
<text text-anchor="start" x="213.5" y="-302.8" font-family="Helvetica,sans-Serif" font-size="11.00" fill="#000000">accompanied_by_id</text>
<polygon fill="none" stroke="#000000" points="465.5,-295.7 465.5,-317.7 564.5,-317.7 564.5,-295.7 465.5,-295.7"/>
<text text-anchor="start" x="468.5" y="-303.4" font-family="Helvetica,sans-Serif" font-size="11.00" fill="#000000">int8[19]</text>
<polygon fill="none" stroke="#000000" points="193.5,-273.7 193.5,-295.7 465.5,-295.7 465.5,-273.7 193.5,-273.7"/>
<text text-anchor="start" x="213.5" y="-280.8" font-family="Helvetica,sans-Serif" font-size="11.00" fill="#000000">accompanied_by_notes</text>
<polygon fill="none" stroke="#000000" points="465.5,-273.7 465.5,-295.7 564.5,-295.7 564.5,-273.7 465.5,-273.7"/>
<text text-anchor="start" x="468.5" y="-281.4" font-family="Helvetica,sans-Serif" font-size="11.00" fill="#000000">text[2147483647]</text>
<polygon fill="none" stroke="#000000" points="193.5,-251.7 193.5,-273.7 465.5,-273.7 465.5,-251.7 193.5,-251.7"/>
<text text-anchor="start" x="213.5" y="-258.8" font-family="Helvetica,sans-Serif" font-size="11.00" fill="#000000">notes</text>
<polygon fill="none" stroke="#000000" points="465.5,-251.7 465.5,-273.7 564.5,-273.7 564.5,-251.7 465.5,-251.7"/>
<text text-anchor="start" x="468.5" y="-259.4" font-family="Helvetica,sans-Serif" font-size="11.00" fill="#000000">text[2147483647]</text>
<polygon fill="none" stroke="#000000" points="193.5,-229.7 193.5,-251.7 465.5,-251.7 465.5,-229.7 193.5,-229.7"/>
<text text-anchor="start" x="213.5" y="-236.8" font-family="Helvetica,sans-Serif" font-size="11.00" fill="#000000">recorded_at</text>
<polygon fill="none" stroke="#000000" points="465.5,-229.7 465.5,-251.7 564.5,-251.7 564.5,-229.7 465.5,-229.7"/>
<text text-anchor="start" x="468.5" y="-237.4" font-family="Helvetica,sans-Serif" font-size="11.00" fill="#000000">timestamp[29,6]</text>
<polygon fill="none" stroke="#000000" points="193.5,-207.7 193.5,-229.7 465.5,-229.7 465.5,-207.7 193.5,-207.7"/>
<text text-anchor="start" x="213.5" y="-214.8" font-family="Helvetica,sans-Serif" font-size="11.00" fill="#000000">recorded_by</text>
<polygon fill="none" stroke="#000000" points="465.5,-207.7 465.5,-229.7 564.5,-229.7 564.5,-207.7 465.5,-207.7"/>
<text text-anchor="start" x="468.5" y="-215.4" font-family="Helvetica,sans-Serif" font-size="11.00" fill="#000000">varchar[64]</text>
<polygon fill="none" stroke="#000000" points="193.5,-185.7 193.5,-207.7 465.5,-207.7 465.5,-185.7 193.5,-185.7"/>
<text text-anchor="start" x="213.5" y="-192.8" font-family="Helvetica,sans-Serif" font-size="11.00" fill="#000000">recorded_by_prison_code</text>
<polygon fill="none" stroke="#000000" points="465.5,-185.7 465.5,-207.7 564.5,-207.7 564.5,-185.7 465.5,-185.7"/>
<text text-anchor="start" x="468.5" y="-193.4" font-family="Helvetica,sans-Serif" font-size="11.00" fill="#000000">varchar[6]</text>
<polygon fill="none" stroke="#000000" points="193.5,-163.7 193.5,-185.7 465.5,-185.7 465.5,-163.7 193.5,-163.7"/>
<text text-anchor="start" x="213.5" y="-170.8" font-family="Helvetica,sans-Serif" font-size="11.00" fill="#000000">legacy_id</text>
<polygon fill="none" stroke="#000000" points="465.5,-163.7 465.5,-185.7 564.5,-185.7 564.5,-163.7 465.5,-163.7"/>
<text text-anchor="start" x="468.5" y="-171.4" font-family="Helvetica,sans-Serif" font-size="11.00" fill="#000000">varchar[32]</text>
<polygon fill="none" stroke="#000000" points="193.5,-141.7 193.5,-163.7 465.5,-163.7 465.5,-141.7 193.5,-141.7"/>
<text text-anchor="start" x="213.5" y="-148.8" font-family="Helvetica,sans-Serif" font-size="11.00" fill="#000000">location</text>
<polygon fill="none" stroke="#000000" points="465.5,-141.7 465.5,-163.7 564.5,-163.7 564.5,-141.7 465.5,-141.7"/>
<text text-anchor="start" x="468.2258" y="-149.4" font-family="Helvetica,sans-Serif" font-size="11.00" fill="#000000">jsonb[2147483647]</text>
<polygon fill="#ffffff" stroke="transparent" points="193.5,-122.7 193.5,-141.7 333.5,-141.7 333.5,-122.7 193.5,-122.7"/>
<polygon fill="none" stroke="#000000" points="193.5,-122.7 193.5,-141.7 333.5,-141.7 333.5,-122.7 193.5,-122.7"/>
<text text-anchor="start" x="196.5" y="-128.8" font-family="Helvetica,sans-Serif" font-size="11.00" fill="#000000">&lt; 1</text>
<polygon fill="#ffffff" stroke="transparent" points="333.5,-122.7 333.5,-141.7 465.5,-141.7 465.5,-122.7 333.5,-122.7"/>
<polygon fill="none" stroke="#000000" points="333.5,-122.7 333.5,-141.7 465.5,-141.7 465.5,-122.7 333.5,-122.7"/>
<text text-anchor="start" x="456.3862" y="-128.8" font-family="Helvetica,sans-Serif" font-size="11.00" fill="#000000"> &#160;</text>
<polygon fill="#ffffff" stroke="transparent" points="465.5,-122.7 465.5,-141.7 564.5,-141.7 564.5,-122.7 465.5,-122.7"/>
<polygon fill="none" stroke="#000000" points="465.5,-122.7 465.5,-141.7 564.5,-141.7 564.5,-122.7 465.5,-122.7"/>
<text text-anchor="start" x="545.9053" y="-128.8" font-family="Helvetica,sans-Serif" font-size="11.00" fill="#000000">0 &gt;</text>
<polygon fill="none" stroke="#000000" stroke-width="2" points="192,-121.7 192,-517.7 565,-517.7 565,-121.7 192,-121.7"/>
</a>
</g>
</g>
<!-- temporary_absence_movement_audit&#45;&gt;audit_revision -->
<g id="edge2" class="edge">
<title>temporary_absence_movement_audit:w&#45;&gt;audit_revision:e</title>
<path fill="none" stroke="#000000" d="M179.0156,-482.7C166.6771,-482.7 159.1667,-482.7 142,-482.7"/>
<polygon fill="#000000" stroke="#000000" points="185.5,-482.7001 193.5,-486.3 189.5,-482.7 193.5,-482.7 193.5,-482.7 193.5,-482.7 189.5,-482.7 193.5,-479.1 185.5,-482.7001 185.5,-482.7001"/>
<ellipse fill="none" stroke="#000000" cx="182.3" cy="-482.7001" rx="3.2" ry="3.2"/>
</g>
<!-- temporary_absence_occurrence_audit -->
<g id="node4" class="node">
<title>temporary_absence_occurrence_audit</title>
<g id="a_node4"><a xlink:href="../../tables/temporary_absence_occurrence_audit.html" xlink:title="temporary_absence_occurrence_audit" target="_top">
<polygon fill="#ffffff" stroke="transparent" points="232,-38.2 232,-99.2 525,-99.2 525,-38.2 232,-38.2"/>
<polygon fill="#f5f5f5" stroke="transparent" points="232.5,-75.7 232.5,-98.7 525.5,-98.7 525.5,-75.7 232.5,-75.7"/>
<polygon fill="none" stroke="#000000" points="232.5,-75.7 232.5,-98.7 525.5,-98.7 525.5,-75.7 232.5,-75.7"/>
<text text-anchor="start" x="237.5" y="-84.3" font-family="Helvetica,sans-Serif" font-weight="bold" font-size="11.00" fill="#000000">temporary_absence_occurrence_audit</text>
<text text-anchor="start" x="491.0219" y="-83.8" font-family="Helvetica,sans-Serif" font-size="11.00" fill="#000000">[table]</text>
<polygon fill="none" stroke="#000000" points="232.5,-56.7 232.5,-75.7 525.5,-75.7 525.5,-56.7 232.5,-56.7"/>
<text text-anchor="start" x="235.5" y="-62.8" font-family="Helvetica,sans-Serif" font-size="11.00" fill="#000000">...</text>
<polygon fill="#ffffff" stroke="transparent" points="232.5,-37.7 232.5,-56.7 377.5,-56.7 377.5,-37.7 232.5,-37.7"/>
<polygon fill="none" stroke="#000000" points="232.5,-37.7 232.5,-56.7 377.5,-56.7 377.5,-37.7 232.5,-37.7"/>
<text text-anchor="start" x="235.5" y="-43.8" font-family="Helvetica,sans-Serif" font-size="11.00" fill="#000000">&lt; 1</text>
<polygon fill="#ffffff" stroke="transparent" points="377.5,-37.7 377.5,-56.7 451.5,-56.7 451.5,-37.7 377.5,-37.7"/>
<polygon fill="none" stroke="#000000" points="377.5,-37.7 377.5,-56.7 451.5,-56.7 451.5,-37.7 377.5,-37.7"/>
<text text-anchor="start" x="442.3862" y="-43.8" font-family="Helvetica,sans-Serif" font-size="11.00" fill="#000000"> &#160;</text>
<polygon fill="#ffffff" stroke="transparent" points="451.5,-37.7 451.5,-56.7 525.5,-56.7 525.5,-37.7 451.5,-37.7"/>
<polygon fill="none" stroke="#000000" points="451.5,-37.7 451.5,-56.7 525.5,-56.7 525.5,-37.7 451.5,-37.7"/>
<text text-anchor="start" x="516.3862" y="-43.8" font-family="Helvetica,sans-Serif" font-size="11.00" fill="#000000"> &#160;</text>
</a>
</g>
</g>
<!-- temporary_absence_occurrence_audit&#45;&gt;audit_revision -->
<g id="edge3" class="edge">
<title>temporary_absence_occurrence_audit:w&#45;&gt;audit_revision:e</title>
<path fill="none" stroke="#000000" d="M218.0482,-67.5828C200.1637,-72.9219 193.9702,-89.1771 183,-110.7 145.2327,-184.7974 225.1672,-482.7 142,-482.7"/>
<polygon fill="#000000" stroke="#000000" points="224.567,-66.7336 232.9651,-69.2698 228.5335,-66.2168 232.5,-65.7 232.5,-65.7 232.5,-65.7 228.5335,-66.2168 232.0349,-62.1302 224.567,-66.7336 224.567,-66.7336"/>
<ellipse fill="none" stroke="#000000" cx="221.3939" cy="-67.147" rx="3.2" ry="3.2"/>
</g>
</g>
</svg>
