<?xml version="1.0" encoding="UTF-8" standalone="no"?>
<!DOCTYPE svg PUBLIC "-//W3C//DTD SVG 1.1//EN"
 "http://www.w3.org/Graphics/SVG/1.1/DTD/svg11.dtd">
<!-- Generated by graphviz version 2.40.1 (20161225.0304)
 -->
<!-- Title: twoDegreesRelationshipsDiagramImplied Pages: 1 -->
<svg width="602pt" height="942pt"
 viewBox="0.00 0.00 602.00 941.70" xmlns="http://www.w3.org/2000/svg" xmlns:xlink="http://www.w3.org/1999/xlink">
<g id="graph0" class="graph" transform="scale(1 1) rotate(0) translate(4 937.7)">
<title>twoDegreesRelationshipsDiagramImplied</title>
<polygon fill="#ffffff" stroke="transparent" points="-4,4 -4,-937.7 598,-937.7 598,4 -4,4"/>
<text text-anchor="middle" x="72.4936" y="-7.3" font-family="Helvetica,sans-Serif" font-size="11.00" fill="#000000">Generated by SchemaSpy</text>
<!-- audited_tap_authorisation -->
<g id="node1" class="node">
<title>audited_tap_authorisation</title>
<g id="a_node1"><a xlink:href="../../tables/audited_tap_authorisation.html" xlink:title="audited_tap_authorisation" target="_top">
<polygon fill="#ffffff" stroke="transparent" points="291,-887.7 291,-929.7 506,-929.7 506,-887.7 291,-887.7"/>
<polygon fill="#f5f5f5" stroke="transparent" points="291.5,-906.7 291.5,-929.7 506.5,-929.7 506.5,-906.7 291.5,-906.7"/>
<polygon fill="none" stroke="#000000" points="291.5,-906.7 291.5,-929.7 506.5,-929.7 506.5,-906.7 291.5,-906.7"/>
<text text-anchor="start" x="296.5" y="-915.3" font-family="Helvetica,sans-Serif" font-weight="bold" font-size="11.00" fill="#000000">audited_tap_authorisation</text>
<text text-anchor="start" x="473.4448" y="-914.8" font-family="Helvetica,sans-Serif" font-size="11.00" fill="#000000">[view]</text>
<polygon fill="none" stroke="#000000" points="291.5,-887.7 291.5,-906.7 506.5,-906.7 506.5,-887.7 291.5,-887.7"/>
<text text-anchor="start" x="294.5" y="-893.8" font-family="Helvetica,sans-Serif" font-size="11.00" fill="#000000">...</text>
</a>
</g>
</g>
<!-- person_summary -->
<g id="node2" class="node">
<title>person_summary</title>
<g id="a_node2"><a xlink:href="../../tables/person_summary.html" xlink:title="person_summary" target="_top">
<polygon fill="#ffffff" stroke="transparent" points="8,-680.2 8,-763.2 162,-763.2 162,-680.2 8,-680.2"/>
<polygon fill="#f5f5f5" stroke="transparent" points="8,-739.7 8,-762.7 162,-762.7 162,-739.7 8,-739.7"/>
<polygon fill="none" stroke="#000000" points="8,-739.7 8,-762.7 162,-762.7 162,-739.7 8,-739.7"/>
<text text-anchor="start" x="13" y="-748.3" font-family="Helvetica,sans-Serif" font-weight="bold" font-size="11.00" fill="#000000">person_summary</text>
<text text-anchor="start" x="127.5219" y="-747.8" font-family="Helvetica,sans-Serif" font-size="11.00" fill="#000000">[table]</text>
<polygon fill="none" stroke="#000000" points="8,-717.7 8,-739.7 162,-739.7 162,-717.7 8,-717.7"/>
<image xlink:href="../../images/primaryKeys.png" width="11px" height="12px" preserveAspectRatio="xMinYMin meet" x="13" y="-734.7"/>
<text text-anchor="start" x="37" y="-724.8" font-family="Helvetica,sans-Serif" font-size="11.00" fill="#000000">person_identifier</text>
<polygon fill="none" stroke="#000000" points="8,-698.7 8,-717.7 162,-717.7 162,-698.7 8,-698.7"/>
<text text-anchor="start" x="11" y="-704.8" font-family="Helvetica,sans-Serif" font-size="11.00" fill="#000000">...</text>
<polygon fill="#ffffff" stroke="transparent" points="8,-679.7 8,-698.7 74,-698.7 74,-679.7 8,-679.7"/>
<polygon fill="none" stroke="#000000" points="8,-679.7 8,-698.7 74,-698.7 74,-679.7 8,-679.7"/>
<text text-anchor="start" x="11" y="-685.8" font-family="Helvetica,sans-Serif" font-size="11.00" fill="#000000"> &#160;</text>
<polygon fill="#ffffff" stroke="transparent" points="74,-679.7 74,-698.7 113,-698.7 113,-679.7 74,-679.7"/>
<polygon fill="none" stroke="#000000" points="74,-679.7 74,-698.7 113,-698.7 113,-679.7 74,-679.7"/>
<text text-anchor="start" x="103.8862" y="-685.8" font-family="Helvetica,sans-Serif" font-size="11.00" fill="#000000"> &#160;</text>
<polygon fill="#ffffff" stroke="transparent" points="113,-679.7 113,-698.7 162,-698.7 162,-679.7 113,-679.7"/>
<polygon fill="none" stroke="#000000" points="113,-679.7 113,-698.7 162,-698.7 162,-679.7 113,-679.7"/>
<text text-anchor="start" x="143.4053" y="-685.8" font-family="Helvetica,sans-Serif" font-size="11.00" fill="#000000">6 &gt;</text>
</a>
</g>
</g>
<!-- audited_tap_authorisation&#45;&gt;person_summary -->
<g id="edge1" class="edge">
<title>audited_tap_authorisation:w&#45;&gt;person_summary:e</title>
<path fill="none" stroke="#000000" stroke-dasharray="5,2" d="M276.9322,-897.0338C246.1959,-898.321 228.4762,-901.7629 203,-877.7 153.0681,-830.5381 230.6836,-728.7 162,-728.7"/>
<polygon fill="#000000" stroke="#000000" points="283.5021,-896.8833 291.5825,-900.2991 287.501,-896.7917 291.5,-896.7 291.5,-896.7 291.5,-896.7 287.501,-896.7917 291.4175,-893.1009 283.5021,-896.8833 283.5021,-896.8833"/>
<ellipse fill="none" stroke="#000000" cx="280.3029" cy="-896.9566" rx="3.2" ry="3.2"/>
</g>
<!-- audited_tap_movement -->
<g id="node3" class="node">
<title>audited_tap_movement</title>
<g id="a_node3"><a xlink:href="../../tables/audited_tap_movement.html" xlink:title="audited_tap_movement" target="_top">
<polygon fill="#ffffff" stroke="transparent" points="301,-824.7 301,-866.7 496,-866.7 496,-824.7 301,-824.7"/>
<polygon fill="#f5f5f5" stroke="transparent" points="301.5,-843.7 301.5,-866.7 496.5,-866.7 496.5,-843.7 301.5,-843.7"/>
<polygon fill="none" stroke="#000000" points="301.5,-843.7 301.5,-866.7 496.5,-866.7 496.5,-843.7 301.5,-843.7"/>
<text text-anchor="start" x="306.5" y="-852.3" font-family="Helvetica,sans-Serif" font-weight="bold" font-size="11.00" fill="#000000">audited_tap_movement</text>
<text text-anchor="start" x="463.4448" y="-851.8" font-family="Helvetica,sans-Serif" font-size="11.00" fill="#000000">[view]</text>
<polygon fill="none" stroke="#000000" points="301.5,-824.7 301.5,-843.7 496.5,-843.7 496.5,-824.7 301.5,-824.7"/>
<text text-anchor="start" x="304.5" y="-830.8" font-family="Helvetica,sans-Serif" font-size="11.00" fill="#000000">...</text>
</a>
</g>
</g>
<!-- audited_tap_movement&#45;&gt;person_summary -->
<g id="edge2" class="edge">
<title>audited_tap_movement:w&#45;&gt;person_summary:e</title>
<path fill="none" stroke="#000000" stroke-dasharray="5,2" d="M286.8021,-833.9376C252.249,-834.9603 234.1339,-837.9053 203,-813.7 169.8871,-787.9561 203.9429,-728.7 162,-728.7"/>
<polygon fill="#000000" stroke="#000000" points="293.501,-833.8294 301.5582,-837.2995 297.5005,-833.7647 301.5,-833.7 301.5,-833.7 301.5,-833.7 297.5005,-833.7647 301.4418,-830.1005 293.501,-833.8294 293.501,-833.8294"/>
<ellipse fill="none" stroke="#000000" cx="290.3015" cy="-833.8811" rx="3.2" ry="3.2"/>
</g>
<!-- hmpps_domain_event_audit -->
<g id="node4" class="node">
<title>hmpps_domain_event_audit</title>
<g id="a_node4"><a xlink:href="../../tables/hmpps_domain_event_audit.html" xlink:title="hmpps_domain_event_audit" target="_top">
<polygon fill="#ffffff" stroke="transparent" points="286,-120.2 286,-181.2 511,-181.2 511,-120.2 286,-120.2"/>
<polygon fill="#f5f5f5" stroke="transparent" points="286.5,-157.7 286.5,-180.7 511.5,-180.7 511.5,-157.7 286.5,-157.7"/>
<polygon fill="none" stroke="#000000" points="286.5,-157.7 286.5,-180.7 511.5,-180.7 511.5,-157.7 286.5,-157.7"/>
<text text-anchor="start" x="291.5" y="-166.3" font-family="Helvetica,sans-Serif" font-weight="bold" font-size="11.00" fill="#000000">hmpps_domain_event_audit</text>
<text text-anchor="start" x="477.0219" y="-165.8" font-family="Helvetica,sans-Serif" font-size="11.00" fill="#000000">[table]</text>
<polygon fill="none" stroke="#000000" points="286.5,-138.7 286.5,-157.7 511.5,-157.7 511.5,-138.7 286.5,-138.7"/>
<text text-anchor="start" x="289.5" y="-144.8" font-family="Helvetica,sans-Serif" font-size="11.00" fill="#000000">...</text>
<polygon fill="#ffffff" stroke="transparent" points="286.5,-119.7 286.5,-138.7 397.5,-138.7 397.5,-119.7 286.5,-119.7"/>
<polygon fill="none" stroke="#000000" points="286.5,-119.7 286.5,-138.7 397.5,-138.7 397.5,-119.7 286.5,-119.7"/>
<text text-anchor="start" x="289.5" y="-125.8" font-family="Helvetica,sans-Serif" font-size="11.00" fill="#000000">&lt; 1</text>
<polygon fill="#ffffff" stroke="transparent" points="397.5,-119.7 397.5,-138.7 454.5,-138.7 454.5,-119.7 397.5,-119.7"/>
<polygon fill="none" stroke="#000000" points="397.5,-119.7 397.5,-138.7 454.5,-138.7 454.5,-119.7 397.5,-119.7"/>
<text text-anchor="start" x="445.3862" y="-125.8" font-family="Helvetica,sans-Serif" font-size="11.00" fill="#000000"> &#160;</text>
<polygon fill="#ffffff" stroke="transparent" points="454.5,-119.7 454.5,-138.7 511.5,-138.7 511.5,-119.7 454.5,-119.7"/>
<polygon fill="none" stroke="#000000" points="454.5,-119.7 454.5,-138.7 511.5,-138.7 511.5,-119.7 454.5,-119.7"/>
<text text-anchor="start" x="502.3862" y="-125.8" font-family="Helvetica,sans-Serif" font-size="11.00" fill="#000000"> &#160;</text>
</a>
</g>
</g>
<!-- audit_revision -->
<g id="node5" class="node">
<title>audit_revision</title>
<g id="a_node5"><a xlink:href="../../tables/audit_revision.html" xlink:title="audit_revision" target="_top">
<polygon fill="#ffffff" stroke="transparent" points="18,-285.2 18,-368.2 152,-368.2 152,-285.2 18,-285.2"/>
<polygon fill="#f5f5f5" stroke="transparent" points="18,-344.7 18,-367.7 152,-367.7 152,-344.7 18,-344.7"/>
<polygon fill="none" stroke="#000000" points="18,-344.7 18,-367.7 152,-367.7 152,-344.7 18,-344.7"/>
<text text-anchor="start" x="23" y="-353.3" font-family="Helvetica,sans-Serif" font-weight="bold" font-size="11.00" fill="#000000">audit_revision</text>
<text text-anchor="start" x="117.5219" y="-352.8" font-family="Helvetica,sans-Serif" font-size="11.00" fill="#000000">[table]</text>
<polygon fill="none" stroke="#000000" points="18,-322.7 18,-344.7 152,-344.7 152,-322.7 18,-322.7"/>
<image xlink:href="../../images/primaryKeys.png" width="11px" height="12px" preserveAspectRatio="xMinYMin meet" x="23" y="-339.7"/>
<text text-anchor="start" x="38" y="-329.8" font-family="Helvetica,sans-Serif" font-size="11.00" fill="#000000">id</text>
<polygon fill="none" stroke="#000000" points="18,-303.7 18,-322.7 152,-322.7 152,-303.7 18,-303.7"/>
<text text-anchor="start" x="21" y="-309.8" font-family="Helvetica,sans-Serif" font-size="11.00" fill="#000000">...</text>
<polygon fill="#ffffff" stroke="transparent" points="18,-284.7 18,-303.7 74,-303.7 74,-284.7 18,-284.7"/>
<polygon fill="none" stroke="#000000" points="18,-284.7 18,-303.7 74,-303.7 74,-284.7 18,-284.7"/>
<text text-anchor="start" x="21" y="-290.8" font-family="Helvetica,sans-Serif" font-size="11.00" fill="#000000"> &#160;</text>
<polygon fill="#ffffff" stroke="transparent" points="74,-284.7 74,-303.7 108,-303.7 108,-284.7 74,-284.7"/>
<polygon fill="none" stroke="#000000" points="74,-284.7 74,-303.7 108,-303.7 108,-284.7 74,-284.7"/>
<text text-anchor="start" x="98.8862" y="-290.8" font-family="Helvetica,sans-Serif" font-size="11.00" fill="#000000"> &#160;</text>
<polygon fill="#ffffff" stroke="transparent" points="108,-284.7 108,-303.7 152,-303.7 152,-284.7 108,-284.7"/>
<polygon fill="none" stroke="#000000" points="108,-284.7 108,-303.7 152,-303.7 152,-284.7 108,-284.7"/>
<text text-anchor="start" x="133.4053" y="-290.8" font-family="Helvetica,sans-Serif" font-size="11.00" fill="#000000">4 &gt;</text>
</a>
</g>
</g>
<!-- hmpps_domain_event_audit&#45;&gt;audit_revision -->
<g id="edge3" class="edge">
<title>hmpps_domain_event_audit:w&#45;&gt;audit_revision:e</title>
<path fill="none" stroke="#000000" d="M271.9968,-148.2918C240.8313,-151.0855 227.073,-163.9921 203,-191.7 159.0195,-242.3212 219.0581,-333.7 152,-333.7"/>
<polygon fill="#000000" stroke="#000000" points="278.5067,-148.0262 286.6468,-151.297 282.5033,-147.8631 286.5,-147.7 286.5,-147.7 286.5,-147.7 282.5033,-147.8631 286.3532,-144.103 278.5067,-148.0262 278.5067,-148.0262"/>
<ellipse fill="none" stroke="#000000" cx="275.3093" cy="-148.1567" rx="3.2" ry="3.2"/>
</g>
<!-- temporary_absence_authorisation -->
<g id="node6" class="node">
<title>temporary_absence_authorisation</title>
<g id="a_node6"><a xlink:href="../../tables/temporary_absence_authorisation.html" xlink:title="temporary_absence_authorisation" target="_top">
<polygon fill="#ffffff" stroke="transparent" points="264.5,-742.2 264.5,-803.2 532.5,-803.2 532.5,-742.2 264.5,-742.2"/>
<polygon fill="#f5f5f5" stroke="transparent" points="264.5,-779.7 264.5,-802.7 532.5,-802.7 532.5,-779.7 264.5,-779.7"/>
<polygon fill="none" stroke="#000000" points="264.5,-779.7 264.5,-802.7 532.5,-802.7 532.5,-779.7 264.5,-779.7"/>
<text text-anchor="start" x="269.5" y="-788.3" font-family="Helvetica,sans-Serif" font-weight="bold" font-size="11.00" fill="#000000">temporary_absence_authorisation</text>
<text text-anchor="start" x="498.0219" y="-787.8" font-family="Helvetica,sans-Serif" font-size="11.00" fill="#000000">[table]</text>
<polygon fill="none" stroke="#000000" points="264.5,-760.7 264.5,-779.7 532.5,-779.7 532.5,-760.7 264.5,-760.7"/>
<text text-anchor="start" x="267.5" y="-766.8" font-family="Helvetica,sans-Serif" font-size="11.00" fill="#000000">...</text>
<polygon fill="#ffffff" stroke="transparent" points="264.5,-741.7 264.5,-760.7 392.5,-760.7 392.5,-741.7 264.5,-741.7"/>
<polygon fill="none" stroke="#000000" points="264.5,-741.7 264.5,-760.7 392.5,-760.7 392.5,-741.7 264.5,-741.7"/>
<text text-anchor="start" x="267.5" y="-747.8" font-family="Helvetica,sans-Serif" font-size="11.00" fill="#000000">&lt; 7</text>
<polygon fill="#ffffff" stroke="transparent" points="392.5,-741.7 392.5,-760.7 457.5,-760.7 457.5,-741.7 392.5,-741.7"/>
<polygon fill="none" stroke="#000000" points="392.5,-741.7 392.5,-760.7 457.5,-760.7 457.5,-741.7 392.5,-741.7"/>
<text text-anchor="start" x="448.3862" y="-747.8" font-family="Helvetica,sans-Serif" font-size="11.00" fill="#000000"> &#160;</text>
<polygon fill="#ffffff" stroke="transparent" points="457.5,-741.7 457.5,-760.7 532.5,-760.7 532.5,-741.7 457.5,-741.7"/>
<polygon fill="none" stroke="#000000" points="457.5,-741.7 457.5,-760.7 532.5,-760.7 532.5,-741.7 457.5,-741.7"/>
<text text-anchor="start" x="513.9053" y="-747.8" font-family="Helvetica,sans-Serif" font-size="11.00" fill="#000000">1 &gt;</text>
</a>
</g>
</g>
<!-- temporary_absence_authorisation&#45;&gt;person_summary -->
<g id="edge4" class="edge">
<title>temporary_absence_authorisation:w&#45;&gt;person_summary:e</title>
<path fill="none" stroke="#000000" stroke-dasharray="5,2" d="M249.8877,-768.3359C213.9445,-761.2217 205.6984,-728.7 162,-728.7"/>
<polygon fill="#000000" stroke="#000000" points="256.5346,-768.9563 264.1654,-773.2844 260.5173,-769.3282 264.5,-769.7 264.5,-769.7 264.5,-769.7 260.5173,-769.3282 264.8346,-766.1156 256.5346,-768.9563 256.5346,-768.9563"/>
<ellipse fill="none" stroke="#000000" cx="253.3485" cy="-768.6589" rx="3.2" ry="3.2"/>
</g>
<!-- temporary_absence_authorisation_audit -->
<g id="node7" class="node">
<title>temporary_absence_authorisation_audit</title>
<g id="a_node7"><a xlink:href="../../tables/temporary_absence_authorisation_audit.html" xlink:title="temporary_absence_authorisation_audit" target="_top">
<polygon fill="#ffffff" stroke="transparent" points="244,-578.2 244,-639.2 553,-639.2 553,-578.2 244,-578.2"/>
<polygon fill="#f5f5f5" stroke="transparent" points="244.5,-615.7 244.5,-638.7 553.5,-638.7 553.5,-615.7 244.5,-615.7"/>
<polygon fill="none" stroke="#000000" points="244.5,-615.7 244.5,-638.7 553.5,-638.7 553.5,-615.7 244.5,-615.7"/>
<text text-anchor="start" x="249.5" y="-624.3" font-family="Helvetica,sans-Serif" font-weight="bold" font-size="11.00" fill="#000000">temporary_absence_authorisation_audit</text>
<text text-anchor="start" x="519.0219" y="-623.8" font-family="Helvetica,sans-Serif" font-size="11.00" fill="#000000">[table]</text>
<polygon fill="none" stroke="#000000" points="244.5,-596.7 244.5,-615.7 553.5,-615.7 553.5,-596.7 244.5,-596.7"/>
<text text-anchor="start" x="247.5" y="-602.8" font-family="Helvetica,sans-Serif" font-size="11.00" fill="#000000">...</text>
<polygon fill="#ffffff" stroke="transparent" points="244.5,-577.7 244.5,-596.7 397.5,-596.7 397.5,-577.7 244.5,-577.7"/>
<polygon fill="none" stroke="#000000" points="244.5,-577.7 244.5,-596.7 397.5,-596.7 397.5,-577.7 244.5,-577.7"/>
<text text-anchor="start" x="247.5" y="-583.8" font-family="Helvetica,sans-Serif" font-size="11.00" fill="#000000">&lt; 2</text>
<polygon fill="#ffffff" stroke="transparent" points="397.5,-577.7 397.5,-596.7 475.5,-596.7 475.5,-577.7 397.5,-577.7"/>
<polygon fill="none" stroke="#000000" points="397.5,-577.7 397.5,-596.7 475.5,-596.7 475.5,-577.7 397.5,-577.7"/>
<text text-anchor="start" x="466.3862" y="-583.8" font-family="Helvetica,sans-Serif" font-size="11.00" fill="#000000"> &#160;</text>
<polygon fill="#ffffff" stroke="transparent" points="475.5,-577.7 475.5,-596.7 553.5,-596.7 553.5,-577.7 475.5,-577.7"/>
<polygon fill="none" stroke="#000000" points="475.5,-577.7 475.5,-596.7 553.5,-596.7 553.5,-577.7 475.5,-577.7"/>
<text text-anchor="start" x="544.3862" y="-583.8" font-family="Helvetica,sans-Serif" font-size="11.00" fill="#000000"> &#160;</text>
</a>
</g>
</g>
<!-- temporary_absence_authorisation_audit&#45;&gt;person_summary -->
<g id="edge5" class="edge">
<title>temporary_absence_authorisation_audit:w&#45;&gt;person_summary:e</title>
<path fill="none" stroke="#000000" stroke-dasharray="5,2" d="M230.3895,-608.6371C217.2418,-615.353 215.1587,-632.5764 203,-649.7 180.0977,-681.9541 201.5581,-728.7 162,-728.7"/>
<polygon fill="#000000" stroke="#000000" points="236.6679,-607.3303 245.2336,-609.2245 240.5839,-606.5152 244.5,-605.7 244.5,-605.7 244.5,-605.7 240.5839,-606.5152 243.7664,-602.1755 236.6679,-607.3303 236.6679,-607.3303"/>
<ellipse fill="none" stroke="#000000" cx="233.535" cy="-607.9824" rx="3.2" ry="3.2"/>
</g>
<!-- temporary_absence_authorisation_audit&#45;&gt;audit_revision -->
<g id="edge6" class="edge">
<title>temporary_absence_authorisation_audit:w&#45;&gt;audit_revision:e</title>
<path fill="none" stroke="#000000" d="M229.9954,-603.1514C217.1421,-597.7549 212.547,-584.2973 203,-567.7 149.9273,-475.4337 258.4414,-333.7 152,-333.7"/>
<polygon fill="#000000" stroke="#000000" points="236.6207,-604.3155 243.877,-609.2457 240.5604,-605.0078 244.5,-605.7 244.5,-605.7 244.5,-605.7 240.5604,-605.0078 245.123,-602.1543 236.6207,-604.3155 236.6207,-604.3155"/>
<ellipse fill="none" stroke="#000000" cx="233.469" cy="-603.7617" rx="3.2" ry="3.2"/>
</g>
<!-- temporary_absence_movement -->
<g id="node8" class="node">
<title>temporary_absence_movement</title>
<g id="a_node8"><a xlink:href="../../tables/temporary_absence_movement.html" xlink:title="temporary_absence_movement" target="_top">
<polygon fill="#ffffff" stroke="transparent" points="274,-660.2 274,-721.2 523,-721.2 523,-660.2 274,-660.2"/>
<polygon fill="#f5f5f5" stroke="transparent" points="274.5,-697.7 274.5,-720.7 523.5,-720.7 523.5,-697.7 274.5,-697.7"/>
<polygon fill="none" stroke="#000000" points="274.5,-697.7 274.5,-720.7 523.5,-720.7 523.5,-697.7 274.5,-697.7"/>
<text text-anchor="start" x="279.5" y="-706.3" font-family="Helvetica,sans-Serif" font-weight="bold" font-size="11.00" fill="#000000">temporary_absence_movement</text>
<text text-anchor="start" x="489.0219" y="-705.8" font-family="Helvetica,sans-Serif" font-size="11.00" fill="#000000">[table]</text>
<polygon fill="none" stroke="#000000" points="274.5,-678.7 274.5,-697.7 523.5,-697.7 523.5,-678.7 274.5,-678.7"/>
<text text-anchor="start" x="277.5" y="-684.8" font-family="Helvetica,sans-Serif" font-size="11.00" fill="#000000">...</text>
<polygon fill="#ffffff" stroke="transparent" points="274.5,-659.7 274.5,-678.7 397.5,-678.7 397.5,-659.7 274.5,-659.7"/>
<polygon fill="none" stroke="#000000" points="274.5,-659.7 274.5,-678.7 397.5,-678.7 397.5,-659.7 274.5,-659.7"/>
<text text-anchor="start" x="277.5" y="-665.8" font-family="Helvetica,sans-Serif" font-size="11.00" fill="#000000">&lt; 4</text>
<polygon fill="#ffffff" stroke="transparent" points="397.5,-659.7 397.5,-678.7 460.5,-678.7 460.5,-659.7 397.5,-659.7"/>
<polygon fill="none" stroke="#000000" points="397.5,-659.7 397.5,-678.7 460.5,-678.7 460.5,-659.7 397.5,-659.7"/>
<text text-anchor="start" x="451.3862" y="-665.8" font-family="Helvetica,sans-Serif" font-size="11.00" fill="#000000"> &#160;</text>
<polygon fill="#ffffff" stroke="transparent" points="460.5,-659.7 460.5,-678.7 523.5,-678.7 523.5,-659.7 460.5,-659.7"/>
<polygon fill="none" stroke="#000000" points="460.5,-659.7 460.5,-678.7 523.5,-678.7 523.5,-659.7 460.5,-659.7"/>
<text text-anchor="start" x="514.3862" y="-665.8" font-family="Helvetica,sans-Serif" font-size="11.00" fill="#000000"> &#160;</text>
</a>
</g>
</g>
<!-- temporary_absence_movement&#45;&gt;person_summary -->
<g id="edge7" class="edge">
<title>temporary_absence_movement:w&#45;&gt;person_summary:e</title>
<path fill="none" stroke="#000000" stroke-dasharray="5,2" d="M259.9076,-688.8394C219.6067,-695.4612 209.9161,-728.7 162,-728.7"/>
<polygon fill="#000000" stroke="#000000" points="266.5243,-688.3228 274.7803,-691.2891 270.5121,-688.0114 274.5,-687.7 274.5,-687.7 274.5,-687.7 270.5121,-688.0114 274.2197,-684.1109 266.5243,-688.3228 266.5243,-688.3228"/>
<ellipse fill="none" stroke="#000000" cx="263.334" cy="-688.5719" rx="3.2" ry="3.2"/>
</g>
<!-- temporary_absence_movement_audit -->
<g id="node9" class="node">
<title>temporary_absence_movement_audit</title>
<g id="a_node9"><a xlink:href="../../tables/temporary_absence_movement_audit.html" xlink:title="temporary_absence_movement_audit" target="_top">
<polygon fill="#ffffff" stroke="transparent" points="211,-202.7 211,-556.7 586,-556.7 586,-202.7 211,-202.7"/>
<polygon fill="#f5f5f5" stroke="transparent" points="213.5,-531.7 213.5,-554.7 584.5,-554.7 584.5,-531.7 213.5,-531.7"/>
<polygon fill="none" stroke="#000000" points="213.5,-531.7 213.5,-554.7 584.5,-554.7 584.5,-531.7 213.5,-531.7"/>
<text text-anchor="start" x="218.5" y="-540.3" font-family="Helvetica,sans-Serif" font-weight="bold" font-size="11.00" fill="#000000">temporary_absence_movement_audit</text>
<text text-anchor="start" x="549.5437" y="-539.8" font-family="Helvetica,sans-Serif" font-size="11.00" fill="#000000">[table]</text>
<polygon fill="none" stroke="#000000" points="213.5,-509.7 213.5,-531.7 485.5,-531.7 485.5,-509.7 213.5,-509.7"/>
<image xlink:href="../../images/primaryKeys.png" width="11px" height="12px" preserveAspectRatio="xMinYMin meet" x="218.5" y="-526.7"/>
<text text-anchor="start" x="233.5" y="-516.8" font-family="Helvetica,sans-Serif" font-size="11.00" fill="#000000">rev_id</text>
<polygon fill="none" stroke="#000000" points="485.5,-509.7 485.5,-531.7 584.5,-531.7 584.5,-509.7 485.5,-509.7"/>
<text text-anchor="start" x="488.5" y="-517.4" font-family="Helvetica,sans-Serif" font-size="11.00" fill="#000000">int8[19]</text>
<polygon fill="none" stroke="#000000" points="213.5,-487.7 213.5,-509.7 485.5,-509.7 485.5,-487.7 213.5,-487.7"/>
<text text-anchor="start" x="233.5" y="-494.8" font-family="Helvetica,sans-Serif" font-size="11.00" fill="#000000">rev_type</text>
<polygon fill="none" stroke="#000000" points="485.5,-487.7 485.5,-509.7 584.5,-509.7 584.5,-487.7 485.5,-487.7"/>
<text text-anchor="start" x="488.5" y="-495.4" font-family="Helvetica,sans-Serif" font-size="11.00" fill="#000000">int2[5]</text>
<polygon fill="none" stroke="#000000" points="213.5,-465.7 213.5,-487.7 485.5,-487.7 485.5,-465.7 213.5,-465.7"/>
<image xlink:href="../../images/primaryKeys.png" width="11px" height="12px" preserveAspectRatio="xMinYMin meet" x="218.5" y="-482.7"/>
<text text-anchor="start" x="233.5" y="-472.8" font-family="Helvetica,sans-Serif" font-size="11.00" fill="#000000">id</text>
<polygon fill="none" stroke="#000000" points="485.5,-465.7 485.5,-487.7 584.5,-487.7 584.5,-465.7 485.5,-465.7"/>
<text text-anchor="start" x="488.5" y="-473.4" font-family="Helvetica,sans-Serif" font-size="11.00" fill="#000000">uuid[2147483647]</text>
<polygon fill="none" stroke="#000000" points="213.5,-443.7 213.5,-465.7 485.5,-465.7 485.5,-443.7 213.5,-443.7"/>
<image xlink:href="../../images/foreignKeys.png" width="11px" height="12px" preserveAspectRatio="xMinYMin meet" x="218.5" y="-460.7"/>
<text text-anchor="start" x="233.5" y="-450.8" font-family="Helvetica,sans-Serif" font-size="11.00" fill="#000000">person_identifier</text>
<polygon fill="none" stroke="#000000" points="485.5,-443.7 485.5,-465.7 584.5,-465.7 584.5,-443.7 485.5,-443.7"/>
<text text-anchor="start" x="488.5" y="-451.4" font-family="Helvetica,sans-Serif" font-size="11.00" fill="#000000">varchar[10]</text>
<polygon fill="none" stroke="#000000" points="213.5,-421.7 213.5,-443.7 485.5,-443.7 485.5,-421.7 213.5,-421.7"/>
<text text-anchor="start" x="233.5" y="-428.8" font-family="Helvetica,sans-Serif" font-size="11.00" fill="#000000">occurrence_id</text>
<polygon fill="none" stroke="#000000" points="485.5,-421.7 485.5,-443.7 584.5,-443.7 584.5,-421.7 485.5,-421.7"/>
<text text-anchor="start" x="488.5" y="-429.4" font-family="Helvetica,sans-Serif" font-size="11.00" fill="#000000">uuid[2147483647]</text>
<polygon fill="none" stroke="#000000" points="213.5,-399.7 213.5,-421.7 485.5,-421.7 485.5,-399.7 213.5,-399.7"/>
<text text-anchor="start" x="233.5" y="-406.8" font-family="Helvetica,sans-Serif" font-size="11.00" fill="#000000">occurred_at</text>
<polygon fill="none" stroke="#000000" points="485.5,-399.7 485.5,-421.7 584.5,-421.7 584.5,-399.7 485.5,-399.7"/>
<text text-anchor="start" x="488.5" y="-407.4" font-family="Helvetica,sans-Serif" font-size="11.00" fill="#000000">timestamp[29,6]</text>
<polygon fill="none" stroke="#000000" points="213.5,-377.7 213.5,-399.7 485.5,-399.7 485.5,-377.7 213.5,-377.7"/>
<text text-anchor="start" x="233.5" y="-384.8" font-family="Helvetica,sans-Serif" font-size="11.00" fill="#000000">direction</text>
<polygon fill="none" stroke="#000000" points="485.5,-377.7 485.5,-399.7 584.5,-399.7 584.5,-377.7 485.5,-377.7"/>
<text text-anchor="start" x="488.5" y="-385.4" font-family="Helvetica,sans-Serif" font-size="11.00" fill="#000000">varchar[3]</text>
<polygon fill="none" stroke="#000000" points="213.5,-355.7 213.5,-377.7 485.5,-377.7 485.5,-355.7 213.5,-355.7"/>
<text text-anchor="start" x="233.5" y="-362.8" font-family="Helvetica,sans-Serif" font-size="11.00" fill="#000000">absence_reason_id</text>
<polygon fill="none" stroke="#000000" points="485.5,-355.7 485.5,-377.7 584.5,-377.7 584.5,-355.7 485.5,-355.7"/>
<text text-anchor="start" x="488.5" y="-363.4" font-family="Helvetica,sans-Serif" font-size="11.00" fill="#000000">int8[19]</text>
<polygon fill="none" stroke="#000000" points="213.5,-333.7 213.5,-355.7 485.5,-355.7 485.5,-333.7 213.5,-333.7"/>
<text text-anchor="start" x="233.5" y="-340.8" font-family="Helvetica,sans-Serif" font-size="11.00" fill="#000000">accompanied_by_id</text>
<polygon fill="none" stroke="#000000" points="485.5,-333.7 485.5,-355.7 584.5,-355.7 584.5,-333.7 485.5,-333.7"/>
<text text-anchor="start" x="488.5" y="-341.4" font-family="Helvetica,sans-Serif" font-size="11.00" fill="#000000">int8[19]</text>
<polygon fill="none" stroke="#000000" points="213.5,-311.7 213.5,-333.7 485.5,-333.7 485.5,-311.7 213.5,-311.7"/>
<text text-anchor="start" x="233.5" y="-318.8" font-family="Helvetica,sans-Serif" font-size="11.00" fill="#000000">accompanied_by_notes</text>
<polygon fill="none" stroke="#000000" points="485.5,-311.7 485.5,-333.7 584.5,-333.7 584.5,-311.7 485.5,-311.7"/>
<text text-anchor="start" x="488.5" y="-319.4" font-family="Helvetica,sans-Serif" font-size="11.00" fill="#000000">text[2147483647]</text>
<polygon fill="none" stroke="#000000" points="213.5,-289.7 213.5,-311.7 485.5,-311.7 485.5,-289.7 213.5,-289.7"/>
<text text-anchor="start" x="233.5" y="-296.8" font-family="Helvetica,sans-Serif" font-size="11.00" fill="#000000">notes</text>
<polygon fill="none" stroke="#000000" points="485.5,-289.7 485.5,-311.7 584.5,-311.7 584.5,-289.7 485.5,-289.7"/>
<text text-anchor="start" x="488.5" y="-297.4" font-family="Helvetica,sans-Serif" font-size="11.00" fill="#000000">text[2147483647]</text>
<polygon fill="none" stroke="#000000" points="213.5,-267.7 213.5,-289.7 485.5,-289.7 485.5,-267.7 213.5,-267.7"/>
<text text-anchor="start" x="233.5" y="-274.8" font-family="Helvetica,sans-Serif" font-size="11.00" fill="#000000">recorded_by_prison_code</text>
<polygon fill="none" stroke="#000000" points="485.5,-267.7 485.5,-289.7 584.5,-289.7 584.5,-267.7 485.5,-267.7"/>
<text text-anchor="start" x="488.5" y="-275.4" font-family="Helvetica,sans-Serif" font-size="11.00" fill="#000000">varchar[6]</text>
<polygon fill="none" stroke="#000000" points="213.5,-245.7 213.5,-267.7 485.5,-267.7 485.5,-245.7 213.5,-245.7"/>
<text text-anchor="start" x="233.5" y="-252.8" font-family="Helvetica,sans-Serif" font-size="11.00" fill="#000000">legacy_id</text>
<polygon fill="none" stroke="#000000" points="485.5,-245.7 485.5,-267.7 584.5,-267.7 584.5,-245.7 485.5,-245.7"/>
<text text-anchor="start" x="488.5" y="-253.4" font-family="Helvetica,sans-Serif" font-size="11.00" fill="#000000">varchar[32]</text>
<polygon fill="none" stroke="#000000" points="213.5,-223.7 213.5,-245.7 485.5,-245.7 485.5,-223.7 213.5,-223.7"/>
<text text-anchor="start" x="233.5" y="-230.8" font-family="Helvetica,sans-Serif" font-size="11.00" fill="#000000">location</text>
<polygon fill="none" stroke="#000000" points="485.5,-223.7 485.5,-245.7 584.5,-245.7 584.5,-223.7 485.5,-223.7"/>
<text text-anchor="start" x="488.2258" y="-231.4" font-family="Helvetica,sans-Serif" font-size="11.00" fill="#000000">jsonb[2147483647]</text>
<polygon fill="#ffffff" stroke="transparent" points="213.5,-204.7 213.5,-223.7 353.5,-223.7 353.5,-204.7 213.5,-204.7"/>
<polygon fill="none" stroke="#000000" points="213.5,-204.7 213.5,-223.7 353.5,-223.7 353.5,-204.7 213.5,-204.7"/>
<text text-anchor="start" x="216.5" y="-210.8" font-family="Helvetica,sans-Serif" font-size="11.00" fill="#000000">&lt; 2</text>
<polygon fill="#ffffff" stroke="transparent" points="353.5,-204.7 353.5,-223.7 485.5,-223.7 485.5,-204.7 353.5,-204.7"/>
<polygon fill="none" stroke="#000000" points="353.5,-204.7 353.5,-223.7 485.5,-223.7 485.5,-204.7 353.5,-204.7"/>
<text text-anchor="start" x="476.3862" y="-210.8" font-family="Helvetica,sans-Serif" font-size="11.00" fill="#000000"> &#160;</text>
<polygon fill="#ffffff" stroke="transparent" points="485.5,-204.7 485.5,-223.7 584.5,-223.7 584.5,-204.7 485.5,-204.7"/>
<polygon fill="none" stroke="#000000" points="485.5,-204.7 485.5,-223.7 584.5,-223.7 584.5,-204.7 485.5,-204.7"/>
<text text-anchor="start" x="565.9053" y="-210.8" font-family="Helvetica,sans-Serif" font-size="11.00" fill="#000000">0 &gt;</text>
<polygon fill="none" stroke="#000000" stroke-width="2" points="212,-203.7 212,-555.7 585,-555.7 585,-203.7 212,-203.7"/>
</a>
</g>
</g>
<!-- temporary_absence_movement_audit&#45;&gt;person_summary -->
<g id="edge8" class="edge">
<title>temporary_absence_movement_audit:w&#45;&gt;person_summary:e</title>
<path fill="none" stroke="#000000" stroke-dasharray="5,2" d="M200.0956,-460.6777C163.2353,-500.7475 218.5098,-728.7 162,-728.7"/>
<polygon fill="#000000" stroke="#000000" points="206.1936,-457.9583 214.9662,-457.9879 209.8468,-456.3292 213.5,-454.7 213.5,-454.7 213.5,-454.7 209.8468,-456.3292 212.0338,-451.4121 206.1936,-457.9583 206.1936,-457.9583"/>
<ellipse fill="none" stroke="#000000" cx="203.271" cy="-459.2616" rx="3.2" ry="3.2"/>
</g>
<!-- temporary_absence_movement_audit&#45;&gt;audit_revision -->
<g id="edge9" class="edge">
<title>temporary_absence_movement_audit:w&#45;&gt;audit_revision:e</title>
<path fill="none" stroke="#000000" d="M198.9799,-518.4696C139.8031,-497.3714 233.8514,-333.7 152,-333.7"/>
<polygon fill="#000000" stroke="#000000" points="205.5927,-519.4854 212.9534,-524.2583 209.5464,-520.0927 213.5,-520.7 213.5,-520.7 213.5,-520.7 209.5464,-520.0927 214.0466,-517.1417 205.5927,-519.4854 205.5927,-519.4854"/>
<ellipse fill="none" stroke="#000000" cx="202.4298" cy="-518.9995" rx="3.2" ry="3.2"/>
</g>
<!-- temporary_absence_occurrence_audit -->
<g id="node10" class="node">
<title>temporary_absence_occurrence_audit</title>
<g id="a_node10"><a xlink:href="../../tables/temporary_absence_occurrence_audit.html" xlink:title="temporary_absence_occurrence_audit" target="_top">
<polygon fill="#ffffff" stroke="transparent" points="252,-38.2 252,-99.2 545,-99.2 545,-38.2 252,-38.2"/>
<polygon fill="#f5f5f5" stroke="transparent" points="252.5,-75.7 252.5,-98.7 545.5,-98.7 545.5,-75.7 252.5,-75.7"/>
<polygon fill="none" stroke="#000000" points="252.5,-75.7 252.5,-98.7 545.5,-98.7 545.5,-75.7 252.5,-75.7"/>
<text text-anchor="start" x="257.5" y="-84.3" font-family="Helvetica,sans-Serif" font-weight="bold" font-size="11.00" fill="#000000">temporary_absence_occurrence_audit</text>
<text text-anchor="start" x="511.0219" y="-83.8" font-family="Helvetica,sans-Serif" font-size="11.00" fill="#000000">[table]</text>
<polygon fill="none" stroke="#000000" points="252.5,-56.7 252.5,-75.7 545.5,-75.7 545.5,-56.7 252.5,-56.7"/>
<text text-anchor="start" x="255.5" y="-62.8" font-family="Helvetica,sans-Serif" font-size="11.00" fill="#000000">...</text>
<polygon fill="#ffffff" stroke="transparent" points="252.5,-37.7 252.5,-56.7 397.5,-56.7 397.5,-37.7 252.5,-37.7"/>
<polygon fill="none" stroke="#000000" points="252.5,-37.7 252.5,-56.7 397.5,-56.7 397.5,-37.7 252.5,-37.7"/>
<text text-anchor="start" x="255.5" y="-43.8" font-family="Helvetica,sans-Serif" font-size="11.00" fill="#000000">&lt; 1</text>
<polygon fill="#ffffff" stroke="transparent" points="397.5,-37.7 397.5,-56.7 471.5,-56.7 471.5,-37.7 397.5,-37.7"/>
<polygon fill="none" stroke="#000000" points="397.5,-37.7 397.5,-56.7 471.5,-56.7 471.5,-37.7 397.5,-37.7"/>
<text text-anchor="start" x="462.3862" y="-43.8" font-family="Helvetica,sans-Serif" font-size="11.00" fill="#000000"> &#160;</text>
<polygon fill="#ffffff" stroke="transparent" points="471.5,-37.7 471.5,-56.7 545.5,-56.7 545.5,-37.7 471.5,-37.7"/>
<polygon fill="none" stroke="#000000" points="471.5,-37.7 471.5,-56.7 545.5,-56.7 545.5,-37.7 471.5,-37.7"/>
<text text-anchor="start" x="536.3862" y="-43.8" font-family="Helvetica,sans-Serif" font-size="11.00" fill="#000000"> &#160;</text>
</a>
</g>
</g>
<!-- temporary_absence_occurrence_audit&#45;&gt;audit_revision -->
<g id="edge10" class="edge">
<title>temporary_absence_occurrence_audit:w&#45;&gt;audit_revision:e</title>
<path fill="none" stroke="#000000" d="M237.7846,-67.7465C220.7018,-73.2449 215.0559,-89.3117 203,-109.7 151.0307,-197.5879 254.1033,-333.7 152,-333.7"/>
<polygon fill="#000000" stroke="#000000" points="244.5763,-66.802 252.9959,-69.2657 248.5381,-66.251 252.5,-65.7 252.5,-65.7 252.5,-65.7 248.5381,-66.251 252.0041,-62.1343 244.5763,-66.802 244.5763,-66.802"/>
<ellipse fill="none" stroke="#000000" cx="241.4068" cy="-67.2428" rx="3.2" ry="3.2"/>
</g>
</g>
</svg>
