<?xml version="1.0" encoding="UTF-8" standalone="no"?>
<!DOCTYPE svg PUBLIC "-//W3C//DTD SVG 1.1//EN"
 "http://www.w3.org/Graphics/SVG/1.1/DTD/svg11.dtd">
<!-- Generated by graphviz version 2.40.1 (20161225.0304)
 -->
<!-- Title: twoDegreesRelationshipsDiagram Pages: 1 -->
<svg width="585pt" height="871pt"
 viewBox="0.00 0.00 585.00 870.70" xmlns="http://www.w3.org/2000/svg" xmlns:xlink="http://www.w3.org/1999/xlink">
<g id="graph0" class="graph" transform="scale(1 1) rotate(0) translate(4 866.7)">
<title>twoDegreesRelationshipsDiagram</title>
<polygon fill="#ffffff" stroke="transparent" points="-4,4 -4,-866.7 581,-866.7 581,4 -4,4"/>
<text text-anchor="middle" x="72.4936" y="-7.3" font-family="Helvetica,sans-Serif" font-size="11.00" fill="#000000">Generated by SchemaSpy</text>
<!-- hmpps_domain_event_audit -->
<g id="node1" class="node">
<title>hmpps_domain_event_audit</title>
<g id="a_node1"><a xlink:href="../../tables/hmpps_domain_event_audit.html" xlink:title="hmpps_domain_event_audit" target="_top">
<polygon fill="#ffffff" stroke="transparent" points="267.5,-797.7 267.5,-858.7 492.5,-858.7 492.5,-797.7 267.5,-797.7"/>
<polygon fill="#f5f5f5" stroke="transparent" points="268,-835.2 268,-858.2 493,-858.2 493,-835.2 268,-835.2"/>
<polygon fill="none" stroke="#000000" points="268,-835.2 268,-858.2 493,-858.2 493,-835.2 268,-835.2"/>
<text text-anchor="start" x="273" y="-843.8" font-family="Helvetica,sans-Serif" font-weight="bold" font-size="11.00" fill="#000000">hmpps_domain_event_audit</text>
<text text-anchor="start" x="458.5219" y="-843.3" font-family="Helvetica,sans-Serif" font-size="11.00" fill="#000000">[table]</text>
<polygon fill="none" stroke="#000000" points="268,-816.2 268,-835.2 493,-835.2 493,-816.2 268,-816.2"/>
<text text-anchor="start" x="271" y="-822.3" font-family="Helvetica,sans-Serif" font-size="11.00" fill="#000000">...</text>
<polygon fill="#ffffff" stroke="transparent" points="268,-797.2 268,-816.2 379,-816.2 379,-797.2 268,-797.2"/>
<polygon fill="none" stroke="#000000" points="268,-797.2 268,-816.2 379,-816.2 379,-797.2 268,-797.2"/>
<text text-anchor="start" x="271" y="-803.3" font-family="Helvetica,sans-Serif" font-size="11.00" fill="#000000">&lt; 1</text>
<polygon fill="#ffffff" stroke="transparent" points="379,-797.2 379,-816.2 436,-816.2 436,-797.2 379,-797.2"/>
<polygon fill="none" stroke="#000000" points="379,-797.2 379,-816.2 436,-816.2 436,-797.2 379,-797.2"/>
<text text-anchor="start" x="426.8862" y="-803.3" font-family="Helvetica,sans-Serif" font-size="11.00" fill="#000000"> &#160;</text>
<polygon fill="#ffffff" stroke="transparent" points="436,-797.2 436,-816.2 493,-816.2 493,-797.2 436,-797.2"/>
<polygon fill="none" stroke="#000000" points="436,-797.2 436,-816.2 493,-816.2 493,-797.2 436,-797.2"/>
<text text-anchor="start" x="483.8862" y="-803.3" font-family="Helvetica,sans-Serif" font-size="11.00" fill="#000000"> &#160;</text>
</a>
</g>
</g>
<!-- audit_revision -->
<g id="node2" class="node">
<title>audit_revision</title>
<g id="a_node2"><a xlink:href="../../tables/audit_revision.html" xlink:title="audit_revision" target="_top">
<polygon fill="#ffffff" stroke="transparent" points="8,-653.7 8,-736.7 142,-736.7 142,-653.7 8,-653.7"/>
<polygon fill="#f5f5f5" stroke="transparent" points="8,-713.2 8,-736.2 142,-736.2 142,-713.2 8,-713.2"/>
<polygon fill="none" stroke="#000000" points="8,-713.2 8,-736.2 142,-736.2 142,-713.2 8,-713.2"/>
<text text-anchor="start" x="13" y="-721.8" font-family="Helvetica,sans-Serif" font-weight="bold" font-size="11.00" fill="#000000">audit_revision</text>
<text text-anchor="start" x="107.5219" y="-721.3" font-family="Helvetica,sans-Serif" font-size="11.00" fill="#000000">[table]</text>
<polygon fill="none" stroke="#000000" points="8,-691.2 8,-713.2 142,-713.2 142,-691.2 8,-691.2"/>
<image xlink:href="../../images/primaryKeys.png" width="11px" height="12px" preserveAspectRatio="xMinYMin meet" x="13" y="-708.2"/>
<text text-anchor="start" x="28" y="-698.3" font-family="Helvetica,sans-Serif" font-size="11.00" fill="#000000">id</text>
<polygon fill="none" stroke="#000000" points="8,-672.2 8,-691.2 142,-691.2 142,-672.2 8,-672.2"/>
<text text-anchor="start" x="11" y="-678.3" font-family="Helvetica,sans-Serif" font-size="11.00" fill="#000000">...</text>
<polygon fill="#ffffff" stroke="transparent" points="8,-653.2 8,-672.2 64,-672.2 64,-653.2 8,-653.2"/>
<polygon fill="none" stroke="#000000" points="8,-653.2 8,-672.2 64,-672.2 64,-653.2 8,-653.2"/>
<text text-anchor="start" x="11" y="-659.3" font-family="Helvetica,sans-Serif" font-size="11.00" fill="#000000"> &#160;</text>
<polygon fill="#ffffff" stroke="transparent" points="64,-653.2 64,-672.2 98,-672.2 98,-653.2 64,-653.2"/>
<polygon fill="none" stroke="#000000" points="64,-653.2 64,-672.2 98,-672.2 98,-653.2 64,-653.2"/>
<text text-anchor="start" x="88.8862" y="-659.3" font-family="Helvetica,sans-Serif" font-size="11.00" fill="#000000"> &#160;</text>
<polygon fill="#ffffff" stroke="transparent" points="98,-653.2 98,-672.2 142,-672.2 142,-653.2 98,-653.2"/>
<polygon fill="none" stroke="#000000" points="98,-653.2 98,-672.2 142,-672.2 142,-653.2 98,-653.2"/>
<text text-anchor="start" x="123.4053" y="-659.3" font-family="Helvetica,sans-Serif" font-size="11.00" fill="#000000">4 &gt;</text>
</a>
</g>
</g>
<!-- hmpps_domain_event_audit&#45;&gt;audit_revision -->
<g id="edge1" class="edge">
<title>hmpps_domain_event_audit:w&#45;&gt;audit_revision:e</title>
<path fill="none" stroke="#000000" d="M253.2728,-824.7205C222.7643,-822.5099 208.8562,-812.3164 183,-787.2 152.9146,-757.9754 183.9429,-702.2 142,-702.2"/>
<polygon fill="#000000" stroke="#000000" points="260.0042,-824.9396 267.8828,-828.7981 264.0021,-825.0698 268,-825.2 268,-825.2 268,-825.2 264.0021,-825.0698 268.1172,-821.6019 260.0042,-824.9396 260.0042,-824.9396"/>
<ellipse fill="none" stroke="#000000" cx="256.8059" cy="-824.8355" rx="3.2" ry="3.2"/>
</g>
<!-- temporary_absence_authorisation_audit -->
<g id="node3" class="node">
<title>temporary_absence_authorisation_audit</title>
<g id="a_node3"><a xlink:href="../../tables/temporary_absence_authorisation_audit.html" xlink:title="temporary_absence_authorisation_audit" target="_top">
<polygon fill="#ffffff" stroke="transparent" points="225.5,-715.7 225.5,-776.7 534.5,-776.7 534.5,-715.7 225.5,-715.7"/>
<polygon fill="#f5f5f5" stroke="transparent" points="226,-753.2 226,-776.2 535,-776.2 535,-753.2 226,-753.2"/>
<polygon fill="none" stroke="#000000" points="226,-753.2 226,-776.2 535,-776.2 535,-753.2 226,-753.2"/>
<text text-anchor="start" x="231" y="-761.8" font-family="Helvetica,sans-Serif" font-weight="bold" font-size="11.00" fill="#000000">temporary_absence_authorisation_audit</text>
<text text-anchor="start" x="500.5219" y="-761.3" font-family="Helvetica,sans-Serif" font-size="11.00" fill="#000000">[table]</text>
<polygon fill="none" stroke="#000000" points="226,-734.2 226,-753.2 535,-753.2 535,-734.2 226,-734.2"/>
<text text-anchor="start" x="229" y="-740.3" font-family="Helvetica,sans-Serif" font-size="11.00" fill="#000000">...</text>
<polygon fill="#ffffff" stroke="transparent" points="226,-715.2 226,-734.2 379,-734.2 379,-715.2 226,-715.2"/>
<polygon fill="none" stroke="#000000" points="226,-715.2 226,-734.2 379,-734.2 379,-715.2 226,-715.2"/>
<text text-anchor="start" x="229" y="-721.3" font-family="Helvetica,sans-Serif" font-size="11.00" fill="#000000">&lt; 1</text>
<polygon fill="#ffffff" stroke="transparent" points="379,-715.2 379,-734.2 457,-734.2 457,-715.2 379,-715.2"/>
<polygon fill="none" stroke="#000000" points="379,-715.2 379,-734.2 457,-734.2 457,-715.2 379,-715.2"/>
<text text-anchor="start" x="447.8862" y="-721.3" font-family="Helvetica,sans-Serif" font-size="11.00" fill="#000000"> &#160;</text>
<polygon fill="#ffffff" stroke="transparent" points="457,-715.2 457,-734.2 535,-734.2 535,-715.2 457,-715.2"/>
<polygon fill="none" stroke="#000000" points="457,-715.2 457,-734.2 535,-734.2 535,-715.2 457,-715.2"/>
<text text-anchor="start" x="525.8862" y="-721.3" font-family="Helvetica,sans-Serif" font-size="11.00" fill="#000000"> &#160;</text>
</a>
</g>
</g>
<!-- temporary_absence_authorisation_audit&#45;&gt;audit_revision -->
<g id="edge2" class="edge">
<title>temporary_absence_authorisation_audit:w&#45;&gt;audit_revision:e</title>
<path fill="none" stroke="#000000" d="M211.4073,-741.2225C183.4975,-733.0326 178.0256,-702.2 142,-702.2"/>
<polygon fill="#000000" stroke="#000000" points="218.0725,-742.1257 225.5165,-746.7674 222.0362,-742.6628 226,-743.2 226,-743.2 226,-743.2 222.0362,-742.6628 226.4835,-739.6326 218.0725,-742.1257 218.0725,-742.1257"/>
<ellipse fill="none" stroke="#000000" cx="214.9014" cy="-741.6959" rx="3.2" ry="3.2"/>
</g>
<!-- temporary_absence_movement_audit -->
<g id="node4" class="node">
<title>temporary_absence_movement_audit</title>
<g id="a_node4"><a xlink:href="../../tables/temporary_absence_movement_audit.html" xlink:title="temporary_absence_movement_audit" target="_top">
<polygon fill="#ffffff" stroke="transparent" points="235,-633.7 235,-694.7 525,-694.7 525,-633.7 235,-633.7"/>
<polygon fill="#f5f5f5" stroke="transparent" points="235,-671.2 235,-694.2 525,-694.2 525,-671.2 235,-671.2"/>
<polygon fill="none" stroke="#000000" points="235,-671.2 235,-694.2 525,-694.2 525,-671.2 235,-671.2"/>
<text text-anchor="start" x="240" y="-679.8" font-family="Helvetica,sans-Serif" font-weight="bold" font-size="11.00" fill="#000000">temporary_absence_movement_audit</text>
<text text-anchor="start" x="490.5219" y="-679.3" font-family="Helvetica,sans-Serif" font-size="11.00" fill="#000000">[table]</text>
<polygon fill="none" stroke="#000000" points="235,-652.2 235,-671.2 525,-671.2 525,-652.2 235,-652.2"/>
<text text-anchor="start" x="238" y="-658.3" font-family="Helvetica,sans-Serif" font-size="11.00" fill="#000000">...</text>
<polygon fill="#ffffff" stroke="transparent" points="235,-633.2 235,-652.2 378,-652.2 378,-633.2 235,-633.2"/>
<polygon fill="none" stroke="#000000" points="235,-633.2 235,-652.2 378,-652.2 378,-633.2 235,-633.2"/>
<text text-anchor="start" x="238" y="-639.3" font-family="Helvetica,sans-Serif" font-size="11.00" fill="#000000">&lt; 1</text>
<polygon fill="#ffffff" stroke="transparent" points="378,-633.2 378,-652.2 451,-652.2 451,-633.2 378,-633.2"/>
<polygon fill="none" stroke="#000000" points="378,-633.2 378,-652.2 451,-652.2 451,-633.2 378,-633.2"/>
<text text-anchor="start" x="441.8862" y="-639.3" font-family="Helvetica,sans-Serif" font-size="11.00" fill="#000000"> &#160;</text>
<polygon fill="#ffffff" stroke="transparent" points="451,-633.2 451,-652.2 525,-652.2 525,-633.2 451,-633.2"/>
<polygon fill="none" stroke="#000000" points="451,-633.2 451,-652.2 525,-652.2 525,-633.2 451,-633.2"/>
<text text-anchor="start" x="515.8862" y="-639.3" font-family="Helvetica,sans-Serif" font-size="11.00" fill="#000000"> &#160;</text>
</a>
</g>
</g>
<!-- temporary_absence_movement_audit&#45;&gt;audit_revision -->
<g id="edge3" class="edge">
<title>temporary_absence_movement_audit:w&#45;&gt;audit_revision:e</title>
<path fill="none" stroke="#000000" d="M220.3092,-662.858C188.5614,-670.5285 181.7018,-702.2 142,-702.2"/>
<polygon fill="#000000" stroke="#000000" points="227.0505,-662.0972 235.4038,-664.7773 231.0252,-661.6486 235,-661.2 235,-661.2 235,-661.2 231.0252,-661.6486 234.5962,-657.6227 227.0505,-662.0972 227.0505,-662.0972"/>
<ellipse fill="none" stroke="#000000" cx="223.8707" cy="-662.4561" rx="3.2" ry="3.2"/>
</g>
<!-- temporary_absence_occurrence_audit -->
<g id="node5" class="node">
<title>temporary_absence_occurrence_audit</title>
<g id="a_node5"><a xlink:href="../../tables/temporary_absence_occurrence_audit.html" xlink:title="temporary_absence_occurrence_audit" target="_top">
<polygon fill="#ffffff" stroke="transparent" points="191,-38.2 191,-612.2 569,-612.2 569,-38.2 191,-38.2"/>
<polygon fill="#f5f5f5" stroke="transparent" points="193,-587.2 193,-610.2 567,-610.2 567,-587.2 193,-587.2"/>
<polygon fill="none" stroke="#000000" points="193,-587.2 193,-610.2 567,-610.2 567,-587.2 193,-587.2"/>
<text text-anchor="start" x="198" y="-595.8" font-family="Helvetica,sans-Serif" font-weight="bold" font-size="11.00" fill="#000000">temporary_absence_occurrence_audit</text>
<text text-anchor="start" x="532.0437" y="-595.3" font-family="Helvetica,sans-Serif" font-size="11.00" fill="#000000">[table]</text>
<polygon fill="none" stroke="#000000" points="193,-565.2 193,-587.2 468,-587.2 468,-565.2 193,-565.2"/>
<image xlink:href="../../images/primaryKeys.png" width="11px" height="12px" preserveAspectRatio="xMinYMin meet" x="198" y="-582.2"/>
<text text-anchor="start" x="213" y="-572.3" font-family="Helvetica,sans-Serif" font-size="11.00" fill="#000000">rev_id</text>
<polygon fill="none" stroke="#000000" points="468,-565.2 468,-587.2 567,-587.2 567,-565.2 468,-565.2"/>
<text text-anchor="start" x="471" y="-572.9" font-family="Helvetica,sans-Serif" font-size="11.00" fill="#000000">int8[19]</text>
<polygon fill="none" stroke="#000000" points="193,-543.2 193,-565.2 468,-565.2 468,-543.2 193,-543.2"/>
<text text-anchor="start" x="213" y="-550.3" font-family="Helvetica,sans-Serif" font-size="11.00" fill="#000000">rev_type</text>
<polygon fill="none" stroke="#000000" points="468,-543.2 468,-565.2 567,-565.2 567,-543.2 468,-543.2"/>
<text text-anchor="start" x="471" y="-550.9" font-family="Helvetica,sans-Serif" font-size="11.00" fill="#000000">int2[5]</text>
<polygon fill="none" stroke="#000000" points="193,-521.2 193,-543.2 468,-543.2 468,-521.2 193,-521.2"/>
<image xlink:href="../../images/primaryKeys.png" width="11px" height="12px" preserveAspectRatio="xMinYMin meet" x="198" y="-538.2"/>
<text text-anchor="start" x="213" y="-528.3" font-family="Helvetica,sans-Serif" font-size="11.00" fill="#000000">id</text>
<polygon fill="none" stroke="#000000" points="468,-521.2 468,-543.2 567,-543.2 567,-521.2 468,-521.2"/>
<text text-anchor="start" x="471" y="-528.9" font-family="Helvetica,sans-Serif" font-size="11.00" fill="#000000">uuid[2147483647]</text>
<polygon fill="none" stroke="#000000" points="193,-499.2 193,-521.2 468,-521.2 468,-499.2 193,-499.2"/>
<text text-anchor="start" x="213" y="-506.3" font-family="Helvetica,sans-Serif" font-size="11.00" fill="#000000">person_identifier</text>
<polygon fill="none" stroke="#000000" points="468,-499.2 468,-521.2 567,-521.2 567,-499.2 468,-499.2"/>
<text text-anchor="start" x="471" y="-506.9" font-family="Helvetica,sans-Serif" font-size="11.00" fill="#000000">varchar[10]</text>
<polygon fill="none" stroke="#000000" points="193,-477.2 193,-499.2 468,-499.2 468,-477.2 193,-477.2"/>
<text text-anchor="start" x="213" y="-484.3" font-family="Helvetica,sans-Serif" font-size="11.00" fill="#000000">authorisation_id</text>
<polygon fill="none" stroke="#000000" points="468,-477.2 468,-499.2 567,-499.2 567,-477.2 468,-477.2"/>
<text text-anchor="start" x="471" y="-484.9" font-family="Helvetica,sans-Serif" font-size="11.00" fill="#000000">uuid[2147483647]</text>
<polygon fill="none" stroke="#000000" points="193,-455.2 193,-477.2 468,-477.2 468,-455.2 193,-455.2"/>
<text text-anchor="start" x="213" y="-462.3" font-family="Helvetica,sans-Serif" font-size="11.00" fill="#000000">release_at</text>
<polygon fill="none" stroke="#000000" points="468,-455.2 468,-477.2 567,-477.2 567,-455.2 468,-455.2"/>
<text text-anchor="start" x="471" y="-462.9" font-family="Helvetica,sans-Serif" font-size="11.00" fill="#000000">timestamp[29,6]</text>
<polygon fill="none" stroke="#000000" points="193,-433.2 193,-455.2 468,-455.2 468,-433.2 193,-433.2"/>
<text text-anchor="start" x="213" y="-440.3" font-family="Helvetica,sans-Serif" font-size="11.00" fill="#000000">return_by</text>
<polygon fill="none" stroke="#000000" points="468,-433.2 468,-455.2 567,-455.2 567,-433.2 468,-433.2"/>
<text text-anchor="start" x="471" y="-440.9" font-family="Helvetica,sans-Serif" font-size="11.00" fill="#000000">timestamp[29,6]</text>
<polygon fill="none" stroke="#000000" points="193,-411.2 193,-433.2 468,-433.2 468,-411.2 193,-411.2"/>
<text text-anchor="start" x="213" y="-418.3" font-family="Helvetica,sans-Serif" font-size="11.00" fill="#000000">accompanied_by_id</text>
<polygon fill="none" stroke="#000000" points="468,-411.2 468,-433.2 567,-433.2 567,-411.2 468,-411.2"/>
<text text-anchor="start" x="471" y="-418.9" font-family="Helvetica,sans-Serif" font-size="11.00" fill="#000000">int8[19]</text>
<polygon fill="none" stroke="#000000" points="193,-389.2 193,-411.2 468,-411.2 468,-389.2 193,-389.2"/>
<text text-anchor="start" x="213" y="-396.3" font-family="Helvetica,sans-Serif" font-size="11.00" fill="#000000">transport_id</text>
<polygon fill="none" stroke="#000000" points="468,-389.2 468,-411.2 567,-411.2 567,-389.2 468,-389.2"/>
<text text-anchor="start" x="471" y="-396.9" font-family="Helvetica,sans-Serif" font-size="11.00" fill="#000000">int8[19]</text>
<polygon fill="none" stroke="#000000" points="193,-367.2 193,-389.2 468,-389.2 468,-367.2 193,-367.2"/>
<text text-anchor="start" x="213" y="-374.3" font-family="Helvetica,sans-Serif" font-size="11.00" fill="#000000">contact_information</text>
<polygon fill="none" stroke="#000000" points="468,-367.2 468,-389.2 567,-389.2 567,-367.2 468,-367.2"/>
<text text-anchor="start" x="471" y="-374.9" font-family="Helvetica,sans-Serif" font-size="11.00" fill="#000000">text[2147483647]</text>
<polygon fill="none" stroke="#000000" points="193,-345.2 193,-367.2 468,-367.2 468,-345.2 193,-345.2"/>
<text text-anchor="start" x="213" y="-352.3" font-family="Helvetica,sans-Serif" font-size="11.00" fill="#000000">notes</text>
<polygon fill="none" stroke="#000000" points="468,-345.2 468,-367.2 567,-367.2 567,-345.2 468,-345.2"/>
<text text-anchor="start" x="471" y="-352.9" font-family="Helvetica,sans-Serif" font-size="11.00" fill="#000000">text[2147483647]</text>
<polygon fill="none" stroke="#000000" points="193,-323.2 193,-345.2 468,-345.2 468,-323.2 193,-323.2"/>
<text text-anchor="start" x="213" y="-330.3" font-family="Helvetica,sans-Serif" font-size="11.00" fill="#000000">added_at</text>
<polygon fill="none" stroke="#000000" points="468,-323.2 468,-345.2 567,-345.2 567,-323.2 468,-323.2"/>
<text text-anchor="start" x="471" y="-330.9" font-family="Helvetica,sans-Serif" font-size="11.00" fill="#000000">timestamp[29,6]</text>
<polygon fill="none" stroke="#000000" points="193,-301.2 193,-323.2 468,-323.2 468,-301.2 193,-301.2"/>
<text text-anchor="start" x="213" y="-308.3" font-family="Helvetica,sans-Serif" font-size="11.00" fill="#000000">added_by</text>
<polygon fill="none" stroke="#000000" points="468,-301.2 468,-323.2 567,-323.2 567,-301.2 468,-301.2"/>
<text text-anchor="start" x="471" y="-308.9" font-family="Helvetica,sans-Serif" font-size="11.00" fill="#000000">varchar[64]</text>
<polygon fill="none" stroke="#000000" points="193,-279.2 193,-301.2 468,-301.2 468,-279.2 193,-279.2"/>
<text text-anchor="start" x="213" y="-286.3" font-family="Helvetica,sans-Serif" font-size="11.00" fill="#000000">cancelled_at</text>
<polygon fill="none" stroke="#000000" points="468,-279.2 468,-301.2 567,-301.2 567,-279.2 468,-279.2"/>
<text text-anchor="start" x="471" y="-286.9" font-family="Helvetica,sans-Serif" font-size="11.00" fill="#000000">timestamp[29,6]</text>
<polygon fill="none" stroke="#000000" points="193,-257.2 193,-279.2 468,-279.2 468,-257.2 193,-257.2"/>
<text text-anchor="start" x="213" y="-264.3" font-family="Helvetica,sans-Serif" font-size="11.00" fill="#000000">cancelled_by</text>
<polygon fill="none" stroke="#000000" points="468,-257.2 468,-279.2 567,-279.2 567,-257.2 468,-257.2"/>
<text text-anchor="start" x="471" y="-264.9" font-family="Helvetica,sans-Serif" font-size="11.00" fill="#000000">varchar[64]</text>
<polygon fill="none" stroke="#000000" points="193,-235.2 193,-257.2 468,-257.2 468,-235.2 193,-235.2"/>
<text text-anchor="start" x="213" y="-242.3" font-family="Helvetica,sans-Serif" font-size="11.00" fill="#000000">legacy_id</text>
<polygon fill="none" stroke="#000000" points="468,-235.2 468,-257.2 567,-257.2 567,-235.2 468,-235.2"/>
<text text-anchor="start" x="471" y="-242.9" font-family="Helvetica,sans-Serif" font-size="11.00" fill="#000000">int8[19]</text>
<polygon fill="none" stroke="#000000" points="193,-213.2 193,-235.2 468,-235.2 468,-213.2 193,-213.2"/>
<text text-anchor="start" x="213" y="-220.3" font-family="Helvetica,sans-Serif" font-size="11.00" fill="#000000">location</text>
<polygon fill="none" stroke="#000000" points="468,-213.2 468,-235.2 567,-235.2 567,-213.2 468,-213.2"/>
<text text-anchor="start" x="470.7258" y="-220.9" font-family="Helvetica,sans-Serif" font-size="11.00" fill="#000000">jsonb[2147483647]</text>
<polygon fill="none" stroke="#000000" points="193,-191.2 193,-213.2 468,-213.2 468,-191.2 193,-191.2"/>
<text text-anchor="start" x="213" y="-198.3" font-family="Helvetica,sans-Serif" font-size="11.00" fill="#000000">schedule_reference</text>
<polygon fill="none" stroke="#000000" points="468,-191.2 468,-213.2 567,-213.2 567,-191.2 468,-191.2"/>
<text text-anchor="start" x="470.7258" y="-198.9" font-family="Helvetica,sans-Serif" font-size="11.00" fill="#000000">jsonb[2147483647]</text>
<polygon fill="none" stroke="#000000" points="193,-169.2 193,-191.2 468,-191.2 468,-169.2 193,-169.2"/>
<text text-anchor="start" x="213" y="-176.3" font-family="Helvetica,sans-Serif" font-size="11.00" fill="#000000">absence_type_id</text>
<polygon fill="none" stroke="#000000" points="468,-169.2 468,-191.2 567,-191.2 567,-169.2 468,-169.2"/>
<text text-anchor="start" x="471" y="-176.9" font-family="Helvetica,sans-Serif" font-size="11.00" fill="#000000">int8[19]</text>
<polygon fill="none" stroke="#000000" points="193,-147.2 193,-169.2 468,-169.2 468,-147.2 193,-147.2"/>
<text text-anchor="start" x="213" y="-154.3" font-family="Helvetica,sans-Serif" font-size="11.00" fill="#000000">absence_sub_type_id</text>
<polygon fill="none" stroke="#000000" points="468,-147.2 468,-169.2 567,-169.2 567,-147.2 468,-147.2"/>
<text text-anchor="start" x="471" y="-154.9" font-family="Helvetica,sans-Serif" font-size="11.00" fill="#000000">int8[19]</text>
<polygon fill="none" stroke="#000000" points="193,-125.2 193,-147.2 468,-147.2 468,-125.2 193,-125.2"/>
<text text-anchor="start" x="213" y="-132.3" font-family="Helvetica,sans-Serif" font-size="11.00" fill="#000000">absence_reason_category_id</text>
<polygon fill="none" stroke="#000000" points="468,-125.2 468,-147.2 567,-147.2 567,-125.2 468,-125.2"/>
<text text-anchor="start" x="471" y="-132.9" font-family="Helvetica,sans-Serif" font-size="11.00" fill="#000000">int8[19]</text>
<polygon fill="none" stroke="#000000" points="193,-103.2 193,-125.2 468,-125.2 468,-103.2 193,-103.2"/>
<text text-anchor="start" x="213" y="-110.3" font-family="Helvetica,sans-Serif" font-size="11.00" fill="#000000">absence_reason_id</text>
<polygon fill="none" stroke="#000000" points="468,-103.2 468,-125.2 567,-125.2 567,-103.2 468,-103.2"/>
<text text-anchor="start" x="471" y="-110.9" font-family="Helvetica,sans-Serif" font-size="11.00" fill="#000000">int8[19]</text>
<polygon fill="none" stroke="#000000" points="193,-81.2 193,-103.2 468,-103.2 468,-81.2 193,-81.2"/>
<text text-anchor="start" x="213" y="-88.3" font-family="Helvetica,sans-Serif" font-size="11.00" fill="#000000">reason_path</text>
<polygon fill="none" stroke="#000000" points="468,-81.2 468,-103.2 567,-103.2 567,-81.2 468,-81.2"/>
<text text-anchor="start" x="470.7258" y="-88.9" font-family="Helvetica,sans-Serif" font-size="11.00" fill="#000000">jsonb[2147483647]</text>
<polygon fill="none" stroke="#000000" points="193,-59.2 193,-81.2 468,-81.2 468,-59.2 193,-59.2"/>
<text text-anchor="start" x="213" y="-66.3" font-family="Helvetica,sans-Serif" font-size="11.00" fill="#000000">status_id</text>
<polygon fill="none" stroke="#000000" points="468,-59.2 468,-81.2 567,-81.2 567,-59.2 468,-59.2"/>
<text text-anchor="start" x="471" y="-66.9" font-family="Helvetica,sans-Serif" font-size="11.00" fill="#000000">int8[19]</text>
<polygon fill="#ffffff" stroke="transparent" points="193,-40.2 193,-59.2 335,-59.2 335,-40.2 193,-40.2"/>
<polygon fill="none" stroke="#000000" points="193,-40.2 193,-59.2 335,-59.2 335,-40.2 193,-40.2"/>
<text text-anchor="start" x="196" y="-46.3" font-family="Helvetica,sans-Serif" font-size="11.00" fill="#000000">&lt; 1</text>
<polygon fill="#ffffff" stroke="transparent" points="335,-40.2 335,-59.2 468,-59.2 468,-40.2 335,-40.2"/>
<polygon fill="none" stroke="#000000" points="335,-40.2 335,-59.2 468,-59.2 468,-40.2 335,-40.2"/>
<text text-anchor="start" x="458.8862" y="-46.3" font-family="Helvetica,sans-Serif" font-size="11.00" fill="#000000"> &#160;</text>
<polygon fill="#ffffff" stroke="transparent" points="468,-40.2 468,-59.2 567,-59.2 567,-40.2 468,-40.2"/>
<polygon fill="none" stroke="#000000" points="468,-40.2 468,-59.2 567,-59.2 567,-40.2 468,-40.2"/>
<text text-anchor="start" x="548.4053" y="-46.3" font-family="Helvetica,sans-Serif" font-size="11.00" fill="#000000">0 &gt;</text>
<polygon fill="none" stroke="#000000" stroke-width="2" points="192,-39.2 192,-611.2 568,-611.2 568,-39.2 192,-39.2"/>
</a>
</g>
</g>
<!-- temporary_absence_occurrence_audit&#45;&gt;audit_revision -->
<g id="edge4" class="edge">
<title>temporary_absence_occurrence_audit:w&#45;&gt;audit_revision:e</title>
<path fill="none" stroke="#000000" d="M178.7844,-579.5702C144.9826,-599.6077 196.5136,-702.2 142,-702.2"/>
<polygon fill="#000000" stroke="#000000" points="185.2158,-578.0455 193.8305,-579.7029 189.1079,-577.1228 193,-576.2 193,-576.2 193,-576.2 189.1079,-577.1228 192.1695,-572.6971 185.2158,-578.0455 185.2158,-578.0455"/>
<ellipse fill="none" stroke="#000000" cx="182.1021" cy="-578.7837" rx="3.2" ry="3.2"/>
</g>
</g>
</svg>
