<?xml version="1.0" encoding="UTF-8" standalone="no"?>
<!DOCTYPE svg PUBLIC "-//W3C//DTD SVG 1.1//EN"
 "http://www.w3.org/Graphics/SVG/1.1/DTD/svg11.dtd">
<!-- Generated by graphviz version 2.40.1 (20161225.0304)
 -->
<!-- Title: oneDegreeRelationshipsDiagramImplied Pages: 1 -->
<svg width="602pt" height="422pt"
 viewBox="0.00 0.00 602.00 421.70" xmlns="http://www.w3.org/2000/svg" xmlns:xlink="http://www.w3.org/1999/xlink">
<g id="graph0" class="graph" transform="scale(1 1) rotate(0) translate(4 417.7)">
<title>oneDegreeRelationshipsDiagramImplied</title>
<polygon fill="#ffffff" stroke="transparent" points="-4,4 -4,-417.7 598,-417.7 598,4 -4,4"/>
<text text-anchor="middle" x="72.4936" y="-7.3" font-family="Helvetica,sans-Serif" font-size="11.00" fill="#000000">Generated by SchemaSpy</text>
<!-- temporary_absence_movement_audit -->
<g id="node1" class="node">
<title>temporary_absence_movement_audit</title>
<g id="a_node1"><a xlink:href="../../tables/temporary_absence_movement_audit.html" xlink:title="temporary_absence_movement_audit" target="_top">
<polygon fill="#ffffff" stroke="transparent" points="211,-38.2 211,-392.2 586,-392.2 586,-38.2 211,-38.2"/>
<polygon fill="#f5f5f5" stroke="transparent" points="213.5,-367.2 213.5,-390.2 584.5,-390.2 584.5,-367.2 213.5,-367.2"/>
<polygon fill="none" stroke="#000000" points="213.5,-367.2 213.5,-390.2 584.5,-390.2 584.5,-367.2 213.5,-367.2"/>
<text text-anchor="start" x="218.5" y="-375.8" font-family="Helvetica,sans-Serif" font-weight="bold" font-size="11.00" fill="#000000">temporary_absence_movement_audit</text>
<text text-anchor="start" x="549.5437" y="-375.3" font-family="Helvetica,sans-Serif" font-size="11.00" fill="#000000">[table]</text>
<polygon fill="none" stroke="#000000" points="213.5,-345.2 213.5,-367.2 485.5,-367.2 485.5,-345.2 213.5,-345.2"/>
<image xlink:href="../../images/primaryKeys.png" width="11px" height="12px" preserveAspectRatio="xMinYMin meet" x="218.5" y="-362.2"/>
<text text-anchor="start" x="233.5" y="-352.3" font-family="Helvetica,sans-Serif" font-size="11.00" fill="#000000">rev_id</text>
<polygon fill="none" stroke="#000000" points="485.5,-345.2 485.5,-367.2 584.5,-367.2 584.5,-345.2 485.5,-345.2"/>
<text text-anchor="start" x="488.5" y="-352.9" font-family="Helvetica,sans-Serif" font-size="11.00" fill="#000000">int8[19]</text>
<polygon fill="none" stroke="#000000" points="213.5,-323.2 213.5,-345.2 485.5,-345.2 485.5,-323.2 213.5,-323.2"/>
<text text-anchor="start" x="233.5" y="-330.3" font-family="Helvetica,sans-Serif" font-size="11.00" fill="#000000">rev_type</text>
<polygon fill="none" stroke="#000000" points="485.5,-323.2 485.5,-345.2 584.5,-345.2 584.5,-323.2 485.5,-323.2"/>
<text text-anchor="start" x="488.5" y="-330.9" font-family="Helvetica,sans-Serif" font-size="11.00" fill="#000000">int2[5]</text>
<polygon fill="none" stroke="#000000" points="213.5,-301.2 213.5,-323.2 485.5,-323.2 485.5,-301.2 213.5,-301.2"/>
<image xlink:href="../../images/primaryKeys.png" width="11px" height="12px" preserveAspectRatio="xMinYMin meet" x="218.5" y="-318.2"/>
<text text-anchor="start" x="233.5" y="-308.3" font-family="Helvetica,sans-Serif" font-size="11.00" fill="#000000">id</text>
<polygon fill="none" stroke="#000000" points="485.5,-301.2 485.5,-323.2 584.5,-323.2 584.5,-301.2 485.5,-301.2"/>
<text text-anchor="start" x="488.5" y="-308.9" font-family="Helvetica,sans-Serif" font-size="11.00" fill="#000000">uuid[2147483647]</text>
<polygon fill="none" stroke="#000000" points="213.5,-279.2 213.5,-301.2 485.5,-301.2 485.5,-279.2 213.5,-279.2"/>
<image xlink:href="../../images/foreignKeys.png" width="11px" height="12px" preserveAspectRatio="xMinYMin meet" x="218.5" y="-296.2"/>
<text text-anchor="start" x="233.5" y="-286.3" font-family="Helvetica,sans-Serif" font-size="11.00" fill="#000000">person_identifier</text>
<polygon fill="none" stroke="#000000" points="485.5,-279.2 485.5,-301.2 584.5,-301.2 584.5,-279.2 485.5,-279.2"/>
<text text-anchor="start" x="488.5" y="-286.9" font-family="Helvetica,sans-Serif" font-size="11.00" fill="#000000">varchar[10]</text>
<polygon fill="none" stroke="#000000" points="213.5,-257.2 213.5,-279.2 485.5,-279.2 485.5,-257.2 213.5,-257.2"/>
<text text-anchor="start" x="233.5" y="-264.3" font-family="Helvetica,sans-Serif" font-size="11.00" fill="#000000">occurrence_id</text>
<polygon fill="none" stroke="#000000" points="485.5,-257.2 485.5,-279.2 584.5,-279.2 584.5,-257.2 485.5,-257.2"/>
<text text-anchor="start" x="488.5" y="-264.9" font-family="Helvetica,sans-Serif" font-size="11.00" fill="#000000">uuid[2147483647]</text>
<polygon fill="none" stroke="#000000" points="213.5,-235.2 213.5,-257.2 485.5,-257.2 485.5,-235.2 213.5,-235.2"/>
<text text-anchor="start" x="233.5" y="-242.3" font-family="Helvetica,sans-Serif" font-size="11.00" fill="#000000">occurred_at</text>
<polygon fill="none" stroke="#000000" points="485.5,-235.2 485.5,-257.2 584.5,-257.2 584.5,-235.2 485.5,-235.2"/>
<text text-anchor="start" x="488.5" y="-242.9" font-family="Helvetica,sans-Serif" font-size="11.00" fill="#000000">timestamp[29,6]</text>
<polygon fill="none" stroke="#000000" points="213.5,-213.2 213.5,-235.2 485.5,-235.2 485.5,-213.2 213.5,-213.2"/>
<text text-anchor="start" x="233.5" y="-220.3" font-family="Helvetica,sans-Serif" font-size="11.00" fill="#000000">direction</text>
<polygon fill="none" stroke="#000000" points="485.5,-213.2 485.5,-235.2 584.5,-235.2 584.5,-213.2 485.5,-213.2"/>
<text text-anchor="start" x="488.5" y="-220.9" font-family="Helvetica,sans-Serif" font-size="11.00" fill="#000000">varchar[3]</text>
<polygon fill="none" stroke="#000000" points="213.5,-191.2 213.5,-213.2 485.5,-213.2 485.5,-191.2 213.5,-191.2"/>
<text text-anchor="start" x="233.5" y="-198.3" font-family="Helvetica,sans-Serif" font-size="11.00" fill="#000000">absence_reason_id</text>
<polygon fill="none" stroke="#000000" points="485.5,-191.2 485.5,-213.2 584.5,-213.2 584.5,-191.2 485.5,-191.2"/>
<text text-anchor="start" x="488.5" y="-198.9" font-family="Helvetica,sans-Serif" font-size="11.00" fill="#000000">int8[19]</text>
<polygon fill="none" stroke="#000000" points="213.5,-169.2 213.5,-191.2 485.5,-191.2 485.5,-169.2 213.5,-169.2"/>
<text text-anchor="start" x="233.5" y="-176.3" font-family="Helvetica,sans-Serif" font-size="11.00" fill="#000000">accompanied_by_id</text>
<polygon fill="none" stroke="#000000" points="485.5,-169.2 485.5,-191.2 584.5,-191.2 584.5,-169.2 485.5,-169.2"/>
<text text-anchor="start" x="488.5" y="-176.9" font-family="Helvetica,sans-Serif" font-size="11.00" fill="#000000">int8[19]</text>
<polygon fill="none" stroke="#000000" points="213.5,-147.2 213.5,-169.2 485.5,-169.2 485.5,-147.2 213.5,-147.2"/>
<text text-anchor="start" x="233.5" y="-154.3" font-family="Helvetica,sans-Serif" font-size="11.00" fill="#000000">accompanied_by_notes</text>
<polygon fill="none" stroke="#000000" points="485.5,-147.2 485.5,-169.2 584.5,-169.2 584.5,-147.2 485.5,-147.2"/>
<text text-anchor="start" x="488.5" y="-154.9" font-family="Helvetica,sans-Serif" font-size="11.00" fill="#000000">text[2147483647]</text>
<polygon fill="none" stroke="#000000" points="213.5,-125.2 213.5,-147.2 485.5,-147.2 485.5,-125.2 213.5,-125.2"/>
<text text-anchor="start" x="233.5" y="-132.3" font-family="Helvetica,sans-Serif" font-size="11.00" fill="#000000">notes</text>
<polygon fill="none" stroke="#000000" points="485.5,-125.2 485.5,-147.2 584.5,-147.2 584.5,-125.2 485.5,-125.2"/>
<text text-anchor="start" x="488.5" y="-132.9" font-family="Helvetica,sans-Serif" font-size="11.00" fill="#000000">text[2147483647]</text>
<polygon fill="none" stroke="#000000" points="213.5,-103.2 213.5,-125.2 485.5,-125.2 485.5,-103.2 213.5,-103.2"/>
<text text-anchor="start" x="233.5" y="-110.3" font-family="Helvetica,sans-Serif" font-size="11.00" fill="#000000">recorded_by_prison_code</text>
<polygon fill="none" stroke="#000000" points="485.5,-103.2 485.5,-125.2 584.5,-125.2 584.5,-103.2 485.5,-103.2"/>
<text text-anchor="start" x="488.5" y="-110.9" font-family="Helvetica,sans-Serif" font-size="11.00" fill="#000000">varchar[6]</text>
<polygon fill="none" stroke="#000000" points="213.5,-81.2 213.5,-103.2 485.5,-103.2 485.5,-81.2 213.5,-81.2"/>
<text text-anchor="start" x="233.5" y="-88.3" font-family="Helvetica,sans-Serif" font-size="11.00" fill="#000000">legacy_id</text>
<polygon fill="none" stroke="#000000" points="485.5,-81.2 485.5,-103.2 584.5,-103.2 584.5,-81.2 485.5,-81.2"/>
<text text-anchor="start" x="488.5" y="-88.9" font-family="Helvetica,sans-Serif" font-size="11.00" fill="#000000">varchar[32]</text>
<polygon fill="none" stroke="#000000" points="213.5,-59.2 213.5,-81.2 485.5,-81.2 485.5,-59.2 213.5,-59.2"/>
<text text-anchor="start" x="233.5" y="-66.3" font-family="Helvetica,sans-Serif" font-size="11.00" fill="#000000">location</text>
<polygon fill="none" stroke="#000000" points="485.5,-59.2 485.5,-81.2 584.5,-81.2 584.5,-59.2 485.5,-59.2"/>
<text text-anchor="start" x="488.2258" y="-66.9" font-family="Helvetica,sans-Serif" font-size="11.00" fill="#000000">jsonb[2147483647]</text>
<polygon fill="#ffffff" stroke="transparent" points="213.5,-40.2 213.5,-59.2 353.5,-59.2 353.5,-40.2 213.5,-40.2"/>
<polygon fill="none" stroke="#000000" points="213.5,-40.2 213.5,-59.2 353.5,-59.2 353.5,-40.2 213.5,-40.2"/>
<text text-anchor="start" x="216.5" y="-46.3" font-family="Helvetica,sans-Serif" font-size="11.00" fill="#000000">&lt; 2</text>
<polygon fill="#ffffff" stroke="transparent" points="353.5,-40.2 353.5,-59.2 485.5,-59.2 485.5,-40.2 353.5,-40.2"/>
<polygon fill="none" stroke="#000000" points="353.5,-40.2 353.5,-59.2 485.5,-59.2 485.5,-40.2 353.5,-40.2"/>
<text text-anchor="start" x="476.3862" y="-46.3" font-family="Helvetica,sans-Serif" font-size="11.00" fill="#000000"> &#160;</text>
<polygon fill="#ffffff" stroke="transparent" points="485.5,-40.2 485.5,-59.2 584.5,-59.2 584.5,-40.2 485.5,-40.2"/>
<polygon fill="none" stroke="#000000" points="485.5,-40.2 485.5,-59.2 584.5,-59.2 584.5,-40.2 485.5,-40.2"/>
<text text-anchor="start" x="565.9053" y="-46.3" font-family="Helvetica,sans-Serif" font-size="11.00" fill="#000000">0 &gt;</text>
<polygon fill="none" stroke="#000000" stroke-width="2" points="212,-39.2 212,-391.2 585,-391.2 585,-39.2 212,-39.2"/>
</a>
</g>
</g>
<!-- person_summary -->
<g id="node2" class="node">
<title>person_summary</title>
<g id="a_node2"><a xlink:href="../../tables/person_summary.html" xlink:title="person_summary" target="_top">
<polygon fill="#ffffff" stroke="transparent" points="8,-222.7 8,-305.7 162,-305.7 162,-222.7 8,-222.7"/>
<polygon fill="#f5f5f5" stroke="transparent" points="8,-282.2 8,-305.2 162,-305.2 162,-282.2 8,-282.2"/>
<polygon fill="none" stroke="#000000" points="8,-282.2 8,-305.2 162,-305.2 162,-282.2 8,-282.2"/>
<text text-anchor="start" x="13" y="-290.8" font-family="Helvetica,sans-Serif" font-weight="bold" font-size="11.00" fill="#000000">person_summary</text>
<text text-anchor="start" x="127.5219" y="-290.3" font-family="Helvetica,sans-Serif" font-size="11.00" fill="#000000">[table]</text>
<polygon fill="none" stroke="#000000" points="8,-260.2 8,-282.2 162,-282.2 162,-260.2 8,-260.2"/>
<image xlink:href="../../images/primaryKeys.png" width="11px" height="12px" preserveAspectRatio="xMinYMin meet" x="13" y="-277.2"/>
<text text-anchor="start" x="37" y="-267.3" font-family="Helvetica,sans-Serif" font-size="11.00" fill="#000000">person_identifier</text>
<polygon fill="none" stroke="#000000" points="8,-241.2 8,-260.2 162,-260.2 162,-241.2 8,-241.2"/>
<text text-anchor="start" x="11" y="-247.3" font-family="Helvetica,sans-Serif" font-size="11.00" fill="#000000">...</text>
<polygon fill="#ffffff" stroke="transparent" points="8,-222.2 8,-241.2 74,-241.2 74,-222.2 8,-222.2"/>
<polygon fill="none" stroke="#000000" points="8,-222.2 8,-241.2 74,-241.2 74,-222.2 8,-222.2"/>
<text text-anchor="start" x="11" y="-228.3" font-family="Helvetica,sans-Serif" font-size="11.00" fill="#000000"> &#160;</text>
<polygon fill="#ffffff" stroke="transparent" points="74,-222.2 74,-241.2 113,-241.2 113,-222.2 74,-222.2"/>
<polygon fill="none" stroke="#000000" points="74,-222.2 74,-241.2 113,-241.2 113,-222.2 74,-222.2"/>
<text text-anchor="start" x="103.8862" y="-228.3" font-family="Helvetica,sans-Serif" font-size="11.00" fill="#000000"> &#160;</text>
<polygon fill="#ffffff" stroke="transparent" points="113,-222.2 113,-241.2 162,-241.2 162,-222.2 113,-222.2"/>
<polygon fill="none" stroke="#000000" points="113,-222.2 113,-241.2 162,-241.2 162,-222.2 113,-222.2"/>
<text text-anchor="start" x="143.4053" y="-228.3" font-family="Helvetica,sans-Serif" font-size="11.00" fill="#000000">6 &gt;</text>
</a>
</g>
</g>
<!-- temporary_absence_movement_audit&#45;&gt;person_summary -->
<g id="edge1" class="edge">
<title>temporary_absence_movement_audit:w&#45;&gt;person_summary:e</title>
<path fill="none" stroke="#000000" stroke-dasharray="5,2" d="M198.9747,-287.3965C186.52,-282.1113 180.4883,-271.2 162,-271.2"/>
<polygon fill="#000000" stroke="#000000" points="205.645,-288.6839 212.8177,-293.7348 209.5725,-289.4419 213.5,-290.2 213.5,-290.2 213.5,-290.2 209.5725,-289.4419 214.1823,-286.6652 205.645,-288.6839 205.645,-288.6839"/>
<ellipse fill="none" stroke="#000000" cx="202.503" cy="-288.0774" rx="3.2" ry="3.2"/>
</g>
<!-- audit_revision -->
<g id="node3" class="node">
<title>audit_revision</title>
<g id="a_node3"><a xlink:href="../../tables/audit_revision.html" xlink:title="audit_revision" target="_top">
<polygon fill="#ffffff" stroke="transparent" points="18,-326.7 18,-409.7 152,-409.7 152,-326.7 18,-326.7"/>
<polygon fill="#f5f5f5" stroke="transparent" points="18,-386.2 18,-409.2 152,-409.2 152,-386.2 18,-386.2"/>
<polygon fill="none" stroke="#000000" points="18,-386.2 18,-409.2 152,-409.2 152,-386.2 18,-386.2"/>
<text text-anchor="start" x="23" y="-394.8" font-family="Helvetica,sans-Serif" font-weight="bold" font-size="11.00" fill="#000000">audit_revision</text>
<text text-anchor="start" x="117.5219" y="-394.3" font-family="Helvetica,sans-Serif" font-size="11.00" fill="#000000">[table]</text>
<polygon fill="none" stroke="#000000" points="18,-364.2 18,-386.2 152,-386.2 152,-364.2 18,-364.2"/>
<image xlink:href="../../images/primaryKeys.png" width="11px" height="12px" preserveAspectRatio="xMinYMin meet" x="23" y="-381.2"/>
<text text-anchor="start" x="38" y="-371.3" font-family="Helvetica,sans-Serif" font-size="11.00" fill="#000000">id</text>
<polygon fill="none" stroke="#000000" points="18,-345.2 18,-364.2 152,-364.2 152,-345.2 18,-345.2"/>
<text text-anchor="start" x="21" y="-351.3" font-family="Helvetica,sans-Serif" font-size="11.00" fill="#000000">...</text>
<polygon fill="#ffffff" stroke="transparent" points="18,-326.2 18,-345.2 74,-345.2 74,-326.2 18,-326.2"/>
<polygon fill="none" stroke="#000000" points="18,-326.2 18,-345.2 74,-345.2 74,-326.2 18,-326.2"/>
<text text-anchor="start" x="21" y="-332.3" font-family="Helvetica,sans-Serif" font-size="11.00" fill="#000000"> &#160;</text>
<polygon fill="#ffffff" stroke="transparent" points="74,-326.2 74,-345.2 108,-345.2 108,-326.2 74,-326.2"/>
<polygon fill="none" stroke="#000000" points="74,-326.2 74,-345.2 108,-345.2 108,-326.2 74,-326.2"/>
<text text-anchor="start" x="98.8862" y="-332.3" font-family="Helvetica,sans-Serif" font-size="11.00" fill="#000000"> &#160;</text>
<polygon fill="#ffffff" stroke="transparent" points="108,-326.2 108,-345.2 152,-345.2 152,-326.2 108,-326.2"/>
<polygon fill="none" stroke="#000000" points="108,-326.2 108,-345.2 152,-345.2 152,-326.2 108,-326.2"/>
<text text-anchor="start" x="133.4053" y="-332.3" font-family="Helvetica,sans-Serif" font-size="11.00" fill="#000000">4 &gt;</text>
</a>
</g>
</g>
<!-- temporary_absence_movement_audit&#45;&gt;audit_revision -->
<g id="edge2" class="edge">
<title>temporary_absence_movement_audit:w&#45;&gt;audit_revision:e</title>
<path fill="none" stroke="#000000" d="M199.1587,-358.0913C182.2907,-362.8971 175.0205,-375.2 152,-375.2"/>
<polygon fill="#000000" stroke="#000000" points="205.5687,-357.246 213.9707,-359.7691 209.5343,-356.723 213.5,-356.2 213.5,-356.2 213.5,-356.2 209.5343,-356.723 213.0293,-352.6309 205.5687,-357.246 205.5687,-357.246"/>
<ellipse fill="none" stroke="#000000" cx="202.3961" cy="-357.6644" rx="3.2" ry="3.2"/>
</g>
</g>
</svg>
