<?xml version="1.0" encoding="UTF-8" standalone="no"?>
<!DOCTYPE svg PUBLIC "-//W3C//DTD SVG 1.1//EN"
 "http://www.w3.org/Graphics/SVG/1.1/DTD/svg11.dtd">
<!-- Generated by graphviz version 2.40.1 (20161225.0304)
 -->
<!-- Title: twoDegreesRelationshipsDiagram Pages: 1 -->
<svg width="1410pt" height="596pt"
 viewBox="0.00 0.00 1410.00 595.70" xmlns="http://www.w3.org/2000/svg" xmlns:xlink="http://www.w3.org/1999/xlink">
<g id="graph0" class="graph" transform="scale(1 1) rotate(0) translate(4 591.7)">
<title>twoDegreesRelationshipsDiagram</title>
<polygon fill="#ffffff" stroke="transparent" points="-4,4 -4,-591.7 1406,-591.7 1406,4 -4,4"/>
<text text-anchor="middle" x="72.4936" y="-7.3" font-family="Helvetica,sans-Serif" font-size="11.00" fill="#000000">Generated by SchemaSpy</text>
<!-- reference_data -->
<g id="node1" class="node">
<title>reference_data</title>
<g id="a_node1"><a xlink:href="../../tables/reference_data.html" xlink:title="reference_data" target="_top">
<polygon fill="#ffffff" stroke="transparent" points="253,-355.7 253,-416.7 393,-416.7 393,-355.7 253,-355.7"/>
<polygon fill="#f5f5f5" stroke="transparent" points="253,-393.2 253,-416.2 393,-416.2 393,-393.2 253,-393.2"/>
<polygon fill="none" stroke="#000000" points="253,-393.2 253,-416.2 393,-416.2 393,-393.2 253,-393.2"/>
<text text-anchor="start" x="258" y="-401.8" font-family="Helvetica,sans-Serif" font-weight="bold" font-size="11.00" fill="#000000">reference_data</text>
<text text-anchor="start" x="358.5219" y="-401.3" font-family="Helvetica,sans-Serif" font-size="11.00" fill="#000000">[table]</text>
<polygon fill="none" stroke="#000000" points="253,-374.2 253,-393.2 393,-393.2 393,-374.2 253,-374.2"/>
<text text-anchor="start" x="256" y="-380.3" font-family="Helvetica,sans-Serif" font-size="11.00" fill="#000000">...</text>
<polygon fill="#ffffff" stroke="transparent" points="253,-355.2 253,-374.2 314,-374.2 314,-355.2 253,-355.2"/>
<polygon fill="none" stroke="#000000" points="253,-355.2 253,-374.2 314,-374.2 314,-355.2 253,-355.2"/>
<text text-anchor="start" x="256" y="-361.3" font-family="Helvetica,sans-Serif" font-size="11.00" fill="#000000">&lt; 1</text>
<polygon fill="#ffffff" stroke="transparent" points="314,-355.2 314,-374.2 346,-374.2 346,-355.2 314,-355.2"/>
<polygon fill="none" stroke="#000000" points="314,-355.2 314,-374.2 346,-374.2 346,-355.2 314,-355.2"/>
<text text-anchor="start" x="336.8862" y="-361.3" font-family="Helvetica,sans-Serif" font-size="11.00" fill="#000000"> &#160;</text>
<polygon fill="#ffffff" stroke="transparent" points="346,-355.2 346,-374.2 393,-374.2 393,-355.2 346,-355.2"/>
<polygon fill="none" stroke="#000000" points="346,-355.2 346,-374.2 393,-374.2 393,-355.2 346,-355.2"/>
<text text-anchor="start" x="368.2904" y="-361.3" font-family="Helvetica,sans-Serif" font-size="11.00" fill="#000000">17 &gt;</text>
</a>
</g>
</g>
<!-- reference_data_domain -->
<g id="node2" class="node">
<title>reference_data_domain</title>
<g id="a_node2"><a xlink:href="../../tables/reference_data_domain.html" xlink:title="reference_data_domain" target="_top">
<polygon fill="#ffffff" stroke="transparent" points="8,-385.7 8,-446.7 204,-446.7 204,-385.7 8,-385.7"/>
<polygon fill="#f5f5f5" stroke="transparent" points="8,-423.2 8,-446.2 204,-446.2 204,-423.2 8,-423.2"/>
<polygon fill="none" stroke="#000000" points="8,-423.2 8,-446.2 204,-446.2 204,-423.2 8,-423.2"/>
<text text-anchor="start" x="13" y="-431.8" font-family="Helvetica,sans-Serif" font-weight="bold" font-size="11.00" fill="#000000">reference_data_domain</text>
<text text-anchor="start" x="169.5219" y="-431.3" font-family="Helvetica,sans-Serif" font-size="11.00" fill="#000000">[table]</text>
<polygon fill="none" stroke="#000000" points="8,-404.2 8,-423.2 204,-423.2 204,-404.2 8,-404.2"/>
<text text-anchor="start" x="11" y="-410.3" font-family="Helvetica,sans-Serif" font-size="11.00" fill="#000000">...</text>
<polygon fill="#ffffff" stroke="transparent" points="8,-385.2 8,-404.2 95,-404.2 95,-385.2 8,-385.2"/>
<polygon fill="none" stroke="#000000" points="8,-385.2 8,-404.2 95,-404.2 95,-385.2 8,-385.2"/>
<text text-anchor="start" x="11" y="-391.3" font-family="Helvetica,sans-Serif" font-size="11.00" fill="#000000"> &#160;</text>
<polygon fill="#ffffff" stroke="transparent" points="95,-385.2 95,-404.2 145,-404.2 145,-385.2 95,-385.2"/>
<polygon fill="none" stroke="#000000" points="95,-385.2 95,-404.2 145,-404.2 145,-385.2 95,-385.2"/>
<text text-anchor="start" x="135.8862" y="-391.3" font-family="Helvetica,sans-Serif" font-size="11.00" fill="#000000"> &#160;</text>
<polygon fill="#ffffff" stroke="transparent" points="145,-385.2 145,-404.2 204,-404.2 204,-385.2 145,-385.2"/>
<polygon fill="none" stroke="#000000" points="145,-385.2 145,-404.2 204,-404.2 204,-385.2 145,-385.2"/>
<text text-anchor="start" x="185.4053" y="-391.3" font-family="Helvetica,sans-Serif" font-size="11.00" fill="#000000">2 &gt;</text>
</a>
</g>
</g>
<!-- reference_data&#45;&gt;reference_data_domain -->
<g id="edge1" class="edge">
<title>reference_data:w&#45;&gt;reference_data_domain:e</title>
<path fill="none" stroke="#000000" d="M230.4617,-411.3568C221.5769,-412.5125 212.6543,-413.2 204,-413.2"/>
<polygon fill="#000000" stroke="#000000" points="236.9278,-410.341 245.3896,-412.6557 240.8793,-409.7201 244.8309,-409.0993 244.8309,-409.0993 244.8309,-409.0993 240.8793,-409.7201 244.2721,-405.5429 236.9278,-410.341 236.9278,-410.341"/>
<ellipse fill="none" stroke="#000000" cx="233.7666" cy="-410.8376" rx="3.2" ry="3.2"/>
</g>
<!-- reference_data_domain_link -->
<g id="node3" class="node">
<title>reference_data_domain_link</title>
<g id="a_node3"><a xlink:href="../../tables/reference_data_domain_link.html" xlink:title="reference_data_domain_link" target="_top">
<polygon fill="#ffffff" stroke="transparent" points="462.5,-522.7 462.5,-583.7 689.5,-583.7 689.5,-522.7 462.5,-522.7"/>
<polygon fill="#f5f5f5" stroke="transparent" points="463,-560.2 463,-583.2 690,-583.2 690,-560.2 463,-560.2"/>
<polygon fill="none" stroke="#000000" points="463,-560.2 463,-583.2 690,-583.2 690,-560.2 463,-560.2"/>
<text text-anchor="start" x="468" y="-568.8" font-family="Helvetica,sans-Serif" font-weight="bold" font-size="11.00" fill="#000000">reference_data_domain_link</text>
<text text-anchor="start" x="655.5219" y="-568.3" font-family="Helvetica,sans-Serif" font-size="11.00" fill="#000000">[table]</text>
<polygon fill="none" stroke="#000000" points="463,-541.2 463,-560.2 690,-560.2 690,-541.2 463,-541.2"/>
<text text-anchor="start" x="466" y="-547.3" font-family="Helvetica,sans-Serif" font-size="11.00" fill="#000000">...</text>
<polygon fill="#ffffff" stroke="transparent" points="463,-522.2 463,-541.2 575,-541.2 575,-522.2 463,-522.2"/>
<polygon fill="none" stroke="#000000" points="463,-522.2 463,-541.2 575,-541.2 575,-522.2 463,-522.2"/>
<text text-anchor="start" x="466" y="-528.3" font-family="Helvetica,sans-Serif" font-size="11.00" fill="#000000">&lt; 2</text>
<polygon fill="#ffffff" stroke="transparent" points="575,-522.2 575,-541.2 632,-541.2 632,-522.2 575,-522.2"/>
<polygon fill="none" stroke="#000000" points="575,-522.2 575,-541.2 632,-541.2 632,-522.2 575,-522.2"/>
<text text-anchor="start" x="622.8862" y="-528.3" font-family="Helvetica,sans-Serif" font-size="11.00" fill="#000000"> &#160;</text>
<polygon fill="#ffffff" stroke="transparent" points="632,-522.2 632,-541.2 690,-541.2 690,-522.2 632,-522.2"/>
<polygon fill="none" stroke="#000000" points="632,-522.2 632,-541.2 690,-541.2 690,-522.2 632,-522.2"/>
<text text-anchor="start" x="680.8862" y="-528.3" font-family="Helvetica,sans-Serif" font-size="11.00" fill="#000000"> &#160;</text>
</a>
</g>
</g>
<!-- reference_data_domain_link&#45;&gt;reference_data -->
<g id="edge3" class="edge">
<title>reference_data_domain_link:w&#45;&gt;reference_data:e</title>
<path fill="none" stroke="#000000" d="M454.3019,-543.8778C433.25,-523.8918 382.3481,-461.0348 350.4633,-420.9802"/>
<polygon fill="#000000" stroke="#000000" points="464.7047,-546.494 460.0011,-552.9652 458.7068,-552.0245 463.4105,-545.5533 464.7047,-546.494"/>
<polyline fill="none" stroke="#000000" points="463,-550.2 459.7644,-547.8482 "/>
<ellipse fill="none" stroke="#000000" cx="457.1759" cy="-545.9667" rx="3.2" ry="3.2"/>
</g>
<!-- reference_data_domain_link&#45;&gt;reference_data_domain -->
<g id="edge2" class="edge">
<title>reference_data_domain_link:w&#45;&gt;reference_data_domain:e</title>
<path fill="none" stroke="#000000" d="M448.7881,-546.3928C393.4188,-524.2663 233.3129,-413.2 204,-413.2"/>
<polygon fill="#000000" stroke="#000000" points="455.2725,-548.1299 462.0684,-553.6774 459.1362,-549.1649 463,-550.2 463,-550.2 463,-550.2 459.1362,-549.1649 463.9316,-546.7226 455.2725,-548.1299 455.2725,-548.1299"/>
<ellipse fill="none" stroke="#000000" cx="452.1815" cy="-547.3018" rx="3.2" ry="3.2"/>
</g>
<!-- reference_data_link -->
<g id="node4" class="node">
<title>reference_data_link</title>
<g id="a_node4"><a xlink:href="../../tables/reference_data_link.html" xlink:title="reference_data_link" target="_top">
<polygon fill="#ffffff" stroke="transparent" points="490.5,-440.7 490.5,-501.7 661.5,-501.7 661.5,-440.7 490.5,-440.7"/>
<polygon fill="#f5f5f5" stroke="transparent" points="491,-478.2 491,-501.2 662,-501.2 662,-478.2 491,-478.2"/>
<polygon fill="none" stroke="#000000" points="491,-478.2 491,-501.2 662,-501.2 662,-478.2 491,-478.2"/>
<text text-anchor="start" x="496" y="-486.8" font-family="Helvetica,sans-Serif" font-weight="bold" font-size="11.00" fill="#000000">reference_data_link</text>
<text text-anchor="start" x="627.5219" y="-486.3" font-family="Helvetica,sans-Serif" font-size="11.00" fill="#000000">[table]</text>
<polygon fill="none" stroke="#000000" points="491,-459.2 491,-478.2 662,-478.2 662,-459.2 491,-459.2"/>
<text text-anchor="start" x="494" y="-465.3" font-family="Helvetica,sans-Serif" font-size="11.00" fill="#000000">...</text>
<polygon fill="#ffffff" stroke="transparent" points="491,-440.2 491,-459.2 575,-459.2 575,-440.2 491,-440.2"/>
<polygon fill="none" stroke="#000000" points="491,-440.2 491,-459.2 575,-459.2 575,-440.2 491,-440.2"/>
<text text-anchor="start" x="494" y="-446.3" font-family="Helvetica,sans-Serif" font-size="11.00" fill="#000000">&lt; 2</text>
<polygon fill="#ffffff" stroke="transparent" points="575,-440.2 575,-459.2 618,-459.2 618,-440.2 575,-440.2"/>
<polygon fill="none" stroke="#000000" points="575,-440.2 575,-459.2 618,-459.2 618,-440.2 575,-440.2"/>
<text text-anchor="start" x="608.8862" y="-446.3" font-family="Helvetica,sans-Serif" font-size="11.00" fill="#000000"> &#160;</text>
<polygon fill="#ffffff" stroke="transparent" points="618,-440.2 618,-459.2 662,-459.2 662,-440.2 618,-440.2"/>
<polygon fill="none" stroke="#000000" points="618,-440.2 618,-459.2 662,-459.2 662,-440.2 618,-440.2"/>
<text text-anchor="start" x="652.8862" y="-446.3" font-family="Helvetica,sans-Serif" font-size="11.00" fill="#000000"> &#160;</text>
</a>
</g>
</g>
<!-- reference_data_link&#45;&gt;reference_data -->
<g id="edge4" class="edge">
<title>reference_data_link:w&#45;&gt;reference_data:e</title>
<path fill="none" stroke="#000000" d="M476.69,-466.4465C438.653,-459.9466 401.2777,-439.466 372.9096,-420.7831"/>
<polygon fill="#000000" stroke="#000000" points="483.0594,-467.2269 490.5621,-471.7733 487.0297,-467.7135 491,-468.2 491,-468.2 491,-468.2 487.0297,-467.7135 491.4379,-464.6267 483.0594,-467.2269 483.0594,-467.2269"/>
<ellipse fill="none" stroke="#000000" cx="479.8832" cy="-466.8377" rx="3.2" ry="3.2"/>
</g>
<!-- reference_data_link&#45;&gt;reference_data -->
<g id="edge5" class="edge">
<title>reference_data_link:w&#45;&gt;reference_data:e</title>
<path fill="none" stroke="#000000" d="M476.5456,-468.5519C432.0735,-467.0681 388.5205,-442.7667 359.2265,-420.8693"/>
<polygon fill="#000000" stroke="#000000" points="483.0024,-468.3948 491.0877,-471.7989 487.0012,-468.2974 491,-468.2 491,-468.2 491,-468.2 487.0012,-468.2974 490.9123,-464.6011 483.0024,-468.3948 483.0024,-468.3948"/>
<ellipse fill="none" stroke="#000000" cx="479.8033" cy="-468.4727" rx="3.2" ry="3.2"/>
</g>
<!-- temporary_absence_authorisation -->
<g id="node5" class="node">
<title>temporary_absence_authorisation</title>
<g id="a_node5"><a xlink:href="../../tables/temporary_absence_authorisation.html" xlink:title="temporary_absence_authorisation" target="_top">
<polygon fill="#ffffff" stroke="transparent" points="442,-270.7 442,-331.7 710,-331.7 710,-270.7 442,-270.7"/>
<polygon fill="#f5f5f5" stroke="transparent" points="442,-308.2 442,-331.2 710,-331.2 710,-308.2 442,-308.2"/>
<polygon fill="none" stroke="#000000" points="442,-308.2 442,-331.2 710,-331.2 710,-308.2 442,-308.2"/>
<text text-anchor="start" x="447" y="-316.8" font-family="Helvetica,sans-Serif" font-weight="bold" font-size="11.00" fill="#000000">temporary_absence_authorisation</text>
<text text-anchor="start" x="675.5219" y="-316.3" font-family="Helvetica,sans-Serif" font-size="11.00" fill="#000000">[table]</text>
<polygon fill="none" stroke="#000000" points="442,-289.2 442,-308.2 710,-308.2 710,-289.2 442,-289.2"/>
<text text-anchor="start" x="445" y="-295.3" font-family="Helvetica,sans-Serif" font-size="11.00" fill="#000000">...</text>
<polygon fill="#ffffff" stroke="transparent" points="442,-270.2 442,-289.2 570,-289.2 570,-270.2 442,-270.2"/>
<polygon fill="none" stroke="#000000" points="442,-270.2 442,-289.2 570,-289.2 570,-270.2 442,-270.2"/>
<text text-anchor="start" x="445" y="-276.3" font-family="Helvetica,sans-Serif" font-size="11.00" fill="#000000">&lt; 6</text>
<polygon fill="#ffffff" stroke="transparent" points="570,-270.2 570,-289.2 635,-289.2 635,-270.2 570,-270.2"/>
<polygon fill="none" stroke="#000000" points="570,-270.2 570,-289.2 635,-289.2 635,-270.2 570,-270.2"/>
<text text-anchor="start" x="625.8862" y="-276.3" font-family="Helvetica,sans-Serif" font-size="11.00" fill="#000000"> &#160;</text>
<polygon fill="#ffffff" stroke="transparent" points="635,-270.2 635,-289.2 710,-289.2 710,-270.2 635,-270.2"/>
<polygon fill="none" stroke="#000000" points="635,-270.2 635,-289.2 710,-289.2 710,-270.2 635,-270.2"/>
<text text-anchor="start" x="691.4053" y="-276.3" font-family="Helvetica,sans-Serif" font-size="11.00" fill="#000000">1 &gt;</text>
</a>
</g>
</g>
<!-- temporary_absence_authorisation&#45;&gt;reference_data -->
<g id="edge6" class="edge">
<title>temporary_absence_authorisation:w&#45;&gt;reference_data:e</title>
<path fill="none" stroke="#000000" d="M428.4025,-293.1881C386.2424,-282.5648 350.8025,-318.9337 333.8028,-351.5665"/>
<polygon fill="#000000" stroke="#000000" points="434.4937,-295.4332 440.7549,-301.5778 438.2468,-296.8166 442,-298.2 442,-298.2 442,-298.2 438.2468,-296.8166 443.2451,-294.8222 434.4937,-295.4332 434.4937,-295.4332"/>
<ellipse fill="none" stroke="#000000" cx="431.4911" cy="-294.3265" rx="3.2" ry="3.2"/>
</g>
<!-- temporary_absence_authorisation&#45;&gt;reference_data -->
<g id="edge7" class="edge">
<title>temporary_absence_authorisation:w&#45;&gt;reference_data:e</title>
<path fill="none" stroke="#000000" d="M427.6771,-295.6722C389.4446,-293.1612 356.8144,-324.515 338.5751,-351.6932"/>
<polygon fill="#000000" stroke="#000000" points="434.1218,-296.8096 441.3743,-301.7452 438.0609,-297.5048 442,-298.2 442,-298.2 442,-298.2 438.0609,-297.5048 442.6257,-294.6548 434.1218,-296.8096 434.1218,-296.8096"/>
<ellipse fill="none" stroke="#000000" cx="430.9705" cy="-296.2534" rx="3.2" ry="3.2"/>
</g>
<!-- temporary_absence_authorisation&#45;&gt;reference_data -->
<g id="edge8" class="edge">
<title>temporary_absence_authorisation:w&#45;&gt;reference_data:e</title>
<path fill="none" stroke="#000000" d="M427.2982,-298.3767C393.5798,-302.2019 364.25,-328.6718 345.3551,-351.6156"/>
<polygon fill="#000000" stroke="#000000" points="434.0006,-298.2962 442.0433,-301.7997 438.0003,-298.2481 442,-298.2 442,-298.2 442,-298.2 438.0003,-298.2481 441.9567,-294.6003 434.0006,-298.2962 434.0006,-298.2962"/>
<ellipse fill="none" stroke="#000000" cx="430.8008" cy="-298.3347" rx="3.2" ry="3.2"/>
</g>
<!-- temporary_absence_authorisation&#45;&gt;reference_data -->
<g id="edge9" class="edge">
<title>temporary_absence_authorisation:w&#45;&gt;reference_data:e</title>
<path fill="none" stroke="#000000" d="M427.4847,-301.0517C398.4139,-309.3244 372.5939,-331.7394 353.8939,-351.5491"/>
<polygon fill="#000000" stroke="#000000" points="434.1501,-299.7422 442.694,-301.7325 438.075,-298.9711 442,-298.2 442,-298.2 442,-298.2 438.075,-298.9711 441.306,-294.6675 434.1501,-299.7422 434.1501,-299.7422"/>
<ellipse fill="none" stroke="#000000" cx="431.0101" cy="-300.3591" rx="3.2" ry="3.2"/>
</g>
<!-- temporary_absence_authorisation&#45;&gt;reference_data -->
<g id="edge10" class="edge">
<title>temporary_absence_authorisation:w&#45;&gt;reference_data:e</title>
<path fill="none" stroke="#000000" d="M428.3996,-303.3326C403.5681,-314.4789 381.0679,-334.0554 363.2938,-351.6971"/>
<polygon fill="#000000" stroke="#000000" points="434.5153,-301.0247 443.2711,-301.5681 438.2576,-299.6123 442,-298.2 442,-298.2 442,-298.2 438.2576,-299.6123 440.7289,-294.8319 434.5153,-301.0247 434.5153,-301.0247"/>
<ellipse fill="none" stroke="#000000" cx="431.5214" cy="-302.1546" rx="3.2" ry="3.2"/>
</g>
<!-- temporary_absence_authorisation&#45;&gt;reference_data -->
<g id="edge11" class="edge">
<title>temporary_absence_authorisation:w&#45;&gt;reference_data:e</title>
<path fill="none" stroke="#000000" d="M429.2258,-305.3563C408.4392,-318.1812 389.2611,-335.596 373.0874,-351.5585"/>
<polygon fill="#000000" stroke="#000000" points="435.0206,-302.11 443.7595,-301.3407 438.5103,-300.155 442,-298.2 442,-298.2 442,-298.2 438.5103,-300.155 440.2405,-295.0593 435.0206,-302.11 435.0206,-302.11"/>
<ellipse fill="none" stroke="#000000" cx="432.2288" cy="-303.674" rx="3.2" ry="3.2"/>
</g>
<!-- temporary_absence_movement -->
<g id="node6" class="node">
<title>temporary_absence_movement</title>
<g id="a_node6"><a xlink:href="../../tables/temporary_absence_movement.html" xlink:title="temporary_absence_movement" target="_top">
<polygon fill="#ffffff" stroke="transparent" points="1060,-38.2 1060,-414.2 1394,-414.2 1394,-38.2 1060,-38.2"/>
<polygon fill="#f5f5f5" stroke="transparent" points="1062,-389.2 1062,-412.2 1392,-412.2 1392,-389.2 1062,-389.2"/>
<polygon fill="none" stroke="#000000" points="1062,-389.2 1062,-412.2 1392,-412.2 1392,-389.2 1062,-389.2"/>
<text text-anchor="start" x="1067" y="-397.8" font-family="Helvetica,sans-Serif" font-weight="bold" font-size="11.00" fill="#000000">temporary_absence_movement</text>
<text text-anchor="start" x="1357.0437" y="-397.3" font-family="Helvetica,sans-Serif" font-size="11.00" fill="#000000">[table]</text>
<polygon fill="none" stroke="#000000" points="1062,-367.2 1062,-389.2 1293,-389.2 1293,-367.2 1062,-367.2"/>
<image xlink:href="../../images/primaryKeys.png" width="11px" height="12px" preserveAspectRatio="xMinYMin meet" x="1067" y="-384.2"/>
<text text-anchor="start" x="1082" y="-374.3" font-family="Helvetica,sans-Serif" font-size="11.00" fill="#000000">id</text>
<polygon fill="none" stroke="#000000" points="1293,-367.2 1293,-389.2 1392,-389.2 1392,-367.2 1293,-367.2"/>
<text text-anchor="start" x="1296" y="-374.9" font-family="Helvetica,sans-Serif" font-size="11.00" fill="#000000">uuid[2147483647]</text>
<polygon fill="none" stroke="#000000" points="1062,-345.2 1062,-367.2 1293,-367.2 1293,-345.2 1062,-345.2"/>
<text text-anchor="start" x="1082" y="-352.3" font-family="Helvetica,sans-Serif" font-size="11.00" fill="#000000">version</text>
<polygon fill="none" stroke="#000000" points="1293,-345.2 1293,-367.2 1392,-367.2 1392,-345.2 1293,-345.2"/>
<text text-anchor="start" x="1296" y="-352.9" font-family="Helvetica,sans-Serif" font-size="11.00" fill="#000000">int4[10]</text>
<polygon fill="#ffffff" stroke="transparent" points="1062,-323.2 1062,-345.2 1293,-345.2 1293,-323.2 1062,-323.2"/>
<polygon fill="none" stroke="#000000" points="1062,-323.2 1062,-345.2 1293,-345.2 1293,-323.2 1062,-323.2"/>
<text text-anchor="start" x="1082" y="-330.3" font-family="Helvetica,sans-Serif" font-size="11.00" fill="#000000">person_identifier</text>
<polygon fill="none" stroke="#000000" points="1293,-323.2 1293,-345.2 1392,-345.2 1392,-323.2 1293,-323.2"/>
<text text-anchor="start" x="1296" y="-330.9" font-family="Helvetica,sans-Serif" font-size="11.00" fill="#000000">varchar[10]</text>
<polygon fill="none" stroke="#000000" points="1062,-301.2 1062,-323.2 1293,-323.2 1293,-301.2 1062,-301.2"/>
<image xlink:href="../../images/foreignKeys.png" width="11px" height="12px" preserveAspectRatio="xMinYMin meet" x="1067" y="-318.2"/>
<text text-anchor="start" x="1082" y="-308.3" font-family="Helvetica,sans-Serif" font-size="11.00" fill="#000000">occurrence_id</text>
<polygon fill="none" stroke="#000000" points="1293,-301.2 1293,-323.2 1392,-323.2 1392,-301.2 1293,-301.2"/>
<text text-anchor="start" x="1296" y="-308.9" font-family="Helvetica,sans-Serif" font-size="11.00" fill="#000000">uuid[2147483647]</text>
<polygon fill="#ffffff" stroke="transparent" points="1062,-279.2 1062,-301.2 1293,-301.2 1293,-279.2 1062,-279.2"/>
<polygon fill="none" stroke="#000000" points="1062,-279.2 1062,-301.2 1293,-301.2 1293,-279.2 1062,-279.2"/>
<text text-anchor="start" x="1082" y="-286.3" font-family="Helvetica,sans-Serif" font-size="11.00" fill="#000000">occurred_at</text>
<polygon fill="none" stroke="#000000" points="1293,-279.2 1293,-301.2 1392,-301.2 1392,-279.2 1293,-279.2"/>
<text text-anchor="start" x="1296" y="-286.9" font-family="Helvetica,sans-Serif" font-size="11.00" fill="#000000">timestamp[29,6]</text>
<polygon fill="none" stroke="#000000" points="1062,-257.2 1062,-279.2 1293,-279.2 1293,-257.2 1062,-257.2"/>
<text text-anchor="start" x="1082" y="-264.3" font-family="Helvetica,sans-Serif" font-size="11.00" fill="#000000">direction</text>
<polygon fill="none" stroke="#000000" points="1293,-257.2 1293,-279.2 1392,-279.2 1392,-257.2 1293,-257.2"/>
<text text-anchor="start" x="1296" y="-264.9" font-family="Helvetica,sans-Serif" font-size="11.00" fill="#000000">varchar[3]</text>
<polygon fill="none" stroke="#000000" points="1062,-235.2 1062,-257.2 1293,-257.2 1293,-235.2 1062,-235.2"/>
<image xlink:href="../../images/foreignKeys.png" width="11px" height="12px" preserveAspectRatio="xMinYMin meet" x="1067" y="-252.2"/>
<text text-anchor="start" x="1082" y="-242.3" font-family="Helvetica,sans-Serif" font-size="11.00" fill="#000000">absence_reason_id</text>
<polygon fill="none" stroke="#000000" points="1293,-235.2 1293,-257.2 1392,-257.2 1392,-235.2 1293,-235.2"/>
<text text-anchor="start" x="1296" y="-242.9" font-family="Helvetica,sans-Serif" font-size="11.00" fill="#000000">int8[19]</text>
<polygon fill="none" stroke="#000000" points="1062,-213.2 1062,-235.2 1293,-235.2 1293,-213.2 1062,-213.2"/>
<image xlink:href="../../images/foreignKeys.png" width="11px" height="12px" preserveAspectRatio="xMinYMin meet" x="1067" y="-230.2"/>
<text text-anchor="start" x="1082" y="-220.3" font-family="Helvetica,sans-Serif" font-size="11.00" fill="#000000">accompanied_by_id</text>
<polygon fill="none" stroke="#000000" points="1293,-213.2 1293,-235.2 1392,-235.2 1392,-213.2 1293,-213.2"/>
<text text-anchor="start" x="1296" y="-220.9" font-family="Helvetica,sans-Serif" font-size="11.00" fill="#000000">int8[19]</text>
<polygon fill="none" stroke="#000000" points="1062,-191.2 1062,-213.2 1293,-213.2 1293,-191.2 1062,-191.2"/>
<text text-anchor="start" x="1082" y="-198.3" font-family="Helvetica,sans-Serif" font-size="11.00" fill="#000000">accompanied_by_notes</text>
<polygon fill="none" stroke="#000000" points="1293,-191.2 1293,-213.2 1392,-213.2 1392,-191.2 1293,-191.2"/>
<text text-anchor="start" x="1296" y="-198.9" font-family="Helvetica,sans-Serif" font-size="11.00" fill="#000000">text[2147483647]</text>
<polygon fill="none" stroke="#000000" points="1062,-169.2 1062,-191.2 1293,-191.2 1293,-169.2 1062,-169.2"/>
<text text-anchor="start" x="1082" y="-176.3" font-family="Helvetica,sans-Serif" font-size="11.00" fill="#000000">notes</text>
<polygon fill="none" stroke="#000000" points="1293,-169.2 1293,-191.2 1392,-191.2 1392,-169.2 1293,-169.2"/>
<text text-anchor="start" x="1296" y="-176.9" font-family="Helvetica,sans-Serif" font-size="11.00" fill="#000000">text[2147483647]</text>
<polygon fill="none" stroke="#000000" points="1062,-147.2 1062,-169.2 1293,-169.2 1293,-147.2 1062,-147.2"/>
<text text-anchor="start" x="1082" y="-154.3" font-family="Helvetica,sans-Serif" font-size="11.00" fill="#000000">recorded_at</text>
<polygon fill="none" stroke="#000000" points="1293,-147.2 1293,-169.2 1392,-169.2 1392,-147.2 1293,-147.2"/>
<text text-anchor="start" x="1296" y="-154.9" font-family="Helvetica,sans-Serif" font-size="11.00" fill="#000000">timestamp[29,6]</text>
<polygon fill="none" stroke="#000000" points="1062,-125.2 1062,-147.2 1293,-147.2 1293,-125.2 1062,-125.2"/>
<text text-anchor="start" x="1082" y="-132.3" font-family="Helvetica,sans-Serif" font-size="11.00" fill="#000000">recorded_by</text>
<polygon fill="none" stroke="#000000" points="1293,-125.2 1293,-147.2 1392,-147.2 1392,-125.2 1293,-125.2"/>
<text text-anchor="start" x="1296" y="-132.9" font-family="Helvetica,sans-Serif" font-size="11.00" fill="#000000">varchar[64]</text>
<polygon fill="none" stroke="#000000" points="1062,-103.2 1062,-125.2 1293,-125.2 1293,-103.2 1062,-103.2"/>
<text text-anchor="start" x="1082" y="-110.3" font-family="Helvetica,sans-Serif" font-size="11.00" fill="#000000">recorded_by_prison_code</text>
<polygon fill="none" stroke="#000000" points="1293,-103.2 1293,-125.2 1392,-125.2 1392,-103.2 1293,-103.2"/>
<text text-anchor="start" x="1296" y="-110.9" font-family="Helvetica,sans-Serif" font-size="11.00" fill="#000000">varchar[6]</text>
<polygon fill="#ffffff" stroke="transparent" points="1062,-81.2 1062,-103.2 1293,-103.2 1293,-81.2 1062,-81.2"/>
<polygon fill="none" stroke="#000000" points="1062,-81.2 1062,-103.2 1293,-103.2 1293,-81.2 1062,-81.2"/>
<text text-anchor="start" x="1082" y="-88.3" font-family="Helvetica,sans-Serif" font-size="11.00" fill="#000000">legacy_id</text>
<polygon fill="none" stroke="#000000" points="1293,-81.2 1293,-103.2 1392,-103.2 1392,-81.2 1293,-81.2"/>
<text text-anchor="start" x="1296" y="-88.9" font-family="Helvetica,sans-Serif" font-size="11.00" fill="#000000">varchar[32]</text>
<polygon fill="none" stroke="#000000" points="1062,-59.2 1062,-81.2 1293,-81.2 1293,-59.2 1062,-59.2"/>
<text text-anchor="start" x="1082" y="-66.3" font-family="Helvetica,sans-Serif" font-size="11.00" fill="#000000">location</text>
<polygon fill="none" stroke="#000000" points="1293,-59.2 1293,-81.2 1392,-81.2 1392,-59.2 1293,-59.2"/>
<text text-anchor="start" x="1295.7258" y="-66.9" font-family="Helvetica,sans-Serif" font-size="11.00" fill="#000000">jsonb[2147483647]</text>
<polygon fill="#ffffff" stroke="transparent" points="1062,-40.2 1062,-59.2 1182,-59.2 1182,-40.2 1062,-40.2"/>
<polygon fill="none" stroke="#000000" points="1062,-40.2 1062,-59.2 1182,-59.2 1182,-40.2 1062,-40.2"/>
<text text-anchor="start" x="1065" y="-46.3" font-family="Helvetica,sans-Serif" font-size="11.00" fill="#000000">&lt; 3</text>
<polygon fill="#ffffff" stroke="transparent" points="1182,-40.2 1182,-59.2 1293,-59.2 1293,-40.2 1182,-40.2"/>
<polygon fill="none" stroke="#000000" points="1182,-40.2 1182,-59.2 1293,-59.2 1293,-40.2 1182,-40.2"/>
<text text-anchor="start" x="1283.8862" y="-46.3" font-family="Helvetica,sans-Serif" font-size="11.00" fill="#000000"> &#160;</text>
<polygon fill="#ffffff" stroke="transparent" points="1293,-40.2 1293,-59.2 1392,-59.2 1392,-40.2 1293,-40.2"/>
<polygon fill="none" stroke="#000000" points="1293,-40.2 1293,-59.2 1392,-59.2 1392,-40.2 1293,-40.2"/>
<text text-anchor="start" x="1373.4053" y="-46.3" font-family="Helvetica,sans-Serif" font-size="11.00" fill="#000000">0 &gt;</text>
<polygon fill="none" stroke="#000000" stroke-width="2" points="1061,-39.2 1061,-413.2 1393,-413.2 1393,-39.2 1061,-39.2"/>
</a>
</g>
</g>
<!-- temporary_absence_movement&#45;&gt;reference_data -->
<g id="edge12" class="edge">
<title>temporary_absence_movement:w&#45;&gt;reference_data:e</title>
<path fill="none" stroke="#000000" d="M1047.3772,-246.057C898.6403,-243.334 556.3616,-203.2737 434,-260.2 393.1622,-279.199 361.1873,-321.1587 342.2518,-351.4448"/>
<polygon fill="#000000" stroke="#000000" points="1054.0004,-246.1217 1061.9648,-249.7998 1058.0002,-246.1609 1062,-246.2 1062,-246.2 1062,-246.2 1058.0002,-246.1609 1062.0352,-242.6002 1054.0004,-246.1217 1054.0004,-246.1217"/>
<ellipse fill="none" stroke="#000000" cx="1050.8005" cy="-246.0904" rx="3.2" ry="3.2"/>
</g>
<!-- temporary_absence_movement&#45;&gt;reference_data -->
<g id="edge13" class="edge">
<title>temporary_absence_movement:w&#45;&gt;reference_data:e</title>
<path fill="none" stroke="#000000" d="M1047.4435,-224.0879C779.2655,-219.9491 677.1076,-103.3384 434,-230.2 385.0821,-255.727 352.9323,-313.7422 336.373,-351.379"/>
<polygon fill="#000000" stroke="#000000" points="1054.0002,-224.1383 1061.9723,-227.7999 1058.0001,-224.1692 1062,-224.2 1062,-224.2 1062,-224.2 1058.0001,-224.1692 1062.0277,-220.6001 1054.0002,-224.1383 1054.0002,-224.1383"/>
<ellipse fill="none" stroke="#000000" cx="1050.8003" cy="-224.1137" rx="3.2" ry="3.2"/>
</g>
<!-- temporary_absence_occurrence -->
<g id="node7" class="node">
<title>temporary_absence_occurrence</title>
<g id="a_node7"><a xlink:href="../../tables/temporary_absence_occurrence.html" xlink:title="temporary_absence_occurrence" target="_top">
<polygon fill="#ffffff" stroke="transparent" points="759,-355.7 759,-416.7 1011,-416.7 1011,-355.7 759,-355.7"/>
<polygon fill="#f5f5f5" stroke="transparent" points="759,-393.2 759,-416.2 1011,-416.2 1011,-393.2 759,-393.2"/>
<polygon fill="none" stroke="#000000" points="759,-393.2 759,-416.2 1011,-416.2 1011,-393.2 759,-393.2"/>
<text text-anchor="start" x="764" y="-401.8" font-family="Helvetica,sans-Serif" font-weight="bold" font-size="11.00" fill="#000000">temporary_absence_occurrence</text>
<text text-anchor="start" x="976.5219" y="-401.3" font-family="Helvetica,sans-Serif" font-size="11.00" fill="#000000">[table]</text>
<polygon fill="none" stroke="#000000" points="759,-374.2 759,-393.2 1011,-393.2 1011,-374.2 759,-374.2"/>
<text text-anchor="start" x="762" y="-380.3" font-family="Helvetica,sans-Serif" font-size="11.00" fill="#000000">...</text>
<polygon fill="#ffffff" stroke="transparent" points="759,-355.2 759,-374.2 879,-374.2 879,-355.2 759,-355.2"/>
<polygon fill="none" stroke="#000000" points="759,-355.2 759,-374.2 879,-374.2 879,-355.2 759,-355.2"/>
<text text-anchor="start" x="762" y="-361.3" font-family="Helvetica,sans-Serif" font-size="11.00" fill="#000000">&lt; 7</text>
<polygon fill="#ffffff" stroke="transparent" points="879,-355.2 879,-374.2 940,-374.2 940,-355.2 879,-355.2"/>
<polygon fill="none" stroke="#000000" points="879,-355.2 879,-374.2 940,-374.2 940,-355.2 879,-355.2"/>
<text text-anchor="start" x="930.8862" y="-361.3" font-family="Helvetica,sans-Serif" font-size="11.00" fill="#000000"> &#160;</text>
<polygon fill="#ffffff" stroke="transparent" points="940,-355.2 940,-374.2 1011,-374.2 1011,-355.2 940,-355.2"/>
<polygon fill="none" stroke="#000000" points="940,-355.2 940,-374.2 1011,-374.2 1011,-355.2 940,-355.2"/>
<text text-anchor="start" x="992.4053" y="-361.3" font-family="Helvetica,sans-Serif" font-size="11.00" fill="#000000">1 &gt;</text>
</a>
</g>
</g>
<!-- temporary_absence_movement&#45;&gt;temporary_absence_occurrence -->
<g id="edge14" class="edge">
<title>temporary_absence_movement:w&#45;&gt;temporary_absence_occurrence:e</title>
<path fill="none" stroke="#000000" d="M1047.3652,-312.8948C1007.5697,-316.5918 967.5869,-334.4305 937.2554,-351.5833"/>
<polygon fill="#000000" stroke="#000000" points="1054.009,-312.5794 1062.1707,-315.796 1058.0045,-312.3897 1062,-312.2 1062,-312.2 1062,-312.2 1058.0045,-312.3897 1061.8293,-308.604 1054.009,-312.5794 1054.009,-312.5794"/>
<ellipse fill="none" stroke="#000000" cx="1050.8126" cy="-312.7312" rx="3.2" ry="3.2"/>
</g>
<!-- temporary_absence_occurrence&#45;&gt;reference_data -->
<g id="edge15" class="edge">
<title>temporary_absence_occurrence:w&#45;&gt;reference_data:e</title>
<path fill="none" stroke="#000000" d="M736.1319,-364.7337C628.5667,-360.2839 487.5558,-361.6953 401.2083,-368.968"/>
<polygon fill="#000000" stroke="#000000" points="742.7521,-365.0284 750.584,-368.9808 746.7481,-365.2064 750.7441,-365.3844 750.7441,-365.3844 750.7441,-365.3844 746.7481,-365.2064 750.9043,-361.788 742.7521,-365.0284 742.7521,-365.0284"/>
<ellipse fill="none" stroke="#000000" cx="739.5552" cy="-364.886" rx="3.2" ry="3.2"/>
</g>
<!-- temporary_absence_occurrence&#45;&gt;reference_data -->
<g id="edge16" class="edge">
<title>temporary_absence_occurrence:w&#45;&gt;reference_data:e</title>
<path fill="none" stroke="#000000" d="M736.1319,-373.4544C628.5667,-370.8123 487.5558,-371.6504 401.2083,-375.9685"/>
<polygon fill="#000000" stroke="#000000" points="742.7469,-373.6292 750.649,-377.4395 746.7455,-373.735 750.7441,-373.8407 750.7441,-373.8407 750.7441,-373.8407 746.7455,-373.735 750.8393,-370.242 742.7469,-373.6292 742.7469,-373.6292"/>
<ellipse fill="none" stroke="#000000" cx="739.5481" cy="-373.5446" rx="3.2" ry="3.2"/>
</g>
<!-- temporary_absence_occurrence&#45;&gt;reference_data -->
<g id="edge17" class="edge">
<title>temporary_absence_occurrence:w&#45;&gt;reference_data:e</title>
<path fill="none" stroke="#000000" d="M736.1319,-382.1751C628.5667,-381.3407 487.5558,-381.6054 401.2083,-382.969"/>
<polygon fill="#000000" stroke="#000000" points="742.7444,-382.2302 750.7141,-385.897 746.7443,-382.2636 750.7441,-382.2971 750.7441,-382.2971 750.7441,-382.2971 746.7443,-382.2636 750.7742,-378.6972 742.7444,-382.2302 742.7444,-382.2302"/>
<ellipse fill="none" stroke="#000000" cx="739.5445" cy="-382.2035" rx="3.2" ry="3.2"/>
</g>
<!-- temporary_absence_occurrence&#45;&gt;reference_data -->
<g id="edge18" class="edge">
<title>temporary_absence_occurrence:w&#45;&gt;reference_data:e</title>
<path fill="none" stroke="#000000" d="M736.1319,-390.8958C628.5667,-391.8691 487.5558,-391.5604 401.2083,-389.9695"/>
<polygon fill="#000000" stroke="#000000" points="742.7445,-390.8314 750.7792,-394.3532 746.7443,-390.7924 750.7441,-390.7534 750.7441,-390.7534 750.7441,-390.7534 746.7443,-390.7924 750.7091,-387.1536 742.7445,-390.8314 742.7445,-390.8314"/>
<ellipse fill="none" stroke="#000000" cx="739.5447" cy="-390.8626" rx="3.2" ry="3.2"/>
</g>
<!-- temporary_absence_occurrence&#45;&gt;reference_data -->
<g id="edge19" class="edge">
<title>temporary_absence_occurrence:w&#45;&gt;reference_data:e</title>
<path fill="none" stroke="#000000" d="M736.1319,-399.6165C628.5667,-402.3976 487.5558,-401.5154 401.2083,-396.97"/>
<polygon fill="#000000" stroke="#000000" points="742.7472,-399.4324 750.8443,-402.8083 746.7457,-399.3211 750.7441,-399.2097 750.7441,-399.2097 750.7441,-399.2097 746.7457,-399.3211 750.644,-395.6111 742.7472,-399.4324 742.7472,-399.4324"/>
<ellipse fill="none" stroke="#000000" cx="739.5485" cy="-399.5214" rx="3.2" ry="3.2"/>
</g>
<!-- temporary_absence_occurrence&#45;&gt;reference_data -->
<g id="edge21" class="edge">
<title>temporary_absence_occurrence:w&#45;&gt;reference_data:e</title>
<path fill="none" stroke="#000000" d="M736.1319,-408.3372C628.5667,-412.926 487.5558,-411.4704 401.2083,-403.9705"/>
<polygon fill="#000000" stroke="#000000" points="742.7526,-408.0332 750.9093,-411.2623 746.7484,-407.8496 750.7441,-407.6661 750.7441,-407.6661 750.7441,-407.6661 746.7484,-407.8496 750.579,-404.0699 742.7526,-408.0332 742.7526,-408.0332"/>
<ellipse fill="none" stroke="#000000" cx="739.5559" cy="-408.18" rx="3.2" ry="3.2"/>
</g>
<!-- temporary_absence_occurrence&#45;&gt;temporary_absence_authorisation -->
<g id="edge20" class="edge">
<title>temporary_absence_occurrence:w&#45;&gt;temporary_absence_authorisation:e</title>
<path fill="none" stroke="#000000" d="M831.6064,-343.1818C798.5807,-320.8595 754.1765,-298.2 710,-298.2"/>
<polygon fill="#000000" stroke="#000000" points="837.1382,-347.0713 841.6118,-354.6176 840.4103,-349.372 843.6825,-351.6726 843.6825,-351.6726 843.6825,-351.6726 840.4103,-349.372 845.7531,-348.7277 837.1382,-347.0713 837.1382,-347.0713"/>
<ellipse fill="none" stroke="#000000" cx="834.5204" cy="-345.2307" rx="3.2" ry="3.2"/>
</g>
</g>
</svg>
