<?xml version="1.0" encoding="UTF-8" standalone="no"?>
<!DOCTYPE svg PUBLIC "-//W3C//DTD SVG 1.1//EN"
 "http://www.w3.org/Graphics/SVG/1.1/DTD/svg11.dtd">
<!-- Generated by graphviz version 2.40.1 (20161225.0304)
 -->
<!-- Title: oneDegreeRelationshipsDiagram Pages: 1 -->
<svg width="585pt" height="492pt"
 viewBox="0.00 0.00 585.00 492.20" xmlns="http://www.w3.org/2000/svg" xmlns:xlink="http://www.w3.org/1999/xlink">
<g id="graph0" class="graph" transform="scale(1 1) rotate(0) translate(4 488.2)">
<title>oneDegreeRelationshipsDiagram</title>
<polygon fill="#ffffff" stroke="transparent" points="-4,4 -4,-488.2 581,-488.2 581,4 -4,4"/>
<text text-anchor="middle" x="72.4936" y="-7.3" font-family="Helvetica,sans-Serif" font-size="11.00" fill="#000000">Generated by SchemaSpy</text>
<!-- temporary_absence_occurrence_audit -->
<g id="node1" class="node">
<title>temporary_absence_occurrence_audit</title>
<g id="a_node1"><a xlink:href="../../tables/temporary_absence_occurrence_audit.html" xlink:title="temporary_absence_occurrence_audit" target="_top">
<polygon fill="#ffffff" stroke="transparent" points="191,-38.2 191,-480.2 569,-480.2 569,-38.2 191,-38.2"/>
<polygon fill="#f5f5f5" stroke="transparent" points="193,-455.2 193,-478.2 567,-478.2 567,-455.2 193,-455.2"/>
<polygon fill="none" stroke="#000000" points="193,-455.2 193,-478.2 567,-478.2 567,-455.2 193,-455.2"/>
<text text-anchor="start" x="198" y="-463.8" font-family="Helvetica,sans-Serif" font-weight="bold" font-size="11.00" fill="#000000">temporary_absence_occurrence_audit</text>
<text text-anchor="start" x="532.0437" y="-463.3" font-family="Helvetica,sans-Serif" font-size="11.00" fill="#000000">[table]</text>
<polygon fill="none" stroke="#000000" points="193,-433.2 193,-455.2 468,-455.2 468,-433.2 193,-433.2"/>
<image xlink:href="../../images/primaryKeys.png" width="11px" height="12px" preserveAspectRatio="xMinYMin meet" x="198" y="-450.2"/>
<text text-anchor="start" x="213" y="-440.3" font-family="Helvetica,sans-Serif" font-size="11.00" fill="#000000">rev_id</text>
<polygon fill="none" stroke="#000000" points="468,-433.2 468,-455.2 567,-455.2 567,-433.2 468,-433.2"/>
<text text-anchor="start" x="471" y="-440.9" font-family="Helvetica,sans-Serif" font-size="11.00" fill="#000000">int8[19]</text>
<polygon fill="none" stroke="#000000" points="193,-411.2 193,-433.2 468,-433.2 468,-411.2 193,-411.2"/>
<text text-anchor="start" x="213" y="-418.3" font-family="Helvetica,sans-Serif" font-size="11.00" fill="#000000">rev_type</text>
<polygon fill="none" stroke="#000000" points="468,-411.2 468,-433.2 567,-433.2 567,-411.2 468,-411.2"/>
<text text-anchor="start" x="471" y="-418.9" font-family="Helvetica,sans-Serif" font-size="11.00" fill="#000000">int2[5]</text>
<polygon fill="none" stroke="#000000" points="193,-389.2 193,-411.2 468,-411.2 468,-389.2 193,-389.2"/>
<image xlink:href="../../images/primaryKeys.png" width="11px" height="12px" preserveAspectRatio="xMinYMin meet" x="198" y="-406.2"/>
<text text-anchor="start" x="213" y="-396.3" font-family="Helvetica,sans-Serif" font-size="11.00" fill="#000000">id</text>
<polygon fill="none" stroke="#000000" points="468,-389.2 468,-411.2 567,-411.2 567,-389.2 468,-389.2"/>
<text text-anchor="start" x="471" y="-396.9" font-family="Helvetica,sans-Serif" font-size="11.00" fill="#000000">uuid[2147483647]</text>
<polygon fill="none" stroke="#000000" points="193,-367.2 193,-389.2 468,-389.2 468,-367.2 193,-367.2"/>
<text text-anchor="start" x="213" y="-374.3" font-family="Helvetica,sans-Serif" font-size="11.00" fill="#000000">person_identifier</text>
<polygon fill="none" stroke="#000000" points="468,-367.2 468,-389.2 567,-389.2 567,-367.2 468,-367.2"/>
<text text-anchor="start" x="471" y="-374.9" font-family="Helvetica,sans-Serif" font-size="11.00" fill="#000000">varchar[10]</text>
<polygon fill="none" stroke="#000000" points="193,-345.2 193,-367.2 468,-367.2 468,-345.2 193,-345.2"/>
<text text-anchor="start" x="213" y="-352.3" font-family="Helvetica,sans-Serif" font-size="11.00" fill="#000000">authorisation_id</text>
<polygon fill="none" stroke="#000000" points="468,-345.2 468,-367.2 567,-367.2 567,-345.2 468,-345.2"/>
<text text-anchor="start" x="471" y="-352.9" font-family="Helvetica,sans-Serif" font-size="11.00" fill="#000000">uuid[2147483647]</text>
<polygon fill="none" stroke="#000000" points="193,-323.2 193,-345.2 468,-345.2 468,-323.2 193,-323.2"/>
<text text-anchor="start" x="213" y="-330.3" font-family="Helvetica,sans-Serif" font-size="11.00" fill="#000000">release_at</text>
<polygon fill="none" stroke="#000000" points="468,-323.2 468,-345.2 567,-345.2 567,-323.2 468,-323.2"/>
<text text-anchor="start" x="471" y="-330.9" font-family="Helvetica,sans-Serif" font-size="11.00" fill="#000000">timestamp[29,6]</text>
<polygon fill="none" stroke="#000000" points="193,-301.2 193,-323.2 468,-323.2 468,-301.2 193,-301.2"/>
<text text-anchor="start" x="213" y="-308.3" font-family="Helvetica,sans-Serif" font-size="11.00" fill="#000000">return_by</text>
<polygon fill="none" stroke="#000000" points="468,-301.2 468,-323.2 567,-323.2 567,-301.2 468,-301.2"/>
<text text-anchor="start" x="471" y="-308.9" font-family="Helvetica,sans-Serif" font-size="11.00" fill="#000000">timestamp[29,6]</text>
<polygon fill="none" stroke="#000000" points="193,-279.2 193,-301.2 468,-301.2 468,-279.2 193,-279.2"/>
<text text-anchor="start" x="213" y="-286.3" font-family="Helvetica,sans-Serif" font-size="11.00" fill="#000000">accompanied_by_id</text>
<polygon fill="none" stroke="#000000" points="468,-279.2 468,-301.2 567,-301.2 567,-279.2 468,-279.2"/>
<text text-anchor="start" x="471" y="-286.9" font-family="Helvetica,sans-Serif" font-size="11.00" fill="#000000">int8[19]</text>
<polygon fill="none" stroke="#000000" points="193,-257.2 193,-279.2 468,-279.2 468,-257.2 193,-257.2"/>
<text text-anchor="start" x="213" y="-264.3" font-family="Helvetica,sans-Serif" font-size="11.00" fill="#000000">transport_id</text>
<polygon fill="none" stroke="#000000" points="468,-257.2 468,-279.2 567,-279.2 567,-257.2 468,-257.2"/>
<text text-anchor="start" x="471" y="-264.9" font-family="Helvetica,sans-Serif" font-size="11.00" fill="#000000">int8[19]</text>
<polygon fill="none" stroke="#000000" points="193,-235.2 193,-257.2 468,-257.2 468,-235.2 193,-235.2"/>
<text text-anchor="start" x="213" y="-242.3" font-family="Helvetica,sans-Serif" font-size="11.00" fill="#000000">contact_information</text>
<polygon fill="none" stroke="#000000" points="468,-235.2 468,-257.2 567,-257.2 567,-235.2 468,-235.2"/>
<text text-anchor="start" x="471" y="-242.9" font-family="Helvetica,sans-Serif" font-size="11.00" fill="#000000">text[2147483647]</text>
<polygon fill="none" stroke="#000000" points="193,-213.2 193,-235.2 468,-235.2 468,-213.2 193,-213.2"/>
<text text-anchor="start" x="213" y="-220.3" font-family="Helvetica,sans-Serif" font-size="11.00" fill="#000000">notes</text>
<polygon fill="none" stroke="#000000" points="468,-213.2 468,-235.2 567,-235.2 567,-213.2 468,-213.2"/>
<text text-anchor="start" x="471" y="-220.9" font-family="Helvetica,sans-Serif" font-size="11.00" fill="#000000">text[2147483647]</text>
<polygon fill="none" stroke="#000000" points="193,-191.2 193,-213.2 468,-213.2 468,-191.2 193,-191.2"/>
<text text-anchor="start" x="213" y="-198.3" font-family="Helvetica,sans-Serif" font-size="11.00" fill="#000000">added_at</text>
<polygon fill="none" stroke="#000000" points="468,-191.2 468,-213.2 567,-213.2 567,-191.2 468,-191.2"/>
<text text-anchor="start" x="471" y="-198.9" font-family="Helvetica,sans-Serif" font-size="11.00" fill="#000000">timestamp[29,6]</text>
<polygon fill="none" stroke="#000000" points="193,-169.2 193,-191.2 468,-191.2 468,-169.2 193,-169.2"/>
<text text-anchor="start" x="213" y="-176.3" font-family="Helvetica,sans-Serif" font-size="11.00" fill="#000000">added_by</text>
<polygon fill="none" stroke="#000000" points="468,-169.2 468,-191.2 567,-191.2 567,-169.2 468,-169.2"/>
<text text-anchor="start" x="471" y="-176.9" font-family="Helvetica,sans-Serif" font-size="11.00" fill="#000000">varchar[64]</text>
<polygon fill="none" stroke="#000000" points="193,-147.2 193,-169.2 468,-169.2 468,-147.2 193,-147.2"/>
<text text-anchor="start" x="213" y="-154.3" font-family="Helvetica,sans-Serif" font-size="11.00" fill="#000000">cancelled_at</text>
<polygon fill="none" stroke="#000000" points="468,-147.2 468,-169.2 567,-169.2 567,-147.2 468,-147.2"/>
<text text-anchor="start" x="471" y="-154.9" font-family="Helvetica,sans-Serif" font-size="11.00" fill="#000000">timestamp[29,6]</text>
<polygon fill="none" stroke="#000000" points="193,-125.2 193,-147.2 468,-147.2 468,-125.2 193,-125.2"/>
<text text-anchor="start" x="213" y="-132.3" font-family="Helvetica,sans-Serif" font-size="11.00" fill="#000000">cancelled_by</text>
<polygon fill="none" stroke="#000000" points="468,-125.2 468,-147.2 567,-147.2 567,-125.2 468,-125.2"/>
<text text-anchor="start" x="471" y="-132.9" font-family="Helvetica,sans-Serif" font-size="11.00" fill="#000000">varchar[64]</text>
<polygon fill="none" stroke="#000000" points="193,-103.2 193,-125.2 468,-125.2 468,-103.2 193,-103.2"/>
<text text-anchor="start" x="213" y="-110.3" font-family="Helvetica,sans-Serif" font-size="11.00" fill="#000000">legacy_id</text>
<polygon fill="none" stroke="#000000" points="468,-103.2 468,-125.2 567,-125.2 567,-103.2 468,-103.2"/>
<text text-anchor="start" x="471" y="-110.9" font-family="Helvetica,sans-Serif" font-size="11.00" fill="#000000">int8[19]</text>
<polygon fill="none" stroke="#000000" points="193,-81.2 193,-103.2 468,-103.2 468,-81.2 193,-81.2"/>
<text text-anchor="start" x="213" y="-88.3" font-family="Helvetica,sans-Serif" font-size="11.00" fill="#000000">location</text>
<polygon fill="none" stroke="#000000" points="468,-81.2 468,-103.2 567,-103.2 567,-81.2 468,-81.2"/>
<text text-anchor="start" x="470.7258" y="-88.9" font-family="Helvetica,sans-Serif" font-size="11.00" fill="#000000">jsonb[2147483647]</text>
<polygon fill="none" stroke="#000000" points="193,-59.2 193,-81.2 468,-81.2 468,-59.2 193,-59.2"/>
<text text-anchor="start" x="213" y="-66.3" font-family="Helvetica,sans-Serif" font-size="11.00" fill="#000000">schedule_reference</text>
<polygon fill="none" stroke="#000000" points="468,-59.2 468,-81.2 567,-81.2 567,-59.2 468,-59.2"/>
<text text-anchor="start" x="470.7258" y="-66.9" font-family="Helvetica,sans-Serif" font-size="11.00" fill="#000000">jsonb[2147483647]</text>
<polygon fill="#ffffff" stroke="transparent" points="193,-40.2 193,-59.2 335,-59.2 335,-40.2 193,-40.2"/>
<polygon fill="none" stroke="#000000" points="193,-40.2 193,-59.2 335,-59.2 335,-40.2 193,-40.2"/>
<text text-anchor="start" x="196" y="-46.3" font-family="Helvetica,sans-Serif" font-size="11.00" fill="#000000">&lt; 1</text>
<polygon fill="#ffffff" stroke="transparent" points="335,-40.2 335,-59.2 468,-59.2 468,-40.2 335,-40.2"/>
<polygon fill="none" stroke="#000000" points="335,-40.2 335,-59.2 468,-59.2 468,-40.2 335,-40.2"/>
<text text-anchor="start" x="458.8862" y="-46.3" font-family="Helvetica,sans-Serif" font-size="11.00" fill="#000000"> &#160;</text>
<polygon fill="#ffffff" stroke="transparent" points="468,-40.2 468,-59.2 567,-59.2 567,-40.2 468,-40.2"/>
<polygon fill="none" stroke="#000000" points="468,-40.2 468,-59.2 567,-59.2 567,-40.2 468,-40.2"/>
<text text-anchor="start" x="548.4053" y="-46.3" font-family="Helvetica,sans-Serif" font-size="11.00" fill="#000000">0 &gt;</text>
<polygon fill="none" stroke="#000000" stroke-width="2" points="192,-39.2 192,-479.2 568,-479.2 568,-39.2 192,-39.2"/>
</a>
</g>
</g>
<!-- audit_revision -->
<g id="node2" class="node">
<title>audit_revision</title>
<g id="a_node2"><a xlink:href="../../tables/audit_revision.html" xlink:title="audit_revision" target="_top">
<polygon fill="#ffffff" stroke="transparent" points="8,-395.7 8,-478.7 142,-478.7 142,-395.7 8,-395.7"/>
<polygon fill="#f5f5f5" stroke="transparent" points="8,-455.2 8,-478.2 142,-478.2 142,-455.2 8,-455.2"/>
<polygon fill="none" stroke="#000000" points="8,-455.2 8,-478.2 142,-478.2 142,-455.2 8,-455.2"/>
<text text-anchor="start" x="13" y="-463.8" font-family="Helvetica,sans-Serif" font-weight="bold" font-size="11.00" fill="#000000">audit_revision</text>
<text text-anchor="start" x="107.5219" y="-463.3" font-family="Helvetica,sans-Serif" font-size="11.00" fill="#000000">[table]</text>
<polygon fill="none" stroke="#000000" points="8,-433.2 8,-455.2 142,-455.2 142,-433.2 8,-433.2"/>
<image xlink:href="../../images/primaryKeys.png" width="11px" height="12px" preserveAspectRatio="xMinYMin meet" x="13" y="-450.2"/>
<text text-anchor="start" x="28" y="-440.3" font-family="Helvetica,sans-Serif" font-size="11.00" fill="#000000">id</text>
<polygon fill="none" stroke="#000000" points="8,-414.2 8,-433.2 142,-433.2 142,-414.2 8,-414.2"/>
<text text-anchor="start" x="11" y="-420.3" font-family="Helvetica,sans-Serif" font-size="11.00" fill="#000000">...</text>
<polygon fill="#ffffff" stroke="transparent" points="8,-395.2 8,-414.2 64,-414.2 64,-395.2 8,-395.2"/>
<polygon fill="none" stroke="#000000" points="8,-395.2 8,-414.2 64,-414.2 64,-395.2 8,-395.2"/>
<text text-anchor="start" x="11" y="-401.3" font-family="Helvetica,sans-Serif" font-size="11.00" fill="#000000"> &#160;</text>
<polygon fill="#ffffff" stroke="transparent" points="64,-395.2 64,-414.2 98,-414.2 98,-395.2 64,-395.2"/>
<polygon fill="none" stroke="#000000" points="64,-395.2 64,-414.2 98,-414.2 98,-395.2 64,-395.2"/>
<text text-anchor="start" x="88.8862" y="-401.3" font-family="Helvetica,sans-Serif" font-size="11.00" fill="#000000"> &#160;</text>
<polygon fill="#ffffff" stroke="transparent" points="98,-395.2 98,-414.2 142,-414.2 142,-395.2 98,-395.2"/>
<polygon fill="none" stroke="#000000" points="98,-395.2 98,-414.2 142,-414.2 142,-395.2 98,-395.2"/>
<text text-anchor="start" x="123.4053" y="-401.3" font-family="Helvetica,sans-Serif" font-size="11.00" fill="#000000">3 &gt;</text>
</a>
</g>
</g>
<!-- temporary_absence_occurrence_audit&#45;&gt;audit_revision -->
<g id="edge1" class="edge">
<title>temporary_absence_occurrence_audit:w&#45;&gt;audit_revision:e</title>
<path fill="none" stroke="#000000" d="M178.276,-444.2C166.2815,-444.2 158.8229,-444.2 142,-444.2"/>
<polygon fill="#000000" stroke="#000000" points="185,-444.2001 193,-447.8 189,-444.2 193,-444.2 193,-444.2 193,-444.2 189,-444.2 193,-440.6 185,-444.2001 185,-444.2001"/>
<ellipse fill="none" stroke="#000000" cx="181.8" cy="-444.2001" rx="3.2" ry="3.2"/>
</g>
</g>
</svg>
