<?xml version="1.0" encoding="UTF-8" standalone="no"?>
<!DOCTYPE svg PUBLIC "-//W3C//DTD SVG 1.1//EN"
 "http://www.w3.org/Graphics/SVG/1.1/DTD/svg11.dtd">
<!-- Generated by graphviz version 2.40.1 (20161225.0304)
 -->
<!-- Title: twoDegreesRelationshipsDiagram Pages: 1 -->
<svg width="1410pt" height="843pt"
 viewBox="0.00 0.00 1410.00 843.39" xmlns="http://www.w3.org/2000/svg" xmlns:xlink="http://www.w3.org/1999/xlink">
<g id="graph0" class="graph" transform="scale(1 1) rotate(0) translate(4 839.3946)">
<title>twoDegreesRelationshipsDiagram</title>
<polygon fill="#ffffff" stroke="transparent" points="-4,4 -4,-839.3946 1406,-839.3946 1406,4 -4,4"/>
<text text-anchor="middle" x="72.4936" y="-7.3" font-family="Helvetica,sans-Serif" font-size="11.00" fill="#000000">Generated by SchemaSpy</text>
<!-- reference_data -->
<g id="node1" class="node">
<title>reference_data</title>
<g id="a_node1"><a xlink:href="../../tables/reference_data.html" xlink:title="reference_data" target="_top">
<polygon fill="#ffffff" stroke="transparent" points="253,-473.3946 253,-534.3946 393,-534.3946 393,-473.3946 253,-473.3946"/>
<polygon fill="#f5f5f5" stroke="transparent" points="253,-510.8946 253,-533.8946 393,-533.8946 393,-510.8946 253,-510.8946"/>
<polygon fill="none" stroke="#000000" points="253,-510.8946 253,-533.8946 393,-533.8946 393,-510.8946 253,-510.8946"/>
<text text-anchor="start" x="258" y="-519.4946" font-family="Helvetica,sans-Serif" font-weight="bold" font-size="11.00" fill="#000000">reference_data</text>
<text text-anchor="start" x="358.5219" y="-518.9946" font-family="Helvetica,sans-Serif" font-size="11.00" fill="#000000">[table]</text>
<polygon fill="none" stroke="#000000" points="253,-491.8946 253,-510.8946 393,-510.8946 393,-491.8946 253,-491.8946"/>
<text text-anchor="start" x="256" y="-497.9946" font-family="Helvetica,sans-Serif" font-size="11.00" fill="#000000">...</text>
<polygon fill="#ffffff" stroke="transparent" points="253,-472.8946 253,-491.8946 295,-491.8946 295,-472.8946 253,-472.8946"/>
<polygon fill="none" stroke="#000000" points="253,-472.8946 253,-491.8946 295,-491.8946 295,-472.8946 253,-472.8946"/>
<text text-anchor="start" x="256" y="-478.9946" font-family="Helvetica,sans-Serif" font-size="11.00" fill="#000000">&lt; 1</text>
<polygon fill="#ffffff" stroke="transparent" points="295,-472.8946 295,-491.8946 355,-491.8946 355,-472.8946 295,-472.8946"/>
<polygon fill="none" stroke="#000000" points="295,-472.8946 295,-491.8946 355,-491.8946 355,-472.8946 295,-472.8946"/>
<text text-anchor="start" x="307.3807" y="-478.9946" font-family="Helvetica,sans-Serif" font-size="11.00" fill="#000000">157 rows</text>
<polygon fill="#ffffff" stroke="transparent" points="355,-472.8946 355,-491.8946 393,-491.8946 393,-472.8946 355,-472.8946"/>
<polygon fill="none" stroke="#000000" points="355,-472.8946 355,-491.8946 393,-491.8946 393,-472.8946 355,-472.8946"/>
<text text-anchor="start" x="368.2904" y="-478.9946" font-family="Helvetica,sans-Serif" font-size="11.00" fill="#000000">12 &gt;</text>
</a>
</g>
</g>
<!-- reference_data_domain -->
<g id="node2" class="node">
<title>reference_data_domain</title>
<g id="a_node2"><a xlink:href="../../tables/reference_data_domain.html" xlink:title="reference_data_domain" target="_top">
<polygon fill="#ffffff" stroke="transparent" points="8,-563.3946 8,-624.3946 204,-624.3946 204,-563.3946 8,-563.3946"/>
<polygon fill="#f5f5f5" stroke="transparent" points="8,-600.8946 8,-623.8946 204,-623.8946 204,-600.8946 8,-600.8946"/>
<polygon fill="none" stroke="#000000" points="8,-600.8946 8,-623.8946 204,-623.8946 204,-600.8946 8,-600.8946"/>
<text text-anchor="start" x="13" y="-609.4946" font-family="Helvetica,sans-Serif" font-weight="bold" font-size="11.00" fill="#000000">reference_data_domain</text>
<text text-anchor="start" x="169.5219" y="-608.9946" font-family="Helvetica,sans-Serif" font-size="11.00" fill="#000000">[table]</text>
<polygon fill="none" stroke="#000000" points="8,-581.8946 8,-600.8946 204,-600.8946 204,-581.8946 8,-581.8946"/>
<text text-anchor="start" x="11" y="-587.9946" font-family="Helvetica,sans-Serif" font-size="11.00" fill="#000000">...</text>
<polygon fill="#ffffff" stroke="transparent" points="8,-562.8946 8,-581.8946 95,-581.8946 95,-562.8946 8,-562.8946"/>
<polygon fill="none" stroke="#000000" points="8,-562.8946 8,-581.8946 95,-581.8946 95,-562.8946 8,-562.8946"/>
<text text-anchor="start" x="11" y="-568.9946" font-family="Helvetica,sans-Serif" font-size="11.00" fill="#000000"> &#160;</text>
<polygon fill="#ffffff" stroke="transparent" points="95,-562.8946 95,-581.8946 145,-581.8946 145,-562.8946 95,-562.8946"/>
<polygon fill="none" stroke="#000000" points="95,-562.8946 95,-581.8946 145,-581.8946 145,-562.8946 95,-562.8946"/>
<text text-anchor="start" x="135.8862" y="-568.9946" font-family="Helvetica,sans-Serif" font-size="11.00" fill="#000000"> &#160;</text>
<polygon fill="#ffffff" stroke="transparent" points="145,-562.8946 145,-581.8946 204,-581.8946 204,-562.8946 145,-562.8946"/>
<polygon fill="none" stroke="#000000" points="145,-562.8946 145,-581.8946 204,-581.8946 204,-562.8946 145,-562.8946"/>
<text text-anchor="start" x="185.4053" y="-568.9946" font-family="Helvetica,sans-Serif" font-size="11.00" fill="#000000">2 &gt;</text>
</a>
</g>
</g>
<!-- reference_data&#45;&gt;reference_data_domain -->
<g id="edge1" class="edge">
<title>reference_data:w&#45;&gt;reference_data_domain:e</title>
<path fill="none" stroke="#000000" d="M286.2665,-549.1933C264.8651,-570.3275 235.8548,-590.8946 204,-590.8946"/>
<polygon fill="#000000" stroke="#000000" points="290.9172,-544.3179 299.0441,-541.0142 293.6782,-541.4236 296.4392,-538.5293 296.4392,-538.5293 296.4392,-538.5293 293.6782,-541.4236 293.8343,-536.0444 290.9172,-544.3179 290.9172,-544.3179"/>
<ellipse fill="none" stroke="#000000" cx="288.7084" cy="-546.6334" rx="3.2" ry="3.2"/>
</g>
<!-- reference_data_domain_link -->
<g id="node3" class="node">
<title>reference_data_domain_link</title>
<g id="a_node3"><a xlink:href="../../tables/reference_data_domain_link.html" xlink:title="reference_data_domain_link" target="_top">
<polygon fill="#ffffff" stroke="transparent" points="505,-770.3946 505,-831.3946 732,-831.3946 732,-770.3946 505,-770.3946"/>
<polygon fill="#f5f5f5" stroke="transparent" points="505.5,-807.8946 505.5,-830.8946 732.5,-830.8946 732.5,-807.8946 505.5,-807.8946"/>
<polygon fill="none" stroke="#000000" points="505.5,-807.8946 505.5,-830.8946 732.5,-830.8946 732.5,-807.8946 505.5,-807.8946"/>
<text text-anchor="start" x="510.5" y="-816.4946" font-family="Helvetica,sans-Serif" font-weight="bold" font-size="11.00" fill="#000000">reference_data_domain_link</text>
<text text-anchor="start" x="698.0219" y="-815.9946" font-family="Helvetica,sans-Serif" font-size="11.00" fill="#000000">[table]</text>
<polygon fill="none" stroke="#000000" points="505.5,-788.8946 505.5,-807.8946 732.5,-807.8946 732.5,-788.8946 505.5,-788.8946"/>
<text text-anchor="start" x="508.5" y="-794.9946" font-family="Helvetica,sans-Serif" font-size="11.00" fill="#000000">...</text>
<polygon fill="#ffffff" stroke="transparent" points="505.5,-769.8946 505.5,-788.8946 617.5,-788.8946 617.5,-769.8946 505.5,-769.8946"/>
<polygon fill="none" stroke="#000000" points="505.5,-769.8946 505.5,-788.8946 617.5,-788.8946 617.5,-769.8946 505.5,-769.8946"/>
<text text-anchor="start" x="508.5" y="-775.9946" font-family="Helvetica,sans-Serif" font-size="11.00" fill="#000000">&lt; 2</text>
<polygon fill="#ffffff" stroke="transparent" points="617.5,-769.8946 617.5,-788.8946 674.5,-788.8946 674.5,-769.8946 617.5,-769.8946"/>
<polygon fill="none" stroke="#000000" points="617.5,-769.8946 617.5,-788.8946 674.5,-788.8946 674.5,-769.8946 617.5,-769.8946"/>
<text text-anchor="start" x="665.3862" y="-775.9946" font-family="Helvetica,sans-Serif" font-size="11.00" fill="#000000"> &#160;</text>
<polygon fill="#ffffff" stroke="transparent" points="674.5,-769.8946 674.5,-788.8946 732.5,-788.8946 732.5,-769.8946 674.5,-769.8946"/>
<polygon fill="none" stroke="#000000" points="674.5,-769.8946 674.5,-788.8946 732.5,-788.8946 732.5,-769.8946 674.5,-769.8946"/>
<text text-anchor="start" x="723.3862" y="-775.9946" font-family="Helvetica,sans-Serif" font-size="11.00" fill="#000000"> &#160;</text>
</a>
</g>
</g>
<!-- reference_data_domain_link&#45;&gt;reference_data -->
<g id="edge3" class="edge">
<title>reference_data_domain_link:w&#45;&gt;reference_data:e</title>
<path fill="none" stroke="#000000" d="M494.8734,-797.528C466.8604,-795.4364 455.0651,-784.2371 434,-759.8946 405.5744,-727.0465 417.6828,-708.0032 401,-667.8946 382.111,-622.482 357.2786,-571.5166 340.7605,-538.6293"/>
<polygon fill="#000000" stroke="#000000" points="504.8384,-793.8694 504.5625,-801.8647 502.9635,-801.8095 503.2394,-793.8142 504.8384,-793.8694"/>
<polyline fill="none" stroke="#000000" points="505.5,-797.8946 501.5024,-797.7567 "/>
<ellipse fill="none" stroke="#000000" cx="498.3043" cy="-797.6463" rx="3.2" ry="3.2"/>
</g>
<!-- reference_data_domain_link&#45;&gt;reference_data_domain -->
<g id="edge2" class="edge">
<title>reference_data_domain_link:w&#45;&gt;reference_data_domain:e</title>
<path fill="none" stroke="#000000" d="M490.7956,-797.3008C344.25,-785.1593 361.4629,-590.8946 204,-590.8946"/>
<polygon fill="#000000" stroke="#000000" points="497.5065,-797.5718 505.3547,-801.4917 501.5033,-797.7332 505.5,-797.8946 505.5,-797.8946 505.5,-797.8946 501.5033,-797.7332 505.6453,-794.2976 497.5065,-797.5718 497.5065,-797.5718"/>
<ellipse fill="none" stroke="#000000" cx="494.3091" cy="-797.4426" rx="3.2" ry="3.2"/>
</g>
<!-- reference_data_link -->
<g id="node4" class="node">
<title>reference_data_link</title>
<g id="a_node4"><a xlink:href="../../tables/reference_data_link.html" xlink:title="reference_data_link" target="_top">
<polygon fill="#ffffff" stroke="transparent" points="533,-688.3946 533,-749.3946 704,-749.3946 704,-688.3946 533,-688.3946"/>
<polygon fill="#f5f5f5" stroke="transparent" points="533.5,-725.8946 533.5,-748.8946 704.5,-748.8946 704.5,-725.8946 533.5,-725.8946"/>
<polygon fill="none" stroke="#000000" points="533.5,-725.8946 533.5,-748.8946 704.5,-748.8946 704.5,-725.8946 533.5,-725.8946"/>
<text text-anchor="start" x="538.5" y="-734.4946" font-family="Helvetica,sans-Serif" font-weight="bold" font-size="11.00" fill="#000000">reference_data_link</text>
<text text-anchor="start" x="670.0219" y="-733.9946" font-family="Helvetica,sans-Serif" font-size="11.00" fill="#000000">[table]</text>
<polygon fill="none" stroke="#000000" points="533.5,-706.8946 533.5,-725.8946 704.5,-725.8946 704.5,-706.8946 533.5,-706.8946"/>
<text text-anchor="start" x="536.5" y="-712.9946" font-family="Helvetica,sans-Serif" font-size="11.00" fill="#000000">...</text>
<polygon fill="#ffffff" stroke="transparent" points="533.5,-687.8946 533.5,-706.8946 601.5,-706.8946 601.5,-687.8946 533.5,-687.8946"/>
<polygon fill="none" stroke="#000000" points="533.5,-687.8946 533.5,-706.8946 601.5,-706.8946 601.5,-687.8946 533.5,-687.8946"/>
<text text-anchor="start" x="536.5" y="-693.9946" font-family="Helvetica,sans-Serif" font-size="11.00" fill="#000000">&lt; 2</text>
<polygon fill="#ffffff" stroke="transparent" points="601.5,-687.8946 601.5,-706.8946 668.5,-706.8946 668.5,-687.8946 601.5,-687.8946"/>
<polygon fill="none" stroke="#000000" points="601.5,-687.8946 601.5,-706.8946 668.5,-706.8946 668.5,-687.8946 601.5,-687.8946"/>
<text text-anchor="start" x="626.9956" y="-693.9946" font-family="Helvetica,sans-Serif" font-size="11.00" fill="#000000">64 rows</text>
<polygon fill="#ffffff" stroke="transparent" points="668.5,-687.8946 668.5,-706.8946 704.5,-706.8946 704.5,-687.8946 668.5,-687.8946"/>
<polygon fill="none" stroke="#000000" points="668.5,-687.8946 668.5,-706.8946 704.5,-706.8946 704.5,-687.8946 668.5,-687.8946"/>
<text text-anchor="start" x="695.3862" y="-693.9946" font-family="Helvetica,sans-Serif" font-size="11.00" fill="#000000"> &#160;</text>
</a>
</g>
</g>
<!-- reference_data_link&#45;&gt;reference_data -->
<g id="edge4" class="edge">
<title>reference_data_link:w&#45;&gt;reference_data:e</title>
<path fill="none" stroke="#000000" d="M518.9907,-714.4044C430.0093,-700.1164 367.7584,-594.8201 339.7314,-538.7262"/>
<polygon fill="#000000" stroke="#000000" points="525.5419,-715.0772 533.1322,-719.4758 529.5209,-715.4859 533.5,-715.8946 533.5,-715.8946 533.5,-715.8946 529.5209,-715.4859 533.8678,-712.3135 525.5419,-715.0772 525.5419,-715.0772"/>
<ellipse fill="none" stroke="#000000" cx="522.3586" cy="-714.7502" rx="3.2" ry="3.2"/>
</g>
<!-- reference_data_link&#45;&gt;reference_data -->
<g id="edge5" class="edge">
<title>reference_data_link:w&#45;&gt;reference_data:e</title>
<path fill="none" stroke="#000000" d="M518.9509,-715.7911C425.97,-709.529 362.183,-597.1091 336.1421,-538.5542"/>
<polygon fill="#000000" stroke="#000000" points="525.5002,-715.8377 533.4744,-719.4945 529.5001,-715.8661 533.5,-715.8946 533.5,-715.8946 533.5,-715.8946 529.5001,-715.8661 533.5256,-712.2947 525.5002,-715.8377 525.5002,-715.8377"/>
<ellipse fill="none" stroke="#000000" cx="522.3003" cy="-715.8149" rx="3.2" ry="3.2"/>
</g>
<!-- tap_occurrence_action -->
<g id="node5" class="node">
<title>tap_occurrence_action</title>
<g id="a_node5"><a xlink:href="../../tables/tap_occurrence_action.html" xlink:title="tap_occurrence_action" target="_top">
<polygon fill="#ffffff" stroke="transparent" points="1174.5,-597.3946 1174.5,-658.3946 1364.5,-658.3946 1364.5,-597.3946 1174.5,-597.3946"/>
<polygon fill="#f5f5f5" stroke="transparent" points="1174.5,-634.8946 1174.5,-657.8946 1364.5,-657.8946 1364.5,-634.8946 1174.5,-634.8946"/>
<polygon fill="none" stroke="#000000" points="1174.5,-634.8946 1174.5,-657.8946 1364.5,-657.8946 1364.5,-634.8946 1174.5,-634.8946"/>
<text text-anchor="start" x="1179.5" y="-643.4946" font-family="Helvetica,sans-Serif" font-weight="bold" font-size="11.00" fill="#000000">tap_occurrence_action</text>
<text text-anchor="start" x="1330.0219" y="-642.9946" font-family="Helvetica,sans-Serif" font-size="11.00" fill="#000000">[table]</text>
<polygon fill="none" stroke="#000000" points="1174.5,-615.8946 1174.5,-634.8946 1364.5,-634.8946 1364.5,-615.8946 1174.5,-615.8946"/>
<text text-anchor="start" x="1177.5" y="-621.9946" font-family="Helvetica,sans-Serif" font-size="11.00" fill="#000000">...</text>
<polygon fill="#ffffff" stroke="transparent" points="1174.5,-596.8946 1174.5,-615.8946 1267.5,-615.8946 1267.5,-596.8946 1174.5,-596.8946"/>
<polygon fill="none" stroke="#000000" points="1174.5,-596.8946 1174.5,-615.8946 1267.5,-615.8946 1267.5,-596.8946 1174.5,-596.8946"/>
<text text-anchor="start" x="1177.5" y="-602.9946" font-family="Helvetica,sans-Serif" font-size="11.00" fill="#000000">&lt; 1</text>
<polygon fill="#ffffff" stroke="transparent" points="1267.5,-596.8946 1267.5,-615.8946 1315.5,-615.8946 1315.5,-596.8946 1267.5,-596.8946"/>
<polygon fill="none" stroke="#000000" points="1267.5,-596.8946 1267.5,-615.8946 1315.5,-615.8946 1315.5,-596.8946 1267.5,-596.8946"/>
<text text-anchor="start" x="1306.3862" y="-602.9946" font-family="Helvetica,sans-Serif" font-size="11.00" fill="#000000"> &#160;</text>
<polygon fill="#ffffff" stroke="transparent" points="1315.5,-596.8946 1315.5,-615.8946 1364.5,-615.8946 1364.5,-596.8946 1315.5,-596.8946"/>
<polygon fill="none" stroke="#000000" points="1315.5,-596.8946 1315.5,-615.8946 1364.5,-615.8946 1364.5,-596.8946 1315.5,-596.8946"/>
<text text-anchor="start" x="1355.3862" y="-602.9946" font-family="Helvetica,sans-Serif" font-size="11.00" fill="#000000"> &#160;</text>
</a>
</g>
</g>
<!-- temporary_absence_occurrence -->
<g id="node6" class="node">
<title>temporary_absence_occurrence</title>
<g id="a_node6"><a xlink:href="../../tables/temporary_absence_occurrence.html" xlink:title="temporary_absence_occurrence" target="_top">
<polygon fill="#ffffff" stroke="transparent" points="844,-594.3946 844,-655.3946 1096,-655.3946 1096,-594.3946 844,-594.3946"/>
<polygon fill="#f5f5f5" stroke="transparent" points="844,-631.8946 844,-654.8946 1096,-654.8946 1096,-631.8946 844,-631.8946"/>
<polygon fill="none" stroke="#000000" points="844,-631.8946 844,-654.8946 1096,-654.8946 1096,-631.8946 844,-631.8946"/>
<text text-anchor="start" x="849" y="-640.4946" font-family="Helvetica,sans-Serif" font-weight="bold" font-size="11.00" fill="#000000">temporary_absence_occurrence</text>
<text text-anchor="start" x="1061.5219" y="-639.9946" font-family="Helvetica,sans-Serif" font-size="11.00" fill="#000000">[table]</text>
<polygon fill="none" stroke="#000000" points="844,-612.8946 844,-631.8946 1096,-631.8946 1096,-612.8946 844,-612.8946"/>
<text text-anchor="start" x="847" y="-618.9946" font-family="Helvetica,sans-Serif" font-size="11.00" fill="#000000">...</text>
<polygon fill="#ffffff" stroke="transparent" points="844,-593.8946 844,-612.8946 964,-612.8946 964,-593.8946 844,-593.8946"/>
<polygon fill="none" stroke="#000000" points="844,-593.8946 844,-612.8946 964,-612.8946 964,-593.8946 844,-593.8946"/>
<text text-anchor="start" x="847" y="-599.9946" font-family="Helvetica,sans-Serif" font-size="11.00" fill="#000000">&lt; 3</text>
<polygon fill="#ffffff" stroke="transparent" points="964,-593.8946 964,-612.8946 1025,-612.8946 1025,-593.8946 964,-593.8946"/>
<polygon fill="none" stroke="#000000" points="964,-593.8946 964,-612.8946 1025,-612.8946 1025,-593.8946 964,-593.8946"/>
<text text-anchor="start" x="1015.8862" y="-599.9946" font-family="Helvetica,sans-Serif" font-size="11.00" fill="#000000"> &#160;</text>
<polygon fill="#ffffff" stroke="transparent" points="1025,-593.8946 1025,-612.8946 1096,-612.8946 1096,-593.8946 1025,-593.8946"/>
<polygon fill="none" stroke="#000000" points="1025,-593.8946 1025,-612.8946 1096,-612.8946 1096,-593.8946 1025,-593.8946"/>
<text text-anchor="start" x="1077.4053" y="-599.9946" font-family="Helvetica,sans-Serif" font-size="11.00" fill="#000000">2 &gt;</text>
</a>
</g>
</g>
<!-- tap_occurrence_action&#45;&gt;temporary_absence_occurrence -->
<g id="edge6" class="edge">
<title>tap_occurrence_action:w&#45;&gt;temporary_absence_occurrence:e</title>
<path fill="none" stroke="#000000" d="M1159.9515,-624.8946C1141.6243,-624.8946 1122.6927,-624.8946 1104.2031,-624.8946"/>
<polygon fill="#000000" stroke="#000000" points="1166.5,-624.8947 1174.5,-628.4946 1170.5,-624.8947 1174.5,-624.8946 1174.5,-624.8946 1174.5,-624.8946 1170.5,-624.8947 1174.5,-621.2946 1166.5,-624.8947 1166.5,-624.8947"/>
<ellipse fill="none" stroke="#000000" cx="1163.3" cy="-624.8947" rx="3.2" ry="3.2"/>
</g>
<!-- temporary_absence_occurrence&#45;&gt;reference_data -->
<g id="edge15" class="edge">
<title>temporary_absence_occurrence:w&#45;&gt;reference_data:e</title>
<path fill="none" stroke="#000000" d="M821.236,-638.9371C686.767,-651.7655 500.084,-664.1128 434,-632.8946 392.4352,-613.2594 361.1915,-569.5841 342.6098,-538.4427"/>
<polygon fill="#000000" stroke="#000000" points="827.756,-638.3059 836.0657,-641.1182 831.7374,-637.9204 835.7187,-637.535 835.7187,-637.535 835.7187,-637.535 831.7374,-637.9204 835.3718,-633.9517 827.756,-638.3059 827.756,-638.3059"/>
<ellipse fill="none" stroke="#000000" cx="824.5709" cy="-638.6143" rx="3.2" ry="3.2"/>
</g>
<!-- temporary_absence_occurrence&#45;&gt;reference_data -->
<g id="edge17" class="edge">
<title>temporary_absence_occurrence:w&#45;&gt;reference_data:e</title>
<path fill="none" stroke="#000000" d="M821.236,-648.9368C686.767,-664.7655 500.084,-677.1128 434,-645.8946 388.0456,-624.1857 354.7072,-573.0909 337.1489,-538.3972"/>
<polygon fill="#000000" stroke="#000000" points="827.776,-648.1502 836.1487,-650.7689 831.7474,-647.6724 835.7187,-647.1947 835.7187,-647.1947 835.7187,-647.1947 831.7474,-647.6724 835.2888,-643.6204 827.776,-648.1502 827.776,-648.1502"/>
<ellipse fill="none" stroke="#000000" cx="824.5989" cy="-648.5324" rx="3.2" ry="3.2"/>
</g>
<!-- temporary_absence_authorisation -->
<g id="node7" class="node">
<title>temporary_absence_authorisation</title>
<g id="a_node7"><a xlink:href="../../tables/temporary_absence_authorisation.html" xlink:title="temporary_absence_authorisation" target="_top">
<polygon fill="#ffffff" stroke="transparent" points="442,-141.8946 442,-627.8946 795,-627.8946 795,-141.8946 442,-141.8946"/>
<polygon fill="#f5f5f5" stroke="transparent" points="444.5,-602.8946 444.5,-625.8946 793.5,-625.8946 793.5,-602.8946 444.5,-602.8946"/>
<polygon fill="none" stroke="#000000" points="444.5,-602.8946 444.5,-625.8946 793.5,-625.8946 793.5,-602.8946 444.5,-602.8946"/>
<text text-anchor="start" x="449.5" y="-611.4946" font-family="Helvetica,sans-Serif" font-weight="bold" font-size="11.00" fill="#000000">temporary_absence_authorisation</text>
<text text-anchor="start" x="758.5437" y="-610.9946" font-family="Helvetica,sans-Serif" font-size="11.00" fill="#000000">[table]</text>
<polygon fill="none" stroke="#000000" points="444.5,-580.8946 444.5,-602.8946 694.5,-602.8946 694.5,-580.8946 444.5,-580.8946"/>
<image xlink:href="../../images/primaryKeys.png" width="11px" height="12px" preserveAspectRatio="xMinYMin meet" x="449.5" y="-597.895"/>
<text text-anchor="start" x="464.5" y="-587.9946" font-family="Helvetica,sans-Serif" font-size="11.00" fill="#000000">id</text>
<polygon fill="none" stroke="#000000" points="694.5,-580.8946 694.5,-602.8946 793.5,-602.8946 793.5,-580.8946 694.5,-580.8946"/>
<text text-anchor="start" x="697.5" y="-588.5946" font-family="Helvetica,sans-Serif" font-size="11.00" fill="#000000">uuid[2147483647]</text>
<polygon fill="none" stroke="#000000" points="444.5,-558.8946 444.5,-580.8946 694.5,-580.8946 694.5,-558.8946 444.5,-558.8946"/>
<text text-anchor="start" x="464.5" y="-565.9946" font-family="Helvetica,sans-Serif" font-size="11.00" fill="#000000">version</text>
<polygon fill="none" stroke="#000000" points="694.5,-558.8946 694.5,-580.8946 793.5,-580.8946 793.5,-558.8946 694.5,-558.8946"/>
<text text-anchor="start" x="697.5" y="-566.5946" font-family="Helvetica,sans-Serif" font-size="11.00" fill="#000000">int4[10]</text>
<polygon fill="#ffffff" stroke="transparent" points="444.5,-536.8946 444.5,-558.8946 694.5,-558.8946 694.5,-536.8946 444.5,-536.8946"/>
<polygon fill="none" stroke="#000000" points="444.5,-536.8946 444.5,-558.8946 694.5,-558.8946 694.5,-536.8946 444.5,-536.8946"/>
<text text-anchor="start" x="464.5" y="-543.9946" font-family="Helvetica,sans-Serif" font-size="11.00" fill="#000000">person_identifier</text>
<polygon fill="none" stroke="#000000" points="694.5,-536.8946 694.5,-558.8946 793.5,-558.8946 793.5,-536.8946 694.5,-536.8946"/>
<text text-anchor="start" x="697.5" y="-544.5946" font-family="Helvetica,sans-Serif" font-size="11.00" fill="#000000">varchar[10]</text>
<polygon fill="#ffffff" stroke="transparent" points="444.5,-514.8946 444.5,-536.8946 694.5,-536.8946 694.5,-514.8946 444.5,-514.8946"/>
<polygon fill="none" stroke="#000000" points="444.5,-514.8946 444.5,-536.8946 694.5,-536.8946 694.5,-514.8946 444.5,-514.8946"/>
<text text-anchor="start" x="464.5" y="-521.9946" font-family="Helvetica,sans-Serif" font-size="11.00" fill="#000000">prison_code</text>
<polygon fill="none" stroke="#000000" points="694.5,-514.8946 694.5,-536.8946 793.5,-536.8946 793.5,-514.8946 694.5,-514.8946"/>
<text text-anchor="start" x="697.5" y="-522.5946" font-family="Helvetica,sans-Serif" font-size="11.00" fill="#000000">varchar[6]</text>
<polygon fill="none" stroke="#000000" points="444.5,-492.8946 444.5,-514.8946 694.5,-514.8946 694.5,-492.8946 444.5,-492.8946"/>
<image xlink:href="../../images/foreignKeys.png" width="11px" height="12px" preserveAspectRatio="xMinYMin meet" x="449.5" y="-509.895"/>
<text text-anchor="start" x="464.5" y="-499.9946" font-family="Helvetica,sans-Serif" font-size="11.00" fill="#000000">absence_type_id</text>
<polygon fill="none" stroke="#000000" points="694.5,-492.8946 694.5,-514.8946 793.5,-514.8946 793.5,-492.8946 694.5,-492.8946"/>
<text text-anchor="start" x="697.5" y="-500.5946" font-family="Helvetica,sans-Serif" font-size="11.00" fill="#000000">int8[19]</text>
<polygon fill="none" stroke="#000000" points="444.5,-470.8946 444.5,-492.8946 694.5,-492.8946 694.5,-470.8946 444.5,-470.8946"/>
<image xlink:href="../../images/foreignKeys.png" width="11px" height="12px" preserveAspectRatio="xMinYMin meet" x="449.5" y="-487.895"/>
<text text-anchor="start" x="464.5" y="-477.9946" font-family="Helvetica,sans-Serif" font-size="11.00" fill="#000000">absence_sub_type_id</text>
<polygon fill="none" stroke="#000000" points="694.5,-470.8946 694.5,-492.8946 793.5,-492.8946 793.5,-470.8946 694.5,-470.8946"/>
<text text-anchor="start" x="697.5" y="-478.5946" font-family="Helvetica,sans-Serif" font-size="11.00" fill="#000000">int8[19]</text>
<polygon fill="none" stroke="#000000" points="444.5,-448.8946 444.5,-470.8946 694.5,-470.8946 694.5,-448.8946 444.5,-448.8946"/>
<image xlink:href="../../images/foreignKeys.png" width="11px" height="12px" preserveAspectRatio="xMinYMin meet" x="449.5" y="-465.895"/>
<text text-anchor="start" x="464.5" y="-455.9946" font-family="Helvetica,sans-Serif" font-size="11.00" fill="#000000">absence_reason_id</text>
<polygon fill="none" stroke="#000000" points="694.5,-448.8946 694.5,-470.8946 793.5,-470.8946 793.5,-448.8946 694.5,-448.8946"/>
<text text-anchor="start" x="697.5" y="-456.5946" font-family="Helvetica,sans-Serif" font-size="11.00" fill="#000000">int8[19]</text>
<polygon fill="none" stroke="#000000" points="444.5,-426.8946 444.5,-448.8946 694.5,-448.8946 694.5,-426.8946 444.5,-426.8946"/>
<text text-anchor="start" x="464.5" y="-433.9946" font-family="Helvetica,sans-Serif" font-size="11.00" fill="#000000">repeat</text>
<polygon fill="none" stroke="#000000" points="694.5,-426.8946 694.5,-448.8946 793.5,-448.8946 793.5,-426.8946 694.5,-426.8946"/>
<text text-anchor="start" x="697.5" y="-434.5946" font-family="Helvetica,sans-Serif" font-size="11.00" fill="#000000">bool[1]</text>
<polygon fill="none" stroke="#000000" points="444.5,-404.8946 444.5,-426.8946 694.5,-426.8946 694.5,-404.8946 444.5,-404.8946"/>
<image xlink:href="../../images/foreignKeys.png" width="11px" height="12px" preserveAspectRatio="xMinYMin meet" x="449.5" y="-421.895"/>
<text text-anchor="start" x="464.5" y="-411.9946" font-family="Helvetica,sans-Serif" font-size="11.00" fill="#000000">status_id</text>
<polygon fill="none" stroke="#000000" points="694.5,-404.8946 694.5,-426.8946 793.5,-426.8946 793.5,-404.8946 694.5,-404.8946"/>
<text text-anchor="start" x="697.5" y="-412.5946" font-family="Helvetica,sans-Serif" font-size="11.00" fill="#000000">int8[19]</text>
<polygon fill="none" stroke="#000000" points="444.5,-382.8946 444.5,-404.8946 694.5,-404.8946 694.5,-382.8946 444.5,-382.8946"/>
<text text-anchor="start" x="464.5" y="-389.9946" font-family="Helvetica,sans-Serif" font-size="11.00" fill="#000000">notes</text>
<polygon fill="none" stroke="#000000" points="694.5,-382.8946 694.5,-404.8946 793.5,-404.8946 793.5,-382.8946 694.5,-382.8946"/>
<text text-anchor="start" x="697.5" y="-390.5946" font-family="Helvetica,sans-Serif" font-size="11.00" fill="#000000">text[2147483647]</text>
<polygon fill="none" stroke="#000000" points="444.5,-360.8946 444.5,-382.8946 694.5,-382.8946 694.5,-360.8946 444.5,-360.8946"/>
<text text-anchor="start" x="464.5" y="-367.9946" font-family="Helvetica,sans-Serif" font-size="11.00" fill="#000000">submitted_at</text>
<polygon fill="none" stroke="#000000" points="694.5,-360.8946 694.5,-382.8946 793.5,-382.8946 793.5,-360.8946 694.5,-360.8946"/>
<text text-anchor="start" x="697.5" y="-368.5946" font-family="Helvetica,sans-Serif" font-size="11.00" fill="#000000">timestamp[29,6]</text>
<polygon fill="none" stroke="#000000" points="444.5,-338.8946 444.5,-360.8946 694.5,-360.8946 694.5,-338.8946 444.5,-338.8946"/>
<text text-anchor="start" x="464.5" y="-345.9946" font-family="Helvetica,sans-Serif" font-size="11.00" fill="#000000">submitted_by</text>
<polygon fill="none" stroke="#000000" points="694.5,-338.8946 694.5,-360.8946 793.5,-360.8946 793.5,-338.8946 694.5,-338.8946"/>
<text text-anchor="start" x="697.5" y="-346.5946" font-family="Helvetica,sans-Serif" font-size="11.00" fill="#000000">varchar[64]</text>
<polygon fill="none" stroke="#000000" points="444.5,-316.8946 444.5,-338.8946 694.5,-338.8946 694.5,-316.8946 444.5,-316.8946"/>
<text text-anchor="start" x="464.5" y="-323.9946" font-family="Helvetica,sans-Serif" font-size="11.00" fill="#000000">approved_at</text>
<polygon fill="none" stroke="#000000" points="694.5,-316.8946 694.5,-338.8946 793.5,-338.8946 793.5,-316.8946 694.5,-316.8946"/>
<text text-anchor="start" x="697.5" y="-324.5946" font-family="Helvetica,sans-Serif" font-size="11.00" fill="#000000">timestamp[29,6]</text>
<polygon fill="none" stroke="#000000" points="444.5,-294.8946 444.5,-316.8946 694.5,-316.8946 694.5,-294.8946 444.5,-294.8946"/>
<text text-anchor="start" x="464.5" y="-301.9946" font-family="Helvetica,sans-Serif" font-size="11.00" fill="#000000">approved_by</text>
<polygon fill="none" stroke="#000000" points="694.5,-294.8946 694.5,-316.8946 793.5,-316.8946 793.5,-294.8946 694.5,-294.8946"/>
<text text-anchor="start" x="697.5" y="-302.5946" font-family="Helvetica,sans-Serif" font-size="11.00" fill="#000000">varchar[64]</text>
<polygon fill="#ffffff" stroke="transparent" points="444.5,-272.8946 444.5,-294.8946 694.5,-294.8946 694.5,-272.8946 444.5,-272.8946"/>
<polygon fill="none" stroke="#000000" points="444.5,-272.8946 444.5,-294.8946 694.5,-294.8946 694.5,-272.8946 444.5,-272.8946"/>
<text text-anchor="start" x="464.5" y="-279.9946" font-family="Helvetica,sans-Serif" font-size="11.00" fill="#000000">legacy_id</text>
<polygon fill="none" stroke="#000000" points="694.5,-272.8946 694.5,-294.8946 793.5,-294.8946 793.5,-272.8946 694.5,-272.8946"/>
<text text-anchor="start" x="697.5" y="-280.5946" font-family="Helvetica,sans-Serif" font-size="11.00" fill="#000000">int8[19]</text>
<polygon fill="#ffffff" stroke="transparent" points="444.5,-250.8946 444.5,-272.8946 694.5,-272.8946 694.5,-250.8946 444.5,-250.8946"/>
<polygon fill="none" stroke="#000000" points="444.5,-250.8946 444.5,-272.8946 694.5,-272.8946 694.5,-250.8946 444.5,-250.8946"/>
<text text-anchor="start" x="464.5" y="-257.9946" font-family="Helvetica,sans-Serif" font-size="11.00" fill="#000000">from_date</text>
<polygon fill="none" stroke="#000000" points="694.5,-250.8946 694.5,-272.8946 793.5,-272.8946 793.5,-250.8946 694.5,-250.8946"/>
<text text-anchor="start" x="697.5" y="-258.5946" font-family="Helvetica,sans-Serif" font-size="11.00" fill="#000000">date[13]</text>
<polygon fill="#ffffff" stroke="transparent" points="444.5,-228.8946 444.5,-250.8946 694.5,-250.8946 694.5,-228.8946 444.5,-228.8946"/>
<polygon fill="none" stroke="#000000" points="444.5,-228.8946 444.5,-250.8946 694.5,-250.8946 694.5,-228.8946 444.5,-228.8946"/>
<text text-anchor="start" x="464.5" y="-235.9946" font-family="Helvetica,sans-Serif" font-size="11.00" fill="#000000">to_date</text>
<polygon fill="none" stroke="#000000" points="694.5,-228.8946 694.5,-250.8946 793.5,-250.8946 793.5,-228.8946 694.5,-228.8946"/>
<text text-anchor="start" x="697.5" y="-236.5946" font-family="Helvetica,sans-Serif" font-size="11.00" fill="#000000">date[13]</text>
<polygon fill="none" stroke="#000000" points="444.5,-206.8946 444.5,-228.8946 694.5,-228.8946 694.5,-206.8946 444.5,-206.8946"/>
<text text-anchor="start" x="464.5" y="-213.9946" font-family="Helvetica,sans-Serif" font-size="11.00" fill="#000000">schedule</text>
<polygon fill="none" stroke="#000000" points="694.5,-206.8946 694.5,-228.8946 793.5,-228.8946 793.5,-206.8946 694.5,-206.8946"/>
<text text-anchor="start" x="697.2258" y="-214.5946" font-family="Helvetica,sans-Serif" font-size="11.00" fill="#000000">jsonb[2147483647]</text>
<polygon fill="none" stroke="#000000" points="444.5,-184.8946 444.5,-206.8946 694.5,-206.8946 694.5,-184.8946 444.5,-184.8946"/>
<image xlink:href="../../images/foreignKeys.png" width="11px" height="12px" preserveAspectRatio="xMinYMin meet" x="449.5" y="-201.895"/>
<text text-anchor="start" x="464.5" y="-191.9946" font-family="Helvetica,sans-Serif" font-size="11.00" fill="#000000">absence_reason_category_id</text>
<polygon fill="none" stroke="#000000" points="694.5,-184.8946 694.5,-206.8946 793.5,-206.8946 793.5,-184.8946 694.5,-184.8946"/>
<text text-anchor="start" x="697.5" y="-192.5946" font-family="Helvetica,sans-Serif" font-size="11.00" fill="#000000">int8[19]</text>
<polygon fill="none" stroke="#000000" points="444.5,-162.8946 444.5,-184.8946 694.5,-184.8946 694.5,-162.8946 444.5,-162.8946"/>
<text text-anchor="start" x="464.5" y="-169.9946" font-family="Helvetica,sans-Serif" font-size="11.00" fill="#000000">reason_path</text>
<polygon fill="none" stroke="#000000" points="694.5,-162.8946 694.5,-184.8946 793.5,-184.8946 793.5,-162.8946 694.5,-162.8946"/>
<text text-anchor="start" x="697.2258" y="-170.5946" font-family="Helvetica,sans-Serif" font-size="11.00" fill="#000000">jsonb[2147483647]</text>
<polygon fill="#ffffff" stroke="transparent" points="444.5,-143.8946 444.5,-162.8946 573.5,-162.8946 573.5,-143.8946 444.5,-143.8946"/>
<polygon fill="none" stroke="#000000" points="444.5,-143.8946 444.5,-162.8946 573.5,-162.8946 573.5,-143.8946 444.5,-143.8946"/>
<text text-anchor="start" x="447.5" y="-149.9946" font-family="Helvetica,sans-Serif" font-size="11.00" fill="#000000">&lt; 5</text>
<polygon fill="#ffffff" stroke="transparent" points="573.5,-143.8946 573.5,-162.8946 694.5,-162.8946 694.5,-143.8946 573.5,-143.8946"/>
<polygon fill="none" stroke="#000000" points="573.5,-143.8946 573.5,-162.8946 694.5,-162.8946 694.5,-143.8946 573.5,-143.8946"/>
<text text-anchor="start" x="685.3862" y="-149.9946" font-family="Helvetica,sans-Serif" font-size="11.00" fill="#000000"> &#160;</text>
<polygon fill="#ffffff" stroke="transparent" points="694.5,-143.8946 694.5,-162.8946 793.5,-162.8946 793.5,-143.8946 694.5,-143.8946"/>
<polygon fill="none" stroke="#000000" points="694.5,-143.8946 694.5,-162.8946 793.5,-162.8946 793.5,-143.8946 694.5,-143.8946"/>
<text text-anchor="start" x="774.9053" y="-149.9946" font-family="Helvetica,sans-Serif" font-size="11.00" fill="#000000">1 &gt;</text>
<polygon fill="none" stroke="#000000" stroke-width="2" points="443,-142.8946 443,-626.8946 794,-626.8946 794,-142.8946 443,-142.8946"/>
</a>
</g>
</g>
<!-- temporary_absence_occurrence&#45;&gt;temporary_absence_authorisation -->
<g id="edge16" class="edge">
<title>temporary_absence_occurrence:w&#45;&gt;temporary_absence_authorisation:e</title>
<path fill="none" stroke="#000000" d="M820.9856,-593.0594C811.7175,-592.3145 802.5013,-591.8946 793.5,-591.8946"/>
<polygon fill="#000000" stroke="#000000" points="827.6071,-593.7062 835.2191,-598.067 831.5881,-594.0951 835.5691,-594.4841 835.5691,-594.4841 835.5691,-594.4841 831.5881,-594.0951 835.9192,-590.9011 827.6071,-593.7062 827.6071,-593.7062"/>
<ellipse fill="none" stroke="#000000" cx="824.4222" cy="-593.3951" rx="3.2" ry="3.2"/>
</g>
<!-- temporary_absence_authorisation&#45;&gt;reference_data -->
<g id="edge7" class="edge">
<title>temporary_absence_authorisation:w&#45;&gt;reference_data:e</title>
<path fill="none" stroke="#000000" d="M430.5073,-199.6168C379.5663,-226.7575 342.914,-395.2196 329.0757,-469.1618"/>
<polygon fill="#000000" stroke="#000000" points="436.7688,-197.9512 445.4255,-199.3736 440.6344,-196.9229 444.5,-195.8946 444.5,-195.8946 444.5,-195.8946 440.6344,-196.9229 443.5745,-192.4156 436.7688,-197.9512 436.7688,-197.9512"/>
<ellipse fill="none" stroke="#000000" cx="433.6764" cy="-198.7738" rx="3.2" ry="3.2"/>
</g>
<!-- temporary_absence_authorisation&#45;&gt;reference_data -->
<g id="edge8" class="edge">
<title>temporary_absence_authorisation:w&#45;&gt;reference_data:e</title>
<path fill="none" stroke="#000000" d="M429.9207,-460.7748C417.453,-462.2298 404.9533,-465.3734 393.1221,-469.3337"/>
<polygon fill="#000000" stroke="#000000" points="436.5145,-460.3768 444.717,-463.4881 440.5073,-460.1357 444.5,-459.8946 444.5,-459.8946 444.5,-459.8946 440.5073,-460.1357 444.283,-456.3012 436.5145,-460.3768 436.5145,-460.3768"/>
<ellipse fill="none" stroke="#000000" cx="433.3204" cy="-460.5696" rx="3.2" ry="3.2"/>
</g>
<!-- temporary_absence_authorisation&#45;&gt;reference_data -->
<g id="edge9" class="edge">
<title>temporary_absence_authorisation:w&#45;&gt;reference_data:e</title>
<path fill="none" stroke="#000000" d="M430.0278,-482.3611C420.3849,-482.957 410.5966,-484.0861 401.0564,-485.5275"/>
<polygon fill="#000000" stroke="#000000" points="436.5042,-482.1524 444.616,-485.4928 440.5021,-482.0235 444.5,-481.8946 444.5,-481.8946 444.5,-481.8946 440.5021,-482.0235 444.384,-478.2965 436.5042,-482.1524 436.5042,-482.1524"/>
<ellipse fill="none" stroke="#000000" cx="433.3058" cy="-482.2555" rx="3.2" ry="3.2"/>
</g>
<!-- temporary_absence_authorisation&#45;&gt;reference_data -->
<g id="edge10" class="edge">
<title>temporary_absence_authorisation:w&#45;&gt;reference_data:e</title>
<path fill="none" stroke="#000000" d="M429.769,-503.8946C420.2627,-503.8946 410.5742,-503.8946 401.1049,-503.8946"/>
<polygon fill="#000000" stroke="#000000" points="436.5,-503.8947 444.5,-507.4946 440.5,-503.8947 444.5,-503.8946 444.5,-503.8946 444.5,-503.8946 440.5,-503.8947 444.5,-500.2946 436.5,-503.8947 436.5,-503.8947"/>
<ellipse fill="none" stroke="#000000" cx="433.3" cy="-503.8947" rx="3.2" ry="3.2"/>
</g>
<!-- temporary_absence_authorisation&#45;&gt;reference_data -->
<g id="edge11" class="edge">
<title>temporary_absence_authorisation:w&#45;&gt;reference_data:e</title>
<path fill="none" stroke="#000000" d="M429.955,-417.2606C397.7055,-423.2553 369.1889,-447.8916 349.7284,-469.3673"/>
<polygon fill="#000000" stroke="#000000" points="436.535,-416.6427 444.8366,-419.4789 440.5175,-416.2687 444.5,-415.8946 444.5,-415.8946 444.5,-415.8946 440.5175,-416.2687 444.1634,-412.3104 436.535,-416.6427 436.535,-416.6427"/>
<ellipse fill="none" stroke="#000000" cx="433.3491" cy="-416.9419" rx="3.2" ry="3.2"/>
</g>
<!-- temporary_absence_movement -->
<g id="node8" class="node">
<title>temporary_absence_movement</title>
<g id="a_node8"><a xlink:href="../../tables/temporary_absence_movement.html" xlink:title="temporary_absence_movement" target="_top">
<polygon fill="#ffffff" stroke="transparent" points="1145,-84.3946 1145,-145.3946 1394,-145.3946 1394,-84.3946 1145,-84.3946"/>
<polygon fill="#f5f5f5" stroke="transparent" points="1145.5,-121.8946 1145.5,-144.8946 1394.5,-144.8946 1394.5,-121.8946 1145.5,-121.8946"/>
<polygon fill="none" stroke="#000000" points="1145.5,-121.8946 1145.5,-144.8946 1394.5,-144.8946 1394.5,-121.8946 1145.5,-121.8946"/>
<text text-anchor="start" x="1150.5" y="-130.4946" font-family="Helvetica,sans-Serif" font-weight="bold" font-size="11.00" fill="#000000">temporary_absence_movement</text>
<text text-anchor="start" x="1360.0219" y="-129.9946" font-family="Helvetica,sans-Serif" font-size="11.00" fill="#000000">[table]</text>
<polygon fill="none" stroke="#000000" points="1145.5,-102.8946 1145.5,-121.8946 1394.5,-121.8946 1394.5,-102.8946 1145.5,-102.8946"/>
<text text-anchor="start" x="1148.5" y="-108.9946" font-family="Helvetica,sans-Serif" font-size="11.00" fill="#000000">...</text>
<polygon fill="#ffffff" stroke="transparent" points="1145.5,-83.8946 1145.5,-102.8946 1268.5,-102.8946 1268.5,-83.8946 1145.5,-83.8946"/>
<polygon fill="none" stroke="#000000" points="1145.5,-83.8946 1145.5,-102.8946 1268.5,-102.8946 1268.5,-83.8946 1145.5,-83.8946"/>
<text text-anchor="start" x="1148.5" y="-89.9946" font-family="Helvetica,sans-Serif" font-size="11.00" fill="#000000">&lt; 3</text>
<polygon fill="#ffffff" stroke="transparent" points="1268.5,-83.8946 1268.5,-102.8946 1331.5,-102.8946 1331.5,-83.8946 1268.5,-83.8946"/>
<polygon fill="none" stroke="#000000" points="1268.5,-83.8946 1268.5,-102.8946 1331.5,-102.8946 1331.5,-83.8946 1268.5,-83.8946"/>
<text text-anchor="start" x="1322.3862" y="-89.9946" font-family="Helvetica,sans-Serif" font-size="11.00" fill="#000000"> &#160;</text>
<polygon fill="#ffffff" stroke="transparent" points="1331.5,-83.8946 1331.5,-102.8946 1394.5,-102.8946 1394.5,-83.8946 1331.5,-83.8946"/>
<polygon fill="none" stroke="#000000" points="1331.5,-83.8946 1331.5,-102.8946 1394.5,-102.8946 1394.5,-83.8946 1331.5,-83.8946"/>
<text text-anchor="start" x="1385.3862" y="-89.9946" font-family="Helvetica,sans-Serif" font-size="11.00" fill="#000000"> &#160;</text>
</a>
</g>
</g>
<!-- temporary_absence_movement&#45;&gt;reference_data -->
<g id="edge12" class="edge">
<title>temporary_absence_movement:w&#45;&gt;reference_data:e</title>
<path fill="none" stroke="#000000" d="M1130.7969,-111.4927C824.6349,-100.5628 681.1146,64.577 434,-124.8946 378.6404,-167.3408 340.3671,-384.0089 327.6359,-469.3607"/>
<polygon fill="#000000" stroke="#000000" points="1137.503,-111.676 1145.4016,-115.4933 1141.5015,-111.7853 1145.5,-111.8946 1145.5,-111.8946 1145.5,-111.8946 1141.5015,-111.7853 1145.5984,-108.296 1137.503,-111.676 1137.503,-111.676"/>
<ellipse fill="none" stroke="#000000" cx="1134.3042" cy="-111.5885" rx="3.2" ry="3.2"/>
</g>
<!-- temporary_absence_movement&#45;&gt;reference_data -->
<g id="edge13" class="edge">
<title>temporary_absence_movement:w&#45;&gt;reference_data:e</title>
<path fill="none" stroke="#000000" d="M1130.7969,-112.0927C824.6349,-113.5628 681.1146,51.577 434,-137.8946 380.0479,-179.2617 342.3243,-386.1045 328.6563,-469.2854"/>
<polygon fill="#000000" stroke="#000000" points="1137.5007,-112.0024 1145.5485,-115.4943 1141.5004,-111.9485 1145.5,-111.8946 1145.5,-111.8946 1145.5,-111.8946 1141.5004,-111.9485 1145.4515,-108.295 1137.5007,-112.0024 1137.5007,-112.0024"/>
<ellipse fill="none" stroke="#000000" cx="1134.301" cy="-112.0455" rx="3.2" ry="3.2"/>
</g>
<!-- temporary_absence_movement&#45;&gt;temporary_absence_occurrence -->
<g id="edge14" class="edge">
<title>temporary_absence_movement:w&#45;&gt;temporary_absence_occurrence:e</title>
<path fill="none" stroke="#000000" d="M1131.2741,-114.3192C1039.0187,-146.0382 988.4577,-480.0998 974.224,-590.0374"/>
<polygon fill="#000000" stroke="#000000" points="1137.6137,-113.2387 1146.1049,-115.4435 1141.5569,-112.5667 1145.5,-111.8946 1145.5,-111.8946 1145.5,-111.8946 1141.5569,-112.5667 1144.8951,-108.3458 1137.6137,-113.2387 1137.6137,-113.2387"/>
<ellipse fill="none" stroke="#000000" cx="1134.4592" cy="-113.7764" rx="3.2" ry="3.2"/>
</g>
</g>
</svg>
