<?xml version="1.0" encoding="UTF-8" standalone="no"?>
<!DOCTYPE svg PUBLIC "-//W3C//DTD SVG 1.1//EN"
 "http://www.w3.org/Graphics/SVG/1.1/DTD/svg11.dtd">
<!-- Generated by graphviz version 2.40.1 (20161225.0304)
 -->
<!-- Title: oneDegreeRelationshipsDiagram Pages: 1 -->
<svg width="550pt" height="426pt"
 viewBox="0.00 0.00 550.00 426.20" xmlns="http://www.w3.org/2000/svg" xmlns:xlink="http://www.w3.org/1999/xlink">
<g id="graph0" class="graph" transform="scale(1 1) rotate(0) translate(4 422.2)">
<title>oneDegreeRelationshipsDiagram</title>
<polygon fill="#ffffff" stroke="transparent" points="-4,4 -4,-422.2 546,-422.2 546,4 -4,4"/>
<text text-anchor="middle" x="72.4936" y="-7.3" font-family="Helvetica,sans-Serif" font-size="11.00" fill="#000000">Generated by SchemaSpy</text>
<!-- temporary_absence_movement -->
<g id="node1" class="node">
<title>temporary_absence_movement</title>
<g id="a_node1"><a xlink:href="../../tables/temporary_absence_movement.html" xlink:title="temporary_absence_movement" target="_top">
<polygon fill="#ffffff" stroke="transparent" points="200,-38.2 200,-414.2 534,-414.2 534,-38.2 200,-38.2"/>
<polygon fill="#f5f5f5" stroke="transparent" points="202,-389.2 202,-412.2 532,-412.2 532,-389.2 202,-389.2"/>
<polygon fill="none" stroke="#000000" points="202,-389.2 202,-412.2 532,-412.2 532,-389.2 202,-389.2"/>
<text text-anchor="start" x="207" y="-397.8" font-family="Helvetica,sans-Serif" font-weight="bold" font-size="11.00" fill="#000000">temporary_absence_movement</text>
<text text-anchor="start" x="497.0437" y="-397.3" font-family="Helvetica,sans-Serif" font-size="11.00" fill="#000000">[table]</text>
<polygon fill="none" stroke="#000000" points="202,-367.2 202,-389.2 433,-389.2 433,-367.2 202,-367.2"/>
<image xlink:href="../../images/primaryKeys.png" width="11px" height="12px" preserveAspectRatio="xMinYMin meet" x="207" y="-384.2"/>
<text text-anchor="start" x="222" y="-374.3" font-family="Helvetica,sans-Serif" font-size="11.00" fill="#000000">id</text>
<polygon fill="none" stroke="#000000" points="433,-367.2 433,-389.2 532,-389.2 532,-367.2 433,-367.2"/>
<text text-anchor="start" x="436" y="-374.9" font-family="Helvetica,sans-Serif" font-size="11.00" fill="#000000">uuid[2147483647]</text>
<polygon fill="none" stroke="#000000" points="202,-345.2 202,-367.2 433,-367.2 433,-345.2 202,-345.2"/>
<text text-anchor="start" x="222" y="-352.3" font-family="Helvetica,sans-Serif" font-size="11.00" fill="#000000">version</text>
<polygon fill="none" stroke="#000000" points="433,-345.2 433,-367.2 532,-367.2 532,-345.2 433,-345.2"/>
<text text-anchor="start" x="436" y="-352.9" font-family="Helvetica,sans-Serif" font-size="11.00" fill="#000000">int4[10]</text>
<polygon fill="#ffffff" stroke="transparent" points="202,-323.2 202,-345.2 433,-345.2 433,-323.2 202,-323.2"/>
<polygon fill="none" stroke="#000000" points="202,-323.2 202,-345.2 433,-345.2 433,-323.2 202,-323.2"/>
<text text-anchor="start" x="222" y="-330.3" font-family="Helvetica,sans-Serif" font-size="11.00" fill="#000000">person_identifier</text>
<polygon fill="none" stroke="#000000" points="433,-323.2 433,-345.2 532,-345.2 532,-323.2 433,-323.2"/>
<text text-anchor="start" x="436" y="-330.9" font-family="Helvetica,sans-Serif" font-size="11.00" fill="#000000">varchar[10]</text>
<polygon fill="none" stroke="#000000" points="202,-301.2 202,-323.2 433,-323.2 433,-301.2 202,-301.2"/>
<text text-anchor="start" x="222" y="-308.3" font-family="Helvetica,sans-Serif" font-size="11.00" fill="#000000">occurrence_id</text>
<polygon fill="none" stroke="#000000" points="433,-301.2 433,-323.2 532,-323.2 532,-301.2 433,-301.2"/>
<text text-anchor="start" x="436" y="-308.9" font-family="Helvetica,sans-Serif" font-size="11.00" fill="#000000">uuid[2147483647]</text>
<polygon fill="#ffffff" stroke="transparent" points="202,-279.2 202,-301.2 433,-301.2 433,-279.2 202,-279.2"/>
<polygon fill="none" stroke="#000000" points="202,-279.2 202,-301.2 433,-301.2 433,-279.2 202,-279.2"/>
<text text-anchor="start" x="222" y="-286.3" font-family="Helvetica,sans-Serif" font-size="11.00" fill="#000000">occurred_at</text>
<polygon fill="none" stroke="#000000" points="433,-279.2 433,-301.2 532,-301.2 532,-279.2 433,-279.2"/>
<text text-anchor="start" x="436" y="-286.9" font-family="Helvetica,sans-Serif" font-size="11.00" fill="#000000">timestamp[29,6]</text>
<polygon fill="none" stroke="#000000" points="202,-257.2 202,-279.2 433,-279.2 433,-257.2 202,-257.2"/>
<text text-anchor="start" x="222" y="-264.3" font-family="Helvetica,sans-Serif" font-size="11.00" fill="#000000">direction</text>
<polygon fill="none" stroke="#000000" points="433,-257.2 433,-279.2 532,-279.2 532,-257.2 433,-257.2"/>
<text text-anchor="start" x="436" y="-264.9" font-family="Helvetica,sans-Serif" font-size="11.00" fill="#000000">varchar[3]</text>
<polygon fill="none" stroke="#000000" points="202,-235.2 202,-257.2 433,-257.2 433,-235.2 202,-235.2"/>
<image xlink:href="../../images/foreignKeys.png" width="11px" height="12px" preserveAspectRatio="xMinYMin meet" x="207" y="-252.2"/>
<text text-anchor="start" x="222" y="-242.3" font-family="Helvetica,sans-Serif" font-size="11.00" fill="#000000">absence_reason_id</text>
<polygon fill="none" stroke="#000000" points="433,-235.2 433,-257.2 532,-257.2 532,-235.2 433,-235.2"/>
<text text-anchor="start" x="436" y="-242.9" font-family="Helvetica,sans-Serif" font-size="11.00" fill="#000000">int8[19]</text>
<polygon fill="none" stroke="#000000" points="202,-213.2 202,-235.2 433,-235.2 433,-213.2 202,-213.2"/>
<image xlink:href="../../images/foreignKeys.png" width="11px" height="12px" preserveAspectRatio="xMinYMin meet" x="207" y="-230.2"/>
<text text-anchor="start" x="222" y="-220.3" font-family="Helvetica,sans-Serif" font-size="11.00" fill="#000000">accompanied_by_id</text>
<polygon fill="none" stroke="#000000" points="433,-213.2 433,-235.2 532,-235.2 532,-213.2 433,-213.2"/>
<text text-anchor="start" x="436" y="-220.9" font-family="Helvetica,sans-Serif" font-size="11.00" fill="#000000">int8[19]</text>
<polygon fill="none" stroke="#000000" points="202,-191.2 202,-213.2 433,-213.2 433,-191.2 202,-191.2"/>
<text text-anchor="start" x="222" y="-198.3" font-family="Helvetica,sans-Serif" font-size="11.00" fill="#000000">accompanied_by_notes</text>
<polygon fill="none" stroke="#000000" points="433,-191.2 433,-213.2 532,-213.2 532,-191.2 433,-191.2"/>
<text text-anchor="start" x="436" y="-198.9" font-family="Helvetica,sans-Serif" font-size="11.00" fill="#000000">text[2147483647]</text>
<polygon fill="none" stroke="#000000" points="202,-169.2 202,-191.2 433,-191.2 433,-169.2 202,-169.2"/>
<text text-anchor="start" x="222" y="-176.3" font-family="Helvetica,sans-Serif" font-size="11.00" fill="#000000">notes</text>
<polygon fill="none" stroke="#000000" points="433,-169.2 433,-191.2 532,-191.2 532,-169.2 433,-169.2"/>
<text text-anchor="start" x="436" y="-176.9" font-family="Helvetica,sans-Serif" font-size="11.00" fill="#000000">text[2147483647]</text>
<polygon fill="none" stroke="#000000" points="202,-147.2 202,-169.2 433,-169.2 433,-147.2 202,-147.2"/>
<text text-anchor="start" x="222" y="-154.3" font-family="Helvetica,sans-Serif" font-size="11.00" fill="#000000">recorded_at</text>
<polygon fill="none" stroke="#000000" points="433,-147.2 433,-169.2 532,-169.2 532,-147.2 433,-147.2"/>
<text text-anchor="start" x="436" y="-154.9" font-family="Helvetica,sans-Serif" font-size="11.00" fill="#000000">timestamp[29,6]</text>
<polygon fill="none" stroke="#000000" points="202,-125.2 202,-147.2 433,-147.2 433,-125.2 202,-125.2"/>
<text text-anchor="start" x="222" y="-132.3" font-family="Helvetica,sans-Serif" font-size="11.00" fill="#000000">recorded_by</text>
<polygon fill="none" stroke="#000000" points="433,-125.2 433,-147.2 532,-147.2 532,-125.2 433,-125.2"/>
<text text-anchor="start" x="436" y="-132.9" font-family="Helvetica,sans-Serif" font-size="11.00" fill="#000000">varchar[64]</text>
<polygon fill="none" stroke="#000000" points="202,-103.2 202,-125.2 433,-125.2 433,-103.2 202,-103.2"/>
<text text-anchor="start" x="222" y="-110.3" font-family="Helvetica,sans-Serif" font-size="11.00" fill="#000000">recorded_by_prison_code</text>
<polygon fill="none" stroke="#000000" points="433,-103.2 433,-125.2 532,-125.2 532,-103.2 433,-103.2"/>
<text text-anchor="start" x="436" y="-110.9" font-family="Helvetica,sans-Serif" font-size="11.00" fill="#000000">varchar[6]</text>
<polygon fill="#ffffff" stroke="transparent" points="202,-81.2 202,-103.2 433,-103.2 433,-81.2 202,-81.2"/>
<polygon fill="none" stroke="#000000" points="202,-81.2 202,-103.2 433,-103.2 433,-81.2 202,-81.2"/>
<text text-anchor="start" x="222" y="-88.3" font-family="Helvetica,sans-Serif" font-size="11.00" fill="#000000">legacy_id</text>
<polygon fill="none" stroke="#000000" points="433,-81.2 433,-103.2 532,-103.2 532,-81.2 433,-81.2"/>
<text text-anchor="start" x="436" y="-88.9" font-family="Helvetica,sans-Serif" font-size="11.00" fill="#000000">varchar[32]</text>
<polygon fill="none" stroke="#000000" points="202,-59.2 202,-81.2 433,-81.2 433,-59.2 202,-59.2"/>
<text text-anchor="start" x="222" y="-66.3" font-family="Helvetica,sans-Serif" font-size="11.00" fill="#000000">location</text>
<polygon fill="none" stroke="#000000" points="433,-59.2 433,-81.2 532,-81.2 532,-59.2 433,-59.2"/>
<text text-anchor="start" x="435.7258" y="-66.9" font-family="Helvetica,sans-Serif" font-size="11.00" fill="#000000">jsonb[2147483647]</text>
<polygon fill="#ffffff" stroke="transparent" points="202,-40.2 202,-59.2 322,-59.2 322,-40.2 202,-40.2"/>
<polygon fill="none" stroke="#000000" points="202,-40.2 202,-59.2 322,-59.2 322,-40.2 202,-40.2"/>
<text text-anchor="start" x="205" y="-46.3" font-family="Helvetica,sans-Serif" font-size="11.00" fill="#000000">&lt; 2</text>
<polygon fill="#ffffff" stroke="transparent" points="322,-40.2 322,-59.2 433,-59.2 433,-40.2 322,-40.2"/>
<polygon fill="none" stroke="#000000" points="322,-40.2 322,-59.2 433,-59.2 433,-40.2 322,-40.2"/>
<text text-anchor="start" x="423.8862" y="-46.3" font-family="Helvetica,sans-Serif" font-size="11.00" fill="#000000"> &#160;</text>
<polygon fill="#ffffff" stroke="transparent" points="433,-40.2 433,-59.2 532,-59.2 532,-40.2 433,-40.2"/>
<polygon fill="none" stroke="#000000" points="433,-40.2 433,-59.2 532,-59.2 532,-40.2 433,-40.2"/>
<text text-anchor="start" x="513.4053" y="-46.3" font-family="Helvetica,sans-Serif" font-size="11.00" fill="#000000">0 &gt;</text>
<polygon fill="none" stroke="#000000" stroke-width="2" points="201,-39.2 201,-413.2 533,-413.2 533,-39.2 201,-39.2"/>
</a>
</g>
</g>
<!-- reference_data -->
<g id="node2" class="node">
<title>reference_data</title>
<g id="a_node2"><a xlink:href="../../tables/reference_data.html" xlink:title="reference_data" target="_top">
<polygon fill="#ffffff" stroke="transparent" points="8,-120.7 8,-269.7 151,-269.7 151,-120.7 8,-120.7"/>
<polygon fill="#f5f5f5" stroke="transparent" points="8.5,-246.2 8.5,-269.2 151.5,-269.2 151.5,-246.2 8.5,-246.2"/>
<polygon fill="none" stroke="#000000" points="8.5,-246.2 8.5,-269.2 151.5,-269.2 151.5,-246.2 8.5,-246.2"/>
<text text-anchor="start" x="13.5" y="-254.8" font-family="Helvetica,sans-Serif" font-weight="bold" font-size="11.00" fill="#000000">reference_data</text>
<text text-anchor="start" x="116.5437" y="-254.3" font-family="Helvetica,sans-Serif" font-size="11.00" fill="#000000">[table]</text>
<polygon fill="none" stroke="#000000" points="8.5,-224.2 8.5,-246.2 151.5,-246.2 151.5,-224.2 8.5,-224.2"/>
<image xlink:href="../../images/primaryKeys.png" width="11px" height="12px" preserveAspectRatio="xMinYMin meet" x="13.5" y="-241.2"/>
<text text-anchor="start" x="28.5" y="-231.3" font-family="Helvetica,sans-Serif" font-size="11.00" fill="#000000">id</text>
<polygon fill="#ffffff" stroke="transparent" points="8.5,-202.2 8.5,-224.2 151.5,-224.2 151.5,-202.2 8.5,-202.2"/>
<polygon fill="none" stroke="#000000" points="8.5,-202.2 8.5,-224.2 151.5,-224.2 151.5,-202.2 8.5,-202.2"/>
<image xlink:href="../../images/foreignKeys.png" width="11px" height="12px" preserveAspectRatio="xMinYMin meet" x="13.5" y="-219.2"/>
<text text-anchor="start" x="28.5" y="-209.3" font-family="Helvetica,sans-Serif" font-size="11.00" fill="#000000">domain</text>
<polygon fill="#ffffff" stroke="transparent" points="8.5,-180.2 8.5,-202.2 151.5,-202.2 151.5,-180.2 8.5,-180.2"/>
<polygon fill="none" stroke="#000000" points="8.5,-180.2 8.5,-202.2 151.5,-202.2 151.5,-180.2 8.5,-180.2"/>
<text text-anchor="start" x="28.5" y="-187.3" font-family="Helvetica,sans-Serif" font-size="11.00" fill="#000000">code</text>
<polygon fill="#ffffff" stroke="transparent" points="8.5,-158.2 8.5,-180.2 151.5,-180.2 151.5,-158.2 8.5,-158.2"/>
<polygon fill="none" stroke="#000000" points="8.5,-158.2 8.5,-180.2 151.5,-180.2 151.5,-158.2 8.5,-158.2"/>
<text text-anchor="start" x="28.5" y="-165.3" font-family="Helvetica,sans-Serif" font-size="11.00" fill="#000000">sequence_number</text>
<polygon fill="none" stroke="#000000" points="8.5,-139.2 8.5,-158.2 151.5,-158.2 151.5,-139.2 8.5,-139.2"/>
<text text-anchor="start" x="11.5" y="-145.3" font-family="Helvetica,sans-Serif" font-size="11.00" fill="#000000">...</text>
<polygon fill="#ffffff" stroke="transparent" points="8.5,-120.2 8.5,-139.2 51.5,-139.2 51.5,-120.2 8.5,-120.2"/>
<polygon fill="none" stroke="#000000" points="8.5,-120.2 8.5,-139.2 51.5,-139.2 51.5,-120.2 8.5,-120.2"/>
<text text-anchor="start" x="11.5" y="-126.3" font-family="Helvetica,sans-Serif" font-size="11.00" fill="#000000">&lt; 1</text>
<polygon fill="#ffffff" stroke="transparent" points="51.5,-120.2 51.5,-139.2 112.5,-139.2 112.5,-120.2 51.5,-120.2"/>
<polygon fill="none" stroke="#000000" points="51.5,-120.2 51.5,-139.2 112.5,-139.2 112.5,-120.2 51.5,-120.2"/>
<text text-anchor="start" x="64.8807" y="-126.3" font-family="Helvetica,sans-Serif" font-size="11.00" fill="#000000">158 rows</text>
<polygon fill="#ffffff" stroke="transparent" points="112.5,-120.2 112.5,-139.2 151.5,-139.2 151.5,-120.2 112.5,-120.2"/>
<polygon fill="none" stroke="#000000" points="112.5,-120.2 112.5,-139.2 151.5,-139.2 151.5,-120.2 112.5,-120.2"/>
<text text-anchor="start" x="126.7904" y="-126.3" font-family="Helvetica,sans-Serif" font-size="11.00" fill="#000000">11 &gt;</text>
</a>
</g>
</g>
<!-- temporary_absence_movement&#45;&gt;reference_data -->
<g id="edge1" class="edge">
<title>temporary_absence_movement:w&#45;&gt;reference_data:e</title>
<path fill="none" stroke="#000000" d="M187.6489,-244.4813C175.5992,-241.3875 168.728,-235.2 151.5,-235.2"/>
<polygon fill="#000000" stroke="#000000" points="194.0568,-245.2486 201.5719,-249.7745 198.0284,-245.7243 202,-246.2 202,-246.2 202,-246.2 198.0284,-245.7243 202.4281,-242.6255 194.0568,-245.2486 194.0568,-245.2486"/>
<ellipse fill="none" stroke="#000000" cx="190.8795" cy="-244.8681" rx="3.2" ry="3.2"/>
</g>
<!-- temporary_absence_movement&#45;&gt;reference_data -->
<g id="edge2" class="edge">
<title>temporary_absence_movement:w&#45;&gt;reference_data:e</title>
<path fill="none" stroke="#000000" d="M187.6489,-225.9188C175.5992,-229.0125 168.728,-235.2 151.5,-235.2"/>
<polygon fill="#000000" stroke="#000000" points="194.0568,-225.1514 202.4281,-227.7745 198.0284,-224.6757 202,-224.2 202,-224.2 202,-224.2 198.0284,-224.6757 201.5719,-220.6255 194.0568,-225.1514 194.0568,-225.1514"/>
<ellipse fill="none" stroke="#000000" cx="190.8795" cy="-225.5319" rx="3.2" ry="3.2"/>
</g>
</g>
</svg>
