<?xml version="1.0" encoding="UTF-8" standalone="no"?>
<!DOCTYPE svg PUBLIC "-//W3C//DTD SVG 1.1//EN"
 "http://www.w3.org/Graphics/SVG/1.1/DTD/svg11.dtd">
<!-- Generated by graphviz version 2.40.1 (20161225.0304)
 -->
<!-- Title: twoDegreesRelationshipsDiagram Pages: 1 -->
<svg width="1410pt" height="861pt"
 viewBox="0.00 0.00 1410.00 860.70" xmlns="http://www.w3.org/2000/svg" xmlns:xlink="http://www.w3.org/1999/xlink">
<g id="graph0" class="graph" transform="scale(1 1) rotate(0) translate(4 856.7)">
<title>twoDegreesRelationshipsDiagram</title>
<polygon fill="#ffffff" stroke="transparent" points="-4,4 -4,-856.7 1406,-856.7 1406,4 -4,4"/>
<text text-anchor="middle" x="72.4936" y="-7.3" font-family="Helvetica,sans-Serif" font-size="11.00" fill="#000000">Generated by SchemaSpy</text>
<!-- reference_data -->
<g id="node1" class="node">
<title>reference_data</title>
<g id="a_node1"><a xlink:href="../../tables/reference_data.html" xlink:title="reference_data" target="_top">
<polygon fill="#ffffff" stroke="transparent" points="253,-575.7 253,-636.7 393,-636.7 393,-575.7 253,-575.7"/>
<polygon fill="#f5f5f5" stroke="transparent" points="253,-613.2 253,-636.2 393,-636.2 393,-613.2 253,-613.2"/>
<polygon fill="none" stroke="#000000" points="253,-613.2 253,-636.2 393,-636.2 393,-613.2 253,-613.2"/>
<text text-anchor="start" x="258" y="-621.8" font-family="Helvetica,sans-Serif" font-weight="bold" font-size="11.00" fill="#000000">reference_data</text>
<text text-anchor="start" x="358.5219" y="-621.3" font-family="Helvetica,sans-Serif" font-size="11.00" fill="#000000">[table]</text>
<polygon fill="none" stroke="#000000" points="253,-594.2 253,-613.2 393,-613.2 393,-594.2 253,-594.2"/>
<text text-anchor="start" x="256" y="-600.3" font-family="Helvetica,sans-Serif" font-size="11.00" fill="#000000">...</text>
<polygon fill="#ffffff" stroke="transparent" points="253,-575.2 253,-594.2 314,-594.2 314,-575.2 253,-575.2"/>
<polygon fill="none" stroke="#000000" points="253,-575.2 253,-594.2 314,-594.2 314,-575.2 253,-575.2"/>
<text text-anchor="start" x="256" y="-581.3" font-family="Helvetica,sans-Serif" font-size="11.00" fill="#000000">&lt; 1</text>
<polygon fill="#ffffff" stroke="transparent" points="314,-575.2 314,-594.2 346,-594.2 346,-575.2 314,-575.2"/>
<polygon fill="none" stroke="#000000" points="314,-575.2 314,-594.2 346,-594.2 346,-575.2 314,-575.2"/>
<text text-anchor="start" x="336.8862" y="-581.3" font-family="Helvetica,sans-Serif" font-size="11.00" fill="#000000"> &#160;</text>
<polygon fill="#ffffff" stroke="transparent" points="346,-575.2 346,-594.2 393,-594.2 393,-575.2 346,-575.2"/>
<polygon fill="none" stroke="#000000" points="346,-575.2 346,-594.2 393,-594.2 393,-575.2 346,-575.2"/>
<text text-anchor="start" x="368.2904" y="-581.3" font-family="Helvetica,sans-Serif" font-size="11.00" fill="#000000">18 &gt;</text>
</a>
</g>
</g>
<!-- reference_data_domain -->
<g id="node2" class="node">
<title>reference_data_domain</title>
<g id="a_node2"><a xlink:href="../../tables/reference_data_domain.html" xlink:title="reference_data_domain" target="_top">
<polygon fill="#ffffff" stroke="transparent" points="8,-644.7 8,-705.7 204,-705.7 204,-644.7 8,-644.7"/>
<polygon fill="#f5f5f5" stroke="transparent" points="8,-682.2 8,-705.2 204,-705.2 204,-682.2 8,-682.2"/>
<polygon fill="none" stroke="#000000" points="8,-682.2 8,-705.2 204,-705.2 204,-682.2 8,-682.2"/>
<text text-anchor="start" x="13" y="-690.8" font-family="Helvetica,sans-Serif" font-weight="bold" font-size="11.00" fill="#000000">reference_data_domain</text>
<text text-anchor="start" x="169.5219" y="-690.3" font-family="Helvetica,sans-Serif" font-size="11.00" fill="#000000">[table]</text>
<polygon fill="none" stroke="#000000" points="8,-663.2 8,-682.2 204,-682.2 204,-663.2 8,-663.2"/>
<text text-anchor="start" x="11" y="-669.3" font-family="Helvetica,sans-Serif" font-size="11.00" fill="#000000">...</text>
<polygon fill="#ffffff" stroke="transparent" points="8,-644.2 8,-663.2 95,-663.2 95,-644.2 8,-644.2"/>
<polygon fill="none" stroke="#000000" points="8,-644.2 8,-663.2 95,-663.2 95,-644.2 8,-644.2"/>
<text text-anchor="start" x="11" y="-650.3" font-family="Helvetica,sans-Serif" font-size="11.00" fill="#000000"> &#160;</text>
<polygon fill="#ffffff" stroke="transparent" points="95,-644.2 95,-663.2 145,-663.2 145,-644.2 95,-644.2"/>
<polygon fill="none" stroke="#000000" points="95,-644.2 95,-663.2 145,-663.2 145,-644.2 95,-644.2"/>
<text text-anchor="start" x="135.8862" y="-650.3" font-family="Helvetica,sans-Serif" font-size="11.00" fill="#000000"> &#160;</text>
<polygon fill="#ffffff" stroke="transparent" points="145,-644.2 145,-663.2 204,-663.2 204,-644.2 145,-644.2"/>
<polygon fill="none" stroke="#000000" points="145,-644.2 145,-663.2 204,-663.2 204,-644.2 145,-644.2"/>
<text text-anchor="start" x="185.4053" y="-650.3" font-family="Helvetica,sans-Serif" font-size="11.00" fill="#000000">2 &gt;</text>
</a>
</g>
</g>
<!-- reference_data&#45;&gt;reference_data_domain -->
<g id="edge1" class="edge">
<title>reference_data:w&#45;&gt;reference_data_domain:e</title>
<path fill="none" stroke="#000000" d="M271.8997,-649.0411C251.978,-661.6806 228.145,-672.2 204,-672.2"/>
<polygon fill="#000000" stroke="#000000" points="277.4654,-645.2501 286.1039,-643.7217 280.7713,-642.9982 284.0773,-640.7464 284.0773,-640.7464 284.0773,-640.7464 280.7713,-642.9982 282.0506,-637.771 277.4654,-645.2501 277.4654,-645.2501"/>
<ellipse fill="none" stroke="#000000" cx="274.8206" cy="-647.0515" rx="3.2" ry="3.2"/>
</g>
<!-- reference_data_domain_link -->
<g id="node3" class="node">
<title>reference_data_domain_link</title>
<g id="a_node3"><a xlink:href="../../tables/reference_data_domain_link.html" xlink:title="reference_data_domain_link" target="_top">
<polygon fill="#ffffff" stroke="transparent" points="505,-787.7 505,-848.7 732,-848.7 732,-787.7 505,-787.7"/>
<polygon fill="#f5f5f5" stroke="transparent" points="505.5,-825.2 505.5,-848.2 732.5,-848.2 732.5,-825.2 505.5,-825.2"/>
<polygon fill="none" stroke="#000000" points="505.5,-825.2 505.5,-848.2 732.5,-848.2 732.5,-825.2 505.5,-825.2"/>
<text text-anchor="start" x="510.5" y="-833.8" font-family="Helvetica,sans-Serif" font-weight="bold" font-size="11.00" fill="#000000">reference_data_domain_link</text>
<text text-anchor="start" x="698.0219" y="-833.3" font-family="Helvetica,sans-Serif" font-size="11.00" fill="#000000">[table]</text>
<polygon fill="none" stroke="#000000" points="505.5,-806.2 505.5,-825.2 732.5,-825.2 732.5,-806.2 505.5,-806.2"/>
<text text-anchor="start" x="508.5" y="-812.3" font-family="Helvetica,sans-Serif" font-size="11.00" fill="#000000">...</text>
<polygon fill="#ffffff" stroke="transparent" points="505.5,-787.2 505.5,-806.2 617.5,-806.2 617.5,-787.2 505.5,-787.2"/>
<polygon fill="none" stroke="#000000" points="505.5,-787.2 505.5,-806.2 617.5,-806.2 617.5,-787.2 505.5,-787.2"/>
<text text-anchor="start" x="508.5" y="-793.3" font-family="Helvetica,sans-Serif" font-size="11.00" fill="#000000">&lt; 2</text>
<polygon fill="#ffffff" stroke="transparent" points="617.5,-787.2 617.5,-806.2 674.5,-806.2 674.5,-787.2 617.5,-787.2"/>
<polygon fill="none" stroke="#000000" points="617.5,-787.2 617.5,-806.2 674.5,-806.2 674.5,-787.2 617.5,-787.2"/>
<text text-anchor="start" x="665.3862" y="-793.3" font-family="Helvetica,sans-Serif" font-size="11.00" fill="#000000"> &#160;</text>
<polygon fill="#ffffff" stroke="transparent" points="674.5,-787.2 674.5,-806.2 732.5,-806.2 732.5,-787.2 674.5,-787.2"/>
<polygon fill="none" stroke="#000000" points="674.5,-787.2 674.5,-806.2 732.5,-806.2 732.5,-787.2 674.5,-787.2"/>
<text text-anchor="start" x="723.3862" y="-793.3" font-family="Helvetica,sans-Serif" font-size="11.00" fill="#000000"> &#160;</text>
</a>
</g>
</g>
<!-- reference_data_domain_link&#45;&gt;reference_data -->
<g id="edge3" class="edge">
<title>reference_data_domain_link:w&#45;&gt;reference_data:e</title>
<path fill="none" stroke="#000000" d="M494.9624,-814.7468C467.4234,-812.1946 457.7339,-798.9484 434,-777.2 431.048,-774.495 376.7822,-690.1333 345.2392,-640.9348"/>
<polygon fill="#000000" stroke="#000000" points="504.8726,-811.1693 504.5288,-819.1619 502.9303,-819.0932 503.2741,-811.1006 504.8726,-811.1693"/>
<polyline fill="none" stroke="#000000" points="505.5,-815.2 501.5037,-815.0281 "/>
<ellipse fill="none" stroke="#000000" cx="498.3066" cy="-814.8906" rx="3.2" ry="3.2"/>
</g>
<!-- reference_data_domain_link&#45;&gt;reference_data_domain -->
<g id="edge2" class="edge">
<title>reference_data_domain_link:w&#45;&gt;reference_data_domain:e</title>
<path fill="none" stroke="#000000" d="M490.7838,-814.7102C356.6904,-805.5917 347.239,-672.2 204,-672.2"/>
<polygon fill="#000000" stroke="#000000" points="497.5044,-814.9339 505.3802,-818.798 501.5022,-815.0669 505.5,-815.2 505.5,-815.2 505.5,-815.2 501.5022,-815.0669 505.6198,-811.602 497.5044,-814.9339 497.5044,-814.9339"/>
<ellipse fill="none" stroke="#000000" cx="494.3062" cy="-814.8274" rx="3.2" ry="3.2"/>
</g>
<!-- reference_data_link -->
<g id="node4" class="node">
<title>reference_data_link</title>
<g id="a_node4"><a xlink:href="../../tables/reference_data_link.html" xlink:title="reference_data_link" target="_top">
<polygon fill="#ffffff" stroke="transparent" points="533,-705.7 533,-766.7 704,-766.7 704,-705.7 533,-705.7"/>
<polygon fill="#f5f5f5" stroke="transparent" points="533.5,-743.2 533.5,-766.2 704.5,-766.2 704.5,-743.2 533.5,-743.2"/>
<polygon fill="none" stroke="#000000" points="533.5,-743.2 533.5,-766.2 704.5,-766.2 704.5,-743.2 533.5,-743.2"/>
<text text-anchor="start" x="538.5" y="-751.8" font-family="Helvetica,sans-Serif" font-weight="bold" font-size="11.00" fill="#000000">reference_data_link</text>
<text text-anchor="start" x="670.0219" y="-751.3" font-family="Helvetica,sans-Serif" font-size="11.00" fill="#000000">[table]</text>
<polygon fill="none" stroke="#000000" points="533.5,-724.2 533.5,-743.2 704.5,-743.2 704.5,-724.2 533.5,-724.2"/>
<text text-anchor="start" x="536.5" y="-730.3" font-family="Helvetica,sans-Serif" font-size="11.00" fill="#000000">...</text>
<polygon fill="#ffffff" stroke="transparent" points="533.5,-705.2 533.5,-724.2 617.5,-724.2 617.5,-705.2 533.5,-705.2"/>
<polygon fill="none" stroke="#000000" points="533.5,-705.2 533.5,-724.2 617.5,-724.2 617.5,-705.2 533.5,-705.2"/>
<text text-anchor="start" x="536.5" y="-711.3" font-family="Helvetica,sans-Serif" font-size="11.00" fill="#000000">&lt; 2</text>
<polygon fill="#ffffff" stroke="transparent" points="617.5,-705.2 617.5,-724.2 660.5,-724.2 660.5,-705.2 617.5,-705.2"/>
<polygon fill="none" stroke="#000000" points="617.5,-705.2 617.5,-724.2 660.5,-724.2 660.5,-705.2 617.5,-705.2"/>
<text text-anchor="start" x="651.3862" y="-711.3" font-family="Helvetica,sans-Serif" font-size="11.00" fill="#000000"> &#160;</text>
<polygon fill="#ffffff" stroke="transparent" points="660.5,-705.2 660.5,-724.2 704.5,-724.2 704.5,-705.2 660.5,-705.2"/>
<polygon fill="none" stroke="#000000" points="660.5,-705.2 660.5,-724.2 704.5,-724.2 704.5,-705.2 660.5,-705.2"/>
<text text-anchor="start" x="695.3862" y="-711.3" font-family="Helvetica,sans-Serif" font-size="11.00" fill="#000000"> &#160;</text>
</a>
</g>
</g>
<!-- reference_data_link&#45;&gt;reference_data -->
<g id="edge4" class="edge">
<title>reference_data_link:w&#45;&gt;reference_data:e</title>
<path fill="none" stroke="#000000" d="M518.9709,-731.7028C455.2178,-722.1339 395.6788,-674.5965 359.3335,-640.8118"/>
<polygon fill="#000000" stroke="#000000" points="525.5421,-732.3799 533.131,-736.781 529.5211,-732.79 533.5,-733.2 533.5,-733.2 533.5,-733.2 529.5211,-732.79 533.869,-729.619 525.5421,-732.3799 525.5421,-732.3799"/>
<ellipse fill="none" stroke="#000000" cx="522.359" cy="-732.0519" rx="3.2" ry="3.2"/>
</g>
<!-- reference_data_link&#45;&gt;reference_data -->
<g id="edge5" class="edge">
<title>reference_data_link:w&#45;&gt;reference_data:e</title>
<path fill="none" stroke="#000000" d="M518.6783,-733.3487C449.5339,-730.3859 385.3826,-677.5414 350.4526,-640.8394"/>
<polygon fill="#000000" stroke="#000000" points="525.5004,-733.2803 533.5361,-736.7998 529.5002,-733.2401 533.5,-733.2 533.5,-733.2 533.5,-733.2 529.5002,-733.2401 533.4639,-729.6002 525.5004,-733.2803 525.5004,-733.2803"/>
<ellipse fill="none" stroke="#000000" cx="522.3006" cy="-733.3124" rx="3.2" ry="3.2"/>
</g>
<!-- temporary_absence_authorisation -->
<g id="node5" class="node">
<title>temporary_absence_authorisation</title>
<g id="a_node5"><a xlink:href="../../tables/temporary_absence_authorisation.html" xlink:title="temporary_absence_authorisation" target="_top">
<polygon fill="#ffffff" stroke="transparent" points="442,-38.2 442,-546.2 795,-546.2 795,-38.2 442,-38.2"/>
<polygon fill="#f5f5f5" stroke="transparent" points="444.5,-521.2 444.5,-544.2 793.5,-544.2 793.5,-521.2 444.5,-521.2"/>
<polygon fill="none" stroke="#000000" points="444.5,-521.2 444.5,-544.2 793.5,-544.2 793.5,-521.2 444.5,-521.2"/>
<text text-anchor="start" x="449.5" y="-529.8" font-family="Helvetica,sans-Serif" font-weight="bold" font-size="11.00" fill="#000000">temporary_absence_authorisation</text>
<text text-anchor="start" x="758.5437" y="-529.3" font-family="Helvetica,sans-Serif" font-size="11.00" fill="#000000">[table]</text>
<polygon fill="none" stroke="#000000" points="444.5,-499.2 444.5,-521.2 694.5,-521.2 694.5,-499.2 444.5,-499.2"/>
<image xlink:href="../../images/primaryKeys.png" width="11px" height="12px" preserveAspectRatio="xMinYMin meet" x="449.5" y="-516.2"/>
<text text-anchor="start" x="464.5" y="-506.3" font-family="Helvetica,sans-Serif" font-size="11.00" fill="#000000">id</text>
<polygon fill="none" stroke="#000000" points="694.5,-499.2 694.5,-521.2 793.5,-521.2 793.5,-499.2 694.5,-499.2"/>
<text text-anchor="start" x="697.5" y="-506.9" font-family="Helvetica,sans-Serif" font-size="11.00" fill="#000000">uuid[2147483647]</text>
<polygon fill="none" stroke="#000000" points="444.5,-477.2 444.5,-499.2 694.5,-499.2 694.5,-477.2 444.5,-477.2"/>
<text text-anchor="start" x="464.5" y="-484.3" font-family="Helvetica,sans-Serif" font-size="11.00" fill="#000000">version</text>
<polygon fill="none" stroke="#000000" points="694.5,-477.2 694.5,-499.2 793.5,-499.2 793.5,-477.2 694.5,-477.2"/>
<text text-anchor="start" x="697.5" y="-484.9" font-family="Helvetica,sans-Serif" font-size="11.00" fill="#000000">int4[10]</text>
<polygon fill="#ffffff" stroke="transparent" points="444.5,-455.2 444.5,-477.2 694.5,-477.2 694.5,-455.2 444.5,-455.2"/>
<polygon fill="none" stroke="#000000" points="444.5,-455.2 444.5,-477.2 694.5,-477.2 694.5,-455.2 444.5,-455.2"/>
<text text-anchor="start" x="464.5" y="-462.3" font-family="Helvetica,sans-Serif" font-size="11.00" fill="#000000">person_identifier</text>
<polygon fill="none" stroke="#000000" points="694.5,-455.2 694.5,-477.2 793.5,-477.2 793.5,-455.2 694.5,-455.2"/>
<text text-anchor="start" x="697.5" y="-462.9" font-family="Helvetica,sans-Serif" font-size="11.00" fill="#000000">varchar[10]</text>
<polygon fill="#ffffff" stroke="transparent" points="444.5,-433.2 444.5,-455.2 694.5,-455.2 694.5,-433.2 444.5,-433.2"/>
<polygon fill="none" stroke="#000000" points="444.5,-433.2 444.5,-455.2 694.5,-455.2 694.5,-433.2 444.5,-433.2"/>
<text text-anchor="start" x="464.5" y="-440.3" font-family="Helvetica,sans-Serif" font-size="11.00" fill="#000000">prison_code</text>
<polygon fill="none" stroke="#000000" points="694.5,-433.2 694.5,-455.2 793.5,-455.2 793.5,-433.2 694.5,-433.2"/>
<text text-anchor="start" x="697.5" y="-440.9" font-family="Helvetica,sans-Serif" font-size="11.00" fill="#000000">varchar[6]</text>
<polygon fill="none" stroke="#000000" points="444.5,-411.2 444.5,-433.2 694.5,-433.2 694.5,-411.2 444.5,-411.2"/>
<image xlink:href="../../images/foreignKeys.png" width="11px" height="12px" preserveAspectRatio="xMinYMin meet" x="449.5" y="-428.2"/>
<text text-anchor="start" x="464.5" y="-418.3" font-family="Helvetica,sans-Serif" font-size="11.00" fill="#000000">absence_type_id</text>
<polygon fill="none" stroke="#000000" points="694.5,-411.2 694.5,-433.2 793.5,-433.2 793.5,-411.2 694.5,-411.2"/>
<text text-anchor="start" x="697.5" y="-418.9" font-family="Helvetica,sans-Serif" font-size="11.00" fill="#000000">int8[19]</text>
<polygon fill="none" stroke="#000000" points="444.5,-389.2 444.5,-411.2 694.5,-411.2 694.5,-389.2 444.5,-389.2"/>
<image xlink:href="../../images/foreignKeys.png" width="11px" height="12px" preserveAspectRatio="xMinYMin meet" x="449.5" y="-406.2"/>
<text text-anchor="start" x="464.5" y="-396.3" font-family="Helvetica,sans-Serif" font-size="11.00" fill="#000000">absence_sub_type_id</text>
<polygon fill="none" stroke="#000000" points="694.5,-389.2 694.5,-411.2 793.5,-411.2 793.5,-389.2 694.5,-389.2"/>
<text text-anchor="start" x="697.5" y="-396.9" font-family="Helvetica,sans-Serif" font-size="11.00" fill="#000000">int8[19]</text>
<polygon fill="none" stroke="#000000" points="444.5,-367.2 444.5,-389.2 694.5,-389.2 694.5,-367.2 444.5,-367.2"/>
<image xlink:href="../../images/foreignKeys.png" width="11px" height="12px" preserveAspectRatio="xMinYMin meet" x="449.5" y="-384.2"/>
<text text-anchor="start" x="464.5" y="-374.3" font-family="Helvetica,sans-Serif" font-size="11.00" fill="#000000">absence_reason_id</text>
<polygon fill="none" stroke="#000000" points="694.5,-367.2 694.5,-389.2 793.5,-389.2 793.5,-367.2 694.5,-367.2"/>
<text text-anchor="start" x="697.5" y="-374.9" font-family="Helvetica,sans-Serif" font-size="11.00" fill="#000000">int8[19]</text>
<polygon fill="none" stroke="#000000" points="444.5,-345.2 444.5,-367.2 694.5,-367.2 694.5,-345.2 444.5,-345.2"/>
<text text-anchor="start" x="464.5" y="-352.3" font-family="Helvetica,sans-Serif" font-size="11.00" fill="#000000">repeat</text>
<polygon fill="none" stroke="#000000" points="694.5,-345.2 694.5,-367.2 793.5,-367.2 793.5,-345.2 694.5,-345.2"/>
<text text-anchor="start" x="697.5" y="-352.9" font-family="Helvetica,sans-Serif" font-size="11.00" fill="#000000">bool[1]</text>
<polygon fill="none" stroke="#000000" points="444.5,-323.2 444.5,-345.2 694.5,-345.2 694.5,-323.2 444.5,-323.2"/>
<image xlink:href="../../images/foreignKeys.png" width="11px" height="12px" preserveAspectRatio="xMinYMin meet" x="449.5" y="-340.2"/>
<text text-anchor="start" x="464.5" y="-330.3" font-family="Helvetica,sans-Serif" font-size="11.00" fill="#000000">status_id</text>
<polygon fill="none" stroke="#000000" points="694.5,-323.2 694.5,-345.2 793.5,-345.2 793.5,-323.2 694.5,-323.2"/>
<text text-anchor="start" x="697.5" y="-330.9" font-family="Helvetica,sans-Serif" font-size="11.00" fill="#000000">int8[19]</text>
<polygon fill="none" stroke="#000000" points="444.5,-301.2 444.5,-323.2 694.5,-323.2 694.5,-301.2 444.5,-301.2"/>
<text text-anchor="start" x="464.5" y="-308.3" font-family="Helvetica,sans-Serif" font-size="11.00" fill="#000000">notes</text>
<polygon fill="none" stroke="#000000" points="694.5,-301.2 694.5,-323.2 793.5,-323.2 793.5,-301.2 694.5,-301.2"/>
<text text-anchor="start" x="697.5" y="-308.9" font-family="Helvetica,sans-Serif" font-size="11.00" fill="#000000">text[2147483647]</text>
<polygon fill="none" stroke="#000000" points="444.5,-279.2 444.5,-301.2 694.5,-301.2 694.5,-279.2 444.5,-279.2"/>
<text text-anchor="start" x="464.5" y="-286.3" font-family="Helvetica,sans-Serif" font-size="11.00" fill="#000000">submitted_at</text>
<polygon fill="none" stroke="#000000" points="694.5,-279.2 694.5,-301.2 793.5,-301.2 793.5,-279.2 694.5,-279.2"/>
<text text-anchor="start" x="697.5" y="-286.9" font-family="Helvetica,sans-Serif" font-size="11.00" fill="#000000">timestamp[29,6]</text>
<polygon fill="none" stroke="#000000" points="444.5,-257.2 444.5,-279.2 694.5,-279.2 694.5,-257.2 444.5,-257.2"/>
<text text-anchor="start" x="464.5" y="-264.3" font-family="Helvetica,sans-Serif" font-size="11.00" fill="#000000">submitted_by</text>
<polygon fill="none" stroke="#000000" points="694.5,-257.2 694.5,-279.2 793.5,-279.2 793.5,-257.2 694.5,-257.2"/>
<text text-anchor="start" x="697.5" y="-264.9" font-family="Helvetica,sans-Serif" font-size="11.00" fill="#000000">varchar[64]</text>
<polygon fill="none" stroke="#000000" points="444.5,-235.2 444.5,-257.2 694.5,-257.2 694.5,-235.2 444.5,-235.2"/>
<text text-anchor="start" x="464.5" y="-242.3" font-family="Helvetica,sans-Serif" font-size="11.00" fill="#000000">approved_at</text>
<polygon fill="none" stroke="#000000" points="694.5,-235.2 694.5,-257.2 793.5,-257.2 793.5,-235.2 694.5,-235.2"/>
<text text-anchor="start" x="697.5" y="-242.9" font-family="Helvetica,sans-Serif" font-size="11.00" fill="#000000">timestamp[29,6]</text>
<polygon fill="none" stroke="#000000" points="444.5,-213.2 444.5,-235.2 694.5,-235.2 694.5,-213.2 444.5,-213.2"/>
<text text-anchor="start" x="464.5" y="-220.3" font-family="Helvetica,sans-Serif" font-size="11.00" fill="#000000">approved_by</text>
<polygon fill="none" stroke="#000000" points="694.5,-213.2 694.5,-235.2 793.5,-235.2 793.5,-213.2 694.5,-213.2"/>
<text text-anchor="start" x="697.5" y="-220.9" font-family="Helvetica,sans-Serif" font-size="11.00" fill="#000000">varchar[64]</text>
<polygon fill="#ffffff" stroke="transparent" points="444.5,-191.2 444.5,-213.2 694.5,-213.2 694.5,-191.2 444.5,-191.2"/>
<polygon fill="none" stroke="#000000" points="444.5,-191.2 444.5,-213.2 694.5,-213.2 694.5,-191.2 444.5,-191.2"/>
<text text-anchor="start" x="464.5" y="-198.3" font-family="Helvetica,sans-Serif" font-size="11.00" fill="#000000">legacy_id</text>
<polygon fill="none" stroke="#000000" points="694.5,-191.2 694.5,-213.2 793.5,-213.2 793.5,-191.2 694.5,-191.2"/>
<text text-anchor="start" x="697.5" y="-198.9" font-family="Helvetica,sans-Serif" font-size="11.00" fill="#000000">int8[19]</text>
<polygon fill="#ffffff" stroke="transparent" points="444.5,-169.2 444.5,-191.2 694.5,-191.2 694.5,-169.2 444.5,-169.2"/>
<polygon fill="none" stroke="#000000" points="444.5,-169.2 444.5,-191.2 694.5,-191.2 694.5,-169.2 444.5,-169.2"/>
<text text-anchor="start" x="464.5" y="-176.3" font-family="Helvetica,sans-Serif" font-size="11.00" fill="#000000">from_date</text>
<polygon fill="none" stroke="#000000" points="694.5,-169.2 694.5,-191.2 793.5,-191.2 793.5,-169.2 694.5,-169.2"/>
<text text-anchor="start" x="697.5" y="-176.9" font-family="Helvetica,sans-Serif" font-size="11.00" fill="#000000">date[13]</text>
<polygon fill="#ffffff" stroke="transparent" points="444.5,-147.2 444.5,-169.2 694.5,-169.2 694.5,-147.2 444.5,-147.2"/>
<polygon fill="none" stroke="#000000" points="444.5,-147.2 444.5,-169.2 694.5,-169.2 694.5,-147.2 444.5,-147.2"/>
<text text-anchor="start" x="464.5" y="-154.3" font-family="Helvetica,sans-Serif" font-size="11.00" fill="#000000">to_date</text>
<polygon fill="none" stroke="#000000" points="694.5,-147.2 694.5,-169.2 793.5,-169.2 793.5,-147.2 694.5,-147.2"/>
<text text-anchor="start" x="697.5" y="-154.9" font-family="Helvetica,sans-Serif" font-size="11.00" fill="#000000">date[13]</text>
<polygon fill="none" stroke="#000000" points="444.5,-125.2 444.5,-147.2 694.5,-147.2 694.5,-125.2 444.5,-125.2"/>
<text text-anchor="start" x="464.5" y="-132.3" font-family="Helvetica,sans-Serif" font-size="11.00" fill="#000000">schedule</text>
<polygon fill="none" stroke="#000000" points="694.5,-125.2 694.5,-147.2 793.5,-147.2 793.5,-125.2 694.5,-125.2"/>
<text text-anchor="start" x="697.2258" y="-132.9" font-family="Helvetica,sans-Serif" font-size="11.00" fill="#000000">jsonb[2147483647]</text>
<polygon fill="none" stroke="#000000" points="444.5,-103.2 444.5,-125.2 694.5,-125.2 694.5,-103.2 444.5,-103.2"/>
<image xlink:href="../../images/foreignKeys.png" width="11px" height="12px" preserveAspectRatio="xMinYMin meet" x="449.5" y="-120.2"/>
<text text-anchor="start" x="464.5" y="-110.3" font-family="Helvetica,sans-Serif" font-size="11.00" fill="#000000">absence_reason_category_id</text>
<polygon fill="none" stroke="#000000" points="694.5,-103.2 694.5,-125.2 793.5,-125.2 793.5,-103.2 694.5,-103.2"/>
<text text-anchor="start" x="697.5" y="-110.9" font-family="Helvetica,sans-Serif" font-size="11.00" fill="#000000">int8[19]</text>
<polygon fill="none" stroke="#000000" points="444.5,-81.2 444.5,-103.2 694.5,-103.2 694.5,-81.2 444.5,-81.2"/>
<text text-anchor="start" x="464.5" y="-88.3" font-family="Helvetica,sans-Serif" font-size="11.00" fill="#000000">reason_path</text>
<polygon fill="none" stroke="#000000" points="694.5,-81.2 694.5,-103.2 793.5,-103.2 793.5,-81.2 694.5,-81.2"/>
<text text-anchor="start" x="697.2258" y="-88.9" font-family="Helvetica,sans-Serif" font-size="11.00" fill="#000000">jsonb[2147483647]</text>
<polygon fill="none" stroke="#000000" points="444.5,-59.2 444.5,-81.2 694.5,-81.2 694.5,-59.2 444.5,-59.2"/>
<image xlink:href="../../images/foreignKeys.png" width="11px" height="12px" preserveAspectRatio="xMinYMin meet" x="449.5" y="-76.2"/>
<text text-anchor="start" x="464.5" y="-66.3" font-family="Helvetica,sans-Serif" font-size="11.00" fill="#000000">accompanied_by_id</text>
<polygon fill="none" stroke="#000000" points="694.5,-59.2 694.5,-81.2 793.5,-81.2 793.5,-59.2 694.5,-59.2"/>
<text text-anchor="start" x="697.5" y="-66.9" font-family="Helvetica,sans-Serif" font-size="11.00" fill="#000000">int8[19]</text>
<polygon fill="#ffffff" stroke="transparent" points="444.5,-40.2 444.5,-59.2 573.5,-59.2 573.5,-40.2 444.5,-40.2"/>
<polygon fill="none" stroke="#000000" points="444.5,-40.2 444.5,-59.2 573.5,-59.2 573.5,-40.2 444.5,-40.2"/>
<text text-anchor="start" x="447.5" y="-46.3" font-family="Helvetica,sans-Serif" font-size="11.00" fill="#000000">&lt; 6</text>
<polygon fill="#ffffff" stroke="transparent" points="573.5,-40.2 573.5,-59.2 694.5,-59.2 694.5,-40.2 573.5,-40.2"/>
<polygon fill="none" stroke="#000000" points="573.5,-40.2 573.5,-59.2 694.5,-59.2 694.5,-40.2 573.5,-40.2"/>
<text text-anchor="start" x="685.3862" y="-46.3" font-family="Helvetica,sans-Serif" font-size="11.00" fill="#000000"> &#160;</text>
<polygon fill="#ffffff" stroke="transparent" points="694.5,-40.2 694.5,-59.2 793.5,-59.2 793.5,-40.2 694.5,-40.2"/>
<polygon fill="none" stroke="#000000" points="694.5,-40.2 694.5,-59.2 793.5,-59.2 793.5,-40.2 694.5,-40.2"/>
<text text-anchor="start" x="774.9053" y="-46.3" font-family="Helvetica,sans-Serif" font-size="11.00" fill="#000000">1 &gt;</text>
<polygon fill="none" stroke="#000000" stroke-width="2" points="443,-39.2 443,-545.2 794,-545.2 794,-39.2 443,-39.2"/>
</a>
</g>
</g>
<!-- temporary_absence_authorisation&#45;&gt;reference_data -->
<g id="edge6" class="edge">
<title>temporary_absence_authorisation:w&#45;&gt;reference_data:e</title>
<path fill="none" stroke="#000000" d="M430.1711,-116.9968C347.9149,-149.9812 328.3685,-465.5196 324.1043,-571.6035"/>
<polygon fill="#000000" stroke="#000000" points="436.6482,-115.7326 445.1897,-117.7333 440.5741,-114.9663 444.5,-114.2 444.5,-114.2 444.5,-114.2 440.5741,-114.9663 443.8103,-110.6667 436.6482,-115.7326 436.6482,-115.7326"/>
<ellipse fill="none" stroke="#000000" cx="433.5074" cy="-116.3457" rx="3.2" ry="3.2"/>
</g>
<!-- temporary_absence_authorisation&#45;&gt;reference_data -->
<g id="edge7" class="edge">
<title>temporary_absence_authorisation:w&#45;&gt;reference_data:e</title>
<path fill="none" stroke="#000000" d="M429.9076,-379.4954C355.0544,-393.1603 332.4191,-511.5267 325.7253,-571.5717"/>
<polygon fill="#000000" stroke="#000000" points="436.5313,-378.9075 444.8184,-381.7859 440.5157,-378.5537 444.5,-378.2 444.5,-378.2 444.5,-378.2 440.5157,-378.5537 444.1816,-374.6141 436.5313,-378.9075 436.5313,-378.9075"/>
<ellipse fill="none" stroke="#000000" cx="433.3439" cy="-379.1904" rx="3.2" ry="3.2"/>
</g>
<!-- temporary_absence_authorisation&#45;&gt;reference_data -->
<g id="edge8" class="edge">
<title>temporary_absence_authorisation:w&#45;&gt;reference_data:e</title>
<path fill="none" stroke="#000000" d="M429.9367,-401.5549C362.3886,-414.4516 336.5725,-516.2703 327.485,-571.2549"/>
<polygon fill="#000000" stroke="#000000" points="436.5344,-400.9412 444.8335,-403.7845 440.5172,-400.5706 444.5,-400.2 444.5,-400.2 444.5,-400.2 440.5172,-400.5706 444.1665,-396.6155 436.5344,-400.9412 436.5344,-400.9412"/>
<ellipse fill="none" stroke="#000000" cx="433.3482" cy="-401.2376" rx="3.2" ry="3.2"/>
</g>
<!-- temporary_absence_authorisation&#45;&gt;reference_data -->
<g id="edge9" class="edge">
<title>temporary_absence_authorisation:w&#45;&gt;reference_data:e</title>
<path fill="none" stroke="#000000" d="M430.132,-423.5769C369.2903,-435.5012 340.9048,-522.0384 329.5112,-571.591"/>
<polygon fill="#000000" stroke="#000000" points="436.5365,-422.9632 444.8434,-425.7836 440.5182,-422.5816 444.5,-422.2 444.5,-422.2 444.5,-422.2 440.5182,-422.5816 444.1566,-418.6164 436.5365,-422.9632 436.5365,-422.9632"/>
<ellipse fill="none" stroke="#000000" cx="433.3511" cy="-423.2685" rx="3.2" ry="3.2"/>
</g>
<!-- temporary_absence_authorisation&#45;&gt;reference_data -->
<g id="edge10" class="edge">
<title>temporary_absence_authorisation:w&#45;&gt;reference_data:e</title>
<path fill="none" stroke="#000000" d="M431.8344,-77.5644C384.7721,-131.1745 340.5821,-462.413 327.1473,-571.4445"/>
<polygon fill="#000000" stroke="#000000" points="437.5841,-74.2213 446.3096,-73.3122 441.042,-72.2106 444.5,-70.2 444.5,-70.2 444.5,-70.2 441.042,-72.2106 442.6904,-67.0878 437.5841,-74.2213 437.5841,-74.2213"/>
<ellipse fill="none" stroke="#000000" cx="434.8177" cy="-75.8298" rx="3.2" ry="3.2"/>
</g>
<!-- temporary_absence_authorisation&#45;&gt;reference_data -->
<g id="edge11" class="edge">
<title>temporary_absence_authorisation:w&#45;&gt;reference_data:e</title>
<path fill="none" stroke="#000000" d="M430.5282,-338.1477C385.1048,-363.536 346.6742,-504.8782 330.8003,-571.4747"/>
<polygon fill="#000000" stroke="#000000" points="436.8014,-336.3752 445.4789,-337.6644 440.6507,-335.2876 444.5,-334.2 444.5,-334.2 444.5,-334.2 440.6507,-335.2876 443.5211,-330.7356 436.8014,-336.3752 436.8014,-336.3752"/>
<ellipse fill="none" stroke="#000000" cx="433.722" cy="-337.2453" rx="3.2" ry="3.2"/>
</g>
<!-- temporary_absence_movement -->
<g id="node6" class="node">
<title>temporary_absence_movement</title>
<g id="a_node6"><a xlink:href="../../tables/temporary_absence_movement.html" xlink:title="temporary_absence_movement" target="_top">
<polygon fill="#ffffff" stroke="transparent" points="1145,-647.7 1145,-708.7 1394,-708.7 1394,-647.7 1145,-647.7"/>
<polygon fill="#f5f5f5" stroke="transparent" points="1145.5,-685.2 1145.5,-708.2 1394.5,-708.2 1394.5,-685.2 1145.5,-685.2"/>
<polygon fill="none" stroke="#000000" points="1145.5,-685.2 1145.5,-708.2 1394.5,-708.2 1394.5,-685.2 1145.5,-685.2"/>
<text text-anchor="start" x="1150.5" y="-693.8" font-family="Helvetica,sans-Serif" font-weight="bold" font-size="11.00" fill="#000000">temporary_absence_movement</text>
<text text-anchor="start" x="1360.0219" y="-693.3" font-family="Helvetica,sans-Serif" font-size="11.00" fill="#000000">[table]</text>
<polygon fill="none" stroke="#000000" points="1145.5,-666.2 1145.5,-685.2 1394.5,-685.2 1394.5,-666.2 1145.5,-666.2"/>
<text text-anchor="start" x="1148.5" y="-672.3" font-family="Helvetica,sans-Serif" font-size="11.00" fill="#000000">...</text>
<polygon fill="#ffffff" stroke="transparent" points="1145.5,-647.2 1145.5,-666.2 1268.5,-666.2 1268.5,-647.2 1145.5,-647.2"/>
<polygon fill="none" stroke="#000000" points="1145.5,-647.2 1145.5,-666.2 1268.5,-666.2 1268.5,-647.2 1145.5,-647.2"/>
<text text-anchor="start" x="1148.5" y="-653.3" font-family="Helvetica,sans-Serif" font-size="11.00" fill="#000000">&lt; 3</text>
<polygon fill="#ffffff" stroke="transparent" points="1268.5,-647.2 1268.5,-666.2 1331.5,-666.2 1331.5,-647.2 1268.5,-647.2"/>
<polygon fill="none" stroke="#000000" points="1268.5,-647.2 1268.5,-666.2 1331.5,-666.2 1331.5,-647.2 1268.5,-647.2"/>
<text text-anchor="start" x="1322.3862" y="-653.3" font-family="Helvetica,sans-Serif" font-size="11.00" fill="#000000"> &#160;</text>
<polygon fill="#ffffff" stroke="transparent" points="1331.5,-647.2 1331.5,-666.2 1394.5,-666.2 1394.5,-647.2 1331.5,-647.2"/>
<polygon fill="none" stroke="#000000" points="1331.5,-647.2 1331.5,-666.2 1394.5,-666.2 1394.5,-647.2 1331.5,-647.2"/>
<text text-anchor="start" x="1385.3862" y="-653.3" font-family="Helvetica,sans-Serif" font-size="11.00" fill="#000000"> &#160;</text>
</a>
</g>
</g>
<!-- temporary_absence_movement&#45;&gt;reference_data -->
<g id="edge12" class="edge">
<title>temporary_absence_movement:w&#45;&gt;reference_data:e</title>
<path fill="none" stroke="#000000" d="M1130.8365,-674.9546C826.3753,-670.5404 738.4324,-711.9131 434,-646.2 423.0911,-643.8453 411.8939,-640.4657 401.0054,-636.6473"/>
<polygon fill="#000000" stroke="#000000" points="1137.5011,-675.0661 1145.4397,-678.7995 1141.5006,-675.133 1145.5,-675.2 1145.5,-675.2 1145.5,-675.2 1141.5006,-675.133 1145.5603,-671.6005 1137.5011,-675.0661 1137.5011,-675.0661"/>
<ellipse fill="none" stroke="#000000" cx="1134.3016" cy="-675.0125" rx="3.2" ry="3.2"/>
</g>
<!-- temporary_absence_movement&#45;&gt;reference_data -->
<g id="edge13" class="edge">
<title>temporary_absence_movement:w&#45;&gt;reference_data:e</title>
<path fill="none" stroke="#000000" d="M1130.8365,-675.5545C826.3753,-683.5404 738.4324,-724.9131 434,-659.2 415.5466,-655.2168 396.2683,-648.301 379.0545,-640.7147"/>
<polygon fill="#000000" stroke="#000000" points="1137.5023,-675.3934 1145.587,-678.7989 1141.5012,-675.2967 1145.5,-675.2 1145.5,-675.2 1145.5,-675.2 1141.5012,-675.2967 1145.413,-671.6011 1137.5023,-675.3934 1137.5023,-675.3934"/>
<ellipse fill="none" stroke="#000000" cx="1134.3033" cy="-675.4708" rx="3.2" ry="3.2"/>
</g>
<!-- temporary_absence_occurrence -->
<g id="node7" class="node">
<title>temporary_absence_occurrence</title>
<g id="a_node7"><a xlink:href="../../tables/temporary_absence_occurrence.html" xlink:title="temporary_absence_occurrence" target="_top">
<polygon fill="#ffffff" stroke="transparent" points="844,-575.7 844,-636.7 1096,-636.7 1096,-575.7 844,-575.7"/>
<polygon fill="#f5f5f5" stroke="transparent" points="844,-613.2 844,-636.2 1096,-636.2 1096,-613.2 844,-613.2"/>
<polygon fill="none" stroke="#000000" points="844,-613.2 844,-636.2 1096,-636.2 1096,-613.2 844,-613.2"/>
<text text-anchor="start" x="849" y="-621.8" font-family="Helvetica,sans-Serif" font-weight="bold" font-size="11.00" fill="#000000">temporary_absence_occurrence</text>
<text text-anchor="start" x="1061.5219" y="-621.3" font-family="Helvetica,sans-Serif" font-size="11.00" fill="#000000">[table]</text>
<polygon fill="none" stroke="#000000" points="844,-594.2 844,-613.2 1096,-613.2 1096,-594.2 844,-594.2"/>
<text text-anchor="start" x="847" y="-600.3" font-family="Helvetica,sans-Serif" font-size="11.00" fill="#000000">...</text>
<polygon fill="#ffffff" stroke="transparent" points="844,-575.2 844,-594.2 964,-594.2 964,-575.2 844,-575.2"/>
<polygon fill="none" stroke="#000000" points="844,-575.2 844,-594.2 964,-594.2 964,-575.2 844,-575.2"/>
<text text-anchor="start" x="847" y="-581.3" font-family="Helvetica,sans-Serif" font-size="11.00" fill="#000000">&lt; 8</text>
<polygon fill="#ffffff" stroke="transparent" points="964,-575.2 964,-594.2 1025,-594.2 1025,-575.2 964,-575.2"/>
<polygon fill="none" stroke="#000000" points="964,-575.2 964,-594.2 1025,-594.2 1025,-575.2 964,-575.2"/>
<text text-anchor="start" x="1015.8862" y="-581.3" font-family="Helvetica,sans-Serif" font-size="11.00" fill="#000000"> &#160;</text>
<polygon fill="#ffffff" stroke="transparent" points="1025,-575.2 1025,-594.2 1096,-594.2 1096,-575.2 1025,-575.2"/>
<polygon fill="none" stroke="#000000" points="1025,-575.2 1025,-594.2 1096,-594.2 1096,-575.2 1025,-575.2"/>
<text text-anchor="start" x="1077.4053" y="-581.3" font-family="Helvetica,sans-Serif" font-size="11.00" fill="#000000">1 &gt;</text>
</a>
</g>
</g>
<!-- temporary_absence_movement&#45;&gt;temporary_absence_occurrence -->
<g id="edge14" class="edge">
<title>temporary_absence_movement:w&#45;&gt;temporary_absence_occurrence:e</title>
<path fill="none" stroke="#000000" d="M1131.9009,-670.0328C1115.491,-663.6516 1086.4857,-652.2337 1057.515,-640.8011"/>
<polygon fill="#000000" stroke="#000000" points="1138.0217,-672.3584 1144.2213,-678.5653 1141.7608,-673.7792 1145.5,-675.2 1145.5,-675.2 1145.5,-675.2 1141.7608,-673.7792 1146.7787,-671.8347 1138.0217,-672.3584 1138.0217,-672.3584"/>
<ellipse fill="none" stroke="#000000" cx="1135.0303" cy="-671.2218" rx="3.2" ry="3.2"/>
</g>
<!-- temporary_absence_occurrence&#45;&gt;reference_data -->
<g id="edge15" class="edge">
<title>temporary_absence_occurrence:w&#45;&gt;reference_data:e</title>
<path fill="none" stroke="#000000" d="M821.4528,-581.1434C690.5092,-574.1659 504.8698,-575.8959 401.0483,-586.3334"/>
<polygon fill="#000000" stroke="#000000" points="827.954,-581.512 835.7374,-585.5591 831.9476,-581.7384 835.9412,-581.9648 835.9412,-581.9648 835.9412,-581.9648 831.9476,-581.7384 836.145,-578.3706 827.954,-581.512 827.954,-581.512"/>
<ellipse fill="none" stroke="#000000" cx="824.7591" cy="-581.3308" rx="3.2" ry="3.2"/>
</g>
<!-- temporary_absence_occurrence&#45;&gt;reference_data -->
<g id="edge16" class="edge">
<title>temporary_absence_occurrence:w&#45;&gt;reference_data:e</title>
<path fill="none" stroke="#000000" d="M821.4528,-589.4956C690.5092,-584.8439 504.8698,-585.9973 401.0483,-592.9556"/>
<polygon fill="#000000" stroke="#000000" points="827.9469,-589.741 835.8052,-593.6407 831.944,-589.8921 835.9412,-590.0432 835.9412,-590.0432 835.9412,-590.0432 831.944,-589.8921 836.0772,-586.4458 827.9469,-589.741 827.9469,-589.741"/>
<ellipse fill="none" stroke="#000000" cx="824.7492" cy="-589.6201" rx="3.2" ry="3.2"/>
</g>
<!-- temporary_absence_occurrence&#45;&gt;reference_data -->
<g id="edge17" class="edge">
<title>temporary_absence_occurrence:w&#45;&gt;reference_data:e</title>
<path fill="none" stroke="#000000" d="M821.4528,-597.8478C690.5092,-595.522 504.8698,-596.0986 401.0483,-599.5778"/>
<polygon fill="#000000" stroke="#000000" points="827.9426,-597.9704 835.8731,-601.721 831.9419,-598.046 835.9412,-598.1216 835.9412,-598.1216 835.9412,-598.1216 831.9419,-598.046 836.0092,-594.5223 827.9426,-597.9704 827.9426,-597.9704"/>
<ellipse fill="none" stroke="#000000" cx="824.7432" cy="-597.9099" rx="3.2" ry="3.2"/>
</g>
<!-- temporary_absence_occurrence&#45;&gt;reference_data -->
<g id="edge18" class="edge">
<title>temporary_absence_occurrence:w&#45;&gt;reference_data:e</title>
<path fill="none" stroke="#000000" d="M821.4528,-606.2C690.5092,-606.2 504.8698,-606.2 401.0483,-606.2"/>
<polygon fill="#000000" stroke="#000000" points="827.9412,-606.2001 835.9412,-609.8 831.9412,-606.2 835.9412,-606.2 835.9412,-606.2 835.9412,-606.2 831.9412,-606.2 835.9412,-602.6 827.9412,-606.2001 827.9412,-606.2001"/>
<ellipse fill="none" stroke="#000000" cx="824.7412" cy="-606.2001" rx="3.2" ry="3.2"/>
</g>
<!-- temporary_absence_occurrence&#45;&gt;reference_data -->
<g id="edge19" class="edge">
<title>temporary_absence_occurrence:w&#45;&gt;reference_data:e</title>
<path fill="none" stroke="#000000" d="M821.4528,-614.5522C690.5092,-616.878 504.8698,-616.3014 401.0483,-612.8222"/>
<polygon fill="#000000" stroke="#000000" points="827.9426,-614.4296 836.0092,-617.8777 831.9419,-614.354 835.9412,-614.2784 835.9412,-614.2784 835.9412,-614.2784 831.9419,-614.354 835.8731,-610.679 827.9426,-614.4296 827.9426,-614.4296"/>
<ellipse fill="none" stroke="#000000" cx="824.7432" cy="-614.4901" rx="3.2" ry="3.2"/>
</g>
<!-- temporary_absence_occurrence&#45;&gt;reference_data -->
<g id="edge21" class="edge">
<title>temporary_absence_occurrence:w&#45;&gt;reference_data:e</title>
<path fill="none" stroke="#000000" d="M821.4528,-622.9044C690.5092,-627.5561 504.8698,-626.4027 401.0483,-619.4444"/>
<polygon fill="#000000" stroke="#000000" points="827.9469,-622.659 836.0772,-625.9542 831.944,-622.5079 835.9412,-622.3568 835.9412,-622.3568 835.9412,-622.3568 831.944,-622.5079 835.8052,-618.7593 827.9469,-622.659 827.9469,-622.659"/>
<ellipse fill="none" stroke="#000000" cx="824.7492" cy="-622.7799" rx="3.2" ry="3.2"/>
</g>
<!-- temporary_absence_occurrence&#45;&gt;reference_data -->
<g id="edge22" class="edge">
<title>temporary_absence_occurrence:w&#45;&gt;reference_data:e</title>
<path fill="none" stroke="#000000" d="M821.4528,-631.2566C690.5092,-638.2341 504.8698,-636.5041 401.0483,-626.0666"/>
<polygon fill="#000000" stroke="#000000" points="827.954,-630.888 836.145,-634.0294 831.9476,-630.6616 835.9412,-630.4352 835.9412,-630.4352 835.9412,-630.4352 831.9476,-630.6616 835.7374,-626.8409 827.954,-630.888 827.954,-630.888"/>
<ellipse fill="none" stroke="#000000" cx="824.7591" cy="-631.0692" rx="3.2" ry="3.2"/>
</g>
<!-- temporary_absence_occurrence&#45;&gt;temporary_absence_authorisation -->
<g id="edge20" class="edge">
<title>temporary_absence_occurrence:w&#45;&gt;temporary_absence_authorisation:e</title>
<path fill="none" stroke="#000000" d="M920.8209,-562.3438C887.3565,-537.0453 840.7211,-510.2 793.5,-510.2"/>
<polygon fill="#000000" stroke="#000000" points="926.2394,-566.6001 930.3069,-574.3728 929.385,-569.0709 932.5306,-571.5418 932.5306,-571.5418 932.5306,-571.5418 929.385,-569.0709 934.7544,-568.7107 926.2394,-566.6001 926.2394,-566.6001"/>
<ellipse fill="none" stroke="#000000" cx="923.7229" cy="-564.6234" rx="3.2" ry="3.2"/>
</g>
</g>
</svg>
