<?xml version="1.0" encoding="UTF-8" standalone="no"?>
<!DOCTYPE svg PUBLIC "-//W3C//DTD SVG 1.1//EN"
 "http://www.w3.org/Graphics/SVG/1.1/DTD/svg11.dtd">
<!-- Generated by graphviz version 2.40.1 (20161225.0304)
 -->
<!-- Title: oneDegreeRelationshipsDiagram Pages: 1 -->
<svg width="851pt" height="630pt"
 viewBox="0.00 0.00 851.00 629.70" xmlns="http://www.w3.org/2000/svg" xmlns:xlink="http://www.w3.org/1999/xlink">
<g id="graph0" class="graph" transform="scale(1 1) rotate(0) translate(4 625.7)">
<title>oneDegreeRelationshipsDiagram</title>
<polygon fill="#ffffff" stroke="transparent" points="-4,4 -4,-625.7 847,-625.7 847,4 -4,4"/>
<text text-anchor="middle" x="72.4936" y="-7.3" font-family="Helvetica,sans-Serif" font-size="11.00" fill="#000000">Generated by SchemaSpy</text>
<!-- temporary_absence_movement -->
<g id="node1" class="node">
<title>temporary_absence_movement</title>
<g id="a_node1"><a xlink:href="../../tables/temporary_absence_movement.html" xlink:title="temporary_absence_movement" target="_top">
<polygon fill="#ffffff" stroke="transparent" points="501,-38.2 501,-414.2 835,-414.2 835,-38.2 501,-38.2"/>
<polygon fill="#f5f5f5" stroke="transparent" points="503,-389.2 503,-412.2 833,-412.2 833,-389.2 503,-389.2"/>
<polygon fill="none" stroke="#000000" points="503,-389.2 503,-412.2 833,-412.2 833,-389.2 503,-389.2"/>
<text text-anchor="start" x="508" y="-397.8" font-family="Helvetica,sans-Serif" font-weight="bold" font-size="11.00" fill="#000000">temporary_absence_movement</text>
<text text-anchor="start" x="798.0437" y="-397.3" font-family="Helvetica,sans-Serif" font-size="11.00" fill="#000000">[table]</text>
<polygon fill="none" stroke="#000000" points="503,-367.2 503,-389.2 734,-389.2 734,-367.2 503,-367.2"/>
<image xlink:href="../../images/primaryKeys.png" width="11px" height="12px" preserveAspectRatio="xMinYMin meet" x="508" y="-384.2"/>
<text text-anchor="start" x="523" y="-374.3" font-family="Helvetica,sans-Serif" font-size="11.00" fill="#000000">id</text>
<polygon fill="none" stroke="#000000" points="734,-367.2 734,-389.2 833,-389.2 833,-367.2 734,-367.2"/>
<text text-anchor="start" x="737" y="-374.9" font-family="Helvetica,sans-Serif" font-size="11.00" fill="#000000">uuid[2147483647]</text>
<polygon fill="none" stroke="#000000" points="503,-345.2 503,-367.2 734,-367.2 734,-345.2 503,-345.2"/>
<text text-anchor="start" x="523" y="-352.3" font-family="Helvetica,sans-Serif" font-size="11.00" fill="#000000">version</text>
<polygon fill="none" stroke="#000000" points="734,-345.2 734,-367.2 833,-367.2 833,-345.2 734,-345.2"/>
<text text-anchor="start" x="737" y="-352.9" font-family="Helvetica,sans-Serif" font-size="11.00" fill="#000000">int4[10]</text>
<polygon fill="#ffffff" stroke="transparent" points="503,-323.2 503,-345.2 734,-345.2 734,-323.2 503,-323.2"/>
<polygon fill="none" stroke="#000000" points="503,-323.2 503,-345.2 734,-345.2 734,-323.2 503,-323.2"/>
<text text-anchor="start" x="523" y="-330.3" font-family="Helvetica,sans-Serif" font-size="11.00" fill="#000000">person_identifier</text>
<polygon fill="none" stroke="#000000" points="734,-323.2 734,-345.2 833,-345.2 833,-323.2 734,-323.2"/>
<text text-anchor="start" x="737" y="-330.9" font-family="Helvetica,sans-Serif" font-size="11.00" fill="#000000">varchar[10]</text>
<polygon fill="none" stroke="#000000" points="503,-301.2 503,-323.2 734,-323.2 734,-301.2 503,-301.2"/>
<image xlink:href="../../images/foreignKeys.png" width="11px" height="12px" preserveAspectRatio="xMinYMin meet" x="508" y="-318.2"/>
<text text-anchor="start" x="523" y="-308.3" font-family="Helvetica,sans-Serif" font-size="11.00" fill="#000000">occurrence_id</text>
<polygon fill="none" stroke="#000000" points="734,-301.2 734,-323.2 833,-323.2 833,-301.2 734,-301.2"/>
<text text-anchor="start" x="737" y="-308.9" font-family="Helvetica,sans-Serif" font-size="11.00" fill="#000000">uuid[2147483647]</text>
<polygon fill="#ffffff" stroke="transparent" points="503,-279.2 503,-301.2 734,-301.2 734,-279.2 503,-279.2"/>
<polygon fill="none" stroke="#000000" points="503,-279.2 503,-301.2 734,-301.2 734,-279.2 503,-279.2"/>
<text text-anchor="start" x="523" y="-286.3" font-family="Helvetica,sans-Serif" font-size="11.00" fill="#000000">occurred_at</text>
<polygon fill="none" stroke="#000000" points="734,-279.2 734,-301.2 833,-301.2 833,-279.2 734,-279.2"/>
<text text-anchor="start" x="737" y="-286.9" font-family="Helvetica,sans-Serif" font-size="11.00" fill="#000000">timestamp[29,6]</text>
<polygon fill="none" stroke="#000000" points="503,-257.2 503,-279.2 734,-279.2 734,-257.2 503,-257.2"/>
<text text-anchor="start" x="523" y="-264.3" font-family="Helvetica,sans-Serif" font-size="11.00" fill="#000000">direction</text>
<polygon fill="none" stroke="#000000" points="734,-257.2 734,-279.2 833,-279.2 833,-257.2 734,-257.2"/>
<text text-anchor="start" x="737" y="-264.9" font-family="Helvetica,sans-Serif" font-size="11.00" fill="#000000">varchar[3]</text>
<polygon fill="none" stroke="#000000" points="503,-235.2 503,-257.2 734,-257.2 734,-235.2 503,-235.2"/>
<image xlink:href="../../images/foreignKeys.png" width="11px" height="12px" preserveAspectRatio="xMinYMin meet" x="508" y="-252.2"/>
<text text-anchor="start" x="523" y="-242.3" font-family="Helvetica,sans-Serif" font-size="11.00" fill="#000000">absence_reason_id</text>
<polygon fill="none" stroke="#000000" points="734,-235.2 734,-257.2 833,-257.2 833,-235.2 734,-235.2"/>
<text text-anchor="start" x="737" y="-242.9" font-family="Helvetica,sans-Serif" font-size="11.00" fill="#000000">int8[19]</text>
<polygon fill="none" stroke="#000000" points="503,-213.2 503,-235.2 734,-235.2 734,-213.2 503,-213.2"/>
<image xlink:href="../../images/foreignKeys.png" width="11px" height="12px" preserveAspectRatio="xMinYMin meet" x="508" y="-230.2"/>
<text text-anchor="start" x="523" y="-220.3" font-family="Helvetica,sans-Serif" font-size="11.00" fill="#000000">accompanied_by_id</text>
<polygon fill="none" stroke="#000000" points="734,-213.2 734,-235.2 833,-235.2 833,-213.2 734,-213.2"/>
<text text-anchor="start" x="737" y="-220.9" font-family="Helvetica,sans-Serif" font-size="11.00" fill="#000000">int8[19]</text>
<polygon fill="none" stroke="#000000" points="503,-191.2 503,-213.2 734,-213.2 734,-191.2 503,-191.2"/>
<text text-anchor="start" x="523" y="-198.3" font-family="Helvetica,sans-Serif" font-size="11.00" fill="#000000">accompanied_by_notes</text>
<polygon fill="none" stroke="#000000" points="734,-191.2 734,-213.2 833,-213.2 833,-191.2 734,-191.2"/>
<text text-anchor="start" x="737" y="-198.9" font-family="Helvetica,sans-Serif" font-size="11.00" fill="#000000">text[2147483647]</text>
<polygon fill="none" stroke="#000000" points="503,-169.2 503,-191.2 734,-191.2 734,-169.2 503,-169.2"/>
<text text-anchor="start" x="523" y="-176.3" font-family="Helvetica,sans-Serif" font-size="11.00" fill="#000000">notes</text>
<polygon fill="none" stroke="#000000" points="734,-169.2 734,-191.2 833,-191.2 833,-169.2 734,-169.2"/>
<text text-anchor="start" x="737" y="-176.9" font-family="Helvetica,sans-Serif" font-size="11.00" fill="#000000">text[2147483647]</text>
<polygon fill="none" stroke="#000000" points="503,-147.2 503,-169.2 734,-169.2 734,-147.2 503,-147.2"/>
<text text-anchor="start" x="523" y="-154.3" font-family="Helvetica,sans-Serif" font-size="11.00" fill="#000000">recorded_at</text>
<polygon fill="none" stroke="#000000" points="734,-147.2 734,-169.2 833,-169.2 833,-147.2 734,-147.2"/>
<text text-anchor="start" x="737" y="-154.9" font-family="Helvetica,sans-Serif" font-size="11.00" fill="#000000">timestamp[29,6]</text>
<polygon fill="none" stroke="#000000" points="503,-125.2 503,-147.2 734,-147.2 734,-125.2 503,-125.2"/>
<text text-anchor="start" x="523" y="-132.3" font-family="Helvetica,sans-Serif" font-size="11.00" fill="#000000">recorded_by</text>
<polygon fill="none" stroke="#000000" points="734,-125.2 734,-147.2 833,-147.2 833,-125.2 734,-125.2"/>
<text text-anchor="start" x="737" y="-132.9" font-family="Helvetica,sans-Serif" font-size="11.00" fill="#000000">varchar[64]</text>
<polygon fill="none" stroke="#000000" points="503,-103.2 503,-125.2 734,-125.2 734,-103.2 503,-103.2"/>
<text text-anchor="start" x="523" y="-110.3" font-family="Helvetica,sans-Serif" font-size="11.00" fill="#000000">recorded_by_prison_code</text>
<polygon fill="none" stroke="#000000" points="734,-103.2 734,-125.2 833,-125.2 833,-103.2 734,-103.2"/>
<text text-anchor="start" x="737" y="-110.9" font-family="Helvetica,sans-Serif" font-size="11.00" fill="#000000">varchar[6]</text>
<polygon fill="#ffffff" stroke="transparent" points="503,-81.2 503,-103.2 734,-103.2 734,-81.2 503,-81.2"/>
<polygon fill="none" stroke="#000000" points="503,-81.2 503,-103.2 734,-103.2 734,-81.2 503,-81.2"/>
<text text-anchor="start" x="523" y="-88.3" font-family="Helvetica,sans-Serif" font-size="11.00" fill="#000000">legacy_id</text>
<polygon fill="none" stroke="#000000" points="734,-81.2 734,-103.2 833,-103.2 833,-81.2 734,-81.2"/>
<text text-anchor="start" x="737" y="-88.9" font-family="Helvetica,sans-Serif" font-size="11.00" fill="#000000">varchar[32]</text>
<polygon fill="none" stroke="#000000" points="503,-59.2 503,-81.2 734,-81.2 734,-59.2 503,-59.2"/>
<text text-anchor="start" x="523" y="-66.3" font-family="Helvetica,sans-Serif" font-size="11.00" fill="#000000">location</text>
<polygon fill="none" stroke="#000000" points="734,-59.2 734,-81.2 833,-81.2 833,-59.2 734,-59.2"/>
<text text-anchor="start" x="736.7258" y="-66.9" font-family="Helvetica,sans-Serif" font-size="11.00" fill="#000000">jsonb[2147483647]</text>
<polygon fill="#ffffff" stroke="transparent" points="503,-40.2 503,-59.2 623,-59.2 623,-40.2 503,-40.2"/>
<polygon fill="none" stroke="#000000" points="503,-40.2 503,-59.2 623,-59.2 623,-40.2 503,-40.2"/>
<text text-anchor="start" x="506" y="-46.3" font-family="Helvetica,sans-Serif" font-size="11.00" fill="#000000">&lt; 3</text>
<polygon fill="#ffffff" stroke="transparent" points="623,-40.2 623,-59.2 734,-59.2 734,-40.2 623,-40.2"/>
<polygon fill="none" stroke="#000000" points="623,-40.2 623,-59.2 734,-59.2 734,-40.2 623,-40.2"/>
<text text-anchor="start" x="724.8862" y="-46.3" font-family="Helvetica,sans-Serif" font-size="11.00" fill="#000000"> &#160;</text>
<polygon fill="#ffffff" stroke="transparent" points="734,-40.2 734,-59.2 833,-59.2 833,-40.2 734,-40.2"/>
<polygon fill="none" stroke="#000000" points="734,-40.2 734,-59.2 833,-59.2 833,-40.2 734,-40.2"/>
<text text-anchor="start" x="814.4053" y="-46.3" font-family="Helvetica,sans-Serif" font-size="11.00" fill="#000000">0 &gt;</text>
<polygon fill="none" stroke="#000000" stroke-width="2" points="502,-39.2 502,-413.2 834,-413.2 834,-39.2 502,-39.2"/>
</a>
</g>
</g>
<!-- reference_data -->
<g id="node2" class="node">
<title>reference_data</title>
<g id="a_node2"><a xlink:href="../../tables/reference_data.html" xlink:title="reference_data" target="_top">
<polygon fill="#ffffff" stroke="transparent" points="8,-248.7 8,-397.7 151,-397.7 151,-248.7 8,-248.7"/>
<polygon fill="#f5f5f5" stroke="transparent" points="8.5,-374.2 8.5,-397.2 151.5,-397.2 151.5,-374.2 8.5,-374.2"/>
<polygon fill="none" stroke="#000000" points="8.5,-374.2 8.5,-397.2 151.5,-397.2 151.5,-374.2 8.5,-374.2"/>
<text text-anchor="start" x="13.5" y="-382.8" font-family="Helvetica,sans-Serif" font-weight="bold" font-size="11.00" fill="#000000">reference_data</text>
<text text-anchor="start" x="116.5437" y="-382.3" font-family="Helvetica,sans-Serif" font-size="11.00" fill="#000000">[table]</text>
<polygon fill="none" stroke="#000000" points="8.5,-352.2 8.5,-374.2 151.5,-374.2 151.5,-352.2 8.5,-352.2"/>
<image xlink:href="../../images/primaryKeys.png" width="11px" height="12px" preserveAspectRatio="xMinYMin meet" x="13.5" y="-369.2"/>
<text text-anchor="start" x="28.5" y="-359.3" font-family="Helvetica,sans-Serif" font-size="11.00" fill="#000000">id</text>
<polygon fill="#ffffff" stroke="transparent" points="8.5,-330.2 8.5,-352.2 151.5,-352.2 151.5,-330.2 8.5,-330.2"/>
<polygon fill="none" stroke="#000000" points="8.5,-330.2 8.5,-352.2 151.5,-352.2 151.5,-330.2 8.5,-330.2"/>
<image xlink:href="../../images/foreignKeys.png" width="11px" height="12px" preserveAspectRatio="xMinYMin meet" x="13.5" y="-347.2"/>
<text text-anchor="start" x="28.5" y="-337.3" font-family="Helvetica,sans-Serif" font-size="11.00" fill="#000000">domain</text>
<polygon fill="#ffffff" stroke="transparent" points="8.5,-308.2 8.5,-330.2 151.5,-330.2 151.5,-308.2 8.5,-308.2"/>
<polygon fill="none" stroke="#000000" points="8.5,-308.2 8.5,-330.2 151.5,-330.2 151.5,-308.2 8.5,-308.2"/>
<text text-anchor="start" x="28.5" y="-315.3" font-family="Helvetica,sans-Serif" font-size="11.00" fill="#000000">code</text>
<polygon fill="#ffffff" stroke="transparent" points="8.5,-286.2 8.5,-308.2 151.5,-308.2 151.5,-286.2 8.5,-286.2"/>
<polygon fill="none" stroke="#000000" points="8.5,-286.2 8.5,-308.2 151.5,-308.2 151.5,-286.2 8.5,-286.2"/>
<text text-anchor="start" x="28.5" y="-293.3" font-family="Helvetica,sans-Serif" font-size="11.00" fill="#000000">sequence_number</text>
<polygon fill="none" stroke="#000000" points="8.5,-267.2 8.5,-286.2 151.5,-286.2 151.5,-267.2 8.5,-267.2"/>
<text text-anchor="start" x="11.5" y="-273.3" font-family="Helvetica,sans-Serif" font-size="11.00" fill="#000000">...</text>
<polygon fill="#ffffff" stroke="transparent" points="8.5,-248.2 8.5,-267.2 51.5,-267.2 51.5,-248.2 8.5,-248.2"/>
<polygon fill="none" stroke="#000000" points="8.5,-248.2 8.5,-267.2 51.5,-267.2 51.5,-248.2 8.5,-248.2"/>
<text text-anchor="start" x="11.5" y="-254.3" font-family="Helvetica,sans-Serif" font-size="11.00" fill="#000000">&lt; 1</text>
<polygon fill="#ffffff" stroke="transparent" points="51.5,-248.2 51.5,-267.2 112.5,-267.2 112.5,-248.2 51.5,-248.2"/>
<polygon fill="none" stroke="#000000" points="51.5,-248.2 51.5,-267.2 112.5,-267.2 112.5,-248.2 51.5,-248.2"/>
<text text-anchor="start" x="64.8807" y="-254.3" font-family="Helvetica,sans-Serif" font-size="11.00" fill="#000000">157 rows</text>
<polygon fill="#ffffff" stroke="transparent" points="112.5,-248.2 112.5,-267.2 151.5,-267.2 151.5,-248.2 112.5,-248.2"/>
<polygon fill="none" stroke="#000000" points="112.5,-248.2 112.5,-267.2 151.5,-267.2 151.5,-248.2 112.5,-248.2"/>
<text text-anchor="start" x="126.7904" y="-254.3" font-family="Helvetica,sans-Serif" font-size="11.00" fill="#000000">18 &gt;</text>
</a>
</g>
</g>
<!-- temporary_absence_movement&#45;&gt;reference_data -->
<g id="edge1" class="edge">
<title>temporary_absence_movement:w&#45;&gt;reference_data:e</title>
<path fill="none" stroke="#000000" d="M488.2388,-245.8979C410.439,-243.095 244.6544,-222.5639 192,-260.2 151.9822,-288.8038 200.6895,-363.2 151.5,-363.2"/>
<polygon fill="#000000" stroke="#000000" points="495.0017,-246.0363 502.9263,-249.7992 499.0008,-246.1181 503,-246.2 503,-246.2 503,-246.2 499.0008,-246.1181 503.0737,-242.6008 495.0017,-246.0363 495.0017,-246.0363"/>
<ellipse fill="none" stroke="#000000" cx="491.8023" cy="-245.9708" rx="3.2" ry="3.2"/>
</g>
<!-- temporary_absence_movement&#45;&gt;reference_data -->
<g id="edge2" class="edge">
<title>temporary_absence_movement:w&#45;&gt;reference_data:e</title>
<path fill="none" stroke="#000000" d="M488.2984,-223.9261C360.1073,-219.1514 298.1385,-154.5372 192,-235.2 144.4936,-271.3038 211.1686,-363.2 151.5,-363.2"/>
<polygon fill="#000000" stroke="#000000" points="495.0014,-224.0509 502.9329,-227.7994 499.0007,-224.1255 503,-224.2 503,-224.2 503,-224.2 499.0007,-224.1255 503.0671,-220.6006 495.0014,-224.0509 495.0014,-224.0509"/>
<ellipse fill="none" stroke="#000000" cx="491.8019" cy="-223.9913" rx="3.2" ry="3.2"/>
</g>
<!-- temporary_absence_occurrence -->
<g id="node3" class="node">
<title>temporary_absence_occurrence</title>
<g id="a_node3"><a xlink:href="../../tables/temporary_absence_occurrence.html" xlink:title="temporary_absence_occurrence" target="_top">
<polygon fill="#ffffff" stroke="transparent" points="200,-270.7 200,-617.7 452,-617.7 452,-270.7 200,-270.7"/>
<polygon fill="#f5f5f5" stroke="transparent" points="200,-594.2 200,-617.2 452,-617.2 452,-594.2 200,-594.2"/>
<polygon fill="none" stroke="#000000" points="200,-594.2 200,-617.2 452,-617.2 452,-594.2 200,-594.2"/>
<text text-anchor="start" x="205" y="-602.8" font-family="Helvetica,sans-Serif" font-weight="bold" font-size="11.00" fill="#000000">temporary_absence_occurrence</text>
<text text-anchor="start" x="417.5219" y="-602.3" font-family="Helvetica,sans-Serif" font-size="11.00" fill="#000000">[table]</text>
<polygon fill="none" stroke="#000000" points="200,-572.2 200,-594.2 452,-594.2 452,-572.2 200,-572.2"/>
<image xlink:href="../../images/primaryKeys.png" width="11px" height="12px" preserveAspectRatio="xMinYMin meet" x="205" y="-589.2"/>
<text text-anchor="start" x="229" y="-579.3" font-family="Helvetica,sans-Serif" font-size="11.00" fill="#000000">id</text>
<polygon fill="#ffffff" stroke="transparent" points="200,-550.2 200,-572.2 452,-572.2 452,-550.2 200,-550.2"/>
<polygon fill="none" stroke="#000000" points="200,-550.2 200,-572.2 452,-572.2 452,-550.2 200,-550.2"/>
<text text-anchor="start" x="229" y="-557.3" font-family="Helvetica,sans-Serif" font-size="11.00" fill="#000000">person_identifier</text>
<polygon fill="#ffffff" stroke="transparent" points="200,-528.2 200,-550.2 452,-550.2 452,-528.2 200,-528.2"/>
<polygon fill="none" stroke="#000000" points="200,-528.2 200,-550.2 452,-550.2 452,-528.2 200,-528.2"/>
<image xlink:href="../../images/foreignKeys.png" width="11px" height="12px" preserveAspectRatio="xMinYMin meet" x="205" y="-545.2"/>
<text text-anchor="start" x="229" y="-535.3" font-family="Helvetica,sans-Serif" font-size="11.00" fill="#000000">authorisation_id</text>
<polygon fill="#ffffff" stroke="transparent" points="200,-506.2 200,-528.2 452,-528.2 452,-506.2 200,-506.2"/>
<polygon fill="none" stroke="#000000" points="200,-506.2 200,-528.2 452,-528.2 452,-506.2 200,-506.2"/>
<text text-anchor="start" x="229" y="-513.3" font-family="Helvetica,sans-Serif" font-size="11.00" fill="#000000">release_at</text>
<polygon fill="#ffffff" stroke="transparent" points="200,-484.2 200,-506.2 452,-506.2 452,-484.2 200,-484.2"/>
<polygon fill="none" stroke="#000000" points="200,-484.2 200,-506.2 452,-506.2 452,-484.2 200,-484.2"/>
<text text-anchor="start" x="229" y="-491.3" font-family="Helvetica,sans-Serif" font-size="11.00" fill="#000000">return_by</text>
<polygon fill="none" stroke="#000000" points="200,-462.2 200,-484.2 452,-484.2 452,-462.2 200,-462.2"/>
<image xlink:href="../../images/foreignKeys.png" width="11px" height="12px" preserveAspectRatio="xMinYMin meet" x="205" y="-479.2"/>
<text text-anchor="start" x="229" y="-469.3" font-family="Helvetica,sans-Serif" font-size="11.00" fill="#000000">accompanied_by_id</text>
<polygon fill="none" stroke="#000000" points="200,-440.2 200,-462.2 452,-462.2 452,-440.2 200,-440.2"/>
<image xlink:href="../../images/foreignKeys.png" width="11px" height="12px" preserveAspectRatio="xMinYMin meet" x="205" y="-457.2"/>
<text text-anchor="start" x="229" y="-447.3" font-family="Helvetica,sans-Serif" font-size="11.00" fill="#000000">transport_id</text>
<polygon fill="#ffffff" stroke="transparent" points="200,-418.2 200,-440.2 452,-440.2 452,-418.2 200,-418.2"/>
<polygon fill="none" stroke="#000000" points="200,-418.2 200,-440.2 452,-440.2 452,-418.2 200,-418.2"/>
<text text-anchor="start" x="229" y="-425.3" font-family="Helvetica,sans-Serif" font-size="11.00" fill="#000000">legacy_id</text>
<polygon fill="none" stroke="#000000" points="200,-396.2 200,-418.2 452,-418.2 452,-396.2 200,-396.2"/>
<image xlink:href="../../images/foreignKeys.png" width="11px" height="12px" preserveAspectRatio="xMinYMin meet" x="205" y="-413.2"/>
<text text-anchor="start" x="229" y="-403.3" font-family="Helvetica,sans-Serif" font-size="11.00" fill="#000000">absence_type_id</text>
<polygon fill="none" stroke="#000000" points="200,-374.2 200,-396.2 452,-396.2 452,-374.2 200,-374.2"/>
<image xlink:href="../../images/foreignKeys.png" width="11px" height="12px" preserveAspectRatio="xMinYMin meet" x="205" y="-391.2"/>
<text text-anchor="start" x="229" y="-381.3" font-family="Helvetica,sans-Serif" font-size="11.00" fill="#000000">absence_sub_type_id</text>
<polygon fill="none" stroke="#000000" points="200,-352.2 200,-374.2 452,-374.2 452,-352.2 200,-352.2"/>
<image xlink:href="../../images/foreignKeys.png" width="11px" height="12px" preserveAspectRatio="xMinYMin meet" x="205" y="-369.2"/>
<text text-anchor="start" x="229" y="-359.3" font-family="Helvetica,sans-Serif" font-size="11.00" fill="#000000">absence_reason_category_id</text>
<polygon fill="none" stroke="#000000" points="200,-330.2 200,-352.2 452,-352.2 452,-330.2 200,-330.2"/>
<image xlink:href="../../images/foreignKeys.png" width="11px" height="12px" preserveAspectRatio="xMinYMin meet" x="205" y="-347.2"/>
<text text-anchor="start" x="229" y="-337.3" font-family="Helvetica,sans-Serif" font-size="11.00" fill="#000000">absence_reason_id</text>
<polygon fill="none" stroke="#000000" points="200,-308.2 200,-330.2 452,-330.2 452,-308.2 200,-308.2"/>
<image xlink:href="../../images/foreignKeys.png" width="11px" height="12px" preserveAspectRatio="xMinYMin meet" x="205" y="-325.2"/>
<text text-anchor="start" x="229" y="-315.3" font-family="Helvetica,sans-Serif" font-size="11.00" fill="#000000">status_id</text>
<polygon fill="none" stroke="#000000" points="200,-289.2 200,-308.2 452,-308.2 452,-289.2 200,-289.2"/>
<text text-anchor="start" x="203" y="-295.3" font-family="Helvetica,sans-Serif" font-size="11.00" fill="#000000">...</text>
<polygon fill="#ffffff" stroke="transparent" points="200,-270.2 200,-289.2 320,-289.2 320,-270.2 200,-270.2"/>
<polygon fill="none" stroke="#000000" points="200,-270.2 200,-289.2 320,-289.2 320,-270.2 200,-270.2"/>
<text text-anchor="start" x="203" y="-276.3" font-family="Helvetica,sans-Serif" font-size="11.00" fill="#000000">&lt; 8</text>
<polygon fill="#ffffff" stroke="transparent" points="320,-270.2 320,-289.2 381,-289.2 381,-270.2 320,-270.2"/>
<polygon fill="none" stroke="#000000" points="320,-270.2 320,-289.2 381,-289.2 381,-270.2 320,-270.2"/>
<text text-anchor="start" x="371.8862" y="-276.3" font-family="Helvetica,sans-Serif" font-size="11.00" fill="#000000"> &#160;</text>
<polygon fill="#ffffff" stroke="transparent" points="381,-270.2 381,-289.2 452,-289.2 452,-270.2 381,-270.2"/>
<polygon fill="none" stroke="#000000" points="381,-270.2 381,-289.2 452,-289.2 452,-270.2 381,-270.2"/>
<text text-anchor="start" x="433.4053" y="-276.3" font-family="Helvetica,sans-Serif" font-size="11.00" fill="#000000">1 &gt;</text>
</a>
</g>
</g>
<!-- temporary_absence_movement&#45;&gt;temporary_absence_occurrence -->
<g id="edge3" class="edge">
<title>temporary_absence_movement:w&#45;&gt;temporary_absence_occurrence:e</title>
<path fill="none" stroke="#000000" d="M488.6233,-313.7241C396.8908,-335.495 569.1728,-583.2 452,-583.2"/>
<polygon fill="#000000" stroke="#000000" points="495.0446,-313.0434 503.3795,-315.7799 499.0223,-312.6217 503,-312.2 503,-312.2 503,-312.2 499.0223,-312.6217 502.6205,-308.6201 495.0446,-313.0434 495.0446,-313.0434"/>
<ellipse fill="none" stroke="#000000" cx="491.8624" cy="-313.3808" rx="3.2" ry="3.2"/>
</g>
<!-- temporary_absence_occurrence&#45;&gt;reference_data -->
<g id="edge4" class="edge">
<title>temporary_absence_occurrence:w&#45;&gt;reference_data:e</title>
<path fill="none" stroke="#000000" d="M185.2829,-363.2C174.2886,-363.2 167.1615,-363.2 151.5,-363.2"/>
<polygon fill="#000000" stroke="#000000" points="192,-363.2001 200,-366.8 196,-363.2 200,-363.2 200,-363.2 200,-363.2 196,-363.2 200,-359.6 192,-363.2001 192,-363.2001"/>
<ellipse fill="none" stroke="#000000" cx="188.8" cy="-363.2001" rx="3.2" ry="3.2"/>
</g>
<!-- temporary_absence_occurrence&#45;&gt;reference_data -->
<g id="edge5" class="edge">
<title>temporary_absence_occurrence:w&#45;&gt;reference_data:e</title>
<path fill="none" stroke="#000000" d="M185.7648,-344.6375C174.3432,-350.825 169.2522,-363.2 151.5,-363.2"/>
<polygon fill="#000000" stroke="#000000" points="192.2235,-343.0779 200.8451,-344.6994 196.1118,-342.1389 200,-341.2 200,-341.2 200,-341.2 196.1118,-342.1389 199.1549,-337.7006 192.2235,-343.0779 192.2235,-343.0779"/>
<ellipse fill="none" stroke="#000000" cx="189.1129" cy="-343.8291" rx="3.2" ry="3.2"/>
</g>
<!-- temporary_absence_occurrence&#45;&gt;reference_data -->
<g id="edge6" class="edge">
<title>temporary_absence_occurrence:w&#45;&gt;reference_data:e</title>
<path fill="none" stroke="#000000" d="M185.7648,-381.7625C174.3432,-375.575 169.2522,-363.2 151.5,-363.2"/>
<polygon fill="#000000" stroke="#000000" points="192.2235,-383.3221 199.1549,-388.6994 196.1118,-384.2611 200,-385.2 200,-385.2 200,-385.2 196.1118,-384.2611 200.8451,-381.7006 192.2235,-383.3221 192.2235,-383.3221"/>
<ellipse fill="none" stroke="#000000" cx="189.1129" cy="-382.5709" rx="3.2" ry="3.2"/>
</g>
<!-- temporary_absence_occurrence&#45;&gt;reference_data -->
<g id="edge7" class="edge">
<title>temporary_absence_occurrence:w&#45;&gt;reference_data:e</title>
<path fill="none" stroke="#000000" d="M186.0348,-402.1526C173.2645,-390.5953 174.4651,-363.2 151.5,-363.2"/>
<polygon fill="#000000" stroke="#000000" points="192.4763,-404.4807 198.7763,-410.5857 196.2382,-405.8404 200,-407.2 200,-407.2 200,-407.2 196.2382,-405.8404 201.2237,-403.8143 192.4763,-404.4807 192.4763,-404.4807"/>
<ellipse fill="none" stroke="#000000" cx="189.4668" cy="-403.393" rx="3.2" ry="3.2"/>
</g>
<!-- temporary_absence_occurrence&#45;&gt;reference_data -->
<g id="edge8" class="edge">
<title>temporary_absence_occurrence:w&#45;&gt;reference_data:e</title>
<path fill="none" stroke="#000000" d="M185.8208,-469.285C158.3576,-449.6897 198.8774,-363.2 151.5,-363.2"/>
<polygon fill="#000000" stroke="#000000" points="192.2885,-471.0708 199.0419,-476.6702 196.1443,-472.1354 200,-473.2 200,-473.2 200,-473.2 196.1443,-472.1354 200.9581,-469.7298 192.2885,-471.0708 192.2885,-471.0708"/>
<ellipse fill="none" stroke="#000000" cx="189.204" cy="-470.2191" rx="3.2" ry="3.2"/>
</g>
<!-- temporary_absence_occurrence&#45;&gt;reference_data -->
<g id="edge9" class="edge">
<title>temporary_absence_occurrence:w&#45;&gt;reference_data:e</title>
<path fill="none" stroke="#000000" d="M186.0348,-324.2474C173.2645,-335.8047 174.4651,-363.2 151.5,-363.2"/>
<polygon fill="#000000" stroke="#000000" points="192.4763,-321.9193 201.2237,-322.5857 196.2382,-320.5596 200,-319.2 200,-319.2 200,-319.2 196.2382,-320.5596 198.7763,-315.8143 192.4763,-321.9193 192.4763,-321.9193"/>
<ellipse fill="none" stroke="#000000" cx="189.4668" cy="-323.007" rx="3.2" ry="3.2"/>
</g>
<!-- temporary_absence_occurrence&#45;&gt;reference_data -->
<g id="edge10" class="edge">
<title>temporary_absence_occurrence:w&#45;&gt;reference_data:e</title>
<path fill="none" stroke="#000000" d="M186.0395,-446.7151C164.905,-428.7824 190.0523,-363.2 151.5,-363.2"/>
<polygon fill="#000000" stroke="#000000" points="192.3834,-448.7531 198.8989,-454.6275 196.1917,-449.9765 200,-451.2 200,-451.2 200,-451.2 196.1917,-449.9765 201.1011,-447.7725 192.3834,-448.7531 192.3834,-448.7531"/>
<ellipse fill="none" stroke="#000000" cx="189.3367" cy="-447.7743" rx="3.2" ry="3.2"/>
</g>
</g>
</svg>
