<?xml version="1.0" encoding="UTF-8" standalone="no"?>
<!DOCTYPE svg PUBLIC "-//W3C//DTD SVG 1.1//EN"
 "http://www.w3.org/Graphics/SVG/1.1/DTD/svg11.dtd">
<!-- Generated by graphviz version 2.40.1 (20161225.0304)
 -->
<!-- Title: twoDegreesRelationshipsDiagram Pages: 1 -->
<svg width="1410pt" height="550pt"
 viewBox="0.00 0.00 1410.00 549.70" xmlns="http://www.w3.org/2000/svg" xmlns:xlink="http://www.w3.org/1999/xlink">
<g id="graph0" class="graph" transform="scale(1 1) rotate(0) translate(4 545.7)">
<title>twoDegreesRelationshipsDiagram</title>
<polygon fill="#ffffff" stroke="transparent" points="-4,4 -4,-545.7 1406,-545.7 1406,4 -4,4"/>
<text text-anchor="middle" x="72.4936" y="-7.3" font-family="Helvetica,sans-Serif" font-size="11.00" fill="#000000">Generated by SchemaSpy</text>
<!-- reference_data -->
<g id="node1" class="node">
<title>reference_data</title>
<g id="a_node1"><a xlink:href="../../tables/reference_data.html" xlink:title="reference_data" target="_top">
<polygon fill="#ffffff" stroke="transparent" points="253,-269.7 253,-330.7 393,-330.7 393,-269.7 253,-269.7"/>
<polygon fill="#f5f5f5" stroke="transparent" points="253,-307.2 253,-330.2 393,-330.2 393,-307.2 253,-307.2"/>
<polygon fill="none" stroke="#000000" points="253,-307.2 253,-330.2 393,-330.2 393,-307.2 253,-307.2"/>
<text text-anchor="start" x="258" y="-315.8" font-family="Helvetica,sans-Serif" font-weight="bold" font-size="11.00" fill="#000000">reference_data</text>
<text text-anchor="start" x="358.5219" y="-315.3" font-family="Helvetica,sans-Serif" font-size="11.00" fill="#000000">[table]</text>
<polygon fill="none" stroke="#000000" points="253,-288.2 253,-307.2 393,-307.2 393,-288.2 253,-288.2"/>
<text text-anchor="start" x="256" y="-294.3" font-family="Helvetica,sans-Serif" font-size="11.00" fill="#000000">...</text>
<polygon fill="#ffffff" stroke="transparent" points="253,-269.2 253,-288.2 295,-288.2 295,-269.2 253,-269.2"/>
<polygon fill="none" stroke="#000000" points="253,-269.2 253,-288.2 295,-288.2 295,-269.2 253,-269.2"/>
<text text-anchor="start" x="256" y="-275.3" font-family="Helvetica,sans-Serif" font-size="11.00" fill="#000000">&lt; 1</text>
<polygon fill="#ffffff" stroke="transparent" points="295,-269.2 295,-288.2 355,-288.2 355,-269.2 295,-269.2"/>
<polygon fill="none" stroke="#000000" points="295,-269.2 295,-288.2 355,-288.2 355,-269.2 295,-269.2"/>
<text text-anchor="start" x="307.3807" y="-275.3" font-family="Helvetica,sans-Serif" font-size="11.00" fill="#000000">157 rows</text>
<polygon fill="#ffffff" stroke="transparent" points="355,-269.2 355,-288.2 393,-288.2 393,-269.2 355,-269.2"/>
<polygon fill="none" stroke="#000000" points="355,-269.2 355,-288.2 393,-288.2 393,-269.2 355,-269.2"/>
<text text-anchor="start" x="368.2904" y="-275.3" font-family="Helvetica,sans-Serif" font-size="11.00" fill="#000000">12 &gt;</text>
</a>
</g>
</g>
<!-- reference_data_domain -->
<g id="node2" class="node">
<title>reference_data_domain</title>
<g id="a_node2"><a xlink:href="../../tables/reference_data_domain.html" xlink:title="reference_data_domain" target="_top">
<polygon fill="#ffffff" stroke="transparent" points="8,-299.7 8,-360.7 204,-360.7 204,-299.7 8,-299.7"/>
<polygon fill="#f5f5f5" stroke="transparent" points="8,-337.2 8,-360.2 204,-360.2 204,-337.2 8,-337.2"/>
<polygon fill="none" stroke="#000000" points="8,-337.2 8,-360.2 204,-360.2 204,-337.2 8,-337.2"/>
<text text-anchor="start" x="13" y="-345.8" font-family="Helvetica,sans-Serif" font-weight="bold" font-size="11.00" fill="#000000">reference_data_domain</text>
<text text-anchor="start" x="169.5219" y="-345.3" font-family="Helvetica,sans-Serif" font-size="11.00" fill="#000000">[table]</text>
<polygon fill="none" stroke="#000000" points="8,-318.2 8,-337.2 204,-337.2 204,-318.2 8,-318.2"/>
<text text-anchor="start" x="11" y="-324.3" font-family="Helvetica,sans-Serif" font-size="11.00" fill="#000000">...</text>
<polygon fill="#ffffff" stroke="transparent" points="8,-299.2 8,-318.2 95,-318.2 95,-299.2 8,-299.2"/>
<polygon fill="none" stroke="#000000" points="8,-299.2 8,-318.2 95,-318.2 95,-299.2 8,-299.2"/>
<text text-anchor="start" x="11" y="-305.3" font-family="Helvetica,sans-Serif" font-size="11.00" fill="#000000"> &#160;</text>
<polygon fill="#ffffff" stroke="transparent" points="95,-299.2 95,-318.2 145,-318.2 145,-299.2 95,-299.2"/>
<polygon fill="none" stroke="#000000" points="95,-299.2 95,-318.2 145,-318.2 145,-299.2 95,-299.2"/>
<text text-anchor="start" x="135.8862" y="-305.3" font-family="Helvetica,sans-Serif" font-size="11.00" fill="#000000"> &#160;</text>
<polygon fill="#ffffff" stroke="transparent" points="145,-299.2 145,-318.2 204,-318.2 204,-299.2 145,-299.2"/>
<polygon fill="none" stroke="#000000" points="145,-299.2 145,-318.2 204,-318.2 204,-299.2 145,-299.2"/>
<text text-anchor="start" x="185.4053" y="-305.3" font-family="Helvetica,sans-Serif" font-size="11.00" fill="#000000">2 &gt;</text>
</a>
</g>
</g>
<!-- reference_data&#45;&gt;reference_data_domain -->
<g id="edge1" class="edge">
<title>reference_data:w&#45;&gt;reference_data_domain:e</title>
<path fill="none" stroke="#000000" d="M230.4617,-325.3568C221.5769,-326.5125 212.6543,-327.2 204,-327.2"/>
<polygon fill="#000000" stroke="#000000" points="236.9278,-324.341 245.3896,-326.6557 240.8793,-323.7201 244.8309,-323.0993 244.8309,-323.0993 244.8309,-323.0993 240.8793,-323.7201 244.2721,-319.5429 236.9278,-324.341 236.9278,-324.341"/>
<ellipse fill="none" stroke="#000000" cx="233.7666" cy="-324.8376" rx="3.2" ry="3.2"/>
</g>
<!-- reference_data_domain_link -->
<g id="node3" class="node">
<title>reference_data_domain_link</title>
<g id="a_node3"><a xlink:href="../../tables/reference_data_domain_link.html" xlink:title="reference_data_domain_link" target="_top">
<polygon fill="#ffffff" stroke="transparent" points="462.5,-476.7 462.5,-537.7 689.5,-537.7 689.5,-476.7 462.5,-476.7"/>
<polygon fill="#f5f5f5" stroke="transparent" points="463,-514.2 463,-537.2 690,-537.2 690,-514.2 463,-514.2"/>
<polygon fill="none" stroke="#000000" points="463,-514.2 463,-537.2 690,-537.2 690,-514.2 463,-514.2"/>
<text text-anchor="start" x="468" y="-522.8" font-family="Helvetica,sans-Serif" font-weight="bold" font-size="11.00" fill="#000000">reference_data_domain_link</text>
<text text-anchor="start" x="655.5219" y="-522.3" font-family="Helvetica,sans-Serif" font-size="11.00" fill="#000000">[table]</text>
<polygon fill="none" stroke="#000000" points="463,-495.2 463,-514.2 690,-514.2 690,-495.2 463,-495.2"/>
<text text-anchor="start" x="466" y="-501.3" font-family="Helvetica,sans-Serif" font-size="11.00" fill="#000000">...</text>
<polygon fill="#ffffff" stroke="transparent" points="463,-476.2 463,-495.2 575,-495.2 575,-476.2 463,-476.2"/>
<polygon fill="none" stroke="#000000" points="463,-476.2 463,-495.2 575,-495.2 575,-476.2 463,-476.2"/>
<text text-anchor="start" x="466" y="-482.3" font-family="Helvetica,sans-Serif" font-size="11.00" fill="#000000">&lt; 2</text>
<polygon fill="#ffffff" stroke="transparent" points="575,-476.2 575,-495.2 632,-495.2 632,-476.2 575,-476.2"/>
<polygon fill="none" stroke="#000000" points="575,-476.2 575,-495.2 632,-495.2 632,-476.2 575,-476.2"/>
<text text-anchor="start" x="622.8862" y="-482.3" font-family="Helvetica,sans-Serif" font-size="11.00" fill="#000000"> &#160;</text>
<polygon fill="#ffffff" stroke="transparent" points="632,-476.2 632,-495.2 690,-495.2 690,-476.2 632,-476.2"/>
<polygon fill="none" stroke="#000000" points="632,-476.2 632,-495.2 690,-495.2 690,-476.2 632,-476.2"/>
<text text-anchor="start" x="680.8862" y="-482.3" font-family="Helvetica,sans-Serif" font-size="11.00" fill="#000000"> &#160;</text>
</a>
</g>
</g>
<!-- reference_data_domain_link&#45;&gt;reference_data -->
<g id="edge3" class="edge">
<title>reference_data_domain_link:w&#45;&gt;reference_data:e</title>
<path fill="none" stroke="#000000" d="M455.6955,-496.3182C435.1702,-469.943 377.8971,-383.6865 345.7064,-334.8058"/>
<polygon fill="#000000" stroke="#000000" points="465.39,-500.8943 459.5224,-506.3322 458.4348,-505.1587 464.3024,-499.7207 465.39,-500.8943"/>
<polyline fill="none" stroke="#000000" points="463,-504.2 460.281,-501.2662 "/>
<ellipse fill="none" stroke="#000000" cx="458.1059" cy="-498.9191" rx="3.2" ry="3.2"/>
</g>
<!-- reference_data_domain_link&#45;&gt;reference_data_domain -->
<g id="edge2" class="edge">
<title>reference_data_domain_link:w&#45;&gt;reference_data_domain:e</title>
<path fill="none" stroke="#000000" d="M448.4816,-501.9621C377.6268,-481.4727 269.0826,-327.2 204,-327.2"/>
<polygon fill="#000000" stroke="#000000" points="455.0934,-502.9812 462.4515,-507.758 459.0467,-503.5906 463,-504.2 463,-504.2 463,-504.2 459.0467,-503.5906 463.5485,-500.642 455.0934,-502.9812 455.0934,-502.9812"/>
<ellipse fill="none" stroke="#000000" cx="451.9307" cy="-502.4937" rx="3.2" ry="3.2"/>
</g>
<!-- reference_data_link -->
<g id="node4" class="node">
<title>reference_data_link</title>
<g id="a_node4"><a xlink:href="../../tables/reference_data_link.html" xlink:title="reference_data_link" target="_top">
<polygon fill="#ffffff" stroke="transparent" points="490.5,-394.7 490.5,-455.7 661.5,-455.7 661.5,-394.7 490.5,-394.7"/>
<polygon fill="#f5f5f5" stroke="transparent" points="491,-432.2 491,-455.2 662,-455.2 662,-432.2 491,-432.2"/>
<polygon fill="none" stroke="#000000" points="491,-432.2 491,-455.2 662,-455.2 662,-432.2 491,-432.2"/>
<text text-anchor="start" x="496" y="-440.8" font-family="Helvetica,sans-Serif" font-weight="bold" font-size="11.00" fill="#000000">reference_data_link</text>
<text text-anchor="start" x="627.5219" y="-440.3" font-family="Helvetica,sans-Serif" font-size="11.00" fill="#000000">[table]</text>
<polygon fill="none" stroke="#000000" points="491,-413.2 491,-432.2 662,-432.2 662,-413.2 491,-413.2"/>
<text text-anchor="start" x="494" y="-419.3" font-family="Helvetica,sans-Serif" font-size="11.00" fill="#000000">...</text>
<polygon fill="#ffffff" stroke="transparent" points="491,-394.2 491,-413.2 559,-413.2 559,-394.2 491,-394.2"/>
<polygon fill="none" stroke="#000000" points="491,-394.2 491,-413.2 559,-413.2 559,-394.2 491,-394.2"/>
<text text-anchor="start" x="494" y="-400.3" font-family="Helvetica,sans-Serif" font-size="11.00" fill="#000000">&lt; 2</text>
<polygon fill="#ffffff" stroke="transparent" points="559,-394.2 559,-413.2 626,-413.2 626,-394.2 559,-394.2"/>
<polygon fill="none" stroke="#000000" points="559,-394.2 559,-413.2 626,-413.2 626,-394.2 559,-394.2"/>
<text text-anchor="start" x="584.4956" y="-400.3" font-family="Helvetica,sans-Serif" font-size="11.00" fill="#000000">64 rows</text>
<polygon fill="#ffffff" stroke="transparent" points="626,-394.2 626,-413.2 662,-413.2 662,-394.2 626,-394.2"/>
<polygon fill="none" stroke="#000000" points="626,-394.2 626,-413.2 662,-413.2 662,-394.2 626,-394.2"/>
<text text-anchor="start" x="652.8862" y="-400.3" font-family="Helvetica,sans-Serif" font-size="11.00" fill="#000000"> &#160;</text>
</a>
</g>
</g>
<!-- reference_data_link&#45;&gt;reference_data -->
<g id="edge4" class="edge">
<title>reference_data_link:w&#45;&gt;reference_data:e</title>
<path fill="none" stroke="#000000" d="M476.6588,-420.3403C425.0754,-410.3688 379.8927,-366.7724 352.1099,-334.9095"/>
<polygon fill="#000000" stroke="#000000" points="483.0664,-421.1711 490.537,-425.7701 487.0332,-421.6856 491,-422.2 491,-422.2 491,-422.2 487.0332,-421.6856 491.463,-418.6299 483.0664,-421.1711 483.0664,-421.1711"/>
<ellipse fill="none" stroke="#000000" cx="479.893" cy="-420.7596" rx="3.2" ry="3.2"/>
</g>
<!-- reference_data_link&#45;&gt;reference_data -->
<g id="edge5" class="edge">
<title>reference_data_link:w&#45;&gt;reference_data:e</title>
<path fill="none" stroke="#000000" d="M476.5316,-422.2659C420.2358,-418.5647 371.5775,-369.7968 344.8628,-334.9584"/>
<polygon fill="#000000" stroke="#000000" points="483.0001,-422.2365 491.0164,-425.8 487,-422.2182 491,-422.2 491,-422.2 491,-422.2 487,-422.2182 490.9836,-418.6 483.0001,-422.2365 483.0001,-422.2365"/>
<ellipse fill="none" stroke="#000000" cx="479.8001" cy="-422.2511" rx="3.2" ry="3.2"/>
</g>
<!-- tap_occurrence_action -->
<g id="node5" class="node">
<title>tap_occurrence_action</title>
<g id="a_node5"><a xlink:href="../../tables/tap_occurrence_action.html" xlink:title="tap_occurrence_action" target="_top">
<polygon fill="#ffffff" stroke="transparent" points="1132,-435.7 1132,-496.7 1322,-496.7 1322,-435.7 1132,-435.7"/>
<polygon fill="#f5f5f5" stroke="transparent" points="1132,-473.2 1132,-496.2 1322,-496.2 1322,-473.2 1132,-473.2"/>
<polygon fill="none" stroke="#000000" points="1132,-473.2 1132,-496.2 1322,-496.2 1322,-473.2 1132,-473.2"/>
<text text-anchor="start" x="1137" y="-481.8" font-family="Helvetica,sans-Serif" font-weight="bold" font-size="11.00" fill="#000000">tap_occurrence_action</text>
<text text-anchor="start" x="1287.5219" y="-481.3" font-family="Helvetica,sans-Serif" font-size="11.00" fill="#000000">[table]</text>
<polygon fill="none" stroke="#000000" points="1132,-454.2 1132,-473.2 1322,-473.2 1322,-454.2 1132,-454.2"/>
<text text-anchor="start" x="1135" y="-460.3" font-family="Helvetica,sans-Serif" font-size="11.00" fill="#000000">...</text>
<polygon fill="#ffffff" stroke="transparent" points="1132,-435.2 1132,-454.2 1225,-454.2 1225,-435.2 1132,-435.2"/>
<polygon fill="none" stroke="#000000" points="1132,-435.2 1132,-454.2 1225,-454.2 1225,-435.2 1132,-435.2"/>
<text text-anchor="start" x="1135" y="-441.3" font-family="Helvetica,sans-Serif" font-size="11.00" fill="#000000">&lt; 1</text>
<polygon fill="#ffffff" stroke="transparent" points="1225,-435.2 1225,-454.2 1273,-454.2 1273,-435.2 1225,-435.2"/>
<polygon fill="none" stroke="#000000" points="1225,-435.2 1225,-454.2 1273,-454.2 1273,-435.2 1225,-435.2"/>
<text text-anchor="start" x="1263.8862" y="-441.3" font-family="Helvetica,sans-Serif" font-size="11.00" fill="#000000"> &#160;</text>
<polygon fill="#ffffff" stroke="transparent" points="1273,-435.2 1273,-454.2 1322,-454.2 1322,-435.2 1273,-435.2"/>
<polygon fill="none" stroke="#000000" points="1273,-435.2 1273,-454.2 1322,-454.2 1322,-435.2 1273,-435.2"/>
<text text-anchor="start" x="1312.8862" y="-441.3" font-family="Helvetica,sans-Serif" font-size="11.00" fill="#000000"> &#160;</text>
</a>
</g>
</g>
<!-- temporary_absence_occurrence -->
<g id="node6" class="node">
<title>temporary_absence_occurrence</title>
<g id="a_node6"><a xlink:href="../../tables/temporary_absence_occurrence.html" xlink:title="temporary_absence_occurrence" target="_top">
<polygon fill="#ffffff" stroke="transparent" points="759,-333.7 759,-394.7 1011,-394.7 1011,-333.7 759,-333.7"/>
<polygon fill="#f5f5f5" stroke="transparent" points="759,-371.2 759,-394.2 1011,-394.2 1011,-371.2 759,-371.2"/>
<polygon fill="none" stroke="#000000" points="759,-371.2 759,-394.2 1011,-394.2 1011,-371.2 759,-371.2"/>
<text text-anchor="start" x="764" y="-379.8" font-family="Helvetica,sans-Serif" font-weight="bold" font-size="11.00" fill="#000000">temporary_absence_occurrence</text>
<text text-anchor="start" x="976.5219" y="-379.3" font-family="Helvetica,sans-Serif" font-size="11.00" fill="#000000">[table]</text>
<polygon fill="none" stroke="#000000" points="759,-352.2 759,-371.2 1011,-371.2 1011,-352.2 759,-352.2"/>
<text text-anchor="start" x="762" y="-358.3" font-family="Helvetica,sans-Serif" font-size="11.00" fill="#000000">...</text>
<polygon fill="#ffffff" stroke="transparent" points="759,-333.2 759,-352.2 879,-352.2 879,-333.2 759,-333.2"/>
<polygon fill="none" stroke="#000000" points="759,-333.2 759,-352.2 879,-352.2 879,-333.2 759,-333.2"/>
<text text-anchor="start" x="762" y="-339.3" font-family="Helvetica,sans-Serif" font-size="11.00" fill="#000000">&lt; 3</text>
<polygon fill="#ffffff" stroke="transparent" points="879,-333.2 879,-352.2 940,-352.2 940,-333.2 879,-333.2"/>
<polygon fill="none" stroke="#000000" points="879,-333.2 879,-352.2 940,-352.2 940,-333.2 879,-333.2"/>
<text text-anchor="start" x="930.8862" y="-339.3" font-family="Helvetica,sans-Serif" font-size="11.00" fill="#000000"> &#160;</text>
<polygon fill="#ffffff" stroke="transparent" points="940,-333.2 940,-352.2 1011,-352.2 1011,-333.2 940,-333.2"/>
<polygon fill="none" stroke="#000000" points="940,-333.2 940,-352.2 1011,-352.2 1011,-333.2 940,-333.2"/>
<text text-anchor="start" x="992.4053" y="-339.3" font-family="Helvetica,sans-Serif" font-size="11.00" fill="#000000">2 &gt;</text>
</a>
</g>
</g>
<!-- tap_occurrence_action&#45;&gt;temporary_absence_occurrence -->
<g id="edge6" class="edge">
<title>tap_occurrence_action:w&#45;&gt;temporary_absence_occurrence:e</title>
<path fill="none" stroke="#000000" d="M1117.3663,-462.7115C1050.7341,-458.3359 982.6127,-425.4226 937.5052,-398.8254"/>
<polygon fill="#000000" stroke="#000000" points="1124.0045,-462.9331 1131.8799,-466.798 1128.0022,-463.0665 1132,-463.2 1132,-463.2 1132,-463.2 1128.0022,-463.0665 1132.1201,-459.602 1124.0045,-462.9331 1124.0045,-462.9331"/>
<ellipse fill="none" stroke="#000000" cx="1120.8062" cy="-462.8263" rx="3.2" ry="3.2"/>
</g>
<!-- temporary_absence_occurrence&#45;&gt;reference_data -->
<g id="edge15" class="edge">
<title>temporary_absence_occurrence:w&#45;&gt;reference_data:e</title>
<path fill="none" stroke="#000000" d="M736.2449,-364.7138C647.5615,-364.3148 533.278,-359.4493 434,-338.2 423.1553,-335.8788 411.9954,-332.6061 401.1258,-328.9358"/>
<polygon fill="#000000" stroke="#000000" points="742.8109,-364.726 750.8041,-368.3409 746.8109,-364.7335 750.8109,-364.7409 750.8109,-364.7409 750.8109,-364.7409 746.8109,-364.7335 750.8176,-361.141 742.8109,-364.726 742.8109,-364.726"/>
<ellipse fill="none" stroke="#000000" cx="739.6109" cy="-364.72" rx="3.2" ry="3.2"/>
</g>
<!-- temporary_absence_occurrence&#45;&gt;reference_data -->
<g id="edge17" class="edge">
<title>temporary_absence_occurrence:w&#45;&gt;reference_data:e</title>
<path fill="none" stroke="#000000" d="M736.2449,-376.0295C647.5615,-377.3148 533.278,-372.4493 434,-351.2 416.8714,-347.5338 398.9568,-341.494 382.6411,-334.7953"/>
<polygon fill="#000000" stroke="#000000" points="742.8122,-375.9078 750.8776,-379.3588 746.8116,-375.8336 750.8109,-375.7594 750.8109,-375.7594 750.8109,-375.7594 746.8116,-375.8336 750.7441,-372.16 742.8122,-375.9078 742.8122,-375.9078"/>
<ellipse fill="none" stroke="#000000" cx="739.6128" cy="-375.9671" rx="3.2" ry="3.2"/>
</g>
<!-- temporary_absence_authorisation -->
<g id="node7" class="node">
<title>temporary_absence_authorisation</title>
<g id="a_node7"><a xlink:href="../../tables/temporary_absence_authorisation.html" xlink:title="temporary_absence_authorisation" target="_top">
<polygon fill="#ffffff" stroke="transparent" points="442,-272.7 442,-333.7 710,-333.7 710,-272.7 442,-272.7"/>
<polygon fill="#f5f5f5" stroke="transparent" points="442,-310.2 442,-333.2 710,-333.2 710,-310.2 442,-310.2"/>
<polygon fill="none" stroke="#000000" points="442,-310.2 442,-333.2 710,-333.2 710,-310.2 442,-310.2"/>
<text text-anchor="start" x="447" y="-318.8" font-family="Helvetica,sans-Serif" font-weight="bold" font-size="11.00" fill="#000000">temporary_absence_authorisation</text>
<text text-anchor="start" x="675.5219" y="-318.3" font-family="Helvetica,sans-Serif" font-size="11.00" fill="#000000">[table]</text>
<polygon fill="none" stroke="#000000" points="442,-291.2 442,-310.2 710,-310.2 710,-291.2 442,-291.2"/>
<text text-anchor="start" x="445" y="-297.3" font-family="Helvetica,sans-Serif" font-size="11.00" fill="#000000">...</text>
<polygon fill="#ffffff" stroke="transparent" points="442,-272.2 442,-291.2 570,-291.2 570,-272.2 442,-272.2"/>
<polygon fill="none" stroke="#000000" points="442,-272.2 442,-291.2 570,-291.2 570,-272.2 442,-272.2"/>
<text text-anchor="start" x="445" y="-278.3" font-family="Helvetica,sans-Serif" font-size="11.00" fill="#000000">&lt; 5</text>
<polygon fill="#ffffff" stroke="transparent" points="570,-272.2 570,-291.2 635,-291.2 635,-272.2 570,-272.2"/>
<polygon fill="none" stroke="#000000" points="570,-272.2 570,-291.2 635,-291.2 635,-272.2 570,-272.2"/>
<text text-anchor="start" x="625.8862" y="-278.3" font-family="Helvetica,sans-Serif" font-size="11.00" fill="#000000"> &#160;</text>
<polygon fill="#ffffff" stroke="transparent" points="635,-272.2 635,-291.2 710,-291.2 710,-272.2 635,-272.2"/>
<polygon fill="none" stroke="#000000" points="635,-272.2 635,-291.2 710,-291.2 710,-272.2 635,-272.2"/>
<text text-anchor="start" x="691.4053" y="-278.3" font-family="Helvetica,sans-Serif" font-size="11.00" fill="#000000">1 &gt;</text>
</a>
</g>
</g>
<!-- temporary_absence_occurrence&#45;&gt;temporary_absence_authorisation -->
<g id="edge16" class="edge">
<title>temporary_absence_occurrence:w&#45;&gt;temporary_absence_authorisation:e</title>
<path fill="none" stroke="#000000" d="M809.5628,-323.6423C779.4633,-310.9522 743.9447,-300.2 710,-300.2"/>
<polygon fill="#000000" stroke="#000000" points="815.6691,-326.3424 821.5299,-332.8701 819.3275,-327.96 822.9858,-329.5776 822.9858,-329.5776 822.9858,-329.5776 819.3275,-327.96 824.4417,-326.2851 815.6691,-326.3424 815.6691,-326.3424"/>
<ellipse fill="none" stroke="#000000" cx="812.7425" cy="-325.0483" rx="3.2" ry="3.2"/>
</g>
<!-- temporary_absence_authorisation&#45;&gt;reference_data -->
<g id="edge7" class="edge">
<title>temporary_absence_authorisation:w&#45;&gt;reference_data:e</title>
<path fill="none" stroke="#000000" d="M428.7612,-294.3264C419.6029,-290.6757 410.255,-287.7586 401.0938,-285.575"/>
<polygon fill="#000000" stroke="#000000" points="434.6874,-296.9556 440.54,-303.4907 438.3437,-298.5778 442,-300.2 442,-300.2 442,-300.2 438.3437,-298.5778 443.46,-296.9093 434.6874,-296.9556 434.6874,-296.9556"/>
<ellipse fill="none" stroke="#000000" cx="431.7623" cy="-295.6579" rx="3.2" ry="3.2"/>
</g>
<!-- temporary_absence_authorisation&#45;&gt;reference_data -->
<g id="edge8" class="edge">
<title>temporary_absence_authorisation:w&#45;&gt;reference_data:e</title>
<path fill="none" stroke="#000000" d="M427.8021,-297.0735C418.9509,-295.3366 409.9355,-293.9412 401.0938,-292.8875"/>
<polygon fill="#000000" stroke="#000000" points="434.1872,-298.4795 441.2258,-303.7158 438.0936,-299.3398 442,-300.2 442,-300.2 442,-300.2 438.0936,-299.3398 442.7742,-296.6842 434.1872,-298.4795 434.1872,-298.4795"/>
<ellipse fill="none" stroke="#000000" cx="431.0621" cy="-297.7913" rx="3.2" ry="3.2"/>
</g>
<!-- temporary_absence_authorisation&#45;&gt;reference_data -->
<g id="edge9" class="edge">
<title>temporary_absence_authorisation:w&#45;&gt;reference_data:e</title>
<path fill="none" stroke="#000000" d="M427.4821,-300.2C418.7337,-300.2 409.8289,-300.2 401.0938,-300.2"/>
<polygon fill="#000000" stroke="#000000" points="434,-300.2001 442,-303.8 438,-300.2 442,-300.2 442,-300.2 442,-300.2 438,-300.2 442,-296.6 434,-300.2001 434,-300.2001"/>
<ellipse fill="none" stroke="#000000" cx="430.8" cy="-300.2001" rx="3.2" ry="3.2"/>
</g>
<!-- temporary_absence_authorisation&#45;&gt;reference_data -->
<g id="edge10" class="edge">
<title>temporary_absence_authorisation:w&#45;&gt;reference_data:e</title>
<path fill="none" stroke="#000000" d="M427.8021,-303.3265C418.9509,-305.0634 409.9355,-306.4588 401.0938,-307.5125"/>
<polygon fill="#000000" stroke="#000000" points="434.1872,-301.9205 442.7742,-303.7158 438.0936,-301.0602 442,-300.2 442,-300.2 442,-300.2 438.0936,-301.0602 441.2258,-296.6842 434.1872,-301.9205 434.1872,-301.9205"/>
<ellipse fill="none" stroke="#000000" cx="431.0621" cy="-302.6087" rx="3.2" ry="3.2"/>
</g>
<!-- temporary_absence_authorisation&#45;&gt;reference_data -->
<g id="edge11" class="edge">
<title>temporary_absence_authorisation:w&#45;&gt;reference_data:e</title>
<path fill="none" stroke="#000000" d="M428.7612,-306.0736C419.6029,-309.7243 410.255,-312.6414 401.0938,-314.825"/>
<polygon fill="#000000" stroke="#000000" points="434.6874,-303.4444 443.46,-303.4907 438.3437,-301.8222 442,-300.2 442,-300.2 442,-300.2 438.3437,-301.8222 440.54,-296.9093 434.6874,-303.4444 434.6874,-303.4444"/>
<ellipse fill="none" stroke="#000000" cx="431.7623" cy="-304.7421" rx="3.2" ry="3.2"/>
</g>
<!-- temporary_absence_movement -->
<g id="node8" class="node">
<title>temporary_absence_movement</title>
<g id="a_node8"><a xlink:href="../../tables/temporary_absence_movement.html" xlink:title="temporary_absence_movement" target="_top">
<polygon fill="#ffffff" stroke="transparent" points="1060,-38.2 1060,-414.2 1394,-414.2 1394,-38.2 1060,-38.2"/>
<polygon fill="#f5f5f5" stroke="transparent" points="1062,-389.2 1062,-412.2 1392,-412.2 1392,-389.2 1062,-389.2"/>
<polygon fill="none" stroke="#000000" points="1062,-389.2 1062,-412.2 1392,-412.2 1392,-389.2 1062,-389.2"/>
<text text-anchor="start" x="1067" y="-397.8" font-family="Helvetica,sans-Serif" font-weight="bold" font-size="11.00" fill="#000000">temporary_absence_movement</text>
<text text-anchor="start" x="1357.0437" y="-397.3" font-family="Helvetica,sans-Serif" font-size="11.00" fill="#000000">[table]</text>
<polygon fill="none" stroke="#000000" points="1062,-367.2 1062,-389.2 1293,-389.2 1293,-367.2 1062,-367.2"/>
<image xlink:href="../../images/primaryKeys.png" width="11px" height="12px" preserveAspectRatio="xMinYMin meet" x="1067" y="-384.2"/>
<text text-anchor="start" x="1082" y="-374.3" font-family="Helvetica,sans-Serif" font-size="11.00" fill="#000000">id</text>
<polygon fill="none" stroke="#000000" points="1293,-367.2 1293,-389.2 1392,-389.2 1392,-367.2 1293,-367.2"/>
<text text-anchor="start" x="1296" y="-374.9" font-family="Helvetica,sans-Serif" font-size="11.00" fill="#000000">uuid[2147483647]</text>
<polygon fill="none" stroke="#000000" points="1062,-345.2 1062,-367.2 1293,-367.2 1293,-345.2 1062,-345.2"/>
<text text-anchor="start" x="1082" y="-352.3" font-family="Helvetica,sans-Serif" font-size="11.00" fill="#000000">version</text>
<polygon fill="none" stroke="#000000" points="1293,-345.2 1293,-367.2 1392,-367.2 1392,-345.2 1293,-345.2"/>
<text text-anchor="start" x="1296" y="-352.9" font-family="Helvetica,sans-Serif" font-size="11.00" fill="#000000">int4[10]</text>
<polygon fill="#ffffff" stroke="transparent" points="1062,-323.2 1062,-345.2 1293,-345.2 1293,-323.2 1062,-323.2"/>
<polygon fill="none" stroke="#000000" points="1062,-323.2 1062,-345.2 1293,-345.2 1293,-323.2 1062,-323.2"/>
<text text-anchor="start" x="1082" y="-330.3" font-family="Helvetica,sans-Serif" font-size="11.00" fill="#000000">person_identifier</text>
<polygon fill="none" stroke="#000000" points="1293,-323.2 1293,-345.2 1392,-345.2 1392,-323.2 1293,-323.2"/>
<text text-anchor="start" x="1296" y="-330.9" font-family="Helvetica,sans-Serif" font-size="11.00" fill="#000000">varchar[10]</text>
<polygon fill="none" stroke="#000000" points="1062,-301.2 1062,-323.2 1293,-323.2 1293,-301.2 1062,-301.2"/>
<image xlink:href="../../images/foreignKeys.png" width="11px" height="12px" preserveAspectRatio="xMinYMin meet" x="1067" y="-318.2"/>
<text text-anchor="start" x="1082" y="-308.3" font-family="Helvetica,sans-Serif" font-size="11.00" fill="#000000">occurrence_id</text>
<polygon fill="none" stroke="#000000" points="1293,-301.2 1293,-323.2 1392,-323.2 1392,-301.2 1293,-301.2"/>
<text text-anchor="start" x="1296" y="-308.9" font-family="Helvetica,sans-Serif" font-size="11.00" fill="#000000">uuid[2147483647]</text>
<polygon fill="#ffffff" stroke="transparent" points="1062,-279.2 1062,-301.2 1293,-301.2 1293,-279.2 1062,-279.2"/>
<polygon fill="none" stroke="#000000" points="1062,-279.2 1062,-301.2 1293,-301.2 1293,-279.2 1062,-279.2"/>
<text text-anchor="start" x="1082" y="-286.3" font-family="Helvetica,sans-Serif" font-size="11.00" fill="#000000">occurred_at</text>
<polygon fill="none" stroke="#000000" points="1293,-279.2 1293,-301.2 1392,-301.2 1392,-279.2 1293,-279.2"/>
<text text-anchor="start" x="1296" y="-286.9" font-family="Helvetica,sans-Serif" font-size="11.00" fill="#000000">timestamp[29,6]</text>
<polygon fill="none" stroke="#000000" points="1062,-257.2 1062,-279.2 1293,-279.2 1293,-257.2 1062,-257.2"/>
<text text-anchor="start" x="1082" y="-264.3" font-family="Helvetica,sans-Serif" font-size="11.00" fill="#000000">direction</text>
<polygon fill="none" stroke="#000000" points="1293,-257.2 1293,-279.2 1392,-279.2 1392,-257.2 1293,-257.2"/>
<text text-anchor="start" x="1296" y="-264.9" font-family="Helvetica,sans-Serif" font-size="11.00" fill="#000000">varchar[3]</text>
<polygon fill="none" stroke="#000000" points="1062,-235.2 1062,-257.2 1293,-257.2 1293,-235.2 1062,-235.2"/>
<image xlink:href="../../images/foreignKeys.png" width="11px" height="12px" preserveAspectRatio="xMinYMin meet" x="1067" y="-252.2"/>
<text text-anchor="start" x="1082" y="-242.3" font-family="Helvetica,sans-Serif" font-size="11.00" fill="#000000">absence_reason_id</text>
<polygon fill="none" stroke="#000000" points="1293,-235.2 1293,-257.2 1392,-257.2 1392,-235.2 1293,-235.2"/>
<text text-anchor="start" x="1296" y="-242.9" font-family="Helvetica,sans-Serif" font-size="11.00" fill="#000000">int8[19]</text>
<polygon fill="none" stroke="#000000" points="1062,-213.2 1062,-235.2 1293,-235.2 1293,-213.2 1062,-213.2"/>
<image xlink:href="../../images/foreignKeys.png" width="11px" height="12px" preserveAspectRatio="xMinYMin meet" x="1067" y="-230.2"/>
<text text-anchor="start" x="1082" y="-220.3" font-family="Helvetica,sans-Serif" font-size="11.00" fill="#000000">accompanied_by_id</text>
<polygon fill="none" stroke="#000000" points="1293,-213.2 1293,-235.2 1392,-235.2 1392,-213.2 1293,-213.2"/>
<text text-anchor="start" x="1296" y="-220.9" font-family="Helvetica,sans-Serif" font-size="11.00" fill="#000000">int8[19]</text>
<polygon fill="none" stroke="#000000" points="1062,-191.2 1062,-213.2 1293,-213.2 1293,-191.2 1062,-191.2"/>
<text text-anchor="start" x="1082" y="-198.3" font-family="Helvetica,sans-Serif" font-size="11.00" fill="#000000">accompanied_by_notes</text>
<polygon fill="none" stroke="#000000" points="1293,-191.2 1293,-213.2 1392,-213.2 1392,-191.2 1293,-191.2"/>
<text text-anchor="start" x="1296" y="-198.9" font-family="Helvetica,sans-Serif" font-size="11.00" fill="#000000">text[2147483647]</text>
<polygon fill="none" stroke="#000000" points="1062,-169.2 1062,-191.2 1293,-191.2 1293,-169.2 1062,-169.2"/>
<text text-anchor="start" x="1082" y="-176.3" font-family="Helvetica,sans-Serif" font-size="11.00" fill="#000000">notes</text>
<polygon fill="none" stroke="#000000" points="1293,-169.2 1293,-191.2 1392,-191.2 1392,-169.2 1293,-169.2"/>
<text text-anchor="start" x="1296" y="-176.9" font-family="Helvetica,sans-Serif" font-size="11.00" fill="#000000">text[2147483647]</text>
<polygon fill="none" stroke="#000000" points="1062,-147.2 1062,-169.2 1293,-169.2 1293,-147.2 1062,-147.2"/>
<text text-anchor="start" x="1082" y="-154.3" font-family="Helvetica,sans-Serif" font-size="11.00" fill="#000000">recorded_at</text>
<polygon fill="none" stroke="#000000" points="1293,-147.2 1293,-169.2 1392,-169.2 1392,-147.2 1293,-147.2"/>
<text text-anchor="start" x="1296" y="-154.9" font-family="Helvetica,sans-Serif" font-size="11.00" fill="#000000">timestamp[29,6]</text>
<polygon fill="none" stroke="#000000" points="1062,-125.2 1062,-147.2 1293,-147.2 1293,-125.2 1062,-125.2"/>
<text text-anchor="start" x="1082" y="-132.3" font-family="Helvetica,sans-Serif" font-size="11.00" fill="#000000">recorded_by</text>
<polygon fill="none" stroke="#000000" points="1293,-125.2 1293,-147.2 1392,-147.2 1392,-125.2 1293,-125.2"/>
<text text-anchor="start" x="1296" y="-132.9" font-family="Helvetica,sans-Serif" font-size="11.00" fill="#000000">varchar[64]</text>
<polygon fill="none" stroke="#000000" points="1062,-103.2 1062,-125.2 1293,-125.2 1293,-103.2 1062,-103.2"/>
<text text-anchor="start" x="1082" y="-110.3" font-family="Helvetica,sans-Serif" font-size="11.00" fill="#000000">recorded_by_prison_code</text>
<polygon fill="none" stroke="#000000" points="1293,-103.2 1293,-125.2 1392,-125.2 1392,-103.2 1293,-103.2"/>
<text text-anchor="start" x="1296" y="-110.9" font-family="Helvetica,sans-Serif" font-size="11.00" fill="#000000">varchar[6]</text>
<polygon fill="#ffffff" stroke="transparent" points="1062,-81.2 1062,-103.2 1293,-103.2 1293,-81.2 1062,-81.2"/>
<polygon fill="none" stroke="#000000" points="1062,-81.2 1062,-103.2 1293,-103.2 1293,-81.2 1062,-81.2"/>
<text text-anchor="start" x="1082" y="-88.3" font-family="Helvetica,sans-Serif" font-size="11.00" fill="#000000">legacy_id</text>
<polygon fill="none" stroke="#000000" points="1293,-81.2 1293,-103.2 1392,-103.2 1392,-81.2 1293,-81.2"/>
<text text-anchor="start" x="1296" y="-88.9" font-family="Helvetica,sans-Serif" font-size="11.00" fill="#000000">varchar[32]</text>
<polygon fill="none" stroke="#000000" points="1062,-59.2 1062,-81.2 1293,-81.2 1293,-59.2 1062,-59.2"/>
<text text-anchor="start" x="1082" y="-66.3" font-family="Helvetica,sans-Serif" font-size="11.00" fill="#000000">location</text>
<polygon fill="none" stroke="#000000" points="1293,-59.2 1293,-81.2 1392,-81.2 1392,-59.2 1293,-59.2"/>
<text text-anchor="start" x="1295.7258" y="-66.9" font-family="Helvetica,sans-Serif" font-size="11.00" fill="#000000">jsonb[2147483647]</text>
<polygon fill="#ffffff" stroke="transparent" points="1062,-40.2 1062,-59.2 1182,-59.2 1182,-40.2 1062,-40.2"/>
<polygon fill="none" stroke="#000000" points="1062,-40.2 1062,-59.2 1182,-59.2 1182,-40.2 1062,-40.2"/>
<text text-anchor="start" x="1065" y="-46.3" font-family="Helvetica,sans-Serif" font-size="11.00" fill="#000000">&lt; 3</text>
<polygon fill="#ffffff" stroke="transparent" points="1182,-40.2 1182,-59.2 1293,-59.2 1293,-40.2 1182,-40.2"/>
<polygon fill="none" stroke="#000000" points="1182,-40.2 1182,-59.2 1293,-59.2 1293,-40.2 1182,-40.2"/>
<text text-anchor="start" x="1283.8862" y="-46.3" font-family="Helvetica,sans-Serif" font-size="11.00" fill="#000000"> &#160;</text>
<polygon fill="#ffffff" stroke="transparent" points="1293,-40.2 1293,-59.2 1392,-59.2 1392,-40.2 1293,-40.2"/>
<polygon fill="none" stroke="#000000" points="1293,-40.2 1293,-59.2 1392,-59.2 1392,-40.2 1293,-40.2"/>
<text text-anchor="start" x="1373.4053" y="-46.3" font-family="Helvetica,sans-Serif" font-size="11.00" fill="#000000">0 &gt;</text>
<polygon fill="none" stroke="#000000" stroke-width="2" points="1061,-39.2 1061,-413.2 1393,-413.2 1393,-39.2 1061,-39.2"/>
</a>
</g>
</g>
<!-- temporary_absence_movement&#45;&gt;reference_data -->
<g id="edge12" class="edge">
<title>temporary_absence_movement:w&#45;&gt;reference_data:e</title>
<path fill="none" stroke="#000000" d="M1047.4645,-246.1697C780.135,-245.0534 703.9767,-213.7264 434,-262.2 423.174,-264.1438 411.9763,-266.9583 401.0454,-270.1898"/>
<polygon fill="#000000" stroke="#000000" points="1054,-246.1833 1061.9925,-249.8 1058,-246.1916 1062,-246.2 1062,-246.2 1062,-246.2 1058,-246.1916 1062.0075,-242.6 1054,-246.1833 1054,-246.1833"/>
<ellipse fill="none" stroke="#000000" cx="1050.8" cy="-246.1766" rx="3.2" ry="3.2"/>
</g>
<!-- temporary_absence_movement&#45;&gt;reference_data -->
<g id="edge13" class="edge">
<title>temporary_absence_movement:w&#45;&gt;reference_data:e</title>
<path fill="none" stroke="#000000" d="M1047.4619,-224.1368C779.9714,-221.8035 697.4571,-156.1022 434,-232.2 410.2255,-239.0671 386.4811,-252.5007 367.0908,-265.6269"/>
<polygon fill="#000000" stroke="#000000" points="1054.0001,-224.1652 1061.9843,-227.8 1058,-224.1826 1062,-224.2 1062,-224.2 1062,-224.2 1058,-224.1826 1062.0157,-220.6 1054.0001,-224.1652 1054.0001,-224.1652"/>
<ellipse fill="none" stroke="#000000" cx="1050.8001" cy="-224.1512" rx="3.2" ry="3.2"/>
</g>
<!-- temporary_absence_movement&#45;&gt;temporary_absence_occurrence -->
<g id="edge14" class="edge">
<title>temporary_absence_movement:w&#45;&gt;temporary_absence_occurrence:e</title>
<path fill="none" stroke="#000000" d="M1047.321,-312.7254C1019.925,-314.634 991.8104,-321.5186 966.8402,-329.6599"/>
<polygon fill="#000000" stroke="#000000" points="1054.0051,-312.4862 1062.1288,-315.7977 1058.0026,-312.3431 1062,-312.2 1062,-312.2 1062,-312.2 1058.0026,-312.3431 1061.8712,-308.6023 1054.0051,-312.4862 1054.0051,-312.4862"/>
<ellipse fill="none" stroke="#000000" cx="1050.8072" cy="-312.6007" rx="3.2" ry="3.2"/>
</g>
</g>
</svg>
