<?xml version="1.0" encoding="UTF-8" standalone="no"?>
<!DOCTYPE svg PUBLIC "-//W3C//DTD SVG 1.1//EN"
 "http://www.w3.org/Graphics/SVG/1.1/DTD/svg11.dtd">
<!-- Generated by graphviz version 2.40.1 (20161225.0304)
 -->
<!-- Title: twoDegreesRelationshipsDiagramImplied Pages: 1 -->
<svg width="602pt" height="1210pt"
 viewBox="0.00 0.00 602.00 1210.20" xmlns="http://www.w3.org/2000/svg" xmlns:xlink="http://www.w3.org/1999/xlink">
<g id="graph0" class="graph" transform="scale(1 1) rotate(0) translate(4 1206.2)">
<title>twoDegreesRelationshipsDiagramImplied</title>
<polygon fill="#ffffff" stroke="transparent" points="-4,4 -4,-1206.2 598,-1206.2 598,4 -4,4"/>
<text text-anchor="middle" x="72.4936" y="-7.3" font-family="Helvetica,sans-Serif" font-size="11.00" fill="#000000">Generated by SchemaSpy</text>
<!-- audited_tap_authorisation -->
<g id="node1" class="node">
<title>audited_tap_authorisation</title>
<g id="a_node1"><a xlink:href="../../tables/audited_tap_authorisation.html" xlink:title="audited_tap_authorisation" target="_top">
<polygon fill="#ffffff" stroke="transparent" points="291,-1073.7 291,-1115.7 506,-1115.7 506,-1073.7 291,-1073.7"/>
<polygon fill="#f5f5f5" stroke="transparent" points="291.5,-1092.7 291.5,-1115.7 506.5,-1115.7 506.5,-1092.7 291.5,-1092.7"/>
<polygon fill="none" stroke="#000000" points="291.5,-1092.7 291.5,-1115.7 506.5,-1115.7 506.5,-1092.7 291.5,-1092.7"/>
<text text-anchor="start" x="296.5" y="-1101.3" font-family="Helvetica,sans-Serif" font-weight="bold" font-size="11.00" fill="#000000">audited_tap_authorisation</text>
<text text-anchor="start" x="473.4448" y="-1100.8" font-family="Helvetica,sans-Serif" font-size="11.00" fill="#000000">[view]</text>
<polygon fill="none" stroke="#000000" points="291.5,-1073.7 291.5,-1092.7 506.5,-1092.7 506.5,-1073.7 291.5,-1073.7"/>
<text text-anchor="start" x="294.5" y="-1079.8" font-family="Helvetica,sans-Serif" font-size="11.00" fill="#000000">...</text>
</a>
</g>
</g>
<!-- person_summary -->
<g id="node2" class="node">
<title>person_summary</title>
<g id="a_node2"><a xlink:href="../../tables/person_summary.html" xlink:title="person_summary" target="_top">
<polygon fill="#ffffff" stroke="transparent" points="8,-939.2 8,-1022.2 162,-1022.2 162,-939.2 8,-939.2"/>
<polygon fill="#f5f5f5" stroke="transparent" points="8,-998.7 8,-1021.7 162,-1021.7 162,-998.7 8,-998.7"/>
<polygon fill="none" stroke="#000000" points="8,-998.7 8,-1021.7 162,-1021.7 162,-998.7 8,-998.7"/>
<text text-anchor="start" x="13" y="-1007.3" font-family="Helvetica,sans-Serif" font-weight="bold" font-size="11.00" fill="#000000">person_summary</text>
<text text-anchor="start" x="127.5219" y="-1006.8" font-family="Helvetica,sans-Serif" font-size="11.00" fill="#000000">[table]</text>
<polygon fill="none" stroke="#000000" points="8,-976.7 8,-998.7 162,-998.7 162,-976.7 8,-976.7"/>
<image xlink:href="../../images/primaryKeys.png" width="11px" height="12px" preserveAspectRatio="xMinYMin meet" x="13" y="-993.7"/>
<text text-anchor="start" x="37" y="-983.8" font-family="Helvetica,sans-Serif" font-size="11.00" fill="#000000">person_identifier</text>
<polygon fill="none" stroke="#000000" points="8,-957.7 8,-976.7 162,-976.7 162,-957.7 8,-957.7"/>
<text text-anchor="start" x="11" y="-963.8" font-family="Helvetica,sans-Serif" font-size="11.00" fill="#000000">...</text>
<polygon fill="#ffffff" stroke="transparent" points="8,-938.7 8,-957.7 74,-957.7 74,-938.7 8,-938.7"/>
<polygon fill="none" stroke="#000000" points="8,-938.7 8,-957.7 74,-957.7 74,-938.7 8,-938.7"/>
<text text-anchor="start" x="11" y="-944.8" font-family="Helvetica,sans-Serif" font-size="11.00" fill="#000000"> &#160;</text>
<polygon fill="#ffffff" stroke="transparent" points="74,-938.7 74,-957.7 113,-957.7 113,-938.7 74,-938.7"/>
<polygon fill="none" stroke="#000000" points="74,-938.7 74,-957.7 113,-957.7 113,-938.7 74,-938.7"/>
<text text-anchor="start" x="103.8862" y="-944.8" font-family="Helvetica,sans-Serif" font-size="11.00" fill="#000000"> &#160;</text>
<polygon fill="#ffffff" stroke="transparent" points="113,-938.7 113,-957.7 162,-957.7 162,-938.7 113,-938.7"/>
<polygon fill="none" stroke="#000000" points="113,-938.7 113,-957.7 162,-957.7 162,-938.7 113,-938.7"/>
<text text-anchor="start" x="143.4053" y="-944.8" font-family="Helvetica,sans-Serif" font-size="11.00" fill="#000000">6 &gt;</text>
</a>
</g>
</g>
<!-- audited_tap_authorisation&#45;&gt;person_summary -->
<g id="edge1" class="edge">
<title>audited_tap_authorisation:w&#45;&gt;person_summary:e</title>
<path fill="none" stroke="#000000" stroke-dasharray="5,2" d="M277.0595,-1082.8828C246.8541,-1083.5401 231.0292,-1084.7339 203,-1063.7 172.3027,-1040.6639 200.3795,-987.7 162,-987.7"/>
<polygon fill="#000000" stroke="#000000" points="283.5006,-1082.8013 291.5456,-1086.2997 287.5003,-1082.7507 291.5,-1082.7 291.5,-1082.7 291.5,-1082.7 287.5003,-1082.7507 291.4544,-1079.1003 283.5006,-1082.8013 283.5006,-1082.8013"/>
<ellipse fill="none" stroke="#000000" cx="280.3009" cy="-1082.8418" rx="3.2" ry="3.2"/>
</g>
<!-- audited_tap_movement -->
<g id="node3" class="node">
<title>audited_tap_movement</title>
<g id="a_node3"><a xlink:href="../../tables/audited_tap_movement.html" xlink:title="audited_tap_movement" target="_top">
<polygon fill="#ffffff" stroke="transparent" points="301,-1010.7 301,-1052.7 496,-1052.7 496,-1010.7 301,-1010.7"/>
<polygon fill="#f5f5f5" stroke="transparent" points="301.5,-1029.7 301.5,-1052.7 496.5,-1052.7 496.5,-1029.7 301.5,-1029.7"/>
<polygon fill="none" stroke="#000000" points="301.5,-1029.7 301.5,-1052.7 496.5,-1052.7 496.5,-1029.7 301.5,-1029.7"/>
<text text-anchor="start" x="306.5" y="-1038.3" font-family="Helvetica,sans-Serif" font-weight="bold" font-size="11.00" fill="#000000">audited_tap_movement</text>
<text text-anchor="start" x="463.4448" y="-1037.8" font-family="Helvetica,sans-Serif" font-size="11.00" fill="#000000">[view]</text>
<polygon fill="none" stroke="#000000" points="301.5,-1010.7 301.5,-1029.7 496.5,-1029.7 496.5,-1010.7 301.5,-1010.7"/>
<text text-anchor="start" x="304.5" y="-1016.8" font-family="Helvetica,sans-Serif" font-size="11.00" fill="#000000">...</text>
</a>
</g>
</g>
<!-- audited_tap_movement&#45;&gt;person_summary -->
<g id="edge2" class="edge">
<title>audited_tap_movement:w&#45;&gt;person_summary:e</title>
<path fill="none" stroke="#000000" stroke-dasharray="5,2" d="M287.0966,-1019.3306C253.9243,-1017.5069 241.2821,-1009.1708 203,-999.7 184.569,-995.1402 180.9867,-987.7 162,-987.7"/>
<polygon fill="#000000" stroke="#000000" points="293.5026,-1019.4948 301.4077,-1023.2988 297.5013,-1019.5974 301.5,-1019.7 301.5,-1019.7 301.5,-1019.7 297.5013,-1019.5974 301.5923,-1016.1012 293.5026,-1019.4948 293.5026,-1019.4948"/>
<ellipse fill="none" stroke="#000000" cx="290.3037" cy="-1019.4128" rx="3.2" ry="3.2"/>
</g>
<!-- hmpps_domain_event_audit -->
<g id="node4" class="node">
<title>hmpps_domain_event_audit</title>
<g id="a_node4"><a xlink:href="../../tables/hmpps_domain_event_audit.html" xlink:title="hmpps_domain_event_audit" target="_top">
<polygon fill="#ffffff" stroke="transparent" points="286,-120.2 286,-181.2 511,-181.2 511,-120.2 286,-120.2"/>
<polygon fill="#f5f5f5" stroke="transparent" points="286.5,-157.7 286.5,-180.7 511.5,-180.7 511.5,-157.7 286.5,-157.7"/>
<polygon fill="none" stroke="#000000" points="286.5,-157.7 286.5,-180.7 511.5,-180.7 511.5,-157.7 286.5,-157.7"/>
<text text-anchor="start" x="291.5" y="-166.3" font-family="Helvetica,sans-Serif" font-weight="bold" font-size="11.00" fill="#000000">hmpps_domain_event_audit</text>
<text text-anchor="start" x="477.0219" y="-165.8" font-family="Helvetica,sans-Serif" font-size="11.00" fill="#000000">[table]</text>
<polygon fill="none" stroke="#000000" points="286.5,-138.7 286.5,-157.7 511.5,-157.7 511.5,-138.7 286.5,-138.7"/>
<text text-anchor="start" x="289.5" y="-144.8" font-family="Helvetica,sans-Serif" font-size="11.00" fill="#000000">...</text>
<polygon fill="#ffffff" stroke="transparent" points="286.5,-119.7 286.5,-138.7 397.5,-138.7 397.5,-119.7 286.5,-119.7"/>
<polygon fill="none" stroke="#000000" points="286.5,-119.7 286.5,-138.7 397.5,-138.7 397.5,-119.7 286.5,-119.7"/>
<text text-anchor="start" x="289.5" y="-125.8" font-family="Helvetica,sans-Serif" font-size="11.00" fill="#000000">&lt; 1</text>
<polygon fill="#ffffff" stroke="transparent" points="397.5,-119.7 397.5,-138.7 454.5,-138.7 454.5,-119.7 397.5,-119.7"/>
<polygon fill="none" stroke="#000000" points="397.5,-119.7 397.5,-138.7 454.5,-138.7 454.5,-119.7 397.5,-119.7"/>
<text text-anchor="start" x="445.3862" y="-125.8" font-family="Helvetica,sans-Serif" font-size="11.00" fill="#000000"> &#160;</text>
<polygon fill="#ffffff" stroke="transparent" points="454.5,-119.7 454.5,-138.7 511.5,-138.7 511.5,-119.7 454.5,-119.7"/>
<polygon fill="none" stroke="#000000" points="454.5,-119.7 454.5,-138.7 511.5,-138.7 511.5,-119.7 454.5,-119.7"/>
<text text-anchor="start" x="502.3862" y="-125.8" font-family="Helvetica,sans-Serif" font-size="11.00" fill="#000000"> &#160;</text>
</a>
</g>
</g>
<!-- audit_revision -->
<g id="node5" class="node">
<title>audit_revision</title>
<g id="a_node5"><a xlink:href="../../tables/audit_revision.html" xlink:title="audit_revision" target="_top">
<polygon fill="#ffffff" stroke="transparent" points="18,-263.2 18,-346.2 152,-346.2 152,-263.2 18,-263.2"/>
<polygon fill="#f5f5f5" stroke="transparent" points="18,-322.7 18,-345.7 152,-345.7 152,-322.7 18,-322.7"/>
<polygon fill="none" stroke="#000000" points="18,-322.7 18,-345.7 152,-345.7 152,-322.7 18,-322.7"/>
<text text-anchor="start" x="23" y="-331.3" font-family="Helvetica,sans-Serif" font-weight="bold" font-size="11.00" fill="#000000">audit_revision</text>
<text text-anchor="start" x="117.5219" y="-330.8" font-family="Helvetica,sans-Serif" font-size="11.00" fill="#000000">[table]</text>
<polygon fill="none" stroke="#000000" points="18,-300.7 18,-322.7 152,-322.7 152,-300.7 18,-300.7"/>
<image xlink:href="../../images/primaryKeys.png" width="11px" height="12px" preserveAspectRatio="xMinYMin meet" x="23" y="-317.7"/>
<text text-anchor="start" x="38" y="-307.8" font-family="Helvetica,sans-Serif" font-size="11.00" fill="#000000">id</text>
<polygon fill="none" stroke="#000000" points="18,-281.7 18,-300.7 152,-300.7 152,-281.7 18,-281.7"/>
<text text-anchor="start" x="21" y="-287.8" font-family="Helvetica,sans-Serif" font-size="11.00" fill="#000000">...</text>
<polygon fill="#ffffff" stroke="transparent" points="18,-262.7 18,-281.7 74,-281.7 74,-262.7 18,-262.7"/>
<polygon fill="none" stroke="#000000" points="18,-262.7 18,-281.7 74,-281.7 74,-262.7 18,-262.7"/>
<text text-anchor="start" x="21" y="-268.8" font-family="Helvetica,sans-Serif" font-size="11.00" fill="#000000"> &#160;</text>
<polygon fill="#ffffff" stroke="transparent" points="74,-262.7 74,-281.7 108,-281.7 108,-262.7 74,-262.7"/>
<polygon fill="none" stroke="#000000" points="74,-262.7 74,-281.7 108,-281.7 108,-262.7 74,-262.7"/>
<text text-anchor="start" x="98.8862" y="-268.8" font-family="Helvetica,sans-Serif" font-size="11.00" fill="#000000"> &#160;</text>
<polygon fill="#ffffff" stroke="transparent" points="108,-262.7 108,-281.7 152,-281.7 152,-262.7 108,-262.7"/>
<polygon fill="none" stroke="#000000" points="108,-262.7 108,-281.7 152,-281.7 152,-262.7 108,-262.7"/>
<text text-anchor="start" x="133.4053" y="-268.8" font-family="Helvetica,sans-Serif" font-size="11.00" fill="#000000">7 &gt;</text>
</a>
</g>
</g>
<!-- hmpps_domain_event_audit&#45;&gt;audit_revision -->
<g id="edge3" class="edge">
<title>hmpps_domain_event_audit:w&#45;&gt;audit_revision:e</title>
<path fill="none" stroke="#000000" d="M272.0334,-148.3245C241.0265,-151.26 227.8537,-164.6902 203,-191.7 163.7605,-234.3437 209.9502,-311.7 152,-311.7"/>
<polygon fill="#000000" stroke="#000000" points="278.5074,-148.0451 286.6553,-151.2966 282.5037,-147.8725 286.5,-147.7 286.5,-147.7 286.5,-147.7 282.5037,-147.8725 286.3447,-144.1034 278.5074,-148.0451 278.5074,-148.0451"/>
<ellipse fill="none" stroke="#000000" cx="275.3104" cy="-148.1831" rx="3.2" ry="3.2"/>
</g>
<!-- temporary_absence_authorisation -->
<g id="node6" class="node">
<title>temporary_absence_authorisation</title>
<g id="a_node6"><a xlink:href="../../tables/temporary_absence_authorisation.html" xlink:title="temporary_absence_authorisation" target="_top">
<polygon fill="#ffffff" stroke="transparent" points="264.5,-928.2 264.5,-989.2 532.5,-989.2 532.5,-928.2 264.5,-928.2"/>
<polygon fill="#f5f5f5" stroke="transparent" points="264.5,-965.7 264.5,-988.7 532.5,-988.7 532.5,-965.7 264.5,-965.7"/>
<polygon fill="none" stroke="#000000" points="264.5,-965.7 264.5,-988.7 532.5,-988.7 532.5,-965.7 264.5,-965.7"/>
<text text-anchor="start" x="269.5" y="-974.3" font-family="Helvetica,sans-Serif" font-weight="bold" font-size="11.00" fill="#000000">temporary_absence_authorisation</text>
<text text-anchor="start" x="498.0219" y="-973.8" font-family="Helvetica,sans-Serif" font-size="11.00" fill="#000000">[table]</text>
<polygon fill="none" stroke="#000000" points="264.5,-946.7 264.5,-965.7 532.5,-965.7 532.5,-946.7 264.5,-946.7"/>
<text text-anchor="start" x="267.5" y="-952.8" font-family="Helvetica,sans-Serif" font-size="11.00" fill="#000000">...</text>
<polygon fill="#ffffff" stroke="transparent" points="264.5,-927.7 264.5,-946.7 392.5,-946.7 392.5,-927.7 264.5,-927.7"/>
<polygon fill="none" stroke="#000000" points="264.5,-927.7 264.5,-946.7 392.5,-946.7 392.5,-927.7 264.5,-927.7"/>
<text text-anchor="start" x="267.5" y="-933.8" font-family="Helvetica,sans-Serif" font-size="11.00" fill="#000000">&lt; 7</text>
<polygon fill="#ffffff" stroke="transparent" points="392.5,-927.7 392.5,-946.7 457.5,-946.7 457.5,-927.7 392.5,-927.7"/>
<polygon fill="none" stroke="#000000" points="392.5,-927.7 392.5,-946.7 457.5,-946.7 457.5,-927.7 392.5,-927.7"/>
<text text-anchor="start" x="448.3862" y="-933.8" font-family="Helvetica,sans-Serif" font-size="11.00" fill="#000000"> &#160;</text>
<polygon fill="#ffffff" stroke="transparent" points="457.5,-927.7 457.5,-946.7 532.5,-946.7 532.5,-927.7 457.5,-927.7"/>
<polygon fill="none" stroke="#000000" points="457.5,-927.7 457.5,-946.7 532.5,-946.7 532.5,-927.7 457.5,-927.7"/>
<text text-anchor="start" x="513.9053" y="-933.8" font-family="Helvetica,sans-Serif" font-size="11.00" fill="#000000">1 &gt;</text>
</a>
</g>
</g>
<!-- temporary_absence_authorisation&#45;&gt;person_summary -->
<g id="edge4" class="edge">
<title>temporary_absence_authorisation:w&#45;&gt;person_summary:e</title>
<path fill="none" stroke="#000000" d="M249.7288,-956.8389C214.6564,-962.5394 204.3178,-987.7 162,-987.7"/>
<polygon fill="#000000" stroke="#000000" points="256.5237,-956.315 264.7768,-959.2893 260.5118,-956.0075 264.5,-955.7 264.5,-955.7 264.5,-955.7 260.5118,-956.0075 264.2232,-952.1107 256.5237,-956.315 256.5237,-956.315"/>
<ellipse fill="none" stroke="#000000" cx="253.3331" cy="-956.5611" rx="3.2" ry="3.2"/>
</g>
<!-- temporary_absence_authorisation_audit -->
<g id="node7" class="node">
<title>temporary_absence_authorisation_audit</title>
<g id="a_node7"><a xlink:href="../../tables/temporary_absence_authorisation_audit.html" xlink:title="temporary_absence_authorisation_audit" target="_top">
<polygon fill="#ffffff" stroke="transparent" points="244,-448.2 244,-509.2 553,-509.2 553,-448.2 244,-448.2"/>
<polygon fill="#f5f5f5" stroke="transparent" points="244.5,-485.7 244.5,-508.7 553.5,-508.7 553.5,-485.7 244.5,-485.7"/>
<polygon fill="none" stroke="#000000" points="244.5,-485.7 244.5,-508.7 553.5,-508.7 553.5,-485.7 244.5,-485.7"/>
<text text-anchor="start" x="249.5" y="-494.3" font-family="Helvetica,sans-Serif" font-weight="bold" font-size="11.00" fill="#000000">temporary_absence_authorisation_audit</text>
<text text-anchor="start" x="519.0219" y="-493.8" font-family="Helvetica,sans-Serif" font-size="11.00" fill="#000000">[table]</text>
<polygon fill="none" stroke="#000000" points="244.5,-466.7 244.5,-485.7 553.5,-485.7 553.5,-466.7 244.5,-466.7"/>
<text text-anchor="start" x="247.5" y="-472.8" font-family="Helvetica,sans-Serif" font-size="11.00" fill="#000000">...</text>
<polygon fill="#ffffff" stroke="transparent" points="244.5,-447.7 244.5,-466.7 397.5,-466.7 397.5,-447.7 244.5,-447.7"/>
<polygon fill="none" stroke="#000000" points="244.5,-447.7 244.5,-466.7 397.5,-466.7 397.5,-447.7 244.5,-447.7"/>
<text text-anchor="start" x="247.5" y="-453.8" font-family="Helvetica,sans-Serif" font-size="11.00" fill="#000000">&lt; 2</text>
<polygon fill="#ffffff" stroke="transparent" points="397.5,-447.7 397.5,-466.7 475.5,-466.7 475.5,-447.7 397.5,-447.7"/>
<polygon fill="none" stroke="#000000" points="397.5,-447.7 397.5,-466.7 475.5,-466.7 475.5,-447.7 397.5,-447.7"/>
<text text-anchor="start" x="466.3862" y="-453.8" font-family="Helvetica,sans-Serif" font-size="11.00" fill="#000000"> &#160;</text>
<polygon fill="#ffffff" stroke="transparent" points="475.5,-447.7 475.5,-466.7 553.5,-466.7 553.5,-447.7 475.5,-447.7"/>
<polygon fill="none" stroke="#000000" points="475.5,-447.7 475.5,-466.7 553.5,-466.7 553.5,-447.7 475.5,-447.7"/>
<text text-anchor="start" x="544.3862" y="-453.8" font-family="Helvetica,sans-Serif" font-size="11.00" fill="#000000"> &#160;</text>
</a>
</g>
</g>
<!-- temporary_absence_authorisation_audit&#45;&gt;person_summary -->
<g id="edge5" class="edge">
<title>temporary_absence_authorisation_audit:w&#45;&gt;person_summary:e</title>
<path fill="none" stroke="#000000" stroke-dasharray="5,2" d="M230.3072,-478.1641C215.7651,-484.1405 211.6835,-500.3477 203,-519.7 181.6307,-567.3246 214.1992,-987.7 162,-987.7"/>
<polygon fill="#000000" stroke="#000000" points="236.6179,-477.0685 245.1158,-479.2469 240.559,-476.3843 244.5,-475.7 244.5,-475.7 244.5,-475.7 240.559,-476.3843 243.8842,-472.1531 236.6179,-477.0685 236.6179,-477.0685"/>
<ellipse fill="none" stroke="#000000" cx="233.4651" cy="-477.6159" rx="3.2" ry="3.2"/>
</g>
<!-- temporary_absence_authorisation_audit&#45;&gt;audit_revision -->
<g id="edge6" class="edge">
<title>temporary_absence_authorisation_audit:w&#45;&gt;audit_revision:e</title>
<path fill="none" stroke="#000000" d="M230.2101,-473.744C169.8087,-455.2407 230.2898,-311.7 152,-311.7"/>
<polygon fill="#000000" stroke="#000000" points="236.5739,-474.615 244.0118,-479.2667 240.537,-475.1575 244.5,-475.7 244.5,-475.7 244.5,-475.7 240.537,-475.1575 244.9882,-472.1333 236.5739,-474.615 236.5739,-474.615"/>
<ellipse fill="none" stroke="#000000" cx="233.4035" cy="-474.181" rx="3.2" ry="3.2"/>
</g>
<!-- temporary_absence_movement -->
<g id="node8" class="node">
<title>temporary_absence_movement</title>
<g id="a_node8"><a xlink:href="../../tables/temporary_absence_movement.html" xlink:title="temporary_absence_movement" target="_top">
<polygon fill="#ffffff" stroke="transparent" points="274,-1137.2 274,-1198.2 523,-1198.2 523,-1137.2 274,-1137.2"/>
<polygon fill="#f5f5f5" stroke="transparent" points="274.5,-1174.7 274.5,-1197.7 523.5,-1197.7 523.5,-1174.7 274.5,-1174.7"/>
<polygon fill="none" stroke="#000000" points="274.5,-1174.7 274.5,-1197.7 523.5,-1197.7 523.5,-1174.7 274.5,-1174.7"/>
<text text-anchor="start" x="279.5" y="-1183.3" font-family="Helvetica,sans-Serif" font-weight="bold" font-size="11.00" fill="#000000">temporary_absence_movement</text>
<text text-anchor="start" x="489.0219" y="-1182.8" font-family="Helvetica,sans-Serif" font-size="11.00" fill="#000000">[table]</text>
<polygon fill="none" stroke="#000000" points="274.5,-1155.7 274.5,-1174.7 523.5,-1174.7 523.5,-1155.7 274.5,-1155.7"/>
<text text-anchor="start" x="277.5" y="-1161.8" font-family="Helvetica,sans-Serif" font-size="11.00" fill="#000000">...</text>
<polygon fill="#ffffff" stroke="transparent" points="274.5,-1136.7 274.5,-1155.7 397.5,-1155.7 397.5,-1136.7 274.5,-1136.7"/>
<polygon fill="none" stroke="#000000" points="274.5,-1136.7 274.5,-1155.7 397.5,-1155.7 397.5,-1136.7 274.5,-1136.7"/>
<text text-anchor="start" x="277.5" y="-1142.8" font-family="Helvetica,sans-Serif" font-size="11.00" fill="#000000">&lt; 4</text>
<polygon fill="#ffffff" stroke="transparent" points="397.5,-1136.7 397.5,-1155.7 460.5,-1155.7 460.5,-1136.7 397.5,-1136.7"/>
<polygon fill="none" stroke="#000000" points="397.5,-1136.7 397.5,-1155.7 460.5,-1155.7 460.5,-1136.7 397.5,-1136.7"/>
<text text-anchor="start" x="451.3862" y="-1142.8" font-family="Helvetica,sans-Serif" font-size="11.00" fill="#000000"> &#160;</text>
<polygon fill="#ffffff" stroke="transparent" points="460.5,-1136.7 460.5,-1155.7 523.5,-1155.7 523.5,-1136.7 460.5,-1136.7"/>
<polygon fill="none" stroke="#000000" points="460.5,-1136.7 460.5,-1155.7 523.5,-1155.7 523.5,-1136.7 460.5,-1136.7"/>
<text text-anchor="start" x="514.3862" y="-1142.8" font-family="Helvetica,sans-Serif" font-size="11.00" fill="#000000"> &#160;</text>
</a>
</g>
</g>
<!-- temporary_absence_movement&#45;&gt;person_summary -->
<g id="edge7" class="edge">
<title>temporary_absence_movement:w&#45;&gt;person_summary:e</title>
<path fill="none" stroke="#000000" d="M259.9014,-1164.006C234.5054,-1161.304 222.3779,-1150.4407 203,-1126.7 162.2719,-1076.8024 226.4092,-987.7 162,-987.7"/>
<polygon fill="#000000" stroke="#000000" points="266.509,-1164.3201 274.329,-1168.2959 270.5045,-1164.51 274.5,-1164.7 274.5,-1164.7 274.5,-1164.7 270.5045,-1164.51 274.671,-1161.1041 266.509,-1164.3201 266.509,-1164.3201"/>
<ellipse fill="none" stroke="#000000" cx="263.3126" cy="-1164.1681" rx="3.2" ry="3.2"/>
</g>
<!-- temporary_absence_movement_audit -->
<g id="node9" class="node">
<title>temporary_absence_movement_audit</title>
<g id="a_node9"><a xlink:href="../../tables/temporary_absence_movement_audit.html" xlink:title="temporary_absence_movement_audit" target="_top">
<polygon fill="#ffffff" stroke="transparent" points="211,-530.7 211,-906.7 586,-906.7 586,-530.7 211,-530.7"/>
<polygon fill="#f5f5f5" stroke="transparent" points="213.5,-881.7 213.5,-904.7 584.5,-904.7 584.5,-881.7 213.5,-881.7"/>
<polygon fill="none" stroke="#000000" points="213.5,-881.7 213.5,-904.7 584.5,-904.7 584.5,-881.7 213.5,-881.7"/>
<text text-anchor="start" x="218.5" y="-890.3" font-family="Helvetica,sans-Serif" font-weight="bold" font-size="11.00" fill="#000000">temporary_absence_movement_audit</text>
<text text-anchor="start" x="549.5437" y="-889.8" font-family="Helvetica,sans-Serif" font-size="11.00" fill="#000000">[table]</text>
<polygon fill="none" stroke="#000000" points="213.5,-859.7 213.5,-881.7 485.5,-881.7 485.5,-859.7 213.5,-859.7"/>
<image xlink:href="../../images/primaryKeys.png" width="11px" height="12px" preserveAspectRatio="xMinYMin meet" x="218.5" y="-876.7"/>
<text text-anchor="start" x="233.5" y="-866.8" font-family="Helvetica,sans-Serif" font-size="11.00" fill="#000000">rev_id</text>
<polygon fill="none" stroke="#000000" points="485.5,-859.7 485.5,-881.7 584.5,-881.7 584.5,-859.7 485.5,-859.7"/>
<text text-anchor="start" x="488.5" y="-867.4" font-family="Helvetica,sans-Serif" font-size="11.00" fill="#000000">int8[19]</text>
<polygon fill="none" stroke="#000000" points="213.5,-837.7 213.5,-859.7 485.5,-859.7 485.5,-837.7 213.5,-837.7"/>
<text text-anchor="start" x="233.5" y="-844.8" font-family="Helvetica,sans-Serif" font-size="11.00" fill="#000000">rev_type</text>
<polygon fill="none" stroke="#000000" points="485.5,-837.7 485.5,-859.7 584.5,-859.7 584.5,-837.7 485.5,-837.7"/>
<text text-anchor="start" x="488.5" y="-845.4" font-family="Helvetica,sans-Serif" font-size="11.00" fill="#000000">int2[5]</text>
<polygon fill="none" stroke="#000000" points="213.5,-815.7 213.5,-837.7 485.5,-837.7 485.5,-815.7 213.5,-815.7"/>
<image xlink:href="../../images/primaryKeys.png" width="11px" height="12px" preserveAspectRatio="xMinYMin meet" x="218.5" y="-832.7"/>
<text text-anchor="start" x="233.5" y="-822.8" font-family="Helvetica,sans-Serif" font-size="11.00" fill="#000000">id</text>
<polygon fill="none" stroke="#000000" points="485.5,-815.7 485.5,-837.7 584.5,-837.7 584.5,-815.7 485.5,-815.7"/>
<text text-anchor="start" x="488.5" y="-823.4" font-family="Helvetica,sans-Serif" font-size="11.00" fill="#000000">uuid[2147483647]</text>
<polygon fill="none" stroke="#000000" points="213.5,-793.7 213.5,-815.7 485.5,-815.7 485.5,-793.7 213.5,-793.7"/>
<image xlink:href="../../images/foreignKeys.png" width="11px" height="12px" preserveAspectRatio="xMinYMin meet" x="218.5" y="-810.7"/>
<text text-anchor="start" x="233.5" y="-800.8" font-family="Helvetica,sans-Serif" font-size="11.00" fill="#000000">person_identifier</text>
<polygon fill="none" stroke="#000000" points="485.5,-793.7 485.5,-815.7 584.5,-815.7 584.5,-793.7 485.5,-793.7"/>
<text text-anchor="start" x="488.5" y="-801.4" font-family="Helvetica,sans-Serif" font-size="11.00" fill="#000000">varchar[10]</text>
<polygon fill="none" stroke="#000000" points="213.5,-771.7 213.5,-793.7 485.5,-793.7 485.5,-771.7 213.5,-771.7"/>
<text text-anchor="start" x="233.5" y="-778.8" font-family="Helvetica,sans-Serif" font-size="11.00" fill="#000000">occurrence_id</text>
<polygon fill="none" stroke="#000000" points="485.5,-771.7 485.5,-793.7 584.5,-793.7 584.5,-771.7 485.5,-771.7"/>
<text text-anchor="start" x="488.5" y="-779.4" font-family="Helvetica,sans-Serif" font-size="11.00" fill="#000000">uuid[2147483647]</text>
<polygon fill="none" stroke="#000000" points="213.5,-749.7 213.5,-771.7 485.5,-771.7 485.5,-749.7 213.5,-749.7"/>
<text text-anchor="start" x="233.5" y="-756.8" font-family="Helvetica,sans-Serif" font-size="11.00" fill="#000000">occurred_at</text>
<polygon fill="none" stroke="#000000" points="485.5,-749.7 485.5,-771.7 584.5,-771.7 584.5,-749.7 485.5,-749.7"/>
<text text-anchor="start" x="488.5" y="-757.4" font-family="Helvetica,sans-Serif" font-size="11.00" fill="#000000">timestamp[29,6]</text>
<polygon fill="none" stroke="#000000" points="213.5,-727.7 213.5,-749.7 485.5,-749.7 485.5,-727.7 213.5,-727.7"/>
<text text-anchor="start" x="233.5" y="-734.8" font-family="Helvetica,sans-Serif" font-size="11.00" fill="#000000">direction</text>
<polygon fill="none" stroke="#000000" points="485.5,-727.7 485.5,-749.7 584.5,-749.7 584.5,-727.7 485.5,-727.7"/>
<text text-anchor="start" x="488.5" y="-735.4" font-family="Helvetica,sans-Serif" font-size="11.00" fill="#000000">varchar[3]</text>
<polygon fill="none" stroke="#000000" points="213.5,-705.7 213.5,-727.7 485.5,-727.7 485.5,-705.7 213.5,-705.7"/>
<text text-anchor="start" x="233.5" y="-712.8" font-family="Helvetica,sans-Serif" font-size="11.00" fill="#000000">absence_reason_id</text>
<polygon fill="none" stroke="#000000" points="485.5,-705.7 485.5,-727.7 584.5,-727.7 584.5,-705.7 485.5,-705.7"/>
<text text-anchor="start" x="488.5" y="-713.4" font-family="Helvetica,sans-Serif" font-size="11.00" fill="#000000">int8[19]</text>
<polygon fill="none" stroke="#000000" points="213.5,-683.7 213.5,-705.7 485.5,-705.7 485.5,-683.7 213.5,-683.7"/>
<text text-anchor="start" x="233.5" y="-690.8" font-family="Helvetica,sans-Serif" font-size="11.00" fill="#000000">accompanied_by_id</text>
<polygon fill="none" stroke="#000000" points="485.5,-683.7 485.5,-705.7 584.5,-705.7 584.5,-683.7 485.5,-683.7"/>
<text text-anchor="start" x="488.5" y="-691.4" font-family="Helvetica,sans-Serif" font-size="11.00" fill="#000000">int8[19]</text>
<polygon fill="none" stroke="#000000" points="213.5,-661.7 213.5,-683.7 485.5,-683.7 485.5,-661.7 213.5,-661.7"/>
<text text-anchor="start" x="233.5" y="-668.8" font-family="Helvetica,sans-Serif" font-size="11.00" fill="#000000">accompanied_by_comments</text>
<polygon fill="none" stroke="#000000" points="485.5,-661.7 485.5,-683.7 584.5,-683.7 584.5,-661.7 485.5,-661.7"/>
<text text-anchor="start" x="488.5" y="-669.4" font-family="Helvetica,sans-Serif" font-size="11.00" fill="#000000">text[2147483647]</text>
<polygon fill="none" stroke="#000000" points="213.5,-639.7 213.5,-661.7 485.5,-661.7 485.5,-639.7 213.5,-639.7"/>
<text text-anchor="start" x="233.5" y="-646.8" font-family="Helvetica,sans-Serif" font-size="11.00" fill="#000000">comments</text>
<polygon fill="none" stroke="#000000" points="485.5,-639.7 485.5,-661.7 584.5,-661.7 584.5,-639.7 485.5,-639.7"/>
<text text-anchor="start" x="488.5" y="-647.4" font-family="Helvetica,sans-Serif" font-size="11.00" fill="#000000">text[2147483647]</text>
<polygon fill="none" stroke="#000000" points="213.5,-617.7 213.5,-639.7 485.5,-639.7 485.5,-617.7 213.5,-617.7"/>
<text text-anchor="start" x="233.5" y="-624.8" font-family="Helvetica,sans-Serif" font-size="11.00" fill="#000000">recorded_by_prison_code</text>
<polygon fill="none" stroke="#000000" points="485.5,-617.7 485.5,-639.7 584.5,-639.7 584.5,-617.7 485.5,-617.7"/>
<text text-anchor="start" x="488.5" y="-625.4" font-family="Helvetica,sans-Serif" font-size="11.00" fill="#000000">varchar[6]</text>
<polygon fill="none" stroke="#000000" points="213.5,-595.7 213.5,-617.7 485.5,-617.7 485.5,-595.7 213.5,-595.7"/>
<text text-anchor="start" x="233.5" y="-602.8" font-family="Helvetica,sans-Serif" font-size="11.00" fill="#000000">legacy_id</text>
<polygon fill="none" stroke="#000000" points="485.5,-595.7 485.5,-617.7 584.5,-617.7 584.5,-595.7 485.5,-595.7"/>
<text text-anchor="start" x="488.5" y="-603.4" font-family="Helvetica,sans-Serif" font-size="11.00" fill="#000000">varchar[32]</text>
<polygon fill="none" stroke="#000000" points="213.5,-573.7 213.5,-595.7 485.5,-595.7 485.5,-573.7 213.5,-573.7"/>
<text text-anchor="start" x="233.5" y="-580.8" font-family="Helvetica,sans-Serif" font-size="11.00" fill="#000000">location</text>
<polygon fill="none" stroke="#000000" points="485.5,-573.7 485.5,-595.7 584.5,-595.7 584.5,-573.7 485.5,-573.7"/>
<text text-anchor="start" x="488.2258" y="-581.4" font-family="Helvetica,sans-Serif" font-size="11.00" fill="#000000">jsonb[2147483647]</text>
<polygon fill="none" stroke="#000000" points="213.5,-551.7 213.5,-573.7 485.5,-573.7 485.5,-551.7 213.5,-551.7"/>
<text text-anchor="start" x="233.5" y="-558.8" font-family="Helvetica,sans-Serif" font-size="11.00" fill="#000000">version</text>
<polygon fill="none" stroke="#000000" points="485.5,-551.7 485.5,-573.7 584.5,-573.7 584.5,-551.7 485.5,-551.7"/>
<text text-anchor="start" x="488.5" y="-559.4" font-family="Helvetica,sans-Serif" font-size="11.00" fill="#000000">int4[10]</text>
<polygon fill="#ffffff" stroke="transparent" points="213.5,-532.7 213.5,-551.7 353.5,-551.7 353.5,-532.7 213.5,-532.7"/>
<polygon fill="none" stroke="#000000" points="213.5,-532.7 213.5,-551.7 353.5,-551.7 353.5,-532.7 213.5,-532.7"/>
<text text-anchor="start" x="216.5" y="-538.8" font-family="Helvetica,sans-Serif" font-size="11.00" fill="#000000">&lt; 2</text>
<polygon fill="#ffffff" stroke="transparent" points="353.5,-532.7 353.5,-551.7 485.5,-551.7 485.5,-532.7 353.5,-532.7"/>
<polygon fill="none" stroke="#000000" points="353.5,-532.7 353.5,-551.7 485.5,-551.7 485.5,-532.7 353.5,-532.7"/>
<text text-anchor="start" x="476.3862" y="-538.8" font-family="Helvetica,sans-Serif" font-size="11.00" fill="#000000"> &#160;</text>
<polygon fill="#ffffff" stroke="transparent" points="485.5,-532.7 485.5,-551.7 584.5,-551.7 584.5,-532.7 485.5,-532.7"/>
<polygon fill="none" stroke="#000000" points="485.5,-532.7 485.5,-551.7 584.5,-551.7 584.5,-532.7 485.5,-532.7"/>
<text text-anchor="start" x="565.9053" y="-538.8" font-family="Helvetica,sans-Serif" font-size="11.00" fill="#000000">0 &gt;</text>
<polygon fill="none" stroke="#000000" stroke-width="2" points="212,-531.7 212,-905.7 585,-905.7 585,-531.7 212,-531.7"/>
</a>
</g>
</g>
<!-- temporary_absence_movement_audit&#45;&gt;person_summary -->
<g id="edge8" class="edge">
<title>temporary_absence_movement_audit:w&#45;&gt;person_summary:e</title>
<path fill="none" stroke="#000000" stroke-dasharray="5,2" d="M199.2212,-807.0138C143.7202,-828.1977 240.8818,-987.7 162,-987.7"/>
<polygon fill="#000000" stroke="#000000" points="205.603,-805.9797 214.0759,-808.2536 209.5515,-805.3399 213.5,-804.7 213.5,-804.7 213.5,-804.7 209.5515,-805.3399 212.9241,-801.1464 205.603,-805.9797 205.603,-805.9797"/>
<ellipse fill="none" stroke="#000000" cx="202.4442" cy="-806.4916" rx="3.2" ry="3.2"/>
</g>
<!-- temporary_absence_movement_audit&#45;&gt;audit_revision -->
<g id="edge9" class="edge">
<title>temporary_absence_movement_audit:w&#45;&gt;audit_revision:e</title>
<path fill="none" stroke="#000000" d="M199.3681,-867.8257C103.8019,-824.7384 271.7239,-311.7 152,-311.7"/>
<polygon fill="#000000" stroke="#000000" points="205.6605,-869.1055 212.7825,-874.2278 209.5803,-869.9027 213.5,-870.7 213.5,-870.7 213.5,-870.7 209.5803,-869.9027 214.2175,-867.1722 205.6605,-869.1055 205.6605,-869.1055"/>
<ellipse fill="none" stroke="#000000" cx="202.5247" cy="-868.4676" rx="3.2" ry="3.2"/>
</g>
<!-- temporary_absence_occurrence_audit -->
<g id="node10" class="node">
<title>temporary_absence_occurrence_audit</title>
<g id="a_node10"><a xlink:href="../../tables/temporary_absence_occurrence_audit.html" xlink:title="temporary_absence_occurrence_audit" target="_top">
<polygon fill="#ffffff" stroke="transparent" points="252,-38.2 252,-99.2 545,-99.2 545,-38.2 252,-38.2"/>
<polygon fill="#f5f5f5" stroke="transparent" points="252.5,-75.7 252.5,-98.7 545.5,-98.7 545.5,-75.7 252.5,-75.7"/>
<polygon fill="none" stroke="#000000" points="252.5,-75.7 252.5,-98.7 545.5,-98.7 545.5,-75.7 252.5,-75.7"/>
<text text-anchor="start" x="257.5" y="-84.3" font-family="Helvetica,sans-Serif" font-weight="bold" font-size="11.00" fill="#000000">temporary_absence_occurrence_audit</text>
<text text-anchor="start" x="511.0219" y="-83.8" font-family="Helvetica,sans-Serif" font-size="11.00" fill="#000000">[table]</text>
<polygon fill="none" stroke="#000000" points="252.5,-56.7 252.5,-75.7 545.5,-75.7 545.5,-56.7 252.5,-56.7"/>
<text text-anchor="start" x="255.5" y="-62.8" font-family="Helvetica,sans-Serif" font-size="11.00" fill="#000000">...</text>
<polygon fill="#ffffff" stroke="transparent" points="252.5,-37.7 252.5,-56.7 397.5,-56.7 397.5,-37.7 252.5,-37.7"/>
<polygon fill="none" stroke="#000000" points="252.5,-37.7 252.5,-56.7 397.5,-56.7 397.5,-37.7 252.5,-37.7"/>
<text text-anchor="start" x="255.5" y="-43.8" font-family="Helvetica,sans-Serif" font-size="11.00" fill="#000000">&lt; 1</text>
<polygon fill="#ffffff" stroke="transparent" points="397.5,-37.7 397.5,-56.7 471.5,-56.7 471.5,-37.7 397.5,-37.7"/>
<polygon fill="none" stroke="#000000" points="397.5,-37.7 397.5,-56.7 471.5,-56.7 471.5,-37.7 397.5,-37.7"/>
<text text-anchor="start" x="462.3862" y="-43.8" font-family="Helvetica,sans-Serif" font-size="11.00" fill="#000000"> &#160;</text>
<polygon fill="#ffffff" stroke="transparent" points="471.5,-37.7 471.5,-56.7 545.5,-56.7 545.5,-37.7 471.5,-37.7"/>
<polygon fill="none" stroke="#000000" points="471.5,-37.7 471.5,-56.7 545.5,-56.7 545.5,-37.7 471.5,-37.7"/>
<text text-anchor="start" x="536.3862" y="-43.8" font-family="Helvetica,sans-Serif" font-size="11.00" fill="#000000"> &#160;</text>
</a>
</g>
</g>
<!-- temporary_absence_occurrence_audit&#45;&gt;audit_revision -->
<g id="edge10" class="edge">
<title>temporary_absence_occurrence_audit:w&#45;&gt;audit_revision:e</title>
<path fill="none" stroke="#000000" d="M237.8119,-67.7628C220.7949,-73.3006 215.294,-89.4544 203,-109.7 154.9393,-188.8454 244.595,-311.7 152,-311.7"/>
<polygon fill="#000000" stroke="#000000" points="244.5777,-66.8127 253.0007,-69.265 248.5389,-66.2563 252.5,-65.7 252.5,-65.7 252.5,-65.7 248.5389,-66.2563 251.9993,-62.135 244.5777,-66.8127 244.5777,-66.8127"/>
<ellipse fill="none" stroke="#000000" cx="241.4088" cy="-67.2577" rx="3.2" ry="3.2"/>
</g>
<!-- tap.authorisation_audit -->
<g id="node11" class="node">
<title>tap.authorisation_audit</title>
<g id="a_node11"><a xlink:title="tap.authorisation_audit">
<polygon fill="#ffffff" stroke="transparent" points="299.5,-366.2 299.5,-427.2 497.5,-427.2 497.5,-366.2 299.5,-366.2"/>
<polygon fill="#f5f5f5" stroke="transparent" points="299.5,-403.7 299.5,-426.7 497.5,-426.7 497.5,-403.7 299.5,-403.7"/>
<polygon fill="none" stroke="#000000" points="299.5,-403.7 299.5,-426.7 497.5,-426.7 497.5,-403.7 299.5,-403.7"/>
<text text-anchor="start" x="304.5" y="-412.3" font-family="Helvetica,sans-Serif" font-weight="bold" font-size="11.00" fill="#000000">tap.authorisation_audit</text>
<text text-anchor="start" x="463.0219" y="-411.8" font-family="Helvetica,sans-Serif" font-size="11.00" fill="#000000">[table]</text>
<polygon fill="none" stroke="#000000" points="299.5,-384.7 299.5,-403.7 497.5,-403.7 497.5,-384.7 299.5,-384.7"/>
<text text-anchor="start" x="302.5" y="-390.8" font-family="Helvetica,sans-Serif" font-size="11.00" fill="#000000">...</text>
<polygon fill="#ffffff" stroke="transparent" points="299.5,-365.7 299.5,-384.7 383.5,-384.7 383.5,-365.7 299.5,-365.7"/>
<polygon fill="none" stroke="#000000" points="299.5,-365.7 299.5,-384.7 383.5,-384.7 383.5,-365.7 299.5,-365.7"/>
<text text-anchor="start" x="302.5" y="-371.8" font-family="Helvetica,sans-Serif" font-size="11.00" fill="#000000">&lt; 1</text>
<polygon fill="#ffffff" stroke="transparent" points="383.5,-365.7 383.5,-384.7 453.5,-384.7 453.5,-365.7 383.5,-365.7"/>
<polygon fill="none" stroke="#000000" points="383.5,-365.7 383.5,-384.7 453.5,-384.7 453.5,-365.7 383.5,-365.7"/>
<text text-anchor="start" x="418.1105" y="-371.8" font-family="Helvetica,sans-Serif" font-size="11.00" fill="#000000">0 rows</text>
<polygon fill="#ffffff" stroke="transparent" points="453.5,-365.7 453.5,-384.7 497.5,-384.7 497.5,-365.7 453.5,-365.7"/>
<polygon fill="none" stroke="#000000" points="453.5,-365.7 453.5,-384.7 497.5,-384.7 497.5,-365.7 453.5,-365.7"/>
<text text-anchor="start" x="488.3862" y="-371.8" font-family="Helvetica,sans-Serif" font-size="11.00" fill="#000000"> &#160;</text>
</a>
</g>
</g>
<!-- tap.authorisation_audit&#45;&gt;audit_revision -->
<g id="edge11" class="edge">
<title>tap.authorisation_audit:w&#45;&gt;audit_revision:e</title>
<path fill="none" stroke="#000000" d="M285.0955,-393.1613C250.5584,-390.367 237.9833,-376.8364 203,-355.7 177.377,-340.219 181.9366,-311.7 152,-311.7"/>
<polygon fill="#000000" stroke="#000000" points="291.5056,-393.401 299.3654,-397.2975 295.5028,-393.5505 299.5,-393.7 299.5,-393.7 299.5,-393.7 295.5028,-393.5505 299.6346,-390.1025 291.5056,-393.401 291.5056,-393.401"/>
<ellipse fill="none" stroke="#000000" cx="288.3078" cy="-393.2813" rx="3.2" ry="3.2"/>
</g>
<!-- tap.movement_audit -->
<g id="node12" class="node">
<title>tap.movement_audit</title>
<g id="a_node12"><a xlink:title="tap.movement_audit">
<polygon fill="#ffffff" stroke="transparent" points="309.5,-284.2 309.5,-345.2 487.5,-345.2 487.5,-284.2 309.5,-284.2"/>
<polygon fill="#f5f5f5" stroke="transparent" points="309.5,-321.7 309.5,-344.7 487.5,-344.7 487.5,-321.7 309.5,-321.7"/>
<polygon fill="none" stroke="#000000" points="309.5,-321.7 309.5,-344.7 487.5,-344.7 487.5,-321.7 309.5,-321.7"/>
<text text-anchor="start" x="314.5" y="-330.3" font-family="Helvetica,sans-Serif" font-weight="bold" font-size="11.00" fill="#000000">tap.movement_audit</text>
<text text-anchor="start" x="453.0219" y="-329.8" font-family="Helvetica,sans-Serif" font-size="11.00" fill="#000000">[table]</text>
<polygon fill="none" stroke="#000000" points="309.5,-302.7 309.5,-321.7 487.5,-321.7 487.5,-302.7 309.5,-302.7"/>
<text text-anchor="start" x="312.5" y="-308.8" font-family="Helvetica,sans-Serif" font-size="11.00" fill="#000000">...</text>
<polygon fill="#ffffff" stroke="transparent" points="309.5,-283.7 309.5,-302.7 383.5,-302.7 383.5,-283.7 309.5,-283.7"/>
<polygon fill="none" stroke="#000000" points="309.5,-283.7 309.5,-302.7 383.5,-302.7 383.5,-283.7 309.5,-283.7"/>
<text text-anchor="start" x="312.5" y="-289.8" font-family="Helvetica,sans-Serif" font-size="11.00" fill="#000000">&lt; 1</text>
<polygon fill="#ffffff" stroke="transparent" points="383.5,-283.7 383.5,-302.7 448.5,-302.7 448.5,-283.7 383.5,-283.7"/>
<polygon fill="none" stroke="#000000" points="383.5,-283.7 383.5,-302.7 448.5,-302.7 448.5,-283.7 383.5,-283.7"/>
<text text-anchor="start" x="413.1105" y="-289.8" font-family="Helvetica,sans-Serif" font-size="11.00" fill="#000000">0 rows</text>
<polygon fill="#ffffff" stroke="transparent" points="448.5,-283.7 448.5,-302.7 487.5,-302.7 487.5,-283.7 448.5,-283.7"/>
<polygon fill="none" stroke="#000000" points="448.5,-283.7 448.5,-302.7 487.5,-302.7 487.5,-283.7 448.5,-283.7"/>
<text text-anchor="start" x="478.3862" y="-289.8" font-family="Helvetica,sans-Serif" font-size="11.00" fill="#000000"> &#160;</text>
</a>
</g>
</g>
<!-- tap.movement_audit&#45;&gt;audit_revision -->
<g id="edge12" class="edge">
<title>tap.movement_audit:w&#45;&gt;audit_revision:e</title>
<path fill="none" stroke="#000000" d="M294.7387,-311.7C236.6132,-311.7 216.8047,-311.7 152,-311.7"/>
<polygon fill="#000000" stroke="#000000" points="301.5,-311.7001 309.5,-315.3 305.5,-311.7 309.5,-311.7 309.5,-311.7 309.5,-311.7 305.5,-311.7 309.5,-308.1 301.5,-311.7001 301.5,-311.7001"/>
<ellipse fill="none" stroke="#000000" cx="298.3" cy="-311.7001" rx="3.2" ry="3.2"/>
</g>
<!-- tap.occurrence_audit -->
<g id="node13" class="node">
<title>tap.occurrence_audit</title>
<g id="a_node13"><a xlink:title="tap.occurrence_audit">
<polygon fill="#ffffff" stroke="transparent" points="308,-202.2 308,-263.2 489,-263.2 489,-202.2 308,-202.2"/>
<polygon fill="#f5f5f5" stroke="transparent" points="308.5,-239.7 308.5,-262.7 489.5,-262.7 489.5,-239.7 308.5,-239.7"/>
<polygon fill="none" stroke="#000000" points="308.5,-239.7 308.5,-262.7 489.5,-262.7 489.5,-239.7 308.5,-239.7"/>
<text text-anchor="start" x="313.5" y="-248.3" font-family="Helvetica,sans-Serif" font-weight="bold" font-size="11.00" fill="#000000">tap.occurrence_audit</text>
<text text-anchor="start" x="455.0219" y="-247.8" font-family="Helvetica,sans-Serif" font-size="11.00" fill="#000000">[table]</text>
<polygon fill="none" stroke="#000000" points="308.5,-220.7 308.5,-239.7 489.5,-239.7 489.5,-220.7 308.5,-220.7"/>
<text text-anchor="start" x="311.5" y="-226.8" font-family="Helvetica,sans-Serif" font-size="11.00" fill="#000000">...</text>
<polygon fill="#ffffff" stroke="transparent" points="308.5,-201.7 308.5,-220.7 384.5,-220.7 384.5,-201.7 308.5,-201.7"/>
<polygon fill="none" stroke="#000000" points="308.5,-201.7 308.5,-220.7 384.5,-220.7 384.5,-201.7 308.5,-201.7"/>
<text text-anchor="start" x="311.5" y="-207.8" font-family="Helvetica,sans-Serif" font-size="11.00" fill="#000000">&lt; 1</text>
<polygon fill="#ffffff" stroke="transparent" points="384.5,-201.7 384.5,-220.7 449.5,-220.7 449.5,-201.7 384.5,-201.7"/>
<polygon fill="none" stroke="#000000" points="384.5,-201.7 384.5,-220.7 449.5,-220.7 449.5,-201.7 384.5,-201.7"/>
<text text-anchor="start" x="414.1105" y="-207.8" font-family="Helvetica,sans-Serif" font-size="11.00" fill="#000000">0 rows</text>
<polygon fill="#ffffff" stroke="transparent" points="449.5,-201.7 449.5,-220.7 489.5,-220.7 489.5,-201.7 449.5,-201.7"/>
<polygon fill="none" stroke="#000000" points="449.5,-201.7 449.5,-220.7 489.5,-220.7 489.5,-201.7 449.5,-201.7"/>
<text text-anchor="start" x="480.3862" y="-207.8" font-family="Helvetica,sans-Serif" font-size="11.00" fill="#000000"> &#160;</text>
</a>
</g>
</g>
<!-- tap.occurrence_audit&#45;&gt;audit_revision -->
<g id="edge13" class="edge">
<title>tap.occurrence_audit:w&#45;&gt;audit_revision:e</title>
<path fill="none" stroke="#000000" d="M293.9352,-230.2922C255.1521,-233.6712 242.5754,-251.1592 203,-273.7 178.4379,-287.6898 180.2668,-311.7 152,-311.7"/>
<polygon fill="#000000" stroke="#000000" points="300.5066,-230.0251 308.6463,-233.297 304.5033,-229.8625 308.5,-229.7 308.5,-229.7 308.5,-229.7 304.5033,-229.8625 308.3537,-226.103 300.5066,-230.0251 300.5066,-230.0251"/>
<ellipse fill="none" stroke="#000000" cx="297.3092" cy="-230.1551" rx="3.2" ry="3.2"/>
</g>
</g>
</svg>
