<?xml version="1.0" encoding="UTF-8" standalone="no"?>
<!DOCTYPE svg PUBLIC "-//W3C//DTD SVG 1.1//EN"
 "http://www.w3.org/Graphics/SVG/1.1/DTD/svg11.dtd">
<!-- Generated by graphviz version 2.40.1 (20161225.0304)
 -->
<!-- Title: oneDegreeRelationshipsDiagram Pages: 1 -->
<svg width="404pt" height="121pt"
 viewBox="0.00 0.00 404.00 121.20" xmlns="http://www.w3.org/2000/svg" xmlns:xlink="http://www.w3.org/1999/xlink">
<g id="graph0" class="graph" transform="scale(1 1) rotate(0) translate(4 117.2)">
<title>oneDegreeRelationshipsDiagram</title>
<polygon fill="#ffffff" stroke="transparent" points="-4,4 -4,-117.2 400,-117.2 400,4 -4,4"/>
<text text-anchor="middle" x="72.4936" y="-7.3" font-family="Helvetica,sans-Serif" font-size="11.00" fill="#000000">Generated by SchemaSpy</text>
<!-- temporary_absence_occurrence_status -->
<g id="node1" class="node">
<title>temporary_absence_occurrence_status</title>
<g id="a_node1"><a xlink:href="../../tables/temporary_absence_occurrence_status.html" xlink:title="temporary_absence_occurrence_status" target="_top">
<polygon fill="#ffffff" stroke="transparent" points="8,-38.2 8,-109.2 388,-109.2 388,-38.2 8,-38.2"/>
<polygon fill="#f5f5f5" stroke="transparent" points="10,-83.7 10,-106.7 386,-106.7 386,-83.7 10,-83.7"/>
<polygon fill="none" stroke="#000000" points="10,-83.7 10,-106.7 386,-106.7 386,-83.7 10,-83.7"/>
<text text-anchor="start" x="15" y="-92.3" font-family="Helvetica,sans-Serif" font-weight="bold" font-size="11.00" fill="#000000">temporary_absence_occurrence_status</text>
<text text-anchor="start" x="352.8895" y="-91.8" font-family="Helvetica,sans-Serif" font-size="11.00" fill="#000000">[view]</text>
<polygon fill="none" stroke="#000000" points="10,-61.7 10,-83.7 292,-83.7 292,-61.7 10,-61.7"/>
<text text-anchor="start" x="30" y="-68.8" font-family="Helvetica,sans-Serif" font-size="11.00" fill="#000000">occurrence_id</text>
<polygon fill="none" stroke="#000000" points="292,-61.7 292,-83.7 386,-83.7 386,-61.7 292,-61.7"/>
<text text-anchor="start" x="294.9758" y="-69.4" font-family="Helvetica,sans-Serif" font-size="11.00" fill="#000000">uuid[2147483647]</text>
<polygon fill="none" stroke="#000000" points="10,-39.7 10,-61.7 292,-61.7 292,-39.7 10,-39.7"/>
<text text-anchor="start" x="30" y="-46.8" font-family="Helvetica,sans-Serif" font-size="11.00" fill="#000000">status_id</text>
<polygon fill="none" stroke="#000000" points="292,-39.7 292,-61.7 386,-61.7 386,-39.7 292,-39.7"/>
<text text-anchor="start" x="295" y="-47.4" font-family="Helvetica,sans-Serif" font-size="11.00" fill="#000000">int8[19]</text>
<polygon fill="none" stroke="#000000" stroke-width="2" points="9,-39.2 9,-108.2 387,-108.2 387,-39.2 9,-39.2"/>
</a>
</g>
</g>
</g>
</svg>
