<?xml version="1.0" encoding="UTF-8" standalone="no"?>
<!DOCTYPE svg PUBLIC "-//W3C//DTD SVG 1.1//EN"
 "http://www.w3.org/Graphics/SVG/1.1/DTD/svg11.dtd">
<!-- Generated by graphviz version 2.40.1 (20161225.0304)
 -->
<!-- Title: twoDegreesRelationshipsDiagram Pages: 1 -->
<svg width="601pt" height="909pt"
 viewBox="0.00 0.00 601.00 909.20" xmlns="http://www.w3.org/2000/svg" xmlns:xlink="http://www.w3.org/1999/xlink">
<g id="graph0" class="graph" transform="scale(1 1) rotate(0) translate(4 905.2)">
<title>twoDegreesRelationshipsDiagram</title>
<polygon fill="#ffffff" stroke="transparent" points="-4,4 -4,-905.2 597,-905.2 597,4 -4,4"/>
<text text-anchor="middle" x="72.4936" y="-7.3" font-family="Helvetica,sans-Serif" font-size="11.00" fill="#000000">Generated by SchemaSpy</text>
<!-- hmpps_domain_event_audit -->
<g id="node1" class="node">
<title>hmpps_domain_event_audit</title>
<g id="a_node1"><a xlink:href="../../tables/hmpps_domain_event_audit.html" xlink:title="hmpps_domain_event_audit" target="_top">
<polygon fill="#ffffff" stroke="transparent" points="275.5,-836.2 275.5,-897.2 500.5,-897.2 500.5,-836.2 275.5,-836.2"/>
<polygon fill="#f5f5f5" stroke="transparent" points="276,-873.7 276,-896.7 501,-896.7 501,-873.7 276,-873.7"/>
<polygon fill="none" stroke="#000000" points="276,-873.7 276,-896.7 501,-896.7 501,-873.7 276,-873.7"/>
<text text-anchor="start" x="281" y="-882.3" font-family="Helvetica,sans-Serif" font-weight="bold" font-size="11.00" fill="#000000">hmpps_domain_event_audit</text>
<text text-anchor="start" x="466.5219" y="-881.8" font-family="Helvetica,sans-Serif" font-size="11.00" fill="#000000">[table]</text>
<polygon fill="none" stroke="#000000" points="276,-854.7 276,-873.7 501,-873.7 501,-854.7 276,-854.7"/>
<text text-anchor="start" x="279" y="-860.8" font-family="Helvetica,sans-Serif" font-size="11.00" fill="#000000">...</text>
<polygon fill="#ffffff" stroke="transparent" points="276,-835.7 276,-854.7 387,-854.7 387,-835.7 276,-835.7"/>
<polygon fill="none" stroke="#000000" points="276,-835.7 276,-854.7 387,-854.7 387,-835.7 276,-835.7"/>
<text text-anchor="start" x="279" y="-841.8" font-family="Helvetica,sans-Serif" font-size="11.00" fill="#000000">&lt; 1</text>
<polygon fill="#ffffff" stroke="transparent" points="387,-835.7 387,-854.7 444,-854.7 444,-835.7 387,-835.7"/>
<polygon fill="none" stroke="#000000" points="387,-835.7 387,-854.7 444,-854.7 444,-835.7 387,-835.7"/>
<text text-anchor="start" x="434.8862" y="-841.8" font-family="Helvetica,sans-Serif" font-size="11.00" fill="#000000"> &#160;</text>
<polygon fill="#ffffff" stroke="transparent" points="444,-835.7 444,-854.7 501,-854.7 501,-835.7 444,-835.7"/>
<polygon fill="none" stroke="#000000" points="444,-835.7 444,-854.7 501,-854.7 501,-835.7 444,-835.7"/>
<text text-anchor="start" x="491.8862" y="-841.8" font-family="Helvetica,sans-Serif" font-size="11.00" fill="#000000"> &#160;</text>
</a>
</g>
</g>
<!-- audit_revision -->
<g id="node2" class="node">
<title>audit_revision</title>
<g id="a_node2"><a xlink:href="../../tables/audit_revision.html" xlink:title="audit_revision" target="_top">
<polygon fill="#ffffff" stroke="transparent" points="8,-648.2 8,-731.2 142,-731.2 142,-648.2 8,-648.2"/>
<polygon fill="#f5f5f5" stroke="transparent" points="8,-707.7 8,-730.7 142,-730.7 142,-707.7 8,-707.7"/>
<polygon fill="none" stroke="#000000" points="8,-707.7 8,-730.7 142,-730.7 142,-707.7 8,-707.7"/>
<text text-anchor="start" x="13" y="-716.3" font-family="Helvetica,sans-Serif" font-weight="bold" font-size="11.00" fill="#000000">audit_revision</text>
<text text-anchor="start" x="107.5219" y="-715.8" font-family="Helvetica,sans-Serif" font-size="11.00" fill="#000000">[table]</text>
<polygon fill="none" stroke="#000000" points="8,-685.7 8,-707.7 142,-707.7 142,-685.7 8,-685.7"/>
<image xlink:href="../../images/primaryKeys.png" width="11px" height="12px" preserveAspectRatio="xMinYMin meet" x="13" y="-702.7"/>
<text text-anchor="start" x="28" y="-692.8" font-family="Helvetica,sans-Serif" font-size="11.00" fill="#000000">id</text>
<polygon fill="none" stroke="#000000" points="8,-666.7 8,-685.7 142,-685.7 142,-666.7 8,-666.7"/>
<text text-anchor="start" x="11" y="-672.8" font-family="Helvetica,sans-Serif" font-size="11.00" fill="#000000">...</text>
<polygon fill="#ffffff" stroke="transparent" points="8,-647.7 8,-666.7 64,-666.7 64,-647.7 8,-647.7"/>
<polygon fill="none" stroke="#000000" points="8,-647.7 8,-666.7 64,-666.7 64,-647.7 8,-647.7"/>
<text text-anchor="start" x="11" y="-653.8" font-family="Helvetica,sans-Serif" font-size="11.00" fill="#000000"> &#160;</text>
<polygon fill="#ffffff" stroke="transparent" points="64,-647.7 64,-666.7 98,-666.7 98,-647.7 64,-647.7"/>
<polygon fill="none" stroke="#000000" points="64,-647.7 64,-666.7 98,-666.7 98,-647.7 64,-647.7"/>
<text text-anchor="start" x="88.8862" y="-653.8" font-family="Helvetica,sans-Serif" font-size="11.00" fill="#000000"> &#160;</text>
<polygon fill="#ffffff" stroke="transparent" points="98,-647.7 98,-666.7 142,-666.7 142,-647.7 98,-647.7"/>
<polygon fill="none" stroke="#000000" points="98,-647.7 98,-666.7 142,-666.7 142,-647.7 98,-647.7"/>
<text text-anchor="start" x="123.4053" y="-653.8" font-family="Helvetica,sans-Serif" font-size="11.00" fill="#000000">5 &gt;</text>
</a>
</g>
</g>
<!-- hmpps_domain_event_audit&#45;&gt;audit_revision -->
<g id="edge1" class="edge">
<title>hmpps_domain_event_audit:w&#45;&gt;audit_revision:e</title>
<path fill="none" stroke="#000000" d="M261.3353,-863.4502C226.9471,-862.1048 209.7335,-854.6674 183,-825.7 142.1997,-781.4903 202.1595,-696.7 142,-696.7"/>
<polygon fill="#000000" stroke="#000000" points="268.0012,-863.5637 275.9387,-867.2995 272.0006,-863.6318 276,-863.7 276,-863.7 276,-863.7 272.0006,-863.6318 276.0613,-860.1005 268.0012,-863.5637 268.0012,-863.5637"/>
<ellipse fill="none" stroke="#000000" cx="264.8016" cy="-863.5092" rx="3.2" ry="3.2"/>
</g>
<!-- tap_occurrence_action_audit -->
<g id="node3" class="node">
<title>tap_occurrence_action_audit</title>
<g id="a_node3"><a xlink:href="../../tables/tap_occurrence_action_audit.html" xlink:title="tap_occurrence_action_audit" target="_top">
<polygon fill="#ffffff" stroke="transparent" points="272.5,-754.2 272.5,-815.2 503.5,-815.2 503.5,-754.2 272.5,-754.2"/>
<polygon fill="#f5f5f5" stroke="transparent" points="273,-791.7 273,-814.7 504,-814.7 504,-791.7 273,-791.7"/>
<polygon fill="none" stroke="#000000" points="273,-791.7 273,-814.7 504,-814.7 504,-791.7 273,-791.7"/>
<text text-anchor="start" x="278" y="-800.3" font-family="Helvetica,sans-Serif" font-weight="bold" font-size="11.00" fill="#000000">tap_occurrence_action_audit</text>
<text text-anchor="start" x="469.5219" y="-799.8" font-family="Helvetica,sans-Serif" font-size="11.00" fill="#000000">[table]</text>
<polygon fill="none" stroke="#000000" points="273,-772.7 273,-791.7 504,-791.7 504,-772.7 273,-772.7"/>
<text text-anchor="start" x="276" y="-778.8" font-family="Helvetica,sans-Serif" font-size="11.00" fill="#000000">...</text>
<polygon fill="#ffffff" stroke="transparent" points="273,-753.7 273,-772.7 387,-772.7 387,-753.7 273,-753.7"/>
<polygon fill="none" stroke="#000000" points="273,-753.7 273,-772.7 387,-772.7 387,-753.7 273,-753.7"/>
<text text-anchor="start" x="276" y="-759.8" font-family="Helvetica,sans-Serif" font-size="11.00" fill="#000000">&lt; 1</text>
<polygon fill="#ffffff" stroke="transparent" points="387,-753.7 387,-772.7 445,-772.7 445,-753.7 387,-753.7"/>
<polygon fill="none" stroke="#000000" points="387,-753.7 387,-772.7 445,-772.7 445,-753.7 387,-753.7"/>
<text text-anchor="start" x="435.8862" y="-759.8" font-family="Helvetica,sans-Serif" font-size="11.00" fill="#000000"> &#160;</text>
<polygon fill="#ffffff" stroke="transparent" points="445,-753.7 445,-772.7 504,-772.7 504,-753.7 445,-753.7"/>
<polygon fill="none" stroke="#000000" points="445,-753.7 445,-772.7 504,-772.7 504,-753.7 445,-753.7"/>
<text text-anchor="start" x="494.8862" y="-759.8" font-family="Helvetica,sans-Serif" font-size="11.00" fill="#000000"> &#160;</text>
</a>
</g>
</g>
<!-- tap_occurrence_action_audit&#45;&gt;audit_revision -->
<g id="edge2" class="edge">
<title>tap_occurrence_action_audit:w&#45;&gt;audit_revision:e</title>
<path fill="none" stroke="#000000" d="M258.5358,-781.1476C226.4695,-778.4729 213.9141,-766.0744 183,-743.7 160.5444,-727.4475 169.7199,-696.7 142,-696.7"/>
<polygon fill="#000000" stroke="#000000" points="265.0058,-781.3946 272.8626,-785.2974 269.0029,-781.5473 273,-781.7 273,-781.7 273,-781.7 269.0029,-781.5473 273.1374,-778.1026 265.0058,-781.3946 265.0058,-781.3946"/>
<ellipse fill="none" stroke="#000000" cx="261.8082" cy="-781.2725" rx="3.2" ry="3.2"/>
</g>
<!-- temporary_absence_authorisation_audit -->
<g id="node4" class="node">
<title>temporary_absence_authorisation_audit</title>
<g id="a_node4"><a xlink:href="../../tables/temporary_absence_authorisation_audit.html" xlink:title="temporary_absence_authorisation_audit" target="_top">
<polygon fill="#ffffff" stroke="transparent" points="191,-202.7 191,-732.7 585,-732.7 585,-202.7 191,-202.7"/>
<polygon fill="#f5f5f5" stroke="transparent" points="193,-707.7 193,-730.7 583,-730.7 583,-707.7 193,-707.7"/>
<polygon fill="none" stroke="#000000" points="193,-707.7 193,-730.7 583,-730.7 583,-707.7 193,-707.7"/>
<text text-anchor="start" x="198" y="-716.3" font-family="Helvetica,sans-Serif" font-weight="bold" font-size="11.00" fill="#000000">temporary_absence_authorisation_audit</text>
<text text-anchor="start" x="548.0437" y="-715.8" font-family="Helvetica,sans-Serif" font-size="11.00" fill="#000000">[table]</text>
<polygon fill="none" stroke="#000000" points="193,-685.7 193,-707.7 484,-707.7 484,-685.7 193,-685.7"/>
<image xlink:href="../../images/primaryKeys.png" width="11px" height="12px" preserveAspectRatio="xMinYMin meet" x="198" y="-702.7"/>
<text text-anchor="start" x="213" y="-692.8" font-family="Helvetica,sans-Serif" font-size="11.00" fill="#000000">rev_id</text>
<polygon fill="none" stroke="#000000" points="484,-685.7 484,-707.7 583,-707.7 583,-685.7 484,-685.7"/>
<text text-anchor="start" x="487" y="-693.4" font-family="Helvetica,sans-Serif" font-size="11.00" fill="#000000">int8[19]</text>
<polygon fill="none" stroke="#000000" points="193,-663.7 193,-685.7 484,-685.7 484,-663.7 193,-663.7"/>
<text text-anchor="start" x="213" y="-670.8" font-family="Helvetica,sans-Serif" font-size="11.00" fill="#000000">rev_type</text>
<polygon fill="none" stroke="#000000" points="484,-663.7 484,-685.7 583,-685.7 583,-663.7 484,-663.7"/>
<text text-anchor="start" x="487" y="-671.4" font-family="Helvetica,sans-Serif" font-size="11.00" fill="#000000">int2[5]</text>
<polygon fill="none" stroke="#000000" points="193,-641.7 193,-663.7 484,-663.7 484,-641.7 193,-641.7"/>
<image xlink:href="../../images/primaryKeys.png" width="11px" height="12px" preserveAspectRatio="xMinYMin meet" x="198" y="-658.7"/>
<text text-anchor="start" x="213" y="-648.8" font-family="Helvetica,sans-Serif" font-size="11.00" fill="#000000">id</text>
<polygon fill="none" stroke="#000000" points="484,-641.7 484,-663.7 583,-663.7 583,-641.7 484,-641.7"/>
<text text-anchor="start" x="487" y="-649.4" font-family="Helvetica,sans-Serif" font-size="11.00" fill="#000000">uuid[2147483647]</text>
<polygon fill="none" stroke="#000000" points="193,-619.7 193,-641.7 484,-641.7 484,-619.7 193,-619.7"/>
<text text-anchor="start" x="213" y="-626.8" font-family="Helvetica,sans-Serif" font-size="11.00" fill="#000000">person_identifier</text>
<polygon fill="none" stroke="#000000" points="484,-619.7 484,-641.7 583,-641.7 583,-619.7 484,-619.7"/>
<text text-anchor="start" x="487" y="-627.4" font-family="Helvetica,sans-Serif" font-size="11.00" fill="#000000">varchar[10]</text>
<polygon fill="none" stroke="#000000" points="193,-597.7 193,-619.7 484,-619.7 484,-597.7 193,-597.7"/>
<text text-anchor="start" x="213" y="-604.8" font-family="Helvetica,sans-Serif" font-size="11.00" fill="#000000">prison_code</text>
<polygon fill="none" stroke="#000000" points="484,-597.7 484,-619.7 583,-619.7 583,-597.7 484,-597.7"/>
<text text-anchor="start" x="487" y="-605.4" font-family="Helvetica,sans-Serif" font-size="11.00" fill="#000000">varchar[6]</text>
<polygon fill="none" stroke="#000000" points="193,-575.7 193,-597.7 484,-597.7 484,-575.7 193,-575.7"/>
<text text-anchor="start" x="213" y="-582.8" font-family="Helvetica,sans-Serif" font-size="11.00" fill="#000000">absence_type_id</text>
<polygon fill="none" stroke="#000000" points="484,-575.7 484,-597.7 583,-597.7 583,-575.7 484,-575.7"/>
<text text-anchor="start" x="487" y="-583.4" font-family="Helvetica,sans-Serif" font-size="11.00" fill="#000000">int8[19]</text>
<polygon fill="none" stroke="#000000" points="193,-553.7 193,-575.7 484,-575.7 484,-553.7 193,-553.7"/>
<text text-anchor="start" x="213" y="-560.8" font-family="Helvetica,sans-Serif" font-size="11.00" fill="#000000">absence_sub_type_id</text>
<polygon fill="none" stroke="#000000" points="484,-553.7 484,-575.7 583,-575.7 583,-553.7 484,-553.7"/>
<text text-anchor="start" x="487" y="-561.4" font-family="Helvetica,sans-Serif" font-size="11.00" fill="#000000">int8[19]</text>
<polygon fill="none" stroke="#000000" points="193,-531.7 193,-553.7 484,-553.7 484,-531.7 193,-531.7"/>
<text text-anchor="start" x="213" y="-538.8" font-family="Helvetica,sans-Serif" font-size="11.00" fill="#000000">absence_reason_id</text>
<polygon fill="none" stroke="#000000" points="484,-531.7 484,-553.7 583,-553.7 583,-531.7 484,-531.7"/>
<text text-anchor="start" x="487" y="-539.4" font-family="Helvetica,sans-Serif" font-size="11.00" fill="#000000">int8[19]</text>
<polygon fill="none" stroke="#000000" points="193,-509.7 193,-531.7 484,-531.7 484,-509.7 193,-509.7"/>
<text text-anchor="start" x="213" y="-516.8" font-family="Helvetica,sans-Serif" font-size="11.00" fill="#000000">repeat</text>
<polygon fill="none" stroke="#000000" points="484,-509.7 484,-531.7 583,-531.7 583,-509.7 484,-509.7"/>
<text text-anchor="start" x="487" y="-517.4" font-family="Helvetica,sans-Serif" font-size="11.00" fill="#000000">bool[1]</text>
<polygon fill="none" stroke="#000000" points="193,-487.7 193,-509.7 484,-509.7 484,-487.7 193,-487.7"/>
<text text-anchor="start" x="213" y="-494.8" font-family="Helvetica,sans-Serif" font-size="11.00" fill="#000000">status_id</text>
<polygon fill="none" stroke="#000000" points="484,-487.7 484,-509.7 583,-509.7 583,-487.7 484,-487.7"/>
<text text-anchor="start" x="487" y="-495.4" font-family="Helvetica,sans-Serif" font-size="11.00" fill="#000000">int8[19]</text>
<polygon fill="none" stroke="#000000" points="193,-465.7 193,-487.7 484,-487.7 484,-465.7 193,-465.7"/>
<text text-anchor="start" x="213" y="-472.8" font-family="Helvetica,sans-Serif" font-size="11.00" fill="#000000">notes</text>
<polygon fill="none" stroke="#000000" points="484,-465.7 484,-487.7 583,-487.7 583,-465.7 484,-465.7"/>
<text text-anchor="start" x="487" y="-473.4" font-family="Helvetica,sans-Serif" font-size="11.00" fill="#000000">text[2147483647]</text>
<polygon fill="none" stroke="#000000" points="193,-443.7 193,-465.7 484,-465.7 484,-443.7 193,-443.7"/>
<text text-anchor="start" x="213" y="-450.8" font-family="Helvetica,sans-Serif" font-size="11.00" fill="#000000">application_date</text>
<polygon fill="none" stroke="#000000" points="484,-443.7 484,-465.7 583,-465.7 583,-443.7 484,-443.7"/>
<text text-anchor="start" x="487" y="-451.4" font-family="Helvetica,sans-Serif" font-size="11.00" fill="#000000">date[13]</text>
<polygon fill="none" stroke="#000000" points="193,-421.7 193,-443.7 484,-443.7 484,-421.7 193,-421.7"/>
<text text-anchor="start" x="213" y="-428.8" font-family="Helvetica,sans-Serif" font-size="11.00" fill="#000000">submitted_at</text>
<polygon fill="none" stroke="#000000" points="484,-421.7 484,-443.7 583,-443.7 583,-421.7 484,-421.7"/>
<text text-anchor="start" x="487" y="-429.4" font-family="Helvetica,sans-Serif" font-size="11.00" fill="#000000">timestamp[29,6]</text>
<polygon fill="none" stroke="#000000" points="193,-399.7 193,-421.7 484,-421.7 484,-399.7 193,-399.7"/>
<text text-anchor="start" x="213" y="-406.8" font-family="Helvetica,sans-Serif" font-size="11.00" fill="#000000">submitted_by</text>
<polygon fill="none" stroke="#000000" points="484,-399.7 484,-421.7 583,-421.7 583,-399.7 484,-399.7"/>
<text text-anchor="start" x="487" y="-407.4" font-family="Helvetica,sans-Serif" font-size="11.00" fill="#000000">varchar[64]</text>
<polygon fill="none" stroke="#000000" points="193,-377.7 193,-399.7 484,-399.7 484,-377.7 193,-377.7"/>
<text text-anchor="start" x="213" y="-384.8" font-family="Helvetica,sans-Serif" font-size="11.00" fill="#000000">approved_at</text>
<polygon fill="none" stroke="#000000" points="484,-377.7 484,-399.7 583,-399.7 583,-377.7 484,-377.7"/>
<text text-anchor="start" x="487" y="-385.4" font-family="Helvetica,sans-Serif" font-size="11.00" fill="#000000">timestamp[29,6]</text>
<polygon fill="none" stroke="#000000" points="193,-355.7 193,-377.7 484,-377.7 484,-355.7 193,-355.7"/>
<text text-anchor="start" x="213" y="-362.8" font-family="Helvetica,sans-Serif" font-size="11.00" fill="#000000">approved_by</text>
<polygon fill="none" stroke="#000000" points="484,-355.7 484,-377.7 583,-377.7 583,-355.7 484,-355.7"/>
<text text-anchor="start" x="487" y="-363.4" font-family="Helvetica,sans-Serif" font-size="11.00" fill="#000000">varchar[64]</text>
<polygon fill="none" stroke="#000000" points="193,-333.7 193,-355.7 484,-355.7 484,-333.7 193,-333.7"/>
<text text-anchor="start" x="213" y="-340.8" font-family="Helvetica,sans-Serif" font-size="11.00" fill="#000000">legacy_id</text>
<polygon fill="none" stroke="#000000" points="484,-333.7 484,-355.7 583,-355.7 583,-333.7 484,-333.7"/>
<text text-anchor="start" x="487" y="-341.4" font-family="Helvetica,sans-Serif" font-size="11.00" fill="#000000">int8[19]</text>
<polygon fill="none" stroke="#000000" points="193,-311.7 193,-333.7 484,-333.7 484,-311.7 193,-311.7"/>
<text text-anchor="start" x="213" y="-318.8" font-family="Helvetica,sans-Serif" font-size="11.00" fill="#000000">from_date</text>
<polygon fill="none" stroke="#000000" points="484,-311.7 484,-333.7 583,-333.7 583,-311.7 484,-311.7"/>
<text text-anchor="start" x="487" y="-319.4" font-family="Helvetica,sans-Serif" font-size="11.00" fill="#000000">date[13]</text>
<polygon fill="none" stroke="#000000" points="193,-289.7 193,-311.7 484,-311.7 484,-289.7 193,-289.7"/>
<text text-anchor="start" x="213" y="-296.8" font-family="Helvetica,sans-Serif" font-size="11.00" fill="#000000">to_date</text>
<polygon fill="none" stroke="#000000" points="484,-289.7 484,-311.7 583,-311.7 583,-289.7 484,-289.7"/>
<text text-anchor="start" x="487" y="-297.4" font-family="Helvetica,sans-Serif" font-size="11.00" fill="#000000">date[13]</text>
<polygon fill="none" stroke="#000000" points="193,-267.7 193,-289.7 484,-289.7 484,-267.7 193,-267.7"/>
<text text-anchor="start" x="213" y="-274.8" font-family="Helvetica,sans-Serif" font-size="11.00" fill="#000000">schedule</text>
<polygon fill="none" stroke="#000000" points="484,-267.7 484,-289.7 583,-289.7 583,-267.7 484,-267.7"/>
<text text-anchor="start" x="486.7258" y="-275.4" font-family="Helvetica,sans-Serif" font-size="11.00" fill="#000000">jsonb[2147483647]</text>
<polygon fill="none" stroke="#000000" points="193,-245.7 193,-267.7 484,-267.7 484,-245.7 193,-245.7"/>
<text text-anchor="start" x="213" y="-252.8" font-family="Helvetica,sans-Serif" font-size="11.00" fill="#000000">absence_reason_category_id</text>
<polygon fill="none" stroke="#000000" points="484,-245.7 484,-267.7 583,-267.7 583,-245.7 484,-245.7"/>
<text text-anchor="start" x="487" y="-253.4" font-family="Helvetica,sans-Serif" font-size="11.00" fill="#000000">int8[19]</text>
<polygon fill="none" stroke="#000000" points="193,-223.7 193,-245.7 484,-245.7 484,-223.7 193,-223.7"/>
<text text-anchor="start" x="213" y="-230.8" font-family="Helvetica,sans-Serif" font-size="11.00" fill="#000000">reason_path</text>
<polygon fill="none" stroke="#000000" points="484,-223.7 484,-245.7 583,-245.7 583,-223.7 484,-223.7"/>
<text text-anchor="start" x="486.7258" y="-231.4" font-family="Helvetica,sans-Serif" font-size="11.00" fill="#000000">jsonb[2147483647]</text>
<polygon fill="#ffffff" stroke="transparent" points="193,-204.7 193,-223.7 343,-223.7 343,-204.7 193,-204.7"/>
<polygon fill="none" stroke="#000000" points="193,-204.7 193,-223.7 343,-223.7 343,-204.7 193,-204.7"/>
<text text-anchor="start" x="196" y="-210.8" font-family="Helvetica,sans-Serif" font-size="11.00" fill="#000000">&lt; 1</text>
<polygon fill="#ffffff" stroke="transparent" points="343,-204.7 343,-223.7 484,-223.7 484,-204.7 343,-204.7"/>
<polygon fill="none" stroke="#000000" points="343,-204.7 343,-223.7 484,-223.7 484,-204.7 343,-204.7"/>
<text text-anchor="start" x="474.8862" y="-210.8" font-family="Helvetica,sans-Serif" font-size="11.00" fill="#000000"> &#160;</text>
<polygon fill="#ffffff" stroke="transparent" points="484,-204.7 484,-223.7 583,-223.7 583,-204.7 484,-204.7"/>
<polygon fill="none" stroke="#000000" points="484,-204.7 484,-223.7 583,-223.7 583,-204.7 484,-204.7"/>
<text text-anchor="start" x="564.4053" y="-210.8" font-family="Helvetica,sans-Serif" font-size="11.00" fill="#000000">0 &gt;</text>
<polygon fill="none" stroke="#000000" stroke-width="2" points="192,-203.7 192,-731.7 584,-731.7 584,-203.7 192,-203.7"/>
</a>
</g>
</g>
<!-- temporary_absence_authorisation_audit&#45;&gt;audit_revision -->
<g id="edge3" class="edge">
<title>temporary_absence_authorisation_audit:w&#45;&gt;audit_revision:e</title>
<path fill="none" stroke="#000000" d="M178.276,-696.7C166.2815,-696.7 158.8229,-696.7 142,-696.7"/>
<polygon fill="#000000" stroke="#000000" points="185,-696.7001 193,-700.3 189,-696.7 193,-696.7 193,-696.7 193,-696.7 189,-696.7 193,-693.1 185,-696.7001 185,-696.7001"/>
<ellipse fill="none" stroke="#000000" cx="181.8" cy="-696.7001" rx="3.2" ry="3.2"/>
</g>
<!-- temporary_absence_movement_audit -->
<g id="node5" class="node">
<title>temporary_absence_movement_audit</title>
<g id="a_node5"><a xlink:href="../../tables/temporary_absence_movement_audit.html" xlink:title="temporary_absence_movement_audit" target="_top">
<polygon fill="#ffffff" stroke="transparent" points="243,-120.2 243,-181.2 533,-181.2 533,-120.2 243,-120.2"/>
<polygon fill="#f5f5f5" stroke="transparent" points="243,-157.7 243,-180.7 533,-180.7 533,-157.7 243,-157.7"/>
<polygon fill="none" stroke="#000000" points="243,-157.7 243,-180.7 533,-180.7 533,-157.7 243,-157.7"/>
<text text-anchor="start" x="248" y="-166.3" font-family="Helvetica,sans-Serif" font-weight="bold" font-size="11.00" fill="#000000">temporary_absence_movement_audit</text>
<text text-anchor="start" x="498.5219" y="-165.8" font-family="Helvetica,sans-Serif" font-size="11.00" fill="#000000">[table]</text>
<polygon fill="none" stroke="#000000" points="243,-138.7 243,-157.7 533,-157.7 533,-138.7 243,-138.7"/>
<text text-anchor="start" x="246" y="-144.8" font-family="Helvetica,sans-Serif" font-size="11.00" fill="#000000">...</text>
<polygon fill="#ffffff" stroke="transparent" points="243,-119.7 243,-138.7 386,-138.7 386,-119.7 243,-119.7"/>
<polygon fill="none" stroke="#000000" points="243,-119.7 243,-138.7 386,-138.7 386,-119.7 243,-119.7"/>
<text text-anchor="start" x="246" y="-125.8" font-family="Helvetica,sans-Serif" font-size="11.00" fill="#000000">&lt; 1</text>
<polygon fill="#ffffff" stroke="transparent" points="386,-119.7 386,-138.7 459,-138.7 459,-119.7 386,-119.7"/>
<polygon fill="none" stroke="#000000" points="386,-119.7 386,-138.7 459,-138.7 459,-119.7 386,-119.7"/>
<text text-anchor="start" x="449.8862" y="-125.8" font-family="Helvetica,sans-Serif" font-size="11.00" fill="#000000"> &#160;</text>
<polygon fill="#ffffff" stroke="transparent" points="459,-119.7 459,-138.7 533,-138.7 533,-119.7 459,-119.7"/>
<polygon fill="none" stroke="#000000" points="459,-119.7 459,-138.7 533,-138.7 533,-119.7 459,-119.7"/>
<text text-anchor="start" x="523.8862" y="-125.8" font-family="Helvetica,sans-Serif" font-size="11.00" fill="#000000"> &#160;</text>
</a>
</g>
</g>
<!-- temporary_absence_movement_audit&#45;&gt;audit_revision -->
<g id="edge4" class="edge">
<title>temporary_absence_movement_audit:w&#45;&gt;audit_revision:e</title>
<path fill="none" stroke="#000000" d="M228.6203,-148.9069C206.1413,-153.1087 196.5253,-168.1893 183,-192.7 155.855,-241.8925 198.185,-696.7 142,-696.7"/>
<polygon fill="#000000" stroke="#000000" points="235.028,-148.3692 243.3011,-151.2874 239.014,-148.0346 243,-147.7 243,-147.7 243,-147.7 239.014,-148.0346 242.6989,-144.1126 235.028,-148.3692 235.028,-148.3692"/>
<ellipse fill="none" stroke="#000000" cx="231.8392" cy="-148.6368" rx="3.2" ry="3.2"/>
</g>
<!-- temporary_absence_occurrence_audit -->
<g id="node6" class="node">
<title>temporary_absence_occurrence_audit</title>
<g id="a_node6"><a xlink:href="../../tables/temporary_absence_occurrence_audit.html" xlink:title="temporary_absence_occurrence_audit" target="_top">
<polygon fill="#ffffff" stroke="transparent" points="241.5,-38.2 241.5,-99.2 534.5,-99.2 534.5,-38.2 241.5,-38.2"/>
<polygon fill="#f5f5f5" stroke="transparent" points="242,-75.7 242,-98.7 535,-98.7 535,-75.7 242,-75.7"/>
<polygon fill="none" stroke="#000000" points="242,-75.7 242,-98.7 535,-98.7 535,-75.7 242,-75.7"/>
<text text-anchor="start" x="247" y="-84.3" font-family="Helvetica,sans-Serif" font-weight="bold" font-size="11.00" fill="#000000">temporary_absence_occurrence_audit</text>
<text text-anchor="start" x="500.5219" y="-83.8" font-family="Helvetica,sans-Serif" font-size="11.00" fill="#000000">[table]</text>
<polygon fill="none" stroke="#000000" points="242,-56.7 242,-75.7 535,-75.7 535,-56.7 242,-56.7"/>
<text text-anchor="start" x="245" y="-62.8" font-family="Helvetica,sans-Serif" font-size="11.00" fill="#000000">...</text>
<polygon fill="#ffffff" stroke="transparent" points="242,-37.7 242,-56.7 387,-56.7 387,-37.7 242,-37.7"/>
<polygon fill="none" stroke="#000000" points="242,-37.7 242,-56.7 387,-56.7 387,-37.7 242,-37.7"/>
<text text-anchor="start" x="245" y="-43.8" font-family="Helvetica,sans-Serif" font-size="11.00" fill="#000000">&lt; 1</text>
<polygon fill="#ffffff" stroke="transparent" points="387,-37.7 387,-56.7 461,-56.7 461,-37.7 387,-37.7"/>
<polygon fill="none" stroke="#000000" points="387,-37.7 387,-56.7 461,-56.7 461,-37.7 387,-37.7"/>
<text text-anchor="start" x="451.8862" y="-43.8" font-family="Helvetica,sans-Serif" font-size="11.00" fill="#000000"> &#160;</text>
<polygon fill="#ffffff" stroke="transparent" points="461,-37.7 461,-56.7 535,-56.7 535,-37.7 461,-37.7"/>
<polygon fill="none" stroke="#000000" points="461,-37.7 461,-56.7 535,-56.7 535,-37.7 461,-37.7"/>
<text text-anchor="start" x="525.8862" y="-43.8" font-family="Helvetica,sans-Serif" font-size="11.00" fill="#000000"> &#160;</text>
</a>
</g>
</g>
<!-- temporary_absence_occurrence_audit&#45;&gt;audit_revision -->
<g id="edge5" class="edge">
<title>temporary_absence_occurrence_audit:w&#45;&gt;audit_revision:e</title>
<path fill="none" stroke="#000000" d="M227.5646,-66.9265C205.671,-71.0786 196.1066,-85.7012 183,-109.7 151.6619,-167.0813 207.3811,-696.7 142,-696.7"/>
<polygon fill="#000000" stroke="#000000" points="234.0287,-66.3773 242.3048,-69.2871 238.0144,-66.0387 242,-65.7 242,-65.7 242,-65.7 238.0144,-66.0387 241.6952,-62.1129 234.0287,-66.3773 234.0287,-66.3773"/>
<ellipse fill="none" stroke="#000000" cx="230.8402" cy="-66.6482" rx="3.2" ry="3.2"/>
</g>
</g>
</svg>
