<?xml version="1.0" encoding="UTF-8" standalone="no"?>
<!DOCTYPE svg PUBLIC "-//W3C//DTD SVG 1.1//EN"
 "http://www.w3.org/Graphics/SVG/1.1/DTD/svg11.dtd">
<!-- Generated by graphviz version 2.40.1 (20161225.0304)
 -->
<!-- Title: twoDegreesRelationshipsDiagram Pages: 1 -->
<svg width="1424pt" height="842pt"
 viewBox="0.00 0.00 1424.00 841.73" xmlns="http://www.w3.org/2000/svg" xmlns:xlink="http://www.w3.org/1999/xlink">
<g id="graph0" class="graph" transform="scale(1 1) rotate(0) translate(4 837.7329)">
<title>twoDegreesRelationshipsDiagram</title>
<polygon fill="#ffffff" stroke="transparent" points="-4,4 -4,-837.7329 1420,-837.7329 1420,4 -4,4"/>
<text text-anchor="middle" x="72.4936" y="-7.3" font-family="Helvetica,sans-Serif" font-size="11.00" fill="#000000">Generated by SchemaSpy</text>
<!-- reference_data -->
<g id="node1" class="node">
<title>reference_data</title>
<g id="a_node1"><a xlink:href="../../tables/reference_data.html" xlink:title="reference_data" target="_top">
<polygon fill="#ffffff" stroke="transparent" points="260,-187.7329 260,-248.7329 400,-248.7329 400,-187.7329 260,-187.7329"/>
<polygon fill="#f5f5f5" stroke="transparent" points="260,-225.2329 260,-248.2329 400,-248.2329 400,-225.2329 260,-225.2329"/>
<polygon fill="none" stroke="#000000" points="260,-225.2329 260,-248.2329 400,-248.2329 400,-225.2329 260,-225.2329"/>
<text text-anchor="start" x="265" y="-233.8329" font-family="Helvetica,sans-Serif" font-weight="bold" font-size="11.00" fill="#000000">reference_data</text>
<text text-anchor="start" x="365.5219" y="-233.3329" font-family="Helvetica,sans-Serif" font-size="11.00" fill="#000000">[table]</text>
<polygon fill="none" stroke="#000000" points="260,-206.2329 260,-225.2329 400,-225.2329 400,-206.2329 260,-206.2329"/>
<text text-anchor="start" x="263" y="-212.3329" font-family="Helvetica,sans-Serif" font-size="11.00" fill="#000000">...</text>
<polygon fill="#ffffff" stroke="transparent" points="260,-187.2329 260,-206.2329 321,-206.2329 321,-187.2329 260,-187.2329"/>
<polygon fill="none" stroke="#000000" points="260,-187.2329 260,-206.2329 321,-206.2329 321,-187.2329 260,-187.2329"/>
<text text-anchor="start" x="263" y="-193.3329" font-family="Helvetica,sans-Serif" font-size="11.00" fill="#000000">&lt; 1</text>
<polygon fill="#ffffff" stroke="transparent" points="321,-187.2329 321,-206.2329 353,-206.2329 353,-187.2329 321,-187.2329"/>
<polygon fill="none" stroke="#000000" points="321,-187.2329 321,-206.2329 353,-206.2329 353,-187.2329 321,-187.2329"/>
<text text-anchor="start" x="343.8862" y="-193.3329" font-family="Helvetica,sans-Serif" font-size="11.00" fill="#000000"> &#160;</text>
<polygon fill="#ffffff" stroke="transparent" points="353,-187.2329 353,-206.2329 400,-206.2329 400,-187.2329 353,-187.2329"/>
<polygon fill="none" stroke="#000000" points="353,-187.2329 353,-206.2329 400,-206.2329 400,-187.2329 353,-187.2329"/>
<text text-anchor="start" x="375.2904" y="-193.3329" font-family="Helvetica,sans-Serif" font-size="11.00" fill="#000000">18 &gt;</text>
</a>
</g>
</g>
<!-- reference_data_domain -->
<g id="node2" class="node">
<title>reference_data_domain</title>
<g id="a_node2"><a xlink:href="../../tables/reference_data_domain.html" xlink:title="reference_data_domain" target="_top">
<polygon fill="#ffffff" stroke="transparent" points="8,-454.7329 8,-515.7329 204,-515.7329 204,-454.7329 8,-454.7329"/>
<polygon fill="#f5f5f5" stroke="transparent" points="8,-492.2329 8,-515.2329 204,-515.2329 204,-492.2329 8,-492.2329"/>
<polygon fill="none" stroke="#000000" points="8,-492.2329 8,-515.2329 204,-515.2329 204,-492.2329 8,-492.2329"/>
<text text-anchor="start" x="13" y="-500.8329" font-family="Helvetica,sans-Serif" font-weight="bold" font-size="11.00" fill="#000000">reference_data_domain</text>
<text text-anchor="start" x="169.5219" y="-500.3329" font-family="Helvetica,sans-Serif" font-size="11.00" fill="#000000">[table]</text>
<polygon fill="none" stroke="#000000" points="8,-473.2329 8,-492.2329 204,-492.2329 204,-473.2329 8,-473.2329"/>
<text text-anchor="start" x="11" y="-479.3329" font-family="Helvetica,sans-Serif" font-size="11.00" fill="#000000">...</text>
<polygon fill="#ffffff" stroke="transparent" points="8,-454.2329 8,-473.2329 95,-473.2329 95,-454.2329 8,-454.2329"/>
<polygon fill="none" stroke="#000000" points="8,-454.2329 8,-473.2329 95,-473.2329 95,-454.2329 8,-454.2329"/>
<text text-anchor="start" x="11" y="-460.3329" font-family="Helvetica,sans-Serif" font-size="11.00" fill="#000000"> &#160;</text>
<polygon fill="#ffffff" stroke="transparent" points="95,-454.2329 95,-473.2329 145,-473.2329 145,-454.2329 95,-454.2329"/>
<polygon fill="none" stroke="#000000" points="95,-454.2329 95,-473.2329 145,-473.2329 145,-454.2329 95,-454.2329"/>
<text text-anchor="start" x="135.8862" y="-460.3329" font-family="Helvetica,sans-Serif" font-size="11.00" fill="#000000"> &#160;</text>
<polygon fill="#ffffff" stroke="transparent" points="145,-454.2329 145,-473.2329 204,-473.2329 204,-454.2329 145,-454.2329"/>
<polygon fill="none" stroke="#000000" points="145,-454.2329 145,-473.2329 204,-473.2329 204,-454.2329 145,-454.2329"/>
<text text-anchor="start" x="185.4053" y="-460.3329" font-family="Helvetica,sans-Serif" font-size="11.00" fill="#000000">2 &gt;</text>
</a>
</g>
</g>
<!-- reference_data&#45;&gt;reference_data_domain -->
<g id="edge1" class="edge">
<title>reference_data:w&#45;&gt;reference_data_domain:e</title>
<path fill="none" stroke="#000000" d="M317.3556,-267.1163C296.162,-343.4305 251.1357,-482.2329 204,-482.2329"/>
<polygon fill="#000000" stroke="#000000" points="319.1674,-260.465 324.7435,-253.6925 320.2188,-256.6056 321.2701,-252.7463 321.2701,-252.7463 321.2701,-252.7463 320.2188,-256.6056 317.7967,-251.8 319.1674,-260.465 319.1674,-260.465"/>
<ellipse fill="none" stroke="#000000" cx="318.3263" cy="-263.5525" rx="3.2" ry="3.2"/>
</g>
<!-- reference_data_domain_link -->
<g id="node3" class="node">
<title>reference_data_domain_link</title>
<g id="a_node3"><a xlink:href="../../tables/reference_data_domain_link.html" xlink:title="reference_data_domain_link" target="_top">
<polygon fill="#ffffff" stroke="transparent" points="519,-768.7329 519,-829.7329 746,-829.7329 746,-768.7329 519,-768.7329"/>
<polygon fill="#f5f5f5" stroke="transparent" points="519.5,-806.2329 519.5,-829.2329 746.5,-829.2329 746.5,-806.2329 519.5,-806.2329"/>
<polygon fill="none" stroke="#000000" points="519.5,-806.2329 519.5,-829.2329 746.5,-829.2329 746.5,-806.2329 519.5,-806.2329"/>
<text text-anchor="start" x="524.5" y="-814.8329" font-family="Helvetica,sans-Serif" font-weight="bold" font-size="11.00" fill="#000000">reference_data_domain_link</text>
<text text-anchor="start" x="712.0219" y="-814.3329" font-family="Helvetica,sans-Serif" font-size="11.00" fill="#000000">[table]</text>
<polygon fill="none" stroke="#000000" points="519.5,-787.2329 519.5,-806.2329 746.5,-806.2329 746.5,-787.2329 519.5,-787.2329"/>
<text text-anchor="start" x="522.5" y="-793.3329" font-family="Helvetica,sans-Serif" font-size="11.00" fill="#000000">...</text>
<polygon fill="#ffffff" stroke="transparent" points="519.5,-768.2329 519.5,-787.2329 631.5,-787.2329 631.5,-768.2329 519.5,-768.2329"/>
<polygon fill="none" stroke="#000000" points="519.5,-768.2329 519.5,-787.2329 631.5,-787.2329 631.5,-768.2329 519.5,-768.2329"/>
<text text-anchor="start" x="522.5" y="-774.3329" font-family="Helvetica,sans-Serif" font-size="11.00" fill="#000000">&lt; 2</text>
<polygon fill="#ffffff" stroke="transparent" points="631.5,-768.2329 631.5,-787.2329 688.5,-787.2329 688.5,-768.2329 631.5,-768.2329"/>
<polygon fill="none" stroke="#000000" points="631.5,-768.2329 631.5,-787.2329 688.5,-787.2329 688.5,-768.2329 631.5,-768.2329"/>
<text text-anchor="start" x="679.3862" y="-774.3329" font-family="Helvetica,sans-Serif" font-size="11.00" fill="#000000"> &#160;</text>
<polygon fill="#ffffff" stroke="transparent" points="688.5,-768.2329 688.5,-787.2329 746.5,-787.2329 746.5,-768.2329 688.5,-768.2329"/>
<polygon fill="none" stroke="#000000" points="688.5,-768.2329 688.5,-787.2329 746.5,-787.2329 746.5,-768.2329 688.5,-768.2329"/>
<text text-anchor="start" x="737.3862" y="-774.3329" font-family="Helvetica,sans-Serif" font-size="11.00" fill="#000000"> &#160;</text>
</a>
</g>
</g>
<!-- reference_data_domain_link&#45;&gt;reference_data -->
<g id="edge3" class="edge">
<title>reference_data_domain_link:w&#45;&gt;reference_data:e</title>
<path fill="none" stroke="#000000" d="M508.7615,-795.57C475.2012,-791.1395 467.7445,-764.9674 448,-731.2329 435.637,-710.11 361.3174,-365.0251 337.4052,-253.0299"/>
<polygon fill="#000000" stroke="#000000" points="518.948,-792.1912 518.4551,-800.176 516.8581,-800.0774 517.351,-792.0926 518.948,-792.1912"/>
<polyline fill="none" stroke="#000000" points="519.5,-796.2329 515.5076,-795.9864 "/>
<ellipse fill="none" stroke="#000000" cx="512.3137" cy="-795.7892" rx="3.2" ry="3.2"/>
</g>
<!-- reference_data_domain_link&#45;&gt;reference_data_domain -->
<g id="edge2" class="edge">
<title>reference_data_domain_link:w&#45;&gt;reference_data_domain:e</title>
<path fill="none" stroke="#000000" d="M504.799,-796.2677C386.6404,-796.7839 326.2106,-801.5872 245,-709.2329 211.1502,-670.7381 255.2607,-482.2329 204,-482.2329"/>
<polygon fill="#000000" stroke="#000000" points="511.5,-796.2519 519.5086,-799.8329 515.5,-796.2424 519.5,-796.2329 519.5,-796.2329 519.5,-796.2329 515.5,-796.2424 519.4914,-792.6329 511.5,-796.2519 511.5,-796.2519"/>
<ellipse fill="none" stroke="#000000" cx="508.3" cy="-796.2595" rx="3.2" ry="3.2"/>
</g>
<!-- reference_data_link -->
<g id="node4" class="node">
<title>reference_data_link</title>
<g id="a_node4"><a xlink:href="../../tables/reference_data_link.html" xlink:title="reference_data_link" target="_top">
<polygon fill="#ffffff" stroke="transparent" points="547,-96.7329 547,-157.7329 718,-157.7329 718,-96.7329 547,-96.7329"/>
<polygon fill="#f5f5f5" stroke="transparent" points="547.5,-134.2329 547.5,-157.2329 718.5,-157.2329 718.5,-134.2329 547.5,-134.2329"/>
<polygon fill="none" stroke="#000000" points="547.5,-134.2329 547.5,-157.2329 718.5,-157.2329 718.5,-134.2329 547.5,-134.2329"/>
<text text-anchor="start" x="552.5" y="-142.8329" font-family="Helvetica,sans-Serif" font-weight="bold" font-size="11.00" fill="#000000">reference_data_link</text>
<text text-anchor="start" x="684.0219" y="-142.3329" font-family="Helvetica,sans-Serif" font-size="11.00" fill="#000000">[table]</text>
<polygon fill="none" stroke="#000000" points="547.5,-115.2329 547.5,-134.2329 718.5,-134.2329 718.5,-115.2329 547.5,-115.2329"/>
<text text-anchor="start" x="550.5" y="-121.3329" font-family="Helvetica,sans-Serif" font-size="11.00" fill="#000000">...</text>
<polygon fill="#ffffff" stroke="transparent" points="547.5,-96.2329 547.5,-115.2329 631.5,-115.2329 631.5,-96.2329 547.5,-96.2329"/>
<polygon fill="none" stroke="#000000" points="547.5,-96.2329 547.5,-115.2329 631.5,-115.2329 631.5,-96.2329 547.5,-96.2329"/>
<text text-anchor="start" x="550.5" y="-102.3329" font-family="Helvetica,sans-Serif" font-size="11.00" fill="#000000">&lt; 2</text>
<polygon fill="#ffffff" stroke="transparent" points="631.5,-96.2329 631.5,-115.2329 674.5,-115.2329 674.5,-96.2329 631.5,-96.2329"/>
<polygon fill="none" stroke="#000000" points="631.5,-96.2329 631.5,-115.2329 674.5,-115.2329 674.5,-96.2329 631.5,-96.2329"/>
<text text-anchor="start" x="665.3862" y="-102.3329" font-family="Helvetica,sans-Serif" font-size="11.00" fill="#000000"> &#160;</text>
<polygon fill="#ffffff" stroke="transparent" points="674.5,-96.2329 674.5,-115.2329 718.5,-115.2329 718.5,-96.2329 674.5,-96.2329"/>
<polygon fill="none" stroke="#000000" points="674.5,-96.2329 674.5,-115.2329 718.5,-115.2329 718.5,-96.2329 674.5,-96.2329"/>
<text text-anchor="start" x="709.3862" y="-102.3329" font-family="Helvetica,sans-Serif" font-size="11.00" fill="#000000"> &#160;</text>
</a>
</g>
</g>
<!-- reference_data_link&#45;&gt;reference_data -->
<g id="edge4" class="edge">
<title>reference_data_link:w&#45;&gt;reference_data:e</title>
<path fill="none" stroke="#000000" d="M532.9506,-124.021C472.3706,-125.6221 411.3268,-157.2395 372.2432,-183.4693"/>
<polygon fill="#000000" stroke="#000000" points="539.5008,-124.1163 547.4475,-127.8325 543.5004,-124.1746 547.5,-124.2329 547.5,-124.2329 547.5,-124.2329 543.5004,-124.1746 547.5525,-120.6333 539.5008,-124.1163 539.5008,-124.1163"/>
<ellipse fill="none" stroke="#000000" cx="536.3012" cy="-124.0697" rx="3.2" ry="3.2"/>
</g>
<!-- reference_data_link&#45;&gt;reference_data -->
<g id="edge5" class="edge">
<title>reference_data_link:w&#45;&gt;reference_data:e</title>
<path fill="none" stroke="#000000" d="M532.8539,-125.7441C479.5306,-133.1336 425.8571,-160.4549 387.1257,-183.5643"/>
<polygon fill="#000000" stroke="#000000" points="539.5423,-125.054 547.8695,-127.8139 543.5211,-124.6435 547.5,-124.2329 547.5,-124.2329 547.5,-124.2329 543.5211,-124.6435 547.1305,-120.6519 539.5423,-125.054 539.5423,-125.054"/>
<ellipse fill="none" stroke="#000000" cx="536.3592" cy="-125.3825" rx="3.2" ry="3.2"/>
</g>
<!-- temporary_absence_authorisation -->
<g id="node5" class="node">
<title>temporary_absence_authorisation</title>
<g id="a_node5"><a xlink:href="../../tables/temporary_absence_authorisation.html" xlink:title="temporary_absence_authorisation" target="_top">
<polygon fill="#ffffff" stroke="transparent" points="456,-278.2329 456,-720.2329 809,-720.2329 809,-278.2329 456,-278.2329"/>
<polygon fill="#f5f5f5" stroke="transparent" points="458.5,-695.2329 458.5,-718.2329 807.5,-718.2329 807.5,-695.2329 458.5,-695.2329"/>
<polygon fill="none" stroke="#000000" points="458.5,-695.2329 458.5,-718.2329 807.5,-718.2329 807.5,-695.2329 458.5,-695.2329"/>
<text text-anchor="start" x="463.5" y="-703.8329" font-family="Helvetica,sans-Serif" font-weight="bold" font-size="11.00" fill="#000000">temporary_absence_authorisation</text>
<text text-anchor="start" x="772.5437" y="-703.3329" font-family="Helvetica,sans-Serif" font-size="11.00" fill="#000000">[table]</text>
<polygon fill="none" stroke="#000000" points="458.5,-673.2329 458.5,-695.2329 708.5,-695.2329 708.5,-673.2329 458.5,-673.2329"/>
<image xlink:href="../../images/primaryKeys.png" width="11px" height="12px" preserveAspectRatio="xMinYMin meet" x="463.5" y="-690.233"/>
<text text-anchor="start" x="478.5" y="-680.3329" font-family="Helvetica,sans-Serif" font-size="11.00" fill="#000000">id</text>
<polygon fill="none" stroke="#000000" points="708.5,-673.2329 708.5,-695.2329 807.5,-695.2329 807.5,-673.2329 708.5,-673.2329"/>
<text text-anchor="start" x="711.5" y="-680.9329" font-family="Helvetica,sans-Serif" font-size="11.00" fill="#000000">uuid[2147483647]</text>
<polygon fill="none" stroke="#000000" points="458.5,-651.2329 458.5,-673.2329 708.5,-673.2329 708.5,-651.2329 458.5,-651.2329"/>
<text text-anchor="start" x="478.5" y="-658.3329" font-family="Helvetica,sans-Serif" font-size="11.00" fill="#000000">version</text>
<polygon fill="none" stroke="#000000" points="708.5,-651.2329 708.5,-673.2329 807.5,-673.2329 807.5,-651.2329 708.5,-651.2329"/>
<text text-anchor="start" x="711.5" y="-658.9329" font-family="Helvetica,sans-Serif" font-size="11.00" fill="#000000">int4[10]</text>
<polygon fill="#ffffff" stroke="transparent" points="458.5,-629.2329 458.5,-651.2329 708.5,-651.2329 708.5,-629.2329 458.5,-629.2329"/>
<polygon fill="none" stroke="#000000" points="458.5,-629.2329 458.5,-651.2329 708.5,-651.2329 708.5,-629.2329 458.5,-629.2329"/>
<image xlink:href="../../images/foreignKeys.png" width="11px" height="12px" preserveAspectRatio="xMinYMin meet" x="463.5" y="-646.233"/>
<text text-anchor="start" x="478.5" y="-636.3329" font-family="Helvetica,sans-Serif" font-size="11.00" fill="#000000">person_identifier</text>
<polygon fill="none" stroke="#000000" points="708.5,-629.2329 708.5,-651.2329 807.5,-651.2329 807.5,-629.2329 708.5,-629.2329"/>
<text text-anchor="start" x="711.5" y="-636.9329" font-family="Helvetica,sans-Serif" font-size="11.00" fill="#000000">varchar[10]</text>
<polygon fill="#ffffff" stroke="transparent" points="458.5,-607.2329 458.5,-629.2329 708.5,-629.2329 708.5,-607.2329 458.5,-607.2329"/>
<polygon fill="none" stroke="#000000" points="458.5,-607.2329 458.5,-629.2329 708.5,-629.2329 708.5,-607.2329 458.5,-607.2329"/>
<text text-anchor="start" x="478.5" y="-614.3329" font-family="Helvetica,sans-Serif" font-size="11.00" fill="#000000">prison_code</text>
<polygon fill="none" stroke="#000000" points="708.5,-607.2329 708.5,-629.2329 807.5,-629.2329 807.5,-607.2329 708.5,-607.2329"/>
<text text-anchor="start" x="711.5" y="-614.9329" font-family="Helvetica,sans-Serif" font-size="11.00" fill="#000000">varchar[6]</text>
<polygon fill="none" stroke="#000000" points="458.5,-585.2329 458.5,-607.2329 708.5,-607.2329 708.5,-585.2329 458.5,-585.2329"/>
<image xlink:href="../../images/foreignKeys.png" width="11px" height="12px" preserveAspectRatio="xMinYMin meet" x="463.5" y="-602.233"/>
<text text-anchor="start" x="478.5" y="-592.3329" font-family="Helvetica,sans-Serif" font-size="11.00" fill="#000000">absence_type_id</text>
<polygon fill="none" stroke="#000000" points="708.5,-585.2329 708.5,-607.2329 807.5,-607.2329 807.5,-585.2329 708.5,-585.2329"/>
<text text-anchor="start" x="711.5" y="-592.9329" font-family="Helvetica,sans-Serif" font-size="11.00" fill="#000000">int8[19]</text>
<polygon fill="none" stroke="#000000" points="458.5,-563.2329 458.5,-585.2329 708.5,-585.2329 708.5,-563.2329 458.5,-563.2329"/>
<image xlink:href="../../images/foreignKeys.png" width="11px" height="12px" preserveAspectRatio="xMinYMin meet" x="463.5" y="-580.233"/>
<text text-anchor="start" x="478.5" y="-570.3329" font-family="Helvetica,sans-Serif" font-size="11.00" fill="#000000">absence_sub_type_id</text>
<polygon fill="none" stroke="#000000" points="708.5,-563.2329 708.5,-585.2329 807.5,-585.2329 807.5,-563.2329 708.5,-563.2329"/>
<text text-anchor="start" x="711.5" y="-570.9329" font-family="Helvetica,sans-Serif" font-size="11.00" fill="#000000">int8[19]</text>
<polygon fill="none" stroke="#000000" points="458.5,-541.2329 458.5,-563.2329 708.5,-563.2329 708.5,-541.2329 458.5,-541.2329"/>
<image xlink:href="../../images/foreignKeys.png" width="11px" height="12px" preserveAspectRatio="xMinYMin meet" x="463.5" y="-558.233"/>
<text text-anchor="start" x="478.5" y="-548.3329" font-family="Helvetica,sans-Serif" font-size="11.00" fill="#000000">absence_reason_id</text>
<polygon fill="none" stroke="#000000" points="708.5,-541.2329 708.5,-563.2329 807.5,-563.2329 807.5,-541.2329 708.5,-541.2329"/>
<text text-anchor="start" x="711.5" y="-548.9329" font-family="Helvetica,sans-Serif" font-size="11.00" fill="#000000">int8[19]</text>
<polygon fill="none" stroke="#000000" points="458.5,-519.2329 458.5,-541.2329 708.5,-541.2329 708.5,-519.2329 458.5,-519.2329"/>
<text text-anchor="start" x="478.5" y="-526.3329" font-family="Helvetica,sans-Serif" font-size="11.00" fill="#000000">repeat</text>
<polygon fill="none" stroke="#000000" points="708.5,-519.2329 708.5,-541.2329 807.5,-541.2329 807.5,-519.2329 708.5,-519.2329"/>
<text text-anchor="start" x="711.5" y="-526.9329" font-family="Helvetica,sans-Serif" font-size="11.00" fill="#000000">bool[1]</text>
<polygon fill="none" stroke="#000000" points="458.5,-497.2329 458.5,-519.2329 708.5,-519.2329 708.5,-497.2329 458.5,-497.2329"/>
<image xlink:href="../../images/foreignKeys.png" width="11px" height="12px" preserveAspectRatio="xMinYMin meet" x="463.5" y="-514.233"/>
<text text-anchor="start" x="478.5" y="-504.3329" font-family="Helvetica,sans-Serif" font-size="11.00" fill="#000000">status_id</text>
<polygon fill="none" stroke="#000000" points="708.5,-497.2329 708.5,-519.2329 807.5,-519.2329 807.5,-497.2329 708.5,-497.2329"/>
<text text-anchor="start" x="711.5" y="-504.9329" font-family="Helvetica,sans-Serif" font-size="11.00" fill="#000000">int8[19]</text>
<polygon fill="none" stroke="#000000" points="458.5,-475.2329 458.5,-497.2329 708.5,-497.2329 708.5,-475.2329 458.5,-475.2329"/>
<text text-anchor="start" x="478.5" y="-482.3329" font-family="Helvetica,sans-Serif" font-size="11.00" fill="#000000">notes</text>
<polygon fill="none" stroke="#000000" points="708.5,-475.2329 708.5,-497.2329 807.5,-497.2329 807.5,-475.2329 708.5,-475.2329"/>
<text text-anchor="start" x="711.5" y="-482.9329" font-family="Helvetica,sans-Serif" font-size="11.00" fill="#000000">text[2147483647]</text>
<polygon fill="#ffffff" stroke="transparent" points="458.5,-453.2329 458.5,-475.2329 708.5,-475.2329 708.5,-453.2329 458.5,-453.2329"/>
<polygon fill="none" stroke="#000000" points="458.5,-453.2329 458.5,-475.2329 708.5,-475.2329 708.5,-453.2329 458.5,-453.2329"/>
<text text-anchor="start" x="478.5" y="-460.3329" font-family="Helvetica,sans-Serif" font-size="11.00" fill="#000000">legacy_id</text>
<polygon fill="none" stroke="#000000" points="708.5,-453.2329 708.5,-475.2329 807.5,-475.2329 807.5,-453.2329 708.5,-453.2329"/>
<text text-anchor="start" x="711.5" y="-460.9329" font-family="Helvetica,sans-Serif" font-size="11.00" fill="#000000">int8[19]</text>
<polygon fill="#ffffff" stroke="transparent" points="458.5,-431.2329 458.5,-453.2329 708.5,-453.2329 708.5,-431.2329 458.5,-431.2329"/>
<polygon fill="none" stroke="#000000" points="458.5,-431.2329 458.5,-453.2329 708.5,-453.2329 708.5,-431.2329 458.5,-431.2329"/>
<text text-anchor="start" x="478.5" y="-438.3329" font-family="Helvetica,sans-Serif" font-size="11.00" fill="#000000">from_date</text>
<polygon fill="none" stroke="#000000" points="708.5,-431.2329 708.5,-453.2329 807.5,-453.2329 807.5,-431.2329 708.5,-431.2329"/>
<text text-anchor="start" x="711.5" y="-438.9329" font-family="Helvetica,sans-Serif" font-size="11.00" fill="#000000">date[13]</text>
<polygon fill="#ffffff" stroke="transparent" points="458.5,-409.2329 458.5,-431.2329 708.5,-431.2329 708.5,-409.2329 458.5,-409.2329"/>
<polygon fill="none" stroke="#000000" points="458.5,-409.2329 458.5,-431.2329 708.5,-431.2329 708.5,-409.2329 458.5,-409.2329"/>
<text text-anchor="start" x="478.5" y="-416.3329" font-family="Helvetica,sans-Serif" font-size="11.00" fill="#000000">to_date</text>
<polygon fill="none" stroke="#000000" points="708.5,-409.2329 708.5,-431.2329 807.5,-431.2329 807.5,-409.2329 708.5,-409.2329"/>
<text text-anchor="start" x="711.5" y="-416.9329" font-family="Helvetica,sans-Serif" font-size="11.00" fill="#000000">date[13]</text>
<polygon fill="none" stroke="#000000" points="458.5,-387.2329 458.5,-409.2329 708.5,-409.2329 708.5,-387.2329 458.5,-387.2329"/>
<text text-anchor="start" x="478.5" y="-394.3329" font-family="Helvetica,sans-Serif" font-size="11.00" fill="#000000">schedule</text>
<polygon fill="none" stroke="#000000" points="708.5,-387.2329 708.5,-409.2329 807.5,-409.2329 807.5,-387.2329 708.5,-387.2329"/>
<text text-anchor="start" x="711.2258" y="-394.9329" font-family="Helvetica,sans-Serif" font-size="11.00" fill="#000000">jsonb[2147483647]</text>
<polygon fill="none" stroke="#000000" points="458.5,-365.2329 458.5,-387.2329 708.5,-387.2329 708.5,-365.2329 458.5,-365.2329"/>
<image xlink:href="../../images/foreignKeys.png" width="11px" height="12px" preserveAspectRatio="xMinYMin meet" x="463.5" y="-382.233"/>
<text text-anchor="start" x="478.5" y="-372.3329" font-family="Helvetica,sans-Serif" font-size="11.00" fill="#000000">absence_reason_category_id</text>
<polygon fill="none" stroke="#000000" points="708.5,-365.2329 708.5,-387.2329 807.5,-387.2329 807.5,-365.2329 708.5,-365.2329"/>
<text text-anchor="start" x="711.5" y="-372.9329" font-family="Helvetica,sans-Serif" font-size="11.00" fill="#000000">int8[19]</text>
<polygon fill="none" stroke="#000000" points="458.5,-343.2329 458.5,-365.2329 708.5,-365.2329 708.5,-343.2329 458.5,-343.2329"/>
<text text-anchor="start" x="478.5" y="-350.3329" font-family="Helvetica,sans-Serif" font-size="11.00" fill="#000000">reason_path</text>
<polygon fill="none" stroke="#000000" points="708.5,-343.2329 708.5,-365.2329 807.5,-365.2329 807.5,-343.2329 708.5,-343.2329"/>
<text text-anchor="start" x="711.2258" y="-350.9329" font-family="Helvetica,sans-Serif" font-size="11.00" fill="#000000">jsonb[2147483647]</text>
<polygon fill="none" stroke="#000000" points="458.5,-321.2329 458.5,-343.2329 708.5,-343.2329 708.5,-321.2329 458.5,-321.2329"/>
<image xlink:href="../../images/foreignKeys.png" width="11px" height="12px" preserveAspectRatio="xMinYMin meet" x="463.5" y="-338.233"/>
<text text-anchor="start" x="478.5" y="-328.3329" font-family="Helvetica,sans-Serif" font-size="11.00" fill="#000000">accompanied_by_id</text>
<polygon fill="none" stroke="#000000" points="708.5,-321.2329 708.5,-343.2329 807.5,-343.2329 807.5,-321.2329 708.5,-321.2329"/>
<text text-anchor="start" x="711.5" y="-328.9329" font-family="Helvetica,sans-Serif" font-size="11.00" fill="#000000">int8[19]</text>
<polygon fill="none" stroke="#000000" points="458.5,-299.2329 458.5,-321.2329 708.5,-321.2329 708.5,-299.2329 458.5,-299.2329"/>
<text text-anchor="start" x="478.5" y="-306.3329" font-family="Helvetica,sans-Serif" font-size="11.00" fill="#000000">transport_id</text>
<polygon fill="none" stroke="#000000" points="708.5,-299.2329 708.5,-321.2329 807.5,-321.2329 807.5,-299.2329 708.5,-299.2329"/>
<text text-anchor="start" x="711.5" y="-306.9329" font-family="Helvetica,sans-Serif" font-size="11.00" fill="#000000">int8[19]</text>
<polygon fill="#ffffff" stroke="transparent" points="458.5,-280.2329 458.5,-299.2329 587.5,-299.2329 587.5,-280.2329 458.5,-280.2329"/>
<polygon fill="none" stroke="#000000" points="458.5,-280.2329 458.5,-299.2329 587.5,-299.2329 587.5,-280.2329 458.5,-280.2329"/>
<text text-anchor="start" x="461.5" y="-286.3329" font-family="Helvetica,sans-Serif" font-size="11.00" fill="#000000">&lt; 7</text>
<polygon fill="#ffffff" stroke="transparent" points="587.5,-280.2329 587.5,-299.2329 708.5,-299.2329 708.5,-280.2329 587.5,-280.2329"/>
<polygon fill="none" stroke="#000000" points="587.5,-280.2329 587.5,-299.2329 708.5,-299.2329 708.5,-280.2329 587.5,-280.2329"/>
<text text-anchor="start" x="699.3862" y="-286.3329" font-family="Helvetica,sans-Serif" font-size="11.00" fill="#000000"> &#160;</text>
<polygon fill="#ffffff" stroke="transparent" points="708.5,-280.2329 708.5,-299.2329 807.5,-299.2329 807.5,-280.2329 708.5,-280.2329"/>
<polygon fill="none" stroke="#000000" points="708.5,-280.2329 708.5,-299.2329 807.5,-299.2329 807.5,-280.2329 708.5,-280.2329"/>
<text text-anchor="start" x="788.9053" y="-286.3329" font-family="Helvetica,sans-Serif" font-size="11.00" fill="#000000">1 &gt;</text>
<polygon fill="none" stroke="#000000" stroke-width="2" points="457,-279.2329 457,-719.2329 808,-719.2329 808,-279.2329 457,-279.2329"/>
</a>
</g>
</g>
<!-- temporary_absence_authorisation&#45;&gt;reference_data -->
<g id="edge6" class="edge">
<title>temporary_absence_authorisation:w&#45;&gt;reference_data:e</title>
<path fill="none" stroke="#000000" d="M443.827,-374.8101C389.5019,-364.1246 356.4547,-295.6921 340.8474,-252.9066"/>
<polygon fill="#000000" stroke="#000000" points="450.5373,-375.4607 458.1525,-379.8161 454.5187,-375.8468 458.5,-376.2329 458.5,-376.2329 458.5,-376.2329 454.5187,-375.8468 458.8475,-372.6497 450.5373,-375.4607 450.5373,-375.4607"/>
<ellipse fill="none" stroke="#000000" cx="447.3523" cy="-375.1519" rx="3.2" ry="3.2"/>
</g>
<!-- temporary_absence_authorisation&#45;&gt;reference_data -->
<g id="edge7" class="edge">
<title>temporary_absence_authorisation:w&#45;&gt;reference_data:e</title>
<path fill="none" stroke="#000000" d="M444.3096,-548.6649C388.3504,-520.4271 349.6836,-332.0611 335.7406,-253.0315"/>
<polygon fill="#000000" stroke="#000000" points="450.7415,-550.2821 457.6221,-555.7242 454.6207,-551.2575 458.5,-552.2329 458.5,-552.2329 458.5,-552.2329 454.6207,-551.2575 459.3779,-548.7415 450.7415,-550.2821 450.7415,-550.2821"/>
<ellipse fill="none" stroke="#000000" cx="447.6381" cy="-549.5018" rx="3.2" ry="3.2"/>
</g>
<!-- temporary_absence_authorisation&#45;&gt;reference_data -->
<g id="edge8" class="edge">
<title>temporary_absence_authorisation:w&#45;&gt;reference_data:e</title>
<path fill="none" stroke="#000000" d="M444.1974,-570.7448C384.7328,-541.4958 347.6619,-336.1212 334.9455,-253.0158"/>
<polygon fill="#000000" stroke="#000000" points="450.7278,-572.3374 457.647,-577.7304 454.6139,-573.2851 458.5,-574.2329 458.5,-574.2329 458.5,-574.2329 454.6139,-573.2851 459.353,-570.7354 450.7278,-572.3374 450.7278,-572.3374"/>
<ellipse fill="none" stroke="#000000" cx="447.6189" cy="-571.5792" rx="3.2" ry="3.2"/>
</g>
<!-- temporary_absence_authorisation&#45;&gt;reference_data -->
<g id="edge9" class="edge">
<title>temporary_absence_authorisation:w&#45;&gt;reference_data:e</title>
<path fill="none" stroke="#000000" d="M444.1515,-592.8562C381.0164,-562.767 345.6992,-339.7147 334.2113,-252.7799"/>
<polygon fill="#000000" stroke="#000000" points="450.7127,-594.4002 457.6753,-599.7371 454.6064,-595.3165 458.5,-596.2329 458.5,-596.2329 458.5,-596.2329 454.6064,-595.3165 459.3247,-592.7286 450.7127,-594.4002 450.7127,-594.4002"/>
<ellipse fill="none" stroke="#000000" cx="447.5978" cy="-593.6672" rx="3.2" ry="3.2"/>
</g>
<!-- temporary_absence_authorisation&#45;&gt;reference_data -->
<g id="edge10" class="edge">
<title>temporary_absence_authorisation:w&#45;&gt;reference_data:e</title>
<path fill="none" stroke="#000000" d="M444.0433,-330.8725C402.3484,-323.0303 369.1082,-282.8914 349.509,-252.746"/>
<polygon fill="#000000" stroke="#000000" points="450.5352,-331.4834 458.1627,-335.817 454.5176,-331.8581 458.5,-332.2329 458.5,-332.2329 458.5,-332.2329 454.5176,-331.8581 458.8373,-328.6487 450.5352,-331.4834 450.5352,-331.4834"/>
<ellipse fill="none" stroke="#000000" cx="447.3493" cy="-331.1836" rx="3.2" ry="3.2"/>
</g>
<!-- temporary_absence_authorisation&#45;&gt;reference_data -->
<g id="edge12" class="edge">
<title>temporary_absence_authorisation:w&#45;&gt;reference_data:e</title>
<path fill="none" stroke="#000000" d="M444.4333,-504.4593C395.262,-478.3306 354.077,-323.2858 337.6486,-252.9256"/>
<polygon fill="#000000" stroke="#000000" points="450.7732,-506.16 457.5672,-511.7099 454.6366,-507.1964 458.5,-508.2329 458.5,-508.2329 458.5,-508.2329 454.6366,-507.1964 459.4328,-504.7558 450.7732,-506.16 450.7732,-506.16"/>
<ellipse fill="none" stroke="#000000" cx="447.6825" cy="-505.3309" rx="3.2" ry="3.2"/>
</g>
<!-- person_summary -->
<g id="node6" class="node">
<title>person_summary</title>
<g id="a_node6"><a xlink:href="../../tables/person_summary.html" xlink:title="person_summary" target="_top">
<polygon fill="#ffffff" stroke="transparent" points="253,-615.7329 253,-698.7329 407,-698.7329 407,-615.7329 253,-615.7329"/>
<polygon fill="#f5f5f5" stroke="transparent" points="253,-675.2329 253,-698.2329 407,-698.2329 407,-675.2329 253,-675.2329"/>
<polygon fill="none" stroke="#000000" points="253,-675.2329 253,-698.2329 407,-698.2329 407,-675.2329 253,-675.2329"/>
<text text-anchor="start" x="258" y="-683.8329" font-family="Helvetica,sans-Serif" font-weight="bold" font-size="11.00" fill="#000000">person_summary</text>
<text text-anchor="start" x="372.5219" y="-683.3329" font-family="Helvetica,sans-Serif" font-size="11.00" fill="#000000">[table]</text>
<polygon fill="none" stroke="#000000" points="253,-653.2329 253,-675.2329 407,-675.2329 407,-653.2329 253,-653.2329"/>
<image xlink:href="../../images/primaryKeys.png" width="11px" height="12px" preserveAspectRatio="xMinYMin meet" x="258" y="-670.233"/>
<text text-anchor="start" x="282" y="-660.3329" font-family="Helvetica,sans-Serif" font-size="11.00" fill="#000000">person_identifier</text>
<polygon fill="none" stroke="#000000" points="253,-634.2329 253,-653.2329 407,-653.2329 407,-634.2329 253,-634.2329"/>
<text text-anchor="start" x="256" y="-640.3329" font-family="Helvetica,sans-Serif" font-size="11.00" fill="#000000">...</text>
<polygon fill="#ffffff" stroke="transparent" points="253,-615.2329 253,-634.2329 319,-634.2329 319,-615.2329 253,-615.2329"/>
<polygon fill="none" stroke="#000000" points="253,-615.2329 253,-634.2329 319,-634.2329 319,-615.2329 253,-615.2329"/>
<text text-anchor="start" x="256" y="-621.3329" font-family="Helvetica,sans-Serif" font-size="11.00" fill="#000000"> &#160;</text>
<polygon fill="#ffffff" stroke="transparent" points="319,-615.2329 319,-634.2329 358,-634.2329 358,-615.2329 319,-615.2329"/>
<polygon fill="none" stroke="#000000" points="319,-615.2329 319,-634.2329 358,-634.2329 358,-615.2329 319,-615.2329"/>
<text text-anchor="start" x="348.8862" y="-621.3329" font-family="Helvetica,sans-Serif" font-size="11.00" fill="#000000"> &#160;</text>
<polygon fill="#ffffff" stroke="transparent" points="358,-615.2329 358,-634.2329 407,-634.2329 407,-615.2329 358,-615.2329"/>
<polygon fill="none" stroke="#000000" points="358,-615.2329 358,-634.2329 407,-634.2329 407,-615.2329 358,-615.2329"/>
<text text-anchor="start" x="388.4053" y="-621.3329" font-family="Helvetica,sans-Serif" font-size="11.00" fill="#000000">2 &gt;</text>
</a>
</g>
</g>
<!-- temporary_absence_authorisation&#45;&gt;person_summary -->
<g id="edge11" class="edge">
<title>temporary_absence_authorisation:w&#45;&gt;person_summary:e</title>
<path fill="none" stroke="#000000" d="M444.1173,-643.57C431.4486,-650.1645 426.3338,-664.2329 407,-664.2329"/>
<polygon fill="#000000" stroke="#000000" points="450.707,-642.0411 459.3137,-643.7397 454.6035,-641.137 458.5,-640.2329 458.5,-640.2329 458.5,-640.2329 454.6035,-641.137 457.6863,-636.726 450.707,-642.0411 450.707,-642.0411"/>
<ellipse fill="none" stroke="#000000" cx="447.5898" cy="-642.7643" rx="3.2" ry="3.2"/>
</g>
<!-- temporary_absence_movement -->
<g id="node7" class="node">
<title>temporary_absence_movement</title>
<g id="a_node7"><a xlink:href="../../tables/temporary_absence_movement.html" xlink:title="temporary_absence_movement" target="_top">
<polygon fill="#ffffff" stroke="transparent" points="1159,-114.7329 1159,-175.7329 1408,-175.7329 1408,-114.7329 1159,-114.7329"/>
<polygon fill="#f5f5f5" stroke="transparent" points="1159.5,-152.2329 1159.5,-175.2329 1408.5,-175.2329 1408.5,-152.2329 1159.5,-152.2329"/>
<polygon fill="none" stroke="#000000" points="1159.5,-152.2329 1159.5,-175.2329 1408.5,-175.2329 1408.5,-152.2329 1159.5,-152.2329"/>
<text text-anchor="start" x="1164.5" y="-160.8329" font-family="Helvetica,sans-Serif" font-weight="bold" font-size="11.00" fill="#000000">temporary_absence_movement</text>
<text text-anchor="start" x="1374.0219" y="-160.3329" font-family="Helvetica,sans-Serif" font-size="11.00" fill="#000000">[table]</text>
<polygon fill="none" stroke="#000000" points="1159.5,-133.2329 1159.5,-152.2329 1408.5,-152.2329 1408.5,-133.2329 1159.5,-133.2329"/>
<text text-anchor="start" x="1162.5" y="-139.3329" font-family="Helvetica,sans-Serif" font-size="11.00" fill="#000000">...</text>
<polygon fill="#ffffff" stroke="transparent" points="1159.5,-114.2329 1159.5,-133.2329 1282.5,-133.2329 1282.5,-114.2329 1159.5,-114.2329"/>
<polygon fill="none" stroke="#000000" points="1159.5,-114.2329 1159.5,-133.2329 1282.5,-133.2329 1282.5,-114.2329 1159.5,-114.2329"/>
<text text-anchor="start" x="1162.5" y="-120.3329" font-family="Helvetica,sans-Serif" font-size="11.00" fill="#000000">&lt; 4</text>
<polygon fill="#ffffff" stroke="transparent" points="1282.5,-114.2329 1282.5,-133.2329 1345.5,-133.2329 1345.5,-114.2329 1282.5,-114.2329"/>
<polygon fill="none" stroke="#000000" points="1282.5,-114.2329 1282.5,-133.2329 1345.5,-133.2329 1345.5,-114.2329 1282.5,-114.2329"/>
<text text-anchor="start" x="1336.3862" y="-120.3329" font-family="Helvetica,sans-Serif" font-size="11.00" fill="#000000"> &#160;</text>
<polygon fill="#ffffff" stroke="transparent" points="1345.5,-114.2329 1345.5,-133.2329 1408.5,-133.2329 1408.5,-114.2329 1345.5,-114.2329"/>
<polygon fill="none" stroke="#000000" points="1345.5,-114.2329 1345.5,-133.2329 1408.5,-133.2329 1408.5,-114.2329 1345.5,-114.2329"/>
<text text-anchor="start" x="1399.3862" y="-120.3329" font-family="Helvetica,sans-Serif" font-size="11.00" fill="#000000"> &#160;</text>
</a>
</g>
</g>
<!-- temporary_absence_movement&#45;&gt;reference_data -->
<g id="edge13" class="edge">
<title>temporary_absence_movement:w&#45;&gt;reference_data:e</title>
<path fill="none" stroke="#000000" d="M1144.7853,-141.822C838.9811,-130.5118 733.0211,47.2788 448,-80.2329 401.7034,-100.9449 366.0664,-149.7933 346.5806,-183.5109"/>
<polygon fill="#000000" stroke="#000000" points="1151.5031,-142.0095 1159.3995,-145.8315 1155.5016,-142.1212 1159.5,-142.2329 1159.5,-142.2329 1159.5,-142.2329 1155.5016,-142.1212 1159.6005,-138.6343 1151.5031,-142.0095 1151.5031,-142.0095"/>
<ellipse fill="none" stroke="#000000" cx="1148.3044" cy="-141.9202" rx="3.2" ry="3.2"/>
</g>
<!-- temporary_absence_movement&#45;&gt;reference_data -->
<g id="edge14" class="edge">
<title>temporary_absence_movement:w&#45;&gt;reference_data:e</title>
<path fill="none" stroke="#000000" d="M1144.7853,-142.4219C838.9811,-143.5118 733.0211,34.2788 448,-93.2329 406.333,-111.8737 373.3004,-153.305 352.9054,-183.4475"/>
<polygon fill="#000000" stroke="#000000" points="1151.5007,-142.3357 1159.5463,-145.8326 1155.5003,-142.2843 1159.5,-142.2329 1159.5,-142.2329 1159.5,-142.2329 1155.5003,-142.2843 1159.4537,-138.6332 1151.5007,-142.3357 1151.5007,-142.3357"/>
<ellipse fill="none" stroke="#000000" cx="1148.3009" cy="-142.3768" rx="3.2" ry="3.2"/>
</g>
<!-- temporary_absence_movement&#45;&gt;person_summary -->
<g id="edge16" class="edge">
<title>temporary_absence_movement:w&#45;&gt;person_summary:e</title>
<path fill="none" stroke="#000000" d="M1144.966,-144.3828C1111.6264,-156.2561 1139.6574,-214.8833 1118,-259.2329 1008.8229,-482.8029 1035.16,-611.6109 817,-731.2329 781.0497,-750.9452 483.7661,-751.2775 448,-731.2329 417.5458,-714.1652 441.9108,-664.2329 407,-664.2329"/>
<polygon fill="#000000" stroke="#000000" points="1151.5861,-143.4035 1160.0268,-145.7941 1155.5431,-142.8182 1159.5,-142.2329 1159.5,-142.2329 1159.5,-142.2329 1155.5431,-142.8182 1158.9732,-138.6716 1151.5861,-143.4035 1151.5861,-143.4035"/>
<ellipse fill="none" stroke="#000000" cx="1148.4206" cy="-143.8718" rx="3.2" ry="3.2"/>
</g>
<!-- temporary_absence_occurrence -->
<g id="node8" class="node">
<title>temporary_absence_occurrence</title>
<g id="a_node8"><a xlink:href="../../tables/temporary_absence_occurrence.html" xlink:title="temporary_absence_occurrence" target="_top">
<polygon fill="#ffffff" stroke="transparent" points="858,-187.7329 858,-248.7329 1110,-248.7329 1110,-187.7329 858,-187.7329"/>
<polygon fill="#f5f5f5" stroke="transparent" points="858,-225.2329 858,-248.2329 1110,-248.2329 1110,-225.2329 858,-225.2329"/>
<polygon fill="none" stroke="#000000" points="858,-225.2329 858,-248.2329 1110,-248.2329 1110,-225.2329 858,-225.2329"/>
<text text-anchor="start" x="863" y="-233.8329" font-family="Helvetica,sans-Serif" font-weight="bold" font-size="11.00" fill="#000000">temporary_absence_occurrence</text>
<text text-anchor="start" x="1075.5219" y="-233.3329" font-family="Helvetica,sans-Serif" font-size="11.00" fill="#000000">[table]</text>
<polygon fill="none" stroke="#000000" points="858,-206.2329 858,-225.2329 1110,-225.2329 1110,-206.2329 858,-206.2329"/>
<text text-anchor="start" x="861" y="-212.3329" font-family="Helvetica,sans-Serif" font-size="11.00" fill="#000000">...</text>
<polygon fill="#ffffff" stroke="transparent" points="858,-187.2329 858,-206.2329 978,-206.2329 978,-187.2329 858,-187.2329"/>
<polygon fill="none" stroke="#000000" points="858,-187.2329 858,-206.2329 978,-206.2329 978,-187.2329 858,-187.2329"/>
<text text-anchor="start" x="861" y="-193.3329" font-family="Helvetica,sans-Serif" font-size="11.00" fill="#000000">&lt; 8</text>
<polygon fill="#ffffff" stroke="transparent" points="978,-187.2329 978,-206.2329 1039,-206.2329 1039,-187.2329 978,-187.2329"/>
<polygon fill="none" stroke="#000000" points="978,-187.2329 978,-206.2329 1039,-206.2329 1039,-187.2329 978,-187.2329"/>
<text text-anchor="start" x="1029.8862" y="-193.3329" font-family="Helvetica,sans-Serif" font-size="11.00" fill="#000000"> &#160;</text>
<polygon fill="#ffffff" stroke="transparent" points="1039,-187.2329 1039,-206.2329 1110,-206.2329 1110,-187.2329 1039,-187.2329"/>
<polygon fill="none" stroke="#000000" points="1039,-187.2329 1039,-206.2329 1110,-206.2329 1110,-187.2329 1039,-187.2329"/>
<text text-anchor="start" x="1091.4053" y="-193.3329" font-family="Helvetica,sans-Serif" font-size="11.00" fill="#000000">1 &gt;</text>
</a>
</g>
</g>
<!-- temporary_absence_movement&#45;&gt;temporary_absence_occurrence -->
<g id="edge15" class="edge">
<title>temporary_absence_movement:w&#45;&gt;temporary_absence_occurrence:e</title>
<path fill="none" stroke="#000000" d="M1144.9656,-142.942C1104.6595,-146.7929 1064.3441,-165.6779 1034.1422,-183.5689"/>
<polygon fill="#000000" stroke="#000000" points="1151.5095,-142.6228 1159.6755,-145.8286 1155.5048,-142.4278 1159.5,-142.2329 1159.5,-142.2329 1159.5,-142.2329 1155.5048,-142.4278 1159.3245,-138.6371 1151.5095,-142.6228 1151.5095,-142.6228"/>
<ellipse fill="none" stroke="#000000" cx="1148.3133" cy="-142.7787" rx="3.2" ry="3.2"/>
</g>
<!-- temporary_absence_occurrence&#45;&gt;reference_data -->
<g id="edge17" class="edge">
<title>temporary_absence_occurrence:w&#45;&gt;reference_data:e</title>
<path fill="none" stroke="#000000" d="M835.0024,-193.2376C702.3195,-186.1749 513.4,-187.9051 408.271,-198.4283"/>
<polygon fill="#000000" stroke="#000000" points="841.6925,-193.6165 849.4761,-197.6632 845.6861,-193.8427 849.6797,-194.0689 849.6797,-194.0689 849.6797,-194.0689 845.6861,-193.8427 849.8833,-190.4747 841.6925,-193.6165 841.6925,-193.6165"/>
<ellipse fill="none" stroke="#000000" cx="838.4976" cy="-193.4355" rx="3.2" ry="3.2"/>
</g>
<!-- temporary_absence_occurrence&#45;&gt;reference_data -->
<g id="edge18" class="edge">
<title>temporary_absence_occurrence:w&#45;&gt;reference_data:e</title>
<path fill="none" stroke="#000000" d="M835.0024,-201.5693C702.3195,-196.8609 513.4,-198.0144 408.271,-205.0298"/>
<polygon fill="#000000" stroke="#000000" points="841.6854,-201.8216 849.5438,-205.721 845.6825,-201.9726 849.6797,-202.1236 849.6797,-202.1236 849.6797,-202.1236 845.6825,-201.9726 849.8155,-198.5261 841.6854,-201.8216 841.6854,-201.8216"/>
<ellipse fill="none" stroke="#000000" cx="838.4876" cy="-201.7009" rx="3.2" ry="3.2"/>
</g>
<!-- temporary_absence_occurrence&#45;&gt;reference_data -->
<g id="edge19" class="edge">
<title>temporary_absence_occurrence:w&#45;&gt;reference_data:e</title>
<path fill="none" stroke="#000000" d="M835.0024,-209.9011C702.3195,-207.5469 513.4,-208.1236 408.271,-211.6313"/>
<polygon fill="#000000" stroke="#000000" points="841.6811,-210.0272 849.6117,-213.7776 845.6804,-210.1027 849.6797,-210.1782 849.6797,-210.1782 849.6797,-210.1782 845.6804,-210.1027 849.7477,-206.5789 841.6811,-210.0272 841.6811,-210.0272"/>
<ellipse fill="none" stroke="#000000" cx="838.4817" cy="-209.9667" rx="3.2" ry="3.2"/>
</g>
<!-- temporary_absence_occurrence&#45;&gt;reference_data -->
<g id="edge20" class="edge">
<title>temporary_absence_occurrence:w&#45;&gt;reference_data:e</title>
<path fill="none" stroke="#000000" d="M835.0024,-218.2329C702.3195,-218.2329 513.4,-218.2329 408.271,-218.2329"/>
<polygon fill="#000000" stroke="#000000" points="841.6797,-218.2329 849.6797,-221.8329 845.6797,-218.2329 849.6797,-218.2329 849.6797,-218.2329 849.6797,-218.2329 845.6797,-218.2329 849.6796,-214.6329 841.6797,-218.2329 841.6797,-218.2329"/>
<ellipse fill="none" stroke="#000000" cx="838.4797" cy="-218.2329" rx="3.2" ry="3.2"/>
</g>
<!-- temporary_absence_occurrence&#45;&gt;reference_data -->
<g id="edge21" class="edge">
<title>temporary_absence_occurrence:w&#45;&gt;reference_data:e</title>
<path fill="none" stroke="#000000" d="M835.0024,-226.5646C702.3195,-228.9189 513.4,-228.3421 408.271,-224.8344"/>
<polygon fill="#000000" stroke="#000000" points="841.6811,-226.4386 849.7477,-229.8869 845.6804,-226.3631 849.6797,-226.2875 849.6797,-226.2875 849.6797,-226.2875 845.6804,-226.3631 849.6117,-222.6882 841.6811,-226.4386 841.6811,-226.4386"/>
<ellipse fill="none" stroke="#000000" cx="838.4817" cy="-226.499" rx="3.2" ry="3.2"/>
</g>
<!-- temporary_absence_occurrence&#45;&gt;reference_data -->
<g id="edge23" class="edge">
<title>temporary_absence_occurrence:w&#45;&gt;reference_data:e</title>
<path fill="none" stroke="#000000" d="M835.0024,-234.8964C702.3195,-239.6049 513.4,-238.4514 408.271,-231.4359"/>
<polygon fill="#000000" stroke="#000000" points="841.6854,-234.6441 849.8155,-237.9396 845.6825,-234.4931 849.6797,-234.3422 849.6797,-234.3422 849.6797,-234.3422 845.6825,-234.4931 849.5438,-230.7447 841.6854,-234.6441 841.6854,-234.6441"/>
<ellipse fill="none" stroke="#000000" cx="838.4876" cy="-234.7649" rx="3.2" ry="3.2"/>
</g>
<!-- temporary_absence_occurrence&#45;&gt;reference_data -->
<g id="edge24" class="edge">
<title>temporary_absence_occurrence:w&#45;&gt;reference_data:e</title>
<path fill="none" stroke="#000000" d="M835.0024,-243.2282C702.3195,-250.2909 513.4,-248.5606 408.271,-238.0375"/>
<polygon fill="#000000" stroke="#000000" points="841.6925,-242.8493 849.8833,-245.991 845.6861,-242.623 849.6797,-242.3968 849.6797,-242.3968 849.6797,-242.3968 845.6861,-242.623 849.4761,-238.8026 841.6925,-242.8493 841.6925,-242.8493"/>
<ellipse fill="none" stroke="#000000" cx="838.4976" cy="-243.0303" rx="3.2" ry="3.2"/>
</g>
<!-- temporary_absence_occurrence&#45;&gt;temporary_absence_authorisation -->
<g id="edge22" class="edge">
<title>temporary_absence_occurrence:w&#45;&gt;temporary_absence_authorisation:e</title>
<path fill="none" stroke="#000000" d="M976.1857,-267.2163C955.7218,-386.856 895.9593,-684.2329 807.5,-684.2329"/>
<polygon fill="#000000" stroke="#000000" points="977.2693,-260.7673 982.1452,-253.4745 977.9321,-256.8226 978.595,-252.8779 978.595,-252.8779 978.595,-252.8779 977.9321,-256.8226 975.0447,-252.2813 977.2693,-260.7673 977.2693,-260.7673"/>
<ellipse fill="none" stroke="#000000" cx="976.739" cy="-263.9231" rx="3.2" ry="3.2"/>
</g>
</g>
</svg>
