<?xml version="1.0" encoding="UTF-8" standalone="no"?>
<!DOCTYPE svg PUBLIC "-//W3C//DTD SVG 1.1//EN"
 "http://www.w3.org/Graphics/SVG/1.1/DTD/svg11.dtd">
<!-- Generated by graphviz version 2.40.1 (20161225.0304)
 -->
<!-- Title: oneDegreeRelationshipsDiagram Pages: 1 -->
<svg width="851pt" height="520pt"
 viewBox="0.00 0.00 851.00 519.70" xmlns="http://www.w3.org/2000/svg" xmlns:xlink="http://www.w3.org/1999/xlink">
<g id="graph0" class="graph" transform="scale(1 1) rotate(0) translate(4 515.7)">
<title>oneDegreeRelationshipsDiagram</title>
<polygon fill="#ffffff" stroke="transparent" points="-4,4 -4,-515.7 847,-515.7 847,4 -4,4"/>
<text text-anchor="middle" x="72.4936" y="-7.3" font-family="Helvetica,sans-Serif" font-size="11.00" fill="#000000">Generated by SchemaSpy</text>
<!-- temporary_absence_movement -->
<g id="node1" class="node">
<title>temporary_absence_movement</title>
<g id="a_node1"><a xlink:href="../../tables/temporary_absence_movement.html" xlink:title="temporary_absence_movement" target="_top">
<polygon fill="#ffffff" stroke="transparent" points="501,-38.2 501,-370.2 835,-370.2 835,-38.2 501,-38.2"/>
<polygon fill="#f5f5f5" stroke="transparent" points="503,-345.2 503,-368.2 833,-368.2 833,-345.2 503,-345.2"/>
<polygon fill="none" stroke="#000000" points="503,-345.2 503,-368.2 833,-368.2 833,-345.2 503,-345.2"/>
<text text-anchor="start" x="508" y="-353.8" font-family="Helvetica,sans-Serif" font-weight="bold" font-size="11.00" fill="#000000">temporary_absence_movement</text>
<text text-anchor="start" x="798.0437" y="-353.3" font-family="Helvetica,sans-Serif" font-size="11.00" fill="#000000">[table]</text>
<polygon fill="none" stroke="#000000" points="503,-323.2 503,-345.2 734,-345.2 734,-323.2 503,-323.2"/>
<image xlink:href="../../images/primaryKeys.png" width="11px" height="12px" preserveAspectRatio="xMinYMin meet" x="508" y="-340.2"/>
<text text-anchor="start" x="523" y="-330.3" font-family="Helvetica,sans-Serif" font-size="11.00" fill="#000000">id</text>
<polygon fill="none" stroke="#000000" points="734,-323.2 734,-345.2 833,-345.2 833,-323.2 734,-323.2"/>
<text text-anchor="start" x="737" y="-330.9" font-family="Helvetica,sans-Serif" font-size="11.00" fill="#000000">uuid[2147483647]</text>
<polygon fill="none" stroke="#000000" points="503,-301.2 503,-323.2 734,-323.2 734,-301.2 503,-301.2"/>
<text text-anchor="start" x="523" y="-308.3" font-family="Helvetica,sans-Serif" font-size="11.00" fill="#000000">version</text>
<polygon fill="none" stroke="#000000" points="734,-301.2 734,-323.2 833,-323.2 833,-301.2 734,-301.2"/>
<text text-anchor="start" x="737" y="-308.9" font-family="Helvetica,sans-Serif" font-size="11.00" fill="#000000">int4[10]</text>
<polygon fill="#ffffff" stroke="transparent" points="503,-279.2 503,-301.2 734,-301.2 734,-279.2 503,-279.2"/>
<polygon fill="none" stroke="#000000" points="503,-279.2 503,-301.2 734,-301.2 734,-279.2 503,-279.2"/>
<image xlink:href="../../images/foreignKeys.png" width="11px" height="12px" preserveAspectRatio="xMinYMin meet" x="508" y="-296.2"/>
<text text-anchor="start" x="523" y="-286.3" font-family="Helvetica,sans-Serif" font-size="11.00" fill="#000000">person_identifier</text>
<polygon fill="none" stroke="#000000" points="734,-279.2 734,-301.2 833,-301.2 833,-279.2 734,-279.2"/>
<text text-anchor="start" x="737" y="-286.9" font-family="Helvetica,sans-Serif" font-size="11.00" fill="#000000">varchar[10]</text>
<polygon fill="none" stroke="#000000" points="503,-257.2 503,-279.2 734,-279.2 734,-257.2 503,-257.2"/>
<image xlink:href="../../images/foreignKeys.png" width="11px" height="12px" preserveAspectRatio="xMinYMin meet" x="508" y="-274.2"/>
<text text-anchor="start" x="523" y="-264.3" font-family="Helvetica,sans-Serif" font-size="11.00" fill="#000000">occurrence_id</text>
<polygon fill="none" stroke="#000000" points="734,-257.2 734,-279.2 833,-279.2 833,-257.2 734,-257.2"/>
<text text-anchor="start" x="737" y="-264.9" font-family="Helvetica,sans-Serif" font-size="11.00" fill="#000000">uuid[2147483647]</text>
<polygon fill="#ffffff" stroke="transparent" points="503,-235.2 503,-257.2 734,-257.2 734,-235.2 503,-235.2"/>
<polygon fill="none" stroke="#000000" points="503,-235.2 503,-257.2 734,-257.2 734,-235.2 503,-235.2"/>
<text text-anchor="start" x="523" y="-242.3" font-family="Helvetica,sans-Serif" font-size="11.00" fill="#000000">occurred_at</text>
<polygon fill="none" stroke="#000000" points="734,-235.2 734,-257.2 833,-257.2 833,-235.2 734,-235.2"/>
<text text-anchor="start" x="737" y="-242.9" font-family="Helvetica,sans-Serif" font-size="11.00" fill="#000000">timestamp[29,6]</text>
<polygon fill="none" stroke="#000000" points="503,-213.2 503,-235.2 734,-235.2 734,-213.2 503,-213.2"/>
<text text-anchor="start" x="523" y="-220.3" font-family="Helvetica,sans-Serif" font-size="11.00" fill="#000000">direction</text>
<polygon fill="none" stroke="#000000" points="734,-213.2 734,-235.2 833,-235.2 833,-213.2 734,-213.2"/>
<text text-anchor="start" x="737" y="-220.9" font-family="Helvetica,sans-Serif" font-size="11.00" fill="#000000">varchar[3]</text>
<polygon fill="none" stroke="#000000" points="503,-191.2 503,-213.2 734,-213.2 734,-191.2 503,-191.2"/>
<image xlink:href="../../images/foreignKeys.png" width="11px" height="12px" preserveAspectRatio="xMinYMin meet" x="508" y="-208.2"/>
<text text-anchor="start" x="523" y="-198.3" font-family="Helvetica,sans-Serif" font-size="11.00" fill="#000000">absence_reason_id</text>
<polygon fill="none" stroke="#000000" points="734,-191.2 734,-213.2 833,-213.2 833,-191.2 734,-191.2"/>
<text text-anchor="start" x="737" y="-198.9" font-family="Helvetica,sans-Serif" font-size="11.00" fill="#000000">int8[19]</text>
<polygon fill="none" stroke="#000000" points="503,-169.2 503,-191.2 734,-191.2 734,-169.2 503,-169.2"/>
<image xlink:href="../../images/foreignKeys.png" width="11px" height="12px" preserveAspectRatio="xMinYMin meet" x="508" y="-186.2"/>
<text text-anchor="start" x="523" y="-176.3" font-family="Helvetica,sans-Serif" font-size="11.00" fill="#000000">accompanied_by_id</text>
<polygon fill="none" stroke="#000000" points="734,-169.2 734,-191.2 833,-191.2 833,-169.2 734,-169.2"/>
<text text-anchor="start" x="737" y="-176.9" font-family="Helvetica,sans-Serif" font-size="11.00" fill="#000000">int8[19]</text>
<polygon fill="none" stroke="#000000" points="503,-147.2 503,-169.2 734,-169.2 734,-147.2 503,-147.2"/>
<text text-anchor="start" x="523" y="-154.3" font-family="Helvetica,sans-Serif" font-size="11.00" fill="#000000">accompanied_by_notes</text>
<polygon fill="none" stroke="#000000" points="734,-147.2 734,-169.2 833,-169.2 833,-147.2 734,-147.2"/>
<text text-anchor="start" x="737" y="-154.9" font-family="Helvetica,sans-Serif" font-size="11.00" fill="#000000">text[2147483647]</text>
<polygon fill="none" stroke="#000000" points="503,-125.2 503,-147.2 734,-147.2 734,-125.2 503,-125.2"/>
<text text-anchor="start" x="523" y="-132.3" font-family="Helvetica,sans-Serif" font-size="11.00" fill="#000000">notes</text>
<polygon fill="none" stroke="#000000" points="734,-125.2 734,-147.2 833,-147.2 833,-125.2 734,-125.2"/>
<text text-anchor="start" x="737" y="-132.9" font-family="Helvetica,sans-Serif" font-size="11.00" fill="#000000">text[2147483647]</text>
<polygon fill="none" stroke="#000000" points="503,-103.2 503,-125.2 734,-125.2 734,-103.2 503,-103.2"/>
<text text-anchor="start" x="523" y="-110.3" font-family="Helvetica,sans-Serif" font-size="11.00" fill="#000000">recorded_by_prison_code</text>
<polygon fill="none" stroke="#000000" points="734,-103.2 734,-125.2 833,-125.2 833,-103.2 734,-103.2"/>
<text text-anchor="start" x="737" y="-110.9" font-family="Helvetica,sans-Serif" font-size="11.00" fill="#000000">varchar[6]</text>
<polygon fill="#ffffff" stroke="transparent" points="503,-81.2 503,-103.2 734,-103.2 734,-81.2 503,-81.2"/>
<polygon fill="none" stroke="#000000" points="503,-81.2 503,-103.2 734,-103.2 734,-81.2 503,-81.2"/>
<text text-anchor="start" x="523" y="-88.3" font-family="Helvetica,sans-Serif" font-size="11.00" fill="#000000">legacy_id</text>
<polygon fill="none" stroke="#000000" points="734,-81.2 734,-103.2 833,-103.2 833,-81.2 734,-81.2"/>
<text text-anchor="start" x="737" y="-88.9" font-family="Helvetica,sans-Serif" font-size="11.00" fill="#000000">varchar[32]</text>
<polygon fill="none" stroke="#000000" points="503,-59.2 503,-81.2 734,-81.2 734,-59.2 503,-59.2"/>
<text text-anchor="start" x="523" y="-66.3" font-family="Helvetica,sans-Serif" font-size="11.00" fill="#000000">location</text>
<polygon fill="none" stroke="#000000" points="734,-59.2 734,-81.2 833,-81.2 833,-59.2 734,-59.2"/>
<text text-anchor="start" x="736.7258" y="-66.9" font-family="Helvetica,sans-Serif" font-size="11.00" fill="#000000">jsonb[2147483647]</text>
<polygon fill="#ffffff" stroke="transparent" points="503,-40.2 503,-59.2 623,-59.2 623,-40.2 503,-40.2"/>
<polygon fill="none" stroke="#000000" points="503,-40.2 503,-59.2 623,-59.2 623,-40.2 503,-40.2"/>
<text text-anchor="start" x="506" y="-46.3" font-family="Helvetica,sans-Serif" font-size="11.00" fill="#000000">&lt; 3</text>
<polygon fill="#ffffff" stroke="transparent" points="623,-40.2 623,-59.2 734,-59.2 734,-40.2 623,-40.2"/>
<polygon fill="none" stroke="#000000" points="623,-40.2 623,-59.2 734,-59.2 734,-40.2 623,-40.2"/>
<text text-anchor="start" x="724.8862" y="-46.3" font-family="Helvetica,sans-Serif" font-size="11.00" fill="#000000"> &#160;</text>
<polygon fill="#ffffff" stroke="transparent" points="734,-40.2 734,-59.2 833,-59.2 833,-40.2 734,-40.2"/>
<polygon fill="none" stroke="#000000" points="734,-40.2 734,-59.2 833,-59.2 833,-40.2 734,-40.2"/>
<text text-anchor="start" x="814.4053" y="-46.3" font-family="Helvetica,sans-Serif" font-size="11.00" fill="#000000">0 &gt;</text>
<polygon fill="none" stroke="#000000" stroke-width="2" points="502,-39.2 502,-369.2 834,-369.2 834,-39.2 502,-39.2"/>
</a>
</g>
</g>
<!-- reference_data -->
<g id="node2" class="node">
<title>reference_data</title>
<g id="a_node2"><a xlink:href="../../tables/reference_data.html" xlink:title="reference_data" target="_top">
<polygon fill="#ffffff" stroke="transparent" points="8,-204.7 8,-353.7 151,-353.7 151,-204.7 8,-204.7"/>
<polygon fill="#f5f5f5" stroke="transparent" points="8.5,-330.2 8.5,-353.2 151.5,-353.2 151.5,-330.2 8.5,-330.2"/>
<polygon fill="none" stroke="#000000" points="8.5,-330.2 8.5,-353.2 151.5,-353.2 151.5,-330.2 8.5,-330.2"/>
<text text-anchor="start" x="13.5" y="-338.8" font-family="Helvetica,sans-Serif" font-weight="bold" font-size="11.00" fill="#000000">reference_data</text>
<text text-anchor="start" x="116.5437" y="-338.3" font-family="Helvetica,sans-Serif" font-size="11.00" fill="#000000">[table]</text>
<polygon fill="none" stroke="#000000" points="8.5,-308.2 8.5,-330.2 151.5,-330.2 151.5,-308.2 8.5,-308.2"/>
<image xlink:href="../../images/primaryKeys.png" width="11px" height="12px" preserveAspectRatio="xMinYMin meet" x="13.5" y="-325.2"/>
<text text-anchor="start" x="28.5" y="-315.3" font-family="Helvetica,sans-Serif" font-size="11.00" fill="#000000">id</text>
<polygon fill="#ffffff" stroke="transparent" points="8.5,-286.2 8.5,-308.2 151.5,-308.2 151.5,-286.2 8.5,-286.2"/>
<polygon fill="none" stroke="#000000" points="8.5,-286.2 8.5,-308.2 151.5,-308.2 151.5,-286.2 8.5,-286.2"/>
<image xlink:href="../../images/foreignKeys.png" width="11px" height="12px" preserveAspectRatio="xMinYMin meet" x="13.5" y="-303.2"/>
<text text-anchor="start" x="28.5" y="-293.3" font-family="Helvetica,sans-Serif" font-size="11.00" fill="#000000">domain</text>
<polygon fill="#ffffff" stroke="transparent" points="8.5,-264.2 8.5,-286.2 151.5,-286.2 151.5,-264.2 8.5,-264.2"/>
<polygon fill="none" stroke="#000000" points="8.5,-264.2 8.5,-286.2 151.5,-286.2 151.5,-264.2 8.5,-264.2"/>
<text text-anchor="start" x="28.5" y="-271.3" font-family="Helvetica,sans-Serif" font-size="11.00" fill="#000000">code</text>
<polygon fill="#ffffff" stroke="transparent" points="8.5,-242.2 8.5,-264.2 151.5,-264.2 151.5,-242.2 8.5,-242.2"/>
<polygon fill="none" stroke="#000000" points="8.5,-242.2 8.5,-264.2 151.5,-264.2 151.5,-242.2 8.5,-242.2"/>
<text text-anchor="start" x="28.5" y="-249.3" font-family="Helvetica,sans-Serif" font-size="11.00" fill="#000000">sequence_number</text>
<polygon fill="none" stroke="#000000" points="8.5,-223.2 8.5,-242.2 151.5,-242.2 151.5,-223.2 8.5,-223.2"/>
<text text-anchor="start" x="11.5" y="-229.3" font-family="Helvetica,sans-Serif" font-size="11.00" fill="#000000">...</text>
<polygon fill="#ffffff" stroke="transparent" points="8.5,-204.2 8.5,-223.2 51.5,-223.2 51.5,-204.2 8.5,-204.2"/>
<polygon fill="none" stroke="#000000" points="8.5,-204.2 8.5,-223.2 51.5,-223.2 51.5,-204.2 8.5,-204.2"/>
<text text-anchor="start" x="11.5" y="-210.3" font-family="Helvetica,sans-Serif" font-size="11.00" fill="#000000">&lt; 1</text>
<polygon fill="#ffffff" stroke="transparent" points="51.5,-204.2 51.5,-223.2 112.5,-223.2 112.5,-204.2 51.5,-204.2"/>
<polygon fill="none" stroke="#000000" points="51.5,-204.2 51.5,-223.2 112.5,-223.2 112.5,-204.2 51.5,-204.2"/>
<text text-anchor="start" x="64.8807" y="-210.3" font-family="Helvetica,sans-Serif" font-size="11.00" fill="#000000">157 rows</text>
<polygon fill="#ffffff" stroke="transparent" points="112.5,-204.2 112.5,-223.2 151.5,-223.2 151.5,-204.2 112.5,-204.2"/>
<polygon fill="none" stroke="#000000" points="112.5,-204.2 112.5,-223.2 151.5,-223.2 151.5,-204.2 112.5,-204.2"/>
<text text-anchor="start" x="126.7904" y="-210.3" font-family="Helvetica,sans-Serif" font-size="11.00" fill="#000000">18 &gt;</text>
</a>
</g>
</g>
<!-- temporary_absence_movement&#45;&gt;reference_data -->
<g id="edge1" class="edge">
<title>temporary_absence_movement:w&#45;&gt;reference_data:e</title>
<path fill="none" stroke="#000000" d="M488.2388,-201.8979C410.439,-199.095 244.6544,-178.5639 192,-216.2 151.9822,-244.8038 200.6895,-319.2 151.5,-319.2"/>
<polygon fill="#000000" stroke="#000000" points="495.0017,-202.0363 502.9263,-205.7992 499.0008,-202.1181 503,-202.2 503,-202.2 503,-202.2 499.0008,-202.1181 503.0737,-198.6008 495.0017,-202.0363 495.0017,-202.0363"/>
<ellipse fill="none" stroke="#000000" cx="491.8023" cy="-201.9708" rx="3.2" ry="3.2"/>
</g>
<!-- temporary_absence_movement&#45;&gt;reference_data -->
<g id="edge2" class="edge">
<title>temporary_absence_movement:w&#45;&gt;reference_data:e</title>
<path fill="none" stroke="#000000" d="M488.2984,-179.9261C360.1073,-175.1514 298.1385,-110.5372 192,-191.2 144.4936,-227.3038 211.1686,-319.2 151.5,-319.2"/>
<polygon fill="#000000" stroke="#000000" points="495.0014,-180.0509 502.9329,-183.7994 499.0007,-180.1255 503,-180.2 503,-180.2 503,-180.2 499.0007,-180.1255 503.0671,-176.6006 495.0014,-180.0509 495.0014,-180.0509"/>
<ellipse fill="none" stroke="#000000" cx="491.8019" cy="-179.9913" rx="3.2" ry="3.2"/>
</g>
<!-- temporary_absence_occurrence -->
<g id="node3" class="node">
<title>temporary_absence_occurrence</title>
<g id="a_node3"><a xlink:href="../../tables/temporary_absence_occurrence.html" xlink:title="temporary_absence_occurrence" target="_top">
<polygon fill="#ffffff" stroke="transparent" points="200,-226.7 200,-507.7 452,-507.7 452,-226.7 200,-226.7"/>
<polygon fill="#f5f5f5" stroke="transparent" points="200,-484.2 200,-507.2 452,-507.2 452,-484.2 200,-484.2"/>
<polygon fill="none" stroke="#000000" points="200,-484.2 200,-507.2 452,-507.2 452,-484.2 200,-484.2"/>
<text text-anchor="start" x="205" y="-492.8" font-family="Helvetica,sans-Serif" font-weight="bold" font-size="11.00" fill="#000000">temporary_absence_occurrence</text>
<text text-anchor="start" x="417.5219" y="-492.3" font-family="Helvetica,sans-Serif" font-size="11.00" fill="#000000">[table]</text>
<polygon fill="none" stroke="#000000" points="200,-462.2 200,-484.2 452,-484.2 452,-462.2 200,-462.2"/>
<image xlink:href="../../images/primaryKeys.png" width="11px" height="12px" preserveAspectRatio="xMinYMin meet" x="205" y="-479.2"/>
<text text-anchor="start" x="229" y="-469.3" font-family="Helvetica,sans-Serif" font-size="11.00" fill="#000000">id</text>
<polygon fill="#ffffff" stroke="transparent" points="200,-440.2 200,-462.2 452,-462.2 452,-440.2 200,-440.2"/>
<polygon fill="none" stroke="#000000" points="200,-440.2 200,-462.2 452,-462.2 452,-440.2 200,-440.2"/>
<image xlink:href="../../images/foreignKeys.png" width="11px" height="12px" preserveAspectRatio="xMinYMin meet" x="205" y="-457.2"/>
<text text-anchor="start" x="229" y="-447.3" font-family="Helvetica,sans-Serif" font-size="11.00" fill="#000000">authorisation_id</text>
<polygon fill="none" stroke="#000000" points="200,-418.2 200,-440.2 452,-440.2 452,-418.2 200,-418.2"/>
<image xlink:href="../../images/foreignKeys.png" width="11px" height="12px" preserveAspectRatio="xMinYMin meet" x="205" y="-435.2"/>
<text text-anchor="start" x="229" y="-425.3" font-family="Helvetica,sans-Serif" font-size="11.00" fill="#000000">accompanied_by_id</text>
<polygon fill="none" stroke="#000000" points="200,-396.2 200,-418.2 452,-418.2 452,-396.2 200,-396.2"/>
<image xlink:href="../../images/foreignKeys.png" width="11px" height="12px" preserveAspectRatio="xMinYMin meet" x="205" y="-413.2"/>
<text text-anchor="start" x="229" y="-403.3" font-family="Helvetica,sans-Serif" font-size="11.00" fill="#000000">transport_id</text>
<polygon fill="#ffffff" stroke="transparent" points="200,-374.2 200,-396.2 452,-396.2 452,-374.2 200,-374.2"/>
<polygon fill="none" stroke="#000000" points="200,-374.2 200,-396.2 452,-396.2 452,-374.2 200,-374.2"/>
<text text-anchor="start" x="229" y="-381.3" font-family="Helvetica,sans-Serif" font-size="11.00" fill="#000000">legacy_id</text>
<polygon fill="none" stroke="#000000" points="200,-352.2 200,-374.2 452,-374.2 452,-352.2 200,-352.2"/>
<image xlink:href="../../images/foreignKeys.png" width="11px" height="12px" preserveAspectRatio="xMinYMin meet" x="205" y="-369.2"/>
<text text-anchor="start" x="229" y="-359.3" font-family="Helvetica,sans-Serif" font-size="11.00" fill="#000000">absence_type_id</text>
<polygon fill="none" stroke="#000000" points="200,-330.2 200,-352.2 452,-352.2 452,-330.2 200,-330.2"/>
<image xlink:href="../../images/foreignKeys.png" width="11px" height="12px" preserveAspectRatio="xMinYMin meet" x="205" y="-347.2"/>
<text text-anchor="start" x="229" y="-337.3" font-family="Helvetica,sans-Serif" font-size="11.00" fill="#000000">absence_sub_type_id</text>
<polygon fill="none" stroke="#000000" points="200,-308.2 200,-330.2 452,-330.2 452,-308.2 200,-308.2"/>
<image xlink:href="../../images/foreignKeys.png" width="11px" height="12px" preserveAspectRatio="xMinYMin meet" x="205" y="-325.2"/>
<text text-anchor="start" x="229" y="-315.3" font-family="Helvetica,sans-Serif" font-size="11.00" fill="#000000">absence_reason_category_id</text>
<polygon fill="none" stroke="#000000" points="200,-286.2 200,-308.2 452,-308.2 452,-286.2 200,-286.2"/>
<image xlink:href="../../images/foreignKeys.png" width="11px" height="12px" preserveAspectRatio="xMinYMin meet" x="205" y="-303.2"/>
<text text-anchor="start" x="229" y="-293.3" font-family="Helvetica,sans-Serif" font-size="11.00" fill="#000000">absence_reason_id</text>
<polygon fill="none" stroke="#000000" points="200,-264.2 200,-286.2 452,-286.2 452,-264.2 200,-264.2"/>
<image xlink:href="../../images/foreignKeys.png" width="11px" height="12px" preserveAspectRatio="xMinYMin meet" x="205" y="-281.2"/>
<text text-anchor="start" x="229" y="-271.3" font-family="Helvetica,sans-Serif" font-size="11.00" fill="#000000">status_id</text>
<polygon fill="none" stroke="#000000" points="200,-245.2 200,-264.2 452,-264.2 452,-245.2 200,-245.2"/>
<text text-anchor="start" x="203" y="-251.3" font-family="Helvetica,sans-Serif" font-size="11.00" fill="#000000">...</text>
<polygon fill="#ffffff" stroke="transparent" points="200,-226.2 200,-245.2 320,-245.2 320,-226.2 200,-226.2"/>
<polygon fill="none" stroke="#000000" points="200,-226.2 200,-245.2 320,-245.2 320,-226.2 200,-226.2"/>
<text text-anchor="start" x="203" y="-232.3" font-family="Helvetica,sans-Serif" font-size="11.00" fill="#000000">&lt; 8</text>
<polygon fill="#ffffff" stroke="transparent" points="320,-226.2 320,-245.2 381,-245.2 381,-226.2 320,-226.2"/>
<polygon fill="none" stroke="#000000" points="320,-226.2 320,-245.2 381,-245.2 381,-226.2 320,-226.2"/>
<text text-anchor="start" x="371.8862" y="-232.3" font-family="Helvetica,sans-Serif" font-size="11.00" fill="#000000"> &#160;</text>
<polygon fill="#ffffff" stroke="transparent" points="381,-226.2 381,-245.2 452,-245.2 452,-226.2 381,-226.2"/>
<polygon fill="none" stroke="#000000" points="381,-226.2 381,-245.2 452,-245.2 452,-226.2 381,-226.2"/>
<text text-anchor="start" x="433.4053" y="-232.3" font-family="Helvetica,sans-Serif" font-size="11.00" fill="#000000">1 &gt;</text>
</a>
</g>
</g>
<!-- temporary_absence_movement&#45;&gt;temporary_absence_occurrence -->
<g id="edge3" class="edge">
<title>temporary_absence_movement:w&#45;&gt;temporary_absence_occurrence:e</title>
<path fill="none" stroke="#000000" d="M488.3805,-270.3635C424.8289,-292.2727 540.2037,-473.2 452,-473.2"/>
<polygon fill="#000000" stroke="#000000" points="495.0862,-269.3712 503.527,-271.7612 499.0431,-268.7856 503,-268.2 503,-268.2 503,-268.2 499.0431,-268.7856 502.473,-264.6388 495.0862,-269.3712 495.0862,-269.3712"/>
<ellipse fill="none" stroke="#000000" cx="491.9207" cy="-269.8397" rx="3.2" ry="3.2"/>
</g>
<!-- temporary_absence_occurrence&#45;&gt;reference_data -->
<g id="edge4" class="edge">
<title>temporary_absence_occurrence:w&#45;&gt;reference_data:e</title>
<path fill="none" stroke="#000000" d="M185.2829,-319.2C174.2886,-319.2 167.1615,-319.2 151.5,-319.2"/>
<polygon fill="#000000" stroke="#000000" points="192,-319.2001 200,-322.8 196,-319.2 200,-319.2 200,-319.2 200,-319.2 196,-319.2 200,-315.6 192,-319.2001 192,-319.2001"/>
<ellipse fill="none" stroke="#000000" cx="188.8" cy="-319.2001" rx="3.2" ry="3.2"/>
</g>
<!-- temporary_absence_occurrence&#45;&gt;reference_data -->
<g id="edge5" class="edge">
<title>temporary_absence_occurrence:w&#45;&gt;reference_data:e</title>
<path fill="none" stroke="#000000" d="M185.7648,-300.6375C174.3432,-306.825 169.2522,-319.2 151.5,-319.2"/>
<polygon fill="#000000" stroke="#000000" points="192.2235,-299.0779 200.8451,-300.6994 196.1118,-298.1389 200,-297.2 200,-297.2 200,-297.2 196.1118,-298.1389 199.1549,-293.7006 192.2235,-299.0779 192.2235,-299.0779"/>
<ellipse fill="none" stroke="#000000" cx="189.1129" cy="-299.8291" rx="3.2" ry="3.2"/>
</g>
<!-- temporary_absence_occurrence&#45;&gt;reference_data -->
<g id="edge6" class="edge">
<title>temporary_absence_occurrence:w&#45;&gt;reference_data:e</title>
<path fill="none" stroke="#000000" d="M185.7648,-337.7625C174.3432,-331.575 169.2522,-319.2 151.5,-319.2"/>
<polygon fill="#000000" stroke="#000000" points="192.2235,-339.3221 199.1549,-344.6994 196.1118,-340.2611 200,-341.2 200,-341.2 200,-341.2 196.1118,-340.2611 200.8451,-337.7006 192.2235,-339.3221 192.2235,-339.3221"/>
<ellipse fill="none" stroke="#000000" cx="189.1129" cy="-338.5709" rx="3.2" ry="3.2"/>
</g>
<!-- temporary_absence_occurrence&#45;&gt;reference_data -->
<g id="edge7" class="edge">
<title>temporary_absence_occurrence:w&#45;&gt;reference_data:e</title>
<path fill="none" stroke="#000000" d="M186.0348,-358.1526C173.2645,-346.5953 174.4651,-319.2 151.5,-319.2"/>
<polygon fill="#000000" stroke="#000000" points="192.4763,-360.4807 198.7763,-366.5857 196.2382,-361.8404 200,-363.2 200,-363.2 200,-363.2 196.2382,-361.8404 201.2237,-359.8143 192.4763,-360.4807 192.4763,-360.4807"/>
<ellipse fill="none" stroke="#000000" cx="189.4668" cy="-359.393" rx="3.2" ry="3.2"/>
</g>
<!-- temporary_absence_occurrence&#45;&gt;reference_data -->
<g id="edge8" class="edge">
<title>temporary_absence_occurrence:w&#45;&gt;reference_data:e</title>
<path fill="none" stroke="#000000" d="M185.8208,-425.285C158.3576,-405.6897 198.8774,-319.2 151.5,-319.2"/>
<polygon fill="#000000" stroke="#000000" points="192.2885,-427.0708 199.0419,-432.6702 196.1443,-428.1354 200,-429.2 200,-429.2 200,-429.2 196.1443,-428.1354 200.9581,-425.7298 192.2885,-427.0708 192.2885,-427.0708"/>
<ellipse fill="none" stroke="#000000" cx="189.204" cy="-426.2191" rx="3.2" ry="3.2"/>
</g>
<!-- temporary_absence_occurrence&#45;&gt;reference_data -->
<g id="edge9" class="edge">
<title>temporary_absence_occurrence:w&#45;&gt;reference_data:e</title>
<path fill="none" stroke="#000000" d="M186.0348,-280.2474C173.2645,-291.8047 174.4651,-319.2 151.5,-319.2"/>
<polygon fill="#000000" stroke="#000000" points="192.4763,-277.9193 201.2237,-278.5857 196.2382,-276.5596 200,-275.2 200,-275.2 200,-275.2 196.2382,-276.5596 198.7763,-271.8143 192.4763,-277.9193 192.4763,-277.9193"/>
<ellipse fill="none" stroke="#000000" cx="189.4668" cy="-279.007" rx="3.2" ry="3.2"/>
</g>
<!-- temporary_absence_occurrence&#45;&gt;reference_data -->
<g id="edge10" class="edge">
<title>temporary_absence_occurrence:w&#45;&gt;reference_data:e</title>
<path fill="none" stroke="#000000" d="M186.0395,-402.7151C164.905,-384.7824 190.0523,-319.2 151.5,-319.2"/>
<polygon fill="#000000" stroke="#000000" points="192.3834,-404.7531 198.8989,-410.6275 196.1917,-405.9765 200,-407.2 200,-407.2 200,-407.2 196.1917,-405.9765 201.1011,-403.7725 192.3834,-404.7531 192.3834,-404.7531"/>
<ellipse fill="none" stroke="#000000" cx="189.3367" cy="-403.7743" rx="3.2" ry="3.2"/>
</g>
</g>
</svg>
