<?xml version="1.0" encoding="UTF-8" standalone="no"?>
<!DOCTYPE svg PUBLIC "-//W3C//DTD SVG 1.1//EN"
 "http://www.w3.org/Graphics/SVG/1.1/DTD/svg11.dtd">
<!-- Generated by graphviz version 2.40.1 (20161225.0304)
 -->
<!-- Title: oneDegreeRelationshipsDiagram Pages: 1 -->
<svg width="601pt" height="580pt"
 viewBox="0.00 0.00 601.00 580.20" xmlns="http://www.w3.org/2000/svg" xmlns:xlink="http://www.w3.org/1999/xlink">
<g id="graph0" class="graph" transform="scale(1 1) rotate(0) translate(4 576.2)">
<title>oneDegreeRelationshipsDiagram</title>
<polygon fill="#ffffff" stroke="transparent" points="-4,4 -4,-576.2 597,-576.2 597,4 -4,4"/>
<text text-anchor="middle" x="72.4936" y="-7.3" font-family="Helvetica,sans-Serif" font-size="11.00" fill="#000000">Generated by SchemaSpy</text>
<!-- temporary_absence_authorisation_audit -->
<g id="node1" class="node">
<title>temporary_absence_authorisation_audit</title>
<g id="a_node1"><a xlink:href="../../tables/temporary_absence_authorisation_audit.html" xlink:title="temporary_absence_authorisation_audit" target="_top">
<polygon fill="#ffffff" stroke="transparent" points="191,-38.2 191,-568.2 585,-568.2 585,-38.2 191,-38.2"/>
<polygon fill="#f5f5f5" stroke="transparent" points="193,-543.2 193,-566.2 583,-566.2 583,-543.2 193,-543.2"/>
<polygon fill="none" stroke="#000000" points="193,-543.2 193,-566.2 583,-566.2 583,-543.2 193,-543.2"/>
<text text-anchor="start" x="198" y="-551.8" font-family="Helvetica,sans-Serif" font-weight="bold" font-size="11.00" fill="#000000">temporary_absence_authorisation_audit</text>
<text text-anchor="start" x="548.0437" y="-551.3" font-family="Helvetica,sans-Serif" font-size="11.00" fill="#000000">[table]</text>
<polygon fill="none" stroke="#000000" points="193,-521.2 193,-543.2 484,-543.2 484,-521.2 193,-521.2"/>
<image xlink:href="../../images/primaryKeys.png" width="11px" height="12px" preserveAspectRatio="xMinYMin meet" x="198" y="-538.2"/>
<text text-anchor="start" x="213" y="-528.3" font-family="Helvetica,sans-Serif" font-size="11.00" fill="#000000">rev_id</text>
<polygon fill="none" stroke="#000000" points="484,-521.2 484,-543.2 583,-543.2 583,-521.2 484,-521.2"/>
<text text-anchor="start" x="487" y="-528.9" font-family="Helvetica,sans-Serif" font-size="11.00" fill="#000000">int8[19]</text>
<polygon fill="none" stroke="#000000" points="193,-499.2 193,-521.2 484,-521.2 484,-499.2 193,-499.2"/>
<text text-anchor="start" x="213" y="-506.3" font-family="Helvetica,sans-Serif" font-size="11.00" fill="#000000">rev_type</text>
<polygon fill="none" stroke="#000000" points="484,-499.2 484,-521.2 583,-521.2 583,-499.2 484,-499.2"/>
<text text-anchor="start" x="487" y="-506.9" font-family="Helvetica,sans-Serif" font-size="11.00" fill="#000000">int2[5]</text>
<polygon fill="none" stroke="#000000" points="193,-477.2 193,-499.2 484,-499.2 484,-477.2 193,-477.2"/>
<image xlink:href="../../images/primaryKeys.png" width="11px" height="12px" preserveAspectRatio="xMinYMin meet" x="198" y="-494.2"/>
<text text-anchor="start" x="213" y="-484.3" font-family="Helvetica,sans-Serif" font-size="11.00" fill="#000000">id</text>
<polygon fill="none" stroke="#000000" points="484,-477.2 484,-499.2 583,-499.2 583,-477.2 484,-477.2"/>
<text text-anchor="start" x="487" y="-484.9" font-family="Helvetica,sans-Serif" font-size="11.00" fill="#000000">uuid[2147483647]</text>
<polygon fill="none" stroke="#000000" points="193,-455.2 193,-477.2 484,-477.2 484,-455.2 193,-455.2"/>
<text text-anchor="start" x="213" y="-462.3" font-family="Helvetica,sans-Serif" font-size="11.00" fill="#000000">person_identifier</text>
<polygon fill="none" stroke="#000000" points="484,-455.2 484,-477.2 583,-477.2 583,-455.2 484,-455.2"/>
<text text-anchor="start" x="487" y="-462.9" font-family="Helvetica,sans-Serif" font-size="11.00" fill="#000000">varchar[10]</text>
<polygon fill="none" stroke="#000000" points="193,-433.2 193,-455.2 484,-455.2 484,-433.2 193,-433.2"/>
<text text-anchor="start" x="213" y="-440.3" font-family="Helvetica,sans-Serif" font-size="11.00" fill="#000000">prison_code</text>
<polygon fill="none" stroke="#000000" points="484,-433.2 484,-455.2 583,-455.2 583,-433.2 484,-433.2"/>
<text text-anchor="start" x="487" y="-440.9" font-family="Helvetica,sans-Serif" font-size="11.00" fill="#000000">varchar[6]</text>
<polygon fill="none" stroke="#000000" points="193,-411.2 193,-433.2 484,-433.2 484,-411.2 193,-411.2"/>
<text text-anchor="start" x="213" y="-418.3" font-family="Helvetica,sans-Serif" font-size="11.00" fill="#000000">absence_type_id</text>
<polygon fill="none" stroke="#000000" points="484,-411.2 484,-433.2 583,-433.2 583,-411.2 484,-411.2"/>
<text text-anchor="start" x="487" y="-418.9" font-family="Helvetica,sans-Serif" font-size="11.00" fill="#000000">int8[19]</text>
<polygon fill="none" stroke="#000000" points="193,-389.2 193,-411.2 484,-411.2 484,-389.2 193,-389.2"/>
<text text-anchor="start" x="213" y="-396.3" font-family="Helvetica,sans-Serif" font-size="11.00" fill="#000000">absence_sub_type_id</text>
<polygon fill="none" stroke="#000000" points="484,-389.2 484,-411.2 583,-411.2 583,-389.2 484,-389.2"/>
<text text-anchor="start" x="487" y="-396.9" font-family="Helvetica,sans-Serif" font-size="11.00" fill="#000000">int8[19]</text>
<polygon fill="none" stroke="#000000" points="193,-367.2 193,-389.2 484,-389.2 484,-367.2 193,-367.2"/>
<text text-anchor="start" x="213" y="-374.3" font-family="Helvetica,sans-Serif" font-size="11.00" fill="#000000">absence_reason_id</text>
<polygon fill="none" stroke="#000000" points="484,-367.2 484,-389.2 583,-389.2 583,-367.2 484,-367.2"/>
<text text-anchor="start" x="487" y="-374.9" font-family="Helvetica,sans-Serif" font-size="11.00" fill="#000000">int8[19]</text>
<polygon fill="none" stroke="#000000" points="193,-345.2 193,-367.2 484,-367.2 484,-345.2 193,-345.2"/>
<text text-anchor="start" x="213" y="-352.3" font-family="Helvetica,sans-Serif" font-size="11.00" fill="#000000">repeat</text>
<polygon fill="none" stroke="#000000" points="484,-345.2 484,-367.2 583,-367.2 583,-345.2 484,-345.2"/>
<text text-anchor="start" x="487" y="-352.9" font-family="Helvetica,sans-Serif" font-size="11.00" fill="#000000">bool[1]</text>
<polygon fill="none" stroke="#000000" points="193,-323.2 193,-345.2 484,-345.2 484,-323.2 193,-323.2"/>
<text text-anchor="start" x="213" y="-330.3" font-family="Helvetica,sans-Serif" font-size="11.00" fill="#000000">status_id</text>
<polygon fill="none" stroke="#000000" points="484,-323.2 484,-345.2 583,-345.2 583,-323.2 484,-323.2"/>
<text text-anchor="start" x="487" y="-330.9" font-family="Helvetica,sans-Serif" font-size="11.00" fill="#000000">int8[19]</text>
<polygon fill="none" stroke="#000000" points="193,-301.2 193,-323.2 484,-323.2 484,-301.2 193,-301.2"/>
<text text-anchor="start" x="213" y="-308.3" font-family="Helvetica,sans-Serif" font-size="11.00" fill="#000000">notes</text>
<polygon fill="none" stroke="#000000" points="484,-301.2 484,-323.2 583,-323.2 583,-301.2 484,-301.2"/>
<text text-anchor="start" x="487" y="-308.9" font-family="Helvetica,sans-Serif" font-size="11.00" fill="#000000">text[2147483647]</text>
<polygon fill="none" stroke="#000000" points="193,-279.2 193,-301.2 484,-301.2 484,-279.2 193,-279.2"/>
<text text-anchor="start" x="213" y="-286.3" font-family="Helvetica,sans-Serif" font-size="11.00" fill="#000000">submitted_at</text>
<polygon fill="none" stroke="#000000" points="484,-279.2 484,-301.2 583,-301.2 583,-279.2 484,-279.2"/>
<text text-anchor="start" x="487" y="-286.9" font-family="Helvetica,sans-Serif" font-size="11.00" fill="#000000">timestamp[29,6]</text>
<polygon fill="none" stroke="#000000" points="193,-257.2 193,-279.2 484,-279.2 484,-257.2 193,-257.2"/>
<text text-anchor="start" x="213" y="-264.3" font-family="Helvetica,sans-Serif" font-size="11.00" fill="#000000">submitted_by</text>
<polygon fill="none" stroke="#000000" points="484,-257.2 484,-279.2 583,-279.2 583,-257.2 484,-257.2"/>
<text text-anchor="start" x="487" y="-264.9" font-family="Helvetica,sans-Serif" font-size="11.00" fill="#000000">varchar[64]</text>
<polygon fill="none" stroke="#000000" points="193,-235.2 193,-257.2 484,-257.2 484,-235.2 193,-235.2"/>
<text text-anchor="start" x="213" y="-242.3" font-family="Helvetica,sans-Serif" font-size="11.00" fill="#000000">approved_at</text>
<polygon fill="none" stroke="#000000" points="484,-235.2 484,-257.2 583,-257.2 583,-235.2 484,-235.2"/>
<text text-anchor="start" x="487" y="-242.9" font-family="Helvetica,sans-Serif" font-size="11.00" fill="#000000">timestamp[29,6]</text>
<polygon fill="none" stroke="#000000" points="193,-213.2 193,-235.2 484,-235.2 484,-213.2 193,-213.2"/>
<text text-anchor="start" x="213" y="-220.3" font-family="Helvetica,sans-Serif" font-size="11.00" fill="#000000">approved_by</text>
<polygon fill="none" stroke="#000000" points="484,-213.2 484,-235.2 583,-235.2 583,-213.2 484,-213.2"/>
<text text-anchor="start" x="487" y="-220.9" font-family="Helvetica,sans-Serif" font-size="11.00" fill="#000000">varchar[64]</text>
<polygon fill="none" stroke="#000000" points="193,-191.2 193,-213.2 484,-213.2 484,-191.2 193,-191.2"/>
<text text-anchor="start" x="213" y="-198.3" font-family="Helvetica,sans-Serif" font-size="11.00" fill="#000000">legacy_id</text>
<polygon fill="none" stroke="#000000" points="484,-191.2 484,-213.2 583,-213.2 583,-191.2 484,-191.2"/>
<text text-anchor="start" x="487" y="-198.9" font-family="Helvetica,sans-Serif" font-size="11.00" fill="#000000">int8[19]</text>
<polygon fill="none" stroke="#000000" points="193,-169.2 193,-191.2 484,-191.2 484,-169.2 193,-169.2"/>
<text text-anchor="start" x="213" y="-176.3" font-family="Helvetica,sans-Serif" font-size="11.00" fill="#000000">from_date</text>
<polygon fill="none" stroke="#000000" points="484,-169.2 484,-191.2 583,-191.2 583,-169.2 484,-169.2"/>
<text text-anchor="start" x="487" y="-176.9" font-family="Helvetica,sans-Serif" font-size="11.00" fill="#000000">date[13]</text>
<polygon fill="none" stroke="#000000" points="193,-147.2 193,-169.2 484,-169.2 484,-147.2 193,-147.2"/>
<text text-anchor="start" x="213" y="-154.3" font-family="Helvetica,sans-Serif" font-size="11.00" fill="#000000">to_date</text>
<polygon fill="none" stroke="#000000" points="484,-147.2 484,-169.2 583,-169.2 583,-147.2 484,-147.2"/>
<text text-anchor="start" x="487" y="-154.9" font-family="Helvetica,sans-Serif" font-size="11.00" fill="#000000">date[13]</text>
<polygon fill="none" stroke="#000000" points="193,-125.2 193,-147.2 484,-147.2 484,-125.2 193,-125.2"/>
<text text-anchor="start" x="213" y="-132.3" font-family="Helvetica,sans-Serif" font-size="11.00" fill="#000000">schedule</text>
<polygon fill="none" stroke="#000000" points="484,-125.2 484,-147.2 583,-147.2 583,-125.2 484,-125.2"/>
<text text-anchor="start" x="486.7258" y="-132.9" font-family="Helvetica,sans-Serif" font-size="11.00" fill="#000000">jsonb[2147483647]</text>
<polygon fill="none" stroke="#000000" points="193,-103.2 193,-125.2 484,-125.2 484,-103.2 193,-103.2"/>
<text text-anchor="start" x="213" y="-110.3" font-family="Helvetica,sans-Serif" font-size="11.00" fill="#000000">absence_reason_category_id</text>
<polygon fill="none" stroke="#000000" points="484,-103.2 484,-125.2 583,-125.2 583,-103.2 484,-103.2"/>
<text text-anchor="start" x="487" y="-110.9" font-family="Helvetica,sans-Serif" font-size="11.00" fill="#000000">int8[19]</text>
<polygon fill="none" stroke="#000000" points="193,-81.2 193,-103.2 484,-103.2 484,-81.2 193,-81.2"/>
<text text-anchor="start" x="213" y="-88.3" font-family="Helvetica,sans-Serif" font-size="11.00" fill="#000000">reason_path</text>
<polygon fill="none" stroke="#000000" points="484,-81.2 484,-103.2 583,-103.2 583,-81.2 484,-81.2"/>
<text text-anchor="start" x="486.7258" y="-88.9" font-family="Helvetica,sans-Serif" font-size="11.00" fill="#000000">jsonb[2147483647]</text>
<polygon fill="none" stroke="#000000" points="193,-59.2 193,-81.2 484,-81.2 484,-59.2 193,-59.2"/>
<text text-anchor="start" x="213" y="-66.3" font-family="Helvetica,sans-Serif" font-size="11.00" fill="#000000">accompanied_by_id</text>
<polygon fill="none" stroke="#000000" points="484,-59.2 484,-81.2 583,-81.2 583,-59.2 484,-59.2"/>
<text text-anchor="start" x="487" y="-66.9" font-family="Helvetica,sans-Serif" font-size="11.00" fill="#000000">int8[19]</text>
<polygon fill="#ffffff" stroke="transparent" points="193,-40.2 193,-59.2 343,-59.2 343,-40.2 193,-40.2"/>
<polygon fill="none" stroke="#000000" points="193,-40.2 193,-59.2 343,-59.2 343,-40.2 193,-40.2"/>
<text text-anchor="start" x="196" y="-46.3" font-family="Helvetica,sans-Serif" font-size="11.00" fill="#000000">&lt; 1</text>
<polygon fill="#ffffff" stroke="transparent" points="343,-40.2 343,-59.2 484,-59.2 484,-40.2 343,-40.2"/>
<polygon fill="none" stroke="#000000" points="343,-40.2 343,-59.2 484,-59.2 484,-40.2 343,-40.2"/>
<text text-anchor="start" x="474.8862" y="-46.3" font-family="Helvetica,sans-Serif" font-size="11.00" fill="#000000"> &#160;</text>
<polygon fill="#ffffff" stroke="transparent" points="484,-40.2 484,-59.2 583,-59.2 583,-40.2 484,-40.2"/>
<polygon fill="none" stroke="#000000" points="484,-40.2 484,-59.2 583,-59.2 583,-40.2 484,-40.2"/>
<text text-anchor="start" x="564.4053" y="-46.3" font-family="Helvetica,sans-Serif" font-size="11.00" fill="#000000">0 &gt;</text>
<polygon fill="none" stroke="#000000" stroke-width="2" points="192,-39.2 192,-567.2 584,-567.2 584,-39.2 192,-39.2"/>
</a>
</g>
</g>
<!-- audit_revision -->
<g id="node2" class="node">
<title>audit_revision</title>
<g id="a_node2"><a xlink:href="../../tables/audit_revision.html" xlink:title="audit_revision" target="_top">
<polygon fill="#ffffff" stroke="transparent" points="8,-483.7 8,-566.7 142,-566.7 142,-483.7 8,-483.7"/>
<polygon fill="#f5f5f5" stroke="transparent" points="8,-543.2 8,-566.2 142,-566.2 142,-543.2 8,-543.2"/>
<polygon fill="none" stroke="#000000" points="8,-543.2 8,-566.2 142,-566.2 142,-543.2 8,-543.2"/>
<text text-anchor="start" x="13" y="-551.8" font-family="Helvetica,sans-Serif" font-weight="bold" font-size="11.00" fill="#000000">audit_revision</text>
<text text-anchor="start" x="107.5219" y="-551.3" font-family="Helvetica,sans-Serif" font-size="11.00" fill="#000000">[table]</text>
<polygon fill="none" stroke="#000000" points="8,-521.2 8,-543.2 142,-543.2 142,-521.2 8,-521.2"/>
<image xlink:href="../../images/primaryKeys.png" width="11px" height="12px" preserveAspectRatio="xMinYMin meet" x="13" y="-538.2"/>
<text text-anchor="start" x="28" y="-528.3" font-family="Helvetica,sans-Serif" font-size="11.00" fill="#000000">id</text>
<polygon fill="none" stroke="#000000" points="8,-502.2 8,-521.2 142,-521.2 142,-502.2 8,-502.2"/>
<text text-anchor="start" x="11" y="-508.3" font-family="Helvetica,sans-Serif" font-size="11.00" fill="#000000">...</text>
<polygon fill="#ffffff" stroke="transparent" points="8,-483.2 8,-502.2 64,-502.2 64,-483.2 8,-483.2"/>
<polygon fill="none" stroke="#000000" points="8,-483.2 8,-502.2 64,-502.2 64,-483.2 8,-483.2"/>
<text text-anchor="start" x="11" y="-489.3" font-family="Helvetica,sans-Serif" font-size="11.00" fill="#000000"> &#160;</text>
<polygon fill="#ffffff" stroke="transparent" points="64,-483.2 64,-502.2 98,-502.2 98,-483.2 64,-483.2"/>
<polygon fill="none" stroke="#000000" points="64,-483.2 64,-502.2 98,-502.2 98,-483.2 64,-483.2"/>
<text text-anchor="start" x="88.8862" y="-489.3" font-family="Helvetica,sans-Serif" font-size="11.00" fill="#000000"> &#160;</text>
<polygon fill="#ffffff" stroke="transparent" points="98,-483.2 98,-502.2 142,-502.2 142,-483.2 98,-483.2"/>
<polygon fill="none" stroke="#000000" points="98,-483.2 98,-502.2 142,-502.2 142,-483.2 98,-483.2"/>
<text text-anchor="start" x="123.4053" y="-489.3" font-family="Helvetica,sans-Serif" font-size="11.00" fill="#000000">4 &gt;</text>
</a>
</g>
</g>
<!-- temporary_absence_authorisation_audit&#45;&gt;audit_revision -->
<g id="edge1" class="edge">
<title>temporary_absence_authorisation_audit:w&#45;&gt;audit_revision:e</title>
<path fill="none" stroke="#000000" d="M178.276,-532.2C166.2815,-532.2 158.8229,-532.2 142,-532.2"/>
<polygon fill="#000000" stroke="#000000" points="185,-532.2001 193,-535.8 189,-532.2 193,-532.2 193,-532.2 193,-532.2 189,-532.2 193,-528.6 185,-532.2001 185,-532.2001"/>
<ellipse fill="none" stroke="#000000" cx="181.8" cy="-532.2001" rx="3.2" ry="3.2"/>
</g>
</g>
</svg>
