<?xml version="1.0" encoding="UTF-8" standalone="no"?>
<!DOCTYPE svg PUBLIC "-//W3C//DTD SVG 1.1//EN"
 "http://www.w3.org/Graphics/SVG/1.1/DTD/svg11.dtd">
<!-- Generated by graphviz version 2.40.1 (20161225.0304)
 -->
<!-- Title: oneDegreeRelationshipsDiagram Pages: 1 -->
<svg width="851pt" height="608pt"
 viewBox="0.00 0.00 851.00 607.70" xmlns="http://www.w3.org/2000/svg" xmlns:xlink="http://www.w3.org/1999/xlink">
<g id="graph0" class="graph" transform="scale(1 1) rotate(0) translate(4 603.7)">
<title>oneDegreeRelationshipsDiagram</title>
<polygon fill="#ffffff" stroke="transparent" points="-4,4 -4,-603.7 847,-603.7 847,4 -4,4"/>
<text text-anchor="middle" x="72.4936" y="-7.3" font-family="Helvetica,sans-Serif" font-size="11.00" fill="#000000">Generated by SchemaSpy</text>
<!-- temporary_absence_movement -->
<g id="node1" class="node">
<title>temporary_absence_movement</title>
<g id="a_node1"><a xlink:href="../../tables/temporary_absence_movement.html" xlink:title="temporary_absence_movement" target="_top">
<polygon fill="#ffffff" stroke="transparent" points="501,-38.2 501,-414.2 835,-414.2 835,-38.2 501,-38.2"/>
<polygon fill="#f5f5f5" stroke="transparent" points="503,-389.2 503,-412.2 833,-412.2 833,-389.2 503,-389.2"/>
<polygon fill="none" stroke="#000000" points="503,-389.2 503,-412.2 833,-412.2 833,-389.2 503,-389.2"/>
<text text-anchor="start" x="508" y="-397.8" font-family="Helvetica,sans-Serif" font-weight="bold" font-size="11.00" fill="#000000">temporary_absence_movement</text>
<text text-anchor="start" x="798.0437" y="-397.3" font-family="Helvetica,sans-Serif" font-size="11.00" fill="#000000">[table]</text>
<polygon fill="none" stroke="#000000" points="503,-367.2 503,-389.2 734,-389.2 734,-367.2 503,-367.2"/>
<image xlink:href="../../images/primaryKeys.png" width="11px" height="12px" preserveAspectRatio="xMinYMin meet" x="508" y="-384.2"/>
<text text-anchor="start" x="523" y="-374.3" font-family="Helvetica,sans-Serif" font-size="11.00" fill="#000000">id</text>
<polygon fill="none" stroke="#000000" points="734,-367.2 734,-389.2 833,-389.2 833,-367.2 734,-367.2"/>
<text text-anchor="start" x="737" y="-374.9" font-family="Helvetica,sans-Serif" font-size="11.00" fill="#000000">uuid[2147483647]</text>
<polygon fill="none" stroke="#000000" points="503,-345.2 503,-367.2 734,-367.2 734,-345.2 503,-345.2"/>
<text text-anchor="start" x="523" y="-352.3" font-family="Helvetica,sans-Serif" font-size="11.00" fill="#000000">version</text>
<polygon fill="none" stroke="#000000" points="734,-345.2 734,-367.2 833,-367.2 833,-345.2 734,-345.2"/>
<text text-anchor="start" x="737" y="-352.9" font-family="Helvetica,sans-Serif" font-size="11.00" fill="#000000">int4[10]</text>
<polygon fill="#ffffff" stroke="transparent" points="503,-323.2 503,-345.2 734,-345.2 734,-323.2 503,-323.2"/>
<polygon fill="none" stroke="#000000" points="503,-323.2 503,-345.2 734,-345.2 734,-323.2 503,-323.2"/>
<text text-anchor="start" x="523" y="-330.3" font-family="Helvetica,sans-Serif" font-size="11.00" fill="#000000">person_identifier</text>
<polygon fill="none" stroke="#000000" points="734,-323.2 734,-345.2 833,-345.2 833,-323.2 734,-323.2"/>
<text text-anchor="start" x="737" y="-330.9" font-family="Helvetica,sans-Serif" font-size="11.00" fill="#000000">varchar[10]</text>
<polygon fill="none" stroke="#000000" points="503,-301.2 503,-323.2 734,-323.2 734,-301.2 503,-301.2"/>
<image xlink:href="../../images/foreignKeys.png" width="11px" height="12px" preserveAspectRatio="xMinYMin meet" x="508" y="-318.2"/>
<text text-anchor="start" x="523" y="-308.3" font-family="Helvetica,sans-Serif" font-size="11.00" fill="#000000">occurrence_id</text>
<polygon fill="none" stroke="#000000" points="734,-301.2 734,-323.2 833,-323.2 833,-301.2 734,-301.2"/>
<text text-anchor="start" x="737" y="-308.9" font-family="Helvetica,sans-Serif" font-size="11.00" fill="#000000">uuid[2147483647]</text>
<polygon fill="#ffffff" stroke="transparent" points="503,-279.2 503,-301.2 734,-301.2 734,-279.2 503,-279.2"/>
<polygon fill="none" stroke="#000000" points="503,-279.2 503,-301.2 734,-301.2 734,-279.2 503,-279.2"/>
<text text-anchor="start" x="523" y="-286.3" font-family="Helvetica,sans-Serif" font-size="11.00" fill="#000000">occurred_at</text>
<polygon fill="none" stroke="#000000" points="734,-279.2 734,-301.2 833,-301.2 833,-279.2 734,-279.2"/>
<text text-anchor="start" x="737" y="-286.9" font-family="Helvetica,sans-Serif" font-size="11.00" fill="#000000">timestamp[29,6]</text>
<polygon fill="none" stroke="#000000" points="503,-257.2 503,-279.2 734,-279.2 734,-257.2 503,-257.2"/>
<text text-anchor="start" x="523" y="-264.3" font-family="Helvetica,sans-Serif" font-size="11.00" fill="#000000">direction</text>
<polygon fill="none" stroke="#000000" points="734,-257.2 734,-279.2 833,-279.2 833,-257.2 734,-257.2"/>
<text text-anchor="start" x="737" y="-264.9" font-family="Helvetica,sans-Serif" font-size="11.00" fill="#000000">varchar[3]</text>
<polygon fill="none" stroke="#000000" points="503,-235.2 503,-257.2 734,-257.2 734,-235.2 503,-235.2"/>
<image xlink:href="../../images/foreignKeys.png" width="11px" height="12px" preserveAspectRatio="xMinYMin meet" x="508" y="-252.2"/>
<text text-anchor="start" x="523" y="-242.3" font-family="Helvetica,sans-Serif" font-size="11.00" fill="#000000">absence_reason_id</text>
<polygon fill="none" stroke="#000000" points="734,-235.2 734,-257.2 833,-257.2 833,-235.2 734,-235.2"/>
<text text-anchor="start" x="737" y="-242.9" font-family="Helvetica,sans-Serif" font-size="11.00" fill="#000000">int8[19]</text>
<polygon fill="none" stroke="#000000" points="503,-213.2 503,-235.2 734,-235.2 734,-213.2 503,-213.2"/>
<image xlink:href="../../images/foreignKeys.png" width="11px" height="12px" preserveAspectRatio="xMinYMin meet" x="508" y="-230.2"/>
<text text-anchor="start" x="523" y="-220.3" font-family="Helvetica,sans-Serif" font-size="11.00" fill="#000000">accompanied_by_id</text>
<polygon fill="none" stroke="#000000" points="734,-213.2 734,-235.2 833,-235.2 833,-213.2 734,-213.2"/>
<text text-anchor="start" x="737" y="-220.9" font-family="Helvetica,sans-Serif" font-size="11.00" fill="#000000">int8[19]</text>
<polygon fill="none" stroke="#000000" points="503,-191.2 503,-213.2 734,-213.2 734,-191.2 503,-191.2"/>
<text text-anchor="start" x="523" y="-198.3" font-family="Helvetica,sans-Serif" font-size="11.00" fill="#000000">accompanied_by_notes</text>
<polygon fill="none" stroke="#000000" points="734,-191.2 734,-213.2 833,-213.2 833,-191.2 734,-191.2"/>
<text text-anchor="start" x="737" y="-198.9" font-family="Helvetica,sans-Serif" font-size="11.00" fill="#000000">text[2147483647]</text>
<polygon fill="none" stroke="#000000" points="503,-169.2 503,-191.2 734,-191.2 734,-169.2 503,-169.2"/>
<text text-anchor="start" x="523" y="-176.3" font-family="Helvetica,sans-Serif" font-size="11.00" fill="#000000">notes</text>
<polygon fill="none" stroke="#000000" points="734,-169.2 734,-191.2 833,-191.2 833,-169.2 734,-169.2"/>
<text text-anchor="start" x="737" y="-176.9" font-family="Helvetica,sans-Serif" font-size="11.00" fill="#000000">text[2147483647]</text>
<polygon fill="none" stroke="#000000" points="503,-147.2 503,-169.2 734,-169.2 734,-147.2 503,-147.2"/>
<text text-anchor="start" x="523" y="-154.3" font-family="Helvetica,sans-Serif" font-size="11.00" fill="#000000">recorded_at</text>
<polygon fill="none" stroke="#000000" points="734,-147.2 734,-169.2 833,-169.2 833,-147.2 734,-147.2"/>
<text text-anchor="start" x="737" y="-154.9" font-family="Helvetica,sans-Serif" font-size="11.00" fill="#000000">timestamp[29,6]</text>
<polygon fill="none" stroke="#000000" points="503,-125.2 503,-147.2 734,-147.2 734,-125.2 503,-125.2"/>
<text text-anchor="start" x="523" y="-132.3" font-family="Helvetica,sans-Serif" font-size="11.00" fill="#000000">recorded_by</text>
<polygon fill="none" stroke="#000000" points="734,-125.2 734,-147.2 833,-147.2 833,-125.2 734,-125.2"/>
<text text-anchor="start" x="737" y="-132.9" font-family="Helvetica,sans-Serif" font-size="11.00" fill="#000000">varchar[64]</text>
<polygon fill="none" stroke="#000000" points="503,-103.2 503,-125.2 734,-125.2 734,-103.2 503,-103.2"/>
<text text-anchor="start" x="523" y="-110.3" font-family="Helvetica,sans-Serif" font-size="11.00" fill="#000000">recorded_by_prison_code</text>
<polygon fill="none" stroke="#000000" points="734,-103.2 734,-125.2 833,-125.2 833,-103.2 734,-103.2"/>
<text text-anchor="start" x="737" y="-110.9" font-family="Helvetica,sans-Serif" font-size="11.00" fill="#000000">varchar[6]</text>
<polygon fill="#ffffff" stroke="transparent" points="503,-81.2 503,-103.2 734,-103.2 734,-81.2 503,-81.2"/>
<polygon fill="none" stroke="#000000" points="503,-81.2 503,-103.2 734,-103.2 734,-81.2 503,-81.2"/>
<text text-anchor="start" x="523" y="-88.3" font-family="Helvetica,sans-Serif" font-size="11.00" fill="#000000">legacy_id</text>
<polygon fill="none" stroke="#000000" points="734,-81.2 734,-103.2 833,-103.2 833,-81.2 734,-81.2"/>
<text text-anchor="start" x="737" y="-88.9" font-family="Helvetica,sans-Serif" font-size="11.00" fill="#000000">varchar[32]</text>
<polygon fill="none" stroke="#000000" points="503,-59.2 503,-81.2 734,-81.2 734,-59.2 503,-59.2"/>
<text text-anchor="start" x="523" y="-66.3" font-family="Helvetica,sans-Serif" font-size="11.00" fill="#000000">location</text>
<polygon fill="none" stroke="#000000" points="734,-59.2 734,-81.2 833,-81.2 833,-59.2 734,-59.2"/>
<text text-anchor="start" x="736.7258" y="-66.9" font-family="Helvetica,sans-Serif" font-size="11.00" fill="#000000">jsonb[2147483647]</text>
<polygon fill="#ffffff" stroke="transparent" points="503,-40.2 503,-59.2 623,-59.2 623,-40.2 503,-40.2"/>
<polygon fill="none" stroke="#000000" points="503,-40.2 503,-59.2 623,-59.2 623,-40.2 503,-40.2"/>
<text text-anchor="start" x="506" y="-46.3" font-family="Helvetica,sans-Serif" font-size="11.00" fill="#000000">&lt; 3</text>
<polygon fill="#ffffff" stroke="transparent" points="623,-40.2 623,-59.2 734,-59.2 734,-40.2 623,-40.2"/>
<polygon fill="none" stroke="#000000" points="623,-40.2 623,-59.2 734,-59.2 734,-40.2 623,-40.2"/>
<text text-anchor="start" x="724.8862" y="-46.3" font-family="Helvetica,sans-Serif" font-size="11.00" fill="#000000"> &#160;</text>
<polygon fill="#ffffff" stroke="transparent" points="734,-40.2 734,-59.2 833,-59.2 833,-40.2 734,-40.2"/>
<polygon fill="none" stroke="#000000" points="734,-40.2 734,-59.2 833,-59.2 833,-40.2 734,-40.2"/>
<text text-anchor="start" x="814.4053" y="-46.3" font-family="Helvetica,sans-Serif" font-size="11.00" fill="#000000">0 &gt;</text>
<polygon fill="none" stroke="#000000" stroke-width="2" points="502,-39.2 502,-413.2 834,-413.2 834,-39.2 502,-39.2"/>
</a>
</g>
</g>
<!-- reference_data -->
<g id="node2" class="node">
<title>reference_data</title>
<g id="a_node2"><a xlink:href="../../tables/reference_data.html" xlink:title="reference_data" target="_top">
<polygon fill="#ffffff" stroke="transparent" points="8,-237.7 8,-386.7 151,-386.7 151,-237.7 8,-237.7"/>
<polygon fill="#f5f5f5" stroke="transparent" points="8.5,-363.2 8.5,-386.2 151.5,-386.2 151.5,-363.2 8.5,-363.2"/>
<polygon fill="none" stroke="#000000" points="8.5,-363.2 8.5,-386.2 151.5,-386.2 151.5,-363.2 8.5,-363.2"/>
<text text-anchor="start" x="13.5" y="-371.8" font-family="Helvetica,sans-Serif" font-weight="bold" font-size="11.00" fill="#000000">reference_data</text>
<text text-anchor="start" x="116.5437" y="-371.3" font-family="Helvetica,sans-Serif" font-size="11.00" fill="#000000">[table]</text>
<polygon fill="none" stroke="#000000" points="8.5,-341.2 8.5,-363.2 151.5,-363.2 151.5,-341.2 8.5,-341.2"/>
<image xlink:href="../../images/primaryKeys.png" width="11px" height="12px" preserveAspectRatio="xMinYMin meet" x="13.5" y="-358.2"/>
<text text-anchor="start" x="28.5" y="-348.3" font-family="Helvetica,sans-Serif" font-size="11.00" fill="#000000">id</text>
<polygon fill="#ffffff" stroke="transparent" points="8.5,-319.2 8.5,-341.2 151.5,-341.2 151.5,-319.2 8.5,-319.2"/>
<polygon fill="none" stroke="#000000" points="8.5,-319.2 8.5,-341.2 151.5,-341.2 151.5,-319.2 8.5,-319.2"/>
<image xlink:href="../../images/foreignKeys.png" width="11px" height="12px" preserveAspectRatio="xMinYMin meet" x="13.5" y="-336.2"/>
<text text-anchor="start" x="28.5" y="-326.3" font-family="Helvetica,sans-Serif" font-size="11.00" fill="#000000">domain</text>
<polygon fill="#ffffff" stroke="transparent" points="8.5,-297.2 8.5,-319.2 151.5,-319.2 151.5,-297.2 8.5,-297.2"/>
<polygon fill="none" stroke="#000000" points="8.5,-297.2 8.5,-319.2 151.5,-319.2 151.5,-297.2 8.5,-297.2"/>
<text text-anchor="start" x="28.5" y="-304.3" font-family="Helvetica,sans-Serif" font-size="11.00" fill="#000000">code</text>
<polygon fill="#ffffff" stroke="transparent" points="8.5,-275.2 8.5,-297.2 151.5,-297.2 151.5,-275.2 8.5,-275.2"/>
<polygon fill="none" stroke="#000000" points="8.5,-275.2 8.5,-297.2 151.5,-297.2 151.5,-275.2 8.5,-275.2"/>
<text text-anchor="start" x="28.5" y="-282.3" font-family="Helvetica,sans-Serif" font-size="11.00" fill="#000000">sequence_number</text>
<polygon fill="none" stroke="#000000" points="8.5,-256.2 8.5,-275.2 151.5,-275.2 151.5,-256.2 8.5,-256.2"/>
<text text-anchor="start" x="11.5" y="-262.3" font-family="Helvetica,sans-Serif" font-size="11.00" fill="#000000">...</text>
<polygon fill="#ffffff" stroke="transparent" points="8.5,-237.2 8.5,-256.2 70.5,-256.2 70.5,-237.2 8.5,-237.2"/>
<polygon fill="none" stroke="#000000" points="8.5,-237.2 8.5,-256.2 70.5,-256.2 70.5,-237.2 8.5,-237.2"/>
<text text-anchor="start" x="11.5" y="-243.3" font-family="Helvetica,sans-Serif" font-size="11.00" fill="#000000">&lt; 1</text>
<polygon fill="#ffffff" stroke="transparent" points="70.5,-237.2 70.5,-256.2 103.5,-256.2 103.5,-237.2 70.5,-237.2"/>
<polygon fill="none" stroke="#000000" points="70.5,-237.2 70.5,-256.2 103.5,-256.2 103.5,-237.2 70.5,-237.2"/>
<text text-anchor="start" x="94.3862" y="-243.3" font-family="Helvetica,sans-Serif" font-size="11.00" fill="#000000"> &#160;</text>
<polygon fill="#ffffff" stroke="transparent" points="103.5,-237.2 103.5,-256.2 151.5,-256.2 151.5,-237.2 103.5,-237.2"/>
<polygon fill="none" stroke="#000000" points="103.5,-237.2 103.5,-256.2 151.5,-256.2 151.5,-237.2 103.5,-237.2"/>
<text text-anchor="start" x="126.7904" y="-243.3" font-family="Helvetica,sans-Serif" font-size="11.00" fill="#000000">17 &gt;</text>
</a>
</g>
</g>
<!-- temporary_absence_movement&#45;&gt;reference_data -->
<g id="edge1" class="edge">
<title>temporary_absence_movement:w&#45;&gt;reference_data:e</title>
<path fill="none" stroke="#000000" d="M488.2481,-245.9112C410.5348,-243.2319 245.3975,-223.6259 192,-260.2 155.1415,-285.4458 196.1755,-352.2 151.5,-352.2"/>
<polygon fill="#000000" stroke="#000000" points="495.0015,-246.0433 502.9295,-249.7993 499.0008,-246.1217 503,-246.2 503,-246.2 503,-246.2 499.0008,-246.1217 503.0705,-242.6007 495.0015,-246.0433 495.0015,-246.0433"/>
<ellipse fill="none" stroke="#000000" cx="491.8021" cy="-245.9807" rx="3.2" ry="3.2"/>
</g>
<!-- temporary_absence_movement&#45;&gt;reference_data -->
<g id="edge2" class="edge">
<title>temporary_absence_movement:w&#45;&gt;reference_data:e</title>
<path fill="none" stroke="#000000" d="M488.3009,-223.9354C360.1688,-219.3229 299.201,-156.9281 192,-236.2 148.0931,-268.6678 206.1075,-352.2 151.5,-352.2"/>
<polygon fill="#000000" stroke="#000000" points="495.0013,-224.056 502.9352,-227.7994 499.0006,-224.128 503,-224.2 503,-224.2 503,-224.2 499.0006,-224.128 503.0648,-220.6006 495.0013,-224.056 495.0013,-224.056"/>
<ellipse fill="none" stroke="#000000" cx="491.8018" cy="-223.9983" rx="3.2" ry="3.2"/>
</g>
<!-- temporary_absence_occurrence -->
<g id="node3" class="node">
<title>temporary_absence_occurrence</title>
<g id="a_node3"><a xlink:href="../../tables/temporary_absence_occurrence.html" xlink:title="temporary_absence_occurrence" target="_top">
<polygon fill="#ffffff" stroke="transparent" points="200,-270.7 200,-595.7 452,-595.7 452,-270.7 200,-270.7"/>
<polygon fill="#f5f5f5" stroke="transparent" points="200,-572.2 200,-595.2 452,-595.2 452,-572.2 200,-572.2"/>
<polygon fill="none" stroke="#000000" points="200,-572.2 200,-595.2 452,-595.2 452,-572.2 200,-572.2"/>
<text text-anchor="start" x="205" y="-580.8" font-family="Helvetica,sans-Serif" font-weight="bold" font-size="11.00" fill="#000000">temporary_absence_occurrence</text>
<text text-anchor="start" x="417.5219" y="-580.3" font-family="Helvetica,sans-Serif" font-size="11.00" fill="#000000">[table]</text>
<polygon fill="none" stroke="#000000" points="200,-550.2 200,-572.2 452,-572.2 452,-550.2 200,-550.2"/>
<image xlink:href="../../images/primaryKeys.png" width="11px" height="12px" preserveAspectRatio="xMinYMin meet" x="205" y="-567.2"/>
<text text-anchor="start" x="229" y="-557.3" font-family="Helvetica,sans-Serif" font-size="11.00" fill="#000000">id</text>
<polygon fill="#ffffff" stroke="transparent" points="200,-528.2 200,-550.2 452,-550.2 452,-528.2 200,-528.2"/>
<polygon fill="none" stroke="#000000" points="200,-528.2 200,-550.2 452,-550.2 452,-528.2 200,-528.2"/>
<text text-anchor="start" x="229" y="-535.3" font-family="Helvetica,sans-Serif" font-size="11.00" fill="#000000">person_identifier</text>
<polygon fill="#ffffff" stroke="transparent" points="200,-506.2 200,-528.2 452,-528.2 452,-506.2 200,-506.2"/>
<polygon fill="none" stroke="#000000" points="200,-506.2 200,-528.2 452,-528.2 452,-506.2 200,-506.2"/>
<image xlink:href="../../images/foreignKeys.png" width="11px" height="12px" preserveAspectRatio="xMinYMin meet" x="205" y="-523.2"/>
<text text-anchor="start" x="229" y="-513.3" font-family="Helvetica,sans-Serif" font-size="11.00" fill="#000000">authorisation_id</text>
<polygon fill="#ffffff" stroke="transparent" points="200,-484.2 200,-506.2 452,-506.2 452,-484.2 200,-484.2"/>
<polygon fill="none" stroke="#000000" points="200,-484.2 200,-506.2 452,-506.2 452,-484.2 200,-484.2"/>
<text text-anchor="start" x="229" y="-491.3" font-family="Helvetica,sans-Serif" font-size="11.00" fill="#000000">release_at</text>
<polygon fill="#ffffff" stroke="transparent" points="200,-462.2 200,-484.2 452,-484.2 452,-462.2 200,-462.2"/>
<polygon fill="none" stroke="#000000" points="200,-462.2 200,-484.2 452,-484.2 452,-462.2 200,-462.2"/>
<text text-anchor="start" x="229" y="-469.3" font-family="Helvetica,sans-Serif" font-size="11.00" fill="#000000">return_by</text>
<polygon fill="none" stroke="#000000" points="200,-440.2 200,-462.2 452,-462.2 452,-440.2 200,-440.2"/>
<image xlink:href="../../images/foreignKeys.png" width="11px" height="12px" preserveAspectRatio="xMinYMin meet" x="205" y="-457.2"/>
<text text-anchor="start" x="229" y="-447.3" font-family="Helvetica,sans-Serif" font-size="11.00" fill="#000000">accompanied_by_id</text>
<polygon fill="none" stroke="#000000" points="200,-418.2 200,-440.2 452,-440.2 452,-418.2 200,-418.2"/>
<image xlink:href="../../images/foreignKeys.png" width="11px" height="12px" preserveAspectRatio="xMinYMin meet" x="205" y="-435.2"/>
<text text-anchor="start" x="229" y="-425.3" font-family="Helvetica,sans-Serif" font-size="11.00" fill="#000000">transport_id</text>
<polygon fill="#ffffff" stroke="transparent" points="200,-396.2 200,-418.2 452,-418.2 452,-396.2 200,-396.2"/>
<polygon fill="none" stroke="#000000" points="200,-396.2 200,-418.2 452,-418.2 452,-396.2 200,-396.2"/>
<text text-anchor="start" x="229" y="-403.3" font-family="Helvetica,sans-Serif" font-size="11.00" fill="#000000">legacy_id</text>
<polygon fill="none" stroke="#000000" points="200,-374.2 200,-396.2 452,-396.2 452,-374.2 200,-374.2"/>
<image xlink:href="../../images/foreignKeys.png" width="11px" height="12px" preserveAspectRatio="xMinYMin meet" x="205" y="-391.2"/>
<text text-anchor="start" x="229" y="-381.3" font-family="Helvetica,sans-Serif" font-size="11.00" fill="#000000">absence_type_id</text>
<polygon fill="none" stroke="#000000" points="200,-352.2 200,-374.2 452,-374.2 452,-352.2 200,-352.2"/>
<image xlink:href="../../images/foreignKeys.png" width="11px" height="12px" preserveAspectRatio="xMinYMin meet" x="205" y="-369.2"/>
<text text-anchor="start" x="229" y="-359.3" font-family="Helvetica,sans-Serif" font-size="11.00" fill="#000000">absence_sub_type_id</text>
<polygon fill="none" stroke="#000000" points="200,-330.2 200,-352.2 452,-352.2 452,-330.2 200,-330.2"/>
<image xlink:href="../../images/foreignKeys.png" width="11px" height="12px" preserveAspectRatio="xMinYMin meet" x="205" y="-347.2"/>
<text text-anchor="start" x="229" y="-337.3" font-family="Helvetica,sans-Serif" font-size="11.00" fill="#000000">absence_reason_category_id</text>
<polygon fill="none" stroke="#000000" points="200,-308.2 200,-330.2 452,-330.2 452,-308.2 200,-308.2"/>
<image xlink:href="../../images/foreignKeys.png" width="11px" height="12px" preserveAspectRatio="xMinYMin meet" x="205" y="-325.2"/>
<text text-anchor="start" x="229" y="-315.3" font-family="Helvetica,sans-Serif" font-size="11.00" fill="#000000">absence_reason_id</text>
<polygon fill="none" stroke="#000000" points="200,-289.2 200,-308.2 452,-308.2 452,-289.2 200,-289.2"/>
<text text-anchor="start" x="203" y="-295.3" font-family="Helvetica,sans-Serif" font-size="11.00" fill="#000000">...</text>
<polygon fill="#ffffff" stroke="transparent" points="200,-270.2 200,-289.2 320,-289.2 320,-270.2 200,-270.2"/>
<polygon fill="none" stroke="#000000" points="200,-270.2 200,-289.2 320,-289.2 320,-270.2 200,-270.2"/>
<text text-anchor="start" x="203" y="-276.3" font-family="Helvetica,sans-Serif" font-size="11.00" fill="#000000">&lt; 7</text>
<polygon fill="#ffffff" stroke="transparent" points="320,-270.2 320,-289.2 381,-289.2 381,-270.2 320,-270.2"/>
<polygon fill="none" stroke="#000000" points="320,-270.2 320,-289.2 381,-289.2 381,-270.2 320,-270.2"/>
<text text-anchor="start" x="371.8862" y="-276.3" font-family="Helvetica,sans-Serif" font-size="11.00" fill="#000000"> &#160;</text>
<polygon fill="#ffffff" stroke="transparent" points="381,-270.2 381,-289.2 452,-289.2 452,-270.2 381,-270.2"/>
<polygon fill="none" stroke="#000000" points="381,-270.2 381,-289.2 452,-289.2 452,-270.2 381,-270.2"/>
<text text-anchor="start" x="433.4053" y="-276.3" font-family="Helvetica,sans-Serif" font-size="11.00" fill="#000000">1 &gt;</text>
</a>
</g>
</g>
<!-- temporary_absence_movement&#45;&gt;temporary_absence_occurrence -->
<g id="edge3" class="edge">
<title>temporary_absence_movement:w&#45;&gt;temporary_absence_occurrence:e</title>
<path fill="none" stroke="#000000" d="M488.4447,-313.923C406.4323,-335.9227 559.4483,-561.2 452,-561.2"/>
<polygon fill="#000000" stroke="#000000" points="495.0555,-313.1405 503.4232,-315.775 499.0277,-312.6702 503,-312.2 503,-312.2 503,-312.2 499.0277,-312.6702 502.5768,-308.625 495.0555,-313.1405 495.0555,-313.1405"/>
<ellipse fill="none" stroke="#000000" cx="491.8777" cy="-313.5167" rx="3.2" ry="3.2"/>
</g>
<!-- temporary_absence_occurrence&#45;&gt;reference_data -->
<g id="edge4" class="edge">
<title>temporary_absence_occurrence:w&#45;&gt;reference_data:e</title>
<path fill="none" stroke="#000000" d="M185.4888,-343.1161C174.3593,-346.2676 167.7319,-352.2 151.5,-352.2"/>
<polygon fill="#000000" stroke="#000000" points="192.0688,-342.2473 200.4713,-344.769 196.0344,-341.7236 200,-341.2 200,-341.2 200,-341.2 196.0344,-341.7236 199.5287,-337.631 192.0688,-342.2473 192.0688,-342.2473"/>
<ellipse fill="none" stroke="#000000" cx="188.8964" cy="-342.6662" rx="3.2" ry="3.2"/>
</g>
<!-- temporary_absence_occurrence&#45;&gt;reference_data -->
<g id="edge5" class="edge">
<title>temporary_absence_occurrence:w&#45;&gt;reference_data:e</title>
<path fill="none" stroke="#000000" d="M186.164,-323.5142C174.0538,-332.4592 171.6651,-352.2 151.5,-352.2"/>
<polygon fill="#000000" stroke="#000000" points="192.3627,-321.5814 201.0716,-322.6368 196.1813,-320.3907 200,-319.2 200,-319.2 200,-319.2 196.1813,-320.3907 198.9284,-315.7632 192.3627,-321.5814 192.3627,-321.5814"/>
<ellipse fill="none" stroke="#000000" cx="189.3077" cy="-322.534" rx="3.2" ry="3.2"/>
</g>
<!-- temporary_absence_occurrence&#45;&gt;reference_data -->
<g id="edge6" class="edge">
<title>temporary_absence_occurrence:w&#45;&gt;reference_data:e</title>
<path fill="none" stroke="#000000" d="M185.4888,-361.2839C174.3593,-358.1324 167.7319,-352.2 151.5,-352.2"/>
<polygon fill="#000000" stroke="#000000" points="192.0688,-362.1527 199.5287,-366.769 196.0344,-362.6764 200,-363.2 200,-363.2 200,-363.2 196.0344,-362.6764 200.4713,-359.631 192.0688,-362.1527 192.0688,-362.1527"/>
<ellipse fill="none" stroke="#000000" cx="188.8964" cy="-361.7338" rx="3.2" ry="3.2"/>
</g>
<!-- temporary_absence_occurrence&#45;&gt;reference_data -->
<g id="edge7" class="edge">
<title>temporary_absence_occurrence:w&#45;&gt;reference_data:e</title>
<path fill="none" stroke="#000000" d="M186.164,-380.8858C174.0538,-371.9408 171.6651,-352.2 151.5,-352.2"/>
<polygon fill="#000000" stroke="#000000" points="192.3627,-382.8186 198.9284,-388.6368 196.1813,-384.0093 200,-385.2 200,-385.2 200,-385.2 196.1813,-384.0093 201.0716,-381.7632 192.3627,-382.8186 192.3627,-382.8186"/>
<ellipse fill="none" stroke="#000000" cx="189.3077" cy="-381.866" rx="3.2" ry="3.2"/>
</g>
<!-- temporary_absence_occurrence&#45;&gt;reference_data -->
<g id="edge8" class="edge">
<title>temporary_absence_occurrence:w&#45;&gt;reference_data:e</title>
<path fill="none" stroke="#000000" d="M185.8583,-446.9461C161.8379,-427.9969 194.3718,-352.2 151.5,-352.2"/>
<polygon fill="#000000" stroke="#000000" points="192.3391,-448.8955 198.963,-454.6474 196.1695,-450.0478 200,-451.2 200,-451.2 200,-451.2 196.1695,-450.0478 201.037,-447.7526 192.3391,-448.8955 192.3391,-448.8955"/>
<ellipse fill="none" stroke="#000000" cx="189.2747" cy="-447.9737" rx="3.2" ry="3.2"/>
</g>
<!-- temporary_absence_occurrence&#45;&gt;reference_data -->
<g id="edge9" class="edge">
<title>temporary_absence_occurrence:w&#45;&gt;reference_data:e</title>
<path fill="none" stroke="#000000" d="M186.3274,-424.6139C167.5659,-408.0372 185.9415,-352.2 151.5,-352.2"/>
<polygon fill="#000000" stroke="#000000" points="192.4153,-426.6559 198.8551,-432.6131 196.2076,-427.9279 200,-429.2 200,-429.2 200,-429.2 196.2076,-427.9279 201.1449,-425.7869 192.4153,-426.6559 192.4153,-426.6559"/>
<ellipse fill="none" stroke="#000000" cx="189.3814" cy="-425.6382" rx="3.2" ry="3.2"/>
</g>
</g>
</svg>
