<?xml version="1.0" encoding="UTF-8" standalone="no"?>
<!DOCTYPE svg PUBLIC "-//W3C//DTD SVG 1.1//EN"
 "http://www.w3.org/Graphics/SVG/1.1/DTD/svg11.dtd">
<!-- Generated by graphviz version 2.40.1 (20161225.0304)
 -->
<!-- Title: oneDegreeRelationshipsDiagram Pages: 1 -->
<svg width="870pt" height="608pt"
 viewBox="0.00 0.00 870.00 607.70" xmlns="http://www.w3.org/2000/svg" xmlns:xlink="http://www.w3.org/1999/xlink">
<g id="graph0" class="graph" transform="scale(1 1) rotate(0) translate(4 603.7)">
<title>oneDegreeRelationshipsDiagram</title>
<polygon fill="#ffffff" stroke="transparent" points="-4,4 -4,-603.7 866,-603.7 866,4 -4,4"/>
<text text-anchor="middle" x="72.4936" y="-7.3" font-family="Helvetica,sans-Serif" font-size="11.00" fill="#000000">Generated by SchemaSpy</text>
<!-- temporary_absence_authorisation -->
<g id="node1" class="node">
<title>temporary_absence_authorisation</title>
<g id="a_node1"><a xlink:href="../../tables/temporary_absence_authorisation.html" xlink:title="temporary_absence_authorisation" target="_top">
<polygon fill="#ffffff" stroke="transparent" points="200,-314.7 200,-595.7 468,-595.7 468,-314.7 200,-314.7"/>
<polygon fill="#f5f5f5" stroke="transparent" points="200,-572.2 200,-595.2 468,-595.2 468,-572.2 200,-572.2"/>
<polygon fill="none" stroke="#000000" points="200,-572.2 200,-595.2 468,-595.2 468,-572.2 200,-572.2"/>
<text text-anchor="start" x="205" y="-580.8" font-family="Helvetica,sans-Serif" font-weight="bold" font-size="11.00" fill="#000000">temporary_absence_authorisation</text>
<text text-anchor="start" x="433.5219" y="-580.3" font-family="Helvetica,sans-Serif" font-size="11.00" fill="#000000">[table]</text>
<polygon fill="none" stroke="#000000" points="200,-550.2 200,-572.2 468,-572.2 468,-550.2 200,-550.2"/>
<image xlink:href="../../images/primaryKeys.png" width="11px" height="12px" preserveAspectRatio="xMinYMin meet" x="205" y="-567.2"/>
<text text-anchor="start" x="229" y="-557.3" font-family="Helvetica,sans-Serif" font-size="11.00" fill="#000000">id</text>
<polygon fill="#ffffff" stroke="transparent" points="200,-528.2 200,-550.2 468,-550.2 468,-528.2 200,-528.2"/>
<polygon fill="none" stroke="#000000" points="200,-528.2 200,-550.2 468,-550.2 468,-528.2 200,-528.2"/>
<text text-anchor="start" x="229" y="-535.3" font-family="Helvetica,sans-Serif" font-size="11.00" fill="#000000">person_identifier</text>
<polygon fill="#ffffff" stroke="transparent" points="200,-506.2 200,-528.2 468,-528.2 468,-506.2 200,-506.2"/>
<polygon fill="none" stroke="#000000" points="200,-506.2 200,-528.2 468,-528.2 468,-506.2 200,-506.2"/>
<text text-anchor="start" x="229" y="-513.3" font-family="Helvetica,sans-Serif" font-size="11.00" fill="#000000">prison_code</text>
<polygon fill="none" stroke="#000000" points="200,-484.2 200,-506.2 468,-506.2 468,-484.2 200,-484.2"/>
<image xlink:href="../../images/foreignKeys.png" width="11px" height="12px" preserveAspectRatio="xMinYMin meet" x="205" y="-501.2"/>
<text text-anchor="start" x="229" y="-491.3" font-family="Helvetica,sans-Serif" font-size="11.00" fill="#000000">absence_type_id</text>
<polygon fill="none" stroke="#000000" points="200,-462.2 200,-484.2 468,-484.2 468,-462.2 200,-462.2"/>
<image xlink:href="../../images/foreignKeys.png" width="11px" height="12px" preserveAspectRatio="xMinYMin meet" x="205" y="-479.2"/>
<text text-anchor="start" x="229" y="-469.3" font-family="Helvetica,sans-Serif" font-size="11.00" fill="#000000">absence_sub_type_id</text>
<polygon fill="none" stroke="#000000" points="200,-440.2 200,-462.2 468,-462.2 468,-440.2 200,-440.2"/>
<image xlink:href="../../images/foreignKeys.png" width="11px" height="12px" preserveAspectRatio="xMinYMin meet" x="205" y="-457.2"/>
<text text-anchor="start" x="229" y="-447.3" font-family="Helvetica,sans-Serif" font-size="11.00" fill="#000000">absence_reason_id</text>
<polygon fill="none" stroke="#000000" points="200,-418.2 200,-440.2 468,-440.2 468,-418.2 200,-418.2"/>
<image xlink:href="../../images/foreignKeys.png" width="11px" height="12px" preserveAspectRatio="xMinYMin meet" x="205" y="-435.2"/>
<text text-anchor="start" x="229" y="-425.3" font-family="Helvetica,sans-Serif" font-size="11.00" fill="#000000">status_id</text>
<polygon fill="#ffffff" stroke="transparent" points="200,-396.2 200,-418.2 468,-418.2 468,-396.2 200,-396.2"/>
<polygon fill="none" stroke="#000000" points="200,-396.2 200,-418.2 468,-418.2 468,-396.2 200,-396.2"/>
<text text-anchor="start" x="229" y="-403.3" font-family="Helvetica,sans-Serif" font-size="11.00" fill="#000000">legacy_id</text>
<polygon fill="#ffffff" stroke="transparent" points="200,-374.2 200,-396.2 468,-396.2 468,-374.2 200,-374.2"/>
<polygon fill="none" stroke="#000000" points="200,-374.2 200,-396.2 468,-396.2 468,-374.2 200,-374.2"/>
<text text-anchor="start" x="229" y="-381.3" font-family="Helvetica,sans-Serif" font-size="11.00" fill="#000000">from_date</text>
<polygon fill="#ffffff" stroke="transparent" points="200,-352.2 200,-374.2 468,-374.2 468,-352.2 200,-352.2"/>
<polygon fill="none" stroke="#000000" points="200,-352.2 200,-374.2 468,-374.2 468,-352.2 200,-352.2"/>
<text text-anchor="start" x="229" y="-359.3" font-family="Helvetica,sans-Serif" font-size="11.00" fill="#000000">to_date</text>
<polygon fill="none" stroke="#000000" points="200,-333.2 200,-352.2 468,-352.2 468,-333.2 200,-333.2"/>
<text text-anchor="start" x="203" y="-339.3" font-family="Helvetica,sans-Serif" font-size="11.00" fill="#000000">...</text>
<polygon fill="#ffffff" stroke="transparent" points="200,-314.2 200,-333.2 328,-333.2 328,-314.2 200,-314.2"/>
<polygon fill="none" stroke="#000000" points="200,-314.2 200,-333.2 328,-333.2 328,-314.2 200,-314.2"/>
<text text-anchor="start" x="203" y="-320.3" font-family="Helvetica,sans-Serif" font-size="11.00" fill="#000000">&lt; 4</text>
<polygon fill="#ffffff" stroke="transparent" points="328,-314.2 328,-333.2 393,-333.2 393,-314.2 328,-314.2"/>
<polygon fill="none" stroke="#000000" points="328,-314.2 328,-333.2 393,-333.2 393,-314.2 328,-314.2"/>
<text text-anchor="start" x="383.8862" y="-320.3" font-family="Helvetica,sans-Serif" font-size="11.00" fill="#000000"> &#160;</text>
<polygon fill="#ffffff" stroke="transparent" points="393,-314.2 393,-333.2 468,-333.2 468,-314.2 393,-314.2"/>
<polygon fill="none" stroke="#000000" points="393,-314.2 393,-333.2 468,-333.2 468,-314.2 393,-314.2"/>
<text text-anchor="start" x="449.4053" y="-320.3" font-family="Helvetica,sans-Serif" font-size="11.00" fill="#000000">1 &gt;</text>
</a>
</g>
</g>
<!-- reference_data -->
<g id="node2" class="node">
<title>reference_data</title>
<g id="a_node2"><a xlink:href="../../tables/reference_data.html" xlink:title="reference_data" target="_top">
<polygon fill="#ffffff" stroke="transparent" points="8,-325.7 8,-474.7 151,-474.7 151,-325.7 8,-325.7"/>
<polygon fill="#f5f5f5" stroke="transparent" points="8.5,-451.2 8.5,-474.2 151.5,-474.2 151.5,-451.2 8.5,-451.2"/>
<polygon fill="none" stroke="#000000" points="8.5,-451.2 8.5,-474.2 151.5,-474.2 151.5,-451.2 8.5,-451.2"/>
<text text-anchor="start" x="13.5" y="-459.8" font-family="Helvetica,sans-Serif" font-weight="bold" font-size="11.00" fill="#000000">reference_data</text>
<text text-anchor="start" x="116.5437" y="-459.3" font-family="Helvetica,sans-Serif" font-size="11.00" fill="#000000">[table]</text>
<polygon fill="none" stroke="#000000" points="8.5,-429.2 8.5,-451.2 151.5,-451.2 151.5,-429.2 8.5,-429.2"/>
<image xlink:href="../../images/primaryKeys.png" width="11px" height="12px" preserveAspectRatio="xMinYMin meet" x="13.5" y="-446.2"/>
<text text-anchor="start" x="28.5" y="-436.3" font-family="Helvetica,sans-Serif" font-size="11.00" fill="#000000">id</text>
<polygon fill="#ffffff" stroke="transparent" points="8.5,-407.2 8.5,-429.2 151.5,-429.2 151.5,-407.2 8.5,-407.2"/>
<polygon fill="none" stroke="#000000" points="8.5,-407.2 8.5,-429.2 151.5,-429.2 151.5,-407.2 8.5,-407.2"/>
<image xlink:href="../../images/foreignKeys.png" width="11px" height="12px" preserveAspectRatio="xMinYMin meet" x="13.5" y="-424.2"/>
<text text-anchor="start" x="28.5" y="-414.3" font-family="Helvetica,sans-Serif" font-size="11.00" fill="#000000">domain</text>
<polygon fill="#ffffff" stroke="transparent" points="8.5,-385.2 8.5,-407.2 151.5,-407.2 151.5,-385.2 8.5,-385.2"/>
<polygon fill="none" stroke="#000000" points="8.5,-385.2 8.5,-407.2 151.5,-407.2 151.5,-385.2 8.5,-385.2"/>
<text text-anchor="start" x="28.5" y="-392.3" font-family="Helvetica,sans-Serif" font-size="11.00" fill="#000000">code</text>
<polygon fill="#ffffff" stroke="transparent" points="8.5,-363.2 8.5,-385.2 151.5,-385.2 151.5,-363.2 8.5,-363.2"/>
<polygon fill="none" stroke="#000000" points="8.5,-363.2 8.5,-385.2 151.5,-385.2 151.5,-363.2 8.5,-363.2"/>
<text text-anchor="start" x="28.5" y="-370.3" font-family="Helvetica,sans-Serif" font-size="11.00" fill="#000000">sequence_number</text>
<polygon fill="none" stroke="#000000" points="8.5,-344.2 8.5,-363.2 151.5,-363.2 151.5,-344.2 8.5,-344.2"/>
<text text-anchor="start" x="11.5" y="-350.3" font-family="Helvetica,sans-Serif" font-size="11.00" fill="#000000">...</text>
<polygon fill="#ffffff" stroke="transparent" points="8.5,-325.2 8.5,-344.2 51.5,-344.2 51.5,-325.2 8.5,-325.2"/>
<polygon fill="none" stroke="#000000" points="8.5,-325.2 8.5,-344.2 51.5,-344.2 51.5,-325.2 8.5,-325.2"/>
<text text-anchor="start" x="11.5" y="-331.3" font-family="Helvetica,sans-Serif" font-size="11.00" fill="#000000">&lt; 1</text>
<polygon fill="#ffffff" stroke="transparent" points="51.5,-325.2 51.5,-344.2 112.5,-344.2 112.5,-325.2 51.5,-325.2"/>
<polygon fill="none" stroke="#000000" points="51.5,-325.2 51.5,-344.2 112.5,-344.2 112.5,-325.2 51.5,-325.2"/>
<text text-anchor="start" x="64.8807" y="-331.3" font-family="Helvetica,sans-Serif" font-size="11.00" fill="#000000">158 rows</text>
<polygon fill="#ffffff" stroke="transparent" points="112.5,-325.2 112.5,-344.2 151.5,-344.2 151.5,-325.2 112.5,-325.2"/>
<polygon fill="none" stroke="#000000" points="112.5,-325.2 112.5,-344.2 151.5,-344.2 151.5,-325.2 112.5,-325.2"/>
<text text-anchor="start" x="126.7904" y="-331.3" font-family="Helvetica,sans-Serif" font-size="11.00" fill="#000000">11 &gt;</text>
</a>
</g>
</g>
<!-- temporary_absence_authorisation&#45;&gt;reference_data -->
<g id="edge1" class="edge">
<title>temporary_absence_authorisation:w&#45;&gt;reference_data:e</title>
<path fill="none" stroke="#000000" d="M185.4888,-449.2839C174.3593,-446.1324 167.7319,-440.2 151.5,-440.2"/>
<polygon fill="#000000" stroke="#000000" points="192.0688,-450.1527 199.5287,-454.769 196.0344,-450.6764 200,-451.2 200,-451.2 200,-451.2 196.0344,-450.6764 200.4713,-447.631 192.0688,-450.1527 192.0688,-450.1527"/>
<ellipse fill="none" stroke="#000000" cx="188.8964" cy="-449.7338" rx="3.2" ry="3.2"/>
</g>
<!-- temporary_absence_authorisation&#45;&gt;reference_data -->
<g id="edge2" class="edge">
<title>temporary_absence_authorisation:w&#45;&gt;reference_data:e</title>
<path fill="none" stroke="#000000" d="M186.164,-468.8858C174.0538,-459.9408 171.6651,-440.2 151.5,-440.2"/>
<polygon fill="#000000" stroke="#000000" points="192.3627,-470.8186 198.9284,-476.6368 196.1813,-472.0093 200,-473.2 200,-473.2 200,-473.2 196.1813,-472.0093 201.0716,-469.7632 192.3627,-470.8186 192.3627,-470.8186"/>
<ellipse fill="none" stroke="#000000" cx="189.3077" cy="-469.866" rx="3.2" ry="3.2"/>
</g>
<!-- temporary_absence_authorisation&#45;&gt;reference_data -->
<g id="edge3" class="edge">
<title>temporary_absence_authorisation:w&#45;&gt;reference_data:e</title>
<path fill="none" stroke="#000000" d="M186.2147,-490.1243C171.9325,-476.5086 177.9802,-440.2 151.5,-440.2"/>
<polygon fill="#000000" stroke="#000000" points="192.4927,-492.4358 198.7561,-498.5783 196.2464,-493.8179 200,-495.2 200,-495.2 200,-495.2 196.2464,-493.8179 201.2439,-491.8217 192.4927,-492.4358 192.4927,-492.4358"/>
<ellipse fill="none" stroke="#000000" cx="189.4898" cy="-491.3301" rx="3.2" ry="3.2"/>
</g>
<!-- temporary_absence_authorisation&#45;&gt;reference_data -->
<g id="edge4" class="edge">
<title>temporary_absence_authorisation:w&#45;&gt;reference_data:e</title>
<path fill="none" stroke="#000000" d="M185.4888,-431.1161C174.3593,-434.2676 167.7319,-440.2 151.5,-440.2"/>
<polygon fill="#000000" stroke="#000000" points="192.0688,-430.2473 200.4713,-432.769 196.0344,-429.7236 200,-429.2 200,-429.2 200,-429.2 196.0344,-429.7236 199.5287,-425.631 192.0688,-430.2473 192.0688,-430.2473"/>
<ellipse fill="none" stroke="#000000" cx="188.8964" cy="-430.6662" rx="3.2" ry="3.2"/>
</g>
<!-- temporary_absence_occurrence -->
<g id="node3" class="node">
<title>temporary_absence_occurrence</title>
<g id="a_node3"><a xlink:href="../../tables/temporary_absence_occurrence.html" xlink:title="temporary_absence_occurrence" target="_top">
<polygon fill="#ffffff" stroke="transparent" points="517,-38.2 517,-458.2 854,-458.2 854,-38.2 517,-38.2"/>
<polygon fill="#f5f5f5" stroke="transparent" points="519.5,-433.2 519.5,-456.2 852.5,-456.2 852.5,-433.2 519.5,-433.2"/>
<polygon fill="none" stroke="#000000" points="519.5,-433.2 519.5,-456.2 852.5,-456.2 852.5,-433.2 519.5,-433.2"/>
<text text-anchor="start" x="524.5" y="-441.8" font-family="Helvetica,sans-Serif" font-weight="bold" font-size="11.00" fill="#000000">temporary_absence_occurrence</text>
<text text-anchor="start" x="817.5437" y="-441.3" font-family="Helvetica,sans-Serif" font-size="11.00" fill="#000000">[table]</text>
<polygon fill="none" stroke="#000000" points="519.5,-411.2 519.5,-433.2 753.5,-433.2 753.5,-411.2 519.5,-411.2"/>
<image xlink:href="../../images/primaryKeys.png" width="11px" height="12px" preserveAspectRatio="xMinYMin meet" x="524.5" y="-428.2"/>
<text text-anchor="start" x="539.5" y="-418.3" font-family="Helvetica,sans-Serif" font-size="11.00" fill="#000000">id</text>
<polygon fill="none" stroke="#000000" points="753.5,-411.2 753.5,-433.2 852.5,-433.2 852.5,-411.2 753.5,-411.2"/>
<text text-anchor="start" x="756.5" y="-418.9" font-family="Helvetica,sans-Serif" font-size="11.00" fill="#000000">uuid[2147483647]</text>
<polygon fill="none" stroke="#000000" points="519.5,-389.2 519.5,-411.2 753.5,-411.2 753.5,-389.2 519.5,-389.2"/>
<text text-anchor="start" x="539.5" y="-396.3" font-family="Helvetica,sans-Serif" font-size="11.00" fill="#000000">version</text>
<polygon fill="none" stroke="#000000" points="753.5,-389.2 753.5,-411.2 852.5,-411.2 852.5,-389.2 753.5,-389.2"/>
<text text-anchor="start" x="756.5" y="-396.9" font-family="Helvetica,sans-Serif" font-size="11.00" fill="#000000">int4[10]</text>
<polygon fill="#ffffff" stroke="transparent" points="519.5,-367.2 519.5,-389.2 753.5,-389.2 753.5,-367.2 519.5,-367.2"/>
<polygon fill="none" stroke="#000000" points="519.5,-367.2 519.5,-389.2 753.5,-389.2 753.5,-367.2 519.5,-367.2"/>
<text text-anchor="start" x="539.5" y="-374.3" font-family="Helvetica,sans-Serif" font-size="11.00" fill="#000000">person_identifier</text>
<polygon fill="none" stroke="#000000" points="753.5,-367.2 753.5,-389.2 852.5,-389.2 852.5,-367.2 753.5,-367.2"/>
<text text-anchor="start" x="756.5" y="-374.9" font-family="Helvetica,sans-Serif" font-size="11.00" fill="#000000">varchar[10]</text>
<polygon fill="#ffffff" stroke="transparent" points="519.5,-345.2 519.5,-367.2 753.5,-367.2 753.5,-345.2 519.5,-345.2"/>
<polygon fill="none" stroke="#000000" points="519.5,-345.2 519.5,-367.2 753.5,-367.2 753.5,-345.2 519.5,-345.2"/>
<image xlink:href="../../images/foreignKeys.png" width="11px" height="12px" preserveAspectRatio="xMinYMin meet" x="524.5" y="-362.2"/>
<text text-anchor="start" x="539.5" y="-352.3" font-family="Helvetica,sans-Serif" font-size="11.00" fill="#000000">authorisation_id</text>
<polygon fill="none" stroke="#000000" points="753.5,-345.2 753.5,-367.2 852.5,-367.2 852.5,-345.2 753.5,-345.2"/>
<text text-anchor="start" x="756.5" y="-352.9" font-family="Helvetica,sans-Serif" font-size="11.00" fill="#000000">uuid[2147483647]</text>
<polygon fill="#ffffff" stroke="transparent" points="519.5,-323.2 519.5,-345.2 753.5,-345.2 753.5,-323.2 519.5,-323.2"/>
<polygon fill="none" stroke="#000000" points="519.5,-323.2 519.5,-345.2 753.5,-345.2 753.5,-323.2 519.5,-323.2"/>
<text text-anchor="start" x="539.5" y="-330.3" font-family="Helvetica,sans-Serif" font-size="11.00" fill="#000000">release_at</text>
<polygon fill="none" stroke="#000000" points="753.5,-323.2 753.5,-345.2 852.5,-345.2 852.5,-323.2 753.5,-323.2"/>
<text text-anchor="start" x="756.5" y="-330.9" font-family="Helvetica,sans-Serif" font-size="11.00" fill="#000000">timestamp[29,6]</text>
<polygon fill="#ffffff" stroke="transparent" points="519.5,-301.2 519.5,-323.2 753.5,-323.2 753.5,-301.2 519.5,-301.2"/>
<polygon fill="none" stroke="#000000" points="519.5,-301.2 519.5,-323.2 753.5,-323.2 753.5,-301.2 519.5,-301.2"/>
<text text-anchor="start" x="539.5" y="-308.3" font-family="Helvetica,sans-Serif" font-size="11.00" fill="#000000">return_by</text>
<polygon fill="none" stroke="#000000" points="753.5,-301.2 753.5,-323.2 852.5,-323.2 852.5,-301.2 753.5,-301.2"/>
<text text-anchor="start" x="756.5" y="-308.9" font-family="Helvetica,sans-Serif" font-size="11.00" fill="#000000">timestamp[29,6]</text>
<polygon fill="none" stroke="#000000" points="519.5,-279.2 519.5,-301.2 753.5,-301.2 753.5,-279.2 519.5,-279.2"/>
<image xlink:href="../../images/foreignKeys.png" width="11px" height="12px" preserveAspectRatio="xMinYMin meet" x="524.5" y="-296.2"/>
<text text-anchor="start" x="539.5" y="-286.3" font-family="Helvetica,sans-Serif" font-size="11.00" fill="#000000">accompanied_by_id</text>
<polygon fill="none" stroke="#000000" points="753.5,-279.2 753.5,-301.2 852.5,-301.2 852.5,-279.2 753.5,-279.2"/>
<text text-anchor="start" x="756.5" y="-286.9" font-family="Helvetica,sans-Serif" font-size="11.00" fill="#000000">int8[19]</text>
<polygon fill="none" stroke="#000000" points="519.5,-257.2 519.5,-279.2 753.5,-279.2 753.5,-257.2 519.5,-257.2"/>
<image xlink:href="../../images/foreignKeys.png" width="11px" height="12px" preserveAspectRatio="xMinYMin meet" x="524.5" y="-274.2"/>
<text text-anchor="start" x="539.5" y="-264.3" font-family="Helvetica,sans-Serif" font-size="11.00" fill="#000000">transport_id</text>
<polygon fill="none" stroke="#000000" points="753.5,-257.2 753.5,-279.2 852.5,-279.2 852.5,-257.2 753.5,-257.2"/>
<text text-anchor="start" x="756.5" y="-264.9" font-family="Helvetica,sans-Serif" font-size="11.00" fill="#000000">int8[19]</text>
<polygon fill="none" stroke="#000000" points="519.5,-235.2 519.5,-257.2 753.5,-257.2 753.5,-235.2 519.5,-235.2"/>
<text text-anchor="start" x="539.5" y="-242.3" font-family="Helvetica,sans-Serif" font-size="11.00" fill="#000000">contact_information</text>
<polygon fill="none" stroke="#000000" points="753.5,-235.2 753.5,-257.2 852.5,-257.2 852.5,-235.2 753.5,-235.2"/>
<text text-anchor="start" x="756.5" y="-242.9" font-family="Helvetica,sans-Serif" font-size="11.00" fill="#000000">text[2147483647]</text>
<polygon fill="none" stroke="#000000" points="519.5,-213.2 519.5,-235.2 753.5,-235.2 753.5,-213.2 519.5,-213.2"/>
<text text-anchor="start" x="539.5" y="-220.3" font-family="Helvetica,sans-Serif" font-size="11.00" fill="#000000">notes</text>
<polygon fill="none" stroke="#000000" points="753.5,-213.2 753.5,-235.2 852.5,-235.2 852.5,-213.2 753.5,-213.2"/>
<text text-anchor="start" x="756.5" y="-220.9" font-family="Helvetica,sans-Serif" font-size="11.00" fill="#000000">text[2147483647]</text>
<polygon fill="none" stroke="#000000" points="519.5,-191.2 519.5,-213.2 753.5,-213.2 753.5,-191.2 519.5,-191.2"/>
<text text-anchor="start" x="539.5" y="-198.3" font-family="Helvetica,sans-Serif" font-size="11.00" fill="#000000">added_at</text>
<polygon fill="none" stroke="#000000" points="753.5,-191.2 753.5,-213.2 852.5,-213.2 852.5,-191.2 753.5,-191.2"/>
<text text-anchor="start" x="756.5" y="-198.9" font-family="Helvetica,sans-Serif" font-size="11.00" fill="#000000">timestamp[29,6]</text>
<polygon fill="none" stroke="#000000" points="519.5,-169.2 519.5,-191.2 753.5,-191.2 753.5,-169.2 519.5,-169.2"/>
<text text-anchor="start" x="539.5" y="-176.3" font-family="Helvetica,sans-Serif" font-size="11.00" fill="#000000">added_by</text>
<polygon fill="none" stroke="#000000" points="753.5,-169.2 753.5,-191.2 852.5,-191.2 852.5,-169.2 753.5,-169.2"/>
<text text-anchor="start" x="756.5" y="-176.9" font-family="Helvetica,sans-Serif" font-size="11.00" fill="#000000">varchar[64]</text>
<polygon fill="none" stroke="#000000" points="519.5,-147.2 519.5,-169.2 753.5,-169.2 753.5,-147.2 519.5,-147.2"/>
<text text-anchor="start" x="539.5" y="-154.3" font-family="Helvetica,sans-Serif" font-size="11.00" fill="#000000">cancelled_at</text>
<polygon fill="none" stroke="#000000" points="753.5,-147.2 753.5,-169.2 852.5,-169.2 852.5,-147.2 753.5,-147.2"/>
<text text-anchor="start" x="756.5" y="-154.9" font-family="Helvetica,sans-Serif" font-size="11.00" fill="#000000">timestamp[29,6]</text>
<polygon fill="none" stroke="#000000" points="519.5,-125.2 519.5,-147.2 753.5,-147.2 753.5,-125.2 519.5,-125.2"/>
<text text-anchor="start" x="539.5" y="-132.3" font-family="Helvetica,sans-Serif" font-size="11.00" fill="#000000">cancelled_by</text>
<polygon fill="none" stroke="#000000" points="753.5,-125.2 753.5,-147.2 852.5,-147.2 852.5,-125.2 753.5,-125.2"/>
<text text-anchor="start" x="756.5" y="-132.9" font-family="Helvetica,sans-Serif" font-size="11.00" fill="#000000">varchar[64]</text>
<polygon fill="#ffffff" stroke="transparent" points="519.5,-103.2 519.5,-125.2 753.5,-125.2 753.5,-103.2 519.5,-103.2"/>
<polygon fill="none" stroke="#000000" points="519.5,-103.2 519.5,-125.2 753.5,-125.2 753.5,-103.2 519.5,-103.2"/>
<text text-anchor="start" x="539.5" y="-110.3" font-family="Helvetica,sans-Serif" font-size="11.00" fill="#000000">legacy_id</text>
<polygon fill="none" stroke="#000000" points="753.5,-103.2 753.5,-125.2 852.5,-125.2 852.5,-103.2 753.5,-103.2"/>
<text text-anchor="start" x="756.5" y="-110.9" font-family="Helvetica,sans-Serif" font-size="11.00" fill="#000000">int8[19]</text>
<polygon fill="none" stroke="#000000" points="519.5,-81.2 519.5,-103.2 753.5,-103.2 753.5,-81.2 519.5,-81.2"/>
<text text-anchor="start" x="539.5" y="-88.3" font-family="Helvetica,sans-Serif" font-size="11.00" fill="#000000">location</text>
<polygon fill="none" stroke="#000000" points="753.5,-81.2 753.5,-103.2 852.5,-103.2 852.5,-81.2 753.5,-81.2"/>
<text text-anchor="start" x="756.2258" y="-88.9" font-family="Helvetica,sans-Serif" font-size="11.00" fill="#000000">jsonb[2147483647]</text>
<polygon fill="none" stroke="#000000" points="519.5,-59.2 519.5,-81.2 753.5,-81.2 753.5,-59.2 519.5,-59.2"/>
<text text-anchor="start" x="539.5" y="-66.3" font-family="Helvetica,sans-Serif" font-size="11.00" fill="#000000">schedule_reference</text>
<polygon fill="none" stroke="#000000" points="753.5,-59.2 753.5,-81.2 852.5,-81.2 852.5,-59.2 753.5,-59.2"/>
<text text-anchor="start" x="756.2258" y="-66.9" font-family="Helvetica,sans-Serif" font-size="11.00" fill="#000000">jsonb[2147483647]</text>
<polygon fill="#ffffff" stroke="transparent" points="519.5,-40.2 519.5,-59.2 640.5,-59.2 640.5,-40.2 519.5,-40.2"/>
<polygon fill="none" stroke="#000000" points="519.5,-40.2 519.5,-59.2 640.5,-59.2 640.5,-40.2 519.5,-40.2"/>
<text text-anchor="start" x="522.5" y="-46.3" font-family="Helvetica,sans-Serif" font-size="11.00" fill="#000000">&lt; 3</text>
<polygon fill="#ffffff" stroke="transparent" points="640.5,-40.2 640.5,-59.2 753.5,-59.2 753.5,-40.2 640.5,-40.2"/>
<polygon fill="none" stroke="#000000" points="640.5,-40.2 640.5,-59.2 753.5,-59.2 753.5,-40.2 640.5,-40.2"/>
<text text-anchor="start" x="744.3862" y="-46.3" font-family="Helvetica,sans-Serif" font-size="11.00" fill="#000000"> &#160;</text>
<polygon fill="#ffffff" stroke="transparent" points="753.5,-40.2 753.5,-59.2 852.5,-59.2 852.5,-40.2 753.5,-40.2"/>
<polygon fill="none" stroke="#000000" points="753.5,-40.2 753.5,-59.2 852.5,-59.2 852.5,-40.2 753.5,-40.2"/>
<text text-anchor="start" x="833.9053" y="-46.3" font-family="Helvetica,sans-Serif" font-size="11.00" fill="#000000">0 &gt;</text>
<polygon fill="none" stroke="#000000" stroke-width="2" points="518,-39.2 518,-457.2 853,-457.2 853,-39.2 518,-39.2"/>
</a>
</g>
</g>
<!-- temporary_absence_occurrence&#45;&gt;temporary_absence_authorisation -->
<g id="edge6" class="edge">
<title>temporary_absence_occurrence:w&#45;&gt;temporary_absence_authorisation:e</title>
<path fill="none" stroke="#000000" d="M504.8671,-358.3635C441.2287,-380.2727 556.2543,-561.2 468,-561.2"/>
<polygon fill="#000000" stroke="#000000" points="511.586,-357.3702 520.0266,-359.7613 515.543,-356.7851 519.5,-356.2 519.5,-356.2 519.5,-356.2 515.543,-356.7851 518.9734,-352.6387 511.586,-357.3702 511.586,-357.3702"/>
<ellipse fill="none" stroke="#000000" cx="508.4204" cy="-357.8382" rx="3.2" ry="3.2"/>
</g>
<!-- temporary_absence_occurrence&#45;&gt;reference_data -->
<g id="edge5" class="edge">
<title>temporary_absence_occurrence:w&#45;&gt;reference_data:e</title>
<path fill="none" stroke="#000000" d="M504.9595,-289.8851C423.2883,-286.7498 245.9763,-262.1317 192,-304.2 142.2561,-342.9696 214.5677,-440.2 151.5,-440.2"/>
<polygon fill="#000000" stroke="#000000" points="511.5019,-290.0267 519.422,-293.7992 515.5009,-290.1134 519.5,-290.2 519.5,-290.2 519.5,-290.2 515.5009,-290.1134 519.578,-286.6008 511.5019,-290.0267 511.5019,-290.0267"/>
<ellipse fill="none" stroke="#000000" cx="508.3026" cy="-289.9574" rx="3.2" ry="3.2"/>
</g>
<!-- temporary_absence_occurrence&#45;&gt;reference_data -->
<g id="edge7" class="edge">
<title>temporary_absence_occurrence:w&#45;&gt;reference_data:e</title>
<path fill="none" stroke="#000000" d="M504.8362,-267.9188C369.1744,-262.7188 301.6481,-188.1547 192,-276.2 133.4587,-323.2075 226.5786,-440.2 151.5,-440.2"/>
<polygon fill="#000000" stroke="#000000" points="511.5015,-268.0466 519.431,-271.7993 515.5007,-268.1233 519.5,-268.2 519.5,-268.2 519.5,-268.2 515.5007,-268.1233 519.569,-264.6007 511.5015,-268.0466 511.5015,-268.0466"/>
<ellipse fill="none" stroke="#000000" cx="508.3021" cy="-267.9852" rx="3.2" ry="3.2"/>
</g>
</g>
</svg>
