<?xml version="1.0" encoding="UTF-8" standalone="no"?>
<!DOCTYPE svg PUBLIC "-//W3C//DTD SVG 1.1//EN"
 "http://www.w3.org/Graphics/SVG/1.1/DTD/svg11.dtd">
<!-- Generated by graphviz version 2.40.1 (20161225.0304)
 -->
<!-- Title: twoDegreesRelationshipsDiagram Pages: 1 -->
<svg width="1096pt" height="713pt"
 viewBox="0.00 0.00 1096.00 712.70" xmlns="http://www.w3.org/2000/svg" xmlns:xlink="http://www.w3.org/1999/xlink">
<g id="graph0" class="graph" transform="scale(1 1) rotate(0) translate(4 708.7)">
<title>twoDegreesRelationshipsDiagram</title>
<polygon fill="#ffffff" stroke="transparent" points="-4,4 -4,-708.7 1092,-708.7 1092,4 -4,4"/>
<text text-anchor="middle" x="72.4936" y="-7.3" font-family="Helvetica,sans-Serif" font-size="11.00" fill="#000000">Generated by SchemaSpy</text>
<!-- reference_data -->
<g id="node1" class="node">
<title>reference_data</title>
<g id="a_node1"><a xlink:href="../../tables/reference_data.html" xlink:title="reference_data" target="_top">
<polygon fill="#ffffff" stroke="transparent" points="253,-348.7 253,-497.7 396,-497.7 396,-348.7 253,-348.7"/>
<polygon fill="#f5f5f5" stroke="transparent" points="253.5,-474.2 253.5,-497.2 396.5,-497.2 396.5,-474.2 253.5,-474.2"/>
<polygon fill="none" stroke="#000000" points="253.5,-474.2 253.5,-497.2 396.5,-497.2 396.5,-474.2 253.5,-474.2"/>
<text text-anchor="start" x="258.5" y="-482.8" font-family="Helvetica,sans-Serif" font-weight="bold" font-size="11.00" fill="#000000">reference_data</text>
<text text-anchor="start" x="361.5437" y="-482.3" font-family="Helvetica,sans-Serif" font-size="11.00" fill="#000000">[table]</text>
<polygon fill="none" stroke="#000000" points="253.5,-452.2 253.5,-474.2 396.5,-474.2 396.5,-452.2 253.5,-452.2"/>
<image xlink:href="../../images/primaryKeys.png" width="11px" height="12px" preserveAspectRatio="xMinYMin meet" x="258.5" y="-469.2"/>
<text text-anchor="start" x="273.5" y="-459.3" font-family="Helvetica,sans-Serif" font-size="11.00" fill="#000000">id</text>
<polygon fill="#ffffff" stroke="transparent" points="253.5,-430.2 253.5,-452.2 396.5,-452.2 396.5,-430.2 253.5,-430.2"/>
<polygon fill="none" stroke="#000000" points="253.5,-430.2 253.5,-452.2 396.5,-452.2 396.5,-430.2 253.5,-430.2"/>
<image xlink:href="../../images/foreignKeys.png" width="11px" height="12px" preserveAspectRatio="xMinYMin meet" x="258.5" y="-447.2"/>
<text text-anchor="start" x="273.5" y="-437.3" font-family="Helvetica,sans-Serif" font-size="11.00" fill="#000000">domain</text>
<polygon fill="#ffffff" stroke="transparent" points="253.5,-408.2 253.5,-430.2 396.5,-430.2 396.5,-408.2 253.5,-408.2"/>
<polygon fill="none" stroke="#000000" points="253.5,-408.2 253.5,-430.2 396.5,-430.2 396.5,-408.2 253.5,-408.2"/>
<text text-anchor="start" x="273.5" y="-415.3" font-family="Helvetica,sans-Serif" font-size="11.00" fill="#000000">code</text>
<polygon fill="#ffffff" stroke="transparent" points="253.5,-386.2 253.5,-408.2 396.5,-408.2 396.5,-386.2 253.5,-386.2"/>
<polygon fill="none" stroke="#000000" points="253.5,-386.2 253.5,-408.2 396.5,-408.2 396.5,-386.2 253.5,-386.2"/>
<text text-anchor="start" x="273.5" y="-393.3" font-family="Helvetica,sans-Serif" font-size="11.00" fill="#000000">sequence_number</text>
<polygon fill="none" stroke="#000000" points="253.5,-367.2 253.5,-386.2 396.5,-386.2 396.5,-367.2 253.5,-367.2"/>
<text text-anchor="start" x="256.5" y="-373.3" font-family="Helvetica,sans-Serif" font-size="11.00" fill="#000000">...</text>
<polygon fill="#ffffff" stroke="transparent" points="253.5,-348.2 253.5,-367.2 315.5,-367.2 315.5,-348.2 253.5,-348.2"/>
<polygon fill="none" stroke="#000000" points="253.5,-348.2 253.5,-367.2 315.5,-367.2 315.5,-348.2 253.5,-348.2"/>
<text text-anchor="start" x="256.5" y="-354.3" font-family="Helvetica,sans-Serif" font-size="11.00" fill="#000000">&lt; 1</text>
<polygon fill="#ffffff" stroke="transparent" points="315.5,-348.2 315.5,-367.2 348.5,-367.2 348.5,-348.2 315.5,-348.2"/>
<polygon fill="none" stroke="#000000" points="315.5,-348.2 315.5,-367.2 348.5,-367.2 348.5,-348.2 315.5,-348.2"/>
<text text-anchor="start" x="339.3862" y="-354.3" font-family="Helvetica,sans-Serif" font-size="11.00" fill="#000000"> &#160;</text>
<polygon fill="#ffffff" stroke="transparent" points="348.5,-348.2 348.5,-367.2 396.5,-367.2 396.5,-348.2 348.5,-348.2"/>
<polygon fill="none" stroke="#000000" points="348.5,-348.2 348.5,-367.2 396.5,-367.2 396.5,-348.2 348.5,-348.2"/>
<text text-anchor="start" x="371.7904" y="-354.3" font-family="Helvetica,sans-Serif" font-size="11.00" fill="#000000">12 &gt;</text>
</a>
</g>
</g>
<!-- reference_data_domain -->
<g id="node2" class="node">
<title>reference_data_domain</title>
<g id="a_node2"><a xlink:href="../../tables/reference_data_domain.html" xlink:title="reference_data_domain" target="_top">
<polygon fill="#ffffff" stroke="transparent" points="8,-453.7 8,-514.7 204,-514.7 204,-453.7 8,-453.7"/>
<polygon fill="#f5f5f5" stroke="transparent" points="8,-491.2 8,-514.2 204,-514.2 204,-491.2 8,-491.2"/>
<polygon fill="none" stroke="#000000" points="8,-491.2 8,-514.2 204,-514.2 204,-491.2 8,-491.2"/>
<text text-anchor="start" x="13" y="-499.8" font-family="Helvetica,sans-Serif" font-weight="bold" font-size="11.00" fill="#000000">reference_data_domain</text>
<text text-anchor="start" x="169.5219" y="-499.3" font-family="Helvetica,sans-Serif" font-size="11.00" fill="#000000">[table]</text>
<polygon fill="none" stroke="#000000" points="8,-472.2 8,-491.2 204,-491.2 204,-472.2 8,-472.2"/>
<text text-anchor="start" x="11" y="-478.3" font-family="Helvetica,sans-Serif" font-size="11.00" fill="#000000">...</text>
<polygon fill="#ffffff" stroke="transparent" points="8,-453.2 8,-472.2 95,-472.2 95,-453.2 8,-453.2"/>
<polygon fill="none" stroke="#000000" points="8,-453.2 8,-472.2 95,-472.2 95,-453.2 8,-453.2"/>
<text text-anchor="start" x="11" y="-459.3" font-family="Helvetica,sans-Serif" font-size="11.00" fill="#000000"> &#160;</text>
<polygon fill="#ffffff" stroke="transparent" points="95,-453.2 95,-472.2 145,-472.2 145,-453.2 95,-453.2"/>
<polygon fill="none" stroke="#000000" points="95,-453.2 95,-472.2 145,-472.2 145,-453.2 95,-453.2"/>
<text text-anchor="start" x="135.8862" y="-459.3" font-family="Helvetica,sans-Serif" font-size="11.00" fill="#000000"> &#160;</text>
<polygon fill="#ffffff" stroke="transparent" points="145,-453.2 145,-472.2 204,-472.2 204,-453.2 145,-453.2"/>
<polygon fill="none" stroke="#000000" points="145,-453.2 145,-472.2 204,-472.2 204,-453.2 145,-453.2"/>
<text text-anchor="start" x="185.4053" y="-459.3" font-family="Helvetica,sans-Serif" font-size="11.00" fill="#000000">2 &gt;</text>
</a>
</g>
</g>
<!-- reference_data&#45;&gt;reference_data_domain -->
<g id="edge1" class="edge">
<title>reference_data:w&#45;&gt;reference_data_domain:e</title>
<path fill="none" stroke="#000000" d="M239.6565,-445.7885C226.6245,-456.2952 226.3187,-481.2 204,-481.2"/>
<polygon fill="#000000" stroke="#000000" points="245.9063,-443.717 254.6327,-444.6172 249.7031,-442.4585 253.5,-441.2 253.5,-441.2 253.5,-441.2 249.7031,-442.4585 252.3673,-437.7828 245.9063,-443.717 245.9063,-443.717"/>
<ellipse fill="none" stroke="#000000" cx="242.8688" cy="-444.7238" rx="3.2" ry="3.2"/>
</g>
<!-- reference_data_domain_link -->
<g id="node3" class="node">
<title>reference_data_domain_link</title>
<g id="a_node3"><a xlink:href="../../tables/reference_data_domain_link.html" xlink:title="reference_data_domain_link" target="_top">
<polygon fill="#ffffff" stroke="transparent" points="498.5,-639.7 498.5,-700.7 725.5,-700.7 725.5,-639.7 498.5,-639.7"/>
<polygon fill="#f5f5f5" stroke="transparent" points="499,-677.2 499,-700.2 726,-700.2 726,-677.2 499,-677.2"/>
<polygon fill="none" stroke="#000000" points="499,-677.2 499,-700.2 726,-700.2 726,-677.2 499,-677.2"/>
<text text-anchor="start" x="504" y="-685.8" font-family="Helvetica,sans-Serif" font-weight="bold" font-size="11.00" fill="#000000">reference_data_domain_link</text>
<text text-anchor="start" x="691.5219" y="-685.3" font-family="Helvetica,sans-Serif" font-size="11.00" fill="#000000">[table]</text>
<polygon fill="none" stroke="#000000" points="499,-658.2 499,-677.2 726,-677.2 726,-658.2 499,-658.2"/>
<text text-anchor="start" x="502" y="-664.3" font-family="Helvetica,sans-Serif" font-size="11.00" fill="#000000">...</text>
<polygon fill="#ffffff" stroke="transparent" points="499,-639.2 499,-658.2 611,-658.2 611,-639.2 499,-639.2"/>
<polygon fill="none" stroke="#000000" points="499,-639.2 499,-658.2 611,-658.2 611,-639.2 499,-639.2"/>
<text text-anchor="start" x="502" y="-645.3" font-family="Helvetica,sans-Serif" font-size="11.00" fill="#000000">&lt; 2</text>
<polygon fill="#ffffff" stroke="transparent" points="611,-639.2 611,-658.2 668,-658.2 668,-639.2 611,-639.2"/>
<polygon fill="none" stroke="#000000" points="611,-639.2 611,-658.2 668,-658.2 668,-639.2 611,-639.2"/>
<text text-anchor="start" x="658.8862" y="-645.3" font-family="Helvetica,sans-Serif" font-size="11.00" fill="#000000"> &#160;</text>
<polygon fill="#ffffff" stroke="transparent" points="668,-639.2 668,-658.2 726,-658.2 726,-639.2 668,-639.2"/>
<polygon fill="none" stroke="#000000" points="668,-639.2 668,-658.2 726,-658.2 726,-639.2 668,-639.2"/>
<text text-anchor="start" x="716.8862" y="-645.3" font-family="Helvetica,sans-Serif" font-size="11.00" fill="#000000"> &#160;</text>
</a>
</g>
</g>
<!-- reference_data_domain_link&#45;&gt;reference_data -->
<g id="edge3" class="edge">
<title>reference_data_domain_link:w&#45;&gt;reference_data:e</title>
<path fill="none" stroke="#000000" d="M488.4826,-666.7065C464.0722,-664.2185 453.8123,-652.2526 437,-629.2 392.2518,-567.8424 472.4418,-463.2 396.5,-463.2"/>
<polygon fill="#000000" stroke="#000000" points="498.3884,-663.1669 498.0134,-671.1581 496.4151,-671.0831 496.7902,-663.0919 498.3884,-663.1669"/>
<polyline fill="none" stroke="#000000" points="499,-667.2 495.0044,-667.0125 "/>
<ellipse fill="none" stroke="#000000" cx="491.8079" cy="-666.8625" rx="3.2" ry="3.2"/>
</g>
<!-- reference_data_domain_link&#45;&gt;reference_data_domain -->
<g id="edge2" class="edge">
<title>reference_data_domain_link:w&#45;&gt;reference_data_domain:e</title>
<path fill="none" stroke="#000000" d="M484.4453,-665.3938C465.117,-659.9583 459.6245,-643.2616 437,-629.2 351.3327,-575.9559 329.7908,-562.8291 245,-508.2 226.6586,-496.383 225.8186,-481.2 204,-481.2"/>
<polygon fill="#000000" stroke="#000000" points="491.0609,-666.2147 498.5566,-670.7726 495.0304,-666.7074 499,-667.2 499,-667.2 499,-667.2 495.0304,-666.7074 499.4434,-663.6274 491.0609,-666.2147 491.0609,-666.2147"/>
<ellipse fill="none" stroke="#000000" cx="487.8853" cy="-665.8206" rx="3.2" ry="3.2"/>
</g>
<!-- reference_data_link -->
<g id="node4" class="node">
<title>reference_data_link</title>
<g id="a_node4"><a xlink:href="../../tables/reference_data_link.html" xlink:title="reference_data_link" target="_top">
<polygon fill="#ffffff" stroke="transparent" points="526.5,-557.7 526.5,-618.7 697.5,-618.7 697.5,-557.7 526.5,-557.7"/>
<polygon fill="#f5f5f5" stroke="transparent" points="527,-595.2 527,-618.2 698,-618.2 698,-595.2 527,-595.2"/>
<polygon fill="none" stroke="#000000" points="527,-595.2 527,-618.2 698,-618.2 698,-595.2 527,-595.2"/>
<text text-anchor="start" x="532" y="-603.8" font-family="Helvetica,sans-Serif" font-weight="bold" font-size="11.00" fill="#000000">reference_data_link</text>
<text text-anchor="start" x="663.5219" y="-603.3" font-family="Helvetica,sans-Serif" font-size="11.00" fill="#000000">[table]</text>
<polygon fill="none" stroke="#000000" points="527,-576.2 527,-595.2 698,-595.2 698,-576.2 527,-576.2"/>
<text text-anchor="start" x="530" y="-582.3" font-family="Helvetica,sans-Serif" font-size="11.00" fill="#000000">...</text>
<polygon fill="#ffffff" stroke="transparent" points="527,-557.2 527,-576.2 611,-576.2 611,-557.2 527,-557.2"/>
<polygon fill="none" stroke="#000000" points="527,-557.2 527,-576.2 611,-576.2 611,-557.2 527,-557.2"/>
<text text-anchor="start" x="530" y="-563.3" font-family="Helvetica,sans-Serif" font-size="11.00" fill="#000000">&lt; 2</text>
<polygon fill="#ffffff" stroke="transparent" points="611,-557.2 611,-576.2 654,-576.2 654,-557.2 611,-557.2"/>
<polygon fill="none" stroke="#000000" points="611,-557.2 611,-576.2 654,-576.2 654,-557.2 611,-557.2"/>
<text text-anchor="start" x="644.8862" y="-563.3" font-family="Helvetica,sans-Serif" font-size="11.00" fill="#000000"> &#160;</text>
<polygon fill="#ffffff" stroke="transparent" points="654,-557.2 654,-576.2 698,-576.2 698,-557.2 654,-557.2"/>
<polygon fill="none" stroke="#000000" points="654,-557.2 654,-576.2 698,-576.2 698,-557.2 654,-557.2"/>
<text text-anchor="start" x="688.8862" y="-563.3" font-family="Helvetica,sans-Serif" font-size="11.00" fill="#000000"> &#160;</text>
</a>
</g>
</g>
<!-- reference_data_link&#45;&gt;reference_data -->
<g id="edge4" class="edge">
<title>reference_data_link:w&#45;&gt;reference_data:e</title>
<path fill="none" stroke="#000000" d="M512.6407,-582.8499C479.3011,-576.287 464.9923,-564.3103 437,-537.2 408.3729,-509.4748 436.3522,-457.2 396.5,-463.2"/>
<polygon fill="#000000" stroke="#000000" points="519.105,-583.9078 526.4185,-588.7527 523.0525,-584.5539 527,-585.2 527,-585.2 527,-585.2 523.0525,-584.5539 527.5815,-581.6473 519.105,-583.9078 519.105,-583.9078"/>
<ellipse fill="none" stroke="#000000" cx="515.9471" cy="-583.391" rx="3.2" ry="3.2"/>
</g>
<!-- reference_data_link&#45;&gt;reference_data -->
<g id="edge5" class="edge">
<title>reference_data_link:w&#45;&gt;reference_data:e</title>
<path fill="none" stroke="#000000" d="M512.6407,-586.9056C479.3011,-589.287 464.9923,-577.3103 437,-550.2 408.3729,-522.4748 436.3522,-470.2 396.5,-463.2"/>
<polygon fill="#000000" stroke="#000000" points="519.0558,-586.1436 527.4246,-588.7749 523.0279,-585.6718 527,-585.2 527,-585.2 527,-585.2 523.0279,-585.6718 526.5754,-581.6251 519.0558,-586.1436 519.0558,-586.1436"/>
<ellipse fill="none" stroke="#000000" cx="515.8782" cy="-586.5211" rx="3.2" ry="3.2"/>
</g>
<!-- temporary_absence_authorisation -->
<g id="node5" class="node">
<title>temporary_absence_authorisation</title>
<g id="a_node5"><a xlink:href="../../tables/temporary_absence_authorisation.html" xlink:title="temporary_absence_authorisation" target="_top">
<polygon fill="#ffffff" stroke="transparent" points="478,-435.7 478,-496.7 746,-496.7 746,-435.7 478,-435.7"/>
<polygon fill="#f5f5f5" stroke="transparent" points="478,-473.2 478,-496.2 746,-496.2 746,-473.2 478,-473.2"/>
<polygon fill="none" stroke="#000000" points="478,-473.2 478,-496.2 746,-496.2 746,-473.2 478,-473.2"/>
<text text-anchor="start" x="483" y="-481.8" font-family="Helvetica,sans-Serif" font-weight="bold" font-size="11.00" fill="#000000">temporary_absence_authorisation</text>
<text text-anchor="start" x="711.5219" y="-481.3" font-family="Helvetica,sans-Serif" font-size="11.00" fill="#000000">[table]</text>
<polygon fill="none" stroke="#000000" points="478,-454.2 478,-473.2 746,-473.2 746,-454.2 478,-454.2"/>
<text text-anchor="start" x="481" y="-460.3" font-family="Helvetica,sans-Serif" font-size="11.00" fill="#000000">...</text>
<polygon fill="#ffffff" stroke="transparent" points="478,-435.2 478,-454.2 606,-454.2 606,-435.2 478,-435.2"/>
<polygon fill="none" stroke="#000000" points="478,-435.2 478,-454.2 606,-454.2 606,-435.2 478,-435.2"/>
<text text-anchor="start" x="481" y="-441.3" font-family="Helvetica,sans-Serif" font-size="11.00" fill="#000000">&lt; 5</text>
<polygon fill="#ffffff" stroke="transparent" points="606,-435.2 606,-454.2 671,-454.2 671,-435.2 606,-435.2"/>
<polygon fill="none" stroke="#000000" points="606,-435.2 606,-454.2 671,-454.2 671,-435.2 606,-435.2"/>
<text text-anchor="start" x="661.8862" y="-441.3" font-family="Helvetica,sans-Serif" font-size="11.00" fill="#000000"> &#160;</text>
<polygon fill="#ffffff" stroke="transparent" points="671,-435.2 671,-454.2 746,-454.2 746,-435.2 671,-435.2"/>
<polygon fill="none" stroke="#000000" points="671,-435.2 671,-454.2 746,-454.2 746,-435.2 671,-435.2"/>
<text text-anchor="start" x="727.4053" y="-441.3" font-family="Helvetica,sans-Serif" font-size="11.00" fill="#000000">1 &gt;</text>
</a>
</g>
</g>
<!-- temporary_absence_authorisation&#45;&gt;reference_data -->
<g id="edge6" class="edge">
<title>temporary_absence_authorisation:w&#45;&gt;reference_data:e</title>
<path fill="none" stroke="#000000" d="M465.9398,-454.8985C439.1863,-437.5813 428.3359,-440.3484 396.5,-463.2"/>
<polygon fill="#000000" stroke="#000000" points="471.4102,-458.664 475.9588,-466.1654 474.7051,-460.932 478,-463.2 478,-463.2 478,-463.2 474.7051,-460.932 480.0412,-460.2346 471.4102,-458.664 471.4102,-458.664"/>
<ellipse fill="none" stroke="#000000" cx="468.7743" cy="-456.8496" rx="3.2" ry="3.2"/>
</g>
<!-- temporary_absence_authorisation&#45;&gt;reference_data -->
<g id="edge7" class="edge">
<title>temporary_absence_authorisation:w&#45;&gt;reference_data:e</title>
<path fill="none" stroke="#000000" d="M464.1793,-458.4869C438.6937,-450.4571 427.6285,-452.0281 396.5,-463.2"/>
<polygon fill="#000000" stroke="#000000" points="470.4282,-460.6178 476.838,-466.6073 474.2141,-461.9089 478,-463.2 478,-463.2 478,-463.2 474.2141,-461.9089 479.162,-459.7927 470.4282,-460.6178 470.4282,-460.6178"/>
<ellipse fill="none" stroke="#000000" cx="467.3994" cy="-459.5849" rx="3.2" ry="3.2"/>
</g>
<!-- temporary_absence_authorisation&#45;&gt;reference_data -->
<g id="edge8" class="edge">
<title>temporary_absence_authorisation:w&#45;&gt;reference_data:e</title>
<path fill="none" stroke="#000000" d="M463.4878,-463.2C438.4908,-463.2 427.3455,-463.2 396.5,-463.2"/>
<polygon fill="#000000" stroke="#000000" points="470,-463.2001 478,-466.8 474,-463.2 478,-463.2 478,-463.2 478,-463.2 474,-463.2 478,-459.6 470,-463.2001 470,-463.2001"/>
<ellipse fill="none" stroke="#000000" cx="466.8" cy="-463.2001" rx="3.2" ry="3.2"/>
</g>
<!-- temporary_absence_authorisation&#45;&gt;reference_data -->
<g id="edge9" class="edge">
<title>temporary_absence_authorisation:w&#45;&gt;reference_data:e</title>
<path fill="none" stroke="#000000" d="M464.1793,-467.9131C438.6937,-475.9429 427.6285,-474.3719 396.5,-463.2"/>
<polygon fill="#000000" stroke="#000000" points="470.4282,-465.7822 479.162,-466.6073 474.2141,-464.4911 478,-463.2 478,-463.2 478,-463.2 474.2141,-464.4911 476.838,-459.7927 470.4282,-465.7822 470.4282,-465.7822"/>
<ellipse fill="none" stroke="#000000" cx="467.3994" cy="-466.8151" rx="3.2" ry="3.2"/>
</g>
<!-- temporary_absence_authorisation&#45;&gt;reference_data -->
<g id="edge10" class="edge">
<title>temporary_absence_authorisation:w&#45;&gt;reference_data:e</title>
<path fill="none" stroke="#000000" d="M465.9398,-471.5015C439.1863,-488.8187 428.3359,-486.0516 396.5,-463.2"/>
<polygon fill="#000000" stroke="#000000" points="471.4102,-467.736 480.0412,-466.1654 474.7051,-465.468 478,-463.2 478,-463.2 478,-463.2 474.7051,-465.468 475.9588,-460.2346 471.4102,-467.736 471.4102,-467.736"/>
<ellipse fill="none" stroke="#000000" cx="468.7743" cy="-469.5504" rx="3.2" ry="3.2"/>
</g>
<!-- temporary_absence_movement -->
<g id="node6" class="node">
<title>temporary_absence_movement</title>
<g id="a_node6"><a xlink:href="../../tables/temporary_absence_movement.html" xlink:title="temporary_absence_movement" target="_top">
<polygon fill="#ffffff" stroke="transparent" points="445,-38.2 445,-414.2 779,-414.2 779,-38.2 445,-38.2"/>
<polygon fill="#f5f5f5" stroke="transparent" points="447,-389.2 447,-412.2 777,-412.2 777,-389.2 447,-389.2"/>
<polygon fill="none" stroke="#000000" points="447,-389.2 447,-412.2 777,-412.2 777,-389.2 447,-389.2"/>
<text text-anchor="start" x="452" y="-397.8" font-family="Helvetica,sans-Serif" font-weight="bold" font-size="11.00" fill="#000000">temporary_absence_movement</text>
<text text-anchor="start" x="742.0437" y="-397.3" font-family="Helvetica,sans-Serif" font-size="11.00" fill="#000000">[table]</text>
<polygon fill="none" stroke="#000000" points="447,-367.2 447,-389.2 678,-389.2 678,-367.2 447,-367.2"/>
<image xlink:href="../../images/primaryKeys.png" width="11px" height="12px" preserveAspectRatio="xMinYMin meet" x="452" y="-384.2"/>
<text text-anchor="start" x="467" y="-374.3" font-family="Helvetica,sans-Serif" font-size="11.00" fill="#000000">id</text>
<polygon fill="none" stroke="#000000" points="678,-367.2 678,-389.2 777,-389.2 777,-367.2 678,-367.2"/>
<text text-anchor="start" x="681" y="-374.9" font-family="Helvetica,sans-Serif" font-size="11.00" fill="#000000">uuid[2147483647]</text>
<polygon fill="none" stroke="#000000" points="447,-345.2 447,-367.2 678,-367.2 678,-345.2 447,-345.2"/>
<text text-anchor="start" x="467" y="-352.3" font-family="Helvetica,sans-Serif" font-size="11.00" fill="#000000">version</text>
<polygon fill="none" stroke="#000000" points="678,-345.2 678,-367.2 777,-367.2 777,-345.2 678,-345.2"/>
<text text-anchor="start" x="681" y="-352.9" font-family="Helvetica,sans-Serif" font-size="11.00" fill="#000000">int4[10]</text>
<polygon fill="#ffffff" stroke="transparent" points="447,-323.2 447,-345.2 678,-345.2 678,-323.2 447,-323.2"/>
<polygon fill="none" stroke="#000000" points="447,-323.2 447,-345.2 678,-345.2 678,-323.2 447,-323.2"/>
<text text-anchor="start" x="467" y="-330.3" font-family="Helvetica,sans-Serif" font-size="11.00" fill="#000000">person_identifier</text>
<polygon fill="none" stroke="#000000" points="678,-323.2 678,-345.2 777,-345.2 777,-323.2 678,-323.2"/>
<text text-anchor="start" x="681" y="-330.9" font-family="Helvetica,sans-Serif" font-size="11.00" fill="#000000">varchar[10]</text>
<polygon fill="none" stroke="#000000" points="447,-301.2 447,-323.2 678,-323.2 678,-301.2 447,-301.2"/>
<text text-anchor="start" x="467" y="-308.3" font-family="Helvetica,sans-Serif" font-size="11.00" fill="#000000">occurrence_id</text>
<polygon fill="none" stroke="#000000" points="678,-301.2 678,-323.2 777,-323.2 777,-301.2 678,-301.2"/>
<text text-anchor="start" x="681" y="-308.9" font-family="Helvetica,sans-Serif" font-size="11.00" fill="#000000">uuid[2147483647]</text>
<polygon fill="#ffffff" stroke="transparent" points="447,-279.2 447,-301.2 678,-301.2 678,-279.2 447,-279.2"/>
<polygon fill="none" stroke="#000000" points="447,-279.2 447,-301.2 678,-301.2 678,-279.2 447,-279.2"/>
<text text-anchor="start" x="467" y="-286.3" font-family="Helvetica,sans-Serif" font-size="11.00" fill="#000000">occurred_at</text>
<polygon fill="none" stroke="#000000" points="678,-279.2 678,-301.2 777,-301.2 777,-279.2 678,-279.2"/>
<text text-anchor="start" x="681" y="-286.9" font-family="Helvetica,sans-Serif" font-size="11.00" fill="#000000">timestamp[29,6]</text>
<polygon fill="none" stroke="#000000" points="447,-257.2 447,-279.2 678,-279.2 678,-257.2 447,-257.2"/>
<text text-anchor="start" x="467" y="-264.3" font-family="Helvetica,sans-Serif" font-size="11.00" fill="#000000">direction</text>
<polygon fill="none" stroke="#000000" points="678,-257.2 678,-279.2 777,-279.2 777,-257.2 678,-257.2"/>
<text text-anchor="start" x="681" y="-264.9" font-family="Helvetica,sans-Serif" font-size="11.00" fill="#000000">varchar[3]</text>
<polygon fill="none" stroke="#000000" points="447,-235.2 447,-257.2 678,-257.2 678,-235.2 447,-235.2"/>
<image xlink:href="../../images/foreignKeys.png" width="11px" height="12px" preserveAspectRatio="xMinYMin meet" x="452" y="-252.2"/>
<text text-anchor="start" x="467" y="-242.3" font-family="Helvetica,sans-Serif" font-size="11.00" fill="#000000">absence_reason_id</text>
<polygon fill="none" stroke="#000000" points="678,-235.2 678,-257.2 777,-257.2 777,-235.2 678,-235.2"/>
<text text-anchor="start" x="681" y="-242.9" font-family="Helvetica,sans-Serif" font-size="11.00" fill="#000000">int8[19]</text>
<polygon fill="none" stroke="#000000" points="447,-213.2 447,-235.2 678,-235.2 678,-213.2 447,-213.2"/>
<image xlink:href="../../images/foreignKeys.png" width="11px" height="12px" preserveAspectRatio="xMinYMin meet" x="452" y="-230.2"/>
<text text-anchor="start" x="467" y="-220.3" font-family="Helvetica,sans-Serif" font-size="11.00" fill="#000000">accompanied_by_id</text>
<polygon fill="none" stroke="#000000" points="678,-213.2 678,-235.2 777,-235.2 777,-213.2 678,-213.2"/>
<text text-anchor="start" x="681" y="-220.9" font-family="Helvetica,sans-Serif" font-size="11.00" fill="#000000">int8[19]</text>
<polygon fill="none" stroke="#000000" points="447,-191.2 447,-213.2 678,-213.2 678,-191.2 447,-191.2"/>
<text text-anchor="start" x="467" y="-198.3" font-family="Helvetica,sans-Serif" font-size="11.00" fill="#000000">accompanied_by_notes</text>
<polygon fill="none" stroke="#000000" points="678,-191.2 678,-213.2 777,-213.2 777,-191.2 678,-191.2"/>
<text text-anchor="start" x="681" y="-198.9" font-family="Helvetica,sans-Serif" font-size="11.00" fill="#000000">text[2147483647]</text>
<polygon fill="none" stroke="#000000" points="447,-169.2 447,-191.2 678,-191.2 678,-169.2 447,-169.2"/>
<text text-anchor="start" x="467" y="-176.3" font-family="Helvetica,sans-Serif" font-size="11.00" fill="#000000">notes</text>
<polygon fill="none" stroke="#000000" points="678,-169.2 678,-191.2 777,-191.2 777,-169.2 678,-169.2"/>
<text text-anchor="start" x="681" y="-176.9" font-family="Helvetica,sans-Serif" font-size="11.00" fill="#000000">text[2147483647]</text>
<polygon fill="none" stroke="#000000" points="447,-147.2 447,-169.2 678,-169.2 678,-147.2 447,-147.2"/>
<text text-anchor="start" x="467" y="-154.3" font-family="Helvetica,sans-Serif" font-size="11.00" fill="#000000">recorded_at</text>
<polygon fill="none" stroke="#000000" points="678,-147.2 678,-169.2 777,-169.2 777,-147.2 678,-147.2"/>
<text text-anchor="start" x="681" y="-154.9" font-family="Helvetica,sans-Serif" font-size="11.00" fill="#000000">timestamp[29,6]</text>
<polygon fill="none" stroke="#000000" points="447,-125.2 447,-147.2 678,-147.2 678,-125.2 447,-125.2"/>
<text text-anchor="start" x="467" y="-132.3" font-family="Helvetica,sans-Serif" font-size="11.00" fill="#000000">recorded_by</text>
<polygon fill="none" stroke="#000000" points="678,-125.2 678,-147.2 777,-147.2 777,-125.2 678,-125.2"/>
<text text-anchor="start" x="681" y="-132.9" font-family="Helvetica,sans-Serif" font-size="11.00" fill="#000000">varchar[64]</text>
<polygon fill="none" stroke="#000000" points="447,-103.2 447,-125.2 678,-125.2 678,-103.2 447,-103.2"/>
<text text-anchor="start" x="467" y="-110.3" font-family="Helvetica,sans-Serif" font-size="11.00" fill="#000000">recorded_by_prison_code</text>
<polygon fill="none" stroke="#000000" points="678,-103.2 678,-125.2 777,-125.2 777,-103.2 678,-103.2"/>
<text text-anchor="start" x="681" y="-110.9" font-family="Helvetica,sans-Serif" font-size="11.00" fill="#000000">varchar[6]</text>
<polygon fill="#ffffff" stroke="transparent" points="447,-81.2 447,-103.2 678,-103.2 678,-81.2 447,-81.2"/>
<polygon fill="none" stroke="#000000" points="447,-81.2 447,-103.2 678,-103.2 678,-81.2 447,-81.2"/>
<text text-anchor="start" x="467" y="-88.3" font-family="Helvetica,sans-Serif" font-size="11.00" fill="#000000">legacy_id</text>
<polygon fill="none" stroke="#000000" points="678,-81.2 678,-103.2 777,-103.2 777,-81.2 678,-81.2"/>
<text text-anchor="start" x="681" y="-88.9" font-family="Helvetica,sans-Serif" font-size="11.00" fill="#000000">varchar[32]</text>
<polygon fill="none" stroke="#000000" points="447,-59.2 447,-81.2 678,-81.2 678,-59.2 447,-59.2"/>
<text text-anchor="start" x="467" y="-66.3" font-family="Helvetica,sans-Serif" font-size="11.00" fill="#000000">location</text>
<polygon fill="none" stroke="#000000" points="678,-59.2 678,-81.2 777,-81.2 777,-59.2 678,-59.2"/>
<text text-anchor="start" x="680.7258" y="-66.9" font-family="Helvetica,sans-Serif" font-size="11.00" fill="#000000">jsonb[2147483647]</text>
<polygon fill="#ffffff" stroke="transparent" points="447,-40.2 447,-59.2 567,-59.2 567,-40.2 447,-40.2"/>
<polygon fill="none" stroke="#000000" points="447,-40.2 447,-59.2 567,-59.2 567,-40.2 447,-40.2"/>
<text text-anchor="start" x="450" y="-46.3" font-family="Helvetica,sans-Serif" font-size="11.00" fill="#000000">&lt; 2</text>
<polygon fill="#ffffff" stroke="transparent" points="567,-40.2 567,-59.2 678,-59.2 678,-40.2 567,-40.2"/>
<polygon fill="none" stroke="#000000" points="567,-40.2 567,-59.2 678,-59.2 678,-40.2 567,-40.2"/>
<text text-anchor="start" x="668.8862" y="-46.3" font-family="Helvetica,sans-Serif" font-size="11.00" fill="#000000"> &#160;</text>
<polygon fill="#ffffff" stroke="transparent" points="678,-40.2 678,-59.2 777,-59.2 777,-40.2 678,-40.2"/>
<polygon fill="none" stroke="#000000" points="678,-40.2 678,-59.2 777,-59.2 777,-40.2 678,-40.2"/>
<text text-anchor="start" x="758.4053" y="-46.3" font-family="Helvetica,sans-Serif" font-size="11.00" fill="#000000">0 &gt;</text>
<polygon fill="none" stroke="#000000" stroke-width="2" points="446,-39.2 446,-413.2 778,-413.2 778,-39.2 446,-39.2"/>
</a>
</g>
</g>
<!-- temporary_absence_movement&#45;&gt;reference_data -->
<g id="edge11" class="edge">
<title>temporary_absence_movement:w&#45;&gt;reference_data:e</title>
<path fill="none" stroke="#000000" d="M432.4575,-248.2096C363.9012,-270.0859 489.913,-463.2 396.5,-463.2"/>
<polygon fill="#000000" stroke="#000000" points="439.0753,-247.2952 447.4928,-249.7661 443.0377,-246.7476 447,-246.2 447,-246.2 447,-246.2 443.0377,-246.7476 446.5072,-242.6339 439.0753,-247.2952 439.0753,-247.2952"/>
<ellipse fill="none" stroke="#000000" cx="435.9054" cy="-247.7332" rx="3.2" ry="3.2"/>
</g>
<!-- temporary_absence_movement&#45;&gt;reference_data -->
<g id="edge12" class="edge">
<title>temporary_absence_movement:w&#45;&gt;reference_data:e</title>
<path fill="none" stroke="#000000" d="M432.5174,-225.9864C354.6467,-247.8571 499.5544,-463.2 396.5,-463.2"/>
<polygon fill="#000000" stroke="#000000" points="439.0602,-225.1794 447.4407,-227.7729 443.0301,-224.6897 447,-224.2 447,-224.2 447,-224.2 443.0301,-224.6897 446.5593,-220.6271 439.0602,-225.1794 439.0602,-225.1794"/>
<ellipse fill="none" stroke="#000000" cx="435.8842" cy="-225.5711" rx="3.2" ry="3.2"/>
</g>
<!-- temporary_absence_occurrence -->
<g id="node7" class="node">
<title>temporary_absence_occurrence</title>
<g id="a_node7"><a xlink:href="../../tables/temporary_absence_occurrence.html" xlink:title="temporary_absence_occurrence" target="_top">
<polygon fill="#ffffff" stroke="transparent" points="828,-499.7 828,-560.7 1080,-560.7 1080,-499.7 828,-499.7"/>
<polygon fill="#f5f5f5" stroke="transparent" points="828,-537.2 828,-560.2 1080,-560.2 1080,-537.2 828,-537.2"/>
<polygon fill="none" stroke="#000000" points="828,-537.2 828,-560.2 1080,-560.2 1080,-537.2 828,-537.2"/>
<text text-anchor="start" x="833" y="-545.8" font-family="Helvetica,sans-Serif" font-weight="bold" font-size="11.00" fill="#000000">temporary_absence_occurrence</text>
<text text-anchor="start" x="1045.5219" y="-545.3" font-family="Helvetica,sans-Serif" font-size="11.00" fill="#000000">[table]</text>
<polygon fill="none" stroke="#000000" points="828,-518.2 828,-537.2 1080,-537.2 1080,-518.2 828,-518.2"/>
<text text-anchor="start" x="831" y="-524.3" font-family="Helvetica,sans-Serif" font-size="11.00" fill="#000000">...</text>
<polygon fill="#ffffff" stroke="transparent" points="828,-499.2 828,-518.2 952,-518.2 952,-499.2 828,-499.2"/>
<polygon fill="none" stroke="#000000" points="828,-499.2 828,-518.2 952,-518.2 952,-499.2 828,-499.2"/>
<text text-anchor="start" x="831" y="-505.3" font-family="Helvetica,sans-Serif" font-size="11.00" fill="#000000">&lt; 3</text>
<polygon fill="#ffffff" stroke="transparent" points="952,-499.2 952,-518.2 1016,-518.2 1016,-499.2 952,-499.2"/>
<polygon fill="none" stroke="#000000" points="952,-499.2 952,-518.2 1016,-518.2 1016,-499.2 952,-499.2"/>
<text text-anchor="start" x="1006.8862" y="-505.3" font-family="Helvetica,sans-Serif" font-size="11.00" fill="#000000"> &#160;</text>
<polygon fill="#ffffff" stroke="transparent" points="1016,-499.2 1016,-518.2 1080,-518.2 1080,-499.2 1016,-499.2"/>
<polygon fill="none" stroke="#000000" points="1016,-499.2 1016,-518.2 1080,-518.2 1080,-499.2 1016,-499.2"/>
<text text-anchor="start" x="1070.8862" y="-505.3" font-family="Helvetica,sans-Serif" font-size="11.00" fill="#000000"> &#160;</text>
</a>
</g>
</g>
<!-- temporary_absence_occurrence&#45;&gt;reference_data -->
<g id="edge13" class="edge">
<title>temporary_absence_occurrence:w&#45;&gt;reference_data:e</title>
<path fill="none" stroke="#000000" d="M813.4871,-527.3257C650.5471,-530.1532 590.0483,-579.056 437,-507.2 412.9411,-495.9044 423.0786,-463.2 396.5,-463.2"/>
<polygon fill="#000000" stroke="#000000" points="820.0003,-527.2693 828.0312,-530.7999 824.0001,-527.2347 828,-527.2 828,-527.2 828,-527.2 824.0001,-527.2347 827.9688,-523.6001 820.0003,-527.2693 820.0003,-527.2693"/>
<ellipse fill="none" stroke="#000000" cx="816.8004" cy="-527.2971" rx="3.2" ry="3.2"/>
</g>
<!-- temporary_absence_occurrence&#45;&gt;reference_data -->
<g id="edge15" class="edge">
<title>temporary_absence_occurrence:w&#45;&gt;reference_data:e</title>
<path fill="none" stroke="#000000" d="M813.4825,-527.3094C650.5324,-529.7692 591.4541,-572.2205 437,-503.2 413.9021,-492.8783 421.7992,-463.2 396.5,-463.2"/>
<polygon fill="#000000" stroke="#000000" points="820.0002,-527.2603 828.0272,-530.7999 824.0001,-527.2302 828,-527.2 828,-527.2 828,-527.2 824.0001,-527.2302 827.9728,-523.6001 820.0002,-527.2603 820.0002,-527.2603"/>
<ellipse fill="none" stroke="#000000" cx="816.8003" cy="-527.2845" rx="3.2" ry="3.2"/>
</g>
<!-- temporary_absence_occurrence&#45;&gt;temporary_absence_authorisation -->
<g id="edge14" class="edge">
<title>temporary_absence_occurrence:w&#45;&gt;temporary_absence_authorisation:e</title>
<path fill="none" stroke="#000000" d="M813.4978,-524.6119C783.4716,-512.6385 786.6325,-463.2 746,-463.2"/>
<polygon fill="#000000" stroke="#000000" points="820.1244,-525.7944 827.3675,-530.744 824.0622,-526.4972 828,-527.2 828,-527.2 828,-527.2 824.0622,-526.4972 828.6325,-523.656 820.1244,-525.7944 820.1244,-525.7944"/>
<ellipse fill="none" stroke="#000000" cx="816.9742" cy="-525.2322" rx="3.2" ry="3.2"/>
</g>
</g>
</svg>
